<?xml version="1.0" encoding="UTF-8" standalone="no"?>
<svg xmlns:ffdec="https://www.free-decompiler.com/flash" xmlns:xlink="http://www.w3.org/1999/xlink" ffdec:objectType="shape" height="87.2px" width="150.5px" xmlns="http://www.w3.org/2000/svg">
  <g transform="matrix(1.0, 0.0, 0.0, 1.0, 61.25, 61.35)">
    <path d="M18.2 -60.5 Q25.5 -59.4 25.95 -57.45 L26.0 -57.3 27.0 -56.9 30.85 -57.1 Q45.95 -56.7 56.0 -52.4 65.1 -48.5 66.25 -43.5 66.65 -41.8 65.95 -40.8 L65.25 -40.0 Q69.9 -39.35 72.15 -37.85 L73.3 -36.85 74.05 -35.4 Q74.15 -35.1 73.85 -34.65 L73.2 -35.05 72.9 -34.65 72.75 -34.4 73.0 -33.7 Q73.3 -32.45 71.1 -31.75 L66.65 -31.25 66.1 -31.3 66.3 -30.65 Q66.85 -28.25 60.1 -26.75 L55.35 -25.9 62.8 -23.95 Q68.25 -22.15 69.95 -20.45 74.25 -17.65 74.9 -14.1 78.15 -12.55 78.65 -10.35 79.1 -8.5 77.65 -7.65 76.85 -7.2 75.45 -6.9 78.75 -6.6 82.0 -5.35 86.35 -3.75 87.9 -1.45 L88.05 -1.45 Q89.0 0.5 89.2 1.65 89.4 2.75 88.6 5.1 87.05 7.05 85.0 7.8 83.0 8.6 80.55 8.2 L78.5 7.8 74.7 6.85 74.7 6.9 73.75 7.8 73.65 7.9 Q72.55 8.75 70.95 8.9 L66.9 9.0 65.25 8.75 Q64.85 10.7 63.25 12.75 60.3 16.45 55.0 16.4 L48.2 16.4 Q42.3 16.0 39.75 13.4 38.0 11.6 38.0 9.2 38.0 6.55 39.0 4.75 L37.65 4.15 Q35.85 2.5 35.0 2.5 34.6 2.5 32.95 4.05 L29.05 7.45 28.55 7.8 27.6 8.5 27.45 9.0 Q26.95 10.85 24.0 11.9 21.15 12.95 16.9 12.95 L10.35 12.45 9.3 12.1 4.35 11.25 Q-2.45 11.7 -4.75 14.35 L-6.6 16.25 Q-6.7 18.7 -7.7 20.55 -9.5 23.8 -13.6 24.2 L-19.2 24.2 Q-23.4 23.95 -26.65 21.0 -26.95 20.7 -29.35 19.35 L-30.35 18.6 -32.0 19.3 -35.0 20.25 Q-36.9 20.85 -38.95 21.05 -41.35 21.65 -42.95 21.0 -44.55 20.8 -45.65 20.0 L-46.7 18.95 Q-48.2 19.5 -52.55 20.25 -57.45 21.05 -60.65 17.15 -61.4 14.85 -61.2 13.75 -61.0 12.6 -60.05 10.65 L-59.9 10.65 Q-58.35 8.35 -54.0 6.7 -50.75 5.5 -47.45 5.15 -48.9 4.9 -49.65 4.45 -51.1 3.55 -50.7 1.7 -50.25 -0.05 -48.0 -1.45 -47.9 -2.75 -47.35 -3.95 -45.8 -7.1 -40.7 -9.3 -38.75 -10.6 -34.8 -11.9 L-27.35 -13.8 -32.1 -14.65 Q-38.85 -16.15 -38.3 -18.55 L-38.1 -19.2 -38.7 -19.2 -43.1 -19.7 Q-45.0 -20.25 -45.05 -21.3 L-45.2 -22.35 -45.15 -22.95 -45.85 -22.55 Q-46.15 -23.0 -46.05 -23.3 -45.25 -26.8 -37.25 -27.9 L-37.95 -28.7 Q-38.65 -29.7 -38.25 -31.4 -37.1 -36.4 -28.0 -40.3 L-27.7 -40.4 -27.6 -39.6 -27.55 -39.6 Q-28.9 -50.05 -7.6 -53.1 L-9.6 -53.6 Q-11.95 -54.35 -12.2 -55.55 -12.85 -58.3 -6.6 -59.9 L2.5 -61.3 18.2 -60.5 M42.2 6.05 L42.6 5.55 42.55 5.55 42.2 6.05 M-13.05 20.75 L-13.3 20.75 -14.3 20.95 -13.05 20.75" fill="#e077bb" fill-rule="evenodd" stroke="none"/>
    <path d="M24.85 -45.6 L26.55 -44.9 Q32.15 -43.05 32.15 -39.95 32.15 -37.55 28.55 -35.55 L28.45 -34.75 32.0 -33.95 Q33.5 -33.2 34.25 -32.4 35.15 -31.6 35.25 -30.7 L36.7 -29.85 37.65 -28.7 40.55 -29.0 Q43.55 -29.0 45.75 -27.95 L47.25 -27.05 Q48.0 -26.5 48.0 -25.7 48.0 -24.4 45.9 -23.35 L45.05 -23.05 43.75 -21.85 Q42.15 -21.25 40.0 -21.25 37.8 -21.25 36.3 -21.85 L35.45 -22.45 Q34.6 -23.15 34.5 -23.85 L34.0 -24.3 33.65 -24.1 30.3 -23.1 30.3 -23.3 27.65 -22.8 27.85 -21.95 27.95 -21.85 28.25 -21.55 29.25 -21.55 30.5 -21.35 Q33.0 -21.05 34.95 -20.25 L35.8 -19.55 36.6 -18.55 37.75 -18.15 39.2 -17.25 44.15 -16.0 44.9 -15.3 45.75 -14.4 46.9 -14.0 48.7 -12.75 49.7 -11.55 49.8 -11.2 49.85 -10.7 Q49.65 -9.2 46.3 -8.5 L38.55 -8.05 Q33.9 -8.45 30.9 -10.05 29.4 -10.6 28.7 -11.35 28.05 -11.85 27.95 -12.4 L27.3 -12.45 27.35 -12.6 26.7 -12.7 24.8 -13.1 24.6 -13.1 Q21.95 -12.05 18.45 -12.05 L17.55 -12.05 13.85 -12.6 12.75 -12.2 10.15 -12.3 10.45 -12.05 Q11.5 -11.3 11.25 -10.6 11.05 -9.8 9.65 -9.55 L6.7 -9.75 Q5.1 -10.15 4.05 -10.85 3.0 -11.65 3.25 -12.4 3.45 -13.15 4.8 -13.4 L7.4 -13.35 7.05 -13.5 Q6.05 -14.25 6.25 -15.05 6.5 -15.8 7.8 -15.95 7.05 -17.0 7.05 -18.25 7.05 -20.0 8.5 -21.4 L3.65 -21.25 -1.8 -21.45 Q-2.15 -20.0 -3.8 -18.55 -3.9 -16.5 -6.25 -14.7 -6.95 -14.3 -7.7 -14.05 -7.0 -13.2 -7.0 -11.95 -7.0 -9.3 -11.0 -7.15 -14.65 -5.1 -17.9 -5.1 -21.1 -5.1 -22.45 -7.15 -23.15 -8.15 -23.2 -9.15 -23.2 -11.4 -20.7 -13.2 -19.45 -14.1 -17.95 -14.65 L-18.0 -14.7 -19.8 -16.75 -20.15 -17.15 -20.15 -17.2 -21.3 -17.65 Q-24.55 -19.8 -24.55 -22.6 -24.55 -25.25 -21.3 -26.9 L-20.2 -27.45 -19.7 -27.75 -19.6 -27.8 -18.6 -28.2 -18.5 -28.25 -18.4 -28.25 -18.3 -28.3 Q-18.25 -30.3 -12.55 -31.5 -6.55 -33.2 1.65 -33.2 L2.6 -33.2 2.1 -33.85 -0.05 -34.45 Q-4.75 -36.65 -5.35 -39.3 L-6.95 -39.95 Q-5.1 -38.05 -5.45 -36.25 -5.95 -34.5 -8.45 -33.9 -11.0 -33.35 -14.1 -34.35 -17.2 -35.3 -19.1 -37.1 -20.95 -39.1 -20.55 -40.9 -20.15 -42.75 -17.65 -43.3 -15.2 -43.9 -12.05 -42.9 L-11.25 -42.7 Q-12.55 -43.9 -12.4 -45.35 L-12.25 -46.05 Q-11.75 -47.45 -9.7 -48.5 -9.5 -50.2 -6.8 -51.45 L-0.55 -51.8 Q3.1 -51.35 5.8 -49.9 7.25 -48.7 7.6 -47.55 L8.5 -47.1 13.25 -47.35 Q19.0 -47.35 23.45 -46.05 L24.85 -45.6" fill="#f898d6" fill-rule="evenodd" stroke="none"/>
    <path d="M18.25 -60.5 Q25.55 -59.4 26.0 -57.45 L25.95 -57.05 Q25.85 -56.8 25.55 -56.8 24.35 -57.55 22.25 -58.35 18.0 -59.85 10.75 -59.85 0.2 -59.85 -5.85 -58.15 -10.2 -56.85 -10.4 -55.55 L-8.0 -54.8 1.15 -54.1 -3.45 -52.75 Q-13.05 -51.35 -18.8 -48.9 -28.0 -44.85 -26.45 -38.2 L-24.75 -35.6 Q-24.8 -35.3 -25.0 -35.2 L-27.3 -38.4 Q-30.1 -49.85 -7.55 -53.1 L-9.55 -53.6 Q-11.9 -54.35 -12.15 -55.55 -12.8 -58.3 -6.55 -59.9 L2.55 -61.3 18.25 -60.5 M25.35 -56.7 L30.9 -57.1 Q46.0 -56.7 56.05 -52.4 65.1 -48.5 66.3 -43.5 66.65 -41.8 66.0 -40.8 L65.3 -40.0 Q73.3 -38.85 74.1 -35.4 74.2 -35.1 73.9 -34.65 72.6 -35.45 69.8 -36.5 65.95 -38.05 63.2 -38.05 L58.95 -37.6 57.8 -37.8 57.0 -37.95 Q56.55 -37.95 56.35 -38.3 L56.15 -38.7 Q55.9 -39.7 58.55 -40.15 60.75 -40.4 63.8 -40.15 L63.8 -40.2 Q65.6 -41.9 65.25 -43.45 64.2 -47.7 55.65 -51.5 46.7 -55.55 35.45 -56.3 L30.4 -56.3 24.9 -56.05 Q24.2 -55.9 24.25 -55.1 L22.65 -55.55 Q22.45 -56.3 25.35 -56.7 M66.15 -31.3 L66.35 -30.65 Q66.9 -28.25 60.1 -26.75 L55.4 -25.9 62.85 -23.95 Q68.9 -21.95 70.3 -20.1 66.7 -22.2 56.55 -24.55 48.75 -26.35 43.65 -26.95 L51.0 -26.85 54.1 -27.15 Q57.3 -27.15 60.95 -28.3 65.35 -29.65 65.1 -31.45 64.9 -31.5 64.6 -31.65 L64.95 -31.75 64.75 -32.0 64.55 -32.3 Q65.3 -32.5 65.8 -31.95 L68.5 -32.4 71.0 -33.05 72.15 -34.4 Q72.7 -35.05 73.05 -33.7 73.35 -32.45 71.1 -31.75 L66.7 -31.25 66.15 -31.3 M-45.8 -22.55 L-46.05 -23.3 Q-45.25 -26.8 -37.2 -27.9 L-37.95 -28.7 Q-38.6 -29.7 -38.2 -31.4 -37.05 -36.4 -28.0 -40.3 L-27.65 -40.4 -27.55 -39.4 -27.6 -39.4 Q-36.1 -35.6 -37.15 -31.35 -37.5 -29.8 -35.75 -28.1 -32.7 -28.35 -30.45 -28.05 -27.8 -27.6 -28.05 -26.6 L-28.25 -26.2 Q-28.5 -25.85 -28.95 -25.85 L-29.75 -25.7 -30.85 -25.5 -35.1 -25.95 Q-37.9 -25.95 -41.75 -24.45 -44.5 -23.4 -45.8 -22.55 M-45.0 -21.6 Q-44.65 -22.95 -44.05 -22.35 L-42.9 -21.0 Q-42.15 -20.6 -40.45 -20.3 L-37.7 -19.85 Q-37.2 -20.4 -36.45 -20.2 L-36.65 -19.9 -36.9 -19.65 -36.55 -19.55 -37.0 -19.35 Q-37.3 -17.55 -32.9 -16.2 -29.25 -15.05 -26.05 -15.05 L-22.95 -14.75 -19.55 -14.8 -19.55 -14.25 -28.5 -12.45 Q-38.65 -10.1 -42.2 -8.0 -40.8 -9.85 -34.8 -11.9 L-27.3 -13.8 -32.05 -14.65 Q-38.8 -16.15 -38.25 -18.55 L-38.05 -19.2 -38.65 -19.2 -43.05 -19.7 Q-45.25 -20.35 -45.0 -21.6 M6.75 9.35 Q7.8 10.0 7.65 10.6 L7.4 11.1 Q-1.9 11.15 -4.75 14.35 L-6.1 15.8 -5.9 17.4 Q-5.9 20.9 -9.65 23.4 -13.35 25.85 -18.6 25.85 -23.85 25.85 -27.6 23.4 -30.45 21.45 -31.1 18.95 L-31.95 19.3 -34.95 20.25 Q-36.85 20.85 -38.9 21.05 -41.3 21.65 -42.9 21.0 -44.5 20.8 -45.6 20.0 L-46.65 18.95 Q-48.15 19.5 -52.55 20.25 -57.4 21.05 -60.6 17.15 -61.35 14.85 -61.2 13.75 L-60.0 10.65 -59.9 10.65 Q-58.35 8.35 -53.95 6.7 -50.75 5.5 -47.4 5.15 L-49.6 4.45 Q-51.05 3.55 -50.65 1.7 -49.75 -2.05 -40.65 -4.05 L-40.7 -3.75 -40.65 -3.45 -44.05 -0.45 Q-46.0 1.45 -46.2 2.5 -46.4 3.55 -43.85 4.95 L-42.4 5.0 -40.95 5.3 -40.05 5.3 -38.5 5.6 -37.9 5.85 -37.95 5.9 Q-52.2 7.45 -54.15 10.85 L-54.35 11.95 Q-54.55 13.85 -52.45 15.4 -49.95 17.45 -45.3 17.45 L-43.35 17.3 -43.4 17.4 Q-42.4 18.35 -39.05 18.35 -36.4 18.35 -31.3 17.25 L-27.45 18.7 Q-26.8 20.15 -24.8 21.3 -21.75 23.05 -17.4 23.05 -13.1 23.05 -10.05 21.3 -7.0 19.55 -7.0 17.05 L-7.0 16.6 Q-7.3 14.6 -9.6 13.1 L-9.45 12.9 -8.75 12.1 -8.25 11.35 -6.75 10.25 Q-4.8 9.0 -1.45 8.5 0.6 8.25 1.75 9.0 L2.9 8.75 Q5.35 8.5 6.75 9.35 M27.5 9.0 Q27.0 10.85 24.05 11.9 21.15 12.95 16.95 12.95 L10.4 12.45 7.7 11.4 7.8 11.2 10.15 11.2 18.9 10.85 Q23.0 10.35 24.5 9.35 25.1 9.0 25.5 8.0 25.75 7.2 26.9 6.95 27.7 6.8 27.7 7.55 L27.5 9.0 M31.85 2.45 Q31.75 1.45 31.25 0.55 L33.45 1.2 33.45 1.7 32.55 3.8 Q31.7 4.8 29.2 5.8 L28.9 5.7 29.0 5.4 Q31.4 4.15 31.85 2.45 M68.75 -15.8 L68.75 -16.1 Q77.85 -14.15 78.7 -10.35 79.15 -8.5 77.65 -7.65 76.9 -7.2 75.5 -6.9 78.8 -6.6 82.05 -5.35 86.4 -3.75 87.95 -1.45 L88.1 -1.45 Q89.05 0.5 89.25 1.65 89.4 2.75 88.65 5.1 85.45 9.0 80.6 8.2 L74.75 6.85 74.75 6.9 73.9 7.75 73.7 7.9 73.3 8.2 Q72.3 8.8 71.0 8.9 L66.95 9.0 65.9 8.85 65.15 8.75 Q65.8 9.75 65.8 10.9 65.8 13.85 61.65 15.95 57.5 18.0 51.6 18.0 45.75 18.0 41.6 15.95 37.4 13.85 37.4 10.9 37.4 8.9 39.3 7.35 L39.2 8.65 Q39.2 10.25 39.85 11.15 39.85 12.7 43.05 13.8 46.2 14.9 50.7 14.9 55.15 14.9 58.4 13.8 L59.15 13.55 Q61.75 12.7 62.7 11.6 L63.05 11.05 Q64.0 9.85 64.0 8.1 64.0 6.65 63.05 5.85 L65.9 6.2 67.15 6.25 Q70.5 6.25 71.45 5.35 L71.4 5.2 73.3 5.35 73.4 5.35 73.9 5.35 Q78.15 5.25 80.5 3.3 82.6 1.75 82.4 -0.15 L82.25 -1.2 82.2 -1.2 Q80.25 -4.65 66.05 -6.15 L65.95 -6.25 66.6 -6.5 68.15 -6.8 69.0 -6.8 70.5 -7.1 71.9 -7.15 Q74.5 -8.5 74.25 -9.55 74.05 -10.6 72.15 -12.55 L68.75 -15.55 68.75 -15.8" fill="#bf2e8c" fill-rule="evenodd" stroke="none"/>
  </g>
</svg>
