<?xml version="1.0" encoding="UTF-8" standalone="no"?>
<svg xmlns:ffdec="https://www.free-decompiler.com/flash" xmlns:xlink="http://www.w3.org/1999/xlink" ffdec:objectType="shape" height="72.7px" width="144.35px" xmlns="http://www.w3.org/2000/svg">
  <g transform="matrix(1.0, 0.0, 0.0, 1.0, 48.95, 61.95)">
    <path d="M44.8 -61.15 L50.1 -59.65 Q52.65 -60.1 57.4 -57.7 61.95 -55.45 63.7 -53.35 L66.2 -48.7 Q66.65 -47.75 66.7 -44.9 66.7 -42.55 64.9 -40.4 L65.65 -40.35 Q72.05 -39.85 72.1 -34.6 72.1 -32.2 68.9 -30.2 66.2 -28.45 62.75 -28.1 L62.65 -27.85 63.6 -27.95 69.1 -28.3 Q76.2 -27.95 79.95 -25.95 L79.9 -25.65 Q79.9 -25.25 80.05 -24.85 81.1 -24.05 81.1 -22.25 81.1 -19.85 77.0 -18.1 L76.55 -17.9 76.95 -17.15 Q77.65 -16.55 79.9 -16.15 L79.25 -15.85 79.85 -15.95 Q79.5 -14.95 78.6 -14.55 L78.3 -14.4 78.7 -14.1 79.5 -13.4 Q82.35 -14.45 86.35 -11.8 L87.25 -11.85 87.25 -11.6 87.2 -11.2 89.0 -9.7 90.85 -9.3 Q93.5 -6.35 93.5 -3.25 93.5 -2.05 92.55 -1.7 L88.65 -0.4 Q87.05 0.25 85.9 1.35 L84.1 3.3 Q82.8 4.5 80.15 5.45 L77.25 7.1 Q72.9 9.2 70.1 9.2 67.2 9.2 65.7 8.2 L65.1 7.75 59.15 7.75 59.7 6.6 55.7 7.0 Q55.7 6.3 53.15 5.7 L47.6 4.45 Q39.5 2.5 39.5 -0.85 39.5 -1.75 41.9 -3.65 44.3 -5.6 44.3 -6.7 44.3 -8.85 42.55 -9.3 40.2 -9.9 35.55 -6.35 29.45 -1.9 14.8 -1.9 L11.6 -2.2 5.5 -2.65 Q4.7 -2.65 4.2 -2.2 6.4 -1.4 6.7 1.0 L7.15 1.05 Q7.5 2.05 7.5 3.3 7.5 5.9 4.35 8.1 0.55 10.75 -5.7 10.75 L-7.95 10.65 -9.9 10.0 -9.9 9.85 -12.5 9.5 -13.4 9.8 Q-14.3 9.8 -14.8 9.0 L-15.15 8.1 -15.55 8.0 -18.3 8.15 Q-19.2 8.15 -19.5 7.6 L-19.5 7.55 Q-22.1 7.6 -25.75 8.65 L-32.4 9.7 Q-36.45 9.7 -40.75 7.35 -42.9 6.15 -43.8 5.35 L-43.5 4.4 -42.95 2.65 -41.65 1.9 -39.3 0.95 -39.15 0.95 -39.0 0.8 -38.7 0.55 Q-38.7 0.25 -39.1 0.15 L-39.2 0.2 -39.3 0.15 -40.05 0.15 -40.0 -0.25 Q-40.0 -0.65 -41.1 -0.75 L-43.5 -3.95 -46.35 -7.7 -47.85 -11.1 Q-47.55 -13.2 -46.6 -15.25 L-46.65 -15.9 Q-46.7 -17.55 -44.05 -19.55 -43.7 -21.95 -41.45 -22.75 L-40.75 -22.9 -38.45 -25.25 -38.3 -25.25 -26.3 -32.85 Q-20.4 -36.0 -14.4 -37.1 -10.5 -37.85 -10.5 -38.6 -10.5 -41.25 -14.5 -40.65 -15.2 -41.55 -15.05 -42.95 -14.9 -45.1 -13.65 -46.9 -8.8 -54.25 7.45 -58.5 22.0 -62.3 39.15 -61.55 L42.1 -61.8 44.2 -61.3 46.4 -61.1 46.35 -60.95 44.8 -61.15 M-1.4 -6.0 L-1.65 -5.9 -1.3 -5.7 -1.4 -6.0" fill="#f59ab3" fill-rule="evenodd" stroke="none"/>
    <path d="M63.7 -53.55 L66.2 -48.95 Q66.65 -47.95 66.7 -45.15 66.7 -42.75 64.9 -40.65 L65.65 -40.55 Q72.05 -40.1 72.1 -34.8 72.1 -32.4 68.9 -30.4 65.4 -28.2 60.55 -28.2 L60.2 -28.25 60.15 -28.4 66.3 -31.5 Q69.85 -33.25 69.85 -34.8 69.8 -36.75 68.55 -37.75 67.05 -38.8 63.85 -39.15 L63.7 -38.95 62.95 -38.8 Q62.25 -38.8 61.9 -39.15 L61.7 -39.6 Q61.7 -40.35 62.9 -40.45 L62.85 -40.55 62.9 -40.55 Q64.9 -42.65 64.9 -45.25 64.85 -49.45 62.05 -52.6 58.4 -56.55 49.85 -59.85 52.45 -60.4 57.4 -57.9 61.95 -55.65 63.7 -53.55 M46.35 -61.15 L42.3 -61.5 Q24.5 -61.4 8.5 -56.85 -6.75 -52.45 -10.35 -47.0 -11.45 -45.4 -10.65 -43.65 L-8.45 -39.95 -10.65 -39.65 Q-15.35 -39.6 -15.05 -43.15 -14.9 -45.35 -13.65 -47.15 -8.8 -54.45 7.45 -58.75 25.0 -63.35 46.4 -61.35 L46.35 -61.15 M4.45 -1.65 Q5.5 -1.2 6.35 -0.6 8.25 0.7 8.75 2.45 9.55 5.2 6.95 7.45 3.9 10.05 -2.95 10.7 L-8.15 10.75 -14.25 9.65 Q-18.4 8.75 -19.7 7.8 -20.5 8.3 -22.65 8.95 L-27.4 9.95 -32.65 10.0 Q-37.1 9.55 -40.55 8.15 -43.9 6.8 -44.3 5.4 -44.75 3.8 -43.7 2.75 -42.4 1.4 -38.95 1.1 L-40.7 0.05 -41.55 -1.4 Q-44.85 -2.5 -46.85 -5.25 -48.95 -8.2 -48.95 -11.45 -48.95 -20.05 -38.0 -27.9 -25.55 -36.85 -6.1 -38.35 L-1.4 -38.2 Q-1.35 -37.85 -0.45 -37.6 L-2.0 -37.75 Q-16.7 -37.75 -31.25 -29.65 -46.45 -21.2 -46.45 -11.5 -46.45 -7.85 -44.25 -5.8 -43.2 -4.85 -41.5 -4.0 -41.0 -5.6 -39.1 -7.05 -36.75 -8.85 -32.85 -9.8 L-28.4 -9.8 Q-34.9 -9.05 -38.05 -6.65 -39.9 -5.1 -40.25 -3.4 L-40.2 -1.7 -40.15 -1.2 -40.05 -1.0 -39.45 -0.35 Q-38.4 0.6 -36.85 0.6 L-37.65 1.25 -38.85 1.1 Q-41.55 1.5 -42.65 2.65 -43.5 3.6 -43.2 4.65 -42.85 5.75 -39.3 7.0 -35.85 8.2 -33.0 8.35 L-27.8 8.3 -23.55 7.45 -20.6 6.35 -19.85 6.5 -17.55 7.15 -14.35 8.15 -12.5 8.65 -9.1 9.1 -3.1 9.05 Q2.55 8.45 5.3 6.25 7.55 4.4 6.95 2.35 6.6 1.1 4.9 0.0 3.4 -1.0 -0.15 -2.5 L-0.1 -2.7 3.05 -2.1 1.8 -2.7 Q-1.5 -4.5 -1.5 -7.05 L-1.05 -8.55 Q-0.65 -9.65 -0.25 -9.65 0.4 -9.65 0.35 -8.75 L0.15 -7.8 Q0.15 -5.75 2.4 -4.55 5.15 -3.0 11.45 -2.55 L16.95 -2.6 Q25.1 -2.85 34.7 -7.25 39.2 -9.3 42.2 -11.3 L43.8 -12.4 44.8 -13.25 44.5 -12.65 44.85 -12.75 Q48.15 -13.4 48.15 -11.1 L47.7 -10.1 Q47.05 -9.35 46.2 -9.3 46.75 -8.85 47.8 -8.4 48.4 -8.15 48.4 -7.6 48.4 -7.1 47.75 -6.75 47.1 -6.3 46.5 -6.3 L45.35 -6.35 44.35 -5.8 Q40.7 -3.5 40.7 -1.25 40.75 4.8 55.4 5.0 66.65 9.85 77.8 6.55 81.85 5.3 84.35 2.0 L84.85 0.85 Q86.25 -0.25 88.55 -1.0 91.5 -2.0 91.9 -3.45 L92.0 -4.45 91.9 -5.15 91.95 -5.3 91.1 -6.9 Q86.9 -13.1 73.85 -12.45 L77.55 -12.85 77.0 -13.15 Q76.55 -13.5 76.7 -13.95 76.8 -14.35 77.45 -14.65 L79.35 -15.2 79.75 -15.25 Q79.5 -16.05 77.2 -16.4 L73.6 -16.6 71.75 -16.35 70.25 -16.1 69.9 -16.3 71.7 -16.95 Q79.55 -18.9 80.45 -22.0 81.35 -25.05 77.15 -26.4 72.7 -27.75 60.95 -27.7 L60.55 -27.75 60.5 -27.75 60.55 -28.0 63.55 -28.25 69.1 -28.5 Q76.95 -28.2 80.05 -26.15 82.45 -24.55 81.7 -22.0 81.1 -20.0 78.55 -18.9 L76.15 -17.95 80.3 -17.8 Q83.85 -16.95 83.1 -14.35 L81.85 -13.15 81.5 -13.05 Q89.65 -12.75 93.2 -7.9 95.1 -5.15 95.4 -1.95 93.9 1.15 89.75 1.8 L87.1 2.2 Q86.9 3.9 85.65 5.5 L84.8 6.45 Q82.05 8.3 78.75 9.05 66.9 11.65 55.4 6.8 L54.95 6.8 Q45.0 6.85 40.95 3.6 38.65 1.85 38.6 -0.4 38.6 -3.1 40.2 -4.8 41.2 -5.95 43.2 -6.85 41.65 -7.5 41.6 -9.15 L41.6 -9.3 Q39.25 -7.35 35.45 -5.45 25.95 -0.6 14.25 -0.5 8.25 -0.5 4.45 -1.65" fill="#c45f85" fill-rule="evenodd" stroke="none"/>
    <path d="M24.0 -56.9 L37.85 -56.4 Q43.65 -55.25 44.0 -52.8 44.3 -50.35 38.8 -48.1 L38.75 -48.05 38.95 -47.8 39.8 -47.75 Q43.35 -47.4 45.2 -46.5 L48.5 -45.4 Q50.1 -44.85 49.9 -43.7 L50.25 -43.55 Q49.65 -42.35 48.25 -41.1 45.7 -39.15 42.2 -38.1 38.6 -37.0 36.05 -37.65 33.45 -38.25 33.35 -40.15 33.4 -42.1 35.8 -44.15 L34.0 -43.4 Q32.7 -40.55 27.1 -38.15 L24.6 -37.5 23.95 -36.8 24.95 -36.8 Q33.8 -36.85 39.85 -35.05 45.75 -33.8 45.3 -31.6 L45.4 -31.55 45.5 -31.55 45.55 -31.5 46.5 -31.05 46.7 -30.95 47.2 -30.7 48.2 -30.1 Q51.3 -28.4 50.65 -25.4 50.0 -22.5 46.0 -20.1 L44.7 -19.65 44.7 -19.6 44.2 -19.05 Q43.3 -18.0 41.8 -16.9 L39.6 -16.05 35.15 -15.45 32.8 -15.6 Q30.7 -15.85 29.2 -16.8 L28.2 -17.9 Q27.2 -19.4 27.4 -21.0 26.05 -22.5 26.0 -24.15 L20.0 -23.8 14.9 -24.0 Q16.1 -22.45 15.7 -20.65 15.4 -19.25 14.35 -18.1 15.7 -17.95 15.85 -17.1 15.9 -16.3 14.6 -15.5 L14.25 -15.3 17.05 -15.35 Q18.4 -15.1 18.45 -14.3 18.55 -13.5 17.25 -12.6 15.95 -11.9 14.1 -11.45 L10.9 -11.15 Q9.5 -11.45 9.4 -12.3 9.4 -13.05 10.65 -13.85 L11.05 -14.1 8.25 -14.05 7.1 -14.45 3.0 -13.8 2.05 -13.8 Q-1.75 -13.8 -4.35 -14.9 L-4.55 -14.9 -6.7 -14.5 -7.4 -14.35 -7.4 -14.2 -8.05 -14.1 Q-8.35 -13.55 -9.15 -12.95 -10.05 -12.2 -11.85 -11.65 -15.4 -9.85 -20.5 -9.45 L-28.75 -9.8 Q-32.2 -10.5 -32.05 -12.2 L-31.9 -12.65 -31.7 -13.1 -30.3 -14.45 -28.1 -15.8 -26.75 -16.15 -25.55 -17.25 -24.65 -17.9 Q-22.2 -18.9 -19.1 -19.3 L-17.3 -20.35 -16.0 -20.75 -14.85 -21.85 -13.75 -22.55 Q-11.55 -23.45 -8.75 -23.8 L-7.4 -24.05 -6.3 -24.05 -5.95 -24.35 -5.75 -24.45 -5.35 -25.4 -8.15 -25.9 -8.15 -25.7 Q-10.0 -26.1 -11.55 -26.8 L-11.9 -26.95 -12.45 -26.55 Q-12.75 -25.8 -13.75 -24.95 L-14.85 -24.3 Q-16.65 -23.6 -19.05 -23.6 -21.3 -23.6 -22.9 -24.25 -23.8 -24.9 -23.95 -25.55 L-24.85 -25.85 Q-26.9 -27.0 -26.6 -28.4 -26.4 -29.25 -25.45 -29.9 L-23.6 -30.85 Q-21.05 -32.05 -17.85 -32.05 L-14.75 -31.7 -13.45 -32.9 -11.7 -34.0 Q-11.35 -34.9 -10.25 -35.7 -9.3 -36.6 -7.45 -37.5 L-3.5 -38.3 -3.45 -39.2 Q-6.75 -41.3 -6.15 -43.9 -5.5 -47.25 0.9 -49.3 3.25 -50.25 6.0 -50.9 7.15 -52.45 10.6 -53.8 16.0 -56.15 24.0 -56.9" fill="#ffbec7" fill-rule="evenodd" stroke="none"/>
  </g>
</svg>
