<?xml version="1.0" encoding="UTF-8" standalone="no"?>
<svg xmlns:ffdec="https://www.free-decompiler.com/flash" xmlns:xlink="http://www.w3.org/1999/xlink" ffdec:objectType="shape" height="12.6px" width="8.1px" xmlns="http://www.w3.org/2000/svg">
  <g transform="matrix(1.0, 0.0, 0.0, 1.0, 0.0, 0.35)">
    <path d="M4.7 9.0 L4.2 8.0 2.4 6.25 2.45 6.2 2.2 5.95 1.15 4.6 0.6 3.45 Q0.15 2.0 0.0 0.3 L0.35 0.3 0.7 -0.1 Q0.95 -0.1 1.35 -0.35 2.25 -0.3 2.5 0.05 L2.5 0.1 2.55 0.35 2.55 0.4 Q2.7 1.85 3.15 3.15 L3.65 4.25 4.65 5.55 4.75 5.3 Q5.25 3.85 5.4 2.2 L6.05 2.15 6.05 2.1 6.2 1.9 6.5 1.85 Q6.9 1.85 7.4 2.15 L7.8 2.45 7.9 2.45 7.9 2.65 7.9 2.75 7.85 2.85 7.3 5.6 6.75 6.75 6.35 7.35 6.5 7.55 6.75 7.9 6.7 8.0 Q6.7 8.3 7.1 8.6 7.0 9.45 6.2 9.6 5.35 9.75 4.7 9.0 M7.45 10.05 Q7.5 10.55 7.9 10.75 L8.1 11.75 7.9 11.8 7.85 11.8 7.65 12.05 Q7.45 12.25 7.25 12.25 L6.6 12.1 6.45 12.05 6.4 12.1 5.75 12.15 5.4 10.6 Q6.8 11.2 7.45 10.05" fill="#534747" fill-rule="evenodd" stroke="none"/>
    <path d="M4.7 9.0 Q5.35 9.75 6.2 9.6 7.0 9.45 7.1 8.6 L7.15 8.6 7.15 8.65 7.45 9.3 7.55 9.55 7.5 9.55 7.45 9.85 7.45 10.05 Q6.8 11.2 5.4 10.6 L4.85 9.3 4.75 9.15 4.7 9.0" fill="#877c7c" fill-rule="evenodd" stroke="none"/>
    <path d="M5.4 2.2 L6.1 2.15 Q5.95 3.85 5.4 5.35 L5.1 6.05 4.9 6.4 4.55 6.1 4.45 6.0 4.2 5.85 4.15 5.8 3.05 4.35 2.5 3.2 Q1.95 1.7 1.8 0.0 L2.5 0.05 Q2.65 1.7 3.15 3.15 L3.65 4.25 4.65 5.55 4.75 5.3 Q5.25 3.85 5.4 2.2 M7.25 2.45 L7.9 2.45 7.3 5.6 6.75 6.75 6.35 7.35 6.5 7.55 7.15 8.65 7.45 9.3 8.1 11.75 7.5 11.8 6.8 9.3 6.55 8.75 6.0 7.8 5.85 7.7 5.55 7.45 5.65 7.35 5.95 6.85 6.05 6.7 6.6 5.6 7.25 2.45 M0.0 0.3 L0.65 0.3 Q0.85 1.95 1.3 3.45 L1.85 4.55 2.95 5.95 3.0 6.0 3.1 6.05 3.1 6.15 3.2 6.2 3.45 6.45 4.8 7.9 5.45 9.0 5.6 9.3 6.45 12.05 6.4 12.1 5.75 12.15 Q5.45 10.55 4.85 9.3 L4.75 9.15 4.2 8.0 2.4 6.25 2.45 6.2 2.2 5.95 1.15 4.6 0.6 3.45 Q0.15 2.0 0.0 0.3" fill="#201919" fill-rule="evenodd" stroke="none"/>
  </g>
</svg>
