<?xml version="1.0" encoding="UTF-8" standalone="no"?>
<svg xmlns:ffdec="https://www.free-decompiler.com/flash" xmlns:xlink="http://www.w3.org/1999/xlink" ffdec:objectType="shape" height="13.6px" width="28.65px" xmlns="http://www.w3.org/2000/svg">
  <g transform="matrix(1.0, 0.0, 0.0, 1.0, 0.0, 0.0)">
    <path d="M25.45 5.65 L25.3 6.65 24.35 8.25 24.3 8.1 24.3 8.2 24.2 8.15 24.2 8.1 Q25.15 6.5 25.15 5.55 L24.95 4.65 25.0 4.25 Q24.6 3.4 23.65 2.8 22.05 1.9 19.7 2.3 L18.8 2.55 17.8 2.1 17.65 2.05 Q18.5 1.65 19.45 1.45 L19.65 1.45 Q19.05 0.9 17.65 0.6 15.35 0.0 12.0 0.6 8.65 1.2 6.3 2.55 3.95 3.8 3.95 5.05 3.95 5.7 4.75 6.65 L4.35 6.85 2.95 7.5 Q1.45 8.3 0.9 9.1 L0.9 9.15 0.7 9.45 0.6 9.6 0.55 9.75 0.5 10.05 0.6 10.5 1.0 11.0 1.15 11.05 1.75 11.3 2.55 11.75 Q4.6 12.6 7.45 12.7 L12.35 12.15 Q14.1 11.55 14.35 10.7 L14.4 10.7 Q14.35 11.5 13.4 12.1 L14.65 12.45 16.85 12.75 19.55 12.7 23.75 12.0 25.8 11.15 26.1 11.0 26.55 10.7 27.2 10.2 Q28.1 9.55 27.8 8.8 L27.05 7.95 26.9 7.5 26.95 7.5 27.2 7.65 27.3 7.65 27.45 7.8 27.55 7.9 27.75 7.95 28.55 8.9 Q28.8 9.6 28.25 10.2 L27.75 10.7 27.4 11.0 26.35 11.65 25.75 12.0 Q23.25 13.3 19.85 13.5 L16.85 13.55 13.3 12.65 13.0 12.5 12.9 12.4 12.4 12.6 10.1 13.05 7.25 13.2 4.45 12.85 2.15 12.2 0.6 11.2 Q0.05 10.7 0.0 10.1 L0.0 9.9 0.0 9.8 0.0 9.75 0.05 9.75 0.2 9.45 0.6 8.8 Q1.2 8.05 2.45 7.3 L3.9 6.55 Q3.35 6.0 3.35 5.3 3.35 3.85 5.8 2.3 8.25 0.9 11.75 0.3 15.2 -0.3 17.7 0.3 19.2 0.65 19.8 1.4 22.05 1.1 23.7 2.1 25.1 3.1 25.35 4.75 L25.45 5.1 25.45 5.65" fill="#ca6675" fill-rule="evenodd" stroke="none"/>
  </g>
</svg>
