<?xml version="1.0" encoding="UTF-8" standalone="no"?>
<svg xmlns:ffdec="https://www.free-decompiler.com/flash" xmlns:xlink="http://www.w3.org/1999/xlink" ffdec:objectType="shape" height="14.6px" width="35.95px" xmlns="http://www.w3.org/2000/svg">
  <g transform="matrix(1.0, 0.0, 0.0, 1.0, 0.0, 0.0)">
    <path d="M32.8 6.95 L33.4 7.65 Q34.8 7.75 35.4 8.25 L35.95 8.85 Q36.1 9.4 35.3 10.15 L33.25 11.4 Q33.1 12.2 31.4 12.6 L26.25 12.9 24.7 12.7 23.15 12.4 22.65 12.25 21.95 11.95 20.95 12.95 Q19.5 14.0 17.8 14.3 L15.25 14.6 Q13.35 14.6 11.95 14.05 10.75 13.55 10.65 12.9 L10.3 12.9 Q8.55 12.95 7.7 12.3 6.95 11.95 7.1 11.3 L6.95 11.35 6.75 11.2 Q6.55 10.85 6.65 10.5 L6.0 10.5 1.85 9.95 Q0.65 9.45 0.45 8.8 -0.6 8.0 0.85 6.9 2.0 5.7 5.1 4.75 L6.55 4.35 8.1 4.05 8.65 4.0 9.75 3.85 10.0 3.85 9.55 3.45 Q9.55 3.0 11.85 2.75 L12.3 2.7 Q11.25 2.35 11.25 1.8 11.25 1.05 13.55 0.5 L17.0 0.05 19.15 0.0 22.2 0.15 24.7 0.5 Q27.0 1.05 27.0 1.8 27.0 2.55 24.7 3.05 L25.25 3.45 Q25.25 3.7 24.1 4.0 L28.55 4.85 Q31.65 5.8 32.8 6.95" fill="#f59aa8" fill-rule="evenodd" stroke="none"/>
  </g>
</svg>
