<?xml version="1.0" encoding="UTF-8" standalone="no"?>
<svg xmlns:ffdec="https://www.free-decompiler.com/flash" xmlns:xlink="http://www.w3.org/1999/xlink" ffdec:objectType="shape" height="103.25px" width="143.7px" xmlns="http://www.w3.org/2000/svg">
  <g transform="matrix(1.0, 0.0, 0.0, 1.0, 36.25, 59.5)">
    <path d="M61.35 13.1 L63.2 12.45 Q63.85 12.6 63.45 13.25 58.6 17.25 53.95 19.15 49.25 21.0 47.95 21.65 45.7 22.85 44.55 24.4 L44.15 24.4 Q42.8 25.5 40.5 26.45 L37.5 27.5 Q33.35 28.65 27.95 29.4 L27.75 29.4 26.95 28.7 27.4 28.65 27.2 28.15 25.4 26.85 23.2 24.85 23.2 24.7 22.25 24.75 22.05 24.7 21.35 24.0 23.65 23.9 24.4 23.85 31.65 23.05 34.95 22.45 38.5 21.25 38.45 21.1 38.6 21.1 39.55 20.65 39.9 20.4 Q42.1 18.4 44.7 16.9 46.45 15.7 48.35 14.9 L48.75 14.95 Q49.3 14.5 54.35 13.6 L60.15 12.7 60.55 12.3 60.55 12.75 Q60.7 13.15 61.35 13.1" fill="#4a3535" fill-rule="evenodd" stroke="none"/>
    <path d="M48.35 15.05 L50.05 15.3 51.8 15.65 49.25 16.6 Q47.05 17.55 44.9 18.95 L42.55 20.6 40.85 21.4 40.6 21.5 39.9 21.9 39.85 21.95 35.95 23.3 32.7 23.95 22.25 24.9 22.1 24.85 21.35 24.2 31.7 23.25 35.0 22.6 38.5 21.4 38.45 21.25 38.65 21.25 39.6 20.85 39.6 20.8 Q39.7 20.65 39.9 20.6 42.1 18.55 44.7 17.05 46.45 15.85 48.35 15.05 M63.2 12.6 Q63.9 12.8 63.5 13.4 58.6 17.4 53.95 19.35 49.25 21.2 47.95 21.8 45.7 23.0 44.55 24.55 L44.15 24.55 Q42.8 25.7 40.5 26.6 L37.5 27.65 Q33.35 28.8 27.95 29.6 L27.75 29.6 26.95 28.85 27.45 28.8 26.95 27.55 36.55 25.85 39.65 24.8 Q41.6 24.0 42.95 23.0 L42.9 22.9 43.2 23.0 43.45 22.75 43.85 22.35 Q45.0 21.3 46.85 20.3 48.0 19.7 49.55 19.2 L53.2 17.65 Q56.5 16.15 60.55 12.5 60.3 14.0 63.2 12.6" fill="#201919" fill-rule="evenodd" stroke="none"/>
    <path d="M28.6 41.35 L28.7 41.35 Q31.0 41.45 31.0 42.85 L30.65 43.4 Q30.25 43.75 29.85 43.75 L27.0 43.3 26.75 43.15 28.6 41.35 M35.05 35.05 L34.8 36.25 34.6 37.25 34.6 37.6 35.3 38.35 35.25 38.35 36.2 38.9 Q39.5 40.45 39.6 40.55 L39.1 41.25 36.3 41.25 32.35 39.15 31.85 39.25 Q31.55 39.4 31.5 38.35 L31.75 37.6 32.25 36.45 Q33.45 33.75 31.4 32.65 29.15 31.35 28.6 29.7 L28.65 29.6 Q32.1 30.7 33.55 32.0 35.05 33.25 35.05 35.05 M4.5 6.25 L4.9 6.2 5.05 6.15 Q8.9 7.15 11.05 9.65 13.25 12.1 13.85 16.5 L13.9 17.3 Q13.9 20.35 10.4 23.8 L7.55 26.8 Q6.2 28.6 6.25 30.35 6.3 31.65 7.1 32.75 L7.3 33.0 7.35 32.95 Q8.8 31.6 12.25 30.55 L12.35 30.65 Q11.8 32.3 9.5 33.55 8.85 33.85 8.55 34.45 8.25 34.95 8.25 35.55 8.2 36.35 8.7 37.4 L9.0 38.05 9.1 38.35 9.05 38.35 9.1 38.7 9.0 40.45 8.7 40.8 8.25 40.7 4.05 42.8 1.25 42.8 0.7 42.15 Q0.8 42.0 4.25 40.4 5.65 39.75 6.2 38.7 L6.35 38.35 6.4 38.35 6.4 38.15 6.4 38.05 6.1 37.15 5.85 36.0 5.9 35.55 5.95 35.25 Q4.45 32.95 4.4 30.45 4.35 27.55 5.75 25.5 6.4 24.55 8.7 22.5 10.65 20.8 11.4 19.35 12.4 17.25 12.1 14.35 11.8 11.85 8.9 9.05 6.75 6.9 4.5 6.25 M25.9 24.7 Q25.9 23.05 26.3 22.4 27.0 21.15 29.5 19.65 31.2 18.55 31.9 17.05 L32.65 14.4 33.1 15.55 33.25 16.75 Q33.25 17.95 32.35 18.95 L30.4 20.65 28.35 22.35 Q27.4 23.4 27.4 24.75 27.4 26.05 28.35 27.1 29.3 28.15 29.3 28.5 29.25 29.3 28.45 29.3 27.45 29.3 26.65 27.6 25.9 26.1 25.9 24.7 M22.85 8.35 L22.9 8.35 Q23.35 8.35 23.95 9.05 25.5 10.8 25.5 12.85 25.5 14.3 25.15 14.95 L23.15 17.15 Q22.65 17.4 22.1 17.7 20.25 18.7 18.35 20.1 17.8 20.35 16.9 21.5 L16.9 21.35 16.75 20.95 Q16.75 19.75 17.9 18.75 L18.2 18.55 Q18.1 14.2 16.2 10.8 13.45 6.05 7.15 3.6 13.45 5.45 16.9 10.0 19.6 13.45 19.9 17.1 L19.7 17.5 20.4 17.1 22.95 15.35 23.7 14.4 24.25 13.15 24.5 11.35 Q24.5 9.7 22.85 8.35" fill="#000000" fill-rule="evenodd" stroke="none"/>
    <path d="M66.55 -52.2 Q66.6 -50.1 65.8 -49.1 L66.8 -48.75 72.25 -46.1 72.3 -46.1 Q74.25 -45.05 75.65 -43.8 L77.0 -42.45 77.55 -41.8 78.45 -40.4 Q79.7 -38.15 79.3 -35.45 79.25 -34.8 78.5 -33.5 L77.9 -32.4 77.0 -31.3 Q80.1 -31.05 81.75 -29.7 83.05 -28.4 83.0 -26.45 L82.9 -25.85 Q82.7 -24.2 80.8 -23.15 78.75 -22.05 73.55 -20.95 83.3 -20.95 88.15 -18.6 L88.35 -18.5 89.55 -17.7 Q92.4 -15.75 92.0 -13.0 91.65 -10.55 88.45 -9.75 L87.3 -9.5 88.45 -9.5 Q91.2 -9.35 92.75 -8.3 94.45 -7.05 94.2 -5.25 94.15 -4.85 92.9 -4.0 L94.1 -3.8 98.3 -2.35 Q100.2 -1.5 101.75 -0.4 L103.05 2.05 Q104.55 4.6 104.9 6.2 L105.0 7.75 Q100.85 11.2 99.2 11.95 98.05 12.5 96.2 14.1 L95.95 14.35 Q94.45 15.6 93.25 16.05 L89.1 17.25 Q86.4 16.2 80.95 15.75 76.6 15.35 72.55 16.5 68.35 17.5 67.7 19.25 L67.5 19.35 65.0 20.25 60.25 20.7 58.85 20.95 Q53.55 20.3 50.25 18.75 46.05 16.75 46.45 13.8 L47.05 12.6 47.1 12.4 48.4 10.25 48.5 10.15 49.2 9.75 Q50.1 9.25 51.5 8.8 50.05 8.15 50.25 6.75 L50.25 6.55 Q47.9 8.05 44.15 9.3 L42.55 9.85 40.15 10.5 33.55 11.45 31.75 11.6 Q26.25 11.9 22.85 11.6 17.85 11.2 14.55 9.85 L13.25 9.3 Q9.85 7.5 9.95 5.2 L10.35 5.05 10.75 4.55 Q10.85 3.7 8.6 3.05 6.7 2.5 6.25 3.5 L5.9 3.5 5.05 3.7 6.2 4.15 6.55 4.6 7.65 5.0 8.4 5.55 9.0 7.15 9.15 7.9 9.8 8.55 10.25 8.95 10.65 9.55 11.9 10.85 13.35 11.75 Q15.2 12.75 14.9 14.85 14.6 17.05 11.3 18.8 6.75 21.1 -1.6 20.4 -6.0 20.0 -10.3 18.4 -12.4 17.6 -13.65 16.85 L-14.7 17.05 -15.7 17.35 -19.95 17.65 -24.1 17.7 Q-28.3 17.35 -31.8 16.15 -35.85 14.65 -35.6 12.85 -34.85 11.35 -34.0 10.75 L-31.9 10.2 -31.7 10.15 Q-29.95 9.7 -29.9 9.1 -29.8 8.65 -30.15 8.35 L-30.4 7.55 Q-30.2 6.1 -28.65 5.0 -27.25 3.9 -23.2 2.25 L-22.8 2.4 -21.35 2.05 -20.35 1.8 -20.05 1.8 -18.7 1.5 -17.1 1.55 Q-16.05 1.4 -16.0 1.05 -15.95 0.75 -16.8 0.75 -16.9 0.6 -17.1 0.55 L-19.6 0.8 -19.85 0.85 -20.3 0.2 Q-20.65 -0.45 -20.55 -1.35 L-20.0 -2.6 Q-19.45 -3.45 -18.3 -3.95 -19.8 -4.05 -20.1 -4.75 -20.45 -5.05 -20.35 -5.9 -20.15 -7.35 -17.2 -8.95 L-16.25 -9.3 -16.1 -9.7 Q-17.15 -10.15 -17.35 -11.4 -17.5 -11.85 -18.6 -12.1 L-20.45 -12.65 Q-21.35 -13.3 -21.9 -14.35 L-21.95 -14.45 Q-22.45 -15.6 -22.35 -16.35 L-21.7 -18.75 -21.15 -19.9 -21.1 -20.0 -20.2 -21.2 Q-18.6 -22.95 -16.05 -23.6 -15.85 -24.5 -14.15 -25.9 L-13.8 -26.1 Q-14.65 -26.4 -14.85 -27.15 L-14.75 -28.4 Q-14.6 -29.5 -13.55 -30.65 -12.45 -31.95 -10.1 -33.25 L-9.9 -33.4 Q-4.95 -36.2 1.75 -36.8 L3.1 -38.05 Q2.65 -38.85 2.85 -40.05 3.3 -41.85 4.7 -43.35 L4.95 -43.6 Q4.45 -44.1 4.1 -44.85 3.5 -46.0 3.4 -47.15 3.4 -52.8 14.4 -56.05 24.6 -59.1 39.2 -59.0 L48.2 -58.6 Q59.65 -58.45 63.05 -56.35 66.45 -54.3 66.55 -52.2" fill="#d553a7" fill-rule="evenodd" stroke="none"/>
    <path d="M60.85 -50.85 L63.35 -49.1 64.4 -48.05 64.8 -47.65 65.45 -46.5 Q66.4 -44.85 66.1 -42.75 L65.5 -41.35 65.0 -40.45 64.35 -39.6 Q66.75 -39.4 68.0 -38.4 68.95 -37.45 68.95 -36.0 L68.85 -35.5 Q68.7 -34.3 67.25 -33.45 65.75 -32.65 61.8 -31.85 69.15 -31.85 72.75 -30.1 71.1 -27.95 67.55 -26.55 64.0 -25.1 61.6 -25.4 L62.7 -24.8 62.9 -24.65 63.05 -24.1 62.95 -23.2 Q62.65 -22.6 61.5 -22.2 L64.25 -21.65 Q66.5 -21.5 67.85 -19.7 68.6 -18.85 68.1 -17.65 65.4 -15.05 63.0 -14.05 60.55 -13.05 58.7 -12.9 56.75 -12.7 54.5 -13.35 52.3 -13.85 52.9 -15.3 L53.15 -16.1 53.35 -16.65 53.75 -17.2 54.3 -17.7 54.5 -17.9 50.8 -17.3 Q47.2 -17.0 43.95 -17.85 42.55 -18.4 41.5 -18.9 40.3 -16.7 37.5 -16.0 L32.6 -14.95 Q31.4 -14.75 30.3 -14.2 30.1 -12.95 28.65 -11.8 26.05 -9.9 21.35 -10.3 18.35 -10.55 17.35 -11.85 16.75 -12.5 16.85 -13.1 L17.0 -14.05 16.8 -14.85 16.8 -15.75 16.25 -16.05 15.95 -16.05 15.7 -16.1 15.35 -16.1 14.9 -16.15 14.5 -16.1 13.25 -16.05 12.8 -16.05 12.35 -16.3 Q11.7 -16.5 11.35 -17.15 L11.25 -17.35 11.2 -17.45 11.2 -17.6 11.2 -17.7 11.25 -17.85 10.45 -17.5 Q10.05 -17.25 9.65 -17.1 L8.2 -16.8 7.15 -16.8 6.3 -16.95 6.4 -16.75 6.5 -16.25 6.6 -15.9 6.65 -15.45 6.6 -15.1 6.55 -14.7 6.5 -14.35 Q5.3 -13.1 3.85 -12.45 L2.1 -11.65 0.95 -11.35 0.5 -11.35 0.55 -11.25 0.8 -11.15 1.2 -11.0 1.35 -10.8 1.7 -10.75 1.7 -10.55 1.85 -10.25 2.0 -10.15 1.95 -9.55 Q-2.55 -6.4 -8.65 -6.0 L-12.0 -5.95 Q-14.5 -6.0 -16.25 -7.0 L-17.95 -8.3 -17.75 -8.3 -17.55 -8.4 -17.55 -9.25 Q-17.35 -10.6 -16.05 -11.3 L-16.4 -11.3 -15.45 -12.15 Q-14.35 -13.05 -11.2 -14.35 L-10.9 -14.4 -8.6 -15.2 -9.15 -15.85 -9.25 -17.0 -8.9 -18.0 Q-8.5 -18.6 -7.55 -19.0 -8.7 -19.1 -8.95 -19.6 -9.25 -19.85 -9.15 -20.45 -9.0 -21.55 -6.75 -22.75 L-6.05 -23.05 -5.95 -23.4 Q-6.75 -23.7 -6.9 -24.6 -7.0 -24.95 -7.85 -25.15 L-9.25 -25.55 -10.25 -26.85 -10.4 -27.0 -10.65 -28.4 -10.35 -29.65 -9.55 -30.45 Q-4.85 -34.9 0.0 -35.85 3.5 -36.55 4.8 -37.45 7.45 -47.85 17.15 -52.4 18.35 -53.0 19.4 -52.7 22.3 -54.15 25.65 -54.65 L41.65 -55.25 51.65 -54.2 52.85 -54.0 53.45 -53.85 56.75 -52.85 Q57.95 -52.35 60.8 -50.85 L60.85 -50.85" fill="#e777bf" fill-rule="evenodd" stroke="none"/>
    <path d="M60.1 -57.5 L60.05 -57.35 56.25 -57.9 Q39.65 -59.3 24.1 -56.85 L16.65 -55.35 Q8.15 -53.25 5.25 -50.15 4.05 -48.9 4.55 -47.35 L6.2 -44.1 4.1 -44.0 Q-0.3 -44.4 0.35 -47.35 0.8 -49.15 2.2 -50.55 5.2 -53.75 11.4 -55.8 16.35 -57.5 23.35 -58.5 40.35 -60.95 60.1 -57.5 M5.45 -35.4 Q6.1 -34.85 6.05 -34.2 L5.6 -33.45 Q5.1 -33.1 4.45 -33.15 4.15 -33.2 3.9 -33.45 L1.25 -33.8 Q-2.4 -34.1 -7.7 -31.25 -12.7 -28.6 -12.95 -26.9 L-12.7 -26.05 -12.5 -25.55 Q-12.55 -25.15 -13.2 -25.2 -15.1 -25.35 -15.4 -26.5 L-15.35 -27.75 Q-15.05 -30.1 -10.5 -32.65 -5.2 -35.65 2.25 -36.2 4.55 -36.3 5.45 -35.4 M77.3 -41.5 L79.15 -37.45 Q79.4 -36.65 79.1 -34.25 78.8 -32.2 76.9 -30.6 L77.6 -30.5 Q83.55 -29.5 82.9 -25.0 82.6 -23.05 79.4 -21.65 75.9 -20.1 71.35 -20.5 L71.0 -20.55 70.95 -20.65 77.05 -22.85 Q80.65 -24.0 80.8 -25.2 81.05 -26.9 79.95 -27.8 78.7 -28.85 75.7 -29.4 L75.55 -29.25 74.85 -29.2 Q74.2 -29.25 73.9 -29.55 L73.75 -29.95 Q73.85 -30.6 75.0 -30.6 L74.95 -30.7 75.0 -30.7 Q77.15 -32.25 77.45 -34.45 77.95 -38.0 75.7 -40.8 L73.75 -42.75 Q70.75 -45.35 65.1 -47.95 67.7 -48.2 72.05 -45.7 74.95 -44.0 76.45 -42.5 L77.3 -41.5 M71.4 -20.25 L74.15 -20.25 79.35 -20.0 Q86.75 -19.1 89.9 -16.75 92.3 -14.95 91.95 -12.4 91.7 -10.45 89.4 -9.5 L87.25 -8.75 91.15 -8.25 Q94.6 -7.1 94.25 -4.5 94.15 -3.9 93.3 -3.35 L93.15 -3.3 Q100.7 -2.3 104.6 2.9 106.75 5.8 107.45 9.1 106.4 12.15 102.65 12.5 L100.15 12.65 Q100.2 14.35 99.1 15.8 98.05 17.3 94.7 17.85 L88.7 17.7 Q86.15 16.9 80.95 16.45 L73.2 16.9 Q69.9 17.55 68.9 18.45 68.55 18.05 68.65 17.45 68.9 15.45 73.7 14.65 L83.1 14.35 88.9 15.3 Q91.1 15.0 92.95 14.3 96.2 13.3 96.9 12.15 98.05 10.3 101.1 9.5 103.75 8.75 103.95 7.35 L103.9 6.35 103.75 5.55 103.75 5.45 102.75 3.7 Q98.0 -2.9 85.9 -3.25 L89.3 -3.45 88.75 -3.75 Q88.3 -4.2 88.35 -4.6 L89.0 -5.35 90.6 -5.75 91.0 -5.7 Q90.6 -6.5 88.5 -7.15 L85.1 -7.6 83.4 -7.6 82.05 -7.35 81.65 -7.6 83.25 -8.15 Q90.35 -9.4 90.8 -12.5 91.2 -15.5 87.1 -17.25 82.8 -18.95 71.85 -19.9 L71.4 -19.95 71.35 -19.95 71.4 -20.25 M67.6 20.0 L67.9 19.9 Q64.9 21.95 58.15 21.5 51.35 21.1 47.9 18.05 46.0 16.35 46.25 14.45 46.55 12.2 48.3 11.0 49.35 10.05 51.35 9.5 49.9 8.8 50.1 7.5 L50.15 7.3 Q47.7 8.7 43.95 9.95 34.4 13.3 23.45 12.4 15.7 11.75 12.1 9.5 9.25 7.75 9.55 5.6 L10.15 4.35 Q10.7 3.45 11.0 3.5 11.65 3.55 11.5 4.25 L11.15 5.1 Q10.9 6.8 12.9 8.0 15.25 9.45 21.1 10.4 L26.25 10.85 Q33.9 11.35 43.4 8.45 47.95 7.05 50.95 5.7 L52.6 4.85 53.65 4.2 53.25 4.7 53.65 4.65 Q56.75 4.4 56.5 6.35 L55.95 7.1 Q55.3 7.65 54.45 7.65 54.9 8.05 55.8 8.5 56.35 8.75 56.3 9.2 56.2 9.7 55.6 9.85 L54.3 10.2 53.25 10.1 52.25 10.45 Q48.6 12.05 48.35 13.9 47.6 19.25 62.65 20.55 L67.6 20.0 M10.55 3.45 Q10.4 4.55 7.6 4.3 L6.0 4.0 5.5 4.2 4.6 4.35 7.1 5.5 Q8.95 6.75 8.8 8.05 L8.35 9.4 6.95 10.45 6.9 10.4 7.7 9.5 7.9 8.55 Q8.35 5.35 0.6 3.95 L0.65 3.6 1.75 3.75 5.0 2.85 Q5.15 2.3 6.05 2.35 L6.3 2.55 6.55 2.55 7.85 2.85 10.5 3.3 10.55 3.45 M8.35 10.55 Q12.0 11.25 13.55 12.8 14.75 14.1 14.55 15.5 14.2 17.8 10.9 19.4 7.05 21.25 0.4 21.25 L-4.55 20.85 -9.8 19.4 Q-13.35 18.35 -14.25 17.5 L-17.35 18.2 -22.25 18.55 -27.15 18.15 Q-31.15 17.45 -33.8 16.0 -36.4 14.65 -36.25 13.45 -36.05 12.15 -34.6 11.35 -32.9 10.45 -29.55 10.4 -30.35 10.1 -30.75 9.4 -31.1 8.8 -31.05 8.2 -30.7 5.65 -26.5 3.8 -23.6 2.5 -19.6 2.1 -20.45 1.65 -20.9 0.85 -21.2 0.25 -21.1 -0.7 -20.85 -2.5 -18.9 -3.3 -20.35 -3.5 -20.7 -4.15 -21.0 -4.45 -20.9 -5.25 -20.7 -6.7 -17.8 -8.35 L-16.15 -8.95 Q-17.7 -9.25 -17.95 -10.75 -18.1 -11.25 -19.15 -11.5 L-21.05 -12.05 Q-22.0 -12.65 -22.6 -13.85 -23.05 -14.95 -22.95 -15.75 -22.55 -18.5 -20.8 -20.55 -18.2 -23.3 -13.15 -23.45 -16.5 -23.05 -18.65 -20.9 -20.35 -19.1 -20.55 -17.5 -20.95 -14.65 -17.05 -13.85 L-14.3 -13.2 Q-13.15 -12.8 -13.3 -11.9 -13.4 -11.05 -14.45 -10.55 L-13.9 -10.6 -13.45 -10.65 -12.75 -10.5 -12.65 -10.1 -12.85 -9.65 -10.4 -9.5 Q-14.15 -9.25 -17.15 -7.7 -19.75 -6.25 -19.9 -5.15 -20.0 -4.55 -19.65 -4.25 -19.25 -3.95 -18.05 -3.55 -16.35 -3.9 -16.55 -2.3 -16.65 -1.7 -17.45 -1.3 -18.3 -0.9 -18.35 -0.55 -18.35 -0.25 -16.85 0.2 L-14.2 0.85 Q-14.0 0.85 -14.1 1.25 L-14.35 1.7 -13.6 1.7 -13.25 1.8 -13.25 2.15 -13.25 2.35 -13.35 2.45 Q-21.15 2.25 -25.6 4.15 -29.2 5.85 -29.6 8.05 L-29.75 8.5 -29.45 9.2 Q-28.85 10.05 -27.35 10.2 L-28.4 10.6 -29.45 10.4 Q-32.15 10.55 -33.6 11.4 -34.8 12.1 -34.9 12.9 -35.05 13.85 -32.2 15.2 -29.45 16.45 -26.85 16.8 L-21.95 17.2 -17.65 16.8 -14.35 16.25 -13.8 16.45 Q-13.25 16.55 -11.85 17.2 L-9.35 18.2 -7.75 18.8 -4.75 19.45 0.85 19.95 Q6.45 19.85 9.85 18.3 12.7 16.95 12.95 15.25 13.1 14.2 11.9 13.25 L8.2 10.75 8.35 10.55" fill="#bf2e8c" fill-rule="evenodd" stroke="none"/>
  </g>
</svg>
