<?xml version="1.0" encoding="UTF-8" standalone="no"?>
<svg xmlns:ffdec="https://www.free-decompiler.com/flash" xmlns:xlink="http://www.w3.org/1999/xlink" ffdec:objectType="shape" height="67.1px" width="61.75px" xmlns="http://www.w3.org/2000/svg">
  <g transform="matrix(1.0, 0.0, 0.0, 1.0, 30.85, 42.95)">
    <path d="M-4.65 5.3 L-4.25 5.25 -3.65 5.2 -3.4 5.25 Q-2.7 5.45 -2.45 5.9 L-2.35 6.25 -2.35 6.3 Q-2.35 8.2 -3.75 9.0 -5.2 9.75 -5.2 10.6 -5.2 11.25 -4.05 12.75 L-3.55 13.4 -3.5 14.05 -3.4 14.7 -3.6 15.8 -4.6 16.65 -5.8 17.3 -7.6 17.5 Q-8.95 17.5 -9.85 16.8 -10.55 16.45 -10.55 15.3 -10.55 14.65 -10.15 14.55 L-10.3 13.7 Q-10.65 12.65 -10.0 12.1 L-9.9 12.25 -9.7 12.5 -9.7 12.7 -9.7 13.0 -8.35 14.35 -8.45 14.35 -9.0 14.25 Q-9.65 15.15 -7.8 15.8 -5.95 16.4 -5.5 14.15 -5.1 11.9 -5.4 11.65 L-6.45 10.4 -6.45 10.25 Q-5.45 8.4 -3.45 7.25 L-3.45 7.1 Q-3.5 5.7 -4.65 5.3" fill="#000000" fill-rule="evenodd" stroke="none"/>
    <path d="M-10.0 12.1 L-9.05 11.9 Q-10.25 11.1 -10.25 9.8 -10.25 8.7 -9.4 7.85 -8.65 7.1 -6.7 6.15 L-4.65 5.3 Q-3.5 5.7 -3.45 7.1 L-3.45 7.25 Q-5.45 8.4 -6.45 10.25 L-6.45 10.4 -5.4 11.65 Q-5.1 11.9 -5.5 14.15 -5.95 16.4 -7.8 15.8 -9.65 15.15 -9.0 14.25 L-8.45 14.35 -8.35 14.35 -9.7 13.0 -9.7 12.7 -9.7 12.5 -9.9 12.25 -10.0 12.1" fill="#333333" fill-rule="evenodd" stroke="none"/>
    <path d="M4.5 5.95 L4.4 6.05 4.2 6.35 Q4.6 7.25 4.8 9.25 4.75 10.35 4.4 10.75 L4.2 12.0 Q3.95 13.35 3.25 13.05 L1.85 12.95 1.75 12.95 1.7 12.95 -0.1 12.95 -1.6 12.7 -1.6 12.8 -1.6 12.9 -1.3 13.5 -1.8 13.2 -2.05 13.3 Q-2.6 13.3 -3.15 12.7 L-3.7 11.85 -4.0 10.25 Q-4.0 8.95 -3.65 7.9 L-3.2 6.7 -2.9 6.2 -2.65 6.2 -2.45 6.65 -2.5 6.85 -2.1 7.15 Q-1.25 6.35 -0.6 6.95 0.6 6.45 2.0 6.0 L2.95 5.9 Q3.0 5.65 3.45 5.65 L3.9 5.85 4.5 5.95" fill="#333333" fill-rule="evenodd" stroke="none"/>
    <path d="M4.5 5.95 L3.9 5.85 3.45 5.65 Q3.0 5.65 2.95 5.9 L2.0 6.0 Q0.6 6.45 -0.6 6.95 -1.25 6.35 -2.1 7.15 L-2.5 6.85 -2.45 6.65 -2.65 6.2 -2.9 6.2 Q-3.4 5.7 -4.3 5.45 L-4.5 5.45 -4.3 5.25 -3.3 5.2 4.9 5.15 5.4 5.35 Q4.85 5.6 4.5 5.95" fill="#000000" fill-rule="evenodd" stroke="none"/>
    <path d="M-9.0 20.25 L-8.65 19.2 Q-8.35 18.8 -7.8 18.6 L-3.4 17.6 Q-6.05 15.15 -6.05 14.55 -6.05 13.55 -4.25 11.75 L-3.6 11.2 -2.5 12.3 -2.25 12.9 -2.15 13.15 Q-2.0 13.35 -2.15 14.1 -2.3 14.85 -2.9 14.85 L-2.05 15.55 -1.05 15.95 -1.0 16.05 -0.7 16.35 -0.5 16.55 -0.15 17.1 Q-0.1 19.1 -2.15 19.8 -3.55 20.35 -4.55 21.35 L-6.05 22.85 -6.75 22.8 -6.8 22.7 Q-7.0 22.2 -6.6 21.6 L-6.35 21.35 -6.75 21.55 -7.4 22.55 -8.2 22.45 -8.4 22.0 -8.4 21.9 -8.2 21.3 -7.05 20.15 -7.15 20.15 -7.2 20.2 Q-7.65 20.55 -8.2 20.7 L-8.45 20.7 Q-8.75 20.75 -8.95 20.4 L-9.0 20.25 M-6.1 21.2 L-6.15 21.2 -6.15 21.25 -6.1 21.2" fill="#333333" fill-rule="evenodd" stroke="none"/>
    <path d="M-2.5 12.3 L-1.8 12.65 -1.35 12.8 Q-0.3 13.05 -0.1 13.45 -1.35 14.25 -1.35 14.7 L0.1 15.7 Q1.55 16.45 1.55 17.65 1.55 18.65 0.9 19.3 L-1.55 20.95 Q-2.5 21.4 -3.15 22.8 -4.5 24.15 -5.5 24.15 L-6.15 24.0 -6.45 23.8 -7.3 23.95 Q-8.0 23.95 -8.35 23.35 L-8.6 22.65 -8.4 22.0 -8.2 22.45 -7.4 22.55 -6.75 21.55 -6.35 21.35 -6.6 21.6 Q-7.0 22.2 -6.8 22.7 L-6.75 22.8 -6.05 22.85 -4.55 21.35 Q-3.55 20.35 -2.15 19.8 -0.1 19.1 -0.15 17.1 L-0.5 16.55 -0.7 16.35 -1.0 16.05 -1.05 15.95 -2.05 15.55 -2.9 14.85 Q-2.3 14.85 -2.15 14.1 -2.0 13.35 -2.15 13.15 L-2.25 12.9 -2.5 12.3 M-8.4 21.9 Q-9.0 21.25 -9.0 20.4 L-9.0 20.25 -8.95 20.4 Q-8.75 20.75 -8.45 20.7 L-8.2 20.7 Q-7.65 20.55 -7.2 20.2 L-7.15 20.15 -7.05 20.15 -8.2 21.3 -8.4 21.9 M-6.1 21.2 L-6.15 21.25 -6.15 21.2 -6.1 21.2" fill="#000000" fill-rule="evenodd" stroke="none"/>
    <path d="M-11.55 -32.05 Q-6.35 -34.25 0.0 -34.25 10.35 -34.25 17.65 -28.4 25.0 -22.55 25.0 -14.25 L24.95 -12.5 Q25.15 -11.75 26.35 -10.8 L27.6 -9.6 Q27.7 -9.4 26.45 -8.75 25.15 -8.15 25.15 -7.9 L27.05 -6.5 Q25.9 -5.5 24.35 -4.8 22.8 -4.1 22.8 -3.7 22.8 -3.45 24.4 -2.95 19.1 0.65 14.9 2.45 L10.2 4.2 9.95 4.15 Q5.4 5.75 0.0 5.75 -7.55 5.75 -13.5 2.65 L-13.7 2.65 -15.5 2.25 -17.5 1.55 -20.45 1.15 Q-22.8 1.05 -21.7 0.05 -20.6 -0.95 -22.6 -1.45 -24.65 -1.95 -24.25 -2.65 -23.85 -3.35 -22.8 -3.75 L-24.7 -4.45 Q-25.9 -4.75 -25.8 -5.35 -25.7 -6.0 -24.8 -6.75 -23.9 -7.5 -23.8 -8.0 L-24.7 -11.05 -22.1 -7.95 -21.4 -6.9 -21.3 -6.4 -20.9 -6.0 -20.9 -5.9 -20.95 -5.75 Q-21.0 -5.65 -21.3 -5.65 L-21.35 -5.4 -21.3 -5.25 -21.15 -5.1 -21.05 -5.0 -20.9 -4.9 Q-20.2 -4.5 -19.8 -3.9 -19.8 -3.05 -19.0 -2.5 -17.4 -1.4 -15.7 -0.6 L-13.95 0.7 Q-8.1 4.5 0.15 4.5 8.4 4.5 14.2 0.7 20.05 -3.1 20.05 -8.5 L19.9 -10.25 19.8 -11.65 Q19.5 -14.0 17.95 -15.75 16.6 -17.35 17.2 -18.25 L17.35 -18.4 17.35 -18.5 16.95 -18.9 15.6 -21.25 15.6 -21.75 13.85 -24.0 13.85 -24.15 13.85 -24.25 14.2 -24.4 Q14.4 -24.45 14.25 -24.55 L13.35 -25.25 9.45 -27.65 9.85 -27.75 Q10.45 -27.85 10.35 -28.0 8.25 -29.35 5.7 -29.75 L-1.3 -30.4 0.1 -31.0 Q-3.3 -32.4 -6.9 -32.35 L-11.55 -32.05" fill="#000000" fill-rule="evenodd" stroke="none"/>
    <path d="M-11.55 -32.05 L-6.9 -32.35 Q-3.3 -32.4 0.1 -31.0 L-1.3 -30.4 5.7 -29.75 Q8.25 -29.35 10.35 -28.0 10.45 -27.85 9.85 -27.75 L9.45 -27.65 13.35 -25.25 14.25 -24.55 Q14.4 -24.45 14.2 -24.4 L13.85 -24.25 13.85 -24.15 13.85 -24.0 15.6 -21.75 15.6 -21.25 16.95 -18.9 17.35 -18.5 17.35 -18.4 17.2 -18.25 Q16.6 -17.35 17.95 -15.75 19.5 -14.0 19.8 -11.65 L19.9 -10.25 Q19.1 -14.55 14.2 -17.7 8.4 -21.5 0.15 -21.5 -8.1 -21.5 -13.95 -17.7 -19.75 -13.9 -19.75 -8.5 -19.75 -4.0 -15.7 -0.6 -17.4 -1.4 -19.0 -2.5 -19.8 -3.05 -19.8 -3.9 -20.2 -4.5 -20.9 -4.9 L-21.05 -5.0 -21.15 -5.1 -21.3 -5.25 -21.35 -5.4 -21.3 -5.65 Q-21.0 -5.65 -20.95 -5.75 L-20.9 -5.9 -20.9 -6.0 -21.3 -6.4 -21.4 -6.9 -22.1 -7.95 -24.7 -11.05 -25.0 -14.25 Q-25.0 -22.55 -17.7 -28.4 -14.85 -30.65 -11.55 -32.05" fill="#333333" fill-rule="evenodd" stroke="none"/>
    <path d="M27.85 -39.8 Q29.25 -40.95 29.95 -41.95 31.05 -43.45 30.9 -42.75 L30.2 -40.7 Q29.5 -38.65 29.5 -36.65 L29.65 -30.05 30.3 -30.3 Q30.8 -30.3 30.9 -29.6 L30.05 -26.65 29.15 -23.9 29.4 -22.65 Q29.4 -20.35 26.75 -17.75 L24.75 -16.05 24.15 -15.45 23.3 -14.9 22.75 -14.1 Q21.85 -13.0 20.4 -14.95 18.9 -16.95 14.75 -19.7 L14.15 -20.1 14.1 -20.4 Q13.8 -20.55 13.45 -20.75 L13.35 -21.1 Q12.95 -21.6 13.2 -22.5 13.6 -24.15 14.85 -25.5 L14.7 -25.6 14.4 -25.95 14.2 -26.15 14.4 -26.9 Q15.2 -28.85 16.45 -30.5 16.15 -30.55 16.45 -31.0 17.5 -32.45 18.45 -33.0 L17.95 -32.95 17.6 -33.15 17.85 -33.35 18.0 -33.45 Q19.9 -34.45 22.8 -36.6 L23.05 -36.3 22.95 -36.05 Q23.65 -36.7 26.25 -38.55 L27.4 -39.45 28.1 -39.65 27.85 -39.8 M24.3 -31.4 L23.0 -29.05 Q22.85 -29.05 22.65 -29.2 L22.4 -29.35 Q21.95 -29.35 21.6 -28.5 L21.1 -27.1 20.3 -26.0 19.65 -24.85 19.4 -22.65 19.25 -20.4 Q19.25 -18.8 19.85 -17.55 20.55 -16.1 21.65 -16.1 L22.4 -16.25 25.1 -18.55 Q26.95 -20.1 27.65 -21.85 L27.95 -23.75 Q27.95 -24.75 28.4 -26.15 L29.25 -28.6 Q28.3 -28.75 28.3 -29.45 L28.45 -33.05 28.4 -36.5 28.4 -37.25 27.65 -36.35 27.0 -35.6 Q25.35 -33.65 24.3 -31.4" fill="#333333" fill-rule="evenodd" stroke="none"/>
    <path d="M14.15 -20.1 L11.95 -21.45 11.2 -23.35 10.4 -25.15 10.75 -27.95 Q11.15 -30.65 12.95 -32.3 14.75 -33.95 14.75 -32.2 L14.6 -31.6 14.65 -31.55 Q15.6 -32.3 17.85 -33.35 L17.6 -33.15 17.95 -32.95 18.45 -33.0 Q17.5 -32.45 16.45 -31.0 16.15 -30.55 16.45 -30.5 15.2 -28.85 14.4 -26.9 L14.2 -26.15 14.4 -25.95 14.7 -25.6 14.85 -25.5 Q13.6 -24.15 13.2 -22.5 12.95 -21.6 13.35 -21.1 L13.45 -20.75 Q13.8 -20.55 14.1 -20.4 L14.15 -20.1 M27.4 -39.45 L27.85 -39.8 28.1 -39.65 27.4 -39.45" fill="#000000" fill-rule="evenodd" stroke="none"/>
    <path d="M27.0 -35.6 L27.65 -36.35 28.4 -37.25 28.4 -36.5 28.45 -33.05 28.3 -29.45 Q28.3 -28.75 29.25 -28.6 L28.4 -26.15 Q27.95 -24.75 27.95 -23.75 L27.65 -21.85 27.55 -21.9 27.45 -21.9 27.3 -21.8 26.85 -21.65 26.5 -20.95 Q25.4 -18.7 23.6 -18.7 22.15 -18.7 21.8 -19.65 L21.75 -20.6 Q21.75 -21.9 22.2 -24.05 22.65 -26.2 23.15 -27.25 L24.35 -29.5 24.5 -30.2 Q25.4 -33.25 27.0 -35.6" fill="#ff99cc" fill-rule="evenodd" stroke="none"/>
    <path d="M27.65 -21.85 Q26.95 -20.1 25.1 -18.55 L22.4 -16.25 21.65 -16.1 Q20.55 -16.1 19.85 -17.55 19.25 -18.8 19.25 -20.4 L19.4 -22.65 19.65 -24.85 20.3 -26.0 21.1 -27.1 21.6 -28.5 Q21.95 -29.35 22.4 -29.35 L22.65 -29.2 Q22.85 -29.05 23.0 -29.05 L24.3 -31.4 Q25.35 -33.65 27.0 -35.6 25.4 -33.25 24.5 -30.2 L24.35 -29.5 23.15 -27.25 Q22.65 -26.2 22.2 -24.05 21.75 -21.9 21.75 -20.6 L21.8 -19.65 Q22.15 -18.7 23.6 -18.7 25.4 -18.7 26.5 -20.95 L26.85 -21.65 27.3 -21.8 27.45 -21.9 27.55 -21.9 27.65 -21.85" fill="#8455b3" fill-rule="evenodd" stroke="none"/>
    <path d="M-17.4 -17.5 Q-19.4 -15.95 -20.35 -14.7 -21.8 -12.75 -22.7 -13.85 L-23.25 -14.65 -24.1 -15.2 -24.7 -15.8 -26.7 -17.5 Q-29.35 -20.1 -29.35 -22.4 L-29.1 -23.65 -30.0 -26.4 -30.85 -29.35 Q-30.75 -30.05 -30.25 -30.05 L-29.6 -29.8 -29.45 -36.4 Q-29.45 -38.4 -30.15 -40.45 L-30.85 -42.5 Q-31.0 -43.2 -29.9 -41.7 -28.8 -40.2 -26.2 -38.3 L-25.35 -37.65 Q-23.8 -35.05 -21.4 -32.75 -20.55 -31.95 -20.3 -31.9 -19.55 -30.45 -17.15 -28.75 L-16.65 -28.4 -18.05 -28.65 -15.65 -26.5 -16.4 -25.5 -16.05 -23.75 -16.65 -22.75 -17.1 -19.0 -17.4 -17.5 M-26.95 -35.35 L-27.6 -36.1 -28.35 -37.0 -28.35 -36.25 -28.4 -32.8 -28.25 -29.2 Q-28.25 -28.5 -29.2 -28.35 L-28.35 -25.9 Q-27.9 -24.5 -27.9 -23.5 L-27.6 -21.6 Q-26.9 -19.85 -25.05 -18.3 L-22.35 -16.0 -21.6 -15.85 Q-20.5 -15.85 -19.8 -17.3 -19.2 -18.55 -19.2 -20.15 L-19.35 -22.4 -19.6 -24.6 Q-19.7 -25.05 -20.25 -25.75 L-21.05 -26.85 -21.55 -28.25 Q-21.9 -29.1 -22.35 -29.1 L-22.6 -28.95 Q-22.8 -28.8 -22.95 -28.8 L-24.25 -31.15 Q-25.3 -33.4 -26.95 -35.35" fill="#333333" fill-rule="evenodd" stroke="none"/>
    <path d="M-17.4 -17.5 L-17.1 -19.0 -16.65 -22.75 -16.05 -23.75 -16.4 -25.5 -15.65 -26.5 -18.05 -28.65 -16.65 -28.4 -17.15 -28.75 Q-19.55 -30.45 -20.3 -31.9 -20.55 -31.95 -21.4 -32.75 -23.8 -35.05 -25.35 -37.65 L-22.9 -35.8 -23.0 -36.05 -22.75 -36.35 Q-19.85 -34.2 -17.95 -33.2 L-14.6 -31.3 -14.55 -31.35 -14.7 -31.95 Q-14.7 -33.7 -12.9 -32.05 -11.1 -30.4 -10.7 -27.7 L-10.35 -24.9 -11.15 -23.1 -11.9 -21.2 -14.7 -19.45 -17.4 -17.5" fill="#000000" fill-rule="evenodd" stroke="none"/>
    <path d="M-27.5 -21.4 Q-28.0 -22.25 -28.0 -22.95 L-27.9 -23.25 -27.9 -23.5 Q-27.9 -24.5 -28.35 -25.9 L-29.2 -28.35 Q-28.25 -28.5 -28.25 -29.2 L-28.4 -32.8 -28.35 -36.25 -28.35 -37.0 -27.6 -36.1 -26.95 -35.35 -25.4 -32.6 Q-24.9 -31.9 -24.55 -31.0 L-23.45 -27.8 -22.55 -24.3 Q-22.4 -23.4 -22.4 -21.4 -22.4 -20.7 -22.8 -20.1 -23.35 -19.3 -24.35 -19.3 -26.1 -19.3 -27.2 -20.9 L-27.5 -21.4" fill="#ff99cc" fill-rule="evenodd" stroke="none"/>
    <path d="M-26.95 -35.35 Q-25.3 -33.4 -24.25 -31.15 L-22.95 -28.8 Q-22.8 -28.8 -22.6 -28.95 L-22.35 -29.1 Q-21.9 -29.1 -21.55 -28.25 L-21.05 -26.85 -20.25 -25.75 Q-19.7 -25.05 -19.6 -24.6 L-19.35 -22.4 -19.2 -20.15 Q-19.2 -18.55 -19.8 -17.3 -20.5 -15.85 -21.6 -15.85 L-22.35 -16.0 -25.05 -18.3 Q-26.8 -19.75 -27.5 -21.4 L-27.2 -20.9 Q-26.1 -19.3 -24.35 -19.3 -23.35 -19.3 -22.8 -20.1 -22.4 -20.7 -22.4 -21.4 -22.4 -23.4 -22.55 -24.3 L-23.45 -27.8 -24.55 -31.0 Q-24.9 -31.9 -25.4 -32.6 L-26.95 -35.35" fill="#8455b3" fill-rule="evenodd" stroke="none"/>
    <path d="M3.0 -35.7 Q2.15 -34.55 1.7 -32.8 1.55 -32.15 1.7 -31.4 L2.6 -31.5 Q5.35 -34.65 9.65 -36.05 L10.7 -36.15 Q9.0 -35.35 7.7 -34.0 6.25 -32.45 6.45 -31.65 6.85 -31.4 6.5 -31.0 L5.85 -30.4 5.35 -29.75 7.2 -30.0 Q6.1 -28.95 4.6 -28.2 L2.8 -27.35 1.3 -27.35 Q-0.4 -27.35 -1.5 -28.3 -2.35 -29.0 -2.35 -29.55 -2.35 -30.6 0.35 -33.4 L3.0 -35.7" fill="#333333" fill-rule="evenodd" stroke="none"/>
    <path d="M2.8 -27.35 L4.6 -28.2 Q6.1 -28.95 7.2 -30.0 L5.35 -29.75 5.85 -30.4 6.5 -31.0 Q6.85 -31.4 6.45 -31.65 6.25 -32.45 7.7 -34.0 9.0 -35.35 10.7 -36.15 L9.65 -36.05 Q5.35 -34.65 2.6 -31.5 L1.7 -31.4 Q1.55 -32.15 1.7 -32.8 2.15 -34.55 3.0 -35.7 3.85 -36.3 4.45 -36.4 L4.7 -36.15 4.25 -35.45 3.65 -34.3 3.65 -34.15 Q7.5 -37.2 12.3 -37.95 L13.95 -37.9 14.0 -37.55 Q11.4 -36.1 10.05 -34.25 9.35 -33.2 8.45 -30.85 L8.4 -30.8 9.9 -31.0 11.1 -31.3 Q11.6 -31.3 11.6 -30.5 11.6 -29.35 9.3 -28.45 6.9 -27.5 2.8 -27.35" fill="#000000" fill-rule="evenodd" stroke="none"/>
    <path d="M-2.15 9.15 Q-2.15 7.8 -1.45 6.85 -0.7 5.95 0.3 5.95 1.3 5.95 2.0 6.85 2.75 7.8 2.75 9.15 2.75 10.5 2.0 11.4 1.3 12.35 0.3 12.35 -0.7 12.35 -1.45 11.4 -2.15 10.5 -2.15 9.15" fill="#c67db0" fill-rule="evenodd" stroke="none"/>
    <path d="M1.45 10.0 Q0.95 10.7 0.2 10.7 -0.5 10.7 -1.05 10.0 -1.6 9.3 -1.6 8.35 -1.6 7.35 -1.05 6.65 -0.5 6.0 0.2 6.0 0.95 6.0 1.45 6.65 2.0 7.35 2.0 8.35 2.0 9.3 1.45 10.0" fill="#ffcccc" fill-rule="evenodd" stroke="none"/>
    <path d="M8.6 18.2 Q8.9 19.75 8.15 20.35 L7.45 20.25 7.35 20.2 7.3 20.1 7.2 19.9 7.2 20.05 Q7.4 20.95 6.6 21.35 L4.05 20.2 3.9 20.25 Q1.9 21.35 0.7 18.95 0.65 18.6 1.0 18.35 L1.8 17.7 1.7 16.7 Q1.45 14.5 3.1 13.1 L1.85 12.8 3.45 12.3 4.1 12.05 4.15 14.9 Q4.2 16.9 4.95 17.0 L6.9 17.25 Q7.95 17.75 8.6 18.2" fill="#333333" fill-rule="evenodd" stroke="none"/>
    <path d="M1.85 12.8 L3.1 13.1 Q1.45 14.5 1.7 16.7 L1.8 17.7 1.0 18.35 Q0.65 18.6 0.7 18.95 1.9 21.35 3.9 20.25 L4.05 20.2 6.6 21.35 Q7.4 20.95 7.2 20.05 L7.2 19.9 7.3 20.1 7.35 20.2 7.45 20.25 8.15 20.35 Q8.9 19.75 8.6 18.2 L9.0 18.6 Q9.35 19.6 9.35 20.7 L9.3 20.65 9.2 20.9 8.7 21.45 8.2 22.1 Q8.0 22.6 7.4 22.8 L5.8 22.6 5.1 22.1 4.85 21.8 2.4 21.7 Q-0.05 20.75 -0.7 19.5 -1.1 18.65 -0.75 17.65 L-0.05 16.55 0.0 14.85 0.0 13.1 0.65 12.85 1.85 12.8" fill="#000000" fill-rule="evenodd" stroke="none"/>
    <path d="M14.7 10.5 Q15.1 11.3 15.1 12.5 L14.9 13.8 13.85 14.85 Q13.55 14.7 13.3 15.0 L12.75 15.7 Q12.25 16.2 11.45 16.2 L10.8 16.05 10.45 15.9 10.4 15.85 10.35 15.95 10.05 16.25 10.0 16.25 Q9.4 16.65 8.35 16.65 7.15 16.65 6.6 15.45 L6.25 14.15 6.3 13.9 6.05 12.4 6.15 10.85 Q6.15 10.45 5.2 9.55 L3.85 8.5 3.95 8.7 3.55 8.05 3.45 7.2 3.65 6.5 3.7 6.45 Q4.5 8.55 6.9 9.8 L7.35 10.3 Q5.85 12.05 6.75 13.55 7.65 15.0 8.0 14.95 L8.6 14.8 Q8.75 14.65 8.85 14.65 L8.95 14.5 Q8.95 13.85 9.55 14.7 L9.7 14.9 9.4 14.45 Q10.3 14.75 10.9 15.25 L11.25 15.15 Q11.7 15.25 11.9 14.85 12.4 14.05 11.9 13.1 12.2 13.45 12.6 13.4 L12.85 13.4 Q14.6 12.5 14.7 10.5 M4.15 5.75 L5.05 5.15 6.05 5.75 7.6 7.3 Q6.55 6.6 5.3 6.05 L4.15 5.75" fill="#000000" fill-rule="evenodd" stroke="none"/>
    <path d="M3.7 6.45 L4.05 5.85 4.15 5.75 5.3 6.05 Q6.55 6.6 7.6 7.3 L8.25 8.05 Q8.7 8.45 10.15 8.45 13.65 8.45 14.7 10.5 14.6 12.5 12.85 13.4 L12.6 13.4 Q12.2 13.45 11.9 13.1 12.4 14.05 11.9 14.85 11.7 15.25 11.25 15.15 L10.9 15.25 Q10.3 14.75 9.4 14.45 L9.7 14.9 9.55 14.7 Q8.95 13.85 8.95 14.5 L8.85 14.65 Q8.75 14.65 8.6 14.8 L8.0 14.95 Q7.65 15.0 6.75 13.55 5.85 12.05 7.35 10.3 L6.9 9.8 Q4.5 8.55 3.7 6.45" fill="#333333" fill-rule="evenodd" stroke="none"/>
  </g>
</svg>
