<?xml version="1.0" encoding="UTF-8" standalone="no"?>
<svg xmlns:ffdec="https://www.free-decompiler.com/flash" xmlns:xlink="http://www.w3.org/1999/xlink" ffdec:objectType="shape" height="17.75px" width="16.75px" xmlns="http://www.w3.org/2000/svg">
  <g transform="matrix(1.0, 0.0, 0.0, 1.0, 7.6, 8.15)">
    <path d="M6.0 8.25 L4.8 9.1 4.65 9.1 5.9 8.15 6.0 8.25 M-1.85 9.35 L-1.85 9.3 -1.85 9.35" fill="#000000" fill-opacity="0.3019608" fill-rule="evenodd" stroke="none"/>
    <path d="M-1.8 9.35 L-1.85 9.35 -1.85 9.3 -1.8 9.35" fill="#281c0b" fill-opacity="0.3019608" fill-rule="evenodd" stroke="none"/>
    <path d="M-1.85 9.3 L-0.6 8.25 Q-0.6 7.5 -1.45 7.5 -1.75 7.5 -2.1 7.8 L-2.8 8.15 -3.7 7.65 -4.0 7.7 Q-6.0 7.7 -6.85 4.0 L-7.2 2.05 Q-7.8 1.7 -7.55 0.5 -7.55 -2.15 -7.0 -4.65 -6.4 -7.2 0.4 -8.15 L2.55 -7.85 4.3 -7.3 5.15 -6.85 2.8 -7.05 2.5 -7.05 Q3.4 -6.7 4.9 -5.5 7.15 -3.9 7.7 -2.9 9.15 -0.2 9.15 1.95 8.85 4.15 8.25 5.15 7.6 6.85 6.0 8.25 L5.9 8.15 6.35 7.25 Q6.35 5.8 5.05 6.75 L3.35 8.05 Q2.45 8.6 1.6 8.95 L-0.8 9.6 -1.8 9.35 -1.85 9.3" fill="#6f503c" fill-opacity="0.3019608" fill-rule="evenodd" stroke="none"/>
    <path d="M-3.6 7.0 L-3.95 6.95 -4.0 6.85 -3.6 7.0" fill="#000000" fill-opacity="0.3019608" fill-rule="evenodd" stroke="none"/>
    <path d="M5.45 -1.5 Q6.0 0.1 5.1 2.4 3.85 5.45 0.25 6.7 L-2.35 7.15 Q-0.9 6.9 -0.05 4.6 -3.5 6.05 -5.3 0.9 -5.9 -0.85 -5.7 -1.85 -5.2 -4.05 -1.65 -5.0 L-0.85 -5.3 Q1.9 -6.25 3.9 -4.15 4.9 -3.1 5.45 -1.5" fill="#6f503c" fill-opacity="0.5019608" fill-rule="evenodd" stroke="none"/>
    <path d="M3.35 -3.25 Q4.65 -1.9 4.65 0.0 4.65 1.95 3.35 3.35 1.95 4.65 0.0 4.65 -1.9 4.65 -3.25 3.35 -4.65 1.95 -4.65 0.0 -4.65 -1.9 -3.25 -3.25 -1.9 -4.65 0.0 -4.65 1.95 -4.65 3.35 -3.25" fill="#6f503c" fill-rule="evenodd" stroke="none"/>
  </g>
</svg>
