<?xml version="1.0" encoding="UTF-8" standalone="no"?>
<svg xmlns:ffdec="https://www.free-decompiler.com/flash" xmlns:xlink="http://www.w3.org/1999/xlink" ffdec:objectType="shape" height="28.05px" width="41.65px" xmlns="http://www.w3.org/2000/svg">
  <g transform="matrix(1.0, 0.0, 0.0, 1.0, 0.45, 1.75)">
    <path d="M31.75 -0.25 Q33.4 0.75 33.65 1.8 L34.15 2.0 34.05 2.3 Q34.05 2.5 34.35 2.7 L34.65 3.05 33.75 4.6 33.0 4.8 32.95 4.85 33.1 5.2 Q33.1 6.8 29.55 6.8 L29.1 6.8 28.6 7.0 31.25 7.55 31.2 7.5 Q31.2 7.15 32.2 7.15 L34.05 7.4 Q34.8 7.4 36.35 8.6 L37.05 9.2 Q38.15 9.3 39.35 11.0 L39.75 12.0 39.95 12.65 40.35 12.45 40.3 12.95 40.15 13.6 40.05 13.5 39.9 13.65 40.1 13.7 40.05 13.8 Q39.8 14.2 39.8 14.55 L40.1 14.85 Q40.9 15.45 40.9 16.3 L40.9 16.35 41.1 16.2 41.2 16.45 Q41.2 16.9 40.45 17.65 L39.6 18.25 40.0 18.55 Q39.75 18.95 39.9 19.2 L38.45 20.75 36.65 21.95 34.55 21.95 Q30.55 23.3 26.0 21.45 L24.8 23.3 Q23.05 25.2 21.0 25.75 L17.95 26.3 Q15.65 26.3 13.95 25.3 12.5 24.4 12.4 23.2 L11.95 23.2 Q9.85 23.3 8.85 22.1 7.95 21.45 8.1 20.3 L7.95 20.35 7.7 20.1 Q7.45 19.45 7.55 18.8 L6.8 18.8 3.4 18.45 3.3 18.25 3.35 17.85 Q3.35 17.35 2.95 17.35 L2.45 17.5 2.15 17.35 Q1.45 17.0 1.2 17.0 L0.85 17.05 Q0.25 16.45 0.1 15.75 -1.15 14.25 0.55 12.25 1.2 11.25 2.3 10.4 2.95 9.0 5.7 7.75 L7.5 7.05 6.55 6.9 5.5 6.6 5.0 5.95 Q5.0 5.4 6.2 5.0 L8.05 4.65 7.8 4.4 Q7.0 3.6 7.0 3.2 7.0 2.1 9.4 1.3 9.5 0.65 12.15 -0.6 L14.25 -1.25 17.5 -1.75 23.5 -1.75 27.4 -1.25 28.05 -1.4 Q29.85 -1.4 31.75 -0.25" fill="#f59aa8" fill-rule="evenodd" stroke="none"/>
  </g>
</svg>
