<?xml version="1.0" encoding="UTF-8" standalone="no"?>
<svg xmlns:ffdec="https://www.free-decompiler.com/flash" xmlns:xlink="http://www.w3.org/1999/xlink" ffdec:objectType="shape" height="19.2px" width="29.25px" xmlns="http://www.w3.org/2000/svg">
  <g transform="matrix(1.0, 0.0, 0.0, 1.0, -6.15, -22.3)">
    <path d="M25.7 24.3 L25.7 24.45 25.75 24.6 25.3 24.3 25.7 24.3 M15.9 27.05 L15.7 26.7 15.35 25.6 15.9 27.05" fill="#534747" fill-rule="evenodd" stroke="none"/>
    <path d="M15.25 25.3 Q15.05 24.0 15.4 22.45 L15.45 22.3 16.15 22.3 16.75 22.45 Q16.8 23.25 17.6 24.3 18.4 25.3 20.0 25.45 21.65 25.55 22.45 25.0 L23.55 23.95 25.1 25.3 Q22.85 26.75 20.3 26.8 17.5 26.85 15.25 25.3 M25.35 25.45 L25.95 25.75 26.7 27.6 27.55 28.7 Q28.55 29.75 29.9 30.55 L29.95 30.75 Q29.8 30.8 29.8 31.0 L30.15 31.4 30.15 31.55 30.35 32.3 30.35 32.65 30.15 33.25 30.1 33.4 29.85 33.75 29.2 34.3 28.55 34.65 28.3 34.75 28.3 34.8 28.25 34.8 28.2 34.85 Q27.5 35.5 27.35 36.3 L27.45 36.3 27.5 36.4 29.5 37.65 29.75 37.75 31.0 38.2 32.15 38.5 35.4 38.95 34.05 39.05 33.9 39.15 33.6 39.2 31.85 39.2 31.2 39.25 30.95 39.25 Q28.1 39.65 25.35 38.4 27.25 39.45 28.4 40.4 L28.6 40.55 28.8 41.05 Q22.8 41.95 22.9 41.05 21.55 40.05 19.75 39.85 19.05 39.7 18.45 39.85 17.55 40.1 16.4 41.3 12.4 41.1 9.95 39.4 L9.85 39.35 9.4 39.15 9.35 39.15 8.85 39.15 6.15 39.0 9.4 38.5 10.6 38.2 12.1 37.65 14.05 36.45 14.05 35.05 Q14.0 33.85 14.55 33.05 L15.15 32.5 Q15.8 32.05 16.65 31.7 L17.25 31.25 Q18.15 30.35 18.0 29.2 L17.85 29.05 17.3 28.65 18.1 28.7 18.9 30.35 22.35 31.2 Q25.3 31.7 27.7 30.4 L27.45 29.35 27.25 29.15 22.25 29.35 Q21.2 29.1 20.3 28.65 L20.9 28.55 Q23.85 28.25 25.85 26.4 L25.35 25.45 M18.65 30.25 L18.25 29.35 Q18.3 30.15 17.2 31.55 17.05 32.5 19.8 33.65 22.5 34.8 25.25 34.5 L27.55 34.1 27.25 34.0 27.45 33.85 29.8 33.0 30.0 32.6 Q20.5 33.8 18.65 30.25" fill="#6d6363" fill-rule="evenodd" stroke="none"/>
    <path d="M15.25 25.3 Q17.5 26.85 20.3 26.8 22.85 26.75 25.1 25.3 L25.35 25.45 25.85 26.4 Q23.85 28.25 20.9 28.55 L20.3 28.65 Q21.2 29.1 22.25 29.35 L27.25 29.15 27.45 29.35 27.7 30.4 Q25.3 31.7 22.35 31.2 L18.9 30.35 18.1 28.7 17.3 28.65 15.9 27.05 15.35 25.6 15.25 25.3 M18.65 30.25 Q20.5 33.8 30.0 32.6 L29.8 33.0 27.45 33.85 27.25 34.0 27.55 34.1 25.25 34.5 Q22.5 34.8 19.8 33.65 17.05 32.5 17.2 31.55 18.3 30.15 18.25 29.35 L18.65 30.25" fill="#877c7c" fill-rule="evenodd" stroke="none"/>
  </g>
</svg>
