<?xml version="1.0" encoding="UTF-8" standalone="no"?>
<svg xmlns:ffdec="https://www.free-decompiler.com/flash" xmlns:xlink="http://www.w3.org/1999/xlink" ffdec:objectType="shape" height="19.25px" width="29.25px" xmlns="http://www.w3.org/2000/svg">
  <g transform="matrix(1.0, 0.0, 0.0, 1.0, -6.15, -22.25)">
    <path d="M18.8 38.4 Q18.9 38.0 19.35 37.95 20.15 38.0 20.95 38.65 22.1 39.45 23.45 41.5 L22.3 41.2 18.7 39.0 18.8 38.4 M15.4 22.4 L15.45 22.25 16.7 22.25 16.65 22.4 Q16.45 24.1 16.95 25.5 L17.55 26.65 Q18.25 27.7 19.45 28.55 L19.45 30.25 19.0 31.2 Q18.5 32.05 17.1 32.6 L16.9 32.7 16.8 32.75 16.7 32.85 Q15.7 33.6 15.45 34.55 L15.45 35.0 15.45 35.15 15.45 35.25 15.4 35.25 15.45 36.0 15.5 36.85 15.6 36.85 15.5 36.9 15.6 36.95 15.45 36.95 Q14.45 37.95 12.55 38.55 L10.95 39.0 8.85 39.1 6.15 38.95 9.4 38.45 10.6 38.15 12.1 37.6 14.05 36.4 14.05 34.15 Q14.1 33.45 14.75 32.85 L14.85 32.7 14.95 32.6 Q15.65 32.05 16.65 31.65 L17.25 31.2 Q18.15 30.3 18.0 29.15 16.4 28.1 15.7 26.65 L15.3 25.5 Q15.0 24.1 15.4 22.4 M25.7 24.25 L25.7 24.4 Q25.9 26.1 26.7 27.55 L27.55 28.65 Q28.55 29.7 29.9 30.5 L30.35 32.25 30.15 33.2 Q29.8 34.0 28.55 34.6 L28.3 34.7 28.25 34.75 28.2 34.8 Q27.5 35.45 27.35 36.25 L27.45 36.25 27.5 36.35 29.5 37.6 31.0 38.15 32.15 38.45 35.4 38.9 32.75 39.1 30.65 39.0 29.05 38.55 Q27.05 37.9 26.0 36.85 L26.2 36.75 26.05 36.75 25.95 36.45 25.9 36.45 25.9 36.2 Q25.75 35.45 26.25 34.8 L26.3 34.7 26.4 34.6 Q26.95 34.1 27.85 33.65 L28.3 33.2 Q29.05 32.3 28.6 31.2 L28.6 31.15 27.85 30.7 25.7 28.65 25.1 27.55 Q24.45 26.15 24.45 24.4 L24.45 24.25 25.7 24.25" fill="#201919" fill-rule="evenodd" stroke="none"/>
  </g>
</svg>
