<?xml version="1.0" encoding="UTF-8" standalone="no"?>
<svg xmlns:ffdec="https://www.free-decompiler.com/flash" xmlns:xlink="http://www.w3.org/1999/xlink" ffdec:objectType="shape" height="190.2px" width="79.3px" xmlns="http://www.w3.org/2000/svg">
  <g transform="matrix(1.0, 0.0, 0.0, 1.0, 20.85, 147.45)">
    <path d="M21.95 -136.55 L23.05 -134.8 Q25.95 -131.1 26.9 -124.7 L27.6 -119.95 28.25 -115.6 29.9 -109.8 32.1 -99.1 Q33.3 -98.95 35.35 -96.5 36.9 -93.9 37.15 -91.15 L37.2 -90.9 37.6 -90.4 39.15 -87.5 Q40.4 -84.85 41.1 -81.65 L42.2 -78.05 42.85 -76.0 42.65 -73.55 42.6 -72.85 42.7 -71.45 42.7 -71.35 Q43.75 -71.05 44.15 -68.7 L44.35 -66.05 44.05 -65.05 43.9 -64.75 Q45.15 -63.25 45.15 -62.3 45.15 -61.3 44.25 -61.3 L44.65 -59.1 45.05 -59.15 Q46.85 -58.85 47.55 -52.55 L49.7 -45.7 50.9 -41.15 Q50.9 -40.45 50.5 -39.95 50.05 -39.45 49.3 -39.45 L48.25 -39.65 49.55 -38.2 50.4 -37.1 Q50.0 -36.4 50.0 -35.4 50.0 -34.75 50.55 -33.0 51.1 -31.35 51.0 -30.4 L51.1 -27.4 51.25 -25.2 50.75 -20.05 Q50.6 -18.9 50.75 -17.8 51.05 -16.0 52.25 -15.7 L52.0 -14.1 51.25 -10.45 51.3 -10.25 Q51.9 -8.7 51.9 -7.35 L51.9 -7.0 53.7 -5.45 Q55.4 -3.8 55.8 -2.65 L57.4 2.65 Q58.45 6.65 58.45 8.55 58.45 10.55 57.9 12.35 L56.6 13.95 Q55.45 14.95 55.3 15.5 L54.95 17.7 Q55.5 18.5 55.5 19.3 L55.05 23.15 Q55.05 26.45 54.5 29.75 L53.65 30.75 Q51.65 31.7 49.0 33.55 45.45 35.95 42.0 39.05 L41.7 39.35 39.05 40.1 37.25 40.95 33.6 42.75 30.35 42.2 Q23.35 41.4 13.5 42.15 L8.4 42.65 6.2 41.8 4.0 40.95 Q-1.15 38.85 -3.2 36.6 -5.4 33.8 -11.4 31.2 L-13.1 30.55 -13.2 29.55 -14.6 26.0 -14.6 25.95 -16.85 22.95 Q-20.85 16.8 -20.85 13.6 -20.8 11.3 -20.4 9.5 -19.8 6.8 -18.7 7.1 L-18.65 6.35 -17.45 -1.15 -16.9 -4.45 -16.0 -6.65 -16.15 -7.7 -16.15 -10.85 Q-16.1 -18.6 -15.6 -22.5 -15.3 -24.6 -13.35 -27.85 L-13.45 -29.8 Q-13.45 -36.1 -11.2 -39.4 L-10.85 -39.85 Q-10.15 -43.65 -8.65 -46.95 -9.75 -47.1 -9.75 -48.45 L-9.7 -48.7 -10.2 -48.35 Q-9.0 -58.5 -6.8 -67.25 L-5.35 -72.7 -4.3 -82.05 -4.0 -84.35 -3.45 -86.85 Q-2.7 -88.95 -2.0 -89.35 L-1.65 -89.4 -0.6 -92.3 0.6 -95.15 1.2 -96.2 Q1.8 -103.75 4.45 -114.15 5.5 -118.15 6.65 -121.1 6.55 -121.2 7.8 -126.6 9.5 -133.8 10.4 -135.6 L14.15 -143.5 15.45 -146.35 15.9 -146.35 Q16.25 -146.9 17.05 -147.25 18.4 -147.9 18.4 -146.5 L17.9 -146.0 Q20.35 -143.9 21.3 -140.9 21.85 -139.2 21.95 -136.55 M1.7 -89.45 L2.05 -89.95 2.9 -91.2 2.6 -91.3 1.7 -89.45 M46.8 -42.65 L46.6 -42.9 46.85 -42.35 46.8 -42.65" fill="#344518" fill-rule="evenodd" stroke="none"/>
  </g>
</svg>
