<?xml version="1.0" encoding="UTF-8" standalone="no"?>
<svg xmlns:ffdec="https://www.free-decompiler.com/flash" xmlns:xlink="http://www.w3.org/1999/xlink" ffdec:objectType="shape" height="9.9px" width="5.85px" xmlns="http://www.w3.org/2000/svg">
  <g transform="matrix(1.0, 0.0, 0.0, 1.0, 2.8, 4.55)">
    <path d="M1.5 -0.75 L1.85 0.4 2.05 1.25 2.25 2.4 2.2 2.9 Q2.2 4.9 0.7 4.9 L-0.5 4.8 -0.75 4.9 -2.0 4.65 -2.55 4.05 -2.05 3.2 -1.6 2.25 -1.4 1.45 -0.95 -1.7 -0.8 -2.2 -1.3 -2.9 Q-1.3 -3.45 -0.75 -3.35 -0.2 -3.3 0.45 -2.5 L1.5 -0.75" fill="#5e820c" fill-rule="evenodd" stroke="none"/>
    <path d="M2.25 5.15 L1.75 5.35 Q1.0 4.9 1.35 4.05 2.25 1.6 1.25 -0.7 0.6 -2.2 -0.6 -3.2 0.5 -0.4 -0.6 2.45 -0.95 3.3 -1.55 3.95 L-2.8 4.1 Q-1.95 2.05 -1.55 -0.35 -1.15 -2.45 -1.9 -4.55 L-1.2 -4.1 -0.4 -3.6 0.55 -2.75 Q2.05 -0.85 2.8 1.2 3.4 3.0 2.45 4.95 L2.25 5.15" fill="#2b5401" fill-rule="evenodd" stroke="none"/>
  </g>
</svg>
