<?xml version="1.0" encoding="UTF-8" standalone="no"?>
<svg xmlns:ffdec="https://www.free-decompiler.com/flash" xmlns:xlink="http://www.w3.org/1999/xlink" ffdec:objectType="shape" height="102.0px" width="80.0px" xmlns="http://www.w3.org/2000/svg">
  <g transform="matrix(1.0, 0.0, 0.0, 1.0, 0.0, 0.0)">
    <path d="M75.25 92.7 L75.25 96.45 6.0 96.45 6.0 92.7 75.25 92.7" fill="#d9be88" fill-rule="evenodd" stroke="none"/>
    <path d="M75.25 86.5 L75.25 92.7 6.0 92.7 6.0 86.5 75.25 86.5" fill="#b09969" fill-rule="evenodd" stroke="none"/>
    <path d="M75.25 77.0 L75.25 86.5 6.0 86.5 6.0 77.0 75.25 77.0" fill="#746649" fill-rule="evenodd" stroke="none"/>
    <path d="M6.0 77.0 L6.0 72.25 75.25 72.25 75.25 77.0 6.0 77.0" fill="#554b35" fill-rule="evenodd" stroke="none"/>
    <path d="M6.0 72.25 L6.0 0.0 75.25 0.0 75.25 72.25 6.0 72.25" fill="#2e3941" fill-rule="evenodd" stroke="none"/>
    <path d="M66.5 76.65 L66.5 76.75 67.0 76.55 Q69.8 73.2 71.8 69.2 L71.9 92.75 66.5 77.45 66.5 76.65 M13.9 70.6 L13.9 72.7 8.0 92.85 8.15 67.45 11.05 69.0 13.9 70.6" fill="#5b4c3a" fill-rule="evenodd" stroke="none"/>
    <path d="M66.5 76.65 L65.85 6.6 66.15 0.0 71.4 0.0 71.8 69.15 71.8 69.2 Q69.8 73.2 67.0 76.55 L66.5 76.75 66.5 76.65 M8.15 67.45 L8.5 0.0 13.75 0.0 14.05 6.6 13.9 70.6 11.05 69.0 8.15 67.45" fill="#44392c" fill-rule="evenodd" stroke="none"/>
    <path d="M74.4 0.0 L73.9 18.85 74.4 101.15 74.4 101.25 74.35 101.25 74.1 101.15 73.7 101.1 73.7 101.15 73.55 101.05 71.9 100.6 71.9 98.7 7.55 98.6 7.55 100.6 5.5 101.15 5.1 101.25 5.05 101.25 5.7 6.6 5.55 6.2 Q5.55 6.0 5.7 5.85 L5.7 0.0 7.45 0.0 7.45 9.9 7.55 9.9 7.55 94.1 9.5 94.1 9.5 96.2 71.0 96.2 71.0 94.0 71.9 94.1 71.9 6.95 71.75 6.95 71.75 4.95 71.9 4.95 71.9 0.0 74.4 0.0 M76.3 101.25 L76.95 0.0 78.8 0.0 78.8 100.6 76.75 101.15 76.35 101.25 76.3 101.25 M2.45 101.15 L2.3 101.05 0.65 100.6 0.65 0.0 3.15 0.0 2.65 18.85 3.15 101.15 3.15 101.25 3.1 101.25 2.85 101.15 2.45 101.1 2.45 101.15" fill="#8a6e4d" fill-rule="evenodd" stroke="none"/>
    <path d="M74.4 101.15 L73.9 18.85 74.4 0.0 76.95 0.0 76.3 101.25 74.4 101.15 M71.0 94.0 L71.0 96.2 9.5 96.2 9.5 94.1 19.5 94.05 31.15 94.0 70.0 94.05 71.0 94.0 M5.7 0.0 L5.7 5.85 Q5.55 6.0 5.55 6.2 L5.7 6.6 5.05 101.25 3.15 101.15 2.65 18.85 3.15 0.0 5.7 0.0 M5.1 101.25 L5.5 101.15 5.5 101.25 5.1 101.25 M73.7 101.15 L73.7 101.1 74.1 101.15 73.7 101.15 M76.75 101.15 L76.75 101.25 76.35 101.25 76.75 101.15 M2.45 101.15 L2.45 101.1 2.85 101.15 2.45 101.15" fill="#be9a71" fill-rule="evenodd" stroke="none"/>
    <path d="M71.75 5.75 L71.75 6.95 7.55 6.95 7.55 9.9 7.45 9.9 7.45 5.75 71.75 5.75" fill="#8a6e4d" fill-rule="evenodd" stroke="none"/>
    <path d="M7.45 5.75 L7.45 0.0 7.55 0.0 7.55 5.0 8.0 4.95 8.35 4.95 71.6 4.95 71.75 4.95 71.75 5.75 7.45 5.75" fill="#be9a71" fill-rule="evenodd" stroke="none"/>
    <path d="M71.25 5.15 L65.0 5.2 8.75 5.3 8.75 6.85 71.25 6.8 71.25 5.15 M71.25 0.0 L72.5 0.0 72.5 7.0 72.6 7.1 72.5 7.35 72.55 99.35 74.0 100.75 77.0 100.75 78.55 100.0 78.55 0.0 80.0 0.0 80.0 98.9 79.75 100.25 77.1 102.0 73.7 102.0 71.4 100.25 71.4 99.7 8.75 99.55 8.65 99.55 8.5 100.25 5.85 102.0 2.45 102.0 0.15 100.25 0.0 0.0 1.25 0.0 1.25 100.1 1.3 100.0 2.75 100.75 5.75 100.75 Q6.55 100.4 7.3 100.0 L7.3 0.0 8.75 0.0 8.75 4.6 13.5 4.6 13.5 0.0 14.75 0.0 14.8 4.6 62.5 4.6 62.75 4.65 65.0 4.65 65.0 0.0 66.25 0.0 66.25 4.65 71.25 4.7 71.25 0.0 M66.25 7.4 L66.15 70.9 71.4 91.0 71.25 7.4 66.25 7.4 M8.75 7.4 L8.75 90.25 13.65 72.05 13.5 7.4 8.75 7.4 M15.05 72.15 L8.75 92.55 8.75 93.65 9.25 93.65 71.4 93.65 71.4 93.3 64.7 70.7 65.0 7.4 14.8 7.4 15.05 72.15 M71.4 94.55 L8.75 94.55 8.75 98.35 Q48.5 98.65 71.5 98.45 L71.4 94.55" fill="#2b2620" fill-rule="evenodd" stroke="none"/>
    <path d="M57.3 32.8 Q61.35 37.7 67.25 41.25 L69.45 42.8 69.4 42.25 Q69.25 38.95 68.3 34.65 66.45 26.15 66.6 16.55 51.5 13.3 36.0 13.05 L12.0 14.35 14.25 17.5 Q13.55 24.3 14.05 32.9 14.5 41.5 10.55 49.4 L15.8 50.9 Q22.2 48.05 26.4 42.4 27.55 40.85 28.0 39.15 28.95 43.0 27.35 47.35 L25.55 52.55 Q31.9 52.75 34.25 49.7 34.2 37.25 39.0 20.8 41.55 25.25 44.05 36.0 46.5 46.75 49.95 49.1 51.9 50.45 57.9 49.7 L63.25 48.8 Q59.2 45.7 56.75 41.25 53.05 34.45 50.4 27.4 48.9 23.35 48.25 19.15 51.6 25.75 57.3 32.8 M38.5 57.1 L23.75 58.0 19.15 58.15 14.0 58.1 5.7 57.75 6.65 8.8 72.95 8.8 74.65 54.9 62.15 57.0 45.3 58.0 40.5 42.85 38.5 57.1" fill="#0f2d46" fill-rule="evenodd" stroke="none"/>
    <path d="M57.3 32.8 Q51.6 25.75 48.25 19.15 48.9 23.35 50.4 27.4 53.05 34.45 56.75 41.25 59.2 45.7 63.25 48.8 L57.9 49.7 Q51.9 50.45 49.95 49.1 46.5 46.75 44.05 36.0 41.55 25.25 39.0 20.8 34.2 37.25 34.25 49.7 31.9 52.75 25.55 52.55 L27.35 47.35 Q28.95 43.0 28.0 39.15 27.55 40.85 26.4 42.4 22.2 48.05 15.8 50.9 L10.55 49.4 Q14.5 41.5 14.05 32.9 13.55 24.3 14.25 17.5 L12.0 14.35 36.0 13.05 Q51.5 13.3 66.6 16.55 66.45 26.15 68.3 34.65 69.25 38.95 69.4 42.25 L69.45 42.8 67.25 41.25 Q61.35 37.7 57.3 32.8" fill="#1a476b" fill-rule="evenodd" stroke="none"/>
    <path d="M21.6 7.55 L21.6 9.25 13.5 9.25 13.5 7.55 21.6 7.55 M13.5 5.5 L13.5 4.0 21.6 4.0 21.6 5.5 13.5 5.5" fill="#938b7f" fill-rule="evenodd" stroke="none"/>
    <path d="M21.6 7.55 L13.5 7.55 13.5 5.5 21.6 5.5 21.6 7.55" fill="#fef4e4" fill-rule="evenodd" stroke="none"/>
    <path d="M42.75 7.55 L42.75 9.25 34.7 9.25 34.7 7.55 42.75 7.55 M34.7 5.5 L34.7 4.0 42.75 4.0 42.75 5.5 34.7 5.5" fill="#938b7f" fill-rule="evenodd" stroke="none"/>
    <path d="M42.75 7.55 L34.7 7.55 34.7 5.5 42.75 5.5 42.75 7.55" fill="#fef4e4" fill-rule="evenodd" stroke="none"/>
    <path d="M66.3 7.55 L66.3 9.25 58.2 9.25 58.2 7.55 66.3 7.55 M58.2 5.5 L58.2 4.0 66.3 4.0 66.3 5.5 58.2 5.5" fill="#938b7f" fill-rule="evenodd" stroke="none"/>
    <path d="M66.3 7.55 L58.2 7.55 58.2 5.5 66.3 5.5 66.3 7.55" fill="#fef4e4" fill-rule="evenodd" stroke="none"/>
    <path d="M71.6 9.4 L59.95 9.4 59.75 9.45 59.6 9.4 18.25 9.45 18.0 9.5 17.85 9.45 8.2 9.45 Q7.35 20.95 7.1 32.5 6.85 44.75 6.0 57.0 L17.7 57.45 Q25.45 58.2 37.85 56.3 L38.7 50.45 Q39.9 41.5 38.35 21.1 40.35 39.55 45.1 57.2 L45.25 57.2 57.85 56.5 Q68.9 55.95 74.15 54.7 72.8 51.45 72.65 49.25 72.0 38.0 72.0 26.9 L71.9 9.35 71.6 9.4 M73.85 8.1 Q73.5 15.0 73.65 21.85 L74.0 39.75 Q74.1 45.7 75.6 51.05 76.35 53.7 77.5 56.3 L75.6 56.5 51.6 58.2 44.5 58.8 44.2 57.9 40.6 47.9 Q40.4 52.75 39.25 57.65 L36.05 58.3 20.0 58.9 Q11.8 58.15 3.75 58.85 L5.1 47.7 Q6.0 38.4 5.75 29.0 5.5 18.5 6.4 8.1 L6.4 8.05 11.65 8.05 11.65 8.0 73.85 8.0 73.85 8.1" fill="#161a1c" fill-rule="evenodd" stroke="none"/>
  </g>
</svg>
