<?xml version="1.0" encoding="UTF-8" standalone="no"?>
<svg xmlns:ffdec="https://www.free-decompiler.com/flash" xmlns:xlink="http://www.w3.org/1999/xlink" ffdec:objectType="shape" height="14.95px" width="16.8px" xmlns="http://www.w3.org/2000/svg">
  <g transform="matrix(1.0, 0.0, 0.0, 1.0, 5.1, 37.95)">
    <path d="M-4.45 -31.9 L-5.1 -32.45 5.35 -37.55 6.75 -36.4 Q8.4 -37.6 10.35 -37.95 12.45 -33.3 11.25 -26.7 L11.05 -25.85 Q9.8 -26.05 8.8 -26.85 7.75 -27.65 7.1 -29.35 6.45 -31.1 2.9 -30.85 -0.7 -30.6 -1.25 -31.5 L-4.45 -31.9" fill="#693a34" fill-rule="evenodd" stroke="none"/>
    <path d="M11.05 -25.85 L9.55 -24.25 8.75 -23.0 Q4.25 -27.35 1.05 -27.8 L-3.8 -27.95 -3.85 -28.05 Q-4.75 -29.5 -4.45 -31.9 L-1.25 -31.5 Q-0.7 -30.6 2.9 -30.85 6.45 -31.1 7.1 -29.35 7.75 -27.65 8.8 -26.85 9.8 -26.05 11.05 -25.85" fill="#000000" fill-rule="evenodd" stroke="none"/>
  </g>
</svg>
