<?xml version="1.0" encoding="UTF-8" standalone="no"?>
<svg xmlns:ffdec="https://www.free-decompiler.com/flash" xmlns:xlink="http://www.w3.org/1999/xlink" ffdec:objectType="shape" height="17.8px" width="34.55px" xmlns="http://www.w3.org/2000/svg">
  <g transform="matrix(1.0, 0.0, 0.0, 1.0, 17.6, 66.6)">
    <path d="M-16.2 -54.7 Q-12.25 -55.9 -9.6 -55.4 -8.3 -54.5 -1.0 -55.95 6.05 -57.45 7.85 -55.65 9.5 -53.85 11.8 -53.3 L16.65 -52.9 13.9 -50.6 12.55 -48.8 Q2.45 -52.35 -4.15 -51.85 L-14.35 -51.5 Q-16.0 -51.1 -16.1 -51.5 L-16.2 -54.7" fill="#121427" fill-rule="evenodd" stroke="none"/>
    <path d="M-16.2 -54.7 L-17.6 -55.2 2.55 -64.5 5.55 -63.65 Q8.75 -65.6 12.65 -66.6 17.85 -61.95 16.75 -53.95 L16.65 -52.9 11.8 -53.3 Q9.5 -53.85 7.85 -55.65 6.05 -57.45 -1.0 -55.95 -8.3 -54.5 -9.6 -55.4 -12.25 -55.9 -16.2 -54.7" fill="#84555b" fill-rule="evenodd" stroke="none"/>
  </g>
</svg>
