<?xml version="1.0" encoding="UTF-8" standalone="no"?>
<svg xmlns:ffdec="https://www.free-decompiler.com/flash" xmlns:xlink="http://www.w3.org/1999/xlink" ffdec:objectType="shape" height="40.0px" width="40.05px" xmlns="http://www.w3.org/2000/svg">
  <g transform="matrix(1.0, 0.0, 0.0, 1.0, 0.0, 0.0)">
    <path d="M24.65 0.3 L24.75 0.7 24.75 0.75 24.45 2.25 24.7 3.55 24.75 3.75 Q24.95 9.45 28.55 12.15 L29.65 13.35 Q31.15 14.8 32.1 14.8 32.45 14.8 32.45 14.4 L31.55 13.7 33.75 14.25 38.55 15.05 39.35 14.95 40.0 15.0 40.05 15.15 40.0 15.35 39.95 15.35 39.95 25.55 33.85 25.75 Q27.5 25.75 21.0 23.5 15.5 21.6 15.5 20.75 L16.25 15.5 15.9 11.35 Q15.5 8.55 15.5 5.9 15.5 2.25 16.0 1.4 16.5 0.6 17.4 0.0 L24.7 0.0 24.65 0.3" fill="#c7bda7" fill-rule="evenodd" stroke="none"/>
    <path d="M40.0 30.5 L40.0 40.0 0.0 40.0 0.0 0.0 16.45 0.0 16.6 0.65 16.6 0.8 15.75 1.45 16.5 2.35 Q16.6 2.8 16.2 2.9 L16.2 3.0 Q16.8 3.85 16.3 5.1 L16.6 5.75 16.4 9.05 17.4 9.6 Q16.9 10.25 15.95 10.5 L17.5 13.0 Q16.8 13.8 17.05 14.45 17.3 14.7 16.95 14.9 15.35 15.9 13.45 16.2 L15.85 16.6 19.2 16.9 19.35 17.15 Q19.4 17.7 19.1 17.95 L17.8 19.2 19.0 19.25 Q19.2 19.65 19.05 19.95 L18.85 20.3 18.75 20.55 Q18.95 20.6 19.25 20.3 L19.6 20.15 19.95 20.2 Q20.25 20.35 20.1 20.8 L20.0 21.15 19.95 21.45 20.35 21.45 Q20.6 21.2 20.95 21.1 L21.75 21.05 22.05 21.55 22.1 22.0 Q22.1 22.25 22.25 22.15 L22.3 22.1 22.3 21.95 22.4 21.9 22.4 21.85 22.55 21.75 22.7 21.6 23.0 21.65 Q23.6 22.35 23.7 23.1 L23.7 23.2 24.1 23.15 24.4 23.25 26.7 23.6 28.75 23.35 29.05 23.35 Q29.55 23.75 30.15 23.8 L34.05 23.9 34.7 23.45 35.35 23.45 35.5 23.65 Q34.7 24.7 35.25 25.95 L37.15 26.0 37.85 27.1 37.6 27.05 35.8 26.8 34.05 27.05 Q33.35 27.2 33.35 27.4 33.35 27.7 34.05 27.85 L35.8 28.0 37.6 27.85 38.15 27.7 Q38.8 29.45 40.0 30.5 M9.95 4.65 L7.05 4.45 4.1 4.65 Q2.9 4.9 2.9 5.2 2.9 5.5 4.1 5.75 L7.05 5.95 9.95 5.75 Q11.2 5.5 11.2 5.2 11.2 4.9 9.95 4.65 M13.15 2.75 Q13.15 2.25 12.15 1.9 L9.9 1.55 7.6 1.9 Q6.65 2.25 6.65 2.75 6.65 3.25 7.6 3.6 L9.9 3.95 12.15 3.6 Q13.15 3.25 13.15 2.75 M6.45 14.15 Q5.55 14.3 5.55 14.55 5.55 14.75 6.45 14.9 L8.55 15.1 10.65 14.9 11.55 14.55 Q11.55 14.3 10.65 14.15 L8.55 14.0 6.45 14.15 M3.85 24.7 Q3.3 24.4 3.3 24.7 L3.5 25.6 3.9 26.35 Q4.3 26.35 4.3 25.35 4.3 25.0 3.85 24.7 M12.7 19.5 L12.35 19.5 10.55 19.65 12.35 19.75 12.6 19.75 12.7 19.5 M16.95 27.1 L14.85 26.95 13.95 27.0 14.05 26.95 14.95 26.6 Q14.95 26.35 14.05 26.2 L11.95 26.05 9.85 26.2 Q8.95 26.35 8.95 26.6 8.95 26.8 9.85 26.95 L11.95 27.15 12.55 27.15 Q11.85 27.3 11.85 27.5 11.85 27.7 12.75 27.85 L14.85 28.05 16.95 27.85 17.85 27.5 Q17.85 27.25 16.95 27.1 M10.8 34.35 L11.5 34.2 11.75 33.85 11.5 33.45 10.8 33.3 10.15 33.45 Q9.85 33.6 9.85 33.85 L10.15 34.2 10.8 34.35 M18.3 32.1 L22.8 32.15 27.3 32.1 29.1 32.0 27.3 31.85 22.8 31.8 18.3 31.85 16.5 32.0 18.3 32.1 M3.45 25.95 Q3.25 25.4 2.65 25.25 2.05 25.15 2.35 25.65 2.6 26.15 3.65 26.4 L3.45 25.95 M5.1 26.15 L5.7 25.75 Q5.7 25.55 5.35 25.55 L4.8 25.65 4.6 25.95 4.45 26.2 4.45 26.35 4.55 26.4 5.1 26.15 M4.3 34.45 Q3.35 34.8 3.35 35.3 3.35 35.8 4.3 36.15 L6.6 36.5 8.85 36.15 Q9.85 35.8 9.85 35.3 9.85 34.8 8.85 34.45 L6.6 34.1 4.3 34.45 M36.85 29.4 L36.15 29.25 34.4 29.2 32.65 29.25 31.95 29.4 32.65 29.65 34.4 29.7 36.15 29.65 36.85 29.4 M30.95 33.05 L26.45 32.95 21.95 33.05 20.15 33.35 21.95 33.6 26.45 33.75 30.95 33.6 32.75 33.35 30.95 33.05" fill="#6e9319" fill-rule="evenodd" stroke="none"/>
    <path d="M24.1 23.15 L24.75 23.05 28.75 23.35 26.7 23.6 24.4 23.25 24.1 23.15 M37.85 27.1 L37.9 27.2 38.0 27.2 38.15 27.7 37.6 27.85 35.8 28.0 34.05 27.85 Q33.35 27.7 33.35 27.4 33.35 27.2 34.05 27.05 L35.8 26.8 37.6 27.05 37.85 27.1 M13.15 2.75 Q13.15 3.25 12.15 3.6 L9.9 3.95 7.6 3.6 Q6.65 3.25 6.65 2.75 6.65 2.25 7.6 1.9 L9.9 1.55 12.15 1.9 Q13.15 2.25 13.15 2.75 M9.95 4.65 Q11.2 4.9 11.2 5.2 11.2 5.5 9.95 5.75 L7.05 5.95 4.1 5.75 Q2.9 5.5 2.9 5.2 2.9 4.9 4.1 4.65 L7.05 4.45 9.95 4.65 M6.45 14.15 L8.55 14.0 10.65 14.15 Q11.55 14.3 11.55 14.55 L10.65 14.9 8.55 15.1 6.45 14.9 Q5.55 14.75 5.55 14.55 5.55 14.3 6.45 14.15 M16.95 27.1 Q17.85 27.25 17.85 27.5 L16.95 27.85 14.85 28.05 12.75 27.85 Q11.85 27.7 11.85 27.5 11.85 27.3 12.55 27.15 L11.95 27.15 9.85 26.95 Q8.95 26.8 8.95 26.6 8.95 26.35 9.85 26.2 L11.95 26.05 14.05 26.2 Q14.95 26.35 14.95 26.6 L14.05 26.95 13.95 27.0 14.85 26.95 16.95 27.1 M12.7 19.5 L12.6 19.75 12.35 19.75 10.55 19.65 12.35 19.5 12.7 19.5 M10.8 34.35 L10.15 34.2 9.85 33.85 Q9.85 33.6 10.15 33.45 L10.8 33.3 11.5 33.45 11.75 33.85 11.5 34.2 10.8 34.35 M18.3 32.1 L16.5 32.0 18.3 31.85 22.8 31.8 27.3 31.85 29.1 32.0 27.3 32.1 22.8 32.15 18.3 32.1 M4.3 34.45 L6.6 34.1 8.85 34.45 Q9.85 34.8 9.85 35.3 9.85 35.8 8.85 36.15 L6.6 36.5 4.3 36.15 Q3.35 35.8 3.35 35.3 3.35 34.8 4.3 34.45 M36.85 29.4 L36.15 29.65 34.4 29.7 32.65 29.65 31.95 29.4 32.65 29.25 34.4 29.2 36.15 29.25 36.85 29.4 M30.95 33.05 L32.75 33.35 30.95 33.6 26.45 33.75 21.95 33.6 20.15 33.35 21.95 33.05 26.45 32.95 30.95 33.05" fill="#769c1e" fill-rule="evenodd" stroke="none"/>
    <path d="M19.5 0.0 L19.5 0.5 Q20.2 5.35 19.85 10.0 20.2 12.65 21.15 14.95 22.55 18.35 26.8 19.5 L31.55 20.65 Q34.85 21.75 38.3 22.2 L38.35 22.2 38.8 22.3 39.5 23.0 39.9 23.7 40.0 23.85 40.0 30.5 Q38.8 29.45 38.15 27.7 L38.0 27.2 37.9 27.2 37.85 27.1 37.15 26.0 35.25 25.95 Q34.7 24.7 35.5 23.65 L35.35 23.45 34.7 23.45 34.05 23.9 30.15 23.8 Q29.55 23.75 29.05 23.35 L28.75 23.35 24.75 23.05 24.1 23.15 23.7 23.2 23.7 23.1 Q23.6 22.35 23.0 21.65 L22.7 21.6 22.55 21.75 22.4 21.85 22.4 21.9 22.3 21.95 22.3 22.1 22.25 22.15 Q22.1 22.25 22.1 22.0 L22.05 21.55 21.75 21.05 20.95 21.1 Q20.6 21.2 20.35 21.45 L19.95 21.45 20.0 21.15 20.1 20.8 Q20.25 20.35 19.95 20.2 L19.6 20.15 19.25 20.3 Q18.95 20.6 18.75 20.55 L18.85 20.3 19.05 19.95 Q19.2 19.65 19.0 19.25 L17.8 19.2 19.1 17.95 Q19.4 17.7 19.35 17.15 L19.2 16.9 15.85 16.6 13.45 16.2 Q15.35 15.9 16.95 14.9 17.3 14.7 17.05 14.45 16.8 13.8 17.5 13.0 L15.95 10.5 Q16.9 10.25 17.4 9.6 L16.4 9.05 16.6 5.75 16.3 5.1 Q16.8 3.85 16.2 3.0 L16.2 2.9 Q16.6 2.8 16.5 2.35 L15.75 1.45 16.6 0.8 16.6 0.65 16.45 0.0 19.5 0.0" fill="#5e820c" fill-rule="evenodd" stroke="none"/>
    <path d="M19.5 0.0 L20.4 0.0 20.4 0.6 Q20.4 3.7 20.55 4.55 L21.45 8.2 21.5 8.5 21.95 10.45 22.75 13.15 24.2 15.05 24.8 15.55 25.1 15.8 Q27.8 17.75 29.0 18.25 L30.7 18.85 Q33.35 19.65 36.9 19.9 L39.25 20.0 40.0 20.0 40.0 23.85 39.9 23.7 39.5 23.0 38.8 22.3 38.35 22.2 38.3 22.2 Q34.85 21.75 31.55 20.65 L26.8 19.5 Q22.55 18.35 21.15 14.95 20.2 12.65 19.85 10.0 20.2 5.35 19.5 0.5 L19.5 0.0" fill="#999933" fill-rule="evenodd" stroke="none"/>
  </g>
</svg>
