<?xml version="1.0" encoding="UTF-8" standalone="no"?>
<svg xmlns:ffdec="https://www.free-decompiler.com/flash" xmlns:xlink="http://www.w3.org/1999/xlink" ffdec:objectType="shape" height="15.8px" width="14.4px" xmlns="http://www.w3.org/2000/svg">
  <g transform="matrix(1.0, 0.0, 0.0, 1.0, 7.2, 7.9)">
    <path d="M-5.6 -5.35 L-4.1 -3.2 Q-2.2 -0.9 -0.5 -0.2 0.9 0.4 3.05 0.3 L5.45 0.05 Q4.55 1.2 4.0 2.25 L2.8 4.5 2.3 6.1 1.45 5.85 Q-0.05 5.5 -1.2 4.55 L-2.5 3.2 -3.55 0.65 -4.65 -2.3 Q-5.35 -4.65 -6.15 -5.45 L-5.6 -5.35" fill="#231a1a" fill-rule="evenodd" stroke="none"/>
    <path d="M-5.6 -5.35 L-6.15 -5.45 Q-5.35 -4.65 -4.65 -2.3 L-3.55 0.65 -2.5 3.2 -1.2 4.55 Q-0.05 5.5 1.45 5.85 L2.3 6.1 2.8 4.5 4.0 2.25 Q4.55 1.2 5.45 0.05 L3.05 0.3 Q0.9 0.4 -0.5 -0.2 -2.2 -0.9 -4.1 -3.2 L-5.6 -5.35 M-7.2 -6.5 L-5.5 -7.9 Q-0.6 -1.2 2.45 -0.9 L7.2 -1.2 4.9 2.2 Q3.05 4.95 2.8 7.9 L2.7 7.9 2.55 7.35 Q2.2 7.0 2.4 6.15 L1.8 6.2 0.15 6.35 0.2 6.3 -0.2 6.25 Q-2.15 6.0 -2.85 3.8 L-4.1 -0.25 -4.75 -1.7 Q-5.55 -3.65 -7.2 -6.5" fill="#000000" fill-rule="evenodd" stroke="none"/>
  </g>
</svg>
