<?xml version="1.0" encoding="UTF-8" standalone="no"?>
<svg xmlns:ffdec="https://www.free-decompiler.com/flash" xmlns:xlink="http://www.w3.org/1999/xlink" ffdec:objectType="shape" height="10.35px" width="12.95px" xmlns="http://www.w3.org/2000/svg">
  <g transform="matrix(1.0, 0.0, 0.0, 1.0, 6.5, 5.8)">
    <path d="M4.8 -5.15 L4.3 -4.65 6.4 -5.6 6.45 -5.3 Q6.35 -3.7 0.7 -1.5 L-5.7 0.95 -6.3 0.75 -5.6 0.2 -6.5 0.15 Q-6.3 -0.75 0.05 -3.75 3.95 -5.6 5.45 -5.8 L5.45 -5.75 4.8 -5.15" fill="#000000" fill-rule="evenodd" stroke="none"/>
    <path d="M1.5 4.55 Q-0.6 4.7 -2.35 3.85 -3.15 3.85 -3.8 2.8 L-4.3 1.55 Q-4.15 0.6 -3.7 0.3 L-3.3 1.15 Q-2.4 2.35 -0.4 2.35 2.4 2.35 4.05 0.4 L5.05 -1.15 Q5.35 -0.75 5.35 0.35 5.35 1.6 4.7 2.6 3.55 4.35 1.5 4.55" fill="#000000" fill-rule="evenodd" stroke="none"/>
  </g>
</svg>
