<?xml version="1.0" encoding="UTF-8" standalone="no"?>
<svg xmlns:ffdec="https://www.free-decompiler.com/flash" xmlns:xlink="http://www.w3.org/1999/xlink" ffdec:objectType="shape" height="12.65px" width="14.9px" xmlns="http://www.w3.org/2000/svg">
  <g transform="matrix(1.0, 0.0, 0.0, 1.0, 7.45, 6.3)">
    <path d="M-6.55 -0.85 L-6.6 -0.05 -6.6 1.15 -6.65 0.1 -6.55 -0.85 M-6.5 1.75 Q-6.15 2.9 -4.85 2.9 -0.25 2.9 2.35 0.95 4.3 -0.55 4.3 -2.0 L4.05 -3.3 3.8 -4.4 Q2.7 -5.5 -0.1 -5.5 L-1.7 -5.4 -1.2 -5.5 Q3.45 -6.25 5.45 -3.45 6.55 -1.9 6.55 -0.15 6.55 1.75 4.95 3.55 2.8 5.95 -1.05 5.95 -5.8 5.95 -6.5 1.75" fill="#fdbf82" fill-rule="evenodd" stroke="none"/>
    <path d="M-6.55 -0.85 L-6.4 -2.3 Q-5.95 -3.5 -3.85 -4.75 -3.05 -5.25 -1.7 -5.4 L-0.1 -5.5 Q2.7 -5.5 3.8 -4.4 L4.05 -3.3 4.3 -2.0 Q4.3 -0.55 2.35 0.95 -0.25 2.9 -4.85 2.9 -6.15 2.9 -6.5 1.75 L-6.6 1.45 -6.6 1.15 -6.6 -0.05 -6.55 -0.85 M-4.85 -1.85 L-4.7 -1.5 Q-4.4 -1.15 -3.7 -1.15 -2.5 -1.15 -1.7 -1.9 -1.05 -2.5 -1.05 -3.1 -1.05 -4.45 -2.95 -3.95 -4.85 -3.45 -4.85 -1.85" fill="#333333" fill-rule="evenodd" stroke="none"/>
    <path d="M-4.85 -1.85 Q-4.85 -3.45 -2.95 -3.95 -1.05 -4.45 -1.05 -3.1 -1.05 -2.5 -1.7 -1.9 -2.5 -1.15 -3.7 -1.15 -4.4 -1.15 -4.7 -1.5 L-4.85 -1.85" fill="#666666" fill-rule="evenodd" stroke="none"/>
    <path d="M3.4 -4.25 L-0.45 -4.8 Q-3.65 -4.8 -4.7 -3.7 -5.8 -2.65 -6.2 -1.05 L-6.4 -0.3 -6.2 1.8 -6.2 1.85 Q-5.4 2.65 -4.0 2.65 0.65 2.65 2.75 0.4 4.05 -1.0 4.05 -2.75 4.05 -3.7 3.4 -4.25 M4.45 -3.75 L4.75 -2.45 Q4.75 -0.45 3.0 1.15 0.6 3.3 -4.05 3.3 L-6.0 2.95 Q-5.0 5.1 -1.6 5.1 2.7 5.1 4.65 2.35 5.8 0.7 5.8 -0.95 5.8 -2.4 5.1 -3.2 L4.45 -3.75 M6.45 -4.2 Q7.45 -2.75 7.45 -0.9 7.45 1.15 6.05 3.1 3.7 6.35 -1.55 6.35 -5.3 6.35 -6.75 3.8 L-7.45 1.1 -7.3 0.35 -7.05 0.05 -7.05 -0.8 Q-6.95 -2.9 -4.95 -4.6 -2.95 -6.3 0.65 -6.25 4.7 -6.6 6.45 -4.2" fill="#000000" fill-rule="evenodd" stroke="none"/>
  </g>
</svg>
