<?xml version="1.0" encoding="UTF-8" standalone="no"?>
<svg xmlns:ffdec="https://www.free-decompiler.com/flash" xmlns:xlink="http://www.w3.org/1999/xlink" ffdec:objectType="shape" height="16.85px" width="20.7px" xmlns="http://www.w3.org/2000/svg">
  <g transform="matrix(1.0, 0.0, 0.0, 1.0, 10.05, 8.4)">
    <path d="M7.3 -2.8 Q9.9 0.05 9.9 3.05 9.9 5.75 8.15 6.3 3.3 8.1 0.5 8.1 L-3.1 7.9 Q-6.5 7.45 -8.0 6.6 -9.2 5.85 -9.2 3.9 L-8.75 0.7 -8.05 -0.85 -6.95 -2.35 -3.6 -6.65 Q-2.1 -8.2 0.1 -8.2 2.65 -8.2 4.9 -5.65 L7.3 -2.8" fill="#c9c7b6" fill-rule="evenodd" stroke="none"/>
    <path d="M1.5 -7.2 L2.35 -6.05 Q2.75 -4.9 3.7 -4.35 L5.1 -2.45 6.0 -0.65 5.7 0.05 6.2 0.85 Q6.2 1.4 5.65 1.6 L5.85 2.35 5.65 3.0 Q5.4 3.35 5.4 3.85 5.6 5.0 4.3 5.0 L3.8 4.9 3.55 4.75 2.8 5.25 1.85 5.35 -0.5 5.7 -1.25 5.6 -2.65 5.8 -5.3 5.35 -5.9 4.7 -6.8 4.15 -7.35 3.5 -7.05 3.0 -7.45 2.6 -7.5 2.25 Q-7.5 1.65 -6.8 1.05 L-7.05 0.5 -6.9 -0.25 -6.2 -1.2 -6.45 -1.8 -6.15 -2.75 -5.4 -3.6 Q-4.65 -3.95 -4.35 -4.45 L-3.6 -5.3 -3.75 -5.5 -2.35 -6.75 Q-0.85 -7.6 0.05 -7.6 1.1 -7.6 1.5 -7.2" fill="#ffffff" fill-rule="evenodd" stroke="none"/>
    <path d="M4.4 3.25 Q4.4 6.85 3.6 7.55 2.9 8.1 -0.8 8.1 L-3.45 7.65 Q-3.95 7.25 -4.6 5.35 L-5.6 2.45 Q-5.6 1.9 -4.8 1.6 L0.55 1.5 3.8 1.35 Q4.6 1.35 4.4 3.25" fill="#003333" fill-rule="evenodd" stroke="none"/>
    <path d="M-2.55 2.7 L-2.75 2.95 Q-2.9 3.1 -3.15 3.1 L-3.6 2.8 Q-3.6 2.35 -3.1 2.35 -2.55 2.35 -2.55 2.7" fill="#046233" fill-rule="evenodd" stroke="none"/>
    <path d="M-2.1 3.7 L-2.1 3.8 -2.4 4.0 -2.75 3.8 -2.35 3.55 -2.1 3.7" fill="#046233" fill-rule="evenodd" stroke="none"/>
    <path d="M-1.25 5.45 L-1.3 5.55 -1.5 5.55 -1.55 5.5 -1.35 5.35 -1.25 5.45" fill="#046233" fill-rule="evenodd" stroke="none"/>
    <path d="M-0.75 4.15 L-0.9 4.2 -0.95 3.9 -0.85 3.9 -0.75 4.15" fill="#046233" fill-rule="evenodd" stroke="none"/>
    <path d="M0.75 3.15 L0.8 3.45 Q0.8 4.15 0.25 4.15 -0.2 4.15 -0.2 3.55 L-0.05 3.0 0.15 2.8 0.75 3.15" fill="#046233" fill-rule="evenodd" stroke="none"/>
    <path d="M1.2 5.55 L1.15 5.75 0.9 5.75 0.8 5.55 Q0.8 5.35 1.15 5.45 L1.2 5.55" fill="#046233" fill-rule="evenodd" stroke="none"/>
    <path d="M-1.7 4.5 L-1.4 4.75 -1.4 5.05 -2.05 5.05 -2.55 4.85 -2.4 4.5 -2.05 4.5 -1.7 4.5" fill="#046233" fill-rule="evenodd" stroke="none"/>
    <path d="M-1.35 3.4 L-1.65 3.7 -2.05 3.7 -2.1 3.5 Q-2.1 3.15 -1.4 3.25 L-1.35 3.4" fill="#046233" fill-rule="evenodd" stroke="none"/>
    <path d="M-0.75 3.0 L-1.6 2.4 -1.55 2.25 Q-1.25 2.1 -0.9 2.4 -0.5 2.65 -0.5 2.95 L-0.75 3.0" fill="#046233" fill-rule="evenodd" stroke="none"/>
    <path d="M-1.8 2.3 L-2.0 2.6 -2.15 2.6 -2.25 2.4 -2.0 2.1 -1.8 2.3" fill="#046233" fill-rule="evenodd" stroke="none"/>
    <path d="M2.25 5.15 L2.1 5.15 2.05 5.1 2.05 4.85 2.25 4.85 2.25 5.15" fill="#046233" fill-rule="evenodd" stroke="none"/>
    <path d="M0.35 4.6 L0.25 4.85 0.2 4.85 0.15 4.55 0.3 4.55 0.35 4.6" fill="#046233" fill-rule="evenodd" stroke="none"/>
    <path d="M-0.05 6.3 L-0.05 6.4 -0.25 6.4 -0.25 6.25 -0.2 6.25 -0.05 6.3" fill="#046233" fill-rule="evenodd" stroke="none"/>
    <path d="M-2.65 5.45 L-3.15 5.0 Q-3.15 4.55 -2.7 4.55 -2.25 4.55 -2.25 5.0 -2.25 5.45 -2.65 5.45" fill="#046233" fill-rule="evenodd" stroke="none"/>
    <path d="M-3.55 4.15 L-3.6 4.2 -3.8 4.1 -3.8 3.95 -3.65 3.95 -3.55 4.15" fill="#046233" fill-rule="evenodd" stroke="none"/>
    <path d="M-1.35 6.05 L-1.65 6.15 Q-2.15 6.15 -2.05 5.9 L-1.95 5.55 Q-1.55 5.55 -1.35 5.9 L-1.35 6.05" fill="#046233" fill-rule="evenodd" stroke="none"/>
    <path d="M-3.9 3.2 L-4.05 3.25 Q-4.65 3.25 -4.55 2.75 L-4.05 2.3 Q-3.6 2.2 -3.6 2.4 -3.6 2.8 -3.9 3.2" fill="#046233" fill-rule="evenodd" stroke="none"/>
    <path d="M-3.1 4.15 L-3.4 4.15 -3.5 3.8 -3.1 3.8 -3.1 4.15" fill="#046233" fill-rule="evenodd" stroke="none"/>
    <path d="M-0.55 4.85 L-0.6 5.0 -0.95 4.85 -0.8 4.6 Q-0.55 4.6 -0.55 4.85" fill="#046233" fill-rule="evenodd" stroke="none"/>
    <path d="M0.35 7.15 Q-0.15 7.15 -0.15 6.65 -0.15 6.2 0.3 6.2 0.75 6.2 0.75 6.65 0.75 7.15 0.35 7.15" fill="#046233" fill-rule="evenodd" stroke="none"/>
    <path d="M1.3 4.4 L1.15 4.5 0.75 4.15 0.75 4.0 Q1.35 4.0 1.35 4.25 L1.3 4.4" fill="#046233" fill-rule="evenodd" stroke="none"/>
    <path d="M1.15 2.95 L1.0 3.0 1.05 2.8 1.15 2.8 1.15 2.95" fill="#046233" fill-rule="evenodd" stroke="none"/>
    <path d="M0.5 2.6 Q0.05 2.6 0.05 2.2 0.05 1.8 0.45 1.8 0.85 1.8 0.85 2.2 0.85 2.6 0.5 2.6" fill="#046233" fill-rule="evenodd" stroke="none"/>
    <path d="M1.4 -8.15 L0.85 -8.2 1.25 -8.2 1.4 -8.15 M10.65 3.05 Q10.65 3.95 10.05 5.1 9.5 6.25 8.4 6.85 L6.8 7.45 5.75 7.75 2.65 8.15 -1.2 8.45 -4.9 8.15 -8.0 7.65 -9.35 6.4 Q-10.15 5.35 -10.05 3.9 -9.95 2.4 -9.5 1.15 L-7.7 -2.3 Q-6.35 -4.55 -4.2 -6.6 -2.0 -8.75 0.05 -8.3 -2.45 -8.15 -5.2 -4.55 -8.05 -1.0 -8.6 0.65 L-9.1 2.6 -9.1 2.95 Q-8.95 5.5 -7.75 6.4 -6.6 7.25 -3.5 7.65 L1.55 7.8 4.85 7.3 7.85 6.2 Q9.6 5.4 9.6 3.2 9.1 1.7 9.1 1.15 L9.15 1.0 Q9.25 0.8 9.8 0.7 10.3 0.5 10.65 3.05" fill="#000000" fill-rule="evenodd" stroke="none"/>
    <path d="M6.4 -4.9 Q9.2 -2.0 9.3 -0.05 L9.2 0.15 Q9.3 0.45 7.35 -2.2 L2.75 -7.6 2.8 -7.6 Q3.55 -7.8 6.4 -4.9" fill="#000000" fill-rule="evenodd" stroke="none"/>
    <path d="M-4.8 1.65 L-4.55 1.95 -5.2 2.9 Q-5.2 4.35 -3.4 7.6 L-3.4 7.95 -3.55 8.0 -3.85 7.95 Q-5.85 3.05 -5.85 1.75 -5.85 1.3 -5.2 1.3 L-4.8 1.65" fill="#000000" fill-rule="evenodd" stroke="none"/>
    <path d="M3.25 1.5 L-1.15 1.75 -3.1 1.6 4.15 1.25 Q4.85 1.25 4.65 2.15 L4.6 3.5 Q4.45 7.65 3.65 7.65 3.4 7.65 3.4 7.5 L3.4 7.35 3.7 7.15 3.95 6.55 4.1 5.5 4.25 3.45 4.2 1.6 3.8 1.5 3.25 1.5" fill="#000000" fill-rule="evenodd" stroke="none"/>
    <path d="M6.8 4.9 Q6.8 6.05 6.2 6.05 L6.0 5.9 6.0 5.75 6.2 4.65 6.2 4.1 Q6.2 3.75 6.5 3.6 L6.8 4.9" fill="#000000" fill-rule="evenodd" stroke="none"/>
    <path d="M8.3 4.25 L8.05 4.7 7.85 4.45 Q7.85 4.0 8.25 4.1 L8.3 4.25" fill="#000000" fill-rule="evenodd" stroke="none"/>
    <path d="M-5.2 -1.2 L-5.0 -0.4 -5.1 -0.1 Q-5.75 0.1 -5.75 -0.5 -5.75 -1.4 -4.6 -3.05 -3.6 -4.7 -2.65 -5.2 -5.2 -2.25 -5.2 -1.2" fill="#000000" fill-rule="evenodd" stroke="none"/>
    <path d="M-1.85 -2.15 L-2.05 -1.4 -2.65 -0.7 Q-3.05 -0.9 -3.05 -1.3 -3.05 -2.15 -1.85 -2.85 L-1.85 -2.15" fill="#000000" fill-rule="evenodd" stroke="none"/>
    <path d="M0.85 -1.7 L0.85 -1.1 0.55 -0.9 0.1 -1.5 0.55 -2.05 0.85 -1.7" fill="#000000" fill-rule="evenodd" stroke="none"/>
  </g>
</svg>
