<?xml version="1.0" encoding="UTF-8" standalone="no"?>
<svg xmlns:ffdec="https://www.free-decompiler.com/flash" xmlns:xlink="http://www.w3.org/1999/xlink" ffdec:objectType="shape" height="32.55px" width="35.3px" xmlns="http://www.w3.org/2000/svg">
  <g transform="matrix(1.0, 0.0, 0.0, 1.0, -1.4, -4.2)">
    <path d="M23.65 6.85 L23.8 7.1 Q24.1 6.9 24.45 6.65 25.3 6.25 26.4 6.3 L26.45 6.3 26.8 6.65 27.4 7.3 Q27.35 10.3 24.8 11.85 26.0 11.15 27.75 11.35 L27.95 11.35 28.3 11.95 28.35 12.55 28.1 13.15 28.45 12.6 29.15 12.15 31.15 11.95 31.4 12.4 31.55 13.15 30.7 14.3 30.35 14.85 28.75 15.45 30.6 15.65 31.4 16.05 31.75 17.05 30.05 17.65 29.15 17.9 Q31.5 17.95 33.75 20.25 36.2 22.75 33.55 24.85 L32.4 24.95 32.15 24.7 31.8 24.05 Q30.9 26.0 28.45 25.35 L30.0 26.05 30.75 26.55 Q31.45 27.8 31.5 29.35 L31.35 30.2 30.95 30.6 30.7 31.1 30.15 31.5 29.15 31.6 Q27.5 30.45 27.1 28.75 L27.05 29.45 26.6 30.6 Q25.25 33.6 21.95 33.2 20.45 32.9 20.3 31.4 20.4 31.05 20.9 30.8 L21.5 30.5 Q19.4 31.4 18.1 29.2 L17.75 28.4 17.55 28.45 17.25 28.8 17.15 28.95 17.05 31.7 Q15.2 35.2 12.05 34.0 11.25 33.6 11.55 32.55 L11.7 32.1 11.3 32.1 11.0 32.3 9.3 32.4 8.9 32.1 8.6 31.5 Q9.65 29.7 11.6 28.75 L10.8 28.75 10.6 28.3 10.4 27.55 10.4 27.45 10.1 28.0 9.2 28.95 8.35 29.2 Q6.4 28.85 5.5 27.25 L5.15 26.75 Q6.9 23.35 9.8 25.25 L9.1 24.0 9.1 23.45 Q9.7 22.65 10.65 22.4 L11.1 22.05 9.0 22.25 Q8.7 21.95 8.15 21.8 L7.2 21.6 4.45 19.5 Q4.6 18.75 5.3 18.2 5.4 18.05 5.65 18.0 6.25 18.1 6.8 18.35 4.35 15.5 7.35 13.1 L8.55 13.0 Q10.15 13.85 11.0 15.05 L10.9 14.25 Q11.3 13.35 12.3 13.35 L12.95 13.25 Q10.75 13.5 8.9 11.0 6.75 8.1 9.75 6.25 10.5 5.7 11.3 6.1 13.65 7.3 13.95 9.7 L14.0 9.75 14.15 9.95 14.35 10.3 Q14.9 8.9 16.3 9.0 L15.85 9.0 15.55 8.8 15.25 8.3 16.15 6.3 16.5 5.95 16.65 5.8 18.35 5.7 18.9 6.5 Q19.65 8.45 19.25 9.15 L18.65 9.8 Q18.45 10.0 18.65 9.95 L18.65 9.9 18.9 9.7 19.1 9.7 19.45 9.35 Q19.95 8.9 20.5 9.35 L20.65 10.1 20.7 10.15 Q20.7 9.8 20.85 9.5 L22.0 7.4 22.6 7.1 22.6 7.0 23.1 6.8 23.4 6.8 23.5 7.5 Q23.45 7.15 23.65 6.85 M10.1 25.4 L9.95 25.3 9.8 25.25 10.1 25.4 10.1 25.5 Q10.15 25.45 10.2 25.55 L10.1 25.45 10.1 25.4 M11.85 31.85 L11.8 32.0 11.7 32.1 12.15 31.75 12.2 31.7 12.15 31.75 11.85 31.85 M10.65 26.95 L10.65 27.0 10.7 26.85 Q10.6 26.85 10.65 26.95 M6.8 18.35 L7.0 18.6 7.55 18.9 7.35 18.7 6.8 18.35 M16.3 9.0 L16.65 9.1 17.45 9.3 16.85 9.1 16.3 9.0" fill="#ffffff" fill-rule="evenodd" stroke="none"/>
    <path d="M24.45 6.65 L26.35 5.15 Q27.6 4.2 29.45 4.2 30.8 4.2 31.0 5.3 L30.95 6.45 Q30.95 7.65 29.5 10.85 L29.5 10.9 Q31.0 10.15 32.55 10.15 34.15 10.15 34.1 11.8 34.1 13.45 31.6 15.15 L31.55 15.25 Q32.5 15.25 33.7 15.75 34.9 16.3 34.9 16.75 L34.4 17.25 Q33.25 17.75 32.55 18.2 36.7 20.5 36.7 24.6 L36.65 26.1 Q36.2 27.2 34.2 27.25 33.2 27.25 32.55 26.75 32.15 26.45 32.15 26.65 32.7 28.85 32.75 30.7 L32.75 32.6 Q32.5 33.95 31.35 34.0 29.3 33.95 28.35 32.95 L27.4 31.4 27.3 34.2 Q26.75 36.35 24.3 36.35 17.9 36.35 18.25 31.2 L18.15 31.1 Q17.7 31.65 16.2 34.35 14.45 36.75 12.2 36.75 10.25 36.75 10.15 35.25 L10.5 32.8 8.75 33.4 Q7.65 33.4 7.95 32.45 7.95 31.7 8.35 31.1 L9.3 29.7 9.3 29.55 8.65 30.0 6.4 30.2 Q3.35 30.2 3.35 27.2 3.35 25.8 4.05 25.15 4.65 24.6 7.35 23.4 L7.55 23.25 Q5.55 22.5 3.45 20.25 1.35 18.05 1.4 16.85 1.35 16.3 2.5 16.3 3.8 16.3 5.55 17.1 L4.55 13.65 Q4.55 11.75 6.6 11.75 L8.45 12.05 Q7.1 10.0 7.15 7.05 7.1 4.4 9.3 4.4 11.35 4.4 13.0 6.0 L14.25 7.35 15.0 8.3 15.0 8.0 Q15.0 6.85 15.25 6.1 15.8 4.4 17.65 4.4 18.7 4.4 19.55 6.1 20.2 7.5 20.25 8.4 L20.3 8.6 20.95 7.45 Q21.75 6.4 22.8 6.4 23.3 6.4 23.65 6.85 23.45 7.15 23.5 7.5 L23.4 6.8 23.1 6.8 22.6 7.0 22.6 7.1 22.0 7.4 20.85 9.5 Q20.7 9.8 20.7 10.15 L20.65 10.1 20.5 9.35 Q19.95 8.9 19.45 9.35 L19.1 9.7 18.9 9.7 18.65 9.9 18.65 9.95 Q18.45 10.0 18.65 9.8 L19.25 9.15 Q19.65 8.45 18.9 6.5 L18.35 5.7 16.65 5.8 16.5 5.95 16.15 6.3 15.25 8.3 15.55 8.8 15.85 9.0 16.3 9.0 Q14.9 8.9 14.35 10.3 L14.15 9.95 14.0 9.75 13.95 9.7 Q13.65 7.3 11.3 6.1 10.5 5.7 9.75 6.25 6.75 8.1 8.9 11.0 10.75 13.5 12.95 13.25 L12.3 13.35 Q11.3 13.35 10.9 14.25 L11.0 15.05 Q10.15 13.85 8.55 13.0 L7.35 13.1 Q4.35 15.5 6.8 18.35 6.25 18.1 5.65 18.0 5.4 18.05 5.3 18.2 4.6 18.75 4.45 19.5 L7.2 21.6 8.15 21.8 Q8.7 21.95 9.0 22.25 L11.1 22.05 10.65 22.4 Q9.7 22.65 9.1 23.45 L9.1 24.0 9.8 25.25 Q6.9 23.35 5.15 26.75 L5.5 27.25 Q6.4 28.85 8.35 29.2 L9.2 28.95 10.1 28.0 10.4 27.45 10.4 27.55 10.6 28.3 10.8 28.75 11.6 28.75 Q9.65 29.7 8.6 31.5 L8.9 32.1 9.3 32.4 11.0 32.3 11.3 32.1 11.7 32.1 11.55 32.55 Q11.25 33.6 12.05 34.0 15.2 35.2 17.05 31.7 L17.15 28.95 17.25 28.8 17.55 28.45 17.75 28.4 18.1 29.2 Q19.4 31.4 21.5 30.5 L20.9 30.8 Q20.4 31.05 20.3 31.4 20.45 32.9 21.95 33.2 25.25 33.6 26.6 30.6 L27.05 29.45 27.1 28.75 Q27.5 30.45 29.15 31.6 L30.15 31.5 30.7 31.1 30.95 30.6 31.35 30.2 31.5 29.35 Q31.45 27.8 30.75 26.55 L30.0 26.05 28.45 25.35 Q30.9 26.0 31.8 24.05 L32.15 24.7 32.4 24.95 33.55 24.85 Q36.2 22.75 33.75 20.25 31.5 17.95 29.15 17.9 L30.05 17.65 31.75 17.05 31.4 16.05 30.6 15.65 28.75 15.45 30.35 14.85 30.7 14.3 31.55 13.15 31.4 12.4 31.15 11.95 29.15 12.15 28.45 12.6 28.1 13.15 28.35 12.55 28.3 11.95 27.95 11.35 27.75 11.35 Q26.0 11.15 24.8 11.85 27.35 10.3 27.4 7.3 L26.8 6.65 26.45 6.3 26.4 6.3 Q25.3 6.25 24.45 6.65 M16.3 9.0 L16.85 9.1 17.45 9.3 16.65 9.1 16.3 9.0 M6.8 18.35 L7.35 18.7 7.55 18.9 7.0 18.6 6.8 18.35 M10.65 26.95 Q10.6 26.85 10.7 26.85 L10.65 27.0 10.65 26.95 M11.85 31.85 L12.15 31.75 12.2 31.7 12.15 31.75 11.7 32.1 11.8 32.0 11.85 31.85 M10.1 25.4 L10.1 25.45 10.2 25.55 Q10.15 25.45 10.1 25.5 L10.1 25.4 9.8 25.25 9.95 25.3 10.1 25.4" fill="#cccccc" fill-rule="evenodd" stroke="none"/>
  </g>
</svg>
