<?xml version="1.0" encoding="UTF-8" standalone="no"?>
<svg xmlns:ffdec="https://www.free-decompiler.com/flash" xmlns:xlink="http://www.w3.org/1999/xlink" ffdec:objectType="shape" height="34.85px" width="37.4px" xmlns="http://www.w3.org/2000/svg">
  <g transform="matrix(1.0, 0.0, 0.0, 1.0, -0.85, -2.75)">
    <path d="M31.45 7.35 L31.9 7.75 32.0 7.7 32.1 7.7 32.15 7.7 32.05 7.8 Q31.6 7.9 31.3 8.2 L31.25 8.25 31.15 8.55 Q31.15 8.9 31.3 9.05 L32.05 8.8 32.8 8.4 32.95 8.1 33.05 8.0 33.05 8.25 33.3 8.6 33.4 8.65 33.6 8.6 33.75 8.55 33.55 8.9 Q33.25 9.4 33.55 9.8 L34.35 9.5 34.7 8.75 34.15 7.75 34.25 7.8 35.0 8.3 35.35 8.3 Q35.6 8.3 35.75 8.1 L35.9 7.75 35.9 8.2 Q35.95 8.7 36.3 9.1 L37.05 9.2 37.35 9.1 37.5 8.85 37.4 8.2 Q37.05 6.65 35.75 6.8 L36.1 6.5 36.35 6.45 36.5 6.2 36.3 5.95 36.05 6.0 35.65 6.05 35.3 6.2 35.3 6.15 35.4 6.05 35.5 6.05 35.7 5.9 36.1 5.15 36.05 4.85 35.65 4.55 35.4 4.65 35.0 5.15 35.0 5.95 35.1 6.85 35.0 6.65 34.45 5.85 33.55 5.95 33.45 6.1 33.5 5.65 Q33.75 3.65 32.35 2.75 33.55 2.9 34.4 5.15 L35.0 4.55 Q35.45 4.15 36.05 4.15 36.7 4.15 36.65 4.7 L36.15 5.6 36.1 5.65 36.75 5.55 Q37.3 5.55 37.25 5.8 L36.65 6.45 38.0 7.5 38.25 8.5 Q38.25 9.8 36.95 9.8 36.45 9.8 35.9 9.3 L35.15 8.6 34.3 10.1 33.3 11.1 Q32.95 11.1 32.8 10.45 L32.75 9.85 32.95 8.7 32.95 8.65 32.35 9.1 31.4 9.4 Q30.85 9.4 30.65 9.05 L30.55 8.65 Q30.55 8.1 31.45 7.4 L31.45 7.35 Q30.8 7.25 30.8 6.8 30.8 6.7 30.95 6.55 L30.4 5.7 Q30.4 5.4 31.1 5.3 L31.35 5.55 31.25 5.6 31.05 5.65 31.0 5.65 30.8 5.75 30.85 6.2 30.9 6.25 31.15 6.4 31.45 6.5 31.4 6.5 31.3 6.5 Q31.2 6.6 31.25 6.75 L31.3 6.95 31.45 7.35 M31.6 2.9 L31.65 5.3 Q31.3 4.15 31.5 3.1 L31.6 2.9 M33.4 6.15 L33.45 6.1 33.4 6.2 33.4 6.15 M33.05 8.0 L33.1 7.8 33.1 7.85 33.05 8.0" fill="#cccccc" fill-rule="evenodd" stroke="none"/>
    <path d="M32.35 2.75 Q33.75 3.65 33.5 5.65 L33.45 6.1 33.55 5.95 34.45 5.85 35.0 6.65 35.1 6.85 35.0 5.95 35.0 5.15 35.4 4.65 35.65 4.55 36.05 4.85 36.1 5.15 35.7 5.9 35.5 6.05 35.4 6.05 35.3 6.15 35.3 6.2 35.65 6.05 36.05 6.0 36.3 5.95 36.5 6.2 36.35 6.45 36.1 6.5 35.75 6.8 Q37.05 6.65 37.4 8.2 L37.5 8.85 37.35 9.1 37.05 9.2 36.3 9.1 Q35.95 8.7 35.9 8.2 L35.9 7.75 35.75 8.1 Q35.6 8.3 35.35 8.3 L35.0 8.3 34.25 7.8 34.15 7.75 34.7 8.75 34.35 9.5 33.55 9.8 Q33.25 9.4 33.55 8.9 L33.75 8.55 33.6 8.6 33.4 8.65 33.3 8.6 33.05 8.25 33.05 8.0 32.95 8.1 32.8 8.4 32.05 8.8 31.3 9.05 Q31.15 8.9 31.15 8.55 L31.25 8.25 31.3 8.2 Q31.6 7.9 32.05 7.8 L32.15 7.7 32.1 7.7 32.0 7.7 31.9 7.75 31.45 7.35 31.3 6.95 31.25 6.75 Q31.2 6.6 31.3 6.5 L31.4 6.5 31.45 6.5 31.15 6.4 30.9 6.25 30.85 6.2 30.8 5.75 31.0 5.65 31.05 5.65 31.25 5.6 31.35 5.55 31.1 5.3 31.6 5.3 31.4 3.6 31.45 3.15 31.5 3.1 Q31.3 4.15 31.65 5.3 L31.6 2.9 Q31.8 2.75 32.1 2.75 L32.35 2.75 M33.4 6.15 L33.4 6.2 33.45 6.1 33.4 6.15 M33.05 8.0 L33.1 7.85 33.1 7.8 33.05 8.0" fill="#ffffff" fill-rule="evenodd" stroke="none"/>
    <path d="M4.65 10.9 L4.75 11.1 4.7 11.05 4.55 11.0 4.45 11.0 4.25 11.1 3.95 11.6 4.0 11.95 4.2 12.35 3.8 12.2 3.6 12.35 Q3.55 12.3 3.45 12.4 L3.5 12.6 3.6 12.9 4.15 13.15 5.05 13.25 Q4.35 13.4 4.1 13.95 4.25 14.15 4.6 14.15 5.35 14.15 5.75 13.65 L5.75 13.6 5.7 13.4 5.65 13.25 5.75 13.4 Q5.85 13.55 6.0 13.5 L6.1 13.45 6.15 13.45 6.2 13.75 6.2 13.8 6.3 13.85 6.35 13.85 6.8 13.4 Q6.9 13.0 6.65 12.65 L6.35 12.35 Q7.05 12.3 7.2 11.65 L7.25 11.5 6.9 11.05 6.75 11.0 Q6.35 11.1 6.05 11.35 L5.95 11.8 5.95 11.9 5.8 11.65 5.5 11.7 5.15 11.75 Q5.85 11.6 5.75 11.0 L5.9 11.15 6.65 10.75 Q7.65 10.75 7.75 11.85 7.75 12.25 7.15 12.65 L7.15 13.65 Q6.95 14.45 6.4 14.45 L6.0 14.2 5.8 14.0 3.9 14.55 Q3.35 14.55 3.35 14.15 3.55 13.65 4.1 13.4 2.7 13.6 2.85 12.95 2.85 12.0 3.8 12.0 L3.75 11.45 Q3.75 10.75 4.2 10.75 L4.65 10.9 M6.25 13.3 L6.15 13.45 6.25 13.25 6.25 13.3" fill="#cccccc" fill-rule="evenodd" stroke="none"/>
    <path d="M5.75 11.0 Q5.85 11.6 5.15 11.75 L5.5 11.7 5.8 11.65 5.95 11.9 5.95 11.8 6.05 11.35 Q6.35 11.1 6.75 11.0 L6.9 11.05 7.25 11.5 7.2 11.65 Q7.05 12.3 6.35 12.35 L6.65 12.65 Q6.9 13.0 6.8 13.4 L6.35 13.85 6.3 13.85 6.2 13.8 6.2 13.75 6.15 13.45 6.1 13.45 6.0 13.5 Q5.85 13.55 5.75 13.4 L5.65 13.25 5.7 13.4 5.75 13.6 5.75 13.65 Q5.35 14.15 4.6 14.15 4.25 14.15 4.1 13.95 4.35 13.4 5.05 13.25 L4.15 13.15 3.6 12.9 3.5 12.6 3.45 12.4 Q3.55 12.3 3.6 12.35 L3.8 12.2 4.2 12.35 4.0 11.95 3.95 11.6 4.25 11.1 4.45 11.0 4.55 11.0 4.7 11.05 4.75 11.1 4.65 10.9 4.85 11.1 5.35 10.9 5.75 11.0 M6.25 13.3 L6.25 13.25 6.15 13.45 6.25 13.3" fill="#ffffff" fill-rule="evenodd" stroke="none"/>
    <path d="M1.4 35.25 L1.5 35.25 Q1.75 35.35 1.95 35.6 L1.85 35.55 1.55 35.5 Q1.2 35.5 1.0 35.8 L1.2 36.2 2.05 36.45 2.45 36.4 2.4 36.4 2.25 36.55 2.3 36.75 2.45 36.95 2.6 37.0 3.3 36.95 3.6 36.55 3.55 36.4 3.5 36.3 3.35 36.15 4.15 36.15 4.15 36.2 4.1 36.35 4.2 36.75 4.5 36.8 4.8 36.55 4.8 36.35 4.7 36.1 4.6 35.8 4.95 35.8 5.55 35.35 5.55 35.3 5.55 35.15 5.5 35.0 5.2 34.9 4.85 35.0 4.6 35.25 4.55 34.9 4.45 34.85 4.2 34.85 4.0 34.95 4.55 34.4 Q4.75 34.0 4.55 33.65 L4.4 33.55 3.45 33.7 Q4.25 33.05 5.1 33.05 5.7 33.05 5.65 33.55 L4.9 34.75 4.9 34.8 5.65 34.6 Q6.1 34.6 6.1 34.95 6.1 35.7 4.9 36.1 L5.25 36.6 5.05 37.05 Q4.8 37.4 4.45 37.4 3.95 37.4 3.85 37.1 L3.8 36.7 Q3.3 37.5 2.25 37.5 1.85 37.5 1.85 37.15 L2.0 36.75 Q0.85 36.85 0.85 35.85 0.85 35.5 1.3 35.25 L1.35 35.25 1.4 35.25 M2.8 34.3 L2.8 34.35 2.4 34.9 2.5 34.65 2.8 34.3 M4.6 35.25 L4.5 35.45 4.5 35.5 4.6 35.25 M2.45 36.4 L2.45 36.35 2.5 36.35 2.45 36.4" fill="#cccccc" fill-rule="evenodd" stroke="none"/>
    <path d="M3.45 33.7 L4.4 33.55 4.55 33.65 Q4.75 34.0 4.55 34.4 L4.0 34.95 4.2 34.85 4.45 34.85 4.55 34.9 4.6 35.25 4.85 35.0 5.2 34.9 5.5 35.0 5.55 35.15 5.55 35.3 5.55 35.35 4.95 35.8 4.6 35.8 4.7 36.1 4.8 36.35 4.8 36.55 4.5 36.8 4.2 36.75 4.1 36.35 4.15 36.2 4.15 36.15 3.35 36.15 3.5 36.3 3.55 36.4 3.6 36.55 3.3 36.95 2.6 37.0 2.45 36.95 2.3 36.75 2.25 36.55 2.4 36.4 2.45 36.4 2.05 36.45 1.2 36.2 1.0 35.8 Q1.2 35.5 1.55 35.5 L1.85 35.55 1.95 35.6 Q1.75 35.35 1.5 35.25 L1.4 35.25 1.45 35.25 Q1.45 34.9 1.75 34.75 L1.95 34.7 Q2.25 34.7 2.35 34.85 L2.5 34.65 2.4 34.9 2.8 34.35 2.8 34.3 3.45 33.7 M4.6 35.25 L4.5 35.5 4.5 35.45 4.6 35.25 M2.45 36.4 L2.5 36.35 2.45 36.35 2.45 36.4" fill="#ffffff" fill-rule="evenodd" stroke="none"/>
    <path d="M28.9 33.25 L28.95 33.15 28.3 31.35 Q28.3 30.9 28.7 30.9 L28.85 30.9 Q29.6 31.65 30.0 32.75 L30.15 33.1 30.25 32.9 30.6 32.6 30.9 32.55 31.1 32.6 31.35 32.8 31.45 32.85 31.3 32.6 31.0 32.05 31.0 31.85 31.15 31.65 Q31.2 31.55 31.4 31.5 L31.6 31.45 31.9 31.6 32.05 32.05 Q32.15 32.45 31.9 32.75 L31.85 32.8 33.6 32.75 33.3 33.5 Q32.8 34.0 32.2 33.85 L32.15 33.75 32.05 33.75 32.2 33.85 32.3 33.9 32.4 34.05 32.55 34.25 32.55 34.35 32.35 34.6 32.15 34.7 32.1 34.75 32.2 34.7 32.45 34.65 32.85 34.5 32.95 34.5 Q33.1 34.55 33.25 34.7 L33.55 35.15 33.55 35.4 32.25 35.35 32.3 35.7 32.15 36.15 31.95 36.3 31.65 36.55 31.45 36.6 Q30.9 36.5 30.8 35.9 L30.75 35.25 30.9 35.05 30.8 35.1 30.75 35.1 30.65 35.15 30.6 35.15 30.45 35.15 30.3 35.1 30.1 34.95 30.05 34.95 30.0 34.85 30.0 34.8 29.95 34.7 29.9 34.7 29.95 34.85 30.0 34.95 30.15 35.15 30.25 35.3 30.2 35.4 30.1 35.6 29.8 35.8 29.75 35.85 28.95 35.9 Q28.55 35.65 28.5 35.2 28.4 34.0 29.5 33.6 L29.6 33.65 29.3 33.35 28.9 33.25" fill="#ffffff" fill-rule="evenodd" stroke="none"/>
    <path d="M28.85 30.9 Q29.5 30.95 30.55 32.2 L30.65 31.7 Q30.85 31.3 31.45 31.3 32.3 31.3 32.3 32.45 L34.5 32.05 Q35.15 32.05 35.15 32.45 35.15 33.25 32.95 34.35 34.25 34.8 34.25 35.35 34.25 36.2 33.4 36.2 L32.5 35.9 Q32.5 37.6 31.5 37.6 30.95 37.6 30.75 36.8 L30.5 35.65 Q29.75 36.55 28.85 36.55 28.15 36.55 27.9 35.9 L27.85 35.3 Q27.85 34.0 28.9 33.25 L29.3 33.35 29.6 33.65 29.5 33.6 Q28.4 34.0 28.5 35.2 28.55 35.65 28.95 35.9 L29.75 35.85 29.8 35.8 30.1 35.6 30.2 35.4 30.25 35.3 30.15 35.15 30.0 34.95 29.95 34.85 29.9 34.7 29.95 34.7 30.0 34.8 30.0 34.85 30.05 34.95 30.1 34.95 30.3 35.1 30.45 35.15 30.6 35.15 30.65 35.15 30.75 35.1 30.8 35.1 30.9 35.05 30.75 35.25 30.8 35.9 Q30.9 36.5 31.45 36.6 L31.65 36.55 31.95 36.3 32.15 36.15 32.3 35.7 32.25 35.35 33.55 35.4 33.55 35.15 33.25 34.7 Q33.1 34.55 32.95 34.5 L32.85 34.5 32.45 34.65 32.2 34.7 32.1 34.75 32.15 34.7 32.35 34.6 32.55 34.35 32.55 34.25 32.4 34.05 32.3 33.9 32.2 33.85 32.05 33.75 32.15 33.75 32.2 33.85 Q32.8 34.0 33.3 33.5 L33.6 32.75 31.85 32.8 31.9 32.75 Q32.15 32.45 32.05 32.05 L31.9 31.6 31.6 31.45 31.4 31.5 Q31.2 31.55 31.15 31.65 L31.0 31.85 31.0 32.05 31.3 32.6 31.45 32.85 31.35 32.8 31.1 32.6 30.9 32.55 30.6 32.6 30.25 32.9 30.15 33.1 30.0 32.75 Q29.6 31.65 28.85 30.9" fill="#cccccc" fill-rule="evenodd" stroke="none"/>
  </g>
</svg>
