<?xml version="1.0" encoding="UTF-8" standalone="no"?>
<svg xmlns:ffdec="https://www.free-decompiler.com/flash" xmlns:xlink="http://www.w3.org/1999/xlink" ffdec:objectType="shape" height="12.8px" width="12.75px" xmlns="http://www.w3.org/2000/svg">
  <g transform="matrix(1.0, 0.0, 0.0, 1.0, 6.35, 6.4)">
    <path d="M3.35 -2.85 Q2.6 -2.85 2.45 -2.55 3.6 -2.5 4.45 -1.6 L4.85 -1.05 5.05 -0.85 5.05 -0.65 5.1 -0.3 4.7 0.95 Q4.25 1.85 3.7 1.95 L4.15 2.4 Q3.8 3.0 2.3 3.85 L1.45 4.3 1.65 3.55 1.8 1.1 1.85 0.25 1.7 -0.35 1.1 -2.05 -0.1 -3.5 Q-0.55 -3.9 -1.5 -4.1 L-1.25 -4.25 Q1.25 -5.55 2.25 -5.55 3.35 -5.55 4.2 -4.85 L4.95 -3.8 Q4.95 -3.3 4.2 -2.95 L3.95 -2.8 3.35 -2.85 M3.85 -4.1 Q3.85 -5.05 2.2 -5.0 0.55 -4.9 0.55 -4.25 0.55 -3.95 1.0 -3.7 1.65 -3.3 2.95 -3.3 3.85 -3.3 3.85 -4.1" fill="#fdbf82" fill-rule="evenodd" stroke="none"/>
    <path d="M3.35 -2.85 L3.95 -2.8 4.2 -2.95 Q4.95 -3.3 4.95 -3.8 L4.2 -4.85 Q3.35 -5.55 2.25 -5.55 1.25 -5.55 -1.25 -4.25 L-1.5 -4.1 Q-0.55 -3.9 -0.1 -3.5 L1.1 -2.05 1.7 -0.35 1.85 0.25 1.8 1.1 1.65 3.55 1.45 4.3 2.3 3.85 Q3.8 3.0 4.15 2.4 L3.7 1.95 Q4.25 1.85 4.7 0.95 L5.1 -0.3 5.05 -0.65 5.05 -0.85 4.85 -1.05 4.45 -1.6 Q3.6 -2.5 2.45 -2.55 2.6 -2.85 3.35 -2.85 M5.25 -5.55 Q6.4 -4.5 6.4 -3.55 6.4 -3.0 6.0 -2.35 L5.8 -2.1 Q6.4 -1.5 6.4 -0.4 6.4 0.1 6.0 0.4 5.6 0.7 5.55 1.6 L5.6 2.55 5.45 3.45 Q5.0 4.2 3.35 5.2 1.35 6.4 -0.25 6.4 -3.85 6.4 -5.45 2.9 -6.35 0.9 -6.35 -1.0 -6.35 -2.05 -5.25 -2.75 -4.6 -3.2 -4.35 -3.05 -3.15 -4.35 1.7 -6.1 3.8 -6.95 5.25 -5.55 M-2.45 -3.55 L-2.45 -3.6 -4.2 -2.55 -4.7 -1.15 Q-4.7 0.6 -4.05 2.1 -3.0 4.7 -0.4 4.75 L1.0 3.2 1.1 1.1 Q1.1 -0.65 0.6 -1.6 -0.2 -3.2 -2.45 -3.55" fill="#000000" fill-rule="evenodd" stroke="none"/>
    <path d="M3.85 -4.1 Q3.85 -3.3 2.95 -3.3 1.65 -3.3 1.0 -3.7 0.55 -3.95 0.55 -4.25 0.55 -4.9 2.2 -5.0 3.85 -5.05 3.85 -4.1" fill="#fed8b4" fill-rule="evenodd" stroke="none"/>
    <path d="M-2.45 -3.6 L-2.45 -3.55 Q-0.2 -3.2 0.6 -1.6 1.1 -0.65 1.1 1.1 L1.0 3.2 -0.4 4.75 Q-3.0 4.7 -4.05 2.1 -4.7 0.6 -4.7 -1.15 L-4.2 -2.55 -2.45 -3.6" fill="#333333" fill-rule="evenodd" stroke="none"/>
  </g>
</svg>
