<?xml version="1.0" encoding="UTF-8" standalone="no"?>
<svg xmlns:ffdec="https://www.free-decompiler.com/flash" xmlns:xlink="http://www.w3.org/1999/xlink" ffdec:objectType="shape" height="41.4px" width="19.4px" xmlns="http://www.w3.org/2000/svg">
  <g transform="matrix(1.0, 0.0, 0.0, 1.0, 11.25, 21.15)">
    <path d="M-6.5 19.55 Q-6.8 20.25 -7.25 20.25 -10.3 20.25 -11.1 18.25 L-11.25 16.2 Q-11.25 13.1 -8.75 15.55 L-6.25 18.7 -6.5 19.55" fill="#000000" fill-rule="evenodd" stroke="none"/>
    <path d="M-7.55 -21.15 L-7.3 -20.55 -7.25 -19.15 Q-7.25 -17.85 -7.5 -17.25 L-8.25 -17.35 -7.55 -21.15" fill="#ccffff" fill-rule="evenodd" stroke="none"/>
    <path d="M7.65 -18.8 L8.1 -16.75 8.0 -15.2 7.1 -13.8 6.3 -13.9 6.2 -13.8 6.05 -14.65 Q5.9 -16.2 6.15 -18.1 6.45 -20.5 7.2 -21.05 7.25 -20.25 7.65 -18.8" fill="#ccffff" fill-rule="evenodd" stroke="none"/>
  </g>
</svg>
