<?xml version="1.0" encoding="UTF-8" standalone="no"?>
<svg xmlns:ffdec="https://www.free-decompiler.com/flash" xmlns:xlink="http://www.w3.org/1999/xlink" ffdec:objectType="shape" height="22.2px" width="9.75px" xmlns="http://www.w3.org/2000/svg">
  <g transform="matrix(1.0, 0.0, 0.0, 1.0, 4.85, 11.1)">
    <path d="M3.6 3.95 Q2.25 10.45 -1.05 10.45 -2.8 10.45 -3.65 6.9 L-4.15 3.3 Q-4.15 1.85 -3.0 -2.05 -1.75 -6.3 -1.65 -7.2 -1.15 -12.55 1.65 -9.55 4.35 -6.65 4.35 -3.4 4.35 0.4 3.6 3.95" fill="#ffcc99" fill-rule="evenodd" stroke="none"/>
    <path d="M1.4 -0.5 L1.5 1.35 1.25 5.6 Q0.65 8.7 -1.4 9.25 L-2.1 9.25 Q-3.3 9.0 -4.1 6.85 -4.7 5.2 -4.7 4.05 L-4.35 0.6 Q-4.2 -0.2 -2.65 -1.3 -1.15 -2.3 -0.55 -2.3 0.95 -2.3 1.4 -0.5" fill="#333333" fill-rule="evenodd" stroke="none"/>
    <path d="M3.3 -5.05 Q2.55 -4.7 2.4 -3.75 L2.2 -2.15 2.05 -2.15 1.95 -2.75 Q1.95 -4.0 2.7 -5.2 3.6 -6.6 4.65 -4.5 L4.65 0.0 4.9 1.45 Q4.9 3.45 3.6 6.65 1.8 11.1 -1.0 11.1 -1.75 11.1 -2.45 10.3 L-3.05 9.4 -2.85 9.0 -2.55 8.85 -1.85 9.5 -1.0 10.15 Q1.45 10.15 2.95 5.9 3.7 3.75 3.95 1.45 L3.7 0.45 3.7 -4.05 3.3 -5.05" fill="#000000" fill-rule="evenodd" stroke="none"/>
    <path d="M-0.05 -2.55 L0.2 -6.05 Q0.2 -8.6 2.25 -8.7 4.25 -8.8 4.25 -5.75 L4.0 -5.3 Q3.2 -5.3 3.25 -6.55 3.3 -7.85 2.3 -7.85 1.25 -7.85 0.85 -6.8 L0.65 -5.65 -0.05 -2.55" fill="#000000" fill-rule="evenodd" stroke="none"/>
    <path d="M2.7 -9.3 L2.65 -8.65 2.45 -8.55 2.05 -8.65 1.75 -9.6 Q1.25 -10.4 0.15 -10.4 -0.8 -10.4 -1.45 -7.55 -1.95 -4.3 -2.3 -3.4 L-3.55 0.15 Q-4.25 2.3 -4.25 3.75 L-3.75 5.7 -3.3 7.4 Q-3.3 7.75 -3.65 7.75 -4.5 7.75 -4.75 5.8 L-4.85 3.7 Q-4.85 1.15 -4.4 -0.1 L-2.75 -5.1 -2.4 -7.2 -1.8 -9.5 Q-0.95 -11.4 0.9 -11.05 2.7 -10.65 2.7 -9.3" fill="#000000" fill-rule="evenodd" stroke="none"/>
  </g>
</svg>
