<?xml version="1.0" encoding="UTF-8" standalone="no"?>
<svg xmlns:ffdec="https://www.free-decompiler.com/flash" xmlns:xlink="http://www.w3.org/1999/xlink" ffdec:objectType="shape" height="23.5px" width="24.8px" xmlns="http://www.w3.org/2000/svg">
  <g transform="matrix(1.0, 0.0, 0.0, 1.0, 12.4, 11.75)">
    <path d="M8.65 -8.4 Q12.0 -5.0 12.0 -0.25 12.0 4.5 8.65 7.85 5.25 11.25 0.5 11.25 -4.25 11.25 -7.6 7.85 -11.0 4.5 -11.0 -0.25 -11.0 -5.0 -7.6 -8.4 -4.25 -11.75 0.5 -11.75 5.25 -11.75 8.65 -8.4" fill="#cc3300" fill-rule="evenodd" stroke="none"/>
    <path d="M2.15 -11.25 Q10.05 -9.6 11.85 -3.3 13.7 2.95 9.55 7.7 5.4 12.4 -2.35 11.65 -10.1 10.85 -11.85 4.1 -13.6 -2.7 -9.95 -5.9 -14.0 2.2 -8.0 8.5 -5.6 11.0 -2.0 10.75 6.35 11.35 9.95 6.25 13.45 1.15 11.05 -3.9 8.65 -8.9 2.25 -9.95 -2.8 -10.7 -5.4 -6.75 -6.1 -6.7 -6.55 -7.25 L-7.1 -8.1 Q-3.95 -12.55 2.15 -11.25" fill="#000000" fill-rule="evenodd" stroke="none"/>
  </g>
</svg>
