<?xml version="1.0" encoding="UTF-8" standalone="no"?>
<svg xmlns:ffdec="https://www.free-decompiler.com/flash" xmlns:xlink="http://www.w3.org/1999/xlink" ffdec:objectType="shape" height="34.6px" width="25.75px" xmlns="http://www.w3.org/2000/svg">
  <g transform="matrix(1.0, 0.0, 0.0, 1.0, -3.6, -6.05)">
    <path d="M24.1 6.35 L24.2 6.5 24.55 6.5 24.8 6.55 25.15 6.65 25.5 6.75 25.65 6.7 25.8 6.75 25.95 6.85 26.1 6.85 26.2 6.85 26.3 6.9 26.5 6.95 26.6 7.05 26.65 7.25 26.65 7.4 26.65 7.55 26.75 7.7 26.7 7.9 26.25 8.1 25.75 8.2 25.2 8.25 24.75 8.4 24.2 8.4 24.1 8.4 23.95 8.4 23.8 8.4 23.75 8.45 23.7 8.85 23.55 9.25 23.3 9.65 22.95 9.75 22.25 9.4 Q22.05 9.25 22.15 8.9 L22.15 8.5 21.8 8.4 21.4 8.3 21.1 8.25 20.65 8.25 20.4 8.2 20.1 8.25 19.85 8.3 19.6 8.35 19.05 8.3 18.45 8.4 18.35 8.45 18.25 8.5 18.25 8.65 18.2 8.8 18.1 8.9 18.05 9.05 18.0 9.2 17.95 9.25 17.95 9.4 17.9 9.55 17.8 9.7 17.7 9.8 17.5 9.9 17.2 9.9 Q17.15 9.85 16.95 9.75 L16.65 9.5 16.55 9.3 16.45 9.1 16.5 8.95 16.5 8.85 16.5 8.75 16.55 8.65 16.45 8.5 16.15 8.6 15.9 8.65 15.65 8.75 15.4 8.9 15.2 8.9 15.05 8.9 14.9 8.9 14.8 8.9 14.65 8.95 14.5 9.0 14.4 9.1 14.25 9.15 13.85 9.05 13.5 8.8 13.6 8.25 14.0 7.8 14.45 7.55 15.05 7.35 15.65 7.15 16.2 7.1 16.8 6.95 17.2 6.85 17.4 6.45 17.7 6.1 18.25 6.15 18.5 6.6 18.6 6.65 18.7 6.7 18.8 6.7 18.9 6.75 19.7 6.65 20.6 6.7 21.65 6.85 22.2 6.85 22.3 6.8 22.5 6.8 22.7 6.75 22.85 6.65 22.95 6.5 23.0 6.3 23.05 6.15 23.25 6.05 23.35 6.05 23.5 6.05 23.55 6.05 23.65 6.05 23.8 6.05 23.9 6.15 24.1 6.35 M21.35 10.45 L21.75 10.8 22.05 11.15 22.35 11.65 22.55 12.15 22.6 12.7 22.35 12.85 22.3 13.1 22.3 13.25 22.25 13.4 22.25 13.55 22.25 13.75 22.2 14.0 22.15 14.3 22.05 14.65 21.95 14.8 21.9 15.0 21.8 15.15 21.75 15.3 21.65 15.4 21.55 15.6 21.4 15.7 21.3 15.8 21.15 15.85 21.05 15.85 20.95 15.9 20.8 15.95 20.7 16.05 20.65 16.15 20.55 16.15 20.4 16.1 20.25 16.1 20.15 16.05 20.1 16.0 19.9 16.0 19.8 16.05 19.6 16.15 19.4 16.15 19.2 16.1 19.05 16.1 18.9 16.05 18.75 16.0 18.6 15.95 18.5 15.85 18.35 15.8 18.25 15.85 18.15 15.7 18.05 15.65 17.9 15.6 17.75 15.55 17.6 15.4 17.45 15.25 17.4 15.1 17.3 14.9 17.25 14.8 17.2 14.75 17.2 14.65 17.2 14.5 17.15 14.35 17.15 14.25 17.1 14.2 17.15 14.15 17.2 14.15 17.0 13.65 16.9 13.2 16.8 12.75 16.8 12.3 16.8 11.55 17.1 10.8 17.4 10.65 17.65 10.4 18.0 10.3 18.35 10.25 18.75 10.35 18.95 9.75 19.3 9.15 19.4 9.05 19.5 9.05 19.6 9.05 19.7 9.05 19.8 9.1 19.85 9.15 19.95 9.2 20.15 9.25 20.2 9.5 20.35 9.75 20.25 10.15 20.35 10.25 20.55 10.3 20.65 10.3 20.8 10.4 21.35 10.45 M19.1 11.45 L18.4 11.7 18.25 12.05 18.25 12.4 18.25 12.85 18.5 13.3 18.6 13.2 18.65 13.05 19.05 13.0 19.45 13.05 19.8 13.1 20.0 13.15 20.25 13.2 20.5 13.2 20.65 13.25 20.7 13.05 20.7 12.75 20.75 12.5 20.8 12.35 20.85 11.8 20.7 11.5 20.55 11.25 20.3 11.15 20.0 11.25 19.1 11.45 M18.6 13.5 L18.5 13.5 18.5 13.55 18.55 13.65 18.6 13.75 18.7 13.85 18.7 13.95 18.75 14.0 18.75 14.15 18.75 14.2 18.75 14.3 18.8 14.4 18.85 14.5 18.9 14.7 18.95 14.8 19.05 15.0 19.15 15.15 19.4 15.2 19.8 15.1 20.15 14.8 20.4 14.5 20.45 14.05 20.4 14.0 20.3 14.0 20.25 14.0 19.75 14.0 19.3 14.0 19.1 13.9 18.95 13.8 18.75 13.65 18.6 13.5 M13.85 10.0 Q14.15 9.8 14.5 9.75 L14.65 9.75 14.8 9.85 15.05 9.95 15.2 10.05 15.2 10.1 15.25 10.15 15.3 10.25 15.3 10.4 15.15 10.5 15.2 10.8 15.15 10.95 15.05 11.1 15.05 11.2 14.95 11.35 14.8 11.5 14.75 11.6 14.65 11.75 14.55 11.95 14.35 12.0 14.25 12.2 14.15 12.4 14.1 12.6 14.15 12.6 14.15 12.65 14.2 12.75 14.3 12.75 14.35 12.6 14.4 12.5 14.55 12.45 14.7 12.45 14.8 12.45 14.95 12.4 15.05 12.35 15.2 12.25 15.4 12.2 15.55 12.3 15.6 12.5 15.6 12.8 15.55 13.05 15.5 13.25 15.35 13.6 14.95 13.85 14.7 14.05 14.5 14.3 14.35 14.55 14.25 14.7 14.1 14.8 14.25 14.85 14.55 14.8 14.9 14.75 15.3 14.65 15.65 14.55 15.65 14.3 15.6 14.15 15.75 13.9 15.9 13.7 16.25 13.65 16.35 13.65 16.45 13.7 16.55 13.8 16.65 13.9 16.65 14.05 16.7 14.2 16.8 14.4 16.85 14.6 16.8 14.75 16.85 14.8 16.9 15.0 Q16.7 15.2 16.65 15.5 L16.65 16.15 16.55 16.2 16.45 16.25 16.35 16.3 16.3 16.35 16.05 16.25 15.8 16.15 15.6 16.0 15.5 15.8 15.1 15.85 14.8 15.9 14.5 15.95 14.1 16.15 13.55 16.4 13.2 16.75 12.7 16.6 12.4 16.2 Q12.25 15.95 12.25 15.7 L12.2 15.2 12.4 14.9 12.55 14.6 12.75 14.2 13.0 13.85 12.45 13.4 12.25 12.9 12.35 12.3 12.6 11.65 12.8 11.25 12.95 10.95 13.15 10.7 13.4 10.35 13.85 10.0 M14.2 18.65 L14.75 18.45 15.25 18.25 15.75 18.1 16.2 17.95 16.8 17.85 17.4 17.75 17.9 17.6 18.45 17.45 19.25 17.4 19.35 17.15 19.45 16.9 19.55 16.8 19.65 16.7 19.75 16.55 19.85 16.45 20.1 16.5 20.4 16.65 20.65 16.95 Q20.85 17.15 21.0 17.15 L21.35 17.25 21.75 17.25 22.2 17.3 22.5 17.4 22.7 17.4 22.9 17.35 23.05 17.3 23.25 17.4 23.7 17.35 24.05 17.4 24.45 17.45 24.8 17.55 25.25 17.65 25.7 17.8 26.05 17.95 26.4 18.25 26.45 18.6 26.35 18.75 26.25 18.9 26.2 19.05 26.05 19.2 25.85 19.15 25.75 19.2 25.55 19.2 25.4 19.2 25.3 19.25 25.15 19.2 25.0 19.2 24.85 19.15 24.75 19.15 24.45 19.05 24.15 19.0 23.95 18.95 23.7 18.9 23.15 18.85 22.55 18.85 21.9 18.8 21.4 18.85 21.5 19.1 21.75 19.2 21.8 19.45 22.0 19.55 22.1 19.85 22.2 20.2 22.3 20.35 22.45 20.45 22.6 20.6 22.7 20.75 22.75 20.95 22.9 21.15 23.0 21.25 23.05 21.4 23.35 21.5 23.8 21.55 24.35 21.45 24.9 21.35 25.5 21.2 26.1 21.2 26.3 21.2 26.6 21.25 26.85 21.25 27.1 21.2 27.3 21.2 27.5 21.15 27.75 21.15 27.9 21.15 28.1 21.25 28.25 21.35 28.4 21.45 28.55 21.6 28.55 21.85 28.3 22.1 27.95 22.45 27.7 22.65 27.35 22.8 26.6 22.85 25.65 22.9 24.8 22.95 24.05 23.0 23.8 22.95 23.6 22.95 23.35 22.95 23.0 22.9 22.7 22.75 22.35 22.5 22.1 22.15 21.85 21.8 21.75 21.55 21.65 21.35 21.55 21.15 21.45 21.0 21.4 20.8 21.25 20.55 21.1 20.35 21.0 20.2 20.95 20.0 20.9 19.8 20.8 19.6 20.75 19.4 20.75 19.3 20.8 19.15 20.85 19.05 20.95 18.95 20.95 18.75 20.7 18.75 20.55 19.0 20.55 19.45 20.6 19.95 20.7 20.55 20.85 21.15 20.85 21.8 20.8 21.85 20.75 21.9 20.7 21.95 20.75 22.0 20.75 22.05 20.75 22.15 20.8 22.3 20.8 22.4 20.75 22.65 20.65 22.85 20.55 22.9 20.45 22.9 20.35 22.95 20.3 22.95 20.1 22.9 19.95 22.8 19.85 22.7 19.7 22.55 19.6 22.45 19.5 22.35 19.4 22.2 19.4 22.05 19.45 21.45 19.45 21.15 19.35 20.95 19.25 20.65 19.25 20.45 19.15 20.35 19.1 20.35 19.05 20.35 19.05 20.45 19.0 20.6 19.05 20.75 19.05 20.9 19.0 21.0 18.9 21.1 18.8 21.2 18.7 21.3 18.6 21.4 18.55 21.55 18.45 21.7 18.4 21.85 18.3 21.9 18.25 21.95 18.1 22.05 17.95 22.1 17.85 22.2 17.75 22.25 17.65 22.35 17.5 22.45 17.35 22.55 17.1 22.7 16.8 22.75 16.6 22.75 16.3 22.8 16.0 22.95 15.7 23.0 15.35 23.15 15.0 23.25 14.7 23.35 14.4 23.35 14.2 23.4 13.9 23.5 13.65 23.55 13.3 23.5 12.9 23.55 12.6 23.6 12.35 23.55 12.2 23.4 12.25 23.3 12.25 23.25 12.25 23.15 12.3 23.05 12.55 22.9 12.75 22.75 13.0 22.6 13.25 22.45 13.5 22.35 13.8 22.3 14.1 22.2 14.3 22.15 14.65 22.05 15.0 21.95 15.2 21.85 15.55 21.8 15.85 21.75 16.15 21.55 16.4 21.3 16.7 21.0 17.15 20.5 17.75 20.05 18.3 19.6 19.0 19.5 19.05 19.35 19.05 19.15 19.05 19.0 19.05 18.85 19.0 18.8 18.9 18.75 18.7 18.75 18.55 18.8 18.4 18.8 18.25 18.85 18.1 18.9 17.95 18.95 17.85 19.0 17.65 19.05 17.55 19.1 17.45 19.1 17.25 19.1 17.1 19.1 16.95 19.15 16.8 19.2 16.65 19.25 16.55 19.3 16.4 19.3 16.2 19.35 16.1 19.4 16.0 19.45 15.85 19.45 15.65 19.5 15.5 19.55 15.3 19.55 15.15 19.6 14.95 19.6 14.8 19.6 14.6 19.6 14.4 19.6 14.3 19.65 14.15 19.7 13.95 19.7 13.65 19.55 13.5 19.3 13.55 19.15 13.55 19.05 13.6 18.9 13.7 18.85 14.2 18.65 M27.4 12.4 L27.15 12.6 26.85 12.75 26.5 12.9 26.35 13.05 26.2 13.2 26.05 13.25 25.95 13.4 Q25.6 13.45 25.4 13.6 L24.95 14.05 24.95 14.15 24.95 14.25 25.0 14.35 25.05 14.45 25.3 14.4 25.55 14.4 25.85 14.4 26.05 14.45 26.3 14.4 26.6 14.4 26.85 14.45 27.05 14.55 27.1 14.45 27.2 14.3 27.25 14.25 27.4 14.2 27.5 14.2 27.6 14.25 27.7 14.3 27.8 14.35 27.8 14.45 27.85 14.55 27.9 14.7 27.95 14.8 27.95 15.0 27.85 15.25 27.8 15.5 27.75 15.7 27.7 16.3 Q27.5 16.55 27.2 16.6 L26.9 16.4 26.75 16.15 26.8 15.75 26.8 15.6 26.8 15.55 26.75 15.5 26.75 15.45 26.25 15.45 25.95 15.55 25.3 15.55 25.0 15.55 24.8 15.55 24.6 15.6 24.45 15.65 23.8 15.55 23.6 15.2 23.55 14.85 23.6 14.25 23.7 13.85 23.85 13.5 24.0 13.25 24.05 13.1 24.1 12.85 23.85 12.75 23.65 12.7 23.45 12.65 23.35 12.6 23.3 12.5 23.25 12.4 23.2 12.4 23.3 12.4 Q23.25 11.6 23.5 10.9 23.7 10.25 24.15 9.8 L24.35 9.65 24.6 9.55 24.9 9.5 25.2 9.4 25.4 9.3 25.7 9.25 26.0 9.25 26.25 9.3 26.65 9.4 27.0 9.75 26.95 10.05 26.8 10.15 26.65 10.25 26.55 10.3 26.4 10.35 26.25 10.4 26.2 10.45 26.1 10.5 25.95 10.6 25.8 10.65 25.65 10.65 25.55 10.7 25.4 10.75 25.25 10.75 25.0 10.8 24.8 10.95 24.7 11.2 24.7 11.55 24.65 11.7 24.8 11.9 24.95 12.05 25.05 12.25 25.4 12.15 25.7 11.9 Q25.9 11.75 26.05 11.7 L26.35 11.65 26.8 11.65 27.1 11.7 27.45 11.9 27.5 12.1 27.4 12.4" fill="#ffffff" fill-rule="evenodd" stroke="none"/>
    <path d="M11.45 31.85 L9.1 34.25 Q7.25 34.25 6.35 32.0 L5.8 29.7 Q5.8 26.65 9.65 26.65 13.5 26.7 13.5 29.25 L11.45 31.85" fill="#ffcccc" fill-opacity="0.6" fill-rule="evenodd" stroke="none"/>
    <path d="M18.95 40.55 Q17.5 40.55 16.45 38.75 15.6 37.35 15.6 36.45 15.6 33.05 19.85 32.5 24.05 31.95 24.05 34.95 22.0 40.55 18.95 40.55" fill="#cccc33" fill-opacity="0.6" fill-rule="evenodd" stroke="none"/>
    <path d="M18.05 32.85 Q16.9 34.0 16.6 34.5 L16.25 36.1 Q15.85 37.35 14.7 37.35 11.6 37.35 10.4 35.4 9.8 34.4 9.8 33.25 9.8 30.0 14.25 29.2 18.7 28.35 18.7 31.35 18.7 32.15 18.05 32.85" fill="#ffffe6" fill-opacity="0.6" fill-rule="evenodd" stroke="none"/>
    <path d="M17.4 32.85 Q17.55 32.7 19.0 32.05 L21.25 31.65 23.65 32.55 24.8 33.95 24.9 34.85 Q23.6 39.45 22.0 39.25 21.35 39.15 21.25 38.6 L21.15 38.1 Q21.2 37.85 22.55 37.0 23.9 36.05 24.0 34.75 24.1 33.3 22.9 33.15 18.75 32.6 17.2 34.4 L16.45 36.4 Q16.3 38.45 17.7 39.7 L19.75 40.35 19.4 40.65 Q16.4 40.25 15.7 38.8 15.4 38.3 15.5 36.75 15.6 35.35 15.85 34.9 L17.4 32.85" fill="#333333" fill-opacity="0.9019608" fill-rule="evenodd" stroke="none"/>
    <path d="M11.05 30.85 Q12.85 29.0 16.05 29.4 17.85 29.65 18.6 30.65 19.05 31.35 18.95 32.1 L18.65 32.7 Q18.35 33.05 17.8 33.0 17.35 32.95 17.3 32.55 L17.3 32.25 17.6 31.75 17.15 31.1 Q16.45 30.6 14.75 30.4 13.3 30.2 11.95 31.45 10.8 32.55 10.7 33.4 10.55 34.45 11.55 35.65 12.9 37.2 15.35 36.95 L15.5 37.0 15.55 37.15 Q15.5 37.55 14.9 37.75 L13.35 37.85 Q11.2 37.55 10.25 35.55 9.55 34.2 9.7 33.4 9.85 32.05 11.05 30.85" fill="#333333" fill-opacity="0.9019608" fill-rule="evenodd" stroke="none"/>
    <path d="M13.4 30.2 Q13.1 30.2 12.55 28.9 12.05 27.6 9.85 27.3 8.15 27.1 6.9 28.4 L6.0 29.85 Q5.95 30.45 6.5 31.75 7.35 33.55 8.8 33.75 L10.05 33.6 10.35 33.9 10.4 34.2 Q10.3 35.0 7.8 34.65 6.45 34.5 5.55 32.15 5.1 30.5 5.15 29.65 5.1 28.7 6.15 27.6 7.75 25.9 10.0 26.2 11.95 26.45 13.2 27.6 14.2 28.55 14.1 29.45 13.9 30.3 13.4 30.2" fill="#333333" fill-opacity="0.9019608" fill-rule="evenodd" stroke="none"/>
    <path d="M4.75 28.45 Q3.85 28.2 3.65 27.7 L3.6 27.2 Q3.75 26.15 4.8 26.65 5.85 27.15 5.75 27.95 5.65 28.7 4.75 28.45" fill="#333333" fill-opacity="0.9019608" fill-rule="evenodd" stroke="none"/>
    <path d="M29.3 40.4 L29.15 40.4 Q28.05 39.8 27.7 39.75 L27.05 40.0 Q26.05 39.85 23.05 38.25 19.9 36.6 20.0 36.1 20.2 34.35 24.5 36.95 L29.3 40.3 29.3 40.4" fill="#333333" fill-opacity="0.9019608" fill-rule="evenodd" stroke="none"/>
    <path d="M14.6 31.5 L13.55 31.1 15.8 31.4 14.6 31.5" fill="#333333" fill-opacity="0.9019608" fill-rule="evenodd" stroke="none"/>
    <path d="M13.8 32.9 L13.7 33.05 12.9 32.9 Q12.9 32.45 13.35 32.4 13.7 32.3 13.8 32.55 L13.8 32.9" fill="#333333" fill-opacity="0.9019608" fill-rule="evenodd" stroke="none"/>
    <path d="M8.95 28.4 L9.2 28.3 9.35 28.4 9.4 28.7 9.25 28.75 8.95 28.4" fill="#333333" fill-opacity="0.9019608" fill-rule="evenodd" stroke="none"/>
    <path d="M18.5 37.6 L18.6 38.45 17.95 37.85 Q17.75 37.35 17.95 37.05 L18.5 37.6" fill="#333333" fill-opacity="0.9019608" fill-rule="evenodd" stroke="none"/>
  </g>
</svg>
