<?xml version="1.0" encoding="UTF-8" standalone="no"?>
<svg xmlns:ffdec="https://www.free-decompiler.com/flash" xmlns:xlink="http://www.w3.org/1999/xlink" ffdec:objectType="shape" height="23.3px" width="28.55px" xmlns="http://www.w3.org/2000/svg">
  <g transform="matrix(1.0, 0.0, 0.0, 1.0, 14.25, 11.65)">
    <path d="M-9.8 1.55 L-9.85 -2.3 Q-9.0 -6.15 -5.0 -8.25 -1.25 -10.2 3.15 -9.65 L3.8 -9.05 4.65 -4.1 3.5 -1.75 2.45 -1.3 1.95 -0.5 Q-4.2 -0.15 -9.8 1.55" fill="#a05001" fill-rule="evenodd" stroke="none"/>
    <path d="M3.15 -9.65 L3.3 -9.6 Q8.05 -9.05 10.5 -5.8 13.4 -2.15 12.15 3.7 11.75 5.55 7.45 7.0 L3.7 7.8 0.9 8.05 Q1.05 8.45 0.75 8.7 L-1.35 9.0 -1.6 9.05 -2.2 9.1 -2.65 9.1 -3.05 9.15 -7.85 8.1 Q-9.75 7.55 -9.8 4.65 L-9.8 1.55 Q-4.2 -0.15 1.95 -0.5 L2.45 -1.3 3.5 -1.75 4.65 -4.1 3.8 -9.05 3.15 -9.65 M-2.7 9.15 L-2.75 9.35 -3.0 9.15 -2.7 9.15" fill="#5c2e01" fill-rule="evenodd" stroke="none"/>
    <path d="M3.7 7.8 L2.8 7.95 0.9 8.05 3.7 7.8 M-1.35 9.0 Q1.8 8.85 5.3 9.0 L7.95 9.15 -2.7 9.15 -3.0 9.15 -3.2 9.15 -3.05 9.15 -2.65 9.1 -2.2 9.1 -1.6 9.05 -1.35 9.0" fill="#767601" fill-rule="evenodd" stroke="none"/>
    <path d="M12.2 -7.9 Q14.4 -7.4 14.3 -3.1 14.2 -0.95 13.7 1.2 12.2 8.1 10.8 7.8 9.55 7.55 10.05 4.7 L10.85 1.85 Q11.2 0.2 10.35 -2.75 9.15 -7.2 5.7 -7.9 -1.3 -9.4 -5.8 -6.0 L-8.4 -3.55 Q-9.5 -2.4 -10.1 -2.5 -12.8 -3.1 -13.75 -4.85 -14.35 -6.0 -14.2 -6.8 -13.75 -8.9 -11.1 -9.35 L-3.4 -10.65 Q3.45 -12.5 6.45 -10.9 L8.85 -9.3 Q10.4 -8.25 12.2 -7.9" fill="#000000" fill-rule="evenodd" stroke="none"/>
    <path d="M-9.55 6.95 L-11.6 3.0 Q-12.35 1.3 -12.05 -0.25 -11.65 -2.1 -10.45 -0.6 -9.7 0.4 -9.05 2.1 -8.95 2.85 -9.0 4.3 L-9.0 6.45 Q-9.1 6.85 -9.55 6.95" fill="#000000" fill-rule="evenodd" stroke="none"/>
    <path d="M-7.55 10.55 Q-9.25 9.9 -9.95 9.2 L-10.0 7.7 -9.5 7.55 -8.25 7.4 -5.0 8.05 -1.75 8.65 4.35 5.7 Q10.3 3.65 10.3 8.15 10.3 11.65 -0.5 11.65 -4.6 11.65 -7.55 10.55" fill="#000000" fill-rule="evenodd" stroke="none"/>
  </g>
</svg>
