<?xml version="1.0" encoding="UTF-8" standalone="no"?>
<svg xmlns:ffdec="https://www.free-decompiler.com/flash" xmlns:xlink="http://www.w3.org/1999/xlink" ffdec:objectType="shape" height="93.45px" width="50.8px" xmlns="http://www.w3.org/2000/svg">
  <g transform="matrix(1.0, 0.0, 0.0, 1.0, 25.4, 46.7)">
    <path d="M-21.2 -29.55 L-20.95 -35.8 Q-20.2 -39.45 -12.8 -41.3 -6.25 -42.9 2.7 -42.55 11.6 -42.2 17.35 -39.95 23.75 -37.45 22.95 -33.8 22.85 -33.35 22.45 -33.0 L21.95 -32.2 Q21.7 -31.0 20.95 -17.75 L19.9 2.15 Q19.8 4.0 20.75 19.85 21.75 34.9 21.3 36.8 L21.2 37.55 22.75 39.75 22.65 39.7 Q21.75 39.1 21.0 38.1 L20.9 38.0 20.65 37.95 Q20.3 40.6 18.1 42.55 13.85 46.35 3.45 46.35 -11.05 46.35 -16.7 42.85 L-18.4 41.55 -19.65 42.9 -20.15 42.85 -19.65 41.6 Q-20.65 39.95 -20.45 34.4 L-20.05 23.85 -20.0 23.8 -17.95 24.25 -17.8 25.55 -17.6 25.85 -16.85 26.7 -14.95 27.15 -14.6 26.9 -13.15 26.25 -12.15 26.0 Q-11.5 25.75 -11.05 25.1 L-9.8 25.35 Q-8.4 24.1 -5.9 23.5 -3.45 22.75 -1.2 21.4 L0.0 21.3 5.55 16.45 Q8.3 12.5 8.9 7.85 10.55 -4.7 9.6 -17.2 9.2 -23.45 4.75 -28.05 -7.6 -41.15 -21.2 -29.55 M14.25 27.35 Q12.95 19.5 12.75 15.4 L12.35 15.4 12.35 22.4 13.05 29.15 13.35 34.0 Q13.35 35.9 12.1 36.9 10.85 37.85 10.85 39.35 L11.0 40.65 Q11.45 41.85 13.1 41.85 14.7 41.85 15.25 40.15 L15.5 37.6 Q15.5 34.7 14.25 27.35 M13.25 -29.15 L12.75 -29.15 12.75 -26.15 12.85 -25.5 13.1 -24.85 13.35 -25.4 Q13.6 -27.6 13.25 -29.15 M9.75 -38.15 L9.6 -37.4 10.25 -34.9 Q11.25 -32.4 13.1 -32.4 14.35 -32.4 13.75 -32.65 L13.95 -32.6 14.1 -33.35 Q14.1 -35.1 12.8 -36.6 11.45 -38.1 9.75 -38.15" fill="#767601" fill-rule="evenodd" stroke="none"/>
    <path d="M-20.0 23.8 L-20.0 22.5 -20.5 17.85 -19.2 16.85 Q-20.05 15.1 -20.2 10.95 -20.35 5.85 -19.55 -0.25 -19.05 -3.75 -19.3 -9.35 L-19.7 -18.45 -19.7 -20.1 -20.1 -19.9 -21.35 -19.2 -21.35 -19.8 -21.2 -29.55 Q-7.6 -41.15 4.75 -28.05 9.2 -23.45 9.6 -17.2 10.55 -4.7 8.9 7.85 8.3 12.5 5.55 16.45 L0.0 21.3 -1.2 21.4 Q-3.45 22.75 -5.9 23.5 -8.4 24.1 -9.8 25.35 L-11.05 25.1 Q-11.5 25.75 -12.15 26.0 L-13.15 26.25 -14.6 26.9 -14.95 27.15 -16.85 26.7 -17.6 25.85 -17.8 25.55 -17.95 24.25 -20.0 23.8" fill="#999900" fill-rule="evenodd" stroke="none"/>
    <path d="M9.75 -38.15 Q11.45 -38.1 12.8 -36.6 14.1 -35.1 14.1 -33.35 L13.95 -32.6 13.75 -32.65 Q14.35 -32.4 13.1 -32.4 11.25 -32.4 10.25 -34.9 L9.6 -37.4 9.75 -38.15 M13.25 -29.15 Q13.6 -27.6 13.35 -25.4 L13.1 -24.85 12.85 -25.5 12.75 -26.15 12.75 -29.15 13.25 -29.15 M14.25 27.35 Q15.5 34.7 15.5 37.6 L15.25 40.15 Q14.7 41.85 13.1 41.85 11.45 41.85 11.0 40.65 L10.85 39.35 Q10.85 37.85 12.1 36.9 13.35 35.9 13.35 34.0 L13.05 29.15 12.35 22.4 12.35 15.4 12.75 15.4 Q12.95 19.5 14.25 27.35" fill="#333333" fill-rule="evenodd" stroke="none"/>
    <path d="M-10.75 15.8 Q-10.85 16.35 -11.05 16.55 L-11.5 17.1 -11.65 17.05 -11.2 15.55 -10.7 13.85 -10.5 13.9 Q-10.45 14.55 -10.75 15.8" fill="#000000" fill-rule="evenodd" stroke="none"/>
    <path d="M-9.55 18.9 L-9.6 19.4 -10.1 20.4 -10.65 21.35 -11.0 21.35 -10.35 19.9 -9.65 18.9 -9.55 18.9" fill="#000000" fill-rule="evenodd" stroke="none"/>
    <path d="M-10.5 26.1 L-10.0 28.4 Q-9.5 29.75 -9.7 30.5 L-10.4 31.55 Q-11.25 32.3 -11.85 32.15 -12.65 32.0 -12.8 31.35 L-12.65 30.75 -10.7 26.05 -10.5 26.1" fill="#000000" fill-rule="evenodd" stroke="none"/>
    <path d="M-4.9 -40.95 L-12.9 -40.05 Q-15.05 -39.6 -16.05 -38.15 L-17.15 -35.45 Q-17.65 -33.75 -18.3 -33.2 -19.25 -32.4 -21.5 -32.9 -24.6 -33.55 -24.9 -36.45 L-24.6 -39.5 Q-23.75 -43.4 -15.4 -45.4 -7.7 -47.2 2.4 -46.55 12.7 -45.85 19.05 -42.95 26.35 -39.55 25.25 -34.45 24.95 -33.05 24.4 -32.65 L20.8 -32.5 Q17.45 -33.2 17.35 -34.9 L17.8 -36.55 Q17.95 -37.3 14.9 -38.55 12.2 -39.65 9.3 -40.25 L-4.9 -40.95" fill="#000000" fill-rule="evenodd" stroke="none"/>
    <path d="M-21.4 -30.4 L-20.4 -30.4 Q-19.05 -23.55 -19.05 -12.7 L-19.3 4.85 Q-19.25 11.3 -18.0 26.1 -16.95 39.1 -17.1 39.8 -17.4 41.2 -18.45 42.15 -19.7 43.3 -21.35 42.95 -24.65 42.25 -25.25 39.65 L-25.35 37.85 -25.2 37.0 -23.65 34.95 -22.1 33.1 Q-21.9 32.0 -22.1 2.05 -22.4 -27.95 -22.1 -29.3 -21.9 -30.3 -21.4 -30.4" fill="#000000" fill-rule="evenodd" stroke="none"/>
    <path d="M22.0 -29.4 Q23.75 -28.45 24.3 -25.75 24.85 -22.6 23.4 -18.3 22.9 -6.25 22.0 0.2 21.2 6.3 22.0 21.9 L22.7 37.45 Q22.5 38.5 21.9 39.15 21.1 40.15 21.05 41.25 L19.85 29.45 18.25 11.45 16.45 -7.8 Q15.15 -20.45 16.1 -24.85 16.75 -27.85 18.6 -29.15 20.3 -30.3 22.0 -29.4" fill="#000000" fill-rule="evenodd" stroke="none"/>
    <path d="M-10.55 -35.1 L-11.1 -31.4 -11.8 -25.95 Q-12.55 -26.2 -12.65 -27.95 -12.8 -30.3 -13.1 -31.05 L-15.0 -34.0 Q-15.75 -35.1 -15.45 -36.5 -15.15 -37.85 -14.2 -38.5 -13.3 -39.15 -12.3 -38.9 -9.8 -38.45 -10.55 -35.1" fill="#000000" fill-rule="evenodd" stroke="none"/>
    <path d="M-21.8 41.35 Q-21.8 39.2 -20.3 39.2 L-18.3 40.95 Q-15.65 42.9 -11.7 43.85 L-6.45 45.35 3.1 45.6 Q7.3 45.2 12.55 43.9 17.8 42.6 17.8 40.1 17.8 38.05 20.25 38.05 22.7 38.05 22.7 40.25 22.7 42.75 15.3 44.75 7.9 46.75 1.55 46.75 -4.85 46.75 -13.3 45.2 -21.8 43.65 -21.8 41.35" fill="#000000" fill-rule="evenodd" stroke="none"/>
  </g>
</svg>
