<?xml version="1.0" encoding="UTF-8" standalone="no"?>
<svg xmlns:ffdec="https://www.free-decompiler.com/flash" xmlns:xlink="http://www.w3.org/1999/xlink" ffdec:objectType="shape" height="26.0px" width="50.8px" xmlns="http://www.w3.org/2000/svg">
  <g transform="matrix(1.0, 0.0, 0.0, 1.0, 25.4, 13.0)">
    <path d="M19.25 -6.7 Q20.0 -5.7 20.9 -5.1 L21.0 -5.05 Q22.3 -2.5 21.55 0.85 21.25 2.4 18.9 4.8 15.75 7.75 12.8 7.2 L10.85 6.45 8.9 7.55 Q4.2 9.8 -2.9 9.8 L-9.95 9.2 Q-11.4 10.95 -14.45 10.3 -20.3 9.1 -21.9 4.2 -22.75 1.5 -22.25 -0.95 L-21.9 -1.95 -21.4 -1.9 -20.75 -2.6 -20.6 -2.6 Q-18.7 -2.2 -16.5 -4.2 L-11.65 -8.75 Q-8.95 -10.75 -5.45 -11.7 L2.3 -12.4 Q8.3 -12.45 12.8 -11.05 14.55 -10.2 16.05 -8.9 L16.0 -8.45 15.95 -6.8 Q16.15 -5.95 17.35 -5.7 18.6 -5.45 19.1 -6.5 L19.25 -6.7 M-14.4 -1.25 L-14.4 -1.4 -14.45 -1.25 -14.4 -1.25" fill="#e6ded5" fill-rule="evenodd" stroke="none"/>
    <path d="M-6.55 13.0 Q-12.95 13.0 -15.95 12.2 -21.45 10.75 -23.95 6.15 -25.7 2.95 -25.35 1.2 -25.0 -0.35 -23.8 -1.05 -22.45 -1.9 -20.45 -1.35 -17.95 -0.7 -17.9 0.5 -17.8 1.2 -18.55 2.85 -19.5 6.2 -10.1 8.7 L-4.35 9.1 4.4 8.25 Q15.95 6.25 16.95 1.6 17.35 -0.2 18.75 -0.6 19.95 -0.9 21.5 -0.15 23.0 0.6 23.95 1.9 24.95 3.2 24.7 4.35 23.55 9.75 6.65 12.1 L-6.55 13.0" fill="#000000" fill-rule="evenodd" stroke="none"/>
    <path d="M19.6 -8.3 L19.95 -8.75 23.2 -4.8 Q26.1 -1.3 25.2 2.65 24.3 6.6 23.3 6.25 L20.65 5.3 Q19.05 4.8 18.6 3.45 18.3 2.65 18.4 2.1 L19.25 1.0 20.05 -0.05 19.4 -2.85 Q18.75 -5.65 19.15 -7.45 L19.6 -8.3" fill="#000000" fill-rule="evenodd" stroke="none"/>
    <path d="M-14.9 -5.7 Q-15.15 -4.95 -16.9 -1.75 -18.1 0.55 -20.35 0.05 -21.8 -0.25 -22.15 -1.5 L-22.3 -2.75 Q-21.5 -6.45 -13.3 -10.55 -6.6 -13.9 -1.6 -12.65 -3.6 -12.2 -7.75 -10.3 -11.8 -8.45 -14.9 -5.7" fill="#000000" fill-rule="evenodd" stroke="none"/>
    <path d="M6.35 -12.15 Q8.5 -12.65 14.65 -10.05 21.0 -7.35 20.55 -5.2 20.4 -4.4 19.8 -3.9 18.9 -3.15 17.3 -3.45 16.55 -3.6 15.6 -5.0 L13.55 -7.8 Q10.4 -11.85 6.45 -11.95 L6.35 -12.15" fill="#000000" fill-rule="evenodd" stroke="none"/>
    <path d="M2.35 -6.95 L7.95 -6.75 Q13.2 -5.6 15.2 -2.6 16.7 -0.3 15.9 1.1 15.15 2.45 14.05 1.8 13.35 1.4 13.3 0.75 L13.4 -0.6 Q13.25 -2.75 9.35 -4.95 6.55 -6.55 -0.7 -6.3 L-7.75 -5.65 Q-9.6 -5.2 -11.6 -3.05 L-14.2 0.4 -15.15 2.6 Q-15.25 4.55 -12.15 5.4 L-12.8 5.45 -14.75 4.65 Q-16.3 3.75 -15.75 1.95 L-14.8 0.25 Q-13.0 -2.95 -11.1 -4.55 -7.75 -7.15 -3.05 -6.75 L2.35 -6.95" fill="#333333" fill-rule="evenodd" stroke="none"/>
    <path d="M-7.95 5.3 L-5.9 5.7 Q6.95 5.7 6.95 1.35 6.95 -1.1 2.65 -1.1 L-2.15 -0.75 Q-2.7 -0.3 -3.15 -0.2 L-1.8 0.3 Q-0.7 0.55 -0.15 1.2 -0.65 2.4 -1.3 2.4 -3.2 2.4 -4.05 1.4 L-4.55 0.35 Q-4.55 -2.55 1.45 -2.05 7.45 -1.55 7.45 1.6 7.45 6.3 -5.3 6.3 L-7.25 5.95 -7.95 5.3" fill="#333333" fill-rule="evenodd" stroke="none"/>
  </g>
</svg>
