<?xml version="1.0" encoding="UTF-8" standalone="no"?>
<svg xmlns:ffdec="https://www.free-decompiler.com/flash" xmlns:xlink="http://www.w3.org/1999/xlink" ffdec:objectType="shape" height="10.25px" width="25.65px" xmlns="http://www.w3.org/2000/svg">
  <g transform="matrix(1.0, 0.0, 0.0, 1.0, 12.4, 24.05)">
    <path d="M-1.2 -20.65 Q-1.2 -19.55 -1.9 -19.55 -3.0 -19.55 -2.75 -20.65 L-2.05 -24.05 -2.0 -24.05 -1.2 -20.65" fill="#ccffff" fill-rule="evenodd" stroke="none"/>
    <path d="M-10.85 -17.65 L-10.65 -16.25 -10.65 -14.95 Q-10.8 -13.9 -11.55 -13.9 -12.4 -13.9 -12.4 -14.55 L-11.7 -17.15 Q-11.05 -19.0 -11.15 -19.65 L-11.05 -19.65 -10.85 -17.65" fill="#ccffff" fill-rule="evenodd" stroke="none"/>
    <path d="M13.0 -16.9 L13.25 -14.9 13.25 -14.2 Q13.15 -13.8 12.65 -13.8 L12.2 -14.2 12.0 -14.65 12.1 -15.35 12.5 -16.15 12.7 -15.7 Q12.7 -16.6 13.0 -16.9 M12.75 -14.4 L12.7 -15.7 12.45 -14.85 12.7 -14.4 12.75 -14.4" fill="#ccffff" fill-rule="evenodd" stroke="none"/>
  </g>
</svg>
