<?xml version="1.0" encoding="UTF-8" standalone="no"?>
<svg xmlns:ffdec="https://www.free-decompiler.com/flash" xmlns:xlink="http://www.w3.org/1999/xlink" ffdec:objectType="shape" height="11.15px" width="16.0px" xmlns="http://www.w3.org/2000/svg">
  <g transform="matrix(1.0, 0.0, 0.0, 1.0, 5.85, 6.3)">
    <path d="M1.4 -4.0 Q-1.65 -2.1 -4.85 -0.9 0.65 -5.35 7.25 -6.3 2.05 -4.5 1.4 -4.0" fill="#000000" fill-rule="evenodd" stroke="none"/>
    <path d="M5.9 0.0 Q6.55 -0.9 6.95 -0.25 7.3 0.2 7.3 0.7 7.3 2.15 5.5 3.3 3.05 4.85 -1.75 4.85 -3.1 4.85 -3.7 4.05 -4.1 3.55 -4.1 3.05 L-4.05 2.7 -4.0 2.8 Q-3.65 3.35 -2.35 3.45 L1.4 2.95 Q3.85 2.35 5.15 1.6 5.5 1.45 5.65 0.8 L5.9 0.0" fill="#000000" fill-rule="evenodd" stroke="none"/>
    <path d="M5.85 0.75 L7.9 1.1 Q9.75 1.45 10.15 1.8 10.15 2.1 9.0 2.1 L6.5 1.95 5.85 1.05 5.85 0.75" fill="#000000" fill-rule="evenodd" stroke="none"/>
    <path d="M5.7 -0.55 Q5.7 0.8 2.25 2.0 L-2.0 2.9 -2.55 2.8 -2.9 2.45 -2.95 2.4 -2.6 2.35 -2.1 2.45 1.25 2.0 3.6 1.35 4.9 0.3 5.65 -0.8 5.7 -0.55" fill="#000000" fill-rule="evenodd" stroke="none"/>
    <path d="M-5.35 -0.9 Q-5.15 -0.75 -4.8 -0.7 L-4.75 -0.55 -4.8 -0.4 -5.0 -0.35 Q-5.25 -0.35 -5.55 -0.6 L-5.85 -1.0 -5.7 -1.0 -5.35 -0.9" fill="#000000" fill-rule="evenodd" stroke="none"/>
  </g>
</svg>
