<?xml version="1.0" encoding="UTF-8" standalone="no"?>
<svg xmlns:ffdec="https://www.free-decompiler.com/flash" xmlns:xlink="http://www.w3.org/1999/xlink" ffdec:objectType="shape" height="19.1px" width="34.85px" xmlns="http://www.w3.org/2000/svg">
  <g transform="matrix(1.0, 0.0, 0.0, 1.0, 35.4, 7.05)">
    <path d="M-30.55 -1.05 L-30.9 -0.75 -30.8 -0.9 -30.55 -1.05 M-31.4 -0.1 Q-30.05 -0.6 -28.95 -1.7 L-26.8 -3.75 Q-24.0 -5.85 -16.4 -6.45 L-12.65 -6.45 -12.8 -6.3 -12.45 -6.45 -11.9 -6.45 -9.5 -6.35 -7.55 -5.6 Q-3.9 -4.05 -2.35 -2.1 L-1.8 0.0 -1.9 2.2 -2.75 4.8 -3.75 7.2 -5.2 8.65 Q-7.2 10.55 -10.35 10.75 L-8.75 7.6 Q-7.1 4.3 -7.1 1.85 L-7.4 0.5 -7.9 -0.8 Q-9.55 1.3 -14.05 4.15 -17.35 6.3 -20.8 6.45 L-20.8 6.25 Q-20.8 5.8 -19.15 3.75 L-19.2 3.45 -19.8 4.05 -19.75 4.2 Q-22.0 7.6 -23.95 7.35 L-24.85 7.85 -25.25 8.1 Q-26.9 8.9 -27.95 8.65 L-31.15 8.05 -29.95 7.6 Q-26.7 6.0 -23.6 -0.3 -24.3 0.55 -27.45 2.3 -31.8 4.7 -35.05 4.9 -34.5 3.75 -31.4 -0.1 M-21.25 -6.45 L-22.1 -6.35 -22.1 -6.45 -21.25 -6.45 M-27.3 -5.05 L-27.95 -4.65 -29.0 -3.25 -28.7 -4.0 -27.3 -5.05" fill="#b10159" fill-rule="evenodd" stroke="none"/>
    <path d="M-30.9 -0.75 L-30.55 -1.05 -30.55 -1.1 -29.4 -2.55 -29.0 -3.25 -27.95 -4.65 -27.3 -5.05 Q-25.55 -5.95 -22.1 -6.35 L-21.25 -6.45 -12.9 -6.9 -12.8 -6.65 -16.4 -6.45 Q-24.0 -5.85 -26.8 -3.75 L-28.95 -1.7 Q-30.05 -0.6 -31.4 -0.1 L-31.75 0.0 -31.8 -0.1 -30.9 -0.75 M-9.5 -6.35 L-12.45 -6.45 -12.8 -6.3 -12.65 -6.45 -12.15 -7.05 -6.15 -6.25 -3.9 -5.45 Q-4.85 -6.75 -6.0 -6.8 -4.3 -6.8 -2.75 -4.75 -2.0 -4.2 -1.85 -3.5 -0.55 -1.3 -0.55 -0.4 -0.55 1.55 -1.5 4.1 -2.65 7.25 -4.3 8.0 L-3.75 7.2 -2.75 4.8 -1.9 2.2 -1.75 1.0 -1.8 0.0 -2.35 -2.1 Q-3.9 -4.05 -7.55 -5.6 L-9.5 -6.35" fill="#000000" fill-rule="evenodd" stroke="none"/>
    <path d="M-31.65 2.05 Q-27.85 -4.45 -27.85 -1.55 -29.55 2.55 -30.7 2.55 -31.65 2.55 -31.65 2.05" fill="#ff3399" fill-rule="evenodd" stroke="none"/>
    <path d="M-20.4 -0.8 Q-20.4 -0.3 -20.7 0.15 L-21.45 1.1 -21.45 1.15 -20.7 0.7 -19.65 0.35 Q-18.95 0.35 -18.95 0.75 L-19.15 1.35 -19.15 1.4 -17.85 1.3 -17.4 1.65 -17.85 1.9 -19.0 2.15 -19.9 1.95 -19.9 1.6 Q-21.65 2.9 -22.65 3.25 -23.7 3.6 -25.75 5.55 -22.7 1.25 -20.65 -1.15 L-20.4 -0.8" fill="#ff3399" fill-rule="evenodd" stroke="none"/>
    <path d="M-16.3 1.25 L-15.4 0.95 -15.0 1.0 -14.95 1.2 Q-15.3 2.15 -16.0 2.15 -18.55 2.15 -19.4 1.6 L-19.7 1.1 Q-19.7 0.1 -18.4 0.45 -17.3 0.7 -16.85 1.25 L-16.3 1.25" fill="#ff3399" fill-rule="evenodd" stroke="none"/>
    <path d="M-6.95 -0.4 L-6.75 2.0 -7.15 4.4 -7.8 6.8 Q-10.0 11.5 -10.7 11.5 L-11.0 11.4 -11.0 11.25 -8.6 6.6 Q-7.7 4.4 -7.6 2.55 -7.55 0.7 -8.0 -0.75 L-8.5 -2.85 -8.35 -3.15 Q-7.25 -1.55 -6.95 -0.4" fill="#000000" fill-rule="evenodd" stroke="none"/>
    <path d="M-12.8 12.05 Q-11.0 10.8 -8.4 9.7 -5.5 8.45 -5.3 8.25 L-1.85 4.35 Q-3.35 7.15 -4.4 8.4 -6.05 10.35 -12.8 12.05" fill="#000000" fill-rule="evenodd" stroke="none"/>
    <path d="M-9.05 -4.15 L-8.25 -2.55 -8.0 -1.8 Q-8.0 0.45 -11.85 3.15 -14.65 5.1 -17.2 6.2 -19.15 7.15 -21.15 7.05 L-21.2 6.7 Q-17.95 5.55 -14.75 3.85 -8.3 0.5 -8.3 -2.4 L-9.05 -4.15" fill="#000000" fill-rule="evenodd" stroke="none"/>
    <path d="M-17.6 0.1 Q-19.6 6.4 -21.65 7.2 L-19.5 3.3 -17.7 -0.15 Q-17.6 -0.3 -17.6 0.1" fill="#000000" fill-rule="evenodd" stroke="none"/>
    <path d="M-22.4 -2.15 Q-26.3 8.55 -30.65 8.55 L-31.3 8.45 -31.4 8.45 -32.8 8.2 Q-30.55 7.9 -29.35 7.15 -27.0 5.6 -25.25 3.0 L-23.5 0.2 Q-22.7 -1.35 -22.55 -2.7 L-22.5 -2.7 -22.4 -2.15" fill="#000000" fill-rule="evenodd" stroke="none"/>
    <path d="M-35.05 4.65 Q-35.05 2.85 -28.0 -4.5 -32.45 1.9 -35.0 5.1 L-35.05 4.65" fill="#000000" fill-rule="evenodd" stroke="none"/>
    <path d="M-17.85 0.7 Q-17.85 2.45 -19.65 5.0 -22.45 8.95 -27.65 8.95 L-29.8 8.8 -30.65 8.5 Q-30.45 8.15 -29.45 8.15 -24.7 8.15 -22.1 6.25 -19.8 4.55 -18.0 0.4 L-17.35 -1.35 -17.85 0.7" fill="#000000" fill-rule="evenodd" stroke="none"/>
    <path d="M-34.65 5.05 L-35.35 5.0 -35.4 4.85 Q-27.55 4.25 -22.75 -2.0 -23.35 1.65 -28.4 3.65 -31.85 5.05 -34.65 5.05" fill="#000000" fill-rule="evenodd" stroke="none"/>
  </g>
</svg>
