<?xml version="1.0" encoding="UTF-8" standalone="no"?>
<svg xmlns:ffdec="https://www.free-decompiler.com/flash" xmlns:xlink="http://www.w3.org/1999/xlink" ffdec:objectType="shape" height="15.95px" width="23.4px" xmlns="http://www.w3.org/2000/svg">
  <g transform="matrix(1.0, 0.0, 0.0, 1.0, -7.5, 41.1)">
    <path d="M10.9 -27.0 Q12.2 -26.25 14.6 -26.05 L16.3 -25.55 18.35 -25.25 Q19.4 -25.45 20.55 -26.0 21.7 -26.6 21.85 -27.0 L19.95 -27.35 Q18.0 -27.6 16.85 -28.3 L15.65 -29.1 22.35 -29.5 Q28.75 -31.0 30.4 -33.35 30.2 -33.8 29.35 -33.55 L25.25 -33.75 20.25 -34.05 22.7 -35.6 Q24.8 -37.35 26.55 -40.15 L26.75 -40.5 25.9 -40.55 25.35 -40.35 Q21.95 -38.3 20.1 -39.4 18.55 -40.3 15.4 -39.35 12.4 -38.45 10.1 -36.35 7.5 -34.15 7.5 -31.85 7.35 -29.15 10.9 -27.0" fill="#b10159" fill-rule="evenodd" stroke="none"/>
    <path d="M22.0 -37.8 Q20.1 -39.1 15.4 -37.8 10.65 -36.5 13.3 -34.95 L16.9 -35.35 Q19.55 -35.9 22.0 -37.8" fill="#ff3399" fill-rule="evenodd" stroke="none"/>
    <path d="M24.65 -32.85 Q20.15 -33.45 15.05 -36.1 12.3 -37.75 11.65 -36.45 11.1 -35.1 13.6 -33.65 15.8 -32.3 17.2 -32.0 L24.65 -32.85" fill="#ff3399" fill-rule="evenodd" stroke="none"/>
    <path d="M11.15 -30.75 L12.95 -31.2 12.4 -31.6 11.8 -32.25 Q9.85 -33.4 9.2 -32.5 8.55 -31.7 9.75 -30.95 L11.15 -30.75" fill="#ff3399" fill-rule="evenodd" stroke="none"/>
    <path d="M13.7 -31.75 Q15.3 -31.6 15.8 -31.75 L15.5 -32.75 12.9 -33.45 10.0 -34.3 9.75 -34.0 Q10.45 -33.15 12.1 -32.2 L13.7 -31.75" fill="#ff3399" fill-rule="evenodd" stroke="none"/>
    <path d="M19.8 -39.15 Q24.2 -38.4 27.05 -40.8 L26.9 -41.0 24.45 -40.25 Q21.85 -39.55 19.7 -39.75 L16.3 -39.45 Q13.85 -38.95 12.85 -37.95 15.35 -39.9 19.8 -39.15" fill="#000000" fill-rule="evenodd" stroke="none"/>
    <path d="M26.75 -41.1 L22.1 -35.9 Q20.95 -34.9 19.95 -34.7 L18.25 -34.6 Q20.5 -34.0 21.7 -34.55 23.85 -35.6 26.6 -40.25 L26.75 -41.1" fill="#000000" fill-rule="evenodd" stroke="none"/>
    <path d="M30.8 -33.85 L30.85 -33.95 30.9 -34.2 23.15 -33.9 19.6 -34.35 16.35 -35.1 19.6 -33.95 23.1 -33.4 27.35 -33.05 Q30.3 -33.0 30.8 -33.85" fill="#000000" fill-rule="evenodd" stroke="none"/>
    <path d="M15.1 -29.35 Q19.05 -28.3 24.85 -30.1 29.35 -31.45 30.7 -33.65 L26.5 -31.45 Q23.8 -30.0 22.25 -29.85 L18.65 -29.55 15.1 -29.35" fill="#000000" fill-rule="evenodd" stroke="none"/>
    <path d="M13.25 -30.55 Q16.3 -28.4 17.35 -27.8 L18.8 -27.15 20.45 -26.85 22.3 -26.8 22.5 -27.1 22.25 -27.3 18.7 -28.35 Q15.2 -29.55 13.3 -30.65 L13.25 -30.55" fill="#000000" fill-rule="evenodd" stroke="none"/>
    <path d="M8.75 -28.2 L9.95 -27.4 Q12.85 -25.7 15.8 -25.3 19.65 -24.65 22.65 -27.2 21.6 -27.35 20.7 -26.8 L18.7 -25.85 17.05 -25.65 15.55 -25.9 12.85 -26.55 Q10.95 -27.15 10.05 -27.7 L8.9 -28.35 7.55 -30.0 7.5 -29.95 8.75 -28.2" fill="#000000" fill-rule="evenodd" stroke="none"/>
  </g>
</svg>
