<?xml version="1.0" encoding="UTF-8" standalone="no"?>
<svg xmlns:ffdec="https://www.free-decompiler.com/flash" xmlns:xlink="http://www.w3.org/1999/xlink" ffdec:objectType="shape" height="49.4px" width="23.05px" xmlns="http://www.w3.org/2000/svg">
  <g transform="matrix(1.0, 0.0, 0.0, 1.0, 1.75, -1.05)">
    <path d="M10.95 6.75 Q7.45 10.95 4.8 16.9 2.05 22.85 1.7 27.1 1.4 29.75 2.2 30.75 2.65 31.3 3.45 31.3 4.6 31.3 6.1 30.1 L9.0 27.1 Q12.4 22.85 15.1 16.9 L15.9 15.05 16.4 13.85 Q17.9 9.85 18.2 6.75 18.6 2.5 16.5 2.5 14.3 2.5 10.95 6.75 M10.75 10.2 Q12.8 7.45 14.05 7.45 15.25 7.45 14.75 10.2 14.45 12.95 12.65 16.85 10.85 20.75 8.75 23.5 6.7 26.25 5.5 26.25 4.3 26.25 4.75 23.5 5.1 20.75 6.85 16.85 8.65 12.95 10.75 10.2 M17.3 1.05 Q19.9 1.05 19.65 5.9 L19.5 7.35 19.5 36.65 19.55 36.65 19.5 37.3 19.5 50.45 0.05 50.45 0.05 37.6 0.05 36.65 0.05 32.1 -0.05 29.4 Q0.25 24.55 3.35 17.65 6.45 10.75 10.6 5.9 14.6 1.05 17.3 1.05 M9.2 44.75 L9.2 33.4 Q13.0 29.6 15.9 23.8 L16.2 23.2 16.55 22.5 16.55 16.9 16.2 17.65 15.9 18.3 Q12.9 24.8 9.0 29.4 L6.1 32.4 Q4.4 33.85 3.0 34.15 L3.0 37.3 5.4 36.55 5.4 44.75 4.7 48.45 Q7.3 50.05 9.9 48.45 L9.2 44.75" fill="#275c0b" fill-rule="evenodd" stroke="none"/>
    <path d="M5.4 44.75 L9.2 44.75 9.9 48.45 Q7.3 50.05 4.7 48.45 L5.4 44.75" fill="#6d9e58" fill-rule="evenodd" stroke="none"/>
    <path d="M5.4 44.75 L5.4 36.55 3.0 37.3 3.0 34.15 Q4.4 33.85 6.1 32.4 L9.0 29.4 Q12.9 24.8 15.9 18.3 L16.2 17.65 16.55 16.9 16.55 22.5 16.2 23.2 15.9 23.8 Q13.0 29.6 9.2 33.4 L9.2 44.75 5.4 44.75" fill="#4c7f36" fill-rule="evenodd" stroke="none"/>
    <path d="M10.95 6.75 Q14.3 2.5 16.5 2.5 18.6 2.5 18.2 6.75 17.9 9.85 16.4 13.85 L15.9 15.05 15.1 16.9 Q12.4 22.85 9.0 27.1 L6.1 30.1 Q4.6 31.3 3.45 31.3 2.65 31.3 2.2 30.75 1.4 29.75 1.7 27.1 2.05 22.85 4.8 16.9 7.45 10.95 10.95 6.75 M10.75 10.2 Q8.65 12.95 6.85 16.85 5.1 20.75 4.75 23.5 4.3 26.25 5.5 26.25 6.7 26.25 8.75 23.5 10.85 20.75 12.65 16.85 14.45 12.95 14.75 10.2 15.25 7.45 14.05 7.45 12.8 7.45 10.75 10.2" fill="#e7ecad" fill-rule="evenodd" stroke="none"/>
    <path d="M8.5 17.1 Q10.05 13.9 11.65 11.65 13.3 9.4 14.05 9.4 14.8 9.4 14.15 11.65 13.65 13.9 12.1 17.1 10.5 20.25 8.9 22.5 7.35 24.75 6.6 24.75 5.85 24.75 6.45 22.5 6.95 20.25 8.5 17.1" fill="#132e04" fill-rule="evenodd" stroke="none"/>
    <path d="M1.55 31.35 Q2.15 31.75 2.95 31.75 L3.0 31.75 3.0 50.45 0.05 50.45 0.05 31.25 1.45 31.25 1.55 31.35" fill="#112507" fill-rule="evenodd" stroke="none"/>
    <path d="M16.55 14.25 L17.35 11.9 18.25 7.75 18.35 7.35 19.5 7.35 19.5 50.45 16.55 50.45 16.55 14.25" fill="#000000" fill-rule="evenodd" stroke="none"/>
    <path d="M13.85 8.25 Q12.8 8.25 11.0 10.7 9.15 13.15 7.6 16.6 6.05 20.05 5.65 22.5 5.3 24.95 6.35 24.95 7.4 24.95 9.2 22.5 11.05 20.05 12.6 16.6 14.15 13.15 14.55 10.7 14.9 8.25 13.85 8.25 M14.05 7.45 Q15.25 7.45 14.75 10.2 14.45 12.95 12.65 16.85 10.85 20.75 8.75 23.5 6.7 26.25 5.5 26.25 4.3 26.25 4.75 23.5 5.1 20.75 6.85 16.85 8.65 12.95 10.75 10.2 12.8 7.45 14.05 7.45" fill="#112507" fill-rule="evenodd" stroke="none"/>
    <path d="M17.3 1.05 Q19.9 1.05 19.65 5.9 19.45 9.35 17.8 13.85 L16.2 17.65 15.9 18.3 Q12.9 24.8 9.0 29.4 L6.1 32.4 Q3.9 34.25 2.25 34.25 L2.2 34.25 Q-0.4 34.2 -0.05 29.4 0.25 24.55 3.35 17.65 6.45 10.75 10.6 5.9 14.6 1.05 17.3 1.05 M16.5 2.5 Q14.3 2.5 10.95 6.75 7.45 10.95 4.8 16.9 2.05 22.85 1.7 27.1 1.4 29.75 2.2 30.75 2.65 31.3 3.45 31.3 4.6 31.3 6.1 30.1 L9.0 27.1 Q12.4 22.85 15.1 16.9 L15.9 15.05 16.4 13.85 Q17.9 9.85 18.2 6.75 18.6 2.5 16.5 2.5" fill="#525626" fill-rule="evenodd" stroke="none"/>
    <path d="M1.5 45.25 Q2.05 46.15 2.05 47.4 2.05 48.65 1.5 49.55 0.95 50.45 0.15 50.45 -0.65 50.45 -1.2 49.55 -1.75 48.65 -1.75 47.4 L-1.75 47.35 0.05 44.35 0.15 44.35 Q0.95 44.35 1.5 45.25" fill="#112507" fill-rule="evenodd" stroke="none"/>
    <path d="M18.05 45.25 Q17.5 46.15 17.5 47.4 17.5 48.65 18.05 49.55 18.6 50.45 19.4 50.45 20.2 50.45 20.75 49.55 21.3 48.65 21.3 47.4 L21.3 47.35 19.5 44.35 19.4 44.35 Q18.6 44.35 18.05 45.25" fill="#000000" fill-rule="evenodd" stroke="none"/>
    <path d="M19.35 47.75 L19.35 47.8 Q19.35 48.85 18.5 49.65 17.65 50.45 16.4 50.45 15.15 50.45 14.3 49.65 13.45 48.85 13.45 47.8 13.45 46.7 14.3 45.9 15.15 45.15 16.4 45.15 L16.55 45.15 19.35 47.75" fill="#275c0b" fill-rule="evenodd" stroke="none"/>
    <path d="M3.15 45.15 L3.9 45.25 3.9 50.4 3.15 50.45 Q1.9 50.45 1.05 49.65 0.2 48.85 0.2 47.8 L0.2 47.75 3.0 45.15 3.15 45.15" fill="#275c0b" fill-rule="evenodd" stroke="none"/>
  </g>
</svg>
