<?xml version="1.0" encoding="UTF-8" standalone="no"?>
<svg xmlns:ffdec="https://www.free-decompiler.com/flash" xmlns:xlink="http://www.w3.org/1999/xlink" ffdec:objectType="shape" height="53.35px" width="37.5px" xmlns="http://www.w3.org/2000/svg">
  <g transform="matrix(1.0, 0.0, 0.0, 1.0, -0.9, 11.65)">
    <path d="M0.9 34.0 Q0.9 30.45 6.45 27.95 11.9 25.35 19.65 25.35 27.4 25.35 32.95 27.95 38.4 30.45 38.4 34.0 38.4 37.55 32.8 39.7 27.2 41.85 19.3 41.7 11.4 41.55 6.15 39.55 0.9 37.55 0.9 34.0" fill="#2b1600" fill-rule="evenodd" stroke="none"/>
    <path d="M31.4 28.65 Q36.25 30.9 36.25 34.0 36.25 37.15 31.4 39.45 26.5 41.65 19.65 41.65 12.8 41.65 7.95 39.45 3.05 37.15 3.05 34.0 3.05 30.9 7.95 28.65 12.8 26.35 19.65 26.35 26.5 26.35 31.4 28.65" fill="#b3894c" fill-rule="evenodd" stroke="none"/>
    <path d="M10.2 3.25 L10.85 1.45 11.25 0.45 11.3 0.35 12.05 -1.4 Q13.4 -4.55 15.05 -7.2 L16.1 -6.35 Q17.4 -6.0 18.7 -8.15 18.9 -5.95 19.85 -3.5 20.05 -5.7 21.1 -8.1 21.95 -5.75 24.1 -5.95 L24.75 -7.5 24.85 -7.35 Q26.95 -3.85 28.7 0.35 L28.75 0.45 29.05 1.15 29.15 1.45 29.8 3.25 10.2 3.25" fill="#fff6d9" fill-rule="evenodd" stroke="none"/>
    <path d="M30.9 6.55 L30.95 6.75 31.55 8.9 31.65 9.25 32.6 13.15 32.6 21.75 5.75 21.75 Q6.75 15.0 8.3 9.25 L8.4 8.9 9.05 6.75 9.1 6.55 Q18.8 13.7 30.9 6.55" fill="#bf965b" fill-rule="evenodd" stroke="none"/>
    <path d="M32.6 13.15 Q34.6 22.0 35.45 33.0 35.65 34.95 35.1 35.65 L35.0 35.75 4.95 35.75 4.85 35.65 Q4.3 34.95 4.5 33.0 4.95 27.05 5.75 21.75 L32.6 21.75 32.6 13.15" fill="#9e7130" fill-rule="evenodd" stroke="none"/>
    <path d="M10.2 3.25 L29.8 3.25 30.9 6.55 Q18.8 13.7 9.1 6.55 L10.2 3.25" fill="#f1e0b0" fill-rule="evenodd" stroke="none"/>
    <path d="M21.8 -4.6 Q21.6 -2.95 20.7 -1.7 19.75 -0.55 18.65 -0.55 17.5 -0.55 16.9 -1.7 16.15 -2.95 16.35 -4.6 16.5 -6.25 17.5 -7.45 18.35 -8.65 19.5 -8.65 20.6 -8.65 21.3 -7.45 21.95 -6.25 21.8 -4.6" fill="#ffffff" fill-rule="evenodd" stroke="none"/>
    <path d="M22.0 -6.6 Q21.75 -8.7 20.65 -9.45 19.5 -10.2 18.3 -9.2 17.1 -8.2 16.65 -6.3 L16.1 -6.35 15.05 -7.2 15.1 -7.35 16.7 -9.8 16.9 -10.15 Q20.1 -13.15 22.85 -10.2 L23.05 -10.1 24.75 -7.5 24.1 -5.95 Q22.8 -5.85 22.0 -6.6" fill="#6a9b2b" fill-rule="evenodd" stroke="none"/>
    <path d="M16.65 -6.3 Q17.1 -8.2 18.3 -9.2 19.5 -10.2 20.65 -9.45 21.75 -8.7 22.0 -6.6 L21.1 -8.1 Q20.05 -5.7 19.85 -3.5 18.9 -5.95 18.7 -8.15 17.65 -6.45 16.65 -6.3" fill="#79d800" fill-rule="evenodd" stroke="none"/>
    <path d="M18.75 -10.4 L16.55 -6.5 16.1 -5.65 Q8.6 9.55 8.0 32.8 6.7 35.6 5.4 35.3 4.25 35.0 4.5 32.35 6.75 3.9 16.9 -10.1 17.7 -10.55 18.75 -10.4 M21.2 -10.4 L23.05 -10.1 Q33.2 3.9 35.45 32.35 35.7 35.0 34.55 35.3 33.25 35.6 31.95 32.8 31.25 5.75 21.2 -10.4" fill="#2d4907" fill-rule="evenodd" stroke="none"/>
  </g>
</svg>
