<?xml version="1.0" encoding="UTF-8" standalone="no"?>
<svg xmlns:ffdec="https://www.free-decompiler.com/flash" xmlns:xlink="http://www.w3.org/1999/xlink" ffdec:objectType="shape" height="38.05px" width="19.9px" xmlns="http://www.w3.org/2000/svg">
  <g transform="matrix(1.0, 0.0, 0.0, 1.0, 0.0, 0.05)">
    <path d="M5.7 38.0 L0.25 38.0 0.25 25.15 0.1 19.2 0.0 16.6 Q0.0 9.7 2.95 4.85 5.85 0.0 9.95 0.0 14.1 0.0 17.0 4.85 19.9 9.7 19.9 16.6 L19.85 18.95 19.9 18.95 19.7 24.85 19.7 38.0 9.55 38.0 9.55 35.1 9.95 35.1 11.35 34.95 13.15 34.5 14.8 33.65 16.8 31.9 16.8 26.55 16.45 26.55 Q15.95 28.45 14.8 30.0 L14.8 30.05 Q12.7 32.9 9.7 32.9 7.4 32.9 5.65 31.2 L4.65 30.05 Q3.65 28.75 3.15 27.2 L3.15 31.9 5.65 33.95 5.7 33.95 5.7 38.0 M13.15 22.6 Q14.0 20.2 14.0 16.95 14.0 13.3 12.85 10.8 11.65 8.2 10.0 8.2 8.3 8.2 7.2 10.8 5.95 13.3 5.95 16.95 5.95 20.5 7.15 23.05 L6.9 22.6 6.5 21.6 6.15 20.7 Q5.55 18.55 5.55 15.9 5.55 12.05 6.9 9.3 8.15 6.5 10.0 6.5 11.85 6.5 13.15 9.3 14.45 12.05 14.45 15.9 14.45 18.55 13.85 20.7 L13.55 21.6 13.15 22.6 M9.65 1.4 Q6.35 1.4 4.1 5.6 1.75 9.8 1.75 15.75 1.75 18.95 2.4 21.7 3.0 24.0 4.1 25.9 L5.2 27.65 Q6.35 29.15 7.75 29.75 L7.9 29.8 Q8.7 30.2 9.7 30.2 10.9 30.2 12.0 29.55 13.85 28.55 15.3 25.9 L15.35 25.85 Q16.55 23.5 17.15 20.7 17.6 18.4 17.6 15.75 17.6 9.8 15.3 5.6 13.0 1.4 9.65 1.4" fill="#275c0b" fill-rule="evenodd" stroke="none"/>
    <path d="M13.15 22.6 L13.55 21.6 13.85 20.7 Q14.45 18.55 14.45 15.9 14.45 12.05 13.15 9.3 11.85 6.5 10.0 6.5 8.15 6.5 6.9 9.3 5.55 12.05 5.55 15.9 5.55 18.55 6.15 20.7 L6.5 21.6 6.9 22.6 7.15 23.05 7.2 23.2 Q8.35 25.3 10.0 25.3 11.7 25.3 12.95 23.1 L13.05 22.95 13.15 22.6 M9.65 1.4 Q13.0 1.4 15.3 5.6 17.6 9.8 17.6 15.75 17.6 18.4 17.15 20.7 16.55 23.5 15.35 25.85 L15.3 25.9 Q13.85 28.55 12.0 29.55 10.9 30.2 9.7 30.2 8.7 30.2 7.9 29.8 L7.75 29.75 Q6.35 29.15 5.2 27.65 L4.1 25.9 Q3.0 24.0 2.4 21.7 1.75 18.95 1.75 15.75 1.75 9.8 4.1 5.6 6.35 1.4 9.65 1.4" fill="#cfd682" fill-rule="evenodd" stroke="none"/>
    <path d="M7.15 23.05 Q5.95 20.5 5.95 16.95 5.95 13.3 7.2 10.8 8.3 8.2 10.0 8.2 11.65 8.2 12.85 10.8 14.0 13.3 14.0 16.95 14.0 20.2 13.15 22.6 L13.05 22.95 12.95 23.1 Q11.7 25.3 10.0 25.3 8.35 25.3 7.2 23.2 L7.15 23.05" fill="#132e04" fill-rule="evenodd" stroke="none"/>
    <path d="M5.7 38.0 L5.7 33.95 5.65 33.95 3.15 31.9 3.15 27.2 Q3.65 28.75 4.65 30.05 L5.65 31.2 Q7.4 32.9 9.7 32.9 12.7 32.9 14.8 30.05 L14.8 30.0 Q15.95 28.45 16.45 26.55 L16.8 26.55 16.8 31.9 14.8 33.65 13.15 34.5 11.35 34.95 9.95 35.1 9.55 35.1 9.55 38.0 5.7 38.0" fill="#6d9e58" fill-rule="evenodd" stroke="none"/>
    <path d="M17.25 22.35 L17.75 18.95 19.9 18.95 19.7 24.85 19.7 38.0 16.75 38.0 16.75 25.15 16.75 24.8 17.25 22.35" fill="#000000" fill-rule="evenodd" stroke="none"/>
    <path d="M1.85 20.85 L2.35 22.85 Q2.7 24.55 3.15 25.15 L3.2 25.25 3.2 38.0 0.25 38.0 0.25 25.15 0.1 18.95 1.55 18.95 1.85 20.85" fill="#112507" fill-rule="evenodd" stroke="none"/>
    <path d="M10.35 7.3 Q8.75 7.3 7.65 9.75 6.5 12.2 6.5 15.65 6.5 19.1 7.65 21.55 8.75 24.0 10.35 24.0 11.95 24.0 13.1 21.55 14.2 19.1 14.2 15.65 14.2 12.2 13.1 9.75 11.95 7.3 10.35 7.3 M6.85 9.25 Q8.15 6.5 10.0 6.5 11.85 6.5 13.15 9.25 14.45 12.0 14.45 15.9 14.45 19.8 13.15 22.55 11.85 25.3 10.0 25.3 8.15 25.3 6.85 22.55 5.55 19.8 5.55 15.9 5.55 12.0 6.85 9.25" fill="#112507" fill-rule="evenodd" stroke="none"/>
    <path d="M4.1 5.65 Q1.75 9.85 1.75 15.8 1.75 21.75 4.1 26.0 6.4 30.2 9.7 30.2 13.0 30.2 15.35 26.0 17.65 21.75 17.65 15.8 17.65 9.85 15.35 5.65 13.0 1.4 9.7 1.4 6.4 1.4 4.1 5.65 M2.95 4.8 Q5.85 -0.05 9.95 -0.05 14.05 -0.05 17.0 4.8 19.9 9.65 19.9 16.55 19.9 23.45 17.0 28.3 14.05 33.15 9.95 33.15 5.85 33.15 2.95 28.3 0.0 23.45 0.0 16.55 0.0 9.65 2.95 4.8" fill="#525626" fill-rule="evenodd" stroke="none"/>
  </g>
</svg>
