<?xml version="1.0" encoding="UTF-8" standalone="no"?>
<svg xmlns:ffdec="https://www.free-decompiler.com/flash" xmlns:xlink="http://www.w3.org/1999/xlink" ffdec:objectType="shape" height="29.9px" width="31.8px" xmlns="http://www.w3.org/2000/svg">
  <g transform="matrix(1.0, 0.0, 0.0, 1.0, -3.0, -30.05)">
    <path d="M7.9 33.25 Q9.4 31.95 11.4 30.8 L20.6 30.35 20.8 30.4 Q22.95 31.1 24.75 33.6 26.0 35.35 26.2 37.25 26.45 39.6 24.8 41.45 L23.6 42.45 Q21.2 44.2 18.45 42.3 L16.15 40.0 Q14.85 38.2 14.8 37.7 14.65 36.35 16.5 33.55 L15.4 33.6 14.95 33.15 Q13.95 33.05 7.95 37.35 L7.9 33.25 M8.2 43.75 L9.05 42.85 Q11.6 40.55 14.5 44.6 15.9 46.5 16.2 47.6 16.9 50.05 14.8 51.55 L13.3 52.45 Q9.1 49.7 8.2 43.75 M22.15 54.75 L21.75 54.5 19.25 51.5 Q18.45 50.4 18.95 48.8 19.5 47.05 21.35 45.7 23.05 44.45 25.3 45.9 26.5 46.6 27.4 47.65 L27.85 48.3 28.1 48.7 Q28.45 49.45 28.15 50.35 L28.1 50.5 28.2 50.45 Q26.5 54.45 22.15 54.75" fill="#883434" fill-rule="evenodd" stroke="none"/>
    <path d="M7.95 37.35 L7.8 37.45 Q6.35 38.5 5.75 40.25 L4.85 43.3 3.95 42.9 3.35 42.45 Q2.4 41.2 3.9 38.0 5.0 35.85 7.1 33.95 L7.9 33.25 7.95 37.35 M13.3 52.45 L12.85 52.6 Q11.15 53.2 9.9 52.2 L11.6 54.8 Q12.7 56.3 13.75 56.7 L17.95 57.7 17.05 59.3 Q14.35 61.3 10.35 57.25 L6.9 52.7 Q5.9 51.35 6.15 48.75 6.45 46.4 7.7 44.45 L8.2 43.75 Q9.1 49.7 13.3 52.45 M28.2 50.45 L29.45 49.65 Q33.25 46.9 32.85 42.55 31.65 38.25 31.75 37.0 32.45 36.95 32.85 37.5 34.8 40.25 34.8 43.95 34.75 49.85 28.6 54.25 25.9 56.2 23.45 55.45 22.75 55.2 22.15 54.75 26.5 54.45 28.2 50.45" fill="#5f2e2e" fill-rule="evenodd" stroke="none"/>
  </g>
</svg>
