<?xml version="1.0" encoding="UTF-8" standalone="no"?>
<svg xmlns:ffdec="https://www.free-decompiler.com/flash" xmlns:xlink="http://www.w3.org/1999/xlink" ffdec:objectType="shape" height="51.35px" width="31.75px" xmlns="http://www.w3.org/2000/svg">
  <g transform="matrix(1.0, 0.0, 0.0, 1.0, 21.35, 21.9)">
    <path d="M-7.5 -21.0 L-7.05 -21.4 -5.3 -21.9 0.85 -21.45 -7.5 -21.0" fill="#5f6158" fill-rule="evenodd" stroke="none"/>
    <path d="M2.25 8.45 L0.15 13.55 -1.7 18.25 Q-4.25 19.65 -12.85 19.7 L-15.0 17.95 -16.65 5.15 Q-16.65 3.65 -15.65 -1.4 -14.5 -7.0 -13.55 -9.1 -12.9 -10.5 -10.35 -12.45 -7.8 -14.4 -7.05 -15.9 -3.95 -17.75 1.35 -15.1 4.05 -10.8 2.25 8.45" fill="#acac96" fill-rule="evenodd" stroke="none"/>
    <path d="M3.45 -20.9 Q5.6 -20.6 7.35 -19.55 L8.2 -19.0 8.45 -18.25 9.0 -14.25 9.8 -11.4 10.4 -8.9 9.65 5.1 Q9.65 8.55 8.6 14.15 7.2 21.45 5.1 23.45 L2.7 26.55 0.7 28.7 Q-0.95 29.45 -6.45 29.45 L-13.75 28.8 Q-16.85 28.2 -17.8 27.5 -19.5 26.25 -19.4 25.55 -19.05 23.3 -19.2 22.15 L-21.35 9.55 Q-21.35 6.4 -20.4 1.6 L-18.9 -5.5 Q-17.95 -10.45 -17.2 -12.55 -16.1 -15.75 -14.25 -17.4 -13.55 -18.05 -11.35 -19.05 L-9.85 -19.7 -10.85 -19.0 -12.55 -17.55 Q-19.25 -11.25 -19.25 0.55 -19.25 5.9 -20.85 8.8 L-18.7 22.6 Q-18.25 24.95 -17.9 25.3 -16.05 27.1 -6.05 28.3 -2.6 28.3 -0.9 26.2 L1.7 23.0 5.15 21.05 Q5.55 20.75 5.65 19.8 L6.6 14.35 8.25 5.4 Q9.55 -2.5 9.55 -7.5 L8.7 -12.5 Q7.75 -16.7 7.65 -17.8 L6.95 -19.0 3.45 -20.9" fill="#595c4e" fill-rule="evenodd" stroke="none"/>
    <path d="M1.35 -18.25 Q4.75 -17.7 4.95 -12.5 L4.1 9.75 Q4.55 12.5 2.75 16.25 0.9 19.95 -0.65 21.2 -2.5 22.25 -8.35 22.65 L-13.85 22.9 -16.35 20.85 -18.35 5.8 Q-18.35 4.35 -17.0 -2.05 -15.6 -8.75 -14.7 -11.25 -14.0 -13.2 -10.75 -15.35 L-6.5 -18.4 1.35 -18.25 M2.25 8.45 Q4.05 -10.8 1.35 -15.1 -3.95 -17.75 -7.05 -15.9 -7.8 -14.4 -10.35 -12.45 -12.9 -10.5 -13.55 -9.1 -14.5 -7.0 -15.65 -1.4 -16.65 3.65 -16.65 5.15 L-15.0 17.95 -12.85 19.7 Q-4.25 19.65 -1.7 18.25 L0.15 13.55 2.25 8.45" fill="#909586" fill-rule="evenodd" stroke="none"/>
    <path d="M-9.85 -19.7 L-7.5 -21.0 0.85 -21.45 3.45 -20.9 6.95 -19.0 7.65 -17.8 Q7.75 -16.7 8.7 -12.5 L9.55 -7.5 Q9.55 -2.5 8.25 5.4 L6.6 14.35 5.65 19.8 Q5.55 20.75 5.15 21.05 L1.7 23.0 -0.9 26.2 Q-2.6 28.3 -6.05 28.3 -16.05 27.1 -17.9 25.3 -18.25 24.95 -18.7 22.6 L-20.85 8.8 Q-19.25 5.9 -19.25 0.55 -19.25 -11.25 -12.55 -17.55 L-10.85 -19.0 -9.85 -19.7 M1.35 -18.25 L-6.5 -18.4 -10.75 -15.35 Q-14.0 -13.2 -14.7 -11.25 -15.6 -8.75 -17.0 -2.05 -18.35 4.35 -18.35 5.8 L-16.35 20.85 -13.85 22.9 -8.35 22.65 Q-2.5 22.25 -0.65 21.2 0.9 19.95 2.75 16.25 4.55 12.5 4.1 9.75 L4.95 -12.5 Q4.75 -17.7 1.35 -18.25" fill="#7c7f74" fill-rule="evenodd" stroke="none"/>
  </g>
</svg>
