<?xml version="1.0" encoding="UTF-8" standalone="no"?>
<svg xmlns:ffdec="https://www.free-decompiler.com/flash" xmlns:xlink="http://www.w3.org/1999/xlink" ffdec:objectType="shape" height="16.0px" width="31.75px" xmlns="http://www.w3.org/2000/svg">
  <g transform="matrix(1.0, 0.0, 0.0, 1.0, 0.0, 0.0)">
    <path d="M6.25 9.65 Q3.8 9.1 2.15 7.6 0.0 5.8 0.0 4.05 0.0 3.35 0.8 3.25 L3.25 3.25 14.7 2.4 18.55 1.75 19.55 1.55 23.65 0.7 28.6 0.0 Q29.2 0.0 29.7 0.4 30.9 1.35 31.45 4.6 L31.75 9.35 Q31.75 11.4 31.25 13.25 30.5 15.7 29.2 15.7 L26.95 13.2 Q24.5 10.55 21.85 9.8 L21.8 9.8 Q25.5 6.8 21.3 5.85 L16.75 6.15 Q10.7 5.55 6.25 9.65" fill="#372916" fill-rule="evenodd" stroke="none"/>
    <path d="M21.8 9.8 L16.0 9.8 15.65 9.9 9.85 9.9 6.25 9.65 Q10.7 5.55 16.75 6.15 L21.3 5.85 Q25.5 6.8 21.8 9.8" fill="#685132" fill-rule="evenodd" stroke="none"/>
    <path d="M28.8 16.0 Q27.55 13.0 24.05 12.05 L7.25 12.05 Q2.35 10.65 0.65 6.05 3.05 9.1 7.4 9.05 L22.3 9.05 Q25.85 9.45 27.9 11.3 29.95 13.15 29.95 14.5 29.95 15.95 28.8 16.0" fill="#000000" fill-rule="evenodd" stroke="none"/>
  </g>
</svg>
