<?xml version="1.0" encoding="UTF-8" standalone="no"?>
<svg xmlns:ffdec="https://www.free-decompiler.com/flash" xmlns:xlink="http://www.w3.org/1999/xlink" ffdec:objectType="shape" height="136.6px" width="27.95px" xmlns="http://www.w3.org/2000/svg">
  <g transform="matrix(1.0, 0.0, 0.0, 1.0, -4.95, 82.85)">
    <path d="M28.85 -80.35 L29.0 -78.7 Q28.55 -75.5 28.75 -74.35 L28.75 -45.85 28.8 -45.7 28.8 -2.35 28.85 -2.2 28.9 40.15 28.9 42.15 Q29.45 41.15 29.95 41.85 L30.4 43.2 Q30.4 44.15 30.85 45.8 L31.3 47.7 31.55 47.9 Q31.9 48.3 31.9 48.8 L31.75 49.45 Q32.9 49.5 32.9 50.2 L32.75 50.6 Q20.65 56.95 5.05 50.6 L4.95 50.2 Q4.95 49.45 5.7 49.45 L8.0 49.45 7.8 48.75 Q7.8 48.15 8.3 47.85 L9.55 47.45 9.55 47.35 6.45 47.5 Q7.95 46.8 8.95 45.95 8.95 44.45 9.7 39.8 L10.5 34.55 10.85 24.5 Q10.95 23.9 11.35 23.6 L11.4 -45.3 11.45 -45.45 11.45 -61.05 11.5 -61.2 11.5 -72.0 Q11.7 -73.35 11.1 -77.4 11.0 -79.25 11.55 -80.1 L10.95 -80.3 Q10.25 -80.6 10.25 -81.4 10.25 -82.95 13.1 -82.85 L27.8 -82.85 Q28.5 -82.8 28.9 -82.25 L29.25 -81.35 29.0 -80.6 28.85 -80.35" fill="#372916" fill-rule="evenodd" stroke="none"/>
  </g>
</svg>
