<?xml version="1.0" encoding="UTF-8" standalone="no"?>
<svg xmlns:ffdec="https://www.free-decompiler.com/flash" xmlns:xlink="http://www.w3.org/1999/xlink" ffdec:objectType="shape" height="43.55px" width="67.4px" xmlns="http://www.w3.org/2000/svg">
  <g transform="matrix(1.0, 0.0, 0.0, 1.0, -1.45, 0.85)">
    <path d="M48.5 13.3 L48.4 13.4 48.5 13.3" fill="#6c8947" fill-rule="evenodd" stroke="none"/>
    <path d="M62.65 20.15 L62.9 22.15 62.6 24.25 62.8 26.0 62.9 28.55 Q63.1 30.15 63.85 31.1 L65.35 33.9 Q66.7 36.2 67.6 36.2 L68.35 36.0 68.3 36.05 68.15 36.15 66.35 37.55 65.85 37.7 Q61.7 39.5 60.65 39.7 L56.15 40.3 52.0 40.7 36.05 40.95 35.65 40.95 34.9 40.75 Q20.7 37.25 11.0 30.25 1.95 23.65 2.0 17.6 L1.95 17.6 2.0 17.5 2.0 16.85 Q2.1 15.65 2.55 14.6 2.95 13.35 3.65 12.6 L3.8 12.4 4.15 11.55 Q5.1 9.4 6.45 8.85 6.8 8.15 7.9 7.05 9.7 5.4 11.8 4.4 15.8 2.45 18.0 4.1 19.55 3.45 19.55 5.35 L19.55 6.1 19.65 6.4 20.0 10.5 20.45 10.7 21.1 12.55 Q22.1 14.8 23.5 14.8 24.3 14.8 24.8 14.25 25.2 13.8 25.2 13.2 25.2 11.6 24.45 10.45 L24.65 10.0 Q26.65 6.55 31.45 7.2 36.25 7.85 39.6 10.8 43.0 13.7 46.05 19.45 49.05 25.15 50.85 21.85 L52.0 21.55 51.95 21.3 Q51.95 19.55 53.6 18.3 55.2 17.15 57.3 17.1 60.7 17.0 61.95 19.3 62.55 19.55 62.65 20.15" fill="#435b14" fill-rule="evenodd" stroke="none"/>
    <path d="M31.5 7.4 Q34.4 7.9 37.45 9.2 34.85 8.3 32.35 8.4 28.15 8.45 26.65 11.05 25.65 12.75 26.25 14.95 L26.4 15.2 Q26.55 17.55 24.55 17.2 L24.4 16.8 Q24.1 16.55 23.8 16.4 L23.8 12.5 Q23.95 11.2 24.65 10.0 26.65 6.55 31.5 7.4 M56.8 39.05 L56.85 39.05 Q66.05 38.0 67.5 35.25 L68.85 35.25 Q66.4 39.55 59.3 41.5 49.15 44.25 34.9 40.75 20.7 37.25 11.0 30.25 5.0 25.9 3.0 21.75 L3.1 21.75 Q1.45 18.4 1.5 15.1 L1.45 15.1 1.5 14.95 1.5 13.9 Q1.65 11.95 2.4 10.3 2.3 9.3 3.05 8.45 3.7 7.6 4.0 6.25 9.65 -1.6 15.45 -0.8 19.25 0.35 18.8 4.7 L16.1 4.65 Q13.05 4.95 10.95 6.05 5.0 9.2 5.0 16.1 L5.05 17.85 5.85 19.85 7.0 21.75 6.85 21.75 Q8.75 24.8 13.9 28.15 22.65 33.85 35.5 37.0 47.7 40.0 56.8 39.05 M60.05 17.85 Q58.6 17.15 57.3 17.35 L56.65 17.45 Q55.85 17.75 55.25 18.3 L54.4 19.3 53.95 20.2 Q52.6 22.9 53.4 26.75 L53.7 28.0 54.0 28.95 54.35 29.9 Q54.35 31.95 51.8 30.05 L51.15 28.0 Q49.6 22.8 51.8 19.3 L53.3 17.5 53.4 17.45 54.2 16.95 Q55.4 16.3 56.9 16.05 58.5 16.15 59.8 16.95 62.6 19.0 62.55 20.65 61.5 18.55 60.05 17.85" fill="#253308" fill-rule="evenodd" stroke="none"/>
    <path d="M44.75 18.95 L44.75 16.5 44.95 16.9 Q47.15 21.55 49.85 22.45 L50.15 22.45 Q52.15 23.0 51.1 25.45 51.0 27.3 51.95 30.1 L46.85 23.8 47.0 23.75 Q45.15 22.2 44.75 18.95" fill="#253308" fill-rule="evenodd" stroke="none"/>
    <path d="M21.35 15.1 L21.5 15.05 Q19.65 13.5 19.25 10.25 19.05 8.1 19.55 5.0 L19.9 5.0 Q19.9 7.15 20.45 9.1 21.65 12.85 24.35 13.75 L24.65 13.75 Q26.65 14.3 25.6 16.75 24.75 17.15 24.0 17.65 L21.35 15.1" fill="#253308" fill-rule="evenodd" stroke="none"/>
    <path d="M64.25 34.4 L64.4 34.35 Q62.55 32.8 62.15 29.55 61.85 26.5 63.0 21.4 62.4 25.15 63.35 28.4 64.55 32.15 67.25 33.05 L67.55 33.05 Q69.55 33.6 68.5 36.05 67.65 36.45 66.9 36.95 L64.25 34.4" fill="#253308" fill-rule="evenodd" stroke="none"/>
  </g>
</svg>
