<?xml version="1.0" encoding="UTF-8" standalone="no"?>
<svg xmlns:ffdec="https://www.free-decompiler.com/flash" xmlns:xlink="http://www.w3.org/1999/xlink" ffdec:objectType="shape" height="82.4px" width="64.3px" xmlns="http://www.w3.org/2000/svg">
  <g transform="matrix(1.0, 0.0, 0.0, 1.0, 32.15, 39.2)">
    <path d="M-10.4 -22.45 L-10.25 -22.25 Q-1.9 -17.75 7.0 -21.8 L7.95 -22.3 Q14.3 -14.35 13.55 -4.75 13.4 -2.55 11.75 -1.05 -0.65 10.7 -13.2 -1.35 -14.75 -2.9 -14.6 -5.35 -14.15 -14.3 -10.4 -22.45 M9.0 -22.95 L10.75 -24.5 11.3 -27.0 Q16.75 -24.4 18.75 -20.35 L16.75 -20.55 14.25 -22.25 14.6 -20.95 Q11.7 -21.65 9.0 -22.95 M-12.95 -26.45 L-12.75 -26.25 -12.25 -24.5 -10.9 -22.95 Q-12.5 -21.55 -14.4 -20.3 L-15.2 -19.8 -14.9 -20.7 -16.3 -19.2 Q-18.6 -18.1 -21.15 -17.45 -18.75 -22.15 -12.95 -26.45 M-9.1 35.4 Q-0.6 37.55 7.85 35.0 L9.9 34.45 10.0 34.45 19.65 33.45 Q20.05 34.45 19.6 35.3 19.1 36.3 18.2 36.75 16.8 37.45 15.35 37.8 L11.0 38.4 5.3 38.65 -12.6 38.3 -17.75 37.75 -16.75 34.25 -9.95 35.3 -9.1 35.4 M15.75 19.0 Q10.75 24.2 3.9 26.15 L0.2 26.9 -0.1 26.9 Q-3.75 26.85 -7.0 25.2 -10.9 23.2 -13.95 19.95 L-13.85 19.7 Q-13.35 18.25 -11.95 17.5 -8.15 15.6 -3.95 14.8 L5.7 14.45 Q10.75 14.55 14.5 17.6 L15.75 19.0" fill="#a9aca2" fill-rule="evenodd" stroke="none"/>
    <path d="M7.95 -22.3 L9.0 -22.95 Q11.7 -21.65 14.6 -20.95 L20.15 -0.5 16.0 2.25 Q6.75 8.0 -4.35 7.1 -10.45 6.25 -15.95 3.45 -18.75 2.05 -20.0 -0.9 L-19.0 -5.85 Q-17.45 -12.95 -15.2 -19.8 L-14.4 -20.3 Q-12.5 -21.55 -10.9 -22.95 L-10.4 -22.45 Q-14.15 -14.3 -14.6 -5.35 -14.75 -2.9 -13.2 -1.35 -0.65 10.7 11.75 -1.05 13.4 -2.55 13.55 -4.75 14.3 -14.35 7.95 -22.3 M-22.2 -15.05 L-21.15 -17.45 Q-18.6 -18.1 -16.3 -19.2 -17.9 -17.0 -20.05 -15.9 L-22.2 -15.05 M-20.15 36.35 L-18.75 34.2 -11.4 34.55 -9.1 35.4 -9.95 35.3 -16.75 34.25 -17.75 37.75 -12.6 38.3 5.3 38.65 11.0 38.4 15.35 37.8 Q16.8 37.45 18.2 36.75 19.1 36.3 19.6 35.3 20.05 34.45 19.65 33.45 L10.0 34.45 9.9 34.45 12.95 33.3 20.85 31.95 Q21.65 33.8 23.6 36.05 L23.45 36.9 23.05 38.35 22.4 39.45 13.0 40.0 -5.25 40.6 -19.05 40.3 -20.15 36.35 M19.65 -18.6 L16.75 -20.55 18.75 -20.35 19.65 -18.6 M15.75 19.0 L14.5 17.6 Q10.75 14.55 5.7 14.45 L-3.95 14.8 Q-8.15 15.6 -11.95 17.5 -13.35 18.25 -13.85 19.7 L-13.95 19.95 Q-10.9 23.2 -7.0 25.2 -3.75 26.85 -0.1 26.9 L0.2 26.9 3.9 26.15 Q10.75 24.2 15.75 19.0 M18.4 27.65 L14.95 31.25 Q2.4 34.8 -10.35 31.4 L-13.55 30.4 -16.8 26.45 Q-18.45 24.2 -18.55 21.8 -18.7 19.8 -17.75 17.65 L-16.85 15.95 Q-8.45 13.65 -0.3 13.3 7.85 12.9 19.25 16.4 23.1 22.4 18.4 27.65" fill="#8d9086" fill-rule="evenodd" stroke="none"/>
    <path d="M7.95 -22.3 L7.0 -21.8 Q-1.9 -17.75 -10.25 -22.25 L-10.4 -22.45 -10.9 -22.95 -12.25 -24.5 -12.75 -26.25 -12.95 -26.45 -12.95 -26.5 Q-5.65 -32.1 5.4 -29.1 8.7 -28.2 11.3 -27.0 L10.75 -24.5 9.0 -22.95 7.95 -22.3 M-22.2 -15.05 L-20.05 -15.9 Q-17.9 -17.0 -16.3 -19.2 L-14.9 -20.7 -15.2 -19.8 Q-17.45 -12.95 -19.0 -5.85 L-20.0 -0.9 Q-18.75 2.05 -15.95 3.45 -10.45 6.25 -4.35 7.1 6.75 8.0 16.0 2.25 L20.15 -0.5 14.6 -20.95 14.25 -22.25 16.75 -20.55 19.65 -18.6 Q26.75 -7.3 29.25 5.6 30.55 12.3 25.95 13.25 24.4 13.55 22.25 13.25 L22.85 15.7 Q23.5 19.15 23.35 22.9 L23.2 24.95 Q22.95 27.2 22.1 29.75 23.75 32.55 23.95 33.65 24.1 34.85 23.6 36.05 21.65 33.8 20.85 31.95 L12.95 33.3 9.9 34.45 7.85 35.0 Q-0.6 37.55 -9.1 35.4 L-11.4 34.55 -18.75 34.2 -20.15 36.35 -22.5 33.65 -20.3 29.25 -20.6 29.0 Q-22.9 26.7 -22.8 22.95 -22.75 19.15 -21.15 15.35 L-20.75 12.5 Q-25.4 11.8 -28.5 9.35 -31.65 6.85 -29.75 2.3 L-22.2 -15.05 M18.4 27.65 Q23.1 22.4 19.25 16.4 7.85 12.9 -0.3 13.3 -8.45 13.65 -16.85 15.95 L-17.75 17.65 Q-18.7 19.8 -18.55 21.8 -18.45 24.2 -16.8 26.45 L-13.55 30.4 -10.35 31.4 Q2.4 34.8 14.95 31.25 L18.4 27.65 M22.4 39.45 L21.95 39.95 20.05 41.45 18.1 41.9 -3.95 42.5 -5.3 42.5 -6.9 42.5 -14.8 42.55 -18.45 42.35 -19.05 40.3 -5.25 40.6 13.0 40.0 22.4 39.45" fill="#6a615a" fill-rule="evenodd" stroke="none"/>
    <path d="M13.25 -27.15 Q16.15 -26.0 19.4 -22.5 23.45 -18.15 24.0 -12.5 24.35 -9.4 25.15 -7.45 26.4 -4.55 29.0 -3.0 29.0 -1.05 30.45 2.6 31.9 6.3 31.9 7.15 L31.7 7.7 31.25 7.85 Q28.1 5.05 27.5 -1.25 27.45 -2.05 26.05 -3.4 24.5 -4.9 24.25 -5.5 22.95 -9.15 22.75 -10.25 21.95 -15.45 17.9 -20.85 12.95 -27.6 6.8 -27.6 L5.0 -27.35 Q4.1 -27.3 4.1 -28.35 4.1 -29.9 8.15 -28.85 10.5 -28.3 13.25 -27.15 M-19.65 -22.5 Q-16.4 -26.0 -13.5 -27.15 -10.75 -28.3 -8.4 -28.85 -4.35 -29.9 -4.35 -28.35 -4.35 -27.3 -5.25 -27.35 L-7.05 -27.6 Q-13.2 -27.6 -18.15 -20.85 -22.2 -15.45 -23.0 -10.25 -23.2 -9.15 -24.5 -5.5 -24.75 -4.9 -26.3 -3.4 -27.7 -2.05 -27.75 -1.25 -28.35 5.05 -31.5 7.85 L-31.95 7.7 Q-32.15 7.6 -32.15 7.15 -32.15 6.3 -30.7 2.6 -29.25 -1.05 -29.25 -3.0 -26.65 -4.55 -25.4 -7.45 -24.6 -9.4 -24.25 -12.5 -23.7 -18.15 -19.65 -22.5" fill="#000000" fill-rule="evenodd" stroke="none"/>
    <path d="M-5.85 -37.45 L-2.6 -37.6 Q-0.3 -37.4 1.55 -36.65 L1.75 -33.25 Q-2.7 -27.5 -6.75 -33.0 L-6.75 -33.25 Q-6.65 -35.8 -5.85 -37.45" fill="#a9aca2" fill-rule="evenodd" stroke="none"/>
    <path d="M-10.95 -34.7 L-9.45 -35.95 -9.05 -36.25 Q-7.65 -37.15 -5.85 -37.45 -6.65 -35.8 -6.75 -33.25 L-6.75 -33.0 Q-2.7 -27.5 1.75 -33.25 L1.55 -36.65 Q2.75 -36.15 3.8 -35.4 L3.85 -35.35 Q5.4 -34.25 5.75 -34.25 6.3 -33.45 1.65 -30.15 -3.0 -26.85 -6.95 -30.2 -11.0 -33.6 -10.95 -34.7" fill="#8d9086" fill-rule="evenodd" stroke="none"/>
    <path d="M5.75 -34.25 L5.8 -34.3 6.75 -30.2 Q6.75 -27.65 5.3 -25.8 3.8 -23.95 -3.1 -24.25 -10.05 -24.55 -11.6 -27.65 L-12.0 -30.75 -10.95 -34.7 Q-11.0 -33.6 -6.95 -30.2 -3.0 -26.85 1.65 -30.15 6.3 -33.45 5.75 -34.25" fill="#6a615a" fill-rule="evenodd" stroke="none"/>
    <path d="M-10.6 -26.95 Q-10.6 -30.6 -8.15 -29.3 L-4.25 -27.15 Q-3.35 -27.15 -2.85 -26.35 -2.35 -25.6 -0.5 -25.6 0.3 -25.6 1.0 -25.0 0.55 -24.4 -1.35 -23.65 -3.0 -23.0 -4.55 -22.8 -4.85 -22.45 -5.5 -22.4 L-8.0 -22.5 Q-10.45 -22.5 -13.85 -19.4 L-16.9 -16.35 Q-17.6 -16.35 -17.75 -16.85 L-17.75 -17.45 Q-17.75 -18.25 -16.6 -19.7 -16.5 -20.4 -14.85 -21.9 L-13.4 -23.0 Q-14.25 -23.35 -14.25 -24.1 -14.25 -24.95 -13.2 -25.7 L-11.15 -26.65 -10.55 -26.75 -10.6 -26.95 M-21.0 -13.2 L-21.25 -8.95 Q-22.25 -2.9 -24.75 -2.9 L-25.55 -2.95 Q-26.05 -2.65 -26.5 -2.65 -27.5 -2.65 -27.75 -3.0 -26.8 -5.7 -24.6 -8.1 -24.55 -8.85 -24.15 -9.4 -23.45 -10.3 -23.1 -11.35 L-22.65 -13.2 Q-22.15 -14.45 -21.15 -14.0 -21.0 -13.75 -21.0 -13.2 M4.2 -24.3 Q3.75 -24.8 3.75 -25.3 3.75 -26.55 7.0 -26.7 10.25 -26.9 10.25 -25.1 10.25 -23.35 7.0 -23.35 5.05 -23.35 4.2 -24.3 M-9.9 12.6 L-12.0 12.85 -14.2 15.65 Q-16.9 19.4 -16.9 23.2 -16.9 23.8 -15.35 27.15 -13.7 30.8 -12.75 31.25 L-11.0 31.45 -8.65 31.75 Q-7.15 32.1 -5.65 33.35 -3.1 35.5 0.8 34.45 L4.45 34.55 5.75 34.05 Q7.75 33.4 11.0 33.1 11.6 32.3 13.35 31.9 15.15 31.5 15.5 31.1 L16.4 29.7 Q17.0 28.85 17.75 28.5 18.45 29.25 18.35 29.7 L18.1 30.75 18.55 31.55 19.0 32.3 Q19.0 34.3 14.05 34.95 L6.35 35.95 6.6 36.25 5.75 36.55 4.75 36.75 Q-8.05 36.75 -10.75 35.75 -12.2 35.15 -13.1 33.85 L-15.0 30.5 Q-17.0 27.0 -17.4 25.65 -17.75 24.45 -17.75 21.25 L-17.15 18.8 Q-17.15 18.5 -17.7 17.5 -18.25 16.55 -18.25 16.0 -18.25 14.15 -17.0 12.95 L-17.65 12.75 -18.5 12.4 -21.9 12.9 Q-22.65 12.9 -25.4 10.85 L-28.0 8.75 Q-28.0 7.15 -25.35 6.8 -22.65 6.4 -21.25 8.4 -20.0 10.25 -16.15 10.5 -14.1 10.65 -11.0 10.4 L-3.5 10.85 -2.25 11.15 Q-3.4 13.05 -4.2 13.05 L-9.9 12.6 M4.6 12.5 Q5.7 11.9 8.25 11.75 L9.55 11.75 9.75 11.65 9.75 11.55 Q9.75 9.05 14.65 9.3 L20.4 10.0 21.25 9.75 22.1 9.5 Q23.65 9.5 24.75 10.1 27.25 9.95 27.25 10.55 27.25 11.1 24.95 11.95 22.65 12.85 20.6 12.9 L20.6 13.0 Q20.6 13.45 20.2 13.65 L19.0 13.75 18.55 15.4 Q18.25 16.25 18.25 16.8 18.25 17.3 18.75 18.5 18.75 19.0 18.1 19.0 17.75 19.0 16.6 13.85 L15.3 14.05 12.85 14.25 Q12.0 14.25 11.0 13.6 L10.8 13.5 6.35 13.1 5.1 13.0 4.6 12.5 M-16.85 38.25 Q-16.45 39.05 -13.15 39.9 -9.75 40.75 -9.25 41.4 L-9.25 41.75 -10.65 42.05 -12.4 42.25 -15.75 41.75 -16.5 42.45 Q-17.15 43.1 -18.0 43.1 -18.85 43.1 -20.65 37.15 -20.65 36.05 -19.05 36.4 -17.4 36.8 -16.85 38.25 M22.25 -3.4 L23.0 -4.25 Q24.0 -3.15 25.2 -0.7 L25.75 0.35 26.15 -0.3 Q27.9 -2.35 27.9 1.0 27.9 1.8 27.25 2.6 L27.2 2.7 28.6 4.5 Q28.6 5.8 27.0 5.85 L26.9 6.15 Q26.6 7.05 26.0 7.1 L21.25 7.1 Q20.5 6.6 20.25 6.65 L18.25 6.85 14.0 6.6 13.35 6.1 13.1 5.7 Q13.1 4.95 15.1 4.6 L19.7 4.1 Q20.55 2.8 20.95 3.05 L21.5 3.6 21.85 3.6 22.5 3.0 22.5 2.45 22.1 1.1 22.3 -0.15 21.85 -2.25 22.25 -3.4 M18.0 42.0 L16.2 41.7 14.4 41.4 Q14.05 41.4 13.8 41.65 L13.5 41.85 10.75 42.1 8.6 41.6 Q21.25 37.0 21.25 38.25 21.25 39.3 20.5 40.5 19.5 42.0 18.0 42.0" fill="#3c4d18" fill-rule="evenodd" stroke="none"/>
    <path d="M-25.9 7.95 L-26.85 8.05 -23.55 11.5 Q1.0 13.95 27.65 10.7 L28.6 8.05 27.8 8.0 Q29.0 7.2 29.25 4.65 30.9 6.5 32.15 6.65 29.95 10.75 29.35 13.25 L24.15 14.05 Q25.7 21.2 22.65 28.9 L24.55 33.9 21.4 43.2 -19.1 43.2 Q-19.95 38.75 -23.1 34.2 L-23.4 33.8 -21.45 30.2 -21.2 29.75 Q-24.4 24.55 -22.85 17.15 -22.4 14.9 -21.95 13.95 L-26.1 12.85 -27.65 11.35 Q-28.65 10.05 -31.4 8.35 L-32.15 7.25 -29.2 6.4 -29.25 6.45 -29.45 6.75 -25.9 7.95 M23.15 18.75 Q22.8 16.35 20.65 13.2 0.55 12.8 -18.85 13.15 L-21.1 16.9 Q-21.95 18.4 -22.3 22.05 -22.7 25.65 -20.0 29.35 -17.3 32.95 -15.3 33.45 -0.15 38.1 18.0 33.25 22.7 27.95 23.1 24.55 23.45 21.1 23.15 18.75 M19.3 33.5 L16.45 35.0 14.95 35.75 Q-0.35 36.6 -15.1 36.0 -16.55 34.7 -18.4 33.8 L-18.2 33.8 -20.65 30.85 -22.25 33.75 -22.2 33.75 Q-21.1 35.15 -19.5 35.85 L-17.2 41.65 20.2 41.3 21.65 35.25 21.6 35.25 23.0 34.45 23.75 33.65 23.7 33.6 23.75 33.6 22.0 29.65 19.3 33.5 M7.85 28.7 Q5.7 30.75 2.45 30.5 L2.6 25.05 9.55 25.05 Q9.05 27.45 7.85 28.7 M1.5 17.05 Q7.1 17.15 9.2 22.6 L2.45 22.4 1.5 17.05 M-1.1 30.75 Q-4.35 31.15 -6.5 29.15 -7.8 28.0 -8.4 25.55 L-0.75 25.1 -1.1 30.75 M-0.55 17.4 L-0.6 22.65 -8.2 22.9 Q-6.1 17.5 -0.55 17.4" fill="#000000" fill-rule="evenodd" stroke="none"/>
    <path d="M19.2 -13.3 Q20.5 -10.2 21.35 -5.05 22.2 0.1 26.2 3.3 27.35 4.2 26.65 4.5 21.25 1.8 19.85 -11.2 L19.2 -13.3 M16.95 -17.75 Q12.9 -23.5 4.8 -25.25 10.8 -26.55 15.35 -20.15 L16.95 -17.75 M-25.9 7.95 L-29.45 6.75 -29.25 6.45 -29.2 6.4 -26.7 6.4 26.75 6.65 29.25 4.65 Q29.0 7.2 27.8 8.0 8.2 6.9 -11.4 7.2 L-25.9 7.95 M14.95 35.75 L16.45 35.0 19.3 33.5 19.1 33.65 23.7 33.6 23.75 33.65 23.0 34.45 21.6 35.25 14.95 35.75 M-11.75 -25.3 L-7.3 -25.55 Q-17.45 -21.35 -19.0 -10.45 -19.8 -5.0 -21.55 -0.95 -20.85 -7.35 -19.05 -13.95 -17.25 -20.65 -15.25 -22.55 L-11.75 -25.3 M-22.2 33.75 L-18.4 33.8 Q-16.55 34.7 -15.1 36.0 L-19.55 35.75 -19.5 35.85 Q-21.1 35.15 -22.2 33.75" fill="#cccccc" fill-rule="evenodd" stroke="none"/>
    <path d="M4.4 -33.85 Q1.35 -37.25 -3.75 -37.25 -8.1 -37.25 -9.9 -32.75 -10.8 -30.5 -10.85 -28.1 -10.85 -26.7 -9.25 -25.8 -6.85 -24.4 -1.25 -24.4 L-1.15 -24.25 -3.1 -23.8 -5.25 -23.65 Q-11.0 -23.65 -12.25 -27.4 -12.65 -28.6 -12.55 -30.1 L-12.35 -31.55 Q-12.35 -35.65 -8.95 -37.7 -5.85 -39.55 -1.4 -39.1 3.0 -38.65 6.1 -36.25 9.5 -33.6 9.5 -29.7 9.5 -28.15 8.1 -26.25 6.15 -23.6 2.6 -23.6 -1.1 -23.6 -1.1 -24.85 -1.1 -25.8 2.7 -26.7 6.5 -27.65 6.5 -29.85 6.5 -31.45 4.4 -33.85" fill="#000000" fill-rule="evenodd" stroke="none"/>
    <path d="M-5.3 -30.1 Q-7.05 -30.1 -7.45 -30.9 L-7.45 -31.85 Q-7.45 -34.7 -5.25 -34.7 -3.1 -34.7 -3.1 -32.5 -3.1 -30.1 -5.3 -30.1" fill="#cccccc" fill-rule="evenodd" stroke="none"/>
  </g>
</svg>
