<?xml version="1.0" encoding="UTF-8" standalone="no"?>
<svg xmlns:ffdec="https://www.free-decompiler.com/flash" xmlns:xlink="http://www.w3.org/1999/xlink" ffdec:objectType="shape" height="30.35px" width="33.9px" xmlns="http://www.w3.org/2000/svg">
  <g transform="matrix(1.0, 0.0, 0.0, 1.0, 0.0, 0.0)">
    <path d="M5.5 5.75 Q13.2 6.8 20.45 9.55 L25.1 11.55 25.55 11.35 29.65 18.45 Q30.7 14.9 28.0 9.5 25.25 4.1 17.0 3.65 L4.4 2.35 4.7 1.4 3.9 1.75 2.7 1.35 2.6 1.8 2.6 2.6 2.7 3.3 2.95 4.0 3.3 4.65 3.0 4.5 Q-1.75 2.05 1.05 1.15 3.8 0.2 11.25 0.0 18.7 -0.25 23.3 3.1 25.4 4.7 27.2 7.0 30.55 11.35 32.5 16.4 34.05 20.3 33.75 24.4 L33.85 25.1 33.9 26.95 33.9 28.2 Q33.75 29.15 33.0 29.35 L33.0 29.95 32.65 30.35 30.75 24.95 Q29.9 22.35 28.65 19.65 L26.8 16.15 Q25.8 14.5 24.4 13.5 L21.15 11.45 Q19.35 10.4 13.55 8.7 9.2 7.4 5.5 5.75" fill="#5e820c" fill-rule="evenodd" stroke="none"/>
    <path d="M3.3 4.65 L2.95 4.0 2.7 3.3 2.6 2.6 2.6 1.8 2.7 1.35 3.9 1.75 4.7 1.4 4.4 2.35 17.0 3.65 Q25.25 4.1 28.0 9.5 30.7 14.9 29.65 18.45 L25.55 11.35 25.1 11.55 20.45 9.55 Q13.2 6.8 5.5 5.75 L3.3 4.65" fill="#71a300" fill-rule="evenodd" stroke="none"/>
    <path d="M27.2 7.0 Q30.55 11.35 32.5 16.4 34.45 21.35 33.45 26.55 32.45 19.15 29.35 12.25 28.15 9.5 26.5 7.0 L26.15 6.55 Q21.4 0.3 11.1 0.65 0.75 1.0 3.85 3.2 7.0 5.4 12.4 6.55 L20.35 8.35 Q22.9 9.0 24.85 10.45 26.75 11.9 27.5 13.05 L29.35 16.35 Q30.45 18.5 31.35 21.2 L32.65 26.45 33.0 29.95 32.65 30.35 30.75 24.95 Q29.9 22.35 28.65 19.65 L26.8 16.15 Q25.8 14.5 24.4 13.5 L21.15 11.45 Q19.35 10.4 13.55 8.7 7.7 6.95 3.0 4.5 -1.75 2.05 1.05 1.15 3.8 0.2 11.25 0.0 18.7 -0.25 23.3 3.1 25.4 4.7 27.2 7.0" fill="#2d4100" fill-rule="evenodd" stroke="none"/>
  </g>
</svg>
