<?xml version="1.0" encoding="UTF-8" standalone="no"?>
<svg xmlns:ffdec="https://www.free-decompiler.com/flash" xmlns:xlink="http://www.w3.org/1999/xlink" ffdec:objectType="shape" height="102.0px" width="80.0px" xmlns="http://www.w3.org/2000/svg">
  <g transform="matrix(1.0, 0.0, 0.0, 1.0, 0.0, 0.0)">
    <path d="M46.15 41.95 L33.65 41.95 33.65 35.6 46.15 35.6 46.15 41.95 M56.65 71.25 L56.65 65.7 68.9 65.7 68.9 71.25 56.65 71.25 M68.9 50.85 L68.9 58.65 56.65 58.65 56.65 50.85 68.9 50.85 M33.65 71.25 L33.65 65.7 46.15 65.7 46.15 71.25 33.65 71.25 M11.4 71.25 L11.4 65.7 22.9 65.7 22.9 71.25 11.4 71.25 M23.15 50.85 L23.15 58.25 11.6 58.25 11.6 50.85 23.15 50.85 M33.65 58.45 L33.65 50.85 46.15 50.85 46.15 58.45 33.65 58.45 M11.15 35.6 L23.4 35.6 23.4 43.4 11.15 43.4 11.15 35.6 M11.4 27.95 L11.4 20.75 23.4 20.75 23.4 27.95 11.4 27.95 M23.9 4.85 L23.9 13.3 10.85 13.3 10.85 4.85 23.9 4.85 M56.65 35.6 L68.9 35.6 68.9 43.2 56.65 43.2 56.65 35.6 M46.15 20.75 L46.15 27.95 33.65 27.95 33.65 20.75 46.15 20.75 M56.65 27.95 L56.65 21.35 68.9 21.35 68.9 27.95 56.65 27.95 M46.15 4.85 L46.15 13.3 33.65 13.3 33.65 4.85 46.15 4.85 M68.95 4.85 L68.95 13.3 56.45 13.3 56.45 4.85 68.95 4.85" fill="#f2e8db" fill-rule="evenodd" stroke="none"/>
    <path d="M14.4 79.9 L66.65 79.9 66.65 90.4 14.4 90.4 14.4 79.9" fill="#c6a984" fill-rule="evenodd" stroke="none"/>
    <path d="M14.4 79.9 L14.4 90.4 66.65 90.4 66.65 79.9 14.4 79.9 M4.15 74.55 L74.4 74.55 74.4 96.7 4.15 96.7 4.15 74.55" fill="#a68c6a" fill-rule="evenodd" stroke="none"/>
    <path d="M68.95 4.85 L56.45 4.85 56.45 13.3 68.95 13.3 68.95 4.85 M46.15 4.85 L33.65 4.85 33.65 13.3 46.15 13.3 46.15 4.85 M56.65 27.95 L68.9 27.95 68.9 21.35 56.65 21.35 56.65 27.95 M46.15 20.75 L33.65 20.75 33.65 27.95 46.15 27.95 46.15 20.75 M56.65 35.6 L56.65 43.2 68.9 43.2 68.9 35.6 56.65 35.6 M23.9 4.85 L10.85 4.85 10.85 13.3 23.9 13.3 23.9 4.85 M11.4 27.95 L23.4 27.95 23.4 20.75 11.4 20.75 11.4 27.95 M11.15 35.6 L11.15 43.4 23.4 43.4 23.4 35.6 11.15 35.6 M33.65 58.45 L46.15 58.45 46.15 50.85 33.65 50.85 33.65 58.45 M23.15 50.85 L11.6 50.85 11.6 58.25 23.15 58.25 23.15 50.85 M11.4 71.25 L22.9 71.25 22.9 65.7 11.4 65.7 11.4 71.25 M33.65 71.25 L46.15 71.25 46.15 65.7 33.65 65.7 33.65 71.25 M68.9 50.85 L56.65 50.85 56.65 58.65 68.9 58.65 68.9 50.85 M56.65 71.25 L68.9 71.25 68.9 65.7 56.65 65.7 56.65 71.25 M46.15 41.95 L46.15 35.6 33.65 35.6 33.65 41.95 46.15 41.95 M74.4 74.55 L4.15 74.55 4.15 0.0 74.4 0.0 74.4 74.55" fill="#c9bdaf" fill-rule="evenodd" stroke="none"/>
    <path d="M70.35 15.85 L71.9 15.85 71.9 6.95 71.85 6.95 71.9 4.95 71.9 3.2 Q70.95 3.45 56.9 3.55 L51.25 3.6 Q52.0 4.55 52.15 5.9 L52.2 6.65 52.2 7.95 52.0 10.7 52.1 14.65 52.05 16.05 Q52.35 15.8 52.9 15.85 L54.1 15.85 54.1 17.25 70.35 17.25 70.35 15.85 M68.95 0.2 L71.85 0.2 71.9 0.35 71.9 0.0 74.4 0.0 73.9 18.85 74.4 101.15 74.4 101.25 74.35 101.25 74.1 101.15 73.7 101.1 73.7 101.15 73.55 101.05 71.9 100.6 71.9 98.7 7.55 98.6 7.55 100.6 5.5 101.15 5.1 101.25 5.05 101.25 5.7 6.6 5.6 6.2 5.7 0.0 7.55 0.0 7.55 0.1 Q7.5 0.1 7.4 0.2 L7.55 0.2 7.55 0.25 7.6 0.2 10.2 0.3 10.2 2.4 69.4 2.4 Q68.75 1.35 68.95 0.2 M76.95 0.0 L78.8 0.0 78.8 100.6 76.75 101.15 76.35 101.25 76.3 101.25 76.95 0.0 M3.15 101.15 L3.15 101.25 3.1 101.25 2.85 101.15 2.45 101.1 2.45 101.15 2.3 101.05 0.65 100.6 0.65 0.0 3.15 0.0 2.65 18.85 3.15 101.15 M71.85 17.4 L71.9 17.4 71.9 17.35 71.85 17.4 M46.35 16.1 L48.75 16.1 48.85 16.1 48.8 14.45 48.9 10.5 48.75 7.95 48.7 6.45 Q48.7 5.8 48.85 5.3 49.05 4.3 49.65 3.6 L43.75 3.6 30.5 3.6 30.6 5.15 30.55 5.9 30.4 7.95 30.35 10.1 30.35 16.35 30.65 16.25 32.45 16.15 32.45 17.45 46.35 17.45 46.35 16.1 M47.45 30.2 L48.8 30.2 48.9 30.2 48.85 18.6 48.75 18.6 32.4 18.55 32.0 18.55 31.7 18.55 31.2 18.5 30.35 18.4 30.35 23.15 30.3 30.45 31.75 30.3 32.95 30.3 32.95 31.55 47.45 31.55 47.45 30.2 M52.05 17.15 L52.05 17.25 52.15 17.25 52.05 17.15 M69.6 29.75 L71.25 29.75 71.9 29.8 71.9 18.85 53.4 18.75 52.0 18.65 52.0 29.85 52.4 29.8 54.85 29.8 54.85 31.15 69.6 31.15 69.6 29.75 M49.9 7.95 L49.9 69.4 51.15 69.4 51.15 7.95 49.9 7.95 M70.35 45.75 L71.9 45.75 71.9 33.05 54.5 33.0 52.0 32.9 52.0 45.75 55.1 45.75 55.1 47.2 70.35 47.2 70.35 45.75 M27.9 7.95 L27.9 69.4 29.15 69.4 29.15 7.95 27.9 7.95 M24.95 16.0 L26.4 16.0 26.6 16.05 26.6 10.0 26.5 7.95 26.35 5.9 26.3 5.3 Q26.2 4.25 26.45 3.6 L21.4 3.6 7.6 3.65 7.65 6.95 7.55 6.95 7.55 16.1 9.6 16.0 9.6 17.3 24.95 17.3 24.95 16.0 M24.7 30.1 L26.25 30.1 26.6 30.25 26.6 18.55 9.0 18.5 7.55 18.4 7.55 30.4 7.85 30.25 9.65 30.15 9.85 30.15 9.85 31.55 24.7 31.55 24.7 30.1 M7.55 17.25 L7.6 17.25 7.55 17.25 M24.85 45.55 L26.55 45.65 26.65 45.7 26.65 36.5 26.6 36.3 26.6 32.95 26.25 32.95 8.25 32.85 7.55 32.85 7.55 45.5 7.65 45.5 9.7 45.5 9.7 46.9 24.85 46.9 24.85 45.55 M46.45 45.55 L48.15 45.55 48.95 45.7 48.9 33.15 34.5 33.05 30.45 32.9 30.3 32.85 30.25 36.35 30.25 45.7 30.65 45.55 32.85 45.55 32.85 47.0 46.45 47.0 46.45 45.55 M25.2 61.0 L26.65 61.0 26.65 48.4 8.4 48.35 7.55 48.45 7.55 61.05 10.2 61.0 10.2 62.45 25.2 62.45 25.2 61.0 M46.85 61.0 L48.45 61.0 49.0 61.0 48.95 48.55 48.75 48.55 48.25 48.55 33.9 48.5 30.25 48.45 30.25 61.05 30.4 61.0 32.2 61.0 32.2 62.4 46.85 62.4 46.85 61.0 M19.4 74.5 L26.9 74.5 26.75 74.2 26.75 65.7 26.65 65.55 26.65 64.15 9.75 64.1 7.75 63.95 7.55 63.9 7.55 72.7 8.25 74.5 10.2 74.5 10.2 76.6 69.4 76.6 Q68.75 75.55 68.95 74.4 L71.9 74.4 71.9 63.8 52.4 63.75 52.0 63.7 52.0 73.6 51.85 74.4 51.8 74.45 60.4 74.45 60.4 74.55 19.4 74.55 19.4 74.5 M30.15 74.5 L49.35 74.45 49.25 74.35 49.0 73.8 49.0 63.85 32.9 63.85 30.25 63.8 30.25 74.1 30.15 74.5 M70.2 60.85 L71.75 60.85 71.9 60.85 71.9 48.6 71.7 48.6 58.75 48.55 52.2 48.35 52.0 48.35 52.0 61.0 54.35 60.95 54.35 62.45 70.2 62.45 70.2 60.85 M71.0 94.0 L71.9 94.1 71.9 77.45 Q70.55 77.75 43.75 77.8 L7.55 77.85 7.55 94.1 9.5 94.1 9.5 96.2 71.0 96.2 71.0 94.0" fill="#8a6e4d" fill-rule="evenodd" stroke="none"/>
    <path d="M54.1 15.85 L70.35 15.85 70.35 17.25 54.1 17.25 54.1 15.85 M74.4 0.0 L76.95 0.0 76.3 101.25 74.4 101.15 73.9 18.85 74.4 0.0 M76.75 101.15 L76.75 101.25 76.35 101.25 76.75 101.15 M74.1 101.15 L73.7 101.15 73.7 101.1 74.1 101.15 M5.5 101.15 L5.5 101.25 5.1 101.25 5.5 101.15 M5.05 101.25 L3.15 101.15 2.65 18.85 3.15 0.0 5.7 0.0 5.6 6.2 5.7 6.6 5.05 101.25 M2.85 101.15 L2.45 101.15 2.45 101.1 2.85 101.15 M10.2 0.3 L68.95 0.2 Q68.75 1.35 69.4 2.4 L10.2 2.4 10.2 0.3 M32.45 16.15 L34.9 16.1 46.35 16.1 46.35 17.45 32.45 17.45 32.45 16.15 M32.95 30.3 L47.45 30.2 47.45 31.55 32.95 31.55 32.95 30.3 M54.85 29.8 L55.0 29.75 69.6 29.75 69.6 31.15 54.85 31.15 54.85 29.8 M49.9 7.95 L51.15 7.95 51.15 69.4 49.9 69.4 49.9 7.95 M55.1 45.75 L70.35 45.75 70.35 47.2 55.1 47.2 55.1 45.75 M27.9 7.95 L29.15 7.95 29.15 69.4 27.9 69.4 27.9 7.95 M9.6 16.0 L10.65 16.0 24.95 16.0 24.95 17.3 9.6 17.3 9.6 16.0 M9.85 30.15 L24.7 30.1 24.7 31.55 9.85 31.55 9.85 30.15 M9.7 45.5 L24.15 45.55 24.85 45.55 24.85 46.9 9.7 46.9 9.7 45.5 M32.85 45.55 L46.45 45.55 46.45 47.0 32.85 47.0 32.85 45.55 M10.2 61.0 L11.15 61.0 25.2 61.0 25.2 62.45 10.2 62.45 10.2 61.0 M32.2 61.0 L46.85 61.0 46.85 62.4 32.2 62.4 32.2 61.0 M10.2 74.5 L19.4 74.5 19.4 74.55 60.4 74.55 60.4 74.45 68.95 74.4 Q68.75 75.55 69.4 76.6 L10.2 76.6 10.2 74.5 M54.35 60.95 L55.0 60.9 59.5 60.85 70.2 60.85 70.2 62.45 54.35 62.45 54.35 60.95 M9.5 94.1 L19.5 94.05 31.15 94.0 70.0 94.05 71.0 94.0 71.0 96.2 9.5 96.2 9.5 94.1" fill="#be9a71" fill-rule="evenodd" stroke="none"/>
    <path d="M80.0 0.0 L80.0 98.9 79.75 100.25 77.1 102.0 73.7 102.0 71.4 100.25 71.4 99.7 8.75 99.55 8.65 99.55 8.5 100.25 5.85 102.0 2.45 102.0 0.15 100.25 0.0 0.0 1.25 0.0 1.25 100.1 1.3 100.0 2.75 100.75 5.75 100.75 Q6.55 100.4 7.3 100.0 L7.3 0.0 72.55 0.0 72.55 4.0 72.5 4.1 72.5 7.0 72.6 7.1 72.5 7.35 72.5 15.45 72.55 15.45 72.55 19.45 72.5 19.55 72.5 29.5 72.55 29.5 72.55 33.5 72.5 33.55 72.5 45.15 72.55 45.15 72.55 49.15 72.5 49.25 72.55 60.6 72.55 64.6 72.55 64.7 72.55 99.35 74.0 100.75 77.0 100.75 78.55 100.0 78.55 0.0 80.0 0.0 M51.55 4.0 L49.25 4.0 49.25 74.35 51.55 74.35 51.55 4.0 M71.15 18.55 L71.2 16.35 53.0 16.4 53.0 18.55 71.15 18.55 M71.2 5.3 L71.2 5.15 71.1 5.15 71.15 4.0 53.0 4.0 53.0 15.45 71.25 15.45 71.25 5.3 71.2 5.3 M71.15 3.1 L71.2 0.9 9.1 1.0 8.85 1.0 8.85 2.45 8.8 2.45 8.8 3.05 71.15 3.1 M47.8 4.0 L31.5 4.0 31.5 15.45 47.8 15.45 47.8 4.0 M47.8 16.4 L31.5 16.4 31.5 18.55 47.8 18.55 47.8 16.4 M47.8 32.55 L47.8 30.45 31.5 30.45 31.5 32.55 47.8 32.55 M53.0 30.45 L53.0 32.55 71.15 32.55 71.2 30.4 53.0 30.45 M71.2 20.8 L71.2 20.6 71.1 20.6 71.15 19.45 53.0 19.45 53.0 29.5 71.25 29.5 71.25 20.8 71.2 20.8 M47.8 29.5 L47.8 19.45 31.5 19.45 31.5 29.5 47.8 29.5 M71.2 34.8 L71.2 34.65 71.1 34.65 71.15 33.5 53.0 33.5 53.0 45.15 71.25 45.15 71.25 34.8 71.2 34.8 M26.3 4.0 L8.75 4.0 8.75 15.45 26.3 15.45 26.3 4.0 M26.3 16.4 L9.1 16.45 8.85 16.45 8.85 17.95 8.8 17.9 8.8 18.5 26.3 18.55 26.3 16.4 M8.85 63.1 L8.8 63.05 8.8 63.65 26.3 63.7 26.3 61.55 9.1 61.6 8.85 61.6 8.85 63.1 M31.5 46.1 L31.5 48.25 47.8 48.25 47.8 46.1 31.5 46.1 M26.3 48.25 L26.3 46.1 9.1 46.15 8.85 46.15 8.85 47.6 8.8 47.6 8.8 48.2 26.3 48.25 M31.5 49.15 L31.5 60.6 47.8 60.6 47.8 49.15 31.5 49.15 M26.3 60.6 L26.3 49.15 8.75 49.15 8.75 60.6 26.3 60.6 M26.3 33.5 L8.75 33.5 8.75 45.15 26.3 45.15 26.3 33.5 M8.75 29.5 L26.3 29.5 26.3 19.45 8.75 19.45 8.75 29.5 M9.1 30.45 L8.85 30.45 8.85 31.95 8.8 31.9 8.8 32.55 26.3 32.55 26.3 30.45 9.1 30.45 M30.05 4.0 L27.75 4.0 27.75 74.35 30.05 74.35 30.05 4.0 M8.75 78.4 L8.75 93.65 9.25 93.65 71.2 93.4 71.2 78.35 9.0 78.4 8.75 78.4 M8.85 72.9 L8.85 74.3 26.3 74.35 26.3 64.6 8.75 64.6 8.75 72.95 8.85 72.9 M8.85 76.8 L8.75 76.75 8.75 77.4 71.2 77.45 71.2 75.25 9.1 75.3 8.85 75.3 8.85 76.8 M31.5 74.35 L47.8 74.35 47.8 64.6 31.5 64.6 31.5 74.35 M31.5 45.15 L47.8 45.15 47.8 33.5 31.5 33.5 31.5 45.15 M53.0 61.55 L53.0 63.7 71.15 63.7 71.2 61.5 53.0 61.55 M53.0 64.6 L53.0 74.35 71.2 74.35 71.2 65.75 71.1 65.75 71.15 64.6 53.0 64.6 M71.2 50.3 L71.1 50.3 71.15 49.15 53.0 49.15 53.0 60.6 71.2 60.6 71.25 50.45 71.2 50.45 71.2 50.3 M71.15 48.25 L71.2 46.05 53.0 46.1 53.0 48.25 71.15 48.25 M31.5 61.55 L31.5 63.7 47.8 63.7 47.8 61.55 31.5 61.55 M71.4 94.55 L8.75 94.55 8.75 98.35 Q48.5 98.65 71.5 98.45 L71.4 94.55" fill="#2b2620" fill-rule="evenodd" stroke="none"/>
  </g>
</svg>
