<?xml version="1.0" encoding="UTF-8" standalone="no"?>
<svg xmlns:ffdec="https://www.free-decompiler.com/flash" xmlns:xlink="http://www.w3.org/1999/xlink" ffdec:objectType="shape" height="61.25px" width="70.65px" xmlns="http://www.w3.org/2000/svg">
  <g transform="matrix(1.0, 0.0, 0.0, 1.0, -279.35, -59.4)">
    <path d="M334.65 97.15 L340.05 97.15 340.35 97.25 334.65 97.15 M339.3 98.3 L337.8 98.3 338.45 98.15 339.3 98.3 M325.55 98.3 L320.75 98.45 305.25 98.45 304.75 98.4 325.55 98.3 M319.0 107.7 L330.25 107.35 331.75 107.6 333.3 107.4 336.9 107.65 334.9 107.65 Q327.05 108.45 319.0 107.7 M338.95 107.65 L338.95 107.5 Q338.95 106.75 339.3 105.25 L339.45 104.1 339.7 105.1 Q340.05 106.45 338.95 107.65" fill="#ab4848" fill-rule="evenodd" stroke="none"/>
    <path d="M344.85 108.15 L345.0 109.0 345.0 109.8 344.85 109.55 344.85 108.8 344.85 108.15" fill="#5e1717" fill-rule="evenodd" stroke="none"/>
    <path d="M340.05 97.15 L341.6 97.1 340.35 97.25 340.05 97.15 M341.95 97.1 L343.1 97.05 343.75 97.2 342.35 97.35 342.0 97.35 341.95 97.1 M333.75 120.1 L331.85 120.3 332.65 120.1 333.75 120.1 M325.55 120.4 L316.35 120.4 314.7 120.2 322.65 120.2 325.55 120.4 M302.2 120.1 L300.95 120.1 300.3 120.1 300.85 120.05 301.35 120.05 302.2 120.1 M293.0 100.05 L292.85 99.1 292.85 97.55 293.25 97.45 Q293.1 97.65 293.1 98.2 L293.1 98.65 293.15 98.75 Q293.0 99.15 293.0 99.7 L293.0 100.05 M304.9 97.0 L306.55 96.95 306.55 96.9 314.7 96.9 315.7 96.95 307.9 97.15 307.15 97.0 304.9 97.0 M339.3 98.3 L339.45 104.1 339.3 105.25 Q338.95 106.75 338.95 107.5 L338.95 107.65 336.9 107.65 333.3 107.4 331.75 107.6 330.25 107.35 319.0 107.7 303.85 107.8 297.9 108.0 296.9 108.05 297.45 98.3 304.75 98.4 305.25 98.45 320.75 98.45 325.55 98.3 337.8 98.3 339.3 98.3 M297.55 114.65 L297.45 114.55 297.45 114.4 297.55 114.65 M300.85 117.65 L300.7 117.55 300.95 117.65 300.85 117.65" fill="#420c0c" fill-rule="evenodd" stroke="none"/>
    <path d="M342.0 113.45 L342.2 114.05 341.5 116.0 341.6 113.55 342.0 113.45 M338.35 120.2 L338.3 120.2 337.9 120.1 338.35 120.1 338.35 120.2 M337.2 120.1 L334.15 120.3 334.0 120.15 334.0 120.1 337.2 120.1 M331.85 120.3 L331.1 120.4 325.55 120.4 322.65 120.2 332.65 120.1 331.85 120.3 M300.3 120.1 L299.1 120.2 299.35 119.85 299.35 119.8 301.35 120.05 300.85 120.05 300.3 120.1" fill="#290404" fill-rule="evenodd" stroke="none"/>
    <path d="M299.1 120.2 L298.55 120.3 297.75 120.15 297.45 118.1 296.9 115.8 296.2 114.45 296.2 114.0 296.4 114.05 297.45 114.55 297.55 114.65 297.8 115.15 298.05 116.75 298.4 118.35 Q298.4 118.9 298.85 119.35 L299.2 119.65 299.35 119.8 299.35 119.85 299.1 120.2" fill="#270606" fill-rule="evenodd" stroke="none"/>
    <path d="M344.85 113.05 L344.35 113.15 344.05 113.05 344.85 113.05" fill="#ffcc00" fill-rule="evenodd" stroke="none"/>
    <path d="M343.75 97.2 Q345.0 97.1 345.0 97.5 L344.65 99.8 344.65 100.1 345.0 103.35 Q345.15 105.3 344.75 105.8 L344.85 108.15 344.85 108.8 344.85 109.55 345.0 109.8 345.1 110.05 345.0 110.35 344.9 111.2 292.95 111.2 293.05 105.3 293.0 103.8 293.0 103.75 293.25 102.85 293.1 100.5 293.1 100.35 293.1 100.15 293.0 100.05 293.0 99.7 Q293.0 99.15 293.15 98.75 L293.1 98.65 293.1 98.2 Q293.1 97.65 293.25 97.45 293.75 97.05 295.4 97.05 L295.4 97.0 304.9 97.0 307.15 97.0 307.9 97.15 Q301.6 97.65 295.3 97.25 L295.25 98.55 295.25 99.9 Q295.15 104.4 295.4 108.9 L341.75 109.2 Q341.95 108.55 341.95 105.75 L342.0 97.35 342.35 97.35 343.75 97.2" fill="#999999" fill-rule="evenodd" stroke="none"/>
    <path d="M341.6 97.1 L341.95 97.1 342.0 97.35 341.95 105.75 Q341.95 108.55 341.75 109.2 L295.4 108.9 Q295.15 104.4 295.25 99.9 L295.25 98.55 295.3 97.25 Q301.6 97.65 307.9 97.15 L315.7 96.95 334.65 97.15 340.35 97.25 341.6 97.1 M339.45 104.1 L339.3 98.3 338.45 98.15 337.8 98.3 325.55 98.3 304.75 98.4 297.45 98.3 296.9 108.05 297.9 108.0 303.85 107.8 319.0 107.7 Q327.05 108.45 334.9 107.65 L336.9 107.65 338.95 107.65 Q340.05 106.45 339.7 105.1 L339.45 104.1" fill="#cccccc" fill-rule="evenodd" stroke="none"/>
    <path d="M341.5 116.0 L340.7 118.45 340.6 118.9 340.55 119.45 340.8 120.0 340.35 120.15 339.7 120.1 338.85 120.4 338.35 120.2 338.35 120.1 337.9 120.1 337.2 120.1 334.0 120.1 333.75 120.1 332.65 120.1 322.65 120.2 314.7 120.2 302.2 120.1 301.35 120.05 299.35 119.8 299.2 119.65 317.4 119.2 338.7 119.3 340.8 114.2 341.6 113.55 341.5 116.0" fill="#000000" fill-rule="evenodd" stroke="none"/>
    <path d="M344.9 111.2 L344.85 111.25 Q345.05 111.45 345.05 112.15 L345.0 112.85 344.85 113.05 344.05 113.05 344.0 112.9 343.95 112.75 343.45 113.05 341.95 113.3 342.0 113.45 341.6 113.55 340.8 114.2 338.7 119.3 317.4 119.2 299.2 119.65 298.85 119.35 Q298.4 118.9 298.4 118.35 L298.05 116.75 297.8 115.15 297.55 114.65 297.45 114.4 297.45 114.55 296.4 114.05 296.4 113.9 296.45 113.25 296.55 113.15 296.4 113.15 294.4 113.4 Q293.85 113.4 293.55 113.05 L293.4 112.9 293.25 112.3 293.3 112.0 292.95 111.45 292.95 111.2 344.9 111.2 M300.85 117.65 L300.95 117.65 300.7 117.55 300.85 117.65" fill="#333333" fill-rule="evenodd" stroke="none"/>
    <path d="M344.65 110.5 L344.7 110.5 344.7 97.45 293.85 97.45 293.85 110.45 294.0 110.5 294.0 111.4 294.05 111.4 294.1 112.8 344.5 112.8 344.65 111.4 344.65 111.2 344.65 110.5 M340.1 98.25 L340.5 98.35 340.65 98.55 340.65 107.65 340.5 107.9 340.1 108.0 297.95 108.0 297.5 107.9 297.35 107.65 297.35 98.55 297.5 98.35 297.95 98.25 340.1 98.25 M345.65 96.9 L345.8 97.1 345.8 110.9 345.45 113.15 345.3 113.35 344.95 113.45 343.5 113.45 341.15 120.4 341.0 120.6 340.65 120.65 297.6 120.5 297.35 120.45 297.1 120.25 295.45 113.45 293.55 113.45 293.2 113.35 293.05 113.1 292.95 111.1 292.8 110.85 292.8 97.1 292.95 96.9 293.3 96.8 345.2 96.8 345.65 96.9 M338.0 107.3 L337.75 99.5 300.1 99.5 299.6 107.3 338.0 107.3 M296.75 114.25 L298.1 119.85 340.15 120.0 342.05 114.05 296.75 114.25" fill="#000000" fill-rule="evenodd" stroke="none"/>
    <path d="M344.65 110.5 L344.65 111.2 294.05 111.2 294.05 111.4 294.0 111.4 294.0 110.5 344.65 110.5" fill="#cccccc" fill-rule="evenodd" stroke="none"/>
    <path d="M316.4 102.9 L316.6 102.9 316.75 103.0 316.4 102.9" fill="#5e5959" fill-rule="evenodd" stroke="none"/>
    <path d="M325.55 103.7 L325.45 103.4 322.3 103.45 322.65 104.15 Q325.35 104.15 325.55 103.7 M329.1 104.5 Q325.1 104.7 325.1 105.6 325.1 106.2 325.8 106.35 L330.6 106.65 332.25 106.3 Q333.0 105.95 333.0 105.45 333.0 104.35 329.1 104.5 M335.15 107.65 L323.95 107.65 315.25 107.2 302.85 107.15 300.85 106.95 Q297.95 106.9 297.95 105.2 297.95 103.3 304.65 102.7 L305.65 103.15 307.4 102.75 Q315.1 101.1 320.65 101.55 329.2 102.0 330.9 104.15 334.9 103.85 336.55 104.8 337.55 105.35 337.55 106.05 337.55 107.15 335.15 107.65 M316.4 102.9 L313.95 102.7 311.2 102.95 Q310.8 103.1 310.8 103.65 L310.95 104.1 313.95 104.55 Q317.25 104.55 317.25 103.75 317.25 103.3 316.9 103.1 L316.85 103.05 316.75 103.0 316.6 102.9 316.4 102.9 M306.4 104.15 L305.4 104.35 305.15 104.45 304.9 104.9 305.35 105.5 Q306.25 106.05 308.9 106.05 L310.55 105.7 311.1 105.15 Q310.3 104.55 308.8 104.3 L307.9 104.1 306.4 104.15" fill="#996600" fill-rule="evenodd" stroke="none"/>
    <path d="M325.55 103.7 Q325.35 104.15 322.65 104.15 L322.3 103.45 325.45 103.4 325.55 103.7 M329.9 104.95 Q328.25 105.1 328.25 105.5 328.25 105.85 328.45 105.85 L329.1 105.9 330.85 105.85 Q331.5 105.75 331.5 105.4 331.5 104.85 329.9 104.95 M329.1 104.5 Q333.0 104.35 333.0 105.45 333.0 105.95 332.25 106.3 L330.6 106.65 325.8 106.35 Q325.1 106.2 325.1 105.6 325.1 104.7 329.1 104.5 M308.8 104.3 Q310.3 104.55 311.1 105.15 L310.55 105.7 308.9 106.05 Q306.25 106.05 305.35 105.5 L304.9 104.9 305.15 104.45 305.4 104.35 306.4 104.15 Q305.8 104.3 305.55 104.65 306.15 105.25 308.45 105.25 309.55 105.25 309.55 104.8 309.55 104.5 308.8 104.3" fill="#543201" fill-rule="evenodd" stroke="none"/>
    <path d="M329.9 104.95 Q331.5 104.85 331.5 105.4 331.5 105.75 330.85 105.85 L329.1 105.9 328.45 105.85 Q328.25 105.85 328.25 105.5 328.25 105.1 329.9 104.95 M316.75 103.0 L316.85 103.05 316.9 103.1 Q317.25 103.3 317.25 103.75 317.25 104.55 313.95 104.55 L310.95 104.1 310.8 103.65 Q310.8 103.1 311.2 102.95 L313.95 102.7 316.4 102.9 316.75 103.0 M308.8 104.3 Q309.55 104.5 309.55 104.8 309.55 105.25 308.45 105.25 306.15 105.25 305.55 104.65 305.8 104.3 306.4 104.15 L307.9 104.1 308.8 104.3" fill="#f49302" fill-rule="evenodd" stroke="none"/>
    <path d="M327.45 115.25 Q328.05 115.25 328.45 115.65 328.9 116.1 328.9 116.7 L328.45 117.7 Q328.05 118.15 327.45 118.15 L300.95 118.15 Q300.35 118.15 299.9 117.7 299.5 117.3 299.5 116.7 299.5 116.1 299.9 115.65 300.35 115.25 300.95 115.25 L327.45 115.25" fill="#666666" fill-rule="evenodd" stroke="none"/>
    <path d="M306.55 86.05 L308.55 86.0 Q307.15 86.15 307.15 86.85 L307.55 87.45 Q308.25 88.05 309.35 88.1 L311.35 87.6 312.2 86.9 Q312.2 86.1 309.7 86.0 L309.25 85.95 310.15 85.9 312.05 85.8 314.1 86.3 314.1 86.35 314.2 86.9 Q314.4 87.4 315.25 87.4 315.75 87.45 316.15 87.0 L316.5 87.15 316.4 86.6 316.5 86.1 316.45 85.5 Q316.9 83.2 320.5 81.8 L320.7 81.8 320.0 82.1 Q318.4 82.8 318.4 83.05 L318.45 83.3 319.35 83.4 319.3 83.5 Q318.95 83.8 318.35 83.9 317.95 83.95 317.9 84.15 L318.0 84.35 Q318.15 84.55 318.6 84.6 320.15 84.65 322.3 83.2 324.25 81.9 324.25 81.2 L324.1 80.45 325.2 79.75 Q325.5 80.05 326.35 80.1 327.9 80.15 327.95 78.75 327.95 78.1 326.75 77.5 325.5 76.9 325.45 77.95 L325.45 78.05 325.4 77.8 Q325.45 77.1 326.75 76.6 L329.35 75.8 330.75 74.7 Q331.75 73.95 332.65 73.95 333.45 74.0 333.45 74.5 L332.95 74.95 338.65 73.35 Q342.55 72.55 342.5 74.0 342.5 74.75 329.2 77.95 L329.9 78.9 330.7 79.75 331.1 80.1 330.7 80.45 330.0 80.65 329.6 80.6 Q329.0 81.1 327.65 81.6 325.25 82.55 325.2 83.3 L325.45 83.9 325.75 84.7 325.7 84.7 325.85 84.75 327.05 84.1 Q328.1 83.55 329.95 83.6 330.45 83.65 331.6 82.5 332.75 81.35 334.1 81.4 L334.45 81.45 334.55 81.8 333.8 82.7 332.55 83.8 Q331.6 85.1 328.15 85.45 L327.4 86.8 Q326.95 87.65 325.9 87.65 L325.25 87.4 324.9 87.2 324.85 87.15 324.8 87.3 Q324.75 87.65 326.7 89.5 L327.9 90.65 328.85 91.4 Q329.7 91.4 329.6 92.15 L329.4 93.35 328.8 92.6 328.0 91.55 Q327.7 90.75 326.3 91.3 325.05 91.95 325.05 92.4 325.0 92.65 325.25 92.95 L325.2 93.2 324.7 93.1 324.4 94.55 324.8 94.25 324.85 95.0 Q325.05 95.75 325.65 95.75 L326.3 95.6 326.15 96.65 326.25 97.0 326.7 97.3 Q327.65 97.35 327.45 95.3 L327.3 94.65 328.05 94.05 328.3 94.2 328.75 94.35 329.25 94.25 328.75 97.1 327.85 99.55 Q327.3 100.5 325.95 101.05 327.5 101.1 328.55 101.6 L328.75 101.75 329.4 101.4 Q330.6 100.65 331.15 101.1 331.6 101.5 331.6 102.05 L331.3 102.55 334.5 103.7 Q335.2 104.15 335.15 105.1 L334.85 106.25 Q334.5 107.1 334.0 107.1 L333.25 106.65 333.25 106.15 333.45 105.7 333.8 104.95 Q333.1 104.3 331.65 104.0 L331.1 104.0 329.2 103.65 328.65 103.55 326.75 103.4 326.4 103.5 Q325.45 103.75 325.45 103.95 L326.2 104.65 Q326.95 105.1 326.9 105.9 326.9 106.65 325.95 106.65 325.1 106.6 324.75 106.15 L324.45 105.6 Q324.05 105.1 322.5 104.8 L319.55 103.65 319.2 103.7 317.35 103.5 316.35 104.5 Q315.35 105.45 313.35 105.35 L312.15 105.25 312.15 105.1 311.05 105.1 308.3 105.9 Q307.8 105.85 307.65 105.35 L307.65 104.85 Q307.65 103.95 308.8 103.8 311.75 103.35 313.6 102.7 313.4 102.15 313.45 101.3 313.5 100.3 314.05 99.9 L313.95 100.2 314.0 100.65 Q314.4 101.05 316.0 101.1 L316.65 101.05 318.05 100.15 320.1 99.05 320.35 98.85 Q320.4 97.75 321.05 97.35 L321.1 97.25 320.4 97.3 320.5 97.15 321.15 96.25 321.2 96.0 Q320.75 95.85 320.7 95.5 L320.65 94.9 Q320.65 94.45 320.95 93.85 L320.15 93.7 319.4 93.35 318.7 93.35 318.3 94.3 Q317.8 94.85 315.9 94.8 313.7 94.7 312.8 93.9 312.4 93.5 312.4 92.95 312.35 92.3 311.7 91.95 L310.2 91.3 Q308.2 90.1 307.0 89.75 L304.9 89.3 Q303.6 89.0 303.55 88.4 L302.7 88.5 301.8 88.5 300.2 88.35 299.05 88.55 Q299.5 88.4 299.55 87.95 299.55 87.45 299.0 87.5 L296.15 87.6 294.4 87.55 295.65 87.3 298.15 86.95 296.65 86.25 294.6 85.2 293.3 83.95 293.3 83.8 293.7 83.85 295.1 83.9 296.25 84.4 296.3 84.0 296.2 83.9 296.45 83.4 Q296.75 82.35 297.6 81.4 L298.0 80.95 298.0 80.85 Q298.0 80.55 300.8 79.25 303.2 78.0 304.25 77.65 L304.35 77.65 304.4 77.85 Q304.4 78.3 301.95 79.85 299.8 81.2 298.85 81.35 L298.6 82.05 297.95 83.2 297.9 83.35 298.6 83.6 299.65 84.5 Q300.8 85.4 301.75 85.4 L304.4 85.45 304.65 85.95 302.5 85.95 301.75 85.95 301.15 86.25 Q301.6 86.75 302.45 86.85 L305.65 87.0 Q306.65 87.05 306.7 86.4 L306.55 86.05 M340.25 73.8 L340.2 73.75 333.35 75.85 Q333.3 75.45 332.85 75.4 L331.0 75.85 331.3 75.4 Q331.5 75.2 331.7 75.15 331.6 75.0 331.4 75.0 L329.35 76.1 327.95 76.35 Q327.15 76.55 327.15 76.95 L327.55 77.4 328.4 77.45 331.2 76.8 333.15 76.1 336.95 75.05 340.25 73.8 M321.75 85.45 L321.45 85.9 323.05 86.3 Q323.95 86.3 324.0 85.6 324.0 84.95 322.65 84.6 321.25 84.25 321.25 84.95 321.25 85.3 321.75 85.45 M322.15 88.05 Q321.75 87.55 319.8 87.55 320.05 85.35 319.05 86.2 318.1 87.05 318.05 88.05 L318.1 88.4 318.75 88.75 Q318.45 88.95 318.4 89.3 L318.5 89.65 Q317.75 89.25 317.15 89.25 L316.15 88.9 Q314.95 88.05 314.45 88.05 313.8 88.05 313.8 88.65 L314.3 89.3 314.85 89.8 314.9 91.65 314.75 92.0 314.55 92.45 316.3 93.8 317.15 92.8 318.25 90.9 318.5 91.0 Q322.1 91.45 323.35 91.0 324.1 90.65 324.1 90.0 324.1 89.4 322.7 88.75 L322.15 88.05 M326.2 105.95 L326.75 105.85 325.1 104.75 Q324.1 103.95 323.15 103.85 322.2 103.2 320.9 103.05 L319.1 102.9 319.1 103.05 322.65 104.65 Q325.7 105.9 326.2 105.95 M326.85 98.9 L325.6 98.7 324.85 98.15 324.6 98.05 325.85 96.8 Q325.85 95.85 324.3 96.1 L324.25 96.15 324.2 97.35 324.25 98.7 323.9 99.3 324.05 99.45 Q324.65 100.1 325.3 99.95 L325.2 100.0 324.2 100.55 Q323.9 100.8 323.9 101.2 L324.05 101.3 326.15 100.55 Q327.55 100.0 327.55 99.5 327.6 98.95 326.85 98.9 M310.35 104.85 L311.7 104.6 313.3 104.0 315.1 103.55 Q315.5 103.5 315.5 103.1 315.5 102.4 314.65 101.3 313.75 100.2 313.7 101.35 L314.2 102.75 Q310.15 104.15 309.75 104.6 L309.95 104.8 310.35 104.85 M324.25 103.15 L323.45 103.0 323.5 103.05 323.95 103.25 324.2 103.2 324.25 103.15 M297.8 85.1 L297.4 84.8 297.35 84.9 297.75 85.1 297.8 85.1 M291.05 89.0 L290.45 89.65 Q290.0 90.2 287.1 90.1 286.8 90.05 286.4 89.8 L285.85 89.5 286.3 89.95 Q286.7 90.35 287.65 90.4 L290.1 90.05 Q292.4 88.85 293.55 88.45 L296.15 88.5 297.85 88.65 294.65 89.1 Q294.5 89.15 292.9 90.15 L290.9 91.2 290.3 91.0 289.9 91.15 289.15 91.35 Q287.8 91.3 286.95 90.4 L285.45 90.1 284.3 89.9 284.2 89.75 Q284.2 89.55 285.15 89.35 L286.05 89.3 288.1 89.65 Q288.6 90.0 289.15 90.0 L289.95 89.5 291.05 89.0 M298.55 84.95 L299.25 85.45 300.3 85.8 300.7 85.8 300.5 85.65 299.55 85.25 298.55 84.95" fill="#473c38" fill-rule="evenodd" stroke="none"/>
    <path d="M306.55 86.05 L306.7 86.4 Q306.65 87.05 305.65 87.0 L302.45 86.85 Q301.6 86.75 301.15 86.25 L301.75 85.95 302.5 85.95 304.65 85.95 305.05 86.0 306.55 86.05 M294.4 87.55 L296.15 87.6 299.0 87.5 Q299.55 87.45 299.55 87.95 299.5 88.4 299.05 88.55 L297.95 88.65 297.85 88.65 296.15 88.5 293.55 88.45 Q292.4 88.85 290.1 90.05 L287.65 90.4 Q286.7 90.35 286.3 89.95 L285.85 89.5 286.4 89.8 Q286.8 90.05 287.1 90.1 290.0 90.2 290.45 89.65 L291.05 89.0 Q291.9 88.15 293.45 87.55 L294.4 87.55 M320.4 97.3 L321.1 97.25 321.05 97.35 Q320.4 97.75 320.35 98.85 L320.1 99.05 318.05 100.15 316.65 101.05 316.0 101.1 Q314.4 101.05 314.0 100.65 L313.95 100.2 314.05 99.9 Q314.4 98.95 317.0 98.1 318.9 97.45 320.4 97.3 M329.25 94.25 L328.75 94.35 328.3 94.2 328.05 94.05 327.3 94.65 327.45 95.3 Q327.65 97.35 326.7 97.3 L326.25 97.0 326.15 96.65 326.3 95.6 325.65 95.75 Q325.05 95.75 324.85 95.0 L324.8 94.25 324.4 94.55 324.7 93.1 325.2 93.2 325.25 92.95 Q325.0 92.65 325.05 92.4 325.05 91.95 326.3 91.3 327.7 90.75 328.0 91.55 L328.8 92.6 329.4 93.35 329.55 93.7 329.35 94.15 329.25 94.25 M325.45 78.05 L325.45 77.95 Q325.5 76.9 326.75 77.5 327.95 78.1 327.95 78.75 327.9 80.15 326.35 80.1 325.5 80.05 325.2 79.75 L325.1 79.6 325.1 79.2 325.45 78.05 M324.1 80.45 L324.25 81.2 Q324.25 81.9 322.3 83.2 320.15 84.65 318.6 84.6 318.15 84.55 318.0 84.35 L317.9 84.15 Q317.95 83.95 318.35 83.9 318.95 83.8 319.3 83.5 L319.35 83.4 318.45 83.3 318.4 83.05 Q318.4 82.8 320.0 82.1 L320.7 81.8 321.95 81.15 Q323.65 80.0 324.1 80.45 M309.25 85.95 L309.7 86.0 Q312.2 86.1 312.2 86.9 L311.35 87.6 309.35 88.1 Q308.25 88.05 307.55 87.45 L307.15 86.85 Q307.15 86.15 308.55 86.0 L309.25 85.95 M321.75 85.45 Q321.25 85.3 321.25 84.95 321.25 84.25 322.65 84.6 324.0 84.95 324.0 85.6 323.95 86.3 323.05 86.3 L321.45 85.9 321.75 85.45 M340.25 73.8 L336.95 75.05 333.15 76.1 331.2 76.8 328.4 77.45 327.55 77.4 327.15 76.95 Q327.15 76.55 327.95 76.35 L329.35 76.1 331.4 75.0 Q331.6 75.0 331.7 75.15 331.5 75.2 331.3 75.4 L331.0 75.85 332.85 75.4 Q333.3 75.45 333.35 75.85 L340.2 73.75 340.25 73.8 M326.85 98.9 Q327.6 98.95 327.55 99.5 327.55 100.0 326.15 100.55 L324.05 101.3 323.9 101.2 Q323.9 100.8 324.2 100.55 L325.2 100.0 325.3 99.95 Q324.65 100.1 324.05 99.45 L323.9 99.3 324.25 98.7 324.2 97.35 324.25 96.15 324.3 96.1 Q325.85 95.85 325.85 96.8 L324.6 98.05 324.85 98.15 325.6 98.7 326.85 98.9 M326.2 105.95 Q325.7 105.9 322.65 104.65 L319.1 103.05 319.1 102.9 320.9 103.05 Q322.2 103.2 323.15 103.85 324.1 103.95 325.1 104.75 L326.75 105.85 326.2 105.95 M322.15 88.05 L322.7 88.75 Q324.1 89.4 324.1 90.0 324.1 90.65 323.35 91.0 322.1 91.45 318.5 91.0 L318.25 90.9 317.15 92.8 316.3 93.8 314.55 92.45 314.75 92.0 314.9 91.65 314.85 89.8 314.3 89.3 313.8 88.65 Q313.8 88.05 314.45 88.05 314.95 88.05 316.15 88.9 L317.15 89.25 Q317.75 89.25 318.5 89.65 L318.4 89.3 Q318.45 88.95 318.75 88.75 L318.1 88.4 318.05 88.05 Q318.1 87.05 319.05 86.2 320.05 85.35 319.8 87.55 321.75 87.55 322.15 88.05 M310.35 104.85 L309.95 104.8 309.75 104.6 Q310.15 104.15 314.2 102.75 L313.7 101.35 Q313.75 100.2 314.65 101.3 315.5 102.4 315.5 103.1 315.5 103.5 315.1 103.55 L313.3 104.0 311.7 104.6 310.35 104.85 M298.55 84.95 L299.55 85.25 300.5 85.65 300.7 85.8 300.3 85.8 299.25 85.45 298.55 84.95" fill="#7e655b" fill-rule="evenodd" stroke="none"/>
    <path d="M344.8 70.7 L343.0 73.35 342.5 74.8 340.25 75.8 329.8 78.6 331.65 80.3 327.35 81.5 325.1 83.15 326.25 84.4 333.75 81.2 330.15 84.0 329.35 83.8 326.8 85.5 326.15 86.6 324.15 83.4 327.15 81.4 330.45 80.15 328.5 77.9 341.5 74.35 341.4 73.75 331.7 75.65 332.5 74.65 332.1 74.6 327.95 76.85 325.85 77.7 325.45 79.25 325.0 77.35 330.8 75.15 334.1 71.6 333.1 73.55 334.55 72.4 333.15 74.6 337.45 73.85 Q338.4 73.9 339.3 73.45 339.9 73.2 340.65 72.9 342.5 72.1 343.35 70.1 343.7 69.1 344.15 69.95 L342.25 73.1 344.8 70.7 M309.25 75.7 L310.15 75.95 303.85 78.75 299.5 81.65 298.75 84.2 302.0 85.3 314.0 85.7 314.45 87.0 316.2 86.95 316.2 85.4 316.05 84.65 315.5 83.85 324.65 79.55 325.55 79.95 317.6 84.25 317.3 85.55 317.4 87.55 315.65 88.05 312.85 86.6 300.7 85.6 297.9 83.85 298.0 83.65 298.35 82.4 Q298.7 81.5 299.4 81.1 L301.4 80.15 Q302.6 79.65 303.25 78.65 L303.55 78.2 302.45 78.7 Q303.3 78.0 303.8 77.1 L303.9 76.5 Q303.9 75.7 304.25 75.5 L304.15 78.15 309.25 75.7 M334.35 82.15 L331.8 85.1 328.85 85.1 327.65 88.0 325.85 88.4 328.75 91.45 329.8 91.2 329.8 98.2 328.2 100.4 329.35 100.45 331.05 100.6 Q332.5 100.9 332.35 102.15 L333.2 102.4 334.55 101.8 335.4 103.25 335.9 103.35 Q335.75 104.7 335.2 106.05 334.75 107.2 333.75 107.8 L332.25 107.95 332.95 104.75 330.7 104.15 326.95 103.95 328.15 107.6 326.9 107.35 326.3 107.55 324.05 105.95 315.75 105.2 315.0 106.2 311.2 105.85 307.4 106.2 304.9 106.85 308.15 103.05 313.05 102.6 312.2 100.7 312.65 99.75 316.55 98.35 319.1 96.9 320.0 94.4 316.65 96.1 316.2 95.65 Q315.25 95.45 313.85 95.65 312.5 95.8 312.2 94.55 L312.05 93.15 307.4 90.85 302.0 89.5 301.95 88.8 299.8 88.35 299.15 89.0 298.15 89.05 297.3 89.7 295.75 89.45 291.7 91.4 286.05 90.4 291.25 90.8 292.3 89.45 297.05 88.4 298.7 87.7 297.55 87.1 295.85 87.45 Q294.1 87.75 292.95 88.6 L292.25 89.05 Q291.1 89.7 289.95 90.0 L284.5 89.55 283.1 89.85 280.15 89.8 279.9 89.8 Q279.0 90.1 279.55 89.4 L283.1 89.2 289.3 89.4 290.2 89.4 291.65 88.7 293.0 88.05 Q295.05 87.05 297.25 86.9 L293.1 84.65 300.1 87.5 303.35 87.5 303.55 88.6 305.5 88.95 310.9 91.25 309.7 91.2 311.5 91.5 312.85 91.45 311.7 90.3 313.6 89.95 314.0 90.4 314.05 91.0 313.7 92.9 314.25 94.3 315.8 94.35 317.25 94.7 318.7 93.5 318.1 92.3 321.2 92.8 321.2 94.0 322.15 94.45 321.75 95.65 322.4 96.95 320.9 97.55 320.75 98.25 313.4 100.75 314.5 103.55 Q313.85 103.95 313.4 103.2 L307.5 104.9 312.65 104.7 312.7 105.35 314.05 105.35 314.4 104.65 316.75 103.85 316.45 102.9 326.8 105.6 325.95 104.9 319.8 102.2 327.2 99.95 327.95 99.5 328.85 94.1 328.9 92.65 327.7 92.7 327.7 91.6 324.85 88.0 324.25 87.1 325.65 86.75 326.2 87.4 327.6 85.05 330.95 84.65 334.15 81.45 334.35 82.15 M297.7 80.15 L298.25 80.25 298.85 80.2 298.15 80.5 296.65 83.1 297.7 80.15 M321.6 92.05 Q321.1 92.0 320.75 91.75 320.4 91.55 320.45 91.2 320.45 90.9 320.8 90.65 L321.65 90.5 322.5 90.7 322.85 91.3 322.45 91.8 321.6 92.05 M321.6 93.2 Q321.65 93.0 321.85 92.95 322.0 92.8 322.25 92.8 L322.7 92.95 322.8 93.25 322.65 93.5 322.2 93.6 321.8 93.5 321.6 93.2 M330.75 101.5 L330.25 102.4 328.1 101.95 325.75 101.9 324.0 102.25 333.6 104.05 334.2 106.95 335.15 105.95 334.75 104.0 330.7 102.2 331.45 101.8 Q331.3 101.05 330.75 101.5 M325.8 94.9 L326.5 94.6 326.8 96.5 327.3 94.2 326.65 93.95 Q326.65 93.45 326.95 93.2 327.15 93.1 327.05 93.6 L327.8 93.7 326.95 97.65 325.8 94.9 M325.1 91.4 Q325.7 90.75 325.95 91.25 L325.35 98.4 325.9 98.4 326.05 99.65 324.85 99.6 324.15 98.5 324.25 96.95 324.55 96.45 324.75 96.0 324.8 95.3 324.45 93.05 Q324.35 92.1 325.1 91.4" fill="#000000" fill-rule="evenodd" stroke="none"/>
    <path d="M293.4 78.75 L292.8 78.55 292.7 78.25 292.5 77.7 292.45 77.55 292.4 77.2 292.4 76.85 Q292.45 76.25 293.0 75.75 L293.15 75.65 Q293.7 75.15 294.8 74.8 L294.95 74.8 295.75 74.55 295.95 74.55 300.95 73.75 305.35 73.25 306.45 73.2 Q311.15 72.9 313.95 74.4 315.6 75.3 316.35 76.35 L316.4 76.4 315.4 77.1 Q313.95 78.0 312.25 78.55 L310.2 79.1 310.35 78.9 310.55 78.75 310.65 78.55 310.9 78.15 310.9 77.9 310.9 77.75 310.7 77.75 310.55 77.95 310.3 78.05 309.55 78.7 309.55 78.75 309.45 78.85 309.3 78.95 308.95 79.25 308.85 79.35 308.8 79.4 308.5 79.45 306.4 79.7 306.5 79.55 306.5 79.5 306.6 79.35 306.65 79.2 306.7 79.15 306.8 79.05 306.8 79.0 307.05 78.45 307.3 78.1 307.35 77.95 307.75 76.85 307.6 76.1 307.45 76.1 307.35 76.85 306.95 78.0 306.9 78.1 306.65 78.5 306.25 79.05 306.1 79.2 305.95 79.35 305.8 79.5 305.75 79.55 305.5 79.75 304.55 79.75 303.75 79.75 303.7 79.55 303.7 79.5 303.65 79.35 303.65 79.3 303.6 79.2 303.6 79.1 303.6 79.05 303.55 79.05 303.45 78.7 303.4 78.5 303.35 78.45 302.9 77.1 302.55 76.35 Q302.2 76.4 302.15 76.85 L302.15 77.05 302.15 77.15 302.5 78.55 302.5 78.6 302.55 78.7 302.55 78.75 302.6 78.95 302.6 79.05 302.65 79.1 302.65 79.25 302.75 79.45 302.8 79.55 302.85 79.7 301.2 79.7 301.1 79.55 301.0 79.55 300.8 79.35 300.6 79.1 300.35 78.8 300.3 78.75 300.3 78.7 299.2 77.35 298.55 76.4 298.3 76.4 298.3 76.85 298.5 77.35 299.2 78.65 299.25 78.7 299.25 78.75 299.3 78.8 299.35 78.95 299.45 79.1 299.5 79.2 299.7 79.55 299.7 79.6 299.75 79.65 298.15 79.6 298.15 79.55 297.9 79.35 297.5 79.1 297.35 78.95 297.3 78.95 296.85 78.6 296.8 78.6 296.8 78.55 296.6 78.4 296.55 78.4 296.5 78.35 296.45 78.3 295.45 77.55 295.15 77.35 295.05 77.35 295.2 77.55 295.65 78.1 295.7 78.15 295.85 78.3 295.9 78.35 296.05 78.45 296.25 78.6 296.6 78.95 296.7 79.05 296.85 79.2 297.25 79.5 296.1 79.35 294.45 79.05 294.05 78.8 293.0 77.7 292.85 77.5 292.85 77.45 292.8 77.45 292.8 77.9 293.1 78.45 293.4 78.75 M310.8 73.8 L309.0 73.5 305.35 73.5 301.95 74.0 Q300.6 74.4 300.6 74.8 L300.6 75.0 300.85 75.15 301.3 75.15 301.65 75.1 302.25 75.1 303.7 75.6 304.65 75.9 304.8 75.9 304.85 75.9 305.65 75.5 307.85 75.1 Q308.7 75.1 309.25 75.65 309.85 76.25 310.55 76.25 311.5 76.25 312.1 75.65 L312.5 74.9 Q312.5 74.5 311.9 74.15 L310.8 73.8" fill="#2f8e40" fill-rule="evenodd" stroke="none"/>
    <path d="M310.8 73.8 L311.9 74.15 Q312.5 74.5 312.5 74.9 L312.1 75.65 Q311.5 76.25 310.55 76.25 309.85 76.25 309.25 75.65 308.7 75.1 307.85 75.1 L305.65 75.5 304.85 75.9 304.8 75.9 304.65 75.9 303.7 75.6 302.25 75.1 301.65 75.1 301.3 75.15 300.85 75.15 300.6 75.0 300.6 74.8 Q300.6 74.4 301.95 74.0 L305.35 73.5 309.0 73.5 310.8 73.8" fill="#3baf51" fill-rule="evenodd" stroke="none"/>
    <path d="M293.4 78.75 L293.1 78.45 292.8 77.9 292.8 77.45 292.85 77.45 292.85 77.5 293.0 77.7 294.05 78.8 294.45 79.05 293.4 78.75 M297.25 79.5 L296.85 79.2 296.7 79.05 296.6 78.95 296.25 78.6 296.05 78.45 295.9 78.35 295.85 78.3 295.7 78.15 295.65 78.1 295.2 77.55 295.05 77.35 295.15 77.35 295.45 77.55 296.45 78.3 296.5 78.35 296.55 78.4 296.6 78.4 296.8 78.55 296.8 78.6 296.85 78.6 297.3 78.95 297.35 78.95 297.5 79.1 297.9 79.35 298.15 79.55 298.15 79.6 297.25 79.5 M299.75 79.65 L299.7 79.6 299.7 79.55 299.5 79.2 299.45 79.1 299.35 78.95 299.3 78.8 299.25 78.75 299.25 78.7 299.2 78.65 298.5 77.35 298.3 76.85 298.3 76.4 298.55 76.4 299.2 77.35 300.3 78.7 300.3 78.75 300.35 78.8 300.6 79.1 300.8 79.35 301.0 79.55 301.1 79.55 301.2 79.7 300.35 79.65 299.75 79.65 M302.85 79.7 L302.8 79.55 302.75 79.45 302.65 79.25 302.65 79.1 302.6 79.05 302.6 78.95 302.55 78.75 302.55 78.7 302.5 78.6 302.5 78.55 302.15 77.15 302.15 77.05 302.15 76.85 Q302.2 76.4 302.55 76.35 L302.9 77.1 303.35 78.45 303.4 78.5 303.45 78.7 303.55 79.05 303.6 79.05 303.6 79.1 303.6 79.2 303.65 79.3 303.65 79.35 303.7 79.5 303.7 79.55 303.75 79.75 302.85 79.7 M305.5 79.75 L305.75 79.55 305.8 79.5 305.95 79.35 306.1 79.2 306.25 79.05 306.65 78.5 306.9 78.1 306.95 78.0 307.35 76.85 307.45 76.1 307.6 76.1 307.75 76.85 307.35 77.95 307.3 78.1 307.05 78.45 306.8 79.0 306.8 79.05 306.7 79.15 306.65 79.2 306.6 79.35 306.5 79.5 306.5 79.55 306.4 79.7 305.5 79.75 M308.8 79.4 L308.85 79.35 308.95 79.25 309.3 78.95 309.45 78.85 309.55 78.75 309.55 78.7 310.3 78.05 310.55 77.95 310.7 77.75 310.9 77.75 310.9 77.9 310.9 78.15 310.65 78.55 310.55 78.75 310.35 78.9 310.2 79.1 308.8 79.4" fill="#35c44f" fill-rule="evenodd" stroke="none"/>
    <path d="M306.15 82.5 L310.8 81.2 Q314.55 79.85 314.6 79.15 L314.6 79.1 314.55 79.0 314.4 78.8 314.25 78.8 313.9 79.25 313.55 79.5 312.65 79.95 309.75 80.8 308.25 81.1 309.05 80.45 309.1 80.4 309.3 80.25 310.1 79.45 310.15 79.4 310.3 79.2 310.3 79.15 312.35 78.6 Q314.0 78.05 315.45 77.15 L316.5 76.45 316.6 76.65 316.65 76.8 316.7 76.9 316.8 77.25 316.8 77.3 316.85 77.5 316.85 77.7 316.85 77.85 316.85 77.9 316.8 78.0 316.8 78.05 Q316.6 79.95 313.1 81.2 310.15 82.35 306.15 82.5 M308.9 79.45 L308.85 79.5 308.25 79.95 307.3 80.5 305.5 81.3 305.4 81.35 306.0 80.6 306.05 80.5 306.5 79.75 308.6 79.5 308.9 79.45 M305.65 79.8 L304.7 80.5 304.55 80.65 304.4 80.75 304.15 80.95 304.1 80.7 304.05 80.45 303.85 79.8 304.65 79.8 305.65 79.8 M302.95 79.75 L302.95 79.85 303.05 81.2 302.45 80.7 302.0 80.3 301.9 80.25 301.3 79.75 302.95 79.75 M299.85 79.7 L300.1 80.05 300.65 80.7 301.3 81.4 299.7 80.7 298.85 80.1 298.45 79.8 298.2 79.65 299.85 79.7 M297.35 79.55 L297.5 79.65 298.55 80.45 298.8 80.6 299.25 80.95 297.6 80.45 296.6 80.1 294.8 79.25 294.65 79.15 294.55 79.1 296.2 79.45 297.35 79.55 M293.5 78.8 L293.55 78.85 294.05 79.3 295.05 80.0 295.35 80.25 Q297.15 81.4 299.15 81.95 L296.55 81.2 Q294.95 80.6 294.0 79.8 L293.55 79.35 293.0 78.65 293.5 78.8" fill="#0b3913" fill-rule="evenodd" stroke="none"/>
    <path d="M310.3 79.15 L310.3 79.2 310.15 79.4 310.1 79.45 309.3 80.25 309.1 80.4 309.05 80.45 308.25 81.1 309.75 80.8 312.65 79.95 313.55 79.5 313.9 79.25 314.25 78.8 314.4 78.8 314.55 79.0 314.6 79.1 314.6 79.15 Q314.55 79.85 310.8 81.2 L306.15 82.5 304.65 82.65 301.85 82.35 299.15 81.95 Q297.15 81.4 295.35 80.25 L295.05 80.0 294.05 79.3 293.55 78.85 293.5 78.8 294.55 79.1 294.65 79.15 294.8 79.25 296.6 80.1 297.6 80.45 299.25 80.95 298.8 80.6 298.55 80.45 297.5 79.65 297.35 79.55 298.2 79.65 298.45 79.8 298.85 80.1 299.7 80.7 301.3 81.4 300.65 80.7 300.1 80.05 299.85 79.7 300.45 79.7 301.3 79.75 301.9 80.25 302.0 80.3 302.45 80.7 303.05 81.2 302.95 79.85 302.95 79.75 303.85 79.8 304.05 80.45 304.1 80.7 304.15 80.95 304.4 80.75 304.55 80.65 304.7 80.5 305.65 79.8 306.5 79.75 306.05 80.5 306.0 80.6 305.4 81.35 305.5 81.3 307.3 80.5 308.25 79.95 308.85 79.5 308.9 79.45 310.3 79.15" fill="#1d6329" fill-rule="evenodd" stroke="none"/>
    <path d="M332.4 83.5 L332.3 83.4 332.25 83.35 332.1 83.2 331.9 83.0 331.75 82.75 331.7 82.75 331.7 82.7 330.85 81.6 330.4 80.85 330.2 80.85 330.2 81.25 330.35 81.65 330.85 82.65 330.9 82.7 330.9 82.75 330.95 82.8 330.95 82.9 331.05 83.0 331.1 83.1 331.25 83.35 331.25 83.4 331.3 83.45 330.05 83.4 329.9 83.2 329.6 83.0 329.5 82.9 329.45 82.9 329.1 82.65 329.1 82.6 328.9 82.45 328.8 82.45 328.8 82.4 328.0 81.8 327.8 81.6 327.75 81.6 327.85 81.8 328.2 82.25 328.25 82.25 328.35 82.4 328.4 82.4 328.5 82.5 328.65 82.65 328.9 82.9 328.95 82.95 329.1 83.1 329.4 83.35 328.55 83.25 327.3 83.0 326.95 82.75 326.2 81.9 326.1 81.75 326.1 81.7 326.05 81.7 326.05 82.05 326.25 82.5 326.5 82.75 326.05 82.6 325.95 82.35 325.8 81.9 325.75 81.8 325.75 81.5 325.75 81.25 Q325.75 80.75 326.2 80.35 L326.3 80.25 Q326.7 79.85 327.55 79.6 L327.65 79.6 328.3 79.4 328.4 79.4 332.2 78.75 335.5 78.35 336.35 78.3 Q339.9 78.1 342.0 79.25 343.3 80.0 343.8 80.8 L343.85 80.85 343.1 81.45 340.75 82.6 339.2 83.05 339.3 82.85 339.45 82.75 339.55 82.6 339.7 82.25 339.7 82.05 339.7 81.95 339.55 81.95 339.45 82.1 339.25 82.2 338.7 82.7 338.7 82.75 338.6 82.8 338.5 82.9 338.25 83.15 338.2 83.25 338.1 83.25 337.9 83.3 336.3 83.5 336.4 83.4 336.4 83.35 336.45 83.2 336.5 83.1 336.55 83.05 336.6 82.95 336.8 82.5 337.0 82.2 337.0 82.1 337.35 81.25 337.35 81.2 337.25 80.65 337.1 80.65 337.0 81.25 336.7 82.15 336.7 82.25 336.5 82.55 336.2 82.95 336.1 83.1 335.95 83.2 335.85 83.35 335.8 83.4 335.65 83.55 334.9 83.55 334.3 83.55 334.3 83.4 334.3 83.35 334.25 83.25 334.25 83.2 334.2 83.1 334.2 83.0 334.15 82.95 334.05 82.7 334.05 82.55 334.0 82.5 333.65 81.45 333.4 80.8 Q333.15 80.9 333.1 81.25 L333.1 81.4 333.1 81.45 333.35 82.55 333.35 82.6 333.4 82.7 333.4 82.75 333.45 82.9 333.45 83.0 333.5 83.05 333.5 83.15 333.55 83.3 333.6 83.4 333.65 83.5 332.4 83.5 M332.95 78.95 Q331.9 79.25 331.9 79.6 L331.9 79.75 332.15 79.85 332.45 79.9 332.7 79.85 333.2 79.85 334.3 80.2 334.95 80.5 335.1 80.45 335.15 80.5 335.75 80.15 Q336.3 79.8 337.4 79.8 338.05 79.8 338.45 80.3 338.9 80.75 339.45 80.75 340.2 80.75 340.6 80.25 L340.9 79.7 340.45 79.1 339.65 78.8 338.3 78.55 335.5 78.55 332.95 78.95" fill="#2f8e40" fill-rule="evenodd" stroke="none"/>
    <path d="M331.3 83.45 L331.25 83.4 331.25 83.35 331.1 83.1 331.05 83.0 330.95 82.9 330.95 82.8 330.9 82.75 330.9 82.7 330.85 82.65 330.35 81.65 330.2 81.25 330.2 80.85 330.4 80.85 330.85 81.6 331.7 82.7 331.7 82.75 331.75 82.75 331.9 83.0 332.1 83.2 332.25 83.35 332.3 83.4 332.4 83.5 331.75 83.45 331.3 83.45 M333.65 83.5 L333.6 83.4 333.55 83.3 333.5 83.15 333.5 83.05 333.45 83.0 333.45 82.9 333.4 82.75 333.4 82.7 333.35 82.6 333.35 82.55 333.1 81.45 333.1 81.4 333.1 81.25 Q333.15 80.9 333.4 80.8 L333.65 81.45 334.0 82.5 334.05 82.55 334.05 82.7 334.15 82.95 334.2 83.0 334.2 83.1 334.25 83.2 334.25 83.25 334.3 83.35 334.3 83.4 334.3 83.55 333.65 83.5 M335.65 83.55 L335.8 83.4 335.85 83.35 335.95 83.2 336.1 83.1 336.2 82.95 336.5 82.55 336.7 82.25 336.7 82.15 337.0 81.25 337.1 80.65 337.25 80.65 337.35 81.2 337.35 81.25 337.0 82.1 337.0 82.2 336.8 82.5 336.6 82.95 336.55 83.05 336.5 83.1 336.45 83.2 336.4 83.35 336.4 83.4 336.3 83.5 335.65 83.55 M338.2 83.25 L338.25 83.15 338.5 82.9 338.6 82.8 338.7 82.75 338.7 82.7 339.25 82.2 339.45 82.1 339.55 81.95 339.7 81.95 339.7 82.05 339.7 82.25 339.55 82.6 339.45 82.75 339.3 82.85 339.2 83.05 338.2 83.25 M326.5 82.75 L326.25 82.5 326.05 82.05 326.05 81.7 326.1 81.7 326.1 81.75 326.2 81.9 326.95 82.75 327.3 83.0 326.5 82.75 M329.4 83.35 L329.1 83.1 328.95 82.95 328.9 82.9 328.65 82.65 328.5 82.5 328.4 82.4 328.35 82.4 328.25 82.25 328.2 82.25 327.85 81.8 327.75 81.6 327.8 81.6 328.0 81.8 328.8 82.4 328.8 82.45 328.9 82.45 329.1 82.6 329.1 82.65 329.45 82.9 329.5 82.9 329.6 83.0 329.9 83.2 330.05 83.4 329.4 83.35" fill="#35c44f" fill-rule="evenodd" stroke="none"/>
    <path d="M332.95 78.95 L335.5 78.55 338.3 78.55 339.65 78.8 340.45 79.1 340.9 79.7 340.6 80.25 Q340.2 80.75 339.45 80.75 338.9 80.75 338.45 80.3 338.05 79.8 337.4 79.8 336.3 79.8 335.75 80.15 L335.15 80.5 335.1 80.45 334.95 80.5 334.3 80.2 333.2 79.85 332.7 79.85 332.45 79.9 332.15 79.85 331.9 79.75 331.9 79.6 Q331.9 79.25 332.95 78.95" fill="#3baf51" fill-rule="evenodd" stroke="none"/>
    <path d="M326.55 82.9 L326.9 83.25 327.6 83.8 327.9 84.0 Q329.2 84.9 330.7 85.35 L328.75 84.75 Q327.55 84.25 326.85 83.65 L326.5 83.3 326.1 82.7 326.45 82.85 326.5 82.85 326.55 82.9 M336.05 85.8 L339.55 84.75 Q342.35 83.7 342.4 83.1 L342.35 83.0 342.25 82.85 342.15 82.85 341.85 83.2 341.6 83.4 340.95 83.75 338.7 84.45 337.6 84.7 338.2 84.15 338.25 84.1 338.4 84.0 339.0 83.35 339.05 83.3 339.15 83.15 340.7 82.7 343.05 81.55 343.8 80.95 343.9 81.1 343.95 81.25 344.0 81.3 344.1 81.6 344.1 81.65 344.1 81.8 344.1 81.95 344.1 82.05 344.1 82.25 Q343.9 83.75 341.25 84.75 339.05 85.65 336.05 85.8 M338.1 83.35 L338.05 83.4 337.6 83.75 336.9 84.2 336.85 84.2 335.5 84.85 335.45 84.9 335.9 84.3 335.95 84.2 336.3 83.6 337.85 83.4 338.1 83.35 M335.65 83.65 L334.95 84.2 334.8 84.3 334.7 84.4 334.5 84.55 334.45 84.35 334.45 84.15 334.3 83.65 334.85 83.65 335.65 83.65 M333.6 83.6 L333.65 84.75 333.25 84.35 332.85 84.05 332.8 84.0 332.35 83.6 333.6 83.6 M331.25 83.55 L331.45 83.85 331.85 84.35 332.35 84.9 331.15 84.35 330.5 83.9 330.2 83.65 330.0 83.5 331.25 83.55 M329.4 83.45 L329.5 83.5 330.3 84.15 330.45 84.3 330.8 84.55 329.55 84.15 328.8 83.9 327.45 83.2 327.35 83.15 328.5 83.35 329.35 83.45 329.4 83.45" fill="#0b3913" fill-rule="evenodd" stroke="none"/>
    <path d="M330.7 85.35 Q329.2 84.9 327.9 84.0 L327.6 83.8 326.9 83.25 326.55 82.9 327.25 83.1 327.35 83.1 327.35 83.15 327.45 83.2 328.8 83.9 329.55 84.15 330.8 84.55 330.45 84.3 330.3 84.15 329.5 83.5 329.4 83.45 330.0 83.5 330.2 83.65 330.5 83.9 331.15 84.35 332.35 84.9 331.85 84.35 331.45 83.85 331.25 83.55 331.7 83.55 332.35 83.6 332.8 84.0 332.85 84.05 333.25 84.35 333.65 84.75 333.6 83.6 334.3 83.65 334.45 84.15 334.45 84.35 334.5 84.55 334.7 84.4 334.8 84.3 334.95 84.2 335.65 83.65 336.3 83.6 335.95 84.2 335.9 84.3 335.45 84.9 335.5 84.85 336.85 84.2 336.9 84.2 337.6 83.75 338.05 83.4 338.1 83.35 339.15 83.15 339.05 83.3 339.0 83.35 338.4 84.0 338.25 84.1 338.2 84.15 337.6 84.7 338.7 84.45 340.95 83.75 341.6 83.4 341.85 83.2 342.15 82.85 342.25 82.85 342.35 83.0 342.4 83.1 Q342.35 83.7 339.55 84.75 L336.05 85.8 334.85 85.9 332.75 85.7 330.7 85.35" fill="#1d6329" fill-rule="evenodd" stroke="none"/>
    <path d="M334.25 61.95 L334.6 61.9 335.25 61.9 336.75 62.5 337.65 62.95 337.85 62.9 337.9 62.95 338.75 62.4 Q339.55 61.85 341.05 61.85 341.9 61.85 342.5 62.6 343.05 63.3 343.8 63.3 344.8 63.3 345.45 62.55 L345.9 61.65 Q345.9 61.1 345.3 60.7 344.95 60.35 344.2 60.2 L342.35 59.8 338.55 59.8 Q336.45 59.9 335.0 60.45 333.55 60.95 333.55 61.5 L333.5 61.75 333.8 61.95 334.25 61.95 M325.85 66.5 L325.25 66.3 325.15 65.9 324.95 65.2 324.9 65.0 324.9 64.5 324.9 64.1 Q325.0 63.3 325.6 62.75 L325.8 62.55 Q326.35 61.95 327.55 61.55 L327.7 61.5 328.55 61.2 328.75 61.15 334.0 60.15 338.6 59.55 339.75 59.45 Q344.6 59.1 347.4 60.95 349.1 62.15 349.8 63.45 L349.85 63.5 348.75 64.45 Q347.2 65.55 345.4 66.3 L343.25 67.0 343.45 66.7 343.65 66.5 343.75 66.3 344.05 65.75 344.05 65.45 344.05 65.25 343.9 65.25 343.85 65.3 343.7 65.5 343.45 65.65 342.6 66.5 342.5 66.65 342.35 66.8 341.95 67.15 341.85 67.3 341.75 67.35 341.45 67.4 339.3 67.7 339.4 67.55 339.4 67.5 339.5 67.3 339.55 67.1 339.6 67.05 339.75 66.9 339.75 66.85 340.0 66.15 340.3 65.7 340.35 65.5 340.85 64.1 340.75 63.15 340.55 63.15 340.4 64.1 339.95 65.6 339.9 65.7 339.6 66.2 339.2 66.9 339.0 67.1 338.8 67.3 338.65 67.5 338.6 67.55 338.35 67.8 337.35 67.8 336.55 67.8 336.5 67.55 336.5 67.5 336.45 67.3 336.45 67.25 336.4 67.1 336.4 67.0 336.45 66.9 336.4 66.9 336.25 66.5 336.2 66.2 336.15 66.1 335.8 64.45 335.5 63.45 Q335.15 63.55 335.05 64.1 L335.05 64.35 335.05 64.5 335.3 66.25 335.3 66.3 335.35 66.5 335.4 66.75 335.4 66.9 335.4 67.0 335.4 67.15 335.5 67.4 335.5 67.45 335.55 67.55 335.6 67.75 333.9 67.7 333.8 67.55 333.7 67.5 333.5 67.3 333.25 66.95 333.05 66.55 333.0 66.5 333.0 66.45 331.95 64.7 331.35 63.5 331.1 63.5 331.05 64.1 331.25 64.75 331.85 66.4 331.9 66.5 331.95 66.6 332.0 66.8 332.05 66.95 332.15 67.1 332.35 67.5 332.35 67.6 332.4 67.7 330.7 67.6 330.7 67.55 330.45 67.3 330.05 66.95 329.95 66.8 329.9 66.75 329.45 66.35 329.4 66.3 329.15 66.1 329.1 66.1 329.05 66.05 329.0 65.95 328.0 65.0 327.75 64.7 327.65 64.7 327.75 65.0 328.25 65.7 328.3 65.75 328.4 65.95 328.45 66.0 328.6 66.15 328.8 66.35 329.15 66.8 329.25 66.9 329.4 67.1 329.8 67.5 328.6 67.3 326.95 66.9 326.5 66.55 Q325.75 65.85 325.5 65.15 L325.35 64.9 325.3 64.9 325.3 65.45 325.55 66.1 325.85 66.5" fill="#2f8e40" fill-rule="evenodd" stroke="none"/>
    <path d="M334.25 61.95 L333.8 61.95 333.5 61.75 333.55 61.5 Q333.55 60.95 335.0 60.45 336.45 59.9 338.55 59.8 L342.35 59.8 344.2 60.2 Q344.95 60.35 345.3 60.7 345.9 61.1 345.9 61.65 L345.45 62.55 Q344.8 63.3 343.8 63.3 343.05 63.3 342.5 62.6 341.9 61.85 341.05 61.85 339.55 61.85 338.75 62.4 L337.9 62.95 337.85 62.9 337.65 62.95 336.75 62.5 335.25 61.9 334.6 61.9 334.25 61.95" fill="#3baf51" fill-rule="evenodd" stroke="none"/>
    <path d="M325.85 66.5 L325.55 66.1 325.3 65.45 325.3 64.9 325.35 64.9 325.5 65.15 Q325.75 65.85 326.5 66.55 L326.95 66.9 325.85 66.5 M329.8 67.5 L329.4 67.1 329.25 66.9 329.15 66.8 328.8 66.35 328.6 66.15 328.45 66.0 328.4 65.95 328.3 65.75 328.25 65.7 327.75 65.0 327.65 64.7 327.75 64.7 328.0 65.0 329.0 65.95 329.05 66.05 329.1 66.1 329.15 66.1 329.4 66.3 329.45 66.35 329.9 66.75 329.95 66.8 330.05 66.95 330.45 67.3 330.7 67.55 330.7 67.6 329.8 67.5 M332.4 67.7 L332.35 67.6 332.35 67.5 332.15 67.1 332.05 66.95 332.0 66.8 331.95 66.6 331.9 66.5 331.85 66.4 331.25 64.75 331.05 64.1 331.1 63.5 331.35 63.5 331.95 64.7 333.0 66.45 333.0 66.5 333.05 66.55 333.25 66.95 333.5 67.3 333.7 67.5 333.8 67.55 333.9 67.7 333.0 67.7 332.4 67.7 M335.6 67.75 L335.55 67.55 335.5 67.45 335.5 67.4 335.4 67.15 335.4 67.0 335.4 66.9 335.4 66.75 335.35 66.5 335.3 66.3 335.3 66.25 335.05 64.5 335.05 64.35 335.05 64.1 Q335.15 63.55 335.5 63.45 L335.8 64.45 336.15 66.1 336.2 66.2 336.25 66.5 336.4 66.9 336.45 66.9 336.4 67.0 336.4 67.1 336.45 67.25 336.45 67.3 336.5 67.5 336.5 67.55 336.55 67.8 335.6 67.75 M338.35 67.8 L338.6 67.55 338.65 67.5 338.8 67.3 339.0 67.1 339.2 66.9 339.6 66.2 339.9 65.7 339.95 65.6 340.4 64.1 340.55 63.15 340.75 63.15 340.85 64.1 340.35 65.5 340.3 65.7 340.0 66.15 339.75 66.85 339.75 66.9 339.6 67.05 339.55 67.1 339.5 67.3 339.4 67.5 339.4 67.55 339.3 67.7 338.35 67.8 M341.75 67.35 L341.85 67.3 341.95 67.15 342.35 66.8 342.5 66.65 342.6 66.5 343.45 65.65 343.7 65.5 343.85 65.3 343.9 65.25 344.05 65.25 344.05 65.45 344.05 65.75 343.75 66.3 343.65 66.5 343.45 66.7 343.25 67.0 341.75 67.35" fill="#35c44f" fill-rule="evenodd" stroke="none"/>
    <path d="M339.15 67.7 L338.65 68.65 338.6 68.8 337.9 69.8 338.0 69.7 339.9 68.7 339.95 68.7 340.9 68.0 341.6 67.4 341.65 67.35 343.1 67.0 342.95 67.25 342.9 67.3 342.0 68.4 341.8 68.55 341.75 68.6 340.85 69.45 342.4 69.05 345.5 68.0 346.45 67.4 346.8 67.05 347.25 66.5 347.4 66.5 347.5 66.8 347.55 66.9 347.55 66.95 Q347.45 67.85 343.5 69.6 340.85 70.75 338.6 71.2 L337.0 71.4 334.1 71.05 331.35 70.5 Q329.35 69.8 327.55 68.4 L327.2 68.0 326.25 67.15 325.75 66.55 325.7 66.5 326.75 66.9 326.85 66.95 327.0 67.05 328.8 68.2 329.85 68.6 331.5 69.2 331.1 68.8 330.85 68.6 329.8 67.6 329.65 67.45 330.55 67.6 330.75 67.8 331.15 68.2 332.0 68.9 Q332.65 69.35 333.65 69.8 L332.95 68.95 332.45 68.1 332.25 67.65 332.85 67.65 333.75 67.7 334.3 68.35 334.4 68.4 334.85 68.95 335.45 69.55 335.4 67.8 335.45 67.75 336.35 67.8 336.55 68.6 336.55 68.9 336.6 69.2 336.85 69.0 337.0 68.85 337.25 68.65 338.2 67.8 339.15 67.7" fill="#1d6329" fill-rule="evenodd" stroke="none"/>
    <path d="M341.65 67.35 L341.6 67.4 340.9 68.0 339.95 68.7 339.9 68.7 338.0 69.7 337.9 69.8 338.6 68.8 338.65 68.65 339.15 67.7 341.3 67.4 341.65 67.35 M338.2 67.8 L337.25 68.65 337.0 68.85 336.85 69.0 336.6 69.2 336.55 68.9 336.55 68.6 336.35 67.8 337.15 67.8 338.2 67.8 M335.45 67.75 L335.4 67.8 335.45 69.55 334.85 68.95 334.4 68.4 334.3 68.35 333.75 67.7 335.45 67.75 M332.25 67.65 L332.45 68.1 332.95 68.95 333.65 69.8 Q332.65 69.35 332.0 68.9 L331.15 68.2 330.75 67.8 330.55 67.6 332.25 67.65 M329.65 67.45 L329.8 67.6 330.85 68.6 331.1 68.8 331.5 69.2 329.85 68.6 328.8 68.2 327.0 67.05 326.85 66.95 326.75 66.9 328.45 67.3 329.65 67.45 M325.7 66.5 L325.75 66.55 326.25 67.15 327.2 68.0 327.55 68.4 Q329.35 69.8 331.35 70.5 329.9 70.15 328.7 69.55 327.1 68.8 326.15 67.8 L325.7 67.2 325.2 66.3 325.7 66.5 M338.6 71.2 Q340.85 70.75 343.5 69.6 347.45 67.85 347.55 66.95 L347.55 66.9 347.5 66.8 347.4 66.5 347.25 66.5 346.8 67.05 346.45 67.4 345.5 68.0 342.4 69.05 340.85 69.45 341.75 68.6 341.8 68.55 342.0 68.4 342.9 67.3 342.95 67.25 343.1 67.0 345.25 66.25 Q347.05 65.55 348.6 64.45 L349.7 63.5 349.75 63.75 349.85 63.95 349.9 64.05 350.0 64.55 350.0 64.6 350.0 64.85 350.0 65.1 350.0 65.25 350.0 65.35 350.0 65.4 349.95 65.5 349.95 65.55 Q349.55 68.0 345.9 69.6 342.75 71.0 338.6 71.2" fill="#0b3913" fill-rule="evenodd" stroke="none"/>
    <path d="M285.4 86.9 L285.15 86.75 285.05 86.55 285.0 86.15 284.95 86.05 284.95 85.8 284.95 85.6 Q284.95 85.2 285.2 84.85 L285.3 84.75 Q285.55 84.45 286.1 84.25 L286.2 84.2 286.6 84.1 286.65 84.05 289.15 83.5 291.35 83.2 291.85 83.15 Q294.15 82.95 295.55 83.95 296.4 84.55 296.7 85.25 L296.75 85.3 296.25 85.75 294.7 86.75 293.7 87.1 293.75 86.95 293.9 86.9 293.95 86.75 294.05 86.45 294.05 86.3 294.05 86.2 293.95 86.2 293.9 86.3 293.75 86.4 293.4 86.85 293.4 86.9 293.35 86.9 293.25 87.0 293.1 87.2 293.0 87.3 292.85 87.3 291.85 87.5 291.9 87.4 291.9 87.35 291.95 87.25 291.95 87.2 292.0 87.15 292.0 87.05 292.0 87.0 292.15 86.65 292.25 86.4 292.25 86.3 292.5 85.6 292.45 85.1 292.35 85.1 292.25 85.6 292.1 86.35 292.05 86.45 291.95 86.7 291.75 87.05 291.7 87.15 291.6 87.25 291.55 87.35 291.5 87.4 291.4 87.55 290.9 87.55 290.55 87.55 290.5 87.4 290.5 87.35 290.5 87.25 290.45 87.15 290.45 87.05 290.4 86.85 290.35 86.7 290.35 86.65 290.1 85.75 289.95 85.25 289.75 85.6 289.75 85.7 289.75 85.8 289.9 86.7 289.9 86.75 289.95 86.85 289.95 86.95 289.95 87.05 290.0 87.1 290.0 87.2 290.0 87.3 290.0 87.35 290.05 87.4 290.05 87.55 289.25 87.5 289.2 87.4 289.15 87.4 289.05 87.25 288.95 87.1 288.85 86.9 288.85 86.85 288.25 85.95 288.0 85.3 287.85 85.3 287.85 85.6 287.95 85.95 288.25 86.8 288.25 86.9 288.35 86.9 288.35 87.0 288.4 87.1 288.45 87.15 288.55 87.4 288.55 87.5 287.8 87.45 287.8 87.4 287.6 87.25 287.45 87.1 287.4 87.0 287.35 86.95 287.1 86.8 287.1 86.75 287.0 86.6 286.95 86.6 286.4 86.05 286.3 85.95 286.2 85.95 286.3 86.05 286.55 86.45 286.6 86.6 286.65 86.6 286.7 86.65 286.85 86.8 287.0 87.0 287.05 87.05 287.1 87.15 287.35 87.35 286.8 87.25 285.95 87.05 285.7 86.9 285.2 86.15 285.15 86.0 285.15 86.3 285.3 86.65 285.4 86.9 M288.95 84.2 L288.95 84.35 289.1 84.45 289.35 84.45 289.5 84.4 289.85 84.4 290.5 84.7 290.95 85.0 291.05 84.95 291.05 85.0 291.45 84.7 Q291.85 84.4 292.55 84.4 L293.2 84.8 Q293.55 85.2 293.9 85.2 294.4 85.2 294.6 84.75 L294.8 84.3 294.55 83.8 Q294.4 83.6 294.0 83.55 L293.1 83.35 291.35 83.35 289.6 83.7 288.95 84.2" fill="#359847" fill-rule="evenodd" stroke="none"/>
    <path d="M293.7 87.1 L293.0 87.3 293.1 87.2 293.25 87.0 293.35 86.9 293.4 86.9 293.4 86.85 293.75 86.4 293.9 86.3 293.95 86.2 294.05 86.2 294.05 86.3 294.05 86.45 293.95 86.75 293.9 86.9 293.75 86.95 293.7 87.1 M291.85 87.5 L291.4 87.55 291.5 87.4 291.55 87.35 291.6 87.25 291.7 87.15 291.75 87.05 291.95 86.7 292.05 86.45 292.1 86.35 292.25 85.6 292.35 85.1 292.45 85.1 292.5 85.6 292.25 86.3 292.25 86.4 292.15 86.65 292.0 87.0 292.0 87.05 292.0 87.15 291.95 87.2 291.95 87.25 291.9 87.35 291.9 87.4 291.85 87.5 M290.55 87.55 L290.05 87.55 290.05 87.4 290.0 87.35 290.0 87.3 290.0 87.2 290.0 87.1 289.95 87.05 289.95 86.95 289.95 86.85 289.9 86.75 289.9 86.7 289.75 85.8 289.75 85.7 289.75 85.6 289.95 85.25 290.1 85.75 290.35 86.65 290.35 86.7 290.4 86.85 290.45 87.05 290.45 87.15 290.5 87.25 290.5 87.35 290.5 87.4 290.55 87.55 M289.25 87.5 L288.85 87.5 288.55 87.5 288.55 87.4 288.45 87.15 288.4 87.1 288.35 87.0 288.35 86.9 288.25 86.9 288.25 86.8 287.95 85.95 287.85 85.6 287.85 85.3 288.0 85.3 288.25 85.95 288.85 86.85 288.85 86.9 288.95 87.1 289.05 87.25 289.15 87.4 289.2 87.4 289.25 87.5 M287.8 87.45 L287.35 87.35 287.1 87.15 287.05 87.05 287.0 87.0 286.85 86.8 286.7 86.65 286.65 86.6 286.6 86.6 286.55 86.45 286.3 86.05 286.2 85.95 286.3 85.95 286.4 86.05 286.95 86.6 287.0 86.6 287.1 86.75 287.1 86.8 287.35 86.95 287.4 87.0 287.45 87.1 287.6 87.25 287.8 87.4 287.8 87.45 M285.95 87.05 L285.4 86.9 285.3 86.65 285.15 86.3 285.15 86.0 285.2 86.15 285.7 86.9 285.95 87.05" fill="#4be166" fill-rule="evenodd" stroke="none"/>
    <path d="M288.95 84.2 L289.6 83.7 291.35 83.35 293.1 83.35 294.0 83.55 Q294.4 83.6 294.55 83.8 L294.8 84.3 294.6 84.75 Q294.4 85.2 293.9 85.2 293.55 85.2 293.2 84.8 L292.55 84.4 Q291.85 84.4 291.45 84.7 L291.05 85.0 291.05 84.95 290.95 85.0 290.5 84.7 289.85 84.4 289.5 84.4 289.35 84.45 289.1 84.45 288.95 84.35 288.95 84.2" fill="#3eb253" fill-rule="evenodd" stroke="none"/>
    <path d="M288.05 89.05 L286.85 88.55 Q286.05 88.15 285.55 87.65 L285.35 87.35 285.05 86.85 285.3 87.0 285.4 87.0 285.6 87.3 286.05 87.75 286.25 87.95 Q287.1 88.7 288.05 89.05 M285.85 87.15 L286.7 87.35 287.25 87.45 287.3 87.55 287.85 88.05 287.95 88.2 288.1 88.4 287.35 88.05 286.85 87.85 285.95 87.25 285.9 87.2 285.85 87.15 M287.7 87.55 L288.45 87.6 288.55 87.8 288.85 88.25 289.15 88.7 288.4 88.25 287.95 87.85 287.8 87.65 287.7 87.55 M289.15 87.6 L289.95 87.65 290.0 88.55 289.75 88.25 289.5 87.95 289.45 87.95 289.15 87.6 M290.45 87.65 L290.8 87.65 291.3 87.65 290.85 88.1 290.75 88.2 290.65 88.25 290.55 88.4 290.55 88.25 290.5 88.05 290.45 87.65 M291.75 87.6 L292.75 87.4 292.9 87.4 292.9 87.45 292.55 87.7 292.1 88.1 291.25 88.6 291.15 88.65 291.5 88.2 291.5 88.1 291.75 87.6 M293.6 87.2 L294.6 86.85 296.15 85.85 296.65 85.4 296.65 85.5 296.7 85.6 296.8 85.7 296.85 85.95 296.85 86.05 296.85 86.25 296.85 86.45 Q296.65 87.7 295.0 88.6 293.5 89.3 291.55 89.45 L293.85 88.6 Q295.65 87.65 295.7 87.2 L295.7 87.15 295.65 87.1 295.6 87.0 295.55 87.0 295.35 87.25 295.2 87.45 294.8 87.7 293.35 88.3 292.55 88.5 293.0 88.05 293.0 88.0 293.1 87.95 293.5 87.35 293.6 87.25 293.6 87.2" fill="#114b1b" fill-rule="evenodd" stroke="none"/>
    <path d="M288.05 89.05 Q287.1 88.7 286.25 87.95 L286.05 87.75 285.6 87.3 285.4 87.0 285.85 87.15 285.9 87.2 285.95 87.25 286.85 87.85 287.35 88.05 288.1 88.4 287.95 88.2 287.85 88.05 287.3 87.55 287.25 87.45 287.7 87.55 287.8 87.65 287.95 87.85 288.4 88.25 289.15 88.7 288.85 88.25 288.55 87.8 288.45 87.6 288.75 87.6 289.15 87.6 289.45 87.95 289.5 87.95 289.75 88.25 290.0 88.55 289.95 87.65 290.45 87.65 290.5 88.05 290.55 88.25 290.55 88.4 290.65 88.25 290.75 88.2 290.85 88.1 291.3 87.65 291.75 87.6 291.5 88.1 291.5 88.2 291.15 88.65 291.25 88.6 292.1 88.1 292.55 87.7 292.9 87.45 292.9 87.4 293.6 87.2 293.6 87.25 293.5 87.35 293.1 87.95 293.0 88.0 293.0 88.05 292.55 88.5 293.35 88.3 294.8 87.7 295.2 87.45 295.35 87.25 295.55 87.0 295.6 87.0 295.65 87.1 295.7 87.15 295.7 87.2 Q295.65 87.65 293.85 88.6 L291.55 89.45 290.8 89.55 289.45 89.35 288.05 89.05" fill="#1d6329" fill-rule="evenodd" stroke="none"/>
    <path d="M321.55 68.35 L321.55 68.55 321.8 68.75 322.2 68.8 322.5 68.7 323.1 68.7 324.4 69.25 325.25 69.6 325.4 69.6 325.45 69.6 326.15 69.15 Q326.9 68.65 328.2 68.65 328.95 68.65 329.5 69.35 330.0 69.95 330.65 69.95 331.55 69.95 332.1 69.3 L332.45 68.5 Q332.45 68.0 331.9 67.65 L330.9 67.25 329.25 66.9 325.9 66.9 322.8 67.45 Q321.55 67.9 321.55 68.35 M315.0 72.75 L314.45 72.55 314.3 72.2 314.15 71.6 314.1 71.45 314.05 71.0 314.05 70.65 Q314.1 69.95 314.6 69.45 L314.75 69.3 316.25 68.4 316.4 68.35 317.15 68.1 317.3 68.1 321.9 67.2 325.9 66.65 326.9 66.55 Q331.2 66.25 333.75 67.9 335.3 68.9 335.95 70.05 L336.0 70.15 335.05 70.95 332.2 72.55 330.35 73.2 330.5 72.95 330.65 72.75 330.75 72.55 330.95 72.1 330.95 71.8 330.95 71.65 330.85 71.65 330.8 71.7 330.65 71.85 330.45 72.0 329.75 72.75 329.65 72.85 329.5 73.0 329.2 73.35 329.1 73.45 329.05 73.5 328.75 73.55 326.9 73.8 326.95 73.7 326.95 73.6 327.05 73.45 327.1 73.3 327.15 73.2 327.25 73.1 327.25 73.05 327.45 72.45 327.65 72.05 327.7 71.9 328.1 70.65 328.0 69.85 327.8 69.85 327.7 70.65 327.35 71.95 327.3 72.05 327.1 72.5 326.75 73.1 326.6 73.25 326.45 73.45 326.3 73.6 326.25 73.7 326.05 73.9 325.15 73.9 324.45 73.9 324.4 73.7 324.4 73.6 324.35 73.45 324.35 73.4 324.3 73.25 324.3 73.2 324.3 73.1 324.15 72.75 324.1 72.5 324.05 72.4 323.65 70.95 323.35 70.05 Q323.05 70.2 323.0 70.65 L323.0 70.9 323.0 71.0 323.3 72.5 323.3 72.6 323.35 72.75 323.4 73.0 323.4 73.1 323.45 73.2 323.45 73.35 323.55 73.55 323.55 73.7 323.6 73.85 322.1 73.8 322.05 73.7 321.95 73.65 321.75 73.45 321.55 73.15 321.3 72.8 321.3 72.7 320.25 71.2 319.7 70.15 319.45 70.15 319.45 70.65 319.65 71.25 320.25 72.65 320.3 72.75 320.35 72.85 320.4 73.0 320.5 73.15 320.55 73.25 320.75 73.65 320.75 73.7 320.8 73.8 319.3 73.7 319.1 73.45 318.7 73.15 318.6 73.0 318.55 73.0 318.15 72.65 318.1 72.6 318.1 72.55 317.9 72.4 317.85 72.4 317.8 72.35 317.75 72.3 316.85 71.45 316.55 71.2 316.5 71.2 316.6 71.45 317.05 72.05 317.1 72.1 317.2 72.3 317.25 72.3 317.4 72.45 317.6 72.65 317.9 73.0 317.95 73.1 318.15 73.25 318.5 73.6 317.45 73.45 315.95 73.1 315.55 72.8 314.6 71.6 314.5 71.35 314.45 71.35 314.45 71.8 314.7 72.4 315.0 72.75" fill="#2f8e40" fill-rule="evenodd" stroke="none"/>
    <path d="M321.55 68.35 Q321.55 67.9 322.8 67.45 L325.9 66.9 329.25 66.9 330.9 67.25 331.9 67.65 Q332.45 68.0 332.45 68.5 L332.1 69.3 Q331.55 69.95 330.65 69.95 330.0 69.95 329.5 69.35 328.95 68.65 328.2 68.65 326.9 68.65 326.15 69.15 L325.45 69.6 325.4 69.6 325.25 69.6 324.4 69.25 323.1 68.7 322.5 68.7 322.2 68.8 321.8 68.75 321.55 68.55 321.55 68.35" fill="#3baf51" fill-rule="evenodd" stroke="none"/>
    <path d="M315.0 72.75 L314.7 72.4 314.45 71.8 314.45 71.35 314.5 71.35 314.6 71.6 315.55 72.8 315.95 73.1 315.0 72.75 M318.5 73.6 L318.15 73.25 317.95 73.1 317.9 73.0 317.6 72.65 317.4 72.45 317.25 72.3 317.2 72.3 317.1 72.1 317.05 72.05 316.6 71.45 316.5 71.2 316.55 71.2 316.85 71.45 317.75 72.3 317.8 72.35 317.85 72.4 317.9 72.4 318.1 72.55 318.1 72.6 318.15 72.65 318.55 73.0 318.6 73.0 318.7 73.15 319.1 73.45 319.3 73.7 318.5 73.6 M320.8 73.8 L320.75 73.7 320.75 73.65 320.55 73.25 320.5 73.15 320.4 73.0 320.35 72.85 320.3 72.75 320.25 72.65 319.65 71.25 319.45 70.65 319.45 70.15 319.7 70.15 320.25 71.2 321.3 72.7 321.3 72.8 321.55 73.15 321.75 73.45 321.95 73.65 322.05 73.7 322.1 73.8 321.3 73.8 320.8 73.8 M323.6 73.85 L323.55 73.7 323.55 73.55 323.45 73.35 323.45 73.2 323.4 73.1 323.4 73.0 323.35 72.75 323.3 72.6 323.3 72.5 323.0 71.0 323.0 70.9 323.0 70.65 Q323.05 70.2 323.35 70.05 L323.65 70.95 324.05 72.4 324.1 72.5 324.15 72.75 324.3 73.1 324.3 73.2 324.3 73.25 324.35 73.4 324.35 73.45 324.4 73.6 324.4 73.7 324.45 73.9 323.6 73.85 M326.05 73.9 L326.25 73.7 326.3 73.6 326.45 73.45 326.6 73.25 326.75 73.1 327.1 72.5 327.3 72.05 327.35 71.95 327.7 70.65 327.8 69.85 328.0 69.85 328.1 70.65 327.7 71.9 327.65 72.05 327.45 72.45 327.25 73.05 327.25 73.1 327.15 73.2 327.1 73.3 327.05 73.45 326.95 73.6 326.95 73.7 326.9 73.8 326.05 73.9 M329.05 73.5 L329.1 73.45 329.2 73.35 329.5 73.0 329.65 72.85 329.75 72.75 330.45 72.0 330.65 71.85 330.8 71.7 330.85 71.65 330.95 71.65 330.95 71.8 330.95 72.1 330.75 72.55 330.65 72.75 330.5 72.95 330.35 73.2 329.05 73.5" fill="#35c44f" fill-rule="evenodd" stroke="none"/>
    <path d="M315.7 73.15 L315.8 73.2 315.9 73.3 317.55 74.3 318.5 74.65 320.0 75.2 319.6 74.85 319.35 74.65 318.4 73.75 318.25 73.65 319.05 73.75 319.25 73.95 319.6 74.3 320.4 74.9 321.85 75.7 321.25 74.95 320.75 74.2 320.55 73.85 321.1 73.85 321.85 73.85 322.4 74.45 322.5 74.5 322.95 74.95 323.45 75.5 323.35 73.95 323.35 73.9 324.2 73.95 324.4 74.65 324.45 74.9 324.45 75.2 324.7 75.0 324.8 74.9 325.0 74.7 325.85 73.95 326.65 73.85 326.25 74.7 326.2 74.85 325.6 75.7 325.7 75.6 327.35 74.75 327.4 74.75 328.2 74.1 328.8 73.6 328.85 73.55 330.1 73.25 330.0 73.5 329.95 73.5 329.2 74.45 329.0 74.6 328.95 74.65 328.2 75.4 329.6 75.05 332.25 74.1 333.05 73.6 333.35 73.3 333.75 72.8 333.85 72.8 334.0 73.05 334.05 73.15 334.05 73.2 Q334.0 74.0 330.55 75.5 328.25 76.55 326.3 76.95 L324.9 77.1 322.35 76.8 319.9 76.3 Q318.1 75.7 316.45 74.45 L316.15 74.15 315.25 73.4 314.8 72.85 314.75 72.8 315.7 73.15" fill="#1d6329" fill-rule="evenodd" stroke="none"/>
    <path d="M318.25 73.65 L318.4 73.75 319.35 74.65 319.6 74.85 320.0 75.2 318.5 74.65 317.55 74.3 315.9 73.3 315.8 73.2 315.7 73.15 317.2 73.5 318.25 73.65 M314.75 72.8 L314.8 72.85 315.25 73.4 316.15 74.15 316.45 74.45 Q318.1 75.7 319.9 76.3 318.6 76.0 317.5 75.5 L315.2 73.95 314.8 73.45 Q314.4 73.05 314.3 72.65 L314.75 72.8 M326.3 76.95 Q328.25 76.55 330.55 75.5 334.0 74.0 334.05 73.2 L334.05 73.15 334.0 73.05 333.85 72.8 333.75 72.8 333.35 73.3 333.05 73.6 332.25 74.1 329.6 75.05 328.2 75.4 328.95 74.65 329.0 74.6 329.2 74.45 329.95 73.5 330.0 73.5 330.1 73.25 331.95 72.6 Q333.5 72.0 334.85 71.0 L335.75 70.2 335.85 70.4 335.95 70.6 335.95 70.7 336.05 71.1 336.05 71.15 336.1 71.35 336.1 71.6 336.1 71.75 336.1 71.85 336.05 71.95 336.05 72.0 Q335.85 74.1 332.65 75.5 330.0 76.75 326.3 76.95 M328.85 73.55 L328.8 73.6 328.2 74.1 327.4 74.75 327.35 74.75 325.7 75.6 325.6 75.7 326.2 74.85 326.25 74.7 326.65 73.85 328.55 73.6 328.85 73.55 M325.85 73.95 L325.0 74.7 324.8 74.9 324.7 75.0 324.45 75.2 324.45 74.9 324.4 74.65 324.2 73.95 324.9 73.95 325.85 73.95 M323.35 73.9 L323.35 73.95 323.45 75.5 322.95 74.95 322.5 74.5 322.4 74.45 321.85 73.85 323.35 73.9 M320.55 73.85 L320.75 74.2 321.25 74.95 321.85 75.7 320.4 74.9 319.6 74.3 319.25 73.95 319.05 73.75 320.55 73.85" fill="#0b3913" fill-rule="evenodd" stroke="none"/>
  </g>
</svg>
