<?xml version="1.0" encoding="UTF-8" standalone="no"?>
<svg xmlns:ffdec="https://www.free-decompiler.com/flash" xmlns:xlink="http://www.w3.org/1999/xlink" ffdec:objectType="shape" height="111.3px" width="44.45px" xmlns="http://www.w3.org/2000/svg">
  <g transform="matrix(1.0, 0.0, 0.0, 1.0, 5.25, 69.05)">
    <path d="M24.65 -69.05 L29.05 -69.05 28.95 -66.45 28.45 -14.05 Q28.2 -2.3 28.1 9.85 L28.0 9.85 28.95 27.25 Q28.95 29.15 33.65 32.8 38.6 36.65 39.2 42.25 L30.5 42.25 Q25.35 39.95 24.2 32.35 L24.2 31.1 24.2 31.05 24.1 27.25 24.05 27.25 24.0 22.0 23.7 9.85 23.75 9.85 Q23.85 -2.3 24.1 -14.05 L24.6 -66.45 24.65 -69.05 M4.25 -69.05 L6.7 -69.05 6.6 -66.45 6.1 -14.05 Q5.8 -2.3 5.65 9.85 L5.6 9.85 4.15 27.25 4.25 27.25 3.85 32.35 3.8 32.35 Q3.6 40.85 -1.5 42.25 L-5.1 42.25 -5.2 40.9 Q-4.8 37.4 0.75 32.5 L3.15 9.85 3.65 -14.05 4.15 -66.45 4.25 -69.05" fill="#000000" fill-rule="evenodd" stroke="none"/>
  </g>
</svg>
