<?xml version="1.0" encoding="UTF-8" standalone="no"?>
<svg xmlns:ffdec="https://www.free-decompiler.com/flash" xmlns:xlink="http://www.w3.org/1999/xlink" ffdec:objectType="shape" height="7.3px" width="17.85px" xmlns="http://www.w3.org/2000/svg">
  <g transform="matrix(1.0, 0.0, 0.0, 1.0, 11.25, -36.25)">
    <path d="M-9.55 38.4 L-9.65 38.9 Q-9.65 40.4 -7.35 41.5 -5.15 42.55 -1.9 42.55 1.3 42.55 3.55 41.5 5.4 40.6 5.75 39.4 L6.6 39.7 Q6.4 41.25 4.1 42.35 1.55 43.55 -2.05 43.55 -5.65 43.55 -8.15 42.35 -10.7 41.15 -10.7 39.45 -10.7 38.9 -11.25 38.95 L-9.55 38.4" fill="#263800" fill-rule="evenodd" stroke="none"/>
    <path d="M-8.5 38.2 L-8.6 38.6 Q-8.6 39.7 -7.1 40.55 -5.65 41.3 -3.6 41.3 -1.5 41.3 -0.05 40.55 1.15 39.85 0.6 39.15 L0.3 38.85 -0.05 38.4 Q-0.4 37.9 -1.65 37.75 L-3.15 37.6 -3.25 37.2 -2.8 36.65 Q-0.95 35.85 0.95 36.65 L1.35 37.1 Q1.75 37.7 1.55 37.95 3.9 38.4 5.75 39.4 5.4 40.6 3.55 41.5 1.3 42.55 -1.9 42.55 -5.15 42.55 -7.35 41.5 -9.65 40.4 -9.65 38.9 L-9.55 38.4 -8.5 38.2" fill="#4d7100" fill-rule="evenodd" stroke="none"/>
    <path d="M-3.15 37.6 L-1.65 37.75 Q-0.4 37.9 -0.05 38.4 L0.3 38.85 0.6 39.15 Q1.15 39.85 -0.05 40.55 -1.5 41.3 -3.6 41.3 -5.65 41.3 -7.1 40.55 -8.6 39.7 -8.6 38.6 L-8.5 38.2 -3.15 37.65 -3.1 37.65 -3.15 37.6" fill="#6a9017" fill-rule="evenodd" stroke="none"/>
  </g>
</svg>
