<?xml version="1.0" encoding="UTF-8" standalone="no"?>
<svg xmlns:ffdec="https://www.free-decompiler.com/flash" xmlns:xlink="http://www.w3.org/1999/xlink" ffdec:objectType="shape" height="17.95px" width="23.4px" xmlns="http://www.w3.org/2000/svg">
  <g transform="matrix(1.0, 0.0, 0.0, 1.0, 11.85, 6.35)">
    <path d="M2.3 9.8 Q5.25 9.75 7.3 9.0 10.5 7.85 10.5 4.6 10.5 1.6 7.7 -1.7 4.85 -5.0 0.0 -5.55 -4.1 -5.75 -7.45 -2.95 -9.35 -1.4 -10.15 0.65 -10.8 2.2 -10.8 4.1 -10.8 6.1 -9.4 7.2 -7.95 8.4 -4.2 9.1 L-3.8 9.1 1.2 9.75 2.3 9.8 M0.35 -6.3 Q2.85 -6.35 6.7 -3.5 11.55 0.2 11.55 5.15 11.55 6.45 10.9 7.45 L9.45 8.95 Q7.6 10.45 5.75 11.1 L4.05 11.45 Q1.35 11.75 -0.2 11.4 L-2.25 10.9 -4.05 9.8 -4.9 9.8 Q-8.6 9.8 -10.45 7.7 -11.85 6.2 -11.85 4.15 -11.85 1.2 -9.4 -1.8 L-8.3 -3.1 Q-4.65 -6.75 0.35 -6.3" fill="#434c4c" fill-rule="evenodd" stroke="none"/>
    <path d="M-2.5 -4.45 Q0.2 -4.15 1.8 -2.3 3.4 -0.45 3.4 1.2 3.4 2.2 2.9 2.8 L3.45 3.3 Q4.2 4.15 4.2 4.9 4.2 5.7 3.35 6.05 L1.8 6.2 0.55 6.05 0.4 6.05 -0.9 5.55 -1.25 4.8 -1.15 4.15 -1.85 4.1 -4.65 3.75 -4.9 3.75 Q-6.95 3.35 -7.8 2.65 -8.55 2.05 -8.55 0.95 -8.55 -1.45 -6.7 -3.05 -4.85 -4.55 -2.5 -4.45" fill="#adb7b7" fill-rule="evenodd" stroke="none"/>
    <path d="M-10.15 0.65 Q-9.35 -1.4 -7.45 -2.95 -4.1 -5.75 0.0 -5.55 4.85 -5.0 7.7 -1.7 10.5 1.6 10.5 4.6 10.5 7.85 7.3 9.0 5.25 9.75 2.3 9.8 L-1.75 8.5 Q-5.5 7.3 -8.35 4.7 -10.35 2.9 -10.15 0.65 M-2.5 -4.45 Q-4.85 -4.55 -6.7 -3.05 -8.55 -1.45 -8.55 0.95 -8.55 2.05 -7.8 2.65 -6.95 3.35 -4.9 3.75 L-4.65 3.75 -1.85 4.1 -1.15 4.15 -1.25 4.8 -0.9 5.55 0.4 6.05 0.55 6.05 1.8 6.2 3.35 6.05 Q4.2 5.7 4.2 4.9 4.2 4.15 3.45 3.3 L2.9 2.8 Q3.4 2.2 3.4 1.2 3.4 -0.45 1.8 -2.3 0.2 -4.15 -2.5 -4.45" fill="#888f8e" fill-rule="evenodd" stroke="none"/>
    <path d="M2.3 9.8 L1.2 9.75 -3.8 9.1 -4.2 9.1 Q-7.95 8.4 -9.4 7.2 -10.8 6.1 -10.8 4.1 -10.8 2.2 -10.15 0.65 -10.35 2.9 -8.35 4.7 -5.5 7.3 -1.75 8.5 L2.3 9.8" fill="#6e7473" fill-rule="evenodd" stroke="none"/>
  </g>
</svg>
