<?xml version="1.0" encoding="UTF-8" standalone="no"?>
<svg xmlns:ffdec="https://www.free-decompiler.com/flash" xmlns:xlink="http://www.w3.org/1999/xlink" ffdec:objectType="shape" height="16.5px" width="39.6px" xmlns="http://www.w3.org/2000/svg">
  <g transform="matrix(1.0, 0.0, 0.0, 1.0, 17.1, 3.0)">
    <path d="M-1.25 -0.8 L-4.3 -0.35 -8.3 1.2 -11.75 2.8 -11.75 3.1 -11.85 3.1 Q-12.65 3.2 -13.15 4.25 -13.55 5.05 -13.55 5.6 -13.55 7.8 -10.2 8.35 L-7.75 8.35 Q-5.45 7.95 -3.7 7.2 L-2.95 6.85 -1.3 6.3 3.45 4.4 Q4.55 4.0 9.65 2.9 11.65 2.35 11.65 0.75 11.65 -0.05 10.6 -0.6 L8.05 -1.55 7.2 -1.7 3.05 -1.4 -1.25 -0.8 M-4.7 -1.0 L-1.5 -1.55 2.9 -2.15 7.35 -2.5 Q13.75 -2.15 17.25 1.35 L17.5 1.75 Q18.35 2.95 18.35 3.5 18.35 4.95 16.0 5.45 L12.95 5.8 12.75 5.85 12.4 5.85 8.7 6.1 5.75 6.5 Q2.2 7.35 -0.6 8.25 L-3.9 9.15 -3.65 9.15 -5.4 9.5 -9.4 10.25 Q-12.25 10.8 -14.1 9.5 -15.95 8.25 -15.85 6.65 -15.8 5.0 -15.35 4.85 L-14.35 3.95 -14.15 3.75 -13.75 3.05 -12.45 2.25 -8.85 0.6 -4.7 -1.0" fill="#809392" fill-rule="evenodd" stroke="none"/>
    <path d="M-13.75 3.05 L-14.15 3.75 -14.35 3.95 -15.35 4.85 Q-15.8 5.0 -15.85 6.65 -15.95 8.25 -14.1 9.5 -12.25 10.8 -9.4 10.25 L-5.4 9.5 -3.65 9.15 -3.9 9.15 -0.6 8.25 Q2.2 7.35 5.75 6.5 L8.7 6.1 12.4 5.85 12.75 5.85 12.95 5.8 16.0 5.45 Q18.35 4.95 18.35 3.5 18.35 2.95 17.5 1.75 L17.25 1.35 Q13.75 -2.15 7.35 -2.5 L2.9 -2.15 -1.5 -1.55 -4.7 -1.0 -3.8 -1.3 3.5 -2.7 9.05 -3.0 Q14.9 -3.0 19.0 0.05 21.7 2.1 22.5 4.15 L22.5 4.6 22.5 5.15 Q22.3 7.6 20.15 8.75 L15.15 10.05 8.3 10.8 Q5.7 10.8 2.65 11.75 -0.2 12.7 -6.45 13.35 L-10.1 13.45 Q-13.2 13.2 -15.3 11.9 L-15.6 11.7 Q-16.8 10.55 -17.0 8.95 L-17.1 8.15 Q-17.1 6.95 -16.55 5.8 L-16.2 5.15 -15.5 4.15 -13.75 3.05" fill="#5c6665" fill-rule="evenodd" stroke="none"/>
    <path d="M-1.25 -0.8 L3.05 -1.4 7.2 -1.7 8.05 -1.55 10.6 -0.6 Q11.65 -0.05 11.65 0.75 11.65 2.35 9.65 2.9 4.55 4.0 3.45 4.4 L-1.3 6.3 -2.95 6.85 -3.7 7.2 Q-5.45 7.95 -7.75 8.35 L-10.2 8.35 Q-13.55 7.8 -13.55 5.6 -13.55 5.05 -13.15 4.25 -12.65 3.2 -11.85 3.1 L-11.75 3.1 -11.75 2.8 -8.3 1.2 -4.3 -0.35 -1.25 -0.8" fill="#abb8b8" fill-rule="evenodd" stroke="none"/>
    <path d="M-16.2 5.15 L-15.5 4.15 Q-10.4 0.5 -3.8 -1.3 2.3 -3.0 9.05 -3.0 14.9 -3.0 19.0 0.05 21.7 2.1 22.5 4.15 L22.5 4.6 22.5 5.15 Q22.3 7.6 20.15 8.75 L15.15 10.05 8.3 10.8 Q5.7 10.8 2.65 11.75 -0.2 12.7 -6.45 13.35 L-10.1 13.45 Q-13.2 13.2 -15.3 11.9 L-15.6 11.7 Q-16.8 10.55 -17.0 8.95 L-17.1 8.15 Q-17.1 6.95 -16.55 5.8 L-16.2 5.15 M-15.85 6.0 Q-16.6 7.4 -16.2 9.15 -15.75 10.75 -14.3 11.6 L-13.95 11.8 Q-11.2 13.25 -7.65 12.4 L0.1 10.25 Q3.8 8.95 6.65 9.0 L13.95 8.8 Q17.3 8.85 19.7 7.5 21.25 6.55 21.5 5.15 L21.45 4.15 Q20.15 1.65 18.35 0.2 15.05 -2.55 7.8 -2.55 3.15 -2.55 -2.9 -1.05 -10.75 0.9 -14.65 4.15 L-15.4 5.15 -15.85 6.0" fill="#434c4c" fill-rule="evenodd" stroke="none"/>
  </g>
</svg>
