<?xml version="1.0" encoding="UTF-8" standalone="no"?>
<svg xmlns:ffdec="https://www.free-decompiler.com/flash" xmlns:xlink="http://www.w3.org/1999/xlink" ffdec:objectType="frame" height="15.3px" width="34.5px" xmlns="http://www.w3.org/2000/svg">
  <g transform="matrix(1.0, 0.0, 0.0, 1.0, 17.25, 8.5)">
    <use ffdec:characterId="80" height="13.2" transform="matrix(1.0, 0.0, 0.0, 1.0, 8.9, 0.0)" width="11.15" xlink:href="#shape0"/>
    <use ffdec:characterId="80" height="13.2" transform="matrix(-1.0, 0.0, 0.0, 1.0, -8.9, 0.0)" width="11.15" xlink:href="#shape1"/>
  </g>
  <defs>
    <g id="shape0">
      <path d="M4.35 0.0 Q4.35 2.3 3.0 3.9 1.7 5.5 -0.15 5.5 -1.95 5.5 -3.3 3.9 -4.6 2.3 -4.6 0.0 -4.6 -2.25 -3.3 -3.85 -1.95 -5.5 -0.15 -5.5 1.7 -5.5 3.0 -3.85 4.35 -2.25 4.35 0.0" fill="#cccccc" fill-rule="evenodd" stroke="none"/>
      <path d="M4.35 0.0 Q4.35 2.3 3.0 3.9 1.7 5.5 -0.15 5.5 -1.95 5.5 -3.3 3.9 -4.6 2.3 -4.6 0.0 -4.6 -2.25 -3.3 -3.85 -1.95 -5.5 -0.15 -5.5 1.7 -5.5 3.0 -3.85 4.35 -2.25 4.35 0.0 Z" ffdec:has-small-stroke="true" ffdec:original-stroke-width="0.25" fill="none" stroke="#333333" stroke-linecap="round" stroke-linejoin="round" stroke-width="1.0"/>
      <path d="M-2.95 -2.35 Q-1.95 -3.55 -0.6 -3.55 0.8 -3.55 1.75 -2.35 2.75 -1.15 2.75 0.55 2.75 2.25 1.75 3.45 0.8 4.65 -0.6 4.65 -1.95 4.65 -2.95 3.45 -3.9 2.25 -3.9 0.55 -3.9 -1.15 -2.95 -2.35" fill="#ffffff" fill-rule="evenodd" stroke="none"/>
      <path d="M-5.25 -1.85 L-6.55 -1.05 Q-6.35 -2.4 -2.6 -4.8 1.45 -7.4 3.6 -7.6 4.2 -7.65 4.6 -6.55 4.7 -6.0 1.7 -4.95 -1.4 -4.0 -5.25 -1.85" fill="#000000" fill-rule="evenodd" stroke="none"/>
      <path d="M0.05 1.3 Q0.05 2.4 -0.4 3.15 -0.85 3.85 -1.5 3.85 -2.2 3.85 -2.65 3.15 -3.1 2.4 -3.1 1.3 -3.1 0.15 -2.65 -0.55 -2.2 -1.3 -1.5 -1.3 -0.85 -1.3 -0.4 -0.55 0.05 0.15 0.05 1.3" fill="#000000" fill-rule="evenodd" stroke="none"/>
      <path d="M-1.45 1.4 L-1.85 1.75 -2.35 1.4 -2.5 0.6 -2.35 -0.25 Q-2.15 -0.55 -1.85 -0.55 L-1.45 -0.25 -1.25 0.6 -1.45 1.4" fill="#cccccc" fill-rule="evenodd" stroke="none"/>
    </g>
    <g id="shape1">
      <path d="M4.35 0.0 Q4.35 2.3 3.0 3.9 1.7 5.5 -0.15 5.5 -1.95 5.5 -3.3 3.9 -4.6 2.3 -4.6 0.0 -4.6 -2.25 -3.3 -3.85 -1.95 -5.5 -0.15 -5.5 1.7 -5.5 3.0 -3.85 4.35 -2.25 4.35 0.0" fill="#cccccc" fill-rule="evenodd" stroke="none"/>
      <path d="M4.35 0.0 Q4.35 2.3 3.0 3.9 1.7 5.5 -0.15 5.5 -1.95 5.5 -3.3 3.9 -4.6 2.3 -4.6 0.0 -4.6 -2.25 -3.3 -3.85 -1.95 -5.5 -0.15 -5.5 1.7 -5.5 3.0 -3.85 4.35 -2.25 4.35 0.0 Z" ffdec:has-small-stroke="true" ffdec:original-stroke-width="0.25" fill="none" stroke="#333333" stroke-linecap="round" stroke-linejoin="round" stroke-width="1.0"/>
      <path d="M-2.95 -2.35 Q-1.95 -3.55 -0.6 -3.55 0.8 -3.55 1.75 -2.35 2.75 -1.15 2.75 0.55 2.75 2.25 1.75 3.45 0.8 4.65 -0.6 4.65 -1.95 4.65 -2.95 3.45 -3.9 2.25 -3.9 0.55 -3.9 -1.15 -2.95 -2.35" fill="#ffffff" fill-rule="evenodd" stroke="none"/>
      <path d="M-5.25 -1.85 L-6.55 -1.05 Q-6.35 -2.4 -2.6 -4.8 1.45 -7.4 3.6 -7.6 4.2 -7.65 4.6 -6.55 4.7 -6.0 1.7 -4.95 -1.4 -4.0 -5.25 -1.85" fill="#000000" fill-rule="evenodd" stroke="none"/>
      <path d="M0.05 1.3 Q0.05 2.4 -0.4 3.15 -0.85 3.85 -1.5 3.85 -2.2 3.85 -2.65 3.15 -3.1 2.4 -3.1 1.3 -3.1 0.15 -2.65 -0.55 -2.2 -1.3 -1.5 -1.3 -0.85 -1.3 -0.4 -0.55 0.05 0.15 0.05 1.3" fill="#000000" fill-rule="evenodd" stroke="none"/>
      <path d="M-1.45 1.4 L-1.85 1.75 -2.35 1.4 -2.5 0.6 -2.35 -0.25 Q-2.15 -0.55 -1.85 -0.55 L-1.45 -0.25 -1.25 0.6 -1.45 1.4" fill="#cccccc" fill-rule="evenodd" stroke="none"/>
    </g>
  </defs>
</svg>
