<?xml version="1.0" encoding="UTF-8" standalone="no"?>
<svg xmlns:ffdec="https://www.free-decompiler.com/flash" xmlns:xlink="http://www.w3.org/1999/xlink" ffdec:objectType="frame" height="15.3px" width="34.5px" xmlns="http://www.w3.org/2000/svg">
  <g transform="matrix(1.0, 0.0, 0.0, 1.0, 17.25, 8.5)">
    <use ffdec:characterId="82" height="10.25" transform="matrix(1.0, 0.0, 0.0, 1.0, 8.9, 0.0)" width="13.25" xlink:href="#shape0"/>
    <use ffdec:characterId="82" height="10.25" transform="matrix(-1.0, 0.0, 0.0, 1.0, -8.9, 0.0)" width="13.25" xlink:href="#shape1"/>
  </g>
  <defs>
    <g id="shape0">
      <path d="M6.25 -0.9 Q6.25 1.2 4.85 2.05 0.9 4.35 0.05 4.35 -1.95 4.35 -3.1 2.35 -3.9 1.0 -3.9 0.0 L-3.85 -1.5 -3.5 -2.9 -3.6 -3.05 Q-3.6 -4.45 0.85 -4.85 L0.9 -4.85 Q6.25 -4.45 6.25 -0.9" fill="#ffffff" fill-rule="evenodd" stroke="none"/>
      <path d="M6.3 -3.85 Q7.5 -2.55 7.55 -0.9 7.6 0.75 6.15 2.1 L5.5 2.0 5.8 0.6 Q6.05 -0.55 5.8 -1.5 5.55 -2.45 4.95 -3.15 4.25 -3.85 2.3 -4.4 0.3 -5.0 -1.15 -4.05 L-3.7 -2.1 -5.7 0.35 Q-4.8 -2.75 -2.95 -4.1 -1.15 -5.45 0.1 -5.75 L3.25 -5.6 Q5.1 -5.15 6.3 -3.85" fill="#000000" fill-rule="evenodd" stroke="none"/>
      <path d="M2.6 -1.65 Q2.5 4.0 0.1 4.15 -1.3 4.2 -1.85 2.35 L-2.2 0.3 Q-2.45 -4.9 0.2 -5.0 2.5 -4.6 2.6 -1.65" fill="#000000" fill-rule="evenodd" stroke="none"/>
      <path d="M0.65 -2.05 L0.35 -0.65 -0.35 -0.1 Q-0.8 -0.1 -1.05 -0.7 L-1.35 -2.1 -1.05 -3.5 Q-0.75 -4.15 -0.35 -4.1 L0.35 -3.45 0.65 -2.05" fill="#cccccc" fill-rule="evenodd" stroke="none"/>
    </g>
    <g id="shape1">
      <path d="M6.25 -0.9 Q6.25 1.2 4.85 2.05 0.9 4.35 0.05 4.35 -1.95 4.35 -3.1 2.35 -3.9 1.0 -3.9 0.0 L-3.85 -1.5 -3.5 -2.9 -3.6 -3.05 Q-3.6 -4.45 0.85 -4.85 L0.9 -4.85 Q6.25 -4.45 6.25 -0.9" fill="#ffffff" fill-rule="evenodd" stroke="none"/>
      <path d="M6.3 -3.85 Q7.5 -2.55 7.55 -0.9 7.6 0.75 6.15 2.1 L5.5 2.0 5.8 0.6 Q6.05 -0.55 5.8 -1.5 5.55 -2.45 4.95 -3.15 4.25 -3.85 2.3 -4.4 0.3 -5.0 -1.15 -4.05 L-3.7 -2.1 -5.7 0.35 Q-4.8 -2.75 -2.95 -4.1 -1.15 -5.45 0.1 -5.75 L3.25 -5.6 Q5.1 -5.15 6.3 -3.85" fill="#000000" fill-rule="evenodd" stroke="none"/>
      <path d="M2.6 -1.65 Q2.5 4.0 0.1 4.15 -1.3 4.2 -1.85 2.35 L-2.2 0.3 Q-2.45 -4.9 0.2 -5.0 2.5 -4.6 2.6 -1.65" fill="#000000" fill-rule="evenodd" stroke="none"/>
      <path d="M0.65 -2.05 L0.35 -0.65 -0.35 -0.1 Q-0.8 -0.1 -1.05 -0.7 L-1.35 -2.1 -1.05 -3.5 Q-0.75 -4.15 -0.35 -4.1 L0.35 -3.45 0.65 -2.05" fill="#cccccc" fill-rule="evenodd" stroke="none"/>
    </g>
  </defs>
</svg>
