<?xml version="1.0" encoding="UTF-8" standalone="no"?>
<svg xmlns:ffdec="https://www.free-decompiler.com/flash" xmlns:xlink="http://www.w3.org/1999/xlink" ffdec:objectType="frame" height="15.3px" width="34.5px" xmlns="http://www.w3.org/2000/svg">
  <g transform="matrix(1.0, 0.0, 0.0, 1.0, 17.25, 8.5)">
    <use ffdec:characterId="85" height="6.05" transform="matrix(1.0, 0.0, 0.0, 1.0, 8.9, 0.0)" width="14.4" xlink:href="#shape0"/>
    <use ffdec:characterId="85" height="6.05" transform="matrix(-1.0, 0.0, 0.0, 1.0, -8.9, 0.0)" width="14.4" xlink:href="#shape1"/>
  </g>
  <defs>
    <g id="shape0">
      <path d="M-0.05 0.3 Q0.25 -0.15 0.2 -0.75 0.15 -1.35 -0.25 -1.7 -0.55 -2.05 -1.0 -1.95 L-1.85 -1.5 -2.0 -0.45 -1.65 0.5 Q-1.3 0.85 -0.8 0.8 L-0.05 0.3 M3.5 -0.8 Q3.6 0.55 2.7 1.65 1.8 2.8 0.45 3.0 -0.95 3.2 -2.0 2.25 -3.05 1.45 -3.15 0.1 -3.25 -1.2 -2.55 -2.25 L3.35 -1.6 3.5 -0.8" fill="#000000" fill-rule="evenodd" stroke="none"/>
      <path d="M-0.05 0.3 L-0.8 0.8 Q-1.3 0.85 -1.65 0.5 L-2.0 -0.45 -1.85 -1.5 -1.0 -1.95 Q-0.55 -2.05 -0.25 -1.7 0.15 -1.35 0.2 -0.75 0.25 -0.15 -0.05 0.3" fill="#cccccc" fill-rule="evenodd" stroke="none"/>
      <path d="M7.15 -1.65 Q7.1 -0.7 6.6 -0.55 L5.35 -0.9 3.6 -1.25 2.65 -1.4 2.3 -1.45 1.6 -1.5 0.75 -1.6 -0.85 -1.65 -5.55 -1.45 Q-6.4 -1.05 -7.2 -1.7 L-6.5 -2.15 -4.9 -2.5 -3.35 -2.75 -2.55 -2.9 -1.7 -2.95 0.1 -3.0 3.1 -2.95 5.7 -2.55 Q6.65 -2.55 7.2 -1.85 L7.15 -1.65" fill="#000000" fill-rule="evenodd" stroke="none"/>
    </g>
    <g id="shape1">
      <path d="M-0.05 0.3 Q0.25 -0.15 0.2 -0.75 0.15 -1.35 -0.25 -1.7 -0.55 -2.05 -1.0 -1.95 L-1.85 -1.5 -2.0 -0.45 -1.65 0.5 Q-1.3 0.85 -0.8 0.8 L-0.05 0.3 M3.5 -0.8 Q3.6 0.55 2.7 1.65 1.8 2.8 0.45 3.0 -0.95 3.2 -2.0 2.25 -3.05 1.45 -3.15 0.1 -3.25 -1.2 -2.55 -2.25 L3.35 -1.6 3.5 -0.8" fill="#000000" fill-rule="evenodd" stroke="none"/>
      <path d="M-0.05 0.3 L-0.8 0.8 Q-1.3 0.85 -1.65 0.5 L-2.0 -0.45 -1.85 -1.5 -1.0 -1.95 Q-0.55 -2.05 -0.25 -1.7 0.15 -1.35 0.2 -0.75 0.25 -0.15 -0.05 0.3" fill="#cccccc" fill-rule="evenodd" stroke="none"/>
      <path d="M7.15 -1.65 Q7.1 -0.7 6.6 -0.55 L5.35 -0.9 3.6 -1.25 2.65 -1.4 2.3 -1.45 1.6 -1.5 0.75 -1.6 -0.85 -1.65 -5.55 -1.45 Q-6.4 -1.05 -7.2 -1.7 L-6.5 -2.15 -4.9 -2.5 -3.35 -2.75 -2.55 -2.9 -1.7 -2.95 0.1 -3.0 3.1 -2.95 5.7 -2.55 Q6.65 -2.55 7.2 -1.85 L7.15 -1.65" fill="#000000" fill-rule="evenodd" stroke="none"/>
    </g>
  </defs>
</svg>
