<?xml version="1.0" encoding="UTF-8" standalone="no"?>
<svg xmlns:ffdec="https://www.free-decompiler.com/flash" xmlns:xlink="http://www.w3.org/1999/xlink" ffdec:objectType="frame" height="15.3px" width="34.5px" xmlns="http://www.w3.org/2000/svg">
  <g transform="matrix(1.0, 0.0, 0.0, 1.0, 17.25, 8.5)">
    <use ffdec:characterId="69" height="6.85" transform="matrix(1.0, 0.0, 0.0, 1.0, 8.9, 0.0)" width="12.8" xlink:href="#shape0"/>
    <use ffdec:characterId="112" height="7.2" transform="matrix(1.0, 0.0, 0.0, 1.0, 0.0, 0.0)" width="13.4" xlink:href="#shape1"/>
  </g>
  <defs>
    <g id="shape0">
      <path d="M5.0 -0.65 L5.2 0.0 5.25 0.65 Q5.3 3.4 1.35 3.6 -1.5 3.45 -1.8 0.8 L-3.6 1.4 -4.95 1.95 -5.75 1.9 Q-6.25 1.8 -6.25 1.45 -6.4 0.7 -3.2 -0.4 L5.55 -3.05 6.4 -3.25 6.55 -2.05 6.4 -1.4 Q6.4 -1.15 5.0 -0.65" fill="#000000" fill-rule="evenodd" stroke="none"/>
      <path d="M2.85 1.6 L2.5 0.95 Q2.45 0.55 2.65 0.25 2.9 -0.1 3.3 -0.15 L4.0 0.05 Q4.35 0.3 4.4 0.7 L4.2 1.4 3.55 1.8 2.85 1.6" fill="#cccccc" fill-rule="evenodd" stroke="none"/>
    </g>
    <g id="shape1">
      <path d="M-15.8 -2.85 L-12.15 -2.65 -3.25 0.1 -2.45 0.45 -3.0 1.55 -3.5 1.95 -5.1 1.8 -5.3 2.5 -5.6 2.85 Q-7.1 5.05 -10.4 3.2 L-10.5 3.15 Q-12.8 1.25 -11.65 -0.85 L-13.45 -1.35 -14.95 -1.7 -15.55 -2.15 Q-15.95 -2.5 -15.8 -2.85" fill="#000000" fill-rule="evenodd" stroke="none"/>
      <path d="M-7.9 2.15 L-7.85 1.5 -7.35 0.95 -6.55 1.05 -6.15 1.55 Q-6.0 1.95 -6.2 2.3 L-6.7 2.75 -7.4 2.7 -7.9 2.15" fill="#cccccc" fill-rule="evenodd" stroke="none"/>
    </g>
  </defs>
</svg>
