<?xml version="1.0" encoding="UTF-8" standalone="no"?>
<svg xmlns:ffdec="https://www.free-decompiler.com/flash" xmlns:xlink="http://www.w3.org/1999/xlink" ffdec:objectType="frame" height="15.3px" width="34.5px" xmlns="http://www.w3.org/2000/svg">
  <g transform="matrix(1.0, 0.0, 0.0, 1.0, 17.25, 8.5)">
    <use ffdec:characterId="71" height="10.35" transform="matrix(1.0, 0.0, 0.0, 1.0, 8.9, 0.0)" width="11.3" xlink:href="#shape0"/>
    <use ffdec:characterId="71" height="10.35" transform="matrix(-1.0, 0.0, 0.0, 1.0, -8.9, 0.0)" width="11.3" xlink:href="#shape0"/>
  </g>
  <defs>
    <g id="shape0">
      <path d="M3.6 -3.95 Q2.4 -4.15 -2.55 -1.65 L-5.1 -0.25 -5.3 -0.75 Q-5.1 -1.65 -1.25 -3.55 2.6 -5.45 4.5 -5.25 6.35 -5.15 5.95 -4.0 5.55 -2.8 5.15 -2.75 4.75 -2.75 4.75 -3.25 4.75 -3.75 3.6 -3.95" fill="#000000" fill-rule="evenodd" stroke="none"/>
      <path d="M2.65 0.1 Q2.6 5.0 0.45 5.1 -0.75 5.15 -1.25 3.55 L-1.55 1.8 Q-1.75 -2.7 0.5 -2.75 2.5 -2.4 2.65 0.1" fill="#000000" fill-rule="evenodd" stroke="none"/>
      <path d="M0.55 1.0 L-0.05 1.5 -0.65 1.0 -0.9 -0.2 -0.6 -1.4 Q-0.35 -1.95 0.0 -1.95 0.35 -1.95 0.6 -1.4 0.9 -0.9 0.85 -0.2 L0.55 1.0" fill="#cccccc" fill-rule="evenodd" stroke="none"/>
    </g>
  </defs>
</svg>
