<?xml version="1.0" encoding="UTF-8" standalone="no"?>
<svg xmlns:ffdec="https://www.free-decompiler.com/flash" xmlns:xlink="http://www.w3.org/1999/xlink" ffdec:objectType="frame" height="15.3px" width="34.5px" xmlns="http://www.w3.org/2000/svg">
  <g transform="matrix(1.0, 0.0, 0.0, 1.0, 17.25, 8.5)">
    <use ffdec:characterId="73" height="11.1" transform="matrix(1.0, 0.0, 0.0, 1.0, 8.9, 0.0)" width="10.75" xlink:href="#shape0"/>
    <use ffdec:characterId="73" height="11.1" transform="matrix(-1.0, 0.0, 0.0, 1.0, -8.9, 0.0)" width="10.75" xlink:href="#shape1"/>
  </g>
  <defs>
    <g id="shape0">
      <path d="M1.8 -3.5 L2.1 -3.1 2.85 -1.55 3.15 0.5 Q3.05 2.55 2.1 4.0 1.15 5.5 -0.25 5.5 -1.65 5.5 -2.65 4.0 -3.6 2.55 -3.6 0.5 -3.6 -1.6 -2.65 -3.1 L-1.1 -4.35 1.7 -3.7 -1.1 -4.35 -0.25 -4.5 Q0.85 -4.5 1.7 -3.7 L1.8 -3.5" fill="#000000" fill-rule="evenodd" stroke="none"/>
      <path d="M1.8 -3.5 L1.85 -3.65" ffdec:has-small-stroke="true" ffdec:original-stroke-width="0.75" fill="none" stroke="#000000" stroke-linecap="round" stroke-linejoin="round" stroke-width="1.0"/>
      <path d="M-1.1 -4.35 L-5.0 -5.25 M1.85 -3.65 L1.7 -3.7 -1.1 -4.35 M1.85 -3.65 L5.05 -2.95" ffdec:has-small-stroke="true" ffdec:original-stroke-width="0.75" fill="none" stroke="#000000" stroke-linecap="round" stroke-linejoin="round" stroke-width="1.0"/>
      <path d="M0.05 1.15 Q-0.5 1.85 -1.1 1.95 -1.8 1.85 -2.25 1.15 -2.75 0.45 -2.75 -0.55 -2.75 -1.6 -2.25 -2.35 -1.8 -3.05 -1.1 -3.0 -0.5 -3.05 0.05 -2.35 0.55 -1.6 0.55 -0.55 0.55 0.45 0.05 1.15" fill="#999999" fill-rule="evenodd" stroke="none"/>
      <path d="M0.75 3.95 L0.15 4.35 -0.45 3.95 -0.7 3.05 -0.45 2.1 Q-0.2 1.75 0.15 1.75 L0.75 2.1 1.0 3.05 0.75 3.95" fill="#999999" fill-rule="evenodd" stroke="none"/>
    </g>
    <g id="shape1">
      <path d="M1.8 -3.5 L2.1 -3.1 2.85 -1.55 3.15 0.5 Q3.05 2.55 2.1 4.0 1.15 5.5 -0.25 5.5 -1.65 5.5 -2.65 4.0 -3.6 2.55 -3.6 0.5 -3.6 -1.6 -2.65 -3.1 L-1.1 -4.35 1.7 -3.7 -1.1 -4.35 -0.25 -4.5 Q0.85 -4.5 1.7 -3.7 L1.8 -3.5" fill="#000000" fill-rule="evenodd" stroke="none"/>
      <path d="M1.8 -3.5 L1.85 -3.65" ffdec:has-small-stroke="true" ffdec:original-stroke-width="0.75" fill="none" stroke="#000000" stroke-linecap="round" stroke-linejoin="round" stroke-width="1.0"/>
      <path d="M-1.1 -4.35 L-5.0 -5.25 M1.85 -3.65 L1.7 -3.7 -1.1 -4.35 M1.85 -3.65 L5.05 -2.95" ffdec:has-small-stroke="true" ffdec:original-stroke-width="0.75" fill="none" stroke="#000000" stroke-linecap="round" stroke-linejoin="round" stroke-width="1.0"/>
      <path d="M0.05 1.15 Q-0.5 1.85 -1.1 1.95 -1.8 1.85 -2.25 1.15 -2.75 0.45 -2.75 -0.55 -2.75 -1.6 -2.25 -2.35 -1.8 -3.05 -1.1 -3.0 -0.5 -3.05 0.05 -2.35 0.55 -1.6 0.55 -0.55 0.55 0.45 0.05 1.15" fill="#999999" fill-rule="evenodd" stroke="none"/>
      <path d="M0.75 3.95 L0.15 4.35 -0.45 3.95 -0.7 3.05 -0.45 2.1 Q-0.2 1.75 0.15 1.75 L0.75 2.1 1.0 3.05 0.75 3.95" fill="#999999" fill-rule="evenodd" stroke="none"/>
    </g>
  </defs>
</svg>
