<?xml version="1.0" encoding="UTF-8" standalone="no"?>
<svg xmlns:ffdec="https://www.free-decompiler.com/flash" xmlns:xlink="http://www.w3.org/1999/xlink" ffdec:objectType="frame" height="37.35px" width="42.8px" xmlns="http://www.w3.org/2000/svg">
  <g transform="matrix(1.0, 0.0, 0.0, 1.0, 18.65, 21.35)">
    <use ffdec:characterId="176" height="23.85" transform="matrix(1.0, 0.0, 0.0, 1.0, 0.0, 0.0)" width="36.1" xlink:href="#shape0"/>
    <use ffdec:characterId="177" height="3.5" transform="matrix(1.0584, 0.0, 0.0, 1.0584, -5.45, -7.2)" width="3.5" xlink:href="#shape1"/>
    <use ffdec:characterId="177" height="3.5" transform="matrix(1.0584, 0.0, 0.0, 1.0584, -6.9, -5.4)" width="3.5" xlink:href="#shape2"/>
    <use ffdec:characterId="177" height="3.5" transform="matrix(1.0584, 0.0, 0.0, 1.0584, -3.2, -7.2)" width="3.5" xlink:href="#shape3"/>
    <use ffdec:characterId="177" height="3.5" transform="matrix(1.0584, 0.0, 0.0, 1.0584, -4.0, -3.8)" width="3.5" xlink:href="#shape4"/>
    <use ffdec:characterId="177" height="3.5" transform="matrix(1.0584, 0.0, 0.0, 1.0584, 4.85, -6.45)" width="3.5" xlink:href="#shape5"/>
    <use ffdec:characterId="177" height="3.5" transform="matrix(1.0584, 0.0, 0.0, 1.0584, 6.05, -4.75)" width="3.5" xlink:href="#shape6"/>
    <use ffdec:characterId="177" height="3.5" transform="matrix(1.0584, 0.0, 0.0, 1.0584, 2.35, -3.7)" width="3.5" xlink:href="#shape7"/>
    <use ffdec:characterId="177" height="3.5" transform="matrix(1.0584, 0.0, 0.0, 1.0584, -0.25, -5.65)" width="3.5" xlink:href="#shape8"/>
    <use ffdec:characterId="177" height="3.5" transform="matrix(1.0584, 0.0, 0.0, 1.0584, -0.1, -3.5)" width="3.5" xlink:href="#shape9"/>
    <use ffdec:characterId="177" height="3.5" transform="matrix(1.0584, 0.0, 0.0, 1.0584, 2.65, -7.2)" width="3.5" xlink:href="#shape10"/>
    <use ffdec:characterId="177" height="3.5" transform="matrix(1.0584, 0.0, 0.0, 1.0584, 0.0, -8.1)" width="3.5" xlink:href="#shape11"/>
    <use ffdec:characterId="177" height="3.5" transform="matrix(0.7378, 0.0, 0.0, 0.7378, 5.65, -1.75)" width="3.5" xlink:href="#shape12"/>
    <use ffdec:characterId="178" height="5.15" transform="matrix(1.0, 0.0, 0.0, 1.0, 0.0, 0.0)" width="6.1" xlink:href="#shape13"/>
    <use ffdec:characterId="177" height="3.5" transform="matrix(0.8216, 0.0, 0.0, 0.8216, 6.45, 4.9)" width="3.5" xlink:href="#shape14"/>
    <use ffdec:characterId="177" height="3.5" transform="matrix(0.6722, 0.0, 0.0, 0.6722, 9.4, 3.25)" width="3.5" xlink:href="#shape15"/>
  </g>
  <defs>
    <g id="shape0">
      <path d="M12.6 -0.2 L15.6 0.75 Q17.8 1.55 17.8 2.4 17.8 3.8 11.65 7.7 5.1 11.8 1.15 11.8 -2.55 11.8 -5.1 10.65 L-8.55 9.0 -12.8 7.05 Q-16.4 5.3 -16.4 5.1 L-14.8 3.5 Q-13.25 2.15 -11.1 1.65 L-6.05 0.15 3.4 -0.75 12.6 -0.2" fill="url(#gradient0)" fill-rule="evenodd" stroke="none"/>
      <path d="M-15.7 4.85 L-16.0 4.6 Q-16.0 3.8 -13.55 2.55 -11.95 1.65 -10.35 1.1 -14.45 3.75 -15.7 4.85" fill="#000000" fill-rule="evenodd" stroke="none"/>
      <path d="M16.95 4.6 L11.55 8.7 Q9.95 9.95 7.65 11.1 4.4 12.65 1.95 12.65 -0.85 12.65 -3.7 11.6 L-8.8 9.7 -11.7 7.55 Q-13.45 6.15 -16.4 6.25 L-16.65 6.1 -16.6 5.5 -14.65 5.35 Q-13.05 5.35 -10.85 6.85 L-7.9 8.8 -4.65 10.05 Q-1.55 11.0 1.9 11.0 4.25 11.0 7.8 8.95 L11.25 6.65 12.6 5.35 14.7 3.8 Q16.1 3.0 17.3 2.55 19.45 1.8 19.45 2.85 L16.95 4.6" fill="#000000" fill-rule="evenodd" stroke="none"/>
      <path d="M16.8 1.15 Q16.8 1.5 15.5 1.65 L12.1 1.25 Q9.5 0.85 9.5 0.35 9.5 -0.7 12.2 -0.05 L16.7 1.0 16.8 1.15" fill="#000000" fill-rule="evenodd" stroke="none"/>
      <path d="M-9.25 7.4 Q-11.5 5.7 -13.4 5.3 L-15.1 5.55 -15.85 5.45 -16.15 5.15 Q-16.15 4.75 -13.1 4.45 -12.15 4.45 -10.85 5.15 -9.65 5.7 -9.05 6.35 L-7.75 7.55 -4.3 9.7 -6.15 9.0 Q-7.1 9.1 -9.25 7.4" fill="#e4fd02" fill-rule="evenodd" stroke="none"/>
      <path d="M13.05 5.65 L10.8 7.2 Q9.7 7.95 6.65 9.2 3.65 10.45 2.05 10.45 -0.65 10.7 -1.75 10.0 L0.5 9.9 1.55 10.0 Q4.0 10.0 9.95 6.95 11.55 6.25 13.45 4.5 15.35 3.0 17.5 2.65 L17.6 2.75 15.9 3.8 13.05 5.65" fill="#cccc00" fill-rule="evenodd" stroke="none"/>
      <path d="M8.95 -7.0 Q8.95 -5.65 6.65 -5.65 L0.4 -6.4 -7.45 -6.0 Q-10.1 -6.0 -9.6 -7.65 -9.6 -10.75 -6.4 -10.75 L-4.15 -10.0 Q-3.55 -10.0 -2.7 -10.6 -1.9 -11.2 -0.9 -11.2 0.45 -11.2 3.7 -9.9 L5.05 -10.25 Q6.9 -10.5 8.95 -7.0" fill="#000000" fill-rule="evenodd" stroke="none"/>
      <path d="M1.7 4.2 L1.55 -1.6 1.6 -1.65 0.85 -1.6 -0.5 -1.55 -0.7 -1.55 -0.9 -1.55 -2.8 -1.65 -3.45 -1.7 -4.4 -1.8 -4.65 -1.85 -5.7 -2.1 -5.9 -2.15 -7.35 -2.55 -7.55 -2.6 -7.75 -2.65 -7.6 3.55 Q-8.4 2.75 -8.85 1.6 L-9.2 0.45 -9.3 -3.3 -9.65 -3.7 -9.9 -4.0 -10.05 -4.25 -10.2 -4.55 -10.2 -4.6 -10.25 -4.75 -10.3 -4.85 -10.3 -5.1 -10.3 -5.25 Q-10.2 -6.65 -7.55 -7.65 -4.7 -8.7 -0.7 -8.65 3.3 -8.7 6.1 -7.65 8.7 -6.7 8.9 -5.35 L8.95 -5.15 8.95 -5.1 8.95 -5.0 Q8.9 -4.45 8.45 -4.0 L7.2 -3.1 6.55 -2.75 6.35 -2.7 6.1 -2.6 6.05 -2.55 6.15 2.65 Q5.4 3.25 4.25 3.55 L1.7 4.2 M3.55 -1.9 L3.6 -1.9 3.1 -1.85 2.85 -1.8 3.15 -1.8 3.55 -1.9" fill="#11140e" fill-rule="evenodd" stroke="none"/>
      <path d="M-3.45 -1.7 L-2.8 -1.65 -0.9 -1.55 -0.7 -1.55 -0.5 -1.55 0.85 -1.6 1.6 -1.65 1.55 -1.6 1.7 4.2 0.05 4.6 -3.25 4.7 -3.35 5.1 -3.45 -1.7 M-7.6 3.55 L-7.75 -2.65 -7.55 -2.6 -7.35 -2.55 -5.9 -2.15 -5.7 -2.1 -5.35 -2.0 -5.2 -1.9 -5.15 4.95 -5.75 4.7 -7.6 3.55 M-3.15 6.15 L-3.25 6.15 -3.35 6.1 -3.35 5.15 -3.3 5.5 -3.15 6.15" fill="#1e2318" fill-rule="evenodd" stroke="none"/>
      <path d="M3.55 -1.9 L3.15 -1.8 2.85 -1.8 3.1 -1.85 3.55 -1.9" fill="#323a2c" fill-rule="evenodd" stroke="none"/>
      <path d="M1.7 4.2 L4.25 3.55 Q5.4 3.25 6.15 2.65 L6.05 -2.55 6.1 -2.6 6.35 -2.7 6.55 -2.75 7.2 -3.1 8.45 -4.0 Q8.9 -4.45 8.95 -5.0 L8.9 2.45 8.95 2.75 Q8.95 3.75 7.55 4.55 L6.25 5.15 6.1 5.2 5.9 5.25 5.65 5.4 5.55 5.45 1.75 6.15 -0.35 6.3 -0.7 6.3 -0.75 6.3 -3.15 6.15 -3.3 5.5 -3.35 5.15 -3.35 5.1 -3.25 4.7 0.05 4.6 1.7 4.2" fill="#000000" fill-rule="evenodd" stroke="none"/>
      <path d="M-10.3 -4.85 L-10.25 -4.75 -10.25 -4.55 -10.3 -4.75 -10.3 -4.85" fill="#1a1e15" fill-rule="evenodd" stroke="none"/>
      <path d="M-10.25 -4.75 L-10.2 -4.6 -10.2 -4.55 -10.25 -4.55 -10.25 -4.75" fill="#46543d" fill-rule="evenodd" stroke="none"/>
      <path d="M-10.05 -4.25 L-9.9 -4.0 -9.65 -3.7 -9.3 -3.3 -9.2 0.45 -8.85 1.6 Q-8.4 2.75 -7.6 3.55 L-5.75 4.7 -5.15 4.95 Q-4.25 5.4 -3.35 6.1 L-3.25 6.15 -3.35 6.15 -5.15 5.9 -7.55 5.2 -7.6 5.2 -9.15 4.5 Q-10.3 3.7 -10.3 2.8 L-10.3 -4.75 -10.25 -4.55 -10.2 -4.55 -10.15 -4.4 -10.05 -4.25" fill="#0a0a07" fill-rule="evenodd" stroke="none"/>
      <path d="M-4.65 -1.85 L-4.4 -1.8 -3.45 -1.7 -3.35 5.1 -3.35 5.15 -3.35 6.1 Q-4.25 5.4 -5.15 4.95 L-5.2 -1.9 -5.35 -2.0 -4.65 -1.85" fill="#536248" fill-rule="evenodd" stroke="none"/>
      <path d="M8.8 -4.95 Q8.75 -4.45 8.3 -3.95 L7.0 -3.05 6.2 -2.65 5.95 -2.55 5.85 -2.55 5.55 -2.4 5.25 -2.3 3.85 -1.95 0.7 -1.55 -0.6 -1.5 -0.85 -1.5 -1.05 -1.5 -2.95 -1.6 -6.05 -2.05 -7.55 -2.5 -7.7 -2.55 -7.85 -2.6 -7.95 -2.65 -9.0 -3.15 Q-10.35 -3.9 -10.45 -4.85" ffdec:has-small-stroke="true" ffdec:original-stroke-width="0.25" fill="none" stroke="#46543d" stroke-linecap="round" stroke-linejoin="round" stroke-width="1.0"/>
      <path d="M-7.55 -7.15 Q-9.9 -6.3 -10.1 -5.15 L-10.1 -5.05 -10.1 -5.0 -10.1 2.8 Q-10.0 3.5 -9.05 4.2 L-7.6 4.85 -7.55 4.9 -5.2 5.55 -3.45 5.8 -0.9 5.9 -0.85 5.9 -0.55 5.9 1.55 5.8 5.25 5.1 5.6 5.0 5.75 4.95 6.0 4.8 7.25 4.25 Q8.3 3.55 8.35 2.75 L8.35 2.5 8.35 -5.05 8.35 -5.25 Q8.1 -6.3 5.8 -7.15 3.05 -8.2 -0.85 -8.2 -4.8 -8.2 -7.55 -7.15 M-10.9 -5.25 Q-10.85 -6.85 -7.85 -7.95 -4.95 -9.05 -0.85 -9.05 3.25 -9.05 6.1 -7.95 8.95 -6.9 9.2 -5.4 L9.2 -5.3 9.2 -5.05 9.2 2.5 9.2 2.75 Q9.25 4.0 7.7 5.0 L7.65 5.0 6.25 5.65 6.15 5.65 6.0 5.75 5.9 5.8 5.55 5.9 5.5 5.9 1.65 6.65 -0.55 6.75 -0.85 6.75 -0.9 6.75 -3.55 6.6 -5.35 6.35 -7.8 5.7 -7.85 5.7 -9.5 4.9 Q-10.9 3.95 -10.9 2.85 L-10.9 -5.0 -10.85 -5.05 -10.9 -5.25" fill="#000000" fill-rule="evenodd" stroke="none"/>
    </g>
    <linearGradient gradientTransform="matrix(0.009, 0.0058, -0.5727, 0.8883, 2.75, 2.9)" gradientUnits="userSpaceOnUse" id="gradient0" spreadMethod="pad" x1="-819.2" x2="819.2">
      <stop offset="0.3058823529411765" stop-color="#93bd53"/>
      <stop offset="0.9882352941176471" stop-color="#404a13"/>
    </linearGradient>
    <g id="shape1">
      <path d="M1.15 -1.15 Q1.65 -0.65 1.65 0.0 1.65 0.7 1.15 1.15 0.7 1.65 0.0 1.65 -0.65 1.65 -1.15 1.15 -1.65 0.7 -1.65 0.0 -1.65 -0.65 -1.15 -1.15 -0.65 -1.65 0.0 -1.65 0.7 -1.65 1.15 -1.15" fill="#ff9933" fill-rule="evenodd" stroke="none"/>
      <path d="M1.15 -1.15 Q1.65 -0.65 1.65 0.0 1.65 0.7 1.15 1.15 0.7 1.65 0.0 1.65 -0.65 1.65 -1.15 1.15 -1.65 0.7 -1.65 0.0 -1.65 -0.65 -1.15 -1.15 -0.65 -1.65 0.0 -1.65 0.7 -1.65 1.15 -1.15 Z" ffdec:has-small-stroke="true" ffdec:original-stroke-width="0.25" fill="none" stroke="#ff6600" stroke-linecap="round" stroke-linejoin="round" stroke-width="0.9447856298474758"/>
      <path d="M-0.35 -1.3 L0.25 -1.05 0.5 -0.5 0.25 0.1 -0.35 0.35 -0.9 0.1 -1.15 -0.5 -0.9 -1.05 -0.35 -1.3" fill="#ffead5" fill-rule="evenodd" stroke="none"/>
    </g>
    <g id="shape2">
      <path d="M1.15 -1.15 Q1.65 -0.65 1.65 0.0 1.65 0.7 1.15 1.15 0.7 1.65 0.0 1.65 -0.65 1.65 -1.15 1.15 -1.65 0.7 -1.65 0.0 -1.65 -0.65 -1.15 -1.15 -0.65 -1.65 0.0 -1.65 0.7 -1.65 1.15 -1.15" fill="#ff9933" fill-rule="evenodd" stroke="none"/>
      <path d="M1.15 -1.15 Q1.65 -0.65 1.65 0.0 1.65 0.7 1.15 1.15 0.7 1.65 0.0 1.65 -0.65 1.65 -1.15 1.15 -1.65 0.7 -1.65 0.0 -1.65 -0.65 -1.15 -1.15 -0.65 -1.65 0.0 -1.65 0.7 -1.65 1.15 -1.15 Z" ffdec:has-small-stroke="true" ffdec:original-stroke-width="0.25" fill="none" stroke="#ff6600" stroke-linecap="round" stroke-linejoin="round" stroke-width="0.9447856298474758"/>
      <path d="M-0.35 -1.3 L0.25 -1.05 0.5 -0.5 0.25 0.1 -0.35 0.35 -0.9 0.1 -1.15 -0.5 -0.9 -1.05 -0.35 -1.3" fill="#ffead5" fill-rule="evenodd" stroke="none"/>
    </g>
    <g id="shape3">
      <path d="M1.15 -1.15 Q1.65 -0.65 1.65 0.0 1.65 0.7 1.15 1.15 0.7 1.65 0.0 1.65 -0.65 1.65 -1.15 1.15 -1.65 0.7 -1.65 0.0 -1.65 -0.65 -1.15 -1.15 -0.65 -1.65 0.0 -1.65 0.7 -1.65 1.15 -1.15" fill="#ff9933" fill-rule="evenodd" stroke="none"/>
      <path d="M1.15 -1.15 Q1.65 -0.65 1.65 0.0 1.65 0.7 1.15 1.15 0.7 1.65 0.0 1.65 -0.65 1.65 -1.15 1.15 -1.65 0.7 -1.65 0.0 -1.65 -0.65 -1.15 -1.15 -0.65 -1.65 0.0 -1.65 0.7 -1.65 1.15 -1.15 Z" ffdec:has-small-stroke="true" ffdec:original-stroke-width="0.25" fill="none" stroke="#ff6600" stroke-linecap="round" stroke-linejoin="round" stroke-width="0.9447856298474758"/>
      <path d="M-0.35 -1.3 L0.25 -1.05 0.5 -0.5 0.25 0.1 -0.35 0.35 -0.9 0.1 -1.15 -0.5 -0.9 -1.05 -0.35 -1.3" fill="#ffead5" fill-rule="evenodd" stroke="none"/>
    </g>
    <g id="shape4">
      <path d="M1.15 -1.15 Q1.65 -0.65 1.65 0.0 1.65 0.7 1.15 1.15 0.7 1.65 0.0 1.65 -0.65 1.65 -1.15 1.15 -1.65 0.7 -1.65 0.0 -1.65 -0.65 -1.15 -1.15 -0.65 -1.65 0.0 -1.65 0.7 -1.65 1.15 -1.15" fill="#ff9933" fill-rule="evenodd" stroke="none"/>
      <path d="M1.15 -1.15 Q1.65 -0.65 1.65 0.0 1.65 0.7 1.15 1.15 0.7 1.65 0.0 1.65 -0.65 1.65 -1.15 1.15 -1.65 0.7 -1.65 0.0 -1.65 -0.65 -1.15 -1.15 -0.65 -1.65 0.0 -1.65 0.7 -1.65 1.15 -1.15 Z" ffdec:has-small-stroke="true" ffdec:original-stroke-width="0.25" fill="none" stroke="#ff6600" stroke-linecap="round" stroke-linejoin="round" stroke-width="0.9447856298474758"/>
      <path d="M-0.35 -1.3 L0.25 -1.05 0.5 -0.5 0.25 0.1 -0.35 0.35 -0.9 0.1 -1.15 -0.5 -0.9 -1.05 -0.35 -1.3" fill="#ffead5" fill-rule="evenodd" stroke="none"/>
    </g>
    <g id="shape5">
      <path d="M1.15 -1.15 Q1.65 -0.65 1.65 0.0 1.65 0.7 1.15 1.15 0.7 1.65 0.0 1.65 -0.65 1.65 -1.15 1.15 -1.65 0.7 -1.65 0.0 -1.65 -0.65 -1.15 -1.15 -0.65 -1.65 0.0 -1.65 0.7 -1.65 1.15 -1.15" fill="#ff9933" fill-rule="evenodd" stroke="none"/>
      <path d="M1.15 -1.15 Q1.65 -0.65 1.65 0.0 1.65 0.7 1.15 1.15 0.7 1.65 0.0 1.65 -0.65 1.65 -1.15 1.15 -1.65 0.7 -1.65 0.0 -1.65 -0.65 -1.15 -1.15 -0.65 -1.65 0.0 -1.65 0.7 -1.65 1.15 -1.15 Z" ffdec:has-small-stroke="true" ffdec:original-stroke-width="0.25" fill="none" stroke="#ff6600" stroke-linecap="round" stroke-linejoin="round" stroke-width="0.9447856298474758"/>
      <path d="M-0.35 -1.3 L0.25 -1.05 0.5 -0.5 0.25 0.1 -0.35 0.35 -0.9 0.1 -1.15 -0.5 -0.9 -1.05 -0.35 -1.3" fill="#ffead5" fill-rule="evenodd" stroke="none"/>
    </g>
    <g id="shape6">
      <path d="M1.15 -1.15 Q1.65 -0.65 1.65 0.0 1.65 0.7 1.15 1.15 0.7 1.65 0.0 1.65 -0.65 1.65 -1.15 1.15 -1.65 0.7 -1.65 0.0 -1.65 -0.65 -1.15 -1.15 -0.65 -1.65 0.0 -1.65 0.7 -1.65 1.15 -1.15" fill="#ff9933" fill-rule="evenodd" stroke="none"/>
      <path d="M1.15 -1.15 Q1.65 -0.65 1.65 0.0 1.65 0.7 1.15 1.15 0.7 1.65 0.0 1.65 -0.65 1.65 -1.15 1.15 -1.65 0.7 -1.65 0.0 -1.65 -0.65 -1.15 -1.15 -0.65 -1.65 0.0 -1.65 0.7 -1.65 1.15 -1.15 Z" ffdec:has-small-stroke="true" ffdec:original-stroke-width="0.25" fill="none" stroke="#ff6600" stroke-linecap="round" stroke-linejoin="round" stroke-width="0.9447856298474758"/>
      <path d="M-0.35 -1.3 L0.25 -1.05 0.5 -0.5 0.25 0.1 -0.35 0.35 -0.9 0.1 -1.15 -0.5 -0.9 -1.05 -0.35 -1.3" fill="#ffead5" fill-rule="evenodd" stroke="none"/>
    </g>
    <g id="shape7">
      <path d="M1.15 -1.15 Q1.65 -0.65 1.65 0.0 1.65 0.7 1.15 1.15 0.7 1.65 0.0 1.65 -0.65 1.65 -1.15 1.15 -1.65 0.7 -1.65 0.0 -1.65 -0.65 -1.15 -1.15 -0.65 -1.65 0.0 -1.65 0.7 -1.65 1.15 -1.15" fill="#ff9933" fill-rule="evenodd" stroke="none"/>
      <path d="M1.15 -1.15 Q1.65 -0.65 1.65 0.0 1.65 0.7 1.15 1.15 0.7 1.65 0.0 1.65 -0.65 1.65 -1.15 1.15 -1.65 0.7 -1.65 0.0 -1.65 -0.65 -1.15 -1.15 -0.65 -1.65 0.0 -1.65 0.7 -1.65 1.15 -1.15 Z" ffdec:has-small-stroke="true" ffdec:original-stroke-width="0.25" fill="none" stroke="#ff6600" stroke-linecap="round" stroke-linejoin="round" stroke-width="0.9447856298474758"/>
      <path d="M-0.35 -1.3 L0.25 -1.05 0.5 -0.5 0.25 0.1 -0.35 0.35 -0.9 0.1 -1.15 -0.5 -0.9 -1.05 -0.35 -1.3" fill="#ffead5" fill-rule="evenodd" stroke="none"/>
    </g>
    <g id="shape8">
      <path d="M1.15 -1.15 Q1.65 -0.65 1.65 0.0 1.65 0.7 1.15 1.15 0.7 1.65 0.0 1.65 -0.65 1.65 -1.15 1.15 -1.65 0.7 -1.65 0.0 -1.65 -0.65 -1.15 -1.15 -0.65 -1.65 0.0 -1.65 0.7 -1.65 1.15 -1.15" fill="#ff9933" fill-rule="evenodd" stroke="none"/>
      <path d="M1.15 -1.15 Q1.65 -0.65 1.65 0.0 1.65 0.7 1.15 1.15 0.7 1.65 0.0 1.65 -0.65 1.65 -1.15 1.15 -1.65 0.7 -1.65 0.0 -1.65 -0.65 -1.15 -1.15 -0.65 -1.65 0.0 -1.65 0.7 -1.65 1.15 -1.15 Z" ffdec:has-small-stroke="true" ffdec:original-stroke-width="0.25" fill="none" stroke="#ff6600" stroke-linecap="round" stroke-linejoin="round" stroke-width="0.9447856298474758"/>
      <path d="M-0.35 -1.3 L0.25 -1.05 0.5 -0.5 0.25 0.1 -0.35 0.35 -0.9 0.1 -1.15 -0.5 -0.9 -1.05 -0.35 -1.3" fill="#ffead5" fill-rule="evenodd" stroke="none"/>
    </g>
    <g id="shape9">
      <path d="M1.15 -1.15 Q1.65 -0.65 1.65 0.0 1.65 0.7 1.15 1.15 0.7 1.65 0.0 1.65 -0.65 1.65 -1.15 1.15 -1.65 0.7 -1.65 0.0 -1.65 -0.65 -1.15 -1.15 -0.65 -1.65 0.0 -1.65 0.7 -1.65 1.15 -1.15" fill="#ff9933" fill-rule="evenodd" stroke="none"/>
      <path d="M1.15 -1.15 Q1.65 -0.65 1.65 0.0 1.65 0.7 1.15 1.15 0.7 1.65 0.0 1.65 -0.65 1.65 -1.15 1.15 -1.65 0.7 -1.65 0.0 -1.65 -0.65 -1.15 -1.15 -0.65 -1.65 0.0 -1.65 0.7 -1.65 1.15 -1.15 Z" ffdec:has-small-stroke="true" ffdec:original-stroke-width="0.25" fill="none" stroke="#ff6600" stroke-linecap="round" stroke-linejoin="round" stroke-width="0.9447856298474758"/>
      <path d="M-0.35 -1.3 L0.25 -1.05 0.5 -0.5 0.25 0.1 -0.35 0.35 -0.9 0.1 -1.15 -0.5 -0.9 -1.05 -0.35 -1.3" fill="#ffead5" fill-rule="evenodd" stroke="none"/>
    </g>
    <g id="shape10">
      <path d="M1.15 -1.15 Q1.65 -0.65 1.65 0.0 1.65 0.7 1.15 1.15 0.7 1.65 0.0 1.65 -0.65 1.65 -1.15 1.15 -1.65 0.7 -1.65 0.0 -1.65 -0.65 -1.15 -1.15 -0.65 -1.65 0.0 -1.65 0.7 -1.65 1.15 -1.15" fill="#ff9933" fill-rule="evenodd" stroke="none"/>
      <path d="M1.15 -1.15 Q1.65 -0.65 1.65 0.0 1.65 0.7 1.15 1.15 0.7 1.65 0.0 1.65 -0.65 1.65 -1.15 1.15 -1.65 0.7 -1.65 0.0 -1.65 -0.65 -1.15 -1.15 -0.65 -1.65 0.0 -1.65 0.7 -1.65 1.15 -1.15 Z" ffdec:has-small-stroke="true" ffdec:original-stroke-width="0.25" fill="none" stroke="#ff6600" stroke-linecap="round" stroke-linejoin="round" stroke-width="0.9447856298474758"/>
      <path d="M-0.35 -1.3 L0.25 -1.05 0.5 -0.5 0.25 0.1 -0.35 0.35 -0.9 0.1 -1.15 -0.5 -0.9 -1.05 -0.35 -1.3" fill="#ffead5" fill-rule="evenodd" stroke="none"/>
    </g>
    <g id="shape11">
      <path d="M1.15 -1.15 Q1.65 -0.65 1.65 0.0 1.65 0.7 1.15 1.15 0.7 1.65 0.0 1.65 -0.65 1.65 -1.15 1.15 -1.65 0.7 -1.65 0.0 -1.65 -0.65 -1.15 -1.15 -0.65 -1.65 0.0 -1.65 0.7 -1.65 1.15 -1.15" fill="#ff9933" fill-rule="evenodd" stroke="none"/>
      <path d="M1.15 -1.15 Q1.65 -0.65 1.65 0.0 1.65 0.7 1.15 1.15 0.7 1.65 0.0 1.65 -0.65 1.65 -1.15 1.15 -1.65 0.7 -1.65 0.0 -1.65 -0.65 -1.15 -1.15 -0.65 -1.65 0.0 -1.65 0.7 -1.65 1.15 -1.15 Z" ffdec:has-small-stroke="true" ffdec:original-stroke-width="0.25" fill="none" stroke="#ff6600" stroke-linecap="round" stroke-linejoin="round" stroke-width="0.9447856298474758"/>
      <path d="M-0.35 -1.3 L0.25 -1.05 0.5 -0.5 0.25 0.1 -0.35 0.35 -0.9 0.1 -1.15 -0.5 -0.9 -1.05 -0.35 -1.3" fill="#ffead5" fill-rule="evenodd" stroke="none"/>
    </g>
    <g id="shape12">
      <path d="M1.15 -1.15 Q1.65 -0.65 1.65 0.0 1.65 0.7 1.15 1.15 0.7 1.65 0.0 1.65 -0.65 1.65 -1.15 1.15 -1.65 0.7 -1.65 0.0 -1.65 -0.65 -1.15 -1.15 -0.65 -1.65 0.0 -1.65 0.7 -1.65 1.15 -1.15" fill="#c77727" fill-rule="evenodd" stroke="none"/>
      <path d="M1.15 -1.15 Q1.65 -0.65 1.65 0.0 1.65 0.7 1.15 1.15 0.7 1.65 0.0 1.65 -0.65 1.65 -1.15 1.15 -1.65 0.7 -1.65 0.0 -1.65 -0.65 -1.15 -1.15 -0.65 -1.65 0.0 -1.65 0.7 -1.65 1.15 -1.15 Z" ffdec:has-small-stroke="true" ffdec:original-stroke-width="0.25" fill="none" stroke="#c74f00" stroke-linecap="round" stroke-linejoin="round" stroke-width="1.35533771766555"/>
      <path d="M-0.35 -1.3 L0.25 -1.05 0.5 -0.5 0.25 0.1 -0.35 0.35 -0.9 0.1 -1.15 -0.5 -0.9 -1.05 -0.35 -1.3" fill="#c7b6a6" fill-rule="evenodd" stroke="none"/>
    </g>
    <g id="shape13">
      <path d="M6.95 7.2 Q5.1 7.2 5.2 5.55 5.75 3.55 7.2 3.55 L8.35 3.85 Q8.35 2.1 9.8 2.05 11.2 1.95 11.3 3.6 11.3 5.25 9.65 5.4 L8.8 5.25 Q8.8 7.2 6.95 7.2" fill="#000000" fill-rule="evenodd" stroke="none"/>
    </g>
    <g id="shape14">
      <path d="M1.15 -1.15 Q1.65 -0.65 1.65 0.0 1.65 0.7 1.15 1.15 0.7 1.65 0.0 1.65 -0.65 1.65 -1.15 1.15 -1.65 0.7 -1.65 0.0 -1.65 -0.65 -1.15 -1.15 -0.65 -1.65 0.0 -1.65 0.7 -1.65 1.15 -1.15" fill="#ff9933" fill-rule="evenodd" stroke="none"/>
      <path d="M1.15 -1.15 Q1.65 -0.65 1.65 0.0 1.65 0.7 1.15 1.15 0.7 1.65 0.0 1.65 -0.65 1.65 -1.15 1.15 -1.65 0.7 -1.65 0.0 -1.65 -0.65 -1.15 -1.15 -0.65 -1.65 0.0 -1.65 0.7 -1.65 1.15 -1.15 Z" ffdec:has-small-stroke="true" ffdec:original-stroke-width="0.25" fill="none" stroke="#ff6600" stroke-linecap="round" stroke-linejoin="round" stroke-width="1.2171458286902905"/>
      <path d="M-0.35 -1.3 L0.25 -1.05 0.5 -0.5 0.25 0.1 -0.35 0.35 -0.9 0.1 -1.15 -0.5 -0.9 -1.05 -0.35 -1.3" fill="#ffead5" fill-rule="evenodd" stroke="none"/>
    </g>
    <g id="shape15">
      <path d="M1.15 -1.15 Q1.65 -0.65 1.65 0.0 1.65 0.7 1.15 1.15 0.7 1.65 0.0 1.65 -0.65 1.65 -1.15 1.15 -1.65 0.7 -1.65 0.0 -1.65 -0.65 -1.15 -1.15 -0.65 -1.65 0.0 -1.65 0.7 -1.65 1.15 -1.15" fill="#c77727" fill-rule="evenodd" stroke="none"/>
      <path d="M1.15 -1.15 Q1.65 -0.65 1.65 0.0 1.65 0.7 1.15 1.15 0.7 1.65 0.0 1.65 -0.65 1.65 -1.15 1.15 -1.65 0.7 -1.65 0.0 -1.65 -0.65 -1.15 -1.15 -0.65 -1.65 0.0 -1.65 0.7 -1.65 1.15 -1.15 Z" ffdec:has-small-stroke="true" ffdec:original-stroke-width="0.25" fill="none" stroke="#c74f00" stroke-linecap="round" stroke-linejoin="round" stroke-width="1.4876625882459766"/>
      <path d="M-0.35 -1.3 L0.25 -1.05 0.5 -0.5 0.25 0.1 -0.35 0.35 -0.9 0.1 -1.15 -0.5 -0.9 -1.05 -0.35 -1.3" fill="#c7b6a6" fill-rule="evenodd" stroke="none"/>
    </g>
  </defs>
</svg>
