<?xml version="1.0" encoding="UTF-8" standalone="no"?>
<svg xmlns:ffdec="https://www.free-decompiler.com/flash" xmlns:xlink="http://www.w3.org/1999/xlink" ffdec:objectType="frame" height="37.35px" width="42.8px" xmlns="http://www.w3.org/2000/svg">
  <g transform="matrix(1.0, 0.0, 0.0, 1.0, 18.65, 21.35)">
    <use ffdec:characterId="167" height="18.75" transform="matrix(1.0, 0.0, 0.0, 1.0, 0.0, 0.0)" width="33.6" xlink:href="#shape0"/>
  </g>
  <defs>
    <g id="shape0">
      <path d="M9.55 8.05 L8.95 8.5 Q8.1 9.15 6.85 9.0 6.2 8.95 5.85 8.7 L5.25 8.4 Q2.9 9.7 1.35 9.5 L0.25 9.15 -0.25 8.85 -1.4 8.75 -2.4 8.6 -3.65 7.25 -4.15 7.35 -5.7 7.3 -7.4 6.8 -8.5 6.05 -5.95 5.8 Q-5.1 5.7 -4.4 5.2 L-0.45 5.05 4.05 5.75 4.65 6.2 9.55 8.05" fill="#ffffff" fill-rule="evenodd" stroke="none"/>
      <path d="M-8.5 6.05 L-8.95 5.75 -9.55 5.0 -9.5 4.35 Q-9.3 2.95 -8.05 2.85 L-1.3 2.35 Q0.8 2.05 3.55 2.4 5.9 2.7 8.05 3.35 L12.55 4.65 Q13.25 4.95 13.2 5.55 13.1 6.15 10.25 7.5 L9.55 8.05 4.65 6.2 4.05 5.75 -0.45 5.05 -4.4 5.2 Q-5.1 5.7 -5.95 5.8 L-8.5 6.05" fill="#d8d2c0" fill-rule="evenodd" stroke="none"/>
      <path d="M-14.6 1.35 L-14.9 0.7 -14.05 -2.0 -12.95 -4.4 Q-12.1 -4.9 -8.1 -6.0 L-3.35 -7.2 1.6 -8.25 Q5.15 -8.7 9.4 -8.25 L14.95 -7.2 16.3 -5.8 16.65 -5.3 Q16.9 -3.7 16.35 -1.8 15.8 0.15 14.4 1.3 L13.3 2.0 Q9.65 0.35 5.75 -0.2 L-0.85 -0.6 Q-3.8 -0.1 -7.0 0.9 -11.1 2.1 -14.6 1.35" fill="#fbb004" fill-rule="evenodd" stroke="none"/>
      <path d="M16.65 -5.3 L17.45 -4.15 Q18.0 -3.5 17.75 -1.5 17.5 0.35 16.45 1.85 L16.25 2.1 Q14.1 4.8 9.85 4.25 L4.4 3.35 Q-1.3 2.65 -6.2 3.35 L-11.65 4.0 Q-13.0 3.85 -14.6 1.35 -11.1 2.1 -7.0 0.9 -3.8 -0.1 -0.85 -0.6 L5.75 -0.2 Q9.65 0.35 13.3 2.0 L14.4 1.3 Q15.8 0.15 16.35 -1.8 16.9 -3.7 16.65 -5.3" fill="#b78104" fill-rule="evenodd" stroke="none"/>
      <path d="M-12.9 -4.4 L-12.7 -3.85 -12.85 -2.9 -13.35 -1.45 -14.0 0.4 Q-14.25 1.35 -12.3 2.9 L-6.6 2.5 -1.05 1.65 8.3 3.3 11.45 3.75 12.1 4.1 Q12.75 4.15 13.5 3.5 L14.35 2.7 15.55 2.1 16.5 1.25 17.25 -1.85 17.2 -3.05 15.8 -4.55 13.5 -6.25 Q12.35 -6.95 9.1 -7.35 L6.85 -7.5 Q2.9 -8.0 -5.4 -6.15 L-12.9 -4.4 Q-13.4 -4.1 -14.15 -3.95 -13.3 -4.95 -10.75 -5.6 L-4.5 -7.0 2.35 -8.2 12.3 -8.3 Q13.75 -8.25 16.2 -6.2 18.6 -4.3 18.5 -3.55 L17.75 -0.95 17.1 1.3 17.25 2.1 12.7 5.1 11.5 4.8 8.95 4.1 0.8 2.65 Q-1.3 2.4 -6.4 3.4 L-11.35 4.5 Q-13.35 4.25 -15.1 1.05 -14.3 -3.5 -12.9 -4.4" fill="#000000" fill-rule="evenodd" stroke="none"/>
      <path d="M1.25 -1.0 L-4.4 -0.75 Q-8.35 -0.3 -11.05 0.6 L-13.7 1.4 -13.8 1.25 -7.95 -0.4 Q-2.05 -1.75 1.05 -1.4 L5.85 -0.2 11.55 1.0 14.1 1.05 15.3 -0.2 16.25 -1.15 17.1 -2.25 16.95 -2.55 16.8 -3.15 17.4 -2.9 17.6 -2.35 Q14.05 2.2 13.3 2.1 L13.85 2.7 Q8.65 0.85 6.05 0.3 L4.0 -0.3 1.25 -1.0" fill="#000000" fill-rule="evenodd" stroke="none"/>
      <path d="M13.75 1.65 L13.9 2.3 13.55 3.0 Q13.15 2.65 13.25 2.0 13.25 1.85 13.75 1.65" fill="#000000" fill-rule="evenodd" stroke="none"/>
      <path d="M-9.6 3.4 Q-9.05 3.1 -9.2 4.3 -9.45 5.2 -8.05 5.5 -6.65 5.75 -6.7 6.05 L-7.1 6.5 -8.15 6.65 Q-10.6 6.35 -10.35 4.35 -10.25 3.8 -9.6 3.4" fill="#000000" fill-rule="evenodd" stroke="none"/>
      <path d="M-6.4 6.25 Q-6.1 6.3 -6.1 6.5 L-5.45 6.8 -3.6 6.4 Q-2.7 6.1 -2.8 6.85 L-3.8 7.5 -5.55 7.75 Q-7.1 7.55 -6.95 6.8 -6.85 6.2 -6.4 6.25" fill="#000000" fill-rule="evenodd" stroke="none"/>
      <path d="M-1.2 8.8 Q-2.65 8.6 -3.0 7.95 L-3.25 7.15 -2.8 7.1 Q-2.05 7.65 -1.05 7.8 L0.25 7.25 Q1.0 6.9 0.9 7.8 L0.45 8.5 Q-0.15 8.95 -1.2 8.8" fill="#000000" fill-rule="evenodd" stroke="none"/>
      <path d="M5.6 6.75 L5.8 7.1 Q5.75 7.7 5.0 8.2 4.2 8.8 3.2 8.65 L2.1 8.4 2.05 8.05 3.15 8.1 4.65 7.75 5.1 7.05 5.6 6.75" fill="#000000" fill-rule="evenodd" stroke="none"/>
      <path d="M7.55 9.15 Q5.9 8.95 5.95 8.15 6.0 7.65 6.65 7.7 L6.9 7.85 7.1 7.95 9.15 7.45 Q9.95 7.0 9.85 7.75 L9.35 8.65 Q8.65 9.3 7.55 9.15" fill="#000000" fill-rule="evenodd" stroke="none"/>
      <path d="M11.4 7.15 L10.75 6.95 10.65 6.6 Q12.2 5.9 12.45 5.45 L13.15 4.6 Q13.65 4.2 13.55 5.2 L12.8 6.4 Q12.1 7.25 11.4 7.15" fill="#000000" fill-rule="evenodd" stroke="none"/>
      <path d="M3.3 -3.95 L0.75 -2.35 -0.15 -2.45 Q-0.95 -2.5 -1.45 -2.95 L-2.0 -3.4 -0.85 -5.8 -0.2 -7.2 Q0.25 -8.0 1.15 -8.0 L3.95 -8.25 6.5 -8.15 3.45 -4.25 3.3 -3.95 M-2.15 3.15 Q-2.15 1.5 -1.75 0.85 -1.4 0.15 -0.4 0.65 L1.9 2.1 2.65 3.85 4.85 8.25 3.8 8.55 Q2.45 8.8 -0.15 8.5 L-0.95 6.65 -1.8 4.1 -2.15 3.15" fill="#131a11" fill-rule="evenodd" stroke="none"/>
      <path d="M3.3 -3.95 Q1.25 -1.4 1.25 -1.1 1.1 0.0 1.9 2.1 L-0.4 0.65 Q-1.4 0.15 -1.75 0.85 -2.15 1.5 -2.15 3.15 L-3.25 -0.5 -2.0 -3.4 -1.45 -2.95 Q-0.95 -2.5 -0.15 -2.45 L0.75 -2.35 3.3 -3.95" fill="#41553c" fill-rule="evenodd" stroke="none"/>
      <path d="M3.45 -4.25 L6.5 -8.15 3.95 -8.25 1.15 -8.0 Q0.25 -8.0 -0.2 -7.2 L-0.85 -5.8 -3.25 -0.5 -1.8 4.1 -0.95 6.65 -0.15 8.5 Q2.45 8.8 3.8 8.55 L4.85 8.25 2.65 3.8 Q1.05 0.4 1.25 -1.1 L3.45 -4.25 M2.0 -0.85 Q1.9 0.2 3.75 4.15 5.65 8.05 5.6 8.35 5.4 9.9 1.5 9.4 -0.95 9.1 -1.95 7.0 -2.45 5.9 -2.75 4.35 L-3.7 1.55 -4.2 -0.5 -2.4 -3.95 -0.45 -7.3 -0.75 -7.95 Q-0.65 -8.5 3.45 -9.05 7.55 -9.6 7.35 -8.15 7.25 -7.45 2.0 -0.85" fill="#000000" fill-rule="evenodd" stroke="none"/>
      <path d="M-12.25 -1.2 L-12.35 -1.8 Q-12.15 -3.45 -10.55 -4.95 L-9.2 -5.1 -7.3 -5.6 -4.35 -6.0 Q-3.15 -5.85 -3.4 -4.9 -3.5 -4.1 -4.45 -3.1 L-4.75 -2.85 -8.25 -1.85 Q-11.45 -0.75 -11.85 -0.8 L-12.25 -1.2" fill="#fed678" fill-rule="evenodd" stroke="none"/>
      <path d="M4.85 -1.75 L4.75 -2.4 Q4.8 -2.8 6.15 -4.15 L7.75 -5.65 Q8.1 -5.95 11.1 -5.65 14.15 -5.25 14.75 -4.8 L15.75 -3.75 15.7 -2.95 Q15.3 -0.05 8.15 -1.0 5.45 -1.3 4.85 -1.75" fill="#fed678" fill-rule="evenodd" stroke="none"/>
    </g>
  </defs>
</svg>
