<?xml version="1.0" encoding="UTF-8" standalone="no"?>
<svg xmlns:ffdec="https://www.free-decompiler.com/flash" xmlns:xlink="http://www.w3.org/1999/xlink" ffdec:objectType="frame" height="37.35px" width="42.8px" xmlns="http://www.w3.org/2000/svg">
  <g transform="matrix(1.0, 0.0, 0.0, 1.0, 18.65, 21.35)">
    <use ffdec:characterId="162" height="19.6" transform="matrix(1.0, 0.0, 0.0, 1.0, 0.0, 0.0)" width="20.85" xlink:href="#shape0"/>
  </g>
  <defs>
    <g id="shape0">
      <path d="M-6.95 -2.0 L-8.6 -4.2 -5.45 -4.65 -5.45 -7.5 -2.2 -6.7 -0.8 -9.2 0.0 -8.55 1.05 -7.15 3.05 -8.75 4.0 -7.85 4.5 -6.6 5.85 -6.8 7.0 -6.9 8.45 -5.55 7.65 -3.6 8.75 -3.2 9.95 -1.75 8.5 0.2 10.05 2.5 7.65 3.9 8.25 6.6 5.1 6.3 3.5 9.2 1.6 7.4 -0.55 9.4 -2.3 7.2 -5.0 8.2 -6.1 6.7 -6.25 6.6 -6.05 4.95 -7.45 4.75 -8.65 3.3 -7.55 1.65 -8.6 1.15 -9.8 -0.3 -6.95 -2.0" fill="#000000" fill-rule="evenodd" stroke="none"/>
      <path d="M-6.95 -2.0 L-9.8 -0.3 -8.6 1.15 -7.55 1.65 -8.65 3.3 -7.45 4.75 -6.05 4.95 -6.25 6.6 -6.1 6.7 -5.0 8.2 -2.3 7.2 -0.55 9.4 1.6 7.4 3.5 9.2 5.1 6.3 8.25 6.6 7.65 3.9 10.05 2.5 8.5 0.2 9.95 -1.75 8.75 -3.2 7.65 -3.6 8.45 -5.55 7.0 -6.9 5.85 -6.8 4.5 -6.6 4.0 -7.85 3.05 -8.75 1.05 -7.15 0.0 -8.55 -0.8 -9.2 -2.2 -6.7 -5.45 -7.5 -5.45 -4.65 -8.6 -4.2 -6.95 -2.0 Z" fill="none" stroke="#000000" stroke-linecap="round" stroke-linejoin="round" stroke-width="1.0"/>
      <path d="M5.55 -7.0 L6.7 -7.1 8.15 -5.75 7.35 -3.8 8.45 -3.4 9.65 -1.95 8.2 0.0 9.75 2.3 7.35 3.7 7.95 6.4 4.8 6.1 3.2 9.0 1.3 7.2 -0.85 9.2 -2.6 7.0 -5.3 8.0 -6.4 6.5 -6.55 6.4 -6.35 4.75 -7.75 4.55 -8.95 3.1 -7.85 1.45 -8.9 0.95 -10.1 -0.5 -7.25 -2.2 -8.9 -4.4 -5.75 -4.85 -5.75 -7.7 -2.5 -6.9 -1.1 -9.4 -0.3 -8.75 0.75 -7.35 2.75 -8.95 3.7 -8.05 4.2 -6.8 5.55 -7.0 M0.6 -6.6 L0.5 -6.65 -0.9 -8.55 -2.15 -6.4 -2.25 -6.35 -2.4 -6.3 -4.95 -6.9 -5.15 -4.4 -5.25 -4.25 -5.35 -4.2 -7.8 -4.0 -6.65 -2.2 -6.6 -2.1 -6.65 -2.0 -6.7 -1.9 -6.85 -1.8 -8.95 -0.5 -6.7 0.75 -8.0 2.65 -5.65 3.1 -5.9 5.5 -2.8 4.65 -2.0 6.6 0.05 5.0 2.0 6.6 3.45 4.1 5.95 4.25 5.4 2.05 7.85 0.75 6.45 -1.5 7.8 -2.95 5.3 -4.2 6.1 -6.45 3.5 -6.2 3.4 -6.25 3.3 -6.3 2.45 -8.05 0.85 -6.6 0.75 -6.55 0.7 -6.55 0.6 -6.6 M-2.65 6.4 L-3.05 5.25 -5.85 6.2 -5.15 7.25 -2.65 6.4 M-7.55 4.15 L-6.3 4.2 -6.2 3.5 -8.05 3.3 -7.55 4.15 M-7.55 1.05 L-7.4 0.8 Q-8.2 0.3 -8.95 -0.15 L-8.55 0.7 -7.55 1.05 M1.05 6.45 L0.05 5.65 -1.75 7.05 -0.8 8.35 1.05 6.45 M8.95 2.05 L8.2 1.05 5.8 2.25 6.6 4.85 3.6 4.6 2.35 7.25 3.15 8.1 4.3 5.45 7.1 5.7 6.65 3.35 8.95 2.05 M7.75 -0.4 L8.95 -1.8 8.2 -2.75 7.0 -1.45 7.75 -0.4 M6.75 -4.0 L7.5 -5.65 6.7 -6.45 5.9 -4.35 6.75 -4.0" fill="#000000" fill-rule="evenodd" stroke="none"/>
      <path d="M0.6 -6.6 L0.7 -6.55 0.75 -6.55 0.85 -6.6 2.45 -8.05 3.3 -6.3 3.4 -6.25 3.5 -6.2 6.1 -6.45 5.3 -4.2 7.8 -2.95 6.45 -1.5 7.85 0.75 5.4 2.05 5.95 4.25 3.45 4.1 2.0 6.6 0.05 5.0 -2.0 6.6 -2.8 4.65 -5.9 5.5 -5.65 3.1 -8.0 2.65 -6.7 0.75 -8.95 -0.5 -6.85 -1.8 -6.7 -1.9 -6.65 -2.0 -6.6 -2.1 -6.65 -2.2 -7.8 -4.0 -5.35 -4.2 -5.25 -4.25 -5.15 -4.4 -4.95 -6.9 -2.4 -6.3 -2.25 -6.35 -2.15 -6.4 -0.9 -8.55 0.5 -6.65 0.6 -6.6" fill="#e9d5a7" fill-rule="evenodd" stroke="none"/>
      <path d="M6.75 -4.0 L5.9 -4.35 6.7 -6.45 7.5 -5.65 6.75 -4.0 M7.75 -0.4 L7.0 -1.45 8.2 -2.75 8.95 -1.8 7.75 -0.4 M8.95 2.05 L6.65 3.35 7.1 5.7 4.3 5.45 3.15 8.1 2.35 7.25 3.6 4.6 6.6 4.85 5.8 2.25 8.2 1.05 8.95 2.05 M1.05 6.45 L-0.8 8.35 -1.75 7.05 0.05 5.65 1.05 6.45 M-7.55 1.05 L-8.55 0.7 -8.95 -0.15 Q-8.2 0.3 -7.4 0.8 L-7.55 1.05 M-7.55 4.15 L-8.05 3.3 -6.2 3.5 -6.3 4.2 -7.55 4.15 M-2.65 6.4 L-5.15 7.25 -5.85 6.2 -3.05 5.25 -2.65 6.4" fill="#d6cfba" fill-rule="evenodd" stroke="none"/>
      <path d="M-6.75 -3.55 L-4.5 -3.7 -4.3 -5.9 -2.05 -5.45 -0.9 -7.35 0.4 -5.65 1.8 -6.9 2.6 -5.35 4.15 -5.7 4.3 -3.4 6.3 -2.85 5.0 -1.35 6.3 0.3 4.3 1.4 4.85 3.4 2.5 3.25 1.9 5.45 0.25 3.95 -1.6 5.65 -2.25 3.65 -5.15 4.25 -4.75 2.35 -6.75 2.2 -5.6 0.4 -7.75 -0.6 -5.65 -1.9 -6.75 -3.55" fill="#f5f3ef" fill-rule="evenodd" stroke="none"/>
      <path d="M-2.1 -4.1 Q-0.95 -4.85 0.85 -4.75 L0.45 -4.75 Q4.85 -4.05 4.85 -0.6 4.85 0.9 3.0 1.85 1.55 2.6 0.55 2.65 -2.2 2.6 -2.2 -0.1 -2.2 -2.6 0.2 -2.6 1.95 -2.6 2.0 -1.0 2.0 0.45 0.6 0.45 -0.55 0.45 -0.55 -0.25 -0.55 -0.8 -0.2 -0.8 0.2 -0.45 0.6 -0.45 L1.25 -1.05 Q1.2 -1.8 0.2 -1.8 -0.65 -1.8 -1.15 -1.05 L-1.55 -0.1 Q-1.55 1.8 0.55 1.85 2.0 1.8 3.2 0.9 4.2 0.05 4.25 -0.7 4.2 -1.6 3.2 -2.7 2.0 -4.1 0.4 -4.1 -1.2 -4.1 -2.75 -2.75 -4.35 -1.45 -4.35 -0.15 -4.35 1.9 -2.75 2.85 L-1.2 3.85 -1.4 4.05 -3.25 3.3 -4.25 2.2 Q-4.85 1.2 -4.85 -0.2 -4.85 -1.75 -3.55 -2.8 L-2.1 -4.1" fill="#fd0b54" fill-rule="evenodd" stroke="none"/>
    </g>
  </defs>
</svg>
