<?xml version="1.0" encoding="UTF-8" standalone="no"?>
<svg xmlns:ffdec="https://www.free-decompiler.com/flash" xmlns:xlink="http://www.w3.org/1999/xlink" ffdec:objectType="frame" height="37.35px" width="42.8px" xmlns="http://www.w3.org/2000/svg">
  <g transform="matrix(1.0, 0.0, 0.0, 1.0, 18.65, 21.35)">
    <use ffdec:characterId="166" height="18.1" transform="matrix(1.0, 0.0, 0.0, 1.0, 0.0, 0.0)" width="36.85" xlink:href="#shape0"/>
  </g>
  <defs>
    <g id="shape0">
      <path d="M-10.5 5.5 L-9.75 5.35 -7.85 5.4 Q-5.9 5.9 -4.2 5.05 L-3.3 4.75 -1.1 4.6 -1.05 4.65 -0.95 4.65 -0.85 4.8 -0.5 4.95 0.7 5.1 3.05 4.85 3.7 5.05 Q4.4 5.85 5.45 5.3 L7.15 4.9 Q7.25 5.65 7.9 5.65 L11.55 5.35 11.8 5.3 11.7 5.4 10.25 6.9 Q9.6 7.35 8.9 7.25 L7.4 7.3 Q6.8 8.0 6.05 8.1 L4.55 8.4 4.45 8.3 4.3 8.0 Q4.2 7.8 3.95 7.8 3.65 7.8 3.0 8.4 L2.75 8.6 1.6 8.6 Q-0.1 8.6 -0.8 8.1 L-1.8 8.35 -3.2 8.6 Q-4.5 8.6 -4.95 8.2 L-5.2 7.9 -5.1 7.7 -5.15 7.5 -5.5 7.25 -5.85 7.4 -7.15 7.05 -8.9 6.6 -10.5 5.5" fill="#ffffff" fill-rule="evenodd" stroke="none"/>
      <path d="M11.8 5.3 L11.55 5.35 7.9 5.65 Q7.25 5.65 7.15 4.9 L5.45 5.3 Q4.4 5.85 3.7 5.05 L3.05 4.85 0.7 5.1 -0.5 4.95 -0.85 4.8 -0.95 4.65 -1.05 4.65 -1.1 4.6 -3.3 4.75 -4.2 5.05 Q-5.9 5.9 -7.85 5.4 L-9.75 5.35 -10.5 5.5 -10.6 5.35 Q-11.0 4.85 -11.0 4.15 L-10.7 3.15 Q-10.3 2.5 -9.55 2.5 L-9.25 2.7 -9.05 2.85 Q-7.2 1.95 -6.35 1.75 -2.9 0.8 -0.05 1.75 L4.0 2.6 7.8 3.2 11.35 2.95 Q12.85 2.95 12.6 3.6 12.6 4.3 11.8 5.3" fill="#d8d2c0" fill-rule="evenodd" stroke="none"/>
      <path d="M-12.25 3.4 Q-11.35 3.35 -10.25 4.05 L-10.15 4.4 -10.25 4.65 -10.35 4.85 -9.95 5.35 -9.55 6.0 Q-9.55 6.65 -10.25 6.65 -11.5 6.65 -12.25 3.4" fill="#000000" fill-rule="evenodd" stroke="none"/>
      <path d="M-1.85 7.65 L-0.5 7.85 -0.4 8.0 -3.15 9.1 Q-5.1 9.1 -5.35 8.5 -5.25 7.7 -5.4 7.25 L-5.7 7.35 -7.0 7.6 Q-8.65 7.6 -8.75 6.65 L-8.5 6.3 -8.15 6.7 -7.0 7.0 -6.0 6.85 Q-5.8 6.7 -5.6 6.7 -5.35 6.7 -5.0 7.3 -4.7 7.95 -4.2 7.95 L-2.45 7.8 -1.85 7.65" fill="#000000" fill-rule="evenodd" stroke="none"/>
      <path d="M9.6 7.4 L7.35 7.85 Q6.5 7.85 5.9 8.2 L5.1 8.55 4.05 8.05 3.25 8.5 1.25 8.95 0.2 8.75 Q-0.1 8.5 -0.3 8.5 L-0.3 8.1 1.15 8.2 2.75 7.85 Q3.45 7.5 3.6 7.5 L5.15 7.9 6.15 7.4 Q7.0 6.9 7.2 6.9 L7.65 7.0 7.65 7.2 8.5 7.2 9.9 5.9 Q10.85 5.05 10.85 6.25 10.85 6.95 9.6 7.4" fill="#000000" fill-rule="evenodd" stroke="none"/>
      <path d="M12.75 4.8 Q12.3 5.45 12.0 5.5 L11.5 5.5 11.4 5.2 11.75 4.75 12.1 4.0 Q12.1 3.6 12.65 3.4 13.15 3.25 13.15 3.9 L12.75 4.8" fill="#000000" fill-rule="evenodd" stroke="none"/>
      <path d="M1.7 1.1 L6.7 2.35 6.5 2.45 Q4.4 2.45 1.0 1.15 -2.6 -0.25 -7.65 -0.45 L-5.5 -0.5 -0.75 0.1 1.7 1.1" fill="#000000" fill-rule="evenodd" stroke="none"/>
      <path d="M10.4 -3.55 Q17.85 0.35 18.4 1.95 18.95 3.55 13.65 4.25 8.3 4.85 5.95 4.4 L0.5 3.65 -3.85 3.1 Q-5.05 3.0 -7.2 3.8 -9.35 4.55 -11.3 4.7 -13.3 4.75 -15.45 3.4 -16.9 2.5 -18.4 1.0 -18.05 1.0 -16.4 0.0 -14.75 -1.0 -14.3 -0.9 L-10.5 -4.55 -8.5 -6.3 Q-6.95 -7.25 -1.2 -7.7 3.0 -7.45 10.4 -3.55 M1.45 -5.35 Q-4.55 -6.8 -7.65 -5.3 L-17.05 1.5 -17.2 1.6 -14.35 1.8 Q-12.3 2.5 -11.4 2.45 L-8.85 2.1 -5.55 1.5 -2.6 1.85 Q-0.15 1.9 1.2 2.4 L3.65 2.95 5.5 3.35 Q6.3 3.7 10.35 3.45 L10.0 3.5 14.15 3.2 15.8 2.8 16.0 2.75 9.35 -1.8 Q5.1 -4.45 1.45 -5.35" fill="#000000" fill-rule="evenodd" stroke="none"/>
      <path d="M1.2 -6.35 Q4.25 -5.95 6.85 -4.25 8.8 -3.0 10.25 -1.35 L9.85 -0.7 9.25 -0.35 8.85 -0.1 8.3 -0.1 7.75 0.35 Q4.15 1.15 0.45 0.3 -3.75 -0.85 -7.9 0.25 -11.35 1.3 -13.8 0.15 L-12.0 -0.7 Q-10.85 -1.4 -10.4 -2.75 -10.1 -3.7 -9.25 -4.4 -7.3 -5.95 -4.8 -6.3 -1.8 -6.55 1.2 -6.35" fill="#ffffff" fill-rule="evenodd" stroke="none"/>
      <path d="M1.2 -6.35 Q-1.8 -6.55 -4.8 -6.3 -7.3 -5.95 -9.25 -4.4 -10.1 -3.7 -10.4 -2.75 -10.85 -1.4 -12.0 -0.7 L-13.8 0.15 Q-11.35 1.3 -7.9 0.25 -3.75 -0.85 0.45 0.3 4.15 1.15 7.75 0.35 L8.3 -0.1 8.85 -0.1 9.25 -0.35 9.85 -0.7 10.25 -1.35 Q8.8 -3.0 6.85 -4.25 4.25 -5.95 1.2 -6.35 M10.45 -2.4 L14.0 -0.1 Q16.55 1.8 16.55 2.45 16.55 3.5 10.85 3.9 L-3.8 2.35 Q-7.25 2.35 -9.35 3.0 L-12.5 3.65 Q-15.0 3.65 -16.5 2.25 -17.5 1.3 -17.5 0.75 L-17.2 0.6 -15.0 -0.6 Q-13.85 -1.2 -13.65 -1.3 -12.6 -1.65 -12.1 -2.4 L-10.8 -3.75 Q-8.8 -5.45 -7.25 -6.2 L1.45 -6.55 Q3.95 -6.3 9.45 -3.05 L10.45 -2.4" fill="#c2cdc4" fill-rule="evenodd" stroke="none"/>
      <path d="M9.0 2.0 L9.05 2.15 8.8 2.25 4.65 1.35 0.25 0.2 0.3 0.15 9.0 2.0" fill="#000000" fill-rule="evenodd" stroke="none"/>
      <path d="M10.4 0.9 L10.2 0.95 6.7 0.15 7.0 -0.05 10.4 0.9" fill="#000000" fill-rule="evenodd" stroke="none"/>
      <path d="M11.55 -0.4 L11.55 -0.3 11.25 -0.3 9.4 -0.65 9.4 -0.75 9.45 -0.75 11.55 -0.4" fill="#000000" fill-rule="evenodd" stroke="none"/>
      <path d="M1.35 -7.75 Q1.35 -7.2 1.0 -6.85 0.55 -6.45 0.1 -6.45 -0.45 -6.45 -0.85 -6.85 L-1.2 -7.75 -0.85 -8.65 Q-0.45 -9.05 0.1 -9.0 0.55 -9.05 1.0 -8.65 1.35 -8.3 1.35 -7.75" fill="#000000" fill-rule="evenodd" stroke="none"/>
      <path d="M0.35 -7.8 L-0.1 -7.65 -0.55 -7.8 -0.75 -8.25 -0.55 -8.7 -0.1 -8.9 0.35 -8.7 0.55 -8.25 0.35 -7.8" fill="#cccccc" fill-rule="evenodd" stroke="none"/>
      <path d="M-2.35 -6.0 Q-2.4 -5.5 -2.7 -5.05 -3.15 -4.75 -3.65 -4.75 -4.2 -4.75 -4.55 -5.05 -4.95 -5.5 -4.95 -6.0 -4.95 -6.55 -4.55 -6.9 -4.2 -7.3 -3.65 -7.3 -3.15 -7.3 -2.7 -6.9 -2.4 -6.55 -2.35 -6.0" fill="#000000" fill-rule="evenodd" stroke="none"/>
      <path d="M-3.35 -5.85 Q-3.55 -5.65 -3.85 -5.65 L-4.3 -5.85 -4.5 -6.3 -4.3 -6.8 -3.85 -7.0 -3.35 -6.8 -3.15 -6.3 -3.35 -5.85" fill="#cccccc" fill-rule="evenodd" stroke="none"/>
      <path d="M0.35 -4.4 Q0.35 -3.85 0.0 -3.5 -0.45 -3.1 -0.9 -3.1 -1.45 -3.1 -1.85 -3.5 -2.2 -3.85 -2.2 -4.4 -2.2 -4.95 -1.85 -5.35 L-0.9 -5.65 Q-0.45 -5.7 0.0 -5.35 L0.35 -4.4" fill="#000000" fill-rule="evenodd" stroke="none"/>
      <path d="M-0.7 -4.35 Q-0.9 -4.15 -1.15 -4.15 -1.4 -4.15 -1.55 -4.35 L-1.75 -4.75 -1.55 -5.2 -1.15 -5.35 -0.7 -5.2 -0.55 -4.75 -0.7 -4.35" fill="#cccccc" fill-rule="evenodd" stroke="none"/>
    </g>
  </defs>
</svg>
