<?xml version="1.0" encoding="UTF-8" standalone="no"?>
<svg xmlns:ffdec="https://www.free-decompiler.com/flash" xmlns:xlink="http://www.w3.org/1999/xlink" ffdec:objectType="frame" height="15.7px" width="30.1px" xmlns="http://www.w3.org/2000/svg">
  <g transform="matrix(1.0, 0.0, 0.0, 1.0, 12.35, -14.25)">
    <use ffdec:characterId="14" height="9.5" transform="matrix(1.0, 0.0, 0.0, 1.0, 0.0, 0.0)" width="17.5" xlink:href="#shape0"/>
    <use ffdec:characterId="15" height="15.7" transform="matrix(1.0, 0.0, 0.0, 1.0, 4.25, 22.1)" width="26.95" xlink:href="#shape1"/>
    <use ffdec:characterId="16" height="4.3" transform="matrix(1.0, 0.0, 0.0, 1.0, 0.0, 0.0)" width="24.4" xlink:href="#shape2"/>
  </g>
  <defs>
    <g id="shape0">
      <path d="M7.85 20.35 L7.55 20.5 7.55 20.65 Q7.45 20.95 6.9 20.95 6.6 20.95 6.6 20.8 L6.6 20.65 5.25 19.45 6.8 17.9 Q7.2 17.9 8.05 18.75 L8.8 19.65 Q8.2 19.95 7.8 20.6 L7.85 20.35 M2.5 26.8 L2.05 26.3 1.85 25.7 Q1.85 24.9 2.9 25.0 3.95 25.1 3.95 26.0 L2.5 26.8 M-5.65 17.75 L-5.55 17.8 -5.45 18.2 -5.4 18.7 -5.0 19.55 -5.95 20.5 -6.8 21.2 -7.05 21.3 -7.15 21.3 Q-7.7 21.3 -8.25 20.7 L-8.7 19.95 -8.55 19.55 -8.6 19.5 -8.55 19.55 -8.45 19.35 -8.1 19.05 -7.1 18.25 -6.2 17.5 Q-5.65 17.05 -5.65 17.75 M-7.95 20.2 L-8.25 19.85 -7.95 20.3 -7.95 20.2 M-2.8 26.3 L-3.2 26.8 -4.5 26.15 Q-4.5 25.15 -3.5 25.15 -2.5 25.2 -2.5 25.65 L-2.8 26.3" fill="#000000" fill-rule="evenodd" stroke="none"/>
    </g>
    <g id="shape1">
      <path d="M1.25 -5.75 Q0.75 -6.15 -0.8 -6.75 -0.35 -6.25 -0.1 -4.85 L0.05 -2.6 0.2 -2.45 1.9 -3.85 Q1.9 -5.2 1.25 -5.75 M0.2 -1.85 L-0.05 -2.05 -0.1 -1.95 Q0.9 -1.7 0.9 0.2 0.9 3.45 -1.2 3.45 -3.15 3.45 -4.3 1.95 -5.3 3.55 -6.75 3.55 -8.2 3.55 -9.2 2.5 -9.95 1.65 -9.95 1.05 L-8.0 -2.25 Q-10.15 -2.25 -10.15 -4.9 -10.15 -6.1 -9.4 -6.5 L-6.6 -7.45 -6.3 -7.4 -6.3 -7.35 -3.35 -7.3 -2.95 -7.25 -2.25 -7.3 -1.8 -7.2 -1.45 -7.35 -1.55 -7.3 Q2.45 -6.8 2.45 -3.8 L1.55 -2.75 0.2 -1.85 M-3.9 -6.8 L-5.35 -6.85 Q-5.15 -4.65 -4.55 -3.55 -3.55 -5.45 -3.45 -6.85 L-3.9 -6.8 M-8.7 -6.25 Q-9.65 -5.95 -9.65 -4.95 -9.65 -2.9 -8.1 -2.9 L-7.95 -3.0 -8.0 -3.65 -7.55 -5.45 -7.6 -5.15 -7.5 -3.05 -7.45 -2.7 -7.45 -2.65 -7.4 -2.6 -6.8 -2.15 -7.1 -2.35 -7.15 -2.2 Q-7.4 -1.9 -6.1 -1.45 -5.95 -2.0 -5.35 -2.0 -4.6 -2.0 -4.35 -1.4 -3.8 -2.15 -2.85 -2.15 -2.55 -2.15 -2.4 -1.35 L-2.4 -1.3 Q-1.1 -1.65 -0.65 -2.55 -0.15 -3.65 -0.4 -5.5 -0.65 -7.4 -2.8 -6.95 L-4.45 -2.75 -4.65 -2.6 Q-5.55 -4.5 -5.55 -6.4 L-5.5 -6.85 Q-6.85 -6.95 -7.3 -6.2 L-7.0 -6.85 -8.7 -6.25 M-8.2 -1.0 Q-9.35 0.35 -9.35 1.05 L-8.6 2.15 Q-7.7 2.95 -6.8 2.95 -4.95 2.95 -4.25 0.55 -4.1 0.55 -3.7 1.7 -3.35 2.85 -1.2 2.85 0.3 2.85 0.3 0.25 L-0.65 -1.4 -2.4 -0.95 Q-2.6 -0.15 -3.5 -0.15 -4.35 -0.15 -4.3 -0.4 -4.6 -0.1 -5.15 -0.1 -6.1 -0.1 -6.15 -0.9 -6.7 -1.0 -6.9 -1.2 L-7.6 -1.65 -8.2 -1.0 M-5.65 -1.1 Q-5.65 -0.6 -5.15 -0.6 L-4.75 -0.7 -4.65 -0.7 Q-4.2 -0.7 -4.1 -0.85 -4.1 -0.45 -3.75 -0.45 -2.85 -0.45 -2.85 -1.2 -2.85 -1.6 -3.3 -1.6 -3.95 -1.6 -4.05 -1.05 L-4.1 -1.15 -4.55 -1.15 -4.65 -1.05 Q-4.65 -1.6 -5.25 -1.6 -5.65 -1.6 -5.65 -1.1" fill="#000000" fill-rule="evenodd" stroke="none"/>
      <path d="M-5.65 -1.1 Q-5.65 -1.6 -5.25 -1.6 -4.65 -1.6 -4.65 -1.05 L-4.55 -1.15 -4.1 -1.15 -4.05 -1.05 Q-3.95 -1.6 -3.3 -1.6 -2.85 -1.6 -2.85 -1.2 -2.85 -0.45 -3.75 -0.45 -4.1 -0.45 -4.1 -0.85 -4.2 -0.7 -4.65 -0.7 L-4.75 -0.7 -5.15 -0.6 Q-5.65 -0.6 -5.65 -1.1" fill="#ffffff" fill-rule="evenodd" stroke="none"/>
      <path d="M1.25 -5.75 Q1.9 -5.2 1.9 -3.85 L0.2 -2.45 0.05 -2.6 -0.1 -4.85 Q-0.35 -6.25 -0.8 -6.75 0.75 -6.15 1.25 -5.75 M-8.2 -1.0 L-7.6 -1.65 -6.9 -1.2 Q-6.7 -1.0 -6.15 -0.9 -6.1 -0.1 -5.15 -0.1 -4.6 -0.1 -4.3 -0.4 -4.35 -0.15 -3.5 -0.15 -2.6 -0.15 -2.4 -0.95 L-0.65 -1.4 0.3 0.25 Q0.3 2.85 -1.2 2.85 -3.35 2.85 -3.7 1.7 -4.1 0.55 -4.25 0.55 -4.95 2.95 -6.8 2.95 -7.7 2.95 -8.6 2.15 L-9.35 1.05 Q-9.35 0.35 -8.2 -1.0 M-8.7 -6.25 L-7.0 -6.85 -7.3 -6.2 Q-6.85 -6.95 -5.5 -6.85 L-5.55 -6.4 Q-5.55 -4.5 -4.65 -2.6 L-4.45 -2.75 -2.8 -6.95 Q-0.65 -7.4 -0.4 -5.5 -0.15 -3.65 -0.65 -2.55 -1.1 -1.65 -2.4 -1.3 L-2.4 -1.35 Q-2.55 -2.15 -2.85 -2.15 -3.8 -2.15 -4.35 -1.4 -4.6 -2.0 -5.35 -2.0 -5.95 -2.0 -6.1 -1.45 -7.4 -1.9 -7.15 -2.2 L-7.1 -2.35 -6.8 -2.15 -7.4 -2.6 -7.45 -2.65 -7.45 -2.7 -7.5 -3.05 -7.6 -5.15 -7.55 -5.45 -8.0 -3.65 -7.95 -3.0 -8.1 -2.9 Q-9.65 -2.9 -9.65 -4.95 -9.65 -5.95 -8.7 -6.25" fill="#cc0000" fill-rule="evenodd" stroke="none"/>
      <path d="M-0.3 -1.65 Q-0.3 -0.85 -1.95 -0.85 L-2.55 -1.0 -2.55 -1.25 -0.65 -1.9 -0.3 -1.65" fill="#ffffff" fill-rule="evenodd" stroke="none"/>
      <path d="M-6.8 -0.9 Q-8.05 -1.1 -7.95 -1.5 L-7.55 -1.9 Q-6.8 -1.25 -6.05 -1.25 L-5.9 -1.1 Q-5.65 -0.7 -6.8 -0.9" fill="#ffffff" fill-rule="evenodd" stroke="none"/>
      <path d="M-7.15 4.55 Q-6.3 5.1 -6.4 6.45 -6.5 7.8 -10.05 7.85 L-12.7 7.3 -13.45 6.6 Q-13.45 5.4 -11.5 4.55 -10.05 3.9 -9.0 3.95 -8.0 4.0 -7.15 4.55" fill="#000000" fill-rule="evenodd" stroke="none"/>
      <path d="M-7.75 4.45 L-7.3 4.35 Q-6.95 4.35 -6.95 4.55 -6.95 5.55 -8.2 5.55 -9.0 5.55 -9.0 5.15 L-8.6 4.0 -8.7 4.0 Q-8.6 3.85 -8.4 3.85 -8.7 4.45 -7.75 4.45" fill="#000000" fill-rule="evenodd" stroke="none"/>
      <path d="M3.9 7.15 Q2.9 7.65 1.3 7.7 -2.3 7.65 -2.4 6.3 -2.5 4.95 -1.65 4.4 -0.8 3.85 0.25 3.8 1.25 3.75 2.75 4.4 4.65 5.25 4.65 6.45 L3.9 7.15" fill="#000000" fill-rule="evenodd" stroke="none"/>
      <path d="M-1.05 4.3 L-1.5 4.2 Q-1.85 4.2 -1.85 4.4 -1.85 5.4 -0.6 5.4 0.2 5.4 0.2 5.0 L-0.2 3.85 -0.1 3.85 Q-0.2 3.7 -0.4 3.7 -0.1 4.3 -1.05 4.3" fill="#000000" fill-rule="evenodd" stroke="none"/>
      <path d="M-3.3 -6.2 L-4.2 -6.05 Q-5.15 -6.05 -5.55 -6.4 L-5.5 -6.45 -3.45 -6.3 -3.3 -6.2" fill="#000000" fill-rule="evenodd" stroke="none"/>
      <path d="M-3.4 -5.5 L-4.4 -5.25 -5.35 -5.45 -5.45 -5.5 -5.35 -5.6 -4.7 -5.45 Q-3.7 -5.45 -3.45 -5.7 L-3.4 -5.5" fill="#000000" fill-rule="evenodd" stroke="none"/>
      <path d="M-5.15 -4.45 L-4.8 -4.45 -3.8 -4.3 -4.3 -4.2 -5.15 -4.45" fill="#000000" fill-rule="evenodd" stroke="none"/>
      <path d="M3.35 -6.7 Q3.35 -4.4 -2.9 -3.35 L-5.65 -4.25 Q-8.0 -4.7 -8.2 -5.05 -8.55 -5.7 -9.4 -6.15 -10.05 -6.55 -10.05 -7.05 -10.05 -7.85 -9.15 -7.85 L-5.5 -7.55 1.45 -7.85 Q3.35 -7.85 3.35 -6.7" fill="#000000" fill-rule="evenodd" stroke="none"/>
      <path d="M5.1 -6.5 L9.7 -6.05 11.7 -5.25 Q13.5 -4.4 13.5 -4.0 13.5 -3.5 12.4 -3.5 L10.5 -2.75 Q9.85 -1.8 9.25 -1.8 8.5 -1.8 5.3 -4.35 3.85 -4.95 3.15 -5.55 2.6 -6.05 2.6 -6.75 2.6 -7.6 3.35 -7.6 3.7 -7.6 5.1 -6.5" fill="#000000" fill-rule="evenodd" stroke="none"/>
    </g>
    <g id="shape2">
      <path d="M8.1 21.1 Q8.1 19.65 9.9 20.35 11.65 21.0 11.65 22.35 11.3 23.45 10.45 23.45 9.3 23.45 8.6 22.4 8.1 21.6 8.1 21.1" fill="#666666" fill-rule="evenodd" stroke="none"/>
      <path d="M7.8 20.55 Q8.15 19.9 8.7 19.65 L10.25 19.95 11.55 21.15 Q12.05 21.8 12.05 22.35 L11.75 23.2 Q11.3 23.85 10.45 23.85 9.25 23.85 8.45 22.8 7.75 21.95 7.75 21.1 L7.8 20.55 M8.1 21.1 Q8.1 21.6 8.6 22.4 9.3 23.45 10.45 23.45 11.3 23.45 11.65 22.35 11.65 21.0 9.9 20.35 8.1 19.65 8.1 21.1" fill="#000000" fill-rule="evenodd" stroke="none"/>
      <path d="M-8.4 21.0 Q-8.4 19.55 -10.2 20.25 -11.95 20.9 -11.95 22.25 -11.6 23.35 -10.75 23.35 -9.6 23.35 -8.9 22.3 -8.4 21.5 -8.4 21.0" fill="#666666" fill-rule="evenodd" stroke="none"/>
      <path d="M-8.4 21.0 Q-8.4 21.5 -8.9 22.3 -9.6 23.35 -10.75 23.35 -11.6 23.35 -11.95 22.25 -11.95 20.9 -10.2 20.25 -8.4 19.55 -8.4 21.0 M-8.1 20.45 Q-8.45 19.8 -9.0 19.55 L-10.55 19.85 -11.85 21.05 Q-12.35 21.7 -12.35 22.25 L-12.05 23.1 Q-11.6 23.75 -10.75 23.75 -9.55 23.75 -8.75 22.7 -8.05 21.85 -8.05 21.0 L-8.1 20.45" fill="#000000" fill-rule="evenodd" stroke="none"/>
    </g>
  </defs>
</svg>
