<?xml version="1.0" encoding="UTF-8" standalone="no"?>
<svg xmlns:ffdec="https://www.free-decompiler.com/flash" xmlns:xlink="http://www.w3.org/1999/xlink" ffdec:objectType="frame" height="23.35px" width="43.55px" xmlns="http://www.w3.org/2000/svg">
  <g transform="matrix(1.0, 0.0, 0.0, 1.0, 12.8, -8.9)">
    <use ffdec:characterId="21" height="11.5" transform="matrix(1.0, 0.0, 0.0, 1.0, -12.8, 20.75)" width="13.75" xlink:href="#sprite0"/>
    <use ffdec:characterId="4" height="5.45" transform="matrix(1.0, 0.0, 0.0, 1.0, -9.6, 16.35)" width="6.95" xlink:href="#sprite1"/>
    <use ffdec:characterId="21" height="11.5" transform="matrix(-1.0, 0.0, 0.0, 1.0, 12.85, 20.75)" width="13.75" xlink:href="#sprite0"/>
    <use ffdec:characterId="4" height="5.45" transform="matrix(-1.0, 0.0, 0.0, 1.0, 9.65, 16.35)" width="6.95" xlink:href="#sprite1"/>
    <use ffdec:characterId="6" height="10.0" transform="matrix(1.0, 0.0, 0.0, 1.0, -6.75, 14.05)" width="13.25" xlink:href="#sprite2"/>
    <use ffdec:characterId="10" height="22.8" transform="matrix(1.0, 0.0, 0.0, 1.0, 10.8, 10.7)" width="19.95" xlink:href="#sprite3"/>
  </g>
  <defs>
    <g id="sprite0">
      <use ffdec:characterId="20" height="11.5" transform="matrix(1.0, 0.0, 0.0, 1.0, 0.0, 0.0)" width="13.75" xlink:href="#shape0"/>
    </g>
    <g id="shape0">
      <path d="M5.95 4.2 Q5.95 2.45 6.9 1.8 L7.15 1.5 Q8.0 0.45 9.5 0.15 L12.3 0.25 Q13.6 0.6 13.75 1.85 13.9 3.1 12.75 3.25 L11.85 3.8 11.95 4.05 11.9 4.15 12.0 4.6 11.55 5.45 11.05 6.1 11.15 6.2 Q12.0 6.3 11.5 6.95 L11.6 7.35 11.8 7.35 11.95 8.4 11.8 8.75 11.75 9.1 11.25 9.9 Q10.65 10.6 10.2 10.55 L10.0 10.5 8.7 10.65 6.85 10.45 6.8 10.45 6.1 10.0 Q6.1 9.8 6.5 9.7 6.15 9.3 6.3 8.75 6.45 8.1 7.5 8.85 8.5 9.55 8.65 8.75 8.75 7.9 9.35 9.05 L9.65 8.25 9.4 7.45 Q8.6 7.6 8.25 7.15 L9.2 6.05 8.1 5.4 7.3 4.85 Q6.65 4.35 5.95 4.2 M4.2 10.15 L4.05 10.15 3.55 10.1 2.45 9.75 2.25 9.6 Q0.75 9.85 0.9 8.8 L0.65 7.9 Q3.0 8.75 4.1 8.7 L5.85 8.35 5.8 9.9 4.2 10.15 M7.45 3.5 L7.35 3.8 7.4 4.05 7.8 4.2 8.05 4.1 8.15 3.85 8.0 3.5 7.7 3.4 Q7.5 3.4 7.45 3.5 M9.45 3.9 Q9.1 3.9 8.95 4.15 8.65 4.3 8.7 4.7 L9.05 5.25 9.65 5.4 10.1 5.15 10.3 4.7 10.0 4.15 9.45 3.9" fill="#add9fa" fill-rule="evenodd" stroke="none"/>
      <path d="M5.95 4.2 Q6.65 4.35 7.3 4.85 L8.1 5.4 9.2 6.05 8.25 7.15 Q8.6 7.6 9.4 7.45 L9.65 8.25 9.35 9.05 Q8.75 7.9 8.65 8.75 8.5 9.55 7.5 8.85 6.45 8.1 6.3 8.75 6.15 9.3 6.5 9.7 6.1 9.8 6.1 10.0 L6.8 10.45 4.2 10.15 5.8 9.9 5.85 8.35 4.1 8.7 Q3.0 8.75 0.65 7.9 0.55 7.05 1.0 6.5 L1.0 6.45 Q1.0 6.2 1.45 5.65 L1.95 5.0 3.05 4.4 3.8 4.05 4.6 3.95 4.95 4.0 5.95 4.2 M7.45 3.5 Q7.5 3.4 7.7 3.4 L8.0 3.5 8.15 3.85 8.05 4.1 7.8 4.2 7.4 4.05 7.35 3.8 7.45 3.5 M9.45 3.9 L10.0 4.15 10.3 4.7 10.1 5.15 9.65 5.4 9.05 5.25 8.7 4.7 Q8.65 4.3 8.95 4.15 9.1 3.9 9.45 3.9" fill="#ffffff" fill-rule="evenodd" stroke="none"/>
      <path d="M12.65 3.2 L12.7 4.1 12.55 5.1 11.9 6.0 12.7 8.25 Q12.7 9.2 12.15 9.9 L10.55 11.1 Q9.4 11.6 8.65 11.5 L7.45 11.15 6.7 10.8 5.2 10.65 4.7 10.85 3.95 11.0 Q3.15 10.9 2.65 10.35 2.6 10.3 1.45 9.8 L0.15 9.05 0.95 8.75 Q1.3 9.55 1.85 9.55 1.45 8.65 1.85 7.6 2.3 6.45 3.6 6.4 L4.4 6.45 3.5 7.05 Q2.8 7.3 2.6 8.35 2.45 9.4 2.7 9.6 3.0 10.0 4.25 10.1 L5.05 9.85 Q4.35 8.7 5.25 7.55 5.7 7.0 6.3 6.75 L7.5 7.3 6.6 7.65 Q5.7 8.0 5.9 8.95 L6.6 10.2 8.8 10.4 Q11.6 10.25 11.65 8.3 L11.15 6.35 10.75 5.75 11.0 5.55 11.25 5.45 Q11.8 5.05 11.8 4.4 11.5 3.9 11.55 3.65 11.5 3.45 12.65 3.2 M8.65 0.4 L9.0 0.7 7.55 1.15 6.55 2.15 6.25 3.05 6.3 3.4 6.0 3.7 Q5.7 3.75 5.4 2.95 L6.0 1.75 Q5.9 1.65 6.3 1.3 6.75 0.95 6.85 1.05 L7.65 0.3 8.65 0.4 M0.75 8.0 L0.9 8.25 0.8 8.5 0.45 8.6 0.2 8.55 0.0 8.25 0.15 8.0 0.45 7.9 0.75 8.0 M5.65 3.7 L6.95 4.3 8.5 5.2 5.5 4.45 Q4.55 4.1 3.05 4.75 2.5 5.0 1.6 6.2 L0.75 7.25 Q0.7 5.8 1.65 5.05 2.5 4.25 3.9 3.85 L5.65 3.7" fill="#071350" fill-rule="evenodd" stroke="none"/>
    </g>
    <g id="sprite1">
      <use ffdec:characterId="3" height="5.45" transform="matrix(1.0, 0.0, 0.0, 1.0, 0.0, 0.0)" width="6.95" xlink:href="#shape1"/>
    </g>
    <g id="shape1">
      <path d="M4.75 0.15 Q3.25 2.5 0.45 3.4 L0.65 3.45 0.15 3.65 0.0 3.55 3.15 1.1 4.75 0.15 M2.55 5.1 L6.75 1.7 Q5.8 3.6 4.4 4.5 L2.4 5.45 2.55 5.1" fill="#000000" fill-rule="evenodd" stroke="none"/>
      <path d="M0.65 3.45 L0.45 3.4 Q3.25 2.5 4.75 0.15 4.5 0.0 5.5 0.0 L6.85 0.1 6.95 0.75 6.75 1.7 2.55 5.1 Q2.55 4.4 2.0 3.95 1.45 3.45 0.65 3.45" fill="#ab0000" fill-rule="evenodd" stroke="none"/>
    </g>
    <g id="sprite2">
      <use ffdec:characterId="5" height="10.0" transform="matrix(1.0, 0.0, 0.0, 1.0, 0.0, 0.0)" width="13.25" xlink:href="#shape2"/>
    </g>
    <g id="shape2">
      <path d="M8.2 1.2 L9.0 1.25 9.65 1.4 9.8 1.75 9.4 2.05 7.65 1.95 7.8 1.55 8.05 1.3 8.2 1.2 M10.75 2.0 L10.15 2.55 9.55 2.55 9.7 2.35 10.75 2.0 M4.65 1.15 L5.1 1.95 4.6 1.95 3.6 1.85 3.45 1.7 3.5 1.35 4.65 1.15 M2.45 1.9 Q3.2 1.6 4.1 2.7 L1.9 2.4 2.45 1.9" fill="#ffb3f6" fill-rule="evenodd" stroke="none"/>
      <path d="M8.95 0.6 L9.95 0.35 10.95 1.25 12.15 2.55 Q11.25 3.4 9.95 3.25 L8.45 3.15 8.35 3.2 8.1 3.45 7.9 3.65 7.85 3.8 7.9 4.0 8.7 4.7 6.7 5.55 6.75 5.85 6.85 6.45 6.85 6.5 6.95 6.85 6.8 6.95 6.75 7.1 6.6 6.85 6.4 6.5 6.4 6.45 Q5.95 5.75 6.0 4.9 L6.0 4.75 6.0 4.25 6.1 3.6 6.5 3.05 Q6.95 2.3 7.35 1.85 L8.05 1.3 7.8 1.55 7.65 1.95 9.4 2.05 9.8 1.75 9.65 1.4 9.0 1.25 8.2 1.2 8.95 0.6 M5.85 3.4 Q5.6 4.1 5.5 4.95 L5.5 5.05 4.75 4.7 3.8 4.25 4.1 3.9 4.25 3.1 Q2.65 3.25 1.05 2.45 2.9 0.55 4.15 0.45 L4.4 0.8 4.55 1.0 4.65 1.15 3.5 1.35 3.45 1.7 3.6 1.85 4.6 1.95 5.1 1.95 5.5 2.6 5.6 2.9 5.85 3.4 M10.75 2.0 L9.7 2.35 9.55 2.55 10.15 2.55 10.75 2.0 M2.45 1.9 L1.9 2.4 4.1 2.7 Q3.2 1.6 2.45 1.9" fill="#ff4985" fill-rule="evenodd" stroke="none"/>
      <path d="M9.75 5.3 Q10.25 5.7 10.3 6.65 L10.4 7.1 9.8 7.95 9.8 8.0 8.45 9.55 7.1 7.65 6.8 7.45 6.7 7.2 6.75 7.1 6.8 6.95 6.95 6.85 7.05 6.85 7.05 7.05 7.65 7.3 8.25 7.05 8.5 6.5 8.25 5.95 Q8.1 5.8 7.8 5.75 L8.45 5.65 Q8.05 5.35 9.75 5.3 M6.2 6.75 L6.45 7.15 4.75 9.45 3.6 8.05 Q2.95 8.1 2.75 6.8 2.75 6.25 3.0 6.5 3.0 5.6 3.5 5.2 5.1 5.55 5.0 6.05 L4.95 6.85 6.2 6.75" fill="#de0f51" fill-rule="evenodd" stroke="none"/>
      <path d="M4.4 0.45 L5.35 0.6 7.35 0.6 9.4 0.3 9.2 0.35 7.25 1.4 7.0 1.65 6.85 1.85 6.45 2.0 6.05 1.85 5.9 1.65 5.6 1.8 Q5.4 1.8 5.25 1.6 L5.1 1.2 5.05 1.2 Q4.75 1.2 4.55 1.0 L4.4 0.8 4.35 0.55 4.4 0.45" fill="#ffffff" fill-rule="evenodd" stroke="none"/>
      <path d="M6.1 3.6 L5.85 3.4 5.6 2.9 5.5 2.6 5.2 2.0 4.65 1.15 4.55 1.0 Q4.75 1.2 5.05 1.2 L5.1 1.2 5.25 1.6 Q5.4 1.8 5.6 1.8 L5.9 1.65 6.05 1.85 6.45 2.0 6.85 1.85 7.0 1.65 7.25 1.4 9.2 0.35 8.95 0.6 8.2 1.2 8.05 1.3 7.35 1.85 Q6.95 2.3 6.5 3.05 L6.1 3.6" fill="#add9fa" fill-rule="evenodd" stroke="none"/>
      <path d="M8.1 3.45 L8.75 3.3 9.75 5.3 Q8.05 5.35 8.45 5.65 L7.8 5.75 Q8.1 5.8 8.25 5.95 L8.5 6.5 8.25 7.05 7.65 7.3 7.05 7.05 7.05 6.85 6.95 6.85 6.85 6.5 6.85 6.45 6.75 5.85 6.7 5.55 8.7 4.7 7.9 4.0 7.85 3.8 7.9 3.65 8.1 3.45 M5.5 4.95 Q5.6 5.8 6.15 6.7 L6.2 6.75 4.95 6.85 5.0 6.05 Q5.1 5.55 3.5 5.2 L3.85 4.55 4.75 4.7 5.5 5.05 5.5 4.95" fill="#510000" fill-rule="evenodd" stroke="none"/>
      <path d="M4.15 0.45 L4.2 0.35 4.4 0.45 4.35 0.55 4.4 0.8 4.15 0.45" fill="#8da4b6" fill-rule="evenodd" stroke="none"/>
      <path d="M11.9 2.25 L12.75 2.45 13.25 3.1 Q12.5 4.1 9.4 3.5 L8.75 3.3 8.1 3.45 8.2 3.35 8.35 3.2 8.45 3.15 9.95 3.25 Q11.25 3.4 12.15 2.55 L11.9 2.25 M2.95 4.85 L3.85 3.4 Q0.9 4.1 0.0 3.0 L0.25 2.65 Q0.7 2.35 1.25 2.2 L1.35 2.2 1.05 2.45 Q2.65 3.25 4.25 3.1 L4.1 3.9 3.8 4.25 4.75 4.7 3.85 4.55 3.65 5.0 2.95 4.85 M6.45 7.15 L6.0 6.55 5.5 5.45 Q5.25 4.75 5.45 4.4 L5.6 4.0 6.15 3.35 6.25 3.35 6.05 4.25 6.05 4.85 6.45 6.45 6.6 6.85 6.65 6.95 6.45 7.15" fill="#510000" fill-rule="evenodd" stroke="none"/>
      <path d="M11.9 2.25 L10.95 1.25 9.95 0.35 9.9 0.35 9.9 0.15 Q11.55 1.05 12.75 2.45 L11.9 2.25 M9.4 3.5 L10.25 4.95 10.95 6.6 10.45 7.8 Q10.0 8.75 9.15 9.45 L8.45 10.0 6.6 7.35 4.75 9.9 3.6 8.7 2.8 7.65 Q2.0 6.5 2.6 5.45 L2.95 4.85 3.65 5.0 3.5 5.2 3.15 5.85 Q2.75 6.85 3.35 7.65 L4.25 8.9 4.75 9.45 6.45 7.15 6.65 6.95 8.1 9.05 8.45 9.55 9.0 8.95 9.95 7.7 Q10.5 6.85 10.1 6.0 L9.75 5.3 8.75 3.3 9.4 3.5 M0.25 2.65 Q1.5 1.05 3.35 0.0 L4.5 0.35 4.5 0.45 Q3.25 0.3 1.35 2.2 L1.25 2.2 Q0.7 2.35 0.25 2.65 M5.6 4.0 L5.6 3.95 4.4 0.9 4.3 0.8 4.3 0.65 5.45 2.25 6.0 3.2 6.15 3.35 5.6 4.0 M9.75 0.6 Q9.3 0.7 8.7 1.1 7.6 1.65 6.75 2.8 L6.55 2.7 Q6.4 2.6 6.95 1.75 7.45 0.9 8.65 0.5 L9.85 0.2 9.75 0.6" fill="#000000" fill-rule="evenodd" stroke="none"/>
    </g>
    <g id="sprite3">
      <use ffdec:characterId="9" height="22.8" transform="matrix(1.0, 0.0, 0.0, 1.0, 0.0, 0.0)" width="19.95" xlink:href="#shape3"/>
    </g>
    <g id="shape3">
      <path d="M0.15 11.05 L0.45 10.85 Q0.45 10.7 0.7 10.65 L0.8 11.0 Q0.7 13.2 2.3 15.85 L3.95 17.6 Q4.5 18.05 5.7 18.7 5.3 19.65 6.35 20.15 L7.55 20.65 7.0 20.8 6.7 20.7 Q6.6 20.3 6.1 20.3 L5.2 20.25 4.95 20.15 Q1.95 18.75 0.95 15.75 -0.1 12.75 0.15 11.05 M12.2 1.8 L12.35 2.2 12.2 2.65 11.85 2.95 Q11.4 2.95 11.4 2.6 L11.6 2.1 11.65 2.05 11.9 1.85 12.2 1.8 M13.25 2.5 Q13.75 2.5 13.75 3.05 L13.55 3.45 13.1 3.8 13.05 3.8 12.8 3.8 12.7 3.5 12.55 3.55 Q12.1 3.55 12.1 3.2 L12.15 3.15 12.2 2.95 12.45 2.5 Q12.75 2.25 12.75 2.65 L12.7 2.85 12.75 3.15 12.85 2.85 13.25 2.5" fill="#b55d00" fill-rule="evenodd" stroke="none"/>
      <path d="M14.95 2.3 L14.75 3.0 13.65 4.4 14.0 4.75 Q13.85 3.1 15.15 5.05 16.4 6.95 17.0 8.95 L16.9 8.95 16.85 8.6 Q16.65 8.25 16.0 8.25 15.0 8.25 14.95 9.05 L14.05 7.1 Q13.0 5.1 11.95 4.25 L9.8 3.45 Q6.05 3.45 3.45 5.65 0.8 7.85 0.8 11.0 L0.7 10.65 Q0.45 10.7 0.45 10.85 L0.15 11.05 Q0.15 7.45 2.6 4.95 5.0 2.4 8.45 2.4 L9.85 2.55 10.9 2.8 11.05 2.55 11.85 0.1 Q12.4 0.2 13.5 0.95 L12.5 0.5 11.95 0.8 12.9 2.05 Q13.65 2.75 14.95 2.3 M13.25 2.5 L12.85 2.85 12.75 3.15 12.7 2.85 12.75 2.65 Q12.75 2.25 12.45 2.5 L12.2 2.95 12.15 3.15 12.1 3.2 Q12.1 3.55 12.55 3.55 L12.7 3.5 12.8 3.8 13.05 3.8 13.1 3.8 13.55 3.45 13.75 3.05 Q13.75 2.5 13.25 2.5 M11.65 2.05 L11.6 2.1 11.4 2.6 Q11.4 2.95 11.85 2.95 L12.2 2.65 12.35 2.2 12.2 1.8 12.45 1.75 11.9 1.2 11.65 2.05" fill="#ff9f26" fill-rule="evenodd" stroke="none"/>
      <path d="M14.95 2.3 Q13.65 2.75 12.9 2.05 L11.95 0.8 12.5 0.5 13.5 0.95 14.95 2.25 14.95 2.3 M0.8 11.0 Q0.8 7.85 3.45 5.65 6.05 3.45 9.8 3.45 7.8 3.7 6.0 4.75 4.8 4.95 4.35 5.6 L3.4 6.8 Q1.45 8.95 1.45 11.7 1.45 13.4 2.45 15.35 L2.3 15.85 Q0.7 13.2 0.8 11.0 M11.95 4.25 Q13.0 5.1 14.05 7.1 L14.95 9.05 Q15.0 8.25 16.0 8.25 16.65 8.25 16.85 8.6 L16.9 8.95 Q17.3 10.35 16.75 13.1 16.15 16.4 14.5 17.55 14.15 17.2 14.05 17.25 L14.0 16.35 Q13.65 16.5 11.0 18.2 8.05 19.65 5.7 18.7 4.5 18.05 3.95 17.6 5.45 18.4 7.2 18.4 10.05 18.4 12.15 16.35 14.45 14.1 14.45 10.4 14.45 9.0 13.95 7.45 13.25 5.4 11.95 4.25 M13.25 18.45 L13.2 18.45 Q12.9 18.85 12.55 18.85 L12.0 18.35 Q12.0 17.9 12.75 17.55 13.45 17.25 13.45 17.95 L13.25 18.45 M13.15 8.3 Q13.65 10.5 12.45 12.7 11.3 14.9 9.2 15.8 L5.3 15.7 Q3.45 14.75 3.0 12.55 2.5 10.3 3.65 8.1 4.85 5.9 6.95 5.05 9.0 4.15 10.85 5.1 12.7 6.1 13.15 8.3" fill="#ffffff" fill-rule="evenodd" stroke="none"/>
      <path d="M12.2 1.8 L11.9 1.85 11.65 2.05 11.9 1.2 12.45 1.75 12.2 1.8" fill="#281300" fill-rule="evenodd" stroke="none"/>
      <path d="M9.8 3.45 L11.95 4.25 Q13.25 5.4 13.95 7.45 14.45 9.0 14.45 10.4 14.45 14.1 12.15 16.35 10.05 18.4 7.2 18.4 5.45 18.4 3.95 17.6 L2.3 15.85 2.45 15.35 Q1.45 13.4 1.45 11.7 1.45 8.95 3.4 6.8 2.25 8.2 1.8 10.0 1.05 13.1 3.2 15.45 5.35 17.75 8.25 16.95 11.2 16.0 12.6 13.2 13.5 11.4 13.45 9.55 L13.15 7.45 12.7 6.45 Q11.9 5.1 10.5 4.5 L9.9 4.3 8.45 4.15 Q7.2 4.15 6.0 4.75 7.8 3.7 9.8 3.45" fill="#cb5700" fill-rule="evenodd" stroke="none"/>
      <path d="M6.0 4.75 Q7.2 4.15 8.45 4.15 L9.9 4.3 10.5 4.5 Q11.9 5.1 12.7 6.45 L13.15 7.45 13.45 9.55 Q13.5 11.4 12.6 13.2 11.2 16.0 8.25 16.95 5.35 17.75 3.2 15.45 1.05 13.1 1.8 10.0 2.25 8.2 3.4 6.8 L4.35 5.6 Q4.8 4.95 6.0 4.75 M13.15 8.3 Q12.7 6.1 10.85 5.1 9.0 4.15 6.95 5.05 4.85 5.9 3.65 8.1 2.5 10.3 3.0 12.55 3.45 14.75 5.3 15.7 L9.2 15.8 Q11.3 14.9 12.45 12.7 13.65 10.5 13.15 8.3" fill="#a6afae" fill-rule="evenodd" stroke="none"/>
      <path d="M14.5 17.55 L13.25 18.45 13.45 17.95 Q13.45 17.25 12.75 17.55 12.0 17.9 12.0 18.35 L12.55 18.85 Q10.3 20.2 8.45 20.5 L7.55 20.65 6.35 20.15 Q5.3 19.65 5.7 18.7 8.05 19.65 11.0 18.2 13.65 16.5 14.0 16.35 L14.05 17.25 Q14.15 17.2 14.5 17.55" fill="#ffba00" fill-rule="evenodd" stroke="none"/>
      <path d="M7.0 20.8 L6.7 20.85 6.7 20.7 7.0 20.8" fill="#ffc800" fill-rule="evenodd" stroke="none"/>
      <path d="M8.8 6.55 L8.05 6.05 10.35 4.9 10.05 7.45 9.25 6.85 8.8 6.55 M6.85 10.3 L6.9 10.35 7.2 11.0 7.15 11.25 6.9 11.6 6.85 11.7 6.3 11.9 5.65 11.6 5.4 11.0 Q5.4 10.65 5.65 10.35 L6.3 10.1 6.35 10.1 6.85 10.3 M9.1 11.75 L9.35 10.85 11.25 12.65 8.75 13.2 9.05 12.2 9.1 11.75" fill="#000000" fill-rule="evenodd" stroke="none"/>
      <path d="M8.8 6.55 L9.25 6.85 6.85 10.3 6.35 10.1 8.8 6.55 M7.15 11.25 L9.1 11.75 9.05 12.2 6.85 11.7 6.9 11.6 7.15 11.25" fill="#091e34" fill-rule="evenodd" stroke="none"/>
      <path d="M12.1 5.6 L11.0 4.75 Q10.3 4.3 9.45 4.2 6.5 3.8 4.3 5.9 2.2 7.9 1.55 10.7 1.75 8.7 2.95 6.75 4.15 4.75 6.45 3.9 L10.3 3.75 11.55 4.75 12.1 5.6 M10.55 1.95 Q10.95 0.75 11.95 0.05 L11.2 2.35 11.95 3.4 10.4 2.55 10.55 1.95 M13.65 4.5 L13.6 4.5 13.65 4.4 13.8 4.2 14.9 2.25 Q13.75 0.8 12.1 0.0 13.85 0.1 14.95 1.6 L15.35 2.3 14.2 4.2 13.95 4.75 13.75 4.55 13.65 4.5 M3.75 16.25 L5.0 16.75 Q7.6 17.6 10.0 16.0 12.2 14.55 13.3 11.6 13.2 15.35 10.0 17.0 6.85 18.6 3.75 16.25 M0.75 7.65 Q1.65 4.85 4.5 3.15 7.3 1.45 10.7 2.75 L7.3 2.6 Q5.15 2.8 3.2 4.85 1.2 6.85 0.85 8.55 L0.35 10.95 0.25 12.45 Q0.25 13.35 0.05 11.9 -0.2 10.45 0.75 7.65 M16.7 9.25 Q16.7 6.8 14.6 4.5 16.6 6.0 17.1 8.6 17.5 11.1 16.95 13.6 16.4 16.1 14.8 17.9 13.2 19.7 10.7 20.55 L5.95 20.7 Q3.55 19.95 2.5 18.45 4.5 20.05 6.2 20.35 L10.05 20.1 Q12.1 19.55 13.8 17.85 15.45 16.1 16.05 13.85 16.65 11.6 16.7 9.25" fill="#000000" fill-rule="evenodd" stroke="none"/>
      <path d="M9.4 2.1 L9.25 1.7 9.5 1.5 Q9.5 1.15 9.95 0.75 L10.9 -0.05 10.95 -0.2 11.7 -0.85 11.85 -1.0 12.3 -1.25 13.35 -1.75 13.5 -1.75 15.05 -1.8 15.8 -1.7 16.65 -1.6 16.65 -1.55 16.9 -1.5 17.4 -1.15 18.55 -0.55 19.05 0.1 19.35 0.45 19.65 0.55 19.9 2.2 Q19.75 2.5 19.75 2.85 L19.75 3.3 18.6 5.5 Q17.6 5.95 17.25 6.25 L16.75 6.35 16.5 6.35 Q15.25 6.35 14.65 5.25 L15.2 4.75 Q16.95 3.05 17.45 3.0 L18.5 1.85 18.3 1.65 18.3 1.55 Q18.3 1.0 17.55 0.75 L17.45 0.75 17.1 0.45 15.25 -0.35 13.95 -0.9 13.7 -0.9 13.35 -0.65 13.45 -0.9 Q11.35 -0.5 9.85 1.45 L9.4 2.1 M19.4 3.05 Q19.3 2.7 18.95 2.7 18.45 2.7 17.5 3.6 16.55 4.5 16.55 5.05 16.45 5.7 17.3 5.7 18.15 5.7 18.85 4.75 19.45 3.9 19.45 3.35 L19.4 3.05" fill="#ffba00" fill-rule="evenodd" stroke="none"/>
      <path d="M9.4 2.1 L9.85 1.45 Q11.35 -0.5 13.45 -0.9 L13.35 -0.65 13.05 -0.35 12.85 0.1 12.7 0.15 12.4 0.1 Q12.2 0.1 12.1 0.2 11.85 0.0 11.55 0.4 L11.35 1.05 11.2 1.45 10.7 2.7 10.25 2.65 9.5 2.45 9.4 2.1" fill="#b55d00" fill-rule="evenodd" stroke="none"/>
      <path d="M19.65 0.55 L19.35 0.45 19.05 0.1 18.55 -0.55 19.2 -0.15 19.65 0.55 M19.4 3.05 L19.45 3.35 Q19.45 3.9 18.85 4.75 18.15 5.7 17.3 5.7 16.45 5.7 16.55 5.05 16.55 4.5 17.5 3.6 18.45 2.7 18.95 2.7 19.3 2.7 19.4 3.05" fill="#ffffff" fill-rule="evenodd" stroke="none"/>
      <path d="M15.2 4.75 L14.65 5.25 Q15.25 6.35 16.5 6.35 L16.75 6.35 Q15.45 6.8 15.0 6.05 14.65 5.7 14.6 5.25 L15.2 4.75" fill="#aa7800" fill-rule="evenodd" stroke="none"/>
      <path d="M9.05 1.35 L9.15 1.25 Q10.4 -0.55 12.4 -1.35 L9.45 1.3 9.35 2.1 9.05 1.35 M18.7 -0.05 Q16.65 -1.65 14.2 -1.75 L14.65 -1.8 Q17.65 -1.85 19.8 0.2 20.2 2.3 19.45 4.3 L18.8 5.3 Q17.2 6.85 14.75 6.4 L13.9 5.2 14.45 4.3 15.25 3.95 Q17.15 3.15 18.25 1.35 L17.45 0.75 Q15.6 -0.45 13.45 -0.7 L12.7 0.2 12.6 0.05 13.7 -0.95 14.7 -0.85 Q17.2 -0.25 18.9 1.7 L18.3 2.2 14.85 5.0 15.55 6.0 17.1 5.9 Q19.75 5.05 19.75 2.2 19.75 0.8 18.7 -0.05" fill="#000000" fill-rule="evenodd" stroke="none"/>
    </g>
  </defs>
</svg>
