<?xml version="1.0" encoding="UTF-8" standalone="no"?>
<svg xmlns:ffdec="https://www.free-decompiler.com/flash" xmlns:xlink="http://www.w3.org/1999/xlink" ffdec:objectType="frame" height="15.75px" width="21.7px" xmlns="http://www.w3.org/2000/svg">
  <g transform="matrix(1.0, 0.0, 0.0, 1.0, 10.3, -14.35)">
    <use ffdec:characterId="3" height="15.75" transform="matrix(1.0, 0.0, 0.0, 1.0, 0.0, 0.0)" width="21.7" xlink:href="#shape0"/>
  </g>
  <defs>
    <g id="shape0">
      <path d="M1.1 20.45 L1.35 20.4 Q1.65 20.4 1.95 20.65 L1.1 20.45" fill="#333333" fill-rule="evenodd" stroke="none"/>
      <path d="M-1.75 28.2 Q-1.75 30.0 -5.95 30.0 -9.85 30.0 -9.85 28.55 L-9.7 27.75 Q-9.1 26.1 -5.8 26.05 -3.8 26.0 -2.75 26.55 -1.75 27.05 -1.75 28.2" fill="#000000" fill-rule="evenodd" stroke="none"/>
      <path d="M-6.2 26.6 L-6.65 26.7 Q-7.0 26.75 -7.15 26.95 L-7.6 27.45 -8.2 28.0 -8.75 28.3 Q-9.3 28.3 -9.3 27.7 -9.3 27.2 -8.6 26.85 -7.9 26.5 -6.95 26.5 L-6.2 26.6" fill="#666666" fill-rule="evenodd" stroke="none"/>
      <path d="M-8.5 28.85 L-8.8 29.05 -9.15 28.8 Q-9.15 28.65 -8.7 28.65 L-8.5 28.85" fill="#666666" fill-rule="evenodd" stroke="none"/>
      <path d="M2.0 28.3 Q2.0 30.1 6.2 30.1 10.1 30.1 10.1 28.65 L9.95 27.85 Q9.35 26.2 6.05 26.15 4.05 26.1 3.0 26.65 2.0 27.15 2.0 28.3" fill="#000000" fill-rule="evenodd" stroke="none"/>
      <path d="M6.45 26.7 L6.9 26.8 Q7.25 26.85 7.4 27.05 L7.85 27.55 8.45 28.1 9.0 28.4 Q9.55 28.4 9.55 27.8 9.55 27.3 8.85 26.95 L7.2 26.6 6.45 26.7" fill="#666666" fill-rule="evenodd" stroke="none"/>
      <path d="M8.75 28.95 L9.05 29.15 9.4 28.9 8.95 28.75 8.75 28.95" fill="#666666" fill-rule="evenodd" stroke="none"/>
      <path d="M-3.7 22.75 L-3.7 22.65 -3.65 22.75 -3.7 22.75" fill="#333333" fill-rule="evenodd" stroke="none"/>
      <path d="M4.85 24.85 L4.95 25.05 5.95 25.75 6.45 26.3 6.35 26.3 Q5.15 27.2 4.1 27.3 L2.85 27.25 2.2 25.6 Q1.75 24.6 2.05 23.9 L4.3 26.25 3.75 25.3 Q2.8 24.15 2.75 23.25 L3.7 24.05 4.85 24.85 M-6.35 26.8 Q-5.05 25.7 -4.15 23.65 L-3.85 23.2 -3.7 22.75 -3.65 22.75 Q-3.15 24.35 -3.65 26.0 L-2.7 23.7 -2.15 24.25 Q-2.55 25.85 -3.4 27.55 L-3.5 27.55 Q-5.15 27.6 -6.35 26.8" fill="#cccccc" fill-rule="evenodd" stroke="none"/>
      <path d="M-3.7 22.65 L-3.65 21.9 -3.05 21.15 -2.1 20.5 -1.4 20.65 1.1 20.45 1.95 20.65 3.0 21.8 4.0 23.5 4.85 24.85 3.7 24.05 2.75 23.25 Q2.8 24.15 3.75 25.3 L4.3 26.25 2.05 23.9 Q1.75 24.6 2.2 25.6 L2.85 27.25 4.1 27.3 Q5.15 27.2 6.35 26.3 L6.45 26.3 6.45 26.45 5.45 27.75 Q4.3 28.85 3.6 28.85 L2.55 28.8 2.15 28.45 2.05 27.7 1.45 26.3 0.55 24.7 -0.35 23.7 Q-0.75 23.7 -1.0 24.95 L-1.3 26.45 -1.55 27.95 Q-1.55 28.3 -2.05 28.65 -2.6 29.05 -3.0 29.05 -3.45 29.05 -5.0 28.05 -6.45 27.25 -6.45 26.85 L-6.35 26.8 Q-5.15 27.6 -3.5 27.55 L-3.4 27.55 Q-2.55 25.85 -2.15 24.25 L-2.7 23.7 -3.65 26.0 Q-3.15 24.35 -3.65 22.75 L-3.7 22.65" fill="#999999" fill-rule="evenodd" stroke="none"/>
      <path d="M-8.95 18.3 L-8.6 18.05 -8.5 18.0 -6.95 16.9 -6.0 16.25 Q-4.75 15.45 -5.0 15.15 -5.25 14.85 -4.95 14.7 L-3.45 14.45 -2.1 14.4 1.8 14.45 3.25 14.45 4.45 14.35 Q5.85 14.25 5.8 14.85 L5.9 15.6 6.75 16.6 7.65 17.25 9.4 18.3 9.65 18.7 9.75 18.8 Q8.9 19.75 7.35 19.75 L3.15 16.15 Q2.3 18.6 2.15 21.5 L1.05 22.35 -0.55 21.4 -1.3 22.9 -3.0 22.1 Q-2.65 19.3 -3.1 17.1 L-3.4 16.15 -4.8 18.95 -6.9 19.5 -6.95 19.6 -6.9 19.7 -9.25 18.8 -8.95 18.3" fill="#cccccc" fill-rule="evenodd" stroke="none"/>
      <path d="M9.4 18.3 L9.6 18.45 11.25 19.95 10.6 20.3 8.95 20.8 7.2 21.65 Q6.55 21.65 3.75 19.2 L3.75 19.6 Q3.75 20.3 4.8 22.35 4.3 22.3 0.95 23.75 0.3 24.05 0.15 23.35 -0.05 22.6 -0.45 22.4 L-0.6 23.15 Q-0.65 23.6 -1.0 23.85 L-2.5 23.6 Q-3.65 23.15 -4.05 23.15 L-4.45 22.9 -4.05 20.6 -3.7 19.05 -5.3 20.7 -5.8 21.85 Q-6.05 22.55 -6.6 22.55 L-7.5 21.8 -8.0 20.85 Q-8.35 20.15 -9.0 19.95 L-9.05 19.9 -9.45 19.8 Q-10.3 19.65 -10.3 19.3 -10.3 18.8 -9.95 18.7 L-8.95 18.3 -9.25 18.8 -6.9 19.7 -6.95 19.6 -6.9 19.5 -4.8 18.95 -3.4 16.15 -3.1 17.1 Q-2.65 19.3 -3.0 22.1 L-1.3 22.9 -0.55 21.4 1.05 22.35 2.15 21.5 Q2.3 18.6 3.15 16.15 L7.35 19.75 Q8.9 19.75 9.75 18.8 L9.65 18.7 9.4 18.3" fill="#999999" fill-rule="evenodd" stroke="none"/>
      <path d="M1.2 18.95 Q0.65 20.3 0.05 20.6 -0.6 20.9 -1.25 19.3 L-2.15 16.55 -2.4 15.0 Q-2.5 14.6 -0.35 14.65 1.75 14.65 2.0 15.0 2.25 15.3 2.0 16.45 L1.2 18.95" fill="#ffffff" fill-rule="evenodd" stroke="none"/>
      <path d="M0.35 15.65 L-0.1 16.1 Q-0.6 16.1 -1.0 14.85 L-0.9 14.6 -0.4 14.65 0.3 14.55 0.55 14.8 0.35 15.65" fill="#000000" fill-rule="evenodd" stroke="none"/>
      <path d="M0.85 18.95 L0.45 19.9 -0.2 20.55 -0.6 20.05 Q-0.9 19.55 -0.75 18.75 L-0.55 17.2 -0.3 15.9 Q-0.15 15.35 -0.1 15.75 L0.4 17.45 0.85 18.95" fill="#000000" fill-rule="evenodd" stroke="none"/>
      <path d="M5.7 16.1 L5.5 15.3 4.95 14.8 4.95 14.55 6.1 14.6 6.15 15.55 7.6 17.1 9.75 18.3 Q11.4 19.3 11.4 19.9 L11.4 20.1 11.4 20.2 Q11.4 20.5 10.05 20.7 L7.5 21.65 7.2 21.75 Q6.5 21.75 5.0 20.5 L3.95 19.5 4.0 20.45 4.4 21.2 4.8 22.1 4.1 22.65 4.55 23.95 5.05 24.85 Q5.2 25.15 5.85 25.3 6.6 25.45 6.8 25.65 L6.95 26.1 6.9 26.45 Q6.85 26.15 6.45 26.15 L5.15 25.5 4.55 24.7 Q3.35 23.2 3.6 22.8 L3.2 22.9 1.1 23.75 0.2 23.0 -0.2 23.65 Q0.15 23.65 1.55 25.7 L2.05 26.75 2.6 27.6 2.5 27.95 2.55 28.2 2.25 28.1 2.2 28.2 Q2.2 28.7 2.95 28.7 3.85 28.7 5.25 27.7 L6.1 26.8 Q6.6 26.3 6.6 26.85 6.6 27.2 5.45 28.15 4.1 29.25 2.95 29.25 1.75 29.25 1.75 28.4 L1.95 27.8 1.75 27.1 1.1 25.95 -0.35 23.8 -0.55 23.9 -1.0 26.35 -1.3 27.85 Q-1.15 27.9 -1.15 28.1 -1.15 28.4 -1.5 28.75 -1.9 29.2 -2.6 29.2 -3.3 29.2 -5.0 28.25 L-6.4 27.0 -6.5 27.1 -6.6 27.05 Q-6.6 26.6 -6.0 25.9 L-5.1 24.9 -4.15 23.4 Q-4.6 23.25 -4.6 22.7 L-4.15 20.9 Q-3.75 19.85 -3.7 19.25 L-5.4 20.75 -5.75 21.75 Q-6.05 22.6 -6.45 22.6 L-7.3 21.85 -8.0 20.75 Q-8.35 20.2 -9.4 19.75 L-10.3 19.2 -8.1 17.55 -5.0 15.25 -5.2 14.85 -5.0 14.5 Q-4.55 14.95 -4.55 15.3 -4.55 15.8 -9.75 19.1 -8.25 19.6 -7.6 20.45 L-6.5 21.95 -6.45 21.95 Q-6.1 20.75 -5.55 20.1 -4.05 18.45 -3.5 18.45 -3.3 18.45 -3.3 18.6 L-3.3 18.7 -3.4 18.95 -3.3 19.2 -3.35 19.7 -4.05 22.65 -3.75 22.75 Q-2.0 23.35 -1.0 23.35 -0.7 23.35 -0.45 22.85 L-0.3 22.55 -0.35 22.5 -0.05 22.25 Q0.35 22.25 0.65 22.75 L1.2 23.2 1.95 22.95 2.7 22.55 4.2 22.0 3.4 20.25 3.4 19.0 3.2 18.85 3.25 18.65 3.55 18.65 7.2 21.25 Q7.55 20.95 8.65 20.65 L10.8 20.15 10.2 19.65 9.3 18.8 7.35 17.6 5.7 16.1 M-3.9 23.4 L-4.55 24.85 -6.0 26.8 Q-6.25 26.85 -6.35 26.95 L-6.3 26.95 Q-4.25 28.65 -2.7 28.65 -2.3 28.65 -1.9 28.25 L-1.7 28.05 -1.7 28.0 -1.8 27.65 -1.65 26.95 -1.4 25.8 -1.15 24.55 -1.0 23.95 -2.5 23.7 -3.85 23.4 -3.9 23.4" fill="#000000" fill-rule="evenodd" stroke="none"/>
    </g>
  </defs>
</svg>
