<?xml version="1.0" encoding="UTF-8" standalone="no"?>
<svg xmlns:ffdec="https://www.free-decompiler.com/flash" xmlns:xlink="http://www.w3.org/1999/xlink" ffdec:objectType="frame" height="16.65px" width="20.5px" xmlns="http://www.w3.org/2000/svg">
  <g transform="matrix(1.0, 0.0, 0.0, 1.0, 10.15, -14.4)">
    <use ffdec:characterId="3" height="16.65" transform="matrix(1.0, 0.0, 0.0, 1.0, 0.0, 0.0)" width="20.5" xlink:href="#shape0"/>
  </g>
  <defs>
    <g id="shape0">
      <path d="M-4.1 24.75 L-4.15 24.3 Q-4.15 23.65 -3.8 23.45 L-4.05 22.85 -3.65 22.5 Q-3.2 22.35 -3.05 21.9 L-2.95 20.8 -2.9 18.65 -2.7 16.25 Q-2.6 15.2 -2.15 14.75 L-1.05 14.8 -0.95 14.8 Q-0.6 15.25 -0.2 16.4 L-0.15 16.45 0.15 15.05 0.35 14.8 2.05 14.7 Q2.8 16.05 3.4 20.25 L3.05 22.75 Q3.05 23.45 3.45 23.95 L3.85 24.75 3.3 25.05 2.55 25.0 Q1.9 24.55 1.65 23.8 L0.6 20.9 Q0.2 20.95 0.0 21.15 -0.8 21.7 -1.65 21.8 -1.25 22.05 -1.3 22.55 -1.55 24.7 -3.95 24.9 L-4.1 24.75" fill="#333333" fill-rule="evenodd" stroke="none"/>
      <path d="M-4.1 24.75 L-3.95 24.9 Q-1.55 24.7 -1.3 22.55 -1.25 22.05 -1.65 21.8 -0.8 21.7 0.0 21.15 0.2 20.95 0.6 20.9 L1.65 23.8 Q1.9 24.55 2.55 25.0 L3.3 25.05 3.85 24.75 3.85 24.9 Q3.85 25.9 2.4 25.9 1.7 25.9 1.05 24.5 0.35 23.1 -0.45 23.1 -0.65 23.1 -1.45 24.55 -2.3 26.0 -2.75 26.0 -3.75 26.0 -4.05 25.2 L-4.1 24.75" fill="#000000" fill-rule="evenodd" stroke="none"/>
      <path d="M8.85 29.3 Q8.2 30.0 6.25 30.0 3.55 30.0 2.35 29.1 1.6 28.5 1.6 27.8 1.6 26.95 2.3 26.45 3.5 25.6 6.35 26.1 9.15 26.9 9.15 28.3 L8.85 29.3" fill="#000000" fill-rule="evenodd" stroke="none"/>
      <path d="M-2.3 29.35 Q-3.3 30.25 -6.0 30.25 -8.1 30.25 -9.05 29.55 -9.6 29.15 -9.6 28.7 -9.6 28.0 -8.65 27.05 -7.4 25.85 -5.6 25.85 -1.7 25.85 -1.7 27.8 -1.7 28.8 -2.3 29.35" fill="#000000" fill-rule="evenodd" stroke="none"/>
      <path d="M3.55 22.55 L3.65 23.3 3.45 23.35 2.15 23.7 2.25 22.6 1.3 14.75 2.35 14.65 2.4 14.6 2.5 14.6 3.55 22.55 M-2.85 14.85 L-2.7 14.8 -2.35 14.8 -1.9 14.75 -1.85 14.75 -2.1 23.75 -2.35 23.7 -3.05 23.5 -3.15 23.45 -3.1 22.5 -3.0 20.0 -3.0 19.45 -2.85 14.85" fill="#000000" fill-rule="evenodd" stroke="none"/>
      <path d="M4.05 14.7 L4.0 14.8 7.55 18.55 5.65 20.45 4.6 18.8 4.65 16.9 4.0 18.5 3.15 17.85 3.25 18.25 Q3.85 19.85 4.05 22.45 3.55 21.9 3.75 22.5 L3.55 22.55 2.5 14.6 2.8 14.6 3.15 14.55 3.65 14.5 3.7 14.5 4.05 14.7 M-2.85 14.85 L-3.0 19.45 -3.55 19.9 -4.25 18.2 -4.25 20.2 -5.05 21.3 -7.7 19.45 -3.65 15.15 -3.2 14.95 -2.85 14.85 M-3.0 20.0 L-3.1 22.5 -3.3 22.45 Q-3.4 21.45 -3.0 20.0" fill="#ff6699" fill-rule="evenodd" stroke="none"/>
      <path d="M4.05 14.7 Q4.4 14.85 4.75 15.15 L5.25 15.55 9.0 18.6 7.55 20.45 5.8 21.8 5.1 22.25 5.1 22.3 4.45 21.05 4.8 22.3 Q4.95 23.1 5.15 23.15 L3.65 23.3 3.55 22.55 3.75 22.5 Q3.55 21.9 4.05 22.45 3.85 19.85 3.25 18.25 L3.15 17.85 4.0 18.5 4.65 16.9 4.6 18.8 5.65 20.45 7.55 18.55 4.0 14.8 4.05 14.7 M-3.0 19.45 L-3.0 20.0 Q-3.4 21.45 -3.3 22.45 L-3.1 22.5 -3.15 23.45 -3.45 23.35 -3.55 23.3 -4.55 23.15 -4.1 21.35 -5.05 22.35 Q-5.5 22.3 -6.75 21.35 L-8.85 19.35 -7.95 18.8 -5.95 17.0 -4.5 15.75 -4.05 15.35 -4.0 15.3 -3.95 15.3 -3.65 15.15 -7.7 19.45 -5.05 21.3 -4.25 20.2 -4.25 18.2 -3.55 19.9 -3.0 19.45" fill="#ec0260" fill-rule="evenodd" stroke="none"/>
      <path d="M-3.9 25.15 Q-3.3 25.15 -2.35 25.75 L-1.45 26.5 Q-1.45 27.0 -2.85 27.0 L-3.75 26.7 Q-4.5 26.35 -4.7 26.35 L-4.85 26.45 -5.3 26.4 -5.35 26.15 -4.95 26.1 -5.1 25.7 -5.0 25.35 -3.9 25.15" fill="#000000" fill-rule="evenodd" stroke="none"/>
      <path d="M3.85 25.2 Q5.15 25.2 5.15 25.85 L4.3 26.55 2.5 26.8 2.3 27.0 Q1.95 27.0 1.7 26.7 L1.5 26.3 Q1.5 26.0 2.2 25.65 2.95 25.2 3.85 25.2" fill="#000000" fill-rule="evenodd" stroke="none"/>
      <path d="M-2.05 29.8 L-4.5 30.35 -6.2 30.55 Q-9.25 30.2 -9.5 29.4 L-9.7 28.15 -9.35 27.75 -9.5 28.15 -9.35 28.65 -8.95 29.2 Q-8.15 29.85 -6.4 29.85 -3.45 29.85 -2.3 29.1 -1.65 28.65 -1.65 28.1 L-1.75 27.6 -1.75 27.35 -1.3 27.2 Q-0.85 27.2 -0.85 28.1 -0.85 29.3 -2.05 29.8" fill="#b17c01" fill-rule="evenodd" stroke="none"/>
      <path d="M7.15 30.3 L4.3 30.15 Q3.2 29.95 2.15 29.25 1.05 28.55 1.05 28.0 1.05 27.65 1.5 27.25 L1.7 27.3 1.5 27.6 Q1.5 28.3 3.05 29.0 4.85 29.8 6.5 29.8 8.1 29.75 8.85 29.1 9.55 28.4 9.15 28.1 L9.35 28.05 Q9.6 28.05 9.95 28.6 10.3 29.15 9.65 29.75 8.95 30.3 7.15 30.3" fill="#b17c01" fill-rule="evenodd" stroke="none"/>
      <path d="M0.45 15.05 Q0.45 15.5 -0.5 17.0 -1.4 18.5 -1.85 18.8 L0.2 14.8 0.45 15.05" fill="#999999" fill-rule="evenodd" stroke="none"/>
      <path d="M1.0 16.1 L0.25 17.45 -0.85 18.8 -0.95 18.75 0.85 15.7 1.0 16.1" fill="#999999" fill-rule="evenodd" stroke="none"/>
      <path d="M1.55 19.1 Q1.55 19.45 -0.05 19.7 L-1.8 19.7 -1.9 19.5 -0.4 19.15 1.5 18.95 1.55 19.1" fill="#999999" fill-rule="evenodd" stroke="none"/>
      <path d="M4.4 17.9 L4.05 18.55 3.95 18.05 4.0 17.5 4.45 17.1 4.55 17.35 4.4 17.9 M4.45 18.9 L4.95 20.85 5.1 21.0 5.3 21.3 6.9 20.05 8.4 18.8 6.1 16.25 Q4.7 14.85 2.75 14.65 3.85 13.75 6.75 15.9 9.5 17.95 9.5 18.75 6.75 21.9 5.65 22.3 L5.7 22.8 5.6 23.25 4.4 23.5 3.65 23.45 3.65 23.5 4.0 24.05 4.35 24.8 Q4.35 25.35 3.9 25.35 L3.1 23.7 3.3 23.35 3.2 23.3 3.15 22.85 5.1 22.75 5.05 22.35 Q4.4 22.2 4.4 21.35 L4.5 20.9 4.1 19.6 Q4.1 19.0 4.45 18.9 M6.2 30.35 L6.3 30.35 8.95 29.9 Q9.75 29.55 9.75 29.0 9.75 28.5 9.25 28.25 L9.25 28.0 9.45 27.95 Q9.95 27.95 10.35 29.0 10.35 30.85 6.3 30.95 L6.15 30.95 Q4.3 31.0 2.6 30.2 0.9 29.4 0.9 28.5 L1.1 27.6 Q1.4 27.0 1.85 27.35 L1.5 27.8 1.45 28.3 Q1.45 29.15 2.85 29.75 4.2 30.35 6.2 30.35 M-2.35 14.7 Q-4.05 15.7 -7.85 19.2 L-6.9 20.5 Q-5.85 21.55 -5.25 21.55 L-4.65 21.1 -4.1 20.65 -3.85 20.75 -3.8 21.0 Q-3.8 21.35 -4.15 21.9 L-4.25 22.05 -4.2 22.15 -4.15 22.6 -3.3 23.05 -2.65 23.3 -2.75 23.6 -3.15 23.6 -3.55 23.6 -3.55 23.85 -3.8 24.7 Q-4.1 25.5 -4.3 25.5 -4.75 25.5 -4.65 24.95 -4.65 24.6 -4.1 23.8 L-3.9 23.55 -4.4 23.4 -4.85 22.95 -4.65 22.45 -5.2 22.6 Q-6.45 22.6 -8.95 19.6 -8.95 19.05 -7.75 18.05 L-6.1 16.9 -4.65 15.45 Q-3.85 14.55 -2.35 14.7 M-0.4 28.2 Q-0.4 29.2 -1.35 29.95 -2.75 31.05 -5.9 31.05 -8.85 31.05 -9.75 30.25 -10.15 29.9 -10.15 28.95 L-9.8 28.3 -9.65 28.3 -9.6 28.4 -9.75 28.8 Q-9.75 29.55 -9.3 29.9 -8.45 30.45 -5.9 30.45 -3.15 30.45 -1.9 29.6 -1.0 29.0 -1.0 28.2 L-1.3 27.6 -1.65 27.2 Q-1.65 26.7 -1.0 27.1 -0.4 27.45 -0.4 28.2" fill="#000000" fill-rule="evenodd" stroke="none"/>
    </g>
  </defs>
</svg>
