<?xml version="1.0" encoding="UTF-8" standalone="no"?>
<svg xmlns:ffdec="https://www.free-decompiler.com/flash" xmlns:xlink="http://www.w3.org/1999/xlink" ffdec:objectType="frame" height="16.4px" width="20.0px" xmlns="http://www.w3.org/2000/svg">
  <g transform="matrix(1.0, 0.0, 0.0, 1.0, 9.7, -14.15)">
    <use ffdec:characterId="10" height="6.8" transform="matrix(0.8778, 0.0, 0.0, 1.0, -5.75, 26.8)" width="9.0" xlink:href="#sprite0"/>
    <use ffdec:characterId="10" height="6.8" transform="matrix(-0.8889, 0.0, 0.0, 1.0, 5.2, 26.85)" width="9.0" xlink:href="#sprite0"/>
    <use ffdec:characterId="13" height="13.65" transform="matrix(1.0, 0.0, 0.0, 1.0, 0.0, 0.0)" width="19.95" xlink:href="#shape1"/>
  </g>
  <defs>
    <g id="sprite0">
      <use ffdec:characterId="9" height="6.8" transform="matrix(1.0, 0.0, 0.0, 1.0, 0.0, 0.0)" width="9.0" xlink:href="#shape0"/>
    </g>
    <g id="shape0">
      <path d="M0.5 0.65 L0.9 0.7 Q1.5 0.7 1.5 0.35 L1.35 0.15 2.0 -0.4 Q2.7 -1.1 2.7 -1.6 L2.55 -1.95 2.1 -1.7 1.8 -1.0 1.1 0.0 0.6 -0.25 0.05 -0.4 0.8 -0.55 1.45 -0.85 1.7 -1.05 1.8 -1.35 2.3 -2.15 2.45 -2.6 Q2.55 -2.8 2.9 -2.8 L3.7 -2.45 4.0 -2.25 4.1 -2.05 2.85 -0.35 2.4 0.45 2.25 0.8 1.75 1.1 Q1.25 1.1 0.5 0.65 M-0.2 -0.35 L-0.35 -0.1 -0.3 0.0 -0.5 -0.25 -0.45 -0.35 -0.2 -0.35" fill="#999999" fill-rule="evenodd" stroke="none"/>
      <path d="M0.05 -0.4 L0.6 -0.25 1.1 0.0 1.8 -1.0 2.1 -1.7 2.55 -1.95 2.7 -1.6 Q2.7 -1.1 2.0 -0.4 L1.35 0.15 1.5 0.35 Q1.5 0.7 0.9 0.7 L0.5 0.65 0.05 0.4 -0.3 0.0 -0.35 -0.1 -0.2 -0.35 0.05 -0.4 M-1.65 1.0 L-1.1 1.3 -0.8 1.6 -0.85 1.8 -1.2 1.9 Q-1.7 1.9 -2.05 1.55 L-2.25 1.2 -2.3 0.95 -2.1 0.6 Q-1.9 0.5 -1.65 1.0" fill="#ffffff" fill-rule="evenodd" stroke="none"/>
      <path d="M2.45 1.5 L2.5 1.4 2.55 1.35 2.6 1.25 2.6 1.2 2.65 1.2 2.65 1.15 2.7 1.1 2.75 0.9 2.75 0.75 2.75 0.6 2.8 0.55 2.8 0.45 2.85 0.35 2.9 0.25 3.0 0.15 3.2 0.15 3.35 0.15 3.45 0.25 3.65 0.5 3.75 0.7 3.85 0.8 3.95 0.9 4.0 1.0 4.0 1.05 4.05 1.1 4.1 1.15 4.1 1.25 4.15 1.3 4.2 1.4 4.2 1.45 4.15 2.45 Q4.0 3.25 3.2 3.1 L3.15 3.0 3.1 2.95 3.05 2.95 3.0 2.8 2.95 2.7 2.9 2.65 2.8 2.6 2.7 2.55 2.65 2.5 2.6 2.5 2.55 2.45 2.05 2.5 1.95 2.6 1.6 2.75 0.65 3.05 0.5 3.05 0.4 3.1 0.3 3.1 0.0 3.25 -0.4 3.35 -0.6 3.4 -0.6 3.45 -1.05 3.45 -1.15 3.4 -1.2 3.3 -3.4 2.95 -3.45 2.85 -3.45 2.7 -3.65 2.6 -4.0 2.3 -4.0 1.9 -3.9 1.6 -3.75 1.9 -3.7 1.9 -3.55 2.05 -3.45 2.1 -3.05 2.3 -2.0 2.6 -1.8 2.6 -1.75 2.6 -1.45 2.5 -1.25 2.5 -2.2 2.2 -2.6 2.05 -2.75 2.0 -2.85 1.95 -2.95 1.9 -3.0 1.85 -3.1 1.8 -3.15 1.75 -3.5 1.45 -3.65 1.25 -3.75 1.3 -3.85 1.4 -3.9 1.25 -3.9 1.1 -3.9 1.0 -3.9 0.8 -3.85 0.65 -3.8 0.6 -3.75 0.55 -3.4 0.4 -3.25 0.4 -3.3 0.35 -2.1 -0.1 -2.0 0.0 -2.1 0.15 -2.1 0.2 -1.85 0.2 -1.85 0.0 -1.85 -0.15 -1.85 -0.3 -1.8 -0.35 -1.8 -0.4 -1.75 -0.45 -1.5 -0.5 -1.1 -0.55 -0.9 -0.5 -0.75 -0.45 -0.75 -0.4 -0.7 -0.4 -0.7 -0.3 -0.7 -0.15 -0.65 -0.05 -0.65 0.05 -0.6 0.15 -0.6 0.2 -0.55 0.25 -0.45 0.35 -0.4 0.4 -0.4 0.45 -0.75 0.75 0.5 1.65 Q0.9 1.65 0.9 1.25 L0.85 1.1 1.8 1.25 1.8 1.3 1.85 1.3 1.85 1.5 1.8 1.55 1.8 1.65 2.15 1.6 2.45 1.5 2.15 1.7 1.3 2.35 Q3.6 1.7 3.6 1.35 L3.35 1.15 Q3.05 1.15 2.45 1.5 M-1.65 1.0 Q-1.9 0.5 -2.1 0.6 L-2.3 0.95 -2.25 1.2 -2.05 1.55 Q-1.7 1.9 -1.2 1.9 L-0.85 1.8 -0.8 1.6 -1.1 1.3 -1.65 1.0 M-2.05 2.05 L-1.55 2.15 -2.7 1.5 -2.7 1.4 -2.75 1.3 -2.75 1.25 -2.85 1.15 -2.8 1.05 -2.8 1.0 -2.85 0.95 -2.85 0.9 -2.9 0.9 -2.9 1.0 -2.9 1.15 -2.8 1.3 -2.7 1.5 -2.65 1.65 -2.05 2.0 -2.05 2.05" fill="#000000" fill-rule="evenodd" stroke="none"/>
      <path d="M2.45 1.5 Q3.05 1.15 3.35 1.15 L3.6 1.35 Q3.6 1.7 1.3 2.35 L2.15 1.7 2.45 1.5 M0.85 1.1 L0.9 1.25 Q0.9 1.65 0.5 1.65 L-0.75 0.75 -0.4 0.45 -0.3 0.45 Q-0.15 0.45 0.3 0.75 L0.35 0.75 0.7 0.95 0.85 1.1 M-3.85 1.4 L-3.75 1.3 -3.65 1.25 -3.5 1.45 -3.15 1.75 -3.1 1.8 -3.0 1.85 -2.95 1.9 -2.85 1.95 -2.75 2.0 -2.6 2.05 -2.2 2.2 -1.25 2.5 -1.45 2.5 -1.75 2.6 -1.8 2.6 -2.0 2.6 -3.05 2.3 -3.45 2.1 -3.55 2.05 -3.7 1.9 -3.75 1.9 -3.9 1.6 -3.9 1.5 -3.85 1.4" fill="#333333" fill-rule="evenodd" stroke="none"/>
      <path d="M2.1 -1.65 L1.5 -0.8 1.3 -0.65 0.6 -0.3 0.8 -0.5 -0.4 -0.3 -0.5 -0.3 0.35 0.55 Q1.05 1.0 1.8 1.1 L2.1 0.65 2.7 -0.3 3.1 -0.85 4.05 -2.2 2.6 -2.75 2.25 -2.0 2.1 -1.65 M0.95 -0.65 L1.35 -1.1 2.35 -3.1 2.35 -3.05 2.5 -3.1 3.05 -2.9 3.8 -2.65 4.4 -2.5 4.45 -2.2 3.95 -1.4 3.5 -0.65 3.45 -0.5 3.4 -0.4 3.6 0.2 3.65 0.25 4.25 1.45 4.3 2.1 4.3 2.85 3.95 3.3 3.3 3.5 3.15 3.5 2.95 3.45 2.85 3.3 2.35 2.95 -0.2 3.55 -0.55 3.7 -3.4 3.2 Q-4.55 2.7 -4.55 2.25 L-4.45 1.45 -4.4 1.4 Q-4.15 0.6 -2.75 0.1 L-2.6 0.25 -2.5 0.2 -2.25 0.1 -2.15 -0.2 Q-2.0 -0.45 -1.55 -0.55 L-0.7 -0.8 -0.6 -0.8 -0.55 -0.7 -0.45 -0.7 -0.25 -0.5 0.25 -0.6 0.95 -0.65 M3.15 0.4 Q3.15 1.3 1.9 1.8 L0.75 2.25 -0.65 2.35 Q-2.0 2.35 -2.6 1.7 L-3.05 0.75 -3.15 0.8 -3.5 1.05 -3.55 1.1 Q-3.9 1.35 -4.0 1.95 -4.0 2.35 -3.2 2.8 L-1.1 3.25 -0.2 3.2 -0.15 3.15 1.25 2.75 1.85 2.55 1.9 2.5 Q2.55 2.15 3.1 2.5 L3.5 2.95 Q3.9 2.9 3.9 2.45 L3.95 2.0 3.95 1.45 Q3.8 0.5 3.15 0.35 L3.15 0.4 M1.55 1.4 L1.45 1.4 Q0.7 1.4 -0.1 0.8 -0.8 0.2 -0.8 -0.2 L-0.75 -0.45 -0.75 -0.5 Q-1.65 -0.45 -1.6 -0.2 L-1.4 0.7 Q-1.25 1.4 1.2 1.7 L1.55 1.4 M-0.95 1.45 L-1.9 0.7 -2.15 0.25 -2.5 0.5 -2.45 0.55 -2.5 0.55 -2.3 1.2 Q-2.0 2.1 -0.1 2.1 L0.55 2.0 -0.95 1.45" fill="#000000" fill-rule="evenodd" stroke="none"/>
    </g>
    <g id="shape1">
      <path d="M0.8 15.85 L0.85 15.8 1.9 15.15 4.3 14.95 6.3 14.85 7.3 14.95 7.65 15.7 7.75 16.05 7.75 16.4 6.5 16.65 6.35 16.6 6.15 16.65 6.1 16.7 6.05 17.0 6.05 17.05 Q5.65 17.3 5.8 17.8 L6.25 18.3 6.1 18.7 5.95 18.8 Q6.1 18.4 5.2 18.4 L3.35 18.5 3.1 18.55 Q2.7 19.1 2.8 19.6 L2.85 19.65 Q3.45 19.8 3.65 19.2 L3.7 19.15 4.4 19.05 4.15 19.25 Q3.85 19.6 4.0 20.3 L4.55 20.75 3.4 20.6 0.55 21.45 0.5 21.45 0.3 21.45 0.1 21.5 -1.5 21.05 -3.2 20.7 -3.3 20.55 -3.35 21.1 -3.45 21.0 -3.85 21.0 -5.05 21.6 Q-5.95 22.25 -5.9 22.8 -6.2 22.5 -6.0 22.1 L-5.95 22.0 Q-4.9 21.0 -3.7 20.35 L-3.75 20.15 -4.0 19.7 -3.85 19.55 Q-3.65 20.4 -3.25 19.6 L-3.15 19.6 -2.7 19.95 -0.1 20.1 Q-1.85 19.75 -3.35 18.8 -3.45 18.2 -3.7 17.75 -4.15 18.0 -3.95 18.4 -4.75 18.4 -4.75 18.95 L-5.3 18.8 -5.5 18.6 -5.55 18.35 -5.3 17.6 -5.25 17.55 Q-5.15 18.0 -4.95 17.5 -4.75 17.1 -4.85 16.7 L-5.15 16.05 -5.1 15.95 -5.1 15.9 -5.45 15.6 -6.15 15.35 -6.7 15.4 -6.9 15.5 -7.05 15.65 -7.1 15.7 -7.1 15.75 -7.2 15.8 -7.2 15.85 -7.2 15.95 -7.2 16.0 -7.5 16.05 -7.25 15.25 -7.25 15.05 -7.2 14.9 Q-6.4 14.3 -5.3 14.4 -4.05 14.6 -3.2 15.2 -3.5 15.35 -3.5 15.75 L-3.5 15.8 -3.7 15.8 -3.35 16.2 -2.9 16.45 -2.6 16.7 -2.45 17.0 -2.2 17.45 -2.15 17.55 -2.1 17.65 -2.35 17.75 -2.35 17.8 -2.3 17.85 -1.55 17.9 -0.75 17.45 -0.55 17.3 -0.4 17.1 -0.15 17.0 -0.1 16.95 -0.05 16.85 0.0 16.8 0.15 16.75 0.25 16.8 0.25 16.75 0.7 16.95 0.9 17.1 1.3 17.25 1.4 17.35 1.7 17.65 2.15 17.95 2.4 17.9 2.35 17.9 2.85 17.5 2.5 17.55 2.7 17.4 3.55 17.1 4.1 16.45 4.35 16.55 4.55 16.25 4.2 15.65 Q3.7 15.15 3.0 15.15 1.3 15.15 1.3 15.65 L1.35 15.85 0.8 15.85 M8.25 18.9 L8.5 19.0 8.5 18.95 8.55 18.95 8.6 18.9 8.7 18.9 8.9 18.95 8.95 18.95 9.0 19.0 9.0 19.05 9.5 19.25 9.75 19.5 9.75 19.7 9.7 19.7 9.65 19.75 9.55 19.85 9.5 19.85 9.45 19.9 9.45 19.95 9.4 20.0 8.7 20.5 8.2 20.8 8.05 20.95 7.95 21.1 7.85 21.15 7.5 21.2 7.4 21.2 7.15 20.9 7.1 20.7 7.0 20.65 7.0 20.5 7.05 20.35 7.1 20.35 7.1 20.3 7.15 20.25 7.2 20.25 7.0 20.15 7.0 20.0 7.1 19.9 7.2 19.85 7.5 19.6 7.7 19.35 7.7 19.25 7.75 19.2 7.8 19.2 7.85 19.1 8.25 18.9 M0.35 16.15 L0.3 16.4 0.35 16.65 -0.3 16.5 Q-0.1 16.45 -0.2 16.1 L-0.1 16.0 0.35 16.15 M0.85 18.3 L0.8 18.25 0.7 18.35 0.85 18.3 M1.65 17.4 L1.5 17.35 1.6 17.35 1.65 17.4 M0.1 21.5 L-0.05 21.55 -0.1 21.6 -0.15 21.7 -0.1 21.7 0.0 21.7 0.1 21.7 0.6 21.85 Q0.9 21.9 1.1 22.1 L1.3 22.35 1.45 22.35 1.65 22.35 1.65 22.25 1.65 22.15 1.6 22.1 1.6 22.05 1.55 22.0 1.55 21.95 1.35 21.75 1.95 21.75 2.1 21.85 2.5 22.05 2.55 22.05 2.55 22.1 2.6 22.2 2.7 22.3 3.25 22.1 3.35 21.75 3.4 21.55 3.55 21.4 Q3.8 21.75 4.05 21.5 L4.25 21.3 Q4.95 21.05 5.45 21.65 L5.35 22.1 5.2 22.25 Q4.15 22.3 3.35 23.1 L3.25 23.2 Q2.95 24.15 1.15 24.4 L-1.8 24.45 -2.0 24.45 -2.4 24.4 -2.4 24.55 -2.2 24.6 -2.15 24.65 -2.1 24.7 -2.05 24.75 -2.0 24.8 -1.8 24.85 -0.85 24.95 -0.4 25.05 -0.45 25.05 -0.45 25.1 -0.4 25.15 -0.95 25.05 -0.95 25.15 -1.55 25.25 -3.5 24.45 -4.25 23.9 -4.3 23.8 -4.75 23.45 -4.8 23.45 -5.1 23.25 -5.3 23.25 -5.7 23.1 -5.4 22.8 -5.15 22.65 -4.95 22.05 Q-4.1 20.95 -2.75 21.35 -2.2 21.55 -1.9 22.1 L-1.2 21.6 0.1 21.5 M3.85 23.7 Q4.1 23.45 4.45 23.25 L4.5 23.25 4.6 23.3 4.65 23.3 4.7 23.25 4.8 23.2 5.3 22.8 5.45 22.75 5.6 22.7 6.4 22.6 6.4 22.55 6.45 22.55 6.55 22.55 6.7 22.65 6.3 22.8 6.25 22.85 Q5.1 23.2 4.1 23.8 L4.1 23.9 4.1 23.95 4.05 24.0 4.1 23.9 4.0 23.8 4.0 23.75 3.9 23.65 3.85 23.7 M6.45 22.35 L6.4 22.3 6.4 22.25 6.3 22.25 6.35 22.1 Q6.35 21.75 5.85 21.55 L5.8 21.45 6.3 21.7 6.6 22.1 6.45 22.35 M2.2 21.35 L2.5 21.3 2.4 21.5 2.2 21.35 M1.0 21.5 L0.8 21.45 1.1 21.45 1.0 21.5 M3.45 24.35 L2.95 24.65 2.65 24.8 2.3 25.0 Q2.05 25.15 1.85 25.25 L1.75 25.25 1.65 25.3 1.6 25.35 1.2 25.3 1.2 25.25 1.25 25.2 0.9 25.2 1.35 24.95 1.3 24.9 3.45 24.35 M3.6 24.3 L3.6 24.35 3.5 24.35 3.6 24.3 M-0.15 25.2 L-0.15 25.15 -0.05 25.15 0.3 25.2 0.4 25.25 0.2 25.25 -0.15 25.2 M-1.8 15.1 L-1.1 15.1 0.0 15.8 -0.5 16.1 -0.6 16.1 -0.7 16.15 -0.65 16.0 Q-0.65 15.3 -1.8 15.1 M-6.05 16.15 L-6.0 16.15 -5.85 16.1 -5.8 16.1 -5.8 16.05 -5.75 16.05 -5.55 16.15 -5.4 16.5 -5.3 16.65 -5.3 16.7 -6.05 16.15 M-6.4 20.75 L-6.3 21.05 -6.3 21.15 -6.4 21.25 -6.45 21.25 -6.55 21.25 -6.7 21.2 -6.8 21.25 -6.8 21.35 -6.8 21.4 -6.95 21.65 -7.05 21.75 -7.7 21.55 -7.9 21.4 -7.9 21.35 -7.95 21.35 -7.95 21.3 -8.0 21.25 -8.0 21.15 -8.1 21.05 -8.75 20.35 -8.85 20.25 -9.0 20.2 -9.1 20.1 -9.15 20.1 -9.15 20.05 -9.2 20.0 -9.2 19.9 -9.15 19.85 -9.05 19.75 -9.0 19.75 -8.95 19.7 -8.75 19.75 -8.7 19.75 -8.55 19.5 -8.5 19.45 -8.4 19.45 -8.25 19.45 -8.3 19.15 -8.05 19.05 -6.45 20.1 -6.4 20.4 -6.55 20.65 -6.4 20.75 M-4.5 19.05 L-3.9 19.05 -3.9 19.2 -4.4 19.15 -4.5 19.05" fill="#ffffff" fill-rule="evenodd" stroke="none"/>
      <path d="M4.1 16.45 L3.55 17.1 2.7 17.4 2.5 17.55 2.35 17.55 1.65 17.5 1.65 17.4 1.6 17.35 1.4 17.25 0.65 16.8 Q0.75 16.65 0.9 16.65 L2.2 16.8 3.05 16.5 3.15 16.45 4.1 16.35 4.1 16.4 4.1 16.45 M-2.15 17.55 L-2.2 17.45 -2.2 17.35 -2.15 17.3 -2.0 17.15 -2.4 16.9 -2.6 16.7 -2.9 16.45 -3.35 16.2 -3.7 15.8 -3.5 15.8 Q-3.05 15.8 -2.5 16.15 L-1.8 16.65 -1.05 16.4 -0.7 16.15 -0.6 16.1 -0.5 16.1 Q-0.35 16.1 -0.3 16.2 L-0.35 16.3 -0.7 16.85 -1.05 17.1 -1.05 17.15 -1.9 17.6 -2.15 17.55 M-5.3 17.6 L-5.55 18.35 -5.55 18.5 -5.5 18.6 -5.3 18.8 Q-4.9 19.2 -4.4 19.15 L-3.9 19.2 -3.85 19.35 -3.85 19.55 -4.0 19.7 -4.9 20.35 Q-6.25 20.5 -7.05 19.35 L-7.55 18.85 -7.55 18.55 Q-7.65 17.65 -7.05 16.75 L-6.35 16.15 -5.9 16.5 Q-5.2 17.0 -5.3 17.6 M5.95 18.8 L6.1 18.7 6.25 18.55 6.45 18.5 6.45 18.45 6.4 18.4 6.4 18.25 6.25 18.3 5.8 17.8 Q5.65 17.3 6.05 17.05 L6.1 17.05 6.05 17.0 6.1 16.7 6.15 16.65 6.35 16.6 6.5 16.65 6.55 16.7 7.1 16.65 7.2 16.6 7.35 16.6 7.5 16.6 7.55 16.65 7.65 16.9 7.7 17.05 7.7 17.0 7.8 17.0 8.2 17.15 8.3 17.4 8.35 17.5 8.45 17.7 8.45 17.8 8.45 17.85 8.55 18.1 8.55 18.45 8.55 18.5 8.5 18.65 8.25 18.9 8.1 18.95 7.95 18.95 7.9 19.0 7.85 19.1 7.8 19.2 7.75 19.2 7.7 19.25 7.7 19.35 7.5 19.6 7.2 19.85 7.1 19.9 6.95 19.95 6.7 19.95 6.6 19.95 6.55 19.95 6.25 20.0 6.2 20.0 6.1 20.0 6.05 19.95 Q5.1 20.1 4.3 19.5 L4.25 19.25 4.4 19.05 5.5 18.9 5.65 18.9 5.8 18.9 5.85 18.85 5.9 18.85 5.95 18.8 M6.95 16.9 L6.75 16.9 6.55 17.0 6.55 17.1 6.5 17.1 6.45 17.2 6.45 17.6 6.8 18.2 6.8 18.25 7.0 18.55 7.1 18.55 7.5 18.65 7.6 18.55 7.65 18.35 7.65 18.2 7.55 18.15 7.55 18.1 7.55 17.85 Q7.6 17.1 6.95 16.9 M-1.8 24.45 L-1.65 24.5 -1.35 24.7 -0.85 24.95 -1.8 24.85 -2.0 24.8 -2.05 24.75 -2.1 24.7 -2.15 24.65 -2.2 24.6 -2.4 24.55 -2.4 24.4 -2.0 24.45 -1.8 24.45 M-0.4 25.05 L0.35 25.1 Q1.25 25.1 1.4 24.75 L1.5 24.75 Q2.35 24.65 3.2 24.1 L3.4 24.0 3.85 23.7 3.9 23.65 4.0 23.75 4.0 23.8 Q3.55 23.9 3.55 24.25 L3.6 24.3 3.5 24.35 3.45 24.35 1.3 24.9 1.35 24.95 0.9 25.2 0.5 25.25 0.45 25.25 0.4 25.25 0.3 25.2 -0.05 25.15 -0.15 25.15 -0.15 25.2 -0.25 25.2 -0.35 25.2 -0.4 25.15 -0.45 25.1 -0.45 25.05 -0.4 25.05 M6.85 18.95 L6.8 18.95 6.8 18.9 6.6 18.75 6.45 18.75 6.3 18.8 6.2 18.85 6.15 18.95 6.15 19.05 6.25 19.15 6.45 19.25 6.75 19.2 6.8 19.15 6.85 19.05 6.85 18.95 M-6.65 16.65 Q-7.2 16.95 -7.4 17.85 L-6.45 17.9 Q-5.9 17.6 -5.75 17.0 -5.75 16.3 -6.4 16.6 L-6.65 16.65" fill="#b86d93" fill-rule="evenodd" stroke="none"/>
      <path d="M0.8 15.85 L1.35 15.85 1.3 15.65 Q1.3 15.15 3.0 15.15 3.7 15.15 4.2 15.65 L4.55 16.25 4.35 16.55 4.1 16.45 4.1 16.4 4.1 16.35 3.15 16.45 3.05 16.5 2.2 16.8 0.9 16.65 Q0.75 16.65 0.65 16.8 L0.35 16.65 0.3 16.4 0.35 16.15 0.35 16.05 0.8 15.85 M-3.5 15.8 L-3.5 15.75 Q-3.5 15.35 -3.2 15.2 L-2.05 15.05 -1.8 15.1 Q-0.65 15.3 -0.65 16.0 L-0.7 16.15 -1.05 16.4 -1.8 16.65 -2.5 16.15 Q-3.05 15.8 -3.5 15.8 M-5.9 22.8 Q-5.95 22.25 -5.05 21.6 L-3.85 21.0 -3.45 21.0 -3.35 21.1 -3.3 20.55 -3.2 20.7 -1.5 21.05 0.1 21.5 -1.2 21.6 -1.9 22.1 Q-2.2 21.55 -2.75 21.35 -4.1 20.95 -4.95 22.05 L-5.15 22.65 -5.4 22.8 -5.7 23.1 -5.3 23.25 -5.1 23.25 -4.8 23.45 -4.75 23.45 -4.3 23.8 -4.25 23.9 -4.3 24.0 -3.5 24.45 -1.55 25.25 -1.3 25.3 Q-0.9 25.55 -0.75 25.7 L-0.2 25.5 0.0 25.45 0.05 25.45 0.1 25.5 Q0.25 26.15 -0.85 26.45 L-1.55 26.7 Q-2.2 26.6 -2.35 25.95 L-3.4 25.45 -3.5 25.7 -3.65 25.85 -4.5 25.9 Q-4.95 25.35 -4.9 24.7 -5.65 24.9 -6.3 24.4 L-6.45 24.2 Q-6.65 23.9 -6.4 23.55 L-6.2 23.35 Q-5.5 23.3 -5.65 23.15 L-5.85 23.15 -6.3 23.1 -6.2 22.95 -5.9 22.8 M6.95 16.9 Q7.6 17.1 7.55 17.85 L7.55 18.1 7.55 18.15 7.65 18.2 7.65 18.35 7.6 18.55 7.5 18.65 7.1 18.55 7.0 18.55 6.8 18.25 6.8 18.2 6.45 17.6 6.45 17.2 6.5 17.1 6.55 17.1 6.55 17.0 6.75 16.9 6.95 16.9 M4.2 24.4 L4.15 24.25 Q4.15 23.8 4.85 24.05 L5.45 24.9 5.4 25.3 Q4.55 25.6 4.05 24.95 3.75 24.5 4.2 24.4 M6.85 18.95 L6.85 19.05 6.8 19.15 6.75 19.2 6.45 19.25 6.25 19.15 6.15 19.05 6.15 18.95 6.2 18.85 6.3 18.8 6.45 18.75 6.6 18.75 6.8 18.9 6.8 18.95 6.85 18.95 M6.25 22.85 L7.15 22.8 7.4 22.85 Q7.6 23.0 7.45 23.35 L7.05 23.95 Q6.9 24.0 6.8 24.15 5.8 24.2 5.5 23.5 L5.55 23.4 6.25 22.85 M0.9 25.8 L0.9 25.75 Q1.7 25.3 2.5 25.25 3.1 25.1 2.8 25.7 L2.2 26.25 Q1.5 26.35 0.9 25.8 M-6.65 16.65 L-6.4 16.6 Q-5.75 16.3 -5.75 17.0 -5.9 17.6 -6.45 17.9 L-7.4 17.85 Q-7.2 16.95 -6.65 16.65" fill="#ffa1d1" fill-rule="evenodd" stroke="none"/>
      <path d="M-2.45 17.0 L-2.6 16.7 -2.4 16.9 -2.0 17.15 -2.15 17.3 -2.45 17.0 M-0.1 16.0 L-0.2 16.1 -0.3 16.2 Q-0.35 16.1 -0.5 16.1 L0.0 15.8 -0.1 16.0 M1.5 17.35 L1.4 17.25 1.6 17.35 1.5 17.35" fill="#b6a8cb" fill-rule="evenodd" stroke="none"/>
      <path d="M-7.2 16.0 L-7.2 15.95 -7.2 15.85 -7.2 15.8 -7.1 15.75 -7.1 15.7 -7.05 15.65 -6.9 15.5 -6.7 15.4 -6.15 15.35 -5.45 15.6 -5.1 15.9 -5.1 15.95 -5.15 16.05 -4.85 16.7 Q-4.75 17.1 -4.95 17.5 -5.15 18.0 -5.25 17.55 L-5.3 16.7 -5.3 16.65 -5.4 16.5 -5.55 16.15 -5.75 16.05 -5.8 16.05 -5.8 16.1 -5.85 16.1 -6.0 16.15 -6.05 16.15 -6.15 16.15 -7.05 16.05 -7.2 16.0 M-4.75 18.95 Q-4.75 18.4 -3.95 18.4 -4.15 18.0 -3.7 17.75 -3.45 18.2 -3.35 18.8 -1.85 19.75 -0.1 20.1 L-2.7 19.95 -3.15 19.6 -3.25 19.6 Q-3.65 20.4 -3.85 19.55 L-3.85 19.35 -3.9 19.2 -3.9 19.05 -4.5 19.05 -4.75 18.95 M0.1 21.5 L0.3 21.45 0.5 21.45 0.55 21.45 3.4 20.6 4.55 20.75 5.0 20.85 5.8 21.45 5.85 21.55 Q6.35 21.75 6.35 22.1 L6.3 22.25 6.4 22.25 6.4 22.3 6.45 22.35 6.45 22.45 6.45 22.55 6.4 22.55 6.4 22.6 5.6 22.7 5.45 22.75 5.3 22.8 4.8 23.2 4.7 23.25 4.65 23.3 4.6 23.3 4.5 23.25 4.45 23.25 Q4.1 23.45 3.85 23.7 L3.4 24.0 3.2 24.1 Q2.35 24.65 1.5 24.75 L1.4 24.75 Q1.25 25.1 0.35 25.1 L-0.4 25.05 -0.85 24.95 -1.35 24.7 -1.65 24.5 -1.8 24.45 1.15 24.4 Q2.95 24.15 3.25 23.2 L3.35 23.1 Q4.15 22.3 5.2 22.25 L5.35 22.1 5.45 21.65 Q4.95 21.05 4.25 21.3 L4.05 21.5 Q3.8 21.75 3.55 21.4 L3.4 21.55 3.35 21.75 3.25 22.1 2.7 22.3 2.6 22.2 2.55 22.1 2.55 22.05 2.5 22.05 2.1 21.85 1.95 21.75 1.35 21.75 1.55 21.95 1.55 22.0 1.6 22.05 1.6 22.1 1.65 22.15 1.65 22.25 1.65 22.35 1.45 22.35 1.3 22.35 1.1 22.1 Q0.9 21.9 0.6 21.85 L0.1 21.7 0.0 21.7 -0.1 21.7 -0.15 21.7 -0.1 21.6 -0.05 21.55 0.1 21.5 M4.4 19.05 L3.7 19.15 3.65 19.2 Q3.45 19.8 2.85 19.65 L2.8 19.6 Q2.7 19.1 3.1 18.55 L3.35 18.5 5.2 18.4 Q6.1 18.4 5.95 18.8 L5.85 18.85 5.8 18.9 5.65 18.9 5.5 18.9 4.4 19.05 M1.0 21.5 L1.1 21.45 0.8 21.45 1.0 21.5 M2.2 21.35 L2.4 21.5 2.5 21.3 2.2 21.35" fill="#d3c4cc" fill-rule="evenodd" stroke="none"/>
      <path d="M6.45 22.55 L6.45 22.45 7.25 22.25 7.75 22.9 7.75 23.05 7.55 23.35 Q7.85 23.6 7.55 24.1 L7.35 24.3 6.2 24.45 5.7 24.4 5.65 24.55 Q5.95 25.3 5.45 25.95 5.1 26.4 4.5 26.15 L4.05 25.9 3.6 25.55 3.45 25.4 3.45 25.45 3.4 25.45 3.4 25.5 3.4 25.6 3.4 25.85 3.35 25.9 Q3.35 26.9 2.45 27.25 L1.1 27.2 0.5 26.65 0.35 26.5 Q-0.15 27.65 -1.45 27.3 -2.45 27.1 -2.95 26.2 L-3.0 26.25 -3.05 26.25 -3.05 26.3 Q-3.8 27.1 -4.8 26.65 -5.5 26.35 -5.45 25.6 L-5.35 25.35 -5.5 25.25 -5.6 25.3 Q-6.45 25.45 -7.05 24.9 L-7.1 24.85 -7.1 24.8 -7.15 24.75 -7.15 24.7 -7.15 24.55 -7.15 24.5 -7.2 24.4 -7.25 24.3 -7.2 24.2 -7.0 24.0 -7.35 23.8 Q-6.9 23.1 -6.2 22.95 L-6.3 23.1 -5.85 23.15 -5.65 23.15 Q-5.5 23.3 -6.2 23.35 L-6.4 23.55 Q-6.65 23.9 -6.45 24.2 L-6.3 24.4 Q-5.65 24.9 -4.9 24.7 -4.95 25.35 -4.5 25.9 L-3.65 25.85 -3.5 25.7 -3.4 25.45 -2.35 25.95 Q-2.2 26.6 -1.55 26.7 L-0.85 26.45 Q0.25 26.15 0.1 25.5 L0.05 25.45 0.45 25.25 0.5 25.25 0.9 25.2 1.25 25.2 1.2 25.25 1.2 25.3 1.6 25.35 1.65 25.3 1.75 25.25 1.85 25.25 Q2.05 25.15 2.3 25.0 L2.65 24.8 2.95 24.65 3.45 24.35 3.5 24.35 3.6 24.35 3.6 24.3 3.55 24.25 Q3.55 23.9 4.0 23.8 L4.1 23.9 4.1 23.8 Q5.1 23.2 6.25 22.85 L6.3 22.8 6.7 22.65 6.55 22.55 6.45 22.55 M4.1 23.9 L4.05 24.0 4.1 23.95 4.1 23.9 M4.2 24.4 Q3.75 24.5 4.05 24.95 4.55 25.6 5.4 25.3 L5.45 24.9 4.85 24.05 Q4.15 23.8 4.15 24.25 L4.2 24.4 M6.25 22.85 L5.55 23.4 5.5 23.5 Q5.8 24.2 6.8 24.15 6.9 24.0 7.05 23.95 L7.45 23.35 Q7.6 23.0 7.4 22.85 L7.15 22.8 6.25 22.85 M-0.15 25.2 L0.2 25.25 0.0 25.45 -0.2 25.5 -0.7 25.5 -0.25 25.2 -0.15 25.2 M0.9 25.8 Q1.5 26.35 2.2 26.25 L2.8 25.7 Q3.1 25.1 2.5 25.25 1.7 25.3 0.9 25.75 L0.9 25.8" fill="#000000" fill-rule="evenodd" stroke="none"/>
      <path d="M-0.2 25.5 L-0.75 25.7 Q-0.9 25.55 -1.3 25.3 L-1.55 25.25 -0.95 25.15 -0.95 25.05 -0.4 25.15 -0.35 25.2 -0.25 25.2 -0.7 25.5 -0.2 25.5 M-3.5 24.45 L-4.3 24.0 -4.25 23.9 -3.5 24.45" fill="#6a4e98" fill-rule="evenodd" stroke="none"/>
      <path d="M5.35 14.95 L5.3 14.95 5.3 14.9 5.35 14.95 5.35 14.85 5.35 14.75 Q5.55 14.8 5.65 14.95 L5.35 14.95" fill="#8e5371" fill-rule="evenodd" stroke="none"/>
      <path d="M5.35 14.95 L5.3 14.9 5.3 14.95 4.05 15.2 3.95 14.9 3.95 14.85 5.15 14.55 Q7.4 14.15 7.9 15.0 L8.25 16.1 8.05 16.45 8.15 16.55 8.4 16.85 8.6 17.1 8.6 17.2 8.65 17.25 8.75 17.9 8.8 18.6 8.75 18.6 8.75 18.65 9.0 18.75 9.15 18.85 9.55 19.0 9.6 19.05 9.7 19.1 9.95 19.35 10.05 19.45 10.2 19.7 10.3 19.95 10.25 20.1 10.15 20.2 Q9.2 20.45 8.45 21.2 L8.1 21.6 8.0 21.65 Q7.25 22.0 6.9 21.25 L6.65 20.9 5.7 20.9 6.85 21.95 6.9 22.0 Q7.75 22.2 8.25 23.1 L8.2 24.2 Q7.8 24.7 7.3 24.7 L6.15 24.7 Q6.3 25.45 5.9 26.2 4.9 27.05 3.5 25.9 3.7 26.35 3.4 27.15 2.6 27.85 1.7 27.55 0.8 27.2 0.25 26.65 -0.25 27.95 -1.3 27.8 -2.2 27.6 -2.75 26.65 -4.1 27.6 -5.15 26.65 -5.6 26.25 -5.6 25.65 L-7.0 25.65 -7.65 24.9 -7.6 23.65 -6.25 21.95 -5.7 21.45 Q-4.65 20.65 -4.05 20.55 L-4.15 19.9 -5.25 20.8 -5.7 21.1 -6.0 21.35 -6.25 21.6 -6.7 21.95 -7.0 22.15 -7.05 22.25 Q-7.45 22.5 -7.75 22.25 L-7.9 22.05 -7.95 21.95 -8.0 21.9 -8.0 21.85 -9.05 20.8 -9.6 20.3 -9.6 20.1 -9.55 19.9 -9.1 19.5 -9.05 19.45 -8.95 19.45 -8.9 19.25 -8.45 19.0 -7.75 17.25 Q-7.45 16.55 -6.9 16.4 L-7.65 16.2 Q-5.95 15.6 -5.3 16.35 -4.8 16.9 -4.8 17.45 L-5.35 18.4 Q-5.1 18.95 -4.2 19.0 L-4.2 18.15 -3.8 17.2 -3.65 19.2 -3.3 19.35 -3.1 19.45 -3.0 19.5 -1.7 19.95 0.15 20.05 1.55 19.9 2.05 19.75 2.4 19.6 3.25 19.35 3.45 19.2 3.75 18.65 4.0 17.3 4.35 18.85 5.8 18.6 Q5.9 18.0 5.3 17.2 5.55 16.05 7.75 16.5 L7.8 16.5 7.65 16.4 7.55 16.05 Q7.4 14.8 5.65 14.95 5.55 14.8 5.35 14.75 L5.35 14.85 5.35 14.95 M5.3 16.45 L5.3 16.5 5.25 16.5 5.3 16.45 M-3.5 15.05 L-3.55 15.0 Q-6.25 13.4 -7.5 15.95 -7.8 14.25 -5.9 14.15 -4.55 14.05 -3.5 14.65 L-3.5 15.05 M7.25 16.8 L7.2 16.75 7.2 16.8 6.2 16.9 Q5.95 17.25 6.3 17.75 6.65 18.25 6.5 18.55 L6.1 19.0 4.25 19.5 5.0 19.75 6.4 19.85 Q7.25 19.85 7.5 19.45 7.75 18.95 7.95 18.95 L8.35 18.35 Q8.55 17.75 7.75 17.0 L7.6 17.1 7.4 16.95 7.35 16.75 7.25 16.8 M3.4 20.5 L3.3 20.45 3.3 19.95 0.05 20.45 -2.35 20.25 -3.25 19.85 Q-3.75 19.55 -3.7 20.4 L-3.65 20.45 -2.9 20.8 -2.2 21.2 -2.05 21.15 -1.95 21.15 -1.4 21.45 -0.1 21.6 -1.65 21.75 -2.45 21.95 -2.9 22.1 -2.9 22.0 -2.95 21.95 -2.95 21.9 -2.8 21.7 -2.5 21.45 -3.65 21.05 Q-4.65 21.25 -5.35 21.95 L-5.9 22.9 -0.9 24.8 Q1.45 25.15 3.5 23.5 4.6 22.65 6.35 22.5 L6.2 21.95 Q5.8 21.4 4.2 20.75 3.85 20.6 3.7 21.1 L3.6 21.2 3.7 21.25 3.7 21.3 3.75 21.45 3.75 21.55 3.7 21.65 3.65 21.7 3.2 21.75 2.9 21.55 2.65 21.6 2.9 21.95 2.95 22.1 2.75 21.95 1.9 21.35 0.85 21.65 -1.4 21.45 3.05 20.65 3.15 20.6 3.2 20.55 3.4 20.5 M8.95 19.1 L9.05 19.25 8.9 19.15 8.6 18.95 8.6 19.0 8.55 18.95 8.35 19.2 7.35 20.0 7.1 20.25 7.0 20.3 7.05 20.35 7.15 20.65 7.2 20.7 7.2 20.75 7.25 20.75 7.4 20.85 7.35 20.95 7.65 21.25 8.6 20.5 8.95 20.25 9.45 19.9 9.55 19.75 9.7 19.8 9.75 19.75 9.6 19.55 9.5 19.45 9.5 19.4 9.4 19.4 9.05 19.15 8.95 19.1 M7.6 23.6 Q7.6 22.45 6.1 22.95 L4.45 23.65 Q2.55 25.55 0.3 25.75 L1.15 26.65 3.0 26.6 3.35 25.25 Q5.75 26.95 5.5 24.95 L5.3 24.05 Q7.8 24.7 7.6 23.6 M-6.7 16.65 Q-7.75 17.55 -7.35 19.0 L-6.85 19.45 Q-5.6 20.65 -4.8 20.15 L-4.15 19.7 -4.15 19.55 -4.2 19.55 -5.45 19.1 -5.75 18.9 -5.75 18.3 -5.55 17.4 -5.55 17.25 -5.85 16.6 -6.7 16.65 M-6.75 20.9 Q-6.45 21.05 -6.4 20.75 -6.4 20.3 -7.05 19.75 -7.75 19.2 -8.05 19.3 L-8.35 19.55 -8.25 19.65 -8.35 19.65 -8.35 19.7 -8.4 19.75 -8.45 19.8 -8.5 19.85 -8.7 19.8 -8.8 19.8 -8.9 19.85 -9.0 19.9 -9.05 20.05 -9.0 20.1 -8.85 20.2 -8.35 20.7 -8.15 20.85 -7.7 21.45 -7.45 21.7 -7.2 21.55 -7.25 21.45 -6.75 20.9 M-6.2 23.5 L-6.8 24.05 Q-7.3 24.9 -5.9 24.9 L-5.05 24.8 -4.7 26.05 Q-3.75 27.2 -2.85 25.85 -2.4 27.25 -1.25 27.15 L-0.3 26.7 -0.2 25.7 Q-2.9 25.7 -5.15 23.5 L-6.2 23.5" fill="#000000" fill-rule="evenodd" stroke="none"/>
      <path d="M4.05 15.2 L4.5 15.4 4.95 15.75 5.3 16.45 5.25 16.5 4.75 16.6 3.0 17.65 Q2.5 18.0 2.15 18.3 L2.05 18.3 1.5 17.85 Q0.8 16.95 -0.1 16.9 L-1.6 18.15 Q-2.05 18.2 -2.5 17.75 L-3.7 16.25 -4.2 16.15 -4.4 16.0 -3.65 15.3 -3.5 15.05 -3.5 14.65 -3.45 14.6 -3.0 14.45 3.95 14.9 4.05 15.2 M1.85 15.5 L0.25 16.4 2.05 17.45 3.05 16.8 Q3.5 16.5 4.15 16.35 L4.65 16.15 Q4.15 15.75 3.65 15.5 2.8 14.95 1.85 15.5 M-0.6 16.3 L-0.65 15.9 -1.1 15.55 -2.2 15.2 -3.65 15.85 -1.7 17.35 -0.65 16.6 -0.6 16.3" fill="#76445d" fill-rule="evenodd" stroke="none"/>
      <path d="M3.7 23.1 L4.5 23.0 Q4.8 23.0 5.0 23.35 L5.15 23.5 Q5.2 23.95 4.7 24.1 L4.3 24.3 4.25 24.3 4.6 24.95 Q4.7 25.55 4.2 25.55 L3.8 25.5 3.3 25.15 3.2 25.0 3.25 25.2 Q3.35 26.05 2.5 26.05 2.05 26.05 1.85 25.7 L1.65 25.7 Q1.6 26.15 1.0 26.15 0.4 26.15 0.1 25.45 L-0.1 25.85 -0.45 26.1 Q-1.35 26.1 -1.45 25.2 -1.55 24.6 -0.7 24.6 -0.05 24.6 0.1 25.1 0.25 24.75 0.8 24.75 1.25 24.75 1.45 25.0 L1.75 24.95 Q1.9 24.5 2.3 24.5 2.8 24.5 3.1 24.9 L3.05 24.7 Q2.95 24.2 3.25 24.2 L3.8 24.1 3.75 24.0 3.2 23.55 Q3.15 23.3 3.45 23.1 L3.7 23.1 M-4.25 24.1 Q-5.0 24.1 -5.05 23.4 -5.15 22.75 -4.55 22.75 -3.45 22.7 -3.4 23.35 L-3.45 23.9 Q-2.65 23.6 -2.55 24.35 L-2.85 24.95 -3.5 25.45 Q-4.25 25.45 -4.3 24.9 -4.35 24.3 -3.8 24.1 L-4.25 24.1 M-2.75 25.5 Q-2.9 24.6 -2.2 24.35 -1.6 24.0 -1.5 24.8 -1.4 25.9 -2.05 25.95 -2.7 25.95 -2.75 25.5" fill="#ffffff" fill-rule="evenodd" stroke="none"/>
      <path d="M2.0 23.6 L2.4 22.95 0.2 22.15 -1.8 22.75 -3.3 23.3 Q-3.25 23.7 -2.6 24.15 L-0.15 24.55 Q1.4 24.5 2.0 23.6 M3.9 22.15 L3.9 22.35 4.15 22.95 Q4.3 23.9 3.25 24.2 L2.35 24.6 1.1 24.95 -1.05 25.0 -1.5 25.15 -2.25 24.75 -3.8 24.2 Q-4.55 23.7 -4.7 22.35 L-4.7 22.2 -4.7 22.15 -4.6 21.75 -4.55 21.65 -4.55 21.6 -4.0 21.05 -3.85 20.65 -3.4 20.6 Q-2.85 20.6 -2.2 20.95 L0.45 21.05 2.95 20.8 Q3.7 20.75 3.85 21.8 L3.9 22.15" fill="#d3c4cc" fill-rule="evenodd" stroke="none"/>
      <path d="M2.0 23.6 Q1.4 24.5 -0.15 24.55 L-2.6 24.15 Q-3.25 23.7 -3.3 23.3 L-1.8 22.75 0.2 22.15 2.4 22.95 2.0 23.6" fill="#ffffff" fill-rule="evenodd" stroke="none"/>
      <path d="M2.8 20.35 L3.3 19.85 3.55 20.2 4.5 21.8 4.65 22.4 Q4.65 25.5 0.1 25.45 -4.35 25.35 -4.8 22.7 L-4.9 22.5 -4.7 21.8 -3.9 19.85 Q-3.8 19.85 -3.65 20.0 L-3.25 20.15 -3.25 20.25 Q-1.85 20.95 0.35 20.85 2.05 20.8 2.8 20.35 M3.2 20.75 L1.7 21.15 -0.9 21.15 -1.75 20.95 -2.65 20.85 -3.55 20.65 Q-4.6 21.75 -4.45 23.1 L-4.4 23.3 Q-3.8 24.8 0.0 24.9 L1.5 24.75 Q4.1 24.5 3.85 22.2 3.75 21.45 3.45 21.2 L3.45 21.15 3.2 20.75" fill="#000000" fill-rule="evenodd" stroke="none"/>
    </g>
  </defs>
</svg>
