<?xml version="1.0" encoding="UTF-8" standalone="no"?>
<svg xmlns:ffdec="https://www.free-decompiler.com/flash" xmlns:xlink="http://www.w3.org/1999/xlink" ffdec:objectType="frame" height="17.1px" width="19.45px" xmlns="http://www.w3.org/2000/svg">
  <g transform="matrix(1.0, 0.0, 0.0, 1.0, 9.85, -13.6)">
    <use ffdec:characterId="9" height="17.1" transform="matrix(1.0, 0.0, 0.0, 1.0, 0.0, 0.0)" width="19.45" xlink:href="#shape0"/>
  </g>
  <defs>
    <g id="shape0">
      <path d="M-1.85 27.85 Q-1.85 30.1 -6.75 30.1 -8.1 30.1 -8.8 29.55 L-9.45 28.85 Q-9.35 27.65 -8.95 27.95 L-8.75 27.95 -8.7 28.3 -8.75 28.5 -8.8 28.5 -8.75 28.5 -8.8 28.6 Q-8.8 29.05 -8.3 29.1 L-6.55 29.25 Q-2.65 29.25 -2.65 27.7 L-2.75 27.35 -2.6 27.15 Q-2.4 27.0 -2.25 27.0 -1.85 27.0 -1.85 27.85" fill="#ffffff" fill-rule="evenodd" stroke="none"/>
      <path d="M-4.35 29.4 Q-4.35 29.75 -4.7 29.75 L-5.3 29.25 Q-5.7 28.7 -6.5 28.7 -7.3 28.7 -7.9 29.2 L-8.45 29.7 Q-8.85 29.7 -8.85 29.15 -8.85 28.15 -6.4 28.05 -5.5 28.05 -4.9 28.55 -4.35 28.95 -4.35 29.4" fill="#0099cc" fill-rule="evenodd" stroke="none"/>
      <path d="M-8.05 28.65 Q-8.3 29.3 -8.5 29.3 L-8.85 28.95 -8.65 28.0 -8.8 27.4 Q-8.8 26.85 -8.3 27.1 -7.85 27.35 -7.85 27.9 L-8.05 28.65" fill="#0099cc" fill-rule="evenodd" stroke="none"/>
      <path d="M-2.1 27.35 L-2.3 27.1 Q-2.3 26.55 -1.8 26.85 -1.35 27.2 -1.25 28.2 -1.2 29.15 -3.05 29.95 -4.95 30.7 -6.3 30.7 L-8.65 30.3 Q-9.85 29.75 -9.85 28.75 -9.85 27.85 -8.95 27.6 L-8.85 27.65 -9.45 28.75 Q-9.45 29.2 -8.95 29.6 -8.2 30.15 -6.35 30.2 -4.5 30.2 -3.1 29.5 -1.75 28.8 -1.8 28.15 -1.9 27.5 -2.1 27.35" fill="#000000" fill-rule="evenodd" stroke="none"/>
      <path d="M9.2 28.85 L8.55 29.55 Q7.85 30.1 6.5 30.1 1.6 30.1 1.6 27.85 1.6 27.0 2.0 27.0 2.15 27.0 2.35 27.15 L2.5 27.35 2.4 27.7 Q2.4 29.25 6.3 29.25 L8.05 29.1 Q8.55 29.05 8.55 28.6 L8.5 28.5 8.45 28.3 8.5 27.95 8.7 27.95 Q9.1 27.65 9.2 28.85" fill="#ffffff" fill-rule="evenodd" stroke="none"/>
      <path d="M4.25 29.75 L4.85 29.25 Q5.25 28.7 6.05 28.7 6.85 28.7 7.45 29.2 L8.0 29.7 Q8.4 29.7 8.4 29.15 8.4 28.15 5.95 28.05 5.05 28.05 4.45 28.55 3.9 28.95 3.9 29.4 3.9 29.75 4.25 29.75" fill="#0099cc" fill-rule="evenodd" stroke="none"/>
      <path d="M7.6 28.65 Q7.85 29.3 8.05 29.3 L8.4 28.95 8.2 28.0 8.35 27.4 Q8.35 26.85 7.85 27.1 7.4 27.35 7.4 27.9 L7.6 28.65" fill="#0099cc" fill-rule="evenodd" stroke="none"/>
      <path d="M1.85 27.35 L2.05 27.1 Q2.05 26.55 1.55 26.85 1.1 27.2 1.0 28.2 0.95 29.15 2.8 29.95 4.7 30.7 6.05 30.7 L8.4 30.3 Q9.6 29.75 9.6 28.75 9.6 27.85 8.7 27.6 L8.6 27.65 9.2 28.75 8.7 29.6 Q7.95 30.15 6.1 30.2 4.25 30.2 2.85 29.5 1.5 28.8 1.55 28.15 1.65 27.5 1.85 27.35" fill="#000000" fill-rule="evenodd" stroke="none"/>
      <path d="M-4.55 22.25 L-4.5 22.15 -4.35 21.6 -4.25 21.2 -4.2 21.0 Q-3.8 20.2 -2.85 20.25 L-0.7 20.3 Q3.15 19.9 3.95 20.35 4.35 20.6 4.5 21.2 L4.55 21.55 4.75 21.85 4.75 23.35 4.15 24.05 2.3 24.3 Q1.65 24.4 1.3 23.8 L1.25 23.45 1.5 23.0 1.7 22.8 -1.6 23.2 -1.3 23.7 -1.3 24.0 -1.3 24.1 -2.05 24.5 -3.0 24.45 Q-3.75 24.25 -4.1 23.8 L-4.5 22.55 -4.55 22.25" fill="#6699cc" fill-rule="evenodd" stroke="none"/>
      <path d="M4.75 21.85 L5.6 24.0 5.1 24.55 4.2 24.75 3.15 25.05 1.65 25.25 0.55 25.0 0.15 23.95 0.1 23.95 0.0 24.8 Q-0.15 25.35 -1.65 25.35 L-3.35 25.2 -4.5 24.9 Q-4.8 24.7 -5.2 24.65 L-5.65 24.35 -5.1 23.05 -4.55 22.25 -4.5 22.55 -4.1 23.8 Q-3.75 24.25 -3.0 24.45 L-2.05 24.5 -1.3 24.1 -1.3 24.0 -1.3 23.7 -1.6 23.2 1.7 22.8 1.5 23.0 1.25 23.45 1.3 23.8 Q1.65 24.4 2.3 24.3 L4.15 24.05 4.75 23.35 4.75 21.85" fill="#356a9f" fill-rule="evenodd" stroke="none"/>
      <path d="M4.25 21.15 L4.45 21.2 4.75 21.5 4.85 21.85 4.8 22.05 6.0 24.05 Q6.0 24.5 4.05 25.05 L1.55 25.5 Q1.0 25.5 0.25 24.6 L0.3 24.95 -0.15 25.4 -1.9 25.5 -3.7 25.15 -4.8 24.75 -4.8 24.7 -4.35 24.7 -3.35 24.95 -2.35 25.15 -0.3 25.0 -0.25 24.0 -0.05 24.0 0.05 23.95 Q0.4 23.95 0.75 24.55 1.0 25.1 1.5 25.1 L3.95 24.65 Q5.35 24.2 5.35 24.0 L4.55 22.2 4.55 22.1 4.35 21.8 4.2 21.4 4.25 21.2 4.25 21.15 M-5.85 24.2 L-5.5 23.5 -5.05 22.75 -4.4 21.7 -4.45 21.45 -4.4 21.2 -4.4 21.15 -4.5 21.05 -4.1 21.15 -4.05 21.2 -3.95 21.4 -4.05 21.35 -4.05 21.55 -4.15 21.75 -4.65 22.8 Q-5.3 23.7 -5.3 24.15 L-5.0 24.55 -5.3 24.8 -5.85 24.55 -5.85 24.2" fill="#000000" fill-rule="evenodd" stroke="none"/>
      <path d="M3.6 14.1 L4.05 14.1 Q2.9 15.65 0.65 16.55 3.2 15.75 5.45 14.35 L5.95 13.9 6.0 13.9 6.65 14.1 6.7 14.35 6.7 14.5 5.75 15.4 5.55 15.6 6.0 17.1 6.0 17.3 Q5.25 18.35 3.95 18.0 3.75 16.9 3.65 17.5 L3.5 17.6 2.45 17.55 Q3.5 20.2 3.0 20.8 2.5 21.35 1.05 21.7 L-3.6 21.35 Q-4.2 21.45 -4.15 21.05 L-3.55 20.6 -3.55 20.5 -3.55 17.65 -3.55 17.4 -4.0 18.25 -4.05 18.3 -5.55 18.15 Q-6.5 17.55 -6.8 16.3 L-6.8 16.25 -6.1 15.85 -6.2 15.6 -5.95 14.8 -5.6 14.45 -4.7 14.55 -2.15 16.75 Q-2.95 15.75 -3.3 14.45 L-3.1 14.4 Q-2.65 14.4 -2.15 14.7 L-1.85 14.8 Q-1.5 14.8 -1.2 15.75 -0.8 16.6 -0.8 17.25 L-0.15 15.7 0.5 14.55 Q0.8 14.25 0.85 14.8 L1.65 14.5 3.6 14.1" fill="#ffff99" fill-rule="evenodd" stroke="none"/>
      <path d="M5.95 13.9 L5.45 14.35 Q3.2 15.75 0.65 16.55 2.9 15.65 4.05 14.1 L3.6 14.1 3.95 14.05 Q4.3 14.05 4.3 14.5 L5.0 14.15 5.95 13.9 M-3.3 14.45 Q-2.95 15.75 -2.15 16.75 L-4.7 14.55 -5.6 14.45 -5.2 14.25 -4.85 14.2 -4.0 14.4 -3.8 14.5 -3.3 14.45 M-6.8 16.3 Q-6.5 17.55 -5.55 18.15 L-4.05 18.3 -4.0 18.25 -3.55 17.4 -3.55 17.65 -3.55 20.5 -3.55 20.6 -4.15 21.05 Q-4.2 21.45 -3.6 21.35 L1.05 21.7 Q2.5 21.35 3.0 20.8 3.5 20.2 2.45 17.55 L3.5 17.6 3.65 17.5 Q3.75 16.9 3.95 18.0 5.25 18.35 6.0 17.3 L6.0 17.1 5.55 15.6 5.75 15.4 6.7 14.5 6.7 14.35 6.65 14.1 6.9 14.4 7.1 15.0 6.85 15.95 6.65 16.3 7.45 16.45 Q8.05 16.7 8.05 17.1 L7.35 17.65 6.3 18.7 4.9 20.4 4.1 19.5 4.3 20.4 4.7 20.9 5.05 21.45 Q5.1 21.8 3.4 22.35 L0.7 22.9 -0.5 22.65 -2.7 22.6 -5.05 22.45 Q-5.55 22.3 -5.65 22.15 L-5.7 21.8 Q-5.7 21.3 -5.15 21.1 -4.7 20.9 -4.7 20.5 L-4.6 19.9 -4.9 19.95 Q-5.35 19.95 -6.4 18.55 L-7.2 17.95 Q-7.55 17.7 -7.55 17.25 -7.55 16.75 -6.8 16.3" fill="#fdd124" fill-rule="evenodd" stroke="none"/>
      <path d="M0.9 18.4 L0.75 19.85 0.4 19.45 0.55 16.9 0.7 16.9 Q0.9 17.15 0.9 18.4" fill="#003366" fill-rule="evenodd" stroke="none"/>
      <path d="M1.0 20.35 L0.55 20.45 Q0.05 20.45 0.05 19.85 0.05 18.85 1.0 19.8 L1.0 20.35" fill="#003366" fill-rule="evenodd" stroke="none"/>
      <path d="M-1.4 18.65 Q-1.4 19.3 -1.7 19.45 L-1.9 18.4 Q-1.9 17.6 -1.7 17.4 -1.4 17.55 -1.4 18.65" fill="#003366" fill-rule="evenodd" stroke="none"/>
      <path d="M-1.6 19.8 Q-2.3 19.8 -2.3 19.35 -2.3 18.75 -1.7 18.9 -1.1 19.05 -1.1 19.4 -1.1 19.8 -1.6 19.8" fill="#003366" fill-rule="evenodd" stroke="none"/>
      <path d="M6.1 14.1 Q5.05 14.1 4.8 14.4 L4.7 14.7 4.5 14.85 Q4.15 14.85 4.2 14.55 L4.3 14.1 4.05 13.95 2.05 14.35 1.05 14.7 0.9 14.9 Q0.65 14.7 0.7 14.5 0.1 15.0 -0.3 15.85 L-0.9 17.5 -1.0 17.5 -1.05 17.1 -0.9 16.6 -1.4 15.5 -2.05 15.1 -2.85 14.5 -3.1 14.5 Q-3.1 15.1 -3.4 15.1 L-3.6 14.75 -3.75 14.7 -4.7 14.45 Q-5.2 14.45 -5.6 14.8 L-5.9 15.2 -5.35 15.85 -5.45 16.05 -5.6 16.1 -5.75 16.1 Q-7.25 16.45 -7.25 17.4 L-6.7 17.9 -5.75 18.55 Q-5.15 19.85 -4.7 19.85 L-4.35 19.75 -4.25 19.8 -4.2 19.9 -4.4 20.4 Q-4.4 20.85 -4.85 21.35 L-5.05 21.3 -5.05 21.2 -5.35 21.7 Q-5.35 22.35 -3.95 22.35 L-0.75 22.1 -0.2 22.3 -0.35 22.5 -0.3 22.5 0.55 22.65 3.9 22.15 4.8 21.45 4.55 21.05 4.55 20.5 4.25 20.1 3.85 19.45 3.9 19.2 Q4.2 19.25 4.6 19.65 L5.1 20.15 7.8 16.95 7.55 16.55 Q7.25 16.3 6.95 16.3 L6.5 16.4 6.45 16.4 6.2 16.6 6.1 16.4 Q6.1 16.05 6.45 15.65 L6.8 14.85 Q6.8 14.1 6.1 14.1 M7.35 14.85 L7.2 15.75 7.45 15.8 Q8.5 16.15 8.5 17.05 L6.65 18.9 Q6.25 19.3 5.8 20.25 L5.0 20.7 5.25 21.4 Q5.25 22.0 4.4 22.45 3.3 23.05 1.2 23.05 L-0.3 22.95 -0.9 22.7 -0.9 22.5 -1.4 22.6 -4.25 22.8 Q-5.85 22.75 -5.85 21.75 -5.85 20.9 -4.85 20.8 L-4.85 20.7 -4.75 20.45 -5.5 19.75 -6.1 18.85 Q-6.35 18.65 -7.25 18.2 L-7.75 17.5 -7.3 16.4 -6.2 15.65 -6.35 15.3 Q-6.35 14.9 -6.0 14.55 -5.55 14.1 -4.7 14.1 L-3.7 14.35 Q-3.55 13.4 -2.35 14.15 -1.15 14.9 -1.05 15.45 L-0.75 16.05 Q-0.05 14.15 0.75 14.15 1.15 14.15 1.15 14.4 L1.15 14.45 2.05 14.05 4.25 13.6 Q4.6 13.6 4.75 13.9 5.05 13.6 5.95 13.6 7.35 13.7 7.35 14.85 M4.3 15.05 Q4.3 15.6 0.1 16.75 L2.2 15.6 Q3.75 14.85 4.25 14.9 L4.3 15.05 M-3.15 15.6 L-3.05 15.6 -1.6 17.1 -1.6 17.25 -1.7 17.3 -3.15 15.85 -3.15 15.6" fill="#000000" fill-rule="evenodd" stroke="none"/>
    </g>
  </defs>
</svg>
