<?xml version="1.0" encoding="UTF-8" standalone="no"?>
<svg xmlns:ffdec="https://www.free-decompiler.com/flash" xmlns:xlink="http://www.w3.org/1999/xlink" ffdec:objectType="frame" height="24.85px" width="52.55px" xmlns="http://www.w3.org/2000/svg">
  <g transform="matrix(1.0, 0.0, 0.0, 1.0, 38.85, -7.1)">
    <use ffdec:characterId="27" height="7.45" transform="matrix(1.0, 0.0, 0.0, 1.0, -6.2, 28.2)" width="9.9" xlink:href="#sprite0"/>
    <use ffdec:characterId="27" height="7.45" transform="matrix(-1.0, 0.0, 0.0, 1.0, 6.5, 27.9)" width="9.9" xlink:href="#sprite0"/>
    <use ffdec:characterId="4" height="12.8" transform="matrix(1.0, 0.0, 0.0, 1.0, -8.35, 21.35)" width="9.5" xlink:href="#sprite1"/>
    <use ffdec:characterId="4" height="12.8" transform="matrix(-1.0, 0.0, 0.0, 1.0, 8.95, 21.3)" width="9.5" xlink:href="#sprite1"/>
    <use ffdec:characterId="29" height="15.35" transform="matrix(1.0, 0.0, 0.0, 1.0, -4.0, 20.6)" width="8.95" xlink:href="#sprite2"/>
    <use ffdec:characterId="29" height="15.35" transform="matrix(-1.0, 0.0, 0.0, 1.0, 4.25, 20.6)" width="8.95" xlink:href="#sprite2"/>
    <use ffdec:characterId="33" height="22.7" transform="matrix(1.0, 0.0, 0.0, 1.0, -24.05, 16.4)" width="34.65" xlink:href="#sprite3"/>
  </g>
  <defs>
    <g id="sprite0">
      <use ffdec:characterId="26" height="7.45" transform="matrix(1.0, 0.0, 0.0, 1.0, 0.0, 0.0)" width="9.9" xlink:href="#shape0"/>
    </g>
    <g id="shape0">
      <path d="M4.25 -0.4 L4.5 0.15 4.15 1.4 2.4 1.9 0.35 2.45 -2.4 3.0 Q-3.35 3.0 -3.95 1.05 L-4.35 -0.95 Q-4.35 -3.05 -1.55 -2.95 -1.45 -3.25 -0.85 -3.25 0.0 -3.25 0.7 -2.35 L1.5 -1.3 Q2.05 -1.0 3.55 -0.7 L3.9 -0.6 3.7 -0.55 2.7 0.0 Q1.9 0.3 1.25 0.95 L1.7 0.95 Q4.25 0.15 4.25 -0.4 M-2.95 0.75 Q-2.95 0.35 -3.4 0.4 -3.85 0.45 -3.85 0.85 -3.8 1.35 -3.45 1.35 -2.95 1.35 -2.95 0.75 M-3.2 -0.7 L-3.05 -1.4 Q-1.7 -2.15 -1.7 -2.6 L-2.1 -2.8 Q-2.85 -2.8 -3.45 -2.0 -3.95 -1.3 -3.95 -0.7 -4.05 -0.15 -3.65 -0.15 -3.3 -0.15 -3.2 -0.7" fill="#000000" fill-rule="evenodd" stroke="none"/>
      <path d="M3.9 -0.6 L4.25 -0.4 Q4.25 0.15 1.7 0.95 L1.25 0.95 Q1.9 0.3 2.7 0.0 L3.7 -0.55 3.9 -0.6 M-3.2 -0.7 Q-3.3 -0.15 -3.65 -0.15 -4.05 -0.15 -3.95 -0.7 -3.95 -1.3 -3.45 -2.0 -2.85 -2.8 -2.1 -2.8 L-1.7 -2.6 Q-1.7 -2.15 -3.05 -1.4 L-3.2 -0.7 M-2.95 0.75 Q-2.95 1.35 -3.45 1.35 -3.8 1.35 -3.85 0.85 -3.85 0.45 -3.4 0.4 -2.95 0.35 -2.95 0.75" fill="#ffffff" fill-rule="evenodd" stroke="none"/>
      <path d="M3.6 -1.05 L4.35 -0.95 4.5 -0.75 Q4.9 -0.75 4.95 -0.25 L4.95 0.35 Q4.95 1.95 4.0 2.4 L0.15 3.25 -2.65 3.75 -3.4 3.35 Q-3.9 3.15 -4.4 1.75 -4.95 0.35 -4.95 -0.5 -4.95 -1.65 -4.55 -2.2 L-4.45 -2.3 -4.3 -2.6 Q-3.7 -3.5 -2.0 -3.6 L-1.15 -3.7 Q0.35 -3.7 1.2 -2.6 2.2 -1.35 2.75 -1.15 L2.75 -1.1 3.6 -1.05 M4.2 -0.4 Q1.9 -0.4 0.95 -1.75 0.25 -2.8 -0.8 -3.05 L-0.95 -3.0 -1.05 -3.05 -1.0 -2.85 -1.6 -2.9 -2.0 -2.9 Q-3.1 -2.9 -3.7 -2.25 -4.1 -1.75 -4.1 -0.95 L-3.55 1.0 -3.15 1.8 -1.15 1.3 1.35 0.85 3.25 0.2 4.15 -0.15 4.25 -0.2 4.2 -0.4 M4.3 0.35 L2.45 1.1 2.55 1.1 3.0 1.45 3.15 1.6 4.0 1.35 4.05 1.35 4.3 0.35 M1.95 1.25 Q-0.75 2.0 -2.8 2.0 L-3.05 2.0 Q-2.65 2.6 -2.2 2.6 L1.6 2.0 1.95 1.9 Q2.0 1.3 2.35 1.15 L1.95 1.25" fill="#000000" fill-rule="evenodd" stroke="none"/>
    </g>
    <g id="sprite1">
      <use ffdec:characterId="3" height="12.8" transform="matrix(1.0, 0.0, 0.0, 1.0, 0.0, 0.0)" width="9.5" xlink:href="#shape1"/>
    </g>
    <g id="shape1">
      <path d="M1.0 1.6 L0.65 1.5 -1.05 0.35 -1.7 -0.15 Q-2.1 -0.5 -2.1 -0.85 L-1.8 -1.55 -1.55 -1.95 -1.0 -2.75 Q-0.8 -2.8 -0.55 -2.55 L-0.5 -2.65 0.5 -1.6 0.45 -1.6 0.05 -0.9 -0.9 0.45 -0.4 0.8 -0.3 0.7 0.25 1.05 0.95 1.2 1.0 1.45 1.15 1.65 1.0 1.6 M1.6 1.5 L1.45 1.65 1.35 1.65 1.6 1.5" fill="#ffcc33" fill-rule="evenodd" stroke="none"/>
      <path d="M-0.1 2.3 L-0.1 2.35 -0.1 2.65 -0.1 2.7 0.1 2.4 Q0.55 2.4 0.95 2.9 L1.0 3.65 Q1.0 4.25 0.6 4.8 L0.55 4.85 0.45 4.95 Q-0.1 5.65 -1.05 5.8 -1.5 5.6 -1.65 5.8 -2.5 5.8 -3.15 5.3 L-3.95 4.5 -4.4 3.3 Q-4.4 2.45 -4.0 1.35 L-3.9 1.35 -3.9 1.45 -3.9 1.5 -3.35 0.85 -3.4 1.25 -3.55 1.75 -3.7 2.55 -3.6 3.2 Q-3.1 4.1 -1.9 4.1 -1.0 4.1 -0.8 3.3 L-0.75 2.3 -0.5 2.0 -0.45 2.0 Q-0.2 2.0 -0.1 2.3" fill="#cccccc" fill-rule="evenodd" stroke="none"/>
      <path d="M0.1 2.4 L-0.1 2.7 -0.1 2.65 -0.1 2.35 -0.1 2.3 0.1 2.4 M-0.5 2.0 L-0.75 2.3 -0.8 3.3 Q-1.0 4.1 -1.9 4.1 -3.1 4.1 -3.6 3.2 L-3.7 2.55 -3.55 1.75 -3.4 1.25 -3.35 0.85 -3.9 1.5 -3.9 1.45 -3.7 0.95 Q-3.1 -0.35 -2.4 -0.35 L-1.7 0.5 -0.95 1.65 -0.5 2.0 M-1.05 5.8 Q-0.1 5.65 0.45 4.95 L0.55 4.85 -0.1 5.6 -0.75 5.75 -0.9 5.8 -0.95 5.8 -1.0 5.8 -1.05 5.8" fill="#ffffff" fill-rule="evenodd" stroke="none"/>
      <path d="M-1.8 -1.55 L-1.8 -1.65 Q-1.8 -2.25 -1.25 -3.0 L-0.4 -4.15 0.5 -5.35 1.1 -6.0 1.4 -6.25 1.65 -6.4 2.55 -6.4 Q3.8 -6.4 4.35 -5.55 4.75 -5.0 4.75 -4.4 4.75 -3.5 4.35 -2.75 L3.3 -1.2 2.85 -0.55 2.4 0.25 Q2.1 1.75 1.45 1.75 L1.0 1.6 1.15 1.65 1.2 1.65 1.3 1.65 1.35 1.65 1.45 1.65 1.6 1.5 1.65 1.5 1.75 1.25 1.8 1.15 2.05 0.5 2.0 0.25 2.3 -0.1 1.75 -0.45 1.15 -1.0 0.5 -1.6 -0.5 -2.65 -0.55 -2.55 Q-0.8 -2.8 -1.0 -2.75 L-1.55 -1.95 -1.8 -1.55" fill="#000000" fill-rule="evenodd" stroke="none"/>
      <path d="M0.5 -1.6 L1.15 -1.0 1.75 -0.45 2.3 -0.1 2.0 0.25 2.05 0.5 1.8 1.15 1.75 1.25 1.65 1.5 1.6 1.5 1.35 1.65 1.3 1.65 1.2 1.65 1.15 1.65 1.0 1.45 0.95 1.2 0.25 1.05 -0.3 0.7 -0.4 0.8 -0.9 0.45 0.05 -0.9 0.45 -1.6 0.5 -1.6" fill="#cc6633" fill-rule="evenodd" stroke="none"/>
      <path d="M-2.65 -1.0 L-2.4 -1.05 -1.1 -3.45 -0.05 -4.9 0.75 -5.7 Q1.4 -6.15 1.4 -5.4 L-0.1 -3.25 -1.6 -1.05 -0.95 -0.2 -0.2 0.6 0.95 1.25 1.35 1.45 Q1.65 0.65 2.5 -0.8 3.95 -3.35 3.8 -1.9 L3.95 -1.95 4.2 -1.8 4.25 -1.65 3.65 -0.9 2.85 0.5 2.3 1.65 2.15 2.25 2.0 2.55 2.05 2.7 1.75 3.05 1.7 3.05 1.65 3.3 Q1.5 3.05 1.1 3.0 L0.6 2.8 0.6 2.85 Q-0.4 2.45 -1.35 1.45 L-2.3 0.15 -2.65 -1.0 M0.4 6.15 L0.3 6.2 0.2 6.25 0.4 6.15" fill="#000000" fill-rule="evenodd" stroke="none"/>
      <path d="M1.65 3.3 L1.55 3.5 1.1 4.65 0.9 5.3 0.9 5.35 0.65 5.8 0.55 6.0 0.4 6.15 0.2 6.25 -0.95 6.4 -1.15 6.4 Q-3.1 6.4 -3.95 5.35 -4.75 4.45 -4.75 2.75 -4.75 0.6 -3.4 -0.5 L-3.35 -0.5 -3.3 -0.55 -2.65 -1.0 -2.3 0.15 -2.3 0.2 -2.35 0.0 -2.4 -0.05 -2.75 0.2 Q-3.5 0.7 -3.7 1.3 L-3.9 2.05 -4.1 3.1 Q-4.1 3.8 -3.5 4.65 -2.75 5.65 -1.6 5.7 -2.15 5.35 -2.15 4.5 L-1.8 3.5 -1.5 3.0 Q-1.5 2.75 -2.1 2.45 -1.65 2.1 -1.3 2.45 -1.0 2.7 -1.0 3.05 L-1.4 4.25 -1.4 4.35 -1.1 5.1 -0.45 5.25 -0.1 5.25 0.65 4.0 0.7 3.9 0.75 3.4 0.8 3.3 0.55 2.9 0.6 2.85 0.6 2.8 1.1 3.0 Q1.5 3.05 1.65 3.3" fill="#333333" fill-rule="evenodd" stroke="none"/>
    </g>
    <g id="sprite2">
      <use ffdec:characterId="28" height="15.35" transform="matrix(1.0, 0.0, 0.0, 1.0, 0.0, 0.0)" width="8.95" xlink:href="#shape2"/>
    </g>
    <g id="shape2">
      <path d="M4.0 4.15 L4.25 3.6 Q4.25 4.85 3.9 4.85 L3.75 4.8 3.45 5.3 4.0 4.15 M1.35 7.0 Q0.4 6.85 -0.9 6.15 -2.4 5.3 -2.4 4.85 L-2.3 4.65 -2.35 5.0 -1.45 5.75 -0.45 6.3 Q0.0 6.25 0.9 6.75 L1.25 6.95 1.35 7.0" fill="#0066cc" fill-rule="evenodd" stroke="none"/>
      <path d="M-2.9 -5.55 L-2.25 -4.95 -1.65 -4.35 -1.1 -3.4 -0.75 -2.9 0.85 -4.05 Q2.7 -5.2 3.25 -5.3 L3.2 -5.65 3.1 -5.95 3.05 -6.0 0.75 -4.95 Q0.45 -4.95 0.4 -5.25 0.4 -5.85 2.05 -6.6 L3.7 -6.55 3.95 -5.15 3.8 -4.75 1.9 -3.35 1.7 -3.2 1.7 -2.95 1.75 -1.8 1.55 0.8 1.5 0.8 0.9 0.6 0.85 0.4 Q0.6 0.1 0.65 -0.75 L0.6 -1.65 0.5 -2.4 0.05 -2.15 Q-0.45 -1.85 -0.55 -1.85 -1.0 -1.85 -1.95 -3.05 L-3.4 -4.8 -3.65 -5.1 Q-3.65 -5.8 -3.05 -5.6 L-2.9 -5.55 M-0.5 -5.55 L-0.3 -5.3 0.0 -4.55 -0.05 -4.2 Q-0.15 -3.9 -0.45 -3.9 L-1.65 -5.5 -1.65 -5.55 -1.05 -5.8 -0.5 -5.55 M4.25 2.7 L4.05 2.75 3.9 2.95 4.25 2.6 4.25 2.7 M2.75 4.05 L2.65 4.45 2.1 6.45 2.15 6.6 2.3 6.75 2.65 6.4 1.75 7.0 1.65 7.0 1.35 7.0 1.25 6.95 0.9 6.75 Q0.0 6.25 -0.45 6.3 L-1.45 5.75 -2.35 5.0 -2.3 4.65 -2.1 4.4 -2.1 4.35 -2.05 4.25 -1.9 4.2 1.35 5.85 1.6 5.45 2.35 4.5 2.75 4.05 M3.1 5.85 L4.0 4.15 3.45 5.3 3.3 5.55 3.2 5.65 3.1 5.85 M4.25 3.5 L4.15 3.35 4.25 3.35 4.25 3.5" fill="#ffcc33" fill-rule="evenodd" stroke="none"/>
      <path d="M1.65 0.9 L3.75 0.85 4.2 0.85 4.2 1.75 Q4.6 1.75 4.6 2.1 L4.25 2.55 3.2 2.65 2.5 2.6 2.55 2.35 2.25 1.9 2.5 1.75 2.65 1.5 2.35 1.2 1.6 1.0 1.65 0.9 M1.45 2.45 L1.25 2.45 1.3 2.4 1.45 2.45 M-0.4 1.9 L-0.75 1.65 -0.7 1.35 -0.2 0.95 -0.15 1.1 -0.3 1.45 -0.25 1.65 -0.6 1.7 -0.6 1.75 -0.4 1.9" fill="#ff0000" fill-rule="evenodd" stroke="none"/>
      <path d="M1.55 0.8 L1.75 -1.8 1.7 -2.95 1.7 -3.2 1.9 -3.35 3.8 -4.75 3.95 -5.15 3.7 -6.55 2.05 -6.6 Q0.4 -5.85 0.4 -5.25 0.45 -4.95 0.75 -4.95 L3.05 -6.0 3.1 -5.95 3.2 -5.65 3.25 -5.3 Q2.7 -5.2 0.85 -4.05 L-0.75 -2.9 -1.1 -3.4 -1.65 -4.35 -2.25 -4.95 -2.9 -5.55 -1.65 -5.55 -1.65 -5.5 -0.45 -3.9 Q-0.15 -3.9 -0.05 -4.2 L0.0 -4.55 -0.3 -5.3 -0.5 -5.55 Q0.4 -5.6 1.35 -6.3 2.35 -7.1 3.45 -7.1 L3.45 -7.15 Q3.5 -7.8 3.85 -7.6 4.35 -7.4 4.3 -6.3 L4.2 -4.6 4.2 0.85 3.75 0.85 1.65 0.9 1.5 0.9 1.55 0.8 M-3.4 -4.8 L-1.95 -3.05 Q-1.0 -1.85 -0.55 -1.85 -0.45 -1.85 0.05 -2.15 L0.5 -2.4 0.6 -1.65 0.65 -0.75 Q0.6 0.1 0.85 0.4 L0.9 0.6 0.95 0.7 0.95 0.75 0.7 0.7 0.45 0.65 Q-0.05 0.55 -0.05 0.85 L0.0 0.9 -0.1 0.9 -0.2 0.95 -0.7 1.35 -0.65 0.65 -0.65 0.2 -0.55 -0.05 -0.55 -0.5 Q-0.55 -1.45 -1.75 -2.65 L-2.05 -3.0 -3.4 -4.8 M4.25 2.6 L3.9 2.95 3.85 3.05 3.8 3.15 Q3.5 3.2 3.15 3.55 L2.75 4.05 2.35 4.5 1.6 5.45 1.35 5.85 -1.9 4.2 -2.05 4.25 -1.5 3.4 Q-0.95 2.55 -0.75 1.65 L-0.4 1.9 0.0 2.1 0.05 2.1 0.35 2.2 0.55 2.25 1.25 2.45 1.45 2.45 1.55 2.5 1.95 2.55 2.35 2.6 2.5 2.6 3.2 2.65 4.25 2.55 4.25 2.6" fill="#000000" fill-rule="evenodd" stroke="none"/>
      <path d="M3.9 2.95 L4.05 2.75 4.25 2.7 4.25 3.1 4.25 3.25 4.25 3.35 4.15 3.35 4.25 3.5 4.25 3.6 4.0 4.15 3.1 5.85 2.65 6.4 2.3 6.75 2.15 6.6 2.1 6.45 2.65 4.45 2.75 4.05 3.15 3.55 Q3.5 3.2 3.8 3.15 L3.85 3.05 3.9 2.95" fill="#cc6633" fill-rule="evenodd" stroke="none"/>
      <path d="M1.55 0.8 L1.5 0.9 1.65 0.9 1.6 1.0 2.35 1.2 2.65 1.5 2.5 1.75 2.25 1.9 2.55 2.35 2.5 2.6 2.35 2.6 1.95 2.55 1.55 2.5 1.45 2.45 1.3 2.4 1.25 2.45 0.55 2.25 0.35 2.2 0.05 2.1 0.0 2.1 -0.4 1.9 -0.6 1.75 -0.6 1.7 -0.25 1.65 -0.3 1.45 -0.15 1.1 -0.2 0.95 -0.1 0.9 0.0 0.9 -0.05 0.85 Q-0.05 0.55 0.45 0.65 L0.7 0.7 0.95 0.75 0.95 0.7 0.9 0.6 1.5 0.8 1.55 0.8" fill="#990000" fill-rule="evenodd" stroke="none"/>
      <path d="M3.85 -6.8 L2.25 -6.55 1.3 -6.1 0.75 -5.75 0.45 -5.5 0.3 -5.4 0.05 -5.2 -0.05 -5.25 0.15 -5.35 -2.9 -5.25 -2.95 -4.85 -3.15 -4.45 -3.3 -4.35 -3.55 -4.3 Q-3.9 -4.3 -4.35 -5.6 -4.35 -6.4 -2.05 -6.3 L0.05 -5.95 0.2 -6.05 Q0.3 -6.55 1.1 -7.0 L3.1 -7.55 4.0 -7.65 4.2 -7.6 4.2 -6.9 4.15 -6.85 4.1 -6.85 4.0 -6.85 3.85 -6.8 M0.15 1.4 L0.15 1.45 0.05 1.65 -0.05 1.8 -2.3 4.9 -2.3 4.95 -0.45 6.25 0.9 6.65 1.6 6.9 1.95 7.05 2.0 7.0 2.1 7.0 2.65 6.05 3.25 5.05 4.0 3.75 4.2 3.5 4.2 4.9 4.0 5.35 3.7 5.95 3.35 6.9 Q2.85 7.7 2.1 7.7 L1.95 7.7 1.45 7.65 0.25 7.4 0.1 7.35 Q-1.35 7.0 -1.85 6.6 -3.25 5.35 -3.25 4.85 -3.25 4.35 -1.85 2.6 L-1.0 1.65 -0.9 1.45 -0.7 1.25 -0.65 1.1 -0.65 0.75 Q-0.65 -0.5 -1.0 -1.9 L-1.0 -2.25 Q-0.25 -1.75 -0.05 -1.05 L0.1 0.0 0.2 0.85 0.15 1.4" fill="#000000" fill-rule="evenodd" stroke="none"/>
    </g>
    <g id="sprite3">
      <use ffdec:characterId="32" height="22.7" transform="matrix(1.0, 0.0, 0.0, 1.0, 0.0, 0.0)" width="34.65" xlink:href="#shape3"/>
    </g>
    <g id="shape3">
      <path d="M11.0 4.85 L11.6 4.25 12.25 3.7 Q11.75 4.0 11.75 4.55 11.75 5.0 12.05 5.0 L13.6 4.6 14.95 4.4 15.2 4.05 Q15.2 3.7 14.8 3.6 L13.3 3.4 14.3 3.35 Q15.9 3.35 15.8 4.35 L15.65 4.8 15.15 5.45 15.65 5.55 Q16.4 5.55 16.4 5.25 L16.5 5.55 16.15 5.95 Q15.45 6.05 15.0 6.3 14.2 6.5 13.8 6.65 L13.7 6.75 12.9 7.45 12.55 7.8 12.5 7.8 12.05 8.2 11.75 8.5 11.7 8.55 10.25 9.9 9.2 10.65 9.0 10.95 8.0 12.0 6.5 12.85 Q4.1 12.85 3.35 11.55 3.05 11.05 3.05 9.95 L3.15 8.9 Q3.2 9.3 3.6 9.3 L4.15 9.1 4.65 8.7 4.6 8.95 4.7 9.25 5.35 9.5 5.85 9.25 5.9 9.2 6.1 8.85 6.2 9.1 Q6.3 9.35 6.6 9.35 7.0 9.35 7.0 8.65 7.0 7.7 5.2 7.6 L4.4 7.8 3.65 8.0 3.35 8.4 3.25 8.65 Q3.7 7.1 5.55 7.1 6.45 7.1 6.85 7.9 L7.2 7.9 7.55 8.0 Q7.9 7.6 8.8 6.95 L9.45 6.5 9.6 6.4 9.75 6.25 10.1 5.95 10.35 5.65 10.7 5.15 10.75 5.1 11.0 4.85 M13.15 7.3 L13.4 7.05 Q14.45 6.1 14.5 6.95 L14.5 7.05 14.05 8.15 13.6 8.8 13.15 9.0 Q12.25 9.0 12.25 8.45 12.25 8.3 12.4 8.1 L12.4 8.15 12.5 8.55 Q12.65 8.95 12.9 8.95 13.45 8.95 13.95 8.2 L14.35 7.3 14.05 7.05 13.15 7.3 M14.4 8.4 L13.9 8.8 13.85 8.8 14.4 8.4 M12.35 10.2 L12.75 10.3 13.8 10.5 15.35 10.55 15.4 10.5 14.45 10.25 14.6 10.25 15.35 10.1 16.2 9.9 Q17.0 9.9 17.0 10.3 L16.85 10.65 16.95 11.0 Q16.95 11.45 16.2 11.8 L14.55 12.3 13.05 12.3 Q11.55 12.25 10.55 11.7 L10.35 11.6 11.15 11.7 12.15 11.15 12.4 10.45 12.35 10.2 M10.05 11.35 Q9.7 11.0 9.7 10.65 L9.95 10.25 10.4 10.0 Q10.7 9.25 11.3 9.8 L11.35 9.85 11.2 9.85 Q9.95 10.0 9.95 11.0 L10.05 11.35 M11.65 9.6 L11.7 9.55 11.75 9.6 11.65 9.6 M18.2 8.2 L18.25 8.2 Q19.2 8.45 19.2 9.2 L18.75 9.8 Q18.2 10.15 17.45 10.15 L17.25 10.1 Q17.65 10.05 18.05 9.5 L18.35 8.6 18.2 8.2 M16.65 9.55 L16.6 9.35 17.0 8.6 17.2 8.4 17.2 8.75 16.8 9.65 16.85 9.8 16.65 9.65 16.65 9.55 M7.3 8.35 L7.05 8.4 7.25 9.55 7.25 9.6 7.85 9.25 Q7.35 8.8 7.3 8.35" fill="#ff9900" fill-rule="evenodd" stroke="none"/>
      <path d="M14.5 6.95 Q14.95 6.95 14.95 7.45 L14.65 8.0 14.5 8.25 14.4 8.4 13.85 8.8 13.8 8.8 13.6 8.8 14.05 8.15 14.5 7.05 14.5 6.95 M11.75 9.6 L12.2 9.4 Q12.8 9.4 12.85 9.85 L12.85 9.95 12.75 10.3 12.35 10.2 Q12.2 9.8 11.55 9.85 L11.75 9.6 M16.9 10.0 L16.65 9.85 16.6 9.7 16.65 9.55 16.65 9.65 16.85 9.8 16.9 10.0" fill="#330000" fill-rule="evenodd" stroke="none"/>
      <path d="M11.75 9.6 L11.55 9.85 11.35 9.85 11.3 9.8 Q11.4 9.65 11.65 9.6 L11.75 9.6 M12.75 10.3 L12.85 9.95 12.85 9.85 14.45 10.25 15.4 10.5 15.35 10.55 13.8 10.5 12.75 10.3" fill="#66514f" fill-rule="evenodd" stroke="none"/>
      <path d="M-13.85 -8.85 L-13.75 -8.9 -11.15 -7.6 -8.1 -5.9 -4.4 -3.8 -2.25 -2.35 1.6 -0.6 4.25 0.85 6.5 2.1 9.1 3.4 Q11.0 4.1 11.0 4.7 L11.0 4.85 10.75 5.1 10.7 5.15 10.35 5.65 10.1 5.95 9.9 5.85 9.35 5.55 9.0 5.25 7.75 4.6 7.35 4.4 4.8 2.65 1.8 1.1 0.35 0.2 0.6 0.3 -1.8 -1.3 -3.05 -1.9 -4.45 -2.75 Q-5.55 -3.55 -7.85 -4.65 L-10.3 -6.35 -13.85 -8.85 M12.25 3.7 L13.2 3.4 13.3 3.4 14.8 3.6 Q15.2 3.7 15.2 4.05 L14.95 4.4 13.6 4.6 12.05 5.0 Q11.75 5.0 11.75 4.55 11.75 4.0 12.25 3.7 M15.65 4.8 L15.8 4.85 Q16.4 5.1 16.4 5.2 L16.4 5.25 Q16.4 5.55 15.65 5.55 L15.15 5.45 15.65 4.8 M3.15 8.9 L3.15 8.85 3.25 8.65 3.35 8.4 3.65 8.0 4.4 7.8 5.2 7.6 Q7.0 7.7 7.0 8.65 7.0 9.35 6.6 9.35 6.3 9.35 6.2 9.1 L6.1 8.85 5.9 9.2 5.85 9.25 5.35 9.5 4.7 9.25 4.6 8.95 4.65 8.7 4.15 9.1 3.6 9.3 Q3.2 9.3 3.15 8.9 M-12.5 -7.15 L-13.5 -7.8 -14.0 -8.15 -14.6 -8.5 -14.55 -8.6 -14.15 -8.75 -11.05 -6.35 -11.35 -6.5 -11.4 -6.55 -12.0 -7.0 -12.5 -7.15 M7.3 8.35 Q7.35 8.8 7.85 9.25 L7.25 9.6 7.25 9.55 7.05 8.4 7.3 8.35" fill="#ffffff" fill-rule="evenodd" stroke="none"/>
      <path d="M-14.0 -8.15 L-14.65 -8.45 -14.6 -8.5 -14.0 -8.15" fill="#999999" fill-rule="evenodd" stroke="none"/>
      <path d="M9.45 6.5 L8.95 6.6 8.3 7.0 7.6 7.25 6.45 6.75 5.1 5.9 3.15 4.3 1.3 2.7 Q0.25 1.75 -0.95 1.1 L-3.9 -0.95 -5.3 -1.9 -7.85 -3.8 -10.45 -5.55 Q-11.1 -5.85 -12.65 -7.15 L-12.5 -7.15 -12.0 -7.0 -11.4 -6.55 -11.35 -6.5 -10.85 -6.2 -11.05 -6.35 -14.15 -8.75 -14.45 -9.0 -14.45 -9.1 -14.15 -9.1 -13.85 -8.85 -10.3 -6.35 -7.85 -4.65 Q-5.55 -3.55 -4.45 -2.75 L-3.05 -1.9 -1.8 -1.3 0.6 0.3 0.35 0.2 0.55 0.45 1.8 1.1 4.8 2.65 7.35 4.4 7.75 4.6 9.0 5.25 9.35 5.55 9.7 6.05 9.6 6.4 9.45 6.5 M7.2 5.75 L7.35 5.9 7.45 5.85 7.2 5.75" fill="#666666" fill-rule="evenodd" stroke="none"/>
      <path d="M12.9 7.45 L12.95 7.4 13.15 7.3 14.05 7.05 14.35 7.3 13.95 8.2 Q13.45 8.95 12.9 8.95 12.65 8.95 12.5 8.55 L12.4 8.15 12.4 8.1 Q12.4 7.9 12.55 7.8 L12.9 7.45 M11.55 9.85 Q12.2 9.8 12.35 10.2 L12.4 10.45 12.15 11.15 11.15 11.7 10.35 11.6 10.05 11.35 9.95 11.0 Q9.95 10.0 11.2 9.85 L11.35 9.85 11.55 9.85 M18.2 8.2 L18.35 8.6 18.05 9.5 Q17.65 10.05 17.25 10.1 L17.2 10.1 16.9 10.0 16.85 9.8 16.8 9.65 17.2 8.75 17.2 8.4 17.2 8.25 Q17.25 7.85 17.65 7.85 L18.2 8.2" fill="#993333" fill-rule="evenodd" stroke="none"/>
      <path d="M7.15 6.9 L7.45 7.0 8.5 6.6 8.55 6.6 8.75 6.45 10.1 5.3 10.45 4.75 10.55 4.3 10.55 4.1 10.55 4.05 Q10.65 3.95 10.8 3.9 11.2 3.3 13.75 3.1 16.75 2.8 16.75 4.75 16.75 5.6 15.85 6.15 L15.3 6.4 15.45 6.45 15.2 6.55 Q14.85 6.55 14.65 6.75 L14.65 6.7 14.65 6.75 14.9 7.1 14.25 8.5 14.2 9.2 Q14.1 9.75 13.7 9.75 L13.4 9.65 13.35 9.65 12.55 9.3 12.5 9.3 11.9 9.05 11.75 9.0 11.65 9.1 12.0 9.35 12.4 9.45 13.8 10.1 14.05 10.1 14.25 10.1 14.35 10.1 14.4 10.05 14.9 9.9 15.1 9.9 15.15 9.9 15.15 9.85 Q15.6 9.85 15.75 9.55 L15.95 9.45 15.95 9.4 16.35 8.85 16.7 7.85 16.8 7.55 16.75 7.3 16.85 7.15 16.85 6.9 17.05 7.0 17.05 6.9 17.2 6.95 17.15 7.05 17.9 7.3 Q18.8 7.35 19.4 7.95 19.85 8.4 19.85 8.95 19.85 10.55 17.85 10.65 L17.8 11.0 17.85 11.3 17.85 11.35 17.9 11.35 17.85 11.4 17.5 12.0 17.4 12.1 15.4 13.1 13.35 13.1 10.6 12.55 9.45 11.85 Q7.75 13.4 5.45 13.4 4.8 13.4 4.35 13.05 3.7 12.9 3.0 11.9 2.3 10.8 2.3 10.25 2.3 9.2 2.75 8.35 3.5 6.9 5.2 6.9 L5.4 6.9 5.7 6.85 6.25 6.85 6.45 6.85 7.15 6.9 M15.4 4.55 L15.4 4.45 15.15 4.0 14.95 3.9 14.65 3.7 13.25 3.7 Q12.2 3.7 11.8 4.0 L11.45 4.35 11.4 4.35 11.2 5.2 11.05 5.45 11.15 5.5 11.0 5.6 10.95 5.65 10.95 5.7 10.55 6.25 Q9.65 7.55 8.55 7.75 L8.25 7.9 7.85 8.1 7.9 8.8 7.65 10.1 6.9 10.8 6.45 10.85 6.05 10.7 6.45 10.0 6.7 9.1 6.4 8.25 6.05 8.05 Q5.6 7.7 5.15 7.7 4.0 7.7 3.45 8.9 L3.3 9.3 3.25 9.6 3.45 10.95 3.5 11.05 Q3.55 11.65 4.0 12.1 4.6 12.75 5.7 12.75 6.65 12.75 7.5 12.05 L8.4 11.05 8.55 10.85 9.05 10.3 10.7 8.4 12.85 6.7 13.95 5.75 Q15.3 5.05 15.4 4.55 M14.2 7.0 L12.5 8.25 12.7 8.4 12.8 8.4 12.8 8.45 13.3 8.95 Q13.35 8.35 13.75 7.7 L14.2 7.0 M10.75 11.45 L10.85 11.5 Q11.15 11.85 12.1 11.95 L12.4 12.05 14.2 12.05 14.85 11.9 16.05 11.65 16.45 11.55 16.5 11.4 16.75 10.85 Q16.75 10.15 15.85 10.45 L15.8 10.5 15.75 10.45 15.7 10.5 13.85 10.95 11.85 10.45 11.2 10.1 10.95 10.0 10.0 11.15 10.75 11.45 M17.25 9.05 L17.1 9.45 17.5 9.75 17.95 9.65 Q19.0 9.55 19.0 9.0 19.0 8.65 17.45 8.05 L17.25 9.05" fill="#330000" fill-rule="evenodd" stroke="none"/>
      <path d="M-14.5 -8.75 L-9.8 -5.3 -7.55 -3.65 7.15 6.9 M5.7 6.85 L-9.8 -5.3 M6.45 6.85 L-7.55 -3.65" ffdec:has-small-stroke="true" ffdec:original-stroke-width="0.6" fill="none" stroke="#333333" stroke-linecap="round" stroke-linejoin="round" stroke-width="1.0"/>
      <path d="M10.55 4.3 L1.3 -0.75 -14.05 -9.0 M1.3 -0.75 L10.55 4.05" ffdec:has-small-stroke="true" ffdec:original-stroke-width="0.6" fill="none" stroke="#666666" stroke-linecap="round" stroke-linejoin="round" stroke-width="1.0"/>
    </g>
  </defs>
</svg>
