<?xml version="1.0" encoding="UTF-8" standalone="no"?>
<svg xmlns:ffdec="https://www.free-decompiler.com/flash" xmlns:xlink="http://www.w3.org/1999/xlink" ffdec:objectType="frame" height="16.2px" width="19.45px" xmlns="http://www.w3.org/2000/svg">
  <g transform="matrix(1.0, 0.0, 0.0, 1.0, 9.85, -14.5)">
    <use ffdec:characterId="9" height="16.2" transform="matrix(1.0, 0.0, 0.0, 1.0, 0.0, 0.0)" width="19.45" xlink:href="#shape0"/>
  </g>
  <defs>
    <g id="shape0">
      <path d="M-1.85 27.85 Q-1.85 30.1 -6.75 30.1 -8.1 30.1 -8.8 29.55 L-9.45 28.85 Q-9.35 27.65 -8.95 27.95 L-8.75 27.95 -8.7 28.3 -8.75 28.5 -8.8 28.5 -8.75 28.5 -8.8 28.6 Q-8.8 29.05 -8.3 29.1 L-6.55 29.25 Q-2.65 29.25 -2.65 27.7 L-2.75 27.35 -2.6 27.15 Q-2.4 27.0 -2.25 27.0 -1.85 27.0 -1.85 27.85" fill="#ffffff" fill-rule="evenodd" stroke="none"/>
      <path d="M-5.45 27.75 L-5.25 27.85 Q-4.3 28.4 -4.3 29.15 L-4.3 29.5 -4.5 29.6 -5.05 29.7 -5.9 29.75 -6.7 29.5 -6.7 29.25 -6.75 29.0 -5.8 28.8 -5.75 28.7 Q-5.45 28.2 -5.45 27.75" fill="#0152a0" fill-rule="evenodd" stroke="none"/>
      <path d="M-6.75 29.0 L-6.8 28.85 -7.15 28.4 -7.8 28.1 -8.6 28.05 -9.1 27.65 Q-9.1 26.95 -7.75 27.05 L-7.9 27.05 -7.45 27.15 -8.05 26.65 Q-7.95 26.25 -7.1 26.25 -6.35 26.25 -5.8 27.3 L-5.6 27.65 -5.45 27.75 Q-5.45 28.2 -5.75 28.7 L-5.8 28.8 -6.75 29.0" fill="#0066cc" fill-rule="evenodd" stroke="none"/>
      <path d="M-2.1 27.35 L-2.3 27.1 Q-2.3 26.55 -1.8 26.85 -1.35 27.2 -1.25 28.2 -1.2 29.15 -3.05 29.95 -4.95 30.7 -6.3 30.7 L-8.65 30.3 Q-9.85 29.75 -9.85 28.75 -9.85 27.85 -8.95 27.6 L-8.85 27.65 -9.45 28.75 Q-9.45 29.2 -8.95 29.6 -8.2 30.15 -6.35 30.2 -4.5 30.2 -3.1 29.5 -1.75 28.8 -1.8 28.15 -1.9 27.5 -2.1 27.35" fill="#000000" fill-rule="evenodd" stroke="none"/>
      <path d="M1.6 27.85 Q1.6 30.1 6.5 30.1 7.85 30.1 8.55 29.55 L9.2 28.85 Q9.1 27.65 8.7 27.95 L8.5 27.95 8.45 28.3 8.5 28.5 8.55 28.5 8.5 28.5 8.55 28.6 Q8.55 29.05 8.05 29.1 L6.3 29.25 Q2.4 29.25 2.4 27.7 L2.5 27.35 2.35 27.15 Q2.15 27.0 2.0 27.0 1.6 27.0 1.6 27.85" fill="#ffffff" fill-rule="evenodd" stroke="none"/>
      <path d="M5.2 27.75 L5.0 27.85 Q4.05 28.4 4.05 29.15 L4.05 29.5 4.25 29.6 4.8 29.7 5.65 29.75 6.45 29.5 6.45 29.25 6.5 29.0 5.55 28.8 5.5 28.7 Q5.2 28.2 5.2 27.75" fill="#0152a0" fill-rule="evenodd" stroke="none"/>
      <path d="M6.5 29.0 L6.55 28.85 6.9 28.4 7.55 28.1 8.35 28.05 Q8.85 28.05 8.85 27.65 8.85 26.95 7.5 27.05 L7.65 27.05 7.2 27.15 7.8 26.65 Q7.7 26.25 6.85 26.25 6.1 26.25 5.55 27.3 L5.35 27.65 5.2 27.75 Q5.2 28.2 5.5 28.7 L5.55 28.8 6.5 29.0" fill="#0066cc" fill-rule="evenodd" stroke="none"/>
      <path d="M1.85 27.35 L2.05 27.1 Q2.05 26.55 1.55 26.85 1.1 27.2 1.0 28.2 0.95 29.15 2.8 29.95 4.7 30.7 6.05 30.7 L8.4 30.3 Q9.6 29.75 9.6 28.75 9.6 27.85 8.7 27.6 L8.6 27.65 9.2 28.75 8.7 29.6 Q7.95 30.15 6.1 30.2 4.25 30.2 2.85 29.5 1.5 28.8 1.55 28.15 1.65 27.5 1.85 27.35" fill="#000000" fill-rule="evenodd" stroke="none"/>
      <path d="M-4.55 22.25 L-4.5 22.15 -4.35 21.6 -4.25 21.2 -4.2 21.0 Q-3.8 20.2 -2.85 20.25 L-0.7 20.3 Q3.15 19.9 3.95 20.35 4.35 20.6 4.5 21.2 L4.55 21.55 4.75 21.85 4.75 23.35 4.15 24.05 2.3 24.3 Q1.65 24.4 1.3 23.8 L1.25 23.45 1.5 23.0 1.7 22.8 -1.6 23.2 -1.3 23.7 -1.3 24.0 -1.3 24.1 -2.05 24.5 -3.0 24.45 Q-3.75 24.25 -4.1 23.8 L-4.5 22.55 -4.55 22.25" fill="#6699cc" fill-rule="evenodd" stroke="none"/>
      <path d="M4.75 21.85 L5.6 24.0 5.1 24.55 4.2 24.75 3.15 25.05 1.65 25.25 0.55 25.0 0.15 23.95 0.1 23.95 0.0 24.8 Q-0.15 25.35 -1.65 25.35 L-3.35 25.2 -4.5 24.9 Q-4.8 24.7 -5.2 24.65 L-5.65 24.35 -5.1 23.05 -4.55 22.25 -4.5 22.55 -4.1 23.8 Q-3.75 24.25 -3.0 24.45 L-2.05 24.5 -1.3 24.1 -1.3 24.0 -1.3 23.7 -1.6 23.2 1.7 22.8 1.5 23.0 1.25 23.45 1.3 23.8 Q1.65 24.4 2.3 24.3 L4.15 24.05 4.75 23.35 4.75 21.85" fill="#356a9f" fill-rule="evenodd" stroke="none"/>
      <path d="M4.25 21.15 L4.45 21.2 4.75 21.5 4.85 21.85 4.8 22.05 6.0 24.05 Q6.0 24.5 4.05 25.05 L1.55 25.5 Q1.0 25.5 0.25 24.6 L0.3 24.95 -0.15 25.4 -1.9 25.5 -3.7 25.15 -4.8 24.75 -4.8 24.7 -4.35 24.7 -3.35 24.95 -2.35 25.15 -0.3 25.0 -0.25 24.0 -0.05 24.0 0.05 23.95 Q0.4 23.95 0.75 24.55 1.0 25.1 1.5 25.1 L3.95 24.65 Q5.35 24.2 5.35 24.0 L4.55 22.2 4.55 22.1 4.35 21.8 4.2 21.4 4.25 21.2 4.25 21.15 M-5.85 24.2 L-5.5 23.5 -5.05 22.75 -4.4 21.7 -4.45 21.45 -4.4 21.2 -4.4 21.15 -4.5 21.05 -4.1 21.15 -4.05 21.2 -3.95 21.4 -4.05 21.35 -4.05 21.55 -4.15 21.75 -4.65 22.8 Q-5.3 23.7 -5.3 24.15 L-5.0 24.55 -5.3 24.8 -5.85 24.55 -5.85 24.2" fill="#000000" fill-rule="evenodd" stroke="none"/>
      <path d="M5.0 15.0 L6.1 15.55 Q7.15 16.0 7.05 16.2 L6.85 16.55 5.65 17.75 4.25 18.25 4.65 19.5 4.9 20.5 4.85 20.7 Q4.8 20.9 3.95 21.1 L2.15 21.3 Q-2.8 21.7 -3.9 21.2 L-4.95 20.75 Q-4.4 19.75 -4.45 18.1 -5.95 17.7 -6.85 16.4 L-5.55 15.8 -5.5 15.9 -4.4 17.0 -4.1 17.05 -3.7 16.9 -3.6 16.85 Q-3.85 18.35 -3.0 19.65 L-2.65 19.85 0.25 20.1 0.6 20.1 Q2.4 20.1 3.0 19.25 L3.25 17.85 Q3.25 16.95 3.05 16.6 L3.05 16.55 3.05 16.5 Q3.25 15.45 3.55 16.3 L3.7 16.5 4.55 16.5 4.65 16.4 Q5.55 15.7 5.0 15.0" fill="#cccccc" fill-rule="evenodd" stroke="none"/>
      <path d="M-5.55 15.8 L-3.55 14.75 -3.0 14.75 -3.15 14.75 -2.05 14.95 -1.0 14.95 -0.25 16.15 0.05 15.75 0.4 15.2 0.65 15.05 0.8 15.05 1.3 14.9 2.8 14.8 3.95 14.6 4.75 14.85 5.0 15.0 Q5.55 15.7 4.65 16.4 L4.55 16.5 3.7 16.5 3.55 16.3 Q3.25 15.45 3.05 16.5 L3.05 16.55 3.05 16.6 Q3.25 16.95 3.25 17.85 L3.0 19.25 Q2.4 20.1 0.6 20.1 L0.25 20.1 -2.65 19.85 -3.0 19.65 Q-3.85 18.35 -3.6 16.85 L-3.7 16.9 -4.1 17.05 -4.4 17.0 -5.5 15.9 -5.55 15.8" fill="#ffffff" fill-rule="evenodd" stroke="none"/>
      <path d="M0.75 18.5 L0.65 18.8 -0.45 18.85 Q-0.95 18.85 -0.85 17.55 L-0.8 16.25 -0.7 16.2 Q-0.45 16.05 -0.45 16.85 L-0.5 18.55 0.4 18.5 0.15 16.35 Q0.15 15.8 0.5 15.95 L0.75 18.5" fill="#666666" fill-rule="evenodd" stroke="none"/>
      <path d="M0.05 16.3 L0.0 16.3 -0.55 16.3 -1.45 15.05 -0.95 14.85 -0.25 16.1 0.1 15.6 0.45 14.85 1.05 14.95 Q1.3 15.0 0.75 15.45 L0.05 16.3" fill="#666666" fill-rule="evenodd" stroke="none"/>
      <path d="M0.1 17.4 L0.0 17.55 -0.2 17.65 -0.4 17.55 -0.5 17.4 -0.4 17.2 -0.2 17.15 0.0 17.2 0.1 17.4" fill="#333333" fill-rule="evenodd" stroke="none"/>
      <path d="M7.15 16.2 Q6.15 15.6 5.6 15.35 4.65 14.8 3.15 14.75 L3.1 14.7 4.55 14.5 Q5.0 14.5 7.4 15.85 L7.5 16.0 6.45 17.45 Q5.25 18.6 4.5 18.6 L4.55 18.75 5.4 20.55 5.2 20.85 4.4 21.15 4.2 21.2 3.75 21.3 -1.25 21.7 -3.95 21.4 -4.05 21.4 -4.15 21.2 -4.2 21.15 -4.6 21.05 -4.8 20.9 Q-5.1 20.9 -5.0 20.6 L-4.65 19.75 Q-4.4 19.25 -4.55 18.9 L-4.5 18.4 -4.65 18.4 Q-5.3 18.4 -6.2 17.45 L-7.15 16.3 Q-7.15 16.15 -5.6 15.45 L-3.15 14.55 -3.1 14.8 -6.2 16.3 -5.6 17.35 -4.85 17.7 -4.45 18.0 Q-4.4 17.45 -4.05 17.25 L-3.95 17.3 -4.15 18.35 -4.2 19.85 -4.55 20.65 Q-4.3 20.75 -3.9 21.0 L-3.45 21.2 -1.25 21.4 2.15 21.3 2.8 21.2 3.4 21.05 4.85 20.55 4.9 20.55 3.5 17.05 4.3 18.35 6.0 17.45 7.15 16.2 M3.75 16.85 L3.8 16.5 4.05 16.5 4.05 16.95 3.8 16.95 3.75 16.85" fill="#000000" fill-rule="evenodd" stroke="none"/>
    </g>
  </defs>
</svg>
