<?xml version="1.0" encoding="UTF-8" standalone="no"?>
<svg xmlns:ffdec="https://www.free-decompiler.com/flash" xmlns:xlink="http://www.w3.org/1999/xlink" ffdec:objectType="frame" height="16.65px" width="27.05px" xmlns="http://www.w3.org/2000/svg">
  <g transform="matrix(1.0, 0.0, 0.0, 1.0, 13.55, -16.15)">
    <use ffdec:characterId="9" height="8.85" transform="matrix(-0.8457, 0.0, 0.0, 1.0, 8.95, 23.95)" width="9.55" xlink:href="#sprite0"/>
    <use ffdec:characterId="9" height="8.85" transform="matrix(0.8457, 0.0, 0.0, 1.0, -9.25, 23.95)" width="9.55" xlink:href="#sprite0"/>
    <use ffdec:characterId="2" height="11.35" transform="matrix(1.0, 0.0, 0.0, 1.0, -13.55, 16.15)" width="27.05" xlink:href="#sprite1"/>
  </g>
  <defs>
    <g id="sprite0">
      <use ffdec:characterId="8" height="8.85" transform="matrix(1.0, 0.0, 0.0, 1.0, 0.0, 0.0)" width="9.55" xlink:href="#shape0"/>
    </g>
    <g id="shape0">
      <path d="M0.55 4.4 L0.85 3.7 Q1.3 3.1 2.85 2.25 4.3 1.5 4.75 1.5 L4.85 1.5 5.0 1.45 5.05 1.45 4.95 0.95 5.15 0.55 7.3 0.45 Q8.2 0.45 8.3 1.5 L8.3 1.6 Q8.85 2.0 8.85 3.15 L8.8 3.8 8.75 2.8 8.25 3.25 8.35 2.6 Q7.35 3.35 6.3 3.7 L4.05 4.25 2.3 4.05 2.2 4.5 2.8 4.8 4.0 4.9 Q2.2 5.05 0.55 4.4 M1.8 3.6 L2.05 3.5 1.95 3.45 Q1.8 3.4 1.45 3.6 L1.05 3.85 1.05 4.15 1.2 4.2 1.65 4.0 1.95 3.7 1.8 3.6" fill="#e3e3e3" fill-rule="evenodd" stroke="none"/>
      <path d="M8.8 4.05 L8.95 4.4 8.95 4.55 8.75 4.8 8.9 5.5 8.9 5.6 8.85 6.15 8.75 6.4 8.6 6.75 8.25 7.05 8.1 6.3 7.9 6.05 7.9 5.8 7.85 5.65 6.75 6.05 6.7 6.1 Q6.25 6.25 6.25 6.55 L6.3 6.7 6.2 7.25 6.2 7.4 Q6.3 8.7 4.85 8.7 L4.65 8.5 4.2 8.45 4.1 8.5 4.2 6.95 4.15 6.55 1.45 6.5 1.55 8.3 3.85 8.6 3.8 8.6 2.9 8.75 Q1.65 8.75 1.45 8.35 L1.35 8.35 1.15 8.4 Q0.7 8.4 0.5 8.0 L0.35 7.55 0.3 6.5 0.35 6.1 0.25 5.9 0.3 5.75 0.4 5.75 0.45 5.7 0.65 5.75 1.2 5.95 2.95 6.2 Q4.4 6.2 6.75 5.25 L8.0 4.55 Q8.5 4.05 8.7 4.05 L8.8 4.05" fill="#bfbfbf" fill-rule="evenodd" stroke="none"/>
      <path d="M8.05 7.15 L7.95 7.15 7.5 7.05 7.45 7.05 7.4 7.05 6.95 6.95 6.75 7.0 6.7 7.05 6.55 7.15 6.3 7.0 6.3 6.95 6.3 6.75 6.3 6.7 6.25 6.55 Q6.25 6.25 6.7 6.1 L6.75 6.05 7.85 5.65 7.9 5.8 7.9 6.05 8.1 6.3 8.25 7.05 8.2 7.1 8.05 7.15" fill="#000000" fill-rule="evenodd" stroke="none"/>
      <path d="M8.8 3.8 L8.8 3.95 8.7 4.05 Q8.5 4.05 8.0 4.55 L6.75 5.25 Q4.4 6.2 2.95 6.2 L1.2 5.95 0.65 5.75 0.45 5.7 0.4 5.75 0.4 5.6 0.4 5.15 0.55 4.4 Q2.2 5.05 4.0 4.9 L4.9 4.75 6.7 4.1 8.2 3.25 8.25 3.25 8.75 2.8 8.8 3.8 M8.1 7.15 L8.05 7.15 8.2 7.1 8.15 7.15 8.1 7.15" fill="#808080" fill-rule="evenodd" stroke="none"/>
      <path d="M8.8 3.95 L8.8 4.05 8.7 4.05 8.8 3.95 M8.95 4.55 L8.9 5.6 8.9 5.5 8.75 4.8 8.95 4.55 M7.5 7.05 L7.45 7.05 7.5 7.05 M6.3 6.95 L6.2 7.25 6.3 6.7 6.3 6.75 6.3 6.95" fill="#3a3a3a" fill-rule="evenodd" stroke="none"/>
      <path d="M4.0 4.9 L2.8 4.8 2.2 4.5 2.3 4.05 4.05 4.25 6.3 3.7 Q7.35 3.35 8.35 2.6 L8.25 3.25 8.2 3.25 6.7 4.1 4.9 4.75 4.0 4.9 M1.8 3.6 L1.95 3.7 1.65 4.0 1.2 4.2 1.05 4.15 1.05 3.85 1.45 3.6 Q1.8 3.4 1.95 3.45 L2.05 3.5 1.8 3.6" fill="#ffffff" fill-rule="evenodd" stroke="none"/>
      <path d="M4.1 8.5 L3.85 8.6 1.55 8.3 1.45 6.5 4.15 6.55 4.2 6.95 4.1 8.5" fill="#dbdbdb" fill-rule="evenodd" stroke="none"/>
      <path d="M8.6 6.75 L8.1 7.15 8.15 7.15 8.2 7.1 8.25 7.05 8.6 6.75" fill="#595959" fill-rule="evenodd" stroke="none"/>
      <path d="M7.4 7.05 L6.75 7.0 6.95 6.95 7.4 7.05" fill="#757694" fill-rule="evenodd" stroke="none"/>
      <path d="M8.55 1.2 L8.9 2.1 9.1 3.65 Q9.3 4.75 9.15 5.8 8.95 6.85 7.8 7.35 L6.25 7.2 6.25 7.95 Q6.25 9.0 3.5 8.85 L0.2 8.4 Q-0.4 8.05 -0.35 6.1 -0.35 4.15 0.05 3.7 0.45 3.25 2.15 2.3 3.8 1.35 4.55 1.35 L4.55 1.3 Q4.55 0.1 4.85 0.1 L5.45 0.25 7.9 0.0 Q8.25 0.0 8.5 0.3 L8.65 0.75 8.55 1.1 8.55 1.2 M8.05 0.8 L7.85 0.55 5.0 0.75 5.05 1.25 5.0 1.45 4.8 1.55 Q1.35 3.3 0.85 3.85 0.4 4.4 0.4 6.7 L0.6 7.85 Q1.1 8.5 3.5 8.5 5.85 8.5 5.65 7.35 5.4 6.15 6.8 5.8 L8.05 5.45 Q8.05 6.2 8.3 6.85 8.3 6.75 8.45 6.6 L8.75 5.4 8.75 4.4 Q8.75 3.25 8.4 2.3 L8.0 1.1 8.05 0.8 M7.8 5.75 L6.75 6.15 Q6.2 6.4 6.3 6.9 L8.05 7.0 7.8 5.75" fill="#3b3b3b" fill-rule="evenodd" stroke="none"/>
    </g>
    <g id="sprite1">
      <use ffdec:characterId="1" height="11.35" transform="matrix(1.0, 0.0, 0.0, 1.0, 0.0, 0.0)" width="27.05" xlink:href="#shape1"/>
    </g>
    <g id="shape1">
      <path d="M6.35 9.55 L5.45 9.7 2.0 7.8 0.75 7.2 0.1 6.35 Q1.3 4.15 2.35 3.65 L4.25 2.7 6.3 1.55 8.15 0.45 Q9.6 1.8 11.55 2.05 L16.25 1.75 17.3 1.4 18.9 0.35 Q19.3 0.05 20.65 1.15 24.15 3.15 25.1 4.05 L26.15 5.15 26.65 6.45 Q24.3 8.25 22.35 8.65 L20.15 9.1 19.05 5.95 18.55 5.7 Q18.5 4.5 17.95 3.45 L18.55 2.35 19.1 1.6 Q17.25 3.5 14.7 3.85 16.35 3.8 17.8 4.6 L17.85 8.1 19.4 9.25 18.5 9.45 Q17.65 9.3 16.9 9.75 14.35 11.3 11.4 10.85 10.05 10.95 8.05 9.25 L7.85 9.3 8.35 9.05 Q9.7 6.5 10.65 4.0 L11.45 4.1 11.25 3.55 Q9.15 2.85 8.2 1.65 L8.55 2.55 8.85 2.95 7.6 2.65 9.3 4.8 Q7.5 6.6 6.0 8.9 L5.6 9.5 6.35 9.55 M23.65 4.65 Q22.25 3.5 20.4 2.6 L20.85 2.5 19.9 2.55 Q19.55 5.15 20.75 7.3 L22.1 7.05 Q23.55 6.9 24.45 5.9 24.25 5.2 23.65 4.65 M11.7 8.8 L11.95 9.05 12.65 9.35 13.3 9.25 Q14.7 8.9 16.1 8.1 L16.8 7.65 13.6 8.65 11.7 8.8 M17.05 2.75 Q18.35 2.2 18.8 0.9 18.35 1.0 18.0 1.25 16.3 2.65 14.2 2.85 11.75 3.0 9.4 2.25 L10.25 2.8 11.05 3.15 12.5 3.65 Q14.85 3.75 17.05 2.75 M10.35 7.35 Q12.6 8.8 15.15 7.6 L11.65 6.45 10.35 7.35 M10.45 8.95 L9.9 9.25 Q11.7 9.95 12.95 9.95 16.2 9.85 16.25 8.25 L15.45 8.65 13.45 9.5 Q12.2 9.9 11.15 8.95 L10.25 8.4 10.45 8.95 M6.95 2.15 Q4.75 3.1 3.15 4.8 L2.45 5.6 2.7 6.35 Q5.05 8.55 6.2 7.1 7.35 5.6 7.6 4.6 L6.95 2.15" fill="#232233" fill-rule="evenodd" stroke="none"/>
      <path d="M23.65 4.65 Q24.25 5.2 24.45 5.9 23.55 6.9 22.1 7.05 L20.75 7.3 Q19.55 5.15 19.9 2.55 L20.85 2.5 20.4 2.6 Q22.25 3.5 23.65 4.65 M17.05 2.75 Q14.85 3.75 12.5 3.65 L11.05 3.15 10.25 2.8 9.4 2.25 Q11.75 3.0 14.2 2.85 16.3 2.65 18.0 1.25 18.35 1.0 18.8 0.9 18.35 2.2 17.05 2.75 M11.7 8.8 L13.6 8.65 16.8 7.65 16.1 8.1 Q14.7 8.9 13.3 9.25 L12.65 9.35 11.95 9.05 11.7 8.8 M6.95 2.15 L7.6 4.6 Q7.35 5.6 6.2 7.1 5.05 8.55 2.7 6.35 L2.45 5.6 3.15 4.8 Q4.75 3.1 6.95 2.15" fill="#4d4d5f" fill-rule="evenodd" stroke="none"/>
      <path d="M20.15 9.1 L19.4 9.25 17.85 8.1 17.8 4.6 Q16.35 3.8 14.7 3.85 17.25 3.5 19.1 1.6 L18.55 2.35 17.95 3.45 Q18.5 4.5 18.55 5.7 L19.05 5.95 20.15 9.1 M7.85 9.3 L6.35 9.55 5.6 9.5 6.0 8.9 Q7.5 6.6 9.3 4.8 L7.6 2.65 8.85 2.95 8.55 2.55 8.2 1.65 Q9.15 2.85 11.25 3.55 L11.45 4.1 10.65 4.0 Q9.7 6.5 8.35 9.05 L7.85 9.3 M10.45 8.95 L10.25 8.4 11.15 8.95 Q12.2 9.9 13.45 9.5 L15.45 8.65 16.25 8.25 Q16.2 9.85 12.95 9.95 11.7 9.95 9.9 9.25 L10.45 8.95 M10.35 7.35 L11.65 6.45 15.15 7.6 Q12.6 8.8 10.35 7.35" fill="#0d0d17" fill-rule="evenodd" stroke="none"/>
      <path d="M7.6 7.35 L7.95 6.65 Q8.6 5.35 9.6 4.95 9.05 6.5 7.6 7.35 M18.7 6.15 L18.25 5.1 17.95 7.5 17.8 3.25 Q18.9 4.9 19.5 6.9 L19.75 8.15 19.2 7.3 18.95 6.8 18.7 6.15 M15.25 2.5 Q11.1 3.5 8.15 0.55 L7.65 0.95 Q5.6 2.6 3.15 3.75 0.95 4.45 0.4 6.55 2.8 8.4 5.65 9.5 6.8 8.9 8.15 8.85 9.1 9.7 10.3 10.15 13.05 11.2 15.65 10.05 18.35 8.95 21.3 8.8 24.3 8.3 26.55 6.35 25.8 4.95 24.45 3.95 21.9 1.95 19.1 0.45 17.45 1.85 15.25 2.5 M1.0 4.35 L4.55 2.35 8.65 0.05 9.15 0.55 Q12.25 2.9 15.15 1.7 18.0 0.5 19.35 0.0 21.85 2.05 24.4 3.3 26.1 4.15 27.05 6.0 L26.9 6.65 Q24.55 8.35 21.7 9.25 L17.75 9.7 17.05 10.2 Q13.75 11.9 10.2 11.05 8.7 10.7 7.7 9.4 L7.2 9.45 5.7 9.9 5.3 9.85 2.1 8.2 Q-0.3 7.0 0.05 6.2 L1.0 4.35" fill="#000000" fill-rule="evenodd" stroke="none"/>
    </g>
  </defs>
</svg>
