<?xml version="1.0" encoding="UTF-8" standalone="no"?>
<svg xmlns:ffdec="https://www.free-decompiler.com/flash" xmlns:xlink="http://www.w3.org/1999/xlink" ffdec:objectType="frame" height="18.75px" width="24.95px" xmlns="http://www.w3.org/2000/svg">
  <g transform="matrix(1.0, 0.0, 0.0, 1.0, 12.2, -13.3)">
    <use ffdec:characterId="11" height="18.75" transform="matrix(1.0, 0.0, 0.0, 1.0, 0.25, 22.65)" width="24.95" xlink:href="#sprite0"/>
    <use ffdec:characterId="4" height="4.3" transform="matrix(0.8707, 0.0, 0.0, 0.8707, -4.9, 20.5)" width="4.3" xlink:href="#sprite1"/>
    <use ffdec:characterId="6" height="4.3" transform="matrix(0.6977, 0.0, 0.0, 0.6977, -0.5, 28.0)" width="4.3" xlink:href="#sprite2"/>
    <use ffdec:characterId="6" height="4.3" transform="matrix(0.6977, 0.0, 0.0, 0.6977, 5.5, 20.6)" width="4.3" xlink:href="#sprite2"/>
    <use ffdec:characterId="6" height="4.3" transform="matrix(0.503, 0.0, 0.0, 0.503, 2.3, 22.8)" width="4.3" xlink:href="#sprite2"/>
    <use ffdec:characterId="4" height="4.3" transform="matrix(0.5183, 0.0, 0.0, 0.5183, -9.35, 27.95)" width="4.3" xlink:href="#sprite1"/>
    <use ffdec:characterId="4" height="4.3" transform="matrix(0.5183, 0.0, 0.0, 0.5183, 9.25, 25.65)" width="4.3" xlink:href="#sprite1"/>
    <use ffdec:characterId="8" height="2.55" transform="matrix(0.8077, 0.0, 0.0, 0.8077, -9.55, 19.65)" width="2.55" xlink:href="#sprite3"/>
    <use ffdec:characterId="8" height="2.55" transform="matrix(0.8077, 0.0, 0.0, 0.8077, -4.0, 30.3)" width="2.55" xlink:href="#sprite3"/>
    <use ffdec:characterId="8" height="2.55" transform="matrix(0.8077, 0.0, 0.0, 0.8077, 6.0, 28.7)" width="2.55" xlink:href="#sprite3"/>
  </g>
  <defs>
    <g id="sprite0">
      <use ffdec:characterId="10" height="18.75" transform="matrix(1.0, 0.0, 0.0, 1.0, 0.0, 0.0)" width="24.95" xlink:href="#shape0"/>
    </g>
    <g id="shape0">
      <path d="M-10.05 5.2 Q-9.15 3.65 -9.15 2.15 L-9.3 0.45 -11.25 0.1 Q-11.75 -0.1 -11.75 -0.5 L-11.55 -0.75 -11.6 -0.85 -9.7 -3.5 -9.7 -3.55 -9.7 -3.7 Q-9.4 -4.05 -9.2 -4.55 L-8.95 -5.15 -8.6 -6.1 -8.15 -7.0 -8.15 -7.15 -8.25 -8.1 -8.25 -8.15 -8.3 -8.5 Q-8.3 -9.3 -6.15 -8.35 L-4.1 -7.95 -2.9 -7.75 -1.95 -7.85 1.75 -7.85 4.65 -8.35 6.7 -8.75 7.3 -8.5 7.4 -8.25 7.4 -8.15 7.6 -8.05 7.8 -7.85 8.1 -7.35 8.35 -6.85 8.95 -5.85 10.15 -4.05 10.95 -3.1 11.7 -2.05 11.65 -1.85 11.75 -1.5 Q11.75 0.35 8.9 0.1 L8.9 0.6 Q9.4 2.2 10.65 4.35 L11.75 6.35 Q11.75 7.35 9.95 7.35 8.7 7.35 8.0 6.9 L7.3 6.45 6.15 7.55 Q5.1 8.65 3.55 8.8 1.95 8.95 1.55 8.45 1.1 7.95 0.45 7.75 L-0.75 7.25 -1.55 7.95 Q-2.35 8.65 -3.45 8.65 -5.0 8.65 -6.05 7.7 L-7.2 6.75 -7.95 7.05 -9.05 7.4 -10.85 7.1 -10.95 6.8 -10.05 5.2" fill="#ffffff" fill-rule="evenodd" stroke="none"/>
      <path d="M-11.2 -0.5 L-11.6 -0.85 -9.7 -3.5 -9.7 -3.55 -9.7 -3.7 Q-9.4 -4.05 -9.2 -4.55 L-8.95 -5.15 -8.05 -7.2 -7.9 -7.05 -7.7 -7.1 -7.0 -7.4 -6.65 -7.2 -6.05 -6.75 -5.35 -6.05 -4.55 -5.25 Q-4.4 -5.1 -4.1 -5.05 L-1.25 -5.15 0.15 -6.2 0.85 -5.95 Q2.3 -5.4 3.85 -5.4 L4.4 -5.55 5.05 -5.85 5.95 -6.75 Q6.3 -7.05 6.25 -7.6 L7.3 -8.25 7.8 -7.85 8.1 -7.35 8.35 -6.85 8.95 -5.85 10.15 -4.05 10.95 -3.1 11.7 -2.05 11.45 -1.8 Q9.7 -1.8 8.15 -3.15 L6.95 -4.6 6.65 -4.1 6.15 -3.7 Q5.6 -3.4 4.95 -3.2 L4.3 -3.05 2.6 -3.2 0.5 -3.55 -0.05 -3.3 Q-0.9 -2.85 -1.9 -2.6 L-4.55 -2.55 -5.3 -2.7 Q-6.25 -3.05 -7.0 -3.7 -7.35 -3.05 -8.45 -1.85 -9.95 -0.3 -10.55 -0.3 L-11.2 -0.5 M-10.2 6.1 L-9.55 4.95 -9.3 3.75 -9.4 0.7 -8.7 0.3 Q-7.8 -0.25 -6.9 -0.4 L-6.4 0.1 Q-5.55 1.0 -4.4 1.65 L-3.75 1.45 -2.15 0.65 -0.55 1.3 1.5 1.35 1.95 1.25 Q3.0 1.1 3.8 0.35 4.8 1.3 6.15 0.8 L6.85 0.6 Q7.95 0.15 8.4 -0.85 L9.65 -0.45 9.8 1.15 9.95 1.65 9.95 2.95 10.45 4.15 11.95 6.45 Q11.95 6.75 11.6 6.75 L10.3 5.95 9.1 4.65 8.45 3.3 8.3 2.95 6.95 3.65 6.3 3.8 Q5.1 3.95 4.0 3.35 L2.7 4.3 0.6 4.65 0.1 4.55 Q-1.0 4.3 -1.9 3.6 -2.4 4.15 -3.25 4.35 L-5.15 4.45 -5.55 4.3 -7.35 3.15 Q-7.45 4.25 -8.15 5.45 -9.05 7.0 -10.15 7.0 L-10.65 6.65 -10.2 6.1" fill="#abdbef" fill-rule="evenodd" stroke="none"/>
      <path d="M-10.8 -0.15 L-9.4 0.15 Q-8.75 0.15 -8.2 -0.4 L-7.4 -0.95 -6.25 0.25 Q-5.2 1.45 -4.3 1.45 -3.45 1.45 -2.95 0.75 L-2.1 0.1 Q-1.85 0.1 -1.25 0.65 -0.65 1.2 0.8 1.2 2.25 1.2 2.65 0.45 3.0 -0.3 3.4 -0.3 L4.2 0.25 Q4.75 0.75 5.5 0.75 6.7 0.75 7.15 -0.45 7.6 -1.65 8.05 -1.65 L8.75 -1.35 10.15 -1.05 Q11.1 -1.05 11.2 -1.75 L11.25 -1.9 Q10.6 -2.2 9.9 -2.95 L8.85 -4.4 Q8.5 -5.1 8.3 -5.8 L7.35 -8.35 6.65 -8.15 1.85 -7.65 Q-1.1 -7.35 -4.0 -7.6 L-7.8 -8.4 -7.95 -7.35 Q-8.15 -5.8 -9.05 -4.4 L-9.4 -3.7 Q-10.5 -1.5 -11.55 -0.75 L-10.8 -0.15 M-12.45 -0.9 L-11.3 -2.4 -9.85 -4.35 -9.8 -4.4 -8.05 -9.1 -4.6 -8.4 -0.15 -8.15 Q3.8 -8.25 7.5 -9.35 L7.8 -8.6 Q8.55 -6.25 10.1 -4.4 L11.05 -3.6 12.35 -2.3 12.25 -2.0 12.25 -1.75 Q12.25 0.15 10.15 0.15 L9.6 0.15 10.05 1.95 Q10.25 3.0 11.4 4.75 L12.5 6.65 11.5 7.6 Q10.45 8.3 9.3 8.15 8.15 8.0 7.65 7.5 L7.5 7.35 6.75 8.15 4.65 9.3 2.6 9.3 0.95 8.75 -0.35 8.25 -1.15 8.85 Q-1.9 9.4 -3.1 9.4 -4.9 9.4 -6.3 8.5 L-7.3 7.65 -8.25 8.1 -10.05 8.15 Q-11.05 8.0 -11.95 7.25 L-11.5 6.55 Q-10.1 4.4 -10.0 3.0 L-9.85 1.15 Q-11.15 1.0 -11.9 0.2 -12.45 -0.45 -12.45 -0.9 M8.3 -0.2 L7.6 0.85 Q6.65 1.95 5.55 1.95 4.2 1.95 3.5 1.2 L2.95 1.9 Q2.5 2.4 1.65 2.35 L-0.1 2.35 -1.25 1.9 -2.1 1.5 -2.85 2.0 Q-3.6 2.5 -4.35 2.5 -6.05 2.5 -7.5 0.35 L-8.25 0.95 -8.85 1.1 -8.85 1.75 Q-8.85 2.8 -9.2 4.25 -9.65 6.2 -10.7 6.7 -9.45 7.45 -8.75 7.1 L-7.6 6.65 -6.95 6.75 -5.9 7.65 Q-5.0 8.25 -3.55 8.25 -2.15 8.2 -1.35 7.45 L-0.45 6.75 0.8 7.35 2.5 8.1 4.5 8.1 Q5.8 7.8 7.45 5.85 7.85 7.0 9.5 7.15 11.15 7.3 11.35 6.35 10.4 5.2 9.7 3.85 8.75 1.95 8.75 1.1 L8.8 -0.05 8.3 -0.2" fill="#346fa3" fill-rule="evenodd" stroke="none"/>
    </g>
    <g id="sprite1">
      <use ffdec:characterId="3" height="4.3" transform="matrix(1.0, 0.0, 0.0, 1.0, 0.0, 0.0)" width="4.3" xlink:href="#shape1"/>
    </g>
    <g id="shape1">
      <path d="M1.1 -0.55 L0.85 0.1 0.3 0.55 Q-0.45 0.55 -0.8 0.05 L-1.0 -0.55 -0.75 -1.1 Q-0.4 -1.45 0.1 -1.45 1.1 -1.45 1.1 -0.55" fill="#47e6ff" fill-rule="evenodd" stroke="none"/>
      <path d="M1.1 -0.55 Q1.1 -1.45 0.1 -1.45 -0.4 -1.45 -0.75 -1.1 L-1.0 -0.55 -0.8 0.05 Q-0.45 0.55 0.3 0.55 L0.85 0.1 1.1 -0.55 M1.2 -1.25 Q1.75 -0.7 1.75 0.0 1.75 0.75 1.2 1.25 0.7 1.75 0.0 1.75 -0.75 1.75 -1.3 1.25 L-1.75 0.0 -1.3 -1.25 Q-0.75 -1.75 0.0 -1.75 0.7 -1.75 1.2 -1.25" fill="#0076b0" fill-rule="evenodd" stroke="none"/>
      <path d="M1.5 -1.55 Q2.15 -0.9 2.15 0.0 2.15 0.9 1.5 1.5 0.9 2.15 0.0 2.15 -0.9 2.15 -1.55 1.5 -2.15 0.9 -2.15 0.0 -2.15 -0.9 -1.55 -1.55 -0.9 -2.15 0.0 -2.15 0.9 -2.15 1.5 -1.55 M1.2 -1.25 Q0.7 -1.75 0.0 -1.75 -0.75 -1.75 -1.3 -1.25 L-1.75 0.0 -1.3 1.25 Q-0.75 1.75 0.0 1.75 0.7 1.75 1.2 1.25 1.75 0.75 1.75 0.0 1.75 -0.7 1.2 -1.25" fill="#00335f" fill-rule="evenodd" stroke="none"/>
    </g>
    <g id="sprite2">
      <use ffdec:characterId="5" height="4.3" transform="matrix(1.0, 0.0, 0.0, 1.0, 0.0, 0.0)" width="4.3" xlink:href="#shape2"/>
    </g>
    <g id="shape2">
      <path d="M1.2 -1.25 Q0.7 -1.75 0.0 -1.75 -0.75 -1.75 -1.3 -1.25 L-1.75 0.0 -1.3 1.25 Q-0.75 1.75 0.0 1.75 0.7 1.75 1.2 1.25 1.75 0.75 1.75 0.0 1.75 -0.7 1.2 -1.25 M1.5 -1.55 Q2.15 -0.9 2.15 0.0 2.15 0.9 1.5 1.5 0.9 2.15 0.0 2.15 -0.9 2.15 -1.55 1.5 -2.15 0.9 -2.15 0.0 -2.15 -0.9 -1.55 -1.55 -0.9 -2.15 0.0 -2.15 0.9 -2.15 1.5 -1.55" fill="#003f45" fill-rule="evenodd" stroke="none"/>
      <path d="M1.1 -0.55 Q1.1 -1.45 0.1 -1.45 -0.4 -1.45 -0.75 -1.1 L-1.0 -0.55 -0.8 0.05 Q-0.45 0.55 0.3 0.55 L0.85 0.1 1.1 -0.55 M1.2 -1.25 Q1.75 -0.7 1.75 0.0 1.75 0.75 1.2 1.25 0.7 1.75 0.0 1.75 -0.75 1.75 -1.3 1.25 L-1.75 0.0 -1.3 -1.25 Q-0.75 -1.75 0.0 -1.75 0.7 -1.75 1.2 -1.25" fill="#00919d" fill-rule="evenodd" stroke="none"/>
      <path d="M1.1 -0.55 L0.85 0.1 0.3 0.55 Q-0.45 0.55 -0.8 0.05 L-1.0 -0.55 -0.75 -1.1 Q-0.4 -1.45 0.1 -1.45 1.1 -1.45 1.1 -0.55" fill="#41f0ff" fill-rule="evenodd" stroke="none"/>
    </g>
    <g id="sprite3">
      <use ffdec:characterId="7" height="2.55" transform="matrix(1.0, 0.0, 0.0, 1.0, 0.0, 0.0)" width="2.55" xlink:href="#shape3"/>
    </g>
    <g id="shape3">
      <path d="M0.7 -0.35 L0.55 0.05 0.2 0.3 -0.45 0.0 -0.55 -0.35 -0.4 -0.65 0.1 -0.9 Q0.7 -0.9 0.7 -0.35" fill="#217bff" fill-rule="evenodd" stroke="none"/>
      <path d="M0.7 -0.35 Q0.7 -0.9 0.1 -0.9 L-0.4 -0.65 -0.55 -0.35 -0.45 0.0 0.2 0.3 0.55 0.05 0.7 -0.35 M0.75 -0.75 L1.05 0.0 0.75 0.7 0.05 1.0 -0.7 0.7 -1.0 0.0 -0.7 -0.75 0.05 -1.05 0.75 -0.75" fill="#0500c2" fill-rule="evenodd" stroke="none"/>
      <path d="M0.75 -0.75 L0.05 -1.05 -0.7 -0.75 -1.0 0.0 -0.7 0.7 0.05 1.0 0.75 0.7 1.05 0.0 0.75 -0.75 M0.95 -0.95 L1.3 0.0 0.95 0.9 Q0.6 1.25 0.05 1.25 -0.5 1.25 -0.9 0.9 L-1.25 0.0 Q-1.25 -0.55 -0.9 -0.95 -0.5 -1.3 0.05 -1.3 0.6 -1.3 0.95 -0.95" fill="#020055" fill-rule="evenodd" stroke="none"/>
    </g>
  </defs>
</svg>
