<?xml version="1.0" encoding="UTF-8" standalone="no"?>
<svg xmlns:ffdec="https://www.free-decompiler.com/flash" xmlns:xlink="http://www.w3.org/1999/xlink" ffdec:objectType="frame" height="17.3px" width="24.95px" xmlns="http://www.w3.org/2000/svg">
  <g transform="matrix(1.0, 0.0, 0.0, 1.0, 12.15, -13.9)">
    <use ffdec:characterId="17" height="5.55" transform="matrix(1.0, 0.0, 0.0, 1.0, -5.75, 28.4)" width="9.1" xlink:href="#sprite0"/>
    <use ffdec:characterId="17" height="5.55" transform="matrix(-1.0, 0.0, 0.0, 1.0, 5.95, 28.4)" width="9.1" xlink:href="#sprite0"/>
    <use ffdec:characterId="19" height="6.3" transform="matrix(1.0, 0.0, 0.0, 1.0, -3.0, 26.3)" width="6.95" xlink:href="#sprite1"/>
    <use ffdec:characterId="19" height="6.3" transform="matrix(-1.0, 0.0, 0.0, 1.0, 3.35, 26.3)" width="6.95" xlink:href="#sprite1"/>
    <use ffdec:characterId="4" height="10.35" transform="matrix(1.0, 0.0, 0.0, 1.0, -8.0, 19.05)" width="8.25" xlink:href="#sprite2"/>
    <use ffdec:characterId="4" height="10.35" transform="matrix(-1.0, 0.0, 0.0, 1.0, 8.65, 19.05)" width="8.25" xlink:href="#sprite2"/>
    <use ffdec:characterId="11" height="13.15" transform="matrix(1.0, 0.0, 0.0, 1.0, 0.3, 20.3)" width="14.15" xlink:href="#sprite3"/>
  </g>
  <defs>
    <g id="sprite0">
      <use ffdec:characterId="16" height="5.55" transform="matrix(1.0, 0.0, 0.0, 1.0, 0.0, 0.0)" width="9.1" xlink:href="#shape0"/>
    </g>
    <g id="shape0">
      <path d="M-3.95 -0.4 L-4.05 -1.1 Q-4.05 -2.5 -2.1 -2.5 L-0.95 -2.4 -0.55 -2.3 0.25 -2.5 Q2.4 -2.5 3.5 -1.65 4.35 -1.05 4.35 -0.3 L4.2 0.75 3.65 0.6 Q3.1 0.65 3.1 0.9 3.1 1.2 3.8 1.2 L4.0 1.2 3.95 1.3 Q3.45 2.5 2.7 2.5 2.1 2.5 1.75 2.05 L1.3 1.6 Q1.2 1.6 0.7 2.1 0.25 2.55 -0.7 2.55 -3.25 2.35 -3.6 1.9 L-3.75 0.95 -3.85 0.15 -3.55 0.25 Q-3.05 0.25 -3.05 -0.45 -3.05 -0.95 -3.5 -0.9 -3.9 -0.85 -3.95 -0.4 M-3.45 -1.5 Q-3.45 -1.1 -3.0 -1.1 L-1.85 -1.55 -1.0 -1.75 Q-0.85 -1.75 -0.85 -1.95 -0.85 -2.6 -2.15 -2.35 -3.45 -2.1 -3.45 -1.5" fill="#000000" fill-rule="evenodd" stroke="none"/>
      <path d="M4.2 0.75 L4.2 0.9 4.0 1.2 3.8 1.2 Q3.1 1.2 3.1 0.9 3.1 0.65 3.65 0.6 L4.2 0.75 M-3.85 0.15 L-4.0 -0.15 -3.95 -0.4 Q-3.9 -0.85 -3.5 -0.9 -3.05 -0.95 -3.05 -0.45 -3.05 0.25 -3.55 0.25 L-3.85 0.15 M-3.45 -1.5 Q-3.45 -2.1 -2.15 -2.35 -0.85 -2.6 -0.85 -1.95 -0.85 -1.75 -1.0 -1.75 L-1.85 -1.55 -3.0 -1.1 Q-3.45 -1.1 -3.45 -1.5" fill="#ffffff" fill-rule="evenodd" stroke="none"/>
      <path d="M-3.85 -0.75 L-3.7 0.8 -2.8 0.75 -0.8 0.75 0.2 0.85 3.75 0.8 Q4.0 -0.15 4.3 -0.15 L4.55 0.2 Q4.55 2.8 2.85 2.8 L1.6 2.75 Q1.6 2.1 1.2 2.2 0.75 2.25 0.7 2.75 L-2.1 2.7 Q-4.55 3.45 -4.55 -0.75 -4.55 -1.65 -4.15 -2.05 -3.45 -2.75 -1.4 -2.75 0.1 -2.75 0.1 -2.35 L-1.0 -2.25 -3.35 -1.95 Q-3.85 -1.8 -3.85 -0.75 M-2.3 2.05 L-0.25 2.05 -0.25 2.1 0.65 2.1 0.65 1.95 0.9 1.4 0.35 1.45 -3.7 1.2 -3.65 1.65 Q-3.4 2.1 -2.3 2.05 M3.55 1.4 L1.7 1.4 1.7 1.45 1.95 1.95 1.95 2.15 2.35 2.2 3.3 2.15 3.55 1.4" fill="#000000" fill-rule="evenodd" stroke="none"/>
    </g>
    <g id="sprite1">
      <use ffdec:characterId="18" height="6.3" transform="matrix(1.0, 0.0, 0.0, 1.0, 0.0, 0.0)" width="6.95" xlink:href="#shape1"/>
    </g>
    <g id="shape1">
      <path d="M1.3 -2.2 Q2.45 -1.75 2.8 -1.4 L2.85 -1.4 2.95 -1.15 2.95 -1.05 2.9 -0.85 2.6 -0.7 2.5 -0.5 1.95 0.75 1.75 1.45 Q1.55 1.95 1.05 1.95 L0.95 1.95 0.5 1.7 0.45 1.65 0.1 1.9 -0.2 2.15 -0.4 2.15 Q-1.3 2.15 -2.9 0.4 L-2.4 -0.85 -1.9 -1.55 -1.95 -1.7 -1.75 -2.2 -1.5 -2.3 -1.5 -2.35 -1.45 -2.35 -1.5 -2.55 0.75 -2.4 1.3 -2.2" fill="#ffffff" fill-rule="evenodd" stroke="none"/>
      <path d="M2.9 -1.4 Q3.45 -2.35 3.45 -1.45 L3.1 -0.55 3.2 -0.25 Q1.85 3.15 1.35 3.15 0.95 3.15 0.85 2.8 L0.7 2.3 0.5 2.7 0.15 2.9 -1.15 2.55 Q-1.95 2.3 -2.7 1.45 -3.5 0.45 -3.5 -0.1 L-2.8 -1.65 -2.3 -2.2 -1.65 -3.15 -1.5 -3.0 -1.5 -2.9 -1.6 -2.4 -1.55 -2.4 -1.65 -2.3 Q-1.9 -1.5 -2.7 0.2 L-1.65 1.35 Q-0.6 2.1 -0.1 2.1 L0.25 1.75 0.8 1.4 1.35 1.95 2.05 0.5 2.35 -0.1 Q2.35 -0.5 2.9 -1.4" fill="#000000" fill-rule="evenodd" stroke="none"/>
    </g>
    <g id="sprite2">
      <use ffdec:characterId="3" height="10.35" transform="matrix(1.0, 0.0, 0.0, 1.0, 0.0, 0.0)" width="8.25" xlink:href="#shape2"/>
    </g>
    <g id="shape2">
      <path d="M-0.8 -1.7 L-1.35 -2.2 -1.75 -3.05 -1.95 -3.45 -1.95 -3.9 Q-1.55 -5.0 -1.35 -4.25 L-1.35 -4.15 -1.2 -4.35 Q-0.75 -5.0 0.35 -4.8 L2.55 -4.8 Q3.4 -4.65 3.4 -3.35 L3.15 -2.85 3.15 -2.8 3.15 -2.7 3.1 -2.4 2.55 -1.9 1.8 -1.55 0.35 -1.4 Q-0.35 -1.4 -0.8 -1.7 M-2.8 2.7 L-3.4 1.85 -3.15 1.5 -3.25 1.2 -2.8 0.55 -2.75 0.55 Q-2.55 0.3 -2.35 0.35 L-2.25 0.35 -1.65 0.8 -1.4 1.05 -0.55 1.65 0.0 1.85 -0.3 2.15 -0.4 2.45 -1.2 3.9 -2.15 3.25 -2.8 2.7 M1.35 -4.2 L1.05 -4.55 -0.65 -4.45 -0.95 -4.0 Q-0.95 -3.6 -0.05 -3.6 1.35 -3.6 1.35 -4.2 M1.4 3.1 L1.45 3.25 1.3 3.55 1.45 3.2 1.4 3.1" fill="#ffcc00" fill-rule="evenodd" stroke="none"/>
      <path d="M3.15 -2.8 L3.45 -2.9 Q3.9 -2.9 3.95 -2.35 L3.85 -1.55 4.1 -0.15 3.9 0.25 Q3.9 -2.4 3.4 -2.4 L3.1 -2.4 3.15 -2.7 3.15 -2.8 M3.65 0.65 L2.35 2.3 2.7 1.6 3.4 0.85 3.65 0.65 M2.1 2.65 L0.35 4.55 Q-0.55 4.55 -1.9 3.5 L-2.8 2.7 -2.15 3.25 -1.2 3.9 -1.1 3.95 -0.75 4.15 0.2 4.35 0.6 4.2 0.85 3.9 1.0 3.8 1.3 3.55 1.45 3.25 1.4 3.1 1.5 3.0 1.55 2.95 1.55 2.8 2.1 2.65 M-2.35 0.35 L-1.4 -0.85 -0.9 -1.65 -0.8 -1.7 Q-0.35 -1.4 0.35 -1.4 L1.8 -1.55 1.25 -0.45 0.05 1.65 0.0 1.8 0.0 1.85 -0.55 1.65 -1.4 1.05 -1.65 0.8 -2.25 0.35 -2.35 0.35 M1.35 -4.2 Q1.35 -3.6 -0.05 -3.6 -0.95 -3.6 -0.95 -4.0 L-0.65 -4.45 1.05 -4.55 1.35 -4.2" fill="#ffffff" fill-rule="evenodd" stroke="none"/>
      <path d="M3.9 0.25 L3.65 0.65 3.4 0.85 2.7 1.6 2.35 2.3 2.1 2.65 1.55 2.8 1.55 2.75 1.45 2.5 0.6 2.05 0.5 2.0 0.0 1.85 0.0 1.8 0.05 1.65 1.25 -0.45 1.8 -1.55 2.55 -1.9 3.1 -2.4 3.4 -2.4 Q3.9 -2.4 3.9 0.25" fill="#999999" fill-rule="evenodd" stroke="none"/>
      <path d="M-1.2 3.9 L-0.4 2.45 -0.3 2.15 0.0 1.85 0.5 2.0 0.6 2.05 1.45 2.5 1.55 2.75 1.55 2.8 1.55 2.95 1.5 3.0 1.4 3.1 1.45 3.2 1.3 3.55 1.0 3.8 0.85 3.9 0.6 4.2 0.2 4.35 -0.75 4.15 -1.1 3.95 -1.2 3.9" fill="#9b6400" fill-rule="evenodd" stroke="none"/>
      <path d="M3.85 -3.3 Q3.85 -2.55 3.45 -2.25 L3.45 -2.1 3.0 -1.4 Q2.55 -1.0 1.95 -0.95 L0.0 -0.95 -1.05 -1.25 -2.0 0.05 -3.3 2.0 Q-3.3 2.4 -1.9 3.35 -0.45 4.3 0.15 4.3 L0.6 4.25 0.8 3.85 1.8 2.3 2.1 1.95 Q3.2 0.6 3.45 0.6 3.9 0.6 3.9 1.0 L2.4 3.15 Q1.8 3.65 1.5 4.65 1.3 5.2 0.4 5.2 -1.2 5.2 -2.8 3.75 -4.15 2.5 -4.15 1.95 L-2.45 -0.75 -1.8 -1.55 -2.3 -1.9 Q-2.65 -2.2 -2.65 -3.1 L-2.6 -4.6 -2.35 -4.95 -1.85 -5.15 0.15 -5.15 0.6 -5.1 2.05 -5.15 2.9 -5.0 3.2 -5.15 Q3.85 -5.15 3.85 -3.3 M3.1 -3.65 L3.1 -4.2 2.95 -4.45 2.9 -4.65 2.65 -4.55 2.35 -4.6 1.7 -4.45 0.5 -4.4 0.15 -4.45 -0.95 -4.35 Q-1.65 -4.1 -1.65 -3.35 L-1.55 -2.55 Q-1.25 -2.15 -0.2 -2.0 -0.15 -2.45 0.1 -2.5 0.4 -2.6 0.4 -2.0 L0.5 -2.0 0.9 -2.0 0.9 -2.05 Q0.9 -2.95 1.2 -2.8 L1.45 -2.05 1.95 -2.1 2.7 -2.4 2.9 -2.6 Q3.1 -2.85 3.1 -3.65 M-1.85 -4.3 L-1.85 -4.35 -1.85 -4.3" fill="#000000" fill-rule="evenodd" stroke="none"/>
    </g>
    <g id="sprite3">
      <use ffdec:characterId="10" height="13.15" transform="matrix(1.0, 0.0, 0.0, 1.0, 0.0, 0.0)" width="14.15" xlink:href="#shape3"/>
    </g>
    <g id="shape3">
      <path d="M4.95 -5.65 L4.65 -5.85 4.2 -5.55 3.75 -5.4 3.55 -5.45 3.0 -5.1 2.6 -4.55 Q2.6 -4.25 2.95 -4.25 L3.05 -4.25 3.15 -4.25 3.6 -4.15 5.1 -4.05 Q5.35 -4.05 5.45 -4.2 L5.55 -3.7 6.0 -3.3 6.25 -3.05 Q6.25 -2.65 5.4 -2.1 L5.1 -1.15 4.15 -0.8 2.2 0.25 1.2 0.45 Q0.35 0.65 0.2 0.8 L-0.2 1.0 -0.1 1.0 1.05 1.1 Q2.05 1.15 2.75 1.55 L3.0 1.5 3.2 1.6 3.3 1.9 3.45 2.05 3.55 2.15 4.1 2.9 4.2 3.25 4.5 3.05 4.4 4.1 3.75 4.85 2.65 5.65 -0.6 6.3 -2.15 5.95 -2.55 5.8 Q-3.85 5.7 -4.35 5.2 L-4.8 4.1 -4.8 3.45 -4.75 3.45 -4.5 3.2 -4.65 2.85 -4.0 1.75 -3.9 1.65 -3.9 1.6 -3.85 1.6 Q-3.5 1.2 -3.0 1.2 -2.45 1.2 -2.45 1.6 L-2.3 1.25 -2.5 0.95 -2.9 0.7 Q-3.2 0.1 -3.9 -0.05 L-4.6 -0.6 -4.95 -0.75 -4.95 -0.3 -5.0 -1.2 -5.45 -2.1 -5.95 -2.85 -5.45 -3.6 -5.55 -4.1 -4.45 -4.35 -3.6 -4.55 -3.4 -4.55 Q-3.0 -4.55 -3.0 -4.95 L-3.5 -5.5 Q-3.8 -5.5 -3.9 -5.3 L-4.1 -5.4 -4.7 -5.75 -5.0 -5.9 -4.75 -6.0 -4.1 -5.9 0.15 -6.0 0.75 -5.9 2.4 -5.9 4.05 -6.0 4.9 -5.75 4.95 -5.65 M4.65 0.1 L4.55 0.25 4.55 0.3 4.5 0.2 4.65 0.1 M0.7 4.55 Q1.1 4.15 1.1 3.55 1.1 2.95 0.7 2.55 0.3 2.15 -0.3 2.15 -0.9 2.15 -1.3 2.55 -1.7 2.95 -1.7 3.55 -1.7 4.15 -1.3 4.55 -0.9 4.95 -0.3 4.95 0.3 4.95 0.7 4.55 M-0.5 -1.85 L-0.8 -2.1 -2.05 -1.2 -3.0 -0.15 Q-3.0 0.3 -2.35 0.3 L-1.4 -0.7 Q-0.5 -1.7 -0.5 -1.85 M-1.5 1.95 L-1.45 1.95 -1.5 1.95 M-4.8 1.05 L-4.55 1.25 -4.65 1.5 -4.8 2.05 -4.8 1.05" fill="#ffffff" fill-rule="evenodd" stroke="none"/>
      <path d="M5.45 -4.2 Q5.35 -4.05 5.1 -4.05 L3.6 -4.15 3.15 -4.25 3.05 -4.25 2.95 -4.25 Q2.6 -4.25 2.6 -4.55 L3.0 -5.1 3.55 -5.45 3.75 -5.4 4.2 -5.55 4.65 -5.85 4.95 -5.65 4.95 -5.3 5.45 -4.5 5.45 -4.35 5.45 -4.2 M-5.0 -5.9 L-4.7 -5.75 -4.1 -5.4 -3.9 -5.3 Q-3.8 -5.5 -3.5 -5.5 L-3.0 -4.95 Q-3.0 -4.55 -3.4 -4.55 L-3.6 -4.55 -4.45 -4.35 -5.55 -4.1 Q-5.5 -5.6 -5.0 -5.9 M-4.95 -0.3 L-4.95 -0.75 -4.6 -0.6 -3.9 -0.05 Q-3.2 0.1 -2.9 0.7 L-2.5 0.95 -2.3 1.25 -2.45 1.6 Q-2.45 1.2 -3.0 1.2 -3.5 1.2 -3.85 1.6 L-3.9 1.6 -3.9 1.65 -4.0 1.75 -4.65 2.85 -4.5 3.2 -4.75 3.45 -4.8 3.45 -4.8 2.05 -4.65 1.5 -4.55 1.25 -4.8 1.05 -4.8 0.85 -4.8 0.65 -4.85 0.3 -4.9 0.2 -4.95 -0.3 M4.5 3.05 L4.2 3.25 4.1 2.9 3.55 2.15 3.45 2.05 3.3 1.9 3.2 1.6 3.0 1.5 2.75 1.55 Q2.05 1.15 1.05 1.1 L-0.1 1.0 -0.2 1.0 0.2 0.8 Q0.35 0.65 1.2 0.45 L2.2 0.25 4.15 -0.8 5.1 -1.15 5.05 -0.95 4.65 0.1 4.5 0.2 4.55 0.3 4.35 1.25 4.5 3.0 4.5 3.05 M-0.5 -1.85 Q-0.5 -1.7 -1.4 -0.7 L-2.35 0.3 Q-3.0 0.3 -3.0 -0.15 L-2.05 -1.2 -0.8 -2.1 -0.5 -1.85 M-1.5 1.95 L-1.45 1.95 -1.5 1.95" fill="#999999" fill-rule="evenodd" stroke="none"/>
      <path d="M0.7 4.55 Q0.3 4.95 -0.3 4.95 -0.9 4.95 -1.3 4.55 -1.7 4.15 -1.7 3.55 -1.7 2.95 -1.3 2.55 -0.9 2.15 -0.3 2.15 0.3 2.15 0.7 2.55 1.1 2.95 1.1 3.55 1.1 4.15 0.7 4.55" fill="#000000" fill-rule="evenodd" stroke="none"/>
      <path d="M-1.7 5.5 L-1.6 5.5 Q-1.4 5.95 -0.45 5.95 L2.35 5.45 3.2 5.0 3.7 4.7 Q4.0 4.5 4.2 4.45 L4.15 3.85 4.1 3.15 4.0 1.35 Q4.0 0.1 4.7 -0.75 L4.25 -0.45 3.85 -0.2 3.15 0.1 1.6 0.65 -0.6 1.65 -1.1 1.65 -1.2 1.7 -1.4 1.55 -1.6 1.2 -1.45 0.95 Q-1.1 0.65 0.2 0.2 L1.95 -0.55 Q4.2 -1.4 5.8 -2.65 L5.9 -2.75 6.2 -3.15 4.25 -3.65 Q2.7 -3.95 2.7 -4.15 2.7 -4.4 3.4 -4.4 L5.3 -4.2 4.75 -5.65 4.5 -5.65 Q3.1 -5.15 2.55 -5.15 L2.5 -5.15 2.5 -5.1 1.55 -3.7 0.2 -2.1 -1.85 0.7 -1.85 0.9 -1.85 0.95 -1.85 1.4 -2.5 1.3 -2.6 1.3 -2.6 1.1 Q-3.2 1.05 -4.5 -0.15 L-4.6 -0.3 -4.65 -0.3 -5.3 -1.0 -6.05 -1.75 -6.5 -2.25 -6.6 -2.45 -6.65 -2.4 -6.75 -2.55 -7.05 -2.9 -6.0 -3.85 -6.0 -4.0 -5.7 -5.6 -5.6 -5.85 -5.6 -5.9 -5.55 -6.1 -5.3 -6.1 -4.95 -6.15 -2.85 -6.0 -2.2 -5.9 -1.85 -5.25 -1.8 -5.2 -1.9 -5.15 -1.5 -4.6 -1.45 -4.5 -1.3 -4.8 -1.05 -5.4 -1.2 -5.7 -1.05 -6.2 0.2 -6.35 Q1.05 -6.35 1.05 -5.85 L0.8 -5.45 0.8 -5.35 0.8 -5.3 1.15 -4.75 1.2 -4.25 2.35 -5.25 2.35 -5.35 Q2.35 -5.75 3.35 -6.05 L4.95 -6.35 5.45 -5.9 5.6 -5.3 6.05 -4.25 Q6.15 -4.2 6.35 -4.1 L7.05 -3.5 7.1 -3.35 Q7.1 -2.85 5.8 -1.65 L5.25 -1.15 5.35 -0.8 5.05 -0.05 Q4.7 0.7 4.7 1.3 L4.95 4.4 4.95 4.5 4.9 4.75 4.55 5.2 Q4.15 5.5 3.35 5.8 L3.1 5.9 2.6 6.05 0.4 6.75 -0.25 6.8 -2.6 6.3 -3.2 6.0 -4.25 5.75 -4.5 5.6 -4.6 5.55 -5.25 4.75 -5.25 4.8 -5.3 4.55 -5.3 4.45 -5.3 4.25 -5.25 4.15 -5.2 3.3 -5.15 0.8 -5.15 0.15 -4.9 -0.15 -4.8 -0.3 -4.55 0.8 -4.45 2.2 -4.5 3.65 -4.5 3.9 -4.55 4.3 -4.5 4.45 -4.25 4.85 -2.5 5.4 -2.55 5.4 -1.9 5.5 -1.7 5.5 M-4.5 3.9 L-4.55 3.9 -4.5 3.9 M-5.45 -2.5 Q-3.4 -0.3 -2.4 0.15 L-2.35 0.15 -0.75 -1.95 -2.8 -5.2 -4.2 -5.4 -5.15 -5.65 -5.15 -5.2 -5.3 -4.25 -5.3 -4.15 -5.0 -4.3 Q-2.95 -5.2 -2.95 -4.5 L-5.3 -3.1 -5.4 -3.05 -5.7 -3.1 -5.65 -3.0 -5.6 -2.9 -5.8 -2.85 -5.7 -2.75 -5.5 -2.55 -5.5 -2.5 -5.45 -2.5 M-2.55 4.45 L-2.5 4.6 -2.55 4.65 -2.55 4.45" fill="#000000" fill-rule="evenodd" stroke="none"/>
      <path d="M-1.85 1.5 L-1.9 1.8 -1.9 3.8 -1.7 5.45 -1.8 5.45 Q-1.8 4.45 -1.95 4.25 L-1.95 1.5 -1.85 1.5 M-4.5 3.9 L-4.55 3.9 -4.5 3.9 M-5.25 4.8 L-5.25 4.75 -4.6 5.55 -5.1 5.15 -5.25 4.85 -5.25 4.8 M-6.65 -2.4 L-6.6 -2.45 -6.5 -2.25 -6.05 -1.75 -6.65 -2.4 M-5.4 -3.05 L-5.6 -2.9 -5.65 -3.0 -5.7 -3.1 -5.4 -3.05 M-5.5 -2.5 L-5.45 -2.5 -5.5 -2.5 M-2.6 1.45 L-2.5 1.45 -2.5 1.5 -2.55 1.6 -2.55 2.9 -2.55 4.15 -2.6 4.0 -2.6 1.45 M-2.55 4.7 L-2.45 5.3 -2.55 5.25 -2.55 5.2 -2.55 4.7" fill="#585858" fill-rule="evenodd" stroke="none"/>
      <path d="M-1.85 1.4 L-1.85 1.45 -1.85 1.5 -1.95 1.5 -1.95 4.25 Q-1.8 4.45 -1.8 5.45 L-1.7 5.45 -1.7 5.5 -1.9 5.5 -2.55 5.4 -2.5 5.4 -2.55 5.25 -2.45 5.3 -2.55 4.7 -2.55 4.65 -2.5 4.6 -2.55 4.45 -2.55 4.15 -2.55 2.9 -2.55 1.6 -2.5 1.5 -2.5 1.45 -2.6 1.45 -2.6 1.3 -2.5 1.3 -1.85 1.4" fill="#666666" fill-rule="evenodd" stroke="none"/>
    </g>
  </defs>
</svg>
