<?xml version="1.0" encoding="UTF-8" standalone="no"?>
<svg xmlns:ffdec="https://www.free-decompiler.com/flash" xmlns:xlink="http://www.w3.org/1999/xlink" ffdec:objectType="frame" height="28.35px" width="67.1px" xmlns="http://www.w3.org/2000/svg">
  <g transform="matrix(1.0, 0.0, 0.0, 1.0, 32.75, -3.15)">
    <use ffdec:characterId="2" height="15.7" transform="matrix(-0.7249, 0.339, 0.339, 0.7249, -23.95, 13.8)" width="16.95" xlink:href="#sprite0"/>
    <use ffdec:characterId="14" height="20.7" transform="matrix(1.0, 0.0, 0.0, 1.0, 0.0, 0.0)" width="35.7" xlink:href="#shape1"/>
    <use ffdec:characterId="6" height="3.7" transform="matrix(1.0, 0.0, 0.0, 1.0, -0.45, 21.9)" width="3.7" xlink:href="#shape2"/>
    <use ffdec:characterId="6" height="3.7" transform="matrix(0.8378, 0.0, 0.0, 0.8378, 0.15, 17.15)" width="3.7" xlink:href="#shape2"/>
    <use ffdec:characterId="6" height="3.7" transform="matrix(0.8378, 0.0, 0.0, 0.8378, 0.6, 26.9)" width="3.7" xlink:href="#shape2"/>
    <use ffdec:characterId="5" height="21.6" transform="matrix(0.2922, 0.0, 0.0, 0.1115, 14.6, 29.9)" width="29.0" xlink:href="#sprite1"/>
    <use ffdec:characterId="5" height="21.6" transform="matrix(0.6069, 0.0, 0.0, 0.2315, -11.45, 29.05)" width="29.0" xlink:href="#sprite1"/>
    <use ffdec:characterId="5" height="21.6" transform="matrix(0.3139, 0.0, 0.0, 0.1197, -20.9, 30.05)" width="29.0" xlink:href="#sprite1"/>
    <use ffdec:characterId="2" height="15.7" transform="matrix(0.9696, 0.2329, -0.2329, 0.9696, 24.3, 12.75)" width="16.95" xlink:href="#sprite0"/>
  </g>
  <defs>
    <g id="sprite0">
      <use ffdec:characterId="1" height="15.7" transform="matrix(1.0, 0.0, 0.0, 1.0, 0.0, 0.0)" width="16.95" xlink:href="#shape0"/>
    </g>
    <g id="shape0">
      <path d="M8.4 -4.75 L8.2 -4.25 8.2 -3.85 8.1 -2.55 7.8 -2.15 7.8 -2.05 Q7.3 -0.6 5.2 1.05 L3.4 2.45 2.05 2.9 0.55 3.3 0.35 3.35 -0.55 4.4 -1.65 5.4 -2.3 6.2 Q-3.15 7.15 -4.15 7.5 L-5.65 7.75 -7.4 7.8 Q-8.6 7.35 -8.4 5.7 -8.2 5.05 -6.85 5.35 -5.1 5.8 -3.95 5.0 L-3.45 4.5 -3.0 3.85 Q-2.7 3.5 -1.55 2.8 L-1.05 2.45 -1.0 2.4 -0.9 2.25 0.3 1.05 1.3 -0.45 2.25 -1.9 Q2.45 -2.5 2.45 -4.5 2.4 -6.4 2.6 -6.95 L2.65 -7.0 2.7 -7.15 2.95 -7.6 Q3.3 -7.95 3.6 -7.85 4.1 -7.65 4.2 -6.0 L4.2 -4.25 Q4.05 -2.9 3.35 -0.95 L2.65 0.65 3.05 0.6 4.05 0.3 Q5.6 -0.75 6.2 -1.8 L7.4 -4.15 8.4 -5.5 Q8.65 -5.4 8.4 -4.75 M3.4 -3.65 L3.55 -5.3 Q3.65 -6.35 3.3 -6.85 L3.2 -6.7 Q3.5 -4.35 3.2 -3.25 L3.25 -3.25 3.4 -3.65 M2.4 1.9 Q3.5 1.8 3.85 1.1 L2.45 1.9 2.4 1.9 M1.75 0.75 L1.8 0.75 2.25 -0.35 1.05 1.5 Q0.25 2.45 -0.65 3.0 L-0.65 3.05 0.65 2.5 1.2 2.15 Q0.8 2.1 0.95 1.75 L1.4 1.15 1.45 1.0 Q1.6 0.7 1.75 0.75 M1.35 2.15 L1.25 2.2 1.35 2.15 M-1.25 3.65 L-1.35 3.65 -1.3 3.7 -1.25 3.65" fill="#000000" fill-rule="evenodd" stroke="none"/>
      <path d="M7.65 -2.4 Q7.35 -1.45 5.3 0.6 2.75 3.2 0.9 2.7 L0.5 3.0 -1.7 4.75 -3.55 6.55 Q-6.55 7.7 -7.4 7.2 -8.3 6.6 -8.2 5.95 L-7.7 5.5 -7.45 5.75 -5.55 5.8 Q-3.9 5.75 -3.25 5.1 L-1.2 2.95 0.0 2.0 0.95 0.85 2.2 -1.5 Q2.85 -3.35 2.85 -6.65 3.65 -8.8 3.75 -6.1 3.85 -3.45 3.05 -1.2 L2.0 1.15 1.8 1.6 Q3.55 1.15 5.65 -0.8 L7.15 -2.65 8.15 -4.75 8.2 -4.75 7.65 -2.4" fill="#542b01" fill-rule="evenodd" stroke="none"/>
      <path d="M0.05 3.4 Q-1.45 4.3 -2.8 5.65 -3.6 6.6 -4.45 6.7 L-7.2 6.75 Q-7.9 6.5 -7.8 6.2 L-7.45 6.1 Q-4.95 7.0 -3.15 5.7 L-0.75 3.55 Q0.95 2.55 1.9 1.0 L0.9 2.35 0.05 3.4" fill="#ca6502" fill-rule="evenodd" stroke="none"/>
      <path d="M7.8 -3.5 L7.6 -2.85 Q7.1 -1.45 5.1 0.3 3.0 2.2 1.45 2.3 L1.1 2.2 1.1 2.1 2.2 1.85 Q3.3 1.65 3.6 1.15 L4.5 0.45 5.25 -0.25 Q7.45 -1.8 7.75 -3.5 L7.8 -3.5" fill="#ca6502" fill-rule="evenodd" stroke="none"/>
      <path d="M3.35 -4.85 L3.0 -3.0 2.8 -1.25 2.35 -0.35 1.7 0.85 1.6 0.8 1.85 0.1 2.7 -1.25 Q3.1 -2.4 3.05 -4.0 L3.0 -5.45 Q2.85 -6.55 3.0 -6.85 L3.2 -7.15 Q3.55 -7.0 3.55 -6.1 L3.35 -4.85" fill="#ca6502" fill-rule="evenodd" stroke="none"/>
    </g>
    <g id="shape1">
      <path d="M9.6 13.55 L9.95 13.4 Q10.6 13.2 10.85 13.0 11.3 12.65 11.9 12.3 L15.15 10.6 16.35 12.2 Q18.1 14.85 18.1 18.0 18.1 23.5 12.9 27.4 7.65 31.3 0.25 31.3 -7.15 31.3 -12.4 27.4 -17.6 23.5 -17.6 18.0 -17.6 15.85 -16.75 13.95 -16.05 12.25 -14.7 10.75 L-13.1 11.6 -11.85 12.2 -9.6 13.1 Q-12.4 12.9 -13.3 13.55 -14.25 14.15 -14.65 15.05 -15.05 15.95 -15.05 16.65 L-14.45 18.35 Q-13.9 19.7 -13.9 20.25 -13.9 22.75 -13.3 23.7 -11.3 26.65 -4.15 26.65 -3.1 26.65 -2.45 26.2 L-1.55 25.8 Q-0.7 25.8 -0.25 26.15 L1.85 26.45 Q7.0 26.45 9.75 24.25 L9.85 24.35 Q10.95 24.45 12.45 22.05 13.9 19.8 13.9 18.7 L13.65 16.55 13.55 16.55 13.3 18.45 Q13.15 19.55 12.55 20.25 L12.2 20.65 Q12.7 18.85 12.75 15.5 L12.5 14.95 12.45 14.85 12.1 14.6 11.95 14.35 Q10.85 13.7 9.6 13.55 M-1.0 28.25 Q-0.5 28.25 -0.5 28.0 L-0.55 27.8 -1.75 27.65 -1.6 28.1 -1.0 28.25 M4.05 28.05 L4.65 27.0 4.5 26.85 2.05 27.1 Q1.35 27.2 1.35 27.7 1.35 28.3 2.65 28.3 L4.05 28.05" fill="#b3bfcc" fill-rule="evenodd" stroke="none"/>
      <path d="M9.6 13.55 Q10.85 13.7 11.95 14.35 L12.1 14.6 12.45 14.85 12.5 14.95 12.75 15.5 Q12.7 18.85 12.2 20.65 L12.55 20.25 Q13.15 19.55 13.3 18.45 L13.55 16.55 13.65 16.55 13.9 18.7 Q13.9 19.8 12.45 22.05 10.95 24.45 9.85 24.35 L9.75 24.25 Q7.0 26.45 1.85 26.45 L-0.25 26.15 Q-0.7 25.8 -1.55 25.8 L-2.45 26.2 Q-3.1 26.65 -4.15 26.65 -11.3 26.65 -13.3 23.7 -13.9 22.75 -13.9 20.25 -13.9 19.7 -14.45 18.35 L-15.05 16.65 Q-15.05 15.95 -14.65 15.05 -14.25 14.15 -13.3 13.55 -12.4 12.9 -9.6 13.1 -5.5 14.6 -1.35 14.65 L0.65 14.85 5.95 14.3 6.55 14.25 7.05 14.05 7.3 14.0 9.6 13.55 M4.05 28.05 L2.65 28.3 Q1.35 28.3 1.35 27.7 1.35 27.2 2.05 27.1 L4.5 26.85 4.65 27.0 4.05 28.05 M-1.0 28.25 L-1.6 28.1 -1.75 27.65 -0.55 27.8 -0.5 28.0 Q-0.5 28.25 -1.0 28.25" fill="#ffffff" fill-rule="evenodd" stroke="none"/>
    </g>
    <g id="shape2">
      <path d="M1.85 0.0 Q1.85 0.75 1.3 1.3 0.75 1.85 0.0 1.85 -0.75 1.85 -1.3 1.3 -1.85 0.75 -1.85 0.0 -1.85 -0.75 -1.3 -1.3 -0.75 -1.85 0.0 -1.85 0.75 -1.85 1.3 -1.3 1.85 -0.75 1.85 0.0" fill="#000000" fill-rule="evenodd" stroke="none"/>
      <path d="M0.1 0.15 L-0.45 0.4 -1.05 0.15 -1.25 -0.4 -1.05 -1.0 -0.45 -1.2 0.1 -1.0 0.35 -0.4 0.1 0.15" fill="#999999" fill-rule="evenodd" stroke="none"/>
    </g>
    <g id="sprite1">
      <use ffdec:characterId="4" height="21.6" transform="matrix(1.0, 0.0, 0.0, 1.0, 0.0, 0.0)" width="29.0" xlink:href="#shape3"/>
    </g>
    <g id="shape3">
      <path d="M14.5 0.0 Q14.5 4.45 10.25 7.6 6.0 10.8 0.0 10.8 -6.0 10.8 -10.25 7.6 -14.5 4.45 -14.5 0.0 -14.5 -4.45 -10.25 -7.65 -6.0 -10.8 0.0 -10.8 6.0 -10.8 10.25 -7.65 14.5 -4.45 14.5 0.0" fill="#b3bfcc" fill-rule="evenodd" stroke="none"/>
      <path d="M10.15 -2.75 Q10.15 1.2 9.5 2.7 7.65 6.85 1.3 6.85 L-0.4 6.6 -1.45 6.3 -2.2 6.65 -3.55 7.0 Q-9.35 7.0 -11.0 4.6 -11.5 3.85 -11.5 1.8 L-11.95 0.25 -12.45 -1.1 Q-12.45 -1.75 -11.7 -3.4 L-10.6 -5.7 Q-9.95 -6.85 -8.55 -7.65 L-4.5 -9.3 Q0.1 -10.75 5.35 -7.85 10.15 -5.2 10.15 -2.75" fill="#ffffff" fill-rule="evenodd" stroke="none"/>
      <path d="M3.55 7.3 L3.05 8.15 1.95 8.35 Q0.9 8.35 0.9 7.85 0.9 7.45 1.45 7.35 L3.45 7.15 3.55 7.3" fill="#ffffff" fill-rule="evenodd" stroke="none"/>
      <path d="M-0.6 8.1 Q-0.6 8.3 -1.0 8.3 L-1.5 8.2 -1.6 7.8 -0.65 7.95 -0.6 8.1" fill="#ffffff" fill-rule="evenodd" stroke="none"/>
      <path d="M11.1 0.55 Q11.1 1.45 9.95 3.25 8.7 5.2 7.8 5.15 L7.45 4.85 Q7.45 4.45 10.0 1.8 10.5 1.25 10.6 0.35 L10.8 -1.2 10.85 -1.2 11.1 0.55" fill="#ffffff" fill-rule="evenodd" stroke="none"/>
    </g>
  </defs>
</svg>
