<?xml version="1.0" encoding="UTF-8" standalone="no"?>
<svg xmlns:ffdec="https://www.free-decompiler.com/flash" xmlns:xlink="http://www.w3.org/1999/xlink" ffdec:objectType="frame" height="17.45px" width="42.6px" xmlns="http://www.w3.org/2000/svg">
  <g transform="matrix(1.0, 0.0, 0.0, 1.0, 12.05, -14.8)">
    <use ffdec:characterId="12" height="12.0" transform="matrix(1.0, 0.0, 0.0, 1.0, -2.25, 19.65)" width="32.8" xlink:href="#sprite0"/>
    <use ffdec:characterId="3" height="5.95" transform="matrix(1.0, 0.0, 0.0, 1.0, 0.55, 22.6)" width="8.45" xlink:href="#sprite1"/>
    <use ffdec:characterId="20" height="6.65" transform="matrix(1.0, 0.0, 0.0, 1.0, 1.55, 25.75)" width="10.75" xlink:href="#sprite2"/>
    <use ffdec:characterId="5" height="8.3" transform="matrix(1.0, 0.0, 0.0, 1.0, 2.7, 14.85)" width="9.3" xlink:href="#sprite3"/>
    <use ffdec:characterId="3" height="5.95" transform="matrix(-1.0, 0.0, 0.0, 1.0, -0.6, 22.6)" width="8.45" xlink:href="#sprite1"/>
    <use ffdec:characterId="20" height="6.65" transform="matrix(-1.0, 0.0, 0.0, 1.0, -1.6, 25.75)" width="10.75" xlink:href="#sprite2"/>
    <use ffdec:characterId="5" height="8.3" transform="matrix(-1.0, 0.0, 0.0, 1.0, -2.75, 14.85)" width="9.3" xlink:href="#sprite3"/>
    <use ffdec:characterId="7" height="9.5" transform="matrix(1.0, 0.0, 0.0, 1.0, -4.35, 14.8)" width="8.8" xlink:href="#sprite4"/>
  </g>
  <defs>
    <g id="sprite0">
      <use ffdec:characterId="11" height="12.0" transform="matrix(1.0, 0.0, 0.0, 1.0, 0.0, 0.0)" width="32.8" xlink:href="#shape0"/>
    </g>
    <g id="shape0">
      <path d="M8.55 4.35 L10.0 4.85 Q11.15 6.45 11.65 6.5 L12.45 6.6 Q13.7 6.6 14.3 5.4 L14.75 4.35 14.75 4.0 16.0 3.5 17.7 2.65 Q19.15 0.95 19.9 1.5 L19.75 3.3 Q24.8 -1.35 31.95 1.0 L29.8 1.95 Q25.9 2.9 22.2 5.25 L22.9 5.05 Q18.5 8.05 15.3 9.6 12.05 11.1 5.95 9.0 -0.15 6.85 1.65 2.15 7.55 8.05 12.65 7.45 10.3 6.05 8.55 4.35" fill="#d2d0aa" fill-rule="evenodd" stroke="none"/>
      <path d="M8.55 4.35 Q10.3 6.05 12.65 7.45 7.55 8.05 1.65 2.15 -0.15 6.85 5.95 9.0 12.05 11.1 15.3 9.6 18.5 8.05 22.9 5.05 22.45 8.1 19.6 9.75 15.9 11.95 11.8 11.4 6.5 11.3 3.4 8.75 0.25 6.2 0.15 2.95 0.9 1.6 2.15 0.7 L2.8 0.4 8.55 4.35" fill="#93927c" fill-rule="evenodd" stroke="none"/>
      <path d="M23.7 1.95 Q26.3 0.8 29.1 1.5 L25.8 2.75 Q22.75 3.85 20.7 5.9 18.6 7.9 15.45 9.25 L10.2 9.1 Q8.1 7.55 7.35 6.45 L8.75 7.3 Q11.15 8.65 14.05 8.15 16.9 7.4 19.05 5.15 21.05 3.15 23.7 1.95" fill="#ffffff" fill-rule="evenodd" stroke="none"/>
      <path d="M19.25 2.1 Q18.8 5.05 15.95 5.75 L14.35 6.0 Q16.05 4.4 18.1 3.1 L19.25 2.1" fill="#ffffff" fill-rule="evenodd" stroke="none"/>
      <path d="M9.2 11.65 Q7.6 11.4 4.85 10.0 2.05 8.6 0.75 5.9 -0.6 3.15 0.55 2.65 0.5 4.45 1.5 6.15 2.6 8.05 5.5 9.45 8.4 10.8 11.0 11.1 L15.95 10.9 Q19.25 10.1 21.45 7.45 22.55 6.2 23.3 4.6 23.05 6.95 21.45 8.75 19.8 10.6 17.3 11.3 14.95 12.05 12.45 12.0 L9.2 11.65" fill="#444539" fill-rule="evenodd" stroke="none"/>
      <path d="M30.8 1.3 Q28.9 0.6 26.4 0.85 22.85 1.1 20.8 2.85 L17.3 6.1 Q18.75 3.3 21.8 1.6 24.85 -0.15 27.95 0.0 31.0 0.1 32.8 1.3 L28.0 2.65 Q25.6 3.35 23.6 4.9 21.55 6.45 19.85 8.15 21.8 5.05 24.25 3.8 26.65 2.55 28.5 1.95 30.3 1.35 30.8 1.3" fill="#444539" fill-rule="evenodd" stroke="none"/>
      <path d="M19.2 0.95 L19.65 0.4 Q20.8 2.0 19.6 3.65 19.9 2.55 19.4 1.45 17.6 3.75 15.8 4.15 13.95 4.55 14.5 3.95 L16.45 3.2 Q18.0 2.45 19.2 0.95 M2.65 0.9 Q1.25 0.6 0.15 3.45 0.15 0.6 2.85 0.05 3.6 0.05 5.8 2.15 8.0 4.2 10.45 4.9 8.8 5.6 6.4 3.4 4.0 1.15 2.65 0.9" fill="#444539" fill-rule="evenodd" stroke="none"/>
    </g>
    <g id="sprite1">
      <use ffdec:characterId="2" height="5.95" transform="matrix(1.0, 0.0, 0.0, 1.0, 0.0, 0.0)" width="8.45" xlink:href="#shape1"/>
    </g>
    <g id="shape1">
      <path d="M3.15 -0.5 L6.0 2.05 7.05 3.6 6.7 3.7 4.6 4.15 2.7 4.55 Q1.6 4.65 1.15 4.0 L0.8 3.15 0.3 2.2 -0.25 1.2 Q-0.55 0.55 0.65 0.3 L2.4 -0.35 3.15 -0.5" fill="#6c402a" fill-rule="evenodd" stroke="none"/>
      <path d="M5.4 2.15 L2.75 -0.8 7.1 3.2 7.85 4.0 Q7.65 4.5 5.4 2.15" fill="#1e1a18" fill-rule="evenodd" stroke="none"/>
      <path d="M0.55 3.35 L-0.6 0.55 Q1.2 2.15 2.05 5.15 1.3 4.95 0.55 3.35" fill="#1e1a18" fill-rule="evenodd" stroke="none"/>
      <path d="M2.95 0.65 Q4.35 1.65 5.4 3.1 L3.4 3.65 2.4 2.3 1.65 0.95 2.95 0.65" fill="#a76443" fill-rule="evenodd" stroke="none"/>
    </g>
    <g id="sprite2">
      <use ffdec:characterId="19" height="6.65" transform="matrix(1.0, 0.0, 0.0, 1.0, 0.0, 0.0)" width="10.75" xlink:href="#shape2"/>
    </g>
    <g id="shape2">
      <path d="M9.85 3.5 L10.05 4.1 Q7.85 5.75 5.35 6.1 3.35 6.25 1.7 5.6 L0.8 4.9 Q-0.7 3.05 -0.1 1.05 L3.75 0.55 5.6 0.0 6.4 -0.1 Q9.1 1.4 9.85 3.5" fill="#1c1c33" fill-rule="evenodd" stroke="none"/>
      <path d="M1.3 1.85 L2.35 1.75 5.15 0.95 7.3 4.1 7.9 3.75 Q8.75 4.95 5.65 5.25 2.55 5.55 2.35 4.9 3.15 4.25 2.8 3.4 2.55 2.7 1.3 1.85" fill="#101012" fill-rule="evenodd" stroke="none"/>
      <path d="M5.5 0.9 L6.15 0.55 9.2 3.9 Q7.75 5.3 6.7 4.4 5.7 3.4 4.85 2.1 L1.3 1.85 5.5 0.9" fill="#7c7c96" fill-rule="evenodd" stroke="none"/>
      <path d="M0.25 2.8 Q0.25 4.35 1.7 5.2 3.1 6.05 5.3 5.9 7.45 5.75 10.25 3.9 L8.8 5.25 Q5.05 7.5 1.1 5.75 0.5 5.1 0.05 4.05 -0.4 3.0 -0.3 0.85 L0.3 0.8 0.25 2.8" fill="#000000" fill-rule="evenodd" stroke="none"/>
      <path d="M5.45 -0.15 L6.65 -0.05 8.35 0.95 Q9.65 1.8 10.45 3.65 L9.85 4.25 9.75 3.45 9.65 3.1 8.1 1.45 Q6.7 -0.1 5.5 0.2 4.3 0.5 4.5 0.2 4.7 -0.1 5.45 -0.15" fill="#000000" fill-rule="evenodd" stroke="none"/>
    </g>
    <g id="sprite3">
      <use ffdec:characterId="4" height="8.3" transform="matrix(1.0, 0.0, 0.0, 1.0, 0.0, 0.0)" width="9.3" xlink:href="#shape3"/>
    </g>
    <g id="shape3">
      <path d="M0.35 3.25 L0.3 3.15 0.25 3.05 0.15 2.9 Q0.0 2.3 0.0 1.1 0.0 0.75 0.35 0.4 0.85 0.0 1.6 0.0 2.55 0.0 4.0 1.05 L4.85 1.7 5.15 1.95 3.25 2.75 0.35 3.25" fill="#452617" fill-rule="evenodd" stroke="none"/>
      <path d="M5.15 1.95 L5.4 2.15 5.95 2.65 6.15 2.85 Q8.95 5.45 8.95 6.05 8.95 6.4 7.3 7.2 5.6 8.05 4.6 8.05 3.4 8.05 3.6 7.3 L2.95 6.45 1.6 4.65 0.8 3.75 0.7 3.65 0.4 3.3 0.35 3.25 3.25 2.75 5.15 1.95" fill="#6c402a" fill-rule="evenodd" stroke="none"/>
      <path d="M8.5 6.15 Q8.5 5.75 7.55 4.8 L5.2 2.35 Q3.5 0.5 1.25 0.0 3.0 -0.1 4.3 0.95 L7.1 3.35 Q8.55 4.55 9.3 6.2 L8.1 7.15 Q7.05 7.85 5.85 8.15 4.3 8.65 3.2 7.6 L0.85 4.2 0.85 3.4 1.3 3.9 Q3.0 5.5 3.9 7.6 L4.6 7.7 Q6.9 7.35 8.5 6.15" fill="#1e1a18" fill-rule="evenodd" stroke="none"/>
      <path d="M6.65 4.6 L7.45 5.8 6.75 6.35 5.85 6.7 Q4.0 5.05 3.05 2.85 4.2 2.2 5.0 2.85 5.8 3.45 6.65 4.6" fill="#a76443" fill-rule="evenodd" stroke="none"/>
    </g>
    <g id="sprite4">
      <use ffdec:characterId="6" height="9.5" transform="matrix(1.0, 0.0, 0.0, 1.0, 0.0, 0.0)" width="8.8" xlink:href="#shape4"/>
    </g>
    <g id="shape4">
      <path d="M8.05 3.2 L8.25 4.95 8.45 7.75 Q8.5 8.75 5.7 9.15 L3.5 9.1 Q0.5 8.85 0.4 7.9 0.25 6.95 0.45 5.45 L0.75 3.2 Q4.6 4.2 8.05 3.2" fill="#885339" fill-rule="evenodd" stroke="none"/>
      <path d="M0.75 3.2 L0.85 2.35 0.8 1.05 0.0 0.0 8.8 0.05 Q7.85 0.65 7.8 1.4 L7.8 2.35 8.05 3.2 Q4.6 4.2 0.75 3.2" fill="#452617" fill-rule="evenodd" stroke="none"/>
      <path d="M2.3 3.55 Q4.3 3.85 6.1 3.55 L6.4 4.6 Q7.05 6.85 5.8 8.85 4.4 9.6 3.25 9.25 2.05 8.85 1.95 7.2 1.95 4.95 2.3 3.55" fill="#e0b58b" fill-rule="evenodd" stroke="none"/>
      <path d="M6.1 3.55 Q4.3 3.85 2.3 3.55 L2.35 3.35 3.0 0.55 5.05 0.5 6.1 3.55" fill="#ba9169" fill-rule="evenodd" stroke="none"/>
      <path d="M0.75 7.9 L0.4 8.25 Q0.05 8.25 0.05 7.9 L0.25 5.1 0.4 3.7 Q0.45 2.9 0.8 2.6 L0.9 3.3 0.75 7.9" fill="#1e1a18" fill-rule="evenodd" stroke="none"/>
      <path d="M7.75 2.3 L7.85 2.3 Q8.55 3.7 8.55 6.4 L8.55 7.35 Q8.5 8.15 8.15 8.15 7.85 8.15 7.85 7.65 L7.95 6.15 7.75 3.25 7.75 2.3" fill="#1e1a18" fill-rule="evenodd" stroke="none"/>
      <path d="M4.7 9.5 L2.65 9.1 Q2.7 8.85 3.2 8.85 L4.6 8.95 5.85 8.7 Q6.4 8.55 6.4 8.85 L5.95 9.3 4.7 9.5" fill="#1e1a18" fill-rule="evenodd" stroke="none"/>
    </g>
  </defs>
</svg>
