<?xml version="1.0" encoding="UTF-8" standalone="no"?>
<svg xmlns:ffdec="https://www.free-decompiler.com/flash" xmlns:xlink="http://www.w3.org/1999/xlink" ffdec:objectType="frame" height="16.05px" width="33.4px" xmlns="http://www.w3.org/2000/svg">
  <g transform="matrix(1.0, 0.0, 0.0, 1.0, 10.3, -14.05)">
    <use ffdec:characterId="9" height="16.05" transform="matrix(1.0, 0.0, 0.0, 1.0, 0.0, 0.0)" width="33.4" xlink:href="#shape0"/>
  </g>
  <defs>
    <g id="shape0">
      <path d="M11.95 18.95 L13.45 18.45 23.1 14.05 18.25 26.1 17.5 19.15 11.95 18.95" fill="#000000" fill-rule="evenodd" stroke="none"/>
      <path d="M4.1 20.75 Q5.1 20.75 7.0 22.05 L7.25 22.2 7.55 23.45 7.7 23.95 6.5 23.15 Q4.5 21.65 1.9 21.65 L1.3 21.85 0.9 21.8 0.85 21.7 Q0.85 21.25 1.3 21.05 L4.1 20.75 M12.3 23.6 L12.3 23.2 Q13.95 22.95 15.0 22.25 L16.4 20.7 16.75 19.25 Q16.85 18.3 17.25 17.9 L17.7 19.5 Q17.7 20.9 16.15 22.5 14.55 24.1 12.15 24.5 L12.3 23.6" fill="#000000" fill-rule="evenodd" stroke="none"/>
      <path d="M-9.3 27.5 L-7.35 26.4 -5.85 26.0 Q-4.95 25.8 -4.8 25.5 L-4.15 24.2 Q-3.55 23.25 -3.4 21.45 L-3.15 18.55 -3.15 18.5 -5.3 20.45 -7.1 21.95 -7.8 21.4 -8.15 20.7 Q-9.25 19.95 -9.25 19.65 L-8.4 18.9 -7.6 18.35 -6.4 17.05 -4.65 15.75 -4.55 14.95 Q-4.45 14.35 -3.95 14.35 L-2.7 14.55 -1.3 14.75 0.5 14.65 1.95 14.8 2.7 14.65 4.0 14.45 Q5.15 14.45 5.15 15.1 L4.95 15.6 5.8 16.7 6.95 17.8 8.3 18.65 Q9.5 19.4 9.5 19.65 9.5 20.2 9.05 20.2 L8.45 20.1 Q7.9 20.1 7.55 20.7 7.2 21.3 6.85 21.3 6.25 21.3 5.0 19.85 L3.5 18.0 3.55 20.1 3.3 22.15 3.85 24.1 Q4.1 25.95 5.85 26.0 7.6 26.05 9.0 27.2 L9.8 27.95 9.75 27.95 Q6.35 30.05 3.05 27.6 L3.1 26.65 2.45 25.15 1.4 22.1 1.15 22.05 Q-0.25 22.0 -1.5 21.3 -1.4 22.05 -1.8 22.75 L-3.6 26.35 -3.5 26.8 -3.7 27.3 -4.35 27.75 Q-5.65 28.55 -7.1 28.5 -8.9 28.75 -9.3 27.5" fill="#333333" fill-rule="evenodd" stroke="none"/>
      <path d="M9.8 27.95 L10.45 29.0 10.2 29.7 9.65 29.85 8.85 29.95 7.4 30.05 4.5 30.1 Q2.75 30.1 2.0 29.25 1.55 28.7 1.55 28.0 L1.85 26.55 Q0.55 23.55 -0.3 23.55 -1.2 23.55 -2.3 26.45 L-1.85 27.0 Q-1.4 27.6 -1.4 28.2 -1.4 29.0 -1.85 29.3 -2.75 29.9 -5.7 29.9 L-9.1 29.55 Q-10.3 29.2 -10.3 28.7 -10.3 28.2 -9.3 27.5 -8.9 28.75 -7.1 28.5 -5.65 28.55 -4.35 27.75 L-3.7 27.3 -3.5 26.8 -3.6 26.35 -1.8 22.75 Q-1.4 22.05 -1.5 21.3 -0.25 22.0 1.15 22.05 L1.4 22.1 2.45 25.15 3.1 26.65 3.05 27.6 Q6.35 30.05 9.75 27.95 L9.8 27.95" fill="#1e1e1e" fill-rule="evenodd" stroke="none"/>
      <path d="M6.95 17.8 L8.3 18.65 Q9.5 19.4 9.5 19.65 9.5 20.2 9.05 20.2 L8.45 20.1 Q7.9 20.1 7.55 20.7 7.2 21.3 6.85 21.3 6.25 21.3 5.0 19.85 L3.5 18.0 3.55 20.1 3.3 22.15 3.85 24.1 Q4.1 25.95 5.85 26.0 7.6 26.05 9.0 27.2 10.4 28.35 10.45 29.0 L10.2 29.7 9.65 29.85 8.85 29.95 7.4 30.05 4.5 30.1 Q2.75 30.1 2.0 29.25 1.55 28.7 1.55 28.0 L1.85 26.55 Q0.55 23.55 -0.3 23.55 -1.2 23.55 -2.3 26.45 L-1.85 27.0 Q-1.4 27.6 -1.4 28.2 -1.4 29.0 -1.85 29.3 -2.75 29.9 -5.7 29.9 L-9.1 29.55 Q-10.3 29.2 -10.3 28.7 -10.3 27.8 -7.35 26.4 L-5.85 26.0 Q-4.95 25.8 -4.8 25.5 L-4.15 24.2 Q-3.55 23.25 -3.4 21.45 L-3.15 18.55 -3.15 18.5 -5.3 20.45 -7.1 21.95 -7.8 21.4 -8.15 20.7 Q-9.25 19.95 -9.25 19.65 L-8.4 18.9 -7.6 18.35 -6.4 17.05 -4.65 15.75 -4.55 14.95 Q-4.45 14.35 -3.95 14.35 L-2.7 14.55 -1.3 14.75 0.5 14.65 1.95 14.8 2.7 14.65 4.0 14.45 Q5.15 14.45 5.15 15.1 L4.95 15.6 5.8 16.7 6.95 17.8 M3.65 15.05 L2.8 15.2 1.9 15.4 1.3 15.3 -1.5 15.35 -4.0 14.9 -4.0 15.55 Q-3.95 16.05 -4.3 16.3 L-5.95 17.35 -7.0 18.6 -8.35 19.75 Q-7.35 20.2 -7.1 21.25 L-4.75 19.05 -2.8 17.25 Q-2.45 16.9 -2.6 17.55 L-2.75 18.65 -2.85 21.15 -2.9 22.65 Q-3.0 23.55 -3.45 24.15 L-3.95 25.55 Q-4.4 26.35 -6.0 26.65 -7.35 26.85 -8.45 27.55 -9.45 28.1 -9.7 28.7 -9.05 29.5 -6.15 29.4 L-2.5 28.9 Q-2.0 28.7 -2.0 28.2 -2.0 27.7 -2.45 27.3 -2.9 26.95 -2.8 26.4 L-1.55 24.15 Q-0.45 22.45 0.05 22.75 0.55 23.0 1.55 24.5 2.45 25.85 2.45 26.55 L2.2 27.85 Q2.2 29.5 4.55 29.5 L8.0 29.5 9.9 29.25 9.9 28.8 9.15 28.0 7.85 27.05 Q7.25 26.7 6.65 26.55 4.3 26.5 3.85 25.95 L3.15 24.15 Q2.65 22.6 2.65 22.05 L2.95 19.75 2.9 16.85 4.85 18.8 Q5.75 19.8 6.8 20.6 L7.2 20.0 Q7.65 19.55 8.35 19.5 L6.1 17.75 Q4.25 16.15 4.25 15.5 L4.4 15.1 4.35 15.05 3.65 15.05" fill="#000000" fill-rule="evenodd" stroke="none"/>
    </g>
  </defs>
</svg>
