<?xml version="1.0" encoding="UTF-8" standalone="no"?>
<svg xmlns:ffdec="https://www.free-decompiler.com/flash" xmlns:xlink="http://www.w3.org/1999/xlink" ffdec:objectType="frame" height="16.3px" width="22.35px" xmlns="http://www.w3.org/2000/svg">
  <g transform="matrix(1.0, 0.0, 0.0, 1.0, 11.35, -14.15)">
    <use ffdec:characterId="9" height="16.3" transform="matrix(1.0, 0.0, 0.0, 1.0, 0.0, 0.0)" width="22.35" xlink:href="#shape0"/>
  </g>
  <defs>
    <g id="shape0">
      <path d="M6.5 17.6 L8.35 18.85 Q8.5 19.9 8.7 19.75 L8.7 19.65 8.8 19.1 9.25 19.35 Q9.75 20.05 9.1 20.6 L8.45 21.35 7.45 22.65 6.95 23.0 6.75 22.9 6.25 22.25 6.3 22.3 6.35 21.3 6.05 18.55 5.9 17.95 5.7 17.15 5.4 20.0 5.25 21.15 5.1 21.0 4.5 20.4 Q5.15 20.35 5.0 19.65 L4.75 18.55 4.6 17.9 4.45 16.6 4.65 16.25 4.75 16.1 4.85 16.15 6.05 17.2 6.4 17.85 Q6.6 18.3 6.5 17.6 M3.35 15.4 L3.15 15.95 2.45 16.5 2.4 16.55 2.4 16.6 2.55 16.65 2.65 16.65 3.0 16.55 3.15 16.5 3.75 15.9 3.9 15.7 4.0 16.0 3.45 16.5 2.6 17.2 2.5 17.3 2.5 17.15 Q2.0 17.65 1.3 17.6 L1.25 17.55 1.3 17.5 2.15 16.7 2.35 16.5 3.25 15.4 3.35 15.4 M1.25 22.1 L1.5 22.2 2.05 23.0 1.0 22.3 1.0 22.2 1.0 22.15 1.25 22.1 M0.45 22.25 Q1.9 23.35 2.05 25.4 L1.95 27.05 1.55 28.35 1.25 28.4 0.55 28.3 0.55 28.2 0.6 28.15 0.65 28.1 0.9 26.05 0.9 24.35 0.4 27.95 0.4 28.1 0.35 28.3 0.05 28.5 -0.35 28.45 -0.4 28.35 -0.9 28.3 -1.0 27.9 -1.05 27.65 -1.1 27.55 -1.65 26.6 -1.45 27.7 -1.95 27.7 -2.0 27.7 -2.05 27.55 -2.55 26.85 -2.85 26.2 -3.0 25.25 -2.75 23.35 -2.5 22.25 -2.25 22.2 -2.05 22.25 -1.9 22.15 -1.85 22.2 -1.95 22.6 -1.75 23.1 -1.7 23.1 -1.2 22.25 -0.95 22.3 -0.25 22.55 -0.1 22.7 0.15 22.3 0.45 22.25 M-9.3 19.3 L-8.55 18.9 -8.5 18.85 -8.4 18.8 -8.35 18.75 -8.3 18.7 -8.2 18.65 -7.9 18.45 -7.7 18.25 -7.55 18.2 -7.15 17.95 -6.15 17.3 -6.15 17.25 -6.0 17.1 -5.9 17.05 -6.9 18.4 -7.65 19.7 -8.0 20.5 -8.15 21.15 -7.9 21.45 -7.8 21.4 -7.7 22.25 -7.45 22.15 -6.75 20.85 -6.25 19.5 -5.85 18.5 -5.45 17.5 -5.0 16.55 -4.95 16.4 -4.7 16.15 -4.65 16.1 -4.6 16.1 -4.55 16.05 -4.3 15.95 -4.3 16.0 -4.25 16.1 -4.75 16.75 -4.75 17.05 -4.6 17.25 -4.15 16.95 -4.0 16.55 -3.85 17.8 -4.35 18.5 Q-4.15 17.75 -4.6 17.85 -5.1 18.45 -5.5 19.8 -5.95 21.45 -7.45 22.7 L-9.75 19.65 -9.3 19.3 M-2.9 15.7 L-2.25 16.3 -1.05 17.45 -1.2 17.6 -1.35 17.7 -1.45 17.9 -1.5 17.95 -1.8 17.8 -2.5 17.4 -3.1 16.75 -1.75 17.55 -1.1 17.45 Q-2.2 17.0 -3.1 16.2 L-3.1 16.15 -3.15 15.6 -3.05 15.6 -2.9 15.7 M-8.5 19.65 L-8.55 19.65 -8.9 20.15 -8.0 20.25 Q-7.9 19.55 -8.05 19.05 L-8.3 19.2 -8.5 19.65" fill="#e7ddd3" fill-rule="evenodd" stroke="none"/>
      <path d="M6.05 17.2 L6.5 17.6 Q6.6 18.3 6.4 17.85 L6.05 17.2 M8.35 18.85 L8.8 19.1 8.7 19.65 8.7 19.75 Q8.5 19.9 8.35 18.85 M9.25 19.35 L9.85 19.65 Q9.8 20.45 9.2 21.1 L8.65 21.65 Q8.25 22.2 7.45 22.65 L8.45 21.35 9.1 20.6 Q9.75 20.05 9.25 19.35 M0.6 18.3 L0.3 18.3 0.15 18.25 0.2 18.25 0.6 18.3 M0.1 18.25 L0.0 18.2 0.05 18.2 0.25 18.0 0.4 17.85 0.45 17.85 1.45 16.85 2.3 16.0 3.15 15.2 3.3 15.25 3.7 15.35 3.35 15.4 3.25 15.4 2.35 16.5 2.15 16.7 1.3 17.5 1.25 17.55 1.3 17.6 Q2.0 17.65 2.5 17.15 L2.5 17.3 2.6 17.2 3.45 16.5 4.0 16.0 Q3.75 16.35 4.15 16.35 L4.65 16.25 4.45 16.6 4.25 17.2 Q4.05 17.85 4.1 18.55 L4.2 19.15 4.5 20.4 5.1 21.0 5.25 21.15 5.4 20.0 5.7 21.75 4.9 21.2 4.8 21.15 4.55 20.7 4.45 20.45 4.4 20.3 3.9 18.55 3.9 18.3 Q3.8 17.55 3.85 16.8 L3.8 16.75 3.8 16.8 3.75 16.75 3.65 16.75 3.55 16.75 3.35 16.9 3.2 17.0 3.2 17.05 3.15 17.1 2.8 17.25 0.85 18.0 0.75 18.05 0.7 18.05 0.05 18.2 0.1 18.25 M3.8 15.45 L3.75 15.4 3.8 15.45 M1.7 22.0 Q1.85 22.0 1.95 22.15 3.1 23.4 3.1 24.9 L1.95 23.65 Q2.9 26.15 2.4 28.45 L1.6 28.9 1.05 28.95 Q0.35 29.15 -0.2 28.95 L-0.9 28.45 -0.95 28.35 Q-1.05 28.7 -1.6 28.7 L-2.2 28.3 -2.8 27.45 Q-3.35 26.7 -3.55 25.85 L-3.7 25.2 -3.75 25.15 -2.75 21.9 -2.45 22.0 -2.5 22.25 -2.75 23.35 -3.0 25.25 -2.85 26.2 -2.55 26.85 -2.05 27.55 -2.0 27.7 -1.95 27.7 -1.45 27.7 -1.65 26.6 -1.1 27.55 -1.05 27.65 -1.0 27.9 -0.9 28.3 -0.4 28.35 -0.35 28.45 0.05 28.5 0.35 28.3 0.4 28.1 0.4 27.95 0.9 24.35 0.9 26.05 0.65 28.1 0.6 28.15 0.55 28.2 0.55 28.3 1.25 28.4 1.55 28.35 1.95 27.05 2.05 25.4 Q1.9 23.35 0.45 22.25 L0.85 22.2 1.0 22.3 2.05 23.0 1.5 22.2 1.25 22.1 1.7 22.0 M3.2 25.65 L3.25 25.7 3.4 26.25 Q3.7 27.55 3.15 28.45 2.85 28.25 2.9 27.85 L2.8 26.5 Q2.7 25.85 3.2 25.65 M-4.2 19.4 L-4.2 19.3 Q-4.25 19.0 -4.45 19.35 L-5.15 20.7 -5.2 20.8 Q-5.8 22.05 -6.85 23.15 L-7.05 23.4 Q-7.55 23.35 -8.0 22.7 L-10.05 19.9 -10.15 19.75 -9.3 19.3 -9.75 19.65 -7.45 22.7 Q-5.95 21.45 -5.5 19.8 -5.1 18.45 -4.6 17.85 -4.15 17.75 -4.35 18.5 L-3.85 17.8 -4.0 16.55 -3.75 17.15 -3.55 17.8 -4.1 19.1 -4.2 19.4 M-1.5 17.95 L-2.0 17.9 -2.1 17.9 -2.2 17.8 -3.55 16.55 Q-3.75 16.35 -3.45 16.5 L-3.1 16.75 -2.5 17.4 -1.8 17.8 -1.5 17.95 M-4.55 25.2 L-4.45 25.8 -4.45 26.3 -4.45 27.4 -5.0 26.0 -4.95 25.9 -4.8 25.7 -4.7 25.5 -4.55 25.2" fill="#cebba8" fill-rule="evenodd" stroke="none"/>
      <path d="M2.15 14.45 Q2.25 14.35 2.3 14.35 L2.3 14.15 3.15 14.45 3.65 14.65 4.3 15.0 4.85 15.5 4.9 15.55 4.9 15.6 4.95 15.65 5.0 15.75 5.0 15.8 5.95 16.6 7.15 17.45 7.5 17.7 9.05 18.65 10.2 19.45 11.0 19.95 Q10.8 21.1 10.05 22.05 L9.8 22.3 8.75 23.35 7.85 24.05 7.75 24.2 7.55 24.4 7.55 24.45 7.2 24.6 7.2 24.65 7.15 24.65 7.0 24.65 6.0 24.05 5.7 23.75 5.6 23.7 5.5 23.6 5.45 23.55 4.45 22.2 4.15 21.85 4.15 21.8 4.1 21.75 4.1 21.7 4.05 21.7 4.0 21.65 3.9 21.55 3.8 21.5 3.5 20.8 3.2 20.05 Q3.4 21.7 4.05 23.2 L4.1 23.25 4.9 24.85 5.05 25.1 5.65 26.0 5.75 26.0 5.85 26.1 Q5.6 26.4 5.8 26.55 L5.55 26.55 5.3 26.85 4.9 27.4 4.4 28.15 6.0 28.25 6.7 27.65 6.6 27.85 6.35 28.2 6.3 28.35 Q6.35 28.95 6.6 28.6 L6.65 28.4 6.65 28.3 7.0 28.0 7.0 28.25 7.15 28.4 8.0 28.2 8.0 28.1 7.95 28.05 7.55 27.85 7.1 27.9 7.15 27.8 8.25 27.9 8.3 27.95 8.3 27.55 Q7.6 26.8 6.55 26.55 L7.2 26.45 7.3 26.6 7.4 26.5 8.0 26.8 8.2 26.95 8.6 28.1 8.6 27.4 8.3 26.8 7.8 26.35 8.25 26.55 8.65 27.35 9.05 28.75 8.8 29.15 8.15 29.75 7.6 29.8 5.7 30.15 4.65 29.9 2.8 30.2 1.45 30.45 0.4 30.45 -2.35 30.1 -4.15 29.7 -5.4 29.85 -7.8 29.7 -8.7 29.3 -9.35 28.65 -9.2 27.95 -8.55 26.45 -8.1 26.25 -8.6 26.7 -8.9 27.3 -8.9 28.0 -8.5 26.85 -8.3 26.7 -7.7 26.4 -7.5 26.35 -6.25 26.25 -5.15 24.6 -3.55 21.65 -3.4 21.3 Q-2.85 20.25 -3.15 19.65 L-4.05 21.3 -4.05 21.35 -4.15 21.55 -4.2 21.6 -4.25 21.75 -4.4 21.95 -4.45 22.0 -4.5 22.1 -4.5 22.15 -4.6 22.25 -4.7 22.4 -4.7 22.45 -4.75 22.5 -4.8 22.65 -5.15 22.9 -5.3 23.0 -5.3 23.05 -5.8 23.35 -6.5 23.8 -6.65 23.9 -8.6 25.3 -8.5 25.2 -8.35 25.1 -8.35 25.05 -8.1 24.9 -8.95 23.55 -9.95 22.05 -11.1 20.55 -11.1 20.2 -11.35 20.35 -10.75 19.55 -10.2 19.2 -10.15 19.15 -10.1 19.1 -8.9 18.35 -6.4 16.75 -5.7 16.35 -5.65 16.3 -5.25 16.05 -4.95 15.85 -4.95 15.8 -4.9 15.8 -4.8 15.7 -4.7 15.65 -4.6 15.6 -4.35 15.2 -4.25 15.1 -4.05 14.95 -3.95 14.9 -3.7 14.8 -2.25 14.3 -0.65 16.05 -0.75 16.1 -0.8 16.15 -0.75 16.15 -0.6 16.1 -0.55 16.15 -0.25 16.4 -0.1 16.45 -0.05 16.45 1.3 15.3 2.15 14.45 M6.5 17.6 L6.05 17.2 4.85 16.15 4.75 16.1 4.15 15.5 3.8 15.05 3.3 15.05 3.25 15.1 3.2 15.15 3.15 15.15 3.15 15.2 2.3 16.0 1.45 16.85 0.45 17.85 0.4 17.85 0.25 18.0 0.05 18.2 0.0 18.2 0.1 18.25 0.15 18.25 0.3 18.3 0.6 18.3 0.65 18.3 0.7 18.3 0.8 18.3 1.2 18.25 1.25 18.25 1.3 18.2 3.35 17.9 4.0 20.3 4.25 21.05 4.55 21.8 5.4 23.1 6.2 23.7 6.55 24.0 6.8 23.9 7.35 23.5 7.9 23.0 10.0 20.35 9.35 21.3 7.15 23.95 7.15 24.0 7.1 24.0 7.0 24.1 6.9 24.3 6.9 24.35 6.9 24.4 7.0 24.45 7.0 24.4 7.25 24.2 7.4 24.0 7.85 23.7 Q7.9 23.6 8.0 23.6 L8.0 23.55 8.5 23.15 9.05 22.6 9.35 22.35 9.55 22.15 10.1 21.3 10.8 20.05 10.65 20.0 10.6 19.95 10.6 19.9 10.55 19.9 10.45 19.85 10.35 19.85 10.3 19.9 9.85 19.65 9.25 19.35 8.8 19.1 8.35 18.85 6.5 17.6 M2.0 15.85 L2.25 15.65 2.3 15.6 2.9 15.1 Q2.9 14.95 2.55 14.95 L2.05 15.05 1.85 15.1 1.45 15.5 0.55 16.3 0.3 16.5 0.15 16.6 -0.1 16.9 -0.3 17.1 -0.6 17.25 -0.6 17.3 -0.6 17.35 -0.7 17.5 -0.75 17.55 -0.8 17.6 -0.85 17.6 -0.85 17.65 -0.9 17.7 -0.95 17.75 -1.0 17.75 -1.0 17.8 -1.15 17.9 -1.2 17.95 -0.8 18.0 -0.45 18.1 -0.4 18.05 -0.1 17.85 -0.05 17.8 0.45 17.25 1.2 16.55 1.3 16.5 1.75 16.1 1.8 16.05 2.0 15.85 M-2.7 18.15 L-2.7 18.25 -2.7 18.3 -2.7 18.35 -2.75 18.4 -2.75 18.45 -2.7 18.65 -2.75 18.65 Q-3.35 18.7 -2.9 19.25 L-2.0 18.65 -0.95 18.7 -0.35 18.75 -0.3 18.75 -0.25 18.7 -0.15 18.75 -0.05 18.8 0.0 18.75 0.0 18.7 0.2 18.75 0.25 18.75 0.3 18.7 2.65 18.75 Q2.3 19.05 2.7 19.05 L3.0 19.05 3.25 18.65 3.15 18.15 3.1 18.1 2.3 18.25 1.2 18.35 0.5 18.4 0.85 18.6 0.8 18.65 0.1 18.4 0.0 18.4 -1.0 18.1 Q-1.85 17.9 -2.65 18.1 L-2.7 18.1 -2.7 18.15 M-1.8 19.3 L-2.0 19.35 -2.35 19.45 -2.7 19.65 -2.7 19.85 -2.65 19.9 -2.55 19.95 -2.35 19.9 0.85 19.65 2.4 19.55 2.7 19.5 2.75 19.5 2.75 19.45 2.7 19.4 2.4 19.35 1.65 19.25 2.05 19.2 Q1.5 18.9 0.6 18.9 L-0.4 18.95 -0.9 18.95 -1.75 19.05 -1.8 19.15 -1.8 19.3 M2.15 21.55 L2.6 21.2 2.6 20.7 2.6 20.6 Q2.6 20.15 1.9 20.2 L1.55 20.15 0.6 20.1 0.3 20.05 0.25 20.05 -0.6 20.0 -1.05 19.95 -1.6 20.05 -2.55 20.15 -2.4 20.75 -2.6 21.4 -2.6 21.5 -1.65 21.75 -0.9 21.85 0.1 21.95 0.3 22.0 0.95 21.85 2.15 21.55 M1.7 22.0 L1.25 22.1 1.0 22.15 0.85 22.2 0.45 22.25 0.15 22.3 -0.35 22.3 -0.95 22.3 -1.2 22.25 -1.85 22.2 -1.9 22.15 -2.1 22.15 -2.1 22.1 -2.1 22.15 -2.45 22.0 -2.75 21.9 -3.3 22.7 -3.35 22.95 -3.35 23.0 -3.35 23.05 -3.4 23.05 -3.4 23.25 -3.45 23.35 -3.45 23.45 -3.5 23.65 -3.55 23.85 -3.6 24.1 -3.65 24.3 -3.65 24.35 -3.65 24.4 -3.7 24.5 -3.7 24.55 -3.75 24.65 -3.75 24.9 -3.8 25.0 -3.85 24.05 -3.8 23.8 -5.75 26.25 -4.55 28.2 -4.45 28.3 -4.4 28.35 -4.3 28.4 -4.2 28.4 Q-3.45 28.65 -3.5 27.95 L-3.7 26.1 -3.75 25.4 -3.7 25.2 -3.55 25.85 Q-3.35 27.4 -2.45 29.0 L-0.2 28.95 Q0.35 29.15 1.05 28.95 L1.6 28.9 3.4 28.85 3.45 28.7 3.55 27.7 3.55 27.6 3.75 25.1 3.75 25.0 3.7 25.0 3.7 25.05 3.65 25.15 3.6 25.2 3.6 25.15 3.6 25.05 3.65 25.05 3.65 25.0 3.6 24.9 3.2 22.75 3.05 22.25 3.05 22.2 3.0 22.1 2.95 22.05 2.95 22.0 2.9 22.0 2.9 21.95 2.85 21.9 2.8 21.85 2.7 21.75 1.7 22.0 M4.55 25.1 L3.95 23.85 3.85 23.55 4.05 25.05 4.35 27.0 4.35 27.05 4.7 26.75 5.0 26.5 Q5.75 26.45 5.2 26.0 L4.7 25.25 4.55 25.1 M4.65 29.15 L6.55 29.3 7.95 29.25 8.4 29.15 8.75 28.95 8.75 28.75 8.75 28.7 8.35 28.8 7.2 28.95 6.6 28.95 4.25 28.7 4.25 28.95 4.65 29.15 M2.0 29.75 L1.9 29.75 1.1 29.75 -0.2 29.7 -1.55 29.6 -1.75 29.65 1.0 30.1 1.95 29.95 3.0 29.7 3.75 29.55 2.0 29.75 M-10.7 19.95 L-10.55 20.15 -10.65 19.9 -10.7 19.95 M-4.65 16.1 L-4.85 16.15 -5.3 16.45 -8.35 18.5 -10.6 19.9 -10.25 20.0 -8.85 21.85 -8.95 21.75 -9.55 21.1 -9.75 20.85 -9.8 20.8 -10.1 20.5 -10.2 20.4 -10.25 20.35 -10.45 20.25 -10.55 20.2 -10.65 20.15 -10.7 20.15 -10.8 20.2 -10.8 20.25 -10.85 20.25 -10.85 20.3 -10.95 20.1 -10.95 20.2 -10.9 20.3 -10.9 20.5 -10.85 20.55 -10.75 20.65 -10.7 20.7 -9.55 22.05 -9.5 22.15 -9.35 22.3 -9.05 22.85 -8.3 24.15 -8.25 24.3 -8.2 24.35 -8.0 24.65 -7.95 24.6 -7.95 24.55 -7.85 24.45 -7.75 24.35 -7.7 24.3 -7.7 24.0 -7.75 23.6 -7.75 23.55 -7.8 23.5 -7.85 23.35 -7.85 23.3 -7.85 23.2 -7.35 23.9 -7.55 24.0 -7.55 24.05 -7.4 24.1 -6.0 23.05 -5.8 22.95 -5.7 22.8 -5.65 22.75 -5.55 22.65 -5.5 22.65 -5.25 22.35 -5.15 22.3 -5.1 22.25 -5.0 22.15 -5.0 22.1 -4.8 21.9 -4.7 21.8 -4.7 21.75 -4.6 21.65 -4.55 21.55 -4.5 21.45 -4.45 21.35 -4.45 21.25 -4.4 21.2 -4.4 21.1 -4.25 21.0 -4.0 20.35 -3.1 18.0 -3.0 18.0 -2.85 18.0 -2.7 18.0 -2.45 17.95 -2.5 17.95 -2.45 17.9 -2.1 17.9 -2.0 17.9 -1.5 17.95 -1.45 17.9 -1.35 17.7 -1.2 17.6 -1.05 17.45 -2.25 16.3 -2.9 15.7 -3.0 15.6 -3.0 15.55 -3.05 15.5 -3.35 15.15 -3.45 15.05 -4.0 15.3 -4.05 15.35 -4.55 16.05 -4.6 16.1 -4.65 16.1 M-1.35 16.45 L-0.75 17.05 -0.3 16.75 -0.6 16.4 -1.35 15.6 -1.45 15.55 Q-1.7 15.25 -2.05 15.3 -2.45 15.3 -2.15 15.6 L-1.35 16.45 M-1.45 17.9 L-1.45 17.95 -1.45 17.9 M-4.95 29.05 L-4.85 29.05 -6.9 28.85 -7.5 28.85 -8.65 28.7 -9.05 28.65 -9.0 28.8 -8.7 29.05 -8.25 29.15 -6.85 29.2 -4.95 29.05 M-6.9 27.75 L-7.0 27.55 -6.4 27.9 -6.3 28.15 -5.7 28.15 -5.65 28.15 -5.2 28.1 -5.05 28.1 -5.3 27.7 -5.5 27.35 -5.55 27.25 -5.8 26.7 -5.95 26.4 -6.1 26.4 -6.2 26.45 -7.1 26.5 Q-7.8 26.9 -8.4 27.4 -8.85 27.8 -8.6 27.85 L-8.55 27.8 -7.45 27.7 -7.4 27.8 -7.85 27.75 -8.25 27.95 -8.3 28.0 -8.3 28.1 -7.45 28.3 -7.3 28.15 -7.3 27.9 -6.95 28.2 -6.95 28.3 Q-6.8 28.65 -6.6 28.45 L-6.6 28.25 -6.65 28.1 -6.9 27.75" fill="#000000" fill-rule="evenodd" stroke="none"/>
      <path d="M-2.25 14.3 L-2.2 14.3 -1.7 14.6 -0.95 14.75 -0.3 15.4 -0.25 15.4 -0.65 16.05 -2.25 14.3 M1.05 14.55 L2.15 14.45 1.3 15.3 -0.05 16.45 -0.1 16.45 -0.25 16.4 -0.55 16.15 -0.55 16.1 -0.6 16.1 1.05 14.55 M-0.75 16.15 L-0.8 16.15 -0.75 16.1 -0.75 16.15 M5.4 20.0 L5.7 17.15 5.9 17.95 6.05 18.55 6.35 21.3 6.3 22.3 6.25 22.25 5.7 21.75 5.4 20.0 M3.75 15.4 L3.8 15.45 3.9 15.7 3.75 15.9 3.15 16.5 3.0 16.55 2.65 16.65 2.55 16.65 2.4 16.6 2.4 16.55 2.45 16.5 3.15 15.95 3.35 15.4 3.7 15.35 3.75 15.4 M4.5 20.4 L4.2 19.15 4.1 18.55 Q4.05 17.85 4.25 17.2 L4.45 16.6 4.6 17.9 4.75 18.55 5.0 19.65 Q5.15 20.35 4.5 20.4 M-5.9 17.05 L-5.45 16.75 -5.4 16.7 -5.05 16.45 -5.0 16.4 -4.95 16.4 -5.0 16.55 -5.45 17.5 -5.85 18.5 -6.25 19.5 -6.75 20.85 -7.45 22.15 -7.7 22.25 -7.8 21.4 -7.9 21.45 -8.15 21.15 -8.0 20.5 -7.65 19.7 -6.9 18.4 -5.9 17.05 M-3.15 15.6 L-3.1 16.15 -3.1 16.2 Q-2.2 17.0 -1.1 17.45 L-1.75 17.55 -3.1 16.75 -3.45 16.5 -3.7 16.05 Q-3.85 15.65 -3.65 15.45 -3.2 14.95 -3.15 15.6 M-4.25 16.1 L-4.25 16.05 -4.0 16.55 -4.15 16.95 -4.6 17.25 -4.75 17.05 -4.75 16.75 -4.25 16.1 M-8.5 19.65 L-8.3 19.2 -8.05 19.05 Q-7.9 19.55 -8.0 20.25 L-8.9 20.15 -8.55 19.65 -8.5 19.65 M-0.35 22.3 L0.15 22.3 -0.1 22.7 -0.25 22.55 -0.35 22.3 M-1.2 22.25 L-1.7 23.1 -1.75 23.1 -1.95 22.6 -1.85 22.2 -1.2 22.25" fill="#f3ede9" fill-rule="evenodd" stroke="none"/>
      <path d="M1.45 15.5 L1.85 15.1 2.05 15.05 2.55 14.95 Q2.9 14.95 2.9 15.1 L2.3 15.6 2.25 15.65 2.0 15.85 1.75 15.85 1.6 15.8 1.55 15.75 1.45 15.5 M0.45 17.25 L-0.05 17.8 -0.1 17.85 -0.4 18.05 -0.45 18.1 -0.8 18.0 Q-0.85 17.9 -1.0 17.9 L-1.15 17.9 -1.0 17.8 -1.0 17.75 -0.95 17.75 -0.9 17.7 -0.85 17.65 -0.85 17.6 -0.8 17.6 -0.75 17.55 -0.7 17.5 -0.6 17.35 -0.6 17.3 -0.6 17.25 -0.3 17.1 0.3 17.15 0.45 17.25 M-1.8 19.3 L-1.8 19.15 -1.75 19.05 -0.9 18.95 -0.9 19.2 -1.8 19.3 M-0.4 18.95 L0.6 18.9 Q1.5 18.9 2.05 19.2 L1.65 19.25 0.85 19.2 0.4 19.2 0.25 19.1 -0.4 18.95 M-2.15 15.6 Q-2.45 15.3 -2.05 15.3 -1.7 15.25 -1.45 15.55 L-1.4 15.6 -2.15 15.6" fill="#2f2f2f" fill-rule="evenodd" stroke="none"/>
      <path d="M9.85 19.65 L10.3 19.9 10.25 19.95 10.2 19.95 10.2 20.0 10.15 20.05 10.0 20.35 7.9 23.0 7.35 23.5 6.8 23.9 4.65 21.5 4.55 20.7 4.8 21.15 4.9 21.2 5.7 21.75 6.25 22.25 6.75 22.9 6.9 23.05 6.95 23.0 7.45 22.65 Q8.25 22.2 8.65 21.65 L9.2 21.1 Q9.8 20.45 9.85 19.65 M1.3 18.2 L1.25 18.25 1.2 18.25 0.8 18.3 0.7 18.3 0.65 18.3 0.6 18.3 0.2 18.25 0.15 18.25 0.1 18.25 0.05 18.2 0.7 18.05 0.75 18.05 0.85 18.0 2.8 17.25 3.15 17.1 3.2 17.05 3.2 17.0 3.35 16.9 3.55 16.75 3.65 16.75 3.75 16.75 3.8 16.8 3.8 16.75 3.85 16.8 Q3.8 17.55 3.9 18.3 L3.55 17.5 3.45 17.35 1.8 17.95 1.3 18.2 M3.15 15.2 L3.15 15.15 3.2 15.15 3.25 15.1 3.3 15.05 3.8 15.05 4.15 15.5 4.75 16.1 4.65 16.25 4.15 16.35 Q3.75 16.35 4.0 16.0 L3.9 15.7 3.8 15.45 3.75 15.4 3.7 15.35 3.3 15.25 3.15 15.2 M-2.65 18.1 L-2.7 18.15 -2.7 18.1 -2.65 18.1 M1.6 28.9 L2.4 28.45 Q2.9 26.15 1.95 23.65 L3.1 24.9 Q3.1 23.4 1.95 22.15 1.85 22.0 1.7 22.0 L2.7 21.75 2.8 21.85 2.85 21.9 2.9 21.95 2.9 22.0 2.95 22.0 2.95 22.05 3.0 22.1 3.05 22.2 3.05 22.25 3.2 22.75 3.6 24.9 3.65 25.0 3.65 25.05 3.6 25.05 3.6 25.15 3.6 25.2 3.65 25.15 3.7 25.05 3.7 25.0 3.75 25.0 3.75 25.1 3.55 27.6 3.55 27.7 3.45 28.7 3.4 28.85 1.6 28.9 M-2.75 21.9 L-3.75 25.15 -3.8 25.0 -3.75 24.9 -3.75 24.65 -3.7 24.55 -3.7 24.5 -3.65 24.4 -3.65 24.35 -3.65 24.3 -3.6 24.1 -3.55 23.85 -3.5 23.65 -3.45 23.45 -3.45 23.35 -3.4 23.25 -3.4 23.05 -3.35 23.05 -3.35 23.0 -3.35 22.95 -3.3 22.7 -2.75 21.9 M-3.55 25.85 Q-3.35 26.7 -2.8 27.45 L-2.2 28.3 -1.6 28.7 Q-1.05 28.7 -0.95 28.35 L-0.9 28.45 -0.2 28.95 -2.45 29.0 Q-3.35 27.4 -3.55 25.85 M5.0 26.5 L4.9 26.4 Q4.55 25.8 4.55 25.1 L4.7 25.25 5.2 26.0 Q5.75 26.45 5.0 26.5 M3.2 25.65 Q2.7 25.85 2.8 26.5 L2.9 27.85 Q2.85 28.25 3.15 28.45 3.7 27.55 3.4 26.25 L3.25 25.7 3.2 25.65 M-8.85 21.85 L-10.25 20.0 -10.6 19.9 -8.35 18.5 -5.3 16.45 -4.85 16.15 -4.65 16.1 -4.7 16.15 -4.95 16.4 -5.0 16.4 -5.05 16.45 -5.4 16.7 -5.45 16.75 -5.9 17.05 -6.0 17.1 -6.15 17.25 -6.15 17.3 -7.15 17.95 -7.55 18.2 -7.7 18.25 -7.9 18.45 -8.2 18.65 -8.3 18.7 -8.35 18.75 -8.4 18.8 -8.5 18.85 -8.55 18.9 -9.3 19.3 -10.15 19.75 -10.05 19.9 -8.0 22.7 Q-7.55 23.35 -7.05 23.4 L-6.85 23.15 Q-5.8 22.05 -5.2 20.8 L-5.15 20.7 -4.45 19.35 Q-4.25 19.0 -4.2 19.3 L-4.2 19.4 -5.3 22.05 -5.3 22.15 -5.35 22.3 -5.4 22.35 -5.4 22.45 -5.45 22.5 -5.5 22.5 -5.6 22.65 -5.65 22.7 -5.9 22.9 -5.95 22.9 -6.55 23.3 -6.6 23.35 -6.65 23.4 -7.05 23.7 -7.35 23.9 -7.85 23.2 -7.9 23.15 -7.95 23.1 -8.1 22.85 -8.85 21.85 M-4.55 16.05 L-4.05 15.35 -4.0 15.3 -3.45 15.05 -3.35 15.15 -3.05 15.5 -3.0 15.55 -3.0 15.6 -2.9 15.7 -3.05 15.6 -3.15 15.6 Q-3.2 14.95 -3.65 15.45 -3.85 15.65 -3.7 16.05 L-3.45 16.5 Q-3.75 16.35 -3.55 16.55 L-2.2 17.8 -2.1 17.9 -2.45 17.9 -2.5 17.95 -2.75 17.9 -2.7 17.85 -2.8 17.8 -2.85 17.75 -3.0 17.6 -3.05 17.45 -3.1 17.45 -3.2 17.4 -3.3 17.45 -3.35 17.45 -3.55 17.8 -3.75 17.15 -4.0 16.55 -4.25 16.05 -4.25 16.1 -4.3 16.0 -4.3 15.95 -4.55 16.05 M-5.75 26.25 L-4.6 25.1 -4.55 25.2 -4.7 25.5 -4.8 25.7 -4.95 25.9 -5.0 26.0 -4.45 27.4 -4.45 26.3 -4.45 25.8 -4.4 26.05 -4.3 27.0 Q-4.25 27.55 -4.35 28.1 L-4.3 28.4 -4.4 28.35 -4.45 28.3 -4.55 28.2 -5.75 26.25 M-0.95 22.3 L-0.35 22.3 -0.25 22.55 -0.95 22.3" fill="#b39577" fill-rule="evenodd" stroke="none"/>
      <path d="M-0.95 14.75 L-1.1 14.45 -1.15 14.4 -1.15 14.35 -1.1 14.4 -0.8 14.5 -0.25 15.15 0.4 14.85 1.05 14.55 -0.6 16.1 -0.75 16.15 -0.75 16.1 -0.65 16.05 -0.25 15.4 -0.3 15.4 -0.95 14.75" fill="#666666" fill-rule="evenodd" stroke="none"/>
      <path d="M1.55 15.75 L1.6 15.8 1.75 15.85 1.8 16.05 1.75 16.05 1.75 16.1 1.25 16.5 1.2 16.55 0.3 17.15 -0.3 17.1 -0.1 16.9 0.15 16.6 0.3 16.5 0.55 16.3 1.3 15.9 1.55 15.75 M-0.6 16.4 L-0.3 16.75 -0.75 17.05 -1.35 16.45 -0.6 16.4" fill="#595959" fill-rule="evenodd" stroke="none"/>
      <path d="M1.45 15.5 L1.55 15.75 1.3 15.9 0.55 16.3 1.45 15.5 M1.75 15.85 L2.0 15.85 1.8 16.05 1.75 16.1 1.3 16.5 1.2 16.55 0.45 17.25 0.3 17.15 1.2 16.55 1.25 16.5 1.75 16.1 1.75 16.05 1.8 16.05 1.75 15.85 M-0.8 18.0 L-1.2 17.95 -1.15 17.9 -1.0 17.9 Q-0.85 17.9 -0.8 18.0 M-0.3 17.1 L-0.1 16.9 -0.3 17.1 M-0.9 18.95 L-0.4 18.95 0.25 19.1 0.4 19.2 -0.8 19.2 -0.9 19.2 -0.9 18.95 M-0.6 16.4 L-1.35 16.45 -2.15 15.6 -1.4 15.6 -1.35 15.6 -0.6 16.4 M-1.45 17.9 L-1.45 17.95 -1.45 17.9" fill="#484848" fill-rule="evenodd" stroke="none"/>
      <path d="M-2.65 18.1 Q-1.85 17.9 -1.0 18.1 L0.0 18.4 0.1 18.4 0.8 18.65 0.85 18.6 0.5 18.4 1.2 18.35 2.3 18.25 3.1 18.1 3.15 18.15 3.25 18.65 3.0 19.05 2.7 19.05 Q2.3 19.05 2.65 18.75 L0.3 18.7 0.25 18.75 0.2 18.75 0.0 18.7 0.0 18.75 -0.05 18.8 -0.15 18.75 -0.25 18.7 -0.3 18.75 -0.35 18.75 -0.95 18.7 -2.0 18.65 -2.9 19.25 Q-3.35 18.7 -2.75 18.65 L-2.7 18.65 -2.75 18.45 -2.75 18.4 -2.7 18.35 -2.7 18.3 -2.7 18.25 -2.7 18.15 -2.65 18.1" fill="#ffffff" fill-rule="evenodd" stroke="none"/>
      <path d="M6.8 23.9 L6.55 24.0 6.2 23.7 5.4 23.1 4.55 21.8 4.25 21.05 4.0 20.3 3.35 17.9 1.3 18.2 1.8 17.95 3.45 17.35 3.55 17.5 3.9 18.3 3.9 18.55 4.4 20.3 4.45 20.45 4.55 20.7 4.65 21.5 6.8 23.9 M-3.75 25.15 L-3.7 25.2 -3.75 25.4 -3.7 26.1 -3.5 27.95 Q-3.45 28.65 -4.2 28.4 L-4.3 28.4 -4.35 28.1 Q-4.25 27.55 -4.3 27.0 L-4.4 26.05 -4.45 25.8 -4.55 25.2 -4.6 25.1 -5.75 26.25 -3.8 23.8 -3.85 24.05 -3.8 25.0 -3.75 25.15 M5.0 26.5 L4.7 26.75 4.35 27.05 4.35 27.0 4.05 25.05 3.85 23.55 3.95 23.85 4.55 25.1 Q4.55 25.8 4.9 26.4 L5.0 26.5 M-7.35 23.9 L-7.05 23.7 -6.65 23.4 -6.6 23.35 -6.55 23.3 -5.95 22.9 -5.9 22.9 -5.65 22.7 -5.6 22.65 -5.5 22.5 -5.45 22.5 -5.4 22.45 -5.4 22.35 -5.35 22.3 -5.3 22.15 -5.3 22.05 -4.2 19.4 -4.1 19.1 -3.55 17.8 -3.35 17.45 -3.3 17.45 -3.2 17.4 -3.1 17.45 -3.05 17.45 -3.0 17.6 -2.85 17.75 -2.8 17.8 -2.7 17.85 -2.75 17.9 -2.5 17.95 -2.45 17.95 -2.7 18.0 -2.85 18.0 -3.0 18.0 -3.1 18.0 -4.0 20.35 -4.25 21.0 -4.4 21.1 -4.4 21.2 -4.45 21.25 -4.45 21.35 -4.5 21.45 -4.55 21.55 -4.6 21.65 -4.7 21.75 -4.7 21.8 -4.8 21.9 -5.0 22.1 -5.0 22.15 -5.1 22.25 -5.15 22.3 -5.25 22.35 -5.5 22.65 -5.55 22.65 -5.65 22.75 -5.7 22.8 -5.8 22.95 -6.0 23.05 -7.4 24.1 -7.55 24.05 -7.55 24.0 -7.35 23.9" fill="#66513c" fill-rule="evenodd" stroke="none"/>
      <path d="M1.65 19.25 L2.4 19.35 2.7 19.4 2.75 19.45 2.75 19.5 2.7 19.5 2.4 19.55 0.85 19.65 -2.35 19.9 -2.55 19.95 -2.65 19.9 -2.7 19.85 -2.7 19.65 -2.35 19.45 -2.0 19.35 -1.8 19.3 -0.9 19.2 -0.8 19.2 0.4 19.2 0.85 19.2 1.65 19.25" fill="#dd3333" fill-rule="evenodd" stroke="none"/>
      <path d="M1.9 20.2 Q2.6 20.15 2.6 20.6 L2.6 20.7 2.6 21.2 2.15 21.55 Q1.85 21.4 2.0 21.15 2.45 20.6 1.9 20.2 M-1.65 21.75 L-2.6 21.5 -2.6 21.4 -2.4 20.75 -2.55 20.15 -1.6 20.05 -1.7 20.2 Q-2.4 20.55 -1.8 20.85 L-1.75 20.9 -1.65 21.75" fill="#98250a" fill-rule="evenodd" stroke="none"/>
      <path d="M-0.6 20.0 L0.25 20.05 0.3 20.05 0.6 20.1 0.55 20.5 -0.6 20.65 -0.85 20.6 -1.2 20.35 -1.05 20.1 -0.6 20.0 M-0.65 20.7 L0.3 20.9 0.35 21.0 Q0.25 21.55 -0.45 21.5 L-0.95 21.0 Q-1.15 20.55 -0.65 20.7" fill="#e89f9f" fill-rule="evenodd" stroke="none"/>
      <path d="M2.15 21.55 L0.95 21.85 1.25 21.2 1.3 20.95 0.3 20.9 -0.65 20.7 -0.6 20.65 0.55 20.5 0.9 20.45 Q1.7 20.7 1.55 20.15 L1.9 20.2 Q2.45 20.6 2.0 21.15 1.85 21.4 2.15 21.55 M-0.9 21.85 L-1.65 21.75 -1.75 20.9 -1.8 20.85 Q-2.4 20.55 -1.7 20.2 L-1.6 20.05 -1.05 19.95 Q-1.4 20.1 -1.25 20.3 L-1.2 20.35 -0.85 20.6 Q-1.8 20.65 -1.1 21.35 L-1.0 21.4 -1.05 21.6 -1.0 21.7 -0.95 21.8 -0.9 21.85" fill="#cf4141" fill-rule="evenodd" stroke="none"/>
      <path d="M0.95 21.85 L0.3 22.0 0.2 21.95 0.1 21.95 -0.9 21.85 -0.95 21.8 -1.0 21.7 -1.05 21.6 -1.0 21.4 -1.1 21.35 Q-1.8 20.65 -0.85 20.6 L-0.6 20.65 -0.65 20.7 Q-1.15 20.55 -0.95 21.0 L-0.45 21.5 Q0.25 21.55 0.35 21.0 L0.3 20.9 1.3 20.95 1.25 21.2 0.95 21.85 M-1.05 19.95 L-0.6 20.0 -1.05 20.1 -1.2 20.35 -1.25 20.3 Q-1.4 20.1 -1.05 19.95 M0.6 20.1 L1.55 20.15 Q1.7 20.7 0.9 20.45 L0.55 20.5 0.6 20.1" fill="#df7d7d" fill-rule="evenodd" stroke="none"/>
      <path d="M1.0 22.3 L0.85 22.2 1.0 22.15 1.0 22.2 1.0 22.3 M-2.5 22.25 L-2.45 22.0 -2.1 22.15 -2.25 22.2 -2.5 22.25" fill="#fbf4f2" fill-rule="evenodd" stroke="none"/>
      <path d="M10.3 19.9 L10.35 19.85 10.45 19.85 10.55 19.9 10.6 19.9 10.6 19.95 10.65 20.0 10.8 20.05 10.1 21.3 Q10.1 20.9 9.75 21.35 L9.25 22.05 9.2 22.15 8.5 23.1 8.5 23.15 8.0 23.55 8.0 23.6 Q7.9 23.6 7.85 23.7 L7.4 24.0 7.25 24.2 7.0 24.4 7.0 24.45 6.9 24.4 6.9 24.35 6.9 24.3 7.0 24.1 7.1 24.0 7.15 24.0 7.15 23.95 9.35 21.3 10.0 20.35 10.15 20.05 10.2 20.0 10.2 19.95 10.25 19.95 10.3 19.9 M0.3 22.0 L0.1 21.95 0.2 21.95 0.3 22.0 M1.9 29.75 L1.95 29.95 1.0 30.1 1.45 30.0 -1.75 29.65 -1.55 29.6 -0.2 29.7 1.1 29.75 1.9 29.75 M3.0 29.7 L2.0 29.75 3.75 29.55 3.0 29.7 M-8.85 21.85 L-8.1 22.85 -7.95 23.1 -7.9 23.15 -7.85 23.2 -7.85 23.3 -7.85 23.35 -7.8 23.5 -7.75 23.55 -7.75 23.6 -7.7 24.0 -7.7 24.3 -7.75 24.35 -7.85 24.45 -7.95 24.55 -7.95 24.6 -8.0 24.55 -8.05 24.55 -8.05 24.45 -8.1 24.4 -8.15 24.35 -8.2 24.35 -8.25 24.3 -8.25 24.2 -8.3 24.15 -9.05 22.85 -8.95 22.85 -8.85 23.05 -8.65 23.1 -8.4 23.2 -8.4 23.15 -8.45 23.0 -8.5 22.9 -8.55 22.85 -8.55 22.8 -9.0 21.95 -9.35 21.4 -9.55 21.1 -8.95 21.75 -8.85 21.85 M-10.2 20.4 L-10.3 20.4 -10.4 20.4 -10.4 20.45 -10.45 20.5 -10.45 20.6 -10.45 20.65 -10.25 20.85 -10.1 21.05 -10.1 21.1 -9.75 21.6 -9.75 21.7 -9.65 21.8 -9.55 22.0 -9.4 22.2 -9.5 22.15 -9.55 22.05 -10.7 20.7 -10.75 20.65 -10.85 20.55 -10.9 20.5 -10.9 20.3 -10.85 20.3 -10.85 20.25 -10.8 20.25 -10.8 20.2 -10.7 20.15 -10.65 20.15 -10.55 20.2 -10.45 20.25 -10.25 20.35 -10.2 20.4 M-9.9 20.8 L-10.0 20.65 -10.1 20.5 -9.8 20.8 -9.85 20.8 -9.9 20.8" fill="#f1481f" fill-rule="evenodd" stroke="none"/>
      <path d="M10.1 21.3 L9.55 22.15 9.2 22.15 9.25 22.05 9.75 21.35 Q10.1 20.9 10.1 21.3 M8.5 23.15 L8.0 23.55 8.5 23.15 M1.9 29.75 L2.0 29.75 3.0 29.7 1.95 29.95 1.9 29.75 M1.0 30.1 L-1.75 29.65 1.45 30.0 1.0 30.1 M-9.75 21.6 L-10.1 21.1 -10.1 21.05 -10.25 20.85 -10.45 20.65 -10.45 20.6 -10.45 20.5 -10.4 20.45 -10.4 20.4 -10.3 20.4 -10.2 20.4 -10.1 20.5 -10.0 20.65 -9.9 20.8 -9.95 20.75 -10.05 20.8 -10.05 20.85 -10.1 20.85 -9.9 21.3 -9.75 21.6 M-9.4 22.2 L-9.55 22.0 -9.65 21.8 -9.5 22.0 -9.4 22.2 M-9.35 22.3 L-9.35 22.25 -9.3 22.35 -9.25 22.4 -9.2 22.45 -9.2 22.5 -9.15 22.5 -9.1 22.55 -9.05 22.5 -9.0 22.5 -9.0 22.45 -9.05 22.4 -9.05 22.2 -9.1 22.15 -9.1 22.1 -9.2 21.7 -9.35 21.45 -9.35 21.4 -9.0 21.95 -8.55 22.8 -8.55 22.85 -8.5 22.9 -8.45 23.0 -8.4 23.15 -8.4 23.2 -8.65 23.1 -8.85 23.05 -8.95 22.85 -9.05 22.85 -9.35 22.3" fill="#f9aa97" fill-rule="evenodd" stroke="none"/>
      <path d="M6.75 22.9 L6.95 23.0 6.9 23.05 6.75 22.9" fill="#dfac97" fill-rule="evenodd" stroke="none"/>
      <path d="M9.55 22.15 L9.35 22.35 9.05 22.6 8.5 23.15 8.5 23.1 9.2 22.15 9.55 22.15 M-9.5 22.15 L-9.4 22.2 -9.5 22.0 -9.65 21.8 -9.75 21.7 -9.75 21.6 -9.9 21.3 -10.1 20.85 -10.05 20.85 -10.05 20.8 -9.95 20.75 -9.9 20.8 -9.85 20.8 -9.8 20.8 -9.75 20.85 -9.55 21.1 -9.35 21.4 -9.35 21.45 -9.2 21.7 -9.1 22.1 -9.1 22.15 -9.05 22.2 -9.05 22.4 -9.0 22.45 -9.0 22.5 -9.05 22.5 -9.1 22.55 -9.15 22.5 -9.2 22.5 -9.2 22.45 -9.25 22.4 -9.3 22.35 -9.35 22.25 -9.35 22.3 -9.5 22.15" fill="#fcd8cf" fill-rule="evenodd" stroke="none"/>
      <path d="M8.3 26.8 L8.6 27.4 8.2 26.95 8.0 26.8 8.3 26.8 M7.15 27.8 L7.1 27.9 7.0 28.0 6.65 28.3 6.35 28.2 6.6 27.85 7.15 27.8 M-7.45 27.7 L-6.9 27.75 -6.65 28.1 -6.95 28.2 -7.3 27.9 -7.4 27.8 -7.45 27.7 M-8.6 26.7 L-8.3 26.7 -8.5 26.85 -8.9 27.3 -8.6 26.7" fill="#982c42" fill-rule="evenodd" stroke="none"/>
      <path d="M7.2 26.45 L7.35 26.45 7.4 26.5 7.3 26.6 7.2 26.45 M7.4 26.45 L7.8 26.35 8.3 26.8 8.0 26.8 7.4 26.45 M-8.1 26.25 L-7.8 26.3 -8.3 26.7 -8.6 26.7 -8.1 26.25 M-7.65 26.35 L-7.5 26.35 -7.7 26.4 -7.65 26.35 M8.6 27.4 L8.6 28.1 8.2 26.95 8.6 27.4 M6.7 27.65 L7.5 27.55 8.25 27.9 7.15 27.8 6.6 27.85 6.7 27.65 M6.65 28.3 L6.65 28.4 6.3 28.35 6.35 28.2 6.65 28.3 M-7.0 27.55 L-6.9 27.75 -7.45 27.7 -8.55 27.8 -7.0 27.55 M-6.65 28.1 L-6.6 28.25 -6.95 28.3 -6.95 28.2 -6.65 28.1 M-8.9 27.3 L-8.5 26.85 -8.9 28.0 -8.9 27.3" fill="#772234" fill-rule="evenodd" stroke="none"/>
      <path d="M5.8 26.55 L6.05 26.5 6.15 26.5 6.55 26.55 Q7.6 26.8 8.3 27.55 L8.3 27.95 8.25 27.9 7.0 27.2 5.6 26.75 5.3 26.85 5.55 26.55 5.8 26.55 M4.9 27.4 Q4.85 27.95 5.3 28.1 L6.0 28.25 4.4 28.15 4.9 27.4 M-5.8 26.7 L-6.9 26.85 Q-7.75 27.2 -8.55 27.7 L-8.6 27.85 Q-8.85 27.8 -8.4 27.4 -7.8 26.9 -7.1 26.5 L-6.2 26.45 -6.1 26.4 -5.95 26.4 -5.8 26.7 M-5.3 27.7 L-5.05 28.1 -5.2 28.1 -5.65 28.15 -5.3 27.7" fill="#b6a296" fill-rule="evenodd" stroke="none"/>
      <path d="M6.3 27.1 Q5.65 26.9 5.3 27.45 L5.85 27.95 6.1 27.85 Q6.65 27.6 6.5 27.2 L6.3 27.1 M5.3 26.85 L5.6 26.75 7.0 27.2 8.25 27.9 7.5 27.55 6.7 27.65 6.0 28.25 5.3 28.1 Q4.85 27.95 4.9 27.4 L5.3 26.85 M7.1 27.9 L7.55 27.85 7.95 28.05 7.0 28.25 7.0 28.0 7.1 27.9 M-7.0 27.55 L-8.55 27.8 -8.6 27.85 -8.55 27.7 Q-7.75 27.2 -6.9 26.85 L-5.8 26.7 -5.55 27.25 -6.2 26.9 -6.75 27.1 -6.85 27.25 -6.9 27.35 -6.8 27.35 Q-6.65 27.35 -6.3 27.65 L-6.2 27.7 -5.5 27.35 -5.3 27.7 -5.65 28.15 -5.7 28.15 -6.3 28.15 -6.4 27.9 -7.0 27.55 M-7.3 27.9 L-7.3 28.15 -8.25 27.95 -7.85 27.75 -7.4 27.8 -7.3 27.9" fill="#dbcbb5" fill-rule="evenodd" stroke="none"/>
      <path d="M6.3 27.1 L6.5 27.2 Q6.65 27.6 6.1 27.85 L5.85 27.95 5.3 27.45 Q5.65 26.9 6.3 27.1 M-5.5 27.35 L-6.2 27.7 -6.3 27.65 Q-6.65 27.35 -6.8 27.35 L-6.9 27.35 -6.85 27.25 -6.75 27.1 -6.2 26.9 -5.55 27.25 -5.5 27.35" fill="#f1eae2" fill-rule="evenodd" stroke="none"/>
      <path d="M7.35 26.45 L7.35 26.4 7.4 26.45 8.0 26.8 7.4 26.5 7.35 26.45 M-7.8 26.3 L-7.65 26.35 -7.7 26.4 -8.3 26.7 -7.8 26.3 M6.65 28.4 L6.6 28.6 Q6.35 28.95 6.3 28.35 L6.65 28.4 M-6.6 28.25 L-6.6 28.45 Q-6.8 28.65 -6.95 28.3 L-6.6 28.25" fill="#3a121b" fill-rule="evenodd" stroke="none"/>
      <path d="M7.95 28.05 L8.0 28.1 7.15 28.4 7.0 28.25 7.95 28.05 M-7.3 28.15 L-7.45 28.3 -8.3 28.0 -8.25 27.95 -7.3 28.15" fill="#c4a588" fill-rule="evenodd" stroke="none"/>
      <path d="M6.65 29.1 L6.55 29.3 4.65 29.15 6.65 29.1 M7.95 29.25 L7.95 28.95 8.35 28.8 8.4 29.15 7.95 29.25 M-4.95 29.05 L-6.85 29.2 -6.95 29.0 -4.95 29.05 M-8.25 29.15 L-8.7 29.05 -8.65 28.7 -8.25 28.85 -8.25 29.15" fill="#b07d68" fill-rule="evenodd" stroke="none"/>
      <path d="M6.55 29.3 L6.65 29.1 7.1 29.05 7.2 28.95 7.95 28.95 7.95 29.25 6.55 29.3 M-6.85 29.2 L-8.25 29.15 -8.25 28.85 -7.5 28.85 -7.4 28.95 -6.95 29.0 -6.85 29.2" fill="#c59f8f" fill-rule="evenodd" stroke="none"/>
      <path d="M6.65 29.1 L4.65 29.15 4.25 28.95 4.25 28.7 6.6 28.95 7.1 29.05 6.65 29.1 M8.75 28.75 L8.75 28.95 8.4 29.15 8.35 28.8 8.75 28.75 M-6.9 28.85 L-4.85 29.05 -4.95 29.05 -6.95 29.0 -7.4 28.95 -6.9 28.85 M-8.7 29.05 L-9.0 28.8 -9.05 28.65 -8.65 28.7 -8.7 29.05" fill="#815543" fill-rule="evenodd" stroke="none"/>
      <path d="M8.0 28.1 L8.0 28.2 7.15 28.4 8.0 28.1 M-7.45 28.3 L-8.3 28.1 -8.3 28.0 -7.45 28.3" fill="#8d6947" fill-rule="evenodd" stroke="none"/>
      <path d="M-2.05 22.25 L-2.1 22.15 -1.9 22.15 -2.05 22.25" fill="#cf8363" fill-rule="evenodd" stroke="none"/>
      <path d="M-2.1 22.15 L-2.05 22.25 -2.25 22.2 -2.1 22.15 -2.1 22.1 -2.1 22.15" fill="#999999" fill-rule="evenodd" stroke="none"/>
    </g>
  </defs>
</svg>
