<?xml version="1.0" encoding="UTF-8" standalone="no"?>
<svg xmlns:ffdec="https://www.free-decompiler.com/flash" xmlns:xlink="http://www.w3.org/1999/xlink" ffdec:objectType="frame" height="18.15px" width="26.15px" xmlns="http://www.w3.org/2000/svg">
  <g transform="matrix(1.0, 0.0, 0.0, 1.0, 13.05, -13.6)">
    <use ffdec:characterId="14" height="6.15" transform="matrix(1.0, 0.0, 0.0, 1.0, -7.05, 28.5)" width="11.1" xlink:href="#sprite0"/>
    <use ffdec:characterId="14" height="6.15" transform="matrix(-1.0, 0.0, 0.0, 1.0, 7.1, 28.5)" width="11.1" xlink:href="#sprite0"/>
    <use ffdec:characterId="25" height="8.35" transform="matrix(1.0, 0.0, 0.0, 1.0, -4.15, 24.45)" width="7.55" xlink:href="#sprite1"/>
    <use ffdec:characterId="25" height="8.35" transform="matrix(-1.0, 0.0, 0.0, 1.0, 4.2, 24.45)" width="7.55" xlink:href="#sprite1"/>
    <use ffdec:characterId="2" height="8.2" transform="matrix(1.0, 0.0, 0.0, 1.0, -0.05, 18.9)" width="8.2" xlink:href="#sprite2"/>
    <use ffdec:characterId="4" height="10.6" transform="matrix(1.0, 0.0, 0.0, 1.0, -8.45, 20.3)" width="9.85" xlink:href="#sprite3"/>
    <use ffdec:characterId="8" height="8.45" transform="matrix(1.0, 0.0, 0.0, 1.0, -3.15, 17.85)" width="5.55" xlink:href="#sprite4"/>
    <use ffdec:characterId="4" height="10.6" transform="matrix(-1.0, 0.0, 0.0, 1.0, 8.5, 20.3)" width="9.85" xlink:href="#sprite3"/>
    <use ffdec:characterId="8" height="8.45" transform="matrix(-1.0, 0.0, 0.0, 1.0, 3.2, 17.85)" width="5.55" xlink:href="#sprite4"/>
  </g>
  <defs>
    <g id="sprite0">
      <use ffdec:characterId="13" height="6.15" transform="matrix(1.0, 0.0, 0.0, 1.0, 0.0, 0.0)" width="11.1" xlink:href="#shape0"/>
    </g>
    <g id="shape0">
      <path d="M1.25 -2.5 L1.35 -2.35 1.6 -1.8 Q0.2 -0.05 -2.05 0.4 L-4.8 0.5 -4.15 -0.95 Q-2.0 -1.4 -0.25 -2.9 L1.05 -2.55 1.25 -2.5" fill="#715942" fill-rule="evenodd" stroke="none"/>
      <path d="M1.25 -2.5 L2.45 -2.15 Q3.05 -0.3 2.1 1.2 L1.75 1.7 -2.3 1.7 -4.9 1.7 -5.15 1.25 -4.8 0.5 -2.05 0.4 Q0.2 -0.05 1.6 -1.8 L1.35 -2.35 1.25 -2.5" fill="#483625" fill-rule="evenodd" stroke="none"/>
      <path d="M1.75 1.7 L2.1 1.2 Q3.05 -0.3 2.45 -2.15 L4.35 -1.7 5.05 -1.25 5.35 -0.55 Q5.75 0.6 5.1 1.7 L1.75 1.7" fill="#281d13" fill-rule="evenodd" stroke="none"/>
      <path d="M-4.9 1.7 L-2.3 1.7 -2.4 1.9 -2.1 2.95 -4.7 3.05 -4.9 1.7" fill="#ffdfc1" fill-rule="evenodd" stroke="none"/>
      <path d="M-2.3 1.7 L1.75 1.7 5.1 1.7 Q4.95 1.95 4.95 2.95 L-2.1 2.95 -2.4 1.9 -2.3 1.7" fill="#b59c85" fill-rule="evenodd" stroke="none"/>
      <path d="M5.55 -0.3 L5.35 1.35 5.2 1.8 5.2 2.0 5.2 3.05 -5.0 3.25 -5.1 2.35 -5.2 1.8 -5.35 1.7 -5.55 1.3 Q-5.25 0.0 -4.4 -1.15 L-2.15 -1.75 -1.7 -2.05 -0.3 -2.6 Q-1.05 -2.05 -1.95 -1.55 L-2.7 -1.25 -4.15 -0.75 -5.0 1.05 -1.55 1.6 2.4 1.65 Q4.7 1.65 4.85 1.1 5.3 0.35 4.65 -0.75 L5.55 -0.3 M4.85 2.8 L4.75 1.8 -4.25 1.8 -4.8 1.8 -4.7 1.95 -4.7 2.25 -4.6 2.9 -1.5 2.8 2.65 2.7 4.85 2.8" fill="#000000" fill-rule="evenodd" stroke="none"/>
    </g>
    <g id="sprite1">
      <use ffdec:characterId="24" height="8.35" transform="matrix(1.0, 0.0, 0.0, 1.0, 0.0, 0.0)" width="7.55" xlink:href="#shape1"/>
    </g>
    <g id="shape1">
      <path d="M-1.5 2.05 L-2.65 1.75 -2.55 1.25 -1.55 0.7 0.0 1.4 -1.15 0.2 -0.4 -0.85 0.15 -1.8 0.9 -1.45 1.75 -1.5 1.35 -0.25 0.85 -0.05 1.5 0.5 0.95 1.5 0.25 1.55 1.0 2.4 -1.5 2.05" fill="#4e5d35" fill-rule="evenodd" stroke="none"/>
      <path d="M0.15 -1.8 L0.5 -2.8 0.5 -3.9 Q0.6 -4.55 1.9 -4.15 3.3 -3.7 3.65 -3.25 L3.8 -2.25 Q3.8 -1.05 3.15 0.3 L2.45 1.6 2.65 2.4 2.85 3.2 2.85 3.75 2.0 3.65 Q1.25 3.25 0.65 3.15 L-0.75 2.5 -1.5 2.05 1.0 2.4 0.25 1.55 0.95 1.5 1.5 0.5 0.85 -0.05 1.35 -0.25 1.75 -1.5 0.9 -1.45 0.15 -1.8 M-2.65 1.75 Q-3.35 1.65 -3.35 1.25 -3.35 0.8 -2.35 0.5 L-0.75 -0.4 -0.4 -0.85 -1.15 0.2 0.0 1.4 -1.55 0.7 -2.55 1.25 -2.65 1.75" fill="#222917" fill-rule="evenodd" stroke="none"/>
      <path d="M0.9 -3.75 L0.75 -3.15 0.55 -2.3 Q0.2 -0.9 -0.15 -0.45 L-0.1 -0.35 -1.15 0.0 -1.7 0.5 Q-0.75 0.55 2.2 1.7 L2.35 1.7 2.35 1.35 3.0 0.35 3.35 -0.5 3.3 -1.0 Q3.3 -2.5 3.6 -2.95 L3.75 -1.9 3.8 -0.9 3.55 -0.1 3.05 0.85 2.7 1.7 2.95 2.0 2.95 2.15 2.95 2.95 2.7 4.05 2.1 4.05 Q-0.25 3.0 -1.9 2.0 L-3.55 2.0 -3.75 1.8 -3.45 1.35 -3.2 0.85 Q-3.4 0.4 -2.15 0.4 L-2.05 0.4 -1.55 -0.2 -0.55 -0.6 -0.15 -1.3 0.15 -2.2 0.0 -2.85 0.25 -3.35 0.5 -4.05 Q0.9 -4.25 0.9 -3.75 M2.55 2.2 L1.25 1.8 0.35 1.35 -2.2 0.75 -2.8 0.8 -3.1 1.6 Q-1.85 1.2 0.0 2.55 0.3 2.8 2.1 3.65 L2.55 3.65 2.5 2.65 2.55 2.2" fill="#000000" fill-rule="evenodd" stroke="none"/>
    </g>
    <g id="sprite2">
      <use ffdec:characterId="1" height="8.2" transform="matrix(1.0, 0.0, 0.0, 1.0, 0.0, 0.0)" width="8.2" xlink:href="#shape2"/>
    </g>
    <g id="shape2">
      <path d="M3.05 -1.45 Q3.1 0.4 3.9 2.45 L3.45 2.9 1.75 3.6 -0.2 3.6 -2.85 3.0 Q-4.3 2.4 -4.25 1.8 L-3.35 -1.15 -3.3 -1.3 Q-2.85 -2.4 -2.9 -2.8 -2.95 -4.2 -2.15 -4.2 L-1.45 -3.85 Q-0.95 -3.45 -0.65 -3.4 L0.85 -3.4 2.6 -3.95 Q3.0 -3.95 3.05 -3.05 L3.0 -1.95 3.05 -1.45" fill="#ffffff" fill-rule="evenodd" stroke="none"/>
      <path d="M2.05 3.65 L-0.85 3.9 -2.75 3.35 -3.9 2.55 3.9 2.75 3.55 3.1 2.05 3.65 M-1.8 -4.0 Q0.45 -3.1 1.95 -4.0 L0.7 -3.2 Q-0.35 -2.85 -1.4 -3.75 L-1.8 -4.0" fill="#000000" fill-rule="evenodd" stroke="none"/>
    </g>
    <g id="sprite3">
      <use ffdec:characterId="3" height="10.6" transform="matrix(1.0, 0.0, 0.0, 1.0, 0.0, 0.0)" width="9.85" xlink:href="#shape3"/>
    </g>
    <g id="shape3">
      <path d="M3.45 -5.25 L4.1 -5.5 4.5 -4.95 4.65 -4.75 4.75 -4.55 5.0 -4.0 5.2 -3.55 4.45 -2.75 3.7 -1.9 3.45 -2.3 2.65 -3.55 2.35 -4.0 3.45 -5.25 M-2.05 4.55 L-2.25 4.45 -2.55 4.35 -2.85 4.2 -3.1 4.05 -3.15 4.0 -3.45 3.8 -4.0 3.25 -3.4 2.65 -2.5 1.85 -1.0 3.3 -0.95 3.3 -1.7 4.15 -2.05 4.55 M-1.05 0.1 L0.5 -1.85 0.7 -2.05 2.3 -0.4 1.9 0.05 0.7 1.3 0.45 1.55 -1.05 0.1" fill="#1b1e25" fill-rule="evenodd" stroke="none"/>
      <path d="M2.65 -3.55 L3.45 -2.3 3.9 -1.6 2.3 -0.4 0.7 -2.05 2.4 -3.9 2.65 -3.55 M-1.05 0.1 L0.45 1.55 0.65 1.75 -1.0 3.3 -2.5 1.85 -1.35 0.65 -1.1 0.05 -1.05 0.1" fill="#00689a" fill-rule="evenodd" stroke="none"/>
      <path d="M3.45 -5.25 L2.35 -4.0 2.65 -3.55 2.4 -3.9 1.95 -4.5 2.1 -4.55 3.45 -5.25 M3.45 -2.3 L3.7 -1.9 4.45 -2.75 5.2 -3.55 Q5.4 -2.65 5.05 -2.1 L4.3 -1.05 3.9 -1.6 3.45 -2.3 M3.2 0.5 Q2.3 1.75 2.05 2.6 L1.95 2.95 0.65 1.75 0.45 1.55 0.7 1.3 1.9 0.05 2.3 -0.4 3.2 0.5 M0.7 4.85 L-2.05 4.55 -1.7 4.15 -0.95 3.3 0.7 4.85 M-4.0 3.25 L-4.35 2.2 Q-4.4 1.2 -4.0 0.3 L-2.5 1.85 -3.4 2.65 -4.0 3.25 M-2.3 -1.15 L-1.6 -1.45 -0.8 -1.6 0.05 -2.75 0.7 -2.05 0.5 -1.85 -1.05 0.1 -1.1 0.05 -2.3 -1.15" fill="#005781" fill-rule="evenodd" stroke="none"/>
      <path d="M4.3 -1.05 L3.2 0.5 2.3 -0.4 3.9 -1.6 4.3 -1.05 M1.95 2.95 Q1.95 3.75 1.6 4.3 1.2 4.85 0.7 4.85 L-0.95 3.3 -1.0 3.3 0.65 1.75 1.95 2.95 M-4.0 0.3 L-3.6 -0.55 -2.3 -1.15 -1.1 0.05 -1.35 0.65 -2.5 1.85 -4.0 0.3 M0.05 -2.75 L1.95 -4.5 2.4 -3.9 0.7 -2.05 0.05 -2.75" fill="#00abff" fill-rule="evenodd" stroke="none"/>
      <path d="M3.4 -5.05 Q1.45 -4.05 0.7 -3.15 -0.15 -1.45 -1.8 -0.8 L-3.65 -0.15 -3.95 1.8 Q-1.4 3.3 -0.45 3.55 L1.0 3.8 1.55 3.8 1.65 2.45 3.9 -0.8 4.45 -1.35 Q4.85 -0.8 4.05 -0.25 L3.35 0.3 1.65 4.5 1.55 4.75 -1.35 4.85 Q-2.95 4.3 -3.6 3.85 L-4.55 2.9 -4.55 2.65 -4.5 1.95 -4.6 1.7 -4.25 0.55 Q-4.2 -0.75 -2.55 -1.1 -0.95 -1.5 0.6 -3.3 2.1 -5.15 2.5 -5.15 L3.4 -5.05 M1.2 4.65 Q1.5 4.3 0.95 4.3 -0.9 4.1 -2.35 3.05 L-3.55 2.45 -4.05 2.15 -4.25 2.85 Q-1.9 4.75 -0.45 4.8 L1.05 4.75 Q1.1 4.65 1.2 4.65" fill="#000000" fill-rule="evenodd" stroke="none"/>
    </g>
    <g id="sprite4">
      <use ffdec:characterId="7" height="8.45" transform="matrix(1.0, 0.0, 0.0, 1.0, 0.0, 0.0)" width="5.55" xlink:href="#shape4"/>
    </g>
    <g id="shape4">
      <path d="M-0.9 -3.9 L-1.1 -3.75 -0.45 -3.55 Q0.75 -3.35 1.4 -2.8 L1.25 -2.8 -0.15 -2.6 -1.95 -2.8 -0.9 -3.9" fill="#bbbbbb" fill-rule="evenodd" stroke="none"/>
      <path d="M-1.95 -2.8 L-0.15 -2.6 1.25 -2.8 1.4 -2.8 Q0.75 -3.35 -0.45 -3.55 L-1.1 -3.75 -0.9 -3.9 -0.5 -4.15 Q0.75 -3.95 1.5 -3.4 2.25 -2.85 2.25 -2.05 L1.15 -2.0 0.45 -1.85 -0.65 -1.6 -2.2 -2.2 -1.95 -2.8" fill="#6a6a6a" fill-rule="evenodd" stroke="none"/>
      <path d="M1.15 -2.0 L2.25 -2.05 2.55 0.05 0.5 0.0 0.6 -1.9 1.15 -2.0 M2.55 1.25 L2.45 2.3 2.2 3.8 0.6 4.0 0.55 2.1 0.55 2.0 2.4 1.8 2.55 1.25" fill="#00689a" fill-rule="evenodd" stroke="none"/>
      <path d="M-0.65 -1.6 L0.45 -1.85 1.15 -2.0 0.6 -1.9 0.5 0.0 0.5 0.05 -0.45 0.05 -0.7 0.1 -0.65 -1.6 M0.6 4.0 Q-0.6 3.9 -1.55 3.3 L-1.4 2.55 -1.2 2.1 -1.0 2.15 -0.85 2.1 0.55 2.1 0.6 4.0" fill="#00abff" fill-rule="evenodd" stroke="none"/>
      <path d="M-1.2 2.1 L-0.7 0.1 -0.45 0.05 0.5 0.05 0.55 2.0 0.55 2.1 -0.85 2.1 -1.0 2.15 -1.2 2.1" fill="#005781" fill-rule="evenodd" stroke="none"/>
      <path d="M2.55 0.05 L2.55 1.25 2.4 1.8 0.55 2.0 0.5 0.05 0.5 0.0 2.55 0.05" fill="#000000" fill-rule="evenodd" stroke="none"/>
      <path d="M-0.55 -4.05 L-2.2 -2.3 Q-0.55 -1.25 2.0 -2.55 1.35 -3.55 -0.55 -4.05 M-2.75 -2.2 L-2.2 -3.05 Q-1.6 -3.95 -0.35 -4.25 2.05 -3.6 2.4 -2.55 3.1 0.65 2.55 3.85 0.5 4.7 -1.7 3.6 L-2.15 3.25 Q-0.4 1.1 -0.85 -1.6 L-1.7 -1.7 -2.75 -2.2 M-1.05 2.3 L-1.5 3.1 Q0.3 4.35 2.25 3.5 L2.5 1.0 2.15 -1.65 -0.05 -1.6 -0.1 -0.6 Q-0.25 0.9 -1.05 2.3" fill="#000000" fill-rule="evenodd" stroke="none"/>
    </g>
  </defs>
</svg>
