<?xml version="1.0" encoding="UTF-8" standalone="no"?>
<svg xmlns:ffdec="https://www.free-decompiler.com/flash" xmlns:xlink="http://www.w3.org/1999/xlink" ffdec:objectType="frame" height="15.95px" width="21.95px" xmlns="http://www.w3.org/2000/svg">
  <g transform="matrix(1.0, 0.0, 0.0, 1.0, 11.05, -14.7)">
    <use ffdec:characterId="18" height="6.8" transform="matrix(1.0, 0.0, 0.0, 1.0, -0.2, 23.2)" width="10.0" xlink:href="#sprite0"/>
    <use ffdec:characterId="4" height="6.85" transform="matrix(1.0, 0.0, 0.0, 1.0, 0.35, 18.2)" width="7.0" xlink:href="#sprite1"/>
    <use ffdec:characterId="6" height="7.3" transform="matrix(1.0, 0.0, 0.0, 1.0, -4.5, 18.45)" width="5.9" xlink:href="#sprite2"/>
    <use ffdec:characterId="6" height="7.3" transform="matrix(-1.0, 0.0, 0.0, 1.0, 5.1, 18.35)" width="5.9" xlink:href="#sprite2"/>
    <use ffdec:characterId="8" height="7.15" transform="matrix(1.0, 0.0, 0.0, 1.0, -0.2, 18.2)" width="6.2" xlink:href="#sprite3"/>
    <use ffdec:characterId="20" height="5.9" transform="matrix(1.0, 0.0, 0.0, 1.0, -5.95, 28.45)" width="9.25" xlink:href="#sprite4"/>
    <use ffdec:characterId="20" height="5.9" transform="matrix(-1.0, 0.0, 0.0, 1.0, 5.8, 28.4)" width="9.25" xlink:href="#sprite4"/>
  </g>
  <defs>
    <g id="sprite0">
      <use ffdec:characterId="17" height="6.8" transform="matrix(1.0, 0.0, 0.0, 1.0, 0.0, 0.0)" width="10.0" xlink:href="#shape0"/>
    </g>
    <g id="shape0">
      <path d="M2.85 -0.5 L2.75 -0.6 Q2.45 -0.65 2.25 -0.35 L2.1 0.05 2.15 0.25 3.4 0.4 3.15 0.95 3.2 1.0 Q3.7 0.8 3.7 0.4 L3.45 0.05 2.4 0.1 2.55 -0.15 2.85 -0.5 M3.4 -1.4 L3.6 -0.8 4.4 1.15 Q3.55 4.2 2.4 2.45 1.3 0.7 1.6 -0.65 2.5 -0.9 3.4 -1.4 M-4.3 1.1 Q-3.9 0.75 -3.25 -1.0 L-1.2 -0.5 -1.85 2.0 Q-2.2 3.0 -3.15 2.95 -4.15 2.9 -4.3 1.1 M-2.6 -0.15 L-3.1 -0.55 -3.2 -0.45 -2.6 0.3 -2.65 0.3 Q-3.5 0.25 -3.5 0.65 L-2.7 1.35 -2.45 1.35 -2.6 1.05 -3.1 0.7 -2.35 0.55 -2.3 0.35 Q-2.3 0.15 -2.6 -0.15" fill="#0e284a" fill-rule="evenodd" stroke="none"/>
      <path d="M-3.25 -1.0 L-3.25 -1.05 -2.7 -2.5 3.0 -2.5 3.2 -1.95 3.4 -1.4 Q2.5 -0.9 1.6 -0.65 1.3 0.7 2.4 2.45 3.55 4.2 4.4 1.15 L4.7 2.9 2.35 3.65 Q1.5 2.55 1.35 2.05 L1.25 1.4 1.2 0.75 Q1.05 0.25 0.3 0.25 L-0.55 0.35 -0.95 1.5 -1.65 2.8 Q-2.4 3.85 -2.85 3.4 -3.35 2.9 -4.35 2.95 -5.35 2.95 -5.0 2.45 L-4.3 1.1 Q-4.15 2.9 -3.15 2.95 -2.2 3.0 -1.85 2.0 L-1.2 -0.5 -3.25 -1.0" fill="#071324" fill-rule="evenodd" stroke="none"/>
      <path d="M2.85 -0.5 L2.55 -0.15 2.4 0.1 3.45 0.05 3.7 0.4 Q3.7 0.8 3.2 1.0 L3.15 0.95 3.4 0.4 2.15 0.25 2.1 0.05 2.25 -0.35 Q2.45 -0.65 2.75 -0.6 L2.85 -0.5 M-2.6 -0.15 Q-2.3 0.15 -2.3 0.35 L-2.35 0.55 -3.1 0.7 -2.6 1.05 -2.45 1.35 -2.7 1.35 -3.5 0.65 Q-3.5 0.25 -2.65 0.3 L-2.6 0.3 -3.2 -0.45 -3.1 -0.55 -2.6 -0.15" fill="#9ac4ff" fill-rule="evenodd" stroke="none"/>
      <path d="M2.9 -1.7 Q2.55 -2.4 2.85 -3.0 3.5 -1.95 3.75 -0.9 L4.35 0.7 Q4.95 1.95 4.9 3.05 L2.2 3.75 1.85 3.1 0.55 0.3 0.1 0.45 -0.45 0.25 -0.65 0.8 -0.85 1.45 Q-1.2 3.05 -2.35 3.8 L-2.85 3.7 -3.65 3.5 -5.1 2.75 Q-5.1 2.05 -4.7 1.45 L-3.8 -0.15 Q-3.2 -1.05 -2.95 -2.2 -2.85 -2.7 -2.55 -2.4 -2.5 -1.55 -3.45 0.0 -4.4 1.5 -4.8 2.65 L-2.35 3.35 Q-2.0 3.3 -1.55 2.5 -1.1 1.7 -0.85 0.15 L-1.05 -0.1 0.0 0.15 1.25 -0.05 1.2 0.15 0.95 0.25 Q1.85 1.65 2.25 3.5 L4.05 2.85 Q4.7 2.65 4.4 1.85 L3.65 0.0 2.9 -1.7" fill="#000000" fill-rule="evenodd" stroke="none"/>
    </g>
    <g id="sprite1">
      <use ffdec:characterId="3" height="6.85" transform="matrix(1.0, 0.0, 0.0, 1.0, 0.0, 0.0)" width="7.0" xlink:href="#shape1"/>
    </g>
    <g id="shape1">
      <path d="M1.45 3.3 L-1.55 3.2 -1.7 2.15 -1.55 -1.1 1.1 -1.25 1.4 -0.3 Q1.9 1.4 1.45 3.3" fill="#ffffff" fill-rule="evenodd" stroke="none"/>
      <path d="M-1.55 3.2 L-2.35 3.0 -3.25 2.7 Q-3.75 0.25 -3.05 -2.2 L-2.95 -2.65 -2.7 -3.4 -1.2 -2.55 0.4 -2.4 Q1.25 -2.7 2.2 -3.3 L2.65 -1.9 Q3.25 0.05 3.45 2.1 L3.55 2.85 1.45 3.3 Q1.9 1.4 1.4 -0.3 L1.1 -1.25 -1.55 -1.1 -1.7 2.15 -1.55 3.2" fill="#cec6c6" fill-rule="evenodd" stroke="none"/>
      <path d="M2.1 -3.3 Q2.05 -3.0 1.4 -2.65 L0.15 -2.25 Q-0.6 -2.25 -1.4 -2.65 L-2.15 -3.25 Q-2.05 -3.35 -1.6 -3.0 -1.15 -2.65 -0.25 -2.6 0.65 -2.55 1.4 -3.05 2.15 -3.6 2.1 -3.3 M0.5 3.45 Q-2.75 3.45 -3.4 2.8 L-2.65 2.75 -0.5 3.15 2.2 2.95 Q3.35 2.55 3.35 2.7 3.35 3.45 0.5 3.45" fill="#000000" fill-rule="evenodd" stroke="none"/>
    </g>
    <g id="sprite2">
      <use ffdec:characterId="5" height="7.3" transform="matrix(1.0, 0.0, 0.0, 1.0, 0.0, 0.0)" width="5.9" xlink:href="#shape2"/>
    </g>
    <g id="shape2">
      <path d="M-1.75 -1.05 L-0.9 0.15 -0.75 0.25 0.6 -0.1 1.3 -0.65 1.35 1.5 2.85 1.8 2.9 3.25 0.55 3.4 0.65 0.95 -0.45 1.7 Q-1.75 1.1 -2.55 -0.3 L-2.0 -0.8 -1.75 -1.05" fill="#8f0000" fill-rule="evenodd" stroke="none"/>
      <path d="M2.85 1.8 L1.35 1.5 1.3 -0.65 0.6 -0.1 -0.75 0.25 -0.9 0.15 -1.75 -1.05 Q0.05 -2.9 1.65 -3.55 L2.05 -3.5 2.65 -3.55 2.85 -2.25 2.85 1.8 M0.45 -2.55 L-0.1 -1.8 -0.95 -1.55 -1.2 -1.15 -0.9 -0.85 -0.25 -1.0 0.55 -1.65 0.8 -2.15 1.55 -2.5 1.55 -2.75 Q0.9 -2.95 0.45 -2.55" fill="#e20000" fill-rule="evenodd" stroke="none"/>
      <path d="M0.45 -2.55 Q0.9 -2.95 1.55 -2.75 L1.55 -2.5 0.8 -2.15 0.55 -1.65 -0.25 -1.0 -0.9 -0.85 -1.2 -1.15 -0.95 -1.55 -0.1 -1.8 0.45 -2.55" fill="#f96d6d" fill-rule="evenodd" stroke="none"/>
      <path d="M-0.35 1.35 L-0.6 1.1 -2.15 -0.45 -2.3 0.05 -0.95 1.4 -0.35 1.35 M-0.35 -1.9 L-1.15 -1.0 -1.4 -0.65 -0.55 0.15 Q-0.05 0.6 0.1 1.0 L0.85 0.55 Q1.4 0.35 1.45 -0.15 1.5 -0.65 1.85 -0.2 L1.8 -0.05 1.6 0.2 1.05 0.8 0.85 2.3 Q0.7 2.85 1.0 3.2 L2.55 3.2 2.5 -1.8 2.6 -3.0 2.85 -3.6 2.75 -1.75 2.7 1.1 2.9 2.75 Q3.05 3.55 2.85 3.6 L2.3 3.65 1.5 3.6 0.35 3.35 0.65 1.1 0.3 1.4 0.1 1.5 Q-0.2 1.8 -0.6 1.95 L-1.2 1.7 -2.15 0.8 -2.95 0.2 -2.35 -1.0 -1.8 -0.85 -1.5 -1.2 0.15 -2.8 Q0.6 -3.25 1.15 -3.5 L1.85 -3.65 Q1.15 -2.9 0.65 -2.7 L-0.35 -1.9" fill="#000000" fill-rule="evenodd" stroke="none"/>
    </g>
    <g id="sprite3">
      <use ffdec:characterId="7" height="7.15" transform="matrix(1.0, 0.0, 0.0, 1.0, 0.0, 0.0)" width="6.2" xlink:href="#shape3"/>
    </g>
    <g id="shape3">
      <path d="M1.4 -0.85 Q1.15 -0.65 0.85 -0.55 L1.1 0.25 -0.65 0.75 -0.45 0.1 Q-0.1 -0.65 -1.1 -1.35 L-0.55 -2.05 -0.4 -1.6 0.45 -1.4 0.55 -1.4 0.5 -1.45 0.7 -1.9 Q0.8 -1.3 1.4 -0.85 M1.15 0.7 L1.1 1.75 -0.6 2.2 -0.6 2.1 -0.7 1.4 0.4 1.1 1.15 0.7 M0.95 2.45 Q0.6 3.7 0.15 3.5 -0.25 3.35 -0.45 2.65 L0.95 2.45" fill="#ff2020" fill-rule="evenodd" stroke="none"/>
      <path d="M1.45 -3.05 L2.75 -2.6 2.2 -1.75 1.8 -1.25 0.95 -2.35 1.45 -3.05 M-1.6 -1.6 L-2.25 -2.1 Q-1.6 -2.4 -1.05 -2.8 L-1.05 -2.75 -0.75 -2.35 -1.6 -1.6" fill="#ff0000" fill-rule="evenodd" stroke="none"/>
      <path d="M1.45 -3.05 L1.65 -3.35 1.85 -3.35 2.85 -3.35 2.95 -3.0 2.75 -2.6 1.45 -3.05 M1.8 -1.25 L1.4 -0.85 Q0.8 -1.3 0.7 -1.9 L0.95 -2.35 1.8 -1.25 M1.1 0.25 L1.15 0.7 0.4 1.1 -0.7 1.4 -0.65 0.75 1.1 0.25 M1.1 1.75 L1.05 2.15 0.95 2.45 -0.45 2.65 -0.6 2.2 1.1 1.75 M-1.1 -1.35 L-1.4 -1.5 -1.6 -1.6 -0.75 -2.35 -0.55 -2.05 -1.1 -1.35 M-2.25 -2.1 L-2.8 -2.85 -2.75 -3.35 -2.6 -3.35 -1.35 -3.35 -1.05 -2.8 Q-1.6 -2.4 -2.25 -2.1" fill="#8100ff" fill-rule="evenodd" stroke="none"/>
      <path d="M1.05 1.3 Q0.95 0.25 0.5 0.15 L-0.2 0.2 Q-0.45 0.3 -0.6 1.15 -0.75 2.0 0.1 3.5 L0.75 2.75 Q1.15 2.35 1.05 1.3 M-0.25 -1.4 L-0.4 -0.45 Q0.55 0.15 0.75 -0.7 L0.45 -1.3 -0.15 -1.4 -0.25 -1.4 M1.45 -3.35 L1.85 -3.35 1.9 -3.35 1.15 -2.55 Q0.4 -1.95 1.1 -1.0 1.3 -1.2 1.75 -1.4 2.2 -1.6 2.5 -2.3 L2.95 -3.4 3.05 -3.4 3.1 -3.3 2.9 -2.7 2.15 -1.45 1.15 -0.7 1.1 -0.55 1.0 -0.1 1.25 0.8 Q1.4 1.8 1.1 2.65 0.75 3.55 0.0 3.75 L-0.1 3.75 -0.55 2.7 Q-1.1 1.2 -0.45 -0.1 L-0.6 -0.3 -0.7 -0.8 -0.95 -0.9 -1.75 -1.4 Q-2.7 -2.0 -3.05 -2.95 L-3.1 -3.2 -3.05 -3.35 -2.85 -3.4 -2.7 -3.35 -2.55 -2.65 Q-1.8 -1.65 -0.65 -1.05 -0.45 -1.65 -1.05 -2.45 L-1.65 -3.35 -1.35 -3.35 -1.15 -3.1 -0.15 -1.75 Q0.0 -1.55 0.35 -1.55 L0.4 -1.5 1.4 -3.3 1.45 -3.35" fill="#000000" fill-rule="evenodd" stroke="none"/>
    </g>
    <g id="sprite4">
      <use ffdec:characterId="19" height="5.9" transform="matrix(1.0, 0.0, 0.0, 1.0, 0.0, 0.0)" width="9.25" xlink:href="#shape4"/>
    </g>
    <g id="shape4">
      <path d="M-1.35 -2.05 L-1.2 -1.85 -1.2 -1.75 -1.15 -1.45 Q-1.6 -1.45 -1.85 -1.7 L-2.05 -1.7 -1.35 -2.05 M-2.15 -1.65 L-2.2 -0.8 Q-2.4 -0.8 -3.0 -1.15 L-2.15 -1.65 M-3.2 -1.05 L-2.25 -0.55 -2.0 -0.55 -1.95 -1.45 -1.25 -1.25 -0.85 -1.25 -0.85 -1.5 -0.9 -1.75 -0.95 -1.9 -0.9 -2.2 -0.65 -2.35 0.1 -1.8 0.6 -1.65 0.6 -0.95 0.2 -0.4 -0.55 0.2 -1.05 -0.75 -0.65 -1.0 -0.25 -1.35 -0.3 -1.45 Q-0.45 -1.3 -0.95 -1.15 L-1.3 -0.8 -0.75 0.35 Q-2.55 1.45 -4.65 0.9 L-4.75 0.8 -4.8 0.65 -4.9 0.1 -3.2 -1.05 M-2.75 -0.05 Q-2.75 -0.5 -3.3 -0.5 L-4.05 -0.3 -4.25 0.0 Q-4.25 0.55 -3.6 0.55 -2.75 0.55 -2.75 -0.05 M-1.95 0.5 L-1.7 0.25 Q-1.7 0.0 -1.95 0.0 -2.25 0.0 -2.25 0.25 -2.25 0.5 -1.95 0.5" fill="#241e1a" fill-rule="evenodd" stroke="none"/>
      <path d="M0.6 -1.65 L1.3 -1.3 3.6 -1.25 4.05 1.75 -3.75 2.05 Q-4.6 1.85 -4.8 0.65 L-4.75 0.8 -4.65 0.9 Q-2.55 1.45 -0.75 0.35 L-0.4 0.6 -0.3 0.55 -0.55 0.2 0.2 -0.4 0.6 -0.95 0.6 -1.65" fill="#120c09" fill-rule="evenodd" stroke="none"/>
      <path d="M-2.75 -0.05 Q-2.75 0.55 -3.6 0.55 -4.25 0.55 -4.25 0.0 L-4.05 -0.3 -3.3 -0.5 Q-2.75 -0.5 -2.75 -0.05 M-1.95 0.5 Q-2.25 0.5 -2.25 0.25 -2.25 0.0 -1.95 0.0 -1.7 0.0 -1.7 0.25 L-1.95 0.5" fill="#796355" fill-rule="evenodd" stroke="none"/>
      <path d="M-1.35 -2.05 L-1.8 -2.45 -2.3 -3.05 -2.05 -3.2 Q-1.75 -3.2 -1.2 -2.45 L-1.1 -3.0 -0.7 -3.7 -0.65 -3.45 -0.9 -2.2 -0.95 -1.9 -0.9 -1.75 -0.85 -1.5 -0.85 -1.25 -1.25 -1.25 -1.95 -1.45 -2.0 -0.55 -2.25 -0.55 -3.2 -1.05 -3.25 -1.1 -3.25 -1.2 -3.1 -1.25 -3.0 -1.15 Q-2.4 -0.8 -2.2 -0.8 L-2.15 -1.65 -2.15 -1.7 -2.05 -1.7 -1.85 -1.7 Q-1.6 -1.45 -1.15 -1.45 L-1.2 -1.75 -1.2 -1.85 -1.35 -2.05 M-0.75 0.35 L-1.3 -0.8 -0.95 -1.15 Q-0.45 -1.3 -0.3 -1.45 L-0.25 -1.35 -0.65 -1.0 -1.05 -0.75 -0.55 0.2 -0.3 0.55 -0.4 0.6 -0.75 0.35" fill="#e8d6cc" fill-rule="evenodd" stroke="none"/>
      <path d="M3.85 -1.15 Q4.3 0.35 4.1 2.0 L-2.8 2.05 3.75 1.7 3.75 1.15 -3.95 1.5 -3.95 1.9 -3.05 2.1 -3.7 2.2 -4.2 2.0 -4.35 1.6 -5.05 0.65 -5.1 0.2 -3.8 -0.65 -4.5 0.1 -4.7 0.65 -4.05 1.25 -1.05 0.95 -1.25 0.15 -1.6 -0.75 -1.6 -0.9 -0.8 -1.5 0.7 -1.5 -0.5 -2.05 Q-1.1 -2.3 -1.85 -1.75 L-3.6 -0.8 -0.65 -2.45 Q0.7 -2.2 0.9 -1.5 L3.1 -1.35 Q3.7 -1.6 3.85 -1.15 M1.95 -0.95 L0.65 -1.25 Q-1.0 -1.5 -1.3 -0.75 -1.1 -0.55 -1.05 0.05 -1.0 0.6 -0.25 1.1 L3.65 0.75 3.45 -0.95 Q2.8 -0.75 1.95 -0.95" fill="#000000" fill-rule="evenodd" stroke="none"/>
    </g>
  </defs>
</svg>
