<?xml version="1.0" encoding="UTF-8" standalone="no"?>
<svg xmlns:ffdec="https://www.free-decompiler.com/flash" xmlns:xlink="http://www.w3.org/1999/xlink" ffdec:objectType="frame" height="16.9px" width="21.95px" xmlns="http://www.w3.org/2000/svg">
  <g transform="matrix(1.0, 0.0, 0.0, 1.0, 10.9, -13.4)">
    <use ffdec:characterId="9" height="16.9" transform="matrix(1.0, 0.0, 0.0, 1.0, 0.05, 21.85)" width="21.95" xlink:href="#shape0"/>
  </g>
  <defs>
    <g id="shape0">
      <path d="M1.85 -5.65 L1.65 -6.75 1.65 -6.8 1.65 -6.9 1.7 -6.9 1.65 -7.0 1.65 -7.1 1.4 -7.8 2.95 -7.85 Q3.85 -7.5 4.2 -7.15 L5.45 -7.35 Q5.9 -7.35 5.9 -6.85 L5.7 -6.2 6.2 -5.85 6.15 -5.4 Q6.15 -5.05 6.4 -4.9 L7.0 -4.2 7.65 -3.65 8.65 -3.55 Q9.4 -3.55 9.4 -3.05 L9.4 -2.9 Q9.0 -3.0 7.8 -2.2 L6.25 -1.0 6.15 -0.95 6.45 -1.4 6.55 -1.6 Q6.85 -1.85 6.45 -2.1 L6.1 -2.3 Q5.0 -2.25 4.75 -5.2 L4.65 -4.3 4.65 -4.1 4.6 -4.45 Q4.15 -3.75 4.05 -2.75 L4.05 -2.6 2.05 -1.15 1.85 -1.0 3.55 -1.4 3.25 -1.3 3.55 -0.4 3.35 0.1 3.85 1.15 4.3 2.3 4.45 2.5 4.95 3.4 5.4 3.6 5.95 3.5 6.75 3.8 7.05 4.2 6.8 4.6 6.7 4.6 6.5 4.55 6.25 4.45 5.65 4.3 5.25 4.35 4.95 4.45 4.3 4.6 3.15 5.0 2.15 5.6 2.0 5.55 Q1.8 5.55 1.7 5.75 L1.6 5.75 Q1.1 5.75 1.0 5.55 L0.95 5.2 Q0.95 4.6 1.7 4.25 L0.75 2.3 0.5 2.0 0.45 1.9 0.1 1.6 -0.55 1.6 -1.0 3.3 -1.05 3.65 -1.0 4.05 -1.2 4.5 -1.05 4.8 Q-0.9 5.0 -0.9 5.15 -0.9 5.6 -1.35 5.6 L-1.75 5.4 -2.15 5.15 Q-2.75 4.75 -3.15 4.7 L-3.3 4.65 -4.1 4.35 -4.3 4.25 -4.65 4.2 -5.5 4.3 -5.8 4.4 -6.25 4.25 -6.3 4.2 -6.45 3.85 -5.8 3.3 -5.25 3.1 -5.3 3.05 Q-5.3 2.65 -4.7 2.25 L-4.6 2.2 -4.3 1.55 -3.5 0.2 Q-3.2 -0.35 -3.2 -1.0 -2.55 -0.7 -1.9 -0.75 L-2.0 -0.8 Q-3.25 -1.85 -3.55 -3.4 L-3.65 -2.95 -5.2 -1.75 -5.65 -1.0 -5.95 -0.55 Q-5.85 -0.85 -6.5 -1.2 -7.25 -1.6 -7.7 -2.1 L-8.35 -3.0 -8.45 -3.1 -7.9 -3.35 Q-7.05 -3.65 -6.8 -4.05 L-5.95 -5.35 -5.6 -5.7 -5.65 -5.9 -5.6 -6.05 -5.35 -6.2 -5.65 -6.85 -5.5 -7.1 -6.0 -7.3 -5.8 -7.5 -4.7 -7.4 -3.4 -7.2 -2.6 -7.05 -2.4 -7.05 Q-3.05 -6.95 -3.05 -6.65 L-2.3 -5.35 -2.05 -4.7 -1.8 -4.1 -1.7 -3.8 -1.95 -2.55 -1.9 -1.85 Q-1.9 -1.45 -1.1 -1.15 L0.65 -1.05 Q1.65 -1.3 1.7 -1.45 L1.75 -1.7 1.8 -1.9 1.95 -2.25 1.95 -2.55 2.05 -3.0 2.15 -3.5 2.2 -4.1 1.85 -5.65 M6.0 -0.8 L5.9 -0.8 6.05 -0.9 6.0 -0.8 M5.65 -0.95 L5.55 -1.1 5.5 -1.45 4.85 -2.1 4.4 -2.45 4.45 -2.9 Q4.65 -2.45 5.2 -2.05 L5.65 -1.4 5.65 -0.95 M4.4 -2.4 L4.5 -2.0 4.35 -1.7 4.4 -2.4 M-3.8 -1.65 L-4.05 -1.85 -3.75 -2.55 -3.8 -1.65 M-1.8 -6.95 L-1.4 -6.95 -1.35 -6.8 -1.5 -6.6 -1.45 -6.2 -1.45 -5.65 -1.5 -5.45 -1.5 -6.05 Q-1.5 -6.75 -1.8 -6.95" fill="#333333" fill-rule="evenodd" stroke="none"/>
      <path d="M6.8 4.6 L7.05 4.65 7.65 4.85 Q8.6 4.9 9.4 5.4 10.5 6.1 10.5 7.0 10.5 7.45 9.0 7.85 L4.85 8.3 Q2.95 8.3 2.15 7.45 1.65 6.9 1.65 6.35 L1.65 5.9 1.7 5.75 Q1.8 5.55 2.0 5.55 L2.15 5.6 3.15 5.0 4.3 4.6 4.95 4.45 6.5 4.55 6.7 4.6 6.8 4.6 M-1.75 5.6 Q-1.75 6.3 -2.05 6.8 L-2.8 7.55 Q-3.9 8.25 -5.95 8.25 L-8.65 8.05 Q-10.55 7.75 -10.55 7.15 L-10.35 6.6 Q-10.25 6.0 -9.5 5.4 -8.75 4.85 -7.75 4.55 L-6.25 4.25 -5.8 4.4 -5.5 4.3 -4.65 4.2 -4.6 4.2 -4.1 4.35 -3.3 4.65 -3.15 4.7 -2.4 5.05 -1.75 5.6 M-1.45 -5.65 L-1.3 -5.35 -1.5 -5.45 -1.45 -5.65 M-0.6 -5.05 L-0.15 -5.05 0.7 -5.2 1.0 -5.2 1.45 -5.1 1.65 -5.25 1.75 -5.5 1.75 -5.6 1.8 -5.65 1.85 -5.65 2.2 -4.1 2.15 -3.5 2.05 -3.0 1.95 -2.55 1.95 -2.25 1.8 -1.9 1.75 -1.7 1.7 -1.45 Q1.65 -1.3 0.65 -1.05 L-1.1 -1.15 Q-1.9 -1.45 -1.9 -1.85 L-1.95 -2.55 -1.7 -3.8 -1.4 -3.2 -1.45 -2.35 Q-1.25 -1.6 -0.7 -1.6 L1.05 -1.85 Q1.55 -2.2 1.55 -3.55 L1.35 -4.7 1.45 -5.0 Q1.45 -5.25 0.1 -5.0 L-0.35 -4.9 -0.6 -5.05 M1.2 -5.45 L1.15 -5.4 1.05 -5.4 1.1 -5.45 1.2 -5.45 M9.15 5.9 Q8.5 5.1 6.8 5.0 5.1 4.85 5.0 6.1 4.85 7.35 6.3 7.45 L8.8 7.1 Q9.8 6.65 9.15 5.9 M-4.7 6.9 Q-4.6 6.5 -5.1 5.8 -5.7 4.9 -6.3 4.9 L-7.2 4.95 -8.0 5.15 -9.05 5.8 Q-9.55 6.15 -9.65 6.6 L-9.55 7.15 -7.05 7.3 Q-4.8 7.3 -4.7 6.9" fill="#cccccc" fill-rule="evenodd" stroke="none"/>
      <path d="M9.4 -2.9 L9.6 -2.55 9.6 -2.5 9.65 -2.3 Q9.65 -2.0 8.05 -1.3 L6.8 -0.25 6.35 -0.35 Q6.15 -0.35 6.05 -0.5 L6.0 -0.65 6.0 -0.8 6.05 -0.9 6.1 -0.95 6.15 -0.95 6.25 -1.0 7.8 -2.2 Q9.0 -3.0 9.4 -2.9 M-5.95 -0.55 L-5.9 -0.45 -5.9 -0.3 -5.75 -0.2 -5.8 0.0 -6.25 0.05 Q-7.05 0.05 -7.75 -0.35 L-8.75 -1.6 -9.3 -2.05 -9.3 -2.15 -9.05 -2.55 Q-9.05 -3.0 -8.8 -2.85 L-8.65 -3.1 -8.6 -3.1 -8.45 -3.05 -8.45 -3.1 -8.35 -3.0 -7.7 -2.1 Q-7.25 -1.6 -6.5 -1.2 -5.85 -0.85 -5.95 -0.55 M-2.4 -7.05 L-2.25 -7.1 -1.8 -6.95 Q-1.5 -6.75 -1.5 -6.05 L-1.5 -5.45 -1.3 -5.35 -0.95 -5.25 -0.6 -5.05 -0.35 -4.9 0.1 -5.0 Q1.45 -5.25 1.45 -5.0 L1.35 -4.7 1.55 -3.55 Q1.55 -2.2 1.05 -1.85 L-0.7 -1.6 Q-1.25 -1.6 -1.45 -2.35 L-1.4 -3.2 -1.7 -3.8 -1.8 -4.1 -2.05 -4.7 -2.3 -5.35 -3.05 -6.65 Q-3.05 -6.95 -2.4 -7.05 M9.15 5.9 Q9.8 6.65 8.8 7.1 L6.3 7.45 Q4.85 7.35 5.0 6.1 5.1 4.85 6.8 5.0 8.5 5.1 9.15 5.9 M-4.7 6.9 Q-4.8 7.3 -7.05 7.3 L-9.55 7.15 -9.65 6.6 Q-9.55 6.15 -9.05 5.8 L-8.0 5.15 -7.2 4.95 -6.3 4.9 Q-5.7 4.9 -5.1 5.8 -4.6 6.5 -4.7 6.9" fill="#ffffff" fill-rule="evenodd" stroke="none"/>
      <path d="M5.9 -0.8 Q5.7 -0.85 5.65 -0.95 L5.65 -1.4 5.2 -2.05 Q4.65 -2.45 4.45 -2.9 L4.4 -2.45 4.4 -2.4 4.35 -1.7 4.3 -1.65 4.25 -1.6 4.15 -1.6 3.55 -1.4 1.85 -1.0 2.05 -1.15 4.05 -2.6 4.05 -2.75 Q4.15 -3.75 4.6 -4.45 L4.65 -4.1 4.65 -4.3 4.75 -5.2 Q5.0 -2.25 6.1 -2.3 L6.45 -2.1 Q6.85 -1.85 6.55 -1.6 L6.45 -1.4 6.15 -0.95 6.1 -0.95 6.05 -0.9 5.9 -0.8 M-3.2 -1.0 L-3.2 -1.1 -3.25 -1.35 -3.8 -1.65 -3.75 -2.55 -3.6 -2.95 -3.6 -3.0 -3.65 -2.95 -3.55 -3.4 Q-3.25 -1.85 -2.0 -0.8 L-1.9 -0.75 Q-2.55 -0.7 -3.2 -1.0" fill="#666666" fill-rule="evenodd" stroke="none"/>
      <path d="M-1.75 5.4 L-1.75 5.6 -2.4 5.05 -3.15 4.7 Q-2.75 4.75 -2.15 5.15 L-1.75 5.4 M-4.1 4.35 L-4.6 4.2 -4.65 4.2 -4.3 4.25 -4.1 4.35" fill="#000000" fill-rule="evenodd" stroke="none"/>
      <path d="M6.55 -6.85 Q6.55 -6.45 6.35 -6.35 L6.7 -5.5 6.6 -4.95 Q6.6 -4.5 9.25 -3.85 9.55 -3.8 9.9 -3.15 L10.25 -2.3 10.15 -2.05 10.15 -2.0 Q9.45 -1.5 8.4 -1.15 8.05 -1.1 7.6 -0.55 L7.25 -0.05 7.05 -0.25 6.95 -0.1 Q6.95 0.2 6.45 0.2 5.35 0.2 5.25 -1.05 L5.35 -1.6 4.9 -1.95 4.9 -1.9 Q4.9 -1.45 3.9 -1.15 L3.75 -1.1 4.1 -0.25 3.75 0.35 4.05 1.0 5.35 3.25 6.3 3.25 Q7.15 3.25 7.25 4.3 L7.25 4.5 8.1 4.65 10.0 5.35 Q11.0 6.0 11.0 7.15 L10.75 7.6 10.1 7.85 9.8 7.8 9.75 7.65 Q9.75 7.45 10.1 7.3 L10.45 6.9 Q10.45 6.1 9.25 5.5 8.25 5.0 6.85 4.85 L6.85 4.95 Q4.9 5.3 4.9 7.05 L5.0 7.5 4.8 7.75 4.5 7.45 4.5 7.1 Q4.5 5.1 6.45 4.7 L6.7 4.55 6.55 4.25 Q6.35 3.65 5.1 3.65 L4.2 3.45 4.2 3.3 4.75 3.3 3.45 0.7 3.35 0.6 2.8 0.95 2.7 0.75 3.2 0.05 3.35 -0.05 3.45 -0.45 3.25 -0.95 1.85 -0.4 1.5 -0.4 1.5 -1.2 Q1.5 -1.9 1.8 -2.4 L1.85 -2.75 2.0 -4.25 1.7 -4.95 1.4 -4.9 0.05 -4.85 -1.5 -5.15 -1.6 -5.2 -1.65 -5.1 -1.7 -3.65 -1.65 -3.3 -1.75 -2.75 -1.55 -1.35 -0.95 -1.3 1.1 -1.1 Q0.9 -0.7 -0.3 -0.7 L-1.45 -0.85 -1.45 -0.75 -1.45 -0.45 Q-1.5 -0.3 -1.8 -0.3 L-3.05 -0.55 Q-3.1 -0.1 -4.1 1.7 L-4.85 2.75 -5.0 3.3 Q-5.25 3.7 -6.1 3.6 L-6.1 3.9 -5.95 4.15 Q-5.95 4.5 -6.4 4.5 L-6.65 4.35 Q-8.6 4.9 -9.35 5.35 -10.35 6.0 -10.35 6.85 L-10.05 7.55 -9.95 7.5 -7.85 7.85 -4.45 7.95 Q-3.25 7.85 -2.5 7.3 -1.8 6.75 -1.8 6.2 L-1.9 5.9 -1.8 5.7 -2.6 5.25 Q-4.1 4.35 -5.25 4.35 L-4.6 4.15 -2.9 4.75 -1.2 5.3 -1.1 5.35 -1.1 5.2 -1.3 4.85 -1.55 4.55 -1.3 3.65 Q-1.15 2.25 -0.8 1.75 L-1.65 1.65 -2.1 1.25 Q-2.1 0.8 -1.15 1.0 L1.0 1.5 1.0 1.65 0.6 1.7 1.45 2.7 Q2.15 3.65 2.15 4.2 L1.65 4.55 1.45 4.85 1.4 5.1 1.75 5.5 2.25 5.6 1.85 6.25 Q1.85 6.75 2.55 7.3 L3.15 7.85 3.25 7.85 3.7 8.0 4.85 8.1 5.1 8.1 8.95 7.8 9.65 7.65 9.7 7.8 9.4 8.05 8.8 8.2 7.95 8.35 7.55 8.45 6.15 8.4 4.95 8.45 3.6 8.3 3.15 8.2 2.95 8.25 Q2.1 8.25 1.65 7.4 1.3 6.8 1.3 6.3 L1.35 6.05 Q0.8 5.95 0.7 5.1 0.7 4.15 1.6 3.85 1.5 3.15 0.8 2.3 L0.25 1.75 0.1 1.75 -0.2 1.75 -0.8 3.6 -0.6 4.1 -0.75 4.55 -0.55 5.3 Q-0.5 5.95 -0.95 5.95 L-1.2 6.1 -1.2 6.2 Q-1.2 8.2 -4.7 8.35 L-9.25 8.05 -10.0 7.85 -10.35 8.0 Q-10.85 8.0 -10.95 7.55 L-10.95 7.0 Q-10.95 5.75 -9.55 4.9 -8.3 4.15 -7.0 4.15 L-6.75 4.2 -6.8 3.75 Q-6.8 3.1 -6.25 2.95 L-5.25 2.55 -4.3 1.4 Q-3.75 0.4 -3.75 -0.1 L-3.55 -0.8 -3.6 -0.85 Q-4.4 -1.4 -4.4 -1.7 L-3.95 -2.25 -3.9 -2.5 -4.35 -2.1 -5.3 -0.95 -5.2 -0.35 Q-5.2 0.5 -5.9 0.5 -6.7 0.5 -8.05 -0.5 L-9.05 -1.65 -7.65 -0.75 Q-6.65 -0.1 -6.15 -0.1 -5.95 -0.1 -5.9 -0.5 L-5.9 -0.95 Q-6.0 -1.25 -5.35 -1.9 L-3.75 -3.35 -3.75 -3.45 -3.45 -3.9 -3.35 -3.65 -3.4 -3.15 -3.4 -3.05 Q-3.4 -2.3 -3.8 -2.0 L-3.2 -1.35 Q-2.9 -1.0 -2.1 -0.9 L-2.05 -1.0 -2.2 -2.45 -1.85 -3.85 -1.8 -3.8 -1.75 -5.0 -1.8 -5.25 -1.55 -6.55 -1.75 -6.9 -2.0 -7.0 -2.1 -7.05 -3.2 -6.65 -2.45 -5.4 -2.1 -4.7 -2.1 -4.6 -2.05 -4.6 -1.95 -4.3 -2.0 -4.15 -2.1 -4.1 -3.6 -6.7 -3.15 -7.25 -3.1 -7.2 -1.95 -7.5 -1.85 -7.45 -1.15 -7.0 -1.05 -7.0 -1.05 -6.85 -1.05 -6.75 -1.15 -6.5 -1.3 -6.2 -1.35 -6.0 Q-1.75 -5.15 0.0 -5.25 L1.55 -5.4 1.65 -5.65 1.05 -7.25 Q0.95 -7.75 1.45 -8.45 L3.05 -7.9 3.3 -7.6 3.8 -7.45 6.0 -7.6 Q6.55 -7.6 6.55 -6.85 M5.35 -7.15 L4.1 -7.05 Q3.75 -7.05 3.65 -7.2 L2.75 -7.45 1.8 -7.75 Q1.55 -7.75 1.8 -7.05 L2.1 -6.1 2.15 -4.85 2.25 -3.75 2.25 -3.7 2.25 -3.45 2.25 -3.0 2.35 -2.9 1.8 -1.0 1.8 -0.95 4.4 -1.9 4.25 -2.4 4.3 -2.6 4.3 -2.95 4.7 -4.4 4.75 -4.4 4.55 -3.4 4.7 -2.7 4.7 -2.65 Q5.9 -1.75 5.9 -1.35 L5.8 -1.2 Q5.8 -0.75 6.4 -0.55 L6.75 -0.4 Q7.0 -0.8 8.4 -1.6 L9.35 -2.1 9.35 -2.15 9.5 -2.55 Q9.5 -3.3 8.55 -3.35 7.95 -3.4 7.5 -3.7 L6.95 -4.05 Q6.05 -4.5 6.15 -5.75 5.85 -5.7 5.7 -6.05 L5.6 -6.45 5.8 -6.95 Q5.8 -7.15 5.35 -7.15 M-5.8 -7.35 Q-5.25 -7.1 -5.25 -6.35 L-5.4 -6.05 -5.55 -5.7 -6.95 -3.85 -8.3 -2.95 Q-9.1 -2.6 -9.1 -2.15 L-9.0 -1.9 Q-9.0 -1.6 -9.35 -1.6 -9.85 -1.6 -9.75 -2.1 -9.55 -3.65 -8.35 -3.65 L-7.95 -3.55 Q-7.35 -3.55 -6.75 -4.5 L-6.1 -5.7 -6.2 -6.0 -5.95 -6.3 Q-6.35 -6.65 -6.35 -6.9 -6.35 -7.6 -5.8 -7.35 M-4.35 7.7 L-4.4 7.5 -4.3 7.1 Q-4.3 6.4 -4.8 5.6 L-5.8 4.3 -5.7 4.25 Q-4.0 6.05 -4.0 7.15 -4.0 7.8 -4.35 7.7" fill="#000000" fill-rule="evenodd" stroke="none"/>
    </g>
  </defs>
</svg>
