<?xml version="1.0" encoding="UTF-8" standalone="no"?>
<svg xmlns:ffdec="https://www.free-decompiler.com/flash" xmlns:xlink="http://www.w3.org/1999/xlink" ffdec:objectType="frame" height="30.2px" width="31.8px" xmlns="http://www.w3.org/2000/svg">
  <g transform="matrix(1.0, 0.0, 0.0, 1.0, 13.55, 0.0)">
    <use ffdec:characterId="7" height="0.1" transform="matrix(1.0, 0.0, 0.0, 1.0, 0.0, 0.0)" width="0.0" xlink:href="#shape0"/>
    <use ffdec:characterId="1" height="10.8" transform="matrix(1.0, 0.0, 0.0, 1.0, 9.7, 20.25)" width="17.1" xlink:href="#shape1"/>
    <use ffdec:characterId="8" height="14.1" transform="matrix(1.0, 0.0, 0.0, 1.0, 0.0, 0.0)" width="19.1" xlink:href="#shape2"/>
    <use ffdec:characterId="3" height="6.2" transform="matrix(1.0, 0.0, 0.0, 1.0, -0.1, 18.75)" width="5.5" xlink:href="#shape3"/>
    <use ffdec:characterId="4" height="7.3" transform="matrix(1.0, 0.0, 0.0, 1.0, 9.75, 22.9)" width="7.85" xlink:href="#shape4"/>
    <use ffdec:characterId="4" height="7.3" transform="matrix(-1.0, 0.0, 0.0, 1.0, -9.6, 23.05)" width="7.85" xlink:href="#shape4"/>
    <use ffdec:characterId="5" height="4.4" transform="matrix(1.0, 0.0, 0.0, 1.0, -6.9, 27.95)" width="9.6" xlink:href="#shape5"/>
    <use ffdec:characterId="5" height="4.4" transform="matrix(-1.0, 0.0, 0.0, 1.0, 6.15, 27.75)" width="9.6" xlink:href="#shape5"/>
  </g>
  <defs>
    <g id="shape0">
      <path d="M7.0 21.1 L7.0 21.2 7.0 21.1" fill="#cccccc" fill-rule="evenodd" stroke="none"/>
    </g>
    <g id="shape1">
      <path d="M-8.0 0.8 L-7.85 0.5 -7.25 -0.1 Q-7.0 -0.1 -6.35 0.6 L-4.9 0.95 -1.7 0.45 0.75 -0.45 Q3.95 -1.85 3.95 -2.85 L3.7 -3.7 3.4 -4.4 3.4 -4.5 3.25 -4.8 Q3.25 -5.2 3.7 -5.2 L4.0 -5.15 Q5.05 -4.65 5.6 -3.65 L5.75 -2.8 5.8 -2.7 5.7 -2.6 5.55 -2.3 6.25 -1.85 Q6.65 -1.2 6.55 -0.5 L5.7 0.5 5.55 0.9 5.6 1.45 Q4.65 2.75 3.1 2.45 L3.05 2.5 2.5 3.4 0.7 3.35 -1.15 2.65 Q-2.35 3.1 -3.75 2.25 -4.5 1.75 -5.3 1.75 -7.0 1.7 -8.0 0.8" fill="#cc99cc" fill-rule="evenodd" stroke="none"/>
      <path d="M4.0 -5.15 L4.65 -5.15 Q5.55 -5.15 6.0 -4.65 L6.3 -3.95 6.05 -3.15 7.35 -2.55 Q7.7 -2.25 7.7 -1.65 7.7 -1.2 7.2 -0.65 L6.55 0.35 8.0 0.45 Q8.3 0.5 8.3 0.85 L7.6 1.5 6.25 2.15 6.65 2.95 Q6.65 3.9 4.75 3.9 3.9 4.5 3.0 4.5 L1.55 4.35 Q0.95 4.5 0.45 4.8 L-0.5 5.0 Q-1.85 5.0 -3.35 4.1 L-4.7 2.9 -4.95 2.9 -6.35 2.55 -7.25 2.2 Q-8.25 1.85 -8.25 1.2 L-8.0 0.8 Q-7.0 1.7 -5.3 1.75 -4.5 1.75 -3.75 2.25 -2.35 3.1 -1.15 2.65 L0.7 3.35 2.5 3.4 3.05 2.5 3.1 2.45 Q4.65 2.75 5.6 1.45 L5.55 0.9 5.7 0.5 6.55 -0.5 Q6.65 -1.2 6.25 -1.85 L5.55 -2.3 5.7 -2.6 5.8 -2.7 5.75 -2.8 5.6 -3.65 Q5.05 -4.65 4.0 -5.15" fill="#996699" fill-rule="evenodd" stroke="none"/>
      <path d="M3.75 -5.2 Q3.75 -5.55 4.2 -5.2 L5.55 -5.15 5.95 -4.9 Q6.4 -4.55 6.4 -3.85 L6.3 -3.2 7.15 -2.9 Q7.6 -2.7 7.6 -2.5 L7.4 -2.3 Q6.45 -3.1 5.9 -2.9 L5.85 -3.1 6.1 -3.85 Q6.1 -4.9 4.95 -4.85 3.75 -4.8 3.75 -5.2 M3.65 -4.4 Q4.25 -3.55 4.25 -3.05 4.25 -2.2 3.65 -1.7 3.1 -1.3 1.3 -0.55 L-1.35 0.55 -2.7 0.85 -4.4 0.95 -6.6 0.6 -7.5 -0.2 -7.5 -0.3 -6.5 0.35 -4.4 0.65 -1.35 0.15 1.15 -0.85 Q3.95 -1.75 3.95 -3.05 L3.45 -4.1 Q2.7 -4.7 2.7 -4.95 L3.0 -5.25 Q3.3 -5.35 3.5 -5.05 L3.5 -4.75 3.65 -4.4 M7.65 -1.5 L7.55 -2.1 8.0 -1.25 Q8.0 -0.75 6.85 0.15 8.55 0.1 8.55 0.75 8.55 1.25 7.75 1.75 L6.3 2.3 6.25 2.3 6.7 2.75 7.0 3.2 6.6 3.8 Q6.1 4.2 5.5 4.2 L4.95 3.95 Q6.6 3.45 6.6 3.2 6.6 2.65 5.8 2.5 6.0 2.15 7.15 1.65 8.15 1.2 8.15 0.75 L8.1 0.65 6.6 0.45 6.4 0.1 Q6.4 -0.2 7.05 -0.65 7.65 -1.1 7.65 -1.5 M0.25 5.4 L-2.4 4.65 -4.15 3.55 Q-4.45 3.2 -5.05 3.1 L-5.8 3.0 -6.95 2.65 -8.55 1.45 -8.45 1.3 -6.4 2.35 -5.3 2.7 -4.75 2.7 Q-4.4 2.65 -4.1 2.95 L-3.85 3.25 Q-3.4 3.75 -2.2 4.3 -0.85 4.9 0.15 4.9 L0.8 4.55 Q1.05 4.15 1.65 4.15 L3.3 4.3 4.05 4.15 Q4.25 4.0 4.3 4.0 L4.55 4.1 Q4.35 4.65 3.4 4.7 L2.0 4.65 Q1.3 4.5 1.0 4.95 0.7 5.4 0.25 5.4" fill="#000000" fill-rule="evenodd" stroke="none"/>
    </g>
    <g id="shape2">
      <path d="M-9.0 19.85 L-9.45 20.15 -9.0 19.85" fill="#ffffff" fill-rule="evenodd" stroke="none"/>
      <path d="M7.25 20.15 L7.25 20.2 7.2 20.15 7.25 20.15 M-9.1 19.8 L-9.05 19.75 -9.05 19.8 -9.1 19.8" fill="#cccccc" fill-rule="evenodd" stroke="none"/>
      <path d="M5.1 16.1 L4.45 15.6 4.15 15.35 3.65 14.9 3.25 14.7 3.15 14.7 3.05 14.65 2.4 14.75 1.75 14.9 0.75 15.05 0.55 15.0 0.45 14.85 0.5 14.65 Q0.55 14.55 0.7 14.55 L1.65 14.4 3.05 14.15 3.3 14.2 Q3.65 14.2 3.95 14.5 L4.0 14.55 4.75 15.2 4.8 15.25 6.55 16.55 6.6 16.6 7.45 17.25 7.95 17.55 8.5 17.9 Q9.7 18.75 9.65 19.5 L9.6 19.9 9.55 19.95 9.0 20.2 8.95 20.2 8.6 20.05 8.5 20.2 8.1 20.4 7.55 20.8 7.65 20.95 7.65 21.05 Q7.65 21.75 7.1 21.7 L4.0 18.8 4.2 20.4 3.9 22.4 Q3.95 23.7 5.6 26.4 L5.6 26.5 Q5.6 27.35 5.05 27.3 L4.6 27.2 4.55 27.35 4.5 27.4 4.05 27.7 3.8 27.65 Q3.7 28.25 3.2 28.2 L2.65 28.0 2.35 28.0 Q1.95 28.05 1.55 26.85 L1.5 26.85 1.15 25.45 0.4 23.8 -0.55 23.55 -1.5 25.65 Q-2.5 28.3 -2.75 28.25 L-3.3 28.0 -3.35 27.95 -3.55 27.95 Q-3.95 27.95 -4.05 27.7 L-4.25 27.7 Q-4.85 27.7 -4.9 27.3 L-5.05 27.3 -5.1 27.3 -5.55 26.9 -5.65 26.9 Q-6.35 26.9 -6.3 26.4 L-6.1 26.0 -6.1 25.85 -5.65 24.6 -4.9 23.5 Q-4.5 23.05 -4.45 22.6 L-4.5 21.45 -4.2 19.6 -4.35 19.7 -4.35 19.75 -5.55 21.05 Q-6.55 22.0 -6.85 21.95 -7.15 21.95 -7.25 21.75 L-7.35 21.45 -7.6 21.25 -7.2 21.0 -7.05 21.0 -6.9 21.1 -6.85 21.25 -6.85 21.35 -6.85 21.4 -6.85 21.45 -5.9 20.7 -4.75 19.4 -4.7 19.4 -4.0 18.8 -3.8 18.75 Q-3.75 18.75 -3.65 18.85 L-3.6 19.0 -3.6 19.2 -3.6 19.3 -4.0 21.5 -3.95 22.55 -3.95 22.6 Q-4.0 23.25 -4.55 23.85 L-5.2 24.8 -5.2 24.85 -5.6 25.85 -5.6 26.1 -5.6 26.2 -5.7 26.3 -5.8 26.4 -5.7 26.4 -5.3 26.25 -5.15 26.2 Q-5.05 26.2 -5.0 26.3 L-4.95 26.45 -4.95 26.5 -5.0 26.65 -5.1 26.75 -5.1 26.8 -4.7 26.7 -4.55 26.75 -4.45 26.8 -4.4 26.95 -4.4 27.2 -4.25 27.2 -4.15 27.25 -4.0 26.95 -3.85 26.85 -3.7 26.9 -3.6 27.05 -3.6 27.2 -3.65 27.45 -3.55 27.45 -3.4 27.2 -3.25 27.1 -3.05 27.2 -3.0 27.25 -2.95 27.35 -2.95 27.45 -2.9 27.7 -2.75 27.75 -1.95 25.5 Q-1.3 23.65 -0.8 23.15 L-0.75 23.1 -0.65 23.05 -0.55 23.05 0.7 23.4 0.8 23.5 1.6 25.25 2.0 26.7 2.35 27.5 2.4 27.5 2.55 27.2 Q2.6 27.1 2.7 27.1 L2.9 27.2 2.95 27.35 Q2.95 27.7 3.2 27.7 L3.35 27.15 3.45 27.0 Q3.5 26.9 3.6 26.9 L3.7 26.95 3.9 27.05 4.05 27.2 4.1 27.15 4.1 27.1 4.15 27.0 4.15 26.75 4.25 26.6 Q4.3 26.5 4.4 26.5 L4.6 26.6 5.05 26.8 5.1 26.6 Q3.4 23.7 3.4 22.3 L3.4 22.25 3.7 20.4 3.35 18.15 3.4 18.2 3.35 18.05 3.3 17.9 3.4 17.75 3.6 17.7 3.75 17.8 7.1 21.2 7.15 21.15 6.85 20.45 6.8 20.3 6.9 20.15 7.05 20.1 7.15 20.15 7.2 20.15 7.25 20.2 7.6 20.3 7.65 20.1 7.75 19.95 7.9 19.9 8.1 19.95 8.15 19.9 8.1 19.7 8.15 19.55 8.3 19.45 8.45 19.5 9.0 19.7 9.15 19.65 9.15 19.5 Q9.1 18.95 8.2 18.3 L7.95 18.15 7.7 18.0 7.7 17.95 6.9 17.45 6.75 17.35 6.25 16.95 5.1 16.1 M-0.75 14.85 L-0.75 14.9 -0.85 15.05 -1.0 15.1 -1.85 14.95 -1.95 14.95 -2.05 14.95 -2.2 14.9 Q-2.3 14.8 -2.5 14.8 L-2.65 14.8 Q-3.35 14.85 -4.45 15.85 L-4.5 15.95 -5.75 17.15 -7.4 18.2 -8.0 18.7 -8.05 18.7 -8.8 19.35 -8.8 19.4 -9.05 19.75 -9.1 19.8 Q-9.3 19.75 -9.3 19.35 L-8.35 18.35 -8.35 18.3 -7.65 17.8 -6.1 16.8 -4.9 15.65 -4.8 15.5 -4.8 15.45 Q-3.45 14.25 -2.65 14.3 L-2.5 14.3 Q-2.15 14.3 -1.95 14.45 L-1.8 14.45 -1.75 14.45 -0.95 14.6 Q-0.85 14.6 -0.8 14.7 L-0.75 14.85" fill="#000000" fill-rule="evenodd" stroke="none"/>
      <path d="M6.75 17.35 L5.6 16.65 5.1 16.1 6.25 16.95 6.75 17.35 M4.15 15.35 Q3.35 14.85 2.4 14.75 L3.05 14.65 3.15 14.7 3.25 14.7 3.65 14.9 4.15 15.35" fill="#666666" fill-rule="evenodd" stroke="none"/>
      <path d="M-2.05 14.95 L-2.35 15.0 -2.85 15.1 -3.0 15.2 -3.2 15.35 -7.7 18.9 -9.0 19.85 -9.05 19.8 -9.05 19.75 -8.8 19.4 -8.8 19.35 -8.05 18.7 -8.0 18.7 -7.4 18.2 -5.75 17.15 -4.5 15.95 -4.45 15.85 Q-3.35 14.85 -2.65 14.8 L-2.5 14.8 Q-2.3 14.8 -2.2 14.9 L-2.05 14.95 M-7.6 21.2 L-7.1 20.85 -5.4 19.35 -3.8 17.9 -3.15 17.0 -2.9 17.7 -2.85 17.8 -3.1 18.5 -3.45 19.55 -3.5 20.45 -3.15 22.05 Q-3.5 23.1 -4.2 24.1 -4.95 25.15 -4.55 25.85 -3.15 26.6 -2.7 25.15 -2.25 23.65 -1.45 22.85 L-2.0 21.8 -1.05 22.3 0.5 22.45 Q1.25 22.3 1.65 23.95 L2.0 25.15 2.3 26.05 Q2.4 26.45 2.85 26.35 L3.6 26.05 4.05 25.95 4.15 25.95 4.2 25.8 3.45 24.2 3.25 23.25 Q2.7 21.95 2.75 21.2 2.9 18.45 2.3 16.0 L3.3 16.7 5.55 18.6 6.55 19.5 7.25 20.15 7.2 20.15 7.15 20.15 7.05 20.1 6.9 20.15 6.8 20.3 6.85 20.45 7.15 21.15 7.1 21.2 3.75 17.8 3.6 17.7 3.4 17.75 3.3 17.9 3.35 18.05 3.4 18.2 3.35 18.15 3.7 20.4 3.4 22.25 3.4 22.3 Q3.4 23.7 5.1 26.6 L5.05 26.8 4.6 26.6 4.4 26.5 Q4.3 26.5 4.25 26.6 L4.15 26.75 4.15 27.0 4.1 27.1 4.1 27.15 4.05 27.2 3.9 27.05 3.7 26.95 3.6 26.9 Q3.5 26.9 3.45 27.0 L3.35 27.15 3.2 27.7 Q2.95 27.7 2.95 27.35 L2.9 27.2 2.7 27.1 Q2.6 27.1 2.55 27.2 L2.4 27.5 2.35 27.5 2.0 26.7 1.6 25.25 0.8 23.5 0.7 23.4 -0.55 23.05 -0.65 23.05 -0.75 23.1 -0.8 23.15 Q-1.3 23.65 -1.95 25.5 L-2.75 27.75 -2.9 27.7 -2.95 27.45 -2.95 27.35 -3.0 27.25 -3.05 27.2 -3.25 27.1 -3.4 27.2 -3.55 27.45 -3.65 27.45 -3.6 27.2 -3.6 27.05 -3.7 26.9 -3.85 26.85 -4.0 26.95 -4.15 27.25 -4.25 27.2 -4.4 27.2 -4.4 26.95 -4.45 26.8 -4.55 26.75 -4.7 26.7 -5.1 26.8 -5.1 26.75 -5.0 26.65 -4.95 26.5 -4.95 26.45 -5.0 26.3 Q-5.05 26.2 -5.15 26.2 L-5.3 26.25 -5.7 26.4 -5.8 26.4 -5.7 26.3 -5.6 26.2 -5.6 26.1 -5.6 25.85 -5.2 24.85 -5.2 24.8 -4.55 23.85 Q-4.0 23.25 -3.95 22.6 L-3.95 22.55 -4.0 21.5 -3.6 19.3 -3.6 19.2 -3.6 19.0 -3.65 18.85 Q-3.75 18.75 -3.8 18.75 L-4.0 18.8 -4.7 19.4 -4.75 19.4 -5.9 20.7 -6.85 21.45 -6.85 21.4 -6.85 21.35 -6.85 21.25 -6.9 21.1 -7.05 21.0 -7.2 21.0 -7.6 21.25 -7.9 21.45 -7.6 21.2" fill="#996699" fill-rule="evenodd" stroke="none"/>
      <path d="M5.1 16.1 L5.6 16.65 6.75 17.35 6.9 17.45 7.7 17.95 7.7 18.0 7.95 18.15 8.2 18.3 Q9.1 18.95 9.15 19.5 L9.15 19.65 9.0 19.7 8.45 19.5 8.3 19.45 8.15 19.55 8.1 19.7 8.15 19.9 8.1 19.95 7.9 19.9 7.75 19.95 7.65 20.1 7.6 20.3 7.25 20.2 7.25 20.15 6.55 19.5 5.55 18.6 3.3 16.7 2.3 16.0 Q2.9 18.45 2.75 21.2 2.7 21.95 3.25 23.25 L3.45 24.2 4.2 25.8 4.15 25.95 4.05 25.95 3.6 26.05 2.85 26.35 Q2.4 26.45 2.3 26.05 L2.0 25.15 1.65 23.95 Q1.25 22.3 0.5 22.45 L-1.05 22.3 -2.0 21.8 -1.45 22.85 Q-2.25 23.65 -2.7 25.15 -3.15 26.6 -4.55 25.85 -4.95 25.15 -4.2 24.1 -3.5 23.1 -3.15 22.05 L-3.5 20.45 -3.45 19.55 -3.1 18.5 -2.85 17.8 -2.9 17.7 -3.15 17.0 -3.8 17.9 -5.4 19.35 -7.1 20.85 -7.6 21.2 -7.65 20.95 -8.0 21.0 -8.25 20.95 -8.35 20.85 -8.45 20.45 -8.4 20.45 -8.35 20.25 -8.6 19.95 -8.65 19.95 -8.95 19.85 -9.0 19.85 -7.7 18.9 -3.2 15.35 -3.0 15.2 -2.85 15.1 -2.35 15.0 -2.05 14.95 -1.95 14.95 -1.85 14.95 -1.0 15.1 -0.85 15.05 -0.75 14.9 -0.75 14.85 -0.25 14.85 0.45 14.85 0.55 15.0 0.75 15.05 1.75 14.9 2.4 14.75 Q3.35 14.85 4.15 15.35 L4.45 15.6 5.1 16.1" fill="#cc99cc" fill-rule="evenodd" stroke="none"/>
    </g>
    <g id="shape3">
      <path d="M1.95 -2.2 Q2.75 -1.25 2.75 0.0 2.75 1.1 2.2 1.9 L1.95 2.2 Q1.15 3.1 0.0 3.1 -1.15 3.1 -1.95 2.2 L-2.15 1.9 Q-2.75 1.1 -2.75 0.0 -2.75 -1.25 -1.95 -2.2 -1.15 -3.1 0.0 -3.1 1.15 -3.1 1.95 -2.2" fill="#fe7878" fill-rule="evenodd" stroke="none"/>
      <path d="M1.7 -2.2 Q2.45 -1.45 2.45 -0.45 2.45 0.6 1.7 1.3 1.05 2.05 0.05 2.05 -0.95 2.05 -1.7 1.3 -2.35 0.6 -2.35 -0.45 -2.35 -1.45 -1.7 -2.2 -0.95 -2.9 0.05 -2.9 1.05 -2.9 1.7 -2.2" fill="#ffe6e6" fill-rule="evenodd" stroke="none"/>
    </g>
    <g id="shape4">
      <path d="M-1.3 -3.55 L-0.65 -3.65 Q0.5 -3.65 2.05 -2.8 L2.0 -2.8 2.75 -2.35 Q3.95 -1.45 3.95 -0.3 3.95 1.1 3.05 1.05 L3.0 1.05 3.05 1.55 Q3.05 3.1 1.75 3.1 L1.15 2.85 1.1 2.8 0.85 3.3 0.8 3.35 -0.45 3.65 Q-1.1 3.65 -1.85 3.1 -2.6 2.5 -2.6 2.0 L-3.0 2.0 Q-3.9 2.05 -3.9 0.8 -3.9 0.1 -3.55 -0.65 L-3.4 -1.15 -3.35 -1.2 -3.5 -1.4 -3.55 -1.55 -3.3 -2.2 -3.25 -2.2 -3.15 -2.3 -3.1 -2.35 -2.8 -1.95 -2.8 -1.55 -2.85 -1.2 -2.85 -1.15 -2.9 -1.05 -3.1 -0.45 -3.4 0.8 Q-3.4 1.45 -3.0 1.5 L-2.7 1.5 -2.45 1.15 -2.3 1.05 -2.15 1.1 Q-2.05 1.1 -2.0 1.2 L-2.0 1.35 -2.1 1.95 -1.55 2.7 -0.45 3.15 0.5 3.0 0.7 2.2 0.8 2.1 0.9 2.0 1.05 2.05 1.15 2.1 1.45 2.45 1.75 2.6 Q2.55 2.6 2.55 1.55 2.55 1.0 2.25 0.7 L2.15 0.5 2.15 0.45 2.25 0.3 Q2.3 0.2 2.4 0.2 L2.6 0.3 3.05 0.55 Q3.45 0.5 3.45 -0.3 3.45 -1.15 2.65 -1.8 L2.45 -1.95 0.9 -2.9 Q-0.35 -3.6 -1.15 -3.55 L-1.3 -3.55" fill="#000000" fill-rule="evenodd" stroke="none"/>
      <path d="M-2.7 -2.75 L-2.7 -2.8 -2.7 -2.75" fill="#333333" fill-rule="evenodd" stroke="none"/>
      <path d="M-1.3 -3.55 L-1.15 -3.55 Q-0.35 -3.6 0.9 -2.9 L2.45 -1.95 2.65 -1.8 2.55 -1.2 Q2.4 -0.2 1.65 -0.5 L1.6 -0.45 1.45 0.4 1.15 0.85 -0.5 1.0 -1.1 0.6 -1.35 -0.15 -1.5 -0.05 -2.45 0.05 -2.5 -0.1 Q-2.85 -1.15 -2.25 -2.1 L-2.85 -1.2 -2.8 -1.55 -2.8 -1.95 -3.1 -2.35 -2.95 -2.5 -2.7 -2.75 -2.5 -2.95 -2.0 -3.25 -1.3 -3.55" fill="#cc99cc" fill-rule="evenodd" stroke="none"/>
      <path d="M2.65 -1.8 Q3.45 -1.15 3.45 -0.3 3.45 0.5 3.05 0.55 L2.6 0.3 2.4 0.2 Q2.3 0.2 2.25 0.3 L2.15 0.45 2.15 0.5 2.25 0.7 Q2.55 1.0 2.55 1.55 2.55 2.6 1.75 2.6 L1.45 2.45 1.15 2.1 1.05 2.05 0.9 2.0 0.8 2.1 0.7 2.2 0.5 3.0 -0.45 3.15 -1.55 2.7 -2.1 1.95 -2.0 1.35 -2.0 1.2 Q-2.05 1.1 -2.15 1.1 L-2.3 1.05 -2.45 1.15 -2.7 1.5 -3.0 1.5 Q-3.4 1.45 -3.4 0.8 L-3.1 -0.45 -2.9 -1.05 -2.85 -1.15 -2.85 -1.2 -2.25 -2.1 Q-2.85 -1.15 -2.5 -0.1 L-2.45 0.05 -1.5 -0.05 -1.35 -0.15 -1.1 0.6 -0.5 1.0 1.15 0.85 1.45 0.4 1.6 -0.45 1.65 -0.5 Q2.4 -0.2 2.55 -1.2 L2.65 -1.8" fill="#996699" fill-rule="evenodd" stroke="none"/>
    </g>
    <g id="shape5">
      <path d="M-3.4 -0.75 L-3.35 -0.8 -3.4 -0.75 M-3.5 0.95 L-3.5 1.0 -3.5 0.95" fill="#cccccc" fill-rule="evenodd" stroke="none"/>
      <path d="M3.5 -1.5 L3.95 -1.25 4.25 -0.4 Q3.9 1.65 2.5 1.65 L1.55 1.45 0.45 1.25 -0.35 1.45 -1.2 1.6 -1.7 1.55 -1.75 1.45 -2.05 1.35 -2.35 1.3 Q-3.0 1.25 -3.0 0.75 L-2.7 0.4 -2.3 0.25 -2.35 0.35 -2.3 0.55 -2.25 0.55 -2.2 0.7 -2.15 0.7 -2.0 0.85 -1.2 1.05 -0.5 0.8 -0.4 0.75 -0.05 0.6 0.7 0.55 1.15 0.8 2.3 1.05 2.4 1.0 Q3.8 0.25 3.55 -1.4 L3.5 -1.5 M-2.85 0.05 Q-3.55 0.25 -3.5 0.95 L-3.5 1.0 -3.55 0.95 Q-4.25 0.7 -4.25 0.25 L-4.0 -0.35 Q-3.75 -0.65 -3.4 -0.75 -3.3 -0.2 -2.85 0.05" fill="#996699" fill-rule="evenodd" stroke="none"/>
      <path d="M-3.4 -0.75 L-3.35 -0.8 -3.1 -0.85 -1.9 -0.85 -0.85 -0.5 -0.4 -0.65 -0.75 -0.8 -0.1 -1.25 Q0.45 -1.75 1.35 -1.75 L3.5 -1.5 3.55 -1.4 Q3.8 0.25 2.4 1.0 L2.3 1.05 1.15 0.8 0.7 0.55 -0.05 0.6 -0.4 0.75 -0.5 0.8 -1.2 1.05 -2.0 0.85 -2.15 0.7 -2.2 0.7 -2.25 0.55 -2.3 0.55 -2.35 0.35 -2.3 0.25 -2.15 0.15 -2.2 0.0 -2.2 -0.05 -2.85 0.05 Q-3.3 -0.2 -3.4 -0.75" fill="#cc99cc" fill-rule="evenodd" stroke="none"/>
      <path d="M1.0 -2.15 L0.9 -1.65 -0.1 -1.25 -0.75 -0.8 -0.4 -0.65 -0.85 -0.5 -1.9 -0.85 -3.1 -0.85 Q-3.65 -0.8 -4.0 -0.35 L-4.25 0.25 Q-4.25 0.7 -3.55 0.95 L-3.5 1.0 -3.5 0.95 Q-3.3 -0.05 -2.4 -0.05 L-1.65 -0.05 -2.7 0.4 -3.0 0.75 Q-3.0 1.25 -2.35 1.3 L-2.05 1.35 -1.75 1.45 -1.7 1.55 -1.2 1.6 -0.35 1.45 0.45 1.25 1.55 1.45 2.5 1.65 Q3.9 1.65 4.25 -0.4 L4.05 -1.15 3.95 -1.8 4.0 -1.85 4.35 -1.55 Q4.8 -1.05 4.8 -0.3 L4.35 1.2 Q3.75 2.25 2.5 2.25 L1.4 2.05 0.45 1.85 -0.25 2.05 -1.2 2.2 -2.15 2.0 -2.25 2.0 Q-3.0 2.0 -3.3 1.6 -4.15 1.6 -4.55 1.0 L-4.8 0.25 -4.45 -0.65 Q-3.95 -1.25 -3.15 -1.25 L-1.7 -1.1 -1.4 -1.0 Q-0.7 -1.25 -0.3 -1.65 0.15 -2.0 1.0 -2.15" fill="#000000" fill-rule="evenodd" stroke="none"/>
    </g>
  </defs>
</svg>
