<?xml version="1.0" encoding="UTF-8" standalone="no"?>
<svg xmlns:ffdec="https://www.free-decompiler.com/flash" xmlns:xlink="http://www.w3.org/1999/xlink" ffdec:objectType="frame" height="21.95px" width="77.25px" xmlns="http://www.w3.org/2000/svg">
  <g transform="matrix(1.0, 0.0, 0.0, 1.0, 59.4, -9.4)">
    <use ffdec:characterId="26" height="0.15" transform="matrix(1.0, 0.0, 0.0, 1.0, 0.0, 0.0)" width="0.1" xlink:href="#shape0"/>
    <use ffdec:characterId="2" height="7.55" transform="matrix(1.0, 0.0, 0.0, 1.0, -3.6, 24.05)" width="6.1" xlink:href="#sprite0"/>
    <use ffdec:characterId="2" height="7.55" transform="matrix(-1.0, 0.0, 0.0, 1.0, 3.7, 24.05)" width="6.1" xlink:href="#sprite0"/>
    <use ffdec:characterId="4" height="10.15" transform="matrix(-1.0, 0.0, 0.0, 1.0, 11.35, 15.4)" width="13.15" xlink:href="#sprite1"/>
    <use ffdec:characterId="4" height="10.15" transform="matrix(1.0, 0.0, 0.0, 1.0, -10.9, 15.1)" width="13.15" xlink:href="#sprite1"/>
    <use ffdec:characterId="8" height="9.05" transform="matrix(1.0, 0.0, 0.0, 1.0, 0.35, 18.2)" width="8.75" xlink:href="#sprite2"/>
    <use ffdec:characterId="6" height="12.9" transform="matrix(1.0, 0.0, 0.0, 1.0, -8.15, 21.1)" width="11.15" xlink:href="#sprite3"/>
    <use ffdec:characterId="24" height="5.05" transform="matrix(1.0, 0.0, 0.0, 1.0, -5.85, 28.65)" width="8.35" xlink:href="#sprite4"/>
    <use ffdec:characterId="24" height="5.05" transform="matrix(-1.0, 0.0, 0.0, 1.0, 5.75, 28.8)" width="8.35" xlink:href="#sprite4"/>
    <use ffdec:characterId="10" height="2.7" transform="matrix(1.0, 0.0, 0.0, 1.0, -0.1, 20.85)" width="10.0" xlink:href="#sprite5"/>
    <use ffdec:characterId="12" height="3.45" transform="matrix(1.095, 0.4698, -0.4698, 1.095, -4.45, 19.6)" width="3.2" xlink:href="#sprite6"/>
    <use ffdec:characterId="12" height="3.45" transform="matrix(1.1915, 0.0, 0.0, 1.1915, -3.35, 16.2)" width="3.2" xlink:href="#sprite6"/>
    <use ffdec:characterId="6" height="12.9" transform="matrix(-1.0, 0.0, 0.0, 1.0, 7.9, 21.1)" width="11.15" xlink:href="#sprite3"/>
    <use ffdec:characterId="12" height="3.45" transform="matrix(-0.8512, 0.8337, -0.8337, -0.8512, 5.35, 19.25)" width="3.2" xlink:href="#sprite6"/>
    <use ffdec:characterId="12" height="3.45" transform="matrix(1.1915, 0.0, 0.0, 1.1915, 3.9, 16.15)" width="3.2" xlink:href="#sprite6"/>
    <use ffdec:characterId="16" height="13.95" transform="matrix(1.0, 0.0, 0.0, 1.0, -18.8, 14.2)" width="14.1" xlink:href="#sprite7"/>
  </g>
  <defs>
    <g id="shape0">
      <path d="M-59.4 29.35 L-59.4 29.25 -59.3 29.2 -59.4 29.35" fill="#000000" fill-rule="evenodd" stroke="none"/>
    </g>
    <g id="sprite0">
      <use ffdec:characterId="1" height="7.55" transform="matrix(1.0, 0.0, 0.0, 1.0, 0.0, 0.0)" width="6.1" xlink:href="#shape1"/>
    </g>
    <g id="shape1">
      <path d="M0.2 -3.35 L0.15 -2.95 -0.05 -2.75 -0.35 -2.35 -0.5 -2.35 -0.55 -2.45 Q-1.6 -1.75 -1.7 -0.6 L-1.7 -1.15 -1.6 -1.95 Q-0.6 -2.4 0.2 -3.35" fill="#a299a9" fill-rule="evenodd" stroke="none"/>
      <path d="M0.95 -4.1 L0.9 -4.0 0.9 -4.05 0.95 -4.1 M-1.9 -0.75 L-1.75 0.3 -1.85 -0.2 -1.9 -0.75 M0.2 -3.35 L0.35 -3.55 0.25 -3.05 0.15 -2.95 0.2 -3.35 M-0.5 -2.35 L-0.35 -2.35 -0.4 -2.3 -0.5 -2.2 -0.55 -2.2 -0.55 -2.25 -0.5 -2.35" fill="#645f6e" fill-rule="evenodd" stroke="none"/>
      <path d="M1.75 1.85 L1.05 2.4 0.95 2.4 0.9 2.35 1.05 2.05 1.3 1.9 1.5 1.85 1.75 1.85" fill="#000000" fill-rule="evenodd" stroke="none"/>
      <path d="M1.05 2.4 L1.05 2.45 0.95 2.45 0.95 2.55 0.75 2.85 Q0.5 2.85 0.35 2.7 L0.2 2.45 0.25 2.35 -0.4 2.3 -0.85 2.1 -0.95 2.05 Q-0.85 1.6 -0.5 1.45 L-0.05 1.55 -0.15 1.8 Q-0.15 2.35 0.45 2.35 0.95 2.35 0.95 2.05 L0.75 1.75 0.9 1.75 1.05 2.0 1.05 2.05 0.9 2.35 0.95 2.4 1.05 2.4" fill="#a20b0b" fill-rule="evenodd" stroke="none"/>
      <path d="M0.75 1.75 L0.95 2.05 Q0.95 2.35 0.45 2.35 -0.15 2.35 -0.15 1.8 L-0.05 1.55 0.4 1.55 0.75 1.75" fill="#ff0000" fill-rule="evenodd" stroke="none"/>
      <path d="M0.9 -4.05 L0.9 -4.0 2.4 -3.65 2.55 -2.05 2.4 -1.15 1.7 -0.35 Q1.15 0.2 0.35 -0.1 -0.45 -0.45 -0.65 -0.95 L-0.75 -1.7 -1.0 -1.1 Q-1.15 -0.9 -0.9 -0.45 -0.7 -0.05 -1.05 0.05 L-1.5 0.1 -1.65 -0.15 -1.7 -0.5 -1.7 -0.6 Q-1.6 -1.75 -0.55 -2.45 L-0.5 -2.35 -0.55 -2.25 -0.55 -2.2 -0.5 -2.2 -0.4 -2.3 -0.35 -2.35 -0.05 -2.75 0.15 -2.95 0.25 -3.05 0.35 -3.55 0.25 -3.85 Q0.25 -4.15 0.55 -4.15 L0.9 -4.05 M2.85 0.95 L2.4 1.25 1.5 1.05 2.15 0.85 Q2.85 0.3 3.05 -2.05 L3.0 0.6 2.85 0.95" fill="#9237ff" fill-rule="evenodd" stroke="none"/>
      <path d="M-0.9 1.1 L-0.7 1.1 0.35 1.25 0.95 0.65 1.6 1.25 2.4 1.6 2.85 0.95 3.0 0.6 Q3.7 -0.05 3.25 -1.55 L3.0 -2.25 3.7 -2.0 Q3.95 -0.5 3.4 0.5 L2.65 1.75 1.75 1.85 1.5 1.85 0.9 1.75 0.75 1.75 0.4 1.55 -0.05 1.55 -0.5 1.45 -0.9 1.1" fill="#180a6a" fill-rule="evenodd" stroke="none"/>
      <path d="M0.9 -4.0 L0.95 -4.1 2.2 -4.55 3.6 -4.35 3.7 -2.0 3.0 -2.25 3.25 -1.55 Q3.7 -0.05 3.0 0.6 L3.05 -2.05 Q2.85 0.3 2.15 0.85 L1.5 1.05 2.4 1.25 2.85 0.95 2.4 1.6 1.6 1.25 0.95 0.65 0.35 1.25 -0.7 1.1 -0.9 1.1 -1.7 0.35 -1.75 0.3 -1.9 -0.75 -1.7 -0.5 -1.65 -0.15 -1.5 0.1 -1.05 0.05 Q-0.7 -0.05 -0.9 -0.45 -1.15 -0.9 -1.0 -1.1 L-0.75 -1.7 -0.65 -0.95 Q-0.45 -0.45 0.35 -0.1 1.15 0.2 1.7 -0.35 L2.4 -1.15 2.55 -2.05 2.4 -3.65 0.9 -4.0" fill="#4613ab" fill-rule="evenodd" stroke="none"/>
      <path d="M0.9 -4.35 L0.6 -3.55 Q0.25 -2.75 -0.6 -2.15 -1.5 -1.6 -1.6 -1.05 L-1.65 -0.4 -1.55 0.25 Q-1.25 1.25 -0.3 1.2 L0.95 1.2 0.6 1.5 1.05 1.65 1.5 1.75 1.5 1.8 1.7 1.85 Q2.75 1.85 3.0 1.15 L3.1 0.75 2.9 0.5 2.95 0.15 3.35 -0.4 3.9 -0.35 3.6 0.15 3.5 0.45 3.5 0.6 Q3.5 2.25 2.2 2.25 L1.5 2.15 1.2 2.95 1.05 3.0 0.75 2.9 0.9 2.7 Q1.05 2.1 1.15 2.05 L0.25 1.6 0.0 1.6 -0.6 1.45 -1.05 2.05 Q-0.65 2.2 -0.1 2.65 L-1.35 2.2 -0.9 1.35 -1.0 1.35 Q-1.85 1.0 -1.95 0.45 L-2.15 -0.15 -2.15 -0.55 -1.95 -1.2 -0.6 -2.85 Q0.1 -3.6 0.05 -4.4 L0.9 -4.35" fill="#000000" fill-rule="evenodd" stroke="none"/>
    </g>
    <g id="sprite1">
      <use ffdec:characterId="3" height="10.15" transform="matrix(1.0, 0.0, 0.0, 1.0, 0.0, 0.0)" width="13.15" xlink:href="#shape2"/>
    </g>
    <g id="shape2">
      <path d="M5.3 -1.25 L6.1 0.05 5.95 0.75 5.8 0.55 5.85 0.2 5.5 -0.7 5.5 -0.85 5.35 -0.8 5.1 -0.9 5.3 -1.25 M-6.0 -0.25 L-5.95 -0.55 -5.4 -0.95 -5.15 -0.85 -5.25 -0.85 -5.8 -0.55 -6.0 -0.25 M-2.65 -3.05 L-2.65 -3.15 -2.6 -3.1 -2.65 -3.05 M-5.2 -4.75 L-5.1 -4.55 -5.25 -4.7 -5.2 -4.75" fill="#758767" fill-rule="evenodd" stroke="none"/>
      <path d="M3.65 -1.85 L4.1 -1.5 3.65 -1.55 3.5 -1.75 3.65 -1.85 M-4.3 -4.0 L-4.6 -4.4 -3.95 -3.65 -4.3 -4.0" fill="#c8c8c8" fill-rule="evenodd" stroke="none"/>
      <path d="M0.45 3.45 L0.1 3.5 -1.0 3.5 -2.15 3.25 -2.4 3.05 -2.55 2.9 -3.15 2.2 -3.4 1.9 -3.35 1.9 -3.1 2.1 -1.65 2.55 -0.7 2.55 0.1 2.4 0.35 2.4 0.6 2.35 0.95 2.55 1.05 2.75 0.75 3.2 0.45 3.45 M-6.05 0.15 L-6.0 -0.25 -5.8 -0.55 -5.25 -0.85 -5.15 -0.85 -4.75 -0.65 -4.55 -0.45 Q-3.9 0.05 -3.8 1.6 -3.8 1.95 -4.2 1.95 -5.05 1.95 -5.6 1.3 L-6.05 0.15" fill="#efffef" fill-rule="evenodd" stroke="none"/>
      <path d="M-2.6 -3.1 L-2.45 -3.15 -2.4 -3.1 -1.95 -3.2 Q-0.95 -3.2 -0.2 -2.5 L-0.4 -2.9 -0.05 -2.55 0.2 -2.65 -0.35 -3.2 0.7 -2.8 1.1 -2.6 Q3.25 -2.25 3.65 -1.85 L3.5 -1.75 3.65 -1.55 4.1 -1.5 5.3 -1.25 5.1 -0.9 5.35 -0.8 5.5 -0.85 5.5 -0.7 5.85 0.2 5.8 0.55 5.95 0.75 5.85 1.0 5.6 1.0 5.5 1.05 5.55 0.85 Q5.55 0.1 4.85 0.1 4.25 0.1 4.05 0.5 L3.85 0.8 3.9 0.6 3.9 0.45 3.95 0.05 Q3.55 0.35 3.15 0.45 L3.25 0.8 3.3 0.85 3.7 1.3 3.65 1.5 3.95 1.65 4.1 1.6 3.35 2.05 2.8 2.0 2.85 2.05 3.15 2.2 3.55 2.3 3.6 2.3 3.5 2.35 3.15 2.75 3.2 2.8 3.6 2.8 4.0 2.65 Q3.55 3.0 2.75 3.0 1.45 3.0 1.6 2.45 L1.7 2.1 1.4 1.85 1.35 1.85 1.2 1.8 1.05 1.85 -0.15 2.2 Q-1.45 2.2 -2.2 1.65 L-1.25 1.95 -1.2 1.95 -1.1 1.95 -0.25 1.75 0.05 1.2 0.0 1.15 -0.45 1.5 -0.55 1.6 -0.55 1.55 -1.3 1.3 -1.45 1.5 Q-3.15 1.1 -3.65 -0.55 L-3.7 -0.25 -4.2 -1.3 -3.25 -0.75 -1.8 -0.2 -1.45 -0.15 Q0.1 0.3 0.45 1.15 0.6 0.6 0.95 0.5 L1.65 0.45 2.3 0.55 Q1.7 -0.15 1.15 -0.15 L0.5 0.05 0.45 0.0 Q1.4 -0.95 2.4 -0.3 L3.1 0.45 3.55 0.15 4.05 -0.5 3.9 -0.85 3.85 -0.85 Q3.75 -0.15 3.1 0.15 L3.2 0.05 Q3.6 -0.35 3.6 -0.65 3.05 -1.85 1.95 -1.85 L0.9 -1.6 1.05 -1.3 0.95 -1.2 0.55 -1.75 -0.05 -2.25 -0.05 -2.15 0.05 -2.05 0.4 -1.35 0.25 -0.7 Q-0.8 -0.75 -1.05 -0.95 L-1.8 -1.7 -2.4 -2.6 -2.45 -2.5 -1.7 -1.2 Q-2.25 -1.15 -2.55 -1.7 L-2.8 -2.5 -2.8 -2.6 -2.8 -2.65 -2.8 -2.75 -2.85 -2.75 -2.9 -2.75 -2.95 -1.85 -3.2 -1.85 -3.45 -2.1 -3.65 -2.05 -4.0 -2.15 -4.15 -2.15 -4.65 -2.5 -5.05 -2.5 -5.4 -3.05 -5.45 -3.55 -5.45 -3.75 -5.55 -4.3 -5.55 -4.4 -5.45 -4.8 -5.45 -4.95 -5.2 -4.75 -4.3 -4.0 -3.95 -3.65 -3.4 -3.2 -3.0 -3.1 -2.75 -2.9 -2.65 -3.05 -2.6 -3.1 M-5.2 -4.75 L-5.25 -4.7 -5.1 -4.55 -5.2 -4.75 M1.05 1.25 L1.0 1.25 1.05 1.25" fill="#bfdcbb" fill-rule="evenodd" stroke="none"/>
      <path d="M-1.0 3.5 L-1.55 3.65 -2.6 3.65 -2.8 3.05 -2.4 3.05 -2.15 3.25 -1.0 3.5 M1.05 1.25 L1.0 1.25 1.05 1.25" fill="#00444b" fill-rule="evenodd" stroke="none"/>
      <path d="M5.85 1.0 L5.35 1.5 5.15 1.75 5.2 2.0 4.35 2.7 2.0 3.2 1.45 3.15 0.85 3.45 0.45 3.45 0.75 3.2 1.05 2.75 0.95 2.55 0.6 2.35 0.35 2.4 0.1 2.4 -0.7 2.55 -1.65 2.55 -3.1 2.1 -3.35 1.9 -3.4 1.9 -3.15 2.2 -2.55 2.9 -2.4 3.05 -2.7 2.9 -2.9 2.95 Q-3.35 2.2 -4.2 2.2 L-4.6 2.3 -5.55 1.8 -6.15 0.8 -6.05 0.15 -5.6 1.3 Q-5.05 1.95 -4.2 1.95 -3.8 1.95 -3.8 1.6 -3.9 0.05 -4.55 -0.45 L-4.75 -0.65 -4.45 -0.5 -4.25 -0.95 -4.65 -1.9 -5.15 -2.55 Q-5.7 -3.4 -5.7 -3.8 L-5.55 -4.3 -5.45 -3.75 -5.45 -3.55 -5.4 -3.05 -5.05 -2.5 -4.65 -2.5 -4.15 -2.15 -4.0 -2.15 -3.65 -2.05 -3.45 -2.1 -3.2 -1.85 -2.95 -1.85 -2.9 -2.75 -2.85 -2.75 -2.8 -2.65 -2.8 -2.6 -2.8 -2.5 -2.55 -1.7 Q-2.25 -1.15 -1.7 -1.2 L-2.45 -2.5 -2.4 -2.6 -1.8 -1.7 -1.05 -0.95 Q-0.8 -0.75 0.25 -0.7 L0.4 -1.35 0.05 -2.05 -0.05 -2.15 -0.05 -2.25 0.55 -1.75 0.95 -1.2 1.05 -1.3 0.9 -1.6 1.95 -1.85 Q3.05 -1.85 3.6 -0.65 3.6 -0.35 3.2 0.05 L3.1 0.15 Q3.75 -0.15 3.85 -0.85 L3.9 -0.85 4.05 -0.5 3.55 0.15 3.1 0.45 2.4 -0.3 Q1.4 -0.95 0.45 0.0 L0.5 0.05 1.15 -0.15 Q1.7 -0.15 2.3 0.55 L1.65 0.45 0.95 0.5 Q0.6 0.6 0.45 1.15 0.1 0.3 -1.45 -0.15 L-1.8 -0.2 -2.7 -0.95 -3.25 -0.75 -4.2 -1.3 -3.7 -0.25 -3.65 -0.55 Q-3.15 1.1 -1.45 1.5 L-1.3 1.3 -0.55 1.55 -0.55 1.6 -0.45 1.5 0.0 1.15 0.05 1.2 -0.25 1.75 -1.1 1.95 -1.2 1.95 -1.25 1.95 -2.2 1.65 Q-1.45 2.2 -0.15 2.2 L1.05 1.85 1.2 1.8 1.35 1.85 1.4 1.85 1.7 2.1 1.6 2.45 Q1.45 3.0 2.75 3.0 3.55 3.0 4.0 2.65 L3.6 2.8 3.2 2.8 3.15 2.75 3.5 2.35 3.6 2.3 3.55 2.3 3.15 2.2 2.85 2.05 2.8 2.0 3.35 2.05 4.1 1.6 3.95 1.65 3.65 1.5 3.7 1.3 3.3 0.85 3.25 0.8 3.15 0.45 Q3.55 0.35 3.95 0.05 L3.9 0.45 3.9 0.6 3.85 0.8 4.05 0.5 Q4.25 0.1 4.85 0.1 5.55 0.1 5.55 0.85 L5.5 1.05 5.6 1.0 5.85 1.0 M-2.75 1.6 L-2.6 1.75 -2.55 1.7 -2.75 1.6" fill="#2c7987" fill-rule="evenodd" stroke="none"/>
      <path d="M0.7 3.15 Q2.0 2.65 2.3 3.75 L1.85 3.4 -0.1 4.0 -2.0 4.45 Q-2.65 4.35 -2.8 3.85 L-3.3 2.45 -4.85 2.5 Q-5.85 2.15 -6.2 1.05 L-6.5 -0.65 Q-6.45 -1.2 -5.75 -1.45 -5.2 -1.75 -4.55 -0.5 L-4.1 -0.45 Q-5.05 0.05 -5.4 -0.45 -5.7 -1.05 -6.0 -0.45 -6.3 0.05 -5.95 0.75 -5.55 1.6 -4.4 2.05 L-3.45 2.4 -3.4 2.4 -3.35 2.4 -3.65 1.85 Q-3.0 3.1 -1.85 3.4 L0.7 3.15 M1.7 -2.65 Q4.15 -2.85 5.85 -1.3 7.1 0.2 6.35 1.15 5.5 1.5 5.45 2.45 L5.4 3.05 5.0 3.05 5.2 2.85 5.05 2.75 Q4.25 2.4 4.4 1.8 4.75 0.5 5.45 1.2 6.4 0.35 5.65 -0.7 L4.7 -1.2 3.9 -1.05 Q3.35 -2.4 2.15 -2.1 0.9 -1.85 0.25 -2.6 L-0.1 -2.9 Q0.75 -2.5 1.7 -2.65 M-4.1 -0.45 L-5.0 -1.75 Q-5.6 -2.1 -5.9 -2.95 -6.15 -3.8 -5.9 -5.0 -5.7 -6.25 -5.0 -5.2 -4.35 -4.15 -3.35 -3.25 L-3.45 -3.25 Q-4.25 -3.6 -4.55 -4.05 L-5.05 -4.7 -5.3 -4.8 -5.45 -4.55 Q-5.75 -3.8 -5.05 -2.85 L-4.3 -1.8 -4.8 -1.7 Q-3.75 -1.15 -3.55 -0.35 -3.45 0.65 -2.85 1.2 -2.15 1.75 -0.95 2.1 0.3 2.6 -1.55 2.45 -3.4 2.4 -4.8 0.1 L-3.95 0.65 Q-3.95 0.05 -4.1 -0.45 M-2.65 -2.8 Q-2.9 -2.55 -2.6 -1.8 L-2.05 -0.85 -1.3 -0.45 -0.45 -0.1 -1.05 0.05 Q-1.8 0.15 -2.65 -0.7 L-3.95 -1.45 -2.8 -1.3 Q-3.7 -2.05 -3.45 -2.8 -3.25 -3.6 -1.35 -3.0 L-2.65 -2.8" fill="#000000" fill-rule="evenodd" stroke="none"/>
    </g>
    <g id="sprite2">
      <use ffdec:characterId="7" height="9.05" transform="matrix(1.0, 0.0, 0.0, 1.0, 0.0, 0.0)" width="8.75" xlink:href="#shape3"/>
    </g>
    <g id="shape3">
      <path d="M-2.1 -3.15 L-1.8 -2.9 -1.1 -2.15 -0.7 -1.1 -0.6 -0.85 -0.45 -0.55 -0.25 -0.4 Q0.3 -0.4 0.65 -1.95 L1.65 -3.35 Q2.05 -3.7 2.4 -3.7 3.05 -3.7 3.55 -3.2 L3.8 -2.5 3.95 -2.2 4.1 -1.55 3.7 0.15 3.7 0.2 3.5 1.5 3.5 1.8 3.6 2.0 3.3 2.3 3.1 2.85 Q2.6 2.05 2.2 2.1 2.3 3.15 2.85 3.25 2.4 3.8 0.95 3.7 -0.15 6.8 -1.4 4.0 -4.05 3.55 -4.05 1.25 L-4.0 1.05 -4.05 0.05 -4.0 -0.85 -4.0 -0.9 -4.1 -1.9 -4.05 -2.3 -4.1 -2.45 -3.95 -2.8 Q-3.75 -3.4 -3.1 -3.5 L-3.35 -3.1 Q-1.8 0.0 -1.3 0.35 -0.85 0.7 -0.85 -0.7 L-1.1 -1.6 -1.8 -2.4 -1.9 -2.8 -2.1 -3.15 M1.7 -0.05 L1.8 -0.55 2.3 -1.35 2.9 -3.0 Q2.9 -3.55 2.15 -3.65 L1.75 -2.85 1.45 -2.05 0.7 -1.05 0.5 -0.25 Q0.5 0.15 1.1 0.15 1.65 0.15 1.7 -0.05 M1.6 1.65 L1.05 1.0 0.1 0.35 Q-1.1 0.3 -2.7 1.95 -0.1 0.1 0.3 1.05 L1.6 1.65" fill="#4613ab" fill-rule="evenodd" stroke="none"/>
      <path d="M-3.1 -3.5 L-2.8 -3.5 -2.25 -3.3 -2.1 -3.15 -1.9 -2.8 -1.8 -2.4 -1.1 -1.6 -0.85 -0.7 Q-0.85 0.7 -1.3 0.35 -1.8 0.0 -3.35 -3.1 L-3.1 -3.5 M1.7 -0.05 Q1.65 0.15 1.1 0.15 0.5 0.15 0.5 -0.25 L0.7 -1.05 1.45 -2.05 1.75 -2.85 2.15 -3.65 Q2.9 -3.55 2.9 -3.0 L2.3 -1.35 1.8 -0.55 1.7 -0.05" fill="#ffffff" fill-rule="evenodd" stroke="none"/>
      <path d="M3.1 2.85 L3.2 3.05 2.95 3.25 2.85 3.25 Q2.3 3.15 2.2 2.1 2.6 2.05 3.1 2.85 M1.6 1.65 L0.3 1.05 Q-0.1 0.1 -2.7 1.95 -1.1 0.3 0.1 0.35 L1.05 1.0 1.6 1.65" fill="#9237ff" fill-rule="evenodd" stroke="none"/>
      <path d="M3.6 -3.1 L2.75 -1.8 1.7 -0.2 1.6 0.3 2.0 -0.2 2.25 -0.75 3.3 -1.7 2.85 -0.85 2.6 -0.4 2.5 -0.2 Q1.95 1.15 2.95 1.95 L3.3 2.2 3.5 1.9 3.65 -0.2 Q3.65 -1.55 3.9 -1.7 L4.05 -0.85 4.1 -0.2 Q4.65 0.8 4.15 2.25 L3.95 2.7 Q3.95 3.4 3.3 3.65 L1.65 1.15 Q1.1 0.3 -0.15 -0.25 L-2.8 1.95 -2.8 2.15 -2.9 2.6 -3.75 3.35 -3.85 3.4 -3.65 3.25 Q-4.9 2.55 -3.85 -0.2 L-3.85 -0.45 -3.95 -0.8 -3.75 -0.8 -3.7 -0.2 Q-3.95 0.7 -3.55 1.55 L-3.45 2.45 -2.55 1.15 -2.6 0.35 Q-2.6 0.05 -2.75 -0.2 L-3.05 -0.75 -3.75 -1.7 -2.65 -0.5 -2.5 -0.2 -2.15 1.0 -2.15 1.05 -1.4 0.65 -1.75 -0.2 -1.85 -0.45 -2.45 -1.1 -2.45 -1.4 Q-2.5 -1.6 -2.8 -1.65 L-3.55 -2.2 -3.9 -2.85 Q-3.9 -3.85 -3.1 -2.95 L-2.3 -1.7 -2.4 -1.55 -1.7 -0.2 -1.3 0.5 -0.65 -0.2 -0.55 -0.35 -1.05 -1.35 -1.9 -2.5 -2.5 -3.25 Q-2.5 -3.75 -2.0 -3.5 L-1.35 -2.9 -1.0 -2.35 -0.85 -1.8 -0.35 -0.45 0.0 -0.5 0.75 -2.0 1.5 -3.15 1.9 -3.6 2.2 -3.2 1.25 -1.75 0.55 -0.45 0.55 -0.35 0.7 -0.3 0.8 -0.2 1.2 -0.15 1.35 -0.2 1.4 -0.35 2.3 -1.8 Q2.65 -2.3 2.65 -3.05 2.65 -3.5 3.2 -3.5 3.6 -3.5 3.6 -3.1" fill="#000000" fill-rule="evenodd" stroke="none"/>
    </g>
    <g id="sprite3">
      <use ffdec:characterId="5" height="12.9" transform="matrix(1.0, 0.0, 0.0, 1.0, 0.0, 0.0)" width="11.15" xlink:href="#shape4"/>
    </g>
    <g id="shape4">
      <path d="M-0.75 6.25 L-0.2 5.8 0.5 5.5 -0.15 6.25 -0.6 6.4 -0.75 6.25" fill="#645f6e" fill-rule="evenodd" stroke="none"/>
      <path d="M-4.95 2.05 L-4.05 0.3 -3.4 0.35 Q-3.95 0.45 -4.35 2.25 -4.5 2.9 -4.15 3.55 L-4.95 2.1 -4.95 2.05" fill="#8e8e8e" fill-rule="evenodd" stroke="none"/>
      <path d="M5.65 -5.85 L4.2 -4.8 4.25 -4.05 3.1 -2.9 Q2.35 -1.65 1.7 2.05 1.25 -0.35 0.4 0.3 L0.25 0.15 0.15 -0.05 0.1 0.25 Q-3.6 -2.35 -0.7 -2.05 0.45 -2.1 0.85 -1.05 L2.5 -3.5 Q1.4 -2.0 0.1 -2.55 L0.75 -3.35 1.05 -3.9 1.0 -4.0 1.0 -4.05 1.05 -4.25 0.95 -4.25 1.05 -4.35 1.3 -4.55 Q4.15 -6.85 5.65 -6.2 L5.05 -6.0 5.65 -6.05 5.65 -5.85 M-3.35 -0.75 L-1.45 -0.65 -0.5 0.15 Q0.3 1.75 0.1 3.0 0.05 0.2 -3.35 -0.75" fill="#9237ff" fill-rule="evenodd" stroke="none"/>
      <path d="M0.4 0.3 Q1.25 -0.35 1.7 2.05 2.35 -1.65 3.1 -2.9 L4.25 -4.05 4.2 -4.8 5.65 -5.85 Q5.4 -3.4 4.05 -1.25 L3.7 -0.65 3.15 0.4 3.05 0.4 Q2.9 0.2 3.0 -2.1 L2.35 1.7 1.95 3.2 2.55 2.75 2.1 3.7 1.1 5.45 1.7 3.95 0.4 0.3 M1.0 -4.0 L1.05 -3.9 0.75 -3.35 0.1 -2.55 Q1.4 -2.0 2.5 -3.5 L0.85 -1.05 Q0.45 -2.1 -0.7 -2.05 -3.6 -2.35 0.1 0.25 L0.6 1.25 Q1.1 2.85 0.7 4.6 L0.85 5.8 Q0.45 6.2 -0.15 6.25 L0.5 5.5 -0.2 5.8 -0.75 6.25 Q-0.35 5.35 -0.4 3.1 -0.45 0.8 -2.9 0.15 L-3.4 0.35 -4.05 0.3 -4.95 2.05 Q-5.4 0.5 -4.9 -0.35 -4.4 -1.25 -2.85 -1.85 L0.75 -3.75 1.0 -4.0 M-3.35 -0.75 Q0.05 0.2 0.1 3.0 0.3 1.75 -0.5 0.15 L-1.45 -0.65 -3.35 -0.75 M-3.55 -1.25 Q-3.5 -0.9 -1.8 -0.95 L-2.8 -1.8 -3.45 -1.4 -3.55 -1.25" fill="#4613ab" fill-rule="evenodd" stroke="none"/>
      <path d="M0.1 0.25 L0.15 -0.05 0.25 0.15 0.4 0.3 1.7 3.95 1.1 5.45 0.9 5.95 0.85 5.8 0.7 4.6 Q1.1 2.85 0.6 1.25 L0.1 0.25 M2.55 2.75 L1.95 3.2 2.35 1.7 3.0 -2.1 Q2.9 0.2 3.05 0.4 L3.15 0.4 3.7 -0.65 3.45 0.05 Q2.95 1.25 2.55 2.75 M-3.55 -1.25 L-3.45 -1.4 -2.8 -1.8 -1.8 -0.95 Q-3.5 -0.9 -3.55 -1.25" fill="#180a6a" fill-rule="evenodd" stroke="none"/>
      <path d="M2.75 -5.25 Q2.0 -5.1 0.85 -3.75 -0.05 -2.7 -1.2 -2.1 -3.15 -2.2 -3.3 -1.0 -4.65 -0.75 -4.85 -0.2 -5.25 0.7 -4.7 3.05 -5.55 0.55 -5.25 -0.35 -4.2 -2.0 -2.15 -2.5 L-1.2 -2.7 1.55 -5.0 Q3.8 -7.25 5.8 -6.15 3.8 -6.3 3.65 -5.85 3.5 -5.4 2.75 -5.25 M5.25 -3.55 L4.65 -1.55 3.55 0.75 2.95 2.25 2.35 3.4 1.95 4.6 Q1.25 6.25 0.05 6.25 L-0.3 6.05 -0.55 6.25 -0.3 6.0 -0.3 5.95 0.4 5.8 Q1.05 5.6 1.55 3.7 L2.2 1.55 2.3 1.55 2.4 2.35 3.3 -0.05 Q3.85 -2.8 5.25 -3.55 M-2.45 -0.35 L-2.3 -0.25 -1.3 0.95 -1.5 0.7 -0.25 2.15 Q0.05 4.0 -0.4 5.1 -0.9 6.15 -2.05 5.35 -3.25 4.5 -2.15 5.2 0.2 4.45 -0.45 2.8 L-1.25 1.05 Q-2.9 -0.45 -3.95 0.9 -4.75 0.4 -3.85 -0.35 L-2.45 -0.35" fill="#000000" fill-rule="evenodd" stroke="none"/>
    </g>
    <g id="sprite4">
      <use ffdec:characterId="23" height="5.05" transform="matrix(1.0, 0.0, 0.0, 1.0, 0.0, 0.0)" width="8.35" xlink:href="#shape5"/>
    </g>
    <g id="shape5">
      <path d="M-0.55 -0.15 L-0.55 -0.1 -0.55 -0.15" fill="#dbdbdb" fill-rule="evenodd" stroke="none"/>
      <path d="M2.15 2.15 L1.9 2.35 -1.25 2.35 -1.55 2.1 -2.85 2.3 Q-3.55 2.3 -3.7 1.2 L-3.55 0.8 -3.2 1.5 1.8 1.5 1.85 1.75 -2.55 1.65 Q-4.15 1.85 -1.55 2.1 L-1.5 2.1 0.8 2.25 2.15 2.1 2.15 2.15 M-3.35 0.65 L-2.95 0.75 -2.7 0.95 -2.55 1.1 -3.35 0.65" fill="#a36f1b" fill-rule="evenodd" stroke="none"/>
      <path d="M3.35 -0.6 L3.6 -0.75 3.9 -0.6 4.2 0.1 4.1 0.25 4.1 0.15 3.9 0.15 3.1 0.85 2.45 1.65 4.0 0.4 3.8 0.7 2.15 2.15 2.15 2.1 2.05 1.7 1.8 1.5 -3.2 1.5 -3.55 0.8 -3.35 0.65 -2.55 1.1 -0.7 1.05 2.8 0.6 3.1 0.3 3.35 -0.6" fill="#543300" fill-rule="evenodd" stroke="none"/>
      <path d="M2.55 -1.6 L2.85 -1.65 2.95 -1.55 2.65 -1.6 2.55 -1.6 M-1.5 -1.95 L-1.3 -1.8 Q-1.85 -2.1 -1.85 -1.5 L-1.35 -0.9 -0.8 -0.35 -0.7 -0.9 -0.95 -1.55 Q-0.5 -1.1 -0.5 -0.65 L-0.5 -0.45 0.4 -0.95 0.15 -0.75 0.25 -0.6 1.8 -0.9 3.35 -1.3 3.7 -1.0 3.6 -0.75 3.35 -0.6 2.2 -0.4 1.75 -0.45 1.45 -0.4 1.35 -0.45 -0.25 0.25 -0.6 0.15 -0.85 0.35 -1.4 0.1 -1.75 -0.75 -1.85 -1.4 -1.95 -1.65 -1.95 -1.75 Q-1.9 -2.15 -1.5 -1.95 M-0.55 -0.15 L-0.55 -0.1 -0.55 -0.15" fill="#404040" fill-rule="evenodd" stroke="none"/>
      <path d="M1.45 -0.4 L1.75 -0.45 2.2 -0.4 2.6 -0.05 Q2.6 0.1 2.05 0.25 L1.2 0.4 0.65 0.15 Q0.9 -0.3 1.45 -0.4 M0.25 -1.5 L-0.2 -1.2 Q-0.7 -1.2 -0.7 -1.55 -0.7 -1.95 -0.05 -1.95 L0.5 -1.9 0.25 -1.5 M-1.75 -0.75 L-1.4 0.1 -1.4 0.15 Q-1.4 0.65 -1.9 0.65 -2.55 0.65 -3.0 0.2 L-3.35 -0.35 Q-3.1 -1.1 -2.4 -1.1 -2.05 -1.1 -1.75 -0.75" fill="#ff0000" fill-rule="evenodd" stroke="none"/>
      <path d="M0.4 -0.95 L1.2 -1.3 2.55 -1.6 2.65 -1.6 2.95 -1.55 3.1 -1.55 3.5 -1.55 3.55 -1.4 3.35 -1.3 1.8 -0.9 0.25 -0.6 0.15 -0.75 0.4 -0.95 M-1.3 -1.8 L-1.25 -1.8 -0.95 -1.55 -0.7 -0.9 -0.8 -0.35 -1.35 -0.9 -1.85 -1.5 Q-1.85 -2.1 -1.3 -1.8" fill="#ffffff" fill-rule="evenodd" stroke="none"/>
      <path d="M2.55 -1.6 L1.2 -1.3 0.4 -0.95 -0.5 -0.45 -0.5 -0.65 Q-0.5 -1.1 -0.95 -1.55 L-1.25 -1.8 -1.3 -1.8 -1.5 -1.95 1.2 -2.45 Q2.75 -2.7 2.9 -2.1 L3.1 -1.55 2.95 -1.55 2.85 -1.65 2.55 -1.6 M-1.4 0.1 L-0.85 0.35 -0.6 0.15 -0.25 0.25 1.35 -0.45 1.45 -0.4 Q0.9 -0.3 0.65 0.15 L1.2 0.4 2.05 0.25 Q2.6 0.1 2.6 -0.05 L2.2 -0.4 3.35 -0.6 3.1 0.3 2.8 0.6 -0.7 1.05 -2.7 0.95 -2.95 0.75 -3.35 0.65 -3.65 -0.45 -1.95 -1.75 -1.95 -1.65 -1.85 -1.4 -1.75 -0.75 Q-2.05 -1.1 -2.4 -1.1 -3.1 -1.1 -3.35 -0.35 L-3.0 0.2 Q-2.55 0.65 -1.9 0.65 -1.4 0.65 -1.4 0.15 L-1.4 0.1 M0.25 -1.5 L0.5 -1.9 -0.05 -1.95 Q-0.7 -1.95 -0.7 -1.55 -0.7 -1.2 -0.2 -1.2 L0.25 -1.5" fill="#a20b0b" fill-rule="evenodd" stroke="none"/>
      <path d="M4.1 0.25 L4.1 0.3 4.0 0.4 2.45 1.65 3.1 0.85 3.9 0.15 4.1 0.15 4.1 0.25 M2.15 2.1 L0.8 2.25 -1.5 2.1 -1.55 2.1 Q-4.15 1.85 -2.55 1.65 L1.85 1.75 1.8 1.5 2.05 1.7 2.15 2.1" fill="#e1a649" fill-rule="evenodd" stroke="none"/>
      <path d="M1.05 -2.5 L0.8 -2.15 -0.05 -2.3 -1.05 -2.1 -1.1 -2.0 -0.7 -1.45 Q-0.35 -1.0 -0.3 -0.55 0.25 -1.1 1.8 -1.65 3.85 -2.35 3.85 -1.35 3.85 -0.8 3.5 -0.6 L3.7 -0.15 3.25 0.8 Q2.7 1.3 1.9 1.3 L0.25 1.1 0.1 1.05 2.65 0.4 2.9 -0.25 2.95 -0.45 2.9 -0.45 1.75 -0.35 -0.15 0.2 -0.4 0.2 -0.6 0.35 Q-1.25 0.35 -2.25 -1.3 L-2.8 -0.9 -3.45 -0.2 -3.35 0.35 Q-3.25 0.55 -2.15 0.95 L-1.25 1.0 -0.85 0.85 -0.9 0.6 -0.65 0.55 -0.55 1.05 -1.0 1.4 -1.45 1.4 -3.4 0.85 -3.4 1.1 -3.45 1.7 Q-3.2 2.2 -2.2 2.1 -0.7 2.0 2.05 2.05 L3.85 0.45 3.95 -0.8 4.0 -0.8 4.1 0.7 2.35 2.55 -2.1 2.5 Q-3.9 2.5 -3.6 2.1 L-3.45 1.8 -3.65 2.1 -3.95 0.45 -4.15 -0.1 -3.65 -0.85 Q-3.05 -1.45 -2.55 -1.45 L-2.25 -1.3 -2.35 -1.45 -2.0 -1.9 -1.35 -2.05 -0.25 -2.45 0.85 -2.5 1.05 -2.5 M0.9 -0.45 L2.15 -0.6 Q3.1 -0.65 3.3 -0.85 L3.1 -1.2 2.05 -1.3 Q1.15 -1.3 -0.3 -0.45 L-0.3 -0.15 0.15 -0.3 0.9 -0.45 M-1.3 -1.7 L-1.75 -1.35 -1.35 -0.6 Q-1.15 -0.25 -0.65 -0.05 L-0.55 -0.45 -0.65 -1.15 -1.35 -1.8 -1.3 -1.7" fill="#000000" fill-rule="evenodd" stroke="none"/>
    </g>
    <g id="sprite5">
      <use ffdec:characterId="9" height="2.7" transform="matrix(1.0, 0.0, 0.0, 1.0, 0.0, 0.0)" width="10.0" xlink:href="#shape6"/>
    </g>
    <g id="shape6">
      <path d="M0.0 0.3 L-0.1 0.25 0.15 0.0 -0.4 0.3 0.25 -0.45 0.0 -0.65 -0.45 -0.45 -0.75 -0.3 -1.0 0.0 -1.6 0.5 -1.7 0.45 -1.05 -0.4 -1.0 -0.45 -0.65 -0.7 -0.6 -0.65 -0.15 -0.9 0.15 -1.0 0.7 -0.55 0.75 -0.5 0.8 -0.55 0.95 -0.4 0.95 -0.3 Q0.95 -0.05 0.2 0.35 L0.1 0.4 0.0 0.3 M-1.05 -0.65 L-3.3 0.85 -4.2 0.05 -4.3 -0.05 Q-4.3 -0.6 -3.95 -0.35 L-3.35 0.05 -3.3 0.05 -2.65 -0.05 -0.95 -1.0 -0.85 -0.9 -1.05 -0.65 M2.05 0.0 L2.85 -0.1 Q3.75 -0.05 4.35 0.5 L4.55 0.7 Q4.55 1.0 3.85 1.0 L3.75 1.0 3.6 1.0 3.0 0.8 2.2 0.35 2.4 0.25 1.95 0.15 2.05 0.0" fill="#fbffe8" fill-rule="evenodd" stroke="none"/>
      <path d="M-3.95 -0.35 L-3.9 -0.35 -3.5 -0.1 -3.3 0.05 -3.35 0.05 -3.95 -0.35" fill="#b9bca8" fill-rule="evenodd" stroke="none"/>
      <path d="M-0.15 -0.9 L-0.6 -0.65 -0.65 -0.7 -1.0 -0.45 -1.05 -0.4 -1.7 0.45 -1.6 0.5 -1.0 0.0 -0.75 -0.3 -0.45 -0.45 0.0 -0.65 0.25 -0.45 -0.4 0.3 0.15 0.0 -0.1 0.25 0.0 0.3 -2.0 0.75 -3.8 1.2 -4.1 0.7 -4.2 0.05 -3.3 0.85 -1.05 -0.65 -0.85 -0.8 -0.15 -0.9 M0.2 0.35 Q0.95 -0.05 0.95 -0.3 L0.95 -0.4 1.65 0.05 2.05 0.0 1.95 0.15 2.4 0.25 2.2 0.35 3.0 0.8 2.8 0.75 Q2.6 0.95 2.3 0.95 L0.2 0.35" fill="#868b6a" fill-rule="evenodd" stroke="none"/>
      <path d="M2.05 -0.15 L5.0 0.15 4.8 1.2 3.05 1.3 0.7 0.7 -4.15 1.35 -5.0 0.1 -3.95 -0.65 -3.1 -0.1 Q-1.5 -0.7 0.05 -1.35 L2.05 -0.15 M1.3 0.5 L1.8 0.05 0.55 -0.45 -0.1 0.1 0.0 0.1 1.3 0.5 M1.85 0.5 L1.7 0.6 2.5 0.85 1.95 0.45 1.85 0.5 M4.65 0.85 L2.2 -0.05 2.45 0.55 4.65 0.85 M-1.05 -0.45 L-1.7 0.5 -0.6 0.25 0.45 -0.5 -0.1 -0.85 -1.05 -0.45 M-1.95 0.2 L-1.15 -0.45 -3.1 0.3 -3.9 -0.3 Q-4.25 0.4 -3.9 0.65 L-4.1 1.1 -2.45 0.7 -1.95 0.2" fill="#000000" fill-rule="evenodd" stroke="none"/>
    </g>
    <g id="sprite6">
      <use ffdec:characterId="11" height="3.45" transform="matrix(1.0, 0.0, 0.0, 1.0, 0.0, 0.0)" width="3.2" xlink:href="#shape7"/>
    </g>
    <g id="shape7">
      <path d="M-0.3 -0.55 L-0.3 -0.6 -0.25 -0.6 -0.3 -0.55" fill="#c2c2c2" fill-rule="evenodd" stroke="none"/>
      <path d="M0.9 -0.4 L0.95 -0.1 0.9 0.1 0.85 0.35 0.35 0.35 0.3 0.35 0.2 -0.35 0.85 -0.5 0.9 -0.4" fill="#ffffff" fill-rule="evenodd" stroke="none"/>
      <path d="M0.35 0.35 L-0.2 0.85 Q-0.75 0.85 -0.75 0.4 L-1.2 0.1 -0.95 -0.1 -0.6 -0.25 -1.0 -0.45 -1.15 -0.65 Q-1.15 -1.0 -0.7 -0.95 -0.65 -1.2 -0.3 -1.3 0.05 -1.45 0.05 -1.1 L0.0 -0.75 0.2 -0.8 0.45 -0.75 0.6 -1.0 0.9 -1.15 1.2 -0.8 Q1.2 -0.45 0.9 -0.4 L0.85 -0.5 0.2 -0.35 0.3 0.35 0.35 0.35 M-0.3 -0.55 L-0.25 -0.6 -0.3 -0.6 -0.3 -0.55" fill="#ffa300" fill-rule="evenodd" stroke="none"/>
      <path d="M0.9 -0.4 Q1.2 -0.45 1.2 -0.8 L0.9 -1.15 0.6 -1.0 0.45 -0.75 0.2 -0.8 0.0 -0.75 0.05 -1.1 Q0.05 -1.45 -0.3 -1.3 -0.65 -1.2 -0.7 -0.95 -1.15 -1.0 -1.15 -0.65 L-1.0 -0.45 -0.6 -0.25 -0.95 -0.1 -1.2 0.1 -0.75 0.4 Q-0.75 0.85 -0.2 0.85 L0.35 0.35 0.85 0.35 0.9 0.35 0.95 0.2 0.9 0.1 0.95 -0.1 0.9 -0.4 M1.6 -0.15 L1.2 0.85 Q0.7 1.55 0.0 1.55 -1.1 1.55 -1.4 0.95 L-1.5 0.15 -1.3 -0.95 Q-0.85 -1.55 0.5 -1.55 1.6 -1.55 1.6 -0.15" fill="#e01a1a" fill-rule="evenodd" stroke="none"/>
      <path d="M1.5 -0.35 L1.5 0.05 1.5 0.15 1.45 0.3 1.55 0.75 1.3 1.35 Q0.9 1.75 0.15 1.75 -1.6 1.75 -1.6 0.45 L-1.55 0.15 -1.15 0.65 -1.0 0.75 -0.75 0.95 0.3 1.1 0.85 0.95 1.0 0.85 1.05 0.75 1.2 0.45 1.4 -0.3 1.25 -0.75 0.9 -1.2 1.35 -0.85 1.5 -0.35 M0.15 -1.0 L-0.2 -1.1 -1.1 -0.9 -1.35 -0.45 -1.45 -0.45 -0.9 -1.4 Q-0.55 -1.8 -0.05 -1.7 0.45 -1.6 0.45 -1.3 L0.15 -1.0" fill="#000000" fill-rule="evenodd" stroke="none"/>
    </g>
    <g id="sprite7">
      <use ffdec:characterId="15" height="13.95" transform="matrix(1.0, 0.0, 0.0, 1.0, 0.0, 0.0)" width="14.1" xlink:href="#shape8"/>
    </g>
    <g id="shape8">
      <path d="M4.5 10.65 L4.5 10.7 3.65 10.75 2.45 10.55 1.6 10.0 1.35 9.8 1.4 9.8 1.25 9.65 1.75 9.2 Q2.6 8.4 3.6 7.75 1.65 7.3 0.1 5.9 1.95 4.75 4.45 4.7 3.1 2.5 3.95 0.0 6.55 1.35 7.45 3.8 8.35 1.6 10.3 0.35 L10.3 0.25 10.55 0.15 10.75 0.25 10.75 0.35 10.85 0.35 10.8 0.6 Q11.0 2.05 10.65 3.4 L10.7 2.7 Q10.7 1.7 9.5 3.05 8.25 4.45 8.25 5.05 L8.3 5.35 Q8.45 5.65 8.95 5.65 L9.65 5.45 10.2 4.8 Q11.3 3.9 12.7 3.6 L13.65 3.45 Q13.6 5.5 12.3 7.05 L10.15 8.85 9.7 7.75 9.85 7.55 Q10.25 7.1 9.9 6.6 L9.8 6.25 9.45 6.0 9.45 5.95 9.4 5.95 9.1 5.8 9.0 5.7 8.75 5.7 8.55 5.8 8.5 5.85 8.4 5.85 8.35 5.7 8.25 5.65 8.1 5.55 7.5 5.1 7.4 5.05 7.35 5.05 7.3 5.1 7.05 5.1 6.95 5.15 6.6 5.45 6.4 5.8 6.35 5.9 6.35 5.95 6.4 5.95 6.35 6.0 6.3 6.1 6.3 6.5 6.5 6.95 6.55 7.0 6.6 7.1 6.6 7.2 6.5 7.2 6.5 7.15 6.45 7.15 6.35 7.1 6.25 7.05 6.25 7.2 6.1 7.45 6.2 7.45 6.25 7.45 6.3 7.5 6.25 7.65 6.25 8.1 6.25 8.15 6.25 8.25 6.5 8.55 6.35 8.45 6.25 8.3 6.3 8.6 6.6 8.7 6.8 8.8 6.9 8.85 6.95 8.9 7.0 8.9 7.1 8.9 7.2 8.95 8.05 9.25 8.0 9.25 7.9 9.45 7.8 9.5 7.8 9.6 6.95 10.3 Q6.15 10.85 5.8 10.7 L5.65 10.65 5.7 10.65 6.0 10.5 5.9 10.45 4.7 10.65 Q5.45 10.55 6.25 9.75 L6.2 9.7 6.65 9.4 7.1 9.5 6.5 9.3 6.25 9.1 4.75 8.9 Q4.55 8.9 3.9 9.2 L4.9 8.8 5.95 8.75 5.8 8.25 5.85 7.8 Q5.65 7.65 5.25 7.8 L4.95 7.9 Q3.9 8.05 3.1 8.8 L3.55 8.95 Q3.0 9.6 2.2 9.75 L1.9 9.8 Q2.5 9.8 3.65 10.5 L4.5 10.65 M11.0 5.75 Q11.6 5.2 12.3 4.85 L12.8 4.65 12.6 4.6 Q12.9 4.4 13.35 4.25 11.2 4.6 9.65 5.95 L10.2 6.5 10.3 6.6 11.0 5.75 M12.15 5.5 L12.4 5.0 Q11.25 5.75 10.35 6.75 L11.2 6.9 11.5 6.55 12.15 5.5 M8.65 2.75 L8.7 3.55 Q9.55 2.8 9.9 1.7 L10.0 1.45 9.55 1.7 9.65 1.55 Q8.85 1.9 8.65 2.75 M6.25 5.1 L5.95 4.3 5.45 3.15 6.15 4.3 6.35 4.7 6.45 5.35 6.95 4.85 7.15 4.85 6.85 3.8 6.6 3.05 6.5 3.5 Q5.95 1.7 4.25 0.6 L4.15 1.4 4.35 1.55 Q3.85 3.25 5.35 5.25 L4.8 5.15 5.1 5.35 5.15 5.35 5.15 5.25 5.35 5.35 5.5 5.4 5.95 5.6 6.25 5.65 6.4 5.5 6.25 5.1 M5.95 6.15 L5.85 6.2 6.0 6.3 6.05 6.1 5.95 6.05 5.95 6.15 M5.25 7.35 L5.45 7.35 5.8 6.95 5.8 6.8 4.7 6.75 3.25 6.55 4.85 6.6 5.8 6.65 5.65 6.15 Q3.85 5.3 3.35 5.25 L3.0 5.3 2.8 5.25 0.35 5.95 Q2.2 7.05 4.15 7.3 L5.15 7.4 5.25 7.35 M5.4 7.45 L5.5 7.6 5.85 7.45 5.85 7.35 5.5 7.5 5.45 7.4 5.4 7.45" fill="#2b691c" fill-rule="evenodd" stroke="none"/>
      <path d="M12.6 4.6 L12.8 4.65 12.3 4.85 Q11.6 5.2 11.0 5.75 L10.55 6.05 10.5 5.9 10.7 5.65 Q11.4 4.7 12.6 4.6 M6.35 4.7 L6.15 4.3 5.45 3.15 5.95 4.3 6.25 5.1 5.75 4.7 Q4.65 3.35 4.7 1.65 L4.95 2.0 5.0 1.95 4.85 1.7 4.9 1.65 5.7 2.8 Q6.25 3.65 6.35 4.65 L6.35 4.7 M8.65 2.75 Q8.85 1.9 9.65 1.55 L9.55 1.7 10.0 1.45 9.9 1.7 Q9.55 2.8 8.7 3.55 L8.65 2.75 M4.15 7.3 Q3.05 6.9 2.05 6.3 3.9 6.95 5.7 6.85 L5.7 6.95 5.25 7.35 5.15 7.4 4.15 7.3 M3.2 5.75 L3.4 5.7 Q4.4 5.6 5.3 6.2 L5.4 6.25 5.4 6.4 3.2 5.75 M3.75 8.8 Q4.25 8.0 5.05 8.45 L5.1 8.65 3.65 9.1 3.75 8.8" fill="#9ce200" fill-rule="evenodd" stroke="none"/>
      <path d="M4.5 10.65 L3.65 10.5 Q2.5 9.8 1.9 9.8 L2.2 9.75 Q3.0 9.6 3.55 8.95 L3.1 8.8 Q3.9 8.05 4.95 7.9 L5.25 7.8 Q5.65 7.65 5.85 7.8 L5.8 8.25 5.95 8.75 4.9 8.8 3.9 9.2 Q4.55 8.9 4.75 8.9 L6.25 9.1 6.5 9.3 7.1 9.5 6.65 9.4 6.2 9.7 6.25 9.75 Q5.45 10.55 4.7 10.65 L4.5 10.65 M6.6 8.7 L6.3 8.6 6.25 8.3 6.35 8.45 6.5 8.55 6.6 8.7 M6.2 7.45 L6.1 7.45 6.25 7.2 6.25 7.05 6.35 7.1 6.45 7.15 6.5 7.15 6.2 7.45 M6.5 6.95 L6.3 6.5 6.3 6.1 6.35 6.0 6.4 5.95 6.35 5.95 6.35 5.9 6.4 5.8 6.6 5.45 6.5 6.0 6.5 6.05 6.5 6.85 6.5 6.95 M8.55 5.8 L8.75 5.7 9.0 5.7 9.1 5.8 8.6 5.85 8.55 5.8 M10.2 4.8 L9.65 5.45 8.95 5.65 Q8.45 5.65 8.3 5.35 L8.25 5.05 Q8.25 4.45 9.5 3.05 10.7 1.7 10.7 2.7 L10.65 3.4 10.2 4.8 M11.0 5.75 L10.3 6.6 10.2 6.5 9.65 5.95 Q11.2 4.6 13.35 4.25 12.9 4.4 12.6 4.6 11.4 4.7 10.7 5.65 L10.5 5.9 10.55 6.05 11.0 5.75 M12.15 5.5 L11.5 6.55 11.2 6.9 10.35 6.75 Q11.25 5.75 12.4 5.0 L12.15 5.5 M3.75 8.8 L3.65 9.1 5.1 8.65 5.05 8.45 Q4.25 8.0 3.75 8.8 M5.4 7.45 L5.45 7.4 5.5 7.5 5.85 7.35 5.85 7.45 5.5 7.6 5.4 7.45" fill="#288112" fill-rule="evenodd" stroke="none"/>
      <path d="M8.05 9.25 L7.2 8.95 7.85 9.0 7.95 9.05 8.0 8.85 8.85 10.45 10.1 13.15 10.2 13.15 9.35 11.15 7.9 8.55 7.85 8.6 7.95 8.75 7.9 8.75 7.85 8.7 Q6.9 8.9 6.35 8.05 6.55 8.6 6.9 8.85 L6.8 8.8 6.6 8.7 6.5 8.55 6.25 8.15 6.25 8.1 6.25 7.65 6.3 7.5 6.45 7.4 6.4 7.5 6.35 7.7 6.4 7.85 6.5 7.7 Q6.6 7.35 6.95 7.35 6.65 6.75 6.65 6.15 6.65 5.55 7.5 5.35 L7.55 5.35 Q8.15 5.6 8.35 6.2 L8.5 6.25 8.65 6.15 Q9.45 5.8 9.9 6.6 10.25 7.1 9.85 7.55 L9.7 7.75 10.15 8.85 Q10.55 10.05 11.4 11.05 L12.1 11.95 11.9 11.95 11.6 12.2 11.5 12.35 11.5 12.4 11.5 12.45 11.45 12.9 10.55 13.35 11.15 13.3 10.25 13.4 10.15 13.35 10.2 13.5 9.9 13.3 8.95 11.1 8.1 9.2 8.05 9.25 M10.15 11.6 L10.05 11.35 9.9 11.25 8.15 8.5 8.25 8.85 8.45 9.25 9.55 11.4 10.45 12.95 10.55 13.05 10.65 13.0 10.8 13.0 10.8 12.95 10.9 12.95 10.95 12.9 10.95 12.8 11.0 12.75 11.05 12.7 11.05 12.55 10.95 12.5 10.8 12.35 10.15 11.6 M11.1 12.1 L11.0 11.4 10.45 10.55 11.0 11.25 10.1 9.55 Q9.35 8.45 9.05 7.25 L8.85 7.1 9.0 7.55 Q9.4 8.85 10.1 10.05 L9.05 8.65 10.05 10.6 11.0 12.05 11.1 12.1 M7.8 8.25 L7.8 8.2 6.95 8.0 Q7.2 8.8 7.8 8.25 M9.45 8.05 L9.75 8.55 9.45 7.9 9.45 8.05 M7.2 6.95 L7.15 6.85 Q6.95 6.45 6.9 5.95 6.5 6.7 7.2 7.0 L7.2 6.95" fill="#b67a2d" fill-rule="evenodd" stroke="none"/>
      <path d="M10.15 11.6 L10.8 12.35 10.95 12.5 11.05 12.55 11.05 12.7 11.0 12.75 10.95 12.8 10.95 12.9 10.9 12.95 10.8 12.95 10.8 13.0 10.65 13.0 10.55 13.05 10.45 12.95 9.55 11.4 8.45 9.25 8.25 8.85 8.15 8.5 9.9 11.25 10.05 11.35 10.15 11.6 M11.1 12.1 L11.0 12.05 10.05 10.6 9.05 8.65 10.1 10.05 Q9.4 8.85 9.0 7.55 L8.85 7.1 9.05 7.25 Q9.35 8.45 10.1 9.55 L11.0 11.25 10.45 10.55 11.0 11.4 11.1 12.1 M10.6 11.3 L10.35 10.85 10.1 10.4 10.05 10.4 10.45 11.1 10.6 11.3 M7.8 8.25 Q7.2 8.8 6.95 8.0 L7.8 8.2 7.8 8.25 M7.2 6.95 L7.2 7.0 Q6.5 6.7 6.9 5.95 6.95 6.45 7.15 6.85 L7.2 6.95" fill="#5e3705" fill-rule="evenodd" stroke="none"/>
      <path d="M6.6 7.2 L6.6 7.1 6.55 7.0 6.5 6.95 6.5 6.85 6.5 6.05 6.5 6.0 Q6.55 5.6 6.9 5.35 L7.1 5.25 Q6.5 5.8 6.5 6.4 L6.75 7.15 6.6 7.2 M8.25 5.65 L8.35 5.7 8.4 5.85 8.45 5.9 8.6 5.85 9.1 5.8 9.4 5.95 8.85 5.9 8.45 6.05 8.4 5.9 8.25 5.65 M10.6 11.3 L10.45 11.1 10.05 10.4 10.1 10.4 10.35 10.85 10.6 11.3 M12.0 12.15 L12.15 12.05 12.15 11.95 12.35 12.3 12.3 12.75 12.25 13.35 12.2 13.5 12.1 13.3 11.8 13.05 11.75 13.15 11.7 13.2 11.5 13.2 Q11.85 13.0 11.65 12.45 L12.0 12.15 M7.4 5.3 L7.35 5.3 7.2 5.2 7.45 5.15 7.4 5.3 M12.15 13.55 Q11.85 14.0 11.15 13.9 L10.65 13.75 11.3 13.85 12.15 13.55" fill="#73450b" fill-rule="evenodd" stroke="none"/>
      <path d="M7.5 5.1 L8.1 5.55 8.25 5.65 8.4 5.9 8.45 6.05 8.5 6.25 8.35 6.2 Q8.15 5.6 7.55 5.35 L7.5 5.35 7.45 5.3 7.4 5.3 7.45 5.15 7.5 5.1 M11.9 11.95 L11.95 12.0 12.0 12.0 12.05 12.1 12.0 12.15 11.65 12.45 11.6 12.4 11.5 12.4 11.5 12.35 11.6 12.2 11.9 11.95" fill="#402709" fill-rule="evenodd" stroke="none"/>
      <path d="M12.0 12.15 L12.05 12.1 12.0 12.0 11.95 12.0 11.9 11.95 12.1 11.95 12.15 11.95 12.15 12.05 12.0 12.15 M11.5 12.4 L11.6 12.4 11.65 12.45 11.5 12.45 11.5 12.4" fill="#5c401c" fill-rule="evenodd" stroke="none"/>
      <path d="M6.35 4.7 L6.35 4.65 Q6.25 3.65 5.7 2.8 L4.9 1.65 4.85 1.7 5.0 1.95 4.95 2.0 4.7 1.65 Q4.65 3.35 5.75 4.7 L6.25 5.1 6.4 5.5 6.25 5.65 5.95 5.6 5.5 5.4 5.35 5.35 5.15 5.25 5.15 5.35 5.1 5.35 4.8 5.15 5.35 5.25 Q3.85 3.25 4.35 1.55 L4.15 1.4 4.25 0.6 Q5.95 1.7 6.5 3.5 L6.6 3.05 6.85 3.8 7.15 4.85 6.95 4.85 6.45 5.35 6.35 4.7 M5.95 6.15 L5.95 6.05 6.05 6.1 6.0 6.3 5.85 6.2 5.95 6.15 M4.15 7.3 Q2.2 7.05 0.35 5.95 L2.8 5.25 3.0 5.3 3.35 5.25 Q3.85 5.3 5.65 6.15 L5.8 6.65 4.85 6.6 3.25 6.55 4.7 6.75 5.8 6.8 5.8 6.95 5.45 7.35 5.25 7.35 5.7 6.95 5.7 6.85 Q3.9 6.95 2.05 6.3 3.05 6.9 4.15 7.3 M3.2 5.75 L5.4 6.4 5.4 6.25 5.3 6.2 Q4.4 5.6 3.4 5.7 L3.2 5.75" fill="#2c9013" fill-rule="evenodd" stroke="none"/>
      <path d="M9.4 5.95 L9.45 5.95 9.45 6.0 9.8 6.25 9.9 6.6 Q9.45 5.8 8.65 6.15 L8.5 6.25 8.45 6.05 8.85 5.9 9.4 5.95 M7.1 5.25 L7.2 5.2 7.35 5.3 7.4 5.3 7.45 5.3 7.5 5.35 Q6.65 5.55 6.65 6.15 6.65 6.75 6.95 7.35 6.6 7.35 6.5 7.7 L6.4 7.85 6.35 7.7 6.4 7.5 6.45 7.4 6.55 7.3 6.6 7.2 6.75 7.15 6.5 6.4 Q6.5 5.8 7.1 5.25 M8.0 8.85 L7.95 8.75 7.85 8.6 7.9 8.55 9.35 11.15 10.2 13.15 10.1 13.15 8.85 10.45 8.0 8.85 M11.15 13.3 L10.55 13.35 11.45 12.9 11.5 12.45 11.65 12.45 Q11.85 13.0 11.5 13.2 L11.4 13.25 11.35 13.25 11.25 13.3 11.15 13.3" fill="#a08058" fill-rule="evenodd" stroke="none"/>
      <path d="M7.2 8.95 L7.1 8.9 7.0 8.9 6.95 8.9 6.9 8.85 Q6.55 8.6 6.35 8.05 6.9 8.9 7.85 8.7 L7.9 8.75 7.95 8.75 8.0 8.85 7.95 9.05 7.85 9.0 7.2 8.95 M11.15 13.3 L11.25 13.3 11.35 13.25 11.4 13.25 11.5 13.2 11.7 13.2 11.75 13.15 11.8 13.05 12.1 13.3 12.2 13.5 12.15 13.55 11.3 13.85 10.65 13.75 10.2 13.5 10.15 13.35 10.25 13.4 11.15 13.3" fill="#d38d36" fill-rule="evenodd" stroke="none"/>
      <path d="M9.45 8.05 L9.45 7.9 9.75 8.55 9.45 8.05" fill="#124c04" fill-rule="evenodd" stroke="none"/>
      <path d="M6.5 8.05 L6.65 8.35 Q6.35 8.1 6.4 7.7 L6.5 8.05 M12.35 12.2 L12.4 12.35 Q12.55 12.8 12.3 12.9 L12.25 12.9 Q12.2 12.8 12.3 12.6 L12.3 12.35 12.2 12.5 12.05 12.5 Q11.9 12.75 12.05 13.1 11.4 13.65 10.35 13.35 L10.3 13.3 11.2 13.25 11.65 13.0 11.6 12.5 12.0 12.2 11.95 11.95 9.25 7.7 Q10.1 7.25 9.85 6.65 L9.35 6.0 8.95 5.95 8.45 6.15 8.25 5.8 8.1 5.55 Q7.35 4.9 6.75 5.75 6.45 6.15 6.55 6.65 L6.8 7.25 6.55 7.45 6.4 7.7 Q6.1 8.5 7.1 8.95 L7.85 9.0 7.8 8.9 7.9 8.9 7.8 8.6 7.0 8.65 6.65 8.35 7.1 8.6 7.75 8.5 7.75 8.45 7.8 8.5 7.9 8.45 7.9 8.5 7.85 8.5 7.8 8.55 7.95 8.9 8.2 9.3 8.25 9.35 Q10.8 13.9 10.1 13.1 L10.2 13.3 10.1 13.25 10.1 13.4 10.75 13.8 11.9 13.7 12.25 13.3 12.3 13.1 12.35 13.1 12.35 13.35 12.2 13.55 Q11.6 14.05 10.85 13.95 L10.35 13.75 10.15 13.6 10.1 13.55 10.1 13.6 10.0 13.3 9.45 12.3 7.95 9.25 Q6.5 9.3 6.15 8.35 5.8 7.45 6.4 7.1 L6.2 6.35 6.25 6.1 Q6.35 5.45 6.95 5.1 L7.15 5.05 Q7.9 4.95 8.35 5.65 L8.45 5.8 8.55 5.8 Q8.9 5.65 9.25 5.8 L9.55 6.0 9.9 6.45 10.1 7.0 Q10.25 7.45 9.95 7.65 L9.75 7.85 9.65 7.85 Q10.15 7.2 9.95 6.65 L9.9 6.6 Q10.05 7.0 9.8 7.4 L9.5 7.6 Q10.3 9.6 11.55 11.35 L11.8 11.55 Q12.35 11.8 12.35 12.2" fill="#000000" fill-rule="evenodd" stroke="none"/>
      <path d="M10.6 4.65 Q12.15 3.55 14.1 3.45 13.4 6.5 11.2 8.4 L9.8 8.3 Q11.75 8.0 12.55 6.55 13.4 5.15 13.65 3.75 11.35 4.0 9.9 5.65 L9.65 5.95 9.5 5.8 Q10.85 3.7 10.7 1.15 L10.65 0.45 Q8.4 1.9 7.55 4.55 L7.45 5.0 7.4 4.95 Q7.05 3.1 5.8 1.7 5.05 0.8 4.05 0.2 5.8 0.95 6.85 2.5 L7.4 3.8 Q8.55 1.6 10.65 0.35 L11.0 0.1 Q11.55 2.3 10.75 4.3 L10.6 4.65 M1.65 6.95 L1.45 6.9 2.5 7.5 1.75 7.0 Q2.85 7.5 4.1 7.6 L6.0 7.5 6.05 7.8 5.3 8.15 5.8 8.25 Q4.35 8.15 3.1 8.75 2.1 9.2 1.35 9.95 L1.7 10.15 3.05 10.7 3.95 10.8 3.0 10.5 3.75 10.65 6.4 10.45 7.9 9.45 8.2 9.5 8.2 9.65 8.2 9.75 8.1 9.9 7.95 10.1 7.9 10.15 7.55 10.5 Q6.2 11.35 4.55 11.15 2.75 11.05 1.25 9.95 L2.15 8.9 3.2 8.05 2.1 7.55 0.0 6.2 1.65 6.95 M5.75 5.65 L5.3 5.6 6.15 6.4 6.1 6.5 5.65 6.45 4.35 5.35 Q2.0 5.05 0.0 6.05 1.8 4.85 4.15 5.1 L3.95 4.65 Q2.9 2.4 3.95 0.25 L4.05 0.1 Q2.8 3.9 5.75 5.65" fill="#000000" fill-rule="evenodd" stroke="none"/>
    </g>
  </defs>
</svg>
