<?xml version="1.0" encoding="UTF-8" standalone="no"?>
<svg xmlns:ffdec="https://www.free-decompiler.com/flash" xmlns:xlink="http://www.w3.org/1999/xlink" ffdec:objectType="frame" height="11.35px" width="19.25px" xmlns="http://www.w3.org/2000/svg">
  <g transform="matrix(1.0, 0.0, 0.0, 1.0, 9.8, -18.95)">
    <use ffdec:characterId="9" height="11.35" transform="matrix(1.0, 0.0, 0.0, 1.0, 0.0, 0.0)" width="19.25" xlink:href="#shape0"/>
  </g>
  <defs>
    <g id="shape0">
      <path d="M3.95 20.1 L3.9 20.05 3.9 20.0 3.95 20.1 M3.3 19.25 L3.15 19.3 3.15 19.8 3.1 19.85 3.1 19.8 3.15 19.65 3.1 19.5 3.15 19.2 3.3 19.25 M1.05 20.25 L1.2 20.35 1.55 19.95 Q2.15 19.45 3.05 19.95 L3.1 20.0 3.15 20.0 2.45 19.8 1.75 19.85 1.8 20.0 Q1.45 20.1 1.45 20.3 L1.25 20.4 1.15 20.5 1.15 20.4 1.1 20.4 1.05 20.25 M0.95 20.2 L0.9 20.2 0.7 20.25 Q0.45 19.8 -0.5 19.7 -0.75 19.5 -1.0 19.45 L-1.1 19.4 0.1 19.8 0.95 20.2 M-2.3 24.0 L-2.2 23.95 -2.3 24.05 -2.35 24.05 -2.3 24.0 M-1.95 23.75 L-1.85 23.7 -1.9 23.75 -1.95 23.75 M-1.0 22.65 L-1.0 22.6 -0.9 22.5 -0.7 22.3 -0.65 22.3 -0.75 22.55 -0.8 22.5 -1.0 22.65 M0.15 21.9 L0.65 22.4 1.0 22.85 1.05 22.9 0.9 22.9 0.15 22.85 0.4 22.65 0.45 22.45 0.3 22.15 0.1 22.0 -0.05 21.75 0.15 21.9 M3.15 24.65 L3.25 24.7 3.35 24.8 3.15 24.65 M4.95 22.95 L4.8 22.8 4.75 22.75 4.85 22.7 4.85 22.75 4.9 22.85 4.95 22.95 M3.95 24.95 L4.0 24.95 4.15 25.0 4.2 25.05 4.1 25.05 3.95 24.95 M3.7 25.0 L3.5 24.9 3.7 24.95 3.7 25.0 M-3.0 24.7 L-3.1 24.7 -3.25 24.65 Q-3.0 24.6 -2.7 24.4 L-3.0 24.7 M-4.7 26.05 L-4.7 26.1 -4.8 26.05 -5.45 25.85 -5.65 25.4 -5.4 24.8 -5.2 25.0 Q-5.6 25.1 -5.6 25.45 L-4.75 26.0 -4.7 26.05" fill="#dbd8c6" fill-rule="evenodd" stroke="none"/>
      <path d="M3.9 20.0 L3.9 20.05 3.95 20.1 4.1 20.3 4.05 20.4 4.0 20.45 3.85 20.25 Q3.4 19.7 3.15 19.8 L3.15 19.3 3.3 19.25 Q3.5 19.25 3.7 19.5 L3.9 20.0 M1.15 20.5 L1.25 20.4 1.45 20.3 Q1.45 20.1 1.8 20.0 L1.75 19.85 2.45 19.8 3.15 20.0 3.5 20.75 3.4 20.8 3.25 20.75 2.15 20.9 2.25 21.35 Q2.8 22.85 3.55 23.5 L4.4 24.2 3.7 24.05 Q1.6 22.5 1.35 21.95 1.05 21.35 0.55 21.3 L1.15 20.5 M-1.1 19.4 L-1.0 19.45 -1.55 19.35 -1.65 19.35 -2.2 19.3 -2.2 19.4 Q-1.5 19.7 -1.15 20.25 -0.5 20.55 -0.65 20.8 L-2.1 22.6 Q-3.5 24.1 -2.9 23.15 -2.3 22.2 -2.3 21.7 L-2.4 20.95 Q-2.45 20.65 -3.35 22.2 -4.3 23.7 -5.25 24.05 L-4.9 23.2 -4.8 22.85 -4.25 21.45 Q-3.55 20.0 -2.7 19.4 L-2.8 19.3 -2.85 19.25 -2.75 19.25 Q-2.3 18.95 -1.3 19.25 L-1.1 19.4 M-3.35 19.3 L-3.4 19.3 -3.35 19.35 -3.55 19.5 -3.7 19.6 -3.95 19.9 -3.5 19.3 -3.35 19.3 M4.75 24.1 L5.0 23.65 5.05 23.65 5.1 24.0 5.1 24.15 4.7 24.1 4.75 24.1" fill="#e1d8b7" fill-rule="evenodd" stroke="none"/>
      <path d="M3.15 19.8 Q3.4 19.7 3.85 20.25 L4.0 20.45 4.3 21.05 4.35 21.35 4.4 21.45 4.5 21.65 4.6 22.15 4.6 22.2 4.6 22.25 4.65 22.25 4.65 22.3 4.85 22.65 4.85 22.7 4.75 22.75 4.75 22.8 4.8 22.8 4.95 22.95 5.25 23.3 5.5 23.5 5.7 23.95 5.65 24.15 5.65 24.2 5.65 24.3 5.65 24.4 5.65 24.6 5.6 24.75 5.6 24.8 5.5 25.0 5.3 25.1 5.15 25.1 4.9 25.1 4.5 25.05 4.3 25.0 4.15 25.0 3.25 24.7 3.15 24.65 2.9 24.5 2.7 24.35 2.6 24.3 2.35 24.1 1.75 23.5 1.1 22.85 0.65 22.4 0.15 21.9 0.0 21.7 -0.05 21.75 -0.65 22.3 -0.7 22.3 -0.9 22.5 -1.0 22.6 -1.0 22.65 -1.05 22.85 -1.85 23.7 -1.95 23.75 -2.1 23.85 -2.2 23.95 -2.3 24.0 -3.6 24.7 -3.65 24.8 -3.7 24.85 -4.25 24.9 -4.45 24.9 -5.3 24.75 -5.5 24.65 -5.65 24.3 -5.65 24.2 -5.55 24.05 -5.55 23.95 -5.3 23.45 -5.25 23.4 -5.25 23.1 -4.5 21.1 -3.9 20.25 -3.75 20.1 -3.8 20.1 -3.85 19.95 -3.7 19.6 -3.55 19.5 -3.35 19.35 -3.4 19.3 -3.35 19.3 -3.1 19.2 -2.85 19.25 -2.8 19.3 -2.7 19.4 Q-3.55 20.0 -4.25 21.45 L-4.8 22.85 -4.9 23.2 -5.25 24.05 Q-4.3 23.7 -3.35 22.2 -2.45 20.65 -2.4 20.95 L-2.3 21.7 Q-2.3 22.2 -2.9 23.15 -3.5 24.1 -2.1 22.6 L-0.65 20.8 Q-0.5 20.55 -1.15 20.25 -1.5 19.7 -2.2 19.4 L-2.2 19.3 -1.65 19.35 -1.55 19.35 -1.0 19.45 Q-0.75 19.5 -0.5 19.7 0.45 19.8 0.7 20.25 L0.9 20.2 0.95 20.2 1.0 20.2 1.0 20.25 1.05 20.25 1.1 20.4 1.15 20.4 1.15 20.5 0.55 21.3 Q1.05 21.35 1.35 21.95 1.6 22.5 3.7 24.05 L4.4 24.2 3.55 23.5 Q2.8 22.85 2.25 21.35 L2.15 20.9 3.25 20.75 3.4 20.8 3.5 20.75 3.15 20.0 3.1 20.0 3.05 19.9 3.1 19.85 3.15 19.8 M4.75 24.1 L4.7 24.1 5.1 24.15 5.1 24.0 5.05 23.65 5.0 23.65 4.75 24.1 M-1.8 23.05 L-1.8 23.0 -1.9 23.15 -1.8 23.05" fill="#b7a973" fill-rule="evenodd" stroke="none"/>
      <path d="M4.5 21.65 L4.4 21.45 4.35 21.35 4.3 21.05 4.5 21.65 M5.65 24.3 L5.65 24.2 5.65 24.15 5.65 24.3 M4.8 22.8 L4.75 22.8 4.75 22.75 4.8 22.8 M4.65 22.25 L4.6 22.25 4.6 22.2 4.65 22.25 M-1.8 23.05 L-1.9 23.15 -1.8 23.0 -1.8 23.05" fill="#dacfa5" fill-rule="evenodd" stroke="none"/>
      <path d="M-1.85 23.7 L-1.05 22.85 -1.0 22.65 -0.8 22.5 -0.75 22.55 -0.65 22.3 -0.05 21.75 0.1 22.0 0.3 22.15 0.45 22.45 0.4 22.65 0.15 22.85 0.1 22.85 -0.1 22.8 -0.2 22.75 -0.55 22.85 -0.6 22.85 -0.6 23.05 -0.65 23.45 -0.6 24.85 Q-0.6 26.2 -0.75 26.4 L-0.8 26.5 -1.0 26.65 -0.95 26.75 -1.0 26.85 -1.1 27.05 -1.1 27.45 Q-1.2 27.7 -1.5 27.7 L-1.65 27.7 -1.85 27.7 -2.1 27.5 -2.1 27.35 -2.1 27.1 -2.1 26.95 -2.1 26.8 -2.05 26.65 -2.05 26.45 -2.0 26.5 -2.05 26.5 -1.6 26.85 Q-1.15 26.85 -1.15 26.4 L-1.15 26.3 -1.1 25.55 -1.2 24.8 Q-1.3 24.45 -1.5 24.45 -1.8 24.45 -1.9 24.6 L-1.9 24.5 -1.9 24.4 -1.95 23.9 -1.9 23.75 -1.85 23.7" fill="#4b3f34" fill-rule="evenodd" stroke="none"/>
      <path d="M0.1 22.85 L0.0 22.85 -0.05 22.85 -0.1 22.8 0.1 22.85 M-0.4 24.3 L-0.2 25.35 -0.25 25.5 -0.5 26.05 -0.4 26.45 -0.4 26.5 -0.55 26.45 -0.8 26.5 -0.75 26.4 Q-0.6 26.2 -0.6 24.85 L-0.65 23.45 -0.6 23.05 -0.6 22.85 -0.6 22.9 -0.55 23.1 -0.6 23.2 -0.6 23.25 -0.55 23.6 -0.4 24.25 -0.4 24.3 M4.8 25.85 L4.4 26.1 4.7 25.85 4.75 25.85 4.8 25.85 M-1.9 24.4 L-1.9 24.5 -1.9 24.6 -1.95 24.65 -1.9 24.4 M-2.05 26.65 L-2.1 26.8 -2.75 26.85 -3.0 26.85 Q-3.2 26.7 -3.45 26.7 L-3.45 26.75 -3.65 26.65 -3.75 26.6 -4.05 26.45 -4.05 26.4 -4.05 26.25 -3.8 26.35 -3.75 26.4 -2.75 26.7 -2.1 26.65 -2.05 26.65 M-1.1 27.45 L-1.1 27.05 -1.0 26.85 -1.0 26.95 -0.95 26.95 -0.95 27.05 -1.05 27.3 -1.1 27.4 -1.1 27.45" fill="#e3ecf0" fill-rule="evenodd" stroke="none"/>
      <path d="M-0.35 24.3 L-0.4 24.3 -0.4 24.25 -0.35 24.3" fill="#537e34" fill-rule="evenodd" stroke="none"/>
      <path d="M-5.5 24.65 L-5.3 24.75 -4.45 24.9 -4.45 25.0 -4.8 25.1 -5.05 25.05 -5.2 25.0 -5.4 24.8 -5.5 24.65 M-3.65 24.8 L-3.6 24.7 -2.3 24.0 -2.35 24.05 -2.7 24.4 Q-3.0 24.6 -3.25 24.65 L-3.4 24.7 -3.65 24.8 M-0.05 21.75 L0.0 21.7 0.15 21.9 -0.05 21.75 M0.65 22.4 L1.1 22.85 1.75 23.5 2.35 24.1 2.05 23.85 1.55 23.4 1.25 23.1 1.05 22.9 1.0 22.85 0.65 22.4 M2.9 24.5 L3.15 24.65 3.1 24.6 2.9 24.5 M3.25 24.7 L4.15 25.0 4.0 24.95 3.95 24.95 3.7 24.95 3.5 24.9 3.35 24.8 3.25 24.7" fill="#c4b788" fill-rule="evenodd" stroke="none"/>
      <path d="M-2.2 23.95 L-2.1 23.85 -1.95 23.75 -1.9 23.75 -1.95 23.9 -1.9 24.4 -1.95 24.65 -1.95 24.7 -2.0 24.45 -1.95 24.25 Q-1.95 23.9 -2.2 24.0 L-2.3 24.1 -2.3 24.05 -2.2 23.95 M2.7 24.35 L2.9 24.5 2.85 24.5 2.7 24.35 M4.9 25.1 L5.15 25.1 5.25 25.35 4.9 25.1 M-0.1 22.8 L-0.05 22.85 -0.15 22.85 Q-0.55 22.85 -0.55 23.25 L-0.35 24.3 -0.4 24.25 -0.55 23.6 -0.6 23.25 -0.6 23.2 -0.55 23.1 -0.6 22.9 -0.6 22.85 -0.55 22.85 -0.2 22.75 -0.1 22.8 M0.0 26.3 L-0.1 25.8 -0.1 25.75 0.05 25.85 0.0 26.3 M4.1 25.05 L4.2 25.05 4.2 25.1 4.1 25.05 M4.75 25.85 L4.7 25.85 4.75 25.85 M-3.1 24.7 L-3.0 24.7 -3.05 24.75 -3.1 24.7 M-1.0 26.85 L-0.95 26.75 -0.95 26.85 -0.95 26.95 -1.0 26.95 -1.0 26.85 M-4.35 24.95 L-4.45 25.0 -4.45 24.9 -4.35 24.95 M-4.7 26.0 L-4.7 26.05 -4.75 26.0 -4.7 26.0" fill="#6b6f44" fill-rule="evenodd" stroke="none"/>
      <path d="M7.65 26.65 L7.8 26.65 7.85 26.65 8.05 26.9 7.95 27.25 8.05 27.35 8.2 27.6 8.25 27.7 8.4 28.4 8.35 28.65 8.2 28.7 7.95 28.5 7.9 28.35 7.85 28.25 7.85 28.2 7.8 27.8 7.35 27.45 7.05 27.1 7.1 27.0 7.1 26.95 7.3 26.95 7.7 27.05 7.55 26.85 7.65 26.65 M5.45 28.2 L5.25 28.4 5.2 28.4 5.05 28.4 5.05 28.5 4.95 28.7 4.95 28.75 4.9 28.95 4.85 29.0 4.6 29.0 4.6 28.95 4.55 28.95 4.45 29.0 4.45 28.95 4.4 28.8 4.5 28.65 4.55 28.55 4.65 28.5 4.6 28.4 4.75 28.15 4.9 28.15 4.95 27.9 5.2 27.95 5.45 28.2 M6.25 25.9 L6.55 26.15 6.55 26.25 6.35 26.3 5.75 26.2 5.65 26.2 5.05 26.3 4.8 26.25 4.75 26.1 Q4.75 25.85 5.35 25.85 L5.8 25.85 5.85 25.85 6.25 25.9 M3.65 27.45 L3.3 28.05 3.2 28.15 3.15 28.25 3.1 28.3 3.3 28.6 3.4 28.7 3.45 28.75 3.25 28.9 3.1 28.9 3.0 28.9 2.85 28.8 2.75 28.7 2.6 28.75 2.55 28.75 2.4 28.7 2.35 28.65 2.35 28.55 2.4 28.45 2.35 28.3 2.4 28.2 1.9 27.35 Q1.9 26.75 2.55 27.6 L2.75 27.8 2.8 27.7 2.85 27.65 2.9 27.55 3.3 27.15 Q3.7 26.8 3.7 27.3 L3.65 27.45 M-2.65 27.35 L-2.4 27.05 -2.2 27.35 -2.25 27.8 -2.4 28.15 -2.4 28.3 -2.4 28.65 -2.5 28.75 -2.6 28.75 -2.8 28.7 -3.15 28.9 -3.2 28.9 -3.3 28.9 -3.55 28.65 -3.3 28.15 -3.25 28.1 -3.3 28.1 -4.0 27.35 -4.6 26.7 -4.85 26.4 -4.85 26.3 Q-4.5 26.1 -3.8 26.8 L-3.75 26.7 -3.45 26.95 -3.15 27.3 -2.9 27.65 -2.8 27.5 -2.65 27.35 M-6.25 27.05 L-6.15 27.15 -6.0 27.2 -5.95 27.3 -5.65 27.5 -5.2 27.95 -4.6 28.85 -4.7 29.1 -4.8 29.1 -4.85 29.1 -5.1 28.8 -5.4 28.5 -5.45 28.45 -5.6 28.15 -5.8 28.05 -6.05 27.85 -6.25 27.7 -6.6 27.2 -6.55 27.2 -6.6 27.1 -6.45 27.0 -6.25 27.05 M-8.2 26.8 L-7.7 26.8 -7.7 27.05 -8.0 27.15 -8.2 27.1 -8.25 27.1 -8.3 26.95 -8.25 26.8 -8.2 26.8 M-8.65 28.5 L-8.7 28.15 Q-8.7 27.65 -8.4 27.65 -8.15 27.65 -8.15 28.0 L-8.15 28.25 Q-8.2 28.65 -8.4 28.65 L-8.65 28.5" fill="#ccb377" fill-rule="evenodd" stroke="none"/>
      <path d="M7.85 26.65 Q8.15 26.7 8.15 27.05 L8.05 27.35 7.95 27.25 8.05 26.9 7.85 26.65 M8.25 27.7 L8.5 28.35 8.35 28.65 8.4 28.4 8.25 27.7 M7.95 28.5 L7.85 28.45 7.9 28.35 7.95 28.5 M7.85 28.2 L7.8 28.1 Q7.6 27.5 7.05 27.5 6.1 27.5 5.45 28.2 L5.2 27.95 4.95 27.9 4.9 28.15 4.75 28.15 4.9 27.9 Q5.35 27.3 6.4 27.0 L7.1 27.0 7.05 27.1 7.35 27.45 7.8 27.8 7.85 28.2 M5.25 28.4 L4.95 28.75 4.95 28.7 5.05 28.5 5.05 28.4 5.2 28.4 5.25 28.4 M4.6 29.0 L4.55 28.95 4.6 28.95 4.6 29.0 M4.45 28.95 L4.35 28.9 4.4 28.8 4.45 28.95 M4.5 28.65 L4.6 28.4 4.65 28.5 4.55 28.55 4.5 28.65 M7.3 26.95 L7.65 26.65 7.55 26.85 7.7 27.05 7.3 26.95 M5.65 26.2 L5.0 26.4 4.05 27.0 3.65 27.45 3.7 27.3 Q3.7 26.8 3.3 27.15 L2.9 27.55 2.85 27.65 3.15 27.15 3.6 26.65 4.4 26.25 4.75 26.1 4.8 26.25 5.05 26.3 5.65 26.2 M3.15 28.25 L3.4 28.65 3.4 28.7 3.3 28.6 3.1 28.3 3.15 28.25 M2.25 28.55 L2.25 28.5 2.35 28.2 1.8 27.25 1.9 26.9 2.05 26.85 2.6 27.4 2.8 27.7 2.75 27.8 2.55 27.6 Q1.9 26.75 1.9 27.35 L2.4 28.2 2.35 28.3 2.4 28.45 2.35 28.55 2.35 28.65 2.25 28.55 M5.85 25.85 L6.2 25.9 6.25 25.9 5.85 25.85 M-2.1 27.1 L-2.1 27.35 -2.1 27.5 -2.25 27.8 -2.2 27.35 -2.4 27.05 -2.65 27.35 Q-2.2 26.75 -2.1 27.1 M-4.05 26.45 L-3.75 26.6 -3.45 26.85 -3.45 26.95 -3.75 26.7 -3.8 26.8 Q-4.5 26.1 -4.85 26.3 L-4.85 26.4 -4.6 26.7 -5.0 26.5 -5.5 26.35 -6.4 26.3 -6.5 26.3 -6.8 26.25 -6.85 26.15 -6.3 25.7 -5.45 25.85 -4.8 26.05 -4.7 26.1 -4.05 26.45 M-3.15 27.3 L-3.0 27.4 -2.9 27.65 -3.15 27.3 M-3.3 28.15 L-3.3 28.1 -3.25 28.1 -3.3 28.15 M-3.15 28.9 L-2.8 28.7 -2.6 28.75 -2.7 28.8 -3.15 28.9 M-2.4 28.65 L-2.4 28.3 -2.3 28.4 -2.3 28.5 -2.4 28.65 M-6.25 27.05 L-5.8 27.25 -5.75 27.25 -5.45 27.6 -5.2 27.85 -4.5 28.75 -4.7 29.1 -4.6 28.85 -5.2 27.95 -5.65 27.5 -5.95 27.3 -6.0 27.2 -6.15 27.15 -6.25 27.05 M-6.45 27.0 L-6.6 27.1 -6.55 27.2 -6.6 27.2 -6.25 27.7 -6.8 27.5 -6.9 27.5 Q-7.55 27.5 -8.0 28.05 L-8.15 28.25 -8.15 28.0 Q-8.15 27.65 -8.4 27.65 -8.7 27.65 -8.7 28.15 L-8.65 28.5 -8.75 28.15 -8.3 27.3 -8.25 27.25 -8.15 27.2 -8.2 27.1 -8.0 27.15 -7.7 27.05 -7.7 26.8 -8.2 26.8 Q-8.15 26.65 -7.9 26.65 -7.65 26.65 -7.6 26.95 L-6.6 26.9 -6.45 27.0 M-5.8 28.05 L-5.6 28.15 -5.45 28.45 -5.55 28.3 -5.8 28.05" fill="#efe7d3" fill-rule="evenodd" stroke="none"/>
      <path d="M3.45 29.0 L5.4 29.2 6.35 29.15 6.45 29.15 6.5 29.15 6.45 29.2 6.55 29.4 6.35 29.8 6.4 29.95 6.35 29.95 5.25 30.05 4.45 29.95 3.85 29.95 3.85 29.9 3.65 29.75 3.65 29.6 3.45 29.3 Q3.65 29.15 3.45 29.0 M7.65 28.85 L8.0 28.8 8.3 28.75 8.35 28.7 8.6 28.55 8.9 28.5 9.0 28.45 Q9.25 28.45 9.3 28.6 L9.1 28.55 8.7 28.65 7.8 28.85 7.65 28.85 M2.05 29.3 Q1.25 28.9 1.4 28.5 L1.65 28.45 1.55 28.7 2.0 29.2 2.05 29.3 M-2.6 28.75 L-2.5 28.75 -2.35 28.7 -2.3 28.7 -2.0 28.6 Q-1.8 28.6 -1.7 28.75 L-2.65 28.8 -2.7 28.8 -2.6 28.75 M-6.65 29.05 L-6.65 29.2 -6.45 29.55 -6.7 29.9 -6.65 30.1 -6.8 30.05 -8.7 29.6 Q-9.6 29.15 -9.6 28.55 -9.6 28.2 -9.25 28.35 L-8.75 28.65 -8.4 28.75 -7.45 28.9 -6.8 29.05 -6.65 29.05 M-6.35 30.1 L-6.15 30.0 -4.75 30.05 -5.45 30.1 -5.65 30.1 -6.35 30.1" fill="#856536" fill-rule="evenodd" stroke="none"/>
      <path d="M3.25 28.9 L3.3 28.9 3.45 29.0 Q3.65 29.15 3.45 29.3 L3.65 29.6 3.65 29.75 3.85 29.9 3.85 29.95 3.55 30.15 Q2.85 30.15 2.35 29.65 L2.05 29.3 2.0 29.2 1.55 28.7 1.65 28.45 2.25 28.55 2.35 28.65 2.4 28.7 2.55 28.75 2.85 28.8 3.0 28.9 3.1 28.9 3.25 28.9 M6.5 29.15 Q6.6 28.95 7.65 28.85 L7.8 28.85 8.7 28.65 9.1 28.55 9.3 28.6 9.4 28.8 Q9.4 29.15 8.45 29.6 L8.4 29.6 8.35 29.65 6.65 30.05 6.4 29.95 6.35 29.8 6.55 29.4 6.45 29.2 6.5 29.15 M-3.2 28.9 L-3.15 28.9 -2.7 28.8 -2.65 28.8 -1.7 28.75 Q-1.55 28.75 -1.55 28.85 -1.55 29.15 -2.7 29.6 L-4.6 30.05 -4.75 30.05 -6.15 30.0 -6.35 30.1 -6.45 30.1 -6.65 30.1 -6.7 29.9 -6.45 29.55 -6.65 29.2 -6.65 29.05 -6.4 29.05 -6.3 29.0 -5.1 29.1 -4.85 29.1 -4.8 29.1 -4.7 29.1 -3.3 28.95 -3.2 28.9" fill="#544023" fill-rule="evenodd" stroke="none"/>
      <path d="M-1.9 24.6 Q-1.8 24.45 -1.5 24.45 -1.3 24.45 -1.2 24.8 L-1.1 25.55 -1.15 26.3 -1.15 26.4 Q-1.15 26.85 -1.6 26.85 L-2.05 26.5 -2.0 26.5 -2.05 26.45 -2.05 26.4 -2.15 26.1 -2.0 25.75 -2.05 25.4 -2.0 24.9 -2.0 24.7 -1.95 24.7 -1.95 24.65 -1.9 24.6" fill="#836a5a" fill-rule="evenodd" stroke="none"/>
      <path d="M-0.95 26.75 L-1.0 26.65 -0.8 26.5 -0.95 26.75" fill="#a7a672" fill-rule="evenodd" stroke="none"/>
      <path d="M-4.25 24.9 L-3.7 24.85 -3.65 24.8 -3.4 24.7 -3.25 24.65 -3.1 24.7 -3.05 24.75 -3.0 24.7 -2.7 24.4 -2.35 24.05 -2.3 24.05 -2.3 24.1 -2.2 24.0 Q-1.95 23.9 -1.95 24.25 L-2.0 24.45 -1.95 24.7 -2.0 24.7 -2.0 24.9 -2.05 25.4 -2.0 25.75 -2.15 26.1 -2.05 26.4 -2.3 26.45 -2.3 26.05 -2.35 26.05 -2.35 25.85 -2.6 24.75 -3.05 25.2 -4.15 26.1 -4.05 26.25 -4.05 26.4 -4.05 26.45 -4.7 26.1 -4.7 26.05 -4.7 26.0 -5.05 25.05 -4.8 25.1 -4.45 25.0 -4.35 24.95 -4.25 24.9 M2.35 24.1 L2.6 24.3 2.7 24.35 2.85 24.5 2.9 24.5 3.1 24.6 3.1 24.8 2.5 26.75 2.45 26.8 2.4 26.8 1.45 25.9 0.75 24.85 0.7 24.9 0.25 26.85 0.15 26.95 -0.05 26.7 -0.05 26.55 0.0 26.3 0.05 25.85 -0.1 25.75 -0.2 25.55 -0.2 25.5 -0.05 25.1 0.2 24.8 0.4 24.35 0.55 24.1 0.95 23.25 1.1 23.35 1.25 23.1 1.55 23.4 2.05 23.85 2.35 24.1 M4.15 25.0 L4.3 25.0 4.5 25.05 4.9 25.1 5.25 25.35 5.3 25.5 5.05 25.75 5.0 25.75 5.0 25.8 4.8 25.85 4.75 25.85 4.7 25.85 4.15 25.45 3.65 25.0 3.7 25.0 3.7 24.95 3.95 24.95 4.1 25.05 4.2 25.1 4.2 25.05 4.15 25.0 M-0.05 22.85 L0.0 22.85 Q0.5 22.9 0.5 23.45 0.45 24.65 -0.15 24.65 L-0.35 24.3 -0.55 23.25 Q-0.55 22.85 -0.15 22.85 L-0.05 22.85 M-0.8 26.5 L-0.55 26.45 -0.4 26.5 Q-0.3 26.55 -0.35 26.7 L-0.4 26.7 -0.95 27.05 -0.95 26.95 -0.95 26.85 -0.95 26.75 -0.8 26.5" fill="#da5858" fill-rule="evenodd" stroke="none"/>
      <path d="M0.15 22.85 L0.9 22.9 1.05 22.9 1.25 23.1 1.1 23.35 0.95 23.25 0.55 24.1 0.4 24.35 0.2 24.8 -0.05 25.1 -0.2 25.5 -0.2 25.35 -0.4 24.3 -0.35 24.3 -0.15 24.65 Q0.45 24.65 0.5 23.45 0.5 22.9 0.0 22.85 L0.1 22.85 0.15 22.85 M3.1 24.6 L3.15 24.65 3.35 24.8 3.5 24.9 3.7 25.0 3.65 25.0 4.15 25.45 4.7 25.85 4.4 26.1 3.2 26.55 2.5 26.75 3.1 24.8 3.1 24.6 M1.9 26.9 L1.05 27.0 0.25 26.85 0.7 24.9 0.75 24.85 1.45 25.9 2.4 26.8 2.05 26.85 1.9 26.9 M-2.05 26.45 L-2.05 26.65 -2.1 26.65 -2.75 26.7 -3.75 26.4 -3.8 26.35 -4.05 26.25 -4.15 26.1 -3.05 25.2 -2.6 24.75 -2.35 25.85 -2.35 26.05 -2.3 26.05 -2.3 26.45 -2.05 26.4 -2.05 26.45 M-5.05 25.05 L-4.7 26.0 -4.75 26.0 -5.6 25.45 Q-5.6 25.1 -5.2 25.0 L-5.05 25.05" fill="#992222" fill-rule="evenodd" stroke="none"/>
      <path d="M3.6 19.35 L4.05 19.85 4.35 21.1 4.3 21.1 4.4 21.35 4.9 22.4 5.55 23.45 5.75 24.35 Q5.75 25.05 5.45 25.05 L5.4 25.05 5.3 25.15 5.2 25.2 5.45 25.45 5.45 25.6 6.05 25.75 Q6.55 25.95 6.55 26.1 L6.65 26.1 6.7 26.25 6.65 26.35 6.15 26.35 6.0 26.3 Q4.9 26.2 4.05 27.15 L3.3 28.25 3.2 28.2 3.5 28.75 3.45 28.85 4.3 28.95 4.25 28.9 Q4.15 28.7 4.4 28.45 L4.95 27.65 Q5.5 27.0 6.8 26.75 L7.15 26.85 7.15 26.75 Q7.8 26.35 8.05 26.75 L8.1 26.95 8.15 27.3 8.05 27.3 8.1 27.35 8.25 27.5 8.45 28.0 8.55 28.25 8.55 28.5 8.75 28.45 9.05 27.9 8.9 27.9 8.9 27.8 Q9.45 27.7 9.45 28.25 L9.3 29.45 9.1 29.45 8.2 29.9 5.6 30.3 Q2.95 30.3 1.45 29.35 L1.45 29.4 1.4 29.35 1.4 29.3 1.2 28.55 1.4 28.15 1.45 28.15 2.0 28.05 1.7 28.35 1.9 28.45 2.15 28.2 1.95 27.85 1.55 27.2 1.15 27.2 0.4 27.1 0.2 27.1 0.1 27.0 -0.1 26.6 -0.2 26.25 -0.3 26.3 -0.3 26.4 -0.4 26.6 -0.4 26.65 -0.35 26.6 -0.3 26.65 -0.45 26.9 -0.65 27.1 -0.7 27.1 -0.95 27.1 -0.95 27.45 -1.0 27.45 -1.0 27.6 -1.15 27.7 -1.2 27.45 -1.15 27.45 -1.2 27.05 -1.25 26.45 -1.25 24.35 -1.3 23.65 -1.25 23.2 -1.8 23.7 -1.8 24.65 -2.05 27.45 -1.6 27.65 -1.65 27.7 -1.25 27.55 -1.2 27.65 Q-1.4 27.85 -1.7 27.85 L-1.75 27.85 -1.95 27.85 -2.1 27.75 -2.4 28.15 -2.1 28.45 -1.9 28.35 -2.2 28.05 -1.65 28.15 -1.6 28.15 -1.4 28.55 -1.6 29.3 -1.6 29.35 -1.65 29.4 -1.65 29.35 Q-3.15 30.3 -5.85 30.3 L-8.55 29.9 -9.45 29.45 -9.65 29.45 -9.8 28.25 Q-9.8 27.7 -9.25 27.8 L-9.25 27.9 -9.4 27.9 -9.1 28.45 -8.9 28.5 -8.9 28.25 -8.8 28.0 -8.6 27.5 -8.45 27.35 -8.4 27.3 -8.5 27.3 -8.45 26.95 -8.35 26.75 Q-8.1 26.35 -7.45 26.75 L-7.45 26.85 -7.1 26.75 Q-5.75 27.0 -5.2 27.65 L-4.65 28.45 Q-4.4 28.7 -4.5 28.9 L-4.55 28.95 -3.7 28.85 -3.75 28.75 -3.4 28.2 -3.5 28.25 -4.3 27.15 Q-5.15 26.2 -6.3 26.3 L-6.45 26.35 -6.95 26.35 -7.0 26.25 -6.95 26.1 -6.85 26.1 -6.35 25.75 -5.9 25.6 Q-5.9 25.35 -5.5 25.0 -5.9 24.8 -5.9 24.35 -5.9 23.9 -5.3 22.85 L-4.85 21.65 -4.25 20.3 -4.25 20.25 -3.9 19.55 -3.2 18.95 -2.9 19.05 -2.9 19.3 -3.15 19.25 -3.55 19.55 -3.9 20.0 -3.9 20.05 -3.8 19.95 Q-2.85 19.05 -1.8 19.05 -1.3 19.05 1.1 20.1 2.35 19.3 3.25 19.8 L3.75 20.15 3.85 20.3 3.7 19.95 3.3 19.4 3.15 19.35 3.15 19.3 3.1 19.25 3.15 19.25 3.1 19.1 3.6 19.3 3.6 19.35 M3.3 20.05 L1.9 19.95 1.1 20.6 0.0 21.6 0.5 22.1 1.25 22.75 1.25 22.85 2.25 24.0 Q3.3 24.95 4.55 24.95 L5.3 24.8 5.35 24.85 5.5 24.35 5.25 23.55 4.55 22.4 3.85 20.6 3.3 20.05 M0.35 22.55 L0.1 22.3 -0.1 22.4 -0.35 22.55 -0.3 22.65 Q0.0 22.9 0.2 22.65 0.25 22.55 0.35 22.55 M0.4 22.95 L-0.3 22.95 -0.5 22.85 -0.35 24.6 -0.25 24.6 0.2 24.65 0.2 24.7 0.35 24.7 0.1 25.0 -0.1 25.3 -0.15 25.3 -0.15 25.5 -0.1 25.45 0.15 26.7 0.35 26.85 1.3 26.95 3.7 26.25 5.3 25.55 5.05 25.2 4.55 25.2 Q3.65 25.2 2.35 24.2 L1.2 23.1 1.2 23.2 1.1 23.15 0.8 24.35 0.95 23.0 0.9 22.95 0.5 22.95 0.5 23.0 0.4 22.95 M0.55 24.05 L0.35 24.65 0.55 23.75 0.55 24.05 M1.55 28.6 L1.6 28.6 1.5 28.55 1.5 28.65 1.55 28.6 M2.2 27.15 L1.85 27.2 2.05 27.6 2.05 27.65 2.85 28.75 2.6 28.75 2.35 28.4 2.25 28.6 2.6 28.75 2.95 28.8 3.35 28.85 2.65 27.95 2.2 27.15 M2.7 27.6 L3.25 26.85 2.3 27.1 2.7 27.6 M9.1 29.15 L9.1 28.9 Q8.75 29.0 8.55 29.15 L8.4 29.15 7.3 29.5 4.0 29.65 2.4 29.55 3.55 29.85 5.6 30.0 8.4 29.55 9.1 29.15 M5.4 29.45 L6.95 29.4 9.05 28.75 9.05 28.8 9.15 28.75 9.2 28.45 8.95 28.55 8.3 28.85 5.5 29.15 2.2 28.85 1.8 28.75 1.55 28.7 1.55 28.8 3.3 29.2 5.4 29.45 M6.8 27.6 L6.65 27.6 Q6.1 27.65 5.55 28.3 L4.9 28.95 5.5 28.95 7.9 28.7 7.9 28.45 Q7.6 27.65 6.8 27.6 M3.2 28.2 Q3.25 27.45 4.3 26.65 5.3 25.95 6.05 26.2 L6.15 26.15 6.45 26.2 Q6.25 25.9 5.35 25.8 L3.85 26.65 3.45 27.0 3.1 27.4 2.85 27.8 3.0 27.95 3.2 28.2 M8.0 27.35 L7.95 27.35 Q7.5 27.0 6.5 27.0 5.75 27.0 5.05 27.9 L4.5 28.65 4.5 28.7 4.45 28.95 4.75 28.95 4.75 28.85 5.8 27.6 5.85 27.6 5.9 27.55 6.75 27.4 7.55 27.55 8.05 28.2 8.05 28.65 8.35 28.55 8.3 28.05 8.0 27.35 M7.9 26.85 L7.65 26.8 7.45 26.95 7.95 27.2 7.9 26.85 M-5.45 24.5 Q-5.3 24.85 -4.6 24.85 L-4.05 24.85 -3.05 24.45 -2.4 24.0 -1.25 22.8 -1.25 22.75 -1.2 22.75 -1.05 22.5 Q-0.5 21.65 0.85 20.3 L-0.15 19.85 Q-1.15 19.35 -2.2 19.35 -3.05 19.35 -3.75 20.15 L-4.15 20.75 -4.45 21.45 -5.2 23.5 -5.55 24.25 -5.5 24.45 -5.5 24.55 -5.45 24.5 M-0.55 22.4 L-0.05 22.1 -0.15 21.8 -0.6 22.35 -0.55 22.4 M-0.95 22.8 L-1.15 23.1 -1.15 23.55 -1.05 24.45 -1.05 24.5 -1.05 24.75 -0.95 26.6 -0.65 26.0 -0.75 22.7 -0.8 22.6 -0.95 22.8 M-0.1 26.2 L-0.15 26.05 -0.15 26.15 -0.1 26.2 M-0.25 25.95 L-0.3 25.85 -0.3 25.95 -0.25 25.95 M-2.35 27.05 L-2.85 27.95 -3.55 28.85 -3.15 28.8 -2.8 28.75 -3.05 28.75 -2.25 27.7 -2.3 27.65 -2.25 27.55 -2.3 27.45 -2.3 27.0 -2.35 27.05 M-2.35 26.55 L-2.3 26.7 -2.15 25.1 -1.95 23.85 -2.95 24.75 -3.0 24.75 -3.1 24.85 -4.5 25.05 -4.7 25.05 -4.85 25.1 -5.35 25.05 -5.6 25.45 -4.25 26.15 -2.5 26.55 -2.35 26.55 M-0.95 26.85 L-0.8 26.85 -0.75 26.9 -0.65 26.85 -0.55 26.65 -0.8 26.65 -0.8 26.75 -0.95 26.75 -0.95 26.85 M-0.95 26.7 L-0.9 26.65 -0.95 26.65 -0.95 26.7 M-4.65 26.35 L-5.65 25.8 Q-6.55 25.9 -6.75 26.2 L-6.45 26.15 -6.35 26.2 Q-5.55 25.95 -4.55 26.65 -3.45 27.45 -3.4 28.2 L-3.2 27.95 -3.1 27.85 -3.4 27.35 -3.4 27.3 -3.7 27.0 -4.15 26.55 -4.65 26.35 M-3.05 27.8 L-3.1 27.6 -3.15 27.55 -3.05 27.8 M-3.15 27.25 L-3.0 27.45 -2.9 27.6 -2.4 27.0 -3.45 26.8 -3.15 27.25 M-2.55 28.4 L-2.8 28.75 -2.45 28.6 -2.55 28.4 M-4.75 28.7 L-4.75 28.65 Q-4.95 28.25 -5.3 27.9 -6.05 27.0 -6.8 27.0 -7.8 27.0 -8.25 27.35 L-8.3 27.35 -8.65 28.05 -8.7 28.55 -8.4 28.65 -8.4 28.2 -7.85 27.55 -7.05 27.4 -6.2 27.55 -6.15 27.6 -6.1 27.6 -5.0 28.85 -5.0 28.95 -4.7 28.95 -4.75 28.7 M-2.6 29.55 L-4.25 29.65 -7.6 29.5 -8.75 29.15 -8.9 29.15 -9.45 28.9 -9.45 29.05 -9.45 29.15 -8.75 29.55 -5.85 30.0 -3.8 29.85 -2.6 29.55 M-1.75 28.6 L-1.7 28.65 -1.7 28.55 -1.8 28.6 -1.75 28.6 M-2.4 28.85 L-5.75 29.15 -8.65 28.85 -9.3 28.55 -9.55 28.45 -9.5 28.75 -9.4 28.8 -9.4 28.75 -7.25 29.4 -5.65 29.45 -3.5 29.2 -1.75 28.8 -1.75 28.7 -2.0 28.75 -2.4 28.85 M-1.8 29.25 L-1.75 29.25 -1.8 29.25 M-7.1 27.6 Q-7.9 27.65 -8.2 28.45 L-8.2 28.7 -5.75 28.95 -5.15 28.95 -5.8 28.3 Q-6.4 27.65 -6.95 27.6 L-7.1 27.6 M-8.2 26.85 L-8.25 27.2 -7.75 26.95 -7.95 26.8 -8.2 26.85 M-8.35 28.7 L-8.35 28.65 -8.4 28.65 -8.35 28.7" fill="#000000" fill-rule="evenodd" stroke="none"/>
      <path d="M0.35 21.45 L2.65 23.6 Q4.05 24.75 5.15 24.35 L5.2 24.45 5.15 24.55 4.65 24.55 Q2.9 24.55 1.75 23.0 L0.3 21.45 0.35 21.45 M-5.3 24.1 L-5.15 24.25 -4.9 24.3 -4.9 24.35 -4.05 24.35 -2.6 23.4 -1.55 22.4 -0.8 21.4 0.2 20.5 -1.3 22.4 Q-2.65 24.2 -4.4 24.5 L-5.0 24.45 -5.05 24.4 -5.2 24.4 -5.35 24.1 -5.3 24.1" fill="#3f3a1f" fill-rule="evenodd" stroke="none"/>
    </g>
  </defs>
</svg>
