<?xml version="1.0" encoding="UTF-8" standalone="no"?>
<svg xmlns:ffdec="https://www.free-decompiler.com/flash" xmlns:xlink="http://www.w3.org/1999/xlink" ffdec:objectType="frame" height="17.15px" width="27.3px" xmlns="http://www.w3.org/2000/svg">
  <g transform="matrix(1.0, 0.0, 0.0, 1.0, 13.4, -13.55)">
    <use ffdec:characterId="20" height="4.1" transform="matrix(1.0, 0.0, 0.0, 1.0, -7.35, 28.65)" width="8.95" xlink:href="#sprite0"/>
    <use ffdec:characterId="20" height="4.1" transform="matrix(-1.0, 0.0, 0.0, 1.0, 6.45, 28.5)" width="8.95" xlink:href="#sprite0"/>
    <use ffdec:characterId="23" height="14.15" transform="matrix(1.0, 0.0, 0.0, 1.0, 0.0, 0.0)" width="16.35" xlink:href="#shape1"/>
    <use ffdec:characterId="6" height="11.65" transform="matrix(1.0, 0.0, 0.0, 1.0, -7.45, 19.6)" width="10.8" xlink:href="#sprite1"/>
    <use ffdec:characterId="6" height="11.65" transform="matrix(-1.0, 0.0, 0.0, 1.0, 7.95, 19.6)" width="10.8" xlink:href="#sprite1"/>
    <use ffdec:characterId="10" height="2.3" transform="matrix(1.0, 0.0, 0.0, 1.0, 0.25, 20.75)" width="2.1" xlink:href="#sprite2"/>
    <use ffdec:characterId="10" height="2.3" transform="matrix(1.0, 0.0, 0.0, 1.0, 0.25, 23.55)" width="2.1" xlink:href="#sprite2"/>
    <use ffdec:characterId="12" height="7.8" transform="matrix(1.0, 0.0, 0.0, 1.0, 0.25, 17.45)" width="13.15" xlink:href="#sprite3"/>
    <use ffdec:characterId="4" height="4.15" transform="matrix(1.0, 0.0, 0.0, 1.0, 4.7, 24.6)" width="4.55" xlink:href="#sprite4"/>
    <use ffdec:characterId="4" height="4.15" transform="matrix(-1.0, 0.0, 0.0, 1.0, -4.3, 24.6)" width="4.55" xlink:href="#sprite4"/>
    <use ffdec:characterId="8" height="3.6" transform="matrix(1.0, 0.0, 0.0, 1.0, 10.0, 22.1)" width="5.75" xlink:href="#sprite5"/>
    <use ffdec:characterId="8" height="3.6" transform="matrix(-1.0, 0.0, 0.0, 1.0, -9.35, 21.75)" width="5.75" xlink:href="#sprite5"/>
  </g>
  <defs>
    <g id="sprite0">
      <use ffdec:characterId="19" height="4.1" transform="matrix(1.0, 0.0, 0.0, 1.0, 0.0, 0.0)" width="8.95" xlink:href="#shape0"/>
    </g>
    <g id="shape0">
      <path d="M0.9 -0.25 L1.1 -0.4 1.3 -0.8 0.65 -0.65 0.65 -0.3 0.9 -0.25 M-1.4 -1.4 L-1.25 -1.3 -0.95 -1.0 -0.1 -1.15 0.45 -0.8 0.8 -0.95 Q1.4 -1.1 1.4 -0.55 L1.2 -0.2 1.0 0.0 1.05 0.05 1.6 -0.2 1.85 0.0 1.95 0.2 1.95 0.25 Q2.45 0.25 2.45 0.7 2.45 1.1 1.85 1.1 L0.9 0.9 0.45 0.95 -0.4 0.75 -0.95 0.85 -1.65 0.75 -2.2 0.9 Q-2.65 0.9 -2.65 0.55 L-2.15 0.05 Q-2.85 -0.1 -2.85 -0.5 -2.85 -0.75 -2.1 -0.8 L-2.25 -1.05 -2.25 -1.1 -2.3 -1.2 Q-2.3 -1.55 -1.7 -1.5 L-1.4 -1.4 M3.0 -0.45 L2.95 -0.55 2.75 -1.0 3.05 -1.25 3.4 -1.45 3.8 -1.35 Q4.15 -1.85 4.4 -1.6 L4.65 -1.15 4.25 -0.6 4.1 -0.4 4.25 -0.15 4.0 0.05 3.75 -0.15 3.75 -0.2 3.55 -0.2 3.2 -0.3 3.0 -0.45 M-0.85 -0.65 Q-0.85 -0.15 -0.2 -0.15 0.25 -0.15 0.25 -0.6 0.25 -1.05 -0.25 -1.05 -0.85 -1.05 -0.85 -0.65 M-1.45 -0.8 L-1.5 -0.95 -1.75 -0.95 -1.9 -0.8 -1.85 -0.65 -1.5 -0.65 -1.45 -0.8" fill="#fa91d9" fill-rule="evenodd" stroke="none"/>
      <path d="M0.9 -0.25 L0.65 -0.3 0.65 -0.65 1.3 -0.8 1.1 -0.4 0.9 -0.25 M-1.45 -0.8 L-1.5 -0.65 -1.85 -0.65 -1.9 -0.8 -1.75 -0.95 -1.5 -0.95 -1.45 -0.8 M-0.85 -0.65 Q-0.85 -1.05 -0.25 -1.05 0.25 -1.05 0.25 -0.6 0.25 -0.15 -0.2 -0.15 -0.85 -0.15 -0.85 -0.65" fill="#fffafc" fill-rule="evenodd" stroke="none"/>
      <path d="M-2.25 -1.05 L-2.1 -0.8 Q-2.85 -0.75 -2.85 -0.5 -2.85 -0.1 -2.15 0.05 L-2.65 0.55 Q-2.65 0.9 -2.2 0.9 L-1.65 0.75 -0.95 0.85 -0.4 0.75 0.45 0.95 0.9 0.9 1.85 1.1 Q2.45 1.1 2.45 0.7 2.45 0.25 1.95 0.25 L1.95 0.2 1.85 0.0 1.6 -0.2 1.05 0.05 1.0 0.0 1.2 -0.2 1.4 -0.55 Q1.4 -1.1 0.8 -0.95 L0.45 -0.8 -0.1 -1.15 -0.95 -1.0 -1.25 -1.3 -1.4 -1.4 0.7 -1.55 2.35 -0.75 2.3 -0.95 3.05 -1.5 4.3 -1.95 Q4.75 -1.95 4.75 -0.15 4.75 0.95 4.0 0.95 3.55 0.95 3.4 0.2 L3.2 -0.3 3.55 -0.2 3.75 -0.2 3.75 -0.15 4.0 0.05 4.25 -0.15 4.1 -0.4 4.25 -0.6 4.65 -1.15 4.4 -1.6 Q4.15 -1.85 3.8 -1.35 L3.4 -1.45 3.05 -1.25 2.75 -1.0 2.95 -0.55 3.0 -0.45 2.55 -0.6 2.8 -0.4 Q3.3 0.05 3.3 0.75 L3.15 1.35 1.8 1.75 0.3 1.75 -0.45 1.6 -0.75 1.75 -2.1 1.5 -3.0 1.1 -3.4 0.15 Q-3.4 -0.5 -2.25 -1.05" fill="#ff5da0" fill-rule="evenodd" stroke="none"/>
      <path d="M2.5 -1.05 L3.25 -0.45 Q3.8 0.1 3.75 0.8 L4.2 0.65 Q4.6 0.5 4.6 -0.5 4.6 -1.8 4.25 -1.8 3.7 -1.8 3.1 -1.4 L2.5 -1.05 M2.65 0.05 L2.6 0.0 1.65 -0.85 0.3 -1.45 -0.9 -1.5 -1.15 -1.65 Q-1.35 -1.65 -1.4 -1.45 L-1.8 -1.55 Q-2.35 -1.55 -2.35 -1.1 L-2.3 -0.95 -2.75 -0.65 Q-3.25 -0.8 -3.25 -0.3 L-3.0 0.1 -3.1 0.35 Q-3.55 0.4 -3.55 0.8 -3.5 1.1 -3.15 1.1 L-2.75 1.0 -0.9 1.35 1.2 1.45 2.75 1.35 3.1 1.15 3.15 0.7 3.1 0.65 3.3 0.3 Q3.3 -0.05 2.95 -0.05 L2.65 0.05 M2.4 -1.1 Q2.5 -1.35 3.2 -1.65 L4.65 -2.05 Q5.15 -2.05 5.15 0.4 5.15 0.75 4.35 1.25 L3.3 1.75 3.1 1.85 1.7 2.05 0.0 2.0 -2.0 1.9 Q-3.15 1.8 -3.45 1.45 L-3.8 0.9 -3.7 0.0 -3.35 -0.65 -2.35 -1.55 Q-1.4 -2.15 -0.2 -2.0 L1.85 -1.45 Q2.15 -1.3 2.4 -1.1" fill="#000000" fill-rule="evenodd" stroke="none"/>
      <path d="M2.65 0.05 L2.95 -0.05 Q3.3 -0.05 3.3 0.3 L3.1 0.65 3.05 0.65 3.05 0.6 Q3.05 0.25 2.6 0.05 L2.65 0.05 M-2.75 1.0 L-3.15 1.1 Q-3.5 1.1 -3.55 0.8 -3.55 0.4 -3.1 0.35 L-2.95 0.35 -2.75 0.95 -2.75 1.0 M-3.0 0.1 L-3.25 -0.3 Q-3.25 -0.8 -2.75 -0.65 L-3.0 0.05 -3.0 0.1 M-2.3 -0.95 L-2.35 -1.1 Q-2.35 -1.55 -1.8 -1.55 L-1.4 -1.45 Q-1.35 -1.65 -1.15 -1.65 L-0.9 -1.5 -0.85 -1.35 -1.3 -1.3 -2.3 -0.95" fill="#ff5da0" fill-rule="evenodd" stroke="none"/>
    </g>
    <g id="shape1">
      <path d="M2.15 15.65 L2.25 15.6 3.45 14.85 3.95 14.95 4.1 15.1 4.1 17.1 4.05 17.45 4.1 17.55 4.5 17.95 Q4.9 18.3 4.9 18.9 L4.8 19.6 4.45 19.5 4.05 19.65 Q4.0 18.65 3.3 17.85 2.5 17.05 1.5 17.45 L1.4 17.4 1.65 17.2 1.9 16.75 Q1.9 16.4 1.25 16.5 0.7 16.6 0.65 17.15 L0.35 17.15 -0.7 17.3 -1.45 17.15 -2.15 17.05 -2.35 17.1 -2.6 17.4 -2.6 17.55 -3.15 17.6 -3.15 17.55 Q-3.4 17.55 -3.45 17.7 L-3.55 17.75 -3.65 17.85 Q-4.1 18.45 -4.15 18.95 L-3.8 18.85 -3.45 19.1 -3.85 19.35 -4.15 19.35 -3.9 20.05 -3.55 19.8 Q-2.9 19.65 -2.55 20.05 L-2.3 20.45 Q-2.3 20.95 -3.25 21.0 L-3.7 20.95 -4.1 21.3 -4.45 21.2 Q-4.7 21.65 -4.45 22.0 -5.05 22.4 -5.05 22.95 L-5.0 23.6 -5.4 23.95 Q-5.55 23.8 -5.8 23.75 L-6.05 23.75 -5.7 23.25 Q-5.4 23.0 -5.35 22.55 L-5.3 21.8 -4.85 20.9 -4.55 20.3 -4.6 19.9 -5.0 18.9 -5.45 17.2 Q-5.45 15.45 -3.8 15.35 -3.25 15.35 -2.45 15.8 -1.5 16.75 -0.15 16.65 0.45 16.65 1.3 16.25 2.15 15.85 2.15 15.65 M6.85 23.55 L7.05 23.85 6.9 24.1 6.9 24.15 6.5 24.35 7.1 25.5 7.55 25.65 7.9 26.0 7.9 26.05 7.7 26.35 7.3 26.5 7.2 26.5 7.2 26.6 7.15 26.5 6.65 26.45 6.25 26.55 Q5.95 26.75 5.95 26.9 L5.95 26.95 5.85 26.95 5.4 27.35 Q5.05 27.7 4.45 27.75 L4.35 27.75 3.45 27.7 3.3 27.75 3.15 27.9 3.15 27.95 2.95 28.35 2.75 28.5 2.4 28.6 2.05 28.45 1.95 28.2 2.05 27.9 1.9 27.85 1.65 27.8 1.65 27.65 Q1.65 27.4 1.2 27.35 0.75 27.35 0.75 27.7 L1.0 28.0 0.8 28.15 0.0 28.2 -0.5 27.9 -0.55 27.6 -0.9 27.75 -1.3 28.0 -2.1 28.0 -2.25 27.95 -2.4 28.15 -2.55 28.4 -2.85 28.55 -3.3 28.2 -3.3 28.15 Q-3.3 27.75 -2.9 27.55 L-3.1 27.45 Q-3.75 27.15 -3.75 27.7 L-3.7 27.85 -3.75 27.85 -4.0 27.8 -4.35 27.8 -3.9 27.4 Q-3.9 27.05 -4.7 27.1 L-5.35 27.3 -5.65 26.9 -5.75 26.9 -6.55 26.85 -6.45 26.75 -6.3 26.55 Q-6.3 26.2 -6.85 26.2 L-7.15 26.3 -7.15 26.25 -6.85 25.5 Q-6.55 25.1 -6.75 24.75 L-6.3 24.05 -6.3 24.15 -5.95 24.55 Q-6.25 25.25 -5.85 26.05 -5.25 27.05 -4.05 26.85 L-4.0 26.85 Q-4.5 26.8 -4.5 26.35 -4.5 25.8 -3.8 25.85 -3.2 25.9 -3.2 26.25 L-3.35 26.7 Q-2.4 27.95 -0.7 27.15 L0.45 26.75 0.65 27.0 1.15 27.0 1.4 26.75 1.55 26.65 Q1.6 26.3 1.95 26.65 L2.1 26.95 2.15 27.0 Q1.95 27.0 1.95 27.15 1.95 27.45 2.3 27.45 2.7 27.45 2.7 27.15 L2.7 27.1 4.4 26.85 4.25 26.95 Q4.25 27.2 4.65 27.2 5.2 27.2 5.2 26.85 L4.95 26.6 4.65 26.7 5.0 26.45 Q4.55 26.4 4.55 26.1 4.55 25.85 5.1 25.7 L5.55 25.65 5.65 25.5 5.9 24.8 Q5.75 24.25 5.1 24.0 L4.95 23.65 5.0 23.0 4.7 22.7 4.55 22.6 4.8 21.45 Q4.65 20.7 3.95 20.55 L4.05 20.1 4.5 20.15 4.8 20.05 5.1 20.35 Q5.4 20.55 5.4 21.4 L5.7 22.3 5.75 22.3 Q6.2 22.25 6.2 22.7 L6.1 22.95 6.0 23.1 6.2 23.6 6.6 23.5 6.85 23.55 M3.45 17.0 L3.2 16.9 Q2.9 16.9 2.9 17.05 L3.15 17.3 3.4 17.2 3.45 17.0 M-3.2 16.05 Q-3.85 15.95 -3.85 16.45 -3.85 17.15 -2.85 17.1 L-2.5 16.95 -2.5 16.7 Q-2.5 16.2 -3.2 16.05 M-4.5 25.55 Q-4.5 25.85 -4.9 25.85 -5.3 25.85 -5.3 25.55 -5.3 25.25 -4.8 25.25 -4.5 25.25 -4.5 25.55" fill="#7ed9ef" fill-rule="evenodd" stroke="none"/>
      <path d="M4.1 17.55 L4.95 18.15 5.4 19.25 5.25 20.1 5.65 20.45 5.75 20.75 5.75 21.2 5.7 21.85 5.75 21.85 5.95 21.9 Q6.4 22.2 6.4 22.75 L6.4 23.1 6.65 23.35 6.85 23.55 6.6 23.5 6.2 23.6 6.0 23.1 6.1 22.95 6.2 22.7 Q6.2 22.25 5.75 22.3 L5.7 22.3 5.4 21.4 Q5.4 20.55 5.1 20.35 L4.8 20.05 4.5 20.15 4.05 20.1 3.9 19.85 4.05 19.65 4.45 19.5 4.8 19.6 4.9 18.9 Q4.9 18.3 4.5 17.95 L4.1 17.55 M6.9 24.15 L6.75 24.45 Q7.0 24.45 7.1 24.7 L7.2 25.3 Q7.85 25.4 7.9 26.0 L7.55 25.65 7.1 25.5 6.5 24.35 6.9 24.15 M7.9 26.05 Q7.8 26.9 7.5 27.1 7.2 27.5 6.55 27.55 L5.8 27.4 5.65 27.55 Q4.95 28.1 4.1 28.1 L3.55 28.15 3.4 28.3 2.75 28.5 2.95 28.35 3.15 27.95 3.15 27.9 3.3 27.75 3.45 27.7 4.35 27.75 4.45 27.75 Q5.05 27.7 5.4 27.35 L5.85 26.95 5.95 26.95 Q5.95 27.3 6.3 27.3 7.2 27.25 7.2 26.75 L7.2 26.6 7.2 26.5 7.3 26.5 7.7 26.35 7.9 26.05 M2.05 28.45 L1.65 28.35 1.15 28.55 -0.75 28.3 -0.95 28.2 -1.05 28.2 -2.55 28.4 -2.4 28.15 -2.25 27.95 -2.1 28.0 -1.3 28.0 -0.9 27.75 -0.55 27.6 -0.5 27.9 0.0 28.2 0.8 28.15 1.0 28.0 0.75 27.7 Q0.75 27.35 1.2 27.35 1.65 27.4 1.65 27.65 L1.65 27.8 1.9 27.85 2.05 27.9 1.95 28.2 2.05 28.45 M-3.3 28.2 L-3.4 28.15 -3.65 27.85 -3.7 27.85 -3.75 27.7 Q-3.75 27.15 -3.1 27.45 L-2.9 27.55 Q-3.3 27.75 -3.3 28.15 L-3.3 28.2 M-3.75 27.85 L-3.85 27.9 -4.75 28.05 -5.95 27.8 -6.35 27.3 -6.3 27.2 -6.8 27.25 Q-7.45 27.3 -7.6 27.0 L-7.6 26.55 -7.4 25.75 -7.0 24.8 -6.5 23.9 -5.95 23.25 -5.85 22.85 -5.95 22.7 -6.05 22.35 -5.9 22.0 -5.65 21.65 Q-5.75 21.25 -5.15 21.0 L-4.6 19.9 -4.55 20.3 -4.85 20.9 -5.3 21.8 -5.35 22.55 Q-5.4 23.0 -5.7 23.25 L-6.05 23.75 -6.3 24.05 -6.75 24.75 Q-6.55 25.1 -6.85 25.5 L-7.15 26.25 -7.15 26.3 -7.45 26.55 Q-7.45 26.95 -6.75 26.9 L-6.55 26.85 -5.75 26.9 -5.4 27.3 -5.55 27.45 Q-5.55 27.85 -4.6 27.8 L-4.35 27.8 -4.0 27.8 -3.75 27.85 M-2.45 15.8 L-2.4 15.7 -1.7 16.0 -0.65 16.25 Q1.1 16.2 2.1 15.55 L2.15 15.65 Q2.15 15.85 1.3 16.25 0.45 16.65 -0.15 16.65 -1.5 16.75 -2.45 15.8 M2.15 27.0 L2.35 26.95 Q2.65 26.95 2.7 27.1 L2.7 27.15 Q2.7 27.45 2.3 27.45 1.95 27.45 1.95 27.15 1.95 27.0 2.15 27.0 M4.4 26.85 L4.55 26.75 4.65 26.7 4.95 26.6 5.2 26.85 Q5.2 27.2 4.65 27.2 4.25 27.2 4.25 26.95 L4.4 26.85 M3.45 17.0 L3.4 17.2 3.15 17.3 2.9 17.05 Q2.9 16.9 3.2 16.9 L3.45 17.0" fill="#56b2df" fill-rule="evenodd" stroke="none"/>
      <path d="M-6.05 23.75 L-5.8 23.75 Q-5.55 23.8 -5.4 23.95 L-5.0 23.6 -5.05 22.95 Q-5.05 22.4 -4.45 22.0 -4.7 21.65 -4.45 21.2 L-4.1 21.3 -3.7 20.95 -3.25 21.0 Q-2.3 20.95 -2.3 20.45 L-2.55 20.05 Q-2.9 19.65 -3.55 19.8 L-3.9 20.05 -4.15 19.35 -3.85 19.35 -3.45 19.1 -3.8 18.85 -4.15 18.95 Q-4.1 18.45 -3.65 17.85 L-3.55 17.75 -3.45 17.7 Q-3.4 17.55 -3.15 17.55 L-3.15 17.6 -2.6 17.55 -2.6 17.4 -2.35 17.1 -2.15 17.05 -1.45 17.15 -0.7 17.3 0.35 17.15 0.65 17.15 Q0.7 16.6 1.25 16.5 1.9 16.4 1.9 16.75 L1.65 17.2 1.4 17.4 1.5 17.45 Q2.5 17.05 3.3 17.85 4.0 18.65 4.05 19.65 L3.9 19.85 4.05 20.1 3.95 20.55 Q4.65 20.7 4.8 21.45 L4.55 22.6 4.7 22.7 5.0 23.0 4.95 23.65 5.1 24.0 Q5.75 24.25 5.9 24.8 L5.65 25.5 5.55 25.65 5.1 25.7 Q4.55 25.85 4.55 26.1 4.55 26.4 5.0 26.45 L4.65 26.7 4.55 26.75 4.4 26.85 2.7 27.1 Q2.65 26.95 2.35 26.95 L2.15 27.0 2.1 26.95 1.95 26.65 Q1.6 26.3 1.55 26.65 L1.4 26.75 1.15 27.0 0.65 27.0 0.45 26.75 -0.7 27.15 Q-2.4 27.95 -3.35 26.7 L-3.2 26.25 Q-3.2 25.9 -3.8 25.85 -4.5 25.8 -4.5 26.35 -4.5 26.8 -4.0 26.85 L-4.05 26.85 Q-5.25 27.05 -5.85 26.05 -6.25 25.25 -5.95 24.55 L-6.3 24.15 -6.3 24.05 -6.05 23.75 M-4.5 25.55 Q-4.5 25.25 -4.8 25.25 -5.3 25.25 -5.3 25.55 -5.3 25.85 -4.9 25.85 -4.5 25.85 -4.5 25.55 M-4.1 25.2 L-4.5 25.3 -4.45 25.35 -4.05 25.3 -4.05 25.2 -4.1 25.2 M-5.7 25.35 L-5.45 25.2 -5.65 25.0 Q-5.85 24.95 -6.0 25.2 L-5.7 25.35" fill="#eafffe" fill-rule="evenodd" stroke="none"/>
      <path d="M5.95 26.95 L5.95 26.9 Q5.95 26.75 6.25 26.55 L6.65 26.45 7.15 26.5 7.2 26.6 7.2 26.75 Q7.2 27.25 6.3 27.3 5.95 27.3 5.95 26.95 M-3.2 16.05 Q-2.5 16.2 -2.5 16.7 L-2.5 16.95 -2.85 17.1 Q-3.85 17.15 -3.85 16.45 -3.85 15.95 -3.2 16.05" fill="#d2fffe" fill-rule="evenodd" stroke="none"/>
      <path d="M-4.1 25.2 L-4.05 25.2 -4.05 25.3 -4.45 25.35 -4.5 25.3 -4.1 25.2" fill="#ffdcdc" fill-rule="evenodd" stroke="none"/>
      <path d="M-4.35 27.8 L-4.6 27.8 Q-5.55 27.85 -5.55 27.45 L-5.4 27.3 -5.35 27.3 -4.7 27.1 Q-3.9 27.05 -3.9 27.4 L-4.35 27.8 M-6.55 26.85 L-6.75 26.9 Q-7.45 26.95 -7.45 26.55 L-7.15 26.3 -6.85 26.2 Q-6.3 26.2 -6.3 26.55 L-6.45 26.75 -6.55 26.85 M-5.7 25.35 L-6.0 25.2 Q-5.85 24.95 -5.65 25.0 L-5.45 25.2 -5.7 25.35" fill="#ffffff" fill-rule="evenodd" stroke="none"/>
      <path d="M5.75 20.75 L5.95 20.95 6.05 21.4 6.05 21.5 Q6.6 21.9 6.75 22.5 L7.0 23.15 7.2 23.85 7.4 24.45 7.55 25.1 7.75 25.45 8.15 25.8 8.3 26.45 Q8.3 27.75 6.9 27.8 L6.45 27.85 6.4 27.85 6.3 27.85 6.2 27.95 5.9 28.1 4.55 28.55 4.05 28.65 3.4 28.6 3.35 28.6 2.2 28.85 1.65 28.75 0.3 29.0 -1.0 28.8 -1.25 28.6 -1.4 28.75 Q-2.9 29.0 -3.85 28.2 L-4.7 28.35 -6.6 27.8 Q-8.05 27.3 -8.05 26.8 L-7.6 25.7 Q-7.25 25.0 -7.3 24.55 L-6.45 23.5 -5.95 22.7 -5.85 22.85 -5.95 23.25 -6.5 23.9 -7.0 24.8 -7.4 25.75 -7.6 26.55 -7.6 27.0 Q-7.45 27.3 -6.8 27.25 L-6.3 27.2 -6.35 27.3 -5.95 27.8 -4.75 28.05 -3.85 27.9 -3.7 27.85 -3.65 27.85 -3.4 28.15 -2.6 28.4 -1.05 28.2 -0.95 28.2 -0.75 28.3 1.15 28.55 1.65 28.35 2.6 28.5 3.4 28.25 3.55 28.15 4.1 28.1 Q4.95 28.1 5.65 27.55 L5.8 27.4 6.55 27.55 Q7.2 27.5 7.5 27.1 7.8 26.9 7.9 26.05 7.9 25.4 7.2 25.3 L7.1 24.7 Q7.0 24.45 6.75 24.45 L6.9 23.9 6.65 23.35 6.4 23.1 6.4 22.75 Q6.4 22.2 5.95 21.9 L5.75 21.8 5.7 21.8 5.75 21.2 5.75 20.75" fill="#000000" fill-rule="evenodd" stroke="none"/>
      <path d="M-5.7 25.35 L-5.45 25.2 -5.65 25.0 Q-5.85 24.95 -6.0 25.2 L-5.7 25.35 M-4.9 25.85 Q-4.5 25.85 -4.5 25.55 -4.5 25.25 -4.8 25.25 -5.3 25.25 -5.3 25.55 -5.3 25.85 -4.9 25.85 M-4.25 20.85 L-4.05 20.4 -4.05 20.45 -4.0 20.75 -4.25 20.85 M2.8 26.7 L3.25 26.3 Q3.25 26.0 2.8 26.05 2.35 26.1 2.35 26.4 L2.8 26.7 M3.4 19.75 Q3.8 19.75 3.8 19.45 L3.5 19.2 Q2.95 19.25 2.95 19.5 2.95 19.8 3.4 19.75 M0.35 17.15 L1.5 17.45 Q2.5 17.05 3.3 17.85 4.0 18.65 4.05 19.65 L3.9 19.85 4.05 20.1 3.95 20.55 Q4.65 20.7 4.8 21.45 L4.55 22.6 4.7 22.7 5.0 23.0 4.95 23.65 5.1 24.0 Q5.75 24.25 5.9 24.8 L5.65 25.5 5.55 25.65 5.1 25.7 Q4.55 25.85 4.55 26.1 4.55 26.4 5.0 26.45 L4.65 26.7 4.55 26.75 4.4 26.85 2.7 27.1 Q2.65 26.95 2.35 26.95 L2.15 27.0 2.1 26.95 1.95 26.65 1.55 26.6 1.4 26.75 1.15 27.0 0.65 27.0 0.45 26.75 -0.7 27.15 Q-2.4 27.95 -3.35 26.7 L-3.2 26.25 Q-3.2 25.9 -3.8 25.85 -4.5 25.8 -4.5 26.35 -4.5 26.8 -4.0 26.85 L-4.05 26.85 Q-5.25 27.05 -5.85 26.05 -6.6 24.55 -5.0 23.6 L-5.05 22.95 Q-5.05 22.4 -4.45 22.0 -4.7 21.65 -4.45 21.2 L-4.1 21.3 -3.7 20.95 -3.25 21.0 Q-2.3 20.95 -2.3 20.45 L-2.55 20.05 Q-2.9 19.65 -3.55 19.8 L-3.9 20.05 -4.15 19.35 -3.85 19.35 -3.45 19.1 -3.8 18.85 -4.15 18.95 Q-4.1 18.45 -3.65 17.85 L-3.55 17.75 -3.45 17.7 -3.45 17.8 -3.3 18.0 -3.15 17.95 -3.1 17.75 -3.15 17.6 -2.6 17.55 -2.6 17.4 -2.35 17.1 -2.15 17.05 -1.45 17.15 -0.7 17.3 0.35 17.15" fill="#c7f8ff" fill-rule="evenodd" stroke="none"/>
    </g>
    <g id="sprite1">
      <use ffdec:characterId="5" height="11.65" transform="matrix(1.0, 0.0, 0.0, 1.0, 0.0, 0.0)" width="10.8" xlink:href="#shape2"/>
    </g>
    <g id="shape2">
      <path d="M3.9 -5.15 L3.75 -4.95 3.15 -5.1 Q2.05 -5.1 1.75 -4.45 L1.8 -4.25 1.7 -4.05 1.55 -3.9 1.45 -3.95 Q0.55 -3.35 0.4 -3.05 L0.3 -2.85 0.3 -2.7 -0.05 -2.5 -0.15 -2.6 -0.45 -2.55 Q-1.0 -2.55 -1.2 -2.05 L-1.3 -1.8 -1.9 -1.3 -2.1 -0.95 -2.3 -0.85 -2.45 -0.7 Q-2.7 -0.7 -2.85 -0.9 L-2.95 -0.95 Q-3.15 -0.65 -3.0 0.05 L-3.45 0.45 -4.0 0.8 -4.9 1.65 Q-5.35 1.9 -5.35 2.35 L-4.9 2.85 Q-4.45 3.05 -4.45 3.3 L-4.45 3.45 -4.7 3.6 Q-4.6 3.95 -4.0 3.95 L-3.5 3.8 -3.2 4.05 -3.25 4.3 -2.6 4.65 -2.1 4.95 -2.1 4.85 -1.85 4.85 -1.4 5.0 -0.95 4.85 Q-0.7 4.75 -0.65 5.05 L-0.65 5.15 0.35 4.35 Q0.65 3.8 0.6 3.1 0.55 2.75 0.9 3.0 L1.1 3.2 1.3 3.1 1.75 2.55 1.6 2.2 Q1.6 1.95 1.9 1.95 L1.95 1.95 2.3 1.85 2.15 1.5 Q2.1 1.1 2.45 1.3 L2.85 1.7 Q2.9 2.35 2.35 2.4 L2.35 2.5 Q2.4 3.35 1.6 3.7 L1.2 5.05 Q0.65 5.95 -0.75 5.9 -2.2 5.85 -3.15 5.15 L-3.75 4.55 -3.9 4.55 Q-5.05 4.55 -5.2 3.7 L-5.15 3.5 Q-5.7 3.25 -5.95 2.35 -6.0 1.85 -5.5 1.45 L-4.75 0.85 -4.05 0.1 Q-3.55 -0.4 -3.6 -0.6 -3.65 -1.05 -3.35 -1.4 L-3.0 -1.5 -3.0 -1.55 Q-3.05 -2.2 -2.2 -2.5 L-2.0 -2.55 -2.0 -2.65 Q-2.1 -3.5 -0.95 -3.6 L-0.35 -3.55 -0.35 -3.6 Q-0.4 -4.15 0.65 -4.5 L1.2 -4.65 1.35 -4.8 2.7 -5.65 Q3.85 -5.95 3.9 -5.15" fill="#000000" fill-rule="evenodd" stroke="none"/>
      <path d="M4.35 -4.65 L4.35 -4.7 Q3.65 -5.65 3.75 -4.9 L3.7 -4.9 3.45 -4.85 3.05 -4.95 2.75 -4.95 Q2.45 -4.85 2.5 -4.4 L2.5 -4.35 2.25 -4.1 2.1 -4.2 Q1.75 -4.25 1.75 -3.95 L1.9 -3.75 2.0 -3.65 1.95 -3.6 1.4 -3.65 1.2 -3.6 1.2 -3.55 1.0 -3.2 0.8 -3.4 Q0.55 -3.2 0.6 -2.8 L0.6 -2.75 0.55 -2.55 0.2 -2.1 Q-0.05 -2.8 -0.75 -2.6 L-1.05 -2.1 -0.85 -1.65 -0.8 -1.55 -0.9 -1.5 -1.05 -1.45 -1.45 -1.7 Q-1.95 -1.85 -1.95 -1.5 L-1.8 -1.3 -1.85 -1.1 -1.8 -1.05 -1.85 -0.8 -1.7 -0.5 -1.65 -0.3 -1.75 -0.45 Q-2.65 -1.3 -2.6 -0.45 L-2.2 0.1 -2.5 0.15 Q-2.6 -0.05 -2.85 -0.05 -3.25 -0.05 -3.25 0.25 L-3.15 0.35 -3.65 0.7 -3.8 0.75 -3.9 0.4 -4.05 0.25 -4.15 -0.05 Q-4.2 -0.5 -3.75 -0.4 -3.5 -0.35 -3.35 -0.1 -3.15 -0.2 -3.05 -0.25 L-3.2 -0.35 Q-3.3 -1.5 -2.35 -1.4 L-2.1 -1.75 -2.55 -2.2 Q-2.6 -2.6 -1.95 -2.6 -1.6 -2.6 -1.55 -2.15 L-1.55 -2.1 -1.4 -2.25 -1.35 -2.25 -1.55 -2.75 Q-1.6 -3.25 -1.15 -3.35 -0.75 -3.5 0.0 -3.0 L0.05 -3.1 -0.15 -3.5 0.0 -3.95 0.7 -4.0 0.6 -4.3 Q0.55 -4.9 1.05 -4.9 1.4 -4.9 1.55 -4.6 L1.9 -5.15 2.4 -5.35 3.15 -5.45 3.95 -5.35 4.15 -5.15 4.2 -4.95 4.85 -4.3 4.35 -4.65" fill="#96d6ec" fill-rule="evenodd" stroke="none"/>
      <path d="M3.75 -4.9 Q3.65 -5.65 4.35 -4.7 L4.35 -4.65 4.25 -4.5 4.1 -4.45 Q3.8 -4.45 3.75 -4.9 M-3.15 0.35 L-3.25 0.25 Q-3.25 -0.05 -2.85 -0.05 -2.6 -0.05 -2.5 0.15 L-2.45 0.3 Q-2.45 0.6 -2.8 0.6 L-3.1 0.45 -3.15 0.35 M-1.8 -1.3 L-1.95 -1.5 Q-1.95 -1.85 -1.45 -1.7 L-1.05 -1.45 -0.95 -1.2 Q-0.95 -0.95 -1.25 -0.95 L-1.3 -0.95 -1.65 -1.2 -1.8 -1.3 M-0.8 -1.55 L-0.85 -1.65 -1.05 -2.1 -0.75 -2.6 Q-0.05 -2.8 0.2 -2.1 L0.3 -1.8 0.3 -1.75 Q0.35 -1.25 -0.1 -1.25 L-0.7 -1.45 -0.8 -1.55 M2.0 -3.65 L1.9 -3.75 1.75 -3.95 Q1.75 -4.25 2.1 -4.2 L2.25 -4.1 2.45 -3.85 2.2 -3.55 Q2.05 -3.55 2.0 -3.65 M2.5 -4.35 L2.5 -4.4 Q2.45 -4.85 2.75 -4.95 L3.05 -4.95 3.45 -4.85 3.65 -4.6 3.5 -4.05 2.9 -3.95 Q2.5 -4.0 2.5 -4.35 M1.7 0.4 L1.75 0.7 Q1.8 1.0 1.4 1.0 L1.25 0.95 1.2 0.9 1.1 0.7 Q1.1 0.3 1.4 0.3 L1.7 0.4" fill="#ffffff" fill-rule="evenodd" stroke="none"/>
      <path d="M3.45 -4.85 L3.7 -4.9 3.75 -4.9 Q3.8 -4.45 4.1 -4.45 L4.25 -4.5 4.35 -4.4 4.65 -3.5 4.5 -1.7 4.2 -1.05 4.15 -1.1 4.0 -1.65 3.85 -1.3 3.8 -1.3 Q3.3 -1.4 3.35 -1.1 3.4 -0.75 3.8 -0.7 L3.7 -0.45 3.7 -0.3 3.1 -0.1 3.0 -0.1 2.95 -0.05 3.2 0.3 3.1 0.65 3.1 0.7 Q3.15 1.25 2.65 1.25 L2.25 1.15 1.75 1.1 1.7 1.1 1.6 1.25 1.75 1.35 1.9 1.65 1.6 1.95 1.4 1.9 1.5 2.15 1.5 2.35 1.6 2.75 Q1.65 3.15 1.25 3.15 L1.05 3.1 Q1.05 3.6 0.6 3.6 L0.4 3.6 0.3 4.3 0.4 4.55 -0.05 5.0 -0.5 4.7 -0.55 4.7 -0.85 4.95 -1.15 4.6 -1.1 4.3 -1.5 4.2 -1.85 4.3 -2.0 4.6 -2.25 4.75 Q-2.65 4.75 -2.7 4.25 L-2.7 4.1 -2.85 4.0 -3.25 4.15 Q-3.8 4.15 -3.95 3.8 L-4.0 3.7 -4.0 3.45 -3.95 3.15 -4.05 3.0 -4.6 2.9 -4.75 2.75 -4.8 2.55 -4.8 2.5 -5.05 2.2 -5.0 2.05 -4.65 2.1 -4.2 1.95 -4.3 1.55 Q-4.35 0.8 -3.8 0.75 L-3.5 1.25 -3.35 1.45 -3.4 1.75 Q-3.3 2.6 -2.4 2.6 -1.85 2.6 -1.7 2.25 L-1.2 2.3 -1.35 2.8 -1.1 3.15 -0.8 3.2 Q-0.35 3.2 -0.3 2.9 L-0.3 2.85 -0.25 2.55 -0.25 2.4 -0.4 2.1 -0.15 2.0 Q0.2 2.3 0.65 2.3 L1.2 1.95 1.35 1.35 1.25 0.95 1.4 1.0 Q1.8 1.0 1.75 0.7 L1.7 0.4 2.1 -0.3 Q2.6 -0.3 2.6 -0.7 L2.5 -1.05 2.7 -1.7 2.8 -1.7 Q3.25 -1.7 3.5 -2.25 L3.65 -3.0 3.65 -3.2 4.1 -3.45 4.35 -3.75 Q4.3 -4.2 3.5 -4.05 L3.65 -4.6 3.45 -4.85" fill="#7dd0f9" fill-rule="evenodd" stroke="none"/>
      <path d="M3.0 -3.8 L2.95 -3.8 2.9 -3.95 3.0 -3.8" fill="#ffdcdf" fill-rule="evenodd" stroke="none"/>
      <path d="M-3.8 0.75 L-3.65 0.7 -3.15 0.35 -3.1 0.45 -2.8 0.6 Q-2.45 0.6 -2.45 0.3 L-2.5 0.15 -2.2 0.1 -2.6 -0.45 Q-2.65 -1.3 -1.75 -0.45 L-1.65 -0.3 -1.7 -0.5 -1.85 -0.8 -1.8 -1.05 -1.85 -1.1 -1.8 -1.3 -1.65 -1.2 -1.3 -0.95 -1.25 -0.95 Q-0.95 -0.95 -0.95 -1.2 L-1.05 -1.45 -0.9 -1.5 -0.8 -1.55 -0.7 -1.45 -0.1 -1.25 Q0.35 -1.25 0.3 -1.75 L0.3 -1.8 0.2 -2.1 0.55 -2.55 0.6 -2.75 0.6 -2.8 Q0.55 -3.2 0.8 -3.4 L1.0 -3.2 1.2 -3.55 1.2 -3.6 1.4 -3.65 1.95 -3.6 2.0 -3.65 Q2.05 -3.55 2.2 -3.55 L2.45 -3.85 2.25 -4.1 2.5 -4.35 Q2.5 -4.0 2.9 -3.95 L3.5 -4.05 Q4.3 -4.2 4.35 -3.75 L4.1 -3.45 3.65 -3.2 3.65 -3.0 3.5 -2.25 Q3.25 -1.7 2.8 -1.7 L2.7 -1.7 2.5 -1.05 2.1 -1.15 Q1.6 -1.0 1.65 -0.65 1.65 -0.3 2.05 -0.3 L2.1 -0.3 1.7 0.4 1.4 0.3 Q1.1 0.3 1.1 0.7 L1.2 0.9 1.25 0.95 1.35 1.35 1.2 1.95 0.65 2.3 Q0.2 2.3 -0.15 2.0 L-0.4 2.1 -0.85 2.05 -1.2 2.3 -1.7 2.25 Q-1.85 2.6 -2.4 2.6 -3.3 2.6 -3.4 1.75 L-3.35 1.45 -3.5 1.25 -3.8 0.75 M3.0 -3.8 L2.9 -3.95 2.95 -3.8 3.0 -3.8" fill="#c7f0ff" fill-rule="evenodd" stroke="none"/>
      <path d="M2.5 -1.05 L2.6 -0.7 Q2.6 -0.3 2.1 -0.3 L2.05 -0.3 Q1.65 -0.3 1.65 -0.65 1.6 -1.0 2.1 -1.15 L2.5 -1.05 M-0.4 2.1 L-0.25 2.4 -0.25 2.55 -0.3 2.85 -0.3 2.9 Q-0.35 3.2 -0.8 3.2 L-1.1 3.15 -1.35 2.8 -1.2 2.3 -0.85 2.05 -0.4 2.1" fill="#56b2df" fill-rule="evenodd" stroke="none"/>
      <path d="M-4.05 0.25 L-3.9 0.4 -3.8 0.75 Q-4.35 0.8 -4.3 1.55 L-4.2 1.95 -4.65 2.1 -5.0 2.05 -5.05 2.2 -4.8 2.5 -4.8 2.55 -4.75 2.75 -4.6 2.9 -4.05 3.0 -3.95 3.15 -4.0 3.45 -4.0 3.7 -3.95 3.8 Q-3.8 4.15 -3.25 4.15 L-2.85 4.0 -2.7 4.1 -2.7 4.25 Q-2.65 4.75 -2.25 4.75 L-2.0 4.6 -1.85 4.3 -1.5 4.2 -1.1 4.3 -1.15 4.6 -0.85 4.95 -0.55 4.7 -0.5 4.7 -0.05 5.0 0.4 4.55 0.3 4.3 0.4 3.6 0.6 3.6 Q1.05 3.6 1.05 3.1 L1.25 3.15 Q1.65 3.15 1.6 2.75 L1.5 2.35 1.5 2.15 1.4 1.9 1.6 1.95 1.9 1.65 1.75 1.35 1.6 1.25 1.7 1.1 1.75 1.1 2.25 1.15 2.65 1.25 Q3.15 1.25 3.1 0.7 L3.1 0.65 3.2 0.3 2.95 -0.05 3.0 -0.1 3.1 -0.1 3.7 -0.3 3.85 -0.7 3.8 -0.7 Q3.4 -0.75 3.35 -1.1 3.3 -1.4 3.8 -1.3 L3.85 -1.3 4.0 -1.65 4.15 -1.1 4.2 -1.05 4.2 -1.0 4.15 -0.8 Q4.2 0.25 3.15 1.1 L2.5 1.65 2.3 1.85 1.9 2.1 1.85 2.1 1.85 2.15 Q2.0 2.6 1.55 3.15 L1.25 3.35 Q1.05 3.45 1.0 3.7 L0.9 4.25 0.6 4.75 Q0.1 5.2 -0.7 5.2 L-2.9 4.85 -4.1 4.1 -4.9 3.5 -4.95 3.35 Q-5.45 3.2 -5.6 2.45 L-5.5 1.7 Q-5.25 1.4 -4.7 1.3 L-4.35 0.6 -4.05 0.25" fill="#3d92bc" fill-rule="evenodd" stroke="none"/>
      <path d="M1.9 2.1 L1.85 2.15 1.85 2.1 1.9 2.1" fill="#ffdcdc" fill-rule="evenodd" stroke="none"/>
    </g>
    <g id="sprite2">
      <use ffdec:characterId="9" height="2.3" transform="matrix(1.0, 0.0, 0.0, 1.0, 0.0, 0.0)" width="2.1" xlink:href="#shape3"/>
    </g>
    <g id="shape3">
      <path d="M0.7 -0.05 Q0.7 0.8 0.05 0.8 -1.0 0.8 -1.0 0.05 L-0.85 -0.45 Q-0.6 -0.85 -0.2 -0.85 L0.6 -0.55 0.7 -0.05 M-0.85 -0.1 L-0.85 0.0 -0.85 0.3 -0.25 0.45 0.1 0.15 0.2 -0.25 Q0.2 -0.95 -0.35 -0.8 L-0.45 -0.75 -0.5 -0.7 -0.7 -0.5 -0.85 -0.1" fill="#00c9ff" fill-rule="evenodd" stroke="none"/>
      <path d="M-0.45 -0.75 L-0.35 -0.8 Q0.2 -0.95 0.2 -0.25 L0.1 0.15 -0.25 0.45 -0.85 0.3 -0.85 0.0 -0.85 -0.1 -0.5 0.15 Q-0.3 0.15 -0.05 -0.5 -0.05 -0.95 -0.45 -0.75" fill="#38f9ff" fill-rule="evenodd" stroke="none"/>
      <path d="M-0.85 -0.1 L-0.7 -0.5 -0.5 -0.7 -0.45 -0.75 Q-0.05 -0.95 -0.05 -0.5 -0.3 0.15 -0.5 0.15 L-0.85 -0.1" fill="#fffafc" fill-rule="evenodd" stroke="none"/>
      <path d="M-1.05 -0.5 Q-0.2 -1.4 0.45 -1.05 1.05 -0.75 1.05 0.05 1.05 1.15 -0.15 1.15 -0.6 1.15 -0.85 0.8 L-1.05 0.3 -0.9 -0.25 -0.75 0.3 Q-0.7 0.65 -0.15 0.65 0.55 0.65 0.55 0.05 L0.4 -0.5 Q0.2 -0.85 -0.15 -0.85 -0.6 -0.85 -1.05 -0.5" fill="#00afdd" fill-rule="evenodd" stroke="none"/>
    </g>
    <g id="sprite3">
      <use ffdec:characterId="11" height="7.8" transform="matrix(1.0, 0.0, 0.0, 1.0, 0.0, 0.0)" width="13.15" xlink:href="#shape4"/>
    </g>
    <g id="shape4">
      <path d="M4.85 -0.85 L4.8 -1.15 4.85 -1.7 4.6 -2.75 4.65 -3.05 Q4.65 -3.75 3.75 -3.4 L2.9 -3.0 2.0 -2.55 1.45 -2.05 0.35 -2.15 -0.5 -1.95 Q-0.5 -2.3 -2.65 -3.0 -2.75 -3.25 -3.2 -3.25 L-3.45 -3.2 -3.7 -3.25 Q-4.5 -3.25 -4.55 -2.85 L-5.0 -2.3 Q-4.75 -3.5 -3.65 -3.5 -2.6 -3.5 -1.8 -2.95 -1.0 -2.4 0.05 -2.4 1.75 -2.4 2.55 -2.95 3.45 -3.55 4.05 -3.55 5.15 -3.55 5.15 -2.15 L5.0 -0.95 4.85 -0.85 M5.7 0.35 L5.45 0.25 5.45 0.2 5.35 0.1 5.7 0.35 M4.85 -0.2 L4.8 -0.2 4.8 -0.25 4.85 -0.2 M-3.3 3.35 L-3.15 3.3 Q-2.5 3.1 -2.35 2.9 L-1.6 1.7 -1.45 1.7 -1.55 1.95 Q-2.05 3.35 -3.15 3.35 L-3.3 3.35" fill="#6ad8ff" fill-rule="evenodd" stroke="none"/>
      <path d="M-3.45 -3.2 L-3.2 -3.25 Q-2.75 -3.25 -2.65 -3.0 -0.5 -2.3 -0.5 -1.95 L0.35 -2.15 1.45 -2.05 2.0 -2.55 2.9 -3.0 3.75 -3.4 Q4.65 -3.75 4.65 -3.05 L4.6 -2.75 4.85 -1.7 4.8 -1.15 4.85 -0.85 4.85 -0.7 4.8 -0.25 4.8 -0.2 4.85 -0.2 5.35 0.1 5.45 0.2 5.45 0.25 5.7 0.35 6.1 0.8 6.2 1.2 6.2 1.25 Q6.2 1.8 5.7 2.35 L4.65 3.05 3.8 3.15 3.55 3.15 Q2.6 3.05 2.15 2.25 L1.35 0.65 1.3 0.55 1.4 0.7 2.15 1.55 Q2.8 2.3 3.45 2.3 5.05 2.3 5.4 1.25 L3.8 0.4 3.5 0.5 2.75 0.4 3.45 -0.05 4.15 -0.65 4.3 -0.85 4.1 -1.5 3.85 -2.3 3.45 -2.3 2.3 -1.85 2.1 -1.7 2.2 -1.7 2.95 -1.4 3.35 -1.0 Q3.35 -0.65 2.85 -0.65 2.6 -0.65 2.05 -1.0 L1.6 -1.35 1.45 -1.3 1.35 -1.3 1.2 -1.15 Q0.7 -0.8 0.05 -0.8 -0.55 -0.8 -0.75 -1.3 L-0.9 -1.25 Q-0.9 -1.05 -1.55 -0.8 L-2.25 -0.6 Q-3.05 -0.6 -3.4 -0.95 L-3.25 -0.95 -2.05 -1.35 -1.3 -1.5 -1.45 -1.8 -2.1 -2.05 -3.3 -2.3 Q-4.2 -2.3 -4.3 -1.45 L-4.4 -0.05 -4.2 0.2 -4.35 0.4 -3.65 0.5 -3.65 0.9 -4.45 1.2 -5.25 1.6 Q-5.1 2.05 -4.4 2.3 L-2.9 2.6 -2.05 1.8 Q-1.55 1.3 -1.45 0.3 L-1.4 0.3 -1.4 -0.05 -0.95 -0.45 -0.9 -0.2 -1.3 1.3 -1.45 1.7 -1.6 1.7 -2.35 2.9 Q-2.5 3.1 -3.15 3.3 L-3.3 3.35 -3.8 3.4 Q-5.0 3.35 -5.65 2.65 L-6.2 1.65 Q-6.2 0.5 -5.0 0.4 L-5.0 0.2 -4.8 0.05 -4.95 -0.35 -5.1 -1.45 -5.1 -1.65 -5.0 -2.3 -4.55 -2.85 -4.55 -2.8 Q-4.55 -2.4 -4.15 -2.4 -3.15 -2.4 -2.8 -2.75 L-3.1 -3.05 Q-3.25 -3.2 -3.45 -3.2" fill="#ff5da0" fill-rule="evenodd" stroke="none"/>
      <path d="M-1.3 1.3 L-0.9 -0.2 -0.95 -0.45 -1.4 -0.05 -1.4 0.3 -1.45 0.3 Q-1.55 1.3 -2.05 1.8 L-2.9 2.6 -4.4 2.3 Q-5.1 2.05 -5.25 1.6 L-4.45 1.2 -3.65 0.9 -3.65 0.5 -4.35 0.4 -4.2 0.2 -4.4 -0.05 -4.3 -1.45 Q-4.2 -2.3 -3.3 -2.3 L-2.1 -2.05 -1.45 -1.8 -1.3 -1.5 -2.05 -1.35 -3.25 -0.95 -3.4 -0.95 Q-3.05 -0.6 -2.25 -0.6 L-1.55 -0.8 Q-0.9 -1.05 -0.9 -1.25 L-0.75 -1.3 Q-0.55 -0.8 0.05 -0.8 0.7 -0.8 1.2 -1.15 L1.35 -1.3 1.45 -1.3 1.6 -1.35 2.05 -1.0 Q2.6 -0.65 2.85 -0.65 3.35 -0.65 3.35 -1.0 L2.95 -1.4 2.2 -1.7 2.1 -1.7 2.3 -1.85 3.45 -2.3 3.85 -2.3 4.1 -1.5 4.3 -0.85 4.15 -0.65 3.45 -0.05 2.75 0.4 3.5 0.5 3.8 0.4 5.4 1.25 Q5.05 2.3 3.45 2.3 2.8 2.3 2.15 1.55 L1.4 0.7 1.15 -0.2 0.15 -0.1 Q-0.35 -0.05 -0.65 -0.3 L-1.3 1.3 M3.55 3.15 L3.8 3.15 4.65 3.05 3.85 3.25 3.55 3.15 M6.2 1.2 L6.1 0.8 6.2 1.05 6.2 1.2 M-4.95 -0.35 L-5.1 -0.8 -5.1 -1.45 -4.95 -0.35" fill="#fa91d9" fill-rule="evenodd" stroke="none"/>
      <path d="M-4.55 -2.85 Q-4.5 -3.25 -3.7 -3.25 L-3.45 -3.2 Q-3.25 -3.2 -3.1 -3.05 L-2.8 -2.75 Q-3.15 -2.4 -4.15 -2.4 -4.55 -2.4 -4.55 -2.8 L-4.55 -2.85" fill="#fffafc" fill-rule="evenodd" stroke="none"/>
      <path d="M5.0 -3.2 L5.15 -2.0 Q5.15 -0.55 4.5 -0.05 4.45 0.35 3.35 0.35 2.6 0.35 1.85 -0.15 L1.6 -0.3 1.45 -0.15 1.3 0.0 -0.9 0.2 -1.25 1.55 -1.85 2.9 Q-2.55 3.9 -3.3 3.9 -4.25 3.9 -5.35 2.9 L-6.55 1.4 Q-6.6 1.05 -5.85 0.65 L-4.95 0.15 -5.25 -1.5 -5.25 -1.65 -4.75 -2.9 -3.9 -3.75 -2.05 -3.45 -0.65 -2.8 0.05 -2.35 0.45 -2.4 2.35 -3.2 3.3 -3.6 Q4.65 -4.35 5.0 -3.2 M1.65 -1.85 L1.75 -1.15 Q1.8 -0.9 2.35 -0.6 L3.35 -0.15 4.25 -0.15 Q4.8 -0.2 4.8 -1.4 L4.7 -2.25 4.2 -3.3 Q3.8 -3.55 2.95 -3.05 L2.35 -2.75 Q1.65 -2.35 1.65 -1.85 M0.65 -2.0 L0.2 -2.05 -0.05 -1.85 Q-1.0 -1.4 -0.4 -0.65 L0.4 -0.45 1.1 -0.65 1.15 -0.75 1.15 -0.85 1.1 -1.55 0.65 -2.0 M6.6 0.9 L6.5 1.3 5.8 2.4 4.95 3.2 Q4.4 3.7 3.8 3.7 2.3 3.7 1.15 0.5 1.15 0.25 1.3 0.15 L2.3 1.8 Q3.15 3.05 3.85 3.05 4.55 3.05 5.45 2.2 L5.65 2.05 5.95 1.05 5.65 0.5 4.9 -0.2 6.25 0.25 Q6.6 0.4 6.6 0.9 M-1.65 1.85 Q-1.2 0.95 -1.1 0.0 L-1.1 -0.05 -1.25 0.05 Q-2.0 0.85 -2.9 0.85 -4.05 0.85 -4.45 0.35 L-4.5 0.25 -4.65 0.2 -5.15 0.65 -5.85 1.4 Q-5.95 1.75 -4.85 2.45 -3.75 3.2 -3.15 3.2 -2.25 3.2 -1.65 1.85 M-4.85 -0.85 L-4.6 -0.2 -3.9 0.05 -3.25 0.15 -2.1 -0.15 -1.55 -0.6 -1.5 -0.65 -1.1 -1.0 -1.25 -0.95 Q-0.85 -1.55 -1.2 -2.2 L-2.05 -2.7 -3.45 -3.15 Q-4.2 -3.15 -4.6 -2.15 L-4.75 -1.5 -4.85 -0.85" fill="#000000" fill-rule="evenodd" stroke="none"/>
    </g>
    <g id="sprite4">
      <use ffdec:characterId="3" height="4.15" transform="matrix(1.0, 0.0, 0.0, 1.0, 0.0, 0.0)" width="4.55" xlink:href="#shape5"/>
    </g>
    <g id="shape5">
      <path d="M-0.3 -1.45 Q-0.2 -1.75 0.45 -1.7 L0.95 -1.6 1.05 -1.6 1.2 -1.6 Q1.7 -1.6 2.0 -1.15 L2.2 -0.55 2.2 -0.2 2.2 -0.05 2.0 0.3 1.85 0.3 1.4 0.2 1.35 0.25 0.9 0.55 -0.35 0.25 -0.4 -0.2 -0.4 -0.25 -0.35 -0.4 -0.45 -0.35 -0.45 -0.3 -0.7 -0.25 -1.15 -0.55 -1.25 -0.9 -1.0 -1.4 -0.75 -1.3 -0.5 -1.05 -0.7 -0.9 -0.7 -0.8 Q-0.7 -0.7 -0.5 -0.7 -0.35 -0.7 -0.25 -0.8 L-0.25 -0.75 -0.25 -0.65 -0.05 -0.8 -0.1 -0.9 -0.1 -0.95 -0.2 -1.15 -0.35 -1.35 -0.3 -1.45 M0.85 -0.9 L0.7 -1.0 0.6 -0.85 0.8 -0.8 0.85 -0.9" fill="#adefff" fill-rule="evenodd" stroke="none"/>
      <path d="M-1.25 -1.45 L-0.75 -1.55 -0.3 -1.45 -0.35 -1.35 -0.2 -1.15 -0.1 -0.95 -0.1 -0.9 -0.25 -0.75 -0.25 -0.8 -0.25 -0.95 -0.45 -1.1 -0.5 -1.05 -0.75 -1.3 -1.0 -1.4 -1.05 -1.45 -1.25 -1.45 M0.85 -0.9 L0.8 -0.8 0.6 -0.85 0.7 -1.0 0.85 -0.9" fill="#ffffff" fill-rule="evenodd" stroke="none"/>
      <path d="M2.0 0.3 L2.1 0.6 1.75 1.3 Q1.3 1.8 0.7 1.8 L0.1 1.7 -0.1 1.55 Q-1.2 1.45 -1.6 0.5 L-1.75 -0.7 -1.75 -1.1 -1.65 -1.05 -1.65 -1.1 -1.4 -1.4 -1.25 -1.45 -1.05 -1.45 -1.0 -1.4 -1.25 -0.9 -1.15 -0.55 -0.7 -0.25 -0.45 -0.3 -0.4 -0.25 -0.4 -0.2 -0.35 0.25 0.9 0.55 1.35 0.25 1.4 0.2 1.85 0.3 2.0 0.3 M-0.4 0.5 L-0.6 0.7 -0.35 0.95 -0.1 0.9 -0.4 0.5 M1.0 1.2 Q1.0 0.8 0.5 0.8 0.15 0.8 0.15 1.1 0.15 1.55 0.65 1.55 L1.0 1.2" fill="#7ed9ef" fill-rule="evenodd" stroke="none"/>
      <path d="M-0.4 0.5 L-0.1 0.9 -0.35 0.95 -0.6 0.7 -0.4 0.5" fill="#00afdd" fill-rule="evenodd" stroke="none"/>
      <path d="M1.0 1.2 L0.65 1.55 Q0.15 1.55 0.15 1.1 0.15 0.8 0.5 0.8 1.0 0.8 1.0 1.2" fill="#d5f6ff" fill-rule="evenodd" stroke="none"/>
      <path d="M1.55 -1.35 Q1.4 -1.75 -0.05 -1.6 L-1.2 -1.3 -1.95 -0.95 -2.2 -0.95 -2.25 -1.05 Q-2.25 -1.45 -0.15 -1.85 L1.9 -1.7 Q1.9 -1.35 1.55 -1.35" fill="#69dfff" fill-rule="evenodd" stroke="none"/>
      <path d="M-1.7 -0.65 L-1.0 0.6 Q-0.45 1.7 0.8 1.55 2.0 1.4 2.05 0.1 L2.15 0.05 2.3 0.35 Q2.3 0.9 1.8 1.45 1.2 2.1 0.25 2.1 -0.95 2.1 -1.5 1.0 L-1.85 -0.35 -1.7 -0.65" fill="#00afdd" fill-rule="evenodd" stroke="none"/>
    </g>
    <g id="sprite5">
      <use ffdec:characterId="7" height="3.6" transform="matrix(1.0, 0.0, 0.0, 1.0, 0.0, 0.0)" width="5.75" xlink:href="#shape6"/>
    </g>
    <g id="shape6">
      <path d="M-1.55 1.65 L-2.15 1.8 -2.75 1.6 -2.85 1.4 Q-2.85 1.15 -2.45 1.15 L-1.55 0.9 Q-1.2 0.9 -1.2 1.25 L-1.55 1.65" fill="#ffffff" fill-rule="evenodd" stroke="none"/>
      <path d="M1.55 -0.15 L0.75 0.6 -0.35 1.05 Q-0.8 1.05 -0.8 0.7 L0.4 -0.15 Q1.55 -0.85 1.55 -0.15" fill="#ffffff" fill-rule="evenodd" stroke="none"/>
      <path d="M2.0 -0.55 Q1.65 -0.55 1.65 -0.85 1.65 -1.2 2.3 -1.65 2.9 -2.05 2.9 -1.4 L2.55 -0.85 2.0 -0.55" fill="#ffffff" fill-rule="evenodd" stroke="none"/>
    </g>
  </defs>
</svg>
