<?xml version="1.0" encoding="UTF-8" standalone="no"?>
<svg xmlns:ffdec="https://www.free-decompiler.com/flash" xmlns:xlink="http://www.w3.org/1999/xlink" ffdec:objectType="frame" height="21.65px" width="43.15px" xmlns="http://www.w3.org/2000/svg">
  <g transform="matrix(1.0, 0.0, 0.0, 1.0, 30.55, -10.2)">
    <use ffdec:characterId="8" height="8.5" transform="matrix(1.0, 0.0, 0.0, 1.0, -2.65, 27.6)" width="12.55" xlink:href="#sprite0"/>
    <use ffdec:characterId="2" height="10.25" transform="matrix(1.0, 0.0, 0.0, 1.0, -7.85, 21.75)" width="9.75" xlink:href="#sprite1"/>
    <use ffdec:characterId="2" height="10.25" transform="matrix(-1.0, 0.0, 0.0, 1.0, 7.7, 21.75)" width="9.75" xlink:href="#sprite1"/>
    <use ffdec:characterId="17" height="10.0" transform="matrix(1.0, 0.0, 0.0, 1.0, -0.1, 25.25)" width="18.05" xlink:href="#sprite2"/>
    <use ffdec:characterId="10" height="7.05" transform="matrix(1.0, 0.0, 0.0, 1.0, 0.05, 17.7)" width="13.55" xlink:href="#sprite3"/>
    <use ffdec:characterId="19" height="5.75" transform="matrix(1.0, 0.0, 0.0, 1.0, 0.0, 23.15)" width="7.15" xlink:href="#sprite4"/>
    <use ffdec:characterId="21" height="5.6" transform="matrix(1.0, 0.0, 0.0, 1.0, -5.95, 28.55)" width="8.4" xlink:href="#sprite5"/>
    <use ffdec:characterId="21" height="5.6" transform="matrix(-1.0, 0.0, 0.0, 1.0, 6.15, 28.55)" width="8.4" xlink:href="#sprite5"/>
    <use ffdec:characterId="6" height="14.75" transform="matrix(1.0, 0.0, 0.0, 1.0, -19.9, 17.55)" width="21.25" xlink:href="#sprite6"/>
  </g>
  <defs>
    <g id="sprite0">
      <use ffdec:characterId="7" height="8.5" transform="matrix(1.0, 0.0, 0.0, 1.0, 0.0, 0.0)" width="12.55" xlink:href="#shape0"/>
    </g>
    <g id="shape0">
      <path d="M-6.0 -2.9 Q-5.85 -4.0 -5.2 -3.95 L-3.1 -3.1 -2.9 -3.0 -1.3 -2.1 Q1.55 -0.4 3.55 0.75 L2.9 2.25 1.65 1.6 1.4 1.5 Q0.45 1.45 0.0 1.1 L-0.5 0.5 -0.6 0.1 Q-2.05 -1.3 -4.1 -2.25 L-4.05 -2.35 -4.45 -2.25 Q-5.35 -2.45 -6.0 -2.9" fill="#d5925c" fill-rule="evenodd" stroke="none"/>
      <path d="M3.55 0.75 L3.85 0.9 Q5.95 2.05 5.8 2.85 5.65 3.6 4.25 3.6 3.05 3.6 0.85 2.3 L-1.8 0.7 -4.3 -0.65 Q-6.05 -1.7 -6.05 -2.25 L-6.0 -2.9 Q-5.35 -2.45 -4.45 -2.25 L-4.05 -2.35 -4.1 -2.25 Q-2.05 -1.3 -0.6 0.1 L-0.5 0.5 0.0 1.1 Q0.45 1.45 1.4 1.5 L1.65 1.6 2.9 2.25 3.55 0.75" fill="#a05a42" fill-rule="evenodd" stroke="none"/>
      <path d="M-3.85 -1.35 L-2.1 -0.35 -0.6 0.9 1.2 2.0 3.05 2.7 Q4.25 3.1 4.25 3.3 4.25 3.65 3.75 3.65 3.3 3.65 0.65 2.45 -1.05 1.55 -1.15 1.05 L-1.25 1.0 -2.85 -0.05 -5.1 -1.05 -6.25 -1.75 Q-6.25 -2.05 -5.6 -2.05 L-3.85 -1.35" fill="#d5925c" fill-rule="evenodd" stroke="none"/>
      <path d="M4.9 1.2 Q5.35 1.2 5.85 1.6 L6.25 2.1 Q6.25 4.25 3.9 4.25 2.65 4.25 -6.3 -1.6 -5.35 -1.95 -1.05 0.65 L3.35 3.35 Q4.25 3.35 5.25 2.6 L4.75 2.2 2.55 0.85 0.0 -1.05 Q-0.6 -1.4 -1.55 -1.75 L-3.0 -2.35 Q-4.35 -3.3 -5.6 -3.75 -5.25 -4.65 -4.3 -4.0 L-3.0 -3.0 Q-0.45 -2.2 0.15 -1.65 0.45 -1.4 3.3 0.35 L4.75 1.25 4.9 1.2" fill="#000000" fill-rule="evenodd" stroke="none"/>
    </g>
    <g id="sprite1">
      <use ffdec:characterId="1" height="10.25" transform="matrix(1.0, 0.0, 0.0, 1.0, 0.0, 0.0)" width="9.75" xlink:href="#shape1"/>
    </g>
    <g id="shape1">
      <path d="M-4.55 -1.3 Q-4.45 -1.9 -4.0 -2.05 L-2.7 -2.1 -2.45 -2.25 -2.15 -2.5 -1.15 -3.0 0.55 -4.15 1.05 -4.75 1.05 -4.4 Q1.05 -3.95 1.45 -3.7 L2.05 -3.3 Q2.25 -2.0 1.25 -0.8 L1.25 -0.7 -0.25 -0.95 -0.75 0.75 -1.95 1.0 -2.05 1.05 Q-2.35 1.05 -2.5 1.55 L-2.55 1.65 Q-4.05 0.5 -4.55 -1.3" fill="#6400c7" fill-rule="evenodd" stroke="none"/>
      <path d="M1.05 -4.75 L1.1 -4.9 2.1 -5.1 Q4.45 -5.1 4.45 -3.3 4.45 -2.4 3.8 -1.35 L2.2 0.65 Q1.2 1.6 0.55 3.05 -0.15 4.5 -0.75 4.5 -2.1 4.5 -2.95 3.4 L-3.7 2.05 -4.45 0.5 -4.6 -0.85 -4.55 -1.3 Q-4.05 0.5 -2.55 1.65 L-2.5 1.55 Q-2.35 1.05 -2.05 1.05 L-1.95 1.0 -0.75 0.75 -0.25 -0.95 1.25 -0.7 1.25 -0.8 Q2.25 -2.0 2.05 -3.3 L1.45 -3.7 Q1.05 -3.95 1.05 -4.4 L1.05 -4.75" fill="#0a0744" fill-rule="evenodd" stroke="none"/>
      <path d="M1.75 -5.1 L1.8 -5.0 Q1.8 -4.5 -1.1 -2.9 L-1.85 -2.35 Q-2.05 -1.95 -2.4 -1.9 L-4.0 -1.4 Q-4.1 -1.3 -4.3 -1.15 L-4.4 -0.7 -4.2 0.2 -3.5 1.35 -3.15 2.05 -2.85 3.1 -2.4 3.55 -1.85 3.95 -0.95 4.35 Q-0.75 4.4 -0.6 4.55 L0.1 3.3 0.85 2.25 0.8 2.0 Q0.8 1.8 1.5 1.05 L2.4 0.1 3.75 -1.7 3.75 -1.65 4.2 -2.65 4.65 -4.0 4.85 -3.55 4.35 -2.3 3.8 -1.3 Q3.75 -0.45 3.05 0.4 L1.05 2.25 0.8 2.65 0.6 3.3 -0.5 5.05 -0.55 5.05 -0.85 5.15 Q-1.85 5.15 -3.35 3.25 L-3.75 2.0 -4.05 1.25 -4.6 0.5 -4.9 -0.55 -4.75 -1.15 -4.75 -1.2 -4.25 -1.95 Q-3.6 -2.5 -2.5 -2.4 -2.4 -2.85 -0.3 -3.9 1.15 -5.1 1.75 -5.1" fill="#000000" fill-rule="evenodd" stroke="none"/>
    </g>
    <g id="sprite2">
      <use ffdec:characterId="16" height="10.0" transform="matrix(1.0, 0.0, 0.0, 1.0, 0.0, 0.0)" width="18.05" xlink:href="#shape2"/>
    </g>
    <g id="shape2">
      <path d="M1.8 -4.95 Q1.6 -4.2 1.85 -3.75 L1.95 -3.75 Q2.4 -3.75 2.15 -3.25 2.0 -2.85 1.5 -2.85 L1.55 -2.75 2.8 -1.6 2.7 -1.5 Q2.1 -0.65 1.1 -0.5 2.5 0.6 4.45 0.7 L4.7 2.05 0.85 1.7 -0.3 2.55 -5.75 0.9 -3.7 0.05 Q-2.95 -0.15 -2.5 -0.5 L-2.6 -0.6 -3.0 -2.05 -3.0 -2.15 -1.9 -2.6 -2.3 -4.25 -2.25 -4.45 -1.95 -4.95 -0.9 -4.95 1.8 -4.95" fill="#6400c7" fill-rule="evenodd" stroke="none"/>
      <path d="M-1.95 -4.95 L-2.25 -4.45 -2.3 -4.25 -1.9 -2.6 -3.0 -2.15 -3.0 -2.05 -2.6 -0.6 -2.5 -0.5 Q-2.95 -0.15 -3.7 0.05 L-5.75 0.9 -0.3 2.55 0.85 1.7 4.7 2.05 4.45 0.7 Q2.5 0.6 1.1 -0.5 2.1 -0.65 2.7 -1.5 L2.8 -1.6 1.55 -2.75 1.5 -2.85 Q2.0 -2.85 2.15 -3.25 2.4 -3.75 1.95 -3.75 L1.85 -3.75 Q1.6 -4.2 1.8 -4.95 2.95 -5.15 3.4 -4.65 L3.65 -4.25 4.1 -3.4 4.35 -2.5 Q4.5 -1.9 4.85 -1.6 L6.9 0.0 Q8.35 1.2 8.35 1.75 8.35 2.2 7.9 2.5 L6.6 3.25 5.8 3.9 Q4.95 4.45 3.95 4.45 L2.25 4.15 Q1.4 3.8 1.35 3.8 L0.2 4.15 -1.1 4.45 -2.9 3.95 -4.6 3.3 -5.55 3.0 -6.1 2.7 -6.75 2.7 -7.3 2.6 -8.3 2.2 -8.55 1.75 Q-8.55 0.95 -6.65 0.45 -4.8 -0.05 -4.95 -1.6 L-4.5 -2.5 -3.9 -3.4 -3.25 -4.3 Q-3.0 -5.05 -2.3 -5.0 L-1.95 -4.95" fill="#0a0744" fill-rule="evenodd" stroke="none"/>
      <path d="M3.25 -4.85 L4.4 -3.75 4.3 -2.5 7.1 -0.05 8.25 1.0 9.0 2.3 8.2 2.45 Q7.15 3.7 5.8 4.4 L0.8 4.25 Q-0.55 5.3 -2.25 4.85 -4.25 4.45 -5.8 3.05 L-8.0 2.85 -9.05 2.0 -8.8 0.95 -6.85 0.15 -5.45 -0.15 -5.1 -1.35 -4.9 -2.3 -4.15 -3.05 -3.0 -4.65 -3.25 -3.9 -4.0 -2.7 -4.4 -2.1 Q-4.55 -0.8 -5.3 0.1 -6.05 1.0 -7.05 0.9 -8.1 0.8 -8.25 1.95 -7.45 2.7 -6.25 2.6 L-4.4 3.3 Q-2.85 4.05 -1.35 4.4 L0.2 4.0 Q1.4 3.6 2.6 4.0 L4.05 4.1 Q5.9 4.05 7.2 2.7 L8.4 1.85 5.4 -0.7 4.2 -2.0 3.55 -3.85 3.05 -4.9 3.25 -4.85" fill="#000000" fill-rule="evenodd" stroke="none"/>
    </g>
    <g id="sprite3">
      <use ffdec:characterId="9" height="7.05" transform="matrix(1.0, 0.0, 0.0, 1.0, 0.0, 0.0)" width="13.55" xlink:href="#shape3"/>
    </g>
    <g id="shape3">
      <path d="M4.6 -3.4 L4.55 -2.5 Q4.2 -2.2 4.15 -2.25 L3.3 -1.95 3.4 -1.9 Q4.0 -1.65 3.95 -1.25 L1.4 -0.55 -3.15 -0.75 Q-4.1 -1.05 -4.95 -1.45 L-3.65 -1.9 -3.7 -1.9 Q-4.65 -2.2 -4.85 -2.8 L-4.8 -2.9 -4.05 -3.15 Q-3.5 -3.05 -3.25 -2.7 L1.35 -2.7 4.55 -3.4 4.6 -3.4 M-2.5 3.2 L-2.1 2.8 -2.85 1.95 -2.85 0.8 -1.15 0.85 2.7 0.95 2.55 1.2 Q1.95 2.3 1.65 3.35 L1.8 3.5 1.05 3.55 -1.8 3.4 -2.5 3.2" fill="#6400c7" fill-rule="evenodd" stroke="none"/>
      <path d="M-4.05 -3.15 L-4.8 -2.9 -4.85 -2.8 Q-4.65 -2.2 -3.7 -1.9 L-3.65 -1.9 -4.95 -1.45 Q-4.1 -1.05 -3.15 -0.75 L1.4 -0.55 3.95 -1.25 Q4.0 -1.65 3.4 -1.9 L3.3 -1.95 4.15 -2.25 Q4.2 -2.2 4.55 -2.5 L4.6 -3.4 Q5.7 -3.4 5.7 -2.65 5.75 -2.3 5.95 -2.1 L6.2 -1.65 Q6.2 -1.15 4.95 -0.25 L4.1 0.15 3.85 0.4 3.65 0.9 3.6 1.0 3.25 2.35 Q2.75 3.25 1.8 3.5 L1.65 3.35 Q1.95 2.3 2.55 1.2 L2.7 0.95 -1.15 0.85 -2.85 0.8 -2.85 1.95 -2.1 2.8 -2.5 3.2 Q-3.75 2.75 -3.75 1.8 L-3.65 0.85 -3.55 0.25 -3.55 0.2 Q-6.4 -0.1 -6.4 -1.25 L-6.25 -1.55 -6.0 -1.75 -5.9 -2.3 -5.45 -2.85 -4.9 -3.25 -4.05 -3.15" fill="#0a0744" fill-rule="evenodd" stroke="none"/>
      <path d="M-4.85 -3.2 L-3.95 -3.2 -1.5 -2.8 -0.1 -2.85 4.55 -3.5 4.95 -3.3 Q5.55 -3.3 5.95 -2.9 6.4 -2.45 6.2 -2.0 L6.7 -1.75 6.8 -1.4 6.65 -1.1 6.25 -0.85 Q5.9 -0.85 5.9 -1.1 L6.1 -1.4 Q5.85 -1.55 5.75 -1.85 L5.7 -2.35 5.35 -2.85 4.95 -3.15 Q4.8 -2.85 3.55 -2.65 L0.0 -2.25 -1.5 -2.3 -4.85 -3.0 -4.85 -3.2 M-5.0 -3.05 Q-5.0 -2.85 -5.55 -2.6 L-5.55 -2.15 Q-5.55 -2.0 -6.3 -1.4 L-6.1 -1.05 -5.95 -0.6 -6.15 -0.4 -6.75 -1.45 -6.35 -1.95 -5.95 -2.4 -6.1 -2.75 Q-6.1 -3.1 -5.05 -3.2 L-5.0 -3.05 M-5.2 -0.4 L-3.3 0.25 0.7 0.85 Q1.95 0.85 3.5 0.15 L5.7 -0.85 5.75 -0.7 Q5.75 -0.2 4.0 0.6 L3.7 0.75 3.7 0.9 3.6 1.95 3.7 2.5 3.35 2.9 2.85 3.15 Q2.55 3.15 2.6 2.95 L2.9 2.5 3.15 1.7 Q3.15 1.2 3.3 0.9 L0.75 1.4 Q-1.2 1.4 -3.55 0.5 L-3.25 1.25 -3.3 2.05 -3.15 2.4 Q-3.0 2.6 -3.0 2.85 L-3.15 3.2 -3.95 2.15 -3.75 1.5 -3.95 0.5 -3.9 0.4 -5.3 -0.25 -5.2 -0.4" fill="#000000" fill-rule="evenodd" stroke="none"/>
    </g>
    <g id="sprite4">
      <use ffdec:characterId="18" height="5.75" transform="matrix(1.0, 0.0, 0.0, 1.0, 0.0, 0.0)" width="7.15" xlink:href="#shape4"/>
    </g>
    <g id="shape4">
      <path d="M3.6 -2.4 Q3.6 -1.95 2.75 -1.7 L2.3 -1.55 0.85 -1.3 -1.05 -1.3 Q-0.7 -0.6 -0.7 0.35 L-0.2 2.6 -0.4 2.9 Q-0.8 2.9 -1.0 2.1 L-1.15 0.8 -1.6 -1.35 -2.05 -1.45 -2.25 -0.75 -2.55 0.7 -2.8 1.85 Q-3.1 2.9 -3.3 2.9 -3.6 2.9 -3.55 2.55 L-3.35 1.3 -3.05 0.1 -2.7 -1.15 -2.55 -1.6 Q-3.55 -1.9 -3.55 -2.25 -3.55 -2.65 -3.0 -2.65 L-2.15 -2.45 -1.2 -2.15 0.8 -2.15 2.7 -2.75 Q3.6 -3.05 3.6 -2.4" fill="#ffc500" fill-rule="evenodd" stroke="none"/>
    </g>
    <g id="sprite5">
      <use ffdec:characterId="20" height="5.6" transform="matrix(1.0, 0.0, 0.0, 1.0, 0.0, 0.0)" width="8.4" xlink:href="#shape5"/>
    </g>
    <g id="shape5">
      <path d="M0.55 -0.5 Q0.35 0.15 -0.35 0.5 -1.9 0.75 -3.0 -0.15 L-3.25 -1.1 Q-2.65 -2.3 -1.9 -2.3 L0.5 -0.55 0.55 -0.5" fill="#ffc500" fill-rule="evenodd" stroke="none"/>
      <path d="M-3.25 -1.1 L-3.0 -0.15 Q-1.9 0.75 -0.35 0.5 0.35 0.15 0.55 -0.5 0.95 -0.25 2.3 0.25 3.25 0.6 3.25 1.05 L2.6 1.7 1.2 2.3 -2.2 2.3 -3.0 2.2 -3.4 2.05 -3.75 1.65 -4.0 0.85 -3.25 -1.1" fill="#ff7b00" fill-rule="evenodd" stroke="none"/>
      <path d="M-1.9 -2.15 L-2.75 -1.0 -3.45 -0.2 -3.7 0.7 Q-3.7 1.4 -3.0 1.85 -2.1 2.25 -1.85 2.4 L-2.25 2.65 Q-3.3 2.65 -3.85 1.9 L-4.2 0.8 -3.95 0.0 -3.7 -0.35 -3.7 -0.5 -2.95 -1.75 -1.8 -2.8 -1.15 -2.1 -0.25 -1.05 -0.35 -0.95 -1.15 -1.5 -1.9 -2.15 M0.3 -0.45 L-0.2 -0.95 0.5 -0.7 1.3 0.0 1.15 0.05 Q1.05 0.05 0.3 -0.45 M1.6 2.15 L2.9 1.25 Q3.55 0.75 4.15 0.7 L4.2 0.85 3.25 1.95 Q2.25 2.8 1.75 2.8 L-1.85 2.45 Q-1.6 2.0 0.45 2.0 L1.6 2.15" fill="#000000" fill-rule="evenodd" stroke="none"/>
    </g>
    <g id="sprite6">
      <use ffdec:characterId="5" height="14.75" transform="matrix(1.0, 0.0, 0.0, 1.0, 0.0, 0.0)" width="21.25" xlink:href="#shape6"/>
    </g>
    <g id="shape6">
      <path d="M-10.2 -2.25 L-9.95 -4.05 -9.7 -4.6 Q-9.1 -5.8 -7.75 -6.35 L-4.5 -6.6 -4.4 -6.6 Q-2.55 -6.35 -1.25 -5.75 L0.1 -4.6 0.15 -4.55 0.15 -1.55 -0.15 -2.15 Q-1.2 -4.05 -3.05 -4.05 -5.15 -4.05 -6.05 -3.2 -6.65 -2.65 -6.65 -1.9 L-6.1 0.3 -5.95 0.65 Q-7.85 -0.05 -9.55 -1.55 L-10.2 -2.25 M4.2 1.75 Q4.6 2.1 5.95 2.45 L7.7 3.05 8.0 4.75 5.85 4.1 4.15 3.45 4.15 3.4 4.15 3.15 4.2 1.75 M-4.25 -1.15 L-4.05 -2.0 -4.05 -2.1 -3.65 -2.4 -2.8 -2.4 -1.35 -0.45 -0.8 0.3 Q-1.4 0.95 -2.35 1.25 L-3.45 1.2 -3.5 1.15 -3.75 0.65 Q-4.25 -0.3 -4.25 -1.15" fill="#d5925c" fill-rule="evenodd" stroke="none"/>
      <path d="M7.7 3.05 L8.25 3.45 9.75 4.75 9.9 4.95 10.0 5.7 9.85 6.35 8.75 6.5 7.7 6.35 5.65 5.75 3.25 4.85 0.75 3.5 0.35 3.9 -0.2 4.3 -1.0 4.8 -3.85 4.75 Q-6.55 4.0 -8.5 1.95 -10.25 0.05 -10.25 -1.5 L-10.2 -2.25 -9.55 -1.55 Q-7.85 -0.05 -5.95 0.65 L-6.1 0.3 -6.65 -1.9 Q-6.65 -2.65 -6.05 -3.2 -5.15 -4.05 -3.05 -4.05 -1.2 -4.05 -0.15 -2.15 L0.15 -1.55 0.15 -4.55 1.15 -3.35 1.95 -2.45 2.95 -0.8 4.1 1.6 4.2 1.75 4.15 3.15 4.15 3.4 4.15 3.45 5.85 4.1 8.0 4.75 7.7 3.05 M-4.25 -1.15 Q-4.25 -0.3 -3.75 0.65 L-3.5 1.15 -3.45 1.2 -2.35 1.25 Q-1.4 0.95 -0.8 0.3 L-1.35 -0.45 -2.8 -2.4 -3.65 -2.4 -4.05 -2.1 -4.05 -2.0 -4.25 -1.15" fill="#a05a42" fill-rule="evenodd" stroke="none"/>
      <path d="M-7.7 -5.55 Q-6.45 -6.25 -4.8 -6.25 -3.2 -6.25 -2.35 -5.45 L-1.7 -4.5 -1.65 -4.45 -1.8 -4.4 -3.05 -4.85 -4.75 -5.3 Q-6.0 -5.3 -7.05 -4.65 L-7.9 -3.7 -7.55 -2.0 -7.6 -1.85 -7.85 -1.75 Q-8.85 -1.75 -8.9 -4.1 -8.9 -4.9 -7.7 -5.55 M-2.8 -1.95 Q-1.9 -1.85 -1.9 -1.15 -1.9 -0.6 -2.5 -0.6 -3.2 -0.6 -3.55 -0.95 L-3.75 -1.35 Q-3.75 -2.05 -2.8 -1.95 M5.15 4.0 Q4.7 4.0 4.4 3.5 L4.2 3.1 Q4.2 2.4 4.95 2.7 5.7 2.95 5.7 3.5 5.7 4.0 5.15 4.0" fill="#f3d283" fill-rule="evenodd" stroke="none"/>
      <path d="M-3.25 5.05 Q-5.65 4.4 -7.05 3.2 L-8.9 1.2 -8.55 0.95 -6.75 2.6 Q-4.8 4.25 -2.6 4.25 0.0 4.25 0.65 2.0 L0.35 1.15 Q0.35 0.55 0.9 1.0 1.4 1.45 1.4 1.95 1.4 3.95 -1.9 5.05 L-3.25 5.05 M5.1 5.4 L3.9 5.05 Q2.25 4.75 2.0 4.35 L1.1 3.25 Q1.1 2.75 1.6 2.8 2.1 2.85 2.35 3.35 L2.55 3.7 3.25 3.9 4.0 4.1 4.45 4.45 6.65 5.3 Q8.35 5.95 8.35 6.4 L8.1 6.7 6.25 5.75 5.1 5.4" fill="#d5925c" fill-rule="evenodd" stroke="none"/>
      <path d="M0.15 -3.8 Q-2.15 -6.4 -4.35 -6.4 -8.0 -6.4 -9.15 -5.0 -9.65 -4.35 -9.65 -3.0 L-9.75 -1.4 -8.8 0.9 Q-8.35 1.9 -6.3 3.25 -4.35 4.55 -3.6 4.55 -1.05 4.55 0.25 3.65 L1.05 2.75 Q1.05 1.95 0.3 0.9 L0.35 0.85 -0.9 -0.65 Q-2.6 -2.4 -3.6 -2.85 L-4.65 -2.85 Q-5.05 -2.65 -5.05 -1.65 -5.05 -0.6 -4.4 0.45 L-3.8 1.1 Q-3.5 1.65 -2.75 1.6 -2.05 1.55 -2.05 2.1 -2.05 2.75 -2.8 2.75 -4.5 2.75 -5.0 1.3 L-5.15 0.95 -5.85 -1.6 -5.8 -2.8 Q-5.5 -3.8 -4.15 -3.8 -1.6 -3.85 0.25 -0.8 L0.4 -0.6 0.4 -0.65 Q1.75 1.5 1.75 2.5 L1.35 3.55 Q2.15 3.8 3.35 4.8 L5.35 5.35 6.75 5.7 Q7.8 6.1 8.1 6.45 L8.6 6.4 Q9.6 6.45 9.6 5.7 L9.0 5.25 8.35 4.65 Q5.3 2.35 4.25 2.1 3.2 1.85 2.9 0.8 L2.25 -0.85 Q1.55 -2.3 0.15 -3.8 M3.2 -1.55 Q3.6 1.45 6.35 2.4 8.55 3.2 8.9 4.1 9.15 4.15 9.5 4.35 10.6 4.95 10.6 5.65 L10.3 6.65 Q9.85 7.4 9.0 7.4 7.8 7.4 7.65 6.95 L6.8 6.3 Q5.65 5.55 3.2 5.55 2.9 5.55 0.8 4.1 L0.75 4.15 Q-0.5 5.3 -2.55 5.3 -4.8 5.3 -7.3 3.45 L-9.65 1.3 Q-10.6 -0.3 -10.65 -1.15 L-10.55 -3.0 Q-10.55 -4.7 -9.9 -5.55 -8.5 -7.35 -4.2 -7.35 -1.5 -7.35 1.1 -4.55 3.2 -2.3 3.2 -1.55" fill="#000000" fill-rule="evenodd" stroke="none"/>
    </g>
  </defs>
</svg>
