<?xml version="1.0" encoding="UTF-8" standalone="no"?>
<svg xmlns:ffdec="https://www.free-decompiler.com/flash" xmlns:xlink="http://www.w3.org/1999/xlink" ffdec:objectType="frame" height="15.8px" width="25.35px" xmlns="http://www.w3.org/2000/svg">
  <g transform="matrix(1.0, 0.0, 0.0, 1.0, 12.5, -14.3)">
    <use ffdec:characterId="15" height="4.8" transform="matrix(1.0, 0.0, 0.0, 1.0, 0.0, 0.0)" width="4.8" xlink:href="#shape0"/>
    <use ffdec:characterId="12" height="3.95" transform="matrix(1.0, 0.0, 0.0, 1.0, -10.45, 25.25)" width="9.35" xlink:href="#sprite0"/>
    <use ffdec:characterId="12" height="3.95" transform="matrix(-1.0, 0.0, 0.0, 1.0, 10.45, 25.25)" width="9.35" xlink:href="#sprite0"/>
    <use ffdec:characterId="16" height="7.75" transform="matrix(1.0, 0.0, 0.0, 1.0, 0.0, 0.0)" width="10.35" xlink:href="#shape2"/>
    <use ffdec:characterId="18" height="9.45" transform="matrix(1.0, 0.0, 0.0, 1.0, -9.5, 14.9)" width="11.85" xlink:href="#sprite1"/>
    <use ffdec:characterId="18" height="9.45" transform="matrix(-1.0, 0.0, 0.0, 1.0, 9.85, 14.85)" width="11.85" xlink:href="#sprite1"/>
    <use ffdec:characterId="19" height="5.0" transform="matrix(1.0, 0.0, 0.0, 1.0, 0.0, 0.0)" width="13.2" xlink:href="#shape4"/>
  </g>
  <defs>
    <g id="shape0">
      <path d="M2.05 18.6 L2.0 18.25 2.1 18.6 2.05 18.6 M-1.75 18.6 L-1.85 18.6 -1.75 18.3 Q-1.6 17.5 -1.75 18.6" fill="#006666" fill-rule="evenodd" stroke="none"/>
      <path d="M1.55 17.2 L2.3 16.55 Q2.45 16.45 2.55 16.4 L2.55 20.6 2.5 20.65 -1.8 20.65 -1.8 16.05 -1.1 17.25 -1.25 18.8 -1.05 19.45 -0.75 19.85 0.2 20.15 0.45 20.15 0.55 20.15 0.85 20.0 Q1.55 19.3 1.55 17.2" fill="#a7b8be" fill-rule="evenodd" stroke="none"/>
      <path d="M1.55 17.2 Q1.55 19.3 0.85 20.0 L0.55 20.15 0.45 20.15 0.2 20.15 -0.75 19.85 -1.05 19.45 -1.25 18.8 -1.1 17.25 0.1 18.7 1.55 17.2" fill="#ffffff" fill-rule="evenodd" stroke="none"/>
      <path d="M0.05 18.65 L1.7 16.45 2.7 16.45 Q1.45 17.45 0.1 19.25 L-2.1 16.35 -2.1 15.85 Q-0.35 17.8 0.05 18.65" fill="#000000" fill-rule="evenodd" stroke="none"/>
    </g>
    <g id="sprite0">
      <use ffdec:characterId="11" height="3.95" transform="matrix(1.0, 0.0, 0.0, 1.0, 0.0, 0.0)" width="9.35" xlink:href="#shape1"/>
    </g>
    <g id="shape1">
      <path d="M1.4 2.6 L1.5 2.4 1.75 2.25 1.7 2.3 1.65 2.35 1.55 2.5 1.45 2.6 1.4 2.6" fill="#02c5f4" fill-rule="evenodd" stroke="none"/>
      <path d="M4.8 4.55 L2.35 4.25 2.2 4.2 2.4 4.2 4.0 4.45 4.75 4.5 4.8 4.55 M1.45 3.95 L1.25 3.85 1.3 3.8 1.45 3.95" fill="#abeefe" fill-rule="evenodd" stroke="none"/>
      <path d="M7.1 1.7 L7.05 1.65 7.1 1.65 7.1 1.7" fill="#013d4b" fill-rule="evenodd" stroke="none"/>
      <path d="M1.85 2.2 L2.0 2.1 2.5 1.8 2.6 1.75 2.5 1.8 2.1 2.25 Q2.0 2.75 3.2 2.75 L4.1 2.55 4.45 2.2 Q4.55 1.55 3.55 1.55 L3.1 1.6 3.9 1.35 4.4 1.1 4.95 1.6 Q5.25 2.1 5.15 2.65 L5.0 3.3 4.8 3.9 4.75 4.0 4.8 4.1 4.6 4.1 4.05 4.2 2.2 3.85 Q1.35 3.45 1.35 2.95 L1.55 2.5 1.65 2.35 1.75 2.35 1.85 2.2" fill="#926243" fill-rule="evenodd" stroke="none"/>
      <path d="M2.6 1.75 L3.1 1.6 3.55 1.55 Q4.55 1.55 4.45 2.2 L4.1 2.55 3.2 2.75 Q2.0 2.75 2.1 2.25 L2.5 1.8 2.6 1.75" fill="#c79e85" fill-rule="evenodd" stroke="none"/>
      <path d="M9.0 3.45 L9.0 3.5 Q9.1 4.6 8.65 4.6 L8.5 4.55 8.45 4.25 8.55 3.4 Q8.6 2.75 8.0 2.0 L7.9 1.9 Q8.55 1.55 8.85 2.25 L9.0 3.25 9.0 3.45 M4.4 1.1 L4.4 1.05 4.95 1.0 5.6 1.05 5.85 1.25 6.4 1.5 6.45 1.55 7.0 1.65 7.1 1.7 7.1 2.1 5.95 3.4 4.8 4.1 4.75 4.0 4.8 3.9 5.0 3.3 5.15 2.65 Q5.25 2.1 4.95 1.6 L4.4 1.1" fill="#573a28" fill-rule="evenodd" stroke="none"/>
      <path d="M8.85 2.25 L8.95 2.25 9.05 2.3 9.05 2.7 9.05 3.25 9.0 3.45 9.0 3.25 8.85 2.25 M8.5 4.55 L8.25 4.45 7.95 4.35 6.9 4.05 6.75 4.15 6.05 4.4 4.85 4.55 4.8 4.55 4.75 4.5 4.0 4.45 2.4 4.2 2.2 4.2 1.45 3.95 1.3 3.8 1.25 3.85 0.85 3.95 Q0.3 3.95 0.3 3.45 L0.55 2.95 Q0.85 2.55 1.25 2.55 L1.4 2.6 1.45 2.6 1.55 2.5 1.35 2.95 Q1.35 3.45 2.2 3.85 L4.05 4.2 4.6 4.1 4.8 4.1 5.95 3.4 7.1 2.1 7.1 1.7 7.1 1.65 7.55 1.6 8.0 2.0 Q8.6 2.75 8.55 3.4 L8.45 4.25 8.5 4.55 M1.75 2.25 L1.85 2.2 1.75 2.35 1.65 2.35 1.7 2.3 1.75 2.25" fill="#342318" fill-rule="evenodd" stroke="none"/>
      <path d="M8.15 2.0 L7.7 1.95 7.55 1.95 7.45 1.95 6.45 1.7 5.8 1.35 5.75 1.35 5.25 1.2 4.85 1.15 Q1.1 2.75 0.95 2.95 0.75 3.15 1.0 3.4 L1.25 3.7 1.5 3.85 1.55 3.85 2.25 4.05 2.75 4.15 5.9 4.25 6.8 4.05 6.9 4.0 7.35 3.75 7.4 3.95 7.55 4.1 8.05 4.15 Q8.7 4.15 8.85 3.55 L8.95 3.05 8.75 2.25 8.65 2.15 8.55 2.1 8.3 2.0 8.15 2.0 M8.35 1.4 Q9.1 2.2 9.25 2.75 L9.25 3.0 9.2 3.35 8.95 4.6 7.15 4.6 6.9 4.2 4.3 4.8 0.9 4.55 Q0.05 4.1 -0.05 3.7 -0.2 3.25 0.3 2.9 0.8 2.5 4.4 0.9 L5.8 1.05 6.55 1.45 6.9 1.6 6.9 1.55 8.35 1.4" fill="#000000" fill-rule="evenodd" stroke="none"/>
    </g>
    <g id="shape2">
      <path d="M1.45 20.8 L2.2 20.6 Q3.1 20.6 2.8 22.2 L3.7 24.0 4.6 26.25 Q4.6 27.4 3.25 27.4 2.15 27.4 1.55 25.4 L0.95 24.3 0.8 23.7 Q0.6 23.3 0.2 23.3 L-0.45 23.35 -1.7 25.75 Q-2.7 27.65 -3.2 27.65 -4.05 27.65 -5.05 26.55 L-4.4 25.1 -3.6 23.45 -3.1 22.7 Q-2.85 22.25 -2.9 21.9 L-3.0 21.05 Q-2.95 20.45 -2.45 20.45 L-2.25 20.55 -1.2 20.65 -0.6 20.75 0.65 20.95 1.45 20.8 M-1.05 22.35 Q-0.8 22.7 -0.45 22.7 0.15 22.7 0.15 21.95 0.15 21.3 -0.3 21.3 -1.2 21.3 -1.2 21.85 L-1.05 22.35 M-2.9 23.0 L-3.35 24.0 -3.75 24.9 -4.05 25.95 Q-4.05 26.35 -3.55 26.35 -2.95 26.35 -2.3 24.75 L-1.75 23.0 -1.75 22.95 -1.65 22.65 -1.9 22.35 -1.9 22.3 Q-2.55 22.35 -2.9 23.0 M2.0 22.6 Q1.55 22.6 1.55 22.95 2.35 26.45 3.05 26.45 3.45 26.45 3.45 25.8 2.85 22.6 2.0 22.6" fill="#014765" fill-rule="evenodd" stroke="none"/>
      <path d="M2.0 22.6 Q2.85 22.6 3.45 25.8 3.45 26.45 3.05 26.45 2.35 26.45 1.55 22.95 1.55 22.6 2.0 22.6 M-2.9 23.0 Q-2.55 22.35 -1.9 22.3 L-1.9 22.35 -1.65 22.65 -1.75 22.95 -1.75 23.0 -2.3 24.75 Q-2.95 26.35 -3.55 26.35 -4.05 26.35 -4.05 25.95 L-3.75 24.9 -3.35 24.0 -2.9 23.0 M-1.05 22.35 L-1.2 21.85 Q-1.2 21.3 -0.3 21.3 0.15 21.3 0.15 21.95 0.15 22.7 -0.45 22.7 -0.8 22.7 -1.05 22.35" fill="#0289c1" fill-rule="evenodd" stroke="none"/>
      <path d="M3.2 21.4 L3.15 21.85 3.55 23.15 4.95 26.4 4.9 26.8 4.0 27.5 3.0 27.9 2.95 27.9 2.9 27.9 Q2.15 27.75 1.8 27.3 L1.6 27.1 1.85 26.95 1.5 25.9 Q1.15 24.7 0.4 23.45 L0.05 23.45 -0.3 23.45 -1.4 25.2 -1.65 27.25 Q-2.5 27.9 -3.55 27.85 L-4.55 27.25 -5.4 26.55 -5.35 26.5 -3.25 22.0 -3.3 21.8 -3.25 20.35 -3.1 20.25 -3.3 20.15 -3.0 20.2 -2.7 20.3 -2.35 20.4 1.4 20.7 2.3 20.45 2.7 20.15 Q3.05 20.15 3.1 20.5 L3.2 21.4 M0.3 21.05 L-2.25 20.75 -2.65 20.5 -2.65 21.05 -2.65 21.7 -2.65 21.85 -2.55 21.85 -3.5 23.55 -4.55 25.9 -4.75 26.45 -4.75 26.35 -4.85 26.5 -4.95 26.45 -4.7 26.7 -4.6 26.85 -3.25 27.55 -3.0 27.55 -2.65 26.6 -2.45 26.15 -1.8 25.0 -0.65 23.1 -0.6 23.05 0.35 23.1 0.65 23.1 0.8 23.2 0.75 23.3 1.75 25.45 2.6 26.9 2.8 27.1 2.9 27.15 3.15 27.2 3.7 27.0 3.8 26.9 3.9 26.9 4.5 26.45 2.65 21.85 2.9 21.85 Q2.4 21.45 2.35 20.8 L0.3 21.05 M2.5 26.8 L2.5 26.85 2.55 26.85 2.5 26.8" fill="#000000" fill-rule="evenodd" stroke="none"/>
    </g>
    <g id="sprite1">
      <use ffdec:characterId="17" height="9.45" transform="matrix(1.0, 0.0, 0.0, 1.0, 0.0, 0.0)" width="11.85" xlink:href="#shape3"/>
    </g>
    <g id="shape3">
      <path d="M7.65 5.45 L7.7 5.55 7.65 5.7 7.65 5.45 M6.15 3.15 L6.2 3.0 6.25 3.05 6.15 3.15 M1.95 7.6 Q2.65 7.6 2.65 7.05 3.5 6.6 4.55 5.25 L4.95 4.7 4.65 5.2 Q3.15 7.65 2.2 7.65 L1.95 7.6 M1.35 7.25 L1.3 7.2 1.35 7.25" fill="#5e5e5e" fill-rule="evenodd" stroke="none"/>
      <path d="M6.05 2.8 L5.95 3.05 5.9 3.0 6.05 2.8 M1.15 7.15 L1.15 7.1 1.2 7.1 1.15 7.15" fill="#404040" fill-rule="evenodd" stroke="none"/>
      <path d="M5.9 3.0 L6.05 2.8 5.9 3.0" fill="#262626" fill-rule="evenodd" stroke="none"/>
      <path d="M6.35 0.8 L6.35 0.65 6.3 0.65 6.0 0.35 5.7 0.45 5.7 0.4 Q6.4 0.15 6.4 0.55 L6.35 0.8" fill="#151515" fill-rule="evenodd" stroke="none"/>
      <path d="M6.95 7.45 L6.85 3.6 7.15 4.15 7.25 4.25 7.5 4.7 7.55 4.95 7.65 5.45 7.65 5.7 Q7.4 6.35 7.4 7.1 7.35 7.85 6.95 7.45" fill="#144e6f" fill-rule="evenodd" stroke="none"/>
      <path d="M8.2 3.7 L8.15 3.7 8.1 3.7 8.1 3.8 8.05 3.85 7.9 3.35 7.8 3.15 7.7 3.05 7.6 2.95 7.45 2.9 Q7.05 2.9 7.05 3.4 L7.15 4.15 6.85 3.6 6.95 7.45 6.2 7.2 5.95 6.75 5.95 6.7 Q6.0 7.25 6.5 7.25 6.85 7.25 6.85 6.85 L6.35 5.3 Q5.95 5.55 5.95 6.55 L5.95 6.65 5.85 6.65 Q5.6 6.65 5.6 6.3 L5.75 6.1 Q5.8 6.0 5.9 6.0 L6.1 5.0 6.2 4.65 6.25 5.0 6.85 2.8 6.95 2.8 7.2 2.55 Q7.2 2.05 6.8 1.6 L6.35 0.8 6.5 1.4 6.5 1.6 6.5 1.75 6.35 2.25 6.05 2.8 5.9 3.0 4.3 5.15 3.15 6.3 Q2.45 6.8 1.6 7.0 L1.45 7.05 1.2 7.1 1.05 7.0 0.45 6.3 0.25 6.2 -0.15 5.7 -0.15 5.65 -0.25 5.25 Q-0.25 4.55 0.25 4.55 L0.4 4.6 0.45 4.55 0.55 4.55 1.25 3.85 3.05 2.65 4.55 1.15 5.15 0.45 6.35 0.1 7.15 0.15 7.55 0.1 Q7.9 0.15 8.0 0.45 L7.9 2.7 8.1 3.05 8.1 3.4 8.25 3.6 8.2 3.7 M6.8 1.2 L7.0 1.8 7.45 2.2 Q7.9 2.2 7.8 1.55 7.8 0.45 7.3 0.4 6.8 0.3 6.8 1.2 M6.35 0.8 L6.4 0.55 Q6.4 0.15 5.7 0.4 L5.7 0.45 6.0 0.35 6.3 0.65 6.35 0.65 6.35 0.8 M5.15 1.65 L4.85 1.85 Q3.85 2.7 2.05 5.55 2.05 6.1 2.5 6.1 3.15 6.1 4.65 4.25 6.05 2.5 6.05 2.05 6.05 1.5 5.5 1.5 L5.3 1.55 5.15 1.65 M0.1 5.45 Q0.1 5.8 0.45 5.8 L1.45 5.05 2.55 3.85 2.3 3.85 Q1.7 4.05 1.0 4.5 0.1 5.1 0.1 5.45" fill="#2a4a5c" fill-rule="evenodd" stroke="none"/>
      <path d="M6.8 1.2 Q6.8 0.3 7.3 0.4 7.8 0.45 7.8 1.55 7.9 2.2 7.45 2.2 L7.0 1.8 6.8 1.2 M5.15 1.65 L5.3 1.55 5.5 1.5 Q6.05 1.5 6.05 2.05 6.05 2.5 4.65 4.25 3.15 6.1 2.5 6.1 2.05 6.1 2.05 5.55 3.85 2.7 4.85 1.85 L5.15 1.65" fill="#4b86a7" fill-rule="evenodd" stroke="none"/>
      <path d="M7.15 4.15 L7.05 3.4 Q7.05 2.9 7.45 2.9 L7.6 2.95 7.7 3.05 7.8 3.15 7.9 3.35 8.05 3.85 8.1 3.8 8.1 3.7 8.15 3.7 8.2 3.7 8.3 4.25 8.75 5.15 Q8.75 5.55 8.35 5.55 L8.25 5.55 7.95 5.75 7.7 5.55 7.65 5.45 7.55 4.95 7.5 4.7 7.25 4.25 7.15 4.15 M5.95 6.65 L5.95 6.55 Q5.95 5.55 6.35 5.3 L6.85 6.85 Q6.85 7.25 6.5 7.25 6.0 7.25 5.95 6.7 L5.95 6.65 M0.1 5.45 Q0.1 5.1 1.0 4.5 1.7 4.05 2.3 3.85 L2.55 3.85 1.45 5.05 0.45 5.8 Q0.1 5.8 0.1 5.45" fill="#336a8a" fill-rule="evenodd" stroke="none"/>
      <path d="M1.2 7.1 L1.45 7.05 1.6 7.0 Q2.45 6.8 3.15 6.3 L4.3 5.15 5.9 3.0 5.95 3.05 6.05 2.8 6.35 2.25 6.5 1.75 6.5 1.6 6.5 1.4 6.35 0.8 6.8 1.6 Q7.2 2.05 7.2 2.55 L6.95 2.8 6.85 2.8 6.25 5.0 6.2 4.65 6.15 4.5 Q6.15 3.75 6.3 3.15 L6.25 3.05 6.2 3.0 6.15 3.15 5.95 3.4 5.1 4.5 4.95 4.7 4.55 5.25 Q3.5 6.6 2.65 7.05 2.65 7.6 1.95 7.6 1.35 7.6 1.35 7.25 L1.3 7.2 1.15 7.15 1.2 7.1" fill="#082b40" fill-rule="evenodd" stroke="none"/>
      <path d="M1.5 7.7 L1.25 8.1 1.05 8.7 Q1.05 9.1 2.2 9.1 L2.4 9.05 2.55 8.8 2.55 8.5 2.5 8.2 2.45 8.0 2.6 7.75 3.1 7.75 2.95 8.35 2.85 9.15 2.75 9.25 1.7 9.35 Q0.75 9.35 0.75 8.8 L0.75 8.55 0.7 8.65 0.25 9.1 -1.25 7.9 -2.85 6.3 -3.0 6.1 -2.8 5.95 -1.1 5.0 -1.0 4.95 -0.8 5.35 -1.25 5.45 -2.4 5.95 -2.45 5.95 -2.45 6.05 -1.55 7.3 -0.3 8.5 0.3 8.65 1.0 7.45 1.0 7.35 1.05 7.4 1.05 7.45 1.05 7.5 1.05 7.6 1.15 7.5 1.5 7.7" fill="#000000" fill-rule="evenodd" stroke="none"/>
      <path d="M2.45 8.0 L2.5 8.2 2.55 8.5 2.55 8.8 2.4 9.05 2.2 9.1 Q1.05 9.1 1.05 8.7 L1.25 8.1 1.5 7.7 1.55 7.7 1.65 7.7 1.5 7.85 1.45 8.05 1.45 8.2 1.75 8.45 2.0 8.3 2.15 7.95 2.15 7.85 2.45 8.0 M1.05 7.45 L1.05 7.4 1.0 7.35 1.0 7.45 0.3 8.65 -0.3 8.5 -1.55 7.3 -2.45 6.05 -2.45 5.95 -2.4 5.95 -1.25 5.45 -0.8 5.35 -0.05 6.4 0.7 7.05 1.05 7.45 M-1.55 7.05 L-0.9 7.55 -0.45 7.65 Q0.0 7.65 0.0 7.1 0.0 6.4 -1.0 6.0 -1.95 5.65 -2.05 6.2 L-2.05 6.3 -1.55 7.05" fill="#a7b8be" fill-rule="evenodd" stroke="none"/>
      <path d="M2.15 7.85 L2.15 7.95 2.0 8.3 1.75 8.45 1.45 8.2 1.45 8.05 1.5 7.85 1.65 7.7 2.1 7.75 2.1 7.8 2.15 7.85 M-1.55 7.05 L-2.05 6.3 -2.05 6.2 Q-1.95 5.65 -1.0 6.0 0.0 6.4 0.0 7.1 0.0 7.65 -0.45 7.65 L-0.9 7.55 -1.55 7.05" fill="#ffffff" fill-rule="evenodd" stroke="none"/>
      <path d="M7.8 0.5 L6.75 0.5 6.45 0.5 6.6 1.2 7.45 2.7 7.35 2.7 6.7 2.9 8.1 5.45 Q8.3 6.4 8.1 5.05 L7.8 2.45 7.8 0.5 M8.1 0.25 L8.1 0.3 8.3 3.4 8.35 3.5 8.35 3.65 8.35 3.7 8.75 4.85 8.85 5.0 8.5 5.95 7.4 7.7 Q6.9 8.5 6.15 7.6 L5.15 6.7 Q6.05 6.1 6.1 3.8 L4.5 5.65 2.5 8.55 Q0.25 7.8 -0.55 6.55 L-1.25 5.2 Q0.85 3.85 5.4 -0.1 L8.1 0.15 8.1 0.2 8.1 0.25 M6.0 0.5 L5.85 0.55 2.85 2.9 -0.05 5.15 Q0.45 6.75 1.9 7.55 3.25 6.7 4.25 5.5 L6.15 2.95 6.25 2.85 6.35 2.75 6.4 2.8 Q6.65 5.2 5.75 6.4 L6.95 7.4 Q7.25 7.65 7.4 6.65 7.5 5.6 6.85 3.5 L6.7 2.9 6.7 2.85 Q7.2 2.45 7.3 2.55 L7.1 2.35 6.25 0.5 6.0 0.5" fill="#000000" fill-rule="evenodd" stroke="none"/>
    </g>
    <g id="shape4">
      <path d="M5.2 15.9 Q4.2 16.55 4.2 17.15 4.2 17.65 4.6 18.3 L4.55 18.5 4.85 18.65 5.0 18.85 5.2 19.15 5.25 19.3 Q3.3 18.9 -0.65 16.95 -5.15 14.7 -6.45 14.6 L-4.95 14.65 -4.25 14.65 -3.75 14.7 -3.5 14.7 -2.4 14.7 3.95 14.6 5.45 14.4 6.75 14.3 5.8 15.2 5.2 15.9 M5.2 15.15 Q5.4 14.9 5.6 14.8 L5.15 14.85 4.65 14.85 1.95 15.1 -2.9 15.0 -3.85 14.95 -2.65 15.4 Q0.15 16.45 1.6 17.35 3.3 18.35 4.2 18.4 L4.35 18.4 4.4 18.4 4.4 18.3 Q3.35 16.75 4.65 15.8 L4.75 15.8 5.2 15.15" fill="#000000" fill-rule="evenodd" stroke="none"/>
      <path d="M5.2 15.15 L4.75 15.8 4.65 15.8 Q3.35 16.75 4.4 18.3 L4.4 18.4 4.35 18.4 4.2 18.4 Q3.3 18.35 1.6 17.35 0.15 16.45 -2.65 15.4 L-3.85 14.95 -2.9 15.0 1.95 15.1 4.65 14.85 5.15 14.85 5.6 14.8 Q5.4 14.9 5.2 15.15 M3.45 15.35 L2.8 15.15 Q2.35 15.15 2.15 15.4 L2.1 15.75 2.1 15.8 0.45 15.45 -0.65 15.4 -0.9 15.45 0.8 16.65 Q2.35 17.45 3.2 17.45 4.0 17.45 3.7 17.0 L2.55 16.1 Q3.6 16.15 3.6 15.75 L3.45 15.35" fill="#0289c1" fill-rule="evenodd" stroke="none"/>
      <path d="M3.45 15.35 L3.6 15.75 Q3.6 16.15 2.55 16.1 L3.7 17.0 Q4.0 17.45 3.2 17.45 2.35 17.45 0.8 16.65 L-0.9 15.45 -0.65 15.4 0.45 15.45 2.1 15.8 2.1 15.75 2.15 15.4 Q2.35 15.15 2.8 15.15 L3.45 15.35" fill="#35d6fd" fill-rule="evenodd" stroke="none"/>
    </g>
  </defs>
</svg>
