<?xml version="1.0" encoding="UTF-8" standalone="no"?>
<svg xmlns:ffdec="https://www.free-decompiler.com/flash" xmlns:xlink="http://www.w3.org/1999/xlink" ffdec:objectType="frame" height="16.55px" width="20.05px" xmlns="http://www.w3.org/2000/svg">
  <g transform="matrix(1.0, 0.0, 0.0, 1.0, 9.95, -13.6)">
    <use ffdec:characterId="27" height="5.3" transform="matrix(1.0, 0.0, 0.0, 1.0, 0.0, 0.0)" width="7.45" xlink:href="#shape0"/>
    <use ffdec:characterId="22" height="4.45" transform="matrix(1.0, 0.0, 0.0, 1.0, -5.65, 27.9)" width="8.15" xlink:href="#sprite0"/>
    <use ffdec:characterId="22" height="4.45" transform="matrix(-1.0, 0.0, 0.0, 1.0, 5.25, 27.85)" width="8.15" xlink:href="#sprite0"/>
    <use ffdec:characterId="24" height="8.5" transform="matrix(1.0, 0.0, 0.0, 1.0, 0.4, 23.8)" width="15.45" xlink:href="#sprite1"/>
    <use ffdec:characterId="7" height="2.45" transform="matrix(1.0, 0.0, 0.0, 0.625, 0.1, 20.95)" width="7.05" xlink:href="#sprite2"/>
    <use ffdec:characterId="5" height="6.6" transform="matrix(1.1236, 0.0, 0.0, 0.7692, 0.2, 23.35)" width="8.3" xlink:href="#sprite3"/>
    <use ffdec:characterId="9" height="8.75" transform="matrix(0.9265, 0.0621, -0.0881, 1.3138, -5.3, 19.9)" width="10.4" xlink:href="#sprite4"/>
    <use ffdec:characterId="9" height="8.75" transform="matrix(-0.9751, 0.0468, 0.0633, 1.3188, 5.3, 20.15)" width="10.4" xlink:href="#sprite4"/>
    <use ffdec:characterId="10" height="21.95" transform="matrix(-0.3128, 0.0758, 0.0994, 0.2118, -3.3, 16.5)" width="14.85" xlink:href="#shape6"/>
    <use ffdec:characterId="11" height="15.3" transform="matrix(-0.2228, 0.054, 0.054, 0.2228, -0.5, 16.75)" width="14.5" xlink:href="#shape7"/>
    <use ffdec:characterId="12" height="22.25" transform="matrix(-0.2228, 0.054, 0.054, 0.2228, 3.05, 16.75)" width="24.6" xlink:href="#shape8"/>
    <use ffdec:characterId="28" height="5.8" transform="matrix(1.0, 0.0, 0.0, 1.0, 0.0, 0.0)" width="10.85" xlink:href="#shape9"/>
  </g>
  <defs>
    <g id="shape0">
      <path d="M3.8 17.4 Q3.7 18.4 3.25 19.25 2.7 20.1 0.1 20.15 -2.55 20.2 -3.1 19.25 -3.65 18.3 -3.65 17.55 L-3.45 16.0 -3.05 14.85 -2.0 14.95 0.75 14.95 3.4 14.9 3.7 15.75 3.8 17.4" fill="#000000" fill-rule="evenodd" stroke="none"/>
      <path d="M1.75 18.9 L-0.1 19.35 Q-1.2 19.35 -1.95 18.9 -2.7 18.45 -2.7 17.85 -2.7 17.25 -1.95 16.8 -1.2 16.35 -0.1 16.35 1.0 16.35 1.75 16.8 2.5 17.25 2.5 17.85 2.5 18.45 1.75 18.9" fill="#444444" fill-rule="evenodd" stroke="none"/>
    </g>
    <g id="sprite0">
      <use ffdec:characterId="21" height="4.45" transform="matrix(1.0, 0.0, 0.0, 1.0, 0.0, 0.0)" width="8.15" xlink:href="#shape1"/>
    </g>
    <g id="shape1">
      <path d="M4.05 -0.1 Q4.05 2.25 -0.9 2.25 -2.45 2.25 -3.4 1.65 L-4.1 0.75 Q-4.1 -0.2 -3.0 -1.1 -1.7 -2.2 0.15 -2.2 L0.5 -2.2 Q2.5 -2.2 3.4 -1.35 4.05 -0.8 4.05 -0.1 M2.65 -1.2 L2.55 -1.35 0.15 -1.75 -0.2 -1.7 0.15 -1.15 0.35 -0.2 0.35 0.0 Q1.3 -0.1 1.95 -0.5 L2.65 -1.2 M-1.6 -1.3 L-2.25 -1.0 -2.45 -0.5 -2.3 -0.15 -0.7 0.05 -1.15 -0.8 -1.6 -1.3" fill="#000000" fill-rule="evenodd" stroke="none"/>
      <path d="M-1.6 -1.3 L-1.15 -0.8 -0.7 0.05 -2.3 -0.15 -2.45 -0.5 -2.25 -1.0 -1.6 -1.3 M2.65 -1.2 L1.95 -0.5 Q1.3 -0.1 0.35 0.0 L0.35 -0.2 0.15 -1.15 -0.2 -1.7 0.15 -1.75 2.55 -1.35 2.65 -1.2" fill="#ffffff" fill-rule="evenodd" stroke="none"/>
      <path d="M-3.0 0.3 Q-2.7 0.3 -2.45 0.6 -2.25 0.85 -1.65 1.0 -1.0 1.15 -1.05 1.35 L-1.55 1.5 -2.55 1.4 Q-3.2 1.3 -3.45 1.0 L-3.5 0.55 Q-3.35 0.3 -3.0 0.3" fill="#333333" fill-rule="evenodd" stroke="none"/>
      <path d="M-0.15 -0.4 Q-0.15 -0.2 -0.3 -0.15 L-0.6 -0.25 -0.85 -0.65 -0.9 -1.1 -0.75 -1.35 -0.45 -1.25 -0.15 -0.9 -0.15 -0.4" fill="#333333" fill-rule="evenodd" stroke="none"/>
    </g>
    <g id="sprite1">
      <use ffdec:characterId="23" height="8.5" transform="matrix(1.0, 0.0, 0.0, 1.0, 0.0, 0.0)" width="15.45" xlink:href="#shape2"/>
    </g>
    <g id="shape2">
      <path d="M7.0 -0.65 L7.5 -0.05 7.75 0.5 7.15 1.35 7.15 1.4 Q7.15 1.95 6.35 2.05 L6.3 2.05 6.1 2.25 5.45 2.75 5.0 2.7 Q4.85 3.4 3.9 3.4 L3.4 3.3 2.85 3.7 1.6 3.9 1.1 4.0 0.75 4.0 0.7 4.05 0.25 4.2 Q-0.1 4.2 -0.25 4.0 L-0.25 3.95 -0.35 3.95 -1.2 3.9 -1.35 3.95 -2.0 4.25 Q-2.6 4.25 -2.65 3.8 L-2.8 3.8 -3.4 3.95 Q-3.85 3.95 -3.95 3.45 L-4.95 3.0 -5.3 3.15 Q-5.7 3.15 -5.9 2.85 L-6.1 2.5 -6.25 2.35 -6.3 2.35 -6.75 2.6 Q-7.25 2.6 -7.25 2.1 L-7.1 1.7 -7.15 1.55 -7.2 1.55 -7.65 1.2 -7.6 0.9 -7.7 0.6 Q-7.7 0.0 -6.8 0.0 L-5.0 0.8 Q-3.05 1.6 -0.7 1.6 1.55 1.6 4.25 0.7 5.1 0.4 5.8 -0.25 6.25 -0.65 7.0 -0.65" fill="#000000" fill-rule="evenodd" stroke="none"/>
      <path d="M6.95 0.1 Q7.35 0.1 7.35 0.45 L6.9 0.9 6.65 0.85 6.45 1.0 6.55 1.25 Q6.55 1.55 6.2 1.55 L5.85 1.45 5.65 1.55 5.85 1.8 5.65 2.15 Q5.3 2.3 5.15 2.05 L5.15 2.0 4.9 2.25 3.95 2.55 3.1 2.9 2.7 2.9 Q2.35 2.95 1.95 3.15 L1.7 3.35 1.3 3.5 Q0.85 3.5 0.75 3.3 L0.6 3.45 0.15 3.55 -0.35 3.5 Q-0.3 3.45 -0.4 3.35 L-0.8 3.6 Q-1.2 3.6 -1.65 3.15 L-2.25 3.6 -2.5 3.5 -2.65 3.35 -2.95 3.45 Q-3.5 3.45 -3.9 2.6 L-3.95 2.45 -4.0 2.55 -4.25 2.75 Q-4.7 2.75 -4.75 2.5 L-4.8 2.55 -5.2 2.75 Q-5.7 2.75 -5.7 2.35 L-5.65 2.05 -6.1 1.9 -6.6 2.0 -6.9 1.7 -6.85 1.35 -7.3 1.05 -7.2 0.9 -7.15 0.85 -7.35 0.7 Q-7.35 0.35 -6.95 0.35 -6.45 0.35 -5.95 0.8 L-5.25 1.25 -4.7 1.15 Q-4.0 1.15 -3.75 1.6 L-3.55 2.0 -2.75 2.1 -2.2 2.25 Q-1.9 2.25 -1.8 2.45 L-0.7 2.6 3.0 2.1 4.65 1.15 5.95 0.0 Q6.8 -0.65 6.95 0.1" fill="#ffffff" fill-rule="evenodd" stroke="none"/>
      <path d="M5.9 -1.3 Q6.85 -0.3 6.65 -0.05 L5.85 0.85 4.4 1.95 2.15 2.8 -1.1 3.2 Q-2.9 3.15 -4.95 2.15 -7.0 1.15 -7.0 0.65 -7.0 -0.45 -5.45 -2.2 -3.95 -3.9 -3.1 -3.9 L-2.6 -3.65 -0.95 -3.45 1.25 -3.8 2.6 -4.2 3.85 -3.2 4.5 -2.7 5.9 -1.3" fill="#660000" fill-rule="evenodd" stroke="none"/>
      <path d="M-4.0 -0.8 L-4.25 0.15 -4.5 1.0 Q-4.75 1.6 -5.15 1.55 L-6.0 0.95 Q-6.4 0.4 -5.95 -0.15 L-5.35 -1.1 -4.45 -1.9 Q-3.8 -2.4 -3.8 -1.7 L-4.0 -0.8" fill="#cc0000" fill-rule="evenodd" stroke="none"/>
      <path d="M-1.55 -2.15 Q-2.45 2.5 -2.8 2.5 -3.9 2.5 -3.9 1.4 -3.4 -2.7 -2.2 -2.7 -1.7 -2.7 -1.55 -2.15" fill="#cc0000" fill-rule="evenodd" stroke="none"/>
      <path d="M3.4 -3.05 L4.65 -2.05 Q6.15 -0.4 6.15 0.0 L5.55 0.8 Q4.9 1.4 4.55 1.4 4.2 1.4 4.2 0.9 L3.5 -0.9 2.85 -2.0 Q2.5 -2.6 2.5 -3.2 2.5 -3.75 2.8 -3.55 L3.4 -3.05" fill="#cc0000" fill-rule="evenodd" stroke="none"/>
      <path d="M1.75 -2.65 Q1.85 -3.0 2.45 -3.0 3.5 -3.0 3.85 0.5 L3.8 1.35 Q3.65 1.85 3.0 1.85 L2.95 1.85 Q2.6 1.85 2.4 1.55 1.75 -1.2 1.75 -2.15 L1.75 -2.65" fill="#cc0000" fill-rule="evenodd" stroke="none"/>
      <path d="M-6.95 0.25 L-7.2 0.25 -7.25 -0.05 -5.7 -2.25 Q-4.05 -4.1 -3.3 -4.1 L-2.75 -3.95 Q-2.8 -3.65 -2.95 -3.7 L-3.35 -3.75 Q-3.95 -3.75 -5.3 -2.3 -6.7 -0.8 -6.9 0.2 L-6.95 0.25" fill="#000000" fill-rule="evenodd" stroke="none"/>
      <path d="M2.9 -4.2 Q3.85 -4.05 5.25 -2.5 6.65 -1.0 6.65 -0.5 L6.6 -0.3 6.65 -0.15 5.05 -2.1 3.75 -3.25 Q3.0 -3.95 2.5 -3.95 L1.85 -3.85 1.75 -3.9 Q1.9 -4.4 2.9 -4.2" fill="#000000" fill-rule="evenodd" stroke="none"/>
      <path d="M4.8 1.6 Q5.85 0.9 6.45 -0.15 L6.55 0.0 4.8 1.9 Q4.55 2.15 2.85 2.6 2.05 3.15 -0.35 3.15 L3.05 2.45 4.8 1.6" fill="#000000" fill-rule="evenodd" stroke="none"/>
      <path d="M-5.6 1.75 L-7.2 0.6 -6.95 0.15 Q-6.8 1.35 -4.5 2.1 L-3.0 2.7 -0.5 3.1 -1.05 3.15 -2.75 2.9 -5.6 1.75" fill="#000000" fill-rule="evenodd" stroke="none"/>
    </g>
    <g id="sprite2">
      <use ffdec:characterId="6" height="2.45" transform="matrix(1.0, 0.0, 0.0, 1.0, 0.0, 0.0)" width="7.05" xlink:href="#shape3"/>
    </g>
    <g id="shape3">
      <path d="M3.5 -0.75 L3.55 -0.3 Q3.55 1.25 0.4 1.25 L-3.15 0.8 Q-3.5 0.6 -3.5 0.0 L-3.25 -0.9 -2.65 -1.15 -2.1 -1.05 2.3 -1.2 Q3.25 -1.2 3.5 -0.75" fill="#000000" fill-rule="evenodd" stroke="none"/>
      <path d="M3.25 -0.4 Q3.25 0.0 2.4 0.4 L0.05 0.85 -2.9 0.5 -3.2 -0.05 Q-3.2 -0.75 -2.6 -0.75 L0.55 -0.65 1.55 -0.8 2.65 -0.95 Q3.3 -0.95 3.25 -0.4" fill="#ffffff" fill-rule="evenodd" stroke="none"/>
    </g>
    <g id="sprite3">
      <use ffdec:characterId="4" height="6.6" transform="matrix(1.0, 0.0, 0.0, 1.0, 0.0, 0.0)" width="8.3" xlink:href="#shape4"/>
    </g>
    <g id="shape4">
      <path d="M3.55 -2.6 Q3.5 -2.15 3.85 -1.8 L3.9 -1.35 4.15 -0.75 3.85 0.05 3.95 0.45 3.7 0.9 Q3.5 1.1 3.45 1.5 3.25 2.25 2.35 2.2 2.2 2.85 1.7 2.85 L1.35 2.75 1.1 3.05 0.6 3.3 0.0 2.9 -0.2 3.1 -0.55 3.25 Q-1.15 3.25 -1.5 2.6 -2.2 2.85 -2.55 2.3 -2.65 2.1 -3.05 2.05 L-3.5 1.75 -3.9 1.05 -4.15 0.45 -3.9 -0.15 -4.05 -0.55 -3.9 -1.05 -4.0 -1.5 -3.65 -2.4 -2.85 -3.05 -2.3 -2.85 -1.05 -2.65 1.75 -3.05 3.25 -3.25 3.55 -2.6 M-3.3 -2.4 L-3.3 -2.2 -3.25 -2.2 -3.3 -2.4" fill="#000000" fill-rule="evenodd" stroke="none"/>
      <path d="M3.45 -1.8 L3.05 -1.55 3.1 -1.25 Q3.35 -1.35 3.65 -1.0 L3.65 -0.95 3.7 -0.75 3.55 -0.55 3.5 -0.45 3.45 -0.45 3.35 -0.35 3.15 -0.35 3.15 -0.3 3.5 0.4 Q3.5 0.7 3.1 0.7 L2.85 0.6 2.65 0.95 Q3.05 0.9 3.05 1.35 3.05 1.75 2.5 1.75 L2.15 1.5 1.9 1.7 1.95 2.0 1.9 2.3 1.5 2.4 Q1.1 2.45 1.1 2.1 L1.1 2.0 0.85 2.05 0.85 2.25 0.5 2.7 Q0.05 2.7 0.05 2.25 L0.1 2.1 -0.05 2.1 -0.25 2.1 Q-0.25 2.6 -0.7 2.6 -1.15 2.6 -1.15 2.25 L-1.1 2.0 -1.65 1.85 -1.65 2.1 -2.1 2.3 -2.35 2.15 -2.4 2.0 -2.1 1.6 -2.3 1.5 -2.7 1.8 Q-3.1 1.8 -3.1 1.55 L-2.8 1.05 -2.95 0.9 -3.4 1.15 -3.65 0.95 -3.7 0.7 -3.5 0.3 -3.35 0.2 -3.35 0.05 -3.4 0.05 Q-3.8 0.05 -3.8 -0.3 -3.8 -0.8 -3.4 -0.8 L-3.3 -0.8 -3.25 -1.0 -3.3 -1.0 Q-3.8 -1.0 -3.8 -1.35 -3.8 -1.8 -3.35 -1.85 L-3.1 -1.8 -3.05 -1.9 -3.1 -1.9 Q-3.5 -1.9 -3.5 -2.35 L-3.15 -2.7 -2.9 -2.65 -2.9 -2.7 -2.6 -2.65 -1.9 -2.5 -0.9 -2.35 0.15 -2.4 1.7 -2.75 2.8 -3.05 3.0 -2.75 2.9 -2.4 3.0 -2.4 3.45 -1.8" fill="#cccccc" fill-rule="evenodd" stroke="none"/>
      <path d="M1.5 0.7 Q0.85 1.2 -0.1 1.2 L-1.7 0.7 Q-2.35 0.25 -2.35 -0.45 -2.35 -1.15 -1.7 -1.65 L-0.1 -2.1 Q0.85 -2.1 1.5 -1.65 2.15 -1.15 2.15 -0.45 2.15 0.25 1.5 0.7" fill="#ffffff" fill-rule="evenodd" stroke="none"/>
    </g>
    <g id="sprite4">
      <use ffdec:characterId="8" height="8.75" transform="matrix(1.0, 0.0, 0.0, 1.0, 0.0, 0.0)" width="10.4" xlink:href="#shape5"/>
    </g>
    <g id="shape5">
      <path d="M4.5 0.2 L4.25 2.7 4.15 3.65 3.75 4.0 3.4 4.1 Q2.75 4.1 2.2 3.6 1.6 3.1 1.3 3.35 L1.0 3.65 Q-2.8 2.85 -3.0 1.7 L-3.0 1.15 Q-4.95 0.5 -4.4 -0.5 -3.85 -1.55 -1.35 -3.0 L0.8 -4.2 -1.0 -1.85 Q-2.0 -0.35 -1.25 0.65 L0.15 -1.15 Q0.7 1.35 2.1 2.05 L2.9 2.4 3.4 2.45 3.8 1.8 4.5 0.2" fill="#660000" fill-rule="evenodd" stroke="none"/>
      <path d="M0.8 -4.2 L1.1 -4.35 3.8 -4.1 3.85 -4.1 3.95 -4.1 5.5 -3.9 Q5.65 -3.6 5.15 -3.0 4.85 -2.6 4.5 0.2 L3.8 1.8 3.4 2.45 2.9 2.4 2.1 2.05 Q0.7 1.35 0.15 -1.15 L-1.25 0.65 Q-2.0 -0.35 -1.0 -1.85 L0.8 -4.2" fill="#cc0000" fill-rule="evenodd" stroke="none"/>
      <path d="M-2.7 -1.0 Q-3.35 0.1 -3.75 0.1 L-4.3 -0.25 Q-4.3 -1.05 -2.6 -2.1 L-0.85 -3.05 -0.75 -3.05 Q-1.95 -2.35 -2.7 -1.0" fill="#cc0000" fill-rule="evenodd" stroke="none"/>
      <path d="M-2.7 -2.65 Q-1.6 -3.85 1.1 -4.45 L-1.6 -2.6 -3.5 -0.65 -3.85 0.0 Q-3.6 0.85 -3.15 1.1 L-2.75 1.35 -3.3 1.2 -4.35 0.55 Q-4.95 0.0 -4.35 -0.75 L-2.7 -2.65" fill="#000000" fill-rule="evenodd" stroke="none"/>
      <path d="M-2.05 -0.1 L-2.25 0.1 -2.8 1.4 Q-2.8 2.1 -1.25 2.85 L0.8 3.5 1.25 3.25 1.8 3.2 1.35 3.7 0.85 3.85 0.4 3.75 0.0 3.65 -0.2 3.85 -1.7 3.25 -3.05 2.4 -3.15 1.7 -2.7 0.7 -2.8 0.65 -1.9 -0.45 Q-1.9 -0.2 -2.05 -0.1" fill="#000000" fill-rule="evenodd" stroke="none"/>
      <path d="M0.85 3.2 L0.8 3.15 Q0.85 2.95 1.15 2.95 L2.05 3.4 Q2.65 3.8 2.95 3.8 L3.5 3.9 3.85 3.8 4.1 3.7 4.2 3.8 4.15 4.0 Q4.15 4.3 3.45 4.3 L2.75 4.25 Q1.3 3.1 1.1 3.1 L0.85 3.2" fill="#000000" fill-rule="evenodd" stroke="none"/>
      <path d="M5.2 -3.45 Q5.75 -4.45 5.75 -3.65 4.95 -1.45 4.7 0.3 L4.6 1.5 4.35 3.9 4.0 4.2 4.05 3.9 4.05 2.85 4.35 1.0 4.45 -0.85 Q4.6 -2.45 5.2 -3.45" fill="#000000" fill-rule="evenodd" stroke="none"/>
    </g>
    <g id="shape6">
      <path d="M3.65 -3.95 L3.7 -4.25 3.7 -3.95 3.65 -3.95" fill="#9c2727" fill-rule="evenodd" stroke="none"/>
      <path d="M3.55 -3.75 L3.65 -3.9 3.65 -3.95 3.7 -3.95 3.7 -3.75 3.55 -3.75 M-2.5 -2.95 L-2.2 -3.25 -2.4 -2.9 -2.5 -2.95" fill="#802222" fill-rule="evenodd" stroke="none"/>
      <path d="M-6.15 -5.75 L-6.2 -4.65 -6.4 -3.85 -6.25 -2.7 Q-5.9 -1.95 -4.75 -1.95 -3.75 -1.95 -2.5 -2.95 L-2.4 -2.9 -2.95 -1.5 -3.0 0.15 Q-3.0 3.1 -0.85 3.1 1.4 3.1 2.1 1.75 2.45 1.1 2.45 -0.25 2.45 -0.8 3.05 -2.4 L3.55 -3.75 3.7 -3.75 Q3.95 -0.2 5.6 1.45 7.4 3.25 7.4 5.75 7.4 11.0 2.9 11.0 0.0 11.0 -3.3 8.55 -5.85 6.65 -6.35 5.6 L-6.95 2.45 -7.45 -1.0 Q-7.45 -2.85 -6.85 -3.9 L-6.85 -3.95 -6.15 -5.75" fill="#660000" fill-rule="evenodd" stroke="none"/>
      <path d="M3.65 -3.95 L3.65 -3.9 3.55 -3.75 3.05 -2.4 Q2.45 -0.8 2.45 -0.25 2.45 1.1 2.1 1.75 1.4 3.1 -0.85 3.1 -3.0 3.1 -3.0 0.15 L-2.95 -1.5 -2.4 -2.9 -2.2 -3.25 -2.5 -2.95 Q-3.75 -1.95 -4.75 -1.95 -5.9 -1.95 -6.25 -2.7 L-6.4 -3.85 -6.2 -4.65 -6.15 -5.75 -5.95 -6.65 Q-3.25 -13.05 1.35 -9.95 3.65 -7.7 3.65 -4.7 L3.7 -4.25 3.65 -3.95" fill="#ff0000" fill-rule="evenodd" stroke="none"/>
    </g>
    <g id="shape7">
      <path d="M4.35 -5.5 L5.0 -4.95 Q7.25 -2.7 7.25 0.55 7.25 2.25 5.5 4.6 3.2 7.65 -0.25 7.65 -2.5 7.65 -3.35 5.9 -4.8 2.85 -5.3 2.3 -6.25 1.35 -7.25 -3.2 -7.25 -4.85 -6.25 -5.9 -6.55 -4.55 -6.0 -2.85 L-6.0 -2.7 -5.6 -2.35 Q-4.8 0.15 -2.75 1.4 L-2.5 1.8 Q0.65 3.45 3.9 1.9 L4.9 0.8 Q6.3 -2.8 4.35 -5.5" fill="#660000" fill-rule="evenodd" stroke="none"/>
      <path d="M-6.25 -5.9 L-5.0 -6.9 Q-2.9 -8.0 0.0 -7.45 2.55 -7.0 4.35 -5.5 6.3 -2.8 4.9 0.8 L3.9 1.9 Q0.65 3.45 -2.5 1.8 L-2.75 1.4 Q-4.8 0.15 -5.6 -2.35 L-6.0 -2.7 -6.0 -2.85 Q-6.55 -4.55 -6.25 -5.9" fill="#ff0000" fill-rule="evenodd" stroke="none"/>
    </g>
    <g id="shape8">
      <path d="M-11.9 -1.4 L-11.35 -1.05 Q-10.2 -0.3 -7.6 -1.0 -6.45 -1.55 -6.15 -2.1 -6.9 -0.65 -6.55 0.9 -6.0 2.45 -4.4 3.4 0.4 4.45 2.9 3.25 L5.75 1.75 6.1 1.4 7.4 -0.1 7.8 -0.7 8.4 -1.7 7.55 -2.7 6.05 -3.4 Q2.35 -5.2 -1.05 -4.45 1.1 -5.75 3.75 -5.8 6.85 -5.85 8.8 -4.5 8.8 -5.6 8.45 -6.0 L8.1 -6.45 8.1 -6.65 8.45 -6.45 Q11.4 -4.5 12.1 -2.8 L12.3 -1.85 12.1 1.4 Q11.9 3.4 8.55 7.4 5.2 11.35 0.35 11.65 -4.5 11.95 -6.1 9.35 -7.75 6.7 -7.45 5.6 L-7.1 4.25 Q-6.95 3.65 -6.2 2.9 -10.7 0.0 -11.9 -1.4" fill="#660000" fill-rule="evenodd" stroke="none"/>
      <path d="M8.1 -6.65 L8.1 -6.45 8.45 -6.0 Q8.8 -5.6 8.8 -4.5 6.85 -5.85 3.75 -5.8 1.1 -5.75 -1.05 -4.45 2.35 -5.2 6.05 -3.4 L7.55 -2.7 8.4 -1.7 7.8 -0.7 7.4 -0.1 6.1 1.4 5.75 1.75 2.9 3.25 Q0.4 4.45 -4.4 3.4 -6.0 2.45 -6.55 0.9 -6.9 -0.65 -6.15 -2.1 -6.45 -1.55 -7.6 -1.0 -10.2 -0.3 -11.35 -1.05 L-11.9 -1.4 -12.2 -1.9 -12.3 -2.25 Q-12.3 -7.75 -8.45 -9.65 -5.2 -11.25 0.0 -10.05 4.45 -9.05 8.1 -6.65" fill="#ff0000" fill-rule="evenodd" stroke="none"/>
    </g>
    <g id="shape9">
      <path d="M-1.75 15.05 L-1.7 15.25 -2.35 14.55 -4.15 14.4 Q-4.65 14.6 -4.8 15.15 L-4.55 16.5 -4.8 17.4 -4.85 18.55 -4.3 18.95 -3.55 19.05 Q-3.1 19.0 -2.55 18.55 L-1.9 17.95 -1.7 17.7 Q-1.55 17.55 -1.6 17.7 L-1.5 18.1 -1.75 18.3 Q-2.3 18.7 -3.2 19.15 L-4.5 19.4 -5.05 18.9 Q-5.45 18.1 -5.05 17.35 -4.85 16.9 -4.95 16.5 L-5.2 15.8 -5.05 15.0 -4.7 14.4 Q-4.4 14.05 -3.6 14.0 -2.8 13.95 -2.3 14.4 L-1.75 15.05" fill="#000000" fill-rule="evenodd" stroke="none"/>
      <path d="M-2.05 17.5 L-1.45 18.3 -0.1 18.45 Q0.75 18.35 0.55 17.75 L0.5 17.55 0.45 17.45 0.4 17.4 Q0.4 17.95 -0.2 18.15 L-1.25 18.2 Q-1.6 18.1 -1.9 16.9 -2.2 15.7 -1.0 15.3 L0.55 15.2 0.9 15.55 0.95 15.35 0.5 14.9 -0.95 15.0 Q-2.0 15.55 -2.2 16.4 L-2.05 17.5" fill="#000000" fill-rule="evenodd" stroke="none"/>
      <path d="M5.15 16.4 L5.25 15.25 Q5.2 14.8 4.75 14.45 4.25 14.05 3.45 14.2 L1.9 15.05 1.05 15.65 0.85 15.65 Q2.9 13.5 4.25 13.85 5.2 14.0 5.6 15.05 L5.6 16.05 Q5.5 16.8 4.45 17.05 L5.15 16.4" fill="#000000" fill-rule="evenodd" stroke="none"/>
      <path d="M0.3 17.65 L0.65 18.45 1.8 19.15 Q2.85 19.65 3.7 19.6 4.5 19.5 4.9 18.7 5.3 17.9 5.15 17.55 4.95 17.0 4.75 17.15 L4.7 17.2 4.9 17.6 4.75 18.55 Q4.55 19.15 3.5 19.2 L1.6 18.75 0.3 17.65" fill="#000000" fill-rule="evenodd" stroke="none"/>
      <path d="M0.85 17.6 L1.3 17.9 1.35 17.9 1.3 17.85 1.2 17.6 1.05 17.3 Q0.7 16.2 1.45 15.9 L0.9 16.0 0.65 16.5 Q0.5 16.85 0.65 17.3 L0.85 17.6" fill="#000000" fill-rule="evenodd" stroke="none"/>
    </g>
  </defs>
</svg>
