<?xml version="1.0" encoding="UTF-8" standalone="no"?>
<svg xmlns:ffdec="https://www.free-decompiler.com/flash" xmlns:xlink="http://www.w3.org/1999/xlink" ffdec:objectType="frame" height="17.95px" width="26.75px" xmlns="http://www.w3.org/2000/svg">
  <g transform="matrix(1.0, 0.0, 0.0, 1.0, 13.45, -13.8)">
    <use ffdec:characterId="9" height="17.95" transform="matrix(1.0, 0.0, 0.0, 1.0, 0.0, 0.0)" width="26.75" xlink:href="#shape0"/>
  </g>
  <defs>
    <g id="shape0">
      <path d="M7.55 17.9 L7.5 17.9 7.35 17.8 7.3 17.75 6.4 17.05 5.95 16.55 5.8 16.3 5.8 16.25 5.7 15.7 5.45 15.0 5.3 14.7 5.15 14.5 5.1 14.45 Q4.65 13.9 3.95 13.8 L4.15 13.8 4.85 14.05 5.35 14.3 5.45 14.4 5.4 14.4 5.45 14.5 5.45 14.55 5.55 14.65 5.7 14.85 5.8 15.0 5.8 15.05 5.9 15.2 6.0 15.4 6.0 15.5 6.05 15.55 6.05 15.8 6.1 15.8 6.1 15.9 6.1 16.0 6.1 16.1 6.15 16.15 6.15 16.25 6.15 16.3 6.2 16.35 Q6.2 16.55 6.35 16.75 L6.35 16.8 6.4 16.8 6.4 16.85 6.45 16.9 6.5 16.95 6.7 17.15 6.8 17.2 6.85 17.25 6.95 17.25 6.95 17.3 7.0 17.3 7.35 17.5 7.35 17.45 7.4 17.45 7.4 17.4 7.35 17.3 7.65 17.65 7.7 17.7 7.75 17.8 7.8 17.85 7.85 17.9 7.85 18.0 7.9 18.05 7.95 18.2 7.8 18.2 7.75 18.15 7.7 18.1 7.7 18.05 7.65 18.05 7.6 18.0 7.55 17.95 7.55 17.9 M3.6 13.8 L3.25 13.85 3.05 13.95 3.05 13.9 3.15 13.9 3.15 13.85 3.25 13.8 3.6 13.8 M2.6 14.15 L2.6 14.25 2.5 14.35 2.5 14.4 2.4 14.5 2.4 14.55 2.25 15.0 2.15 15.4 2.1 15.4 1.8 15.4 1.7 15.4 1.45 15.35 1.3 15.3 1.4 15.3 1.4 15.25 1.35 15.25 1.35 15.2 1.35 15.15 1.4 15.15 1.75 15.1 1.85 15.0 1.9 14.9 1.95 14.85 2.05 14.8 2.05 14.75 2.05 14.65 2.15 14.55 2.25 14.4 2.25 14.35 2.35 14.3 2.4 14.25 2.4 14.2 2.55 14.1 2.6 14.1 2.6 14.15 M2.3 18.05 L2.3 18.2 2.2 18.35 2.1 18.4 1.9 18.4 1.85 18.4 1.6 18.45 -0.85 18.5 -0.95 18.5 -1.1 18.5 -1.7 18.4 -1.75 18.4 -1.95 18.3 -2.1 18.2 -2.15 18.15 -2.15 18.05 -2.15 18.0 -2.15 17.85 -2.15 17.8 -1.95 16.65 -1.85 16.35 -1.75 16.05 -1.75 15.95 -1.8 15.85 -1.8 15.75 -1.8 15.7 Q-1.8 15.3 -2.05 15.05 L-2.1 14.9 -2.15 14.75 -2.25 14.65 -2.45 14.45 -2.65 14.35 -2.65 14.3 -2.55 14.35 -2.4 14.45 -2.35 14.45 -2.3 14.5 -2.25 14.5 -2.25 14.55 -2.2 14.6 -2.1 14.65 -2.1 14.7 -2.05 14.75 -2.0 14.75 -1.9 14.8 -1.65 15.0 -1.6 15.05 -1.6 15.0 -1.6 14.95 -1.55 15.0 -0.8 15.4 -0.85 15.45 -0.85 15.5 -1.05 15.95 -1.05 16.0 -1.3 16.65 -1.3 16.7 -1.35 16.7 -1.35 16.75 -1.4 16.8 -1.4 16.85 -1.45 16.95 -1.55 17.3 -1.75 17.75 -1.75 17.8 -1.8 17.85 0.1 18.1 1.05 18.15 2.1 18.15 2.15 18.1 2.2 18.05 2.3 18.05 M-5.3 14.65 L-5.1 14.55 -5.5 15.1 -5.6 15.55 -5.65 15.7 -5.7 15.9 -5.7 16.05 -5.8 16.7 -5.8 16.75 -5.8 16.8 -5.85 16.8 -5.9 16.85 -5.95 16.85 Q-6.1 16.9 -6.25 17.05 L-7.0 17.65 -7.15 17.85 -7.25 18.05 -7.4 18.2 -7.55 18.35 -8.05 19.05 Q-8.35 19.4 -8.25 19.8 L-8.25 19.85 -8.3 19.85 -8.4 19.8 -8.45 19.75 -8.5 19.7 -8.55 19.7 -8.55 19.65 -8.55 19.55 -8.6 19.5 -8.55 19.4 -7.8 18.2 -6.95 17.3 -6.9 17.25 -6.85 17.2 -6.8 17.15 -6.75 17.1 -6.65 17.0 -6.3 16.8 -6.25 16.75 -6.3 16.7 -6.35 16.5 -6.3 16.3 -6.25 16.15 -6.15 16.05 -6.1 15.85 -6.05 15.7 -5.6 15.0 -5.45 14.9 -5.35 14.7 -5.3 14.65 M-7.25 20.4 L-7.25 20.35 -7.2 20.4 -7.15 20.35 -5.2 19.35 -4.6 19.0 -4.55 18.95 -4.5 18.85 -4.45 18.8 -4.4 18.8 -4.35 18.75 -4.3 18.7 -4.3 18.65 -4.15 18.45 -4.05 18.3 -4.05 17.6 -3.85 17.8 -3.85 17.85 -3.8 17.85 -3.8 17.9 -3.7 18.0 -3.65 18.05 -3.4 18.35 -2.9 18.8 -2.85 18.8 -2.75 18.85 -2.6 19.05 -2.55 19.1 -2.4 19.25 -2.25 19.45 -2.2 19.5 -2.1 19.6 -2.0 19.7 -1.9 19.75 -1.85 19.8 -1.8 19.8 -0.95 20.15 -0.6 20.25 -1.15 20.25 -1.6 20.35 -1.65 20.4 -1.8 20.45 -1.95 20.6 -2.3 21.0 -4.5 23.5 -5.55 24.35 -5.6 24.4 -5.65 24.4 Q-6.65 25.2 -7.8 25.8 L-9.55 26.6 -9.6 26.6 -9.7 26.6 -10.05 26.7 -10.55 26.85 -10.65 26.8 -10.7 26.75 -10.75 26.7 -10.75 26.65 -10.7 26.65 -10.7 26.6 -10.65 26.6 -9.6 26.3 -9.15 26.25 -8.1 25.65 -7.55 25.3 -7.1 25.05 -6.75 24.9 -6.7 24.85 -6.7 24.75 -6.65 24.75 -6.7 24.65 -6.45 24.5 -6.5 24.55 -6.5 24.6 -6.45 24.6 -5.8 24.1 -5.65 24.05 -5.3 23.85 -4.65 23.3 -4.65 23.25 -4.6 23.2 -4.4 23.1 -3.55 22.15 -3.0 21.45 -2.9 21.4 -2.8 21.2 -2.65 21.0 -2.65 20.9 -2.6 20.85 -2.55 20.85 -2.55 20.8 -2.5 20.75 -2.3 20.45 -2.2 20.35 -2.15 20.35 -2.1 20.3 -2.1 20.25 -2.0 20.2 -1.95 20.2 -1.9 20.15 -1.85 20.1 -1.85 20.0 -1.95 19.95 -2.15 19.85 -2.2 19.8 -2.3 19.7 -2.4 19.6 -2.7 19.4 -2.75 19.35 -3.05 19.05 -3.15 18.85 -3.3 18.75 -3.35 18.75 -3.5 18.6 -3.5 18.55 -3.6 18.45 -3.7 18.4 -3.7 18.3 -3.75 18.25 -3.8 18.3 -3.9 18.4 -3.85 18.5 -3.85 18.6 -3.95 18.7 -4.0 18.85 -4.05 18.9 -4.05 18.95 -4.1 18.95 -4.1 19.0 -4.15 19.05 -4.95 19.5 -7.2 20.9 -7.2 20.85 -7.25 20.8 -7.25 20.7 -7.35 20.6 -7.35 20.45 -7.25 20.4 M-8.5 25.75 L-8.65 25.75 -11.2 26.35 -12.8 27.0 -12.85 27.0 -12.9 27.05 -13.0 27.1 -13.05 27.1 -13.1 27.05 -13.15 27.0 -13.05 26.95 -12.9 26.8 -12.85 26.75 -10.9 25.9 -10.85 25.95 -10.25 25.7 -10.1 25.65 -9.2 25.4 -8.2 25.2 -8.0 25.2 -7.4 25.1 -7.45 25.15 -7.5 25.2 -7.55 25.3 -8.05 25.5 -8.05 25.55 -8.1 25.6 -8.1 25.65 -8.15 25.65 -8.2 25.7 -8.45 25.75 -8.5 25.75 M7.9 28.85 L7.9 28.8 10.0 28.4 10.5 28.1 10.7 27.95 11.4 27.25 11.35 27.0 11.3 26.9 11.25 26.85 11.25 26.8 10.95 26.85 10.7 26.85 10.5 26.85 10.4 26.8 10.55 26.75 10.65 26.7 11.25 26.7 11.45 26.7 11.55 26.7 11.65 26.8 11.75 26.9 11.75 26.95 11.8 27.05 11.8 27.2 11.85 27.25 11.8 27.4 11.7 27.65 11.7 27.8 11.4 27.9 11.1 28.1 11.05 28.15 11.05 28.2 11.0 28.25 11.0 28.3 11.05 28.3 11.1 28.35 11.15 28.4 9.2 29.05 8.05 29.0 8.1 29.0 8.15 28.95 8.1 28.9 7.85 28.9 7.85 28.85 7.9 28.85 M10.3 26.8 L8.75 26.6 Q7.35 26.2 6.25 25.45 L6.05 25.35 5.35 24.75 5.1 24.5 4.95 24.35 4.65 24.15 3.85 23.4 3.55 23.05 3.45 23.0 3.4 22.95 3.15 22.65 3.0 22.45 3.0 22.4 2.95 22.4 2.95 22.35 2.9 22.3 2.9 22.25 2.85 22.25 2.7 22.0 2.5 21.8 2.3 21.5 2.25 21.45 2.2 21.4 2.15 21.3 2.05 21.15 2.0 21.05 1.95 21.05 1.95 21.0 1.85 20.8 1.55 20.5 1.2 20.25 1.35 20.15 1.8 19.85 1.95 19.7 2.85 18.65 3.6 17.95 3.6 18.05 3.6 18.0 3.65 17.9 3.85 17.8 3.9 17.75 4.0 17.7 4.0 17.8 4.05 18.05 4.05 18.5 4.05 18.6 4.1 18.65 4.15 18.75 4.2 18.8 4.15 18.8 4.15 18.85 5.8 19.55 6.65 20.05 6.75 20.05 6.8 20.1 6.95 20.1 7.35 19.85 7.55 19.7 7.9 19.55 7.95 19.5 7.9 19.25 7.9 18.75 7.85 18.7 7.85 18.55 7.85 18.5 7.9 18.5 7.9 18.45 8.0 18.4 8.05 18.55 8.05 18.65 8.1 18.7 8.15 18.75 8.1 18.75 8.1 18.85 8.15 18.95 8.15 19.3 8.1 19.6 8.05 19.6 8.05 19.65 8.0 19.7 8.0 19.75 7.9 19.8 7.5 20.0 7.45 20.05 7.4 20.05 7.35 20.1 7.25 20.1 7.15 20.2 6.9 20.3 6.75 20.35 5.8 19.9 5.4 19.7 4.95 19.45 3.95 18.95 3.9 18.9 3.9 18.85 3.8 18.8 3.8 18.7 3.8 18.65 3.85 18.6 3.85 18.5 3.8 18.4 3.85 18.35 3.8 18.25 3.75 18.3 3.75 18.25 3.65 18.3 3.35 18.6 3.35 18.7 3.25 18.75 3.1 18.9 3.1 18.95 2.65 19.35 2.6 19.5 2.25 19.75 2.2 19.75 2.2 19.8 2.15 19.85 2.05 19.9 2.0 19.95 1.95 19.95 1.9 20.1 1.8 20.25 2.0 20.5 2.3 20.75 4.25 23.2 4.5 23.45 4.55 23.5 4.6 23.55 4.65 23.6 4.65 23.7 4.7 23.7 4.75 23.75 4.75 23.8 4.85 23.8 4.85 23.85 4.95 23.95 5.2 24.2 5.25 24.25 5.6 24.6 7.35 25.7 7.35 25.75 7.4 25.8 7.45 25.85 8.05 26.2 9.45 26.65 10.3 26.8 M7.6 20.35 L7.65 20.45 7.6 20.5 7.55 20.6 7.2 20.75 7.2 20.65 7.15 20.65 7.3 20.55 7.55 20.35 7.6 20.35 M3.4 19.4 L3.35 19.5 3.35 19.55 3.25 19.55 3.4 19.4 M3.05 19.75 L3.05 19.8 2.95 19.85 3.05 19.75 M5.8 24.0 L5.85 23.95 5.9 23.95 6.15 24.0 6.1 24.0 6.0 24.05 6.0 24.1 5.95 24.1 5.95 24.15 5.8 24.0 M6.3 24.45 L6.35 24.45 6.4 24.4 6.5 24.4 6.5 24.45 6.6 24.45 6.95 24.75 6.95 24.8 7.0 24.85 7.05 24.9 7.15 24.95 7.25 24.95 7.3 24.95 7.45 25.05 7.55 25.1 7.7 25.25 7.9 25.4 7.9 25.5 6.85 24.8 6.5 24.65 6.3 24.45 M6.35 24.1 L6.35 24.05 6.5 24.1 6.4 24.1 6.35 24.1 M6.9 24.2 L7.6 24.35 7.15 24.3 6.95 24.2 6.9 24.2 M10.25 25.3 L11.3 25.8 11.25 25.85 11.05 25.75 10.95 25.7 10.8 25.65 10.8 25.6 10.6 25.5 10.25 25.3 M12.55 26.65 L12.7 26.75 12.8 26.9 12.85 27.05 12.85 27.15 12.85 27.35 12.8 27.35 12.7 27.45 12.55 27.5 12.6 27.4 12.65 27.4 12.7 27.35 12.75 27.3 12.75 27.25 12.75 27.05 12.55 26.65 M10.3 26.5 L10.35 26.55 9.0 26.15 8.9 26.05 8.75 26.0 8.45 25.85 8.9 25.95 9.0 25.95 9.45 26.2 10.3 26.5 M-4.0 17.9 L-4.0 18.0 -3.95 18.0 -4.0 17.9 M-6.4 20.8 L-6.45 20.75 -6.45 20.7 -6.5 20.7 -6.05 20.5 -4.35 19.55 -4.25 19.5 -4.05 19.3 -3.85 19.15 -3.8 19.15 -3.75 19.2 -4.05 19.5 -4.6 19.8 -4.7 19.9 -4.8 19.9 -5.25 20.15 -6.4 20.8 M-3.7 19.2 L-3.65 19.2 -3.6 19.2 -3.5 19.3 -3.5 19.35 -3.4 19.4 -3.35 19.45 -3.1 19.75 -2.95 20.0 -2.9 20.1 -2.9 20.15 -2.95 20.15 -3.0 20.2 -3.15 20.05 -3.15 19.9 -3.1 19.85 -3.15 19.8 -3.25 19.65 -3.3 19.6 -3.35 19.55 -3.4 19.55 -3.4 19.5 -3.5 19.45 -3.55 19.4 -3.55 19.3 -3.65 19.2 -3.7 19.2 M-6.95 21.0 L-7.1 20.95 -7.0 20.9 -6.95 20.9 -6.95 21.0 M-6.35 24.45 L-6.35 24.35 -6.35 24.3 -6.4 24.2 -6.55 24.2 -6.3 24.2 -6.15 24.25 -6.2 24.35 -6.3 24.4 -6.35 24.45 -6.4 24.5 -6.45 24.5 -6.35 24.45 M-6.65 24.2 L-6.7 24.25 -6.7 24.2 -6.65 24.2 M-6.75 24.25 L-8.15 24.7 -8.85 24.9 Q-7.9 24.4 -6.8 24.25 L-6.75 24.25" fill="#cbc5c5" fill-rule="evenodd" stroke="none"/>
      <path d="M3.95 13.8 Q4.65 13.9 5.1 14.45 L5.15 14.5 5.3 14.7 5.45 15.0 5.7 15.7 5.8 16.25 5.8 16.3 5.95 16.55 6.4 17.05 7.3 17.75 7.35 17.8 7.5 17.9 7.55 17.9 7.55 17.95 7.9 18.5 7.85 18.5 7.85 18.55 7.85 18.7 7.9 18.75 7.9 19.25 7.95 19.5 7.9 19.55 7.55 19.7 7.35 19.85 6.95 20.1 6.8 20.1 6.75 20.05 6.65 20.05 5.8 19.55 4.15 18.85 4.15 18.8 4.2 18.8 4.15 18.75 4.1 18.65 4.05 18.6 4.05 18.5 4.05 18.05 4.0 17.8 4.0 17.7 3.9 17.75 3.85 17.8 3.65 17.9 3.6 18.0 3.6 18.05 3.6 17.95 2.85 18.65 1.95 19.7 1.8 19.85 1.35 20.15 1.2 20.25 1.55 20.5 1.85 20.8 1.95 21.0 1.95 21.05 2.0 21.05 2.05 21.15 2.15 21.3 2.2 21.4 2.25 21.45 2.3 21.5 2.5 21.8 2.7 22.0 2.85 22.25 2.9 22.25 2.9 22.3 2.95 22.35 2.95 22.4 3.0 22.4 3.0 22.45 3.15 22.65 3.4 22.95 3.45 23.0 3.55 23.05 3.85 23.4 4.65 24.15 4.95 24.35 5.1 24.5 5.35 24.75 6.05 25.35 6.25 25.45 Q7.35 26.2 8.75 26.6 L10.3 26.8 10.35 26.8 10.4 26.8 10.5 26.85 10.7 26.85 10.95 26.85 11.25 26.8 11.25 26.85 11.3 26.9 11.35 27.0 11.4 27.25 10.7 27.95 10.5 28.1 10.0 28.4 7.9 28.8 7.9 28.85 7.6 28.8 6.8 28.75 5.6 28.4 Q3.75 27.75 2.35 26.6 L2.25 26.55 2.0 26.3 2.0 26.25 Q0.9 25.1 0.4 23.6 L0.35 23.5 0.3 23.3 0.1 23.35 0.05 23.35 0.0 23.35 0.0 23.5 -0.1 23.6 -0.1 23.65 -0.45 24.25 Q-1.2 25.5 -2.4 26.45 -4.45 28.05 -6.9 28.8 L-6.95 28.8 -7.0 28.85 -7.05 28.85 -7.65 28.95 -8.2 28.95 -8.25 28.95 -8.65 28.9 -8.7 28.9 -10.9 28.4 -12.85 27.1 -12.9 27.05 -12.85 27.0 -12.8 27.0 -11.2 26.35 -8.65 25.75 -8.5 25.75 -9.6 26.3 -10.65 26.6 -10.7 26.6 -10.7 26.65 -10.75 26.65 -10.75 26.7 -10.7 26.75 -11.0 26.8 -10.85 26.85 -10.8 26.85 -10.65 26.8 -10.55 26.85 -10.05 26.7 -9.7 26.6 -9.6 26.6 -9.55 26.6 -7.8 25.8 Q-6.65 25.2 -5.65 24.4 L-5.6 24.4 -5.55 24.35 -4.5 23.5 -2.3 21.0 -1.95 20.6 -1.8 20.45 -1.65 20.4 -1.6 20.35 -1.15 20.25 -0.6 20.25 -0.95 20.15 -1.8 19.8 -1.85 19.8 -1.9 19.75 -2.0 19.7 -2.1 19.6 -2.2 19.5 -2.25 19.45 -2.4 19.25 -2.55 19.1 -2.6 19.05 -2.75 18.85 -2.85 18.8 -2.9 18.8 -3.4 18.35 -3.65 18.05 -3.7 18.0 -3.8 17.9 -3.8 17.85 -3.85 17.85 -3.85 17.8 -4.05 17.6 -4.05 18.3 -4.15 18.45 -4.3 18.65 -4.3 18.7 -4.35 18.75 -4.4 18.8 -4.45 18.8 -4.5 18.85 -4.55 18.95 -4.6 19.0 -5.2 19.35 -7.15 20.35 -7.2 20.4 -7.25 20.35 -7.25 20.4 -7.35 20.3 -7.5 20.2 -7.75 20.25 -8.15 20.2 -8.15 20.1 -8.1 20.1 -7.75 20.0 -7.85 19.95 -8.15 19.95 -8.25 19.85 -8.25 19.8 Q-8.35 19.4 -8.05 19.05 L-7.55 18.35 -7.4 18.2 -7.25 18.05 -7.15 17.85 -7.0 17.65 -6.25 17.05 Q-6.1 16.9 -5.95 16.85 L-5.9 16.85 -5.85 16.8 -5.8 16.8 -5.8 16.75 -5.8 16.7 -5.7 16.05 -5.7 15.9 -5.65 15.7 -5.6 15.55 -5.5 15.1 -5.1 14.55 -5.3 14.65 -5.25 14.6 -5.05 14.45 Q-4.65 14.1 -4.2 14.0 -3.4 13.9 -2.7 14.3 L-2.65 14.35 -2.45 14.45 -2.25 14.65 -2.15 14.75 -2.1 14.9 -2.05 15.05 Q-1.8 15.3 -1.8 15.7 L-1.8 15.75 -1.8 15.85 -1.75 15.95 -1.75 16.05 -1.85 16.35 -1.95 16.65 -2.15 17.8 -2.15 17.85 -2.15 18.0 -2.15 18.05 -2.15 18.15 -2.1 18.2 -1.95 18.3 -1.75 18.4 -1.7 18.4 -1.1 18.5 -0.95 18.5 -0.85 18.5 1.6 18.45 1.8 18.45 2.0 18.4 2.1 18.4 2.2 18.35 2.3 18.2 2.3 18.05 2.1 17.35 2.05 17.1 1.9 16.75 1.8 16.45 1.7 16.15 1.6 15.8 1.55 15.65 1.55 15.55 1.5 15.55 1.5 15.45 1.45 15.45 1.45 15.35 1.7 15.4 1.8 15.4 2.1 15.4 2.15 15.4 2.25 15.0 2.4 14.55 2.4 14.5 2.5 14.4 2.5 14.35 2.6 14.25 2.6 14.15 2.65 14.1 3.05 13.9 3.05 13.95 3.25 13.85 3.6 13.8 3.8 13.8 3.95 13.8 M1.4 15.25 L1.4 15.3 1.4 15.25 M1.9 14.9 L2.0 14.75 2.05 14.65 2.05 14.75 2.05 14.8 1.95 14.85 1.9 14.9 M-1.8 26.2 L-1.9 26.35 -2.05 26.4 -1.8 26.2 M-1.65 15.0 L-1.6 15.0 -1.6 15.05 -1.65 15.0 M-4.0 17.9 L-3.95 18.0 -4.0 18.0 -4.0 17.9 M-6.3 16.8 L-6.25 16.75 -6.3 16.8" fill="#fef8f8" fill-rule="evenodd" stroke="none"/>
      <path d="M7.35 17.3 L7.4 17.4 7.4 17.45 7.35 17.45 7.35 17.5 7.0 17.3 6.95 17.3 6.95 17.25 6.85 17.25 6.8 17.2 6.7 17.15 6.5 16.95 6.45 16.9 6.4 16.85 6.4 16.8 6.35 16.8 6.35 16.75 Q6.2 16.55 6.2 16.35 L6.15 16.3 6.15 16.25 6.15 16.15 6.1 16.1 6.1 16.0 6.1 15.9 6.1 15.8 6.05 15.8 6.05 15.55 6.0 15.5 6.0 15.4 5.9 15.2 5.8 15.05 5.8 15.0 5.7 14.85 5.55 14.65 5.45 14.55 5.45 14.5 5.4 14.4 5.45 14.4 5.55 14.4 5.55 14.45 5.65 14.45 5.7 14.5 6.05 14.85 6.3 15.15 6.35 15.25 6.4 15.3 6.4 15.4 6.4 15.45 6.4 15.5 6.45 15.6 6.45 15.65 6.5 15.7 6.5 15.8 6.5 15.9 6.5 15.95 6.55 16.0 6.6 16.15 6.75 16.4 6.8 16.45 6.85 16.55 6.9 16.6 6.9 16.65 6.95 16.7 7.0 16.75 7.1 16.85 7.25 17.0 7.25 17.05 7.25 17.15 7.25 17.2 7.35 17.3 M10.4 26.8 L10.35 26.8 10.3 26.8 9.45 26.65 8.05 26.2 7.45 25.85 7.4 25.8 7.35 25.75 7.35 25.7 5.6 24.6 5.25 24.25 5.2 24.2 4.95 23.95 4.85 23.85 4.85 23.8 4.75 23.8 4.75 23.75 4.7 23.7 4.65 23.7 4.65 23.6 4.6 23.55 4.55 23.5 4.5 23.45 4.25 23.2 2.3 20.75 2.0 20.5 1.8 20.25 1.9 20.1 1.95 19.95 2.0 19.95 2.05 19.9 2.15 19.85 2.2 19.8 2.2 19.75 2.25 19.75 2.6 19.5 2.65 19.35 3.1 18.95 3.1 18.9 3.25 18.75 3.35 18.7 3.35 18.6 3.65 18.3 3.75 18.25 3.75 18.3 3.8 18.25 3.85 18.35 3.8 18.4 3.85 18.5 3.85 18.6 3.8 18.65 3.8 18.7 3.8 18.8 3.9 18.85 3.9 18.9 3.95 18.95 4.95 19.45 5.4 19.7 5.8 19.9 6.75 20.35 6.9 20.3 7.15 20.2 7.25 20.1 7.35 20.1 7.4 20.05 7.45 20.05 7.5 20.0 7.9 19.8 8.0 19.75 8.0 19.7 8.05 19.65 8.05 19.6 8.1 19.6 8.15 19.3 8.15 18.95 8.1 18.85 8.1 18.75 8.15 18.75 8.15 18.7 8.25 18.7 8.3 18.75 8.35 18.8 8.5 19.3 8.5 19.7 8.5 19.75 8.45 19.75 8.45 19.85 8.35 19.85 8.2 19.95 8.0 20.05 7.6 20.35 7.55 20.35 7.3 20.55 7.15 20.65 7.2 20.65 7.2 20.75 7.15 20.8 7.15 20.85 7.1 20.85 7.05 20.9 6.95 20.95 6.2 20.7 5.65 20.4 5.2 20.2 5.1 20.15 4.75 20.0 4.65 19.95 4.5 19.85 4.35 19.75 3.95 19.6 3.7 19.4 3.65 19.4 3.55 19.4 3.45 19.35 3.4 19.4 3.25 19.55 3.05 19.75 2.95 19.85 2.9 19.95 2.75 20.1 2.75 20.15 3.5 21.2 3.55 21.25 3.75 21.45 3.7 21.45 3.7 21.55 4.65 22.75 5.8 24.0 5.95 24.15 6.15 24.3 6.3 24.45 6.5 24.65 6.85 24.8 7.9 25.5 7.9 25.4 7.7 25.25 7.55 25.1 7.45 25.05 7.3 24.95 7.25 24.95 7.15 24.95 7.05 24.9 7.0 24.85 6.95 24.8 6.95 24.75 6.6 24.45 6.55 24.4 6.5 24.4 6.35 24.25 6.35 24.1 6.4 24.1 6.5 24.1 6.5 24.05 6.55 24.05 6.65 24.1 6.75 24.1 6.9 24.2 6.95 24.2 7.15 24.3 7.6 24.35 9.15 24.7 10.25 25.3 10.6 25.5 10.8 25.6 10.8 25.65 10.95 25.7 11.05 25.75 11.25 25.85 11.3 25.8 11.55 25.8 11.65 25.9 11.65 25.95 11.7 25.95 11.75 26.0 11.8 26.05 11.9 26.15 12.0 26.15 12.1 26.2 12.15 26.25 12.2 26.3 12.3 26.35 12.35 26.35 12.35 26.4 12.4 26.45 12.4 26.5 12.55 26.65 12.75 27.05 12.75 27.25 12.75 27.3 12.7 27.35 12.65 27.4 12.6 27.4 12.55 27.5 12.05 28.0 11.2 28.4 11.15 28.4 11.1 28.35 11.05 28.3 11.0 28.3 11.0 28.25 11.05 28.2 11.05 28.15 11.1 28.1 11.4 27.9 11.7 27.8 11.7 27.65 11.8 27.4 11.85 27.25 11.8 27.2 11.8 27.05 11.75 26.95 11.75 26.9 11.65 26.8 11.55 26.7 11.45 26.7 11.25 26.7 10.65 26.7 10.55 26.75 10.4 26.8 M10.3 26.5 L9.45 26.2 9.0 25.95 8.9 25.95 8.45 25.85 8.75 26.0 8.9 26.05 9.0 26.15 10.35 26.55 10.3 26.5 M-7.2 20.9 L-4.95 19.5 -4.15 19.05 -4.1 19.0 -4.1 18.95 -4.05 18.95 -4.05 18.9 -4.0 18.85 -3.95 18.7 -3.85 18.6 -3.85 18.5 -3.9 18.4 -3.8 18.3 -3.75 18.25 -3.7 18.3 -3.7 18.4 -3.6 18.45 -3.5 18.55 -3.5 18.6 -3.35 18.75 -3.3 18.75 -3.15 18.85 -3.05 19.05 -2.75 19.35 -2.7 19.4 -2.4 19.6 -2.3 19.7 -2.2 19.8 -2.15 19.85 -1.95 19.95 -1.85 20.0 -1.85 20.1 -1.9 20.15 -1.95 20.2 -2.0 20.2 -2.1 20.25 -2.1 20.3 -2.15 20.35 -2.2 20.35 -2.3 20.45 -2.5 20.75 -2.55 20.8 -2.55 20.85 -2.6 20.85 -2.65 20.9 -2.65 21.0 -2.8 21.2 -2.9 21.4 -3.0 21.45 -3.55 22.15 -4.4 23.1 -4.6 23.2 -4.65 23.25 -4.65 23.3 -5.3 23.85 -5.65 24.05 -5.95 24.05 -5.9 24.0 -5.85 24.0 -5.85 23.95 -5.8 23.9 -5.8 23.85 -5.7 23.85 -5.7 23.8 -5.65 23.75 -5.6 23.7 -5.55 23.7 -5.45 23.55 -5.35 23.45 -5.25 23.4 -5.15 23.2 -5.0 23.05 -4.9 22.95 -4.85 22.9 -4.85 22.8 -4.8 22.75 -4.7 22.65 -4.65 22.65 -4.5 22.45 -4.25 22.15 -4.2 22.15 -4.15 22.0 -4.05 21.85 -4.0 21.8 -4.0 21.75 -3.95 21.75 -3.5 20.95 -3.0 20.2 -2.95 20.15 -2.9 20.15 -2.9 20.1 -2.95 20.0 -3.1 19.75 -3.35 19.45 -3.4 19.4 -3.5 19.35 -3.5 19.3 -3.6 19.2 -3.65 19.2 -3.7 19.2 -3.75 19.2 -3.8 19.15 -3.85 19.15 -4.05 19.3 -4.25 19.5 -4.35 19.55 -6.05 20.5 -6.5 20.7 -6.45 20.7 -6.45 20.75 -6.4 20.8 -6.4 20.85 -6.45 20.85 -6.45 20.95 -6.5 20.95 -6.6 21.0 -6.65 21.05 -6.7 21.1 -6.8 21.1 -6.85 21.1 -6.95 21.05 -6.95 21.0 -6.95 20.9 -7.0 20.9 -7.1 20.95 -7.35 21.05 -7.45 21.05 -7.2 20.9 M-6.45 24.5 L-6.7 24.65 -6.65 24.75 -6.7 24.75 -6.7 24.85 -6.75 24.9 -7.1 25.05 -7.4 25.1 -8.0 25.2 -8.2 25.2 -9.2 25.4 -10.1 25.65 -10.25 25.7 -10.85 25.95 -10.9 25.9 -10.95 25.85 Q-9.95 25.2 -8.85 24.9 L-8.15 24.7 -6.75 24.25 -6.7 24.25 -6.65 24.2 -6.55 24.2 -6.4 24.2 -6.35 24.3 -6.35 24.35 -6.35 24.45 -6.45 24.5" fill="#9a8f8f" fill-rule="evenodd" stroke="none"/>
      <path d="M-7.65 28.95 L-7.05 28.85 -7.4 28.95 -7.55 28.95 -7.65 29.0 -7.8 29.05 -8.1 29.15 -8.2 29.1 -8.25 29.1 -8.15 29.05 -8.1 29.05 -7.65 28.95 M-0.1 23.65 L-0.1 23.6 0.0 23.5 0.0 23.35 0.05 23.35 0.1 23.35 -0.1 23.65 M0.35 23.5 L0.4 23.6 Q0.9 25.1 2.0 26.25 L1.95 26.25 1.8 26.15 1.7 26.05 1.65 26.05 2.2 26.75 3.25 27.6 3.8 27.95 3.85 28.0 3.9 28.0 4.1 28.1 4.2 28.15 4.3 28.25 4.6 28.35 4.65 28.4 4.95 28.6 5.25 28.75 5.3 28.8 5.9 29.05 6.1 29.15 6.15 29.2 6.2 29.2 6.25 29.25 6.25 29.3 6.4 29.4 6.55 29.55 6.5 29.55 6.3 29.65 6.15 29.75 5.25 30.2 5.15 30.25 5.15 30.3 4.95 30.35 4.7 30.5 2.3 31.2 2.4 31.25 1.15 31.3 1.1 31.3 1.7 31.15 1.7 31.1 1.75 31.1 1.75 31.05 1.8 30.95 1.85 30.9 1.85 30.7 1.9 30.65 1.9 30.5 1.25 27.35 0.55 25.3 0.5 25.0 0.3 24.65 0.3 24.6 0.3 24.5 0.25 24.35 0.25 24.3 0.15 24.35 0.15 24.3 0.05 24.6 0.0 24.6 -0.15 24.85 -0.15 24.9 -0.2 24.95 -0.25 24.95 -0.35 25.05 -0.35 25.15 -0.5 25.35 -0.6 25.4 -0.9 25.7 -0.9 25.8 -1.05 25.9 -1.2 26.05 -1.4 26.2 -1.45 26.25 -1.45 26.3 -1.55 26.35 -1.6 26.4 -1.65 26.5 -1.7 26.6 -1.8 26.65 -1.9 26.75 -2.0 26.8 -2.65 27.35 -2.85 27.4 -2.9 27.45 -2.95 27.55 -3.1 27.6 -3.15 27.65 -3.2 27.7 -3.4 27.8 -3.45 27.85 -3.95 28.2 -5.15 28.7 -5.4 28.85 -5.65 29.0 -5.65 29.05 -5.7 29.05 -5.75 29.1 -5.85 29.1 -5.9 29.2 -6.1 29.35 -6.15 29.45 -6.25 29.5 -6.3 29.55 -6.3 29.65 -6.35 29.7 -6.4 29.75 -6.4 29.9 -6.4 29.95 -6.55 30.05 -6.65 30.05 -6.9 30.0 -7.15 29.9 -7.2 29.85 -7.25 29.85 -7.4 29.75 -7.6 29.7 -7.6 29.65 -7.55 29.6 -7.3 29.4 -7.0 29.15 -6.95 29.1 -6.95 29.05 -6.9 29.0 -6.85 29.0 -6.75 28.95 -5.85 28.65 -5.8 28.6 -5.65 28.55 -5.6 28.5 -5.55 28.45 -5.5 28.45 -5.45 28.5 -2.05 26.4 -1.9 26.35 -1.8 26.2 Q-0.5 25.1 0.2 23.55 L0.3 23.5 0.35 23.5 M2.0 26.3 L2.25 26.55 2.0 26.3 M6.8 28.75 L7.6 28.8 7.9 28.85 7.85 28.85 7.85 28.9 6.8 28.75 M7.45 29.2 L7.5 29.2 7.45 29.25 7.45 29.2 M-8.35 29.35 L-8.45 29.3 -8.4 29.3 -8.35 29.35" fill="#d1bebe" fill-rule="evenodd" stroke="none"/>
      <path d="M-7.05 28.85 L-7.0 28.85 -6.95 28.8 -6.9 28.8 Q-4.45 28.05 -2.4 26.45 -1.2 25.5 -0.45 24.25 L-0.1 23.65 0.1 23.35 0.3 23.3 0.35 23.5 0.3 23.5 0.2 23.55 Q-0.5 25.1 -1.8 26.2 L-2.05 26.4 -5.45 28.5 -5.5 28.45 -5.55 28.45 -5.6 28.5 -5.65 28.55 -5.8 28.6 -5.85 28.65 -6.75 28.95 -6.85 29.0 -6.9 29.0 -6.95 29.05 -6.95 29.1 -7.0 29.15 -7.3 29.4 -7.55 29.6 -7.6 29.65 -7.7 29.65 -7.8 29.6 -7.85 29.5 -7.95 29.5 -8.25 29.5 -8.35 29.4 -8.35 29.35 -8.4 29.3 -8.4 29.2 -8.35 29.15 -8.3 29.1 -8.25 29.1 -8.2 29.1 -8.1 29.15 -7.8 29.05 -7.65 29.0 -7.55 28.95 -7.4 28.95 -7.05 28.85 M2.0 26.25 L2.0 26.3 2.25 26.55 2.35 26.6 Q3.75 27.75 5.6 28.4 L6.8 28.75 7.85 28.9 8.1 28.9 8.15 28.95 8.1 29.0 8.05 29.0 7.45 29.05 7.45 29.15 7.45 29.2 7.45 29.25 7.45 29.3 7.4 29.4 7.3 29.45 7.25 29.45 7.25 29.5 7.2 29.55 7.15 29.55 7.1 29.6 6.9 29.7 6.75 29.8 6.7 29.8 6.65 29.9 6.65 29.95 6.15 30.15 6.05 30.2 5.95 30.25 5.85 30.35 5.8 30.35 5.8 30.4 5.5 30.5 5.4 30.55 3.75 31.15 3.75 31.25 3.65 31.3 3.55 31.4 1.15 31.45 1.1 31.45 1.1 31.4 1.1 31.3 1.15 31.3 2.4 31.25 2.3 31.2 4.7 30.5 4.95 30.35 5.15 30.3 5.15 30.25 5.25 30.2 6.15 29.75 6.3 29.65 6.5 29.55 6.55 29.55 6.4 29.4 6.25 29.3 6.25 29.25 6.2 29.2 6.15 29.2 6.1 29.15 5.9 29.05 5.3 28.8 5.25 28.75 4.95 28.6 4.65 28.4 4.6 28.35 4.3 28.25 4.2 28.15 4.1 28.1 3.9 28.0 3.85 28.0 3.8 27.95 3.25 27.6 2.2 26.75 1.65 26.05 1.7 26.05 1.8 26.15 1.95 26.25 2.0 26.25" fill="#aa8888" fill-rule="evenodd" stroke="none"/>
      <path d="M1.1 31.3 L0.6 31.2 0.55 31.2 0.4 31.2 0.3 31.4 0.15 31.45 0.1 31.5 -0.05 31.4 -0.1 31.4 -0.1 31.35 -0.15 31.3 -0.2 31.2 -0.15 31.1 -0.15 31.05 -1.2 31.2 -1.25 31.15 -1.25 31.05 -1.3 31.1 -1.35 31.1 -1.4 31.15 -1.5 31.3 -1.6 31.4 -1.7 31.55 -1.6 31.25 -2.2 31.5 -2.45 31.45 -2.5 31.4 -2.5 31.3 -2.45 31.2 -2.3 31.15 -1.85 30.85 -1.85 30.75 -1.8 30.7 -1.8 30.65 -1.75 30.55 -1.7 30.5 -0.6 28.95 -0.1 26.7 0.0 24.95 -0.05 25.0 -0.1 25.2 -0.1 25.25 -0.15 25.3 -1.25 26.6 -4.15 29.3 -4.4 29.65 -4.4 29.75 -4.45 29.85 -4.45 29.95 -4.45 30.15 Q-4.4 30.3 -4.5 30.45 L-4.5 30.5 -4.55 30.55 -4.65 30.55 -4.65 30.6 -4.75 30.6 -4.9 30.55 -4.95 30.5 -5.0 30.45 -5.0 30.35 -6.4 29.95 -6.4 29.9 -6.4 29.75 -6.35 29.7 -6.3 29.65 -6.3 29.55 -6.25 29.5 -6.15 29.45 -6.1 29.35 -5.9 29.2 -5.85 29.1 -5.75 29.1 -5.7 29.05 -5.65 29.05 -5.65 29.0 -5.4 28.85 -5.15 28.7 -3.95 28.2 -3.45 27.85 -3.4 27.8 -3.2 27.7 -3.15 27.65 -3.1 27.6 -2.95 27.55 -2.9 27.45 -2.85 27.4 -2.65 27.35 -2.0 26.8 -1.9 26.75 -1.8 26.65 -1.7 26.6 -1.65 26.5 -1.6 26.4 -1.55 26.35 -1.45 26.3 -1.45 26.25 -1.4 26.2 -1.2 26.05 -1.05 25.9 -0.9 25.8 -0.9 25.7 -0.6 25.4 -0.5 25.35 -0.35 25.15 -0.35 25.05 -0.25 24.95 -0.2 24.95 -0.15 24.9 -0.15 24.85 0.0 24.6 0.05 24.6 0.15 24.3 0.15 24.35 0.25 24.3 0.25 24.35 0.3 24.5 0.3 24.6 0.3 24.65 0.5 25.0 0.55 25.3 1.25 27.35 1.9 30.5 1.9 30.65 1.85 30.7 1.85 30.9 1.8 30.95 1.75 31.05 1.75 31.1 1.7 31.1 1.7 31.15 1.1 31.3 M-7.2 29.85 L-7.45 29.9 -7.7 29.8 -7.8 29.7 -7.8 29.65 -7.85 29.55 -7.85 29.5 -7.8 29.6 -7.7 29.65 -7.6 29.65 -7.6 29.7 -7.4 29.75 -7.25 29.85 -7.2 29.85 M0.3 27.0 L0.25 27.2 0.3 27.15 0.3 27.0 M-5.0 30.35 L-5.0 30.2 -4.95 30.2 -4.95 29.95 -4.95 29.9 -5.0 30.0 -5.0 30.1 -5.05 30.2 -5.05 30.3 -5.0 30.35" fill="#e7dcdc" fill-rule="evenodd" stroke="none"/>
      <path d="M-0.1 31.4 Q-0.65 31.6 -1.25 31.4 L-1.5 31.3 -1.4 31.15 -1.35 31.1 -1.3 31.1 -1.25 31.05 -1.25 31.15 -1.2 31.2 -0.15 31.05 -0.15 31.1 -0.2 31.2 -0.15 31.3 -0.1 31.35 -0.1 31.4 M0.3 27.0 L0.3 27.15 0.25 27.2 0.3 27.0 M-5.0 30.35 L-5.05 30.3 -5.05 30.2 -5.0 30.1 -5.0 30.0 -4.95 29.9 -4.95 29.95 -4.95 30.2 -5.0 30.2 -5.0 30.35" fill="#ede7e7" fill-rule="evenodd" stroke="none"/>
      <path d="M-2.3 31.15 L-2.5 31.1 -3.15 31.0 -4.0 30.8 -4.05 30.75 -4.05 30.7 -4.1 30.65 -4.1 30.6 -4.55 30.55 -4.5 30.5 -4.5 30.45 Q-4.4 30.3 -4.45 30.15 L-4.45 29.95 -4.45 29.85 -4.4 29.75 -4.4 29.65 -4.15 29.3 -1.25 26.6 -0.15 25.3 -0.1 25.25 -0.1 25.2 -0.05 25.0 0.0 24.95 -0.1 26.7 -0.6 28.95 -1.7 30.5 -1.75 30.55 -1.8 30.65 -1.8 30.7 -1.85 30.75 -1.85 30.85 -2.3 31.15" fill="#f4f0f0" fill-rule="evenodd" stroke="none"/>
      <path d="M5.35 14.35 L5.15 14.15 5.95 14.8 6.0 14.8 6.05 14.9 6.1 14.95 6.15 15.0 6.3 15.25 6.3 15.3 6.35 15.35 6.65 16.1 6.7 16.4 7.85 17.95 9.0 19.8 8.65 19.85 7.8 20.5 7.3 20.9 7.25 20.85 7.25 20.75 7.2 20.8 7.1 20.95 7.05 21.05 7.0 21.1 3.8 19.55 3.7 19.6 3.7 19.65 3.6 19.7 3.55 19.7 3.45 19.75 3.4 19.8 3.35 19.85 3.3 19.85 3.3 19.9 3.25 19.95 3.25 20.0 3.2 20.1 3.2 20.15 3.2 20.25 3.2 20.55 3.9 21.55 4.45 22.35 5.05 23.05 5.1 23.1 5.75 23.75 Q8.15 24.2 10.1 25.0 11.2 25.4 12.15 26.05 L12.9 26.6 13.1 26.75 13.3 26.85 13.25 27.0 12.9 27.4 12.15 28.05 Q11.0 28.9 9.45 29.2 L8.6 29.2 5.8 30.65 Q3.8 31.75 1.4 31.75 L-3.25 31.35 -7.25 30.2 -8.85 29.65 -10.85 29.0 -11.3 28.8 -12.05 28.3 -13.2 27.45 -13.3 27.35 -13.45 27.0 Q-11.8 25.9 -9.95 25.0 L-7.6 24.2 -5.9 23.85 Q-4.2 22.25 -3.2 20.1 -3.15 20.05 -3.25 19.95 -3.9 19.1 -4.95 20.05 L-6.45 21.2 -6.85 21.35 -7.25 21.35 -7.25 21.3 -7.3 21.3 -7.4 21.25 -7.45 21.25 -7.45 21.2 -7.5 21.15 -7.55 21.0 Q-7.75 20.65 -8.1 20.45 L-8.6 20.15 -8.75 20.15 -8.75 20.1 -8.95 19.95 -8.95 19.8 -8.9 19.75 -8.9 19.7 -8.8 19.7 -8.7 19.7 -8.65 19.4 -7.85 18.05 -6.55 16.5 -6.55 16.45 -6.45 16.5 -6.45 16.4 -6.2 15.85 -5.85 15.25 -5.5 14.8 -5.05 14.45 -5.25 14.6 Q-5.8 15.2 -6.0 16.0 L-6.15 16.5 -6.2 16.65 -6.5 17.0 -6.55 17.0 -6.7 17.2 -8.0 18.8 -8.05 18.8 -8.25 19.1 -8.45 19.75 -8.4 19.75 Q-7.85 19.9 -7.4 20.3 L-7.05 20.85 -7.0 20.85 -7.0 20.95 -6.95 20.95 -6.85 20.9 -5.3 20.05 -2.95 18.65 -2.7 18.5 -2.7 18.55 -3.25 19.05 -3.2 19.15 -3.2 19.2 -3.1 19.25 -2.95 19.5 -2.5 19.9 -2.25 20.15 -2.25 20.25 -2.25 20.3 -2.25 20.4 -2.7 20.2 -2.75 20.15 -2.8 20.25 -2.8 20.35 Q-4.45 23.75 -7.7 25.5 L-9.65 26.45 -10.8 26.85 -10.85 26.85 -11.0 26.8 Q-8.4 26.05 -6.35 24.25 L-6.35 24.2 Q-9.85 25.15 -12.95 27.0 L-12.9 27.1 Q-12.0 27.95 -10.9 28.4 L-8.7 28.9 -8.65 28.9 -8.25 28.95 -8.2 28.95 -7.15 28.95 -8.2 29.25 -8.45 29.3 -8.25 29.35 -8.2 29.4 -8.15 29.4 -7.25 29.7 -3.75 30.6 -2.65 30.85 0.55 31.2 1.05 31.3 1.1 31.3 2.8 31.3 3.4 31.2 3.8 31.1 5.65 30.35 5.9 30.2 7.5 29.2 6.85 28.95 7.1 28.85 8.4 28.95 8.45 28.95 10.0 28.65 10.1 28.6 10.15 28.55 10.55 28.4 10.7 28.35 10.8 28.25 10.95 28.2 11.0 28.15 11.2 28.05 11.4 27.9 11.45 27.9 12.15 27.4 12.75 27.0 12.15 26.5 Q10.8 25.45 8.75 24.75 L7.55 24.4 6.25 24.1 6.2 24.1 8.4 25.65 10.85 26.7 Q7.55 26.15 5.1 23.65 L4.35 22.75 3.5 21.6 2.95 20.75 2.9 20.7 2.7 20.3 2.65 20.25 2.65 20.2 2.45 20.35 2.4 20.35 2.25 20.4 2.05 20.4 2.0 20.45 1.95 20.45 2.05 20.3 2.35 20.0 2.5 19.85 2.95 19.55 3.25 19.25 2.9 18.8 2.9 18.5 2.95 18.45 3.0 18.45 3.25 18.65 3.75 18.95 5.25 19.9 6.8 20.65 6.85 20.6 6.9 20.65 7.05 20.65 7.1 20.65 7.2 20.6 7.45 20.35 7.8 19.95 Q8.05 19.7 8.4 19.55 L8.4 19.5 8.45 19.5 8.1 18.9 Q7.5 17.7 6.7 16.85 L6.65 16.8 6.45 16.55 6.5 16.5 6.35 16.0 6.1 15.45 5.95 15.05 5.4 14.45 5.4 14.4 5.35 14.35" fill="#000000" fill-rule="evenodd" stroke="none"/>
    </g>
  </defs>
</svg>
