<?xml version="1.0" encoding="UTF-8" standalone="no"?>
<svg xmlns:ffdec="https://www.free-decompiler.com/flash" xmlns:xlink="http://www.w3.org/1999/xlink" ffdec:objectType="frame" height="16.4px" width="19.8px" xmlns="http://www.w3.org/2000/svg">
  <g transform="matrix(1.0, 0.0, 0.0, 1.0, 9.95, -14.45)">
    <use ffdec:characterId="4" height="5.95" transform="matrix(-1.0, 0.0, 0.0, 1.0, 9.1, 16.05)" width="6.6" xlink:href="#sprite0"/>
    <use ffdec:characterId="2" height="6.35" transform="matrix(-1.0, 0.0, 0.0, 1.0, 5.1, 20.65)" width="5.9" xlink:href="#sprite1"/>
    <use ffdec:characterId="4" height="5.95" transform="matrix(1.0, 0.0, 0.0, 1.0, -9.2, 16.05)" width="6.6" xlink:href="#sprite0"/>
    <use ffdec:characterId="2" height="6.35" transform="matrix(1.0, 0.0, 0.0, 1.0, -5.5, 20.65)" width="5.9" xlink:href="#sprite1"/>
    <use ffdec:characterId="6" height="7.85" transform="matrix(1.0, 0.0, 0.0, 1.0, -6.6, 14.45)" width="12.35" xlink:href="#sprite2"/>
    <use ffdec:characterId="8" height="4.2" transform="matrix(1.0, 0.0, 0.0, 1.0, -9.95, 26.65)" width="8.5" xlink:href="#sprite3"/>
    <use ffdec:characterId="8" height="4.2" transform="matrix(-1.0, 0.0, 0.0, 1.0, 9.85, 26.65)" width="8.5" xlink:href="#sprite3"/>
  </g>
  <defs>
    <g id="sprite0">
      <use ffdec:characterId="3" height="5.95" transform="matrix(1.0, 0.0, 0.0, 1.0, 0.0, 0.0)" width="6.6" xlink:href="#shape0"/>
    </g>
    <g id="shape0">
      <path d="M6.55 1.75 Q6.55 2.2 5.65 2.85 L4.3 3.7 3.2 4.8 2.4 5.55 1.95 4.55 1.1 4.05 0.5 3.85 Q3.9 0.0 5.2 0.0 5.6 0.0 6.1 0.8 L6.55 1.75" fill="#900000" fill-rule="evenodd" stroke="none"/>
      <path d="M6.2 3.35 L4.7 4.3 2.95 5.6 2.55 5.95 2.5 5.85 2.3 5.35 3.7 4.05 Q5.4 2.55 6.05 2.2 L6.15 2.3 Q7.0 2.85 6.2 3.35 M4.2 0.5 Q3.45 0.85 2.05 2.25 L0.7 3.85 0.55 3.8 0.2 3.75 0.15 3.8 0.0 3.65 Q-0.15 3.45 1.75 1.4 3.7 -0.7 4.15 0.3 L4.2 0.5" fill="#400000" fill-rule="evenodd" stroke="none"/>
    </g>
    <g id="sprite1">
      <use ffdec:characterId="1" height="6.35" transform="matrix(1.0, 0.0, 0.0, 1.0, 0.0, 0.0)" width="5.9" xlink:href="#shape1"/>
    </g>
    <g id="shape1">
      <path d="M0.95 3.85 L1.2 3.05 1.25 2.5 2.85 3.1 Q3.5 3.45 3.5 4.05 3.5 4.65 3.15 4.9 L2.8 5.15 1.75 5.0 0.95 3.85" fill="#6b4300" fill-rule="evenodd" stroke="none"/>
      <path d="M0.95 3.85 L1.75 5.0 2.8 5.15 3.15 4.9 Q3.5 4.65 3.5 4.05 3.5 3.45 2.85 3.1 L1.25 2.5 Q2.6 0.15 3.0 0.0 4.85 0.75 5.9 1.9 L4.25 4.05 Q3.15 5.2 3.0 6.15 L0.15 5.35 0.95 3.85" fill="#321800" fill-rule="evenodd" stroke="none"/>
      <path d="M0.0 5.4 Q0.0 4.3 0.7 2.9 L2.35 0.1 2.7 0.4 Q2.15 0.8 1.35 2.95 L0.4 5.3 0.0 5.4 M2.8 5.95 L3.9 4.0 Q4.55 2.65 4.95 2.3 L5.8 3.15 Q4.95 3.25 4.15 4.6 L3.3 6.35 2.8 5.95" fill="#000000" fill-rule="evenodd" stroke="none"/>
    </g>
    <g id="sprite2">
      <use ffdec:characterId="5" height="7.85" transform="matrix(1.0, 0.0, 0.0, 1.0, 0.0, 0.0)" width="12.35" xlink:href="#shape2"/>
    </g>
    <g id="shape2">
      <path d="M7.3 0.6 L10.6 0.5 Q12.1 1.15 12.0 3.15 L11.65 5.1 11.45 4.9 Q10.75 4.8 10.15 4.35 L9.25 3.7 7.65 2.85 6.55 3.85 Q6.2 4.2 5.85 4.2 L5.2 4.05 5.2 3.75 4.6 3.6 4.55 3.6 4.5 3.55 3.05 4.6 2.75 4.85 1.4 5.7 0.9 5.9 0.7 5.85 0.65 5.6 0.7 5.0 0.5 5.25 0.45 4.75 1.05 2.95 2.25 0.3 4.9 0.4 6.0 1.65 7.3 0.6" fill="#ffffff" fill-rule="evenodd" stroke="none"/>
      <path d="M7.3 0.6 L6.0 1.65 4.9 0.4 5.0 0.25 Q5.6 0.25 6.15 1.15 6.55 0.55 7.1 0.3 L7.3 0.6 M2.25 0.3 L1.05 2.95 0.9 2.5 2.1 0.0 2.25 0.3 M0.5 5.25 L0.7 5.0 0.65 5.6 0.5 5.25" fill="#000000" fill-rule="evenodd" stroke="none"/>
      <path d="M2.75 4.85 L3.05 4.6 3.0 4.8 4.4 3.95 Q4.8 3.7 4.6 3.6 L5.2 3.75 5.2 4.05 5.85 4.2 Q6.2 4.2 6.55 3.85 L7.65 2.85 9.25 3.7 Q9.85 5.35 9.65 6.1 9.35 7.45 5.65 7.45 L3.8 7.1 2.5 6.5 2.75 4.85 M3.55 6.7 Q6.0 7.4 8.6 6.7 9.0 5.0 8.05 4.05 5.45 5.05 4.15 4.5 3.55 4.7 3.55 6.7" fill="#900000" fill-rule="evenodd" stroke="none"/>
      <path d="M3.05 4.6 L4.5 3.55 4.55 3.6 4.6 3.6 Q4.8 3.7 4.4 3.95 L3.0 4.8 3.05 4.6" fill="#3cb0ff" fill-rule="evenodd" stroke="none"/>
      <path d="M3.55 6.7 Q3.55 4.7 4.15 4.5 5.45 5.05 8.05 4.05 9.0 5.0 8.6 6.7 6.0 7.4 3.55 6.7" fill="#d81111" fill-rule="evenodd" stroke="none"/>
      <path d="M11.25 4.6 Q12.25 1.45 10.35 0.5 13.35 0.3 11.85 5.5 L10.05 4.55 Q10.3 5.65 10.0 6.75 L8.85 7.35 5.5 7.85 Q3.45 7.95 2.2 6.4 L2.3 5.45 0.15 6.5 Q-0.15 5.3 0.1 3.9 0.5 1.55 2.0 0.0 L1.4 1.9 Q0.75 3.2 0.8 5.65 1.65 5.05 2.45 4.55 4.15 3.45 5.95 2.6 L5.2 3.35 6.0 4.15 6.9 2.9 6.7 2.3 Q8.9 3.65 11.25 4.6 M5.35 4.45 L4.7 3.7 3.05 4.95 2.9 6.55 Q4.3 7.5 6.15 7.35 8.0 7.4 9.4 6.15 9.55 4.55 9.2 4.25 L8.35 3.7 7.55 3.2 6.05 4.65 5.35 4.45" fill="#000000" fill-rule="evenodd" stroke="none"/>
    </g>
    <g id="sprite3">
      <use ffdec:characterId="7" height="4.2" transform="matrix(1.0, 0.0, 0.0, 1.0, 0.0, 0.0)" width="8.5" xlink:href="#shape3"/>
    </g>
    <g id="shape3">
      <path d="M8.15 0.65 L7.9 1.1 6.95 2.2 Q5.75 3.1 3.85 3.1 2.8 3.1 2.05 2.6 L1.3 1.85 1.35 1.8 1.35 1.75 Q1.35 0.9 2.3 0.45 L2.45 0.4 Q2.5 0.2 2.95 0.15 3.4 0.1 3.4 0.35 L3.7 0.35 4.35 0.4 4.4 0.4 4.85 0.35 5.55 0.9 5.55 0.95 6.6 1.9 7.35 1.05 7.9 0.2 8.15 0.65" fill="#ea7c27" fill-rule="evenodd" stroke="none"/>
      <path d="M8.15 0.65 L8.2 1.1 8.2 1.45 8.2 1.5 7.95 2.65 6.7 3.6 4.2 3.95 2.15 3.6 1.1 2.75 0.45 2.05 Q0.7 1.3 1.1 0.85 1.45 0.4 2.3 0.4 L2.45 0.4 2.3 0.45 Q1.35 0.9 1.35 1.75 L1.35 1.8 1.3 1.85 2.05 2.6 Q2.8 3.1 3.85 3.1 5.75 3.1 6.95 2.2 L7.9 1.1 8.15 0.65" fill="#a81f1f" fill-rule="evenodd" stroke="none"/>
      <path d="M7.05 3.7 L5.6 4.1 3.6 4.15 1.85 3.8 0.75 3.0 0.0 2.05 Q0.25 0.75 1.45 0.2 L2.25 0.15 4.05 0.0 Q4.35 0.0 5.35 0.5 6.45 1.0 6.75 1.3 L7.3 0.6 7.9 0.0 Q8.5 0.35 8.5 1.0 L8.25 2.2 7.85 3.25 Q7.75 3.5 7.05 3.7 M7.95 2.65 Q8.25 2.0 8.2 1.1 8.15 0.2 7.9 0.2 L7.35 1.05 6.6 1.9 4.9 0.55 3.7 0.35 2.3 0.4 Q1.45 0.4 1.1 0.85 0.7 1.3 0.45 2.05 L1.1 2.75 2.15 3.6 4.2 3.95 6.7 3.6 7.95 2.65" fill="#000000" fill-rule="evenodd" stroke="none"/>
    </g>
  </defs>
</svg>
