<?xml version="1.0" encoding="UTF-8" standalone="no"?>
<svg xmlns:ffdec="https://www.free-decompiler.com/flash" xmlns:xlink="http://www.w3.org/1999/xlink" ffdec:objectType="frame" height="17.25px" width="24.0px" xmlns="http://www.w3.org/2000/svg">
  <g transform="matrix(1.0, 0.0, 0.0, 1.0, 11.9, -14.15)">
    <use ffdec:characterId="8" height="5.7" transform="matrix(-1.0, 0.0, 0.0, 1.0, 5.8, 28.55)" width="9.1" xlink:href="#sprite0"/>
    <use ffdec:characterId="17" height="4.75" transform="matrix(-1.0, 0.0, 0.0, 1.0, 2.85, 24.65)" width="5.75" xlink:href="#sprite1"/>
    <use ffdec:characterId="8" height="5.7" transform="matrix(1.0, 0.0, 0.0, 1.0, -5.95, 28.5)" width="9.1" xlink:href="#sprite0"/>
    <use ffdec:characterId="17" height="4.75" transform="matrix(1.0, 0.0, 0.0, 1.0, -3.0, 24.6)" width="5.75" xlink:href="#sprite1"/>
    <use ffdec:characterId="4" height="8.7" transform="matrix(1.0444, 0.0, 0.0, 1.1647, 0.1, 19.55)" width="8.95" xlink:href="#sprite2"/>
    <use ffdec:characterId="6" height="10.45" transform="matrix(1.0, 0.0, 0.0, 1.0, -7.0, 19.3)" width="9.35" xlink:href="#sprite3"/>
    <use ffdec:characterId="6" height="10.45" transform="matrix(-1.0, 0.0, 0.0, 1.0, 7.2, 19.35)" width="9.35" xlink:href="#sprite3"/>
  </g>
  <defs>
    <g id="sprite0">
      <use ffdec:characterId="7" height="5.7" transform="matrix(1.0, 0.0, 0.0, 1.0, 0.0, 0.0)" width="9.1" xlink:href="#shape0"/>
    </g>
    <g id="shape0">
      <path d="M3.1 -2.5 Q2.65 -0.45 0.9 0.3 -0.95 1.05 -2.75 0.6 L-3.45 0.45 -4.35 -0.1 Q-4.25 -0.9 -3.25 -1.55 L-3.2 -1.15 -3.1 -0.95 Q-1.0 0.1 -0.6 -2.05 -0.5 -2.4 -0.7 -2.65 L3.1 -2.5" fill="#2e2727" fill-rule="evenodd" stroke="none"/>
      <path d="M3.1 -2.5 L4.0 -2.15 Q4.75 -0.5 4.25 1.1 3.95 1.85 4.0 2.1 L-3.5 2.4 -4.3 0.65 -4.35 -0.1 -3.45 0.45 -2.75 0.6 Q-0.95 1.05 0.9 0.3 2.65 -0.45 3.1 -2.5" fill="#151212" fill-rule="evenodd" stroke="none"/>
      <path d="M-3.25 -1.55 L-1.85 -2.25 -0.7 -2.65 Q-0.5 -2.4 -0.6 -2.05 -1.0 0.1 -3.1 -0.95 L-3.2 -1.15 -3.25 -1.55" fill="#707070" fill-rule="evenodd" stroke="none"/>
      <path d="M4.25 -2.3 Q4.9 -0.65 4.15 2.15 L-3.1 2.55 Q4.2 2.6 3.75 1.4 L-3.9 1.45 -3.45 2.55 -4.3 1.6 -4.55 0.6 Q-4.45 -0.5 -4.1 -0.65 L-3.9 0.75 4.15 1.05 4.35 -0.5 3.6 -2.0 4.25 -2.3 M0.75 -2.85 Q-1.65 -2.5 -3.9 -0.85 -2.7 -2.3 -0.65 -2.75 L0.75 -2.85" fill="#000000" fill-rule="evenodd" stroke="none"/>
    </g>
    <g id="sprite1">
      <use ffdec:characterId="16" height="4.75" transform="matrix(1.0, 0.0, 0.0, 1.0, 0.0, 0.0)" width="5.75" xlink:href="#shape1"/>
    </g>
    <g id="shape1">
      <path d="M-0.55 -1.4 L1.25 -0.6 Q0.4 0.85 -1.0 1.5 L-2.3 1.25 -0.55 -1.4" fill="#2d2d2d" fill-rule="evenodd" stroke="none"/>
      <path d="M-0.55 -1.4 L0.0 -2.3 2.4 -2.45 2.65 -2.1 Q2.55 -0.25 1.15 1.9 L-1.0 1.5 Q0.4 0.85 1.25 -0.6 L-0.55 -1.4" fill="#151212" fill-rule="evenodd" stroke="none"/>
      <path d="M2.4 -1.85 L2.9 -1.7 2.55 -0.5 0.95 2.3 -2.85 1.55 -2.45 0.95 -2.0 0.25 -1.45 -0.5 -0.9 -1.2 -0.2 -2.3 0.25 -2.15 -2.15 1.15 0.85 1.7 Q2.3 0.0 2.4 -1.85" fill="#000000" fill-rule="evenodd" stroke="none"/>
    </g>
    <g id="sprite2">
      <use ffdec:characterId="3" height="8.7" transform="matrix(1.0, 0.0, 0.0, 1.0, 0.0, 0.0)" width="8.95" xlink:href="#shape2"/>
    </g>
    <g id="shape2">
      <path d="M-3.05 2.25 L-2.5 0.95 -0.6 1.15 -0.5 1.15 -0.55 3.0 0.25 3.0 0.25 2.5 0.25 1.1 Q1.55 1.0 2.45 0.45 L2.95 2.0 Q-0.05 3.9 -3.05 2.25" fill="#007ab6" fill-rule="evenodd" stroke="none"/>
      <path d="M0.3 -4.25 L0.3 -4.1 0.25 0.35 Q1.25 0.2 2.25 -0.45 L2.35 -2.8 2.45 -3.6 2.65 -4.4 3.2 -4.5 Q2.95 -2.25 3.05 -0.7 L3.1 0.1 3.4 1.6 4.05 3.3 Q2.0 4.3 -0.2 4.1 L-4.2 3.55 Q-3.0 1.8 -2.85 0.15 L-2.85 0.1 -2.9 -0.7 Q-3.1 -2.75 -3.5 -3.55 L-2.9 -4.4 -2.5 -4.35 Q-2.0 -2.85 -2.1 -1.0 L-2.15 0.1 -0.5 0.4 -0.5 -3.35 -0.35 -4.25 0.3 -4.25 M-3.05 2.25 Q-0.05 3.9 2.95 2.0 L2.45 0.45 Q1.55 1.0 0.25 1.1 L0.25 2.5 0.25 3.0 -0.55 3.0 -0.5 1.15 -0.6 1.15 -2.5 0.95 -3.05 2.25" fill="#002f6c" fill-rule="evenodd" stroke="none"/>
      <path d="M0.3 -4.25 L2.65 -4.4 2.45 -3.6 2.35 -2.8 2.25 -0.45 Q1.25 0.2 0.25 0.35 L0.3 -4.1 0.3 -4.25 M-2.5 -4.35 L-0.8 -4.25 -0.35 -4.25 -0.5 -3.35 -0.5 0.4 -2.15 0.1 -2.1 -1.0 Q-2.0 -2.85 -2.5 -4.35" fill="#00aaff" fill-rule="evenodd" stroke="none"/>
      <path d="M3.05 -2.25 L3.15 -2.05 3.2 -0.35 Q3.15 0.75 3.95 2.4 L4.4 3.6 Q2.5 4.35 0.45 4.15 L0.35 4.15 -0.75 4.15 -2.85 3.95 -4.45 3.45 Q-3.1 1.75 -3.05 -0.2 L-3.25 -2.4 Q-1.9 -0.15 -3.2 2.2 L-3.7 3.05 -1.8 3.65 -0.8 3.75 -0.4 3.35 -0.4 -1.0 -0.55 -4.15 -0.2 -4.25 -0.05 -4.25 0.0 -0.6 -0.05 2.0 0.0 3.7 0.45 3.75 Q2.65 4.0 3.7 3.1 3.05 0.75 2.95 -1.75 L3.05 -2.25" fill="#000000" fill-rule="evenodd" stroke="none"/>
      <path d="M0.95 0.35 L1.8 0.25 3.55 -0.15 Q3.65 0.95 0.95 1.1 L1.0 0.8 0.95 0.35 M-0.95 1.1 Q-3.75 1.0 -3.3 0.4 L-0.9 0.5 -1.0 0.75 -0.95 1.1" fill="#ffffff" fill-rule="evenodd" stroke="none"/>
      <path d="M0.95 1.1 Q0.75 1.55 -0.1 1.55 -0.8 1.55 -0.95 1.1 L-1.0 0.75 -0.9 0.5 -0.65 0.25 Q-0.25 -0.05 0.3 -0.05 0.8 -0.05 0.95 0.35 L1.0 0.8 0.95 1.1" fill="#ffed49" fill-rule="evenodd" stroke="none"/>
      <path d="M2.05 -2.65 Q2.25 -2.05 -2.3 -2.2 L-2.35 -2.35 Q-2.35 -2.55 -1.6 -2.75 L0.55 -3.15 Q1.8 -3.3 2.05 -2.65 M2.2 -1.15 Q2.4 -0.55 -2.15 -0.7 L-2.2 -0.85 Q-2.2 -1.05 -1.45 -1.25 L0.7 -1.65 Q1.95 -1.8 2.2 -1.15" fill="#ffd636" fill-rule="evenodd" stroke="none"/>
    </g>
    <g id="sprite3">
      <use ffdec:characterId="5" height="10.45" transform="matrix(1.0, 0.0, 0.0, 1.0, 0.0, 0.0)" width="9.35" xlink:href="#shape3"/>
    </g>
    <g id="shape3">
      <path d="M1.7 -3.4 L3.75 -4.45 4.45 -2.6 Q3.6 -1.0 2.25 0.2 L1.65 0.95 Q0.85 -0.4 -0.35 -1.55 L-1.0 -2.1 -0.4 -2.4 0.5 -1.65 Q2.1 -0.2 3.35 -2.2 L3.35 -2.25 3.2 -3.05 3.0 -3.0 2.15 -2.7 1.7 -3.4" fill="#002f6c" fill-rule="evenodd" stroke="none"/>
      <path d="M1.7 -3.4 L2.15 -2.7 3.0 -3.0 3.2 -3.05 3.35 -2.25 3.35 -2.2 Q2.1 -0.2 0.5 -1.65 L-0.4 -2.4 1.7 -3.4" fill="#009be7" fill-rule="evenodd" stroke="none"/>
      <path d="M2.1 -3.45 L1.5 -3.95 2.45 -4.4 3.5 -5.0 Q3.85 -5.3 4.15 -4.75 3.3 -3.9 2.1 -3.45 M-0.65 -0.65 Q-0.75 0.0 -1.15 0.7 -1.45 1.3 -2.15 1.55 L-3.2 2.2 -4.7 0.65 -4.0 -0.45 -1.5 -1.6 -0.65 -0.65" fill="#2d2d2d" fill-rule="evenodd" stroke="none"/>
      <path d="M4.15 -4.75 L4.25 -4.4 2.6 -3.05 2.3 -3.25 2.1 -3.45 Q3.3 -3.9 4.15 -4.75 M1.8 2.25 L1.6 3.05 Q0.7 4.6 -0.55 4.85 L-3.2 2.2 -2.15 1.55 Q-1.45 1.3 -1.15 0.7 -0.75 0.0 -0.65 -0.65 L-0.15 -0.1 1.8 2.25" fill="#151212" fill-rule="evenodd" stroke="none"/>
      <path d="M-1.5 -1.6 L-0.85 -1.95 -0.45 -1.65 -0.65 -0.65 -1.5 -1.6" fill="#ffffff" fill-rule="evenodd" stroke="none"/>
      <path d="M1.8 2.25 L-0.15 -0.1 -0.65 -0.65 -0.45 -1.65 -0.2 -1.45 Q1.85 0.8 1.8 2.25" fill="#c7c7c7" fill-rule="evenodd" stroke="none"/>
      <path d="M4.1 -4.05 L3.5 -3.5 2.6 -2.8 1.8 -3.35 -0.6 -2.1 -0.4 -2.0 1.75 0.7 1.8 0.65 4.35 -2.25 1.95 1.0 1.95 1.05 Q2.3 3.55 0.0 4.95 L-0.2 5.05 -0.6 5.3 Q-3.1 3.15 -4.9 0.7 L-4.3 -0.45 Q-2.7 -1.2 -1.2 -2.1 L-0.9 -2.25 1.7 -3.5 1.3 -3.95 3.55 -5.15 4.35 -4.85 4.1 -4.05 M4.1 -4.75 L3.6 -4.9 1.6 -4.0 2.55 -3.15 3.5 -3.7 Q4.3 -4.2 4.1 -4.75 M1.75 2.15 Q1.6 0.65 0.05 -1.15 L-0.55 -1.6 Q-2.9 -1.5 -4.45 0.55 L-1.25 4.1 Q-0.3 5.2 0.3 4.3 L1.75 2.15" fill="#000000" fill-rule="evenodd" stroke="none"/>
    </g>
  </defs>
</svg>
