<?xml version="1.0" encoding="UTF-8" standalone="no"?>
<svg xmlns:ffdec="https://www.free-decompiler.com/flash" xmlns:xlink="http://www.w3.org/1999/xlink" ffdec:objectType="frame" height="18.25px" width="23.8px" xmlns="http://www.w3.org/2000/svg">
  <g transform="matrix(1.0, 0.0, 0.0, 1.0, 11.85, -13.5)">
    <use ffdec:characterId="21" height="6.1" transform="matrix(1.0, 0.0, 0.0, 1.0, -7.0, 28.5)" width="9.15" xlink:href="#sprite0"/>
    <use ffdec:characterId="21" height="6.1" transform="matrix(-1.0, 0.0, 0.0, 1.0, 6.4, 28.7)" width="9.15" xlink:href="#sprite0"/>
    <use ffdec:characterId="23" height="6.15" transform="matrix(1.0, 0.0, 0.0, 1.0, -3.25, 25.15)" width="7.75" xlink:href="#sprite1"/>
    <use ffdec:characterId="23" height="6.15" transform="matrix(-1.0, 0.0, 0.0, 1.0, 2.5, 25.05)" width="7.75" xlink:href="#sprite1"/>
    <use ffdec:characterId="4" height="9.4" transform="matrix(1.0, 0.0, 0.0, 1.0, -7.6, 18.6)" width="8.5" xlink:href="#sprite2"/>
    <use ffdec:characterId="4" height="9.4" transform="matrix(-1.0, 0.0, 0.0, 1.0, 7.7, 18.65)" width="8.5" xlink:href="#sprite2"/>
    <use ffdec:characterId="11" height="11.3" transform="matrix(1.0, 0.0, 0.0, 1.0, -0.1, 19.15)" width="10.95" xlink:href="#sprite3"/>
  </g>
  <defs>
    <g id="sprite0">
      <use ffdec:characterId="20" height="6.1" transform="matrix(1.0, 0.0, 0.0, 1.0, 0.0, 0.0)" width="9.15" xlink:href="#shape0"/>
    </g>
    <g id="shape0">
      <path d="M-1.2 -2.1 L0.3 -2.0 0.65 -2.2 0.8 -2.25 1.25 -2.25 2.9 -1.7 3.65 -1.4 3.95 -0.95 4.15 1.05 Q4.15 2.15 3.7 2.15 L0.7 2.3 -1.2 2.45 Q-2.75 2.45 -3.4 1.7 -3.95 1.05 -3.95 -0.4 -3.95 -1.0 -3.6 -1.5 L-3.5 -1.6 -3.7 -0.7 Q-3.7 -0.05 -3.2 -0.05 -2.8 -0.05 -2.4 -0.9 L-1.6 -1.5 -1.1 -1.85 -1.2 -2.1 M4.0 0.95 L3.85 0.6 3.7 0.65 Q3.9 0.85 3.55 0.95 3.1 1.1 3.1 1.3 L3.25 1.4 3.65 1.3 4.0 0.95 M-3.45 0.55 Q-3.45 0.9 -3.05 0.9 L-2.8 0.6 Q-2.8 0.25 -3.1 0.25 -3.45 0.25 -3.45 0.55" fill="#000000" fill-rule="evenodd" stroke="none"/>
      <path d="M-3.5 -1.6 Q-3.25 -2.25 -2.4 -2.3 L-1.2 -2.1 -1.1 -1.85 -1.6 -1.5 -2.4 -0.9 Q-2.8 -0.05 -3.2 -0.05 -3.7 -0.05 -3.7 -0.7 L-3.5 -1.6 M-3.45 0.55 Q-3.45 0.25 -3.1 0.25 -2.8 0.25 -2.8 0.6 L-3.05 0.9 Q-3.45 0.9 -3.45 0.55 M4.0 0.95 L3.65 1.3 3.25 1.4 3.1 1.3 Q3.1 1.1 3.55 0.95 3.9 0.85 3.7 0.65 L3.85 0.6 4.0 0.95" fill="#ffffff" fill-rule="evenodd" stroke="none"/>
      <path d="M0.8 -3.05 L1.9 -2.7 3.1 -2.2 4.1 -1.5 4.55 -0.65 4.5 0.1 Q4.3 0.7 4.45 1.0 L4.5 1.75 4.1 2.15 Q3.85 2.55 2.4 2.8 L1.65 2.65 0.65 2.8 -2.1 3.05 Q-2.8 3.05 -3.45 2.3 L-3.7 1.9 -4.05 1.55 Q-4.4 1.15 -4.55 0.2 -4.7 -0.65 -4.45 -1.15 L-4.35 -1.45 -3.9 -2.1 -3.5 -2.45 -3.15 -2.55 -2.65 -2.6 -1.15 -2.55 -0.15 -2.4 0.4 -2.7 0.8 -3.05 M0.45 -2.0 L-0.1 -1.8 -1.4 -1.9 -2.9 -1.95 Q-4.1 -1.6 -3.8 0.05 L-3.35 1.1 -3.1 1.65 -2.35 1.8 1.4 1.75 1.6 1.7 3.2 1.65 3.8 1.55 3.8 1.0 3.75 0.4 3.9 -0.6 3.3 -1.2 2.6 -1.7 Q1.55 -2.35 0.65 -2.2 L0.45 -2.0" fill="#000000" fill-rule="evenodd" stroke="none"/>
    </g>
    <g id="sprite1">
      <use ffdec:characterId="22" height="6.15" transform="matrix(1.0, 0.0, 0.0, 1.0, 0.0, 0.0)" width="7.75" xlink:href="#shape1"/>
    </g>
    <g id="shape1">
      <path d="M-1.0 -2.3 L-0.15 -2.15 3.0 -2.15 3.25 -2.2 3.35 -2.15 3.65 -2.15 3.85 -1.9 3.6 -1.7 3.7 -1.4 3.9 -0.4 Q3.9 -0.05 3.6 0.0 L3.5 0.0 3.25 -0.1 2.6 -0.1 Q1.9 -0.15 1.75 0.35 L1.5 1.25 1.2 1.55 0.95 1.85 0.55 2.4 0.05 2.75 Q-0.35 2.75 -0.35 2.4 L-0.2 1.45 Q-0.05 1.0 -0.05 0.3 L-0.05 -0.05 -0.6 -0.6 -1.05 -1.0 -1.4 -1.4 -1.6 -1.85 Q-1.6 -2.5 -1.0 -2.3" fill="#cc0000" fill-rule="evenodd" stroke="none"/>
      <path d="M-1.4 -1.4 L-1.05 -1.0 Q-1.1 -0.65 -1.6 0.35 L-2.2 1.35 Q-2.5 1.95 -2.75 1.95 L-2.95 1.75 -2.85 1.5 -2.95 1.3 -2.35 -0.2 -1.4 -1.4" fill="#ffcc33" fill-rule="evenodd" stroke="none"/>
      <path d="M-1.0 -2.3 Q-1.6 -2.5 -1.6 -1.85 L-1.4 -1.4 -2.35 -0.2 -2.95 1.3 -2.85 1.5 -2.95 1.75 -2.75 1.95 Q-2.5 1.95 -2.2 1.35 L-1.6 0.35 Q-1.1 -0.65 -1.05 -1.0 L-0.6 -0.6 -0.05 -0.05 -0.05 0.3 Q-0.05 1.0 -0.2 1.45 L-0.35 2.4 Q-0.35 2.75 0.05 2.75 L0.55 2.4 0.95 1.85 1.2 1.55 1.5 1.25 1.75 0.35 Q1.9 -0.15 2.6 -0.1 L3.25 -0.1 3.5 0.0 3.6 0.0 3.3 0.2 3.05 0.1 2.95 0.1 2.5 0.0 1.65 1.2 1.15 2.15 Q0.6 2.9 -0.35 2.9 -1.75 2.9 -2.65 2.3 -3.35 1.75 -3.35 1.25 L-2.9 0.1 -1.85 -1.85 -1.95 -2.05 Q-1.95 -2.25 -1.6 -2.3 L-1.3 -2.55 Q-1.0 -2.8 -1.0 -2.3" fill="#ff0000" fill-rule="evenodd" stroke="none"/>
      <path d="M3.35 -0.1 Q3.75 -0.1 3.75 0.1 L3.75 0.2 3.8 0.35 3.55 0.6 2.75 0.65 2.5 1.15 1.9 2.05 1.4 2.85 Q0.9 3.5 0.4 3.5 -1.5 3.5 -2.8 2.6 -3.85 1.85 -3.85 1.2 L-3.5 0.3 -3.05 -0.55 -2.6 -1.55 Q-2.35 -2.1 -1.75 -2.25 -1.4 -2.65 -1.4 -1.95 L-2.9 1.35 -1.8 2.2 0.0 2.75 0.5 2.15 1.0 1.25 1.55 0.15 Q1.75 -0.2 2.45 -0.2 L3.1 -0.05 3.35 -0.1" fill="#000000" fill-rule="evenodd" stroke="none"/>
    </g>
    <g id="sprite2">
      <use ffdec:characterId="3" height="9.4" transform="matrix(1.0, 0.0, 0.0, 1.0, 0.0, 0.0)" width="8.5" xlink:href="#shape2"/>
    </g>
    <g id="shape2">
      <path d="M0.15 4.0 L0.0 4.0 -0.1 4.0 -0.15 4.0 -0.5 3.95 -0.95 3.75 -1.35 3.3 Q-1.35 2.85 0.15 1.35 L0.4 1.0 1.1 1.45 2.0 1.7 Q2.2 1.75 2.25 1.9 L2.3 2.05 1.3 3.2 1.2 3.3 1.15 3.35 0.3 3.95 0.15 4.0" fill="#cc0000" fill-rule="evenodd" stroke="none"/>
      <path d="M-0.15 4.0 L-0.25 4.0 Q-1.25 4.0 -2.55 3.1 -3.75 2.25 -3.75 1.8 L-3.6 1.2 Q-3.6 1.75 -2.3 2.85 L-0.5 3.95 -0.15 4.0" fill="#3399cc" fill-rule="evenodd" stroke="none"/>
      <path d="M-1.2 -0.6 L-0.85 -0.45 -0.6 0.1 -0.6 0.15 -0.85 0.7 -1.4 0.95 -2.0 0.7 -2.2 0.15 -2.0 -0.45 -1.4 -0.65 -1.2 -0.6 M-1.3 -0.45 L-1.65 -0.15 -1.3 0.25 Q-0.95 0.25 -0.95 -0.15 -0.95 -0.45 -1.3 -0.45" fill="#ffcc33" fill-rule="evenodd" stroke="none"/>
      <path d="M-1.3 -0.45 Q-0.95 -0.45 -0.95 -0.15 -0.95 0.25 -1.3 0.25 L-1.65 -0.15 -1.3 -0.45" fill="#ffffff" fill-rule="evenodd" stroke="none"/>
      <path d="M-3.6 1.2 L-3.05 0.2 -2.15 -1.0 -1.65 -1.65 -1.05 -2.2 Q-0.75 -2.4 -0.05 -2.2 L3.0 -1.95 3.6 -2.05 4.05 -1.7 3.7 0.0 Q3.7 1.7 3.2 1.7 L2.95 1.55 Q1.75 3.75 0.15 4.0 L0.3 3.95 1.15 3.35 1.2 3.3 1.3 3.2 2.3 2.05 2.25 1.9 Q2.2 1.75 2.0 1.7 L1.1 1.45 0.4 1.0 -0.15 0.6 -0.6 0.1 -0.85 -0.45 -1.2 -0.6 -1.75 -1.2 Q-2.05 -1.2 -2.85 0.0 L-3.6 1.2" fill="#000000" fill-rule="evenodd" stroke="none"/>
      <path d="M-0.65 -4.25 L2.0 -4.1 3.15 -3.7 3.5 -3.35 3.7 -2.85 Q3.7 -2.3 3.1 -2.3 L1.7 -2.3 0.05 -2.45 Q-0.95 -2.55 -0.95 -3.4 -0.95 -4.1 -0.65 -4.25 M-3.6 1.2 L-2.85 0.0 Q-2.05 -1.2 -1.75 -1.2 L-1.2 -0.6 -1.4 -0.65 -2.0 -0.45 -2.2 0.15 -2.0 0.7 -1.4 0.95 -0.85 0.7 -0.6 0.15 -0.6 0.1 -0.15 0.6 0.4 1.0 0.15 1.35 Q-1.35 2.85 -1.35 3.3 L-0.95 3.75 -0.5 3.95 -2.3 2.85 Q-3.6 1.75 -3.6 1.2" fill="#ff0000" fill-rule="evenodd" stroke="none"/>
      <path d="M-0.3 -2.05 L-0.8 -2.25 -2.05 -0.6 -3.4 1.45 Q-2.9 1.75 -2.5 2.45 L-1.85 3.05 -1.65 3.15 -1.2 3.35 0.05 3.65 0.4 3.75 1.7 2.55 3.05 1.3 Q3.4 1.3 3.4 1.6 L2.05 3.2 Q0.95 4.3 0.4 4.5 L0.05 4.7 Q-1.65 4.7 -3.05 3.6 -4.25 2.65 -4.25 1.9 L-4.2 1.75 Q-4.15 0.95 -2.4 -1.25 L-1.25 -2.5 -1.4 -2.8 -1.45 -3.55 Q-1.45 -4.3 -1.25 -4.45 -0.7 -4.95 1.5 -4.45 L3.0 -4.05 3.4 -3.9 3.65 -3.95 4.05 -3.5 4.15 -3.35 3.85 -3.25 3.4 -2.8 3.4 -2.9 3.4 -3.05 3.45 -3.2 3.4 -3.3 Q2.95 -3.4 2.4 -3.65 L-0.65 -4.05 -0.85 -3.95 -0.8 -3.4 -0.6 -2.95 -0.55 -2.95 -0.75 -2.55 -0.3 -2.05" fill="#000000" fill-rule="evenodd" stroke="none"/>
      <path d="M4.15 -3.35 L4.25 -2.9 Q4.25 -1.85 3.0 -1.75 L2.8 -1.75 2.55 -1.75 -0.3 -2.05 -0.75 -2.55 -0.55 -2.95 -0.2 -3.05 0.35 -2.85 2.85 -2.45 Q3.35 -2.45 3.4 -2.8 L3.85 -3.25 4.15 -3.35" fill="#cc0000" fill-rule="evenodd" stroke="none"/>
    </g>
    <g id="sprite3">
      <use ffdec:characterId="10" height="11.3" transform="matrix(1.0, 0.0, 0.0, 1.0, 0.0, 0.0)" width="10.95" xlink:href="#shape3"/>
    </g>
    <g id="shape3">
      <path d="M4.5 4.15 L4.1 4.4 2.55 4.9 Q3.15 4.5 3.7 4.35 L4.1 4.25 4.25 4.25 4.5 4.15 M1.55 3.9 L1.45 3.7 1.65 3.7 1.55 3.9 M0.2 3.65 L-0.15 4.15 -0.4 3.9 Q0.05 3.9 0.1 3.65 L0.2 3.65 M-1.35 3.8 L-1.4 3.85 -1.45 4.45 -1.6 3.8 -1.6 3.65 -1.35 3.8 M-2.75 4.7 L-4.25 4.1 -4.5 3.95 -2.75 4.7 M-4.85 3.5 L-4.9 3.3 -4.75 3.45 -4.85 3.5" fill="#3399cc" fill-rule="evenodd" stroke="none"/>
      <path d="M0.35 -1.4 Q0.35 -0.95 0.75 -0.95 1.2 -0.95 1.2 -1.3 1.2 -1.75 0.8 -1.8 0.35 -1.85 0.35 -1.4 M1.2 -1.7 L1.5 -1.0 1.2 -0.3 Q0.9 0.0 0.5 0.0 0.1 0.0 -0.2 -0.3 L-0.5 -1.0 -0.2 -1.7 Q0.1 -2.0 0.5 -2.0 L1.2 -1.7 M1.2 0.65 L1.5 1.35 1.2 2.05 0.5 2.35 Q0.1 2.35 -0.2 2.05 L-0.5 1.35 -0.2 0.65 Q0.1 0.35 0.5 0.35 0.9 0.35 1.2 0.65 M1.1 1.2 Q1.1 0.75 0.7 0.8 0.25 0.85 0.25 1.2 0.25 1.6 0.7 1.6 1.1 1.6 1.1 1.2" fill="#ffcc33" fill-rule="evenodd" stroke="none"/>
      <path d="M0.35 -1.4 Q0.35 -1.85 0.8 -1.8 1.2 -1.75 1.2 -1.3 1.2 -0.95 0.75 -0.95 0.35 -0.95 0.35 -1.4 M1.1 1.2 Q1.1 1.6 0.7 1.6 0.25 1.6 0.25 1.2 0.25 0.85 0.7 0.8 1.1 0.75 1.1 1.2" fill="#ffffff" fill-rule="evenodd" stroke="none"/>
      <path d="M4.3 -3.55 L4.2 -3.4 Q4.05 -3.25 3.9 -3.25 L3.75 -3.3 3.7 -3.3 2.0 -3.8 2.0 -4.05 2.15 -4.5 2.45 -4.55 2.7 -4.45 Q4.15 -3.75 4.3 -3.75 L4.3 -3.6 4.3 -3.55 M3.5 3.3 L4.55 3.05 4.8 3.1 4.95 3.25 5.1 3.55 5.1 3.6 4.65 3.95 3.95 4.2 Q3.3 4.2 3.5 3.4 L3.5 3.3 M-4.9 3.6 L-4.85 3.5 -4.75 3.45 -4.9 3.3 -4.9 3.25 -4.75 3.2 -4.8 3.1 -4.75 3.0 -4.8 2.8 -4.75 2.8 -4.25 2.9 -3.65 3.1 -3.75 3.4 -4.2 3.9 Q-4.75 3.9 -4.9 3.6 M-4.35 -3.6 L-4.35 -3.7 -4.25 -3.85 -4.15 -4.1 -2.75 -4.3 -2.65 -4.15 -2.6 -3.95 -2.7 -3.55 -3.45 -3.35 -3.6 -3.3 -3.95 -3.2 -4.0 -3.2 Q-4.25 -3.2 -4.35 -3.45 L-4.35 -3.6" fill="#cc0000" fill-rule="evenodd" stroke="none"/>
      <path d="M2.0 -3.8 L3.7 -3.3 3.75 -3.3 3.9 -3.25 Q4.05 -3.25 4.2 -3.4 L4.3 -3.55 4.45 -2.25 4.65 -0.15 4.7 1.35 4.6 1.95 4.8 3.1 4.55 3.05 3.5 3.3 2.65 3.5 2.6 3.3 2.6 3.2 2.55 2.75 Q2.45 2.25 1.75 2.25 L0.05 2.45 -1.5 2.3 -1.35 -1.75 Q-1.35 -2.2 -0.4 -2.4 0.2 -2.55 0.4 -2.75 L0.5 -2.8 Q0.9 -3.05 1.1 -3.95 L2.0 -3.8 M4.3 -3.75 Q4.15 -3.75 2.7 -4.45 L2.45 -4.55 2.1 -4.7 1.1 -4.9 0.5 -4.8 0.35 -4.45 -0.05 -3.65 -0.05 -3.55 -0.15 -3.75 -0.3 -4.1 -0.35 -4.5 -0.35 -4.65 -0.45 -4.85 -0.4 -4.9 -0.45 -5.0 -0.5 -5.1 -0.3 -5.2 -0.15 -5.4 0.05 -5.15 0.1 -5.05 0.35 -5.1 0.85 -5.1 0.3 -5.15 0.25 -5.25 Q0.25 -5.45 0.7 -5.45 L1.4 -5.4 2.1 -5.4 3.3 -5.0 4.1 -4.6 4.6 -4.05 4.3 -3.75 M1.2 -1.7 L0.5 -2.0 Q0.1 -2.0 -0.2 -1.7 L-0.5 -1.0 -0.2 -0.3 Q0.1 0.0 0.5 0.0 0.9 0.0 1.2 -0.3 L1.5 -1.0 1.2 -1.7 M-4.9 3.25 L-4.9 2.8 -4.4 -0.55 -4.4 -3.35 -4.35 -3.6 -4.35 -3.45 Q-4.25 -3.2 -4.0 -3.2 L-3.95 -3.2 -3.6 -3.3 -3.45 -3.35 -2.7 -3.55 -2.45 -3.65 -1.25 -3.75 -1.1 -3.75 -0.9 -3.3 -0.8 -3.05 -0.8 -3.0 -1.0 -2.95 Q-2.55 -2.45 -2.55 -2.2 L-2.4 -1.8 -2.6 -0.05 -2.6 1.9 -2.65 1.95 -2.65 3.5 -3.2 3.25 -4.25 2.9 -4.75 2.8 -4.8 2.8 -4.75 3.0 -4.8 3.1 -4.75 3.2 -4.9 3.25 M-4.15 -4.1 L-4.3 -4.1 Q-4.7 -4.1 -4.6 -4.4 L-4.0 -4.9 -2.05 -5.3 -1.75 -5.3 -0.6 -5.15 -0.55 -5.15 -0.55 -4.9 -1.45 -4.7 -1.55 -4.75 -1.9 -4.75 Q-2.15 -4.45 -2.75 -4.3 L-4.15 -4.1 M1.2 0.65 Q0.9 0.35 0.5 0.35 0.1 0.35 -0.2 0.65 L-0.5 1.35 -0.2 2.05 Q0.1 2.35 0.5 2.35 L1.2 2.05 1.5 1.35 1.2 0.65" fill="#000000" fill-rule="evenodd" stroke="none"/>
      <path d="M2.0 -3.8 L1.1 -3.95 Q0.9 -3.05 0.5 -2.8 L0.4 -2.75 Q0.2 -2.55 -0.4 -2.4 -1.35 -2.2 -1.35 -1.75 L-1.5 2.3 0.05 2.45 1.75 2.25 Q2.45 2.25 2.55 2.75 L2.6 3.2 2.6 3.3 2.65 3.5 3.5 3.3 3.5 3.4 Q3.3 4.2 3.95 4.2 L4.65 3.95 5.1 3.6 4.6 4.05 4.55 4.1 4.5 4.15 4.25 4.25 4.1 4.25 3.7 4.35 Q3.15 4.5 2.55 4.9 L2.35 5.0 Q1.45 5.0 1.45 4.3 L1.55 3.9 1.65 3.7 1.45 3.7 0.2 3.65 0.1 3.65 Q0.05 3.9 -0.4 3.9 L-1.35 3.8 -1.6 3.65 -1.6 3.8 -1.45 4.45 -1.45 4.5 Q-1.45 5.0 -1.85 5.0 L-2.75 4.7 -4.5 3.95 -4.9 3.65 -4.9 3.6 Q-4.75 3.9 -4.2 3.9 L-3.75 3.4 -3.65 3.1 -4.25 2.9 -3.2 3.25 -2.65 3.5 -2.65 1.95 -2.6 1.9 -2.6 -0.05 -2.4 -1.8 -2.55 -2.2 Q-2.55 -2.45 -1.0 -2.95 L-0.8 -3.0 -0.8 -3.05 -0.9 -3.3 -1.1 -3.75 -1.25 -3.75 -2.45 -3.65 -2.7 -3.55 -2.6 -3.95 -2.65 -4.15 -2.75 -4.3 Q-2.15 -4.45 -1.9 -4.75 L-1.55 -4.75 -1.45 -4.7 -0.55 -4.9 -0.55 -5.15 -0.5 -5.1 -0.45 -5.0 -0.4 -4.9 -0.45 -4.85 -0.35 -4.65 -0.35 -4.5 -0.3 -4.1 -0.15 -3.75 -0.05 -3.55 -0.05 -3.65 0.35 -4.45 0.5 -4.8 1.1 -4.9 2.1 -4.7 2.45 -4.55 2.15 -4.5 2.0 -4.05 2.0 -3.8" fill="#ff0000" fill-rule="evenodd" stroke="none"/>
      <path d="M4.3 -3.8 L2.9 -4.35 1.05 -4.8 -0.1 -4.8 -0.1 -4.85 -1.0 -4.85 -2.85 -4.4 -4.25 -3.85 -4.55 -4.15 -3.65 -4.9 -3.25 -5.1 -1.15 -5.55 -0.95 -5.55 -0.55 -5.6 0.15 -5.65 0.15 -5.6 0.6 -5.55 1.0 -5.5 1.2 -5.5 3.3 -5.05 3.7 -4.85 4.6 -4.1 4.3 -3.8 M4.55 -0.35 L5.1 1.6 5.5 3.9 5.25 4.4 Q4.9 4.75 3.35 5.2 L2.55 5.45 2.35 5.45 1.15 5.65 1.2 5.5 1.15 5.5 1.05 5.55 Q0.7 5.55 0.7 5.05 L0.75 4.35 0.7 4.25 0.6 4.3 -0.1 4.3 -0.1 4.25 -0.55 4.25 -0.65 4.2 -0.7 4.3 -0.65 5.0 Q-0.65 5.5 -1.0 5.5 L-1.1 5.45 -1.15 5.45 -1.1 5.6 -2.3 5.4 -2.5 5.4 -3.3 5.15 Q-4.85 4.7 -5.2 4.35 L-5.45 3.85 -5.05 1.55 -4.5 -0.4 -4.35 -0.85 Q-4.15 -0.75 -4.15 -0.05 L-4.6 3.7 -4.35 3.75 -3.25 4.25 -1.95 4.5 -1.6 4.6 -1.65 4.3 -1.5 3.55 -1.45 3.6 -1.1 3.5 -0.55 3.55 0.15 3.6 0.15 3.65 0.6 3.6 1.15 3.55 1.5 3.65 1.55 3.6 1.7 4.35 1.65 4.65 2.0 4.55 3.3 4.3 4.4 3.8 4.65 3.75 4.2 0.0 Q4.2 -0.7 4.4 -0.8 L4.55 -0.35" fill="#000000" fill-rule="evenodd" stroke="none"/>
    </g>
  </defs>
</svg>
