<?xml version="1.0" encoding="UTF-8" standalone="no"?>
<svg xmlns:ffdec="https://www.free-decompiler.com/flash" xmlns:xlink="http://www.w3.org/1999/xlink" ffdec:objectType="frame" height="15.45px" width="31.5px" xmlns="http://www.w3.org/2000/svg">
  <g transform="matrix(1.0, 0.0, 0.0, 1.0, 16.45, -14.4)">
    <use ffdec:characterId="24" height="15.35" transform="matrix(1.0, 0.0, 0.0, 1.0, 0.0, 0.0)" width="31.5" xlink:href="#shape0"/>
    <use ffdec:characterId="9" height="2.2" transform="matrix(1.0, 0.0, 0.0, 1.0, 0.75, 14.4)" width="5.15" xlink:href="#sprite0"/>
    <use ffdec:characterId="9" height="2.2" transform="matrix(-1.0, 0.0, 0.0, 1.0, -0.85, 14.45)" width="5.15" xlink:href="#sprite0"/>
  </g>
  <defs>
    <g id="shape0">
      <path d="M11.15 20.6 L10.95 20.65 10.9 20.65 10.9 20.7 10.85 20.95 10.85 20.8 10.75 20.55 10.85 20.3 11.15 20.6 M10.8 21.0 L10.75 21.1 10.75 21.25 10.45 21.6 10.4 21.6 9.75 22.0 9.55 22.1 9.8 21.85 10.05 21.2 9.8 20.75 9.4 20.55 8.85 20.5 Q7.5 20.5 7.5 21.6 7.5 22.4 8.2 22.4 L8.85 22.3 8.9 22.3 9.05 22.3 8.55 22.45 8.1 22.6 7.85 22.5 7.8 22.5 Q7.4 22.5 7.15 22.2 L7.05 22.2 6.75 21.9 6.55 21.6 Q6.5 21.15 6.15 21.05 L5.5 20.25 4.65 19.4 4.35 19.2 4.15 18.25 4.2 17.95 4.25 17.85 4.2 17.8 3.15 16.7 3.0 16.4 2.9 16.4 3.0 17.1 2.9 17.85 2.4 18.5 1.75 18.7 Q1.45 18.8 1.35 18.95 L1.9 19.1 1.55 19.1 0.3 19.05 0.25 18.95 Q0.0 18.85 0.05 18.6 L0.15 18.4 0.5 18.6 1.5 18.55 2.05 18.6 2.5 18.2 2.65 17.4 Q2.65 16.45 0.5 16.4 L1.2 15.75 1.2 15.8 Q1.1 16.1 1.4 16.1 L1.65 15.95 1.7 15.95 1.8 15.95 2.15 15.8 3.15 15.3 3.55 14.95 3.1 14.9 2.05 14.8 1.7 14.8 1.85 15.05 1.85 15.15 1.45 15.45 1.35 15.5 1.35 15.45 1.2 15.25 1.45 14.95 1.55 14.75 1.95 14.75 3.5 14.7 3.55 14.7 4.15 14.65 4.6 14.7 4.65 14.75 4.8 14.85 5.8 15.65 5.9 15.75 6.15 16.2 6.15 16.75 6.15 17.15 6.4 17.4 6.7 17.75 6.75 17.8 6.8 17.75 6.85 17.75 7.0 17.8 Q7.55 18.2 7.9 18.9 L8.35 19.85 8.25 19.85 8.25 19.95 8.4 20.0 Q9.1 19.75 9.9 20.25 L10.75 21.05 10.8 21.0 M4.75 24.7 Q4.5 24.7 4.35 24.85 L4.05 25.05 4.1 25.1 4.35 26.05 Q6.7 25.4 8.25 26.3 9.65 27.15 9.65 28.4 L9.5 28.95 9.3 29.2 8.8 29.5 7.75 29.8 7.65 29.85 3.2 29.85 2.55 29.65 1.8 29.0 Q1.35 28.0 1.8 27.0 L2.3 26.65 1.6 25.1 0.85 25.3 0.6 25.3 0.5 25.25 0.65 25.1 1.3 24.95 1.45 24.5 Q1.45 24.0 0.9 23.9 L1.2 23.4 1.15 23.4 1.2 23.3 1.4 23.15 2.05 22.85 2.25 22.8 2.4 22.8 2.6 22.9 2.9 22.8 2.95 22.5 2.85 22.35 2.9 22.3 2.85 22.3 2.85 22.1 2.65 21.45 2.3 21.05 Q2.1 21.1 2.0 21.25 L1.85 21.2 1.5 21.3 1.4 21.4 1.3 21.4 1.25 21.4 0.9 21.35 Q0.8 21.1 0.35 21.1 L0.1 21.15 0.15 20.95 0.1 20.5 Q1.15 20.55 1.95 19.3 L2.05 19.2 2.0 19.15 2.2 19.2 2.4 19.2 2.3 19.55 1.65 20.85 1.7 21.0 1.95 21.15 2.4 20.8 2.5 20.6 2.6 20.85 2.6 20.9 2.6 21.1 2.8 21.3 2.85 21.3 2.9 21.4 Q3.35 23.55 3.8 24.3 L3.95 24.5 4.2 24.65 4.55 24.65 4.75 24.7 M-0.7 25.25 L-0.8 25.3 -1.05 25.3 -1.8 25.1 -2.5 26.65 -2.0 27.0 Q-1.55 28.0 -2.0 29.0 L-2.75 29.65 -3.4 29.85 -7.85 29.85 -7.95 29.8 -9.0 29.5 -9.5 29.2 -9.7 28.95 -9.85 28.4 Q-9.85 27.15 -8.45 26.3 -6.9 25.4 -4.55 26.05 L-4.3 25.1 -4.25 25.05 -4.55 24.85 -4.65 24.8 -4.4 24.8 Q-3.9 24.8 -3.5 23.05 L-3.25 22.0 -2.9 21.55 -2.85 21.5 -3.2 22.5 -3.05 22.75 -3.2 22.85 -3.1 22.9 -2.75 22.8 -2.65 22.9 -2.6 22.85 -2.5 22.85 -2.2 23.0 -2.15 23.0 -1.6 23.35 -1.1 23.65 -0.9 23.85 Q-1.65 23.9 -1.65 24.5 L-1.5 24.95 -0.85 25.1 -0.7 25.25 M-4.75 24.7 L-4.9 24.7 -4.8 24.65 -4.75 24.7 M-7.05 22.6 L-7.3 22.7 -7.4 22.7 -7.55 22.7 -7.9 22.7 -8.25 22.55 -8.35 22.6 -8.65 22.7 -9.3 22.5 -9.6 22.2 -9.55 22.05 -9.7 22.0 -10.9 21.15 -10.95 21.1 -11.0 20.95 -11.0 20.85 Q-11.0 20.35 -11.15 20.4 L-10.95 20.0 -10.95 19.9 -10.55 19.95 -9.4 19.65 -8.85 19.45 -8.45 19.65 -7.65 18.6 -7.15 18.05 -6.65 17.45 -6.35 17.15 -6.25 17.4 -6.6 17.8 Q-7.8 19.3 -7.95 20.0 L-7.85 20.2 -7.75 20.25 -7.15 20.35 -6.65 20.3 -6.5 20.2 -5.75 18.85 Q-5.3 17.9 -5.55 17.6 L-5.15 17.65 -4.45 17.55 -3.95 17.25 Q-3.6 16.85 -3.6 16.45 -3.6 15.15 -4.6 15.15 L-5.0 15.2 -4.7 14.95 -3.9 14.7 -3.75 14.7 -3.7 14.7 -3.45 14.75 -3.55 14.85 -3.75 14.95 -3.75 15.05 -3.5 15.35 -3.35 15.5 -3.15 15.65 Q-2.5 16.15 -2.15 16.15 L-1.8 15.95 -1.45 15.85 Q-2.05 15.55 -2.05 15.05 L-1.9 14.8 -2.25 14.8 -2.85 14.85 -3.1 14.8 -3.15 14.8 -3.3 14.75 -2.15 14.75 -1.75 14.75 -1.65 14.95 -0.25 16.45 -0.3 16.45 -0.95 16.3 -1.8 16.4 -2.15 16.3 Q-3.55 16.3 -3.55 17.65 L-3.45 18.2 -3.7 18.1 -4.25 18.05 -4.7 17.95 -4.75 17.9 -4.85 17.9 Q-4.85 18.45 -5.5 19.55 L-6.15 20.6 -6.45 20.85 -7.05 21.5 -7.0 21.6 -6.9 21.6 -7.1 21.85 -6.9 22.2 -6.8 22.35 -7.0 22.5 -7.05 22.6 M5.7 17.6 L5.9 17.1 5.6 16.05 Q5.15 15.3 4.55 15.3 3.75 15.3 3.6 15.75 L3.55 16.3 Q3.55 16.6 4.1 17.1 4.65 17.6 4.9 17.7 5.1 17.8 4.95 18.1 4.8 18.4 5.6 19.2 L6.6 20.25 Q6.75 20.5 7.25 20.5 7.85 20.5 7.85 19.85 L7.75 19.5 Q7.7 19.2 6.9 18.45 L5.7 17.6 M3.4 18.85 L3.45 18.15 3.35 17.45 3.8 18.25 4.0 18.95 3.85 18.85 3.9 18.75 Q3.9 18.35 3.65 18.55 L3.4 18.85 M4.0 19.05 L4.0 19.1 4.0 19.05 M-0.95 18.75 L-0.9 18.7 -0.65 18.4 -0.55 18.25 -0.45 17.15 -0.35 17.15 -0.15 18.75 -0.2 19.0 Q0.05 19.0 0.1 19.7 L1.1 19.75 1.2 19.85 0.1 20.05 0.05 20.4 -0.05 19.75 -0.15 19.75 -0.25 20.65 -0.45 20.7 -0.65 21.05 -0.65 21.1 Q-1.05 21.15 -1.1 21.4 L-1.6 21.4 -1.75 21.35 -1.9 21.4 -2.0 21.35 -1.8 21.3 -1.8 21.15 -2.05 21.05 Q-2.3 21.05 -2.45 21.2 L-2.45 21.05 -2.7 21.0 -2.7 20.9 -2.7 20.65 -2.65 20.55 -2.75 20.4 -3.35 19.1 -3.7 18.65 -3.45 18.3 -3.4 18.4 -3.2 18.65 -1.85 18.9 -2.35 19.2 -2.3 19.25 -2.45 19.25 -2.9 19.3 Q-2.2 20.45 -1.4 20.45 L-0.35 20.45 -0.4 20.1 -0.85 20.1 -1.5 20.0 -1.7 19.9 -1.5 19.65 -0.55 19.65 -0.35 19.65 -0.35 19.05 -0.4 19.05 -0.4 19.0 -0.25 18.75 -0.25 18.5 -0.25 18.4 -0.35 17.7 -0.45 17.7 -0.5 18.25 -0.75 18.7 -0.8 18.7 -0.95 18.75 M1.55 23.75 L1.8 24.4 2.35 24.9 Q2.75 24.9 2.75 24.3 2.75 23.75 2.15 23.5 1.55 23.25 1.55 23.75 M8.1 29.15 L8.2 29.1 Q9.05 28.8 9.05 28.35 9.05 27.6 8.2 26.95 7.1 26.1 5.3 26.1 L4.4 26.25 4.2 27.15 3.5 24.85 2.8 24.75 Q2.6 24.75 2.35 25.1 L2.15 25.4 2.7 26.5 2.75 26.55 3.0 27.1 2.4 26.85 Q2.0 27.1 2.0 27.9 2.25 29.0 2.85 29.25 L5.1 29.55 8.1 29.15 M-4.2 18.85 L-4.2 18.75 -4.2 18.6 -3.95 18.65 -3.95 18.7 -4.2 18.85 M-8.25 20.1 L-8.3 20.1 -8.25 20.1 M-7.85 20.85 L-7.85 20.8 -8.35 20.1 -8.35 20.15 -9.1 20.0 Q-10.4 20.05 -10.4 20.95 -10.4 21.85 -8.75 21.85 L-7.95 21.65 -7.85 21.2 -7.85 20.85 M-0.4 21.1 L-0.3 21.05 -0.3 21.15 -0.4 21.1 M-2.55 20.8 L-2.55 20.75 -2.6 20.8 -2.55 20.8 M-3.45 24.3 L-3.0 24.65 Q-2.7 24.65 -2.5 24.35 L-2.3 23.75 Q-2.3 23.3 -2.65 23.3 -3.0 23.3 -3.25 23.65 L-3.45 24.3 M-8.9 27.45 Q-9.25 27.85 -9.25 28.35 -9.25 28.8 -8.4 29.1 L-8.3 29.15 Q-7.4 29.65 -5.3 29.55 L-3.05 29.25 Q-2.45 29.0 -2.2 27.9 -2.2 27.1 -2.6 26.85 L-3.2 27.1 -2.95 26.55 -2.9 26.5 -2.35 25.4 -2.55 25.1 Q-2.8 24.75 -3.0 24.75 L-3.7 24.85 -3.9 25.4 -4.15 26.25 -4.4 27.15 -4.6 26.25 -5.5 26.1 Q-6.65 26.1 -7.55 26.5 -8.05 26.55 -8.4 26.75 -8.85 27.0 -8.9 27.45" fill="#106081" fill-rule="evenodd" stroke="none"/>
      <path d="M9.55 22.1 L9.05 22.3 8.9 22.3 8.85 22.3 8.2 22.4 Q7.5 22.4 7.5 21.6 7.5 20.5 8.85 20.5 L9.4 20.55 9.8 20.75 10.05 21.2 9.8 21.85 9.55 22.1 M-6.15 16.05 L-5.35 15.45 -5.0 15.2 -4.6 15.15 Q-3.6 15.15 -3.6 16.45 -3.6 16.85 -3.95 17.25 L-4.45 17.55 -5.15 17.65 -5.55 17.6 Q-5.3 17.9 -5.75 18.85 L-6.5 20.2 -6.65 20.3 -7.15 20.35 -7.75 20.25 -7.85 20.2 -7.95 20.0 Q-7.8 19.3 -6.6 17.8 L-6.25 17.4 -6.35 17.15 -6.45 16.65 -6.35 16.3 -6.15 16.05 M-0.25 16.45 L0.0 16.4 0.6 15.7 Q1.0 15.25 1.2 15.25 L1.35 15.45 1.35 15.5 1.2 15.75 0.5 16.4 Q2.65 16.45 2.65 17.4 L2.5 18.2 2.05 18.6 1.5 18.55 0.5 18.6 0.15 18.4 0.05 18.6 Q0.0 18.85 0.25 18.95 L0.3 19.05 1.55 19.1 1.9 19.1 2.0 19.15 2.05 19.2 1.95 19.3 Q1.15 20.55 0.1 20.5 L0.05 20.4 0.1 20.05 1.2 19.85 1.1 19.75 0.1 19.7 Q0.05 19.0 -0.2 19.0 L-0.15 18.75 -0.35 17.15 -0.45 17.15 -0.55 18.25 -0.65 18.4 -0.9 18.7 -0.95 18.75 -1.85 18.9 -3.2 18.65 -3.4 18.4 -3.45 18.3 -3.45 18.2 -3.55 17.65 Q-3.55 16.3 -2.15 16.3 L-1.8 16.4 -0.95 16.3 -0.3 16.45 -0.25 16.45 M5.7 17.6 L6.9 18.45 Q7.7 19.2 7.75 19.5 L7.85 19.85 Q7.85 20.5 7.25 20.5 6.75 20.5 6.6 20.25 L5.6 19.2 Q4.8 18.4 4.95 18.1 5.1 17.8 4.9 17.7 4.65 17.6 4.1 17.1 3.55 16.6 3.55 16.3 L3.6 15.75 Q3.75 15.3 4.55 15.3 5.15 15.3 5.6 16.05 L5.9 17.1 5.7 17.6 M0.55 18.35 Q0.85 18.35 0.85 17.65 0.85 16.75 0.5 16.95 0.1 17.2 0.1 17.7 0.05 18.35 0.55 18.35 M1.55 23.75 Q1.55 23.25 2.15 23.5 2.75 23.75 2.75 24.3 2.75 24.9 2.35 24.9 L1.8 24.4 1.55 23.75 M-3.1 17.7 L-2.95 18.15 -2.4 18.45 Q-1.6 18.45 -1.6 17.65 L-1.65 17.3 Q-1.75 16.95 -1.95 16.95 -3.1 16.95 -3.1 17.7 M-0.4 19.05 L-0.35 19.05 -0.35 19.65 -0.55 19.65 -1.5 19.65 -1.7 19.9 -1.5 20.0 -0.85 20.1 -0.4 20.1 -0.35 20.45 -1.4 20.45 Q-2.2 20.45 -2.9 19.3 L-2.45 19.25 -2.65 19.45 Q-2.7 19.75 -2.1 19.75 L-1.6 19.65 -1.4 19.45 -1.55 19.3 -1.65 19.25 -1.5 19.3 -0.4 19.05 M-5.9 16.35 L-6.05 16.75 Q-6.05 17.25 -5.6 17.25 -4.9 17.25 -4.9 16.55 -4.9 16.05 -5.35 16.05 -5.65 16.05 -5.9 16.35 M-6.05 18.4 Q-6.05 17.65 -6.6 18.25 -7.2 18.8 -7.2 19.35 L-6.95 19.75 -6.4 19.1 -6.05 18.4 M-8.25 20.1 L-8.3 20.1 -8.25 20.1 M-8.9 20.75 Q-8.9 20.35 -9.25 20.35 -9.9 20.35 -9.9 20.75 -9.9 21.15 -9.3 21.15 -8.9 21.15 -8.9 20.75 M-7.85 20.85 L-7.85 21.2 -7.95 21.65 -8.75 21.85 Q-10.4 21.85 -10.4 20.95 -10.4 20.05 -9.1 20.0 L-8.35 20.15 -8.35 20.1 -7.85 20.8 -7.85 20.85" fill="#42b7e8" fill-rule="evenodd" stroke="none"/>
      <path d="M11.75 19.3 L12.25 19.4 12.7 19.65 12.55 19.6 11.75 19.3 M7.4 17.85 L7.3 17.65 8.25 18.65 8.65 19.25 7.4 17.85 M1.85 15.15 L1.85 15.05 1.7 14.8 2.05 14.8 3.1 14.9 3.55 14.95 3.15 15.3 2.15 15.8 2.15 15.75 2.35 15.4 2.05 15.1 1.85 15.15 M3.65 19.15 L3.6 19.15 3.65 19.1 3.65 19.15 M2.7 20.45 L2.6 20.85 2.5 20.6 2.7 20.45 M2.85 21.3 L2.85 21.25 2.9 21.4 2.85 21.3 M0.9 21.35 L1.25 21.4 1.3 21.4 1.4 21.4 1.5 21.3 1.85 21.2 2.0 21.25 Q2.1 21.1 2.3 21.05 L2.65 21.45 2.85 22.1 2.85 22.3 2.9 22.3 2.85 22.35 2.95 22.5 2.9 22.8 2.6 22.9 2.4 22.8 2.25 22.8 2.15 22.75 2.1 22.8 2.05 22.8 2.05 22.85 1.4 23.15 1.35 23.15 1.1 23.3 1.05 23.45 1.15 23.4 1.2 23.4 0.9 23.9 0.3 23.9 -0.05 23.9 -0.45 23.85 -0.9 23.85 -1.1 23.65 -1.6 23.35 -2.15 23.0 -2.2 23.0 -2.5 22.85 -2.6 22.85 -2.65 22.9 -2.75 22.8 -3.1 22.9 -3.2 22.85 -3.05 22.75 -3.2 22.5 -2.85 21.5 -2.7 21.0 -2.45 21.05 -2.45 21.2 Q-2.3 21.05 -2.05 21.05 L-1.8 21.15 -1.8 21.3 -2.0 21.35 -2.4 21.85 -2.4 22.05 Q-2.4 22.4 -1.85 22.55 L-1.25 22.4 Q-1.2 22.2 -1.1 22.65 -1.05 23.1 -0.3 23.2 L0.05 23.2 Q0.5 22.8 1.3 22.35 L1.3 21.9 Q1.15 21.65 0.2 21.45 L0.0 21.4 0.6 21.3 0.9 21.35 M-2.85 14.85 L-2.25 14.8 -1.9 14.8 -2.05 15.05 Q-2.05 15.55 -1.45 15.85 L-1.8 15.95 -1.8 15.9 -2.2 15.3 Q-2.55 14.9 -2.85 14.85 M-6.65 17.45 L-7.15 18.05 -7.35 18.05 -7.45 18.05 Q-6.85 17.85 -6.55 16.95 L-6.6 17.25 -6.65 17.45 M-2.75 20.4 L-2.65 20.55 -2.7 20.65 -2.75 20.4 M-6.45 21.35 L-5.9 20.65 -5.45 20.3 -6.1 21.25 -6.2 21.25 -6.45 21.35" fill="#b10101" fill-rule="evenodd" stroke="none"/>
      <path d="M10.85 20.95 L10.8 21.0 10.75 21.05 9.9 20.25 Q9.1 19.75 8.4 20.0 L8.25 19.95 8.25 19.85 8.35 19.85 7.9 18.9 Q7.55 18.2 7.0 17.8 L7.1 17.7 7.4 17.85 8.65 19.25 Q9.1 19.65 9.7 19.9 L10.5 19.9 10.85 20.3 10.75 20.55 10.85 20.8 10.85 20.95 M1.9 19.1 L1.35 18.95 Q1.45 18.8 1.75 18.7 L2.4 18.5 2.9 17.85 3.0 17.1 2.9 16.4 3.0 16.4 3.15 16.7 4.2 17.8 4.25 17.85 4.2 17.95 4.15 18.25 4.35 19.2 4.0 19.1 4.0 19.05 4.0 18.95 3.8 18.25 3.35 17.45 3.45 18.15 3.4 18.85 3.0 19.3 3.0 19.55 Q2.75 19.85 2.7 20.45 L2.5 20.6 2.4 20.8 1.95 21.15 1.7 21.0 1.65 20.85 2.3 19.55 2.4 19.2 2.2 19.2 2.0 19.15 1.9 19.1 M0.1 20.5 L0.15 20.95 0.1 21.15 -0.05 21.25 -0.1 21.25 -0.3 21.15 -0.3 21.05 -0.4 21.1 -0.55 21.2 -0.65 21.1 -0.65 21.05 -0.45 20.7 -0.25 20.65 -0.15 19.75 -0.05 19.75 0.05 20.4 0.1 20.5 M-6.9 21.6 L-7.0 21.6 -7.05 21.5 -6.45 20.85 -6.15 20.6 -5.5 19.55 Q-4.85 18.45 -4.85 17.9 L-4.75 17.9 -4.7 17.95 -4.25 18.05 -3.7 18.1 -3.45 18.2 -3.45 18.3 -3.7 18.65 Q-3.9 18.45 -3.95 18.65 L-4.2 18.6 -4.2 18.75 -4.2 18.85 -4.25 18.85 -4.95 19.65 -5.45 20.3 -5.9 20.65 -6.45 21.35 -6.8 21.5 -6.9 21.6 M-0.95 18.75 L-0.8 18.7 -0.75 18.7 -0.5 18.25 -0.45 17.7 -0.35 17.7 -0.25 18.4 -0.25 18.5 -0.25 18.75 -0.4 19.0 -0.4 19.05 -1.5 19.3 -1.65 19.25 -2.05 19.2 -2.1 19.2 -2.3 19.25 -2.35 19.2 -1.85 18.9 -0.95 18.75" fill="#0a384b" fill-rule="evenodd" stroke="none"/>
      <path d="M2.15 15.8 L1.8 15.95 1.7 15.95 1.65 15.95 1.65 15.9 1.8 15.65 Q1.8 15.3 1.5 15.4 L1.45 15.45 1.85 15.15 2.05 15.1 2.35 15.4 2.15 15.75 2.15 15.8 M0.1 21.15 L0.35 21.1 Q0.8 21.1 0.9 21.35 L0.6 21.3 0.0 21.4 0.2 21.45 Q1.15 21.65 1.3 21.9 L1.3 22.35 Q0.5 22.8 0.05 23.2 L-0.3 23.2 Q-1.05 23.1 -1.1 22.65 -1.2 22.2 -1.25 22.4 L-1.85 22.55 Q-2.4 22.4 -2.4 22.05 L-2.4 21.85 -2.0 21.35 -1.9 21.4 Q-2.3 21.45 -2.3 21.9 -2.3 22.35 -1.95 22.35 -1.5 22.35 -1.5 21.75 L-1.6 21.4 -1.1 21.4 Q-1.05 21.15 -0.65 21.1 L-0.55 21.2 -0.4 21.1 -0.3 21.15 -0.1 21.25 -0.05 21.25 0.1 21.15 M2.25 22.8 L2.05 22.85 2.05 22.8 2.1 22.8 2.15 22.75 2.25 22.8 M1.4 23.15 L1.2 23.3 1.15 23.4 1.05 23.45 1.1 23.3 1.35 23.15 1.4 23.15 M-2.85 14.85 Q-2.55 14.9 -2.2 15.3 L-1.8 15.9 -1.8 15.95 -2.15 16.15 Q-2.5 16.15 -3.15 15.65 L-3.05 15.65 Q-2.75 15.65 -2.75 15.35 -2.75 15.1 -3.15 14.8 L-3.1 14.8 -2.85 14.85 M-3.35 15.5 L-3.5 15.35 -3.4 15.35 -3.35 15.5" fill="#ff0000" fill-rule="evenodd" stroke="none"/>
      <path d="M-3.45 14.75 L-3.3 14.75 -3.15 14.8 Q-2.75 15.1 -2.75 15.35 -2.75 15.65 -3.05 15.65 L-3.15 15.65 -3.35 15.5 -3.4 15.35 -3.5 15.35 -3.75 15.05 -3.75 14.95 -3.55 14.85 -3.45 14.75 M1.65 15.95 L1.4 16.1 Q1.1 16.1 1.2 15.8 L1.2 15.75 1.35 15.5 1.45 15.45 1.5 15.4 Q1.8 15.3 1.8 15.65 L1.65 15.9 1.65 15.95 M-1.9 21.4 L-1.75 21.35 -1.6 21.4 -1.5 21.75 Q-1.5 22.35 -1.95 22.35 -2.3 22.35 -2.3 21.9 -2.3 21.45 -1.9 21.4" fill="#febcbc" fill-rule="evenodd" stroke="none"/>
      <path d="M7.1 24.6 Q6.65 24.6 5.75 23.0 L4.55 20.6 Q6.5 22.2 7.2 24.55 L7.1 24.6" fill="#fd1313" fill-rule="evenodd" stroke="none"/>
      <path d="M5.0 20.85 L5.0 20.95 5.0 20.85 M8.1 29.15 L5.1 29.55 2.85 29.25 Q2.25 29.0 2.0 27.9 2.0 27.1 2.4 26.85 L3.0 27.1 2.75 26.55 2.7 26.5 2.15 25.4 2.35 25.1 Q2.6 24.75 2.8 24.75 L3.5 24.85 4.2 27.15 4.4 26.25 5.3 26.1 Q7.1 26.1 8.2 26.95 9.05 27.6 9.05 28.35 9.05 28.8 8.2 29.1 L8.1 29.15 M2.6 25.6 L2.8 26.05 3.2 26.55 3.45 25.95 Q3.45 25.4 3.05 25.25 2.6 25.05 2.6 25.6 M8.3 27.75 Q8.3 26.55 6.2 26.65 4.05 26.6 4.05 27.95 4.05 28.2 4.75 28.5 L6.45 28.8 Q8.3 28.8 8.3 27.75 M-3.9 25.4 L-3.7 24.85 -3.0 24.75 Q-2.8 24.75 -2.55 25.1 L-2.35 25.4 -2.9 26.5 -2.95 26.55 -3.2 27.1 -2.6 26.85 Q-2.2 27.1 -2.2 27.9 -2.45 29.0 -3.05 29.25 L-5.3 29.55 Q-7.4 29.65 -8.3 29.15 L-8.4 29.1 Q-9.25 28.8 -9.25 28.35 -9.25 27.85 -8.9 27.45 L-8.9 27.55 Q-8.9 28.7 -6.7 28.7 -5.25 28.7 -4.8 28.2 -4.55 27.95 -4.55 27.3 -4.55 26.75 -5.1 26.6 L-5.15 26.6 -6.4 26.4 -7.2 26.45 -7.55 26.5 Q-6.65 26.1 -5.5 26.1 L-4.6 26.25 -4.4 27.15 -4.15 26.25 -4.15 26.3 Q-4.15 26.75 -3.85 26.75 L-3.35 26.1 -3.05 25.35 Q-3.05 24.6 -3.6 25.1 L-3.9 25.4" fill="#7e1a01" fill-rule="evenodd" stroke="none"/>
      <path d="M6.5 25.1 L6.15 25.25 Q5.8 25.25 5.25 24.9 L4.8 24.7 5.1 24.7 5.35 24.7 6.2 25.0 6.25 25.0 6.5 25.1 M-5.0 24.7 L-5.45 24.9 -6.35 25.25 -6.7 25.1 -6.45 25.0 -6.4 25.0 -5.55 24.7 -5.3 24.7 -5.0 24.7" fill="#25a4e6" fill-rule="evenodd" stroke="none"/>
      <path d="M7.25 27.05 L7.1 27.05 7.25 27.5 Q7.4 27.95 7.7 27.95 L8.0 27.65 Q8.0 27.05 7.25 27.05 M8.3 27.75 Q8.3 28.8 6.45 28.8 L4.75 28.5 Q4.05 28.2 4.05 27.95 4.05 26.6 6.2 26.65 8.3 26.55 8.3 27.75 M2.6 25.6 Q2.6 25.05 3.05 25.25 3.45 25.4 3.45 25.95 L3.2 26.55 2.8 26.05 2.6 25.6 M-3.9 25.4 L-3.6 25.1 Q-3.05 24.6 -3.05 25.35 L-3.35 26.1 -3.85 26.75 Q-4.15 26.75 -4.15 26.3 L-4.15 26.25 -3.9 25.4 M-7.55 26.5 L-7.2 26.45 -6.4 26.4 -5.15 26.6 -5.1 26.6 Q-4.55 26.75 -4.55 27.3 -4.55 27.95 -4.8 28.2 -5.25 28.7 -6.7 28.7 -8.9 28.7 -8.9 27.55 L-8.9 27.45 Q-8.85 27.0 -8.4 26.75 -8.05 26.55 -7.55 26.5 M-8.45 27.4 L-8.55 27.4 -8.6 27.55 -8.35 28.05 -7.1 28.4 -5.95 28.15 -6.0 28.1 Q-7.35 27.9 -8.45 27.4" fill="#ca2902" fill-rule="evenodd" stroke="none"/>
      <path d="M7.25 27.05 Q8.0 27.05 8.0 27.65 L7.7 27.95 Q7.4 27.95 7.25 27.5 L7.1 27.05 7.25 27.05 M-8.45 27.4 Q-7.35 27.9 -6.0 28.1 L-5.95 28.15 -7.1 28.4 -8.35 28.05 -8.6 27.55 -8.55 27.4 -8.45 27.4" fill="#fc7858" fill-rule="evenodd" stroke="none"/>
      <path d="M0.55 18.35 Q0.05 18.35 0.1 17.7 0.1 17.2 0.5 16.95 0.85 16.75 0.85 17.65 0.85 18.35 0.55 18.35 M-3.1 17.7 Q-3.1 16.95 -1.95 16.95 -1.75 16.95 -1.65 17.3 L-1.6 17.65 Q-1.6 18.45 -2.4 18.45 L-2.95 18.15 -3.1 17.7 M-2.45 19.25 L-2.3 19.25 -2.1 19.2 -2.05 19.2 -1.65 19.25 -1.55 19.3 -1.4 19.45 -1.6 19.65 -2.1 19.75 Q-2.7 19.75 -2.65 19.45 L-2.45 19.25 M-5.9 16.35 Q-5.65 16.05 -5.35 16.05 -4.9 16.05 -4.9 16.55 -4.9 17.25 -5.6 17.25 -6.05 17.25 -6.05 16.75 L-5.9 16.35 M-6.05 18.4 L-6.4 19.1 -6.95 19.75 -7.2 19.35 Q-7.2 18.8 -6.6 18.25 -6.05 17.65 -6.05 18.4 M-8.9 20.75 Q-8.9 21.15 -9.3 21.15 -9.9 21.15 -9.9 20.75 -9.9 20.35 -9.25 20.35 -8.9 20.35 -8.9 20.75 M-3.45 24.3 L-3.25 23.65 Q-3.0 23.3 -2.65 23.3 -2.3 23.3 -2.3 23.75 L-2.5 24.35 Q-2.7 24.65 -3.0 24.65 L-3.45 24.3" fill="#80d9ff" fill-rule="evenodd" stroke="none"/>
      <path d="M6.15 15.45 L6.1 15.4 4.9 14.55 4.9 14.5 7.1 15.35 7.6 15.75 8.9 17.65 Q9.8 18.55 11.75 19.3 L12.55 19.6 12.7 19.65 14.5 20.35 Q15.05 20.15 15.05 20.75 L14.4 21.2 Q13.7 21.45 13.6 21.95 L13.45 22.75 12.9 23.25 12.6 23.0 12.7 22.85 12.9 22.5 13.2 21.4 13.65 20.8 12.95 20.2 Q12.25 19.35 11.4 19.35 10.45 19.35 9.5 18.7 L9.15 18.45 9.0 18.35 Q8.2 17.7 7.9 17.1 7.4 16.2 6.15 15.45 M-12.6 23.55 L-12.45 23.6 -12.55 24.15 -12.55 24.25 -12.8 24.25 Q-13.65 24.25 -14.05 22.8 -14.45 21.3 -15.4 21.3 L-15.85 21.4 -16.25 21.3 -16.4 21.05 -16.45 20.9 -16.15 20.6 -15.1 20.05 -13.35 19.5 -11.0 19.0 Q-9.65 18.75 -9.3 18.05 -8.7 16.85 -7.6 16.05 L-6.35 15.0 Q-5.65 14.5 -4.95 14.65 L-4.9 14.75 -6.0 15.8 -7.85 17.25 -8.9 18.6 Q-9.6 19.35 -11.5 19.55 L-14.8 20.25 -15.55 20.8 -15.05 21.0 -14.0 21.95 -13.85 22.2 -13.45 23.0 -13.4 23.05 Q-13.1 23.4 -12.6 23.55" fill="#000000" fill-rule="evenodd" stroke="none"/>
      <path d="M3.6 20.6 L5.05 23.6 5.0 23.7 4.9 23.75 Q3.9 22.65 3.9 21.95 L3.55 20.6 3.6 20.6" fill="#ff4444" fill-rule="evenodd" stroke="none"/>
      <path d="M12.7 22.85 L12.6 22.85 12.35 22.7 12.3 22.55 Q11.9 22.45 11.85 22.0 L11.6 21.0 11.15 20.6 10.85 20.3 10.5 19.9 11.0 19.9 11.0 19.85 Q9.3 19.05 8.95 18.4 L7.9 17.6 Q7.15 17.15 6.75 17.4 L7.15 17.55 6.85 17.75 6.8 17.75 6.7 17.75 6.4 17.4 6.35 17.1 6.3 16.55 6.5 17.05 6.8 17.35 6.35 16.55 6.55 16.25 6.1 15.5 6.15 15.45 Q7.4 16.2 7.9 17.1 8.2 17.7 9.0 18.35 L9.15 18.5 9.5 18.7 Q10.45 19.35 11.4 19.35 12.25 19.35 12.95 20.2 L13.65 20.8 13.2 21.4 12.9 22.5 12.7 22.85 M7.05 22.2 L7.25 22.45 Q7.1 22.5 7.1 23.0 7.1 23.3 7.45 23.9 L7.6 24.2 7.65 24.3 7.95 24.75 7.65 25.05 7.2 25.25 6.5 25.1 6.4 25.0 6.25 25.0 6.2 25.0 5.35 24.7 5.1 24.7 4.8 24.7 4.75 24.7 4.55 24.65 4.7 24.55 4.75 24.25 4.05 22.65 3.35 21.05 3.55 19.8 3.6 19.8 Q4.5 19.8 6.6 22.45 L6.8 22.35 6.9 22.15 6.75 21.9 7.05 22.2 M-4.9 24.7 L-4.95 24.7 -5.0 24.7 -5.3 24.7 -5.55 24.7 -6.4 25.0 -6.45 25.0 -6.65 24.95 -7.25 25.15 -7.9 25.05 -7.85 24.9 Q-7.3 23.65 -7.3 23.3 L-7.3 22.95 -7.2 22.95 -7.2 22.9 -7.05 22.6 -7.0 22.5 -6.8 22.35 -6.9 22.2 -6.45 22.1 -6.4 22.15 -6.35 22.75 -7.0 24.7 -6.95 24.7 -6.65 24.35 -6.5 24.15 -6.2 23.65 -6.15 23.5 -4.3 19.95 -3.9 19.4 -3.7 19.6 -3.6 19.8 -3.55 19.85 -3.55 20.2 Q-3.55 21.3 -4.2 22.75 L-4.9 24.4 -4.8 24.65 -4.9 24.7 M-11.15 20.4 L-11.8 21.15 -12.1 21.65 -12.15 21.9 -12.5 22.95 -12.55 23.0 -12.5 23.05 -12.6 23.55 Q-13.1 23.4 -13.4 23.05 L-13.25 23.05 -12.6 22.65 -12.45 22.15 Q-11.9 21.35 -11.9 21.05 L-11.65 20.55 -12.05 20.9 -12.9 21.2 Q-13.8 21.7 -13.85 22.2 L-14.0 21.95 -15.05 21.0 -15.55 20.8 -14.8 20.25 -11.5 19.55 Q-9.6 19.35 -8.9 18.6 L-7.85 17.25 -6.0 15.8 -6.15 16.05 -6.35 16.3 -7.45 18.05 -7.5 18.1 Q-8.2 19.1 -8.85 19.45 L-9.4 19.65 -9.6 19.65 -10.05 19.6 -10.9 19.85 -10.95 19.85 -10.95 19.9 -10.95 20.0 -11.15 20.4 M3.6 20.6 L3.55 20.6 3.9 21.95 Q3.9 22.65 4.9 23.75 L5.0 23.7 5.05 23.6 3.6 20.6 M5.0 20.85 L5.0 20.95 5.0 20.85 M5.1 23.3 L6.2 24.5 6.75 24.6 6.4 24.1 Q5.0 22.15 4.25 20.25 4.25 21.85 5.1 23.3 M7.1 24.6 L7.2 24.55 Q6.5 22.2 4.55 20.6 L5.75 23.0 Q6.65 24.6 7.1 24.6 M12.45 20.0 L11.5 19.45 11.4 19.6 11.8 20.4 12.45 21.15 Q12.85 21.15 12.85 20.75 L12.45 20.0 M-12.55 20.7 L-11.5 19.75 -13.25 20.0 Q-14.7 20.4 -14.7 20.9 -14.7 21.3 -14.2 21.3 -13.55 21.3 -12.55 20.7 M-4.75 22.75 Q-4.4 21.1 -4.05 20.4 L-5.4 22.65 -6.5 24.8 -6.45 24.85 Q-5.25 24.2 -4.75 22.75" fill="#db0202" fill-rule="evenodd" stroke="none"/>
      <path d="M0.5 25.25 L-0.05 25.15 -0.15 25.15 -0.7 25.25 -0.85 25.1 -1.5 24.95 -1.65 24.5 Q-1.65 23.9 -0.9 23.85 L-0.45 23.85 -0.05 23.9 0.3 23.9 0.9 23.9 Q1.45 24.0 1.45 24.5 L1.3 24.95 0.65 25.1 0.5 25.25 M-4.65 24.8 L-4.75 24.7 -4.8 24.65 -4.9 24.4 -4.2 22.75 Q-3.55 21.3 -3.55 20.2 L-3.55 19.85 -3.6 19.8 -3.7 19.6 -3.9 19.4 -4.3 19.95 -6.15 23.5 -6.2 23.65 -6.5 24.15 -6.65 24.35 -6.95 24.7 -7.0 24.7 -6.35 22.75 -6.4 22.15 -6.45 22.1 -6.9 22.2 -7.1 21.85 -6.9 21.6 -6.8 21.5 -6.45 21.35 -6.2 21.25 -6.1 21.25 -5.45 20.3 -4.95 19.65 -4.25 18.85 -4.2 18.85 -3.95 18.7 -3.95 18.65 Q-3.9 18.45 -3.7 18.65 L-3.35 19.1 -2.75 20.4 -2.7 20.65 -2.7 20.9 -2.7 21.0 -2.85 21.5 -2.9 21.55 -3.25 22.0 -3.5 23.05 Q-3.9 24.8 -4.4 24.8 L-4.65 24.8 M7.3 17.65 L7.15 17.55 6.75 17.4 Q7.15 17.15 7.9 17.6 L8.95 18.4 Q9.3 19.05 11.0 19.85 L11.0 19.9 10.5 19.9 9.7 19.9 Q9.1 19.65 8.65 19.25 L8.25 18.65 7.3 17.65 M4.35 19.2 L4.65 19.4 5.5 20.25 6.15 21.05 Q6.5 21.15 6.55 21.6 L6.75 21.9 6.9 22.15 6.8 22.35 6.6 22.45 Q4.5 19.8 3.6 19.8 L3.55 19.8 3.35 21.05 4.05 22.65 4.75 24.25 4.7 24.55 4.55 24.65 4.2 24.65 3.95 24.5 3.8 24.3 Q3.35 23.55 2.9 21.4 L2.85 21.25 2.85 21.3 2.8 21.3 2.6 21.1 2.6 20.9 2.6 20.85 2.7 20.45 Q2.75 19.85 3.0 19.55 L3.0 19.3 3.4 18.85 3.65 18.55 Q3.9 18.35 3.9 18.75 L3.85 18.85 4.0 18.95 4.0 19.05 4.0 19.1 4.35 19.2 M3.65 19.15 L3.65 19.1 3.6 19.15 3.65 19.15 M-13.85 22.2 Q-13.8 21.7 -12.9 21.2 L-12.05 20.9 -11.65 20.55 -11.9 21.05 Q-11.9 21.35 -12.45 22.15 L-12.6 22.65 -13.25 23.05 -13.4 23.05 -13.45 23.0 -13.85 22.2" fill="#a00101" fill-rule="evenodd" stroke="none"/>
      <path d="M5.1 23.3 Q4.25 21.85 4.25 20.25 5.0 22.15 6.4 24.1 L6.75 24.6 6.2 24.5 5.1 23.3 M12.45 20.0 L12.85 20.75 Q12.85 21.15 12.45 21.15 L11.8 20.4 11.4 19.6 11.5 19.45 12.45 20.0 M-12.55 20.7 Q-13.55 21.3 -14.2 21.3 -14.7 21.3 -14.7 20.9 -14.7 20.4 -13.25 20.0 L-11.5 19.75 -12.55 20.7 M-4.75 22.75 Q-5.25 24.2 -6.45 24.85 L-6.5 24.8 -5.4 22.65 -4.05 20.4 Q-4.4 21.1 -4.75 22.75" fill="#fe5f5f" fill-rule="evenodd" stroke="none"/>
      <path d="M7.45 28.35 L7.8 28.35 7.9 28.45 7.8 28.5 8.2 28.5 8.65 28.4 9.15 28.4 9.25 28.5 Q8.7 29.35 6.85 29.35 L4.05 29.05 Q3.05 28.95 2.65 28.55 2.1 28.2 2.1 27.8 2.1 27.4 2.5 27.4 L2.55 27.4 2.9 27.55 3.0 27.6 3.7 28.0 6.7 28.45 7.45 28.35" fill="#ca2902" fill-rule="evenodd" stroke="none"/>
      <path d="M3.15 15.3 L3.55 14.95 3.1 14.9 2.05 14.8 1.7 14.8 1.85 15.05 Q1.85 15.55 1.25 15.85 L1.7 15.95 1.8 15.95 1.7 15.9 3.15 15.3 M6.8 17.15 L7.5 17.7 8.45 18.65 9.05 19.4 9.65 19.5 Q11.15 19.75 11.15 20.5 L11.15 20.6 10.95 20.65 10.9 20.65 10.9 20.7 Q11.0 21.55 9.7 22.25 L7.85 22.7 7.75 22.65 7.4 22.7 7.0 22.65 7.1 22.7 6.7 22.5 6.45 22.1 6.45 22.0 6.4 21.8 3.55 18.8 3.6 18.95 3.55 18.9 3.5 18.95 2.65 20.8 3.15 22.1 3.65 23.75 3.75 24.2 Q3.8 24.55 4.15 24.55 L4.9 24.45 5.65 24.65 6.65 25.1 7.8 24.9 7.9 24.85 8.1 25.05 8.0 25.1 7.0 25.45 5.9 25.2 5.25 24.9 4.35 24.85 4.05 25.05 4.1 25.1 4.35 26.05 Q6.7 25.4 8.25 26.3 9.65 27.15 9.65 28.4 L9.5 28.95 9.3 29.2 8.8 29.5 7.75 29.8 7.65 29.85 3.2 29.85 2.55 29.65 1.8 29.0 Q1.35 28.0 1.8 27.0 L2.3 26.65 1.6 25.1 0.85 25.3 -0.1 25.2 -1.05 25.3 -1.8 25.1 -2.5 26.65 -2.0 27.0 Q-1.55 28.0 -2.0 29.0 L-2.75 29.65 -3.4 29.85 -7.85 29.85 -7.95 29.8 -9.0 29.5 -9.5 29.2 -9.7 28.95 -9.85 28.4 Q-9.85 27.15 -8.45 26.3 -6.9 25.4 -4.55 26.05 L-4.3 25.1 -4.25 25.05 -4.55 24.85 -5.45 24.9 -5.9 25.15 -7.0 25.45 -8.2 25.25 -8.1 25.1 -7.95 24.9 -7.9 24.9 -7.2 25.05 -6.4 24.95 -5.1 24.45 -4.35 24.55 Q-4.0 24.55 -3.95 24.2 L-3.85 23.75 -3.35 22.1 -2.85 20.8 -3.7 18.95 -3.95 19.05 -3.95 19.0 -4.0 19.1 -4.1 19.2 -6.6 21.8 -6.65 22.0 -6.65 22.15 -6.65 22.2 -6.85 22.6 Q-7.15 23.0 -7.7 23.0 L-8.65 22.85 -9.85 22.25 Q-10.6 21.8 -10.8 21.4 L-10.85 21.45 -11.15 21.1 -11.35 20.7 -11.3 20.55 -11.35 20.5 Q-11.35 19.75 -10.4 19.65 L-8.95 19.4 -7.6 18.25 -6.8 16.85 Q-6.8 16.1 -6.3 15.55 -5.85 15.0 -5.1 14.85 L-4.3 14.75 -4.05 14.7 -3.75 14.7 -3.7 14.7 -2.15 14.75 -1.75 14.75 -1.65 14.95 -1.65 15.0 -0.2 16.1 0.0 15.9 Q0.9 15.1 1.45 14.95 L1.55 14.75 1.95 14.75 3.5 14.7 3.55 14.7 4.9 14.65 6.1 15.35 Q6.6 15.9 6.6 16.65 L6.8 17.15 M5.25 15.2 L5.15 15.1 4.55 14.95 4.3 15.0 4.2 14.95 3.95 15.05 3.9 15.05 3.85 15.1 3.55 15.35 3.45 15.45 2.65 15.95 2.0 16.2 0.6 16.45 Q1.05 16.15 1.35 15.3 L0.0 16.5 -0.2 16.5 -1.45 15.6 -0.8 16.45 -2.2 16.2 -2.85 15.95 -3.65 15.45 -3.75 15.35 -4.05 15.1 -4.1 15.05 -4.15 15.05 -4.2 15.0 -4.3 15.0 Q-5.35 15.05 -5.9 15.85 -6.3 16.4 -6.3 16.9 L-6.25 17.4 Q-8.1 19.0 -8.35 20.1 L-9.45 19.85 Q-10.2 19.85 -10.65 20.15 L-10.9 20.4 -10.95 20.6 -10.8 21.2 -10.8 21.25 -10.6 21.4 -10.55 21.45 -9.4 22.15 -7.8 22.4 -7.7 22.35 -7.3 22.2 -7.2 21.8 -7.2 21.75 -7.3 20.95 -6.95 21.4 -6.85 21.5 Q-3.95 18.55 -3.75 17.8 -3.55 16.95 -3.5 17.7 L-3.0 19.6 -2.5 20.7 -2.55 20.8 -0.1 21.05 2.35 20.8 2.3 20.7 2.8 19.6 3.3 17.7 Q3.35 16.95 3.65 17.75 3.95 18.55 5.45 20.0 L6.95 21.3 7.1 20.95 7.0 21.75 7.0 21.8 7.1 22.2 7.5 22.35 7.6 22.4 9.5 22.05 10.4 21.55 10.6 21.3 10.75 21.05 10.8 20.65 10.45 20.15 Q10.0 19.85 9.25 19.85 L8.9 19.9 Q8.2 18.55 6.4 17.75 L6.35 17.75 6.35 17.7 6.3 17.7 6.25 17.7 5.8 17.6 6.05 17.3 6.1 16.7 Q6.1 16.2 5.7 15.65 L5.25 15.2 M0.0 21.4 L-0.2 21.4 -1.0 21.4 -2.65 21.2 -3.1 22.8 -2.7 22.75 Q-2.1 22.75 -1.55 23.15 L-0.3 24.0 Q-1.7 23.95 -1.6 24.65 L-0.1 25.0 1.4 24.65 Q1.5 23.95 0.1 24.0 L1.35 23.15 2.5 22.75 2.9 22.8 2.45 21.2 0.8 21.4 0.0 21.4 M8.1 29.15 L8.2 29.1 Q9.05 28.8 9.05 28.35 9.05 27.6 8.2 26.95 7.1 26.1 5.3 26.1 L4.4 26.25 4.2 27.15 3.5 24.85 2.8 24.75 Q2.6 24.75 2.35 25.1 L2.15 25.4 2.7 26.5 2.75 26.55 3.0 27.1 2.4 26.85 Q2.0 27.1 2.0 27.9 2.25 29.0 2.85 29.25 L5.1 29.55 8.1 29.15 M1.8 23.2 Q1.7 23.2 1.6 23.35 L1.4 23.75 1.4 23.85 1.35 23.9 2.05 25.2 2.3 24.9 Q2.6 24.6 3.3 24.6 L3.45 24.65 2.9 22.85 1.8 23.2 M-2.25 14.8 L-3.3 14.9 -3.7 14.95 -3.7 15.0 -3.35 15.3 -1.9 15.9 -2.0 15.95 -1.9 15.95 -1.45 15.85 Q-2.05 15.55 -2.05 15.05 L-1.9 14.8 -2.25 14.8 M-3.5 24.6 Q-2.8 24.6 -2.5 24.9 L-2.25 25.2 -1.55 23.9 -1.6 23.85 -1.6 23.75 -1.8 23.35 -2.0 23.2 Q-2.25 23.05 -3.1 22.85 L-3.65 24.65 -3.5 24.6 M-3.0 24.75 L-3.7 24.85 -4.4 27.15 -4.6 26.25 -5.5 26.1 Q-7.3 26.1 -8.4 26.95 -9.25 27.6 -9.25 28.35 -9.25 28.8 -8.4 29.1 L-8.3 29.15 Q-7.4 29.65 -5.3 29.55 L-3.05 29.25 Q-2.45 29.0 -2.2 27.9 -2.2 27.1 -2.6 26.85 L-3.2 27.1 -2.95 26.55 -2.9 26.5 -2.35 25.4 -2.55 25.1 Q-2.8 24.75 -3.0 24.75" fill="#000000" fill-rule="evenodd" stroke="none"/>
    </g>
    <g id="sprite0">
      <use ffdec:characterId="8" height="2.2" transform="matrix(1.0, 0.0, 0.0, 1.0, 0.0, 0.0)" width="5.15" xlink:href="#shape1"/>
    </g>
    <g id="shape1">
      <path d="M5.1 1.3 L5.15 1.35 Q2.7 1.05 0.0 2.2 L0.8 0.35 1.85 0.25 1.2 0.5 0.75 1.6 0.75 1.65 1.1 1.55 2.1 1.25 2.85 1.15 5.1 1.3 M2.9 0.15 L4.15 0.0 4.55 0.3 4.6 0.35 4.05 0.3 3.95 0.3 2.9 0.15" fill="#000000" fill-rule="evenodd" stroke="none"/>
      <path d="M4.6 0.35 L5.1 1.3 2.85 1.15 3.5 0.9 3.8 0.65 3.95 0.3 4.05 0.3 4.6 0.35" fill="#b10101" fill-rule="evenodd" stroke="none"/>
      <path d="M1.85 0.25 L2.9 0.15 3.95 0.3 3.8 0.65 3.5 0.9 2.85 1.15 2.1 1.25 1.55 1.4 1.1 1.55 0.75 1.65 0.75 1.6 1.2 0.5 1.85 0.25 M3.35 0.6 Q3.35 0.25 2.85 0.4 2.45 0.5 2.15 0.75 L2.15 1.05 2.6 1.05 Q3.35 0.85 3.35 0.6" fill="#ff0000" fill-rule="evenodd" stroke="none"/>
      <path d="M3.35 0.6 Q3.35 0.85 2.6 1.05 L2.15 1.05 2.15 0.75 Q2.45 0.5 2.85 0.4 3.35 0.25 3.35 0.6" fill="#fe6767" fill-rule="evenodd" stroke="none"/>
    </g>
  </defs>
</svg>
