<?xml version="1.0" encoding="UTF-8" standalone="no"?>
<svg xmlns:ffdec="https://www.free-decompiler.com/flash" xmlns:xlink="http://www.w3.org/1999/xlink" ffdec:objectType="frame" height="25.05px" width="58.8px" xmlns="http://www.w3.org/2000/svg">
  <g transform="matrix(1.0, 0.0, 0.0, 1.0, 29.1, -12.55)">
    <use ffdec:characterId="4" height="12.7" transform="matrix(0.371, -0.9286, -0.9286, -0.371, 20.6, 26.45)" width="17.45" xlink:href="#sprite0"/>
    <use ffdec:characterId="4" height="12.7" transform="matrix(-0.371, -0.9286, 0.9286, -0.371, -20.0, 27.15)" width="17.45" xlink:href="#sprite1"/>
    <use ffdec:characterId="31" height="5.5" transform="matrix(1.0, 0.0, 0.0, 1.0, 2.05, 25.85)" width="10.5" xlink:href="#sprite2"/>
    <use ffdec:characterId="31" height="5.5" transform="matrix(-1.0, 0.0, 0.0, 1.0, -0.8, 25.85)" width="10.5" xlink:href="#sprite2"/>
    <use ffdec:characterId="6" height="13.85" transform="matrix(1.0, 0.0, 0.0, 1.0, -19.05, 14.95)" width="8.85" xlink:href="#sprite3"/>
    <use ffdec:characterId="6" height="13.85" transform="matrix(-1.0, 0.0, 0.0, 1.0, 20.25, 14.7)" width="8.85" xlink:href="#sprite3"/>
    <use ffdec:characterId="33" height="16.0" transform="matrix(1.0, 0.0, 0.0, 1.0, 0.6, 21.3)" width="28.9" xlink:href="#sprite4"/>
    <use ffdec:characterId="14" height="12.0" transform="matrix(1.0, 0.0, 0.0, 1.0, -9.15, 19.0)" width="11.9" xlink:href="#sprite5"/>
    <use ffdec:characterId="14" height="12.0" transform="matrix(-1.0, 0.0, 0.0, 1.0, 10.35, 18.6)" width="11.9" xlink:href="#sprite5"/>
    <use ffdec:characterId="25" height="8.25" transform="matrix(1.0, 0.0, 0.0, 1.0, 0.45, 19.95)" width="11.6" xlink:href="#sprite6"/>
  </g>
  <defs>
    <g id="sprite0">
      <use ffdec:characterId="3" height="12.7" transform="matrix(1.0, 0.0, 0.0, 1.0, 0.0, 0.0)" width="17.45" xlink:href="#shape0"/>
    </g>
    <g id="shape0">
      <path d="M-8.05 -2.2 L0.0 5.85" ffdec:has-small-stroke="true" ffdec:original-stroke-width="1.0" fill="none" stroke="#000000" stroke-linecap="round" stroke-linejoin="round" stroke-width="1.0000400450850417"/>
      <path d="M8.2 -2.35 L0.15 5.7" ffdec:has-small-stroke="true" ffdec:original-stroke-width="1.0" fill="none" stroke="#000000" stroke-linecap="round" stroke-linejoin="round" stroke-width="1.0000400450850417"/>
      <path d="M-2.15 -5.6 Q3.1 -6.75 8.15 -2.4 L3.65 2.2 Q0.85 0.1 -2.05 1.05 L-4.75 -2.05 -3.6 -3.85 -2.15 -5.6" fill="#ffeb55" fill-rule="evenodd" stroke="none"/>
      <path d="M-2.05 1.05 Q-2.95 1.3 -3.8 1.85 L-8.25 -2.4 -6.3 -3.8 Q-4.2 -5.15 -2.15 -5.6 L-3.6 -3.85 -4.75 -2.05 -2.05 1.05" fill="#ffb355" fill-rule="evenodd" stroke="none"/>
      <path d="M-2.05 1.05 Q-2.95 1.3 -3.8 1.85 L-8.25 -2.4 -6.3 -3.8 Q-4.2 -5.15 -2.15 -5.6 3.1 -6.75 8.15 -2.4 L3.65 2.2 Q0.85 0.1 -2.05 1.05 Z" ffdec:has-small-stroke="true" ffdec:original-stroke-width="1.0" fill="none" stroke="#000000" stroke-linecap="round" stroke-linejoin="round" stroke-width="1.0000400450850417"/>
      <path d="M1.5 -2.6 Q1.5 -1.9 1.05 -1.4 0.55 -0.9 -0.15 -0.9 -0.85 -0.9 -1.3 -1.4 -1.8 -1.9 -1.8 -2.6 -1.8 -3.3 -1.3 -3.8 -0.85 -4.3 -0.15 -4.3 0.55 -4.3 1.05 -3.8 1.5 -3.3 1.5 -2.6" fill="#ffffff" fill-rule="evenodd" stroke="none"/>
    </g>
    <g id="sprite1">
      <use ffdec:characterId="3" height="12.7" transform="matrix(1.0, 0.0, 0.0, 1.0, 0.0, 0.0)" width="17.45" xlink:href="#shape1"/>
    </g>
    <g id="shape1">
      <path d="M-8.05 -2.2 L0.0 5.85" ffdec:has-small-stroke="true" ffdec:original-stroke-width="1.0" fill="none" stroke="#000000" stroke-linecap="round" stroke-linejoin="round" stroke-width="1.0000400450850417"/>
      <path d="M8.2 -2.35 L0.15 5.7" ffdec:has-small-stroke="true" ffdec:original-stroke-width="1.0" fill="none" stroke="#000000" stroke-linecap="round" stroke-linejoin="round" stroke-width="1.0000400450850417"/>
      <path d="M-2.15 -5.6 Q3.1 -6.75 8.15 -2.4 L3.65 2.2 Q0.85 0.1 -2.05 1.05 L-4.75 -2.05 -3.6 -3.85 -2.15 -5.6" fill="#ffeb55" fill-rule="evenodd" stroke="none"/>
      <path d="M-2.05 1.05 Q-2.95 1.3 -3.8 1.85 L-8.25 -2.4 -6.3 -3.8 Q-4.2 -5.15 -2.15 -5.6 L-3.6 -3.85 -4.75 -2.05 -2.05 1.05" fill="#ffb355" fill-rule="evenodd" stroke="none"/>
      <path d="M-2.05 1.05 Q-2.95 1.3 -3.8 1.85 L-8.25 -2.4 -6.3 -3.8 Q-4.2 -5.15 -2.15 -5.6 3.1 -6.75 8.15 -2.4 L3.65 2.2 Q0.85 0.1 -2.05 1.05 Z" ffdec:has-small-stroke="true" ffdec:original-stroke-width="1.0" fill="none" stroke="#000000" stroke-linecap="round" stroke-linejoin="round" stroke-width="1.0000400450850417"/>
      <path d="M1.5 -2.6 Q1.5 -1.9 1.05 -1.4 0.55 -0.9 -0.15 -0.9 -0.85 -0.9 -1.3 -1.4 -1.8 -1.9 -1.8 -2.6 -1.8 -3.3 -1.3 -3.8 -0.85 -4.3 -0.15 -4.3 0.55 -4.3 1.05 -3.8 1.5 -3.3 1.5 -2.6" fill="#ffffff" fill-rule="evenodd" stroke="none"/>
    </g>
    <g id="sprite2">
      <use ffdec:characterId="30" height="5.5" transform="matrix(1.0, 0.0, 0.0, 1.0, 0.0, 0.0)" width="10.5" xlink:href="#shape2"/>
    </g>
    <g id="shape2">
      <path d="M9.95 3.3 Q9.95 4.25 8.55 4.9 7.15 5.55 5.2 5.55 3.25 5.55 1.85 4.9 0.45 4.25 0.45 3.3 0.45 2.4 1.85 1.75 3.25 1.05 5.2 1.05 7.15 1.05 8.55 1.75 9.95 2.4 9.95 3.3" fill="#dbe9ed" fill-rule="evenodd" stroke="none"/>
      <path d="M9.95 3.3 Q9.95 2.4 8.55 1.75 7.15 1.05 5.2 1.05 3.25 1.05 1.85 1.75 0.45 2.4 0.45 3.3 0.45 4.25 1.85 4.9 3.25 5.55 5.2 5.55 7.15 5.55 8.55 4.9 9.95 4.25 9.95 3.3 Z" fill="none" stroke="#3e281e" stroke-linecap="round" stroke-linejoin="round" stroke-width="1.0"/>
    </g>
    <g id="sprite3">
      <use ffdec:characterId="5" height="13.85" transform="matrix(1.0, 0.0, 0.0, 1.0, 0.0, 0.0)" width="8.85" xlink:href="#shape3"/>
    </g>
    <g id="shape3">
      <path d="M8.95 -1.85 L10.35 -1.25 Q10.45 3.6 8.05 8.1 5.65 12.6 3.8 10.6 1.9 8.55 2.75 4.85 3.6 1.15 8.95 -1.85" fill="#dbe9ed" fill-rule="evenodd" stroke="none"/>
      <path d="M7.75 4.8 L5.7 7.55 Q4.65 8.65 4.0 8.3 3.4 7.9 3.5 6.15 3.65 4.4 4.6 2.9 5.5 1.4 6.65 0.6 7.8 -0.15 8.45 0.25 9.05 0.65 8.85 2.0 8.65 3.3 7.75 4.8" fill="#ffffff" fill-rule="evenodd" stroke="none"/>
      <path d="M10.35 -0.25 Q10.2 4.05 8.05 8.1 5.65 12.6 3.8 10.6 1.9 8.55 2.75 4.85 3.6 1.3 8.6 -1.65" fill="none" stroke="#3e281e" stroke-linecap="round" stroke-linejoin="round" stroke-width="1.0"/>
    </g>
    <g id="sprite4">
      <use ffdec:characterId="22" height="16.0" transform="matrix(1.0, 0.0, 0.0, 1.0, -10.7, -7.35)" width="28.9" xlink:href="#shape4"/>
    </g>
    <g id="shape4">
      <path d="M0.55 13.85 Q-5.25 11.45 -2.15 4.8 -0.45 1.15 2.45 0.05 9.35 1.8 18.7 -0.25 21.85 1.15 23.55 4.8 26.65 11.45 20.85 13.85 15.85 15.9 10.75 14.3 5.55 15.9 0.55 13.85" fill="#dbeaed" fill-rule="evenodd" stroke="none"/>
      <path d="M19.25 0.0 Q22.0 1.45 23.55 4.8 26.65 11.45 20.85 13.85 15.85 15.9 10.75 14.3 5.55 15.9 0.55 13.85 -5.25 11.45 -2.15 4.8 -0.5 1.3 2.2 0.15" fill="none" stroke="#3e281e" stroke-linecap="round" stroke-linejoin="round" stroke-width="1.0"/>
      <path d="M19.75 6.8 Q19.75 8.9 17.0 10.4 14.25 11.9 10.4 11.9 6.5 11.9 3.8 10.4 1.05 8.9 1.05 6.8 1.05 4.7 3.8 3.2 6.5 1.7 10.4 1.7 14.25 1.7 17.0 3.2 19.75 4.7 19.75 6.8" fill="#ffffff" fill-rule="evenodd" stroke="none"/>
    </g>
    <g id="sprite5">
      <use ffdec:characterId="13" height="12.0" transform="matrix(1.0, 0.0, 0.0, 1.0, 0.0, 0.0)" width="11.9" xlink:href="#shape5"/>
    </g>
    <g id="shape5">
      <path d="M4.95 0.2 L4.35 5.6 Q0.3 5.45 -2.4 4.5 L-1.3 1.4 -0.1 -2.0 Q0.45 -3.5 2.35 -3.75 4.2 -4.05 4.95 0.2" fill="#ff0000" fill-rule="evenodd" stroke="none"/>
      <path d="M-0.8 -5.4 L-0.7 -5.6 5.45 -4.35 5.4 -3.85 4.95 0.2 Q4.2 -4.05 2.35 -3.75 0.45 -3.5 -0.1 -2.0 L-1.3 1.4 -2.4 4.5 Q-4.25 3.85 -5.5 2.85 L-0.8 -5.4" fill="#9a1c1c" fill-rule="evenodd" stroke="none"/>
      <path d="M5.4 -3.85 L4.95 0.2 4.35 5.6 Q0.3 5.45 -2.4 4.5 -4.25 3.85 -5.5 2.85 L-0.8 -5.4" fill="none" stroke="#580909" stroke-linecap="round" stroke-linejoin="round" stroke-width="1.0"/>
      <path d="M1.8 2.95 L1.6 3.5 1.1 3.65 0.6 3.5 0.4 2.95 0.6 2.5 Q0.8 2.25 1.1 2.25 1.35 2.25 1.6 2.5 L1.8 2.95" fill="#ffffff" fill-rule="evenodd" stroke="none"/>
      <path d="M-1.05 2.2 L-1.25 2.75 -1.75 2.9 -2.25 2.75 -2.45 2.2 Q-2.45 1.9 -2.25 1.75 L-1.75 1.5 -1.25 1.75 -1.05 2.2" fill="#ffffff" fill-rule="evenodd" stroke="none"/>
      <path d="M0.8 0.35 L0.6 0.9 0.1 1.05 -0.4 0.9 -0.6 0.35 -0.4 -0.1 0.1 -0.35 0.6 -0.1 0.8 0.35" fill="#ffffff" fill-rule="evenodd" stroke="none"/>
    </g>
    <g id="sprite6">
      <use ffdec:characterId="24" height="8.25" transform="matrix(1.0, 0.0, 0.0, 1.0, 0.0, 0.0)" width="11.6" xlink:href="#shape6"/>
    </g>
    <g id="shape6">
      <path d="M-5.3 -3.55 L-0.05 -0.25 5.3 -3.6" fill="none" stroke="#ff0000" stroke-linecap="round" stroke-linejoin="round" stroke-width="1.0"/>
      <path d="M-1.45 3.65 L0.0 -0.4 1.55 3.5" fill="none" stroke="#ff0000" stroke-linecap="round" stroke-linejoin="round" stroke-width="1.0"/>
    </g>
  </defs>
</svg>
