<?xml version="1.0" encoding="UTF-8" standalone="no"?>
<svg xmlns:ffdec="https://www.free-decompiler.com/flash" xmlns:xlink="http://www.w3.org/1999/xlink" ffdec:objectType="frame" height="20.15px" width="43.6px" xmlns="http://www.w3.org/2000/svg">
  <g transform="matrix(1.0, 0.0, 0.0, 1.0, 21.9, -13.45)">
    <use ffdec:characterId="2" height="5.15" transform="matrix(1.0, 0.0, 0.0, 1.0, 0.1, 18.65)" width="6.85" xlink:href="#sprite0"/>
    <use ffdec:characterId="8" height="4.35" transform="matrix(1.0, 0.0, 0.0, 1.0, -0.05, 15.65)" width="11.5" xlink:href="#sprite1"/>
    <use ffdec:characterId="26" height="5.5" transform="matrix(1.0, 0.0, 0.0, 1.0, -0.1, 22.8)" width="9.1" xlink:href="#sprite2"/>
    <use ffdec:characterId="10" height="2.35" transform="matrix(0.7967, 0.6044, -0.6044, 0.7967, -0.15, 19.35)" width="7.6" xlink:href="#sprite3"/>
    <use ffdec:characterId="16" height="8.55" transform="matrix(1.0, 0.0, 0.0, 1.0, -6.55, 27.55)" width="11.25" xlink:href="#sprite4"/>
    <use ffdec:characterId="4" height="7.5" transform="matrix(1.0, 0.0, 0.0, 1.0, -9.3, 21.4)" width="7.1" xlink:href="#sprite5"/>
    <use ffdec:characterId="16" height="8.55" transform="matrix(-1.0, 0.0, 0.0, 1.0, 6.75, 27.7)" width="11.25" xlink:href="#sprite4"/>
    <use ffdec:characterId="4" height="7.5" transform="matrix(-1.0, 0.0, 0.0, 1.0, 9.1, 21.0)" width="7.1" xlink:href="#sprite5"/>
    <use ffdec:characterId="12" height="10.6" transform="matrix(0.9183, 0.4578, -0.0611, 0.95, -16.4, 24.3)" width="10.1" xlink:href="#sprite6"/>
    <use ffdec:characterId="12" height="10.6" transform="matrix(0.9326, 0.2361, -0.0611, 0.95, -15.05, 26.1)" width="10.1" xlink:href="#sprite6"/>
    <use ffdec:characterId="12" height="10.6" transform="matrix(0.9474, 0.0065, 0.2681, 0.9522, -12.9, 28.0)" width="10.1" xlink:href="#sprite6"/>
    <use ffdec:characterId="14" height="7.0" transform="matrix(0.9966, 0.082, -0.082, 0.9966, -10.95, 22.4)" width="6.9" xlink:href="#sprite7"/>
    <use ffdec:characterId="12" height="10.6" transform="matrix(-0.9183, 0.4578, 0.0611, 0.95, 16.2, 24.25)" width="10.1" xlink:href="#sprite6"/>
    <use ffdec:characterId="12" height="10.6" transform="matrix(-0.9326, 0.2361, 0.0611, 0.95, 14.85, 26.05)" width="10.1" xlink:href="#sprite6"/>
    <use ffdec:characterId="12" height="10.6" transform="matrix(-0.9474, 0.0065, -0.2681, 0.9522, 12.7, 27.95)" width="10.1" xlink:href="#sprite6"/>
    <use ffdec:characterId="14" height="7.0" transform="matrix(-0.9966, 0.082, 0.082, 0.9966, 10.75, 22.35)" width="6.9" xlink:href="#sprite7"/>
  </g>
  <defs>
    <g id="sprite0">
      <use ffdec:characterId="1" height="5.15" transform="matrix(1.0, 0.0, 0.0, 1.0, 0.0, 0.0)" width="6.85" xlink:href="#shape0"/>
    </g>
    <g id="shape0">
      <path d="M3.2 0.75 L2.8 0.8 Q1.55 0.85 0.55 0.3 L0.5 0.3 0.7 1.0 Q0.2 0.9 -0.15 0.65 L-2.0 -0.5 0.65 -0.55 3.2 -1.25 3.2 0.75" fill="#514949" fill-rule="evenodd" stroke="none"/>
      <path d="M3.2 -1.25 L0.65 -0.55 -2.0 -0.5 -0.15 0.65 Q0.2 0.9 0.7 1.0 L0.5 0.3 0.55 0.3 Q1.55 0.85 2.8 0.8 L3.2 0.75 3.2 2.05 -3.15 2.05 -2.7 -2.75 3.2 -2.6 3.2 -1.25" fill="#1c1f19" fill-rule="evenodd" stroke="none"/>
      <path d="M1.05 2.0 L0.9 2.0 2.7 1.75 2.85 1.85 Q2.8 2.0 2.25 2.15 L0.4 2.4 Q-3.4 2.4 -3.4 1.65 L-3.15 -0.25 Q-2.9 -1.85 -2.65 -2.15 L-2.5 -2.0 -2.75 -0.35 -2.95 1.35 Q-2.95 1.85 -0.95 2.0 L1.05 2.0 M3.15 -2.45 L3.45 1.35 3.4 1.6 3.05 1.85 2.9 1.7 3.15 1.3 2.95 -1.0 Q2.95 -2.35 3.15 -2.45" fill="#000000" fill-rule="evenodd" stroke="none"/>
    </g>
    <g id="sprite1">
      <use ffdec:characterId="7" height="4.35" transform="matrix(1.0, 0.0, 0.0, 1.0, 0.0, 0.0)" width="11.5" xlink:href="#shape1"/>
    </g>
    <g id="shape1">
      <path d="M3.95 -2.0 L3.95 -1.35 3.25 -0.7 2.3 -0.2 2.4 -0.2 4.0 0.1 Q2.85 0.75 1.75 0.9 L-2.55 0.7 -2.3 0.55 -0.1 -0.05 -3.95 -0.3 -4.1 -0.75 -4.1 -1.2 -3.8 -1.35 Q-2.9 -1.75 -1.95 -1.8 -0.25 -2.55 2.1 -1.25 L2.85 -1.8 3.95 -2.0" fill="#ff0000" fill-rule="evenodd" stroke="none"/>
      <path d="M3.95 -2.0 L4.75 -1.3 Q4.8 -0.95 5.15 -0.5 L5.4 0.0 3.75 1.1 -0.3 2.1 Q-3.55 2.15 -5.7 1.3 L-5.3 0.85 Q-5.35 0.5 -4.95 0.4 L-4.65 0.1 -4.75 -0.5 -4.1 -1.2 -4.1 -0.75 -3.95 -0.3 -0.1 -0.05 -2.3 0.55 -2.55 0.7 1.75 0.9 Q2.85 0.75 4.0 0.1 L2.4 -0.2 2.3 -0.2 3.25 -0.7 3.95 -1.35 3.95 -2.0" fill="#420000" fill-rule="evenodd" stroke="none"/>
      <path d="M2.5 -1.4 Q1.1 0.15 -0.5 0.35 L-3.25 0.3 -4.9 0.4 -5.45 1.35 -1.0 1.85 Q2.45 1.8 5.2 -0.15 L4.85 -1.05 Q3.45 -2.6 2.5 -1.4 M2.0 -1.05 Q1.3 -1.15 0.35 -1.7 L-1.8 -1.85 -3.5 -1.2 -4.55 -0.4 -4.3 0.0 -2.6 0.05 Q-0.15 0.35 2.0 -1.05 M4.05 -2.2 L4.85 -1.5 5.75 0.2 Q3.8 1.4 1.5 1.95 -0.6 2.4 -2.85 1.95 -4.6 1.95 -5.75 1.25 L-5.5 0.7 -5.05 0.3 -4.85 0.15 -4.9 0.0 -5.05 -0.25 -5.05 -0.5 -4.85 -0.85 -3.9 -1.35 -1.65 -2.1 Q-0.2 -2.5 2.1 -1.3 2.4 -2.1 4.05 -2.2" fill="#000000" fill-rule="evenodd" stroke="none"/>
    </g>
    <g id="sprite2">
      <use ffdec:characterId="25" height="5.5" transform="matrix(1.0, 0.0, 0.0, 1.0, 0.0, 0.0)" width="9.1" xlink:href="#shape2"/>
    </g>
    <g id="shape2">
      <path d="M3.45 -1.2 L3.45 -1.15 Q3.4 -0.4 3.75 0.15 L4.25 1.1 4.3 1.2 4.4 1.7 4.5 2.6 3.2 2.6 1.9 2.05 1.1 1.2 0.85 0.8 0.55 0.45 -0.7 0.6 -0.9 1.2 -1.3 2.0 Q-1.75 3.0 -3.0 2.9 L-3.85 2.4 -4.15 2.0 -4.3 1.1 -3.85 0.75 -3.8 0.5 -3.6 -1.55 -2.9 -2.25 2.0 -1.85 3.35 -2.05 3.4 -1.9 3.45 -1.55 3.45 -1.2 M3.25 1.55 L3.8 1.3 2.95 -1.05 -3.1 -1.45 Q-3.65 -0.4 -3.3 0.85 L-2.6 1.25 -2.5 1.25 -3.05 0.05 -1.7 0.65 -1.6 0.55 Q-2.05 0.0 -1.7 0.0 L1.6 -0.15 Q1.4 0.2 1.55 0.8 L1.6 0.85 2.35 1.25 Q2.8 0.95 2.9 1.4 2.95 1.7 3.2 1.55 L3.25 1.55" fill="#420000" fill-rule="evenodd" stroke="none"/>
      <path d="M3.25 1.55 L3.2 1.55 Q2.95 1.7 2.9 1.4 2.8 0.95 2.35 1.25 L1.6 0.85 1.55 0.8 Q1.4 0.2 1.6 -0.15 L-1.7 0.0 Q-2.05 0.0 -1.6 0.55 L-1.7 0.65 -3.05 0.05 -2.5 1.25 -2.6 1.25 -3.3 0.85 Q-3.65 -0.4 -3.1 -1.45 L2.95 -1.05 3.8 1.3 3.25 1.55" fill="#ff0000" fill-rule="evenodd" stroke="none"/>
      <path d="M1.7 -1.75 L-0.5 -1.75 -2.95 -2.2 -3.65 -0.95 -3.5 -0.1 -3.65 0.8 -4.2 1.2 Q-4.0 1.4 -3.9 1.75 L-4.0 1.8 -4.35 1.5 -4.55 1.15 -3.85 0.3 -3.9 0.0 -4.05 -0.95 -3.7 -1.65 -3.05 -2.5 -2.9 -2.4 -0.55 -2.0 1.4 -2.0 3.35 -2.6 3.8 -0.85 3.65 0.0 4.55 1.0 4.4 2.15 4.15 2.2 4.0 1.55 4.1 1.0 3.75 0.55 3.45 0.3 3.35 0.4 3.2 0.4 3.2 -0.2 3.45 -0.95 2.95 -2.0 1.7 -1.75 M2.6 2.6 Q2.3 2.6 1.7 1.15 L1.7 0.85 2.25 1.6 2.8 2.5 2.6 2.6 M0.35 0.7 L-0.3 0.7 -0.55 0.6 -1.0 1.7 -1.55 2.5 -2.45 2.35 -2.3 2.2 -1.6 2.15 -0.7 0.55 -0.9 0.4 Q-1.45 0.05 -1.75 -0.1 L-1.75 -0.2 Q-1.35 -0.25 -0.35 0.5 L2.2 -0.15 1.4 0.45 0.9 0.6 1.35 1.25 1.8 1.9 2.25 2.45 2.1 2.5 1.35 2.0 1.1 1.4 0.6 0.65 0.35 0.7 M-1.6 1.3 Q-1.9 2.0 -3.0 2.6 L-3.15 2.5 -1.65 1.25 -1.6 1.3" fill="#000000" fill-rule="evenodd" stroke="none"/>
    </g>
    <g id="sprite3">
      <use ffdec:characterId="9" height="2.35" transform="matrix(1.0, 0.0, 0.0, 1.0, 0.0, 0.0)" width="7.6" xlink:href="#shape3"/>
    </g>
    <g id="shape3">
      <path d="M2.9 -0.3 L3.65 -0.35 3.4 0.9 1.7 1.05 2.9 -0.3 M-0.9 0.85 L-3.4 0.3 -3.3 -0.3 -2.95 -1.0 -2.8 -0.95 -2.4 -0.45 -0.9 0.85" fill="#ba6b00" fill-rule="evenodd" stroke="none"/>
      <path d="M-2.8 -0.95 L1.55 -0.4 2.9 -0.3 1.7 1.05 -0.75 0.9 -0.9 0.85 -2.4 -0.45 -2.8 -0.95" fill="#ffcd29" fill-rule="evenodd" stroke="none"/>
      <path d="M3.35 0.25 L3.4 -0.25 -2.95 -0.95 -3.1 -0.8 -3.35 0.3 3.3 0.6 3.35 0.25 M3.8 -0.3 L3.8 -0.25 Q3.9 0.75 3.0 1.1 L2.4 1.15 -1.65 0.85 -3.8 0.35 -3.45 -1.2 2.55 -0.5 3.65 -0.55 3.8 -0.3" fill="#000000" fill-rule="evenodd" stroke="none"/>
    </g>
    <g id="sprite4">
      <use ffdec:characterId="15" height="8.55" transform="matrix(1.0, 0.0, 0.0, 1.0, 0.0, 0.0)" width="11.25" xlink:href="#shape4"/>
    </g>
    <g id="shape4">
      <path d="M-5.2 2.95 L-0.1 2.8 0.1 1.35 -1.1 0.7 0.15 0.5 Q1.1 0.45 2.0 -1.3 L2.4 -3.35 3.7 -3.4 2.25 -1.55 Q3.05 0.3 2.15 2.05 1.2 3.8 -0.55 4.8 L-4.45 4.75 -5.2 2.95 M4.2 -3.05 L4.95 -2.55 4.3 -1.1 4.65 0.55 Q4.8 1.75 4.6 2.5 4.25 3.55 4.2 4.5 L3.65 4.6 2.75 4.65 Q3.95 2.95 3.65 0.85 L3.15 -1.15 3.25 -1.55 4.2 -3.05" fill="#130f0f" fill-rule="evenodd" stroke="none"/>
      <path d="M3.7 -3.4 L4.2 -3.05 3.25 -1.55 3.15 -1.15 3.65 0.85 Q3.95 2.95 2.75 4.65 L-0.55 4.8 Q1.2 3.8 2.15 2.05 3.05 0.3 2.25 -1.55 L3.7 -3.4" fill="#30293c" fill-rule="evenodd" stroke="none"/>
      <path d="M-4.85 1.65 Q-4.8 1.1 -4.2 1.0 L-2.6 0.85 -2.2 1.1 -3.9 1.9 -4.5 2.2 Q-4.9 2.2 -4.85 1.65" fill="#d3d3d3" fill-rule="evenodd" stroke="none"/>
      <path d="M-5.2 2.95 Q-5.65 1.25 -4.95 1.05 L-3.25 0.4 -3.05 0.3 -2.5 0.05 -2.25 -0.1 -2.2 -0.1 Q-1.95 -0.25 -2.15 -0.05 L-1.55 -0.45 Q-0.45 -1.2 1.25 -1.7 L1.7 -3.35 2.4 -3.35 2.0 -1.3 Q1.1 0.45 0.15 0.5 L-1.1 0.7 0.1 1.35 -0.1 2.8 -5.2 2.95 M-4.85 1.65 Q-4.9 2.2 -4.5 2.2 L-3.9 1.9 -2.2 1.1 -2.6 0.85 -4.2 1.0 Q-4.8 1.1 -4.85 1.65" fill="#7a7676" fill-rule="evenodd" stroke="none"/>
      <path d="M2.1 -3.6 L2.1 -3.55 3.25 -3.4 1.8 -3.2 1.4 -1.55 -0.35 -1.0 -1.65 -0.3 -0.35 0.75 0.4 1.3 0.1 2.35 0.85 2.75 2.5 3.1 0.55 3.3 -4.65 3.3 -4.5 4.55 -1.1 4.8 -4.7 4.7 -5.4 2.5 -5.6 1.8 -5.15 0.95 -3.3 0.35 -3.2 0.55 -4.9 1.1 -5.2 1.8 -4.6 3.1 -0.05 2.8 0.1 1.3 -1.45 0.55 Q-2.3 0.0 -2.8 0.2 L-0.4 -1.35 1.15 -1.85 Q1.55 -3.35 1.7 -3.4 L2.1 -3.6 M3.6 -3.4 L4.2 -3.15 5.65 -2.45 5.15 -2.15 4.85 -1.75 5.25 1.85 4.2 4.85 0.15 4.8 4.05 4.4 4.05 2.8 2.55 3.1 3.35 2.8 Q4.2 2.35 4.65 1.75 L4.45 0.55 4.15 -1.55 4.85 -2.65 3.6 -3.4" fill="#000000" fill-rule="evenodd" stroke="none"/>
    </g>
    <g id="sprite5">
      <use ffdec:characterId="3" height="7.5" transform="matrix(1.0, 0.0, 0.0, 1.0, 0.0, 0.0)" width="7.1" xlink:href="#shape5"/>
    </g>
    <g id="shape5">
      <path d="M3.15 -1.2 L3.2 -1.1 3.3 -0.7 Q2.75 -0.7 2.6 0.75 L2.4 1.6 2.15 2.1 1.0 3.5 0.1 3.0 -1.1 2.45 -1.65 2.15 -2.0 1.9 -3.6 0.5 -1.35 -2.55 0.25 -2.4 1.1 -3.65 2.25 -2.6 2.35 -2.5 1.0 -2.55 1.55 -1.7 -0.5 -1.45 0.1 -0.55 -1.55 -0.85 -0.5 0.6 Q0.3 1.35 1.45 1.15 L2.05 0.95 2.2 -0.75 3.15 -1.2 M1.5 1.95 L-2.3 0.5 -1.7 2.05 0.3 2.75 1.5 1.95" fill="#420000" fill-rule="evenodd" stroke="none"/>
      <path d="M3.15 -1.2 L2.2 -0.75 2.05 0.95 1.45 1.15 Q0.3 1.35 -0.5 0.6 L-1.55 -0.85 0.1 -0.55 -0.5 -1.45 1.55 -1.7 1.0 -2.55 2.35 -2.5 3.15 -1.2 M1.5 1.95 L0.3 2.75 -1.7 2.05 -2.3 0.5 1.5 1.95" fill="#ff0000" fill-rule="evenodd" stroke="none"/>
      <path d="M0.45 -2.2 L-0.5 -2.15 -1.2 -2.25 -2.85 -0.1 -3.35 0.6 Q-2.05 2.1 -0.1 2.85 L0.7 3.25 0.55 3.15 1.3 3.2 2.1 2.05 2.05 2.05 2.15 1.95 2.25 1.3 2.6 0.6 2.5 0.3 2.45 0.0 2.55 -0.25 2.7 -0.45 3.0 -0.55 3.1 -0.7 3.1 -1.0 1.7 -3.0 1.05 -3.55 0.4 -2.25 0.45 -2.2 M3.1 -1.75 L3.15 -1.5 3.45 -1.0 3.5 -0.75 3.45 -0.5 3.45 -0.45 2.9 -0.25 2.85 -0.3 2.8 -0.2 2.8 0.95 2.45 1.7 2.4 2.25 2.0 2.8 1.55 3.3 1.05 3.75 Q-0.35 2.65 -1.9 2.3 L-2.75 2.0 -3.35 1.1 -3.5 0.5 -2.3 -1.25 -1.7 -2.55 0.3 -2.5 1.05 -3.75 3.05 -2.0 3.1 -1.75" fill="#000000" fill-rule="evenodd" stroke="none"/>
    </g>
    <g id="sprite6">
      <use ffdec:characterId="11" height="10.6" transform="matrix(1.0, 0.0, 0.0, 1.0, 0.0, 0.0)" width="10.1" xlink:href="#shape6"/>
    </g>
    <g id="shape6">
      <path d="M-3.3 5.25 L-3.85 5.15 Q-5.35 4.8 -5.15 3.85 L-5.05 2.6 -4.4 1.55 -2.3 -0.35 0.7 -2.7 2.75 -3.85 -1.35 -0.4 Q-3.2 0.9 -4.15 2.45 -4.55 3.45 -3.95 4.45 L-3.3 5.25" fill="#ffffff" fill-rule="evenodd" stroke="none"/>
      <path d="M-3.3 5.25 L-3.95 4.45 Q-4.55 3.45 -4.15 2.45 -3.2 0.9 -1.35 -0.4 L2.75 -3.85 3.65 -4.05 2.5 -2.95 -1.95 0.75 Q-5.25 3.45 -1.5 5.5 L-3.3 5.25" fill="#67616d" fill-rule="evenodd" stroke="none"/>
      <path d="M3.6 -4.7 L3.85 -4.6 4.1 -4.4 4.5 -3.95 Q2.3 -2.4 -0.65 0.35 -3.55 3.05 -2.35 4.25 L-0.1 5.9 Q-5.35 6.0 -5.55 4.3 -5.75 2.65 -4.35 1.15 L-0.5 -2.25 2.5 -4.0 3.6 -4.7 M3.3 -3.95 Q2.85 -3.95 1.3 -2.9 L-2.3 -0.35 Q-4.35 1.1 -4.85 2.95 -5.35 4.8 -3.85 5.15 L-1.5 5.5 Q-5.25 3.45 -1.95 0.75 L2.5 -2.95 Q3.65 -4.0 3.3 -3.95" fill="#24272a" fill-rule="evenodd" stroke="none"/>
    </g>
    <g id="sprite7">
      <use ffdec:characterId="13" height="7.0" transform="matrix(1.0, 0.0, 0.0, 1.0, 0.0, 0.0)" width="6.9" xlink:href="#shape7"/>
    </g>
    <g id="shape7">
      <path d="M-2.75 -1.9 L-2.35 -2.45 -1.55 -3.15 0.15 -2.05 Q0.75 -1.35 0.85 -0.5 L0.7 -0.5 Q-1.0 -1.45 -2.75 -1.9" fill="#5b5b5b" fill-rule="evenodd" stroke="none"/>
      <path d="M0.15 -2.05 Q1.2 -1.3 1.95 -0.15 L1.0 1.1 0.55 0.95 -3.0 -1.05 -2.75 -1.9 Q-1.0 -1.45 0.7 -0.5 L0.85 -0.5 Q0.75 -1.35 0.15 -2.05" fill="#2e2b2b" fill-rule="evenodd" stroke="none"/>
      <path d="M1.95 -0.15 L2.65 0.9 2.75 1.05 2.95 1.4 Q2.4 2.0 2.0 2.75 L1.7 2.55 -3.1 -0.75 -3.0 -1.05 0.55 0.95 1.0 1.1 1.95 -0.15" fill="#282232" fill-rule="evenodd" stroke="none"/>
      <path d="M2.95 1.4 L3.25 2.35 2.75 3.2 2.0 2.75 Q2.4 2.0 2.95 1.4" fill="#0c0a0a" fill-rule="evenodd" stroke="none"/>
      <path d="M-2.3 -2.3 Q-2.75 -2.0 -3.0 -0.75 L2.5 2.95 2.95 2.2 2.5 1.05 Q1.15 -1.5 -1.55 -2.85 -1.85 -2.6 -2.3 -2.3 M-3.45 -0.7 Q-3.05 -2.35 -1.5 -3.5 L-1.05 -3.5 0.8 -2.05 Q3.3 -0.15 3.45 2.65 L2.55 3.5 Q-0.5 1.95 -3.45 -0.7" fill="#141317" fill-rule="evenodd" stroke="none"/>
    </g>
  </defs>
</svg>
