<?xml version="1.0" encoding="UTF-8" standalone="no"?>
<svg xmlns:ffdec="https://www.free-decompiler.com/flash" xmlns:xlink="http://www.w3.org/1999/xlink" ffdec:objectType="frame" height="17.85px" width="29.4px" xmlns="http://www.w3.org/2000/svg">
  <g transform="matrix(1.0, 0.0, 0.0, 1.0, 14.9, -13.7)">
    <use ffdec:characterId="23" height="5.95" transform="matrix(1.0, 0.0, 0.0, 1.0, 0.75, 25.85)" width="9.35" xlink:href="#sprite0"/>
    <use ffdec:characterId="23" height="5.95" transform="matrix(-1.0, 0.0, 0.0, 1.0, -1.1, 25.85)" width="9.35" xlink:href="#sprite1"/>
    <use ffdec:characterId="26" height="12.8" transform="matrix(1.0, 0.0, 0.0, 1.0, -14.2, 15.55)" width="9.95" xlink:href="#sprite2"/>
    <use ffdec:characterId="26" height="12.8" transform="matrix(-1.0, 0.0, 0.0, 1.0, 13.8, 15.5)" width="9.95" xlink:href="#sprite3"/>
    <use ffdec:characterId="15" height="14.5" transform="matrix(1.0, 0.0, 0.0, 1.0, -10.1, 13.95)" width="20.6" xlink:href="#sprite4"/>
  </g>
  <defs>
    <g id="sprite0">
      <use ffdec:characterId="22" height="5.95" transform="matrix(1.0, 0.0, 0.0, 1.0, 0.0, 0.0)" width="9.35" xlink:href="#shape0"/>
    </g>
    <g id="shape0">
      <path d="M9.3 3.5 L7.9 3.45 6.7 4.65 6.3 4.9 Q4.95 4.4 3.1 5.25" ffdec:has-small-stroke="true" ffdec:original-stroke-width="0.8" fill="none" stroke="#431d00" stroke-linecap="round" stroke-linejoin="round" stroke-width="1.0"/>
      <path d="M7.0 3.85 L6.05 4.7 2.75 4.95 Q1.7 3.45 1.65 1.8 L2.3 0.95 Q3.0 -0.05 4.8 0.45 6.6 0.9 8.4 2.3 L9.25 3.05 Q7.35 3.3 7.0 3.85" fill="#ffa927" fill-rule="evenodd" stroke="none"/>
      <path d="M4.35 3.8 L3.9 3.4" ffdec:has-small-stroke="true" ffdec:original-stroke-width="0.8" fill="none" stroke="#ffcf6f" stroke-linecap="round" stroke-linejoin="round" stroke-width="1.0"/>
      <path d="M1.15 3.45 Q0.4 1.9 1.15 0.9 1.85 -0.15 4.15 -0.25 7.0 0.45 8.9 2.1 10.35 3.6 8.15 3.3 7.35 2.25 6.45 2.05 5.55 1.8 5.6 2.3 5.6 2.75 6.25 3.75 6.85 4.7 6.3 4.9 5.75 5.1 4.8 3.45 3.85 1.8 3.0 3.1 2.75 3.75 2.9 4.2 L3.1 4.8 3.1 4.85 Q3.3 5.4 2.8 5.5 2.3 5.55 2.1 5.3 L1.15 3.45" fill="url(#gradient0)" fill-rule="evenodd" stroke="none"/>
      <path d="M3.1 5.25 Q2.0 5.6 1.05 3.55 0.15 1.45 1.9 0.2" ffdec:has-small-stroke="true" ffdec:original-stroke-width="0.8" fill="none" stroke="#893b00" stroke-linecap="round" stroke-linejoin="round" stroke-width="1.0"/>
    </g>
    <linearGradient gradientTransform="matrix(0.0054, 0.0, 0.0, 0.0035, 5.15, 2.6)" gradientUnits="userSpaceOnUse" id="gradient0" spreadMethod="pad" x1="-819.2" x2="819.2">
      <stop offset="0.0" stop-color="#d15100"/>
      <stop offset="1.0" stop-color="#df6e00"/>
    </linearGradient>
    <g id="sprite1">
      <use ffdec:characterId="22" height="5.95" transform="matrix(1.0, 0.0, 0.0, 1.0, 0.0, 0.0)" width="9.35" xlink:href="#shape1"/>
    </g>
    <g id="shape1">
      <path d="M9.3 3.5 L7.9 3.45 6.7 4.65 6.3 4.9 Q4.95 4.4 3.1 5.25" ffdec:has-small-stroke="true" ffdec:original-stroke-width="0.8" fill="none" stroke="#431d00" stroke-linecap="round" stroke-linejoin="round" stroke-width="1.0"/>
      <path d="M7.0 3.85 L6.05 4.7 2.75 4.95 Q1.7 3.45 1.65 1.8 L2.3 0.95 Q3.0 -0.05 4.8 0.45 6.6 0.9 8.4 2.3 L9.25 3.05 Q7.35 3.3 7.0 3.85" fill="#ffa927" fill-rule="evenodd" stroke="none"/>
      <path d="M4.35 3.8 L3.9 3.4" ffdec:has-small-stroke="true" ffdec:original-stroke-width="0.8" fill="none" stroke="#ffcf6f" stroke-linecap="round" stroke-linejoin="round" stroke-width="1.0"/>
      <path d="M1.15 3.45 Q0.4 1.9 1.15 0.9 1.85 -0.15 4.15 -0.25 7.0 0.45 8.9 2.1 10.35 3.6 8.15 3.3 7.35 2.25 6.45 2.05 5.55 1.8 5.6 2.3 5.6 2.75 6.25 3.75 6.85 4.7 6.3 4.9 5.75 5.1 4.8 3.45 3.85 1.8 3.0 3.1 2.75 3.75 2.9 4.2 L3.1 4.8 3.1 4.85 Q3.3 5.4 2.8 5.5 2.3 5.55 2.1 5.3 L1.15 3.45" fill="url(#gradient1)" fill-rule="evenodd" stroke="none"/>
      <path d="M3.1 5.25 Q2.0 5.6 1.05 3.55 0.15 1.45 1.9 0.2" ffdec:has-small-stroke="true" ffdec:original-stroke-width="0.8" fill="none" stroke="#893b00" stroke-linecap="round" stroke-linejoin="round" stroke-width="1.0"/>
    </g>
    <linearGradient gradientTransform="matrix(0.0054, 0.0, 0.0, 0.0035, 5.15, 2.6)" gradientUnits="userSpaceOnUse" id="gradient1" spreadMethod="pad" x1="-819.2" x2="819.2">
      <stop offset="0.0" stop-color="#d15100"/>
      <stop offset="1.0" stop-color="#df6e00"/>
    </linearGradient>
    <g id="sprite2">
      <use ffdec:characterId="25" height="12.8" transform="matrix(1.0, 0.0, 0.0, 1.0, 0.0, 0.0)" width="9.95" xlink:href="#shape2"/>
    </g>
    <g id="shape2">
      <path d="M8.65 5.2 L9.05 7.0 8.6 8.85 7.95 9.85 7.5 10.0 7.15 9.9 6.3 10.25 6.15 10.25 5.0 10.45 3.85 10.5 2.65 10.4 Q1.65 10.15 0.95 9.35 0.05 8.45 -0.1 7.75 L-0.2 6.4 -0.45 5.65 -0.2 4.3 Q0.05 3.45 1.2 2.65 L3.5 1.15 Q3.7 0.65 5.15 -0.55 L6.2 -0.75 6.25 -0.75 7.45 -0.65 8.85 -1.4 9.2 -1.05 8.9 -0.75 7.2 -0.05 Q5.8 0.45 3.7 2.2 1.8 3.75 1.35 4.7 0.95 5.45 1.55 5.95 L3.1 6.9 6.1 6.8 Q8.0 6.4 8.5 5.65 L8.6 5.4 8.65 5.2" fill="#d2d2d2" fill-rule="evenodd" stroke="none"/>
      <path d="M8.65 5.2 L8.6 5.4 8.5 5.65 Q8.0 6.4 6.1 6.8 L3.1 6.9 1.55 5.95 Q0.95 5.45 1.35 4.7 1.8 3.75 3.7 2.2 5.8 0.45 7.2 -0.05 L8.9 -0.75 Q9.0 1.25 8.3 2.65 L8.65 5.2" fill="#f2f2f2" fill-rule="evenodd" stroke="none"/>
      <path d="M8.85 -1.4 Q6.1 -0.85 3.9 0.55 2.05 1.7 0.7 3.45 -0.7 5.3 -0.15 7.25 0.35 9.05 2.35 10.1 L3.85 10.55 7.35 10.0" ffdec:has-small-stroke="true" ffdec:original-stroke-width="0.8" fill="none" stroke="#333333" stroke-linecap="round" stroke-linejoin="round" stroke-width="1.0"/>
    </g>
    <g id="sprite3">
      <use ffdec:characterId="25" height="12.8" transform="matrix(1.0, 0.0, 0.0, 1.0, 0.0, 0.0)" width="9.95" xlink:href="#shape3"/>
    </g>
    <g id="shape3">
      <path d="M8.65 5.2 L9.05 7.0 8.6 8.85 7.95 9.85 7.5 10.0 7.15 9.9 6.3 10.25 6.15 10.25 5.0 10.45 3.85 10.5 2.65 10.4 Q1.65 10.15 0.95 9.35 0.05 8.45 -0.1 7.75 L-0.2 6.4 -0.45 5.65 -0.2 4.3 Q0.05 3.45 1.2 2.65 L3.5 1.15 Q3.7 0.65 5.15 -0.55 L6.2 -0.75 6.25 -0.75 7.45 -0.65 8.85 -1.4 9.2 -1.05 8.9 -0.75 7.2 -0.05 Q5.8 0.45 3.7 2.2 1.8 3.75 1.35 4.7 0.95 5.45 1.55 5.95 L3.1 6.9 6.1 6.8 Q8.0 6.4 8.5 5.65 L8.6 5.4 8.65 5.2" fill="#d2d2d2" fill-rule="evenodd" stroke="none"/>
      <path d="M8.65 5.2 L8.6 5.4 8.5 5.65 Q8.0 6.4 6.1 6.8 L3.1 6.9 1.55 5.95 Q0.95 5.45 1.35 4.7 1.8 3.75 3.7 2.2 5.8 0.45 7.2 -0.05 L8.9 -0.75 Q9.0 1.25 8.3 2.65 L8.65 5.2" fill="#f2f2f2" fill-rule="evenodd" stroke="none"/>
      <path d="M8.85 -1.4 Q6.1 -0.85 3.9 0.55 2.05 1.7 0.7 3.45 -0.7 5.3 -0.15 7.25 0.35 9.05 2.35 10.1 L3.85 10.55 7.35 10.0" ffdec:has-small-stroke="true" ffdec:original-stroke-width="0.8" fill="none" stroke="#333333" stroke-linecap="round" stroke-linejoin="round" stroke-width="1.0"/>
    </g>
    <g id="sprite4">
      <use ffdec:characterId="14" height="14.5" transform="matrix(1.0, 0.0, 0.0, 1.0, 0.0, 0.0)" width="20.6" xlink:href="#shape4"/>
    </g>
    <g id="shape4">
      <path d="M10.7 0.45 L11.25 0.2 12.35 0.0 14.5 0.2 Q15.85 0.4 17.6 2.15 19.65 2.85 19.6 5.45 19.4 4.65 18.5 4.25 17.6 3.8 16.4 2.7 15.2 1.55 13.8 0.85 12.35 0.2 10.7 0.45 M19.8 7.85 L19.8 8.6 19.3 10.2 18.4 11.15 17.4 12.15 16.95 12.65 16.5 12.5 15.85 12.95 15.45 13.2 Q10.15 15.35 4.85 13.2 L4.75 13.15 4.55 13.2 4.4 13.2 4.4 13.25 4.2 13.25 3.0 12.9 1.85 11.75 0.85 10.45 0.2 9.05 0.05 8.2 0.0 7.7 Q0.8 9.95 2.75 10.85 4.65 11.75 6.25 11.65 L9.2 11.5 12.2 11.6 15.55 11.3 Q17.2 10.9 17.9 10.15 L19.05 8.6 19.6 7.4 19.8 7.85 M0.15 5.2 Q0.2 3.5 1.3 2.7 L2.15 2.25 Q3.9 0.5 5.25 0.3 L7.4 0.1 8.5 0.3 8.9 0.5 8.95 0.55 Q7.35 0.3 5.95 0.95 4.55 1.65 3.35 2.8 2.15 3.9 1.25 4.35 0.35 4.75 0.15 5.55 L0.15 5.2" fill="#d2d2d2" fill-rule="evenodd" stroke="none"/>
      <path d="M19.6 5.45 L19.8 7.85 19.6 7.4 19.05 8.6 17.9 10.15 Q17.2 10.9 15.55 11.3 L12.2 11.6 9.2 11.5 6.25 11.65 Q4.65 11.75 2.75 10.85 0.8 9.95 0.0 7.7 L0.05 6.6 0.15 5.2 0.15 5.55 Q0.35 4.75 1.25 4.35 2.15 3.9 3.35 2.8 4.55 1.65 5.95 0.95 7.35 0.3 8.95 0.55 L8.9 0.5 10.7 0.45 Q12.35 0.2 13.8 0.85 15.2 1.55 16.4 2.7 17.6 3.8 18.5 4.25 19.4 4.65 19.6 5.45" fill="#f2f2f2" fill-rule="evenodd" stroke="none"/>
      <path d="M0.05 8.4 Q0.6 11.3 2.85 12.6 5.05 13.85 8.05 14.05 L14.0 13.6 Q16.95 13.0 18.25 11.3 19.55 9.6 19.85 7.65" ffdec:has-small-stroke="true" ffdec:original-stroke-width="0.8" fill="none" stroke="#333333" stroke-linecap="round" stroke-linejoin="round" stroke-width="1.0"/>
      <path d="M16.75 4.7 Q16.25 6.15 14.45 7.4 12.55 8.55 10.15 8.55 7.7 8.55 6.0 7.15 4.25 5.8 4.0 4.35 3.75 2.95 6.8 2.9 L11.7 2.8 15.3 3.05 Q16.8 3.2 16.8 4.25 L16.75 4.7" fill="#f7f7f7" fill-rule="evenodd" stroke="none"/>
      <path d="M13.0 5.45 Q13.0 6.45 12.15 7.15 11.35 7.9 10.2 7.9 9.0 7.9 8.15 7.15 7.4 6.45 7.4 5.45 7.4 4.45 8.15 3.7 9.0 3.0 10.2 3.0 11.35 3.0 12.15 3.7 13.0 4.45 13.0 5.45" fill="#ffffff" fill-rule="evenodd" stroke="none"/>
    </g>
  </defs>
</svg>
