<?xml version="1.0" encoding="UTF-8" standalone="no"?>
<svg xmlns:ffdec="https://www.free-decompiler.com/flash" xmlns:xlink="http://www.w3.org/1999/xlink" ffdec:objectType="frame" height="128.2px" width="89.45px" xmlns="http://www.w3.org/2000/svg">
  <g transform="matrix(1.0, 0.0, 0.0, 1.0, 79.85, 95.9)">
    <use ffdec:characterId="2" height="5.45" transform="matrix(1.0, 0.0, 0.0, 1.0, -7.6, 15.7)" width="6.45" xlink:href="#sprite0"/>
    <use ffdec:characterId="2" height="5.45" transform="matrix(-1.0, 0.0, 0.0, 1.0, 7.35, 15.7)" width="6.45" xlink:href="#sprite1"/>
    <use ffdec:characterId="34" height="6.25" transform="matrix(1.0, 0.0, 0.0, 1.0, -10.65, 25.95)" width="8.4" xlink:href="#sprite2"/>
    <use ffdec:characterId="34" height="6.25" transform="matrix(-1.0, 0.0, 0.0, 1.0, 10.1, 25.95)" width="8.4" xlink:href="#sprite3"/>
    <use ffdec:characterId="36" height="7.9" transform="matrix(1.0, 0.0, 0.0, 0.8973, -6.65, 21.2)" width="8.0" xlink:href="#sprite4"/>
    <use ffdec:characterId="36" height="7.9" transform="matrix(-1.0, 0.0, 0.0, 0.8973, 6.7, 21.2)" width="8.0" xlink:href="#sprite4"/>
    <use ffdec:characterId="6" height="12.05" transform="matrix(1.0, 0.0, 0.0, 1.0, -4.6, 16.65)" width="10.55" xlink:href="#sprite5"/>
    <use ffdec:characterId="21" height="119.6" transform="matrix(-1.0, 0.0, 0.0, 1.0, -10.6, -92.15)" width="71.35" xlink:href="#sprite6"/>
  </g>
  <defs>
    <g id="sprite0">
      <use ffdec:characterId="1" height="5.45" transform="matrix(1.0, 0.0, 0.0, 1.0, 0.0, 0.0)" width="6.45" xlink:href="#shape0"/>
    </g>
    <g id="shape0">
      <path d="M4.85 2.8 L4.75 2.95 Q3.7 4.35 3.4 4.25 L-0.45 3.25 2.05 0.4 Q2.5 -0.55 4.7 -0.7 L5.5 -0.6 4.85 2.8" fill="#f1249a" fill-rule="evenodd" stroke="none"/>
      <path d="M4.85 2.8 L4.75 2.95 Q3.7 4.35 3.4 4.25 L-0.45 3.25 2.05 0.4 Q2.5 -0.55 4.7 -0.7 L5.5 -0.6" ffdec:has-small-stroke="true" ffdec:original-stroke-width="0.5" fill="none" stroke="#7f0f41" stroke-linecap="round" stroke-linejoin="round" stroke-width="1.0"/>
      <path d="M1.4 2.25 Q1.4 1.9 2.25 1.2 L2.95 1.35 3.5 1.8 Q3.25 3.1 2.6 3.1 L1.4 2.25" fill="#ff4dd7" fill-rule="evenodd" stroke="none"/>
    </g>
    <g id="sprite1">
      <use ffdec:characterId="1" height="5.45" transform="matrix(1.0, 0.0, 0.0, 1.0, 0.0, 0.0)" width="6.45" xlink:href="#shape1"/>
    </g>
    <g id="shape1">
      <path d="M4.85 2.8 L4.75 2.95 Q3.7 4.35 3.4 4.25 L-0.45 3.25 2.05 0.4 Q2.5 -0.55 4.7 -0.7 L5.5 -0.6 4.85 2.8" fill="#f1249a" fill-rule="evenodd" stroke="none"/>
      <path d="M4.85 2.8 L4.75 2.95 Q3.7 4.35 3.4 4.25 L-0.45 3.25 2.05 0.4 Q2.5 -0.55 4.7 -0.7 L5.5 -0.6" ffdec:has-small-stroke="true" ffdec:original-stroke-width="0.5" fill="none" stroke="#7f0f41" stroke-linecap="round" stroke-linejoin="round" stroke-width="1.0"/>
      <path d="M1.4 2.25 Q1.4 1.9 2.25 1.2 L2.95 1.35 3.5 1.8 Q3.25 3.1 2.6 3.1 L1.4 2.25" fill="#ff4dd7" fill-rule="evenodd" stroke="none"/>
    </g>
    <g id="sprite2">
      <use ffdec:characterId="33" height="6.25" transform="matrix(1.0, 0.0, 0.0, 1.0, 0.0, 0.0)" width="8.4" xlink:href="#shape2"/>
    </g>
    <g id="shape2">
      <path d="M8.15 0.6 Q8.7 0.9 8.65 2.65 8.55 4.3 7.25 4.95 L5.4 5.45 4.9 5.55 4.0 5.55 Q2.15 5.55 1.3 4.3 0.75 3.55 0.75 3.0 0.75 2.2 2.7 1.0 3.1 0.7 4.3 0.35 4.15 0.4 3.9 0.6 5.4 -0.1 8.15 0.6" fill="#b9b9b9" fill-rule="evenodd" stroke="none"/>
      <path d="M8.15 0.6 Q8.7 0.9 8.65 2.65 8.55 4.3 7.25 4.95 L5.4 5.45 4.9 5.55 4.0 5.55 Q2.15 5.55 1.3 4.3 0.75 3.55 0.75 3.0 0.75 2.2 2.7 1.0 3.1 0.7 4.3 0.35" ffdec:has-small-stroke="true" ffdec:original-stroke-width="0.5" fill="none" stroke="#606164" stroke-linecap="round" stroke-linejoin="round" stroke-width="1.0"/>
      <path d="M5.85 0.8 Q6.8 0.9 7.15 1.25 L7.15 1.3 Q7.55 2.65 6.75 3.2 5.95 3.7 4.4 3.8 L1.95 3.45 Q1.15 3.15 1.45 2.55 1.7 1.95 2.9 1.45 4.1 0.9 5.85 0.8" fill="#ffffff" fill-rule="evenodd" stroke="none"/>
      <path d="M8.75 3.15 Q8.15 4.85 5.6 5.5 3.0 6.2 1.1 4.2 L6.45 4.35 Q7.95 3.4 8.25 2.75 L8.55 2.15 8.75 3.15" fill="#ff0000" fill-rule="evenodd" stroke="none"/>
      <path d="M8.6 3.05 Q8.35 4.4 7.25 4.95 L5.4 5.45 4.9 5.55 4.0 5.55 Q2.2 5.55 1.4 4.4" ffdec:has-small-stroke="true" ffdec:original-stroke-width="0.5" fill="none" stroke="#1b1b1b" stroke-linecap="round" stroke-linejoin="round" stroke-width="1.0"/>
      <path d="M6.15 1.35 Q5.75 1.95 4.5 1.7 L4.45 1.7 5.35 2.5 5.35 2.85 4.95 2.85 2.95 2.3 Q3.05 2.1 3.45 2.1 L4.9 2.45 Q4.65 1.75 4.05 1.65 L3.6 1.5 Q3.6 1.3 3.9 1.3 L5.15 1.4 6.0 1.25 6.15 1.35" fill="#ff00db" fill-rule="evenodd" stroke="none"/>
      <path d="M5.25 0.7 Q6.4 0.7 6.55 1.4 L6.35 1.45 4.75 1.0 4.7 0.85 Q4.7 0.7 5.25 0.7" fill="#ff00db" fill-rule="evenodd" stroke="none"/>
      <path d="M6.5 1.75 Q6.5 2.1 6.1 2.1 L5.75 1.9 5.15 1.9 3.4 2.25 3.25 2.2 Q3.45 2.0 4.2 1.85 L5.6 1.8 5.75 1.8 Q5.8 1.3 6.15 1.35 L6.5 1.75" fill="#ff00db" fill-rule="evenodd" stroke="none"/>
      <path d="M4.6 0.75 L4.2 1.25 3.95 0.85 Q3.95 0.4 4.3 0.4 4.6 0.4 4.6 0.75" fill="#ff00db" fill-rule="evenodd" stroke="none"/>
      <path d="M6.65 5.05 L7.5 4.5 Q7.85 4.5 7.85 4.9 L7.35 5.8 Q6.8 6.35 6.15 6.35 L3.65 6.2 Q2.5 6.5 1.65 5.75 0.85 5.05 0.85 4.2 L1.0 3.95 1.45 4.85 Q1.85 5.35 2.95 5.55 L5.1 5.55 Q5.3 5.2 5.8 5.15 L6.65 5.05" fill="#000000" fill-rule="evenodd" stroke="none"/>
      <path d="M3.15 2.2 L2.85 2.45 2.45 2.15 Q2.45 1.85 2.85 1.95 L3.15 2.2" fill="#000000" fill-rule="evenodd" stroke="none"/>
      <path d="M5.9 2.55 L5.6 2.85 Q5.2 2.85 5.2 2.55 L5.6 2.3 5.9 2.55" fill="#000000" fill-rule="evenodd" stroke="none"/>
    </g>
    <g id="sprite3">
      <use ffdec:characterId="33" height="6.25" transform="matrix(1.0, 0.0, 0.0, 1.0, 0.0, 0.0)" width="8.4" xlink:href="#shape3"/>
    </g>
    <g id="shape3">
      <path d="M8.15 0.6 Q8.7 0.9 8.65 2.65 8.55 4.3 7.25 4.95 L5.4 5.45 4.9 5.55 4.0 5.55 Q2.15 5.55 1.3 4.3 0.75 3.55 0.75 3.0 0.75 2.2 2.7 1.0 3.1 0.7 4.3 0.35 4.15 0.4 3.9 0.6 5.4 -0.1 8.15 0.6" fill="#b9b9b9" fill-rule="evenodd" stroke="none"/>
      <path d="M8.15 0.6 Q8.7 0.9 8.65 2.65 8.55 4.3 7.25 4.95 L5.4 5.45 4.9 5.55 4.0 5.55 Q2.15 5.55 1.3 4.3 0.75 3.55 0.75 3.0 0.75 2.2 2.7 1.0 3.1 0.7 4.3 0.35" ffdec:has-small-stroke="true" ffdec:original-stroke-width="0.5" fill="none" stroke="#606164" stroke-linecap="round" stroke-linejoin="round" stroke-width="1.0"/>
      <path d="M5.85 0.8 Q6.8 0.9 7.15 1.25 L7.15 1.3 Q7.55 2.65 6.75 3.2 5.95 3.7 4.4 3.8 L1.95 3.45 Q1.15 3.15 1.45 2.55 1.7 1.95 2.9 1.45 4.1 0.9 5.85 0.8" fill="#ffffff" fill-rule="evenodd" stroke="none"/>
      <path d="M8.75 3.15 Q8.15 4.85 5.6 5.5 3.0 6.2 1.1 4.2 L6.45 4.35 Q7.95 3.4 8.25 2.75 L8.55 2.15 8.75 3.15" fill="#ff0000" fill-rule="evenodd" stroke="none"/>
      <path d="M8.6 3.05 Q8.35 4.4 7.25 4.95 L5.4 5.45 4.9 5.55 4.0 5.55 Q2.2 5.55 1.4 4.4" ffdec:has-small-stroke="true" ffdec:original-stroke-width="0.5" fill="none" stroke="#1b1b1b" stroke-linecap="round" stroke-linejoin="round" stroke-width="1.0"/>
      <path d="M6.15 1.35 Q5.75 1.95 4.5 1.7 L4.45 1.7 5.35 2.5 5.35 2.85 4.95 2.85 2.95 2.3 Q3.05 2.1 3.45 2.1 L4.9 2.45 Q4.65 1.75 4.05 1.65 L3.6 1.5 Q3.6 1.3 3.9 1.3 L5.15 1.4 6.0 1.25 6.15 1.35" fill="#ff00db" fill-rule="evenodd" stroke="none"/>
      <path d="M5.25 0.7 Q6.4 0.7 6.55 1.4 L6.35 1.45 4.75 1.0 4.7 0.85 Q4.7 0.7 5.25 0.7" fill="#ff00db" fill-rule="evenodd" stroke="none"/>
      <path d="M6.5 1.75 Q6.5 2.1 6.1 2.1 L5.75 1.9 5.15 1.9 3.4 2.25 3.25 2.2 Q3.45 2.0 4.2 1.85 L5.6 1.8 5.75 1.8 Q5.8 1.3 6.15 1.35 L6.5 1.75" fill="#ff00db" fill-rule="evenodd" stroke="none"/>
      <path d="M4.6 0.75 L4.2 1.25 3.95 0.85 Q3.95 0.4 4.3 0.4 4.6 0.4 4.6 0.75" fill="#ff00db" fill-rule="evenodd" stroke="none"/>
      <path d="M6.65 5.05 L7.5 4.5 Q7.85 4.5 7.85 4.9 L7.35 5.8 Q6.8 6.35 6.15 6.35 L3.65 6.2 Q2.5 6.5 1.65 5.75 0.85 5.05 0.85 4.2 L1.0 3.95 1.45 4.85 Q1.85 5.35 2.95 5.55 L5.1 5.55 Q5.3 5.2 5.8 5.15 L6.65 5.05" fill="#000000" fill-rule="evenodd" stroke="none"/>
      <path d="M3.15 2.2 L2.85 2.45 2.45 2.15 Q2.45 1.85 2.85 1.95 L3.15 2.2" fill="#000000" fill-rule="evenodd" stroke="none"/>
      <path d="M5.9 2.55 L5.6 2.85 Q5.2 2.85 5.2 2.55 L5.6 2.3 5.9 2.55" fill="#000000" fill-rule="evenodd" stroke="none"/>
    </g>
    <g id="sprite4">
      <use ffdec:characterId="35" height="7.9" transform="matrix(1.0, 0.0, 0.0, 1.0, 0.0, 0.0)" width="8.0" xlink:href="#shape4"/>
    </g>
    <g id="shape4">
      <path d="M6.3 4.8 L6.3 6.1 6.1 7.15 5.95 7.25 6.1 7.6 5.4 8.6 4.95 8.2 4.1 6.85 Q3.5 5.95 2.05 5.9 L0.35 5.8 -0.05 5.95 -0.3 5.55 0.2 4.75 Q-0.2 5.55 0.8 3.55 1.4 3.25 1.6 2.95 L2.15 1.75 3.6 1.2 5.65 1.3 Q7.1 1.75 6.7 2.95 6.25 4.1 6.3 4.8" fill="#121215" fill-rule="evenodd" stroke="none"/>
      <path d="M2.6 5.6 L-0.4 6.2 -0.65 6.25 -0.95 6.0 Q-1.25 5.9 -1.2 5.6 L-0.5 4.85 0.45 4.25 2.2 4.2 Q0.75 4.65 0.15 5.4 L0.15 5.5 0.35 5.55 0.5 5.5 1.45 5.45 2.0 5.3 Q2.4 5.35 2.6 5.6" fill="#050709" fill-rule="evenodd" stroke="none"/>
      <path d="M6.25 7.45 L6.1 8.3 5.4 8.75 Q5.0 8.75 4.95 8.55 L5.5 8.1 5.8 7.65 4.1 5.75 Q4.0 5.05 5.1 5.9 6.2 6.7 6.25 7.45" fill="#050709" fill-rule="evenodd" stroke="none"/>
      <path d="M5.8 8.3 L5.2 8.95 4.2 7.8 Q3.45 6.7 0.3 5.35 3.2 5.5 4.65 6.6 6.1 7.6 5.8 8.3" fill="#323436" fill-rule="evenodd" stroke="none"/>
      <path d="M1.7 4.15 Q2.3 4.15 2.3 4.5 L2.2 4.75 1.85 4.9 1.5 4.8 0.35 4.75 0.7 4.5 Q1.25 4.15 1.7 4.15" fill="#323436" fill-rule="evenodd" stroke="none"/>
      <path d="M3.2 3.2 L4.3 3.4 4.85 3.6 5.05 3.6 5.7 5.65 4.4 4.8 Q3.25 4.0 2.45 4.05 1.6 4.1 1.55 3.8 1.5 3.3 3.2 3.2" fill="#323436" fill-rule="evenodd" stroke="none"/>
    </g>
    <g id="sprite5">
      <use ffdec:characterId="5" height="12.05" transform="matrix(1.0, 0.0, 0.0, 1.0, 0.0, 0.0)" width="10.55" xlink:href="#shape5"/>
    </g>
    <g id="shape5">
      <path d="M8.45 -0.5 Q8.5 3.4 9.0 5.4 L9.45 7.4 9.4 7.45 Q9.4 8.0 6.4 8.65 3.5 9.8 2.35 9.8 L0.8 9.15 -0.35 8.25 0.55 6.85 Q0.1 6.05 0.4 2.95 0.7 -0.45 0.95 -0.85 L2.25 -1.5 Q2.05 0.6 3.7 0.8 L6.3 0.5 Q7.1 -0.4 6.7 -1.55 L8.45 -0.5" fill="#f1249a" fill-rule="evenodd" stroke="none"/>
      <path d="M7.95 4.3 Q8.5 4.3 8.7 5.6 L9.25 6.95 9.15 7.35 8.15 7.75 6.0 7.75 5.65 7.65 4.35 7.65 3.55 7.55 2.7 7.25 1.3 6.9 Q0.65 6.9 0.65 6.7 L0.65 6.55 0.85 6.5 1.4 6.6 Q2.4 6.6 3.65 6.1 L5.0 5.4 6.4 4.8 Q7.6 4.3 7.95 4.3" fill="#ff4dd7" fill-rule="evenodd" stroke="none"/>
      <path d="M6.5 3.0 L7.1 3.0 7.15 3.15 Q7.15 3.75 5.7 4.05 L3.0 4.65 1.55 4.65 Q0.8 4.55 0.8 3.2 0.8 2.75 1.8 2.75 L5.5 3.35 6.5 3.0" fill="#ff4dd7" fill-rule="evenodd" stroke="none"/>
      <path d="M7.05 -1.8 Q7.55 -1.55 7.45 -0.9 L6.8 0.55 Q6.25 1.35 4.95 1.35 3.2 1.35 2.55 0.3 2.15 -0.25 2.15 -0.95 2.15 -1.65 2.4 -1.65 L2.8 -0.55 Q3.2 0.55 4.85 0.55 6.0 0.55 6.35 -0.2 L6.45 -1.1 6.45 -1.7 Q6.5 -2.05 7.05 -1.8" fill="#4a0039" fill-rule="evenodd" stroke="none"/>
      <path d="M8.35 1.4 Q8.95 1.85 8.95 2.6 L8.95 4.0 9.15 5.35 9.65 6.6 9.55 6.9 9.8 7.5 Q9.8 8.0 9.0 8.4 8.2 8.8 7.2 8.8 L6.95 8.7 Q6.1 8.7 4.25 9.45 L2.4 10.15 Q1.3 10.15 0.25 9.35 -0.75 8.6 -0.75 8.0 L-0.2 7.2 0.35 6.65 0.1 5.5 0.25 3.4 Q0.25 2.5 0.45 2.25 L0.6 2.3 0.55 3.9 0.75 4.8 0.9 5.5 0.75 6.7 0.9 7.1 -0.2 8.3 1.05 8.95 1.5 9.4 2.35 9.75 5.35 8.7 Q8.4 7.65 8.75 7.65 L9.05 7.75 9.3 7.65 9.1 7.25 9.2 6.7 8.9 5.6 8.75 4.55 8.3 1.4 8.35 1.4" fill="#7f0f41" fill-rule="evenodd" stroke="none"/>
    </g>
    <g id="sprite6">
      <use ffdec:characterId="8" height="70.55" transform="matrix(1.0, 0.0, 0.0, 1.0, 0.0, 45.55)" width="39.9" xlink:href="#sprite7"/>
      <use ffdec:characterId="20" height="52.1" transform="matrix(1.0, 0.0, 0.0, 1.0, 16.95, 0.0)" width="58.85" xlink:href="#sprite8"/>
      <use ffdec:characterId="12" height="6.25" transform="matrix(1.0, 0.0, 0.0, 1.0, 51.0, 4.95)" width="9.3" xlink:href="#sprite9"/>
      <use ffdec:characterId="12" height="6.25" transform="matrix(1.0, 0.0, 0.0, 1.0, 25.0, 4.95)" width="9.3" xlink:href="#sprite9"/>
    </g>
    <g id="sprite7">
      <use ffdec:characterId="7" height="70.55" transform="matrix(1.0, 0.0, 0.0, 1.0, 0.0, 0.0)" width="39.9" xlink:href="#shape6"/>
    </g>
    <g id="shape6">
      <path d="M39.4 0.0 Q30.25 48.55 0.0 70.05" ffdec:has-small-stroke="true" ffdec:original-stroke-width="0.5" fill="none" stroke="#323232" stroke-linecap="round" stroke-linejoin="round" stroke-width="1.0"/>
    </g>
    <g id="sprite8">
      <use ffdec:characterId="19" height="52.1" transform="matrix(1.0, 0.0, 0.0, 1.0, 0.0, 0.0)" width="58.85" xlink:href="#shape7"/>
    </g>
    <g id="shape7">
      <path d="M26.15 48.85 L25.85 50.1 Q25.3 50.9 23.55 50.9 21.45 50.9 19.85 49.7 18.55 48.75 18.55 48.1 18.55 47.4 19.2 47.05 L21.5 45.9 22.55 44.65 Q23.0 44.0 23.75 44.35 24.75 45.05 25.5 46.55 26.15 47.9 26.15 48.85" fill="#ff52cc" fill-rule="evenodd" stroke="none"/>
      <path d="M26.15 48.85 L25.85 50.1 Q25.3 50.9 23.55 50.9 21.45 50.9 19.85 49.7 18.55 48.75 18.55 48.1 18.55 47.4 19.2 47.05 L21.5 45.9 22.55 44.65 Q23.0 44.0 23.75 44.35 24.75 45.05 25.5 46.55 26.15 47.9 26.15 48.85 Z" ffdec:has-small-stroke="true" ffdec:original-stroke-width="0.5" fill="none" stroke="#96003b" stroke-linecap="round" stroke-linejoin="round" stroke-width="1.0"/>
      <path d="M21.5 49.6 Q19.25 48.55 20.15 47.85 22.35 47.2 25.05 49.8 L21.5 49.6" fill="#720077" fill-rule="evenodd" stroke="none"/>
      <path d="M24.85 47.2 L24.75 47.6 24.9 48.1 Q24.9 48.6 24.55 48.6 24.2 48.6 23.8 48.05 23.45 47.45 22.6 47.35 L22.55 47.15 23.0 47.05 23.65 47.2 Q23.85 46.25 24.35 46.4 24.85 46.6 24.85 47.2" fill="#ffb1f0" fill-rule="evenodd" stroke="none"/>
      <path d="M-2.95 25.65 Q0.8 33.5 13.65 41.45 22.75 46.75 32.55 41.45 45.45 33.5 49.2 25.65 L50.2 23.4 Q53.3 17.5 50.3 8.2 49.0 4.3 45.6 2.35 34.65 -3.85 25.15 3.8 23.8 4.9 22.9 6.3 21.9 4.9 20.55 3.8 11.1 -3.85 0.1 2.35 -3.3 4.3 -4.55 8.2 -8.25 19.35 -2.95 25.65" fill="#ff52ba" fill-rule="evenodd" stroke="none"/>
      <path d="M-2.95 25.65 Q0.8 33.5 13.65 41.45 22.75 46.75 32.55 41.45 45.45 33.5 49.2 25.65 L50.2 23.4 Q53.3 17.5 50.3 8.2 49.0 4.3 45.6 2.35 34.65 -3.85 25.15 3.8 23.8 4.9 22.9 6.3 21.9 4.9 20.55 3.8 11.1 -3.85 0.1 2.35 -3.3 4.3 -4.55 8.2 -8.25 19.35 -2.95 25.65 Z" fill="none" stroke="#77737b" stroke-linecap="round" stroke-linejoin="round" stroke-width="1.0"/>
      <path d="M12.75 39.7 L13.5 40.4 13.8 40.6 14.35 40.85 Q14.15 39.85 14.9 37.85 13.2 37.6 12.75 39.7" fill="#da0544" fill-rule="evenodd" stroke="none"/>
      <path d="M-2.3 26.5 L-1.5 26.95 Q-0.95 26.95 0.15 25.25 -2.25 25.55 -2.45 25.8 -2.65 25.95 -2.3 26.5" fill="#d30469" fill-rule="evenodd" stroke="none"/>
      <path d="M47.35 24.25 L47.5 24.65 47.95 25.05 Q48.65 25.05 48.65 24.35 48.65 23.9 48.0 23.85 47.35 23.8 47.35 24.25" fill="#da0544" fill-rule="evenodd" stroke="none"/>
      <path d="M39.4 35.95 Q41.95 34.0 44.4 31.25 46.95 28.5 48.0 26.05 L45.1 25.65 Q42.8 29.45 39.4 32.4 36.05 35.2 33.5 36.65 L33.15 40.2 39.4 35.95" fill="#ed7fff" fill-rule="evenodd" stroke="none"/>
      <path d="M20.9 43.0 L26.35 42.8 29.9 41.35 Q31.3 38.7 31.35 37.15 25.5 38.95 21.35 38.3 17.2 37.7 15.7 36.95 15.35 39.7 15.6 41.05 17.5 42.55 20.9 43.0" fill="#ed7fff" fill-rule="evenodd" stroke="none"/>
      <path d="M5.65 30.35 Q3.65 28.6 1.5 25.65 L-0.45 27.8 Q2.0 31.15 3.7 32.85 L7.35 36.0 11.95 39.25 12.75 35.35 9.0 33.05 5.65 30.35" fill="#ed7fff" fill-rule="evenodd" stroke="none"/>
      <path d="M-4.75 11.15 Q-5.85 17.6 -5.05 20.05 L-3.3 24.2 Q-1.75 25.15 0.05 23.85 -2.65 20.35 -3.65 17.5 -4.7 14.55 -4.75 11.15" fill="#ed7fff" fill-rule="evenodd" stroke="none"/>
      <path d="M49.45 23.0 Q52.25 17.95 50.05 10.65 49.1 17.95 46.1 23.4 47.8 23.75 49.45 23.0" fill="#ed7fff" fill-rule="evenodd" stroke="none"/>
      <path d="M19.4 3.4 Q18.8 3.4 18.75 4.1 L18.75 4.85 Q18.75 6.8 21.5 6.8 22.6 6.8 22.6 6.2 20.6 3.4 19.4 3.4" fill="#da0544" fill-rule="evenodd" stroke="none"/>
      <path d="M25.35 32.95 Q16.55 31.7 9.65 26.7 2.75 21.75 -0.1 16.3 -2.95 10.8 -1.05 6.0 -8.05 12.95 1.15 24.5 3.65 27.7 5.95 29.65 8.25 31.6 12.3 34.15 16.35 36.7 22.05 37.3 28.25 38.1 33.3 35.75 38.4 33.35 43.45 27.2 34.2 34.2 25.35 32.95" fill="#ff248c" fill-rule="evenodd" stroke="none"/>
      <path d="M19.65 46.5 L21.5 46.7 21.4 46.85 20.9 46.9 Q18.75 46.95 18.85 48.3 18.9 49.4 20.1 50.15 18.3 49.1 18.3 47.9 L18.55 47.15 Q18.9 46.5 19.65 46.5" fill="#2d2c39" fill-rule="evenodd" stroke="none"/>
      <path d="M42.2 1.1 Q45.05 1.8 47.4 4.25 49.6 6.55 49.9 9.95 49.7 8.75 47.75 6.1 45.75 3.5 41.65 2.5 L34.2 2.8 Q30.85 4.15 29.05 6.35 27.25 8.5 24.3 9.15 21.3 9.8 18.65 5.65 19.85 6.8 21.15 6.8 22.45 6.8 25.0 4.45 27.5 2.05 30.3 0.95 33.05 -0.05 36.0 0.05 39.35 0.35 42.2 1.1" fill="#ff248c" fill-rule="evenodd" stroke="none"/>
      <path d="M13.3 0.6 L10.65 0.6 Q8.1 0.55 5.15 2.1 2.15 3.65 0.9 6.15 -0.35 8.6 -0.25 10.8 -0.2 12.95 0.8 16.15 1.75 19.35 3.7 21.5 L0.0 19.4 Q-1.7 18.5 -3.1 15.65 -4.55 12.8 -3.95 9.15 -3.4 5.5 -1.05 3.6 1.3 1.65 4.4 0.85 7.5 0.05 10.25 -0.05 11.8 -0.15 13.3 0.6" fill="#ff248c" fill-rule="evenodd" stroke="none"/>
      <path d="M22.95 6.25 Q22.45 6.85 21.6 6.85 L21.0 6.8" ffdec:has-small-stroke="true" ffdec:original-stroke-width="0.5" fill="none" stroke="#e01c3f" stroke-linecap="round" stroke-linejoin="round" stroke-width="1.0"/>
      <path d="M-1.4 25.5 L-2.25 25.55 -2.75 25.45 -3.3 25.1" ffdec:has-small-stroke="true" ffdec:original-stroke-width="0.5" fill="none" stroke="#e01c3f" stroke-linecap="round" stroke-linejoin="round" stroke-width="1.0"/>
      <path d="M50.5 22.75 Q50.1 23.9 48.65 24.1" ffdec:has-small-stroke="true" ffdec:original-stroke-width="0.5" fill="none" stroke="#e01c3f" stroke-linecap="round" stroke-linejoin="round" stroke-width="1.0"/>
      <path d="M31.8 40.25 Q30.7 42.4 28.65 42.9" ffdec:has-small-stroke="true" ffdec:original-stroke-width="0.5" fill="none" stroke="#e01c3f" stroke-linecap="round" stroke-linejoin="round" stroke-width="1.0"/>
      <path d="M15.8 42.5 L15.1 41.8 14.9 41.2" ffdec:has-small-stroke="true" ffdec:original-stroke-width="0.5" fill="none" stroke="#e01c3f" stroke-linecap="round" stroke-linejoin="round" stroke-width="1.0"/>
      <path d="M-2.95 25.65 Q0.8 33.5 13.65 41.45 22.75 46.75 32.55 41.45 45.45 33.5 49.2 25.65 L50.2 23.4 Q53.3 17.5 50.3 8.2 49.0 4.3 45.6 2.35 34.65 -3.85 25.15 3.8 23.8 4.9 22.9 6.3 21.9 4.9 20.55 3.8 11.1 -3.85 0.1 2.35 -3.3 4.3 -4.55 8.2 -8.25 19.35 -2.95 25.65 Z" fill="none" stroke="#880119" stroke-linecap="round" stroke-linejoin="round" stroke-width="1.0"/>
      <path d="M14.6 42.15 L14.45 41.55 16.15 42.25 Q18.4 43.2 20.8 43.6 22.85 43.85 24.9 43.65 28.0 43.3 30.85 41.95 L28.8 43.4 24.35 44.5 19.5 44.3 Q16.95 43.85 14.6 42.15" fill="#230808" fill-rule="evenodd" stroke="none"/>
      <path d="M16.2 1.5 Q17.5 1.0 20.4 3.15 22.0 4.3 22.7 5.6 L22.3 6.1 Q19.9 3.4 16.2 1.5" fill="#230808" fill-rule="evenodd" stroke="none"/>
      <path d="M51.75 15.5 Q52.35 17.75 51.8 20.0 51.25 22.2 50.6 23.1 49.65 24.1 48.7 23.9 50.0 22.7 50.75 21.2 52.05 18.5 51.75 15.5" fill="#230808" fill-rule="evenodd" stroke="none"/>
      <path d="M-3.5 25.2 Q-4.75 24.5 -5.55 20.9 L-4.35 23.0 Q-3.25 24.55 -1.5 25.45 -2.25 25.9 -3.5 25.2" fill="#230808" fill-rule="evenodd" stroke="none"/>
    </g>
    <g id="sprite9">
      <use ffdec:characterId="11" height="6.25" transform="matrix(1.0, 0.0, 0.0, 1.0, 0.0, 0.0)" width="9.3" xlink:href="#shape8"/>
    </g>
    <g id="shape8">
      <path d="M9.2 4.75 Q8.8 5.85 7.2 6.15 L3.7 5.85 Q1.85 5.2 0.75 3.9 -0.3 2.65 0.1 1.55 0.5 0.4 2.1 0.05 L5.65 0.45 Q7.5 1.1 8.55 2.3 9.6 3.6 9.2 4.75" fill="#fbe1ff" fill-rule="evenodd" stroke="none"/>
    </g>
  </defs>
</svg>
