<?xml version="1.0" encoding="UTF-8" standalone="no"?>
<svg xmlns:ffdec="https://www.free-decompiler.com/flash" xmlns:xlink="http://www.w3.org/1999/xlink" ffdec:objectType="frame" height="23.55px" width="45.2px" xmlns="http://www.w3.org/2000/svg">
  <g transform="matrix(1.0, 0.0, 0.0, 1.0, 22.0, -12.1)">
    <use ffdec:characterId="58" height="23.55" transform="matrix(1.0, 0.0, 0.0, 1.0, -22.0, 12.15)" width="45.2" xlink:href="#sprite0"/>
  </g>
  <defs>
    <g id="sprite0">
      <use ffdec:characterId="48" height="10.1" transform="matrix(1.0, 0.0, 0.0, 1.0, 7.25, 13.25)" width="14.8" xlink:href="#sprite1"/>
      <use ffdec:characterId="48" height="10.1" transform="matrix(-1.0, 0.0, 0.0, 1.0, 35.85, 13.25)" width="14.8" xlink:href="#sprite2"/>
      <use ffdec:characterId="22" height="12.85" transform="matrix(-0.9833, -0.1819, -0.1819, 0.9833, 45.2, 3.85)" width="14.0" xlink:href="#sprite3"/>
      <use ffdec:characterId="22" height="12.85" transform="matrix(0.9833, -0.1819, 0.1819, 0.9833, 0.0, 3.85)" width="14.0" xlink:href="#sprite3"/>
      <use ffdec:characterId="20" height="16.0" transform="matrix(1.0, 0.0, 0.0, 1.0, 7.7, 2.3)" width="28.7" xlink:href="#sprite5"/>
      <use ffdec:characterId="23" height="14.3" transform="matrix(1.0, 0.0, 0.0, 1.0, 11.25, 3.65)" width="21.15" xlink:href="#sprite6"/>
      <use ffdec:characterId="24" height="11.0" transform="matrix(1.0, 0.0, 0.0, 1.0, 12.0, 3.75)" width="19.75" xlink:href="#sprite7"/>
      <use ffdec:characterId="51" height="12.25" transform="matrix(1.0, 0.0, 0.0, 1.0, 25.0, 2.5)" width="11.45" xlink:href="#sprite8"/>
      <use ffdec:characterId="26" height="8.45" transform="matrix(1.0, 0.0, 0.0, 1.0, 21.15, 8.8)" width="1.45" xlink:href="#sprite10"/>
      <use ffdec:characterId="53" height="8.9" transform="matrix(1.0, 0.0, 0.0, 1.0, 6.2, 0.0)" width="31.25" xlink:href="#sprite11"/>
      <use ffdec:characterId="55" height="5.75" transform="matrix(1.0, 0.0, 0.0, 1.0, 8.65, 3.05)" width="25.45" xlink:href="#sprite12"/>
      <use ffdec:characterId="57" height="3.25" transform="matrix(1.0, 0.0, 0.0, 1.0, 13.3, 4.65)" width="7.5" xlink:href="#sprite13"/>
    </g>
    <g id="sprite1">
      <use ffdec:characterId="47" height="10.1" transform="matrix(1.0, 0.0, 0.0, 1.0, 0.0, 0.0)" width="14.8" xlink:href="#shape0"/>
    </g>
    <g id="shape0">
      <path d="M7.45 10.05 L7.5 10.05 Q5.8 10.5 5.4 9.75 4.9 9.0 6.0 7.65 L6.05 7.65 6.1 7.6 6.05 7.5 Q5.9 7.5 5.7 7.65 4.3 8.7 2.9 9.1 L2.85 9.1 Q1.05 9.55 0.6 8.8 0.3 8.35 0.55 7.75 L0.65 7.5 0.9 7.05 1.3 6.5 1.55 6.15 1.2 6.45 Q-0.75 7.15 -0.35 5.4 -0.2 4.35 0.95 2.95 2.25 1.2 4.6 0.2 L13.85 4.05 Q14.4 4.5 14.25 5.25 L13.6 6.45 Q11.45 8.65 8.0 9.9 L7.45 10.05" fill="#cc5f00" fill-rule="evenodd" stroke="none"/>
      <path d="M2.05 2.1 Q3.2 0.75 4.7 0.25 L13.75 4.05 13.6 4.5 13.1 5.1 10.65 7.2 10.65 7.25 Q4.1 5.0 2.05 2.1" fill="#cb8300" fill-rule="evenodd" stroke="none"/>
      <path d="M10.65 7.25 L9.15 8.0 6.5 7.5 6.1 7.4 6.5 6.75 6.65 6.55 Q6.55 6.0 5.9 6.45 L4.85 7.1 2.95 6.35 2.15 5.8 2.15 5.75 2.65 5.0 Q2.55 4.7 2.15 5.0 L1.65 5.35 0.6 4.3 0.6 4.25 Q1.25 2.95 2.05 2.1 4.1 5.0 10.65 7.25" fill="#ffb600" fill-rule="evenodd" stroke="none"/>
      <path d="M9.15 8.0 L7.6 8.55 5.95 8.4 Q5.75 8.05 6.1 7.4 L6.5 7.5 9.15 8.0 M4.85 7.1 L3.35 7.7 1.5 7.5 Q1.15 6.9 2.15 5.8 L2.95 6.35 4.85 7.1 M1.65 5.35 L1.4 5.5 0.7 5.55 0.5 5.4 0.4 5.25 Q0.35 4.85 0.6 4.3 L1.65 5.35" fill="#9f7100" fill-rule="evenodd" stroke="none"/>
      <path d="M7.45 10.05 L7.5 10.05 Q5.8 10.5 5.4 9.75 4.9 9.0 6.0 7.5 L5.7 7.65 Q4.3 8.7 2.9 9.1 L2.85 9.1 Q1.05 9.55 0.6 8.8 0.3 8.35 0.55 7.75 L0.65 7.5 0.9 7.05 1.3 6.5 1.55 6.15 1.2 6.45 Q-0.75 7.15 -0.35 5.4 -0.2 4.35 0.95 2.95 2.25 1.2 4.6 0.2 L13.85 4.05 Q14.4 4.5 14.25 5.25 L13.6 6.45 Q11.45 8.65 8.0 9.9 L7.45 10.05 Z" ffdec:has-small-stroke="true" ffdec:original-stroke-width="0.1" fill="none" stroke="#6a2c00" stroke-linecap="round" stroke-linejoin="round" stroke-width="1.0"/>
    </g>
    <g id="sprite2">
      <use ffdec:characterId="47" height="10.1" transform="matrix(1.0, 0.0, 0.0, 1.0, 0.0, 0.0)" width="14.8" xlink:href="#shape1"/>
    </g>
    <g id="shape1">
      <path d="M7.45 10.05 L7.5 10.05 Q5.8 10.5 5.4 9.75 4.9 9.0 6.0 7.65 L6.05 7.65 6.1 7.6 6.05 7.5 Q5.9 7.5 5.7 7.65 4.3 8.7 2.9 9.1 L2.85 9.1 Q1.05 9.55 0.6 8.8 0.3 8.35 0.55 7.75 L0.65 7.5 0.9 7.05 1.3 6.5 1.55 6.15 1.2 6.45 Q-0.75 7.15 -0.35 5.4 -0.2 4.35 0.95 2.95 2.25 1.2 4.6 0.2 L13.85 4.05 Q14.4 4.5 14.25 5.25 L13.6 6.45 Q11.45 8.65 8.0 9.9 L7.45 10.05" fill="#cc5f00" fill-rule="evenodd" stroke="none"/>
      <path d="M2.05 2.1 Q3.2 0.75 4.7 0.25 L13.75 4.05 13.6 4.5 13.1 5.1 10.65 7.2 10.65 7.25 Q4.1 5.0 2.05 2.1" fill="#cb8300" fill-rule="evenodd" stroke="none"/>
      <path d="M10.65 7.25 L9.15 8.0 6.5 7.5 6.1 7.4 6.5 6.75 6.65 6.55 Q6.55 6.0 5.9 6.45 L4.85 7.1 2.95 6.35 2.15 5.8 2.15 5.75 2.65 5.0 Q2.55 4.7 2.15 5.0 L1.65 5.35 0.6 4.3 0.6 4.25 Q1.25 2.95 2.05 2.1 4.1 5.0 10.65 7.25" fill="#ffb600" fill-rule="evenodd" stroke="none"/>
      <path d="M9.15 8.0 L7.6 8.55 5.95 8.4 Q5.75 8.05 6.1 7.4 L6.5 7.5 9.15 8.0 M4.85 7.1 L3.35 7.7 1.5 7.5 Q1.15 6.9 2.15 5.8 L2.95 6.35 4.85 7.1 M1.65 5.35 L1.4 5.5 0.7 5.55 0.5 5.4 0.4 5.25 Q0.35 4.85 0.6 4.3 L1.65 5.35" fill="#9f7100" fill-rule="evenodd" stroke="none"/>
      <path d="M7.45 10.05 L7.5 10.05 Q5.8 10.5 5.4 9.75 4.9 9.0 6.0 7.5 L5.7 7.65 Q4.3 8.7 2.9 9.1 L2.85 9.1 Q1.05 9.55 0.6 8.8 0.3 8.35 0.55 7.75 L0.65 7.5 0.9 7.05 1.3 6.5 1.55 6.15 1.2 6.45 Q-0.75 7.15 -0.35 5.4 -0.2 4.35 0.95 2.95 2.25 1.2 4.6 0.2 L13.85 4.05 Q14.4 4.5 14.25 5.25 L13.6 6.45 Q11.45 8.65 8.0 9.9 L7.45 10.05 Z" ffdec:has-small-stroke="true" ffdec:original-stroke-width="0.1" fill="none" stroke="#6a2c00" stroke-linecap="round" stroke-linejoin="round" stroke-width="1.0"/>
    </g>
    <g id="sprite3">
      <use ffdec:characterId="1" height="12.85" transform="matrix(1.0, 0.0, 0.0, 1.0, 0.0, 0.0)" width="14.0" xlink:href="#shape2"/>
      <use ffdec:characterId="21" height="6.6" transform="matrix(1.0, 0.0, 0.0, 1.0, 1.75, 1.65)" width="7.35" xlink:href="#sprite4"/>
    </g>
    <g id="shape2">
      <path d="M4.4 2.05 Q6.5 0.55 9.05 0.15 L10.2 0.05 Q11.35 0.25 12.7 1.2 14.15 3.25 14.0 4.95 13.75 6.65 11.9 7.85 5.85 8.8 1.8 12.4 L0.75 12.85 Q0.1 12.7 0.05 11.05 L0.05 9.35 Q0.15 8.45 0.4 7.5 1.45 4.15 4.4 2.05" fill="#000000" fill-rule="evenodd" stroke="none"/>
    </g>
    <g id="sprite4">
      <use ffdec:characterId="2" height="6.6" transform="matrix(1.0, 0.0, 0.0, 1.0, 0.0, 0.0)" width="7.35" xlink:href="#shape3"/>
    </g>
    <g id="shape3">
      <path d="M2.3 1.1 Q3.1 0.55 3.9 0.25 6.3 -0.45 7.15 0.85 7.75 2.55 6.4 4.5 L5.35 5.45 Q4.15 6.3 3.0 6.6 0.85 6.05 0.2 4.9 -0.35 4.2 0.6 2.8 1.2 1.85 2.3 1.1" fill="#393a5b" fill-rule="evenodd" stroke="none"/>
    </g>
    <g id="sprite5">
      <use ffdec:characterId="19" height="16.0" transform="matrix(1.0, 0.0, 0.0, 1.0, 0.0, 0.0)" width="28.7" xlink:href="#shape4"/>
    </g>
    <g id="shape4">
      <path d="M28.7 7.2 Q28.7 10.85 24.5 13.45 20.3 16.0 14.35 16.0 8.4 16.0 4.2 13.45 0.0 10.85 0.0 7.2 0.0 3.55 4.2 1.0 5.1 0.45 6.1 0.0 14.75 1.95 22.6 0.0 L24.5 1.0 Q28.7 3.55 28.7 7.2" fill="#000000" fill-rule="evenodd" stroke="none"/>
    </g>
    <g id="sprite6">
      <use ffdec:characterId="6" height="14.3" transform="matrix(1.0, 0.0, 0.0, 1.0, 0.0, 0.0)" width="21.15" xlink:href="#shape5"/>
    </g>
    <g id="shape5">
      <path d="M21.15 7.15 Q21.15 10.1 18.05 12.2 14.95 14.3 10.55 14.3 6.2 14.3 3.1 12.2 0.0 10.1 0.0 7.15 0.0 4.2 3.1 2.1 6.2 0.0 10.55 0.0 14.95 0.0 18.05 2.1 21.15 4.2 21.15 7.15" fill="#b2b4ea" fill-rule="evenodd" stroke="none"/>
    </g>
    <g id="sprite7">
      <use ffdec:characterId="8" height="11.0" transform="matrix(1.0, 0.0, 0.0, 1.0, 0.0, 0.0)" width="19.75" xlink:href="#shape6"/>
    </g>
    <g id="shape6">
      <path d="M19.75 5.5 Q19.75 7.75 16.85 9.4 13.95 11.0 9.85 11.0 5.8 11.0 2.9 9.4 0.0 7.75 0.0 5.5 0.0 3.2 2.9 1.6 5.8 0.0 9.85 0.0 13.95 0.0 16.85 1.6 19.75 3.2 19.75 5.5" fill="#ffffff" fill-rule="evenodd" stroke="none"/>
    </g>
    <g id="sprite8">
      <use ffdec:characterId="50" height="10.85" transform="matrix(0.9871, -0.1602, 0.1602, 0.9871, 0.0, 1.55)" width="9.85" xlink:href="#sprite9"/>
    </g>
    <g id="sprite9">
      <use ffdec:characterId="49" height="10.85" transform="matrix(1.0, 0.0, 0.0, 1.0, 0.0, 0.0)" width="9.85" xlink:href="#shape7"/>
    </g>
    <g id="shape7">
      <path d="M0.95 8.25 L0.9 7.8 0.55 5.6 Q0.0 4.3 0.0 3.5 -0.05 2.15 0.65 1.25 L1.65 0.4 Q2.45 -0.05 3.45 0.0 4.4 0.0 5.15 0.5 6.05 1.1 6.9 2.5 L8.25 5.0 8.2 5.0 8.95 5.8 9.0 5.9 Q9.7 7.1 8.65 8.05 7.6 8.95 5.7 10.05 4.5 10.75 3.55 10.75 L2.45 10.55 Q1.1 9.95 0.95 8.25" fill="#7b0233" fill-rule="evenodd" stroke="none"/>
      <path d="M0.95 8.25 L0.9 7.8 0.55 5.6 Q0.0 4.3 0.0 3.5 -0.05 2.15 0.65 1.25 L1.65 0.4 Q2.45 -0.05 3.45 0.0 4.4 0.0 5.15 0.5 6.05 1.1 6.9 2.5 L8.25 5.0 8.2 5.0 8.95 5.8 9.0 5.9 Q9.7 7.1 8.65 8.05 7.6 8.95 5.7 10.05 4.5 10.75 3.55 10.75 L2.45 10.55 Q1.1 9.95 0.95 8.25 Z" ffdec:has-small-stroke="true" ffdec:original-stroke-width="0.1" fill="none" stroke="#4c0024" stroke-linecap="round" stroke-linejoin="round" stroke-width="1.0000160596476755"/>
      <path d="M3.5 7.25 L4.0 6.95 6.05 5.95 7.15 5.4 7.15 5.35 Q7.65 4.95 8.25 4.95 8.85 4.95 9.3 5.35 L9.75 6.45 Q9.75 7.05 9.3 7.5 L9.2 7.6 9.1 7.8 8.85 8.0 7.6 8.95 7.15 9.2 6.9 9.35 5.5 10.15 5.35 10.25 Q4.25 10.85 3.7 10.75 L4.25 10.2 4.55 8.95 4.25 7.7 Q3.95 7.2 3.6 7.2 L3.5 7.25" fill="#d5002e" fill-rule="evenodd" stroke="none"/>
      <path d="M3.7 10.75 L3.6 10.75 Q3.2 10.75 2.9 10.2 2.65 9.7 2.65 8.95 2.65 8.25 2.9 7.7 L3.5 7.25 3.6 7.2 Q3.95 7.2 4.25 7.7 L4.55 8.95 4.25 10.2 3.7 10.75" fill="#7b0233" fill-rule="evenodd" stroke="none"/>
      <path d="M3.5 7.25 L4.0 6.95 6.05 5.95 7.15 5.4 7.15 5.35 Q7.65 4.95 8.25 4.95 8.85 4.95 9.3 5.35 L9.75 6.45 Q9.75 7.05 9.3 7.5 L9.2 7.6 9.1 7.8 8.85 8.0 7.6 8.95 7.15 9.2 6.9 9.35 5.5 10.15 5.35 10.25 Q4.25 10.85 3.7 10.75" ffdec:has-small-stroke="true" ffdec:original-stroke-width="0.1" fill="none" stroke="#660030" stroke-linecap="round" stroke-linejoin="round" stroke-width="1.0000160596476755"/>
    </g>
    <g id="sprite10">
      <use ffdec:characterId="25" height="8.45" transform="matrix(1.0, 0.0, 0.0, 1.0, 0.0, 0.0)" width="1.45" xlink:href="#shape8"/>
    </g>
    <g id="shape8">
      <path d="M0.55 6.0 L0.0 0.0 1.45 0.0 0.95 6.0 0.55 6.0" fill="#bbbfff" fill-rule="evenodd" stroke="none"/>
      <path d="M0.55 6.0 L0.95 6.0 0.75 7.9 0.75 8.2 0.7 8.45 0.7 7.9 0.55 6.0" fill="#6c72dd" fill-rule="evenodd" stroke="none"/>
    </g>
    <g id="sprite11">
      <use ffdec:characterId="52" height="8.9" transform="matrix(1.0, 0.0, 0.0, 1.0, 0.0, 0.0)" width="31.25" xlink:href="#shape9"/>
    </g>
    <g id="shape9">
      <path d="M3.3 6.75 Q1.15 5.7 0.4 4.35 -0.1 3.45 0.0 2.45 0.05 1.5 0.65 0.9 L0.75 0.75 Q1.7 -0.2 3.45 0.1 L3.8 0.15 6.85 1.25 11.0 2.0 15.4 2.35 15.45 2.35 15.6 2.35 15.65 2.35 20.15 2.0 24.3 1.25 26.95 0.3 27.35 0.15 Q29.35 -0.3 30.4 0.75 L30.55 0.9 Q31.1 1.5 31.15 2.45 31.25 3.45 30.75 4.35 30.0 5.7 27.85 6.75 L26.95 7.15 23.65 8.05 19.3 8.55 15.75 8.8 15.4 8.8 11.85 8.55 7.5 8.05 Q5.2 7.6 3.45 6.85 L3.3 6.75" fill="#7f001b" fill-rule="evenodd" stroke="none"/>
      <path d="M3.3 6.75 Q1.15 5.7 0.4 4.35 -0.1 3.45 0.0 2.45 0.05 1.5 0.65 0.9 L0.75 0.75 Q1.7 -0.2 3.45 0.1 L3.8 0.15 6.85 1.25 11.0 2.0 15.4 2.35 15.45 2.35 15.6 2.35 15.65 2.35 20.15 2.0 24.3 1.25 26.95 0.3 27.35 0.15 Q29.35 -0.3 30.4 0.75 L30.55 0.9 Q31.1 1.5 31.15 2.45 31.25 3.45 30.75 4.35 30.0 5.7 27.85 6.75 L26.95 7.15 23.65 8.05 19.3 8.55 15.75 8.8 15.4 8.8 11.85 8.55 7.5 8.05 Q5.2 7.6 3.45 6.85 L3.3 6.75 Z" ffdec:has-small-stroke="true" ffdec:original-stroke-width="0.1" fill="none" stroke="#5b002a" stroke-linecap="round" stroke-linejoin="round" stroke-width="1.0"/>
    </g>
    <g id="sprite12">
      <use ffdec:characterId="54" height="5.75" transform="matrix(1.0, 0.0, 0.0, 1.0, 0.0, 0.0)" width="25.45" xlink:href="#shape10"/>
    </g>
    <g id="shape10">
      <path d="M24.5 4.1 L21.2 5.0 16.85 5.5 13.3 5.75 12.95 5.75 9.4 5.5 5.05 5.0 1.0 3.8 Q-1.0 1.4 1.0 0.0 L5.05 1.2 9.4 1.7 12.95 1.95 13.3 1.95 16.85 1.7 21.2 1.2 24.5 0.3 Q26.4 1.5 24.5 4.1" fill="#d80533" fill-rule="evenodd" stroke="none"/>
    </g>
    <g id="sprite13">
      <use ffdec:characterId="56" height="3.25" transform="matrix(1.0, 0.0, 0.0, 1.0, 0.0, 0.0)" width="7.5" xlink:href="#shape11"/>
    </g>
    <g id="shape11">
      <path d="M7.5 1.85 Q7.5 2.5 6.4 2.9 L3.75 3.2 Q2.2 3.1 1.1 2.55 0.0 2.0 0.0 1.35 0.0 0.7 1.1 0.3 L3.75 0.0 Q5.3 0.15 6.4 0.65 7.5 1.2 7.5 1.85" fill="#ff335f" fill-rule="evenodd" stroke="none"/>
    </g>
  </defs>
</svg>
