<?xml version="1.0" encoding="UTF-8" standalone="no"?>
<svg xmlns:ffdec="https://www.free-decompiler.com/flash" xmlns:xlink="http://www.w3.org/1999/xlink" ffdec:objectType="frame" height="15.45px" width="30.3px" xmlns="http://www.w3.org/2000/svg">
  <g transform="matrix(1.0, 0.0, 0.0, 1.0, 14.95, -14.8)">
    <use ffdec:characterId="4" height="8.6" transform="matrix(1.0, 0.0, 0.0, 1.0, -10.6, 23.1)" width="8.55" xlink:href="#sprite0"/>
    <use ffdec:characterId="6" height="6.45" transform="matrix(1.0, 0.0, 0.0, 1.0, -5.8, 18.7)" width="8.65" xlink:href="#sprite1"/>
    <use ffdec:characterId="4" height="8.6" transform="matrix(-1.0, 0.0, 0.0, 1.0, 11.0, 22.9)" width="8.55" xlink:href="#sprite0"/>
    <use ffdec:characterId="6" height="6.45" transform="matrix(-1.0, 0.0, 0.0, 1.0, 6.2, 18.4)" width="8.65" xlink:href="#sprite1"/>
    <use ffdec:characterId="16" height="4.6" transform="matrix(-0.9969, 0.0781, 0.0864, 1.103, 2.6, 24.95)" width="3.8" xlink:href="#sprite2"/>
    <use ffdec:characterId="8" height="9.55" transform="matrix(1.0, 0.0, 0.0, 1.0, 0.05, 19.45)" width="8.9" xlink:href="#sprite3"/>
    <use ffdec:characterId="16" height="4.6" transform="matrix(0.9969, 0.0781, -0.0846, 1.08, -3.0, 25.0)" width="3.8" xlink:href="#sprite2"/>
    <use ffdec:characterId="10" height="4.0" transform="matrix(1.0, 0.0, 0.0, 1.0, -6.25, 28.15)" width="9.35" xlink:href="#sprite4"/>
    <use ffdec:characterId="10" height="4.0" transform="matrix(-1.0, 0.0, 0.0, 1.0, 5.95, 28.15)" width="9.35" xlink:href="#sprite4"/>
  </g>
  <defs>
    <g id="sprite0">
      <use ffdec:characterId="3" height="8.6" transform="matrix(1.0, 0.0, 0.0, 1.0, 0.0, 0.0)" width="8.55" xlink:href="#shape0"/>
    </g>
    <g id="shape0">
      <path d="M-2.2 -1.15 L-2.25 -1.1 -2.15 -0.45 -2.0 0.3 -1.95 0.3 Q-1.2 0.15 -0.55 -0.5 L0.15 -1.3 -2.2 -1.15 M-2.65 2.6 L-4.05 1.2 Q-4.05 0.4 -3.5 -1.3 -3.0 -3.0 -0.1 -4.1 L0.55 -3.35 Q1.65 -2.05 1.7 -0.45 L0.9 0.0 -0.35 0.6 -0.7 0.85 -0.6 1.3 0.4 2.4 -2.65 2.6" fill="#fcf4de" fill-rule="evenodd" stroke="none"/>
      <path d="M-2.2 -1.15 L0.15 -1.3 -0.55 -0.5 Q-1.2 0.15 -1.95 0.3 L-2.0 0.3 -2.15 -0.45 -2.25 -1.1 -2.2 -1.15 M-2.65 2.6 L0.4 2.4 -0.6 1.3 -0.7 0.85 -0.35 0.6 0.9 0.0 1.7 -0.45 Q1.65 -2.05 0.55 -3.35 L-0.1 -4.1 Q3.85 -4.1 4.05 -1.75 4.25 0.55 3.05 1.7 L0.75 4.1 Q-1.2 3.75 -2.65 2.6" fill="#7b725f" fill-rule="evenodd" stroke="none"/>
      <path d="M1.85 -0.6 Q1.45 -2.4 0.3 -3.9 L-0.5 -3.9 0.0 -4.25 1.85 -3.95 0.5 -3.9 1.05 -2.95 Q1.95 -1.55 2.3 0.0 L3.3 0.3 4.15 -1.0 4.15 -1.5 4.2 -0.8 Q4.3 1.45 2.15 2.75 L1.9 3.65 Q1.2 4.2 0.3 4.35 L-0.9 3.9 Q-3.15 3.0 -4.35 0.8 -4.1 0.4 -4.0 -0.3 -3.9 -1.0 -3.25 -2.0 -2.6 -3.0 -1.0 -3.75 L-2.95 -1.95 -1.05 -1.3 Q-0.5 -1.05 -0.25 -1.3 L0.5 -1.6 -0.9 -0.2 2.0 0.05 1.85 -0.6 M3.9 0.35 L2.05 0.8 2.1 2.45 3.55 1.15 3.9 0.35 M-3.1 -1.7 Q-3.6 -1.25 -3.45 -0.65 L-1.6 0.1 -1.6 0.05 -0.6 -0.85 -3.1 -1.7 M1.7 2.7 L1.65 0.6 1.25 0.35 0.4 1.5 -0.4 1.55 -1.65 0.6 -3.8 1.1 Q-1.85 3.35 0.5 4.1 1.6 3.55 1.7 2.7 M-1.75 0.35 L-3.6 -0.4 -3.7 0.75 -1.75 0.35 M-1.05 0.05 L-1.45 0.35 -0.2 1.2 0.7 0.65 -1.05 0.05" fill="#000000" fill-rule="evenodd" stroke="none"/>
    </g>
    <g id="sprite1">
      <use ffdec:characterId="5" height="6.45" transform="matrix(1.0, 0.0, 0.0, 1.0, 0.0, 0.0)" width="8.65" xlink:href="#shape1"/>
    </g>
    <g id="shape1">
      <path d="M1.3 -2.8 L2.55 -1.5 -1.35 1.85 -2.95 0.75 -2.25 0.15 Q-0.3 -0.35 -1.15 -1.05 L1.3 -2.8 M-2.75 -0.25 L-4.25 -0.85 -3.5 -1.65 -3.3 -2.0 -3.0 -2.25 -1.95 -1.4 -2.4 -0.8 -2.75 -0.25" fill="#fcf4de" fill-rule="evenodd" stroke="none"/>
      <path d="M1.3 -2.8 L2.0 -3.3 3.55 -2.4 3.6 -2.4 4.1 -2.1 3.25 -1.1 1.55 1.0 Q0.5 2.3 -0.95 3.0 -0.85 2.55 -1.35 1.85 L2.55 -1.5 1.3 -2.8 M-2.25 0.15 L-2.75 -0.25 -2.4 -0.8 -1.95 -1.4 -1.3 -1.15 -1.15 -1.05 Q-0.3 -0.35 -2.25 0.15" fill="#7b725f" fill-rule="evenodd" stroke="none"/>
      <path d="M-1.85 1.25 L-0.6 2.75 0.25 2.0 -1.0 1.15 -1.85 1.25 M-3.05 -2.2 L-4.1 -0.95 -2.1 -0.05 -1.15 -0.35 -3.05 -2.2 M0.55 0.3 L0.7 1.9 1.15 1.0 1.8 0.55 0.55 0.3 M0.45 1.75 L0.4 0.35 -0.85 -0.2 -1.1 0.15 -2.2 0.25 -2.85 0.6 -2.6 1.1 -1.6 1.0 Q-0.4 0.9 0.45 1.75 M2.55 -0.4 L3.35 -1.45 3.8 -2.15 3.85 -2.15 3.9 -1.4 Q2.25 0.15 0.85 2.0 L0.4 2.1 -0.15 2.85 -0.85 3.15 -1.3 2.2 -1.95 1.25 -2.7 1.3 -3.1 0.6 -2.45 0.1 -3.25 -0.3 -4.55 -0.8 -3.1 -2.55 -1.3 -0.95 Q-1.4 -1.15 -0.55 -1.6 L1.85 -3.2 2.25 -1.55 2.55 -0.4 M1.7 -2.9 L0.2 -1.9 2.35 -0.35 1.7 -2.9 M2.3 -0.15 L0.1 -1.75 -1.05 -0.95 0.5 0.2 1.2 0.35 1.9 0.3 2.3 -0.15" fill="#000000" fill-rule="evenodd" stroke="none"/>
    </g>
    <g id="sprite2">
      <use ffdec:characterId="15" height="4.6" transform="matrix(1.0, 0.0, 0.0, 1.0, 0.0, 0.0)" width="3.8" xlink:href="#shape2"/>
    </g>
    <g id="shape2">
      <path d="M0.1 1.95 Q-0.9 1.55 -1.7 0.85 -1.9 -0.15 -1.05 -1.35 L0.35 -0.75 0.3 -0.55 Q-0.1 0.8 0.1 1.95" fill="#fcf4de" fill-rule="evenodd" stroke="none"/>
      <path d="M-1.05 -1.35 L-0.5 -2.05 1.85 -1.15 1.9 -0.2 Q1.75 1.1 0.65 2.15 L0.1 1.95 Q-0.1 0.8 0.3 -0.55 L0.35 -0.75 -1.05 -1.35" fill="#7b725f" fill-rule="evenodd" stroke="none"/>
      <path d="M-1.45 0.0 L-0.85 0.25 0.55 -0.05 -1.2 -1.15 -1.45 0.0 M-0.35 -2.35 L-1.1 -1.25 1.0 -0.25 1.5 -0.4 1.95 -1.05 Q2.25 0.9 0.9 2.25 L0.25 2.05 Q-0.85 1.65 -1.8 0.9 L0.65 1.95 Q1.75 1.0 1.75 -0.25 -0.05 0.6 -1.45 0.45 L-1.8 0.9 -1.65 -0.25 Q-1.4 -1.55 -0.35 -2.35" fill="#000000" fill-rule="evenodd" stroke="none"/>
    </g>
    <g id="sprite3">
      <use ffdec:characterId="7" height="9.55" transform="matrix(1.0, 0.0, 0.0, 1.0, 0.0, 0.0)" width="8.9" xlink:href="#shape3"/>
    </g>
    <g id="shape3">
      <path d="M2.85 -4.55 L2.85 -2.3 -2.1 -3.1 -1.85 -4.45 2.85 -4.55 M2.3 1.95 Q1.6 3.1 -0.05 3.3 -1.4 3.15 -2.4 2.15 L-2.5 0.5 Q-0.15 1.45 2.2 1.9 L2.3 1.95 M2.8 -1.5 L2.65 0.7 -1.05 0.0 2.8 -1.5 M-2.25 -2.35 L2.15 -1.75 -2.4 -0.95 -2.25 -2.35" fill="#fcf4de" fill-rule="evenodd" stroke="none"/>
      <path d="M-1.85 -4.45 L-2.1 -3.1 2.85 -2.3 2.85 -4.55 3.35 -4.55 3.7 -4.55 4.1 -4.1 3.55 -3.0 3.6 -1.05 3.35 2.05 Q3.05 3.95 -0.35 4.7 -2.0 4.05 -3.3 2.9 L-3.25 1.9 -2.9 -3.0 -3.75 -3.8 Q-3.75 -4.05 -3.15 -4.3 L-2.8 -4.4 -2.8 -4.45 -1.85 -4.45 M2.3 1.95 L2.2 1.9 Q-0.15 1.45 -2.5 0.5 L-2.4 2.15 Q-1.4 3.15 -0.05 3.3 1.6 3.1 2.3 1.95 M2.8 -1.5 L-1.05 0.0 2.65 0.7 2.8 -1.5 M-2.25 -2.35 L-2.4 -0.95 2.15 -1.75 -2.25 -2.35" fill="#7b725f" fill-rule="evenodd" stroke="none"/>
      <path d="M3.2 -1.9 Q0.2 -0.55 -1.7 -0.2 L-0.35 0.35 0.6 0.55 -2.75 0.05 -3.15 1.65 Q-1.8 2.8 -0.2 2.8 1.4 2.8 2.6 2.15 L3.45 1.25 2.95 1.05 1.0 0.55 3.1 0.75 3.65 -0.35 3.2 -1.9 M3.05 -2.2 L-2.65 -2.45 -2.9 -0.2 0.55 -1.1 Q2.55 -1.7 3.05 -2.2 M3.7 -2.25 L3.9 0.0 3.8 0.9 3.8 0.85 3.75 1.0 3.6 1.3 3.55 1.6 3.2 3.1 3.1 2.25 -1.4 4.0 Q-1.05 4.55 -0.25 4.55 0.5 4.55 3.2 3.0 0.65 4.9 -0.5 4.9 L-3.7 3.05 -3.25 0.25 Q-2.9 -1.9 -3.05 -2.75 L-4.35 -4.05 -3.0 -4.6 -3.3 -4.3 -3.9 -3.85 -3.15 -3.3 -2.75 -2.75 0.65 -2.4 Q3.0 -2.25 3.35 -2.75 L3.8 -4.15 Q3.9 -5.05 4.55 -4.25 3.6 -3.3 3.7 -2.25 M-3.35 3.0 L-1.7 3.75 -0.6 3.05 -3.35 3.0" fill="#000000" fill-rule="evenodd" stroke="none"/>
    </g>
    <g id="sprite4">
      <use ffdec:characterId="9" height="4.0" transform="matrix(1.0, 0.0, 0.0, 1.0, 0.0, 0.0)" width="9.35" xlink:href="#shape4"/>
    </g>
    <g id="shape4">
      <path d="M-4.3 0.7 Q-3.55 -1.25 0.05 -1.75 L0.15 -1.75 2.25 -1.6 2.3 -1.5 Q1.85 0.45 -0.1 0.6 L-3.95 0.6 -4.3 0.7" fill="#fcf4de" fill-rule="evenodd" stroke="none"/>
      <path d="M-4.3 0.7 L-3.95 0.6 -0.1 0.6 Q1.85 0.45 2.3 -1.5 L2.25 -1.6 3.85 -0.7 4.05 -0.1 4.2 1.15 1.9 1.4 0.55 1.95 -4.5 1.35 -4.3 0.7" fill="#7b725f" fill-rule="evenodd" stroke="none"/>
      <path d="M-2.25 -1.2 L-1.3 0.15 -0.7 1.7 1.7 1.6 Q1.35 0.0 0.05 -1.05 L-0.7 -1.7 -2.25 -1.2 M-0.55 -1.8 L-0.35 -1.85 Q2.25 -2.1 4.25 -0.6 L4.4 1.4 2.2 1.55 1.85 2.0 -0.95 2.1 -1.3 1.8 -3.65 1.75 Q-5.15 1.75 -4.9 1.1 -3.9 -0.55 -3.0 -0.8 -2.85 -1.55 -0.8 -1.8 L-0.55 -1.8 M-1.0 1.5 L-1.8 0.1 -2.45 -0.8 -4.0 0.4 Q-5.5 1.45 -1.0 1.5 M4.15 0.95 L3.7 -0.4 Q2.1 -2.05 -0.1 -1.7 L1.3 -0.45 Q1.85 0.35 2.0 1.3 L4.15 0.95" fill="#000000" fill-rule="evenodd" stroke="none"/>
    </g>
  </defs>
</svg>
