<?xml version="1.0" encoding="UTF-8" standalone="no"?>
<svg xmlns:ffdec="https://www.free-decompiler.com/flash" xmlns:xlink="http://www.w3.org/1999/xlink" ffdec:objectType="frame" height="97.9px" width="96.8px" xmlns="http://www.w3.org/2000/svg">
  <g transform="matrix(1.0, 0.0, 0.0, 1.0, 13.15, 63.3)">
    <use ffdec:characterId="45" height="8.55" transform="matrix(0.8046, 0.0, 0.0, 0.8046, -9.35, 23.4)" width="10.0" xlink:href="#sprite0"/>
    <use ffdec:characterId="45" height="8.55" transform="matrix(-0.8046, 0.0, 0.0, 0.8046, 9.35, 23.4)" width="10.0" xlink:href="#sprite1"/>
    <use ffdec:characterId="2" height="8.5" transform="matrix(-0.8172, 0.0368, 0.0725, 1.0494, 10.75, 14.9)" width="11.05" xlink:href="#sprite2"/>
    <use ffdec:characterId="2" height="8.5" transform="matrix(1.0, 0.0, 0.0, 1.0, -13.15, 15.95)" width="11.05" xlink:href="#sprite2"/>
    <use ffdec:characterId="48" height="10.1" transform="matrix(1.0, 0.0, 0.0, 1.0, -6.25, 16.6)" width="13.05" xlink:href="#sprite3"/>
    <use ffdec:characterId="8" height="59.05" transform="matrix(0.7193, 0.4842, -0.4842, 0.7193, 31.0, -72.95)" width="77.55" xlink:href="#sprite4"/>
    <use ffdec:characterId="21" height="33.9" transform="matrix(1.4386, 0.9684, -0.9684, 1.4386, 41.45, -29.6)" width="3.75" xlink:href="#sprite5"/>
    <use ffdec:characterId="12" height="12.25" transform="matrix(0.7193, 0.4842, -0.4842, 0.7193, 10.2, 19.2)" width="14.4" xlink:href="#sprite6"/>
    <use ffdec:characterId="50" height="7.85" transform="matrix(1.0978, 0.0, 0.0, 1.0978, -8.55, 13.85)" width="15.3" xlink:href="#sprite7"/>
    <use ffdec:characterId="25" height="2.6" transform="matrix(-0.8566, -0.7448, -0.7448, 0.8566, 14.2, 21.25)" width="3.85" xlink:href="#sprite8"/>
  </g>
  <defs>
    <g id="sprite0">
      <use ffdec:characterId="44" height="8.55" transform="matrix(1.0, 0.0, 0.0, 1.0, 0.0, 0.0)" width="10.0" xlink:href="#shape0"/>
    </g>
    <g id="shape0">
      <path d="M9.5 1.6 L9.35 3.4 9.4 4.75 9.45 6.05 Q9.45 6.55 8.65 7.5 7.85 8.45 5.15 8.95 L3.6 8.95 Q2.0 8.85 0.95 8.35 -0.15 7.8 -0.2 6.15 -0.35 4.5 2.4 3.9 5.15 3.3 5.4 2.5 L5.55 1.35 Q5.7 0.55 7.6 0.75 9.5 0.95 9.5 1.6" fill="#ffcc00" fill-rule="evenodd" stroke="none"/>
      <path d="M9.5 1.6 L9.35 3.4 9.4 4.75 9.45 6.05 Q9.45 6.55 8.65 7.5 7.85 8.45 5.15 8.95 L3.6 8.95 Q2.0 8.85 0.95 8.35 -0.15 7.8 -0.2 6.15 -0.35 4.5 2.4 3.9 5.15 3.3 5.4 2.5 L5.55 1.35 Q5.7 0.55 7.6 0.75 9.5 0.95 9.5 1.6 Z" ffdec:has-small-stroke="true" ffdec:original-stroke-width="0.3" fill="none" stroke="#302c00" stroke-linecap="round" stroke-linejoin="round" stroke-width="1.2428598520766168"/>
      <path d="M6.6 3.6 L6.15 4.15 6.0 4.35 4.2 4.25 3.8 4.0 Q5.35 3.65 5.6 2.75 5.8 1.8 6.2 1.85 L6.8 2.45 Q7.0 3.05 6.6 3.6" fill="#ffba00" fill-rule="evenodd" stroke="none"/>
      <path d="M8.7 5.2 L8.75 6.55 8.7 7.05 Q6.4 8.6 3.5 8.6 1.75 8.4 0.45 7.5 L0.4 5.4 Q1.1 5.5 1.5 5.95 1.9 6.6 2.9 6.55 5.1 6.95 7.2 5.85 L8.7 5.2" fill="#ffb700" fill-rule="evenodd" stroke="none"/>
      <path d="M7.8 5.65 L7.8 7.6 Q7.0 8.2 5.3 8.35 L5.3 6.4 7.8 5.65" fill="#ff9100" fill-rule="evenodd" stroke="none"/>
      <path d="M5.5 5.45 Q6.9 4.5 6.75 3.35 L8.7 3.35 Q9.2 5.1 8.25 5.35 5.65 6.85 2.1 6.35 4.1 6.35 5.5 5.45" fill="#ffffff" fill-rule="evenodd" stroke="none"/>
      <path d="M0.5 5.8 Q3.4 7.75 8.6 5.3" ffdec:has-small-stroke="true" ffdec:original-stroke-width="1.0" fill="none" stroke="#ffffff" stroke-linecap="round" stroke-linejoin="round" stroke-width="1.2428598520766168"/>
      <path d="M6.75 2.75 Q6.65 5.15 4.2 5.5" ffdec:has-small-stroke="true" ffdec:original-stroke-width="0.3" fill="none" stroke="#ff9e00" stroke-linecap="round" stroke-linejoin="round" stroke-width="1.2428598520766168"/>
    </g>
    <g id="sprite1">
      <use ffdec:characterId="44" height="8.55" transform="matrix(1.0, 0.0, 0.0, 1.0, 0.0, 0.0)" width="10.0" xlink:href="#shape1"/>
    </g>
    <g id="shape1">
      <path d="M9.5 1.6 L9.35 3.4 9.4 4.75 9.45 6.05 Q9.45 6.55 8.65 7.5 7.85 8.45 5.15 8.95 L3.6 8.95 Q2.0 8.85 0.95 8.35 -0.15 7.8 -0.2 6.15 -0.35 4.5 2.4 3.9 5.15 3.3 5.4 2.5 L5.55 1.35 Q5.7 0.55 7.6 0.75 9.5 0.95 9.5 1.6" fill="#ffcc00" fill-rule="evenodd" stroke="none"/>
      <path d="M9.5 1.6 L9.35 3.4 9.4 4.75 9.45 6.05 Q9.45 6.55 8.65 7.5 7.85 8.45 5.15 8.95 L3.6 8.95 Q2.0 8.85 0.95 8.35 -0.15 7.8 -0.2 6.15 -0.35 4.5 2.4 3.9 5.15 3.3 5.4 2.5 L5.55 1.35 Q5.7 0.55 7.6 0.75 9.5 0.95 9.5 1.6 Z" ffdec:has-small-stroke="true" ffdec:original-stroke-width="0.3" fill="none" stroke="#302c00" stroke-linecap="round" stroke-linejoin="round" stroke-width="1.2428598520766168"/>
      <path d="M6.6 3.6 L6.15 4.15 6.0 4.35 4.2 4.25 3.8 4.0 Q5.35 3.65 5.6 2.75 5.8 1.8 6.2 1.85 L6.8 2.45 Q7.0 3.05 6.6 3.6" fill="#ffba00" fill-rule="evenodd" stroke="none"/>
      <path d="M8.7 5.2 L8.75 6.55 8.7 7.05 Q6.4 8.6 3.5 8.6 1.75 8.4 0.45 7.5 L0.4 5.4 Q1.1 5.5 1.5 5.95 1.9 6.6 2.9 6.55 5.1 6.95 7.2 5.85 L8.7 5.2" fill="#ffb700" fill-rule="evenodd" stroke="none"/>
      <path d="M7.8 5.65 L7.8 7.6 Q7.0 8.2 5.3 8.35 L5.3 6.4 7.8 5.65" fill="#ff9100" fill-rule="evenodd" stroke="none"/>
      <path d="M5.5 5.45 Q6.9 4.5 6.75 3.35 L8.7 3.35 Q9.2 5.1 8.25 5.35 5.65 6.85 2.1 6.35 4.1 6.35 5.5 5.45" fill="#ffffff" fill-rule="evenodd" stroke="none"/>
      <path d="M0.5 5.8 Q3.4 7.75 8.6 5.3" ffdec:has-small-stroke="true" ffdec:original-stroke-width="1.0" fill="none" stroke="#ffffff" stroke-linecap="round" stroke-linejoin="round" stroke-width="1.2428598520766168"/>
      <path d="M6.75 2.75 Q6.65 5.15 4.2 5.5" ffdec:has-small-stroke="true" ffdec:original-stroke-width="0.3" fill="none" stroke="#ff9e00" stroke-linecap="round" stroke-linejoin="round" stroke-width="1.2428598520766168"/>
    </g>
    <g id="sprite2">
      <use ffdec:characterId="1" height="8.5" transform="matrix(1.0, 0.0, 0.0, 1.0, 0.0, 0.0)" width="11.05" xlink:href="#shape2"/>
    </g>
    <g id="shape2">
      <path d="M11.05 0.8 L11.05 1.0 Q10.4 3.25 8.6 5.0 L8.6 4.95 Q8.0 5.55 7.65 6.4 L7.6 6.4 Q7.25 7.05 7.2 7.45 L7.1 7.65 Q5.35 9.0 3.35 8.15 1.4 7.25 1.1 6.85 L0.15 5.5 0.1 5.4 Q-0.25 4.1 0.45 3.35 1.05 2.6 2.65 2.35 4.8 1.1 7.25 0.55 L9.7 0.0 9.8 0.0 9.9 0.05 10.9 0.65 11.05 0.8 M9.75 0.65 L7.35 1.15 Q4.95 1.7 2.85 2.9 L2.75 2.95 Q1.4 3.15 0.9 3.75 0.45 4.3 0.7 5.2 L1.6 6.5 Q1.9 6.85 3.6 7.6 5.2 8.3 6.65 7.25 6.7 6.8 7.1 6.1 L7.1 6.15 Q7.5 5.25 8.2 4.55 9.8 3.0 10.4 1.05 L9.75 0.65" fill="#000000" fill-rule="evenodd" stroke="none"/>
      <path d="M9.75 0.65 L10.4 1.05 Q9.8 3.0 8.2 4.55 7.5 5.25 7.1 6.15 L7.1 6.1 Q6.7 6.8 6.65 7.25 5.2 8.3 3.6 7.6 1.9 6.85 1.6 6.5 L0.7 5.2 Q0.45 4.3 0.9 3.75 1.4 3.15 2.75 2.95 L2.85 2.9 Q4.95 1.7 7.35 1.15 L9.75 0.65" fill="#ffb400" fill-rule="evenodd" stroke="none"/>
      <path d="M4.6 3.4 Q3.7 4.65 3.25 5.9 L2.15 4.9 1.65 4.35 Q2.6 3.7 3.6 3.35 L4.25 3.15 4.6 3.4" fill="#ffffff" fill-rule="evenodd" stroke="none"/>
    </g>
    <g id="sprite3">
      <use ffdec:characterId="47" height="10.1" transform="matrix(1.0, 0.0, 0.0, 1.0, 0.0, 0.0)" width="13.05" xlink:href="#shape3"/>
    </g>
    <g id="shape3">
      <path d="M2.55 1.1 L3.05 0.45 3.45 0.2 Q6.05 1.2 8.55 0.2 L9.7 0.0 Q10.55 0.55 11.3 3.55 12.05 6.55 12.7 8.05 9.5 9.75 5.55 9.85 3.05 9.4 0.2 8.25 1.0 5.0 1.7 3.4 L2.5 1.55 2.55 1.1" fill="#ffb400" fill-rule="evenodd" stroke="none"/>
      <path d="M5.35 1.0 L7.15 1.0 7.15 9.7 5.35 9.7 5.35 1.0" fill="#ea6912" fill-rule="evenodd" stroke="none"/>
      <path d="M11.4 4.8 Q10.7 3.35 10.85 1.95 L11.45 3.7 Q12.6 5.95 13.05 8.2 L11.0 9.35 Q9.85 9.95 6.8 10.1 L6.5 10.1 6.25 10.1 Q3.2 9.95 2.05 9.35 L0.0 8.2 Q0.45 5.95 1.6 3.7 L2.2 1.95 Q2.35 3.35 1.65 4.8 L0.55 8.0 Q2.95 9.1 5.45 9.45 L6.55 9.55 7.6 9.45 Q10.1 9.1 12.5 8.0 L11.4 4.8" fill="#000000" fill-rule="evenodd" stroke="none"/>
      <path d="M2.6 4.0 Q1.95 7.05 3.9 8.35 L3.25 8.4 Q2.15 8.2 1.1 7.65 L2.6 4.0" fill="#ffffff" fill-rule="evenodd" stroke="none"/>
      <path d="M10.8 4.15 L12.2 7.7 10.6 8.3 10.8 4.15" fill="#ffffff" fill-rule="evenodd" stroke="none"/>
    </g>
    <g id="sprite4">
      <use ffdec:characterId="7" height="59.05" transform="matrix(1.0, 0.0, 0.0, 1.0, 0.0, 0.0)" width="77.55" xlink:href="#shape4"/>
    </g>
    <g id="shape4">
      <path d="M40.85 11.65 Q49.35 11.25 59.1 15.55 64.0 17.6 70.65 22.5 76.9 27.1 79.9 32.75 L79.65 32.5 79.9 32.85 79.25 33.8 77.85 36.15 76.9 37.65 76.7 38.1 76.3 38.8 75.8 40.35 75.9 43.8 76.1 45.65 76.5 47.0 76.9 48.45 77.85 52.5 Q77.0 53.75 75.6 54.35 L72.0 56.2 Q67.2 58.75 64.75 63.5 64.3 64.3 64.1 65.2 L63.9 67.15 63.9 68.3 63.7 69.0 63.3 69.75 Q62.45 69.65 61.45 68.9 60.45 68.2 59.2 67.7 L56.65 66.45 Q54.5 65.2 52.05 64.6 L47.6 63.05 Q41.4 63.3 35.25 63.15 L30.4 64.8 27.85 65.85 26.4 66.35 25.4 66.75 23.65 67.35 22.95 67.25 20.55 67.05 Q19.4 64.15 17.9 61.75 15.75 58.25 12.3 56.2 L10.05 54.8 8.4 53.95 7.15 53.15 6.15 52.3 7.25 47.5 Q8.1 44.0 7.7 40.95 7.5 39.5 6.95 38.1 L6.65 37.35 5.55 35.1 4.8 34.2 4.3 33.35 4.0 32.65 4.85 31.7 7.05 29.85 Q8.5 28.7 10.25 25.7 11.95 22.7 23.25 16.15 31.55 12.4 40.85 11.65" fill="#ffffff" fill-opacity="0.2509804" fill-rule="evenodd" stroke="none"/>
      <path d="M59.0 17.3 Q62.75 19.3 67.1 22.5 L73.8 27.4 Q70.35 25.7 67.65 25.35 L57.6 25.85 Q52.0 26.65 46.8 28.75 41.55 30.85 40.2 30.2 38.85 29.5 35.05 28.2 31.2 26.85 26.95 25.9 L18.15 25.65 Q14.55 26.25 10.95 27.15 12.75 24.95 14.95 23.05 17.9 20.5 21.35 18.7 24.15 17.15 27.25 16.1 31.8 14.4 36.6 13.6 41.75 12.65 46.75 13.45 53.25 14.3 59.0 17.3" fill="#ffffff" fill-opacity="0.6" fill-rule="evenodd" stroke="none"/>
      <path d="M40.85 46.8 Q40.7 53.75 44.8 56.15 L56.95 62.95 Q43.65 59.0 36.25 60.55 28.8 62.1 25.1 64.45 28.9 58.0 31.4 54.7 L36.1 48.5 40.85 42.5 40.85 46.8" fill="#c6f9ff" fill-rule="evenodd" stroke="none"/>
      <path d="M50.5 32.45 Q51.65 31.4 53.45 30.5 55.2 29.55 56.35 29.7 57.5 29.75 57.75 30.2 57.95 30.65 56.85 31.45 55.75 32.15 54.1 32.85 L51.05 34.0 49.55 33.95 Q49.3 33.5 50.5 32.45" fill="#c6f9ff" fill-rule="evenodd" stroke="none"/>
      <path d="M57.2 36.4 L55.4 36.7 53.35 36.9 Q52.45 36.9 52.4 36.4 52.35 35.9 53.1 35.45 53.85 35.0 55.0 34.85 L56.95 34.95 Q57.85 35.2 57.9 35.7 57.95 36.2 57.2 36.4" fill="#c6f9ff" fill-rule="evenodd" stroke="none"/>
      <path d="M51.5 41.55 L54.6 42.25 Q56.35 42.9 57.45 43.7 58.65 44.45 58.45 44.95 58.3 45.4 56.85 45.3 55.55 45.15 54.3 44.3 52.95 43.3 51.5 42.8 50.0 42.2 50.1 41.8 50.15 41.4 51.5 41.55" fill="#c6f9ff" fill-rule="evenodd" stroke="none"/>
      <path d="M47.15 48.45 Q47.55 49.0 47.4 49.75 47.35 50.35 46.75 50.6 46.2 50.85 45.6 50.4 45.1 50.0 44.75 49.25 L44.35 47.9 Q44.25 47.35 44.75 47.35 L46.0 47.65 Q46.75 47.9 47.15 48.45" fill="#c6f9ff" fill-rule="evenodd" stroke="none"/>
      <path d="M30.4 31.15 Q31.35 31.2 32.45 31.75 33.55 32.25 34.15 32.9 34.8 33.6 34.55 34.05 34.35 34.5 33.4 34.45 L31.35 33.9 Q30.2 33.35 29.5 32.7 28.9 32.0 29.15 31.55 29.45 31.1 30.4 31.15" fill="#c6f9ff" fill-rule="evenodd" stroke="none"/>
      <path d="M26.95 44.15 Q26.7 43.4 27.45 42.8 28.2 42.1 29.35 41.8 L31.45 41.65 Q32.4 41.8 32.55 42.3 32.65 42.75 31.75 43.2 30.8 43.6 29.75 44.1 L27.95 44.8 Q27.2 44.95 26.95 44.15" fill="#c6f9ff" fill-rule="evenodd" stroke="none"/>
      <path d="M31.7 46.95 Q27.05 51.35 24.05 55.4 22.05 58.0 20.7 61.3 L20.3 60.25 Q19.8 58.95 18.6 57.4 L16.95 55.7 Q18.9 53.85 23.1 50.9 28.6 47.0 33.9 45.15 L31.7 46.95" fill="#c6f9ff" fill-rule="evenodd" stroke="none"/>
      <path d="M54.3 49.2 L51.1 46.55 Q53.05 47.4 54.9 48.5 L59.2 51.35 Q62.95 54.05 65.8 57.7 64.25 59.1 63.65 60.35 63.0 61.55 62.85 61.2 L60.85 57.15 Q59.0 53.4 54.3 49.2" fill="#c6f9ff" fill-rule="evenodd" stroke="none"/>
      <path d="M10.7 45.8 L11.45 42.6 Q11.8 40.75 10.55 37.5 13.2 36.15 18.0 35.6 L28.45 35.9 Q31.65 36.35 34.4 37.65 32.35 36.9 26.3 38.1 20.2 39.3 16.6 41.75 L10.7 45.8" fill="#c6f9ff" fill-rule="evenodd" stroke="none"/>
      <path d="M41.45 38.8 Q32.8 23.5 15.55 25.8" ffdec:has-small-stroke="true" ffdec:original-stroke-width="1.0" fill="none" stroke="#546c8a" stroke-linecap="round" stroke-linejoin="round" stroke-width="1.1533031807329663"/>
      <path d="M42.35 38.8 Q51.0 23.5 68.25 25.8" ffdec:has-small-stroke="true" ffdec:original-stroke-width="1.0" fill="none" stroke="#546c8a" stroke-linecap="round" stroke-linejoin="round" stroke-width="1.1533031807329663"/>
      <path d="M41.45 30.8 L41.65 30.45 41.95 30.2 42.4 30.45 42.5 30.8 42.5 42.1 42.4 42.55 41.95 42.7 Q41.75 42.7 41.65 42.55 L41.45 42.1 41.45 30.8" fill="#546c8a" fill-rule="evenodd" stroke="none"/>
      <path d="M25.3 67.6 L23.55 67.4 Q43.4 56.85 62.95 69.35 L63.15 69.65 63.05 70.05 62.75 70.25 62.45 70.15 Q43.9 58.4 25.3 67.6" fill="#bef8ff" fill-rule="evenodd" stroke="none"/>
      <path d="M78.35 52.55 L78.75 52.55 79.05 52.75 79.05 53.15 78.75 53.45 Q64.0 59.0 64.2 69.75 L64.1 70.15 63.7 70.25 63.4 70.15 63.15 69.75 Q62.75 58.4 78.35 52.55" fill="#bef8ff" fill-rule="evenodd" stroke="none"/>
      <path d="M79.95 32.65 Q80.05 32.45 80.4 32.45 L80.7 32.65 80.8 33.1 80.7 33.4 Q73.4 39.95 79.05 52.45 L79.05 52.85 78.75 53.15 78.35 53.15 78.1 52.85 Q72.2 39.55 79.95 32.65" fill="#bef8ff" fill-rule="evenodd" stroke="none"/>
      <path d="M5.0 53.15 L5.3 53.45 Q18.2 58.3 19.65 67.2 L20.35 67.1 20.65 67.2 Q19.45 57.65 5.7 52.55 L5.3 52.55 Q5.1 52.55 5.0 52.75 L5.0 53.15" fill="#bef8ff" fill-rule="evenodd" stroke="none"/>
      <path d="M4.1 32.65 L3.65 32.45 Q3.55 32.45 3.35 32.65 L3.25 33.1 3.35 33.4 Q10.65 39.95 5.0 52.45 L5.0 52.85 5.3 53.15 5.7 53.15 5.95 52.85 Q11.85 39.55 4.1 32.65" fill="#bef8ff" fill-rule="evenodd" stroke="none"/>
      <path d="M39.9 12.05 L39.55 12.2 Q18.95 14.25 5.75 31.3 L5.45 31.5 5.05 31.4 4.85 31.1 4.95 30.7 Q18.45 13.25 39.45 11.2 L39.85 11.35 40.0 11.65 39.9 12.05" fill="#bef8ff" fill-rule="evenodd" stroke="none"/>
      <path d="M44.0 12.05 L44.35 12.2 Q64.95 14.25 78.15 31.3 L78.45 31.5 78.85 31.4 79.05 31.1 78.95 30.7 Q65.45 13.25 44.45 11.2 L44.05 11.35 Q43.9 11.45 43.9 11.65 L44.0 12.05" fill="#bef8ff" fill-rule="evenodd" stroke="none"/>
      <path d="M44.5 11.2 L44.85 11.35 45.0 11.7 44.85 12.05 44.5 12.2 39.25 12.2 38.9 12.05 38.75 11.7 38.9 11.35 39.25 11.2 44.5 11.2" fill="#bef8ff" fill-rule="evenodd" stroke="none"/>
      <path d="M44.1 30.5 L43.7 30.5 43.5 30.2 43.5 29.8 43.7 29.6 Q69.1 18.95 80.6 32.45 L80.7 32.9 80.5 33.2 80.15 33.3 Q79.85 33.3 79.75 33.1 68.7 20.2 44.1 30.5" fill="#ffffff" fill-rule="evenodd" stroke="none"/>
      <path d="M39.95 30.5 L40.35 30.5 40.55 30.2 40.55 29.8 40.35 29.6 Q14.95 18.95 3.45 32.45 L3.35 32.9 3.55 33.2 3.9 33.3 Q4.2 33.3 4.3 33.1 15.35 20.2 39.95 30.5" fill="#ffffff" fill-rule="evenodd" stroke="none"/>
      <path d="M39.3 30.0 Q39.2 29.8 39.4 29.7 L39.7 29.4 40.15 29.5 Q41.85 30.5 44.0 29.5 L44.45 29.4 44.75 29.7 44.75 30.1 44.55 30.4 Q41.85 31.75 39.6 30.4 L39.3 30.0" fill="#ffffff" fill-rule="evenodd" stroke="none"/>
      <path d="M41.45 39.5 Q23.6 35.35 6.4 52.85" ffdec:has-small-stroke="true" ffdec:original-stroke-width="1.0" fill="none" stroke="#546c8a" stroke-linecap="round" stroke-linejoin="round" stroke-width="1.1533031807329663"/>
      <path d="M41.45 39.5 Q28.95 52.9 21.35 67.15" ffdec:has-small-stroke="true" ffdec:original-stroke-width="1.0" fill="none" stroke="#546c8a" stroke-linecap="round" stroke-linejoin="round" stroke-width="1.1533031807329663"/>
      <path d="M41.45 39.5 Q28.95 52.9 21.35 67.15" ffdec:has-small-stroke="true" ffdec:original-stroke-width="1.0" fill="none" stroke="#546c8a" stroke-linecap="round" stroke-linejoin="round" stroke-width="1.1533031807329663"/>
      <path d="M42.5 39.5 Q60.35 35.35 77.55 52.85" ffdec:has-small-stroke="true" ffdec:original-stroke-width="1.0" fill="none" stroke="#546c8a" stroke-linecap="round" stroke-linejoin="round" stroke-width="1.1533031807329663"/>
      <path d="M42.5 39.5 Q55.4 53.35 63.1 68.05" ffdec:has-small-stroke="true" ffdec:original-stroke-width="1.0" fill="none" stroke="#546c8a" stroke-linecap="round" stroke-linejoin="round" stroke-width="1.1533031807329663"/>
      <path d="M46.4 14.9 Q47.3 15.2 48.25 16.0 L49.55 17.55 Q50.05 18.45 49.75 18.8 L48.5 18.85 Q47.6 18.6 46.6 17.8 L45.15 16.2 Q44.75 15.35 45.15 15.0 L46.4 14.9" fill="#c6f9ff" fill-rule="evenodd" stroke="none"/>
      <path d="M25.55 22.3 L30.7 25.9 Q24.25 23.0 14.65 24.35 17.2 21.35 20.5 19.45 25.55 16.35 31.45 14.85 L36.65 13.65 37.1 14.05 37.15 14.35 Q34.75 15.0 31.5 16.65 28.25 18.3 25.35 21.9 L25.55 22.3" fill="#ffffff" fill-rule="evenodd" stroke="none"/>
      <path d="M37.75 14.9 Q36.85 15.2 35.9 16.0 35.0 16.75 34.6 17.55 34.1 18.45 34.4 18.8 L35.65 18.85 Q36.55 18.6 37.55 17.8 L39.0 16.2 Q39.4 15.35 39.0 15.0 L37.75 14.9" fill="#c6f9ff" fill-rule="evenodd" stroke="none"/>
      <path d="M32.0 14.4 Q30.65 14.5 28.9 15.1 27.15 15.75 26.05 16.55 24.85 17.3 25.05 17.8 25.2 18.25 26.65 18.15 27.95 18.0 29.2 17.15 30.55 16.15 32.0 15.65 33.5 15.05 33.4 14.65 33.35 14.25 32.0 14.4" fill="#c6f9ff" fill-rule="evenodd" stroke="none"/>
      <path d="M73.25 43.35 L71.55 42.1 Q67.2 39.3 62.1 38.1 L63.95 37.0 Q68.55 34.45 73.8 34.65 71.6 37.7 73.25 43.35" fill="#c6f9ff" fill-rule="evenodd" stroke="none"/>
      <path d="M60.4 22.6 L55.05 25.85 Q61.65 23.4 71.2 25.4 68.85 22.2 65.65 20.1 60.85 16.65 55.1 14.75 L49.95 13.15 49.5 13.55 49.4 13.85 Q51.8 14.65 54.9 16.55 58.0 18.4 60.65 22.2 L60.4 22.6" fill="#ffffff" fill-rule="evenodd" stroke="none"/>
      <path d="M52.15 14.4 Q53.5 14.5 55.25 15.1 57.0 15.75 58.1 16.55 59.3 17.3 59.1 17.8 58.95 18.25 57.5 18.15 56.2 18.0 54.95 17.15 53.6 16.15 52.15 15.65 50.65 15.05 50.75 14.65 50.8 14.25 52.15 14.4" fill="#c6f9ff" fill-rule="evenodd" stroke="none"/>
    </g>
    <g id="sprite5">
      <use ffdec:characterId="20" height="33.9" transform="matrix(1.0, 0.0, 0.0, 1.0, 0.0, 0.0)" width="3.75" xlink:href="#shape5"/>
    </g>
    <g id="shape5">
      <path d="M2.5 33.95 L1.5 33.4 1.5 5.3 2.5 5.3 2.5 33.95" fill="#ffffff" fill-rule="evenodd" stroke="none"/>
      <path d="M1.5 33.4 L1.5 5.3 2.5 5.3 2.5 33.95" ffdec:has-small-stroke="true" ffdec:original-stroke-width="0.5" fill="none" stroke="#494949" stroke-linecap="round" stroke-linejoin="round" stroke-width="0.5766515903664832"/>
      <path d="M1.1 5.35 L0.4 0.9 Q2.05 0.25 3.65 0.9 L3.05 5.35 Q2.0 5.7 1.1 5.35" fill="#bababa" fill-rule="evenodd" stroke="none"/>
      <path d="M1.1 5.35 L0.4 0.9 Q2.05 0.25 3.65 0.9 L3.05 5.35 Q2.0 5.7 1.1 5.35 Z" ffdec:has-small-stroke="true" ffdec:original-stroke-width="0.5" fill="none" stroke="#545454" stroke-linecap="round" stroke-linejoin="round" stroke-width="0.5766515903664832"/>
      <path d="M2.45 1.4 L2.25 4.75" ffdec:has-small-stroke="true" ffdec:original-stroke-width="0.3" fill="none" stroke="#ffffff" stroke-linecap="round" stroke-linejoin="round" stroke-width="0.5766515903664832"/>
    </g>
    <g id="sprite6">
      <use ffdec:characterId="11" height="12.25" transform="matrix(1.0, 0.0, 0.0, 1.0, 0.0, 0.0)" width="14.4" xlink:href="#shape6"/>
    </g>
    <g id="shape6">
      <path d="M1.1 5.5 L1.25 5.7 Q2.9 7.6 4.25 7.75 5.6 7.95 7.05 6.2 L7.05 6.15 Q8.35 4.45 8.2 3.15 8.15 2.05 9.4 1.05 10.55 0.05 11.55 0.55 12.6 1.15 13.35 3.4 14.05 5.7 11.25 8.6 8.45 11.55 5.5 11.15 2.6 10.7 1.55 9.2 0.5 7.7 0.35 5.9 L0.75 5.65 1.1 5.5" fill="#c2c2c2" fill-rule="evenodd" stroke="none"/>
      <path d="M1.1 5.5 L1.85 5.3 Q3.25 6.9 4.35 7.05 5.4 7.15 6.5 5.75 7.55 4.25 7.5 3.2 7.35 1.75 8.95 0.5 10.55 -0.85 11.9 -0.05 13.1 0.65 14.0 3.2 14.85 5.8 11.75 9.1 8.65 12.35 5.4 11.85 2.1 11.3 0.95 9.6 L1.0 9.6 Q0.05 8.3 -0.2 6.75 L-0.15 6.55 0.35 5.9 Q0.5 7.7 1.55 9.2 2.6 10.7 5.5 11.15 8.45 11.55 11.25 8.6 14.05 5.7 13.35 3.4 12.6 1.15 11.55 0.55 10.55 0.05 9.4 1.05 8.15 2.05 8.2 3.15 8.35 4.45 7.05 6.15 L7.05 6.2 Q5.6 7.95 4.25 7.75 2.9 7.6 1.25 5.7 L1.1 5.5" fill="#3c3c3c" fill-rule="evenodd" stroke="none"/>
      <path d="M11.5 1.75 Q11.25 4.05 10.1 6.15 8.9 8.2 7.1 9.25 5.25 10.25 3.6 9.75 1.9 9.25 0.9 6.7 L1.75 7.25 Q2.1 8.0 3.95 8.45 6.0 8.65 7.45 6.75 8.85 4.85 8.95 3.75 L8.95 2.4 Q10.65 0.05 11.5 1.75" fill="#ffffff" fill-rule="evenodd" stroke="none"/>
    </g>
    <g id="sprite7">
      <use ffdec:characterId="49" height="7.85" transform="matrix(1.0, 0.0, 0.0, 1.0, 0.0, 0.0)" width="15.3" xlink:href="#shape7"/>
    </g>
    <g id="shape7">
      <path d="M10.85 4.75 L9.15 4.15 8.4 4.2 7.55 4.35 6.85 4.15 Q6.55 3.85 6.15 3.85 L3.9 4.45 1.6 5.0 Q1.1 5.0 0.9 4.25 L0.6 3.0 0.35 2.25 0.2 1.65 0.35 0.3 0.85 0.35 2.9 0.55 4.35 0.65 5.05 0.7 6.15 1.7 Q7.2 2.85 7.8 2.85 8.7 2.85 11.2 0.5 L12.7 0.45 14.2 0.0 14.55 0.6 14.65 1.15 Q15.1 1.8 14.5 3.3 13.85 4.8 13.05 5.1 12.2 5.35 10.85 4.75" fill="#ffb700" fill-rule="evenodd" stroke="none"/>
      <path d="M0.5 0.35 Q0.55 2.85 0.8 3.5 1.3 4.65 1.8 4.65 L3.5 4.25 5.7 3.8 6.7 3.95 7.0 4.15 Q7.0 4.4 6.6 4.4 L5.7 4.35 Q5.2 4.25 3.55 4.85 L1.4 5.4 Q0.9 5.4 0.4 3.85 L-0.3 1.05 Q-0.45 -0.2 0.5 0.35" fill="#4d290f" fill-rule="evenodd" stroke="none"/>
      <path d="M14.45 0.35 Q14.8 0.5 14.95 1.45 15.1 2.35 14.35 4.0 13.6 5.55 12.25 5.5 10.85 5.45 9.85 4.8 9.0 4.15 8.5 4.3 8.6 3.8 9.2 3.8 9.45 3.8 10.3 4.3 L12.25 4.7 Q13.3 4.7 13.7 4.15 L14.3 2.6 14.45 1.3 14.45 0.35" fill="#4d290f" fill-rule="evenodd" stroke="none"/>
      <path d="M5.5 0.75 L7.55 2.75 9.5 1.6 10.5 0.85 11.15 0.8 Q11.15 1.15 9.75 2.15 8.3 3.2 7.55 3.2 7.1 3.2 6.2 2.2 L5.3 0.85 Q5.35 0.75 5.5 0.75" fill="#000000" fill-rule="evenodd" stroke="none"/>
      <path d="M1.85 1.05 L2.0 0.4 5.05 0.7 5.85 2.15 4.75 1.65 3.3 1.3 2.9 1.55 3.0 2.4 2.55 2.35 2.0 1.75 1.9 1.35 1.85 1.05" fill="#c46a00" fill-rule="evenodd" stroke="none"/>
      <path d="M10.95 0.5 L10.95 0.55 10.1 2.05 11.2 1.55 12.65 1.2 13.05 1.45 12.95 2.3 13.4 2.25 13.95 1.65 14.05 1.25 14.1 0.95 13.95 0.3 10.95 0.5" fill="#c46a00" fill-rule="evenodd" stroke="none"/>
      <path d="M5.7 3.6 L1.75 3.5 Q1.25 3.25 1.0 2.3 0.75 1.35 1.5 0.85 L1.7 1.25 Q1.8 2.5 2.8 2.7 L6.1 2.45 7.85 3.75 7.8 4.05 5.7 3.6" fill="#ffe900" fill-rule="evenodd" stroke="none"/>
      <path d="M14.0 1.7 Q13.9 2.4 12.45 2.65 L10.05 2.5 Q8.55 2.85 7.55 3.75 L7.6 4.05 9.3 3.65 Q12.45 4.45 13.45 3.7 L14.25 2.35 Q14.65 1.35 14.15 0.75 L14.0 1.7" fill="#ffe900" fill-rule="evenodd" stroke="none"/>
      <path d="M2.55 2.3 L3.7 1.85 5.3 1.7 Q5.95 1.8 6.7 2.35 L7.45 3.1 Q7.45 3.35 7.8 3.8 L6.2 2.8 2.55 2.3" fill="#1c0f00" fill-rule="evenodd" stroke="none"/>
      <path d="M8.5 2.95 L8.05 3.65 7.65 4.2 7.0 3.05 Q7.55 3.25 8.05 2.65 8.8 1.8 10.3 1.7 11.75 1.6 12.95 2.25 L9.65 2.35 Q8.8 2.7 8.5 2.95" fill="#1c0f00" fill-rule="evenodd" stroke="none"/>
      <path d="M5.55 3.8 L5.55 7.65" ffdec:has-small-stroke="true" ffdec:original-stroke-width="0.4" fill="none" stroke="#00a8ff" stroke-linecap="round" stroke-linejoin="round" stroke-width="0.9108927404895271"/>
      <path d="M9.55 3.8 L9.55 7.65" ffdec:has-small-stroke="true" ffdec:original-stroke-width="0.4" fill="none" stroke="#00a8ff" stroke-linecap="round" stroke-linejoin="round" stroke-width="0.9108927404895271"/>
    </g>
    <g id="sprite8">
      <use ffdec:characterId="24" height="2.6" transform="matrix(1.0, 0.0, 0.0, 1.0, 0.0, 0.0)" width="3.85" xlink:href="#shape8"/>
    </g>
    <g id="shape8">
      <path d="M0.4 2.4 L0.0 2.4 0.0 0.0 3.65 0.0 3.65 0.7 3.1 0.85 2.65 1.0 Q2.1 1.0 1.1 1.75 L0.4 2.4" fill="#cccccc" fill-rule="evenodd" stroke="none"/>
      <path d="M0.4 2.4 L0.0 2.4 0.0 0.0 3.65 0.0 3.65 0.7 3.1 0.85 2.65 1.0 Q2.1 1.0 1.1 1.75 L0.4 2.4 Z" ffdec:has-small-stroke="true" ffdec:original-stroke-width="0.25" fill="none" stroke="#333333" stroke-linecap="round" stroke-linejoin="round" stroke-width="0.880992651157654"/>
    </g>
  </defs>
</svg>
