<?xml version="1.0" encoding="UTF-8" standalone="no"?>
<svg xmlns:ffdec="https://www.free-decompiler.com/flash" xmlns:xlink="http://www.w3.org/1999/xlink" ffdec:objectType="frame" height="30.0px" width="48.8px" xmlns="http://www.w3.org/2000/svg">
  <g transform="matrix(1.0, 0.0, 0.0, 1.0, 13.65, -5.6)">
    <use ffdec:characterId="49" height="5.5" transform="matrix(1.0, 0.0, 0.0, 1.0, -0.25, 0.05)" width="5.2" xlink:href="#shape0"/>
    <use ffdec:characterId="3" height="9.6" transform="matrix(-1.0, 0.0, 0.0, 1.0, 11.05, 14.95)" width="10.2" xlink:href="#sprite0"/>
    <use ffdec:characterId="57" height="5.8" transform="matrix(1.0, 0.0, 0.0, 1.0, 0.0, 0.0)" width="8.05" xlink:href="#shape2"/>
    <use ffdec:characterId="6" height="5.85" transform="matrix(1.0, 0.0, 0.0, 1.0, -7.65, 13.8)" width="9.35" xlink:href="#sprite1"/>
    <use ffdec:characterId="6" height="5.85" transform="matrix(-1.0, 0.0, 0.0, 1.0, 7.7, 13.8)" width="9.35" xlink:href="#sprite1"/>
    <use ffdec:characterId="59" height="9.5" transform="matrix(1.0, 0.0, 0.0, 1.0, -13.65, 14.95)" width="12.65" xlink:href="#sprite2"/>
    <use ffdec:characterId="36" height="4.5" transform="matrix(1.0, 0.0, 0.0, 1.0, 7.55, 22.35)" width="6.2" xlink:href="#sprite3"/>
    <use ffdec:characterId="60" height="3.25" transform="matrix(1.0, 0.0, 0.0, 1.0, 0.0, 0.0)" width="29.6" xlink:href="#shape6"/>
    <use ffdec:characterId="20" height="84.9" transform="matrix(0.1658, 0.5084, -0.5084, 0.1658, 29.7, 6.0)" width="31.3" xlink:href="#sprite4"/>
    <use ffdec:characterId="61" height="10.0" transform="matrix(1.0, 0.0, 0.0, 1.0, 0.0, 0.0)" width="16.5" xlink:href="#shape25"/>
    <use ffdec:characterId="63" height="8.4" transform="matrix(1.0, 0.0, 0.0, 1.0, -12.75, 18.15)" width="6.7" xlink:href="#sprite19"/>
    <use ffdec:characterId="28" height="2.05" transform="matrix(1.0, 0.0, 0.0, 1.0, -12.65, 20.2)" width="1.85" xlink:href="#sprite20"/>
    <use ffdec:characterId="30" height="2.05" transform="matrix(1.0, 0.0, 0.0, 1.0, -10.5, 21.8)" width="1.85" xlink:href="#sprite21"/>
    <use ffdec:characterId="23" height="4.5" transform="matrix(1.0, 0.0, 0.0, 1.0, 7.6, 20.7)" width="5.9" xlink:href="#sprite22"/>
  </g>
  <defs>
    <g id="shape0">
      <path d="M0.35 16.9 L1.6 14.6 2.75 14.6 2.75 19.2 -2.45 19.2 -2.45 14.6 -1.0 14.6 0.35 16.9" fill="#c698dd" fill-rule="evenodd" stroke="none"/>
      <path d="M0.35 17.8 L1.9 14.95 2.75 14.95 2.75 20.1 -2.45 20.1 -2.45 14.95 -1.35 14.95 0.35 17.8" fill="#ffffff" fill-rule="evenodd" stroke="none"/>
    </g>
    <g id="sprite0">
      <use ffdec:characterId="2" height="9.6" transform="matrix(1.0, 0.0, 0.0, 1.0, 0.0, 0.0)" width="10.2" xlink:href="#shape1"/>
    </g>
    <g id="shape1">
      <path d="M0.5 4.1 Q1.2 3.15 2.45 3.15 L3.45 3.05 4.4 2.35 5.85 0.9 Q6.55 0.1 8.9 0.0 L10.2 5.35 10.2 9.5 4.2 9.5 5.2 8.45 5.2 8.4 5.5 7.15 2.6 9.6 0.0 5.4 Q0.05 4.7 0.5 4.1" fill="#000000" fill-rule="evenodd" stroke="none"/>
    </g>
    <g id="shape2">
      <path d="M9.45 29.9 Q8.75 30.8 7.1 31.05 5.45 31.2 4.0 30.45 2.5 29.75 2.05 28.6 1.55 27.25 2.25 26.35 3.0 25.4 4.6 25.3 6.25 25.1 7.7 25.8 9.2 26.55 9.65 27.75 10.2 28.95 9.45 29.9" fill="#0d0611" fill-rule="evenodd" stroke="none"/>
    </g>
    <g id="sprite1">
      <use ffdec:characterId="5" height="5.85" transform="matrix(1.0, 0.0, 0.0, 1.0, 0.0, 0.0)" width="9.35" xlink:href="#shape3"/>
    </g>
    <g id="shape3">
      <path d="M6.3 4.9 Q1.45 3.65 -3.05 -0.95 L5.7 0.9 6.3 4.9" fill="#0d0611" fill-rule="evenodd" stroke="none"/>
    </g>
    <g id="sprite2">
      <use ffdec:characterId="58" height="9.5" transform="matrix(1.0, 0.0, 0.0, 1.0, 0.0, 0.0)" width="12.65" xlink:href="#shape4"/>
    </g>
    <g id="shape4">
      <path d="M11.35 0.0 L12.65 5.35 12.65 9.5 7.4 9.5 7.95 7.15 6.25 8.9 1.5 8.9 Q-1.0 6.05 0.65 3.55 2.25 1.0 6.55 1.5 7.25 0.55 7.9 0.3 L9.95 0.05 11.35 0.0" fill="#000000" fill-rule="evenodd" stroke="none"/>
    </g>
    <g id="sprite3">
      <use ffdec:characterId="35" height="4.5" transform="matrix(1.0, 0.0, 0.0, 1.0, 0.0, 0.0)" width="6.2" xlink:href="#shape5"/>
    </g>
    <g id="shape5">
      <path d="M5.9 0.0 Q6.65 2.7 5.6 4.45 1.7 4.75 0.35 2.95 -1.5 0.8 5.9 0.0" fill="#0d0611" fill-rule="evenodd" stroke="none"/>
    </g>
    <g id="shape6">
      <path d="M9.7 16.9 L5.6 16.65 7.8 15.45 11.3 15.65 11.3 15.7 9.7 16.9 M-6.0 18.25 L-8.5 18.7 Q-9.75 16.5 -7.75 15.6 L-7.0 16.2 Q-7.1 17.45 -6.0 18.25" fill="#ff52e9" fill-rule="evenodd" stroke="none"/>
      <path d="M9.7 16.9 L11.3 15.7 11.3 15.65 11.4 15.65 20.6 16.05 16.6 17.25 9.7 16.9" fill="#ff8df0" fill-rule="evenodd" stroke="none"/>
    </g>
    <g id="sprite4">
      <use ffdec:characterId="8" height="84.9" transform="matrix(1.0, 0.0, 0.0, 1.0, 0.0, 0.0)" width="31.3" xlink:href="#shape7"/>
      <use ffdec:characterId="10" height="1.05" transform="matrix(1.0, 0.0, 0.0, 1.0, 14.5, 54.85)" width="1.05" xlink:href="#sprite5"/>
      <use ffdec:characterId="10" height="1.05" transform="matrix(1.0, 0.0, 0.0, 1.0, 14.6, 49.65)" width="1.05" xlink:href="#sprite5"/>
      <use ffdec:characterId="10" height="1.05" transform="matrix(1.0, 0.0, 0.0, 1.0, 14.85, 37.7)" width="1.05" xlink:href="#sprite5"/>
      <use ffdec:characterId="10" height="1.05" transform="matrix(1.0, 0.0, 0.0, 1.0, 14.95, 33.3)" width="1.05" xlink:href="#sprite5"/>
      <use ffdec:characterId="10" height="1.05" transform="matrix(1.0, 0.0, 0.0, 1.0, 15.0, 28.65)" width="1.05" xlink:href="#sprite5"/>
      <use ffdec:characterId="10" height="1.05" transform="matrix(1.0, 0.0, 0.0, 1.0, 15.1, 23.5)" width="1.05" xlink:href="#sprite5"/>
      <use ffdec:characterId="10" height="1.05" transform="matrix(1.0, 0.0, 0.0, 1.0, 14.55, 51.95)" width="1.05" xlink:href="#sprite5"/>
      <use ffdec:characterId="10" height="1.05" transform="matrix(1.0, 0.0, 0.0, 1.0, 14.7, 46.7)" width="1.05" xlink:href="#sprite5"/>
      <use ffdec:characterId="10" height="1.05" transform="matrix(1.0, 0.0, 0.0, 1.0, 12.85, 43.05)" width="1.05" xlink:href="#sprite5"/>
      <use ffdec:characterId="10" height="1.05" transform="matrix(1.0, 0.0, 0.0, 1.0, 16.7, 43.05)" width="1.05" xlink:href="#sprite5"/>
      <use ffdec:characterId="11" height="4.8" transform="matrix(1.0, 0.0, 0.0, 1.0, 0.0, 0.0)" width="7.2" xlink:href="#shape9"/>
      <use ffdec:characterId="13" height="1.65" transform="matrix(0.9992, 0.0383, -0.0253, 0.9998, 11.1, 12.3)" width="2.65" xlink:href="#sprite6"/>
      <use ffdec:characterId="13" height="1.65" transform="matrix(0.9992, 0.0383, -0.0253, 0.9998, 11.75, 10.15)" width="2.65" xlink:href="#sprite7"/>
      <use ffdec:characterId="13" height="1.65" transform="matrix(0.9992, 0.0383, -0.0253, 0.9998, 12.35, 8.2)" width="2.65" xlink:href="#sprite8"/>
      <use ffdec:characterId="13" height="1.65" transform="matrix(0.9992, 0.0383, -0.0253, 0.9998, 13.05, 6.2)" width="2.65" xlink:href="#sprite9"/>
      <use ffdec:characterId="13" height="1.65" transform="matrix(0.9992, 0.0383, -0.0253, 0.9998, 13.65, 4.25)" width="2.65" xlink:href="#sprite10"/>
      <use ffdec:characterId="13" height="1.65" transform="matrix(0.9992, 0.0383, -0.0253, 0.9998, 14.35, 2.25)" width="2.65" xlink:href="#sprite11"/>
      <use ffdec:characterId="14" height="74.35" transform="matrix(1.0, 0.0, 0.0, 1.0, 0.0, 0.0)" width="10.45" xlink:href="#shape16"/>
      <use ffdec:characterId="16" height="1.4" transform="matrix(1.0, 0.0, 0.0, 1.0, 13.1, 12.3)" width="1.4" xlink:href="#sprite12"/>
      <use ffdec:characterId="16" height="1.4" transform="matrix(1.0, 0.0, 0.0, 1.0, 13.75, 10.2)" width="1.4" xlink:href="#sprite13"/>
      <use ffdec:characterId="16" height="1.4" transform="matrix(1.0, 0.0, 0.0, 1.0, 14.4, 8.25)" width="1.4" xlink:href="#sprite14"/>
      <use ffdec:characterId="16" height="1.4" transform="matrix(1.0, 0.0, 0.0, 1.0, 15.05, 6.3)" width="1.4" xlink:href="#sprite15"/>
      <use ffdec:characterId="16" height="1.4" transform="matrix(1.0, 0.0, 0.0, 1.0, 15.7, 4.35)" width="1.4" xlink:href="#sprite16"/>
      <use ffdec:characterId="16" height="1.4" transform="matrix(1.0, 0.0, 0.0, 1.0, 16.4, 2.4)" width="1.4" xlink:href="#sprite17"/>
      <use ffdec:characterId="17" height="68.25" transform="matrix(1.0, 0.0, 0.0, 1.0, 0.0, 0.0)" width="29.7" xlink:href="#shape23"/>
      <use ffdec:characterId="19" height="6.1" transform="matrix(1.0, 0.0, 0.0, 1.0, 19.65, 74.75)" width="7.2" xlink:href="#sprite18"/>
    </g>
    <g id="shape7">
      <path d="M14.2 1.2 L14.5 1.15 15.15 1.2 Q16.45 -1.35 19.65 -0.55 L21.25 -0.05 Q21.6 0.1 21.75 0.55 L21.8 1.0 21.8 1.45 20.55 5.95 21.4 11.8 21.4 11.85 21.4 12.05 21.35 12.05 21.3 12.05 21.25 12.1 21.4 12.05 18.85 15.2 18.85 22.7 18.95 53.25 18.95 53.3 Q20.45 54.3 22.25 53.35 L22.3 53.35 Q23.35 52.6 23.4 51.55 23.7 49.9 24.6 49.25 25.45 48.55 26.8 48.95 L26.9 48.95 Q28.75 49.7 29.15 52.0 29.9 55.6 27.0 60.15 26.0 61.65 26.45 62.9 27.1 64.6 28.2 66.2 31.7 71.5 30.6 76.3 29.55 81.45 22.1 83.4 L21.9 83.4 Q15.0 85.1 7.45 83.05 L7.1 83.05 Q-0.05 80.25 -0.45 74.25 -0.5 72.75 -0.2 71.45 0.0 69.45 2.0 66.35 5.1 61.3 3.3 56.9 L3.3 56.85 3.05 56.4 3.05 56.35 3.0 56.25 2.95 56.2 Q-0.55 49.35 2.55 45.0 3.65 43.0 5.3 43.3 L5.35 43.3 Q7.1 43.25 7.45 46.45 L8.1 48.4 8.1 48.45 8.85 49.95 8.95 50.0 Q9.45 50.4 10.25 50.35 L11.35 49.55 11.4 49.55 11.4 49.5 11.65 43.35 11.65 43.25 12.65 16.7 12.6 15.4 12.4 15.15 12.25 15.15 11.7 14.85 Q10.8 14.95 10.25 14.3 9.65 13.6 9.7 12.9 9.7 12.15 9.95 11.85 L10.0 11.8 10.05 11.8 10.1 11.75 10.1 11.7 10.25 11.65 10.3 11.65 10.35 11.6 10.4 11.6 10.5 11.55 Q10.25 11.15 10.35 10.75 10.25 10.1 10.6 9.7 L10.65 9.65 10.7 9.65 10.75 9.6 10.75 9.55 10.9 9.5 10.95 9.5 11.05 9.45 10.95 8.8 Q10.85 8.15 11.2 7.75 L11.25 7.7 11.3 7.7 11.35 7.65 11.35 7.6 11.5 7.55 11.55 7.55 11.6 7.5 11.65 7.5 11.7 7.45 11.65 6.8 Q11.55 6.15 11.9 5.75 L11.95 5.7 12.0 5.7 12.05 5.65 12.05 5.6 12.2 5.55 12.25 5.55 12.35 5.5 12.25 4.85 Q12.15 4.2 12.5 3.8 L12.55 3.75 12.6 3.75 12.65 3.7 12.65 3.65 12.8 3.6 12.85 3.6 12.9 3.55 12.95 3.55 13.05 3.5 13.0 3.4 12.95 2.75 Q12.9 2.2 13.2 1.8 L13.25 1.75 13.3 1.75 13.35 1.7 13.35 1.65 13.5 1.6 13.55 1.6 13.6 1.55 13.65 1.55 13.7 1.5 13.75 1.45 13.8 1.45 13.85 1.35 14.2 1.2" fill="#ffffff" fill-rule="evenodd" stroke="none"/>
      <path d="M17.9 56.25 L17.9 53.65 Q20.1 55.75 22.75 54.35 24.35 53.15 24.4 51.55 24.85 49.6 26.4 49.95 27.8 50.45 28.1 52.0 28.7 55.4 26.0 59.6 24.7 61.65 25.4 63.35 26.1 65.1 27.2 66.7 30.5 71.7 29.55 76.2 28.6 80.7 21.85 82.35 15.05 84.0 7.55 82.0 1.05 79.55 0.55 74.25 0.55 72.75 0.8 71.45 1.05 69.7 2.95 66.85 6.4 61.25 4.3 56.4 L4.05 55.85 3.95 55.7 Q0.8 49.5 3.5 45.5 4.25 44.2 5.25 44.3 6.2 44.4 6.4 46.45 L7.05 48.9 Q7.5 50.0 8.35 50.8 9.15 51.6 10.45 51.35 11.75 51.05 12.4 49.85 L12.25 53.4 10.85 53.05 10.6 53.05 Q10.05 53.05 9.65 53.4 9.3 53.8 9.3 54.35 L9.6 55.6 Q10.6 58.4 9.3 61.1 L7.3 66.2 Q6.55 68.9 8.35 70.45 9.65 71.35 10.8 71.5 L10.8 74.25 18.55 74.25 18.55 71.8 19.05 71.8 Q21.5 71.55 23.8 73.5 L25.45 74.95 27.15 75.0 Q28.25 73.35 26.2 69.5 L23.55 65.0 Q22.3 62.25 24.15 59.8 25.95 57.35 26.15 55.75 26.35 54.1 26.05 53.3 25.75 52.5 25.4 52.75 25.05 53.0 24.8 54.1 23.45 56.55 21.1 56.85 18.75 57.1 17.9 56.25" fill="#f60000" fill-rule="evenodd" stroke="none"/>
      <path d="M17.9 56.25 Q18.75 57.1 21.1 56.85 23.45 56.55 24.8 54.1 25.05 53.0 25.4 52.75 25.75 52.5 26.05 53.3 26.35 54.1 26.15 55.75 25.95 57.35 24.15 59.8 22.3 62.25 23.55 65.0 L26.2 69.5 Q28.25 73.35 27.15 75.0 L25.45 74.95 23.8 73.5 Q21.5 71.55 19.05 71.8 L18.55 71.8 17.95 71.8 17.95 70.4 17.25 70.4 17.25 57.15 17.9 57.15 17.9 56.25 M10.8 71.5 Q9.65 71.35 8.35 70.45 6.55 68.9 7.3 66.2 L9.3 61.1 Q10.6 58.4 9.6 55.6 L9.3 54.35 Q9.3 53.8 9.65 53.4 10.05 53.05 10.6 53.05 L10.85 53.05 12.25 53.4 12.1 57.15 12.75 57.15 12.2 70.4 10.8 70.4 10.8 71.5 M26.65 73.0 L26.4 72.4 25.8 72.15 Q25.45 72.15 25.2 72.4 24.95 72.65 24.95 73.0 L25.2 73.6 25.8 73.85 26.4 73.6 26.65 73.0 M20.85 69.35 L20.55 68.55 Q20.2 68.2 19.7 68.2 19.2 68.2 18.9 68.55 18.55 68.85 18.55 69.35 18.55 69.85 18.9 70.2 19.2 70.5 19.7 70.5 L20.55 70.2 20.85 69.35 M24.3 71.05 L24.0 70.3 Q23.65 70.0 23.2 70.0 22.75 70.0 22.45 70.3 22.1 70.6 22.1 71.05 22.1 71.5 22.45 71.8 22.75 72.1 23.2 72.1 L24.0 71.8 24.3 71.05" fill="#000000" fill-rule="evenodd" stroke="none"/>
      <path d="M24.3 71.05 L24.0 71.8 23.2 72.1 Q22.75 72.1 22.45 71.8 22.1 71.5 22.1 71.05 22.1 70.6 22.45 70.3 22.75 70.0 23.2 70.0 23.65 70.0 24.0 70.3 L24.3 71.05 M20.85 69.35 L20.55 70.2 19.7 70.5 Q19.2 70.5 18.9 70.2 18.55 69.85 18.55 69.35 18.55 68.85 18.9 68.55 19.2 68.2 19.7 68.2 20.2 68.2 20.55 68.55 L20.85 69.35 M26.65 73.0 L26.4 73.6 25.8 73.85 25.2 73.6 24.95 73.0 Q24.95 72.65 25.2 72.4 25.45 72.15 25.8 72.15 L26.4 72.4 26.65 73.0" fill="#95989a" fill-rule="evenodd" stroke="none"/>
      <path d="M17.8 56.3 L18.3 56.55 20.25 56.9 Q22.35 56.9 23.85 55.4 25.0 54.25 25.3 52.75 25.75 52.5 26.05 53.3 26.35 54.1 26.15 55.75 25.95 57.35 24.15 59.8 22.3 62.25 23.55 65.0 L26.2 69.5 Q28.25 73.35 27.15 75.0 L25.45 74.95 23.8 73.5 Q21.5 71.55 19.05 71.8 L10.8 71.5 Q9.65 71.35 8.35 70.45 6.55 68.9 7.3 66.2 L9.3 61.1 9.95 59.25 Q10.25 57.45 9.6 55.6 L9.5 55.35 9.35 54.6 9.35 54.4 Q9.35 53.75 9.8 53.25 10.3 52.8 10.95 52.8 11.6 52.8 12.05 53.25 L12.25 53.5 Q14.1 55.35 17.8 56.3 Z" ffdec:has-small-stroke="true" ffdec:original-stroke-width="1.5" fill="none" stroke="#000000" stroke-linecap="round" stroke-linejoin="round" stroke-width="1.8701488861551412"/>
      <path d="M17.8 56.3 L18.3 56.55 20.25 56.9 Q22.35 56.9 23.85 55.4 25.0 54.25 25.3 52.75 25.75 52.5 26.05 53.3 26.35 54.1 26.15 55.75 25.95 57.35 24.15 59.8 22.3 62.25 23.55 65.0 L26.2 69.5 Q28.25 73.35 27.15 75.0 L25.45 74.95 23.8 73.5 Q21.5 71.55 19.05 71.8 L10.8 71.5 Q9.65 71.35 8.35 70.45 6.55 68.9 7.3 66.2 L9.3 61.1 9.95 59.25 Q10.25 57.45 9.6 55.6 L9.5 55.35 9.35 54.6 9.35 54.4 Q9.35 53.75 9.8 53.25 10.3 52.8 10.95 52.8 11.6 52.8 12.05 53.25 L12.25 53.5 Q14.1 55.35 17.8 56.3 Z" ffdec:has-small-stroke="true" ffdec:original-stroke-width="0.5" fill="none" stroke="#ffffff" stroke-linecap="round" stroke-linejoin="round" stroke-width="1.8701488861551412"/>
      <path d="M13.65 16.5 L17.9 16.5 17.9 57.15 12.1 57.15 13.65 16.5" fill="#4f4742" fill-rule="evenodd" stroke="none"/>
      <path d="M13.4 22.55 L17.9 22.55 M13.55 19.5 L17.9 19.5 M13.3 25.45 L17.9 25.45 M12.95 35.0 L17.9 35.0 M13.05 32.8 L17.9 32.8 M13.15 30.35 L17.9 30.35 M13.25 27.9 L17.9 27.9 M12.55 45.65 L17.9 45.65 M12.5 47.2 L17.9 47.2 M12.8 39.1 L17.9 39.1 M12.6 44.3 L17.9 44.3 M12.45 48.75 L17.9 48.75 M12.65 42.8 L17.9 42.8 M12.85 37.2 L17.9 37.2 M12.7 40.9 L17.9 40.9 M12.1 56.3 L17.9 56.3 M12.15 55.35 L17.9 55.35 M12.25 53.45 L17.9 53.45 M12.25 52.45 L17.9 52.45 M12.3 51.4 L17.9 51.4 M12.35 50.15 L17.9 50.15 M12.2 54.35 L17.9 54.35" ffdec:has-small-stroke="true" ffdec:original-stroke-width="0.2" fill="none" stroke="#46352c" stroke-linecap="round" stroke-linejoin="round" stroke-width="1.8701488861551412"/>
    </g>
    <g id="sprite5">
      <use ffdec:characterId="9" height="1.05" transform="matrix(1.0, 0.0, 0.0, 1.0, 0.0, 0.0)" width="1.05" xlink:href="#shape8"/>
    </g>
    <g id="shape8">
      <path d="M1.05 0.55 L0.85 0.9 0.5 1.05 0.15 0.9 0.0 0.55 0.15 0.15 Q0.3 0.0 0.5 0.0 0.7 0.0 0.85 0.15 L1.05 0.55" fill="#b3a4a1" fill-rule="evenodd" stroke="none"/>
    </g>
    <g id="shape9">
      <path d="M20.4 69.35 L20.2 69.85 19.75 70.0 19.3 69.85 19.1 69.35 19.3 68.9 Q19.45 68.7 19.75 68.7 L20.2 68.9 20.4 69.35" fill="#ffffff" fill-rule="evenodd" stroke="none"/>
      <path d="M23.75 71.05 L23.6 71.45 23.25 71.55 22.9 71.45 22.75 71.05 Q22.75 70.8 22.9 70.7 23.0 70.55 23.25 70.55 23.45 70.55 23.6 70.7 L23.75 71.05" fill="#ffffff" fill-rule="evenodd" stroke="none"/>
      <path d="M26.3 73.0 L26.15 73.4 25.8 73.5 25.45 73.4 25.3 73.0 Q25.3 72.75 25.45 72.65 25.55 72.5 25.8 72.5 26.0 72.5 26.15 72.65 L26.3 73.0" fill="#ffffff" fill-rule="evenodd" stroke="none"/>
    </g>
    <g id="sprite6">
      <use ffdec:characterId="12" height="1.65" transform="matrix(1.0, 0.0, 0.0, 1.0, 0.0, 0.0)" width="2.65" xlink:href="#shape10"/>
    </g>
    <g id="shape10">
      <path d="M1.5 0.95 L1.15 0.85" ffdec:has-small-stroke="true" ffdec:original-stroke-width="1.0" fill="none" stroke="#000000" stroke-linecap="round" stroke-linejoin="round" stroke-width="1.870186002486995"/>
      <path d="M0.8 0.55 L0.6 1.05 0.1 1.25 Q-0.2 1.25 -0.4 1.05 L-0.6 0.55 -0.4 0.05 0.1 -0.15 0.6 0.05 0.8 0.55" fill="#ffffff" fill-rule="evenodd" stroke="none"/>
      <path d="M0.8 0.55 L0.6 1.05 0.1 1.25 Q-0.2 1.25 -0.4 1.05 L-0.6 0.55 -0.4 0.05 0.1 -0.15 0.6 0.05 0.8 0.55 Z" ffdec:has-small-stroke="true" ffdec:original-stroke-width="0.1" fill="none" stroke="#646464" stroke-linecap="round" stroke-linejoin="round" stroke-width="1.870186002486995"/>
    </g>
    <g id="sprite7">
      <use ffdec:characterId="12" height="1.65" transform="matrix(1.0, 0.0, 0.0, 1.0, 0.0, 0.0)" width="2.65" xlink:href="#shape11"/>
    </g>
    <g id="shape11">
      <path d="M1.5 0.95 L1.15 0.85" ffdec:has-small-stroke="true" ffdec:original-stroke-width="1.0" fill="none" stroke="#000000" stroke-linecap="round" stroke-linejoin="round" stroke-width="1.870186002486995"/>
      <path d="M0.8 0.55 L0.6 1.05 0.1 1.25 Q-0.2 1.25 -0.4 1.05 L-0.6 0.55 -0.4 0.05 0.1 -0.15 0.6 0.05 0.8 0.55" fill="#ffffff" fill-rule="evenodd" stroke="none"/>
      <path d="M0.8 0.55 L0.6 1.05 0.1 1.25 Q-0.2 1.25 -0.4 1.05 L-0.6 0.55 -0.4 0.05 0.1 -0.15 0.6 0.05 0.8 0.55 Z" ffdec:has-small-stroke="true" ffdec:original-stroke-width="0.1" fill="none" stroke="#646464" stroke-linecap="round" stroke-linejoin="round" stroke-width="1.870186002486995"/>
    </g>
    <g id="sprite8">
      <use ffdec:characterId="12" height="1.65" transform="matrix(1.0, 0.0, 0.0, 1.0, 0.0, 0.0)" width="2.65" xlink:href="#shape12"/>
    </g>
    <g id="shape12">
      <path d="M1.5 0.95 L1.15 0.85" ffdec:has-small-stroke="true" ffdec:original-stroke-width="1.0" fill="none" stroke="#000000" stroke-linecap="round" stroke-linejoin="round" stroke-width="1.870186002486995"/>
      <path d="M0.8 0.55 L0.6 1.05 0.1 1.25 Q-0.2 1.25 -0.4 1.05 L-0.6 0.55 -0.4 0.05 0.1 -0.15 0.6 0.05 0.8 0.55" fill="#ffffff" fill-rule="evenodd" stroke="none"/>
      <path d="M0.8 0.55 L0.6 1.05 0.1 1.25 Q-0.2 1.25 -0.4 1.05 L-0.6 0.55 -0.4 0.05 0.1 -0.15 0.6 0.05 0.8 0.55 Z" ffdec:has-small-stroke="true" ffdec:original-stroke-width="0.1" fill="none" stroke="#646464" stroke-linecap="round" stroke-linejoin="round" stroke-width="1.870186002486995"/>
    </g>
    <g id="sprite9">
      <use ffdec:characterId="12" height="1.65" transform="matrix(1.0, 0.0, 0.0, 1.0, 0.0, 0.0)" width="2.65" xlink:href="#shape13"/>
    </g>
    <g id="shape13">
      <path d="M1.5 0.95 L1.15 0.85" ffdec:has-small-stroke="true" ffdec:original-stroke-width="1.0" fill="none" stroke="#000000" stroke-linecap="round" stroke-linejoin="round" stroke-width="1.870186002486995"/>
      <path d="M0.8 0.55 L0.6 1.05 0.1 1.25 Q-0.2 1.25 -0.4 1.05 L-0.6 0.55 -0.4 0.05 0.1 -0.15 0.6 0.05 0.8 0.55" fill="#ffffff" fill-rule="evenodd" stroke="none"/>
      <path d="M0.8 0.55 L0.6 1.05 0.1 1.25 Q-0.2 1.25 -0.4 1.05 L-0.6 0.55 -0.4 0.05 0.1 -0.15 0.6 0.05 0.8 0.55 Z" ffdec:has-small-stroke="true" ffdec:original-stroke-width="0.1" fill="none" stroke="#646464" stroke-linecap="round" stroke-linejoin="round" stroke-width="1.870186002486995"/>
    </g>
    <g id="sprite10">
      <use ffdec:characterId="12" height="1.65" transform="matrix(1.0, 0.0, 0.0, 1.0, 0.0, 0.0)" width="2.65" xlink:href="#shape14"/>
    </g>
    <g id="shape14">
      <path d="M1.5 0.95 L1.15 0.85" ffdec:has-small-stroke="true" ffdec:original-stroke-width="1.0" fill="none" stroke="#000000" stroke-linecap="round" stroke-linejoin="round" stroke-width="1.870186002486995"/>
      <path d="M0.8 0.55 L0.6 1.05 0.1 1.25 Q-0.2 1.25 -0.4 1.05 L-0.6 0.55 -0.4 0.05 0.1 -0.15 0.6 0.05 0.8 0.55" fill="#ffffff" fill-rule="evenodd" stroke="none"/>
      <path d="M0.8 0.55 L0.6 1.05 0.1 1.25 Q-0.2 1.25 -0.4 1.05 L-0.6 0.55 -0.4 0.05 0.1 -0.15 0.6 0.05 0.8 0.55 Z" ffdec:has-small-stroke="true" ffdec:original-stroke-width="0.1" fill="none" stroke="#646464" stroke-linecap="round" stroke-linejoin="round" stroke-width="1.870186002486995"/>
    </g>
    <g id="sprite11">
      <use ffdec:characterId="12" height="1.65" transform="matrix(1.0, 0.0, 0.0, 1.0, 0.0, 0.0)" width="2.65" xlink:href="#shape15"/>
    </g>
    <g id="shape15">
      <path d="M1.5 0.95 L1.15 0.85" ffdec:has-small-stroke="true" ffdec:original-stroke-width="1.0" fill="none" stroke="#000000" stroke-linecap="round" stroke-linejoin="round" stroke-width="1.870186002486995"/>
      <path d="M0.8 0.55 L0.6 1.05 0.1 1.25 Q-0.2 1.25 -0.4 1.05 L-0.6 0.55 -0.4 0.05 0.1 -0.15 0.6 0.05 0.8 0.55" fill="#ffffff" fill-rule="evenodd" stroke="none"/>
      <path d="M0.8 0.55 L0.6 1.05 0.1 1.25 Q-0.2 1.25 -0.4 1.05 L-0.6 0.55 -0.4 0.05 0.1 -0.15 0.6 0.05 0.8 0.55 Z" ffdec:has-small-stroke="true" ffdec:original-stroke-width="0.1" fill="none" stroke="#646464" stroke-linecap="round" stroke-linejoin="round" stroke-width="1.870186002486995"/>
    </g>
    <g id="shape16">
      <path d="M13.7 15.35 L12.4 14.0 15.9 2.95 Q16.8 -0.75 20.75 0.95 L19.5 5.55 20.35 11.8 17.9 14.45 17.9 15.35 13.7 15.35" fill="#ff0bf7" fill-rule="evenodd" stroke="none"/>
      <path d="M17.9 15.35 L17.9 16.5 13.65 16.5 13.7 15.35 17.9 15.35" fill="#e6dfd9" fill-rule="evenodd" stroke="none"/>
      <path d="M17.25 57.15 L17.25 70.4 12.2 70.4 12.75 57.15 17.25 57.15" fill="#c7bcbc" fill-rule="evenodd" stroke="none"/>
      <path d="M17.25 70.4 L17.95 70.4 17.95 71.15 10.8 71.15 10.8 70.4 12.2 70.4 17.25 70.4" fill="#957e72" fill-rule="evenodd" stroke="none"/>
      <path d="M17.95 71.15 L17.95 72.35 18.55 72.35 18.55 74.25 10.8 74.25 10.8 71.15 17.95 71.15" fill="#604b40" fill-rule="evenodd" stroke="none"/>
      <path d="M13.7 15.35 L12.4 14.0 15.9 2.95 Q16.8 -0.75 20.75 0.95 L19.5 5.55 20.35 11.8 17.9 14.45 17.9 15.35 17.9 16.5 17.9 57.15 17.25 57.15 12.75 57.15 12.1 57.15 13.65 16.5 13.7 15.35 M17.25 70.4 L17.95 70.4 17.95 71.15 17.95 72.35 18.55 72.35 18.55 74.25 10.8 74.25 10.8 71.15 10.8 70.4 12.2 70.4 17.25 70.4 Z" ffdec:has-small-stroke="true" ffdec:original-stroke-width="0.5" fill="none" stroke="#000000" stroke-linecap="round" stroke-linejoin="round" stroke-width="1.8701488861551412"/>
      <path d="M14.6 74.05 L14.95 57.1 M15.9 74.05 L16.25 57.1 M13.4 74.05 L13.8 57.1" ffdec:has-small-stroke="true" ffdec:original-stroke-width="0.25" fill="none" stroke="#514243" stroke-linecap="round" stroke-linejoin="round" stroke-width="1.8701488861551412"/>
      <path d="M14.95 57.1 L15.85 15.4 M16.25 57.1 L17.1 15.4 M13.8 57.1 L14.7 15.4" ffdec:has-small-stroke="true" ffdec:original-stroke-width="0.25" fill="none" stroke="#3a2b2c" stroke-linecap="round" stroke-linejoin="round" stroke-width="1.8701488861551412"/>
      <path d="M14.7 15.4 L14.85 8.7 M17.1 15.4 L17.35 2.8 M15.85 15.4 L16.05 5.15" ffdec:has-small-stroke="true" ffdec:original-stroke-width="0.5" fill="none" stroke="#918e8c" stroke-linecap="round" stroke-linejoin="round" stroke-width="1.8701488861551412"/>
    </g>
    <g id="sprite12">
      <use ffdec:characterId="15" height="1.4" transform="matrix(1.0, 0.0, 0.0, 1.0, 0.0, 0.0)" width="1.4" xlink:href="#shape17"/>
    </g>
    <g id="shape17">
      <path d="M1.3 0.65 L1.1 1.1 0.65 1.3 Q0.4 1.3 0.2 1.1 L0.0 0.65 0.2 0.2 Q0.4 0.0 0.65 0.0 L1.1 0.2 1.3 0.65" fill="#9c8380" fill-rule="evenodd" stroke="none"/>
      <path d="M1.3 0.65 L1.1 1.1 0.65 1.3 Q0.4 1.3 0.2 1.1 L0.0 0.65 0.2 0.2 Q0.4 0.0 0.65 0.0 L1.1 0.2 1.3 0.65 Z" ffdec:has-small-stroke="true" ffdec:original-stroke-width="0.1" fill="none" stroke="#5c4542" stroke-linecap="round" stroke-linejoin="round" stroke-width="1.8701488861551412"/>
    </g>
    <g id="sprite13">
      <use ffdec:characterId="15" height="1.4" transform="matrix(1.0, 0.0, 0.0, 1.0, 0.0, 0.0)" width="1.4" xlink:href="#shape18"/>
    </g>
    <g id="shape18">
      <path d="M1.3 0.65 L1.1 1.1 0.65 1.3 Q0.4 1.3 0.2 1.1 L0.0 0.65 0.2 0.2 Q0.4 0.0 0.65 0.0 L1.1 0.2 1.3 0.65" fill="#9c8380" fill-rule="evenodd" stroke="none"/>
      <path d="M1.3 0.65 L1.1 1.1 0.65 1.3 Q0.4 1.3 0.2 1.1 L0.0 0.65 0.2 0.2 Q0.4 0.0 0.65 0.0 L1.1 0.2 1.3 0.65 Z" ffdec:has-small-stroke="true" ffdec:original-stroke-width="0.1" fill="none" stroke="#5c4542" stroke-linecap="round" stroke-linejoin="round" stroke-width="1.8701488861551412"/>
    </g>
    <g id="sprite14">
      <use ffdec:characterId="15" height="1.4" transform="matrix(1.0, 0.0, 0.0, 1.0, 0.0, 0.0)" width="1.4" xlink:href="#shape19"/>
    </g>
    <g id="shape19">
      <path d="M1.3 0.65 L1.1 1.1 0.65 1.3 Q0.4 1.3 0.2 1.1 L0.0 0.65 0.2 0.2 Q0.4 0.0 0.65 0.0 L1.1 0.2 1.3 0.65" fill="#9c8380" fill-rule="evenodd" stroke="none"/>
      <path d="M1.3 0.65 L1.1 1.1 0.65 1.3 Q0.4 1.3 0.2 1.1 L0.0 0.65 0.2 0.2 Q0.4 0.0 0.65 0.0 L1.1 0.2 1.3 0.65 Z" ffdec:has-small-stroke="true" ffdec:original-stroke-width="0.1" fill="none" stroke="#5c4542" stroke-linecap="round" stroke-linejoin="round" stroke-width="1.8701488861551412"/>
    </g>
    <g id="sprite15">
      <use ffdec:characterId="15" height="1.4" transform="matrix(1.0, 0.0, 0.0, 1.0, 0.0, 0.0)" width="1.4" xlink:href="#shape20"/>
    </g>
    <g id="shape20">
      <path d="M1.3 0.65 L1.1 1.1 0.65 1.3 Q0.4 1.3 0.2 1.1 L0.0 0.65 0.2 0.2 Q0.4 0.0 0.65 0.0 L1.1 0.2 1.3 0.65" fill="#9c8380" fill-rule="evenodd" stroke="none"/>
      <path d="M1.3 0.65 L1.1 1.1 0.65 1.3 Q0.4 1.3 0.2 1.1 L0.0 0.65 0.2 0.2 Q0.4 0.0 0.65 0.0 L1.1 0.2 1.3 0.65 Z" ffdec:has-small-stroke="true" ffdec:original-stroke-width="0.1" fill="none" stroke="#5c4542" stroke-linecap="round" stroke-linejoin="round" stroke-width="1.8701488861551412"/>
    </g>
    <g id="sprite16">
      <use ffdec:characterId="15" height="1.4" transform="matrix(1.0, 0.0, 0.0, 1.0, 0.0, 0.0)" width="1.4" xlink:href="#shape21"/>
    </g>
    <g id="shape21">
      <path d="M1.3 0.65 L1.1 1.1 0.65 1.3 Q0.4 1.3 0.2 1.1 L0.0 0.65 0.2 0.2 Q0.4 0.0 0.65 0.0 L1.1 0.2 1.3 0.65" fill="#9c8380" fill-rule="evenodd" stroke="none"/>
      <path d="M1.3 0.65 L1.1 1.1 0.65 1.3 Q0.4 1.3 0.2 1.1 L0.0 0.65 0.2 0.2 Q0.4 0.0 0.65 0.0 L1.1 0.2 1.3 0.65 Z" ffdec:has-small-stroke="true" ffdec:original-stroke-width="0.1" fill="none" stroke="#5c4542" stroke-linecap="round" stroke-linejoin="round" stroke-width="1.8701488861551412"/>
    </g>
    <g id="sprite17">
      <use ffdec:characterId="15" height="1.4" transform="matrix(1.0, 0.0, 0.0, 1.0, 0.0, 0.0)" width="1.4" xlink:href="#shape22"/>
    </g>
    <g id="shape22">
      <path d="M1.3 0.65 L1.1 1.1 0.65 1.3 Q0.4 1.3 0.2 1.1 L0.0 0.65 0.2 0.2 Q0.4 0.0 0.65 0.0 L1.1 0.2 1.3 0.65" fill="#9c8380" fill-rule="evenodd" stroke="none"/>
      <path d="M1.3 0.65 L1.1 1.1 0.65 1.3 Q0.4 1.3 0.2 1.1 L0.0 0.65 0.2 0.2 Q0.4 0.0 0.65 0.0 L1.1 0.2 1.3 0.65 Z" ffdec:has-small-stroke="true" ffdec:original-stroke-width="0.1" fill="none" stroke="#5c4542" stroke-linecap="round" stroke-linejoin="round" stroke-width="1.8701488861551412"/>
    </g>
    <g id="shape23">
      <path d="M12.4 49.85 Q11.75 51.05 10.45 51.35 9.15 51.6 8.35 50.8 7.5 50.0 7.05 48.9 L6.7 47.85 6.4 46.45 Q6.2 44.4 5.25 44.3 L4.95 44.3 Q4.15 44.4 3.5 45.5 0.8 49.5 3.95 55.7 L4.05 55.85 4.3 56.4 Q6.4 61.25 2.95 66.85 1.05 69.7 0.8 71.45 0.55 72.75 0.55 74.25 0.8 76.95 2.65 78.9 4.15 80.55 6.7 81.65 L7.55 82.0 Q15.05 84.0 21.85 82.35 L21.9 82.35 Q26.3 81.25 28.2 78.95 29.2 77.75 29.55 76.2 30.5 71.7 27.2 66.7 L25.9 64.5 25.4 63.35 Q24.7 61.65 26.0 59.6 28.7 55.4 28.1 52.0 27.85 50.5 26.55 50.0 L26.4 49.95 25.45 50.0 Q24.7 50.3 24.4 51.55 24.35 53.15 22.75 54.35 L21.9 54.75 21.3 54.9 Q19.45 55.2 17.9 53.65" ffdec:has-small-stroke="true" ffdec:original-stroke-width="0.5" fill="none" stroke="#000000" stroke-linecap="round" stroke-linejoin="round" stroke-width="1.8701488861551412"/>
      <path d="M13.7 15.35 L17.9 15.35" ffdec:has-small-stroke="true" ffdec:original-stroke-width="0.5" fill="none" stroke="#000000" stroke-linecap="round" stroke-linejoin="round" stroke-width="1.8701488861551412"/>
      <path d="M13.65 16.5 L17.9 16.5" ffdec:has-small-stroke="true" ffdec:original-stroke-width="0.5" fill="none" stroke="#000000" stroke-linecap="round" stroke-linejoin="round" stroke-width="1.8701488861551412"/>
    </g>
    <g id="sprite18">
      <use ffdec:characterId="18" height="6.1" transform="matrix(1.0, 0.0, 0.0, 1.0, 0.0, 0.0)" width="7.2" xlink:href="#shape24"/>
    </g>
    <g id="shape24">
      <path d="M4.05 1.35 Q5.25 2.25 5.8 3.25 6.45 4.35 6.1 4.8 L4.55 4.95 Q3.45 4.65 2.25 3.75 L0.35 1.8 Q-0.25 0.8 0.15 0.3 0.5 -0.15 1.6 0.1 2.8 0.4 4.05 1.35 Z" ffdec:has-small-stroke="true" ffdec:original-stroke-width="1.0" fill="none" stroke="#000000" stroke-linecap="round" stroke-linejoin="round" stroke-width="1.8701488861551412"/>
      <path d="M4.05 1.35 Q5.25 2.25 5.8 3.25 6.45 4.35 6.1 4.8 L4.55 4.95 Q3.45 4.65 2.25 3.75 L0.35 1.8 Q-0.25 0.8 0.15 0.3 0.5 -0.15 1.6 0.1 2.8 0.4 4.05 1.35" fill="#fffdfe" fill-rule="evenodd" stroke="none"/>
      <path d="M5.35 3.5 L5.7 4.5 4.7 4.45 Q3.65 4.2 2.55 3.35 1.45 2.5 0.85 1.65 L0.8 1.55 Q0.4 0.9 0.55 0.6 0.8 0.45 1.5 0.6 2.6 0.9 3.75 1.75 4.85 2.6 5.35 3.5" fill="#ff0bf7" fill-rule="evenodd" stroke="none"/>
    </g>
    <g id="shape25">
      <path d="M-5.6 21.05 L-3.8 20.7 Q-3.0 20.25 -2.5 20.85 L-2.5 21.05 Q-2.45 21.45 -2.85 21.8 L-3.2 22.05 -3.55 22.2 -3.35 22.2 Q-3.3 23.6 -5.05 23.25 -6.75 22.85 -6.7 22.5 L-6.6 22.0 -6.45 21.6 -5.6 21.05" fill="#fff0e2" fill-rule="evenodd" stroke="none"/>
      <path d="M-3.35 22.2 L-3.2 22.25 Q-1.9 22.7 -3.2 24.85 L-3.3 24.9 -3.35 24.95 -4.85 26.05 -5.05 26.15 -6.4 26.3 -6.6 26.25 -7.4 25.95 -7.8 25.55 -8.05 25.05 Q-8.5 23.55 -6.8 21.95 -6.7 21.25 -6.0 21.05 L-5.6 21.05 -6.45 21.6 -6.6 22.0 -6.7 22.5 Q-6.75 22.85 -5.05 23.25 -3.3 23.6 -3.35 22.2" fill="#ffd4aa" fill-rule="evenodd" stroke="none"/>
      <path d="M-3.35 22.2 L-3.2 22.25 Q-1.9 22.7 -3.2 24.85 L-3.3 24.9 -3.35 24.95 -4.85 26.05 -5.05 26.15 -6.4 26.3 -6.6 26.25 -7.4 25.95 -7.8 25.55 -8.05 25.05 Q-8.5 23.55 -6.8 21.95 -6.7 21.25 -6.0 21.05 L-5.6 21.05" ffdec:has-small-stroke="true" ffdec:original-stroke-width="0.1" fill="none" stroke="#b2593b" stroke-linecap="square" stroke-linejoin="round" stroke-width="1.0"/>
      <path d="M8.3 30.05 L7.85 30.35 6.65 30.5 5.5 30.35 Q5.0 30.2 5.0 30.05 L5.05 29.95 8.3 29.95 8.3 30.05" fill="#c1bac6" fill-rule="evenodd" stroke="none"/>
    </g>
    <g id="sprite19">
      <use ffdec:characterId="62" height="8.4" transform="matrix(1.0, 0.0, 0.0, 1.0, 0.0, 0.0)" width="6.7" xlink:href="#shape26"/>
    </g>
    <g id="shape26">
      <path d="M2.85 6.55 Q3.15 7.35 4.2 7.95 L2.8 8.4 Q1.85 8.15 0.7 6.2 -0.45 4.25 0.25 2.45 0.9 0.65 3.45 0.0 4.35 1.5 6.7 2.4 6.75 6.05 4.95 7.8 L2.85 6.55" fill="#000000" fill-rule="evenodd" stroke="none"/>
    </g>
    <g id="sprite20">
      <use ffdec:characterId="27" height="2.05" transform="matrix(1.0, 0.0, 0.0, 1.0, 0.0, 0.0)" width="1.85" xlink:href="#shape27"/>
    </g>
    <g id="shape27">
      <path d="M1.85 1.0 L1.55 1.75 Q1.3 2.05 0.95 2.05 0.55 2.05 0.3 1.75 0.0 1.5 0.0 1.0 0.0 0.55 0.3 0.3 0.55 0.0 0.95 0.0 1.3 0.0 1.55 0.3 L1.85 1.0" fill="#9d9d9d" fill-rule="evenodd" stroke="none"/>
    </g>
    <g id="sprite21">
      <use ffdec:characterId="29" height="2.05" transform="matrix(1.0, 0.0, 0.0, 1.0, 0.0, 0.0)" width="1.85" xlink:href="#shape28"/>
    </g>
    <g id="shape28">
      <path d="M1.85 1.05 L1.55 1.75 Q1.3 2.05 0.95 2.05 0.55 2.05 0.3 1.75 0.0 1.5 0.0 1.05 0.0 0.55 0.3 0.3 0.55 0.0 0.95 0.0 1.3 0.0 1.55 0.3 L1.85 1.05" fill="#e4f6ff" fill-rule="evenodd" stroke="none"/>
    </g>
    <g id="sprite22">
      <use ffdec:characterId="22" height="4.5" transform="matrix(1.0, 0.0, 0.0, 1.0, 0.0, 0.0)" width="5.9" xlink:href="#shape29"/>
    </g>
    <g id="shape29">
      <path d="M4.95 2.75 Q4.95 3.4 4.2 3.95 3.45 4.45 2.35 4.45 1.25 4.45 0.5 3.95 -0.25 3.4 0.1 2.35 0.4 1.25 1.25 0.6 L2.8 0.5 4.0 1.45 4.0 1.4 Q4.0 0.9 4.3 0.6 4.55 0.25 4.9 0.25 5.25 0.25 5.55 0.6 L5.8 1.4 5.55 2.25 Q5.25 2.55 4.95 2.55 L4.95 2.75" fill="#fdbf81" fill-rule="evenodd" stroke="none"/>
      <path d="M4.95 2.75 Q4.95 3.4 4.2 3.95 3.45 4.45 2.35 4.45 1.25 4.45 0.5 3.95 -0.25 3.4 0.1 2.35 0.4 1.25 1.25 0.6 L2.8 0.5 4.0 1.45 4.0 1.4 Q4.0 0.9 4.3 0.6 4.55 0.25 4.9 0.25 5.25 0.25 5.55 0.6 L5.8 1.4 5.55 2.25 Q5.25 2.55 4.95 2.55 L4.95 2.75 Z" ffdec:has-small-stroke="true" ffdec:original-stroke-width="0.1" fill="none" stroke="#b2593b" stroke-linecap="square" stroke-linejoin="round" stroke-width="1.0"/>
      <path d="M4.4 1.9 L3.85 2.6 2.5 2.8 1.15 2.6 Q0.6 2.3 0.65 1.75 0.7 1.2 1.35 0.7 2.0 0.15 2.65 0.55 L3.9 1.25 Q4.4 1.55 4.4 1.9" fill="#ffe1c4" fill-rule="evenodd" stroke="none"/>
      <path d="M5.4 0.8 L5.2 1.35 4.65 1.6 Q4.35 1.6 4.15 1.35 3.9 1.15 3.9 0.8 3.9 0.45 4.15 0.2 L4.65 0.0 5.2 0.2 5.4 0.8" fill="#ffe1c4" fill-rule="evenodd" stroke="none"/>
    </g>
  </defs>
</svg>
