<?xml version="1.0" encoding="UTF-8" standalone="no"?>
<svg xmlns:ffdec="https://www.free-decompiler.com/flash" xmlns:xlink="http://www.w3.org/1999/xlink" ffdec:objectType="frame" height="19.5px" width="37.25px" xmlns="http://www.w3.org/2000/svg">
  <g transform="matrix(1.0, 0.0, 0.0, 1.0, 19.45, -13.8)">
    <use ffdec:characterId="37" height="19.5" transform="matrix(1.0, 0.0, 0.0, 1.0, -19.45, 13.8)" width="37.25" xlink:href="#sprite0"/>
  </g>
  <defs>
    <g id="sprite0">
      <use ffdec:characterId="36" height="16.4" transform="matrix(1.0, 0.0, 0.0, 1.0, 0.0, 0.0)" width="23.05" xlink:href="#shape0"/>
      <use ffdec:characterId="29" height="14.45" transform="matrix(1.0, 0.0, 0.0, 1.0, 5.6, 0.65)" width="12.65" xlink:href="#sprite1"/>
      <use ffdec:characterId="29" height="14.45" transform="matrix(-1.0, 0.0, 0.0, 1.0, 31.65, 0.15)" width="12.65" xlink:href="#sprite1"/>
      <use ffdec:characterId="6" height="2.85" transform="matrix(1.0, 0.0, 0.0, 1.0, 15.75, 4.5)" width="2.5" xlink:href="#sprite2"/>
      <use ffdec:characterId="6" height="2.85" transform="matrix(0.8, 0.0, 0.0, 0.8, 19.4, 4.85)" width="2.5" xlink:href="#sprite3"/>
      <use ffdec:characterId="6" height="2.85" transform="matrix(0.5714, 0.0, 0.0, 0.5714, 23.1, 5.3)" width="2.5" xlink:href="#sprite4"/>
      <use ffdec:characterId="6" height="2.85" transform="matrix(1.0, 0.0, 0.0, 1.0, 20.9, 9.3)" width="2.5" xlink:href="#sprite2"/>
      <use ffdec:characterId="6" height="2.85" transform="matrix(0.8, 0.0, 0.0, 0.8, 16.85, 9.65)" width="2.5" xlink:href="#sprite5"/>
      <use ffdec:characterId="32" height="4.35" transform="matrix(1.0, 0.0, 0.0, 1.0, 13.7, 16.25)" width="6.4" xlink:href="#sprite6"/>
      <use ffdec:characterId="32" height="4.35" transform="matrix(1.0, 0.0, 0.0, 1.0, 20.65, 16.25)" width="6.4" xlink:href="#sprite6"/>
    </g>
    <g id="shape0">
      <path d="M8.6 10.8 L8.75 10.55 8.9 10.3 8.9 10.05 10.25 6.2 29.1 6.2 30.45 10.0 30.4 10.3 30.55 10.55 30.75 10.8 Q31.3 11.85 31.15 12.9 L30.95 13.4 30.5 13.9 30.5 13.95 30.4 14.0 30.3 14.1 30.2 14.2 28.55 15.3 28.5 15.35 Q25.45 17.0 19.7 16.9 L19.6 16.9 Q14.05 16.95 10.95 15.4 L10.85 15.3 9.1 14.2 9.0 14.1 8.9 14.0 8.8 13.9 8.4 13.4 8.2 12.95 8.2 12.9 Q8.05 11.85 8.6 10.8" fill="#533a2b" fill-rule="evenodd" stroke="none"/>
      <path d="M29.55 11.05 L29.85 11.75 Q30.25 12.5 30.15 13.25 L29.7 13.8 29.6 13.9 28.05 14.9 Q25.15 16.5 19.7 16.4 L19.6 16.4 Q14.2 16.45 11.25 14.9 L9.7 13.9 9.6 13.8 9.15 13.25 Q9.05 12.5 9.45 11.75 L9.75 11.05 Q12.8 15.05 19.55 15.0 L19.6 15.0 19.7 15.0 19.75 15.0 Q26.5 15.05 29.55 11.05" fill="#876049" fill-rule="evenodd" stroke="none"/>
      <path d="M9.75 11.05 L12.0 4.65 Q11.4 3.0 12.7 2.0 L13.5 1.55 13.6 1.5 Q15.55 0.6 19.6 0.5 L19.7 0.5 Q23.75 0.6 25.7 1.5 L25.8 1.55 26.6 2.0 Q27.9 3.0 27.3 4.65 L29.55 11.05 Q26.5 15.05 19.75 15.0 L19.7 15.0 19.6 15.0 19.55 15.0 Q12.8 15.05 9.75 11.05" fill="#d8baa8" fill-rule="evenodd" stroke="none"/>
    </g>
    <g id="sprite1">
      <use ffdec:characterId="28" height="14.45" transform="matrix(1.0, 0.0, 0.0, 1.0, 0.0, 0.0)" width="12.65" xlink:href="#shape1"/>
    </g>
    <g id="shape1">
      <path d="M-2.4 4.45 L-1.5 4.25 -1.25 4.2 1.4 3.2 1.95 2.4 Q3.65 0.25 6.9 -0.15 L6.9 0.15 6.8 0.05 6.85 0.1 6.9 0.45 7.05 1.45 Q7.2 3.9 5.85 6.05 L5.1 7.1 5.05 7.15 4.8 7.3 5.6 7.15 6.55 6.6 Q6.8 12.0 1.55 13.95 L-0.45 14.3 -1.1 13.95 Q-1.7 13.45 -1.45 12.75 L-0.85 12.15 -0.05 11.7 Q-2.05 12.05 -4.35 11.2 L-5.3 10.65 Q-5.75 10.2 -5.5 9.65 -5.35 9.4 -4.8 9.25 L-4.2 9.05 -2.75 8.45 -0.95 7.5 Q-2.9 7.5 -4.6 6.3 -5.2 5.8 -5.15 5.3 -5.15 4.8 -4.5 4.6 L-3.55 4.5 -3.5 4.5 -2.4 4.45" fill="#4c3434" fill-rule="evenodd" stroke="none"/>
      <path d="M6.85 0.1 Q7.55 3.15 6.05 5.75 L5.95 5.9 5.55 6.55 5.2 7.0 5.1 7.1 4.8 7.3 5.9 7.0 5.95 6.95 6.1 6.9 5.95 7.0 Q5.55 11.7 -0.1 12.3 -0.8 10.55 1.65 10.5 L2.0 10.25 Q2.4 9.85 2.2 9.65 1.6 8.9 0.1 9.65 -1.8 10.5 -3.45 10.05 L-3.5 10.05 -3.65 9.95 Q-4.55 9.25 -3.65 8.55 L-3.45 8.45 -1.3 8.05 -1.15 7.95 1.1 6.1 0.6 6.15 -2.6 5.95 Q-3.65 5.45 -3.75 4.95 L-3.7 4.85 -3.45 4.65 Q-2.25 3.8 0.15 4.65 L0.2 4.65 2.0 4.25 3.05 3.7 6.8 0.1 6.85 0.1" fill="#f4f4f4" fill-rule="evenodd" stroke="none"/>
    </g>
    <g id="sprite2">
      <use ffdec:characterId="5" height="2.85" transform="matrix(1.0, 0.0, 0.0, 1.0, 0.0, 0.0)" width="2.5" xlink:href="#shape2"/>
    </g>
    <g id="shape2">
      <path d="M0.0 0.0 L0.65 1.85 1.5 0.0" fill="none" stroke="#fff7db" stroke-linecap="round" stroke-linejoin="round" stroke-width="1.0"/>
    </g>
    <g id="sprite3">
      <use ffdec:characterId="5" height="2.85" transform="matrix(1.0, 0.0, 0.0, 1.0, 0.0, 0.0)" width="2.5" xlink:href="#shape3"/>
    </g>
    <g id="shape3">
      <path d="M0.0 0.0 L0.65 1.85 1.5 0.0" ffdec:has-small-stroke="true" ffdec:original-stroke-width="1.0" fill="none" stroke="#fff7db" stroke-linecap="round" stroke-linejoin="round" stroke-width="1.2500190737773709"/>
    </g>
    <g id="sprite4">
      <use ffdec:characterId="5" height="2.85" transform="matrix(1.0, 0.0, 0.0, 1.0, 0.0, 0.0)" width="2.5" xlink:href="#shape4"/>
    </g>
    <g id="shape4">
      <path d="M0.0 0.0 L0.65 1.85 1.5 0.0" ffdec:has-small-stroke="true" ffdec:original-stroke-width="1.0" fill="none" stroke="#fff7db" stroke-linecap="round" stroke-linejoin="round" stroke-width="1.750053407391583"/>
    </g>
    <g id="sprite5">
      <use ffdec:characterId="5" height="2.85" transform="matrix(1.0, 0.0, 0.0, 1.0, 0.0, 0.0)" width="2.5" xlink:href="#shape5"/>
    </g>
    <g id="shape5">
      <path d="M0.0 0.0 L0.65 1.85 1.5 0.0" ffdec:has-small-stroke="true" ffdec:original-stroke-width="1.0" fill="none" stroke="#fff7db" stroke-linecap="round" stroke-linejoin="round" stroke-width="1.2500190737773709"/>
    </g>
    <g id="sprite6">
      <use ffdec:characterId="31" height="4.35" transform="matrix(1.0, 0.0, 0.0, 1.0, 0.0, 0.0)" width="6.4" xlink:href="#shape6"/>
    </g>
    <g id="shape6">
      <path d="M4.9 1.5 L2.45 0.0 2.45 2.5 M0.0 1.5 L2.45 0.0" fill="none" stroke="#eccf4d" stroke-linecap="round" stroke-linejoin="round" stroke-width="1.5"/>
      <path d="M3.9 0.0 L3.5 0.75 2.45 1.05 Q1.85 1.05 1.45 0.75 L1.0 0.0 Q1.0 -0.45 1.45 -0.8 1.85 -1.1 2.45 -1.1 L3.5 -0.8 Q3.9 -0.45 3.9 0.0" fill="#eccf4d" fill-rule="evenodd" stroke="none"/>
    </g>
  </defs>
</svg>
