<?xml version="1.0" encoding="UTF-8" standalone="no"?>
<svg xmlns:ffdec="https://www.free-decompiler.com/flash" xmlns:xlink="http://www.w3.org/1999/xlink" ffdec:objectType="frame" height="20.95px" width="31.0px" xmlns="http://www.w3.org/2000/svg">
  <g transform="matrix(1.0, 0.0, 0.0, 1.0, 15.6, -14.7)">
    <use ffdec:characterId="15" height="9.0" transform="matrix(1.0, 0.0, 0.0, 1.0, -14.0, 26.65)" width="14.1" xlink:href="#sprite0"/>
    <use ffdec:characterId="15" height="9.0" transform="matrix(-1.0, 0.0, 0.0, 1.0, 13.9, 26.65)" width="14.1" xlink:href="#sprite0"/>
    <use ffdec:characterId="17" height="17.55" transform="matrix(0.9412, 0.0, 0.0, 0.85, -8.05, 14.95)" width="17.1" xlink:href="#sprite1"/>
    <use ffdec:characterId="6" height="15.0" transform="matrix(1.0, 0.0, 0.0, 1.0, -14.85, 15.9)" width="11.6" xlink:href="#sprite2"/>
    <use ffdec:characterId="6" height="15.0" transform="matrix(-1.0, 0.0, 0.0, 1.0, 14.65, 15.9)" width="11.6" xlink:href="#sprite3"/>
  </g>
  <defs>
    <g id="sprite0">
      <use ffdec:characterId="14" height="9.0" transform="matrix(1.0, 0.0, 0.0, 1.0, 0.0, 0.0)" width="14.1" xlink:href="#shape0"/>
    </g>
    <g id="shape0">
      <path d="M1.1 4.15 Q1.15 3.05 3.25 1.65 5.3 0.3 7.8 0.05 L8.45 0.25 9.65 0.35 11.5 0.85 12.25 1.85 12.85 2.8 13.35 4.0 13.2 4.5 13.15 4.45 Q12.55 3.45 11.5 2.8 10.45 2.1 9.15 1.9 8.25 2.6 7.65 3.9 L6.65 6.2 6.05 7.7 5.9 7.7 Q5.15 7.7 5.35 5.7 L5.45 4.35 7.0 1.7 Q4.85 2.1 3.65 2.65 2.3 3.3 1.1 4.15" fill="#ffea54" fill-rule="evenodd" stroke="none"/>
      <path d="M13.2 4.5 L12.95 4.55 12.4 4.25 Q12.05 3.95 11.95 3.95 L10.8 3.6 Q9.85 3.4 8.2 5.5 6.65 7.5 6.05 7.7 L6.65 6.2 7.65 3.9 Q8.25 2.6 9.15 1.9 10.45 2.1 11.5 2.8 12.55 3.45 13.15 4.45 L13.2 4.5 M5.45 4.35 L5.45 4.0 Q5.45 3.8 4.95 3.75 L4.45 3.7 1.15 4.25 1.1 4.15 Q2.3 3.3 3.65 2.65 4.85 2.1 7.0 1.7 L5.45 4.35" fill="#b05900" fill-rule="evenodd" stroke="none"/>
      <path d="M9.6 0.4 Q11.4 0.4 12.45 1.1 13.25 1.65 13.7 2.7 14.15 3.7 14.1 4.55 14.0 5.4 13.4 5.15 L11.8 4.75 10.4 4.65 Q9.4 6.25 7.65 7.8 5.9 9.35 5.35 8.9 4.8 8.45 4.55 5.7 L4.55 4.9 3.7 4.9 0.95 5.2 0.0 5.4 Q0.1 3.8 1.35 2.4 2.55 0.95 4.2 0.45 L6.9 0.0 9.6 0.4 Q7.85 0.15 5.35 0.95 2.9 1.7 1.35 4.1 L1.35 4.15 Q3.5 3.55 4.9 3.55 L5.0 3.55 Q5.3 3.15 6.3 2.65 5.25 5.2 5.85 7.7 L7.75 6.0 9.8 3.25 Q11.3 3.35 13.3 4.4 L13.3 4.35 Q12.8 1.35 9.6 0.4" fill="#481308" fill-rule="evenodd" stroke="none"/>
      <path d="M6.4 5.0 Q6.8 4.75 7.4 6.3 L5.85 7.9 Q5.4 6.9 5.6 5.5 L6.4 5.0" fill="#ffffff" fill-rule="evenodd" stroke="none"/>
      <path d="M13.55 4.7 L11.9 3.75 Q11.8 2.65 12.4 2.5 13.0 2.35 13.4 3.6 13.8 4.8 13.55 4.7" fill="#ffffff" fill-rule="evenodd" stroke="none"/>
      <path d="M0.95 4.4 Q1.2 3.3 2.15 2.4 3.05 1.5 3.45 3.75 L0.95 4.4" fill="#ffffff" fill-rule="evenodd" stroke="none"/>
    </g>
    <g id="sprite1">
      <use ffdec:characterId="16" height="17.55" transform="matrix(1.0, 0.0, 0.0, 1.0, 0.0, 0.0)" width="17.1" xlink:href="#shape1"/>
    </g>
    <g id="shape1">
      <path d="M4.75 0.0 Q8.6 0.6 11.9 0.0 L12.6 0.75 Q14.15 2.6 14.8 5.3 L15.85 8.6 Q16.6 10.8 16.6 11.7 16.6 13.95 14.3 15.5 11.9 17.05 8.6 17.05 L8.5 17.05 8.1 17.05 8.0 17.05 Q4.7 17.05 2.3 15.5 0.0 13.95 0.0 11.7 0.0 10.8 0.75 8.6 L1.8 5.3 Q2.45 2.6 4.0 0.75 L4.75 0.0" fill="#ffa325" fill-rule="evenodd" stroke="none"/>
      <path d="M4.75 0.0 L4.0 0.75 Q2.45 2.6 1.8 5.3 L0.75 8.6 Q0.0 10.8 0.0 11.7 0.0 13.95 2.3 15.5 4.7 17.05 8.0 17.05 L8.1 17.05 8.5 17.05 8.6 17.05 Q11.9 17.05 14.3 15.5 16.6 13.95 16.6 11.7 16.6 10.8 15.85 8.6 L14.8 5.3 Q14.15 2.6 12.6 0.75 L11.9 0.0" ffdec:has-small-stroke="true" ffdec:original-stroke-width="0.5" fill="none" stroke="#d35200" stroke-linecap="round" stroke-linejoin="round" stroke-width="1.1180223238054243"/>
      <path d="M11.1 1.1 L11.65 1.65 Q12.85 3.05 13.35 5.05 L14.2 7.5 Q14.8 9.15 14.8 9.85 14.8 11.5 13.0 12.7 11.1 13.85 8.5 13.85 L8.45 13.85 8.15 13.85 8.05 13.85 Q5.45 13.85 3.6 12.7 1.8 11.5 1.8 9.85 1.8 9.15 2.35 7.5 L3.2 5.05 Q3.7 3.05 4.9 1.65 L5.5 1.1 Q8.5 1.55 11.1 1.1" fill="#ffe04f" fill-rule="evenodd" stroke="none"/>
      <path d="M4.05 4.8 L3.55 6.05" ffdec:has-small-stroke="true" ffdec:original-stroke-width="0.5" fill="none" stroke="#ffaa44" stroke-linecap="round" stroke-linejoin="round" stroke-width="1.1180223238054243"/>
      <path d="M5.8 5.1 L5.4 6.1" ffdec:has-small-stroke="true" ffdec:original-stroke-width="0.5" fill="none" stroke="#ffaa44" stroke-linecap="round" stroke-linejoin="round" stroke-width="1.1180223238054243"/>
      <path d="M7.35 5.4 L7.35 5.85" ffdec:has-small-stroke="true" ffdec:original-stroke-width="0.5" fill="none" stroke="#ffaa44" stroke-linecap="round" stroke-linejoin="round" stroke-width="1.1180223238054243"/>
      <path d="M9.45 10.8 L9.95 12.1" ffdec:has-small-stroke="true" ffdec:original-stroke-width="0.5" fill="none" stroke="#ffaa44" stroke-linecap="round" stroke-linejoin="round" stroke-width="1.1180223238054243"/>
      <path d="M8.1 11.1 L8.1 11.75" ffdec:has-small-stroke="true" ffdec:original-stroke-width="0.5" fill="none" stroke="#ffaa44" stroke-linecap="round" stroke-linejoin="round" stroke-width="1.1180223238054243"/>
      <path d="M11.25 10.45 L12.35 11.7" ffdec:has-small-stroke="true" ffdec:original-stroke-width="0.5" fill="none" stroke="#ffaa44" stroke-linecap="round" stroke-linejoin="round" stroke-width="1.1180223238054243"/>
      <path d="M13.35 9.9 L14.45 11.25" ffdec:has-small-stroke="true" ffdec:original-stroke-width="0.5" fill="none" stroke="#ffaa44" stroke-linecap="round" stroke-linejoin="round" stroke-width="1.1180223238054243"/>
    </g>
    <g id="sprite2">
      <use ffdec:characterId="5" height="15.0" transform="matrix(1.0, 0.0, 0.0, 1.0, 0.0, 0.0)" width="11.6" xlink:href="#shape2"/>
    </g>
    <g id="shape2">
      <path d="M9.25 6.25 L8.9 8.45 8.25 10.4 7.35 11.35 Q6.8 11.5 6.55 11.0 6.25 10.5 6.35 8.9 L5.65 11.45 Q5.05 13.0 4.3 12.65 3.5 12.3 3.6 9.95 1.85 12.75 0.65 13.75 -0.55 14.7 -0.5 12.85 -0.45 11.0 0.4 9.15 1.2 7.3 2.8 5.25 4.35 3.2 6.35 1.7 8.3 0.2 9.9 -0.45 11.5 -1.15 10.45 2.1 9.4 5.35 9.25 6.25" fill="#ffe04f" fill-rule="evenodd" stroke="none"/>
      <path d="M9.25 6.25 L8.9 8.45 8.25 10.4 7.35 11.35 Q6.8 11.5 6.55 11.0 6.25 10.5 6.35 8.9 L5.65 11.45 Q5.05 13.0 4.3 12.65 3.5 12.3 3.6 9.95 1.85 12.75 0.65 13.75 -0.55 14.7 -0.5 12.85 -0.45 11.0 0.4 9.15 1.2 7.3 2.8 5.25 4.35 3.2 6.35 1.7 8.3 0.2 9.9 -0.45" ffdec:has-small-stroke="true" ffdec:original-stroke-width="0.5" fill="none" stroke="#f77e00" stroke-linecap="round" stroke-linejoin="round" stroke-width="1.0"/>
      <path d="M4.95 6.05 L4.5 7.2" ffdec:has-small-stroke="true" ffdec:original-stroke-width="0.5" fill="none" stroke="#ffaa44" stroke-linecap="round" stroke-linejoin="round" stroke-width="1.0"/>
      <path d="M6.55 5.3 L6.4 6.15" ffdec:has-small-stroke="true" ffdec:original-stroke-width="0.5" fill="none" stroke="#ffaa44" stroke-linecap="round" stroke-linejoin="round" stroke-width="1.0"/>
      <path d="M7.9 4.85 L8.0 5.55" ffdec:has-small-stroke="true" ffdec:original-stroke-width="0.5" fill="none" stroke="#ffaa44" stroke-linecap="round" stroke-linejoin="round" stroke-width="1.0"/>
    </g>
    <g id="sprite3">
      <use ffdec:characterId="5" height="15.0" transform="matrix(1.0, 0.0, 0.0, 1.0, 0.0, 0.0)" width="11.6" xlink:href="#shape3"/>
    </g>
    <g id="shape3">
      <path d="M9.25 6.25 L8.9 8.45 8.25 10.4 7.35 11.35 Q6.8 11.5 6.55 11.0 6.25 10.5 6.35 8.9 L5.65 11.45 Q5.05 13.0 4.3 12.65 3.5 12.3 3.6 9.95 1.85 12.75 0.65 13.75 -0.55 14.7 -0.5 12.85 -0.45 11.0 0.4 9.15 1.2 7.3 2.8 5.25 4.35 3.2 6.35 1.7 8.3 0.2 9.9 -0.45 11.5 -1.15 10.45 2.1 9.4 5.35 9.25 6.25" fill="#ffe04f" fill-rule="evenodd" stroke="none"/>
      <path d="M9.25 6.25 L8.9 8.45 8.25 10.4 7.35 11.35 Q6.8 11.5 6.55 11.0 6.25 10.5 6.35 8.9 L5.65 11.45 Q5.05 13.0 4.3 12.65 3.5 12.3 3.6 9.95 1.85 12.75 0.65 13.75 -0.55 14.7 -0.5 12.85 -0.45 11.0 0.4 9.15 1.2 7.3 2.8 5.25 4.35 3.2 6.35 1.7 8.3 0.2 9.9 -0.45" ffdec:has-small-stroke="true" ffdec:original-stroke-width="0.5" fill="none" stroke="#f77e00" stroke-linecap="round" stroke-linejoin="round" stroke-width="1.0"/>
      <path d="M4.95 6.05 L4.5 7.2" ffdec:has-small-stroke="true" ffdec:original-stroke-width="0.5" fill="none" stroke="#ffaa44" stroke-linecap="round" stroke-linejoin="round" stroke-width="1.0"/>
      <path d="M6.55 5.3 L6.4 6.15" ffdec:has-small-stroke="true" ffdec:original-stroke-width="0.5" fill="none" stroke="#ffaa44" stroke-linecap="round" stroke-linejoin="round" stroke-width="1.0"/>
      <path d="M7.9 4.85 L8.0 5.55" ffdec:has-small-stroke="true" ffdec:original-stroke-width="0.5" fill="none" stroke="#ffaa44" stroke-linecap="round" stroke-linejoin="round" stroke-width="1.0"/>
    </g>
  </defs>
</svg>
