<?xml version="1.0" encoding="UTF-8" standalone="no"?>
<svg xmlns:ffdec="https://www.free-decompiler.com/flash" xmlns:xlink="http://www.w3.org/1999/xlink" ffdec:objectType="frame" height="12.65px" width="24.35px" xmlns="http://www.w3.org/2000/svg">
  <g transform="matrix(1.0, 0.0, 0.0, 1.0, 11.7, -14.75)">
    <use ffdec:characterId="45" height="12.55" transform="matrix(1.0, 0.0, 0.0, 1.0, -9.0, 18.1)" width="24.35" xlink:href="#sprite0"/>
    <use ffdec:characterId="47" height="8.55" transform="matrix(-0.7955, 0.0, 0.0, 0.6695, 8.6, 15.3)" width="6.85" xlink:href="#sprite5"/>
    <use ffdec:characterId="47" height="8.55" transform="matrix(0.7955, 0.0, 0.0, 0.6695, -8.35, 15.3)" width="6.85" xlink:href="#sprite9"/>
  </g>
  <defs>
    <g id="sprite0">
      <clipPath id="clipPath0">
        <path d="M -1.55 -1.45 L -1.55 1.65 L -1.32 1.56 L -1.09 1.5 L -0.85 1.46 L -0.6 1.45 L -0.35 1.46 L -0.09 1.5 L 0.18 1.56 L 0.45 1.65 L 0.5 1.45 L 3.95 -1.45 Z M 14.6 -1.45 L 18 1.45 L 18.05 1.5 L 18.3 1.46 L 18.55 1.45 L 18.75 1.46 L 18.95 1.48 L 19.14 1.53 L 19.33 1.59 L 19.51 1.67 L 19.7 1.77 L 19.87 1.89 L 20.05 2.02 L 20.22 2.18 L 20.38 2.35 L 20.55 2.54 L 20.7 2.74 L 20.86 2.97 L 21.01 3.21 L 21.16 3.47 L 21.3 3.75 L 21.45 4.12 L 21.51 4.31 L 21.56 4.49 L 21.6 4.67 L 21.63 4.85 L 21.64 5.02 L 21.65 5.2 L 21.65 -1.45 Z M 4.9 -1.45 L 6.05 -0.3 L 5.75 0 L 5.7 0.05 L 4.25 1.5 L 4.25 1.55 L 4.2 1.55 L 2.3 3.2 L 2.05 3.25 L 2.05 3.45 L 2.08 3.71 L 2.09 3.99 L 2.06 4.28 L 2 4.6 L 1.91 4.93 L 1.79 5.29 L 1.63 5.66 L 1.45 6.05 L 1.32 6.33 L 1.18 6.59 L 1.04 6.83 L 0.89 7.05 L 0.74 7.26 L 0.59 7.45 L 0.44 7.62 L 0.28 7.77 L 0.11 7.9 L -0.05 8.02 L -0.22 8.12 L -0.4 8.2 L -0.58 8.26 L -0.76 8.31 L -0.94 8.33 L -1.13 8.34 L -1.34 8.33 L -1.55 8.3 L -1.55 9.3 L 21.65 9.3 L 21.65 5.4 L 21.3 6.75 L 20.1 8.05 L 20.05 8.05 L 19.77 8.17 L 19.5 8.25 L 19.23 8.3 L 18.98 8.32 L 18.79 8.31 L 18.61 8.28 L 18.43 8.24 L 18.26 8.18 L 18.09 8.1 L 17.92 8 L 17.76 7.88 L 17.6 7.75 L 17.45 7.6 L 17.29 7.43 L 17.14 7.25 L 17 7.04 L 16.86 6.82 L 16.72 6.58 L 16.58 6.32 L 16.45 6.05 L 16.27 5.66 L 16.11 5.29 L 15.99 4.93 L 15.9 4.6 L 15.84 4.28 L 15.81 3.99 L 15.82 3.71 L 15.85 3.45 L 15.95 3 L 14.3 1.55 L 14.25 1.55 L 14.25 1.5 L 12.8 0.05 L 12.25 -0.6 L 12.2 -0.7 L 12.15 -0.7 L 12.4 -0.95 L 13.05 -1.45 Z"/>
      </clipPath>
      <g clip-path="url(#clipPath0)">
        <use ffdec:characterId="20" height="12.95" transform="matrix(0.93, 0.0, 0.0, 0.93, 0.0, 0.0)" width="26.0" xlink:href="#sprite1"/>
        <use ffdec:characterId="21" height="4.9" transform="matrix(0.93, 0.0, 0.0, 0.93, 2.4, 0.3)" width="15.5" xlink:href="#sprite3"/>
        <use ffdec:characterId="23" height="2.0" transform="matrix(0.8443, 0.0708, -0.0777, 0.9267, 3.5, 6.65)" width="4.15" xlink:href="#sprite4"/>
        <use ffdec:characterId="23" height="2.0" transform="matrix(-0.93, 0.0, 0.0, 0.93, 14.8, 6.9)" width="4.15" xlink:href="#sprite4"/>
        <use ffdec:characterId="19" height="1.95" transform="matrix(0.93, 0.0, 0.0, 0.93, 0.9, 2.55)" width="2.0" xlink:href="#sprite2"/>
        <use ffdec:characterId="19" height="1.95" transform="matrix(0.93, 0.0, 0.0, 0.93, 7.45, 4.5)" width="2.0" xlink:href="#sprite2"/>
        <use ffdec:characterId="19" height="1.95" transform="matrix(0.93, 0.0, 0.0, 0.93, 14.2, 2.2)" width="2.0" xlink:href="#sprite2"/>
      </g>
    </g>
    <g id="sprite1">
      <clipPath id="clipPath1">
        <path d="M 10.05 -3.5 L 9.39 -3.49 L 8.74 -3.47 L 8.1 -3.43 L 7.47 -3.38 L 6.85 -3.32 L 6.25 -3.24 L 5.66 -3.15 L 5.07 -3.04 L 4.51 -2.91 L 3.95 -2.78 L 3.4 -2.63 L 2.87 -2.46 L 2.35 -2.28 L 1.84 -2.08 L 1.34 -1.87 L 0.85 -1.65 L 0.39 -1.41 L -0.04 -1.16 L -0.44 -0.91 L -0.81 -0.65 L -1.15 -0.38 L -1.47 -0.11 L -1.75 0.17 L -2 0.45 L -2.22 0.74 L -2.42 1.04 L -2.58 1.34 L -2.71 1.65 L -2.82 1.97 L -2.89 2.29 L -2.94 2.62 L -2.95 2.95 L -2.94 3.28 L -2.89 3.61 L -2.82 3.93 L -2.71 4.25 L -2.58 4.55 L -2.42 4.86 L -2.22 5.15 L -2 5.44 L -1.75 5.72 L -1.47 5.99 L -1.15 6.26 L -0.81 6.52 L -0.44 6.78 L -0.04 7.02 L 0.39 7.27 L 0.85 7.5 L 3.15 8.45 L 3.32 8.37 L 3.49 8.3 L 3.67 8.24 L 3.85 8.19 L 4.04 8.15 L 4.24 8.12 L 4.44 8.11 L 4.65 8.1 L 4.92 8.11 L 5.18 8.13 L 5.43 8.17 L 5.66 8.23 L 5.89 8.3 L 6.1 8.38 L 6.31 8.48 L 6.5 8.6 L 7.15 9.25 L 10.05 9.4 L 12 9.35 L 12.09 9.16 L 12.23 8.98 L 12.39 8.81 L 12.6 8.65 L 12.8 8.53 L 13.02 8.43 L 13.24 8.35 L 13.46 8.27 L 13.7 8.22 L 13.94 8.18 L 14.19 8.16 L 14.45 8.15 L 14.72 8.16 L 14.98 8.18 L 15.23 8.22 L 15.46 8.27 L 15.69 8.35 L 15.9 8.43 L 16.11 8.53 L 16.3 8.65 L 19.25 7.5 L 19.71 7.27 L 20.14 7.02 L 20.54 6.78 L 20.91 6.52 L 21.25 6.26 L 21.57 5.99 L 21.85 5.72 L 22.1 5.44 L 22.32 5.15 L 22.52 4.86 L 22.68 4.55 L 22.81 4.25 L 22.92 3.93 L 22.99 3.61 L 23.04 3.28 L 23.05 2.95 L 23.04 2.62 L 22.99 2.29 L 22.92 1.97 L 22.81 1.65 L 22.68 1.34 L 22.52 1.04 L 22.32 0.74 L 22.1 0.45 L 21.85 0.17 L 21.57 -0.11 L 21.25 -0.38 L 20.91 -0.65 L 20.54 -0.91 L 20.14 -1.16 L 19.71 -1.41 L 19.25 -1.65 L 18.77 -1.87 L 18.27 -2.08 L 17.77 -2.28 L 17.25 -2.46 L 16.72 -2.63 L 16.17 -2.78 L 15.62 -2.91 L 15.05 -3.04 L 14.47 -3.15 L 13.88 -3.24 L 13.27 -3.32 L 12.65 -3.38 L 12.02 -3.43 L 11.38 -3.47 L 10.72 -3.49 L 10.05 -3.5 Z"/>
      </clipPath>
      <g clip-path="url(#clipPath1)">
        <use ffdec:characterId="2" height="9.95" transform="matrix(1.0, 0.0, 0.0, 1.0, 0.0, 0.0)" width="21.7" xlink:href="#shape0"/>
        <use ffdec:characterId="19" height="1.95" transform="matrix(1.0, 0.0, 0.0, 1.0, 0.4, 2.1)" width="2.0" xlink:href="#sprite2"/>
        <use ffdec:characterId="19" height="1.95" transform="matrix(1.0, 0.0, 0.0, 1.0, 10.75, 5.35)" width="2.0" xlink:href="#sprite2"/>
        <use ffdec:characterId="19" height="1.95" transform="matrix(1.0, 0.0, 0.0, 1.0, 13.65, 4.45)" width="2.0" xlink:href="#sprite2"/>
      </g>
    </g>
    <g id="shape0">
      <path d="M20.7 0.0 L20.7 2.25 20.55 3.7 Q20.05 5.65 18.15 7.15 15.65 9.2 12.05 9.2 L8.65 9.2 Q5.1 9.2 2.5 7.15 0.65 5.65 0.2 3.7 L0.0 2.25 0.0 0.0 20.7 0.0" fill="#688c00" fill-rule="evenodd" stroke="none"/>
      <path d="M20.7 0.0 L20.7 2.25 20.55 3.7 Q20.05 5.65 18.15 7.15 15.65 9.2 12.05 9.2 L8.65 9.2 Q5.1 9.2 2.5 7.15 0.65 5.65 0.2 3.7 L0.0 2.25 0.0 0.0" ffdec:has-small-stroke="true" ffdec:original-stroke-width="0.5" fill="none" stroke="#222e00" stroke-linecap="round" stroke-linejoin="round" stroke-width="1.0753125717848586"/>
      <path d="M0.0 0.0 L20.7 0.0" ffdec:has-small-stroke="true" ffdec:original-stroke-width="1.0" fill="none" stroke="#3c5100" stroke-linecap="round" stroke-linejoin="round" stroke-width="1.0753125717848586"/>
    </g>
    <g id="sprite2">
      <use ffdec:characterId="3" height="1.95" transform="matrix(1.0, 0.0, 0.0, 1.0, 0.0, 0.0)" width="2.0" xlink:href="#shape1"/>
    </g>
    <g id="shape1">
      <path d="M3.2 2.1 L2.9 2.8 2.2 3.1 Q1.8 3.1 1.5 2.8 1.2 2.5 1.2 2.1 1.2 1.75 1.5 1.45 1.8 1.15 2.2 1.15 2.6 1.15 2.9 1.45 L3.2 2.1" fill="#4b6700" fill-rule="evenodd" stroke="none"/>
    </g>
    <g id="sprite3">
      <use ffdec:characterId="6" height="4.9" transform="matrix(1.0, 0.0, 0.0, 1.0, 0.0, 0.0)" width="15.5" xlink:href="#shape2"/>
    </g>
    <g id="shape2">
      <path d="M15.5 0.5 Q15.5 2.3 13.2 3.6 10.95 4.9 7.75 4.9 4.55 4.9 2.25 3.6 0.0 2.3 0.0 0.5 L0.05 0.0 15.45 0.0 15.5 0.5" fill="#99ad00" fill-rule="evenodd" stroke="none"/>
    </g>
    <g id="sprite4">
      <use ffdec:characterId="22" height="2.0" transform="matrix(1.0, 0.0, 0.0, 1.0, 0.0, 0.0)" width="4.15" xlink:href="#shape3"/>
    </g>
    <g id="shape3">
      <path d="M0.2 0.8 Q0.85 0.1 1.95 0.05 3.0 0.0 3.7 0.7 4.2 1.2 4.15 2.05 3.2 1.3 2.85 1.15 L2.25 0.95 1.75 0.9 1.75 0.85 0.9 0.9 0.4 1.0 0.0 1.15 0.2 0.8" fill="#263400" fill-rule="evenodd" stroke="none"/>
    </g>
    <g id="sprite5">
      <use ffdec:characterId="46" height="4.3" transform="matrix(1.0, 0.0, 0.0, 0.5714, 4.05, -0.3)" width="6.85" xlink:href="#sprite6"/>
      <use ffdec:characterId="26" height="2.5" transform="matrix(1.0, 0.0, 0.0, 1.0, 5.0, 5.25)" width="2.5" xlink:href="#sprite7"/>
      <use ffdec:characterId="28" height="7.45" transform="matrix(1.0, 0.0, 0.0, 1.0, 4.65, 0.0)" width="2.8" xlink:href="#sprite8"/>
    </g>
    <g id="sprite6">
      <use ffdec:characterId="33" height="4.3" transform="matrix(1.0, 0.0, 0.0, 1.0, 0.0, 0.0)" width="6.85" xlink:href="#shape4"/>
    </g>
    <g id="shape4">
      <path d="M3.75 0.6 L-0.3 2.9 -1.6 0.6" ffdec:has-small-stroke="true" ffdec:original-stroke-width="0.9" fill="none" stroke="#5e5543" stroke-linecap="round" stroke-linejoin="round" stroke-width="1.812744070978399"/>
      <path d="M-1.6 0.6 L-0.7 -0.2 3.75 0.6" ffdec:has-small-stroke="true" ffdec:original-stroke-width="1.5" fill="none" stroke="#5e5543" stroke-linecap="round" stroke-linejoin="round" stroke-width="1.812744070978399"/>
    </g>
    <g id="sprite7">
      <use ffdec:characterId="10" height="2.5" transform="matrix(1.0, 0.0, 0.0, 1.0, 0.0, 0.0)" width="2.5" xlink:href="#shape5"/>
    </g>
    <g id="shape5">
      <path d="M2.5 1.25 Q2.5 1.8 2.1 2.15 1.75 2.5 1.25 2.5 0.75 2.5 0.35 2.15 0.0 1.8 0.0 1.25 0.0 0.75 0.35 0.4 0.75 0.0 1.25 0.0 1.75 0.0 2.1 0.4 2.5 0.75 2.5 1.25" fill="#688c00" fill-rule="evenodd" stroke="none"/>
    </g>
    <g id="sprite8">
      <use ffdec:characterId="27" height="7.45" transform="matrix(1.0, 0.0, 0.0, 1.0, 0.0, 0.0)" width="2.8" xlink:href="#shape6"/>
    </g>
    <g id="shape6">
      <path d="M1.55 6.45 L3.35 0.0" ffdec:has-small-stroke="true" ffdec:original-stroke-width="1.0" fill="none" stroke="#494232" stroke-linecap="round" stroke-linejoin="round" stroke-width="1.3702848056105206"/>
    </g>
    <g id="sprite9">
      <use ffdec:characterId="46" height="4.3" transform="matrix(1.0, 0.0, 0.0, 0.5714, 4.05, -0.3)" width="6.85" xlink:href="#sprite10"/>
      <use ffdec:characterId="26" height="2.5" transform="matrix(1.0, 0.0, 0.0, 1.0, 5.0, 5.25)" width="2.5" xlink:href="#sprite7"/>
      <use ffdec:characterId="28" height="7.45" transform="matrix(1.0, 0.0, 0.0, 1.0, 4.65, 0.0)" width="2.8" xlink:href="#sprite11"/>
    </g>
    <g id="sprite10">
      <use ffdec:characterId="33" height="4.3" transform="matrix(1.0, 0.0, 0.0, 1.0, 0.0, 0.0)" width="6.85" xlink:href="#shape7"/>
    </g>
    <g id="shape7">
      <path d="M3.75 0.6 L-0.3 2.9 -1.6 0.6" ffdec:has-small-stroke="true" ffdec:original-stroke-width="0.9" fill="none" stroke="#5e5543" stroke-linecap="round" stroke-linejoin="round" stroke-width="1.812744070978399"/>
      <path d="M-1.6 0.6 L-0.7 -0.2 3.75 0.6" ffdec:has-small-stroke="true" ffdec:original-stroke-width="1.5" fill="none" stroke="#5e5543" stroke-linecap="round" stroke-linejoin="round" stroke-width="1.812744070978399"/>
    </g>
    <g id="sprite11">
      <use ffdec:characterId="27" height="7.45" transform="matrix(1.0, 0.0, 0.0, 1.0, 0.0, 0.0)" width="2.8" xlink:href="#shape8"/>
    </g>
    <g id="shape8">
      <path d="M1.55 6.45 L3.35 0.0" ffdec:has-small-stroke="true" ffdec:original-stroke-width="1.0" fill="none" stroke="#494232" stroke-linecap="round" stroke-linejoin="round" stroke-width="1.3702848056105206"/>
    </g>
  </defs>
</svg>
