<?xml version="1.0" encoding="UTF-8" standalone="no"?>
<svg xmlns:ffdec="https://www.free-decompiler.com/flash" xmlns:xlink="http://www.w3.org/1999/xlink" ffdec:objectType="frame" height="23.2px" width="43.0px" xmlns="http://www.w3.org/2000/svg">
  <g transform="matrix(1.0, 0.0, 0.0, 1.0, 26.35, -7.5)">
    <use ffdec:characterId="2" height="14.65" transform="matrix(1.1861, 0.0, 0.0, 1.0, -0.6, 21.15)" width="21.75" xlink:href="#sprite0"/>
    <use ffdec:characterId="4" height="6.55" transform="matrix(-1.0, 0.0, 0.0, 1.0, 5.5, 18.45)" width="7.95" xlink:href="#sprite1"/>
    <use ffdec:characterId="28" height="5.0" transform="matrix(1.0, 0.0, 0.0, 1.0, -3.05, 24.6)" width="4.1" xlink:href="#sprite2"/>
    <use ffdec:characterId="10" height="5.7" transform="matrix(1.0, 0.0, 0.0, 1.0, -5.7, 27.85)" width="8.95" xlink:href="#sprite3"/>
    <use ffdec:characterId="4" height="6.55" transform="matrix(1.0, 0.0, 0.0, 1.0, -5.55, 18.75)" width="7.95" xlink:href="#sprite1"/>
    <use ffdec:characterId="28" height="5.0" transform="matrix(-1.0, 0.0, 0.0, 1.0, 2.5, 24.85)" width="4.1" xlink:href="#sprite2"/>
    <use ffdec:characterId="8" height="8.0" transform="matrix(1.0, 0.0, 0.0, 1.0, -0.4, 20.15)" width="9.8" xlink:href="#sprite4"/>
    <use ffdec:characterId="12" height="3.6" transform="matrix(1.0, 0.0, 0.0, 1.0, -0.2, 16.45)" width="10.45" xlink:href="#sprite5"/>
    <use ffdec:characterId="14" height="10.35" transform="matrix(1.0, 0.0, 0.0, 1.0, -9.6, 22.1)" width="8.45" xlink:href="#sprite6"/>
    <use ffdec:characterId="10" height="5.7" transform="matrix(-1.0, 0.0, 0.0, 1.0, 5.1, 27.7)" width="8.95" xlink:href="#sprite3"/>
    <use ffdec:characterId="14" height="10.35" transform="matrix(-1.0, 0.0, 0.0, 1.0, 9.45, 22.2)" width="8.45" xlink:href="#sprite6"/>
    <use ffdec:characterId="16" height="17.75" transform="matrix(1.0, 0.0, 0.0, 1.0, -17.25, 16.35)" width="18.15" xlink:href="#sprite7"/>
    <use ffdec:characterId="18" height="4.25" transform="matrix(1.0, 0.0, 0.0, 1.0, -6.4, 25.55)" width="4.6" xlink:href="#sprite8"/>
    <use ffdec:characterId="20" height="12.5" transform="matrix(1.0, 0.0, 0.0, 1.0, 11.55, 23.75)" width="10.25" xlink:href="#sprite9"/>
  </g>
  <defs>
    <g id="sprite0">
      <use ffdec:characterId="1" height="14.65" transform="matrix(1.0, 0.0, 0.0, 1.0, 0.0, 0.0)" width="21.75" xlink:href="#shape0"/>
    </g>
    <g id="shape0">
      <path d="M-3.85 -2.9 L-2.85 -2.6 -4.15 1.95 -3.65 1.5 -3.35 1.25 Q-1.55 5.5 -0.2 6.05 L1.75 6.45 2.65 6.05 3.25 5.25 -0.4 3.85 0.3 3.55 Q2.95 2.5 3.25 -0.15 3.9 2.55 5.75 2.9 5.2 -0.65 4.4 -2.6 L5.0 -2.85 6.3 -0.5 6.6 2.1 Q6.8 3.15 5.75 3.95 L4.8 4.55 Q4.9 4.95 5.35 5.05 L6.45 5.2 6.65 5.05 Q7.6 3.45 7.55 1.75 8.2 3.2 8.45 4.75 L8.5 5.45 Q6.3 7.05 3.6 7.85 L-2.2 8.05 -3.7 7.45 -4.7 2.8 Q-5.15 5.95 -7.9 7.6 L-8.6 8.0 -9.25 7.85 -9.8 7.55 Q-7.1 5.35 -5.7 1.4 L-4.15 -2.5 Q-4.0 -2.45 -3.85 -2.9 M2.5 -2.4 Q1.9 -0.3 0.6 0.7 -0.75 1.65 -2.7 0.4 -1.6 -0.4 -1.75 -2.4 L2.5 -2.4" fill="#dc001b" fill-rule="evenodd" stroke="none"/>
      <path d="M5.0 -2.85 L4.4 -2.6 Q5.2 -0.65 5.75 2.9 3.9 2.55 3.25 -0.15 2.95 2.5 0.3 3.55 L-0.4 3.85 3.25 5.25 2.65 6.05 1.75 6.45 -0.2 6.05 Q-1.55 5.5 -3.35 1.25 L-3.65 1.5 -4.15 1.95 -2.85 -2.6 -3.85 -2.9 -3.8 -3.0 -2.95 -4.75 4.1 -4.75 4.85 -3.1 5.0 -2.85 M-9.8 7.55 L-9.25 7.85 -8.6 8.0 -7.9 7.6 Q-5.15 5.95 -4.7 2.8 L-3.7 7.45 -2.2 8.05 3.6 7.85 Q6.3 7.05 8.5 5.45 L8.45 4.75 Q8.2 3.2 7.55 1.75 7.6 3.45 6.65 5.05 L6.45 5.2 5.35 5.05 Q4.9 4.95 4.8 4.55 L5.75 3.95 Q6.8 3.15 6.6 2.1 L6.3 -0.5 7.5 1.65 7.55 1.75 10.8 6.25 10.45 7.15 Q9.2 8.25 8.05 8.15 L1.25 9.0 Q-0.9 8.3 -2.35 8.45 L-3.05 8.55 -4.65 8.75 -5.3 8.8 -9.35 9.05 -10.2 7.8 -9.8 7.55 M2.5 -2.4 L-1.75 -2.4 Q-1.6 -0.4 -2.7 0.4 -0.75 1.65 0.6 0.7 1.9 -0.3 2.5 -2.4" fill="#6c000d" fill-rule="evenodd" stroke="none"/>
      <path d="M3.0 -4.9 L3.85 -1.2 Q4.3 0.85 5.4 2.3 L4.2 -2.85 4.2 -2.9 Q4.8 -1.75 5.7 2.25 L5.45 2.7 Q4.9 2.7 4.35 1.35 L3.7 -0.75 3.35 -2.55 2.9 -4.3 2.9 -4.9 3.0 -4.9 M2.5 -2.25 L2.6 -2.25 2.7 -1.7 Q1.4 1.75 -0.65 1.75 L-1.65 1.4 -2.2 0.9 -2.15 0.75 -1.25 1.15 -0.65 1.25 Q0.75 1.25 1.75 -0.45 L2.5 -2.25 M3.8 -5.45 L5.8 -1.95 7.35 0.95 Q7.8 2.05 9.15 3.95 L11.5 6.95 Q10.0 8.35 8.1 8.3 L6.2 8.0 5.35 8.0 6.85 7.7 8.2 7.95 Q8.95 8.2 9.75 7.35 10.5 6.5 10.1 5.75 L8.6 3.6 Q7.6 2.2 6.95 0.85 L4.8 -2.95 Q4.05 -4.15 3.8 -5.45 M1.5 5.65 L0.75 5.7 Q0.25 5.85 -1.35 4.65 L-2.25 3.6 Q-3.25 2.0 -3.25 1.4 L-3.25 0.8 -3.1 0.8 -1.9 3.75 Q-1.15 5.1 0.4 5.3 L1.5 5.5 1.5 5.65 M0.15 9.1 L-3.85 8.65 -4.35 8.65 -0.1 8.55 Q2.95 9.1 4.45 8.1 2.65 9.5 0.15 9.1 M-3.7 -3.45 L-3.3 -4.3 -2.7 -4.85 -2.65 -4.65 Q-4.0 -3.25 -5.4 1.1 -6.85 5.4 -8.5 6.65 L-9.75 7.75 Q-9.75 8.3 -9.1 8.45 L-6.0 8.65 -5.95 8.75 Q-6.25 9.2 -8.25 9.2 -10.25 9.2 -10.25 7.7 -10.25 6.8 -9.45 6.35 -8.25 5.65 -7.35 4.45 -6.45 3.25 -5.75 1.35 L-4.6 -1.7 -3.7 -3.45" fill="#000000" fill-rule="evenodd" stroke="none"/>
    </g>
    <g id="sprite1">
      <use ffdec:characterId="3" height="6.55" transform="matrix(1.0, 0.0, 0.0, 1.0, 0.0, 0.0)" width="7.95" xlink:href="#shape1"/>
    </g>
    <g id="shape1">
      <path d="M-0.4 -1.5 L0.85 -2.2 1.4 -1.0 1.25 0.05 1.05 0.65 0.25 1.3 -0.1 0.35 -0.8 -1.1 -0.4 -1.5" fill="#ffffff" fill-rule="evenodd" stroke="none"/>
      <path d="M1.05 0.65 L1.25 0.05 1.4 -1.0 0.85 -2.2 -0.4 -1.5 0.75 -2.55 1.65 -3.35 Q2.45 -3.55 3.15 -3.0 L4.0 -2.1 4.0 -2.0 1.05 0.65 M-0.8 -1.1 L-0.1 0.35 0.25 1.3 -1.25 2.55 -1.95 3.15 Q-3.15 2.8 -3.95 1.6 L-0.8 -1.1" fill="#a6a6a6" fill-rule="evenodd" stroke="none"/>
      <path d="M-3.6 1.3 L-3.75 1.1 -2.65 0.2 -1.05 -1.0 1.5 -3.0 1.55 -2.9 Q1.55 -2.55 -0.8 -0.75 L-3.6 1.3 M1.05 0.3 L3.7 -2.15 3.75 -2.0 Q3.75 -1.6 1.5 0.45 L-1.65 3.0 -1.7 2.8 -0.55 1.7 1.05 0.3" fill="#000000" fill-rule="evenodd" stroke="none"/>
    </g>
    <g id="sprite2">
      <use ffdec:characterId="27" height="5.0" transform="matrix(1.0, 0.0, 0.0, 1.0, 0.0, 0.0)" width="4.1" xlink:href="#shape2"/>
    </g>
    <g id="shape2">
      <path d="M1.6 -0.4 L1.35 0.15 -1.1 0.0 -0.65 -0.85 1.6 -0.4" fill="#ffffff" fill-rule="evenodd" stroke="none"/>
      <path d="M-0.65 -0.85 L0.0 -2.4 2.1 -1.55 1.6 -0.4 -0.65 -0.85 M1.35 0.15 L0.95 0.85 -0.2 2.6 -0.45 2.6 -1.65 2.4 -1.9 2.2 -1.1 0.0 1.35 0.15" fill="#a6a6a6" fill-rule="evenodd" stroke="none"/>
      <path d="M-0.15 2.35 L-0.1 2.1 1.3 -0.35 2.0 -1.5 Q1.6 1.05 -0.15 2.35 M0.1 -2.35 L-0.65 -0.35 -2.0 2.0 -1.7 1.1 Q-1.1 -0.85 0.1 -2.35" fill="#000000" fill-rule="evenodd" stroke="none"/>
    </g>
    <g id="sprite3">
      <use ffdec:characterId="9" height="5.7" transform="matrix(1.0, 0.0, 0.0, 1.0, 0.0, 0.0)" width="8.95" xlink:href="#shape3"/>
    </g>
    <g id="shape3">
      <path d="M-1.4 -0.1 L-1.3 -0.2 Q-0.8 -0.8 -1.0 -1.5 L-0.2 -1.55 -0.2 -0.75 Q-0.1 -0.05 -0.6 0.55 L-4.25 1.2 -4.15 0.35 -1.75 0.2 -1.6 0.25 -1.4 0.0 -1.4 -0.1" fill="#995600" fill-rule="evenodd" stroke="none"/>
      <path d="M-4.25 1.2 L-0.6 0.55 Q-0.1 -0.05 -0.2 -0.75 L-0.2 -1.55 Q1.3 -1.6 2.95 -0.9 3.9 0.3 3.5 1.8 L-4.0 2.15 -4.25 1.2" fill="#4e2d03" fill-rule="evenodd" stroke="none"/>
      <path d="M-1.4 -0.1 L-1.65 -0.35 -1.8 -0.05 -1.75 0.2 -4.15 0.35 Q-3.8 -0.45 -2.6 -1.0 L-1.0 -1.5 Q-0.8 -0.8 -1.3 -0.2 L-1.4 -0.1 M-2.05 -0.25 Q-2.05 -0.65 -2.5 -0.65 L-2.95 -0.2 -2.95 0.1 -2.55 0.25 Q-2.05 0.25 -2.05 -0.25" fill="#cc7f1c" fill-rule="evenodd" stroke="none"/>
      <path d="M3.5 1.8 Q2.4 3.0 0.8 2.65 L-3.75 2.6 -4.0 2.15 3.5 1.8" fill="#bd761c" fill-rule="evenodd" stroke="none"/>
      <path d="M-1.75 0.2 L-1.8 -0.05 -1.65 -0.35 -1.4 -0.1 -1.4 0.0 -1.6 0.25 -1.75 0.2 M-2.05 -0.25 Q-2.05 0.25 -2.55 0.25 L-2.95 0.1 -2.95 -0.2 -2.5 -0.65 Q-2.05 -0.65 -2.05 -0.25" fill="#ffffff" fill-rule="evenodd" stroke="none"/>
      <path d="M2.35 -2.35 L2.35 -2.3 2.35 -2.15 2.65 -1.5 Q1.45 -0.85 0.1 -1.15 L0.05 -1.5 0.25 -2.4 2.35 -2.35" fill="#e9ae61" fill-rule="evenodd" stroke="none"/>
      <path d="M0.1 -1.15 Q1.45 -0.85 2.65 -1.5 L2.35 -2.15 2.35 -2.3 2.35 -2.35 3.75 -2.3 3.95 -1.65 3.9 -0.8 3.15 -0.55 2.3 -0.45 1.0 -0.3 0.2 -0.65 0.1 -1.15" fill="#a17134" fill-rule="evenodd" stroke="none"/>
      <path d="M-0.3 -2.55 Q-0.3 -2.85 0.15 -2.85 L0.55 -2.65 0.8 -2.55 3.25 -2.55 3.8 -2.7 Q4.1 -2.7 4.3 -2.0 L4.45 -1.35 4.15 -0.75 3.75 -0.35 3.7 -0.25 3.55 1.2 3.5 1.35 3.55 1.6 Q3.55 2.8 1.4 2.85 L-0.55 2.85 -3.8 2.8 -4.05 2.45 -4.15 2.05 Q-4.5 1.9 -4.5 1.35 -4.5 0.45 -3.3 -0.6 -2.1 -1.7 -0.5 -1.85 L-0.55 -1.9 -0.4 -1.85 -0.3 -2.5 -0.3 -2.55 M0.1 -2.25 L0.1 -1.35 Q0.1 -0.65 0.35 -0.65 L3.2 -0.8 3.6 -0.95 3.95 -1.4 3.65 -2.15 3.35 -2.05 1.25 -2.05 0.3 -2.4 0.1 -2.25 M-0.4 -1.5 L-0.4 -1.45 -1.2 -1.25 -2.45 -0.6 Q-3.4 -0.05 -4.05 1.15 L-4.05 1.55 -3.85 1.6 -1.7 1.6 2.85 1.2 Q3.15 0.95 3.05 0.45 L3.0 -0.2 1.35 -0.1 Q-0.1 -0.1 -0.4 -0.75 L-0.4 -1.5 M-3.4 2.5 L-1.3 2.45 0.7 2.45 Q2.9 2.45 3.05 1.85 L3.1 1.8 1.75 2.0 -3.95 2.1 -3.9 2.2 -3.4 2.5" fill="#000000" fill-rule="evenodd" stroke="none"/>
    </g>
    <g id="sprite4">
      <use ffdec:characterId="7" height="8.0" transform="matrix(1.0, 0.0, 0.0, 1.0, 0.0, 0.0)" width="9.8" xlink:href="#shape4"/>
    </g>
    <g id="shape4">
      <path d="M3.55 -1.55 L1.95 -0.7 Q0.9 -0.15 1.0 -0.95 L1.0 -1.05 -2.4 -0.85 Q-3.15 -0.9 -3.55 -1.35 L-3.05 -2.65 Q-2.5 -2.1 -1.6 -1.9 0.3 -1.65 2.4 -2.45 L3.2 -2.85 3.55 -1.65 3.55 -1.55 M-3.35 0.5 L-0.8 1.0 -2.55 2.15 -0.45 1.7 Q1.45 1.05 3.1 -0.1 L3.5 0.05 3.75 0.9 3.75 1.65 2.9 2.4 2.2 2.1 Q-0.45 4.1 -3.2 2.65 L-3.9 2.2 -3.85 1.1 -3.35 0.5" fill="#0059ba" fill-rule="evenodd" stroke="none"/>
      <path d="M-3.55 -1.35 Q-3.15 -0.9 -2.4 -0.85 L1.0 -1.05 1.0 -0.95 Q0.9 -0.15 1.95 -0.7 L3.55 -1.55 3.0 -0.25 3.1 -0.1 Q1.45 1.05 -0.45 1.7 L-2.55 2.15 -0.8 1.0 -3.35 0.5 -2.95 0.0 -2.9 -0.5 -3.6 -1.2 -3.55 -1.35 M3.2 -2.85 L2.4 -2.45 Q0.3 -1.65 -1.6 -1.9 -2.5 -2.1 -3.05 -2.65 L-2.45 -3.75 2.8 -4.2 3.2 -2.85 M3.5 0.05 L4.65 1.55 4.65 2.0 Q2.95 4.1 0.2 3.65 -2.15 3.4 -4.2 2.4 L-4.5 1.85 -3.85 1.1 -3.9 2.2 -3.2 2.65 Q-0.45 4.1 2.2 2.1 L2.9 2.4 3.75 1.65 3.75 0.9 3.5 0.05" fill="#002752" fill-rule="evenodd" stroke="none"/>
      <path d="M-2.35 -0.3 L-4.3 1.9 Q-1.55 3.75 1.7 3.2 2.9 3.15 4.3 1.85 4.15 1.3 3.3 0.3 L2.9 -0.3 2.25 -0.2 3.45 -1.45 2.75 -3.7 Q3.35 -4.05 3.4 -3.2 3.5 -2.25 3.75 -1.25 L3.7 -1.05 3.15 -0.55 4.9 1.9 Q4.3 3.1 2.15 3.6 L-2.05 3.4 Q-4.1 2.75 -4.9 1.9 -3.65 1.25 -3.2 0.0 L-3.7 -1.1 -3.15 -2.75 Q-2.75 -3.3 -2.9 -2.7 L-3.35 -1.1 -2.35 -0.3" fill="#000000" fill-rule="evenodd" stroke="none"/>
      <path d="M2.1 0.3 L-1.5 0.55 -2.0 0.4 -2.15 0.0 2.2 -0.35 2.1 0.2 2.1 0.3" fill="#ffe21a" fill-rule="evenodd" stroke="none"/>
      <path d="M2.2 -0.35 L2.8 -0.5 3.4 -0.8 2.55 0.15 2.1 0.3 2.1 0.2 2.2 -0.35 M-2.0 0.4 L-3.55 -0.35 -2.15 0.0 -2.0 0.4" fill="#bf5700" fill-rule="evenodd" stroke="none"/>
    </g>
    <g id="sprite5">
      <use ffdec:characterId="11" height="3.6" transform="matrix(1.0, 0.0, 0.0, 1.0, 0.0, 0.0)" width="10.45" xlink:href="#shape5"/>
    </g>
    <g id="shape5">
      <path d="M2.85 -0.3 L2.15 -0.05 1.15 0.65 0.6 -0.2 -1.5 0.95 Q-2.95 0.45 -3.65 -0.75 L-3.6 -1.3 -1.3 -1.15 -1.45 -0.55 Q0.85 -1.4 2.85 -1.0 L2.85 -0.3" fill="#dc001b" fill-rule="evenodd" stroke="none"/>
      <path d="M4.4 -1.6 L5.05 -0.5 3.85 -0.5 Q2.7 0.85 1.3 1.4 L0.0 1.65 Q-1.05 1.8 -2.15 1.2 L-3.35 0.5 -4.85 0.15 -4.65 -0.35 -3.9 -1.45 -3.85 -1.6 -3.55 -1.6 -1.05 -1.7 0.65 -1.65 2.65 -1.5 4.35 -1.65 4.4 -1.6 M2.85 -0.3 L2.85 -1.0 Q0.85 -1.4 -1.45 -0.55 L-1.3 -1.15 -3.6 -1.3 -3.65 -0.75 Q-2.95 0.45 -1.5 0.95 L0.6 -0.2 1.15 0.65 2.15 -0.05 2.85 -0.3" fill="#6c000d" fill-rule="evenodd" stroke="none"/>
      <path d="M-3.45 -0.45 L-3.55 -0.05 -3.15 0.3 -2.2 0.9 -1.55 1.05 -0.25 1.05 0.3 0.8 0.9 0.4 Q0.4 1.45 -0.85 1.4 0.35 1.75 1.45 1.15 L2.75 0.3 Q3.65 -0.3 3.8 -1.2 L3.3 -1.4 2.9 -1.55 4.15 -1.5 4.05 -0.75 4.9 -0.55 4.7 -0.9 4.45 -1.2 Q4.3 -1.45 4.4 -1.8 L4.6 -1.6 4.85 -1.2 5.2 -0.35 3.9 -0.5 1.95 1.3 0.9 1.65 Q-0.25 1.95 -1.25 1.65 L-2.15 1.25 Q-2.75 0.85 -3.4 0.8 L-5.25 0.1 -4.3 -1.2 Q-3.85 -1.85 -3.7 -1.6 -3.85 -0.65 -4.85 0.0 L-3.8 0.15 -3.8 -0.2 Q-3.75 -1.3 -3.0 -1.7 L0.65 -1.6 -0.55 -1.0 Q-1.1 -0.6 -1.7 -0.3 L-0.5 -1.6 -3.0 -1.4 -3.15 -1.15 -3.45 -0.45" fill="#000000" fill-rule="evenodd" stroke="none"/>
    </g>
    <g id="sprite6">
      <use ffdec:characterId="13" height="10.35" transform="matrix(1.0, 0.0, 0.0, 1.0, 0.0, 0.0)" width="8.45" xlink:href="#shape6"/>
    </g>
    <g id="shape6">
      <path d="M-3.75 1.5 L-3.7 -0.2 -2.15 -1.9 Q-1.5 -2.3 -1.2 -2.1 L-1.2 -2.15 1.05 -2.05 0.95 -2.15 Q-0.05 -3.0 -1.0 -3.45 -0.6 -4.25 0.65 -4.9 2.35 -4.05 3.25 -2.6 L1.65 -3.25 2.45 -1.75 2.95 -0.15 1.95 -1.05 1.6 -0.05 0.35 -0.4 -0.15 -0.25 Q0.2 0.8 -1.15 1.5 L-1.65 1.55 -1.85 1.1 -1.7 0.75 -1.2 -0.1 -0.35 -0.8 -1.75 -0.7 -2.45 0.65 -3.35 1.85 -3.75 1.5" fill="#c28a41" fill-rule="evenodd" stroke="none"/>
      <path d="M-3.75 1.5 L-3.35 1.85 -2.45 0.65 -1.75 -0.7 -0.35 -0.8 -1.2 -0.1 -1.7 0.75 -1.85 1.1 -1.65 1.55 -1.15 1.5 Q0.2 0.8 -0.15 -0.25 L0.35 -0.4 1.6 -0.05 1.95 -1.05 2.95 -0.15 2.45 -1.75 1.65 -3.25 3.25 -2.6 Q4.15 -0.85 3.85 1.1 L3.05 1.25 2.4 1.75 -0.05 1.3 0.6 4.65 -1.65 4.6 Q-3.0 4.0 -3.4 2.9 L-3.55 2.55 -3.75 1.5 M-1.0 -3.45 Q-0.05 -3.0 0.95 -2.15 L1.05 -2.05 -1.2 -2.15 -1.25 -2.15 Q-1.35 -2.9 -1.0 -3.45" fill="#714b1a" fill-rule="evenodd" stroke="none"/>
      <path d="M2.4 1.75 L2.05 2.35 0.6 4.65 -0.05 1.3 2.4 1.75" fill="#442a09" fill-rule="evenodd" stroke="none"/>
      <path d="M0.6 -5.15 Q2.65 -4.5 3.65 -2.45 4.6 -0.55 3.95 1.1 L3.1 1.35 2.55 2.35 Q2.15 3.1 1.45 3.35 1.0 4.9 -0.55 5.2 L-2.35 5.05 -3.05 3.55 Q-5.15 1.45 -3.65 -0.45 L-2.1 -2.0 -1.35 -2.4 Q-1.55 -3.65 -0.3 -4.5 L0.6 -5.15 M-1.1 -2.05 Q-2.55 -1.9 -3.35 -0.55 -3.9 0.35 -3.75 1.55 L-3.35 2.85 -2.1 4.4 0.25 4.45 0.7 3.65 Q0.9 2.8 0.3 2.15 L-0.1 1.55 -0.8 2.5 -2.3 2.45 Q-2.7 1.3 -2.25 0.2 L-0.35 -0.8 -0.3 -0.65 Q-1.45 0.0 -1.95 0.8 -2.35 1.4 -1.95 2.2 L-1.0 2.0 -0.8 1.65 -0.55 1.4 -0.2 1.25 Q1.75 1.75 3.65 0.65 3.95 -1.35 2.95 -2.95 2.15 -4.3 0.45 -4.85 L-0.95 -3.3 -1.1 -2.05 M1.05 1.95 L1.25 2.3 1.45 3.05 2.35 1.8 0.7 1.6 1.05 1.95" fill="#000000" fill-rule="evenodd" stroke="none"/>
    </g>
    <g id="sprite7">
      <use ffdec:characterId="15" height="17.75" transform="matrix(1.0, 0.0, 0.0, 1.0, 0.0, 0.0)" width="18.15" xlink:href="#shape7"/>
    </g>
    <g id="shape7">
      <path d="M-2.05 -2.5 L-5.8 -6.95 -0.35 -5.95 -2.05 -2.5" fill="#cbc6c6" fill-rule="evenodd" stroke="none"/>
      <path d="M-7.85 -7.45 L-2.2 -2.05 -4.3 -0.7 -6.25 0.2 -7.85 -7.45" fill="#888585" fill-rule="evenodd" stroke="none"/>
      <path d="M0.15 -6.05 L1.4 -3.65 3.2 -0.65 4.9 2.25 5.4 3.0 5.75 3.65 5.1 4.35 4.3 3.6 4.3 3.45 1.3 0.6 -1.75 -2.1 0.15 -6.05" fill="#aca7a7" fill-rule="evenodd" stroke="none"/>
      <path d="M-4.3 -0.7 L-1.9 -1.95 4.3 3.6 5.1 4.35 4.35 5.0 -6.6 0.35 -6.25 0.2 -4.3 -0.7" fill="#6e6c6c" fill-rule="evenodd" stroke="none"/>
      <path d="M0.35 -6.4 L0.25 -6.3 0.15 -6.05 -1.75 -2.1 -1.8 -2.0 -1.9 -1.95 -4.3 -0.7 -2.2 -2.05 -7.85 -7.45 -8.9 -8.55 -7.95 -8.35 -7.95 -8.3 0.35 -6.4 M-2.05 -2.5 L-0.35 -5.95 -5.8 -6.95 -2.05 -2.5" fill="#ffffff" fill-rule="evenodd" stroke="none"/>
      <path d="M0.15 -6.05 L0.25 -6.3 0.35 -6.4 0.45 -6.4 5.45 3.05 5.4 3.0 4.9 2.25 3.2 -0.65 1.4 -3.65 0.15 -6.05 M-1.9 -1.95 L-1.8 -2.0 -1.75 -2.1 1.3 0.6 4.3 3.45 4.3 3.6 -1.9 -1.95" fill="#e2e0e0" fill-rule="evenodd" stroke="none"/>
      <path d="M-8.9 -8.55 L-7.85 -7.45 -6.25 0.2 -6.6 0.35 -8.9 -8.55" fill="#eceaea" fill-rule="evenodd" stroke="none"/>
      <path d="M7.95 0.85 L8.7 0.7 8.7 1.85 8.25 1.85 8.3 1.55 7.95 0.85 M8.7 2.3 L8.65 4.4 7.9 3.95 4.7 7.1 4.9 8.1 3.9 8.3 4.9 6.25 Q5.9 4.35 7.45 3.15 L7.8 3.25 Q8.25 3.25 8.25 2.75 L8.25 2.55 8.7 2.3 M3.45 8.4 L1.4 8.75 1.65 7.15 2.95 6.75 3.45 8.4" fill="#ffe237" fill-rule="evenodd" stroke="none"/>
      <path d="M6.65 1.15 L7.95 0.85 8.3 1.55 8.25 1.85 Q8.15 2.05 7.85 2.05 6.55 2.05 6.55 1.4 L6.65 1.15 M8.25 2.55 L8.25 2.75 Q8.25 3.25 7.8 3.25 L7.45 3.15 7.35 3.0 7.3 2.7 Q7.3 2.25 7.8 2.25 8.15 2.25 8.25 2.55" fill="#fffaf3" fill-rule="evenodd" stroke="none"/>
      <path d="M8.7 1.85 L8.7 2.3 8.25 2.55 Q8.15 2.25 7.8 2.25 7.3 2.25 7.3 2.7 L7.35 3.0 7.45 3.15 Q5.9 4.35 4.9 6.25 L3.9 8.3 3.45 8.4 2.95 6.75 1.65 7.15 1.85 5.85 3.6 6.2 6.5 2.8 5.8 1.3 6.65 1.15 6.55 1.4 Q6.55 2.05 7.85 2.05 8.15 2.05 8.25 1.85 L8.7 1.85" fill="#96630e" fill-rule="evenodd" stroke="none"/>
      <path d="M-2.2 2.85 L-7.25 0.75 -9.1 -8.85 0.65 -6.75 5.7 3.3 6.15 2.7 5.35 1.1 Q7.7 0.95 9.05 0.1 L8.85 4.65 7.6 4.25 4.95 7.15 5.4 8.4 0.85 8.9 Q1.7 7.5 1.65 5.95 L1.65 5.15 3.25 5.8 4.15 5.05 0.2 3.7 -0.55 3.45 -1.35 3.2 -2.2 2.85 M6.05 1.45 L6.75 2.85 4.25 5.4 3.45 6.4 2.05 5.8 1.9 7.05 1.65 8.45 4.9 8.05 4.55 7.5 Q5.55 5.7 7.1 4.55 L7.9 3.9 8.5 4.15 8.65 0.9 6.95 1.4 6.05 1.45 M5.55 3.55 L0.25 -6.15 -8.85 -8.4 -6.35 -0.05 4.4 4.8 5.55 3.55" fill="#000000" fill-rule="evenodd" stroke="none"/>
    </g>
    <g id="sprite8">
      <use ffdec:characterId="17" height="4.25" transform="matrix(1.0, 0.0, 0.0, 1.0, 0.0, 0.0)" width="4.6" xlink:href="#shape8"/>
    </g>
    <g id="shape8">
      <path d="M-0.1 0.15 L0.1 0.15 Q0.6 0.15 0.6 -0.3 0.6 -0.7 0.2 -0.8 L0.25 -0.85 1.1 -0.45 0.55 1.0 -0.3 1.25 -1.2 0.55 -0.1 0.15 M0.0 1.0 L0.25 0.85 0.35 0.65 Q0.35 0.3 -0.05 0.3 -0.45 0.3 -0.45 0.65 -0.45 1.0 0.0 1.0" fill="#ffe237" fill-rule="evenodd" stroke="none"/>
      <path d="M-0.1 0.15 L-1.2 0.55 -0.3 1.25 0.55 1.0 1.1 -0.45 1.3 -0.05 Q1.6 0.75 1.1 1.35 L0.9 1.65 Q-0.4 2.45 -1.35 1.5 L-1.75 0.3 -1.7 -0.1 -1.65 -0.15 -1.55 -0.35 -0.85 -1.25 Q-0.45 -0.95 0.2 -0.85 L0.25 -0.85 0.2 -0.8 0.05 -0.8 Q-0.4 -0.8 -0.4 -0.3 L-0.4 -0.05 -0.1 0.15" fill="#96630e" fill-rule="evenodd" stroke="none"/>
      <path d="M0.2 -0.8 Q0.6 -0.7 0.6 -0.3 0.6 0.15 0.1 0.15 L-0.1 0.15 -0.4 -0.05 -0.4 -0.3 Q-0.4 -0.8 0.05 -0.8 L0.2 -0.8 M0.0 1.0 Q-0.45 1.0 -0.45 0.65 -0.45 0.3 -0.05 0.3 0.35 0.3 0.35 0.65 L0.25 0.85 0.0 1.0" fill="#ffffff" fill-rule="evenodd" stroke="none"/>
      <path d="M-0.85 -1.25 L-1.55 -0.35 -1.65 -0.15 -1.7 -0.1 -1.7 -0.3 -2.95 -1.9 -1.35 -1.9 -0.9 -1.3 -0.85 -1.25" fill="#553808" fill-rule="evenodd" stroke="none"/>
      <path d="M1.65 -0.3 Q1.8 1.45 0.2 2.15 L-1.45 1.85 -1.95 0.65 Q-1.95 -1.0 -1.25 1.45 L-0.05 1.8 Q1.05 1.65 1.15 0.7 L1.2 0.3 1.2 -0.2 Q0.5 -0.7 -0.45 -0.7 L-1.5 -2.1 -0.4 -1.05 0.6 -1.1 1.4 -0.6 1.65 -0.3" fill="#000000" fill-rule="evenodd" stroke="none"/>
    </g>
    <g id="sprite9">
      <use ffdec:characterId="19" height="12.5" transform="matrix(1.0, 0.0, 0.0, 1.0, 0.0, 0.0)" width="10.25" xlink:href="#shape9"/>
    </g>
    <g id="shape9">
      <path d="M-3.05 -5.0 L-2.85 -4.6 3.45 -4.75 3.6 -5.0 4.65 1.5 4.05 2.15 3.35 2.75 3.05 2.9 Q1.75 3.95 0.2 4.55 L-0.5 4.3 -2.15 3.55 -4.65 2.2 -4.75 2.15 -3.95 -4.15 -3.85 -5.55 -3.5 -5.85 -3.05 -5.0 M4.05 2.15 L3.3 -4.2 -2.9 -4.15 -3.75 1.95 -2.0 -3.15 2.35 -3.3 2.75 -2.15 3.15 -1.05 3.55 0.0 3.85 1.1 4.05 2.15 M1.25 0.95 L1.1 1.5 0.2 2.1 -0.35 2.1 Q-1.15 1.85 -1.15 1.3 -1.0 0.9 -0.7 0.9 -0.35 0.9 -0.2 1.2 L-0.7 1.55 -0.2 1.85 Q0.55 1.85 0.55 1.15 0.3 0.25 -0.7 0.25 -1.75 0.25 -1.75 1.3 L-1.55 2.05 Q-1.15 2.75 -0.1 2.75 1.85 2.75 1.85 0.95 1.85 -0.45 0.75 -0.9 -0.35 -1.35 -0.35 -1.6 L0.1 -2.55 -0.25 -2.85 -0.8 -2.35 -0.85 -1.5 Q-0.85 -0.75 0.2 -0.5 1.25 -0.3 1.25 0.95" fill="#7a7a7a" fill-rule="evenodd" stroke="none"/>
      <path d="M4.0 -6.0 L3.45 -5.25 -2.85 -5.0 -3.05 -5.0 -3.5 -5.85 4.0 -6.0" fill="#c9c6c6" fill-rule="evenodd" stroke="none"/>
      <path d="M-2.15 3.55 L-0.5 4.3 0.2 4.55 Q1.75 3.95 3.05 2.9 L3.35 2.75 0.2 5.45 -2.15 3.55 M4.05 2.15 L3.85 1.1 3.55 0.0 3.15 -1.05 2.75 -2.15 2.35 -3.3 -2.0 -3.15 -3.75 1.95 -2.9 -4.15 3.3 -4.2 4.05 2.15" fill="#555050" fill-rule="evenodd" stroke="none"/>
      <path d="M1.25 0.95 Q1.25 -0.3 0.2 -0.5 -0.85 -0.75 -0.85 -1.5 L-0.8 -2.35 -0.25 -2.85 0.1 -2.55 -0.35 -1.6 Q-0.35 -1.35 0.75 -0.9 1.85 -0.45 1.85 0.95 1.85 2.75 -0.1 2.75 -1.15 2.75 -1.55 2.05 L-1.75 1.3 Q-1.75 0.25 -0.7 0.25 0.3 0.25 0.55 1.15 0.55 1.85 -0.2 1.85 L-0.7 1.55 -0.2 1.2 Q-0.35 0.9 -0.7 0.9 -1.0 0.9 -1.15 1.3 -1.15 1.85 -0.35 2.1 L0.2 2.1 1.1 1.5 1.25 0.95" fill="#3b3636" fill-rule="evenodd" stroke="none"/>
      <path d="M4.65 1.5 L3.6 -5.0 3.45 -4.75 -2.85 -4.6 -3.05 -5.0 -2.85 -5.0 3.45 -5.25 4.0 -6.0 4.9 1.25 4.65 1.5" fill="#ffffff" fill-rule="evenodd" stroke="none"/>
      <path d="M4.65 1.5 L4.9 1.25 Q4.2 4.2 1.4 5.6 L0.25 5.95 Q-2.05 5.4 -3.75 3.4 L-4.65 2.2 -2.15 3.55 0.2 5.45 3.35 2.75 4.05 2.15 4.65 1.5" fill="#323131" fill-rule="evenodd" stroke="none"/>
      <path d="M-4.35 -6.25 L4.35 -6.25 5.1 2.75 Q3.6 4.85 1.1 5.75 L0.0 6.25 -0.15 6.2 Q-2.3 5.5 -4.2 4.0 L-4.65 3.6 -5.15 3.15 -4.35 -6.25 M3.85 -5.65 L-3.75 -5.65 -4.35 2.1 Q-3.5 4.0 -1.65 5.05 L-0.85 5.55 0.0 5.9 Q2.15 5.4 3.5 3.65 L4.0 2.8 4.5 1.8 3.85 -5.65" fill="#000000" fill-rule="evenodd" stroke="none"/>
    </g>
  </defs>
</svg>
