<?xml version="1.0" encoding="UTF-8" standalone="no"?>
<svg xmlns:ffdec="https://www.free-decompiler.com/flash" xmlns:xlink="http://www.w3.org/1999/xlink" ffdec:objectType="frame" height="21.4px" width="42.7px" xmlns="http://www.w3.org/2000/svg">
  <g transform="matrix(1.0, 0.0, 0.0, 1.0, 25.95, -10.05)">
    <use ffdec:characterId="58" height="21.4" transform="matrix(1.0, 0.0, 0.0, 1.0, -25.9, 10.1)" width="42.7" xlink:href="#sprite0"/>
  </g>
  <defs>
    <g id="sprite0">
      <use ffdec:characterId="2" height="17.05" transform="matrix(1.0, 0.0, 0.0, 1.0, 0.0, 0.0)" width="22.55" xlink:href="#sprite1"/>
      <use ffdec:characterId="18" height="7.25" transform="matrix(1.0, 0.0, 0.0, 1.0, 22.6, 3.65)" width="6.85" xlink:href="#sprite2"/>
      <use ffdec:characterId="32" height="3.8" transform="matrix(1.0055, 0.1111, -0.2588, 0.9659, 22.5, 10.6)" width="5.0" xlink:href="#sprite3"/>
      <use ffdec:characterId="34" height="3.7" transform="matrix(0.371, 0.0, 0.0, 0.6711, 24.7, 10.7)" width="6.2" xlink:href="#sprite4"/>
      <use ffdec:characterId="32" height="3.8" transform="matrix(-1.0055, 0.1111, 0.2588, 0.9659, 29.15, 10.6)" width="5.0" xlink:href="#sprite3"/>
      <use ffdec:characterId="20" height="7.65" transform="matrix(1.0, 0.0, 0.0, 1.0, 21.25, 2.45)" width="6.8" xlink:href="#sprite5"/>
      <use ffdec:characterId="55" height="7.65" transform="matrix(1.0, 0.0, 0.0, 1.0, 15.8, 13.6)" width="8.7" xlink:href="#sprite6"/>
      <use ffdec:characterId="55" height="7.65" transform="matrix(-1.0, 0.0, 0.0, 1.0, 35.7, 13.6)" width="8.7" xlink:href="#sprite6"/>
      <use ffdec:characterId="57" height="1.8" transform="matrix(1.0, 0.0, 0.0, 1.0, 21.95, 10.35)" width="7.75" xlink:href="#sprite11"/>
      <use ffdec:characterId="22" height="1.2" transform="matrix(1.0, 0.0, 0.0, 1.0, 21.85, 10.05)" width="7.85" xlink:href="#sprite12"/>
      <use ffdec:characterId="20" height="7.65" transform="matrix(-1.0, 0.0, 0.0, 1.0, 30.7, 2.45)" width="6.8" xlink:href="#sprite13"/>
      <use ffdec:characterId="30" height="15.65" transform="matrix(-0.8562, 0.0667, 0.0667, 0.8562, 23.7, 4.5)" width="17.0" xlink:href="#sprite14"/>
      <use ffdec:characterId="30" height="15.65" transform="matrix(0.8562, 0.0667, -0.0667, 0.8562, 28.1, 4.5)" width="17.0" xlink:href="#sprite14"/>
      <use ffdec:characterId="24" height="1.55" transform="matrix(1.0, 0.0, 0.0, 1.0, 24.9, 10.2)" width="2.3" xlink:href="#sprite20"/>
    </g>
    <g id="sprite1">
      <use ffdec:characterId="1" height="17.05" transform="matrix(1.0, 0.0, 0.0, 1.0, 0.0, 0.0)" width="22.55" xlink:href="#shape0"/>
    </g>
    <g id="shape0">
      <path d="M21.4 11.05 L21.65 11.1 22.05 11.3 22.4 11.75 22.5 12.15 22.5 12.7 22.3 13.2 22.2 13.4 22.0 13.6 21.9 13.7 21.8 13.75 20.25 14.3 Q14.75 15.95 9.1 12.95 L7.95 12.3 7.9 12.3 7.85 12.25 6.95 11.6 6.15 10.95 Q6.4 9.3 7.55 8.1 8.3 7.35 9.25 7.05 9.7 6.85 10.25 6.75 L11.15 6.65 11.25 6.65 12.7 6.9 12.75 6.9 Q13.8 7.25 14.65 8.1 L14.75 8.2 14.4 7.65 14.7 8.0 14.9 8.2 15.6 8.8 15.7 8.9 15.8 8.95 16.25 9.3 16.4 9.4 18.15 10.35 19.6 10.8 19.6 10.85 19.65 10.85 19.65 10.8 19.95 10.9 20.6 11.0 20.65 11.0 20.8 11.0 20.9 11.0 21.4 11.05 M12.45 4.85 L12.5 5.0 12.55 5.1 13.8 6.95 Q12.9 6.1 11.85 5.7 L11.2 5.5 10.15 5.35 9.8 5.35 9.25 5.4 Q7.25 5.55 5.8 6.95 4.9 7.85 4.5 8.95 L4.25 8.55 3.5 6.75 4.4 5.55 Q5.45 4.55 6.75 4.1 7.75 3.75 8.85 3.75 L9.25 3.75 11.1 4.15 11.2 4.2 Q11.85 4.4 12.45 4.85" fill="#9b4c0d" fill-rule="evenodd" stroke="none"/>
      <path d="M21.8 13.75 L20.25 14.8 Q14.75 18.0 8.5 16.45 L8.45 16.4 Q6.2 15.1 6.1 12.3 L6.1 12.15 6.1 11.5 6.15 10.95 6.95 11.6 7.85 12.25 7.9 12.3 7.95 12.3 9.1 12.95 Q14.75 15.95 20.25 14.3 L21.8 13.75 M6.6 15.7 L3.65 13.55 Q2.6 12.0 2.6 10.05 2.6 8.6 3.15 7.4 L3.5 6.75 4.25 8.55 4.5 8.95 Q4.3 9.5 4.25 10.05 L4.15 11.0 4.2 11.7 Q4.4 13.6 5.8 15.0 L6.6 15.7" fill="#e28b46" fill-rule="evenodd" stroke="none"/>
      <path d="M6.75 0.0 Q9.1 0.0 10.8 1.45 11.95 2.4 12.3 3.65 L12.45 4.85 Q11.85 4.4 11.2 4.2 L11.1 4.15 9.25 3.75 8.85 3.75 Q7.75 3.75 6.75 4.1 5.45 4.55 4.4 5.55 L3.5 6.75 3.25 5.9 3.15 4.9 Q3.15 3.9 3.5 3.1 3.85 2.1 4.65 1.3 5.55 0.4 6.7 0.05 L6.75 0.05 6.75 0.0 M13.8 6.95 L13.9 7.05 14.4 7.65 14.75 8.2 14.65 8.1 Q13.8 7.25 12.75 6.9 L12.7 6.9 11.25 6.65 11.15 6.65 10.25 6.75 Q9.7 6.85 9.25 7.05 8.3 7.35 7.55 8.1 6.4 9.3 6.15 10.95 L6.05 10.85 5.95 10.7 4.5 8.95 Q4.9 7.85 5.8 6.95 7.25 5.55 9.25 5.4 L9.8 5.35 10.15 5.35 11.2 5.5 11.85 5.7 Q12.9 6.1 13.8 6.95" fill="#61290e" fill-rule="evenodd" stroke="none"/>
      <path d="M8.45 16.4 L7.95 16.25 7.55 16.1 7.5 16.1 6.6 15.7 5.8 15.0 Q4.4 13.6 4.2 11.7 L4.15 11.0 4.25 10.05 Q4.3 9.5 4.5 8.95 L5.95 10.7 6.05 10.85 6.15 10.95 6.1 11.5 6.1 12.15 6.1 12.3 Q6.2 15.1 8.45 16.4 M3.65 13.55 L3.5 13.4 Q1.45 11.4 0.6 8.95 -0.05 7.15 0.0 5.6 0.1 3.3 1.75 1.6 3.75 -0.2 6.75 0.0 L6.75 0.05 6.7 0.05 Q5.55 0.4 4.65 1.3 3.85 2.1 3.5 3.1 3.15 3.9 3.15 4.9 L3.25 5.9 3.5 6.75 3.15 7.4 Q2.6 8.6 2.6 10.05 2.6 12.0 3.65 13.55" fill="#a24112" fill-rule="evenodd" stroke="none"/>
      <path d="M6.75 0.0 Q9.1 0.0 10.8 1.45 11.95 2.4 12.3 3.65 L12.45 4.85 12.5 5.0 12.55 5.1 13.8 6.95 13.9 7.05 14.4 7.65 14.7 8.0 14.9 8.2 15.6 8.8 15.7 8.9 15.8 8.95 16.25 9.3 16.4 9.4 18.15 10.35 19.6 10.8 19.65 10.8 19.95 10.85 20.6 11.0 20.65 11.0 20.8 11.0 20.9 11.0 21.4 11.05" ffdec:has-small-stroke="true" ffdec:original-stroke-width="0.1" fill="none" stroke="#433681" stroke-linecap="round" stroke-linejoin="round" stroke-width="1.0"/>
      <path d="M21.8 13.75 L20.25 14.8 Q14.75 18.0 8.5 16.45 M8.45 16.4 L7.95 16.25 7.55 16.1 M7.5 16.1 L6.6 15.7 3.65 13.55 3.5 13.4 Q1.45 11.4 0.6 8.95 -0.05 7.15 0.0 5.6 0.1 3.3 1.75 1.6 3.75 -0.2 6.75 0.0" ffdec:has-small-stroke="true" ffdec:original-stroke-width="0.1" fill="none" stroke="#602312" stroke-linecap="round" stroke-linejoin="round" stroke-width="1.0"/>
      <path d="M8.5 16.45 L8.45 16.4 M7.55 16.1 L7.5 16.1" ffdec:has-small-stroke="true" ffdec:original-stroke-width="0.1" fill="none" stroke="#412710" stroke-linecap="round" stroke-linejoin="round" stroke-width="1.0"/>
    </g>
    <g id="sprite2">
      <use ffdec:characterId="17" height="7.25" transform="matrix(1.0, 0.0, 0.0, 1.0, -23.95, -2.3)" width="6.85" xlink:href="#shape1"/>
    </g>
    <g id="shape1">
      <path d="M23.95 2.3 L27.3 6.3 30.8 2.3 29.8 9.55 24.7 9.55 23.95 2.3" fill="#ea00ff" fill-rule="evenodd" stroke="none"/>
    </g>
    <g id="sprite3">
      <use ffdec:characterId="31" height="3.8" transform="matrix(1.0, 0.0, 0.0, 1.0, 0.0, 0.0)" width="5.0" xlink:href="#shape2"/>
    </g>
    <g id="shape2">
      <path d="M3.3 2.55 L3.3 3.25 0.35 3.25 0.35 2.55 3.3 2.55" fill="#ffcc00" fill-rule="evenodd" stroke="none"/>
      <path d="M0.35 2.55 L0.05 2.55 Q-0.45 1.85 -0.55 1.15 L-0.7 0.0 4.05 -0.55 4.3 0.55 Q4.3 1.4 3.9 2.2 L3.65 2.55 3.3 2.55 0.35 2.55" fill="#1e2e48" fill-rule="evenodd" stroke="none"/>
    </g>
    <g id="sprite4">
      <use ffdec:characterId="33" height="3.7" transform="matrix(1.0, 0.0, 0.0, 1.0, 0.0, 0.0)" width="6.2" xlink:href="#shape3"/>
    </g>
    <g id="shape3">
      <path d="M6.2 1.85 Q6.2 2.6 5.3 3.15 4.4 3.7 3.1 3.7 1.8 3.7 0.9 3.15 0.0 2.6 0.0 1.85 0.0 1.1 0.9 0.55 1.8 0.0 3.1 0.0 4.4 0.0 5.3 0.55 6.2 1.1 6.2 1.85" fill="#1e2e48" fill-rule="evenodd" stroke="none"/>
    </g>
    <g id="sprite5">
      <use ffdec:characterId="19" height="7.65" transform="matrix(1.0, 0.0, 0.0, 1.0, 0.0, 0.0)" width="6.8" xlink:href="#shape4"/>
    </g>
    <g id="shape4">
      <path d="M2.65 0.55 L2.55 1.2 2.55 3.95 3.45 6.55 5.1 7.7 0.65 7.7 0.5 6.75 Q-1.05 4.85 -0.55 2.65 -3.3 1.05 2.65 0.55" fill="#1e2e48" fill-rule="evenodd" stroke="none"/>
      <path d="M1.15 5.1 Q-0.05 4.2 0.25 3.4 0.55 2.6 1.5 2.5 L2.5 2.45 3.15 6.05 Q2.05 5.85 1.15 5.1" fill="#2b446f" fill-rule="evenodd" stroke="none"/>
      <path d="M2.65 0.55 L2.55 1.2 2.55 3.95 M3.45 6.55 L5.1 7.7" ffdec:has-small-stroke="true" ffdec:original-stroke-width="0.5" fill="none" stroke="#c49630" stroke-linecap="round" stroke-linejoin="round" stroke-width="1.0"/>
      <path d="M2.55 3.95 L3.45 6.55" ffdec:has-small-stroke="true" ffdec:original-stroke-width="0.5" fill="none" stroke="#f1bd49" stroke-linecap="round" stroke-linejoin="round" stroke-width="1.0"/>
      <path d="M-0.55 2.65 Q-3.3 1.05 2.65 0.55" ffdec:has-small-stroke="true" ffdec:original-stroke-width="0.1" fill="none" stroke="#c49630" stroke-linecap="round" stroke-linejoin="round" stroke-width="1.0"/>
    </g>
    <g id="sprite6">
      <use ffdec:characterId="45" height="5.0" transform="matrix(1.0, 0.0, 0.0, 1.0, 1.8, 2.75)" width="7.5" xlink:href="#sprite7"/>
      <use ffdec:characterId="47" height="5.95" transform="matrix(1.0, 0.0, 0.0, 1.0, 0.6, 1.4)" width="8.1" xlink:href="#sprite8"/>
      <use ffdec:characterId="49" height="2.3" transform="matrix(1.0, 0.0, 0.0, 1.0, 1.4, 2.65)" width="3.7" xlink:href="#sprite9"/>
      <use ffdec:characterId="51" height="2.8" transform="matrix(1.0, 0.0, 0.0, 1.0, 5.15, 0.1)" width="3.4" xlink:href="#sprite10"/>
    </g>
    <g id="sprite7">
      <use ffdec:characterId="44" height="5.0" transform="matrix(1.0, 0.0, 0.0, 1.0, 0.0, 0.0)" width="7.5" xlink:href="#shape5"/>
    </g>
    <g id="shape5">
      <path d="M5.75 2.5 L5.75 2.65 6.25 2.65 Q5.85 3.55 5.25 4.15 4.65 4.75 3.65 4.9 L1.6 5.0 Q0.6 4.9 0.0 4.2 4.55 4.25 5.15 3.0 L5.4 2.5 5.45 2.4 5.6 2.05 5.65 2.0 6.3 1.55 Q6.9 1.0 6.8 0.0 7.55 0.8 7.5 1.25 L6.9 2.45 6.8 2.15 Q6.45 1.7 6.15 2.0 L6.0 2.1 5.75 2.5" fill="#dba827" fill-rule="evenodd" stroke="none"/>
      <path d="M6.9 2.45 L6.6 2.5 5.75 2.5 6.0 2.1 6.15 2.0 Q6.45 1.7 6.8 2.15 L6.9 2.45" fill="#ffe195" fill-rule="evenodd" stroke="none"/>
    </g>
    <g id="sprite8">
      <use ffdec:characterId="46" height="5.95" transform="matrix(1.0, 0.0, 0.0, 1.0, 0.0, 0.0)" width="8.1" xlink:href="#shape6"/>
    </g>
    <g id="shape6">
      <path d="M0.25 4.05 Q-0.1 3.3 0.0 2.6 0.3 0.4 2.75 0.8 3.7 0.7 4.5 0.25 6.0 -0.4 7.3 0.55 7.75 0.9 8.05 1.75 8.35 2.55 7.3 3.85 L6.35 4.9 6.55 4.6 6.15 5.1 6.05 5.15 5.35 5.65 3.5 5.95 1.65 5.65 Q1.05 5.4 0.95 5.15 L0.9 5.1 0.75 4.9 0.25 4.05" fill="#172030" fill-rule="evenodd" stroke="none"/>
    </g>
    <g id="sprite9">
      <use ffdec:characterId="48" height="2.3" transform="matrix(1.0, 0.0, 0.0, 1.0, 0.0, 0.0)" width="3.7" xlink:href="#shape7"/>
    </g>
    <g id="shape7">
      <path d="M3.7 1.15 Q3.7 1.65 3.15 1.95 2.6 2.3 1.85 2.3 L0.55 1.95 Q0.0 1.65 0.0 1.15 0.0 0.65 0.55 0.3 1.1 0.0 1.85 0.0 L3.15 0.3 Q3.7 0.65 3.7 1.15" fill="#344666" fill-rule="evenodd" stroke="none"/>
    </g>
    <g id="sprite10">
      <use ffdec:characterId="50" height="2.8" transform="matrix(1.0, 0.0, 0.0, 1.0, 0.0, 0.0)" width="3.4" xlink:href="#shape8"/>
    </g>
    <g id="shape8">
      <path d="M0.5 1.15 Q0.85 0.6 1.6 1.15 L2.05 0.1 3.4 0.95 2.35 2.8 0.0 2.15 0.5 1.15" fill="#202e47" fill-rule="evenodd" stroke="none"/>
      <path d="M2.05 0.1 L1.6 1.15 Q0.85 0.6 0.5 1.15 L0.65 0.1 0.7 0.15 1.6 0.0 2.05 0.1" fill="#bb8e00" fill-rule="evenodd" stroke="none"/>
    </g>
    <g id="sprite11">
      <use ffdec:characterId="56" height="1.8" transform="matrix(1.0, 0.0, 0.0, 1.0, 0.0, 0.0)" width="7.75" xlink:href="#shape9"/>
    </g>
    <g id="shape9">
      <path d="M0.0 0.0 L7.75 0.0 7.75 1.8 0.0 1.8 0.0 0.0" fill="#172030" fill-rule="evenodd" stroke="none"/>
    </g>
    <g id="sprite12">
      <use ffdec:characterId="21" height="1.2" transform="matrix(1.0, 0.0, 0.0, 1.0, 0.0, 0.0)" width="7.85" xlink:href="#shape10"/>
    </g>
    <g id="shape10">
      <path d="M0.0 0.0 L7.85 0.0 7.85 1.2 0.0 1.2 0.0 0.0" fill="#e377ff" fill-rule="evenodd" stroke="none"/>
    </g>
    <g id="sprite13">
      <use ffdec:characterId="19" height="7.65" transform="matrix(1.0, 0.0, 0.0, 1.0, 0.0, 0.0)" width="6.8" xlink:href="#shape11"/>
    </g>
    <g id="shape11">
      <path d="M2.65 0.55 L2.55 1.2 2.55 3.95 3.45 6.55 5.1 7.7 0.65 7.7 0.5 6.75 Q-1.05 4.85 -0.55 2.65 -3.3 1.05 2.65 0.55" fill="#1e2e48" fill-rule="evenodd" stroke="none"/>
      <path d="M1.15 5.1 Q-0.05 4.2 0.25 3.4 0.55 2.6 1.5 2.5 L2.5 2.45 3.15 6.05 Q2.05 5.85 1.15 5.1" fill="#2b446f" fill-rule="evenodd" stroke="none"/>
      <path d="M2.65 0.55 L2.55 1.2 2.55 3.95 M3.45 6.55 L5.1 7.7" ffdec:has-small-stroke="true" ffdec:original-stroke-width="0.5" fill="none" stroke="#c49630" stroke-linecap="round" stroke-linejoin="round" stroke-width="1.0"/>
      <path d="M2.55 3.95 L3.45 6.55" ffdec:has-small-stroke="true" ffdec:original-stroke-width="0.5" fill="none" stroke="#f1bd49" stroke-linecap="round" stroke-linejoin="round" stroke-width="1.0"/>
      <path d="M-0.55 2.65 Q-3.3 1.05 2.65 0.55" ffdec:has-small-stroke="true" ffdec:original-stroke-width="0.1" fill="none" stroke="#c49630" stroke-linecap="round" stroke-linejoin="round" stroke-width="1.0"/>
    </g>
    <g id="sprite14">
      <use ffdec:characterId="10" height="13.75" transform="matrix(1.0, 0.0, 0.0, 1.0, 3.95, 1.9)" width="13.05" xlink:href="#sprite15"/>
      <use ffdec:characterId="6" height="6.85" transform="matrix(1.0, 0.0, 0.0, 1.0, 0.0, 0.0)" width="9.9" xlink:href="#sprite16"/>
      <use ffdec:characterId="12" height="5.95" transform="matrix(1.0, 0.0, 0.0, 1.0, 2.5, 6.35)" width="4.45" xlink:href="#sprite17"/>
      <use ffdec:characterId="14" height="3.8" transform="matrix(1.0, 0.0, 0.0, 1.0, 6.95, 10.95)" width="3.55" xlink:href="#sprite18"/>
      <use ffdec:characterId="16" height="7.95" transform="matrix(1.0, 0.0, 0.0, 1.0, 6.1, 2.65)" width="9.25" xlink:href="#sprite19"/>
    </g>
    <g id="sprite15">
      <use ffdec:characterId="9" height="13.75" transform="matrix(1.0, 0.0, 0.0, 1.0, 0.0, 0.0)" width="13.05" xlink:href="#shape12"/>
    </g>
    <g id="shape12">
      <path d="M12.45 10.05 Q13.55 7.95 12.55 5.35 11.55 2.85 9.1 1.3 6.7 -0.25 4.1 0.05 2.7 0.2 1.7 1.0 -1.35 3.45 1.05 7.05 L2.6 9.45 Q3.55 15.85 9.55 12.7 11.5 11.8 12.45 10.05" fill="#1e2e48" fill-rule="evenodd" stroke="none"/>
    </g>
    <g id="sprite16">
      <use ffdec:characterId="5" height="6.85" transform="matrix(1.0, 0.0, 0.0, 1.0, 0.0, 0.0)" width="9.9" xlink:href="#shape13"/>
    </g>
    <g id="shape13">
      <path d="M0.1 2.1 Q-0.15 3.15 0.3 3.95 0.75 4.9 1.65 5.0 L7.25 6.85 Q8.15 6.95 8.9 6.35 9.65 5.75 9.85 4.7 10.05 3.65 9.65 2.8 9.2 2.0 8.35 1.9 L3.3 0.25 2.7 0.05 Q1.85 -0.1 1.05 0.5 L0.45 1.2 0.25 1.6 0.1 2.1" fill="#1e2e48" fill-rule="evenodd" stroke="none"/>
    </g>
    <g id="sprite17">
      <use ffdec:characterId="11" height="5.95" transform="matrix(1.0, 0.0, 0.0, 1.0, 0.0, 0.0)" width="4.45" xlink:href="#shape14"/>
    </g>
    <g id="shape14">
      <path d="M0.75 0.95 Q-0.15 2.05 0.0 3.35 0.0 4.9 1.25 5.6 L3.4 5.75 Q4.35 5.25 4.45 4.4 L4.25 2.1 Q3.6 -0.45 1.85 0.1 1.25 0.4 0.75 0.95" fill="#1e2e48" fill-rule="evenodd" stroke="none"/>
    </g>
    <g id="sprite18">
      <use ffdec:characterId="13" height="3.8" transform="matrix(1.0, 0.0, 0.0, 1.0, 0.0, 0.0)" width="3.55" xlink:href="#shape15"/>
    </g>
    <g id="shape15">
      <path d="M0.1 0.25 Q-0.15 0.75 0.4 2.0 0.85 3.3 1.35 3.6 L2.45 3.8 3.35 3.25 3.5 2.15 2.8 1.25 1.35 0.35 0.1 0.25" fill="#121925" fill-rule="evenodd" stroke="none"/>
    </g>
    <g id="sprite19">
      <use ffdec:characterId="15" height="7.95" transform="matrix(1.0, 0.0, 0.0, 1.0, 0.0, 0.0)" width="9.25" xlink:href="#shape16"/>
    </g>
    <g id="shape16">
      <path d="M9.25 4.5 Q9.25 6.35 7.15 7.3 5.05 8.25 3.7 7.85 2.35 7.45 1.25 6.15 0.1 4.8 0.0 3.55 -0.05 2.25 1.05 1.1 2.2 -0.05 4.3 0.0 6.4 0.05 7.85 1.35 9.25 2.65 9.25 4.5" fill="#41587e" fill-rule="evenodd" stroke="none"/>
    </g>
    <g id="sprite20">
      <use ffdec:characterId="23" height="1.55" transform="matrix(1.0, 0.0, 0.0, 1.0, 0.0, 0.0)" width="2.3" xlink:href="#shape17"/>
    </g>
    <g id="shape17">
      <path d="M1.8 0.0 L1.8 1.05 0.0 1.05 0.0 0.0" ffdec:has-small-stroke="true" ffdec:original-stroke-width="0.5" fill="none" stroke="#ffff00" stroke-linecap="round" stroke-linejoin="round" stroke-width="1.0"/>
      <path d="M0.0 0.0 L1.8 0.0" ffdec:has-small-stroke="true" ffdec:original-stroke-width="0.5" fill="none" stroke="#ffffd0" stroke-linecap="round" stroke-linejoin="round" stroke-width="1.0"/>
    </g>
  </defs>
</svg>
