<?xml version="1.0" encoding="UTF-8" standalone="no"?>
<svg xmlns:ffdec="https://www.free-decompiler.com/flash" xmlns:xlink="http://www.w3.org/1999/xlink" ffdec:objectType="frame" height="33.05px" width="51.35px" xmlns="http://www.w3.org/2000/svg">
  <g transform="matrix(1.0, 0.0, 0.0, 1.0, 42.05, 0.95)">
    <use ffdec:characterId="29" height="1.8" transform="matrix(1.0, 0.0, 0.0, 1.0, 0.0, 0.0)" width="4.8" xlink:href="#shape0"/>
    <use ffdec:characterId="31" height="4.75" transform="matrix(1.0, 0.0, 0.0, 1.0, 1.95, 27.35)" width="7.7" xlink:href="#sprite0"/>
    <use ffdec:characterId="31" height="4.75" transform="matrix(-1.0, 0.0, 0.0, 1.0, -2.25, 27.3)" width="7.7" xlink:href="#sprite1"/>
    <use ffdec:characterId="2" height="13.75" transform="matrix(1.0, 0.0, 0.0, 0.8763, -7.35, 14.85)" width="14.1" xlink:href="#sprite2"/>
    <use ffdec:characterId="14" height="33.05" transform="matrix(1.0, 0.0, 0.0, 1.0, -17.25, 18.55)" width="40.7" xlink:href="#sprite3"/>
    <use ffdec:characterId="32" height="4.8" transform="matrix(1.0, 0.0, 0.0, 1.0, 0.0, 0.0)" width="4.8" xlink:href="#shape10"/>
  </g>
  <defs>
    <g id="shape0">
      <path d="M1.55 14.75 L1.75 15.1 1.95 15.45 2.25 16.0 Q0.15 16.5 -2.0 16.05 L-1.8 15.4 -1.6 15.15 -1.45 14.85 -1.35 14.8 -0.1 14.8 1.55 14.75" fill="#fdb671" fill-rule="evenodd" stroke="none"/>
      <path d="M2.15 14.7 L1.55 14.75 -0.1 14.8 -1.35 14.8 2.15 14.7" fill="#fdbf82" fill-rule="evenodd" stroke="none"/>
      <path d="M-1.35 14.8 L-1.5 14.8 -2.15 14.8 M2.15 14.7 L1.55 14.75 -0.1 14.8 -1.35 14.8" ffdec:has-small-stroke="true" ffdec:original-stroke-width="0.5" fill="none" stroke="#8e4702" stroke-linecap="round" stroke-linejoin="round" stroke-width="1.0"/>
    </g>
    <g id="sprite0">
      <use ffdec:characterId="30" height="4.75" transform="matrix(1.0, 0.0, 0.0, 1.0, 0.0, 0.0)" width="7.7" xlink:href="#shape1"/>
    </g>
    <g id="shape1">
      <path d="M6.4 2.0 Q7.1 1.45 7.05 0.85 7.45 2.0 7.05 2.95 6.6 3.85 4.25 4.0 1.85 4.1 0.8 3.15 -0.25 2.15 0.05 1.3 1.5 2.95 5.25 2.3 L6.4 2.0" fill="#cccccc" fill-rule="evenodd" stroke="none"/>
      <path d="M0.25 1.85 Q1.3 -0.85 3.85 2.05" ffdec:has-small-stroke="true" ffdec:original-stroke-width="0.5" fill="none" stroke="#ff66cc" stroke-linecap="round" stroke-linejoin="round" stroke-width="1.0"/>
      <path d="M7.1 0.8 Q5.25 -1.5 3.8 2.1" ffdec:has-small-stroke="true" ffdec:original-stroke-width="0.5" fill="none" stroke="#ff66cc" stroke-linecap="round" stroke-linejoin="round" stroke-width="1.0"/>
      <path d="M-0.1 2.15 Q0.9 4.3 4.3 4.15" ffdec:has-small-stroke="true" ffdec:original-stroke-width="0.5" fill="none" stroke="#000000" stroke-linecap="round" stroke-linejoin="round" stroke-width="1.0"/>
      <path d="M4.15 4.15 Q6.5 3.85 7.1 3.0" ffdec:has-small-stroke="true" ffdec:original-stroke-width="0.5" fill="none" stroke="#000000" stroke-linecap="round" stroke-linejoin="round" stroke-width="1.0"/>
      <path d="M2.25 3.5 L1.45 3.25 1.3 2.8 2.25 2.7 Q2.95 2.8 2.95 3.15 2.95 3.5 2.25 3.5" fill="#cccccc" fill-rule="evenodd" stroke="none"/>
      <path d="M3.1 1.1 L4.4 1.15 4.35 1.3 4.6 2.85 3.75 2.75 3.1 1.1" fill="#ff44c1" fill-rule="evenodd" stroke="none"/>
    </g>
    <g id="sprite1">
      <use ffdec:characterId="30" height="4.75" transform="matrix(1.0, 0.0, 0.0, 1.0, 0.0, 0.0)" width="7.7" xlink:href="#shape2"/>
    </g>
    <g id="shape2">
      <path d="M6.4 2.0 Q7.1 1.45 7.05 0.85 7.45 2.0 7.05 2.95 6.6 3.85 4.25 4.0 1.85 4.1 0.8 3.15 -0.25 2.15 0.05 1.3 1.5 2.95 5.25 2.3 L6.4 2.0" fill="#cccccc" fill-rule="evenodd" stroke="none"/>
      <path d="M0.25 1.85 Q1.3 -0.85 3.85 2.05" ffdec:has-small-stroke="true" ffdec:original-stroke-width="0.5" fill="none" stroke="#ff66cc" stroke-linecap="round" stroke-linejoin="round" stroke-width="1.0"/>
      <path d="M7.1 0.8 Q5.25 -1.5 3.8 2.1" ffdec:has-small-stroke="true" ffdec:original-stroke-width="0.5" fill="none" stroke="#ff66cc" stroke-linecap="round" stroke-linejoin="round" stroke-width="1.0"/>
      <path d="M-0.1 2.15 Q0.9 4.3 4.3 4.15" ffdec:has-small-stroke="true" ffdec:original-stroke-width="0.5" fill="none" stroke="#000000" stroke-linecap="round" stroke-linejoin="round" stroke-width="1.0"/>
      <path d="M4.15 4.15 Q6.5 3.85 7.1 3.0" ffdec:has-small-stroke="true" ffdec:original-stroke-width="0.5" fill="none" stroke="#000000" stroke-linecap="round" stroke-linejoin="round" stroke-width="1.0"/>
      <path d="M2.25 3.5 L1.45 3.25 1.3 2.8 2.25 2.7 Q2.95 2.8 2.95 3.15 2.95 3.5 2.25 3.5" fill="#cccccc" fill-rule="evenodd" stroke="none"/>
      <path d="M3.1 1.1 L4.4 1.15 4.35 1.3 4.6 2.85 3.75 2.75 3.1 1.1" fill="#ff44c1" fill-rule="evenodd" stroke="none"/>
    </g>
    <g id="sprite2">
      <use ffdec:characterId="1" height="13.75" transform="matrix(1.0, 0.0, 0.0, 1.0, 0.0, 0.0)" width="14.1" xlink:href="#shape3"/>
    </g>
    <g id="shape3">
      <path d="M11.2 8.85 L11.8 9.75 12.2 10.6 Q12.2 11.35 6.8 12.15 L2.95 11.65 Q1.8 11.25 1.8 10.6 L3.05 8.75 4.3 6.6 4.15 3.15 Q4.15 2.5 4.6 2.5 4.95 2.5 5.0 3.05 L5.1 3.75 Q5.3 4.05 5.85 4.2 L6.7 4.45 7.2 4.45 7.7 4.35 8.3 4.2 8.95 3.75 9.3 3.15 Q9.55 2.65 9.9 2.65 10.3 2.65 10.35 4.3 L10.5 6.75 Q10.8 8.1 11.2 8.85" fill="#ffffff" fill-rule="evenodd" stroke="none"/>
      <path d="M10.55 2.4 L11.1 4.95 11.0 5.4 11.4 7.0 11.85 8.4 12.4 9.8 12.95 10.6 13.4 11.1 Q13.4 11.55 12.45 12.0 L11.1 12.55 9.2 13.0 6.35 13.3 3.7 12.8 1.2 11.85 0.6 11.75 0.55 11.5 1.8 9.5 Q3.1 7.25 3.35 5.95 L4.05 2.95 4.25 1.45 Q4.55 0.15 4.75 0.15 5.55 0.15 5.5 1.85 5.65 3.0 6.15 3.3 L7.45 3.5 Q8.4 3.5 8.9 1.75 9.45 0.0 9.75 0.0 10.2 0.0 10.4 1.05 L10.55 2.4 M11.2 8.85 Q10.8 8.1 10.5 6.75 L10.35 4.3 Q10.3 2.65 9.9 2.65 9.55 2.65 9.3 3.15 L8.95 3.75 8.3 4.2 7.7 4.35 7.2 4.45 6.7 4.45 5.85 4.2 Q5.3 4.05 5.1 3.75 L5.0 3.05 Q4.95 2.5 4.6 2.5 4.15 2.5 4.15 3.15 L4.3 6.6 3.05 8.75 1.8 10.6 Q1.8 11.25 2.95 11.65 L6.8 12.15 Q12.2 11.35 12.2 10.6 L11.8 9.75 11.2 8.85" fill="#fff4ff" fill-rule="evenodd" stroke="none"/>
      <path d="M9.75 6.05 Q7.1 6.3 4.9 6.0 4.6 5.05 4.95 4.5 L8.15 4.65 9.6 4.3 9.85 5.15 9.75 6.05 M10.8 9.1 Q7.15 9.45 4.2 9.1 4.1 8.35 4.55 7.6 L8.45 7.75 10.1 7.45 10.8 8.7 10.8 9.1 M12.0 11.95 L9.0 12.1 5.25 12.05 3.1 11.9 Q2.8 11.5 3.75 10.45 L5.25 10.55 8.45 10.6 9.0 10.5 11.3 10.25 12.0 11.35 12.0 11.95" fill="#c980ff" fill-rule="evenodd" stroke="none"/>
      <path d="M9.6 4.3 L9.85 4.25 10.55 3.95 10.7 4.05 10.9 5.0 10.9 5.9 9.75 6.05 9.85 5.15 9.6 4.3 M4.9 6.0 L3.5 5.7 3.7 4.75 3.75 4.2 4.95 4.5 Q4.6 5.05 4.9 6.0 M10.1 7.45 L10.6 7.35 11.5 7.05 11.65 7.15 11.9 8.1 11.9 9.0 10.8 9.1 10.8 8.7 10.1 7.45 M4.2 9.1 L2.5 8.8 2.8 7.85 2.85 7.3 4.55 7.6 Q4.1 8.35 4.2 9.1 M11.3 10.25 L11.45 10.2 12.8 9.9 13.0 10.0 13.4 10.95 13.4 11.3 12.75 11.9 12.0 11.95 12.0 11.35 11.3 10.25 M3.1 11.9 L0.45 11.65 0.4 11.6 0.9 10.7 0.95 10.65 0.95 10.6 1.25 10.2 3.75 10.45 Q2.8 11.5 3.1 11.9" fill="#ac46f7" fill-rule="evenodd" stroke="none"/>
      <path d="M10.2 0.25 L11.7 6.55 Q12.25 9.35 14.1 11.25 12.9 12.25 11.6 12.85 8.1 14.35 4.4 13.3 L0.0 11.7 0.5 11.1 Q2.35 8.9 2.9 6.15 3.5 3.05 4.35 0.3 L4.75 0.15 3.45 5.85 Q2.7 9.05 0.5 11.5 3.7 13.0 7.25 13.0 10.55 13.0 13.3 11.2 11.25 9.05 10.95 6.1 10.65 2.9 9.8 0.0 L10.2 0.25" fill="#494b50" fill-rule="evenodd" stroke="none"/>
      <path d="M9.2 0.0 Q9.55 0.0 9.7 1.15 9.7 3.8 7.2 3.8 L5.5 3.5 Q5.15 3.2 5.1 2.55 L5.0 0.8 5.05 0.3 Q5.15 0.05 5.6 0.05 5.8 0.05 6.0 0.2 L6.2 0.55 6.1 1.2 6.3 2.5 Q6.55 2.95 7.3 2.95 8.35 2.95 8.5 1.5 8.65 0.0 9.2 0.0" fill="#ac46f7" fill-rule="evenodd" stroke="none"/>
    </g>
    <g id="sprite3">
      <clipPath id="clipPath0">
        <path d="M -12.75 -18.2 L -13.28 -18.19 L -13.81 -18.15 L -14.32 -18.09 L -14.82 -18.01 L -15.32 -17.91 L -15.8 -17.78 L -16.27 -17.63 L -16.74 -17.45 L -17.19 -17.25 L -17.64 -17.03 L -18.07 -16.78 L -18.5 -16.51 L -18.91 -16.22 L -19.32 -15.9 L -19.71 -15.56 L -20.1 -15.2 L -20.46 -14.81 L -20.8 -14.42 L -21.12 -14.01 L -21.41 -13.6 L -21.68 -13.17 L -21.93 -12.74 L -22.15 -12.29 L -22.35 -11.84 L -22.53 -11.37 L -22.68 -10.9 L -22.81 -10.42 L -22.91 -9.92 L -22.99 -9.42 L -23.05 -8.91 L -23.09 -8.38 L -23.1 -7.85 L -23.09 -7.32 L -23.05 -6.8 L -22.99 -6.28 L -22.91 -5.78 L -22.81 -5.29 L -22.68 -4.81 L -22.53 -4.34 L -22.35 -3.88 L -22.15 -3.42 L -21.93 -2.98 L -21.68 -2.55 L -21.41 -2.13 L -21.12 -1.72 L -20.8 -1.32 L -20.46 -0.93 L -20.1 -0.55 L -19.71 -0.18 L -19.32 0.16 L -18.91 0.49 L -18.49 0.78 L -18.07 1.06 L -17.63 1.31 L -17.18 1.53 L -16.73 1.74 L -16.26 1.92 L -15.78 2.07 L -15.29 2.2 L -14.79 2.31 L -14.29 2.39 L -13.77 2.45 L -13.24 2.49 L -12.7 2.5 L -11.85 2.5 L -11.76 2.8 L -11.67 3.1 L -11.56 3.4 L -11.44 3.69 L -11.32 3.98 L -11.18 4.27 L -11.03 4.55 L -10.88 4.82 L -10.71 5.1 L -10.53 5.37 L -10.34 5.63 L -10.14 5.89 L -9.94 6.15 L -9.72 6.4 L -9.49 6.65 L -9.25 6.9 L -8.86 7.27 L -8.47 7.61 L -8.06 7.94 L -7.64 8.23 L -7.22 8.51 L -6.78 8.76 L -6.33 8.98 L -5.88 9.19 L -5.41 9.37 L -4.93 9.52 L -4.44 9.65 L -3.94 9.76 L -3.44 9.84 L -2.92 9.9 L -2.39 9.94 L -1.85 9.95 L -1.32 9.94 L -0.79 9.9 L -0.27 9.85 L 0.24 9.77 L 0.74 9.66 L 1.23 9.54 L 1.72 9.39 L 2.2 9.21 L 2.67 9.02 L 3.13 8.8 L 3.59 8.56 L 4.04 8.29 L 4.48 8 L 4.91 7.69 L 5.33 7.36 L 5.75 7 L 6.14 6.62 L 6.51 6.23 L 6.85 5.83 L 7.16 5.42 L 7.44 4.99 L 7.7 4.56 L 7.92 4.12 L 8.12 3.66 L 8.3 3.2 L 8.45 2.72 L 8.56 2.24 L 8.66 1.74 L 8.72 1.23 L 8.76 0.72 L 8.77 0.19 L 8.75 -0.35 L 8.7 -0.89 L 8.63 -1.42 L 8.54 -1.94 L 8.43 -2.44 L 8.29 -2.94 L 8.14 -3.43 L 7.96 -3.91 L 7.76 -4.38 L 7.54 -4.83 L 7.3 -5.28 L 7.04 -5.72 L 6.75 -6.14 L 6.45 -6.56 L 6.12 -6.97 L 5.77 -7.36 L 5.4 -7.75 L 5.02 -8.11 L 4.63 -8.45 L 4.23 -8.77 L 3.82 -9.06 L 3.4 -9.33 L 2.97 -9.58 L 2.53 -9.8 L 2.08 -10 L 1.61 -10.18 L 1.14 -10.33 L 0.66 -10.46 L 0.17 -10.56 L -0.33 -10.64 L -0.85 -10.7 L -1.37 -10.74 L -1.9 -10.75 L -2.65 -10.7 L -2.88 -11.33 L -3.14 -11.94 L -3.44 -12.53 L -3.78 -13.1 L -4.14 -13.65 L -4.54 -14.19 L -4.98 -14.7 L -5.45 -15.2 L -5.83 -15.56 L -6.22 -15.9 L -6.62 -16.22 L -7.03 -16.51 L -7.45 -16.78 L -7.88 -17.03 L -8.32 -17.25 L -8.77 -17.45 L -9.24 -17.63 L -9.71 -17.78 L -10.19 -17.91 L -10.68 -18.01 L -11.18 -18.09 L -11.7 -18.15 L -12.22 -18.19 L -12.75 -18.2 Z M 11.72 2.43 L 11.54 2.44 L 11.36 2.46 L 11.2 2.49 L 11.05 2.54 L 10.91 2.6 L 10.78 2.68 L 10.66 2.77 L 10.55 2.87 L 10.45 2.99 L 10.37 3.12 L 10.3 3.27 L 10.24 3.43 L 10.18 3.6 L 10.15 3.79 L 10.12 3.99 L 10.1 4.2 L 10.04 4.66 L 10 4.88 L 9.95 5.1 L 9.89 5.3 L 9.83 5.51 L 9.75 5.7 L 9.66 5.89 L 9.57 6.07 L 9.46 6.24 L 9.35 6.41 L 9.23 6.57 L 9.1 6.73 L 8.96 6.87 L 8.81 7.02 L 8.65 7.15 L 8.5 7.28 L 8.36 7.42 L 8.24 7.55 L 8.14 7.69 L 8.05 7.83 L 7.98 7.97 L 7.93 8.12 L 7.9 8.26 L 7.88 8.41 L 7.88 8.56 L 7.9 8.71 L 7.94 8.87 L 7.99 9.02 L 8.06 9.18 L 8.15 9.34 L 8.25 9.5 L 8.38 9.65 L 8.51 9.8 L 8.65 9.93 L 8.8 10.06 L 8.95 10.18 L 9.11 10.29 L 9.28 10.39 L 9.45 10.49 L 9.63 10.57 L 9.81 10.65 L 10.2 10.78 L 10.61 10.88 L 11.05 10.95 L 11.34 10.97 L 11.61 10.98 L 11.97 10.97 L 12.32 10.93 L 12.66 10.86 L 12.99 10.76 L 13.3 10.64 L 13.61 10.49 L 13.91 10.31 L 14.2 10.1 L 14.37 9.96 L 14.53 9.81 L 14.68 9.66 L 14.83 9.51 L 14.96 9.34 L 15.09 9.18 L 15.2 9 L 15.31 8.82 L 15.41 8.64 L 15.5 8.45 L 15.58 8.26 L 15.65 8.06 L 15.72 7.85 L 15.77 7.64 L 15.85 7.2 L 15.88 6.76 L 15.88 6.54 L 15.87 6.32 L 15.85 6.11 L 15.82 5.91 L 15.78 5.7 L 15.73 5.5 L 15.66 5.3 L 15.59 5.11 L 15.51 4.91 L 15.42 4.72 L 15.32 4.54 L 15.2 4.36 L 15.08 4.18 L 14.95 4 L 14.81 3.84 L 14.66 3.68 L 14.51 3.53 L 14.36 3.4 L 14.19 3.27 L 14.03 3.15 L 13.85 3.04 L 13.68 2.94 L 13.49 2.85 L 13.3 2.76 L 13.11 2.69 L 12.91 2.62 L 12.7 2.57 L 12.49 2.52 L 12.05 2.45 L 11.72 2.43 Z"/>
      </clipPath>
      <g clip-path="url(#clipPath0)">
        <filter color-interpolation-filters="sRGB" height="300%" id="filter0" width="300%" x="-100%" y="-100%">
          <feOffset dx="0.0" dy="0.0" in="SourceGraphic" result="filterResult0"/>
          <feColorMatrix in="filterResult0" result="filterResult1" type="matrix" values="0 0 0 0 0.0,0 0 0 0 0.0,0 0 0 0 0.0,0 0 0 1.0 0"/>
          <feGaussianBlur in="filterResult1" result="filterResult2" stdDeviation="0.5 0.5"/>
          <feColorMatrix in="filterResult2" result="filterResult3" type="matrix" values="1 0 0 0 0,0 1 0 0 0,0 0 1 0 0,0 0 0 10.0 0"/>
          <feComposite in="SourceGraphic" in2="filterResult3" operator="over" result="filterResult4"/>
        </filter>
        <use ffdec:characterId="12" filter="url(#filter0)" height="38.35" transform="matrix(0.5611, -0.8277, 0.8277, 0.5611, -23.95, -8.05)" width="14.0" xlink:href="#sprite4"/>
      </g>
      <use ffdec:characterId="13" height="2.7" transform="matrix(1.0, 0.0, 0.0, 1.0, 0.0, 0.0)" width="2.15" xlink:href="#shape9"/>
    </g>
    <g id="sprite4">
      <use ffdec:characterId="5" height="30.95" transform="matrix(1.0, 0.0, 0.0, 1.0, 0.0, 0.0)" width="14.0" xlink:href="#shape4"/>
      <use ffdec:characterId="10" height="11.75" transform="matrix(1.0, 0.0, 0.0, 1.0, 1.5, 5.05)" width="11.1" xlink:href="#sprite5"/>
      <use ffdec:characterId="11" height="7.2" transform="matrix(1.0, 0.0, 0.0, 1.0, 0.0, 0.0)" width="2.0" xlink:href="#shape8"/>
    </g>
    <g id="shape4">
      <path d="M7.3 32.35 L7.2 36.7" fill="none" stroke="#cd9f64" stroke-linecap="round" stroke-linejoin="round" stroke-width="2.0"/>
      <path d="M7.3 7.75 L7.3 32.35" fill="none" stroke="#3b2100" stroke-linecap="round" stroke-linejoin="round" stroke-width="2.0"/>
      <path d="M2.35 28.05 Q2.1 27.5 2.1 26.85 L2.15 26.45 Q2.3 25.25 3.45 24.35 4.8 23.35 6.7 23.35 8.6 23.35 9.95 24.35 11.3 25.4 11.3 26.85 L11.15 27.8 Q10.8 28.65 9.95 29.3 8.6 30.35 6.7 30.35 4.8 30.35 3.45 29.3 L2.65 28.55 2.35 28.05 M4.85 26.95 Q4.4 27.0 4.3 27.6 L4.3 27.65 Q4.45 28.6 5.35 28.6 L7.2 28.6 Q8.4 28.55 10.05 27.7 L6.85 27.5 4.85 26.95 M3.05 26.1 Q2.75 26.05 2.5 26.45 L2.45 26.55 Q2.35 27.4 3.15 27.65 L3.3 27.65 Q4.1 27.05 3.3 26.4 L3.05 25.95 3.05 26.1" fill="#e61c03" fill-rule="evenodd" stroke="none"/>
      <path d="M4.85 26.95 L6.85 27.5 10.05 27.7 Q8.4 28.55 7.2 28.6 L5.35 28.6 Q4.45 28.6 4.3 27.65 L4.3 27.6 Q4.4 27.0 4.85 26.95" fill="#ff7a69" fill-rule="evenodd" stroke="none"/>
      <path d="M3.05 26.1 L3.05 25.95 3.3 26.4 Q4.1 27.05 3.3 27.65 L3.15 27.65 Q2.35 27.4 2.45 26.55 L2.5 26.45 Q2.75 26.05 3.05 26.1" fill="#ffbdb4" fill-rule="evenodd" stroke="none"/>
      <path d="M2.75 20.0 L2.1 19.9 1.9 20.3 Q1.4 21.65 3.25 23.35 6.05 25.7 8.7 25.85 11.5 25.8 11.35 23.7 L10.95 22.6 2.75 20.0 M-0.05 21.4 L-0.05 21.3 Q-0.35 19.85 1.3 19.55 L2.25 19.5 Q4.65 19.4 7.55 20.25 9.15 20.75 10.45 21.4 11.95 22.15 12.5 22.85 L12.7 23.45 Q12.6 24.05 11.7 24.4 13.0 25.2 12.45 26.15 11.8 26.85 11.1 26.7 L11.35 27.3 Q11.35 27.85 10.55 27.95 L9.5 27.9 9.05 27.85 8.0 27.7 5.55 27.1 5.45 27.05 2.75 26.05 2.45 25.95 Q-1.75 23.65 -0.2 22.5 L0.15 22.25 -0.05 21.4" fill="#9cc603" fill-rule="evenodd" stroke="none"/>
      <path d="M2.75 20.0 L10.95 22.6 11.35 23.7 Q11.5 25.8 8.7 25.85 6.05 25.7 3.25 23.35 1.4 21.65 1.9 20.3 L2.1 19.9 2.75 20.0" fill="#5a9300" fill-rule="evenodd" stroke="none"/>
      <path d="M4.35 24.85 L3.35 24.4 3.3 24.4 1.55 23.45 1.0 22.85 Q0.85 22.55 1.0 22.3 1.1 22.1 1.5 22.15 L1.95 22.6 Q2.0 22.9 3.0 23.8 L3.55 24.25 4.35 24.85" fill="#cced56" fill-rule="evenodd" stroke="none"/>
      <path d="M1.25 20.95 Q0.95 20.25 0.95 19.45 L0.95 19.0 Q1.15 17.5 2.55 16.4 4.25 15.1 6.65 15.1 9.0 15.1 10.7 16.4 12.4 17.7 12.4 19.45 L12.2 20.6 11.45 21.05 Q9.3 22.45 6.7 22.4 L3.6 22.0 Q2.35 21.85 1.25 20.95 M6.55 17.7 L4.3 16.35 5.15 18.2 2.9 18.55 5.0 18.8 2.55 20.5 5.7 19.75 6.6 21.85 7.7 20.15 9.55 21.3 8.55 19.35 11.35 19.85 7.85 17.9 8.5 15.95 6.55 17.7" fill="#a3410a" fill-rule="evenodd" stroke="none"/>
      <path d="M6.55 17.7 L8.5 15.95 7.85 17.9 11.35 19.85 8.55 19.35 9.55 21.3 7.7 20.15 6.6 21.85 5.7 19.75 2.55 20.5 5.0 18.8 2.9 18.55 5.15 18.2 4.3 16.35 6.55 17.7" fill="#fffdfa" fill-rule="evenodd" stroke="none"/>
      <path d="M12.2 20.6 Q11.75 21.65 10.7 22.45 9.0 23.75 6.65 23.75 4.25 23.75 2.55 22.45 L1.6 21.5 1.25 20.95 Q2.35 21.85 3.6 22.0 L6.7 22.4 Q9.3 22.45 11.45 21.05 L12.2 20.6" fill="#5f2100" fill-rule="evenodd" stroke="none"/>
      <path d="M0.65 14.6 L0.65 14.5 Q0.35 13.05 2.0 12.75 L2.95 12.7 Q5.35 12.6 8.25 13.45 9.85 13.95 11.15 14.6 12.65 15.35 13.2 16.05 L13.4 16.65 Q13.3 17.25 12.4 17.6 13.7 18.4 13.15 19.35 12.5 20.05 11.8 19.9 L12.05 20.5 Q12.05 21.05 11.25 21.15 L10.2 21.1 9.75 21.05 8.7 20.9 6.25 20.3 6.15 20.25 3.45 19.25 3.15 19.15 Q-1.05 16.85 0.5 15.7 L0.85 15.45 0.65 14.6 M3.45 13.2 L2.8 13.1 2.6 13.5 Q2.1 14.85 3.95 16.55 6.75 18.9 9.4 19.05 12.2 19.0 12.05 16.9 L11.65 15.8 3.45 13.2" fill="#3c7952" fill-rule="evenodd" stroke="none"/>
      <path d="M3.45 13.2 L11.65 15.8 12.05 16.9 Q12.2 19.0 9.4 19.05 6.75 18.9 3.95 16.55 2.1 14.85 2.6 13.5 L2.8 13.1 3.45 13.2" fill="#235736" fill-rule="evenodd" stroke="none"/>
      <path d="M5.05 18.05 L4.05 17.6 4.0 17.6 2.25 16.65 1.7 16.05 Q1.55 15.75 1.7 15.5 L2.2 15.35 2.65 15.8 Q2.7 16.1 3.7 17.0 L4.25 17.45 5.05 18.05" fill="#63d15a" fill-rule="evenodd" stroke="none"/>
    </g>
    <g id="sprite5">
      <use ffdec:characterId="6" height="10.45" transform="matrix(1.0, 0.0, 0.0, 1.0, 0.0, 0.0)" width="11.1" xlink:href="#shape5"/>
      <use ffdec:characterId="8" height="3.05" transform="matrix(1.1622, 0.0, 0.0, 0.8091, 3.45, 5.25)" width="3.65" xlink:href="#sprite6"/>
      <use ffdec:characterId="8" height="3.05" transform="matrix(1.1622, 0.0, 0.0, 0.8091, 3.45, 8.05)" width="3.65" xlink:href="#sprite6"/>
      <use ffdec:characterId="8" height="3.05" transform="matrix(-0.6757, 0.0, 0.0, 0.8091, 10.85, 4.5)" width="3.65" xlink:href="#sprite6"/>
      <use ffdec:characterId="8" height="3.05" transform="matrix(-0.6757, 0.0, 0.0, 0.8091, 10.85, 7.3)" width="3.65" xlink:href="#sprite6"/>
      <use ffdec:characterId="9" height="3.95" transform="matrix(1.0, 0.0, 0.0, 1.0, 0.0, 0.0)" width="5.7" xlink:href="#shape7"/>
    </g>
    <g id="shape5">
      <path d="M10.75 8.6 Q10.75 9.9 9.2 10.8 7.7 11.75 5.6 11.75 3.45 11.75 1.9 10.8 0.4 9.9 0.4 8.6 0.4 7.25 1.9 6.3 3.45 5.4 5.6 5.4 7.7 5.4 9.2 6.3 10.75 7.25 10.75 8.6" fill="#a68f00" fill-rule="evenodd" stroke="none"/>
      <path d="M10.75 8.0 Q10.75 9.45 9.2 10.4 7.7 11.4 5.6 11.4 3.45 11.4 1.9 10.4 0.4 9.45 0.4 8.0 0.4 6.55 1.9 5.55 3.45 4.6 5.6 4.6 7.7 4.6 9.2 5.55 10.75 6.55 10.75 8.0" fill="#ffe64b" fill-rule="evenodd" stroke="none"/>
      <path d="M11.1 5.2 Q11.1 6.85 9.45 8.0 7.85 9.15 5.55 9.15 3.25 9.15 1.6 8.0 0.0 6.85 0.0 5.2 0.0 3.55 1.6 2.4 3.25 1.3 5.55 1.3 7.85 1.3 9.45 2.4 11.1 3.55 11.1 5.2" fill="#fff4b8" fill-rule="evenodd" stroke="none"/>
      <path d="M3.9 4.85 Q3.9 5.45 3.35 5.85 2.85 6.3 2.15 6.3 1.45 6.3 0.9 5.85 0.4 5.45 0.4 4.85 0.4 4.25 0.9 3.8 1.45 3.4 2.15 3.4 2.85 3.4 3.35 3.8 3.9 4.25 3.9 4.85" fill="#ffffff" fill-rule="evenodd" stroke="none"/>
      <path d="M2.65 6.6 L2.3 6.65 1.0 6.65 Q0.2 6.65 0.2 5.85 L0.2 5.0 Q0.2 4.15 1.0 4.15 L2.3 4.15 2.65 4.25 2.65 6.6" fill="#ffdb00" fill-rule="evenodd" stroke="none"/>
      <path d="M2.65 4.25 Q3.1 4.35 3.1 5.0 L3.1 5.85 Q3.1 6.45 2.65 6.6 L2.65 4.25" fill="#ffae00" fill-rule="evenodd" stroke="none"/>
      <path d="M1.35 4.55 L1.8 4.55 Q2.0 4.55 2.15 4.7 L2.35 5.15 2.35 5.2 2.15 5.6 1.8 5.8 1.35 5.8 Q1.1 5.8 0.9 5.6 L0.75 5.2 0.75 5.15 Q0.75 4.9 0.9 4.7 1.1 4.55 1.35 4.55" fill="#ffffff" fill-rule="evenodd" stroke="none"/>
      <path d="M2.65 9.4 L2.3 9.45 1.0 9.45 Q0.2 9.45 0.2 8.65 L0.2 7.8 Q0.2 6.95 1.0 6.95 L2.3 6.95 2.65 7.05 2.65 9.4" fill="#ffdb00" fill-rule="evenodd" stroke="none"/>
      <path d="M2.65 7.05 Q3.1 7.15 3.1 7.8 L3.1 8.65 Q3.1 9.25 2.65 9.4 L2.65 7.05" fill="#ffae00" fill-rule="evenodd" stroke="none"/>
      <path d="M1.35 7.35 L1.8 7.35 Q2.0 7.35 2.15 7.5 L2.35 7.95 2.35 8.0 2.15 8.4 1.8 8.6 1.35 8.6 Q1.1 8.6 0.9 8.4 L0.75 8.0 0.75 7.95 Q0.75 7.7 0.9 7.5 1.1 7.35 1.35 7.35" fill="#ffffff" fill-rule="evenodd" stroke="none"/>
    </g>
    <g id="sprite6">
      <use ffdec:characterId="7" height="3.05" transform="matrix(1.0, 0.0, 0.0, 1.0, 0.0, 0.0)" width="3.65" xlink:href="#shape6"/>
    </g>
    <g id="shape6">
      <path d="M3.1 0.1 L3.1 1.7 Q2.95 2.6 2.15 2.7 L0.2 2.7 0.05 2.3 0.0 2.05 0.0 1.0 Q0.0 0.0 1.0 0.0 L2.65 0.0 3.1 0.1" fill="#ffdb00" fill-rule="evenodd" stroke="none"/>
      <path d="M0.2 2.7 L2.15 2.7 Q2.95 2.6 3.1 1.7 L3.1 0.1 Q3.65 0.25 3.65 1.0 L3.65 2.05 3.65 2.3 3.55 2.65 3.1 3.0 2.65 3.05 1.0 3.05 Q0.4 3.05 0.2 2.7" fill="#ff8f00" fill-rule="evenodd" stroke="none"/>
      <path d="M1.4 0.45 L1.95 0.45 2.45 0.65 2.7 1.2 2.7 1.25 2.45 1.75 1.95 2.0 1.4 2.0 0.85 1.75 0.65 1.25 0.65 1.2 0.85 0.65 1.4 0.45" fill="#ffffff" fill-rule="evenodd" stroke="none"/>
    </g>
    <g id="shape7">
      <path d="M2.75 1.35 L2.75 1.25 2.85 0.95 2.9 0.9 Q3.1 0.6 3.55 0.35 L4.5 0.1 5.6 0.0 7.6 0.35 Q8.4 0.75 8.45 1.25 L8.45 1.45 7.6 2.2 5.6 2.55 4.5 2.5 3.55 2.2 2.9 1.75 2.85 1.65 2.75 1.35" fill="#f3f0e8" fill-rule="evenodd" stroke="none"/>
      <path d="M2.75 1.35 L2.85 1.65 2.9 1.75 3.55 2.2 4.5 2.5 5.6 2.55 7.6 2.2 8.45 1.45 8.45 2.9 7.6 3.6 5.6 3.95 4.5 3.9 3.55 3.6 2.9 3.1 2.85 3.05 2.8 2.9 2.75 2.9 2.75 1.35" fill="#dbd4a3" fill-rule="evenodd" stroke="none"/>
    </g>
    <g id="shape8">
      <path d="M6.2 0.05 L6.3 0.3 6.5 0.65 Q7.5 1.3 7.95 0.55 L8.15 0.35 8.15 4.6 Q7.25 5.65 6.15 4.6 L6.15 0.35 6.2 0.05" fill="#cd9f64" fill-rule="evenodd" stroke="none"/>
      <path d="M8.15 4.6 L8.15 5.55 7.85 6.25 7.15 6.55 6.45 6.25 Q6.15 5.95 6.15 5.55 L6.15 4.6 Q7.25 5.65 8.15 4.6" fill="#a3671b" fill-rule="evenodd" stroke="none"/>
      <path d="M6.2 0.05 L6.45 -0.35 7.15 -0.65 7.85 -0.35 8.15 0.35 7.95 0.55 Q7.5 1.3 6.5 0.65 L6.3 0.3 6.2 0.05" fill="#ffe8c6" fill-rule="evenodd" stroke="none"/>
    </g>
    <g id="shape9">
      <path d="M7.05 5.35 Q7.75 5.05 8.2 3.65" fill="none" stroke="#3f1f00" stroke-linecap="round" stroke-linejoin="round" stroke-width="1.0"/>
    </g>
    <g id="shape10">
      <path d="M0.7 21.0 Q-0.1 20.75 0.4 20.2 L0.6 20.15 0.95 20.2 1.0 20.45 Q1.2 20.9 0.75 21.0 L0.7 21.0 M-1.75 19.8 L-1.35 20.15 -0.5 20.15 -0.3 20.15 Q-0.05 20.35 -0.1 20.65 L-0.15 20.8 0.05 21.1 0.05 21.3 Q-0.3 21.55 -0.2 22.05 L-0.2 22.25 -0.35 22.4 -0.5 22.5 -1.15 22.45 -1.5 21.95 -2.35 21.4 -2.35 21.3 Q-2.35 20.45 -1.75 19.8" fill="#d7d700" fill-rule="evenodd" stroke="none"/>
      <path d="M0.7 21.0 L0.75 21.0 Q1.2 20.9 1.0 20.45 L0.95 20.2 0.6 20.15 0.4 20.2 Q-0.1 20.75 0.7 21.0 M-2.35 21.4 L-1.5 21.95 -1.15 22.45 -0.5 22.5 -0.35 22.4 -0.2 22.25 -0.2 22.05 Q-0.3 21.55 0.05 21.3 L0.05 21.1 -0.15 20.8 -0.1 20.65 Q-0.05 20.35 -0.3 20.15 L-0.5 20.15 -1.35 20.15 -1.75 19.8 -1.65 19.7 Q-1.0 19.0 -0.05 19.0 0.7 19.0 1.3 19.5 L1.55 19.7 Q2.25 20.4 2.25 21.3 L2.25 21.4 Q2.2 22.3 1.55 22.95 0.9 23.6 -0.05 23.6 -1.0 23.6 -1.65 22.95 -2.3 22.3 -2.35 21.4" fill="#ffff4f" fill-rule="evenodd" stroke="none"/>
      <path d="M-2.35 21.4 Q-2.3 22.3 -1.65 22.95 -1.0 23.6 -0.05 23.6 0.9 23.6 1.55 22.95 2.2 22.3 2.25 21.4 L2.25 21.3 Q2.25 20.4 1.55 19.7 L1.3 19.5 Q0.7 19.0 -0.05 19.0 -1.0 19.0 -1.65 19.7 L-1.75 19.8 Q-2.35 20.45 -2.35 21.3 L-2.35 21.4 Z" ffdec:has-small-stroke="true" ffdec:original-stroke-width="0.2" fill="none" stroke="#333333" stroke-linecap="round" stroke-linejoin="round" stroke-width="1.0"/>
    </g>
  </defs>
</svg>
