<?xml version="1.0" encoding="UTF-8" standalone="no"?>
<svg xmlns:ffdec="https://www.free-decompiler.com/flash" xmlns:xlink="http://www.w3.org/1999/xlink" ffdec:objectType="frame" height="45.15px" width="57.0px" xmlns="http://www.w3.org/2000/svg">
  <g transform="matrix(1.0, 0.0, 0.0, 1.0, 42.55, -3.9)">
    <use ffdec:characterId="37" height="12.8" transform="matrix(1.0, 0.0, 0.0, 1.0, -10.3, 21.2)" width="10.4" xlink:href="#sprite0"/>
    <use ffdec:characterId="37" height="12.8" transform="matrix(-1.0, 0.0, 0.0, 1.0, 9.9, 21.2)" width="10.4" xlink:href="#sprite1"/>
    <use ffdec:characterId="2" height="8.75" transform="matrix(1.0, 0.0, 0.0, 1.0, -4.75, 15.05)" width="9.8" xlink:href="#sprite2"/>
    <use ffdec:characterId="38" height="12.3" transform="matrix(1.0, 0.0, 0.0, 1.0, -14.1, 15.1)" width="12.3" xlink:href="#sprite3"/>
    <use ffdec:characterId="38" height="12.3" transform="matrix(-1.0, 0.0, 0.0, 1.0, 14.45, 15.1)" width="12.3" xlink:href="#sprite4"/>
    <use ffdec:characterId="47" height="12.95" transform="matrix(1.0, 0.0, 0.0, 1.0, -8.8, 14.95)" width="21.6" xlink:href="#sprite5"/>
    <use ffdec:characterId="41" height="32.95" transform="matrix(0.7607, -0.6491, 0.6491, 0.7607, -33.25, 19.05)" width="30.9" xlink:href="#sprite6"/>
    <use ffdec:characterId="4" height="8.65" transform="matrix(1.0, 0.0, 0.0, 1.0, -3.95, 17.95)" width="7.75" xlink:href="#sprite7"/>
    <use ffdec:characterId="44" height="3.05" transform="matrix(1.0, 0.0, 0.0, 1.0, -4.15, 14.85)" width="9.6" xlink:href="#sprite8"/>
  </g>
  <defs>
    <g id="sprite0">
      <use ffdec:characterId="36" height="12.8" transform="matrix(1.0, 0.0, 0.0, 1.0, 0.0, 0.0)" width="10.4" xlink:href="#shape0"/>
    </g>
    <g id="shape0">
      <path d="M4.55 4.95 L7.15 5.2 8.3 5.7 Q8.7 6.05 8.3 7.3 L7.85 8.7 Q6.85 10.05 3.85 10.35 L2.8 8.7 0.0 8.8 Q0.95 6.65 1.65 5.75 2.35 4.85 2.65 4.95 L4.55 4.95" fill="#000000" fill-rule="evenodd" stroke="none"/>
      <path d="M6.95 7.45 L6.25 9.05 4.1 9.65 4.9 7.45 Q5.85 7.75 6.95 7.45" fill="#818187" fill-rule="evenodd" stroke="none"/>
      <path d="M2.05 6.25 L3.1 6.75 2.45 8.3 0.75 8.2 2.05 6.25" fill="#3b3b3f" fill-rule="evenodd" stroke="none"/>
      <path d="M10.25 0.85 L8.9 5.5 Q8.05 8.15 5.55 7.8 3.0 7.4 1.55 6.05 3.4 2.0 5.3 0.0 8.1 -2.35 10.05 0.7 L10.25 0.85" fill="#d4d4d4" fill-rule="evenodd" stroke="none"/>
      <path d="M10.25 0.85 L8.9 5.5 Q8.05 8.15 5.55 7.8 3.0 7.4 1.55 6.05 3.4 2.0 5.3 0.0" ffdec:has-small-stroke="true" ffdec:original-stroke-width="0.3" fill="none" stroke="#2c2c37" stroke-linecap="round" stroke-linejoin="round" stroke-width="1.0"/>
      <path d="M9.4 0.2 L8.25 4.6 7.3 6.65 Q6.55 7.7 4.45 7.25 1.2 6.35 3.0 3.9 4.15 1.8 5.95 -0.25 8.8 -3.5 9.25 -2.0 9.65 -0.5 9.4 0.2" fill="#ffffff" fill-rule="evenodd" stroke="none"/>
    </g>
    <g id="sprite1">
      <use ffdec:characterId="36" height="12.8" transform="matrix(1.0, 0.0, 0.0, 1.0, 0.0, 0.0)" width="10.4" xlink:href="#shape1"/>
    </g>
    <g id="shape1">
      <path d="M4.55 4.95 L7.15 5.2 8.3 5.7 Q8.7 6.05 8.3 7.3 L7.85 8.7 Q6.85 10.05 3.85 10.35 L2.8 8.7 0.0 8.8 Q0.95 6.65 1.65 5.75 2.35 4.85 2.65 4.95 L4.55 4.95" fill="#000000" fill-rule="evenodd" stroke="none"/>
      <path d="M6.95 7.45 L6.25 9.05 4.1 9.65 4.9 7.45 Q5.85 7.75 6.95 7.45" fill="#818187" fill-rule="evenodd" stroke="none"/>
      <path d="M2.05 6.25 L3.1 6.75 2.45 8.3 0.75 8.2 2.05 6.25" fill="#3b3b3f" fill-rule="evenodd" stroke="none"/>
      <path d="M10.25 0.85 L8.9 5.5 Q8.05 8.15 5.55 7.8 3.0 7.4 1.55 6.05 3.4 2.0 5.3 0.0 8.1 -2.35 10.05 0.7 L10.25 0.85" fill="#d4d4d4" fill-rule="evenodd" stroke="none"/>
      <path d="M10.25 0.85 L8.9 5.5 Q8.05 8.15 5.55 7.8 3.0 7.4 1.55 6.05 3.4 2.0 5.3 0.0" ffdec:has-small-stroke="true" ffdec:original-stroke-width="0.3" fill="none" stroke="#2c2c37" stroke-linecap="round" stroke-linejoin="round" stroke-width="1.0"/>
      <path d="M9.4 0.2 L8.25 4.6 7.3 6.65 Q6.55 7.7 4.45 7.25 1.2 6.35 3.0 3.9 4.15 1.8 5.95 -0.25 8.8 -3.5 9.25 -2.0 9.65 -0.5 9.4 0.2" fill="#ffffff" fill-rule="evenodd" stroke="none"/>
    </g>
    <g id="sprite2">
      <use ffdec:characterId="1" height="8.75" transform="matrix(1.0, 0.0, 0.0, 1.0, 0.0, 0.0)" width="9.8" xlink:href="#shape2"/>
    </g>
    <g id="shape2">
      <path d="M8.3 0.0 L9.0 0.8 Q9.7 3.25 9.75 5.85 L9.8 7.6 Q9.7 7.85 7.75 8.4 L4.9 8.7 2.05 8.4 Q0.1 7.85 0.0 7.6 L0.05 5.85 Q0.1 3.25 0.8 0.8 L1.5 0.0 8.3 0.0" fill="#ffffff" fill-rule="evenodd" stroke="none"/>
    </g>
    <g id="sprite3">
      <use ffdec:characterId="34" height="12.3" transform="matrix(1.0, 0.0, 0.0, 1.0, 0.0, 0.0)" width="12.3" xlink:href="#shape3"/>
    </g>
    <g id="shape3">
      <path d="M11.95 1.9 L11.9 2.2 9.85 5.65 8.95 6.9 6.65 9.85 Q5.15 12.3 2.55 9.9 -0.1 7.5 2.35 5.55 4.75 3.6 9.25 0.8 L10.85 0.0 Q11.95 1.05 11.95 1.9" fill="#d4d4d4" fill-rule="evenodd" stroke="none"/>
      <path d="M8.95 6.9 L6.65 9.85 Q5.15 12.3 2.55 9.9 -0.1 7.5 2.35 5.55 4.75 3.6 9.25 0.8 L10.85 0.0 Q11.95 1.05 11.95 1.9" ffdec:has-small-stroke="true" ffdec:original-stroke-width="0.3" fill="none" stroke="#434359" stroke-linecap="round" stroke-linejoin="round" stroke-width="1.0"/>
      <path d="M11.15 -0.15 L11.6 0.4 12.2 1.6 Q12.5 2.35 11.8 3.15 L10.1 5.0 6.8 8.6 Q4.55 11.15 4.05 9.9 3.55 8.6 1.2 7.65 1.8 6.0 4.2 4.4 L8.75 1.25 Q10.95 -0.25 11.15 -0.15" fill="#ffffff" fill-rule="evenodd" stroke="none"/>
      <path d="M4.0 8.55 Q5.45 9.75 5.4 10.65 5.35 11.55 2.95 12.15 L2.15 10.25 0.0 9.75 Q0.45 8.25 1.2 7.35 2.5 7.3 4.0 8.55" fill="#000000" fill-rule="evenodd" stroke="none"/>
      <path d="M2.05 9.95 Q1.75 8.95 1.8 7.75 L2.8 8.2 2.05 9.95 M3.1 11.65 L3.35 8.55 Q4.25 9.1 4.75 10.3 4.1 11.25 3.1 11.65" fill="#838388" fill-rule="evenodd" stroke="none"/>
    </g>
    <g id="sprite4">
      <use ffdec:characterId="34" height="12.3" transform="matrix(1.0, 0.0, 0.0, 1.0, 0.0, 0.0)" width="12.3" xlink:href="#shape4"/>
    </g>
    <g id="shape4">
      <path d="M11.95 1.9 L11.9 2.2 9.85 5.65 8.95 6.9 6.65 9.85 Q5.15 12.3 2.55 9.9 -0.1 7.5 2.35 5.55 4.75 3.6 9.25 0.8 L10.85 0.0 Q11.95 1.05 11.95 1.9" fill="#d4d4d4" fill-rule="evenodd" stroke="none"/>
      <path d="M8.95 6.9 L6.65 9.85 Q5.15 12.3 2.55 9.9 -0.1 7.5 2.35 5.55 4.75 3.6 9.25 0.8 L10.85 0.0 Q11.95 1.05 11.95 1.9" ffdec:has-small-stroke="true" ffdec:original-stroke-width="0.3" fill="none" stroke="#434359" stroke-linecap="round" stroke-linejoin="round" stroke-width="1.0"/>
      <path d="M11.15 -0.15 L11.6 0.4 12.2 1.6 Q12.5 2.35 11.8 3.15 L10.1 5.0 6.8 8.6 Q4.55 11.15 4.05 9.9 3.55 8.6 1.2 7.65 1.8 6.0 4.2 4.4 L8.75 1.25 Q10.95 -0.25 11.15 -0.15" fill="#ffffff" fill-rule="evenodd" stroke="none"/>
      <path d="M4.0 8.55 Q5.45 9.75 5.4 10.65 5.35 11.55 2.95 12.15 L2.15 10.25 0.0 9.75 Q0.45 8.25 1.2 7.35 2.5 7.3 4.0 8.55" fill="#000000" fill-rule="evenodd" stroke="none"/>
      <path d="M2.05 9.95 Q1.75 8.95 1.8 7.75 L2.8 8.2 2.05 9.95 M3.1 11.65 L3.35 8.55 Q4.25 9.1 4.75 10.3 4.1 11.25 3.1 11.65" fill="#838388" fill-rule="evenodd" stroke="none"/>
    </g>
    <g id="sprite5">
      <use ffdec:characterId="46" height="12.95" transform="matrix(1.0, 0.0, 0.0, 1.0, 0.0, 0.0)" width="21.6" xlink:href="#shape5"/>
    </g>
    <g id="shape5">
      <path d="M5.85 0.0 L8.3 0.2 Q5.8 4.9 3.5 5.55 L0.05 5.9 Q-1.05 5.55 -1.3 5.15 -1.5 4.75 0.15 3.4 1.8 2.1 5.85 0.0" fill="#000000" fill-rule="evenodd" stroke="none"/>
      <path d="M15.95 9.7 L16.9 11.8 Q13.7 11.15 14.0 9.75 14.3 8.35 14.8 8.5 15.25 8.65 15.95 9.7" fill="#000000" fill-rule="evenodd" stroke="none"/>
      <path d="M11.5 0.9 Q12.05 0.75 12.65 1.15 13.2 1.55 13.0 2.65 12.8 3.65 11.8 3.35 L10.35 2.7 Q9.9 2.5 10.15 2.0 L10.65 1.25 Q11.0 0.95 11.5 0.9" fill="#000000" fill-rule="evenodd" stroke="none"/>
      <path d="M16.1 2.2 L19.0 4.4 Q20.95 5.65 19.95 6.25 18.95 6.9 17.0 6.7 15.05 6.45 14.55 5.4 14.05 4.35 14.05 3.3 14.1 2.3 13.8 1.75 13.35 1.15 13.8 0.95 13.9 0.9 16.1 2.2" fill="#000000" fill-rule="evenodd" stroke="none"/>
      <path d="M4.65 11.1 Q5.05 13.6 2.35 12.75 -0.35 11.9 2.35 8.35 5.05 4.75 4.65 6.7 4.25 8.5 4.65 11.1" fill="#000000" fill-rule="evenodd" stroke="none"/>
    </g>
    <g id="sprite6">
      <clipPath id="clipPath0">
        <path d="M 10.28 -2.28 L 9.55 -2.27 L 8.8 -2.24 L 8.04 -2.18 L 7.25 -2.1 L 6.58 -2.02 L 5.91 -1.92 L 5.25 -1.82 L 4.6 -1.7 L 3.95 -1.56 L 3.31 -1.42 L 2.68 -1.26 L 2.05 -1.09 L 1.43 -0.9 L 0.81 -0.71 L 0.2 -0.5 L -0.4 -0.27 L -1 -0.04 L -1.59 0.21 L -2.17 0.48 L -2.75 0.75 L -3.56 1.18 L -4.32 1.62 L -5.02 2.07 L -5.68 2.54 L -5.98 2.77 L -6.27 3.01 L -6.55 3.25 L -6.82 3.5 L -7.07 3.74 L -7.31 3.99 L -7.54 4.25 L -7.75 4.5 L -8 4.84 L -8.24 5.18 L -8.46 5.54 L -8.68 5.91 L -8.88 6.29 L -9.06 6.68 L -9.24 7.09 L -9.4 7.5 L -9.55 7.92 L -9.69 8.36 L -9.81 8.81 L -9.93 9.26 L -10.02 9.73 L -10.11 10.21 L -10.19 10.7 L -10.25 11.2 L -10.29 11.89 L -10.3 12.64 L -10.28 13.45 L -10.24 14.31 L -10.17 15.24 L -10.07 16.22 L -9.95 17.25 L -9.8 18.35 L -9.05 21.15 L -8.15 22.7 L -7.1 24.15 L -6.1 25.8 L -4.9 27.3 L -4.68 27.48 L -4.43 27.66 L -4.13 27.84 L -3.8 28.02 L -3.43 28.21 L -3.03 28.41 L -2.58 28.6 L -2.1 28.8 L -0.93 29.22 L 0.17 29.59 L 1.22 29.9 L 2.2 30.16 L 3.12 30.37 L 3.55 30.45 L 3.97 30.52 L 4.38 30.57 L 4.77 30.61 L 5.14 30.64 L 5.5 30.65 L 5.81 30.65 L 6.35 30.64 L 6.88 30.61 L 7.39 30.55 L 7.89 30.48 L 8.37 30.38 L 8.84 30.26 L 9.29 30.12 L 9.72 29.95 L 10.13 29.77 L 10.53 29.56 L 10.92 29.33 L 11.29 29.08 L 11.64 28.8 L 11.98 28.51 L 12.3 28.19 L 12.6 27.85 L 15 25.2 L 15.09 25.09 L 15.17 24.96 L 15.25 24.82 L 15.32 24.67 L 15.38 24.5 L 15.43 24.32 L 15.51 23.92 L 15.57 23.47 L 15.59 22.97 L 15.59 22.41 L 15.55 21.8 L 15.26 21.78 L 14.98 21.74 L 14.73 21.69 L 14.49 21.62 L 14.26 21.54 L 14.06 21.44 L 13.87 21.33 L 13.7 21.2 L 13.36 21.13 L 13.05 21.06 L 12.76 20.98 L 12.49 20.9 L 12.24 20.81 L 12.02 20.71 L 11.82 20.61 L 11.65 20.5 L 13.15 15.35 L 12.95 14.2 L 14.49 13.18 L 15.84 12.26 L 17 11.45 L 17.98 10.74 L 18.75 10.13 L 19.07 9.87 L 19.34 9.63 L 19.57 9.42 L 19.74 9.24 L 19.87 9.08 L 19.95 8.95 L 20.12 8.52 L 20.27 8.07 L 20.39 7.6 L 20.48 7.11 L 20.54 6.61 L 20.57 6.09 L 20.57 5.55 L 20.55 5 L 19.85 0.85 L 19.65 0.9 L 19.22 0.51 L 18.76 0.15 L 18.29 -0.18 L 17.79 -0.49 L 17.28 -0.78 L 16.75 -1.04 L 16.19 -1.28 L 15.61 -1.49 L 15.02 -1.67 L 14.4 -1.84 L 13.77 -1.97 L 13.11 -2.09 L 12.43 -2.17 L 11.73 -2.23 L 11.02 -2.27 L 10.28 -2.28 Z"/>
      </clipPath>
      <g clip-path="url(#clipPath0)">
        <use ffdec:characterId="40" height="24.6" transform="matrix(1.0, 0.0, 0.0, 1.0, 0.0, 0.0)" width="13.95" xlink:href="#shape6"/>
      </g>
    </g>
    <g id="shape6">
      <path d="M11.95 20.5 Q11.95 21.65 10.45 22.45 8.95 23.2 6.85 23.2 4.75 23.2 3.25 22.45 1.8 21.65 1.8 20.5 L1.8 20.45 1.85 20.2 1.95 14.65 9.35 16.0 11.9 18.2 11.9 20.2 11.95 20.45 11.95 20.5" fill="#ffffff" fill-rule="evenodd" stroke="none"/>
      <path d="M12.8 21.15 Q12.8 22.45 11.05 23.4 9.3 24.3 6.8 24.3 4.35 24.3 2.6 23.4 0.85 22.45 0.85 21.15 L0.85 21.05 0.9 20.75 0.9 9.75 12.75 9.75 12.75 20.75 12.8 21.05 12.8 21.15 Z" ffdec:has-small-stroke="true" ffdec:original-stroke-width="0.3" fill="none" stroke="#97d7ff" stroke-linecap="round" stroke-linejoin="round" stroke-width="1.0000109190046993"/>
      <path d="M11.75 19.25 L10.55 20.05 9.5 20.2 Q7.75 20.15 5.95 19.25 L5.45 19.0 Q3.6 18.0 2.55 16.65 L2.0 15.7 Q1.65 14.9 1.95 14.3 L1.95 14.25 2.0 14.2 Q2.55 13.2 4.3 13.25 6.05 13.3 8.1 14.35 10.1 15.35 11.25 16.8 12.25 18.1 11.8 19.15 L11.75 19.2 11.75 19.25" fill="#b8c6d4" fill-rule="evenodd" stroke="none"/>
      <path d="M13.45 8.35 Q13.9 10.05 13.45 11.75 13.45 13.15 11.55 14.2 9.6 15.2 6.9 15.2 4.15 15.2 2.2 14.2 0.25 13.15 0.25 11.75 -0.2 9.9 0.25 8.35 0.3 9.25 1.1 10.0 L2.2 10.75 Q4.05 11.7 6.55 11.75 L7.25 11.75 Q9.7 11.7 11.55 10.75 L12.65 10.0 Q13.4 9.25 13.45 8.35" fill="#87c9f4" fill-rule="evenodd" stroke="none"/>
      <path d="M0.25 8.35 L0.25 8.3 0.25 8.2 Q0.3 6.8 2.2 5.8 4.15 4.85 6.9 4.85 9.6 4.85 11.55 5.8 13.4 6.8 13.45 8.2 L13.45 8.3 13.45 8.35 Q13.4 9.25 12.65 10.0 L11.55 10.75 Q9.7 11.7 7.25 11.75 L6.55 11.75 Q4.05 11.7 2.2 10.75 L1.1 10.0 Q0.3 9.25 0.25 8.35" fill="#baf2ff" fill-rule="evenodd" stroke="none"/>
      <path d="M0.25 8.35 Q0.3 9.25 1.1 10.0 L2.2 10.75 Q4.05 11.7 6.55 11.75 L7.25 11.75 Q9.7 11.7 11.55 10.75 L12.65 10.0 Q13.4 9.25 13.45 8.35" ffdec:has-small-stroke="true" ffdec:original-stroke-width="0.3" fill="none" stroke="#fff0f4" stroke-linecap="round" stroke-linejoin="round" stroke-width="1.0000109190046993"/>
      <path d="M0.25 8.35 L0.25 8.3 0.25 8.2 Q0.3 6.8 2.2 5.8 4.15 4.85 6.9 4.85 9.6 4.85 11.55 5.8 13.4 6.8 13.45 8.2 L13.45 8.3 13.45 8.35" ffdec:has-small-stroke="true" ffdec:original-stroke-width="0.3" fill="none" stroke="#7fcbf9" stroke-linecap="round" stroke-linejoin="round" stroke-width="1.0000109190046993"/>
      <path d="M13.45 8.35 Q13.9 10.05 13.45 11.75 13.45 13.15 11.55 14.2 9.6 15.2 6.9 15.2 4.15 15.2 2.2 14.2 0.25 13.15 0.25 11.75 -0.2 9.9 0.25 8.35" ffdec:has-small-stroke="true" ffdec:original-stroke-width="0.3" fill="none" stroke="#407fba" stroke-linecap="round" stroke-linejoin="round" stroke-width="1.0000109190046993"/>
      <path d="M6.55 10.45 Q4.55 10.4 3.0 9.55 L2.1 8.85 Q1.45 8.15 1.45 7.3 L1.45 7.2 Q1.45 5.9 3.0 5.0 3.45 4.7 4.0 4.55 3.5 3.85 3.5 3.0 3.5 1.8 4.45 0.85 5.45 0.0 6.8 0.0 8.15 0.0 9.1 0.85 10.1 1.8 10.1 3.0 L9.65 4.55 Q10.15 4.7 10.65 5.0 12.15 5.9 12.2 7.35 12.15 8.15 11.55 8.85 L10.65 9.55 Q9.15 10.4 7.15 10.45 L6.55 10.45" fill="#ffd4e4" fill-rule="evenodd" stroke="none"/>
      <path d="M6.55 10.45 Q4.55 10.4 3.0 9.55 L2.1 8.85 Q1.45 8.15 1.45 7.3 L1.45 7.2 Q1.45 5.9 3.0 5.0 3.45 4.7 4.0 4.55 3.5 3.85 3.5 3.0 3.5 1.8 4.45 0.85 5.45 0.0 6.8 0.0 8.15 0.0 9.1 0.85 10.1 1.8 10.1 3.0 L9.65 4.55 Q10.15 4.7 10.65 5.0 12.15 5.9 12.2 7.35 12.15 8.15 11.55 8.85 L10.65 9.55 Q9.15 10.4 7.15 10.45 L6.55 10.45 Z" ffdec:has-small-stroke="true" ffdec:original-stroke-width="0.3" fill="none" stroke="#e26e8d" stroke-linecap="round" stroke-linejoin="round" stroke-width="1.0000109190046993"/>
      <path d="M11.75 6.9 L12.05 7.45 Q12.15 7.9 11.65 8.65 11.15 9.4 9.8 9.9 L7.0 10.3 6.9 10.3 6.8 10.3 6.7 10.3 3.9 9.9 Q2.55 9.4 2.05 8.65 1.55 7.9 1.65 7.45 L1.95 6.9 Q2.1 6.75 2.6 6.7 3.15 6.6 3.45 7.05 L3.65 7.35 3.95 7.6 Q4.95 8.4 6.4 8.55 L6.8 8.6 7.3 8.55 Q8.75 8.4 9.75 7.6 L10.05 7.35 10.25 7.05 Q10.55 6.6 11.1 6.7 L11.75 6.9" fill="#ff9fad" fill-rule="evenodd" stroke="none"/>
      <path d="M8.75 4.3 Q8.75 4.8 8.2 5.15 L6.85 5.55 Q6.05 5.55 5.5 5.15 4.95 4.8 4.95 4.3 4.95 3.8 5.5 3.4 6.05 3.05 6.85 3.05 7.65 3.05 8.2 3.4 8.75 3.8 8.75 4.3" fill="#ff9fad" fill-rule="evenodd" stroke="none"/>
      <path d="M8.5 1.7 Q8.5 2.15 8.0 2.45 L6.85 2.75 5.65 2.45 Q5.2 2.15 5.2 1.7 5.2 1.25 5.65 0.95 L6.85 0.65 8.0 0.95 Q8.5 1.25 8.5 1.7" fill="#fff2f0" fill-rule="evenodd" stroke="none"/>
      <path d="M6.55 10.45 Q4.55 10.4 3.0 9.55 L2.1 8.85 Q1.45 8.15 1.45 7.3 L1.45 7.2 Q1.45 5.9 3.0 5.0 3.45 4.7 4.0 4.55 3.5 3.85 3.5 3.0 3.5 1.8 4.45 0.85 5.45 0.0 6.8 0.0 8.15 0.0 9.1 0.85 10.1 1.8 10.1 3.0 L9.65 4.55 Q10.15 4.7 10.65 5.0 12.15 5.9 12.2 7.35 12.15 8.15 11.55 8.85 L10.65 9.55 Q9.15 10.4 7.15 10.45 L6.55 10.45 Z" ffdec:has-small-stroke="true" ffdec:original-stroke-width="0.3" fill="none" stroke="#f74369" stroke-linecap="round" stroke-linejoin="round" stroke-width="1.0000109190046993"/>
    </g>
    <g id="sprite7">
      <use ffdec:characterId="3" height="8.65" transform="matrix(1.0, 0.0, 0.0, 1.0, 0.0, 0.0)" width="7.75" xlink:href="#shape7"/>
    </g>
    <g id="shape7">
      <path d="M2.7 8.45 L0.9 8.35 Q0.35 8.3 0.15 8.05 L0.0 7.55 0.4 4.25 0.55 3.5 Q0.95 1.6 1.55 0.9 2.25 0.05 3.65 0.0 L3.85 0.0 4.1 0.0 Q5.5 0.05 6.2 0.9 6.95 1.75 7.35 4.25 L7.4 4.35 7.75 7.55 7.6 8.05 6.85 8.35 4.85 8.45 4.1 8.5 3.7 8.5 3.65 8.5 2.7 8.45" fill="#ff8496" fill-rule="evenodd" stroke="none"/>
      <path d="M4.85 8.45 L4.1 8.5 3.7 8.5 3.65 8.5 2.7 8.45" ffdec:has-small-stroke="true" ffdec:original-stroke-width="0.3" fill="none" stroke="#ee4761" stroke-linecap="round" stroke-linejoin="round" stroke-width="1.0"/>
      <path d="M0.4 4.25 L0.55 3.5 Q0.95 1.6 1.55 0.9 2.25 0.05 3.65 0.0 L3.85 0.0 4.1 0.0 Q5.5 0.05 6.2 0.9 6.95 1.75 7.35 4.25 L7.4 4.35 7.6 5.95 6.45 6.6 Q4.8 7.35 3.2 7.1 1.45 7.1 0.2 5.5 L0.4 4.25" fill="#ffbcd4" fill-rule="evenodd" stroke="none"/>
    </g>
    <g id="sprite8">
      <use ffdec:characterId="10" height="3.05" transform="matrix(1.0, 0.0, 0.0, 1.0, 0.0, 0.0)" width="9.6" xlink:href="#shape8"/>
    </g>
    <g id="shape8">
      <path d="M8.6 0.0 L9.05 0.15 9.3 0.6 Q9.3 1.9 6.4 2.65 L4.65 2.75 2.9 2.65 Q0.0 1.9 0.0 0.6 L0.25 0.15 0.7 0.0 4.65 0.15 8.6 0.0" fill="#ffc048" fill-rule="evenodd" stroke="none"/>
      <path d="M8.6 0.0 L9.05 0.15 9.3 0.6 Q9.3 1.9 6.4 2.65 L4.65 2.75 2.9 2.65 Q0.0 1.9 0.0 0.6 L0.25 0.15 0.7 0.0" ffdec:has-small-stroke="true" ffdec:original-stroke-width="0.3" fill="none" stroke="#d03400" stroke-linecap="round" stroke-linejoin="round" stroke-width="1.0"/>
      <path d="M6.9 1.15 Q6.9 1.75 6.25 2.15 5.6 2.55 4.65 2.55 3.7 2.55 3.05 2.15 2.4 1.75 2.4 1.15 2.4 0.55 3.05 0.15 L6.25 0.15 Q6.9 0.55 6.9 1.15" fill="#f7ff00" fill-rule="evenodd" stroke="none"/>
    </g>
  </defs>
</svg>
