<?xml version="1.0" encoding="UTF-8" standalone="no"?>
<svg xmlns:ffdec="https://www.free-decompiler.com/flash" xmlns:xlink="http://www.w3.org/1999/xlink" ffdec:objectType="frame" height="20.75px" width="37.8px" xmlns="http://www.w3.org/2000/svg">
  <g transform="matrix(1.0, 0.0, 0.0, 1.0, 23.85, -10.3)">
    <use ffdec:characterId="41" height="7.95" transform="matrix(1.2015, 0.0, 0.0, 0.7317, -5.6, 27.9)" width="8.9" xlink:href="#sprite0"/>
    <use ffdec:characterId="41" height="7.95" transform="matrix(-1.2015, 0.0, 0.0, 0.7317, 4.8, 28.15)" width="8.9" xlink:href="#sprite1"/>
    <use ffdec:characterId="51" height="15.7" transform="matrix(-1.53, -0.85, -0.5717, 0.6271, 0.05, 17.15)" width="4.85" xlink:href="#sprite2"/>
    <use ffdec:characterId="51" height="15.7" transform="matrix(1.4973, -0.7944, 0.6007, 0.6819, -1.0, 17.0)" width="4.85" xlink:href="#sprite2"/>
    <use ffdec:characterId="53" height="6.8" transform="matrix(1.0, 0.0, 0.0, 1.0, -7.05, 21.85)" width="14.0" xlink:href="#sprite5"/>
    <use ffdec:characterId="3" height="27.95" transform="matrix(-0.5469, 0.3427, 0.4984, 0.5511, -18.9, 10.35)" width="9.1" xlink:href="#sprite6"/>
    <use ffdec:characterId="5" height="5.05" transform="matrix(1.0, 0.0, 0.0, 1.0, -15.5, 20.55)" width="6.6" xlink:href="#sprite7"/>
    <use ffdec:characterId="7" height="4.4" transform="matrix(1.0, 0.0, 0.0, 1.0, -12.0, 18.15)" width="3.1" xlink:href="#sprite8"/>
    <use ffdec:characterId="11" height="8.7" transform="matrix(1.5925, 0.0, 0.0, 1.3255, -23.8, 13.1)" width="2.55" xlink:href="#sprite9"/>
    <use ffdec:characterId="13" height="7.85" transform="matrix(1.0, 0.0, 0.0, 1.0, -3.95, 14.25)" width="8.0" xlink:href="#sprite11"/>
    <use ffdec:characterId="16" height="5.45" transform="matrix(1.0, 0.0, 0.0, 1.0, -3.8, 16.1)" width="6.6" xlink:href="#sprite12"/>
    <use ffdec:characterId="54" height="7.85" transform="matrix(1.0, 0.0, 0.0, 1.0, 0.0, 0.0)" width="13.65" xlink:href="#shape12"/>
    <use ffdec:characterId="48" height="7.35" transform="matrix(1.0, 0.0, 0.0, 1.0, -0.35, 21.25)" width="0.5" xlink:href="#sprite13"/>
  </g>
  <defs>
    <g id="sprite0">
      <use ffdec:characterId="40" height="7.95" transform="matrix(1.0, 0.0, 0.0, 1.0, 0.0, 0.0)" width="8.9" xlink:href="#shape0"/>
    </g>
    <g id="shape0">
      <path d="M4.0 -3.1 Q4.75 -2.1 4.1 -0.5 3.5 1.15 1.85 2.4 0.2 3.7 -1.5 3.9 -3.2 4.1 -3.95 3.1 -4.75 2.15 -4.15 0.55 -3.5 -1.05 -1.85 -2.35 L-0.6 -3.15 Q0.4 -3.7 1.45 -3.85 3.15 -4.05 3.95 -3.15 L4.0 -3.1" fill="#000000" fill-rule="evenodd" stroke="none"/>
      <path d="M4.1 -0.5 Q3.5 1.15 1.85 2.4 0.2 3.7 -1.5 3.9 -3.2 4.1 -3.95 3.1 -4.75 2.15 -4.15 0.55 L-3.9 0.05 Q-4.2 1.25 -3.55 2.05 -2.8 3.05 -1.1 2.85 0.6 2.65 2.25 1.35 3.65 0.3 4.3 -1.0 L4.1 -0.5" fill="#3e5079" fill-rule="evenodd" stroke="none"/>
      <path d="M4.0 -3.1 Q4.75 -2.1 4.1 -0.5 3.5 1.15 1.85 2.4 0.2 3.7 -1.5 3.9 -3.2 4.1 -3.95 3.1 -4.75 2.15 -4.15 0.55 -3.5 -1.05 -1.85 -2.35 -0.2 -3.6 1.45 -3.85 3.2 -4.05 4.0 -3.1 Z" ffdec:has-small-stroke="true" ffdec:original-stroke-width="0.1" fill="none" stroke="#000000" stroke-linecap="round" stroke-linejoin="round" stroke-width="1.0665509831775697"/>
      <path d="M1.6 0.5 Q0.85 1.25 0.0 1.3 -0.95 1.35 -1.5 0.8 -2.1 0.2 -2.0 -0.7 -1.95 -1.55 -1.2 -2.3 -0.5 -3.0 0.4 -3.1 1.25 -3.15 1.85 -2.55 2.4 -2.0 2.4 -1.1 2.3 -0.2 1.6 0.5" fill="#ffceb8" fill-rule="evenodd" stroke="none"/>
      <path d="M-2.05 -1.9 L-1.75 -2.2 -1.4 -2.45 Q0.05 -0.2 2.25 0.25 L2.25 0.8 1.95 1.1 Q-1.4 0.25 -2.05 -1.9" fill="#000000" fill-rule="evenodd" stroke="none"/>
    </g>
    <g id="sprite1">
      <use ffdec:characterId="40" height="7.95" transform="matrix(1.0, 0.0, 0.0, 1.0, 0.0, 0.0)" width="8.9" xlink:href="#shape1"/>
    </g>
    <g id="shape1">
      <path d="M4.0 -3.1 Q4.75 -2.1 4.1 -0.5 3.5 1.15 1.85 2.4 0.2 3.7 -1.5 3.9 -3.2 4.1 -3.95 3.1 -4.75 2.15 -4.15 0.55 -3.5 -1.05 -1.85 -2.35 L-0.6 -3.15 Q0.4 -3.7 1.45 -3.85 3.15 -4.05 3.95 -3.15 L4.0 -3.1" fill="#000000" fill-rule="evenodd" stroke="none"/>
      <path d="M4.1 -0.5 Q3.5 1.15 1.85 2.4 0.2 3.7 -1.5 3.9 -3.2 4.1 -3.95 3.1 -4.75 2.15 -4.15 0.55 L-3.9 0.05 Q-4.2 1.25 -3.55 2.05 -2.8 3.05 -1.1 2.85 0.6 2.65 2.25 1.35 3.65 0.3 4.3 -1.0 L4.1 -0.5" fill="#3e5079" fill-rule="evenodd" stroke="none"/>
      <path d="M4.0 -3.1 Q4.75 -2.1 4.1 -0.5 3.5 1.15 1.85 2.4 0.2 3.7 -1.5 3.9 -3.2 4.1 -3.95 3.1 -4.75 2.15 -4.15 0.55 -3.5 -1.05 -1.85 -2.35 -0.2 -3.6 1.45 -3.85 3.2 -4.05 4.0 -3.1 Z" ffdec:has-small-stroke="true" ffdec:original-stroke-width="0.1" fill="none" stroke="#000000" stroke-linecap="round" stroke-linejoin="round" stroke-width="1.0665509831775697"/>
      <path d="M1.6 0.5 Q0.85 1.25 0.0 1.3 -0.95 1.35 -1.5 0.8 -2.1 0.2 -2.0 -0.7 -1.95 -1.55 -1.2 -2.3 -0.5 -3.0 0.4 -3.1 1.25 -3.15 1.85 -2.55 2.4 -2.0 2.4 -1.1 2.3 -0.2 1.6 0.5" fill="#ffceb8" fill-rule="evenodd" stroke="none"/>
      <path d="M-2.05 -1.9 L-1.75 -2.2 -1.4 -2.45 Q0.05 -0.2 2.25 0.25 L2.25 0.8 1.95 1.1 Q-1.4 0.25 -2.05 -1.9" fill="#000000" fill-rule="evenodd" stroke="none"/>
    </g>
    <g id="sprite2">
      <use ffdec:characterId="43" height="15.7" transform="matrix(1.0, 0.0, 0.0, 1.0, -0.55, -1.5)" width="4.85" xlink:href="#sprite3"/>
      <use ffdec:characterId="45" height="8.4" transform="matrix(1.0, 0.0, 0.0, 1.0, 1.5, 4.05)" width="2.3" xlink:href="#sprite4"/>
    </g>
    <g id="sprite3">
      <use ffdec:characterId="42" height="15.7" transform="matrix(1.0, 0.0, 0.0, 1.0, 0.0, 0.0)" width="4.85" xlink:href="#shape2"/>
    </g>
    <g id="shape2">
      <path d="M0.55 1.95 L2.2 0.55 2.2 0.0 Q4.3 0.35 4.55 4.25 L4.55 4.65 4.55 9.05 4.85 12.45 Q4.8 13.75 4.1 14.65 3.35 15.5 0.0 15.7 L0.55 10.05 0.55 1.95" fill="#141414" fill-rule="evenodd" stroke="none"/>
    </g>
    <g id="sprite4">
      <use ffdec:characterId="44" height="8.4" transform="matrix(1.0, 0.0, 0.0, 1.0, 0.0, 0.0)" width="2.3" xlink:href="#shape3"/>
    </g>
    <g id="shape3">
      <path d="M2.3 4.2 Q2.3 5.95 1.95 7.15 1.65 8.4 1.15 8.4 0.65 8.4 0.3 7.15 0.0 5.95 0.0 4.2 0.0 2.45 0.3 1.2 0.65 0.0 1.15 0.0 1.65 0.0 1.95 1.2 2.3 2.45 2.3 4.2" fill="#224cac" fill-rule="evenodd" stroke="none"/>
    </g>
    <g id="sprite5">
      <use ffdec:characterId="52" height="6.8" transform="matrix(1.0, 0.0, 0.0, 1.0, 0.0, 0.0)" width="14.0" xlink:href="#shape4"/>
    </g>
    <g id="shape4">
      <path d="M1.9 0.0 L12.35 0.05 13.95 5.25 14.0 5.5 13.85 5.65 13.5 5.65 11.7 6.3 6.95 6.8 4.3 6.7 4.1 6.7 2.2 6.3 0.45 5.65 0.1 5.65 0.0 5.5 0.05 5.25 1.9 0.0" fill="#141414" fill-rule="evenodd" stroke="none"/>
    </g>
    <g id="sprite6">
      <use ffdec:characterId="2" height="27.95" transform="matrix(1.0, 0.0, 0.0, 1.0, 0.0, 0.0)" width="9.1" xlink:href="#shape5"/>
    </g>
    <g id="shape5">
      <path d="M7.05 27.4 L4.5 27.85 Q2.65 27.85 1.35 27.1 0.05 26.35 0.0 25.3 L0.0 25.2 0.0 2.75 Q0.0 3.75 1.35 4.55 2.65 5.3 4.5 5.3 L5.85 5.2 7.05 4.85 7.05 27.4" fill="#bc001c" fill-rule="evenodd" stroke="none"/>
      <path d="M9.0 2.75 L9.0 25.2 9.0 25.3 Q8.95 26.35 7.7 27.1 L7.05 27.4 7.05 4.85 7.7 4.55 Q9.0 3.75 9.0 2.75" fill="#810013" fill-rule="evenodd" stroke="none"/>
      <path d="M0.0 2.75 L0.0 2.6 Q0.05 1.55 1.35 0.8 2.65 0.0 4.5 0.0 L7.05 0.5 7.7 0.8 Q8.95 1.55 9.0 2.6 L9.0 2.75 9.0 25.2 9.0 25.3 Q8.95 26.35 7.7 27.1 L7.05 27.4 4.5 27.85 Q2.65 27.85 1.35 27.1 0.05 26.35 0.0 25.3 L0.0 25.2 0.0 2.75 Z" ffdec:has-small-stroke="true" ffdec:original-stroke-width="0.1" fill="none" stroke="#840011" stroke-linecap="round" stroke-linejoin="round" stroke-width="1.4553717261993546"/>
      <path d="M2.05 7.4 L2.05 22.2 M2.05 24.95 L2.05 25.4" fill="none" stroke="#ff9e9e" stroke-linecap="round" stroke-linejoin="round" stroke-width="2.0"/>
      <path d="M1.05 12.9 L1.0 12.9 0.95 12.85 0.85 12.8 Q0.05 12.1 0.0 11.3 L0.0 11.2 0.0 9.8 Q0.05 10.6 0.85 11.3 L0.95 11.35 1.0 11.4 1.05 11.4 1.05 12.9 M3.05 12.25 L4.5 12.35 5.0 12.35 5.45 12.3 6.0 12.25 6.95 11.95 7.0 11.95 7.05 11.9 7.05 13.4 7.0 13.45 6.95 13.45 6.0 13.75 5.45 13.8 5.0 13.85 4.5 13.85 3.05 13.75 3.05 12.25" fill="#d4d4d4" fill-rule="evenodd" stroke="none"/>
      <path d="M1.05 11.4 L1.1 11.45 1.15 11.5 1.35 11.6 2.4 12.05 2.95 12.2 3.05 12.25 3.05 13.75 2.95 13.7 2.4 13.55 1.35 13.1 1.15 13.0 1.1 12.95 1.05 12.9 1.05 11.4" fill="#ffffff" fill-rule="evenodd" stroke="none"/>
      <path d="M7.05 11.9 L7.1 11.9 7.7 11.6 7.9 11.5 Q8.95 10.75 9.0 9.8 L9.0 11.2 9.0 11.3 Q8.95 12.25 7.9 13.0 L7.7 13.1 7.1 13.4 7.05 13.4 7.05 11.9" fill="#989898" fill-rule="evenodd" stroke="none"/>
      <path d="M9.0 2.65 Q9.0 3.75 7.7 4.55 6.35 5.3 4.5 5.3 2.65 5.3 1.35 4.55 0.0 3.75 0.0 2.65 0.0 1.55 1.35 0.8 2.65 0.0 4.5 0.0 6.35 0.0 7.7 0.8 9.0 1.55 9.0 2.65" fill="#ff91dc" fill-rule="evenodd" stroke="none"/>
    </g>
    <g id="sprite7">
      <use ffdec:characterId="4" height="5.05" transform="matrix(1.0, 0.0, 0.0, 1.0, 0.0, 0.0)" width="6.6" xlink:href="#shape6"/>
    </g>
    <g id="shape6">
      <path d="M1.1 3.9 L0.95 3.8 Q0.1 2.95 0.0 2.0 -0.15 0.95 1.35 0.7 L3.6 0.1 Q4.45 -0.25 5.5 0.5 6.55 1.25 6.35 2.45 6.15 3.6 5.35 4.25 4.7 4.8 3.6 4.85 L3.3 4.8 Q2.05 4.7 1.1 3.9" fill="#ffab86" fill-rule="evenodd" stroke="none"/>
      <path d="M1.1 3.9 Q2.05 4.7 3.3 4.8 L3.6 4.85 Q4.7 4.8 5.35 4.25 6.15 3.6 6.35 2.45 6.55 1.25 5.5 0.5 4.45 -0.25 3.6 0.1 L1.35 0.7 Q-0.15 0.95 0.0 2.0 0.1 2.95 0.95 3.8 L1.1 3.9 Z" ffdec:has-small-stroke="true" ffdec:original-stroke-width="0.2" fill="none" stroke="#90391f" stroke-linecap="round" stroke-linejoin="round" stroke-width="1.0"/>
      <path d="M1.75 2.25 Q2.3 2.7 3.25 2.6 L4.95 2.2 Q5.65 2.0 5.5 1.6 5.25 1.15 5.5 0.6 5.8 0.0 5.25 0.25 L3.25 0.9 Q1.65 1.2 1.45 1.5 1.2 1.8 1.75 2.25" fill="#ffeede" fill-rule="evenodd" stroke="none"/>
    </g>
    <g id="sprite8">
      <use ffdec:characterId="6" height="4.4" transform="matrix(1.0, 0.0, 0.0, 1.0, 0.0, 0.0)" width="3.1" xlink:href="#shape7"/>
    </g>
    <g id="shape7">
      <path d="M0.6 2.4 Q0.3 1.5 0.5 0.85 0.65 0.15 1.2 0.05 1.7 -0.1 2.25 0.45 2.85 0.95 3.15 1.85 3.45 2.7 3.2 3.4 L2.55 4.2 Q2.0 4.3 1.45 3.8 0.9 3.25 0.6 2.4" fill="#ffab86" fill-rule="evenodd" stroke="none"/>
      <path d="M0.6 2.4 Q0.9 3.25 1.45 3.8 2.0 4.3 2.55 4.2 L3.2 3.4 Q3.45 2.7 3.15 1.85 2.85 0.95 2.25 0.45 1.7 -0.1 1.2 0.05 0.65 0.15 0.5 0.85 0.3 1.5 0.6 2.4 Z" ffdec:has-small-stroke="true" ffdec:original-stroke-width="0.2" fill="none" stroke="#90391f" stroke-linecap="round" stroke-linejoin="round" stroke-width="1.0"/>
      <path d="M0.6 1.85 Q0.75 2.5 1.2 2.9 L2.05 3.15 2.55 2.6 2.5 1.45 1.8 0.5 Q1.45 0.15 1.0 0.25 L0.4 0.8 Q0.35 1.25 0.6 1.85" fill="#ffeede" fill-rule="evenodd" stroke="none"/>
    </g>
    <g id="sprite9">
      <use ffdec:characterId="8" height="1.85" transform="matrix(1.0, 0.0, 0.0, 1.0, 0.0, 0.0)" width="2.0" xlink:href="#shape8"/>
      <use ffdec:characterId="10" height="7.05" transform="matrix(1.0, 0.0, 0.0, 1.0, 0.0, 1.65)" width="1.65" xlink:href="#sprite10"/>
    </g>
    <g id="shape8">
      <path d="M2.3 0.0 L0.8 1.35" ffdec:has-small-stroke="true" ffdec:original-stroke-width="0.5" fill="none" stroke="#fffefe" stroke-linecap="round" stroke-linejoin="round" stroke-width="0.6882818838234208"/>
    </g>
    <g id="sprite10">
      <use ffdec:characterId="9" height="7.05" transform="matrix(1.0, 0.0, 0.0, 1.0, 0.0, 0.0)" width="1.65" xlink:href="#shape9"/>
    </g>
    <g id="shape9">
      <path d="M0.8 0.0 L0.8 4.7" ffdec:has-small-stroke="true" ffdec:original-stroke-width="0.5" fill="none" stroke="#ffb300" stroke-linecap="round" stroke-linejoin="round" stroke-width="0.6882818838234208"/>
      <path d="M0.0 2.35 L0.0 2.25 Q0.0 2.0 0.25 1.8 0.45 1.5 0.85 1.5 1.15 1.5 1.4 1.8 L1.65 2.25 1.65 2.35 1.65 6.45 1.4 6.7 0.85 6.8 0.25 6.7 0.0 6.45 0.0 2.35" fill="#ff6600" fill-rule="evenodd" stroke="none"/>
      <path d="M0.25 2.05 Q0.4 1.9 0.65 1.9 0.85 1.9 1.05 2.05 L1.25 2.4 1.25 6.05 1.05 6.2 0.65 6.25 0.25 6.2 0.1 6.05 0.05 6.0 0.05 2.4 0.25 2.05" fill="#ffce73" fill-rule="evenodd" stroke="none"/>
    </g>
    <g id="sprite11">
      <use ffdec:characterId="12" height="7.85" transform="matrix(1.0, 0.0, 0.0, 1.0, 0.0, 0.0)" width="8.0" xlink:href="#shape10"/>
    </g>
    <g id="shape10">
      <path d="M0.0 0.0 L8.0 0.0 8.0 7.85 0.0 7.85 0.0 0.0" fill="#141414" fill-rule="evenodd" stroke="none"/>
    </g>
    <g id="sprite12">
      <use ffdec:characterId="15" height="5.45" transform="matrix(1.0, 0.0, 0.0, 1.0, 0.0, 0.0)" width="6.6" xlink:href="#shape11"/>
    </g>
    <g id="shape11">
      <path d="M2.05 0.0 L4.55 0.0 Q6.6 0.0 6.6 1.75 L6.6 3.75 Q6.6 5.45 4.55 5.45 L2.05 5.45 Q0.0 5.45 0.0 3.75 L0.0 1.75 Q0.0 0.0 2.05 0.0" fill="#1145bc" fill-rule="evenodd" stroke="none"/>
    </g>
    <g id="shape12">
      <path d="M0.45 22.1 L-0.1 22.4 -0.35 22.4 -0.55 22.4 -0.95 22.4 -1.5 22.1 -7.35 16.55 Q-6.6 15.4 -6.0 15.25 L-0.55 20.4 4.95 15.25 Q5.55 15.4 6.3 16.55 L0.45 22.1" fill="#ff0000" fill-rule="evenodd" stroke="none"/>
      <path d="M-3.85 14.55 L4.5 14.55 1.95 17.0 0.3 15.5 -1.3 17.0 -3.85 14.55" fill="#ffffff" fill-rule="evenodd" stroke="none"/>
    </g>
    <g id="sprite13">
      <use ffdec:characterId="47" height="7.35" transform="matrix(1.0, 0.0, 0.0, 1.0, 0.0, 0.0)" width="0.5" xlink:href="#shape13"/>
    </g>
    <g id="shape13">
      <path d="M0.0 0.0 L0.0 6.85" ffdec:has-small-stroke="true" ffdec:original-stroke-width="0.5" fill="none" stroke="#8d0000" stroke-linecap="round" stroke-linejoin="round" stroke-width="1.0"/>
    </g>
  </defs>
</svg>
