<?xml version="1.0" encoding="UTF-8" standalone="no"?>
<svg xmlns:ffdec="https://www.free-decompiler.com/flash" xmlns:xlink="http://www.w3.org/1999/xlink" ffdec:objectType="frame" height="24.45px" width="42.3px" xmlns="http://www.w3.org/2000/svg">
  <g transform="matrix(1.0, 0.0, 0.0, 1.0, 28.15, -8.5)">
    <use ffdec:characterId="20" height="16.15" transform="matrix(1.0, 0.0, 0.0, 1.0, -10.15, 16.8)" width="24.3" xlink:href="#sprite0"/>
    <use ffdec:characterId="22" height="29.55" transform="matrix(0.3956, -0.9183, 0.9183, 0.3956, -26.8, 18.35)" width="11.3" xlink:href="#sprite1"/>
  </g>
  <defs>
    <g id="sprite0">
      <use ffdec:characterId="19" height="16.15" transform="matrix(1.0, 0.0, 0.0, 1.0, 0.0, 0.0)" width="24.3" xlink:href="#shape0"/>
    </g>
    <g id="shape0">
      <path d="M23.35 2.6 Q24.2 5.0 24.3 7.3 24.4 9.6 23.65 11.25 L23.45 11.5 23.15 11.55 22.9 11.45 22.75 11.2 22.6 10.55 21.35 12.65 21.05 12.85 20.7 12.8 20.45 12.45 19.9 9.7 20.0 9.35 Q21.5 10.0 22.45 8.05 23.5 7.6 22.5 4.05 L22.45 3.95 Q22.25 2.9 21.4 2.35 L18.85 2.35 17.55 1.6 Q17.55 1.4 18.6 0.8 19.45 0.2 20.75 0.05 22.25 -0.25 23.35 2.6" fill="#000000" fill-rule="evenodd" stroke="none"/>
      <path d="M21.95 4.25 L21.9 4.2 21.8 4.05 21.95 4.25" fill="#421c05" fill-rule="evenodd" stroke="none"/>
      <path d="M18.75 2.45 L18.35 2.1 18.0 1.8 18.85 1.2 Q19.65 0.7 20.8 0.55 21.2 0.5 21.55 0.75 L22.0 1.5 22.4 2.4 Q23.0 4.25 23.1 6.25 L23.25 8.95 23.55 5.25 23.8 7.3 Q23.9 9.5 23.2 11.05 L22.6 8.55 22.5 7.45 22.5 7.4 22.65 6.3 Q22.7 5.45 22.4 4.95 L21.95 4.25 21.8 4.05 21.75 4.0 21.7 3.95 21.65 3.85 20.55 2.45 Q20.0 1.85 19.55 1.8 19.1 1.75 18.75 2.45" fill="#ceb69c" fill-rule="evenodd" stroke="none"/>
      <path d="M21.55 0.75 Q22.25 1.2 22.85 2.75 L23.55 5.25 23.25 8.95 23.1 6.25 Q23.0 4.25 22.4 2.4 L22.0 1.5 21.55 0.75" fill="#7e6347" fill-rule="evenodd" stroke="none"/>
      <path d="M21.65 3.85 L20.6 3.05 20.25 2.95 19.3 2.85 18.75 2.45 Q19.1 1.75 19.55 1.8 20.0 1.85 20.55 2.45 L21.65 3.85 M22.6 8.55 Q22.35 10.05 21.6 11.45 L21.65 8.95 21.7 8.95 Q22.3 8.35 22.5 7.45 L22.6 8.55" fill="#584339" fill-rule="evenodd" stroke="none"/>
      <path d="M21.6 11.45 L20.95 12.35 20.4 9.6 21.15 9.3 21.65 8.95 21.6 11.45" fill="#958564" fill-rule="evenodd" stroke="none"/>
      <path d="M20.35 9.6 L20.35 9.95 20.6 11.5 20.6 11.55 20.6 12.35 20.55 12.6 20.4 12.75 Q19.35 13.5 17.6 13.8 L17.5 13.8 Q15.0 13.6 14.8 13.0 L14.85 13.0 14.65 12.55 14.65 11.2 15.0 9.65 14.85 7.45 14.8 6.95 14.05 7.15 13.7 9.35 13.7 9.45 13.7 10.7 13.75 11.3 Q14.0 11.85 12.6 12.45 L10.45 12.65 9.05 12.2 9.0 12.15 Q8.45 11.65 8.7 11.1 L8.75 11.0 9.3 9.5 9.4 8.25 Q8.25 6.3 8.15 5.55 L8.05 4.7 17.0 4.7 17.0 9.45 20.35 9.45 20.35 9.6" fill="#000000" fill-rule="evenodd" stroke="none"/>
      <path d="M17.95 10.9 L15.5 10.8 15.5 10.0 15.35 7.4 15.25 6.6 15.15 6.35 15.0 6.35 13.6 6.7 13.55 6.95 13.15 9.5 Q12.5 10.8 11.1 10.6 9.7 10.4 9.8 9.5 L9.9 8.1 8.5 6.05 8.05 5.25 8.0 4.5 8.05 4.25 8.7 3.4 15.6 2.9 17.1 4.25 Q16.9 5.85 17.65 7.4 L17.85 7.8 18.05 8.05 18.05 8.1 18.65 8.75 17.95 8.75 17.95 10.9" fill="#331809" fill-rule="evenodd" stroke="none"/>
      <path d="M18.65 8.75 L19.85 9.6 19.85 10.4 18.0 10.9 17.95 10.9 17.95 8.75 18.65 8.75" fill="#552e19" fill-rule="evenodd" stroke="none"/>
      <path d="M20.1 11.55 L19.45 12.05 18.55 12.45 18.35 12.5 17.75 12.6 17.0 12.65 Q15.7 12.65 15.1 11.9 15.05 11.15 15.3 10.8 L15.45 10.05 Q15.7 10.75 16.9 10.8 18.1 10.8 19.85 10.0 L20.1 11.55" fill="#000000" fill-rule="evenodd" stroke="none"/>
      <path d="M19.45 12.05 L20.1 11.55 20.1 12.35 19.45 12.75 19.45 12.05 M15.1 11.9 Q15.7 12.65 17.0 12.65 L17.75 12.6 18.35 12.5 18.35 13.15 17.75 13.25 17.5 13.3 17.0 13.25 Q15.4 13.1 15.25 12.75 15.0 12.3 15.1 11.9" fill="#817874" fill-rule="evenodd" stroke="none"/>
      <path d="M18.35 12.5 L18.55 12.45 19.45 12.05 19.45 12.75 18.35 13.15 18.35 12.5" fill="#d2d2d2" fill-rule="evenodd" stroke="none"/>
      <path d="M9.3 10.8 Q9.3 10.55 9.45 10.4 L9.85 9.4 Q9.8 9.95 11.05 10.1 12.25 10.2 13.2 9.45 L13.2 10.7 Q12.55 11.65 11.0 11.65 9.45 11.65 9.3 10.8" fill="#000000" fill-rule="evenodd" stroke="none"/>
      <path d="M13.2 10.7 L13.25 11.4 12.4 11.95 10.5 12.15 Q9.6 12.05 9.35 11.8 9.05 11.55 9.2 11.25 L9.3 10.8 Q9.45 11.65 11.0 11.65 12.55 11.65 13.2 10.7" fill="#817874" fill-rule="evenodd" stroke="none"/>
      <path d="M8.85 10.35 L8.85 10.45 8.65 12.5 8.6 12.7 8.45 12.85 6.7 13.65 4.35 14.05 2.0 13.95 Q0.75 13.7 0.35 13.1 -0.15 12.45 0.05 11.85 L0.2 11.3 Q0.85 9.95 1.95 9.0 L6.65 1.6 6.8 1.45 7.05 1.35 7.45 1.35 7.45 4.15 12.95 4.15 12.95 1.35 14.2 1.35 15.95 3.95 15.6 5.3 16.8 5.3 16.8 10.3 16.85 10.4 16.9 10.6 16.9 13.9 16.85 14.15 16.7 14.3 Q15.45 15.25 14.1 15.8 L14.05 15.8 Q11.6 16.55 10.05 15.75 L9.95 15.7 Q8.9 14.95 9.1 14.45 L9.2 13.8 9.2 13.75 Q9.55 12.25 9.8 11.95 L10.1 11.3 10.5 7.75 9.8 7.4 8.8 9.85 8.85 10.35" fill="#000000" fill-rule="evenodd" stroke="none"/>
      <path d="M2.6 8.85 L7.05 1.85 7.4 1.85 Q9.15 2.65 10.25 2.5 L12.95 1.85 14.5 1.85 17.0 4.2 17.2 6.4 16.3 7.0 16.3 7.05 16.3 9.75 Q11.0 12.85 10.8 9.75 L11.0 7.45 Q10.1 6.95 9.5 6.8 L8.65 8.85 Q2.9 10.8 2.6 8.85" fill="#684632" fill-rule="evenodd" stroke="none"/>
      <path d="M2.6 8.85 Q2.9 10.8 8.65 8.85 L7.95 10.4 7.6 10.75 6.95 11.15 6.55 11.3 3.0 11.4 Q1.6 10.95 2.15 9.6 L2.6 8.85 M10.8 9.75 Q11.0 12.85 16.3 9.75 L16.3 10.7 16.05 11.85 Q12.75 14.4 10.45 13.05 L10.8 9.75" fill="#331809" fill-rule="evenodd" stroke="none"/>
      <path d="M16.4 13.2 L16.4 13.9 Q15.2 14.8 13.9 15.3 11.7 16.0 10.25 15.3 9.55 14.8 9.6 14.55 L9.7 13.85 Q10.1 14.55 10.85 14.8 L11.35 14.15 11.5 13.85 11.55 14.15 11.7 14.95 11.85 14.95 14.45 14.35 Q15.6 13.85 16.4 13.2" fill="#a3a3a3" fill-rule="evenodd" stroke="none"/>
      <path d="M16.4 12.5 L16.4 13.2 Q15.6 13.85 14.45 14.35 L11.85 14.95 11.7 14.95 11.55 14.15 12.2 14.15 Q14.0 13.85 15.8 12.75 L16.4 12.5 M9.7 13.85 L9.85 13.2 Q10.45 13.95 11.35 14.15 L10.85 14.8 Q10.1 14.55 9.7 13.85" fill="#090807" fill-rule="evenodd" stroke="none"/>
      <path d="M9.85 13.2 Q10.05 12.4 10.2 12.25 L10.6 11.4 Q10.65 11.9 11.9 12.05 L14.35 11.55 16.3 10.35 16.4 10.6 16.4 12.5 15.8 12.75 Q14.0 13.85 12.2 14.15 L11.55 14.15 11.5 13.85 11.35 14.15 Q10.45 13.95 9.85 13.2" fill="#442115" fill-rule="evenodd" stroke="none"/>
      <path d="M14.95 11.25 L15.1 13.7 Q13.7 14.35 12.75 14.45 L13.15 12.0 14.95 11.25" fill="#090807" fill-rule="evenodd" stroke="none"/>
      <path d="M13.55 11.85 L13.4 14.3 12.2 14.45 Q12.85 12.8 12.75 12.0 L13.55 11.85" fill="#9a7a6b" fill-rule="evenodd" stroke="none"/>
      <path d="M9.95 13.75 L10.75 11.7 11.4 11.95 10.65 14.15 9.95 13.75" fill="#090807" fill-rule="evenodd" stroke="none"/>
      <path d="M11.7 14.95 L14.05 14.55 13.9 15.3 11.65 15.6 11.7 14.95" fill="#ffffff" fill-rule="evenodd" stroke="none"/>
      <path d="M15.55 13.65 L15.35 11.0 16.2 10.4 16.15 13.25 15.55 13.65" fill="#000000" fill-rule="evenodd" stroke="none"/>
      <path d="M8.3 11.5 L8.15 12.45 Q7.65 12.8 6.55 13.15 L5.45 13.4 4.3 13.55 2.1 13.45 Q1.1 13.25 0.75 12.8 0.4 12.35 0.5 11.95 L0.65 11.5 1.0 12.15 1.5 11.8 2.0 11.4 1.85 12.05 1.7 12.65 2.25 12.85 4.7 12.95 5.6 12.8 7.15 12.35 8.3 11.5" fill="#a3a3a3" fill-rule="evenodd" stroke="none"/>
      <path d="M8.35 11.05 L8.3 11.5 7.15 12.35 5.6 12.8 4.7 12.95 2.25 12.85 1.7 12.65 1.85 12.05 5.25 12.3 6.3 12.1 8.35 11.05 M0.65 11.5 L1.15 10.7 1.15 11.25 1.15 11.35 1.5 11.8 1.0 12.15 0.65 11.5" fill="#000000" fill-rule="evenodd" stroke="none"/>
      <path d="M1.15 10.7 L2.25 9.35 Q2.5 10.85 4.8 10.5 L8.2 9.7 8.35 10.4 8.35 11.05 6.3 12.1 5.25 12.3 1.85 12.05 2.0 11.4 1.5 11.8 1.15 11.35 1.15 11.25 1.15 10.7" fill="#442115" fill-rule="evenodd" stroke="none"/>
      <path d="M6.95 12.1 L5.1 12.6 Q4.45 11.8 4.9 10.5 L6.95 10.1 6.95 12.1" fill="#000000" fill-rule="evenodd" stroke="none"/>
      <path d="M5.5 10.4 L5.3 12.5 3.5 12.7 3.9 10.55 5.5 10.4" fill="#9a7a6b" fill-rule="evenodd" stroke="none"/>
      <path d="M8.0 9.75 L7.95 11.55 7.5 11.8 7.6 9.9 8.0 9.75" fill="#000000" fill-rule="evenodd" stroke="none"/>
      <path d="M0.95 11.85 L0.75 11.35 2.3 9.55 Q2.35 9.9 2.55 10.05 L0.95 11.85" fill="#000000" fill-rule="evenodd" stroke="none"/>
      <path d="M2.4 12.9 Q3.25 13.15 5.05 12.9 L4.75 13.5 Q3.5 13.8 2.4 13.5 L2.4 12.9" fill="#ffffff" fill-rule="evenodd" stroke="none"/>
      <path d="M13.7 10.0 Q13.6 8.95 13.8 8.5 L14.35 7.65 15.0 6.55 Q15.45 5.75 15.4 5.0 L14.55 3.45 15.4 3.75 16.6 4.65 Q17.1 5.1 16.35 6.8 L16.35 10.2 15.5 10.4 14.6 10.9 13.95 10.7 13.7 10.0" fill="#331809" fill-rule="evenodd" stroke="none"/>
      <path d="M11.8 9.55 L11.25 10.4 11.05 10.65 Q10.85 10.55 10.75 10.9 L10.9 7.95 11.6 8.95 11.8 9.55" fill="#331809" fill-rule="evenodd" stroke="none"/>
      <path d="M13.0 5.15 Q13.55 5.15 13.45 6.0 L13.2 7.65 13.1 8.2 13.05 8.4 12.35 8.5 12.25 8.4 Q12.1 6.9 12.5 5.55 12.65 5.1 13.0 5.15" fill="#93725e" fill-rule="evenodd" stroke="none"/>
      <path d="M13.15 10.55 L12.95 11.05 12.4 11.25 11.9 11.05 11.65 10.55 Q11.65 10.25 11.9 10.05 L12.4 9.85 12.95 10.05 13.15 10.55" fill="#93725e" fill-rule="evenodd" stroke="none"/>
      <path d="M16.2 8.2 L16.0 9.75 Q15.75 10.35 15.35 10.1 14.9 9.8 15.25 8.8 15.6 7.8 16.2 7.35 L16.2 8.2" fill="#684632" fill-rule="evenodd" stroke="none"/>
      <path d="M3.8 8.5 L3.0 9.65 2.65 9.7 2.45 9.4 2.5 9.0 2.6 8.75 5.4 4.3 6.25 3.0 6.2 3.2 6.05 3.8 5.95 4.9 5.85 5.45 5.85 5.75 5.65 7.05 5.35 7.35 4.55 7.85 3.8 8.5" fill="#331809" fill-rule="evenodd" stroke="none"/>
      <path d="M7.9 6.2 Q7.6 5.6 7.65 5.15 7.65 4.7 7.8 4.85 L9.3 6.6 Q9.95 5.8 9.35 7.25 L8.6 8.95 8.3 9.4 7.5 9.35 7.35 8.95 Q7.05 8.2 7.35 7.8 L7.9 7.3 Q8.15 6.8 7.9 6.2" fill="#331809" fill-rule="evenodd" stroke="none"/>
      <path d="M9.6 6.95 L7.75 4.85 9.7 4.1 11.35 5.15 11.0 7.75 9.6 6.95" fill="#331809" fill-rule="evenodd" stroke="none"/>
    </g>
    <g id="sprite1">
      <use ffdec:characterId="21" height="29.55" transform="matrix(1.0, 0.0, 0.0, 1.0, 0.0, 0.0)" width="11.3" xlink:href="#shape1"/>
    </g>
    <g id="shape1">
      <path d="M7.05 0.5 L7.15 0.5 7.0 -0.1 7.05 -0.2 7.35 -0.75 Q7.6 -1.05 8.0 -1.05 L9.6 -0.75 Q10.25 -0.4 10.25 0.5 L10.25 0.65 10.25 0.7 Q10.25 1.65 7.9 3.85 L4.9 6.5 4.7 6.6 Q3.75 7.35 4.05 8.4 L4.35 9.3 4.4 9.4 5.2 11.2 5.35 11.5 Q6.45 13.7 5.4 15.9 L5.2 15.8 4.55 15.5 4.35 15.45 Q3.95 15.55 3.7 15.85 3.35 16.45 4.0 16.85 L4.45 17.15 4.65 17.55 4.45 18.1 4.35 18.25 4.05 19.1 4.0 19.2 Q3.8 20.15 4.8 20.95 L4.85 21.0 4.9 21.05 7.9 23.7 Q10.25 25.8 10.25 26.85 L10.25 26.95 Q10.25 27.85 9.6 28.25 L8.0 28.5 7.35 28.25 7.05 27.75 7.0 27.6 7.15 27.05 7.05 26.95 5.2 25.8 5.1 25.75 3.3 24.85 Q2.5 24.5 1.85 24.15 0.95 23.8 -0.05 22.5 L-0.1 22.45 Q-1.35 20.95 -0.95 19.15 L-0.8 18.45 -0.65 18.55 0.0 18.9 0.2 18.95 0.25 18.95 0.55 18.9 0.9 18.65 1.45 18.3 1.55 18.2 1.9 17.45 2.0 17.3 2.05 17.1 2.05 16.85 2.1 16.65 1.85 15.9 1.5 15.45 1.15 15.3 1.1 15.3 0.45 15.4 0.25 15.5 0.55 13.85 0.55 13.6 Q0.35 12.05 -0.05 11.0 L-0.05 11.05 Q-0.7 9.7 -0.95 8.3 -1.35 6.5 -0.1 5.05 L-0.05 5.05 Q0.95 3.65 1.85 3.3 2.5 2.95 3.3 2.6 L5.1 1.75 5.2 1.65 7.05 0.55 7.05 0.5" fill="#000000" fill-rule="evenodd" stroke="none"/>
      <path d="M7.35 0.9 Q7.75 0.55 7.6 0.25 L7.5 -0.1 7.7 -0.4 8.0 -0.55 Q9.75 -0.65 9.75 0.5 L9.75 0.65 Q9.7 1.5 7.55 3.45 L4.55 6.1 4.5 6.1 Q3.15 7.15 3.55 8.55 L3.9 9.55 3.95 9.6 4.8 11.5 4.85 11.65 Q5.95 13.65 5.0 15.65 L4.55 15.5 4.35 15.45 Q3.95 15.55 3.7 15.85 3.35 16.45 4.0 16.85 L4.3 17.05 3.95 17.9 3.9 17.95 3.55 18.95 3.55 18.9 Q3.15 20.3 4.5 21.35 L4.55 21.4 7.55 24.05 Q9.7 25.95 9.75 26.85 L9.75 26.95 Q9.75 28.1 8.0 28.0 L7.7 27.9 7.5 27.6 7.6 27.25 Q7.75 26.9 7.35 26.55 L5.4 25.35 5.45 25.35 3.5 24.4 2.05 23.7 0.3 22.15 Q-0.8 20.85 -0.45 19.25 L-0.35 18.8 0.0 18.9 0.2 18.95 0.25 18.95 0.55 18.9 0.9 18.65 1.45 18.3 1.55 18.2 1.9 17.45 2.0 17.3 2.05 17.1 2.05 16.85 2.1 16.65 1.85 15.9 1.5 15.45 1.15 15.3 1.1 15.3 0.85 15.3 1.05 13.9 1.05 13.55 0.4 10.8 -0.45 8.2 Q-0.8 6.6 0.3 5.35 1.25 4.1 2.05 3.75 L3.5 3.05 5.45 2.1 5.4 2.1 7.35 0.9" fill="#7c2100" fill-rule="evenodd" stroke="none"/>
      <path d="M8.65 1.15 L8.65 26.1" ffdec:has-small-stroke="true" ffdec:original-stroke-width="1.0" fill="none" stroke="#ffffff" stroke-linecap="round" stroke-linejoin="round" stroke-width="1.0000931061434304"/>
      <path d="M0.55 9.85 L0.05 8.1 Q-0.25 6.75 0.65 5.65 1.55 4.55 2.25 4.2 L3.7 3.5 5.65 2.55 7.65 1.3 Q8.45 0.65 8.0 -0.05 9.2 -0.1 9.25 0.55 9.15 1.3 7.2 3.05 L4.2 5.7 Q2.55 7.0 3.05 8.7 L3.05 8.75 0.55 9.85 M3.2 20.6 L4.2 21.75 7.2 24.4 Q9.15 26.15 9.25 26.9 9.2 27.55 8.0 27.5 8.45 26.8 7.65 26.15 6.85 25.55 5.65 24.9 L3.7 23.95 2.25 23.25 0.65 21.8 0.6 21.7 3.2 20.6" fill="#ffde00" fill-rule="evenodd" stroke="none"/>
      <path d="M0.55 9.85 L3.05 8.75 3.45 9.75 4.35 11.7 4.35 11.75 Q5.4 13.6 4.5 15.5 L4.35 15.45 Q3.95 15.55 3.7 15.85 3.4 16.4 3.9 16.8 L3.45 17.7 3.05 18.75 Q2.75 19.75 3.2 20.6 L0.6 21.7 Q-0.25 20.65 0.05 19.35 L0.15 18.95 0.25 18.95 0.55 18.9 0.9 18.65 1.45 18.3 1.55 18.2 1.9 17.45 2.0 17.3 2.05 17.1 2.05 16.85 2.1 16.65 1.85 15.9 1.5 15.45 1.35 15.35 1.55 13.95 1.55 13.9 1.55 13.5 Q1.35 11.75 0.85 10.6 L0.55 9.85" fill="#ffa900" fill-rule="evenodd" stroke="none"/>
      <path d="M1.6 21.4 Q0.35 19.85 2.1 19.05 1.95 21.0 5.3 23.45 4.85 23.9 3.85 23.45 2.85 22.95 1.6 21.4" fill="#a14b00" fill-rule="evenodd" stroke="none"/>
      <path d="M1.95 6.25 Q1.2 7.7 2.5 10.0 3.75 12.2 4.05 13.35 4.35 14.4 2.9 17.15 1.45 19.85 2.0 21.9 L1.3 20.95 Q0.7 20.0 1.1 18.55 L1.45 18.3 1.55 18.2 1.9 17.45 2.0 17.3 2.05 17.1 2.05 16.85 2.1 16.65 2.0 16.3 Q2.9 13.95 1.9 11.45 0.75 8.65 0.7 7.8 L0.75 6.8 Q1.0 5.4 4.9 3.45 L1.95 6.25" fill="#632400" fill-rule="evenodd" stroke="none"/>
      <path d="M2.85 21.5 L7.8 25.45 4.2 23.7 Q2.45 22.9 2.85 21.5" fill="#e08b00" fill-rule="evenodd" stroke="none"/>
      <path d="M3.9 5.75 Q1.55 7.4 3.9 10.65 2.3 9.65 1.85 8.25 1.35 6.8 3.05 5.2 4.7 3.6 5.0 3.55 L8.65 1.15 3.9 5.75" fill="#fdffc9" fill-rule="evenodd" stroke="none"/>
      <path d="M7.4 25.25 L2.25 23.15 0.75 21.85 0.75 20.45 Q1.35 21.85 5.5 24.3 L7.4 25.25" fill="#fdffc9" fill-rule="evenodd" stroke="none"/>
      <path d="M1.0 11.5 Q0.0 9.15 -0.05 7.6 1.9 10.5 2.35 12.8 2.7 14.55 2.0 16.35 L1.9 15.95 1.95 14.9 Q2.0 13.85 1.0 11.5" fill="#e08b00" fill-rule="evenodd" stroke="none"/>
      <path d="M8.45 26.45 Q9.25 26.9 8.0 27.5 8.35 26.45 6.4 25.35 L8.45 26.45" fill="#a14b00" fill-rule="evenodd" stroke="none"/>
      <path d="M8.0 -0.05 Q8.9 0.2 8.65 0.5 L7.35 1.5 Q8.4 0.85 8.0 -0.05" fill="#a14b00" fill-rule="evenodd" stroke="none"/>
      <path d="M3.85 15.75 Q3.35 16.15 4.05 16.75 4.7 17.3 4.3 17.2 L3.65 16.9 3.2 16.2 Q2.95 15.7 3.55 15.25 4.6 14.75 5.25 16.4 4.35 15.3 3.85 15.75" fill="#8d4602" fill-rule="evenodd" stroke="none"/>
      <path d="M1.9 11.45 Q0.75 8.65 0.7 7.8 L0.75 6.8 Q1.0 5.4 4.9 3.45 L3.4 4.8 Q1.7 5.9 1.55 6.8 L1.5 7.8 Q1.55 8.65 2.7 11.45 3.8 14.3 2.5 16.9 L2.35 17.25 2.25 17.0 2.0 16.25 Q2.85 13.9 1.9 11.45 M2.0 21.9 L1.3 20.95 Q0.8 20.15 1.0 18.95 L1.35 18.7 1.3 18.6 2.1 17.8 Q1.5 19.35 1.85 20.4 1.8 21.2 2.0 21.9" fill="#a64e00" fill-rule="evenodd" stroke="none"/>
      <path d="M2.2 15.9 Q2.75 16.8 2.35 17.65 1.9 18.5 1.1 19.15 0.3 19.8 -0.25 19.4 -0.85 19.0 -0.55 17.9 0.15 19.3 1.15 18.45 1.7 17.95 1.9 17.2 2.05 16.45 1.55 15.85 1.15 15.3 0.1 16.1 L1.1 15.25 Q1.65 15.0 2.2 15.9" fill="#8d4602" fill-rule="evenodd" stroke="none"/>
    </g>
  </defs>
</svg>
