<?xml version="1.0" encoding="UTF-8" standalone="no"?>
<svg xmlns:ffdec="https://www.free-decompiler.com/flash" xmlns:xlink="http://www.w3.org/1999/xlink" ffdec:objectType="frame" height="38.35px" width="71.6px" xmlns="http://www.w3.org/2000/svg">
  <g transform="matrix(1.0, 0.0, 0.0, 1.0, 23.2, -2.4)">
    <use ffdec:characterId="3" height="5.75" transform="matrix(0.3858, 0.3414, -0.429, 0.9032, -16.9, 15.95)" width="26.3" xlink:href="#sprite0"/>
    <use ffdec:characterId="6" height="15.45" transform="matrix(-0.6811, -0.7313, -0.7305, 0.6804, -9.3, 20.85)" width="17.25" xlink:href="#sprite2"/>
    <use ffdec:characterId="58" height="17.2" transform="matrix(0.7247, 0.176, -0.0877, 0.6882, -2.25, 19.95)" width="13.85" xlink:href="#sprite3"/>
    <use ffdec:characterId="44" height="10.35" transform="matrix(0.3528, 0.4766, -0.4766, 0.3528, -5.45, 17.85)" width="7.75" xlink:href="#sprite4"/>
    <use ffdec:characterId="67" height="49.95" transform="matrix(0.7435, -0.0098, 0.0098, 0.7435, 14.75, 21.8)" width="83.65" xlink:href="#sprite5"/>
    <use ffdec:characterId="44" height="10.35" transform="matrix(0.5391, 0.5623, -0.5623, 0.5391, -1.6, 22.95)" width="7.75" xlink:href="#sprite7"/>
    <use ffdec:characterId="44" height="10.35" transform="matrix(-0.7789, 0.0084, 0.0073, 0.6762, 2.9, 22.55)" width="7.75" xlink:href="#sprite8"/>
    <use ffdec:characterId="60" height="4.25" transform="matrix(-0.83, 0.0891, -0.0705, 0.7174, 1.9, 21.6)" width="7.3" xlink:href="#sprite9"/>
    <use ffdec:characterId="40" height="9.45" transform="matrix(0.5505, 0.0039, 0.2274, 0.6828, 0.05, 17.45)" width="14.5" xlink:href="#sprite10"/>
    <use ffdec:characterId="62" height="7.2" transform="matrix(1.0, 0.0, 0.0, 1.0, -5.8, 28.65)" width="9.4" xlink:href="#sprite11"/>
    <use ffdec:characterId="42" height="18.65" transform="matrix(0.6698, 0.1872, 0.079, 0.7658, -2.55, 20.55)" width="18.65" xlink:href="#sprite12"/>
    <use ffdec:characterId="44" height="10.35" transform="matrix(-0.3528, 0.4766, 0.4766, 0.3528, 5.35, 18.0)" width="7.75" xlink:href="#sprite13"/>
    <use ffdec:characterId="48" height="6.2" transform="matrix(0.7876, -0.0134, 0.0104, 0.6124, -0.05, 15.95)" width="16.75" xlink:href="#sprite14"/>
    <use ffdec:characterId="64" height="2.65" transform="matrix(1.0, 0.0, 0.0, 1.0, -7.45, 20.25)" width="2.5" xlink:href="#sprite15"/>
    <use ffdec:characterId="64" height="2.65" transform="matrix(-0.9973, -0.0741, -0.0741, 0.9973, 7.65, 20.35)" width="2.5" xlink:href="#sprite15"/>
    <use ffdec:characterId="46" height="4.8" transform="matrix(1.0, 0.0, 0.0, 1.0, -10.3, 21.4)" width="5.7" xlink:href="#sprite16"/>
    <use ffdec:characterId="46" height="4.8" transform="matrix(-1.0, 0.0, 0.0, 1.0, 10.35, 21.5)" width="5.7" xlink:href="#sprite16"/>
    <use ffdec:characterId="32" height="3.6" transform="matrix(-1.1316, 0.0, 0.0, 1.0, 5.6, 27.85)" width="7.6" xlink:href="#sprite17"/>
    <use ffdec:characterId="34" height="14.95" transform="matrix(0.8177, -0.1318, 0.2226, 0.5677, 8.4, 25.25)" width="6.5" xlink:href="#sprite18"/>
    <use ffdec:characterId="3" height="5.75" transform="matrix(0.4865, -0.4767, 0.3686, 0.9295, 2.1, 31.8)" width="26.3" xlink:href="#sprite19"/>
    <use ffdec:characterId="36" height="6.95" transform="matrix(0.3186, -0.5922, 0.2981, 0.8304, 8.0, 25.5)" width="5.1" xlink:href="#sprite21"/>
    <use ffdec:characterId="64" height="2.65" transform="matrix(0.8784, 0.5888, 0.5699, -0.8502, 3.0, 25.85)" width="2.5" xlink:href="#sprite15"/>
    <use ffdec:characterId="50" height="5.1" transform="matrix(0.3075, 0.3898, -0.3593, 0.6195, -7.65, 25.1)" width="14.0" xlink:href="#sprite22"/>
  </g>
  <defs>
    <g id="sprite0">
      <filter color-interpolation-filters="sRGB" height="300%" id="filter0" width="300%" x="-100%" y="-100%">
        <feOffset dx="0.0" dy="0.0" in="SourceGraphic" result="filterResult0"/>
        <feColorMatrix in="filterResult0" result="filterResult1" type="matrix" values="0 0 0 0 1.0,0 0 0 0 0.0,0 0 0 0 0.0,0 0 0 1.0 0"/>
        <feGaussianBlur in="filterResult1" result="filterResult2" stdDeviation="0.816496580927726 0.816496580927726"/>
        <feColorMatrix in="filterResult2" result="filterResult3" type="matrix" values="1 0 0 0 0,0 1 0 0 0,0 0 1 0 0,0 0 0 0.5 0"/>
        <feComposite in="SourceGraphic" in2="filterResult3" operator="over" result="filterResult4"/>
      </filter>
      <use ffdec:characterId="2" filter="url(#filter0)" height="5.75" transform="matrix(1.0, 0.0, 0.0, 1.0, 0.0, 0.0)" width="26.3" xlink:href="#sprite1"/>
    </g>
    <g id="sprite1">
      <use ffdec:characterId="1" height="5.75" transform="matrix(1.0, 0.0, 0.0, 1.0, 0.0, 0.0)" width="26.3" xlink:href="#shape0"/>
    </g>
    <g id="shape0">
      <path d="M-5.1 2.45 L12.85 2.65 12.9 -2.6 -12.9 -2.6 -12.45 -1.9 Q-10.3 1.05 -5.1 2.45 Z" ffdec:has-small-stroke="true" ffdec:original-stroke-width="0.5" fill="none" stroke="#292929" stroke-linecap="round" stroke-linejoin="round" stroke-width="1.421501334809695"/>
      <path d="M-5.1 2.45 Q-10.3 1.05 -12.45 -1.9 L-12.9 -2.6 12.9 -2.6 12.85 2.65 -5.1 2.45" fill="#ffffff" fill-rule="evenodd" stroke="none"/>
      <path d="M-5.1 -1.6 L-5.8 -1.8 12.85 -1.8 12.85 -1.45 -5.1 -1.6" fill="#9b9b9b" fill-rule="evenodd" stroke="none"/>
      <path d="M-5.1 2.45 L-5.8 2.25 Q-9.0 1.3 -10.95 -0.3 L-11.15 -0.45 -12.1 -1.45 -11.2 -1.5 Q-8.4 -0.05 -7.5 0.05 L-4.3 0.15 12.9 0.15 12.85 2.65 -5.1 2.45" fill="#9e75b2" fill-rule="evenodd" stroke="none"/>
      <path d="M-6.25 0.15 L12.9 0.15 12.95 1.6 -4.8 0.65 Q-7.85 0.9 -8.85 0.2 L-11.0 -1.45 Q-9.8 -0.6 -8.7 -0.25 L-6.25 0.15" fill="#373e55" fill-rule="evenodd" stroke="none"/>
    </g>
    <g id="sprite2">
      <clipPath id="clipPath0">
        <path d="M -1.77 -1.99 L -1.57 -1.98 L -1.38 -1.95 L -1.19 -1.91 L -1.01 -1.84 L -0.83 -1.76 L -0.65 -1.66 L -0.48 -1.54 L -0.31 -1.4 L -0.15 -1.25 L 0.01 -1.07 L 0.17 -0.88 L 0.32 -0.67 L 0.47 -0.44 L 0.62 -0.2 L 0.76 0.07 L 0.9 0.35 L 1.05 0.75 L 1.11 0.94 L 1.16 1.14 L 1.2 1.33 L 1.23 1.52 L 1.24 1.71 L 1.25 1.9 L 1.24 2.09 L 1.23 2.27 L 1.2 2.46 L 1.16 2.64 L 1.11 2.82 L 1.05 3 L 0.98 3.17 L 0.9 3.35 L -0.2 4.7 L -0.46 4.81 L -0.71 4.89 L -0.95 4.93 L -1.19 4.95 L -1.36 4.94 L -1.52 4.92 L -1.68 4.88 L -1.84 4.82 L -2 4.75 L -2.15 4.67 L -2.3 4.57 L -2.45 4.45 L -3.65 3.4 L -3.57 3.16 L -3.54 2.95 L -3.54 2.85 L -3.55 2.76 L -3.57 2.68 L -3.6 2.6 L -3.77 2.2 L -3.92 1.81 L -4.04 1.44 L -4.12 1.09 L -4.19 0.75 L -4.22 0.43 L -4.22 0.13 L -4.2 -0.15 L -4.15 -0.45 L -4.1 -0.65 L -4.03 -0.82 L -3.94 -0.98 L -3.84 -1.13 L -3.72 -1.26 L -3.59 -1.39 L -3.44 -1.5 L -3.28 -1.61 L -3.1 -1.7 L -2.7 -1.8 L -2.46 -1.88 L -2.22 -1.94 L -1.99 -1.98 L -1.77 -1.99 Z M 0.23 -7.04 L -0.32 -7.02 L -0.85 -6.99 L -1.36 -6.93 L -1.85 -6.85 L -2.31 -6.75 L -2.76 -6.62 L -3.19 -6.47 L -3.6 -6.3 L -4.7 -5.55 L -5.3 -4.6 L -6.95 -0.3 L -7.22 0.54 L -7.46 1.32 L -7.66 2.05 L -7.84 2.72 L -7.98 3.35 L -8.08 3.92 L -8.16 4.44 L -8.2 4.9 L -8.22 5.16 L -8.22 5.4 L -8.2 5.62 L -8.18 5.84 L -8.13 6.04 L -8.07 6.22 L -7.99 6.39 L -7.9 6.55 L -7.78 6.71 L -7.65 6.85 L -7.51 6.98 L -7.35 7.1 L -7.18 7.21 L -7 7.3 L -6.81 7.38 L -6.6 7.45 L -1.55 8.3 L 0.7 8.4 L 1.68 8.41 L 2.54 8.4 L 3.35 8.37 L 4.09 8.32 L 4.79 8.25 L 5.42 8.15 L 6.01 8.04 L 6.53 7.91 L 7 7.75 L 7.95 7.25 L 8.75 6.25 L 9 5.15 L 9 3.65 L 8.9 -0.25 L 8.55 -3.6 L 8.2 -4.4 L 7.7 -4.85 L 5.25 -6.1 L 2.75 -6.8 L 1.25 -7 L 0.73 -7.03 L 0.23 -7.04 Z"/>
      </clipPath>
      <g clip-path="url(#clipPath0)">
        <use ffdec:characterId="5" height="9.4" transform="matrix(1.0, 0.0, 0.0, 1.0, 0.0, 0.0)" width="7.7" xlink:href="#shape1"/>
      </g>
    </g>
    <g id="shape1">
      <path d="M-0.85 -3.75 Q2.1 -3.4 4.45 -1.65 L2.05 5.65 Q-0.4 5.8 -3.25 3.55 L-0.85 -3.75" fill="#000000" fill-rule="evenodd" stroke="none"/>
      <path d="M3.85 -1.2 L1.85 5.05 0.85 4.65 2.85 -1.6 3.85 -1.2" fill="#949494" fill-rule="evenodd" stroke="none"/>
      <path d="M0.25 -2.2 L-0.9 -2.45 -0.65 -3.1 0.35 -2.95 0.25 -2.2" fill="#949494" fill-rule="evenodd" stroke="none"/>
      <path d="M0.35 -2.95 Q2.2 -2.5 3.75 -1.35 L3.5 -0.7 Q2.0 -1.75 0.25 -2.2 L0.35 -2.95" fill="#ffffff" fill-rule="evenodd" stroke="none"/>
    </g>
    <g id="sprite3">
      <use ffdec:characterId="57" height="17.2" transform="matrix(1.0, 0.0, 0.0, 1.0, 0.0, 0.0)" width="13.85" xlink:href="#shape2"/>
    </g>
    <g id="shape2">
      <path d="M1.9 -5.85 Q-0.25 -2.2 -2.85 0.95 -5.75 4.6 -6.95 8.6 L-1.95 7.6 -1.15 6.3 -0.25 4.8 5.5 -4.75 6.85 -7.95 6.9 -8.55 Q6.15 -8.7 5.25 -7.95 L2.9 -6.45 1.9 -5.85" fill="#5c0707" fill-rule="evenodd" stroke="none"/>
    </g>
    <g id="sprite4">
      <use ffdec:characterId="43" height="10.35" transform="matrix(1.0, 0.0, 0.0, 1.0, 0.0, 0.0)" width="7.75" xlink:href="#shape3"/>
    </g>
    <g id="shape3">
      <path d="M-3.2 -1.25 L-2.85 -2.2 -3.05 -0.95 -3.2 -1.25" fill="#4f4f4f" fill-rule="evenodd" stroke="none"/>
      <path d="M0.3 -2.75 L-0.45 -3.0 Q-1.3 -2.8 -1.3 0.15 -1.4 2.8 -0.9 2.9 L0.4 3.4 0.5 3.4 Q1.5 3.35 1.9 1.9 1.45 -0.95 0.45 -2.55 L0.3 -2.75 M-2.85 -2.2 L-2.8 -2.3 -2.0 -3.85 Q-1.55 -4.65 -0.5 -4.9 1.65 -3.95 2.3 -1.5 2.7 0.0 3.4 1.5 3.75 2.2 3.6 2.95 2.4 5.0 -0.2 4.95 L-1.25 4.75 -2.95 4.25 Q-4.1 1.55 -3.2 -1.25 L-3.05 -0.95 -2.85 -2.2" fill="#000000" fill-rule="evenodd" stroke="none"/>
      <path d="M0.3 -2.75 L0.45 -2.55 Q1.45 -0.95 1.9 1.9 1.5 3.35 0.5 3.4 L0.4 3.4 -0.9 2.9 Q-1.4 2.8 -1.3 0.15 -1.3 -2.8 -0.45 -3.0 L0.3 -2.75" fill="#9f9f9f" fill-rule="evenodd" stroke="none"/>
      <path d="M-2.85 -2.2 L-2.8 -2.3 -2.0 -3.85 Q-1.55 -4.65 -0.5 -4.9 1.65 -3.95 2.3 -1.5 2.7 0.0 3.4 1.5 3.75 2.2 3.6 2.95 2.4 5.0 -0.2 4.95 L-1.25 4.75 -2.95 4.25 Q-4.1 1.55 -3.2 -1.25 L-2.85 -2.2 Z" ffdec:has-small-stroke="true" ffdec:original-stroke-width="0.5" fill="none" stroke="#000000" stroke-linecap="round" stroke-linejoin="round" stroke-width="1.6865172359265932"/>
      <path d="M-1.4 -0.3 L-1.2 -1.0 Q-0.45 1.6 0.1 2.45 0.6 3.3 0.2 3.25 L-0.75 2.95 Q-1.3 2.75 -1.4 1.75 L-1.4 -0.3" fill="#9f9f9f" fill-rule="evenodd" stroke="none"/>
    </g>
    <g id="sprite5">
      <clipPath id="clipPath1">
        <path d="M -7.22 -2.86 L -6.93 -2.85 L -6.65 -2.81 L -6.38 -2.75 L -6.11 -2.67 L -5.85 -2.56 L -5.59 -2.42 L -5.34 -2.27 L -5.09 -2.08 L -4.86 -1.88 L -4.62 -1.65 L -4.4 -1.39 L -4.18 -1.11 L -3.96 -0.81 L -3.75 -0.48 L -3.55 -0.13 L -3.35 0.25 L -3.24 0.51 L -3.14 0.77 L -3.06 1.03 L -2.99 1.29 L -2.94 1.54 L -2.9 1.8 L -2.88 2.05 L -2.88 2.3 L -2.88 2.55 L -2.9 2.8 L -2.94 3.04 L -2.99 3.29 L -3.06 3.53 L -3.14 3.77 L -3.24 4.01 L -3.35 4.25 L -3.54 4.54 L -3.73 4.81 L -3.92 5.06 L -4.11 5.29 L -4.31 5.5 L -4.5 5.68 L -4.7 5.85 L -4.9 6 L -5.24 6.14 L -5.58 6.24 L -5.91 6.3 L -6.23 6.32 L -6.47 6.3 L -6.71 6.27 L -6.95 6.21 L -7.18 6.12 L -7.4 6.02 L -7.63 5.88 L -7.84 5.73 L -8.06 5.55 L -8.26 5.35 L -8.47 5.12 L -8.67 4.87 L -8.86 4.59 L -9.05 4.29 L -9.24 3.97 L -9.42 3.62 L -9.6 3.25 L -9.85 2.71 L -10.07 2.2 L -10.24 1.71 L -10.36 1.24 L -10.45 0.79 L -10.49 0.37 L -10.5 0.17 L -10.49 -0.03 L -10.48 -0.22 L -10.45 -0.4 L -10.4 -0.8 L -10.25 -1.2 L -10.14 -1.41 L -10.02 -1.6 L -9.87 -1.77 L -9.71 -1.94 L -9.54 -2.09 L -9.34 -2.22 L -9.13 -2.34 L -8.9 -2.45 L -7.5 -2.85 L -7.22 -2.86 Z M 23.75 -25.45 L 21.88 -25.45 L 20.01 -25.43 L 18.13 -25.39 L 16.26 -25.34 L 14.4 -25.28 L 12.53 -25.2 L 10.66 -25.11 L 8.8 -25 L 8.53 -24.29 L 8.24 -23.59 L 7.91 -22.91 L 7.56 -22.23 L 7.17 -21.58 L 6.75 -20.93 L 6.3 -20.3 L 5.82 -19.69 L 5.32 -19.08 L 4.78 -18.5 L 4.21 -17.92 L 3.61 -17.36 L 2.98 -16.81 L 2.31 -16.28 L 1.62 -15.76 L 0.9 -15.25 L 0.05 -14.7 L -0.81 -14.17 L -1.69 -13.67 L -2.58 -13.2 L -3.5 -12.75 L -4.43 -12.34 L -5.37 -11.95 L -6.34 -11.59 L -7.32 -11.25 L -8.31 -10.95 L -9.33 -10.67 L -10.36 -10.42 L -11.41 -10.2 L -12.47 -10.01 L -13.55 -9.84 L -14.65 -9.7 L -15.6 -9.65 L -16.5 -9.55 L -17.3 -9.5 L -19.55 -9.4 L -21.3 -9.4 L -22.35 -9.5 L -22.65 -9.55 L -23.55 -9.65 L -24.49 -9.74 L -25.43 -9.85 L -26.35 -9.98 L -27.25 -10.13 L -28.15 -10.31 L -29.03 -10.5 L -29.9 -10.71 L -30.76 -10.94 L -31.61 -11.19 L -32.44 -11.46 L -33.27 -11.75 L -34.08 -12.06 L -34.88 -12.39 L -35.66 -12.74 L -36.44 -13.11 L -37.2 -13.5 L -37.47 -12.84 L -37.72 -12.16 L -37.94 -11.46 L -38.12 -10.74 L -38.29 -10 L -38.42 -9.23 L -38.52 -8.45 L -38.6 -7.65 L -38.64 -7.17 L -38.66 -6.68 L -38.68 -6.18 L -38.68 -5.66 L -38.68 -5.13 L -38.66 -4.58 L -38.63 -4.01 L -38.59 -3.44 L -38.47 -2.24 L -38.31 -0.98 L -38.1 0.33 L -37.85 1.7 L -36.7 6.05 L -36.41 6.79 L -36.09 7.54 L -35.74 8.3 L -35.36 9.06 L -34.95 9.84 L -34.52 10.62 L -34.05 11.4 L -33.55 12.2 L -32.97 13.13 L -32.39 13.99 L -31.82 14.79 L -31.26 15.52 L -30.71 16.19 L -30.17 16.79 L -29.9 17.07 L -29.63 17.33 L -29.36 17.57 L -29.1 17.8 L -26.05 19.9 L -22.1 22.1 L -18.05 23.5 L -13.8 24.4 L -9.15 24.45 L -3.85 24.2 L 1.5 23.45 L 10.85 21.75 L 12.13 21.46 L 13.37 21.15 L 14.57 20.84 L 15.74 20.51 L 16.86 20.18 L 17.95 19.83 L 18.99 19.47 L 20 19.1 L 20.82 18.77 L 21.64 18.43 L 22.45 18.08 L 23.26 17.7 L 24.06 17.32 L 24.86 16.91 L 25.65 16.5 L 26.44 16.06 L 27.22 15.61 L 28 15.15 L 28.77 14.67 L 29.53 14.18 L 30.3 13.67 L 31.05 13.14 L 31.8 12.6 L 32.55 12.05 L 33.4 11.39 L 34.23 10.73 L 35.02 10.05 L 35.79 9.38 L 36.52 8.7 L 37.23 8.01 L 37.9 7.31 L 38.55 6.61 L 39.17 5.91 L 39.75 5.19 L 40.31 4.48 L 40.84 3.75 L 41.34 3.02 L 41.8 2.29 L 42.24 1.55 L 42.65 0.8 L 42.87 0.37 L 43.08 -0.07 L 43.28 -0.5 L 43.46 -0.94 L 43.64 -1.39 L 43.8 -1.83 L 43.96 -2.28 L 44.1 -2.72 L 44.23 -3.18 L 44.35 -3.63 L 44.46 -4.09 L 44.56 -4.54 L 44.65 -5 L 44.73 -5.47 L 44.79 -5.93 L 44.85 -6.4 L 44.9 -6.9 L 44.94 -7.39 L 44.96 -7.88 L 44.97 -8.37 L 44.97 -8.85 L 44.95 -9.33 L 44.92 -9.8 L 44.88 -10.27 L 44.82 -10.74 L 44.75 -11.2 L 44.67 -11.66 L 44.57 -12.12 L 44.46 -12.57 L 44.34 -13.02 L 44.2 -13.46 L 44.05 -13.9 L 43.78 -14.61 L 43.45 -15.33 L 43.08 -16.08 L 42.66 -16.84 L 42.19 -17.61 L 41.68 -18.41 L 41.11 -19.22 L 40.5 -20.05 L 40.14 -20.51 L 39.78 -20.94 L 39.43 -21.33 L 39.09 -21.7 L 38.75 -22.03 L 38.41 -22.34 L 38.08 -22.61 L 37.75 -22.85 L 34.1 -24.25 L 29.9 -25.2 L 25.25 -25.45 L 23.75 -25.45 Z"/>
      </clipPath>
      <g clip-path="url(#clipPath1)">
        <use ffdec:characterId="9" height="20.0" transform="matrix(1.0, 0.0, 0.0, 1.0, 0.0, 0.0)" width="39.1" xlink:href="#sprite6"/>
      </g>
    </g>
    <g id="sprite6">
      <use ffdec:characterId="8" height="20.0" transform="matrix(1.0, 0.0, 0.0, 1.0, 0.0, 0.0)" width="39.1" xlink:href="#shape4"/>
    </g>
    <g id="shape4">
      <path d="M-11.9 -1.85 L-12.0 -1.95 Q-14.85 -4.7 -18.05 -6.95 L-18.7 -6.65 -19.15 -7.0 Q-19.5 -7.5 -19.0 -7.9 L-16.3 -9.45 -15.0 -9.75 -13.3 -8.95 Q-13.15 -6.45 -12.4 -4.1 L-11.9 -1.85 M-2.45 -1.6 L-1.75 -1.3 5.7 -3.35 8.15 -4.35 8.45 -4.2 8.15 -3.1 0.7 -0.2 Q-4.65 1.85 -4.55 1.55 L-4.1 0.8 -4.05 0.8 -2.45 -1.6" fill="#000000" fill-rule="evenodd" stroke="none"/>
      <path d="M8.45 -4.2 L9.65 -3.65 15.5 -0.8 19.3 1.2 10.75 9.75 Q8.55 4.9 7.4 3.55 L5.25 1.65 -3.5 3.05 -5.5 3.4 Q-8.8 1.1 -11.9 -1.85 L-12.4 -4.1 Q-13.15 -6.45 -13.3 -8.95 L-6.5 -4.15 -3.3 -2.05 -2.7 -1.7 -2.45 -1.6 -4.05 0.8 -4.1 0.8 -4.55 1.55 Q-4.65 1.85 0.7 -0.2 L8.15 -3.1 8.45 -4.2" fill="#232323" fill-rule="evenodd" stroke="none"/>
      <path d="M8.45 -4.2 L9.65 -3.65 15.5 -0.8 19.3 1.2 10.75 9.75 Q8.55 4.9 7.4 3.55 L5.25 1.65 -3.5 3.05 -5.5 3.4 Q-8.8 1.1 -11.9 -1.85 L-12.0 -1.95 Q-14.85 -4.7 -18.05 -6.95 L-18.7 -6.65 -19.15 -7.0 Q-19.5 -7.5 -19.0 -7.9 L-16.3 -9.45 -15.0 -9.75 -13.3 -8.95 -6.5 -4.15 -3.3 -2.05 -2.7 -1.7 -2.45 -1.6 -1.75 -1.3 5.7 -3.35 8.15 -4.35 8.45 -4.2 Z" ffdec:has-small-stroke="true" ffdec:original-stroke-width="0.5" fill="none" stroke="#000000" stroke-linecap="round" stroke-linejoin="round" stroke-width="1.3448732607003528"/>
      <path d="M7.95 -2.3 L8.4 -3.75 14.5 -0.8 18.7 1.15 17.15 2.55 Q14.25 1.35 8.2 2.45 5.95 1.2 4.8 1.2 7.3 -0.4 7.95 -2.3 M-5.05 2.85 L-6.55 2.0 -7.15 1.6 -8.0 0.95 -11.65 -2.7 -4.95 -2.05 -2.8 -1.15 Q-5.5 1.1 -5.05 2.85" fill="#474747" fill-rule="evenodd" stroke="none"/>
    </g>
    <g id="sprite7">
      <use ffdec:characterId="43" height="10.35" transform="matrix(1.0, 0.0, 0.0, 1.0, 0.0, 0.0)" width="7.75" xlink:href="#shape5"/>
    </g>
    <g id="shape5">
      <path d="M-3.2 -1.25 L-2.85 -2.2 -3.05 -0.95 -3.2 -1.25" fill="#4f4f4f" fill-rule="evenodd" stroke="none"/>
      <path d="M0.3 -2.75 L-0.45 -3.0 Q-1.3 -2.8 -1.3 0.15 -1.4 2.8 -0.9 2.9 L0.4 3.4 0.5 3.4 Q1.5 3.35 1.9 1.9 1.45 -0.95 0.45 -2.55 L0.3 -2.75 M-2.85 -2.2 L-2.8 -2.3 -2.0 -3.85 Q-1.55 -4.65 -0.5 -4.9 1.65 -3.95 2.3 -1.5 2.7 0.0 3.4 1.5 3.75 2.2 3.6 2.95 2.4 5.0 -0.2 4.95 L-1.25 4.75 -2.95 4.25 Q-4.1 1.55 -3.2 -1.25 L-3.05 -0.95 -2.85 -2.2" fill="#000000" fill-rule="evenodd" stroke="none"/>
      <path d="M0.3 -2.75 L0.45 -2.55 Q1.45 -0.95 1.9 1.9 1.5 3.35 0.5 3.4 L0.4 3.4 -0.9 2.9 Q-1.4 2.8 -1.3 0.15 -1.3 -2.8 -0.45 -3.0 L0.3 -2.75" fill="#9f9f9f" fill-rule="evenodd" stroke="none"/>
      <path d="M-2.85 -2.2 L-2.8 -2.3 -2.0 -3.85 Q-1.55 -4.65 -0.5 -4.9 1.65 -3.95 2.3 -1.5 2.7 0.0 3.4 1.5 3.75 2.2 3.6 2.95 2.4 5.0 -0.2 4.95 L-1.25 4.75 -2.95 4.25 Q-4.1 1.55 -3.2 -1.25 L-2.85 -2.2 Z" ffdec:has-small-stroke="true" ffdec:original-stroke-width="0.5" fill="none" stroke="#000000" stroke-linecap="round" stroke-linejoin="round" stroke-width="1.2837728004853428"/>
      <path d="M-1.4 -0.3 L-1.2 -1.0 Q-0.45 1.6 0.1 2.45 0.6 3.3 0.2 3.25 L-0.75 2.95 Q-1.3 2.75 -1.4 1.75 L-1.4 -0.3" fill="#9f9f9f" fill-rule="evenodd" stroke="none"/>
    </g>
    <g id="sprite8">
      <use ffdec:characterId="43" height="10.35" transform="matrix(1.0, 0.0, 0.0, 1.0, 0.0, 0.0)" width="7.75" xlink:href="#shape6"/>
    </g>
    <g id="shape6">
      <path d="M-3.2 -1.25 L-2.85 -2.2 -3.05 -0.95 -3.2 -1.25" fill="#4f4f4f" fill-rule="evenodd" stroke="none"/>
      <path d="M0.3 -2.75 L-0.45 -3.0 Q-1.3 -2.8 -1.3 0.15 -1.4 2.8 -0.9 2.9 L0.4 3.4 0.5 3.4 Q1.5 3.35 1.9 1.9 1.45 -0.95 0.45 -2.55 L0.3 -2.75 M-2.85 -2.2 L-2.8 -2.3 -2.0 -3.85 Q-1.55 -4.65 -0.5 -4.9 1.65 -3.95 2.3 -1.5 2.7 0.0 3.4 1.5 3.75 2.2 3.6 2.95 2.4 5.0 -0.2 4.95 L-1.25 4.75 -2.95 4.25 Q-4.1 1.55 -3.2 -1.25 L-3.05 -0.95 -2.85 -2.2" fill="#000000" fill-rule="evenodd" stroke="none"/>
      <path d="M0.3 -2.75 L0.45 -2.55 Q1.45 -0.95 1.9 1.9 1.5 3.35 0.5 3.4 L0.4 3.4 -0.9 2.9 Q-1.4 2.8 -1.3 0.15 -1.3 -2.8 -0.45 -3.0 L0.3 -2.75" fill="#9f9f9f" fill-rule="evenodd" stroke="none"/>
      <path d="M-2.85 -2.2 L-2.8 -2.3 -2.0 -3.85 Q-1.55 -4.65 -0.5 -4.9 1.65 -3.95 2.3 -1.5 2.7 0.0 3.4 1.5 3.75 2.2 3.6 2.95 2.4 5.0 -0.2 4.95 L-1.25 4.75 -2.95 4.25 Q-4.1 1.55 -3.2 -1.25 L-2.85 -2.2 Z" ffdec:has-small-stroke="true" ffdec:original-stroke-width="0.5" fill="none" stroke="#000000" stroke-linecap="round" stroke-linejoin="round" stroke-width="1.3777923290530343"/>
      <path d="M-1.4 -0.3 L-1.2 -1.0 Q-0.45 1.6 0.1 2.45 0.6 3.3 0.2 3.25 L-0.75 2.95 Q-1.3 2.75 -1.4 1.75 L-1.4 -0.3" fill="#9f9f9f" fill-rule="evenodd" stroke="none"/>
    </g>
    <g id="sprite9">
      <use ffdec:characterId="59" height="4.25" transform="matrix(1.0, 0.0, 0.0, 1.0, 0.0, 0.0)" width="7.3" xlink:href="#shape7"/>
    </g>
    <g id="shape7">
      <path d="M-2.4 -0.7 L-3.6 -1.75 -3.65 -1.9 -3.25 -2.45 3.65 -2.05 Q2.9 -1.05 2.9 -0.45 L-2.4 -0.7" fill="#000000" fill-rule="evenodd" stroke="none"/>
      <path d="M2.9 -0.45 Q2.0 0.55 2.05 1.7 L-1.2 1.5 -2.4 -0.7 2.9 -0.45" fill="#9f9f9f" fill-rule="evenodd" stroke="none"/>
      <path d="M-1.5 1.75 L-1.5 1.3 2.0 1.35 2.0 1.8 -1.5 1.75" fill="#000000" fill-rule="evenodd" stroke="none"/>
    </g>
    <g id="sprite10">
      <use ffdec:characterId="39" height="9.45" transform="matrix(1.0, 0.0, 0.0, 1.0, 0.0, 0.0)" width="14.5" xlink:href="#shape8"/>
    </g>
    <g id="shape8">
      <path d="M-7.2 4.05 L-4.2 -3.05 4.65 -3.85 7.3 3.2 4.75 5.4 -4.6 5.6 -7.2 4.05 M-3.35 -0.5 L-4.7 3.6 4.95 3.35 3.5 -0.9 Q0.15 0.35 -3.35 -0.5" fill="#000000" fill-rule="evenodd" stroke="none"/>
      <path d="M-3.35 -0.5 Q0.15 0.35 3.5 -0.9 L4.95 3.35 -4.7 3.6 -3.35 -0.5" fill="#9f9f9f" fill-rule="evenodd" stroke="none"/>
      <path d="M-7.2 4.05 L-4.2 -3.05 4.65 -3.85 7.3 3.2 4.75 5.4 -4.6 5.6 -7.2 4.05 M-6.4 3.8 L-3.6 5.1 4.55 4.7 6.25 2.9 4.4 -3.25 -3.75 -2.65 -6.4 3.8" fill="#000000" fill-rule="evenodd" stroke="none"/>
    </g>
    <g id="sprite11">
      <use ffdec:characterId="61" height="7.2" transform="matrix(1.0, 0.0, 0.0, 1.0, 0.0, 0.0)" width="9.4" xlink:href="#shape9"/>
    </g>
    <g id="shape9">
      <path d="M3.45 -0.35 L3.1 1.0 Q-2.95 5.65 -5.65 4.4 -6.0 3.95 -5.95 3.25 -5.9 1.8 -4.45 0.2 -3.05 -1.35 -1.1 -2.1 L2.2 -2.35 Q3.5 -1.8 3.45 -0.35" fill="#000000" fill-rule="evenodd" stroke="none"/>
      <path d="M-2.0 0.65 L-1.9 0.95 Q-2.7 2.9 -4.25 2.75 L-4.55 2.6 Q-4.8 2.25 -4.65 1.7 L-3.9 0.85 -2.85 0.3 Q-2.25 0.3 -2.0 0.65" fill="#c3c3c3" fill-rule="evenodd" stroke="none"/>
    </g>
    <g id="sprite12">
      <use ffdec:characterId="41" height="18.65" transform="matrix(1.0, 0.0, 0.0, 1.0, 0.0, 0.0)" width="18.65" xlink:href="#shape10"/>
    </g>
    <g id="shape10">
      <path d="M-8.05 7.0 Q-3.9 5.05 -0.5 1.7 2.9 -1.65 6.7 -6.65 5.75 -1.15 -0.65 3.8 -7.1 8.75 -8.05 7.0" fill="#ff0000" fill-rule="evenodd" stroke="none"/>
      <path d="M8.3 -5.15 Q6.65 -2.25 3.8 1.75 L0.05 6.1 -2.45 8.1 -4.65 9.15 -5.4 9.35 -6.35 8.75 -6.8 8.55 -8.95 7.95 -9.1 7.95 Q-9.45 7.7 -9.1 7.15 -8.75 6.55 -7.65 5.95 L-7.25 5.7 Q-4.65 4.6 -3.45 3.8 -2.35 3.15 -0.25 0.85 L4.7 -4.8 4.75 -4.85 6.3 -7.0 6.95 -8.7 Q6.65 -9.0 6.75 -9.15 L7.45 -9.05 9.15 -7.35 9.35 -6.9 9.1 -6.6 8.65 -5.85 8.3 -5.15 M-8.05 7.0 Q-7.1 8.75 -0.65 3.8 5.75 -1.15 6.7 -6.65 2.9 -1.65 -0.5 1.7 -3.9 5.05 -8.05 7.0" fill="#450000" fill-rule="evenodd" stroke="none"/>
    </g>
    <g id="sprite13">
      <use ffdec:characterId="43" height="10.35" transform="matrix(1.0, 0.0, 0.0, 1.0, 0.0, 0.0)" width="7.75" xlink:href="#shape11"/>
    </g>
    <g id="shape11">
      <path d="M-3.2 -1.25 L-2.85 -2.2 -3.05 -0.95 -3.2 -1.25" fill="#4f4f4f" fill-rule="evenodd" stroke="none"/>
      <path d="M0.3 -2.75 L-0.45 -3.0 Q-1.3 -2.8 -1.3 0.15 -1.4 2.8 -0.9 2.9 L0.4 3.4 0.5 3.4 Q1.5 3.35 1.9 1.9 1.45 -0.95 0.45 -2.55 L0.3 -2.75 M-2.85 -2.2 L-2.8 -2.3 -2.0 -3.85 Q-1.55 -4.65 -0.5 -4.9 1.65 -3.95 2.3 -1.5 2.7 0.0 3.4 1.5 3.75 2.2 3.6 2.95 2.4 5.0 -0.2 4.95 L-1.25 4.75 -2.95 4.25 Q-4.1 1.55 -3.2 -1.25 L-3.05 -0.95 -2.85 -2.2" fill="#000000" fill-rule="evenodd" stroke="none"/>
      <path d="M0.3 -2.75 L0.45 -2.55 Q1.45 -0.95 1.9 1.9 1.5 3.35 0.5 3.4 L0.4 3.4 -0.9 2.9 Q-1.4 2.8 -1.3 0.15 -1.3 -2.8 -0.45 -3.0 L0.3 -2.75" fill="#9f9f9f" fill-rule="evenodd" stroke="none"/>
      <path d="M-2.85 -2.2 L-2.8 -2.3 -2.0 -3.85 Q-1.55 -4.65 -0.5 -4.9 1.65 -3.95 2.3 -1.5 2.7 0.0 3.4 1.5 3.75 2.2 3.6 2.95 2.4 5.0 -0.2 4.95 L-1.25 4.75 -2.95 4.25 Q-4.1 1.55 -3.2 -1.25 L-2.85 -2.2 Z" ffdec:has-small-stroke="true" ffdec:original-stroke-width="0.5" fill="none" stroke="#000000" stroke-linecap="round" stroke-linejoin="round" stroke-width="1.6865172359265932"/>
      <path d="M-1.4 -0.3 L-1.2 -1.0 Q-0.45 1.6 0.1 2.45 0.6 3.3 0.2 3.25 L-0.75 2.95 Q-1.3 2.75 -1.4 1.75 L-1.4 -0.3" fill="#9f9f9f" fill-rule="evenodd" stroke="none"/>
    </g>
    <g id="sprite14">
      <use ffdec:characterId="47" height="6.2" transform="matrix(1.0, 0.0, 0.0, 1.0, 0.0, 0.0)" width="16.75" xlink:href="#shape12"/>
    </g>
    <g id="shape12">
      <path d="M-8.35 1.25 L-6.65 -2.65 0.05 -2.1 6.7 -2.65 8.4 1.25 Q4.45 3.05 0.0 3.55 -4.4 3.05 -8.35 1.25" fill="#000000" fill-rule="evenodd" stroke="none"/>
      <path d="M-0.6 2.3 L-5.1 1.15 -4.7 0.5 Q1.95 1.85 5.2 0.0 L5.9 0.75 Q1.35 2.65 -0.6 2.3" fill="#a5a5a5" fill-rule="evenodd" stroke="none"/>
    </g>
    <g id="sprite15">
      <use ffdec:characterId="63" height="2.65" transform="matrix(1.0, 0.0, 0.0, 1.0, 0.0, 0.0)" width="2.5" xlink:href="#shape13"/>
    </g>
    <g id="shape13">
      <path d="M0.2 -1.3 L1.25 0.45 0.2 1.35 Q0.55 0.35 -1.25 -0.4 L0.2 -1.3" fill="#000000" fill-rule="evenodd" stroke="none"/>
    </g>
    <g id="sprite16">
      <use ffdec:characterId="45" height="4.8" transform="matrix(1.0, 0.0, 0.0, 1.0, 0.0, 0.0)" width="5.7" xlink:href="#shape14"/>
    </g>
    <g id="shape14">
      <path d="M-0.35 -2.2 L1.35 -2.4 2.85 -0.8 -1.25 2.4 -2.85 1.3 -1.55 -1.3 -0.35 -2.2" fill="#000000" fill-rule="evenodd" stroke="none"/>
      <path d="M-1.45 1.2 L1.65 -1.6 2.3 -0.85 -1.3 2.05 -2.35 1.0 -2.15 0.35 -1.45 1.2" fill="#898989" fill-rule="evenodd" stroke="none"/>
    </g>
    <g id="sprite17">
      <use ffdec:characterId="31" height="3.6" transform="matrix(1.0, 0.0, 0.0, 1.0, 0.0, 0.0)" width="7.6" xlink:href="#shape15"/>
    </g>
    <g id="shape15">
      <path d="M3.8 0.85 L3.6 1.8 -3.5 1.8 -3.8 0.85 Q-3.8 -0.25 -2.65 -1.05 -1.55 -1.8 0.0 -1.8 1.6 -1.8 2.75 -1.05 3.8 -0.25 3.8 0.85" fill="#000000" fill-rule="evenodd" stroke="none"/>
      <path d="M0.2 0.05 L0.1 0.4 -2.5 0.4 -2.6 0.05 -2.2 -0.65 -1.2 -0.9 -0.2 -0.65 Q0.2 -0.35 0.2 0.05" fill="#c3c3c3" fill-rule="evenodd" stroke="none"/>
    </g>
    <g id="sprite18">
      <use ffdec:characterId="33" height="14.95" transform="matrix(1.0, 0.0, 0.0, 1.0, 0.0, 0.0)" width="6.5" xlink:href="#shape16"/>
    </g>
    <g id="shape16">
      <path d="M-3.2 -6.55 Q0.15 -7.9 3.3 -6.55 L3.3 6.8 Q0.7 8.6 -3.2 6.8 L-3.2 -6.55" fill="#000000" fill-rule="evenodd" stroke="none"/>
      <path d="M2.85 -5.25 L2.85 6.15 1.65 6.15 1.65 -5.25 2.85 -5.25" fill="#949494" fill-rule="evenodd" stroke="none"/>
      <path d="M-1.35 -5.35 L-2.65 -5.0 -2.65 -6.2 -1.5 -6.55 -1.35 -5.35" fill="#949494" fill-rule="evenodd" stroke="none"/>
      <path d="M-1.5 -6.55 L2.7 -6.2 2.7 -5.0 -1.35 -5.35 -1.5 -6.55" fill="#ffffff" fill-rule="evenodd" stroke="none"/>
    </g>
    <g id="sprite19">
      <filter color-interpolation-filters="sRGB" height="300%" id="filter1" width="300%" x="-100%" y="-100%">
        <feOffset dx="0.0" dy="0.0" in="SourceGraphic" result="filterResult5"/>
        <feColorMatrix in="filterResult5" result="filterResult6" type="matrix" values="0 0 0 0 1.0,0 0 0 0 0.0,0 0 0 0 0.0,0 0 0 1.0 0"/>
        <feGaussianBlur in="filterResult6" result="filterResult7" stdDeviation="0.816496580927726 0.816496580927726"/>
        <feColorMatrix in="filterResult7" result="filterResult8" type="matrix" values="1 0 0 0 0,0 1 0 0 0,0 0 1 0 0,0 0 0 0.5 0"/>
        <feComposite in="SourceGraphic" in2="filterResult8" operator="over" result="filterResult9"/>
      </filter>
      <use ffdec:characterId="2" filter="url(#filter1)" height="5.75" transform="matrix(1.0, 0.0, 0.0, 1.0, 0.0, 0.0)" width="26.3" xlink:href="#sprite20"/>
    </g>
    <g id="sprite20">
      <use ffdec:characterId="1" height="5.75" transform="matrix(1.0, 0.0, 0.0, 1.0, 0.0, 0.0)" width="26.3" xlink:href="#shape17"/>
    </g>
    <g id="shape17">
      <path d="M-5.1 2.45 L12.85 2.65 12.9 -2.6 -12.9 -2.6 -12.45 -1.9 Q-10.3 1.05 -5.1 2.45 Z" ffdec:has-small-stroke="true" ffdec:original-stroke-width="0.5" fill="none" stroke="#292929" stroke-linecap="round" stroke-linejoin="round" stroke-width="1.2620198520855888"/>
      <path d="M-5.1 2.45 Q-10.3 1.05 -12.45 -1.9 L-12.9 -2.6 12.9 -2.6 12.85 2.65 -5.1 2.45" fill="#ffffff" fill-rule="evenodd" stroke="none"/>
      <path d="M-5.1 -1.6 L-5.8 -1.8 12.85 -1.8 12.85 -1.45 -5.1 -1.6" fill="#9b9b9b" fill-rule="evenodd" stroke="none"/>
      <path d="M-5.1 2.45 L-5.8 2.25 Q-9.0 1.3 -10.95 -0.3 L-11.15 -0.45 -12.1 -1.45 -11.2 -1.5 Q-8.4 -0.05 -7.5 0.05 L-4.3 0.15 12.9 0.15 12.85 2.65 -5.1 2.45" fill="#9e75b2" fill-rule="evenodd" stroke="none"/>
      <path d="M-6.25 0.15 L12.9 0.15 12.95 1.6 -4.8 0.65 Q-7.85 0.9 -8.85 0.2 L-11.0 -1.45 Q-9.8 -0.6 -8.7 -0.25 L-6.25 0.15" fill="#373e55" fill-rule="evenodd" stroke="none"/>
    </g>
    <g id="sprite21">
      <use ffdec:characterId="35" height="6.95" transform="matrix(1.0, 0.0, 0.0, 1.0, 0.0, 0.0)" width="5.1" xlink:href="#shape18"/>
    </g>
    <g id="shape18">
      <path d="M1.1 3.5 L-1.2 3.5 -1.2 2.8 1.1 2.8 1.1 3.5 M1.1 -1.85 L1.1 -0.75 -1.2 -0.7 -0.9 -2.25 0.85 -1.9 1.1 -1.85" fill="#484848" fill-rule="evenodd" stroke="none"/>
      <path d="M-2.9 -3.45 L-1.6 -3.35 0.9 -1.95 0.85 -1.9 1.0 -1.9 1.1 -1.85 0.85 -1.9 -0.9 -2.25 -2.9 -3.45" fill="#989898" fill-rule="evenodd" stroke="none"/>
      <path d="M1.1 -0.75 L1.1 2.8 -1.2 2.8 -1.2 -0.7 1.1 -0.75" fill="#45566b" fill-rule="evenodd" stroke="none"/>
      <path d="M-1.6 -3.35 L-1.2 -3.35 1.4 -2.0 1.6 -1.85 1.6 3.5 1.1 3.5 1.1 2.8 1.1 -0.75 1.1 -1.85 1.0 -1.9 0.85 -1.9 0.9 -1.95 -1.6 -3.35 M-1.2 3.5 L-1.55 3.5 -1.5 -2.4 -3.5 -3.45 -2.9 -3.45 -0.9 -2.25 -1.2 -0.7 -1.2 2.8 -1.2 3.5" fill="#000000" fill-rule="evenodd" stroke="none"/>
    </g>
    <g id="sprite22">
      <use ffdec:characterId="49" height="5.1" transform="matrix(1.0, 0.0, 0.0, 1.0, 0.0, 0.0)" width="14.0" xlink:href="#shape19"/>
    </g>
    <g id="shape19">
      <path d="M7.4 -0.5 L10.0 -0.8 10.0 2.3 -3.5 2.3 -3.5 0.4 -1.6 0.3 0.55 1.65 2.95 0.3 2.3 -0.1 2.4 -0.15 4.35 -0.25 3.7 0.1 6.2 1.65 8.6 0.3 7.4 -0.5" fill="#000000" fill-rule="evenodd" stroke="none"/>
      <path d="M-1.6 0.3 L-1.95 0.1 0.45 -1.35 2.3 -0.1 2.95 0.3 0.55 1.65 -1.6 0.3 M4.35 -0.25 L6.1 -1.35 7.4 -0.5 8.6 0.3 6.2 1.65 3.7 0.1 4.35 -0.25" fill="#ffffff" fill-rule="evenodd" stroke="none"/>
      <path d="M10.0 -0.8 L7.4 -0.5 6.1 -1.35 4.35 -0.25 2.4 -0.15 2.3 -0.1 0.45 -1.35 -1.95 0.1 -1.6 0.3 -3.5 0.4 -3.5 -2.3 10.0 -2.3 10.0 -0.8" fill="#7d7d7d" fill-rule="evenodd" stroke="none"/>
      <path d="M10.0 -0.8 L10.0 -2.3 -3.5 -2.3 -3.5 0.4 -3.5 2.3 10.0 2.3 10.0 -0.8 Z" ffdec:has-small-stroke="true" ffdec:original-stroke-width="0.5" fill="none" stroke="#000000" stroke-linecap="round" stroke-linejoin="round" stroke-width="1.739420913158205"/>
    </g>
  </defs>
</svg>
