<?xml version="1.0" encoding="UTF-8" standalone="no"?>
<svg xmlns:ffdec="https://www.free-decompiler.com/flash" xmlns:xlink="http://www.w3.org/1999/xlink" ffdec:objectType="frame" height="11.85px" width="15.85px" xmlns="http://www.w3.org/2000/svg">
  <g transform="matrix(1.0, 0.0, 0.0, 1.0, 7.95, -14.55)">
    <use ffdec:characterId="8" height="11.25" transform="matrix(1.0, 0.0, 0.0, 1.0, -0.05, 20.75)" width="10.65" xlink:href="#sprite0"/>
    <use ffdec:characterId="13" height="5.9" transform="matrix(1.0, 0.0, 0.0, 1.0, 0.0, 17.5)" width="15.85" xlink:href="#sprite1"/>
  </g>
  <defs>
    <g id="sprite0">
      <use ffdec:characterId="7" height="11.25" transform="matrix(1.0, 0.0, 0.0, 1.0, 0.0, 0.0)" width="10.65" xlink:href="#shape0"/>
    </g>
    <g id="shape0">
      <path d="M-3.55 -1.9 L-3.95 0.3 Q-4.0 2.4 -3.15 0.7 L-2.9 0.25 -2.9 0.65 Q-3.0 3.2 -2.05 1.95 L-0.7 -0.3 -0.5 -0.8 Q-0.75 1.35 0.15 3.95 0.75 1.05 1.05 1.05 1.55 1.25 2.75 3.65 L2.85 -1.3 2.85 -1.35 3.65 0.1 2.95 -4.8 3.4 -3.85 4.3 -0.6 Q5.3 2.45 5.3 4.35 L5.05 5.0 Q4.8 5.0 4.25 4.05 L3.65 3.3 3.45 4.75 Q3.35 6.05 3.15 5.45 L2.2 4.0 1.3 2.85 Q1.0 2.5 0.75 4.1 0.45 5.65 0.2 5.6 -0.3 5.55 -0.75 3.85 L-1.05 2.9 Q-1.3 2.05 -1.95 3.6 -2.6 5.0 -3.0 5.05 -3.4 5.05 -3.55 3.7 L-3.65 2.4 -5.1 4.1 -5.3 4.05 -5.35 3.85 Q-5.35 3.05 -3.95 -0.9 L-3.55 -1.9" fill="#000000" fill-rule="evenodd" stroke="none"/>
      <path d="M2.95 -4.8 L3.65 0.1 2.85 -1.35 2.85 -1.3 2.75 3.65 Q1.55 1.25 1.05 1.05 0.75 1.05 0.15 3.95 -0.75 1.35 -0.5 -0.8 L-0.7 -0.3 -2.05 1.95 Q-3.0 3.2 -2.9 0.65 L-2.9 0.25 -3.15 0.7 Q-4.0 2.4 -3.95 0.3 L-3.55 -1.9 -2.55 -4.9 -2.6 -5.2 -2.6 -5.25 -2.55 -5.25 -0.85 -5.6 1.7 -5.55 Q2.45 -5.5 2.95 -4.8" fill="#3c3c3c" fill-rule="evenodd" stroke="none"/>
    </g>
    <g id="sprite1">
      <use ffdec:characterId="12" height="5.9" transform="matrix(1.0, 0.0, 0.0, 1.0, 0.0, 0.0)" width="15.85" xlink:href="#shape1"/>
    </g>
    <g id="shape1">
      <path d="M-1.6 -2.6 L1.5 -2.55 3.15 -2.7 4.25 -2.7 5.25 -1.8 Q7.1 0.05 7.5 0.0 7.9 -0.05 7.15 0.45 6.4 0.9 4.45 -0.05 2.5 -1.05 2.6 0.9 2.65 2.8 2.0 2.9 1.3 3.0 -0.95 -0.1 -2.8 2.65 -4.0 2.65 L-4.3 2.3 -4.3 -0.45 -7.85 0.15 -7.55 -0.4 Q-6.9 -1.1 -4.1 -2.15 L-3.7 -2.25 Q-4.0 -2.8 -1.6 -2.6" fill="#33cccc" fill-rule="evenodd" stroke="none"/>
      <path d="M-3.4 1.45 Q-3.9 1.6 -3.9 0.8 L-3.55 -0.9 -3.0 -1.85 -2.35 -1.85 -1.6 -1.45 Q-1.25 -1.15 -1.45 -0.5 -1.7 0.15 -2.3 0.75 L-3.4 1.45" fill="#99ffff" fill-rule="evenodd" stroke="none"/>
      <path d="M-4.5 -0.95 L-5.05 -0.8 -5.65 -0.85 -5.7 -1.05 Q-5.7 -1.4 -4.9 -1.6 -4.1 -1.85 -4.1 -1.25 L-4.5 -0.95" fill="#99ffff" fill-rule="evenodd" stroke="none"/>
      <path d="M7.55 0.0 Q7.15 0.0 6.35 -0.6 L5.45 -1.4 Q4.7 -2.0 4.65 -2.15 4.3 -2.85 3.55 -2.7 L4.75 -2.65 5.6 -1.7 Q6.15 -1.0 7.9 -0.2 L7.85 -0.05 7.85 0.1 Q7.85 0.4 6.75 0.55 L4.4 0.15 2.95 -0.5 2.95 -0.65 3.4 -0.65 4.75 -0.15 6.25 0.3 7.4 0.2 7.55 0.0 M2.7 0.85 L2.75 2.0 Q2.75 2.85 2.45 2.85 L2.05 2.95 Q1.3 2.95 0.3 1.8 -0.6 0.75 -0.6 0.3 L-0.55 0.15 Q1.25 2.55 1.95 2.55 L2.25 2.5 Q2.1 -0.25 3.2 -0.25 2.75 0.25 2.7 0.85 M-3.65 -2.15 L-3.8 -2.25 Q-4.15 -2.05 -4.8 -1.8 L-6.05 -1.15 -7.25 0.0 -5.25 -0.35 Q-4.9 -0.4 -4.55 -0.6 L-4.1 -0.85 -4.05 -0.7 -4.15 -0.45 -4.15 0.2 -3.85 2.25 -2.7 1.8 -1.75 1.1 -1.2 0.25 -0.65 -0.45 -0.6 -0.25 Q-0.6 0.3 -1.5 1.4 -2.55 2.65 -3.7 2.65 L-3.85 2.65 -4.0 2.7 Q-4.45 2.7 -4.45 1.65 L-4.25 -0.35 Q-4.5 -0.15 -5.05 -0.05 L-7.45 0.2 -7.75 0.45 Q-8.0 0.45 -7.95 0.15 -7.95 -0.65 -6.4 -1.5 L-3.85 -2.45 Q-3.8 -2.95 -3.15 -2.95 L-2.85 -2.8 -2.8 -2.65 -2.85 -2.5 -3.35 -2.3 Q-3.55 -2.15 -3.65 -2.15" fill="#000000" fill-rule="evenodd" stroke="none"/>
    </g>
  </defs>
</svg>
