<?xml version="1.0" encoding="UTF-8" standalone="no"?>
<svg xmlns:ffdec="https://www.free-decompiler.com/flash" xmlns:xlink="http://www.w3.org/1999/xlink" ffdec:objectType="frame" height="39.65px" width="53.65px" xmlns="http://www.w3.org/2000/svg">
  <g transform="matrix(1.0, 0.0, 0.0, 1.0, 40.4, 5.45)">
    <use ffdec:characterId="17" height="36.95" transform="matrix(1.0, 0.0, 0.0, 1.0, -21.5, 13.0)" width="37.8" xlink:href="#sprite0"/>
    <use ffdec:characterId="19" height="17.1" transform="matrix(1.0, 0.0, 0.0, 1.0, -0.1, 23.45)" width="26.7" xlink:href="#sprite1"/>
    <use ffdec:characterId="4" height="14.25" transform="matrix(-1.0, 0.0, 0.0, 1.0, 4.1, 27.05)" width="8.55" xlink:href="#sprite2"/>
    <use ffdec:characterId="4" height="14.25" transform="matrix(1.0, 0.0, 0.0, 1.0, -4.55, 27.05)" width="8.55" xlink:href="#sprite2"/>
    <use ffdec:characterId="6" height="10.25" transform="matrix(1.0582, 0.0, 0.0, 1.0, 0.15, 18.8)" width="19.85" xlink:href="#sprite3"/>
  </g>
  <defs>
    <g id="sprite0">
      <use ffdec:characterId="16" height="36.95" transform="matrix(1.0, 0.0, 0.0, 1.0, 0.0, 0.0)" width="37.8" xlink:href="#shape0"/>
    </g>
    <g id="shape0">
      <path d="M8.5 1.25 L15.25 9.15 18.55 13.3 Q15.4 15.55 11.65 16.75 6.7 18.45 1.45 18.05 -4.85 17.65 -10.1 14.15 L-11.5 13.3 -4.35 14.6 -7.85 12.75 -4.75 12.6 -5.5 12.05 Q-8.15 10.2 -10.3 7.75 L-11.75 6.1 -3.2 10.35 -4.05 8.45 -0.5 9.6 -3.85 5.0 -2.95 5.1 -0.6 5.9 3.35 7.65 2.0 4.6 3.65 5.0 5.3 5.55 5.65 5.8 5.15 4.2 8.75 6.5 8.5 1.25" fill="#ae5b00" fill-rule="evenodd" stroke="none"/>
      <path d="M-4.05 -6.6 L-2.75 -3.35 -2.05 -7.1 -0.5 -4.45 Q0.6 -2.45 1.3 -0.3 L3.45 -3.05 6.2 2.35 6.45 0.0 7.05 -0.25 8.5 1.25 8.75 6.5 5.15 4.2 5.65 5.8 5.3 5.55 3.65 5.0 2.0 4.6 3.35 7.65 -0.6 5.9 -2.95 5.1 -3.85 5.0 -0.5 9.6 -4.05 8.45 -3.2 10.35 -11.75 6.1 -10.3 7.75 Q-8.15 10.2 -5.5 12.05 L-4.75 12.6 -7.85 12.75 -4.35 14.6 -11.5 13.3 -16.2 10.5 -11.35 10.3 -17.35 4.65 -14.7 5.2 -16.55 2.5 -14.25 4.0 -14.4 3.0 -15.0 0.75 -10.75 2.85 Q-12.15 1.35 -13.0 -0.3 -14.05 -2.3 -14.6 -4.5 -13.75 -3.35 -12.6 -2.6 L-10.8 -1.55 -8.75 -0.25 -9.4 -1.95 -8.6 -1.65 Q-7.5 -1.25 -7.1 -0.9 L-7.0 -0.75 -7.8 -3.0 -6.85 -2.5 -6.35 -2.05 -5.85 -1.5 -4.6 0.35 Q-3.8 -2.2 -3.95 -4.8 L-4.05 -6.6" fill="#603200" fill-rule="evenodd" stroke="none"/>
      <path d="M-16.55 2.5 L-18.55 -0.5 -15.85 0.3 Q-16.7 -1.9 -17.05 -4.05 -17.8 -8.65 -16.85 -13.2 -16.35 -15.8 -15.2 -18.1 L-9.25 -8.85 -6.95 -12.15 -4.95 -8.4 -4.05 -6.6 -3.95 -4.8 Q-3.8 -2.2 -4.6 0.35 L-5.85 -1.5 -6.35 -2.05 -6.85 -2.5 -7.8 -3.0 -7.0 -0.75 -7.1 -0.9 Q-7.5 -1.25 -8.6 -1.65 L-9.4 -1.95 -8.75 -0.25 -10.8 -1.55 -12.6 -2.6 Q-13.75 -3.35 -14.6 -4.5 -14.05 -2.3 -13.0 -0.3 -12.15 1.35 -10.75 2.85 L-15.0 0.75 -14.4 3.0 -14.25 4.0 -16.55 2.5" fill="#000000" fill-rule="evenodd" stroke="none"/>
      <path d="M-10.0 -1.05 Q-11.95 -4.05 -13.4 -7.55 -15.25 -12.1 -15.6 -17.15 L-15.2 -18.1 -9.25 -8.85 -6.95 -12.15 -4.95 -8.4 -4.05 -6.6 -3.95 -4.8 Q-3.8 -2.2 -4.6 0.35 L-5.85 -1.5 -6.35 -2.05 -6.85 -2.5 -7.8 -3.0 -7.0 -0.75 -7.1 -0.9 Q-7.5 -1.25 -8.6 -1.65 L-9.4 -1.95 -8.75 -0.25 -10.0 -1.05" fill="#443729" fill-rule="evenodd" stroke="none"/>
      <path d="M-4.05 -6.6 L-2.75 -3.35 -2.05 -7.1 -0.5 -4.45 Q0.6 -2.45 1.3 -0.3 L3.45 -3.05 6.2 2.35 6.45 0.0 7.05 -0.25 8.5 1.25 8.75 6.5 5.15 4.2 5.65 5.8 5.3 5.55 3.65 5.0 2.0 4.6 3.35 7.65 -0.6 5.9 -2.95 5.1 -3.85 5.0 -2.0 7.55 -5.05 4.05 -5.6 3.5 -5.2 5.9 -8.85 3.0 -7.2 2.9 -10.0 -1.05 -8.75 -0.25 -9.4 -1.95 -8.6 -1.65 Q-7.5 -1.25 -7.1 -0.9 L-7.0 -0.75 -7.8 -3.0 -6.85 -2.5 -6.35 -2.05 -5.85 -1.5 -4.6 0.35 Q-3.8 -2.2 -3.95 -4.8 L-4.05 -6.6" fill="#8f5210" fill-rule="evenodd" stroke="none"/>
      <path d="M8.5 1.25 L15.25 9.15 16.5 10.8 Q6.35 17.1 -1.2 13.0 L-0.35 12.8 1.85 12.2 2.1 12.1 1.5 12.05 -0.45 11.5 -1.35 11.15 1.35 10.35 2.3 10.15 -2.0 7.55 -3.85 5.0 -2.95 5.1 -0.6 5.9 3.35 7.65 2.0 4.6 3.65 5.0 5.3 5.55 5.65 5.8 5.15 4.2 8.75 6.5 8.5 1.25" fill="#e97a00" fill-rule="evenodd" stroke="none"/>
      <path d="M-15.2 -18.1 L-9.25 -8.85 -6.95 -12.15 -4.95 -8.4 -4.05 -6.6 -2.75 -3.35 -2.05 -7.1 -0.5 -4.45 Q0.6 -2.45 1.3 -0.3 L3.45 -3.05 6.2 2.35 6.45 0.0 7.05 -0.25 8.5 1.25 15.0 8.85" ffdec:has-small-stroke="true" ffdec:original-stroke-width="0.7" fill="none" stroke="#3c1d00" stroke-linecap="round" stroke-linejoin="round" stroke-width="1.0"/>
      <path d="M18.55 13.3 Q15.4 15.55 11.65 16.75 6.7 18.45 1.45 18.05 -4.85 17.65 -10.1 14.15 L-10.25 14.05 -11.5 13.3 -16.2 10.5 -11.35 10.3 -17.35 4.65 -14.7 5.2 -18.55 -0.5 -15.85 0.3 Q-16.7 -1.9 -17.05 -4.05 -17.4 -6.15 -17.35 -8.25 -17.35 -10.75 -16.85 -13.2 -16.35 -15.8 -15.2 -18.1" ffdec:has-small-stroke="true" ffdec:original-stroke-width="0.7" fill="none" stroke="#000000" stroke-linecap="round" stroke-linejoin="round" stroke-width="1.0"/>
    </g>
    <g id="sprite1">
      <use ffdec:characterId="18" height="17.1" transform="matrix(1.0, 0.0, 0.0, 1.0, 0.0, 0.0)" width="26.7" xlink:href="#shape1"/>
    </g>
    <g id="shape1">
      <path d="M7.5 -8.0 L8.0 -7.55 Q10.3 -5.35 11.85 -2.05 L11.05 2.7 Q10.35 2.05 10.15 1.2 L9.95 0.25 8.25 4.2 7.7 3.5 5.7 7.3 5.4 7.85 4.95 7.9 5.95 3.15 7.5 -8.0 M-0.2 8.2 L-3.35 8.05 -3.8 8.05 -3.85 8.05 -4.2 8.0 -4.5 8.0 -5.95 7.75 -6.25 6.95 -7.35 4.45 -8.6 2.25 -9.0 3.7 -10.2 0.45 -10.7 2.2 -11.35 -2.6 -11.0 -3.2 Q-9.7 -5.35 -8.15 -6.95 L-7.15 -7.95 -6.85 -8.2 -4.8 -8.2 -4.6 -8.0 Q-3.2 -3.2 -2.1 1.75 L-0.75 6.4 -0.2 8.2" fill="#e97a00" fill-rule="evenodd" stroke="none"/>
      <path d="M4.95 7.9 L4.05 8.0 3.3 8.05 0.65 8.2 0.0 8.2 -0.2 8.2 -0.75 6.4 -2.1 1.75 Q-3.2 -3.2 -4.6 -8.0 L-4.8 -8.2 7.3 -8.2 7.5 -8.0 5.95 3.15 4.95 7.9" fill="#e5dace" fill-rule="evenodd" stroke="none"/>
      <path d="M11.85 -2.05 Q12.9 0.0 13.0 2.35 L12.8 3.5 Q12.1 5.8 9.75 6.65 7.6 7.55 5.4 7.85 L5.7 7.3 7.7 3.5 8.25 4.2 9.95 0.25 10.15 1.2 Q10.35 2.05 11.05 2.7 L11.85 -2.05 M-5.95 7.75 Q-8.3 7.3 -10.45 6.05 -12.95 4.65 -13.0 1.5 -12.85 -0.2 -11.35 -2.6 L-10.7 2.2 -10.2 0.45 -9.0 3.7 -8.6 2.25 -7.35 4.45 -6.25 6.95 -5.95 7.75" fill="#ae5b00" fill-rule="evenodd" stroke="none"/>
      <path d="M7.5 -8.0 L8.0 -7.55 Q10.3 -5.35 11.85 -2.05 12.9 0.0 13.0 2.35 L12.8 3.5 Q12.1 5.8 9.75 6.65 7.6 7.55 5.4 7.85 L4.95 7.9 4.05 8.0 3.3 8.05 0.65 8.2 0.0 8.2 -0.2 8.2 -3.35 8.05 -3.8 8.05 -3.85 8.05 -4.2 8.0 -4.5 8.0 -5.95 7.75 Q-8.3 7.3 -10.45 6.05 -12.95 4.65 -13.0 1.5 -12.85 -0.2 -11.35 -2.6 L-11.0 -3.2 Q-9.7 -5.35 -8.15 -6.95 L-7.15 -7.95 -6.85 -8.2 M7.3 -8.2 L7.5 -8.0" ffdec:has-small-stroke="true" ffdec:original-stroke-width="0.7" fill="none" stroke="#3c1d00" stroke-linecap="round" stroke-linejoin="round" stroke-width="1.0"/>
    </g>
    <g id="sprite2">
      <use ffdec:characterId="3" height="14.25" transform="matrix(1.0, 0.0, 0.0, 1.0, 0.0, 0.0)" width="8.55" xlink:href="#shape2"/>
    </g>
    <g id="shape2">
      <path d="M-1.4 5.75 L-3.8 -6.6 3.4 -5.95 3.75 5.7 2.45 6.45 -0.25 6.3 -1.4 5.75 Z" fill="none" stroke="#000000" stroke-linecap="round" stroke-linejoin="round" stroke-width="1.0"/>
      <path d="M1.15 -6.15 L3.4 -5.95 3.55 -1.4 2.15 0.35 2.05 0.55 2.0 0.6 1.15 -6.15 M-2.65 -0.75 L-3.8 -6.6 -2.75 -6.5 -1.8 0.0 -2.35 -0.5 -2.65 -0.75" fill="#ae5b00" fill-rule="evenodd" stroke="none"/>
      <path d="M-2.75 -6.5 L1.15 -6.15 2.0 0.6 1.1 -0.95 0.3 0.8 -0.5 -0.4 -1.05 1.2 -1.8 0.0 -2.75 -6.5" fill="#e97a00" fill-rule="evenodd" stroke="none"/>
      <path d="M2.45 6.45 L-0.25 6.3 -1.8 0.0 -1.05 1.2 -0.5 -0.4 0.3 0.8 1.1 -0.95 2.0 0.6 2.05 0.55 2.45 6.45" fill="#4c2c0a" fill-rule="evenodd" stroke="none"/>
      <path d="M3.55 -1.4 L3.75 5.7 2.45 6.45 2.05 0.55 2.15 0.35 3.55 -1.4 M-0.25 6.3 L-1.4 5.75 -2.65 -0.75 -2.35 -0.5 -1.8 0.0 -0.25 6.3" fill="#000000" fill-rule="evenodd" stroke="none"/>
    </g>
    <g id="sprite3">
      <use ffdec:characterId="5" height="10.25" transform="matrix(1.0, 0.0, 0.0, 1.0, 0.0, 0.0)" width="19.85" xlink:href="#shape3"/>
    </g>
    <g id="shape3">
      <path d="M5.75 -4.35 L7.1 -4.6 9.45 -1.9 7.95 -1.05 8.45 2.1 4.85 1.15 4.65 3.7 1.8 3.6 -0.1 4.65 -1.7 3.5 -4.65 3.65 -4.85 1.3 -8.4 2.1 -7.9 -1.05 -9.4 -1.9 -7.05 -4.6 -5.0 -4.2 -6.9 -2.05 -4.7 -1.9 -5.35 0.35 -3.4 -1.6 -1.9 1.7 -1.0 -0.35 0.3 2.7 1.35 -0.85 3.4 0.2 3.1 -1.25 5.6 -1.4 4.85 -2.55 6.45 -3.0 5.75 -4.35" fill="#e5dace" fill-rule="evenodd" stroke="none"/>
      <path d="M-5.0 -4.2 L-3.55 -3.95 Q-0.95 -3.45 3.6 -3.95 L5.75 -4.35 6.45 -3.0 4.85 -2.55 5.6 -1.4 3.1 -1.25 3.4 0.2 1.35 -0.85 0.3 2.7 -1.0 -0.35 -1.9 1.7 -3.4 -1.6 -5.35 0.35 -4.7 -1.9 -6.9 -2.05 -5.0 -4.2" fill="#ffffff" fill-rule="evenodd" stroke="none"/>
      <path d="M7.1 -4.6 L9.45 -1.9 7.95 -1.05 8.45 2.1 4.85 1.15 4.65 3.7 1.8 3.6 -0.1 4.65 -1.7 3.5 -4.65 3.65 -4.85 1.3 -8.4 2.1 -7.9 -1.05 -9.4 -1.9 -7.05 -4.6" fill="none" stroke="#674c31" stroke-linecap="round" stroke-linejoin="round" stroke-width="1.0"/>
    </g>
  </defs>
</svg>
