<?xml version="1.0" encoding="UTF-8" standalone="no"?>
<svg xmlns:ffdec="https://www.free-decompiler.com/flash" xmlns:xlink="http://www.w3.org/1999/xlink" ffdec:objectType="frame" height="18.9px" width="36.55px" xmlns="http://www.w3.org/2000/svg">
  <g transform="matrix(1.0, 0.0, 0.0, 1.0, 14.05, -12.85)">
    <use ffdec:characterId="9" height="18.9" transform="matrix(1.0, 0.0, 0.0, 1.0, 0.0, 0.0)" width="36.55" xlink:href="#shape0"/>
  </g>
  <defs>
    <g id="shape0">
      <path d="M19.7 13.25 L19.7 13.3 19.6 13.25 19.7 13.25 M16.8 15.4 L18.4 14.4 Q18.75 14.35 18.75 14.7 L18.15 15.55 18.65 15.55 18.0 16.1 19.05 16.05 19.05 16.1 17.95 17.25 16.55 20.3 15.8 21.9 16.05 20.15 16.2 17.95 Q16.2 17.45 16.35 16.9 L16.65 15.85 16.8 15.4 M16.85 23.3 Q16.65 23.9 15.65 24.8 L14.0 25.95 13.3 26.2 12.0 26.55 11.95 26.55 13.25 26.05 14.75 25.2 15.05 25.05 15.1 25.05 Q15.7 25.05 16.85 23.3 M11.85 26.55 L11.8 26.6 Q11.25 26.95 10.75 26.9 L10.65 26.9 8.25 26.85 6.4 26.45 4.9 25.25 4.55 24.95 5.7 25.65 Q8.0 26.8 9.9 26.8 L11.85 26.55 M4.1 24.6 L3.4 24.05 Q2.65 23.55 2.95 22.7 L2.7 22.0 2.2 21.3 3.1 21.2 2.95 20.6 Q3.1 19.95 3.65 20.25 4.15 20.35 4.1 20.8 L3.95 20.75 Q3.5 20.75 3.5 20.95 L3.55 21.2 Q3.25 21.1 3.25 21.6 L3.45 22.0 3.65 22.3 3.6 22.85 Q3.25 22.85 3.25 23.1 3.25 23.85 4.1 24.6 M7.05 23.35 L8.85 24.0 10.3 24.05 10.8 24.05 11.95 23.95 12.4 23.95 13.0 23.8 13.2 23.8 13.35 23.8 13.7 23.8 13.4 24.4 13.45 24.45 Q11.8 25.35 9.45 25.35 7.8 25.35 5.9 24.4 4.8 23.9 4.55 23.65 L4.45 23.45 4.4 23.3 4.4 23.15 4.45 22.85 Q4.55 22.45 4.85 22.35 L5.5 22.9 6.8 23.65 7.2 23.6 7.2 23.45 7.05 23.35 M14.45 22.85 L14.8 22.25 14.5 22.75 14.45 22.85 M15.1 21.05 L15.1 19.2 15.25 17.4 15.65 16.15 Q15.9 15.55 16.6 14.85 L16.75 14.7 16.55 15.1 Q15.95 15.7 15.7 16.55 15.4 17.35 15.25 19.1 L15.1 21.05 M17.5 14.05 L17.6 14.0 17.5 14.05" fill="#333333" fill-rule="evenodd" stroke="none"/>
      <path d="M19.15 16.2 L18.6 17.3 19.25 16.85 19.25 16.8 19.65 16.55 21.8 15.3 Q21.95 15.2 22.05 15.15 L21.2 15.9 Q20.75 16.2 20.05 16.65 L20.0 16.7 Q18.95 17.35 18.65 18.0 L18.6 18.05 18.5 18.3 Q18.5 18.85 16.95 23.0 L16.95 23.15 16.85 23.3 Q15.7 25.05 15.1 25.05 L15.05 25.05 14.75 25.2 13.25 26.05 11.95 26.55 11.85 26.55 9.9 26.8 Q8.0 26.8 5.7 25.65 L4.55 24.95 4.1 24.6 Q3.25 23.85 3.25 23.1 3.25 22.85 3.6 22.85 L3.65 22.3 3.45 22.0 3.25 21.6 Q3.25 21.1 3.55 21.2 L3.5 20.95 Q3.5 20.75 3.95 20.75 L4.1 20.8 5.05 21.75 5.9 22.3 7.15 23.25 7.05 23.35 7.2 23.45 7.2 23.6 6.8 23.65 5.5 22.9 4.85 22.35 Q4.55 22.45 4.45 22.85 L4.4 23.15 4.4 23.3 4.45 23.45 4.55 23.65 Q4.8 23.9 5.9 24.4 7.8 25.35 9.45 25.35 11.8 25.35 13.45 24.45 L13.4 24.4 13.7 23.8 13.35 23.8 13.2 23.8 13.05 23.75 14.4 22.85 14.45 22.85 14.5 22.75 14.8 22.25 15.0 21.65 15.1 21.05 15.25 19.1 Q15.4 17.35 15.7 16.55 15.95 15.7 16.55 15.1 L16.75 14.7 17.5 14.05 17.6 14.0 18.0 13.85 18.05 13.95 18.0 13.95 Q17.35 14.4 16.8 15.4 L16.75 15.4 16.8 15.4 16.65 15.85 16.35 16.9 Q16.2 17.45 16.2 17.95 L16.05 20.15 15.8 21.9 16.55 20.3 17.95 17.25 19.05 16.1 19.15 16.2" fill="#1e1e1e" fill-rule="evenodd" stroke="none"/>
      <path d="M19.7 13.3 Q20.45 13.9 20.35 14.65 L20.35 14.85 19.95 15.55 19.8 15.75 19.15 16.2 19.05 16.1 19.05 16.05 18.0 16.1 18.65 15.55 18.15 15.55 18.75 14.7 Q18.75 14.35 18.4 14.4 L16.8 15.4 16.75 15.4 16.8 15.4 Q17.35 14.4 18.0 13.95 L18.05 13.95 18.0 13.85 18.0 13.7 Q18.0 13.5 18.35 13.35 L19.15 13.15 19.6 13.25 19.7 13.3" fill="#cccccc" fill-rule="evenodd" stroke="none"/>
      <path d="M21.2 15.9 L20.0 16.7 20.05 16.65 Q20.75 16.2 21.2 15.9" fill="#705543" fill-rule="evenodd" stroke="none"/>
      <path d="M19.15 16.2 L19.8 15.75 19.95 15.55 20.35 14.85 20.35 14.65 Q20.45 13.9 19.7 13.3 L19.7 13.25 Q19.5 13.0 20.05 13.2 L20.1 13.25 Q20.15 12.55 21.2 13.15 22.3 13.7 22.3 14.45 L21.8 15.3 19.65 16.55 19.25 16.8 19.25 16.85 18.6 17.3 19.15 16.2" fill="#a2a2a2" fill-rule="evenodd" stroke="none"/>
      <path d="M21.75 14.6 Q21.75 13.45 20.4 13.45 19.3 13.45 18.2 13.95 17.6 14.2 17.35 14.45 16.45 15.15 15.95 16.2 L15.6 17.55 15.3 20.6 15.15 22.0 14.55 22.95 13.5 23.65 11.95 24.25 9.3 24.2 7.75 23.75 Q6.5 23.3 5.55 22.55 3.85 21.15 3.25 19.0 2.85 17.65 3.1 17.65 L3.4 18.4 4.0 19.6 4.9 21.25 6.35 22.55 7.9 23.35 8.9 23.75 9.9 23.8 11.35 23.85 13.1 23.45 Q13.9 23.1 14.25 22.1 L14.65 20.6 14.85 18.7 15.15 17.15 15.5 16.15 15.55 16.0 15.6 15.9 15.9 15.4 16.1 15.05 16.5 14.55 Q16.95 14.15 17.35 13.85 L17.4 13.8 Q18.85 12.85 20.3 12.85 22.5 12.85 22.5 14.6 22.5 15.7 21.6 16.1 L21.15 16.25 20.7 16.45 20.1 16.8 Q19.4 17.5 19.0 18.4 L18.2 20.7 17.7 22.5 16.85 23.95 15.6 25.2 Q14.8 25.95 13.65 26.4 L12.45 26.9 10.5 27.3 9.65 27.35 7.8 27.15 Q6.6 26.9 5.5 26.3 L4.5 25.45 3.25 24.1 1.8 22.1 Q0.8 20.45 1.35 18.65 L1.6 20.05 2.3 22.0 3.0 23.15 4.1 24.5 4.95 25.15 6.9 26.3 8.65 26.8 11.55 26.65 12.7 26.2 14.6 25.25 15.85 24.25 16.6 23.1 17.1 21.6 17.55 19.7 18.0 18.2 Q18.65 16.5 20.45 15.95 L21.15 15.55 21.2 15.5 Q21.75 15.15 21.75 14.6" fill="#000000" fill-rule="evenodd" stroke="none"/>
      <path d="M12.75 25.35 L12.65 25.55 12.6 25.9 12.55 26.1 12.5 26.15 12.45 26.25 12.4 26.35 12.35 26.4 12.35 26.45 12.25 26.55 12.25 26.45 12.2 26.3 12.2 26.25 12.15 26.0 12.15 25.9 12.1 25.6 12.15 25.45 Q12.25 25.15 12.45 25.15 L12.5 25.15 12.55 25.15 12.6 25.15 12.65 25.2 12.7 25.2 12.75 25.35 M10.85 26.0 L11.1 26.6 11.2 26.85 10.85 26.7 10.3 26.35 10.1 26.05 10.85 26.0 M-12.45 25.35 L-12.5 25.5 -12.6 26.25 Q-12.9 26.05 -12.9 25.25 L-12.8 25.0 -12.45 25.3 -12.45 25.35 M-11.25 26.75 L-11.25 26.45 -11.1 26.2 Q-10.75 25.8 -10.75 26.35 L-11.0 26.9 -11.25 27.25 -11.25 26.75" fill="#cccccc" fill-rule="evenodd" stroke="none"/>
      <path d="M12.75 25.35 L12.7 25.2 12.65 25.2 12.6 25.15 12.55 25.15 12.5 25.15 12.45 25.15 Q12.25 25.15 12.15 25.45 L12.1 25.6 12.15 25.9 12.15 26.0 12.2 26.25 12.2 26.3 12.25 26.45 12.25 26.55 12.35 26.45 12.35 26.4 12.4 26.35 12.45 26.25 12.5 26.15 12.55 26.1 12.6 25.9 12.65 25.55 12.75 25.35 M13.1 25.35 L12.55 26.8 12.2 27.05 12.2 27.0 12.15 26.85 12.1 26.75 12.05 26.55 12.0 26.3 11.95 26.2 11.95 26.1 11.95 26.0 11.95 25.8 11.95 25.55 12.0 25.3 12.1 25.1 12.1 25.05 Q12.5 24.7 12.7 24.8 L12.95 24.85 13.1 25.35 M10.85 26.0 L11.6 27.0 11.55 27.15 11.35 27.15 10.4 26.65 9.75 25.95 Q9.75 25.0 10.7 25.85 L10.85 26.0 10.1 26.05 10.3 26.35 10.85 26.7 11.2 26.85 11.1 26.6 10.85 26.0 M-12.3 24.65 L-12.45 26.25 -12.65 26.45 Q-13.1 26.45 -13.1 25.4 -13.1 24.55 -12.7 24.35 -12.3 24.2 -12.3 24.65 M-10.45 25.95 L-10.7 26.85 Q-11.0 27.65 -11.2 27.65 L-11.45 27.15 -11.3 26.2 Q-11.1 25.45 -10.8 25.45 -10.45 25.45 -10.45 25.95 M-12.45 25.35 L-12.45 25.3 -12.8 25.0 -12.9 25.25 Q-12.9 26.05 -12.6 26.25 L-12.5 25.5 -12.45 25.35 M-11.25 26.75 L-11.25 27.25 -11.0 26.9 -10.75 26.35 Q-10.75 25.8 -11.1 26.2 L-11.25 26.45 -11.25 26.75" fill="#000000" fill-rule="evenodd" stroke="none"/>
      <path d="M2.95 14.9 L3.0 14.8 3.35 14.85 3.45 14.85 4.15 15.0 5.0 15.15 5.75 15.85 Q6.2 16.05 6.55 16.4 L7.25 17.1 8.2 18.05 8.3 18.1 9.0 18.8 9.35 19.05 9.4 19.1 9.3 19.1 9.45 19.25 9.0 19.25 Q8.85 19.25 8.85 19.35 5.8 16.85 4.2 15.7 L4.05 15.6 2.95 15.35 -0.1 15.35 -3.65 15.3 Q-4.9 15.6 -6.0 16.6 -7.1 17.5 -7.6 18.5 L-8.1 19.7 -8.6 19.4 -8.65 19.3 -8.15 18.5 -8.1 18.45 -7.25 17.2 Q-6.9 16.55 -5.4 15.95 L-4.7 15.35 -3.85 15.15 -3.8 15.15 -3.2 14.9 -1.5 14.8 -0.25 14.9 -0.55 14.95 -0.05 14.95 0.25 14.95 0.35 14.95 2.35 15.0 2.35 14.95 2.9 14.95 2.95 14.9 M13.8 22.05 L14.0 22.25 13.75 22.55 13.65 22.55 12.95 22.15 12.55 21.65 12.7 21.45 13.45 21.8 13.8 22.05 M13.5 23.8 L13.45 24.1 13.35 24.5 12.95 25.0 12.25 25.55 11.7 25.75 11.2 25.75 10.95 26.0 10.05 26.1 10.0 26.1 9.4 26.0 9.2 26.0 Q8.05 25.65 7.45 24.3 L7.05 22.45 6.75 21.75 7.1 21.2 6.8 21.45 6.7 21.4 6.6 21.5 5.55 20.45 Q4.25 19.45 4.05 18.9 L4.0 18.9 3.9 20.1 3.9 20.15 3.55 21.4 4.0 23.05 4.05 23.95 Q3.9 24.2 3.9 24.55 L4.05 25.0 4.2 25.15 4.2 25.35 4.05 25.8 3.75 25.75 3.5 25.75 3.3 24.8 2.8 21.95 2.6 22.1 2.5 22.2 2.2 22.5 1.9 23.05 1.8 23.45 1.7 24.05 1.7 24.25 2.4 26.4 2.25 26.7 2.2 27.0 Q2.05 28.55 4.0 29.05 L5.65 29.15 5.7 29.05 5.8 29.45 5.85 29.55 5.9 29.6 6.05 29.85 Q6.6 30.5 7.6 30.5 L8.15 30.25 8.25 29.85 8.2 29.85 Q8.1 29.2 7.2 28.55 L7.25 28.55 7.4 28.55 7.7 28.55 7.85 28.65 8.15 28.85 8.6 29.0 9.15 29.1 9.85 28.65 9.8 28.5 9.9 28.4 10.0 28.4 10.05 28.45 10.05 28.55 10.05 28.8 Q10.0 29.9 9.35 30.25 L9.3 30.25 9.25 30.3 9.15 30.35 9.1 30.35 8.8 30.5 8.65 30.8 8.2 31.35 7.55 31.45 6.95 31.35 Q6.55 31.25 6.25 31.0 L5.65 30.5 5.1 30.3 3.8 29.75 Q2.85 29.3 2.35 28.7 L2.2 28.5 1.95 27.85 2.05 27.35 1.9 27.6 1.15 25.35 Q0.8 24.4 0.75 23.6 L0.75 23.55 1.0 22.9 0.75 22.9 0.4 22.9 -0.45 22.85 -0.75 22.85 -0.65 23.05 -0.45 23.4 Q-0.55 24.45 -1.5 27.2 L-1.65 28.2 -2.05 29.1 Q-2.4 29.5 -3.4 29.85 L-4.9 30.25 Q-5.5 31.05 -6.3 31.35 L-7.2 31.5 -8.05 31.35 -8.45 31.05 -8.85 30.4 -9.6 29.65 -9.9 29.15 -9.7 28.55 -9.7 28.6 -9.75 28.85 -7.85 28.75 -8.5 29.3 -8.65 30.05 -8.15 30.55 Q-6.5 30.75 -5.65 29.3 -3.25 29.9 -2.4 27.7 -2.2 27.2 -2.35 26.75 L-1.35 24.1 -1.25 23.25 Q-1.25 22.95 -1.55 22.6 L-1.8 22.3 -2.0 22.1 -2.1 21.95 -2.05 21.95 Q-1.6 22.3 -0.35 22.3 L1.05 22.15 1.35 22.0 1.55 21.9 2.15 21.5 2.8 20.8 2.8 20.75 3.15 19.95 3.4 18.55 3.25 17.55 3.15 16.95 4.2 18.2 Q6.0 20.2 6.9 20.2 L7.1 20.2 7.4 20.2 7.95 20.15 7.35 20.95 Q6.8 22.8 8.2 24.2 9.25 25.25 10.35 25.0 L10.7 24.8 10.85 24.65 11.1 24.1 10.95 23.7 10.8 23.4 10.7 23.3 10.75 23.35 10.9 23.45 11.3 23.75 Q11.85 24.25 12.65 24.25 13.3 24.25 13.5 23.8 M9.75 26.9 L9.75 26.95 9.85 27.05 9.95 27.3 10.05 27.85 10.05 28.15 9.75 28.05 8.9 27.8 8.5 27.75 8.35 27.7 8.5 27.7 8.25 27.65 9.35 27.35 9.55 27.15 9.75 26.9 M-9.6 28.3 L-9.6 28.2 -9.75 27.75 Q-9.75 27.3 -9.25 27.1 -9.5 27.8 -8.6 27.75 L-8.5 27.75 Q-9.2 27.85 -9.6 28.3 M-8.15 26.9 L-8.2 26.75 -7.9 26.7 -7.85 26.7 -7.05 26.4 -5.8 26.05 Q-5.1 25.75 -4.65 25.6 L-4.3 25.55 -4.3 25.4 -4.05 25.15 -3.6 23.1 -3.4 21.4 -3.5 20.45 -3.7 19.85 -3.7 19.2 -3.75 19.05 -4.3 19.65 -4.65 19.95 -5.15 20.4 -6.9 21.65 -6.9 21.85 Q-6.9 22.95 -7.65 24.45 -8.6 26.35 -10.05 26.35 -10.8 26.35 -11.7 25.25 L-12.2 25.4 Q-13.1 25.4 -13.55 24.7 L-13.85 23.6 -13.85 23.4 -13.4 22.55 -13.35 23.65 -13.3 23.75 -12.8 24.15 -12.65 24.3 -12.1 24.35 -11.35 24.0 -11.05 23.75 -11.3 24.3 -11.25 24.8 -11.15 25.1 Q-9.5 25.9 -8.45 24.0 -7.4 22.05 -8.0 20.25 L-7.9 20.5 -7.3 20.6 -5.45 18.5 -4.3 17.05 Q-3.75 16.5 -3.25 16.35 L-3.3 16.55 -3.45 17.1 -3.55 18.3 -3.5 18.7 -3.55 18.85 Q-3.25 21.3 -2.2 21.9 L-2.35 22.05 -3.45 26.0 -3.5 26.0 -4.65 26.15 -5.8 26.4 -7.05 26.9 -7.5 27.05 -7.75 27.1 -7.75 27.05 -7.9 27.1 -8.1 27.0 -8.15 26.9 M-13.8 22.75 L-13.5 21.3 -13.25 21.55 Q-12.6 21.5 -13.05 21.9 L-13.8 22.75 M3.5 15.3 L3.4 15.3 3.55 15.35 3.5 15.3 M7.9 28.85 L7.6 28.65 7.75 28.8 7.9 28.85 M8.6 29.7 L8.65 29.75 8.75 29.85 Q8.95 29.8 9.0 30.0 L9.05 30.0 8.6 29.55 8.6 29.7 M3.85 25.05 L3.75 24.7 3.85 25.05 M-3.75 17.5 L-3.7 17.3 -3.75 17.4 -3.75 17.5 M-7.15 28.45 L-7.15 28.4 -7.05 28.4 -7.15 28.45" fill="#1e1e1e" fill-rule="evenodd" stroke="none"/>
      <path d="M9.4 19.1 L9.5 19.05 9.6 19.05 11.15 19.35 12.65 20.2 13.5 21.1 13.8 22.0 13.8 22.05 13.45 21.8 12.7 21.45 12.55 21.65 12.95 22.15 13.65 22.55 13.75 22.55 13.55 23.5 13.5 23.8 Q13.3 24.25 12.65 24.25 11.85 24.25 11.3 23.75 L10.9 23.45 10.75 23.35 10.7 23.3 10.8 23.4 10.95 23.7 11.1 24.1 10.85 24.65 10.7 24.8 10.35 25.0 Q9.25 25.25 8.2 24.2 6.8 22.8 7.35 20.95 L7.95 20.15 7.4 20.2 7.1 20.2 6.9 20.2 Q6.0 20.2 4.2 18.2 L3.15 16.95 3.25 17.55 3.4 18.55 3.15 19.95 2.8 20.75 2.8 20.8 2.15 21.5 1.55 21.9 1.35 22.0 1.05 22.15 -0.35 22.3 Q-1.6 22.3 -2.05 21.95 L-2.1 21.95 -2.0 22.1 -1.8 22.3 -1.55 22.6 Q-1.25 22.95 -1.25 23.25 L-1.35 24.1 -2.35 26.75 Q-2.2 27.2 -2.4 27.7 -3.25 29.9 -5.65 29.3 -6.5 30.75 -8.15 30.55 L-8.65 30.05 -8.5 29.3 -7.85 28.75 -9.75 28.85 -9.7 28.6 -9.7 28.55 -9.65 28.4 -9.6 28.3 Q-9.2 27.85 -8.5 27.75 L-8.6 27.75 Q-9.5 27.8 -9.25 27.1 L-9.05 27.05 -8.15 26.9 -8.1 27.0 -7.9 27.1 -7.75 27.05 -7.75 27.1 -7.5 27.05 -7.05 26.9 -5.8 26.4 -4.65 26.15 -3.5 26.0 -3.45 26.0 -2.35 22.05 -2.2 21.9 Q-3.25 21.3 -3.55 18.85 L-3.5 18.7 -3.55 18.3 -3.45 17.1 -3.3 16.55 -3.25 16.35 Q-3.75 16.5 -4.3 17.05 L-5.45 18.5 -7.3 20.6 -7.9 20.5 -8.0 20.25 Q-7.4 22.05 -8.45 24.0 -9.5 25.9 -11.15 25.1 L-11.25 24.8 -11.3 24.3 -11.05 23.75 -11.35 24.0 -12.1 24.35 -12.65 24.3 -12.8 24.15 -13.3 23.75 -13.35 23.65 -13.4 22.55 -13.85 23.4 -13.8 22.75 -13.05 21.9 Q-12.6 21.5 -13.25 21.55 L-13.5 21.3 -13.25 20.7 -12.3 20.15 -11.1 19.45 -10.9 19.4 -10.35 19.35 -8.85 19.55 -8.65 19.3 -8.6 19.4 -8.1 19.7 -7.6 18.5 Q-7.1 17.5 -6.0 16.6 -4.9 15.6 -3.65 15.3 L-0.1 15.35 2.95 15.35 4.05 15.6 4.2 15.7 Q5.8 16.85 8.85 19.35 8.85 19.25 9.0 19.25 L9.45 19.25 9.3 19.1 9.4 19.1 M6.75 21.75 L6.6 21.5 6.7 21.4 6.8 21.45 7.1 21.2 6.75 21.75 M4.2 25.15 L4.8 25.4 5.35 25.75 7.6 26.4 Q9.3 26.6 9.75 26.9 L9.55 27.15 9.35 27.35 8.25 27.65 8.5 27.7 8.35 27.7 8.5 27.75 8.9 27.8 9.75 28.05 10.05 28.15 10.05 28.45 10.0 28.4 9.9 28.4 9.8 28.5 9.85 28.65 9.15 29.1 8.6 29.0 8.15 28.85 7.85 28.65 7.7 28.55 7.4 28.55 7.25 28.55 7.2 28.55 Q8.1 29.2 8.2 29.85 L8.25 29.85 8.15 30.25 7.6 30.5 Q6.6 30.5 6.05 29.85 L5.9 29.6 5.85 29.55 5.8 29.45 5.7 29.05 5.65 29.15 4.0 29.05 Q2.05 28.55 2.2 27.0 L2.25 26.7 2.4 26.4 1.7 24.25 1.7 24.05 1.8 23.45 1.9 23.05 2.2 22.5 2.5 22.2 2.6 22.1 2.8 21.95 3.3 24.8 3.5 25.75 3.75 25.75 4.05 25.8 4.2 25.35 4.2 25.15 M1.95 27.85 L1.9 27.7 1.9 27.6 2.05 27.35 1.95 27.85 M0.75 23.55 L0.75 22.9 1.0 22.9 0.75 23.55 M-0.45 22.85 L-0.45 23.2 -0.45 23.4 -0.65 23.05 -0.75 22.85 -0.45 22.85 M-0.25 14.9 L-0.05 14.95 -0.55 14.95 -0.25 14.9 M0.35 14.95 L2.1 14.9 2.95 14.9 2.9 14.95 2.35 14.95 2.35 15.0 0.35 14.95 M3.5 15.3 L3.55 15.35 3.4 15.3 3.5 15.3 M-7.15 28.45 L-7.05 28.4 -7.15 28.4 -7.15 28.45 M-3.75 17.5 L-3.75 17.4 -3.7 17.3 -3.75 17.5 M3.85 25.05 L3.75 24.7 3.85 25.05 M8.6 29.7 L8.6 29.55 9.05 30.0 9.0 30.0 Q8.95 29.8 8.75 29.85 L8.65 29.75 8.6 29.7 M7.9 28.85 L7.75 28.8 7.6 28.65 7.9 28.85" fill="#333333" fill-rule="evenodd" stroke="none"/>
      <path d="M0.7 15.35 L0.95 15.35 1.5 16.05 1.55 16.1 Q2.0 16.95 1.95 18.2 1.85 19.45 1.2 20.3 0.6 21.1 -0.2 21.05 -1.0 21.0 -1.55 20.1 -2.1 19.25 -2.0 18.0 -1.95 16.95 -1.5 16.15 L-1.35 15.85 -0.8 15.3 -0.5 15.35 -0.95 15.8 -1.2 16.25 -1.45 17.35 Q-1.5 18.25 -1.15 19.0 L-0.15 19.7 Q0.45 19.7 0.95 19.1 1.45 18.45 1.5 17.5 1.55 16.75 1.25 16.15 L1.1 15.9 0.7 15.35" fill="#4d7a38" fill-rule="evenodd" stroke="none"/>
      <path d="M-0.5 15.35 L0.7 15.35 1.1 15.9 1.25 16.15 Q1.55 16.75 1.5 17.5 1.45 18.45 0.95 19.1 0.45 19.7 -0.15 19.7 L-1.15 19.0 Q-1.5 18.25 -1.45 17.35 L-1.2 16.25 -0.95 15.8 -0.5 15.35" fill="#86bc6d" fill-rule="evenodd" stroke="none"/>
      <path d="M6.1 16.4 L4.55 15.15 4.5 15.15 4.15 15.05 4.0 15.05 -3.45 15.05 -4.1 15.25 -6.1 16.55 -8.25 18.8 -8.45 19.1 -8.6 19.3 Q-8.2 19.45 -8.05 19.85 L-8.4 19.7 -8.8 19.55 Q-10.7 19.55 -11.85 20.05 L-11.9 20.05 -12.3 20.3 -12.4 20.35 -12.7 20.6 -12.75 20.6 -13.1 21.0 -13.15 21.05 -13.55 21.95 -13.5 22.2 -13.15 21.75 -12.65 21.35 -12.5 21.25 Q-13.55 22.3 -13.55 23.4 L-13.5 23.6 -13.55 23.65 Q-13.25 24.95 -12.1 25.15 L-11.9 25.1 Q-11.65 24.0 -10.7 23.4 L-11.0 23.8 -11.2 24.5 -11.3 25.0 Q-11.3 26.0 -10.05 26.0 L-9.7 25.95 -9.2 25.7 Q-7.7 24.75 -7.15 22.95 -7.0 22.4 -7.15 22.05 L-7.35 21.35 -7.35 21.25 -7.4 21.15 -7.6 20.75 Q-7.55 20.6 -7.2 21.0 L-6.95 21.15 -5.25 20.0 -4.15 18.6 -3.8 17.7 -3.75 17.6 -3.0 22.1 -3.05 22.1 -3.15 22.35 -3.35 23.35 -3.9 25.8 -4.8 26.05 -7.5 26.85 -7.45 26.85 Q-7.8 26.9 -8.0 27.05 L-8.05 27.05 -8.6 27.1 -8.95 27.2 Q-9.7 27.35 -9.4 27.9 L-8.4 27.75 -8.35 27.8 -8.8 27.95 Q-9.95 28.3 -9.75 29.4 L-9.65 29.5 -9.0 29.75 -8.25 29.0 Q-7.4 28.4 -6.6 28.4 L-6.55 28.45 Q-7.7 28.75 -8.3 29.35 L-8.35 29.4 -8.6 30.2 Q-8.6 30.85 -7.9 31.05 L-7.25 31.15 Q-6.2 31.15 -5.3 30.25 L-5.15 30.15 -4.25 29.8 -3.65 29.65 -2.5 28.95 Q-2.05 28.55 -1.9 27.95 L-1.55 26.4 -1.0 24.65 Q-0.65 23.95 -0.85 23.35 L-1.05 22.8 -1.2 22.7 -1.6 22.4 -1.75 22.35 1.35 22.5 0.95 23.0 Q0.65 23.55 0.95 23.9 L1.35 24.85 1.9 26.55 2.4 28.05 3.15 29.1 Q3.7 29.55 4.5 29.8 L5.7 29.95 6.0 30.35 7.05 30.95 7.3 30.95 8.4 30.65 8.45 30.55 8.55 30.45 8.55 30.4 8.55 30.15 8.45 29.75 8.1 29.15 7.4 28.5 9.05 29.6 9.5 29.7 Q10.05 29.35 9.75 28.7 L9.35 28.2 Q8.75 27.85 7.55 27.85 L7.55 27.7 9.7 27.85 9.75 27.65 9.75 27.6 9.35 27.0 9.0 26.9 8.6 26.9 8.4 26.85 7.8 26.9 7.75 26.7 6.55 26.45 5.3 26.15 4.0 25.75 3.45 23.35 3.25 22.2 3.2 21.9 3.05 21.7 3.1 21.65 2.95 21.65 3.1 21.15 3.5 20.25 Q4.0 19.35 3.6 18.3 L3.35 17.4 4.0 18.45 4.05 18.5 4.05 18.55 4.1 18.65 Q5.05 20.3 6.8 21.1 L7.45 20.7 7.5 20.7 7.5 20.75 7.45 20.8 7.5 20.8 7.45 20.85 Q7.15 21.4 7.15 21.95 7.2 22.8 7.5 23.65 L8.1 24.75 Q8.55 25.35 9.3 25.65 L9.8 25.8 9.85 25.8 10.85 25.55 11.1 25.15 11.1 24.9 11.1 24.8 11.2 24.75 11.1 24.65 10.8 23.5 10.7 23.35 10.65 23.35 Q11.2 23.65 11.35 24.3 L11.75 25.05 11.85 25.05 12.2 25.1 Q12.75 25.1 13.1 24.7 L13.35 24.1 13.35 24.05 13.4 23.6 13.4 23.55 13.25 22.75 Q12.95 21.95 12.3 21.45 L12.0 21.2 11.85 21.1 12.45 21.25 12.7 21.45 13.45 22.4 13.7 22.15 Q13.7 21.65 12.95 21.0 L11.65 19.9 Q11.0 19.5 10.1 19.3 L8.7 19.25 Q9.05 19.2 8.8 18.85 L8.0 18.05 7.8 17.9 6.9 17.3 6.1 16.4 M6.85 16.45 L8.1 17.7 9.55 18.6 10.85 19.1 Q11.8 19.15 12.55 19.9 L13.35 20.65 Q14.0 21.4 14.15 22.35 L14.05 23.4 13.9 23.85 13.2 25.1 12.55 25.6 11.25 26.0 10.5 26.3 Q9.55 26.65 8.8 26.1 8.15 25.7 7.65 25.2 L6.85 23.85 Q6.5 23.05 6.6 22.15 L6.25 21.7 5.55 20.8 5.0 20.4 4.3 19.8 3.8 21.25 3.7 21.65 3.7 21.75 3.95 23.2 4.3 24.95 4.8 25.2 6.0 25.8 7.25 26.2 8.1 26.5 9.1 26.4 Q9.75 26.4 10.15 26.85 L10.45 27.4 Q10.45 27.9 10.1 28.1 10.45 28.45 10.45 29.05 10.45 29.8 9.8 30.05 L9.65 30.2 9.3 30.35 9.25 30.55 8.9 31.2 Q8.4 31.75 7.7 31.75 6.5 31.75 5.9 31.05 L5.9 31.0 5.5 30.7 Q4.7 30.35 4.0 30.15 1.6 29.75 1.3 27.65 L0.85 25.3 0.55 23.55 Q0.45 23.0 -0.1 23.0 L-0.2 23.05 -0.15 23.7 Q-1.05 25.1 -1.2 27.0 L-1.5 28.7 Q-1.75 29.5 -2.6 29.85 L-4.05 30.3 -4.7 30.5 -5.5 31.15 Q-6.45 31.75 -7.05 31.75 -9.0 31.75 -9.15 30.4 -9.75 30.4 -10.15 29.95 L-10.4 29.35 Q-10.4 28.45 -10.05 28.3 L-10.15 27.6 -9.95 27.05 -9.9 27.0 Q-9.6 26.45 -8.45 26.65 L-7.2 26.35 Q-6.05 26.05 -5.15 25.55 L-4.4 25.25 -3.9 23.55 -3.6 21.65 -3.65 21.4 -3.65 21.2 -3.9 20.0 -4.05 19.35 Q-4.8 20.45 -5.95 21.25 L-6.75 22.2 Q-6.55 24.9 -8.9 26.2 L-9.65 26.5 -9.7 26.5 -10.0 26.55 Q-11.1 26.55 -11.45 26.2 L-12.1 25.7 -13.0 25.25 -13.6 24.7 -14.05 23.25 -13.9 22.7 -13.95 22.15 -13.55 21.1 -13.5 21.0 -12.7 20.2 -11.85 19.7 -10.0 19.1 Q-9.0 19.0 -9.0 18.8 L-8.3 18.0 -8.25 17.95 -6.1 15.95 -5.25 15.3 -4.25 14.9 -4.05 14.85 -3.8 14.8 -2.95 14.7 0.35 14.75 0.55 14.75 4.55 14.8 4.95 14.95 4.9 14.95 5.85 15.55 6.85 16.45 M-7.1 21.35 L-7.1 21.25 -7.1 21.35" fill="#000000" fill-rule="evenodd" stroke="none"/>
    </g>
  </defs>
</svg>
