<?xml version="1.0" encoding="UTF-8" standalone="no"?>
<svg xmlns:ffdec="https://www.free-decompiler.com/flash" xmlns:xlink="http://www.w3.org/1999/xlink" ffdec:objectType="frame" height="60.45px" width="84.6px" xmlns="http://www.w3.org/2000/svg">
  <g transform="matrix(1.0, 0.0, 0.0, 1.0, 70.6, 23.2)">
    <use ffdec:characterId="12" height="6.55" transform="matrix(1.0, 0.0, 0.0, 1.0, 0.0, 23.4)" width="11.85" xlink:href="#sprite0"/>
    <use ffdec:characterId="30" height="5.0" transform="matrix(1.0, 0.0, 0.0, 1.0, 1.5, 26.95)" width="7.2" xlink:href="#sprite1"/>
    <use ffdec:characterId="30" height="5.0" transform="matrix(-1.0, 0.0, 0.0, 1.0, -2.0, 26.95)" width="7.2" xlink:href="#sprite1"/>
    <use ffdec:characterId="10" height="60.45" transform="matrix(1.0, 0.0, 0.0, 1.0, -34.15, 9.7)" width="62.55" xlink:href="#sprite2"/>
    <use ffdec:characterId="35" height="12.65" transform="matrix(1.0, 0.0, 0.0, 1.0, 0.45, 20.15)" width="28.7" xlink:href="#sprite6"/>
  </g>
  <defs>
    <g id="sprite0">
      <use ffdec:characterId="11" height="6.55" transform="matrix(1.0, 0.0, 0.0, 1.0, 0.0, 0.0)" width="11.85" xlink:href="#shape0"/>
    </g>
    <g id="shape0">
      <path d="M4.25 -3.05 L5.65 2.4 Q-0.5 3.65 -5.7 2.4 L-4.3 -3.05 4.25 -3.05" fill="#c20000" fill-rule="evenodd" stroke="none"/>
      <path d="M4.25 -3.05 L5.65 2.4 Q-0.5 3.65 -5.7 2.4 L-4.3 -3.05 4.25 -3.05 Z" ffdec:has-small-stroke="true" ffdec:original-stroke-width="0.5" fill="none" stroke="#6c0000" stroke-linecap="round" stroke-linejoin="round" stroke-width="1.0"/>
      <path d="M4.1 -0.8 L3.85 -0.2 3.4 0.3 2.6 0.05 2.1 -0.25 Q4.1 -1.6 4.1 -0.8 M1.95 -1.05 Q0.6 -0.35 -0.35 -0.25 -1.3 -0.2 -4.55 -1.85 L-4.3 -2.9 -2.45 -2.95 Q-1.65 -1.8 -0.6 -1.45 L1.4 -1.55 Q2.4 -2.1 2.85 -1.9 3.3 -1.75 1.95 -1.05" fill="#760000" fill-rule="evenodd" stroke="none"/>
      <path d="M2.25 -1.5 Q2.25 -0.65 0.4 0.3 -1.3 1.2 -2.25 1.2 L-3.5 1.15 -3.55 1.1 -3.55 1.0 -3.3 1.05 Q-2.1 1.05 0.0 -0.05 1.85 -1.0 2.25 -1.5" fill="#fbcce2" fill-rule="evenodd" stroke="none"/>
      <path d="M2.75 -2.85 Q3.3 -2.85 3.3 -2.5 3.3 -2.3 2.95 -2.3 L2.45 -2.35 2.4 -2.5 Q2.4 -2.85 2.75 -2.85" fill="#fbcce2" fill-rule="evenodd" stroke="none"/>
      <path d="M0.05 -1.5 Q-0.35 -1.5 -1.0 -2.55 L-1.0 -2.9 Q-0.7 -2.8 -0.35 -2.35 L0.2 -1.6 0.05 -1.5" fill="#fbcce2" fill-rule="evenodd" stroke="none"/>
      <path d="M0.5 -0.7 L1.7 0.15 Q2.85 0.8 4.25 0.8 L4.9 0.6 5.15 0.8 4.6 1.15 Q2.9 1.15 1.7 0.45 L0.5 -0.6 0.5 -0.7" fill="#fbcce2" fill-rule="evenodd" stroke="none"/>
      <path d="M4.15 -2.35 L4.6 0.5 Q4.6 2.2 3.65 2.4 L3.5 2.35 3.45 2.25 4.15 0.95 4.25 -0.5 4.2 -1.85 4.1 -2.2 4.15 -2.35" fill="#ccbfc5" fill-rule="evenodd" stroke="none"/>
      <path d="M-2.8 -1.4 L-2.75 -1.25 -3.35 -0.75 -4.25 -0.25 -4.5 -0.25 -4.55 -0.3 -2.8 -1.4" fill="#ccbfc5" fill-rule="evenodd" stroke="none"/>
    </g>
    <g id="sprite1">
      <use ffdec:characterId="29" height="5.0" transform="matrix(1.0, 0.0, 0.0, 1.0, 0.0, 0.0)" width="7.2" xlink:href="#shape1"/>
    </g>
    <g id="shape1">
      <path d="M5.8 -0.05 L5.55 1.05 Q5.25 1.7 5.5 2.45 L5.45 3.0 4.35 3.0 3.6 1.75 Q2.8 0.85 0.85 1.0 L0.8 0.9 Q1.2 0.5 2.3 0.5 L3.7 0.8 Q4.25 1.05 4.45 1.4 4.45 1.05 4.8 0.55 L5.45 -0.25 Q5.75 -0.55 5.8 -0.05" fill="#ff0000" fill-rule="evenodd" stroke="none"/>
      <path d="M7.2 3.3 Q6.1 4.65 4.55 4.65 1.7 4.65 0.6 3.45 L0.3 3.05 0.15 1.0 0.7 0.95 Q0.6 1.45 1.25 1.9 2.6 2.55 4.0 2.55 5.35 2.55 6.5 1.85 L7.35 1.2 7.35 3.1 7.2 3.3" fill="#211913" fill-rule="evenodd" stroke="none"/>
      <path d="M2.35 3.2 Q4.25 3.85 7.25 2.75 6.6 4.15 4.65 4.3 L2.1 3.95 Q0.1 3.2 0.4 1.85 0.45 2.55 2.35 3.2" fill="#161210" fill-rule="evenodd" stroke="none"/>
      <path d="M4.5 4.1 L3.75 3.9 3.7 3.5 3.95 3.1 4.75 2.95 6.25 2.6 Q6.5 2.6 6.5 3.1 6.5 4.1 4.5 4.1" fill="#4b4d53" fill-rule="evenodd" stroke="none"/>
    </g>
    <g id="sprite2">
      <use ffdec:characterId="7" height="40.95" transform="matrix(0.428, -0.9037, 0.9037, 0.428, -8.4, -2.5)" width="45.5" xlink:href="#sprite3"/>
      <use ffdec:characterId="7" height="40.95" transform="matrix(0.4195, -0.8857, 0.9037, 0.428, -8.6, -2.1)" width="45.5" xlink:href="#sprite4"/>
      <use ffdec:characterId="9" height="19.9" transform="matrix(0.428, -0.9037, 0.9037, 0.428, 16.3, 9.3)" width="3.85" xlink:href="#sprite5"/>
    </g>
    <g id="sprite3">
      <use ffdec:characterId="1" height="40.1" transform="matrix(1.0, 0.0, 0.0, 1.0, 0.0, 0.0)" width="45.5" xlink:href="#shape2"/>
      <clipPath id="clipPath0">
        <path d="M 0.1 -17.7 L -0.98 -17.68 L -2.05 -17.63 L -3.09 -17.54 L -4.12 -17.41 L -5.12 -17.25 L -6.11 -17.05 L -7.08 -16.81 L -7.55 -16.68 L -8.02 -16.54 L -8.49 -16.39 L -8.95 -16.23 L -9.41 -16.06 L -9.86 -15.88 L -10.31 -15.7 L -10.75 -15.5 L -11.19 -15.3 L -11.62 -15.08 L -12.05 -14.86 L -12.47 -14.63 L -12.89 -14.39 L -13.3 -14.14 L -13.71 -13.88 L -14.11 -13.61 L -14.51 -13.34 L -14.9 -13.05 L -15.62 -12.44 L -16.29 -11.82 L -16.92 -11.19 L -17.21 -10.87 L -17.5 -10.55 L -17.78 -10.22 L -18.04 -9.89 L -18.29 -9.56 L -18.54 -9.23 L -18.77 -8.89 L -18.99 -8.54 L -19.2 -8.2 L -19.4 -7.85 L -19.45 -7.85 L -19.64 -7.44 L -19.83 -7.03 L -19.99 -6.61 L -20.15 -6.19 L -20.29 -5.77 L -20.42 -5.34 L -20.54 -4.91 L -20.65 -4.47 L -20.74 -4.04 L -20.83 -3.59 L -20.89 -3.14 L -20.95 -2.69 L -20.99 -2.24 L -21.02 -1.78 L -21.04 -1.32 L -21.05 -0.85 L -20.85 1.6 L -20.73 2.39 L -20.57 3.17 L -20.38 3.94 L -20.16 4.7 L -19.9 5.44 L -19.61 6.18 L -19.29 6.89 L -18.94 7.6 L -18.55 8.29 L -18.13 8.98 L -17.67 9.64 L -17.18 10.3 L -16.66 10.94 L -16.11 11.57 L -15.52 12.19 L -14.9 12.8 L -14.46 13.19 L -14.02 13.57 L -13.57 13.94 L -13.11 14.29 L -12.65 14.62 L -12.19 14.95 L -11.72 15.26 L -11.25 15.55 L -10.47 15.31 L -9.7 15.08 L -8.93 14.87 L -8.16 14.68 L -7.4 14.5 L -6.65 14.33 L -5.9 14.18 L -5.15 14.05 L -4.41 13.93 L -3.67 13.83 L -2.94 13.75 L -2.21 13.68 L -1.49 13.62 L -0.77 13.58 L -0.06 13.56 L 0.65 13.55 L 1.35 13.56 L 2.05 13.58 L 2.75 13.62 L 3.44 13.68 L 4.12 13.75 L 4.8 13.83 L 5.48 13.93 L 6.15 14.05 L 6.82 14.18 L 7.48 14.33 L 8.14 14.5 L 8.79 14.68 L 9.44 14.87 L 10.08 15.08 L 10.72 15.31 L 11.35 15.55 L 11.82 15.26 L 12.29 14.95 L 12.75 14.62 L 13.2 14.29 L 13.65 13.94 L 14.09 13.57 L 14.52 13.19 L 14.95 12.8 L 15.59 12.19 L 16.19 11.57 L 16.76 10.94 L 17.3 10.3 L 17.8 9.64 L 18.26 8.98 L 18.69 8.29 L 19.09 7.6 L 19.45 6.89 L 19.77 6.18 L 20.07 5.44 L 20.32 4.7 L 20.54 3.94 L 20.73 3.17 L 20.88 2.39 L 21 1.6 L 21.1 -0.85 L 21.09 -1.32 L 21.08 -1.78 L 21.05 -2.24 L 21.01 -2.69 L 20.95 -3.14 L 20.89 -3.59 L 20.81 -4.04 L 20.73 -4.47 L 20.63 -4.91 L 20.51 -5.34 L 20.39 -5.77 L 20.26 -6.19 L 20.11 -6.61 L 19.95 -7.03 L 19.78 -7.44 L 19.6 -7.85 L 19.39 -8.2 L 19.18 -8.54 L 18.95 -8.89 L 18.71 -9.23 L 18.46 -9.56 L 18.2 -9.89 L 17.92 -10.22 L 17.64 -10.55 L 17.34 -10.87 L 17.03 -11.19 L 16.71 -11.51 L 16.38 -11.82 L 15.69 -12.44 L 14.95 -13.05 L 14.56 -13.34 L 14.17 -13.61 L 13.77 -13.88 L 13.37 -14.14 L 12.97 -14.39 L 12.55 -14.63 L 12.14 -14.86 L 11.72 -15.08 L 11.29 -15.3 L 10.86 -15.5 L 10.42 -15.7 L 9.98 -15.88 L 9.53 -16.06 L 9.08 -16.23 L 8.62 -16.39 L 8.16 -16.54 L 7.7 -16.68 L 7.22 -16.81 L 6.75 -16.93 L 6.27 -17.05 L 5.29 -17.25 L 4.29 -17.41 L 3.27 -17.54 L 2.24 -17.63 L 1.18 -17.68 L 0.1 -17.7 Z"/>
      </clipPath>
      <g clip-path="url(#clipPath0)">
        <use ffdec:characterId="3" height="37.0" transform="matrix(1.0, 0.0, 0.0, 1.0, 0.0, 0.0)" width="41.1" xlink:href="#shape3"/>
      </g>
      <clipPath id="clipPath1">
        <path d="M 4.58 -15.32 L 4.41 -15.31 L 4.26 -15.29 L 4.14 -15.25 L 4.05 -15.2 L 1.65 1.9 L 1.87 1.39 L 2.14 0.82 L 2.45 0.2 L 2.8 -0.48 L 3.2 -1.22 L 3.64 -2.01 L 4.66 -3.78 L 5.86 -5.76 L 7.23 -7.98 L 8.78 -10.43 L 10.5 -13.1 L 10.47 -13.19 L 10.42 -13.28 L 10.35 -13.37 L 10.26 -13.46 L 10.14 -13.55 L 10.01 -13.65 L 9.68 -13.84 L 9.26 -14.03 L 8.76 -14.23 L 8.17 -14.44 L 7.5 -14.65 L 6.55 -14.94 L 6.13 -15.06 L 5.75 -15.15 L 5.4 -15.22 L 5.09 -15.28 L 4.82 -15.31 L 4.58 -15.32 Z M -17.15 -6.6 L -17.34 -6.16 L -17.51 -5.71 L -17.67 -5.27 L -17.82 -4.82 L -17.96 -4.37 L -18.08 -3.92 L -18.19 -3.47 L -18.29 -3.03 L -18.37 -2.57 L -18.44 -2.12 L -18.5 -1.67 L -18.55 -1.22 L -18.58 -0.77 L -18.6 -0.31 L -18.61 0.14 L -18.6 0.6 L -9.3 1.95 L -17.15 -6.6 Z M -9.9 -13.22 L -10.05 -13.21 L -10.21 -13.19 L -10.37 -13.16 L -10.55 -13.12 L -10.91 -12.99 L -11.3 -12.81 L -11.72 -12.59 L -12.17 -12.31 L -12.65 -11.98 L -13.15 -11.6 L -13.58 -11.28 L -13.98 -10.96 L -14.34 -10.65 L -14.66 -10.34 L -14.95 -10.03 L -15.2 -9.73 L -15.42 -9.44 L -15.6 -9.15 L -14.45 -7.65 L -4.85 4.05 L -9.65 -13.2 L -9.77 -13.22 L -9.9 -13.22 Z M -0.6 -15.6 L -1.52 -15.55 L -2.4 -15.47 L -3.24 -15.35 L -4.05 -15.21 L -4.82 -15.04 L -5.55 -14.84 L -6.24 -14.61 L -6.58 -14.48 L -6.9 -14.35 L -5.68 -10.38 L -4.61 -6.83 L -3.67 -3.71 L -2.88 -1.01 L -2.22 1.26 L -1.71 3.1 L -1.33 4.51 L -1.1 5.5 L -0.9 4 L -0.79 3.29 L -0.68 2.51 L -0.46 0.75 L -0.25 -1.29 L -0.05 -3.6 L 0.05 -4.95 L 0.16 -6.34 L 0.3 -7.77 L 0.45 -9.23 L 0.62 -10.72 L 0.81 -12.24 L 1.02 -13.8 L 1.25 -15.4 L -0.6 -15.6 Z"/>
      </clipPath>
      <g clip-path="url(#clipPath1)">
        <use ffdec:characterId="5" height="37.0" transform="matrix(1.0, 0.0, 0.0, 1.0, 0.0, 0.0)" width="41.1" xlink:href="#shape4"/>
      </g>
      <use ffdec:characterId="6" height="33.75" transform="matrix(1.0, 0.0, 0.0, 1.0, 0.0, 0.0)" width="42.65" xlink:href="#shape5"/>
    </g>
    <g id="shape2">
      <path d="M20.0 8.5 L18.15 8.5 Q20.2 5.3 20.65 1.55 L20.75 -0.8 Q20.75 -4.55 19.3 -7.75 17.7 -10.5 14.7 -12.85 8.65 -17.4 0.05 -17.4 -8.55 -17.4 -14.7 -12.85 -17.6 -10.5 -19.15 -7.75 L-19.2 -7.75 Q-20.75 -4.55 -20.75 -0.8 L-20.55 1.55 Q-20.1 5.3 -18.1 8.5 L-19.85 8.5 Q-21.8 5.2 -22.25 1.25 L-22.45 -1.35 Q-22.45 -5.45 -20.75 -9.0 L-20.7 -9.0 Q-19.1 -12.05 -15.9 -14.6 -9.25 -19.75 0.05 -19.75 9.35 -19.75 15.9 -14.6 19.15 -12.05 20.85 -9.0 22.55 -5.45 22.55 -1.35 L22.4 1.25 Q21.85 5.2 20.0 8.5" fill="#2a2a2a" fill-rule="evenodd" stroke="none"/>
      <path d="M18.15 8.5 L20.0 8.5 Q18.4 11.2 15.9 13.5 L13.0 15.9 10.1 15.9 Q12.55 14.6 14.7 12.6 16.8 10.65 18.15 8.5 M-19.85 8.5 L-18.1 8.5 Q-16.75 10.65 -14.7 12.6 -12.5 14.6 -10.0 15.9 L-12.95 15.9 -15.9 13.5 Q-18.35 11.2 -19.85 8.5" fill="#151515" fill-rule="evenodd" stroke="none"/>
      <path d="M10.1 15.9 L13.0 15.9 Q7.4 19.85 0.05 19.85 -7.3 19.85 -12.95 15.9 L-10.0 15.9 Q-5.5 18.25 0.05 18.25 5.6 18.25 10.1 15.9" fill="#811200" fill-rule="evenodd" stroke="none"/>
      <path d="M20.0 8.5 Q21.85 5.2 22.4 1.25 L22.55 -1.35 Q22.55 -5.45 20.85 -9.0 19.15 -12.05 15.9 -14.6 9.35 -19.75 0.05 -19.75 -9.25 -19.75 -15.9 -14.6 -19.1 -12.05 -20.7 -9.0 L-20.75 -9.0 Q-22.45 -5.45 -22.45 -1.35 L-22.25 1.25 Q-21.8 5.2 -19.85 8.5 -18.35 11.2 -15.9 13.5 L-12.95 15.9 M-19.2 -7.75 L-19.15 -7.75 M13.0 15.9 L15.9 13.5 Q18.4 11.2 20.0 8.5" ffdec:has-small-stroke="true" ffdec:original-stroke-width="0.5" fill="none" stroke="#000000" stroke-linecap="round" stroke-linejoin="round" stroke-width="1.0000664117774158"/>
      <path d="M13.0 15.9 Q7.4 19.85 0.05 19.85 -7.3 19.85 -12.95 15.9" ffdec:has-small-stroke="true" ffdec:original-stroke-width="0.5" fill="none" stroke="#600000" stroke-linecap="round" stroke-linejoin="round" stroke-width="1.0000664117774158"/>
      <path d="M-12.8 11.25 Q-0.8 4.35 12.9 11.25 L0.05 19.1 -12.8 11.25" fill="#811200" fill-rule="evenodd" stroke="none"/>
      <path d="M-12.8 11.25 Q-0.8 4.35 12.9 11.25 L0.05 19.1 -12.8 11.25 Z" ffdec:has-small-stroke="true" ffdec:original-stroke-width="0.5" fill="none" stroke="#cf2700" stroke-linecap="round" stroke-linejoin="round" stroke-width="1.0000664117774158"/>
      <path d="M21.1 -0.85 L21.0 1.6 Q20.2 8.0 14.95 12.8 13.25 14.4 11.35 15.55 1.25 11.55 -11.25 15.55 -13.15 14.4 -14.9 12.8 -20.0 8.0 -20.85 1.6 L-21.05 -0.85 Q-21.05 -4.6 -19.45 -7.85 L-19.4 -7.85 Q-17.85 -10.65 -14.9 -13.05 -8.65 -17.7 0.1 -17.7 8.8 -17.7 14.95 -13.05 18.0 -10.65 19.6 -7.85 21.1 -4.6 21.1 -0.85" fill="#000000" fill-rule="evenodd" stroke="none"/>
      <path d="M21.1 -0.85 L21.0 1.6 Q20.2 8.0 14.95 12.8 13.25 14.4 11.35 15.55 1.25 11.55 -11.25 15.55 -13.15 14.4 -14.9 12.8 -20.0 8.0 -20.85 1.6 L-21.05 -0.85 Q-21.05 -4.6 -19.45 -7.85 L-19.4 -7.85 Q-17.85 -10.65 -14.9 -13.05 -8.65 -17.7 0.1 -17.7 8.8 -17.7 14.95 -13.05 18.0 -10.65 19.6 -7.85 21.1 -4.6 21.1 -0.85 Z" ffdec:has-small-stroke="true" ffdec:original-stroke-width="0.5" fill="none" stroke="#3f3f3f" stroke-linecap="round" stroke-linejoin="round" stroke-width="1.0000664117774158"/>
      <path d="M10.5 -13.1 Q3.25 -1.95 1.65 1.9 L4.05 -15.2 Q4.6 -15.6 7.5 -14.65 10.35 -13.8 10.5 -13.1 M-13.15 -11.6 Q-10.85 -13.4 -9.65 -13.2 L-4.85 4.05 -14.45 -7.65 -15.6 -9.15 Q-14.95 -10.3 -13.15 -11.6 M-18.6 0.6 Q-18.7 -3.05 -17.15 -6.6 L-9.3 1.95 -18.6 0.6 M-1.1 5.5 Q-1.75 2.4 -6.9 -14.35 -4.35 -15.45 -0.6 -15.6 L1.25 -15.4 Q0.3 -8.95 -0.05 -3.6 -0.45 1.3 -0.9 4.0 L-1.1 5.5" fill="#323539" fill-rule="evenodd" stroke="none"/>
      <path d="M-0.15 -18.7 Q-0.1 -18.35 -0.8 -18.1 L-2.45 -17.7 -4.15 -17.85 Q-4.85 -17.95 -4.9 -18.3 L-4.25 -18.95 -2.55 -19.3 -0.9 -19.2 Q-0.15 -19.05 -0.15 -18.7" fill="#b7b8b9" fill-rule="evenodd" stroke="none"/>
      <path d="M0.05 13.95 L0.05 16.7" ffdec:has-small-stroke="true" ffdec:original-stroke-width="1.0" fill="none" stroke="#600000" stroke-linecap="round" stroke-linejoin="round" stroke-width="1.0000664117774158"/>
      <path d="M-3.25 14.35 L-0.25 16.65" ffdec:has-small-stroke="true" ffdec:original-stroke-width="1.0" fill="none" stroke="#600000" stroke-linecap="round" stroke-linejoin="round" stroke-width="1.0000664117774158"/>
      <path d="M3.3 14.35 L0.3 16.65" ffdec:has-small-stroke="true" ffdec:original-stroke-width="1.0" fill="none" stroke="#600000" stroke-linecap="round" stroke-linejoin="round" stroke-width="1.0000664117774158"/>
      <path d="M-12.45 15.3 Q-7.5 18.65 -1.35 19.05" ffdec:has-small-stroke="true" ffdec:original-stroke-width="1.0" fill="none" stroke="#ff2424" stroke-linecap="round" stroke-linejoin="round" stroke-width="1.0000664117774158"/>
      <path d="M12.55 15.3 Q7.6 18.65 1.45 19.05" ffdec:has-small-stroke="true" ffdec:original-stroke-width="1.0" fill="none" stroke="#ff2424" stroke-linecap="round" stroke-linejoin="round" stroke-width="1.0000664117774158"/>
      <path d="M-4.35 15.05 L-3.35 15.75" ffdec:has-small-stroke="true" ffdec:original-stroke-width="1.0" fill="none" stroke="#ff2424" stroke-linecap="round" stroke-linejoin="round" stroke-width="1.0000664117774158"/>
      <path d="M-1.15 14.45 L-0.95 14.85" ffdec:has-small-stroke="true" ffdec:original-stroke-width="1.0" fill="none" stroke="#ff2424" stroke-linecap="round" stroke-linejoin="round" stroke-width="1.0000664117774158"/>
    </g>
    <g id="shape3">
      <path d="M19.85 -3.65 Q17.5 1.65 13.8 4.8 L13.8 4.75 13.55 2.5 Q17.65 -2.3 16.75 -8.65 18.85 -6.35 19.85 -3.65 M16.25 -10.0 Q17.35 -3.5 13.5 1.4 L12.95 -0.2 Q13.95 -2.15 14.05 -4.4 14.25 -9.3 10.15 -12.85 7.35 -15.35 3.6 -16.05 10.25 -15.2 15.15 -10.95 L16.25 -10.0 M1.7 -11.9 Q2.8 -12.8 4.55 -12.3 6.35 -11.75 7.0 -9.65 7.65 -7.6 6.2 -6.15 4.65 -4.8 3.2 -3.8 1.75 -2.75 1.4 -1.55 1.1 -0.4 1.7 0.6 L3.85 2.65 Q5.35 3.8 5.75 5.4 6.1 6.95 -0.3 7.7 -3.75 7.35 -5.45 6.35 -7.25 5.4 -6.85 3.6 -6.45 1.75 -5.6 0.25 -4.8 -1.25 -3.15 -2.2 -1.45 -3.15 -0.45 -3.5 0.45 -3.9 2.95 -5.6 5.45 -7.2 4.95 -8.15 4.45 -9.0 3.0 -8.6 1.45 -8.25 1.6 -8.85 1.7 -9.45 0.9 -10.6 0.5 -11.0 1.7 -11.9 M8.6 5.05 L9.45 4.3 9.8 4.0 Q10.5 5.05 10.35 6.05 10.2 7.1 8.95 7.95 L8.55 6.85 8.5 6.8 8.6 5.05 M6.5 6.55 L8.25 5.4 Q8.25 7.35 6.8 8.3 L6.5 6.55 M8.25 7.4 Q8.9 8.7 8.55 9.6 8.15 10.45 6.7 10.75 L6.85 8.8 8.25 7.4 M6.1 6.8 L6.3 9.1 6.2 9.25 Q5.6 9.95 4.85 9.95 4.05 9.95 3.5 9.25 3.05 8.65 2.95 7.9 L6.1 6.8 M20.7 2.45 Q17.45 6.45 13.15 8.55 L13.75 6.1 Q17.6 2.9 20.05 -2.6 20.8 -0.2 20.7 2.45 M12.95 5.25 L10.1 7.55 Q10.75 6.85 10.85 6.05 10.95 4.9 10.15 3.6 11.5 2.05 12.35 0.25 13.0 2.35 12.95 4.75 L12.95 5.25 M19.75 7.8 Q15.55 11.25 11.4 12.5 L12.85 10.15 12.9 10.15 Q17.35 7.85 20.65 3.85 20.45 5.9 19.75 7.8 M12.85 6.0 Q12.45 9.25 10.5 11.9 L7.9 12.4 8.1 10.75 9.0 9.75 9.15 8.65 Q11.1 7.55 12.85 6.0 M14.1 15.95 L12.35 17.35 Q9.65 17.1 7.05 16.25 L8.85 15.05 15.8 14.4 14.1 15.95 M7.6 10.95 Q7.65 12.8 6.2 13.2 L6.65 11.2 6.8 11.2 7.6 10.95 M7.7 12.8 L10.05 12.5 9.05 13.55 8.5 14.1 8.4 14.15 8.35 14.25 6.35 15.6 6.25 15.55 5.6 15.25 5.5 15.2 6.1 13.7 Q7.1 13.5 7.7 12.8 M9.55 14.45 L11.05 12.95 Q15.25 11.9 19.5 8.55 18.35 11.45 16.2 13.9 L9.3 14.65 9.55 14.45 M6.0 12.35 L5.55 12.4 Q4.75 12.4 4.2 11.75 3.65 11.1 3.6 10.2 L3.6 10.0 4.85 10.35 Q5.6 10.35 6.3 9.75 L6.0 12.35 M3.25 9.55 L3.3 9.6 3.05 9.8 Q2.5 10.45 1.75 10.5 0.95 10.5 0.3 9.95 -0.25 9.25 -0.25 8.35 L-0.25 8.15 0.15 8.15 2.6 7.95 Q2.65 8.85 3.25 9.55 M3.85 12.05 L3.75 12.3 2.85 12.9 2.7 12.95 2.4 13.0 Q1.65 13.1 1.1 12.55 0.45 12.0 0.3 11.0 L0.3 10.5 Q0.95 10.95 1.8 10.95 2.55 10.9 3.2 10.35 3.3 11.35 3.9 12.05 L3.85 12.05 M2.9 14.75 L1.65 15.4 Q0.85 15.45 0.3 14.8 -0.25 14.1 -0.25 13.2 L0.35 12.8 Q0.5 12.65 0.6 12.65 L0.85 12.85 Q1.55 13.6 2.45 13.5 L2.65 13.5 3.1 14.45 3.15 14.5 2.95 14.75 2.9 14.75 M4.05 12.6 L4.2 12.4 Q4.8 12.8 5.55 12.8 L5.9 12.8 5.15 14.9 4.7 14.95 Q3.95 14.9 3.4 14.25 L3.1 13.35 4.05 12.6 M3.25 15.0 L3.4 14.85 Q3.95 15.35 4.7 15.4 L4.95 15.4 4.35 16.55 4.35 16.6 3.75 17.75 3.6 17.8 Q2.9 18.25 2.25 18.2 1.45 18.05 1.1 17.25 0.7 16.55 0.9 15.75 L1.65 15.75 1.7 15.75 Q2.6 15.75 3.25 15.05 L3.25 15.0 M5.45 15.65 L5.95 15.8 5.0 16.3 Q5.1 15.85 5.35 15.55 L5.45 15.65 M4.85 17.15 L6.5 16.45 11.85 17.7 Q9.3 19.25 6.45 20.1 5.45 18.95 4.8 17.2 L4.85 17.15 M0.7 17.45 L0.75 17.55 0.65 17.6 0.45 17.7 Q-0.15 18.2 -0.9 18.1 -1.65 18.0 -2.1 17.3 -2.55 16.55 -2.4 15.7 L-2.35 15.4 -2.05 15.45 Q-1.15 15.6 -0.35 14.95 L-0.2 14.85 0.0 15.1 0.0 15.05 0.5 15.5 0.45 15.6 Q0.25 16.65 0.7 17.5 L0.7 17.45 M0.95 18.15 L0.95 18.1 2.15 18.75 3.4 18.65 1.7 20.9 0.15 20.95 -4.9 20.45 Q-3.65 19.1 -3.05 17.7 L-2.8 17.65 -2.8 17.6 -2.65 17.55 -2.5 17.85 Q-1.95 18.55 -1.05 18.7 -0.15 18.75 0.65 18.25 L0.95 18.15 M4.55 17.7 Q5.15 19.15 6.0 20.25 L2.3 20.85 4.55 17.7 M-20.35 0.9 Q-17.4 6.1 -12.3 10.1 L-12.3 10.15 -11.0 12.35 Q-15.35 10.85 -19.85 6.95 L-20.35 3.25 -20.35 0.9 M0.45 -10.55 Q1.0 -9.65 1.1 -8.5 L-8.1 -8.05 Q-4.95 -9.5 -1.8 -10.05 L0.45 -10.55 M-12.4 4.65 Q-12.45 2.5 -11.85 0.75 -10.9 2.6 -9.3 4.3 L-9.25 4.35 -9.3 4.4 -9.45 4.75 -9.5 4.75 Q-9.75 5.75 -9.3 6.75 L-8.75 7.55 -8.85 7.75 Q-10.8 6.5 -12.4 4.65 M-18.45 -6.1 Q-17.15 -8.3 -15.1 -10.2 -17.25 -3.4 -13.0 2.5 L-13.1 4.3 Q-16.65 0.35 -18.45 -6.1 M-10.0 -12.7 Q-14.05 -9.05 -13.85 -3.95 -13.75 -1.35 -12.55 0.75 L-12.9 1.95 Q-16.9 -4.15 -14.4 -11.25 -9.75 -15.2 -3.4 -16.05 -7.15 -15.25 -10.0 -12.7 M-12.6 8.4 Q-17.5 4.65 -20.25 -0.25 -20.0 -2.85 -18.7 -5.2 -16.8 1.65 -13.15 5.45 -13.1 7.0 -12.6 8.4 M-8.9 4.6 L-7.05 6.05 -7.2 6.2 Q-7.45 6.95 -7.3 7.65 L-7.7 7.6 -7.7 7.55 Q-8.45 7.35 -8.9 6.55 -9.3 5.75 -9.05 4.9 L-8.9 4.6 M-8.4 7.75 L-7.85 8.0 -7.2 8.05 -7.15 8.2 -6.55 9.15 -6.6 10.55 -6.7 10.55 -6.7 10.6 -7.05 10.55 -7.05 10.5 -8.3 9.65 Q-8.7 8.85 -8.45 7.95 L-8.4 7.75 M-6.7 6.3 Q-5.4 7.1 -3.9 7.6 L-3.9 7.65 -3.8 8.85 -3.95 8.9 -4.3 9.0 -5.7 9.1 Q-6.5 8.85 -6.8 8.0 -7.15 7.2 -6.75 6.35 L-6.7 6.3 M-3.5 7.65 L-0.65 8.15 -0.65 8.4 -0.3 9.65 -0.55 9.85 Q-1.2 10.3 -2.0 10.2 -2.8 10.15 -3.2 9.4 -3.6 8.6 -3.5 7.7 L-3.5 7.65 M-8.95 8.2 Q-9.05 9.05 -8.65 9.85 -8.2 10.7 -7.2 10.95 L-7.25 10.95 -6.95 11.0 Q-7.2 11.7 -7.05 12.4 L-10.0 11.75 Q-12.05 8.9 -12.3 5.3 -10.8 7.05 -8.95 8.2 M-0.05 11.05 L0.3 12.3 0.15 12.5 Q-0.5 13.0 -1.2 12.9 -2.0 12.85 -2.55 12.2 -3.0 11.45 -2.9 10.55 L-2.8 10.35 -2.0 10.6 Q-1.15 10.8 -0.3 10.15 L-0.1 10.05 0.0 10.1 -0.05 10.15 -0.05 11.05 M-3.25 10.15 L-3.35 10.5 -3.2 11.65 -3.25 11.65 -3.55 11.7 -3.6 11.7 -5.0 12.0 Q-5.75 11.75 -6.05 10.9 L-6.05 10.85 Q-6.45 10.15 -6.2 9.4 L-5.9 9.55 Q-5.05 9.95 -4.1 9.35 L-3.8 9.25 -3.75 9.1 -3.5 9.65 -3.15 10.1 -3.25 10.15 M-3.05 12.0 L-2.8 12.5 Q-2.25 13.3 -1.25 13.4 L-0.65 13.4 -0.4 14.45 -0.65 14.6 Q-1.25 15.15 -1.95 15.0 -2.8 14.85 -3.2 14.1 -3.65 13.3 -3.45 12.5 L-3.35 12.2 -3.3 12.05 -3.1 12.0 -3.05 12.0 M-3.75 13.7 L-3.85 13.75 -4.15 13.85 -5.6 13.9 Q-6.45 13.6 -6.6 12.8 -6.9 12.0 -6.45 11.1 L-6.45 11.0 Q-6.1 12.1 -5.1 12.45 L-3.8 12.45 -3.75 13.7 M-3.75 14.1 L-3.65 13.95 -3.5 14.35 -2.65 15.25 -2.8 15.6 -2.7 16.8 -2.95 16.9 -2.9 16.9 -4.4 17.1 Q-5.1 16.75 -5.4 16.0 -5.6 15.25 -5.35 14.4 L-4.0 14.25 -3.75 14.1 M-7.9 14.05 L-8.4 13.55 -9.55 12.4 -7.0 12.8 -6.95 12.9 Q-6.65 13.9 -5.8 14.35 L-5.7 14.35 -5.95 15.5 -7.7 14.3 -7.75 14.15 -7.9 14.05 M-8.75 14.65 Q-12.55 14.7 -16.15 13.75 -18.55 10.95 -19.6 7.6 -15.05 11.55 -10.55 12.8 L-9.0 14.45 Q-8.9 14.5 -8.75 14.65 M-4.65 17.75 L-3.6 17.85 Q-4.15 19.1 -5.4 20.4 -8.65 19.6 -11.5 17.75 -8.7 17.55 -5.9 16.65 -5.55 17.45 -4.6 17.75 L-4.65 17.75 M-6.2 16.35 Q-9.15 17.25 -12.05 17.4 L-13.9 15.95 -15.6 14.35 -8.3 15.05 -6.2 16.35" fill="#ffa600" fill-rule="evenodd" stroke="none"/>
    </g>
    <g id="shape4">
      <path d="M16.25 -10.0 Q17.35 -3.5 13.5 1.4 L12.95 -0.2 Q13.95 -2.15 14.05 -4.4 14.25 -9.3 10.15 -12.85 7.35 -15.35 3.6 -16.05 10.25 -15.2 15.15 -10.95 L16.25 -10.0 M19.85 -3.65 Q17.5 1.65 13.8 4.8 L13.8 4.75 13.55 2.5 Q17.65 -2.3 16.75 -8.65 18.85 -6.35 19.85 -3.65 M1.7 -11.9 Q2.8 -12.8 4.55 -12.3 6.35 -11.75 7.0 -9.65 7.65 -7.6 6.2 -6.15 4.65 -4.8 3.2 -3.8 1.75 -2.75 1.4 -1.55 1.1 -0.4 1.7 0.6 L3.85 2.65 Q5.35 3.8 5.75 5.4 6.1 6.95 -0.3 7.7 -3.75 7.35 -5.45 6.35 -7.25 5.4 -6.85 3.6 -6.45 1.75 -5.6 0.25 -4.8 -1.25 -3.15 -2.2 -1.45 -3.15 -0.45 -3.5 0.45 -3.9 2.95 -5.6 5.45 -7.2 4.95 -8.15 4.45 -9.0 3.0 -8.6 1.45 -8.25 1.6 -8.85 1.7 -9.45 0.9 -10.6 0.5 -11.0 1.7 -11.9 M8.6 5.05 L9.45 4.3 9.8 4.0 Q10.5 5.05 10.35 6.05 10.2 7.1 8.95 7.95 L8.55 6.85 8.5 6.8 8.6 5.05 M6.5 6.55 L8.25 5.4 Q8.25 7.35 6.8 8.3 L6.5 6.55 M8.25 7.4 Q8.9 8.7 8.55 9.6 8.15 10.45 6.7 10.75 L6.85 8.8 8.25 7.4 M6.1 6.8 L6.3 9.1 6.2 9.25 Q5.6 9.95 4.85 9.95 4.05 9.95 3.5 9.25 3.05 8.65 2.95 7.9 L6.1 6.8 M20.7 2.45 Q17.45 6.45 13.15 8.55 L13.75 6.1 Q17.6 2.9 20.05 -2.6 20.8 -0.2 20.7 2.45 M12.95 5.25 L10.1 7.55 Q10.75 6.85 10.85 6.05 10.95 4.9 10.15 3.6 11.5 2.05 12.35 0.25 13.0 2.35 12.95 4.75 L12.95 5.25 M19.75 7.8 Q15.55 11.25 11.4 12.5 L12.85 10.15 12.9 10.15 Q17.35 7.85 20.65 3.85 20.45 5.9 19.75 7.8 M12.85 6.0 Q12.45 9.25 10.5 11.9 L7.9 12.4 8.1 10.75 9.0 9.75 9.15 8.65 Q11.1 7.55 12.85 6.0 M14.1 15.95 L12.35 17.35 Q9.65 17.1 7.05 16.25 L8.85 15.05 15.8 14.4 14.1 15.95 M7.6 10.95 Q7.65 12.8 6.2 13.2 L6.65 11.2 6.8 11.2 7.6 10.95 M7.7 12.8 L10.05 12.5 9.05 13.55 8.5 14.1 8.4 14.15 8.35 14.25 6.35 15.6 6.25 15.55 5.6 15.25 5.5 15.2 6.1 13.7 Q7.1 13.5 7.7 12.8 M9.55 14.45 L11.05 12.95 Q15.25 11.9 19.5 8.55 18.35 11.45 16.2 13.9 L9.3 14.65 9.55 14.45 M6.0 12.35 L5.55 12.4 Q4.75 12.4 4.2 11.75 3.65 11.1 3.6 10.2 L3.6 10.0 4.85 10.35 Q5.6 10.35 6.3 9.75 L6.0 12.35 M3.85 12.05 L3.75 12.3 2.85 12.9 2.7 12.95 2.4 13.0 Q1.65 13.1 1.1 12.55 0.45 12.0 0.3 11.0 L0.3 10.5 Q0.95 10.95 1.8 10.95 2.55 10.9 3.2 10.35 3.3 11.35 3.9 12.05 L3.85 12.05 M3.3 9.6 L3.05 9.8 Q2.5 10.45 1.75 10.5 0.95 10.5 0.3 9.95 -0.25 9.25 -0.25 8.35 L-0.25 8.15 0.15 8.15 2.6 7.95 Q2.65 8.85 3.25 9.55 L3.3 9.6 M2.9 14.75 L1.65 15.4 Q0.85 15.45 0.3 14.8 -0.25 14.1 -0.25 13.2 L0.35 12.8 Q0.5 12.65 0.6 12.65 L0.85 12.85 Q1.55 13.6 2.45 13.5 L2.65 13.5 3.1 14.45 3.15 14.5 2.95 14.75 2.9 14.75 M4.05 12.6 L4.2 12.4 Q4.8 12.8 5.55 12.8 L5.9 12.8 5.15 14.9 4.7 14.95 Q3.95 14.9 3.4 14.25 L3.1 13.35 4.05 12.6 M3.25 15.0 L3.4 14.85 Q3.95 15.35 4.7 15.4 L4.95 15.4 4.35 16.55 4.35 16.6 3.75 17.75 3.6 17.8 Q2.9 18.25 2.25 18.2 1.45 18.05 1.1 17.25 0.7 16.55 0.9 15.75 L1.65 15.75 1.7 15.75 Q2.6 15.75 3.25 15.05 L3.25 15.0 M4.85 17.15 L6.5 16.45 11.85 17.7 Q9.3 19.25 6.45 20.1 5.45 18.95 4.8 17.2 L4.85 17.15 M5.45 15.65 L5.95 15.8 5.0 16.3 Q5.1 15.85 5.35 15.55 L5.45 15.65 M0.7 17.45 L0.75 17.55 0.65 17.6 0.45 17.7 Q-0.15 18.2 -0.9 18.1 -1.65 18.0 -2.1 17.3 -2.55 16.55 -2.4 15.7 L-2.35 15.4 -2.05 15.45 Q-1.15 15.6 -0.35 14.95 L-0.2 14.85 0.0 15.1 0.0 15.05 0.5 15.5 0.45 15.6 Q0.25 16.65 0.7 17.5 L0.7 17.45 M0.95 18.15 L0.95 18.1 2.15 18.75 3.4 18.65 1.7 20.9 0.15 20.95 -4.9 20.45 Q-3.65 19.1 -3.05 17.7 L-2.8 17.65 -2.8 17.6 -2.65 17.55 -2.5 17.85 Q-1.95 18.55 -1.05 18.7 -0.15 18.75 0.65 18.25 L0.95 18.15 M4.55 17.7 Q5.15 19.15 6.0 20.25 L2.3 20.85 4.55 17.7 M-20.35 0.9 Q-17.4 6.1 -12.3 10.1 L-12.3 10.15 -11.0 12.35 Q-15.35 10.85 -19.85 6.95 L-20.35 3.25 -20.35 0.9 M0.45 -10.55 Q1.0 -9.65 1.1 -8.5 L-8.1 -8.05 Q-4.95 -9.5 -1.8 -10.05 L0.45 -10.55 M-10.0 -12.7 Q-14.05 -9.05 -13.85 -3.95 -13.75 -1.35 -12.55 0.75 L-12.9 1.95 Q-16.9 -4.15 -14.4 -11.25 -9.75 -15.2 -3.4 -16.05 -7.15 -15.25 -10.0 -12.7 M-18.45 -6.1 Q-17.15 -8.3 -15.1 -10.2 -17.25 -3.4 -13.0 2.5 L-13.1 4.3 Q-16.65 0.35 -18.45 -6.1 M-12.6 8.4 Q-17.5 4.65 -20.25 -0.25 -20.0 -2.85 -18.7 -5.2 -16.8 1.65 -13.15 5.45 -13.1 7.0 -12.6 8.4 M-12.4 4.65 Q-12.45 2.5 -11.85 0.75 -10.9 2.6 -9.3 4.3 L-9.25 4.35 -9.3 4.4 -9.45 4.75 -9.5 4.75 Q-9.75 5.75 -9.3 6.75 L-8.75 7.55 -8.85 7.75 Q-10.8 6.5 -12.4 4.65 M-8.9 4.6 L-7.05 6.05 -7.2 6.2 Q-7.45 6.95 -7.3 7.65 L-7.7 7.6 -7.7 7.55 Q-8.45 7.35 -8.9 6.55 -9.3 5.75 -9.05 4.9 L-8.9 4.6 M-8.4 7.75 L-7.85 8.0 -7.2 8.05 -7.15 8.2 -6.55 9.15 -6.6 10.55 -6.7 10.55 -6.7 10.6 -7.05 10.55 -7.05 10.5 -8.3 9.65 Q-8.7 8.85 -8.45 7.95 L-8.4 7.75 M-6.7 6.3 Q-5.4 7.1 -3.9 7.6 L-3.9 7.65 -3.8 8.85 -3.95 8.9 -4.3 9.0 -5.7 9.1 Q-6.5 8.85 -6.8 8.0 -7.15 7.2 -6.75 6.35 L-6.7 6.3 M-3.5 7.65 L-0.65 8.15 -0.65 8.4 -0.3 9.65 -0.55 9.85 Q-1.2 10.3 -2.0 10.2 -2.8 10.15 -3.2 9.4 -3.6 8.6 -3.5 7.7 L-3.5 7.65 M-8.95 8.2 Q-9.05 9.05 -8.65 9.85 -8.2 10.7 -7.2 10.95 L-7.25 10.95 -6.95 11.0 Q-7.2 11.7 -7.05 12.4 L-10.0 11.75 Q-12.05 8.9 -12.3 5.3 -10.8 7.05 -8.95 8.2 M-0.05 11.05 L0.3 12.3 0.15 12.5 Q-0.5 13.0 -1.2 12.9 -2.0 12.85 -2.55 12.2 -3.0 11.45 -2.9 10.55 L-2.8 10.35 -2.0 10.6 Q-1.15 10.8 -0.3 10.15 L-0.1 10.05 0.0 10.1 -0.05 10.15 -0.05 11.05 M-3.25 10.15 L-3.35 10.5 -3.2 11.65 -3.25 11.65 -3.55 11.7 -3.6 11.7 -5.0 12.0 Q-5.75 11.75 -6.05 10.9 L-6.05 10.85 Q-6.45 10.15 -6.2 9.4 L-5.9 9.55 Q-5.05 9.95 -4.1 9.35 L-3.8 9.25 -3.75 9.1 -3.5 9.65 -3.15 10.1 -3.25 10.15 M-3.05 12.0 L-2.8 12.5 Q-2.25 13.3 -1.25 13.4 L-0.65 13.4 -0.4 14.45 -0.65 14.6 Q-1.25 15.15 -1.95 15.0 -2.8 14.85 -3.2 14.1 -3.65 13.3 -3.45 12.5 L-3.35 12.2 -3.3 12.05 -3.1 12.0 -3.05 12.0 M-3.75 13.7 L-3.85 13.75 -4.15 13.85 -5.6 13.9 Q-6.45 13.6 -6.6 12.8 -6.9 12.0 -6.45 11.1 L-6.45 11.0 Q-6.1 12.1 -5.1 12.45 L-3.8 12.45 -3.75 13.7 M-3.75 14.1 L-3.65 13.95 -3.5 14.35 -2.65 15.25 -2.8 15.6 -2.7 16.8 -2.95 16.9 -2.9 16.9 -4.4 17.1 Q-5.1 16.75 -5.4 16.0 -5.6 15.25 -5.35 14.4 L-4.0 14.25 -3.75 14.1 M-8.75 14.65 Q-12.55 14.7 -16.15 13.75 -18.55 10.95 -19.6 7.6 -15.05 11.55 -10.55 12.8 L-9.0 14.45 Q-8.9 14.5 -8.75 14.65 M-7.9 14.05 L-8.4 13.55 -9.55 12.4 -7.0 12.8 -6.95 12.9 Q-6.65 13.9 -5.8 14.35 L-5.7 14.35 -5.95 15.5 -7.7 14.3 -7.75 14.15 -7.9 14.05 M-4.65 17.75 L-3.6 17.85 Q-4.15 19.1 -5.4 20.4 -8.65 19.6 -11.5 17.75 -8.7 17.55 -5.9 16.65 -5.55 17.45 -4.6 17.75 L-4.65 17.75 M-6.2 16.35 Q-9.15 17.25 -12.05 17.4 L-13.9 15.95 -15.6 14.35 -8.3 15.05 -6.2 16.35" fill="#fffe00" fill-rule="evenodd" stroke="none"/>
    </g>
    <g id="shape5">
      <path d="M21.1 -0.85 L21.0 1.6 Q20.2 8.0 14.95 12.8 13.25 14.4 11.35 15.55 1.25 11.55 -11.25 15.55 -13.15 14.4 -14.9 12.8 -20.0 8.0 -20.85 1.6 L-21.05 -0.85 Q-21.05 -4.6 -19.45 -7.85 L-19.4 -7.85 Q-17.85 -10.65 -14.9 -13.05 -8.65 -17.7 0.1 -17.7 8.8 -17.7 14.95 -13.05 18.0 -10.65 19.6 -7.85 21.1 -4.6 21.1 -0.85 Z" ffdec:has-small-stroke="true" ffdec:original-stroke-width="0.5" fill="none" stroke="#3f3f3f" stroke-linecap="round" stroke-linejoin="round" stroke-width="1.0000664117774158"/>
      <path d="M8.3 2.6 Q9.45 2.5 10.1 5.0 10.8 7.45 6.5 6.85 L0.75 6.2 Q-0.7 6.2 -6.4 7.75 -8.45 7.65 -10.95 3.65 -10.85 2.3 -6.3 2.15 L-5.1 2.0 -0.95 1.8 5.25 2.1 8.3 2.6" fill="#8a0000" fill-rule="evenodd" stroke="none"/>
      <path d="M8.3 2.6 Q9.45 2.5 10.1 5.0 10.8 7.45 6.5 6.85 L0.75 6.2 Q-0.7 6.2 -6.4 7.75 -8.45 7.65 -10.95 3.65 -10.85 2.3 -6.3 2.15 L-5.1 2.0 -0.95 1.8 5.25 2.1 8.3 2.6 Z" fill="none" stroke="#ffffff" stroke-linecap="round" stroke-linejoin="round" stroke-width="2.0"/>
      <path d="M8.7 2.45 Q9.75 2.85 9.95 5.0 10.2 7.05 6.1 6.5 L0.7 6.05 -6.4 7.75 Q-8.45 7.65 -10.95 3.65 -10.85 2.3 -6.3 2.15 L-5.1 2.0 -0.95 1.8 5.25 2.1 8.7 2.45" fill="#dc0000" fill-rule="evenodd" stroke="none"/>
    </g>
    <g id="sprite4">
      <use ffdec:characterId="1" height="40.1" transform="matrix(1.0, 0.0, 0.0, 1.0, 0.0, 0.0)" width="45.5" xlink:href="#shape6"/>
      <clipPath id="clipPath2">
        <path d="M 0.1 -17.7 L -0.98 -17.68 L -2.05 -17.63 L -3.09 -17.54 L -4.12 -17.41 L -5.12 -17.25 L -6.11 -17.05 L -7.08 -16.81 L -7.55 -16.68 L -8.02 -16.54 L -8.49 -16.39 L -8.95 -16.23 L -9.41 -16.06 L -9.86 -15.88 L -10.31 -15.7 L -10.75 -15.5 L -11.19 -15.3 L -11.62 -15.08 L -12.05 -14.86 L -12.47 -14.63 L -12.89 -14.39 L -13.3 -14.14 L -13.71 -13.88 L -14.11 -13.61 L -14.51 -13.34 L -14.9 -13.05 L -15.62 -12.44 L -16.29 -11.82 L -16.92 -11.19 L -17.21 -10.87 L -17.5 -10.55 L -17.78 -10.22 L -18.04 -9.89 L -18.29 -9.56 L -18.54 -9.23 L -18.77 -8.89 L -18.99 -8.54 L -19.2 -8.2 L -19.4 -7.85 L -19.45 -7.85 L -19.64 -7.44 L -19.83 -7.03 L -19.99 -6.61 L -20.15 -6.19 L -20.29 -5.77 L -20.42 -5.34 L -20.54 -4.91 L -20.65 -4.47 L -20.74 -4.04 L -20.83 -3.59 L -20.89 -3.14 L -20.95 -2.69 L -20.99 -2.24 L -21.02 -1.78 L -21.04 -1.32 L -21.05 -0.85 L -20.85 1.6 L -20.73 2.39 L -20.57 3.17 L -20.38 3.94 L -20.16 4.7 L -19.9 5.44 L -19.61 6.18 L -19.29 6.89 L -18.94 7.6 L -18.55 8.29 L -18.13 8.98 L -17.67 9.64 L -17.18 10.3 L -16.66 10.94 L -16.11 11.57 L -15.52 12.19 L -14.9 12.8 L -14.46 13.19 L -14.02 13.57 L -13.57 13.94 L -13.11 14.29 L -12.65 14.62 L -12.19 14.95 L -11.72 15.26 L -11.25 15.55 L -10.47 15.31 L -9.7 15.08 L -8.93 14.87 L -8.16 14.68 L -7.4 14.5 L -6.65 14.33 L -5.9 14.18 L -5.15 14.05 L -4.41 13.93 L -3.67 13.83 L -2.94 13.75 L -2.21 13.68 L -1.49 13.62 L -0.77 13.58 L -0.06 13.56 L 0.65 13.55 L 1.35 13.56 L 2.05 13.58 L 2.75 13.62 L 3.44 13.68 L 4.12 13.75 L 4.8 13.83 L 5.48 13.93 L 6.15 14.05 L 6.82 14.18 L 7.48 14.33 L 8.14 14.5 L 8.79 14.68 L 9.44 14.87 L 10.08 15.08 L 10.72 15.31 L 11.35 15.55 L 11.82 15.26 L 12.29 14.95 L 12.75 14.62 L 13.2 14.29 L 13.65 13.94 L 14.09 13.57 L 14.52 13.19 L 14.95 12.8 L 15.59 12.19 L 16.19 11.57 L 16.76 10.94 L 17.3 10.3 L 17.8 9.64 L 18.26 8.98 L 18.69 8.29 L 19.09 7.6 L 19.45 6.89 L 19.77 6.18 L 20.07 5.44 L 20.32 4.7 L 20.54 3.94 L 20.73 3.17 L 20.88 2.39 L 21 1.6 L 21.1 -0.85 L 21.09 -1.32 L 21.08 -1.78 L 21.05 -2.24 L 21.01 -2.69 L 20.95 -3.14 L 20.89 -3.59 L 20.81 -4.04 L 20.73 -4.47 L 20.63 -4.91 L 20.51 -5.34 L 20.39 -5.77 L 20.26 -6.19 L 20.11 -6.61 L 19.95 -7.03 L 19.78 -7.44 L 19.6 -7.85 L 19.39 -8.2 L 19.18 -8.54 L 18.95 -8.89 L 18.71 -9.23 L 18.46 -9.56 L 18.2 -9.89 L 17.92 -10.22 L 17.64 -10.55 L 17.34 -10.87 L 17.03 -11.19 L 16.71 -11.51 L 16.38 -11.82 L 15.69 -12.44 L 14.95 -13.05 L 14.56 -13.34 L 14.17 -13.61 L 13.77 -13.88 L 13.37 -14.14 L 12.97 -14.39 L 12.55 -14.63 L 12.14 -14.86 L 11.72 -15.08 L 11.29 -15.3 L 10.86 -15.5 L 10.42 -15.7 L 9.98 -15.88 L 9.53 -16.06 L 9.08 -16.23 L 8.62 -16.39 L 8.16 -16.54 L 7.7 -16.68 L 7.22 -16.81 L 6.75 -16.93 L 6.27 -17.05 L 5.29 -17.25 L 4.29 -17.41 L 3.27 -17.54 L 2.24 -17.63 L 1.18 -17.68 L 0.1 -17.7 Z"/>
      </clipPath>
      <g clip-path="url(#clipPath2)">
        <use ffdec:characterId="3" height="37.0" transform="matrix(1.0, 0.0, 0.0, 1.0, 0.0, 0.0)" width="41.1" xlink:href="#shape3"/>
      </g>
      <clipPath id="clipPath3">
        <path d="M 4.58 -15.32 L 4.41 -15.31 L 4.26 -15.29 L 4.14 -15.25 L 4.05 -15.2 L 1.65 1.9 L 1.87 1.39 L 2.14 0.82 L 2.45 0.2 L 2.8 -0.48 L 3.2 -1.22 L 3.64 -2.01 L 4.66 -3.78 L 5.86 -5.76 L 7.23 -7.98 L 8.78 -10.43 L 10.5 -13.1 L 10.47 -13.19 L 10.42 -13.28 L 10.35 -13.37 L 10.26 -13.46 L 10.14 -13.55 L 10.01 -13.65 L 9.68 -13.84 L 9.26 -14.03 L 8.76 -14.23 L 8.17 -14.44 L 7.5 -14.65 L 6.55 -14.94 L 6.13 -15.06 L 5.75 -15.15 L 5.4 -15.22 L 5.09 -15.28 L 4.82 -15.31 L 4.58 -15.32 Z M -17.15 -6.6 L -17.34 -6.16 L -17.51 -5.71 L -17.67 -5.27 L -17.82 -4.82 L -17.96 -4.37 L -18.08 -3.92 L -18.19 -3.47 L -18.29 -3.03 L -18.37 -2.57 L -18.44 -2.12 L -18.5 -1.67 L -18.55 -1.22 L -18.58 -0.77 L -18.6 -0.31 L -18.61 0.14 L -18.6 0.6 L -9.3 1.95 L -17.15 -6.6 Z M -9.9 -13.22 L -10.05 -13.21 L -10.21 -13.19 L -10.37 -13.16 L -10.55 -13.12 L -10.91 -12.99 L -11.3 -12.81 L -11.72 -12.59 L -12.17 -12.31 L -12.65 -11.98 L -13.15 -11.6 L -13.58 -11.28 L -13.98 -10.96 L -14.34 -10.65 L -14.66 -10.34 L -14.95 -10.03 L -15.2 -9.73 L -15.42 -9.44 L -15.6 -9.15 L -14.45 -7.65 L -4.85 4.05 L -9.65 -13.2 L -9.77 -13.22 L -9.9 -13.22 Z M -0.6 -15.6 L -1.52 -15.55 L -2.4 -15.47 L -3.24 -15.35 L -4.05 -15.21 L -4.82 -15.04 L -5.55 -14.84 L -6.24 -14.61 L -6.58 -14.48 L -6.9 -14.35 L -5.68 -10.38 L -4.61 -6.83 L -3.67 -3.71 L -2.88 -1.01 L -2.22 1.26 L -1.71 3.1 L -1.33 4.51 L -1.1 5.5 L -0.9 4 L -0.79 3.29 L -0.68 2.51 L -0.46 0.75 L -0.25 -1.29 L -0.05 -3.6 L 0.05 -4.95 L 0.16 -6.34 L 0.3 -7.77 L 0.45 -9.23 L 0.62 -10.72 L 0.81 -12.24 L 1.02 -13.8 L 1.25 -15.4 L -0.6 -15.6 Z"/>
      </clipPath>
      <g clip-path="url(#clipPath3)">
        <use ffdec:characterId="5" height="37.0" transform="matrix(1.0, 0.0, 0.0, 1.0, 0.0, 0.0)" width="41.1" xlink:href="#shape4"/>
      </g>
      <use ffdec:characterId="6" height="33.75" transform="matrix(1.0, 0.0, 0.0, 1.0, 0.0, 0.0)" width="42.65" xlink:href="#shape7"/>
    </g>
    <g id="shape6">
      <path d="M20.0 8.5 L18.15 8.5 Q20.2 5.3 20.65 1.55 L20.75 -0.8 Q20.75 -4.55 19.3 -7.75 17.7 -10.5 14.7 -12.85 8.65 -17.4 0.05 -17.4 -8.55 -17.4 -14.7 -12.85 -17.6 -10.5 -19.15 -7.75 L-19.2 -7.75 Q-20.75 -4.55 -20.75 -0.8 L-20.55 1.55 Q-20.1 5.3 -18.1 8.5 L-19.85 8.5 Q-21.8 5.2 -22.25 1.25 L-22.45 -1.35 Q-22.45 -5.45 -20.75 -9.0 L-20.7 -9.0 Q-19.1 -12.05 -15.9 -14.6 -9.25 -19.75 0.05 -19.75 9.35 -19.75 15.9 -14.6 19.15 -12.05 20.85 -9.0 22.55 -5.45 22.55 -1.35 L22.4 1.25 Q21.85 5.2 20.0 8.5" fill="#2a2a2a" fill-rule="evenodd" stroke="none"/>
      <path d="M18.15 8.5 L20.0 8.5 Q18.4 11.2 15.9 13.5 L13.0 15.9 10.1 15.9 Q12.55 14.6 14.7 12.6 16.8 10.65 18.15 8.5 M-19.85 8.5 L-18.1 8.5 Q-16.75 10.65 -14.7 12.6 -12.5 14.6 -10.0 15.9 L-12.95 15.9 -15.9 13.5 Q-18.35 11.2 -19.85 8.5" fill="#151515" fill-rule="evenodd" stroke="none"/>
      <path d="M10.1 15.9 L13.0 15.9 Q7.4 19.85 0.05 19.85 -7.3 19.85 -12.95 15.9 L-10.0 15.9 Q-5.5 18.25 0.05 18.25 5.6 18.25 10.1 15.9" fill="#811200" fill-rule="evenodd" stroke="none"/>
      <path d="M20.0 8.5 Q21.85 5.2 22.4 1.25 L22.55 -1.35 Q22.55 -5.45 20.85 -9.0 19.15 -12.05 15.9 -14.6 9.35 -19.75 0.05 -19.75 -9.25 -19.75 -15.9 -14.6 -19.1 -12.05 -20.7 -9.0 L-20.75 -9.0 Q-22.45 -5.45 -22.45 -1.35 L-22.25 1.25 Q-21.8 5.2 -19.85 8.5 -18.35 11.2 -15.9 13.5 L-12.95 15.9 M-19.2 -7.75 L-19.15 -7.75 M13.0 15.9 L15.9 13.5 Q18.4 11.2 20.0 8.5" ffdec:has-small-stroke="true" ffdec:original-stroke-width="0.5" fill="none" stroke="#000000" stroke-linecap="round" stroke-linejoin="round" stroke-width="1.0101985015768038"/>
      <path d="M13.0 15.9 Q7.4 19.85 0.05 19.85 -7.3 19.85 -12.95 15.9" ffdec:has-small-stroke="true" ffdec:original-stroke-width="0.5" fill="none" stroke="#600000" stroke-linecap="round" stroke-linejoin="round" stroke-width="1.0101985015768038"/>
      <path d="M-12.8 11.25 Q-0.8 4.35 12.9 11.25 L0.05 19.1 -12.8 11.25" fill="#811200" fill-rule="evenodd" stroke="none"/>
      <path d="M-12.8 11.25 Q-0.8 4.35 12.9 11.25 L0.05 19.1 -12.8 11.25 Z" ffdec:has-small-stroke="true" ffdec:original-stroke-width="0.5" fill="none" stroke="#cf2700" stroke-linecap="round" stroke-linejoin="round" stroke-width="1.0101985015768038"/>
      <path d="M21.1 -0.85 L21.0 1.6 Q20.2 8.0 14.95 12.8 13.25 14.4 11.35 15.55 1.25 11.55 -11.25 15.55 -13.15 14.4 -14.9 12.8 -20.0 8.0 -20.85 1.6 L-21.05 -0.85 Q-21.05 -4.6 -19.45 -7.85 L-19.4 -7.85 Q-17.85 -10.65 -14.9 -13.05 -8.65 -17.7 0.1 -17.7 8.8 -17.7 14.95 -13.05 18.0 -10.65 19.6 -7.85 21.1 -4.6 21.1 -0.85" fill="#000000" fill-rule="evenodd" stroke="none"/>
      <path d="M21.1 -0.85 L21.0 1.6 Q20.2 8.0 14.95 12.8 13.25 14.4 11.35 15.55 1.25 11.55 -11.25 15.55 -13.15 14.4 -14.9 12.8 -20.0 8.0 -20.85 1.6 L-21.05 -0.85 Q-21.05 -4.6 -19.45 -7.85 L-19.4 -7.85 Q-17.85 -10.65 -14.9 -13.05 -8.65 -17.7 0.1 -17.7 8.8 -17.7 14.95 -13.05 18.0 -10.65 19.6 -7.85 21.1 -4.6 21.1 -0.85 Z" ffdec:has-small-stroke="true" ffdec:original-stroke-width="0.5" fill="none" stroke="#3f3f3f" stroke-linecap="round" stroke-linejoin="round" stroke-width="1.0101985015768038"/>
      <path d="M10.5 -13.1 Q3.25 -1.95 1.65 1.9 L4.05 -15.2 Q4.6 -15.6 7.5 -14.65 10.35 -13.8 10.5 -13.1 M-13.15 -11.6 Q-10.85 -13.4 -9.65 -13.2 L-4.85 4.05 -14.45 -7.65 -15.6 -9.15 Q-14.95 -10.3 -13.15 -11.6 M-18.6 0.6 Q-18.7 -3.05 -17.15 -6.6 L-9.3 1.95 -18.6 0.6 M-1.1 5.5 Q-1.75 2.4 -6.9 -14.35 -4.35 -15.45 -0.6 -15.6 L1.25 -15.4 Q0.3 -8.95 -0.05 -3.6 -0.45 1.3 -0.9 4.0 L-1.1 5.5" fill="#323539" fill-rule="evenodd" stroke="none"/>
      <path d="M-0.15 -18.7 Q-0.1 -18.35 -0.8 -18.1 L-2.45 -17.7 -4.15 -17.85 Q-4.85 -17.95 -4.9 -18.3 L-4.25 -18.95 -2.55 -19.3 -0.9 -19.2 Q-0.15 -19.05 -0.15 -18.7" fill="#b7b8b9" fill-rule="evenodd" stroke="none"/>
      <path d="M0.05 13.95 L0.05 16.7" ffdec:has-small-stroke="true" ffdec:original-stroke-width="1.0" fill="none" stroke="#600000" stroke-linecap="round" stroke-linejoin="round" stroke-width="1.0101985015768038"/>
      <path d="M-3.25 14.35 L-0.25 16.65" ffdec:has-small-stroke="true" ffdec:original-stroke-width="1.0" fill="none" stroke="#600000" stroke-linecap="round" stroke-linejoin="round" stroke-width="1.0101985015768038"/>
      <path d="M3.3 14.35 L0.3 16.65" ffdec:has-small-stroke="true" ffdec:original-stroke-width="1.0" fill="none" stroke="#600000" stroke-linecap="round" stroke-linejoin="round" stroke-width="1.0101985015768038"/>
      <path d="M-12.45 15.3 Q-7.5 18.65 -1.35 19.05" ffdec:has-small-stroke="true" ffdec:original-stroke-width="1.0" fill="none" stroke="#ff2424" stroke-linecap="round" stroke-linejoin="round" stroke-width="1.0101985015768038"/>
      <path d="M12.55 15.3 Q7.6 18.65 1.45 19.05" ffdec:has-small-stroke="true" ffdec:original-stroke-width="1.0" fill="none" stroke="#ff2424" stroke-linecap="round" stroke-linejoin="round" stroke-width="1.0101985015768038"/>
      <path d="M-4.35 15.05 L-3.35 15.75" ffdec:has-small-stroke="true" ffdec:original-stroke-width="1.0" fill="none" stroke="#ff2424" stroke-linecap="round" stroke-linejoin="round" stroke-width="1.0101985015768038"/>
      <path d="M-1.15 14.45 L-0.95 14.85" ffdec:has-small-stroke="true" ffdec:original-stroke-width="1.0" fill="none" stroke="#ff2424" stroke-linecap="round" stroke-linejoin="round" stroke-width="1.0101985015768038"/>
    </g>
    <g id="shape7">
      <path d="M21.1 -0.85 L21.0 1.6 Q20.2 8.0 14.95 12.8 13.25 14.4 11.35 15.55 1.25 11.55 -11.25 15.55 -13.15 14.4 -14.9 12.8 -20.0 8.0 -20.85 1.6 L-21.05 -0.85 Q-21.05 -4.6 -19.45 -7.85 L-19.4 -7.85 Q-17.85 -10.65 -14.9 -13.05 -8.65 -17.7 0.1 -17.7 8.8 -17.7 14.95 -13.05 18.0 -10.65 19.6 -7.85 21.1 -4.6 21.1 -0.85 Z" ffdec:has-small-stroke="true" ffdec:original-stroke-width="0.5" fill="none" stroke="#3f3f3f" stroke-linecap="round" stroke-linejoin="round" stroke-width="1.0101985015768038"/>
      <path d="M8.3 2.6 Q9.45 2.5 10.1 5.0 10.8 7.45 6.5 6.85 L0.75 6.2 Q-0.7 6.2 -6.4 7.75 -8.45 7.65 -10.95 3.65 -10.85 2.3 -6.3 2.15 L-5.1 2.0 -0.95 1.8 5.25 2.1 8.3 2.6" fill="#8a0000" fill-rule="evenodd" stroke="none"/>
      <path d="M8.3 2.6 Q9.45 2.5 10.1 5.0 10.8 7.45 6.5 6.85 L0.75 6.2 Q-0.7 6.2 -6.4 7.75 -8.45 7.65 -10.95 3.65 -10.85 2.3 -6.3 2.15 L-5.1 2.0 -0.95 1.8 5.25 2.1 8.3 2.6 Z" fill="none" stroke="#ffffff" stroke-linecap="round" stroke-linejoin="round" stroke-width="2.0"/>
      <path d="M8.7 2.45 Q9.75 2.85 9.95 5.0 10.2 7.05 6.1 6.5 L0.7 6.05 -6.4 7.75 Q-8.45 7.65 -10.95 3.65 -10.85 2.3 -6.3 2.15 L-5.1 2.0 -0.95 1.8 5.25 2.1 8.7 2.45" fill="#dc0000" fill-rule="evenodd" stroke="none"/>
    </g>
    <g id="sprite5">
      <use ffdec:characterId="8" height="19.9" transform="matrix(1.0, 0.0, 0.0, 1.0, 0.0, 0.0)" width="3.85" xlink:href="#shape8"/>
    </g>
    <g id="shape8">
      <path d="M1.65 -9.7 L1.65 9.25 Q-0.15 10.15 -1.7 9.25 L-1.7 -9.7 1.65 -9.7" fill="#811200" fill-rule="evenodd" stroke="none"/>
      <path d="M1.65 -9.7 L1.65 9.25 Q-0.15 10.15 -1.7 9.25 L-1.7 -9.7" ffdec:has-small-stroke="true" ffdec:original-stroke-width="0.5" fill="none" stroke="#cf2700" stroke-linecap="round" stroke-linejoin="round" stroke-width="1.0000664117774158"/>
      <path d="M-1.3 -7.4 L-1.3 8.9" ffdec:has-small-stroke="true" ffdec:original-stroke-width="1.0" fill="none" stroke="#600000" stroke-linecap="round" stroke-linejoin="round" stroke-width="1.0000664117774158"/>
      <path d="M1.05 -7.4 L1.05 8.9" ffdec:has-small-stroke="true" ffdec:original-stroke-width="1.0" fill="none" stroke="#600000" stroke-linecap="round" stroke-linejoin="round" stroke-width="1.0000664117774158"/>
      <path d="M-0.7 -8.3 L-0.7 9.0" ffdec:has-small-stroke="true" ffdec:original-stroke-width="1.0" fill="none" stroke="#ff2424" stroke-linecap="round" stroke-linejoin="round" stroke-width="1.0000664117774158"/>
    </g>
    <g id="sprite6">
      <use ffdec:characterId="32" height="11.8" transform="matrix(-0.9507, -0.0435, 0.0, 1.0, -5.1, 0.5)" width="17.7" xlink:href="#sprite7"/>
      <use ffdec:characterId="32" height="11.8" transform="matrix(1.0, 0.0, 0.0, 1.0, 4.65, 0.95)" width="17.7" xlink:href="#sprite8"/>
      <use ffdec:characterId="16" height="1.0" transform="matrix(1.0, 0.0, 0.0, 1.0, -0.5, 0.3)" width="8.85" xlink:href="#sprite9"/>
    </g>
    <g id="sprite7">
      <use ffdec:characterId="31" height="11.8" transform="matrix(1.0, 0.0, 0.0, 1.0, 0.0, 0.0)" width="17.7" xlink:href="#shape9"/>
    </g>
    <g id="shape9">
      <path d="M8.65 -1.2 L7.95 1.5 Q7.1 3.15 4.5 4.25 L1.0 5.2 Q0.05 2.0 -1.3 -0.8 L-7.5 -0.95 -2.8 -5.7 -0.4 -5.95 Q2.25 -4.15 3.15 -3.85 L8.65 -1.2" fill="#c20000" fill-rule="evenodd" stroke="none"/>
      <path d="M8.65 -1.2 L7.95 1.5 Q7.1 3.15 4.5 4.25 L1.0 5.2 Q0.05 2.0 -1.3 -0.8 L-7.5 -0.95 -2.8 -5.7 -0.4 -5.95 Q2.25 -4.15 3.15 -3.85 L8.65 -1.2 Z" ffdec:has-small-stroke="true" ffdec:original-stroke-width="0.5" fill="none" stroke="#6c0000" stroke-linecap="round" stroke-linejoin="round" stroke-width="1.0255847271740683"/>
      <path d="M-0.25 -6.35 L-4.45 -0.55 -8.6 -0.55 -3.05 -6.1 -0.25 -6.35" fill="#fc9200" fill-rule="evenodd" stroke="none"/>
      <path d="M0.8 -4.35 L0.7 -3.7 Q-0.65 -1.55 0.3 0.55 4.0 -7.2 1.2 5.35 0.0 1.6 -0.6 0.6 -1.2 -0.45 -0.65 -1.5 -0.15 -2.6 -0.15 -3.5 -0.2 -4.4 0.2 -4.55 0.6 -4.7 0.8 -4.35" fill="#760000" fill-rule="evenodd" stroke="none"/>
      <path d="M-3.05 -5.95 L-8.55 -0.7" ffdec:has-small-stroke="true" ffdec:original-stroke-width="0.5" fill="none" stroke="#d63200" stroke-linecap="round" stroke-linejoin="round" stroke-width="1.0255847271740683"/>
      <path d="M5.1 -1.2 L4.45 -1.2 5.05 -2.35 Q5.55 -3.2 5.55 -2.35 L5.1 -1.2 M2.95 0.9 L2.95 1.45 1.8 2.25 1.6 2.2 2.95 0.9" fill="#ccbfc5" fill-rule="evenodd" stroke="none"/>
      <path d="M5.1 -1.2 L5.0 -1.0 4.25 0.15 2.95 1.45 2.95 0.9 3.0 0.85 4.05 -0.55 4.45 -1.2 5.1 -1.2" fill="#fbcce2" fill-rule="evenodd" stroke="none"/>
      <path d="M6.6 -0.2 L6.6 -0.9 6.85 -1.0 8.15 -1.45 8.5 -1.15 Q8.5 -0.9 7.65 -0.55 L6.6 -0.2" fill="#ccbfc5" fill-rule="evenodd" stroke="none"/>
      <path d="M6.6 -0.2 L6.1 -0.15 3.55 -0.55 3.85 -0.6 6.6 -0.9 6.6 -0.2" fill="#fbcce2" fill-rule="evenodd" stroke="none"/>
      <path d="M0.25 -1.55 L1.25 -1.2 0.55 -1.0 0.15 -1.05 0.05 -1.3 0.25 -1.55" fill="#fbcce2" fill-rule="evenodd" stroke="none"/>
      <path d="M7.3 0.2 L8.3 -1.3 8.35 -1.3 7.5 0.2 7.3 0.2 M3.7 4.25 L2.75 4.65 2.55 4.55 2.55 4.45 3.7 3.85 3.7 4.25" fill="#ccbfc5" fill-rule="evenodd" stroke="none"/>
      <path d="M7.3 0.2 L7.5 0.2 6.25 1.85 4.7 3.45 3.7 4.25 3.7 3.85 6.1 1.75 7.3 0.2" fill="#fbcce2" fill-rule="evenodd" stroke="none"/>
      <path d="M5.55 3.0 L5.55 2.65 6.35 2.55 Q6.85 2.55 6.85 2.75 L6.8 2.85 6.65 2.9 5.55 3.0 M2.5 2.95 L2.5 3.35 1.4 3.35 1.25 3.05 2.5 2.95" fill="#ccbfc5" fill-rule="evenodd" stroke="none"/>
      <path d="M5.55 2.65 L5.55 3.0 3.25 3.35 2.5 3.35 2.5 2.95 3.15 2.95 3.3 2.85 5.55 2.65" fill="#fbcce2" fill-rule="evenodd" stroke="none"/>
      <path d="M0.7 -3.75 L1.45 -4.25 Q2.0 -4.45 2.0 -4.0 L1.95 -3.85 1.55 -3.6 Q1.5 -3.4 1.1 -3.4 L0.8 -3.35 0.7 -3.4 0.7 -3.75" fill="#fbcce2" fill-rule="evenodd" stroke="none"/>
      <path d="M-1.5 -4.1 L-1.1 -2.9 -0.75 -1.95 -0.95 -1.75 -1.2 -2.05 Q-1.95 -3.75 -1.65 -4.05 -1.6 -4.0 -1.5 -4.1" fill="#fbcce2" fill-rule="evenodd" stroke="none"/>
      <path d="M-3.1 -1.35 L-1.75 -2.45 Q-0.95 -3.15 -0.25 -3.0 L-2.8 -1.25 -3.1 -1.25 -3.1 -1.35" fill="#fbcce2" fill-rule="evenodd" stroke="none"/>
      <path d="M-1.4 -4.9 L-3.0 -2.8 -5.05 -3.5 -3.4 -4.9 Q-3.0 -5.2 -1.4 -4.9" fill="#ffd600" fill-rule="evenodd" stroke="none"/>
      <path d="M2.65 -1.0 L3.65 -0.65 2.95 -0.45 2.55 -0.5 Q2.45 -0.55 2.45 -0.75 L2.65 -1.0" fill="#fbcce2" fill-rule="evenodd" stroke="none"/>
    </g>
    <g id="sprite8">
      <use ffdec:characterId="31" height="11.8" transform="matrix(1.0, 0.0, 0.0, 1.0, 0.0, 0.0)" width="17.7" xlink:href="#shape10"/>
    </g>
    <g id="shape10">
      <path d="M8.65 -1.2 L7.95 1.5 Q7.1 3.15 4.5 4.25 L1.0 5.2 Q0.05 2.0 -1.3 -0.8 L-7.5 -0.95 -2.8 -5.7 -0.4 -5.95 Q2.25 -4.15 3.15 -3.85 L8.65 -1.2" fill="#c20000" fill-rule="evenodd" stroke="none"/>
      <path d="M8.65 -1.2 L7.95 1.5 Q7.1 3.15 4.5 4.25 L1.0 5.2 Q0.05 2.0 -1.3 -0.8 L-7.5 -0.95 -2.8 -5.7 -0.4 -5.95 Q2.25 -4.15 3.15 -3.85 L8.65 -1.2 Z" ffdec:has-small-stroke="true" ffdec:original-stroke-width="0.5" fill="none" stroke="#6c0000" stroke-linecap="round" stroke-linejoin="round" stroke-width="1.0"/>
      <path d="M-0.25 -6.35 L-4.45 -0.55 -8.6 -0.55 -3.05 -6.1 -0.25 -6.35" fill="#fc9200" fill-rule="evenodd" stroke="none"/>
      <path d="M0.8 -4.35 L0.7 -3.7 Q-0.65 -1.55 0.3 0.55 4.0 -7.2 1.2 5.35 0.0 1.6 -0.6 0.6 -1.2 -0.45 -0.65 -1.5 -0.15 -2.6 -0.15 -3.5 -0.2 -4.4 0.2 -4.55 0.6 -4.7 0.8 -4.35" fill="#760000" fill-rule="evenodd" stroke="none"/>
      <path d="M-3.05 -5.95 L-8.55 -0.7" ffdec:has-small-stroke="true" ffdec:original-stroke-width="0.5" fill="none" stroke="#d63200" stroke-linecap="round" stroke-linejoin="round" stroke-width="1.0"/>
      <path d="M5.1 -1.2 L4.45 -1.2 5.05 -2.35 Q5.55 -3.2 5.55 -2.35 L5.1 -1.2 M2.95 0.9 L2.95 1.45 1.8 2.25 1.6 2.2 2.95 0.9" fill="#ccbfc5" fill-rule="evenodd" stroke="none"/>
      <path d="M5.1 -1.2 L5.0 -1.0 4.25 0.15 2.95 1.45 2.95 0.9 3.0 0.85 4.05 -0.55 4.45 -1.2 5.1 -1.2" fill="#fbcce2" fill-rule="evenodd" stroke="none"/>
      <path d="M6.6 -0.2 L6.6 -0.9 6.85 -1.0 8.15 -1.45 8.5 -1.15 Q8.5 -0.9 7.65 -0.55 L6.6 -0.2" fill="#ccbfc5" fill-rule="evenodd" stroke="none"/>
      <path d="M6.6 -0.2 L6.1 -0.15 3.55 -0.55 3.85 -0.6 6.6 -0.9 6.6 -0.2" fill="#fbcce2" fill-rule="evenodd" stroke="none"/>
      <path d="M0.25 -1.55 L1.25 -1.2 0.55 -1.0 0.15 -1.05 0.05 -1.3 0.25 -1.55" fill="#fbcce2" fill-rule="evenodd" stroke="none"/>
      <path d="M7.3 0.2 L8.3 -1.3 8.35 -1.3 7.5 0.2 7.3 0.2 M3.7 4.25 L2.75 4.65 2.55 4.55 2.55 4.45 3.7 3.85 3.7 4.25" fill="#ccbfc5" fill-rule="evenodd" stroke="none"/>
      <path d="M7.3 0.2 L7.5 0.2 6.25 1.85 4.7 3.45 3.7 4.25 3.7 3.85 6.1 1.75 7.3 0.2" fill="#fbcce2" fill-rule="evenodd" stroke="none"/>
      <path d="M5.55 3.0 L5.55 2.65 6.35 2.55 Q6.85 2.55 6.85 2.75 L6.8 2.85 6.65 2.9 5.55 3.0 M2.5 2.95 L2.5 3.35 1.4 3.35 1.25 3.05 2.5 2.95" fill="#ccbfc5" fill-rule="evenodd" stroke="none"/>
      <path d="M5.55 2.65 L5.55 3.0 3.25 3.35 2.5 3.35 2.5 2.95 3.15 2.95 3.3 2.85 5.55 2.65" fill="#fbcce2" fill-rule="evenodd" stroke="none"/>
      <path d="M0.7 -3.75 L1.45 -4.25 Q2.0 -4.45 2.0 -4.0 L1.95 -3.85 1.55 -3.6 Q1.5 -3.4 1.1 -3.4 L0.8 -3.35 0.7 -3.4 0.7 -3.75" fill="#fbcce2" fill-rule="evenodd" stroke="none"/>
      <path d="M-1.5 -4.1 L-1.1 -2.9 -0.75 -1.95 -0.95 -1.75 -1.2 -2.05 Q-1.95 -3.75 -1.65 -4.05 -1.6 -4.0 -1.5 -4.1" fill="#fbcce2" fill-rule="evenodd" stroke="none"/>
      <path d="M-3.1 -1.35 L-1.75 -2.45 Q-0.95 -3.15 -0.25 -3.0 L-2.8 -1.25 -3.1 -1.25 -3.1 -1.35" fill="#fbcce2" fill-rule="evenodd" stroke="none"/>
      <path d="M-1.4 -4.9 L-3.0 -2.8 -5.05 -3.5 -3.4 -4.9 Q-3.0 -5.2 -1.4 -4.9" fill="#ffd600" fill-rule="evenodd" stroke="none"/>
      <path d="M2.65 -1.0 L3.65 -0.65 2.95 -0.45 2.55 -0.5 Q2.45 -0.55 2.45 -0.75 L2.65 -1.0" fill="#fbcce2" fill-rule="evenodd" stroke="none"/>
    </g>
    <g id="sprite9">
      <use ffdec:characterId="15" height="1.0" transform="matrix(1.0, 0.0, 0.0, 1.0, 0.0, 0.0)" width="8.85" xlink:href="#shape11"/>
    </g>
    <g id="shape11">
      <path d="M4.4 -0.5 L4.4 0.5 -4.45 0.5 -4.45 -0.5 4.4 -0.5" fill="#fff700" fill-rule="evenodd" stroke="none"/>
    </g>
  </defs>
</svg>
