<?xml version="1.0" encoding="UTF-8" standalone="no"?>
<svg xmlns:ffdec="https://www.free-decompiler.com/flash" xmlns:xlink="http://www.w3.org/1999/xlink" ffdec:objectType="frame" height="20.85px" width="36.3px" xmlns="http://www.w3.org/2000/svg">
  <g transform="matrix(1.0, 0.0, 0.0, 1.0, 23.9, -12.4)">
    <use ffdec:characterId="45" height="7.45" transform="matrix(1.0, 0.0, 0.0, 1.0, -9.8, 25.95)" width="8.95" xlink:href="#sprite0"/>
    <use ffdec:characterId="45" height="7.45" transform="matrix(-1.0, 0.0, 0.0, 1.0, 9.75, 25.95)" width="8.95" xlink:href="#sprite0"/>
    <use ffdec:characterId="47" height="9.35" transform="matrix(0.866, 0.5, -0.5, 0.866, -3.7, 18.95)" width="5.1" xlink:href="#sprite2"/>
    <use ffdec:characterId="47" height="9.35" transform="matrix(-0.866, 0.5, 0.5, 0.866, 3.35, 18.95)" width="5.1" xlink:href="#sprite2"/>
    <use ffdec:characterId="48" height="9.65" transform="matrix(1.0, 0.0, 0.0, 1.0, 0.0, 0.0)" width="11.3" xlink:href="#shape4"/>
    <use ffdec:characterId="49" height="8.6" transform="matrix(1.0, 0.0, 0.0, 1.0, -14.0, 14.35)" width="11.4" xlink:href="#sprite3"/>
    <use ffdec:characterId="49" height="8.6" transform="matrix(-1.0, 0.0, 0.0, 1.0, 13.9, 14.35)" width="11.4" xlink:href="#sprite3"/>
    <use ffdec:characterId="50" height="11.1" transform="matrix(1.0, 0.0, 0.0, 1.0, 0.0, 0.0)" width="9.2" xlink:href="#shape6"/>
    <use ffdec:characterId="51" height="11.55" transform="matrix(-0.7071, -0.7071, -0.7071, 0.7071, 4.5, 14.5)" width="4.8" xlink:href="#sprite4"/>
    <use ffdec:characterId="52" height="5.65" transform="matrix(1.0, 0.0, 0.0, 1.0, 0.0, 0.0)" width="13.3" xlink:href="#shape8"/>
    <use ffdec:characterId="12" height="28.7" transform="matrix(0.415, 0.0, 0.0, 0.415, -22.15, 16.2)" width="51.6" xlink:href="#sprite5"/>
    <use ffdec:characterId="24" height="2.8" transform="matrix(0.8986, 0.0, 0.0, 0.8986, -13.9, 23.75)" width="6.7" xlink:href="#sprite8"/>
  </g>
  <defs>
    <g id="sprite0">
      <use ffdec:characterId="42" height="6.05" transform="matrix(1.0, 0.0, 0.0, 1.0, 0.0, 0.0)" width="8.6" xlink:href="#shape0"/>
      <use ffdec:characterId="43" height="4.1" transform="matrix(1.0, 0.0, 0.0, 1.0, 1.1, 0.0)" width="7.05" xlink:href="#sprite1"/>
      <use ffdec:characterId="44" height="4.4" transform="matrix(1.0, 0.0, 0.0, 1.0, 0.0, 0.0)" width="5.0" xlink:href="#shape2"/>
    </g>
    <g id="shape0">
      <path d="M0.0 2.65 L0.0 2.2 0.05 2.15 0.35 2.45 0.5 2.9 1.05 3.3 4.35 3.7 5.65 3.55 5.7 3.5 6.3 3.05 7.15 1.95 7.2 1.85 7.35 1.5 Q7.45 1.3 7.6 1.3 L7.65 1.3 7.85 1.3 7.95 1.3 8.0 1.35 8.2 1.6 Q8.25 3.1 7.3 3.75 L6.85 3.9 5.65 4.0 4.35 4.05 2.95 4.0 Q1.15 3.8 0.0 2.65" fill="#8c5220" fill-rule="evenodd" stroke="none"/>
      <path d="M8.2 1.6 Q8.85 2.5 8.45 3.65 L7.85 4.45 Q7.25 4.9 6.5 5.0 L6.05 5.0 5.65 5.0 5.65 4.0 6.85 3.9 7.3 3.75 Q8.25 3.1 8.2 1.6" fill="#c88b56" fill-rule="evenodd" stroke="none"/>
      <path d="M5.65 5.0 L3.45 5.0 2.6 5.0 2.15 4.9 Q1.1 4.75 0.55 4.3 L0.0 3.5 0.0 2.65 Q1.15 3.8 2.95 4.0 L4.35 4.05 5.65 4.0 5.65 5.0" fill="#eeb482" fill-rule="evenodd" stroke="none"/>
      <path d="M6.7 7.1 L6.05 7.1 6.05 5.0 6.5 5.0 6.7 5.0 6.7 7.1 M2.6 7.3 L2.15 7.3 Q1.2 7.2 0.55 6.75 L0.55 4.3 Q1.1 4.75 2.15 4.9 L2.6 5.0 2.6 7.3" fill="#c78954" fill-rule="evenodd" stroke="none"/>
      <path d="M7.85 4.45 L7.85 6.5 7.15 7.0 6.7 7.1 6.7 5.0 6.5 5.0 Q7.25 4.9 7.85 4.45 M3.45 5.0 L3.45 7.25 2.6 7.3 2.6 5.0 3.45 5.0" fill="#603d1f" fill-rule="evenodd" stroke="none"/>
    </g>
    <g id="sprite1">
      <use ffdec:characterId="13" height="4.1" transform="matrix(1.0, 0.0, 0.0, 1.0, 0.0, 0.0)" width="7.05" xlink:href="#shape1"/>
    </g>
    <g id="shape1">
      <path d="M0.2 3.2 L0.05 2.9 0.0 2.6 Q0.0 1.55 1.05 0.8 2.05 0.05 3.55 0.05 4.7 0.05 5.6 0.55 L6.05 0.8 6.65 1.4 Q6.3 3.15 3.35 3.2 L0.2 3.2" fill="#ffffff" fill-rule="evenodd" stroke="none"/>
      <path d="M6.65 1.4 Q7.05 1.9 7.05 2.6 L7.05 2.9 6.9 3.2 6.05 3.7 5.6 3.9 3.55 4.15 1.05 3.7 0.2 3.2 3.35 3.2 Q6.3 3.15 6.65 1.4" fill="#e8d5fc" fill-rule="evenodd" stroke="none"/>
    </g>
    <g id="shape2">
      <path d="M1.35 1.7 L1.5 1.6 3.85 1.55 Q4.9 2.15 4.6 3.7 L4.5 3.95 4.45 4.05 3.7 4.25 3.3 4.05 3.45 3.55 3.2 2.95 2.6 2.7 Q2.25 2.7 2.0 2.95 L1.85 3.15 1.8 3.2 1.85 3.2 1.8 3.2 1.2 3.95 Q0.2 3.8 0.0 3.1 -0.8 1.65 0.2 0.25 L0.6 -0.1 0.9 -0.15 Q1.35 -0.15 1.6 0.25 1.8 0.7 1.5 1.1 L1.4 1.2 1.35 1.6 1.35 1.7" fill="#af0020" fill-rule="evenodd" stroke="none"/>
      <path d="M4.05 2.0 L3.7 2.4 2.75 2.55 1.85 2.4 1.45 2.0 Q1.45 1.75 1.85 1.6 L2.75 1.45 3.7 1.6 4.05 2.0" fill="#ff002e" fill-rule="evenodd" stroke="none"/>
    </g>
    <g id="sprite2">
      <use ffdec:characterId="46" height="9.35" transform="matrix(1.0, 0.0, 0.0, 1.0, 0.0, 0.0)" width="5.1" xlink:href="#shape3"/>
    </g>
    <g id="shape3">
      <path d="M0.0 0.0 L5.1 0.0 5.1 6.45 0.0 9.35 0.0 0.0" fill="#000000" fill-rule="evenodd" stroke="none"/>
    </g>
    <g id="shape4">
      <path d="M-5.75 14.9 L5.55 14.9 5.55 24.55 -5.75 24.55 -5.75 14.9" fill="#e6d7f5" fill-rule="evenodd" stroke="none"/>
    </g>
    <g id="sprite3">
      <use ffdec:characterId="28" height="8.6" transform="matrix(1.0, 0.0, 0.0, 1.0, 0.0, 0.0)" width="11.4" xlink:href="#shape5"/>
    </g>
    <g id="shape5">
      <path d="M6.6 7.25 L1.5 4.35 6.45 -0.3 11.05 0.25 12.35 2.1 6.6 7.25" fill="#ffffff" fill-rule="evenodd" stroke="none"/>
      <path d="M6.6 7.25 L12.35 2.1 12.9 2.9 8.4 8.3 6.6 7.25" fill="#e6d7f5" fill-rule="evenodd" stroke="none"/>
    </g>
    <g id="shape6">
      <path d="M-4.25 14.9 L4.05 14.9 4.05 24.55 -4.25 24.55 -4.25 14.9" fill="#ffffff" fill-rule="evenodd" stroke="none"/>
      <path d="M-4.95 14.1 L-2.45 13.45 -2.3 13.5 -2.2 13.55 0.55 17.35 0.6 17.45 0.6 17.6 -0.5 20.15 -0.6 20.25 -0.8 20.3 -0.95 20.2 -5.1 14.5 -5.15 14.35 -5.1 14.2 -4.95 14.1" fill="#cd0001" fill-rule="evenodd" stroke="none"/>
    </g>
    <g id="sprite4">
      <use ffdec:characterId="2" height="11.55" transform="matrix(1.0, 0.0, 0.0, 1.0, 0.0, 0.0)" width="4.8" xlink:href="#shape7"/>
    </g>
    <g id="shape7">
      <path d="M2.1 1.25 L0.65 10.9 0.55 11.05 0.4 11.1 -1.95 10.85 -2.1 10.8 -2.15 10.7 -2.2 10.55 -0.6 -0.1 -0.5 -0.25 -0.35 -0.35 -0.2 -0.3 2.0 1.0 2.1 1.1 2.1 1.25" fill="#500000" fill-rule="evenodd" stroke="none"/>
      <path d="M2.6 1.35 L1.15 11.0 1.05 11.15 0.9 11.2 -1.45 10.95 -1.6 10.9 -1.65 10.8 -1.7 10.65 -0.1 0.0 0.0 -0.15 0.15 -0.25 0.3 -0.2 2.5 1.1 2.6 1.2 2.6 1.35" fill="#dd0000" fill-rule="evenodd" stroke="none"/>
      <path d="M0.85 6.75 L0.1 7.5 -0.6 6.8 0.15 6.05 0.85 6.75" fill="#ffffff" fill-rule="evenodd" stroke="none"/>
      <path d="M0.1 4.15 L1.2 4.5 0.9 5.65 -0.25 5.35 0.1 4.15" fill="#ffffff" fill-rule="evenodd" stroke="none"/>
      <path d="M1.45 3.05 L1.25 3.6 0.7 3.8 Q0.4 3.8 0.2 3.6 L-0.05 3.05 Q-0.05 2.75 0.2 2.55 0.4 2.3 0.7 2.3 1.0 2.3 1.25 2.55 L1.45 3.05" fill="#ffffff" fill-rule="evenodd" stroke="none"/>
    </g>
    <g id="shape8">
      <path d="M-4.8 21.35 L4.95 21.35 6.65 25.85 -6.55 25.85 -4.8 21.35" fill="#ffffff" fill-rule="evenodd" stroke="none"/>
      <path d="M-4.8 21.35 L4.95 21.35 6.65 25.85 -6.55 25.85 -4.8 21.35 Z" ffdec:has-small-stroke="true" ffdec:original-stroke-width="0.1" fill="none" stroke="#a47acd" stroke-linecap="round" stroke-linejoin="round" stroke-width="1.0"/>
      <path d="M-6.15 20.3 L6.25 20.3 6.25 21.6 -6.15 21.6 -6.15 20.3" fill="#ffffff" fill-rule="evenodd" stroke="none"/>
      <path d="M-6.15 20.3 L6.25 20.3 6.25 21.6 -6.15 21.6 -6.15 20.3 Z" ffdec:has-small-stroke="true" ffdec:original-stroke-width="0.1" fill="none" stroke="#a47acd" stroke-linecap="round" stroke-linejoin="round" stroke-width="1.0"/>
    </g>
    <g id="sprite5">
      <use ffdec:characterId="7" height="28.7" transform="matrix(1.0, 0.0, 0.0, 1.0, 0.0, 0.0)" width="51.6" xlink:href="#shape9"/>
      <use ffdec:characterId="9" height="3.85" transform="matrix(1.0, 0.0, 0.0, 1.0, 15.15, -2.45)" width="3.9" xlink:href="#sprite6"/>
      <use ffdec:characterId="9" height="3.85" transform="matrix(1.0, 0.0, 0.0, 1.0, 18.75, -1.1)" width="3.9" xlink:href="#sprite6"/>
      <use ffdec:characterId="9" height="3.85" transform="matrix(1.0, 0.0, 0.0, 1.0, 19.25, -3.8)" width="3.9" xlink:href="#sprite6"/>
      <use ffdec:characterId="11" height="5.35" transform="matrix(1.0, 0.0, 0.0, 1.0, 17.0, -6.05)" width="4.75" xlink:href="#sprite7"/>
      <use ffdec:characterId="11" height="5.35" transform="matrix(1.0, 0.0, 0.0, 1.0, 18.8, -2.85)" width="4.75" xlink:href="#sprite7"/>
    </g>
    <g id="shape9">
      <path d="M17.0 9.65 L22.65 9.65 Q24.5 9.65 25.75 10.95 27.1 12.3 27.1 14.15 27.1 16.0 25.75 17.25 24.5 18.6 22.65 18.6 L17.0 18.6 Q15.15 18.6 13.85 17.25 12.55 16.0 12.55 14.15 12.55 12.3 13.85 10.95 15.15 9.65 17.0 9.65" fill="#ffffff" fill-rule="evenodd" stroke="none"/>
      <path d="M33.65 17.1 Q33.3 18.2 32.35 19.05 30.95 20.6 28.85 20.6 L18.45 20.6 18.35 20.6 11.9 20.6 Q9.8 20.6 8.35 19.05 7.45 18.2 7.1 17.1 L33.65 17.1" fill="#ffffff" fill-rule="evenodd" stroke="none"/>
      <path d="M7.1 17.1 L6.85 15.55 Q6.85 14.85 7.0 14.25 7.35 12.9 8.35 11.9 9.8 10.4 11.9 10.4 L18.35 10.4 18.45 10.4 28.85 10.4 Q30.95 10.4 32.35 11.9 33.4 12.9 33.75 14.25 L33.9 15.55 33.65 17.1 7.1 17.1" fill="#cea5ff" fill-rule="evenodd" stroke="none"/>
      <path d="M7.1 17.1 L6.85 15.55 Q6.85 14.85 7.0 14.25 7.35 12.9 8.35 11.9 9.8 10.4 11.9 10.4 L18.35 10.4 18.45 10.4 28.85 10.4 Q30.95 10.4 32.35 11.9 33.4 12.9 33.75 14.25 L33.9 15.55 33.65 17.1 Q33.3 18.2 32.35 19.05 30.95 20.6 28.85 20.6 L18.45 20.6 18.35 20.6 11.9 20.6 Q9.8 20.6 8.35 19.05 7.45 18.2 7.1 17.1 Z" ffdec:has-small-stroke="true" ffdec:original-stroke-width="0.5" fill="none" stroke="#160b29" stroke-linecap="round" stroke-linejoin="round" stroke-width="2.4096775379637463"/>
      <path d="M25.75 -1.0 Q25.0 2.85 22.2 5.55 19.2 8.45 15.1 7.25 10.8 5.8 13.15 1.2 13.8 -0.1 14.75 -1.05 19.8 -2.1 25.75 -1.0" fill="#ff5200" fill-rule="evenodd" stroke="none"/>
      <path d="M11.95 -0.3 L14.75 -1.05 Q13.8 -0.1 13.15 1.2 10.8 5.8 15.1 7.25 19.2 8.45 22.2 5.55 25.0 2.85 25.75 -1.0 L30.7 0.25 Q32.4 0.85 33.95 1.7 L34.8 2.2 35.85 2.95 Q36.1 6.0 32.95 7.9 L30.9 8.85 27.5 9.85 9.4 9.85 9.25 9.6 8.9 8.55 Q7.85 4.45 11.95 -0.3" fill="#ee2a00" fill-rule="evenodd" stroke="none"/>
      <path d="M11.95 -0.3 Q7.85 4.45 8.9 8.55 L9.25 9.6 9.4 9.85 9.25 9.85 7.15 10.9 6.6 11.15 6.4 11.25 3.1 12.55 1.45 13.25 0.9 13.4 Q-1.0 11.6 0.9 7.45 L1.45 6.7 1.9 6.05 3.55 4.45 Q6.6 1.65 10.5 0.25 L11.95 -0.3 M41.7 5.5 L45.15 5.4 46.1 6.25 46.85 7.05 Q46.15 7.35 46.2 7.4 L46.25 7.5 40.35 11.8 Q37.2 13.4 34.05 11.8 L33.2 11.5 37.9 8.2 38.0 7.45 41.7 5.5" fill="#ca0000" fill-rule="evenodd" stroke="none"/>
      <path d="M33.2 11.5 L34.05 11.8 Q37.2 13.4 40.35 11.8 L46.25 7.5 46.9 7.1 47.0 7.2 46.95 7.45 46.65 9.6 46.65 10.2 46.25 11.3 46.05 11.65 45.95 11.8 45.85 12.0 46.05 11.95 46.25 11.9 46.25 11.95 45.3 12.6 42.25 14.95 Q37.15 17.8 31.35 14.95 L30.9 14.8 30.9 10.65 31.1 10.7 31.25 10.75 33.2 11.5" fill="#fffefe" fill-rule="evenodd" stroke="none"/>
      <path d="M27.5 9.85 L30.9 8.85 32.95 7.9 Q36.1 6.0 35.85 2.95 L37.0 3.8 37.2 3.95 38.3 4.7 39.05 5.2 40.2 5.4 40.3 5.55 41.7 5.5 38.0 7.45 37.9 8.2 33.2 11.5 31.25 10.75 31.1 10.7 30.9 10.65 29.15 9.9 29.05 9.85 27.5 9.85" fill="#c10000" fill-rule="evenodd" stroke="none"/>
      <path d="M9.4 9.85 L27.5 9.85 29.05 9.85 29.15 9.9 30.9 10.65 30.9 14.8 30.6 14.65 7.5 14.65 7.25 14.8 7.2 14.9 7.15 14.85 6.4 15.2 4.65 15.95 -2.55 17.65 -3.55 17.0 -4.2 16.35 -3.65 15.6 -3.75 14.75 -3.55 14.5 -2.9 13.3 0.9 13.4 1.45 13.25 3.1 12.55 6.4 11.25 6.6 11.15 7.15 10.9 9.25 9.85 9.4 9.85" fill="#ffbece" fill-rule="evenodd" stroke="none"/>
      <path d="M-2.9 13.3 L-1.3 10.5 0.15 8.45 0.9 7.45 Q-1.0 11.6 0.9 13.4 L-2.9 13.3" fill="#6f0000" fill-rule="evenodd" stroke="none"/>
      <path d="M12.65 -0.5 Q16.15 -1.9 20.05 -1.55 L10.1 9.55 12.65 -0.5 M22.75 -1.4 L27.25 -0.7 18.15 9.3 22.75 -1.4 M30.9 0.35 L34.1 1.8 26.0 9.2 30.9 0.35 M40.95 5.45 L33.25 10.8 37.85 4.6 40.95 5.45 M10.4 0.35 L3.05 12.05 3.05 5.0 Q6.1 2.0 10.4 0.35" fill="#ffffff" fill-rule="evenodd" stroke="none"/>
      <path d="M37.0 3.8 Q39.95 6.0 42.75 5.45 45.45 4.85 47.1 7.2 L46.1 12.1 42.25 14.65 Q37.95 18.6 31.1 14.65 L7.5 14.65 Q-4.35 19.6 -4.0 16.0 -1.75 10.3 1.55 6.5 5.3 2.1 10.5 0.25 19.1 -3.4 30.7 0.25 32.9 1.0 34.8 2.2 L37.0 3.8 Z" ffdec:has-small-stroke="true" ffdec:original-stroke-width="0.5" fill="none" stroke="#6e0000" stroke-linecap="round" stroke-linejoin="round" stroke-width="2.4096775379637463"/>
      <path d="M18.05 -6.3 L18.1 -6.3 Q18.6 -6.85 19.35 -6.85 20.2 -6.85 20.75 -6.2 L20.75 -6.15 Q21.3 -5.65 21.3 -4.9 L21.25 -4.45 21.35 -4.35 21.55 -4.4 22.75 -4.05 22.75 -4.0 22.8 -3.95 22.8 -3.9 22.85 -3.85 22.85 -3.8 22.9 -3.75 22.9 -3.7 22.95 -3.65 23.3 -2.75 23.1 -1.85 23.1 -1.7 22.7 -0.6 22.8 -0.1 Q23.3 0.35 23.3 1.05 23.25 1.85 22.7 2.35 L22.65 2.4 Q22.15 2.95 21.35 3.0 20.75 3.0 20.35 2.6 L20.0 2.65 Q19.3 2.7 18.85 2.25 L18.75 2.15 18.75 2.1 18.7 2.05 18.7 2.0 18.65 1.95 18.25 1.2 17.9 0.85 17.75 0.7 17.7 0.75 17.7 0.8 17.65 0.9 17.65 0.95 17.6 0.95 16.4 1.3 Q15.7 1.35 15.25 0.9 L15.15 0.8 15.15 0.75 15.1 0.7 15.1 0.65 15.05 0.6 Q14.7 0.2 14.65 -0.35 L14.7 -0.85 14.6 -0.95 14.5 -1.05 14.5 -1.1 14.45 -1.15 14.45 -1.2 14.4 -1.25 Q14.05 -1.65 14.0 -2.2 14.05 -4.1 15.45 -3.85 15.5 -4.55 16.1 -5.05 16.6 -5.7 17.4 -5.7 L17.6 -5.65 18.05 -6.3 Z" ffdec:has-small-stroke="true" ffdec:original-stroke-width="2.0" fill="none" stroke="#0c2800" stroke-linecap="round" stroke-linejoin="round" stroke-width="2.4096775379637463"/>
      <path d="M16.1 -5.05 Q16.6 -5.7 17.4 -5.7 L17.6 -5.65 18.05 -6.3 18.1 -6.3 Q18.6 -6.85 19.35 -6.85 20.2 -6.85 20.75 -6.2 L20.75 -6.15 Q21.3 -5.65 21.3 -4.9 L21.25 -4.45 21.35 -4.35 21.55 -4.4 22.75 -4.05 22.75 -4.0 22.8 -3.95 22.8 -3.9 22.85 -3.85 22.85 -3.8 22.9 -3.75 22.9 -3.7 22.95 -3.65 23.3 -2.75 23.1 -1.85 23.1 -1.7 22.7 -0.6 22.8 -0.1 Q23.3 0.35 23.3 1.05 23.25 1.85 22.7 2.35 L22.65 2.4 Q22.15 2.95 21.35 3.0 20.75 3.0 20.35 2.6 L20.0 2.65 Q19.3 2.7 18.85 2.25 L18.75 2.15 18.75 2.1 18.7 2.05 18.7 2.0 18.65 1.95 18.25 1.2 17.9 0.85 17.75 0.7 17.7 0.75 17.7 0.8 17.65 0.9 17.65 0.95 17.6 0.95 16.4 1.3 Q15.7 1.35 15.25 0.9 L15.15 0.8 15.15 0.75 15.1 0.7 15.1 0.65 15.05 0.6 Q14.7 0.2 14.65 -0.35 L14.7 -0.85 14.6 -0.95 14.5 -1.05 14.5 -1.1 14.45 -1.15 14.45 -1.2 14.4 -1.25 Q14.05 -1.65 14.0 -2.2 14.05 -4.1 15.45 -3.85 15.5 -4.55 16.1 -5.05" fill="#c5ffab" fill-rule="evenodd" stroke="none"/>
    </g>
    <g id="sprite6">
      <use ffdec:characterId="8" height="3.85" transform="matrix(1.0, 0.0, 0.0, 1.0, 0.0, 0.0)" width="3.9" xlink:href="#shape10"/>
    </g>
    <g id="shape10">
      <path d="M0.6 1.25 Q0.15 1.25 -0.2 0.95 L-0.5 0.25 -0.2 -0.45 0.6 -0.75 1.4 -0.45 1.7 0.2 2.3 0.05 Q2.75 0.05 3.1 0.35 L3.4 1.05 3.1 1.75 2.35 2.05 2.35 2.1 2.05 2.8 1.25 3.1 0.45 2.8 Q0.15 2.5 0.15 2.1 0.15 1.7 0.45 1.4 L0.7 1.25 0.6 1.25" fill="#63c836" fill-rule="evenodd" stroke="none"/>
    </g>
    <g id="sprite7">
      <use ffdec:characterId="10" height="5.35" transform="matrix(1.0, 0.0, 0.0, 1.0, 0.0, 0.0)" width="4.75" xlink:href="#shape11"/>
    </g>
    <g id="shape11">
      <path d="M3.85 3.9 Q3.85 4.45 3.45 4.8 3.1 5.2 2.55 5.2 2.0 5.2 1.65 4.8 1.25 4.45 1.25 3.9 1.25 3.35 1.65 3.0 2.0 2.6 2.55 2.6 3.1 2.6 3.45 3.0 3.85 3.35 3.85 3.9" fill="#97eb6f" fill-rule="evenodd" stroke="none"/>
      <path d="M1.7 2.3 Q1.7 2.85 1.3 3.2 0.95 3.6 0.4 3.6 -0.15 3.6 -0.5 3.2 -0.9 2.85 -0.9 2.3 -0.9 1.75 -0.5 1.4 -0.15 1.0 0.4 1.0 L1.05 1.2 1.05 1.15 Q1.05 0.6 1.45 0.25 1.8 -0.15 2.35 -0.15 2.9 -0.15 3.25 0.25 3.65 0.6 3.65 1.15 3.65 1.7 3.25 2.05 2.9 2.45 2.35 2.45 L1.7 2.3" fill="#ceffb6" fill-rule="evenodd" stroke="none"/>
    </g>
    <g id="sprite8">
      <use ffdec:characterId="23" height="2.8" transform="matrix(1.0, 0.0, 0.0, 1.0, 0.0, 0.0)" width="6.7" xlink:href="#shape12"/>
    </g>
    <g id="shape12">
      <path d="M6.6 1.35 Q6.6 1.95 5.65 2.35 L3.3 2.7 1.0 2.35 Q0.0 1.95 0.0 1.35 0.0 0.8 1.0 0.4 L3.3 0.0 5.65 0.4 Q6.6 0.8 6.6 1.35" fill="#fdbf81" fill-rule="evenodd" stroke="none"/>
      <path d="M6.6 1.35 Q6.6 1.95 5.65 2.35 L3.3 2.7 1.0 2.35 Q0.0 1.95 0.0 1.35 0.0 0.8 1.0 0.4 L3.3 0.0 5.65 0.4 Q6.6 0.8 6.6 1.35 Z" ffdec:has-small-stroke="true" ffdec:original-stroke-width="0.1" fill="none" stroke="#110600" stroke-linecap="round" stroke-linejoin="round" stroke-width="1.1128166813828704"/>
      <path d="M5.45 0.85 Q5.45 1.15 4.8 1.35 L3.25 1.6 1.7 1.35 Q1.05 1.15 1.05 0.85 1.05 0.5 1.7 0.3 L3.25 0.1 4.8 0.3 Q5.45 0.5 5.45 0.85" fill="#ffead7" fill-rule="evenodd" stroke="none"/>
    </g>
  </defs>
</svg>
