<?xml version="1.0" encoding="UTF-8" standalone="no"?>
<svg xmlns:ffdec="https://www.free-decompiler.com/flash" xmlns:xlink="http://www.w3.org/1999/xlink" ffdec:objectType="frame" height="30.85px" width="58.4px" xmlns="http://www.w3.org/2000/svg">
  <g transform="matrix(1.0, 0.0, 0.0, 1.0, 34.95, -3.55)">
    <use ffdec:characterId="36" height="6.75" transform="matrix(1.0, 0.0, 0.0, 1.0, -5.95, 29.1)" width="10.65" xlink:href="#sprite0"/>
    <use ffdec:characterId="36" height="6.75" transform="matrix(-1.0, 0.0, 0.0, 1.0, 5.1, 29.05)" width="10.65" xlink:href="#sprite0"/>
    <use ffdec:characterId="38" height="7.35" transform="matrix(-1.0, 0.0, 0.0, 1.0, -0.75, 23.05)" width="7.15" xlink:href="#sprite1"/>
    <use ffdec:characterId="38" height="7.35" transform="matrix(1.0, 0.0, 0.0, 1.0, -0.1, 23.05)" width="7.15" xlink:href="#sprite1"/>
    <use ffdec:characterId="43" height="10.5" transform="matrix(1.0, 0.0, 0.0, 1.0, 0.4, 15.5)" width="20.75" xlink:href="#sprite2"/>
    <use ffdec:characterId="22" height="21.4" transform="matrix(0.55, -0.0024, 0.0024, 0.55, 11.15, 19.6)" width="38.65" xlink:href="#sprite3"/>
    <use ffdec:characterId="8" height="60.7" transform="matrix(0.3841, -0.1104, 0.1104, 0.3841, -20.95, 15.95)" width="68.6" xlink:href="#sprite7"/>
  </g>
  <defs>
    <g id="sprite0">
      <use ffdec:characterId="35" height="6.75" transform="matrix(1.0, 0.0, 0.0, 1.0, 0.0, 0.0)" width="10.65" xlink:href="#shape0"/>
    </g>
    <g id="shape0">
      <path d="M-5.1 0.3 Q-5.0 0.05 -5.05 -0.35 L-4.8 -1.05 -4.4 -1.4 Q-3.8 -2.25 -2.45 -2.5 L-1.8 -2.6 Q-0.9 -2.2 -0.25 -1.0 L0.15 0.2 Q-1.3 1.85 -3.4 1.1 L-5.1 0.3" fill="#ffffff" fill-rule="evenodd" stroke="none"/>
      <path d="M3.2 1.85 Q2.6 2.05 1.9 2.35 L1.3 2.55 Q-0.2 3.75 -2.2 3.8 L-4.8 3.45 -4.9 2.85 -4.95 1.45 -4.95 1.1 Q-4.95 0.6 -5.1 0.3 L-3.4 1.1 Q-1.3 1.85 0.15 0.2 L-0.25 -1.0 Q-0.9 -2.2 -1.8 -2.6 L-1.5 -2.6 -1.4 -2.6 -1.35 -2.6 -1.35 -2.45 3.2 -2.45 3.2 1.85" fill="#a5b7c4" fill-rule="evenodd" stroke="none"/>
      <path d="M3.2 -2.45 L4.0 -2.45 4.45 -1.35 4.85 -0.25 5.1 0.5 Q5.2 1.05 3.2 1.85 L3.2 -2.45" fill="#738898" fill-rule="evenodd" stroke="none"/>
      <path d="M4.35 -2.25 L4.55 -1.45 Q4.55 -0.85 2.85 0.55 L0.7 1.9 0.45 1.85 0.45 0.4 -0.1 -0.85 -0.15 -0.9 -0.35 -1.1 -0.5 -1.25 -1.8 -2.2 -1.55 -2.55 -1.45 -2.65 -1.4 -2.7 4.25 -2.7 4.35 -2.25" fill="#ff0000" fill-rule="evenodd" stroke="none"/>
      <path d="M4.7 -1.25 L5.3 0.3 Q5.45 1.3 4.1 1.8 2.75 2.25 2.05 2.65 1.3 3.0 0.5 3.55 -0.4 4.05 -1.95 4.05 L-4.35 3.95 Q-5.2 3.85 -5.1 3.3 L-5.05 2.15 Q-5.35 1.85 -5.35 0.8 -5.35 -2.7 -1.3 -2.7 L-0.95 -2.6 -0.95 -2.5 -1.55 -2.35 Q-0.55 -2.1 0.05 -1.1 0.6 -0.15 0.6 0.95 L0.5 1.45 0.0 -0.5 Q-0.7 -2.1 -2.3 -2.2 -3.95 -1.75 -4.45 -1.25 -5.0 -0.7 -5.0 0.8 L-4.8 1.75 Q-3.4 2.5 -1.75 2.3 L0.5 1.7 0.3 2.15 Q-1.2 2.85 -3.4 2.7 L-3.5 2.65 -4.45 2.5 -4.95 2.25 -4.65 3.3 Q-4.45 3.9 -2.25 3.75 -0.05 3.55 0.65 3.0 1.35 2.4 2.3 2.1 4.1 1.4 4.8 0.8 L4.4 -0.35 4.4 -0.55 Q2.8 0.85 1.25 1.65 L1.15 1.6 2.8 0.35 Q4.1 -0.65 4.1 -1.1 L4.2 -1.25 4.45 -1.25 4.45 -1.15 4.7 -1.25" fill="#000000" fill-rule="evenodd" stroke="none"/>
    </g>
    <g id="sprite1">
      <use ffdec:characterId="37" height="7.35" transform="matrix(1.0, 0.0, 0.0, 1.0, 0.0, 0.0)" width="7.15" xlink:href="#shape1"/>
    </g>
    <g id="shape1">
      <path d="M-0.8 -0.15 L-0.7 0.25 -1.0 0.4 Q-1.9 0.4 -1.4 0.8 L-1.35 1.2 -1.4 1.4 -1.7 1.65 -1.8 1.7 -1.7 1.7 -2.85 1.9 Q-3.7 2.15 -3.75 2.95 L-5.1 3.0 -5.3 2.55 -5.55 2.3 -5.0 1.75 -4.5 1.1 -4.15 0.6 -4.15 0.55 -3.35 0.65 -3.55 0.3 -3.85 -0.35 -3.55 -0.7 -0.8 -0.3 -0.8 -0.15 M-3.8 4.1 Q-4.45 4.1 -4.7 3.5 -4.7 2.8 -3.45 3.95 -3.55 4.1 -3.8 4.1" fill="#636363" fill-rule="evenodd" stroke="none"/>
      <path d="M-3.15 -1.9 L-0.05 -1.9 -0.05 0.8 -0.6 0.75 -0.9 1.8 -1.35 2.75 -1.35 4.55 Q-1.5 5.2 -2.5 5.2 -3.5 5.2 -5.6 3.95 L-6.55 3.4 -5.5 1.7 -4.9 0.9 -4.0 -0.9 -3.15 -1.9 M-3.8 4.1 Q-3.55 4.1 -3.45 3.95 -4.7 2.8 -4.7 3.5 -4.45 4.1 -3.8 4.1 M-0.8 -0.15 L-0.8 -0.3 -3.55 -0.7 -3.85 -0.35 -3.55 0.3 -3.35 0.65 -4.15 0.55 -4.15 0.6 -4.5 1.1 -5.0 1.75 -5.55 2.3 -5.3 2.55 -5.1 3.0 -3.75 2.95 Q-3.7 2.15 -2.85 1.9 L-1.7 1.7 -1.8 1.7 -1.7 1.65 -1.4 1.4 -1.35 1.2 -1.4 0.8 Q-1.9 0.4 -1.0 0.4 L-0.7 0.25 -0.8 -0.15" fill="#1b1b1b" fill-rule="evenodd" stroke="none"/>
      <path d="M-3.8 -1.0 Q-4.6 0.75 -5.65 2.25 L-6.35 3.25 Q-4.8 4.55 -2.55 4.8 L-1.8 4.75 Q-1.65 2.6 -0.8 0.75 L-0.45 0.05 Q0.0 0.95 -0.3 1.75 -0.9 3.35 -1.0 5.15 -3.15 5.9 -5.25 4.85 -6.3 4.3 -7.2 3.35 L-4.45 -0.45 -3.8 -1.0" fill="#000000" fill-rule="evenodd" stroke="none"/>
    </g>
    <g id="sprite2">
      <use ffdec:characterId="42" height="10.5" transform="matrix(1.0, 0.0, 0.0, 1.0, 0.0, 0.0)" width="20.75" xlink:href="#shape2"/>
    </g>
    <g id="shape2">
      <path d="M6.5 -0.65 Q7.1 0.15 7.1 0.6 L6.9 0.9 5.9 -0.9 Q5.9 -1.45 6.5 -0.65 M-5.35 -0.9 Q-5.45 -0.6 -6.55 -0.05 L-6.75 0.35 -7.1 0.9 -7.3 0.85 -7.3 0.75 -7.45 0.5 -7.0 -0.35 Q-6.45 -1.0 -5.65 -1.0 L-5.35 -0.9" fill="#ffffff" fill-rule="evenodd" stroke="none"/>
      <path d="M0.65 0.25 L1.2 -0.05 1.45 -0.1 1.05 0.2 Q1.05 0.4 1.35 0.45 L0.95 0.7 Q0.8 0.8 0.8 0.95 L0.85 1.2 0.6 1.2 0.3 1.15 0.15 0.9 0.3 0.75 0.4 0.7 0.4 0.65 0.35 0.6 0.65 0.25 M-0.5 1.9 Q-0.3 1.65 -0.1 1.65 L0.1 1.85 0.15 1.9 Q0.25 0.8 0.9 2.8 L0.8 3.15 0.65 3.35 0.4 3.3 Q0.2 3.1 0.15 2.7 L0.1 2.4 0.1 2.3 -0.6 3.1 -0.85 2.85 -0.9 2.7 -0.65 2.1 -0.5 1.9 M2.95 0.7 L3.9 0.25 5.75 -0.25 6.1 -0.35 6.4 -0.05 6.45 0.0 6.65 0.6 Q6.65 0.95 6.15 0.95 L5.7 0.8 5.3 0.6 5.05 0.5 4.35 0.35 3.3 0.6 2.95 0.7 M-0.5 0.65 L-0.3 1.0 -0.3 1.1 -0.55 1.35 -0.95 1.2 -1.0 1.2 -1.4 1.1 Q-1.1 1.1 -1.1 0.7 -1.1 0.4 -1.6 -0.05 -0.9 0.0 -0.5 0.65 M-6.8 0.35 L-6.75 0.35 -6.05 -0.45 -5.5 -0.35 -4.85 -0.05 -4.5 -0.1 -3.4 0.25 -2.35 0.5 -1.9 0.8 -1.7 1.0 -1.8 0.95 -2.45 0.9 -2.55 0.9 -3.8 0.6 -3.85 0.6 -4.35 0.55 Q-4.8 0.55 -5.7 1.05 L-5.8 1.05 -5.85 1.1 -6.3 1.35 -6.45 1.35 -6.85 1.0 -6.9 0.75 -6.8 0.35" fill="#999999" fill-rule="evenodd" stroke="none"/>
      <path d="M0.3 1.15 L0.6 1.2 0.85 1.2 0.8 0.95 Q0.8 0.8 0.95 0.7 L1.35 0.45 Q1.05 0.4 1.05 0.2 L1.45 -0.1 1.2 -0.05 0.65 0.25 0.85 0.05 0.85 0.0 Q0.85 -0.2 1.2 -0.25 L2.45 -1.1 2.75 -1.25 Q3.85 -1.85 4.6 -1.85 L5.3 -1.7 5.5 -1.65 6.2 -1.4 6.25 -1.4 6.3 -1.35 6.35 -1.3 6.3 -1.25 6.35 -1.15 6.2 -1.15 6.25 -1.1 6.55 -0.8 6.25 -0.4 6.3 -0.25 6.45 0.0 6.4 -0.05 6.1 -0.35 5.75 -0.25 3.9 0.25 2.95 0.7 1.2 1.35 1.0 1.3 0.9 1.4 0.95 1.5 Q0.75 1.5 0.75 2.0 L0.95 2.45 1.15 2.75 1.4 4.15 1.35 4.15 1.45 4.9 1.2 5.35 Q0.95 5.35 0.95 4.85 0.65 4.75 0.5 4.15 L0.4 3.3 0.65 3.35 0.8 3.15 0.9 2.8 Q0.25 0.8 0.15 1.9 L0.1 1.85 -0.1 1.65 Q-0.3 1.65 -0.5 1.9 L-0.55 1.7 -0.35 1.5 -0.1 1.25 -0.05 1.25 0.15 1.4 0.25 1.25 0.3 1.2 0.3 1.15 M-6.9 1.75 L-7.35 1.35 -6.95 0.6 -6.8 0.35 -7.15 0.0 -6.2 -1.2 -6.15 -1.3 -6.0 -1.5 -5.95 -1.6 -5.75 -1.9 -4.15 -2.25 -2.95 -1.5 -2.8 -1.4 Q-2.3 -1.6 -1.75 -1.15 L-1.0 -0.4 Q-0.45 0.25 -0.45 0.45 L-0.5 0.65 Q-0.9 0.0 -1.6 -0.05 -1.1 0.4 -1.1 0.7 -1.1 1.1 -1.4 1.1 L-1.0 1.2 -0.95 1.2 -0.55 1.35 -0.3 1.1 -0.35 1.4 -0.6 1.45 -2.45 0.9 -1.8 0.95 -1.7 1.0 -1.9 0.8 -2.35 0.5 -3.4 0.25 -4.5 -0.1 -4.85 -0.05 -5.5 -0.35 -6.05 -0.45 -6.75 0.35 -6.8 0.35 -6.9 0.75 -6.85 1.0 -6.45 1.35 -6.3 1.35 -6.9 1.7 -6.9 1.75 M5.05 0.5 L3.3 0.6 4.35 0.35 5.05 0.5 M-0.85 2.85 L-0.6 3.1 0.1 2.3 0.1 2.4 0.15 2.7 -0.4 3.8 -0.5 4.15 Q-0.85 5.35 -1.05 5.35 L-1.45 5.1 -1.25 4.65 -1.3 4.5 -1.2 4.1 -1.3 4.1 -0.85 2.85" fill="#ffffff" fill-rule="evenodd" stroke="none"/>
      <path d="M-0.35 1.5 L-0.55 1.7 -0.5 1.9 -0.65 2.1 -0.9 2.7 -0.85 2.85 -1.3 4.1 -1.55 4.05 -1.65 4.15 Q-1.8 4.0 -2.0 4.0 L-2.2 4.05 -2.3 4.45 -2.15 5.3 -1.9 5.55 -0.2 5.7 1.4 5.7 1.85 5.4 2.25 4.75 2.3 4.25 1.4 4.15 1.15 2.75 0.95 2.45 0.75 2.0 Q0.75 1.5 0.95 1.5 L0.9 1.4 1.0 1.3 1.2 1.35 2.95 0.7 3.3 0.6 5.05 0.5 5.3 0.6 5.7 0.8 6.7 1.5 6.9 1.65 Q7.2 1.45 7.65 1.9 L8.15 2.2 8.4 2.35 Q9.0 2.75 9.0 3.0 L8.9 3.2 8.8 3.3 8.8 3.35 Q8.5 3.4 8.15 3.6 L8.05 3.65 7.95 3.65 Q7.0 3.85 6.9 4.75 L6.8 4.95 6.8 4.9 Q6.8 4.5 6.25 4.15 L5.25 3.45 4.45 2.6 3.75 2.0 4.1 2.75 4.05 2.85 3.9 2.65 3.9 2.75 4.0 3.8 Q4.2 3.65 4.4 4.05 L4.65 5.1 4.5 5.85 Q4.25 6.4 3.85 6.4 L3.0 6.75 2.45 7.0 1.9 6.9 -0.3 6.95 -1.8 6.6 -2.0 6.65 -2.05 6.6 -2.25 6.7 -2.6 6.7 -3.05 6.8 Q-4.05 6.8 -4.1 5.65 L-4.05 5.5 -4.1 5.25 -3.95 4.6 -3.55 3.8 -3.3 3.35 -3.15 2.25 -3.2 1.75 -3.35 2.2 -3.4 2.1 -4.8 3.4 -6.8 4.8 -6.35 5.2 -6.4 5.5 -6.55 5.6 -6.8 5.5 -6.85 5.55 -7.1 5.3 Q-7.2 4.3 -8.25 3.7 L-8.75 3.45 -8.8 3.45 -8.85 3.4 -8.75 3.3 -8.5 3.2 -8.7 2.85 Q-8.7 2.55 -7.35 1.95 L-6.9 1.8 -6.9 1.75 -6.9 1.7 -6.3 1.35 -5.85 1.1 -5.7 1.05 Q-4.8 0.55 -4.35 0.55 L-3.85 0.6 -3.8 0.6 -2.55 0.9 -2.45 0.9 -0.6 1.45 -0.35 1.4 -0.35 1.5 M3.7 2.05 L3.65 2.05 3.75 2.15 3.7 2.05" fill="#4d4747" fill-rule="evenodd" stroke="none"/>
      <path d="M0.5 4.15 Q0.65 4.75 0.95 4.85 0.95 5.35 1.2 5.35 L1.45 4.9 1.35 4.15 1.4 4.15 2.3 4.25 2.25 4.75 1.85 5.4 1.4 5.7 -0.2 5.7 -1.9 5.55 -2.15 5.3 -2.3 4.45 -2.2 4.05 -2.0 4.0 Q-1.8 4.0 -1.65 4.15 L-1.55 4.05 -1.3 4.1 -1.2 4.1 -1.3 4.5 -1.25 4.65 -1.45 5.1 -1.05 5.35 Q-0.85 5.35 -0.5 4.15 L0.5 4.15 M8.8 3.35 L9.1 3.3 Q9.75 3.3 9.75 3.8 9.75 4.15 9.2 4.15 L9.05 4.15 8.75 4.4 Q8.4 4.45 8.2 4.6 L8.15 4.7 7.15 5.6 7.05 5.6 Q6.75 5.55 6.75 5.2 L6.8 4.95 6.9 4.75 Q7.0 3.85 7.95 3.65 L8.05 3.65 8.15 3.6 Q8.5 3.4 8.8 3.35 M2.45 7.0 L2.5 7.1 1.9 7.45 0.35 7.5 -1.1 7.45 -1.2 7.45 -1.35 7.4 -1.5 7.4 -2.05 7.25 -2.1 7.2 -2.15 7.15 -2.45 6.95 -2.25 6.8 Q-2.2 6.65 -2.0 6.65 L-1.8 6.6 -0.3 6.95 1.9 6.9 2.45 7.0 M-6.85 5.55 L-6.85 5.75 Q-6.85 6.35 -7.3 6.35 -7.8 6.35 -8.1 5.75 L-8.5 4.95 -8.75 4.8 -9.8 3.75 Q-9.8 3.4 -9.25 3.35 L-8.85 3.4 -8.8 3.45 -8.75 3.45 -8.25 3.7 Q-7.2 4.3 -7.1 5.3 L-6.85 5.55" fill="#ffcc00" fill-rule="evenodd" stroke="none"/>
      <path d="M0.4 3.3 L0.5 4.15 -0.5 4.15 -0.4 3.8 0.15 2.7 Q0.2 3.1 0.4 3.3 M7.05 5.6 L6.4 5.65 Q5.65 5.65 5.05 4.75 L4.8 4.35 4.0 2.9 4.05 2.85 4.1 2.75 3.75 2.0 4.45 2.6 5.25 3.45 6.25 4.15 Q6.8 4.5 6.8 4.9 L6.8 4.95 6.75 5.2 Q6.75 5.55 7.05 5.6 M-3.35 2.2 L-3.35 2.35 -3.65 2.9 -3.65 2.95 -4.15 3.85 -4.25 4.1 -4.05 4.5 -4.7 5.2 -4.95 5.45 Q-5.25 5.8 -5.7 5.8 L-6.3 5.6 -6.4 5.5 -6.35 5.2 -6.8 4.8 -4.8 3.4 -3.4 2.1 -3.35 2.2" fill="#1f1a1a" fill-rule="evenodd" stroke="none"/>
      <path d="M3.7 2.05 L3.75 2.15 3.65 2.05 3.7 2.05" fill="#a40000" fill-rule="evenodd" stroke="none"/>
      <path d="M0.4 0.65 L0.4 0.7 0.3 0.75 0.4 0.65 M0.3 1.15 L0.3 1.2 0.25 1.25 0.3 1.15" fill="#ff0000" fill-rule="evenodd" stroke="none"/>
      <path d="M-2.1 7.2 L-2.15 7.2 -2.15 7.15 -2.1 7.2" fill="#fff9e0" fill-rule="evenodd" stroke="none"/>
      <path d="M1.75 -0.15 L2.0 -0.25 0.65 1.15 1.1 0.9 1.15 1.05 1.3 1.1 5.05 0.05 5.85 0.3 6.8 0.8 6.8 0.55 6.6 -0.1 6.2 -0.9 6.05 -1.3 5.1 -1.8 3.15 -1.5 2.75 -1.2 1.8 -0.7 1.2 -0.15 0.85 0.3 0.95 0.2 1.6 -0.15 1.75 -0.15 M1.25 -1.1 L2.95 -2.15 6.1 -2.2 Q6.95 -1.65 6.95 -0.8 L6.95 -0.7 Q7.9 0.3 7.9 1.0 L7.85 1.35 8.75 2.05 9.65 3.0 10.0 3.45 10.2 4.1 9.7 4.5 Q9.2 4.6 8.85 4.85 L8.8 4.9 8.55 5.15 8.1 5.8 Q7.75 6.2 7.1 6.25 L6.5 6.35 Q5.6 6.35 5.1 5.55 L5.1 5.65 Q5.1 6.15 4.6 6.7 L4.25 7.1 3.85 7.15 3.35 7.15 1.55 7.8 0.85 7.9 -0.5 7.9 -0.75 7.8 -1.2 7.8 -2.15 7.6 -2.55 7.4 -2.7 7.25 -2.8 7.25 -2.85 7.15 -3.55 7.0 -4.05 7.0 -4.55 6.65 -4.85 5.9 -4.8 5.65 -5.9 6.4 -6.25 6.4 -6.5 6.55 -6.65 6.65 Q-7.0 6.95 -7.2 6.95 -7.8 6.95 -8.2 6.2 L-8.65 5.35 Q-9.2 4.7 -10.0 4.45 -10.55 4.25 -10.55 3.8 L-10.2 3.15 -9.5 2.85 Q-9.45 2.5 -9.0 2.25 L-7.9 1.7 -7.9 1.65 -7.85 1.55 -7.85 1.15 -7.9 1.05 -7.8 0.8 -7.5 -0.25 -6.75 -1.15 -6.85 -1.45 -6.45 -2.15 -4.75 -2.6 Q-3.5 -2.6 -1.7 -1.25 L-0.15 0.2 0.3 -0.3 1.25 -1.1 M8.75 2.9 L7.95 2.4 7.75 2.25 7.25 1.9 Q6.4 1.3 5.9 1.25 L5.8 1.25 Q5.55 1.0 5.15 0.9 L2.8 1.35 1.4 1.65 0.85 1.9 0.9 1.9 Q1.25 2.8 1.6 5.15 L1.4 5.5 1.5 5.8 1.25 6.15 Q1.05 6.15 1.0 5.75 0.8 5.75 0.6 5.15 L0.55 5.15 0.4 5.1 0.15 2.95 -0.25 4.1 -0.4 4.95 -1.1 5.6 -1.1 5.65 Q-1.1 6.25 -1.45 6.25 -1.75 6.25 -1.7 5.95 L-1.65 5.65 -1.8 5.25 -1.3 3.25 -0.65 1.95 -0.7 1.95 -0.55 1.9 -0.65 1.85 -0.9 1.95 -2.6 1.6 -2.85 1.55 -2.85 1.65 -3.45 3.6 -4.05 5.95 Q-3.7 6.65 -2.45 6.65 L-1.95 6.55 -1.9 6.6 -0.5 7.0 -0.8 7.05 -1.85 6.9 Q-2.3 6.85 -2.35 7.05 L-1.05 7.4 0.7 7.4 2.3 7.2 2.25 7.15 2.45 7.1 2.2 7.1 2.15 7.05 1.7 7.05 1.6 7.1 1.4 7.1 1.15 7.1 1.05 7.1 0.55 7.1 -0.2 7.05 -0.3 7.0 0.25 6.8 1.55 6.75 1.95 6.8 Q4.4 6.8 4.4 5.35 L4.05 4.5 4.0 4.4 3.5 2.75 3.35 2.3 3.45 1.5 3.5 1.5 3.85 2.0 Q3.9 2.65 4.7 3.8 5.5 5.05 6.25 5.25 6.3 4.55 7.0 3.85 L7.8 3.2 8.6 3.0 8.75 3.0 8.75 2.9 M7.35 4.4 Q6.85 4.8 6.85 5.2 L6.85 5.4 6.95 5.55 7.1 5.65 7.1 5.6 7.15 5.6 7.9 4.85 7.95 4.8 8.0 4.65 Q8.45 4.35 9.05 4.15 L9.3 4.05 9.45 3.8 Q9.45 3.1 8.5 3.6 L8.15 3.7 7.9 3.95 7.35 4.35 7.35 4.4 M0.45 2.1 L0.3 2.1 0.5 3.05 0.6 3.6 Q0.6 5.0 0.95 5.0 1.15 5.0 1.15 4.6 L1.15 4.25 1.0 3.5 0.65 2.2 0.55 2.15 0.5 2.0 0.4 2.0 0.5 2.1 0.45 2.1 M0.05 2.0 L-0.2 1.95 -0.3 2.1 -0.4 2.05 -1.35 4.9 -1.35 5.15 -1.25 5.2 Q-1.0 5.2 -0.5 3.6 L0.1 2.0 0.05 2.0 M3.5 6.8 L3.6 6.85 3.65 6.8 3.5 6.8 M-5.9 -1.35 L-6.2 -0.8 -6.25 -0.8 -6.25 -0.65 Q-7.05 -0.2 -7.05 0.4 -7.05 0.8 -6.7 0.8 L-5.4 0.15 -4.15 0.35 -2.15 0.85 -1.95 0.8 -1.9 0.8 -1.65 0.9 -1.3 1.05 Q-2.0 0.3 -2.6 0.0 -2.45 -0.4 -1.35 0.4 L-2.0 -0.4 -2.0 -0.55 -2.85 -1.15 -3.9 -1.75 Q-4.85 -2.25 -5.75 -1.55 L-5.85 -1.5 -5.9 -1.35 M-3.85 2.55 L-3.55 2.15 -3.35 1.8 -3.25 1.7 -3.25 1.65 -3.15 1.45 -4.65 0.8 Q-4.95 0.8 -5.2 0.95 L-5.75 1.25 Q-6.2 1.35 -6.85 1.8 L-7.35 2.2 Q-8.35 2.65 -8.55 3.0 L-8.05 3.2 -7.0 4.1 -6.3 5.3 -6.2 5.45 -6.2 5.5 -6.15 5.5 -5.95 5.55 Q-5.55 5.55 -4.8 4.3 L-4.1 2.9 -3.85 2.55 M-8.35 4.0 Q-8.9 3.4 -9.4 3.4 L-9.85 3.85 -9.45 3.95 -8.9 4.3 -8.7 4.4 -8.15 5.1 -7.85 5.7 -7.35 6.25 -7.05 6.05 -7.6 4.8 -7.7 4.65 -7.95 4.25 -8.0 4.15 -8.1 4.1 -8.2 4.05 -8.35 4.0 M-2.75 7.4 L-2.65 7.4 -2.6 7.45 -2.7 7.5 -2.75 7.4" fill="#000000" fill-rule="evenodd" stroke="none"/>
    </g>
    <g id="sprite3">
      <use ffdec:characterId="11" height="19.65" transform="matrix(1.0, 0.0, 0.0, 1.0, 0.0, 0.0)" width="38.15" xlink:href="#shape3"/>
      <clipPath id="clipPath0">
        <path d="M 3.1 -7.95 L 2.15 -7.94 L 1.21 -7.93 L 0.29 -7.9 L -0.62 -7.87 L -1.5 -7.82 L -2.37 -7.76 L -3.23 -7.69 L -4.06 -7.61 L -4.88 -7.52 L -5.69 -7.42 L -6.47 -7.31 L -7.24 -7.19 L -7.99 -7.06 L -8.73 -6.92 L -9.45 -6.76 L -10.15 -6.6 L -12.3 -5.95 L -12.7 -5.8 L -13.07 -5.66 L -13.42 -5.51 L -13.74 -5.35 L -14.04 -5.2 L -14.31 -5.04 L -14.56 -4.88 L -14.77 -4.71 L -14.97 -4.55 L -15.14 -4.38 L -15.28 -4.2 L -15.39 -4.03 L -15.48 -3.85 L -15.55 -3.67 L -15.59 -3.49 L -15.6 -3.3 L -15.6 -3.2 L -15.57 -3.03 L -15.52 -2.85 L -15.44 -2.69 L -15.34 -2.52 L -15.21 -2.35 L -15.07 -2.19 L -14.89 -2.03 L -14.7 -1.88 L -14.48 -1.72 L -14.24 -1.57 L -13.98 -1.42 L -13.69 -1.27 L -13.38 -1.12 L -13.04 -0.98 L -12.68 -0.84 L -12.3 -0.7 L -10.15 -0.1 L -9.45 0.07 L -8.73 0.23 L -7.99 0.38 L -7.24 0.51 L -6.47 0.64 L -5.69 0.75 L -4.88 0.86 L -4.06 0.95 L -3.23 1.03 L -2.37 1.1 L -1.5 1.16 L -0.62 1.21 L 0.29 1.25 L 1.21 1.28 L 2.15 1.29 L 3.1 1.3 L 4.06 1.29 L 5 1.28 L 5.93 1.25 L 6.83 1.21 L 7.72 1.16 L 8.59 1.1 L 9.44 1.03 L 10.27 0.95 L 11.09 0.86 L 11.89 0.75 L 12.67 0.64 L 13.43 0.51 L 14.18 0.38 L 14.9 0.23 L 15.61 0.07 L 16.3 -0.1 L 16.95 -0.26 L 17.56 -0.42 L 18.13 -0.59 L 18.65 -0.76 L 19.14 -0.94 L 19.59 -1.12 L 20 -1.31 L 20.36 -1.5 L 20.69 -1.7 L 20.98 -1.9 L 21.22 -2.1 L 21.43 -2.31 L 21.59 -2.53 L 21.72 -2.75 L 21.8 -2.97 L 21.83 -3.08 L 21.85 -3.2 L 21.85 -3.3 L 21.84 -3.42 L 21.83 -3.54 L 21.8 -3.66 L 21.76 -3.78 L 21.71 -3.89 L 21.65 -4.01 L 21.5 -4.24 L 21.31 -4.46 L 21.07 -4.68 L 20.79 -4.89 L 20.46 -5.1 L 20.09 -5.3 L 19.68 -5.5 L 19.23 -5.7 L 18.73 -5.89 L 18.19 -6.07 L 17.6 -6.25 L 16.97 -6.43 L 16.3 -6.6 L 15.61 -6.76 L 14.9 -6.92 L 14.18 -7.06 L 13.43 -7.19 L 12.67 -7.31 L 11.89 -7.42 L 11.09 -7.52 L 10.27 -7.61 L 9.44 -7.69 L 8.59 -7.76 L 7.72 -7.82 L 6.83 -7.87 L 5.93 -7.9 L 5 -7.93 L 4.06 -7.94 L 3.1 -7.95 Z"/>
      </clipPath>
      <g clip-path="url(#clipPath0)">
        <use ffdec:characterId="13" height="10.65" transform="matrix(1.0, 0.0, 0.0, 1.0, 0.0, 0.0)" width="35.3" xlink:href="#shape4"/>
      </g>
      <use ffdec:characterId="14" height="20.15" transform="matrix(1.0, 0.0, 0.0, 1.0, 0.0, 0.0)" width="38.65" xlink:href="#shape5"/>
      <use ffdec:characterId="16" height="11.3" transform="matrix(0.8292, 0.0, -0.0229, 0.5168, -5.65, -5.45)" width="24.15" xlink:href="#sprite4"/>
      <use ffdec:characterId="18" height="18.35" transform="matrix(0.4846, 0.0397, -0.0326, 0.398, 15.15, -4.2)" width="19.8" xlink:href="#sprite5"/>
      <use ffdec:characterId="20" height="10.75" transform="matrix(0.7462, 0.2314, -0.2314, 0.7462, -7.95, -9.5)" width="12.95" xlink:href="#sprite6"/>
      <use ffdec:characterId="21" height="6.1" transform="matrix(1.0, 0.0, 0.0, 1.0, 0.0, 0.0)" width="13.55" xlink:href="#shape9"/>
    </g>
    <g id="shape3">
      <path d="M21.85 -3.3 L21.85 -3.2 Q21.65 -1.35 16.3 -0.1 10.85 1.3 3.1 1.3 -4.6 1.3 -10.15 -0.1 -15.4 -1.35 -15.6 -3.2 L-15.6 -3.3 Q-15.6 -5.25 -10.15 -6.6 -4.6 -7.95 3.1 -7.95 10.85 -7.95 16.3 -6.6 21.85 -5.25 21.85 -3.3" fill="#c61f1f" fill-opacity="0.9882353" fill-rule="evenodd" stroke="none"/>
      <path d="M21.85 -3.2 L21.85 -2.3 Q21.85 3.3 16.3 7.25 10.8 11.2 3.05 11.2 -4.7 11.2 -10.25 7.25 -15.8 3.3 -15.8 -2.3 L-15.6 -3.2 Q-15.4 -1.35 -10.15 -0.1 L-9.5 0.05 -9.35 0.1 -1.35 1.2 3.1 1.3 10.95 0.9 16.3 -0.1 Q21.65 -1.35 21.85 -3.2 M-13.05 0.25 L-13.45 -0.1 -13.55 -0.1 -13.7 0.0 -13.7 0.15 Q-13.3 1.45 -12.25 2.7 -9.4 6.2 -5.35 7.75 -1.35 9.3 3.1 9.3 7.5 9.25 10.35 8.35 13.15 7.45 15.4 5.65 17.7 3.85 20.6 -0.4 L18.65 0.4 17.85 0.55 17.2 0.8 17.15 0.85 12.25 2.2 Q7.8 3.55 -1.0 3.05 -9.85 2.5 -13.05 0.25" fill="#211e1a" fill-opacity="0.9882353" fill-rule="evenodd" stroke="none"/>
      <path d="M-13.05 0.25 Q-9.85 2.5 -1.0 3.05 7.8 3.55 12.25 2.2 L17.15 0.85 17.2 0.8 17.85 0.55 18.65 0.4 20.6 -0.4 Q17.7 3.85 15.4 5.65 13.15 7.45 10.35 8.35 7.5 9.25 3.1 9.3 -1.35 9.3 -5.35 7.75 -9.4 6.2 -12.25 2.7 -13.3 1.45 -13.7 0.15 L-13.7 0.0 -13.55 -0.1 -13.45 -0.1 -13.05 0.25" fill="#333333" fill-rule="evenodd" stroke="none"/>
      <path d="M-15.6 -3.2 L-15.8 -2.3 Q-15.8 3.3 -10.25 7.25 -4.7 11.2 3.05 11.2 10.8 11.2 16.3 7.25 21.85 3.3 21.85 -2.3 L21.85 -3.2 Q21.65 -1.35 16.3 -0.1 10.85 1.3 3.1 1.3 -4.6 1.3 -10.15 -0.1 -15.4 -1.35 -15.6 -3.2 L-15.6 -3.3 Q-15.6 -5.25 -10.15 -6.6 -4.6 -7.95 3.1 -7.95 10.85 -7.95 16.3 -6.6 21.85 -5.25 21.85 -3.3 L21.85 -3.2" ffdec:has-small-stroke="true" ffdec:original-stroke-width="0.5" fill="none" stroke="#000000" stroke-linecap="round" stroke-linejoin="round" stroke-width="1.8183053741363242"/>
      <path d="M-6.95 4.1 Q-6.55 4.05 -6.35 3.8 L-5.9 3.45 -4.65 3.55 -4.5 3.8 -4.75 4.1 -4.5 4.5 -3.4 4.45 Q-3.4 3.85 -2.9 3.85 -1.4 3.85 -1.5 4.3 -1.55 4.8 -0.95 4.8 -0.05 4.8 -0.05 4.45 -0.05 4.15 0.2 4.15 L1.25 4.15 1.35 4.55 Q1.45 4.9 1.7 4.9 L3.45 4.75 3.25 4.25 4.8 4.25 5.0 5.1 Q6.2 5.3 6.45 4.75 6.75 4.05 7.75 4.05 L8.05 4.45 8.5 4.9 9.85 4.6 Q9.55 3.75 10.5 3.75 10.9 3.75 11.1 4.1 L11.2 4.3 11.1 4.55 10.85 4.35 10.75 3.95 Q9.95 4.05 9.95 4.25 L10.05 4.6 Q10.05 5.15 8.7 5.15 8.0 5.15 7.9 4.75 L7.7 4.3 6.85 4.4 Q7.3 5.35 5.35 5.35 4.65 5.35 4.65 4.45 L3.5 4.45 Q3.5 5.15 2.95 5.15 L0.95 4.85 1.1 4.4 1.1 4.35 0.2 4.4 -0.15 5.05 Q-1.9 5.05 -2.0 4.7 L-1.75 4.05 Q-2.9 3.75 -3.1 4.2 L-3.4 4.75 Q-5.0 4.75 -5.1 4.3 L-4.9 3.75 -5.85 3.75 -6.15 4.05 -6.8 4.3 -6.95 4.1" fill="#cc0000" fill-rule="evenodd" stroke="none"/>
      <path d="M-12.5 1.55 L-12.45 1.55 -12.35 1.45 Q-11.1 1.45 -11.4 2.6 L-11.05 2.7 -10.8 2.5 Q-10.7 2.25 -10.4 2.25 -9.6 2.25 -9.55 2.95 L-9.8 3.45 -9.0 3.7 -8.95 3.6 -8.85 3.05 -8.5 2.75 -8.45 2.75 -7.55 2.95 -7.15 3.35 -7.25 3.65 -7.45 3.9 -7.0 4.1 -6.95 4.1 -6.8 4.3 Q-7.75 4.3 -7.75 3.95 L-7.4 3.35 -7.4 3.3 Q-7.75 2.95 -8.1 3.0 L-8.45 3.05 -8.65 3.45 -8.65 3.9 -8.65 3.95 -8.75 3.95 Q-10.0 3.95 -10.05 3.45 L-9.85 2.95 -9.9 2.6 -10.1 2.45 -10.75 2.95 -11.8 2.65 -11.55 2.05 -11.8 1.8 -12.2 1.7 -12.35 2.05 -12.4 2.05 -12.45 1.65 -12.5 1.55 M11.2 4.3 L11.4 4.4 13.1 4.15 13.3 4.0 13.35 3.7 13.45 3.25 Q13.55 3.05 14.2 3.05 14.65 3.0 14.65 3.65 L14.75 3.7 15.65 3.45 15.65 2.8 Q15.55 1.95 17.2 2.05 L17.4 2.5 Q18.25 2.25 18.25 2.05 L18.1 1.65 18.35 1.5 18.4 1.45 18.45 1.9 18.4 2.25 18.1 2.65 17.65 2.75 17.05 2.65 17.05 2.35 15.9 2.6 15.95 3.35 Q15.8 3.95 15.0 3.95 14.55 3.95 14.4 3.65 L14.2 3.25 Q13.05 3.7 13.6 4.15 L13.25 4.25 12.95 4.35 12.7 4.45 12.1 4.65 11.1 4.55 11.2 4.3" fill="#990000" fill-rule="evenodd" stroke="none"/>
      <path d="M-12.4 2.05 L-13.2 2.0 -13.05 1.35 -13.15 1.1 Q-13.0 1.0 -13.3 1.0 L-13.8 1.1 -13.9 1.6 -14.05 1.6 -14.15 1.45 -14.7 0.9 -14.55 0.6 -15.2 0.2 -15.15 -0.1 -15.35 -0.3 -15.3 -0.4 Q-14.7 -0.4 -15.0 0.15 L-14.3 0.45 -14.45 0.95 -14.2 1.1 -14.1 1.2 Q-14.05 0.85 -13.55 0.85 L-12.85 1.0 -12.8 1.2 -12.85 1.6 -12.9 1.75 -12.9 1.8 -12.85 1.75 -12.5 1.55 -12.45 1.65 -12.4 2.05 M18.4 1.45 L18.55 1.35 18.75 1.2 Q19.05 1.2 19.35 1.45 L19.65 1.45 Q19.75 0.6 20.3 0.3 L21.35 -0.4 21.45 -0.2 Q21.4 0.25 19.95 0.65 L20.0 1.3 Q20.0 1.7 19.6 1.75 19.15 1.45 18.9 1.45 L18.5 1.55 18.45 1.9 18.4 1.45" fill="#660000" fill-rule="evenodd" stroke="none"/>
      <path d="M-6.9 5.55 Q-6.5 5.5 -6.3 5.25 -6.1 4.9 -5.85 4.9 L-4.6 5.0 -4.45 5.25 -4.7 5.55 Q-4.7 5.95 -4.45 5.95 L-3.35 5.9 Q-3.35 5.3 -2.85 5.3 -1.35 5.3 -1.45 5.75 -1.5 6.25 -0.9 6.25 0.0 6.25 0.0 5.9 0.0 5.6 0.25 5.6 L1.3 5.6 1.4 6.0 Q1.5 6.35 1.75 6.35 L3.5 6.2 3.3 5.7 4.85 5.7 5.05 6.55 Q6.25 6.75 6.5 6.2 6.8 5.5 7.8 5.5 L8.1 5.9 8.55 6.35 9.9 6.05 Q9.6 5.2 10.55 5.2 10.95 5.2 11.15 5.55 L11.25 5.75 11.15 6.0 10.9 5.8 10.8 5.4 Q10.0 5.5 10.0 5.7 L10.1 6.05 Q10.1 6.6 8.75 6.6 8.05 6.6 7.95 6.2 L7.75 5.75 6.9 5.85 Q7.35 6.8 5.4 6.8 4.7 6.8 4.7 5.9 L3.55 5.9 Q3.55 6.6 3.0 6.6 L1.0 6.3 1.15 5.85 1.15 5.8 0.25 5.85 Q0.2 6.5 -0.1 6.5 -1.85 6.5 -1.95 6.15 L-1.7 5.5 Q-2.85 5.2 -3.05 5.65 L-3.35 6.2 Q-4.95 6.2 -5.05 5.75 L-4.85 5.2 -5.8 5.2 -6.1 5.5 -6.75 5.75 -6.9 5.55" fill="#cc0000" fill-rule="evenodd" stroke="none"/>
      <path d="M-12.45 3.0 L-12.4 3.0 -12.3 2.9 Q-11.05 2.9 -11.35 4.05 L-11.0 4.15 -10.75 3.95 -10.35 3.7 Q-9.55 3.7 -9.5 4.4 L-9.75 4.9 -8.95 5.15 -8.9 5.05 -8.8 4.5 -8.45 4.2 -8.4 4.2 -7.5 4.4 -7.1 4.8 -7.2 5.1 -7.4 5.35 -6.95 5.55 -6.9 5.55 -6.75 5.75 Q-7.7 5.75 -7.7 5.4 L-7.35 4.8 -7.35 4.75 Q-7.7 4.4 -8.05 4.45 L-8.4 4.5 -8.6 4.9 -8.6 5.35 -8.6 5.4 -8.7 5.4 Q-9.95 5.4 -10.0 4.9 L-9.8 4.4 -9.85 4.05 Q-9.75 3.9 -10.05 3.9 L-10.7 4.4 -11.75 4.1 -11.5 3.5 -11.75 3.25 -12.15 3.15 -12.3 3.5 -12.35 3.5 -12.4 3.1 -12.45 3.0 M11.25 5.75 L11.45 5.85 13.15 5.6 13.35 5.45 13.4 5.15 13.5 4.7 14.25 4.5 Q14.7 4.45 14.7 5.1 L14.8 5.15 15.7 4.9 15.7 4.25 Q15.6 3.4 17.25 3.5 L17.45 3.95 18.3 3.5 18.15 3.1 18.4 2.95 18.45 2.9 18.5 3.35 18.45 3.7 18.15 4.1 17.7 4.2 17.1 4.1 17.1 3.8 15.95 4.05 16.0 4.8 Q15.85 5.4 15.05 5.4 14.6 5.4 14.45 5.1 L14.25 4.7 Q13.1 5.15 13.65 5.6 L13.3 5.7 13.0 5.8 12.75 5.9 12.15 6.1 11.15 6.0 11.25 5.75" fill="#990000" fill-rule="evenodd" stroke="none"/>
      <path d="M-12.35 3.5 L-13.15 3.45 -13.0 2.8 -13.1 2.55 Q-12.95 2.45 -13.25 2.45 L-13.75 2.55 -13.85 3.05 -14.0 3.05 -14.1 2.9 -14.65 2.35 -14.5 2.05 Q-15.1 1.85 -15.15 1.65 L-15.1 1.35 -15.3 1.15 -15.25 1.05 Q-14.65 1.05 -14.95 1.6 L-14.25 1.9 -14.4 2.4 -14.15 2.55 -14.05 2.65 Q-14.0 2.3 -13.5 2.3 L-12.8 2.45 -12.75 2.65 -12.8 3.05 -12.85 3.2 -12.85 3.25 -12.8 3.2 -12.45 3.0 -12.4 3.1 -12.35 3.5 M18.45 2.9 L18.6 2.8 18.8 2.65 19.4 2.9 19.7 2.9 Q19.8 2.05 20.35 1.75 L21.4 1.05 21.5 1.25 Q21.45 1.7 20.0 2.1 L20.05 2.75 Q20.05 3.15 19.65 3.2 19.2 2.9 18.95 2.9 L18.55 3.0 18.5 3.35 18.45 2.9" fill="#660000" fill-rule="evenodd" stroke="none"/>
    </g>
    <g id="shape4">
      <path d="M-13.2 1.5 L-13.1 0.2 Q-12.8 -1.45 -9.1 -2.65 -5.45 -3.9 -0.65 -4.2 4.1 -4.5 7.15 -4.2 L15.35 -2.7 Q20.5 -1.6 20.1 -0.1 L19.3 1.85 18.9 2.1 Q15.8 3.45 12.4 4.25 L6.2 4.65 -0.85 4.35 -7.45 3.6 Q-10.5 3.05 -13.2 1.5" fill="#efb63a" fill-opacity="0.9882353" fill-rule="evenodd" stroke="none"/>
      <path d="M-13.2 1.5 Q-14.3 0.65 -14.3 -0.25 -14.3 -2.25 -9.1 -3.6 -3.95 -5.0 3.35 -5.0 10.7 -5.0 15.85 -3.6 21.0 -2.25 21.0 -0.25 21.0 0.9 19.3 1.85 L20.1 -0.1 Q20.5 -1.6 15.35 -2.7 L7.15 -4.2 Q4.1 -4.5 -0.65 -4.2 -5.45 -3.9 -9.1 -2.65 -12.8 -1.45 -13.1 0.2 L-13.2 1.5" fill="#fed987" fill-opacity="0.9882353" fill-rule="evenodd" stroke="none"/>
      <path d="M3.1 -2.6 Q2.8 -2.2 1.25 -1.3 -0.55 -0.25 -1.3 -0.25 L-2.35 -0.45 -2.45 -0.5 Q-1.2 -0.6 0.35 -1.65 1.85 -2.65 2.9 -2.65 L3.1 -2.6 M0.55 -0.1 L0.0 0.2 Q0.0 -0.3 1.0 -0.6 2.3 -1.0 2.6 -1.4 L3.7 -2.55 5.6 -2.85 Q6.7 -2.85 7.3 -2.25 L7.1 -2.2 6.05 -2.4 Q5.05 -2.4 3.85 -1.3 2.65 -0.2 1.75 -0.2 L1.1 -0.3 0.55 -0.1 M3.35 -0.1 L4.15 -1.1 Q4.9 -1.95 5.95 -1.95 L6.9 -1.7 6.0 -1.3 5.15 -0.9 Q4.45 -0.2 3.7 -0.2 L3.35 -0.1 M5.15 -0.3 L5.8 -1.05 7.45 -1.5 Q8.2 -1.5 8.5 -0.8 L8.4 -0.75 7.55 -0.9 7.0 -0.55 5.9 -0.4 5.4 -0.1 5.2 -0.15 5.15 -0.3 M9.3 -1.1 Q11.7 -1.3 13.1 -1.05 14.3 -0.8 14.3 -0.3 14.3 0.05 14.0 0.05 13.6 0.05 13.4 -0.2 L12.85 -0.55 9.3 -0.9 9.3 -1.1 M9.35 -2.05 L10.6 -1.8 Q11.2 -1.8 11.45 -2.05 L13.5 -2.05 Q15.1 -1.7 15.1 -1.05 L15.05 -0.8 14.95 -0.75 14.45 -1.1 Q14.05 -1.6 13.4 -1.7 L11.45 -1.7 10.8 -1.6 10.15 -1.7 9.3 -2.0 9.35 -2.05 M7.8 -0.4 L10.3 -0.7 Q11.65 -0.7 12.55 0.0 L12.5 0.15 12.3 0.2 10.3 -0.3 8.9 0.0 8.35 -0.1 8.0 -0.3 7.8 -0.4 M17.4 -1.2 Q16.8 -1.2 16.8 -1.65 16.8 -1.95 17.4 -1.95 18.0 -1.95 18.0 -1.5 18.0 -1.2 17.4 -1.2 M-8.35 -2.05 Q-8.35 -2.4 -7.9 -2.35 -7.5 -2.35 -7.5 -2.1 -7.5 -1.7 -8.05 -1.7 -8.4 -1.7 -8.35 -2.05 M-7.9 -1.2 L-8.2 -1.1 -8.5 -1.15 -8.6 -1.45 -7.9 -1.2 M-9.8 -1.05 Q-10.7 -1.05 -10.7 -1.6 -10.7 -2.2 -9.85 -2.2 -9.05 -2.2 -9.05 -1.6 -9.05 -1.05 -9.8 -1.05 M-5.15 -1.65 L-3.35 -1.45 Q-2.0 -1.45 -1.9 -0.9 L-2.0 -0.85 -2.3 -1.05 -5.05 -1.35 -5.2 -1.65 -5.15 -1.65 M-5.75 -0.6 L-2.7 -0.9 -2.35 -0.9 -2.3 -0.75 -2.35 -0.55 -4.3 -0.2 -5.3 -0.3 -5.7 -0.55 -5.75 -0.6 M-1.7 -3.0 Q-2.35 -3.0 -2.35 -3.45 -2.35 -3.9 -1.55 -3.85 -0.8 -3.8 -0.8 -3.4 -0.8 -3.0 -1.7 -3.0 M-0.35 -3.6 L-0.05 -3.9 Q0.25 -4.0 0.25 -3.7 0.25 -3.4 -0.3 -3.4 L-0.35 -3.6" fill="#f8e3b5" fill-opacity="0.9882353" fill-rule="evenodd" stroke="none"/>
      <path d="M-11.5 -1.15 L-11.95 -1.65 Q-11.95 -2.6 -10.25 -1.75 -8.65 -0.9 -8.65 -0.2 -8.65 0.0 -8.8 0.0 -9.1 0.0 -10.55 -0.85 L-11.5 -1.15 M-4.8 -2.85 L-1.3 -2.85 -0.1 -2.8 0.2 -2.55 0.25 -2.35 -0.2 -1.9 -0.7 -1.5 -2.1 -1.7 -3.05 -1.7 Q-4.7 -1.7 -6.65 -0.2 -7.4 -0.2 -8.15 -1.0 -8.9 -1.7 -8.9 -2.05 -8.9 -2.6 -8.05 -2.6 L-4.8 -2.8 -4.8 -2.85 M-3.5 -1.0 L-0.25 -1.2 -0.05 -1.1 -0.05 -1.0 Q-0.05 -0.4 -2.1 0.05 L-3.35 0.5 -4.75 0.75 -5.7 0.65 -5.95 -0.1 Q-5.95 -0.8 -4.75 -1.0 L-3.5 -1.0" fill="#c77a24" fill-opacity="0.9882353" fill-rule="evenodd" stroke="none"/>
      <path d="M11.4 -5.85 L13.8 -5.35 15.6 -4.75 15.6 -4.8 16.6 -4.5 16.1 -4.6 Q17.4 -4.1 17.4 -3.55 L16.6 -2.9 Q15.8 -2.4 14.75 -2.35 13.7 -2.3 12.85 -3.0 L11.8 -2.95 Q10.7 -2.2 10.2 -2.2 L9.3 -2.4 8.8 -2.7 7.5 -2.6 Q7.0 -2.6 6.9 -3.1 L6.85 -3.55 5.95 -4.0 Q5.65 -4.05 5.65 -4.4 5.65 -4.6 6.2 -4.6 L7.75 -4.75 7.8 -4.9 7.5 -5.35 Q7.5 -5.55 9.55 -6.0 L11.4 -5.85" fill="#c97247" fill-opacity="0.9882353" fill-rule="evenodd" stroke="none"/>
    </g>
    <g id="shape5">
      <path d="M21.85 -3.2 Q21.65 -1.35 16.3 -0.1 10.85 1.3 3.1 1.3 -4.6 1.3 -10.15 -0.1 -15.4 -1.35 -15.6 -3.2 L-15.8 -2.3 Q-15.8 3.3 -10.25 7.25 -4.7 11.2 3.05 11.2 10.8 11.2 16.3 7.25 21.85 3.3 21.85 -2.3 L21.85 -3.2 21.85 -3.3 Q21.85 -5.25 16.3 -6.6 10.85 -7.95 3.1 -7.95 -4.6 -7.95 -10.15 -6.6 -15.6 -5.25 -15.6 -3.3 L-15.6 -3.2" ffdec:has-small-stroke="true" ffdec:original-stroke-width="1.0" fill="none" stroke="#000000" stroke-linecap="round" stroke-linejoin="round" stroke-width="1.8183053741363242"/>
    </g>
    <g id="sprite4">
      <use ffdec:characterId="15" height="11.3" transform="matrix(1.0, 0.0, 0.0, 1.0, 0.0, 0.0)" width="24.15" xlink:href="#shape6"/>
    </g>
    <g id="shape6">
      <path d="M18.9 6.55 Q24.45 7.95 24.15 9.2 23.8 10.4 22.7 9.65 21.55 8.95 19.05 8.7 L21.05 9.95 Q21.2 10.3 20.25 10.85 19.35 11.45 17.1 10.05 14.85 8.65 13.55 9.2 L11.3 10.15 Q10.3 10.45 9.4 10.9 8.55 11.3 7.55 10.9 6.55 10.45 7.0 10.0 L8.35 8.85 1.85 8.9 Q-0.35 8.9 0.8 6.95 1.9 5.0 3.75 4.55 5.6 4.1 8.35 5.15 L9.85 3.2 11.4 0.0 Q13.35 0.2 16.65 2.5 20.2 5.1 18.9 6.55" fill="#e5a933" fill-rule="evenodd" stroke="none"/>
      <path d="M18.85 5.25 L18.75 5.45 Q16.05 3.9 14.55 3.35 12.5 2.6 11.7 2.0 10.9 1.4 11.65 0.5 12.4 -0.45 16.1 2.2 L17.85 3.7 Q18.95 4.7 18.85 5.25" fill="#fffa57" fill-rule="evenodd" stroke="none"/>
      <path d="M22.75 9.05 Q21.75 8.5 21.1 8.4 L19.15 7.75 19.05 7.45 Q19.15 6.7 21.6 7.65 23.85 8.45 23.95 8.95 L22.75 9.05" fill="#fffa57" fill-rule="evenodd" stroke="none"/>
      <path d="M14.25 4.4 L13.4 3.7 Q16.1 4.55 17.1 6.15 16.5 6.8 15.75 6.15 L14.25 4.4" fill="#fffa57" fill-rule="evenodd" stroke="none"/>
      <path d="M18.4 6.15 Q19.0 7.25 18.5 7.85 L18.2 8.05 Q17.1 5.6 15.0 3.95 L14.5 3.6 Q17.05 4.25 18.4 6.15" fill="#c35600" fill-rule="evenodd" stroke="none"/>
      <path d="M17.1 8.7 Q18.05 7.65 18.5 7.9 L19.4 8.8 17.1 8.7" fill="#c35600" fill-rule="evenodd" stroke="none"/>
      <path d="M15.85 6.45 L15.55 6.55 13.95 5.25 Q12.45 3.95 11.6 3.75 L10.45 3.75 10.1 3.45 Q10.25 2.65 11.7 3.25 L13.45 4.15 15.85 6.45" fill="#c35600" fill-rule="evenodd" stroke="none"/>
      <path d="M12.45 3.85 L13.35 4.5 Q11.8 4.95 10.65 6.05 L11.1 5.3 Q11.9 3.65 12.45 3.85" fill="#c35600" fill-rule="evenodd" stroke="none"/>
      <path d="M10.85 3.55 L6.8 7.1 Q7.0 6.3 8.0 5.0 8.3 4.45 9.35 3.9 11.3 2.75 10.85 3.55" fill="#c35600" fill-rule="evenodd" stroke="none"/>
      <path d="M17.3 8.2 Q17.2 8.75 16.85 8.7 L16.3 7.85 Q15.75 6.9 14.55 6.7 14.2 6.65 13.75 6.9 L13.5 6.7 14.55 6.1 15.85 6.25 16.8 7.2 Q17.35 7.9 17.3 8.2" fill="#c35600" fill-rule="evenodd" stroke="none"/>
      <path d="M20.45 10.0 Q20.7 10.55 20.05 10.55 19.4 10.5 19.0 10.25 L17.8 9.65 Q16.95 9.25 16.55 9.2 16.15 9.05 16.8 8.75 17.45 8.4 18.9 9.05 L20.45 10.0" fill="#fffa57" fill-rule="evenodd" stroke="none"/>
      <path d="M13.7 5.25 Q13.95 5.95 13.3 6.25 L10.6 7.2 Q11.45 5.6 12.1 5.25 13.35 4.55 13.7 5.25" fill="#fffa57" fill-rule="evenodd" stroke="none"/>
      <path d="M10.7 4.65 Q10.8 5.2 8.45 6.65 9.0 5.4 9.8 4.75 10.6 4.05 10.7 4.65" fill="#fffa57" fill-rule="evenodd" stroke="none"/>
      <path d="M15.2 7.95 L13.8 8.5 11.45 9.05 Q9.9 9.5 11.9 8.25 13.85 6.95 14.85 7.35 15.95 7.65 15.2 7.95" fill="#fffa57" fill-rule="evenodd" stroke="none"/>
      <path d="M4.65 6.05 Q6.35 6.15 6.65 6.65 6.95 7.15 8.4 7.65 9.9 8.1 10.55 7.65 11.25 7.2 12.9 7.05 L12.9 7.15 11.5 7.95 9.85 8.5 6.8 7.45 Q4.1 6.4 2.75 6.25 L1.15 6.35 2.1 6.1 4.65 6.05" fill="#c35600" fill-rule="evenodd" stroke="none"/>
      <path d="M7.1 4.6 Q8.75 5.2 8.3 5.25 L5.7 4.9 3.6 4.65 3.5 4.6 Q5.4 4.0 7.1 4.6" fill="#c35600" fill-rule="evenodd" stroke="none"/>
      <path d="M3.9 6.8 Q5.2 7.05 4.9 7.2 L3.35 7.6 Q2.05 7.8 2.05 7.35 L2.35 6.75 3.9 6.8" fill="#fffb78" fill-rule="evenodd" stroke="none"/>
      <path d="M4.3 5.0 L5.35 5.3 Q5.85 5.5 5.25 5.6 L3.9 5.55 Q3.15 5.45 3.45 5.2 3.7 4.95 4.3 5.0" fill="#fffb78" fill-rule="evenodd" stroke="none"/>
      <path d="M3.2 4.25 L4.65 4.35 Q2.75 5.1 2.45 5.4 L2.0 6.0 1.1 7.1 Q0.6 7.7 0.6 8.3 0.6 8.7 2.55 8.95 L1.5 8.95 0.9 9.1 Q0.0 9.1 0.0 8.25 0.0 7.7 0.5 7.15 L1.3 6.05 1.75 5.15 2.2 4.6 2.7 4.35 3.2 4.25" fill="#911313" fill-rule="evenodd" stroke="none"/>
      <path d="M19.2 6.05 L18.9 7.3 Q18.65 8.15 18.05 8.5 L16.65 8.8 15.25 8.95 13.2 9.35 13.15 9.35 Q14.1 8.8 17.15 8.0 L18.5 7.1 19.2 6.05" fill="#911313" fill-rule="evenodd" stroke="none"/>
      <path d="M8.45 8.85 Q7.35 10.0 7.5 10.25 L8.25 10.6 10.05 10.45 11.3 10.05 13.05 9.35 13.35 9.35 11.7 10.45 Q10.15 11.3 9.25 11.3 6.75 11.3 6.75 10.35 6.75 9.85 7.3 9.5 7.75 9.15 8.45 8.85" fill="#911313" fill-rule="evenodd" stroke="none"/>
    </g>
    <g id="sprite5">
      <use ffdec:characterId="17" height="18.35" transform="matrix(1.0, 0.0, 0.0, 1.0, 0.0, 0.0)" width="19.8" xlink:href="#shape7"/>
    </g>
    <g id="shape7">
      <path d="M-8.05 4.05 L-8.4 4.0 -6.85 1.55 -9.75 0.2 -6.9 -1.6 -8.4 -3.85 -5.35 -4.05 -5.05 -7.05 -2.0 -6.4 -0.45 -8.95 1.35 -6.7 3.25 -8.4 4.35 -6.3 6.45 -6.75 6.65 -3.65 6.7 -3.65 5.5 -3.15 5.25 -5.2 3.85 -5.0 2.85 -6.35 1.1 -5.2 -0.3 -6.8 -1.55 -5.1 -4.0 -5.4 -4.1 -3.35 -6.4 -2.95 -5.25 -1.35 -7.35 -0.15 -5.3 1.35 -7.55 3.45 -8.05 4.05" fill="#ffffff" fill-rule="evenodd" stroke="none"/>
      <path d="M6.7 -3.65 L9.35 -2.9 7.6 -0.85 9.35 1.4 6.65 2.9 7.4 5.6 4.2 5.5 3.4 8.4 1.15 6.35 -1.4 8.7 -2.25 5.95 -6.2 6.8 -5.65 4.2 -8.05 4.05 -7.55 3.45 -5.3 1.35 -7.35 -0.15 -5.25 -1.35 -6.4 -2.95 -4.1 -3.35 -4.0 -5.4 -1.55 -5.1 -0.3 -6.8 1.1 -5.2 2.85 -6.35 3.85 -5.0 5.25 -5.2 5.5 -3.15 6.7 -3.65" fill="#f5f3ef" fill-rule="evenodd" stroke="none"/>
      <path d="M-8.05 4.05 L-8.4 4.0 -6.85 1.55 -9.75 0.2 -6.9 -1.6 -8.4 -3.85 -5.35 -4.05 -5.05 -7.05 -2.0 -6.4 -0.45 -8.95 1.35 -6.7 3.25 -8.4 4.35 -6.3 6.45 -6.75 6.65 -3.65 6.7 -3.65 9.35 -2.9 7.6 -0.85 9.35 1.4 6.65 2.9 7.4 5.6 4.2 5.5 3.4 8.4 1.15 6.35 -1.4 8.7 -2.25 5.95 -6.2 6.8 -5.65 4.2 -8.05 4.05 Z" ffdec:has-small-stroke="true" ffdec:original-stroke-width="0.75" fill="none" stroke="#660000" stroke-linecap="round" stroke-linejoin="round" stroke-width="4.126391875523338"/>
      <path d="M0.85 -0.7 L0.55 0.25 0.75 0.85 1.35 1.35 1.9 1.2 Q2.7 1.2 2.95 0.75 L3.1 -0.1 Q3.1 -1.1 2.45 -1.95 1.6 -3.05 0.0 -3.05 -2.8 -3.05 -2.8 0.0 -2.8 1.3 -1.3 2.7 L0.15 4.0 0.1 4.45 Q0.0 4.65 -0.45 4.65 -1.75 4.65 -2.8 2.35 L-3.6 0.0 Q-3.6 -4.45 0.2 -4.25 3.95 -4.0 3.95 -0.55 3.95 0.95 3.6 1.55 3.05 2.55 1.3 2.55 -0.05 2.55 -0.25 0.35 L0.15 -1.4 Q0.75 -1.25 0.85 -0.7" fill="#fd0b54" fill-rule="evenodd" stroke="none"/>
    </g>
    <g id="sprite6">
      <use ffdec:characterId="19" height="10.75" transform="matrix(1.0, 0.0, 0.0, 1.0, 0.0, 0.0)" width="12.95" xlink:href="#shape8"/>
    </g>
    <g id="shape8">
      <path d="M10.55 8.5 Q8.15 10.75 5.8 10.5 3.35 10.3 2.1 9.1 L1.75 8.7 Q2.9 9.45 5.35 9.15 7.75 8.8 10.05 5.95 12.35 3.05 12.65 4.5 12.2 6.85 10.55 8.5" fill="#cfa9a9" fill-rule="evenodd" stroke="none"/>
      <path d="M8.8 8.55 L7.25 9.25 4.5 9.7 Q1.4 9.4 0.4 6.8 -0.45 4.0 1.8 1.9 2.6 1.1 4.05 0.65 L5.3 0.35 5.9 0.2 10.2 0.45 Q12.0 1.15 12.4 2.65 13.0 4.1 12.0 5.75 11.0 7.5 8.8 8.55" fill="#ffeded" fill-rule="evenodd" stroke="none"/>
      <path d="M8.8 8.55 L7.25 9.25 4.5 9.7 Q1.4 9.4 0.4 6.8 -0.45 4.0 1.8 1.9 2.6 1.1 4.05 0.65 L5.3 0.35 5.9 0.2 10.2 0.45 Q12.0 1.15 12.4 2.65 13.0 4.1 12.0 5.75 11.0 7.5 8.8 8.55 Z" ffdec:has-small-stroke="true" ffdec:original-stroke-width="0.5" fill="none" stroke="#660000" stroke-linecap="round" stroke-linejoin="round" stroke-width="2.3274158620392957"/>
      <path d="M9.8 8.55 L8.5 9.5 7.15 10.15 4.6 10.3 Q3.0 10.1 1.5 8.65 0.2 7.4 0.2 5.55 0.25 7.75 2.35 8.8 4.15 9.7 6.15 9.35 8.25 8.95 10.05 7.65 L11.9 5.95 9.8 8.55" fill="#968282" fill-rule="evenodd" stroke="none"/>
      <path d="M11.75 3.6 Q11.75 4.95 10.55 5.9 9.35 6.9 7.65 6.9 5.95 6.9 4.75 5.9 3.55 4.95 3.55 3.6 3.55 2.25 4.75 1.25 5.95 0.3 7.65 0.3 9.35 0.3 10.55 1.25 11.75 2.25 11.75 3.6" fill="#ffffff" fill-rule="evenodd" stroke="none"/>
      <path d="M9.2 3.6 Q9.45 4.9 8.6 6.0 7.75 7.05 6.15 7.4 L3.35 7.15 Q2.05 6.55 1.8 5.25 1.5 4.0 2.4 2.9 3.25 1.75 4.8 1.4 6.4 1.05 7.65 1.75 8.9 2.35 9.2 3.6" fill="#d93911" fill-rule="evenodd" stroke="none"/>
      <path d="M5.95 5.2 L5.7 5.2 5.7 5.1 Q5.5 4.8 5.3 4.85 L5.3 4.95 4.6 4.95 4.6 5.05 Q3.8 5.0 3.15 4.4 L3.0 4.15 Q3.05 3.1 3.25 2.75 4.35 1.7 5.7 1.35 6.65 1.15 7.5 1.6 8.35 1.95 8.45 2.55 L8.5 3.7 8.4 4.15 8.5 4.55 8.05 5.1 7.5 5.55 7.35 5.55 6.65 5.8 Q5.75 6.0 5.65 5.8 L5.95 5.2 M6.65 5.3 L7.0 5.2 7.25 5.2 7.45 4.9 6.65 5.15 6.05 5.2 6.65 5.3 M4.15 5.75 L4.4 5.9 3.9 6.15 3.75 6.15 4.05 6.45 Q3.95 6.7 3.5 6.6 3.25 6.5 3.35 6.1 L2.85 5.55 2.95 5.25 4.15 5.75 M7.5 6.3 L7.1 6.65 6.6 6.75 6.35 6.75 6.3 6.65 Q6.3 6.35 6.95 6.2 L7.5 6.3" fill="#ff7031" fill-rule="evenodd" stroke="none"/>
    </g>
    <g id="shape9">
      <path d="M7.15 -2.6 L7.7 -1.95 7.55 -1.25 Q7.35 -0.95 6.05 -0.85 L4.6 -0.9 Q4.2 -2.1 5.4 -2.45 L7.15 -2.6" fill="#40cc21" fill-rule="evenodd" stroke="none"/>
      <path d="M7.15 -2.6 L7.7 -1.95 7.55 -1.25 Q7.35 -0.95 6.05 -0.85 L4.6 -0.9 Q4.2 -2.1 5.4 -2.45 L7.15 -2.6 Z" ffdec:has-small-stroke="true" ffdec:original-stroke-width="0.5" fill="none" stroke="#126600" stroke-linecap="round" stroke-linejoin="round" stroke-width="1.8183053741363242"/>
      <path d="M-0.1 -2.15 L0.25 -0.7 -0.6 -0.15 -0.95 -0.25 Q-2.25 -0.8 -1.8 -1.8 -1.3 -2.7 -0.1 -2.15" fill="#40cc21" fill-rule="evenodd" stroke="none"/>
      <path d="M-0.1 -2.15 L0.25 -0.7 -0.6 -0.15 -0.95 -0.25 Q-2.25 -0.8 -1.8 -1.8 -1.3 -2.7 -0.1 -2.15 Z" ffdec:has-small-stroke="true" ffdec:original-stroke-width="0.5" fill="none" stroke="#126600" stroke-linecap="round" stroke-linejoin="round" stroke-width="1.8183053741363242"/>
      <path d="M7.1 -4.0 L8.5 -3.6 Q9.45 -3.3 8.75 -2.85 L7.95 -2.15 7.4 -2.3 5.95 -2.9 6.5 -3.75 Q6.65 -4.05 7.1 -4.0" fill="#40cc21" fill-rule="evenodd" stroke="none"/>
      <path d="M7.1 -4.0 L8.5 -3.6 Q9.45 -3.3 8.75 -2.85 L7.95 -2.15 7.4 -2.3 5.95 -2.9 6.5 -3.75 Q6.65 -4.05 7.1 -4.0 Z" ffdec:has-small-stroke="true" ffdec:original-stroke-width="0.5" fill="none" stroke="#126600" stroke-linecap="round" stroke-linejoin="round" stroke-width="1.8183053741363242"/>
      <path d="M10.65 -4.6 Q11.65 -3.8 10.6 -3.25 L8.45 -3.15 Q7.5 -3.6 8.6 -4.5 L10.65 -4.6" fill="#40cc21" fill-rule="evenodd" stroke="none"/>
      <path d="M10.65 -4.6 Q11.65 -3.8 10.6 -3.25 L8.45 -3.15 Q7.5 -3.6 8.6 -4.5 L10.65 -4.6 Z" ffdec:has-small-stroke="true" ffdec:original-stroke-width="0.5" fill="none" stroke="#126600" stroke-linecap="round" stroke-linejoin="round" stroke-width="1.8183053741363242"/>
      <path d="M8.65 -1.95 L9.05 -1.85 9.8 -1.5 10.25 -0.95 9.3 0.1 8.0 0.15 Q7.6 0.0 7.45 -0.45 L8.65 -1.95" fill="#40cc21" fill-rule="evenodd" stroke="none"/>
      <path d="M8.65 -1.95 L9.05 -1.85 9.8 -1.5 10.25 -0.95 9.3 0.1 8.0 0.15 Q7.6 0.0 7.45 -0.45 L8.65 -1.95 Z" ffdec:has-small-stroke="true" ffdec:original-stroke-width="0.5" fill="none" stroke="#126600" stroke-linecap="round" stroke-linejoin="round" stroke-width="1.8183053741363242"/>
      <path d="M6.6 -4.35 L4.6 -3.65 3.5 -4.0 3.55 -4.25 Q3.9 -5.25 5.45 -5.3 6.9 -5.3 6.6 -4.35" fill="#40cc21" fill-rule="evenodd" stroke="none"/>
      <path d="M6.6 -4.35 L4.6 -3.65 3.5 -4.0 3.55 -4.25 Q3.9 -5.25 5.45 -5.3 6.9 -5.3 6.6 -4.35 Z" ffdec:has-small-stroke="true" ffdec:original-stroke-width="0.5" fill="none" stroke="#126600" stroke-linecap="round" stroke-linejoin="round" stroke-width="1.8183053741363242"/>
    </g>
    <g id="sprite7">
      <clipPath id="clipPath1">
        <path d="M 5.93 -21.32 L 5.05 -21.3 L 4.17 -21.26 L 3.29 -21.19 L 2.4 -21.1 L 1.73 -21.01 L 1.06 -20.9 L 0.4 -20.78 L -0.26 -20.65 L -0.91 -20.51 L -1.55 -20.35 L -2.19 -20.18 L -2.83 -20 L -3.45 -19.81 L -4.08 -19.6 L -4.69 -19.38 L -5.31 -19.15 L -5.91 -18.91 L -6.51 -18.65 L -7.11 -18.38 L -7.7 -18.1 L -8.75 -17.55 L -9.79 -16.98 L -10.82 -16.38 L -11.82 -15.75 L -12.82 -15.1 L -13.79 -14.43 L -14.75 -13.73 L -15.7 -13 L -16.23 -12.58 L -16.74 -12.15 L -17.25 -11.71 L -17.75 -11.26 L -18.23 -10.81 L -18.71 -10.35 L -19.18 -9.88 L -19.64 -9.4 L -20.09 -8.91 L -20.52 -8.42 L -20.95 -7.92 L -21.37 -7.41 L -21.78 -6.9 L -22.18 -6.37 L -22.57 -5.84 L -22.95 -5.3 L -26.25 -0.95 L -26.68 -0.4 L -27.08 0.16 L -27.46 0.72 L -27.82 1.3 L -28.15 1.89 L -28.47 2.48 L -28.76 3.09 L -29.02 3.7 L -29.27 4.32 L -29.49 4.96 L -29.69 5.6 L -29.87 6.25 L -30.02 6.91 L -30.15 7.58 L -30.26 8.26 L -30.35 8.95 L -30.4 9.55 L -30.44 10.16 L -30.46 10.75 L -30.46 11.35 L -30.45 11.94 L -30.42 12.53 L -30.37 13.12 L -30.3 13.7 L -30.22 14.28 L -30.12 14.86 L -30 15.43 L -29.86 16 L -29.71 16.57 L -29.54 17.13 L -29.35 17.69 L -29.15 18.25 L -28.89 18.8 L -28.61 19.34 L -28.31 19.86 L -28.01 20.37 L -27.68 20.87 L -27.35 21.35 L -26.99 21.82 L -26.62 22.27 L -26.24 22.72 L -25.85 23.15 L -25.43 23.57 L -25.01 23.97 L -24.56 24.36 L -24.11 24.74 L -23.64 25.1 L -23.15 25.45 L -22.72 25.76 L -22.29 26.05 L -21.85 26.33 L -21.4 26.59 L -20.95 26.85 L -20.49 27.09 L -20.02 27.31 L -19.55 27.52 L -19.07 27.72 L -18.59 27.91 L -18.1 28.08 L -17.6 28.24 L -17.1 28.39 L -16.59 28.52 L -16.07 28.64 L -15.55 28.75 L -7.25 29.95 L 7.3 30.9 L 16 30.15 L 16.57 30.03 L 17.11 29.89 L 17.65 29.74 L 18.16 29.57 L 18.66 29.39 L 19.13 29.19 L 19.59 28.97 L 20.04 28.74 L 20.46 28.49 L 20.87 28.22 L 21.26 27.94 L 21.63 27.65 L 21.99 27.33 L 22.33 27.01 L 22.65 26.66 L 22.95 26.3 L 26.25 21.7 L 29.05 13.45 L 29.08 13.32 L 29.14 13.16 L 29.29 12.78 L 29.52 12.31 L 29.81 11.74 L 30.18 11.07 L 30.62 10.31 L 31.12 9.45 L 31.7 8.5 L 32.01 7.96 L 32.3 7.41 L 32.57 6.86 L 32.82 6.31 L 33.04 5.74 L 33.24 5.18 L 33.41 4.6 L 33.56 4.03 L 33.69 3.44 L 33.8 2.85 L 33.88 2.26 L 33.94 1.66 L 33.98 1.05 L 33.99 0.44 L 33.98 -0.18 L 33.95 -0.8 L 33.92 -1.39 L 33.86 -1.98 L 33.79 -2.56 L 33.7 -3.14 L 33.6 -3.72 L 33.47 -4.29 L 33.33 -4.85 L 33.16 -5.41 L 32.98 -5.97 L 32.78 -6.52 L 32.56 -7.07 L 32.33 -7.62 L 32.07 -8.16 L 31.8 -8.69 L 31.51 -9.22 L 31.2 -9.75 L 26.85 -13.6 L 25.96 -14.28 L 25.06 -14.94 L 24.13 -15.56 L 23.19 -16.15 L 22.22 -16.71 L 21.23 -17.24 L 20.23 -17.73 L 19.2 -18.2 L 18.41 -18.53 L 17.62 -18.85 L 16.82 -19.15 L 16.01 -19.44 L 15.2 -19.71 L 14.39 -19.97 L 13.57 -20.22 L 12.75 -20.45 L 11.91 -20.65 L 11.07 -20.83 L 10.23 -20.98 L 9.38 -21.1 L 8.52 -21.19 L 7.66 -21.26 L 6.8 -21.3 L 5.93 -21.32 Z M 23.59 31.32 L 23.59 31.44 L 23.65 31.8 L 23.85 32.4 L 23.66 31.59 L 23.61 31.39 L 23.59 31.32 Z M 30.4 22.5 L 30.18 22.52 L 29.98 22.56 L 29.78 22.61 L 29.61 22.69 L 29.44 22.78 L 29.29 22.88 L 29.15 23.01 L 29.02 23.15 L 28.91 23.31 L 28.81 23.48 L 28.73 23.68 L 28.66 23.89 L 28.6 24.11 L 28.55 24.36 L 28.52 24.62 L 28.5 24.9 L 28.44 25.46 L 28.4 25.74 L 28.35 26.01 L 28.29 26.27 L 28.22 26.53 L 28.14 26.78 L 28.05 27.02 L 27.95 27.27 L 27.84 27.5 L 27.73 27.73 L 27.6 27.96 L 27.46 28.18 L 27.32 28.39 L 27.16 28.6 L 27 28.8 L 23.85 32.4 L 23.94 32.6 L 24.04 32.8 L 24.15 32.99 L 24.27 33.17 L 24.4 33.35 L 24.54 33.52 L 24.68 33.68 L 24.84 33.84 L 25 33.99 L 25.17 34.13 L 25.36 34.27 L 25.55 34.4 L 25.75 34.52 L 25.96 34.64 L 26.4 34.85 L 26.71 34.98 L 27.02 35.1 L 27.32 35.2 L 27.63 35.28 L 27.93 35.34 L 28.23 35.38 L 28.52 35.41 L 28.82 35.42 L 29.22 35.4 L 29.61 35.35 L 30.01 35.27 L 30.39 35.15 L 30.78 35 L 31.15 34.82 L 31.53 34.6 L 31.9 34.35 L 32.21 34.12 L 32.5 33.88 L 32.78 33.63 L 33.04 33.37 L 33.28 33.1 L 33.51 32.82 L 33.72 32.54 L 33.91 32.24 L 34.09 31.93 L 34.25 31.61 L 34.39 31.28 L 34.52 30.95 L 34.62 30.6 L 34.72 30.24 L 34.79 29.88 L 34.85 29.5 L 34.9 29.11 L 34.94 28.73 L 34.95 28.35 L 34.95 27.98 L 34.92 27.61 L 34.88 27.25 L 34.82 26.9 L 34.74 26.55 L 34.64 26.21 L 34.52 25.88 L 34.38 25.55 L 34.22 25.23 L 34.05 24.91 L 33.85 24.6 L 33.63 24.3 L 33.4 24 L 32.85 23.65 L 32.57 23.42 L 32.28 23.22 L 31.99 23.04 L 31.69 22.89 L 31.38 22.76 L 31.06 22.65 L 30.73 22.56 L 30.4 22.5 Z"/>
      </clipPath>
      <g clip-path="url(#clipPath1)">
        <use ffdec:characterId="7" height="45.65" transform="matrix(-0.5598, 0.7922, 0.7215, 0.6197, 17.9, 23.05)" width="5.45" xlink:href="#sprite8"/>
        <use ffdec:characterId="7" height="45.65" transform="matrix(-0.6569, 0.8041, 0.6455, 0.7383, 21.55, 18.95)" width="5.45" xlink:href="#sprite8"/>
      </g>
    </g>
    <g id="sprite8">
      <use ffdec:characterId="6" height="45.65" transform="matrix(1.0, 0.0, 0.0, 1.0, 0.0, 0.0)" width="5.45" xlink:href="#shape10"/>
    </g>
    <g id="shape10">
      <path d="M2.3 -22.0 L0.85 21.85 -1.4 21.85 -2.35 -22.15 2.3 -22.0" fill="#40250e" fill-rule="evenodd" stroke="none"/>
      <path d="M0.15 -20.35 L0.1 22.5 -0.1 22.75 Q-0.15 22.95 -0.45 22.95 L-0.9 -21.95 Q0.2 -22.15 0.2 -21.4 L0.15 -20.35" fill="#d0a179" fill-rule="evenodd" stroke="none"/>
      <path d="M1.85 -21.7 L1.85 -14.7 1.9 -14.05 1.9 -6.25 -2.1 -6.25 -2.1 -21.7 Q-0.05 -22.0 1.85 -21.7" fill="#990000" fill-rule="evenodd" stroke="none"/>
      <path d="M2.7 -22.7 L1.45 22.45 -1.75 22.45 -2.75 -22.7 2.7 -22.7 M2.05 -21.75 L-2.15 -21.75 -1.2 21.35 0.8 21.3 2.05 -21.75" fill="#000000" fill-rule="evenodd" stroke="none"/>
      <path d="M0.35 -20.85 L0.35 -6.0 -0.75 -6.05 -0.7 -21.8 0.35 -21.85 0.4 -21.65 0.35 -20.85" fill="#cc3300" fill-rule="evenodd" stroke="none"/>
    </g>
  </defs>
</svg>
