<?xml version="1.0" encoding="UTF-8" standalone="no"?>
<svg xmlns:ffdec="https://www.free-decompiler.com/flash" xmlns:xlink="http://www.w3.org/1999/xlink" ffdec:objectType="frame" height="16.9px" width="25.8px" xmlns="http://www.w3.org/2000/svg">
  <g transform="matrix(1.0, 0.0, 0.0, 1.0, 13.05, -14.45)">
    <use ffdec:characterId="13" height="12.7" transform="matrix(1.0, 0.0, 0.0, 1.0, -7.4, 14.65)" width="14.4" xlink:href="#sprite0"/>
    <use ffdec:characterId="4" height="11.0" transform="matrix(-1.0, 0.0, 0.0, 1.0, 12.65, 14.45)" width="9.95" xlink:href="#sprite1"/>
    <use ffdec:characterId="4" height="11.0" transform="matrix(1.0, 0.0, 0.0, 1.0, -12.95, 14.45)" width="9.95" xlink:href="#sprite1"/>
    <use ffdec:characterId="21" height="4.65" transform="matrix(1.0, 0.0, 0.0, 1.0, 1.45, 26.7)" width="7.85" xlink:href="#sprite2"/>
    <use ffdec:characterId="21" height="4.65" transform="matrix(-1.0, 0.0, 0.0, 1.0, -1.95, 26.7)" width="7.85" xlink:href="#sprite2"/>
    <use ffdec:characterId="6" height="2.3" transform="matrix(1.0, 0.0, 0.0, 1.0, -5.65, 20.6)" width="11.0" xlink:href="#sprite3"/>
  </g>
  <defs>
    <g id="sprite0">
      <use ffdec:characterId="12" height="12.7" transform="matrix(1.0, 0.0, 0.0, 1.0, 0.0, 0.0)" width="14.4" xlink:href="#shape0"/>
    </g>
    <g id="shape0">
      <path d="M0.1 1.45 Q1.5 0.4 2.65 0.0 L2.65 2.8 1.4 6.0 0.1 1.45" fill="#f5efe6" fill-rule="evenodd" stroke="none"/>
      <path d="M14.4 1.45 Q13.0 0.4 11.85 0.0 L11.85 2.8 13.1 6.0 14.4 1.45" fill="#f5efe6" fill-rule="evenodd" stroke="none"/>
      <path d="M13.1 5.25 L13.75 8.85 14.1 11.55 7.35 12.4 7.15 12.4 0.4 11.55 0.75 8.85 1.4 5.25 2.6 0.0 7.15 0.35 11.9 0.0 13.1 5.25" fill="#f5efe6" fill-rule="evenodd" stroke="none"/>
      <path d="M1.15 5.85 Q7.05 4.6 13.3 5.85 L13.3 7.4 1.15 7.4 1.15 5.85" fill="#b6ac9c" fill-rule="evenodd" stroke="none"/>
      <path d="M10.95 6.9 Q10.7 8.55 11.85 9.4 12.0 10.85 10.9 11.7 L10.3 11.95 Q11.2 10.6 10.7 8.7 L9.95 7.6 Q10.15 6.35 10.9 6.9 L10.95 6.9 M8.8 7.7 Q10.0 7.85 10.5 9.0 10.95 10.1 9.8 10.45 L8.85 10.65 8.9 10.6 Q9.6 9.9 9.45 9.2 9.25 8.8 8.55 8.6 7.65 8.3 6.65 9.15 L6.5 9.2 6.45 9.0 6.45 8.4 Q7.6 7.5 8.8 7.7 M6.6 9.7 Q6.4 11.05 6.95 11.6 L7.75 12.05 5.75 12.0 5.55 11.2 Q5.65 9.8 6.2 9.7 L6.6 9.7 M5.9 8.9 Q6.0 9.4 5.25 9.55 L3.55 9.2 Q3.15 8.0 6.35 6.3 5.8 8.35 5.9 8.9 M5.1 11.9 Q3.3 11.3 3.3 9.95 L5.1 9.95 Q4.65 10.95 5.1 11.9 M7.75 9.1 L8.55 9.05 8.8 9.15 Q8.75 9.1 8.3 9.55 7.9 9.9 8.15 10.6 9.0 11.7 10.25 10.9 9.85 12.15 9.1 12.1 L7.95 11.85 Q7.45 11.6 7.1 10.35 7.3 9.3 7.75 9.1 M13.05 11.65 L11.6 11.6 Q12.45 11.1 12.7 10.0 13.25 10.85 13.05 11.65" fill="#504e8f" fill-rule="evenodd" stroke="none"/>
      <path d="M6.7 2.3 Q6.95 3.8 5.8 4.8 L5.05 5.9 4.1 6.65 Q3.15 8.25 3.6 4.85 L4.0 0.35 Q5.55 0.95 6.7 2.3" fill="#8e867a" fill-rule="evenodd" stroke="none"/>
      <path d="M3.95 3.25 Q4.35 3.25 4.3 3.5 L4.2 4.0 4.6 4.35 4.25 6.35 Q3.95 7.1 2.35 8.0 0.75 8.85 0.75 7.55 0.75 6.25 1.3 4.7 1.85 3.15 3.6 2.15 5.3 1.15 4.6 2.2 L3.95 3.25" fill="#8e867a" fill-rule="evenodd" stroke="none"/>
      <path d="M0.3 11.5 L0.75 8.3 1.0 7.65 1.5 7.4 1.95 7.55 3.25 7.3 Q2.75 7.6 2.2 11.95 L0.3 11.5" fill="#8e867a" fill-rule="evenodd" stroke="none"/>
      <path d="M13.9 8.7 L14.2 11.45 12.45 11.9 12.9 8.85 Q13.0 7.3 13.2 7.1 13.4 6.9 13.5 7.0 13.65 7.05 13.8 7.25 L13.9 8.7" fill="#8e867a" fill-rule="evenodd" stroke="none"/>
      <path d="M3.65 9.55 L2.8 9.4 2.4 8.95 Q3.25 6.05 5.75 2.75 L5.8 2.7 3.6 0.1 10.7 0.1 Q9.55 1.35 7.5 4.65 5.35 7.95 4.8 9.5 L4.8 9.55 3.65 9.55" fill="#211f5f" fill-rule="evenodd" stroke="none"/>
      <path d="M7.2 4.65 L5.2 3.6 7.25 1.05 9.0 2.0 7.2 4.65" fill="#524cf8" fill-rule="evenodd" stroke="none"/>
      <path d="M13.25 6.45 L13.3 6.3 13.45 6.2 13.6 6.25 13.65 6.4 14.35 11.55 14.3 11.7 14.2 11.75 14.05 11.7 13.95 11.6 13.25 6.45 M0.7 6.4 L0.8 6.25 0.95 6.2 1.05 6.3 1.1 6.45 0.4 11.6 0.35 11.7 0.2 11.75 0.05 11.7 0.0 11.55 0.7 6.4" fill="#2a2a2a" fill-rule="evenodd" stroke="none"/>
      <path d="M14.2 11.8 L8.65 12.65 7.9 12.7 7.15 12.7 6.6 12.7 5.85 12.65 0.3 11.8 Q-0.15 10.95 1.9 11.45 L7.1 12.05 7.15 12.05 7.25 12.05 7.35 12.05 7.4 12.05 12.6 11.45 Q14.65 10.95 14.2 11.8" fill="#000000" fill-rule="evenodd" stroke="none"/>
    </g>
    <g id="sprite1">
      <use ffdec:characterId="3" height="11.0" transform="matrix(1.0, 0.0, 0.0, 1.0, 0.0, 0.0)" width="9.95" xlink:href="#shape1"/>
    </g>
    <g id="shape1">
      <path d="M6.75 8.8 L5.05 11.0 4.7 10.65 0.1 6.7 Q2.4 3.7 4.8 2.05 L7.55 0.2 Q8.95 2.3 7.3 8.3 L6.75 8.8" fill="#f5efe6" fill-rule="evenodd" stroke="none"/>
      <path d="M8.3 4.5 L7.3 8.45 5.15 11.0 4.4 10.4 Q6.55 4.5 7.6 3.55 8.6 2.6 8.3 4.5" fill="#b6ac9c" fill-rule="evenodd" stroke="none"/>
      <path d="M2.05 4.4 L6.95 8.9 5.9 10.15 1.0 5.55 2.05 4.4" fill="#211f5f" fill-rule="evenodd" stroke="none"/>
      <path d="M6.15 1.05 L6.8 0.85 Q7.15 0.8 7.35 1.15 L9.65 3.65 9.7 3.9 9.7 4.1 9.4 4.55 6.25 7.2 6.0 7.3 3.8 5.1 Q3.6 4.8 3.7 4.5 L4.0 4.0 5.9 2.75 6.4 2.85 7.2 3.65 5.8 4.75 6.3 5.25 8.2 3.7 6.45 1.8 Q5.95 1.9 4.75 2.7 L3.3 3.55 2.95 3.5 3.45 3.05 6.15 1.05" fill="#211f5f" fill-rule="evenodd" stroke="none"/>
      <path d="M3.45 5.6 L3.55 5.65 3.6 5.8 3.7 7.55 5.6 7.65 5.75 7.7 5.8 7.85 5.95 9.95 5.9 10.1 5.75 10.15 5.65 10.1 5.55 9.95 5.45 8.05 3.5 7.9 3.35 7.85 3.3 7.7 3.2 6.0 1.15 5.75 1.0 5.7 0.95 5.55 1.05 5.4 1.2 5.35 3.45 5.6" fill="#ff0000" fill-rule="evenodd" stroke="none"/>
      <path d="M6.1 4.05 L6.05 4.15 5.9 4.2 4.55 4.35 5.4 5.5 6.1 5.65 6.2 5.7 6.55 6.0 7.35 4.55 7.45 4.5 9.2 3.85 7.55 3.0 7.5 2.9 7.45 2.8 7.6 1.85 5.6 1.8 4.1 3.0 3.95 3.05 3.8 3.0 3.75 2.85 3.85 2.7 5.45 1.45 5.55 1.4 7.8 1.45 7.9 1.5 8.0 1.6 8.0 1.7 7.9 2.7 9.75 3.7 9.85 3.8 9.85 3.95 9.75 4.05 7.65 4.8 6.8 6.4 6.7 6.5 6.6 6.5 6.5 6.45 6.0 6.05 5.25 5.85 5.15 5.8 4.0 4.3 3.95 4.15 4.0 4.0 4.15 3.95 5.75 3.85 5.95 2.8 6.05 2.7 6.2 2.65 6.35 2.75 6.35 2.9 6.1 4.05" fill="#ff0000" fill-rule="evenodd" stroke="none"/>
      <path d="M7.35 0.05 L7.5 0.0 7.65 0.1 7.65 0.25 7.55 0.4 Q3.0 2.85 0.3 6.9 L0.15 7.0 0.0 7.0 -0.1 6.85 -0.05 6.7 Q2.7 2.55 7.35 0.05" fill="#373737" fill-rule="evenodd" stroke="none"/>
      <path d="M5.15 10.9 Q5.2 11.2 4.5 10.7 L1.15 7.9 0.0 6.9 Q0.0 6.35 0.8 6.8 L5.15 10.9" fill="#000000" fill-rule="evenodd" stroke="none"/>
    </g>
    <g id="sprite2">
      <use ffdec:characterId="20" height="4.65" transform="matrix(1.0, 0.0, 0.0, 1.0, 0.0, 0.0)" width="7.85" xlink:href="#shape2"/>
    </g>
    <g id="shape2">
      <path d="M3.55 0.15 L3.85 0.25 Q4.6 0.6 4.8 0.95 L5.4 0.25 6.05 0.05 6.8 0.25 7.1 0.7 Q5.8 0.55 4.95 2.55 L3.35 1.4 Q2.1 0.8 0.5 0.5 2.55 -0.25 3.55 0.15" fill="#900000" fill-rule="evenodd" stroke="none"/>
      <path d="M2.9 3.95 L2.75 3.95 2.55 3.8 2.4 3.7 2.6 3.8 2.9 3.95" fill="#766655" fill-rule="evenodd" stroke="none"/>
      <path d="M6.45 4.0 L2.5 4.15 Q1.4 4.1 0.65 3.35 L0.5 3.0 0.4 2.6 0.5 2.1 0.65 1.95 Q1.7 3.05 4.2 3.0 6.7 2.9 7.3 2.15 L7.5 2.7 7.25 3.25 6.45 4.0" fill="#766655" fill-rule="evenodd" stroke="none"/>
      <path d="M0.7 0.8 L0.6 0.7 0.55 0.6 0.6 0.5 0.7 0.45 Q3.4 0.5 4.95 2.4 5.85 0.45 6.95 0.5 L7.05 0.55 7.15 0.65 7.05 0.8 6.95 0.85 Q5.95 0.85 5.1 2.8 L5.05 2.9 4.95 2.9 4.85 2.85 Q3.35 0.85 0.7 0.8" fill="#360000" fill-rule="evenodd" stroke="none"/>
      <path d="M4.9 1.35 L4.9 1.5 4.85 1.7 4.65 1.7 4.5 1.65 Q4.1 1.05 3.3 0.75 L3.15 0.65 3.15 0.45 Q3.15 0.35 3.3 0.35 L3.45 0.35 Q4.45 0.75 4.9 1.35" fill="#ff624d" fill-rule="evenodd" stroke="none"/>
      <path d="M2.0 3.8 L5.6 4.0 Q7.15 3.85 7.2 2.7 L7.25 2.05 7.35 1.85 7.55 1.75 7.75 1.85 7.85 2.05 7.8 2.7 Q7.85 4.35 5.65 4.6 L1.85 4.4 Q-0.3 3.9 0.05 1.75 L0.2 1.55 0.4 1.5 0.6 1.65 0.65 1.85 Q0.4 3.4 2.0 3.8" fill="#3e2a0f" fill-rule="evenodd" stroke="none"/>
      <path d="M2.8 3.95 L5.35 4.0 5.4 4.0 6.7 3.7 7.2 3.2 7.4 3.1 7.6 3.2 7.7 3.4 7.6 3.6 7.0 4.15 6.9 4.25 5.45 4.6 2.75 4.55 Q0.7 4.35 0.2 3.25 L0.2 3.0 0.3 2.85 0.55 2.85 0.75 2.95 Q1.2 3.75 2.8 3.95" fill="#000000" fill-rule="evenodd" stroke="none"/>
      <path d="M4.1 3.2 L4.3 3.3 4.4 3.5 4.35 3.7 4.15 3.8 Q2.2 3.9 1.25 3.25 L1.1 3.05 1.15 2.85 1.35 2.7 1.6 2.75 Q2.4 3.3 4.1 3.2" fill="#d3b08b" fill-rule="evenodd" stroke="none"/>
    </g>
    <g id="sprite3">
      <use ffdec:characterId="5" height="2.3" transform="matrix(1.0, 0.0, 0.0, 1.0, 0.0, 0.0)" width="11.0" xlink:href="#shape3"/>
    </g>
    <g id="shape3">
      <path d="M4.85 2.3 L4.85 0.0 7.7 0.0 Q10.2 0.15 10.75 0.7 L11.0 2.3 4.85 2.3" fill="#ae2d00" fill-rule="evenodd" stroke="none"/>
      <path d="M4.85 0.0 L4.85 2.3 0.0 2.3 0.25 0.7 Q0.75 0.15 3.3 0.0 L4.85 0.0" fill="#c23200" fill-rule="evenodd" stroke="none"/>
      <path d="M7.0 2.3 L3.15 2.3 3.15 0.0 3.3 0.0 7.0 0.0 7.0 2.3" fill="#ff652e" fill-rule="evenodd" stroke="none"/>
      <path d="M7.0 0.0 L7.7 0.0 8.75 0.1 8.75 2.3 7.0 2.3 7.0 0.0 M3.15 2.3 L2.2 2.3 2.2 0.1 2.65 0.05 3.15 0.0 3.15 2.3" fill="#f7480a" fill-rule="evenodd" stroke="none"/>
    </g>
  </defs>
</svg>
