<?xml version="1.0" encoding="UTF-8" standalone="no"?>
<svg xmlns:ffdec="https://www.free-decompiler.com/flash" xmlns:xlink="http://www.w3.org/1999/xlink" ffdec:objectType="frame" height="20.45px" width="23.95px" xmlns="http://www.w3.org/2000/svg">
  <g transform="matrix(1.0, 0.0, 0.0, 1.0, 20.55, -14.2)">
    <use ffdec:characterId="7" height="20.45" transform="matrix(1.0, 0.0, 0.0, 1.0, -20.6, 13.95)" width="18.35" xlink:href="#sprite0"/>
    <use ffdec:characterId="17" height="11.9" transform="matrix(1.0, 0.0, 0.0, 1.0, 0.0, 0.0)" width="16.05" xlink:href="#shape1"/>
  </g>
  <defs>
    <g id="sprite0">
      <use ffdec:characterId="6" height="20.45" transform="matrix(1.0, 0.0, 0.0, 1.0, 0.0, 0.0)" width="18.35" xlink:href="#shape0"/>
    </g>
    <g id="shape0">
      <path d="M1.75 1.45 L3.15 1.65 Q8.1 2.5 11.9 6.75 15.5 10.75 16.7 20.15 L1.15 3.7 1.75 1.45" fill="#60bf49" fill-rule="evenodd" stroke="none"/>
      <path d="M16.7 20.15 Q15.5 10.75 11.9 6.75 8.1 2.5 3.15 1.65 L1.75 1.45 1.95 0.7 Q9.1 -0.4 14.1 4.9 18.5 9.55 18.1 20.45 L16.75 20.45 16.7 20.15" fill="#ddfff8" fill-rule="evenodd" stroke="none"/>
      <path d="M16.7 20.15 L16.75 20.45 Q3.55 19.95 0.3 6.6 L1.15 3.7 16.7 20.15" fill="#9ccaff" fill-rule="evenodd" stroke="none"/>
      <path d="M1.75 1.45 L3.15 1.65 Q8.1 2.5 11.9 6.75 15.5 10.75 16.7 20.15" ffdec:has-small-stroke="true" ffdec:original-stroke-width="0.1" fill="none" stroke="#f4fffc" stroke-linecap="round" stroke-linejoin="round" stroke-width="1.0"/>
      <path d="M16.7 20.15 L16.75 20.45" ffdec:has-small-stroke="true" ffdec:original-stroke-width="0.1" fill="none" stroke="#3d3d3d" stroke-linecap="round" stroke-linejoin="round" stroke-width="1.0"/>
      <path d="M1.95 0.7 L0.3 6.6 Q3.55 19.95 16.75 20.45 L18.1 20.45 Q18.5 9.55 14.1 4.9 9.1 -0.4 1.95 0.7 Z" ffdec:has-small-stroke="true" ffdec:original-stroke-width="0.5" fill="none" stroke="#000000" stroke-linecap="round" stroke-linejoin="round" stroke-width="1.0"/>
    </g>
    <g id="shape1">
      <path d="M-4.5 19.0 L-4.55 19.5 -4.65 19.6 -4.65 19.65 -4.7 19.65 -5.25 20.15 -6.6 21.3 -6.85 21.35 -6.85 21.55 Q-6.65 22.55 -7.45 24.15 -8.85 27.2 -11.05 26.15 L-11.1 26.15 -12.3 24.85 Q-13.0 23.4 -12.3 21.85 -10.8 18.85 -8.45 19.75 L-8.4 19.55 -4.75 16.45 -4.7 16.7 -5.6 17.55 -6.5 18.35 -8.35 19.8 -8.1 19.9 Q-7.2 20.3 -6.9 21.1 -6.45 20.9 -5.7 20.15 L-5.25 19.7 -4.5 19.0 M-11.85 24.6 L-10.85 25.75 Q-9.05 26.55 -7.85 23.95 -7.15 22.55 -7.3 21.6 L-7.35 21.35 -7.4 21.2 Q-7.6 20.6 -8.3 20.3 L-8.65 20.2 Q-10.6 19.5 -11.85 22.05 -12.45 23.4 -11.85 24.6" fill="#000000" fill-rule="evenodd" stroke="none"/>
      <path d="M-4.7 16.7 L-4.5 19.0 -5.25 19.7 -5.7 20.15 Q-6.45 20.9 -6.9 21.1 -7.2 20.3 -8.1 19.9 L-8.35 19.8 -6.5 18.35 -5.6 17.55 -4.7 16.7" fill="#ffcc99" fill-rule="evenodd" stroke="none"/>
      <path d="M-11.4 23.5 Q-11.55 22.65 -11.15 21.75 -10.7 20.9 -10.0 20.55 L-8.5 20.45 Q-7.85 20.75 -7.65 21.65 -7.4 22.45 -7.85 23.3 -8.25 24.2 -9.05 24.6 L-10.5 24.65 Q-11.2 24.3 -11.4 23.5" fill="#fed8b4" fill-rule="evenodd" stroke="none"/>
      <path d="M-11.4 23.5 Q-11.2 24.3 -10.5 24.65 L-9.05 24.6 Q-8.25 24.2 -7.85 23.3 -7.4 22.45 -7.65 21.65 -7.85 20.75 -8.5 20.45 L-10.0 20.55 Q-10.7 20.9 -11.15 21.75 -11.55 22.65 -11.4 23.5 M-11.85 24.6 Q-12.45 23.4 -11.85 22.05 -10.6 19.5 -8.65 20.2 L-8.3 20.3 Q-7.6 20.6 -7.4 21.2 L-7.35 21.35 -7.3 21.6 Q-7.15 22.55 -7.85 23.95 -9.05 26.55 -10.85 25.75 L-11.85 24.6" fill="#fdbf82" fill-rule="evenodd" stroke="none"/>
      <path d="M-3.15 15.7 L-2.95 14.8 -2.45 14.8 -1.95 14.8 -1.55 14.9 -1.45 15.15 -1.15 16.45 Q-0.9 17.1 0.1 17.05 1.0 17.0 1.2 15.95 1.35 14.9 1.45 14.85 L1.7 14.85 2.55 14.8 2.7 14.75 2.9 14.7 3.05 14.7 3.0 15.05 3.0 15.5 2.35 15.35 2.15 15.35 Q1.55 16.3 1.35 17.45 L1.35 17.6 Q0.4 18.7 -0.9 18.35 -1.7 17.65 -1.85 16.35 L-2.15 15.8 -3.15 15.7 M3.25 20.95 L2.6 22.6 Q2.05 23.35 0.8 23.45 0.95 22.2 2.1 21.3 2.75 20.85 3.25 20.95 M-1.1 23.3 L-2.35 22.6 Q-3.2 21.75 -3.2 21.2 L-3.15 20.7 -2.95 20.8 -2.8 20.8 Q-1.8 21.55 -1.15 22.8 L-1.15 23.1 -1.1 23.3" fill="#fd2d95" fill-rule="evenodd" stroke="none"/>
      <path d="M-3.15 15.7 L-2.15 15.8 -1.85 16.35 Q-1.7 17.65 -0.9 18.35 0.4 18.7 1.35 17.6 L1.35 17.45 Q1.55 16.3 2.15 15.35 L2.35 15.35 3.0 15.5 2.95 16.0 3.15 18.6 3.3 20.65 3.25 20.85 3.25 20.95 Q2.75 20.85 2.1 21.3 0.95 22.2 0.8 23.45 L0.45 23.5 0.25 23.5 -1.1 23.3 -1.15 23.1 -1.15 22.8 Q-1.8 21.55 -2.8 20.8 L-2.95 20.8 -3.15 20.7 -3.1 17.85 -3.2 16.45 -3.15 15.7" fill="#fe81c0" fill-rule="evenodd" stroke="none"/>
      <path d="M-2.5 18.5 Q-1.95 18.5 -1.55 18.9 -1.15 19.3 -1.15 19.85 -1.15 20.45 -1.55 20.85 -1.95 21.2 -2.5 21.2 L-3.0 21.1 Q-2.85 20.5 -2.85 19.0 L-2.85 18.55 -2.5 18.5" fill="#ffffff" fill-rule="evenodd" stroke="none"/>
      <path d="M2.3 19.6 Q1.95 19.95 1.5 19.95 1.05 19.95 0.7 19.6 0.35 19.3 0.35 18.85 0.35 18.35 0.7 18.05 1.05 17.7 1.5 17.7 1.95 17.7 2.3 18.05 L2.6 18.85 2.3 19.6" fill="#ffffff" fill-rule="evenodd" stroke="none"/>
      <path d="M1.25 22.5 L0.65 22.75 0.05 22.5 -0.2 21.9 0.05 21.3 0.65 21.05 Q1.0 21.05 1.25 21.3 L1.5 21.9 1.25 22.5" fill="#ffffff" fill-rule="evenodd" stroke="none"/>
      <path d="M3.05 14.5 L3.2 16.4 3.25 18.75 3.4 21.1 3.05 22.3 Q2.65 23.2 2.05 23.3 1.6 23.7 0.3 23.7 L-1.8 23.2 -2.1 22.9 Q-3.3 22.65 -3.3 21.2 L-3.15 19.25 -3.4 16.75 Q-3.4 15.4 -2.9 14.6 L-2.8 15.0 -3.0 16.75 -2.7 19.25 -2.8 21.15 -2.55 21.95 -2.3 22.35 -1.7 22.75 Q-1.05 23.25 0.3 23.25 1.6 23.2 2.25 22.45 L2.2 22.55 2.45 22.25 2.9 21.1 2.8 17.9 Q2.8 15.55 2.95 14.5 L3.05 14.5 M1.5 14.7 L1.55 15.3 Q1.55 17.25 0.05 17.25 -1.65 17.25 -1.65 15.55 L-1.5 14.8 -1.2 15.8 Q-1.05 16.75 0.05 16.75 1.0 16.75 1.05 15.45 1.1 14.35 1.5 14.7" fill="#000000" fill-rule="evenodd" stroke="none"/>
    </g>
  </defs>
</svg>
