<?xml version="1.0" encoding="UTF-8" standalone="no"?>
<svg xmlns:ffdec="https://www.free-decompiler.com/flash" xmlns:xlink="http://www.w3.org/1999/xlink" ffdec:objectType="frame" height="25.0px" width="35.75px" xmlns="http://www.w3.org/2000/svg">
  <g transform="matrix(1.0, 0.0, 0.0, 1.0, 9.9, -10.35)">
    <use ffdec:characterId="7" height="21.7" transform="matrix(0.9659, 0.2588, -0.2588, 0.9659, 10.6, 10.65)" width="15.75" xlink:href="#sprite0"/>
    <use ffdec:characterId="15" height="5.0" transform="matrix(1.0, 0.0, 0.0, 1.0, -6.05, 24.85)" width="11.8" xlink:href="#sprite2"/>
    <use ffdec:characterId="22" height="14.8" transform="matrix(1.0, 0.0, 0.0, 1.0, 0.85, 15.7)" width="8.6" xlink:href="#sprite3"/>
    <use ffdec:characterId="24" height="14.45" transform="matrix(1.0, 0.0, 0.0, 1.0, -9.9, 14.45)" width="17.65" xlink:href="#sprite4"/>
  </g>
  <defs>
    <g id="sprite0">
      <use ffdec:characterId="3" height="21.7" transform="matrix(1.0, 0.0, 0.0, 1.0, 0.0, 0.0)" width="11.3" xlink:href="#shape0"/>
      <use ffdec:characterId="5" height="9.35" transform="matrix(1.0, 0.0, 0.0, 1.0, 0.35, 5.0)" width="6.15" xlink:href="#sprite1"/>
      <use ffdec:characterId="5" height="9.35" transform="matrix(-1.0, 0.0, 0.0, 1.0, 15.4, 5.0)" width="6.15" xlink:href="#sprite1"/>
      <use ffdec:characterId="6" height="20.25" transform="matrix(1.0, 0.0, 0.0, 1.0, 0.0, 0.0)" width="8.9" xlink:href="#shape2"/>
    </g>
    <g id="shape0">
      <path d="M11.65 20.1 Q11.65 20.65 10.55 21.0 L7.9 21.4 5.2 21.0 Q4.1 20.65 4.1 20.1 4.1 19.55 5.2 19.15 L7.9 18.75 10.55 19.15 Q11.65 19.55 11.65 20.1" fill="#000000" fill-rule="evenodd" stroke="none"/>
      <path d="M12.3 1.55 Q12.3 2.2 11.0 2.65 L7.85 3.1 4.7 2.65 Q3.4 2.2 3.4 1.55 3.4 0.9 4.7 0.45 L7.85 0.0 11.0 0.45 Q12.3 0.9 12.3 1.55" fill="#d7d4cb" fill-rule="evenodd" stroke="none"/>
      <path d="M12.3 1.55 Q12.3 2.2 11.0 2.65 L7.85 3.1 4.7 2.65 Q3.4 2.2 3.4 1.55 3.4 0.9 4.7 0.45 L7.85 0.0 11.0 0.45 Q12.3 0.9 12.3 1.55 Z" ffdec:has-small-stroke="true" ffdec:original-stroke-width="0.6" fill="none" stroke="#171940" stroke-linecap="round" stroke-linejoin="round" stroke-width="1.0000065061665857"/>
      <path d="M3.95 2.3 Q3.55 1.8 3.9 1.6 L5.15 1.05 10.65 1.05 11.9 1.6 Q12.15 1.8 11.75 2.3 L11.65 2.35 Q10.05 3.9 10.2 6.25 10.35 8.75 12.05 10.35 13.35 11.6 13.3 12.65 11.9 19.2 11.4 19.85 10.7 20.85 8.1 20.8 5.45 20.75 4.55 19.75 4.15 19.35 3.25 15.95 L2.4 12.65 Q2.4 11.55 3.65 10.35 5.4 8.75 5.55 6.25 5.65 3.9 4.05 2.35 L3.95 2.3" fill="#64bfff" fill-rule="evenodd" stroke="none"/>
      <path d="M3.75 11.1 Q2.7 11.45 3.9 13.7 5.1 15.9 5.85 16.45 6.6 16.95 7.55 17.0 L9.1 16.95 10.45 15.95 11.6 14.25 12.25 12.75 Q12.8 11.3 11.75 10.95 L9.0 10.6 9.5 10.4 10.05 9.95 9.4 8.55 Q8.5 6.5 8.75 4.35 8.95 2.2 9.1 2.05 L9.8 1.9 Q10.55 1.9 10.7 2.15 10.85 2.35 9.9 4.45 8.95 6.5 9.6 7.9 10.15 9.3 10.35 9.15 L10.45 7.0 10.55 8.1 Q11.0 9.4 12.05 10.35 13.35 11.6 13.3 12.65 11.9 19.2 11.4 19.85 10.7 20.85 8.1 20.8 5.45 20.75 4.55 19.75 4.15 19.35 3.25 15.95 L2.4 12.65 Q2.4 11.55 3.65 10.35 L4.9 8.8 5.25 8.15 Q5.0 10.0 6.45 10.6 L3.75 11.1" fill="#2157a7" fill-rule="evenodd" stroke="none"/>
      <path d="M7.6 6.1 L6.2 3.65 8.0 3.95 Q8.35 7.3 7.6 6.1" fill="#c4fbff" fill-rule="evenodd" stroke="none"/>
      <path d="M8.65 8.6 L9.55 9.5 Q9.35 9.95 7.5 9.95 5.65 9.95 6.65 9.2 L7.95 7.6 8.65 8.6" fill="#c4fbff" fill-rule="evenodd" stroke="none"/>
      <path d="M5.8 10.9 L8.15 11.05 8.5 11.75 Q8.6 12.15 7.6 12.85 6.55 13.5 6.1 13.2 5.15 12.55 5.0 11.95 4.85 11.2 5.8 10.9" fill="#c4fbff" fill-rule="evenodd" stroke="none"/>
      <path d="M3.95 2.3 Q3.55 1.8 3.9 1.6 L5.15 1.05 10.65 1.05 11.9 1.6 Q12.15 1.8 11.75 2.3 L11.65 2.35 Q10.05 3.9 10.2 6.25 10.35 8.75 12.05 10.35 13.35 11.6 13.3 12.65 11.9 19.2 11.4 19.85 10.7 20.85 8.1 20.8 5.45 20.75 4.65 20.1 4.35 19.9 4.15 19.35 L2.4 12.65 Q2.4 11.55 3.65 10.35 5.4 8.75 5.55 6.25 5.65 3.9 4.05 2.35 L3.95 2.3 Z" ffdec:has-small-stroke="true" ffdec:original-stroke-width="0.4" fill="none" stroke="#171940" stroke-linecap="round" stroke-linejoin="round" stroke-width="1.0000065061665857"/>
    </g>
    <g id="sprite1">
      <use ffdec:characterId="4" height="9.35" transform="matrix(1.0, 0.0, 0.0, 1.0, 0.0, 0.0)" width="6.15" xlink:href="#shape1"/>
    </g>
    <g id="shape1">
      <path d="M2.8 3.1 L3.95 5.0 4.3 5.95 4.0 6.95 Q3.65 8.0 2.0 8.95 L1.85 8.9 0.75 8.5 0.25 8.05 -0.15 7.55 -0.35 6.75 Q-0.4 6.25 0.1 5.95 0.6 5.65 1.45 5.95 L1.7 6.3 2.05 6.6 2.1 6.6 2.2 6.05 0.6 3.95 Q0.05 3.3 0.1 2.35 0.2 1.1 1.1 0.25 1.9 -0.4 3.0 -0.4 4.0 -0.35 4.55 0.05 L5.5 1.25 5.5 2.45 5.1 2.45 5.1 3.0 4.75 3.85 4.45 3.1 3.75 2.3 3.05 2.25 Q2.75 2.35 2.75 2.65 2.7 2.95 2.8 3.1" fill="#171a40" fill-rule="evenodd" stroke="none"/>
      <path d="M4.35 2.3 Q3.65 1.45 2.75 1.85 1.8 2.2 2.45 3.3 L3.6 5.2 Q4.1 6.0 3.9 7.25 L3.6 7.8 2.9 8.35 1.9 8.5 0.95 8.15 0.25 7.45 Q-0.05 7.05 0.05 6.7 0.1 6.3 0.45 6.25 L1.0 6.25 1.35 6.5 Q2.0 7.3 2.4 6.8 2.75 6.3 2.55 5.85 L0.9 3.7 Q0.4 3.05 0.5 2.05 0.6 1.05 1.35 0.55 2.05 0.0 3.0 0.0 3.9 -0.05 4.7 0.5 5.45 1.05 5.8 2.0 L4.95 3.35 4.35 2.3" fill="#64beff" fill-rule="evenodd" stroke="none"/>
      <path d="M1.9 1.0 Q2.75 0.8 3.65 1.5 L4.55 2.55 Q4.15 2.1 3.5 1.9 2.7 1.65 2.35 2.55 2.4 3.35 3.2 4.4 L3.6 5.2 1.3 2.2 Q1.1 1.15 1.9 1.0" fill="#2156a6" fill-rule="evenodd" stroke="none"/>
      <path d="M4.25 0.25 L5.45 0.75 Q5.7 0.9 5.8 1.9 L5.8 2.05 4.25 0.25" fill="#2156a6" fill-rule="evenodd" stroke="none"/>
      <path d="M2.4 5.6 L3.25 6.8 Q3.3 7.6 2.55 7.5 L1.9 6.95 Q2.75 6.95 2.4 5.6" fill="#2156a6" fill-rule="evenodd" stroke="none"/>
    </g>
    <g id="shape2">
      <path d="M12.3 1.55 Q12.3 2.2 11.0 2.65 L7.85 3.1 4.7 2.65 Q3.4 2.2 3.4 1.55 3.4 0.9 4.7 0.45 L7.85 0.0 11.0 0.45 Q12.3 0.9 12.3 1.55" fill="#64bfff" fill-rule="evenodd" stroke="none"/>
      <path d="M10.2 1.55 L9.5 2.05 7.9 2.2 6.25 2.05 5.55 1.55 Q5.55 1.3 6.25 1.1 L7.9 0.9 9.5 1.1 10.2 1.55" fill="#0a0a25" fill-rule="evenodd" stroke="none"/>
      <path d="M11.0 19.3 Q11.0 19.7 10.1 19.95 L8.05 20.25 5.95 19.95 Q5.1 19.7 5.1 19.3 5.1 18.9 5.95 18.6 L8.05 18.35 10.1 18.6 Q11.0 18.9 11.0 19.3" fill="#3c8bc2" fill-rule="evenodd" stroke="none"/>
      <path d="M7.95 2.7 L10.2 2.5 11.4 2.35 11.4 2.4 11.2 2.6 8.3 3.35 7.95 3.35 7.85 3.35 7.3 3.35 Q5.75 3.15 4.6 2.6 L4.4 2.4 4.4 2.35 5.6 2.5 7.85 2.7 7.95 2.7" fill="#c4fbff" fill-rule="evenodd" stroke="none"/>
    </g>
    <g id="sprite2">
      <use ffdec:characterId="14" height="5.0" transform="matrix(1.0, 0.0, 0.0, 1.0, 0.0, 0.0)" width="11.8" xlink:href="#shape3"/>
    </g>
    <g id="shape3">
      <path d="M11.0 2.1 Q11.0 2.95 9.4 3.55 7.8 4.2 5.5 4.2 L1.6 3.55 Q0.0 2.95 0.0 2.1 0.0 1.25 1.6 0.6 L5.5 0.0 Q7.8 0.0 9.4 0.6 11.0 1.25 11.0 2.1" fill="#082046" fill-rule="evenodd" stroke="none"/>
      <path d="M11.0 2.1 Q11.0 2.95 9.4 3.55 7.8 4.2 5.5 4.2 L1.6 3.55 Q0.0 2.95 0.0 2.1 0.0 1.25 1.6 0.6 L5.5 0.0 Q7.8 0.0 9.4 0.6 11.0 1.25 11.0 2.1 Z" ffdec:has-small-stroke="true" ffdec:original-stroke-width="0.8" fill="none" stroke="#000000" stroke-linecap="round" stroke-linejoin="round" stroke-width="1.0"/>
    </g>
    <g id="sprite3">
      <use ffdec:characterId="21" height="14.8" transform="matrix(1.0, 0.0, 0.0, 1.0, 0.0, 0.0)" width="8.6" xlink:href="#shape4"/>
    </g>
    <g id="shape4">
      <path d="M0.15 4.55 Q0.3 3.05 1.0 1.85 L1.95 0.7 Q2.3 0.3 2.85 0.15 L3.7 0.0 3.75 0.0 Q4.75 0.1 5.55 0.6 L5.6 0.65 7.75 2.3 7.8 2.35 8.2 2.8 8.3 2.95 8.35 3.15 8.45 5.0 8.45 6.2 8.6 8.95 8.6 9.1 8.45 9.3 7.6 9.95 7.55 10.0 6.4 10.9 6.4 13.55 Q6.4 14.2 5.0 14.5 2.4 15.1 0.3 14.45 L0.1 14.3 0.0 14.05 0.15 4.55" fill="#000000" fill-rule="evenodd" stroke="none"/>
      <path d="M0.4 12.15 L0.55 4.6 Q0.7 3.2 1.35 2.05 L2.2 0.95 Q2.5 0.65 2.95 0.5 L3.7 0.4 Q4.6 0.5 5.35 0.95 L7.5 2.6 7.9 3.05 7.95 3.15 8.05 5.0 8.05 6.2 7.7 6.85 7.7 4.35 Q5.6 7.25 4.7 8.0 3.8 8.7 3.6 8.95 3.4 9.15 3.6 9.75 L3.7 10.4 3.35 11.05 2.05 12.65 Q0.85 12.6 0.4 12.15" fill="#c2b9b9" fill-rule="evenodd" stroke="none"/>
      <path d="M8.05 6.2 L8.2 8.95 7.3 9.65 6.0 10.7 4.45 11.65 Q4.25 13.05 6.0 13.5 5.95 13.9 4.9 14.1 2.45 14.7 0.4 14.05 L0.4 12.15 Q0.85 12.6 2.05 12.65 L4.1 12.25 3.7 10.4 3.6 9.75 7.2 7.35 7.3 7.25 7.7 6.85 8.05 6.2" fill="#337cf0" fill-rule="evenodd" stroke="none"/>
      <path d="M2.05 12.65 L3.35 11.05 3.7 10.4 4.1 12.25 2.05 12.65 M3.6 9.75 Q3.4 9.15 3.6 8.95 3.8 8.7 4.7 8.0 5.6 7.25 7.7 4.35 L7.7 6.85 7.3 7.25 7.2 7.35 3.6 9.75" fill="#ffffff" fill-rule="evenodd" stroke="none"/>
      <path d="M6.0 10.7 L6.0 13.5 Q4.25 13.05 4.45 11.65 L6.0 10.7" fill="#082046" fill-rule="evenodd" stroke="none"/>
    </g>
    <g id="sprite4">
      <use ffdec:characterId="23" height="14.45" transform="matrix(1.0, 0.0, 0.0, 1.0, 0.0, 0.0)" width="17.65" xlink:href="#shape5"/>
    </g>
    <g id="shape5">
      <path d="M16.0 1.15 L16.4 1.6 16.45 1.65 17.4 2.5 17.45 2.55 Q17.9 3.2 17.4 3.7 L16.4 4.8 Q15.85 5.4 14.1 9.45 12.9 11.6 11.4 12.8 11.15 13.05 10.85 13.25 10.05 13.85 9.15 14.1 L7.15 14.45 4.35 14.35 0.3 13.5 0.1 13.35 0.0 13.1 0.1 12.85 2.4 10.0 3.85 7.8 4.05 7.6 4.6 7.35 Q4.55 5.95 4.8 4.85 L4.95 4.6 7.1 3.3 8.0 3.3 Q9.0 2.3 15.6 0.0 L16.0 1.15" fill="#000000" fill-rule="evenodd" stroke="none"/>
      <path d="M15.6 0.0 L15.6 1.25 Q15.35 3.5 14.35 5.5 12.95 8.45 10.05 9.45 L12.85 6.2 Q14.55 3.9 15.6 0.0 M1.6 11.75 L2.7 10.25 Q8.75 8.15 11.25 3.85 10.55 7.1 8.25 9.45 5.9 11.75 4.25 12.2 L1.6 11.75 M5.0 7.6 Q4.95 6.1 5.2 4.9 L6.3 4.4 Q8.6 4.0 11.15 2.7 7.15 5.15 5.75 5.25 L6.25 7.0 5.0 7.6" fill="#c2b9b9" fill-rule="evenodd" stroke="none"/>
      <path d="M11.5 1.05 L11.5 0.5 15.6 0.0 Q14.55 3.9 12.85 6.2 L10.05 9.45 Q12.95 8.45 14.35 5.5 15.35 3.5 15.6 1.25 L16.2 1.95 Q15.5 5.05 14.55 7.15 L12.7 10.15 Q11.85 11.05 9.65 11.8 L4.25 12.2 Q5.9 11.75 8.25 9.45 10.55 7.1 11.25 3.85 8.75 8.15 2.7 10.25 L4.2 7.95 5.0 7.6 6.25 7.0 5.75 5.25 Q7.15 5.15 11.15 2.7 L11.25 2.65 11.5 1.05" fill="#ffffff" fill-rule="evenodd" stroke="none"/>
      <path d="M6.3 4.4 L6.3 2.85 Q8.8 2.3 11.5 1.05 L11.25 2.65 11.15 2.7 Q8.6 4.0 6.3 4.4 M10.95 0.55 L10.95 0.6 10.9 0.6 10.95 0.55 11.1 0.5 11.0 0.55 10.95 0.55" fill="#db7c11" fill-rule="evenodd" stroke="none"/>
      <path d="M16.2 1.95 Q16.65 2.2 17.1 2.75 L17.5 3.6 Q15.05 8.6 13.3 10.5 L10.65 12.9 Q9.8 13.4 9.0 13.7 L7.1 14.05 4.35 13.95 0.4 13.1 1.6 11.75 4.25 12.2 9.65 11.8 Q11.85 11.05 12.7 10.15 L14.55 7.15 Q15.5 5.05 16.2 1.95" fill="#347cef" fill-rule="evenodd" stroke="none"/>
      <path d="M6.1 11.3 L8.35 8.35 10.3 4.4 Q11.3 1.95 11.5 0.5 11.7 2.35 11.35 4.2 11.0 6.1 10.45 7.15 8.5 9.85 6.1 11.3" fill="#7d6874" fill-rule="evenodd" stroke="none"/>
    </g>
  </defs>
</svg>
