<?xml version="1.0" encoding="UTF-8" standalone="no"?>
<svg xmlns:ffdec="https://www.free-decompiler.com/flash" xmlns:xlink="http://www.w3.org/1999/xlink" ffdec:objectType="frame" height="19.35px" width="43.0px" xmlns="http://www.w3.org/2000/svg">
  <g transform="matrix(1.0, 0.0, 0.0, 1.0, 18.85, -12.6)">
    <use ffdec:characterId="19" height="17.35" transform="matrix(1.0, 0.0, 0.0, 1.0, 0.0, 0.0)" width="16.8" xlink:href="#shape0"/>
    <use ffdec:characterId="2" height="11.1" transform="matrix(-0.9254, -0.379, -0.379, 0.9254, 19.3, 18.75)" width="12.9" xlink:href="#sprite0"/>
    <use ffdec:characterId="2" height="11.1" transform="matrix(0.9149, -0.4036, 0.4036, 0.9149, -19.3, 19.05)" width="12.9" xlink:href="#sprite1"/>
    <use ffdec:characterId="20" height="17.2" transform="matrix(1.0, 0.0, 0.0, 1.0, 0.0, 0.0)" width="21.15" xlink:href="#shape3"/>
    <use ffdec:characterId="15" height="5.2" transform="matrix(1.0, 0.0, 0.0, 1.0, -13.45, 25.25)" width="10.0" xlink:href="#sprite2"/>
    <use ffdec:characterId="15" height="5.2" transform="matrix(-1.0, 0.0, 0.0, 1.0, 13.3, 25.25)" width="10.0" xlink:href="#sprite3"/>
    <use ffdec:characterId="21" height="5.35" transform="matrix(1.0, 0.0, 0.0, 1.0, 0.0, 0.0)" width="4.55" xlink:href="#shape6"/>
  </g>
  <defs>
    <g id="shape0">
      <path d="M15.2 18.7 L13.9 20.35 13.0 20.95 11.2 20.75 Q10.15 20.2 9.35 19.15 8.5 18.15 8.45 17.15 8.45 16.2 9.2 15.8 L9.3 15.8 9.7 15.55 10.7 15.1 13.0 14.15 15.75 13.5 Q16.65 15.35 15.2 18.7" fill="#a952d6" fill-rule="evenodd" stroke="none"/>
      <path d="M15.75 13.5 Q17.45 13.35 17.75 14.3 L17.8 14.65 Q17.8 15.4 16.6 16.95 L15.2 18.7 Q16.65 15.35 15.75 13.5" fill="#c75cff" fill-rule="evenodd" stroke="none"/>
      <path d="M15.2 18.7 L13.9 20.35 13.0 20.95 11.2 20.75 Q10.15 20.2 9.35 19.15 8.5 18.15 8.45 17.15 8.45 16.2 9.2 15.8 L9.3 15.8 9.7 15.55 10.7 15.1 13.0 14.15 15.75 13.5 Q17.45 13.35 17.75 14.3 L17.8 14.65 Q17.8 15.4 16.6 16.95 L15.2 18.7 Z" ffdec:has-small-stroke="true" ffdec:original-stroke-width="0.1" fill="none" stroke="#2e1b42" stroke-linecap="round" stroke-linejoin="round" stroke-width="1.0"/>
      <path d="M18.35 21.95 L18.2 22.3 17.25 24.0 17.05 24.35 16.6 23.75 14.6 20.9 15.05 20.5 16.95 18.9 17.15 18.75 Q18.7 19.05 18.35 21.95" fill="#c75dff" fill-rule="evenodd" stroke="none"/>
      <path d="M17.15 18.75 Q17.85 18.3 18.35 18.2 L18.35 18.25 18.65 18.25 Q19.05 18.35 19.2 18.95 19.25 19.85 18.35 21.95 18.7 19.05 17.15 18.75" fill="#db98ff" fill-rule="evenodd" stroke="none"/>
      <path d="M18.35 21.95 L18.2 22.3 17.25 24.0 17.05 24.35 16.6 23.75 14.6 20.9 15.05 20.5 16.95 18.9 17.15 18.75 Q17.85 18.3 18.35 18.2 L18.35 18.25 18.65 18.25 Q19.05 18.35 19.2 18.95 19.25 19.85 18.35 21.95 Z" ffdec:has-small-stroke="true" ffdec:original-stroke-width="0.1" fill="none" stroke="#2e1b42" stroke-linecap="round" stroke-linejoin="round" stroke-width="1.0"/>
      <path d="M7.4 30.75 L7.4 15.0 9.4 15.0 17.65 23.4 18.9 24.45 21.85 27.05 Q23.8 26.15 23.8 24.8 24.85 26.65 22.35 28.7 19.85 30.75 16.7 30.75 L7.4 30.75" fill="#b90000" fill-rule="evenodd" stroke="none"/>
      <path d="M23.8 24.8 Q23.8 26.15 21.85 27.05 L18.9 24.45 Q21.85 22.35 23.8 24.8" fill="#ff7c7c" fill-rule="evenodd" stroke="none"/>
      <path d="M7.4 30.75 L16.7 30.75 Q19.85 30.75 22.35 28.7 24.85 26.65 23.8 24.8 M17.65 23.4 L9.4 15.0" ffdec:has-small-stroke="true" ffdec:original-stroke-width="0.1" fill="none" stroke="#000000" stroke-linecap="round" stroke-linejoin="round" stroke-width="1.0"/>
      <path d="M18.9 24.45 L17.65 23.4 M18.9 24.45 Q21.85 22.35 23.8 24.8" ffdec:has-small-stroke="true" ffdec:original-stroke-width="0.1" fill="none" stroke="#151a3c" stroke-linecap="round" stroke-linejoin="round" stroke-width="1.0"/>
      <path d="M20.8 22.55 L20.85 22.45 21.2 21.85 21.25 21.8 21.35 21.7 21.6 21.55 21.9 21.55 22.05 21.65 22.75 23.3 22.8 23.45 22.95 24.3 22.95 24.8 22.8 25.0 22.4 25.2 22.2 25.25 21.95 25.25 21.65 25.25 21.45 25.25 20.8 22.55" fill="#db97ff" fill-rule="evenodd" stroke="none"/>
      <path d="M21.45 25.25 Q20.6 25.15 20.4 24.85 L20.35 24.15 20.5 23.5 20.5 23.45 20.55 23.3 20.75 22.65 20.8 22.55 21.45 25.25" fill="#c555ff" fill-rule="evenodd" stroke="none"/>
      <path d="M20.8 22.55 L20.85 22.45 21.2 21.85 21.25 21.8 21.35 21.7 21.6 21.55 21.9 21.55 22.05 21.65 22.75 23.3 22.8 23.45 22.95 24.3 22.95 24.8 22.8 25.0 22.4 25.2 22.2 25.25 21.95 25.25 21.65 25.25 21.45 25.25 Q20.6 25.15 20.4 24.85 L20.35 24.15 20.5 23.5 20.5 23.45 20.55 23.3 20.75 22.65 20.8 22.55 Z" ffdec:has-small-stroke="true" ffdec:original-stroke-width="0.1" fill="none" stroke="#5c0c76" stroke-linecap="round" stroke-linejoin="round" stroke-width="1.0"/>
    </g>
    <g id="sprite0">
      <use ffdec:characterId="1" height="11.1" transform="matrix(1.0, 0.0, 0.0, 1.0, 0.0, 0.0)" width="12.9" xlink:href="#shape1"/>
    </g>
    <g id="shape1">
      <path d="M2.75 4.55 L2.8 4.5 2.9 4.35 Q3.35 3.5 3.95 2.8 6.2 0.05 9.85 -0.85 11.65 -1.15 12.7 0.15 L13.35 1.1 Q13.75 1.95 13.75 2.95 13.75 4.5 12.6 5.65 11.45 6.75 9.85 6.75 L9.25 7.1 9.15 7.2 7.65 8.0 7.25 8.15 7.1 8.35 7.0 8.55 4.35 7.9 4.1 7.8 Q2.5 7.1 2.35 6.1 2.2 5.4 2.75 4.55" fill="#d61818" fill-rule="evenodd" stroke="none"/>
      <path d="M2.75 4.55 Q2.2 5.4 2.35 6.1 2.5 7.1 4.1 7.8 L2.3 9.3 2.25 9.2 2.25 8.3 1.85 8.25 1.45 8.1 1.25 8.0 1.2 7.95 1.15 7.9 1.0 7.7 Q0.9 7.4 1.1 7.0 L1.2 6.85 1.35 6.6 1.5 6.4 1.35 6.0 1.35 5.95 1.3 5.7 1.3 5.65 Q1.3 5.4 1.45 5.25 L1.75 4.9 2.15 4.7 2.75 4.55" fill="#e4b1ff" fill-rule="evenodd" stroke="none"/>
      <path d="M4.1 7.8 L4.35 7.9 7.0 8.55 6.9 8.7 6.4 9.45 6.25 9.65 6.2 9.7 6.15 9.8 5.7 10.05 5.55 10.1 5.45 10.1 5.15 10.0 4.65 9.65 4.5 9.5 4.4 9.35 4.35 9.25 4.3 9.2 3.1 9.65 2.55 9.6 2.45 9.55 2.3 9.3 4.1 7.8" fill="#cf75ff" fill-rule="evenodd" stroke="none"/>
      <path d="M7.0 8.55 L7.1 8.35 7.25 8.15 7.65 8.0 9.15 7.2 9.25 7.1 9.85 6.75 Q11.45 6.75 12.6 5.65 13.75 4.5 13.75 2.95 13.75 1.95 13.35 1.1 L12.7 0.15 Q11.65 -1.15 9.85 -0.85 6.2 0.05 3.95 2.8 3.35 3.5 2.9 4.35 L2.8 4.5 2.75 4.55" ffdec:has-small-stroke="true" ffdec:original-stroke-width="0.1" fill="none" stroke="#390303" stroke-linecap="round" stroke-linejoin="round" stroke-width="1.000012076678591"/>
      <path d="M7.0 8.55 L6.9 8.7 6.4 9.45 6.25 9.65 6.2 9.7 6.15 9.8 5.7 10.05 5.55 10.1 5.45 10.1 5.15 10.0 4.65 9.65 4.5 9.5 4.4 9.35 4.35 9.25 4.3 9.2 3.1 9.65 2.55 9.6 2.45 9.55 2.3 9.3 2.25 9.2 2.25 8.3 1.85 8.25 1.45 8.1 1.25 8.0 1.2 7.95 1.15 7.9 1.0 7.7 Q0.9 7.4 1.1 7.0 L1.2 6.85 1.35 6.6 1.5 6.4 1.35 6.0 1.35 5.95 1.3 5.7 1.3 5.65 Q1.3 5.4 1.45 5.25 L1.75 4.9 2.15 4.7 2.75 4.55" ffdec:has-small-stroke="true" ffdec:original-stroke-width="0.1" fill="none" stroke="#360044" stroke-linecap="round" stroke-linejoin="round" stroke-width="1.000012076678591"/>
      <path d="M6.0 4.65 L4.35 5.1 3.9 4.65 3.8 4.15 Q3.85 3.4 4.6 2.45 L5.15 1.8 6.25 0.9 Q7.25 0.4 7.85 0.5 L8.3 0.85 8.4 1.45 Q8.3 2.25 7.65 3.2 L7.1 3.75 6.0 4.65" fill="#ff3737" fill-rule="evenodd" stroke="none"/>
    </g>
    <g id="sprite1">
      <use ffdec:characterId="1" height="11.1" transform="matrix(1.0, 0.0, 0.0, 1.0, 0.0, 0.0)" width="12.9" xlink:href="#shape2"/>
    </g>
    <g id="shape2">
      <path d="M2.75 4.55 L2.8 4.5 2.9 4.35 Q3.35 3.5 3.95 2.8 6.2 0.05 9.85 -0.85 11.65 -1.15 12.7 0.15 L13.35 1.1 Q13.75 1.95 13.75 2.95 13.75 4.5 12.6 5.65 11.45 6.75 9.85 6.75 L9.25 7.1 9.15 7.2 7.65 8.0 7.25 8.15 7.1 8.35 7.0 8.55 4.35 7.9 4.1 7.8 Q2.5 7.1 2.35 6.1 2.2 5.4 2.75 4.55" fill="#d61818" fill-rule="evenodd" stroke="none"/>
      <path d="M2.75 4.55 Q2.2 5.4 2.35 6.1 2.5 7.1 4.1 7.8 L2.3 9.3 2.25 9.2 2.25 8.3 1.85 8.25 1.45 8.1 1.25 8.0 1.2 7.95 1.15 7.9 1.0 7.7 Q0.9 7.4 1.1 7.0 L1.2 6.85 1.35 6.6 1.5 6.4 1.35 6.0 1.35 5.95 1.3 5.7 1.3 5.65 Q1.3 5.4 1.45 5.25 L1.75 4.9 2.15 4.7 2.75 4.55" fill="#e4b1ff" fill-rule="evenodd" stroke="none"/>
      <path d="M4.1 7.8 L4.35 7.9 7.0 8.55 6.9 8.7 6.4 9.45 6.25 9.65 6.2 9.7 6.15 9.8 5.7 10.05 5.55 10.1 5.45 10.1 5.15 10.0 4.65 9.65 4.5 9.5 4.4 9.35 4.35 9.25 4.3 9.2 3.1 9.65 2.55 9.6 2.45 9.55 2.3 9.3 4.1 7.8" fill="#cf75ff" fill-rule="evenodd" stroke="none"/>
      <path d="M7.0 8.55 L7.1 8.35 7.25 8.15 7.65 8.0 9.15 7.2 9.25 7.1 9.85 6.75 Q11.45 6.75 12.6 5.65 13.75 4.5 13.75 2.95 13.75 1.95 13.35 1.1 L12.7 0.15 Q11.65 -1.15 9.85 -0.85 6.2 0.05 3.95 2.8 3.35 3.5 2.9 4.35 L2.8 4.5 2.75 4.55" ffdec:has-small-stroke="true" ffdec:original-stroke-width="0.1" fill="none" stroke="#390303" stroke-linecap="round" stroke-linejoin="round" stroke-width="1.0000313162612497"/>
      <path d="M7.0 8.55 L6.9 8.7 6.4 9.45 6.25 9.65 6.2 9.7 6.15 9.8 5.7 10.05 5.55 10.1 5.45 10.1 5.15 10.0 4.65 9.65 4.5 9.5 4.4 9.35 4.35 9.25 4.3 9.2 3.1 9.65 2.55 9.6 2.45 9.55 2.3 9.3 2.25 9.2 2.25 8.3 1.85 8.25 1.45 8.1 1.25 8.0 1.2 7.95 1.15 7.9 1.0 7.7 Q0.9 7.4 1.1 7.0 L1.2 6.85 1.35 6.6 1.5 6.4 1.35 6.0 1.35 5.95 1.3 5.7 1.3 5.65 Q1.3 5.4 1.45 5.25 L1.75 4.9 2.15 4.7 2.75 4.55" ffdec:has-small-stroke="true" ffdec:original-stroke-width="0.1" fill="none" stroke="#360044" stroke-linecap="round" stroke-linejoin="round" stroke-width="1.0000313162612497"/>
      <path d="M6.0 4.65 L4.35 5.1 3.9 4.65 3.8 4.15 Q3.85 3.4 4.6 2.45 L5.15 1.8 6.25 0.9 Q7.25 0.4 7.85 0.5 L8.3 0.85 8.4 1.45 Q8.3 2.25 7.65 3.2 L7.1 3.75 6.0 4.65" fill="#ff3737" fill-rule="evenodd" stroke="none"/>
    </g>
    <g id="shape3">
      <path d="M-0.2 14.25 Q6.8 12.85 8.75 19.0 11.3 22.85 9.85 26.3 9.15 27.9 7.15 29.15 4.1 31.05 -0.1 31.1 L-0.15 31.1 Q-4.35 31.05 -7.4 29.15 -9.4 27.9 -10.1 26.3 -11.55 22.85 -9.0 19.0 -7.05 12.85 -0.2 14.25" fill="#ca1839" fill-rule="evenodd" stroke="none"/>
      <path d="M-0.2 14.25 Q-7.05 12.85 -9.0 19.0 -11.55 22.85 -10.1 26.3 -9.4 27.9 -7.4 29.15 -4.35 31.05 -0.15 31.1 L-0.1 31.1 Q4.1 31.05 7.15 29.15 9.15 27.9 9.85 26.3 11.3 22.85 8.75 19.0 6.8 12.85 -0.2 14.25 Z" ffdec:has-small-stroke="true" ffdec:original-stroke-width="0.1" fill="none" stroke="#5c0000" stroke-linecap="round" stroke-linejoin="round" stroke-width="1.0"/>
      <path d="M-6.75 15.9 Q-5.1 14.45 -2.8 14.45 -1.3 14.45 -0.1 15.05 1.1 14.45 2.6 14.45 4.9 14.45 6.55 15.9 7.95 17.15 8.15 18.8 9.45 20.1 9.45 21.9 9.45 23.15 8.8 24.2 L7.8 25.4 Q6.15 26.85 3.85 26.85 1.55 26.85 -0.1 25.4 -1.75 26.85 -4.05 26.85 -6.35 26.85 -8.0 25.4 L-9.0 24.2 Q-9.65 23.15 -9.65 21.9 -9.65 20.1 -8.35 18.8 -8.15 17.15 -6.75 15.9" fill="#fe3939" fill-rule="evenodd" stroke="none"/>
      <path d="M-6.9 26.1 L-6.9 24.9 -6.75 23.65 -6.6 23.05 -6.5 22.7 Q-6.0 20.95 -4.7 19.55 -2.75 17.5 -0.1 17.5 2.6 17.5 4.55 19.55 5.8 20.95 6.4 22.7 L6.5 23.05 6.6 23.65 6.75 24.9 6.75 26.05 6.75 26.1 Q6.45 27.0 4.8 27.7 2.8 28.6 -0.05 28.6 -2.9 28.6 -4.9 27.7 -6.55 27.0 -6.85 26.1 L-6.9 26.1" fill="#fff293" fill-rule="evenodd" stroke="none"/>
      <path d="M6.75 26.1 L6.75 26.2 6.55 27.7 5.7 29.75 Q-0.45 32.0 -5.8 29.75 L-6.65 27.7 -6.65 27.6 -6.7 27.55 -6.9 26.2 -6.9 26.1 -6.85 26.1 Q-6.55 27.0 -4.9 27.7 -2.9 28.6 -0.05 28.6 2.8 28.6 4.8 27.7 6.45 27.0 6.75 26.1" fill="#d39b94" fill-rule="evenodd" stroke="none"/>
      <path d="M6.75 26.05 L6.75 26.1 6.75 26.2 6.55 27.7 5.7 29.75 Q-0.45 32.0 -5.8 29.75 L-6.65 27.7 -6.65 27.6 -6.7 27.55 -6.9 26.2 -6.9 26.1" ffdec:has-small-stroke="true" ffdec:original-stroke-width="0.1" fill="none" stroke="#a47922" stroke-linecap="round" stroke-linejoin="round" stroke-width="1.0"/>
      <path d="M-4.55 15.6 Q-4.3 16.05 -4.55 16.8 -4.9 17.55 -5.6 18.25 -6.3 18.9 -6.9 19.1 -7.6 19.3 -7.85 18.85 -8.1 18.45 -7.75 17.65 -7.45 16.9 -6.75 16.25 -6.05 15.55 -5.4 15.35 -4.8 15.2 -4.55 15.6" fill="#ff8383" fill-rule="evenodd" stroke="none"/>
    </g>
    <g id="sprite2">
      <use ffdec:characterId="14" height="5.2" transform="matrix(1.0, 0.0, 0.0, 1.0, 0.0, 0.0)" width="10.0" xlink:href="#shape4"/>
    </g>
    <g id="shape4">
      <path d="M4.55 4.7 L5.6 4.75 5.65 4.75 9.1 4.85 8.95 5.0 8.5 5.35 8.0 5.6 Q7.4 5.8 7.25 6.05 L7.1 6.3 6.7 6.55 Q6.15 6.75 5.6 6.55 L5.4 6.45 5.0 6.15 4.55 6.1 4.55 4.7" fill="#a733e3" fill-rule="evenodd" stroke="none"/>
      <path d="M4.55 6.1 L4.3 6.3 3.25 6.6 Q2.6 6.6 2.3 6.15 L1.85 5.7 1.3 5.8 0.4 6.1 -0.5 6.0 -0.7 5.8 -0.75 5.45 -0.6 5.0 -0.35 4.75 0.0 4.6 0.25 4.55 4.55 4.7 4.55 6.1" fill="#db97ff" fill-rule="evenodd" stroke="none"/>
      <path d="M4.55 4.7 L5.6 4.75 5.65 4.75 9.1 4.85 8.95 5.0 8.5 5.35 8.0 5.6 Q7.4 5.8 7.25 6.05 L7.1 6.3 6.7 6.55 Q6.15 6.75 5.6 6.55 L5.4 6.45 5.0 6.15 4.55 6.1 4.3 6.3 3.25 6.6 Q2.6 6.6 2.3 6.15 L1.85 5.7 1.3 5.8 0.4 6.1 -0.5 6.0 -0.7 5.8 -0.75 5.45 -0.6 5.0 -0.35 4.75 0.0 4.6 0.25 4.55 4.55 4.7 Z" ffdec:has-small-stroke="true" ffdec:original-stroke-width="0.1" fill="none" stroke="#3f004f" stroke-linecap="round" stroke-linejoin="round" stroke-width="1.0"/>
      <path d="M0.05 4.6 L0.35 3.7 Q0.95 2.6 2.3 2.05 3.45 1.55 4.75 1.55 6.05 1.55 7.3 2.1 8.55 2.65 8.95 3.55 9.3 4.4 9.1 4.9 L8.35 5.15 4.75 5.5 1.1 5.15 Q0.2 4.9 0.0 4.6 L0.05 4.6" fill="#ff1111" fill-rule="evenodd" stroke="none"/>
      <path d="M0.05 4.6 L0.35 3.7 Q0.95 2.6 2.3 2.05 3.45 1.55 4.75 1.55 6.05 1.55 7.3 2.1 8.55 2.65 8.95 3.55 9.3 4.4 9.1 4.9" ffdec:has-small-stroke="true" ffdec:original-stroke-width="0.1" fill="none" stroke="#5c0000" stroke-linecap="round" stroke-linejoin="round" stroke-width="1.0"/>
      <path d="M8.35 3.2 Q8.35 3.7 7.55 3.9 L5.65 4.0 3.75 3.4 Q2.95 3.0 2.95 2.5 2.95 2.0 3.75 1.75 L5.65 1.7 Q6.75 1.85 7.55 2.25 8.35 2.7 8.35 3.2" fill="#ff8383" fill-rule="evenodd" stroke="none"/>
    </g>
    <g id="sprite3">
      <use ffdec:characterId="14" height="5.2" transform="matrix(1.0, 0.0, 0.0, 1.0, 0.0, 0.0)" width="10.0" xlink:href="#shape5"/>
    </g>
    <g id="shape5">
      <path d="M4.55 4.7 L5.6 4.75 5.65 4.75 9.1 4.85 8.95 5.0 8.5 5.35 8.0 5.6 Q7.4 5.8 7.25 6.05 L7.1 6.3 6.7 6.55 Q6.15 6.75 5.6 6.55 L5.4 6.45 5.0 6.15 4.55 6.1 4.55 4.7" fill="#a733e3" fill-rule="evenodd" stroke="none"/>
      <path d="M4.55 6.1 L4.3 6.3 3.25 6.6 Q2.6 6.6 2.3 6.15 L1.85 5.7 1.3 5.8 0.4 6.1 -0.5 6.0 -0.7 5.8 -0.75 5.45 -0.6 5.0 -0.35 4.75 0.0 4.6 0.25 4.55 4.55 4.7 4.55 6.1" fill="#db97ff" fill-rule="evenodd" stroke="none"/>
      <path d="M4.55 4.7 L5.6 4.75 5.65 4.75 9.1 4.85 8.95 5.0 8.5 5.35 8.0 5.6 Q7.4 5.8 7.25 6.05 L7.1 6.3 6.7 6.55 Q6.15 6.75 5.6 6.55 L5.4 6.45 5.0 6.15 4.55 6.1 4.3 6.3 3.25 6.6 Q2.6 6.6 2.3 6.15 L1.85 5.7 1.3 5.8 0.4 6.1 -0.5 6.0 -0.7 5.8 -0.75 5.45 -0.6 5.0 -0.35 4.75 0.0 4.6 0.25 4.55 4.55 4.7 Z" ffdec:has-small-stroke="true" ffdec:original-stroke-width="0.1" fill="none" stroke="#3f004f" stroke-linecap="round" stroke-linejoin="round" stroke-width="1.0"/>
      <path d="M0.05 4.6 L0.35 3.7 Q0.95 2.6 2.3 2.05 3.45 1.55 4.75 1.55 6.05 1.55 7.3 2.1 8.55 2.65 8.95 3.55 9.3 4.4 9.1 4.9 L8.35 5.15 4.75 5.5 1.1 5.15 Q0.2 4.9 0.0 4.6 L0.05 4.6" fill="#ff1111" fill-rule="evenodd" stroke="none"/>
      <path d="M0.05 4.6 L0.35 3.7 Q0.95 2.6 2.3 2.05 3.45 1.55 4.75 1.55 6.05 1.55 7.3 2.1 8.55 2.65 8.95 3.55 9.3 4.4 9.1 4.9" ffdec:has-small-stroke="true" ffdec:original-stroke-width="0.1" fill="none" stroke="#5c0000" stroke-linecap="round" stroke-linejoin="round" stroke-width="1.0"/>
      <path d="M8.35 3.2 Q8.35 3.7 7.55 3.9 L5.65 4.0 3.75 3.4 Q2.95 3.0 2.95 2.5 2.95 2.0 3.75 1.75 L5.65 1.7 Q6.75 1.85 7.55 2.25 8.35 2.7 8.35 3.2" fill="#ff8383" fill-rule="evenodd" stroke="none"/>
    </g>
    <g id="shape6">
      <path d="M0.75 22.1 Q1.6 22.75 1.75 23.6 L1.75 24.9 1.8 25.2 1.8 25.3 1.75 25.65 -1.4 25.85 Q-2.2 25.5 -2.4 24.5 L-2.05 24.15 Q-1.8 23.95 -1.5 23.85 L-1.65 23.8 -2.0 23.5 -2.15 23.3 -2.2 22.9 -2.15 22.6 -1.35 21.8 -0.05 21.7 0.75 22.1 M0.95 23.7 L1.15 24.15 1.2 24.2 1.55 24.55 0.95 23.7" fill="#f9f1bd" fill-rule="evenodd" stroke="none"/>
      <path d="M1.75 25.65 L1.75 25.7 1.45 26.2 1.2 26.4 1.15 26.45 0.75 26.7 0.0 26.9 -0.45 26.9 -2.05 26.45 -2.35 26.2 -2.65 25.7 -2.65 25.65 -2.7 25.3 -2.4 24.5 Q-2.2 25.5 -1.4 25.85 L1.75 25.65" fill="#e7bd69" fill-rule="evenodd" stroke="none"/>
      <path d="M-2.65 25.7 L-2.65 25.65 -2.7 25.3 -2.4 24.5 -2.05 24.15 Q-1.8 23.95 -1.5 23.85 M-2.2 22.9 L-2.15 22.6 -1.35 21.8 -0.05 21.7 0.75 22.1" ffdec:has-small-stroke="true" ffdec:original-stroke-width="0.1" fill="none" stroke="#b18733" stroke-linecap="round" stroke-linejoin="round" stroke-width="1.0"/>
      <path d="M0.75 22.1 Q1.6 22.75 1.75 23.6 M1.2 26.4 L1.15 26.45 0.75 26.7 0.0 26.9 -0.45 26.9 -2.05 26.45 -2.35 26.2 -2.65 25.7 M-1.5 23.85 L-1.65 23.8 -2.0 23.5 -2.15 23.3 -2.2 22.9" ffdec:has-small-stroke="true" ffdec:original-stroke-width="0.1" fill="none" stroke="#a47922" stroke-linecap="round" stroke-linejoin="round" stroke-width="1.0"/>
      <path d="M0.65 22.6 L0.4 23.2 -0.25 23.45 -0.95 23.2 -1.2 22.6 -0.95 22.05 -0.25 21.8 0.4 22.05 0.65 22.6" fill="#fffdf2" fill-rule="evenodd" stroke="none"/>
      <path d="M0.7 24.55 L0.45 25.15 -0.25 25.4 -0.9 25.15 -1.15 24.55 -0.9 24.0 Q-0.65 23.75 -0.25 23.75 L0.45 24.0 0.7 24.55" fill="#fffdf2" fill-rule="evenodd" stroke="none"/>
    </g>
  </defs>
</svg>
