<?xml version="1.0" encoding="UTF-8" standalone="no"?>
<svg xmlns:ffdec="https://www.free-decompiler.com/flash" xmlns:xlink="http://www.w3.org/1999/xlink" ffdec:objectType="frame" height="60.55px" width="66.0px" xmlns="http://www.w3.org/2000/svg">
  <g transform="matrix(1.0, 0.0, 0.0, 1.0, 53.05, 11.9)">
    <use ffdec:characterId="39" height="6.9" transform="matrix(1.0, 0.0, 0.0, 1.0, -11.05, 24.85)" width="9.8" xlink:href="#sprite0"/>
    <use ffdec:characterId="39" height="6.9" transform="matrix(-1.0, 0.0, 0.0, 1.0, 10.6, 24.85)" width="9.8" xlink:href="#sprite1"/>
    <use ffdec:characterId="42" height="6.75" transform="matrix(1.0, 0.0, 0.0, 1.0, -7.3, 22.75)" width="7.65" xlink:href="#sprite2"/>
    <use ffdec:characterId="42" height="6.75" transform="matrix(-1.0, 0.0, 0.0, 1.0, 6.8, 22.75)" width="7.65" xlink:href="#sprite3"/>
    <use ffdec:characterId="44" height="9.75" transform="matrix(1.0, 0.0, 0.0, 1.0, 0.85, 14.8)" width="12.1" xlink:href="#sprite4"/>
    <use ffdec:characterId="46" height="8.85" transform="matrix(1.0, 0.0, 0.0, 1.0, -11.05, 14.8)" width="9.65" xlink:href="#sprite5"/>
    <use ffdec:characterId="29" height="10.35" transform="matrix(1.0, 0.0, 0.0, 1.0, -5.05, 14.7)" width="10.8" xlink:href="#sprite6"/>
    <use ffdec:characterId="25" height="78.1" transform="matrix(0.363, -0.5376, 0.5376, 0.363, -37.95, 18.15)" width="60.0" xlink:href="#sprite7"/>
    <use ffdec:characterId="10" height="6.6" transform="matrix(1.0, 0.0, 0.0, 1.0, -11.05, 14.8)" width="6.0" xlink:href="#sprite10"/>
  </g>
  <defs>
    <g id="sprite0">
      <use ffdec:characterId="38" height="6.9" transform="matrix(1.0, 0.0, 0.0, 1.0, 0.0, 0.0)" width="9.8" xlink:href="#shape0"/>
    </g>
    <g id="shape0">
      <path d="M4.3 1.2 L5.25 0.25 5.3 0.0 8.5 0.3 8.45 1.3 9.5 1.35 9.45 4.7 9.45 4.75 7.95 5.4 7.5 4.8 7.2 4.85 6.7 5.9 2.1 6.6 Q0.0 6.4 0.0 5.45 L0.5 3.75 2.7 2.3 4.3 1.2" fill="#202024" fill-rule="evenodd" stroke="none"/>
      <path d="M4.3 1.2 L2.7 2.3 0.5 3.75 0.0 5.45 Q0.0 6.4 2.1 6.6 L6.7 5.9 7.2 4.85 7.5 4.8 7.95 5.4 9.45 4.75 9.45 4.7 9.5 1.35 8.45 1.3 8.5 0.3 5.3 0.0 5.25 0.25 4.3 1.2 Z" ffdec:has-small-stroke="true" ffdec:original-stroke-width="0.3" fill="none" stroke="#000000" stroke-linecap="round" stroke-linejoin="round" stroke-width="1.0"/>
      <path d="M2.05 4.55 L1.9 4.5 5.3 2.4 Q5.8 0.25 6.3 0.4 L8.35 0.75 8.45 1.15 9.25 1.55 9.25 3.5 Q7.95 4.6 5.2 4.75 L2.05 4.55" fill="#505050" fill-rule="evenodd" stroke="none"/>
      <path d="M8.25 4.1 L5.15 5.05 2.15 5.4 Q0.95 5.35 1.0 4.85 L1.25 3.75 Q1.8 4.8 5.45 4.55 L8.25 4.1" fill="#a8a8a8" fill-rule="evenodd" stroke="none"/>
      <path d="M7.6 2.9 L6.4 2.8 4.5 2.5 Q3.85 2.55 3.55 2.75 5.3 1.25 7.35 2.45 L7.6 2.9" fill="#202024" fill-rule="evenodd" stroke="none"/>
      <path d="M8.15 1.95 L7.5 3.05 7.3 2.85 6.95 2.7 Q6.55 2.65 6.95 2.4 L7.55 1.45 7.9 0.5 8.3 0.55 Q8.6 0.8 8.15 1.95" fill="#202024" fill-rule="evenodd" stroke="none"/>
      <path d="M5.7 0.35 L5.4 1.6 Q5.75 1.85 6.75 2.1 7.7 2.4 6.8 2.4 L3.95 1.85 5.7 0.35" fill="#000000" fill-rule="evenodd" stroke="none"/>
    </g>
    <g id="sprite1">
      <use ffdec:characterId="38" height="6.9" transform="matrix(1.0, 0.0, 0.0, 1.0, 0.0, 0.0)" width="9.8" xlink:href="#shape1"/>
    </g>
    <g id="shape1">
      <path d="M4.3 1.2 L5.25 0.25 5.3 0.0 8.5 0.3 8.45 1.3 9.5 1.35 9.45 4.7 9.45 4.75 7.95 5.4 7.5 4.8 7.2 4.85 6.7 5.9 2.1 6.6 Q0.0 6.4 0.0 5.45 L0.5 3.75 2.7 2.3 4.3 1.2" fill="#202024" fill-rule="evenodd" stroke="none"/>
      <path d="M4.3 1.2 L2.7 2.3 0.5 3.75 0.0 5.45 Q0.0 6.4 2.1 6.6 L6.7 5.9 7.2 4.85 7.5 4.8 7.95 5.4 9.45 4.75 9.45 4.7 9.5 1.35 8.45 1.3 8.5 0.3 5.3 0.0 5.25 0.25 4.3 1.2 Z" ffdec:has-small-stroke="true" ffdec:original-stroke-width="0.3" fill="none" stroke="#000000" stroke-linecap="round" stroke-linejoin="round" stroke-width="1.0"/>
      <path d="M2.05 4.55 L1.9 4.5 5.3 2.4 Q5.8 0.25 6.3 0.4 L8.35 0.75 8.45 1.15 9.25 1.55 9.25 3.5 Q7.95 4.6 5.2 4.75 L2.05 4.55" fill="#505050" fill-rule="evenodd" stroke="none"/>
      <path d="M8.25 4.1 L5.15 5.05 2.15 5.4 Q0.95 5.35 1.0 4.85 L1.25 3.75 Q1.8 4.8 5.45 4.55 L8.25 4.1" fill="#a8a8a8" fill-rule="evenodd" stroke="none"/>
      <path d="M7.6 2.9 L6.4 2.8 4.5 2.5 Q3.85 2.55 3.55 2.75 5.3 1.25 7.35 2.45 L7.6 2.9" fill="#202024" fill-rule="evenodd" stroke="none"/>
      <path d="M8.15 1.95 L7.5 3.05 7.3 2.85 6.95 2.7 Q6.55 2.65 6.95 2.4 L7.55 1.45 7.9 0.5 8.3 0.55 Q8.6 0.8 8.15 1.95" fill="#202024" fill-rule="evenodd" stroke="none"/>
      <path d="M5.7 0.35 L5.4 1.6 Q5.75 1.85 6.75 2.1 7.7 2.4 6.8 2.4 L3.95 1.85 5.7 0.35" fill="#000000" fill-rule="evenodd" stroke="none"/>
    </g>
    <g id="sprite2">
      <use ffdec:characterId="41" height="6.75" transform="matrix(1.0, 0.0, 0.0, 1.0, 0.0, 0.0)" width="7.65" xlink:href="#shape2"/>
    </g>
    <g id="shape2">
      <path d="M0.0 3.65 L0.7 2.9 1.35 2.65 Q2.5 1.3 2.9 -0.15 L7.65 0.0 7.65 2.1 Q6.95 2.15 6.85 2.45 L6.3 4.65 6.3 5.45 5.55 6.6 Q2.65 4.85 0.0 3.65" fill="#000000" fill-rule="evenodd" stroke="none"/>
      <path d="M3.8 1.65 L3.95 0.9 6.2 1.55 5.1 4.95 3.9 4.45 3.05 3.9 3.3 3.15 3.3 2.15 3.8 1.65" fill="#24242a" fill-rule="evenodd" stroke="none"/>
      <path d="M3.95 1.1 L4.25 1.95 3.8 1.95 3.4 2.25 3.1 2.35 3.25 3.35 2.75 3.95" ffdec:has-small-stroke="true" ffdec:original-stroke-width="0.5" fill="none" stroke="#464646" stroke-linecap="round" stroke-linejoin="round" stroke-width="1.0"/>
    </g>
    <g id="sprite3">
      <use ffdec:characterId="41" height="6.75" transform="matrix(1.0, 0.0, 0.0, 1.0, 0.0, 0.0)" width="7.65" xlink:href="#shape3"/>
    </g>
    <g id="shape3">
      <path d="M0.0 3.65 L0.7 2.9 1.35 2.65 Q2.5 1.3 2.9 -0.15 L7.65 0.0 7.65 2.1 Q6.95 2.15 6.85 2.45 L6.3 4.65 6.3 5.45 5.55 6.6 Q2.65 4.85 0.0 3.65" fill="#000000" fill-rule="evenodd" stroke="none"/>
      <path d="M3.8 1.65 L3.95 0.9 6.2 1.55 5.1 4.95 3.9 4.45 3.05 3.9 3.3 3.15 3.3 2.15 3.8 1.65" fill="#24242a" fill-rule="evenodd" stroke="none"/>
      <path d="M3.95 1.1 L4.25 1.95 3.8 1.95 3.4 2.25 3.1 2.35 3.25 3.35 2.75 3.95" ffdec:has-small-stroke="true" ffdec:original-stroke-width="0.5" fill="none" stroke="#464646" stroke-linecap="round" stroke-linejoin="round" stroke-width="1.0"/>
    </g>
    <g id="sprite4">
      <use ffdec:characterId="43" height="9.75" transform="matrix(1.0, 0.0, 0.0, 1.0, 0.0, 0.0)" width="12.1" xlink:href="#shape4"/>
    </g>
    <g id="shape4">
      <path d="M3.65 0.0 L5.45 1.5 Q10.2 3.8 11.2 5.8 7.4 6.85 5.9 8.55 L3.55 6.1 2.9 5.5 1.5 3.95 0.0 1.1 3.65 0.0" fill="#d3002a" fill-rule="evenodd" stroke="none"/>
      <path d="M3.65 0.0 L5.45 1.5 Q10.2 3.8 11.2 5.8 7.4 6.85 5.9 8.55 L3.55 6.1 2.9 5.5" ffdec:has-small-stroke="true" ffdec:original-stroke-width="0.3" fill="none" stroke="#6a040c" stroke-linecap="round" stroke-linejoin="round" stroke-width="1.0"/>
      <path d="M11.0 5.05 Q12.45 6.75 11.65 7.6 10.8 8.5 8.8 9.15 L6.05 9.0 3.95 6.55 Q5.35 6.8 7.7 5.85 9.95 4.85 9.7 4.1 9.45 3.25 11.0 5.05" fill="#eadcdc" fill-rule="evenodd" stroke="none"/>
      <path d="M11.0 5.05 Q12.45 6.75 11.65 7.6 10.8 8.5 8.8 9.15 L6.05 9.0 3.95 6.55 Q5.35 6.8 7.7 5.85 9.95 4.85 9.7 4.1 9.45 3.25 11.0 5.05 Z" ffdec:has-small-stroke="true" ffdec:original-stroke-width="0.3" fill="none" stroke="#8b8a91" stroke-linecap="round" stroke-linejoin="round" stroke-width="1.0"/>
      <path d="M6.3 6.65 L8.5 5.95 9.65 5.2 9.9 4.65 Q11.0 5.5 11.55 7.2 9.35 8.85 8.65 8.95 7.9 9.0 7.2 8.35 6.5 7.65 6.3 6.65" fill="#ffffff" fill-rule="evenodd" stroke="none"/>
      <path d="M6.0 5.0 Q6.1 4.3 6.7 4.1 L6.65 4.1 Q6.5 3.6 5.55 3.0 L4.45 1.95 Q4.3 1.45 5.2 1.8 6.05 2.1 6.6 2.8 L6.85 3.05 7.5 3.05 8.7 3.9 8.85 4.65 Q8.2 6.0 6.6 5.8 6.05 5.6 6.0 5.0" fill="#ff4757" fill-rule="evenodd" stroke="none"/>
    </g>
    <g id="sprite5">
      <use ffdec:characterId="45" height="8.85" transform="matrix(1.0, 0.0, 0.0, 1.0, 0.0, 0.0)" width="9.65" xlink:href="#shape5"/>
    </g>
    <g id="shape5">
      <path d="M7.65 5.1 L6.6 6.1 Q5.35 7.2 4.25 8.55 2.75 5.55 0.85 3.75 L4.7 1.5 6.5 0.0 10.35 0.6 8.65 3.95 7.65 5.1" fill="#d3002a" fill-rule="evenodd" stroke="none"/>
      <path d="M6.5 0.0 L4.7 1.5 0.85 3.75 Q2.75 5.55 4.25 8.55 5.35 7.2 6.6 6.1 L7.65 5.1" ffdec:has-small-stroke="true" ffdec:original-stroke-width="0.3" fill="none" stroke="#6a040c" stroke-linecap="round" stroke-linejoin="round" stroke-width="1.0"/>
      <path d="M5.7 3.75 L5.1 4.35 4.65 4.25 3.8 3.8 3.35 3.3 3.4 3.3 Q4.55 1.95 5.4 1.7 L5.85 1.25 6.3 1.4 6.5 1.75 6.6 2.1 5.95 2.8 5.8 3.4 5.75 3.6 5.7 3.75" fill="#ff4757" fill-rule="evenodd" stroke="none"/>
    </g>
    <g id="sprite6">
      <use ffdec:characterId="28" height="10.35" transform="matrix(1.0, 0.0, 0.0, 1.0, 0.0, 0.0)" width="10.8" xlink:href="#shape6"/>
    </g>
    <g id="shape6">
      <path d="M0.9 5.1 L1.7 0.55 8.8 0.55 9.6 5.1 10.5 10.2 0.0 10.2 0.9 5.1" fill="#d3002a" fill-rule="evenodd" stroke="none"/>
      <path d="M9.6 5.1 L10.5 10.2 0.0 10.2 0.9 5.1" ffdec:has-small-stroke="true" ffdec:original-stroke-width="0.3" fill="none" stroke="#8b0000" stroke-linecap="round" stroke-linejoin="round" stroke-width="1.0"/>
      <path d="M6.0 10.25 L4.5 10.25 4.5 1.35 6.0 1.35 6.0 10.25" fill="#ffffff" fill-rule="evenodd" stroke="none"/>
      <path d="M9.9 0.1 Q9.9 1.1 8.55 1.8 7.2 2.5 5.25 2.5 3.3 2.5 1.95 1.8 0.6 1.1 0.6 0.1 L0.6 0.0 Q5.45 0.7 9.9 0.0 L9.9 0.1" fill="#ffffff" fill-rule="evenodd" stroke="none"/>
      <path d="M0.35 5.4 L10.1 5.4 10.1 6.75 0.35 6.75 0.35 5.4" fill="#000000" fill-rule="evenodd" stroke="none"/>
      <path d="M3.7 4.95 L6.75 4.95 6.75 7.2 3.7 7.2 3.7 4.95" fill="#ffb000" fill-rule="evenodd" stroke="none"/>
      <path d="M4.35 5.55 L6.15 5.55 6.15 6.6 4.35 6.6 4.35 5.55" fill="#000000" fill-rule="evenodd" stroke="none"/>
      <path d="M8.25 2.55 L9.1 2.75 Q9.6 3.65 9.45 4.75 L9.4 4.9 6.95 4.95 Q6.55 4.55 6.45 4.0 L6.35 3.35 Q6.5 2.7 7.45 2.65 L8.25 2.55" fill="#ff4757" fill-rule="evenodd" stroke="none"/>
      <path d="M4.25 4.15 Q3.6 4.95 2.75 5.2 1.95 5.3 1.35 4.9 L1.1 4.2 1.1 3.75 Q1.1 3.1 1.55 2.75 2.15 2.3 2.8 2.55 L3.9 2.95 4.45 3.55 4.25 4.15" fill="#ff4757" fill-rule="evenodd" stroke="none"/>
      <path d="M7.1 7.1 L8.75 7.05 Q9.25 7.15 9.65 7.55 L9.7 7.95 9.65 8.75 9.6 9.0 9.3 9.2 8.8 9.45 7.15 9.25 Q6.65 8.6 6.85 7.55 6.9 7.35 7.1 7.1" fill="#ff4757" fill-rule="evenodd" stroke="none"/>
      <path d="M2.5 7.05 L3.25 7.1 3.9 7.65 4.05 8.65 3.65 9.15 Q2.55 9.1 1.75 8.6 L0.9 7.9 1.6 7.25 2.5 7.05" fill="#ff4757" fill-rule="evenodd" stroke="none"/>
    </g>
    <g id="sprite7">
      <clipPath id="clipPath0">
        <path d="M 5.84 -17.46 L 4.98 -17.44 L 4.56 -17.42 L 4.15 -17.38 L 3.74 -17.34 L 3.34 -17.28 L 2.95 -17.22 L 2.57 -17.14 L 2.19 -17.06 L 1.82 -16.97 L 1.46 -16.86 L 1.1 -16.75 L 0.75 -16.63 L 0.41 -16.5 L 0.08 -16.35 L -0.25 -16.2 L -0.7 -15.98 L -1.14 -15.74 L -1.58 -15.49 L -2.02 -15.23 L -2.46 -14.95 L -2.89 -14.65 L -3.33 -14.34 L -3.76 -14.02 L -4.18 -13.68 L -4.61 -13.32 L -5.04 -12.95 L -5.46 -12.57 L -5.88 -12.17 L -6.3 -11.75 L -6.71 -11.32 L -7.12 -10.88 L -7.54 -10.41 L -7.95 -9.94 L -8.35 -9.45 L -8.76 -8.94 L -9.16 -8.42 L -9.56 -7.89 L -9.96 -7.33 L -10.36 -6.77 L -10.75 -6.19 L -11.14 -5.59 L -11.92 -4.35 L -12.69 -3.06 L -13.45 -1.7 L -13.81 -1 L -14.15 -0.27 L -14.45 0.47 L -14.73 1.23 L -14.97 2.01 L -15.18 2.82 L -15.37 3.64 L -15.52 4.48 L -15.65 5.34 L -15.75 6.22 L -15.81 7.12 L -15.85 8.04 L -15.86 8.98 L -15.83 9.94 L -15.78 10.91 L -15.7 11.91 L -15.59 12.93 L -15.45 13.97 L -15.28 15.02 L -15.07 16.1 L -14.84 17.2 L -14.58 18.31 L -14.29 19.45 L -13.98 20.6 L -13.63 21.78 L -13.25 22.97 L -12.84 24.19 L -12.4 25.42 L -11.93 26.67 L -11.43 27.95 L -10.91 29.24 L -10.35 30.55 L -10.1 31.15 L -4.19 33.08 L 1.03 34.74 L 3.39 35.48 L 5.57 36.16 L 7.58 36.76 L 9.41 37.31 L 11.07 37.79 L 12.57 38.21 L 13.88 38.56 L 15.03 38.85 L 16.01 39.08 L 16.81 39.24 L 17.44 39.33 L 17.69 39.36 L 17.89 39.36 L 18.1 39.35 L 18.61 39.24 L 19.09 39.12 L 19.55 38.99 L 19.98 38.85 L 20.37 38.69 L 20.74 38.53 L 21.09 38.34 L 21.4 38.15 L 22.8 37.05 L 23.1 36.55 L 23.13 36.5 L 23.17 36.46 L 23.27 36.39 L 23.42 36.33 L 23.6 36.3 L 23.61 36.3 L 23.67 36.31 L 23.75 36.34 L 23.83 36.4 L 23.93 36.47 L 24.17 36.69 L 24.46 36.99 L 24.8 37.37 L 25.2 37.85 L 25.65 38.41 L 26.15 39.05 L 26.41 39.33 L 26.67 39.58 L 26.96 39.78 L 27.25 39.95 L 26.9 40.15 L 26.54 40.37 L 26.17 40.6 L 25.8 40.86 L 25.42 41.14 L 25.04 41.44 L 24.65 41.76 L 24.25 42.1 L 23.35 42.25 L 22.98 42.47 L 22.53 42.69 L 22 42.93 L 21.38 43.17 L 20.67 43.43 L 19.88 43.69 L 19.01 43.97 L 18.05 44.25 L 17.84 44.3 L 17.63 44.34 L 17.43 44.36 L 17.22 44.37 L 16.96 44.36 L 16.7 44.32 L 16.45 44.26 L 16.19 44.18 L 15.93 44.08 L 15.68 43.96 L 15.42 43.81 L 15.17 43.64 L 14.91 43.44 L 14.66 43.23 L 14.41 42.99 L 14.15 42.73 L 13.9 42.44 L 13.65 42.13 L 13.4 41.8 L 13.15 41.45 L 12.2 41.23 L 11.29 41.04 L 10.42 40.88 L 9.6 40.75 L 8.82 40.65 L 8.07 40.58 L 7.37 40.54 L 6.72 40.52 L 6.24 40.53 L 5.8 40.56 L 5.37 40.6 L 4.97 40.66 L 4.6 40.73 L 4.25 40.82 L 3.92 40.93 L 3.62 41.06 L 3.34 41.2 L 3.08 41.36 L 2.85 41.54 L 2.65 41.73 L 2.47 41.94 L 2.31 42.16 L 2.17 42.41 L 2.07 42.67 L 1.98 42.94 L 1.92 43.24 L 1.88 43.55 L 1.87 43.87 L 1.88 44.22 L 1.92 44.58 L 1.98 44.95 L 2.06 45.35 L 2.17 45.76 L 2.3 46.18 L 2.46 46.63 L 2.64 47.09 L 2.84 47.57 L 3.07 48.06 L 3.32 48.57 L 3.6 49.1 L 3.97 49.78 L 4.34 50.43 L 4.71 51.07 L 5.1 51.68 L 5.48 52.27 L 5.87 52.84 L 6.27 53.39 L 6.67 53.92 L 7.08 54.43 L 7.49 54.91 L 7.9 55.37 L 8.32 55.81 L 8.75 56.23 L 9.18 56.63 L 9.62 57.01 L 10.06 57.36 L 10.5 57.7 L 10.95 58.01 L 11.41 58.3 L 11.87 58.57 L 12.34 58.82 L 12.81 59.04 L 13.28 59.25 L 13.76 59.43 L 14.25 59.59 L 14.74 59.73 L 15.24 59.85 L 15.74 59.94 L 16.24 60.02 L 16.75 60.07 L 17.27 60.11 L 17.79 60.12 L 18.45 60.1 L 18.89 60.23 L 19.34 60.34 L 19.78 60.43 L 20.23 60.5 L 20.68 60.56 L 21.12 60.6 L 21.58 60.63 L 22.03 60.64 L 22.54 60.63 L 23.05 60.59 L 23.57 60.54 L 24.09 60.47 L 24.61 60.37 L 25.13 60.25 L 25.65 60.11 L 26.18 59.95 L 26.71 59.77 L 27.24 59.57 L 27.77 59.34 L 28.3 59.1 L 28.83 58.83 L 29.37 58.54 L 29.91 58.23 L 30.45 57.9 L 30.83 57.64 L 31.19 57.38 L 31.54 57.1 L 31.87 56.81 L 32.19 56.51 L 32.49 56.2 L 32.77 55.88 L 33.04 55.55 L 33.3 55.21 L 33.53 54.86 L 33.76 54.49 L 33.96 54.12 L 34.15 53.73 L 34.32 53.34 L 34.48 52.93 L 34.62 52.51 L 34.75 52.08 L 34.86 51.64 L 34.96 51.19 L 35.04 50.73 L 35.1 50.26 L 35.15 49.78 L 35.18 49.28 L 35.19 48.78 L 35.19 48.26 L 35.18 47.74 L 35.15 47.2 L 35.1 46.65 L 35.04 46.09 L 34.96 45.52 L 34.86 44.94 L 34.75 44.35 L 34.63 43.78 L 34.49 43.25 L 34.34 42.75 L 34.18 42.27 L 34.01 41.83 L 33.83 41.42 L 33.63 41.04 L 33.42 40.69 L 33.21 40.37 L 32.98 40.08 L 32.73 39.82 L 32.48 39.6 L 32.22 39.4 L 31.94 39.24 L 31.65 39.1 L 31.35 39 L 35.05 36.1 L 35.77 35.52 L 36.44 34.95 L 37.07 34.4 L 37.66 33.86 L 38.21 33.34 L 38.72 32.83 L 39.18 32.33 L 39.6 31.85 L 39.79 31.6 L 39.98 31.34 L 40.33 30.79 L 40.67 30.2 L 40.99 29.58 L 41.28 28.9 L 41.56 28.19 L 41.81 27.44 L 42.05 26.65 L 42.27 25.75 L 42.49 24.7 L 42.72 23.51 L 42.95 22.16 L 43.19 20.67 L 43.44 19.03 L 43.69 17.24 L 43.95 15.3 L 44.01 14.79 L 44.06 14.28 L 44.09 13.76 L 44.12 13.23 L 44.14 12.7 L 44.15 12.16 L 44.13 11.07 L 44.08 9.95 L 43.98 8.81 L 43.85 7.65 L 43.67 6.46 L 43.46 5.25 L 43.21 4.02 L 42.91 2.77 L 42.58 1.49 L 42.21 0.19 L 41.8 -1.13 L 41.34 -2.48 L 40.85 -3.85 L 40.61 -4.45 L 40.35 -5.04 L 40.06 -5.6 L 39.74 -6.15 L 39.41 -6.67 L 39.04 -7.18 L 38.65 -7.67 L 38.24 -8.14 L 37.8 -8.59 L 37.34 -9.02 L 36.86 -9.43 L 36.34 -9.82 L 35.81 -10.2 L 35.25 -10.55 L 34.66 -10.88 L 34.05 -11.2 L 33.42 -11.5 L 32.76 -11.77 L 32.07 -12.03 L 31.36 -12.27 L 30.63 -12.49 L 29.87 -12.69 L 29.08 -12.88 L 28.28 -13.04 L 27.44 -13.18 L 26.58 -13.31 L 25.7 -13.41 L 24.79 -13.5 L 23.86 -13.56 L 22.9 -13.61 L 21.92 -13.64 L 20.92 -13.65 L 20.75 -13.65 L 19.66 -14.11 L 18.59 -14.54 L 17.54 -14.94 L 16.51 -15.32 L 15.5 -15.66 L 14.52 -15.97 L 13.55 -16.25 L 12.61 -16.51 L 11.69 -16.73 L 10.79 -16.92 L 9.91 -17.09 L 9.05 -17.22 L 8.22 -17.33 L 7.4 -17.4 L 6.61 -17.44 L 5.84 -17.46 Z"/>
      </clipPath>
      <g clip-path="url(#clipPath0)">
        <filter color-interpolation-filters="sRGB" height="300%" id="filter1" width="300%" x="-100%" y="-100%">
          <feOffset dx="0.0" dy="0.0" in="SourceGraphic" result="filterResult4"/>
          <feColorMatrix in="filterResult4" result="filterResult5" type="matrix" values="0 0 0 0 1.0,0 0 0 0 1.0,0 0 0 0 0.8,0 0 0 1.0 0"/>
          <feGaussianBlur in="filterResult5" result="filterResult6" stdDeviation="2.29128784747792 2.29128784747792"/>
          <feComposite in="SourceGraphic" in2="filterResult6" operator="over" result="filterResult7"/>
        </filter>
        <use ffdec:characterId="23" filter="url(#filter1)" height="56.7" transform="matrix(1.0, 0.0, 0.0, 1.0, 0.0, 0.0)" width="24.4" xlink:href="#sprite8"/>
      </g>
      <use ffdec:characterId="24" height="2.85" transform="matrix(1.0, 0.0, 0.0, 1.0, 0.0, 0.0)" width="8.5" xlink:href="#shape10"/>
    </g>
    <g id="sprite8">
      <use ffdec:characterId="12" height="51.05" transform="matrix(1.0, 0.0, 0.0, 1.0, 0.0, 0.0)" width="22.3" xlink:href="#shape7"/>
      <filter color-interpolation-filters="sRGB" height="300%" id="filter0" width="300%" x="-100%" y="-100%">
        <feOffset dx="0.0" dy="0.0" in="SourceGraphic" result="filterResult0"/>
        <feColorMatrix in="filterResult0" result="filterResult1" type="matrix" values="0 0 0 0 0.27058825,0 0 0 0 0.8980392,0 0 0 0 0.15686275,0 0 0 1.0 0"/>
        <feGaussianBlur in="filterResult1" result="filterResult2" stdDeviation="0.816496580927726 0.816496580927726"/>
        <feComposite in="SourceGraphic" in2="filterResult2" operator="over" result="filterResult3"/>
      </filter>
      <use ffdec:characterId="15" filter="url(#filter0)" height="56.05" transform="matrix(1.0, 0.0, 0.0, 1.0, 0.0, 0.65)" width="24.4" xlink:href="#sprite9"/>
      <use ffdec:characterId="16" height="51.35" transform="matrix(1.0, 0.0, 0.0, 1.0, 0.0, 0.0)" width="22.6" xlink:href="#shape9"/>
    </g>
    <g id="shape7">
      <path d="M11.15 0.0 Q15.75 0.0 19.05 3.3 21.9 6.15 22.3 10.0 L22.3 10.15 22.3 47.8 22.25 48.2 Q22.0 49.1 21.25 49.85 L21.15 49.95 Q20.05 51.05 18.4 51.05 17.25 51.05 16.3 50.5 L16.15 50.4 15.55 49.85 15.0 49.2 Q14.4 48.25 14.4 47.15 L14.4 11.65 Q14.35 10.35 13.4 9.45 L13.4 9.4 Q12.45 8.45 11.1 8.45 9.7 8.45 8.75 9.4 7.8 10.35 7.8 11.7 L7.8 15.65 7.8 17.1 7.75 17.5 Q7.5 18.4 6.75 19.15 6.05 19.85 5.2 20.15 L5.05 20.2 3.9 20.35 2.75 20.2 2.6 20.15 Q1.75 19.85 1.05 19.15 0.3 18.4 0.05 17.5 L0.0 17.1 0.0 10.15 0.0 10.0 Q0.4 6.15 3.25 3.3 6.55 0.0 11.15 0.0" fill="url(#gradient0)" fill-rule="evenodd" stroke="none"/>
    </g>
    <linearGradient gradientTransform="matrix(0.0165, 0.0, 0.0, 0.0165, 11.4, 10.35)" gradientUnits="userSpaceOnUse" id="gradient0" spreadMethod="pad" x1="-819.2" x2="819.2">
      <stop offset="0.0" stop-color="#f4f5f3"/>
      <stop offset="0.29411764705882354" stop-color="#ffffff"/>
      <stop offset="0.5843137254901961" stop-color="#e6e9e7"/>
      <stop offset="1.0" stop-color="#ffffff"/>
    </linearGradient>
    <g id="sprite9">
      <clipPath id="clipPath1">
        <path d="M 7.4 0 L 6.83 0.22 L 6.28 0.47 L 5.74 0.75 L 5.21 1.06 L 4.7 1.41 L 4.2 1.79 L 3.72 2.2 L 3.25 2.65 L 2.86 3.05 L 2.5 3.47 L 2.16 3.89 L 1.85 4.32 L 1.56 4.77 L 1.3 5.22 L 1.06 5.68 L 0.85 6.15 L 1.2 5.45 L 3.7 5.8 L 4.25 5.96 L 4.78 6.16 L 5.29 6.38 L 5.78 6.62 L 6.24 6.9 L 6.68 7.21 L 7.1 7.54 L 7.5 7.9 L 8.55 9 L 8.75 8.75 L 8.99 8.53 L 9.25 8.33 L 9.53 8.17 L 9.81 8.04 L 10.11 7.93 L 10.43 7.86 L 10.76 7.81 L 11.1 7.8 L 11.85 7.9 L 11.35 7.8 L 11.4 7.7 L 11.46 7.53 L 11.52 7.36 L 11.56 7.19 L 11.59 7.01 L 11.61 6.82 L 11.62 6.63 L 11.62 6.44 L 11.61 6.24 L 11.56 5.82 L 11.47 5.38 L 11.33 4.93 L 11.15 4.45 L 10.95 3.95 L 10.71 3.46 L 10.44 2.98 L 10.14 2.53 L 9.8 2.08 L 9.43 1.66 L 9.03 1.25 L 8.6 0.85 L 8.3 0.61 L 8 0.39 L 7.7 0.18 L 7.4 0 Z M 17.45 1.3 L 17.2 3.7 L 17.05 4.26 L 16.87 4.81 L 16.66 5.33 L 16.42 5.82 L 16.16 6.3 L 15.87 6.76 L 15.55 7.19 L 15.2 7.6 L 13.6 9 L 13.78 9.21 L 13.93 9.43 L 14.06 9.66 L 14.18 9.9 L 14.26 10.16 L 14.33 10.43 L 14.38 10.71 L 14.4 11 L 14.4 13 L 15.1 13.35 L 15.31 13.41 L 15.52 13.45 L 15.73 13.48 L 15.95 13.48 L 16.22 13.47 L 16.5 13.44 L 16.78 13.38 L 17.07 13.3 L 17.36 13.2 L 17.67 13.07 L 17.98 12.92 L 18.3 12.75 L 18.77 12.49 L 19.22 12.19 L 19.65 11.87 L 20.06 11.52 L 20.46 11.15 L 20.84 10.74 L 21.2 10.31 L 21.55 9.85 L 22.25 8.8 L 22.17 8.37 L 22.08 7.94 L 21.97 7.52 L 21.84 7.1 L 21.7 6.7 L 21.54 6.29 L 21.37 5.9 L 21.17 5.51 L 20.97 5.13 L 20.74 4.76 L 20.5 4.39 L 20.24 4.03 L 19.97 3.67 L 19.68 3.33 L 19.37 2.98 L 19.05 2.65 L 18.67 2.28 L 18.27 1.94 L 17.87 1.61 L 17.45 1.3 Z M 4.65 12.72 L 4.27 12.73 L 3.88 12.75 L 3.49 12.8 L 3.11 12.86 L 2.72 12.95 L 2.33 13.05 L 1.94 13.16 L 1.55 13.3 L 1.13 13.46 L 0.74 13.62 L 0.36 13.81 L 0 14 L 0 16.45 L 0.05 16.85 L 0.12 17.07 L 0.21 17.29 L 0.31 17.5 L 0.43 17.71 L 0.56 17.92 L 0.71 18.12 L 0.87 18.31 L 1.05 18.5 L 1.23 18.67 L 1.41 18.83 L 1.6 18.97 L 1.79 19.1 L 1.98 19.22 L 2.18 19.33 L 2.39 19.42 L 2.6 19.5 L 2.75 19.55 L 3.9 19.7 L 5.05 19.55 L 5.2 19.5 L 5.41 19.42 L 5.62 19.33 L 5.82 19.22 L 6.01 19.1 L 6.2 18.97 L 6.39 18.83 L 6.57 18.67 L 6.75 18.5 L 6.93 18.31 L 7.09 18.12 L 7.24 17.92 L 7.38 17.71 L 7.49 17.5 L 7.59 17.29 L 7.68 17.07 L 7.75 16.85 L 7.8 16.45 L 7.8 15 L 7.8 13.3 L 7.59 13.2 L 7.38 13.12 L 7.14 13.04 L 6.9 12.98 L 6.64 12.92 L 6.38 12.87 L 6.09 12.83 L 5.8 12.8 L 5.51 12.76 L 5.23 12.74 L 4.94 12.72 L 4.65 12.72 Z M 22.3 16.6 L 21.55 17.85 L 21.2 18.31 L 20.84 18.74 L 20.46 19.15 L 20.06 19.52 L 19.65 19.87 L 19.22 20.19 L 18.77 20.49 L 18.3 20.75 L 17.98 20.92 L 17.67 21.07 L 17.36 21.2 L 17.07 21.3 L 16.78 21.38 L 16.5 21.44 L 16.22 21.47 L 15.95 21.49 L 15.73 21.48 L 15.52 21.45 L 15.31 21.41 L 15.1 21.35 L 14.4 21 L 14.4 29 L 15.1 29.35 L 15.31 29.41 L 15.52 29.45 L 15.73 29.48 L 15.95 29.49 L 16.22 29.47 L 16.5 29.44 L 16.78 29.38 L 17.07 29.3 L 17.36 29.2 L 17.67 29.07 L 17.98 28.92 L 18.3 28.75 L 18.77 28.49 L 19.22 28.19 L 19.65 27.87 L 20.06 27.52 L 20.46 27.15 L 20.84 26.74 L 21.2 26.31 L 21.55 25.85 L 22.3 24.6 L 22.3 16.6 Z M 22.3 32.6 L 21.55 33.85 L 21.2 34.31 L 20.84 34.74 L 20.46 35.15 L 20.06 35.53 L 19.65 35.87 L 19.22 36.19 L 18.77 36.49 L 18.3 36.75 L 17.98 36.92 L 17.67 37.07 L 17.36 37.2 L 17.07 37.3 L 16.78 37.38 L 16.5 37.44 L 16.22 37.47 L 15.95 37.49 L 15.73 37.48 L 15.52 37.45 L 15.31 37.41 L 15.1 37.35 L 14.4 37 L 14.4 45 L 15.1 45.35 L 15.31 45.41 L 15.52 45.45 L 15.73 45.48 L 15.95 45.49 L 16.22 45.47 L 16.5 45.44 L 16.78 45.38 L 17.07 45.3 L 17.36 45.2 L 17.67 45.07 L 17.98 44.92 L 18.3 44.75 L 18.77 44.49 L 19.22 44.19 L 19.65 43.87 L 20.06 43.53 L 20.46 43.15 L 20.84 42.74 L 21.2 42.31 L 21.55 41.85 L 22.3 40.6 L 22.3 32.6 Z"/>
      </clipPath>
      <g clip-path="url(#clipPath1)">
        <use ffdec:characterId="14" height="56.05" transform="matrix(1.0, 0.0, 0.0, 1.0, 0.0, 0.0)" width="24.4" xlink:href="#shape8"/>
      </g>
    </g>
    <g id="shape8">
      <path d="M-0.7 -3.2 L23.7 -3.2 23.7 52.85 -0.7 52.85 -0.7 -3.2" fill="url(#gradient1)" fill-rule="evenodd" stroke="none"/>
    </g>
    <linearGradient gradientTransform="matrix(0.0149, 0.0, 0.0, 0.0342, 11.5, 24.8)" gradientUnits="userSpaceOnUse" id="gradient1" spreadMethod="pad" x1="-819.2" x2="819.2">
      <stop offset="0.0" stop-color="#21ff73"/>
      <stop offset="0.3137254901960784" stop-color="#a0ff77"/>
      <stop offset="0.5843137254901961" stop-color="#20db11"/>
      <stop offset="1.0" stop-color="#a1ff5f"/>
    </linearGradient>
    <g id="shape9">
      <path d="M11.15 0.0 Q6.55 0.0 3.25 3.3 0.4 6.15 0.0 10.0 L0.0 10.15 0.0 17.1 0.05 17.5 Q0.3 18.4 1.05 19.15 1.75 19.85 2.6 20.15 L2.75 20.2 3.9 20.35 5.05 20.2 5.2 20.15 Q6.05 19.85 6.75 19.15 7.5 18.4 7.75 17.5 L7.8 17.1 7.8 15.65 7.8 11.7 Q7.8 10.35 8.75 9.4 9.7 8.45 11.1 8.45 12.45 8.45 13.4 9.4 L13.4 9.45 Q14.35 10.35 14.4 11.65 L14.4 47.15 Q14.4 48.25 15.0 49.2 L15.55 49.85 16.15 50.4 16.3 50.5 Q17.25 51.05 18.4 51.05 20.05 51.05 21.15 49.95 L21.25 49.85 Q22.0 49.1 22.25 48.2 L22.3 47.8 22.3 10.15 22.3 10.0 Q21.9 6.15 19.05 3.3 15.75 0.0 11.15 0.0 Z" ffdec:has-small-stroke="true" ffdec:original-stroke-width="0.3" fill="none" stroke="#ffe8ee" stroke-linecap="round" stroke-linejoin="round" stroke-width="1.5416340549465464"/>
    </g>
    <g id="shape10">
      <path d="M22.7 37.5 Q21.35 39.55 18.8 40.0 16.25 40.5 14.25 38.9 14.15 38.8 14.2 38.4 L15.05 38.75 19.6 39.0 Q21.45 38.35 22.5 37.25 L22.7 37.5" fill="#5e0c0c" fill-rule="evenodd" stroke="none"/>
    </g>
    <g id="sprite10">
      <use ffdec:characterId="9" height="6.6" transform="matrix(1.0, 0.0, 0.0, 1.0, 0.0, 0.0)" width="6.0" xlink:href="#shape11"/>
    </g>
    <g id="shape11">
      <path d="M4.6 4.9 Q5.85 6.15 5.7 7.15 4.6 9.25 3.45 9.5 3.35 7.15 1.85 5.4 0.3 3.65 0.0 3.75 L1.3 3.25 2.55 3.4 Q3.35 3.6 4.6 4.9" fill="#eadcdc" fill-rule="evenodd" stroke="none"/>
      <path d="M4.6 4.9 Q5.85 6.15 5.7 7.15 4.6 9.25 3.45 9.5 3.35 7.15 1.85 5.4 0.3 3.65 0.0 3.75 L1.3 3.25 2.55 3.4 Q3.35 3.6 4.6 4.9 Z" ffdec:has-small-stroke="true" ffdec:original-stroke-width="0.3" fill="none" stroke="#8b8a91" stroke-linecap="round" stroke-linejoin="round" stroke-width="1.0"/>
      <path d="M4.95 7.4 L4.45 7.9 3.6 8.3 Q3.4 6.9 1.5 4.65 L3.15 4.1 Q4.55 4.8 5.45 6.6 L4.95 7.4" fill="#ffffff" fill-rule="evenodd" stroke="none"/>
    </g>
  </defs>
</svg>
