<?xml version="1.0" encoding="UTF-8" standalone="no"?>
<svg xmlns:ffdec="https://www.free-decompiler.com/flash" xmlns:xlink="http://www.w3.org/1999/xlink" ffdec:objectType="frame" height="21.95px" width="50.0px" xmlns="http://www.w3.org/2000/svg">
  <g transform="matrix(1.0, 0.0, 0.0, 1.0, 25.05, -11.45)">
    <use ffdec:characterId="66" height="7.65" transform="matrix(1.0, 0.1757, 0.0, 1.0, -5.85, 28.9)" width="7.45" xlink:href="#sprite0"/>
    <use ffdec:characterId="66" height="7.65" transform="matrix(-1.0, 0.1757, 0.0, 1.0, 5.5, 28.8)" width="7.45" xlink:href="#sprite1"/>
    <use ffdec:characterId="68" height="5.1" transform="matrix(-0.8434, 0.553, 0.5038, 0.5853, 6.1, 19.25)" width="6.15" xlink:href="#sprite2"/>
    <use ffdec:characterId="69" height="1.7" transform="matrix(1.0, 0.0, 0.0, 1.0, -1.55, 15.2)" width="1.15" xlink:href="#sprite3"/>
    <use ffdec:characterId="69" height="1.7" transform="matrix(-1.0, 0.0, 0.0, 1.0, 1.6, 15.2)" width="1.15" xlink:href="#sprite4"/>
    <use ffdec:characterId="71" height="6.1" transform="matrix(-0.6786, 0.5509, 0.5841, 0.64, 5.45, 18.0)" width="6.15" xlink:href="#sprite5"/>
    <use ffdec:characterId="73" height="5.0" transform="matrix(-0.8434, 0.553, 0.4926, 0.5723, 5.45, 18.8)" width="2.05" xlink:href="#sprite6"/>
    <use ffdec:characterId="75" height="10.85" transform="matrix(1.0, 0.0, 0.0, 1.0, -0.2, 20.75)" width="7.35" xlink:href="#sprite7"/>
    <use ffdec:characterId="68" height="5.1" transform="matrix(0.8434, 0.553, -0.5038, 0.5853, -6.3, 19.5)" width="6.15" xlink:href="#sprite8"/>
    <use ffdec:characterId="71" height="6.1" transform="matrix(0.6786, 0.5509, -0.5841, 0.64, -5.65, 18.25)" width="6.15" xlink:href="#sprite9"/>
    <use ffdec:characterId="73" height="5.0" transform="matrix(0.8434, 0.553, -0.4926, 0.5723, -5.65, 19.05)" width="2.05" xlink:href="#sprite6"/>
    <use ffdec:characterId="77" height="9.0" transform="matrix(0.8954, 0.0, 0.0, 0.8445, -4.75, 18.5)" width="4.9" xlink:href="#sprite10"/>
    <use ffdec:characterId="79" height="5.3" transform="matrix(1.0, 0.0, 0.0, 1.0, -4.2, 23.55)" width="5.15" xlink:href="#sprite11"/>
    <use ffdec:characterId="80" height="9.55" transform="matrix(1.0, 0.1351, 0.0, 1.0, -2.35, 19.05)" width="3.8" xlink:href="#sprite12"/>
    <use ffdec:characterId="82" height="5.35" transform="matrix(1.0, 0.0, 0.0, 1.0, -1.7, 23.6)" width="2.6" xlink:href="#sprite13"/>
    <use ffdec:characterId="77" height="9.0" transform="matrix(-0.8954, 0.0, 0.0, 0.8445, 4.55, 18.25)" width="4.9" xlink:href="#sprite14"/>
    <use ffdec:characterId="79" height="5.3" transform="matrix(-1.0, 0.0, 0.0, 1.0, 4.0, 23.55)" width="5.15" xlink:href="#sprite15"/>
    <use ffdec:characterId="80" height="9.55" transform="matrix(-1.0, 0.1892, 0.0, 1.0, 2.3, 18.95)" width="3.8" xlink:href="#sprite16"/>
    <use ffdec:characterId="82" height="5.35" transform="matrix(-0.92, 0.0, 0.0, 1.0, 1.75, 23.5)" width="2.6" xlink:href="#sprite17"/>
    <use ffdec:characterId="63" height="22.25" transform="matrix(-0.3985, 0.9171, -0.6857, -0.298, -15.2, 20.05)" width="11.3" xlink:href="#sprite18"/>
    <use ffdec:characterId="84" height="5.25" transform="matrix(1.0, 0.0, 0.0, 1.0, -10.25, 23.05)" width="4.15" xlink:href="#sprite19"/>
    <use ffdec:characterId="59" height="22.25" transform="matrix(0.3946, 0.9187, 0.6682, -0.287, 15.3, 19.85)" width="11.3" xlink:href="#sprite20"/>
    <use ffdec:characterId="84" height="5.25" transform="matrix(-1.0, 0.0, 0.0, 1.0, 10.05, 22.8)" width="4.15" xlink:href="#sprite19"/>
  </g>
  <defs>
    <g id="sprite0">
      <use ffdec:characterId="65" height="7.65" transform="matrix(1.0, 0.0, 0.0, 1.0, 0.0, 0.0)" width="7.45" xlink:href="#shape0"/>
    </g>
    <g id="shape0">
      <path d="M3.15 -0.85 Q3.5 -0.95 3.6 -0.65 L3.6 1.2 2.55 2.05 2.3 2.05 2.3 -0.1 2.65 -0.65 3.15 -0.85" fill="#dfb391" fill-rule="evenodd" stroke="none"/>
      <path d="M-0.8 -0.95 L1.95 -0.25 Q2.6 -0.1 2.6 0.6 L2.6 1.65 Q2.6 2.3 1.95 2.15 L-0.8 1.45 Q-1.45 1.3 -1.45 0.65 L-1.45 -0.4 Q-1.45 -1.1 -0.8 -0.95" fill="#9c7252" fill-rule="evenodd" stroke="none"/>
      <path d="M1.3 0.8 Q1.65 0.7 1.75 1.0 L1.75 2.85 0.7 3.7 0.45 3.7 0.45 1.55 0.8 1.0 1.3 0.8" fill="#dfb391" fill-rule="evenodd" stroke="none"/>
      <path d="M-2.65 0.7 L0.1 1.4 Q0.75 1.55 0.75 2.25 L0.75 3.3 Q0.75 3.95 0.1 3.8 L-2.65 3.1 Q-3.3 2.95 -3.3 2.3 L-3.3 1.25 Q-3.3 0.55 -2.65 0.7" fill="#9c7252" fill-rule="evenodd" stroke="none"/>
      <path d="M3.55 -1.95 Q4.05 -1.1 3.3 0.05 2.65 1.25 1.2 2.05 -0.2 2.9 -1.6 2.9 -2.9 2.9 -3.4 2.05 -3.85 1.25 -3.2 0.1 -2.5 -1.1 -1.1 -1.95 0.35 -2.75 1.7 -2.75 3.1 -2.75 3.55 -1.95" fill="#dfb391" fill-rule="evenodd" stroke="none"/>
      <path d="M3.45 -2.95 Q3.95 -2.1 3.2 -0.95 2.55 0.25 1.1 1.05 -0.3 1.9 -1.7 1.9 -3.0 1.9 -3.5 1.05 -3.95 0.25 -3.3 -0.9 -2.6 -2.1 -1.2 -2.95 0.25 -3.75 1.6 -3.75 3.0 -3.75 3.45 -2.95" fill="#9c7252" fill-rule="evenodd" stroke="none"/>
      <path d="M-3.0 -0.95 L-2.85 -1.2 Q-2.45 -1.95 -1.65 -2.5 L-0.95 -3.0 Q0.0 -3.55 0.9 -3.7 L1.6 -3.8 Q2.45 -3.85 2.9 -3.5 L2.95 -3.5 3.1 -3.3 3.2 -3.2 3.35 -2.8 3.35 -2.75 Q1.3 0.0 -1.05 0.45 -3.4 0.9 -3.0 -0.95" fill="#ffffff" fill-rule="evenodd" stroke="none"/>
      <path d="M3.35 -2.75 Q3.4 -2.2 2.9 -1.55 2.2 -0.5 0.9 0.25 -0.4 1.0 -1.55 1.05 L-2.9 0.75 -3.15 0.45 Q-3.45 0.0 -3.15 -0.6 L-3.1 -0.7 -3.1 -0.75 -3.0 -0.95 Q-3.4 0.9 -1.05 0.45 1.3 0.0 3.35 -2.75" fill="#d5d6ff" fill-rule="evenodd" stroke="none"/>
      <path d="M-1.35 -0.35 L-2.1 0.95" ffdec:has-small-stroke="true" ffdec:original-stroke-width="0.5" fill="none" stroke="#000000" stroke-linecap="round" stroke-linejoin="round" stroke-width="1.0"/>
      <path d="M1.25 -0.35 L-1.35 -0.35 -2.15 -2.15" fill="none" stroke="#000000" stroke-linecap="round" stroke-linejoin="round" stroke-width="1.25"/>
    </g>
    <g id="sprite1">
      <use ffdec:characterId="65" height="7.65" transform="matrix(1.0, 0.0, 0.0, 1.0, 0.0, 0.0)" width="7.45" xlink:href="#shape1"/>
    </g>
    <g id="shape1">
      <path d="M3.15 -0.85 Q3.5 -0.95 3.6 -0.65 L3.6 1.2 2.55 2.05 2.3 2.05 2.3 -0.1 2.65 -0.65 3.15 -0.85" fill="#dfb391" fill-rule="evenodd" stroke="none"/>
      <path d="M-0.8 -0.95 L1.95 -0.25 Q2.6 -0.1 2.6 0.6 L2.6 1.65 Q2.6 2.3 1.95 2.15 L-0.8 1.45 Q-1.45 1.3 -1.45 0.65 L-1.45 -0.4 Q-1.45 -1.1 -0.8 -0.95" fill="#9c7252" fill-rule="evenodd" stroke="none"/>
      <path d="M1.3 0.8 Q1.65 0.7 1.75 1.0 L1.75 2.85 0.7 3.7 0.45 3.7 0.45 1.55 0.8 1.0 1.3 0.8" fill="#dfb391" fill-rule="evenodd" stroke="none"/>
      <path d="M-2.65 0.7 L0.1 1.4 Q0.75 1.55 0.75 2.25 L0.75 3.3 Q0.75 3.95 0.1 3.8 L-2.65 3.1 Q-3.3 2.95 -3.3 2.3 L-3.3 1.25 Q-3.3 0.55 -2.65 0.7" fill="#9c7252" fill-rule="evenodd" stroke="none"/>
      <path d="M3.55 -1.95 Q4.05 -1.1 3.3 0.05 2.65 1.25 1.2 2.05 -0.2 2.9 -1.6 2.9 -2.9 2.9 -3.4 2.05 -3.85 1.25 -3.2 0.1 -2.5 -1.1 -1.1 -1.95 0.35 -2.75 1.7 -2.75 3.1 -2.75 3.55 -1.95" fill="#dfb391" fill-rule="evenodd" stroke="none"/>
      <path d="M3.45 -2.95 Q3.95 -2.1 3.2 -0.95 2.55 0.25 1.1 1.05 -0.3 1.9 -1.7 1.9 -3.0 1.9 -3.5 1.05 -3.95 0.25 -3.3 -0.9 -2.6 -2.1 -1.2 -2.95 0.25 -3.75 1.6 -3.75 3.0 -3.75 3.45 -2.95" fill="#9c7252" fill-rule="evenodd" stroke="none"/>
      <path d="M-3.0 -0.95 L-2.85 -1.2 Q-2.45 -1.95 -1.65 -2.5 L-0.95 -3.0 Q0.0 -3.55 0.9 -3.7 L1.6 -3.8 Q2.45 -3.85 2.9 -3.5 L2.95 -3.5 3.1 -3.3 3.2 -3.2 3.35 -2.8 3.35 -2.75 Q1.3 0.0 -1.05 0.45 -3.4 0.9 -3.0 -0.95" fill="#ffffff" fill-rule="evenodd" stroke="none"/>
      <path d="M3.35 -2.75 Q3.4 -2.2 2.9 -1.55 2.2 -0.5 0.9 0.25 -0.4 1.0 -1.55 1.05 L-2.9 0.75 -3.15 0.45 Q-3.45 0.0 -3.15 -0.6 L-3.1 -0.7 -3.1 -0.75 -3.0 -0.95 Q-3.4 0.9 -1.05 0.45 1.3 0.0 3.35 -2.75" fill="#d5d6ff" fill-rule="evenodd" stroke="none"/>
      <path d="M-1.35 -0.35 L-2.1 0.95" ffdec:has-small-stroke="true" ffdec:original-stroke-width="0.5" fill="none" stroke="#000000" stroke-linecap="round" stroke-linejoin="round" stroke-width="1.0"/>
      <path d="M1.25 -0.35 L-1.35 -0.35 -2.15 -2.15" fill="none" stroke="#000000" stroke-linecap="round" stroke-linejoin="round" stroke-width="1.25"/>
    </g>
    <g id="sprite2">
      <use ffdec:characterId="67" height="5.1" transform="matrix(1.0, 0.0, 0.0, 1.0, 0.0, 0.0)" width="6.15" xlink:href="#shape2"/>
    </g>
    <g id="shape2">
      <path d="M3.05 -2.5 L3.05 2.5 -3.0 2.5 -3.0 -2.5 3.05 -2.5" fill="#f00c3f" fill-rule="evenodd" stroke="none"/>
      <path d="M3.05 -2.5 L3.05 2.5 -3.0 2.5 -3.0 -2.5" ffdec:has-small-stroke="true" ffdec:original-stroke-width="0.1" fill="none" stroke="#720019" stroke-linecap="square" stroke-linejoin="round" stroke-width="1.1379595394305304"/>
    </g>
    <g id="sprite3">
      <use ffdec:characterId="53" height="1.7" transform="matrix(1.0, 0.0, 0.0, 1.0, 0.0, 0.05)" width="1.15" xlink:href="#shape3"/>
    </g>
    <g id="shape3">
      <path d="M0.55 -0.85 L0.55 -0.2 -0.25 0.8 -0.45 -0.5 -0.45 -0.65 -0.5 -0.85 0.55 -0.85" fill="#717c97" fill-rule="evenodd" stroke="none"/>
      <path d="M0.55 -0.85 L-0.5 -0.85" ffdec:has-small-stroke="true" ffdec:original-stroke-width="0.1" fill="none" stroke="#3a4256" stroke-linecap="square" stroke-linejoin="round" stroke-width="1.0"/>
    </g>
    <g id="sprite4">
      <use ffdec:characterId="53" height="1.7" transform="matrix(1.0, 0.0, 0.0, 1.0, 0.0, 0.05)" width="1.15" xlink:href="#shape4"/>
    </g>
    <g id="shape4">
      <path d="M0.55 -0.85 L0.55 -0.2 -0.25 0.8 -0.45 -0.5 -0.45 -0.65 -0.5 -0.85 0.55 -0.85" fill="#717c97" fill-rule="evenodd" stroke="none"/>
      <path d="M0.55 -0.85 L-0.5 -0.85" ffdec:has-small-stroke="true" ffdec:original-stroke-width="0.1" fill="none" stroke="#3a4256" stroke-linecap="square" stroke-linejoin="round" stroke-width="1.0"/>
    </g>
    <g id="sprite5">
      <use ffdec:characterId="70" height="6.1" transform="matrix(1.0, 0.0, 0.0, 1.0, 0.0, 0.0)" width="6.15" xlink:href="#shape5"/>
    </g>
    <g id="shape5">
      <path d="M-2.65 -1.5 L-2.15 -2.15 Q-1.25 -3.05 0.0 -3.05 0.8 -3.05 1.5 -2.65 L2.15 -2.15 Q3.05 -1.25 3.05 0.0 L3.05 0.15 Q3.0 1.3 2.15 2.15 1.25 3.05 0.0 3.05 L-0.55 3.0 Q-1.35 2.85 -1.95 2.35 L-2.15 2.15 -2.85 1.05 -2.95 0.8 -3.0 0.5 -3.05 0.0 Q-3.05 -0.85 -2.65 -1.5" fill="#f00c3f" fill-rule="evenodd" stroke="none"/>
      <path d="M-3.0 0.5 L-3.05 0.0 Q-3.05 -0.85 -2.65 -1.5" ffdec:has-small-stroke="true" ffdec:original-stroke-width="0.1" fill="none" stroke="#720019" stroke-linecap="square" stroke-linejoin="round" stroke-width="1.1500691387833215"/>
    </g>
    <g id="sprite6">
      <use ffdec:characterId="72" height="5.0" transform="matrix(1.0, 0.0, 0.0, 1.0, 0.0, 0.0)" width="2.05" xlink:href="#shape6"/>
    </g>
    <g id="shape6">
      <path d="M1.05 -2.5 L1.05 2.5 -1.0 2.5 -1.0 -2.5 1.05 -2.5" fill="#c6002c" fill-rule="evenodd" stroke="none"/>
    </g>
    <g id="sprite7">
      <use ffdec:characterId="74" height="10.85" transform="matrix(1.0, 0.0, 0.0, 1.0, 0.0, 0.0)" width="7.35" xlink:href="#shape7"/>
    </g>
    <g id="shape7">
      <path d="M-3.65 1.1 L-3.65 -5.4 -1.95 -5.4 Q-1.95 -5.05 -1.4 -4.8 L0.0 -4.5 1.35 -4.8 Q1.95 -5.05 1.95 -5.4 L3.7 -5.4 3.7 1.1 -3.65 1.1" fill="#ffffff" fill-rule="evenodd" stroke="none"/>
      <path d="M3.7 1.1 L3.7 5.45 -3.65 5.45 -3.65 1.1 3.7 1.1" fill="#132fbe" fill-rule="evenodd" stroke="none"/>
    </g>
    <g id="sprite8">
      <use ffdec:characterId="67" height="5.1" transform="matrix(1.0, 0.0, 0.0, 1.0, 0.0, 0.0)" width="6.15" xlink:href="#shape8"/>
    </g>
    <g id="shape8">
      <path d="M3.05 -2.5 L3.05 2.5 -3.0 2.5 -3.0 -2.5 3.05 -2.5" fill="#f00c3f" fill-rule="evenodd" stroke="none"/>
      <path d="M3.05 -2.5 L3.05 2.5 -3.0 2.5 -3.0 -2.5" ffdec:has-small-stroke="true" ffdec:original-stroke-width="0.1" fill="none" stroke="#720019" stroke-linecap="square" stroke-linejoin="round" stroke-width="1.1379595394305304"/>
    </g>
    <g id="sprite9">
      <use ffdec:characterId="70" height="6.1" transform="matrix(1.0, 0.0, 0.0, 1.0, 0.0, 0.0)" width="6.15" xlink:href="#shape9"/>
    </g>
    <g id="shape9">
      <path d="M-2.65 -1.5 L-2.15 -2.15 Q-1.25 -3.05 0.0 -3.05 0.8 -3.05 1.5 -2.65 L2.15 -2.15 Q3.05 -1.25 3.05 0.0 L3.05 0.15 Q3.0 1.3 2.15 2.15 1.25 3.05 0.0 3.05 L-0.55 3.0 Q-1.35 2.85 -1.95 2.35 L-2.15 2.15 -2.85 1.05 -2.95 0.8 -3.0 0.5 -3.05 0.0 Q-3.05 -0.85 -2.65 -1.5" fill="#f00c3f" fill-rule="evenodd" stroke="none"/>
      <path d="M-3.0 0.5 L-3.05 0.0 Q-3.05 -0.85 -2.65 -1.5" ffdec:has-small-stroke="true" ffdec:original-stroke-width="0.1" fill="none" stroke="#720019" stroke-linecap="square" stroke-linejoin="round" stroke-width="1.1500691387833215"/>
    </g>
    <g id="sprite10">
      <use ffdec:characterId="76" height="9.0" transform="matrix(1.0, 0.0, 0.0, 1.0, 0.0, 0.0)" width="4.9" xlink:href="#shape10"/>
    </g>
    <g id="shape10">
      <path d="M-2.4 -3.05 L2.4 -4.45 2.4 -3.85 0.75 2.95 -1.4 2.95 -1.6 1.7 -2.4 -3.05" fill="#f00c3f" fill-rule="evenodd" stroke="none"/>
      <path d="M2.4 -3.85 L2.4 4.45 -1.15 4.45 -1.4 2.95 0.75 2.95 2.4 -3.85" fill="#c6002c" fill-rule="evenodd" stroke="none"/>
      <path d="M-2.4 -3.05 L2.4 -4.45 2.4 -3.85 2.4 4.45 -1.15 4.45 -1.4 2.95 -1.6 1.7" ffdec:has-small-stroke="true" ffdec:original-stroke-width="0.1" fill="none" stroke="#720019" stroke-linecap="square" stroke-linejoin="round" stroke-width="1.1500450531346207"/>
    </g>
    <g id="sprite11">
      <use ffdec:characterId="78" height="5.3" transform="matrix(1.0, 0.0, 0.0, 1.0, 0.0, 0.0)" width="5.15" xlink:href="#shape11"/>
    </g>
    <g id="shape11">
      <path d="M-1.75 -2.55 L3.35 -2.55 3.35 2.6 -1.7 2.6 -1.7 -2.2 -1.75 -2.55" fill="#f00c3f" fill-rule="evenodd" stroke="none"/>
      <path d="M-0.45 -1.2 L-0.45 -2.4 0.7 -2.4 0.7 -2.35 0.75 -2.35 0.75 -1.2 -0.45 -1.2 M2.0 -1.2 L2.0 -2.4 3.15 -2.4 3.15 -2.35 3.2 -2.35 3.2 -1.2 2.0 -1.2 M0.8 0.05 L0.8 -1.15 2.0 -1.15 2.0 0.05 0.8 0.05 M2.0 1.35 L2.0 0.15 3.15 0.15 3.15 0.2 3.2 0.2 3.2 1.35 2.0 1.35 M0.8 2.55 L0.8 1.35 1.95 1.35 1.95 1.4 2.0 1.4 2.0 2.55 0.8 2.55 M-0.45 1.35 L-0.45 0.15 0.7 0.15 0.7 0.2 0.75 0.2 0.75 1.35 -0.45 1.35 M-1.65 0.05 L-1.65 -1.15 -0.45 -1.15 -0.45 0.05 -1.65 0.05 M-1.65 2.55 L-1.65 1.35 -0.5 1.35 -0.5 1.4 -0.45 1.4 -0.45 2.55 -1.65 2.55" fill="#ffffff" fill-rule="evenodd" stroke="none"/>
      <path d="M-1.7 -2.6 L-1.7 2.6 3.35 2.6" ffdec:has-small-stroke="true" ffdec:original-stroke-width="0.1" fill="none" stroke="#720019" stroke-linecap="square" stroke-linejoin="round" stroke-width="1.0"/>
    </g>
    <g id="sprite12">
      <use ffdec:characterId="55" height="9.55" transform="matrix(1.0, 0.0, 0.0, 1.0, 0.0, 2.55)" width="3.8" xlink:href="#shape12"/>
      <use ffdec:characterId="11" height="12.5" transform="matrix(0.1667, -0.0215, 0.0238, 0.1636, -1.35, -3.2)" width="10.3" xlink:href="#text0"/>
      <use ffdec:characterId="12" height="12.4" transform="matrix(0.1667, -0.0215, 0.0238, 0.1636, -1.05, -0.8)" width="10.2" xlink:href="#text1"/>
    </g>
    <g id="shape12">
      <path d="M0.45 -7.3 L0.5 -7.1 1.2 -2.35 1.9 2.15 -0.6 2.15 -1.85 -6.0 0.45 -7.3" fill="#2c3345" fill-rule="evenodd" stroke="none"/>
      <path d="M-0.6 2.15 L-1.85 -6.0 0.45 -7.3" ffdec:has-small-stroke="true" ffdec:original-stroke-width="0.1" fill="none" stroke="#000000" stroke-linecap="square" stroke-linejoin="round" stroke-width="1.0"/>
    </g>
    <g id="text0">
      <g transform="matrix(1.0, 0.0, 0.0, 1.0, 0.0, 0.0)">
        <use fill="#ffffff" height="12.5" transform="matrix(0.014, 0.0, 0.0, 0.014, 0.0, 9.0)" width="10.3" xlink:href="#font_GSNP____EB__0"/>
      </g>
    </g>
    <g id="font_GSNP____EB__0">
      <path d="M384.9 -243.9 Q385.95 -289.6 380.35 -335.0 365.7 -256.15 360.45 -176.55 355.25 -97.0 357.3 -16.75 356.25 2.45 354.9 21.65 351.75 40.5 343.35 59.3 337.45 67.0 331.15 74.35 323.1 80.95 312.65 82.35 L291.0 83.05 268.7 80.95 Q255.45 78.15 245.3 68.05 235.2 57.9 232.4 43.95 L224.7 20.95 210.05 0.7 177.95 -25.8 161.9 22.35 142.35 69.1 Q138.9 76.75 130.85 80.6 122.85 84.45 114.45 83.05 104.7 78.85 94.55 74.35 L78.15 60.0 62.1 37.35 51.65 11.85 Q49.55 2.1 42.9 -4.55 36.3 -11.15 26.5 -13.25 L24.45 -27.2 Q57.25 -90.75 80.6 -158.05 104.0 -225.4 118.65 -294.5 112.7 -296.6 106.45 -299.05 100.85 -302.2 94.9 -305.7 L61.05 -337.1 Q45.35 -353.85 32.8 -373.35 L30.0 -381.4 30.7 -390.1 37.0 -402.0 43.95 -413.15 Q52.7 -408.6 61.05 -404.45 L76.75 -393.6 136.1 -413.15 138.2 -443.85 137.5 -472.1 131.9 -499.7 Q127.35 -515.4 122.5 -531.1 116.2 -546.45 109.55 -561.8 L120.05 -572.95 131.9 -581.35 Q138.9 -583.1 145.85 -585.2 153.55 -585.55 159.1 -581.35 183.55 -565.3 201.35 -541.55 219.15 -517.85 227.5 -489.9 L231.7 -473.15 233.8 -457.1 257.5 -469.7 Q261.0 -472.1 264.15 -474.9 266.6 -477.7 268.7 -480.85 271.5 -485.75 277.05 -486.8 282.65 -487.85 286.85 -484.35 L322.1 -457.1 Q340.2 -444.2 358.0 -431.3 L339.85 -479.1 316.85 -525.5 326.6 -531.8 335.7 -538.05 Q341.6 -539.45 347.2 -541.2 L358.0 -539.45 Q368.15 -534.25 377.9 -529.35 L396.4 -515.75 465.85 -541.55 537.4 -563.9 549.6 -577.85 563.2 -591.1 Q569.5 -593.2 575.75 -595.65 582.4 -593.9 589.0 -592.5 619.05 -568.1 642.75 -537.05 666.5 -505.95 682.55 -471.1 689.5 -456.4 689.5 -439.65 689.5 -422.9 682.55 -408.25 L677.65 -394.3 674.85 -379.65 Q667.2 -293.1 665.8 -206.6 664.4 -120.05 670.65 -32.8 671.35 -20.95 669.65 -8.35 666.85 3.5 663.7 15.35 658.8 30.0 646.25 38.05 633.7 46.05 619.05 44.65 L599.15 40.85 582.05 31.4 564.6 18.85 478.75 40.5 Q472.1 46.05 465.15 51.3 457.45 54.8 449.45 57.9 L437.25 58.6 425.0 55.15 408.95 43.6 Q402.0 36.3 398.5 26.5 388.05 -2.8 381.75 -33.15 375.45 -63.5 374.05 -94.2 374.05 -108.85 373.7 -123.55 375.45 -138.2 376.85 -152.85 383.85 -198.2 384.9 -243.9 M497.6 -406.15 Q478.75 -399.9 462.7 -390.1 461.3 -316.15 465.15 -242.85 469.0 -169.6 478.05 -97.7 L530.4 -115.15 Q527.6 -189.15 529.0 -263.8 530.4 -338.5 536.7 -413.15 516.45 -412.45 497.6 -406.15 M251.25 -337.8 L225.4 -323.1 Q225.4 -265.2 219.15 -208.3 212.85 -151.45 198.9 -96.3 L224.7 -74.65 Q240.75 -139.6 247.05 -205.55 253.35 -271.5 251.25 -337.8 M659.5 -235.2 Q660.9 -291.0 665.8 -346.85 665.45 -348.6 663.35 -351.4 660.55 -353.15 658.8 -353.15 657.05 -353.15 653.9 -351.4 651.85 -348.6 651.85 -346.85 647.65 -291.0 646.25 -235.2 L646.25 -122.85 Q646.25 -121.1 648.0 -117.95 650.8 -115.85 652.55 -115.85 654.25 -115.85 657.4 -117.95 659.5 -121.1 659.5 -122.85 L659.5 -235.2 M192.95 -99.8 Q204.5 -147.25 210.75 -195.4 210.75 -197.15 209.0 -200.3 206.25 -202.4 204.5 -202.4 202.75 -202.4 199.95 -200.65 197.85 -197.85 197.5 -196.1 191.2 -148.65 180.05 -101.9 168.9 -55.15 152.85 -9.75 152.5 -7.0 153.2 -5.25 153.9 -3.5 156.35 -2.1 L161.9 -2.45 165.4 -6.3 Q181.45 -52.35 192.95 -99.8 M637.85 -531.8 Q619.75 -556.2 596.7 -576.45 593.55 -578.55 591.8 -578.55 590.05 -578.55 586.95 -576.45 584.85 -573.65 584.85 -571.9 586.25 -569.5 587.6 -567.4 609.25 -547.85 627.05 -524.45 644.85 -501.1 658.1 -475.25 L661.6 -471.1 667.2 -471.1 671.0 -475.25 Q671.0 -478.05 670.65 -480.85 L637.85 -531.8 M201.7 -529.7 Q189.85 -547.85 174.45 -561.8 171.35 -563.9 169.25 -563.9 167.15 -563.9 164.0 -561.8 163.3 -559.0 162.25 -556.2 162.6 -554.45 164.7 -551.35 179.35 -538.75 190.15 -522.0 201.0 -505.25 207.25 -486.45 L211.1 -482.6 216.35 -482.25 220.2 -485.75 Q220.55 -488.5 220.55 -491.3 213.55 -511.55 201.7 -529.7 M348.6 19.2 Q352.45 0.0 351.05 -19.55 351.05 -21.3 348.95 -24.45 345.8 -26.5 344.05 -26.5 342.3 -26.5 339.15 -24.45 337.1 -21.3 337.1 -19.55 338.5 -1.4 335.35 16.75 332.2 34.9 324.5 50.95 324.5 53.75 324.15 56.55 L328.0 60.0 332.9 60.35 Q335.35 58.95 336.4 57.25 344.75 38.4 348.6 19.2 M214.25 -30.7 L187.75 -52.35 183.55 -38.4 205.2 -20.95 Q208.3 -18.85 210.05 -19.2 211.8 -19.55 214.95 -21.65 216.35 -24.8 216.35 -26.5 216.35 -28.25 214.25 -30.7 M219.15 -62.1 L196.1 -80.95 191.9 -67.0 210.05 -51.65 Q213.2 -50.25 214.95 -50.6 216.7 -50.95 219.85 -52.35 221.25 -55.5 221.25 -57.25 221.25 -58.95 219.15 -62.1" fill-rule="evenodd" stroke="none"/>
    </g>
    <g id="text1">
      <g transform="matrix(1.0, 0.0, 0.0, 1.0, 0.0, 0.0)">
        <use fill="#ffffff" height="12.4" transform="matrix(0.014, 0.0, 0.0, 0.014, 0.0, 9.0)" width="10.2" xlink:href="#font_GSNP____EB__1"/>
      </g>
    </g>
    <g id="font_GSNP____EB__1">
      <path d="M172.75 -557.25 Q224.7 -533.2 257.5 -485.75 261.35 -487.5 264.85 -489.55 269.05 -490.95 272.85 -492.7 288.25 -485.05 299.05 -471.75 309.85 -458.5 312.65 -442.45 L321.05 -409.65 Q339.15 -418.4 356.95 -427.45 375.8 -435.85 394.3 -444.55 392.55 -461.3 390.45 -478.05 386.3 -494.45 381.75 -510.85 L370.6 -537.4 355.9 -561.8 365.0 -575.75 377.55 -587.6 Q383.5 -590.05 389.4 -592.85 L402.0 -591.1 Q427.1 -581.35 448.4 -564.95 469.7 -548.55 485.75 -527.6 492.0 -516.45 497.95 -505.25 501.1 -493.05 503.9 -480.85 L545.05 -489.2 553.45 -499.0 563.9 -504.55 571.55 -505.95 579.25 -503.2 Q612.05 -477.35 637.85 -443.85 663.7 -410.35 679.75 -370.6 685.35 -358.0 684.65 -344.4 683.95 -330.8 676.95 -318.95 L664.4 -281.25 658.1 -243.55 659.5 -60.0 Q659.5 -28.6 651.15 2.8 642.75 34.2 626.0 61.4 619.05 74.0 605.75 78.5 592.5 83.05 579.95 77.45 560.4 69.8 543.3 58.6 L511.55 34.2 Q472.45 28.6 434.45 31.75 396.4 34.9 359.4 46.05 L355.9 55.15 350.35 62.1 Q344.05 68.4 335.35 68.75 326.6 69.1 320.35 63.5 295.2 43.25 279.85 15.35 264.5 -12.55 260.3 -44.65 250.55 -116.55 248.45 -188.1 246.35 -259.6 252.65 -332.2 254.75 -349.65 252.3 -367.8 248.1 -385.25 243.55 -402.7 L233.8 -399.9 Q235.9 -320.35 226.1 -241.8 216.35 -163.3 196.1 -86.55 212.85 -62.8 224.0 -35.6 235.2 -8.35 240.05 20.25 242.15 28.6 238.0 36.65 233.8 44.65 226.1 48.85 211.45 57.25 194.35 59.65 177.25 62.1 161.2 59.3 148.65 54.8 136.1 49.9 L113.75 33.5 Q71.2 -14.65 49.2 -75.0 27.2 -135.4 29.3 -199.6 54.45 -196.1 77.8 -186.7 101.2 -177.25 121.45 -162.6 129.8 -180.75 137.85 -199.25 144.8 -217.75 151.45 -236.6 95.6 -252.65 65.25 -301.5 34.9 -350.35 44.65 -407.55 84.45 -410.35 120.4 -395.0 156.35 -379.65 182.15 -350.35 184.6 -362.55 186.7 -374.75 188.45 -386.65 189.85 -398.5 136.1 -421.55 102.25 -469.0 68.4 -516.45 63.5 -574.35 120.75 -581.35 172.75 -557.25 M389.4 -148.65 L346.15 -140.3 350.35 -101.9 355.9 -64.2 388.05 -75.35 389.4 -148.65 M540.15 -179.35 L493.4 -168.9 490.6 -94.9 536.0 -95.6 540.15 -179.35 M523.4 -353.85 L499.7 -347.55 497.6 -288.25 Q510.15 -289.6 522.0 -286.15 533.9 -282.65 542.95 -275.65 L546.45 -358.7 523.4 -353.85 M391.5 -260.3 L392.2 -314.75 363.25 -315.8 Q349.3 -319.65 335.0 -323.8 337.1 -304.65 338.85 -285.8 340.9 -266.6 342.65 -247.75 L391.5 -260.3 M63.15 -58.6 Q72.6 -41.2 81.65 -23.75 L85.5 -20.25 90.75 -20.95 Q92.45 -23.05 93.85 -25.45 94.2 -27.55 92.8 -30.0 L75.7 -63.85 62.8 -99.1 60.0 -104.0 54.45 -104.7 49.55 -101.2 Q48.5 -99.45 49.55 -96.3 56.55 -77.45 63.15 -58.6 M102.6 -9.05 Q100.85 -9.05 97.7 -7.7 95.6 -5.25 95.6 -3.15 95.6 -1.05 97.7 2.1 100.85 4.2 102.6 4.2 104.35 4.2 107.5 2.1 108.85 -1.05 108.85 -2.8 108.85 -4.55 107.5 -7.7 104.35 -9.05 102.6 -9.05 M98.75 -289.95 L80.25 -315.45 76.05 -318.95 70.5 -318.25 Q69.1 -315.8 67.35 -313.7 67.0 -311.6 68.4 -308.45 77.45 -293.1 89.7 -280.55 103.3 -269.4 116.55 -258.2 L122.15 -257.85 Q123.9 -258.55 126.3 -261.0 L127.0 -266.6 123.55 -270.8 Q109.55 -278.45 98.75 -289.95 M259.6 -114.45 L264.5 -67.0 Q264.5 -65.25 266.6 -62.1 269.75 -60.35 271.5 -60.7 273.9 -61.75 276.0 -63.15 277.05 -65.6 277.75 -68.4 275.3 -91.75 272.55 -115.5 271.15 -138.9 269.4 -162.6 269.4 -164.35 267.65 -167.15 264.85 -168.9 263.1 -168.9 261.35 -168.9 258.2 -166.8 256.15 -163.65 256.15 -161.9 L259.6 -114.45 M651.85 -118.65 L651.15 -212.85 Q651.15 -215.3 649.4 -218.1 646.6 -219.85 644.85 -219.85 643.1 -219.85 639.95 -218.1 637.85 -215.3 637.85 -212.85 L638.55 -118.65 640.65 -113.4 Q643.1 -112.0 645.55 -110.95 648.0 -112.0 650.45 -113.4 L651.85 -118.65 M641.35 -79.9 Q639.25 -77.1 639.25 -75.35 L639.25 -67.0 Q639.25 -64.55 641.35 -61.75 644.5 -60.0 646.25 -60.0 648.0 -60.0 650.8 -62.1 652.55 -65.25 652.55 -67.0 L652.55 -75.35 Q652.55 -77.1 650.8 -79.9 648.0 -81.65 646.25 -81.65 644.5 -81.65 641.35 -79.9 M635.8 -435.15 Q621.45 -451.9 607.15 -469.0 604.35 -471.1 602.65 -471.4 600.2 -470.75 597.4 -470.4 595.3 -467.25 594.95 -465.5 596.0 -462.7 596.7 -459.9 610.3 -443.85 623.9 -428.15 635.8 -409.65 647.65 -391.5 649.75 -389.05 651.5 -388.4 L656.7 -388.7 Q659.15 -391.15 659.85 -392.9 659.5 -395.7 658.8 -398.5 L635.8 -435.15 M452.95 -553.45 Q438.25 -566.0 421.55 -574.35 418.4 -576.1 416.3 -575.75 L411.75 -572.25 Q410.0 -569.85 410.35 -567.75 412.1 -565.3 413.85 -563.2 429.9 -554.8 443.5 -542.95 L468.3 -517.15 Q470.75 -515.4 472.8 -514.0 474.9 -513.65 478.05 -515.05 L480.85 -520.3 Q480.85 -522.35 478.75 -525.5 467.6 -540.85 452.95 -553.45 M203.1 -532.85 Q185.65 -545.05 166.1 -552.75 L160.5 -553.1 156.35 -549.25 Q155.3 -546.8 156.0 -544.7 L159.8 -540.85 Q178.65 -533.2 195.05 -521.3 211.45 -509.45 224.0 -494.8 227.15 -492.7 228.9 -492.7 230.65 -492.7 233.8 -494.8 235.9 -497.95 236.25 -499.7 236.6 -501.45 234.5 -503.9 220.55 -520.65 203.1 -532.85" fill-rule="evenodd" stroke="none"/>
    </g>
    <g id="sprite13">
      <use ffdec:characterId="81" height="5.35" transform="matrix(1.0, 0.0, 0.0, 1.0, 0.0, 0.0)" width="2.6" xlink:href="#shape13"/>
    </g>
    <g id="shape13">
      <path d="M-1.25 0.85 L-1.2 0.85 -1.25 0.8 -1.25 -2.6 1.25 -2.6 1.25 0.8 1.25 0.85 1.25 2.65 -1.25 2.65 -1.25 0.85" fill="#2c3345" fill-rule="evenodd" stroke="none"/>
      <path d="M-1.25 0.85 L-1.25 2.65 1.25 2.65 M-1.25 -2.6 L-1.25 0.8" ffdec:has-small-stroke="true" ffdec:original-stroke-width="0.1" fill="none" stroke="#000000" stroke-linecap="square" stroke-linejoin="round" stroke-width="1.0"/>
    </g>
    <g id="sprite14">
      <use ffdec:characterId="76" height="9.0" transform="matrix(1.0, 0.0, 0.0, 1.0, 0.0, 0.0)" width="4.9" xlink:href="#shape14"/>
    </g>
    <g id="shape14">
      <path d="M-2.4 -3.05 L2.4 -4.45 2.4 -3.85 0.75 2.95 -1.4 2.95 -1.6 1.7 -2.4 -3.05" fill="#f00c3f" fill-rule="evenodd" stroke="none"/>
      <path d="M2.4 -3.85 L2.4 4.45 -1.15 4.45 -1.4 2.95 0.75 2.95 2.4 -3.85" fill="#c6002c" fill-rule="evenodd" stroke="none"/>
      <path d="M-2.4 -3.05 L2.4 -4.45 2.4 -3.85 2.4 4.45 -1.15 4.45 -1.4 2.95 -1.6 1.7" ffdec:has-small-stroke="true" ffdec:original-stroke-width="0.1" fill="none" stroke="#720019" stroke-linecap="square" stroke-linejoin="round" stroke-width="1.1500450531346207"/>
    </g>
    <g id="sprite15">
      <use ffdec:characterId="78" height="5.3" transform="matrix(1.0, 0.0, 0.0, 1.0, 0.0, 0.0)" width="5.15" xlink:href="#shape15"/>
    </g>
    <g id="shape15">
      <path d="M-1.75 -2.55 L3.35 -2.55 3.35 2.6 -1.7 2.6 -1.7 -2.2 -1.75 -2.55" fill="#f00c3f" fill-rule="evenodd" stroke="none"/>
      <path d="M-0.45 -1.2 L-0.45 -2.4 0.7 -2.4 0.7 -2.35 0.75 -2.35 0.75 -1.2 -0.45 -1.2 M2.0 -1.2 L2.0 -2.4 3.15 -2.4 3.15 -2.35 3.2 -2.35 3.2 -1.2 2.0 -1.2 M0.8 0.05 L0.8 -1.15 2.0 -1.15 2.0 0.05 0.8 0.05 M2.0 1.35 L2.0 0.15 3.15 0.15 3.15 0.2 3.2 0.2 3.2 1.35 2.0 1.35 M0.8 2.55 L0.8 1.35 1.95 1.35 1.95 1.4 2.0 1.4 2.0 2.55 0.8 2.55 M-0.45 1.35 L-0.45 0.15 0.7 0.15 0.7 0.2 0.75 0.2 0.75 1.35 -0.45 1.35 M-1.65 0.05 L-1.65 -1.15 -0.45 -1.15 -0.45 0.05 -1.65 0.05 M-1.65 2.55 L-1.65 1.35 -0.5 1.35 -0.5 1.4 -0.45 1.4 -0.45 2.55 -1.65 2.55" fill="#ffffff" fill-rule="evenodd" stroke="none"/>
      <path d="M-1.7 -2.6 L-1.7 2.6 3.35 2.6" ffdec:has-small-stroke="true" ffdec:original-stroke-width="0.1" fill="none" stroke="#720019" stroke-linecap="square" stroke-linejoin="round" stroke-width="1.0"/>
    </g>
    <g id="sprite16">
      <use ffdec:characterId="55" height="9.55" transform="matrix(1.0, 0.0, 0.0, 1.0, 0.0, 2.55)" width="3.8" xlink:href="#shape16"/>
      <use ffdec:characterId="11" height="12.5" transform="matrix(0.1667, -0.0215, 0.0238, 0.1636, -1.35, -3.2)" width="10.3" xlink:href="#text0"/>
      <use ffdec:characterId="12" height="12.4" transform="matrix(0.1667, -0.0215, 0.0238, 0.1636, -1.05, -0.8)" width="10.2" xlink:href="#text1"/>
    </g>
    <g id="shape16">
      <path d="M0.45 -7.3 L0.5 -7.1 1.2 -2.35 1.9 2.15 -0.6 2.15 -1.85 -6.0 0.45 -7.3" fill="#2c3345" fill-rule="evenodd" stroke="none"/>
      <path d="M-0.6 2.15 L-1.85 -6.0 0.45 -7.3" ffdec:has-small-stroke="true" ffdec:original-stroke-width="0.1" fill="none" stroke="#000000" stroke-linecap="square" stroke-linejoin="round" stroke-width="1.0"/>
    </g>
    <g id="sprite17">
      <use ffdec:characterId="81" height="5.35" transform="matrix(1.0, 0.0, 0.0, 1.0, 0.0, 0.0)" width="2.6" xlink:href="#shape17"/>
    </g>
    <g id="shape17">
      <path d="M-1.25 0.85 L-1.2 0.85 -1.25 0.8 -1.25 -2.6 1.25 -2.6 1.25 0.8 1.25 0.85 1.25 2.65 -1.25 2.65 -1.25 0.85" fill="#2c3345" fill-rule="evenodd" stroke="none"/>
      <path d="M-1.25 0.85 L-1.25 2.65 1.25 2.65 M-1.25 -2.6 L-1.25 0.8" ffdec:has-small-stroke="true" ffdec:original-stroke-width="0.1" fill="none" stroke="#000000" stroke-linecap="square" stroke-linejoin="round" stroke-width="1.0425817537864683"/>
    </g>
    <g id="sprite18">
      <use ffdec:characterId="20" height="22.25" transform="matrix(1.0, 0.0, 0.0, 1.0, 0.0, 0.0)" width="11.3" xlink:href="#shape18"/>
    </g>
    <g id="shape18">
      <path d="M4.35 7.0 L-5.55 7.0 -4.0 1.6 0.35 1.5 -0.3 -4.1 Q-1.85 -4.9 -2.55 -3.4 L-1.4 -7.4 -1.35 -7.4 -2.1 -10.35 Q-0.5 -11.5 1.05 -10.9 0.2 -9.4 0.85 -4.9 1.45 -0.45 4.35 7.0" fill="#00c2fc" fill-rule="evenodd" stroke="none"/>
      <path d="M1.05 -10.9 L2.05 -10.35 1.35 -7.4 5.55 7.0 4.35 7.0 Q1.45 -0.45 0.85 -4.9 0.2 -9.4 1.05 -10.9" fill="#0057c7" fill-rule="evenodd" stroke="none"/>
      <path d="M-4.0 1.6 L-2.55 -3.4 Q-1.85 -4.9 -0.3 -4.1 L0.35 1.5 -4.0 1.6" fill="#ffffff" fill-rule="evenodd" stroke="none"/>
      <path d="M5.65 7.6 Q5.65 9.05 4.0 10.1 2.35 11.15 0.0 11.15 -2.35 11.15 -4.0 10.1 -5.65 9.05 -5.65 7.6 -5.65 6.15 -4.0 5.1 -2.35 4.05 0.0 4.05 2.35 4.05 4.0 5.1 5.65 6.15 5.65 7.6" fill="#0051d1" fill-rule="evenodd" stroke="none"/>
    </g>
    <g id="sprite19">
      <use ffdec:characterId="83" height="5.25" transform="matrix(1.0, 0.0, 0.0, 1.0, 0.0, 0.0)" width="4.15" xlink:href="#shape19"/>
    </g>
    <g id="shape19">
      <path d="M2.2 -2.0 L1.9 -1.4 1.05 -1.2 0.25 -1.4 Q-0.1 -1.65 -0.1 -2.0 L0.25 -2.55 1.05 -2.8 1.9 -2.55 2.2 -2.0" fill="#fcb492" fill-rule="evenodd" stroke="none"/>
      <path d="M0.85 2.4 L-1.1 2.05 Q-2.5 1.1 -1.55 -0.2 L-1.25 -0.7 Q-0.45 -1.35 0.25 -0.7 L0.9 0.15 1.95 0.9 Q2.3 1.5 1.65 2.15 L0.85 2.4" fill="#ffceb8" fill-rule="evenodd" stroke="none"/>
    </g>
    <g id="sprite20">
      <use ffdec:characterId="15" height="22.25" transform="matrix(1.0, 0.0, 0.0, 1.0, 0.0, 0.0)" width="11.3" xlink:href="#shape20"/>
    </g>
    <g id="shape20">
      <path d="M3.8 7.0 L-5.55 7.0 -4.15 2.25 Q-2.2 1.0 0.2 1.6 L0.55 -4.4 Q-0.6 -5.4 -2.1 -4.85 L-1.4 -7.4 -1.35 -7.4 -2.1 -10.35 Q-0.4 -11.6 1.3 -10.8 L1.45 -10.7 0.4 -7.15 0.3 -7.15 3.8 7.0" fill="#fc00dd" fill-rule="evenodd" stroke="none"/>
      <path d="M1.45 -10.7 L2.05 -10.35 1.35 -7.4 5.55 7.0 3.8 7.0 0.3 -7.15 0.4 -7.15 1.45 -10.7" fill="#b1009b" fill-rule="evenodd" stroke="none"/>
      <path d="M-4.15 2.25 L-2.1 -4.85 Q-0.6 -5.4 0.55 -4.4 L0.2 1.6 Q-2.2 1.0 -4.15 2.25" fill="#fffafe" fill-rule="evenodd" stroke="none"/>
      <path d="M-5.2 9.0 L-5.65 7.6 Q-5.65 6.15 -4.0 5.1 -2.35 4.05 0.0 4.05 L1.0 4.1 -5.2 9.0" fill="#9c0089" fill-rule="evenodd" stroke="none"/>
      <path d="M1.0 4.1 Q2.7 4.3 4.0 5.1 5.65 6.15 5.65 7.6 5.65 9.05 4.0 10.1 L3.55 10.4 Q2.0 11.15 0.0 11.15 -2.2 11.15 -3.8 10.25 L-4.0 10.1 Q-4.8 9.6 -5.2 9.0 L1.0 4.1" fill="#c000a9" fill-rule="evenodd" stroke="none"/>
    </g>
  </defs>
</svg>
