<?xml version="1.0" encoding="UTF-8" standalone="no"?>
<svg xmlns:ffdec="https://www.free-decompiler.com/flash" xmlns:xlink="http://www.w3.org/1999/xlink" ffdec:objectType="frame" height="15.95px" width="24.5px" xmlns="http://www.w3.org/2000/svg">
  <g transform="matrix(1.0, 0.0, 0.0, 1.0, 11.9, -14.3)">
    <use ffdec:characterId="12" height="9.35" transform="matrix(1.0, 0.0, 0.0, 1.0, 0.0, 0.0)" width="19.5" xlink:href="#shape0"/>
    <use ffdec:characterId="13" height="11.75" transform="matrix(1.0, 0.0, 0.0, 1.0, -0.15, 20.2)" width="24.5" xlink:href="#shape1"/>
    <use ffdec:characterId="14" height="7.4" transform="matrix(1.0, 0.0, 0.0, 1.0, 0.0, 0.0)" width="16.7" xlink:href="#shape2"/>
  </g>
  <defs>
    <g id="shape0">
      <path d="M0.65 23.8 Q0.35 23.15 -0.3 23.15 L-0.55 23.2 -0.6 23.2 -1.65 24.1 -2.15 25.1 -2.55 26.1 -2.15 26.55 Q-1.8 26.95 -1.8 27.35 -1.8 29.35 -4.1 29.5 L-6.05 29.55 -6.2 29.55 -6.4 29.55 -9.35 29.2 -9.65 28.5 -9.2 27.55 -8.4 26.75 -6.85 25.9 Q-5.5 25.85 -5.15 25.3 L-3.8 23.35 -3.25 22.5 -3.2 22.5 -3.25 22.2 Q-3.25 21.65 -2.4 21.45 L0.7 21.2 Q2.55 21.15 3.05 21.55 L3.25 21.9 3.15 22.45 3.15 23.15 3.0 23.4 3.65 24.7 3.8 25.25 4.5 25.75 6.65 26.2 Q8.0 26.6 8.5 27.0 8.95 27.45 8.95 28.25 8.95 30.0 6.85 30.0 4.2 30.0 2.65 29.2 1.35 28.5 1.35 27.65 1.35 27.25 1.65 26.8 L1.9 26.35 0.9 24.65 0.65 23.8" fill="#333333" fill-rule="evenodd" stroke="none"/>
      <path d="M2.45 22.6 L2.85 22.15 Q3.25 21.8 3.25 22.35 L3.1 22.7 3.2 23.05 2.6 23.75 1.2 24.2 0.35 23.45 Q0.35 23.1 0.9 23.0 L2.45 22.6 M3.7 24.7 Q3.1 26.55 2.2 26.55 L1.75 26.4 1.75 26.3 1.55 25.65 1.55 25.6 Q1.65 25.45 2.15 25.2 L3.0 24.7 3.05 24.35 Q3.05 24.15 3.3 24.15 3.7 24.45 3.7 24.7 M7.75 27.65 L7.3 28.95 Q6.65 29.9 5.5 29.9 L4.85 29.75 4.8 29.6 Q5.6 29.3 6.1 28.45 L6.45 27.05 Q6.3 25.75 7.3 26.25 7.8 26.5 7.75 27.65 M4.3 26.2 Q4.3 25.9 4.9 25.8 5.45 25.65 5.45 26.4 5.45 26.85 4.65 27.9 3.7 29.1 2.85 29.1 2.35 29.1 1.8 28.35 1.8 28.05 2.4 28.0 3.2 27.9 3.65 27.5 L3.75 27.45 3.95 27.2 4.15 26.55 4.3 26.25 4.3 26.2 M-4.6 24.35 L-4.45 24.4 -4.45 24.35 Q-4.45 24.0 -3.4 24.5 L-2.4 25.2 -2.6 25.5 -2.3 25.8 Q-2.3 26.1 -2.6 26.1 L-3.8 25.55 -4.7 24.75 -4.65 24.6 -4.65 24.5 -4.6 24.35 M-3.35 22.45 Q-3.35 21.95 -2.85 21.9 -2.35 21.8 -2.15 22.25 L-1.1 23.0 Q-0.55 23.15 -0.55 23.25 L-1.15 23.95 Q-2.0 23.95 -2.75 23.3 L-3.35 22.45 M-3.55 29.8 Q-4.95 29.8 -6.4 26.1 -6.4 25.45 -5.95 26.05 L-6.0 25.9 Q-6.0 25.25 -5.4 26.05 L-4.55 27.3 -2.9 29.2 -3.15 29.5 -3.55 29.8 M-7.8 26.25 L-7.55 26.5 -7.65 26.7 Q-7.65 27.35 -6.5 29.55 -6.5 29.85 -6.8 29.85 L-7.1 29.55 -7.4 29.7 Q-7.7 29.7 -8.25 27.35 L-8.15 26.45 Q-8.05 26.3 -7.95 26.45 L-7.8 26.25" fill="#ff0000" fill-rule="evenodd" stroke="none"/>
      <path d="M2.85 21.75 L2.6 21.75 1.95 21.6 0.55 21.55 -2.6 21.7 -3.45 22.8 -3.7 23.15 -3.35 21.8 Q-3.05 20.25 3.3 21.35 3.15 22.0 3.45 23.6 3.7 25.15 4.5 25.6 L6.95 26.1 Q7.95 26.2 8.75 27.2 9.4 28.0 9.4 28.65 9.35 29.3 8.85 29.75 L6.3 30.25 2.9 29.7 Q1.25 29.0 1.25 27.75 L1.6 26.7 Q1.9 26.25 1.05 24.95 0.15 23.6 -0.15 23.5 -0.25 22.95 -1.2 24.1 -2.25 25.3 -2.2 25.9 -2.2 26.45 -1.65 26.95 -1.1 27.45 -1.65 28.45 L-2.7 29.7 -6.7 30.0 Q-10.2 30.0 -10.1 28.8 -10.0 27.55 -8.85 26.8 -7.75 26.05 -5.55 25.4 L-5.45 25.4 -4.35 23.65 -3.9 23.4 -3.85 23.35 -4.2 23.95 Q-4.35 24.2 -4.15 23.9 L-5.05 25.7 Q-5.05 26.05 -5.3 26.05 L-5.6 25.75 -7.65 26.6 Q-9.3 27.15 -9.35 28.3 -9.4 29.4 -6.4 29.4 L-3.05 29.3 -2.25 28.5 Q-1.8 27.8 -2.25 27.3 L-2.7 26.2 Q-2.75 25.6 -1.85 24.35 -1.0 23.1 -0.6 23.05 L-0.45 23.3 -0.15 23.0 Q0.65 23.0 2.15 26.65 L1.8 27.7 Q1.8 28.3 2.7 28.9 3.9 29.7 6.1 29.7 L8.6 29.25 8.8 28.65 8.15 27.6 7.3 26.85 5.15 26.3 Q3.95 26.1 3.6 25.3 L3.0 23.85 Q2.8 23.15 2.85 21.75" fill="#000000" fill-rule="evenodd" stroke="none"/>
    </g>
    <g id="shape1">
      <path d="M7.5 -4.0 L7.95 -2.7 7.7 -2.7 7.55 -2.65 Q7.4 -2.45 7.7 -2.0 L5.55 -2.05 5.55 -1.1 4.55 -2.5 Q4.1 -3.5 4.05 -4.35 L3.25 -3.1 3.15 -2.95 3.1 -2.95 2.75 -3.25 Q2.3 -3.45 2.7 -2.35 L4.45 3.3 3.0 1.5 Q3.05 2.5 2.55 3.2 L2.45 3.2 Q1.7 2.2 1.4 1.1 L0.25 3.45 -0.4 1.95 -2.15 3.9 -2.2 3.8 Q-2.4 2.35 -2.2 1.05 L-3.6 2.2 -4.05 2.55 -4.25 2.7 -4.2 2.6 -4.2 2.55 -3.6 0.15 -3.0 -1.45 Q-2.45 -2.45 -2.65 -2.3 L-2.9 -2.35 Q-3.05 -3.35 -3.35 -3.9 L-3.6 -3.4 -4.2 -2.25 Q-4.8 -1.2 -4.65 -1.75 L-4.75 -1.65 Q-5.55 -0.8 -6.45 -0.45 L-6.05 -1.6 Q-6.8 -1.0 -7.6 -0.7 L-7.65 -0.8 Q-7.85 -1.9 -7.45 -2.75 L-6.7 -3.45 Q-4.95 -5.0 -3.6 -5.55 L-2.25 -5.3 -2.3 -4.5 -1.85 -4.95 -1.85 -4.9 Q-1.65 -3.45 -1.25 -3.45 -1.0 -3.45 -0.55 -4.5 L-0.3 -4.45 -0.05 -4.15 0.6 -3.95 Q1.05 -3.8 1.25 -4.65 1.55 -4.45 2.0 -4.4 L1.7 -5.35 2.1 -5.4 4.35 -5.85 Q5.8 -5.45 7.5 -4.0" fill="#333333" fill-rule="evenodd" stroke="none"/>
      <path d="M-7.45 -2.75 Q-7.85 -1.9 -7.65 -0.8 L-7.6 -0.7 Q-6.8 -1.0 -6.05 -1.6 L-6.45 -0.45 Q-5.55 -0.8 -4.75 -1.65 L-4.65 -1.75 Q-4.8 -1.2 -4.2 -2.25 L-3.6 -3.4 -3.35 -3.9 Q-3.05 -3.35 -2.9 -2.35 L-2.65 -2.3 Q-2.45 -2.45 -3.0 -1.45 L-3.6 0.15 -4.2 2.55 -4.2 2.6 -4.25 2.7 -4.05 2.55 -3.6 2.2 -2.2 1.05 Q-2.4 2.35 -2.2 3.8 L-2.15 3.9 -0.4 1.95 0.25 3.45 1.4 1.1 Q1.7 2.2 2.45 3.2 L2.55 3.2 Q3.05 2.5 3.0 1.5 L4.45 3.3 2.7 -2.35 Q2.3 -3.45 2.75 -3.25 L3.1 -2.95 3.15 -2.95 3.25 -3.1 4.05 -4.35 Q4.1 -3.5 4.55 -2.5 L5.55 -1.1 5.55 -2.05 7.7 -2.0 Q7.4 -2.45 7.55 -2.65 L7.7 -2.7 7.95 -2.7 7.5 -4.0 9.2 -2.5 Q10.7 -1.2 12.15 -0.25 13.6 0.7 11.65 0.4 L9.2 -0.2 10.55 1.95 Q11.65 3.7 10.8 3.0 L8.4 1.0 Q6.9 -0.3 7.95 2.05 L8.15 2.6 7.65 1.7 Q7.55 1.8 7.6 2.25 L7.3 3.8 5.6 0.65 4.4 -0.95 4.35 -1.0 3.95 -1.5 3.55 -2.15 4.3 0.15 5.7 4.15 Q6.3 5.85 5.7 4.65 L4.8 2.9 4.8 3.2 Q5.45 6.05 5.0 5.65 L3.8 3.8 3.3 2.85 3.65 4.75 Q3.9 6.15 3.55 5.75 L2.4 4.2 Q1.6 3.0 1.4 3.1 1.25 3.05 0.95 4.4 L0.35 5.9 Q0.05 6.0 -0.65 2.9 -0.6 2.2 -1.2 3.8 -1.85 5.4 -2.5 5.6 -3.2 5.8 -2.85 2.85 -2.75 2.2 -3.7 3.2 L-5.3 4.75 Q-5.9 5.3 -5.35 4.0 L-4.85 2.55 -4.05 0.0 -3.65 -1.35 -6.5 2.55 -7.0 3.4 Q-7.75 4.65 -7.05 2.85 L-6.95 2.55 Q-6.55 1.3 -7.1 1.8 L-7.7 2.55 -8.15 3.25 Q-8.55 3.85 -8.0 2.75 L-7.95 2.55 -7.7 1.95 -8.6 2.55 -8.8 2.65 -9.75 2.55 -9.6 1.9 -8.9 0.55 -10.85 1.45 -11.75 1.75 Q-11.75 1.25 -10.85 0.25 L-7.45 -2.75 M-4.2 2.6 L-4.25 2.55 -4.25 2.6 -4.2 2.6" fill="#000000" fill-rule="evenodd" stroke="none"/>
    </g>
    <g id="shape2">
      <path d="M-4.7 14.7 L-5.05 15.05 -5.1 15.1 Q-4.35 15.65 -3.3 15.1 L-3.0 15.1 Q-2.25 15.35 -1.95 16.05 -1.75 16.5 -1.4 16.5 L-0.25 16.05 0.9 15.9 Q1.45 16.05 1.85 16.35 L2.55 16.5 3.15 15.8 Q3.85 15.0 5.2 15.3 6.05 15.2 6.5 14.65 L6.7 14.75 Q7.6 15.15 7.65 15.5 L7.0 15.55 6.55 15.75 7.15 16.5 Q7.65 17.0 7.65 17.4 L7.35 17.65 3.8 16.7 3.75 17.3 Q2.95 21.4 2.5 21.4 2.3 21.4 1.2 19.6 L0.0 17.5 -3.35 20.9 -3.55 20.55 -3.3 17.45 -3.3 16.15 -6.25 16.65 -7.5 16.85 -7.9 16.9 -8.25 16.9 -8.3 16.7 Q-8.3 16.2 -7.45 15.9 L-6.2 15.55 -4.7 14.7" fill="#ff9900" fill-rule="evenodd" stroke="none"/>
      <path d="M-4.7 14.7 L-4.55 14.6 -4.25 14.5 -3.35 14.45 -2.55 14.6 -0.25 14.7 2.65 14.65 4.25 14.4 4.8 14.35 5.0 14.35 5.5 14.4 5.55 14.4 6.5 14.65 Q6.05 15.2 5.2 15.3 3.85 15.0 3.15 15.8 L2.55 16.5 1.85 16.35 Q1.45 16.05 0.9 15.9 L-0.25 16.05 -1.4 16.5 Q-1.75 16.5 -1.95 16.05 -2.25 15.35 -3.0 15.1 L-3.3 15.1 Q-4.35 15.65 -5.1 15.1 L-5.05 15.05 -4.7 14.7" fill="#ba7001" fill-rule="evenodd" stroke="none"/>
      <path d="M6.75 15.2 L6.6 15.35 6.8 15.5 7.5 15.4 6.9 14.95 5.25 14.4 5.1 14.3 7.0 14.7 Q7.95 15.05 7.95 15.55 L7.85 15.65 7.05 15.75 Q7.85 16.6 7.8 17.15 7.75 17.75 7.5 17.85 L7.25 17.1 7.1 16.5 6.25 15.35 Q6.25 15.1 6.5 15.1 L6.75 15.2 M0.2 17.55 L1.25 19.45 2.45 20.85 4.0 16.7 Q4.1 19.1 2.9 20.95 L2.5 21.7 0.1 17.75 Q-2.75 21.3 -3.2 21.25 L-3.7 20.85 -3.7 20.8 -1.45 18.95 -0.25 17.7 -0.1 17.3 0.05 17.25 0.1 17.35 0.2 17.55 M-3.3 14.4 L-4.55 14.75 Q-5.15 14.9 -5.6 15.2 L-6.9 15.85 -7.45 16.1 -8.3 16.7 -7.7 16.7 -6.2 16.7 Q-6.45 17.2 -7.2 17.2 -8.75 17.2 -8.75 16.7 -8.75 16.25 -7.85 15.85 L-6.7 15.4 -6.35 15.25 Q-5.5 14.45 -4.2 14.4 L-3.3 14.4" fill="#000000" fill-rule="evenodd" stroke="none"/>
    </g>
  </defs>
</svg>
