<?xml version="1.0" encoding="UTF-8" standalone="no"?>
<svg xmlns:ffdec="https://www.free-decompiler.com/flash" xmlns:xlink="http://www.w3.org/1999/xlink" ffdec:objectType="frame" height="18.4px" width="52.85px" xmlns="http://www.w3.org/2000/svg">
  <g transform="matrix(1.0, 0.0, 0.0, 1.0, 19.15, -13.85)">
    <use ffdec:characterId="24" height="8.05" transform="matrix(1.0, 0.0, 0.0, 1.0, -11.65, 15.15)" width="8.9" xlink:href="#shape0"/>
    <use ffdec:characterId="33" height="8.05" transform="matrix(1.0, 0.0, 0.0, 1.0, 3.35, 15.25)" width="8.9" xlink:href="#sprite0"/>
    <use ffdec:characterId="2" height="17.15" transform="matrix(1.0, 0.0, 0.0, 1.0, 9.9, 14.55)" width="23.85" xlink:href="#sprite1"/>
    <use ffdec:characterId="55" height="18.0" transform="matrix(1.0, 0.0, 0.0, 1.0, 0.0, 0.0)" width="21.35" xlink:href="#shape3"/>
    <use ffdec:characterId="7" height="5.8" transform="matrix(1.0, 0.0, 0.0, 1.0, -2.85, 15.45)" width="5.8" xlink:href="#sprite2"/>
    <use ffdec:characterId="57" height="8.45" transform="matrix(1.0, 0.0, 0.0, 1.0, -10.55, 23.85)" width="10.8" xlink:href="#sprite3"/>
    <use ffdec:characterId="59" height="8.5" transform="matrix(1.0, 0.0, 0.0, 1.0, 0.15, 23.75)" width="10.8" xlink:href="#sprite4"/>
    <use ffdec:characterId="12" height="11.1" transform="matrix(1.0, 0.0, 0.0, 1.0, -19.1, 18.6)" width="14.35" xlink:href="#sprite6"/>
    <use ffdec:characterId="14" height="6.5" transform="matrix(1.0, 0.0, 0.0, 1.0, -17.3, 19.25)" width="7.75" xlink:href="#sprite7"/>
    <use ffdec:characterId="16" height="4.55" transform="matrix(0.8714, 0.2168, -0.2729, 1.097, -10.45, 15.85)" width="4.9" xlink:href="#sprite8"/>
    <use ffdec:characterId="32" height="11.2" transform="matrix(1.0, 0.0, 0.0, 1.0, 5.25, 18.55)" width="14.6" xlink:href="#sprite9"/>
    <use ffdec:characterId="35" height="6.2" transform="matrix(1.0, 0.0, 0.0, 1.0, 10.3, 19.05)" width="6.65" xlink:href="#sprite10"/>
    <use ffdec:characterId="37" height="4.55" transform="matrix(1.0, 0.0, 0.0, 1.0, 6.8, 16.6)" width="4.95" xlink:href="#sprite11"/>
    <use ffdec:characterId="28" height="6.4" transform="matrix(1.0, 0.0, 0.0, 1.0, 23.5, 14.25)" width="7.3" xlink:href="#sprite12"/>
  </g>
  <defs>
    <g id="shape0">
      <path d="M8.0 1.95 Q8.4 2.3 8.6 2.9 L8.7 3.7 8.5 4.4 6.9 7.0 Q6.35 7.8 5.25 8.05 L4.15 8.0 3.65 7.85 8.0 1.95" fill="#000000" fill-rule="evenodd" stroke="none"/>
      <path d="M3.65 7.85 L3.05 7.55 1.2 6.45 Q0.15 5.7 -0.05 4.65 -0.2 4.1 0.0 3.6 0.15 3.15 0.65 2.75 L3.0 0.6 Q3.55 0.1 4.5 0.1 L5.4 0.2 6.25 0.65 7.6 1.6 8.0 1.95 3.65 7.85" fill="#1e1a15" fill-rule="evenodd" stroke="none"/>
      <path d="M8.0 1.95 Q8.4 2.3 8.6 2.9 L8.7 3.7 8.5 4.4 6.9 7.0 Q6.35 7.8 5.25 8.05 L4.15 8.0 3.65 7.85 3.05 7.55 1.2 6.45 Q0.15 5.7 -0.05 4.65 -0.2 4.1 0.0 3.6 0.15 3.15 0.65 2.75 L3.0 0.6 Q3.55 0.1 4.5 0.1 L5.4 0.2 6.25 0.65 7.6 1.6 8.0 1.95 Z" ffdec:has-small-stroke="true" ffdec:original-stroke-width="0.1" fill="none" stroke="#000000" stroke-linecap="round" stroke-linejoin="round" stroke-width="1.0"/>
    </g>
    <g id="sprite0">
      <use ffdec:characterId="18" height="8.05" transform="matrix(1.0, 0.0, 0.0, 1.0, -5.0, -17.9)" width="8.9" xlink:href="#shape1"/>
    </g>
    <g id="shape1">
      <path d="M5.7 19.75 L6.1 19.4 7.45 18.45 8.3 18.0 9.2 17.9 Q10.15 17.9 10.7 18.4 L13.05 20.55 13.7 21.4 Q13.9 21.9 13.75 22.45 13.55 23.5 12.5 24.25 L10.65 25.35 10.05 25.65 5.7 19.75" fill="#fff3da" fill-rule="evenodd" stroke="none"/>
      <path d="M5.7 19.75 L10.05 25.65 9.55 25.8 8.45 25.85 Q7.35 25.6 6.8 24.8 L5.2 22.2 5.0 21.5 5.1 20.7 5.7 19.75" fill="#ebd09a" fill-rule="evenodd" stroke="none"/>
      <path d="M10.05 25.65 L10.65 25.35 12.5 24.25 Q13.55 23.5 13.75 22.45 13.9 21.9 13.7 21.4 L13.05 20.55 10.7 18.4 Q10.15 17.9 9.2 17.9 L8.3 18.0 7.45 18.45 6.1 19.4 5.7 19.75 5.1 20.7 5.0 21.5 5.2 22.2 6.8 24.8 Q7.35 25.6 8.45 25.85 L9.55 25.8 10.05 25.65 Z" ffdec:has-small-stroke="true" ffdec:original-stroke-width="0.1" fill="none" stroke="#5b3c00" stroke-linecap="round" stroke-linejoin="round" stroke-width="1.0"/>
    </g>
    <g id="sprite1">
      <use ffdec:characterId="1" height="17.15" transform="matrix(1.0, 0.0, 0.0, 1.0, 0.0, 0.0)" width="23.85" xlink:href="#shape2"/>
    </g>
    <g id="shape2">
      <path d="M16.15 6.4 L16.05 6.4 Q14.95 6.1 14.1 5.4 12.8 4.35 12.8 2.9 12.8 2.0 13.3 1.3 14.55 -0.75 17.85 -0.65 20.2 -0.5 21.85 1.6 L22.75 2.95 Q23.75 4.8 23.75 7.2 23.75 10.45 21.85 12.8 L20.95 13.75 20.9 13.8 20.8 13.9 19.25 14.95 18.3 15.35 17.75 15.55 18.3 15.15 19.25 14.25 20.55 12.15 Q21.35 9.65 19.65 8.15 L19.0 7.75 18.3 7.6 Q16.95 7.45 16.4 8.35 L16.35 8.4 16.3 8.45 16.35 8.3 16.45 7.9 16.5 7.6 16.5 7.5 16.5 7.3 16.5 7.15 16.45 6.9 16.4 6.8 16.35 6.6 16.3 6.55 16.25 6.4 16.15 6.4 M19.5 2.45 Q19.5 1.7 18.75 1.2 18.05 0.7 16.95 0.7 15.9 0.7 15.15 1.2 14.45 1.7 14.45 2.45 14.45 3.2 15.15 3.7 15.9 4.2 16.95 4.2 L18.3 3.95 18.75 3.7 19.4 2.95 19.5 2.45 M16.35 6.6 Q16.75 7.55 16.4 8.35 16.75 7.55 16.35 6.6" fill="#31291a" fill-rule="evenodd" stroke="none"/>
      <path d="M3.95 14.3 L3.8 14.2 3.6 14.05 2.6 13.25 Q0.9 11.75 0.0 9.65 2.0 8.15 1.55 6.55 L1.6 6.35 1.65 6.4 2.1 6.65 2.7 7.05 3.8 8.05 4.6 8.85 4.7 8.95 5.5 9.65 5.55 9.7 6.25 10.15 7.5 10.65 8.3 10.85 8.05 11.25 6.05 10.45 5.55 10.1 5.5 10.1 5.4 10.05 4.6 9.3 2.95 7.8 2.9 7.7 2.85 7.65 2.85 7.55 2.65 7.5 2.6 7.5 2.45 7.45 2.3 7.3 2.35 7.55 Q2.95 9.7 4.5 11.05 L4.55 11.15 5.0 11.55 6.95 12.65 Q5.65 13.9 3.95 14.3" fill="#ebd9af" fill-rule="evenodd" stroke="none"/>
      <path d="M17.75 15.55 L17.6 15.6 14.35 16.3 14.0 16.3 13.8 16.3 12.65 16.4 12.4 16.4 12.1 16.4 10.15 16.35 9.2 16.25 7.5 15.85 4.6 14.7 3.95 14.3 Q5.65 13.9 6.95 12.65 L8.3 13.1 8.9 13.25 9.6 13.4 12.25 13.5 12.4 13.5 13.1 13.45 13.25 13.45 13.3 13.45 13.4 13.45 13.7 13.45 Q16.7 13.1 18.3 11.9 20.25 9.85 18.3 8.95 17.05 8.85 16.25 9.4 L15.2 10.1 14.85 10.3 13.15 11.0 13.1 11.0 12.95 11.05 8.3 11.35 8.05 11.3 8.05 11.25 8.3 10.85 10.1 11.0 10.15 11.0 10.25 11.0 Q12.95 11.0 14.85 9.8 L14.9 9.75 15.2 9.55 16.1 8.8 16.15 8.75 16.2 8.65 16.25 8.55 16.3 8.45 16.35 8.4 16.4 8.35 Q16.95 7.45 18.3 7.6 L19.0 7.75 19.65 8.15 Q21.35 9.65 20.55 12.15 L19.25 14.25 18.3 15.15 17.75 15.55" fill="#ee9c0f" fill-rule="evenodd" stroke="none"/>
      <path d="M8.05 11.3 L8.3 11.35 12.95 11.05 13.1 11.0 13.15 11.0 14.85 10.3 15.2 10.1 16.25 9.4 Q17.05 8.85 18.3 8.95 20.25 9.85 18.3 11.9 16.7 13.1 13.7 13.45 L13.4 13.45 13.3 13.45 13.25 13.45 13.1 13.45 12.4 13.5 12.25 13.5 9.6 13.4 8.9 13.25 8.3 13.1 6.95 12.65 7.95 11.35 8.05 11.3" fill="#ffc25c" fill-rule="evenodd" stroke="none"/>
      <path d="M6.95 12.65 L5.0 11.55 4.55 11.15 4.5 11.05 Q2.95 9.7 2.35 7.55 L2.3 7.3 2.45 7.45 2.6 7.5 2.65 7.5 2.85 7.55 2.85 7.65 2.9 7.7 2.95 7.8 4.6 9.3 5.4 10.05 5.5 10.1 5.55 10.1 6.05 10.45 8.05 11.25 8.05 11.3 7.95 11.35 6.95 12.65" fill="#fff4dc" fill-rule="evenodd" stroke="none"/>
      <path d="M19.5 2.45 L19.4 2.95 18.75 3.7 18.3 3.95 16.95 4.2 Q15.9 4.2 15.15 3.7 14.45 3.2 14.45 2.45 14.45 1.7 15.15 1.2 15.9 0.7 16.95 0.7 18.05 0.7 18.75 1.2 19.5 1.7 19.5 2.45" fill="#463b25" fill-rule="evenodd" stroke="none"/>
      <path d="M16.15 6.4 L16.25 6.4 16.3 6.55" ffdec:has-small-stroke="true" ffdec:original-stroke-width="0.1" fill="none" stroke="#5e578f" stroke-linecap="round" stroke-linejoin="round" stroke-width="1.0"/>
      <path d="M16.3 6.55 L16.15 6.4" ffdec:has-small-stroke="true" ffdec:original-stroke-width="0.1" fill="none" stroke="#000000" stroke-linecap="round" stroke-linejoin="round" stroke-width="1.0"/>
      <path d="M17.75 15.55 L17.6 15.6 14.35 16.3 14.0 16.3 13.8 16.3 12.65 16.4 12.4 16.4 12.1 16.4 10.15 16.35 9.2 16.25 7.5 15.85 4.6 14.7 3.95 14.3 3.8 14.2 3.6 14.05 2.6 13.25 Q0.9 11.75 0.0 9.65 M1.6 6.35 L1.65 6.4 2.1 6.65 2.7 7.05 3.8 8.05 4.6 8.85 4.7 8.95 5.5 9.65 5.55 9.7 6.25 10.15 7.5 10.65 8.3 10.85 10.1 11.0 10.15 11.0 10.25 11.0 Q12.95 11.0 14.85 9.8 L16.25 8.55 M16.3 8.45 L16.35 8.4 16.4 8.35" ffdec:has-small-stroke="true" ffdec:original-stroke-width="0.1" fill="none" stroke="#6c4a2b" stroke-linecap="round" stroke-linejoin="round" stroke-width="1.0"/>
      <path d="M16.15 6.4 L16.05 6.4 Q14.95 6.1 14.1 5.4 12.8 4.35 12.8 2.9 12.8 2.0 13.3 1.3 14.55 -0.75 17.85 -0.65 20.2 -0.5 21.85 1.6 L22.75 2.95 Q23.75 4.8 23.75 7.2 23.75 10.45 21.85 12.8 L20.95 13.75 20.9 13.8 20.8 13.9 19.25 14.95 18.3 15.35 17.75 15.55 M16.4 8.35 Q16.75 7.55 16.35 6.6" ffdec:has-small-stroke="true" ffdec:original-stroke-width="0.1" fill="none" stroke="#120c07" stroke-linecap="round" stroke-linejoin="round" stroke-width="1.0"/>
    </g>
    <g id="shape3">
      <path d="M4.6 17.15 L4.55 16.05 4.4 15.95 4.8 15.95 4.8 17.05 4.8 17.0 4.8 17.15 4.6 17.15 M4.95 20.95 Q5.8 22.15 5.9 24.9 3.9 24.5 4.0 23.2 L4.5 22.15 4.8 21.1 Q4.9 20.75 4.95 20.95" fill="#f7da98" fill-rule="evenodd" stroke="none"/>
      <path d="M4.4 15.95 L4.55 16.05 4.6 17.15 1.9 17.15 Q1.65 23.3 3.95 23.2 L3.8 23.35 3.1 23.95 2.45 24.35 2.35 24.4 0.2 24.8 0.15 24.8 Q-1.8 24.8 -3.15 23.95 -4.25 23.05 -4.25 21.8 L-4.3 21.8 -4.3 17.15 -4.25 17.15 -4.15 16.05 -3.95 15.95 4.4 15.95" fill="#ffe0ac" fill-rule="evenodd" stroke="none"/>
      <path d="M4.8 17.15 L4.8 17.0 4.8 17.05 4.8 17.15 4.8 17.05 Q5.85 18.95 5.0 20.85 L4.95 20.95 Q4.9 20.75 4.8 21.1 L4.8 17.15" fill="#ffe6ae" fill-rule="evenodd" stroke="none"/>
      <path d="M4.6 17.15 L4.8 17.15 4.8 21.1 4.5 22.15 4.0 23.2 3.95 23.2 Q1.65 23.3 1.9 17.15 L4.6 17.15" fill="#ffffff" fill-rule="evenodd" stroke="none"/>
      <path d="M-3.95 15.95 L-4.15 16.05 -4.25 17.15 -4.3 17.15 -4.3 21.8 -4.25 21.8 Q-4.25 23.05 -3.15 23.95 -1.8 24.8 0.15 24.8 L0.2 24.8 2.35 24.4 2.45 24.35 3.1 23.95 3.8 23.35 3.95 23.2 4.0 23.2 Q3.9 24.5 5.9 24.9 L5.9 25.1 5.95 25.4 7.55 26.65 8.45 27.65 Q9.85 27.35 10.45 28.2 L10.6 28.35 10.7 28.6 Q11.05 30.45 9.4 30.7 L9.0 30.7 Q8.9 31.95 7.6 32.15 L7.3 32.15 7.1 32.15 5.7 32.15 4.75 31.75 2.65 30.45 0.85 30.45 0.3 30.15 0.1 29.8 -0.05 30.15 -0.4 30.35 -0.65 30.45 -2.4 30.45 -4.5 31.75 -5.5 32.15 -6.85 32.15 -7.1 32.15 -7.4 32.15 Q-8.7 31.95 -8.75 30.7 L-9.15 30.7 Q-10.8 30.45 -10.45 28.6 L-10.35 28.35 -10.25 28.2 Q-9.6 27.35 -8.25 27.65 L-6.4 25.85 -5.75 25.45 -5.7 25.4 -5.7 25.35 Q-5.6 22.55 -4.6 21.2 -5.3 19.25 -4.65 17.15 L-4.6 17.15 -4.6 15.95 -3.95 15.95 M9.0 30.7 L8.9 30.0 8.8 29.8 8.7 29.6 Q8.3 29.05 7.55 29.05 L6.7 29.1 7.55 29.05 Q8.3 29.05 8.7 29.6 L8.8 29.8 8.9 30.0 9.0 30.7 M0.1 28.2 L0.3 27.55 0.55 26.45 0.55 26.25 0.55 25.2 0.2 25.25 0.1 25.25 -0.15 25.25 -0.2 25.25 -0.35 25.2 -0.35 25.3 -0.35 26.25 -0.05 27.55 0.1 28.2 Q0.35 29.15 0.1 29.8 0.35 29.15 0.1 28.2 M1.65 25.0 L0.55 25.2 1.65 25.0 M-0.35 25.2 L-1.4 25.05 -0.35 25.2 M-8.75 30.7 L-8.7 30.0 -8.6 29.8 -8.45 29.6 Q-7.85 28.75 -6.45 29.1 -7.85 28.75 -8.45 29.6 L-8.6 29.8 -8.7 30.0 -8.75 30.7" fill="#ee9c0f" fill-rule="evenodd" stroke="none"/>
      <path d="M4.8 17.15 L4.8 17.0 4.8 17.05 4.8 15.95 M4.8 17.15 L4.8 17.05 Q5.85 18.95 5.0 20.85 L4.95 20.95 Q5.8 22.15 5.9 24.9 L5.9 25.1" ffdec:has-small-stroke="true" ffdec:original-stroke-width="0.1" fill="none" stroke="#b88353" stroke-linecap="round" stroke-linejoin="round" stroke-width="1.0"/>
      <path d="M5.9 25.1 L5.95 25.4 7.55 26.65 8.45 27.65 Q9.85 27.35 10.45 28.2 L10.6 28.35 10.7 28.6 Q11.05 30.45 9.4 30.7 L9.0 30.7 Q8.9 31.95 7.6 32.15 L7.3 32.15 7.1 32.15 5.7 32.15 4.75 31.75 2.65 30.45 0.85 30.45 0.3 30.15 0.1 29.8 -0.05 30.15 -0.4 30.35 -0.65 30.45 -2.4 30.45 -4.5 31.75 -5.5 32.15 -6.85 32.15 -7.1 32.15 -7.4 32.15 Q-8.7 31.95 -8.75 30.7 L-9.15 30.7 Q-10.8 30.45 -10.45 28.6 L-10.35 28.35 -10.25 28.2 Q-9.6 27.35 -8.25 27.65 L-6.4 25.85 -5.75 25.45 -5.7 25.4 -5.7 25.35 M6.7 29.1 L7.55 29.05 Q8.3 29.05 8.7 29.6 L8.8 29.8 8.9 30.0 9.0 30.7 M0.55 25.2 L0.55 26.25 0.55 26.45 0.3 27.55 0.1 28.2 Q0.35 29.15 0.1 29.8 M-0.2 25.25 L-0.15 25.25 0.1 25.25 0.2 25.25 0.55 25.2 1.65 25.0 M0.1 28.2 L-0.05 27.55 -0.35 26.25 -0.35 25.3 M-6.45 29.1 Q-7.85 28.75 -8.45 29.6 L-8.6 29.8 -8.7 30.0 -8.75 30.7" ffdec:has-small-stroke="true" ffdec:original-stroke-width="0.1" fill="none" stroke="#383a79" stroke-linecap="round" stroke-linejoin="round" stroke-width="1.0"/>
      <path d="M-5.75 25.45 L-5.7 25.35 Q-5.6 22.55 -4.6 21.2 -5.3 19.25 -4.65 17.15 L-4.6 17.15 -4.6 15.95 M-1.4 25.05 L-0.35 25.2 -0.2 25.25" ffdec:has-small-stroke="true" ffdec:original-stroke-width="0.1" fill="none" stroke="#6c4a2b" stroke-linecap="round" stroke-linejoin="round" stroke-width="1.0"/>
      <path d="M6.05 14.6 Q6.05 15.95 4.25 16.9 2.5 17.85 0.0 17.85 -2.5 17.85 -4.3 16.9 -6.05 15.95 -6.05 14.6 L-6.0 14.25 0.0 14.7 6.05 14.25 6.05 14.6" fill="#ff0000" fill-rule="evenodd" stroke="none"/>
      <path d="M6.05 14.6 Q6.05 15.95 4.25 16.9 2.5 17.85 0.0 17.85 -2.5 17.85 -4.3 16.9 -6.05 15.95 -6.05 14.6 L-6.0 14.25 0.0 14.7 6.05 14.25 6.05 14.6 Z" ffdec:has-small-stroke="true" ffdec:original-stroke-width="0.1" fill="none" stroke="#5e0000" stroke-linecap="round" stroke-linejoin="round" stroke-width="1.0"/>
    </g>
    <g id="sprite2">
      <use ffdec:characterId="6" height="5.8" transform="matrix(1.0, 0.0, 0.0, 1.0, 0.0, 0.0)" width="5.8" xlink:href="#shape4"/>
    </g>
    <g id="shape4">
      <path d="M5.7 2.85 Q5.7 4.05 4.9 4.9 4.05 5.7 2.85 5.7 1.65 5.7 0.85 4.9 0.0 4.05 0.0 2.85 0.0 2.15 0.3 1.55 0.5 1.15 0.85 0.85 1.65 0.0 2.85 0.0 L3.7 0.1 Q4.35 0.3 4.9 0.85 5.7 1.65 5.7 2.85" fill="#ffda26" fill-rule="evenodd" stroke="none"/>
      <path d="M4.95 4.15 Q4.95 4.7 4.4 5.1 3.8 5.45 2.8 5.45 L1.3 5.1 Q0.65 4.7 0.65 4.15 0.65 3.55 1.3 3.15 1.9 2.75 2.8 2.75 3.8 2.75 4.4 3.15 4.95 3.55 4.95 4.15" fill="#fff9a5" fill-rule="evenodd" stroke="none"/>
      <path d="M4.45 3.45 L4.0 3.9 2.85 4.1 1.75 3.9 1.25 3.45 1.75 3.0 2.85 2.8 4.0 3.0 4.45 3.45" fill="#695700" fill-rule="evenodd" stroke="none"/>
      <path d="M2.65 3.75 L3.05 3.75 3.05 5.7 2.65 5.7 2.65 3.75" fill="#695700" fill-rule="evenodd" stroke="none"/>
      <path d="M4.7 1.35 L4.2 2.2 2.8 2.55 Q2.0 2.55 1.45 2.2 0.9 1.85 0.9 1.35 0.9 0.8 1.45 0.45 2.0 0.1 2.8 0.1 3.65 0.1 4.2 0.45 4.7 0.8 4.7 1.35" fill="#ffffff" fill-rule="evenodd" stroke="none"/>
      <path d="M5.7 2.85 Q5.7 4.05 4.9 4.9 4.05 5.7 2.85 5.7 1.65 5.7 0.85 4.9 0.0 4.05 0.0 2.85 0.0 1.65 0.85 0.85 1.65 0.0 2.85 0.0 4.05 0.0 4.9 0.85 5.7 1.65 5.7 2.85 Z" ffdec:has-small-stroke="true" ffdec:original-stroke-width="0.1" fill="none" stroke="#655400" stroke-linecap="round" stroke-linejoin="round" stroke-width="1.0"/>
    </g>
    <g id="sprite3">
      <use ffdec:characterId="56" height="8.45" transform="matrix(1.0, 0.0, 0.0, 1.0, 0.0, 0.0)" width="10.8" xlink:href="#shape5"/>
    </g>
    <g id="shape5">
      <path d="M1.75 6.85 L1.35 6.85 Q-0.3 6.6 0.05 4.75 L0.15 4.5 0.25 4.35 Q0.9 3.5 2.25 3.8 L4.1 2.0 4.35 1.85 4.4 1.8 4.55 1.75 4.55 1.7 4.75 1.6 4.8 1.55 4.85 1.45 5.05 0.0 10.15 1.55 10.15 2.4 10.45 3.7 10.6 4.35 10.65 4.55 10.7 4.85 10.7 5.6 10.65 5.8 10.6 5.95 10.45 6.3 10.1 6.5 9.95 6.6 9.85 6.6 8.1 6.6 6.0 7.9 5.0 8.3 4.4 8.35 3.65 8.3 3.4 8.3 3.1 8.3 Q1.8 8.1 1.75 6.85 L1.8 6.15 1.9 5.95 2.05 5.75 Q2.65 4.9 4.05 5.45 2.65 4.9 2.05 5.75 L1.9 5.95 1.8 6.15 1.75 6.85 M7.55 4.3 Q7.55 3.55 7.05 2.95 6.45 2.25 5.65 2.0 4.8 1.8 4.3 2.2 3.7 2.45 3.7 3.2 3.7 3.95 4.3 4.7 4.8 5.3 5.65 5.5 L7.05 5.45 Q7.55 5.05 7.55 4.3 M4.05 5.45 L3.65 5.4 Q3.1 5.4 2.7 5.65 2.3 5.85 2.3 6.25 L2.7 6.85 3.65 7.1 4.55 6.85 5.0 6.25 4.55 5.65 4.05 5.45 M2.55 4.6 Q2.55 4.3 2.2 4.1 L1.45 3.9 0.65 4.1 Q0.35 4.3 0.35 4.6 0.35 4.9 0.65 5.1 L1.45 5.3 2.2 5.1 2.55 4.6" fill="#ee9c0f" fill-rule="evenodd" stroke="none"/>
      <path d="M4.05 5.45 L4.55 5.65 5.0 6.25 4.55 6.85 3.65 7.1 2.7 6.85 2.3 6.25 Q2.3 5.85 2.7 5.65 3.1 5.4 3.65 5.4 L4.05 5.45 M7.55 4.3 Q7.55 5.05 7.05 5.45 L5.65 5.5 Q4.8 5.3 4.3 4.7 3.7 3.95 3.7 3.2 3.7 2.45 4.3 2.2 4.8 1.8 5.65 2.0 6.45 2.25 7.05 2.95 7.55 3.55 7.55 4.3 M2.55 4.6 L2.2 5.1 1.45 5.3 0.65 5.1 Q0.35 4.9 0.35 4.6 0.35 4.3 0.65 4.1 L1.45 3.9 2.2 4.1 Q2.55 4.3 2.55 4.6" fill="#ffc25c" fill-rule="evenodd" stroke="none"/>
      <path d="M5.05 0.0 L4.85 1.45 4.8 1.55 4.75 1.6 4.55 1.7 4.55 1.75 4.4 1.8 4.35 1.85 4.1 2.0 2.25 3.8 Q0.9 3.5 0.25 4.35 L0.15 4.5 0.05 4.75 Q-0.3 6.6 1.35 6.85 L1.75 6.85 1.8 6.15 1.9 5.95 2.05 5.75 Q2.65 4.9 4.05 5.45 M1.75 6.85 Q1.8 8.1 3.1 8.3 L3.4 8.3 3.65 8.3 4.4 8.35 5.0 8.3 6.0 7.9 8.1 6.6 9.85 6.6 9.95 6.6 10.1 6.5 10.45 6.3 10.6 5.95 10.65 5.8 10.7 5.6 10.7 4.85 10.65 4.55 10.6 4.35 10.45 3.7 10.15 2.4 10.15 1.55" ffdec:has-small-stroke="true" ffdec:original-stroke-width="0.1" fill="none" stroke="#6c4a2b" stroke-linecap="round" stroke-linejoin="round" stroke-width="1.0"/>
    </g>
    <g id="sprite4">
      <use ffdec:characterId="58" height="8.5" transform="matrix(1.0, 0.0, 0.0, 1.0, 0.0, 0.0)" width="10.8" xlink:href="#shape6"/>
      <use ffdec:characterId="50" height="5.0" transform="matrix(-1.0, 0.0, 0.0, 1.0, 10.15, 2.05)" width="7.1" xlink:href="#sprite5"/>
    </g>
    <g id="shape6">
      <path d="M6.1 1.8 L7.35 2.8 7.45 2.9 7.75 3.2 8.35 3.9 9.15 3.85 Q9.95 3.85 10.35 4.45 L10.5 4.6 10.6 4.85 Q10.95 6.6 9.45 6.95 L9.3 6.95 9.15 6.95 8.9 6.95 Q8.8 8.2 7.5 8.4 L7.35 8.4 7.2 8.4 7.0 8.4 5.75 8.4 5.6 8.4 4.85 8.15 4.65 8.0 2.65 6.75 2.55 6.7 1.1 6.7 Q1.1 3.4 3.1 2.65 L6.1 1.8 M6.6 5.35 L7.35 5.3 7.45 5.3 Q8.2 5.3 8.6 5.85 L8.7 6.05 8.8 6.25 8.9 6.95 8.8 6.25 8.7 6.05 8.6 5.85 Q8.2 5.3 7.45 5.3 L7.35 5.3 6.6 5.35" fill="#31291a" fill-rule="evenodd" stroke="none"/>
      <path d="M6.1 1.8 L3.1 2.65 Q1.1 3.4 1.1 6.7 0.25 6.85 0.05 6.15 L0.0 6.1 0.0 6.05 0.05 5.9 0.1 5.7 0.1 4.95 0.05 4.65 0.0 4.45 0.45 2.5 0.45 1.45 0.55 1.45 1.3 1.4 3.55 0.65 3.85 0.55 4.15 0.45 Q4.7 1.3 5.8 1.35 L5.85 1.65 6.1 1.8" fill="#ee9c0f" fill-rule="evenodd" stroke="none"/>
      <path d="M5.55 0.0 L5.8 1.35 Q4.7 1.3 4.15 0.45 L5.55 0.0" fill="#f7da98" fill-rule="evenodd" stroke="none"/>
      <path d="M8.9 6.95 L9.15 6.95 9.3 6.95 9.45 6.95 Q10.95 6.6 10.6 4.85 L10.5 4.6 10.35 4.45 Q9.95 3.85 9.15 3.85 L8.35 3.9 7.75 3.2 7.45 2.9 7.35 2.8 6.1 1.8 M1.1 6.7 L2.55 6.7 2.65 6.75 4.65 8.0 4.85 8.15 5.6 8.4 5.75 8.4 7.0 8.4 7.2 8.4 7.35 8.4 7.5 8.4 Q8.8 8.2 8.9 6.95 L8.8 6.25 8.7 6.05 8.6 5.85 Q8.2 5.3 7.45 5.3 L7.35 5.3 6.6 5.35 M0.45 2.5 L0.0 4.45 M0.0 6.1 L0.05 6.15 Q0.25 6.85 1.1 6.7 M0.0 6.1 L-0.05 6.05 0.05 6.15" ffdec:has-small-stroke="true" ffdec:original-stroke-width="0.1" fill="none" stroke="#000000" stroke-linecap="round" stroke-linejoin="round" stroke-width="1.0"/>
      <path d="M5.8 1.35 L5.55 0.0 M5.8 1.35 L5.85 1.65 6.1 1.8" ffdec:has-small-stroke="true" ffdec:original-stroke-width="0.1" fill="none" stroke="#b88353" stroke-linecap="round" stroke-linejoin="round" stroke-width="1.0"/>
      <path d="M0.45 1.45 L0.45 2.5" ffdec:has-small-stroke="true" ffdec:original-stroke-width="0.1" fill="none" stroke="#6c4a2b" stroke-linecap="round" stroke-linejoin="round" stroke-width="1.0"/>
    </g>
    <g id="sprite5">
      <use ffdec:characterId="49" height="5.0" transform="matrix(1.0, 0.0, 0.0, 1.0, 0.0, 0.0)" width="7.1" xlink:href="#shape7"/>
    </g>
    <g id="shape7">
      <path d="M4.65 4.3 L4.2 4.9 3.3 5.15 2.35 4.9 1.95 4.3 2.35 3.7 3.3 3.45 4.2 3.7 4.65 4.3" fill="#524225" fill-rule="evenodd" stroke="none"/>
      <path d="M2.2 2.65 L1.85 3.15 1.1 3.35 0.3 3.15 Q0.0 2.95 0.0 2.65 0.0 2.35 0.3 2.15 L1.1 1.95 1.85 2.15 Q2.2 2.35 2.2 2.65" fill="#524225" fill-rule="evenodd" stroke="none"/>
      <path d="M7.1 2.5 Q7.1 3.25 6.6 3.65 L5.2 3.7 Q4.35 3.5 3.85 2.9 3.25 2.15 3.25 1.4 3.25 0.65 3.85 0.4 L5.2 0.2 6.6 1.15 Q7.1 1.75 7.1 2.5" fill="#524225" fill-rule="evenodd" stroke="none"/>
    </g>
    <g id="sprite6">
      <use ffdec:characterId="11" height="11.1" transform="matrix(1.0, 0.0, 0.0, 1.0, 0.0, 0.0)" width="14.35" xlink:href="#shape8"/>
    </g>
    <g id="shape8">
      <path d="M12.35 3.75 Q13.35 3.9 13.85 4.65 14.6 5.6 14.0 6.7 13.45 7.7 12.25 7.95 11.05 8.1 10.15 7.45 9.25 9.55 7.25 10.5 L5.9 10.95 3.2 10.6 Q1.9 10.1 1.0 9.0 L0.25 7.75 Q-0.1 7.0 0.0 5.9 L0.3 4.4 Q0.5 3.75 1.15 2.85 2.1 1.35 3.45 0.65 4.9 -0.2 6.45 0.05 L6.6 0.05 Q7.45 0.25 7.8 0.6 L11.95 3.75 12.35 3.75" fill="#31291a" fill-rule="evenodd" stroke="none"/>
      <path d="M12.35 3.75 Q13.35 3.9 13.85 4.65 14.6 5.6 14.0 6.7 13.45 7.7 12.25 7.95 11.05 8.1 10.15 7.45 9.25 9.55 7.25 10.5 L5.9 10.95 3.2 10.6 Q1.9 10.1 1.0 9.0 L0.25 7.75 Q-0.1 7.0 0.0 5.9 L0.3 4.4 Q0.5 3.75 1.15 2.85 2.1 1.35 3.45 0.65 4.9 -0.2 6.45 0.05 L6.6 0.05 Q7.45 0.25 7.8 0.6 L11.95 3.75 12.35 3.75 Z" ffdec:has-small-stroke="true" ffdec:original-stroke-width="0.1" fill="none" stroke="#211a13" stroke-linecap="round" stroke-linejoin="round" stroke-width="1.0"/>
    </g>
    <g id="sprite7">
      <use ffdec:characterId="13" height="6.5" transform="matrix(1.0, 0.0, 0.0, 1.0, 0.0, 0.0)" width="7.75" xlink:href="#shape9"/>
    </g>
    <g id="shape9">
      <path d="M7.75 4.35 Q7.75 5.6 6.75 6.2 L4.35 6.3 Q2.95 5.8 1.5 4.85 0.0 3.85 0.0 2.6 0.0 1.35 1.5 0.55 2.95 -0.3 4.35 0.2 5.75 0.65 6.75 1.9 7.75 3.1 7.75 4.35" fill="#534730" fill-rule="evenodd" stroke="none"/>
    </g>
    <g id="sprite8">
      <use ffdec:characterId="15" height="4.55" transform="matrix(1.0, 0.0, 0.0, 1.0, 0.0, 0.0)" width="4.9" xlink:href="#shape10"/>
    </g>
    <g id="shape10">
      <path d="M4.85 2.25 Q4.55 3.2 3.65 3.9 2.7 4.5 1.8 4.55 0.8 4.5 0.35 3.9 L0.1 3.5 Q-0.1 2.9 0.15 2.25 0.4 1.3 1.3 0.65 2.2 0.0 3.2 0.0 4.1 0.0 4.6 0.65 L4.85 1.05 4.85 2.25" fill="#31291a" fill-rule="evenodd" stroke="none"/>
    </g>
    <g id="sprite9">
      <use ffdec:characterId="31" height="11.2" transform="matrix(1.0, 0.0, 0.0, 1.0, 0.0, 0.0)" width="14.6" xlink:href="#shape11"/>
    </g>
    <g id="shape11">
      <path d="M13.3 9.0 Q10.55 10.7 7.65 9.0 L6.45 7.8 4.7 5.2 3.85 5.95 2.8 6.2 Q2.3 6.1 2.0 5.65 1.7 5.25 1.7 4.75 1.8 4.25 2.15 4.0 L2.4 3.85 2.4 3.75 2.45 3.7 6.15 0.9 Q8.75 -0.9 11.3 1.0 12.35 1.7 13.1 2.9 L13.55 3.6 Q14.95 5.7 14.3 7.45 L13.3 9.0" fill="#fff3da" fill-rule="evenodd" stroke="none"/>
      <path d="M2.4 3.75 L2.4 3.85 2.15 4.0 Q1.8 4.25 1.7 4.75 1.7 5.25 2.0 5.65 2.3 6.1 2.8 6.2 L3.85 5.95 4.7 5.2 6.45 7.8 7.65 9.0 Q10.55 10.7 13.3 9.0 12.55 9.75 11.3 10.5 L9.25 11.1 Q7.4 11.15 5.75 9.75 L5.0 9.0 4.25 7.8 4.1 7.5 3.95 7.6 3.55 7.8 3.25 7.95 2.0 8.0 Q0.8 7.75 0.25 6.75 -0.05 6.25 0.0 5.75 0.0 4.9 0.7 4.35 1.25 3.9 2.0 3.8 L2.4 3.75" fill="#ebd09a" fill-rule="evenodd" stroke="none"/>
      <path d="M13.3 9.0 L14.3 7.45 Q14.95 5.7 13.55 3.6 L13.1 2.9 Q12.35 1.7 11.3 1.0 8.75 -0.9 6.15 0.9 M2.4 3.75 L2.0 3.8 Q1.25 3.9 0.7 4.35 0.0 4.9 0.0 5.75 -0.05 6.25 0.25 6.75 0.8 7.75 2.0 8.0 L3.25 7.95 3.55 7.8 3.95 7.6 4.1 7.5 4.25 7.8 5.0 9.0 5.75 9.75 Q7.4 11.15 9.25 11.1 L11.3 10.5 Q12.55 9.75 13.3 9.0" ffdec:has-small-stroke="true" ffdec:original-stroke-width="0.1" fill="none" stroke="#6c4a2b" stroke-linecap="round" stroke-linejoin="round" stroke-width="1.0"/>
      <path d="M2.45 3.7 L2.4 3.75" ffdec:has-small-stroke="true" ffdec:original-stroke-width="0.1" fill="none" stroke="#c68b57" stroke-linecap="round" stroke-linejoin="round" stroke-width="1.0"/>
      <path d="M6.15 0.9 L2.45 3.7" ffdec:has-small-stroke="true" ffdec:original-stroke-width="0.1" fill="none" stroke="#d9aa80" stroke-linecap="round" stroke-linejoin="round" stroke-width="1.0"/>
    </g>
    <g id="sprite10">
      <use ffdec:characterId="34" height="6.2" transform="matrix(1.0, 0.0, 0.0, 1.0, 0.0, 0.0)" width="6.65" xlink:href="#shape12"/>
    </g>
    <g id="shape12">
      <path d="M0.0 3.65 Q0.0 4.9 0.85 5.65 1.35 6.05 1.9 6.15 L2.9 6.15 Q4.1 5.85 5.35 5.1 6.65 4.35 6.65 3.1 6.65 1.85 5.35 0.8 4.1 -0.25 2.9 0.05 1.7 0.25 0.85 1.35 0.0 2.4 0.0 3.65" fill="#ffffff" fill-rule="evenodd" stroke="none"/>
    </g>
    <g id="sprite11">
      <use ffdec:characterId="36" height="4.55" transform="matrix(1.0, 0.0, 0.0, 1.0, 0.0, 0.0)" width="4.95" xlink:href="#shape13"/>
    </g>
    <g id="shape13">
      <path d="M0.1 2.25 Q-0.05 1.55 0.1 1.05 L0.35 0.65 Q0.85 0.0 1.75 0.0 2.75 0.0 3.65 0.65 4.55 1.3 4.8 2.25 5.05 2.9 4.85 3.5 L4.6 3.9 Q4.15 4.5 3.15 4.55 2.25 4.5 1.3 3.9 0.4 3.2 0.1 2.25" fill="#ffffff" fill-rule="evenodd" stroke="none"/>
    </g>
    <g id="sprite12">
      <use ffdec:characterId="27" height="6.4" transform="matrix(1.0, 0.0, 0.0, 1.0, 0.0, 0.0)" width="7.3" xlink:href="#shape14"/>
    </g>
    <g id="shape14">
      <path d="M7.3 3.2 Q7.3 4.55 6.2 5.45 5.15 6.4 3.65 6.4 2.15 6.4 1.05 5.45 0.0 4.55 0.0 3.2 0.0 1.85 1.05 0.9 2.15 0.0 3.65 0.0 5.15 0.0 6.2 0.9 7.3 1.85 7.3 3.2" fill="#534730" fill-rule="evenodd" stroke="none"/>
    </g>
  </defs>
</svg>
