<?xml version="1.0" encoding="UTF-8" standalone="no"?>
<svg xmlns:ffdec="https://www.free-decompiler.com/flash" xmlns:xlink="http://www.w3.org/1999/xlink" ffdec:objectType="frame" height="15.55px" width="27.9px" xmlns="http://www.w3.org/2000/svg">
  <g transform="matrix(1.0, 0.0, 0.0, 1.0, 13.75, -14.55)">
    <use ffdec:characterId="9" height="15.55" transform="matrix(1.0, 0.0, 0.0, 1.0, 0.0, 0.0)" width="27.9" xlink:href="#shape0"/>
  </g>
  <defs>
    <g id="shape0">
      <path d="M-4.6 20.65 L-4.1 18.55 -3.8 18.6 -3.6 18.6 -3.4 18.65 -3.45 18.7 -3.8 18.7 -4.2 19.65 -4.55 20.8 -4.6 20.8 -4.6 20.65 M-3.95 20.3 L-3.45 20.3 -3.45 20.45 -3.8 20.5 -4.2 20.4 -3.95 20.3 M-2.95 21.2 L-3.05 21.1 -3.2 19.25 Q-2.75 20.45 -2.95 21.2" fill="#ffffff" fill-rule="evenodd" stroke="none"/>
      <path d="M-4.6 20.65 L-4.6 20.8 -4.55 20.8 -4.2 19.65 -3.8 18.7 -3.45 18.7 -3.4 18.65 -3.6 18.6 -3.8 18.6 -4.1 18.55 -4.6 20.65 M-4.6 18.2 L-3.15 18.2 -2.6 21.45 -2.6 21.8 -3.15 21.8 -3.35 20.75 -3.8 20.75 -4.2 20.8 -4.35 21.45 -4.45 21.8 -5.1 21.8 Q-4.35 19.15 -4.35 18.4 L-4.4 18.5 -4.6 18.4 -4.6 18.2 M-4.0 20.1 L-3.45 20.1 -3.65 18.8 -4.0 20.1 M-3.95 20.3 L-4.2 20.4 -3.8 20.5 -3.45 20.45 -3.45 20.3 -3.95 20.3 M-2.95 21.2 Q-2.75 20.45 -3.2 19.25 L-3.05 21.1 -2.95 21.2" fill="#ff0000" fill-rule="evenodd" stroke="none"/>
      <path d="M3.4 24.45 L3.45 24.45 3.8 25.65 4.2 26.55 4.55 26.55 4.6 26.6 4.45 26.65 4.2 26.65 3.95 26.7 3.4 24.65 3.4 24.45 M5.05 24.1 Q5.3 24.85 4.8 26.0 L4.95 24.15 5.05 24.1 M4.55 24.85 L4.55 24.95 4.05 24.95 3.8 24.9 4.2 24.8 4.55 24.85" fill="#ffffff" fill-rule="evenodd" stroke="none"/>
      <path d="M3.8 24.45 L4.2 24.55 4.7 24.55 4.85 23.45 5.4 23.45 5.4 23.85 4.85 27.1 3.4 27.1 3.4 26.85 3.65 26.75 3.7 26.85 Q3.7 26.15 2.9 23.45 L3.55 23.45 3.7 23.85 3.8 24.45 M3.4 24.45 L3.4 24.65 3.95 26.7 4.2 26.65 4.45 26.65 4.6 26.6 4.55 26.55 4.2 26.55 3.8 25.65 3.45 24.45 3.4 24.45 M5.05 24.1 L4.95 24.15 4.8 26.0 Q5.3 24.85 5.05 24.1 M4.55 24.85 L4.2 24.8 3.8 24.9 4.05 24.95 4.55 24.95 4.55 24.85 M4.35 26.5 L4.55 25.15 4.0 25.15 4.35 26.5" fill="#ff0000" fill-rule="evenodd" stroke="none"/>
      <path d="M-0.8 22.1 L-1.05 21.65 -1.25 21.0 Q-1.3 20.55 -1.0 20.3 -0.8 20.0 -0.4 20.0 -0.05 20.0 0.25 20.3 L0.45 20.65 Q0.5 20.4 0.65 20.3 0.95 20.0 1.3 20.0 1.65 20.0 1.9 20.3 2.2 20.55 2.1 21.0 L1.95 21.65 1.7 22.1 1.2 22.65 0.45 23.25 -0.3 22.65 -0.8 22.1" fill="#ff0000" fill-rule="evenodd" stroke="none"/>
      <path d="M-12.5 23.6 Q-12.25 24.25 -12.5 24.7 L-12.65 24.85 -13.0 24.9 -13.35 24.25 -13.3 23.9 Q-12.9 23.05 -12.5 23.6 M-13.25 24.05 L-13.25 24.25 -13.15 24.65 -13.0 24.6 -12.9 24.55 -12.7 23.95 Q-12.9 23.25 -13.25 24.05 M-8.15 20.5 L-8.2 20.2 Q-7.95 19.7 -7.3 20.1 -6.95 20.3 -6.9 20.8 L-7.05 21.65 -7.3 21.85 -7.85 20.95 -8.15 20.5 M-7.4 20.4 L-7.9 20.45 Q-8.1 20.75 -7.5 21.1 L-7.15 20.9 Q-7.0 20.5 -7.4 20.4 M-8.55 21.45 L-8.5 22.3 -9.7 23.6 -10.8 24.35 -11.6 24.1 -12.35 23.45 Q-12.55 23.05 -11.95 22.1 L-10.95 21.1 -10.4 20.75 -10.3 20.7 -9.85 20.5 -9.15 20.65 Q-8.75 20.85 -8.55 21.45 M-11.45 21.75 L-12.0 22.4 Q-12.3 23.1 -11.45 23.6 -10.7 24.0 -10.2 22.95 L-10.0 22.55 Q-9.95 22.15 -10.3 21.95 L-10.55 21.8 -11.45 21.75 M-11.15 25.3 Q-10.9 24.75 -10.55 25.15 -10.25 25.45 -10.45 25.85 L-10.7 26.0 -11.0 26.0 Q-11.3 25.85 -11.25 25.55 L-11.15 25.3 M-12.4 25.2 L-12.3 25.35 Q-12.1 25.45 -11.9 25.15 -11.7 24.8 -11.95 24.65 -12.15 24.55 -12.25 24.9 L-12.35 25.05 -12.25 24.8 Q-11.95 24.1 -11.55 24.6 -11.25 25.0 -11.6 25.55 -11.75 26.0 -12.1 25.75 L-12.4 25.2" fill="#555555" fill-rule="evenodd" stroke="none"/>
      <path d="M-13.25 24.05 Q-12.9 23.25 -12.7 23.95 L-12.9 24.55 -13.0 24.6 -13.15 24.65 -13.25 24.25 -13.25 24.05 M-7.4 20.4 Q-7.0 20.5 -7.15 20.9 L-7.5 21.1 Q-8.1 20.75 -7.9 20.45 L-7.4 20.4 M-11.45 21.75 L-10.55 21.8 -10.3 21.95 Q-9.95 22.15 -10.0 22.55 L-10.2 22.95 Q-10.7 24.0 -11.45 23.6 -12.3 23.1 -12.0 22.4 L-11.45 21.75 M-12.35 25.05 L-12.25 24.9 Q-12.15 24.55 -11.95 24.65 -11.7 24.8 -11.9 25.15 -12.1 25.45 -12.3 25.35 L-12.4 25.2 -12.35 25.05" fill="#7b7b7b" fill-rule="evenodd" stroke="none"/>
      <path d="M-8.0 19.15 L-7.8 19.2 -7.8 19.15 -7.75 19.2 Q-7.55 19.25 -7.4 19.45 L-6.85 20.25 Q-6.55 20.85 -6.5 21.65 L-6.5 21.7 -6.5 21.9 -6.55 22.95 Q-6.7 23.5 -7.25 23.35 L-7.4 23.2 -7.4 23.1 -7.5 23.2 -7.55 23.8 -7.65 24.0 -7.55 24.15 -7.8 24.55 -8.3 24.85 -8.45 24.85 -9.55 25.85 -9.65 25.75 Q-10.95 26.5 -11.9 26.0 -13.15 25.2 -13.45 24.45 -13.75 23.6 -13.3 22.8 L-12.35 21.75 -11.25 20.65 Q-10.2 19.85 -9.55 20.0 L-9.4 20.05 -8.75 20.05 -8.1 19.5 -8.25 19.45 -8.3 19.3 Q-8.3 19.1 -8.0 19.15 M-12.5 23.6 Q-12.9 23.05 -13.3 23.9 L-13.35 24.25 -13.0 24.9 -12.65 24.85 -12.5 24.7 Q-12.25 24.25 -12.5 23.6 M-8.15 20.5 L-7.85 20.95 -7.3 21.85 -7.05 21.65 -6.9 20.8 Q-6.95 20.3 -7.3 20.1 -7.95 19.7 -8.2 20.2 L-8.15 20.5 M-8.55 21.45 Q-8.75 20.85 -9.15 20.65 L-9.85 20.5 -10.3 20.7 -10.4 20.75 -10.95 21.1 -11.95 22.1 Q-12.55 23.05 -12.35 23.45 L-11.6 24.1 -10.8 24.35 -9.7 23.6 -8.5 22.3 -8.55 21.45 M-11.15 25.3 L-11.25 25.55 Q-11.3 25.85 -11.0 26.0 L-10.7 26.0 -10.45 25.85 Q-10.25 25.45 -10.55 25.15 -10.9 24.75 -11.15 25.3 M-12.4 25.2 L-12.1 25.75 Q-11.75 26.0 -11.6 25.55 -11.25 25.0 -11.55 24.6 -11.95 24.1 -12.25 24.8 L-12.35 25.05 -12.4 25.2" fill="#111111" fill-rule="evenodd" stroke="none"/>
      <path d="M-13.45 24.4 Q-13.15 25.2 -11.85 25.95 -10.4 26.8 -8.05 24.35 L-7.85 23.9 -7.8 23.2 -7.65 23.2 -6.65 23.05 -6.6 21.55 -6.8 20.5 Q-7.0 19.95 -7.75 19.15 L-8.75 20.1 -8.65 20.15 -8.75 20.15 -9.25 20.2 Q-10.05 20.3 -11.45 21.1 -12.75 21.95 -13.25 22.8 -13.65 23.55 -13.45 24.4 M-9.0 19.85 L-8.85 19.95 -8.0 18.9 -8.0 18.95 Q-6.9 19.55 -6.45 21.05 -6.15 22.05 -6.4 23.2 L-6.6 23.4 -7.4 23.6 Q-7.1 24.0 -7.5 24.55 -8.0 25.1 -9.35 26.0 L-11.95 26.15 Q-13.25 25.4 -13.65 24.2 -13.85 23.45 -13.6 22.95 L-10.4 19.95 -9.0 19.85" fill="#000000" fill-rule="evenodd" stroke="none"/>
      <path d="M7.85 21.6 L7.65 21.35 Q7.6 20.65 7.8 20.25 L8.1 19.9 8.2 19.8 Q8.95 19.55 9.05 20.05 L9.0 20.35 8.6 20.8 7.85 21.6 M10.75 20.65 L11.5 21.15 11.95 21.55 12.2 21.85 12.55 22.55 Q13.0 23.55 12.75 23.9 L11.85 24.45 11.0 24.55 10.0 23.6 Q9.2 22.7 9.05 22.2 8.95 21.9 9.3 21.4 9.75 21.0 10.2 20.9 L10.75 20.65 M10.9 22.15 Q10.55 22.3 10.5 22.7 L10.6 23.1 Q10.95 24.2 11.8 23.9 12.75 23.55 12.55 22.85 L12.1 22.15 11.2 22.05 10.9 22.15 M8.75 20.3 Q8.65 19.95 8.25 20.1 7.8 20.2 7.9 20.65 8.0 20.95 8.25 20.85 8.85 20.65 8.75 20.3 M10.6 25.3 Q11.05 24.95 11.2 25.55 L11.25 25.8 10.95 26.25 10.55 26.2 10.4 26.0 Q10.25 25.55 10.6 25.3 M12.45 25.3 L12.1 25.05 Q11.85 25.15 12.0 25.5 12.1 25.9 12.35 25.8 L12.5 25.65 12.45 25.85 12.35 26.05 12.1 26.2 Q11.7 26.35 11.55 25.95 11.35 25.3 11.75 24.9 12.2 24.55 12.4 25.2 L12.45 25.3 M13.5 25.1 L13.35 25.3 13.1 25.45 12.85 25.35 12.6 25.15 Q12.5 24.7 12.85 24.15 13.3 23.6 13.6 24.55 L13.55 24.9 13.55 24.65 Q13.3 23.8 13.0 24.5 L13.1 25.1 13.15 25.2 13.3 25.2 13.5 25.1" fill="#555555" fill-rule="evenodd" stroke="none"/>
      <path d="M8.75 20.3 Q8.85 20.65 8.25 20.85 8.0 20.95 7.9 20.65 7.8 20.2 8.25 20.1 8.65 19.95 8.75 20.3 M10.9 22.15 L11.2 22.05 12.1 22.15 12.55 22.85 Q12.75 23.55 11.8 23.9 10.95 24.2 10.6 23.1 L10.5 22.7 Q10.55 22.3 10.9 22.15 M12.45 25.3 L12.5 25.5 12.5 25.65 12.35 25.8 Q12.1 25.9 12.0 25.5 11.85 25.15 12.1 25.05 L12.45 25.3 M13.5 25.1 L13.3 25.2 13.15 25.2 13.1 25.1 13.0 24.5 Q13.3 23.8 13.55 24.65 L13.55 24.9 13.5 25.1" fill="#7b7b7b" fill-rule="evenodd" stroke="none"/>
      <path d="M8.55 19.15 L8.8 18.95 9.7 20.05 9.6 20.15 9.7 20.15 9.85 20.2 9.85 20.05 10.65 20.15 10.75 20.15 10.85 20.2 10.85 20.25 Q11.55 20.5 12.3 21.4 L12.7 22.05 13.8 23.45 Q14.1 24.3 13.65 25.1 L13.6 25.2 13.05 25.8 12.35 26.2 12.15 26.25 11.85 26.35 10.3 26.2 10.45 26.6 9.9 26.15 9.8 26.0 Q9.2 26.0 8.6 24.8 8.2 24.75 8.15 24.4 L8.1 23.9 Q7.95 23.7 7.95 23.25 L7.95 23.1 7.55 22.9 7.35 22.85 7.2 22.9 7.1 22.85 Q6.85 22.85 6.85 22.5 L6.95 22.3 6.95 22.25 7.05 21.3 7.1 21.25 6.95 21.45 6.9 21.2 Q6.9 20.85 7.45 20.2 L8.1 19.5 7.95 19.65 8.55 19.15 M7.85 21.6 L8.6 20.8 9.0 20.35 9.05 20.05 Q8.95 19.55 8.2 19.8 L8.1 19.9 7.8 20.25 Q7.6 20.65 7.65 21.35 L7.85 21.6 M10.95 20.45 L10.8 20.55 11.4 20.9 10.95 20.45 M10.75 20.65 L10.2 20.9 Q9.75 21.0 9.3 21.4 8.95 21.9 9.05 22.2 9.2 22.7 10.0 23.6 L11.0 24.55 11.85 24.45 12.75 23.9 Q13.0 23.55 12.55 22.55 L12.2 21.85 11.95 21.55 11.5 21.15 10.75 20.65 M10.6 25.3 Q10.25 25.55 10.4 26.0 L10.55 26.2 10.95 26.25 11.25 25.8 11.2 25.55 Q11.05 24.95 10.6 25.3 M12.5 25.65 L12.5 25.5 12.45 25.3 12.4 25.2 Q12.2 24.55 11.75 24.9 11.35 25.3 11.55 25.95 11.7 26.35 12.1 26.2 L12.35 26.05 12.45 25.85 12.5 25.65 M13.55 24.9 L13.6 24.55 Q13.3 23.6 12.85 24.15 12.5 24.7 12.6 25.15 L12.85 25.35 13.1 25.45 13.35 25.3 13.5 25.1 13.55 24.9" fill="#111111" fill-rule="evenodd" stroke="none"/>
      <path d="M9.95 19.85 L9.75 19.9 9.05 18.75 9.1 18.8 Q7.8 19.2 7.15 20.65 6.7 21.55 6.75 22.75 L6.85 23.0 7.65 23.3 Q7.3 23.65 7.6 24.25 L9.2 26.0 Q10.5 27.1 11.9 26.6 13.3 26.05 13.9 24.95 14.25 24.2 14.1 23.65 L11.35 20.2 Q10.55 19.65 9.95 19.85 M13.6 25.1 Q13.2 25.8 11.75 26.35 10.2 26.95 8.2 24.15 L8.1 23.7 Q8.0 23.3 8.15 23.0 L7.95 22.95 7.0 22.65 7.2 21.15 7.6 20.15 8.75 18.95 9.6 20.05 Q9.5 20.05 9.55 20.15 L9.6 20.15 10.15 20.25 Q10.9 20.45 12.15 21.5 13.4 22.6 13.7 23.45 14.0 24.3 13.6 25.1" fill="#000000" fill-rule="evenodd" stroke="none"/>
      <path d="M-4.7 15.1 L-1.9 15.15 -4.45 15.15 -4.7 15.1" fill="#e6e6e6" fill-rule="evenodd" stroke="none"/>
      <path d="M-7.85 27.15 Q-7.55 26.75 -6.75 26.45 L-6.7 26.45 -6.15 26.25 Q-5.4 26.15 -5.35 25.15 L-5.25 23.95 Q-5.2 23.3 -4.15 23.45 -3.05 23.6 -3.05 24.35 -3.05 24.65 -4.4 26.1 -4.1 26.2 -4.1 26.55 -4.1 27.3 -5.1 27.75 L-7.05 28.15 Q-8.0 28.15 -8.0 27.55 L-7.85 27.15 M4.45 17.1 L2.75 18.5 -0.15 21.15 Q-1.55 22.5 -3.75 22.5 -5.15 22.5 -5.15 20.65 L-4.9 18.25 Q-4.6 16.55 -4.1 16.25 L0.25 16.4 4.1 16.75 Q4.65 16.95 4.45 17.1 M4.15 22.15 L-0.9 23.65 -1.35 23.35 Q-1.35 23.0 2.05 20.5 5.4 18.05 5.4 19.45 L5.05 20.85 Q4.7 21.75 4.15 22.15 M4.6 23.45 Q5.25 23.45 5.25 23.85 L5.0 24.65 4.6 25.45 4.55 26.35 4.55 26.55 Q5.55 26.6 6.2 27.0 6.7 27.3 6.7 27.55 L6.6 27.95 5.45 28.15 Q3.3 28.15 3.3 27.4 3.3 27.1 3.45 26.9 3.1 26.6 2.9 25.8 2.6 24.55 2.1 24.6 2.3 23.9 3.35 23.65 L4.6 23.45" fill="#ffffff" fill-rule="evenodd" stroke="none"/>
      <path d="M2.5 27.0 L2.5 27.2 2.45 27.25 Q1.85 27.1 1.8 26.55 L1.85 26.1 1.15 25.75 0.1 25.55 -0.1 25.5 Q-1.75 25.5 -2.65 27.0 L-2.6 27.4 Q-2.6 27.7 -3.3 28.3 L-4.0 28.75 -3.85 29.0 -4.0 29.3 -4.25 29.4 -8.2 29.45 Q-8.85 29.45 -9.2 29.1 L-9.45 28.65 -9.2 27.95 Q-8.95 27.55 -8.8 28.15 -8.8 28.65 -8.2 28.65 L-5.05 28.65 Q-2.95 28.2 -2.95 26.5 L-3.05 26.35 -3.2 26.25 -3.1 26.2 -3.05 26.25 Q-2.95 25.6 -2.25 24.95 -1.6 24.3 -0.4 24.3 0.75 24.25 1.5 24.75 2.2 25.25 2.5 26.95 L2.5 27.0 M-6.8 15.45 L-6.85 15.45 -7.0 15.25 -6.95 15.1 -6.9 15.05 -6.35 15.05 -4.8 15.05 -4.7 15.1 -4.45 15.15 -1.9 15.15 5.65 14.8 6.15 14.7 Q6.4 14.7 6.45 14.85 L7.05 15.0 7.1 15.15 7.25 15.15 Q6.9 15.85 6.6 17.7 6.1 20.75 6.1 22.75 L6.35 24.25 6.5 24.95 6.75 25.75 7.3 26.45 7.55 26.7 7.55 26.65 7.6 26.65 Q8.9 26.7 9.05 27.85 L9.4 27.6 9.55 28.25 9.4 28.6 9.55 28.9 9.25 29.25 7.6 29.35 5.7 29.4 5.3 29.45 5.15 29.45 4.45 29.45 Q3.8 29.45 3.45 29.15 L3.15 28.65 3.4 28.5 3.55 28.55 3.85 28.65 4.4 28.75 7.6 28.65 7.8 28.55 8.1 28.4 8.2 28.05 7.65 27.45 6.4 26.25 Q5.65 25.05 5.65 23.6 L6.05 19.5 6.4 16.45 6.4 16.1 Q5.1 15.3 2.2 15.65 -0.7 16.0 -3.6 15.65 L-6.8 15.45" fill="#a6a6a6" fill-rule="evenodd" stroke="none"/>
      <path d="M-8.8 28.15 L-7.95 26.9 -7.9 27.1 -7.85 27.15 -8.0 27.55 Q-8.0 28.15 -7.05 28.15 L-5.1 27.75 Q-4.1 27.3 -4.1 26.55 -4.1 26.2 -4.4 26.1 -3.05 24.65 -3.05 24.35 -3.05 23.6 -4.15 23.45 -5.2 23.3 -5.25 23.95 L-5.35 25.15 Q-5.4 26.15 -6.15 26.25 L-6.7 26.45 -6.2 24.95 -5.8 22.75 Q-5.8 20.75 -6.3 17.7 L-6.8 15.45 -3.6 15.65 Q-0.7 16.0 2.2 15.65 5.1 15.3 6.4 16.1 L6.4 16.45 6.05 19.5 5.65 23.6 Q5.65 25.05 6.4 26.25 L7.65 27.45 8.2 28.05 8.1 28.4 7.8 28.55 7.6 28.65 4.4 28.75 3.85 28.65 3.55 28.55 Q3.05 28.15 2.8 27.55 L2.5 27.0 2.5 26.95 Q2.2 25.25 1.5 24.75 0.75 24.25 -0.4 24.3 -1.6 24.3 -2.25 24.95 -2.95 25.6 -3.05 26.25 L-3.1 26.2 -3.2 26.25 -3.05 26.35 -2.95 26.5 Q-2.95 28.2 -5.05 28.65 L-8.2 28.65 Q-8.8 28.65 -8.8 28.15 M4.6 23.45 L3.35 23.65 Q2.3 23.9 2.1 24.6 2.6 24.55 2.9 25.8 3.1 26.6 3.45 26.9 3.3 27.1 3.3 27.4 3.3 28.15 5.45 28.15 L6.6 27.95 6.7 27.55 Q6.7 27.3 6.2 27.0 5.55 26.6 4.55 26.55 L4.55 26.35 4.6 25.45 5.0 24.65 5.25 23.85 Q5.25 23.45 4.6 23.45 M4.15 22.15 Q4.7 21.75 5.05 20.85 L5.4 19.45 Q5.4 18.05 2.05 20.5 -1.35 23.0 -1.35 23.35 L-0.9 23.65 4.15 22.15 M4.45 17.1 Q4.65 16.95 4.1 16.75 L0.25 16.4 -4.1 16.25 Q-4.6 16.55 -4.9 18.25 L-5.15 20.65 Q-5.15 22.5 -3.75 22.5 -1.55 22.5 -0.15 21.15 L2.75 18.5 4.45 17.1" fill="#b7b7b7" fill-rule="evenodd" stroke="none"/>
      <path d="M-1.05 15.15 L-1.1 15.15 -1.05 15.15 M-0.75 15.05 L-0.95 15.15 -1.6 15.95 Q-3.4 17.7 -6.05 17.75 L-6.2 17.8 -6.35 17.75 -6.35 17.65 -6.4 17.3 -7.05 15.05 -2.35 15.05 -0.75 15.05 M-5.95 15.95 L-5.75 16.3 -4.9 16.6 -3.5 16.25 -2.85 15.8 -3.1 15.5 -5.0 15.4 Q-5.9 15.4 -5.95 15.95" fill="#000000" fill-rule="evenodd" stroke="none"/>
      <path d="M-5.95 15.95 Q-5.9 15.4 -5.0 15.4 L-3.1 15.5 -2.85 15.8 -3.5 16.25 -4.9 16.6 -5.75 16.3 -5.95 15.95" fill="#444444" fill-rule="evenodd" stroke="none"/>
      <path d="M-6.25 17.75 L-6.3 17.7 Q-3.05 17.25 -0.95 15.0 L-1.6 15.95 Q-3.45 17.8 -6.25 17.75" fill="#000000" fill-rule="evenodd" stroke="none"/>
      <path d="M1.05 15.05 L1.25 15.15 1.9 15.95 Q3.7 17.7 6.35 17.75 L6.5 17.8 6.65 17.75 6.65 17.65 6.7 17.3 7.35 15.05 2.65 15.05 1.05 15.05 M1.4 15.15 L1.35 15.15 1.4 15.15 M6.25 15.95 L6.05 16.3 5.2 16.6 3.8 16.25 3.15 15.8 3.4 15.5 5.3 15.4 Q6.2 15.4 6.25 15.95" fill="#000000" fill-rule="evenodd" stroke="none"/>
      <path d="M6.25 15.95 Q6.2 15.4 5.3 15.4 L3.4 15.5 3.15 15.8 3.8 16.25 5.2 16.6 6.05 16.3 6.25 15.95" fill="#444444" fill-rule="evenodd" stroke="none"/>
      <path d="M6.55 17.75 L6.6 17.7 Q3.35 17.25 1.25 15.0 1.45 15.55 1.9 15.95 3.75 17.8 6.55 17.75" fill="#000000" fill-rule="evenodd" stroke="none"/>
      <path d="M-7.9 27.1 L-7.25 26.6 -7.2 26.6 -6.95 27.05 -6.85 27.15 -4.45 27.25 -5.15 27.7 -7.1 28.1 -7.7 28.0 Q-8.05 27.85 -8.05 27.5 L-7.9 27.1 M3.3 27.5 L6.65 27.5 6.55 27.9 5.4 28.1 Q3.45 28.1 3.3 27.5" fill="#737373" fill-rule="evenodd" stroke="none"/>
      <path d="M-4.45 27.25 L-3.1 27.15 Q-3.45 28.25 -5.1 28.6 L-7.9 28.6 -8.25 28.6 Q-8.85 28.6 -8.85 28.1 L-8.0 26.85 -7.95 27.05 -7.9 27.1 -8.05 27.5 Q-8.05 27.85 -7.7 28.0 L-7.1 28.1 -5.15 27.7 -4.45 27.25 M6.65 27.5 L6.9 27.45 7.65 27.45 8.15 28.0 8.05 28.35 7.75 28.5 7.55 28.6 4.35 28.7 3.8 28.6 3.5 28.5 2.75 27.5 2.7 27.4 3.0 27.4 3.05 27.45 3.3 27.5 Q3.45 28.1 5.4 28.1 L6.55 27.9 6.65 27.5" fill="#484848" fill-rule="evenodd" stroke="none"/>
      <path d="M-3.1 27.15 L-2.8 27.1 -2.65 27.1 -2.65 27.35 Q-2.65 27.65 -3.35 28.25 L-4.05 28.7 -3.9 28.95 -4.05 29.25 -4.3 29.35 -8.25 29.4 -9.25 29.05 -9.5 28.6 -9.25 27.9 Q-9.0 27.5 -8.85 28.1 -8.85 28.6 -8.25 28.6 L-7.9 28.6 -5.1 28.6 Q-3.45 28.25 -3.1 27.15 M7.65 27.45 L8.85 27.3 9.0 27.8 Q9.2 27.6 9.35 27.55 L9.5 28.2 9.35 28.55 9.5 28.85 9.2 29.2 7.55 29.3 5.65 29.35 5.25 29.4 5.1 29.4 4.4 29.4 3.4 29.1 3.1 28.6 Q3.1 28.45 3.35 28.45 L3.5 28.5 3.8 28.6 4.35 28.7 7.55 28.6 7.75 28.5 8.05 28.35 8.15 28.0 7.65 27.45" fill="#000000" fill-rule="evenodd" stroke="none"/>
      <path d="M0.85 15.15 L0.7 15.15 -0.4 15.15 -5.3 15.1 -6.95 15.1 Q-6.6 15.85 -6.3 17.7 -5.8 20.75 -5.8 22.75 L-6.2 24.95 Q-6.75 27.2 -7.6 27.2 L-7.9 27.1 -7.95 26.9 -9.1 28.55 Q-8.65 29.0 -8.0 29.05 L-5.35 29.05 Q-3.8 29.05 -2.85 27.3 -1.9 25.5 -0.1 25.5 L0.1 25.55 1.15 25.75 Q2.1 26.0 2.8 27.55 3.45 29.1 5.85 29.1 L8.3 29.05 Q8.95 29.0 9.4 28.55 L8.25 26.9 8.2 27.1 7.9 27.2 Q7.05 27.2 6.5 24.95 L6.35 24.25 6.1 22.75 Q6.1 20.75 6.6 17.7 6.9 15.85 7.25 15.15 L3.3 15.15 0.85 15.15 M6.8 17.05 Q6.5 18.3 6.5 19.7 6.5 22.0 7.3 24.25 L7.35 24.5 7.5 24.95 7.85 25.85 9.05 26.8 Q10.35 28.0 10.35 28.5 10.35 29.1 9.9 29.4 8.9 30.05 6.65 30.1 4.35 30.1 3.15 29.15 1.95 28.15 2.1 27.6 2.25 27.0 1.4 26.65 L0.15 26.1 0.1 26.1 -0.95 26.65 Q-2.2 27.4 -2.35 27.9 -2.6 28.6 -3.2 29.2 -4.15 30.05 -5.45 30.05 -8.6 30.05 -9.6 29.4 -10.05 29.1 -10.05 28.5 -10.05 28.0 -8.75 26.8 L-7.55 25.85 -7.2 24.95 -7.05 24.5 Q-6.2 22.1 -6.2 19.7 -6.2 18.3 -6.5 17.05 -6.8 15.7 -7.6 14.9 0.35 14.2 7.9 14.9 7.1 15.5 6.8 17.05" fill="#000000" fill-rule="evenodd" stroke="none"/>
      <path d="M2.2 22.55 L1.75 23.15 1.0 23.2 0.4 22.75 0.4 23.15 0.4 23.4 0.4 23.45 0.4 23.5 0.45 23.5 0.5 23.6 0.65 23.65 -0.05 23.65 0.0 23.65 0.1 23.55 0.15 23.4 0.15 23.35 0.15 23.2 0.2 22.8 0.15 22.8 -0.45 23.25 -1.2 23.2 -1.6 22.6 -1.5 21.9 -0.9 21.45 -0.15 21.55 -0.45 21.3 -0.75 20.6 -0.45 19.85 Q-0.15 19.55 0.25 19.55 0.65 19.55 0.95 19.85 L1.25 20.6 0.95 21.3 0.8 21.45 1.45 21.4 2.05 21.85 Q2.3 22.2 2.2 22.55" fill="#000000" fill-rule="evenodd" stroke="none"/>
      <path d="M-4.6 17.95 L-3.15 17.95 -2.6 21.2 -2.6 21.55 -3.15 21.55 -3.35 20.5 -3.8 20.5 -4.2 20.55 -4.35 21.2 -4.45 21.55 -5.1 21.55 Q-4.35 18.9 -4.35 18.15 L-4.4 18.25 -4.6 18.15 -4.6 17.95 M-3.95 20.05 L-4.2 20.15 -3.8 20.25 -3.45 20.2 -3.45 20.05 -3.95 20.05 M-3.8 18.35 L-4.1 18.3 -4.6 20.4 -4.6 20.55 -4.55 20.55 -4.2 19.4 -3.8 18.45 -3.45 18.45 -3.4 18.4 -3.6 18.35 -3.8 18.35 M-4.0 19.85 L-3.45 19.85 -3.65 18.55 -4.0 19.85 M-2.95 20.95 Q-2.75 20.2 -3.2 19.0 L-3.05 20.85 -2.95 20.95" fill="#000000" fill-rule="evenodd" stroke="none"/>
      <path d="M-3.8 18.35 L-3.6 18.35 -3.4 18.4 -3.45 18.45 -3.8 18.45 -4.2 19.4 -4.55 20.55 -4.6 20.55 -4.6 20.4 -4.1 18.3 -3.8 18.35 M-3.95 20.05 L-3.45 20.05 -3.45 20.2 -3.8 20.25 -4.2 20.15 -3.95 20.05 M-2.95 20.95 L-3.05 20.85 -3.2 19.0 Q-2.75 20.2 -2.95 20.95" fill="#ffffff" fill-rule="evenodd" stroke="none"/>
      <path d="M5.4 23.2 L5.4 23.6 4.85 26.85 3.4 26.85 3.4 26.6 3.65 26.5 3.7 26.6 Q3.7 25.9 2.9 23.2 L3.55 23.2 3.7 23.6 3.8 24.2 4.2 24.3 4.7 24.3 4.85 23.2 5.4 23.2 M3.4 24.4 L3.95 26.45 4.2 26.4 4.45 26.4 4.6 26.35 4.55 26.3 4.2 26.3 3.8 25.4 3.45 24.2 3.4 24.2 3.4 24.4 M4.2 24.55 L3.8 24.65 4.05 24.7 4.55 24.7 4.55 24.6 4.2 24.55 M5.05 23.85 L4.95 23.9 4.8 25.75 Q5.3 24.6 5.05 23.85 M4.55 24.9 L4.0 24.9 4.35 26.25 4.55 24.9" fill="#000000" fill-rule="evenodd" stroke="none"/>
      <path d="M4.2 24.55 L4.55 24.6 4.55 24.7 4.05 24.7 3.8 24.65 4.2 24.55 M3.4 24.4 L3.4 24.2 3.45 24.2 3.8 25.4 4.2 26.3 4.55 26.3 4.6 26.35 4.45 26.4 4.2 26.4 3.95 26.45 3.4 24.4 M5.05 23.85 Q5.3 24.6 4.8 25.75 L4.95 23.9 5.05 23.85" fill="#ffffff" fill-rule="evenodd" stroke="none"/>
    </g>
  </defs>
</svg>
