<?xml version="1.0" encoding="UTF-8" standalone="no"?>
<svg xmlns:ffdec="https://www.free-decompiler.com/flash" xmlns:xlink="http://www.w3.org/1999/xlink" ffdec:objectType="frame" height="18.55px" width="35.75px" xmlns="http://www.w3.org/2000/svg">
  <g transform="matrix(1.0, 0.0, 0.0, 1.0, 24.45, -12.45)">
    <use ffdec:characterId="19" height="5.0" transform="matrix(1.0, 0.0, 0.0, 1.0, -0.05, 23.0)" width="10.85" xlink:href="#sprite0"/>
    <use ffdec:characterId="21" height="8.45" transform="matrix(1.0, 0.0, 0.0, 1.0, 2.2, 18.4)" width="18.2" xlink:href="#sprite1"/>
    <use ffdec:characterId="23" height="4.55" transform="matrix(1.0, 0.0, 0.0, 1.0, -5.7, 28.75)" width="7.75" xlink:href="#sprite2"/>
    <use ffdec:characterId="23" height="4.55" transform="matrix(-1.0, 0.0, 0.0, 1.0, 5.5, 28.75)" width="7.75" xlink:href="#sprite2"/>
    <use ffdec:characterId="9" height="13.3" transform="matrix(1.0, 0.0, 0.0, 1.0, -14.35, 19.0)" width="18.4" xlink:href="#sprite3"/>
  </g>
  <defs>
    <g id="sprite0">
      <use ffdec:characterId="18" height="5.0" transform="matrix(1.0, 0.0, 0.0, 1.0, 0.0, 0.0)" width="10.85" xlink:href="#shape0"/>
    </g>
    <g id="shape0">
      <path d="M4.35 0.5 Q4.0 0.25 3.6 0.35 L3.35 -0.85 3.2 -0.85 0.95 -0.3 1.2 0.35 1.45 0.7 2.1 0.75 2.3 0.75 Q2.15 1.15 2.65 1.3 3.0 1.25 2.9 1.55 L2.8 1.7 1.9 1.85 Q0.95 2.05 1.05 1.7 L0.45 0.8 -0.6 0.75 -0.9 1.8 -1.8 1.7 -1.7 1.65 -1.4 1.4 -1.4 0.8 Q-1.9 0.4 -1.0 0.4 L-0.7 0.25 -0.8 -0.15 -0.8 -0.3 -3.55 -0.7 -3.85 -0.35 -3.55 0.3 -3.35 0.65 -4.25 0.55 -4.35 0.5 -3.15 -1.9 3.1 -1.9 4.35 0.5" fill="#091f2e" fill-rule="evenodd" stroke="none"/>
      <path d="M2.8 1.7 L2.9 1.55 Q3.0 1.25 2.65 1.3 2.15 1.15 2.3 0.75 L2.1 0.75 1.45 0.7 1.2 0.35 0.95 -0.3 3.2 -0.85 3.35 -0.85 3.6 0.35 Q4.0 0.25 4.35 0.5 L4.4 0.6 Q3.7 1.35 2.8 1.7 M-4.25 0.55 L-3.35 0.65 -3.55 0.3 -3.85 -0.35 -3.55 -0.7 -0.8 -0.3 -0.8 -0.15 -0.7 0.25 -1.0 0.4 Q-1.9 0.4 -1.4 0.8 L-1.4 1.4 -1.7 1.65 -1.8 1.7 -3.35 1.15 -4.25 0.55" fill="#256894" fill-rule="evenodd" stroke="none"/>
      <path d="M3.6 -1.65 Q3.75 -0.75 4.2 -0.15 L4.7 0.7 3.95 1.35 1.4 2.15 0.75 1.95 Q0.55 1.85 0.7 1.65 L0.15 0.8 -0.5 0.95 -0.85 1.7 -1.15 2.1 -4.25 0.85 -4.75 0.65 Q-3.9 -0.45 -3.2 -1.85 L-3.05 -1.9 Q-3.1 -1.05 -3.65 -0.2 L-4.25 0.5 Q-2.75 1.5 -1.2 1.55 L-0.9 1.3 -0.8 1.0 -0.85 0.85 -1.0 0.5 0.4 0.6 1.1 1.8 3.25 1.15 Q4.45 0.85 4.3 0.5 L3.65 -0.75 Q3.1 -1.6 3.15 -1.95 3.45 -2.55 3.6 -1.65" fill="#000000" fill-rule="evenodd" stroke="none"/>
      <path d="M-2.35 2.25 L-2.5 2.35 -2.6 2.55 Q-2.85 1.45 -3.6 2.1 L-3.75 1.7 Q-4.0 1.3 -4.05 1.95 -4.15 2.55 -4.15 2.0 L-4.3 1.35 -4.65 1.35 Q-4.95 1.45 -5.05 1.65 -4.85 0.95 -5.35 0.85 -6.05 0.7 -4.8 0.75 L-5.4 -0.1 -4.6 0.5 -4.0 0.0 -3.65 0.95 -3.45 0.75 Q-2.95 0.55 -2.95 1.1 L-1.85 1.75 -1.1 1.45 -1.3 2.15 Q-0.75 2.25 -0.7 2.4 L-0.8 2.5 -1.7 2.05 Q-1.4 2.7 -1.6 2.8 -1.8 2.9 -2.05 2.6 L-2.35 2.25" fill="#f6fbff" fill-rule="evenodd" stroke="none"/>
      <path d="M2.0 2.2 L2.15 2.3 2.25 2.5 Q2.5 1.4 3.25 2.05 L3.4 1.65 Q3.65 1.25 3.7 1.9 3.8 2.5 3.8 1.95 L3.95 1.3 4.3 1.3 4.7 1.6 Q4.5 0.9 5.0 0.8 5.7 0.65 4.45 0.7 L5.05 -0.15 4.25 0.45 3.65 -0.05 3.3 0.9 3.1 0.7 Q2.6 0.5 2.6 1.05 L1.5 1.7 0.75 1.4 0.95 2.1 Q0.4 2.2 0.35 2.35 L0.45 2.45 Q0.65 2.55 1.35 2.0 1.05 2.65 1.25 2.75 1.45 2.85 1.7 2.55 L2.0 2.2" fill="#f6fbff" fill-rule="evenodd" stroke="none"/>
    </g>
    <g id="sprite1">
      <use ffdec:characterId="20" height="8.45" transform="matrix(1.0, 0.0, 0.0, 1.0, 0.0, 0.0)" width="18.2" xlink:href="#shape1"/>
    </g>
    <g id="shape1">
      <path d="M1.25 -3.6 L3.35 -1.95 2.85 -1.6 2.3 -1.3 1.85 -1.95 1.4 -1.6 0.25 -2.0 0.25 -1.15 -0.2 -0.65 -0.05 0.8 Q-0.9 1.45 -2.9 1.95 L0.25 1.4 Q-1.4 3.65 -4.2 2.1 -1.95 0.85 -1.0 -1.05 L-2.75 0.7 -4.35 1.35 -4.75 1.15 -4.65 -1.5 -5.5 -1.5 -6.1 -1.05 -6.95 -1.35 -7.2 -0.65 -6.8 0.25 -7.35 0.05 -8.7 -1.0 Q-7.5 -2.3 -5.9 -3.2 L-5.1 -3.55 -3.55 -3.35 -2.05 -1.45 -0.55 -3.35 1.25 -3.6" fill="#ffffff" fill-rule="evenodd" stroke="none"/>
      <path d="M1.25 -3.6 L2.05 -3.7 Q1.75 -3.6 2.75 -2.9 L3.65 -2.3 3.95 -2.1 2.2 -0.3 0.9 -0.95 1.8 2.7 1.6 3.1 Q1.15 2.9 0.75 3.25 L-0.6 3.8 -2.85 4.05 Q-4.5 4.05 -5.9 3.0 L-5.25 0.35 -6.4 1.45 -7.35 0.9 -7.95 0.4 -8.45 -0.3 -8.8 -0.85 -8.7 -1.0 -7.35 0.05 -6.8 0.25 -7.2 -0.65 -6.95 -1.35 -6.1 -1.05 -5.5 -1.5 -4.65 -1.5 -4.75 1.15 -4.35 1.35 -2.75 0.7 -1.0 -1.05 Q-1.95 0.85 -4.2 2.1 -1.4 3.65 0.25 1.4 L-2.9 1.95 Q-0.9 1.45 -0.05 0.8 L-0.2 -0.65 0.25 -1.15 0.25 -2.0 1.4 -1.6 1.85 -1.95 2.3 -1.3 2.85 -1.6 3.35 -1.95 1.25 -3.6 M-3.55 -3.35 L-3.15 -3.35 -2.05 -1.9 -1.0 -3.3 -0.55 -3.35 -2.05 -1.45 -3.55 -3.35" fill="#6b8388" fill-rule="evenodd" stroke="none"/>
      <path d="M2.55 -0.2 L2.1 -0.35 2.1 -0.5 2.15 -0.75 4.3 -2.55 Q5.7 -4.0 7.45 -3.9 L7.45 -3.3 7.4 -3.15 5.7 -2.9 5.6 -2.8 5.05 -2.3 4.9 -2.25 4.9 -2.1 4.95 -2.1 6.85 -1.9 6.95 -1.95 8.65 -1.05 8.6 -1.05 7.7 -0.8 7.75 -1.05 Q7.75 -1.45 7.15 -1.45 6.5 -1.5 6.5 -1.25 L6.7 -0.95 6.9 -0.8 6.6 -0.9 5.15 -1.6 4.25 -1.55 4.15 -1.25 3.9 -1.35 3.6 -1.15 Q3.6 -0.9 3.85 -0.9 L4.0 -0.9 3.15 -0.2 3.2 -0.4 Q2.45 -1.0 2.45 -0.5 L2.55 -0.2 M6.7 -3.3 Q7.1 -3.3 7.1 -3.5 L6.75 -3.75 Q6.4 -3.75 6.4 -3.55 6.4 -3.3 6.7 -3.3" fill="#ff0000" fill-rule="evenodd" stroke="none"/>
      <path d="M2.15 -0.75 L2.1 -0.5 2.1 -0.35 2.55 -0.2 2.85 -0.1 3.15 -0.2 4.0 -0.9 4.15 -1.15 4.15 -1.25 4.25 -1.55 5.15 -1.6 6.6 -0.9 6.9 -0.8 7.4 -0.7 7.7 -0.8 8.6 -1.05 8.65 -1.05 8.7 -1.0 6.8 0.05 4.8 -0.95 4.4 -0.05 2.8 0.85 1.65 -0.5 2.15 -0.75 M6.95 -1.95 L6.85 -1.9 4.95 -2.1 4.9 -2.1 4.9 -2.25 5.05 -2.3 5.6 -2.8 5.7 -2.9 7.4 -3.15 7.05 -2.55 6.3 -2.1 6.95 -1.95" fill="#650202" fill-rule="evenodd" stroke="none"/>
      <path d="M7.7 -0.8 L7.4 -0.7 6.9 -0.8 6.7 -0.95 6.5 -1.25 Q6.5 -1.5 7.15 -1.45 7.75 -1.45 7.75 -1.05 L7.7 -0.8 M4.15 -1.25 L4.15 -1.15 4.0 -0.9 3.85 -0.9 Q3.6 -0.9 3.6 -1.15 L3.9 -1.35 4.15 -1.25 M3.15 -0.2 L2.85 -0.1 2.55 -0.2 2.45 -0.5 Q2.45 -1.0 3.2 -0.4 L3.15 -0.2 M6.7 -3.3 Q6.4 -3.3 6.4 -3.55 6.4 -3.75 6.75 -3.75 L7.1 -3.5 Q7.1 -3.3 6.7 -3.3" fill="#ffe000" fill-rule="evenodd" stroke="none"/>
      <path d="M4.45 -2.3 L4.6 -2.2 4.75 -2.2 5.3 -2.6 5.9 -2.85 6.2 -2.65 6.2 -2.5 5.85 -2.6 4.95 -2.1 5.8 -2.1 Q6.95 -2.3 7.2 -3.3 L7.25 -3.65 5.75 -3.3 5.15 -3.1 Q4.35 -2.9 4.45 -2.3 M2.0 -0.3 L2.0 -0.1 2.05 0.0 2.85 0.7 4.1 -0.3 Q4.9 -0.6 4.75 -1.15 L4.5 -1.35 4.45 -1.45 4.1 -1.65 3.95 -1.7 3.35 -1.5 3.2 -1.45 2.0 -0.3 M2.35 -3.2 L1.75 -3.9 2.5 -3.45 Q3.25 -2.85 4.05 -2.55 L4.1 -2.8 4.4 -3.05 5.5 -3.7 6.05 -3.8 7.65 -4.2 7.95 -4.25 7.85 -3.75 7.25 -2.55 7.05 -2.2 8.1 -1.6 9.1 -0.95 Q8.45 -0.35 7.45 -0.1 L6.8 0.1 5.15 -0.7 4.8 -0.3 4.25 0.15 3.2 0.85 2.65 1.1 1.5 -0.25 1.1 -0.6 1.4 0.45 1.8 1.75 1.85 2.85 1.75 3.25 0.9 3.35 -0.4 3.95 -2.75 4.2 -4.15 4.0 -5.95 3.45 -6.3 3.2 -5.9 2.55 -5.45 0.9 -6.1 1.5 -7.1 1.25 -8.3 0.6 -8.7 -0.05 -9.1 -1.15 -8.5 -1.9 -8.0 -2.0 -7.2 -2.55 -5.75 -3.4 -5.0 -3.65 -5.6 -3.25 -6.5 -2.7 -7.7 -1.8 -7.15 -1.05 -6.75 -0.55 Q-6.55 -0.35 -6.2 -0.35 L-5.5 -0.2 -5.35 -0.35 -5.15 -1.0 -5.05 -0.95 -4.95 -0.9 -4.95 -0.5 Q-5.05 0.8 -5.4 1.9 L-5.8 3.0 -4.5 3.5 -3.0 3.9 -1.5 3.8 0.0 3.45 1.6 2.9 1.25 1.65 0.85 0.1 0.5 -0.95 0.45 -1.2 0.5 -1.3 0.65 -1.2 1.65 -0.9 1.85 -0.9 2.95 -1.7 3.8 -2.1 3.5 -2.3 2.35 -3.2 M5.15 -1.7 L5.95 -1.5 6.95 -1.1 6.95 -0.85 6.9 -0.8 5.75 -1.15 Q5.1 -1.3 4.95 -1.5 L5.3 -1.1 Q6.15 -0.25 7.1 -0.35 L8.35 -0.95 7.9 -1.35 Q7.15 -2.0 6.3 -1.85 L5.15 -1.7 M-2.05 -2.1 L-1.3 -3.0 -0.95 -3.35 -1.0 -3.05 Q-1.35 -2.3 -1.95 -1.7 L-2.1 -1.75 Q-2.85 -2.55 -3.15 -3.5 L-2.05 -2.1 M-8.25 -1.55 L-8.55 -1.05 -8.0 0.35 -6.5 1.2 -6.25 1.1 -5.9 0.65 -5.85 0.5 -5.95 0.45 -6.2 0.3 -7.15 -0.65 -8.25 -1.55" fill="#000000" fill-rule="evenodd" stroke="none"/>
    </g>
    <g id="sprite2">
      <use ffdec:characterId="22" height="4.55" transform="matrix(1.0, 0.0, 0.0, 1.0, 0.0, 0.0)" width="7.75" xlink:href="#shape2"/>
    </g>
    <g id="shape2">
      <path d="M0.2 -0.85 L0.7 -0.7 Q1.0 -0.7 1.0 -0.95 1.0 -1.3 0.2 -1.3 L-0.15 -1.15 0.2 -0.85 M1.65 -0.9 L1.4 -0.5 1.3 -0.35 0.85 -0.2 Q0.05 -0.75 -0.9 -0.75 L-0.95 -1.3 0.0 -1.5 Q1.15 -1.45 1.55 -1.0 L1.65 -0.9 M-2.05 -2.1 L-2.05 -2.15 -1.95 -1.45 -2.5 -0.8 -2.75 -1.1 -2.05 -2.1" fill="#005d5d" fill-rule="evenodd" stroke="none"/>
      <path d="M0.85 -0.2 L1.3 -0.35 1.4 -0.5 1.65 -0.9 1.95 -0.4 2.0 0.0 1.85 0.8 0.85 -0.2 M-0.95 -1.3 L-0.9 -0.75 -1.95 -0.65 -2.0 -0.1 -2.05 0.7 -2.45 0.1 Q-2.35 -0.45 -2.5 -0.8 L-1.95 -1.45 -1.9 -1.1 -0.95 -1.3 M-2.75 -1.1 L-3.1 -1.3 -2.05 -2.1 -2.75 -1.1" fill="#002a2a" fill-rule="evenodd" stroke="none"/>
      <path d="M0.2 -0.85 L-0.15 -1.15 0.2 -1.3 Q1.0 -1.3 1.0 -0.95 1.0 -0.7 0.7 -0.7 L0.2 -0.85" fill="#3ecaca" fill-rule="evenodd" stroke="none"/>
      <path d="M0.95 0.95 L0.95 1.3 1.05 1.9 -1.45 1.85 -2.15 1.65 -2.15 1.35 -2.1 0.75 0.1 1.1 0.95 0.95" fill="#ffc506" fill-rule="evenodd" stroke="none"/>
      <path d="M1.05 1.9 L0.95 1.3 0.95 0.95 Q2.2 0.65 2.9 -0.05 3.8 -0.95 3.7 0.75 2.45 1.6 1.05 1.9 M-2.1 0.75 L-2.15 1.35 -2.15 1.65 -3.75 1.1 Q-4.15 -0.35 -3.5 -0.2 L-2.1 0.75" fill="#c39600" fill-rule="evenodd" stroke="none"/>
      <path d="M3.65 -0.6 L3.85 0.75 Q1.55 2.95 -1.65 1.95 L-3.8 1.1 Q-4.1 -0.15 -3.65 -0.4 L-2.7 0.2 -2.6 -0.8 -3.1 -1.05 Q-3.55 -1.2 -2.85 -1.8 L-2.1 -2.3 -1.7 -1.3 -0.4 -1.4 -1.7 -0.85 Q0.05 -0.8 0.65 -0.35 L1.7 0.5 1.7 -0.7 Q0.8 -1.4 -0.1 -1.4 L-0.3 -1.45 0.8 -1.5 Q2.3 -1.15 1.95 0.4 L3.2 -0.25 3.35 -0.65 3.65 -0.6 M3.6 0.65 L3.7 0.55 3.6 -0.2 Q2.7 0.2 2.3 0.6 L-2.0 0.8 -3.55 -0.15 Q-4.0 -0.1 -3.7 0.8 -0.55 2.3 1.1 1.85 L3.15 1.05 Q3.5 0.7 3.6 0.65 M0.65 -0.05 L-0.4 -0.6 -1.8 -0.65 -1.8 0.7 1.3 0.65 0.65 -0.05 M-2.3 -2.0 L-3.05 -1.35 -2.4 -1.0 Q-1.95 -0.95 -1.9 -1.2 L-2.3 -2.0 M-2.4 -0.2 L-2.45 0.1 Q-1.9 1.05 -2.05 -0.25 -2.05 -1.35 -2.4 -0.2" fill="#000000" fill-rule="evenodd" stroke="none"/>
    </g>
    <g id="sprite3">
      <use ffdec:characterId="8" height="13.3" transform="matrix(1.0, 0.0, 0.0, 1.0, 0.0, 0.0)" width="18.4" xlink:href="#shape3"/>
    </g>
    <g id="shape3">
      <path d="M6.65 5.55 L6.8 5.7 7.3 6.1 Q7.5 6.4 7.8 5.9 L8.1 5.45 7.55 5.05 7.1 4.65 7.05 4.25 8.25 5.15 Q8.4 5.95 7.85 6.45 L7.55 6.65 7.3 6.75 6.35 5.9 Q6.25 5.65 6.5 5.65 L6.65 5.55" fill="#000000" fill-rule="evenodd" stroke="none"/>
      <path d="M7.55 5.05 L8.1 5.45 7.8 5.9 Q7.5 6.4 7.3 6.1 L7.55 5.05" fill="#c8a369" fill-rule="evenodd" stroke="none"/>
      <path d="M7.3 6.1 L6.8 5.7 6.65 5.55 7.0 4.55 7.1 4.65 7.55 5.05 7.3 6.1" fill="#5c492c" fill-rule="evenodd" stroke="none"/>
      <path d="M4.25 2.15 L5.0 2.75 Q4.85 3.95 3.6 4.0 L3.35 3.65 4.25 2.15" fill="#c8a369" fill-rule="evenodd" stroke="none"/>
      <path d="M4.25 2.15 L3.35 3.65 3.0 3.15 3.95 1.85 4.25 2.15" fill="#5c492c" fill-rule="evenodd" stroke="none"/>
      <path d="M1.9 2.05 L0.75 3.35 0.2 3.05 1.9 2.05 M-0.55 2.6 L-0.9 2.6 -2.2 1.8 -2.2 1.55 -2.1 1.55 -1.8 1.65 -0.5 2.5 -0.5 2.6 -0.55 2.6 M-4.45 -0.15 L-4.6 -0.2 Q-5.3 -0.4 -5.65 -1.35 -5.4 -2.35 -4.3 -0.4 L-4.45 -0.15 M-6.6 -2.4 Q-7.45 -3.05 -8.1 -4.15 L-8.2 -4.35 -8.35 -4.5 -9.3 -5.05 -9.5 -4.5 -9.4 -4.15 -9.4 -4.05 Q-9.8 -4.25 -9.8 -4.85 L-9.65 -5.2 -9.6 -5.3 -9.45 -5.3 -9.25 -5.45 -8.45 -5.1 -7.85 -4.6 -5.85 -4.05 -5.85 -3.95 -6.25 -3.95 -7.5 -4.3 -7.4 -4.15 -6.0 -2.1 -6.0 -2.05 -6.6 -2.4 M-1.6 -5.15 L-1.2 -4.8 0.65 -3.2 0.9 -2.9 1.75 -1.8 1.55 -1.65 Q1.15 -1.7 -0.05 -3.3 L-1.45 -4.5 -1.7 -4.75 -1.6 -5.15 M-2.75 -3.55 L-2.1 -2.95 0.95 0.1 0.95 0.15 0.8 0.25 0.7 0.3 -1.15 -1.6 -3.05 -3.35 -3.1 -3.4 Q-3.0 -3.4 -2.75 -3.55 M-6.25 -0.05 L-5.4 0.9 -4.45 1.8 -5.65 1.0 -6.35 -0.05 -6.25 -0.05 M-2.85 -4.9 L-2.8 -5.05 -2.7 -4.9 -2.65 -4.85 Q-2.65 -4.6 -2.8 -4.55 L-3.0 -4.55 -3.05 -4.75 -2.85 -4.9 M-2.15 -5.2 L-2.15 -5.3 -2.1 -5.75 -1.75 -5.6 -1.7 -5.4 -2.15 -4.55 Q-2.7 -3.9 -3.0 -3.9 L-3.2 -3.95 -2.4 -4.75 -2.15 -5.2 M-4.35 -3.3 Q-4.65 -3.3 -5.35 -3.65 -5.2 -3.95 -4.9 -3.85 L-4.3 -3.55 -4.35 -3.3 M-0.3 4.5 Q-0.3 4.7 -0.65 4.7 -1.2 4.7 -2.2 3.3 L-2.3 3.15 -0.35 4.3 -0.3 4.5" fill="#ffffff" fill-rule="evenodd" stroke="none"/>
      <path d="M-2.85 -4.9 L-2.95 -5.25 -2.1 -6.0 -1.75 -6.0 -1.75 -5.6 -2.1 -5.75 -2.15 -5.3 -2.15 -5.2 -2.7 -4.9 -2.8 -5.05 -2.85 -4.9" fill="#ffa2cb" fill-rule="evenodd" stroke="none"/>
      <path d="M2.9 -2.3 L2.8 -1.9 Q2.55 0.2 1.9 2.05 L0.2 3.05 0.1 2.95 -0.55 2.6 -0.5 2.6 -0.5 2.5 -1.8 1.65 -2.1 1.55 -4.45 -0.15 -4.3 -0.4 Q-5.4 -2.35 -5.65 -1.35 L-6.6 -2.4 -6.0 -2.05 -6.0 -2.1 -7.4 -4.15 -7.5 -4.3 -6.25 -3.95 -4.75 -2.15 Q-3.1 -0.35 0.05 1.7 L0.8 0.25 0.95 0.15 0.95 0.1 -2.1 -2.95 -2.75 -3.55 -2.5 -3.8 -2.45 -3.8 1.35 -0.75 1.9 -2.05 0.9 -2.9 0.65 -3.2 -1.2 -4.8 -1.6 -5.15 -1.6 -5.85 -1.55 -5.9 -1.4 -6.1 1.45 -3.65 2.9 -2.3" fill="#ffc0d9" fill-rule="evenodd" stroke="none"/>
      <path d="M2.9 -2.3 L4.3 -0.35 Q4.75 0.45 3.35 3.0 1.95 5.55 -1.45 5.1 -1.6 4.25 -4.4 2.2 -7.2 0.2 -8.65 -1.9 -9.7 -3.5 -9.8 -4.35 L-9.8 -4.85 Q-9.8 -4.25 -9.4 -4.05 L-9.4 -4.15 -9.5 -4.5 -9.3 -5.05 -8.35 -4.5 -8.2 -4.35 -8.1 -4.15 Q-7.45 -3.05 -6.6 -2.4 L-5.65 -1.35 Q-5.3 -0.4 -4.6 -0.2 L-4.45 -0.15 -2.1 1.55 -2.2 1.55 -2.2 1.8 -0.9 2.6 -0.55 2.6 0.1 2.95 0.2 3.05 0.75 3.35 1.9 2.05 Q2.55 0.2 2.8 -1.9 L2.9 -2.3 M-9.8 -4.85 L-9.75 -5.2 -9.75 -5.3 -9.6 -5.85 -9.45 -5.9 -8.55 -5.3 -7.8 -4.95 -6.8 -4.65 -6.5 -4.6 -6.3 -4.55 -4.9 -4.15 -4.85 -4.15 -4.45 -4.25 -4.4 -4.3 -4.25 -4.3 -4.15 -4.3 -4.05 -4.3 -3.65 -4.6 -3.5 -4.65 -3.35 -4.95 -3.15 -5.2 -3.0 -5.6 -2.95 -5.7 -2.5 -5.9 -2.05 -6.1 -1.6 -6.25 -1.4 -6.1 -1.55 -5.9 -1.6 -5.85 -1.6 -5.15 -1.7 -4.75 -1.45 -4.5 -0.05 -3.3 Q1.15 -1.7 1.55 -1.65 L1.75 -1.8 0.9 -2.9 1.9 -2.05 1.35 -0.75 -2.45 -3.8 -2.5 -3.8 -2.75 -3.55 Q-3.0 -3.4 -3.1 -3.4 L-3.05 -3.35 -1.15 -1.6 0.7 0.3 0.8 0.25 0.05 1.7 Q-3.1 -0.35 -4.75 -2.15 L-6.25 -3.95 -5.85 -3.95 -5.85 -4.05 -7.85 -4.6 -8.45 -5.1 -9.25 -5.45 -9.45 -5.3 -9.6 -5.3 -9.65 -5.2 -9.8 -4.85 M-6.25 -0.05 L-6.35 -0.05 -5.65 1.0 -4.45 1.8 -5.4 0.9 -6.25 -0.05 M-1.75 -5.6 L-1.75 -6.0 -2.1 -6.0 -2.95 -5.25 -2.85 -4.9 -3.05 -4.75 -3.0 -4.55 -2.8 -4.55 Q-2.65 -4.6 -2.65 -4.85 L-2.7 -4.9 -2.15 -5.2 -2.4 -4.75 -3.2 -3.95 -3.0 -3.9 Q-2.7 -3.9 -2.15 -4.55 L-1.7 -5.4 -1.75 -5.6 M-4.35 -3.3 L-4.3 -3.55 -4.9 -3.85 Q-5.2 -3.95 -5.35 -3.65 -4.65 -3.3 -4.35 -3.3 M-0.3 4.5 L-0.35 4.3 -2.3 3.15 -2.2 3.3 Q-1.2 4.7 -0.65 4.7 -0.3 4.7 -0.3 4.5" fill="#f871ad" fill-rule="evenodd" stroke="none"/>
      <path d="M2.55 -2.95 L4.6 0.05 4.15 1.7 5.1 2.5 Q5.15 4.0 3.85 4.3 L3.0 3.7 Q2.05 5.0 -0.15 5.75 -2.25 4.85 -4.05 3.05 L-8.75 -1.6 -9.7 -2.9 -10.1 -4.85 -9.45 -6.15 -8.2 -5.1 -8.1 -4.95 -9.45 -5.4 -9.45 -4.9 -9.1 -2.9 -8.4 -1.9 -4.35 2.05 -1.6 4.4 Q-0.65 5.3 1.1 4.65 2.85 4.0 3.75 2.1 4.6 0.2 3.65 -1.1 L1.7 -3.3 -1.15 -5.8 -1.3 -5.1 Q-1.7 -4.15 -2.45 -3.6 -3.15 -3.05 -4.05 -3.6 L-6.85 -4.65 -5.9 -4.55 -4.85 -4.15 -3.6 -4.75 -3.4 -4.95 Q-3.0 -6.2 -1.75 -6.5 L-1.55 -6.55 1.7 -3.85 2.55 -2.95 M3.8 2.1 L3.05 3.25 3.75 3.85 Q5.05 3.55 4.7 2.6 L3.8 2.1 M-3.35 -4.75 L-4.6 -4.0 -3.75 -3.7 Q-2.75 -3.05 -1.9 -4.65 L-1.55 -6.0 -2.5 -6.0 -3.35 -4.75" fill="#000000" fill-rule="evenodd" stroke="none"/>
    </g>
  </defs>
</svg>
