<?xml version="1.0" encoding="UTF-8" standalone="no"?>
<svg xmlns:ffdec="https://www.free-decompiler.com/flash" xmlns:xlink="http://www.w3.org/1999/xlink" ffdec:objectType="frame" height="26.5px" width="43.15px" xmlns="http://www.w3.org/2000/svg">
  <g transform="matrix(1.0, 0.0, 0.0, 1.0, 32.05, -5.05)">
    <use ffdec:characterId="16" height="5.75" transform="matrix(1.0, 0.0, 0.0, 1.0, 6.0, 28.65)" width="9.3" xlink:href="#sprite0"/>
    <use ffdec:characterId="16" height="5.75" transform="matrix(-1.0, 0.0, 0.0, 1.0, -6.2, 28.65)" width="9.3" xlink:href="#sprite0"/>
    <use ffdec:characterId="28" height="5.45" transform="matrix(1.0, 0.0, 0.0, 1.0, 0.2, 22.35)" width="9.6" xlink:href="#sprite1"/>
    <use ffdec:characterId="4" height="8.45" transform="matrix(-1.0, 0.0, 0.0, 1.0, 6.95, 19.45)" width="8.25" xlink:href="#sprite2"/>
    <use ffdec:characterId="4" height="8.45" transform="matrix(1.0, 0.0, 0.0, 1.0, -6.25, 19.45)" width="8.25" xlink:href="#sprite2"/>
    <use ffdec:characterId="6" height="7.35" transform="matrix(1.0, 0.0, 0.0, 1.0, 0.25, 18.95)" width="7.95" xlink:href="#sprite3"/>
    <use ffdec:characterId="8" height="4.35" transform="matrix(0.9444, 0.3287, -0.3287, 0.9444, -1.5, 19.8)" width="1.7" xlink:href="#sprite4"/>
    <use ffdec:characterId="8" height="4.35" transform="matrix(0.9525, -0.3044, 0.3044, 0.9525, 2.2, 19.75)" width="1.7" xlink:href="#sprite4"/>
    <use ffdec:characterId="14" height="22.75" transform="matrix(1.0, 0.0, 0.0, 1.0, -18.9, 18.25)" width="22.55" xlink:href="#sprite5"/>
    <use ffdec:characterId="26" height="2.25" transform="matrix(1.0, 0.0, 0.0, 1.0, -7.35, 25.2)" width="2.95" xlink:href="#sprite8"/>
  </g>
  <defs>
    <g id="sprite0">
      <use ffdec:characterId="15" height="5.75" transform="matrix(1.0, 0.0, 0.0, 1.0, 0.0, 0.0)" width="9.3" xlink:href="#shape0"/>
    </g>
    <g id="shape0">
      <path d="M-3.5 -1.6 Q-3.05 -0.9 -3.45 0.25 L-3.4 0.35 -0.2 1.05 Q2.35 1.2 3.95 -0.25 L4.35 1.25 Q4.15 1.95 1.25 2.55 -1.65 3.1 -4.1 1.4 L-4.35 -0.4 Q-4.55 -1.85 -3.95 -1.75 L-3.5 -1.6 M-0.65 -0.8 L0.1 0.45 -1.25 0.35 -1.0 -0.3 -0.65 -0.8" fill="#999999" fill-rule="evenodd" stroke="none"/>
      <path d="M-3.5 -1.6 L-2.8 -1.35 -1.0 -1.0 Q-1.2 -1.8 -0.25 -2.45 L0.4 -2.35 Q2.3 -2.35 3.75 -0.85 L3.95 -0.25 Q2.35 1.2 -0.2 1.05 L-3.4 0.35 -3.45 0.25 Q-3.05 -0.9 -3.5 -1.6 M-0.65 -0.8 L-1.0 -0.3 -1.25 0.35 0.1 0.45 -0.65 -0.8" fill="#ffffff" fill-rule="evenodd" stroke="none"/>
      <path d="M4.4 -0.25 Q4.8 0.7 4.5 1.6 2.35 2.95 -0.1 2.9 -2.55 2.85 -3.95 1.9 L-4.6 1.5 Q-4.25 -0.05 -4.65 -1.5 L-3.9 -1.9 -4.05 -1.65 -4.3 -1.2 Q-3.9 0.0 -4.05 1.4 -0.9 2.9 1.55 2.4 3.95 1.85 4.15 1.0 3.95 -1.7 1.0 -2.25 L-0.05 -2.35 Q-0.95 -1.85 -0.75 -0.8 L-3.85 -1.45 -3.8 -1.85 -1.3 -1.05 Q-1.2 -2.05 -0.5 -2.75 L0.7 -2.85 Q1.7 -2.85 2.85 -2.0 3.95 -1.2 4.4 -0.25" fill="#0e0e0e" fill-rule="evenodd" stroke="none"/>
    </g>
    <g id="sprite1">
      <use ffdec:characterId="27" height="5.45" transform="matrix(1.0, 0.0, 0.0, 1.0, 0.0, 0.0)" width="9.6" xlink:href="#shape1"/>
    </g>
    <g id="shape1">
      <path d="M-3.55 -1.4 L-2.85 -2.05 Q-2.55 -2.4 -1.65 -2.45 L-0.1 -2.55 2.45 -2.85 Q3.05 -2.85 3.65 -1.7 L3.75 -1.45 4.4 0.3 4.25 1.0 Q4.0 1.55 3.55 1.55 L3.05 1.5 2.65 1.4 Q2.35 1.4 1.95 1.7 L1.35 2.0 Q0.5 2.0 0.9 0.35 L-0.35 0.3 -0.8 0.3 -1.05 1.3 Q-1.4 2.1 -2.35 2.2 -3.3 2.3 -3.8 1.25 L-4.3 -0.15 -4.1 -0.85 Q-3.8 0.5 -3.0 0.9 L-1.75 1.1 Q-1.35 0.95 -1.55 0.5 -1.75 0.0 -0.5 -0.4 0.7 -0.85 1.8 0.95 L3.75 0.2 3.35 -1.3 Q0.25 -0.35 -2.85 -1.2 L-3.55 -1.4" fill="#660000" fill-rule="evenodd" stroke="none"/>
      <path d="M-4.1 -0.85 L-3.55 -1.4 -2.85 -1.2 Q0.25 -0.35 3.35 -1.3 L3.75 0.2 1.8 0.95 Q0.7 -0.85 -0.5 -0.4 -1.75 0.0 -1.55 0.5 -1.35 0.95 -1.75 1.1 L-3.0 0.9 Q-3.8 0.5 -4.1 -0.85" fill="#990000" fill-rule="evenodd" stroke="none"/>
      <path d="M-1.6 -0.25 L1.35 -0.15 0.95 0.35 0.9 1.8 2.0 1.6 2.6 0.75 3.65 1.45 Q4.8 0.05 4.0 -0.65 3.2 -1.4 2.65 -2.6 3.95 -1.75 4.45 -0.55 L4.8 0.3 4.25 1.45 Q3.7 2.0 3.4 1.85 L2.7 1.6 Q2.35 1.5 1.75 2.6 L0.65 2.15 0.55 0.55 -0.65 0.55 -1.05 2.1 -2.75 2.55 -3.3 1.95 -3.75 1.85 -4.8 -0.35 -2.65 -2.5 -2.95 -1.8 -3.35 -1.25 -4.3 -0.3 -3.45 1.45 -2.45 1.55 -2.55 1.7 -2.55 1.9 -2.5 2.1 -1.35 1.65 -1.0 0.5 -1.6 -0.25" fill="#0e0e0e" fill-rule="evenodd" stroke="none"/>
    </g>
    <g id="sprite2">
      <use ffdec:characterId="3" height="8.45" transform="matrix(1.0, 0.0, 0.0, 1.0, 0.0, 0.0)" width="8.25" xlink:href="#shape2"/>
    </g>
    <g id="shape2">
      <path d="M1.75 -3.2 Q2.15 -3.35 2.25 -2.25 2.3 -1.2 1.95 -0.9 L0.95 -0.7 0.7 1.15 Q-0.5 2.2 -2.2 -0.5 -1.1 2.35 -2.9 1.45 L-3.55 0.0 -2.4 -0.8 Q-0.5 -2.15 1.75 -3.2" fill="#f0f5fb" fill-rule="evenodd" stroke="none"/>
      <path d="M1.75 -3.2 L2.85 -4.15 4.1 -3.75 3.9 -2.25 Q3.25 0.7 0.75 2.4 L0.2 2.35 -0.6 3.8 Q-2.05 2.95 -2.9 1.45 -1.1 2.35 -2.2 -0.5 -0.5 2.2 0.7 1.15 L0.95 -0.7 1.95 -0.9 Q2.3 -1.2 2.25 -2.25 2.15 -3.35 1.75 -3.2" fill="#a2aec0" fill-rule="evenodd" stroke="none"/>
      <path d="M3.8 -1.55 Q3.35 -0.15 1.05 2.7 L0.45 2.55 0.15 3.4 Q-0.2 4.25 -0.5 4.25 L-2.55 2.15 -4.15 0.05 -2.85 -0.4 -2.25 -1.65 Q0.5 -2.3 2.85 -4.2 2.3 -3.3 1.4 -2.7 L-2.45 -0.35 -2.45 -0.3 -2.85 0.05 -3.45 0.25 -2.1 2.0 -0.6 3.65 0.05 2.4 0.05 2.35 0.05 2.15 0.75 2.25 1.0 2.1 1.2 1.95 Q1.85 1.35 2.5 0.05 L3.45 -1.95 3.65 -2.4 3.9 -2.65 Q4.2 -3.0 3.8 -1.55" fill="#000000" fill-rule="evenodd" stroke="none"/>
    </g>
    <g id="sprite3">
      <use ffdec:characterId="5" height="7.35" transform="matrix(1.0, 0.0, 0.0, 1.0, 0.0, 0.0)" width="7.95" xlink:href="#shape3"/>
    </g>
    <g id="shape3">
      <path d="M3.4 -3.3 L3.0 -3.65 Q1.45 -3.2 1.25 -1.75 L2.25 -1.6 2.55 -1.8 Q3.6 -2.25 3.4 -3.3 M2.65 -4.1 Q3.7 -4.1 3.7 -3.15 3.65 -2.0 3.1 -1.05 L3.35 1.3 2.6 2.25 Q2.3 2.65 0.15 2.8 -2.05 2.95 -3.35 1.5 L-3.0 -1.35 -3.55 -1.95 -3.95 -2.75 -3.7 -3.55 -2.95 -4.0 -1.65 -3.3 0.05 -1.85 Q1.0 -3.05 2.65 -4.1 M-1.05 -1.9 L-1.45 -2.7 Q-2.05 -3.6 -3.25 -3.6 L-3.65 -2.8 Q-2.7 -0.95 -1.05 -1.75 L-1.05 -1.9 M0.95 0.25 L0.8 0.9 -1.0 1.9 -0.15 2.05 Q1.3 1.9 2.45 1.05 L2.55 0.55 2.6 0.15 2.55 -0.5 -2.45 -0.85 -2.8 0.95 Q-0.75 1.1 0.95 0.25" fill="#a2aec0" fill-rule="evenodd" stroke="none"/>
      <path d="M3.4 -3.3 Q3.6 -2.25 2.55 -1.8 L2.25 -1.6 1.25 -1.75 Q1.45 -3.2 3.0 -3.65 L3.4 -3.3 M0.95 0.25 Q-0.75 1.1 -2.8 0.95 L-2.45 -0.85 2.55 -0.5 2.6 0.15 2.55 0.55 2.45 1.05 Q1.3 1.9 -0.15 2.05 L-1.0 1.9 0.8 0.9 0.95 0.25 M-1.05 -1.9 L-1.05 -1.75 Q-2.7 -0.95 -3.65 -2.8 L-3.25 -3.6 Q-2.05 -3.6 -1.45 -2.7 L-1.05 -1.9" fill="#ffffff" fill-rule="evenodd" stroke="none"/>
      <path d="M-3.75 -2.35 L-2.65 -1.35 Q-2.1 -0.95 -1.5 -1.0 -0.9 -1.05 -0.2 -1.75 -1.1 -3.2 -3.25 -3.95 L-3.75 -2.35 M2.85 -1.05 Q1.7 -0.25 0.9 -0.6 L-0.05 -1.25 Q-1.6 0.2 -2.5 -0.95 L-3.3 1.45 Q-1.75 2.4 -0.05 2.7 1.6 3.0 3.2 1.45 3.3 0.35 2.85 -1.05 M3.1 -1.85 L3.5 -3.0 2.5 -3.95 0.05 -1.55 Q1.55 -0.1 3.1 -1.85 M3.7 -3.65 L3.85 -3.25 Q4.0 -2.0 3.1 -1.25 L3.6 1.65 Q1.7 3.15 -0.15 3.05 -2.4 2.9 -3.75 1.25 L-2.95 -1.2 -4.1 -2.2 Q-4.15 -3.45 -3.4 -4.3 -1.6 -3.6 -0.05 -2.25 L2.6 -4.3 3.5 -4.05 3.7 -3.65" fill="#000000" fill-rule="evenodd" stroke="none"/>
    </g>
    <g id="sprite4">
      <use ffdec:characterId="7" height="4.35" transform="matrix(1.0, 0.0, 0.0, 1.0, 0.0, 0.0)" width="1.7" xlink:href="#shape4"/>
    </g>
    <g id="shape4">
      <path d="M-0.35 1.2 L-0.4 -0.05 -0.35 -1.25 Q-0.2 -2.2 0.3 -1.5 L0.4 0.55 0.4 0.95 0.35 0.95 -0.35 1.2" fill="#170e03" fill-rule="evenodd" stroke="none"/>
      <path d="M0.4 0.95 Q1.0 1.0 0.95 1.7 L0.7 2.25 0.0 2.55 Q-0.7 2.55 -0.75 1.75 L-0.45 1.25 -0.35 1.2 0.35 0.95 0.4 0.95" fill="#ff6699" fill-rule="evenodd" stroke="none"/>
    </g>
    <g id="sprite5">
      <use ffdec:characterId="9" height="15.45" transform="matrix(1.0, 0.0, 0.0, 1.0, 0.0, 0.0)" width="17.3" xlink:href="#shape5"/>
      <use ffdec:characterId="11" height="37.95" transform="matrix(0.2516, -0.3279, 0.3279, 0.2516, -1.95, -1.85)" width="40.35" xlink:href="#sprite6"/>
      <use ffdec:characterId="13" height="27.35" transform="matrix(0.2516, -0.3279, 0.3279, 0.2516, -5.05, -4.7)" width="37.55" xlink:href="#sprite7"/>
    </g>
    <g id="shape5">
      <path d="M8.3 4.95 Q7.7 6.0 7.3 6.0 L-1.3 4.1 Q-1.6 -1.1 4.3 -3.0 L7.55 1.9 8.9 3.7 8.3 4.95" fill="#74511b" fill-rule="evenodd" stroke="none"/>
      <path d="M4.2 -3.25 L6.8 0.4 9.0 3.4 Q8.9 4.9 8.45 5.45 7.95 6.0 6.95 6.35 L2.95 5.7 -1.5 4.3 Q-1.7 1.3 0.5 -0.85 1.75 -1.9 3.25 -2.75 L4.2 -3.25 M8.75 3.45 L5.75 -0.15 4.4 -2.25 Q4.45 0.1 3.4 1.75 2.3 3.35 -0.65 4.25 3.3 4.95 6.95 5.95 8.1 5.7 8.75 3.45 M-1.15 3.85 Q0.8 3.7 2.15 2.5 4.3 0.6 4.05 -2.75 1.45 -1.6 0.15 0.15 -1.2 1.9 -1.15 3.85" fill="#0e0e0e" fill-rule="evenodd" stroke="none"/>
      <path d="M5.75 -1.2 L5.45 2.05 6.85 1.95 Q7.05 0.8 7.4 0.8 7.7 0.8 7.7 1.15 L7.65 1.9 7.7 1.9 Q8.35 1.9 8.35 2.25 L7.65 2.65 7.55 2.7 7.35 3.9 9.05 3.65 Q9.3 3.65 9.3 3.95 9.3 4.3 8.35 4.45 L7.25 4.6 6.6 7.05 Q6.3 7.05 6.25 6.65 L6.55 4.7 6.3 4.7 5.0 4.9 Q4.6 6.75 4.2 6.75 3.85 6.75 3.85 6.3 L4.15 5.0 1.1 5.35 Q0.75 5.35 0.7 5.15 0.85 4.8 2.3 4.55 L4.3 4.3 4.6 2.85 3.55 2.9 0.7 3.2 Q0.05 3.2 0.05 2.9 0.05 2.5 2.45 2.25 L4.7 2.1 4.75 1.7 4.95 -0.7 Q5.15 -2.0 5.45 -2.1 5.75 -2.15 5.75 -1.2 M6.7 2.75 L5.35 2.8 5.3 2.95 5.1 4.2 6.6 4.0 6.6 3.65 6.7 2.75" fill="#d2922f" fill-rule="evenodd" stroke="none"/>
      <path d="M-6.2 -1.2 L-5.55 -0.3 Q-4.2 1.9 -2.75 5.3 -4.6 4.65 -5.55 3.25 -7.0 1.3 -6.2 -1.2 M-3.85 -7.75 L-4.95 -6.65 -5.25 -6.15 -5.4 -5.9 Q-6.3 -4.3 -6.35 -2.2 -7.75 -7.15 -3.85 -7.75 M-2.3 -8.4 L-1.3 -7.85 Q-1.15 -6.55 -1.45 -5.1 L-2.5 -0.15 Q-3.15 -1.25 -3.35 -2.5 -3.9 -5.25 -2.95 -8.0 L-2.3 -8.4" fill="#342715" fill-rule="evenodd" stroke="none"/>
      <path d="M2.15 -4.05 L1.7 -4.45 1.55 -5.0 Q1.55 -5.6 2.0 -5.2 L2.45 -4.35 2.15 -4.05 M1.3 -5.55 Q-0.4 -5.7 -1.9 -6.3 L-2.75 -6.7 -2.05 -7.15 Q-0.25 -7.15 1.2 -6.55 L1.3 -5.55 M-4.4 -6.25 Q-4.4 -5.95 -5.25 -5.55 L-6.3 -5.05 -6.85 -4.35 -7.45 -3.85 Q-7.75 -3.85 -7.75 -4.1 -7.75 -4.7 -6.8 -5.6 -5.75 -6.6 -4.75 -6.6 -4.4 -6.6 -4.4 -6.25 M-7.6 -0.25 L-7.4 0.5 Q-6.7 1.55 -6.7 1.8 -6.7 2.15 -7.0 2.15 -7.65 2.15 -8.0 -0.2 L-7.85 -0.95 -7.6 -0.25" fill="#ffffff" fill-rule="evenodd" stroke="none"/>
    </g>
    <g id="sprite6">
      <use ffdec:characterId="10" height="37.95" transform="matrix(1.0, 0.0, 0.0, 1.0, 0.0, 0.0)" width="40.35" xlink:href="#shape6"/>
    </g>
    <g id="shape6">
      <path d="M-6.75 -13.3 L-6.6 -13.25 Q-5.4 -13.5 -4.35 -14.4 -3.9 -14.8 -3.1 -14.8 L-0.45 -15.0 2.2 -15.15 4.7 -14.7 4.65 -14.65 Q3.85 -14.25 2.9 -14.35 1.85 -14.15 1.4 -13.35 L-0.05 -13.6 Q-1.7 -13.55 -2.75 -12.25 L2.35 -13.45 3.05 -13.15 5.0 -13.1 7.7 -13.3 8.85 -12.9 11.4 -11.55 6.95 -11.7 5.65 -11.5 Q5.05 -11.4 4.9 -10.85 L5.1 -10.7 Q6.25 -11.3 7.5 -11.0 9.4 -10.9 11.05 -10.0 11.35 -9.8 11.8 -9.75 12.75 -9.75 13.55 -9.35 L12.3 -9.25 Q9.95 -9.25 7.95 -8.15 L6.6 -8.15 6.0 -7.7 5.5 -7.7 5.15 -7.55 4.8 -7.35 4.9 -7.1 6.15 -7.1 6.7 -7.5 Q7.95 -7.35 9.2 -7.9 L11.15 -8.05 Q11.15 -8.4 11.3 -8.35 L12.8 -8.45 Q14.85 -8.35 15.1 -6.25 L13.3 -6.4 12.95 -6.05 15.5 -3.9 15.55 -2.4 13.9 -3.3 14.1 -2.7 14.8 -1.75 Q14.8 -1.15 14.95 -0.5 L15.3 0.1 Q14.6 4.3 11.9 7.65 11.95 4.75 10.4 2.15 L10.15 2.2 9.95 2.2 9.75 2.0 8.85 2.0 Q7.55 2.85 6.2 2.8 L3.45 2.95 1.8 3.7 0.7 4.05 0.35 4.0 Q0.05 3.6 0.55 3.25 2.05 2.15 4.0 2.15 L7.85 1.55 Q8.15 1.35 8.5 1.2 L9.8 1.1 8.5 -0.6 9.05 -1.6 Q10.35 -2.6 12.05 -2.9 13.1 -2.75 13.55 -3.25 L13.6 -3.5 Q13.25 -4.2 12.45 -4.05 9.8 -3.75 7.25 -2.6 L6.3 -2.3 4.3 -2.0 3.7 -2.7 1.9 -1.1 1.4 -0.85 Q2.7 -2.6 4.7 -3.45 5.05 -3.55 5.4 -3.8 L6.15 -4.65 9.3 -5.75 9.5 -6.0 9.45 -6.2 9.35 -6.4 9.0 -6.5 6.2 -5.85 3.0 -4.55 0.2 -5.05 0.85 -5.5 1.9 -5.9 0.55 -6.75 Q1.85 -8.05 3.45 -8.4 L6.0 -8.9 4.55 -9.1 1.7 -8.2 -0.85 -7.3 -2.2 -7.05 -6.35 -5.55 Q-7.15 -5.15 -7.55 -4.45 -8.1 -3.45 -9.1 -3.45 L-9.35 -3.6 -9.4 -3.75 -9.5 -4.1 Q-8.45 -6.2 -5.9 -6.3 L-5.35 -6.6 -4.6 -6.85 -3.8 -7.15 Q-2.6 -7.75 -1.15 -7.85 L-1.9 -8.3 0.65 -9.75 2.6 -9.9 2.95 -10.1 2.65 -10.5 Q-0.3 -10.7 -3.1 -9.5 L-3.75 -9.3 Q-4.85 -10.0 -6.0 -9.6 L-7.6 -9.2 -9.3 -8.65 -10.05 -8.45 -10.65 -8.45 -11.35 -7.85 -11.95 -7.1 -12.0 -7.05 Q-11.95 -7.9 -11.05 -8.6 L-8.2 -10.4 Q-10.1 -10.95 -11.95 -10.4 L-11.95 -11.1 Q-8.9 -13.45 -5.1 -14.55 L-6.75 -13.3" fill="#ffe0e0" fill-rule="evenodd" stroke="none"/>
      <path d="M-15.8 -9.2 Q-14.8 -10.95 -13.45 -12.3 -11.95 -13.9 -9.9 -14.95 -6.65 -16.65 -3.2 -17.6 L1.5 -18.0 6.1 -17.1 Q8.25 -16.5 10.15 -15.35 L14.15 -12.7 Q16.3 -11.3 17.5 -8.8 18.8 -6.05 18.6 -3.05 18.4 -0.15 17.6 2.5 L17.5 2.85 14.0 6.8 Q11.9 9.4 9.65 10.8 L19.55 8.8 Q20.25 12.15 16.95 13.05 L14.15 13.1 13.35 13.85 12.75 14.1 10.05 12.95 Q9.15 15.95 5.7 15.2 L4.7 14.8 4.6 14.9 4.65 14.4 3.8 14.65 Q1.3 15.7 -1.45 15.4 L-1.55 15.4 Q1.45 13.05 5.9 11.3 1.35 10.4 -1.05 8.85 L-1.8 8.4 Q-0.7 8.2 -0.5 7.7 -0.15 6.85 1.0 6.45 L3.0 5.5 Q4.0 5.05 5.5 5.0 L5.5 4.85 5.35 4.6 Q2.7 4.8 -0.25 5.7 L-2.6 6.65 -2.5 6.75 Q-2.7 7.15 -6.6 8.5 -7.4 8.5 -7.3 7.7 -7.3 6.1 -5.55 4.55 L-5.45 4.5 -4.85 2.6 Q-4.2 0.9 -2.15 -0.1 L-0.25 -1.1 Q-0.25 -2.25 -2.3 -1.2 -4.35 -0.2 -5.6 1.4 L-5.95 2.45 Q-6.1 2.95 -6.65 3.15 -7.25 3.35 -7.9 3.8 L-8.1 4.05 -9.55 2.9 -9.95 2.65 -10.4 3.35 -10.75 4.15 -10.95 4.9 Q-11.2 5.5 -11.45 5.5 L-11.85 5.35 -11.9 4.5 Q-11.9 2.5 -11.1 1.75 L-10.95 1.65 -11.05 1.55 -10.4 1.0 Q-10.0 0.2 -9.35 0.0 L-8.25 -0.45 -7.15 -2.05 Q-6.5 -3.05 -5.4 -3.4 -6.15 -3.4 -7.5 -2.4 -8.9 -1.4 -10.2 -1.25 L-12.2 0.2 -12.6 -0.3 -12.85 0.0 Q-14.05 1.85 -14.7 1.85 -15.2 1.85 -15.4 0.8 -15.4 0.1 -13.55 -1.4 L-13.4 -1.5 -13.3 -1.8 -12.7 -3.2 -11.9 -3.0 Q-11.05 -3.0 -10.75 -4.05 L-10.3 -5.4 -8.4 -6.6 -6.85 -7.7 -7.1 -7.85 -10.4 -6.8 Q-11.3 -6.4 -12.35 -4.85 -13.35 -4.85 -14.1 -3.2 L-14.15 -3.0 Q-15.05 -4.85 -15.45 -6.95 L-15.8 -9.2 M-6.75 -13.3 L-5.1 -14.55 Q-8.9 -13.45 -11.95 -11.1 L-11.95 -10.4 Q-10.1 -10.95 -8.2 -10.4 L-11.05 -8.6 Q-11.95 -7.9 -12.0 -7.05 L-11.95 -7.1 -11.35 -7.85 -10.65 -8.45 -10.05 -8.45 -9.3 -8.65 -7.6 -9.2 -6.0 -9.6 Q-4.85 -10.0 -3.75 -9.3 L-3.1 -9.5 Q-0.3 -10.7 2.65 -10.5 L2.95 -10.1 2.6 -9.9 0.65 -9.75 -1.9 -8.3 -1.15 -7.85 Q-2.6 -7.75 -3.8 -7.15 L-4.6 -6.85 -5.35 -6.6 -5.9 -6.3 Q-8.45 -6.2 -9.5 -4.1 L-9.4 -3.75 -9.35 -3.6 -9.1 -3.45 Q-8.1 -3.45 -7.55 -4.45 -7.15 -5.15 -6.35 -5.55 L-2.2 -7.05 -0.85 -7.3 1.7 -8.2 4.55 -9.1 6.0 -8.9 3.45 -8.4 Q1.85 -8.05 0.55 -6.75 L1.9 -5.9 0.85 -5.5 0.2 -5.05 3.0 -4.55 6.2 -5.85 9.0 -6.5 9.35 -6.4 9.45 -6.2 9.5 -6.0 9.3 -5.75 6.15 -4.65 5.4 -3.8 Q5.05 -3.55 4.7 -3.45 2.7 -2.6 1.4 -0.85 L1.9 -1.1 3.7 -2.7 4.3 -2.0 6.3 -2.3 7.25 -2.6 Q9.8 -3.75 12.45 -4.05 13.25 -4.2 13.6 -3.5 L13.55 -3.25 Q13.1 -2.75 12.05 -2.9 10.35 -2.6 9.05 -1.6 L8.5 -0.6 9.8 1.1 8.5 1.2 Q8.15 1.35 7.85 1.55 L4.0 2.15 Q2.05 2.15 0.55 3.25 0.05 3.6 0.35 4.0 L0.7 4.05 1.8 3.7 3.45 2.95 6.2 2.8 Q7.55 2.85 8.85 2.0 L9.75 2.0 9.95 2.2 10.15 2.2 10.4 2.15 Q11.95 4.75 11.9 7.65 14.6 4.3 15.3 0.1 L14.95 -0.5 Q14.8 -1.15 14.8 -1.75 L14.1 -2.7 13.9 -3.3 15.55 -2.4 15.5 -3.9 12.95 -6.05 13.3 -6.4 15.1 -6.25 Q14.85 -8.35 12.8 -8.45 L11.3 -8.35 Q11.15 -8.4 11.15 -8.05 L9.2 -7.9 Q7.95 -7.35 6.7 -7.5 L6.15 -7.1 4.9 -7.1 4.8 -7.35 5.15 -7.55 5.5 -7.7 6.0 -7.7 6.6 -8.15 7.95 -8.15 Q9.95 -9.25 12.3 -9.25 L13.55 -9.35 Q12.75 -9.75 11.8 -9.75 11.35 -9.8 11.05 -10.0 9.4 -10.9 7.5 -11.0 6.25 -11.3 5.1 -10.7 L4.9 -10.85 Q5.05 -11.4 5.65 -11.5 L6.95 -11.7 11.4 -11.55 8.85 -12.9 7.7 -13.3 5.0 -13.1 3.05 -13.15 2.35 -13.45 -2.75 -12.25 Q-1.7 -13.55 -0.05 -13.6 L1.4 -13.35 Q1.85 -14.15 2.9 -14.35 3.85 -14.25 4.65 -14.65 L4.7 -14.7 2.2 -15.15 -0.45 -15.0 -3.1 -14.8 Q-3.9 -14.8 -4.35 -14.4 -5.4 -13.5 -6.6 -13.25 L-6.75 -13.3 M-9.35 13.55 L-8.3 14.65 -6.85 15.4 Q-5.9 15.9 -5.9 16.3 -5.9 16.75 -6.35 16.75 -7.5 16.75 -9.3 15.2 L-11.2 13.65 -12.25 14.05 Q-12.95 14.45 -13.45 14.45 -15.1 14.45 -16.2 12.85 L-16.15 12.1 -15.35 12.3 -15.45 12.35 -15.55 12.55 Q-15.55 13.05 -13.95 13.35 -13.25 13.35 -13.0 13.0 -12.7 12.65 -11.45 12.65 -10.35 12.65 -9.35 13.55 M-19.0 8.95 L-18.75 8.15 Q-18.4 7.85 -17.9 9.1 -16.6 9.0 -16.6 9.55 -16.6 10.15 -17.7 10.15 -18.6 10.15 -18.9 9.55 L-19.0 8.95 M-3.55 15.5 Q-3.0 15.4 -3.0 15.9 L-3.15 16.35 -3.5 16.6 Q-4.1 16.6 -4.1 16.15 -4.1 15.55 -3.55 15.5 M6.55 -0.1 Q6.55 -1.25 5.0 -0.95 3.6 -0.65 2.05 0.45 1.2 0.2 -0.4 1.05 -1.9 1.85 -1.9 2.3 L-1.8 2.7 -1.55 2.7 Q-0.85 2.05 0.3 1.75 L2.45 1.15 5.5 0.6 Q6.55 0.55 6.55 -0.1" fill="#ffc0c0" fill-rule="evenodd" stroke="none"/>
      <path d="M17.5 2.85 Q16.8 5.05 15.7 7.15 L18.85 8.2 19.5 8.6 19.55 8.8 9.65 10.8 Q11.9 9.4 14.0 6.8 L17.5 2.85 M4.6 14.9 Q2.4 16.3 -0.15 17.1 L-4.05 17.7 -5.65 17.5 -7.3 17.0 Q-9.7 16.1 -11.75 14.4 L-12.65 14.8 Q-14.1 15.4 -15.4 14.8 -17.65 13.75 -17.9 11.3 L-19.7 9.8 Q-19.45 7.2 -16.05 6.85 L-17.5 0.8 Q-18.35 -3.1 -15.8 -9.2 L-15.45 -6.95 Q-15.05 -4.85 -14.15 -3.0 L-14.1 -3.2 Q-13.35 -4.85 -12.35 -4.85 -11.3 -6.4 -10.4 -6.8 L-7.1 -7.85 -6.85 -7.7 -8.4 -6.6 -10.3 -5.4 -10.75 -4.05 Q-11.05 -3.0 -11.9 -3.0 L-12.7 -3.2 -13.3 -1.8 -13.4 -1.5 -13.55 -1.4 Q-15.4 0.1 -15.4 0.8 -15.2 1.85 -14.7 1.85 -14.05 1.85 -12.85 0.0 L-12.6 -0.3 -12.2 0.2 -10.2 -1.25 Q-8.9 -1.4 -7.5 -2.4 -6.15 -3.4 -5.4 -3.4 -6.5 -3.05 -7.15 -2.05 L-8.25 -0.45 -9.35 0.0 Q-10.0 0.2 -10.4 1.0 L-11.05 1.55 -10.95 1.65 -11.1 1.75 Q-11.9 2.5 -11.9 4.5 L-11.85 5.35 -11.45 5.5 Q-11.2 5.5 -10.95 4.9 L-10.75 4.15 -10.4 3.35 -9.95 2.65 -9.55 2.9 -8.1 4.05 -7.9 3.8 Q-7.25 3.35 -6.65 3.15 -6.1 2.95 -5.95 2.45 L-5.6 1.4 Q-4.35 -0.2 -2.3 -1.2 -0.25 -2.25 -0.25 -1.1 L-2.15 -0.1 Q-4.2 0.9 -4.85 2.6 L-5.45 4.5 -5.55 4.55 Q-7.3 6.1 -7.3 7.7 -7.4 8.5 -6.6 8.5 -2.7 7.15 -2.5 6.75 L-2.6 6.65 -0.25 5.7 Q2.7 4.8 5.35 4.6 L5.5 4.85 5.5 5.0 Q4.0 5.05 3.0 5.5 L1.0 6.45 Q-0.15 6.85 -0.5 7.7 -0.7 8.2 -1.8 8.4 L-1.05 8.85 Q1.35 10.4 5.9 11.3 1.45 13.05 -1.55 15.4 L-1.45 15.4 Q1.3 15.7 3.8 14.65 L4.65 14.4 4.6 14.9 M-3.55 15.5 Q-4.1 15.55 -4.1 16.15 -4.1 16.6 -3.5 16.6 L-3.15 16.35 -3.0 15.9 Q-3.0 15.4 -3.55 15.5 M-19.0 8.95 L-18.9 9.55 Q-18.6 10.15 -17.7 10.15 -16.6 10.15 -16.6 9.55 -16.6 9.0 -17.9 9.1 -18.4 7.85 -18.75 8.15 L-19.0 8.95 M-9.35 13.55 Q-10.35 12.65 -11.45 12.65 -12.7 12.65 -13.0 13.0 -13.25 13.35 -13.95 13.35 -15.55 13.05 -15.55 12.55 L-15.45 12.35 -15.35 12.3 -16.15 12.1 -16.2 12.85 Q-15.1 14.45 -13.45 14.45 -12.95 14.45 -12.25 14.05 L-11.2 13.65 -9.3 15.2 Q-7.5 16.75 -6.35 16.75 -5.9 16.75 -5.9 16.3 -5.9 15.9 -6.85 15.4 L-8.3 14.65 -9.35 13.55 M6.55 -0.1 Q6.55 0.55 5.5 0.6 L2.45 1.15 0.3 1.75 Q-0.85 2.05 -1.55 2.7 L-1.8 2.7 -1.9 2.3 Q-1.9 1.85 -0.4 1.05 1.2 0.2 2.05 0.45 3.6 -0.65 5.0 -0.95 6.55 -1.25 6.55 -0.1" fill="#f19797" fill-rule="evenodd" stroke="none"/>
      <path d="M-13.8 8.35 L-12.25 9.45 Q-8.05 12.0 -3.0 11.95 -9.8 13.2 -13.8 8.35 M16.75 -4.7 Q15.95 -10.25 11.65 -13.3 5.0 -17.4 -2.55 -16.95 L-5.85 -16.2 Q-7.8 -15.65 -9.45 -14.75 -13.75 -12.4 -15.65 -7.95 -18.8 -0.55 -15.1 7.5 L-16.5 7.45 Q-18.3 7.6 -19.1 9.25 L-19.2 10.0 -17.95 10.95 -19.45 10.9 -19.95 10.2 Q-20.5 9.6 -19.55 8.0 -18.65 6.35 -16.7 6.65 L-17.85 3.15 Q-20.75 -8.0 -11.35 -14.85 L-9.45 -16.05 -5.85 -17.7 Q-1.8 -19.1 2.7 -18.7 8.95 -18.05 13.8 -14.0 18.5 -10.1 19.0 -3.75 19.4 1.2 16.35 6.85 19.75 7.45 20.1 8.8 20.45 10.15 19.25 12.45 18.05 14.75 14.55 14.05 L13.55 14.55 10.45 13.8 10.3 14.3 Q9.85 15.35 8.85 15.7 6.45 16.55 4.3 15.3 2.45 18.75 -1.6 19.1 -7.6 19.6 -11.7 15.05 -14.05 16.4 -17.15 14.5 L-17.65 13.85 Q-18.1 12.9 -17.9 11.9 L-17.65 11.15 -17.4 12.0 Q-17.15 12.7 -16.0 13.5 -14.8 14.25 -11.85 14.15 -7.7 17.55 -3.05 17.45 1.15 17.0 4.6 14.3 L5.3 14.55 Q6.35 15.1 7.3 14.9 8.5 14.55 9.15 13.4 L9.0 12.6 Q10.65 12.45 12.05 13.25 L12.85 13.55 13.85 12.3 16.35 12.75 Q17.65 12.4 18.35 11.5 18.6 10.5 18.3 9.6 17.75 8.0 15.55 7.9 L14.2 9.35 Q9.4 12.9 3.75 11.7 L8.25 11.0 Q12.05 10.35 14.8 5.6 17.5 0.85 16.75 -4.7" fill="#ac5555" fill-rule="evenodd" stroke="none"/>
    </g>
    <g id="sprite7">
      <use ffdec:characterId="12" height="27.35" transform="matrix(1.0, 0.0, 0.0, 1.0, 0.0, 0.0)" width="37.55" xlink:href="#shape7"/>
    </g>
    <g id="shape7">
      <path d="M-13.1 -1.15 Q-12.2 -1.15 -12.2 -0.1 -12.2 1.05 -13.1 1.05 -14.0 1.05 -14.0 -0.1 -14.0 -1.15 -13.1 -1.15 M-17.85 4.5 Q-18.85 4.5 -18.8 3.4 -18.8 2.45 -17.3 1.95 -15.8 1.45 -15.8 2.95 L-16.55 3.8 Q-17.35 4.5 -17.85 4.5 M-12.9 6.2 L-13.4 7.05 Q-13.9 7.7 -14.25 7.7 -15.1 7.7 -15.1 6.65 -15.1 5.4 -14.0 5.4 -12.9 5.45 -12.9 6.2 M-9.55 8.75 Q-9.55 8.05 -8.55 8.05 L-7.35 7.75 Q-6.9 7.7 -6.9 8.7 -6.9 9.75 -7.95 9.75 -8.85 9.75 -9.3 9.3 L-9.55 8.75 M-13.55 11.7 Q-14.05 12.3 -14.55 12.3 -15.25 12.3 -15.25 11.6 -15.25 10.6 -14.15 10.15 -13.05 9.65 -13.05 10.85 -13.05 11.15 -13.55 11.7 M-18.2 12.4 Q-19.0 12.4 -19.0 11.95 -19.0 11.1 -18.25 11.2 -17.55 11.25 -17.55 11.8 -17.55 12.4 -18.2 12.4 M-13.5 16.15 Q-13.5 14.1 -11.3 14.9 -9.15 15.7 -9.15 17.15 -9.15 17.9 -9.9 18.5 -10.65 19.1 -11.5 19.1 -12.6 19.1 -13.15 17.6 L-13.5 16.15 M-5.3 -7.1 Q-5.3 -8.7 -4.05 -8.05 -2.8 -7.35 -2.8 -6.0 -2.8 -5.2 -3.9 -5.2 -4.85 -5.2 -5.2 -6.15 L-5.3 -7.1 M7.95 -3.6 Q7.95 -5.2 9.2 -5.6 10.4 -6.0 10.4 -3.6 L9.85 -2.8 9.05 -2.25 Q8.4 -2.25 7.95 -3.6 M10.75 -0.65 Q11.6 -0.55 11.6 0.15 L11.45 0.7 10.8 1.1 Q10.0 1.1 9.9 0.1 9.9 -0.75 10.75 -0.65 M3.3 -5.4 Q2.5 -5.4 2.5 -6.0 2.5 -6.65 3.4 -6.55 4.3 -6.45 4.3 -6.0 L3.85 -5.55 3.3 -5.4 M1.05 -0.9 Q0.25 -0.9 -0.05 -2.35 -0.05 -3.25 1.05 -3.25 L1.8 -2.8 1.95 -2.3 Q1.95 -0.9 1.05 -0.9 M2.55 3.9 L1.95 4.55 1.05 5.0 Q0.15 5.0 0.15 4.05 0.15 2.45 1.35 3.0 L2.55 3.9 M6.45 2.65 Q5.6 2.65 5.6 1.95 5.6 1.1 6.35 1.2 7.1 1.3 7.1 2.05 7.1 2.65 6.45 2.65 M10.6 6.3 L9.55 7.1 Q9.15 6.95 9.15 5.9 9.15 4.2 10.0 4.1 10.85 4.0 10.85 5.5 L10.6 6.3 M-8.55 -1.5 Q-9.25 -1.5 -9.2 -2.5 -9.2 -3.35 -8.6 -3.35 -8.05 -3.35 -8.05 -2.5 -8.05 -1.5 -8.55 -1.5 M-6.1 5.35 L-6.7 5.7 Q-8.3 5.7 -8.4 3.75 -8.4 2.55 -7.25 2.6 -6.15 2.6 -6.15 4.35 L-5.95 4.9 -6.1 5.35 M-1.9 10.7 Q0.6 10.7 0.6 11.9 L-0.7 12.8 -2.2 13.6 -4.5 13.5 Q-4.9 13.4 -4.9 12.9 L-4.6 12.3 -4.15 11.7 -4.05 10.9 -1.9 10.7 M-0.65 18.1 Q-1.05 18.65 -1.5 18.65 -2.45 18.65 -2.8 17.15 -2.8 16.0 -1.55 16.0 -0.3 16.05 -0.3 17.25 -0.3 17.6 -0.65 18.1 M6.5 9.15 Q6.1 9.65 5.4 9.65 3.9 9.65 4.1 8.45 4.1 7.4 5.5 7.2 6.85 7.0 6.85 8.15 6.85 8.7 6.5 9.15 M3.0 14.55 Q3.0 12.9 4.3 12.9 5.6 12.9 5.6 14.55 5.6 16.0 4.25 16.0 3.0 16.0 3.0 14.55 M10.2 15.3 L10.5 16.0 Q10.5 16.5 9.9 16.5 9.25 16.5 8.75 16.1 8.35 15.8 8.35 15.5 8.35 14.65 9.3 14.15 10.2 13.65 10.2 15.3 M14.2 2.85 Q13.3 2.85 12.7 0.75 12.7 -0.25 13.85 0.2 15.0 0.6 15.0 1.8 15.0 2.85 14.2 2.85 M18.3 6.25 Q17.95 6.9 17.35 6.9 16.35 6.9 16.1 5.95 16.0 5.5 16.05 4.9 16.05 3.95 17.3 4.25 18.55 4.6 18.55 5.5 L18.3 6.25 M13.35 17.5 Q13.35 18.9 12.0 18.9 10.75 18.9 11.1 17.7 11.1 16.35 12.25 16.35 13.35 16.35 13.35 17.5" fill="#9f1d37" fill-rule="evenodd" stroke="none"/>
    </g>
    <g id="sprite8">
      <use ffdec:characterId="25" height="2.25" transform="matrix(1.0, 0.0, 0.0, 1.0, 0.0, 0.0)" width="2.95" xlink:href="#shape8"/>
    </g>
    <g id="shape8">
      <path d="M0.4 0.85 L-0.5 0.65 -1.2 0.25 Q-0.65 -1.15 -0.15 -0.5 L0.4 0.15 0.7 0.65 0.4 0.85" fill="#74511b" fill-rule="evenodd" stroke="none"/>
      <path d="M-1.0 0.85 Q-1.85 0.75 -1.25 0.3 L0.7 0.8 -0.4 -0.7 Q-0.45 -2.0 1.45 1.15 L-1.0 0.85" fill="#0e0e0e" fill-rule="evenodd" stroke="none"/>
    </g>
  </defs>
</svg>
