<?xml version="1.0" encoding="UTF-8" standalone="no"?>
<svg xmlns:ffdec="https://www.free-decompiler.com/flash" xmlns:xlink="http://www.w3.org/1999/xlink" ffdec:objectType="frame" height="17.7px" width="24.15px" xmlns="http://www.w3.org/2000/svg">
  <g transform="matrix(1.0, 0.0, 0.0, 1.0, 12.15, -13.3)">
    <use ffdec:characterId="6" height="7.4" transform="matrix(1.0, 0.0, 0.0, 1.0, -3.75, 15.4)" width="6.8" xlink:href="#sprite0"/>
    <use ffdec:characterId="10" height="5.45" transform="matrix(1.0, 0.0, 0.0, 1.0, -9.85, 25.55)" width="8.25" xlink:href="#sprite1"/>
    <use ffdec:characterId="2" height="6.65" transform="matrix(1.0, 0.0, 0.0, 1.0, -5.75, 21.0)" width="6.6" xlink:href="#sprite2"/>
    <use ffdec:characterId="4" height="8.9" transform="matrix(1.0, 0.0, 0.0, 1.0, -12.15, 14.8)" width="9.35" xlink:href="#sprite3"/>
    <use ffdec:characterId="10" height="5.45" transform="matrix(-1.0, 0.0, 0.0, 1.0, 9.7, 25.55)" width="8.25" xlink:href="#sprite1"/>
    <use ffdec:characterId="2" height="6.65" transform="matrix(-1.0, 0.0, 0.0, 1.0, 5.6, 21.0)" width="6.6" xlink:href="#sprite2"/>
    <use ffdec:characterId="4" height="8.9" transform="matrix(-1.0, 0.0, 0.0, 1.0, 12.0, 14.8)" width="9.35" xlink:href="#sprite3"/>
    <use ffdec:characterId="8" height="10.55" transform="matrix(-1.0, 0.0, 0.0, 1.0, 9.25, 13.3)" width="8.9" xlink:href="#sprite4"/>
    <use ffdec:characterId="8" height="10.55" transform="matrix(1.0, 0.0, 0.0, 1.0, -9.3, 13.3)" width="8.9" xlink:href="#sprite4"/>
  </g>
  <defs>
    <g id="sprite0">
      <use ffdec:characterId="5" height="7.4" transform="matrix(1.0, 0.0, 0.0, 1.0, 0.0, 0.0)" width="6.8" xlink:href="#shape0"/>
    </g>
    <g id="shape0">
      <path d="M0.0 7.4 L0.0 0.0 6.8 0.0 6.8 7.4 0.0 7.4" fill="#ff5e00" fill-rule="evenodd" stroke="none"/>
    </g>
    <g id="sprite1">
      <use ffdec:characterId="9" height="5.45" transform="matrix(1.0, 0.0, 0.0, 1.0, 0.0, 0.0)" width="8.25" xlink:href="#shape1"/>
    </g>
    <g id="shape1">
      <path d="M8.25 1.8 L7.75 3.8 6.95 4.3 Q6.8 3.75 6.45 3.9 6.1 4.05 5.95 4.8 L4.55 5.35 3.05 5.4 0.55 4.45 0.35 3.9 Q-0.15 2.25 0.05 1.95 0.35 1.55 0.75 1.45 L2.0 0.95 3.85 0.3 5.65 0.0 Q6.55 -0.05 7.5 0.65 8.35 1.35 8.25 1.8 M6.9 2.7 L3.55 2.45 Q1.5 2.0 2.55 1.55 3.55 1.1 3.35 0.9 3.15 0.7 1.5 1.55 L0.35 2.1 Q2.6 3.75 5.4 3.15 8.2 2.5 6.9 2.7" fill="#000000" fill-rule="evenodd" stroke="none"/>
      <path d="M6.9 2.7 Q8.2 2.5 5.4 3.15 2.6 3.75 0.35 2.1 L1.5 1.55 Q3.15 0.7 3.35 0.9 3.55 1.1 2.55 1.55 1.5 2.0 3.55 2.45 L6.9 2.7" fill="#737373" fill-rule="evenodd" stroke="none"/>
    </g>
    <g id="sprite2">
      <use ffdec:characterId="1" height="6.65" transform="matrix(1.0, 0.0, 0.0, 1.0, 0.0, 0.0)" width="6.6" xlink:href="#shape2"/>
    </g>
    <g id="shape2">
      <path d="M6.85 2.2 Q6.8 2.65 6.0 2.7 L5.15 2.75 Q4.6 2.85 4.45 3.25 L4.25 4.05 Q4.0 4.5 3.7 5.95 3.6 6.65 2.6 6.65 L1.0 6.35 0.4 5.65 1.8 2.2 2.1 1.25 Q2.3 0.65 2.85 0.5 L3.7 0.25 6.2 0.0 Q6.75 0.0 6.85 0.65 L6.85 1.35 6.85 2.2 M1.1 5.9 L2.3 6.05 3.25 3.2 Q2.55 2.8 2.2 3.0 L1.1 5.9" fill="#000000" fill-rule="evenodd" stroke="none"/>
      <path d="M1.1 5.9 L2.2 3.0 Q2.55 2.8 3.25 3.2 L2.3 6.05 1.1 5.9" fill="#343434" fill-rule="evenodd" stroke="none"/>
      <path d="M5.2 2.5 L6.7 2.7 4.8 2.95 4.3 4.9 3.7 6.6 3.6 6.6 3.4 6.5 3.3 6.45 Q3.05 6.3 4.6 2.65 L5.2 2.5 M2.25 1.65 L2.3 1.8 1.5 3.85 0.45 5.95 0.4 5.8 0.25 5.25 0.9 3.65 1.4 2.4 Q1.7 1.9 2.25 1.65" fill="#000000" fill-rule="evenodd" stroke="none"/>
    </g>
    <g id="sprite3">
      <use ffdec:characterId="3" height="8.9" transform="matrix(1.0, 0.0, 0.0, 1.0, 0.0, 0.0)" width="9.35" xlink:href="#shape3"/>
    </g>
    <g id="shape3">
      <path d="M6.05 3.9 L5.9 5.0 Q5.7 5.85 5.05 5.7 L3.6 5.35 Q2.8 5.1 2.35 4.75 L1.35 3.9 3.15 3.5 5.4 3.55 6.05 3.9" fill="#c18e2f" fill-rule="evenodd" stroke="none"/>
      <path d="M6.05 3.9 L5.4 3.55 3.15 3.5 1.35 3.9 2.35 4.75 Q2.8 5.1 3.6 5.35 L5.05 5.7 Q5.7 5.85 5.9 5.0 L6.05 3.9 M0.85 4.65 L0.8 3.65 Q3.0 2.75 3.45 2.85 L7.9 0.0 9.25 0.6 9.35 2.0 Q7.6 3.15 6.05 6.8 L5.65 6.9 3.65 6.15 Q1.45 5.3 0.85 4.65" fill="#a25700" fill-rule="evenodd" stroke="none"/>
      <path d="M5.65 6.9 L5.0 8.0 5.0 7.95 3.95 7.15 2.6 6.55 1.2 5.8 0.45 5.65 0.85 5.3 0.85 4.65 Q1.45 5.3 3.65 6.15 L5.65 6.9 M4.8 8.3 L4.3 8.4 4.4 8.25 4.7 8.3 4.8 8.3 M3.75 8.45 Q2.5 8.35 1.35 7.45 L0.25 6.5 Q-0.15 6.3 0.35 5.8 L0.3 5.95 0.25 5.95 0.25 6.25 Q2.55 8.2 3.75 8.45" fill="#281500" fill-rule="evenodd" stroke="none"/>
      <path d="M5.0 8.0 L4.8 8.3 4.7 8.3 4.4 8.25 4.3 8.4 4.05 8.45 3.75 8.45 Q2.55 8.2 0.25 6.25 L0.25 5.95 0.3 5.95 0.35 5.8 0.45 5.65 1.2 5.8 2.6 6.55 3.95 7.15 5.0 7.95 5.0 8.0" fill="#5c3305" fill-rule="evenodd" stroke="none"/>
      <path d="M0.1 6.2 L2.55 7.65 4.15 8.2 Q4.4 8.15 5.45 6.25 6.5 4.4 8.0 3.35 6.55 5.8 5.7 7.7 5.1 8.9 4.55 8.9 2.65 8.9 1.35 7.9 0.25 7.1 0.05 6.2 L0.05 6.15 0.1 6.2 Q-0.05 5.4 0.65 5.0 0.2 4.9 0.05 3.9 -0.25 2.8 2.3 2.7 L5.15 2.15 4.4 2.75 2.65 3.15 Q1.05 3.35 0.9 3.85 L0.85 4.7 0.9 4.9 1.05 4.85 Q1.85 4.65 3.45 6.15 L2.9 6.15 Q1.95 5.85 0.95 5.2 L0.1 6.2" fill="#000000" fill-rule="evenodd" stroke="none"/>
    </g>
    <g id="sprite4">
      <use ffdec:characterId="7" height="10.55" transform="matrix(1.0, 0.0, 0.0, 1.0, 0.0, 0.0)" width="8.9" xlink:href="#shape4"/>
    </g>
    <g id="shape4">
      <path d="M1.25 2.9 L2.05 1.55 Q1.05 1.1 0.75 0.45 L7.25 1.25 Q6.9 1.8 6.95 2.2 7.05 2.65 7.65 3.15 L7.65 3.4 7.7 4.7 7.75 5.25 7.55 5.8 7.45 5.55 6.35 4.0 6.25 3.9 6.15 4.0 6.1 3.9 Q5.8 3.75 5.65 4.25 L5.6 4.25 5.55 4.25 5.05 4.85 5.4 2.65 Q5.55 1.85 4.1 2.25 2.95 2.3 1.55 2.85 L1.25 2.9 M4.5 5.4 L3.45 5.7 3.8 4.85 3.55 5.65 4.5 5.4" fill="#ffffff" fill-rule="evenodd" stroke="none"/>
      <path d="M5.6 4.25 L5.65 4.25 Q5.8 3.75 6.1 3.9 L6.15 4.0 6.25 3.9 6.35 4.0 6.1 5.35 Q5.85 5.95 5.75 6.7 L8.55 7.25 8.65 7.8 5.6 7.95 5.4 7.85 4.9 7.2 Q4.75 7.0 4.75 6.35 4.75 5.2 5.55 4.45 L5.55 4.4 5.6 4.25 M7.75 5.25 L7.7 4.7 7.65 3.4 8.05 3.4 Q8.55 4.05 8.55 5.3 L7.75 5.25" fill="#a25700" fill-rule="evenodd" stroke="none"/>
      <path d="M5.55 4.25 L5.6 4.25 5.55 4.4 5.55 4.25 M6.35 4.0 L7.45 5.55 7.55 5.8 7.75 5.25 8.55 5.3 8.55 7.25 5.75 6.7 Q5.85 5.95 6.1 5.35 L6.35 4.0 M7.65 3.4 L7.65 3.15 8.05 3.4 7.65 3.4 M8.65 9.2 L8.55 9.45 8.5 9.35 8.65 9.2 M5.4 8.0 L5.4 7.85 5.6 7.95 5.5 8.0 5.4 8.0" fill="#c18e2f" fill-rule="evenodd" stroke="none"/>
      <path d="M1.25 2.9 L1.55 2.85 Q2.95 2.3 4.1 2.25 5.55 1.85 5.4 2.65 L5.05 4.85 4.5 5.4 3.55 5.65 3.8 4.85 3.55 4.0 3.1 4.15 Q2.8 4.15 2.85 3.85 L3.05 3.5 2.55 3.2 1.1 3.35 0.85 3.3 0.8 3.15 Q0.8 3.05 1.25 2.9" fill="#c5edf5" fill-rule="evenodd" stroke="none"/>
      <path d="M8.65 7.8 L8.65 9.2 8.5 9.35 8.5 9.2 4.7 9.4 4.7 9.95 4.6 9.35 Q4.85 8.35 5.35 8.05 L5.5 8.0 5.6 7.95 8.65 7.8 M8.4 9.7 L8.55 10.05 8.0 10.35 6.7 10.55 5.0 10.1 8.4 9.7" fill="#281500" fill-rule="evenodd" stroke="none"/>
      <path d="M8.55 9.45 L8.4 9.7 5.0 10.1 4.7 9.95 4.7 9.4 8.5 9.2 8.5 9.35 8.55 9.45" fill="#5c3305" fill-rule="evenodd" stroke="none"/>
      <path d="M5.35 8.05 L5.4 8.0 5.5 8.0 5.35 8.05" fill="#9a5608" fill-rule="evenodd" stroke="none"/>
      <path d="M2.65 3.0 L3.45 2.85 3.0 4.0 3.75 4.05 4.25 4.25 3.8 5.0 3.5 5.7 Q5.2 4.75 5.05 5.05 L4.65 5.4 4.3 5.65 3.25 5.9 Q2.7 5.85 3.75 4.35 L2.35 4.4 2.85 3.35 2.0 3.55 2.65 3.0 M5.25 4.85 Q5.65 3.75 5.95 3.5 L7.6 5.85 7.6 3.5 8.0 3.7 7.55 6.45 5.85 4.05 5.25 4.85 M7.0 1.6 Q7.15 2.5 7.45 2.75 L8.3 3.4 8.2 3.55 Q7.15 3.35 6.2 1.95 L7.0 1.6" fill="#395882" fill-rule="evenodd" stroke="none"/>
      <path d="M2.65 3.0 L2.0 3.55 0.0 3.7 1.2 1.9 0.25 0.95 0.95 0.85 Q2.15 1.55 2.15 1.8 L1.15 3.3 2.25 3.05 2.65 3.0 M4.85 8.7 L4.9 9.65 Q5.0 10.25 5.4 10.15 L8.4 9.65 8.55 4.6 8.9 7.35 8.9 10.2 5.85 10.55 5.0 10.5 4.5 9.9 4.3 8.8 4.8 8.2 5.3 8.0 4.8 7.9 4.4 7.45 4.35 6.75 4.65 5.4 5.4 4.95 Q5.15 5.6 5.05 6.7 4.9 7.7 6.6 7.95 L5.9 8.15 5.15 8.4 Q4.95 8.4 4.85 8.7 M2.9 0.25 Q3.8 0.55 3.9 0.75 L0.5 0.65 0.7 0.25 Q0.9 0.0 1.4 0.0 L2.9 0.25" fill="#000000" fill-rule="evenodd" stroke="none"/>
    </g>
  </defs>
</svg>
