<?xml version="1.0" encoding="UTF-8" standalone="no"?>
<svg xmlns:ffdec="https://www.free-decompiler.com/flash" xmlns:xlink="http://www.w3.org/1999/xlink" ffdec:objectType="frame" height="31.35px" width="51.15px" xmlns="http://www.w3.org/2000/svg">
  <g transform="matrix(1.0, 0.0, 0.0, 1.0, 41.3, -0.1)">
    <use ffdec:characterId="27" height="5.8" transform="matrix(1.0, 0.0, 0.0, 1.0, -5.15, 19.35)" width="9.85" xlink:href="#sprite0"/>
    <use ffdec:characterId="4" height="6.8" transform="matrix(1.0, 0.0, 0.0, 1.0, -4.25, 15.1)" width="8.05" xlink:href="#sprite1"/>
    <use ffdec:characterId="8" height="4.65" transform="matrix(1.0, 0.0, 0.0, 1.0, -7.0, 14.9)" width="4.55" xlink:href="#sprite2"/>
    <use ffdec:characterId="8" height="4.65" transform="matrix(-1.0, 0.0, 0.0, 1.0, 6.55, 14.9)" width="4.55" xlink:href="#sprite2"/>
    <use ffdec:characterId="10" height="5.4" transform="matrix(1.0, 0.0, 0.0, 1.0, -4.6, 14.65)" width="9.4" xlink:href="#sprite3"/>
    <use ffdec:characterId="6" height="2.65" transform="matrix(1.0, 0.0, 0.0, 1.0, 3.15, 14.5)" width="6.55" xlink:href="#sprite4"/>
    <use ffdec:characterId="14" height="5.3" transform="matrix(1.0, 0.0, 0.0, 1.0, -10.5, 26.15)" width="9.2" xlink:href="#sprite5"/>
    <use ffdec:characterId="14" height="5.3" transform="matrix(-1.0, 0.0, 0.0, 1.0, 9.85, 26.15)" width="9.2" xlink:href="#sprite5"/>
    <use ffdec:characterId="16" height="17.4" transform="matrix(1.0, 0.0, 0.0, 1.0, -35.75, 6.6)" width="26.25" xlink:href="#sprite6"/>
    <use ffdec:characterId="18" height="13.1" transform="matrix(1.0, 0.0, 0.0, 1.0, -23.6, 12.4)" width="12.15" xlink:href="#sprite7"/>
    <use ffdec:characterId="18" height="13.1" transform="matrix(1.0, 0.0, 0.0, 1.0, -32.1, 6.1)" width="12.15" xlink:href="#sprite7"/>
    <use ffdec:characterId="18" height="13.1" transform="matrix(1.0, 0.0, 0.0, 1.0, -41.3, 0.1)" width="12.15" xlink:href="#sprite7"/>
  </g>
  <defs>
    <g id="sprite0">
      <use ffdec:characterId="26" height="5.8" transform="matrix(1.0, 0.0, 0.0, 1.0, 0.0, 0.0)" width="9.85" xlink:href="#shape0"/>
    </g>
    <g id="shape0">
      <path d="M0.65 3.25 L1.3 2.1 1.35 2.05 Q2.5 2.6 3.85 2.65 L7.8 2.75 8.85 2.55 8.7 3.0 8.1 3.55 7.3 4.15 6.45 4.15 6.35 4.1 6.3 4.05 Q7.05 3.95 7.2 3.6 L6.95 3.35 6.45 3.35 5.8 3.5 4.1 3.4 4.05 3.35 3.05 3.2 Q2.6 3.15 2.6 3.45 L2.85 3.7 3.5 3.95 3.0 4.5 2.85 4.5 Q1.5 4.2 0.65 3.25" fill="#1e6290" fill-rule="evenodd" stroke="none"/>
      <path d="M1.35 2.05 L2.15 0.4 Q2.15 0.2 2.3 0.15 L4.65 0.0 5.45 0.15 7.55 0.15 8.65 1.4 9.1 2.05 9.3 2.4 9.45 2.9 9.25 3.55 8.4 4.25 7.7 4.85 6.5 5.35 Q6.0 5.35 5.9 4.75 L5.75 4.05 5.4 4.05 4.2 4.05 4.05 4.75 Q3.85 5.35 3.65 5.35 L1.85 4.55 Q1.55 4.5 0.95 4.05 0.45 3.9 0.45 3.5 L0.65 3.25 Q1.5 4.2 2.85 4.5 L3.0 4.5 3.5 3.95 2.85 3.7 2.6 3.45 Q2.6 3.15 3.05 3.2 L4.05 3.35 4.1 3.4 5.8 3.5 6.45 3.35 6.95 3.35 7.2 3.6 Q7.05 3.95 6.3 4.05 L6.35 4.1 6.45 4.15 7.3 4.15 8.1 3.55 8.7 3.0 8.85 2.55 7.8 2.75 3.85 2.65 Q2.5 2.6 1.35 2.05" fill="#163b53" fill-rule="evenodd" stroke="none"/>
      <path d="M9.05 1.7 L9.85 3.0 9.85 3.1 9.8 3.0 Q9.8 3.45 8.55 4.55 7.2 5.8 6.1 5.8 L5.7 5.35 5.55 4.75 5.55 4.3 5.2 4.3 4.35 4.2 4.25 4.75 3.95 5.6 3.55 5.6 1.7 4.8 Q0.0 4.0 0.0 3.6 L2.05 0.4 2.4 0.65 1.25 2.55 Q0.55 3.35 0.55 3.55 0.55 3.85 2.05 4.5 L3.75 5.2 Q3.85 4.6 4.1 4.15 L3.4 3.7 3.8 3.8 5.0 3.95 6.1 3.8 6.75 3.35 6.3 4.0 6.0 4.15 6.1 5.2 6.45 5.35 Q6.85 5.45 7.9 4.55 L9.2 3.35 9.45 3.0 8.65 2.0 Q7.85 1.05 7.75 0.35 8.2 0.5 9.05 1.7" fill="#000000" fill-rule="evenodd" stroke="none"/>
    </g>
    <g id="sprite1">
      <use ffdec:characterId="3" height="6.8" transform="matrix(1.0, 0.0, 0.0, 1.0, 0.0, 0.0)" width="8.05" xlink:href="#shape1"/>
    </g>
    <g id="shape1">
      <path d="M6.75 2.85 Q6.05 5.5 3.3 5.3 L2.15 4.9 Q1.55 3.7 1.8 2.25 3.2 1.55 4.55 1.4 L6.6 2.35 6.75 2.85" fill="#ffffff" fill-rule="evenodd" stroke="none"/>
      <path d="M7.35 2.7 L7.6 3.5 7.7 4.05 7.75 5.0 7.55 5.4 6.55 5.9 Q5.35 6.45 4.45 6.45 L3.9 6.45 3.75 6.45 Q0.4 6.35 0.4 5.4 L0.55 4.25 0.95 2.65 0.95 2.55 1.4 1.4 Q1.9 0.2 2.5 0.0 L5.65 0.0 6.45 0.75 7.2 2.25 7.35 2.7 M6.75 2.85 L6.6 2.35 4.55 1.4 Q3.2 1.55 1.8 2.25 1.55 3.7 2.15 4.9 L3.3 5.3 Q6.05 5.5 6.75 2.85" fill="#aaaeca" fill-rule="evenodd" stroke="none"/>
      <path d="M0.5 5.4 Q2.5 6.35 4.55 6.15 6.05 6.0 7.45 5.3 7.65 3.55 6.7 1.9 L6.2 0.75 Q7.55 2.55 7.95 4.65 L8.05 5.45 Q7.05 6.35 5.75 6.45 L4.5 6.75 1.65 6.4 0.45 5.9 0.0 5.65 Q0.45 3.6 1.25 1.55 L1.65 0.75 0.65 4.7 0.5 5.4" fill="#000000" fill-rule="evenodd" stroke="none"/>
    </g>
    <g id="sprite2">
      <use ffdec:characterId="7" height="4.65" transform="matrix(1.0, 0.0, 0.0, 1.0, 0.0, 0.0)" width="4.55" xlink:href="#shape2"/>
    </g>
    <g id="shape2">
      <path d="M1.1 2.95 Q0.45 2.1 0.45 1.5 0.45 0.95 1.25 0.7 L2.15 0.5 2.35 1.1 3.1 2.3 2.45 2.95 1.1 2.95" fill="#ffffff" fill-rule="evenodd" stroke="none"/>
      <path d="M2.15 0.5 L2.55 0.4 Q3.1 0.05 3.45 0.05 4.2 0.05 4.45 0.7 L4.55 1.45 3.8 2.85 2.75 4.1 Q1.95 4.1 1.15 3.05 L1.1 2.95 2.45 2.95 3.1 2.3 2.35 1.1 2.15 0.5" fill="#aaaeca" fill-rule="evenodd" stroke="none"/>
      <path d="M3.6 0.0 L3.15 0.35 0.6 1.25 Q1.1 3.75 2.95 3.8 L4.55 1.9 2.95 4.65 Q0.6 3.85 0.0 1.0 1.7 0.1 3.6 0.0" fill="#000000" fill-rule="evenodd" stroke="none"/>
    </g>
    <g id="sprite3">
      <use ffdec:characterId="9" height="5.4" transform="matrix(1.0, 0.0, 0.0, 1.0, 0.0, 0.0)" width="9.4" xlink:href="#shape3"/>
    </g>
    <g id="shape3">
      <path d="M8.35 1.8 L7.35 2.85 Q5.4 4.9 4.45 4.9 3.0 4.9 1.8 2.7 L0.95 1.55 0.65 1.2 0.5 0.95 0.25 0.5 0.25 0.45 0.2 0.45 0.15 0.3 0.15 0.25 2.2 0.35 6.9 0.35 8.75 0.05 9.15 0.1 9.2 0.5 9.1 0.8 8.35 1.8 M7.55 1.05 L5.35 1.3 4.85 1.2 4.9 1.35 7.0 1.55 Q8.3 1.55 8.3 1.1 L7.55 1.05 M7.6 1.8 L1.3 1.6 2.55 3.15 3.6 4.05 4.85 4.1 Q6.1 3.4 7.15 2.3 L7.6 1.8 M1.35 1.05 L1.6 1.1 1.85 1.0 1.7 0.9 1.3 1.0 1.35 1.05" fill="#4f1818" fill-rule="evenodd" stroke="none"/>
      <path d="M7.55 1.05 L8.3 1.1 Q8.3 1.55 7.0 1.55 L4.9 1.35 4.85 1.2 5.35 1.3 7.55 1.05 M7.6 1.8 L7.15 2.3 Q6.1 3.4 4.85 4.1 L3.6 4.05 2.55 3.15 1.3 1.6 7.6 1.8 M1.35 1.05 L1.3 1.0 1.7 0.9 1.85 1.0 1.6 1.1 1.35 1.05" fill="#ac0000" fill-rule="evenodd" stroke="none"/>
      <path d="M1.7 2.45 Q3.45 4.7 4.35 4.7 L5.9 4.0 7.9 2.0 9.1 0.15 Q9.4 0.25 9.4 0.7 9.4 1.05 7.4 3.15 5.3 5.4 4.4 5.4 4.0 5.4 3.0 4.4 L1.55 2.85 0.7 1.65 0.0 0.35 0.15 0.05 1.7 2.45" fill="#000000" fill-rule="evenodd" stroke="none"/>
    </g>
    <g id="sprite4">
      <use ffdec:characterId="5" height="2.65" transform="matrix(1.0, 0.0, 0.0, 1.0, 0.0, 0.0)" width="6.55" xlink:href="#shape4"/>
    </g>
    <g id="shape4">
      <path d="M4.45 0.75 L5.15 0.9 5.75 1.4 6.05 1.9 5.7 2.25 4.7 2.5 3.4 2.5 2.5 2.25 2.6 2.2 Q3.65 1.65 4.45 0.75" fill="#ac0000" fill-rule="evenodd" stroke="none"/>
      <path d="M2.5 2.25 Q0.9 1.7 0.9 0.75 0.85 0.4 1.2 0.45 L3.2 0.45 4.45 0.75 Q3.65 1.65 2.6 2.2 L2.5 2.25" fill="#4f1818" fill-rule="evenodd" stroke="none"/>
      <path d="M3.8 0.65 L2.25 0.5 0.9 0.7 Q1.95 2.4 3.8 2.4 5.6 2.4 6.0 1.95 5.35 0.9 4.9 0.85 L3.8 0.65 M3.75 0.05 Q5.1 0.15 6.3 1.7 L6.55 2.25 2.0 2.35 Q1.15 2.05 0.0 0.4 L1.4 0.2 3.75 0.05" fill="#000000" fill-rule="evenodd" stroke="none"/>
    </g>
    <g id="sprite5">
      <use ffdec:characterId="13" height="5.3" transform="matrix(1.0, 0.0, 0.0, 1.0, 0.0, 0.0)" width="9.2" xlink:href="#shape5"/>
    </g>
    <g id="shape5">
      <path d="M0.15 3.35 L0.15 3.2 0.15 2.9 0.15 2.75 0.2 2.65 Q0.4 3.1 1.15 3.55 L3.8 3.65 5.5 3.2 7.3 2.45 8.0 1.9 Q8.1 1.45 8.45 1.4 8.8 1.45 8.9 2.05 8.9 3.0 7.4 3.75 5.9 4.5 3.35 4.6 0.8 4.7 0.15 3.35" fill="#ffffff" fill-rule="evenodd" stroke="none"/>
      <path d="M8.9 2.05 L8.95 2.8 Q8.95 3.9 6.2 4.65 L3.75 5.2 3.05 5.25 Q1.75 5.25 0.75 4.6 0.15 4.25 0.15 3.45 L0.15 3.35 Q0.8 4.7 3.35 4.6 5.9 4.5 7.4 3.75 8.9 3.0 8.9 2.05" fill="#005dc5" fill-rule="evenodd" stroke="none"/>
      <path d="M0.2 2.65 Q0.25 2.5 0.45 2.45 L0.8 2.35 1.5 3.0 2.15 3.4 3.6 3.65 3.7 3.65 3.8 3.65 1.15 3.55 Q0.4 3.1 0.2 2.65" fill="#acacac" fill-rule="evenodd" stroke="none"/>
      <path d="M5.1 0.8 L4.5 1.75 2.25 1.55 1.5 1.1 1.5 0.8 1.6 0.75 Q2.4 0.3 3.2 0.3 L5.1 0.8 M6.15 2.15 Q5.8 2.15 5.35 1.55 5.35 1.05 5.9 1.3 L6.45 1.85 6.15 2.15" fill="#00a6ff" fill-rule="evenodd" stroke="none"/>
      <path d="M1.5 0.8 L1.5 1.1 2.25 1.55 4.5 1.75 5.1 0.8 5.85 1.1 Q7.75 1.9 7.75 2.35 L6.6 3.15 5.0 3.7 Q4.5 3.7 3.8 2.8 3.05 1.9 2.35 1.8 L1.35 1.9 0.8 2.05 Q0.35 2.05 0.55 1.65 0.75 1.25 1.5 0.8 M6.15 2.15 L6.45 1.85 5.9 1.3 Q5.35 1.05 5.35 1.55 5.8 2.15 6.15 2.15" fill="#005685" fill-rule="evenodd" stroke="none"/>
      <path d="M3.75 3.05 L2.95 2.2 Q2.35 1.6 1.5 2.05 L1.1 2.3 0.85 2.5 0.75 2.5 0.5 2.85 0.7 3.05 Q1.4 3.65 2.25 3.75 3.75 3.95 4.25 3.75 L3.75 3.05 M4.55 0.95 Q3.85 0.55 3.05 0.4 L1.4 1.0 0.75 1.75 0.8 1.9 0.85 1.9 Q1.25 1.1 1.95 1.4 L3.3 2.25 4.25 3.05 4.55 3.45 4.8 3.55 4.9 3.55 5.3 3.35 5.75 3.25 5.9 3.15 5.95 3.15 6.0 3.15 5.55 1.95 4.55 0.95 M5.55 1.1 L5.75 1.45 6.05 2.6 Q6.1 3.25 6.95 2.9 L7.6 2.55 7.35 2.25 6.75 1.6 5.55 1.1 M0.1 2.65 L0.2 2.4 0.4 1.6 1.1 1.05 Q2.2 0.1 3.6 0.0 L4.95 0.65 Q6.1 0.7 7.1 1.3 L8.0 2.25 8.6 1.8 8.1 1.3 8.35 1.25 Q8.85 1.25 9.05 1.8 L9.15 2.2 Q9.25 2.8 9.0 3.25 8.55 4.15 7.4 4.45 L5.85 4.9 4.75 5.1 2.3 5.05 3.3 5.05 5.55 4.65 7.0 4.2 8.3 3.7 Q9.1 3.25 8.85 2.35 8.35 2.5 8.0 2.7 L7.95 2.75 7.75 2.85 6.15 3.55 3.95 4.05 2.15 4.0 0.75 3.45 Q0.2 3.05 0.15 3.3 L0.25 4.0 1.9 5.15 Q0.95 5.05 0.1 4.35 L0.0 2.55 0.05 2.6 0.1 2.65" fill="#000000" fill-rule="evenodd" stroke="none"/>
    </g>
    <g id="sprite6">
      <use ffdec:characterId="15" height="17.4" transform="matrix(1.0, 0.0, 0.0, 1.0, 0.0, 0.0)" width="26.25" xlink:href="#shape6"/>
    </g>
    <g id="shape6">
      <path d="M5.75 3.3 L5.6 3.8 2.9 2.15 1.15 0.85 0.9 0.45 5.75 3.3 M26.15 16.2 L25.9 16.35 25.9 16.4 25.95 16.5 25.85 16.55 25.8 16.6 25.6 16.85 25.4 16.85 24.6 16.2 25.35 15.3 26.1 16.1 26.15 16.2 M20.35 12.2 L20.05 13.25 17.5 12.0 18.1 11.0 20.35 12.2 M14.1 8.75 L13.65 9.7 11.8 8.25 10.4 7.05 10.65 6.7 10.7 6.5 11.3 6.9 12.1 7.4 14.1 8.75" fill="#c49d32" fill-rule="evenodd" stroke="none"/>
      <path d="M0.9 0.45 L1.15 0.85 2.9 2.15 5.6 3.8 5.75 3.3 7.25 4.2 10.7 6.5 10.65 6.7 10.4 7.05 11.8 8.25 13.65 9.7 14.1 8.75 14.3 8.9 17.9 10.8 18.1 11.0 17.5 12.0 20.05 13.25 20.35 12.2 24.9 14.9 25.1 15.05 25.2 15.15 25.35 15.3 24.6 16.2 25.4 16.85 25.6 16.85 25.8 16.6 25.85 16.55 25.95 16.5 25.9 16.4 25.9 16.35 26.15 16.2 26.15 16.25 Q26.5 16.6 25.35 17.4 L25.3 17.4 25.0 17.2 24.3 16.65 24.25 16.65 22.15 15.3 19.95 14.1 19.2 13.65 17.45 12.45 17.35 12.4 13.6 9.85 13.5 9.8 10.2 7.6 6.55 5.15 5.45 4.4 0.0 0.15 0.05 0.0 0.9 0.45" fill="#7e631c" fill-rule="evenodd" stroke="none"/>
    </g>
    <g id="sprite7">
      <use ffdec:characterId="17" height="13.1" transform="matrix(1.0, 0.0, 0.0, 1.0, 0.0, 0.0)" width="12.15" xlink:href="#shape7"/>
    </g>
    <g id="shape7">
      <path d="M1.55 3.45 L3.45 1.7 Q6.25 -0.45 7.15 0.9 L8.35 1.65 8.65 3.35 Q8.85 3.25 8.85 3.6 L8.85 3.75 8.85 4.1 8.8 5.0 8.55 5.1 8.35 5.3 8.15 5.75 7.65 6.35 7.05 6.35 6.4 6.35 6.05 6.35 5.4 6.85 5.45 7.25 5.5 7.35 5.75 7.75 5.9 8.75 3.15 8.6 Q3.15 7.8 2.7 7.1 1.55 5.45 1.55 3.45" fill="#e9dfc3" fill-rule="evenodd" stroke="none"/>
      <path d="M8.35 1.65 L8.9 1.95 Q10.2 2.6 10.8 3.2 11.15 3.5 11.15 5.8 11.15 7.85 10.5 8.7 10.25 9.05 10.35 10.2 10.1 11.2 8.15 11.3 L7.7 12.05 Q7.35 12.45 6.65 12.45 5.0 12.45 3.1 11.05 1.25 9.75 1.35 8.9 1.45 7.95 1.15 6.7 0.8 5.3 0.8 4.75 0.8 4.25 1.55 3.45 1.55 5.45 2.7 7.1 3.15 7.8 3.15 8.6 L5.9 8.75 5.75 7.75 5.5 7.35 5.45 7.25 5.4 6.85 6.05 6.35 6.4 6.35 7.05 6.35 7.65 6.35 8.15 5.75 8.35 5.3 8.55 5.1 8.8 5.0 8.85 4.1 8.85 3.75 8.85 3.6 Q8.85 3.25 8.65 3.35 L8.35 1.65" fill="#daba96" fill-rule="evenodd" stroke="none"/>
      <path d="M0.55 4.1 L1.35 3.15 2.2 2.2 2.65 1.4 Q3.9 -0.4 6.15 0.1 8.1 0.55 8.65 1.8 10.85 2.25 11.1 2.9 L11.3 4.2 Q12.15 5.5 12.15 6.65 12.15 7.2 11.4 8.55 L10.45 10.3 Q10.35 10.7 10.55 11.2 10.4 11.55 8.65 11.85 L7.75 12.55 Q7.25 13.1 5.8 13.1 3.95 13.1 2.15 11.7 0.55 10.45 0.55 9.6 L1.1 7.45 Q1.1 6.9 0.55 6.2 0.0 5.5 0.0 5.05 L0.55 4.1 M3.45 2.8 L2.65 3.7 1.45 5.35 1.65 5.95 1.85 6.75 1.55 7.85 Q1.25 8.35 1.25 8.8 4.55 12.15 6.15 12.15 L7.15 12.05 7.65 11.35 Q7.95 10.95 8.65 10.85 9.45 10.75 9.55 10.35 L9.65 9.5 11.2 6.7 Q11.2 6.0 10.65 4.6 10.05 3.1 9.5 2.95 7.7 2.75 7.4 2.4 L6.65 1.45 4.95 1.35 Q3.9 1.65 3.65 2.0 L3.45 2.8" fill="#3f3a30" fill-rule="evenodd" stroke="none"/>
      <path d="M7.65 1.0 L7.5 1.2 7.25 1.3 6.9 1.2 6.85 0.9 6.9 0.75 7.6 0.85 7.65 1.0 M8.75 4.5 L8.85 3.3 8.35 2.55 Q8.35 2.05 9.2 2.25 10.0 2.45 10.0 3.35 L9.7 4.35 8.95 5.2 9.4 5.85 9.35 6.15 9.1 6.3 Q8.5 6.0 8.3 5.7 L8.25 5.2 8.3 4.7 Q8.4 4.5 8.75 4.5 M6.6 9.45 L5.9 10.15 Q5.45 10.15 4.65 8.6 4.65 8.05 5.0 8.0 L6.15 7.6 Q6.9 7.1 6.9 8.65 L6.6 9.45 M2.4 9.1 L2.1 9.6 Q1.25 9.6 0.8 9.1 0.5 8.75 0.5 8.4 L1.35 7.1 Q2.15 6.15 2.15 8.05 L2.4 9.1" fill="#49341d" fill-rule="evenodd" stroke="none"/>
      <path d="M4.7 6.6 Q3.1 6.6 3.1 5.7 3.1 4.35 4.35 3.9 5.65 3.45 5.65 2.45 6.25 2.45 6.6 2.9 L6.95 3.6 6.6 4.4 6.1 5.2 5.9 6.1 Q5.6 6.6 4.7 6.6" fill="#ffffff" fill-rule="evenodd" stroke="none"/>
    </g>
  </defs>
</svg>
