<?xml version="1.0" encoding="UTF-8" standalone="no"?>
<svg xmlns:ffdec="https://www.free-decompiler.com/flash" xmlns:xlink="http://www.w3.org/1999/xlink" ffdec:objectType="frame" height="15.85px" width="19.3px" xmlns="http://www.w3.org/2000/svg">
  <g transform="matrix(1.0, 0.0, 0.0, 1.0, 9.85, -14.55)">
    <use ffdec:characterId="2" height="9.4" transform="matrix(1.0, 0.0, 0.0, 1.0, -6.1, 16.15)" width="12.6" xlink:href="#sprite0"/>
    <use ffdec:characterId="4" height="6.85" transform="matrix(-1.0, 0.0, 0.0, 1.0, 4.95, 20.2)" width="6.15" xlink:href="#sprite1"/>
    <use ffdec:characterId="6" height="4.95" transform="matrix(-1.0, 0.0, 0.0, 1.0, 9.45, 25.45)" width="8.1" xlink:href="#sprite2"/>
    <use ffdec:characterId="4" height="6.85" transform="matrix(1.0, 0.0, 0.0, 1.0, -5.35, 20.2)" width="6.15" xlink:href="#sprite1"/>
    <use ffdec:characterId="6" height="4.95" transform="matrix(1.0, 0.0, 0.0, 1.0, -9.85, 25.45)" width="8.1" xlink:href="#sprite2"/>
    <use ffdec:characterId="8" height="0.5" transform="matrix(1.0, 0.0, 0.0, 1.0, -2.65, 21.45)" width="4.95" xlink:href="#sprite3"/>
    <use ffdec:characterId="17" height="6.6" transform="matrix(1.0, 0.0, 0.0, 1.0, -7.0, 14.55)" width="14.45" xlink:href="#sprite4"/>
  </g>
  <defs>
    <g id="sprite0">
      <use ffdec:characterId="1" height="9.4" transform="matrix(1.0, 0.0, 0.0, 1.0, 0.0, 0.0)" width="12.6" xlink:href="#shape0"/>
    </g>
    <g id="shape0">
      <path d="M2.1 1.35 L2.0 1.45 2.05 1.65 2.1 1.65 Q2.1 3.0 0.45 7.1 L0.45 7.9 3.8 8.35 6.8 8.9 10.45 8.2 12.1 7.2 11.3 3.65 10.55 1.6 10.15 0.95 10.2 0.8 9.95 0.55 9.9 0.3 Q9.9 -0.3 10.5 0.4 11.15 1.2 11.75 3.4 L12.1 5.45 12.6 7.3 Q12.6 7.9 10.8 8.65 8.85 9.4 7.1 9.4 L3.6 8.8 2.15 8.45 0.35 8.3 0.0 8.15 Q0.0 7.0 0.95 4.6 2.0 2.3 2.0 1.15 L2.05 1.15 2.1 1.35" fill="#000000" fill-rule="evenodd" stroke="none"/>
      <path d="M9.95 0.55 L10.2 0.8 10.15 0.95 10.55 1.6 11.3 3.65 12.1 7.2 10.45 8.2 6.8 8.9 3.8 8.35 0.45 7.9 0.45 7.1 Q2.1 3.0 2.1 1.65 L2.05 1.65 2.0 1.45 2.1 1.35 Q2.3 1.1 3.35 0.9 L6.3 0.9 9.4 0.55 9.95 0.55" fill="#e12121" fill-rule="evenodd" stroke="none"/>
    </g>
    <g id="sprite1">
      <use ffdec:characterId="3" height="6.85" transform="matrix(1.0, 0.0, 0.0, 1.0, 0.0, 0.0)" width="6.15" xlink:href="#shape1"/>
    </g>
    <g id="shape1">
      <path d="M0.95 4.35 L1.2 3.55 1.25 3.0 2.85 3.6 Q3.5 3.95 3.5 4.55 3.5 5.15 3.15 5.4 L2.8 5.65 1.75 5.5 0.95 4.35" fill="#00378c" fill-rule="evenodd" stroke="none"/>
      <path d="M1.25 3.0 Q1.85 0.85 3.3 0.2 4.75 -0.45 6.15 1.15 5.85 2.95 4.5 4.35 3.15 5.7 3.0 6.65 L0.15 5.85 0.95 4.35 1.75 5.5 2.8 5.65 3.15 5.4 Q3.5 5.15 3.5 4.55 3.5 3.95 2.85 3.6 L1.25 3.0" fill="#001c48" fill-rule="evenodd" stroke="none"/>
      <path d="M3.9 4.5 Q4.55 3.15 4.95 2.8 L5.8 3.65 Q4.95 3.75 4.15 5.1 L3.3 6.85 2.8 6.45 3.9 4.5 M0.7 3.4 L2.35 0.6 2.7 0.9 Q2.15 1.3 1.35 3.45 L0.4 5.8 0.0 5.9 Q0.0 4.8 0.7 3.4" fill="#000000" fill-rule="evenodd" stroke="none"/>
    </g>
    <g id="sprite2">
      <use ffdec:characterId="5" height="4.95" transform="matrix(1.0, 0.0, 0.0, 1.0, 0.0, 0.0)" width="8.1" xlink:href="#shape2"/>
    </g>
    <g id="shape2">
      <path d="M5.95 0.95 L0.95 1.2 Q0.3 1.5 0.2 2.2 0.6 3.65 2.4 3.45 4.35 3.55 5.9 2.15 L5.95 0.95 M6.55 0.55 L7.4 1.15 Q8.05 1.75 8.1 2.95 6.75 4.3 5.1 4.7 2.6 5.4 0.65 4.0 0.15 3.65 0.05 3.15 -0.25 1.85 0.85 0.75 L1.85 0.0 6.55 0.55" fill="#000000" fill-rule="evenodd" stroke="none"/>
      <path d="M5.95 0.95 L5.9 2.15 Q4.35 3.55 2.4 3.45 0.6 3.65 0.2 2.2 0.3 1.5 0.95 1.2 L5.95 0.95" fill="#434343" fill-rule="evenodd" stroke="none"/>
    </g>
    <g id="sprite3">
      <use ffdec:characterId="7" height="0.5" transform="matrix(1.0, 0.0, 0.0, 1.0, 0.0, 0.0)" width="4.95" xlink:href="#shape3"/>
    </g>
    <g id="shape3">
      <path d="M0.7 0.4 L0.0 0.05 0.1 0.0 4.95 0.3 1.95 0.5 1.55 0.5 0.7 0.4" fill="#ffffff" fill-rule="evenodd" stroke="none"/>
    </g>
    <g id="sprite4">
      <use ffdec:characterId="16" height="6.6" transform="matrix(1.0, 0.0, 0.0, 1.0, 0.0, 0.0)" width="14.45" xlink:href="#shape4"/>
    </g>
    <g id="shape4">
      <path d="M2.35 0.25 L7.5 0.25 12.8 0.1 Q13.45 0.1 14.05 2.35 14.05 4.0 12.5 5.15 10.95 6.3 8.7 6.3 L8.05 6.2 6.8 5.55 6.9 5.3 Q9.05 4.85 10.15 3.95 L12.35 1.45 12.1 1.25 11.2 1.1 Q9.9 1.1 9.5 1.85 L8.9 2.55 8.5 2.65 7.75 2.95 Q6.95 2.3 5.65 1.75 4.1 1.1 2.85 1.1 2.35 1.1 2.25 1.4 L1.6 2.55 1.65 2.75 3.0 3.05 4.25 3.15 5.75 3.15 7.2 3.05 6.45 3.4 5.05 3.9 5.0 3.95 4.55 4.05 2.35 4.25 Q1.35 4.2 0.85 3.4 L0.95 2.35 1.05 2.2 1.05 2.1 1.4 1.2 Q1.8 0.6 2.25 0.35 L2.3 0.35 2.35 0.25" fill="#450000" fill-rule="evenodd" stroke="none"/>
      <path d="M1.05 2.1 L1.05 2.2 0.95 2.35 0.85 3.4 Q1.35 4.2 2.35 4.25 L4.55 4.05 5.0 3.95 4.65 4.05 5.55 4.3 7.1 4.1 9.0 3.5 10.75 2.45 9.05 2.5 8.9 2.55 9.5 1.85 Q9.9 1.1 11.2 1.1 L12.1 1.25 12.35 1.45 10.15 3.95 Q9.05 4.85 6.9 5.3 L6.8 5.55 8.05 6.2 6.55 6.1 Q6.5 5.8 6.15 5.8 L5.75 6.0 Q0.45 5.3 0.45 3.45 L1.05 2.1 M6.45 3.4 L7.2 3.05 5.75 3.15 4.25 3.15 3.0 3.05 1.65 2.75 1.6 2.55 2.25 1.4 Q2.35 1.1 2.85 1.1 4.1 1.1 5.65 1.75 6.95 2.3 7.75 2.95 L6.45 3.4 M2.6 1.2 Q2.85 1.8 3.5 2.0 L4.8 2.1 5.25 2.0 4.95 1.8 Q4.2 1.35 2.6 1.2" fill="#e12121" fill-rule="evenodd" stroke="none"/>
      <path d="M5.0 3.95 L5.05 3.9 6.45 3.4 7.75 2.95 8.5 2.65 8.9 2.55 9.05 2.5 10.75 2.45 9.0 3.5 7.1 4.1 5.55 4.3 4.65 4.05 5.0 3.95 M2.6 1.2 Q4.2 1.35 4.95 1.8 L5.25 2.0 4.8 2.1 3.5 2.0 Q2.85 1.8 2.6 1.2" fill="#ffafaf" fill-rule="evenodd" stroke="none"/>
      <path d="M2.35 0.25 L2.3 0.35 2.25 0.35 2.35 0.25" fill="#ff3737" fill-rule="evenodd" stroke="none"/>
      <path d="M13.45 1.35 L13.35 1.65 12.9 2.3 10.7 3.85 Q9.05 5.05 7.0 5.5 L6.95 5.5 Q8.3 6.1 9.8 6.05 11.25 5.95 12.6 4.75 13.85 3.45 13.9 2.8 13.9 2.1 13.5 1.5 L13.45 1.35 M12.9 0.7 L12.75 0.3 Q12.75 -0.2 13.15 0.15 L13.2 0.2 Q13.35 0.15 13.75 0.65 14.45 1.6 14.45 2.35 14.45 3.65 13.5 4.9 12.15 6.6 9.5 6.6 L6.05 5.95 5.3 6.05 3.5 6.05 Q2.55 6.1 1.2 5.15 0.0 4.25 0.0 3.7 0.0 3.35 0.3 2.85 L0.8 1.95 Q1.35 0.3 2.25 0.15 L2.3 0.25 1.35 1.7 Q1.1 1.95 0.45 3.55 0.45 4.0 1.5 4.75 2.65 5.6 3.5 5.4 L5.25 5.4 6.55 5.2 Q9.0 4.7 10.55 3.75 12.5 2.55 12.95 1.95 13.25 1.5 13.15 1.2 L12.9 0.7" fill="#000000" fill-rule="evenodd" stroke="none"/>
    </g>
  </defs>
</svg>
