<?xml version="1.0" encoding="UTF-8" standalone="no"?>
<svg xmlns:ffdec="https://www.free-decompiler.com/flash" xmlns:xlink="http://www.w3.org/1999/xlink" ffdec:objectType="frame" height="16.7px" width="24.75px" xmlns="http://www.w3.org/2000/svg">
  <g transform="matrix(1.0, 0.0, 0.0, 1.0, 12.25, -14.3)">
    <use ffdec:characterId="2" height="8.15" transform="matrix(-1.0, 0.0, 0.0, 1.0, 11.7, 14.8)" width="9.6" xlink:href="#sprite0"/>
    <use ffdec:characterId="14" height="5.45" transform="matrix(1.0, 0.0, 0.0, 1.0, -9.5, 25.5)" width="8.25" xlink:href="#sprite1"/>
    <use ffdec:characterId="4" height="5.75" transform="matrix(1.0, 0.0, 0.0, 1.0, -2.15, 15.5)" width="4.6" xlink:href="#sprite2"/>
    <use ffdec:characterId="6" height="6.65" transform="matrix(1.0, 0.0, 0.0, 1.0, -5.4, 20.95)" width="6.85" xlink:href="#sprite3"/>
    <use ffdec:characterId="2" height="8.15" transform="matrix(1.0, 0.0, 0.0, 1.0, -11.75, 14.8)" width="9.6" xlink:href="#sprite0"/>
    <use ffdec:characterId="14" height="5.45" transform="matrix(-1.0, 0.0, 0.0, 1.0, 9.6, 25.5)" width="8.25" xlink:href="#sprite1"/>
    <use ffdec:characterId="6" height="6.65" transform="matrix(-1.0, 0.0, 0.0, 1.0, 5.5, 20.95)" width="6.85" xlink:href="#sprite3"/>
    <use ffdec:characterId="8" height="16.7" transform="matrix(1.0, 0.0, 0.0, 1.0, -12.25, 14.3)" width="12.25" xlink:href="#sprite4"/>
    <use ffdec:characterId="8" height="16.7" transform="matrix(-1.0, 0.0, 0.0, 1.0, 12.5, 14.3)" width="12.25" xlink:href="#sprite4"/>
  </g>
  <defs>
    <g id="sprite0">
      <use ffdec:characterId="1" height="8.15" transform="matrix(1.0, 0.0, 0.0, 1.0, 0.0, 0.0)" width="9.6" xlink:href="#shape0"/>
    </g>
    <g id="shape0">
      <path d="M7.5 1.1 L8.45 0.4 9.6 0.35 9.5 1.95 9.35 2.55 8.5 3.1 7.95 3.6 7.55 3.9 7.5 3.9 7.4 3.9 Q7.0 3.9 7.1 3.6 L7.1 3.55 Q7.1 3.25 7.4 2.9 L7.5 2.8 7.25 2.6 7.2 2.55 7.15 2.6 6.65 2.95 6.5 2.7 Q6.55 2.35 6.95 2.0 L7.25 1.85 7.2 1.65 Q7.2 1.4 7.5 1.1 M3.05 4.65 L3.35 4.35 3.3 4.1 3.85 3.8 4.75 3.7 4.7 3.85 4.75 4.05 4.55 4.25 4.4 4.45 4.55 4.55 4.55 4.7 4.15 5.15 3.6 5.45 3.35 5.25 3.6 4.95 Q3.35 4.9 3.35 4.6 L3.05 4.65 M6.6 4.2 L6.35 5.0 Q6.05 5.65 5.5 5.65 5.2 5.65 5.2 5.35 L5.25 4.5 Q5.25 4.3 5.55 4.05 5.95 3.7 6.3 3.7 L6.55 3.95 6.6 4.2" fill="#291369" fill-rule="evenodd" stroke="none"/>
      <path d="M7.5 3.9 L6.95 5.05 6.45 6.05 6.45 6.1 Q6.1 6.75 6.05 7.25 5.9 7.25 5.9 6.95 L5.85 6.55 5.9 6.25 5.65 6.35 4.7 6.9 3.55 7.65 3.45 7.6 3.45 7.45 Q4.6 6.35 4.7 5.6 4.4 5.25 2.6 6.0 L2.35 5.8 2.7 5.35 3.05 4.85 2.8 4.85 3.05 4.65 3.35 4.6 Q3.35 4.9 3.6 4.95 L3.35 5.25 3.6 5.45 4.15 5.15 4.55 4.7 4.55 4.55 4.4 4.45 4.55 4.25 4.75 4.05 4.7 3.85 4.75 3.7 3.85 3.8 3.3 4.1 2.85 4.0 2.75 3.95 2.7 3.95 2.45 4.0 2.3 3.95 2.0 4.05 1.9 4.0 2.1 3.85 Q2.15 3.7 3.05 3.4 L4.15 3.1 Q4.95 2.55 5.9 2.1 L7.5 1.1 Q7.2 1.4 7.2 1.65 L7.25 1.85 6.95 2.0 Q6.55 2.35 6.5 2.7 L6.65 2.95 7.15 2.6 7.2 2.55 7.25 2.6 7.5 2.8 7.4 2.9 Q7.1 3.25 7.1 3.55 L7.1 3.6 Q7.0 3.9 7.4 3.9 L7.5 3.9 M6.6 4.2 L6.55 3.95 6.3 3.7 Q5.95 3.7 5.55 4.05 5.25 4.3 5.25 4.5 L5.2 5.35 Q5.2 5.65 5.5 5.65 6.05 5.65 6.35 5.0 L6.6 4.2" fill="#1d27ad" fill-rule="evenodd" stroke="none"/>
      <path d="M8.85 0.35 Q8.1 0.85 5.7 2.55 2.55 3.9 1.85 3.95 L4.75 3.75 3.55 4.65 2.6 5.75 5.1 5.35 4.4 6.55 3.6 7.55 6.05 6.1 6.05 6.85 6.45 5.25 Q6.85 3.7 8.7 2.9 6.45 5.9 6.05 8.15 L5.6 7.7 5.8 6.4 Q5.7 6.8 4.65 7.4 L3.2 7.8 3.9 6.3 Q4.35 5.85 3.6 6.1 L1.6 6.35 3.15 4.15 0.0 3.95 Q3.15 2.9 4.75 2.0 6.3 1.1 9.0 0.1 L8.85 0.35" fill="#00054a" fill-rule="evenodd" stroke="none"/>
    </g>
    <g id="sprite1">
      <use ffdec:characterId="13" height="5.45" transform="matrix(1.0, 0.0, 0.0, 1.0, 0.0, 0.0)" width="8.25" xlink:href="#shape1"/>
    </g>
    <g id="shape1">
      <path d="M6.9 2.7 Q8.2 2.5 5.4 3.15 2.6 3.75 0.35 2.1 L1.5 1.55 Q3.15 0.7 3.35 0.9 3.55 1.1 2.55 1.55 1.5 2.0 3.55 2.45 L6.9 2.7" fill="#737373" fill-rule="evenodd" stroke="none"/>
      <path d="M6.9 2.7 L3.55 2.45 Q1.5 2.0 2.55 1.55 3.55 1.1 3.35 0.9 3.15 0.7 1.5 1.55 L0.35 2.1 Q2.6 3.75 5.4 3.15 8.2 2.5 6.9 2.7 M8.25 1.8 L7.75 3.8 6.95 4.3 Q6.8 3.75 6.45 3.9 6.1 4.05 5.95 4.8 L4.55 5.35 3.05 5.4 0.55 4.45 0.35 3.9 Q-0.15 2.25 0.05 1.95 0.35 1.55 0.75 1.45 L2.0 0.95 3.85 0.3 5.65 0.0 Q6.55 -0.05 7.5 0.65 8.35 1.35 8.25 1.8" fill="#000000" fill-rule="evenodd" stroke="none"/>
    </g>
    <g id="sprite2">
      <use ffdec:characterId="3" height="5.75" transform="matrix(1.0, 0.0, 0.0, 1.0, 0.0, 0.0)" width="4.6" xlink:href="#shape2"/>
    </g>
    <g id="shape2">
      <path d="M0.0 0.0 L4.6 0.0 4.6 5.75 0.0 5.75 0.0 0.0 M0.4 4.25 L1.45 4.7 Q2.5 4.9 4.05 4.1 L4.2 3.95 4.1 3.85 2.05 3.9 Q0.4 4.0 0.4 4.25" fill="#000000" fill-rule="evenodd" stroke="none"/>
      <path d="M0.4 4.25 Q0.4 4.0 2.05 3.9 L4.1 3.85 4.2 3.95 4.05 4.1 Q2.5 4.9 1.45 4.7 L0.4 4.25" fill="#ffffff" fill-rule="evenodd" stroke="none"/>
    </g>
    <g id="sprite3">
      <use ffdec:characterId="5" height="6.65" transform="matrix(1.0, 0.0, 0.0, 1.0, 0.0, 0.0)" width="6.85" xlink:href="#shape3"/>
    </g>
    <g id="shape3">
      <path d="M6.85 0.65 L6.85 1.35 6.85 2.2 Q6.8 2.65 6.0 2.7 L5.15 2.75 Q4.6 2.85 4.45 3.25 L4.25 4.05 Q4.0 4.5 3.7 5.95 3.6 6.65 2.6 6.65 L1.0 6.35 0.4 5.65 1.8 2.2 2.1 1.25 Q2.3 0.65 2.85 0.5 L3.7 0.25 6.2 0.0 Q6.75 0.0 6.85 0.65 M1.1 5.9 L2.3 6.05 3.25 3.2 Q2.55 2.8 2.2 3.0 L1.1 5.9" fill="#000000" fill-rule="evenodd" stroke="none"/>
      <path d="M1.1 5.9 L2.2 3.0 Q2.55 2.8 3.25 3.2 L2.3 6.05 1.1 5.9" fill="#343434" fill-rule="evenodd" stroke="none"/>
      <path d="M5.2 2.5 L6.7 2.7 4.8 2.95 4.3 4.9 3.7 6.6 3.3 6.45 Q3.05 6.3 4.6 2.65 L5.2 2.5 M1.4 2.4 Q1.7 1.9 2.25 1.65 L2.3 1.8 1.5 3.85 0.3 6.05 0.0 5.8 0.9 3.65 1.4 2.4" fill="#000000" fill-rule="evenodd" stroke="none"/>
    </g>
    <g id="sprite4">
      <use ffdec:characterId="7" height="16.7" transform="matrix(1.0, 0.0, 0.0, 1.0, 0.0, 0.0)" width="12.25" xlink:href="#shape4"/>
    </g>
    <g id="shape4">
      <path d="M8.7 1.85 L8.65 1.85 7.7 0.95 Q6.9 0.7 6.8 0.35 L12.05 0.75 12.05 0.8 11.75 3.3 11.8 4.4 Q11.55 4.95 11.55 6.05 L11.55 8.3 11.75 8.85 11.75 9.15 11.75 9.2 12.0 11.9 11.85 14.45 10.9 13.05 10.0 12.0 9.55 11.65 9.2 11.5 8.4 12.45 5.5 15.35 6.3 13.1 Q6.9 11.65 7.7 10.5 L8.8 9.75 9.65 7.6 Q10.0 6.6 9.4 7.3 8.8 8.0 8.6 7.85 L8.6 7.5 8.4 7.0 7.7 7.65 8.4 6.5 8.4 6.25 8.5 5.6 9.15 4.85 Q10.05 3.55 10.3 2.2 L8.7 1.85 M3.8 12.9 L3.75 12.95 3.6 13.05 3.5 13.05 3.35 13.1 2.2 13.65 2.15 13.7 1.35 14.0 1.6 13.15 Q1.95 12.35 2.9 11.55 L4.2 10.6 4.7 10.2 5.5 9.8 6.55 9.15 6.8 9.25 3.9 11.4 5.4 11.0 6.25 10.8 6.3 10.8 6.35 10.8 4.35 12.45 3.8 12.9 M10.5 12.2 Q10.55 12.6 11.5 13.6 11.15 12.35 11.3 12.2 11.5 12.0 9.9 10.2 L10.5 12.2" fill="#1d27ad" fill-rule="evenodd" stroke="none"/>
      <path d="M11.85 14.45 L11.85 14.6 12.0 14.95 11.95 14.95 11.05 14.45 10.25 14.3 9.7 13.75 9.7 13.65 9.65 13.4 9.25 13.15 Q9.0 13.15 8.8 13.55 L8.6 13.65 8.55 13.8 8.35 13.55 Q7.6 13.8 7.0 14.45 6.2 15.5 5.05 15.95 L4.2 16.2 Q4.1 15.65 4.95 14.85 5.3 14.55 5.35 13.85 L4.65 13.8 Q4.25 14.0 3.95 14.25 L3.65 14.35 3.75 14.25 3.55 14.0 4.1 13.65 4.2 13.65 4.2 13.6 5.35 12.25 4.3 12.7 4.1 12.75 3.8 12.9 4.35 12.45 6.35 10.8 6.4 10.75 7.0 10.65 7.7 10.5 Q6.9 11.65 6.3 13.1 L5.5 15.35 8.4 12.45 9.2 11.5 9.55 11.65 10.0 12.0 10.9 13.05 11.85 14.45 M6.55 9.15 L6.6 9.1 7.05 8.65 7.5 8.05 7.7 7.65 8.4 7.0 8.6 7.5 8.6 7.85 6.8 9.25 6.55 9.15 M8.5 5.6 L8.6 5.05 Q8.65 4.75 8.85 4.7 L8.7 1.85 10.3 2.2 Q10.05 3.55 9.15 4.85 L8.5 5.6" fill="#291369" fill-rule="evenodd" stroke="none"/>
      <path d="M6.6 9.1 L7.5 8.05 7.05 8.65 6.6 9.1" fill="#ff0000" fill-rule="evenodd" stroke="none"/>
      <path d="M10.5 12.2 L9.9 10.2 Q11.5 12.0 11.3 12.2 11.15 12.35 11.5 13.6 10.55 12.6 10.5 12.2" fill="#7680fe" fill-rule="evenodd" stroke="none"/>
      <path d="M8.6 7.85 Q8.8 8.0 9.4 7.3 10.0 6.6 9.65 7.6 L8.8 9.75 7.7 10.5 7.0 10.65 6.4 10.75 6.3 10.8 6.25 10.8 5.4 11.0 3.9 11.4 6.8 9.25 8.6 7.85" fill="#4694d2" fill-rule="evenodd" stroke="none"/>
      <path d="M11.5 8.35 Q11.3 7.4 11.2 4.0 L12.0 1.45 Q11.9 2.35 11.95 7.15 L12.05 13.05 12.25 15.15 10.0 14.5 Q9.25 12.8 8.8 13.5 L7.75 14.65 6.45 15.8 Q4.75 16.85 4.15 16.7 3.45 16.6 4.55 14.9 L5.7 13.35 5.85 13.8 4.9 15.9 Q6.05 15.5 7.15 14.2 8.3 12.8 8.65 12.75 8.45 13.15 9.65 12.5 10.45 14.05 11.75 14.85 11.45 14.35 11.55 13.55 L11.7 11.25 11.5 8.35 M10.5 1.25 L7.4 0.65 8.85 1.65 8.85 2.05 5.65 0.25 11.2 0.65 10.5 1.25 M8.45 3.75 Q9.45 2.05 9.15 5.75 9.05 7.75 6.35 9.3 L7.65 7.6 Q8.6 6.0 8.45 3.75 M1.85 11.5 Q3.05 9.85 5.85 9.65 2.45 11.45 1.5 13.85 L6.9 11.0 5.15 12.9 3.7 14.1 5.0 13.8 Q4.75 14.3 2.35 14.75 L3.4 13.75 4.25 13.05 Q-1.35 15.8 0.45 13.85 0.55 13.15 1.85 11.5" fill="#00054a" fill-rule="evenodd" stroke="none"/>
    </g>
  </defs>
</svg>
