<?xml version="1.0" encoding="UTF-8" standalone="no"?>
<svg xmlns:ffdec="https://www.free-decompiler.com/flash" xmlns:xlink="http://www.w3.org/1999/xlink" ffdec:objectType="frame" height="20.0px" width="26.05px" xmlns="http://www.w3.org/2000/svg">
  <g transform="matrix(1.0, 0.0, 0.0, 1.0, 13.45, -14.7)">
    <use ffdec:characterId="2" height="8.25" transform="matrix(1.0, 0.0, 0.0, 1.0, -4.65, 17.35)" width="9.8" xlink:href="#sprite0"/>
    <use ffdec:characterId="4" height="14.7" transform="matrix(1.0, 0.0, 0.0, 1.0, -13.45, 20.0)" width="26.05" xlink:href="#sprite1"/>
    <use ffdec:characterId="6" height="9.65" transform="matrix(1.0, 0.0, 0.0, 1.0, -4.45, 14.7)" width="9.45" xlink:href="#sprite2"/>
    <use ffdec:characterId="8" height="9.0" transform="matrix(1.0, 0.0, 0.0, 1.0, -8.85, 15.05)" width="6.0" xlink:href="#sprite3"/>
    <use ffdec:characterId="8" height="9.0" transform="matrix(-1.0, 0.0, 0.0, 1.0, 9.0, 15.05)" width="6.0" xlink:href="#sprite3"/>
  </g>
  <defs>
    <g id="sprite0">
      <use ffdec:characterId="1" height="8.25" transform="matrix(1.0, 0.0, 0.0, 1.0, 0.0, 0.0)" width="9.8" xlink:href="#shape0"/>
    </g>
    <g id="shape0">
      <path d="M9.4 0.75 L9.4 5.5 8.3 6.75 Q7.1 7.65 5.1 7.65 3.9 7.65 2.25 6.65 L0.45 5.2 0.3 4.9 0.3 0.2 0.9 0.85 Q2.45 2.1 5.5 2.1 7.2 2.1 9.4 0.75" fill="#bfb4fd" fill-rule="evenodd" stroke="none"/>
      <path d="M0.25 0.0 L1.3 1.0 2.9 1.75 5.65 1.9 Q7.4 1.65 9.15 0.85 L9.8 0.55 Q8.55 1.65 7.25 2.05 L4.65 2.75 Q3.4 3.0 1.9 2.05 0.85 1.45 0.25 0.0 M3.15 7.25 Q1.3 6.4 0.0 4.9 L2.15 6.15 Q3.8 7.1 5.65 7.4 7.15 7.75 8.1 6.8 L9.7 5.1 Q8.75 8.4 6.85 8.25 4.95 8.1 3.15 7.25" fill="#000000" fill-rule="evenodd" stroke="none"/>
    </g>
    <g id="sprite1">
      <use ffdec:characterId="3" height="14.7" transform="matrix(1.0, 0.0, 0.0, 1.0, 0.0, 0.0)" width="26.05" xlink:href="#shape1"/>
    </g>
    <g id="shape1">
      <path d="M25.35 5.4 Q24.55 5.4 24.55 5.05 L24.6 4.85 25.3 4.8 Q24.75 4.8 24.75 4.5 24.75 4.1 25.4 4.1 26.05 4.1 26.05 4.5 26.05 4.8 25.5 4.8 26.05 4.8 26.05 5.1 26.05 5.4 25.35 5.4 M24.95 1.1 Q24.95 1.65 24.0 1.65 L23.6 1.35 Q23.6 0.95 24.3 0.75 24.95 0.55 24.95 1.1 M24.55 5.5 Q24.6 5.4 24.85 5.4 25.55 5.4 25.55 5.75 L25.05 6.1 25.4 6.7 25.3 6.9 25.65 7.2 25.8 7.45 25.25 8.0 25.4 8.3 Q25.4 8.5 24.75 8.7 L24.9 9.3 Q24.9 9.95 23.9 10.0 L24.2 10.55 24.05 11.0 23.75 11.4 24.0 11.85 Q24.0 12.25 23.6 12.25 23.1 12.25 23.0 11.4 L23.3 10.3 23.35 10.05 23.55 9.6 24.15 9.0 24.1 8.8 24.4 8.3 24.3 8.0 24.7 7.4 24.5 7.05 Q24.5 6.75 24.75 6.6 L24.5 6.25 24.5 6.2 24.55 6.05 24.65 5.85 24.55 5.75 24.55 5.7 24.55 5.5 M19.2 9.85 L19.45 9.8 Q19.7 9.8 19.95 10.1 L20.15 10.6 19.8 10.95 19.25 10.65 19.0 11.05 18.6 11.25 18.35 11.05 18.1 11.1 18.05 11.1 18.05 11.25 17.7 11.55 17.45 11.5 17.15 11.65 Q16.85 11.65 16.85 11.25 16.85 10.55 17.2 10.55 L17.4 10.6 17.7 10.45 17.95 10.4 18.15 10.2 18.2 10.15 Q18.6 9.9 18.9 9.9 L19.05 9.95 19.1 9.9 19.2 9.85 M11.15 12.25 L11.1 12.3 10.6 12.6 10.1 12.3 9.75 12.5 9.5 12.2 9.65 11.65 9.6 11.6 Q9.6 12.25 8.9 12.25 L8.6 11.9 7.35 11.55 Q6.25 11.2 6.25 11.0 7.35 9.65 7.35 10.4 L7.35 10.45 Q7.7 10.3 7.7 10.7 L7.7 10.75 Q8.1 10.8 8.15 11.05 L8.25 11.0 8.5 11.2 8.5 11.4 8.8 11.35 Q9.2 11.35 9.1 11.7 L9.65 11.2 9.75 11.15 9.95 11.2 10.1 11.7 Q10.35 11.65 10.65 11.95 10.85 11.45 11.15 11.45 L11.2 11.45 11.4 11.65 11.45 11.85 11.15 12.25 M5.7 10.45 Q4.95 10.9 4.15 11.3 L3.55 10.95 Q3.0 10.55 3.0 10.15 2.25 10.2 2.0 9.5 L1.35 8.75 1.25 7.95 0.95 7.75 0.65 7.65 0.55 7.3 0.75 6.85 1.2 6.45 1.0 6.0 1.1 5.6 Q0.0 5.4 0.0 5.05 0.0 4.75 0.65 4.75 L1.45 4.85 1.75 5.0 Q1.6 5.05 1.6 5.3 L1.6 5.4 1.5 5.5 1.65 5.9 1.55 6.0 1.7 6.15 1.85 6.65 1.7 6.8 1.65 7.25 1.6 7.3 Q1.6 7.7 1.9 7.9 L2.0 8.0 2.3 8.5 2.3 8.9 2.6 8.9 2.9 9.3 2.7 9.45 2.6 9.5 2.75 9.6 3.2 9.6 3.3 9.6 3.65 9.95 3.5 10.05 3.6 10.1 3.75 10.0 Q4.45 10.75 5.15 10.6 L5.7 10.45 M3.75 4.75 L3.2 4.6 2.75 4.2 Q2.75 3.9 3.1 3.8 L3.8 3.5 3.75 2.95 3.6 2.45 3.8 2.15 4.2 1.6 4.3 1.1 Q4.4 0.8 5.05 0.8 5.6 0.8 5.6 1.15 L5.55 1.45 5.2 2.0 4.95 2.4 4.65 2.7 4.85 2.95 4.85 3.05 4.75 3.15 4.5 3.35 4.6 3.6 4.5 3.75 4.05 4.1 4.05 4.15 4.4 4.3 4.5 4.4 4.5 4.45 Q4.5 4.75 4.0 4.75 L3.75 4.75 M23.6 2.25 Q23.6 2.05 23.95 1.9 24.35 1.8 24.5 2.05 L24.75 2.85 24.6 3.1 24.6 3.15 25.0 3.5 25.1 3.8 24.85 4.15 24.5 4.4 Q24.1 4.4 24.2 3.8 L23.7 3.95 Q23.3 3.95 23.4 3.6 23.4 3.05 23.85 2.7 L23.6 2.25 M16.35 12.75 L16.6 12.85 Q16.85 12.0 17.4 12.25 17.9 12.5 17.9 13.1 17.9 13.45 17.5 13.45 L17.1 13.35 Q17.1 14.25 16.55 14.25 16.05 14.25 16.1 13.65 L15.45 14.3 Q15.2 14.3 14.9 13.7 L14.2 14.4 13.6 14.7 Q13.15 14.7 13.15 14.25 L13.3 13.9 13.3 13.85 13.0 14.15 12.7 14.3 12.45 14.2 12.15 13.8 Q11.9 13.9 11.8 14.05 L11.55 14.15 11.25 13.9 10.8 14.35 Q10.35 14.35 10.35 13.7 L10.2 13.7 Q9.9 13.7 9.9 13.4 9.9 13.2 10.25 12.9 10.6 12.6 10.9 12.6 11.4 12.6 11.5 12.85 L11.8 13.2 12.3 13.2 Q12.7 13.25 12.8 13.5 13.0 13.35 13.15 13.35 L13.2 13.35 14.15 13.6 14.95 13.3 15.2 13.45 15.3 13.65 Q15.4 13.05 16.35 12.75" fill="#ffffff" fill-rule="evenodd" stroke="none"/>
      <path d="M18.9 0.4 L19.35 0.4 21.5 0.75 22.45 1.0 22.5 1.05 22.9 1.0 Q23.45 1.0 23.55 1.25 L23.6 1.65 Q23.6 2.4 23.25 2.95 L22.45 2.55 17.35 1.35 18.9 0.4 M23.15 4.6 L23.25 4.6 23.9 4.65 Q24.3 4.7 24.5 5.1 L24.55 5.5 24.55 5.7 24.55 5.75 24.55 6.05 24.5 6.2 24.5 6.25 24.05 8.0 23.75 8.85 23.45 9.5 22.75 10.6 22.7 10.6 22.6 10.65 22.35 10.5 Q21.85 8.9 22.4 6.9 L21.8 6.6 Q19.55 5.35 17.5 3.75 L17.25 3.45 Q17.25 3.15 18.35 3.05 L19.1 3.2 Q19.9 3.4 20.5 3.75 L21.9 4.45 23.15 4.6 M2.45 5.2 L2.9 5.1 3.0 5.1 5.1 4.65 Q6.2 4.05 6.95 3.75 L7.35 3.55 7.2 3.7 7.3 3.75 6.85 3.95 6.9 4.0 8.7 4.3 7.0 5.4 Q4.8 6.75 3.2 8.65 L1.85 6.65 1.7 6.15 1.65 5.9 1.5 5.5 1.6 5.4 2.45 5.2 M5.55 1.45 L6.15 1.25 6.5 1.35 7.6 1.1 9.0 1.2 Q8.65 2.25 6.9 2.65 4.95 3.1 4.6 3.5 L4.75 3.15 4.85 3.05 4.85 2.95 4.9 2.8 4.95 2.8 4.95 2.45 4.95 2.4 5.2 2.0 5.55 1.45" fill="#9440e7" fill-rule="evenodd" stroke="none"/>
      <path d="M23.15 4.2 L23.15 4.6 21.9 4.45 20.5 3.75 Q19.9 3.4 19.1 3.2 L19.25 3.2 20.95 3.7 Q22.2 4.25 23.15 4.2 M23.25 4.6 L23.35 4.55 Q24.3 4.25 24.5 5.1 24.3 4.7 23.9 4.65 L23.25 4.6 M23.35 10.05 L22.75 10.6 23.45 9.5 23.75 8.85 23.55 9.6 23.35 10.05 M1.45 4.85 L1.7 4.8 1.95 5.0 2.1 5.05 2.3 5.05 2.4 5.05 2.3 5.15 2.45 5.2 1.6 5.4 1.6 5.3 Q1.6 5.05 1.75 5.0 L1.45 4.85 M3.0 5.1 L3.75 4.75 4.0 4.75 Q4.5 4.75 4.5 4.45 L4.5 4.4 5.6 4.1 6.95 3.75 Q6.2 4.05 5.1 4.65 L3.0 5.1 M1.7 6.15 L1.55 6.0 1.65 5.9 1.7 6.15" fill="#7c2be3" fill-rule="evenodd" stroke="none"/>
      <path d="M23.25 2.95 L23.35 3.75 23.15 4.2 Q22.2 4.25 20.95 3.7 L19.25 3.2 19.1 3.2 18.35 3.05 Q17.25 3.15 17.25 3.45 L17.5 3.75 Q17.9 6.3 18.9 8.5 L19.4 9.45 19.2 9.85 19.1 9.9 19.05 9.95 18.9 9.9 Q18.6 9.9 18.2 10.15 L18.15 10.2 18.0 10.2 Q16.25 10.6 15.9 9.0 L15.05 5.75 12.75 5.9 11.7 10.35 Q11.45 10.85 8.5 10.85 L8.4 10.85 7.6 10.35 7.4 10.15 7.15 9.85 9.4 6.45 9.35 6.35 9.5 5.55 Q9.5 4.8 8.85 4.4 L8.7 4.3 6.9 4.0 6.85 3.95 7.3 3.75 7.2 3.7 7.35 3.55 6.95 3.75 5.6 4.1 4.5 4.4 4.4 4.3 4.6 3.6 4.6 3.5 Q4.95 3.1 6.9 2.65 8.65 2.25 9.0 1.2 L15.95 0.6 18.25 0.2 18.95 0.3 18.9 0.4 17.35 1.35 22.45 2.55 23.25 2.95" fill="#451477" fill-rule="evenodd" stroke="none"/>
      <path d="M22.6 10.65 L21.95 10.8 19.4 9.45 18.9 8.5 Q17.9 6.3 17.5 3.75 19.55 5.35 21.8 6.6 L22.4 6.9 Q21.85 8.9 22.35 10.5 L22.6 10.65 M18.0 10.2 L16.2 10.85 16.45 12.15 Q16.45 13.2 13.15 13.2 12.6 13.2 11.85 12.8 L11.15 12.25 11.45 11.85 11.4 11.65 11.2 11.45 11.2 11.2 10.25 11.2 9.95 11.2 9.75 11.15 9.65 11.2 8.4 10.85 8.5 10.85 Q11.45 10.85 11.7 10.35 L12.75 5.9 15.05 5.75 15.9 9.0 Q16.25 10.6 18.0 10.2 M7.15 9.85 L5.7 10.45 5.15 10.6 Q4.45 10.75 3.75 10.0 L3.65 9.95 3.3 9.6 3.2 9.6 2.9 9.3 2.6 8.9 2.3 8.5 2.0 8.0 1.65 7.25 1.7 6.8 1.85 6.65 3.2 8.65 Q4.8 6.75 7.0 5.4 L8.7 4.3 8.85 4.4 Q9.5 4.8 9.5 5.55 L9.35 6.35 9.4 6.45 7.15 9.85" fill="#c58bff" fill-rule="evenodd" stroke="none"/>
      <path d="M5.3 0.8 Q7.45 0.05 9.65 1.4 L5.75 1.55 4.65 4.25 9.15 2.5 Q5.95 5.6 1.8 5.35 2.2 8.65 4.65 10.5 4.2 10.5 3.95 10.3 1.1 9.15 1.15 4.6 L3.7 4.6 4.4 2.8 5.3 0.8 M23.05 3.9 L23.2 1.4 Q20.0 0.2 17.05 0.65 20.05 -0.7 23.85 0.8 L23.8 3.75 24.7 4.0 25.05 4.6 Q25.05 6.95 24.15 9.15 L23.05 11.15 22.5 11.65 21.6 11.3 20.8 10.8 19.65 9.8 17.05 10.9 17.2 11.85 17.15 12.5 17.05 12.9 Q13.75 14.7 10.65 12.75 L10.8 11.9 9.75 11.9 8.75 11.6 7.8 11.05 6.85 10.25 4.9 10.9 5.55 10.25 9.0 6.0 9.75 5.15 10.2 4.75 9.65 6.2 9.0 7.45 8.25 8.65 7.45 9.8 8.4 10.5 11.15 10.3 12.05 4.85 Q12.5 6.85 12.25 8.8 L12.15 10.0 12.0 11.3 11.8 12.65 Q13.95 13.6 16.35 12.25 L15.55 8.7 15.2 6.85 14.7 4.0 16.3 8.05 16.7 9.4 17.35 10.25 17.6 10.15 19.15 9.4 18.3 8.4 17.5 7.1 16.8 5.75 16.1 4.15 Q17.7 7.05 18.85 8.4 20.05 9.65 21.1 10.05 L22.7 10.25 22.9 9.7 23.5 8.9 23.85 7.95 24.15 6.85 24.45 4.9 Q21.7 5.15 19.4 3.65 L18.75 3.15 17.05 1.7 19.35 3.0 20.6 3.5 21.85 3.85 23.05 3.9" fill="#000000" fill-rule="evenodd" stroke="none"/>
    </g>
    <g id="sprite2">
      <use ffdec:characterId="5" height="9.65" transform="matrix(1.0, 0.0, 0.0, 1.0, 0.0, 0.0)" width="9.45" xlink:href="#shape2"/>
    </g>
    <g id="shape2">
      <path d="M6.6 2.15 L6.15 0.1 7.7 0.15 7.9 2.65 7.05 2.25 7.15 2.6 6.6 2.15 M1.2 2.65 L1.4 1.05 Q1.55 -0.5 3.3 0.2 2.35 1.1 2.55 2.3 L2.1 2.4 1.7 2.55 Q1.6 2.35 1.35 2.55 L1.25 2.65 1.2 2.65" fill="#6147ee" fill-rule="evenodd" stroke="none"/>
      <path d="M2.55 2.3 L6.6 2.15 7.15 2.6 7.25 3.75 1.8 3.6 1.7 3.5 2.1 2.4 2.55 2.3" fill="#4e4e4e" fill-rule="evenodd" stroke="none"/>
      <path d="M7.9 2.65 Q8.1 4.25 7.35 4.9 L2.8 4.85 3.2 5.4 3.15 5.55 4.5 5.55 6.9 5.7 7.35 4.95 7.5 5.75 8.15 6.7 8.65 7.65 8.25 7.95 7.8 7.55 7.65 8.35 Q7.55 8.35 7.15 8.65 L6.2 8.95 4.55 7.7 Q4.0 7.7 3.65 8.2 L3.05 9.2 2.8 9.2 Q2.0 9.0 1.05 8.0 L0.7 7.25 1.6 5.65 2.75 5.55 1.95 4.95 1.85 4.95 1.55 4.85 Q1.1 4.55 0.7 3.35 0.7 2.9 1.0 3.2 L1.2 2.7 1.2 2.65 1.25 2.65 1.35 2.55 Q1.6 2.35 1.7 2.55 L2.1 2.4 1.7 3.5 1.8 3.6 7.25 3.75 7.15 2.6 7.05 2.25 7.9 2.65" fill="#000000" fill-rule="evenodd" stroke="none"/>
      <path d="M7.35 4.9 L7.35 4.95 6.9 5.7 4.5 5.55 3.15 5.55 3.2 5.4 2.8 4.85 7.35 4.9 M1.6 5.65 L1.55 4.85 1.85 4.95 1.95 4.95 2.75 5.55 1.6 5.65" fill="#ffffff" fill-rule="evenodd" stroke="none"/>
      <path d="M1.5 2.65 Q1.05 2.75 1.05 3.45 0.9 4.05 1.9 4.5 L3.8 4.7 6.45 4.6 Q6.95 4.6 7.4 4.2 L7.75 3.55 7.7 2.95 Q7.6 2.6 7.2 2.55 7.2 2.05 6.85 2.05 L3.45 2.25 1.5 2.6 1.5 2.65 M8.05 7.2 L7.7 6.7 7.45 6.05 Q7.4 5.65 7.0 5.55 L7.0 5.25 6.9 4.95 5.05 4.95 2.3 5.25 1.9 5.55 Q0.95 6.55 0.9 7.0 0.75 7.0 0.25 7.35 1.7 9.1 2.8 9.1 3.05 9.1 3.15 8.9 L3.2 8.65 Q3.5 7.6 4.55 6.8 L5.9 8.45 5.9 8.7 6.15 9.1 7.45 8.45 8.7 7.65 8.4 7.3 8.05 7.2 M8.2 3.9 L7.55 5.1 Q8.45 6.9 8.85 6.95 9.2 7.0 9.45 7.35 9.3 8.05 8.55 8.6 L6.8 9.6 Q6.05 9.6 5.75 9.3 L5.1 8.5 4.5 7.85 3.75 8.75 3.0 9.65 1.65 9.2 0.3 8.35 Q0.0 7.95 0.0 7.3 L1.45 5.1 1.2 4.7 0.5 3.7 Q0.05 2.9 1.35 1.85 4.35 1.2 7.7 1.75 8.85 2.85 8.2 3.9" fill="#000000" fill-rule="evenodd" stroke="none"/>
      <path d="M7.2 2.55 L5.25 2.85 3.25 2.95 1.5 2.65 1.5 2.6 3.45 2.25 6.85 2.05 Q7.2 2.05 7.2 2.55 M8.05 7.2 L8.4 7.3 8.7 7.65 7.45 8.45 6.15 9.1 5.9 8.7 5.9 8.45 Q7.2 7.45 8.05 7.2 M3.2 8.65 L3.15 8.9 Q3.05 9.1 2.8 9.1 1.7 9.1 0.25 7.35 0.75 7.0 0.9 7.0 L3.2 8.65 M1.9 5.55 L2.3 5.25 5.05 4.95 6.9 4.95 7.0 5.25 7.0 5.55 6.45 5.85 2.85 5.9 1.9 5.55" fill="#af64ff" fill-rule="evenodd" stroke="none"/>
    </g>
    <g id="sprite3">
      <use ffdec:characterId="7" height="9.0" transform="matrix(1.0, 0.0, 0.0, 1.0, 0.0, 0.0)" width="6.0" xlink:href="#shape3"/>
    </g>
    <g id="shape3">
      <path d="M4.7 1.85 L4.0 1.8 3.95 2.25 3.6 2.5 3.45 3.2 2.75 3.15 3.7 4.0 3.6 4.1 4.65 4.25 4.75 2.45 4.7 1.85 M5.0 0.95 L5.05 2.4 4.85 5.3 Q4.85 5.95 5.3 6.85 L5.75 7.7 5.55 8.25 Q5.25 8.7 4.75 8.7 3.9 8.7 3.95 7.7 4.0 6.45 3.5 6.1 L3.15 5.4 2.8 4.8 0.55 4.2 Q0.2 4.05 0.2 3.75 0.2 3.35 2.05 2.3 3.85 1.25 3.85 0.5 3.85 0.0 4.4 0.3 L5.0 0.95" fill="#ffffff" fill-rule="evenodd" stroke="none"/>
      <path d="M4.7 1.85 L4.75 2.45 4.65 4.25 3.6 4.1 3.7 4.0 2.75 3.15 3.45 3.2 3.6 2.5 3.95 2.25 4.0 1.8 4.7 1.85" fill="#bfb4fd" fill-rule="evenodd" stroke="none"/>
      <path d="M0.1 4.55 L0.0 3.9 Q-0.05 3.45 1.1 2.85 2.25 2.25 3.8 0.5 L3.75 0.95 0.45 4.1 Q2.0 3.7 3.2 4.9 L4.3 8.25 4.9 8.6 5.4 8.5 5.7 7.75 5.1 6.7 5.0 6.25 4.85 5.35 Q5.95 7.0 6.0 7.9 L5.7 8.75 4.15 8.8 Q3.3 7.95 2.8 5.1 L0.1 4.55 M3.85 0.35 L4.1 0.0 Q4.95 0.25 5.35 1.0 L4.8 5.45 Q5.05 2.75 4.55 0.5 L3.85 0.35" fill="#000000" fill-rule="evenodd" stroke="none"/>
    </g>
  </defs>
</svg>
