<?xml version="1.0" encoding="UTF-8" standalone="no"?>
<svg xmlns:ffdec="https://www.free-decompiler.com/flash" xmlns:xlink="http://www.w3.org/1999/xlink" ffdec:objectType="frame" height="16.95px" width="29.05px" xmlns="http://www.w3.org/2000/svg">
  <g transform="matrix(1.0, 0.0, 0.0, 1.0, 14.05, -14.5)">
    <use ffdec:characterId="17" height="5.8" transform="matrix(-1.0, 0.0, 0.0, 1.0, 10.25, 25.65)" width="8.85" xlink:href="#sprite0"/>
    <use ffdec:characterId="4" height="5.65" transform="matrix(-1.0, 0.0, 0.0, 1.0, 4.3, 21.5)" width="3.7" xlink:href="#sprite1"/>
    <use ffdec:characterId="17" height="5.8" transform="matrix(1.0, 0.0, 0.0, 1.0, -10.35, 25.65)" width="8.85" xlink:href="#sprite0"/>
    <use ffdec:characterId="4" height="5.65" transform="matrix(1.0, 0.0, 0.0, 1.0, -4.4, 21.5)" width="3.7" xlink:href="#sprite1"/>
    <use ffdec:characterId="6" height="7.85" transform="matrix(1.0, 0.0, 0.0, 1.0, -6.5, 18.5)" width="14.35" xlink:href="#sprite2"/>
    <use ffdec:characterId="2" height="11.65" transform="matrix(1.0, 0.0, 0.0, 1.0, -14.05, 14.6)" width="12.9" xlink:href="#sprite3"/>
    <use ffdec:characterId="2" height="11.65" transform="matrix(-1.0, 0.0, 0.0, 1.0, 15.0, 14.6)" width="12.9" xlink:href="#sprite3"/>
    <use ffdec:characterId="8" height="5.65" transform="matrix(1.0, 0.0, 0.0, 1.0, -4.25, 14.5)" width="9.25" xlink:href="#sprite4"/>
  </g>
  <defs>
    <g id="sprite0">
      <use ffdec:characterId="16" height="5.8" transform="matrix(1.0, 0.0, 0.0, 1.0, 0.0, 0.0)" width="8.85" xlink:href="#shape0"/>
    </g>
    <g id="shape0">
      <path d="M8.85 1.7 L8.65 3.1 7.9 4.7 Q7.35 5.45 5.8 5.7 L2.9 5.65 Q1.55 5.35 0.75 4.75 0.0 4.15 0.0 3.0 0.0 1.8 0.85 1.5 L2.25 1.1 Q3.6 0.0 6.3 0.0 7.8 0.0 8.45 0.8 8.85 1.25 8.85 1.7 M7.25 2.05 Q6.85 2.25 6.4 1.8 5.95 1.35 5.25 1.35 L4.45 1.25 5.65 1.25 Q6.65 1.45 7.25 2.05 M5.7 2.55 L5.25 2.05 4.0 1.9 Q3.15 1.85 2.85 2.4 L2.7 2.95 4.2 3.25 Q4.65 3.3 5.25 2.95 L5.7 2.55 M6.2 3.25 Q5.9 3.7 4.85 3.65 L2.7 3.0 2.4 2.7 Q2.5 1.8 3.2 1.5 4.65 1.45 5.9 2.15 L6.3 2.5 Q6.5 2.75 6.2 3.25 M3.0 4.55 L6.05 4.45 Q7.0 4.15 7.75 3.25 8.45 2.35 8.15 1.15 7.85 -0.05 4.25 0.65 0.65 1.35 0.75 2.85 0.85 4.3 3.0 4.55" fill="#000000" fill-rule="evenodd" stroke="none"/>
      <path d="M4.45 1.25 L4.65 1.1 Q5.35 0.7 6.3 0.85 7.35 1.05 7.5 1.6 7.6 2.05 7.3 2.05 L7.25 2.05 Q6.65 1.45 5.65 1.25 L4.45 1.25 M5.7 2.55 L5.25 2.95 Q4.65 3.3 4.2 3.25 L2.7 2.95 2.85 2.4 Q3.15 1.85 4.0 1.9 L5.25 2.05 5.7 2.55" fill="#ffffff" fill-rule="evenodd" stroke="none"/>
      <path d="M7.25 2.05 L7.3 2.05 Q7.6 2.05 7.5 1.6 7.35 1.05 6.3 0.85 5.35 0.7 4.65 1.1 L4.45 1.25 5.25 1.35 Q5.95 1.35 6.4 1.8 6.85 2.25 7.25 2.05 M6.2 3.25 Q6.5 2.75 6.3 2.5 L5.9 2.15 Q4.65 1.45 3.2 1.5 2.5 1.8 2.4 2.7 L2.7 3.0 4.85 3.65 Q5.9 3.7 6.2 3.25 M3.0 4.55 Q0.85 4.3 0.75 2.85 0.65 1.35 4.25 0.65 7.85 -0.05 8.15 1.15 8.45 2.35 7.75 3.25 7.0 4.15 6.05 4.45 L3.0 4.55" fill="#ff6382" fill-rule="evenodd" stroke="none"/>
    </g>
    <g id="sprite1">
      <use ffdec:characterId="3" height="5.65" transform="matrix(1.0, 0.0, 0.0, 1.0, 0.0, 0.0)" width="3.7" xlink:href="#shape1"/>
    </g>
    <g id="shape1">
      <path d="M2.95 0.15 Q3.55 0.55 3.5 1.5 L2.75 3.75 Q2.05 5.7 1.05 5.6 L0.65 5.45 0.55 5.4 0.3 5.25 0.3 5.15 Q0.1 4.8 0.15 4.15 0.25 2.9 1.3 1.15 2.25 -0.35 2.95 0.15" fill="#ffffff" fill-rule="evenodd" stroke="none"/>
      <path d="M3.5 1.75 Q3.55 1.6 3.7 1.75 2.6 5.3 1.9 5.65 L1.4 5.65 Q2.25 4.95 2.8 3.45 L3.5 1.75 M0.95 2.4 Q0.2 3.85 0.2 5.1 L0.0 4.55 Q-0.2 3.6 1.65 0.5 L1.75 0.75 0.95 2.4" fill="#000000" fill-rule="evenodd" stroke="none"/>
    </g>
    <g id="sprite2">
      <use ffdec:characterId="5" height="7.85" transform="matrix(1.0, 0.0, 0.0, 1.0, 0.0, 0.0)" width="14.35" xlink:href="#shape2"/>
    </g>
    <g id="shape2">
      <path d="M12.35 2.45 L12.35 2.6 13.25 2.5 13.6 2.5 Q14.3 2.75 14.3 3.25 14.4 4.2 12.75 4.3 L12.75 5.15 Q12.75 5.8 12.25 5.85 L11.7 5.8 Q11.1 5.8 11.1 6.05 11.1 6.95 10.0 6.95 L8.6 6.75 8.3 7.2 Q8.05 7.6 7.55 7.6 7.15 7.6 6.35 7.05 L5.65 7.55 Q5.2 7.55 4.7 6.95 L4.2 6.45 3.55 6.75 Q2.8 6.75 2.6 6.35 L2.55 5.8 2.6 5.35 2.55 5.35 2.1 5.6 Q1.3 5.6 1.35 4.75 L1.4 4.4 Q1.45 4.35 0.3 3.8 L0.0 3.35 Q0.0 3.05 0.3 2.85 L0.95 2.6 1.3 2.85 Q1.75 3.35 3.15 4.05 5.2 5.3 6.6 5.25 9.0 5.25 10.7 4.15 L11.7 3.2 12.05 2.85 12.35 2.45 M3.85 5.0 L3.65 4.7 Q3.2 4.7 3.2 5.15 L3.4 5.45 3.85 5.0 M2.25 4.55 L2.45 4.6 2.65 4.3 2.5 4.15 2.2 4.5 2.25 4.55 M9.4 5.45 Q9.4 5.85 9.8 5.85 L10.15 5.45 Q10.15 5.1 9.8 5.15 9.4 5.15 9.4 5.45 M7.3 5.65 Q6.8 5.6 6.8 6.15 6.8 6.55 7.3 6.55 7.7 6.55 7.7 6.05 7.7 5.7 7.3 5.65 M5.8 6.05 L5.55 5.8 5.2 6.05 Q5.2 6.35 5.55 6.35 L5.8 6.05 M11.35 4.35 Q11.0 4.3 11.0 4.6 L11.45 4.85 11.65 4.65 11.35 4.35 M12.2 3.5 L12.65 3.8 12.95 3.75 13.0 3.45 Q13.0 2.9 12.65 3.1 12.2 3.25 12.2 3.5" fill="#ff6382" fill-rule="evenodd" stroke="none"/>
      <path d="M0.95 2.6 L1.8 1.75 1.9 1.2 Q2.15 0.8 2.7 0.75 3.7 -0.15 3.95 0.25 4.15 0.25 4.75 0.6 L5.55 1.0 6.7 0.95 8.9 0.4 9.75 0.0 10.1 0.2 10.95 0.35 11.05 0.45 12.35 2.15 12.35 2.45 12.05 2.85 11.7 3.2 10.7 4.15 Q9.0 5.25 6.6 5.25 5.2 5.3 3.15 4.05 1.75 3.35 1.3 2.85 L0.95 2.6 M10.8 2.95 L11.75 2.05 Q11.75 1.15 10.55 1.15 L9.95 1.3 9.35 1.15 Q8.5 0.9 8.15 2.45 7.7 2.45 7.4 2.75 L7.3 2.0 Q7.1 1.35 6.5 1.35 5.85 1.35 5.05 1.8 5.05 1.0 4.05 1.0 2.95 1.0 2.35 1.6 L1.95 2.4 Q1.95 3.2 3.55 3.2 4.3 3.2 4.7 2.7 L4.7 3.7 Q4.9 4.5 5.7 4.5 7.0 4.5 7.3 3.5 7.5 4.05 8.6 4.05 L9.25 3.85 9.25 3.45 Q9.4 3.75 9.6 3.75 L10.8 2.95" fill="#cde1ff" fill-rule="evenodd" stroke="none"/>
      <path d="M10.8 2.95 L9.6 3.75 Q9.4 3.75 9.25 3.45 L9.25 3.85 8.6 4.05 Q7.5 4.05 7.3 3.5 7.0 4.5 5.7 4.5 4.9 4.5 4.7 3.7 L4.7 2.7 Q4.3 3.2 3.55 3.2 1.95 3.2 1.95 2.4 L2.35 1.6 Q2.95 1.0 4.05 1.0 5.05 1.0 5.05 1.8 5.85 1.35 6.5 1.35 7.1 1.35 7.3 2.0 L7.4 2.75 Q7.7 2.45 8.15 2.45 8.5 0.9 9.35 1.15 L9.95 1.3 10.55 1.15 Q11.75 1.15 11.75 2.05 L10.8 2.95 M12.2 3.5 Q12.2 3.25 12.65 3.1 13.0 2.9 13.0 3.45 L12.95 3.75 12.65 3.8 12.2 3.5 M11.35 4.35 L11.65 4.65 11.45 4.85 11.0 4.6 Q11.0 4.3 11.35 4.35 M5.8 6.05 L5.55 6.35 Q5.2 6.35 5.2 6.05 L5.55 5.8 5.8 6.05 M7.3 5.65 Q7.7 5.7 7.7 6.05 7.7 6.55 7.3 6.55 6.8 6.55 6.8 6.15 6.8 5.6 7.3 5.65 M9.4 5.45 Q9.4 5.15 9.8 5.15 10.15 5.1 10.15 5.45 L9.8 5.85 Q9.4 5.85 9.4 5.45 M2.25 4.55 L2.2 4.5 2.5 4.15 2.65 4.3 2.45 4.6 2.25 4.55 M3.85 5.0 L3.4 5.45 3.2 5.15 Q3.2 4.7 3.65 4.7 L3.85 5.0" fill="#ffffff" fill-rule="evenodd" stroke="none"/>
      <path d="M11.5 0.9 L10.2 0.7 Q9.65 0.85 9.7 0.35 9.75 -0.15 10.85 0.2 11.95 0.5 12.3 1.15 12.65 1.75 12.6 2.35 L13.65 2.5 Q14.35 2.8 14.35 3.35 14.35 4.3 12.7 4.35 L12.75 5.3 Q12.75 5.95 12.35 6.05 L11.8 6.0 Q11.2 6.0 11.2 6.25 11.2 7.15 10.05 7.2 L8.6 6.9 8.35 7.4 Q8.05 7.85 7.6 7.85 7.2 7.9 6.35 7.3 6.05 7.7 5.7 7.7 5.25 7.7 4.7 7.1 L4.25 6.6 Q3.85 6.95 3.55 6.95 2.8 6.95 2.6 6.5 L2.55 5.95 2.6 5.45 2.55 5.45 2.1 5.65 Q1.3 5.7 1.3 4.9 L1.35 4.45 0.35 3.85 0.0 3.4 Q0.0 3.05 0.35 2.85 L0.95 2.55 Q1.9 0.2 3.2 0.25 4.55 0.3 3.65 0.5 2.8 0.7 2.2 1.05 1.6 1.35 1.85 2.5 2.05 3.6 3.1 4.05 L4.7 4.65 7.05 5.0 Q8.8 4.95 10.35 3.95 11.85 2.9 12.05 2.15 12.05 1.15 11.5 0.9 M12.5 5.5 Q12.3 4.2 11.65 4.2 13.8 4.1 13.9 3.35 13.5 3.0 12.3 2.7 L11.8 3.25 10.7 4.2 Q9.05 5.35 6.65 5.4 5.25 5.4 3.1 4.15 L1.3 2.85 1.25 2.9 1.2 2.9 0.3 3.35 Q1.3 4.25 2.05 3.85 L1.75 4.85 Q1.75 5.2 2.0 5.15 L2.75 4.75 2.9 5.8 2.9 6.15 3.5 6.35 4.6 5.75 4.9 6.6 Q5.0 7.15 5.5 7.15 L6.05 6.85 6.4 6.5 Q6.95 7.3 7.55 7.25 L8.1 6.75 8.2 6.2 Q8.2 5.8 8.45 5.8 L8.95 6.2 Q9.25 6.6 10.05 6.6 10.65 6.55 10.65 6.25 L10.3 5.3 Q10.35 5.1 10.65 5.1 11.25 5.3 11.55 5.75 L12.5 5.5" fill="#000000" fill-rule="evenodd" stroke="none"/>
    </g>
    <g id="sprite3">
      <use ffdec:characterId="1" height="11.65" transform="matrix(1.0, 0.0, 0.0, 1.0, 0.0, 0.0)" width="12.9" xlink:href="#shape3"/>
    </g>
    <g id="shape3">
      <path d="M12.25 1.75 L8.55 5.75 Q8.65 7.5 8.25 8.75 L7.45 9.1 5.95 8.75 Q4.85 8.45 4.2 7.4 3.5 6.3 3.7 4.95 5.05 4.35 7.0 4.3 L10.65 0.75 Q11.4 0.65 12.25 1.75 M10.65 2.55 Q10.6 2.1 10.2 2.1 7.0 4.2 7.1 4.85 7.15 5.4 7.9 5.4 8.45 5.4 9.6 4.25 10.75 3.15 10.65 2.55 M5.65 5.8 L5.2 4.75 4.05 5.25 4.5 6.3 5.65 5.8 M7.7 6.1 L7.15 5.7 Q6.35 4.35 6.35 5.2 6.35 5.6 6.7 6.2 7.15 6.95 7.75 6.95 L8.1 6.6 7.7 6.1 M7.7 8.55 L8.15 7.4 7.1 7.0 7.1 7.05 6.65 8.15 7.7 8.55 M5.8 7.8 L6.7 7.0 5.95 6.15 5.05 6.95 5.8 7.8" fill="#cde1ff" fill-rule="evenodd" stroke="none"/>
      <path d="M10.65 2.55 Q10.75 3.15 9.6 4.25 8.45 5.4 7.9 5.4 7.15 5.4 7.1 4.85 7.0 4.2 10.2 2.1 10.6 2.1 10.65 2.55 M7.7 6.1 L8.1 6.6 7.75 6.95 Q7.15 6.95 6.7 6.2 6.35 5.6 6.35 5.2 6.35 4.35 7.15 5.7 L7.7 6.1 M2.35 5.55 Q2.8 5.6 2.8 5.95 2.8 6.4 2.4 6.4 1.85 6.4 1.85 5.85 1.85 5.5 2.35 5.55 M3.85 7.8 Q3.85 8.25 3.3 8.25 2.95 8.25 2.95 7.9 L3.15 7.7 Q3.4 7.55 3.65 7.55 L3.85 7.8 M5.05 9.35 L4.8 9.1 Q5.45 8.55 5.45 9.1 L5.45 9.15 Q5.8 9.15 5.8 9.5 5.8 10.2 5.35 10.2 4.9 10.2 4.9 9.85 4.9 9.5 5.05 9.35 M7.1 10.1 L6.85 10.4 6.5 10.15 6.35 9.85 Q6.35 9.6 6.75 9.7 L7.1 10.1" fill="#ffffff" fill-rule="evenodd" stroke="none"/>
      <path d="M12.9 1.4 Q11.65 3.75 9.05 5.95 9.15 7.8 8.65 9.5 L8.4 9.7 8.25 9.95 8.2 10.7 8.1 11.3 8.1 11.35 Q7.65 11.9 7.15 11.5 L6.2 11.0 5.3 11.45 4.8 11.15 4.35 10.75 4.2 10.0 2.95 9.9 2.75 9.05 1.2 8.25 Q0.95 7.75 1.05 7.5 L1.45 6.9 Q-0.25 6.35 0.05 5.8 0.3 5.25 1.45 4.75 L3.65 4.25 6.4 3.75 Q8.6 1.15 11.3 0.0 L12.9 1.4 M12.25 1.75 Q11.4 0.65 10.65 0.75 L7.0 4.3 Q5.05 4.35 3.7 4.95 3.5 6.3 4.2 7.4 4.85 8.45 5.95 8.75 L7.45 9.1 8.25 8.75 Q8.65 7.5 8.55 5.75 L12.25 1.75 M1.1 5.6 Q0.9 6.2 2.15 6.9 1.7 6.95 1.7 7.55 1.7 8.15 3.3 8.5 2.8 9.25 3.55 9.5 4.25 9.95 4.5 9.35 4.55 10.7 5.25 10.85 6.2 10.85 6.1 9.85 6.45 10.85 7.15 10.95 L7.75 10.7 7.9 9.7 5.7 8.95 Q4.45 8.3 4.2 7.9 L3.3 6.5 2.95 5.15 Q1.4 4.9 1.1 5.6" fill="#000000" fill-rule="evenodd" stroke="none"/>
      <path d="M5.25 5.7 L5.25 5.4 5.0 5.2 4.7 5.2 4.45 5.4 Q4.4 5.55 4.5 5.7 L4.7 5.9 5.0 5.95 5.25 5.7 M5.65 5.8 L4.5 6.3 4.05 5.25 5.2 4.75 5.65 5.8 M7.7 8.55 L6.65 8.15 7.1 7.05 7.1 7.0 8.15 7.4 7.7 8.55 M6.25 6.7 L5.95 6.6 5.65 6.7 5.5 6.95 5.6 7.25 5.85 7.35 5.9 7.35 6.15 7.3 6.3 7.0 6.25 6.7 M7.85 7.9 L7.8 7.6 7.75 7.45 7.6 7.35 7.3 7.4 7.1 7.6 7.1 7.95 7.3 8.15 7.45 8.2 7.6 8.15 7.85 7.9 M5.8 7.8 L5.05 6.95 5.95 6.15 6.7 7.0 5.8 7.8" fill="#f015c8" fill-rule="evenodd" stroke="none"/>
      <path d="M5.25 5.7 L5.0 5.95 4.7 5.9 4.5 5.7 Q4.4 5.55 4.45 5.4 L4.7 5.2 5.0 5.2 5.25 5.4 5.25 5.7 M7.85 7.9 L7.6 8.15 7.45 8.2 7.3 8.15 7.1 7.95 7.1 7.6 7.3 7.4 7.6 7.35 7.75 7.45 7.8 7.6 7.85 7.9 M6.25 6.7 L6.3 7.0 6.15 7.3 5.9 7.35 5.85 7.35 5.6 7.25 5.5 6.95 5.65 6.7 5.95 6.6 6.25 6.7" fill="#ff6cc4" fill-rule="evenodd" stroke="none"/>
      <path d="M2.35 5.55 Q1.85 5.5 1.85 5.85 1.85 6.4 2.4 6.4 2.8 6.4 2.8 5.95 2.8 5.6 2.35 5.55 M1.1 5.6 Q1.4 4.9 2.95 5.15 L3.3 6.5 4.2 7.9 Q4.45 8.3 5.7 8.95 L7.9 9.7 7.75 10.7 7.15 10.95 Q6.45 10.85 6.1 9.85 6.2 10.85 5.25 10.85 4.55 10.7 4.5 9.35 4.25 9.95 3.55 9.5 2.8 9.25 3.3 8.5 1.7 8.15 1.7 7.55 1.7 6.95 2.15 6.9 0.9 6.2 1.1 5.6 M5.05 9.35 Q4.9 9.5 4.9 9.85 4.9 10.2 5.35 10.2 5.8 10.2 5.8 9.5 5.8 9.15 5.45 9.15 L5.45 9.1 Q5.45 8.55 4.8 9.1 L5.05 9.35 M3.85 7.8 L3.65 7.55 Q3.4 7.55 3.15 7.7 L2.95 7.9 Q2.95 8.25 3.3 8.25 3.85 8.25 3.85 7.8 M7.1 10.1 L6.75 9.7 Q6.35 9.6 6.35 9.85 L6.5 10.15 6.85 10.4 7.1 10.1" fill="#ff6382" fill-rule="evenodd" stroke="none"/>
    </g>
    <g id="sprite4">
      <use ffdec:characterId="7" height="5.65" transform="matrix(1.0, 0.0, 0.0, 1.0, 0.0, 0.0)" width="9.25" xlink:href="#shape4"/>
    </g>
    <g id="shape4">
      <path d="M1.25 2.4 L0.35 1.2 0.5 0.85 0.6 0.45 Q0.65 0.1 1.2 0.1 L1.8 0.2 3.05 0.35 3.65 0.35 4.2 0.4 5.8 0.25 7.65 0.0 8.6 0.05 8.45 0.15 Q8.3 0.15 8.45 0.45 L8.5 0.5 Q8.9 0.45 8.9 1.0 L8.0 1.95 7.95 2.05 Q6.9 2.85 6.05 2.85 5.55 2.85 5.55 2.45 L5.6 2.3 2.85 2.5 2.9 2.7 Q2.9 3.1 2.55 3.1 L1.25 2.4 M2.05 2.1 L2.3 1.7 Q2.3 0.2 1.1 1.2 L2.05 2.1 M5.9 1.55 Q5.85 1.8 6.15 1.8 6.85 1.8 7.45 1.4 L7.95 0.9 Q7.95 -0.3 5.9 1.55" fill="#f015c8" fill-rule="evenodd" stroke="none"/>
      <path d="M7.95 2.05 L8.05 2.9 8.0 3.85 7.15 4.65 Q6.5 5.2 4.95 5.55 3.4 5.9 2.45 5.25 L1.25 4.3 1.3 3.5 1.25 2.4 2.55 3.1 Q2.9 3.1 2.9 2.7 L2.85 2.5 5.6 2.3 5.55 2.45 Q5.55 2.85 6.05 2.85 6.9 2.85 7.95 2.05 M3.95 3.1 L4.25 3.1 3.75 3.05 3.75 3.1 3.95 3.1" fill="#cce1ff" fill-rule="evenodd" stroke="none"/>
      <path d="M5.9 1.55 Q7.95 -0.3 7.95 0.9 L7.45 1.4 Q6.85 1.8 6.15 1.8 5.85 1.8 5.9 1.55 M2.05 2.1 L1.1 1.2 Q2.3 0.2 2.3 1.7 L2.05 2.1" fill="#ff6cc4" fill-rule="evenodd" stroke="none"/>
      <path d="M3.95 3.1 L3.75 3.1 3.75 3.05 4.25 3.1 3.95 3.1" fill="#ff52df" fill-rule="evenodd" stroke="none"/>
      <path d="M6.5 2.7 L7.8 1.85 8.65 1.05 8.45 0.7 8.25 0.3 Q8.25 0.15 8.45 0.15 L9.05 0.6 9.25 1.1 8.75 1.85 8.05 2.65 7.4 3.05 6.45 3.35 6.5 2.7 M2.5 2.85 L2.55 3.6 1.85 3.5 1.05 3.15 Q0.25 2.35 0.0 1.5 0.0 0.55 0.75 0.2 L0.45 1.15 Q1.95 2.85 2.5 2.85" fill="#790070" fill-rule="evenodd" stroke="none"/>
      <path d="M5.65 1.45 L5.15 1.35 4.25 1.5 Q3.65 1.65 3.45 2.0 3.25 2.3 3.35 2.9 3.4 3.45 3.9 3.8 L4.8 4.1 5.55 3.85 6.0 2.4 6.05 2.0 6.1 2.8 Q6.0 3.75 5.4 4.55 L4.35 4.7 3.55 4.4 Q3.0 4.15 2.8 3.3 2.55 2.45 2.95 1.85 3.35 1.25 4.1 1.05 4.8 0.8 5.65 1.45" fill="#00a1ff" fill-rule="evenodd" stroke="none"/>
      <path d="M5.15 1.35 L5.65 1.45 5.75 1.55 6.05 2.0 6.0 2.4 5.75 2.65 5.3 2.8 Q5.0 2.8 4.75 2.6 L4.55 2.1 4.75 1.6 5.15 1.35" fill="#ffffff" fill-rule="evenodd" stroke="none"/>
      <path d="M6.5 2.7 L6.45 3.35 5.95 4.0 5.4 4.55 Q6.0 3.75 6.1 2.8 L6.05 2.0 5.75 1.55 5.65 1.45 Q4.8 0.8 4.1 1.05 3.35 1.25 2.95 1.85 2.55 2.45 2.8 3.3 3.0 4.15 3.55 4.4 L4.35 4.7 2.8 4.45 2.55 3.6 2.5 2.85 2.7 1.85 3.0 1.15 Q3.9 0.45 5.0 0.8 5.5 0.85 5.9 1.25 L6.4 2.15 6.5 2.7" fill="#0054ad" fill-rule="evenodd" stroke="none"/>
      <path d="M6.0 2.4 L5.55 3.85 4.8 4.1 3.9 3.8 Q3.4 3.45 3.35 2.9 3.25 2.3 3.45 2.0 3.65 1.65 4.25 1.5 L5.15 1.35 4.75 1.6 4.55 2.1 4.75 2.6 Q5.0 2.8 5.3 2.8 L5.75 2.65 6.0 2.4" fill="#002456" fill-rule="evenodd" stroke="none"/>
      <path d="M7.4 3.05 L8.05 2.65 8.1 3.45 8.05 4.35 7.6 4.55 7.2 4.45 7.4 3.05 M1.05 3.15 L1.85 3.5 1.9 4.25 1.85 5.0 1.3 4.85 Q0.9 4.6 1.05 3.15" fill="#000000" fill-rule="evenodd" stroke="none"/>
    </g>
  </defs>
</svg>
