<?xml version="1.0" encoding="UTF-8" standalone="no"?>
<svg xmlns:ffdec="https://www.free-decompiler.com/flash" xmlns:xlink="http://www.w3.org/1999/xlink" ffdec:objectType="frame" height="25.4px" width="47.8px" xmlns="http://www.w3.org/2000/svg">
  <g transform="matrix(1.0, 0.0, 0.0, 1.0, 36.65, -5.8)">
    <use ffdec:characterId="13" height="5.1" transform="matrix(-1.0, 0.0, 0.0, 1.0, 6.15, 28.65)" width="8.45" xlink:href="#sprite0"/>
    <use ffdec:characterId="4" height="8.65" transform="matrix(-1.0, 0.0, 0.0, 1.0, 7.1, 19.2)" width="8.8" xlink:href="#sprite1"/>
    <use ffdec:characterId="13" height="5.1" transform="matrix(1.0, 0.0, 0.0, 1.0, -5.55, 28.65)" width="8.45" xlink:href="#sprite0"/>
    <use ffdec:characterId="20" height="4.8" transform="matrix(1.0, 0.0, 0.0, 1.0, -5.3, 25.35)" width="5.7" xlink:href="#sprite2"/>
    <use ffdec:characterId="27" height="9.3" transform="matrix(1.0, 0.0, 0.0, 1.0, -3.35, 25.55)" width="14.0" xlink:href="#sprite3"/>
    <use ffdec:characterId="29" height="7.75" transform="matrix(0.9986, -0.0524, 0.0524, 0.9986, 0.1, 22.05)" width="10.65" xlink:href="#sprite4"/>
    <use ffdec:characterId="4" height="8.65" transform="matrix(1.0, 0.0, 0.0, 1.0, -6.45, 19.6)" width="8.8" xlink:href="#sprite1"/>
    <use ffdec:characterId="7" height="6.85" transform="matrix(1.0, 0.0, 0.0, 1.0, 0.15, 19.4)" width="7.4" xlink:href="#sprite5"/>
    <use ffdec:characterId="9" height="7.6" transform="matrix(1.0, 0.0, 0.0, 1.0, 0.1, 18.4)" width="9.2" xlink:href="#sprite6"/>
    <use ffdec:characterId="11" height="17.5" transform="matrix(1.0, 0.0, 0.0, 1.0, -23.25, 14.55)" width="26.8" xlink:href="#sprite7"/>
  </g>
  <defs>
    <g id="sprite0">
      <use ffdec:characterId="12" height="5.1" transform="matrix(1.0, 0.0, 0.0, 1.0, 0.0, 0.0)" width="8.45" xlink:href="#shape0"/>
    </g>
    <g id="shape0">
      <path d="M-1.3 -2.35 Q-0.7 -1.15 0.7 -0.6 L1.75 -0.4 -0.9 0.55 Q-2.6 0.9 -3.2 0.55 L-3.9 0.1 -3.9 -0.05 -3.1 -2.0 -1.3 -2.35" fill="#ffffff" fill-rule="evenodd" stroke="none"/>
      <path d="M-3.9 0.1 L-3.2 0.55 Q-2.6 0.9 -0.9 0.55 L1.75 -0.4 0.7 -0.6 Q-0.7 -1.15 -1.3 -2.35 L1.2 -2.15 1.9 -2.0 3.85 -1.65 Q4.05 0.0 3.7 1.4 L3.35 2.4 -3.65 2.3 Q-4.1 1.15 -3.9 0.1" fill="#999bb1" fill-rule="evenodd" stroke="none"/>
      <path d="M4.2 -0.8 L3.95 1.5 3.75 1.85 3.65 1.85 3.6 2.55 -3.9 2.55 -3.95 2.2 -3.9 1.95 -4.05 1.95 -4.25 0.75 Q-4.25 -1.2 -3.5 -1.85 -2.75 -2.5 -0.55 -2.55 L-0.45 -2.45 -1.9 -2.05 -3.4 -1.55 -3.9 -0.2 -3.9 1.55 -2.75 1.65 3.5 1.4 3.9 -1.6 4.2 -0.8 M3.3 1.9 L1.5 2.0 -3.65 1.95 -3.65 2.25 3.3 2.25 3.3 1.9" fill="#000000" fill-rule="evenodd" stroke="none"/>
    </g>
    <g id="sprite1">
      <use ffdec:characterId="3" height="8.65" transform="matrix(1.0, 0.0, 0.0, 1.0, 0.0, 0.0)" width="8.8" xlink:href="#shape1"/>
    </g>
    <g id="shape1">
      <path d="M1.65 -3.4 Q2.25 -3.4 2.35 -2.3 2.4 -1.25 2.05 -0.95 L1.05 -0.75 0.8 1.1 Q-0.4 2.15 -2.1 -0.55 -1.0 2.3 -2.8 1.4 L-3.45 -0.05 -2.3 -0.85 1.65 -3.4" fill="#979797" fill-rule="evenodd" stroke="none"/>
      <path d="M1.65 -3.4 L3.05 -4.35 4.45 -4.25 4.0 -2.3 Q3.35 0.65 0.85 2.35 L0.3 2.3 -0.5 3.75 Q-1.95 2.9 -2.8 1.4 -1.0 2.3 -2.1 -0.55 -0.4 2.15 0.8 1.1 L1.05 -0.75 2.05 -0.95 Q2.4 -1.25 2.35 -2.3 2.25 -3.4 1.65 -3.4" fill="#323232" fill-rule="evenodd" stroke="none"/>
      <path d="M4.25 -2.55 Q3.45 -0.2 1.15 2.65 L0.55 2.5 0.25 3.35 Q-0.1 4.2 -0.4 4.2 L-2.45 2.1 -4.05 0.0 -2.75 -0.45 -2.15 -1.7 Q0.6 -2.35 2.95 -4.45 2.4 -3.35 1.5 -2.75 L-2.35 -0.4 -2.35 -0.35 -2.75 0.0 -3.35 0.2 -2.0 1.95 -0.5 3.6 0.15 2.35 0.15 2.3 0.15 2.1 0.85 2.2 1.1 2.05 1.3 1.9 2.6 0.0 3.6 -2.25 3.85 -3.1 4.55 -4.15 Q5.05 -4.9 4.25 -2.55" fill="#000000" fill-rule="evenodd" stroke="none"/>
    </g>
    <g id="sprite2">
      <use ffdec:characterId="19" height="4.8" transform="matrix(1.0, 0.0, 0.0, 1.0, 0.0, 0.0)" width="5.7" xlink:href="#shape2"/>
    </g>
    <g id="shape2">
      <path d="M2.15 0.3 L1.4 1.35 0.6 0.95 -1.8 -0.55 -1.3 -1.7 2.15 0.3" fill="#d9fe6c" fill-rule="evenodd" stroke="none"/>
      <path d="M-1.3 -1.7 L-1.8 -0.55 0.6 0.95 1.4 1.35 2.15 0.3 Q2.5 0.65 2.45 1.25 2.4 2.2 1.8 2.25 1.2 2.25 -0.85 0.85 L-2.05 0.15 -2.6 -0.25 -1.85 -1.8 -1.3 -1.7" fill="#718631" fill-rule="evenodd" stroke="none"/>
      <path d="M-1.85 -1.95 L-1.7 -2.4 2.65 0.2 2.6 0.4 2.85 1.0 Q2.85 2.4 1.75 2.4 L1.45 2.4 1.4 2.35 1.3 2.35 1.3 2.3 -2.85 -0.05 -2.65 -0.35 1.65 2.0 1.85 1.85 Q2.45 1.45 2.45 1.0 L2.4 0.6 -1.85 -1.95" fill="#000000" fill-rule="evenodd" stroke="none"/>
    </g>
    <g id="sprite3">
      <use ffdec:characterId="26" height="9.3" transform="matrix(1.0, 0.0, 0.0, 1.0, 0.0, 0.0)" width="14.0" xlink:href="#shape3"/>
    </g>
    <g id="shape3">
      <path d="M0.55 -3.75 L0.65 -4.45 0.75 -4.65 6.4 -4.65 6.4 -4.05 6.4 -3.65 2.75 -3.35 0.55 -3.75 M9.1 -0.25 Q9.85 0.25 10.15 1.2 10.15 1.6 9.6 1.8 L8.3 2.25 5.15 3.4 5.35 2.8 Q5.55 2.5 5.1 2.05 L4.6 1.4 4.8 0.5 3.85 -1.95 3.3 -2.0 2.25 0.7 2.4 1.35 2.05 2.0 1.65 2.6 1.8 3.1 1.55 3.5 -1.15 2.45 -2.7 1.5 -1.6 1.8 Q-0.2 2.3 1.0 1.45 L0.55 0.95 0.05 0.9 -0.05 0.8 1.15 -0.25 Q1.5 -0.7 1.45 -1.2 L1.05 -1.5 1.05 -1.55 1.2 -1.7 2.25 -1.95 Q2.4 -2.3 2.0 -2.6 L1.8 -2.85 1.7 -3.05 5.0 -2.85 5.0 -0.95 Q5.2 -0.8 5.7 -0.6 L5.95 -0.55 6.2 -0.55 6.3 -0.5 Q6.5 -0.25 6.2 0.3 L5.85 0.8 Q5.7 0.95 6.0 1.15 L6.85 1.1 Q7.5 0.6 8.25 0.15 L8.75 -0.05 9.1 -0.25" fill="#373737" fill-rule="evenodd" stroke="none"/>
      <path d="M6.4 -3.65 L7.0 -2.15 Q7.7 -0.95 8.75 -0.4 L9.1 -0.25 8.75 -0.05 8.25 0.15 Q7.5 0.6 6.85 1.1 L6.0 1.15 Q5.7 0.95 5.85 0.8 L6.2 0.3 Q6.5 -0.25 6.3 -0.5 L6.2 -0.55 5.95 -0.55 5.7 -0.6 Q5.2 -0.8 5.0 -0.95 L5.0 -2.85 1.7 -3.05 1.8 -2.85 2.0 -2.6 Q2.4 -2.3 2.25 -1.95 L1.2 -1.7 1.05 -1.55 1.05 -1.5 1.45 -1.2 Q1.5 -0.7 1.15 -0.25 L-0.05 0.8 0.05 0.9 0.55 0.95 1.0 1.45 Q-0.2 2.3 -1.6 1.8 L-2.7 1.5 Q-2.85 1.3 -2.6 0.65 L-1.45 -0.6 Q-0.55 -1.2 -0.1 -2.0 L0.55 -3.75 2.75 -3.35 6.4 -3.65" fill="#7e7e7e" fill-rule="evenodd" stroke="none"/>
      <path d="M0.75 -4.9 Q1.05 -5.65 1.1 -4.7 L1.05 -4.3 0.95 -3.5 Q0.65 -1.9 -0.75 -0.95 L-2.1 0.0 -2.25 0.45 Q-2.4 0.95 -2.85 1.3 L-2.2 1.7 -0.25 2.7 1.6 3.2 Q1.65 2.25 1.2 2.7 L1.25 2.5 2.1 1.45 1.75 -0.6 2.1 0.25 Q2.75 -0.85 2.9 -1.9 L2.6 -2.2 1.9 -2.8 Q3.65 -2.05 5.05 -2.45 L4.0 -1.85 4.3 -1.2 4.8 0.25 5.25 -0.25 4.8 1.45 5.8 2.55 5.65 2.65 5.4 2.8 5.35 3.2 7.35 2.55 9.9 1.25 9.0 0.0 7.7 -1.0 6.9 -2.0 6.5 -3.35 6.3 -4.15 Q5.95 -5.05 6.4 -5.75 L6.6 -3.85 Q6.85 -2.1 8.05 -1.15 L9.05 -0.45 10.0 0.35 10.7 1.35 9.6 1.8 6.55 3.25 Q5.85 3.6 5.0 3.55 4.95 2.95 5.3 2.45 L4.4 1.4 4.65 0.65 4.1 -0.65 Q3.9 -1.65 3.3 -1.85 3.3 -0.45 2.25 0.65 L2.5 1.4 Q2.25 2.1 1.6 2.45 L1.95 3.55 0.4 3.35 Q-0.4 2.9 -1.25 2.7 -2.55 2.3 -3.3 1.3 -2.55 0.65 -2.35 -0.15 L-1.75 -0.55 -0.5 -1.85 0.25 -3.3 0.75 -4.9" fill="#000000" fill-rule="evenodd" stroke="none"/>
    </g>
    <g id="sprite4">
      <use ffdec:characterId="28" height="7.75" transform="matrix(1.0, 0.0, 0.0, 1.0, 0.0, 0.0)" width="10.65" xlink:href="#shape4"/>
    </g>
    <g id="shape4">
      <path d="M-2.8 -1.05 L-2.2 -0.7 Q-0.4 0.3 1.55 0.0 2.5 -0.2 3.15 -0.7 L2.9 0.3 2.0 1.4 0.45 1.9 1.0 1.9 2.55 1.55 3.5 1.25 1.85 2.45 Q0.2 3.2 -1.65 2.45 L-3.45 1.55 -3.65 1.35 -3.8 1.1 -1.75 1.4 -0.8 1.35 -0.45 1.3 -1.8 1.1 -2.3 0.9 -2.65 0.7 -3.2 0.25 -3.25 0.25 Q-3.3 -0.4 -2.8 -1.05" fill="#d10000" fill-rule="evenodd" stroke="none"/>
      <path d="M-2.55 -3.5 L3.15 -3.55 4.85 1.85 3.5 2.25 1.6 3.0 -1.8 2.85 -2.05 2.75 Q-3.3 2.25 -4.35 1.55 L-5.25 0.9 -4.85 0.45 -4.45 -0.05 -3.35 -1.55 -2.55 -3.5 M-2.8 -1.05 Q-3.3 -0.4 -3.25 0.25 L-3.2 0.25 -2.65 0.7 -2.3 0.9 -1.8 1.1 -0.45 1.3 -0.8 1.35 -1.75 1.4 -3.8 1.1 -3.65 1.35 -3.45 1.55 -1.65 2.45 Q0.2 3.2 1.85 2.45 L3.5 1.25 2.55 1.55 1.0 1.9 0.45 1.9 2.0 1.4 2.9 0.3 3.15 -0.7 Q2.5 -0.2 1.55 0.0 -0.4 0.3 -2.2 -0.7 L-2.8 -1.05" fill="#730000" fill-rule="evenodd" stroke="none"/>
      <path d="M-4.85 1.0 Q-3.6 2.05 -2.15 2.3 1.25 3.2 4.7 1.65 L4.3 0.55 Q3.5 -1.45 3.3 -4.1 L5.3 1.9 2.3 3.2 -0.3 3.6 Q-3.15 3.0 -5.35 1.05 -3.3 -0.95 -2.55 -3.7 -2.45 -0.75 -4.85 1.0" fill="#000000" fill-rule="evenodd" stroke="none"/>
    </g>
    <g id="sprite5">
      <use ffdec:characterId="6" height="6.85" transform="matrix(1.0, 0.0, 0.0, 1.0, 0.0, 0.0)" width="7.4" xlink:href="#shape5"/>
    </g>
    <g id="shape5">
      <path d="M3.55 0.25 L2.45 1.3 0.1 1.9 Q-1.75 2.2 -3.05 1.05 L-2.1 -4.3 2.45 -4.4 3.55 0.25" fill="#373737" fill-rule="evenodd" stroke="none"/>
      <path d="M2.65 -4.5 L3.9 0.35 2.2 1.55 Q-0.8 2.95 -3.5 1.0 L-3.3 -0.05 -3.15 -1.15 -2.5 -4.15 -1.85 -4.2 -2.95 0.95 Q-0.15 2.85 3.4 0.15 1.7 -5.65 2.65 -4.5" fill="#000000" fill-rule="evenodd" stroke="none"/>
    </g>
    <g id="sprite6">
      <use ffdec:characterId="8" height="7.6" transform="matrix(1.0, 0.0, 0.0, 1.0, 0.0, 0.0)" width="9.2" xlink:href="#shape6"/>
    </g>
    <g id="shape6">
      <path d="M3.35 -3.75 L3.6 -3.8 Q3.75 -3.35 4.05 -3.05 L3.3 -1.35 2.2 -2.5 3.35 -3.75 M2.75 -0.5 L1.8 0.5 1.3 0.95 0.75 0.3 0.2 -0.35 1.65 -1.85 2.75 -0.5 M0.55 1.65 L-0.95 3.35 -1.85 1.35 -0.6 0.4 0.55 1.65 M-2.25 0.55 L-3.05 -1.1 -2.25 -1.9 -1.2 -0.35 -1.35 -0.25 -2.25 0.55 M-3.35 -1.65 L-4.25 -3.1 -3.4 -3.75 -2.5 -2.3 -3.35 -1.65 M-2.55 -3.7 L-0.25 -3.6 0.4 -3.6 1.2 -2.45 0.75 -2.05 -0.4 -1.0 -0.95 -1.65 -1.65 -2.5 -1.55 -2.6 -0.25 -3.6 -0.8 -3.6 -1.9 -2.8 -2.55 -3.7 M1.4 -3.6 L2.4 -3.65 1.8 -3.05 1.4 -3.6" fill="#ffbe53" fill-rule="evenodd" stroke="none"/>
      <path d="M3.3 -1.35 L2.75 -0.5 1.65 -1.85 0.2 -0.35 0.75 0.3 1.3 0.95 1.25 1.0 0.55 1.65 -0.6 0.4 -1.85 1.35 -2.0 1.05 -2.25 0.55 -1.35 -0.25 -1.2 -0.35 -2.25 -1.9 -3.05 -1.1 -3.25 -1.4 -3.35 -1.65 -2.5 -2.3 -3.4 -3.75 -3.4 -3.8 -2.55 -3.7 -1.9 -2.8 -0.8 -3.6 -0.25 -3.6 -1.55 -2.6 -1.65 -2.5 -0.95 -1.65 -0.4 -1.0 0.75 -2.05 1.2 -2.45 0.4 -3.6 1.4 -3.6 1.8 -3.05 2.4 -3.65 3.35 -3.75 2.2 -2.5 3.3 -1.35" fill="#493516" fill-rule="evenodd" stroke="none"/>
      <path d="M-1.15 3.8 L-2.6 -0.25 Q-1.45 1.2 -0.85 2.5 L1.15 1.1 -1.15 3.8 M-3.85 -2.85 L-2.9 -0.8 -4.6 -3.25 -3.45 -3.8 -3.85 -2.85 M4.15 -3.7 L4.6 -3.35 4.2 -2.5 3.8 -1.75 Q3.05 -0.45 1.9 0.35 L3.9 -3.2 3.3 -3.8 4.15 -3.7" fill="#000000" fill-rule="evenodd" stroke="none"/>
    </g>
    <g id="sprite7">
      <use ffdec:characterId="10" height="17.5" transform="matrix(1.0, 0.0, 0.0, 1.0, 0.0, 0.0)" width="26.8" xlink:href="#shape7"/>
    </g>
    <g id="shape7">
      <path d="M-12.3 -0.9 L-13.0 -2.95 Q-13.45 -5.05 -11.05 -7.05 -8.6 -9.1 -4.1 -7.7 -2.0 -6.5 0.0 -5.1 2.3 -3.45 3.25 -0.85 L3.95 1.0 9.9 4.85 12.4 6.35 Q12.8 7.45 11.8 7.85 L9.7 6.6 4.9 4.05 4.05 3.65 3.5 1.55 2.85 2.95 Q0.3 4.3 -2.7 4.3 -5.75 4.3 -8.05 2.7 -10.4 1.1 -12.3 -0.9 M-6.0 -1.85 Q-2.65 -2.8 0.2 -0.35 L1.05 0.3 Q0.15 1.9 -1.1 2.35 L-4.45 2.6 Q-1.85 3.4 -0.2 3.05 1.45 2.65 2.25 1.7 2.2 -0.85 0.4 -2.9 -1.45 -5.0 -4.4 -6.3 -7.4 -7.6 -9.6 -6.25 -11.85 -4.9 -10.85 -2.05 -10.1 0.0 -8.4 1.0 -7.95 -0.1 -6.95 -1.3 -6.6 -1.8 -6.0 -1.85" fill="#d9fe6c" fill-rule="evenodd" stroke="none"/>
      <path d="M-3.95 -4.7 Q-5.35 -6.0 -7.1 -6.5 -9.7 -6.65 -10.55 -4.45 -10.35 -2.35 -9.2 -0.85 -8.05 -4.55 -3.95 -4.7 M-10.6 -4.65 L-10.35 -5.1 -10.6 -4.7 -10.6 -4.65 M-6.0 -1.85 Q-6.6 -1.8 -6.95 -1.3 -7.95 -0.1 -8.4 1.0 -10.1 0.0 -10.85 -2.05 -11.85 -4.9 -9.6 -6.25 -7.4 -7.6 -4.4 -6.3 -1.45 -5.0 0.4 -2.9 2.2 -0.85 2.25 1.7 1.45 2.65 -0.2 3.05 -1.85 3.4 -4.45 2.6 L-1.1 2.35 Q0.15 1.9 1.05 0.3 L0.2 -0.35 Q-2.65 -2.8 -6.0 -1.85 M1.75 2.05 Q1.75 0.75 1.3 -0.35 0.9 1.2 -0.1 2.45 L1.1 2.35 1.75 2.05" fill="#95b23e" fill-rule="evenodd" stroke="none"/>
      <path d="M12.4 6.35 L13.35 7.15 12.45 8.65 11.65 8.2 7.4 5.9 4.15 4.1 3.45 3.75 2.95 3.5 Q0.35 5.2 -2.6 5.1 -5.6 4.95 -8.2 3.3 -10.75 1.65 -12.3 -0.9 -10.4 1.1 -8.05 2.7 -5.75 4.3 -2.7 4.3 0.3 4.3 2.85 2.95 L3.5 1.55 4.05 3.65 4.9 4.05 9.7 6.6 11.8 7.85 Q12.8 7.45 12.4 6.35 M-10.6 -4.65 L-10.6 -4.7 -10.35 -5.1 -10.6 -4.65 M-3.95 -4.7 Q-8.05 -4.55 -9.2 -0.85 -10.35 -2.35 -10.55 -4.45 -9.7 -6.65 -7.1 -6.5 -5.35 -6.0 -3.95 -4.7 M1.75 2.05 L1.1 2.35 -0.1 2.45 Q0.9 1.2 1.3 -0.35 1.75 0.75 1.75 2.05" fill="#6b7f2e" fill-rule="evenodd" stroke="none"/>
      <path d="M-10.75 -1.8 Q-11.6 -3.6 -10.95 -5.15 -9.75 -6.85 -7.5 -6.9 -5.25 -7.0 -2.05 -4.9 1.1 -2.85 2.0 -0.95 2.9 0.95 2.5 1.85 2.1 2.7 -0.35 3.3 -2.85 3.85 -5.6 2.75 -8.35 1.6 -9.95 -0.8 L-7.85 1.2 Q-6.35 2.4 -3.55 2.85 -0.8 3.3 1.95 2.1 2.4 0.05 1.0 -1.95 -0.45 -3.95 -3.15 -5.35 -5.9 -6.8 -8.7 -6.15 -11.5 -5.55 -10.75 -1.8 M-11.95 -6.05 Q-13.6 -4.0 -12.5 -1.65 -11.0 1.3 -8.15 3.25 -6.0 4.7 -2.65 4.7 0.65 4.7 3.5 2.8 L2.95 3.35 12.2 8.35 12.4 8.2 Q13.0 7.8 13.0 7.35 L12.95 6.95 3.95 1.4 3.9 2.25 Q3.5 -1.5 1.75 -3.4 -0.05 -5.35 -2.55 -6.7 -5.1 -8.05 -7.95 -8.15 -10.45 -8.1 -11.95 -6.05 M-12.5 -0.2 Q-13.75 -2.15 -13.25 -4.35 -12.5 -7.5 -9.5 -8.5 -6.35 -9.2 -3.4 -7.9 -0.2 -6.45 2.05 -4.0 3.9 -1.95 3.95 1.0 L13.2 6.55 13.15 6.75 13.4 7.35 Q13.4 8.75 12.3 8.75 L12.0 8.75 11.95 8.7 11.85 8.7 11.85 8.65 2.75 3.5 Q1.15 4.85 -0.85 5.15 L-5.35 4.9 Q-7.45 4.35 -9.1 3.2 -11.2 1.8 -12.5 -0.2" fill="#000000" fill-rule="evenodd" stroke="none"/>
    </g>
  </defs>
</svg>
