<?xml version="1.0" encoding="UTF-8" standalone="no"?>
<svg xmlns:ffdec="https://www.free-decompiler.com/flash" xmlns:xlink="http://www.w3.org/1999/xlink" ffdec:objectType="frame" height="19.7px" width="30.55px" xmlns="http://www.w3.org/2000/svg">
  <g transform="matrix(1.0, 0.0, 0.0, 1.0, 15.05, -14.75)">
    <use ffdec:characterId="6" height="11.0" transform="matrix(-1.0, 0.0, 0.0, 1.0, 13.8, 14.75)" width="10.7" xlink:href="#sprite0"/>
    <use ffdec:characterId="6" height="11.0" transform="matrix(1.0, 0.0, 0.0, 1.0, -12.95, 14.75)" width="10.7" xlink:href="#sprite0"/>
    <use ffdec:characterId="4" height="12.7" transform="matrix(1.0, 0.0, 0.0, 1.0, -15.05, 21.75)" width="30.55" xlink:href="#sprite1"/>
    <use ffdec:characterId="8" height="12.0" transform="matrix(1.0, 0.0, 0.0, 1.0, -5.75, 14.8)" width="11.95" xlink:href="#sprite2"/>
  </g>
  <defs>
    <g id="sprite0">
      <use ffdec:characterId="5" height="11.0" transform="matrix(1.0, 0.0, 0.0, 1.0, 0.0, 0.0)" width="10.7" xlink:href="#shape0"/>
    </g>
    <g id="shape0">
      <path d="M1.25 5.15 Q1.25 4.65 2.0 4.4 L4.85 3.7 7.1 3.3 7.65 2.8 7.95 2.25 8.85 1.05 Q9.55 0.25 10.3 0.15 10.55 0.25 10.7 2.5 10.75 3.35 9.85 4.05 8.8 5.0 8.45 6.25 L8.0 8.2 7.95 9.5 7.8 9.75 7.6 9.8 6.9 10.0 6.5 10.0 6.2 9.75 5.95 9.85 5.85 9.8 5.75 9.65 5.25 9.35 4.95 9.5 4.5 9.1 4.15 8.95 3.8 8.8 3.6 8.8 3.55 8.75 3.15 8.5 3.05 8.4 3.05 8.25 2.65 7.65 2.2 7.3 2.2 7.0 Q2.2 6.85 1.85 6.8 L1.9 6.55 Q1.85 6.0 1.55 6.35 L1.5 6.25 1.75 5.85 1.5 5.4 1.25 5.15 M7.45 4.55 Q6.95 3.9 5.55 4.25 4.1 4.45 3.4 5.0 2.7 5.55 3.1 6.35 L4.15 7.65 Q4.85 8.15 5.7 8.1 6.55 8.05 7.1 7.45 7.7 6.9 7.8 6.05 7.9 5.2 7.45 4.55 M8.6 2.1 Q8.3 2.4 8.15 2.95 7.95 3.5 8.15 3.85 L9.05 3.8 Q9.75 3.5 10.0 3.2 L10.25 2.65 9.95 2.0 9.25 1.85 Q8.9 1.85 8.6 2.1" fill="#0a3aa2" fill-rule="evenodd" stroke="none"/>
      <path d="M8.6 2.1 Q8.9 1.85 9.25 1.85 L9.95 2.0 10.25 2.65 10.0 3.2 Q9.75 3.5 9.05 3.8 L8.15 3.85 Q7.95 3.5 8.15 2.95 8.3 2.4 8.6 2.1 M7.45 4.55 Q7.9 5.2 7.8 6.05 7.7 6.9 7.1 7.45 6.55 8.05 5.7 8.1 4.85 8.15 4.15 7.65 L3.1 6.35 Q2.7 5.55 3.4 5.0 4.1 4.45 5.55 4.25 6.95 3.9 7.45 4.55" fill="#407bfd" fill-rule="evenodd" stroke="none"/>
      <path d="M7.8 9.75 Q8.4 9.75 8.45 10.2 L8.15 10.55 7.8 10.45 7.85 10.6 7.65 11.0 6.8 10.2 6.9 10.0 7.6 9.8 7.8 9.75 M6.5 10.0 L6.55 10.1 6.75 10.55 6.4 10.9 Q6.2 10.9 5.85 10.05 L5.95 9.85 6.2 9.75 6.5 10.0 M5.85 9.8 L5.85 9.9 5.55 10.25 5.2 9.95 4.75 10.15 4.35 9.9 4.15 10.0 3.85 9.75 3.95 9.4 3.95 9.35 3.35 9.75 3.05 9.5 3.15 9.25 2.9 9.25 Q2.6 9.3 2.6 9.1 L2.6 9.05 2.0 9.15 Q1.7 9.2 1.7 9.0 1.65 8.8 2.5 8.4 L2.5 8.3 2.2 8.35 1.75 8.1 Q1.7 7.95 1.8 7.9 L1.85 7.8 Q1.35 7.8 1.35 7.5 L1.5 7.25 0.95 6.95 1.45 6.4 1.55 6.35 Q1.85 6.0 1.9 6.55 L1.85 6.8 Q2.2 6.85 2.2 7.0 L2.2 7.3 2.65 7.65 3.05 8.25 3.05 8.4 2.95 8.6 3.0 8.55 3.15 8.5 3.55 8.75 3.55 8.8 3.6 8.8 3.8 8.8 4.15 8.95 4.5 9.1 4.95 9.5 5.25 9.35 5.75 9.65 5.85 9.8 M1.5 6.25 L1.4 6.4 0.8 6.7 0.4 6.45 0.9 5.95 0.85 5.65 Q0.05 5.7 0.0 5.4 0.0 5.05 0.8 5.0 L1.25 5.15 1.5 5.4 1.75 5.85 1.5 6.25" fill="#ffffff" fill-rule="evenodd" stroke="none"/>
      <path d="M10.55 3.3 L9.7 4.25 Q8.75 5.35 8.45 6.55 L8.2 8.5 7.9 9.9 7.6 9.75 7.5 9.5 7.7 7.75 7.9 6.15 Q8.15 5.55 8.9 4.45 9.85 3.2 10.3 3.15 L10.55 3.3 M9.95 0.0 L10.0 0.1 9.4 0.5 8.5 1.45 7.55 3.0 Q7.15 3.6 3.9 4.1 L2.75 4.5 1.3 5.25 1.0 5.3 0.95 5.3 Q0.35 4.85 1.45 4.4 L2.9 3.8 5.05 3.45 6.8 2.9 8.1 1.35 Q8.9 0.3 9.95 0.0" fill="#000000" fill-rule="evenodd" stroke="none"/>
      <path d="M5.85 5.8 L5.65 6.4 5.0 6.7 4.4 6.5 4.1 5.9 Q4.1 5.55 4.35 5.35 4.6 5.05 4.95 5.05 5.35 5.0 5.6 5.25 L5.85 5.8 M2.5 4.85 Q3.3 7.45 7.35 8.8 L7.05 9.8 Q3.15 8.1 1.6 5.45 L2.5 4.85" fill="#ff9d00" fill-rule="evenodd" stroke="none"/>
    </g>
    <g id="sprite1">
      <use ffdec:characterId="3" height="12.7" transform="matrix(1.0, 0.0, 0.0, 1.0, 0.0, 0.0)" width="30.55" xlink:href="#shape1"/>
    </g>
    <g id="shape1">
      <path d="M22.85 5.0 L22.3 5.05 Q20.35 4.8 19.95 3.05 22.4 1.8 23.95 4.15 L22.85 5.0 M11.2 5.0 L11.15 5.45 13.35 5.55 13.65 6.3 9.65 6.05 9.5 5.8 Q9.45 5.4 9.55 5.05 10.2 4.6 11.1 4.8 L11.2 5.0 M19.45 4.65 L20.1 4.7 Q20.85 4.75 20.75 5.35 L19.95 5.85 Q17.45 6.95 14.6 6.5 L14.45 6.15 14.45 5.65 18.35 5.5 19.45 4.65 M25.5 6.8 L26.55 7.1 26.85 7.35 Q25.7 8.95 20.8 10.05 L15.95 10.85 15.0 10.7 14.6 10.35 15.35 9.7 21.35 8.05 25.5 6.8 M3.8 7.55 L5.05 6.95 Q7.85 7.9 8.1 8.15 L7.35 8.65 6.55 8.8 5.35 8.4 3.8 7.55 M7.85 2.65 L8.5 2.75 9.1 3.25 9.05 3.6 8.8 4.0 8.45 4.5 6.7 4.65 6.3 3.95 7.85 2.65 M9.15 8.7 L8.95 9.75 7.2 9.2 8.4 8.05 9.15 8.7" fill="#512bd0" fill-rule="evenodd" stroke="none"/>
      <path d="M22.85 5.0 L23.95 4.15 Q22.4 1.8 19.95 3.05 20.35 4.8 22.3 5.05 L22.85 5.0 M2.15 7.05 L2.1 6.95 Q2.3 5.9 3.55 5.8 L5.4 5.7 Q3.75 3.7 7.45 1.85 11.1 0.0 15.4 0.0 19.05 0.0 22.65 1.65 24.35 2.45 25.05 3.65 25.7 4.8 25.2 5.75 L26.9 5.85 Q27.5 6.1 28.6 6.9 L28.4 7.0 28.2 7.15 28.15 7.15 27.75 7.35 27.6 7.6 27.65 7.65 27.45 7.75 27.35 7.7 27.15 7.85 26.95 8.05 26.95 8.15 26.9 8.3 26.95 8.4 26.9 8.4 Q26.2 8.4 26.15 8.75 25.75 8.85 25.05 9.45 L24.7 9.8 24.55 9.7 Q24.35 9.65 24.1 9.9 L23.25 9.9 Q22.6 10.0 22.4 10.3 L21.5 10.35 20.6 10.6 20.2 10.45 Q19.4 10.45 18.85 10.85 L17.3 11.0 16.0 11.1 14.15 10.9 13.15 11.05 12.8 10.95 12.65 11.0 12.6 11.05 12.5 11.05 12.15 10.95 11.8 10.8 11.4 10.95 Q11.4 10.55 10.95 10.55 10.8 10.55 10.55 10.8 L10.45 10.8 Q10.05 10.4 9.45 10.3 L9.0 10.3 8.25 10.1 7.95 10.15 7.9 10.15 7.85 10.1 7.8 9.9 Q7.7 9.7 7.45 9.7 L6.95 9.85 6.5 9.65 6.25 9.4 5.8 9.3 5.7 9.35 5.55 9.3 5.2 8.95 5.0 9.05 4.7 8.85 4.45 8.8 4.4 8.75 3.9 8.45 3.7 8.35 3.3 8.1 3.2 8.0 3.25 7.8 2.95 7.5 2.65 7.55 2.25 7.1 2.15 7.05 M25.5 6.8 L21.35 8.05 15.35 9.7 14.6 10.35 15.0 10.7 15.95 10.85 20.8 10.05 Q25.7 8.95 26.85 7.35 L26.55 7.1 25.5 6.8 M19.45 4.65 L18.35 5.5 14.45 5.65 14.45 6.15 14.6 6.5 Q17.45 6.95 19.95 5.85 L20.75 5.35 Q20.85 4.75 20.1 4.7 L19.45 4.65 M11.2 5.0 L11.1 4.8 Q10.2 4.6 9.55 5.05 9.45 5.4 9.5 5.8 L9.65 6.05 13.65 6.3 13.35 5.55 11.15 5.45 11.2 5.0 M7.85 2.65 L6.3 3.95 6.7 4.65 8.45 4.5 8.8 4.0 9.05 3.6 9.1 3.25 8.5 2.75 7.85 2.65 M3.8 7.55 L5.35 8.4 6.55 8.8 7.35 8.65 8.1 8.15 Q7.85 7.9 5.05 6.95 L3.8 7.55 M9.15 8.7 L8.4 8.05 7.2 9.2 8.95 9.75 9.15 8.7" fill="#0d0d57" fill-rule="evenodd" stroke="none"/>
      <path d="M2.15 7.05 L2.25 7.1 2.65 7.55 2.95 7.5 3.25 7.8 3.2 8.0 3.3 8.1 3.3 8.15 2.8 8.75 1.9 9.2 1.65 8.95 1.9 8.65 2.3 8.35 1.75 8.2 1.75 7.85 Q0.0 7.8 0.0 7.25 L0.2 6.95 Q0.5 6.7 1.1 6.7 1.7 6.7 2.15 7.05 M3.7 8.35 L3.9 8.45 3.9 8.7 3.9 8.75 4.2 8.7 4.4 8.75 4.45 8.8 4.7 8.85 5.0 9.05 5.2 8.95 5.55 9.3 5.55 9.45 5.65 9.45 5.7 9.35 5.8 9.3 6.25 9.4 6.5 9.65 6.8 9.85 6.95 9.85 7.45 9.7 Q7.7 9.7 7.8 9.9 L7.85 10.1 7.9 10.15 7.95 10.15 8.25 10.1 9.0 10.3 9.45 10.3 Q10.05 10.4 10.45 10.8 L10.5 10.85 10.55 10.8 Q10.8 10.55 10.95 10.55 11.4 10.55 11.4 10.95 L11.8 10.8 12.15 10.95 12.5 11.05 12.6 11.05 12.65 11.0 12.8 10.95 13.15 11.05 14.15 10.9 16.0 11.1 17.3 11.0 18.85 10.85 Q19.4 10.45 20.2 10.45 L20.6 10.6 21.5 10.35 22.4 10.3 Q22.6 10.0 23.25 9.9 L24.1 9.9 Q24.35 9.65 24.55 9.7 L24.7 9.8 25.05 9.45 Q25.75 8.85 26.15 8.75 26.2 8.4 26.9 8.4 L26.95 8.4 26.9 8.3 26.95 8.15 26.95 8.05 27.15 7.85 27.35 7.7 27.45 7.75 27.65 7.65 27.6 7.6 27.75 7.35 28.15 7.15 28.2 7.15 28.4 7.0 28.6 6.9 Q28.9 6.75 29.15 6.75 30.55 6.75 30.55 7.45 L30.1 7.7 29.2 7.7 29.55 8.2 Q29.55 8.55 29.15 8.55 L28.4 8.3 28.4 8.65 27.95 9.0 Q27.7 9.0 27.55 8.8 L27.5 8.85 27.65 9.65 Q27.65 10.55 27.3 10.55 26.9 10.55 26.8 9.9 L26.1 10.2 25.45 9.95 24.85 10.4 24.85 10.5 24.85 10.9 24.45 11.15 24.2 11.0 23.55 11.4 23.0 10.75 22.8 10.75 22.9 11.15 22.6 11.45 Q22.25 11.45 22.2 10.85 L22.1 10.9 21.15 11.1 Q21.1 11.35 20.75 11.35 L20.45 11.25 20.3 11.05 19.9 11.05 19.85 11.35 19.45 11.6 19.75 12.25 Q19.75 12.7 19.2 12.7 18.55 12.7 18.15 12.1 L17.85 12.25 17.0 11.8 Q16.85 11.8 16.65 11.95 L16.25 12.05 15.75 11.9 15.4 12.0 Q15.2 12.0 15.05 11.8 14.5 12.35 14.1 12.35 L13.8 12.3 13.5 12.45 Q13.25 12.45 13.15 12.1 L12.85 12.25 Q12.5 12.25 12.45 11.65 L12.05 11.85 Q11.7 11.85 11.75 11.45 11.7 11.45 11.6 11.55 L11.3 11.65 Q11.05 11.65 10.95 11.25 L10.85 11.4 10.55 11.4 Q10.25 11.4 10.05 11.2 L9.75 11.35 9.4 11.1 9.25 11.55 8.85 11.9 8.55 11.6 8.8 11.0 8.35 11.2 7.95 10.75 7.95 10.7 7.25 11.05 Q6.95 11.05 6.9 10.75 L7.2 10.35 7.2 10.3 6.7 10.55 6.1 10.3 5.85 10.65 Q5.5 11.2 5.1 11.2 L4.9 11.15 4.85 10.95 5.25 10.4 5.25 10.35 4.9 10.3 4.8 10.05 4.9 9.75 4.8 9.7 4.65 9.8 4.2 9.9 Q3.55 9.9 3.75 9.35 L3.05 9.2 3.0 9.0 Q3.0 8.7 3.5 8.4 L3.7 8.35" fill="#ffffff" fill-rule="evenodd" stroke="none"/>
      <path d="M25.75 4.85 L25.55 5.6 26.9 5.65 Q28.2 5.95 28.7 6.8 L28.7 7.05 28.45 7.05 Q27.3 5.9 25.5 5.9 L25.35 5.9 24.85 6.15 24.6 6.05 Q24.6 5.75 24.95 5.4 L25.25 4.85 Q25.25 3.8 23.7 2.6 22.05 1.25 19.9 1.05 19.95 0.35 20.75 0.6 L22.2 1.15 Q22.6 1.25 24.1 2.2 L25.15 3.3 Q25.75 4.15 25.75 4.85 M9.75 0.6 Q10.55 0.35 10.6 1.05 8.45 1.25 6.8 2.6 5.25 3.8 5.25 4.85 L5.55 5.4 5.75 5.65 5.9 6.05 5.75 6.1 5.65 6.15 Q5.35 6.15 5.15 5.9 L5.0 5.9 Q3.2 5.9 2.05 7.05 L1.8 7.05 1.8 6.8 Q2.3 5.95 3.6 5.65 L4.95 5.6 4.75 4.85 Q4.75 4.15 5.35 3.3 L6.4 2.2 Q7.9 1.25 8.3 1.15 L9.75 0.6" fill="#000000" fill-rule="evenodd" stroke="none"/>
      <path d="M21.1 8.1 L21.1 7.05 Q22.2 6.75 24.25 5.6 L24.2 6.6 Q22.2 7.8 21.1 8.1 M9.45 7.15 L9.45 8.1 8.65 7.85 6.4 6.45 6.35 5.6 Q7.9 6.65 8.65 6.8 L9.45 7.15" fill="#1186dc" fill-rule="evenodd" stroke="none"/>
      <path d="M21.1 7.05 L21.1 8.1 Q15.3 9.85 9.45 8.1 L9.45 7.15 Q15.0 8.7 21.1 7.05" fill="#54c7ed" fill-rule="evenodd" stroke="none"/>
    </g>
    <g id="sprite2">
      <use ffdec:characterId="7" height="12.0" transform="matrix(1.0, 0.0, 0.0, 1.0, 0.0, 0.0)" width="11.95" xlink:href="#shape2"/>
    </g>
    <g id="shape2">
      <path d="M9.45 2.55 L9.35 2.85 9.75 2.85 9.75 3.85 9.05 3.85 Q8.85 4.9 9.15 5.75 9.55 7.05 11.4 7.85 9.65 11.1 8.6 11.4 L7.05 11.2 5.9 9.9 4.95 11.15 3.7 11.4 Q2.65 11.35 1.6 10.0 0.55 8.6 0.85 7.6 2.6 6.85 2.95 5.6 3.2 4.6 2.85 3.8 L2.25 3.8 2.25 2.75 2.85 2.75 3.55 2.55 6.05 2.55 Q4.8 2.6 3.35 3.2 L3.35 8.0 Q6.1 9.45 8.45 8.0 L8.45 3.2 Q7.5 2.6 6.35 2.55 L9.45 2.55" fill="#0a3aa2" fill-rule="evenodd" stroke="none"/>
      <path d="M9.45 1.35 L9.6 1.35 9.6 2.55 9.45 2.55 6.35 2.55 6.05 2.55 3.55 2.55 2.1 2.55 2.1 1.35 2.35 1.35 9.45 1.35" fill="#ffffff" fill-rule="evenodd" stroke="none"/>
      <path d="M2.35 1.35 Q2.3 0.75 2.85 0.1 L9.45 0.1 9.45 1.35 2.35 1.35" fill="#b8c8ff" fill-rule="evenodd" stroke="none"/>
      <path d="M6.05 2.55 L6.35 2.55 Q7.5 2.6 8.45 3.2 L8.45 8.0 Q6.1 9.45 3.35 8.0 L3.35 3.2 Q4.8 2.6 6.05 2.55" fill="#407bfd" fill-rule="evenodd" stroke="none"/>
      <path d="M10.5 7.35 L10.25 7.4 Q9.8 7.45 9.2 6.5 8.7 5.65 8.7 5.05 L8.85 4.1 Q9.05 3.2 9.4 3.2 L10.2 3.9 9.75 4.5 9.45 5.7 Q9.55 6.25 10.15 6.75 10.8 7.2 10.5 7.35 M1.95 3.9 Q2.4 3.2 2.75 3.2 3.1 3.2 3.3 4.1 L3.45 5.05 2.95 6.5 Q2.35 7.45 1.9 7.4 L1.65 7.35 Q1.35 7.2 2.0 6.75 L2.7 5.7 2.4 4.5 1.95 3.9" fill="#000000" fill-rule="evenodd" stroke="none"/>
      <path d="M11.05 7.45 L11.95 7.65 Q9.65 12.0 8.25 12.0 L7.3 11.4 6.0 10.2 4.65 11.4 3.7 12.0 Q2.3 12.0 0.0 7.65 L0.9 7.45 2.2 9.65 3.3 11.05 5.9 9.5 6.0 9.55 6.05 9.5 8.65 11.05 9.75 9.65 11.05 7.45 M9.2 2.45 Q9.5 1.45 9.3 0.8 9.05 0.1 8.55 0.1 L9.45 0.1 Q10.1 0.2 10.15 1.3 10.2 2.35 9.7 2.85 L7.55 3.05 Q5.95 2.75 4.2 3.1 2.45 3.4 1.95 2.5 1.45 1.55 1.85 0.7 2.25 -0.2 3.55 0.1 2.7 0.1 2.5 0.8 2.3 1.45 2.45 1.9 L2.85 2.35 9.2 2.45 M6.6 3.65 L8.0 3.65 8.0 5.05 6.6 5.05 6.6 3.65 M5.5 5.05 L4.1 5.05 4.1 3.65 5.5 3.65 5.5 5.05 M8.0 6.15 L8.0 7.55 6.6 7.55 6.6 6.15 8.0 6.15 M5.5 6.15 L5.5 7.55 4.1 7.55 4.1 6.15 5.5 6.15" fill="#ff9d00" fill-rule="evenodd" stroke="none"/>
    </g>
  </defs>
</svg>
