<?xml version="1.0" encoding="UTF-8" standalone="no"?>
<svg xmlns:ffdec="https://www.free-decompiler.com/flash" xmlns:xlink="http://www.w3.org/1999/xlink" ffdec:objectType="frame" height="28.3px" width="53.05px" xmlns="http://www.w3.org/2000/svg">
  <g transform="matrix(1.0, 0.0, 0.0, 1.0, 43.2, -3.15)">
    <use ffdec:characterId="27" height="5.8" transform="matrix(1.0, 0.0, 0.0, 1.0, -5.15, 19.35)" width="9.85" xlink:href="#sprite0"/>
    <use ffdec:characterId="4" height="6.8" transform="matrix(1.0, 0.0, 0.0, 1.0, -4.25, 15.1)" width="8.05" xlink:href="#sprite1"/>
    <use ffdec:characterId="8" height="4.65" transform="matrix(1.0, 0.0, 0.0, 1.0, -7.0, 14.9)" width="4.55" xlink:href="#sprite2"/>
    <use ffdec:characterId="8" height="4.65" transform="matrix(-1.0, 0.0, 0.0, 1.0, 6.55, 14.9)" width="4.55" xlink:href="#sprite2"/>
    <use ffdec:characterId="10" height="5.4" transform="matrix(1.0, 0.0, 0.0, 1.0, -4.6, 14.65)" width="9.4" xlink:href="#sprite3"/>
    <use ffdec:characterId="6" height="2.65" transform="matrix(1.0, 0.0, 0.0, 1.0, 3.15, 14.5)" width="6.55" xlink:href="#sprite4"/>
    <use ffdec:characterId="14" height="5.3" transform="matrix(1.0, 0.0, 0.0, 1.0, -10.5, 26.15)" width="9.2" xlink:href="#sprite5"/>
    <use ffdec:characterId="14" height="5.3" transform="matrix(-1.0, 0.0, 0.0, 1.0, 9.85, 26.15)" width="9.2" xlink:href="#sprite5"/>
    <use ffdec:characterId="16" height="17.4" transform="matrix(1.0, 0.0, 0.0, 1.0, -36.1, 6.5)" width="26.25" xlink:href="#sprite6"/>
    <use ffdec:characterId="18" height="26.05" transform="matrix(1.0, 0.0, 0.0, 1.0, -43.2, 3.15)" width="32.9" xlink:href="#sprite7"/>
  </g>
  <defs>
    <g id="sprite0">
      <use ffdec:characterId="26" height="5.8" transform="matrix(1.0, 0.0, 0.0, 1.0, 0.0, 0.0)" width="9.85" xlink:href="#shape0"/>
    </g>
    <g id="shape0">
      <path d="M0.65 3.25 L1.3 2.1 1.35 2.05 Q2.5 2.6 3.85 2.65 L7.8 2.75 8.85 2.55 8.7 3.0 8.1 3.55 7.3 4.15 6.45 4.15 6.35 4.1 6.3 4.05 Q7.05 3.95 7.2 3.6 L6.95 3.35 6.45 3.35 5.8 3.5 4.1 3.4 4.05 3.35 3.05 3.2 Q2.6 3.15 2.6 3.45 L2.85 3.7 3.5 3.95 3.0 4.5 2.85 4.5 Q1.5 4.2 0.65 3.25" fill="#1e6290" fill-rule="evenodd" stroke="none"/>
      <path d="M1.35 2.05 L2.15 0.4 Q2.15 0.2 2.3 0.15 L4.65 0.0 5.45 0.15 7.55 0.15 8.65 1.4 9.1 2.05 9.3 2.4 9.45 2.9 9.25 3.55 8.4 4.25 7.7 4.85 6.5 5.35 Q6.0 5.35 5.9 4.75 L5.75 4.05 5.4 4.05 4.2 4.05 4.05 4.75 Q3.85 5.35 3.65 5.35 L1.85 4.55 Q1.55 4.5 0.95 4.05 0.45 3.9 0.45 3.5 L0.65 3.25 Q1.5 4.2 2.85 4.5 L3.0 4.5 3.5 3.95 2.85 3.7 2.6 3.45 Q2.6 3.15 3.05 3.2 L4.05 3.35 4.1 3.4 5.8 3.5 6.45 3.35 6.95 3.35 7.2 3.6 Q7.05 3.95 6.3 4.05 L6.35 4.1 6.45 4.15 7.3 4.15 8.1 3.55 8.7 3.0 8.85 2.55 7.8 2.75 3.85 2.65 Q2.5 2.6 1.35 2.05" fill="#163b53" fill-rule="evenodd" stroke="none"/>
      <path d="M9.05 1.7 L9.85 3.0 9.85 3.1 9.8 3.0 Q9.8 3.45 8.55 4.55 7.2 5.8 6.1 5.8 L5.7 5.35 5.55 4.75 5.55 4.3 5.2 4.3 4.35 4.2 4.25 4.75 3.95 5.6 3.55 5.6 1.7 4.8 Q0.0 4.0 0.0 3.6 L2.05 0.4 2.4 0.65 1.25 2.55 Q0.55 3.35 0.55 3.55 0.55 3.85 2.05 4.5 L3.75 5.2 Q3.85 4.6 4.1 4.15 L3.4 3.7 3.8 3.8 5.0 3.95 6.1 3.8 6.75 3.35 6.3 4.0 6.0 4.15 6.1 5.2 6.45 5.35 Q6.85 5.45 7.9 4.55 L9.2 3.35 9.45 3.0 8.65 2.0 Q7.85 1.05 7.75 0.35 8.2 0.5 9.05 1.7" fill="#000000" fill-rule="evenodd" stroke="none"/>
    </g>
    <g id="sprite1">
      <use ffdec:characterId="3" height="6.8" transform="matrix(1.0, 0.0, 0.0, 1.0, 0.0, 0.0)" width="8.05" xlink:href="#shape1"/>
    </g>
    <g id="shape1">
      <path d="M6.75 2.85 Q6.05 5.5 3.3 5.3 L2.15 4.9 Q1.55 3.7 1.8 2.25 3.2 1.55 4.55 1.4 L6.6 2.35 6.75 2.85" fill="#ffffff" fill-rule="evenodd" stroke="none"/>
      <path d="M6.45 0.75 L7.2 2.25 7.35 2.7 7.6 3.5 7.7 4.05 7.75 5.0 7.55 5.4 6.55 5.9 Q5.35 6.45 4.45 6.45 L3.9 6.45 3.75 6.45 Q0.4 6.35 0.4 5.4 L0.55 4.25 0.95 2.65 0.95 2.55 1.4 1.4 Q1.9 0.2 2.5 0.0 L5.65 0.0 6.45 0.75 M6.75 2.85 L6.6 2.35 4.55 1.4 Q3.2 1.55 1.8 2.25 1.55 3.7 2.15 4.9 L3.3 5.3 Q6.05 5.5 6.75 2.85" fill="#aaaeca" fill-rule="evenodd" stroke="none"/>
      <path d="M0.5 5.4 Q2.5 6.35 4.55 6.15 6.05 6.0 7.45 5.3 7.65 3.55 6.7 1.9 L6.2 0.75 Q7.55 2.55 7.95 4.65 L8.05 5.45 Q7.05 6.35 5.75 6.45 L4.5 6.75 1.65 6.4 0.45 5.9 0.0 5.65 Q0.45 3.6 1.25 1.55 L1.65 0.75 0.65 4.7 0.5 5.4" fill="#000000" fill-rule="evenodd" stroke="none"/>
    </g>
    <g id="sprite2">
      <use ffdec:characterId="7" height="4.65" transform="matrix(1.0, 0.0, 0.0, 1.0, 0.0, 0.0)" width="4.55" xlink:href="#shape2"/>
    </g>
    <g id="shape2">
      <path d="M1.1 2.95 Q0.45 2.1 0.45 1.5 0.45 0.95 1.25 0.7 L2.15 0.5 2.35 1.1 3.1 2.3 2.45 2.95 1.1 2.95" fill="#ffffff" fill-rule="evenodd" stroke="none"/>
      <path d="M2.15 0.5 L2.55 0.4 Q3.1 0.05 3.45 0.05 4.2 0.05 4.45 0.7 L4.55 1.45 3.8 2.85 2.75 4.1 Q1.95 4.1 1.15 3.05 L1.1 2.95 2.45 2.95 3.1 2.3 2.35 1.1 2.15 0.5" fill="#aaaeca" fill-rule="evenodd" stroke="none"/>
      <path d="M3.6 0.0 L3.15 0.35 0.6 1.25 Q1.1 3.75 2.95 3.8 L4.55 1.9 2.95 4.65 Q0.6 3.85 0.0 1.0 1.7 0.1 3.6 0.0" fill="#000000" fill-rule="evenodd" stroke="none"/>
    </g>
    <g id="sprite3">
      <use ffdec:characterId="9" height="5.4" transform="matrix(1.0, 0.0, 0.0, 1.0, 0.0, 0.0)" width="9.4" xlink:href="#shape3"/>
    </g>
    <g id="shape3">
      <path d="M9.15 0.1 L9.2 0.5 9.1 0.8 8.35 1.8 7.35 2.85 Q5.4 4.9 4.45 4.9 3.0 4.9 1.8 2.7 L0.95 1.55 0.65 1.2 0.5 0.95 0.25 0.5 0.25 0.45 0.2 0.45 0.15 0.3 0.15 0.25 2.2 0.35 6.9 0.35 8.75 0.05 9.15 0.1 M7.55 1.05 L5.35 1.3 4.85 1.2 4.9 1.35 7.0 1.55 Q8.3 1.55 8.3 1.1 L7.55 1.05 M7.6 1.8 L1.3 1.6 2.55 3.15 3.6 4.05 4.85 4.1 Q6.1 3.4 7.15 2.3 L7.6 1.8 M1.35 1.05 L1.6 1.1 1.85 1.0 1.7 0.9 1.3 1.0 1.35 1.05" fill="#4f1818" fill-rule="evenodd" stroke="none"/>
      <path d="M7.55 1.05 L8.3 1.1 Q8.3 1.55 7.0 1.55 L4.9 1.35 4.85 1.2 5.35 1.3 7.55 1.05 M7.6 1.8 L7.15 2.3 Q6.1 3.4 4.85 4.1 L3.6 4.05 2.55 3.15 1.3 1.6 7.6 1.8 M1.35 1.05 L1.3 1.0 1.7 0.9 1.85 1.0 1.6 1.1 1.35 1.05" fill="#ac0000" fill-rule="evenodd" stroke="none"/>
      <path d="M1.7 2.45 Q3.45 4.7 4.35 4.7 L5.9 4.0 7.9 2.0 9.1 0.15 Q9.4 0.25 9.4 0.7 9.4 1.05 7.4 3.15 5.3 5.4 4.4 5.4 4.0 5.4 3.0 4.4 L1.55 2.85 0.7 1.65 0.0 0.35 0.15 0.05 1.7 2.45" fill="#000000" fill-rule="evenodd" stroke="none"/>
    </g>
    <g id="sprite4">
      <use ffdec:characterId="5" height="2.65" transform="matrix(1.0, 0.0, 0.0, 1.0, 0.0, 0.0)" width="6.55" xlink:href="#shape4"/>
    </g>
    <g id="shape4">
      <path d="M4.45 0.75 L5.15 0.9 5.75 1.4 6.05 1.9 5.7 2.25 4.7 2.5 3.4 2.5 2.5 2.25 2.6 2.2 Q3.65 1.65 4.45 0.75" fill="#ac0000" fill-rule="evenodd" stroke="none"/>
      <path d="M2.5 2.25 Q0.9 1.7 0.9 0.75 0.85 0.4 1.2 0.45 L3.2 0.45 4.45 0.75 Q3.65 1.65 2.6 2.2 L2.5 2.25" fill="#4f1818" fill-rule="evenodd" stroke="none"/>
      <path d="M3.75 0.05 Q5.1 0.15 6.3 1.7 L6.55 2.25 2.0 2.35 Q1.15 2.05 0.0 0.4 L1.4 0.2 3.75 0.05 M2.25 0.5 L0.9 0.7 Q1.95 2.4 3.8 2.4 5.6 2.4 6.0 1.95 5.35 0.9 4.9 0.85 L3.8 0.65 2.25 0.5" fill="#000000" fill-rule="evenodd" stroke="none"/>
    </g>
    <g id="sprite5">
      <use ffdec:characterId="13" height="5.3" transform="matrix(1.0, 0.0, 0.0, 1.0, 0.0, 0.0)" width="9.2" xlink:href="#shape5"/>
    </g>
    <g id="shape5">
      <path d="M0.15 3.35 L0.15 3.2 0.15 2.9 0.15 2.75 0.2 2.65 Q0.4 3.1 1.15 3.55 L3.8 3.65 5.5 3.2 7.3 2.45 8.0 1.9 Q8.1 1.45 8.45 1.4 8.8 1.45 8.9 2.05 8.9 3.0 7.4 3.75 5.9 4.5 3.35 4.6 0.8 4.7 0.15 3.35" fill="#ffffff" fill-rule="evenodd" stroke="none"/>
      <path d="M8.9 2.05 L8.95 2.8 Q8.95 3.9 6.2 4.65 L3.75 5.2 3.05 5.25 Q1.75 5.25 0.75 4.6 0.15 4.25 0.15 3.45 L0.15 3.35 Q0.8 4.7 3.35 4.6 5.9 4.5 7.4 3.75 8.9 3.0 8.9 2.05" fill="#005dc5" fill-rule="evenodd" stroke="none"/>
      <path d="M0.2 2.65 Q0.25 2.5 0.45 2.45 L0.8 2.35 1.5 3.0 2.15 3.4 3.6 3.65 3.7 3.65 3.8 3.65 1.15 3.55 Q0.4 3.1 0.2 2.65" fill="#acacac" fill-rule="evenodd" stroke="none"/>
      <path d="M1.5 0.8 L1.6 0.75 Q2.4 0.3 3.2 0.3 L5.1 0.8 4.5 1.75 2.25 1.55 1.5 1.1 1.5 0.8 M6.15 2.15 Q5.8 2.15 5.35 1.55 5.35 1.05 5.9 1.3 L6.45 1.85 6.15 2.15" fill="#00a6ff" fill-rule="evenodd" stroke="none"/>
      <path d="M5.1 0.8 L5.85 1.1 Q7.75 1.9 7.75 2.35 L6.6 3.15 5.0 3.7 Q4.5 3.7 3.8 2.8 3.05 1.9 2.35 1.8 L1.35 1.9 0.8 2.05 Q0.35 2.05 0.55 1.65 0.75 1.25 1.5 0.8 L1.5 1.1 2.25 1.55 4.5 1.75 5.1 0.8 M6.15 2.15 L6.45 1.85 5.9 1.3 Q5.35 1.05 5.35 1.55 5.8 2.15 6.15 2.15" fill="#005685" fill-rule="evenodd" stroke="none"/>
      <path d="M3.75 3.05 L2.95 2.2 Q2.35 1.6 1.5 2.05 L1.1 2.3 0.85 2.5 0.75 2.5 0.5 2.85 0.7 3.05 Q1.4 3.65 2.25 3.75 3.75 3.95 4.25 3.75 L3.75 3.05 M4.55 0.95 Q3.85 0.55 3.05 0.4 L1.4 1.0 0.75 1.75 0.8 1.9 0.85 1.9 Q1.25 1.1 1.95 1.4 L3.3 2.25 4.25 3.05 4.55 3.45 4.8 3.55 4.9 3.55 5.3 3.35 5.75 3.25 5.9 3.15 5.95 3.15 6.0 3.15 5.55 1.95 4.55 0.95 M5.55 1.1 L5.75 1.45 6.05 2.6 Q6.1 3.25 6.95 2.9 L7.6 2.55 7.35 2.25 6.75 1.6 5.55 1.1 M0.1 2.65 L0.2 2.4 0.4 1.6 1.1 1.05 Q2.2 0.1 3.6 0.0 L4.95 0.65 Q6.1 0.7 7.1 1.3 L8.0 2.25 8.6 1.8 8.1 1.3 8.35 1.25 Q8.85 1.25 9.05 1.8 L9.15 2.2 Q9.25 2.8 9.0 3.25 8.55 4.15 7.4 4.45 L5.85 4.9 4.75 5.1 2.3 5.05 3.3 5.05 5.55 4.65 7.0 4.2 8.3 3.7 Q9.1 3.25 8.85 2.35 8.35 2.5 8.0 2.7 L7.95 2.75 7.75 2.85 6.15 3.55 3.95 4.05 2.15 4.0 0.75 3.45 Q0.2 3.05 0.15 3.3 L0.25 4.0 1.9 5.15 Q0.95 5.05 0.1 4.35 L0.0 2.55 0.05 2.6 0.1 2.65" fill="#000000" fill-rule="evenodd" stroke="none"/>
    </g>
    <g id="sprite6">
      <use ffdec:characterId="15" height="17.4" transform="matrix(1.0, 0.0, 0.0, 1.0, 0.0, 0.0)" width="26.25" xlink:href="#shape6"/>
    </g>
    <g id="shape6">
      <path d="M0.9 0.45 L5.75 3.3 5.6 3.8 2.9 2.15 1.15 0.85 0.9 0.45 M10.7 6.5 L11.3 6.9 12.1 7.4 14.1 8.75 13.65 9.7 11.8 8.25 10.4 7.05 10.65 6.7 10.7 6.5 M18.1 11.0 L20.35 12.2 20.05 13.25 17.5 12.0 18.1 11.0 M25.35 15.3 L26.1 16.1 26.15 16.2 25.9 16.35 25.9 16.4 25.95 16.5 25.85 16.55 25.8 16.6 25.6 16.85 25.4 16.85 24.6 16.2 25.35 15.3" fill="#c49d32" fill-rule="evenodd" stroke="none"/>
      <path d="M26.15 16.2 L26.15 16.25 Q26.5 16.6 25.35 17.4 L25.3 17.4 25.0 17.2 24.3 16.65 24.25 16.65 22.15 15.3 19.95 14.1 19.2 13.65 17.45 12.45 17.35 12.4 13.6 9.85 13.5 9.8 10.2 7.6 6.55 5.15 5.45 4.4 0.0 0.15 0.05 0.0 0.9 0.45 1.15 0.85 2.9 2.15 5.6 3.8 5.75 3.3 7.25 4.2 10.7 6.5 10.65 6.7 10.4 7.05 11.8 8.25 13.65 9.7 14.1 8.75 14.3 8.9 17.9 10.8 18.1 11.0 17.5 12.0 20.05 13.25 20.35 12.2 24.9 14.9 25.1 15.05 25.2 15.15 25.35 15.3 24.6 16.2 25.4 16.85 25.6 16.85 25.8 16.6 25.85 16.55 25.95 16.5 25.9 16.4 25.9 16.35 26.15 16.2" fill="#7e631c" fill-rule="evenodd" stroke="none"/>
    </g>
    <g id="sprite7">
      <use ffdec:characterId="17" height="26.05" transform="matrix(1.0, 0.0, 0.0, 1.0, 0.0, 0.0)" width="32.9" xlink:href="#shape7"/>
    </g>
    <g id="shape7">
      <path d="M16.3 6.55 Q16.95 7.1 17.0 7.55 17.05 8.0 14.9 10.8 L19.7 10.1 Q21.25 9.15 22.95 10.05 24.4 10.8 24.5 11.65 24.55 11.95 23.9 12.7 25.35 12.55 26.2 12.7 L27.2 12.8 28.15 12.4 28.85 12.0 28.55 13.05 Q28.1 13.7 26.85 14.0 L26.6 14.1 27.5 14.3 27.85 14.8 27.8 15.25 Q27.65 15.6 26.8 15.7 L25.7 15.8 25.3 15.5 24.9 15.55 25.55 16.25 26.1 16.95 Q26.2 17.6 25.5 17.7 L24.5 17.25 23.55 16.6 23.95 17.45 23.95 18.55 Q23.85 19.6 23.35 19.65 22.6 19.75 22.3 18.55 22.05 17.35 20.05 17.6 L19.55 17.65 19.1 18.45 Q18.2 20.2 17.65 20.3 16.4 20.45 13.7 18.25 L13.8 16.6 13.75 14.7 13.65 12.75 13.65 12.45 Q11.0 15.6 9.9 15.8 9.1 15.9 7.0 13.3 6.95 13.0 8.55 11.65 10.1 10.3 10.05 9.9 L9.35 8.95 9.15 9.0 5.9 9.0 3.35 8.55 3.95 7.35 4.6 5.65 Q4.7 4.85 4.9 4.4 L4.8 4.3 Q4.7 3.65 6.25 3.45 L8.25 3.35 9.8 2.95 Q10.4 2.85 10.6 3.35 L10.65 3.9 10.6 6.2 10.3 7.7 Q10.7 7.75 11.15 8.15 L11.75 8.7 Q13.75 6.85 14.45 6.45 L16.3 6.55 M15.85 7.8 Q15.75 6.85 14.85 7.0 14.0 7.1 12.9 8.15 11.8 9.15 11.85 9.55 12.0 10.5 12.9 10.35 13.9 10.2 14.9 9.1 L15.85 7.8 M7.1 5.1 Q8.15 5.4 8.45 5.65 L8.55 6.6 Q8.7 7.4 9.35 7.3 9.95 7.2 10.15 6.2 L10.2 5.05 Q10.05 3.95 8.25 3.6 6.4 3.25 6.6 4.5 L7.1 5.1 M21.3 16.7 Q22.05 16.6 21.95 15.9 21.85 15.15 21.05 15.25 20.25 15.35 20.35 16.1 20.45 16.8 21.3 16.7 M23.1 14.3 Q22.9 15.15 24.5 14.9 26.45 14.65 26.3 13.65 26.15 12.5 24.55 12.85 22.95 13.25 23.1 14.3 M20.75 13.0 Q23.1 12.65 23.0 11.7 22.85 10.85 18.75 10.85 14.55 10.95 14.75 12.3 14.8 12.8 16.05 13.1 L20.75 13.0" fill="#bb3d22" fill-rule="evenodd" stroke="none"/>
      <path d="M3.0 6.35 L2.65 5.7 2.8 4.65 2.85 4.45 3.05 3.1 Q2.9 1.65 3.75 2.3 4.6 2.95 4.65 3.5 L4.25 4.95 Q3.7 6.25 3.05 6.35 L3.0 6.35 M17.0 4.95 Q16.85 4.1 17.65 4.3 18.35 4.55 18.45 5.15 L18.55 5.75 Q18.45 6.25 18.0 6.35 17.35 6.45 17.0 4.95 M7.85 15.35 L8.8 16.0 10.0 16.3 10.65 16.65 9.1 17.9 Q7.2 18.15 5.95 15.95 5.85 15.45 6.3 15.2 L7.85 15.35 M15.35 20.35 L16.35 21.1 Q16.4 21.55 16.0 21.6 15.55 21.65 15.0 21.25 L14.4 20.65 Q14.3 19.85 15.35 20.35 M23.35 22.7 L21.7 24.15 21.2 23.95 23.35 20.95 Q24.25 19.55 24.4 20.75 24.5 21.35 23.35 22.7" fill="#bb6f22" fill-rule="evenodd" stroke="none"/>
      <path d="M15.85 7.8 L14.9 9.1 Q13.9 10.2 12.9 10.35 12.0 10.5 11.85 9.55 11.8 9.15 12.9 8.15 14.0 7.1 14.85 7.0 15.75 6.85 15.85 7.8 M7.1 5.1 L6.6 4.5 Q6.4 3.25 8.25 3.6 10.05 3.95 10.2 5.05 L10.15 6.2 Q9.95 7.2 9.35 7.3 8.7 7.4 8.55 6.6 L8.45 5.65 Q8.15 5.4 7.1 5.1 M20.75 13.0 L16.05 13.1 Q14.8 12.8 14.75 12.3 14.55 10.95 18.75 10.85 22.85 10.85 23.0 11.7 23.1 12.65 20.75 13.0 M23.1 14.3 Q22.95 13.25 24.55 12.85 26.15 12.5 26.3 13.65 26.45 14.65 24.5 14.9 22.9 15.15 23.1 14.3 M21.3 16.7 Q20.45 16.8 20.35 16.1 20.25 15.35 21.05 15.25 21.85 15.15 21.95 15.9 22.05 16.6 21.3 16.7" fill="#8b0d0d" fill-rule="evenodd" stroke="none"/>
      <path d="M2.8 4.65 L2.2 2.7 2.05 2.2 12.2 1.15 12.35 6.9 16.85 2.25 18.05 2.95 20.35 4.9 19.0 8.2 Q23.65 6.7 25.45 7.7 27.2 8.65 27.9 10.5 L27.05 11.8 27.75 11.85 29.1 11.4 31.75 10.05 32.2 10.55 32.3 10.95 31.95 11.45 Q30.65 13.05 28.9 13.9 L29.7 14.5 30.3 14.45 30.8 14.5 Q31.45 14.45 31.7 15.1 30.85 15.8 29.1 16.2 L26.9 16.85 27.4 17.95 Q27.95 19.5 27.4 21.2 L26.65 21.4 26.25 20.85 25.3 19.1 Q25.65 22.95 22.4 24.95 20.3 26.35 18.25 25.15 20.2 23.95 21.4 22.25 22.6 20.5 21.6 18.35 19.6 21.15 17.1 22.95 13.9 21.65 11.45 19.4 L12.55 16.55 Q12.45 15.95 11.05 17.1 9.8 18.25 8.05 18.55 6.0 17.25 4.6 15.3 L3.8 14.1 7.5 10.6 3.2 11.05 1.15 10.4 Q2.85 8.45 3.0 6.35 L3.05 6.35 Q3.7 6.25 4.25 4.95 L4.65 3.5 Q4.6 2.95 3.75 2.3 2.9 1.65 3.05 3.1 L2.85 4.45 2.8 4.65 M16.3 6.55 L14.45 6.45 Q13.75 6.85 11.75 8.7 L11.15 8.15 Q10.7 7.75 10.3 7.7 L10.6 6.2 10.65 3.9 10.6 3.35 Q10.4 2.85 9.8 2.95 L8.25 3.35 6.25 3.45 Q4.7 3.65 4.8 4.3 L4.9 4.4 Q4.7 4.85 4.6 5.65 L3.95 7.35 3.35 8.55 5.9 9.0 9.15 9.0 9.35 8.95 10.05 9.9 Q10.1 10.3 8.55 11.65 6.95 13.0 7.0 13.3 9.1 15.9 9.9 15.8 11.0 15.6 13.65 12.45 L13.65 12.75 13.75 14.7 13.8 16.6 13.7 18.25 Q16.4 20.45 17.65 20.3 18.2 20.2 19.1 18.45 L19.55 17.65 20.05 17.6 Q22.05 17.35 22.3 18.55 22.6 19.75 23.35 19.65 23.85 19.6 23.95 18.55 L23.95 17.45 23.55 16.6 24.5 17.25 25.5 17.7 Q26.2 17.6 26.1 16.95 L25.55 16.25 24.9 15.55 25.3 15.5 25.7 15.8 26.8 15.7 Q27.65 15.6 27.8 15.25 L27.85 14.8 27.5 14.3 26.6 14.1 26.85 14.0 Q28.1 13.7 28.55 13.05 L28.85 12.0 28.15 12.4 27.2 12.8 26.2 12.7 Q25.35 12.55 23.9 12.7 24.55 11.95 24.5 11.65 24.4 10.8 22.95 10.05 21.25 9.15 19.7 10.1 L14.9 10.8 Q17.05 8.0 17.0 7.55 16.95 7.1 16.3 6.55 M17.0 4.95 Q17.35 6.45 18.0 6.35 18.45 6.25 18.55 5.75 L18.45 5.15 Q18.35 4.55 17.65 4.3 16.85 4.1 17.0 4.95 M15.35 20.35 Q14.3 19.85 14.4 20.65 L15.0 21.25 Q15.55 21.65 16.0 21.6 16.4 21.55 16.35 21.1 L15.35 20.35 M7.85 15.35 L6.3 15.2 Q5.85 15.45 5.95 15.95 7.2 18.15 9.1 17.9 L10.65 16.65 10.0 16.3 8.8 16.0 7.85 15.35 M23.35 22.7 Q24.5 21.35 24.4 20.75 24.25 19.55 23.35 20.95 L21.2 23.95 21.7 24.15 23.35 22.7" fill="#f1cc7d" fill-rule="evenodd" stroke="none"/>
      <path d="M16.35 2.75 L14.9 4.85 Q13.65 6.4 12.35 7.15 L12.3 7.0 14.4 4.6 Q15.65 3.0 15.8 2.0 16.0 0.95 16.9 1.55 L18.2 2.8 20.6 3.65 Q21.4 3.95 21.45 4.45 21.6 5.4 20.45 6.75 L19.65 7.6 22.1 6.8 22.8 6.3 Q23.2 5.9 23.45 6.1 L24.3 6.95 Q24.85 7.2 28.85 9.8 L27.6 11.45 27.2 11.9 27.3 11.85 Q29.5 11.55 30.05 11.0 L30.8 9.75 32.15 8.35 32.15 8.3 32.2 8.3 Q32.7 8.0 32.8 8.7 L32.8 9.05 32.85 9.45 Q33.0 10.4 32.25 11.85 31.3 13.55 30.0 13.95 L29.8 14.05 32.15 13.85 32.65 14.0 32.65 14.25 Q32.8 15.25 31.3 16.1 30.0 16.85 28.05 17.1 L27.6 17.25 Q27.9 17.55 28.1 19.15 L28.15 21.4 Q28.1 23.35 27.5 23.4 27.35 23.45 26.55 21.95 L25.4 20.05 Q25.0 21.9 24.1 23.4 22.75 25.75 20.9 26.0 L18.5 25.75 Q17.35 25.35 17.3 25.15 20.85 22.95 21.35 22.0 L21.65 20.4 21.65 18.9 21.3 18.4 Q20.8 19.5 19.35 21.2 17.5 23.4 16.55 23.5 L10.75 19.65 Q10.7 19.4 11.55 18.2 12.3 17.2 12.2 16.0 L11.45 17.1 Q10.05 18.4 7.0 18.85 L3.1 15.1 Q2.95 13.8 5.9 12.1 L6.7 11.6 1.6 11.75 Q0.1 11.8 0.0 10.95 -0.05 10.7 1.45 8.6 L2.55 6.9 2.4 6.3 2.3 5.25 1.85 4.3 1.4 3.35 Q1.3 2.6 2.2 2.15 3.2 1.75 4.6 2.15 L3.95 2.8 2.55 3.4 3.05 4.7 3.1 5.05 Q3.55 5.4 3.65 6.15 3.75 6.8 1.6 10.55 4.05 10.4 4.95 10.55 L7.25 10.45 Q7.9 10.35 8.5 9.8 L9.15 9.2 9.45 9.35 9.45 9.7 Q9.5 10.65 7.3 12.35 L4.1 14.9 5.85 16.45 7.35 17.8 Q9.55 17.5 10.85 16.5 L12.3 15.3 12.3 15.6 Q12.75 15.55 12.95 15.95 L13.1 16.65 12.7 18.0 11.8 19.35 14.45 21.0 Q16.3 22.15 16.65 22.1 17.0 22.05 19.05 20.1 L21.15 18.15 21.1 18.15 21.05 17.95 Q20.95 17.9 21.2 17.85 L21.45 17.9 21.55 17.8 21.55 17.9 Q21.95 18.0 22.15 18.85 L22.35 20.05 Q22.55 21.35 21.85 22.35 L19.25 25.0 20.35 25.35 Q22.35 25.05 23.8 22.5 24.9 20.4 24.8 19.7 L24.35 18.6 24.35 18.2 Q24.45 18.1 24.7 18.05 25.15 18.0 26.15 19.4 L27.4 21.6 27.45 21.55 27.4 19.3 26.9 17.55 26.45 16.5 Q26.4 16.15 26.85 16.1 L28.75 16.35 29.5 16.25 31.4 14.95 29.05 14.65 Q27.35 14.25 27.35 14.05 27.3 13.75 28.5 13.45 30.0 13.05 30.65 12.55 L31.3 11.75 31.6 11.05 31.85 10.25 31.05 11.0 Q29.35 12.35 28.65 12.45 L26.15 12.75 26.1 12.75 25.7 12.85 25.1 12.6 Q25.2 12.2 26.15 11.35 L27.4 10.05 24.95 8.4 23.1 7.3 21.3 8.0 17.75 8.95 Q17.45 9.0 17.35 8.45 L17.85 8.1 19.4 6.55 20.05 5.55 20.2 4.65 18.05 3.75 16.35 2.75 M14.8 6.15 Q14.7 5.15 15.75 5.7 L16.2 5.85 16.7 5.95 Q17.15 6.8 17.25 7.65 17.35 8.15 16.35 9.8 15.25 11.55 14.35 11.7 L13.95 11.7 13.8 11.4 Q13.8 11.15 14.3 10.9 L15.1 10.1 15.15 9.4 Q15.1 8.95 15.3 8.6 L16.3 7.2 Q15.55 7.1 14.8 6.15 M8.9 1.95 L8.05 2.2 6.3 2.25 5.6 2.2 Q6.0 1.7 6.5 1.75 L7.1 1.85 Q8.4 1.65 11.2 0.35 12.8 -0.45 12.95 0.55 L13.0 3.5 Q12.8 6.35 11.9 7.3 12.3 4.7 12.15 3.5 L11.75 1.6 10.4 1.55 8.9 1.95 M6.35 3.65 Q6.25 2.9 7.2 3.05 L10.3 2.65 11.2 2.7 11.3 3.1 Q11.45 3.85 11.0 5.75 L10.15 8.1 9.9 7.65 10.45 4.85 10.3 3.8 7.4 4.15 Q6.45 4.3 6.35 3.65 M23.25 10.6 Q22.3 10.05 19.75 10.55 L19.65 10.35 Q19.55 9.65 22.95 9.15 23.95 9.0 24.5 9.85 24.95 10.4 25.0 11.0 25.1 11.6 24.35 12.85 23.5 14.3 22.6 14.4 L22.0 14.2 Q21.95 13.9 22.95 12.95 L23.9 11.75 Q23.8 10.95 23.25 10.6" fill="#3a1818" fill-rule="evenodd" stroke="none"/>
      <path d="M21.15 9.4 Q21.25 9.7 21.65 9.7 L22.35 9.45 22.75 8.95 Q22.75 8.3 21.95 8.55 21.15 8.85 21.1 9.15 20.95 8.25 22.25 8.1 23.5 7.9 23.65 8.8 23.8 9.75 22.05 10.0 21.3 10.15 21.15 9.4 M13.4 17.85 Q12.9 17.4 12.6 15.1 12.55 14.65 12.95 14.35 13.35 14.0 13.85 14.6 L14.15 15.5 14.3 15.9 14.3 16.15 14.4 17.05 14.35 17.4 Q15.0 18.4 17.75 19.95 18.2 19.95 18.75 19.05 19.4 17.95 20.5 17.45 18.65 20.7 17.45 20.7 17.0 20.7 15.75 19.9 L14.7 19.2 14.85 19.2 15.2 19.1 Q14.1 17.35 14.1 16.6 L13.9 15.85 Q13.7 15.35 13.4 15.9 L13.25 17.15 13.4 17.85 M3.85 7.3 L4.25 6.1 Q4.95 4.45 5.3 4.2 L5.6 4.6 5.5 5.35 Q5.6 5.85 4.8 7.9 5.9 7.7 6.4 7.9 L6.8 8.3 Q6.4 9.0 5.4 9.1 4.4 9.3 3.95 8.9 L4.25 8.95 Q4.75 8.95 4.75 7.85 4.75 6.8 4.2 7.05 L3.85 7.3 M7.5 12.4 Q6.6 12.35 6.6 12.9 L6.75 13.3 Q7.0 13.6 7.45 13.6 L8.15 13.35 8.4 12.95 Q8.4 12.45 7.5 12.4 M9.75 11.9 L9.3 12.95 8.15 13.75 Q6.55 13.95 6.55 12.95 6.45 12.45 8.1 11.65 9.6 10.85 9.75 11.9" fill="#fff5e0" fill-rule="evenodd" stroke="none"/>
      <path d="M21.1 9.15 Q21.15 8.85 21.95 8.55 22.75 8.3 22.75 8.95 L22.35 9.45 21.65 9.7 Q21.25 9.7 21.15 9.4 L21.1 9.2 21.1 9.15 M14.7 19.2 Q13.75 19.1 13.4 17.85 L13.25 17.15 13.4 15.9 Q13.7 15.35 13.9 15.85 L14.1 16.6 Q14.1 17.35 15.2 19.1 L14.85 19.2 14.7 19.2 M3.95 8.9 Q3.65 8.7 3.6 8.1 3.6 7.55 3.85 7.3 L4.2 7.05 Q4.75 6.8 4.75 7.85 4.75 8.95 4.25 8.95 L3.95 8.9 M7.5 12.4 Q8.4 12.45 8.4 12.95 L8.15 13.35 7.45 13.6 Q7.0 13.6 6.75 13.3 L6.6 12.9 Q6.6 12.35 7.5 12.4" fill="#ffffff" fill-rule="evenodd" stroke="none"/>
    </g>
  </defs>
</svg>
