<?xml version="1.0" encoding="UTF-8" standalone="no"?>
<svg xmlns:ffdec="https://www.free-decompiler.com/flash" xmlns:xlink="http://www.w3.org/1999/xlink" ffdec:objectType="frame" height="11.65px" width="19.5px" xmlns="http://www.w3.org/2000/svg">
  <g transform="matrix(1.0, 0.0, 0.0, 1.0, 9.75, -14.75)">
    <use ffdec:characterId="2" height="9.1" transform="matrix(1.0, 0.0, 0.0, 1.0, -3.15, 14.75)" width="6.55" xlink:href="#sprite0"/>
    <use ffdec:characterId="10" height="7.85" transform="matrix(1.0, 0.0, 0.0, 1.0, -9.75, 18.55)" width="19.5" xlink:href="#sprite1"/>
  </g>
  <defs>
    <g id="sprite0">
      <use ffdec:characterId="1" height="9.1" transform="matrix(1.0, 0.0, 0.0, 1.0, 0.0, 0.0)" width="6.55" xlink:href="#shape0"/>
    </g>
    <g id="shape0">
      <path d="M4.5 1.8 L4.55 1.65 4.6 1.55 4.65 1.35 4.75 0.55 4.95 0.25 5.0 0.2 5.35 0.15 5.4 0.2 5.7 0.75 5.8 1.1 5.9 1.55 6.25 3.7 6.25 3.85 6.3 4.0 6.3 4.1 6.35 4.35 6.35 4.4 6.4 4.75 6.4 4.8 6.5 5.55 6.55 6.2 5.8 7.4 5.7 7.55 5.55 7.7 5.4 7.9 5.35 7.95 5.0 8.3 4.95 8.35 4.6 8.7 4.25 8.85 3.95 8.85 3.9 8.85 3.75 8.85 Q0.4 8.65 0.25 5.55 L0.2 5.15 0.25 4.8 0.25 4.75 0.3 4.4 0.3 4.35 0.3 4.1 0.3 4.0 0.35 3.7 Q0.75 0.1 1.25 0.1 L1.65 1.4 1.9 2.1 1.95 2.15 2.0 2.2 Q0.6 5.4 2.95 7.35 3.4 7.7 4.0 7.9 6.85 5.95 4.85 2.4 L4.5 1.8" fill="#234718" fill-rule="evenodd" stroke="none"/>
      <path d="M2.0 2.2 L2.45 2.6 3.7 2.5 4.5 1.8 4.85 2.4 Q6.85 5.95 4.0 7.9 3.4 7.7 2.95 7.35 0.6 5.4 2.0 2.2" fill="#48b625" fill-rule="evenodd" stroke="none"/>
      <path d="M0.5 6.9 L2.1 8.55 3.85 8.55 4.15 8.65 5.3 7.6 6.2 6.6 6.0 3.55 Q6.0 2.45 5.45 0.35 L5.55 0.15 6.25 3.65 6.5 6.4 6.4 6.9 5.5 7.95 4.25 9.1 3.75 9.0 2.0 8.95 0.2 7.35 Q0.0 7.05 0.0 5.7 0.0 4.2 0.25 3.1 L0.95 0.5 1.05 0.5 1.1 0.75 1.05 1.05 Q0.3 3.95 0.3 5.2 L0.5 6.9 M5.2 0.35 Q5.2 1.05 4.8 1.85 4.3 2.95 3.45 2.95 2.3 2.95 1.7 2.2 L1.3 1.4 1.3 0.1 1.45 0.0 1.65 1.4 Q1.95 2.6 3.05 2.6 4.6 2.6 4.6 1.2 L4.7 0.4 5.0 0.0 5.2 0.35" fill="#000000" fill-rule="evenodd" stroke="none"/>
    </g>
    <g id="sprite1">
      <use ffdec:characterId="9" height="7.85" transform="matrix(1.0, 0.0, 0.0, 1.0, 0.0, 0.0)" width="19.5" xlink:href="#shape1"/>
    </g>
    <g id="shape1">
      <path d="M2.15 3.95 L2.25 3.55 Q2.75 2.15 4.1 1.5 5.1 2.8 6.7 3.55 7.85 4.05 9.05 4.05 L13.2 3.5 Q14.45 2.95 15.25 1.9 16.8 2.0 17.65 3.1 L17.7 3.3 17.65 3.35 17.2 3.7 Q16.45 4.35 14.75 4.85 L10.3 5.7 4.65 5.2 Q3.1 4.75 2.25 4.05 L2.15 3.95" fill="#ffdf46" fill-rule="evenodd" stroke="none"/>
      <path d="M17.4 6.25 Q14.9 7.2 12.05 7.3 L8.0 7.35 Q5.7 7.35 3.1 6.5 L2.4 6.2 2.35 6.2 2.25 4.05 Q3.1 4.75 4.65 5.2 L10.3 5.7 14.75 4.85 Q16.45 4.35 17.2 3.7 L17.65 3.35 17.4 6.25" fill="#ff8c5a" fill-rule="evenodd" stroke="none"/>
      <path d="M0.8 2.55 L1.7 2.0 1.95 1.7 2.75 1.2 3.75 0.95 5.1 0.65 6.7 0.4 Q6.55 1.25 6.55 1.95 L6.5 3.25 6.45 3.25 13.65 2.95 13.55 2.95 13.6 0.3 15.3 0.7 15.7 0.8 16.65 1.2 17.35 1.75 17.75 2.1 18.3 2.7 17.7 3.3 17.65 3.1 Q16.8 2.0 15.25 1.9 14.45 2.95 13.2 3.5 L9.05 4.05 Q7.85 4.05 6.7 3.55 5.1 2.8 4.1 1.5 2.75 2.15 2.25 3.55 L2.15 3.95 1.85 3.7 1.75 3.55 0.8 2.55" fill="#d69951" fill-rule="evenodd" stroke="none"/>
      <path d="M18.3 2.7 L18.85 4.15 19.0 4.75 18.55 5.8 18.45 5.85 17.4 6.25 17.65 3.35 17.7 3.3 18.3 2.7 M2.35 6.2 Q-0.6 5.1 0.8 2.55 L1.75 3.55 1.85 3.7 2.15 3.95 2.25 4.05 2.35 6.2" fill="#cd470d" fill-rule="evenodd" stroke="none"/>
      <path d="M4.95 0.4 L6.9 0.0 6.85 2.0 Q6.55 3.0 7.3 3.15 L11.05 3.25 12.95 3.1 13.15 0.3 13.35 0.3 Q16.1 0.2 18.75 1.8 L19.25 2.7 19.5 3.6 19.25 5.1 Q19.0 6.25 18.65 6.5 L16.1 7.4 9.95 7.85 Q4.55 7.85 1.85 6.3 0.0 5.25 0.0 4.05 0.0 2.6 0.95 1.8 L1.6 1.45 2.05 1.3 Q2.95 0.8 4.9 0.4 L4.95 0.45 4.95 0.4 M0.65 4.05 Q0.65 5.15 2.5 6.0 3.6 6.55 7.0 6.95 L7.05 7.05 9.95 7.1 12.15 7.05 13.1 7.0 16.25 6.55 Q17.5 6.2 17.9 5.85 L18.3 4.85 18.45 3.6 Q18.45 2.65 17.0 2.0 14.85 0.5 14.1 0.75 13.25 1.05 13.55 3.25 12.45 3.85 11.2 3.85 L7.3 3.55 6.35 3.1 Q5.95 1.35 6.55 0.5 L3.65 1.2 3.55 1.3 1.9 2.0 1.1 2.95 0.65 4.05" fill="#000000" fill-rule="evenodd" stroke="none"/>
      <path d="M1.35 2.3 Q1.75 2.15 1.75 2.6 L1.65 2.85 Q2.2 3.05 2.15 3.6 2.1 4.1 2.5 4.1 L3.4 4.5 Q3.9 4.9 4.4 4.9 L4.95 4.75 Q5.3 4.75 5.75 5.1 L6.35 5.5 6.55 5.25 Q6.65 5.1 6.9 5.1 7.3 5.1 7.55 5.35 L7.95 5.6 9.7 5.3 10.2 5.15 11.35 5.4 11.9 5.2 12.45 5.0 12.85 5.1 13.1 5.2 13.6 4.95 Q14.1 4.6 14.75 4.6 L14.85 4.25 16.25 4.05 16.3 3.7 17.05 3.5 18.3 2.25 Q18.8 2.25 18.8 2.9 L18.35 3.4 17.8 3.55 17.65 4.05 16.95 4.2 16.75 4.6 15.4 4.7 Q15.55 5.25 14.95 5.25 L14.4 5.1 Q13.85 5.1 13.8 5.4 L13.25 5.7 12.75 5.6 12.4 5.4 Q12.25 5.4 11.95 5.7 L11.0 5.9 10.2 5.7 10.1 5.8 9.8 5.9 9.35 5.8 8.15 6.0 7.75 6.0 7.05 5.5 6.8 5.5 Q6.8 5.95 6.45 5.95 5.95 5.95 4.95 5.15 4.7 5.15 4.7 5.3 L4.5 5.45 3.3 5.1 2.7 4.55 2.05 4.2 Q1.7 4.05 1.8 3.55 L1.1 3.3 0.95 2.95 Q0.95 2.5 1.35 2.3 M6.35 3.7 L6.7 4.1 6.4 4.35 Q5.95 4.35 5.95 3.95 5.95 3.65 6.35 3.7 M4.95 2.85 Q4.95 3.35 4.4 3.35 3.8 3.35 3.8 2.85 3.8 2.35 4.6 2.35 4.95 2.35 4.95 2.85 M16.0 2.35 Q16.0 2.75 15.4 2.75 L15.1 2.5 15.0 2.2 Q15.0 1.85 15.45 1.85 15.65 1.85 15.85 2.1 L16.0 2.35 M13.35 4.55 L13.1 4.3 Q13.1 3.95 13.35 4.05 L13.65 4.35 13.35 4.55" fill="#ff2626" fill-rule="evenodd" stroke="none"/>
    </g>
  </defs>
</svg>
