<?xml version="1.0" encoding="UTF-8" standalone="no"?>
<svg xmlns:ffdec="https://www.free-decompiler.com/flash" xmlns:xlink="http://www.w3.org/1999/xlink" ffdec:objectType="frame" height="46.9px" width="69.05px" xmlns="http://www.w3.org/2000/svg">
  <g transform="matrix(1.0, 0.0, 0.0, 1.0, 57.05, 15.45)">
    <use ffdec:characterId="4" height="54.05" transform="matrix(-0.633, 0.7741, 0.7741, 0.633, -47.5, -14.75)" width="15.0" xlink:href="#sprite0"/>
    <use ffdec:characterId="19" height="6.6" transform="matrix(1.0, 0.0, 0.0, 1.0, -10.3, 24.85)" width="9.05" xlink:href="#sprite1"/>
    <use ffdec:characterId="19" height="6.6" transform="matrix(-1.0, 0.0, 0.0, 1.0, 10.3, 24.85)" width="9.05" xlink:href="#sprite1"/>
    <use ffdec:characterId="6" height="7.05" transform="matrix(0.8714, 0.0, 0.0, 1.1206, -5.95, 20.15)" width="7.85" xlink:href="#sprite2"/>
    <use ffdec:characterId="6" height="7.05" transform="matrix(-0.8714, 0.0, 0.0, 1.1206, 5.85, 20.15)" width="7.85" xlink:href="#sprite2"/>
    <use ffdec:characterId="2" height="9.7" transform="matrix(0.9406, 0.0, 0.0, 0.9587, -5.75, 14.9)" width="6.5" xlink:href="#sprite3"/>
    <use ffdec:characterId="2" height="9.7" transform="matrix(-0.9406, 0.0, 0.0, 0.9587, 6.1, 14.9)" width="6.5" xlink:href="#sprite3"/>
    <use ffdec:characterId="8" height="9.8" transform="matrix(1.0, 0.0, 0.0, 1.0, -11.75, 14.45)" width="9.5" xlink:href="#sprite4"/>
    <use ffdec:characterId="8" height="9.8" transform="matrix(-1.0, 0.0, 0.0, 1.0, 11.9, 14.45)" width="9.5" xlink:href="#sprite4"/>
  </g>
  <defs>
    <g id="sprite0">
      <use ffdec:characterId="3" height="54.05" transform="matrix(1.0, 0.0, 0.0, 1.0, 0.0, 0.0)" width="15.0" xlink:href="#shape0"/>
    </g>
    <g id="shape0">
      <path d="M6.3 41.15 L6.65 41.05 7.6 41.05 7.9 41.2 7.95 41.35 7.65 52.9 7.55 53.0 Q7.05 53.65 6.3 53.5 L6.05 53.2 5.8 52.75 6.15 41.3 6.3 41.15" fill="#211912" fill-rule="evenodd" stroke="none"/>
      <path d="M6.95 52.95 L6.5 52.65 Q6.05 52.25 6.35 46.9 L6.85 39.95 Q7.45 41.75 7.4 46.15 L7.15 52.75 6.95 52.95" fill="#af7e4b" fill-rule="evenodd" stroke="none"/>
      <path d="M11.95 11.95 Q9.9 14.0 7.0 14.0 4.1 14.0 2.05 11.95 0.0 9.9 0.0 7.0 0.0 4.1 2.05 2.05 4.1 0.0 7.0 0.0 9.9 0.0 11.95 2.05 14.0 4.1 14.0 7.0 14.0 9.9 11.95 11.95" fill="#fd9bbe" fill-rule="evenodd" stroke="none"/>
      <path d="M11.95 11.95 Q9.9 14.0 7.0 14.0 4.1 14.0 2.05 11.95 0.0 9.9 0.0 7.0 0.0 4.1 2.05 2.05 4.1 0.0 7.0 0.0 9.9 0.0 11.95 2.05 14.0 4.1 14.0 7.0 14.0 9.9 11.95 11.95 Z" ffdec:has-small-stroke="true" ffdec:original-stroke-width="1.0" fill="none" stroke="#752b40" stroke-linecap="round" stroke-linejoin="round" stroke-width="1.0000070202670777"/>
      <path d="M11.95 25.85 Q9.9 27.9 7.0 27.9 4.1 27.9 2.05 25.85 0.0 23.8 0.0 20.9 0.0 18.0 2.05 15.95 4.1 13.9 7.0 13.9 9.9 13.9 11.95 15.95 14.0 18.0 14.0 20.9 14.0 23.8 11.95 25.85" fill="#e7ecee" fill-rule="evenodd" stroke="none"/>
      <path d="M11.95 25.85 Q9.9 27.9 7.0 27.9 4.1 27.9 2.05 25.85 0.0 23.8 0.0 20.9 0.0 18.0 2.05 15.95 4.1 13.9 7.0 13.9 9.9 13.9 11.95 15.95 14.0 18.0 14.0 20.9 14.0 23.8 11.95 25.85 Z" ffdec:has-small-stroke="true" ffdec:original-stroke-width="1.0" fill="none" stroke="#4d545a" stroke-linecap="round" stroke-linejoin="round" stroke-width="1.0000070202670777"/>
      <path d="M11.95 39.5 Q9.9 41.55 7.0 41.55 4.1 41.55 2.05 39.5 0.0 37.45 0.0 34.55 0.0 31.65 2.05 29.6 4.1 27.55 7.0 27.55 9.9 27.55 11.95 29.6 14.0 31.65 14.0 34.55 14.0 37.45 11.95 39.5" fill="#6f9254" fill-rule="evenodd" stroke="none"/>
      <path d="M11.95 39.5 Q9.9 41.55 7.0 41.55 4.1 41.55 2.05 39.5 0.0 37.45 0.0 34.55 0.0 31.65 2.05 29.6 4.1 27.55 7.0 27.55 9.9 27.55 11.95 29.6 14.0 31.65 14.0 34.55 14.0 37.45 11.95 39.5 Z" ffdec:has-small-stroke="true" ffdec:original-stroke-width="1.0" fill="none" stroke="#3d4e35" stroke-linecap="round" stroke-linejoin="round" stroke-width="1.0000070202670777"/>
      <path d="M4.65 1.55 L6.65 1.65 Q7.55 2.0 7.8 2.85 8.0 3.65 7.4 4.45 6.75 5.25 5.7 5.5 L3.7 5.45 Q2.8 5.05 2.6 4.25 2.35 3.4 2.95 2.65 3.6 1.85 4.65 1.55" fill="#ffd3e2" fill-rule="evenodd" stroke="none"/>
      <path d="M1.65 6.05 L1.2 7.45 Q0.6 4.25 2.85 2.5 5.0 0.7 7.5 0.9 10.0 1.05 11.35 2.85 7.95 1.15 5.25 2.25 L4.2 2.9 Q2.1 4.65 1.65 6.05" fill="#ffd3e2" fill-rule="evenodd" stroke="none"/>
      <path d="M9.6 12.0 Q7.4 12.9 5.95 12.8 4.45 12.65 4.45 12.0 4.45 11.6 5.4 10.7 6.2 9.9 6.75 9.65 9.55 8.05 11.5 8.05 13.15 8.05 12.85 8.85 11.75 11.1 9.6 12.0" fill="#ff77a7" fill-rule="evenodd" stroke="none"/>
      <path d="M12.3 4.4 L11.6 2.9 Q12.5 3.45 13.1 5.5 13.8 7.9 12.7 9.3 L9.8 9.85 Q8.1 10.45 7.1 11.55 6.1 12.6 5.0 12.5 3.85 12.4 2.9 11.65 1.9 10.85 1.25 9.2 L1.05 8.3 Q1.75 9.35 2.8 10.0 3.85 10.65 4.45 10.55 5.05 10.45 6.0 9.5 L7.75 8.0 Q8.6 7.45 10.0 7.25 11.4 7.1 11.9 6.5 L12.4 5.35 12.3 4.4" fill="#eb6c99" fill-rule="evenodd" stroke="none"/>
      <path d="M4.65 15.5 L6.65 15.6 Q7.55 15.95 7.8 16.8 8.0 17.6 7.4 18.4 6.75 19.2 5.7 19.45 L3.7 19.4 Q2.8 19.0 2.6 18.2 2.35 17.35 2.95 16.6 3.6 15.8 4.65 15.5" fill="#ffffff" fill-rule="evenodd" stroke="none"/>
      <path d="M1.65 20.0 L1.2 21.4 Q0.6 18.2 2.85 16.45 5.0 14.65 7.5 14.85 10.0 15.0 11.35 16.8 7.95 15.1 5.25 16.2 L4.2 16.85 Q2.1 18.6 1.65 20.0" fill="#ffffff" fill-rule="evenodd" stroke="none"/>
      <path d="M9.6 25.95 Q7.4 26.85 5.95 26.75 4.45 26.6 4.45 25.95 4.45 25.55 5.4 24.65 6.2 23.85 6.75 23.6 9.55 22.0 11.5 22.0 13.15 22.0 12.85 22.8 11.75 25.05 9.6 25.95" fill="#c8cbc2" fill-rule="evenodd" stroke="none"/>
      <path d="M12.3 18.35 L11.6 16.85 Q12.5 17.4 13.1 19.45 13.8 21.85 12.7 23.25 L9.8 23.8 Q8.1 24.4 7.1 25.5 6.1 26.55 5.0 26.45 3.85 26.35 2.9 25.6 1.9 24.8 1.25 23.15 L1.05 22.25 Q1.75 23.3 2.8 23.95 3.85 24.6 4.45 24.5 5.05 24.4 6.0 23.45 L7.75 21.95 Q8.6 21.4 10.0 21.2 11.4 21.05 11.9 20.45 L12.4 19.3 12.3 18.35" fill="#cbc1c3" fill-rule="evenodd" stroke="none"/>
      <path d="M4.65 29.1 L6.65 29.2 Q7.55 29.55 7.8 30.4 8.0 31.2 7.4 32.0 6.75 32.8 5.7 33.05 L3.7 33.0 Q2.8 32.6 2.6 31.8 2.35 30.95 2.95 30.2 3.6 29.4 4.65 29.1" fill="#d3dfc3" fill-rule="evenodd" stroke="none"/>
      <path d="M1.65 33.6 L1.2 35.0 Q0.6 31.8 2.85 30.05 5.0 28.25 7.5 28.45 10.0 28.6 11.35 30.4 7.95 28.7 5.25 29.8 L4.2 30.45 Q2.1 32.2 1.65 33.6" fill="#d3dfc3" fill-rule="evenodd" stroke="none"/>
      <path d="M9.6 39.55 Q7.4 40.45 5.95 40.35 4.45 40.2 4.45 39.55 4.45 39.15 5.4 38.25 6.2 37.45 6.75 37.2 9.55 35.6 11.5 35.6 13.15 35.6 12.85 36.4 11.75 38.65 9.6 39.55" fill="#5a7a5b" fill-rule="evenodd" stroke="none"/>
      <path d="M12.3 31.95 L11.6 30.45 Q12.5 31.0 13.1 33.05 13.8 35.45 12.7 36.85 L9.8 37.4 Q8.1 38.0 7.1 39.1 6.1 40.15 5.0 40.05 3.85 39.95 2.9 39.2 1.9 38.4 1.25 36.75 L1.05 35.85 Q1.75 36.9 2.8 37.55 3.85 38.2 4.45 38.1 5.05 38.0 6.0 37.05 L7.75 35.55 Q8.6 35.0 10.0 34.8 11.4 34.65 11.9 34.05 L12.4 32.9 12.3 31.95" fill="#547764" fill-rule="evenodd" stroke="none"/>
    </g>
    <g id="sprite1">
      <use ffdec:characterId="18" height="6.6" transform="matrix(1.0, 0.0, 0.0, 1.0, 0.0, 0.0)" width="9.05" xlink:href="#shape1"/>
    </g>
    <g id="shape1">
      <path d="M9.05 2.35 L9.0 3.35 8.7 3.85 7.95 4.05 7.25 4.75 Q6.7 6.05 4.65 6.5 2.55 6.9 0.5 5.85 L0.05 4.75 Q-0.25 4.0 0.7 2.9 L2.3 1.4 3.0 1.0 Q3.75 -0.1 4.45 0.0 5.25 0.0 5.55 0.3 L6.7 0.45 7.1 0.9 7.55 1.25 8.45 1.2 Q8.95 1.25 9.05 1.75 L9.05 2.35" fill="#000000" fill-rule="evenodd" stroke="none"/>
      <path d="M8.65 2.55 Q7.95 2.35 6.95 2.95 L6.25 4.05 Q3.75 5.0 1.15 4.15 L0.7 3.85 Q1.7 2.3 3.5 1.65 L3.3 2.9 Q8.6 1.1 8.3 2.25 L8.65 2.55" fill="#5f626c" fill-rule="evenodd" stroke="none"/>
      <path d="M0.7 3.95 Q1.35 3.0 1.95 2.65 L2.5 2.4 2.6 3.4 Q2.65 4.2 3.9 4.05 L6.35 3.9 Q3.3 4.8 1.85 4.3 L0.7 3.95" fill="#b1b3bb" fill-rule="evenodd" stroke="none"/>
    </g>
    <g id="sprite2">
      <use ffdec:characterId="5" height="7.05" transform="matrix(1.0, 0.0, 0.0, 1.0, 0.0, 0.0)" width="7.85" xlink:href="#shape2"/>
    </g>
    <g id="shape2">
      <path d="M6.95 0.55 L7.3 2.95 7.0 3.35 6.3 3.85 5.85 4.9 Q5.4 6.65 4.6 6.65 0.1 5.75 0.1 5.45 0.1 5.1 2.05 2.7 2.6 2.0 3.15 0.5 3.35 0.0 4.75 0.0 L6.2 0.05 Q6.9 0.15 6.95 0.55 M4.15 5.85 L4.4 5.0 5.15 3.6 Q5.15 3.05 4.15 2.85 3.15 2.65 2.7 3.55 L1.55 5.25 2.45 5.8 3.6 6.25 4.15 5.85" fill="#282855" fill-rule="evenodd" stroke="none"/>
      <path d="M4.15 5.85 L3.6 6.25 2.45 5.8 1.55 5.25 2.7 3.55 Q3.15 2.65 4.15 2.85 5.15 3.05 5.15 3.6 L4.4 5.0 4.15 5.85" fill="#4e4edf" fill-rule="evenodd" stroke="none"/>
      <path d="M2.9 0.55 L3.25 0.15 3.45 0.35 Q3.45 1.25 2.45 3.0 L0.75 5.25 2.4 5.95 4.65 6.45 5.25 5.7 5.75 4.5 Q5.95 3.6 6.35 3.35 6.7 3.05 7.55 3.05 L7.8 3.25 7.85 3.4 Q7.85 3.6 7.25 3.6 6.6 3.55 6.45 4.1 L6.1 5.2 5.55 6.25 5.45 6.7 Q5.25 7.05 4.7 7.05 L1.7 6.35 Q0.0 5.7 0.0 5.35 L0.85 4.25 1.95 2.55 2.6 1.3 2.9 0.55" fill="#12121a" fill-rule="evenodd" stroke="none"/>
    </g>
    <g id="sprite3">
      <use ffdec:characterId="1" height="9.7" transform="matrix(1.0, 0.0, 0.0, 1.0, 0.0, 0.0)" width="6.5" xlink:href="#shape3"/>
    </g>
    <g id="shape3">
      <path d="M6.45 2.1 L6.45 6.85 6.15 9.55 0.0 9.7 1.45 7.95 Q1.9 7.25 1.9 6.2 L2.0 3.1 Q2.1 1.1 2.75 0.4 L4.6 0.3 Q5.75 0.85 6.45 2.1" fill="#1f2644" fill-rule="evenodd" stroke="none"/>
      <path d="M4.05 0.8 Q5.55 1.2 5.55 1.85 L5.75 3.1 6.1 7.5 Q6.0 9.4 4.4 9.2 L1.4 9.15 Q2.2 8.65 2.45 7.1 2.65 5.5 2.2 4.4 1.75 3.3 2.1 1.55 2.45 -0.25 4.05 0.8" fill="#499fca" fill-rule="evenodd" stroke="none"/>
      <path d="M2.9 4.15 L5.0 4.6 5.0 8.8 2.4 8.9 Q3.05 7.15 2.9 4.15" fill="#8fd7fb" fill-rule="evenodd" stroke="none"/>
    </g>
    <g id="sprite4">
      <use ffdec:characterId="7" height="9.8" transform="matrix(1.0, 0.0, 0.0, 1.0, 0.0, 0.0)" width="9.5" xlink:href="#shape4"/>
    </g>
    <g id="shape4">
      <path d="M9.35 3.55 L9.2 4.3 5.7 8.25 4.4 9.55 Q3.15 9.1 1.8 8.05 L0.4 6.95 Q0.65 5.45 2.05 4.35 L3.8 3.15 Q5.3 2.05 6.8 1.25 L7.7 0.7 8.95 1.0 Q9.6 2.3 9.35 3.55" fill="#499fca" fill-rule="evenodd" stroke="none"/>
      <path d="M9.2 0.55 L7.5 1.0 6.65 1.5 Q5.25 2.25 3.85 3.25 L2.25 4.4 Q0.95 5.4 0.7 6.8 L2.0 7.85 Q3.25 8.8 4.45 9.25 L5.65 8.0 8.55 4.7 8.55 5.4 Q7.1 6.9 5.8 8.55 L4.35 10.05 Q2.9 9.5 1.45 8.4 L-0.1 7.15 Q0.15 5.5 1.7 4.3 L3.65 2.9 6.95 0.85 8.0 0.25 9.2 0.55" fill="#1f2644" fill-rule="evenodd" stroke="none"/>
      <path d="M5.85 3.4 Q6.25 3.7 7.65 4.0 5.75 5.0 4.4 6.5 L3.15 7.65 2.2 7.45 1.2 6.65 Q2.05 5.3 3.15 4.55 L5.35 2.9 5.85 3.4" fill="#b2e5ff" fill-rule="evenodd" stroke="none"/>
    </g>
  </defs>
</svg>
