<?xml version="1.0" encoding="UTF-8" standalone="no"?>
<svg xmlns:ffdec="https://www.free-decompiler.com/flash" xmlns:xlink="http://www.w3.org/1999/xlink" ffdec:objectType="frame" height="48.4px" width="71.75px" xmlns="http://www.w3.org/2000/svg">
  <g transform="matrix(1.0, 0.0, 0.0, 1.0, 59.75, 16.95)">
    <use ffdec:characterId="4" height="56.95" transform="matrix(-0.633, 0.7741, 0.7741, 0.633, -47.5, -14.75)" width="15.3" xlink:href="#sprite0"/>
    <use ffdec:characterId="19" height="6.6" transform="matrix(1.0, 0.0, 0.0, 1.0, -10.3, 24.85)" width="9.05" xlink:href="#sprite1"/>
    <use ffdec:characterId="19" height="6.6" transform="matrix(-1.0, 0.0, 0.0, 1.0, 10.3, 24.85)" width="9.05" xlink:href="#sprite1"/>
    <use ffdec:characterId="6" height="7.05" transform="matrix(0.8714, 0.0, 0.0, 1.1206, -5.95, 20.15)" width="7.85" xlink:href="#sprite2"/>
    <use ffdec:characterId="6" height="7.05" transform="matrix(-0.8714, 0.0, 0.0, 1.1206, 5.85, 20.15)" width="7.85" xlink:href="#sprite2"/>
    <use ffdec:characterId="2" height="9.7" transform="matrix(0.9406, 0.0, 0.0, 0.9587, -5.75, 14.9)" width="6.5" xlink:href="#sprite3"/>
    <use ffdec:characterId="2" height="9.7" transform="matrix(-0.9406, 0.0, 0.0, 0.9587, 6.1, 14.9)" width="6.5" xlink:href="#sprite3"/>
    <use ffdec:characterId="8" height="9.8" transform="matrix(1.0, 0.0, 0.0, 1.0, -11.75, 14.45)" width="9.5" xlink:href="#sprite4"/>
    <use ffdec:characterId="8" height="9.8" transform="matrix(-1.0, 0.0, 0.0, 1.0, 11.9, 14.45)" width="9.5" xlink:href="#sprite4"/>
  </g>
  <defs>
    <g id="sprite0">
      <use ffdec:characterId="3" height="56.95" transform="matrix(1.0, 0.0, 0.0, 1.0, 0.0, 0.0)" width="15.3" xlink:href="#shape0"/>
    </g>
    <g id="shape0">
      <path d="M6.3 41.15 L6.65 41.05 7.6 41.05 7.9 41.2 7.95 41.35 7.65 52.9 7.55 53.0 Q7.05 53.65 6.3 53.5 L6.05 53.2 5.8 52.75 6.15 41.3 6.3 41.15" fill="#211912" fill-rule="evenodd" stroke="none"/>
      <path d="M6.95 52.95 L6.5 52.65 Q6.05 52.25 6.35 46.9 L6.85 39.95 Q7.45 41.75 7.4 46.15 L7.15 52.75 6.95 52.95" fill="#af7e4b" fill-rule="evenodd" stroke="none"/>
      <path d="M12.55 24.0 Q10.5 26.05 7.6 26.05 4.7 26.05 2.65 24.0 0.6 21.95 0.6 19.05 0.6 16.15 2.65 14.1 4.7 12.05 7.6 12.05 10.5 12.05 12.55 14.1 14.6 16.15 14.6 19.05 14.6 21.95 12.55 24.0" fill="#efdaa7" fill-rule="evenodd" stroke="none"/>
      <path d="M12.55 24.0 Q10.5 26.05 7.6 26.05 4.7 26.05 2.65 24.0 0.6 21.95 0.6 19.05 0.6 16.15 2.65 14.1 4.7 12.05 7.6 12.05 10.5 12.05 12.55 14.1 14.6 16.15 14.6 19.05 14.6 21.95 12.55 24.0 Z" ffdec:has-small-stroke="true" ffdec:original-stroke-width="1.0" fill="none" stroke="#cc9900" stroke-linecap="round" stroke-linejoin="round" stroke-width="1.0000070202670777"/>
      <path d="M5.25 13.6 L7.25 13.7 Q8.15 14.05 8.4 14.9 8.6 15.7 8.0 16.5 7.35 17.3 6.3 17.55 L4.3 17.5 Q3.4 17.1 3.2 16.3 2.95 15.45 3.55 14.7 4.2 13.9 5.25 13.6" fill="#fffae2" fill-rule="evenodd" stroke="none"/>
      <path d="M2.25 18.1 L1.8 19.5 Q1.2 16.3 3.45 14.55 5.6 12.75 8.1 12.95 10.6 13.1 11.95 14.9 8.55 13.2 5.85 14.3 5.3 14.55 4.8 14.95 2.7 16.7 2.25 18.1" fill="#fffae2" fill-rule="evenodd" stroke="none"/>
      <path d="M10.2 24.05 Q8.0 24.95 6.55 24.85 5.05 24.7 5.05 24.05 5.05 23.65 6.0 22.75 6.8 21.95 7.35 21.7 10.15 20.1 12.1 20.1 13.75 20.1 13.45 20.9 12.35 23.15 10.2 24.05" fill="#ddc198" fill-rule="evenodd" stroke="none"/>
      <path d="M12.9 16.45 L12.2 14.95 Q13.1 15.5 13.7 17.55 14.4 19.95 13.3 21.35 L10.4 21.9 Q8.7 22.5 7.7 23.6 6.7 24.65 5.6 24.55 4.45 24.45 3.5 23.7 2.5 22.9 1.85 21.25 L1.65 20.35 Q2.35 21.4 3.4 22.05 4.45 22.7 5.05 22.6 L6.6 21.55 8.35 20.05 Q9.2 19.5 10.6 19.3 12.0 19.15 12.5 18.55 L13.0 17.4 12.9 16.45" fill="#ddc198" fill-rule="evenodd" stroke="none"/>
      <path d="M12.65 38.9 Q10.6 40.95 7.7 40.95 4.8 40.95 2.75 38.9 0.7 36.85 0.7 33.95 0.7 31.05 2.75 29.0 4.8 26.95 7.7 26.95 10.6 26.95 12.65 29.0 14.7 31.05 14.7 33.95 14.7 36.85 12.65 38.9" fill="#fd9bbe" fill-rule="evenodd" stroke="none"/>
      <path d="M12.65 38.9 Q10.6 40.95 7.7 40.95 4.8 40.95 2.75 38.9 0.7 36.85 0.7 33.95 0.7 31.05 2.75 29.0 4.8 26.95 7.7 26.95 10.6 26.95 12.65 29.0 14.7 31.05 14.7 33.95 14.7 36.85 12.65 38.9 Z" ffdec:has-small-stroke="true" ffdec:original-stroke-width="1.0" fill="none" stroke="#752b40" stroke-linecap="round" stroke-linejoin="round" stroke-width="1.0000070202670777"/>
      <path d="M5.35 28.5 L7.35 28.6 Q8.25 28.95 8.5 29.8 8.7 30.6 8.1 31.4 7.45 32.2 6.4 32.45 L4.4 32.4 Q3.5 32.0 3.3 31.2 3.05 30.35 3.65 29.6 4.3 28.8 5.35 28.5" fill="#ffd3e2" fill-rule="evenodd" stroke="none"/>
      <path d="M2.35 33.0 L1.9 34.4 Q1.3 31.2 3.55 29.45 5.7 27.65 8.2 27.85 10.7 28.0 12.05 29.8 8.65 28.1 5.95 29.2 5.4 29.45 4.9 29.85 2.8 31.6 2.35 33.0" fill="#ffd3e2" fill-rule="evenodd" stroke="none"/>
      <path d="M10.3 38.95 Q8.1 39.85 6.65 39.75 5.15 39.6 5.15 38.95 5.15 38.55 6.1 37.65 6.9 36.85 7.45 36.6 10.25 35.0 12.2 35.0 13.85 35.0 13.55 35.8 12.45 38.05 10.3 38.95" fill="#ff77a7" fill-rule="evenodd" stroke="none"/>
      <path d="M13.0 31.35 L12.3 29.85 Q13.2 30.4 13.8 32.45 14.5 34.85 13.4 36.25 L10.5 36.8 Q8.8 37.4 7.8 38.5 6.8 39.55 5.7 39.45 4.55 39.35 3.6 38.6 2.6 37.8 1.95 36.15 L1.75 35.25 Q2.45 36.3 3.5 36.95 4.55 37.6 5.15 37.5 L6.7 36.45 Q7.65 35.45 8.45 34.95 9.3 34.4 10.7 34.2 12.1 34.05 12.6 33.45 L13.1 32.3 13.0 31.35" fill="#eb6c99" fill-rule="evenodd" stroke="none"/>
      <path d="M12.35 9.05 Q10.3 11.1 7.4 11.1 4.5 11.1 2.45 9.05 0.4 7.0 0.4 4.1 0.4 1.2 2.45 -0.85 4.5 -2.9 7.4 -2.9 10.3 -2.9 12.35 -0.85 14.4 1.2 14.4 4.1 14.4 7.0 12.35 9.05" fill="#e7ecee" fill-rule="evenodd" stroke="none"/>
      <path d="M12.35 9.05 Q10.3 11.1 7.4 11.1 4.5 11.1 2.45 9.05 0.4 7.0 0.4 4.1 0.4 1.2 2.45 -0.85 4.5 -2.9 7.4 -2.9 10.3 -2.9 12.35 -0.85 14.4 1.2 14.4 4.1 14.4 7.0 12.35 9.05 Z" ffdec:has-small-stroke="true" ffdec:original-stroke-width="1.0" fill="none" stroke="#4d545a" stroke-linecap="round" stroke-linejoin="round" stroke-width="1.0000070202670777"/>
      <path d="M5.05 -1.3 L7.05 -1.2 Q7.95 -0.85 8.2 0.0 8.4 0.8 7.8 1.6 7.15 2.4 6.1 2.65 L4.1 2.6 Q3.2 2.2 3.0 1.4 2.75 0.55 3.35 -0.2 L5.05 -1.3" fill="#ffffff" fill-rule="evenodd" stroke="none"/>
      <path d="M2.05 3.2 L1.6 4.6 Q1.0 1.4 3.25 -0.35 5.4 -2.15 7.9 -1.95 10.4 -1.8 11.75 0.0 8.35 -1.7 5.65 -0.6 L4.6 0.05 Q2.5 1.8 2.05 3.2" fill="#ffffff" fill-rule="evenodd" stroke="none"/>
      <path d="M10.0 9.15 Q7.8 10.05 6.35 9.95 4.85 9.8 4.85 9.15 4.85 8.75 5.8 7.85 L7.15 6.8 Q9.95 5.2 11.9 5.2 13.55 5.2 13.25 6.0 12.15 8.25 10.0 9.15" fill="#c8cbc2" fill-rule="evenodd" stroke="none"/>
      <path d="M12.7 1.55 L12.0 0.05 Q12.9 0.6 13.5 2.65 14.2 5.05 13.1 6.45 L10.2 7.0 Q8.5 7.6 7.5 8.7 6.5 9.75 5.4 9.65 4.25 9.55 3.3 8.8 2.3 8.0 1.65 6.35 L1.45 5.45 Q2.15 6.5 3.2 7.15 4.25 7.8 4.85 7.7 L6.4 6.65 Q7.35 5.65 8.15 5.15 9.0 4.6 10.4 4.4 11.8 4.25 12.3 3.65 L12.8 2.5 12.7 1.55" fill="#cbc1c3" fill-rule="evenodd" stroke="none"/>
    </g>
    <g id="sprite1">
      <use ffdec:characterId="18" height="6.6" transform="matrix(1.0, 0.0, 0.0, 1.0, 0.0, 0.0)" width="9.05" xlink:href="#shape1"/>
    </g>
    <g id="shape1">
      <path d="M9.05 1.75 L9.05 2.35 9.0 3.35 8.7 3.85 7.95 4.05 7.25 4.75 Q6.7 6.05 4.65 6.5 2.55 6.9 0.5 5.85 L0.05 4.75 Q-0.25 4.0 0.7 2.9 L2.3 1.4 3.0 1.0 Q3.75 -0.1 4.45 0.0 5.25 0.0 5.55 0.3 L6.7 0.45 7.1 0.9 7.55 1.25 8.45 1.2 Q8.95 1.25 9.05 1.75" fill="#000000" fill-rule="evenodd" stroke="none"/>
      <path d="M8.65 2.55 Q7.95 2.35 6.95 2.95 L6.25 4.05 Q3.75 5.0 1.15 4.15 L0.7 3.85 Q1.7 2.3 3.5 1.65 L3.3 2.9 Q8.6 1.1 8.3 2.25 L8.65 2.55" fill="#5f626c" fill-rule="evenodd" stroke="none"/>
      <path d="M0.7 3.95 Q1.35 3.0 1.95 2.65 L2.5 2.4 2.6 3.4 Q2.65 4.2 3.9 4.05 L6.35 3.9 Q3.3 4.8 1.85 4.3 L0.7 3.95" fill="#b1b3bb" fill-rule="evenodd" stroke="none"/>
    </g>
    <g id="sprite2">
      <use ffdec:characterId="5" height="7.05" transform="matrix(1.0, 0.0, 0.0, 1.0, 0.0, 0.0)" width="7.85" xlink:href="#shape2"/>
    </g>
    <g id="shape2">
      <path d="M6.95 0.55 L7.3 2.95 7.0 3.35 6.3 3.85 5.85 4.9 Q5.4 6.65 4.6 6.65 0.1 5.75 0.1 5.45 0.1 5.1 2.05 2.7 2.6 2.0 3.15 0.5 3.35 0.0 4.75 0.0 L6.2 0.05 Q6.9 0.15 6.95 0.55 M4.15 5.85 L4.4 5.0 5.15 3.6 Q5.15 3.05 4.15 2.85 3.15 2.65 2.7 3.55 L1.55 5.25 2.45 5.8 3.6 6.25 4.15 5.85" fill="#666666" fill-rule="evenodd" stroke="none"/>
      <path d="M4.15 5.85 L3.6 6.25 2.45 5.8 1.55 5.25 2.7 3.55 Q3.15 2.65 4.15 2.85 5.15 3.05 5.15 3.6 L4.4 5.0 4.15 5.85" fill="#999999" fill-rule="evenodd" stroke="none"/>
      <path d="M2.9 0.55 L3.25 0.15 3.45 0.35 Q3.45 1.25 2.45 3.0 L0.75 5.25 2.4 5.95 4.65 6.45 5.25 5.7 5.75 4.5 Q5.95 3.6 6.35 3.35 6.7 3.05 7.55 3.05 L7.8 3.25 7.85 3.4 Q7.85 3.6 7.25 3.6 6.6 3.55 6.45 4.1 L6.1 5.2 5.55 6.25 5.45 6.7 Q5.25 7.05 4.7 7.05 L1.7 6.35 Q0.0 5.7 0.0 5.35 L0.85 4.25 1.95 2.55 2.6 1.3 2.9 0.55" fill="#12121a" fill-rule="evenodd" stroke="none"/>
    </g>
    <g id="sprite3">
      <use ffdec:characterId="1" height="9.7" transform="matrix(1.0, 0.0, 0.0, 1.0, 0.0, 0.0)" width="6.5" xlink:href="#shape3"/>
    </g>
    <g id="shape3">
      <path d="M2.75 0.4 L4.6 0.3 Q5.75 0.85 6.45 2.1 L6.45 6.85 6.15 9.55 0.0 9.7 1.45 7.95 Q1.9 7.25 1.9 6.2 L2.0 3.1 Q2.1 1.1 2.75 0.4" fill="#330000" fill-rule="evenodd" stroke="none"/>
      <path d="M4.05 0.8 Q5.55 1.2 5.55 1.85 L5.75 3.1 6.1 7.5 Q6.0 9.4 4.4 9.2 L1.4 9.15 Q2.2 8.65 2.45 7.1 2.65 5.5 2.2 4.4 1.75 3.3 2.1 1.55 2.45 -0.25 4.05 0.8" fill="#660000" fill-rule="evenodd" stroke="none"/>
      <path d="M2.9 4.15 L5.0 4.6 5.0 8.8 2.4 8.9 Q3.05 7.15 2.9 4.15" fill="#990000" fill-rule="evenodd" stroke="none"/>
    </g>
    <g id="sprite4">
      <use ffdec:characterId="7" height="9.8" transform="matrix(1.0, 0.0, 0.0, 1.0, 0.0, 0.0)" width="9.5" xlink:href="#shape4"/>
    </g>
    <g id="shape4">
      <path d="M9.35 3.55 L9.2 4.3 5.7 8.25 4.4 9.55 Q3.15 9.1 1.8 8.05 L0.4 6.95 Q0.65 5.45 2.05 4.35 L3.8 3.15 Q5.3 2.05 6.8 1.25 L7.7 0.7 8.95 1.0 Q9.6 2.3 9.35 3.55" fill="#660000" fill-rule="evenodd" stroke="none"/>
      <path d="M9.2 0.55 L7.5 1.0 6.65 1.5 Q5.25 2.25 3.85 3.25 L2.25 4.4 Q0.95 5.4 0.7 6.8 L2.0 7.85 Q3.25 8.8 4.45 9.25 L5.65 8.0 8.55 4.7 8.55 5.4 Q7.1 6.9 5.8 8.55 L4.35 10.05 Q2.9 9.5 1.45 8.4 L-0.1 7.15 Q0.15 5.5 1.7 4.3 L3.65 2.9 6.95 0.85 8.0 0.25 9.2 0.55" fill="#330000" fill-rule="evenodd" stroke="none"/>
      <path d="M5.85 3.4 Q6.25 3.7 7.65 4.0 5.75 5.0 4.4 6.5 L3.15 7.65 2.2 7.45 1.2 6.65 Q2.05 5.3 3.15 4.55 L5.35 2.9 5.85 3.4" fill="#990000" fill-rule="evenodd" stroke="none"/>
    </g>
  </defs>
</svg>
