<?xml version="1.0" encoding="UTF-8" standalone="no"?>
<svg xmlns:ffdec="https://www.free-decompiler.com/flash" xmlns:xlink="http://www.w3.org/1999/xlink" ffdec:objectType="frame" height="39.9px" width="59.6px" xmlns="http://www.w3.org/2000/svg">
  <g transform="matrix(1.0, 0.0, 0.0, 1.0, 49.5, -7.95)">
    <use ffdec:characterId="2" height="9.2" transform="matrix(1.5234, 0.5442, 0.0, 1.0, -28.95, 7.95)" width="12.65" xlink:href="#sprite0"/>
    <use ffdec:characterId="4" height="7.5" transform="matrix(1.0, 0.0, 0.0, 1.0, -32.2, 11.55)" width="9.15" xlink:href="#sprite1"/>
    <use ffdec:characterId="6" height="9.55" transform="matrix(1.0, 0.0, 0.0, 1.0, -10.5, 14.7)" width="7.9" xlink:href="#sprite2"/>
    <use ffdec:characterId="6" height="9.55" transform="matrix(-1.0, 0.0, 0.0, 1.0, 10.1, 14.7)" width="7.9" xlink:href="#sprite2"/>
    <use ffdec:characterId="8" height="11.9" transform="matrix(1.0, 0.0, 0.0336, 1.0, -5.2, 14.45)" width="8.9" xlink:href="#sprite3"/>
    <use ffdec:characterId="28" height="5.0" transform="matrix(1.0, 0.0, 0.0, 1.0, 1.6, 26.8)" width="7.2" xlink:href="#sprite4"/>
    <use ffdec:characterId="28" height="5.0" transform="matrix(-1.0, 0.0, 0.0, 1.0, -1.9, 26.8)" width="7.2" xlink:href="#sprite4"/>
    <use ffdec:characterId="40" height="37.65" transform="matrix(1.0, 0.0, 0.0, 1.0, -41.3, 16.5)" width="45.6" xlink:href="#sprite5"/>
  </g>
  <defs>
    <g id="sprite0">
      <use ffdec:characterId="1" height="9.2" transform="matrix(1.0, 0.0, 0.0, 1.0, 0.0, 0.0)" width="12.65" xlink:href="#shape0"/>
    </g>
    <g id="shape0">
      <path d="M4.85 6.5 Q0.3 4.4 0.05 3.25 -0.2 2.05 0.9 0.45 2.0 -1.2 7.8 3.15 13.55 7.45 12.5 8.5 11.45 9.5 10.4 9.05 L4.85 6.5" fill="#000000" fill-rule="evenodd" stroke="none"/>
      <path d="M4.0 3.6 L2.2 2.35 2.45 1.35 3.1 1.25 8.1 4.55 Q9.95 5.75 11.2 7.5 L11.25 7.7 Q10.2 7.7 7.65 6.05 L4.0 3.6" fill="#6b6969" fill-rule="evenodd" stroke="none"/>
    </g>
    <g id="sprite1">
      <use ffdec:characterId="3" height="7.5" transform="matrix(1.0, 0.0, 0.0, 1.0, 0.0, 0.0)" width="9.15" xlink:href="#shape1"/>
    </g>
    <g id="shape1">
      <path d="M0.0 7.35 Q0.6 3.15 3.55 0.2 L4.05 0.0 Q7.5 2.9 9.15 6.8 L8.9 7.3 4.1 0.8 0.05 7.5 0.0 7.35" fill="#222222" fill-rule="evenodd" stroke="none"/>
    </g>
    <g id="sprite2">
      <use ffdec:characterId="5" height="9.55" transform="matrix(1.0, 0.0, 0.0, 1.0, 0.0, 0.0)" width="7.9" xlink:href="#shape2"/>
    </g>
    <g id="shape2">
      <path d="M7.65 0.0 Q8.2 3.05 7.55 4.6 L6.3 7.25 4.3 9.5 2.45 7.5 Q1.15 6.3 0.4 4.5 1.3 3.25 3.55 2.15 L6.4 0.55 Q6.95 0.1 7.65 0.0" fill="#a5a2a2" fill-rule="evenodd" stroke="none"/>
      <path d="M7.45 0.0 L7.5 0.15 3.65 2.2 Q3.2 2.4 2.05 3.2 0.7 4.1 0.7 4.45 L1.9 6.8 3.1 8.0 4.2 9.05 Q4.9 9.05 5.9 7.75 L6.9 6.0 Q7.7 4.5 7.85 2.75 L7.9 2.75 7.9 3.6 7.7 5.1 Q7.4 6.45 6.25 8.0 5.15 9.55 4.15 9.55 L2.5 8.3 1.7 7.6 1.25 7.0 0.0 4.35 Q0.0 3.95 1.45 2.9 L3.0 1.9 7.05 0.0 7.45 0.0" fill="#292929" fill-rule="evenodd" stroke="none"/>
      <path d="M5.4 4.5 Q4.0 6.7 3.45 6.75 2.75 6.85 2.1 5.95 1.55 5.15 1.65 4.65 1.75 4.05 4.4 2.5 6.95 1.05 6.7 2.05 L5.4 4.5" fill="#ffffff" fill-rule="evenodd" stroke="none"/>
    </g>
    <g id="sprite3">
      <use ffdec:characterId="7" height="11.9" transform="matrix(1.0, 0.0, 0.0, 1.0, 0.0, 0.0)" width="8.9" xlink:href="#shape3"/>
    </g>
    <g id="shape3">
      <path d="M6.55 1.15 L7.35 0.2 7.45 0.25 8.4 6.3 Q8.4 7.3 7.45 7.3 L2.1 6.95 Q0.9 6.95 0.75 6.15 L1.95 0.5 3.1 0.6 Q4.05 2.4 5.15 2.4 L6.55 1.15" fill="#ffffff" fill-rule="evenodd" stroke="none"/>
      <path d="M7.8 6.5 L8.25 8.7 8.45 9.65 8.5 9.8 7.9 10.15 2.8 10.7 Q0.4 10.7 0.35 9.8 L0.35 9.55 0.35 9.45 1.2 6.8 Q1.9 5.85 3.8 5.75 6.15 5.6 7.55 6.4 L7.8 6.5" fill="#131111" fill-rule="evenodd" stroke="none"/>
      <path d="M8.45 9.55 L8.6 10.3 7.1 10.85 3.7 11.4 Q2.15 11.4 1.35 10.9 L0.25 10.5 Q0.15 9.7 0.65 9.8 L1.6 10.1 2.7 10.35 6.3 9.85 8.45 9.55" fill="#ffffff" fill-rule="evenodd" stroke="none"/>
      <path d="M4.7 2.95 Q3.65 2.95 2.4 0.4 2.35 -0.55 3.75 0.85 L5.15 2.45 Q5.15 2.95 4.7 2.95" fill="#5b5b5b" fill-rule="evenodd" stroke="none"/>
      <path d="M7.75 0.45 L5.95 2.75 2.5 6.0 Q0.8 7.2 0.9 5.8 L5.85 1.3 Q7.7 -0.75 7.75 0.45" fill="#5b5b5b" fill-rule="evenodd" stroke="none"/>
      <path d="M1.35 3.4 L1.0 5.6 0.9 5.85 1.45 6.65 1.15 6.95 Q0.85 6.95 0.4 5.9 L0.8 4.5 1.2 3.15 1.3 3.15 1.35 3.4" fill="#413f3f" fill-rule="evenodd" stroke="none"/>
      <path d="M1.35 6.7 L0.45 9.95 0.45 10.2 1.85 10.9 3.6 11.3 6.25 10.85 7.5 10.45 8.4 10.15 8.6 10.2 8.65 10.3 Q8.65 10.7 7.15 11.3 L4.05 11.9 2.8 11.7 1.85 11.35 0.6 10.65 0.25 10.75 Q0.0 10.75 0.0 10.3 0.0 9.65 0.5 8.3 L1.25 6.65 1.35 6.7" fill="#000000" fill-rule="evenodd" stroke="none"/>
      <path d="M8.45 8.7 L8.85 10.2 8.65 10.45 Q8.3 10.45 8.05 8.95 L7.75 7.0 7.85 7.0 8.45 8.7" fill="#000000" fill-rule="evenodd" stroke="none"/>
      <path d="M7.95 3.4 L8.3 5.6 8.4 5.85 7.75 6.85 Q7.85 7.65 8.15 7.3 L8.9 5.9 8.5 4.5 8.1 3.15 8.0 3.15 7.95 3.4" fill="#413f3f" fill-rule="evenodd" stroke="none"/>
      <path d="M3.05 7.65 L3.15 9.45 2.45 9.7 0.95 9.1 2.05 6.9 5.55 6.95 5.55 8.25 5.6 8.45 6.3 8.6 6.9 8.45 7.2 6.75 7.6 8.85 6.35 9.5 4.65 9.55 4.35 7.4 3.05 7.65" fill="#524c4c" fill-rule="evenodd" stroke="none"/>
      <path d="M7.45 0.05 L4.35 3.1 2.05 5.05 0.75 5.9 Q-0.15 5.85 3.15 3.25 L6.75 0.35 7.45 0.05" fill="#000000" fill-rule="evenodd" stroke="none"/>
      <path d="M5.2 1.9 L4.85 2.2 3.75 1.35 2.8 0.2 2.85 0.2 Q5.2 1.45 5.2 1.9" fill="#000000" fill-rule="evenodd" stroke="none"/>
    </g>
    <g id="sprite4">
      <use ffdec:characterId="27" height="5.0" transform="matrix(1.0, 0.0, 0.0, 1.0, 0.0, 0.0)" width="7.2" xlink:href="#shape4"/>
    </g>
    <g id="shape4">
      <path d="M5.45 -0.25 Q5.75 -0.55 5.8 -0.05 L5.55 1.05 Q5.25 1.7 5.5 2.45 L5.45 3.0 5.2 3.05 3.95 1.95 Q2.8 0.85 0.85 1.0 L0.8 0.9 Q1.2 0.5 2.3 0.5 L3.7 0.8 Q4.25 1.05 4.45 1.4 4.45 1.05 4.8 0.55 L5.45 -0.25" fill="#ff0000" fill-rule="evenodd" stroke="none"/>
      <path d="M7.2 3.3 Q6.1 4.65 4.55 4.65 1.7 4.65 0.6 3.45 L0.3 3.05 0.15 1.0 0.7 0.95 Q0.6 1.45 1.25 1.9 2.6 2.55 4.0 2.55 5.35 2.55 6.5 1.85 L7.35 1.2 7.35 3.1 7.2 3.3" fill="#211913" fill-rule="evenodd" stroke="none"/>
      <path d="M2.35 3.2 Q4.25 3.85 7.25 2.75 6.6 4.15 4.65 4.3 L2.1 3.95 Q0.1 3.2 0.4 1.85 0.45 2.55 2.35 3.2" fill="#161210" fill-rule="evenodd" stroke="none"/>
      <path d="M4.5 4.1 L3.75 3.9 3.7 3.5 3.95 3.1 4.75 2.95 6.25 2.6 Q6.5 2.6 6.5 3.1 6.5 4.1 4.5 4.1" fill="#4b4d53" fill-rule="evenodd" stroke="none"/>
    </g>
    <g id="sprite5">
      <use ffdec:characterId="12" height="25.85" transform="matrix(1.0, 0.0, 0.0, 1.0, 0.0, 0.0)" width="28.2" xlink:href="#sprite6"/>
      <use ffdec:characterId="14" height="10.4" transform="matrix(1.0, 0.0, 0.0, 1.0, 9.2, 4.9)" width="10.3" xlink:href="#sprite7"/>
      <use ffdec:characterId="16" height="5.3" transform="matrix(1.0, 0.0, 0.0, 1.0, 5.4, 16.15)" width="19.85" xlink:href="#sprite8"/>
      <use ffdec:characterId="18" height="9.5" transform="matrix(1.0, 0.0, 0.0, 1.0, 17.75, 16.8)" width="11.75" xlink:href="#sprite9"/>
    </g>
    <g id="sprite6">
      <use ffdec:characterId="11" height="25.85" transform="matrix(1.0, 0.0, 0.0, 1.0, 0.0, 0.0)" width="28.2" xlink:href="#shape5"/>
    </g>
    <g id="shape5">
      <path d="M27.75 12.35 Q27.75 15.95 24.7 19.8 20.5 25.1 13.25 25.1 5.4 25.1 2.1 20.6 0.25 18.05 0.25 14.75 0.25 9.9 2.15 7.25 5.15 3.05 13.35 1.3 L18.5 1.3 Q23.35 2.45 25.85 6.2 27.75 9.1 27.75 12.35" fill="#ed3c3c" fill-rule="evenodd" stroke="none"/>
      <path d="M0.35 11.75 Q1.75 5.3 7.7 2.95 L4.6 6.05 Q-0.85 11.7 2.15 18.75 4.15 23.35 9.15 24.8 5.55 26.0 3.0 22.9 -1.0 18.05 0.35 11.75" fill="#1c0909" fill-rule="evenodd" stroke="none"/>
      <path d="M22.1 3.65 L18.55 1.05 Q24.8 2.4 27.2 8.55 29.55 14.6 26.35 19.95 24.3 23.5 20.55 22.85 25.3 20.6 26.55 15.75 28.4 8.3 22.1 3.65" fill="#1c0909" fill-rule="evenodd" stroke="none"/>
      <path d="M19.15 1.4 Q19.15 2.3 14.75 2.95 L7.85 3.65 Q6.9 3.7 6.75 2.5 6.7 1.6 7.65 1.3 L12.95 0.4 18.25 0.15 Q19.1 0.6 19.15 1.4" fill="#211313" fill-rule="evenodd" stroke="none"/>
      <path d="M9.55 25.85 Q7.8 25.85 7.9 24.7 7.9 23.75 14.55 22.65 21.25 21.5 21.25 23.1 21.25 25.85 9.55 25.85" fill="#211313" fill-rule="evenodd" stroke="none"/>
      <path d="M7.35 6.4 Q8.05 6.65 8.05 7.2 L7.45 8.5 7.8 8.95 Q8.15 9.3 7.95 10.05 8.35 10.1 8.6 10.5 L8.8 11.05 Q8.8 11.6 8.25 12.05 L6.7 13.35 Q7.35 13.8 8.25 13.9 8.8 13.95 8.8 14.25 8.8 14.85 7.85 15.75 11.2 15.4 11.2 16.6 11.2 17.1 10.6 17.35 L8.6 17.95 Q7.7 18.25 7.2 18.8 6.95 19.15 5.8 19.15 4.85 19.15 4.55 18.4 L4.4 17.6 Q4.4 17.2 5.35 16.6 6.5 15.85 7.05 14.95 L7.1 14.85 Q5.6 14.55 5.2 14.25 4.9 14.05 4.9 13.55 L5.15 12.85 Q3.05 12.95 3.05 11.6 3.05 10.55 5.35 9.65 6.05 9.35 6.15 7.8 L5.6 7.35 5.05 6.75 Q5.05 5.2 7.9 4.5 L10.75 4.45 Q10.8 5.15 9.7 5.5 8.6 5.8 7.35 6.4" fill="#ff9144" fill-rule="evenodd" stroke="none"/>
      <path d="M23.15 5.7 Q23.2 6.35 22.55 6.4 L20.9 6.4 20.6 6.45 20.4 6.55 Q21.8 6.4 22.15 6.85 L23.1 7.9 Q23.75 8.05 24.2 8.55 L24.7 9.45 Q24.85 9.8 24.15 9.45 L22.6 9.2 21.1 9.3 20.65 9.2 20.85 8.8 Q20.95 8.5 21.75 8.55 21.35 8.25 21.35 7.8 L21.25 7.15 19.7 7.15 19.7 6.45 21.05 5.75 Q20.25 4.6 16.65 4.35 16.9 3.85 19.0 3.75 19.9 3.7 21.55 4.5 23.15 5.25 23.15 5.7" fill="#991616" fill-rule="evenodd" stroke="none"/>
      <path d="M23.85 12.75 Q25.3 13.55 25.2 14.15 25.15 14.65 24.45 14.7 L24.6 15.1 Q24.55 15.4 23.85 15.3 L22.55 15.2 21.5 15.25 20.65 15.35 Q20.05 15.25 20.1 14.8 20.15 14.35 21.3 14.0 L23.2 13.9 Q22.25 13.3 22.15 13.1 22.25 11.85 23.85 12.75" fill="#991616" fill-rule="evenodd" stroke="none"/>
      <path d="M22.55 11.4 L21.65 10.85 Q21.5 10.65 21.85 10.55 L23.25 10.35 Q25.4 10.4 25.4 11.95 25.4 12.4 25.05 12.4 L24.0 12.1 22.55 11.4" fill="#991616" fill-rule="evenodd" stroke="none"/>
      <path d="M11.9 2.15 L15.95 1.5 Q14.6 2.35 12.85 2.65 L11.85 2.85 9.05 2.65 8.95 2.1 8.0 2.3 Q8.55 1.55 9.45 1.35 L10.45 1.2 13.35 0.8 12.2 1.5 11.9 2.15" fill="#56565f" fill-rule="evenodd" stroke="none"/>
      <path d="M13.6 24.5 L17.65 23.85 Q16.3 24.7 14.55 25.0 L13.55 25.2 10.75 25.0 10.65 24.45 9.7 24.65 Q10.25 23.9 11.15 23.7 L12.15 23.55 15.05 23.15 13.9 23.85 13.6 24.5" fill="#56565f" fill-rule="evenodd" stroke="none"/>
    </g>
    <g id="sprite7">
      <use ffdec:characterId="13" height="10.4" transform="matrix(1.0, 0.0, 0.0, 1.0, 0.0, 0.0)" width="10.3" xlink:href="#shape6"/>
    </g>
    <g id="shape6">
      <path d="M8.9 2.35 Q9.65 3.45 9.65 4.2 9.65 10.05 5.3 10.05 2.55 10.05 1.2 7.85 0.35 6.5 0.35 5.4 0.35 4.1 1.1 2.85 2.45 0.65 5.6 0.65 7.8 0.65 8.9 2.35" fill="#acb1c8" fill-rule="evenodd" stroke="none"/>
      <path d="M5.35 7.6 Q3.5 7.6 3.0 6.55 L2.95 5.4 Q2.95 2.3 5.2 2.45 7.45 2.55 7.45 5.1 7.45 7.6 5.35 7.6" fill="#000000" fill-rule="evenodd" stroke="none"/>
      <path d="M9.1 3.05 Q8.45 1.9 7.2 1.2 L3.65 1.1 Q2.4 1.45 1.65 2.6 0.4 4.3 0.8 6.5 1.05 7.9 2.35 8.8 3.65 9.7 4.75 9.9 L7.45 9.45 Q9.0 8.8 9.35 6.5 9.7 4.2 9.1 3.05 M7.15 0.6 Q9.45 1.6 10.1 4.1 10.75 6.35 9.45 8.3 7.95 10.45 5.3 10.4 3.05 10.35 1.3 8.95 L0.55 8.4 Q-0.3 6.1 0.2 3.85 0.6 1.75 2.45 0.75 L3.55 0.2 Q5.0 -0.2 6.4 0.2 L7.15 0.6" fill="#4a1e1e" fill-rule="evenodd" stroke="none"/>
      <path d="M9.15 6.15 Q8.75 7.5 8.1 7.5 7.5 7.5 7.5 6.95 L7.7 5.05 7.35 3.55 7.0 2.75 8.2 2.7 Q9.4 3.8 9.4 4.55 L9.15 6.15" fill="#ffffff" fill-rule="evenodd" stroke="none"/>
      <path d="M2.75 4.2 L2.6 5.05 2.75 6.5 3.05 7.2 3.4 7.85 Q3.4 8.2 3.0 8.2 1.55 8.2 1.1 6.95 L0.9 5.55 Q0.9 4.0 1.9 3.2 2.9 2.4 2.9 3.45 L2.75 4.2" fill="#ffffff" fill-rule="evenodd" stroke="none"/>
    </g>
    <g id="sprite8">
      <use ffdec:characterId="15" height="5.3" transform="matrix(1.0, 0.0, 0.0, 1.0, 0.0, 0.0)" width="19.85" xlink:href="#shape7"/>
    </g>
    <g id="shape7">
      <path d="M18.0 0.1 L19.85 0.55 Q15.35 3.9 12.3 4.8 L5.0 5.15 0.0 4.35 1.1 3.8 7.3 1.7 11.7 0.55 15.55 0.0 18.0 0.1" fill="#520000" fill-rule="evenodd" stroke="none"/>
    </g>
    <g id="sprite9">
      <use ffdec:characterId="17" height="9.5" transform="matrix(1.0, 0.0, 0.0, 1.0, 0.0, 0.0)" width="11.75" xlink:href="#shape8"/>
    </g>
    <g id="shape8">
      <path d="M5.35 7.2 Q3.15 4.55 2.95 3.5 2.7 2.4 2.05 2.6 L0.0 3.5 Q0.8 1.6 2.15 0.6 4.5 -1.0 8.6 1.6 12.15 3.75 11.35 5.9 10.5 8.1 9.0 8.95 7.5 9.8 5.35 7.2" fill="#f881c1" fill-rule="evenodd" stroke="none"/>
      <path d="M8.45 4.15 Q8.75 6.75 7.85 3.85 7.0 1.1 4.15 0.55 7.6 -0.2 8.45 4.15" fill="#3d1530" fill-rule="evenodd" stroke="none"/>
      <path d="M7.25 0.45 Q7.9 0.6 9.65 1.5 11.35 2.35 11.7 5.1 12.05 7.8 10.3 8.85 8.6 9.85 6.95 9.35 5.3 8.85 4.5 7.5 L3.4 5.6 2.8 3.95 Q2.4 2.85 1.85 2.25 2.45 1.4 3.05 2.6 L4.15 4.75 Q4.85 6.15 5.85 7.45 6.85 8.7 8.85 8.5 10.7 7.85 10.85 5.8 10.95 3.75 9.3 2.3 7.65 0.8 6.4 0.5 L5.0 0.1 7.25 0.45" fill="#1f2a15" fill-rule="evenodd" stroke="none"/>
      <path d="M5.45 2.15 Q5.5 2.75 5.15 3.1 L5.15 3.15 5.9 2.95 Q6.75 2.85 6.8 3.55 L6.6 4.35 Q7.35 4.15 7.65 4.6 L8.0 5.35 Q8.55 6.0 8.6 6.6 8.65 7.45 8.05 7.5 7.3 7.6 6.85 6.95 L6.5 6.1 6.3 5.35 5.9 4.9 5.6 4.65 5.8 3.8 Q5.75 3.6 5.4 3.65 L4.8 3.8 4.45 3.5 4.35 3.1 Q4.3 2.75 4.6 2.25 L4.05 2.4 3.7 2.25 3.65 2.1 Q3.6 1.6 4.5 1.45 5.4 1.35 5.45 2.15" fill="#ffeffa" fill-rule="evenodd" stroke="none"/>
    </g>
  </defs>
</svg>
