<?xml version="1.0" encoding="UTF-8" standalone="no"?>
<svg xmlns:ffdec="https://www.free-decompiler.com/flash" xmlns:xlink="http://www.w3.org/1999/xlink" ffdec:objectType="frame" height="16.95px" width="24.5px" xmlns="http://www.w3.org/2000/svg">
  <g transform="matrix(1.0, 0.0, 0.0, 1.0, 12.1, -13.7)">
    <use ffdec:characterId="3" height="16.95" transform="matrix(1.0, 0.0, 0.0, 1.0, 0.0, 0.0)" width="24.5" xlink:href="#shape0"/>
  </g>
  <defs>
    <g id="shape0">
      <path d="M0.6 14.9 L1.45 14.35 Q1.9 14.0 2.1 14.05 L2.6 14.4 0.55 15.65 0.8 16.4 0.6 16.65 0.55 16.65 0.35 17.3 0.05 17.85 0.1 17.95 -0.15 18.2 Q-0.55 18.2 -0.55 17.2 L-0.7 16.15 Q-0.55 15.3 -1.6 15.2 -2.75 15.0 -2.8 14.5 L-1.55 14.7 Q-0.4 14.9 -0.35 15.2 L-0.05 16.8 -0.15 17.2 -0.1 17.4 0.05 16.5 -0.15 15.65 -0.2 15.55 Q-0.2 15.15 0.1 15.15 L0.15 15.2 Q0.2 15.1 0.6 14.9" fill="#ffffff" fill-rule="evenodd" stroke="none"/>
      <path d="M-1.7 28.25 Q-1.7 30.5 -6.75 30.5 -9.85 30.5 -9.85 29.4 L-9.7 28.6 -9.2 28.1 -9.1 28.15 -9.4 28.9 -9.15 29.55 -6.8 29.9 -4.4 29.55 Q-2.75 29.15 -2.5 28.6 L-2.4 27.6 Q-2.15 27.3 -1.9 27.7 L-1.7 28.25" fill="#000000" fill-rule="evenodd" stroke="none"/>
      <path d="M-4.0 26.05 L-3.75 26.3 -3.7 27.4 Q-4.45 28.25 -5.6 28.85 L-9.45 28.75 -9.5 28.7 -9.6 28.35 Q-9.35 27.75 -8.5 27.1 -7.0 26.0 -4.8 26.0 L-4.0 26.05" fill="#cc0000" fill-rule="evenodd" stroke="none"/>
      <path d="M-9.6 28.35 L-9.5 28.7 -9.45 28.75 -5.6 28.85 Q-4.45 28.25 -3.7 27.4 L-3.75 26.3 -4.0 26.05 Q-2.85 26.2 -2.45 26.85 -2.2 27.2 -2.2 28.05 -2.2 30.0 -6.55 30.0 L-9.4 29.6 Q-9.7 29.4 -9.7 28.8 L-9.6 28.35" fill="#660000" fill-rule="evenodd" stroke="none"/>
      <path d="M-4.4 29.35 L-4.4 28.4 -5.25 27.0 -4.65 27.2 Q-4.15 27.45 -4.05 28.1 L-3.95 29.55 -4.15 29.9 Q-4.5 30.1 -4.4 29.35" fill="#333333" fill-rule="evenodd" stroke="none"/>
      <path d="M5.95 30.65 Q3.75 30.65 2.6 30.0 1.65 29.45 1.65 28.55 1.65 28.05 2.1 27.75 2.55 27.4 2.55 27.85 L2.25 28.45 Q2.25 29.1 3.15 29.5 L5.95 29.95 8.45 29.5 Q9.4 29.05 9.4 28.65 L9.15 28.0 9.2 27.8 9.45 27.8 Q10.1 27.85 10.1 28.65 10.1 29.3 9.1 29.9 7.85 30.65 5.95 30.65" fill="#000000" fill-rule="evenodd" stroke="none"/>
      <path d="M9.5 28.2 L9.55 28.45 8.9 29.45 Q8.0 30.1 6.25 30.1 2.1 30.1 2.1 27.95 2.1 27.3 2.8 26.85 3.65 26.25 5.25 26.25 L6.15 26.3 Q5.35 26.7 5.2 27.95 L5.25 28.1 Q7.05 29.55 9.2 28.3 L9.5 28.2" fill="#660000" fill-rule="evenodd" stroke="none"/>
      <path d="M6.15 26.3 Q7.45 26.45 8.45 27.1 L9.5 28.2 9.2 28.3 Q7.05 29.55 5.25 28.1 L5.2 27.95 Q5.35 26.7 6.15 26.3" fill="#cc0000" fill-rule="evenodd" stroke="none"/>
      <path d="M3.8 27.6 Q4.1 26.8 4.3 27.0 L4.45 27.15 4.2 28.0 Q3.9 28.65 3.9 29.75 L3.65 29.95 Q3.45 29.95 3.45 29.55 L3.45 29.1 Q3.45 28.35 3.8 27.6" fill="#333333" fill-rule="evenodd" stroke="none"/>
      <path d="M0.65 21.1 Q0.55 21.6 0.75 22.15 2.25 23.3 3.8 23.95 L4.7 25.35 4.9 26.1 4.85 26.1 Q3.75 26.4 2.95 27.15 L2.6 27.35 Q2.9 26.15 2.05 24.9 L1.0 23.5 -2.15 23.3 -1.9 23.6 -1.7 23.8 -1.55 24.1 -1.65 25.25 -2.3 27.0 -2.8 27.1 Q-4.05 27.25 -4.6 26.3 L-4.5 26.0 -4.45 25.95 -4.15 25.9 -3.85 25.9 Q-4.15 25.5 -3.75 24.85 L-2.8 22.85 Q-3.1 22.2 -3.5 22.05 L-3.35 21.5 -0.8 21.2 0.65 21.1" fill="#333333" fill-rule="evenodd" stroke="none"/>
      <path d="M-3.5 22.05 Q-3.1 22.2 -2.8 22.85 L-3.75 24.85 Q-4.15 25.5 -3.85 25.9 L-4.15 25.9 -4.45 25.95 -4.5 26.0 -4.6 26.3 Q-4.05 27.25 -2.8 27.1 L-2.3 27.0 -1.65 25.25 -1.55 24.1 -1.7 23.8 -1.9 23.6 -2.15 23.3 1.0 23.5 2.05 24.9 Q2.9 26.15 2.6 27.35 L2.95 27.15 Q3.75 26.4 4.85 26.1 L4.9 26.1 4.7 25.35 3.8 23.95 Q2.25 23.3 0.75 22.15 0.55 21.6 0.65 21.1 L1.75 21.0 Q2.7 21.0 4.7 23.7 L5.7 25.15 5.95 25.35 6.6 25.75 7.15 26.3 Q7.15 26.75 6.3 26.9 L5.45 27.1 4.55 27.3 Q4.35 27.35 3.65 27.85 L2.65 28.2 Q2.2 28.2 1.85 27.85 1.55 27.55 1.8 27.2 L1.6 26.55 1.4 26.0 0.7 24.75 Q0.1 23.95 -0.3 23.95 -0.6 23.95 -0.95 26.1 -1.35 28.2 -1.9 28.2 -3.05 28.2 -4.6 27.45 -6.05 26.7 -6.05 26.25 -6.05 25.8 -5.4 25.6 -4.65 25.4 -4.5 24.85 L-3.85 23.25 -3.5 22.05" fill="#000000" fill-rule="evenodd" stroke="none"/>
      <path d="M7.4 23.9 Q6.6 23.8 6.6 23.2 6.6 22.55 7.0 22.55 7.25 22.55 7.35 22.8 8.3 22.8 9.75 21.35 L10.65 20.5 10.75 20.05 Q10.85 19.8 11.3 19.8 11.75 19.8 11.85 20.45 L11.5 21.65 10.7 22.55 9.25 23.45 Q8.2 24.0 7.4 23.9" fill="#ffffff" fill-rule="evenodd" stroke="none"/>
      <path d="M-11.75 20.95 L-11.35 20.0 -10.7 20.05 -10.5 20.55 -10.25 21.1 -7.4 22.7 -7.1 22.6 Q-6.8 22.6 -6.7 22.95 L-6.7 23.55 Q-6.75 23.95 -7.45 24.1 L-8.8 23.75 -10.05 22.75 -11.2 21.9 Q-11.85 21.5 -11.75 20.95" fill="#ffffff" fill-rule="evenodd" stroke="none"/>
      <path d="M9.95 19.0 L10.6 19.6 Q11.55 18.7 11.55 19.75 11.55 20.9 9.65 22.05 8.0 23.0 7.1 23.0 6.4 23.0 6.25 22.7 L6.25 22.3 6.25 22.2 4.8 20.25 3.85 19.1 3.95 20.3 4.35 22.4 4.4 22.6 4.4 22.65 4.95 23.8 5.4 24.95 5.05 25.65 4.0 26.15 0.75 27.0 Q0.15 27.0 -0.15 26.55 L-0.3 26.05 -0.35 26.0 Q-0.45 27.05 -1.1 27.05 L-3.7 26.1 -5.15 25.4 Q-5.55 25.1 -5.55 24.65 -5.55 24.25 -5.15 24.1 L-4.8 23.75 -4.5 22.95 -4.3 21.45 -4.1 20.1 -5.7 22.0 -6.45 22.75 -6.25 23.05 Q-6.25 23.4 -6.9 23.45 -7.55 23.45 -7.8 23.05 L-9.45 21.85 Q-11.25 20.5 -11.25 20.1 -11.25 19.5 -10.7 19.45 -10.4 19.4 -10.25 19.6 L-9.6 19.15 Q-9.25 20.5 -8.0 21.1 -6.2 21.95 -5.15 20.1 L-4.7 19.15 -4.6 19.05 -3.6 17.4 -3.55 17.4 -3.35 17.85 -2.95 17.8 -2.8 17.6 -2.6 19.05 -3.1 22.25 Q-3.45 23.4 -4.1 24.55 -3.1 25.5 -1.55 26.0 L-0.25 24.1 Q0.6 24.8 1.1 25.85 L1.15 26.05 3.55 25.35 Q4.1 25.15 4.35 24.75 L3.5 22.85 2.75 20.5 2.3 18.25 2.6 17.0 Q2.55 16.55 2.65 16.1 L2.1 16.15 0.55 16.55 0.75 16.5 2.05 16.0 2.3 15.75 2.35 15.3 1.65 15.25 0.5 15.45 1.75 14.8 1.9 14.7 3.05 14.8 3.5 14.7 3.55 14.7 3.65 14.7 Q2.85 15.35 3.15 15.95 L5.45 19.7 Q6.2 20.95 6.9 21.0 L7.3 21.2 7.9 21.35 8.7 21.35 9.05 21.15 9.6 20.55 Q10.0 20.0 9.95 19.0 M-3.65 14.45 Q-3.2 14.35 -2.65 14.9 L-2.6 14.85 -2.3 16.15 -2.25 16.2 -1.3 16.5 -1.2 16.45 Q-0.9 16.3 -0.9 15.75 L-0.95 15.7 -1.25 15.15 -0.55 15.35 -0.55 16.7 -0.35 16.85 -0.35 16.95 -0.45 16.95 Q-1.85 17.25 -2.8 16.45 L-3.45 17.15 Q-3.1 15.8 -3.65 14.45" fill="#000000" fill-rule="evenodd" stroke="none"/>
      <path d="M3.65 14.7 L4.75 14.8 5.95 16.2 6.85 16.75 7.9 17.4 8.05 17.5 8.35 17.7 9.95 19.0 Q10.0 20.0 9.6 20.55 L9.05 21.15 8.7 21.35 7.9 21.35 7.3 21.2 6.9 21.0 Q6.2 20.95 5.45 19.7 L3.15 15.95 Q2.85 15.35 3.65 14.7 M-9.6 19.15 L-7.55 17.75 -7.5 17.7 -5.45 16.25 -4.45 15.1 -3.95 14.55 -3.65 14.45 Q-3.1 15.8 -3.45 17.15 L-2.8 16.45 Q-1.85 17.25 -0.45 16.95 L-0.35 16.95 -0.1 18.25 0.2 16.8 0.25 16.75 0.45 16.65 0.35 16.5 0.15 15.55 0.5 15.45 1.65 15.25 2.35 15.3 2.3 15.75 2.05 16.0 0.75 16.5 0.55 16.55 2.1 16.15 2.65 16.1 Q2.55 16.55 2.6 17.0 L2.3 18.25 2.75 20.5 3.5 22.85 4.35 24.75 Q4.1 25.15 3.55 25.35 L1.15 26.05 1.1 25.85 Q0.6 24.8 -0.25 24.1 L-1.55 26.0 Q-3.1 25.5 -4.1 24.55 -3.45 23.4 -3.1 22.25 L-2.6 19.05 -2.8 17.6 -2.95 17.8 -3.35 17.85 -3.55 17.4 -3.6 17.4 -4.6 19.05 -4.7 19.15 -5.15 20.1 Q-6.2 21.95 -8.0 21.1 -9.25 20.5 -9.6 19.15 M-2.6 14.85 L-1.25 15.15 -0.95 15.7 -0.9 15.75 Q-0.9 16.3 -1.2 16.45 L-1.3 16.5 -2.25 16.2 -2.3 16.15 -2.6 14.85" fill="#333333" fill-rule="evenodd" stroke="none"/>
      <path d="M0.4 18.2 L0.55 18.65 0.4 19.1 -0.05 19.3 -0.55 19.1 -0.7 18.65 -0.55 18.2 -0.05 18.05 0.4 18.2" fill="#ffcc00" fill-rule="evenodd" stroke="none"/>
      <path d="M0.4 20.45 L0.55 20.9 0.4 21.35 -0.05 21.55 -0.55 21.35 -0.7 20.9 -0.55 20.45 -0.05 20.3 0.4 20.45" fill="#ffcc00" fill-rule="evenodd" stroke="none"/>
      <path d="M0.4 22.7 L0.55 23.15 0.4 23.6 -0.05 23.8 -0.55 23.6 -0.7 23.15 -0.55 22.7 -0.05 22.55 0.4 22.7" fill="#ffcc00" fill-rule="evenodd" stroke="none"/>
      <path d="M5.5 16.15 L5.45 16.15 4.9 15.4 Q4.5 14.65 3.95 14.65 L3.55 14.75 3.25 14.85 2.85 14.7 2.9 14.5 3.0 14.45 3.2 14.55 3.85 14.25 Q4.5 14.05 5.05 14.65 L5.7 15.85 5.7 15.95 Q5.85 16.25 6.5 16.6 7.6 17.15 7.8 17.4 L9.25 18.25 9.7 18.65 10.45 19.05 11.3 18.85 Q11.8 18.85 12.4 20.85 12.4 21.25 12.1 21.25 L11.0 22.9 Q9.65 24.2 7.8 24.2 6.65 24.2 6.4 23.6 L6.35 22.8 6.4 22.8 5.05 20.85 4.25 19.9 4.15 20.15 4.85 22.6 Q5.0 23.7 5.85 24.7 L5.85 24.75 5.85 25.0 5.85 25.1 6.6 25.35 Q7.25 25.55 7.45 25.9 L7.45 26.1 8.45 26.5 Q9.85 27.3 9.85 28.0 9.85 28.4 9.55 28.4 L8.95 27.55 Q8.25 26.8 7.3 26.55 L7.15 26.65 7.05 26.65 Q7.0 26.8 6.45 26.95 L4.8 27.45 Q3.75 28.35 2.8 28.35 L2.0 28.1 1.85 28.1 Q1.35 28.1 1.3 27.55 L1.4 27.25 1.7 27.25 2.0 27.25 1.85 27.4 1.9 27.5 1.95 27.45 2.15 27.65 2.75 27.85 6.9 26.5 6.9 26.4 7.1 26.2 Q6.7 26.15 6.25 25.7 L5.8 25.2 Q5.4 25.75 2.95 26.5 L2.85 26.45 3.65 25.95 4.6 25.45 5.3 24.75 Q4.75 23.9 3.55 20.05 L3.7 19.3 3.75 19.2 3.55 18.45 4.1 18.9 4.35 19.15 5.0 19.9 Q6.75 22.0 6.75 22.5 L6.65 22.75 6.6 22.8 6.85 23.25 Q7.1 23.75 7.95 23.75 9.65 23.75 10.95 22.25 L11.85 20.8 11.7 20.3 11.2 19.3 Q10.9 19.3 10.85 19.45 L10.5 19.6 Q10.1 19.6 9.05 18.8 L7.75 17.75 6.3 16.95 Q5.6 16.55 5.5 16.15 M2.75 14.6 L2.45 14.25 2.15 14.05 0.2 15.0 -2.15 14.5 -2.7 14.5 -2.65 14.65 -2.6 14.65 -2.6 14.9 -2.75 14.95 -3.5 14.85 Q-4.1 14.85 -4.55 15.5 L-5.05 16.45 -6.25 17.25 -7.2 17.95 -9.45 19.45 -10.25 19.75 -11.15 20.25 -11.6 21.05 Q-11.6 21.45 -10.0 22.7 -8.35 23.95 -7.6 23.95 L-6.8 23.8 -6.5 23.4 Q-6.35 23.3 -6.35 22.7 L-5.65 21.6 -4.8 20.75 -4.0 19.55 Q-3.5 18.75 -3.2 18.7 L-3.2 18.65 -3.15 18.65 -3.0 18.7 -3.2 19.15 -3.7 20.05 -4.05 20.5 -4.05 21.0 Q-4.05 21.9 -4.35 23.0 -4.8 24.35 -5.45 24.5 -5.0 25.05 -3.75 25.8 L-2.1 26.4 -1.25 26.75 -1.2 26.75 -1.1 26.6 -0.85 26.6 Q-0.55 25.65 -0.1 25.65 L0.3 26.15 0.85 26.6 2.45 26.45 2.6 26.5 2.65 26.6 2.05 26.95 0.9 27.15 Q0.35 27.15 0.15 26.8 L-0.15 26.2 -0.25 26.75 -0.7 27.15 -0.75 27.15 -0.8 27.55 Q-0.95 28.2 -1.55 28.25 L-1.9 28.45 -4.0 27.8 Q-5.35 27.15 -5.55 26.6 L-4.8 27.0 -3.8 27.45 -2.3 27.95 -2.0 28.0 -2.0 27.95 -1.3 27.1 -1.55 27.1 Q-2.75 27.1 -4.6 25.9 L-5.3 25.55 -5.5 25.7 -5.5 25.75 -5.35 26.0 -5.65 26.0 -5.7 26.2 -5.95 26.35 -6.15 26.1 -6.65 26.2 -7.5 26.5 -8.8 27.35 -9.55 28.15 -9.8 29.05 -9.65 29.55 -9.25 30.0 -9.6 30.25 -10.1 29.85 -10.3 29.35 Q-10.3 27.9 -9.0 26.85 -7.8 25.9 -6.55 25.9 L-6.15 26.0 -5.75 25.55 -5.75 25.4 -5.6 25.3 -5.95 24.45 -5.7 23.9 -5.2 23.4 -4.7 22.3 -4.5 21.0 -5.9 22.75 -5.8 23.15 -6.4 23.9 Q-7.05 24.45 -7.55 24.45 -8.6 24.45 -10.4 23.0 -12.1 21.6 -12.1 21.05 -12.1 20.5 -11.7 19.95 L-10.7 19.25 -8.95 18.55 -7.85 17.75 -6.6 16.85 -5.45 16.1 -4.85 15.15 Q-4.25 14.35 -3.65 14.35 L-3.0 14.5 Q-3.0 14.2 -2.4 14.2 L-1.4 14.45 -0.3 14.65 1.6 13.9 Q2.9 13.35 2.9 14.3 L2.75 14.6" fill="#000000" fill-rule="evenodd" stroke="none"/>
      <path d="M5.65 15.25 L6.05 15.15 6.15 15.1 Q6.75 14.9 6.95 15.5 L7.45 16.45 8.25 16.95 8.3 17.55 8.25 17.75 7.6 18.9 Q7.05 19.85 6.05 20.25 5.0 20.6 4.55 19.35 5.2 19.2 6.5 16.65 L6.35 15.65 6.3 15.55 Q5.95 15.2 5.65 15.25" fill="#cc0000" fill-rule="evenodd" stroke="none"/>
      <path d="M5.65 15.25 Q5.95 15.2 6.3 15.55 L6.35 15.65 6.5 16.65 Q5.2 19.2 4.55 19.35 5.0 20.6 6.05 20.25 7.05 19.85 7.6 18.9 L8.25 17.75 8.3 17.55 8.25 16.95 8.65 17.15 Q9.1 17.45 9.1 17.85 9.1 18.7 7.55 20.15 L5.6 21.45 Q5.0 21.45 4.05 20.1 3.4 19.2 3.4 18.7 L3.5 18.4 Q5.1 18.15 5.7 15.7 L5.65 15.25" fill="#660000" fill-rule="evenodd" stroke="none"/>
      <path d="M5.85 21.55 L5.5 21.8 4.5 21.15 4.05 20.4 4.1 20.25 4.2 20.25 5.85 21.55" fill="#000000" fill-rule="evenodd" stroke="none"/>
      <path d="M5.7 15.55 L5.55 15.55 5.5 15.4 6.05 15.0 6.85 14.9 7.7 16.05 9.1 16.95 Q9.6 17.4 9.6 17.95 9.6 18.55 9.2 18.55 8.9 18.55 8.9 18.2 L9.05 17.85 Q9.05 17.35 8.7 17.15 L7.45 16.55 Q6.65 15.25 6.25 15.25 5.7 15.25 5.7 15.55" fill="#000000" fill-rule="evenodd" stroke="none"/>
    </g>
  </defs>
</svg>
