<?xml version="1.0" encoding="UTF-8" standalone="no"?>
<svg xmlns:ffdec="https://www.free-decompiler.com/flash" xmlns:xlink="http://www.w3.org/1999/xlink" ffdec:objectType="frame" height="37.7px" width="52.1px" xmlns="http://www.w3.org/2000/svg">
  <g transform="matrix(1.0, 0.0, 0.0, 1.0, 23.35, 22.3)">
    <use ffdec:characterId="10" height="37.7" transform="matrix(1.0, 0.0, 0.0, 1.0, 2.7, -3.45)" width="52.1" xlink:href="#shape0"/>
  </g>
  <defs>
    <g id="shape0">
      <path d="M-7.55 17.85 Q-13.3 17.15 -16.4 15.35 -20.35 13.05 -22.1 10.55 -24.55 8.3 -24.55 0.7 L-24.7 -1.25 -24.05 -4.95 Q-23.45 -7.75 -22.35 -9.2 L-21.65 -10.1 -20.6 -11.35 Q-18.35 -14.15 -15.35 -14.85 L-9.75 -16.55 Q-6.0 -17.7 -0.45 -17.95 7.85 -17.4 11.55 -15.6 L11.8 -15.5 Q15.1 -11.75 17.2 -7.9 L18.15 -6.4 17.65 -4.65 15.4 -3.9 15.4 -2.15 17.4 1.6 17.4 6.1 15.9 7.95 16.1 6.85 Q16.45 4.6 16.3 3.35 L15.75 1.25 13.35 -2.2 Q12.45 -3.3 9.3 -4.8 5.25 -6.8 1.65 -6.75 -5.45 -6.8 -10.9 -4.65 L-16.6 -1.75 Q-21.7 1.0 -21.65 5.15 -21.7 9.65 -16.9 12.7 -12.5 15.4 -6.75 15.45 L5.9 14.7 8.4 14.05 Q4.65 16.1 0.2 16.9 L-7.55 17.85" fill="#a05001" fill-rule="evenodd" stroke="none"/>
      <path d="M-7.55 17.85 L0.2 16.9 Q4.65 16.1 8.4 14.05 10.45 13.35 12.05 12.3 L14.95 9.95 Q15.55 9.3 15.9 7.95 L17.4 6.1 17.4 1.6 15.4 -2.15 15.4 -3.9 17.65 -4.65 18.15 -6.4 17.2 -7.9 Q15.1 -11.75 11.8 -15.5 L18.0 -11.6 Q24.65 -7.95 24.65 -2.9 24.65 -1.9 22.8 -1.7 L19.05 -1.4 Q18.45 -1.2 18.45 1.85 L18.65 4.95 Q17.35 10.3 14.7 12.45 12.0 14.6 7.75 16.6 3.45 18.6 -4.5 18.1 L-7.55 17.85" fill="#663300" fill-rule="evenodd" stroke="none"/>
      <path d="M3.05 -18.85 Q7.85 -18.35 12.7 -16.0 L20.4 -11.55 Q22.85 -10.0 24.9 -6.65 26.05 -5.3 26.05 -1.85 26.05 -0.55 20.05 -0.1 L19.85 1.85 20.1 4.95 Q19.3 9.45 14.5 14.1 9.7 18.7 -2.95 18.85 -15.65 19.0 -20.85 14.0 -26.05 9.0 -26.05 -1.85 -26.05 -6.45 -22.55 -10.55 -19.1 -14.7 -14.8 -15.9 -10.5 -17.1 -9.65 -17.7 L1.9 -18.85 3.05 -18.85 M16.3 3.35 Q16.45 4.6 16.1 6.85 15.75 9.05 14.95 9.95 L12.05 12.3 Q9.6 13.95 5.9 14.7 L-6.75 15.45 Q-12.5 15.4 -16.9 12.7 -21.7 9.65 -21.65 5.15 -21.7 1.0 -16.6 -1.75 L-10.9 -4.65 Q-5.45 -6.8 1.65 -6.75 5.25 -6.8 9.3 -4.8 12.45 -3.3 13.35 -2.2 L15.75 1.25 16.3 3.35 M15.15 2.0 Q15.05 0.4 11.1 -2.75 7.1 -5.95 -1.4 -5.9 -9.2 -5.95 -15.7 -1.85 L-19.55 1.05 Q-20.15 1.75 -20.5 4.75 -21.3 7.2 -17.7 10.85 -14.1 14.45 -10.05 14.55 L-4.55 14.65 -0.95 14.7 7.5 13.35 Q13.95 12.05 14.8 7.75 L15.45 3.5 Q15.25 3.6 15.15 2.0 M-0.45 -17.95 Q-6.0 -17.7 -9.75 -16.55 L-15.35 -14.85 Q-18.35 -14.15 -20.6 -11.35 L-21.65 -10.1 -22.35 -9.2 Q-23.45 -7.75 -24.05 -4.95 L-24.7 -1.25 -24.55 0.7 Q-24.55 8.3 -22.1 10.55 -20.35 13.05 -16.4 15.35 -12.5 17.6 -4.5 18.1 3.45 18.6 7.75 16.6 12.0 14.6 14.7 12.45 17.35 10.3 18.65 4.95 L18.45 1.85 Q18.45 -1.2 19.05 -1.4 L22.8 -1.7 Q24.65 -1.9 24.65 -2.9 24.65 -7.95 18.0 -11.6 13.85 -14.5 11.55 -15.6 7.85 -17.4 -0.45 -17.95" fill="#000000" fill-rule="evenodd" stroke="none"/>
    </g>
  </defs>
</svg>
