<?xml version="1.0" encoding="UTF-8" standalone="no"?>
<svg xmlns:ffdec="https://www.free-decompiler.com/flash" xmlns:xlink="http://www.w3.org/1999/xlink" ffdec:objectType="frame" height="41.15px" width="57.0px" xmlns="http://www.w3.org/2000/svg">
  <g transform="matrix(1.0, 0.0, 0.0, 1.0, 29.4, 31.05)">
    <use ffdec:characterId="5" height="41.15" transform="matrix(1.0, 0.0, 0.0, 1.0, -1.15, -10.45)" width="57.0" xlink:href="#sprite0"/>
  </g>
  <defs>
    <g id="sprite0">
      <use ffdec:characterId="4" height="41.15" transform="matrix(1.0, 0.0, 0.0, 1.0, 0.0, 0.0)" width="57.0" xlink:href="#shape0"/>
    </g>
    <g id="shape0">
      <path d="M5.75 -8.85 L4.9 -10.0 4.0 -11.15 10.8 -9.05 9.0 -11.3 12.7 -10.55 11.85 -11.8 16.75 -8.65 11.5 -8.8 13.9 -5.4 8.15 -8.3 9.4 -2.65 6.95 -5.2 4.55 -7.15 3.25 -8.05 5.0 -7.8 5.8 -7.55 6.5 -7.3 6.3 -7.9 5.75 -8.85 M-12.85 -5.3 L-9.0 -8.55 Q-11.45 -10.2 -13.1 -12.55 L-7.75 -9.65 -7.85 -8.15 -5.6 -10.15 -5.0 -7.9 -2.75 -8.9 Q-3.65 -7.3 -4.9 -6.1 L-5.75 -5.3 -6.35 -7.55 Q-8.0 -6.1 -10.15 -5.55 L-12.85 -5.3" fill="#a8e2ff" fill-rule="evenodd" stroke="none"/>
      <path d="M-16.95 -14.1 L-6.75 -13.4 -2.9 -12.45 Q-4.1 -15.35 -6.25 -17.65 -1.0 -16.9 4.2 -13.35 7.75 -18.5 14.45 -19.75 L11.05 -13.15 16.7 -13.7 15.2 -12.4 Q18.7 -11.25 21.9 -9.75 19.75 -7.15 16.3 -7.15 L14.9 -7.25 17.9 -2.15 Q14.05 -4.45 9.75 -5.5 L11.15 -0.5 Q7.4 -4.15 2.75 -6.25 L0.4 -1.0 Q-0.35 -4.05 -2.6 -5.65 -5.25 -4.1 -12.2 2.1 L-6.85 -5.65 -18.65 -1.3 Q-14.65 -5.5 -12.65 -6.7 L-11.1 -7.4 Q-14.7 -10.15 -16.95 -14.1 M-12.85 -5.3 L-10.15 -5.55 Q-8.0 -6.1 -6.35 -7.55 L-5.75 -5.3 -4.9 -6.1 Q-3.65 -7.3 -2.75 -8.9 L-5.0 -7.9 -5.6 -10.15 -7.85 -8.15 -7.75 -9.65 -13.1 -12.55 Q-11.45 -10.2 -9.0 -8.55 L-12.85 -5.3 M5.75 -8.85 L6.3 -7.9 6.5 -7.3 5.8 -7.55 5.0 -7.8 3.25 -8.05 4.55 -7.15 6.95 -5.2 9.4 -2.65 8.15 -8.3 13.9 -5.4 11.5 -8.8 16.75 -8.65 11.85 -11.8 12.7 -10.55 9.0 -11.3 10.8 -9.05 4.0 -11.15 4.9 -10.0 5.75 -8.85" fill="#0490d6" fill-rule="evenodd" stroke="none"/>
      <path d="M21.9 -9.75 L22.05 -9.65 26.7 -5.35 22.45 -5.9 19.9 -6.05 22.2 -3.75 23.2 -2.55 25.15 0.4 22.1 -0.45 Q24.5 2.6 24.8 6.3 25.0 8.95 23.8 11.3 L21.35 14.65 Q21.8 11.95 21.4 9.8 L21.35 9.5 19.1 12.1 19.6 8.35 Q19.9 4.1 17.1 0.75 17.2 1.8 16.3 4.05 14.5 2.85 12.3 1.95 9.55 0.8 8.45 0.7 L7.7 3.8 6.55 8.15 Q3.25 4.9 1.9 0.1 L-2.9 5.65 Q-1.75 2.0 -3.1 -0.25 L-4.9 1.2 -8.75 5.65 Q-9.4 5.65 -9.25 3.05 L-9.25 1.6 Q-11.95 3.6 -14.4 7.0 -15.75 9.55 -15.65 11.6 L-18.65 8.35 -18.55 10.35 -17.9 14.15 -16.95 17.65 Q-18.8 15.65 -19.8 13.4 -21.05 10.65 -21.6 7.4 L-24.4 9.55 -23.1 7.1 -25.1 5.5 -23.55 4.05 -25.85 0.8 Q-24.05 0.75 -22.55 -0.25 -21.3 -1.0 -17.95 -4.05 L-23.1 -4.25 Q-22.8 -4.35 -21.6 -6.1 -20.45 -7.9 -18.9 -8.65 -17.4 -9.45 -15.9 -9.75 L-19.9 -12.95 -16.95 -14.1 Q-14.7 -10.15 -11.1 -7.4 L-12.65 -6.7 Q-14.65 -5.5 -18.65 -1.3 L-6.85 -5.65 -12.2 2.1 Q-5.25 -4.1 -2.6 -5.65 -0.35 -4.05 0.4 -1.0 L2.75 -6.25 Q7.4 -4.15 11.15 -0.5 L9.75 -5.5 Q14.05 -4.45 17.9 -2.15 L14.9 -7.25 16.3 -7.15 Q19.75 -7.15 21.9 -9.75" fill="#03417b" fill-rule="evenodd" stroke="none"/>
      <path d="M18.8 -14.5 L16.35 -12.3 20.5 -11.05 Q24.0 -9.9 26.3 -7.25 L28.75 -4.05 23.2 -4.6 25.75 -1.0 28.0 2.65 27.65 3.4 24.55 1.75 25.35 3.7 Q26.65 7.2 25.45 10.75 24.45 13.7 19.75 17.75 L21.3 10.85 17.95 14.1 18.45 8.9 Q18.7 6.55 18.1 4.05 L17.5 6.4 Q15.95 5.1 14.7 4.55 11.5 3.0 8.7 1.0 L8.6 0.95 8.4 3.45 6.7 9.6 Q5.5 8.4 3.75 5.75 2.0 3.05 1.5 0.75 L0.15 3.8 Q-0.7 5.45 -3.65 7.0 -2.55 3.1 -3.5 0.6 -7.0 4.05 -9.05 7.35 L-9.25 6.5 -9.75 2.7 -10.6 3.5 -11.9 4.95 Q-14.0 7.6 -14.5 8.65 L-15.05 13.55 -15.8 13.05 -16.8 12.05 -17.85 11.05 Q-16.75 16.65 -14.45 20.55 -17.05 19.0 -18.05 18.05 -20.6 15.6 -21.6 12.35 L-22.4 9.6 -25.4 11.0 -24.35 6.65 -27.0 5.8 -24.25 3.3 -28.25 0.25 Q-26.5 -0.35 -24.8 -1.05 -22.15 -2.15 -19.7 -3.7 L-25.55 -2.35 -23.2 -5.75 Q-20.9 -8.75 -17.75 -10.3 L-21.9 -13.25 -17.75 -14.75 Q-11.85 -16.15 -6.3 -14.0 L-4.0 -13.15 -7.55 -18.65 -3.95 -17.85 Q-1.2 -17.2 1.85 -14.95 L3.0 -14.0 5.3 -16.15 Q8.05 -18.65 10.9 -19.75 13.7 -20.85 15.75 -20.5 L12.15 -14.1 18.8 -14.5 M11.05 -13.15 L14.45 -19.75 Q10.55 -18.75 7.55 -16.4 4.55 -14.15 2.6 -11.25 L2.5 -11.65 2.5 -12.15 2.65 -13.15 -0.1 -14.9 -1.65 -15.75 -6.25 -17.65 -3.8 -14.5 Q-2.85 -13.2 -1.85 -10.7 L-6.9 -12.75 Q-9.45 -13.7 -12.95 -13.9 -16.45 -14.15 -19.9 -12.95 L-15.9 -9.75 Q-17.4 -9.45 -18.9 -8.65 -20.45 -7.9 -21.6 -6.1 -22.8 -4.35 -23.1 -4.25 L-16.85 -5.1 -17.0 -4.95 Q-21.15 -1.1 -22.55 -0.25 -24.05 0.75 -25.85 0.8 L-23.35 2.05 -20.4 0.4 -22.35 2.95 -25.1 5.5 -23.8 5.55 -20.55 2.2 -24.4 9.55 -21.6 7.4 Q-21.05 10.65 -19.8 13.4 -18.8 15.65 -16.95 17.65 L-17.9 14.15 -18.55 10.35 -18.65 8.35 -15.65 11.6 Q-15.8 8.05 -14.8 4.55 -13.6 0.15 -9.75 -2.3 L-11.75 0.7 -13.15 3.4 -14.35 6.15 -10.5 2.3 -9.75 1.75 -9.3 -0.1 Q-8.6 -2.0 -7.25 -3.6 L-8.8 0.45 Q-9.5 3.05 -8.85 5.6 L-5.8 1.8 Q-4.4 0.15 -2.8 -0.8 -2.05 1.95 -2.25 3.55 L-2.6 5.25 -1.3 3.6 -0.7 2.8 0.5 0.0 1.15 -2.0 1.55 -2.35 Q2.95 3.8 6.4 7.7 7.55 3.55 7.4 2.1 L6.95 -0.65 6.4 -3.75 7.45 -1.15 9.55 0.2 12.75 1.95 16.05 3.35 Q17.4 -1.2 13.7 -5.25 16.05 -3.0 17.85 0.25 19.6 3.45 19.65 6.1 L19.5 11.15 22.65 6.7 22.65 8.9 22.4 10.85 21.85 13.6 Q23.0 12.8 23.8 11.3 25.0 8.95 24.8 6.3 24.5 2.6 22.1 -0.45 L25.15 0.4 23.2 -2.55 22.2 -3.75 19.9 -6.05 22.45 -5.9 26.7 -5.35 22.05 -9.65 Q20.7 -10.5 18.35 -11.15 15.9 -11.8 14.65 -11.1 L13.9 -10.55 13.3 -10.15 12.7 -9.9 12.15 -9.9 16.7 -13.7 11.05 -13.15" fill="#000000" fill-rule="evenodd" stroke="none"/>
    </g>
  </defs>
</svg>
