<?xml version="1.0" encoding="UTF-8" standalone="no"?>
<svg xmlns:ffdec="https://www.free-decompiler.com/flash" xmlns:xlink="http://www.w3.org/1999/xlink" ffdec:objectType="frame" height="58.35px" width="67.4px" xmlns="http://www.w3.org/2000/svg">
  <g transform="matrix(1.0, 0.0, 0.0, 1.0, 34.05, 40.15)">
    <use ffdec:characterId="2" height="45.8" transform="matrix(1.0, 0.0, 0.0, 1.0, 7.65, -34.0)" width="25.7" xlink:href="#sprite0"/>
    <use ffdec:characterId="4" height="51.85" transform="matrix(1.0, 0.0, 0.0, 1.0, -34.05, -40.15)" width="45.3" xlink:href="#sprite1"/>
    <use ffdec:characterId="6" height="28.45" transform="matrix(0.8945, 0.0, 0.0, 1.1918, -22.75, -12.15)" width="11.95" xlink:href="#sprite2"/>
    <use ffdec:characterId="6" height="28.45" transform="matrix(-0.8945, 0.0, 0.0, 1.1918, 23.45, -12.15)" width="11.95" xlink:href="#sprite2"/>
    <use ffdec:characterId="8" height="25.45" transform="matrix(1.0, 0.0, 0.0, 1.0, 5.85, -20.4)" width="18.45" xlink:href="#sprite3"/>
    <use ffdec:characterId="10" height="35.4" transform="matrix(1.0, 0.0, 0.0, 1.0, -25.75, -29.0)" width="35.4" xlink:href="#sprite4"/>
  </g>
  <defs>
    <g id="sprite0">
      <use ffdec:characterId="1" height="45.8" transform="matrix(1.0, 0.0, 0.0, 1.0, 0.0, 0.0)" width="25.7" xlink:href="#shape0"/>
    </g>
    <g id="shape0">
      <path d="M17.1 17.3 L17.4 18.05 Q18.05 19.55 19.35 20.6 20.55 21.5 21.5 23.15 21.95 23.85 23.5 24.35 24.9 24.8 24.9 25.25 24.9 25.9 21.5 27.55 L18.8 28.75 19.15 29.65 16.9 27.55 Q19.15 26.95 21.15 26.05 20.15 23.35 18.1 21.5 15.95 19.45 15.0 16.5 14.15 13.85 12.4 11.75 L11.6 10.15 Q10.7 8.5 9.4 7.0 L11.4 6.75 Q13.8 6.05 15.85 4.4 L15.75 3.75 14.3 3.75 8.7 3.05 Q6.05 2.8 3.45 3.6 L0.7 4.3 0.8 3.65 Q1.3 1.25 1.5 2.55 L1.85 2.4 4.9 2.05 Q5.1 1.7 5.8 1.7 L9.15 1.8 9.9 2.0 Q9.65 2.1 9.65 2.3 9.65 2.5 10.25 2.75 L11.8 3.05 Q12.6 3.05 12.6 2.5 L12.3 2.1 13.4 2.1 16.95 1.6 Q17.85 1.4 17.85 2.15 17.85 3.2 15.45 5.35 14.0 6.65 12.65 7.25 14.0 8.9 14.25 10.6 15.2 13.5 16.4 15.6 L16.8 16.5 16.35 16.2 Q15.55 15.9 15.55 16.5 16.25 18.2 16.65 18.2 L17.1 17.9 17.1 17.5 17.1 17.3 M19.8 30.4 L20.6 31.2 Q21.95 32.5 21.95 32.75 21.95 33.65 19.5 34.8 L17.85 35.5 16.75 33.55 17.9 33.15 Q19.25 32.55 20.25 31.45 L19.8 30.4 M16.7 40.05 L15.4 41.4 Q13.35 43.45 12.3 44.0 L11.9 44.3 Q10.3 45.6 9.85 45.6 9.05 45.6 9.05 44.85 L9.2 44.65 Q10.9 44.4 12.25 43.4 L16.7 40.05" fill="#ff2020" fill-rule="evenodd" stroke="none"/>
      <path d="M19.15 29.65 L19.8 30.4 20.25 31.45 Q19.25 32.55 17.9 33.15 L16.75 33.55 17.85 35.5 Q18.15 36.8 18.05 38.1 L17.9 39.25 16.7 40.05 12.25 43.4 Q10.9 44.4 9.2 44.65 10.45 42.25 10.5 39.35 L10.4 33.5 10.2 28.1 Q10.15 25.55 9.05 23.35 7.9 20.95 6.15 18.9 4.15 16.65 1.65 15.05 L0.45 14.3 0.45 5.7 0.3 5.55 0.0 5.5 0.7 4.3 3.45 3.6 3.05 3.9 15.55 4.5 15.1 4.05 14.3 3.75 15.75 3.75 15.85 4.4 Q13.8 6.05 11.4 6.75 L9.4 7.0 Q10.7 8.5 11.6 10.15 L12.4 11.75 12.15 12.3 Q13.5 14.75 14.35 17.25 15.25 19.85 16.75 22.1 18.45 24.7 21.15 26.05 19.15 26.95 16.9 27.55 L19.15 29.65 M13.85 18.2 Q13.85 17.7 13.45 17.95 13.0 18.25 13.0 18.45 L13.05 18.65 13.35 18.65 13.85 18.2 M14.05 19.05 L13.7 19.45 Q14.1 21.6 15.85 23.05 16.05 20.55 14.05 19.05" fill="#9a0000" fill-rule="evenodd" stroke="none"/>
      <path d="M9.9 2.0 L10.6 1.85 12.3 2.1 12.6 2.5 Q12.6 3.05 11.8 3.05 L10.25 2.75 Q9.65 2.5 9.65 2.3 9.65 2.1 9.9 2.0 M16.8 16.5 L17.1 17.3 17.1 17.5 17.1 17.9 16.65 18.2 Q16.25 18.2 15.55 16.5 15.55 15.9 16.35 16.2 L16.8 16.5 M13.85 18.2 L13.35 18.65 13.05 18.65 13.0 18.45 Q13.0 18.25 13.45 17.95 13.85 17.7 13.85 18.2" fill="#ffdcc7" fill-rule="evenodd" stroke="none"/>
      <path d="M14.3 3.75 L15.1 4.05 15.55 4.5 3.05 3.9 3.45 3.6 Q6.05 2.8 8.7 3.05 L14.3 3.75 M21.15 26.05 Q18.45 24.7 16.75 22.1 15.25 19.85 14.35 17.25 13.5 14.75 12.15 12.3 L12.4 11.75 Q14.15 13.85 15.0 16.5 15.95 19.45 18.1 21.5 20.15 23.35 21.15 26.05 M14.05 19.05 Q16.05 20.55 15.85 23.05 14.1 21.6 13.7 19.45 L14.05 19.05" fill="#6b0000" fill-rule="evenodd" stroke="none"/>
      <path d="M18.95 0.0 Q18.3 5.85 13.0 7.5 16.05 11.2 17.75 15.9 20.0 22.3 25.7 24.85 23.35 28.35 19.05 29.0 20.6 30.75 22.8 31.6 L22.5 32.25 Q21.1 34.9 18.3 35.9 L18.9 38.7 Q15.2 43.7 9.5 45.8 14.15 42.7 17.75 38.15 L17.2 35.2 Q19.65 34.55 21.3 32.15 19.55 31.0 18.3 29.15 L17.9 29.15 17.4 29.1 Q17.3 29.0 19.45 28.3 21.5 27.6 24.4 25.1 22.25 25.1 19.8 22.25 17.3 19.4 12.6 7.6 L11.95 7.7 10.7 7.45 Q10.0 7.3 10.1 6.8 L10.55 6.65 Q15.55 6.85 17.5 2.0 L14.45 2.35 1.7 2.7 1.4 2.35 1.85 1.6 Q5.05 0.9 10.1 1.45 15.15 2.0 18.95 0.0" fill="#4a0000" fill-rule="evenodd" stroke="none"/>
    </g>
    <g id="sprite1">
      <use ffdec:characterId="3" height="51.85" transform="matrix(1.0, 0.0, 0.0, 1.0, 0.0, 0.0)" width="45.3" xlink:href="#shape1"/>
    </g>
    <g id="shape1">
      <path d="M9.45 14.2 Q7.7 13.15 7.7 12.55 7.7 11.95 8.25 12.1 L8.4 12.2 8.45 12.15 9.55 12.1 11.15 12.0 11.95 11.4 15.95 10.3 Q17.35 9.6 19.15 8.95 22.75 7.75 25.9 7.75 L26.55 7.75 Q26.9 7.05 29.25 7.35 30.75 7.55 31.45 7.9 L31.65 7.9 29.8 6.35 Q26.1 2.95 26.1 1.85 26.1 0.55 27.85 2.3 L30.4 2.9 38.0 5.2 Q39.95 5.45 42.55 7.95 L44.55 10.2 Q45.3 10.85 45.3 12.2 L44.95 13.75 44.6 14.6 44.65 15.0 Q43.65 12.35 41.55 10.45 39.4 8.45 36.95 7.0 34.55 5.5 31.95 4.85 L29.95 4.6 Q31.4 6.45 33.5 7.6 35.65 8.75 37.75 10.2 L39.35 11.35 Q37.5 10.2 35.45 9.75 L32.15 9.25 29.35 9.1 25.8 9.5 22.45 10.3 Q20.9 10.8 19.35 11.45 16.6 12.45 13.65 13.0 10.85 13.6 8.25 12.6 L8.35 13.05 9.45 14.2 M12.6 46.3 L10.85 44.9 Q9.5 43.95 9.25 43.3 L12.6 46.3 M9.7 42.05 L8.2 39.6 7.15 38.6 Q6.4 37.95 6.4 37.45 6.4 37.25 7.5 35.8 L8.95 34.0 5.5 33.15 9.45 33.7 9.2 35.0 Q8.9 36.9 7.65 38.25 L8.45 39.1 Q9.55 40.25 11.05 40.95 L9.7 42.05 M3.4 32.5 Q0.9 31.65 0.9 31.3 L4.15 27.9 9.3 22.65 11.2 20.55 13.05 18.3 Q13.6 17.5 14.7 16.8 L15.4 16.9 12.65 21.8 12.35 22.35 9.1 26.95 Q7.2 29.3 4.8 31.0 3.85 31.6 2.85 32.15 L3.4 32.5 M20.8 9.8 L21.0 9.9 25.1 8.45 24.45 8.5 24.2 8.4 22.5 8.8 Q20.9 9.25 20.8 9.8 M10.4 24.45 L11.0 23.5 Q11.0 23.1 10.7 23.05 10.3 22.95 9.9 23.5 L7.35 26.8 Q7.95 26.7 8.6 26.2 L9.65 25.35 10.4 24.45" fill="#ff2020" fill-rule="evenodd" stroke="none"/>
      <path d="M9.45 14.2 L8.35 13.05 8.25 12.6 Q10.85 13.6 13.65 13.0 16.6 12.45 19.35 11.45 20.9 10.8 22.45 10.3 L25.8 9.5 23.1 10.6 18.6 12.2 13.85 13.25 15.6 13.6 18.15 14.0 23.25 12.6 28.95 11.45 Q32.1 10.9 35.25 11.45 L34.65 11.05 Q32.25 9.7 29.35 9.1 L32.15 9.25 35.45 9.75 Q37.5 10.2 39.35 11.35 L37.75 10.2 Q35.65 8.75 33.5 7.6 31.4 6.45 29.95 4.6 L31.95 4.85 Q34.55 5.5 36.95 7.0 39.4 8.45 41.55 10.45 43.65 12.35 44.65 15.0 45.35 17.7 43.9 20.25 L42.25 20.5 42.0 20.15 38.65 19.75 32.8 19.4 Q29.7 19.9 26.7 20.75 23.9 21.55 21.75 23.55 19.75 25.35 18.6 27.8 17.65 29.95 17.15 32.15 16.35 35.7 16.6 39.15 16.85 43.1 17.55 47.0 17.95 49.4 17.75 51.65 L17.1 51.85 15.9 50.9 Q13.7 49.0 12.6 46.3 L9.25 43.3 9.25 42.45 9.7 42.05 11.05 40.95 Q9.55 40.25 8.45 39.1 L7.65 38.25 Q8.9 36.9 9.2 35.0 L9.45 33.7 5.5 33.15 3.4 32.5 2.85 32.15 Q3.85 31.6 4.8 31.0 L5.55 31.1 Q6.7 31.15 7.35 30.45 L8.15 29.6 8.85 29.9 Q10.55 30.2 11.5 28.7 L12.5 27.15 11.7 27.1 11.65 26.65 11.1 27.05 9.55 28.25 9.1 28.65 9.75 27.95 Q11.55 26.2 12.8 23.85 L14.35 20.3 12.35 22.35 12.65 21.8 15.4 16.9 14.7 16.8 14.1 16.7 Q11.5 15.95 9.45 14.2 M10.65 30.55 L11.2 30.65 Q12.15 30.45 12.5 29.65 L11.85 29.6 11.25 29.9 10.65 30.55" fill="#9a0000" fill-rule="evenodd" stroke="none"/>
      <path d="M25.8 9.5 L29.35 9.1 Q32.25 9.7 34.65 11.05 L35.25 11.45 Q32.1 10.9 28.95 11.45 L23.25 12.6 18.15 14.0 15.6 13.6 13.85 13.25 18.6 12.2 23.1 10.6 25.8 9.5 M12.35 22.35 L14.35 20.3 12.8 23.85 Q11.55 26.2 9.75 27.95 L9.1 28.65 9.55 28.25 11.1 27.05 11.65 26.65 11.7 27.1 12.5 27.15 11.5 28.7 Q10.55 30.2 8.85 29.9 L8.15 29.6 7.35 30.45 Q6.7 31.15 5.55 31.1 L4.8 31.0 Q7.2 29.3 9.1 26.95 L12.35 22.35 M10.65 30.55 L11.25 29.9 11.85 29.6 12.5 29.65 Q12.15 30.45 11.2 30.65 L10.65 30.55" fill="#6b0000" fill-rule="evenodd" stroke="none"/>
      <path d="M20.8 9.8 Q20.9 9.25 22.5 8.8 L24.2 8.4 24.45 8.5 25.1 8.45 21.0 9.9 20.8 9.8 M10.4 24.45 L9.65 25.35 8.6 26.2 Q7.95 26.7 7.35 26.8 L9.9 23.5 Q10.3 22.95 10.7 23.05 11.0 23.1 11.0 23.5 L10.4 24.45" fill="#ffdcc7" fill-rule="evenodd" stroke="none"/>
      <path d="M45.15 10.55 L44.9 11.15 Q42.55 7.35 38.45 6.05 L26.2 1.85 Q27.35 3.95 29.3 5.05 34.0 7.75 39.15 9.9 L39.55 10.8 32.25 8.15 31.85 8.35 Q24.55 6.6 17.65 10.15 13.15 12.4 8.1 12.55 L8.75 13.1 Q12.0 15.95 16.55 16.25 13.25 17.95 11.1 20.85 6.8 26.7 1.3 31.45 5.3 33.1 9.65 33.6 9.8 34.25 9.4 34.75 L6.8 38.05 10.1 41.2 9.9 42.1 9.25 42.75 Q14.0 46.75 17.2 51.7 L16.4 51.7 Q11.5 47.5 7.7 42.3 L8.75 41.9 5.45 37.85 7.8 34.7 6.15 34.55 Q2.35 34.1 0.0 31.4 2.2 29.75 3.85 27.75 L13.25 16.95 Q8.7 16.15 6.25 11.95 L11.3 10.9 Q13.85 10.55 16.35 9.45 22.0 6.9 28.4 6.45 L27.35 5.15 Q25.45 2.9 25.05 0.0 28.95 1.9 33.15 2.9 40.7 4.65 45.15 10.55" fill="#4a0000" fill-rule="evenodd" stroke="none"/>
    </g>
    <g id="sprite2">
      <use ffdec:characterId="5" height="28.45" transform="matrix(1.0, 0.0, 0.0, 1.0, 0.0, 0.0)" width="11.95" xlink:href="#shape2"/>
    </g>
    <g id="shape2">
      <path d="M1.2 8.3 L0.95 6.75 0.7 3.35 Q0.7 1.6 0.85 0.75 L1.15 0.05 1.5 -0.55 2.95 -1.75 Q4.25 -2.8 6.2 -2.95 8.05 -3.05 8.75 -2.35 9.75 -1.55 10.0 -0.2 L10.1 1.95 10.1 2.0 Q10.35 2.4 10.25 3.5 L10.2 4.75 Q10.45 4.85 10.35 5.35 L10.25 5.85 10.25 9.4 10.1 9.65 9.85 15.5 9.7 16.35 Q8.2 14.5 7.55 12.35 L6.15 7.75 5.65 6.35 5.7 10.6 Q5.75 12.9 6.3 15.15 L7.55 19.6 7.5 19.85 7.4 19.95 6.5 19.05 6.4 19.05 5.7 18.5 5.3 17.8 5.0 17.5 6.3 18.65 5.05 15.4 Q4.2 13.4 3.9 9.9 3.65 6.35 4.15 3.7 L3.75 3.4 3.3 3.5 Q2.5 4.4 1.9 5.75 1.25 7.1 1.2 8.3 M3.45 15.65 L2.45 14.0 2.2 13.05 2.55 13.85 3.45 15.65" fill="#aa0000" fill-rule="evenodd" stroke="none"/>
      <path d="M5.0 17.5 L5.2 18.0 4.75 17.55 Q3.9 16.8 3.45 15.65 L2.55 13.85 2.2 13.05 1.7 11.5 Q1.35 10.55 1.35 9.0 L1.4 8.9 1.2 8.3 Q1.25 7.1 1.9 5.75 2.5 4.4 3.3 3.5 L3.75 3.4 4.15 3.7 Q3.65 6.35 3.9 9.9 4.2 13.4 5.05 15.4 L6.3 18.65 5.0 17.5" fill="#6b0000" fill-rule="evenodd" stroke="none"/>
      <path d="M10.1 9.65 L10.6 15.35 10.8 20.8 10.9 23.2 Q9.35 22.05 8.2 20.5 L7.55 19.6 6.3 15.15 Q5.75 12.9 5.7 10.6 L5.65 6.35 6.15 7.75 7.55 12.35 Q8.2 14.5 9.7 16.35 L9.85 15.5 10.1 9.65" fill="#ff2020" fill-rule="evenodd" stroke="none"/>
      <path d="M10.8 22.85 Q10.3 20.7 9.95 18.55 8.8 11.45 10.3 4.6 10.3 9.45 10.9 14.7 L11.95 25.5 6.65 20.3 Q3.5 17.35 1.2 11.9 -1.15 6.4 1.1 0.0 0.65 4.15 1.4 8.35 2.5 14.15 6.5 18.55 L5.25 13.15 Q6.85 19.3 10.8 22.85" fill="#4a0000" fill-rule="evenodd" stroke="none"/>
    </g>
    <g id="sprite3">
      <use ffdec:characterId="7" height="25.45" transform="matrix(1.0, 0.0, 0.0, 1.0, 0.0, 0.0)" width="18.45" xlink:href="#shape3"/>
    </g>
    <g id="shape3">
      <path d="M10.7 3.55 L13.0 6.05 12.5 6.2 Q12.3 6.2 12.0 6.0 L11.7 6.4 11.35 6.7 11.1 6.65 Q10.75 5.0 10.75 4.2 L10.5 3.65 10.7 3.55" fill="#ffdf8e" fill-rule="evenodd" stroke="none"/>
      <path d="M13.0 6.05 L10.7 3.55 Q8.75 1.85 6.4 0.75 L6.4 0.6 6.65 0.6 7.6 0.75 Q9.25 0.75 11.9 3.35 13.8 5.2 14.55 6.35 L16.5 9.5 17.7 11.85 17.85 12.3 17.8 12.65 17.5 13.0 17.05 12.75 Q16.45 12.15 15.5 9.95 15.15 8.95 13.55 6.8 L13.0 6.05" fill="#ff4848" fill-rule="evenodd" stroke="none"/>
      <path d="M10.7 3.55 L10.5 3.65 10.75 4.2 Q10.75 5.0 11.1 6.65 L11.35 6.7 11.7 6.4 12.0 6.0 Q12.3 6.2 12.5 6.2 L13.0 6.05 13.55 6.8 Q15.15 8.95 15.5 9.95 16.45 12.15 17.05 12.75 L17.0 12.75 14.1 11.05 13.7 10.7 13.7 10.8 Q14.05 11.95 14.05 14.55 13.8 21.1 13.05 22.95 L13.25 21.45 Q13.5 19.5 13.35 17.6 L13.35 17.05 Q13.35 12.8 11.5 9.35 9.3 5.25 4.85 2.8 L3.0 1.65 1.95 2.25 3.6 4.85 2.5 3.85 1.7 3.8 1.35 4.5 2.0 5.75 Q4.1 10.0 3.45 14.65 3.25 13.15 2.3 10.95 L1.9 10.1 Q0.95 9.45 0.4 6.95 L0.0 3.6 Q0.0 2.05 0.3 1.5 1.15 0.0 4.15 0.0 9.8 0.0 14.2 5.35 17.6 9.45 17.7 11.85 L16.5 9.5 14.55 6.35 Q13.8 5.2 11.9 3.35 9.25 0.75 7.6 0.75 L6.65 0.6 6.4 0.6 6.4 0.75 Q8.75 1.85 10.7 3.55 M12.05 23.5 Q11.55 23.05 11.15 21.6 L10.35 18.6 9.25 15.45 7.55 18.0 8.3 16.2 Q9.45 13.0 8.7 9.55 L9.8 12.6 Q11.55 17.85 12.05 23.5 M4.25 20.9 L3.8 21.1 3.95 20.85 4.25 20.9 M2.7 19.55 L3.05 17.75 3.5 15.6 3.4 17.75 2.7 19.55" fill="#ff2020" fill-rule="evenodd" stroke="none"/>
      <path d="M3.45 14.65 Q4.1 10.0 2.0 5.75 L1.35 4.5 1.7 3.8 2.5 3.85 3.6 4.85 1.95 2.25 3.0 1.65 4.85 2.8 3.95 2.35 Q8.95 6.7 10.85 12.15 12.3 16.25 12.3 22.05 L12.35 22.5 12.6 22.45 13.05 19.9 13.35 17.6 Q13.5 19.5 13.25 21.45 L13.05 22.95 12.7 24.7 12.05 23.5 Q11.55 17.85 9.8 12.6 L8.7 9.55 Q9.45 13.0 8.3 16.2 L7.55 18.0 4.25 20.9 3.95 20.85 4.45 19.85 4.85 19.6 5.9 17.35 5.95 18.2 6.9 18.3 7.75 16.5 Q8.5 14.9 8.2 13.3 L7.5 13.35 7.15 12.85 6.3 13.1 5.7 12.7 5.65 13.9 5.0 17.15 5.25 15.75 Q6.0 10.8 3.3 6.5 L3.55 7.95 Q4.35 12.75 3.4 17.75 L3.5 15.6 3.45 14.65" fill="#aa0000" fill-rule="evenodd" stroke="none"/>
      <path d="M4.85 2.8 Q9.3 5.25 11.5 9.35 13.35 12.8 13.35 17.05 L13.35 17.6 13.05 19.9 12.6 22.45 12.35 22.5 12.3 22.05 Q12.3 16.25 10.85 12.15 8.95 6.7 3.95 2.35 L4.85 2.8 M3.8 21.1 L3.2 21.65 2.15 21.6 2.7 19.55 3.4 17.75 Q4.35 12.75 3.55 7.95 L3.3 6.5 Q6.0 10.8 5.25 15.75 L5.0 17.15 5.65 13.9 5.7 12.7 6.3 13.1 7.15 12.85 7.5 13.35 8.2 13.3 Q8.5 14.9 7.75 16.5 L6.9 18.3 5.95 18.2 5.9 17.35 4.85 19.6 4.45 19.85 3.95 20.85 3.8 21.1" fill="#6b0000" fill-rule="evenodd" stroke="none"/>
      <path d="M11.2 3.05 L8.95 1.3 6.25 0.2 Q11.45 1.0 15.0 5.0 18.65 9.15 18.45 14.6 L15.55 12.65 14.15 11.5 Q15.55 17.4 13.4 22.85 L12.3 25.35 11.6 25.45 9.0 16.3 Q7.6 19.15 4.8 20.95 3.25 21.9 1.3 22.1 3.25 17.85 2.25 13.15 1.7 10.4 0.8 8.05 4.85 13.75 3.0 20.6 5.15 20.35 6.7 18.7 8.45 16.85 8.95 14.6 11.2 18.7 12.1 23.45 14.9 17.75 13.25 11.6 L12.85 10.05 13.65 9.95 17.15 12.35 Q15.6 6.8 11.2 3.05" fill="#4a0000" fill-rule="evenodd" stroke="none"/>
    </g>
    <g id="sprite4">
      <use ffdec:characterId="9" height="35.4" transform="matrix(1.0, 0.0, 0.0, 1.0, 0.0, 0.0)" width="35.4" xlink:href="#shape4"/>
    </g>
    <g id="shape4">
      <path d="M31.65 11.5 L32.55 11.45 32.55 10.95 Q31.05 9.9 27.85 9.75 24.65 9.6 18.35 11.65 22.05 8.7 28.6 8.1 L29.3 8.6 Q30.05 9.05 30.2 8.45 L29.15 7.2 Q25.1 3.05 19.8 0.8 L19.1 0.95 18.95 1.2 18.55 0.85 Q18.55 0.2 19.75 0.2 23.9 0.2 26.55 1.55 L31.95 5.35 33.4 6.75 33.85 7.05 Q34.55 7.85 34.95 9.55 35.4 10.55 35.4 12.6 35.4 14.85 33.85 17.25 L30.9 21.0 Q33.3 17.55 33.2 13.45 L33.15 12.2 29.6 17.65 29.7 16.55 29.0 17.7 29.3 17.05 27.95 18.9 Q29.35 16.8 29.35 14.35 27.7 17.45 26.4 18.45 L24.65 19.4 Q18.9 22.75 16.2 24.85 10.75 29.15 6.65 33.1 L6.35 33.55 5.4 34.25 5.25 34.0 Q5.25 33.8 5.4 33.55 L6.55 32.25 11.8 27.15 13.95 25.4 Q18.45 21.85 23.6 18.55 19.3 19.3 15.75 22.1 16.25 20.6 16.9 19.1 17.5 17.65 18.25 16.25 15.25 18.5 12.8 21.3 L11.5 22.85 11.85 22.35 11.35 22.65 Q2.75 28.25 1.5 28.25 0.7 28.25 0.7 27.7 0.7 27.35 1.05 27.0 L1.35 26.5 Q6.45 25.0 10.5 21.35 L13.3 19.1 Q16.95 16.15 21.2 14.3 25.25 12.55 29.75 11.8 L30.9 11.7 31.65 11.65 31.65 11.5 M24.65 5.3 L23.35 4.75 23.85 4.7 24.65 5.3 M5.75 18.95 L14.85 15.9 13.95 16.7 Q10.25 19.9 5.35 19.2 L5.75 18.95 M27.6 4.45 L28.15 4.2 26.75 2.75 Q25.75 2.1 25.75 3.1 L26.55 3.9 27.6 4.45 M20.0 28.5 L18.8 29.6 Q21.6 28.75 24.2 27.15 L22.9 28.05 Q18.15 31.35 17.45 31.35 16.8 31.35 16.8 30.85 16.8 30.1 19.55 26.9 L22.3 23.85 19.75 28.1 20.9 27.3 20.0 28.5" fill="#ff2020" fill-rule="evenodd" stroke="none"/>
      <path d="M31.65 11.5 L31.65 11.65 30.9 11.7 29.75 11.8 Q25.25 12.55 21.2 14.3 16.95 16.15 13.3 19.1 L10.5 21.35 6.85 23.75 5.6 24.4 12.65 17.9 Q15.9 14.95 19.5 13.35 23.05 11.75 25.6 11.45 28.65 11.1 31.65 11.5 M11.8 27.15 L6.55 32.25 5.7 32.75 6.0 32.15 Q8.25 28.25 11.55 25.3 12.9 24.15 14.5 23.8 L14.5 24.0 11.8 27.15 M27.95 18.9 L29.3 17.05 29.0 17.7 Q27.5 22.15 25.0 24.5 L21.35 27.6 20.0 28.5 20.9 27.3 27.95 18.9 M18.95 1.2 L19.1 0.95 19.8 0.8 Q25.1 3.05 29.15 7.2 L30.2 8.45 Q30.05 9.05 29.3 8.6 L28.6 8.1 24.65 5.3 23.85 4.7 18.95 1.2 M14.95 8.9 L13.9 10.1 12.65 11.4 13.9 10.85 14.3 11.4 Q12.95 13.25 11.0 14.5 L10.65 14.55 Q8.95 14.65 7.7 17.1 7.05 18.35 5.75 18.95 L5.35 19.2 4.6 19.6 4.25 19.75 2.85 20.05 2.5 19.45 9.5 12.75 Q11.95 10.3 14.95 8.9 M14.55 13.65 Q13.25 15.1 11.4 16.1 L10.8 16.45 10.1 16.35 Q11.35 14.0 14.35 13.25 14.95 13.15 14.55 13.65" fill="#6b0000" fill-rule="evenodd" stroke="none"/>
      <path d="M28.6 8.1 Q22.05 8.7 18.35 11.65 24.65 9.6 27.85 9.75 31.05 9.9 32.55 10.95 L32.55 11.45 31.65 11.5 Q28.65 11.1 25.6 11.45 23.05 11.75 19.5 13.35 15.9 14.95 12.65 17.9 L5.6 24.4 6.85 23.75 10.5 21.35 Q6.45 25.0 1.35 26.5 3.1 23.0 5.75 19.85 L4.75 19.65 4.6 19.6 5.35 19.2 Q10.25 19.9 13.95 16.7 L14.85 15.9 5.75 18.95 Q7.05 18.35 7.7 17.1 8.95 14.65 10.65 14.55 L11.0 14.5 Q12.95 13.25 14.3 11.4 L13.9 10.85 12.65 11.4 13.9 10.1 14.95 8.9 Q17.55 6.9 20.35 5.35 L23.35 4.75 24.65 5.3 28.6 8.1 M11.5 22.85 L12.8 21.3 Q15.25 18.5 18.25 16.25 17.5 17.65 16.9 19.1 16.25 20.6 15.75 22.1 19.3 19.3 23.6 18.55 18.45 21.85 13.95 25.4 L11.8 27.15 14.5 24.0 14.5 23.8 Q12.9 24.15 11.55 25.3 8.25 28.25 6.0 32.15 8.05 27.15 11.5 22.85 M6.55 32.25 L5.4 33.55 5.7 32.75 6.55 32.25 M29.0 17.7 L29.7 16.55 29.6 17.65 33.15 12.2 33.2 13.45 Q33.3 17.55 30.9 21.0 L30.25 21.85 Q27.65 25.05 24.2 27.15 21.6 28.75 18.8 29.6 L20.0 28.5 21.35 27.6 25.0 24.5 Q27.5 22.15 29.0 17.7 M2.85 20.05 L2.35 20.25 2.0 20.3 1.55 20.15 2.5 19.45 2.85 20.05 M14.55 13.65 Q14.95 13.15 14.35 13.25 11.35 14.0 10.1 16.35 L10.8 16.45 11.4 16.1 Q13.25 15.1 14.55 13.65" fill="#aa0000" fill-rule="evenodd" stroke="none"/>
      <path d="M27.6 4.45 L26.55 3.9 25.75 3.1 Q25.75 2.1 26.75 2.75 L28.15 4.2 27.6 4.45" fill="#ffdf8e" fill-rule="evenodd" stroke="none"/>
      <path d="M26.4 18.45 Q27.7 17.45 29.35 14.35 29.35 16.8 27.95 18.9 L20.9 27.3 19.75 28.1 22.3 23.85 Q24.2 21.85 25.65 19.55 L26.4 18.45 M20.35 5.35 Q17.55 6.9 14.95 8.9 11.95 10.3 9.5 12.75 L2.5 19.45 1.55 20.15 Q1.25 20.05 1.25 19.7 1.25 19.0 2.2 18.55 3.05 17.35 5.0 15.1 L9.05 10.75 Q12.4 8.25 15.35 6.95 17.6 6.0 20.35 5.35" fill="#ff4848" fill-rule="evenodd" stroke="none"/>
      <path d="M4.6 19.6 L4.75 19.65 4.25 19.75 4.6 19.6 M2.35 20.25 L2.1 20.3 2.0 20.3 2.35 20.25" fill="#f13232" fill-rule="evenodd" stroke="none"/>
      <path d="M32.9 19.15 Q30.2 24.35 25.35 27.5 20.65 30.7 15.3 32.4 19.4 25.5 23.4 21.35 19.9 22.95 15.6 26.5 L8.6 32.25 4.85 35.4 Q6.05 29.5 9.35 24.6 5.7 27.7 1.15 28.85 L0.0 28.4 Q1.9 23.85 5.4 20.05 L0.7 21.15 0.3 20.85 Q2.75 15.5 7.4 11.45 12.35 7.1 18.6 5.3 L21.9 4.6 23.0 5.1 Q16.75 5.65 11.6 9.4 6.8 12.8 3.4 17.45 L1.65 19.85 9.25 19.0 5.8 20.0 0.9 27.85 Q7.75 25.35 13.25 20.1 L18.35 15.1 Q12.9 21.0 8.75 27.8 6.85 30.9 5.35 34.1 L14.25 25.85 Q18.85 21.75 24.4 19.2 L27.2 17.9 17.05 30.95 Q22.15 28.55 26.7 24.9 31.0 21.45 34.05 17.0 L34.85 15.85 32.9 19.15 M20.65 0.95 L19.35 0.8 Q23.45 3.1 26.5 6.5 21.75 4.15 17.45 1.1 L16.35 0.3 Q21.0 -0.5 25.4 0.85 30.15 2.5 33.15 6.45 L33.95 7.55 Q28.7 1.65 20.65 0.95" fill="#4a0000" fill-rule="evenodd" stroke="none"/>
    </g>
  </defs>
</svg>
