<?xml version="1.0" encoding="UTF-8" standalone="no"?>
<svg xmlns:ffdec="https://www.free-decompiler.com/flash" xmlns:xlink="http://www.w3.org/1999/xlink" ffdec:objectType="frame" height="55.3px" width="52.3px" xmlns="http://www.w3.org/2000/svg">
  <g transform="matrix(1.0, 0.0, 0.0, 1.0, 26.1, 34.35)">
    <use ffdec:characterId="12" height="55.3" transform="matrix(1.0, 0.0, 0.0, 1.0, -26.1, -34.35)" width="52.3" xlink:href="#sprite0"/>
  </g>
  <defs>
    <g id="sprite0">
      <use ffdec:characterId="11" height="50.65" transform="matrix(1.0, 0.0, 0.0, 1.0, 0.0, 0.0)" width="52.3" xlink:href="#shape0"/>
      <use ffdec:characterId="3" height="23.75" transform="matrix(-1.0, 0.0, 0.0, 1.0, 51.45, 28.45)" width="12.75" xlink:href="#sprite1"/>
      <use ffdec:characterId="3" height="23.75" transform="matrix(1.0, 0.0, 0.0, 1.0, 0.85, 28.55)" width="12.75" xlink:href="#sprite1"/>
      <use ffdec:characterId="6" height="27.95" transform="matrix(1.0, 0.0, 0.0, 1.0, 4.95, 0.65)" width="43.4" xlink:href="#sprite2"/>
      <use ffdec:characterId="8" height="13.15" transform="matrix(1.0, 0.0, 0.0, 1.0, 6.25, 0.0)" width="20.25" xlink:href="#sprite3"/>
    </g>
    <g id="shape0">
      <path d="M35.3 51.1 L35.25 51.15 Q33.5 51.4 33.15 49.7 L32.6 49.45 32.2 49.15 32.15 49.15 33.1 50.5 Q30.85 51.2 29.7 49.35 L29.75 49.25 29.9 49.2 30.0 49.2 31.8 48.9 31.8 48.8 31.8 48.65 31.85 48.65 31.95 48.65 32.05 48.85 33.7 48.4 35.4 47.85 36.95 47.35 37.5 47.15 39.65 46.05 41.45 44.85 42.0 44.4 Q43.65 42.55 44.35 45.4 L44.4 47.9 44.45 48.7 44.0 50.2 Q43.3 52.15 41.5 53.95 L41.45 53.95 40.8 54.25 40.75 54.25 40.85 54.35 40.65 54.45 40.0 54.7 39.9 54.7 39.95 54.8 39.6 54.85 Q41.35 53.45 41.9 51.25 L42.1 50.35 Q39.65 52.2 36.75 51.95 L36.7 51.75 Q38.65 51.55 40.3 50.75 L41.2 50.25 41.4 50.05 41.95 49.3 42.4 48.6 42.4 49.4 43.15 49.05 Q43.25 47.0 42.45 45.2 42.2 47.15 41.05 48.75 L40.65 49.35 40.15 49.85 39.6 50.3 39.0 50.75 Q39.75 48.9 39.6 46.95 39.4 48.35 38.35 49.55 38.6 48.4 38.0 47.75 L37.9 47.65 37.9 47.75 37.65 48.05 37.6 48.0 37.55 48.05 37.55 48.1 37.15 48.3 36.6 48.7 36.1 49.4 35.8 50.1 35.75 50.2 35.75 50.35 35.5 50.65 35.35 51.05 35.35 51.1 35.3 51.1 M13.4 52.2 L13.45 52.2 13.55 52.55 13.1 52.3 12.1 51.95 12.0 51.8 11.65 51.55 11.4 51.3 10.4 50.35 9.85 49.85 9.5 49.75 9.4 49.6 Q8.1 47.55 8.65 45.1 L8.65 43.1 12.35 45.85 Q11.8 46.6 11.9 47.6 L12.1 49.45 12.65 51.3 13.25 52.05 13.4 52.2 M14.15 46.85 L15.6 47.45 15.65 47.45 15.9 47.5 15.85 47.6 18.2 48.4 18.3 48.45 18.45 48.45 18.55 48.5 18.5 49.05 18.0 50.0 17.55 51.0 17.25 50.85 16.95 50.7 16.15 49.8 Q15.8 49.05 15.55 47.9 L15.5 47.85 15.0 48.05 14.65 48.6 14.45 49.6 14.3 49.3 Q14.05 48.7 14.05 47.6 L14.15 46.85 M18.95 48.65 L19.25 48.65 19.3 48.65 23.5 49.3 22.7 49.85 21.15 50.65 19.4 50.7 19.45 50.5 18.95 48.7 18.95 48.65" fill="#649b23" fill-rule="evenodd" stroke="none"/>
      <path d="M44.45 48.7 L44.4 51.35 44.4 51.4 43.75 52.3 42.5 53.55 41.35 54.3 40.9 54.5 40.75 54.55 40.35 54.7 40.15 54.75 40.0 54.75 40.0 54.7 40.65 54.45 40.85 54.35 40.8 54.25 41.45 53.95 41.5 53.95 Q43.3 52.15 44.0 50.2 L44.45 48.7 M37.1 51.05 L37.5 49.7 37.9 47.85 38.0 47.75 Q38.6 48.4 38.35 49.55 39.4 48.35 39.6 46.95 39.75 48.9 39.0 50.75 L39.6 50.3 40.15 49.85 40.65 49.35 41.05 48.75 Q42.2 47.15 42.45 45.2 43.25 47.0 43.15 49.05 L42.4 49.4 42.4 48.6 41.95 49.3 41.4 50.05 41.2 50.25 40.3 50.75 Q38.65 51.55 36.7 51.75 L37.1 51.05 M13.4 52.2 L13.25 52.05 12.65 51.3 12.1 49.45 11.9 47.6 Q11.8 46.6 12.35 45.85 L14.0 46.75 14.15 46.8 14.15 46.85 14.05 47.6 Q14.05 48.7 14.3 49.3 L14.45 49.6 14.65 48.6 15.0 48.05 15.5 47.85 15.5 47.9 15.55 47.9 Q15.8 49.05 16.15 49.8 L16.95 50.7 17.25 50.85 17.55 51.0 18.0 50.0 18.5 49.05 18.55 48.5 18.55 48.45 18.7 48.5 18.95 48.65 18.95 48.7 19.45 50.5 19.4 50.7 18.95 50.95 18.3 51.2 18.3 51.3 18.2 51.35 17.95 51.45 17.55 51.5 17.5 51.5 16.8 51.25 16.35 51.05 16.45 50.95 16.45 50.9 15.95 50.45 15.45 49.75 Q15.1 49.75 14.95 49.5 L15.0 50.2 15.2 50.85 15.3 51.0 15.05 51.1 Q14.6 51.1 14.1 50.0 L13.7 48.55 13.8 47.9 13.7 47.9 13.65 47.95 13.65 48.7 13.7 48.75 13.4 49.5 13.25 50.0 13.25 50.9 13.25 51.3 13.2 51.5 13.2 51.55 13.3 51.8 13.4 52.2 M13.8 47.3 L13.85 47.4 13.85 47.25 13.8 47.3 M18.4 50.65 L18.35 50.8 18.65 50.55 18.55 49.6 18.4 50.65" fill="#3e5523" fill-rule="evenodd" stroke="none"/>
      <path d="M40.15 54.75 L39.95 54.8 39.9 54.7 40.0 54.75 40.15 54.75 M36.75 51.95 L35.85 51.85 37.1 51.05 36.7 51.75 36.75 51.95 M37.65 48.05 L36.55 49.35 36.25 49.55 Q35.95 49.75 35.85 50.1 L35.8 50.2 35.75 50.35 35.75 50.2 35.8 50.1 36.1 49.4 36.6 48.7 37.15 48.3 37.55 48.1 37.55 48.05 37.6 48.0 37.65 48.05 M35.35 51.1 L35.3 51.2 35.3 51.1 35.35 51.1 M17.95 51.45 L17.5 51.95 17.7 51.55 17.55 51.5 17.95 51.45 M16.45 50.95 L15.65 50.25 15.5 52.0 14.15 51.15 Q13.85 50.8 13.9 50.4 L13.8 49.95 13.55 49.8 Q13.35 49.8 13.3 49.95 L13.3 50.05 13.25 50.0 13.25 50.25 13.25 50.9 13.25 50.0 13.4 49.5 13.7 48.75 13.7 48.7 13.65 48.7 13.65 47.95 13.7 47.9 13.8 47.9 13.7 48.55 14.1 50.0 Q14.6 51.1 15.05 51.1 L15.3 51.0 15.2 50.85 15.0 50.2 14.95 49.5 Q15.1 49.75 15.45 49.75 L15.95 50.45 16.45 50.9 16.45 50.95 M15.5 47.85 L15.55 47.9 15.5 47.9 15.5 47.85 M13.8 47.3 L13.85 47.25 13.85 47.4 13.8 47.3 M18.4 50.65 L18.55 49.6 18.65 50.55 18.35 50.8 18.4 50.65" fill="#d57fa9" fill-rule="evenodd" stroke="none"/>
      <path d="M37.9 47.85 L37.9 47.75 37.9 47.65 38.0 47.75 37.9 47.85 M13.65 48.7 L13.7 48.7 13.7 48.75 13.65 48.7 M40.0 54.7 L40.0 54.75 39.9 54.7 40.0 54.7 M40.85 54.35 L40.75 54.25 40.8 54.25 40.85 54.35" fill="#933162" fill-rule="evenodd" stroke="none"/>
      <path d="M43.1 48.0 Q43.9 52.35 40.45 54.6 L39.6 54.85 Q41.35 53.45 41.9 51.25 L42.1 50.35 Q39.3 52.45 35.85 51.85 37.05 51.5 38.95 48.9 38.2 51.1 37.65 51.45 41.0 50.65 42.0 48.95 L42.85 47.3 43.0 48.15 43.1 48.0 M15.4 49.45 L15.45 48.2 Q15.5 50.35 17.15 51.4 15.9 51.0 15.65 50.25 L15.5 52.0 Q14.05 51.35 13.25 50.0 13.15 51.25 14.0 52.7 12.45 52.4 10.45 50.75 8.3 49.0 8.3 46.15 L8.65 45.2 Q9.15 46.9 10.45 49.3 11.45 51.2 13.25 52.15 12.75 49.5 13.85 47.15 13.55 48.8 14.55 50.25 L15.1 48.6 15.4 49.45 M33.1 48.65 Q33.4 49.85 34.2 50.75 33.95 49.65 34.7 48.8 34.55 50.1 35.3 51.05 L35.4 50.3 Q35.5 49.7 36.0 49.15 L37.95 47.7 Q35.95 49.8 35.3 51.35 L35.3 51.1 Q33.3 51.45 33.05 49.3 33.0 49.0 33.1 48.65 M31.9 48.6 L32.15 49.15 33.1 50.5 Q30.85 51.2 29.7 49.35 L32.05 50.15 Q31.8 49.7 31.8 48.8 L31.8 48.6 31.9 48.6 M17.85 51.7 L17.5 51.95 Q17.95 51.15 18.6 48.45 18.6 49.5 18.75 50.25 18.9 50.95 17.85 51.7 M18.9 50.7 Q20.1 50.55 21.2 48.85 21.25 49.65 20.45 50.3 L23.8 49.15 Q21.45 51.1 19.1 50.75 L18.9 50.7" fill="#23340e" fill-rule="evenodd" stroke="none"/>
      <path d="M43.7 9.65 L44.45 10.85 Q45.2 11.95 44.75 11.4 L43.4 10.25 Q41.6 8.8 39.55 7.85 L40.15 8.25 Q43.4 10.3 45.5 13.6 47.0 16.05 47.9 18.7 L47.9 17.85 Q47.85 16.15 47.1 14.65 47.9 15.85 48.5 16.1 48.1 13.55 46.15 11.6 45.0 10.5 43.7 9.65 M0.55 21.6 L0.55 21.25 0.55 20.9 0.45 20.85 0.9 18.75 1.85 16.25 1.0 19.35 0.75 20.85 1.05 19.35 1.45 18.2 Q1.75 16.95 2.2 15.8 L2.6 15.85 3.6 14.85 4.45 13.3 Q4.85 12.45 7.0 10.6 L10.25 8.2 10.9 7.7 13.1 5.75 13.25 5.75 15.05 5.25 15.65 5.05 16.1 5.2 17.55 4.8 17.6 4.8 Q20.7 4.7 23.65 5.5 L25.05 5.9 24.05 5.65 24.9 5.9 Q25.5 6.0 26.15 6.25 L26.4 6.15 27.55 5.7 Q30.75 4.65 34.1 4.7 L34.3 4.95 37.35 4.9 37.7 5.15 38.55 5.6 39.65 5.95 40.1 5.85 Q44.05 7.55 46.95 10.85 49.15 13.35 50.2 16.25 L50.2 16.3 50.55 17.3 50.5 17.45 Q50.5 17.8 50.65 17.95 L50.75 18.05 50.95 19.0 50.95 19.1 50.95 19.15 50.85 19.6 50.5 18.4 50.3 18.4 50.3 18.95 Q50.6 24.7 50.1 28.55 L49.75 30.75 Q49.55 27.7 48.7 26.0 L48.75 28.05 Q48.65 30.1 48.1 31.8 L47.25 34.15 46.5 35.65 46.45 35.25 Q46.4 34.9 46.0 34.9 L46.0 34.8 45.75 31.45 Q45.75 31.05 45.9 30.8 45.4 30.45 44.7 30.4 L44.1 30.4 43.65 28.95 43.4 28.25 43.15 27.75 43.15 25.95 43.2 25.1 43.15 24.8 43.25 22.5 Q42.75 22.5 35.7 19.75 28.6 17.0 13.4 22.45 L9.25 22.4 9.25 24.65 9.15 24.95 9.2 25.5 9.2 25.75 8.8 26.15 8.25 26.95 7.3 28.6 Q6.7 30.05 6.55 31.15 L6.3 31.65 6.35 32.85 6.25 35.05 6.5 36.35 6.2 37.35 6.25 37.5 6.65 37.6 6.35 40.15 6.45 40.75 6.4 41.35 6.45 41.35 6.85 38.55 6.85 39.05 7.0 41.45 7.0 41.7 7.15 43.2 7.2 42.85 7.8 39.05 7.9 39.05 Q7.75 40.6 7.75 43.15 L7.65 45.05 7.55 46.85 7.45 47.9 7.35 48.85 7.2 49.9 Q7.0 50.0 7.0 50.35 6.95 51.1 7.65 51.1 L8.1 51.05 8.1 50.9 7.65 50.5 7.65 50.2 8.05 50.25 8.15 50.55 8.2 51.45 Q8.45 54.45 11.25 55.3 9.6 55.25 8.3 54.3 7.35 53.55 7.0 52.75 L7.3 53.7 6.95 52.8 6.95 52.75 5.9 49.5 5.9 49.4 5.8 49.1 5.9 48.9 5.95 48.85 6.0 48.85 6.2 48.8 6.3 48.55 6.45 47.6 6.35 46.9 6.15 46.2 6.15 46.15 6.15 45.6 6.1 45.45 6.05 44.5 6.2 41.5 6.35 38.35 6.3 38.15 6.0 37.95 6.0 37.75 5.85 37.5 5.6 37.2 4.75 33.45 4.1 30.3 Q3.9 29.05 4.65 27.8 3.15 30.15 3.3 32.75 L3.25 33.25 2.25 29.2 Q2.0 27.45 2.0 24.8 L2.1 21.8 2.2 20.8 Q2.55 18.0 2.85 17.05 L2.4 17.1 2.4 17.35 2.25 17.8 2.05 18.8 Q1.8 19.4 1.85 19.8 L1.7 20.85 1.7 21.5 0.55 21.6 M46.3 49.05 Q45.5 50.85 45.5 51.7 L45.55 51.95 45.35 52.6 45.35 52.65 45.05 53.55 45.3 52.6 Q44.95 53.4 44.0 54.15 42.7 55.1 41.05 55.15 43.15 54.5 43.85 52.7 L43.95 52.7 Q44.35 52.7 44.25 52.1 L44.45 51.8 44.5 51.45 44.55 51.45 44.55 51.75 45.15 51.75 45.2 51.35 45.35 51.15 45.55 50.95 45.5 50.7 45.55 50.5 Q45.55 50.05 45.35 49.95 L45.1 49.0 44.85 47.05 44.4 44.45 45.25 46.15 45.45 46.4 45.65 46.75 45.75 46.45 45.5 45.9 44.95 41.2 44.65 39.0 44.65 38.55 44.2 35.35 44.05 34.15 44.8 36.2 45.5 37.95 45.75 38.9 46.3 39.7 46.35 39.65 46.4 39.4 46.3 40.2 46.45 40.45 46.4 40.85 46.6 41.85 46.65 42.8 46.25 48.25 46.25 49.05 46.3 49.05 M48.95 19.05 L48.9 19.0 48.85 19.05 48.95 19.05 M20.95 9.6 L20.5 9.5 Q18.85 9.4 18.5 10.6 20.55 11.1 22.6 10.1 L22.6 10.05 20.95 9.6 M34.2 7.25 L34.2 7.1 34.3 6.9 34.2 6.65 Q33.65 6.1 32.85 6.1 L30.6 6.25 Q29.45 6.55 28.25 7.25 30.65 7.4 31.9 6.6 L30.45 7.7 29.55 8.3 34.25 7.4 34.2 7.25 M32.6 8.7 Q31.55 8.7 30.8 9.25 L33.6 9.1 32.6 8.7 M22.85 7.45 Q18.95 5.8 13.85 7.7 12.15 8.35 10.7 9.6 8.6 11.45 7.0 13.95 5.7 15.9 4.7 18.35 3.75 20.7 3.2 22.95 L6.15 16.7 6.65 16.8 8.35 14.2 Q6.7 16.85 5.95 19.85 L5.8 20.45 Q7.9 17.0 10.75 13.95 L11.35 13.25 11.85 13.3 Q14.8 10.25 18.4 9.55 L23.7 9.1 15.65 9.35 Q18.25 8.1 21.05 7.7 L22.85 7.45 M5.35 33.7 L5.45 32.9 Q5.75 30.75 5.1 28.9 4.15 31.45 5.35 33.7" fill="#649b23" fill-rule="evenodd" stroke="none"/>
      <path d="M43.7 9.65 Q45.0 10.5 46.15 11.6 48.1 13.55 48.5 16.1 47.9 15.85 47.1 14.65 47.85 16.15 47.9 17.85 L47.9 18.7 Q47.0 16.05 45.5 13.6 43.4 10.3 40.15 8.25 L39.55 7.85 Q41.6 8.8 43.4 10.25 L44.75 11.4 Q45.2 11.95 44.45 10.85 L43.7 9.65 M32.6 8.7 L33.6 9.1 30.8 9.25 Q31.55 8.7 32.6 8.7 M34.2 7.25 L34.25 7.4 29.55 8.3 30.45 7.7 31.9 6.6 Q30.65 7.4 28.25 7.25 29.45 6.55 30.6 6.25 L32.85 6.1 Q33.65 6.1 34.2 6.65 L34.3 6.9 34.2 7.1 34.2 7.25 M20.95 9.6 L22.6 10.05 22.6 10.1 Q20.55 11.1 18.5 10.6 18.85 9.4 20.5 9.5 L20.95 9.6 M22.85 7.45 L21.05 7.7 Q18.25 8.1 15.65 9.35 L23.7 9.1 18.4 9.55 Q14.8 10.25 11.85 13.3 L11.35 13.25 10.75 13.95 Q7.9 17.0 5.8 20.45 L5.95 19.85 Q6.7 16.85 8.35 14.2 L6.65 16.8 6.15 16.7 3.2 22.95 Q3.75 20.7 4.7 18.35 5.7 15.9 7.0 13.95 8.6 11.45 10.7 9.6 12.15 8.35 13.85 7.7 18.95 5.8 22.85 7.45 M5.35 33.7 Q4.15 31.45 5.1 28.9 5.75 30.75 5.45 32.9 L5.35 33.7" fill="#9dde1b" fill-rule="evenodd" stroke="none"/>
      <path d="M50.95 19.1 L51.1 19.55 52.05 22.95 52.25 24.05 52.1 28.5 Q51.6 32.65 50.45 36.5 L47.65 45.55 46.95 47.75 46.95 47.8 46.5 48.65 46.3 49.05 46.25 49.05 46.25 48.25 46.65 42.8 46.6 41.85 46.4 40.85 46.45 40.45 46.3 40.2 46.4 39.4 46.35 39.65 46.3 39.7 45.75 38.9 45.5 37.95 44.8 36.2 44.05 34.15 44.2 35.35 44.65 38.55 44.65 39.0 44.95 41.2 45.5 45.9 45.75 46.45 45.65 46.75 45.45 46.4 45.25 46.15 44.4 44.45 44.85 47.05 45.1 49.0 45.35 49.95 Q45.55 50.05 45.55 50.5 L45.5 50.7 45.55 50.95 45.35 51.15 45.2 51.35 45.15 51.75 44.55 51.75 44.55 51.45 44.5 51.45 44.5 51.4 44.25 49.65 44.2 49.5 44.05 47.3 44.05 47.2 44.0 46.6 44.0 46.45 43.85 45.65 43.65 44.55 43.2 42.65 43.15 42.6 43.15 27.75 43.4 28.25 43.65 28.95 44.1 30.4 44.7 30.4 Q45.4 30.45 45.9 30.8 45.75 31.05 45.75 31.45 L46.0 34.8 46.0 34.9 Q46.4 34.9 46.45 35.25 L46.5 35.65 47.25 34.15 48.1 31.8 Q48.65 30.1 48.75 28.05 L48.7 26.0 Q49.55 27.7 49.75 30.75 L50.1 28.55 Q50.6 24.7 50.3 18.95 L50.3 18.4 50.5 18.4 50.85 19.6 50.95 19.15 50.95 19.1 M9.2 25.75 L9.2 27.6 9.15 28.2 9.3 28.6 9.35 34.8 9.35 35.4 9.5 41.2 9.5 42.45 9.25 43.15 9.2 43.2 9.1 43.8 8.8 44.45 8.7 44.9 8.65 45.0 8.5 45.6 Q8.1 47.1 8.1 48.5 L8.1 49.65 8.05 50.1 8.05 50.25 7.65 50.2 7.65 50.5 8.1 50.9 8.1 51.05 7.65 51.1 Q6.95 51.1 7.0 50.35 7.0 50.0 7.2 49.9 L7.35 48.85 7.45 47.9 7.55 46.85 7.65 45.05 7.75 43.15 Q7.75 40.6 7.9 39.05 L7.8 39.05 7.2 42.85 7.15 43.2 7.0 41.7 7.0 41.45 6.85 39.05 6.85 38.55 6.45 41.35 6.4 41.35 6.45 40.75 6.35 40.15 6.65 37.6 6.25 37.5 6.2 37.35 6.5 36.35 6.25 35.05 6.35 32.85 6.3 31.65 6.55 31.15 Q6.7 30.05 7.3 28.6 L8.25 26.95 8.8 26.15 9.2 25.75 M5.9 48.9 L5.9 48.8 5.55 48.3 5.4 47.75 5.45 47.75 5.3 47.6 5.25 47.55 5.25 47.35 5.15 47.25 4.65 45.7 1.85 36.65 Q0.7 32.8 0.2 28.65 -0.2 25.6 0.2 22.55 L0.45 22.15 0.55 21.6 1.7 21.5 1.7 20.85 1.85 19.8 Q1.8 19.4 2.05 18.8 L2.25 17.8 2.4 17.35 2.4 17.1 2.85 17.05 Q2.55 18.0 2.2 20.8 L2.1 21.8 2.0 24.8 Q2.0 27.45 2.25 29.2 L3.25 33.25 3.3 32.75 Q3.15 30.15 4.65 27.8 3.9 29.05 4.1 30.3 L4.75 33.45 5.6 37.2 5.85 37.5 6.0 37.75 6.0 37.95 6.3 38.15 6.35 38.35 6.2 41.5 6.05 44.5 6.1 45.45 6.15 45.6 6.15 46.15 6.15 46.2 6.35 46.9 6.45 47.6 6.3 48.55 6.2 48.8 6.0 48.85 5.95 48.85 5.9 48.9 M46.25 36.8 L46.05 36.8 45.75 36.75 45.8 37.05 46.05 38.3 46.2 38.9 46.4 39.4 46.4 39.3 46.25 38.6 46.1 38.0 46.15 37.05 Q46.25 36.9 46.5 36.85 L46.25 36.8" fill="#3e5523" fill-rule="evenodd" stroke="none"/>
      <path d="M46.25 36.8 L46.5 36.85 Q46.25 36.9 46.15 37.05 L46.1 38.0 46.25 38.6 46.4 39.3 46.4 39.4 46.2 38.9 46.05 38.3 45.8 37.05 45.75 36.75 46.05 36.8 46.25 36.8" fill="#d57fa9" fill-rule="evenodd" stroke="none"/>
      <path d="M50.45 16.1 L51.4 18.6 51.95 21.25 Q52.55 24.9 52.1 28.5 51.6 32.65 50.45 36.5 L47.65 45.55 45.0 53.65 45.3 52.6 Q44.95 53.4 44.0 54.15 42.7 55.1 41.05 55.15 43.85 54.3 44.1 51.3 44.35 48.25 43.75 45.2 L44.05 46.15 44.85 51.05 45.45 47.3 Q45.95 43.0 45.7 38.75 45.45 34.6 45.7 30.6 L46.15 30.45 46.3 32.8 46.7 40.8 Q46.85 44.85 46.5 48.7 L48.5 41.05 50.4 33.8 Q51.4 29.7 51.7 25.35 52.05 20.65 50.45 16.1 M51.15 21.2 L51.05 28.2 Q50.65 14.9 44.55 9.75 38.4 4.6 32.35 5.0 L27.15 5.8 Q31.4 4.35 35.9 4.75 L37.3 4.85 Q43.05 6.4 46.95 10.85 50.9 15.35 51.15 21.2 M0.35 21.4 L0.9 18.75 1.75 16.55 1.7 16.7 Q2.7 14.3 5.2 11.3 9.15 6.5 14.9 4.95 L16.3 4.85 Q20.8 4.45 25.05 5.9 L19.85 5.1 Q13.8 4.7 7.55 10.75 1.3 16.8 1.05 29.0 0.55 24.6 0.6 22.4 L0.6 25.5 Q0.9 29.85 1.9 33.95 L3.8 41.2 5.8 48.85 Q5.45 45.0 5.6 40.95 L6.0 32.95 6.15 30.6 6.6 30.75 Q6.85 34.75 6.6 38.9 6.35 43.15 6.85 47.45 L7.45 51.2 8.25 46.3 8.55 45.35 Q7.95 48.4 8.2 51.45 8.45 54.45 11.25 55.3 9.6 55.25 8.3 54.3 7.35 53.55 7.0 52.75 L7.3 53.8 4.65 45.7 1.85 36.65 Q0.7 32.8 0.2 28.65 -0.25 25.05 0.35 21.4" fill="#23340e" fill-rule="evenodd" stroke="none"/>
    </g>
    <g id="sprite1">
      <use ffdec:characterId="2" height="23.75" transform="matrix(1.0, 0.0, 0.0, 1.0, 0.0, 0.0)" width="12.75" xlink:href="#shape1"/>
    </g>
    <g id="shape1">
      <path d="M6.4 13.2 L5.8 14.0 Q5.15 14.85 4.15 14.7 L3.9 14.6 Q3.8 13.95 4.75 13.95 L5.3 14.05 5.5 13.85 5.9 13.6 6.4 13.2 M4.6 16.75 L5.5 16.45 5.35 16.6 4.6 16.75 M5.75 16.35 L6.85 15.7 7.35 15.1 7.2 15.4 6.6 15.95 5.75 16.35" fill="#d57fa9" fill-rule="evenodd" stroke="none"/>
      <path d="M6.4 13.2 L7.05 12.0 7.35 10.1 7.7 8.45 7.45 5.0 8.3 2.5 9.0 0.35 9.0 0.7 9.05 0.9 9.05 2.45 9.15 4.8 9.05 6.8 9.25 6.9 9.25 10.95 9.0 11.0 8.85 11.05 8.85 11.45 8.9 11.55 8.95 12.1 9.3 12.35 9.3 12.8 9.45 13.25 9.7 14.2 9.75 14.55 9.95 15.0 Q9.95 15.7 10.1 16.1 L10.05 16.25 9.75 16.3 Q9.35 16.3 9.3 15.6 L9.05 14.9 9.1 16.9 8.95 17.15 9.15 18.25 9.05 18.8 9.05 20.1 9.1 20.45 8.85 20.75 8.75 20.7 8.7 19.65 8.6 19.1 8.55 18.95 8.55 19.1 8.5 19.1 8.5 18.7 8.35 17.45 8.0 14.05 7.35 15.1 6.85 15.7 5.75 16.35 5.5 16.45 4.6 16.75 3.85 16.7 5.0 16.4 Q6.1 15.9 6.65 15.0 7.3 14.05 7.55 13.05 L6.65 14.1 Q5.75 14.95 4.65 15.0 3.9 15.2 3.5 14.6 L3.9 14.6 4.15 14.7 Q5.15 14.85 5.8 14.0 L6.4 13.2" fill="#3e5523" fill-rule="evenodd" stroke="none"/>
      <path d="M3.5 14.6 Q3.9 15.2 4.65 15.0 5.75 14.95 6.65 14.1 L7.55 13.05 Q7.3 14.05 6.65 15.0 6.1 15.9 5.0 16.4 L3.85 16.7 3.1 16.4 2.25 16.0 2.0 15.75 Q1.45 15.6 0.65 14.55 L0.25 13.6 0.1 12.9 0.0 12.65 0.0 12.45 -0.15 11.4 -0.05 11.55 0.7 12.6 Q1.85 14.0 3.2 14.25 L3.1 14.3 2.1 14.0 2.2 14.05 2.75 14.4 3.5 14.6 M0.9 13.95 Q1.15 14.6 1.65 15.1 3.3 16.85 5.35 15.4 L4.55 15.55 Q1.9 15.2 0.6 13.0 L0.9 13.95" fill="#649b23" fill-rule="evenodd" stroke="none"/>
      <path d="M0.9 13.95 L0.6 13.0 Q1.9 15.2 4.55 15.55 L5.35 15.4 Q3.3 16.85 1.65 15.1 1.15 14.6 0.9 13.95" fill="#9dde1b" fill-rule="evenodd" stroke="none"/>
      <path d="M8.05 8.5 Q7.95 11.05 6.35 13.75 L5.65 14.6 Q4.1 15.85 1.5 13.55 4.15 14.85 5.65 13.0 7.05 11.25 7.5 6.85 L7.25 4.95 7.65 5.0 Q8.1 5.9 8.05 8.5 M1.5 15.4 Q3.75 17.5 6.3 16.0 7.5 15.2 7.85 14.05 9.4 9.3 8.3 4.2 10.4 9.95 7.35 15.2 5.8 17.85 2.9 16.45 0.2 15.25 0.0 12.3 0.3 14.2 1.5 15.4" fill="#23340e" fill-rule="evenodd" stroke="none"/>
      <path d="M9.8 12.25 L10.65 16.8 10.9 17.8 11.55 19.5 12.2 20.5 12.6 21.0 Q9.85 18.1 9.25 16.45 L9.2 17.85 9.25 23.75 Q7.95 19.3 7.95 14.65 L8.05 13.65 9.0 20.75 8.9 16.3 8.85 14.6 8.8 13.35 8.8 9.55 8.85 3.05 8.95 0.0 9.05 0.8 9.15 4.75 Q9.35 9.95 9.8 12.25 M9.3 14.85 L9.7 15.85 9.4 14.6 9.35 14.3 9.3 14.85" fill="#23340e" fill-rule="evenodd" stroke="none"/>
    </g>
    <g id="sprite2">
      <use ffdec:characterId="5" height="27.95" transform="matrix(1.0, 0.0, 0.0, 1.0, 0.0, 0.0)" width="43.4" xlink:href="#shape2"/>
    </g>
    <g id="shape2">
      <path d="M31.7 9.9 L31.75 9.9 33.8 10.1 Q35.0 10.35 36.15 11.05 L36.45 11.2 Q40.15 13.45 41.75 17.9 42.75 20.75 42.8 23.8 L42.8 24.15 Q42.85 25.7 42.35 27.25 41.55 29.9 40.15 32.1 L40.4 33.05 Q40.7 34.35 41.35 35.5 L41.35 35.65 Q41.35 36.2 42.1 36.95 L42.75 37.45 42.75 37.5 42.05 37.45 41.0 37.2 Q39.75 36.8 38.6 35.7 L37.9 35.0 37.15 35.7 37.1 35.75 36.4 36.35 35.45 37.0 Q34.4 37.65 33.1 37.75 L33.05 37.75 32.85 37.75 32.75 37.8 32.8 37.75 32.65 37.75 31.0 37.55 Q32.35 37.8 33.85 37.15 L35.3 35.7 Q36.3 34.7 36.85 33.5 37.4 32.25 37.35 30.85 L37.35 30.75 37.35 30.7 37.05 26.3 Q36.65 28.75 34.8 30.3 L34.7 30.4 34.4 30.7 34.4 30.65 33.65 31.05 33.55 31.1 33.45 31.55 Q33.25 32.8 32.6 33.85 L32.5 33.8 Q33.1 31.75 32.65 29.75 L32.4 28.95 31.7 27.2 30.05 24.45 29.85 24.15 29.4 23.4 29.3 23.9 29.85 25.35 30.2 26.45 30.2 26.55 30.35 27.15 30.55 27.9 30.8 28.8 29.25 26.8 29.2 26.65 28.7 26.0 28.3 26.85 Q27.0 29.4 24.35 31.4 23.0 32.4 21.25 32.75 L21.7 32.3 22.1 32.05 Q24.7 29.35 25.6 26.2 L26.0 24.5 26.05 23.9 26.1 23.1 26.1 22.15 25.4 23.3 24.35 24.7 22.3 26.8 20.65 27.9 Q19.35 28.65 18.8 28.65 L18.4 28.6 Q21.2 27.9 23.15 23.8 L23.95 22.0 24.35 20.85 23.8 21.55 23.65 21.75 23.1 22.35 21.65 23.7 21.6 23.7 21.15 24.0 20.05 24.5 19.05 25.0 18.45 25.2 Q20.4 24.25 21.65 22.45 L22.5 20.75 Q22.85 19.55 22.65 18.3 L22.6 18.45 22.4 19.5 21.85 20.5 21.8 20.5 21.2 21.1 18.1 23.5 17.85 23.65 16.2 25.5 Q15.8 25.85 16.6 24.25 L17.0 23.45 18.05 21.85 19.1 20.65 Q18.1 21.2 17.2 21.95 14.95 23.9 13.25 26.35 L11.4 28.8 11.85 27.15 Q12.45 24.6 13.4 22.8 L14.1 21.75 14.0 21.8 13.4 22.6 12.8 23.5 12.4 24.05 12.15 24.45 10.55 27.15 10.0 28.4 9.8 28.95 9.65 29.5 Q9.1 31.6 9.7 33.8 L9.6 33.85 Q8.95 32.8 8.75 31.55 L8.75 31.45 9.0 31.15 8.95 31.0 7.7 30.0 7.45 29.75 Q6.7 28.95 6.2 27.95 L6.25 27.5 6.25 27.05 6.1 26.6 6.2 26.5 6.05 25.7 5.9 25.6 5.8 25.65 Q5.45 25.95 5.4 26.35 L5.35 26.5 5.75 28.1 5.85 28.15 5.85 31.0 5.25 33.6 5.45 33.95 6.5 35.3 Q7.25 36.25 8.8 36.85 L9.8 37.15 10.0 37.4 9.05 37.65 8.75 37.65 Q6.35 37.65 4.75 36.3 L4.2 35.8 Q2.5 37.5 0.75 37.65 L0.7 37.5 1.45 36.4 1.9 35.3 2.25 34.7 2.35 34.05 2.25 33.7 2.3 32.1 Q2.3 31.85 1.95 31.85 L1.85 31.9 Q0.6 29.7 0.15 27.35 -0.4 22.85 1.05 18.65 2.65 14.15 6.35 11.7 7.65 10.85 9.0 10.5 L11.1 10.2 11.1 10.15 13.05 10.2 13.9 10.3 13.85 10.45 14.45 10.6 14.55 10.55 14.6 10.4 15.05 10.5 20.75 12.7 21.05 12.95 21.1 13.0 21.4 12.95 21.85 13.1 21.95 12.85 22.65 12.35 23.0 12.1 24.05 11.55 25.3 11.05 25.65 10.95 28.25 10.2 29.75 9.95 31.7 9.85 31.7 9.9 M30.75 11.8 L31.2 11.45 31.15 11.3 33.5 11.75 32.4 11.2 Q29.5 10.15 26.55 11.5 L29.25 11.25 28.75 11.4 28.15 11.7 28.75 11.85 29.65 11.95 29.85 11.9 30.75 11.8 M28.3 10.4 L28.35 10.45 28.65 10.35 28.3 10.4 M32.55 16.6 L33.35 17.75 34.55 20.2 Q35.1 21.6 34.7 23.15 35.4 21.6 35.1 19.95 34.65 17.55 32.55 16.6 M38.4 16.25 L37.15 14.85 Q36.1 13.7 33.7 12.45 36.7 14.95 37.4 16.1 38.1 17.2 38.6 19.05 L39.4 22.7 39.55 20.55 Q39.75 18.15 38.4 16.25 M13.15 10.75 Q10.15 10.6 7.55 12.25 4.9 13.8 3.95 16.5 L3.6 17.7 4.95 15.85 Q6.05 14.5 7.2 13.7 6.0 15.5 5.7 16.7 8.05 13.9 9.6 13.0 L12.1 11.65 9.65 11.95 10.85 11.4 13.15 10.75 M10.0 19.3 Q10.05 20.9 10.65 22.35 L11.8 20.4 Q14.15 16.8 17.65 14.7 15.05 14.95 13.15 17.0 L13.65 16.35 15.3 14.2 13.6 14.6 Q8.7 16.2 8.4 21.45 L8.6 21.25 9.95 19.25 10.0 19.3 M17.55 16.1 L16.3 16.65 Q14.2 17.7 13.7 20.15 L15.0 19.1 17.55 16.1 M30.1 26.9 L30.05 26.9 30.1 26.95 30.1 26.9" fill="#649b23" fill-rule="evenodd" stroke="none"/>
      <path d="M31.7 9.9 L31.7 9.85 31.75 9.85 31.7 9.9 M14.6 10.4 L14.55 10.55 13.85 10.45 13.9 10.3 14.6 10.4 M11.1 10.15 L11.1 10.2 11.05 10.15 11.1 10.15 M0.7 37.5 L0.75 37.65 0.55 37.65 0.7 37.5 M9.6 33.85 L9.7 33.8 9.85 34.25 9.6 33.85 M32.5 33.8 L32.6 33.85 32.35 34.25 32.5 33.8 M34.4 30.65 L34.4 30.7 34.3 30.75 34.4 30.65 M37.35 30.7 L37.35 30.75 37.3 30.75 37.35 30.7 M42.75 37.5 L42.75 37.45 42.8 37.5 42.75 37.5 M10.0 19.3 L9.95 19.25 10.0 19.1 10.0 19.3" fill="#d57fa9" fill-rule="evenodd" stroke="none"/>
      <path d="M30.75 11.8 L29.85 11.9 29.65 11.95 28.75 11.85 28.15 11.7 28.75 11.4 29.25 11.25 26.55 11.5 Q29.5 10.15 32.4 11.2 L33.5 11.75 31.15 11.3 31.2 11.45 30.75 11.8 M38.4 16.25 Q39.75 18.15 39.55 20.55 L39.4 22.7 38.6 19.05 Q38.1 17.2 37.4 16.1 36.7 14.95 33.7 12.45 36.1 13.7 37.15 14.85 L38.4 16.25 M32.55 16.6 Q34.65 17.55 35.1 19.95 35.4 21.6 34.7 23.15 35.1 21.6 34.55 20.2 L33.35 17.75 32.55 16.6 M13.15 10.75 L10.85 11.4 9.65 11.95 12.1 11.65 9.6 13.0 Q8.05 13.9 5.7 16.7 6.0 15.5 7.2 13.7 6.05 14.5 4.95 15.85 L3.6 17.7 3.95 16.5 Q4.9 13.8 7.55 12.25 10.15 10.6 13.15 10.75 M9.95 19.25 L8.6 21.25 8.4 21.45 Q8.7 16.2 13.6 14.6 L15.3 14.2 13.65 16.35 13.15 17.0 Q15.05 14.95 17.65 14.7 14.15 16.8 11.8 20.4 L10.65 22.35 Q10.05 20.9 10.0 19.3 L10.0 19.1 9.95 19.25 M17.55 16.1 L15.0 19.1 13.7 20.15 Q14.2 17.7 16.3 16.65 L17.55 16.1" fill="#9dde1b" fill-rule="evenodd" stroke="none"/>
      <path d="M41.8 36.65 L41.3 36.8 Q40.4 36.8 39.15 35.55 L38.65 34.8 38.65 34.7 38.6 34.7 Q38.25 34.7 38.25 34.45 L38.5 34.3 38.4 34.0 38.6 33.35 Q38.85 33.1 39.0 33.65 38.95 33.9 39.4 34.75 40.25 36.35 41.7 36.55 L41.8 36.65 M40.6 18.1 Q42.1 20.75 41.8 23.95 41.5 26.85 40.55 29.5 L38.75 32.9 37.05 35.0 36.8 35.2 36.15 35.05 36.25 34.9 36.8 34.2 36.65 34.15 37.1 33.25 37.35 32.85 37.5 32.35 37.55 31.4 37.5 30.9 37.55 30.8 37.35 30.75 37.3 30.75 37.35 30.7 37.05 26.3 Q36.65 28.75 34.8 30.3 L34.7 30.4 34.3 30.75 34.4 30.65 33.65 31.05 Q32.75 30.5 33.05 29.2 L33.15 27.7 Q32.9 25.4 31.75 23.3 33.3 25.55 34.15 28.15 36.9 24.5 36.0 19.95 L36.95 22.4 Q36.15 19.65 34.8 17.0 36.15 17.45 36.65 18.75 L37.75 20.6 Q39.2 22.6 38.8 25.05 L38.1 29.2 Q39.35 26.2 40.1 23.1 L40.25 22.3 Q40.25 25.7 39.05 28.95 L38.25 31.05 Q40.15 28.6 40.7 25.45 41.15 22.65 40.8 19.8 L40.6 18.1 M30.35 13.25 L31.75 14.2 31.9 14.3 31.85 14.35 32.35 14.6 32.35 14.75 32.05 14.75 31.75 14.65 31.2 14.2 30.5 13.95 29.3 13.6 27.8 13.3 27.1 13.2 25.65 13.2 25.5 13.2 25.05 13.2 24.85 13.25 23.85 13.3 23.8 13.25 24.6 12.9 24.85 12.85 24.75 12.8 25.3 12.65 25.4 12.6 25.65 12.55 25.7 12.55 26.6 12.4 27.2 12.5 28.05 12.4 28.75 12.65 Q28.95 12.85 29.15 12.85 L30.35 13.25 M22.65 18.3 L22.6 18.45 22.4 19.5 21.85 20.5 21.8 20.5 21.2 21.1 18.1 23.5 Q18.45 22.55 19.55 21.5 L21.55 19.2 22.5 17.8 22.7 18.1 22.6 17.8 Q23.3 17.65 23.3 20.1 L23.25 20.85 23.7 20.15 24.3 19.15 24.8 18.0 24.85 18.8 24.25 20.4 23.7 21.3 23.4 21.65 22.65 22.55 21.65 23.7 21.6 23.7 21.15 24.0 20.05 24.5 19.05 25.0 18.45 25.2 Q20.4 24.25 21.65 22.45 L22.5 20.75 Q22.85 19.55 22.65 18.3 M20.35 19.25 L20.6 19.1 20.4 19.25 20.25 19.45 19.85 19.9 19.15 20.65 19.1 20.6 19.2 20.5 18.9 20.7 18.65 20.9 18.2 20.9 16.0 22.6 15.8 22.8 15.45 23.3 14.95 23.8 14.7 24.05 14.25 24.35 14.4 24.45 14.1 24.85 14.0 25.1 13.6 25.2 13.45 25.7 Q13.45 26.1 12.95 26.1 L12.9 26.65 12.4 27.15 12.05 26.95 12.2 26.3 12.25 26.15 12.15 26.1 12.4 25.75 12.4 25.7 12.7 24.95 13.0 24.6 Q13.45 23.2 14.2 22.0 15.3 20.3 17.65 18.45 16.35 19.65 14.75 22.2 L13.95 24.0 15.65 22.5 Q19.5 19.5 20.25 19.2 L20.35 19.25 M6.75 17.8 L7.45 17.0 8.3 16.35 7.4 18.3 7.0 19.55 6.55 21.05 Q6.2 22.25 6.35 23.7 L6.65 25.4 7.2 26.6 8.1 27.9 8.75 26.05 9.15 25.2 9.55 24.55 10.7 22.85 9.65 25.3 9.5 25.65 9.0 27.15 8.8 28.1 9.65 26.45 Q10.45 25.1 11.4 23.85 L12.15 22.85 12.85 22.2 13.95 21.15 15.05 20.25 16.05 19.4 16.25 19.35 15.4 20.2 14.15 21.6 13.4 22.6 12.85 23.4 12.75 23.35 Q12.45 23.25 12.1 23.7 L11.7 24.55 10.8 26.25 10.55 26.6 10.35 27.05 9.95 27.95 Q9.25 28.85 9.25 29.65 L9.25 30.1 9.45 30.45 Q9.2 32.1 9.7 33.8 L9.85 34.25 Q9.0 33.05 8.75 31.55 L8.75 31.45 9.0 31.15 8.95 31.0 7.45 29.75 Q6.7 28.95 6.2 27.95 L6.25 27.5 6.25 27.05 6.15 26.6 6.2 26.5 6.05 25.7 5.9 25.6 5.8 25.65 5.35 26.5 Q6.0 28.05 5.65 29.6 L5.25 31.1 4.4 33.3 3.5 34.8 2.35 36.4 1.8 36.95 1.2 37.25 1.0 37.2 1.45 36.4 1.9 35.3 2.25 34.7 2.35 34.05 2.25 33.7 2.25 33.4 2.3 33.05 2.45 31.3 2.2 30.85 1.8 29.25 1.55 29.25 1.2 29.2 1.0 28.9 1.0 28.6 0.95 26.7 1.05 25.45 1.2 23.65 1.35 21.85 1.75 20.15 2.3 18.5 2.05 19.6 1.95 20.55 1.8 23.05 1.8 24.85 1.9 26.5 2.1 28.05 2.3 26.2 2.45 23.4 2.6 22.3 2.85 21.35 3.25 19.8 3.15 21.9 3.05 24.2 3.1 25.75 3.25 28.75 3.25 30.35 3.25 32.05 3.25 32.35 3.45 30.9 3.55 29.1 3.6 27.7 3.85 25.4 4.1 31.15 4.4 28.8 4.65 25.6 4.85 23.5 5.05 21.4 Q5.2 20.35 5.8 19.25 L6.75 17.8 M16.5 12.2 L17.0 12.25 17.4 12.5 18.25 12.8 17.85 12.85 16.8 12.9 16.35 12.95 16.25 12.95 16.0 12.9 15.55 12.9 15.65 13.0 14.1 13.3 13.4 13.5 12.7 13.65 12.65 13.65 Q12.4 13.8 12.3 13.85 L11.95 14.15 11.7 14.3 11.45 14.35 10.7 14.8 Q10.35 14.8 10.35 14.6 L10.95 13.95 11.8 13.45 12.9 12.9 13.45 12.65 13.7 12.55 14.1 12.45 14.2 12.5 14.2 12.55 14.8 12.4 15.85 12.25 16.0 12.2 16.5 12.2 M26.45 18.65 L26.65 21.15 Q26.8 23.35 26.1 25.45 L25.6 26.4 25.6 26.2 26.0 24.5 26.05 23.9 26.1 23.1 26.1 22.15 25.65 22.6 Q24.45 24.8 22.65 26.15 L21.95 26.3 22.7 25.65 Q25.45 22.65 26.45 18.65 M29.35 18.9 L29.6 19.35 31.15 23.7 31.7 26.05 31.05 25.25 Q30.25 24.05 29.8 22.85 L29.6 22.2 29.05 24.4 30.2 26.45 30.2 26.55 30.1 26.9 30.05 26.9 29.6 26.95 28.65 25.35 28.35 25.75 Q27.55 28.15 25.55 30.05 L23.3 31.9 22.7 31.8 26.15 27.5 Q28.2 24.8 28.8 21.45 L29.35 18.9" fill="#3e5523" fill-rule="evenodd" stroke="none"/>
      <path d="M41.65 24.15 L41.65 23.85 Q41.35 16.6 36.3 12.25 35.15 11.25 33.8 10.8 31.7 10.0 29.1 10.3 L28.35 10.45 28.55 10.4 26.45 10.85 Q25.3 11.25 25.0 11.4 L22.55 12.6 21.75 13.05 Q22.8 11.95 25.3 11.05 27.45 10.25 29.75 9.95 L31.75 9.85 31.7 9.9 33.8 10.1 Q35.15 10.4 36.45 11.2 40.15 13.45 41.75 17.9 42.75 20.75 42.8 23.8 L42.8 24.15 Q42.85 25.7 42.35 27.25 41.55 29.9 40.15 32.1 L40.4 33.05 Q40.75 34.45 41.55 35.85 42.35 37.2 43.4 37.4 L42.05 37.45 Q40.25 37.25 38.6 35.7 L37.9 35.0 37.15 35.7 37.1 35.75 36.4 36.35 35.45 37.0 Q34.4 37.65 33.1 37.75 L33.05 37.75 32.85 37.75 32.75 37.8 32.8 37.75 32.65 37.75 31.0 37.55 Q32.35 37.8 33.85 37.15 L35.3 35.7 Q37.4 33.65 37.35 30.85 L37.05 26.3 Q36.65 28.75 34.8 30.3 L34.3 30.75 34.8 30.0 Q36.15 27.7 36.45 25.35 L36.55 24.15 Q36.65 21.05 35.05 18.3 33.3 15.35 30.9 14.2 28.55 13.05 23.8 13.3 28.5 12.45 32.3 14.75 29.85 12.75 27.4 12.65 25.2 12.45 23.5 13.4 26.4 11.7 28.85 12.45 31.4 13.25 32.5 14.9 34.15 15.8 35.55 17.25 37.55 19.4 38.6 22.3 38.55 18.45 36.25 15.6 33.55 12.3 29.8 12.05 32.95 12.05 35.4 14.15 38.15 16.55 38.85 20.15 39.2 22.0 39.15 23.8 L39.15 23.85 39.1 24.15 38.15 28.65 37.95 29.35 Q38.45 26.9 38.55 24.15 L38.6 23.5 38.6 22.75 Q37.0 19.4 34.7 16.75 37.0 20.05 37.35 24.15 L37.75 31.7 38.4 30.25 38.1 31.25 36.65 34.55 36.25 35.2 36.9 34.55 Q38.7 32.75 39.9 30.4 41.45 27.5 41.65 24.15 M22.6 17.85 Q22.9 18.75 22.8 19.7 22.5 22.55 20.25 24.35 L20.95 23.8 23.8 20.75 24.4 19.9 24.65 19.4 24.9 18.65 24.9 19.95 Q24.9 21.05 24.0 23.3 23.1 25.5 22.35 26.35 24.65 24.3 26.1 21.1 L26.15 21.5 26.2 21.85 26.15 22.05 26.15 22.1 Q26.4 25.25 25.65 27.4 24.6 30.1 22.85 31.85 26.1 29.3 27.6 26.85 L29.0 24.15 Q29.65 22.4 29.4 20.3 L29.3 19.0 29.85 23.0 31.7 26.05 Q32.9 28.15 33.3 30.3 33.35 28.55 32.85 26.85 L31.9 23.85 32.85 25.95 Q33.95 28.65 33.45 31.55 33.2 33.05 32.35 34.25 L32.5 33.8 Q33.2 31.35 32.4 28.95 L31.7 27.2 30.05 24.45 29.85 24.15 29.4 23.4 29.3 23.9 29.85 25.35 30.35 27.15 30.8 28.8 29.25 26.8 28.7 26.0 28.3 26.85 Q27.0 29.4 24.35 31.4 23.0 32.4 21.25 32.75 L21.7 32.3 22.1 32.05 Q26.3 27.65 26.1 22.15 L24.35 24.7 22.3 26.8 20.65 27.9 Q19.35 28.65 18.8 28.65 L18.4 28.6 Q21.2 27.9 23.15 23.8 L24.35 20.85 23.8 21.55 23.1 22.35 Q21.85 23.8 20.05 24.5 L19.05 25.0 18.45 25.2 Q20.4 24.25 21.65 22.45 23.1 20.45 22.6 18.0 L22.4 19.5 Q21.8 21.25 17.85 23.65 L16.2 25.5 Q15.8 25.85 16.6 24.25 L17.0 23.45 18.05 21.85 19.1 20.65 Q18.1 21.2 17.2 21.95 14.95 23.9 13.25 26.35 L11.4 28.8 11.85 27.15 Q12.45 24.6 13.4 22.8 L14.15 21.6 12.15 24.45 10.5 27.2 9.8 28.95 Q9.0 31.35 9.7 33.8 L9.85 34.25 Q9.0 33.05 8.75 31.55 8.25 28.65 9.35 25.95 L10.3 23.85 Q9.75 25.4 9.35 26.85 8.85 28.55 8.9 30.3 9.3 28.15 10.5 26.05 11.45 24.1 12.55 22.75 L15.05 20.1 Q16.4 18.8 18.35 17.7 L19.15 17.2 16.45 19.5 Q14.7 21.05 13.6 23.35 L12.1 26.95 Q13.0 25.55 14.25 24.3 L17.4 21.35 Q18.15 20.8 19.15 20.6 L20.95 18.7 Q18.75 20.8 16.75 24.35 L18.2 22.8 20.4 20.75 19.8 21.45 17.9 23.55 20.85 21.35 Q22.25 19.75 22.55 17.75 L22.6 17.85 M20.25 12.5 L19.1 11.9 17.8 11.45 16.35 10.95 13.85 10.45 14.45 10.6 13.7 10.5 Q11.1 10.3 9.0 11.2 7.65 11.7 6.5 12.75 1.45 17.35 1.15 24.6 1.0 27.75 2.35 30.7 L2.45 25.9 Q3.6 28.75 2.9 33.45 L2.9 33.5 2.75 34.1 Q2.3 36.1 1.25 37.0 L3.5 34.75 4.15 33.55 Q5.0 31.3 5.1 29.05 L5.25 25.95 Q5.05 20.65 7.9 16.55 5.2 19.7 3.4 23.8 L3.95 22.2 Q5.0 19.25 7.05 17.05 8.45 15.6 10.1 14.7 11.2 13.05 13.75 12.25 16.2 11.5 19.1 13.2 17.4 12.25 15.2 12.45 12.75 12.55 10.3 14.55 14.2 12.55 17.6 12.85 15.85 12.8 13.1 13.8 9.3 15.15 7.6 18.1 5.85 21.0 6.1 24.3 6.35 27.6 7.6 29.45 L8.3 30.55 Q6.95 29.45 6.15 27.8 L6.0 27.5 5.55 26.1 Q6.05 29.25 5.85 31.0 L5.25 33.6 5.45 33.95 6.5 35.3 Q7.25 36.25 8.8 36.85 L9.95 37.2 10.35 37.25 10.4 37.25 9.05 37.65 8.75 37.65 Q6.35 37.65 4.75 36.3 L4.2 35.8 Q2.2 37.8 0.15 37.6 2.35 36.0 2.25 32.6 0.7 30.1 0.15 27.35 -0.4 22.85 1.05 18.65 2.65 14.15 6.35 11.7 7.65 10.85 9.0 10.5 L11.1 10.2 11.05 10.15 13.05 10.2 Q15.35 10.4 17.5 11.1 20.0 11.9 21.05 12.95 20.6 12.95 20.25 12.5 M4.8 34.9 L5.55 35.85 6.85 36.8 8.7 37.2 7.75 36.75 6.35 35.8 5.05 34.2 4.8 34.9 M39.5 35.7 L41.25 36.7 39.75 32.9 38.45 34.4 39.5 35.7 M29.15 25.45 L29.25 25.75 30.1 26.95 29.5 25.45 29.25 24.85 29.15 25.45" fill="#23340e" fill-rule="evenodd" stroke="none"/>
    </g>
    <g id="sprite3">
      <use ffdec:characterId="7" height="13.15" transform="matrix(1.0, 0.0, 0.0, 1.0, 0.0, 0.0)" width="20.25" xlink:href="#shape3"/>
    </g>
    <g id="shape3">
      <path d="M14.25 1.5 Q12.35 0.15 10.4 1.15 L11.0 1.45 Q13.15 2.7 15.3 2.3 L14.25 1.5 M12.8 2.45 Q11.5 1.75 10.1 1.55 8.1 1.1 6.15 1.5 L5.45 1.65 4.55 2.0 Q2.55 2.7 1.2 4.4 L0.45 5.4 0.0 6.05 0.1 5.55 0.25 5.4 0.25 5.3 0.4 4.7 Q1.1 3.5 2.15 2.55 L3.15 1.9 Q4.1 1.35 5.1 1.2 L5.7 1.05 6.7 0.95 7.25 0.8 7.45 0.8 7.85 0.85 7.45 0.75 8.75 0.25 Q11.5 -0.5 14.15 0.85 L14.8 1.2 Q17.25 2.7 18.65 5.95 L18.8 6.2 19.55 8.2 19.85 9.35 19.9 9.7 19.05 7.9 Q19.05 5.7 17.15 4.25 15.25 2.85 12.8 2.45 M4.55 1.5 Q4.05 1.5 3.2 2.0 2.9 2.15 2.25 2.8 L2.35 2.85 4.65 1.55 4.55 1.5" fill="#649b23" fill-rule="evenodd" stroke="none"/>
      <path d="M14.25 1.5 L15.3 2.3 Q13.15 2.7 11.0 1.45 L10.4 1.15 Q12.35 0.15 14.25 1.5 M4.55 1.5 L4.65 1.55 2.35 2.85 2.25 2.8 Q2.9 2.15 3.2 2.0 4.05 1.5 4.55 1.5" fill="#9dde1b" fill-rule="evenodd" stroke="none"/>
      <path d="M12.8 2.45 Q15.25 2.85 17.15 4.25 19.05 5.7 19.05 7.9 L19.9 9.7 20.05 10.35 19.15 10.15 19.0 9.9 18.9 9.7 18.85 9.6 18.6 9.05 18.6 8.95 18.55 8.8 18.5 8.75 18.0 7.9 17.4 6.9 17.5 6.65 17.45 6.5 16.65 5.7 Q14.9 3.85 12.8 2.45" fill="#3e5523" fill-rule="evenodd" stroke="none"/>
      <path d="M1.8 3.15 Q0.9 4.0 0.55 4.75 L1.65 3.8 Q2.65 2.8 3.85 2.15 5.15 1.45 6.55 1.15 L4.25 1.55 Q2.8 2.1 1.8 3.15 M14.15 0.85 Q17.05 2.3 18.65 5.95 20.2 9.15 20.25 13.15 19.05 9.1 16.75 5.95 13.8 2.15 10.1 1.55 8.1 1.1 6.15 1.5 L4.55 2.0 Q2.55 2.7 1.2 4.4 L0.0 6.05 0.1 5.55 0.25 5.4 0.4 4.7 Q1.1 3.5 2.15 2.55 3.55 1.45 5.1 1.2 L6.7 0.95 7.25 0.8 7.85 0.85 7.45 0.75 8.75 0.25 Q11.5 -0.5 14.15 0.85 M17.3 4.35 Q15.2 1.6 12.6 0.55 10.45 0.1 8.75 0.9 L11.25 1.6 Q13.75 2.65 15.9 4.8 18.3 7.0 19.9 10.5 18.95 7.05 17.3 4.35" fill="#23340e" fill-rule="evenodd" stroke="none"/>
    </g>
  </defs>
</svg>
