<?xml version="1.0" encoding="UTF-8" standalone="no"?>
<svg xmlns:ffdec="https://www.free-decompiler.com/flash" xmlns:xlink="http://www.w3.org/1999/xlink" ffdec:objectType="frame" height="50.3px" width="55.25px" xmlns="http://www.w3.org/2000/svg">
  <g transform="matrix(1.0, 0.0, 0.0, 1.0, 29.9, 33.2)">
    <use ffdec:characterId="5" height="50.3" transform="matrix(1.0, 0.0, 0.0, 1.0, -2.25, -8.05)" width="55.25" xlink:href="#sprite0"/>
  </g>
  <defs>
    <g id="sprite0">
      <use ffdec:characterId="4" height="50.3" transform="matrix(1.0, 0.0, 0.0, 1.0, 0.0, 0.0)" width="55.25" xlink:href="#shape0"/>
    </g>
    <g id="shape0">
      <path d="M8.1 -20.0 L7.8 -19.6 7.35 -19.55 6.35 -18.4 6.8 -18.35 6.8 -18.15 Q8.8 -18.15 10.7 -17.1 L9.8 -17.0 Q7.9 -17.35 6.35 -17.05 L4.5 -16.8 4.65 -17.05 2.0 -17.2 Q2.6 -18.55 3.95 -18.6 1.75 -18.8 0.3 -19.95 L-1.65 -20.15 Q1.9 -21.85 5.05 -19.7 6.85 -20.75 8.1 -20.0 M24.15 0.8 L24.35 1.55 24.5 2.25 24.6 2.65 24.6 2.95 Q24.65 3.85 24.85 4.5 L24.95 4.45 25.0 5.15 25.0 5.2 24.9 6.35 24.85 6.55 24.85 6.6 24.8 7.35 Q24.5 10.7 22.5 13.35 L22.8 12.35 Q23.55 9.7 23.9 7.1 L24.15 4.4 24.1 4.2 23.9 2.3 23.8 1.45 23.95 0.4 24.0 0.4 24.15 0.85 24.15 0.8 M-7.9 -2.85 Q-7.45 -2.5 -8.45 -0.45 -9.7 2.05 -12.0 4.9 -10.85 4.35 -9.9 3.2 L-9.85 3.1 -9.6 2.75 -9.0 2.35 -9.1 2.65 -9.45 3.7 -10.6 5.15 Q-12.25 6.95 -16.4 7.45 -15.35 5.95 -13.9 4.75 L-14.65 4.5 -12.8 3.05 Q-11.35 1.85 -9.95 -1.85 L-10.1 0.15 -10.25 0.4 -10.4 0.75 -10.3 0.9 Q-9.1 -0.25 -7.9 -2.85 M-17.3 -5.15 L-17.2 -5.1 Q-16.65 -4.5 -16.4 -3.8 L-16.3 -3.4 Q-16.1 -2.65 -16.25 -1.75 L-15.7 -3.35 -15.65 -3.4 -14.35 -4.1 -14.3 -3.75 Q-14.05 -0.8 -16.25 1.45 -18.6 3.8 -20.9 3.9 L-18.95 1.1 Q-17.5 -1.25 -17.55 -4.0 L-17.3 -5.15" fill="#714c97" fill-rule="evenodd" stroke="none"/>
      <path d="M14.6 -19.05 L16.95 -17.75 Q18.5 -16.85 19.4 -15.15 L20.25 -13.35 Q18.5 -15.05 15.9 -16.2 L13.4 -17.05 Q15.4 -16.55 16.8 -15.05 L14.45 -15.65 11.8 -16.1 Q14.0 -14.85 15.85 -13.05 18.05 -11.05 18.55 -8.15 18.8 -6.5 19.2 -5.05 L17.25 -9.9 Q18.0 -7.3 18.35 -4.6 L18.5 -3.8 17.95 -4.7 17.2 -5.75 Q17.8 -3.75 18.0 -1.4 L17.95 -0.4 Q17.7 -2.95 16.0 -5.1 L15.8 -5.4 Q16.85 -3.6 16.55 -1.15 L14.2 -4.0 13.25 -5.25 Q12.45 -6.2 12.05 -7.4 L11.4 -9.1 Q11.2 -9.8 11.25 -10.65 L11.0 -12.05 10.1 -13.9 8.95 -15.15 7.35 -16.35 10.0 -16.1 11.45 -15.75 9.55 -16.7 8.8 -16.9 12.55 -17.3 Q12.15 -18.0 11.0 -18.3 L9.0 -18.4 7.95 -18.4 7.1 -18.4 6.8 -18.35 6.35 -18.4 7.35 -19.55 7.8 -19.6 10.2 -20.1 9.8 -19.9 10.8 -19.9 Q12.7 -19.9 14.6 -19.05 M11.5 -13.95 L14.05 -12.0 14.6 -11.45 Q17.1 -7.65 17.8 -5.95 L17.75 -6.4 17.6 -7.1 Q16.6 -10.4 14.25 -12.85 12.2 -14.95 9.4 -15.0 L10.5 -14.5 11.5 -13.95 M18.3 -15.5 Q17.4 -17.5 15.35 -18.4 13.05 -19.35 10.6 -19.3 L8.5 -19.05 7.95 -18.4 10.0 -18.5 13.6 -17.95 15.6 -17.25 17.1 -16.4 18.3 -15.5 M4.0 -17.15 L3.45 -16.3 2.0 -14.5 2.05 -14.5 3.65 -15.75 5.45 -16.05 5.45 -16.0 4.25 -15.3 Q3.4 -14.9 3.05 -14.35 3.9 -14.85 5.0 -14.8 L6.7 -14.8 6.0 -14.35 Q4.6 -13.55 3.5 -12.1 L1.25 -9.0 -0.25 -6.35 Q-1.0 -4.7 -2.0 -3.3 L-1.9 -3.6 Q-1.7 -4.2 -1.8 -4.6 L-2.95 -2.9 Q-4.25 -1.1 -6.0 0.2 L-9.0 2.35 -9.6 2.75 -9.9 2.9 -9.55 2.6 -9.0 2.0 -8.8 1.65 -7.4 -0.2 Q-5.35 -2.35 -5.0 -5.1 L-5.9 -4.55 Q-5.6 -5.1 -5.7 -5.5 L-6.2 -5.1 -8.45 -3.25 -8.5 -3.15 Q-8.75 -3.05 -8.65 -3.55 -8.65 -4.0 -8.85 -3.7 L-10.8 -0.75 -11.0 -1.45 Q-11.45 -3.15 -11.0 -4.75 L-10.05 -7.85 -10.85 -6.9 Q-11.95 -5.5 -13.55 -4.55 L-14.35 -4.1 -15.65 -3.4 -16.05 -3.25 -15.5 -3.85 -15.1 -4.35 -13.75 -6.3 -12.25 -8.8 Q-11.45 -10.2 -11.65 -11.25 L-11.75 -11.1 -12.85 -10.45 -14.95 -8.5 -14.95 -8.85 Q-14.6 -10.75 -13.75 -12.55 L-13.8 -12.55 -16.75 -9.9 Q-17.85 -8.85 -18.45 -7.3 L-18.05 -10.4 Q-17.7 -12.5 -16.4 -13.9 L-13.4 -16.6 Q-11.65 -17.95 -9.85 -18.75 L-7.3 -19.6 -8.0 -18.75 -7.7 -18.4 -5.75 -18.55 -3.25 -19.55 Q-2.2 -19.75 -1.55 -19.15 L-1.55 -18.9 -1.55 -18.6 Q-1.5 -18.3 -1.75 -17.85 L-1.05 -18.2 0.2 -18.35 0.1 -18.15 Q-0.85 -16.55 -2.45 -15.5 L1.05 -16.65 4.0 -17.15 M2.35 -16.15 L0.8 -15.8 Q-3.55 -14.25 -5.75 -11.7 -7.5 -9.6 -8.75 -7.3 -10.0 -5.15 -10.3 -2.75 L-9.45 -4.9 Q-8.75 -6.8 -7.0 -9.0 L-4.15 -12.25 -3.15 -13.0 -4.9 -10.75 Q-6.3 -8.55 -7.3 -6.1 L-7.55 -5.35 -5.95 -7.55 -3.1 -11.7 Q-1.8 -13.75 1.7 -15.75 L2.35 -16.15 M7.7 -14.65 Q7.7 -15.15 9.25 -13.75 10.8 -12.4 10.8 -10.25 10.75 -8.1 11.3 -6.7 L11.25 -6.7 10.95 -7.3 Q10.3 -8.7 9.85 -10.45 9.35 -12.25 8.6 -12.95 L7.8 -13.95 7.7 -14.65 M11.65 -10.6 Q12.7 -8.0 14.05 -5.6 L16.0 -2.0 Q15.7 -5.15 14.0 -7.9 13.1 -9.4 11.65 -10.6 M12.45 -12.35 Q14.75 -9.6 16.5 -6.4 L17.35 -4.25 17.6 -3.6 17.3 -4.65 Q16.55 -7.35 14.8 -9.6 L12.45 -12.35 M4.5 -13.8 Q0.75 -13.3 -1.1 -9.85 L-3.45 -5.15 Q-4.3 -3.3 -5.4 -1.8 L-7.5 0.55 -7.2 0.4 Q-4.95 -1.0 -3.7 -3.35 L-1.8 -6.55 Q-0.7 -8.5 0.95 -10.4 2.55 -12.35 4.5 -13.8 M22.15 1.8 L22.05 2.0 21.95 2.05 22.35 4.3 22.5 3.5 22.15 1.8 M23.25 0.15 L23.2 0.35 23.3 1.0 23.3 3.7 23.3 4.15 23.55 4.4 23.7 4.35 23.8 2.35 Q23.8 0.15 23.25 0.15 M23.45 -3.3 L23.4 -3.3 23.35 -2.95 23.65 -1.55 24.05 -0.15 24.45 1.1 24.6 2.65 24.5 2.25 24.35 1.55 24.15 0.8 24.15 0.85 24.0 0.4 23.95 0.4 23.8 1.45 23.9 2.3 24.1 4.2 23.9 4.1 23.2 5.2 22.9 5.0 23.05 6.3 22.8 8.0 22.1 10.0 22.0 10.05 21.95 10.05 22.15 9.1 21.7 10.35 21.6 10.4 21.55 9.95 21.75 8.5 21.9 6.3 21.9 6.1 21.45 8.35 21.3 8.4 Q21.0 7.8 20.85 6.7 L20.4 4.9 19.6 3.0 19.05 1.6 19.05 1.3 19.15 1.25 Q19.7 1.25 21.05 4.7 21.05 0.85 21.35 0.85 21.6 0.85 21.75 1.15 L21.8 1.05 Q21.55 -1.3 20.8 -3.55 L20.85 -3.55 Q21.9 -2.7 22.1 -0.55 L22.15 -0.25 Q22.65 -0.25 22.8 1.05 L22.85 1.15 23.05 -0.1 22.9 -2.05 22.95 -2.7 22.4 -4.95 22.25 -5.55 22.3 -5.7 22.35 -5.7 23.0 -4.7 23.15 -4.5 23.7 -3.6 24.45 -2.25 25.0 -0.95 25.1 -0.65 Q25.65 1.15 25.65 3.9 L25.3 6.1 25.25 6.1 25.0 5.15 25.0 5.1 24.95 4.45 24.95 4.3 25.0 4.3 25.3 1.8 25.0 -0.05 24.75 -0.7 23.45 -3.3 M22.2 4.45 L22.2 4.5 22.25 4.5 22.2 4.45 M22.4 7.95 L22.45 6.5 22.4 5.5 22.4 6.45 22.4 7.95 M-4.5 -17.85 Q-6.45 -17.2 -8.2 -16.2 -10.6 -14.8 -12.1 -12.6 L-13.05 -10.8 Q-9.9 -14.35 -6.35 -16.35 L-4.1 -17.7 -3.15 -18.3 -4.5 -17.85 M-7.0 -14.1 L-10.0 -10.85 -11.25 -9.1 Q-12.5 -6.9 -14.0 -5.05 L-14.45 -4.55 Q-12.05 -6.35 -9.9 -9.25 -7.85 -12.15 -6.2 -13.7 L-2.35 -16.95 Q-4.85 -15.95 -7.0 -14.1 M-14.6 -14.3 Q-16.55 -12.55 -17.35 -10.05 -16.1 -12.1 -14.25 -13.65 -11.95 -15.55 -8.5 -17.5 L-11.0 -16.8 Q-12.7 -16.0 -14.6 -14.3 M-4.35 -6.35 L-4.55 -5.7 -0.95 -12.75 -2.4 -10.65 -4.35 -6.35 M-6.5 1.6 L-5.6 0.8 -5.55 1.1 Q-5.55 2.05 -8.3 4.55 -11.05 7.05 -12.05 7.15 -9.45 5.2 -8.5 4.05 L-7.1 2.45 -6.5 1.6 M-16.65 5.25 L-16.65 7.8 Q-16.45 7.75 -16.45 8.0 L-16.6 10.0 Q-16.6 11.3 -16.05 13.4 L-15.0 16.3 Q-15.75 16.0 -16.3 15.0 L-16.4 14.95 -16.3 15.25 -15.25 16.8 -16.75 15.55 -17.9 14.35 -17.3 16.05 -17.3 16.1 Q-18.25 15.3 -18.95 13.75 -19.6 12.25 -19.6 11.2 L-19.5 11.0 -19.6 9.95 -19.55 9.6 -19.5 9.25 -19.45 8.15 Q-19.3 8.0 -19.2 8.3 L-18.3 10.4 -18.3 10.3 Q-18.3 8.75 -17.9 7.0 -17.4 4.6 -16.5 4.45 L-16.45 4.65 -16.65 5.25 M-17.25 7.0 L-17.45 7.45 Q-18.5 10.85 -16.6 14.05 L-16.7 13.45 -17.25 9.3 -17.25 7.0 M-18.75 10.9 L-18.6 11.1 -18.6 11.0 -18.75 10.8 -18.75 10.9 M-17.2 13.45 L-17.2 13.35 -17.25 13.4 -17.2 13.45 M-18.2 13.5 L-18.2 13.45 -18.25 13.45 -18.2 13.5" fill="#cb97ff" fill-rule="evenodd" stroke="none"/>
      <path d="M14.6 -19.05 Q12.7 -19.9 10.8 -19.9 L9.8 -19.9 10.2 -20.1 7.8 -19.6 8.1 -20.0 Q6.85 -20.75 5.05 -19.7 1.9 -21.85 -1.65 -20.15 L0.3 -19.95 Q1.75 -18.8 3.95 -18.6 2.6 -18.55 2.0 -17.2 L4.65 -17.05 4.5 -16.8 6.35 -17.05 Q7.9 -17.35 9.8 -17.0 L8.8 -16.9 9.55 -16.7 11.45 -15.75 10.0 -16.1 7.35 -16.35 8.95 -15.15 10.1 -13.9 11.0 -12.05 11.25 -10.65 Q11.2 -9.8 11.4 -9.1 L12.05 -7.4 Q12.45 -6.2 13.25 -5.25 L14.2 -4.0 16.55 -1.15 Q16.85 -3.6 15.8 -5.4 L16.0 -5.1 Q17.7 -2.95 17.95 -0.4 L18.0 -1.4 Q17.8 -3.75 17.2 -5.75 L17.95 -4.7 18.5 -3.8 18.35 -4.6 Q18.0 -7.3 17.25 -9.9 L19.2 -5.05 Q18.8 -6.5 18.55 -8.15 18.05 -11.05 15.85 -13.05 14.0 -14.85 11.8 -16.1 L14.45 -15.65 16.8 -15.05 Q15.4 -16.55 13.4 -17.05 L15.9 -16.2 Q18.5 -15.05 20.25 -13.35 L19.4 -15.15 Q18.5 -16.85 16.95 -17.75 L14.6 -19.05 M11.95 -20.85 L14.8 -19.95 Q16.75 -19.1 18.4 -17.7 L21.3 -14.7 23.65 -11.5 Q25.8 -8.65 24.95 -5.4 L24.75 -5.3 24.15 -5.95 24.45 -5.15 Q25.25 -3.3 25.55 -1.45 L26.0 2.9 Q26.2 5.2 25.75 7.45 25.2 10.0 23.85 12.2 L19.95 18.1 19.55 17.95 19.5 17.9 19.45 17.8 19.45 17.75 19.4 17.75 Q19.2 16.45 19.55 14.9 20.15 12.5 19.95 10.0 19.7 7.25 18.55 4.8 L16.2 0.75 Q14.2 -2.05 12.9 -5.15 12.2 -3.25 12.95 -1.35 L15.45 5.4 13.9 4.2 Q11.8 2.15 10.75 -0.6 9.65 -3.35 8.9 -6.3 8.15 -9.3 7.45 -10.5 6.7 -11.75 5.6 -11.25 4.5 -10.75 3.3 -8.55 L0.6 -3.85 -2.25 0.4 -2.55 0.85 -3.55 2.9 -5.1 5.8 -7.05 8.9 -8.6 10.8 Q-8.9 10.8 -8.9 10.35 L-8.75 8.75 -8.75 7.9 -9.9 8.9 -10.95 9.65 -11.35 9.25 -11.4 8.85 -12.6 9.3 -12.85 9.75 -13.5 10.3 Q-14.2 10.75 -14.65 10.75 -15.35 10.75 -15.4 10.15 L-15.35 12.2 Q-15.15 13.75 -13.45 16.7 -11.8 19.65 -10.45 19.75 L-10.95 21.0 Q-10.0 22.6 -11.1 22.1 -13.85 21.05 -15.9 19.25 -17.2 18.15 -17.65 16.8 -18.05 15.45 -18.8 14.2 -20.75 10.9 -20.55 7.15 L-20.2 6.65 Q-22.25 6.75 -24.25 7.75 L-24.05 7.15 Q-23.35 4.3 -22.3 1.6 -21.4 -0.7 -21.1 -3.35 -20.8 -5.9 -20.1 -8.35 -19.35 -10.95 -17.85 -13.1 -16.35 -15.3 -14.3 -17.05 -12.2 -18.95 -9.7 -20.15 -7.25 -21.4 -4.7 -21.95 L0.65 -22.3 6.05 -21.95 11.95 -20.85 M4.0 -17.15 L1.05 -16.65 -2.45 -15.5 Q-0.85 -16.55 0.1 -18.15 L0.2 -18.35 -1.05 -18.2 -1.75 -17.85 Q-1.5 -18.3 -1.55 -18.6 L-1.55 -18.9 -1.55 -19.15 Q-2.2 -19.75 -3.25 -19.55 L-5.75 -18.55 -7.7 -18.4 -8.0 -18.75 -7.3 -19.6 -9.85 -18.75 Q-11.65 -17.95 -13.4 -16.6 L-16.4 -13.9 Q-17.7 -12.5 -18.05 -10.4 L-18.45 -7.3 Q-17.85 -8.85 -16.75 -9.9 L-13.8 -12.55 -13.75 -12.55 Q-14.6 -10.75 -14.95 -8.85 L-14.95 -8.5 -12.85 -10.45 -11.75 -11.1 -11.65 -11.25 Q-11.45 -10.2 -12.25 -8.8 L-13.75 -6.3 -15.1 -4.35 Q-15.25 -4.65 -15.5 -3.9 L-15.5 -3.85 -16.05 -3.25 -15.65 -3.4 -15.7 -3.35 -16.25 -1.75 Q-16.1 -2.65 -16.3 -3.4 L-16.4 -3.8 Q-16.65 -4.5 -17.2 -5.1 L-17.3 -5.15 -17.55 -4.0 Q-17.5 -1.25 -18.95 1.1 L-20.9 3.9 Q-18.6 3.8 -16.25 1.45 -14.05 -0.8 -14.3 -3.75 L-14.35 -4.1 -13.55 -4.55 Q-11.95 -5.5 -10.85 -6.9 L-10.05 -7.85 -11.0 -4.75 Q-11.45 -3.15 -11.0 -1.45 L-10.8 -0.75 -8.85 -3.7 Q-8.65 -4.0 -8.65 -3.55 -8.75 -3.05 -8.5 -3.15 L-8.45 -3.25 -6.2 -5.1 -5.7 -5.5 Q-5.6 -5.1 -5.9 -4.55 L-5.0 -5.1 Q-5.35 -2.35 -7.4 -0.2 L-8.8 1.65 -9.0 2.0 -9.55 2.6 -9.9 2.9 -9.6 2.75 -9.85 3.1 -9.9 3.2 Q-10.85 4.35 -12.0 4.9 -9.7 2.05 -8.45 -0.45 -7.45 -2.5 -7.9 -2.85 -9.1 -0.25 -10.3 0.9 L-10.4 0.75 -10.25 0.4 -10.1 0.15 -9.95 -1.85 Q-11.35 1.85 -12.8 3.05 L-14.65 4.5 -13.9 4.75 Q-15.35 5.95 -16.4 7.45 -12.25 6.95 -10.6 5.15 L-9.45 3.7 -9.1 2.65 -9.0 2.35 -6.0 0.2 Q-4.25 -1.1 -2.95 -2.9 L-1.8 -4.6 Q-1.7 -4.2 -1.9 -3.6 L-2.0 -3.3 Q-1.0 -4.7 -0.25 -6.35 L1.25 -9.0 3.5 -12.1 Q4.6 -13.55 6.0 -14.35 L6.7 -14.8 5.0 -14.8 Q3.9 -14.85 3.05 -14.35 3.4 -14.9 4.25 -15.3 L5.45 -16.0 5.45 -16.05 3.65 -15.75 2.05 -14.5 2.0 -14.5 3.45 -16.3 4.0 -17.15 M7.8 -13.95 L8.6 -12.95 Q9.35 -12.25 9.85 -10.45 10.3 -8.7 10.95 -7.3 L11.25 -6.7 11.3 -6.7 Q10.75 -8.1 10.8 -10.25 10.8 -12.4 9.25 -13.75 7.7 -15.15 7.7 -14.65 L7.8 -13.95 M8.8 -11.15 Q8.8 -8.25 10.35 -5.8 L11.1 -4.75 10.8 -5.35 Q9.75 -7.5 9.15 -9.75 L8.8 -11.15 M-16.65 5.25 L-16.45 4.65 -16.5 4.45 Q-17.4 4.6 -17.9 7.0 -18.3 8.75 -18.3 10.3 L-18.3 10.4 -19.2 8.3 Q-19.3 8.0 -19.45 8.15 L-19.5 9.25 -19.55 9.6 -19.6 9.95 -19.5 11.0 -19.6 11.2 Q-19.6 12.25 -18.95 13.75 -18.25 15.3 -17.3 16.1 L-17.3 16.05 -17.9 14.35 -16.75 15.55 -15.25 16.8 -16.3 15.25 -16.4 14.95 -16.3 15.0 Q-15.75 16.0 -15.0 16.3 L-16.05 13.4 Q-16.6 11.3 -16.6 10.0 L-16.45 8.0 Q-16.45 7.75 -16.65 7.8 L-16.65 5.25 M-6.5 1.6 L-7.1 2.45 -8.5 4.05 Q-9.45 5.2 -12.05 7.15 -11.05 7.05 -8.3 4.55 -5.55 2.05 -5.55 1.1 L-5.6 0.8 -6.5 1.6 M23.7 -3.6 L23.15 -4.5 23.0 -4.7 22.35 -5.7 22.3 -5.7 22.25 -5.55 22.4 -4.95 22.95 -2.7 22.9 -2.05 23.05 -0.1 22.85 1.15 22.8 1.05 Q22.65 -0.25 22.15 -0.25 L22.1 -0.55 Q21.9 -2.7 20.85 -3.55 L20.8 -3.55 Q21.55 -1.3 21.8 1.05 L21.75 1.15 Q21.6 0.85 21.35 0.85 21.05 0.85 21.05 4.7 19.7 1.25 19.15 1.25 L19.05 1.3 19.05 1.6 19.6 3.0 20.4 4.9 20.85 6.7 Q21.0 7.8 21.3 8.4 L21.45 8.35 21.9 6.1 21.9 6.3 21.75 8.5 21.55 9.95 21.6 10.4 21.7 10.35 22.15 9.1 21.95 10.05 22.0 10.05 22.1 10.0 22.8 8.0 23.05 6.3 22.9 5.0 23.2 5.2 23.9 4.1 24.1 4.2 24.15 4.4 23.9 7.1 Q23.55 9.7 22.8 12.35 L22.5 13.35 Q24.5 10.7 24.8 7.35 L24.85 6.6 24.85 6.55 24.9 6.35 25.0 5.2 25.0 5.15 25.25 6.1 25.3 6.1 25.65 3.9 Q25.65 1.15 25.1 -0.65 L24.45 -2.25 23.7 -3.6" fill="#9163bf" fill-rule="evenodd" stroke="none"/>
      <path d="M16.45 -20.35 L13.85 -21.0 Q16.55 -20.4 18.95 -18.45 L20.05 -17.5 18.45 -19.45 16.45 -20.35 M19.0 -16.65 L18.35 -17.15 Q14.4 -19.95 11.8 -20.2 L9.05 -21.15 9.45 -21.2 9.45 -21.25 9.45 -21.45 9.45 -21.55 11.45 -22.2 15.75 -21.65 Q18.9 -20.9 21.3 -18.5 23.7 -16.1 24.25 -13.35 24.75 -10.6 26.25 -9.8 25.45 -10.05 24.9 -10.65 L25.85 -8.55 Q27.0 -5.7 27.6 -2.5 L27.35 -2.15 26.1 -3.95 Q28.45 3.0 26.1 9.95 24.85 13.45 22.5 16.25 L19.5 19.25 Q18.25 20.2 18.05 20.75 L17.6 22.1 Q17.35 22.85 17.6 24.25 16.65 23.55 16.55 22.75 L16.35 21.45 14.85 22.2 15.95 21.1 Q17.3 19.65 18.05 17.8 L16.6 19.55 16.55 19.25 17.55 16.75 Q18.5 14.2 18.5 11.5 L17.8 13.25 Q16.7 15.85 15.65 17.3 L16.15 15.95 Q16.75 14.15 16.95 12.25 L17.3 9.8 Q17.3 6.55 15.45 1.1 L13.5 -3.0 12.8 -4.65 Q13.7 0.35 14.95 2.75 16.6 5.85 16.75 7.35 L16.7 7.55 16.5 7.35 12.8 3.0 Q9.9 -0.6 8.85 -5.3 7.75 -10.0 5.7 -5.6 4.05 -10.3 2.15 -6.6 L2.1 -6.45 0.45 -3.15 -1.1 0.0 Q-1.9 2.0 -3.1 3.75 L-6.05 7.95 Q-7.75 10.2 -8.35 12.95 L-9.05 15.0 -9.25 14.5 Q-9.75 11.65 -9.55 8.8 -10.6 10.15 -11.15 12.1 -11.85 14.6 -12.1 17.2 -12.7 15.55 -12.65 13.75 L-12.0 9.45 -12.4 9.9 Q-14.05 12.0 -13.75 14.6 L-13.25 16.55 -12.5 17.9 -10.65 19.5 -8.95 21.95 -10.8 20.55 -9.65 22.45 -9.65 22.5 Q-11.7 20.85 -13.0 18.75 L-13.6 17.9 -14.5 16.0 -14.5 15.95 -14.75 15.4 -15.0 14.35 -15.85 10.05 -15.9 8.4 -15.45 6.4 Q-16.0 8.5 -15.05 10.35 -14.0 10.35 -13.15 9.05 -12.35 7.75 -11.0 7.1 L-11.1 8.5 -10.85 8.05 -9.45 6.05 -8.55 4.95 -6.65 2.85 -6.25 2.4 -4.35 0.25 Q-2.85 -1.6 -2.35 -3.1 L-2.25 -3.1 -2.15 -2.65 Q-2.15 -2.1 -3.15 -0.6 L-5.05 2.2 Q-7.85 6.3 -8.0 9.8 L-5.7 6.45 -3.45 2.55 -0.85 -2.6 1.9 -7.9 Q2.55 -9.25 3.5 -10.6 L1.9 -8.5 2.9 -10.2 Q3.7 -11.45 4.85 -11.95 6.2 -12.2 7.45 -11.2 L10.8 -2.6 Q12.5 1.7 13.5 2.6 L15.05 4.4 Q12.05 -1.6 11.8 -7.65 L12.05 -9.35 Q16.4 -1.6 18.25 3.3 20.1 8.2 20.25 11.85 20.35 14.15 19.75 16.25 L19.35 17.5 20.65 16.25 23.1 13.1 Q24.95 10.2 25.55 6.85 26.55 1.4 23.05 -6.3 19.55 -14.05 13.5 -15.1 17.3 -15.8 20.55 -12.55 23.45 -9.65 25.3 -5.95 L22.95 -11.35 Q21.75 -13.7 19.9 -15.8 L19.0 -16.65 M0.45 -17.5 Q-3.7 -15.15 -6.85 -11.4 -8.7 -9.15 -10.0 -6.5 -12.1 -2.15 -14.2 1.1 -16.3 4.3 -19.8 6.15 -20.2 8.25 -19.95 10.25 -19.6 13.0 -18.0 15.55 -16.55 17.9 -14.6 19.6 -15.75 18.55 -16.45 17.2 L-17.15 15.7 -17.3 15.3 Q-15.65 17.65 -12.9 20.0 L-12.05 20.7 -11.65 21.0 -11.3 21.25 -10.9 21.5 Q-9.2 22.7 -9.05 23.9 -8.9 25.05 -9.1 25.15 L-9.6 24.8 -10.55 23.45 Q-11.05 22.6 -12.35 21.9 L-13.25 21.5 -15.35 20.15 Q-17.65 18.45 -19.15 15.9 -20.45 13.8 -21.05 11.15 L-21.2 10.25 Q-21.35 8.7 -20.85 7.1 L-20.7 6.8 -22.75 6.6 -20.55 5.5 -20.55 5.45 -20.5 5.45 -19.15 4.7 Q-18.45 4.55 -17.35 3.3 -14.45 0.05 -12.55 -3.85 L-10.6 -7.25 -8.35 -10.35 Q-5.65 -14.05 -1.75 -16.4 L2.35 -18.9 5.05 -19.0 Q2.65 -18.8 0.45 -17.5 M5.55 -22.15 L4.9 -21.45 2.85 -21.65 Q-9.1 -22.15 -16.6 -12.75 L-16.5 -13.55 -17.4 -12.35 Q-20.45 -7.8 -20.35 -2.35 L-20.7 0.7 Q-21.1 4.0 -22.5 5.6 -23.9 7.15 -24.8 7.5 L-22.95 4.0 -22.2 2.1 -21.25 -1.15 -21.0 -3.15 -21.45 -0.95 -21.95 0.25 -22.2 0.75 -22.9 1.55 -23.45 2.25 -24.45 3.25 Q-27.15 3.8 -27.65 2.35 L-26.35 2.2 Q-25.3 1.95 -24.85 1.35 -23.1 -0.8 -22.65 -3.5 L-22.45 -4.55 Q-21.65 -9.55 -15.95 -16.55 -10.25 -23.55 2.2 -22.9 -7.1 -25.55 -13.85 -19.4 -10.65 -23.8 -5.4 -24.85 0.85 -26.15 5.55 -22.15" fill="#382849" fill-rule="evenodd" stroke="none"/>
      <path d="M23.0 -0.25 Q23.9 4.7 22.8 9.5 22.15 12.3 20.3 14.3 21.85 10.55 21.45 6.4 L20.75 2.8 Q22.05 3.75 22.2 7.2 L22.3 9.4 Q23.2 4.5 22.05 -0.3 21.15 -4.2 18.9 -7.5 L18.35 -8.25 Q22.1 -5.1 23.0 -0.25 M2.35 -18.9 Q-2.55 -17.9 -6.65 -14.8 -10.45 -12.0 -12.5 -7.8 -13.9 -4.95 -16.5 -3.15 -14.35 -4.7 -13.45 -7.1 -11.85 -11.4 -8.35 -14.45 -4.4 -18.0 0.5 -18.8 L2.35 -18.9 M-9.65 -16.2 Q-14.35 -13.7 -16.95 -9.6 -18.7 -7.0 -19.2 -5.4 -17.45 -11.7 -12.95 -14.9 -8.45 -18.15 -6.0 -18.5 L-3.25 -18.95 Q-6.45 -17.9 -9.65 -16.2 M-3.7 -8.75 L-5.9 -3.1 -5.75 -5.1 Q-5.4 -7.75 -4.0 -10.05 -2.55 -12.35 -0.4 -14.0 L0.55 -14.25 Q-2.35 -12.2 -3.7 -8.75" fill="#714c97" fill-rule="evenodd" stroke="none"/>
      <path d="M4.5 -13.8 Q2.55 -12.35 0.95 -10.4 -0.7 -8.5 -1.8 -6.55 L-3.7 -3.35 Q-4.95 -1.0 -7.2 0.4 L-7.5 0.55 -5.4 -1.8 Q-4.3 -3.3 -3.45 -5.15 L-1.1 -9.85 Q0.75 -13.3 4.5 -13.8 M11.65 -10.6 Q13.1 -9.4 14.0 -7.9 15.7 -5.15 16.0 -2.0 L14.05 -5.6 Q12.7 -8.0 11.65 -10.6 M12.45 -12.35 L14.8 -9.6 Q16.55 -7.35 17.3 -4.65 L17.6 -3.6 17.35 -4.25 16.5 -6.4 Q14.75 -9.6 12.45 -12.35 M8.8 -11.15 L9.15 -9.75 Q9.75 -7.5 10.8 -5.35 L11.1 -4.75 10.35 -5.8 Q8.8 -8.25 8.8 -11.15 M2.35 -16.15 L1.7 -15.75 Q-1.8 -13.75 -3.1 -11.7 L-5.95 -7.55 -7.55 -5.35 -7.3 -6.1 Q-6.3 -8.55 -4.9 -10.75 L-3.15 -13.0 -4.15 -12.25 -7.0 -9.0 Q-8.75 -6.8 -9.45 -4.9 L-10.3 -2.75 Q-10.0 -5.15 -8.75 -7.3 -7.5 -9.6 -5.75 -11.7 -3.55 -14.25 0.8 -15.8 L2.35 -16.15 M11.5 -13.95 L10.5 -14.5 9.4 -15.0 Q12.2 -14.95 14.25 -12.85 16.6 -10.4 17.6 -7.1 L17.75 -6.4 17.8 -5.95 Q17.1 -7.65 14.6 -11.45 L14.05 -12.0 11.5 -13.95 M18.3 -15.5 L17.1 -16.4 15.6 -17.25 13.6 -17.95 10.0 -18.5 7.95 -18.4 8.5 -19.05 10.6 -19.3 Q13.05 -19.35 15.35 -18.4 17.4 -17.5 18.3 -15.5 M11.0 -18.3 Q12.15 -18.0 12.55 -17.3 L10.7 -17.1 Q8.8 -18.15 6.8 -18.15 L6.8 -18.35 7.1 -18.4 7.95 -18.4 9.0 -18.4 11.0 -18.3 M23.65 -1.55 L23.35 -2.95 23.4 -3.3 23.45 -3.3 24.75 -0.7 Q25.3 0.55 25.3 1.8 L25.05 3.9 25.0 4.3 24.95 4.3 24.95 4.45 24.85 4.5 24.7 3.9 24.6 2.95 24.6 2.65 24.45 1.1 24.05 -0.15 23.65 -1.55 M23.25 0.15 Q23.8 0.15 23.8 2.35 L23.7 4.35 23.55 4.4 23.3 4.15 23.3 3.9 23.3 3.7 23.3 1.0 23.2 0.35 23.25 0.15 M22.05 2.0 L22.15 1.8 22.5 3.5 22.4 3.9 22.35 4.3 21.95 2.05 22.05 2.0 M-18.75 10.9 L-18.75 10.8 -18.6 11.0 -18.6 11.1 -18.75 10.9 M-4.35 -6.35 L-2.4 -10.65 -0.95 -12.75 -4.55 -5.7 -4.35 -6.35 M-15.1 -4.35 L-15.5 -3.85 -15.5 -3.9 Q-15.25 -4.65 -15.1 -4.35 M-13.75 -15.0 Q-12.3 -16.2 -11.0 -16.8 L-8.5 -17.5 -13.75 -14.05 -14.25 -13.65 Q-16.1 -12.1 -17.35 -10.05 -16.55 -12.55 -14.6 -14.3 L-13.75 -15.0 M-2.35 -16.95 L-6.2 -13.7 Q-7.85 -12.15 -9.9 -9.25 -11.75 -6.8 -13.75 -5.1 L-14.45 -4.55 -14.0 -5.05 -13.75 -5.35 Q-12.4 -7.1 -11.25 -9.1 L-10.0 -10.85 -7.0 -14.1 Q-4.85 -15.95 -2.35 -16.95 M-4.5 -17.85 L-3.15 -18.3 -4.1 -17.7 -6.35 -16.35 Q-9.9 -14.35 -13.05 -10.8 L-12.1 -12.6 Q-10.6 -14.8 -8.2 -16.2 -6.45 -17.2 -4.5 -17.85 M22.4 7.95 L22.4 6.45 22.4 5.5 22.45 6.5 22.4 7.95 M22.25 4.5 L22.2 4.5 22.2 4.45 22.25 4.5 M-17.25 9.3 L-16.7 13.45 -16.6 14.05 Q-18.5 10.85 -17.45 7.45 L-17.25 7.0 -17.25 9.3 M-18.25 13.45 L-18.2 13.45 -18.2 13.5 -18.25 13.45 M-17.25 13.4 L-17.2 13.35 -17.2 13.45 -17.25 13.4" fill="#ebd8ff" fill-rule="evenodd" stroke="none"/>
    </g>
  </defs>
</svg>
