<?xml version="1.0" encoding="UTF-8" standalone="no"?>
<svg xmlns:ffdec="https://www.free-decompiler.com/flash" xmlns:xlink="http://www.w3.org/1999/xlink" ffdec:objectType="frame" height="50.15px" width="63.2px" xmlns="http://www.w3.org/2000/svg">
  <g transform="matrix(1.0, 0.0, 0.0, 1.0, 33.95, 38.1)">
    <use ffdec:characterId="5" height="50.15" transform="matrix(1.0, 0.0, 0.0, 1.0, -0.6, -13.0)" width="63.2" xlink:href="#sprite0"/>
  </g>
  <defs>
    <g id="sprite0">
      <use ffdec:characterId="4" height="50.15" transform="matrix(1.0, 0.0, 0.0, 1.0, 0.0, 0.0)" width="63.2" xlink:href="#shape0"/>
    </g>
    <g id="shape0">
      <path d="M-17.65 8.2 L-17.6 8.3 -17.6 8.4 -17.65 8.4 -17.7 8.45 -18.1 8.9 -18.4 9.3 -18.45 9.35 -18.45 9.45 -18.5 9.5 -18.55 9.6 -18.65 9.65 -18.75 9.7 -18.8 9.75 -18.9 9.95 -18.9 10.05 -18.95 10.15 -19.0 10.15 -19.2 10.4 -19.3 10.5 -19.3 10.55 -19.35 10.6 -19.35 10.7 -19.35 10.8 -19.3 10.85 -19.3 10.9 Q-19.15 12.55 -19.35 14.25 L-19.45 14.85 -19.35 14.9 -19.25 15.0 -19.0 15.35 -18.95 15.4 -18.1 17.15 -17.8 18.85 -17.8 18.9 -17.75 18.95 -17.7 19.0 -17.7 19.1 -17.65 19.2 -17.65 19.3 -17.6 19.35 -17.6 19.4 -17.6 19.75 -17.6 20.3 -17.6 20.4 -17.6 21.1 -17.75 21.55 -17.95 21.45 -18.1 21.35 -19.45 19.95 -19.8 19.65 -19.95 19.5 -20.5 19.0 -20.65 18.95 -20.7 18.9 -20.7 18.85 -20.95 18.7 -21.05 18.6 -21.45 18.3 -21.6 18.2 -21.75 18.05 -21.8 18.0 -22.05 18.05 Q-22.95 18.05 -23.5 17.4 L-23.5 17.55 -23.45 17.65 -23.4 17.7 -23.0 18.1 -22.7 18.4 -22.6 18.45 -22.5 18.5 -22.45 18.6 -22.4 18.6 -22.25 18.65 -22.25 18.7 -22.15 18.85 -21.85 19.1 -21.45 19.45 -21.85 19.2 -22.2 19.0 -22.4 18.8 -23.0 18.3 -23.85 17.35 -24.15 16.8 -24.05 16.85 -24.0 16.9 -24.0 16.95 -23.95 17.0 -23.95 17.05 -23.85 17.15 -23.85 17.2 -23.55 17.35 -23.85 16.85 -23.3 15.85 -23.3 15.75 -24.05 13.6 Q-24.3 12.6 -24.2 11.6 L-24.25 11.6 -23.3 10.35 Q-23.3 9.95 -23.65 9.8 L-24.65 10.4 -25.2 11.1 -25.45 11.0 -25.5 10.9 -25.55 10.85 -25.95 11.0 -26.0 11.0 Q-26.35 11.4 -26.55 11.4 -27.5 11.4 -27.65 10.95 L-27.65 10.45 -27.25 8.25 -27.5 7.1 -27.0 5.7 -26.65 5.2 -25.75 4.15 Q-25.75 3.65 -26.35 3.6 -26.95 3.55 -27.3 4.1 L-27.4 4.15 -27.1 3.3 Q-27.75 3.15 -27.75 2.6 L-26.55 0.15 -26.8 0.0 -27.0 -0.05 -27.1 -0.1 -27.15 -0.2 -27.2 -0.3 -27.8 -0.85 -27.8 -0.9 -30.35 -0.95 Q-31.85 -0.95 -31.5 -1.6 -31.5 -2.3 -30.05 -3.5 L-28.75 -4.45 Q-28.6 -5.8 -28.05 -6.9 L-27.4 -7.95 -26.85 -8.65 -26.65 -8.85 -26.05 -9.15 -25.8 -9.5 -26.05 -9.6 -25.75 -9.9 -25.6 -9.95 -25.6 -10.0 -25.55 -10.05 -25.4 -10.15 -25.4 -10.2 -25.3 -10.3 -25.25 -10.35 -25.15 -10.45 -24.8 -10.9 -24.5 -11.3 -24.4 -11.35 -24.35 -11.35 -24.3 -11.4 -24.3 -11.45 -24.25 -11.5 -24.2 -11.55 -24.15 -11.6 -24.1 -11.65 -24.1 -11.7 -24.05 -11.75 -24.05 -11.8 -24.0 -11.85 -23.9 -11.9 -23.9 -11.95 -23.85 -12.05 -23.7 -12.3 -23.65 -12.45 -23.65 -12.55 -23.6 -12.55 -23.6 -12.65 -23.55 -12.75 -23.55 -12.85 -23.55 -13.3 -23.6 -13.6 -23.6 -13.75 -23.6 -13.95 -23.65 -14.05 -23.7 -14.15 -23.7 -14.25 -23.7 -14.35 -23.7 -14.45 -23.75 -14.5 -23.85 -14.65 -23.85 -14.7 -23.9 -14.8 -23.95 -14.9 -24.0 -15.0 -24.2 -15.2 -24.35 -15.35 -24.45 -15.45 -24.5 -15.55 -24.55 -15.6 -24.45 -15.55 -24.45 -15.6 Q-20.45 -15.1 -16.5 -16.6 L-16.4 -16.7 -16.35 -16.8 -16.2 -16.9 -16.15 -16.95 -16.15 -17.0 -16.05 -17.1 -15.9 -17.2 -15.85 -17.25 -15.85 -17.35 -15.85 -17.45 -15.85 -17.65 -15.85 -17.85 -15.85 -17.95 -15.9 -18.0 -16.9 -18.95 -17.15 -19.1 -19.25 -19.6 -17.6 -19.85 -14.15 -20.1 -13.25 -20.05 -12.85 -20.1 -12.5 -20.15 -12.4 -20.2 -12.45 -20.2 -12.5 -20.3 -12.55 -20.35 Q-11.4 -21.35 -9.8 -21.65 L-7.9 -21.95 -4.4 -22.2 -4.15 -22.2 -3.85 -22.25 -4.05 -22.25 -3.95 -22.35 -3.9 -22.4 -3.7 -22.5 -3.65 -22.65 -3.7 -22.7 -3.7 -23.1 -3.75 -23.15 -3.8 -23.2 -3.8 -23.3 -3.85 -23.35 -3.95 -23.45 -4.05 -23.55 -4.1 -23.65 Q-4.85 -24.2 -5.8 -24.4 L-6.65 -24.55 -6.65 -24.6 -0.65 -24.0 Q2.75 -23.3 5.95 -22.0 8.6 -20.95 10.65 -19.0 L10.75 -18.9 10.85 -18.7 10.9 -18.55 11.0 -18.45 11.05 -18.35 11.1 -18.25 11.15 -18.2 11.2 -18.15 11.25 -18.2 11.45 -19.6 11.3 -20.3 11.3 -20.5 11.25 -20.55 11.2 -20.8 11.7 -20.3 12.4 -19.5 12.5 -19.4 12.55 -19.35 12.75 -19.1 12.8 -18.95 12.9 -18.8 13.0 -18.7 13.1 -18.7 13.1 -18.65 13.1 -18.55 13.1 -18.45 13.15 -18.4 13.3 -18.4 13.45 -18.4 13.5 -18.4 13.55 -18.35 13.6 -18.3 13.6 -18.4 13.55 -18.45 13.55 -18.5 Q15.8 -19.1 18.0 -18.1 L20.1 -17.0 20.15 -16.95 20.65 -16.5 21.05 -16.0 21.15 -15.9 21.25 -15.8 21.3 -15.65 21.4 -15.55 21.4 -15.5 21.45 -15.45 21.45 -15.4 21.5 -15.35 21.6 -15.3 21.65 -15.35 21.7 -15.35 23.7 -14.4 24.45 -13.85 24.45 -13.8 24.55 -13.65 24.55 -13.55 24.6 -13.5 24.65 -13.45 24.7 -13.45 24.75 -13.4 24.8 -13.35 24.8 -13.3 24.85 -13.2 24.65 -13.15 24.45 -13.1 23.2 -12.8 23.1 -12.75 22.95 -12.75 22.75 -12.7 22.8 -12.7 22.9 -12.65 23.0 -12.65 23.05 -12.6 23.1 -12.6 23.1 -12.55 23.15 -12.5 23.25 -12.4 23.4 -12.35 23.65 -12.3 23.85 -12.15 24.05 -12.0 25.65 -9.95 26.8 -7.8 26.8 -7.7 26.85 -7.5 26.95 -7.4 26.95 -7.35 26.9 -7.2 26.95 -7.05 26.95 -7.0 25.4 -6.9 24.9 -6.65 24.65 -6.5 24.55 -6.4 24.55 -6.35 24.55 -6.25 24.5 -6.15 24.5 -6.05 24.45 -5.95 24.45 -5.85 24.45 -5.7 24.5 -5.6 24.85 -4.95 24.9 -4.9 24.95 -4.85 25.05 -4.75 25.45 -4.5 25.45 -4.45 27.5 -2.7 Q28.35 -1.75 28.6 -0.5 L28.6 -0.45 28.65 -0.4 28.7 -0.3 28.7 -0.2 28.6 -0.25 28.45 -0.3 28.35 -0.3 27.5 -0.2 27.4 -0.15 27.5 -0.15 Q25.85 0.65 25.5 2.5 L25.35 3.4 Q25.15 4.75 26.0 5.75 L26.1 5.8 26.8 6.15 27.8 6.2 27.8 6.65 27.05 8.2 Q26.0 10.35 24.15 11.85 L23.9 12.05 23.85 12.1 23.65 12.25 23.75 12.3 24.05 12.15 24.05 12.2 24.05 12.3 24.1 12.35 24.25 12.35 24.3 12.45 24.45 12.65 Q24.85 14.15 24.25 15.55 23.05 18.35 20.45 19.85 L20.35 19.9 19.95 20.1 19.9 20.1 19.8 20.15 19.8 20.2 19.75 20.2 19.8 20.2 19.95 20.25 20.0 20.3 20.0 20.35 20.0 20.5 20.0 20.55 20.0 20.65 20.0 20.7 19.95 20.75 19.95 20.8 20.0 20.85 19.55 22.05 19.05 23.6 18.85 23.35 18.8 23.35 18.8 23.3 18.75 23.25 18.75 23.2 18.7 23.15 18.7 23.1 18.6 23.05 18.6 23.0 18.55 22.95 18.5 22.8 18.45 22.75 18.45 22.7 18.4 22.65 18.25 22.5 18.25 22.45 Q17.6 21.3 17.8 19.95 17.95 18.7 18.8 17.8 L18.95 17.8 18.95 19.45 19.05 19.55 19.1 19.65 19.05 19.95 19.15 20.2 19.2 19.95 19.2 19.65 19.3 19.45 19.35 19.35 19.45 16.65 Q19.6 14.55 19.35 12.6 L19.6 12.8 19.95 13.05 19.8 13.0 19.7 13.05 19.75 13.65 19.75 13.7 19.8 13.85 19.8 13.9 Q20.15 15.2 19.95 16.65 L20.0 16.9 20.0 16.95 19.85 18.05 19.8 18.35 19.5 19.15 20.15 18.85 20.15 18.8 20.25 18.75 20.6 18.35 21.3 17.1 21.35 17.05 21.45 16.7 21.45 16.65 21.55 16.1 21.6 15.5 21.55 15.05 21.45 14.7 21.25 14.3 21.0 13.8 21.4 14.1 21.45 14.15 21.55 14.25 21.65 14.35 21.7 14.45 21.75 14.55 21.9 14.45 21.9 14.4 21.9 14.3 21.9 14.2 21.8 14.1 21.75 14.05 21.65 13.95 21.3 13.6 21.2 13.55 21.1 13.5 Q20.4 12.85 19.55 12.45 L19.15 12.2 18.85 12.05 Q17.3 10.95 16.2 9.35 13.9 6.15 13.75 2.25 L13.8 1.7 13.85 1.6 13.85 1.5 13.85 1.45 13.85 1.15 13.8 1.0 13.35 1.2 13.35 1.4 13.2 1.65 11.85 3.8 Q10.0 6.55 7.35 8.6 2.9 12.0 -2.35 12.85 L-0.45 11.9 2.2 9.7 4.1 7.35 Q6.7 3.2 7.7 -1.65 L7.6 -3.05 7.55 -3.9 7.5 -4.5 7.2 -4.05 6.6 -3.2 6.6 -3.15 Q4.95 -0.35 2.9 2.2 L-0.3 5.9 Q-4.6 10.4 -10.2 12.55 L-10.1 12.5 -9.75 12.3 -9.7 12.3 -9.7 12.25 -9.6 12.2 -8.65 11.55 -8.45 11.4 -8.1 11.2 -7.95 11.05 -8.15 11.15 -6.25 9.55 -5.4 8.6 -5.2 8.4 -4.8 7.95 -4.1 7.1 -3.0 6.5 -2.95 6.5 -2.6 6.3 -1.4 5.55 -0.75 5.1 0.5 4.05 3.45 0.9 4.0 0.15 5.45 -2.1 6.75 -4.5 6.8 -4.6 6.85 -4.65 6.95 -4.9 7.8 -6.7 7.95 -7.15 8.2 -8.45 8.2 -8.5 8.25 -8.55 8.25 -8.65 8.25 -8.75 8.2 -8.75 8.15 -8.8 8.25 -8.9 8.35 -8.9 8.4 -8.95 8.45 -8.9 8.65 -8.75 8.75 -8.6 8.8 -8.5 8.9 -8.35 9.0 -8.3 9.1 -7.95 9.2 -7.75 9.25 -7.55 9.5 -7.2 9.6 -6.75 9.8 -5.8 9.9 -5.15 9.9 -5.0 9.9 -4.7 Q9.85 -2.9 9.4 -1.2 L8.2 2.2 7.6 3.45 6.4 5.4 5.5 6.7 5.4 6.85 4.9 7.3 4.7 7.6 4.1 8.15 3.85 8.4 3.45 8.8 3.35 8.9 3.25 9.1 3.2 9.45 3.95 9.2 5.1 8.75 6.85 7.9 8.25 7.0 8.3 6.95 Q9.7 5.85 10.7 4.4 L11.45 3.2 12.45 1.15 12.6 0.95 12.8 -1.75 Q12.8 -3.75 12.25 -5.65 L12.05 -6.1 11.85 -6.75 12.0 -6.5 12.15 -6.3 12.2 -6.15 12.2 -6.05 12.2 -6.0 12.3 -5.95 12.3 -5.9 12.35 -5.85 12.6 -5.55 12.6 -5.5 12.75 -5.25 12.95 -4.9 13.25 -4.55 13.3 -4.5 13.4 -4.35 13.5 -4.2 13.55 -4.15 13.55 -4.1 13.8 -3.8 13.9 -3.7 14.05 -3.55 14.05 -3.5 14.1 -3.5 14.1 -3.45 14.15 -3.4 14.2 -3.35 14.25 -3.25 14.35 -3.15 14.45 -3.05 14.45 -3.0 14.5 -2.95 14.8 -2.6 15.45 -2.0 15.5 -1.95 15.55 -1.95 15.6 -1.9 15.95 -1.6 16.25 -1.35 16.3 -1.3 16.35 -1.3 16.4 -1.25 16.45 -1.25 16.5 -1.2 16.5 -1.15 16.75 -1.0 16.9 -0.85 16.95 -0.85 17.1 -0.75 17.1 -0.7 17.15 -0.65 17.25 -0.6 17.35 -0.55 17.45 -0.5 17.65 -0.35 17.8 -0.2 18.0 -0.1 18.1 -0.05 18.15 -0.05 18.25 0.1 17.3 -0.25 17.1 -0.3 16.7 -0.25 15.75 0.05 Q15.1 0.8 15.3 2.05 L15.45 2.9 Q15.9 5.1 17.15 7.2 L18.85 9.5 19.0 9.65 19.3 9.85 19.35 9.85 19.4 9.9 19.55 9.95 20.25 10.05 20.3 10.05 20.35 10.1 20.4 10.05 20.9 10.0 22.6 8.85 23.35 7.5 23.85 5.5 Q24.05 3.65 22.85 2.15 L22.8 2.1 22.15 1.5 21.75 1.2 22.05 1.2 22.8 1.1 Q23.45 1.0 23.9 0.5 L23.95 0.45 24.0 0.4 24.2 -0.2 24.25 -0.45 24.3 -0.6 24.35 -1.45 24.2 -2.5 24.05 -2.8 24.05 -2.85 24.05 -2.95 23.95 -3.2 23.85 -3.45 23.75 -3.55 23.65 -3.65 23.65 -3.7 23.5 -4.0 23.3 -4.2 23.3 -4.25 23.25 -4.3 23.25 -4.35 23.2 -4.35 23.1 -4.4 22.85 -4.7 22.65 -4.85 22.6 -4.9 22.55 -5.0 22.5 -5.05 22.35 -5.15 22.2 -5.25 22.1 -5.4 21.9 -5.5 21.85 -5.55 21.8 -5.6 21.75 -5.65 21.3 -5.95 20.65 -6.5 18.3 -7.6 19.75 -7.75 Q21.1 -7.95 22.35 -8.45 L23.0 -8.95 Q23.05 -9.55 22.55 -9.9 L22.45 -10.0 22.4 -10.05 Q21.55 -10.75 20.45 -11.1 L18.3 -11.55 Q19.65 -11.65 21.0 -12.15 L21.15 -12.2 21.5 -12.55 21.55 -12.85 21.55 -13.0 21.5 -13.15 21.45 -13.25 21.3 -13.4 21.1 -13.45 20.95 -13.55 20.9 -13.6 20.85 -13.6 20.1 -13.8 19.5 -13.95 19.05 -13.95 14.45 -13.8 14.4 -13.75 14.35 -13.7 14.3 -13.7 13.55 -13.6 13.55 -13.65 12.2 -14.15 9.55 -14.25 8.5 -14.1 5.8 -13.3 5.65 -13.2 5.65 -13.25 5.7 -13.25 5.75 -13.35 Q6.1 -13.5 6.25 -13.8 6.6 -14.45 6.2 -15.05 L6.0 -15.2 4.2 -15.9 1.4 -16.6 2.1 -16.6 2.65 -16.6 2.85 -16.55 5.35 -16.5 5.85 -16.65 5.95 -16.7 6.0 -16.75 6.25 -16.9 6.35 -16.95 6.35 -17.0 6.4 -17.2 6.4 -17.35 6.4 -17.4 6.35 -17.5 6.0 -17.75 5.7 -18.0 5.4 -18.15 5.25 -18.2 5.15 -18.25 4.5 -18.6 4.25 -18.65 3.9 -18.85 3.75 -18.95 3.75 -19.1 3.7 -19.15 3.7 -19.1 3.6 -19.05 3.5 -19.1 3.4 -19.15 3.3 -19.15 3.2 -19.15 3.15 -19.2 3.1 -19.25 1.95 -19.65 1.0 -19.95 Q-1.45 -20.65 -3.9 -20.75 L-6.6 -20.7 -7.1 -20.7 -7.2 -20.65 -7.35 -20.55 -7.4 -20.5 -7.45 -20.4 -7.5 -20.35 -7.5 -20.2 -7.55 -20.0 -7.6 -19.8 -7.5 -19.75 -7.45 -19.7 -7.4 -19.6 -7.35 -19.5 Q-6.2 -18.75 -4.85 -18.3 L-3.8 -17.95 -3.55 -17.8 -3.1 -17.7 -2.6 -17.6 -2.25 -17.45 -1.8 -17.3 -1.6 -17.2 -1.95 -17.25 -6.6 -18.15 -11.3 -19.05 -11.75 -19.0 -11.9 -19.0 -14.35 -18.95 -13.9 -18.75 -13.85 -18.75 -13.65 -18.7 -13.55 -18.6 -13.5 -18.55 -13.35 -18.5 -12.7 -18.15 -12.55 -17.8 -12.5 -17.6 -12.55 -17.25 -12.65 -17.1 Q-13.2 -16.4 -14.05 -16.0 -15.7 -15.25 -17.4 -15.15 L-17.85 -15.15 -17.9 -15.1 -18.0 -15.1 -18.1 -15.1 -18.15 -15.1 -19.3 -15.15 -19.8 -15.1 -20.5 -14.95 -20.65 -14.9 -21.1 -14.75 Q-21.8 -14.55 -22.3 -14.05 L-22.5 -13.9 -22.8 -13.15 -22.8 -12.95 -22.7 -12.85 -22.65 -12.85 -22.65 -12.75 -22.55 -12.65 -22.55 -12.6 -21.0 -12.4 -19.05 -12.5 -18.6 -12.55 -17.95 -12.7 -18.2 -12.55 -18.55 -12.45 Q-18.6 -12.3 -18.95 -12.25 L-20.0 -11.9 -21.45 -11.15 -23.05 -10.15 -23.7 -9.25 Q-24.6 -7.7 -24.6 -5.7 L-24.5 -4.1 Q-22.45 -3.85 -20.3 -4.5 L-20.15 -4.6 -20.15 -4.55 -20.3 -4.5 Q-21.7 -3.6 -22.55 -2.15 L-22.55 -1.75 -19.75 -1.65 -21.55 0.2 -23.5 3.5 Q-24.35 5.0 -24.4 6.8 L-24.15 7.65 Q-23.0 7.95 -22.15 7.2 L-21.5 6.8 -21.7 8.25 -22.2 11.25 Q-22.4 14.0 -21.1 16.1 L-20.95 15.35 -20.95 15.3 -20.9 15.15 -20.9 15.05 -20.85 15.05 -20.85 15.0 -20.75 14.65 -20.65 14.35 -20.65 14.3 -20.55 14.2 -20.6 14.1 -20.6 14.05 -20.55 13.9 -20.55 13.8 -20.5 13.6 -20.4 12.7 -20.4 12.6 -20.4 12.55 -20.45 12.5 -20.45 12.45 -20.45 12.25 -20.45 11.9 -20.45 11.75 -20.5 11.7 -20.6 11.65 -20.6 11.55 -20.6 11.45 -20.6 11.3 -20.6 11.15 -20.65 11.1 -20.65 11.0 -20.65 10.85 -20.85 10.4 -20.75 10.35 -20.7 10.3 -20.05 9.75 -20.0 9.7 -19.85 9.5 Q-19.15 8.6 -18.8 7.5 L-18.55 6.3 -18.55 5.1 -18.55 5.0 -18.5 4.15 -18.5 3.75 -18.4 3.15 -18.35 3.05 -18.35 2.85 -18.35 2.6 -18.35 2.55 -18.3 2.55 -18.3 2.5 -18.3 2.35 -18.3 2.2 -18.25 2.15 -18.25 2.1 -18.2 1.75 -18.25 1.45 -18.05 1.05 -17.9 0.85 -17.85 0.75 -17.8 0.65 -17.6 0.15 -17.45 -0.2 -17.3 -0.4 -17.25 -0.5 -17.25 -0.55 -17.15 -0.8 -17.0 -1.05 -17.0 -1.2 -16.9 -1.3 -16.9 -1.35 -16.85 -1.35 -16.8 -1.4 -16.8 -1.45 -16.7 -1.7 -16.7 -1.8 -16.55 -1.9 -16.55 -1.95 -16.5 -2.0 -16.5 -2.1 -16.15 -2.5 -15.9 -2.85 -15.8 -2.9 -15.8 -2.95 -15.75 -3.0 -15.6 -3.15 -15.45 -3.3 -15.45 -3.4 -15.4 -3.5 -15.3 -3.6 -15.2 -3.7 -15.1 -3.8 -14.95 -3.9 -14.9 -3.95 -14.75 -4.15 -14.65 -4.3 -14.6 -4.35 -14.6 -4.4 -14.55 -4.4 -14.45 -4.45 -14.6 -3.95 -14.65 -3.75 -14.7 -3.7 -14.85 -3.5 -14.85 -3.4 -15.0 -3.25 -15.05 -3.2 -15.05 -3.15 -15.1 -3.1 -15.05 -3.05 -15.4 -2.5 -15.5 -2.3 -15.6 -2.05 -15.7 -1.8 -15.75 -1.8 -15.75 -1.75 -15.8 -1.7 -15.8 -1.6 -15.85 -1.55 -15.85 -1.45 -15.9 -1.35 -15.95 -1.3 -15.9 -1.25 -16.05 -1.0 -16.05 -0.75 -16.05 -0.7 -16.1 -0.6 -16.15 -0.55 -16.15 -0.5 -16.2 -0.45 -16.25 -0.35 -16.25 -0.15 -16.3 -0.1 -16.35 0.1 -16.4 0.25 -16.45 0.5 -16.55 0.8 -16.6 1.05 -16.7 1.35 -16.65 1.65 -16.6 1.65 -16.55 1.7 -16.6 1.85 -16.6 2.05 -16.55 2.15 -16.5 2.25 -16.5 2.35 -16.45 2.35 -16.35 2.4 -15.7 2.4 -15.2 2.1 -12.9 0.2 -11.75 -0.75 -10.8 -1.65 -10.35 -2.0 -9.35 -2.55 -6.45 -4.1 -5.6 -4.45 -5.3 -4.45 -4.8 -4.55 -4.7 -4.55 -3.95 -4.65 -4.7 -4.1 -4.9 -3.95 -5.6 -3.3 -5.9 -3.05 -6.05 -2.9 -6.3 -2.6 -6.25 -2.6 -6.25 -2.5 -6.35 -2.55 -6.5 -2.35 -6.55 -2.3 -6.6 -2.2 -7.25 -1.35 -9.25 1.55 Q-10.1 3.0 -10.85 5.55 L-11.05 6.2 Q-8.7 5.05 -6.45 3.7 L-5.35 3.05 -3.65 1.85 -2.85 1.1 -2.6 0.9 -2.1 0.4 -1.7 0.0 -0.75 -1.1 -0.6 -1.25 -0.2 -1.75 0.7 -2.9 0.95 -3.25 1.3 -3.8 1.4 -3.9 1.6 -4.05 1.65 -4.1 1.7 -4.1 1.7 -4.05 1.8 -4.1 1.8 -4.05 1.85 -4.0 1.85 -3.95 1.9 -3.7 1.9 -3.45 1.65 -1.45 1.25 -0.5 0.65 0.65 -1.3 3.65 -2.45 5.1 -2.85 5.55 -3.3 6.15 -3.7 6.55 -3.8 6.75 -3.75 6.55 -3.6 6.35 Q-2.05 4.3 -0.75 2.0 L-0.05 0.35 0.0 0.3 0.25 -0.15 0.25 -0.2 0.4 -0.6 0.4 -0.9 0.55 -1.5 0.6 -1.55 0.65 -1.75 0.65 -1.8 0.6 -1.8 0.5 -1.75 0.4 -1.75 0.3 -1.65 -0.75 -0.3 -0.75 -0.25 -2.55 1.85 -2.55 1.8 -3.3 2.5 -4.45 3.7 Q-6.9 6.2 -9.65 8.35 L-11.15 9.45 -11.25 9.5 -11.75 9.85 -12.05 10.0 -12.25 10.15 -12.55 10.2 -12.8 10.1 -12.85 10.05 -12.85 10.0 -12.9 9.9 -12.85 9.7 -12.2 7.1 -12.25 6.55 Q-12.25 4.95 -11.2 2.4 L-10.35 0.3 -9.1 -1.65 -8.7 -1.4 -8.5 -1.65 -8.3 -1.8 -8.1 -1.75 -8.1 -1.45 -8.95 0.05 -7.15 -2.25 -6.85 -2.6 -6.9 -2.6 -7.1 -2.6 -7.15 -2.6 -7.2 -2.6 -7.25 -2.55 -7.3 -2.55 -7.55 -2.55 -7.5 -2.6 -7.85 -2.55 -8.15 -2.5 -8.1 -2.45 -9.2 -2.0 -9.45 -1.85 -9.5 -1.85 -9.5 -1.8 -9.75 -1.65 -9.6 -1.9 -10.35 -1.3 -10.4 -1.25 -10.6 -1.15 -11.0 -0.85 -11.05 -0.8 -11.05 -0.75 -11.1 -0.7 -11.15 -0.65 -11.25 -0.6 -11.3 -0.55 -11.4 -0.5 -11.55 -0.4 -11.6 -0.35 -11.6 -0.25 -11.65 -0.2 -11.7 -0.15 -11.8 -0.1 -11.85 -0.05 -11.85 0.0 -11.95 0.1 -12.05 0.15 -12.05 0.2 -12.45 0.65 -12.7 1.05 -12.8 1.1 -12.85 1.15 -12.85 1.25 -12.9 1.3 -12.95 1.35 -13.05 1.45 -13.1 1.5 -13.1 1.6 -13.15 1.75 -13.2 1.85 -13.25 1.9 -13.15 2.25 -13.6 3.35 Q-14.1 4.35 -14.4 4.35 L-14.45 4.35 -14.5 4.35 -14.55 4.45 -14.65 4.7 -14.7 4.85 -14.7 4.95 -14.75 4.95 -14.75 5.0 -14.85 5.25 -14.85 5.35 -14.95 5.4 -14.95 5.45 -15.05 5.75 -15.2 5.95 -15.2 6.0 -15.3 6.15 -15.3 6.35 -15.35 6.4 -15.35 6.55 -15.45 6.65 -15.45 6.75 -15.5 6.85 -15.5 7.0 -15.6 7.15 -15.65 7.2 -15.65 7.5 -15.7 7.55 -15.7 7.7 -15.75 7.75 -15.75 7.8 -15.9 7.95 -15.95 8.0 -15.95 8.1 -15.95 8.2 -15.95 8.3 -16.0 8.3 -16.0 8.4 -16.0 8.5 -16.0 8.65 -16.35 8.45 -16.15 8.65 -16.25 8.6 -16.35 8.45 -16.55 8.2 -16.45 8.3 -16.6 8.1 -16.65 7.95 -16.7 7.85 -16.75 7.7 -16.8 7.65 -16.8 7.5 -16.85 7.4 -16.9 7.3 -16.9 7.2 -16.95 7.05 -17.0 7.0 -17.0 6.95 -17.0 6.8 -17.05 6.75 -17.15 5.95 -17.15 4.6 -17.2 4.5 -17.2 4.3 -17.15 4.25 -17.15 4.15 -17.2 3.8 -17.3 3.2 -17.25 3.2 -17.3 3.1 -17.25 3.05 -17.3 2.95 -17.25 2.7 -17.25 2.3 -17.2 2.25 -17.15 2.2 -17.15 1.85 -17.15 1.3 -17.3 1.6 Q-17.25 1.9 -17.35 2.2 L-17.4 2.3 -17.45 2.4 -17.5 2.45 -17.5 2.55 -17.5 2.6 -17.55 2.65 -17.6 2.85 -17.7 3.15 -17.8 3.55 -17.85 4.1 -17.9 4.15 -17.95 4.25 -17.95 4.4 -17.95 4.6 -18.0 4.65 -18.05 4.7 -18.1 5.5 -18.05 6.8 -18.05 6.85 -18.0 6.9 -18.0 7.0 -17.95 7.25 -17.9 7.35 -17.9 7.45 -17.85 7.5 -17.8 7.5 -17.8 7.65 -17.8 7.75 -17.7 8.1 -17.65 8.3 -17.65 8.2 M-23.6 -15.1 L-23.4 -15.1 -21.6 -15.25 -20.3 -15.45 -20.65 -15.45 -21.6 -15.25 -23.6 -15.1 M-23.0 -13.75 L-23.0 -13.7 -22.95 -13.7 -23.0 -13.75 M-1.25 -21.7 L-1.25 -21.65 -1.3 -21.5 -1.25 -21.5 -1.25 -21.45 -1.2 -21.4 -0.55 -20.9 0.85 -20.5 1.05 -20.4 1.4 -20.3 1.65 -20.15 2.0 -20.05 2.3 -19.95 2.75 -19.8 2.85 -19.7 2.85 -19.75 Q4.0 -19.25 5.3 -18.9 L5.3 -18.85 5.35 -18.85 5.5 -18.75 6.15 -18.5 6.2 -18.45 6.55 -18.4 7.6 -18.15 8.75 -18.2 8.95 -18.25 9.1 -18.4 9.15 -18.4 8.9 -18.75 8.4 -19.2 Q6.75 -20.7 4.6 -21.35 L3.45 -21.65 3.45 -21.55 3.35 -21.55 3.3 -21.6 3.25 -21.6 3.2 -21.65 2.7 -21.75 -0.55 -21.95 -1.05 -21.9 -1.05 -21.85 -1.15 -21.8 -1.15 -21.75 -1.2 -21.75 -1.25 -21.7 M-15.85 -17.15 L-15.85 -17.1 -15.7 -17.4 -15.85 -17.15 M-16.9 -18.95 L-15.6 -18.3 -15.7 -18.4 -16.9 -18.95 M14.95 -17.3 L13.5 -17.3 13.3 -17.25 13.0 -17.2 12.65 -17.2 12.3 -17.1 11.9 -16.95 11.85 -16.9 11.75 -16.85 11.65 -16.75 11.6 -16.65 11.55 -16.55 11.5 -16.5 11.5 -16.4 11.5 -16.25 11.45 -16.2 11.45 -16.05 11.45 -15.9 11.55 -15.7 11.75 -15.4 Q11.9 -15.25 12.15 -15.2 L12.6 -14.95 12.65 -14.9 13.05 -14.9 13.3 -14.85 13.85 -14.7 15.55 -14.95 15.7 -14.9 16.7 -15.1 16.95 -15.2 17.05 -15.2 17.2 -15.2 17.3 -15.3 17.4 -15.35 17.45 -15.4 17.6 -15.45 17.65 -15.45 17.7 -15.5 17.8 -15.55 17.8 -15.6 17.9 -15.65 17.95 -15.7 17.95 -15.9 17.95 -16.0 17.95 -16.15 17.95 -16.2 17.85 -16.25 17.85 -16.3 17.8 -16.4 17.6 -16.6 17.5 -16.6 17.25 -16.7 16.8 -16.85 15.25 -17.25 15.2 -17.25 15.1 -17.3 14.95 -17.3 M11.7 -18.05 L11.75 -18.1 11.7 -18.05 M13.15 -14.05 L13.25 -14.1 13.1 -14.1 13.15 -14.05 M3.35 -19.45 L3.4 -19.4 3.45 -19.4 3.35 -19.45 M9.8 -17.35 L9.85 -17.35 9.8 -17.4 9.8 -17.35 M14.15 -2.6 L14.2 -2.6 14.15 -2.65 14.15 -2.6 M25.75 0.85 L25.8 0.8 25.75 0.8 25.75 0.85 M5.9 4.6 L6.05 4.05 5.8 4.9 5.9 4.6 M6.1 3.7 L6.2 3.7 6.45 2.9 6.1 3.7 M5.4 5.7 L5.4 5.8 5.45 5.7 5.4 5.7 M5.35 5.9 L5.35 5.85 5.3 5.95 5.25 6.05 5.25 6.1 5.3 5.95 5.35 5.9 M5.05 6.4 L5.2 6.15 5.15 6.2 5.05 6.4 M4.75 6.9 L4.45 7.3 3.35 8.75 4.75 6.9 M-7.05 10.85 L-7.2 10.95 -7.15 10.95 -7.05 10.85 M-19.3 20.05 L-19.2 20.15 -17.75 21.25 -19.3 20.05 M-24.25 16.65 L-24.25 16.6 -24.25 16.65" fill="#35183d" fill-rule="evenodd" stroke="none"/>
      <path d="M19.95 13.05 L21.0 13.8 21.25 14.3 21.45 14.7 21.55 15.05 21.6 15.5 21.55 16.1 21.45 16.65 21.45 16.7 21.35 17.05 21.3 17.1 20.6 18.35 20.25 18.75 20.15 18.8 20.15 18.85 19.5 19.15 19.8 18.35 19.85 18.05 20.0 16.95 20.0 16.9 19.95 16.65 Q20.15 15.2 19.8 13.9 L19.8 13.85 19.85 13.8 19.9 13.8 19.85 13.75 19.75 13.65 19.7 13.05 19.8 13.0 19.95 13.05 M-1.25 -21.7 L-1.2 -21.75 -1.15 -21.75 -1.15 -21.8 -1.05 -21.85 -1.05 -21.9 -0.55 -21.95 2.7 -21.75 3.2 -21.65 3.25 -21.6 3.3 -21.6 3.35 -21.55 3.45 -21.55 3.45 -21.65 4.6 -21.35 Q6.75 -20.7 8.4 -19.2 L8.9 -18.75 9.15 -18.4 9.1 -18.4 8.95 -18.25 8.75 -18.2 7.6 -18.15 6.55 -18.4 6.2 -18.45 6.15 -18.5 5.5 -18.75 5.35 -18.85 5.3 -18.85 5.3 -18.9 Q4.0 -19.25 2.85 -19.75 L2.85 -19.7 2.75 -19.8 2.3 -19.95 2.0 -20.05 1.65 -20.15 1.4 -20.3 1.05 -20.4 0.85 -20.5 -0.55 -20.9 -1.2 -21.4 -1.25 -21.45 -1.25 -21.5 -1.3 -21.5 -1.25 -21.65 -1.25 -21.7 M14.95 -17.3 L15.1 -17.3 15.2 -17.25 15.25 -17.25 16.8 -16.85 17.25 -16.7 17.5 -16.6 17.6 -16.6 17.8 -16.4 17.85 -16.3 17.85 -16.25 17.95 -16.2 17.95 -16.15 17.95 -16.0 17.95 -15.9 17.95 -15.7 17.9 -15.65 17.8 -15.6 17.8 -15.55 17.7 -15.5 17.65 -15.45 17.6 -15.45 17.45 -15.4 17.4 -15.35 17.3 -15.3 17.2 -15.2 17.05 -15.2 16.95 -15.2 16.7 -15.1 15.7 -14.9 15.55 -14.95 13.85 -14.7 13.3 -14.85 13.05 -14.9 12.65 -14.9 12.6 -14.95 12.15 -15.2 Q11.9 -15.25 11.75 -15.4 L11.55 -15.7 11.45 -15.9 11.45 -16.05 11.45 -16.2 11.5 -16.25 11.5 -16.4 11.5 -16.5 11.55 -16.55 11.6 -16.65 11.65 -16.75 11.75 -16.85 11.85 -16.9 11.9 -16.95 12.3 -17.1 12.65 -17.2 13.0 -17.2 13.3 -17.25 13.5 -17.3 14.95 -17.3" fill="#5a245b" fill-rule="evenodd" stroke="none"/>
      <path d="M11.7 -18.05 L11.75 -18.1 11.7 -18.05" fill="#000000" fill-rule="evenodd" stroke="none"/>
      <path d="M-17.3 3.2 L-17.3 3.1 -17.25 3.2 -17.3 3.2 M-23.0 -13.75 L-22.95 -13.7 -23.0 -13.7 -23.0 -13.75 M13.15 -14.05 L13.1 -14.1 13.25 -14.1 13.15 -14.05 M3.35 -19.45 L3.45 -19.4 3.4 -19.4 3.35 -19.45 M9.8 -17.35 L9.8 -17.4 9.85 -17.35 9.8 -17.35" fill="#787029" fill-rule="evenodd" stroke="none"/>
      <path d="M-4.1 7.1 L-3.85 6.75 -3.8 6.75 -3.7 6.55 -3.3 6.15 -2.85 5.55 -2.45 5.1 -1.3 3.65 0.65 0.65 1.25 -0.5 1.65 -1.45 1.9 -3.45 1.9 -3.7 1.85 -3.95 1.85 -4.0 1.8 -4.05 1.8 -4.1 1.7 -4.05 1.7 -4.1 1.65 -4.1 1.6 -4.05 1.4 -3.9 1.3 -3.8 0.95 -3.25 0.7 -2.9 -0.2 -1.75 -0.6 -1.25 -0.75 -1.1 -1.7 0.0 -2.1 0.4 -2.6 0.9 -2.85 1.1 -3.65 1.85 -5.35 3.05 -6.45 3.7 Q-8.7 5.05 -11.05 6.2 L-10.85 5.55 Q-10.1 3.0 -9.25 1.55 L-7.25 -1.35 -6.6 -2.2 -6.3 -2.45 -6.25 -2.5 -6.05 -2.6 -6.25 -2.6 -6.3 -2.6 -6.05 -2.9 -5.9 -3.05 -5.6 -3.3 -4.9 -3.95 -4.7 -4.1 -3.95 -4.65 -4.7 -4.55 -4.8 -4.55 -5.3 -4.45 -5.6 -4.45 -6.45 -4.1 -9.35 -2.55 -10.35 -2.0 -10.8 -1.65 -11.75 -0.75 -12.9 0.2 -15.2 2.1 -15.7 2.4 -16.35 2.4 -16.45 2.35 -16.5 2.35 -16.5 2.25 -16.55 2.15 -16.6 2.05 -16.6 1.85 -16.55 1.7 -16.6 1.65 -16.65 1.65 -16.7 1.35 -16.6 1.05 -16.55 0.8 -16.45 0.5 -16.4 0.25 -16.35 0.1 -16.3 -0.1 -16.25 -0.15 -16.25 -0.35 -16.2 -0.45 -16.15 -0.5 -16.15 -0.55 -16.1 -0.6 -16.05 -0.7 -16.05 -0.75 -16.05 -1.0 -15.9 -1.25 -15.95 -1.3 -15.9 -1.35 -15.85 -1.45 -15.85 -1.55 -15.8 -1.6 -15.8 -1.7 -15.75 -1.75 -15.75 -1.8 -15.7 -1.8 -15.6 -2.05 -15.5 -2.3 -15.4 -2.5 -15.05 -3.05 -15.1 -3.1 -15.05 -3.15 -15.05 -3.2 -15.0 -3.25 -14.85 -3.4 -14.85 -3.5 -14.7 -3.7 -14.65 -3.75 -14.6 -3.95 -14.45 -4.45 -14.55 -4.4 -14.6 -4.4 -14.6 -4.35 -14.65 -4.3 -14.75 -4.15 -14.9 -3.95 -14.95 -3.9 -15.1 -3.8 -15.2 -3.7 -15.3 -3.6 -15.4 -3.5 -15.45 -3.4 -15.45 -3.3 -15.6 -3.15 -15.75 -3.0 -15.8 -2.95 -15.8 -2.9 -15.9 -2.85 -16.15 -2.5 -16.5 -2.1 -16.5 -2.0 -16.55 -1.95 -16.55 -1.9 -16.7 -1.8 -16.7 -1.7 -16.8 -1.45 -16.8 -1.4 -16.85 -1.35 -16.9 -1.35 -16.9 -1.3 -17.0 -1.2 -17.0 -1.05 -17.15 -0.8 -17.25 -0.55 -17.25 -0.5 -17.3 -0.4 -17.45 -0.2 -17.6 0.15 -17.8 0.65 -17.85 0.75 -17.9 0.85 -18.05 1.05 -18.25 1.45 -18.2 1.75 -18.25 2.1 -18.25 2.15 -18.3 2.2 -18.3 2.35 -18.3 2.5 -18.3 2.55 -18.35 2.55 -18.35 2.6 -18.35 2.85 -18.35 3.05 -18.4 3.15 -18.5 3.75 -18.5 4.15 -18.55 5.0 -18.55 5.1 -18.55 6.3 -18.8 7.5 Q-19.15 8.6 -19.85 9.5 L-20.0 9.7 -20.05 9.75 -20.7 10.3 -20.75 10.35 -20.85 10.4 -20.65 10.85 -20.65 11.0 -20.65 11.1 -20.6 11.15 -20.6 11.3 -20.6 11.45 -20.6 11.55 -20.6 11.65 -20.5 11.7 -20.45 11.75 -20.45 11.9 -20.45 12.25 -20.45 12.45 -20.45 12.5 -20.4 12.55 -20.4 12.6 -20.4 12.7 -20.5 13.6 -20.55 13.8 -20.55 13.9 -20.6 14.05 -20.6 14.1 -20.55 14.2 -20.65 14.3 -20.65 14.35 -20.75 14.65 -20.85 15.0 -20.85 15.05 -20.9 15.05 -20.9 15.15 -20.95 15.3 -20.95 15.35 -21.1 16.1 Q-22.4 14.0 -22.2 11.25 L-21.7 8.25 -21.5 6.8 -22.15 7.2 Q-23.0 7.95 -24.15 7.65 L-24.4 6.8 Q-24.35 5.0 -23.5 3.5 L-21.55 0.2 -19.75 -1.65 -22.55 -1.75 -22.55 -2.15 Q-21.7 -3.6 -20.3 -4.5 L-20.15 -4.55 -20.15 -4.6 -20.3 -4.5 Q-22.45 -3.85 -24.5 -4.1 L-24.6 -5.7 Q-24.6 -7.7 -23.7 -9.25 L-23.05 -10.15 -21.45 -11.15 -20.35 -11.7 -20.0 -11.9 -18.95 -12.25 Q-18.6 -12.3 -18.55 -12.45 L-18.2 -12.55 -17.95 -12.7 -18.6 -12.55 -19.05 -12.5 -21.0 -12.4 -22.55 -12.6 -22.55 -12.65 -22.65 -12.75 -22.65 -12.85 -22.7 -12.85 -22.8 -12.95 -22.8 -13.15 -22.5 -13.9 -22.3 -14.05 Q-21.8 -14.55 -21.1 -14.75 L-20.65 -14.9 -20.5 -14.95 -20.4 -14.95 -19.8 -15.1 -19.3 -15.15 -18.15 -15.1 -18.1 -15.1 -18.0 -15.1 -17.9 -15.1 -17.85 -15.15 -17.4 -15.15 Q-15.7 -15.25 -14.05 -16.0 -13.2 -16.4 -12.65 -17.1 L-12.55 -17.25 -12.5 -17.6 -12.55 -17.8 -12.7 -18.15 -13.35 -18.5 -13.5 -18.55 -13.55 -18.6 -13.65 -18.7 -13.85 -18.75 -13.9 -18.75 -14.35 -18.95 -11.9 -19.0 -11.75 -19.0 -11.3 -19.05 -6.6 -18.15 -1.95 -17.25 -1.6 -17.2 -1.8 -17.3 -2.25 -17.45 -2.6 -17.6 -3.1 -17.7 -3.55 -17.8 -3.8 -17.95 -4.85 -18.3 Q-6.2 -18.75 -7.35 -19.5 L-7.4 -19.6 -7.45 -19.7 -7.5 -19.75 -7.6 -19.8 -7.55 -20.0 -7.5 -20.2 -7.5 -20.35 -7.45 -20.4 -7.4 -20.5 -7.35 -20.55 -7.2 -20.65 -7.1 -20.7 -6.6 -20.7 -3.9 -20.75 Q-1.45 -20.65 1.0 -19.95 L1.95 -19.65 3.1 -19.25 3.15 -19.2 3.2 -19.15 3.3 -19.15 3.4 -19.15 3.5 -19.1 3.6 -19.05 3.7 -19.1 3.7 -19.15 3.75 -19.1 3.75 -18.95 3.9 -18.85 4.25 -18.65 4.5 -18.6 5.15 -18.25 5.25 -18.2 5.4 -18.15 5.7 -18.0 6.0 -17.75 6.35 -17.5 6.4 -17.4 6.4 -17.35 6.4 -17.2 6.35 -17.0 6.35 -16.95 6.25 -16.9 6.0 -16.75 5.95 -16.7 5.85 -16.65 5.35 -16.5 2.85 -16.55 2.65 -16.6 2.1 -16.6 1.4 -16.6 4.2 -15.9 6.0 -15.2 6.2 -15.05 Q6.6 -14.45 6.25 -13.8 6.1 -13.5 5.75 -13.35 L5.7 -13.25 5.65 -13.25 5.65 -13.2 5.8 -13.3 8.5 -14.1 9.55 -14.25 12.2 -14.15 13.55 -13.65 13.55 -13.6 14.3 -13.7 14.35 -13.7 14.4 -13.75 14.45 -13.8 19.05 -13.95 19.5 -13.95 20.1 -13.8 20.85 -13.6 20.9 -13.6 20.95 -13.55 21.1 -13.45 21.3 -13.4 21.45 -13.25 21.5 -13.15 21.55 -13.0 21.55 -12.85 21.5 -12.55 21.15 -12.2 21.0 -12.15 Q19.65 -11.65 18.3 -11.55 L20.45 -11.1 Q21.55 -10.75 22.4 -10.05 L22.45 -10.0 22.55 -9.9 Q23.05 -9.55 23.0 -8.95 L22.35 -8.45 Q21.1 -7.95 19.75 -7.75 L18.3 -7.6 20.65 -6.5 21.3 -5.95 21.75 -5.65 21.8 -5.6 21.85 -5.55 21.9 -5.5 22.1 -5.4 22.2 -5.25 22.35 -5.15 22.5 -5.05 22.55 -5.0 22.6 -4.9 22.65 -4.85 22.85 -4.7 23.1 -4.4 23.2 -4.35 23.25 -4.35 23.25 -4.3 23.3 -4.25 23.3 -4.2 23.5 -4.0 23.65 -3.7 23.65 -3.65 23.75 -3.55 23.85 -3.45 23.95 -3.2 24.05 -2.95 24.05 -2.85 24.05 -2.8 24.2 -2.5 24.35 -1.45 24.3 -0.6 24.25 -0.45 24.2 -0.2 24.0 0.4 23.95 0.45 23.9 0.5 Q23.45 1.0 22.8 1.1 L22.05 1.2 21.75 1.2 22.15 1.5 22.8 2.1 22.85 2.15 Q24.05 3.65 23.85 5.5 L23.35 7.5 22.6 8.85 20.9 10.0 20.4 10.05 20.35 10.1 20.3 10.05 20.25 10.05 19.55 9.95 19.4 9.9 19.35 9.85 19.3 9.85 19.0 9.65 18.85 9.5 17.15 7.2 Q15.9 5.1 15.45 2.9 L15.3 2.05 Q15.1 0.8 15.75 0.05 L16.7 -0.25 17.1 -0.3 17.3 -0.25 18.25 0.1 18.15 -0.05 18.1 -0.05 18.0 -0.1 17.8 -0.2 17.65 -0.35 17.45 -0.5 17.35 -0.55 17.25 -0.6 17.15 -0.65 17.1 -0.7 17.1 -0.75 16.95 -0.85 16.9 -0.85 16.75 -1.0 16.5 -1.15 16.5 -1.2 16.45 -1.25 16.4 -1.25 16.35 -1.3 16.3 -1.3 16.25 -1.35 15.95 -1.6 15.6 -1.9 15.55 -1.95 15.5 -1.95 15.45 -2.0 14.8 -2.6 14.5 -2.95 14.45 -3.0 14.45 -3.05 14.35 -3.15 14.25 -3.25 14.2 -3.35 14.15 -3.4 14.1 -3.45 14.1 -3.5 14.05 -3.5 14.05 -3.55 13.9 -3.7 13.8 -3.8 13.55 -4.1 13.55 -4.15 13.5 -4.2 13.4 -4.35 13.3 -4.5 13.25 -4.55 12.95 -4.9 12.75 -5.25 12.6 -5.5 12.6 -5.55 12.35 -5.85 12.3 -5.9 12.3 -5.95 12.2 -6.0 12.2 -6.05 12.2 -6.15 12.15 -6.3 12.0 -6.5 11.85 -6.75 12.05 -6.1 12.25 -5.65 Q12.8 -3.75 12.8 -1.75 L12.6 0.95 12.45 1.15 11.45 3.2 10.7 4.4 Q9.7 5.85 8.3 6.95 L8.25 7.0 6.85 7.9 5.1 8.75 3.95 9.2 3.2 9.45 3.25 9.1 3.35 8.9 3.45 8.8 3.85 8.4 4.1 8.15 4.7 7.6 4.9 7.3 5.4 6.85 5.5 6.7 6.4 5.4 7.6 3.45 8.2 2.2 9.4 -1.2 Q9.85 -2.9 9.9 -4.7 L9.9 -5.0 9.9 -5.15 9.8 -5.8 9.6 -6.75 9.5 -7.2 9.25 -7.55 9.2 -7.75 9.1 -7.95 9.0 -8.3 8.9 -8.35 8.8 -8.5 8.75 -8.6 8.65 -8.75 8.45 -8.9 8.4 -8.95 8.35 -8.9 8.25 -8.9 8.15 -8.8 8.2 -8.75 8.25 -8.75 8.25 -8.65 8.25 -8.55 8.2 -8.5 8.2 -8.45 7.95 -7.15 7.8 -6.7 6.95 -4.9 6.85 -4.65 6.8 -4.6 6.75 -4.5 5.45 -2.1 4.0 0.15 3.45 0.9 0.5 4.05 -0.75 5.1 -1.4 5.55 -2.6 6.3 -2.95 6.5 -3.0 6.5 -4.1 7.1 M-21.6 -9.5 L-22.05 -9.15 -20.3 -8.9 Q-19.5 -8.6 -18.8 -8.0 -18.2 -7.55 -17.95 -6.9 L-17.65 -6.45 -17.65 -6.35 -17.55 -6.1 -17.5 -5.95 -17.4 -5.75 -17.25 -5.25 -16.05 -6.4 -13.5 -8.25 -10.7 -9.9 -9.9 -10.3 -9.55 -10.45 -9.3 -10.6 -8.1 -11.05 -8.25 -11.05 -8.85 -11.0 -9.8 -10.95 -11.4 -10.95 -13.0 -11.15 -13.9 -11.45 -14.05 -11.45 -14.3 -11.55 -14.65 -11.75 -15.1 -12.0 -15.2 -12.1 -15.3 -12.2 -15.35 -12.25 -15.55 -12.5 -19.8 -10.6 -20.3 -10.3 -21.6 -9.5 M-13.05 -6.2 L-13.05 -6.15 -13.15 -6.05 -13.25 -6.0 -13.55 -5.55 -13.25 -5.8 -12.55 -6.0 -12.2 -6.1 -12.15 -6.15 -12.1 -6.15 -11.8 -6.2 -11.4 -6.25 -11.1 -6.3 -10.75 -6.35 -10.65 -6.3 -10.55 -6.25 -10.45 -6.25 -10.2 -6.1 -10.1 -6.0 -10.0 -5.9 -9.65 -5.5 -9.3 -5.25 -8.5 -5.05 -6.8 -5.2 -6.55 -5.25 -6.45 -5.25 -6.35 -5.25 -3.15 -5.75 -2.4 -5.8 -2.45 -5.65 -2.4 -5.35 -2.35 -5.3 -2.35 -5.2 -2.2 -5.1 -1.95 -4.85 -0.75 -4.7 Q0.8 -4.85 2.15 -5.6 L2.75 -5.95 2.85 -5.95 2.95 -5.95 3.2 -5.4 3.25 -5.2 3.25 -4.8 3.3 -4.35 3.25 -4.3 3.25 -4.2 3.2 -3.85 3.15 -3.6 3.05 -3.55 2.95 -2.85 2.9 -2.65 2.85 -2.45 2.95 -2.45 3.05 -2.4 3.1 -2.4 3.15 -2.5 3.25 -2.7 3.4 -2.75 3.45 -2.85 3.6 -3.0 3.6 -3.1 3.65 -3.15 3.65 -3.2 3.75 -3.25 3.8 -3.25 3.8 -3.45 3.9 -3.65 3.95 -3.65 Q3.85 -3.65 3.9 -3.5 L4.05 -3.65 4.15 -3.95 4.2 -4.0 4.25 -4.0 4.35 -4.25 4.5 -4.5 5.45 -6.4 6.55 -9.05 5.55 -8.75 4.85 -8.55 4.75 -8.5 4.7 -8.45 Q1.8 -7.75 -1.25 -8.35 -1.75 -8.5 -2.15 -8.75 L-2.2 -8.85 -2.35 -8.95 -2.65 -9.15 -2.8 -9.3 -2.95 -9.4 -3.1 -9.75 -3.25 -10.5 -3.1 -11.25 -3.05 -11.45 -3.0 -11.45 -2.95 -11.5 -2.95 -11.55 -2.9 -11.6 -2.8 -11.65 -2.75 -11.75 -2.65 -11.85 -2.45 -12.0 -4.25 -11.45 -4.3 -11.4 -4.4 -11.4 -4.65 -11.3 -4.7 -11.3 -4.85 -11.3 -4.9 -11.25 -5.05 -11.3 -5.25 -11.2 -5.65 -11.05 -5.95 -11.0 -6.0 -10.95 -6.05 -10.85 -6.15 -10.85 -6.35 -10.8 -6.4 -10.75 -6.55 -10.7 -6.8 -10.65 -6.9 -10.6 -6.95 -10.55 -7.0 -10.5 -7.05 -10.45 -7.3 -10.35 -7.7 -10.15 -7.85 -10.1 -8.05 -10.0 -8.25 -9.9 -8.9 -9.45 -9.3 -9.2 -9.8 -9.0 -9.9 -8.9 -10.0 -8.85 -10.2 -8.7 -10.3 -8.6 -10.4 -8.55 -10.65 -8.35 -10.85 -8.15 -10.95 -8.1 -11.0 -8.05 -11.1 -7.95 -11.4 -7.7 -11.55 -7.5 -11.6 -7.5 -11.65 -7.45 -11.7 -7.4 -11.85 -7.3 -12.65 -6.55 -12.85 -6.45 -12.95 -6.35 -13.0 -6.3 -13.05 -6.2 M16.75 -12.6 L16.8 -12.6 16.0 -12.7 13.95 -12.7 13.1 -12.0 13.05 -11.95 12.9 -11.85 12.8 -11.8 12.75 -11.75 12.6 -11.65 12.55 -11.6 12.55 -11.55 12.25 -11.4 12.1 -11.3 12.05 -11.25 12.05 -11.2 11.9 -11.1 11.8 -11.05 11.6 -10.95 11.5 -10.8 9.7 -10.0 9.5 -9.95 9.45 -9.9 9.4 -9.85 9.35 -9.85 9.15 -9.8 8.55 -9.7 9.2 -9.1 Q10.05 -8.25 10.5 -7.05 L10.7 -6.35 10.7 -6.4 10.75 -6.75 10.9 -7.1 11.05 -7.3 11.05 -7.35 11.1 -7.4 11.1 -7.45 11.2 -7.5 11.35 -7.65 11.4 -7.7 Q12.05 -8.1 12.8 -8.3 L13.45 -8.5 Q14.0 -8.6 14.45 -8.85 L14.85 -9.05 14.9 -9.05 15.0 -9.1 15.1 -9.2 Q15.55 -9.7 15.6 -10.35 L15.8 -11.9 Q15.9 -12.1 16.05 -12.1 L16.25 -12.3 16.65 -12.55 16.75 -12.6 M8.0 -9.55 L8.1 -9.45 8.05 -9.55 8.0 -9.55" fill="#79307a" fill-rule="evenodd" stroke="none"/>
      <path d="M-21.6 -9.5 L-20.3 -10.3 -19.8 -10.6 -15.55 -12.5 -15.35 -12.25 -15.3 -12.2 -15.2 -12.1 -15.1 -12.0 -14.65 -11.75 -14.3 -11.55 -14.05 -11.45 -13.9 -11.45 -13.0 -11.15 -11.4 -10.95 -9.8 -10.95 -8.85 -11.0 -8.25 -11.05 -8.1 -11.05 -9.3 -10.6 -9.55 -10.45 -9.9 -10.3 -10.7 -9.9 -13.5 -8.25 -16.05 -6.4 -17.25 -5.25 -17.4 -5.75 -17.5 -5.95 -17.55 -6.1 -17.65 -6.35 -17.65 -6.45 -17.95 -6.9 Q-18.2 -7.55 -18.8 -8.0 -19.5 -8.6 -20.3 -8.9 L-22.05 -9.15 -21.6 -9.5 M-13.05 -6.2 L-13.0 -6.3 -12.95 -6.35 -12.85 -6.45 -12.65 -6.55 -11.85 -7.3 -11.7 -7.4 -11.65 -7.45 -11.6 -7.5 -11.55 -7.5 -11.4 -7.7 -11.1 -7.95 -11.0 -8.05 -10.95 -8.1 -10.85 -8.15 -10.65 -8.35 -10.4 -8.55 -10.3 -8.6 -10.2 -8.7 -10.0 -8.85 -9.9 -8.9 -9.8 -9.0 -9.3 -9.2 -8.9 -9.45 -8.25 -9.9 -8.05 -10.0 -7.85 -10.1 -7.7 -10.15 -7.3 -10.35 -7.05 -10.45 -7.0 -10.5 -6.95 -10.55 -6.9 -10.6 -6.8 -10.65 -6.55 -10.7 -6.4 -10.75 -6.35 -10.8 -6.15 -10.85 -6.05 -10.85 -6.0 -10.95 -5.95 -11.0 -5.65 -11.05 -5.25 -11.2 -5.05 -11.3 -4.9 -11.25 -4.85 -11.3 -4.7 -11.3 -4.65 -11.3 -4.4 -11.4 -4.3 -11.4 -4.25 -11.45 -2.45 -12.0 -2.65 -11.85 -2.75 -11.75 -2.8 -11.65 -2.9 -11.6 -2.95 -11.55 -2.95 -11.5 -3.0 -11.45 -3.05 -11.45 -3.1 -11.25 -3.25 -10.5 -3.1 -9.75 -2.95 -9.4 -2.8 -9.3 -2.65 -9.15 -2.35 -8.95 -2.2 -8.85 -2.15 -8.75 Q-1.75 -8.5 -1.25 -8.35 1.8 -7.75 4.7 -8.45 L4.75 -8.5 4.85 -8.55 5.55 -8.75 6.55 -9.05 5.45 -6.4 4.5 -4.5 4.35 -4.25 4.25 -4.0 4.2 -4.0 4.15 -3.95 4.05 -3.65 3.9 -3.5 Q3.85 -3.65 3.95 -3.65 L3.9 -3.65 3.8 -3.45 3.8 -3.25 3.75 -3.25 3.65 -3.2 3.65 -3.15 3.6 -3.1 3.6 -3.0 3.45 -2.85 3.4 -2.75 3.25 -2.7 3.15 -2.5 3.1 -2.4 3.05 -2.4 2.95 -2.45 2.85 -2.45 2.9 -2.65 2.95 -2.85 3.05 -3.55 3.15 -3.6 3.2 -3.85 3.25 -4.2 3.25 -4.3 3.3 -4.35 3.25 -4.8 3.25 -5.2 3.2 -5.4 2.95 -5.95 2.85 -5.95 2.75 -5.95 2.15 -5.6 Q0.8 -4.85 -0.75 -4.7 L-1.95 -4.85 -2.2 -5.1 -2.35 -5.2 -2.35 -5.3 -2.4 -5.35 -2.45 -5.65 -2.4 -5.8 -3.15 -5.75 -6.35 -5.25 -6.45 -5.25 -6.55 -5.25 -6.8 -5.2 -8.5 -5.05 -9.3 -5.25 -9.65 -5.5 -10.0 -5.9 -10.1 -6.0 -10.2 -6.1 -10.45 -6.25 -10.55 -6.25 -10.65 -6.3 -10.75 -6.35 -11.1 -6.3 -11.4 -6.25 -11.8 -6.2 -12.1 -6.15 -12.15 -6.15 -12.2 -6.1 -12.55 -6.0 -13.25 -5.8 -13.55 -5.55 -13.25 -6.0 -13.15 -6.05 -13.05 -6.15 -13.05 -6.2 M-16.0 -6.95 L-15.95 -7.0 -16.0 -7.0 -16.0 -6.95 M16.75 -12.6 L16.65 -12.55 16.25 -12.3 16.05 -12.1 Q15.9 -12.1 15.8 -11.9 L15.6 -10.35 Q15.55 -9.7 15.1 -9.2 L15.0 -9.1 14.9 -9.05 14.85 -9.05 14.45 -8.85 Q14.0 -8.6 13.45 -8.5 L12.8 -8.3 Q12.05 -8.1 11.4 -7.7 L11.35 -7.65 11.2 -7.5 11.1 -7.45 11.1 -7.4 11.05 -7.35 11.05 -7.3 10.9 -7.1 10.75 -6.75 10.7 -6.4 10.7 -6.35 10.5 -7.05 Q10.05 -8.25 9.2 -9.1 L8.55 -9.7 9.15 -9.8 9.35 -9.85 9.4 -9.85 9.45 -9.9 9.5 -9.95 9.7 -10.0 11.5 -10.8 11.6 -10.95 11.8 -11.05 11.9 -11.1 12.05 -11.2 12.05 -11.25 12.1 -11.3 12.25 -11.4 12.55 -11.55 12.55 -11.6 12.6 -11.65 12.75 -11.75 12.8 -11.8 12.9 -11.85 13.05 -11.95 13.1 -12.0 13.95 -12.7 16.0 -12.7 16.8 -12.6 16.75 -12.6" fill="#9e3f9e" fill-rule="evenodd" stroke="none"/>
      <path d="M8.0 -9.55 L8.05 -9.55 8.1 -9.45 8.0 -9.55" fill="#948563" fill-rule="evenodd" stroke="none"/>
      <path d="M-16.0 -6.95 L-16.0 -7.0 -15.95 -7.0 -16.0 -6.95 M14.15 -2.6 L14.15 -2.65 14.2 -2.6 14.15 -2.6" fill="#76643d" fill-rule="evenodd" stroke="none"/>
      <path d="M-22.8 -19.1 L-22.7 -19.05 -22.75 -19.05 -22.85 -19.05 -22.9 -18.95 -22.95 -18.95 -22.8 -19.1 M-6.25 -2.5 L-6.3 -2.45 -6.3 -2.5 -6.25 -2.5 M-10.35 -0.7 L-10.25 -0.75 -10.3 -0.65 -10.35 -0.65 -10.35 -0.7 M-6.5 -2.35 L-6.45 -2.4 -6.4 -2.4 -6.5 -2.35 M25.65 -4.55 L25.55 -4.6 25.65 -4.6 25.65 -4.55 M23.8 -12.8 L23.75 -12.8 23.85 -12.8 23.8 -12.8 M3.6 5.75 L3.65 5.7 3.8 5.6 3.75 5.65 3.6 5.75 M4.45 5.05 L4.5 5.0 4.6 4.95 4.7 4.9 4.65 5.0 4.3 5.75 4.15 5.65 4.3 5.3 4.4 5.2 4.4 5.15 4.45 5.05 M4.75 4.8 L4.7 4.9 4.7 4.85 4.75 4.8 M18.95 24.35 L18.95 24.45 18.9 24.4 18.95 24.35 M19.1 24.55 L19.1 24.5 19.1 24.55 M-8.4 11.35 L-8.25 11.25 -8.4 11.35 M-16.1 9.1 L-16.2 9.2 -16.25 9.15 -16.1 9.1 M-17.15 10.75 L-17.2 10.7 -17.2 10.65 -17.0 10.6 -17.15 10.75 M-15.0 8.95 L-14.95 8.9 -14.95 9.0 -15.0 9.05 -15.0 8.95 M-18.2 22.5 L-18.15 22.35 -18.1 22.35 -18.2 22.5 M-7.1 12.55 L-6.65 12.45 -6.7 12.5 -6.8 12.5 -7.1 12.55 M-8.75 12.9 L-8.15 12.8 -8.35 12.9 -8.4 12.9 -8.55 12.9 -8.75 12.9 M-8.05 13.75 L-8.0 13.85 -8.15 13.85 -8.15 13.8 -8.05 13.75" fill="#462020" fill-rule="evenodd" stroke="none"/>
      <path d="M-9.75 12.3 L-9.7 12.25 -9.7 12.3 -9.75 12.3 M-6.9 -2.6 L-7.25 -2.55 -7.2 -2.6 -7.15 -2.6 -7.1 -2.6 -6.9 -2.6 M-7.55 -2.55 L-7.85 -2.55 -7.5 -2.6 -7.55 -2.55 M-8.1 -2.45 L-8.0 -2.45 -7.85 -2.4 -7.9 -2.35 -8.0 -2.35 -8.1 -2.35 -8.15 -2.35 -8.15 -2.3 -8.45 -2.15 -8.6 -2.15 -8.85 -2.0 -8.9 -2.0 -9.0 -1.9 -9.1 -1.85 -9.2 -1.85 -9.3 -1.9 -9.4 -1.85 -9.45 -1.85 -9.2 -2.0 -8.1 -2.45 M-9.5 -1.8 L-9.55 -1.75 -9.65 -1.7 -9.75 -1.65 -9.8 -1.65 -9.85 -1.6 -9.9 -1.55 -10.05 -1.45 -10.15 -1.35 -10.25 -1.35 -10.3 -1.3 -10.35 -1.3 -9.6 -1.9 -9.75 -1.65 -9.5 -1.8 M-14.45 4.35 L-14.55 4.45 -14.55 4.55 -14.6 4.6 -14.6 4.85 -14.7 4.85 -14.65 4.7 -14.55 4.45 -14.5 4.35 -14.45 4.35 M-14.75 5.0 L-14.75 5.1 -14.8 5.2 -14.85 5.25 -14.75 5.0 M-16.0 8.65 L-16.0 8.7 -16.15 8.65 -16.35 8.45 -16.0 8.65 M-16.55 8.2 L-16.6 8.15 -16.6 8.1 -16.65 8.05 -16.65 7.95 -16.7 7.9 -16.7 7.85 -16.65 7.95 -16.6 8.1 -16.45 8.3 -16.55 8.2 M-16.95 7.05 L-17.0 7.05 -17.0 7.0 -16.95 7.05 M-17.7 8.1 L-17.65 8.15 -17.65 8.2 -17.65 8.3 -17.7 8.1 M-23.3 -16.35 L-23.15 -16.35 -23.4 -16.3 -23.4 -16.25 -23.75 -16.3 -23.3 -16.35 M-23.6 -15.1 L-21.6 -15.25 -20.65 -15.45 -20.3 -15.45 -21.6 -15.25 -23.4 -15.1 -23.6 -15.1 M-6.25 -2.6 L-6.05 -2.6 -6.25 -2.5 -6.25 -2.6 M-6.3 -2.45 L-6.6 -2.2 -6.55 -2.3 -6.5 -2.35 -6.4 -2.4 -6.3 -2.45 M-16.9 -18.95 L-15.7 -18.4 -15.6 -18.3 -16.9 -18.95 M-15.85 -17.15 L-15.7 -17.4 -15.85 -17.1 -15.85 -17.15 M5.7 2.1 L5.75 2.0 5.55 2.45 5.7 2.1 M6.1 3.7 L6.45 2.9 6.2 3.7 6.1 3.7 M5.9 4.6 L5.8 4.9 6.05 4.05 5.9 4.6 M5.4 5.7 L5.45 5.7 5.4 5.8 5.4 5.7 M5.35 5.9 L5.3 5.95 5.25 6.1 5.25 6.05 5.3 5.95 5.35 5.85 5.35 5.9 M4.75 6.9 L3.35 8.75 4.45 7.3 4.75 6.9 M5.05 6.4 L5.15 6.2 5.2 6.15 5.05 6.4 M-7.05 10.85 L-7.15 10.95 -7.2 10.95 -7.05 10.85 M-6.45 12.35 L-6.35 12.35 -6.4 12.35 -6.45 12.35 M-16.1 9.1 L-16.1 9.15 -16.05 9.25 -16.1 9.35 -16.2 9.25 -16.2 9.2 -16.1 9.1 M-18.4 11.95 L-18.35 11.85 -18.45 12.3 -18.4 11.95 M-16.65 21.4 L-17.0 22.4 -17.45 23.1 -17.55 23.25 -17.8 23.45 -18.15 23.8 -18.15 23.85 -18.25 23.95 -18.3 24.0 -18.35 24.0 -18.15 23.8 -17.55 22.95 -16.95 22.0 -16.6 21.25 -16.65 21.4 M-19.3 20.05 L-17.75 21.25 -19.2 20.15 -19.3 20.05 M-18.15 22.35 L-18.2 22.5 -18.25 22.55 -18.25 22.45 -18.15 22.35 M-18.45 24.1 L-18.4 24.0 -18.35 24.05 -18.45 24.1 M-8.55 12.9 L-9.1 13.1 -9.55 13.05 -9.35 12.95 -9.3 12.95 -8.75 12.9 -8.55 12.9" fill="#180b0a" fill-rule="evenodd" stroke="none"/>
      <path d="M19.8 13.85 L19.75 13.7 19.75 13.65 19.85 13.75 19.9 13.8 19.85 13.8 19.8 13.85" fill="#58521f" fill-rule="evenodd" stroke="none"/>
      <path d="M16.05 -19.6 L17.6 -19.2 18.7 -18.85 19.75 -18.25 20.6 -17.65 21.95 -16.45 23.35 -15.55 24.5 -14.8 25.75 -13.55 26.3 -12.55 Q26.4 -12.1 26.2 -12.15 L25.6 -12.5 24.9 -12.4 25.95 -11.05 26.4 -10.6 26.65 -10.1 26.65 -10.0 26.7 -9.95 26.7 -9.9 Q26.75 -9.8 26.9 -9.75 L26.95 -9.7 27.1 -9.35 27.95 -7.4 27.95 -7.2 27.95 -7.15 28.0 -7.0 28.05 -6.95 28.05 -6.85 28.1 -6.8 28.1 -6.6 28.25 -5.7 28.05 -5.85 27.65 -6.1 26.4 -6.2 26.35 -6.2 26.3 -6.15 26.25 -6.15 26.25 -6.1 26.15 -6.15 25.6 -5.95 25.65 -5.75 25.7 -5.65 25.75 -5.6 25.8 -5.55 25.8 -5.5 25.85 -5.45 26.0 -5.4 26.05 -5.35 26.05 -5.3 26.1 -5.25 26.2 -5.15 26.2 -5.1 26.25 -5.05 27.55 -4.1 28.45 -3.2 29.35 -1.85 29.7 -0.15 Q29.7 0.85 28.75 1.45 L27.8 2.15 27.65 2.15 28.0 1.8 28.1 1.05 28.1 0.9 28.05 0.85 28.0 0.8 27.95 0.75 27.85 0.8 27.6 1.0 27.3 1.05 27.25 1.1 27.15 1.2 27.05 1.35 27.05 1.4 27.0 1.45 26.9 1.5 26.85 1.6 26.85 1.65 26.8 1.7 26.8 1.75 26.75 1.85 26.7 1.95 26.7 2.05 26.7 2.2 26.65 2.25 26.65 2.3 26.6 2.35 26.55 2.5 26.55 2.55 26.5 2.65 26.5 2.75 26.5 2.85 26.5 2.95 26.45 3.0 26.45 3.15 26.5 3.25 26.5 3.45 26.5 3.55 26.5 3.6 26.55 3.65 26.6 3.7 26.6 3.9 26.65 3.95 26.7 4.0 26.7 4.05 26.85 4.2 26.85 4.25 26.9 4.3 26.9 4.35 26.95 4.35 27.05 4.45 27.1 4.55 27.45 4.75 27.6 4.75 27.75 4.85 28.45 5.1 29.75 5.05 29.75 5.15 29.8 5.15 29.8 5.2 29.85 5.3 29.85 5.35 29.8 5.4 29.8 5.45 29.75 5.5 29.65 5.55 29.6 5.7 29.5 5.8 29.4 5.8 28.75 6.6 28.35 7.15 Q27.2 8.95 26.5 10.9 L25.85 12.95 Q26.05 14.3 25.65 15.8 24.9 18.2 22.9 19.65 L22.8 19.75 22.35 20.1 21.4 20.75 21.2 20.85 21.15 20.85 21.05 20.95 20.9 21.05 20.25 22.6 19.85 24.25 20.0 24.5 20.1 24.5 21.0 25.05 Q19.95 25.0 19.1 24.55 L19.1 24.5 19.05 24.55 18.95 24.55 18.95 24.45 18.95 24.35 18.9 24.4 Q17.95 23.8 17.3 22.8 L17.0 22.2 16.65 21.3 16.6 21.15 16.5 20.65 Q16.35 18.75 17.65 17.45 L17.65 17.4 17.85 17.25 18.1 17.0 18.25 16.85 18.3 16.8 18.35 16.8 17.75 13.8 17.55 11.9 Q15.6 10.35 14.15 8.35 13.2 6.9 12.6 5.4 11.9 6.85 10.7 7.85 8.55 9.8 5.95 11.25 L5.3 11.65 Q3.5 12.6 1.55 12.95 L0.5 13.05 -0.65 13.25 -1.9 13.4 -2.6 13.35 -3.3 13.45 -4.05 13.5 -4.85 13.5 -5.65 13.45 -6.45 13.5 -7.0 13.65 -8.0 13.85 -8.05 13.75 Q-7.3 13.25 -6.2 13.1 -6.15 13.0 -6.1 13.05 L-3.25 12.6 -2.7 12.45 Q-0.3 11.0 1.65 8.9 L4.15 5.65 4.3 5.75 4.65 5.0 4.7 4.9 4.6 4.95 4.5 5.0 4.45 5.05 4.4 5.15 4.4 5.2 4.25 5.25 4.15 5.3 3.95 5.45 2.95 6.55 -0.15 9.1 -1.3 9.8 -3.95 11.25 -4.6 11.55 -5.7 12.0 -5.75 12.05 -6.35 12.35 -6.45 12.35 -6.6 12.4 -6.65 12.45 -7.1 12.55 -7.2 12.6 -7.3 12.6 -7.65 12.7 -7.85 12.75 -8.15 12.8 -8.75 12.9 -9.3 12.95 -9.35 12.95 -9.55 13.05 -10.25 13.3 -10.4 13.25 -10.45 13.25 -11.75 13.45 -12.1 13.4 -12.15 13.4 -11.5 12.95 -9.65 11.65 -9.65 11.6 -9.6 11.6 -9.5 11.5 -9.15 11.15 -9.05 11.1 -8.2 10.3 -7.35 9.6 -6.65 8.8 -5.85 8.05 -5.7 7.85 -5.65 7.85 -5.05 7.1 -3.4 4.85 Q-5.8 7.3 -8.65 9.1 L-11.75 11.15 -12.85 12.2 -13.25 12.75 -13.25 12.8 -13.4 13.0 -13.45 13.15 -13.5 13.25 -13.55 13.3 -13.6 13.45 -13.65 13.45 -13.65 13.5 -13.7 13.5 -13.75 13.6 -13.75 13.55 -13.7 13.45 -13.65 13.4 -13.65 13.3 -13.65 13.2 -13.6 12.75 -13.65 12.15 -13.7 12.15 -13.65 11.95 -13.65 11.9 -13.7 11.05 -13.7 10.2 -13.7 10.1 -13.7 9.4 -13.7 8.6 -13.6 7.85 -13.5 7.05 -13.35 6.35 -13.1 5.55 -12.6 4.05 -13.25 4.8 -13.75 5.6 -14.45 7.4 -14.95 9.0 -15.05 9.65 -15.2 10.05 -15.4 12.35 -15.4 12.5 -15.4 12.6 -15.4 12.8 -15.4 12.85 -15.4 13.25 -15.45 13.5 -15.45 13.65 -15.45 14.25 -15.6 14.85 -15.7 14.95 -15.75 14.1 -15.75 14.05 -15.75 13.8 -15.8 13.65 -15.8 13.55 -16.15 12.35 -16.4 11.75 -16.7 11.15 -17.15 10.75 -17.6 11.15 -18.0 12.8 Q-18.45 14.25 -18.1 15.4 -16.75 16.85 -16.45 18.9 -16.25 20.0 -16.55 21.1 L-16.6 21.25 -16.95 22.0 -17.55 22.95 -18.15 23.8 -18.35 24.0 -18.35 24.05 -18.4 24.0 -18.45 24.1 -18.5 24.15 Q-19.3 24.9 -20.35 25.0 L-20.25 24.95 -20.25 24.9 Q-19.6 24.4 -19.45 23.55 L-19.35 22.5 -19.6 21.7 -19.75 21.5 -19.85 21.3 -20.15 20.75 Q-20.65 20.05 -21.4 19.6 L-22.2 19.0 -21.85 19.2 -21.45 19.45 -21.85 19.1 -22.15 18.85 -22.2 18.8 -22.4 18.8 -22.65 18.85 -22.95 18.8 Q-23.9 18.7 -24.3 18.4 L-24.65 17.35 -24.4 16.35 -24.95 13.65 -23.85 10.3 -28.0 12.8 Q-28.6 7.95 -26.25 3.95 L-27.05 4.3 -30.15 4.75 -27.35 0.3 -33.35 -0.75 -31.75 -2.4 Q-28.8 -6.0 -26.55 -10.3 L-26.55 -10.35 -26.5 -10.4 -26.35 -10.55 -26.3 -10.6 -26.3 -10.65 -26.2 -10.7 -26.15 -10.7 -26.05 -10.85 -26.0 -10.95 -25.9 -11.05 -25.8 -11.1 -25.8 -11.15 -25.75 -11.2 -25.75 -11.25 -25.7 -11.3 -25.55 -11.35 -25.5 -11.55 -25.5 -11.6 -25.45 -11.7 -25.4 -11.75 -25.3 -11.8 -25.25 -11.9 -25.25 -11.95 -25.2 -12.0 -25.05 -12.1 -25.05 -12.15 -25.0 -12.25 -25.0 -12.3 Q-24.75 -12.65 -24.75 -13.1 L-25.0 -14.7 -25.35 -15.6 -25.45 -15.65 -25.5 -15.7 -25.5 -15.75 -25.55 -15.8 -25.55 -15.85 -25.65 -15.9 -25.8 -16.0 -25.8 -16.15 -24.45 -16.25 -24.4 -16.25 -23.75 -16.3 -23.4 -16.25 -23.4 -16.3 -23.15 -16.35 -22.15 -16.35 Q-20.5 -16.55 -18.95 -17.15 L-18.9 -17.2 -18.8 -17.35 Q-18.3 -17.55 -18.5 -18.2 L-18.8 -18.4 -19.0 -18.4 -19.4 -18.6 -20.25 -18.7 -20.3 -18.65 -20.65 -18.75 -21.45 -18.75 -21.55 -18.75 -21.7 -18.75 -22.55 -18.75 -23.1 -18.7 -23.65 -18.6 -23.15 -18.9 -22.95 -18.95 -22.9 -18.95 -22.85 -19.05 -22.75 -19.05 -22.7 -19.05 -22.8 -19.1 -22.8 -19.15 -22.6 -19.3 -22.45 -19.35 -21.8 -19.65 -21.25 -19.95 -20.65 -20.15 -20.1 -20.4 -19.05 -20.65 -18.25 -20.75 -17.5 -20.85 -16.7 -20.9 -14.25 -20.9 -13.6 -21.4 -12.3 -21.9 -10.45 -22.5 -9.45 -22.6 -8.5 -22.75 -7.7 -22.75 -7.05 -22.95 -6.85 -23.05 -6.8 -23.1 -6.75 -23.15 -6.65 -23.2 -6.65 -23.35 -6.6 -23.4 -6.55 -23.4 -6.6 -23.5 -6.6 -23.6 -6.65 -23.7 -6.65 -23.75 -6.7 -23.8 -6.7 -23.85 -6.75 -23.9 -6.8 -23.95 -7.0 -24.05 -7.1 -24.25 -7.2 -24.3 -7.4 -24.35 -7.65 -24.45 -8.35 -24.6 -9.1 -24.55 -9.25 -24.55 -9.55 -24.55 -9.65 -24.55 -8.45 -24.8 -7.1 -25.0 -6.0 -25.05 -5.25 -25.05 -1.55 -24.8 -0.4 -24.8 1.85 -24.55 3.05 -24.3 4.2 -24.05 5.35 -23.75 6.45 -23.35 7.35 -23.0 8.2 -22.7 9.1 -22.35 9.65 -22.2 9.65 -22.25 9.65 -22.35 9.6 -22.45 9.55 -22.5 9.55 -22.55 9.45 -22.65 9.4 -22.75 9.4 -22.8 9.2 -23.0 8.85 -23.35 8.7 -23.45 8.55 -23.5 8.35 -23.65 8.25 -23.7 8.15 -23.7 8.05 -23.8 8.0 -23.85 Q7.45 -24.1 6.95 -24.3 L6.6 -24.4 6.35 -24.55 9.6 -23.8 9.85 -23.75 10.05 -23.65 10.3 -23.45 10.35 -23.45 10.45 -23.35 11.35 -22.75 12.15 -22.15 12.9 -21.55 14.2 -19.85 15.35 -19.7 16.05 -19.6 M11.25 -20.55 L11.3 -20.5 11.3 -20.3 11.45 -19.6 11.2 -18.15 11.15 -18.2 11.1 -18.25 11.05 -18.35 11.0 -18.45 10.9 -18.55 10.85 -18.7 10.75 -18.9 10.65 -19.0 Q8.6 -20.95 5.95 -22.0 2.75 -23.3 -0.65 -24.0 L-6.65 -24.6 -6.65 -24.55 -5.8 -24.4 Q-4.85 -24.2 -4.1 -23.65 L-4.05 -23.55 -3.95 -23.45 -3.85 -23.35 -3.8 -23.3 -3.8 -23.2 -3.75 -23.15 -3.7 -23.1 -3.7 -22.7 -3.65 -22.65 -3.7 -22.5 -3.9 -22.4 -3.95 -22.35 -4.05 -22.25 -3.85 -22.25 -4.15 -22.2 -4.4 -22.2 -7.9 -21.95 -9.8 -21.65 Q-11.4 -21.35 -12.55 -20.35 L-12.5 -20.3 -12.45 -20.2 -12.4 -20.2 -12.5 -20.15 -12.85 -20.1 -13.25 -20.05 -14.15 -20.1 -17.6 -19.85 -19.25 -19.6 -17.15 -19.1 -16.9 -18.95 -15.9 -18.0 -15.85 -17.95 -15.85 -17.85 -15.85 -17.65 -15.85 -17.45 -15.85 -17.35 -15.85 -17.25 -15.9 -17.2 -16.05 -17.1 -16.15 -17.0 -16.15 -16.95 -16.2 -16.9 -16.35 -16.8 -16.4 -16.7 -16.5 -16.6 Q-20.45 -15.1 -24.45 -15.6 L-24.45 -15.55 -24.55 -15.6 -24.5 -15.55 -24.45 -15.45 -24.35 -15.35 -24.2 -15.2 -24.0 -15.0 -23.95 -14.9 -23.9 -14.8 -23.85 -14.7 -23.85 -14.65 -23.75 -14.5 -23.7 -14.45 -23.7 -14.35 -23.7 -14.25 -23.7 -14.15 -23.65 -14.05 -23.6 -13.95 -23.6 -13.75 -23.6 -13.6 -23.55 -13.3 -23.55 -12.85 -23.55 -12.75 -23.6 -12.65 -23.65 -12.55 -23.65 -12.45 -23.7 -12.3 -23.85 -12.05 -23.9 -11.95 -23.9 -11.9 -24.0 -11.85 -24.05 -11.8 -24.05 -11.75 -24.1 -11.7 -24.1 -11.65 -24.15 -11.6 -24.2 -11.55 -24.25 -11.5 -24.3 -11.45 -24.3 -11.4 -24.35 -11.35 -24.4 -11.35 -24.5 -11.3 -24.8 -10.9 -25.15 -10.45 -25.25 -10.35 -25.3 -10.3 -25.4 -10.2 -25.4 -10.15 -25.55 -10.05 -25.6 -10.0 -25.6 -9.95 -25.85 -9.3 -27.0 -8.45 Q-27.25 -6.8 -28.0 -5.35 -29.15 -3.0 -31.4 -1.5 -28.3 -0.65 -25.4 -1.95 L-25.75 -0.8 -27.2 3.35 -23.85 3.25 Q-27.15 6.4 -27.35 11.05 -25.05 11.05 -23.65 9.4 -22.85 8.5 -21.8 8.5 -24.0 11.45 -23.6 15.0 L-22.55 15.25 -23.5 17.05 -23.05 17.45 -22.8 17.65 -22.05 17.65 -22.0 17.7 -21.9 17.85 -21.9 17.95 -21.75 18.05 -21.6 18.2 -21.45 18.3 -21.05 18.6 -20.95 18.7 -20.7 18.85 -20.7 18.9 -20.65 18.95 -20.5 19.0 -19.95 19.5 -19.45 19.95 -18.1 21.35 -17.95 21.45 -17.75 21.55 -17.6 21.1 -17.6 20.4 -17.6 20.3 -17.6 19.75 -17.6 19.4 -17.6 19.35 -17.65 19.3 -17.65 19.2 -17.7 19.1 -17.7 19.0 -17.75 18.95 -17.8 18.9 -17.8 18.85 -18.1 17.15 -18.95 15.4 -19.0 15.35 -19.25 15.0 -19.35 14.9 -19.45 14.85 -19.35 14.25 Q-19.15 12.55 -19.3 10.9 L-19.3 10.85 -19.35 10.8 -19.35 10.7 -19.35 10.6 -19.3 10.55 -19.3 10.5 -19.2 10.4 -19.0 10.15 -18.95 10.15 -18.9 10.05 -18.9 9.95 -18.8 9.75 -18.75 9.7 -18.65 9.65 -18.55 9.6 -18.5 9.5 -18.45 9.45 -18.45 9.35 -18.4 9.3 -18.1 8.9 -17.7 8.45 -17.65 8.4 -17.6 8.4 -17.6 8.3 -17.65 8.2 -17.65 8.15 -17.7 8.1 -17.8 7.75 -17.8 7.65 -17.8 7.5 -17.85 7.5 -17.9 7.45 -17.9 7.35 -17.95 7.25 -18.0 7.0 -18.0 6.9 -18.05 6.85 -18.05 6.8 -18.1 5.5 -18.05 4.7 -18.0 4.65 -17.95 4.6 -17.95 4.4 -17.95 4.25 -17.9 4.15 -17.85 4.1 -17.8 3.55 -17.7 3.15 -17.6 2.85 -17.55 2.65 -17.5 2.6 -17.5 2.55 -17.5 2.45 -17.45 2.4 -17.4 2.3 -17.35 2.2 Q-17.25 1.9 -17.3 1.6 L-17.15 1.3 -17.15 1.85 -17.15 2.2 -17.2 2.25 -17.25 2.3 -17.25 2.7 -17.3 2.95 -17.25 3.05 -17.3 3.1 -17.3 3.2 -17.2 3.8 -17.15 4.15 -17.15 4.25 -17.2 4.3 -17.2 4.5 -17.15 4.6 -17.15 5.95 -17.05 6.75 -17.0 6.8 -17.0 6.95 -17.0 7.05 -16.95 7.05 -16.9 7.2 -16.9 7.3 -16.85 7.4 -16.8 7.5 -16.8 7.65 -16.75 7.7 -16.7 7.85 -16.7 7.9 -16.65 7.95 -16.65 8.05 -16.6 8.1 -16.6 8.15 -16.55 8.2 -16.35 8.45 -16.25 8.6 -16.15 8.65 -16.0 8.7 -16.0 8.5 -16.0 8.4 -16.0 8.3 -15.95 8.3 -15.95 8.2 -15.95 8.1 -15.95 8.0 -15.9 7.95 -15.75 7.8 -15.75 7.75 -15.7 7.7 -15.7 7.55 -15.65 7.5 -15.65 7.2 -15.6 7.15 -15.5 7.0 -15.5 6.85 -15.45 6.75 -15.45 6.65 -15.35 6.55 -15.35 6.4 -15.3 6.35 -15.3 6.15 -15.2 6.0 -15.2 5.95 -15.05 5.75 -14.95 5.45 -14.95 5.4 -14.85 5.35 -14.85 5.25 -14.8 5.2 -14.75 5.1 -14.75 4.95 -14.7 4.95 -14.7 4.85 -14.6 4.85 -14.6 4.6 -14.55 4.55 -14.55 4.45 -14.45 4.35 -14.4 4.15 -14.4 4.05 -13.6 2.5 -13.55 2.45 -13.5 2.45 -13.45 2.4 -13.4 2.35 -13.4 2.25 -13.35 2.15 -13.35 2.05 -13.3 1.95 -13.25 1.9 -13.2 1.85 -13.15 1.75 -13.1 1.6 -13.1 1.5 -13.05 1.45 -12.95 1.35 -12.9 1.3 -12.85 1.25 -12.85 1.15 -12.8 1.1 -12.7 1.05 -12.45 0.65 -12.05 0.2 -12.05 0.15 -11.95 0.1 -11.85 0.0 -11.85 -0.05 -11.8 -0.1 -11.7 -0.15 -11.65 -0.2 -11.6 -0.25 -11.6 -0.35 -11.55 -0.4 -11.4 -0.5 -11.3 -0.55 -11.25 -0.6 -11.15 -0.65 -11.1 -0.7 -11.05 -0.75 -11.05 -0.8 -11.0 -0.85 -10.6 -1.15 -10.4 -1.25 -10.35 -1.3 -10.3 -1.3 -10.25 -1.35 -10.15 -1.35 -10.05 -1.45 -9.9 -1.55 -9.85 -1.6 -9.8 -1.65 -9.75 -1.65 -9.65 -1.7 -9.55 -1.75 -9.5 -1.8 -9.5 -1.85 -9.4 -1.85 -9.3 -1.9 -9.2 -1.85 -9.1 -1.85 -9.0 -1.9 -8.9 -2.0 -8.85 -2.0 -8.6 -2.15 -8.45 -2.15 -8.15 -2.3 -8.15 -2.35 -8.1 -2.35 -8.0 -2.35 -7.9 -2.35 -7.85 -2.4 -8.0 -2.45 -8.1 -2.45 -8.15 -2.5 -7.85 -2.55 -7.55 -2.55 -7.3 -2.55 -7.25 -2.55 -6.9 -2.6 -6.65 -2.6 -6.5 -2.6 -6.35 -2.55 -6.25 -2.5 -6.3 -2.5 -6.3 -2.45 -6.4 -2.4 -6.45 -2.4 -6.5 -2.35 -6.55 -2.3 -6.65 -2.25 -6.75 -2.2 -6.85 -2.15 -6.85 -2.1 -6.95 -2.0 -7.1 -1.9 -7.25 -1.8 -7.3 -1.75 -7.55 -1.5 -7.65 -1.35 -7.75 -1.25 -7.8 -1.2 -7.9 -1.15 -8.1 -0.9 -8.25 -0.65 -8.25 -0.55 -8.3 -0.5 -8.35 -0.45 -8.45 -0.45 -8.45 -0.4 -8.5 -0.35 -8.5 -0.3 -8.55 -0.3 -8.55 -0.4 -9.85 1.3 -10.25 2.05 -10.35 2.1 -10.45 2.3 -10.6 2.65 -10.6 2.7 -10.65 2.8 -10.85 3.2 -10.95 3.45 -11.1 3.7 -11.7 5.3 -12.85 9.7 -12.9 9.9 -12.85 10.0 -12.85 10.05 -12.8 10.1 -12.55 10.2 -12.25 10.15 -12.05 10.0 -11.75 9.85 -11.25 9.5 -11.15 9.45 -9.65 8.35 Q-6.9 6.2 -4.45 3.7 L-3.3 2.5 -2.55 1.8 -2.55 1.85 -0.75 -0.25 -0.75 -0.3 0.3 -1.65 0.4 -1.75 0.5 -1.75 0.6 -1.8 0.65 -1.8 0.65 -1.75 0.6 -1.55 0.55 -1.5 0.4 -0.9 0.4 -0.6 0.25 -0.2 0.25 -0.15 0.0 0.3 -0.05 0.35 -0.75 2.0 Q-2.05 4.3 -3.6 6.35 L-3.75 6.55 -3.8 6.75 -3.85 6.75 -4.1 7.1 -4.8 7.95 -5.2 8.4 -5.4 8.6 -6.25 9.55 -8.15 11.15 -7.95 11.05 -8.45 11.4 -8.65 11.55 -9.6 12.2 -9.7 12.25 -9.75 12.3 -10.1 12.5 -10.2 12.55 Q-4.6 10.4 -0.3 5.9 L2.9 2.2 Q4.95 -0.35 6.6 -3.15 L6.6 -3.2 7.2 -4.05 7.5 -4.5 7.55 -3.9 7.6 -3.05 7.7 -1.65 Q6.7 3.2 4.1 7.35 L2.2 9.7 -0.45 11.9 -2.35 12.85 Q2.9 12.0 7.35 8.6 10.0 6.55 11.85 3.8 L13.2 1.65 13.35 1.4 13.35 1.2 13.8 1.0 13.85 1.15 13.85 1.45 13.85 1.5 13.85 1.6 13.8 1.7 13.75 2.25 Q13.9 6.15 16.2 9.35 17.3 10.95 18.85 12.05 L19.15 12.2 19.55 12.45 Q20.4 12.85 21.1 13.5 L21.2 13.55 21.3 13.6 21.65 13.95 21.75 14.05 21.8 14.1 21.9 14.2 21.9 14.3 21.9 14.4 21.9 14.45 21.75 14.55 21.7 14.45 21.65 14.35 21.55 14.25 21.45 14.15 21.4 14.1 21.0 13.8 19.95 13.05 19.6 12.8 19.35 12.6 Q19.6 14.55 19.45 16.65 L19.35 19.35 19.3 19.45 19.2 19.65 19.2 19.95 19.15 20.2 19.05 19.95 19.1 19.65 19.05 19.55 18.95 19.45 18.95 17.8 18.8 17.8 Q17.95 18.7 17.8 19.95 17.6 21.3 18.25 22.45 L18.25 22.5 18.4 22.65 18.45 22.7 18.45 22.75 18.5 22.8 18.55 22.95 18.6 23.0 18.6 23.05 18.7 23.1 18.7 23.15 18.75 23.2 18.75 23.25 18.8 23.3 18.8 23.35 18.85 23.35 19.05 23.6 19.55 22.05 20.0 20.85 19.95 20.8 19.95 20.75 20.0 20.7 20.0 20.65 20.0 20.55 20.0 20.5 20.0 20.35 20.0 20.3 19.95 20.25 19.8 20.2 19.75 20.2 19.8 20.2 19.8 20.15 19.9 20.1 19.95 20.1 20.35 19.9 20.45 19.85 Q23.05 18.35 24.25 15.55 24.85 14.15 24.45 12.65 L24.3 12.45 24.25 12.35 24.1 12.35 24.05 12.3 24.05 12.2 24.05 12.15 23.75 12.3 23.65 12.25 23.85 12.1 23.9 12.05 24.15 11.85 Q26.0 10.35 27.05 8.2 L27.8 6.65 27.8 6.2 26.8 6.15 26.1 5.8 26.0 5.75 Q25.15 4.75 25.35 3.4 L25.5 2.5 Q25.85 0.65 27.5 -0.15 L27.4 -0.15 28.35 -0.3 28.45 -0.3 28.6 -0.25 28.7 -0.2 28.7 -0.3 28.65 -0.4 28.6 -0.45 28.6 -0.5 Q28.35 -1.75 27.5 -2.7 L25.45 -4.45 25.45 -4.5 25.05 -4.75 24.95 -4.85 24.9 -4.9 24.85 -4.95 24.5 -5.6 24.45 -5.7 24.45 -5.85 24.45 -5.95 24.5 -6.05 24.5 -6.15 24.55 -6.25 24.55 -6.35 24.55 -6.4 24.65 -6.5 24.9 -6.65 25.4 -6.9 26.95 -7.0 26.95 -7.05 26.9 -7.2 26.95 -7.35 26.95 -7.4 26.85 -7.5 26.8 -7.7 26.8 -7.8 25.65 -9.95 24.05 -12.0 23.85 -12.15 23.65 -12.3 23.4 -12.35 23.25 -12.4 23.15 -12.5 23.1 -12.55 23.1 -12.6 23.05 -12.6 23.0 -12.65 22.9 -12.65 22.8 -12.7 22.75 -12.7 22.95 -12.75 23.1 -12.75 23.2 -12.8 24.45 -13.1 24.65 -13.15 24.85 -13.2 24.8 -13.3 24.8 -13.35 24.75 -13.4 24.7 -13.45 24.65 -13.45 24.6 -13.5 24.55 -13.55 24.55 -13.65 24.45 -13.8 24.45 -13.85 23.7 -14.4 21.7 -15.35 21.65 -15.35 21.6 -15.3 21.5 -15.35 21.45 -15.4 21.45 -15.45 21.4 -15.5 21.4 -15.55 21.3 -15.65 21.25 -15.8 21.15 -15.9 21.05 -16.0 20.65 -16.5 20.15 -16.95 20.1 -17.0 18.0 -18.1 Q15.8 -19.1 13.55 -18.5 L13.55 -18.45 13.6 -18.4 13.6 -18.3 13.55 -18.35 13.5 -18.4 13.45 -18.4 13.3 -18.4 13.15 -18.4 13.1 -18.45 13.1 -18.55 13.1 -18.65 13.1 -18.7 13.0 -18.7 12.9 -18.8 12.8 -18.95 12.75 -19.1 12.55 -19.35 12.5 -19.4 12.4 -19.5 11.7 -20.3 11.2 -20.8 11.25 -20.55 M23.8 -12.8 L23.85 -12.8 23.75 -12.8 23.8 -12.8 M25.65 -4.55 L25.65 -4.6 25.55 -4.6 25.65 -4.55 M5.7 2.1 L5.55 2.45 5.75 2.0 5.7 2.1 M3.65 5.7 L3.6 5.75 3.75 5.65 3.8 5.6 3.65 5.7 M4.7 4.9 L4.75 4.8 4.7 4.85 4.7 4.9 M-14.15 3.7 L-14.1 3.6 -14.25 3.9 -14.2 3.8 -14.15 3.7 M-13.9 3.2 L-13.9 3.15 -13.85 3.1 -13.85 3.0 -13.95 3.2 -14.0 3.35 -13.95 3.3 -13.95 3.2 -13.9 3.2 M-8.4 11.35 L-8.25 11.25 -8.4 11.35 M-10.3 -0.65 L-10.25 -0.75 -10.35 -0.7 -10.35 -0.65 -10.3 -0.65 M-16.2 9.25 L-16.1 9.35 -16.05 9.25 -16.1 9.15 -16.1 9.1 -16.25 9.15 -16.2 9.2 -16.2 9.25 M-18.45 12.3 L-18.35 11.85 -18.4 11.95 -18.45 12.3 M-17.15 10.75 L-17.0 10.6 -17.2 10.65 -17.2 10.7 -17.15 10.75 M-15.0 8.95 L-15.0 9.05 -14.95 9.0 -14.95 8.9 -15.0 8.95 M-18.1 22.35 L-18.15 22.35 -18.25 22.45 -18.25 22.55 -18.2 22.5 -18.1 22.35" fill="#000000" fill-rule="evenodd" stroke="none"/>
    </g>
  </defs>
</svg>
