<?xml version="1.0" encoding="UTF-8" standalone="no"?>
<svg xmlns:ffdec="https://www.free-decompiler.com/flash" xmlns:xlink="http://www.w3.org/1999/xlink" ffdec:objectType="frame" height="51.3px" width="63.85px" xmlns="http://www.w3.org/2000/svg">
  <g transform="matrix(1.0, 0.0, 0.0, 1.0, 31.45, 39.15)">
    <use ffdec:characterId="5" height="51.3" transform="matrix(1.0, 0.0, 0.0, 1.0, 0.45, -13.5)" width="63.85" xlink:href="#sprite0"/>
  </g>
  <defs>
    <g id="sprite0">
      <use ffdec:characterId="4" height="51.3" transform="matrix(1.0, 0.0, 0.0, 1.0, 0.0, 0.0)" width="63.85" xlink:href="#shape0"/>
    </g>
    <g id="shape0">
      <path d="M18.75 -14.3 L17.15 -14.25 16.85 -15.2 16.4 -16.2 15.8 -17.1 15.0 -17.95 Q17.2 -16.65 18.1 -14.35 L18.75 -14.3 M-14.0 14.4 Q-13.8 11.35 -11.85 9.0 L-11.2 9.3 Q-12.7 11.0 -13.5 13.05 L-14.0 14.4 M-24.45 -8.75 L-24.4 -8.75 -24.35 -8.8 -24.2 -8.6 -24.15 -8.55 -24.85 -8.55 -24.7 -8.65 -24.55 -8.65 -24.45 -8.7 -24.45 -8.75 M-25.85 2.9 L-24.95 2.35 -26.1 4.45 -25.85 2.9 M-28.15 10.4 L-28.6 11.25 -28.6 11.2 -28.15 10.4 M-27.6 11.35 L-28.05 11.55 -27.95 11.3 -27.45 11.3 -27.6 11.35 M-26.9 11.35 L-26.85 11.2 -26.6 11.05 -26.65 11.15 -26.7 11.2 -26.9 11.35" fill="#7e5e20" fill-rule="evenodd" stroke="none"/>
      <path d="M22.75 -12.05 Q23.85 -11.2 24.05 -9.95 L24.05 -9.9 22.75 -12.05 M-3.4 -19.0 L-3.45 -19.05 -3.35 -19.15 -3.25 -18.95 -3.4 -19.0" fill="#f0ab27" fill-rule="evenodd" stroke="none"/>
      <path d="M18.5 18.65 Q17.45 19.65 16.35 19.9 L16.7 19.35 16.75 19.35 Q17.85 19.35 18.55 17.9 L18.6 17.95 18.5 18.65 M27.15 6.55 L27.35 6.15 27.0 7.65 26.55 9.1 26.7 8.5 26.8 7.95 27.15 6.55 M27.8 7.4 L27.95 6.6 28.05 5.7 28.15 6.35 28.1 7.0 27.8 7.4 M-19.6 16.95 L-19.55 16.95 -19.55 17.15 -19.6 17.05 -19.6 16.95 M-28.95 2.95 L-29.0 2.9 -29.05 2.85 -29.0 2.8 -29.0 2.7 -28.9 2.65 -28.95 2.95" fill="#3b2e15" fill-rule="evenodd" stroke="none"/>
      <path d="M-24.8 -2.95 L-23.25 -2.6 -23.5 -2.3 -22.7 -2.3 Q-21.95 -2.35 -21.2 -1.65 -24.45 -0.7 -26.2 0.65 -28.05 1.9 -27.9 2.55 L-27.15 2.45 -26.8 2.95 -27.5 3.55 -27.75 3.35 -28.05 2.95 -28.8 3.65 -28.85 3.55 -28.95 2.95 -28.9 2.65 Q-27.4 0.35 -25.3 -1.65 L-24.25 -2.65 -24.8 -2.95" fill="#a77ad5" fill-rule="evenodd" stroke="none"/>
      <path d="M24.05 -9.9 L24.6 -9.35 Q25.5 -8.25 25.7 -6.8 25.0 -7.05 24.55 -7.65 L23.3 -8.8 21.8 -9.4 20.9 -9.65 20.45 -9.4 Q19.75 -10.35 19.65 -11.5 L19.65 -13.0 21.6 -14.2 22.0 -14.0 Q22.4 -13.85 22.25 -13.5 L21.95 -13.0 22.3 -12.5 22.75 -12.05 24.05 -9.9" fill="#3d2d4f" fill-rule="evenodd" stroke="none"/>
      <path d="M1.6 -20.05 L4.3 -17.7 Q6.9 -16.0 8.65 -13.4 L9.75 -11.3 10.5 -11.0 Q11.6 -16.05 6.8 -17.95 L1.6 -20.05 M5.95 -13.95 L5.65 -13.5 Q7.7 -12.45 6.65 -11.35 L5.75 -11.25 Q5.35 -11.35 3.7 -10.25 8.3 -10.1 9.45 -9.45 L11.6 -8.25 Q10.25 -10.5 9.0 -11.05 8.5 -13.5 5.95 -13.95 M2.0 -14.2 Q-0.85 -17.9 -5.65 -18.1 L-7.7 -18.15 Q-6.45 -17.6 -5.5 -16.75 L-4.6 -16.0 Q-9.6 -13.9 -15.15 -13.95 -13.65 -12.5 -11.55 -12.95 L-9.8 -13.3 Q-12.75 -11.15 -14.85 -5.15 L-12.25 -9.35 Q-10.45 -12.3 -5.75 -13.65 L1.9 -13.9 1.9 -13.75 2.0 -14.2 M5.75 -8.45 Q4.9 -8.4 4.85 -8.65 L4.25 -8.65 3.15 -8.1 Q1.4 -5.7 1.0 -2.9 1.75 -4.85 3.35 -6.5 L4.15 -7.15 5.45 -7.8 Q6.6 -8.5 5.75 -8.45 M3.35 -11.6 Q-1.8 -12.75 -6.2 -10.0 -10.25 -7.35 -10.95 -2.7 L-11.2 -1.1 Q-8.9 -6.0 -4.2 -9.05 -3.0 -9.85 -1.55 -10.25 L0.0 -10.55 2.7 -11.4 3.35 -11.6 M3.7 4.5 L4.95 2.95 6.3 0.55 Q7.5 -3.0 6.4 -6.95 L6.05 -5.8 5.3 -4.7 4.8 -4.1 Q1.35 -0.75 -3.5 -0.1 -0.55 -1.85 -0.25 -3.9 L-7.3 0.4 -6.4 -0.95 Q-3.85 -4.2 -0.6 -6.6 L-1.45 -6.7 -2.65 -6.15 Q-7.6 -3.6 -11.05 0.6 L-13.45 4.05 Q-15.9 8.3 -14.95 12.65 L-15.1 14.85 Q-16.05 10.65 -15.2 6.4 L-14.8 4.45 -12.5 0.75 Q-15.2 1.85 -16.7 4.6 -19.1 8.95 -18.35 13.6 L-18.3 13.75 -18.25 13.85 -18.15 13.95 -18.15 14.25 -18.1 14.65 -18.15 14.7 -18.25 14.75 -18.3 14.75 -18.4 14.75 -18.55 14.7 -18.6 14.65 -18.6 14.5 -18.6 14.45 -18.65 14.4 -18.7 14.3 Q-18.9 14.35 -19.05 14.05 L-19.1 13.95 -19.1 13.9 -19.1 13.5 -19.2 13.35 -19.25 13.1 -19.3 13.0 -19.3 12.9 -19.3 12.85 -19.35 12.85 -19.35 12.8 -19.4 12.6 -19.4 12.55 Q-19.35 12.25 -19.6 12.2 L-19.7 12.35 Q-19.9 9.4 -19.7 6.4 L-17.5 2.7 Q-19.3 3.15 -20.75 4.05 L-25.7 7.5 -25.5 7.0 Q-24.35 3.05 -20.9 0.75 L-15.65 -2.45 Q-9.8 -5.75 -7.15 -11.95 -9.75 -10.9 -11.2 -8.4 -14.3 -3.05 -19.8 -3.45 L-19.2 -3.65 Q-17.2 -3.9 -17.5 -4.9 -17.2 -6.55 -15.6 -7.4 -16.85 -7.0 -17.8 -6.15 -18.8 -5.25 -19.85 -5.1 -25.35 -3.9 -29.95 -7.15 L-28.8 -5.35 -30.6 -6.65 -30.45 -7.5 -26.6 -7.95 -26.5 -7.85 -26.4 -7.85 -26.25 -7.9 -26.25 -7.95 -25.95 -7.95 -25.45 -8.1 -25.4 -8.1 -24.95 -8.45 -24.95 -8.4 -23.9 -8.35 -23.8 -8.35 -23.7 -8.35 -23.65 -8.6 -23.65 -8.9 -23.65 -8.95 -23.6 -9.0 -23.6 -9.15 -23.95 -9.2 -24.05 -9.2 -24.1 -9.15 -24.15 -9.2 -24.15 -9.25 -24.15 -9.4 -24.2 -9.45 -24.4 -9.7 -24.5 -9.9 -24.65 -10.05 -24.7 -10.05 -24.7 -10.25 -24.75 -10.4 -24.9 -10.45 -24.95 -10.45 -25.05 -10.5 -25.1 -10.55 -25.15 -10.75 -25.25 -10.95 -25.35 -11.0 -25.4 -11.05 -25.4 -11.1 -25.45 -11.15 -25.45 -11.2 -25.55 -11.35 -25.7 -11.5 -25.7 -11.8 -25.75 -12.2 -25.85 -12.3 -25.95 -12.4 -26.05 -12.3 -26.7 -16.5 -25.1 -15.7 -25.0 -15.55 -24.7 -15.15 -23.85 -14.55 -23.85 -14.5 -23.8 -14.45 -23.65 -14.4 -23.25 -14.1 -23.15 -14.1 -23.1 -14.05 -23.0 -14.0 -22.6 -13.8 -22.45 -13.65 -21.15 -13.35 -20.3 -13.4 -20.25 -13.4 -20.15 -13.45 Q-18.05 -12.75 -18.25 -13.65 L-18.4 -15.75 -18.4 -18.2 Q-15.05 -16.7 -12.95 -16.65 L-9.85 -17.1 -12.65 -19.1 -5.5 -20.15 -4.35 -20.5 -4.4 -21.15 -4.95 -21.85 -4.75 -23.5 Q-0.05 -21.0 6.8 -19.85 13.65 -18.7 14.85 -14.4 14.65 -12.35 15.65 -10.5 L12.55 -10.4 13.6 -9.95 14.55 -9.6 15.45 -9.1 16.25 -8.55 17.1 -7.9 17.85 -7.25 18.55 -6.5 19.6 -5.15 20.35 -4.1 21.1 -3.0 22.05 -1.4 22.45 0.1 20.6 -3.25 Q19.6 -4.7 19.1 -4.2 20.5 -2.1 21.05 0.05 22.5 5.2 21.3 10.4 L20.6 9.2 Q18.8 6.65 16.2 4.9 L18.4 8.35 Q15.95 7.6 14.3 6.05 12.55 4.4 12.3 2.0 11.95 -1.1 10.65 -3.5 L9.85 -0.35 Q9.45 0.75 9.35 2.05 L8.95 2.7 9.55 3.85 Q12.35 7.75 16.0 11.0 12.15 9.05 9.8 5.25 L8.5 3.25 Q6.35 6.05 3.55 8.35 2.8 9.1 1.85 8.8 0.8 9.95 -0.8 10.2 L-4.35 11.35 -4.95 11.2 -5.45 11.45 -5.65 11.35 -5.95 11.25 -6.05 11.2 -6.45 11.25 -7.05 11.5 -8.15 11.95 -7.7 11.45 -6.75 10.2 Q-5.7 9.45 -5.3 7.85 L-4.55 6.25 -3.2 4.15 -0.2 2.8 -0.2 3.0 Q-1.05 5.5 -2.2 7.1 -3.1 8.35 -3.65 8.35 L-3.45 8.4 0.25 6.4 -2.3 9.5 Q0.9 8.45 3.55 4.7 8.75 2.75 8.8 -2.5 8.8 -5.15 8.05 -7.6 9.35 -1.25 4.85 3.45 L3.7 4.5 M14.0 -1.65 Q16.15 1.5 17.5 5.15 L17.5 3.5 Q17.55 0.1 14.75 -1.4 L14.0 -1.65 M23.55 5.75 L24.25 3.95 24.65 2.15 24.65 0.45 24.25 -1.35 23.9 -2.35 23.35 -4.05 23.1 -4.75 24.0 -3.3 24.9 -1.45 25.45 -0.3 25.85 1.25 26.0 2.15 26.05 3.9 25.9 5.45 25.45 7.15 25.2 8.5 24.95 9.9 24.8 11.4 24.85 12.95 24.95 14.25 25.25 15.45 25.75 16.4 26.15 16.95 25.9 17.15 25.9 17.3 25.7 17.35 25.55 17.35 25.55 17.3 25.3 16.95 24.75 16.2 24.55 15.8 23.8 14.5 Q23.4 13.7 23.4 11.9 L23.55 7.8 23.5 6.05 23.55 6.05 23.55 5.75 M23.5 16.15 L23.25 16.65 23.35 16.6 23.4 16.7 22.85 17.45 22.3 18.5 22.35 18.1 22.0 18.5 21.35 19.6 21.2 19.85 20.9 20.4 20.9 20.5 20.05 21.5 Q19.15 22.3 18.75 22.3 L18.65 22.3 18.4 22.4 Q18.1 22.4 18.05 22.2 L18.05 21.95 18.4 19.95 18.5 18.65 18.6 17.95 18.55 17.9 Q17.85 19.35 16.75 19.35 L16.7 19.35 16.35 19.9 15.45 20.65 15.2 19.1 Q17.35 15.6 16.6 11.65 18.0 12.95 17.95 14.8 L17.7 16.85 17.6 17.0 17.65 17.0 17.65 17.1 17.7 17.0 20.0 15.0 20.2 16.05 19.55 18.1 19.55 18.25 19.75 18.35 Q20.55 18.35 22.75 15.7 L23.1 15.35 23.1 15.4 23.5 16.15 M20.3 1.1 Q18.7 -4.45 13.1 -6.65 16.05 -3.4 18.35 0.25 20.25 3.3 21.0 6.7 21.1 3.8 20.3 1.1 M-24.7 10.0 L-22.25 8.9 -22.15 8.85 Q-23.35 14.7 -19.65 19.25 L-19.3 19.4 -18.75 19.45 -18.6 19.55 -18.35 19.95 -18.25 20.7 -18.55 20.7 -18.65 20.8 -18.9 20.95 -19.95 20.4 -19.6 21.25 -19.45 21.95 -19.5 22.6 -19.1 22.25 -19.0 22.4 -19.6 23.05 -20.2 23.6 -20.4 23.7 -20.85 23.65 -20.9 23.4 -20.65 23.35 -21.2 21.6 Q-21.25 20.8 -22.1 19.65 L-22.9 17.75 -23.2 16.45 -24.15 15.5 -23.95 12.5 -23.7 11.05 -23.25 9.6 -23.35 9.6 -25.3 10.35 -24.7 10.0 M-3.4 -19.0 L-3.25 -18.95 -3.35 -19.15 -3.45 -19.05 -3.4 -19.0 M-14.5 -10.65 Q-19.1 -7.1 -24.9 -6.05 -19.95 -5.4 -16.1 -8.45 -14.95 -9.3 -14.5 -10.65" fill="#915ec4" fill-rule="evenodd" stroke="none"/>
      <path d="M1.6 -20.05 L6.8 -17.95 Q11.6 -16.05 10.5 -11.0 L9.75 -11.3 8.65 -13.4 Q6.9 -16.0 4.3 -17.7 L1.6 -20.05 M20.3 1.1 Q21.1 3.8 21.0 6.7 20.25 3.3 18.35 0.25 16.05 -3.4 13.1 -6.65 18.7 -4.45 20.3 1.1" fill="#c995ff" fill-rule="evenodd" stroke="none"/>
      <path d="M5.95 -13.95 Q8.5 -13.5 9.0 -11.05 10.25 -10.5 11.6 -8.25 L9.45 -9.45 Q8.3 -10.1 3.7 -10.25 5.35 -11.35 5.75 -11.25 L6.65 -11.35 Q7.7 -12.45 5.65 -13.5 L5.95 -13.95 M5.75 -8.45 Q6.6 -8.5 5.45 -7.8 L4.15 -7.15 3.35 -6.5 Q1.75 -4.85 1.0 -2.9 1.4 -5.7 3.15 -8.1 L4.25 -8.65 4.85 -8.65 Q4.9 -8.4 5.75 -8.45 M-15.1 14.85 L-14.95 12.65 Q-15.9 8.3 -13.45 4.05 L-11.05 0.6 Q-7.6 -3.6 -2.65 -6.15 L-1.45 -6.7 -0.6 -6.6 Q-3.85 -4.2 -6.4 -0.95 L-7.3 0.4 -0.25 -3.9 Q-0.55 -1.85 -3.5 -0.1 1.35 -0.75 4.8 -4.1 L5.3 -4.7 6.05 -5.8 6.4 -6.95 Q7.5 -3.0 6.3 0.55 L4.95 2.95 3.7 4.5 3.55 4.7 Q0.9 8.45 -2.3 9.5 L0.25 6.4 -3.45 8.4 -3.65 8.35 Q-3.1 8.35 -2.2 7.1 -1.05 5.5 -0.2 3.0 L-0.2 2.8 -3.2 4.15 Q-7.5 5.15 -10.15 8.5 L-10.55 9.05 -11.2 9.3 -11.85 9.0 Q-13.8 11.35 -14.0 14.4 L-14.4 15.8 -14.5 16.05 Q-15.0 16.1 -15.05 15.65 L-15.1 14.85 M16.0 11.0 Q12.35 7.75 9.55 3.85 L8.95 2.7 9.35 2.05 Q9.45 0.75 9.85 -0.35 L10.65 -3.5 Q11.95 -1.1 12.3 2.0 12.55 4.4 14.3 6.05 15.95 7.6 18.4 8.35 L16.2 4.9 Q18.8 6.65 20.6 9.2 L21.3 10.4 Q22.5 5.2 21.05 0.05 20.5 -2.1 19.1 -4.2 19.6 -4.7 20.6 -3.25 L22.45 0.1 22.9 1.8 23.15 3.0 23.35 4.1 23.55 5.75 23.55 6.05 23.5 6.05 23.55 7.8 23.4 11.9 Q23.4 13.7 23.8 14.5 L24.55 15.8 24.75 16.2 25.3 16.95 25.55 17.3 25.55 17.35 25.55 17.55 25.45 17.6 Q24.95 17.6 24.2 16.45 L24.25 16.75 24.1 16.85 23.5 16.15 23.1 15.4 23.1 15.35 22.75 15.7 Q20.55 18.35 19.75 18.35 L19.55 18.25 19.55 18.1 20.2 16.05 20.0 15.0 17.7 17.0 17.65 17.1 17.65 17.0 17.6 17.0 17.7 16.85 17.95 14.8 Q18.0 12.95 16.6 11.65 L16.0 11.0 M-28.8 -5.35 L-29.95 -7.15 Q-25.35 -3.9 -19.85 -5.1 -18.8 -5.25 -17.8 -6.15 -16.85 -7.0 -15.6 -7.4 -17.2 -6.55 -17.5 -4.9 -17.2 -3.9 -19.2 -3.65 L-19.8 -3.45 Q-14.3 -3.05 -11.2 -8.4 -9.75 -10.9 -7.15 -11.95 -9.8 -5.75 -15.65 -2.45 L-20.9 0.75 Q-24.35 3.05 -25.5 7.0 L-25.7 7.5 -20.75 4.05 Q-19.3 3.15 -17.5 2.7 L-19.7 6.4 Q-19.9 9.4 -19.7 12.35 L-19.75 12.6 -19.75 12.85 -19.75 12.95 -19.85 13.05 -19.85 13.1 -19.9 13.2 -19.95 13.3 -19.95 13.5 -19.8 13.4 -19.75 13.75 Q-19.75 14.45 -20.0 14.85 L-20.0 14.95 -20.0 15.8 -20.0 15.9 -19.95 16.25 -19.95 16.85 -19.9 16.95 -19.85 17.0 -19.85 17.05 -19.85 17.15 -19.85 17.2 -19.8 17.3 -19.75 17.35 -19.7 17.45 -19.7 17.5 -19.55 17.65 -19.5 17.7 Q-19.4 18.7 -18.75 19.45 L-19.3 19.4 -19.65 19.25 Q-23.35 14.7 -22.15 8.85 L-22.25 8.9 -24.7 10.0 -26.6 11.05 -26.85 11.2 -26.9 11.35 Q-27.05 12.0 -27.3 11.45 L-27.4 11.3 -27.45 11.3 -27.95 11.3 -28.05 11.55 -27.6 11.35 -28.3 11.9 -28.3 11.85 -28.45 11.85 -28.7 11.6 -28.6 11.25 -28.15 10.4 -28.1 10.3 -27.95 10.1 -28.2 9.5 Q-28.8 7.95 -26.1 4.45 L-24.95 2.35 -25.85 2.9 -26.35 3.1 -26.8 2.95 -27.15 2.45 -27.9 2.55 Q-28.05 1.9 -26.2 0.65 -24.45 -0.7 -21.2 -1.65 -21.95 -2.35 -22.7 -2.3 L-23.5 -2.3 -23.25 -2.6 -24.8 -2.95 -27.25 -4.35 -28.8 -5.35 M-18.25 13.85 L-18.3 13.75 -18.35 13.6 Q-19.1 8.95 -16.7 4.6 -15.2 1.85 -12.5 0.75 L-14.8 4.45 Q-17.3 8.85 -18.1 13.9 L-18.25 13.85" fill="#4c3666" fill-rule="evenodd" stroke="none"/>
      <path d="M2.0 -14.2 L1.9 -13.75 1.9 -13.9 -5.75 -13.65 Q-10.45 -12.3 -12.25 -9.35 L-14.85 -5.15 Q-12.75 -11.15 -9.8 -13.3 L-11.55 -12.95 Q-13.65 -12.5 -15.15 -13.95 -9.6 -13.9 -4.6 -16.0 L-5.5 -16.75 Q-6.45 -17.6 -7.7 -18.15 L-5.65 -18.1 Q-0.85 -17.9 2.0 -14.2 M3.35 -11.6 L2.7 -11.4 0.0 -10.55 -1.55 -10.25 Q-3.0 -9.85 -4.2 -9.05 -8.9 -6.0 -11.2 -1.1 L-10.95 -2.7 Q-10.25 -7.35 -6.2 -10.0 -1.8 -12.75 3.35 -11.6 M-14.5 -10.65 Q-14.95 -9.3 -16.1 -8.45 -19.95 -5.4 -24.9 -6.05 -19.1 -7.1 -14.5 -10.65" fill="#d6b0ff" fill-rule="evenodd" stroke="none"/>
      <path d="M15.0 -17.95 L15.8 -17.1 16.4 -16.2 16.85 -15.2 17.15 -14.25 18.75 -14.3 20.85 -15.25 21.7 -15.05 Q22.3 -15.1 22.95 -14.6 L23.0 -14.5 22.9 -14.35 22.0 -14.0 21.6 -14.2 19.65 -13.0 19.65 -11.5 Q19.75 -10.35 20.45 -9.4 L20.9 -9.65 21.8 -9.4 23.3 -8.8 24.55 -7.65 Q25.0 -7.05 25.7 -6.8 L26.5 -5.15 26.65 -4.1 26.5 -4.05 25.75 -4.05 25.2 -4.35 Q25.2 -3.95 25.35 -3.6 26.15 -1.45 27.7 0.4 L29.05 1.85 30.05 2.95 29.9 2.95 29.95 3.05 29.45 3.1 28.7 3.15 28.65 3.35 28.0 3.3 27.55 3.0 27.8 3.9 Q28.1 4.75 28.05 5.7 L27.95 6.6 27.8 7.4 27.6 8.1 27.0 9.55 26.4 10.8 Q25.95 11.6 25.65 12.45 L25.3 13.4 Q25.1 14.25 25.35 15.15 L25.75 16.4 25.25 15.45 24.95 14.25 24.85 12.95 24.8 11.4 24.95 9.9 25.2 8.5 25.45 7.15 25.9 5.45 26.05 3.9 26.0 2.15 25.85 1.25 25.45 -0.3 24.9 -1.45 24.0 -3.3 23.1 -4.75 23.35 -4.05 23.9 -2.35 24.25 -1.35 24.65 0.45 24.65 2.15 24.25 3.95 23.55 5.75 23.35 4.1 23.15 3.0 22.9 1.8 22.45 0.1 22.05 -1.4 21.1 -3.0 20.35 -4.1 19.6 -5.15 18.55 -6.5 17.85 -7.25 17.1 -7.9 16.25 -8.55 15.45 -9.1 14.55 -9.6 13.6 -9.95 12.55 -10.4 15.65 -10.5 Q14.65 -12.35 14.85 -14.4 L14.95 -15.25 14.1 -16.65 15.0 -17.95 M1.6 -20.05 L6.8 -17.95 Q11.6 -16.05 10.5 -11.0 L9.75 -11.3 8.65 -13.4 Q6.9 -16.0 4.3 -17.7 L1.6 -20.05 M8.8 -2.5 Q8.75 2.75 3.55 4.7 L3.7 4.5 4.85 3.45 Q9.35 -1.25 8.05 -7.6 8.8 -5.15 8.8 -2.5 M26.75 2.2 L26.85 2.3 26.6 1.75 26.75 2.2 M14.0 -1.65 L14.75 -1.4 Q17.55 0.1 17.5 3.5 L17.5 5.15 Q16.15 1.5 14.0 -1.65 M27.4 5.1 L27.15 6.55 26.8 7.95 26.7 8.5 26.55 9.1 27.0 7.65 27.35 6.15 27.4 5.1 M-14.5 -10.65 Q-14.95 -9.3 -16.1 -8.45 -19.95 -5.4 -24.9 -6.05 -19.1 -7.1 -14.5 -10.65 M20.3 1.1 Q21.1 3.8 21.0 6.7 20.25 3.3 18.35 0.25 16.05 -3.4 13.1 -6.65 18.7 -4.45 20.3 1.1" fill="#d6b0ff" fill-rule="evenodd" stroke="none"/>
      <path d="M18.6 -14.15 L18.0 -12.9 17.85 -12.95 16.65 -15.15 14.75 -17.75 Q16.05 -14.45 16.05 -12.95 L16.0 -11.85 15.95 -12.05 Q15.25 -14.45 13.2 -16.4 11.1 -18.4 8.1 -18.85 5.1 -19.35 3.2 -19.95 L-0.5 -21.2 -1.65 -21.65 Q-3.2 -21.8 -4.35 -23.0 L-4.55 -23.2 -4.8 -23.45 -4.8 -23.5 Q-5.4 -24.35 -5.4 -25.05 L-5.3 -25.65 -5.25 -25.65 Q-5.2 -24.5 -3.8 -23.5 L-2.3 -22.6 -2.2 -22.55 3.55 -21.2 7.2 -20.15 6.8 -20.95 Q6.45 -21.95 6.45 -23.9 6.45 -25.5 7.0 -25.65 L7.0 -24.4 Q7.75 -22.8 11.55 -20.15 L14.05 -18.1 Q13.75 -19.0 12.85 -19.9 L15.15 -18.4 16.75 -17.0 18.15 -15.3 20.25 -15.5 23.35 -15.2 Q25.1 -14.8 25.3 -14.4 23.3 -14.55 22.4 -12.35 L24.0 -11.1 24.95 -9.95 26.3 -7.25 26.8 -5.6 27.1 -4.1 27.5 -2.1 27.2 -2.65 25.95 -3.75 26.65 -2.65 27.5 -1.05 Q27.9 -0.3 28.45 0.2 29.5 1.5 30.95 2.5 L31.95 2.95 Q30.5 3.75 29.0 3.6 L28.85 6.45 28.7 7.15 Q28.0 9.25 26.75 11.05 25.3 13.15 25.7 14.1 25.9 17.1 27.05 18.3 26.35 18.85 24.8 17.8 L24.0 17.05 23.8 17.7 21.05 21.15 20.2 21.95 17.6 24.4 Q16.7 25.15 15.7 25.0 17.4 22.95 18.4 19.3 L18.0 19.65 16.3 21.55 14.85 23.4 14.45 22.7 14.55 21.2 Q14.6 20.1 14.9 19.1 15.2 17.95 15.75 16.9 16.7 15.15 16.15 12.9 L15.65 11.9 Q14.35 10.3 12.85 9.05 L10.0 6.0 8.45 3.9 Q6.35 7.1 3.05 9.2 0.7 10.65 -2.1 11.45 -4.3 12.15 -6.95 12.15 L-8.8 12.5 Q-5.75 9.0 -5.0 7.0 -4.3 4.95 -4.7 5.1 L-5.8 5.6 Q-8.9 7.35 -10.2 9.1 L-12.05 11.95 -13.55 15.0 -14.0 18.45 -15.05 16.2 Q-15.95 13.65 -15.9 11.1 L-15.85 7.15 -16.9 11.1 -17.8 15.75 -17.75 16.2 Q-17.55 17.7 -17.7 19.3 L-19.0 17.3 -19.0 17.15 -19.1 16.25 -19.3 15.7 -19.45 14.8 -19.5 15.75 Q-19.5 18.5 -18.0 20.45 L-16.55 22.05 -18.4 21.9 -18.4 21.95 -18.45 22.3 -18.4 22.35 Q-18.8 23.35 -19.4 23.95 L-21.65 25.65 Q-20.7 24.5 -21.35 22.85 L-22.4 20.8 -24.1 17.6 Q-24.75 16.25 -25.2 14.5 -25.7 12.7 -25.35 11.4 -27.45 12.0 -27.75 12.85 L-28.45 14.85 -28.65 14.05 Q-29.15 11.5 -28.45 9.2 L-27.1 5.2 -26.3 3.5 Q-28.15 3.45 -29.55 5.05 L-29.1 2.4 -27.6 -0.95 Q-26.6 -2.2 -28.0 -3.6 L-30.1 -5.8 -31.6 -7.35 Q-32.25 -8.0 -31.55 -7.8 L-30.5 -7.65 -28.35 -7.75 Q-26.55 -7.9 -23.6 -8.85 L-24.55 -9.65 -25.65 -11.2 Q-26.4 -12.25 -26.8 -13.75 -27.25 -15.35 -27.25 -17.75 L-26.7 -17.1 Q-25.25 -15.5 -23.35 -14.45 -21.2 -13.3 -18.7 -13.45 -19.65 -16.45 -18.9 -20.0 L-18.6 -19.75 -18.1 -19.25 -16.6 -17.9 Q-15.2 -16.95 -13.85 -16.85 L-11.9 -16.85 -10.65 -17.25 -14.7 -19.25 -9.1 -20.2 -5.95 -20.25 -5.55 -20.2 -4.65 -20.4 -4.9 -21.5 -5.25 -23.9 Q-4.7 -21.5 -2.95 -20.1 L-0.55 -18.55 0.6 -17.45 0.85 -16.75 Q-0.55 -17.4 -2.35 -18.4 -3.8 -19.2 -5.95 -19.15 L-12.5 -18.95 -10.8 -18.35 -8.95 -17.55 Q-8.3 -17.25 -7.35 -15.45 -9.25 -16.35 -9.75 -16.1 L-11.95 -15.2 -15.5 -15.4 Q-17.4 -16.25 -18.05 -17.0 -18.3 -14.8 -15.8 -10.7 -17.95 -11.95 -19.2 -11.85 -20.45 -11.75 -22.4 -12.65 L-23.3 -13.05 -22.95 -12.45 Q-21.6 -10.1 -19.0 -9.5 -23.0 -7.35 -25.6 -7.1 -28.05 -6.8 -30.05 -7.1 -28.65 -5.85 -26.4 -5.1 -24.15 -4.35 -22.5 -4.35 -20.8 -4.35 -20.15 -2.2 L-23.7 -1.9 -25.5 -0.9 Q-26.1 -0.45 -27.1 1.5 L-27.45 2.2 Q-25.55 1.2 -24.55 1.35 -23.25 1.5 -24.75 3.25 L-25.9 4.75 Q-27.0 6.6 -27.4 8.85 L-27.8 11.05 Q-26.0 10.4 -24.2 9.3 -23.0 8.55 -21.7 7.95 -22.45 9.8 -22.85 11.75 L-23.3 15.85 -23.0 17.3 -20.95 22.2 -20.45 23.5 -20.35 23.3 Q-20.0 22.7 -20.0 22.2 L-20.15 21.15 -20.35 20.2 -20.6 19.95 -20.9 19.15 Q-19.9 20.25 -18.9 20.65 L-19.5 19.7 -19.95 18.2 -20.25 17.0 -20.25 15.85 -20.2 15.25 -20.1 14.8 -20.05 14.2 -19.95 13.35 -19.9 12.4 -19.85 12.3 -19.8 12.1 -19.8 12.0 -19.6 11.35 -19.45 10.95 -19.15 10.25 -19.1 10.55 -18.35 14.35 -18.25 12.85 Q-17.95 9.25 -16.3 6.05 L-14.55 3.2 -13.35 1.85 -13.1 1.7 Q-13.85 2.9 -14.55 5.85 -15.2 8.8 -14.95 11.0 L-14.45 14.4 Q-14.4 13.2 -14.05 12.65 L-12.2 9.45 Q-11.2 8.05 -9.85 7.05 -8.45 5.9 -6.8 4.9 -5.25 4.15 -2.95 3.35 -0.7 2.5 -0.05 1.95 -0.4 2.3 0.15 1.9 L1.4 0.7 1.45 0.8 Q1.45 1.65 0.85 2.7 0.3 3.65 -1.35 4.05 -3.0 4.45 -3.25 6.15 -3.55 7.8 -7.25 11.35 L-1.65 10.05 Q0.2 9.7 2.7 8.35 5.2 7.0 6.9 4.55 L9.2 0.75 10.4 -1.8 10.3 -0.9 Q10.0 1.75 9.25 2.8 8.9 2.95 9.85 4.1 L12.55 7.35 Q14.15 9.45 16.2 10.5 L19.75 12.15 16.7 11.85 17.35 13.55 Q17.6 15.3 16.85 16.65 16.15 17.85 15.95 18.5 L15.45 20.3 16.2 19.35 18.85 16.95 19.2 16.75 18.75 22.2 19.8 21.45 20.65 20.45 Q22.6 17.4 21.7 13.85 21.1 11.3 21.55 8.8 21.7 11.0 22.3 13.05 23.05 15.45 25.8 17.45 L25.0 14.6 Q24.65 12.85 25.85 10.35 L26.9 7.15 Q27.45 4.35 26.5 1.7 27.7 2.4 29.6 2.4 L27.35 0.2 26.5 -1.05 25.95 -2.15 25.55 -3.2 25.0 -4.25 24.3 -5.25 Q23.2 -6.55 21.75 -7.2 L20.9 -7.7 22.2 -7.75 Q22.95 -7.75 24.05 -7.1 L24.1 -7.1 24.8 -6.65 25.9 -5.65 25.35 -7.25 24.95 -8.0 24.1 -9.55 Q22.9 -10.8 21.65 -10.75 20.25 -10.7 20.35 -11.6 L20.55 -13.2 Q20.65 -13.95 22.55 -14.45 20.5 -15.1 18.6 -14.15" fill="#2e2736" fill-rule="evenodd" stroke="none"/>
    </g>
  </defs>
</svg>
