<?xml version="1.0" encoding="UTF-8" standalone="no"?>
<svg xmlns:ffdec="https://www.free-decompiler.com/flash" xmlns:xlink="http://www.w3.org/1999/xlink" ffdec:objectType="frame" height="47.2px" width="57.15px" xmlns="http://www.w3.org/2000/svg">
  <g transform="matrix(1.0, 0.0, 0.0, 1.0, 28.7, 29.15)">
    <use ffdec:characterId="5" height="46.35" transform="matrix(1.0, 0.0, 0.0, 1.0, -0.1, -5.55)" width="56.6" xlink:href="#shape0"/>
    <use ffdec:characterId="2" height="12.0" transform="matrix(1.0, 0.0, 0.0, 1.0, -4.95, -11.8)" width="9.9" xlink:href="#shape1"/>
    <use ffdec:characterId="2" height="12.0" transform="matrix(-1.0, 0.0, 0.0, 1.0508, 4.5, -11.9)" width="9.9" xlink:href="#shape1"/>
    <use ffdec:characterId="6" height="47.2" transform="matrix(1.0, 0.0, 0.0, 1.0, -0.1, -5.55)" width="57.15" xlink:href="#shape2"/>
  </g>
  <defs>
    <g id="shape0">
      <path d="M-21.5 20.1 L-21.35 19.6 Q-22.25 19.45 -22.9 18.8 -23.45 18.2 -23.45 17.65 L-23.15 16.6 -23.1 16.55 Q-24.95 16.25 -26.15 14.45 L-26.15 13.2 -25.8 12.45 Q-25.0 12.35 -25.3 12.05 L-27.15 12.2 -27.45 11.9 -25.8 10.2 -26.95 8.9 -27.05 8.0 Q-27.05 6.95 -26.75 6.6 L-25.4 4.75 -25.35 4.7 Q-27.05 4.85 -27.75 3.8 -28.2 3.15 -28.2 2.35 -28.2 1.55 -27.45 1.55 L-27.0 1.75 -26.6 1.9 Q-25.45 1.9 -24.95 0.9 -24.65 0.35 -24.65 -0.2 -24.65 -1.45 -25.55 -2.3 -26.5 -3.2 -26.5 -5.05 -26.5 -6.5 -26.1 -7.15 -25.5 -8.1 -23.1 -9.4 L-23.45 -10.45 -23.5 -11.35 Q-23.5 -14.75 -19.5 -15.5 -19.5 -16.8 -19.05 -17.8 -18.25 -19.65 -16.1 -19.65 -15.7 -19.65 -15.55 -19.35 L-15.45 -19.0 -15.55 -18.7 -15.7 -18.45 -15.5 -18.0 -15.0 -17.45 -12.55 -17.45 -12.45 -17.7 Q-12.45 -18.1 -12.8 -18.4 L-13.4 -18.65 Q-14.1 -18.65 -13.95 -19.25 -13.95 -20.0 -12.75 -20.0 L-10.05 -19.8 -9.15 -19.5 -8.4 -20.1 Q-7.5 -20.75 -5.85 -20.75 L-3.45 -20.3 -2.8 -19.55 Q-2.55 -19.8 -2.55 -20.15 L-2.85 -21.25 Q-3.15 -22.0 -3.9 -21.55 L-4.95 -21.6 -5.05 -22.0 Q-5.05 -23.15 -2.6 -23.3 -0.1 -23.5 1.15 -21.75 L2.05 -22.45 Q2.95 -23.0 4.0 -23.0 5.9 -23.0 5.65 -22.45 L4.9 -21.7 Q4.15 -21.05 4.15 -20.7 L4.2 -20.35 4.9 -20.6 8.7 -20.85 Q9.65 -20.8 10.65 -19.9 11.85 -18.9 12.3 -18.75 L14.2 -18.75 14.35 -19.0 14.0 -19.35 13.8 -19.7 Q13.8 -20.25 14.4 -20.25 15.9 -20.25 16.15 -18.05 L16.05 -17.45 15.6 -16.85 Q19.4 -15.9 20.65 -13.95 21.35 -11.7 21.9 -10.75 L23.65 -7.5 Q24.4 -5.85 24.4 -4.45 24.4 -3.1 23.95 -1.85 25.15 -0.95 25.8 -0.95 L26.05 -1.0 Q26.05 -1.7 26.7 -1.7 27.6 -1.7 27.5 0.9 L27.2 1.85 26.45 2.6 28.1 4.6 Q28.4 4.9 28.4 6.0 28.4 6.7 27.6 7.55 L26.95 8.25 Q27.5 8.45 27.5 9.3 27.5 9.9 26.5 11.0 L27.05 11.65 27.1 12.25 26.85 13.3 25.65 14.1 25.65 14.15 25.6 14.15 25.8 14.55 25.9 14.85 Q25.9 15.4 25.3 16.15 L25.0 16.5 Q25.6 16.9 25.65 17.75 24.5 18.95 22.15 18.6 L21.35 18.0 21.35 17.9 Q20.35 20.45 17.4 20.7 L17.25 20.6 17.2 20.6 17.05 20.45 16.75 20.25 14.8 20.45 Q13.65 20.1 13.7 18.85 L14.2 18.35 14.7 18.35 Q17.55 18.55 17.6 16.25 L17.5 16.15 Q19.9 15.7 21.0 13.75 20.8 13.1 20.15 12.85 L20.05 12.8 Q22.3 12.7 23.55 10.65 L23.25 9.45 Q22.6 7.75 21.45 7.45 L22.45 7.25 Q23.8 6.3 23.5 4.7 23.15 3.05 22.3 1.65 L21.85 1.05 21.45 -0.45 Q21.5 -0.7 21.15 -0.7 L20.5 -0.75 19.6 -2.6 Q13.35 -9.55 10.95 -9.55 10.5 -9.55 10.05 -9.9 L9.25 -10.5 6.5 -11.35 Q3.0 -12.7 -0.25 -12.7 L-4.5 -12.25 -7.55 -11.5 -8.1 -11.2 -8.8 -11.25 -11.55 -10.1 Q-13.5 -9.3 -14.75 -8.0 L-14.8 -7.9 -17.95 -4.75 Q-20.9 -1.05 -21.4 2.2 L-22.65 2.0 Q-23.1 3.65 -22.85 5.35 -22.55 7.25 -21.55 8.95 L-20.75 9.75 -21.8 9.8 -22.45 10.7 Q-22.3 13.9 -19.05 13.7 L-19.85 14.0 Q-20.35 14.95 -20.5 16.05 -19.35 17.95 -16.85 17.55 L-16.8 17.55 Q-16.5 19.55 -14.05 19.25 L-13.2 18.9 -12.75 19.1 -12.45 19.2 -12.3 19.35 Q-12.7 19.55 -12.55 19.95 L-12.55 20.35 Q-14.15 22.25 -16.3 21.0 L-16.7 19.85 Q-17.9 21.45 -20.05 20.8 L-21.5 20.1 M3.8 -22.05 L3.75 -22.05 3.75 -22.0 3.8 -22.05" fill="#663300" fill-rule="evenodd" stroke="none"/>
      <path d="M25.65 17.75 L25.65 17.85 Q25.65 18.45 24.3 19.15 L23.15 19.15 Q22.25 19.15 22.0 19.45 L21.05 20.15 18.45 21.35 17.35 22.0 14.6 22.35 13.75 22.1 13.2 21.8 12.65 21.95 11.85 22.1 Q10.65 22.1 10.15 21.6 L10.15 21.5 Q10.15 21.0 9.65 21.0 L9.15 21.25 8.35 21.45 Q7.6 21.45 5.8 20.6 L4.85 20.2 Q8.15 19.45 11.9 17.8 21.35 13.6 21.35 6.2 L21.35 6.1 21.7 4.55 Q21.7 3.35 20.95 0.7 L20.5 -0.75 21.15 -0.7 Q21.5 -0.7 21.45 -0.45 L21.85 1.05 22.3 1.65 Q23.15 3.05 23.5 4.7 23.8 6.3 22.45 7.25 L21.45 7.45 Q22.6 7.75 23.25 9.45 L23.55 10.65 Q22.3 12.7 20.05 12.8 L20.15 12.85 Q20.8 13.1 21.0 13.75 19.9 15.7 17.5 16.15 L17.6 16.25 Q17.55 18.55 14.7 18.35 L14.2 18.35 13.7 18.85 Q13.65 20.1 14.8 20.45 L16.75 20.25 17.05 20.45 17.2 20.6 17.25 20.6 17.4 20.7 Q20.35 20.45 21.35 17.9 L21.35 18.0 22.15 18.6 Q24.5 18.95 25.65 17.75 M-21.4 2.2 L-21.55 3.55 -21.3 5.3 -20.8 6.5 -20.8 8.15 Q-20.8 9.8 -18.4 13.1 L-15.65 15.75 Q-13.7 17.2 -12.25 17.75 L-6.85 19.85 -4.5 20.35 -4.55 20.35 -5.1 21.0 -5.3 21.05 -7.3 21.45 -8.25 22.35 Q-9.4 23.0 -11.35 23.0 L-12.55 22.7 -13.0 22.4 -14.1 22.75 -15.8 23.05 Q-16.8 23.05 -17.15 22.4 L-17.6 21.75 -18.15 21.95 -19.4 22.1 Q-20.7 22.1 -21.3 21.4 L-21.65 20.5 -21.5 20.1 -20.05 20.8 Q-17.9 21.45 -16.7 19.85 L-16.3 21.0 Q-14.15 22.25 -12.55 20.35 L-12.55 19.95 Q-12.7 19.55 -12.3 19.35 L-12.45 19.2 -12.75 19.1 -13.2 18.9 -14.05 19.25 Q-16.5 19.55 -16.8 17.55 L-16.85 17.55 Q-19.35 17.95 -20.5 16.05 -20.35 14.95 -19.85 14.0 L-19.05 13.7 Q-22.3 13.9 -22.45 10.7 L-21.8 9.8 -20.75 9.75 -21.55 8.95 Q-22.55 7.25 -22.85 5.35 -23.1 3.65 -22.65 2.0 L-21.4 2.2" fill="#3c1e00" fill-rule="evenodd" stroke="none"/>
      <path d="M-17.05 -13.55 Q-15.05 -13.85 -13.15 -13.6 -13.5 -13.7 -13.75 -13.9 -10.05 -14.45 -6.9 -13.0 L-9.25 -14.25 -5.0 -14.45 Q-6.2 -14.8 -6.9 -15.4 L-4.55 -15.55 Q-6.75 -15.55 -5.8 -16.45 L1.25 -16.7 2.7 -15.95 2.4 -15.7 Q4.95 -15.9 7.3 -14.95 6.8 -14.6 6.2 -14.4 L8.55 -14.0 Q7.7 -13.4 6.6 -13.0 L10.35 -12.65 10.25 -12.65 10.35 -12.5 Q10.45 -12.3 10.8 -12.35 L10.85 -12.45 10.35 -12.65 Q12.85 -14.1 14.8 -13.3 L14.75 -13.45 15.55 -13.6 15.9 -13.35 16.25 -13.15 17.3 -12.35 17.8 -11.9 17.95 -11.55 18.05 -11.15 Q17.5 -9.8 16.0 -9.7 L15.8 -9.6 Q16.95 -9.65 17.95 -9.1 L18.35 -8.7 Q18.35 -8.2 17.75 -8.15 L16.9 -7.95 17.85 -7.55 Q18.55 -7.55 18.85 -6.9 18.0 -6.35 16.95 -5.95 L16.3 -5.7 Q18.2 -5.8 19.6 -4.85 L19.7 -4.65 Q19.65 -4.2 19.4 -4.2 L19.1 -4.15 18.75 -4.15 18.65 -4.05 Q20.4 -3.9 21.25 -2.4 L21.35 -2.3 20.5 -1.75 21.8 -0.15 Q22.2 0.4 22.25 1.1 L21.85 1.75 21.35 2.05 Q22.25 2.95 22.4 4.0 L21.55 5.8 21.6 6.45 Q21.6 7.75 21.0 9.0 L20.7 9.8 Q20.25 10.5 19.65 10.5 19.0 10.5 18.7 9.75 L18.5 9.0 Q18.5 7.65 19.45 6.8 19.4 6.15 18.8 5.65 18.15 5.15 18.75 4.4 19.3 3.65 19.9 3.25 19.7 2.7 19.1 2.3 18.6 2.0 18.6 1.7 L18.8 1.45 19.15 0.85 Q17.65 -0.2 16.6 -1.5 15.7 -2.75 15.7 -3.5 L13.4 -4.05 Q13.05 -4.2 13.05 -4.75 13.05 -5.4 13.75 -5.55 L11.3 -6.15 Q10.95 -6.3 10.95 -6.9 L11.0 -7.25 Q12.2 -8.0 13.8 -8.0 L14.25 -7.95 Q13.45 -8.3 12.8 -9.2 12.1 -10.15 11.7 -11.25 11.7 -10.65 10.95 -10.15 9.45 -9.3 7.6 -9.5 L-0.35 -9.1 -9.6 -9.85 -9.75 -10.65 -9.7 -10.75 -9.7 -10.85 Q-11.3 -9.1 -13.95 -8.9 L-14.9 -8.7 -14.15 -8.15 -13.85 -7.75 Q-13.6 -7.5 -13.65 -7.2 -13.7 -6.55 -14.15 -6.2 L-14.3 -6.0 -15.0 -5.65 -16.4 -5.9 -16.7 -6.0 -16.8 -6.0 -15.65 -4.55 Q-15.65 -3.6 -17.65 -3.5 -17.15 -3.45 -16.7 -2.7 L-16.4 -1.85 Q-16.4 -1.35 -16.8 -1.2 L-18.4 -0.95 -18.65 -0.65 Q-17.6 -0.5 -17.6 0.6 -17.6 0.9 -17.9 1.2 -18.3 1.65 -19.0 1.6 L-19.25 1.65 Q-18.45 1.8 -17.95 2.3 -17.6 2.7 -17.6 3.05 -17.6 3.55 -18.45 4.1 L-19.85 5.1 Q-18.8 5.4 -18.6 5.55 -18.35 5.7 -18.35 6.1 L-18.8 8.55 -18.3 9.0 Q-17.9 9.5 -17.9 10.05 L-18.35 11.15 Q-18.85 11.8 -19.4 11.8 -19.95 11.8 -20.55 10.6 L-21.1 9.25 -21.95 6.6 -22.45 4.5 -22.7 3.1 -21.5 3.8 -21.6 2.8 -21.6 2.7 Q-21.6 2.3 -21.15 2.7 L-21.15 2.6 Q-21.6 1.9 -21.5 0.75 L-21.4 0.6 -20.25 0.75 Q-21.45 -0.25 -21.25 -1.75 -20.35 -2.95 -19.0 -2.7 L-20.95 -4.65 -20.8 -4.9 Q-19.6 -6.05 -18.3 -5.9 L-19.6 -6.9 -18.9 -7.5 -17.45 -7.75 -19.2 -8.65 -19.6 -10.45 -19.0 -11.25 -17.05 -13.55" fill="#663300" fill-rule="evenodd" stroke="none"/>
      <path d="M15.55 -13.6 L14.75 -13.45 14.8 -13.3 Q12.85 -14.1 10.35 -12.65 L10.85 -12.45 10.8 -12.35 Q10.45 -12.3 10.35 -12.5 L10.25 -12.65 10.35 -12.65 6.6 -13.0 Q7.7 -13.4 8.55 -14.0 L6.2 -14.4 Q6.8 -14.6 7.3 -14.95 4.95 -15.9 2.4 -15.7 L2.7 -15.95 1.25 -16.7 -5.8 -16.45 Q-6.75 -15.55 -4.55 -15.55 L-6.9 -15.4 Q-6.2 -14.8 -5.0 -14.45 L-9.25 -14.25 -6.9 -13.0 Q-10.05 -14.45 -13.75 -13.9 -13.5 -13.7 -13.15 -13.6 -15.05 -13.85 -17.05 -13.55 -14.6 -16.0 -12.05 -16.55 L-8.45 -17.0 -7.6 -17.15 -6.6 -17.3 Q5.0 -18.9 8.65 -16.35 11.6 -15.8 14.3 -14.35 L15.55 -13.6 M-19.6 -10.45 L-19.2 -8.65 -17.45 -7.75 -18.9 -7.5 -19.6 -6.9 -18.3 -5.9 Q-19.6 -6.05 -20.8 -4.9 L-20.95 -4.65 -19.0 -2.7 Q-20.35 -2.95 -21.25 -1.75 -21.45 -0.25 -20.25 0.75 L-21.4 0.6 -21.5 0.75 Q-21.6 1.9 -21.15 2.6 L-21.15 2.7 Q-21.6 2.3 -21.6 2.7 L-21.6 2.8 -21.5 3.8 -22.7 3.1 -23.0 1.5 Q-23.2 0.35 -23.05 -1.15 L-22.65 -4.7 Q-22.45 -6.5 -19.6 -10.45 M-15.0 -5.65 L-14.3 -6.0 -14.15 -6.2 Q-13.7 -6.55 -13.65 -7.2 -13.6 -7.5 -13.85 -7.75 L-14.15 -8.15 -14.9 -8.7 -13.95 -8.9 Q-11.3 -9.1 -9.7 -10.85 L-9.7 -10.75 -9.75 -10.65 -9.6 -9.85 -0.35 -9.1 7.6 -9.5 Q9.45 -9.3 10.95 -10.15 11.7 -10.65 11.7 -11.25 12.1 -10.15 12.8 -9.2 13.45 -8.3 14.25 -7.95 L13.8 -8.0 Q12.2 -8.0 11.0 -7.25 L11.4 -7.8 12.15 -8.15 10.45 -8.8 9.2 -8.45 Q5.3 -7.4 -0.25 -7.4 -5.8 -7.4 -9.75 -8.45 L-10.5 -8.65 Q-12.65 -7.85 -12.75 -7.3 -12.9 -6.7 -13.2 -6.15 -13.5 -5.65 -14.55 -5.65 L-15.0 -5.65 M22.4 4.0 Q22.25 2.95 21.35 2.05 L21.85 1.75 22.25 1.1 Q22.2 0.4 21.8 -0.15 L20.5 -1.75 21.35 -2.3 21.25 -2.4 Q20.4 -3.9 18.65 -4.05 L18.75 -4.15 19.1 -4.15 19.4 -4.2 Q19.65 -4.2 19.7 -4.65 L19.6 -4.85 Q18.2 -5.8 16.3 -5.7 L16.95 -5.95 Q18.0 -6.35 18.85 -6.9 18.55 -7.55 17.85 -7.55 L16.9 -7.95 17.75 -8.15 Q18.35 -8.2 18.35 -8.7 L17.95 -9.1 Q16.95 -9.65 15.8 -9.6 L16.0 -9.7 Q17.5 -9.8 18.05 -11.15 L17.95 -11.55 17.8 -11.9 Q19.85 -10.05 21.15 -7.55 L22.5 -4.05 22.95 -0.6 Q22.95 1.85 22.5 3.6 L22.4 4.0" fill="#3c1e00" fill-rule="evenodd" stroke="none"/>
    </g>
    <g id="shape1">
      <path d="M-1.25 6.0 Q-2.85 6.0 -4.05 4.4 -4.95 3.2 -4.95 2.6 -4.95 1.15 -3.25 0.2 -3.85 -0.15 -4.15 -0.8 L-4.45 -2.25 Q-4.45 -5.6 -0.9 -5.95 1.45 -6.2 2.25 -5.2 L1.35 -5.45 1.1 -5.45 0.4 -5.15 1.4 -4.9 Q2.35 -4.85 2.35 -4.35 2.35 -3.85 2.15 -3.8 L1.05 -3.7 Q1.7 -3.75 2.35 -3.3 L-0.3 -3.4 Q-1.25 -2.6 -1.35 -1.1 L-0.45 0.55 -1.85 0.65 Q-3.2 3.25 -0.3 5.25 L-0.25 5.3 Q-2.1 5.1 -3.05 4.15 L-4.0 2.55 -4.1 2.55 -4.25 3.2 Q-4.25 3.65 -3.45 4.7 -2.45 5.95 -1.25 6.0 M-3.95 -1.8 L-3.7 -0.9 Q-3.3 0.0 -2.5 0.0 L-2.0 -0.45 Q-1.65 -1.05 -2.1 -1.6 L-2.95 -2.65 Q-3.35 -3.15 -2.9 -3.9 -2.15 -5.3 -0.3 -5.3 L0.05 -5.25 -0.05 -5.6 Q-3.95 -5.55 -3.95 -1.8" fill="#663300" fill-rule="evenodd" stroke="none"/>
      <path d="M2.25 -5.2 L2.55 -4.55 3.3 -3.75 Q3.5 -3.15 4.25 -3.0 4.95 -2.85 4.95 -2.35 4.95 -1.7 4.2 -1.7 L3.3 -1.95 2.0 -2.2 Q1.15 -2.2 0.65 -1.45 0.3 -0.95 0.3 -0.65 L0.55 -0.05 0.75 0.35 1.4 0.65 1.8 1.2 Q1.8 1.75 1.3 1.75 L-0.05 1.45 Q-0.5 1.45 -0.65 1.8 L-0.75 2.15 Q-0.75 2.65 0.5 2.9 L1.45 3.25 2.0 3.2 Q1.35 3.85 1.35 4.9 L1.4 5.5 0.95 5.7 0.8 5.75 0.35 5.6 0.35 5.5 0.3 5.3 -0.25 5.3 -0.3 5.25 Q-3.2 3.25 -1.85 0.65 L-0.45 0.55 -1.35 -1.1 Q-1.25 -2.6 -0.3 -3.4 L2.35 -3.3 Q1.7 -3.75 1.05 -3.7 L2.15 -3.8 Q2.35 -3.85 2.35 -4.35 2.35 -4.85 1.4 -4.9 L0.4 -5.15 1.1 -5.45 1.35 -5.45 2.25 -5.2" fill="#3c1e00" fill-rule="evenodd" stroke="none"/>
      <path d="M0.8 5.75 L-0.9 6.0 -1.25 6.0 Q-2.45 5.95 -3.45 4.7 -4.25 3.65 -4.25 3.2 L-4.1 2.55 -4.0 2.55 -3.05 4.15 Q-2.1 5.1 -0.25 5.3 L0.3 5.3 0.35 5.5 0.35 5.6 0.8 5.75 M-3.95 -1.8 Q-3.95 -5.55 -0.05 -5.6 L0.05 -5.25 -0.3 -5.3 Q-2.15 -5.3 -2.9 -3.9 -3.35 -3.15 -2.95 -2.65 L-2.1 -1.6 Q-1.65 -1.05 -2.0 -0.45 L-2.5 0.0 Q-3.3 0.0 -3.7 -0.9 L-3.95 -1.8" fill="#8f4701" fill-rule="evenodd" stroke="none"/>
    </g>
    <g id="shape2">
      <path d="M24.3 -1.2 Q24.85 -0.3 25.4 -0.3 25.95 -0.3 26.05 -0.75 26.2 -1.25 26.55 -1.25 27.15 -1.25 27.15 -0.35 27.15 1.1 25.65 1.1 24.45 1.1 23.75 -0.1 23.3 -0.85 23.3 -1.35 L23.5 -2.8 24.25 -4.65 24.35 -4.65 24.45 -4.05 Q23.85 -2.6 23.85 -2.15 23.85 -1.9 24.3 -1.2 M27.8 4.8 L28.05 6.2 27.7 7.15 Q27.25 7.8 26.55 7.8 25.75 7.8 25.75 7.3 25.75 7.05 26.5 6.65 L27.2 5.8 26.6 3.8 26.65 3.6 Q27.4 3.85 27.8 4.8 M26.25 11.55 L26.5 12.6 Q26.5 13.25 25.55 14.4 L23.85 16.3 23.85 16.35 24.55 16.25 Q25.55 16.25 25.55 17.2 L25.45 17.55 25.45 17.65 25.15 18.2 Q24.75 18.6 24.15 18.6 23.1 18.6 22.7 17.85 L22.5 17.0 Q22.5 15.6 24.05 14.75 25.8 13.8 26.2 11.55 L26.25 11.55 M20.7 17.15 L20.9 17.95 Q20.9 18.6 20.05 19.75 18.95 21.2 17.5 21.2 16.55 21.2 16.55 20.2 16.55 19.75 16.85 19.35 17.25 18.8 18.1 18.8 L18.65 19.05 19.15 19.5 Q20.45 17.95 20.6 17.15 L20.7 17.15 M-25.9 -4.2 L-24.25 -1.25 Q-23.65 -0.15 -23.65 1.25 -23.65 1.95 -24.05 2.65 -24.65 3.75 -26.0 3.75 -27.1 3.75 -27.55 3.15 L-27.8 2.45 Q-27.8 1.9 -27.25 1.9 -26.85 1.9 -26.7 2.25 L-26.65 2.6 -25.85 2.7 Q-24.8 2.7 -24.5 1.6 L-24.4 0.5 Q-24.4 -0.5 -25.0 -1.8 L-25.95 -4.2 -25.9 -4.2 M-18.75 19.3 Q-18.6 19.5 -18.6 19.85 -18.6 20.85 -19.5 20.85 -20.6 20.85 -21.95 19.4 -23.1 18.1 -23.1 17.55 -23.1 16.65 -22.6 16.6 L-22.4 18.0 Q-21.9 18.8 -20.0 18.8 -19.05 18.8 -18.75 19.3 M-27.15 11.9 L-27.15 11.65 Q-24.3 10.8 -24.3 13.2 L-23.8 13.8 Q-23.35 14.35 -23.35 14.8 -23.35 15.65 -24.05 15.65 -25.35 15.65 -25.8 14.7 L-26.0 13.7 -25.95 13.0 Q-25.8 12.6 -25.2 12.45 -25.85 11.8 -26.35 11.9 L-27.15 11.9" fill="#8f4701" fill-rule="evenodd" stroke="none"/>
      <path d="M4.55 -22.95 Q2.55 -22.75 1.65 -21.95 L1.95 -21.1 1.6 -20.3 Q1.2 -19.6 0.95 -19.6 0.65 -19.6 0.75 -19.8 L1.35 -21.05 Q1.35 -21.7 0.65 -22.35 -0.4 -23.2 -2.4 -23.2 L-3.35 -22.95 -3.4 -22.95 -2.85 -23.35 -0.7 -23.6 Q0.3 -23.55 1.2 -22.55 L1.4 -22.35 Q1.85 -22.9 3.7 -23.3 6.2 -23.85 6.2 -22.65 L5.95 -22.45 4.95 -22.95 4.55 -22.95 M5.15 -22.05 L4.1 -20.6 4.3 -20.4 5.55 -21.25 Q6.95 -21.8 9.1 -21.25 10.5 -20.95 11.45 -20.0 12.3 -19.2 13.0 -19.2 L13.65 -19.3 13.8 -19.5 Q13.45 -19.9 13.45 -20.05 L13.45 -20.3 13.7 -20.4 Q14.5 -20.4 14.6 -19.45 L14.3 -18.85 Q13.85 -18.4 13.0 -18.4 12.1 -18.4 10.55 -19.65 9.0 -20.95 7.0 -20.95 L5.05 -20.4 4.45 -20.05 Q4.4 -19.9 4.1 -19.9 L4.05 -19.9 3.9 -19.95 3.75 -20.1 3.55 -20.4 Q3.55 -20.85 4.15 -21.35 L5.15 -22.05 M14.8 -20.35 L15.15 -20.35 Q15.65 -20.35 16.5 -18.9 L16.6 -17.35 16.5 -16.85 Q19.45 -16.1 20.75 -14.3 L22.15 -11.1 24.05 -7.8 Q25.1 -6.0 25.1 -4.7 L24.55 -2.35 Q24.55 -1.65 25.65 -1.65 25.9 -1.65 26.1 -2.0 L26.4 -2.4 Q26.8 -2.4 26.7 -1.95 26.7 -0.9 25.7 -0.9 23.85 -0.9 23.85 -2.4 23.85 -2.9 24.15 -3.45 L24.4 -4.7 23.95 -6.35 23.2 -7.9 22.3 -9.4 21.45 -10.95 20.95 -12.55 20.3 -14.05 Q19.65 -14.75 18.45 -15.5 L16.45 -16.7 16.25 -16.4 Q15.75 -15.65 14.95 -15.65 14.5 -15.65 13.85 -16.15 L13.3 -16.65 13.5 -16.9 13.9 -16.6 Q14.2 -16.35 14.75 -16.35 15.7 -16.6 15.95 -17.15 L16.05 -18.15 15.8 -19.3 15.4 -19.85 14.8 -20.2 14.8 -20.35 M11.4 -15.4 L9.75 -15.95 10.05 -16.25 Q10.15 -16.1 11.2 -15.8 L12.45 -15.55 14.1 -14.9 14.65 -14.4 15.25 -13.9 16.6 -13.05 18.7 -11.35 20.0 -9.4 19.85 -9.1 Q18.25 -11.45 15.9 -12.95 14.95 -13.45 13.5 -14.75 L12.55 -15.15 11.4 -15.4 M12.35 -8.4 Q12.1 -8.05 11.85 -8.05 L10.4 -8.4 9.7 -8.6 Q10.3 -9.15 11.15 -9.05 12.0 -8.95 12.35 -8.4 M9.35 -16.1 L9.1 -15.95 Q8.65 -16.4 7.4 -16.85 4.85 -17.8 -0.75 -17.8 L-2.4 -17.65 -4.0 -17.35 -5.5 -17.2 -9.55 -17.0 -12.05 -16.65 -13.35 -16.0 -17.0 -13.15 Q-16.7 -13.9 -15.65 -14.75 L-13.65 -16.2 -12.35 -17.05 -9.6 -17.45 -3.95 -17.9 -0.7 -18.25 3.55 -18.05 7.2 -17.5 Q7.6 -17.25 8.1 -17.1 L8.7 -16.85 9.35 -16.1 M1.75 -11.4 Q2.55 -12.95 4.95 -12.95 L7.35 -12.45 8.9 -10.5 9.4 -9.15 9.5 -7.75 Q9.5 -6.75 8.3 -6.15 L8.8 -5.7 Q10.0 -4.6 10.0 -3.75 10.0 -2.7 9.1 -1.5 7.75 0.3 5.3 0.3 3.25 0.3 3.25 -0.9 L3.35 -1.1 3.95 -0.6 Q4.15 -0.3 5.35 -0.3 7.55 -0.3 8.7 -1.95 9.4 -2.95 9.4 -3.75 L8.7 -5.05 7.85 -5.9 7.1 -5.7 6.95 -5.85 8.5 -7.1 8.8 -8.3 Q8.8 -9.3 8.2 -10.45 7.15 -12.35 4.85 -12.35 3.15 -12.35 2.3 -11.35 L1.1 -9.05 0.9 -9.3 1.25 -10.25 1.75 -11.4 M0.55 -8.8 L0.45 -8.6 0.2 -8.9 0.25 -9.2 0.35 -9.2 0.55 -8.8 M1.9 -7.7 Q1.9 -8.85 3.6 -9.0 5.3 -9.15 5.3 -7.65 L4.65 -6.6 Q3.9 -5.7 3.3 -5.7 L3.15 -5.75 3.1 -5.85 3.85 -6.65 4.6 -7.75 4.35 -8.2 3.7 -8.5 Q2.9 -8.5 2.5 -8.1 L2.1 -7.4 1.95 -7.4 1.9 -7.7 M5.2 -3.4 Q4.5 -2.8 3.6 -2.8 2.8 -2.8 2.55 -3.05 L3.95 -3.5 Q5.15 -3.8 5.15 -4.25 5.15 -4.7 4.25 -4.7 3.35 -4.7 3.0 -4.35 L2.9 -4.55 Q5.75 -6.0 5.75 -4.25 5.75 -3.9 5.2 -3.4 M16.15 -2.8 L15.85 -3.55 15.95 -3.55 16.15 -2.8 M15.8 -3.85 L14.95 -3.75 Q14.1 -3.75 13.55 -4.05 L12.95 -4.45 12.9 -4.8 16.15 -4.25 15.8 -3.85 M17.65 -0.85 L19.55 0.6 Q19.15 1.0 18.85 0.95 18.75 1.4 19.15 1.7 L20.05 2.45 19.75 2.8 Q19.2 2.8 18.7 2.25 L18.3 1.45 18.2 0.8 17.6 -0.2 16.3 -2.45 17.65 -0.85 M18.8 4.65 Q18.8 5.2 19.6 5.75 L20.4 6.5 19.85 7.35 Q19.25 8.15 19.25 8.85 L19.45 9.8 19.65 10.3 19.6 10.55 19.35 10.65 Q18.75 10.65 18.6 9.75 L18.6 8.85 18.65 7.7 Q18.75 7.2 19.35 6.45 L18.5 5.25 Q18.5 4.75 18.8 4.55 L18.8 4.65 M26.75 -2.05 Q27.3 -2.25 27.65 -1.45 L27.9 -0.1 27.6 1.6 Q27.3 2.45 26.8 2.8 28.55 3.95 28.55 6.45 28.25 7.75 27.6 8.4 L27.85 9.75 27.35 10.8 27.2 11.05 Q27.55 11.25 27.55 12.05 26.8 14.0 26.05 14.3 L26.1 14.85 Q26.1 15.25 25.4 15.9 26.1 16.45 26.1 17.7 26.1 18.25 25.5 18.85 24.7 19.65 23.4 19.65 L22.45 19.5 21.2 20.45 Q19.9 21.3 18.8 21.4 L18.65 21.55 Q18.65 22.1 17.8 22.5 L15.4 22.95 Q14.15 22.95 13.45 22.3 L13.35 22.2 Q12.95 22.55 11.75 22.55 10.6 22.55 10.1 22.0 L9.9 21.5 8.55 21.9 Q7.05 21.9 5.05 20.35 5.35 20.2 6.45 20.75 7.75 21.4 8.45 21.4 L9.7 21.05 10.7 20.65 10.75 20.7 10.2 21.3 10.4 21.5 Q10.85 21.95 11.25 21.95 L12.9 21.7 13.0 21.65 12.95 21.5 Q12.95 21.05 13.35 21.15 L13.3 21.35 13.4 21.5 13.6 21.7 13.9 21.9 15.4 22.35 17.25 22.0 18.1 21.4 17.85 21.35 17.75 21.15 Q17.75 21.0 19.0 20.7 L20.85 20.05 21.85 19.45 22.0 19.3 21.55 18.95 Q20.75 18.3 20.75 17.6 L20.85 16.95 21.0 16.9 21.5 17.95 Q22.1 18.95 23.4 18.95 25.05 18.95 25.45 17.3 L25.3 16.8 25.1 16.3 24.7 16.3 24.65 16.1 25.7 14.65 25.65 14.3 25.4 14.2 26.45 12.85 Q27.0 12.2 27.0 11.6 L26.85 11.4 26.5 11.55 26.0 11.55 25.95 11.4 Q25.95 11.25 26.45 10.85 L27.05 10.25 27.3 9.1 27.15 8.75 26.35 8.9 25.55 8.7 25.3 8.45 Q25.3 8.25 25.75 8.15 L26.2 8.15 26.75 8.05 27.45 7.5 27.85 6.85 28.1 6.3 27.65 4.55 Q27.15 3.25 26.7 3.2 L26.7 2.85 25.95 3.05 Q24.65 3.05 23.7 1.35 L23.8 1.25 Q24.1 1.25 24.85 1.8 25.6 2.35 25.95 2.35 27.05 2.35 27.4 -0.5 L27.15 -1.25 26.75 -2.05 M22.75 -1.5 L22.45 -3.3 21.95 -5.25 21.25 -7.05 20.2 -8.9 Q21.15 -8.6 22.15 -5.75 23.05 -3.15 23.05 -1.6 L22.95 -1.15 22.65 -0.55 22.6 -0.55 22.6 -1.1 22.75 -1.5 M-12.4 -20.3 L-10.9 -20.05 -9.25 -19.65 -9.25 -19.55 -9.45 -19.5 -12.3 -19.9 Q-13.9 -19.9 -14.0 -19.25 L-14.05 -18.95 -13.25 -19.0 Q-12.0 -19.0 -12.0 -17.85 -12.0 -17.6 -12.45 -17.35 -12.95 -17.05 -13.5 -17.05 -14.6 -17.05 -15.3 -17.75 L-15.6 -18.7 -15.3 -19.45 -15.25 -19.45 -15.3 -19.2 -15.0 -18.15 Q-14.5 -17.35 -13.55 -17.35 -12.6 -17.35 -12.6 -17.9 L-12.65 -18.15 -12.85 -18.4 -13.65 -18.75 -14.1 -18.65 -14.15 -18.65 -14.15 -18.6 -14.2 -18.6 -14.25 -18.6 -14.3 -18.6 -14.5 -19.15 -14.4 -19.65 Q-14.05 -20.3 -12.4 -20.3 M-8.95 -19.3 L-9.2 -19.3 -9.2 -19.6 Q-7.9 -21.2 -5.5 -21.2 L-4.55 -21.05 -4.85 -21.35 -5.1 -21.95 Q-5.1 -22.6 -4.8 -22.65 L-4.8 -22.25 -4.75 -21.95 -4.3 -21.5 -4.05 -21.85 Q-3.85 -22.05 -3.5 -22.05 -2.6 -22.05 -2.35 -21.25 L-2.25 -20.45 -2.3 -19.8 Q-2.45 -19.35 -3.05 -19.35 L-3.1 -19.35 Q-3.4 -19.35 -3.4 -19.7 L-3.35 -19.85 -3.65 -20.2 Q-4.15 -20.6 -5.25 -20.65 L-7.7 -20.1 -8.95 -19.3 M-3.45 -21.3 L-3.7 -21.1 -4.05 -20.9 -3.85 -20.8 -3.1 -20.2 -3.0 -20.5 -3.15 -20.95 -3.45 -21.3 M-25.9 -7.2 L-26.3 -5.95 -26.6 -4.95 -26.25 -3.85 -25.95 -2.9 -26.0 -2.75 -25.65 -2.7 -24.7 -1.15 Q-24.55 -0.8 -24.55 0.05 -24.55 2.45 -26.5 2.45 L-27.45 2.0 -27.45 1.45 Q-27.4 1.3 -27.15 1.3 -26.9 1.3 -26.85 1.5 -26.75 1.7 -26.45 1.7 -25.55 1.7 -25.25 0.55 -25.1 0.0 -25.1 -0.6 L-26.1 -2.75 Q-26.6 -2.75 -27.1 -4.95 -27.1 -5.9 -26.4 -7.3 L-25.05 -8.45 -23.5 -9.25 Q-23.9 -9.7 -24.1 -10.75 -24.1 -12.55 -23.45 -13.6 -22.5 -15.1 -19.95 -15.45 L-20.0 -15.75 Q-20.0 -18.4 -16.8 -19.75 L-18.6 -18.1 Q-19.55 -17.0 -19.55 -16.3 L-19.4 -15.5 -19.2 -15.55 -19.15 -15.3 -19.2 -15.2 -19.25 -15.2 -19.1 -15.0 -18.7 -14.4 Q-18.7 -14.25 -18.95 -14.25 -19.5 -14.25 -19.8 -14.95 L-19.9 -15.2 Q-21.5 -15.1 -22.5 -13.85 -23.45 -12.65 -23.45 -11.2 L-23.3 -10.25 -22.55 -9.25 -22.55 -8.9 -22.7 -8.85 -23.15 -8.95 -23.65 -8.65 -24.6 -8.25 -25.3 -7.75 -25.9 -7.2 M-21.1 -8.7 L-20.95 -9.35 -20.1 -10.5 -18.8 -11.65 -17.8 -12.7 Q-18.0 -12.15 -18.65 -11.45 L-20.0 -10.05 -20.75 -8.7 -21.35 -7.4 Q-21.95 -6.35 -22.35 -4.7 L-22.95 -2.05 -23.0 -1.95 -23.05 -2.15 -22.8 -3.45 -22.2 -5.8 -21.3 -8.15 Q-21.15 -8.3 -21.1 -8.7 M-28.05 2.3 L-28.2 2.55 Q-28.2 3.15 -26.9 3.95 -25.65 4.65 -25.65 4.7 -25.65 5.15 -26.45 5.15 -27.55 5.15 -28.2 4.0 L-28.6 2.85 Q-28.6 1.95 -27.9 1.85 -27.9 2.15 -28.05 2.3 M-5.3 -12.8 L-4.1 -12.65 -2.25 -12.0 Q-1.8 -11.7 -1.45 -11.0 -1.1 -10.35 -1.1 -9.95 L-1.2 -9.55 -1.25 -9.5 -1.95 -11.1 Q-2.8 -12.2 -5.9 -12.2 -8.0 -12.2 -8.65 -10.65 L-8.9 -8.85 -9.05 -8.2 -8.5 -7.0 -7.6 -5.8 Q-7.7 -5.7 -7.9 -5.7 L-8.4 -5.8 -9.25 -4.95 -9.7 -3.75 Q-9.7 -2.85 -8.85 -1.95 -7.7 -0.75 -5.8 -0.75 L-4.3 -1.0 -3.95 -0.85 Q-4.2 -0.25 -5.85 -0.25 -8.1 -0.25 -9.3 -1.7 -10.1 -2.7 -10.1 -3.55 -10.1 -4.3 -9.6 -5.1 L-8.65 -6.0 Q-9.3 -6.6 -9.55 -8.25 -9.55 -11.65 -7.8 -12.3 L-6.9 -12.7 -5.3 -12.8 M-4.9 -7.5 Q-4.9 -6.8 -3.95 -5.95 L-3.0 -5.05 -3.25 -4.65 Q-4.3 -5.1 -4.9 -6.0 L-5.35 -7.5 Q-5.35 -9.65 -3.45 -9.55 -1.55 -9.45 -1.55 -8.2 L-1.65 -7.75 -1.8 -7.65 Q-2.2 -9.2 -3.65 -9.2 -4.9 -9.2 -4.9 -7.5 M-0.35 -9.85 L-0.1 -9.05 Q-0.1 -8.65 -0.25 -8.45 -0.55 -8.55 -0.6 -9.2 L-0.6 -9.85 -0.35 -9.85 M-14.85 -5.5 L-15.65 -5.45 -15.35 -4.65 Q-15.35 -4.35 -15.7 -3.8 -16.15 -3.05 -16.85 -3.05 -17.4 -3.05 -17.4 -3.4 L-16.75 -3.95 Q-16.1 -4.3 -16.1 -4.7 -16.1 -5.0 -16.4 -5.2 L-17.25 -6.05 -15.4 -5.95 -14.0 -5.8 Q-14.2 -5.6 -14.85 -5.5 M-18.35 -1.15 L-17.5 -1.25 -17.35 -1.2 Q-17.75 -1.05 -17.75 -0.7 L-17.5 -0.05 -17.25 0.55 Q-17.25 2.05 -18.95 2.3 L-19.25 2.0 -18.55 1.35 Q-17.9 0.9 -17.9 0.55 L-18.95 -0.8 Q-18.95 -1.15 -18.35 -1.15 M-18.9 4.65 Q-18.3 4.95 -18.15 5.45 L-18.1 6.3 -18.15 7.1 Q-18.25 7.6 -18.7 7.95 -19.0 7.7 -18.95 7.25 L-18.8 6.4 Q-18.8 5.45 -19.45 5.35 -20.1 5.2 -20.1 5.0 L-19.6 4.55 -18.8 4.3 -18.9 4.65 M-4.35 -4.6 Q-5.3 -4.6 -5.3 -4.25 L-4.8 -3.7 Q-4.1 -3.25 -3.25 -3.25 L-3.0 -3.35 -2.65 -3.2 -3.05 -2.8 -3.9 -2.7 Q-4.8 -2.7 -5.4 -3.35 L-5.8 -4.1 Q-5.8 -5.0 -4.95 -5.0 L-3.5 -4.7 -3.2 -4.25 -3.3 -4.2 -3.55 -4.4 -4.35 -4.6 M-18.95 8.1 Q-17.9 8.45 -17.9 9.9 L-18.05 11.0 Q-18.35 11.95 -19.1 11.95 L-19.45 11.8 -19.55 11.6 -18.6 10.75 -18.4 9.8 Q-18.4 9.45 -18.7 9.0 L-19.0 8.45 -18.95 8.1 M-12.3 22.15 Q-12.3 22.65 -12.85 23.05 -13.6 23.6 -15.0 23.6 -16.8 23.6 -17.35 22.85 L-17.6 21.8 Q-17.6 21.35 -16.7 22.0 -15.5 22.8 -15.1 22.8 -14.05 22.8 -13.4 22.4 L-12.6 21.85 -12.3 22.15 M-11.8 22.45 L-10.5 22.5 -8.75 22.2 -7.65 21.35 Q-7.3 21.0 -6.3 20.8 -5.3 20.65 -4.95 20.25 L-4.7 20.65 Q-4.7 21.3 -9.85 23.05 L-11.8 22.75 -11.8 22.45 M-19.1 22.55 Q-20.65 22.55 -21.5 21.8 -22.1 21.25 -22.1 20.85 L-22.0 20.45 Q-22.8 20.2 -23.2 19.45 L-23.55 18.05 -23.45 17.3 -23.55 17.3 Q-25.4 17.3 -26.15 15.8 -26.55 15.0 -26.55 14.1 -26.55 11.7 -25.3 12.1 L-25.5 12.35 -25.95 12.85 Q-25.95 15.05 -24.45 15.95 L-22.95 16.85 -23.05 17.15 -23.15 17.6 Q-23.15 18.4 -22.7 18.8 L-21.05 20.3 -21.1 20.45 -21.35 20.55 -21.55 20.55 -21.55 20.6 Q-21.55 21.35 -19.8 21.6 -18.05 21.9 -18.05 22.15 -18.05 22.55 -19.1 22.55 M-26.95 8.3 L-26.45 9.05 Q-26.0 9.6 -26.0 10.1 -26.0 10.5 -26.35 11.15 -26.8 12.0 -27.45 12.0 L-28.0 11.7 -27.3 10.9 -26.8 10.05 -27.25 9.4 -27.75 8.5 Q-27.75 7.9 -27.15 6.7 -26.5 5.2 -25.7 5.15 -26.75 6.6 -26.75 7.6 L-26.95 8.3" fill="#000000" fill-rule="evenodd" stroke="none"/>
    </g>
  </defs>
</svg>
