<?xml version="1.0" encoding="UTF-8" standalone="no"?>
<svg xmlns:ffdec="https://www.free-decompiler.com/flash" xmlns:xlink="http://www.w3.org/1999/xlink" ffdec:objectType="frame" height="51.8px" width="71.1px" xmlns="http://www.w3.org/2000/svg">
  <g transform="matrix(1.0, 0.0, 0.0, 1.0, 35.25, 32.7)">
    <use ffdec:characterId="5" height="51.8" transform="matrix(1.0, 0.0, 0.0, 1.0, 0.3, -7.1)" width="71.1" xlink:href="#sprite0"/>
  </g>
  <defs>
    <g id="sprite0">
      <use ffdec:characterId="4" height="51.8" transform="matrix(1.0, 0.0, 0.0, 1.0, 0.0, 0.0)" width="71.1" xlink:href="#shape0"/>
    </g>
    <g id="shape0">
      <path d="M16.05 -15.8 L16.0 -15.8 15.85 -15.95 16.05 -15.8 M16.5 -13.65 L18.1 -12.7 19.9 -10.9 18.7 -12.4 21.05 -11.4 21.75 -10.8 Q22.45 -9.2 23.75 -7.75 L27.4 -3.95 26.5 -4.55 Q23.8 -6.4 21.8 -8.95 22.65 -6.4 24.6 -4.65 26.85 -2.5 29.8 -2.25 L30.8 -1.7 Q27.85 -1.65 25.45 -3.35 24.5 -4.0 23.65 -4.8 24.8 -2.6 26.95 -1.3 28.55 -0.3 30.4 -0.35 L26.65 -0.5 25.1 -1.4 Q25.7 -0.8 27.7 0.1 24.25 -0.1 22.6 -1.7 20.95 -3.3 20.45 -4.25 L20.0 -5.65 19.3 -8.95 18.85 -10.9 18.55 -8.4 16.5 -13.65 M24.15 2.45 L24.25 2.45 24.3 2.6 24.15 2.45 M26.15 5.6 L26.3 6.0 Q27.05 7.45 27.9 8.2 L28.05 8.5 26.0 6.55 25.55 5.75 25.5 6.05 24.05 4.1 26.15 5.6 M21.05 12.0 L20.95 11.8 21.0 11.9 20.65 11.65 20.8 11.45 19.7 10.35 19.6 10.4 Q19.35 10.05 19.65 8.25 L20.0 6.35 18.95 8.75 17.6 11.3 Q16.25 12.6 14.5 13.2 L12.85 13.6 Q14.75 12.65 16.4 9.4 L16.4 9.45 16.45 9.35 Q17.75 6.85 18.45 4.15 L18.75 3.05 19.4 -1.2 19.55 -3.2 19.55 -4.95 20.55 -1.05 21.5 1.7 Q22.5 6.15 24.3 9.1 21.7 9.0 20.4 4.5 21.9 10.15 23.5 12.6 L22.55 12.45 Q22.25 12.45 22.9 12.85 22.75 13.3 21.05 12.0 M25.1 19.85 L25.15 20.0 25.05 19.85 25.1 19.85 M17.75 19.1 Q16.2 18.05 15.15 16.45 L14.95 16.15 14.5 18.8 Q14.15 20.7 13.95 22.7 L13.95 23.1 13.8 23.65 Q12.9 17.05 14.35 15.7 L15.65 14.9 Q16.4 14.4 16.65 13.3 16.65 16.9 20.15 18.95 L15.3 16.3 17.75 19.1 M11.05 22.55 L10.55 23.45 8.55 21.85 8.85 22.2 8.8 22.2 7.15 20.9 9.35 20.1 Q10.95 19.2 12.1 18.3 L11.5 19.65 Q11.0 21.05 11.05 22.55 M17.35 -0.25 Q17.0 3.35 15.2 6.25 L15.6 4.75 Q16.3 3.65 15.3 0.05 L14.55 -2.45 14.3 -2.95 13.7 -4.25 13.25 -4.95 12.15 -6.05 10.05 -7.05 9.4 -7.25 6.55 -7.75 Q1.75 -6.4 0.05 -5.5 L0.05 -5.45 0.0 -5.45 -0.05 -5.5 Q-1.75 -6.4 -6.55 -7.75 L-9.4 -7.25 -10.05 -7.05 -11.15 -6.6 -12.15 -6.05 -13.25 -4.95 -13.7 -4.25 -14.55 -2.45 -14.65 -2.15 -15.3 0.05 Q-16.3 3.65 -15.6 4.75 L-15.2 6.25 Q-17.0 3.35 -17.35 -0.25 -17.25 -1.4 -16.4 -3.85 -15.55 -6.25 -14.9 -7.3 L-15.65 -7.9 -12.9 -9.75 -12.0 -10.3 -14.2 -10.45 -11.45 -13.5 Q-9.15 -15.4 -6.25 -15.9 L-6.2 -15.95 -6.8 -15.9 Q-9.05 -15.75 -11.2 -14.95 L-12.0 -14.55 -10.7 -15.6 -15.6 -12.6 -15.2 -13.8 -15.1 -14.05 -13.5 -16.75 Q-11.8 -19.1 -7.45 -19.3 L-5.9 -19.1 -4.2 -18.5 Q-7.25 -19.9 -10.05 -20.75 L-7.95 -20.8 -9.0 -21.45 Q-5.65 -21.3 -4.15 -19.9 -2.65 -18.6 -2.55 -17.6 L-3.35 -17.75 -4.05 -18.2 -2.8 -16.8 -2.3 -16.1 -2.25 -15.75 -2.3 -15.25 -5.7 -13.4 -3.95 -13.2 Q-2.6 -13.0 -1.8 -12.45 -0.5 -12.05 -1.45 -11.3 L-3.05 -10.75 -4.05 -10.5 -1.35 -10.05 Q-0.7 -9.75 -0.15 -8.7 L0.2 -7.9 Q1.2 -9.6 1.75 -9.75 L4.45 -10.55 2.1 -11.0 Q0.3 -11.45 1.05 -12.1 2.1 -13.2 3.95 -13.2 L5.7 -13.4 2.3 -15.25 1.9 -16.7 1.15 -17.3 1.5 -18.4 1.85 -18.95 2.75 -19.7 8.25 -21.05 2.45 -19.9 1.6 -19.8 0.3 -19.1 Q0.1 -19.4 0.45 -20.85 L0.6 -21.85 Q1.7 -22.7 3.5 -22.6 L2.95 -22.65 2.7 -22.65 2.9 -22.65 2.95 -22.65 4.0 -22.8 4.95 -22.9 9.05 -22.75 9.2 -22.7 13.15 -22.05 9.8 -21.95 8.9 -22.4 Q6.05 -22.9 4.75 -20.4 L9.45 -21.75 7.95 -20.8 10.05 -20.75 Q7.25 -19.9 4.2 -18.5 L5.9 -19.1 7.45 -19.3 Q11.8 -19.1 13.5 -16.75 15.15 -14.45 15.6 -12.6 L10.7 -15.6 12.0 -14.55 11.4 -14.75 Q8.9 -15.7 6.25 -15.95 L6.95 -15.75 Q9.25 -15.1 11.35 -13.65 13.1 -12.4 14.2 -10.45 L11.75 -10.45 15.7 -7.9 15.15 -7.65 14.9 -7.3 Q15.55 -6.25 16.4 -3.85 17.25 -1.4 17.35 -0.25 M-9.35 20.1 L-7.5 21.75 -8.15 21.95 -8.95 22.35 -8.55 21.85 -9.45 22.55 -10.75 23.1 -11.05 22.55 Q-11.0 21.05 -11.5 19.65 L-12.1 18.3 Q-10.95 19.2 -9.35 20.1 M-13.8 23.65 L-13.95 23.1 -13.95 22.7 Q-14.15 20.7 -14.5 18.8 L-14.95 16.15 -15.15 16.45 Q-16.2 18.05 -17.75 19.1 L-15.3 16.3 -17.25 17.75 Q-16.15 16.25 -16.65 13.3 -16.4 14.4 -15.65 14.9 L-14.35 15.7 Q-12.9 17.05 -13.8 23.65 M-25.15 20.0 L-25.1 19.85 -25.05 19.85 -25.15 20.0 M-21.0 11.9 L-24.25 15.05 -23.75 13.65 -26.9 14.2 -27.05 14.0 -27.5 13.8 -27.85 13.75 Q-25.7 12.8 -23.95 11.05 -22.55 9.5 -21.7 7.6 -21.1 6.3 -20.8 4.85 -21.6 7.15 -23.35 8.95 -23.8 9.45 -24.5 9.35 L-24.65 9.35 Q-23.45 7.2 -22.75 4.8 -22.2 2.85 -21.9 0.6 -19.9 -1.3 -18.7 -7.6 L-18.7 -7.0 -19.25 -2.55 -19.15 -3.0 Q-19.45 -0.9 -18.95 0.95 L-18.85 0.1 -18.15 -2.5 -18.1 -2.5 -18.0 -2.25 -18.1 -1.6 -18.2 0.15 -18.3 1.25 Q-18.3 2.95 -17.6 5.25 L-16.9 7.75 -16.4 9.4 Q-15.4 11.5 -13.7 13.0 L-12.95 13.6 Q-15.0 13.1 -16.8 11.9 L-17.6 11.3 Q-18.85 9.45 -19.45 7.3 L-19.9 4.85 -19.5 10.1 Q-19.9 11.3 -21.0 11.9 M-25.9 10.9 L-26.4 11.3 -25.65 10.6 -25.45 10.35 -25.9 10.9 M-25.5 6.05 L-25.55 5.75 -26.0 6.55 -28.05 8.5 -27.9 8.2 Q-27.05 7.45 -26.3 6.0 L-26.15 5.6 -23.3 2.9 -25.5 6.05 M-24.25 2.45 L-24.15 2.45 -24.3 2.6 -24.25 2.45 M-30.8 -1.7 L-29.8 -2.25 Q-27.85 -2.2 -25.2 -4.45 -22.3 -6.9 -21.8 -8.95 -23.25 -6.4 -27.4 -3.95 -26.1 -5.0 -24.95 -6.35 L-24.2 -7.0 -23.85 -7.45 Q-22.05 -9.2 -21.95 -10.45 L-21.75 -10.8 -21.05 -11.4 -20.7 -11.5 -19.45 -12.05 -17.55 -13.1 -17.8 -12.85 -16.5 -13.65 -18.55 -8.4 -18.85 -10.9 Q-19.1 -8.9 -20.2 -7.35 -21.9 -4.9 -23.9 -3.1 L-23.15 -5.35 Q-24.15 -3.35 -26.5 -2.0 -28.85 -0.65 -30.8 -1.7 M-5.4 -23.15 L-3.45 -23.1 Q-0.8 -22.1 -1.75 -19.45 L-2.05 -18.8 -3.05 -20.85 Q-4.3 -22.5 -6.1 -22.35 L-5.25 -22.6 -6.45 -22.45 -5.4 -23.15 M5.5 -11.0 Q6.3 -11.7 9.2 -12.2 L12.5 -11.55 Q10.9 -13.35 9.5 -13.35 8.1 -13.4 6.7 -12.15 L5.5 -11.0 M2.05 -7.7 Q5.55 -9.05 9.2 -9.05 11.85 -8.7 14.4 -7.7 L12.3 -9.55 Q11.3 -10.5 8.85 -10.7 6.4 -10.9 5.0 -9.9 L2.05 -7.7 M20.5 1.6 L20.15 -0.2 20.05 0.7 19.9 1.8 19.7 1.55 19.75 2.55 19.3 5.15 18.7 7.2 Q19.3 7.0 20.05 5.25 20.75 3.55 20.55 1.75 L20.5 1.6 M-16.0 -15.8 L-16.05 -15.8 -15.85 -15.95 -16.0 -15.8 M-11.05 -9.8 L-14.4 -7.7 Q-11.85 -8.7 -9.2 -9.05 -5.55 -9.05 -1.65 -6.95 -3.55 -8.9 -5.15 -9.35 L-7.9 -10.15 Q-9.45 -10.65 -11.05 -9.8 M-5.5 -11.0 L-6.7 -12.15 Q-7.25 -12.8 -8.2 -12.95 -9.2 -13.1 -11.65 -11.2 L-7.8 -11.7 Q-6.3 -11.7 -5.5 -11.0 M-18.9 1.3 L-19.0 2.7 -18.95 4.95 -19.2 3.3 Q-19.55 5.15 -19.0 6.9 -18.35 9.1 -16.6 10.75 -17.65 9.3 -18.15 7.05 -18.7 4.75 -18.9 1.3 M-24.95 9.75 L-24.85 9.65 -25.1 9.95 -24.95 9.75" fill="#c8c8c8" fill-rule="evenodd" stroke="none"/>
      <path d="M10.05 -20.75 L11.15 -20.75 12.9 -20.1 10.1 -19.65 Q14.7 -18.8 17.25 -15.5 18.2 -14.2 19.6 -13.6 21.3 -12.2 23.6 -12.15 L22.75 -12.15 22.55 -12.2 21.85 -12.3 Q18.4 -13.9 17.15 -15.1 16.4 -15.8 16.05 -15.8 L15.85 -15.95 16.0 -15.8 Q15.65 -15.75 15.6 -15.1 15.5 -14.45 16.5 -13.65 L18.55 -8.4 19.0 -4.75 18.2 -7.65 Q17.5 -10.5 15.6 -12.6 15.15 -14.45 13.5 -16.75 11.8 -19.1 7.45 -19.3 L5.9 -19.1 4.2 -18.5 Q7.25 -19.9 10.05 -20.75 M18.1 -12.7 L18.7 -12.4 19.9 -10.9 18.1 -12.7 M21.05 -11.4 L21.55 -11.25 21.75 -10.8 21.05 -11.4 M30.8 -1.7 L31.65 -1.25 30.9 -0.25 30.25 0.2 29.45 0.6 Q28.8 1.45 27.6 1.4 24.45 1.6 22.35 -0.95 21.1 -2.45 20.45 -4.25 20.95 -3.3 22.6 -1.7 24.25 -0.1 27.7 0.1 25.7 -0.8 25.1 -1.4 L26.65 -0.5 30.4 -0.35 Q28.55 -0.3 26.95 -1.3 24.8 -2.6 23.65 -4.8 24.5 -4.0 25.45 -3.35 27.85 -1.65 30.8 -1.7 M24.55 2.25 L24.15 2.3 24.05 2.35 24.0 2.35 23.9 2.35 24.0 2.4 24.15 2.45 24.3 2.6 24.25 2.45 25.25 2.55 Q25.1 2.65 25.1 3.0 L26.15 5.6 24.05 4.1 25.5 6.05 25.35 6.55 Q25.7 8.3 26.7 9.2 L25.25 9.4 24.6 8.65 24.95 9.35 24.5 9.3 25.3 10.05 Q26.55 12.05 28.9 13.3 L29.5 13.8 24.05 13.5 23.5 12.6 Q21.9 10.15 20.4 4.5 21.7 9.0 24.3 9.1 22.5 6.15 21.5 1.7 L20.55 -1.05 21.75 0.35 23.6 1.8 24.55 2.25 M28.05 8.5 L28.15 8.6 Q26.9 7.95 26.0 6.55 L28.05 8.5 M25.15 20.0 L25.8 21.2 24.75 21.25 19.5 20.05 18.2 19.35 17.75 19.1 15.3 16.3 20.15 18.95 Q16.65 16.9 16.65 13.3 16.4 14.4 15.65 14.9 L14.35 15.7 Q12.9 17.05 13.8 23.65 L13.8 24.7 11.6 23.05 13.35 24.75 11.3 23.35 11.1 22.4 11.05 22.55 Q11.0 21.05 11.5 19.65 L12.1 18.3 Q10.95 19.2 9.35 20.1 L15.25 13.55 11.9 14.7 Q11.8 14.65 12.25 14.15 L12.75 13.6 13.15 13.2 16.0 9.15 17.2 6.3 16.45 9.35 16.4 9.45 16.4 9.4 Q14.75 12.65 12.85 13.6 L14.5 13.2 Q16.25 12.6 17.6 11.3 16.7 14.85 18.7 16.45 20.7 18.05 22.85 18.7 21.25 17.05 20.9 15.1 22.55 17.95 25.05 19.85 L25.15 20.0 M17.4 -0.8 L17.35 -0.25 Q17.25 -1.4 16.4 -3.85 15.55 -6.25 14.9 -7.3 17.05 -5.1 17.35 -2.0 L17.4 -0.8 M-17.35 -0.25 L-17.4 -0.8 -17.25 -3.0 Q-16.85 -5.55 -14.9 -7.3 -15.55 -6.25 -16.4 -3.85 -17.25 -1.4 -17.35 -0.25 M-17.2 6.3 L-16.0 9.15 -13.15 13.2 -12.75 13.6 -12.25 14.15 Q-11.8 14.65 -11.9 14.7 L-15.25 13.55 -9.35 20.1 Q-10.95 19.2 -12.1 18.3 L-11.5 19.65 Q-11.0 21.05 -11.05 22.55 L-11.1 22.4 -11.3 23.35 -13.35 24.75 -11.6 23.05 -13.8 24.7 -13.8 23.65 Q-12.9 17.05 -14.35 15.7 L-15.65 14.9 Q-16.4 14.4 -16.65 13.3 -16.15 16.25 -17.25 17.75 L-15.3 16.3 -17.75 19.1 -18.2 19.35 -19.5 20.05 -24.75 21.25 -25.8 21.2 -25.15 20.0 -25.05 19.85 -20.9 15.1 -22.45 18.3 Q-21.0 17.55 -19.5 15.9 -17.4 13.55 -17.6 11.3 L-16.8 11.9 Q-15.0 13.1 -12.95 13.6 L-13.7 13.0 Q-15.4 11.5 -16.4 9.4 L-17.2 6.3 M-27.85 13.75 L-28.05 13.85 -29.5 13.8 -28.9 13.3 Q-27.1 12.35 -25.9 10.9 L-25.45 10.35 -25.65 10.6 -25.3 10.05 -24.95 9.75 -25.1 9.95 -24.85 9.65 -24.5 9.35 Q-23.8 9.45 -23.35 8.95 -21.6 7.15 -20.8 4.85 -21.1 6.3 -21.7 7.6 -22.55 9.5 -23.95 11.05 -25.7 12.8 -27.85 13.75 M-24.95 9.35 L-24.6 8.65 -25.25 9.4 -26.7 9.2 Q-25.7 8.3 -25.35 6.55 L-25.5 6.05 -23.3 2.9 -26.15 5.6 -25.1 3.0 Q-25.1 2.65 -25.25 2.55 L-24.55 2.5 -24.65 2.95 -24.25 2.45 -24.3 2.6 -24.15 2.45 -23.9 2.35 -24.05 2.35 -21.65 -0.15 -21.9 0.6 Q-22.2 2.85 -22.75 4.8 -23.45 7.2 -24.65 9.35 L-24.95 9.35 M-26.0 6.55 Q-26.9 7.95 -28.15 8.6 L-28.05 8.5 -26.0 6.55 M-24.45 2.25 Q-28.65 1.35 -30.9 -0.25 L-31.35 -0.9 -31.4 -0.95 -31.65 -1.25 -30.8 -1.7 Q-28.85 -0.65 -26.5 -2.0 -24.15 -3.35 -23.15 -5.35 L-23.9 -3.1 Q-26.55 -0.4 -28.0 -0.65 -27.1 0.05 -24.75 -0.9 -27.9 1.05 -30.1 0.05 L-23.9 -0.1 -24.45 2.25 M-21.75 -10.8 L-21.55 -11.2 Q-22.95 -10.8 -21.6 -11.85 -20.0 -13.2 -20.7 -12.8 L-21.5 -12.35 Q-22.05 -12.0 -23.4 -11.75 -24.25 -11.25 -24.9 -11.25 L-25.2 -11.5 -24.35 -12.2 -24.65 -12.25 -23.5 -13.35 Q-17.3 -14.3 -14.9 -17.25 -12.55 -20.2 -9.25 -19.8 L-12.8 -20.15 -11.15 -20.75 -10.05 -20.75 Q-7.25 -19.9 -4.2 -18.5 L-5.9 -19.1 -7.45 -19.3 Q-11.8 -19.1 -13.5 -16.75 L-15.1 -14.05 -15.2 -13.8 -15.6 -12.6 Q-17.1 -10.5 -17.85 -8.2 L-18.7 -5.3 -19.15 -3.0 -19.25 -2.55 -18.7 -7.0 -18.55 -8.4 -16.5 -13.65 -17.8 -12.85 -17.55 -13.1 -19.45 -12.05 -20.7 -11.5 -21.05 -11.4 -21.75 -10.8 M0.35 -15.05 Q0.5 -13.1 0.1 -11.15 L0.0 -10.7 -0.25 -11.45 -0.65 -12.25 Q0.0 -13.75 -1.2 -15.1 L-0.75 -16.2 Q-0.65 -17.25 -1.25 -17.65 L-2.1 -18.4 -0.55 -18.5 -0.45 -19.1 -0.35 -18.4 0.2 -17.85 -0.05 -16.6 0.4 -15.2 0.35 -15.05 M25.8 2.6 L25.7 2.55 25.65 2.55 25.8 2.55 25.8 2.6 M5.3 21.25 L6.05 21.75 5.85 21.7 5.3 21.25 M-16.0 -15.8 L-15.85 -15.95 -16.05 -15.8 -16.0 -15.8 M-5.85 21.7 L-6.05 21.75 -5.3 21.25 -5.85 21.7 M-25.8 2.6 L-25.8 2.55 -25.7 2.55 -25.8 2.6" fill="#828282" fill-rule="evenodd" stroke="none"/>
      <path d="M27.4 -3.95 Q28.55 -3.0 29.8 -2.25 26.85 -2.5 24.6 -4.65 22.65 -6.4 21.8 -8.95 23.8 -6.4 26.5 -4.55 L27.4 -3.95 M-29.8 -2.25 Q-28.55 -3.0 -27.4 -3.95 -23.25 -6.4 -21.8 -8.95 -22.3 -6.9 -25.2 -4.45 -27.85 -2.2 -29.8 -2.25 M9.8 -21.95 L9.45 -21.75 4.75 -20.4 Q6.05 -22.9 8.9 -22.4 L9.8 -21.95 M5.5 -11.0 L6.7 -12.15 Q8.1 -13.4 9.5 -13.35 10.9 -13.35 12.5 -11.55 L9.2 -12.2 Q6.3 -11.7 5.5 -11.0 M2.05 -7.7 L5.0 -9.9 Q6.4 -10.9 8.85 -10.7 11.3 -10.5 12.3 -9.55 L14.4 -7.7 Q11.85 -8.7 9.2 -9.05 5.55 -9.05 2.05 -7.7 M20.5 1.6 L20.55 1.75 Q20.75 3.55 20.05 5.25 19.3 7.0 18.7 7.2 L19.3 5.15 19.75 2.55 19.7 1.55 19.9 1.8 20.05 0.7 20.15 -0.2 20.5 1.6 M19.7 10.35 L20.8 11.45 20.65 11.65 19.7 11.6 19.7 10.35 M18.5 11.35 L19.1 12.2 20.45 15.1 Q18.95 15.1 18.4 12.5 L18.5 11.35 M-11.05 -9.8 Q-9.45 -10.65 -7.9 -10.15 L-5.15 -9.35 Q-3.55 -8.9 -1.65 -6.95 -5.55 -9.05 -9.2 -9.05 -11.85 -8.7 -14.4 -7.7 L-11.05 -9.8 M-5.5 -11.0 Q-6.3 -11.7 -7.8 -11.7 L-11.65 -11.2 Q-9.2 -13.1 -8.2 -12.95 -7.25 -12.8 -6.7 -12.15 L-5.5 -11.0 M-18.9 1.3 Q-18.7 4.75 -18.15 7.05 -17.65 9.3 -16.6 10.75 -18.35 9.1 -19.0 6.9 -19.55 5.15 -19.2 3.3 L-18.95 4.95 -19.0 2.7 -18.9 1.3 M-18.65 10.0 Q-18.25 11.5 -18.4 12.9 -18.75 14.35 -19.5 14.8 L-20.45 15.1 Q-19.45 14.25 -19.2 12.15 L-18.65 10.0" fill="#ffffff" fill-rule="evenodd" stroke="none"/>
      <path d="M12.9 -20.1 Q16.15 -18.85 18.3 -17.6 L18.45 -17.35 18.95 -17.1 Q20.45 -16.15 20.45 -15.5 L20.45 -15.45 Q22.2 -14.3 25.05 -13.4 L24.2 -13.25 26.65 -12.8 26.7 -12.7 25.75 -12.4 23.7 -12.15 23.6 -12.15 Q21.3 -12.2 19.6 -13.6 18.2 -14.2 17.25 -15.5 14.7 -18.8 10.1 -19.65 L12.9 -20.1 M29.45 0.6 L30.15 0.65 29.6 0.9 Q27.25 2.3 24.55 2.25 L23.6 1.8 21.75 0.35 20.55 -1.05 19.55 -4.95 19.55 -3.2 19.4 -1.2 18.75 3.05 18.45 4.15 Q17.75 6.85 16.45 9.35 L17.2 6.3 17.4 5.1 Q17.8 2.1 17.4 -0.8 L17.35 -2.0 Q17.05 -5.1 14.9 -7.3 L15.15 -7.65 15.7 -7.9 11.75 -10.45 14.2 -10.45 Q13.1 -12.4 11.35 -13.65 9.25 -15.1 6.95 -15.75 L6.25 -15.95 Q8.9 -15.7 11.4 -14.75 L12.0 -14.55 10.7 -15.6 15.6 -12.6 Q17.5 -10.5 18.2 -7.65 L19.0 -4.75 18.55 -8.4 18.85 -10.9 19.3 -8.95 20.0 -5.65 20.45 -4.25 Q21.1 -2.45 22.35 -0.95 24.45 1.6 27.6 1.4 28.8 1.45 29.45 0.6 M24.05 13.5 Q21.75 13.05 21.05 12.0 22.75 13.3 22.9 12.85 22.25 12.45 22.55 12.45 L23.5 12.6 24.05 13.5 M21.0 11.9 Q21.85 16.45 27.15 17.75 L23.75 17.55 25.1 19.85 25.05 19.85 Q22.55 17.95 20.9 15.1 21.25 17.05 22.85 18.7 20.7 18.05 18.7 16.45 16.7 14.85 17.6 11.3 L18.95 8.75 20.0 6.35 19.65 8.25 Q19.35 10.05 19.6 10.4 L19.7 10.35 19.7 11.6 20.65 11.65 21.0 11.9 M6.2 -6.35 L5.0 -5.9 Q3.85 -5.35 2.65 -5.05 0.45 -3.55 -0.95 -4.25 L-2.9 -5.15 -3.7 -5.55 -5.1 -6.0 -9.05 -6.9 -10.05 -7.05 -9.4 -7.25 -6.55 -7.75 Q-1.75 -6.4 -0.05 -5.5 L0.0 -5.45 0.05 -5.45 0.05 -5.5 Q1.75 -6.4 6.55 -7.75 L9.4 -7.25 10.05 -7.05 6.2 -6.35 M-17.4 -0.8 L-17.25 4.15 -17.2 6.3 -16.4 9.4 -16.9 7.75 -17.6 5.25 Q-18.3 2.95 -18.3 1.25 L-18.2 0.15 -18.1 -1.6 -18.0 -2.25 -18.1 -2.5 -18.15 -2.5 -18.85 0.1 -18.95 0.95 Q-19.45 -0.9 -19.15 -3.0 L-18.7 -5.3 -17.85 -8.2 Q-17.1 -10.5 -15.6 -12.6 L-10.7 -15.6 -12.0 -14.55 -11.2 -14.95 Q-9.05 -15.75 -6.8 -15.9 L-6.2 -15.95 -6.25 -15.9 Q-9.15 -15.4 -11.45 -13.5 L-14.2 -10.45 -12.0 -10.3 -12.9 -9.75 -15.65 -7.9 -14.9 -7.3 Q-16.85 -5.55 -17.25 -3.0 L-17.4 -0.8 M-25.1 19.85 L-23.75 17.55 -27.15 17.75 Q-21.85 16.45 -21.0 11.9 -19.9 11.3 -19.5 10.1 L-19.9 4.85 -19.45 7.3 Q-18.85 9.45 -17.6 11.3 -17.4 13.55 -19.5 15.9 -21.0 17.55 -22.45 18.3 L-20.9 15.1 -25.05 19.85 -25.1 19.85 M-24.55 2.5 L-24.25 2.45 -24.65 2.95 -24.55 2.5 M-24.05 2.35 L-24.15 2.3 -24.45 2.25 -23.9 -0.1 -30.1 0.05 Q-27.9 1.05 -24.75 -0.9 -27.1 0.05 -28.0 -0.65 -26.55 -0.4 -23.9 -3.1 -21.9 -4.9 -20.2 -7.35 -19.1 -8.9 -18.85 -10.9 L-18.55 -8.4 -18.7 -7.0 -18.7 -7.6 Q-19.9 -1.3 -21.9 0.6 L-21.65 -0.15 -24.05 2.35 M-23.5 -13.35 L-18.3 -17.6 Q-16.15 -18.85 -12.9 -20.1 L-12.8 -20.15 -9.25 -19.8 Q-12.55 -20.2 -14.9 -17.25 -17.3 -14.3 -23.5 -13.35 M-9.0 -21.45 Q-10.6 -21.9 -11.9 -22.5 L-11.2 -22.65 -7.4 -23.05 -7.2 -23.1 -7.2 -23.15 -5.4 -23.15 -6.45 -22.45 -5.25 -22.6 -6.1 -22.35 Q-4.3 -22.5 -3.05 -20.85 L-2.05 -18.8 -1.75 -19.45 Q-0.8 -22.1 -3.45 -23.1 L-3.3 -23.7 Q-3.3 -24.4 -2.15 -23.35 L-1.05 -22.45 -0.85 -22.35 0.0 -21.7 0.05 -21.6 0.05 -21.25 0.2 -21.45 0.6 -21.85 0.45 -20.85 Q0.1 -19.4 0.3 -19.1 L1.6 -19.8 2.45 -19.9 8.25 -21.05 2.75 -19.7 1.85 -18.95 1.5 -18.4 1.15 -17.3 1.9 -16.7 2.3 -15.25 5.7 -13.4 3.95 -13.2 Q2.1 -13.2 1.05 -12.1 0.3 -11.45 2.1 -11.0 L4.45 -10.55 1.75 -9.75 Q1.2 -9.6 0.2 -7.9 L-0.15 -8.7 Q-0.7 -9.75 -1.35 -10.05 L-4.05 -10.5 -3.05 -10.75 -1.45 -11.3 Q-0.5 -12.05 -1.8 -12.45 -2.6 -13.0 -3.95 -13.2 L-5.7 -13.4 -2.3 -15.25 -2.25 -15.75 -2.3 -16.1 -2.8 -16.8 -4.05 -18.2 -3.35 -17.75 -2.55 -17.6 Q-2.65 -18.6 -4.15 -19.9 -5.65 -21.3 -9.0 -21.45 M0.35 -15.05 L0.4 -15.2 -0.05 -16.6 0.2 -17.85 -0.35 -18.4 -0.45 -19.1 -0.55 -18.5 -2.1 -18.4 -1.25 -17.65 Q-0.65 -17.25 -0.75 -16.2 L-1.2 -15.1 Q0.0 -13.75 -0.65 -12.25 L-0.25 -11.45 0.0 -10.7 0.1 -11.15 Q0.5 -13.1 0.35 -15.05 M12.15 -6.05 L13.25 -4.95 12.95 -5.2 12.15 -6.05 M18.5 11.35 L18.4 12.5 Q18.95 15.1 20.45 15.1 L19.1 12.2 18.5 11.35 M-12.95 -5.2 L-13.25 -4.95 -12.15 -6.05 -12.95 -5.2 M-18.65 10.0 L-19.2 12.15 Q-19.45 14.25 -20.45 15.1 L-19.5 14.8 Q-18.75 14.35 -18.4 12.9 -18.25 11.5 -18.65 10.0" fill="#adadad" fill-rule="evenodd" stroke="none"/>
      <path d="M31.65 -1.25 L31.9 -1.15 30.9 -0.25 31.65 -1.25 M24.95 9.35 L25.3 10.05 24.5 9.3 24.95 9.35 M28.9 13.3 L29.1 13.35 29.5 13.8 28.9 13.3 M-29.5 13.8 L-29.1 13.35 -28.9 13.3 -29.5 13.8 M-25.3 10.05 L-24.95 9.35 -24.65 9.35 -24.5 9.35 -24.85 9.65 -24.95 9.75 -25.3 10.05 M-30.9 -0.25 L-31.9 -1.15 -31.65 -1.25 -31.4 -0.95 -31.35 -0.9 -30.9 -0.25" fill="#999999" fill-rule="evenodd" stroke="none"/>
      <path d="M14.3 -2.95 Q13.5 -4.6 11.55 -5.55 9.45 -6.65 6.2 -6.35 L10.05 -7.05 12.15 -6.05 12.95 -5.2 13.7 -4.25 14.3 -2.95 M2.65 -5.05 L0.0 -2.55 -2.9 -5.15 -0.95 -4.25 Q0.45 -3.55 2.65 -5.05 M-5.1 -6.0 L-10.6 -5.85 Q-13.2 -4.9 -14.55 -2.45 L-13.7 -4.25 -12.95 -5.2 -12.15 -6.05 -11.15 -6.6 -10.05 -7.05 -9.05 -6.9 -5.1 -6.0" fill="#5d5d5d" fill-rule="evenodd" stroke="none"/>
      <path d="M12.9 -20.1 L11.15 -20.75 7.95 -20.8 9.8 -21.95 13.15 -22.05 9.2 -22.7 9.05 -22.75 4.95 -22.9 4.0 -22.8 2.95 -22.65 2.9 -22.65 2.7 -22.65 2.95 -22.65 3.5 -22.6 Q1.3 -22.7 0.2 -21.45 L0.05 -21.25 0.05 -21.6 0.0 -21.7 Q-1.4 -23.2 -5.5 -23.1 L-9.05 -22.75 -9.2 -22.7 -10.2 -22.25 -10.15 -22.2 -9.8 -21.95 -7.95 -20.8 -11.15 -20.75 -12.9 -20.1 Q-16.15 -18.85 -18.3 -17.6 L-19.45 -16.9 Q-16.25 -20.0 -12.0 -21.1 -14.8 -21.95 -17.65 -20.75 -11.05 -24.4 -6.05 -24.0 L-7.1 -24.55 Q-9.6 -25.8 -10.65 -24.4 -10.2 -25.6 -6.65 -25.6 -4.15 -25.6 -0.45 -23.65 L0.05 -23.5 0.05 -23.45 0.2 -23.5 Q4.0 -25.6 6.65 -25.6 10.2 -25.6 10.65 -24.4 9.6 -25.8 7.1 -24.55 L6.05 -24.0 Q11.05 -24.4 17.65 -20.75 14.8 -21.95 12.0 -21.1 16.25 -20.0 19.45 -16.9 L18.3 -17.6 Q16.15 -18.85 12.9 -20.1 M16.05 -15.8 Q16.4 -15.8 17.15 -15.1 18.4 -13.9 21.85 -12.3 L22.1 -12.2 22.75 -12.15 24.65 -12.25 24.75 -12.3 Q25.6 -11.45 28.1 -10.1 L22.45 -11.75 22.7 -11.65 25.3 -10.65 Q25.55 -10.8 25.55 -10.55 L25.55 -10.45 25.5 -10.5 Q23.9 -10.45 21.55 -11.25 L21.05 -11.4 19.45 -12.05 18.7 -12.4 18.1 -12.7 Q17.1 -13.2 16.5 -13.65 15.5 -14.45 15.6 -15.1 15.65 -15.75 16.0 -15.8 L16.05 -15.8 M20.4 -15.5 L19.75 -16.55 Q22.75 -13.9 26.55 -13.2 L27.75 -12.9 24.5 -12.7 Q22.05 -13.4 20.4 -15.5 M22.05 -10.95 L25.2 -8.15 Q27.9 -6.1 30.65 -5.55 L28.7 -5.1 Q27.2 -5.1 25.75 -6.0 30.45 -2.05 35.55 -2.45 32.8 0.8 31.0 1.4 L26.4 2.45 25.8 2.55 25.65 2.55 25.7 2.55 25.8 2.6 Q26.3 2.8 26.4 3.55 L27.3 5.25 Q28.15 7.35 31.25 8.5 L30.45 8.95 29.85 9.0 Q28.8 9.0 27.9 8.2 27.05 7.45 26.3 6.0 L25.1 3.0 Q25.1 2.65 25.25 2.55 L24.25 2.45 24.15 2.45 23.9 2.35 24.05 2.35 24.15 2.3 Q28.55 1.4 30.9 -0.25 L31.9 -1.15 31.65 -1.25 30.8 -1.7 29.8 -2.25 Q28.55 -3.0 27.4 -3.95 26.1 -5.0 24.95 -6.35 L24.25 -7.1 24.05 -7.3 23.85 -7.45 Q22.05 -9.2 21.95 -10.45 L21.95 -10.6 22.05 -10.95 M31.8 9.1 Q29.3 10.4 27.55 9.7 L26.7 9.2 Q25.7 8.3 25.35 6.55 L25.55 5.75 26.0 6.55 Q26.9 7.95 28.15 8.6 L32.75 8.75 31.8 9.1 M24.95 9.35 L24.6 8.65 25.25 9.4 Q28.25 12.75 31.25 13.95 L26.15 14.9 28.1 17.9 25.35 18.05 27.2 17.75 27.15 17.75 Q21.85 16.45 21.0 11.9 L20.95 11.8 21.05 12.0 Q21.75 13.05 24.05 13.5 L29.5 13.8 29.95 13.75 29.1 13.35 28.9 13.3 Q26.55 12.05 25.3 10.05 L24.95 9.35 M20.25 21.4 L18.45 20.85 Q17.4 20.7 16.55 20.0 L16.95 20.9 17.7 22.35 17.7 22.4 Q16.3 21.4 15.6 20.0 L15.15 18.95 14.85 26.2 11.6 23.05 13.8 24.7 13.85 24.75 13.95 23.1 13.95 22.7 Q14.15 20.7 14.5 18.8 L14.95 16.15 15.15 16.45 Q16.2 18.05 17.75 19.1 L18.2 19.35 19.5 20.05 Q21.95 21.2 24.75 21.25 L25.8 21.2 25.85 21.2 24.0 17.65 26.95 21.55 23.4 21.7 20.25 21.4 M-21.55 -12.6 L-21.1 -12.8 Q-19.2 -13.6 -18.0 -14.4 -19.05 -12.2 -19.45 -12.05 L-21.05 -11.4 -21.55 -11.25 Q-23.9 -10.45 -25.5 -10.5 L-25.55 -10.45 -25.55 -10.55 Q-25.55 -10.8 -25.3 -10.65 L-22.7 -11.65 -22.45 -11.75 -28.1 -10.1 Q-25.5 -11.7 -24.25 -12.8 L-21.65 -14.95 Q-20.9 -14.5 -25.0 -11.45 L-21.55 -12.6 M10.55 23.45 L11.1 22.4 11.7 25.45 8.55 21.85 10.55 23.45 M-30.9 -0.25 Q-28.55 1.4 -24.15 2.3 L-24.05 2.35 -23.9 2.35 -24.15 2.45 -24.25 2.45 -25.25 2.55 Q-25.1 2.65 -25.1 3.0 L-26.3 6.0 Q-27.05 7.45 -27.9 8.2 -28.8 9.0 -29.85 9.0 L-30.45 8.95 -31.25 8.5 Q-28.15 7.35 -27.3 5.25 L-26.4 3.55 Q-26.3 2.8 -25.8 2.6 L-25.7 2.55 -25.8 2.55 -26.4 2.45 -31.0 1.4 Q-32.8 0.8 -35.55 -2.45 -30.45 -2.05 -25.75 -6.0 -27.2 -5.1 -28.7 -5.1 L-30.65 -5.55 Q-27.9 -6.1 -25.2 -8.15 L-22.05 -10.95 -21.95 -10.6 -21.95 -10.45 Q-22.05 -9.2 -23.85 -7.45 L-24.05 -7.3 -24.25 -7.1 -24.95 -6.35 Q-26.1 -5.0 -27.4 -3.95 -28.55 -3.0 -29.8 -2.25 L-30.8 -1.7 -31.65 -1.25 -31.9 -1.15 -30.9 -0.25 M-15.15 16.45 L-14.95 16.15 -14.5 18.8 Q-14.15 20.7 -13.95 22.7 L-13.95 23.1 -13.85 24.75 -13.8 24.7 -11.6 23.05 -14.85 26.2 -15.15 18.95 -15.6 20.0 Q-16.3 21.4 -17.7 22.4 L-17.7 22.35 -16.95 20.9 -16.55 20.0 Q-17.4 20.7 -18.45 20.85 L-20.25 21.4 -23.4 21.7 -26.95 21.55 -24.0 17.65 -25.85 21.2 -25.8 21.2 -24.75 21.25 Q-21.95 21.2 -19.5 20.05 L-18.2 19.35 -17.75 19.1 Q-16.2 18.05 -15.15 16.45 M-11.05 22.55 L-10.55 23.45 -8.55 21.85 -11.7 25.45 -11.1 22.4 -11.05 22.55 M-25.25 9.4 L-24.6 8.65 -24.95 9.35 -25.3 10.05 Q-26.55 12.05 -28.9 13.3 L-29.1 13.35 -29.95 13.75 -29.5 13.8 -24.05 13.5 Q-21.75 13.05 -21.05 12.0 L-21.0 11.9 Q-21.85 16.45 -27.15 17.75 L-27.2 17.75 -25.35 18.05 -28.1 17.9 -26.15 14.9 -31.25 13.95 Q-28.25 12.75 -25.25 9.4 M-25.55 5.75 L-25.5 6.05 -25.35 6.55 Q-25.7 8.3 -26.7 9.2 L-27.55 9.7 Q-29.3 10.4 -31.8 9.1 L-32.75 8.75 -28.15 8.6 Q-26.9 7.95 -26.0 6.55 L-25.55 5.75" fill="#2f2f2d" fill-rule="evenodd" stroke="none"/>
    </g>
  </defs>
</svg>
