<?xml version="1.0" encoding="UTF-8" standalone="no"?>
<svg xmlns:ffdec="https://www.free-decompiler.com/flash" xmlns:xlink="http://www.w3.org/1999/xlink" ffdec:objectType="frame" height="53.0px" width="67.95px" xmlns="http://www.w3.org/2000/svg">
  <g transform="matrix(1.0, 0.0, 0.0, 1.0, 33.85, 35.2)">
    <use ffdec:characterId="2" height="49.85" transform="matrix(0.9543, 0.0, 0.0, 0.8809, -33.85, -35.2)" width="37.4" xlink:href="#sprite0"/>
    <use ffdec:characterId="4" height="48.25" transform="matrix(0.9543, 0.0, 0.0, 0.9894, -23.2, -11.9)" width="19.35" xlink:href="#sprite1"/>
    <use ffdec:characterId="2" height="49.85" transform="matrix(-0.9543, 0.0, 0.0, 0.8809, 34.1, -35.2)" width="37.4" xlink:href="#sprite0"/>
    <use ffdec:characterId="6" height="34.6" transform="matrix(1.0, 0.0, 0.0, 1.0, -18.95, -29.1)" width="38.05" xlink:href="#sprite2"/>
    <use ffdec:characterId="4" height="48.25" transform="matrix(-0.9543, 0.0, 0.0, 0.9894, 23.45, -11.9)" width="19.35" xlink:href="#sprite1"/>
  </g>
  <defs>
    <g id="sprite0">
      <use ffdec:characterId="1" height="49.85" transform="matrix(1.0, 0.0, 0.0, 1.0, 0.0, 0.0)" width="37.4" xlink:href="#shape0"/>
    </g>
    <g id="shape0">
      <path d="M20.9 7.05 Q23.85 5.6 26.75 7.0 23.4 7.15 21.0 9.3 19.35 10.75 17.75 17.35 L17.4 18.45 16.7 19.7 14.95 18.55 14.35 18.85 13.85 18.5 Q9.45 20.5 4.7 19.95 L7.6 18.35 Q12.3 15.65 15.8 11.3 L20.9 7.05" fill="#5a5a5a" fill-rule="evenodd" stroke="none"/>
      <path d="M33.8 5.0 L35.95 7.5 Q25.35 6.95 19.35 14.65 L21.05 14.15 21.2 14.7 Q18.25 18.75 17.55 23.7 L17.5 24.1 17.35 37.7 17.2 38.75 Q16.3 43.05 12.85 45.6 L11.75 46.5 11.3 46.0 Q13.45 41.2 13.85 35.85 14.25 30.25 15.2 24.8 L15.55 22.3 8.3 29.35 Q9.7 25.05 12.35 21.15 L13.35 19.75 Q9.0 21.8 4.65 20.6 L3.0 20.0 Q9.55 17.35 14.55 12.5 L15.8 11.3 Q12.3 15.65 7.6 18.35 L4.7 19.95 Q9.45 20.5 13.85 18.5 L14.35 18.85 14.95 18.55 16.7 19.7 17.4 18.45 17.75 17.35 Q19.35 10.75 21.0 9.3 23.4 7.15 26.75 7.0 23.85 5.6 20.9 7.05 L22.05 6.15 Q25.35 3.85 29.4 3.85 32.15 3.85 33.8 5.0" fill="#363636" fill-rule="evenodd" stroke="none"/>
      <path d="M8.3 29.35 L15.55 22.3 15.2 24.8 Q14.25 30.25 13.85 35.85 13.45 41.2 11.3 46.0 L11.75 46.5 12.85 45.6 Q16.3 43.05 17.2 38.75 L17.35 37.7 17.5 24.1 17.55 23.7 Q18.25 18.75 21.2 14.7 L21.6 14.35 Q21.05 16.75 22.4 18.5 20.3 22.65 19.85 27.15 19.35 32.25 19.75 36.1 20.15 39.95 18.7 44.3 17.2 48.6 9.55 49.0 10.35 45.8 9.95 42.3 9.5 38.85 9.8 30.55 L6.75 33.1 6.25 33.0 6.5 32.2 Q7.1 30.45 8.3 29.35" fill="#15181e" fill-rule="evenodd" stroke="none"/>
      <path d="M21.2 14.7 L21.05 14.15 19.35 14.65 Q25.35 6.95 35.95 7.5 L33.8 5.0 Q31.6 2.35 29.75 1.8 28.1 0.4 30.25 1.75 L29.9 0.95 32.45 0.5 33.9 1.7 33.15 1.9 37.0 2.95 Q37.9 5.75 36.7 8.8 28.5 12.15 22.4 18.5 21.05 16.75 21.6 14.35 L21.2 14.7" fill="#222227" fill-rule="evenodd" stroke="none"/>
      <path d="M33.8 5.0 Q32.15 3.85 29.4 3.85 25.35 3.85 22.05 6.15 L20.9 7.05 15.8 11.3 14.55 12.5 Q9.55 17.35 3.0 20.0 L4.65 20.6 Q9.0 21.8 13.35 19.75 L12.35 21.15 Q9.7 25.05 8.3 29.35 7.1 30.45 6.5 32.2 L6.25 33.0 5.9 32.9 Q6.5 27.35 9.6 22.8 4.6 24.0 0.85 20.3 8.3 17.5 13.75 11.85 L14.45 11.9 Q18.5 5.05 25.8 2.6 27.75 1.95 29.75 1.8 31.6 2.35 33.8 5.0" fill="#3f3f3f" fill-rule="evenodd" stroke="none"/>
      <path d="M0.0 19.1 L0.4 18.6 Q5.25 19.5 8.4 15.75 L15.7 7.65 Q20.8 2.1 27.9 0.3 33.5 -0.95 37.3 3.1 L36.6 3.1 Q32.45 1.3 28.1 2.2 20.8 3.65 16.3 9.7 10.65 17.3 1.75 19.85 6.1 23.9 11.1 21.05 L11.65 21.7 Q6.85 26.25 6.4 32.7 L10.7 29.45 Q9.4 33.0 10.15 36.85 11.4 42.85 9.7 48.45 L10.8 48.6 Q16.4 48.6 19.15 43.4 19.55 45.1 17.95 46.85 13.25 51.8 7.05 48.6 L7.3 48.25 8.05 47.95 Q10.6 46.85 9.9 43.9 8.3 37.45 9.15 31.0 L5.7 35.0 Q4.75 28.8 8.2 23.75 L6.45 23.55 Q2.3 22.95 0.25 19.85 L0.0 19.1" fill="#000000" fill-rule="evenodd" stroke="none"/>
    </g>
    <g id="sprite1">
      <use ffdec:characterId="3" height="48.25" transform="matrix(1.0, 0.0, 0.0, 1.0, 0.0, 0.0)" width="19.35" xlink:href="#shape1"/>
    </g>
    <g id="shape1">
      <path d="M1.45 13.0 L1.05 10.0 0.9 8.55 Q0.5 8.05 0.3 6.8 0.15 5.7 1.05 1.25 1.95 -3.25 4.15 -7.25 6.35 -11.25 9.65 -14.7 12.9 -18.2 16.7 -18.2 L19.0 -17.7 19.65 -16.95 19.55 -16.65 Q13.7 -16.35 8.7 -11.3 L6.0 -7.8 Q4.25 -5.5 3.3 -1.65 2.3 2.2 2.65 4.65 L4.05 5.45 5.2 5.9 6.8 2.75 7.8 2.5 8.15 2.15 8.25 7.15 8.25 9.05 7.6 10.8 Q4.15 7.85 2.7 11.85 L2.95 14.4 1.85 13.2 1.45 13.0" fill="#5a5a5a" fill-rule="evenodd" stroke="none"/>
      <path d="M8.25 7.15 L8.15 2.15 7.8 2.5 6.8 2.75 5.2 5.9 4.05 5.45 2.65 4.65 Q2.3 2.2 3.3 -1.65 4.25 -5.5 6.0 -7.8 L8.7 -11.3 8.85 -11.4 Q10.65 -12.6 12.45 -12.6 L11.1 -9.8 Q10.25 -8.35 9.35 -5.3 8.45 -2.3 8.6 0.55 L8.55 6.75 8.25 7.15" fill="#363636" fill-rule="evenodd" stroke="none"/>
      <path d="M2.85 19.15 L3.9 16.9 Q5.4 16.05 7.1 16.7 L9.0 17.7 9.65 21.2 Q10.4 24.85 10.4 28.55 L9.8 28.4 Q10.75 25.4 9.05 22.75 L8.65 22.1 8.5 22.35 8.3 23.5 Q8.0 21.2 6.7 19.25 L6.25 19.2 Q5.25 20.55 5.75 23.7 L9.2 28.15 Q7.9 27.5 7.1 26.2 L4.85 22.9 Q3.55 21.15 2.85 19.15" fill="#222227" fill-rule="evenodd" stroke="none"/>
      <path d="M1.45 13.0 L1.85 13.2 2.95 14.4 2.7 11.85 Q4.15 7.85 7.6 10.8 L8.25 9.05 9.0 17.7 7.1 16.7 Q5.4 16.05 3.9 16.9 L2.85 19.15 2.15 18.65 2.15 17.95 Q2.05 15.4 1.45 13.0" fill="#15181e" fill-rule="evenodd" stroke="none"/>
      <path d="M9.2 28.15 L5.75 23.7 Q5.25 20.55 6.25 19.2 L6.7 19.25 Q8.0 21.2 8.3 23.5 L8.5 22.35 8.65 22.1 9.05 22.75 Q10.75 25.4 9.8 28.4 L9.45 28.35 9.2 28.15" fill="#3f3f3f" fill-rule="evenodd" stroke="none"/>
      <path d="M8.45 0.0 L8.75 0.35 8.85 11.15 Q9.1 20.7 11.55 30.05 9.35 29.15 7.55 27.4 4.05 23.8 2.25 18.85 -0.45 11.4 0.55 3.4 L0.55 4.95 Q0.7 10.9 2.7 16.45 5.2 23.1 10.0 28.0 L9.0 24.0 Q7.75 18.45 7.45 12.7 7.1 6.4 8.45 0.0" fill="#000000" fill-rule="evenodd" stroke="none"/>
    </g>
    <g id="sprite2">
      <use ffdec:characterId="5" height="34.6" transform="matrix(1.0, 0.0, 0.0, 1.0, 0.0, 0.0)" width="38.05" xlink:href="#shape2"/>
    </g>
    <g id="shape2">
      <path d="M2.15 12.75 Q2.1 10.85 3.65 8.1 5.15 5.35 7.55 3.55 9.85 1.75 12.65 0.9 15.4 0.0 18.2 0.0 L23.9 0.4 Q26.55 0.75 28.85 2.05 31.05 3.3 32.7 5.4 34.3 7.45 35.4 9.95 L34.95 9.95 34.75 9.75 Q37.0 15.85 32.0 12.65 26.9 9.45 25.15 6.7 23.35 3.95 21.05 2.85 L21.25 3.8 Q23.5 5.25 25.0 7.4 26.15 9.1 26.8 11.15 L27.6 14.6 26.65 12.45 22.65 11.4 21.6 11.05 22.95 15.6 21.75 15.5 21.35 14.35 Q20.55 12.1 18.8 10.4 L17.9 10.75 17.55 11.5 Q16.45 13.4 14.3 14.0 10.8 14.9 8.0 12.8 L8.0 13.55 Q8.0 14.55 8.5 15.6 L7.6 15.1 7.25 13.85 6.2 16.2 6.25 15.9 7.35 12.7 5.15 12.0 4.35 12.4 4.5 11.05 3.85 10.9 2.15 12.75" fill="#363636" fill-rule="evenodd" stroke="none"/>
      <path d="M6.25 15.9 L6.2 16.2 3.9 25.1 3.9 24.9 3.9 24.3 4.35 21.75 4.3 21.15 Q4.15 20.55 3.45 20.55 2.05 20.55 1.65 21.3 1.5 21.55 1.5 22.4 L1.8 24.3 Q0.15 20.3 1.4 15.85 L1.65 15.9 2.3 16.65 4.95 17.45 5.4 16.55 Q5.75 15.15 6.25 15.9 M7.6 15.1 L8.5 15.6 10.55 17.4 11.1 17.3 Q12.1 16.35 13.05 16.5 17.6 17.25 21.75 15.5 L22.95 15.6 26.3 16.3 27.55 14.85 27.6 14.75 27.6 14.6 26.8 11.15 Q26.15 9.1 25.0 7.4 23.5 5.25 21.25 3.8 L21.05 2.85 Q23.35 3.95 25.15 6.7 26.9 9.45 32.0 12.65 37.0 15.85 34.75 9.75 L34.95 9.95 35.4 9.95 Q37.9 16.05 37.2 22.75 36.7 27.1 34.3 29.35 L34.15 29.1 34.1 28.7 34.05 28.1 34.2 27.45 29.6 16.6 29.65 19.55 Q29.7 24.0 27.8 27.95 L27.25 27.95 Q28.35 27.7 28.95 24.15 L29.4 20.2 Q29.4 18.6 26.7 18.95 24.85 19.2 24.3 19.65 L23.7 18.5 23.75 20.4 23.55 20.35 23.4 20.6 23.3 20.75 23.45 22.8 Q23.3 21.6 22.95 21.1 21.65 19.2 16.75 19.25 14.05 19.5 12.25 20.5 10.75 21.3 10.55 22.3 8.85 18.7 7.6 15.1" fill="#15181e" fill-rule="evenodd" stroke="none"/>
      <path d="M2.15 12.75 L3.85 10.9 4.5 11.05 4.35 12.4 5.15 12.0 7.35 12.7 6.25 15.9 Q5.75 15.15 5.4 16.55 L4.95 17.45 2.3 16.65 1.65 15.9 1.5 15.3 2.15 12.75 M8.5 15.6 Q8.0 14.55 8.0 13.55 L8.0 12.8 Q10.8 14.9 14.3 14.0 16.45 13.4 17.55 11.5 L17.9 10.75 18.8 10.4 Q20.55 12.1 21.35 14.35 L21.75 15.5 Q17.6 17.25 13.05 16.5 12.1 16.35 11.1 17.3 L10.55 17.4 8.5 15.6 M22.95 15.6 L21.6 11.05 22.65 11.4 26.65 12.45 27.6 14.6 27.6 14.75 27.55 14.85 26.3 16.3 22.95 15.6" fill="#5a5a5a" fill-rule="evenodd" stroke="none"/>
      <path d="M27.25 27.95 L27.1 27.95 Q26.4 27.95 26.5 27.15 L26.6 26.85 27.05 27.6 Q29.6 24.45 28.75 22.6 27.85 20.75 27.15 20.35 26.4 22.95 26.25 24.8 L25.9 24.0 Q24.0 20.6 24.0 20.05 24.0 19.8 24.3 19.65 24.85 19.2 26.7 18.95 29.4 18.6 29.4 20.2 L28.95 24.15 Q28.35 27.7 27.25 27.95 M23.45 22.8 L23.6 25.75 23.05 29.15 Q22.35 32.4 21.6 32.4 L21.4 32.2 21.3 32.05 21.15 31.9 21.8 32.05 Q24.2 26.05 20.1 22.55 21.35 25.55 20.55 27.25 L18.1 25.05 20.0 30.5 19.8 30.25 17.5 27.55 17.8 28.65 18.3 31.45 18.3 31.6 18.25 32.0 18.1 32.25 17.8 32.3 17.25 31.9 17.9 32.1 Q17.65 27.1 15.4 27.35 L13.9 25.55 Q13.85 26.2 14.6 27.85 15.35 29.85 16.75 31.45 L15.75 30.35 13.3 27.45 Q10.5 23.15 10.5 22.6 L10.55 22.3 Q10.75 21.3 12.25 20.5 14.05 19.5 16.75 19.25 21.65 19.2 22.95 21.1 23.3 21.6 23.45 22.8 M1.8 24.3 L1.5 22.4 Q1.5 21.55 1.65 21.3 2.05 20.55 3.45 20.55 4.15 20.55 4.3 21.15 L4.35 21.75 3.9 24.3 3.35 21.5 2.15 23.25 Q2.15 24.35 2.5 26.25 2.1 25.7 1.85 24.65 L1.8 24.3" fill="#222227" fill-rule="evenodd" stroke="none"/>
      <path d="M26.6 26.85 L26.25 24.8 Q26.4 22.95 27.15 20.35 27.85 20.75 28.75 22.6 29.6 24.45 27.05 27.6 L26.6 26.85 M21.15 31.9 L20.0 30.5 18.1 25.05 20.55 27.25 Q21.35 25.55 20.1 22.55 24.2 26.05 21.8 32.05 L21.15 31.9 M17.25 31.9 L16.75 31.45 Q15.35 29.85 14.6 27.85 13.85 26.2 13.9 25.55 L15.4 27.35 Q17.65 27.1 17.9 32.1 L17.25 31.9 M3.9 24.3 L3.9 24.9 3.8 26.35 3.4 27.05 2.9 26.7 2.5 26.25 Q2.15 24.35 2.15 23.25 L3.35 21.5 3.9 24.3" fill="#3f3f3f" fill-rule="evenodd" stroke="none"/>
      <path d="M1.65 15.9 L1.4 15.85 1.5 15.3 1.65 15.9" fill="#e4e6e8" fill-rule="evenodd" stroke="none"/>
      <path d="M21.4 32.2 L21.35 32.2 21.3 32.05 21.4 32.2 M17.8 28.65 L17.9 29.0 Q18.35 30.15 18.3 31.45 L17.8 28.65 M18.25 32.0 L18.2 32.3 18.1 32.25 18.25 32.0" fill="#bec1c4" fill-rule="evenodd" stroke="none"/>
      <path d="M3.9 24.9 L3.9 25.1 3.9 25.85 3.8 26.35 3.9 24.9" fill="#ced0d3" fill-rule="evenodd" stroke="none"/>
      <path d="M35.35 9.55 Q37.75 12.3 38.0 16.15 38.25 20.0 37.55 23.25 36.85 26.45 35.55 28.75 34.15 31.05 34.2 30.55 33.0 26.2 31.6 22.95 30.25 19.7 29.85 18.35 30.15 23.55 27.65 28.15 L26.15 30.75 25.55 30.35 Q26.45 26.65 24.7 23.3 L23.45 21.1 Q24.25 26.6 22.35 31.75 L21.25 34.6 17.95 28.85 Q18.9 31.45 18.35 34.35 13.75 29.5 10.05 23.8 7.75 20.15 6.7 16.0 4.35 21.25 4.15 26.95 L4.15 28.55 Q-0.1 25.8 0.0 19.8 0.05 14.3 2.65 9.45 3.8 7.25 5.65 5.3 L2.8 10.85 Q1.05 16.15 1.95 21.8 2.35 24.3 3.2 26.8 4.5 19.2 6.8 11.85 L7.4 9.65 Q8.1 14.55 9.8 19.05 11.5 23.3 13.9 27.0 15.5 29.5 17.6 31.75 15.95 26.4 13.3 21.6 L12.5 20.2 Q17.0 24.05 19.9 29.05 L21.35 31.75 Q23.4 26.7 22.3 21.0 21.45 16.85 19.75 12.8 L18.05 9.35 18.15 8.7 18.95 8.85 Q21.7 12.45 23.55 16.5 25.3 20.45 26.35 24.7 L26.95 27.05 Q29.3 22.35 28.25 17.2 27.1 11.75 24.0 7.25 22.3 4.9 20.25 2.85 L20.8 2.6 Q25.0 5.9 27.7 10.5 30.2 14.65 31.4 18.4 L32.85 23.05 34.65 28.9 Q35.65 25.5 36.2 21.85 36.9 17.75 35.95 13.65 35.45 11.55 34.4 9.5 L35.35 9.55" fill="#000000" fill-rule="evenodd" stroke="none"/>
    </g>
  </defs>
</svg>
