<?xml version="1.0" encoding="UTF-8" standalone="no"?>
<svg xmlns:ffdec="https://www.free-decompiler.com/flash" xmlns:xlink="http://www.w3.org/1999/xlink" ffdec:objectType="frame" height="57.05px" width="55.05px" xmlns="http://www.w3.org/2000/svg">
  <g transform="matrix(1.0, 0.0, 0.0, 1.0, 27.9, 40.75)">
    <use ffdec:characterId="5" height="57.05" transform="matrix(1.0, 0.0, 0.0, 1.0, -0.35, -12.2)" width="55.05" xlink:href="#sprite0"/>
  </g>
  <defs>
    <g id="sprite0">
      <use ffdec:characterId="4" height="57.05" transform="matrix(1.0, 0.0, 0.0, 1.0, 0.0, 0.0)" width="55.05" xlink:href="#shape0"/>
    </g>
    <g id="shape0">
      <path d="M11.3 -15.0 L15.15 -12.3 Q15.6 -11.85 16.25 -10.4 L16.15 -10.05 12.6 -10.65 10.0 -12.7 10.2 -12.45 11.5 -10.1 Q12.25 -8.5 12.25 -7.6 12.25 -6.95 11.75 -6.5 11.35 -6.15 10.85 -6.15 10.25 -6.15 10.05 -6.45 L9.5 -7.05 11.55 0.05 12.25 2.65 Q14.6 2.1 15.85 -1.0 L16.6 -4.1 15.25 -6.85 16.7 -4.65 17.6 -3.1 Q18.6 -3.1 19.95 0.85 21.4 5.2 21.4 9.7 L21.3 10.85 Q22.2 9.25 23.15 8.15 23.7 7.3 23.7 4.7 L23.0 2.45 21.8 -0.4 23.7 1.8 24.6 2.5 25.5 2.25 25.55 0.95 Q25.55 -3.05 21.8 -7.15 17.4 -11.1 16.2 -12.85 21.1 -9.7 23.95 -5.3 26.8 -0.95 26.8 7.25 25.4 11.9 24.25 13.5 23.1 15.0 21.2 15.0 20.45 15.0 20.0 14.55 19.5 14.1 19.55 13.25 L19.5 12.9 Q18.95 14.75 18.95 15.95 L19.0 16.35 18.35 13.9 19.25 11.4 19.75 9.55 Q19.75 5.4 19.45 3.85 L18.65 1.3 18.35 0.1 14.9 4.6 Q12.05 7.8 10.3 8.3 L11.15 7.2 Q9.1 5.75 9.0 1.65 L9.0 -0.1 9.0 -1.65 8.7 -1.6 Q8.1 -1.6 8.3 0.5 L8.6 3.35 Q8.6 4.85 8.2 6.2 7.6 8.25 5.8 11.25 6.55 9.95 7.1 7.65 L7.85 4.05 Q8.2 -4.25 6.9 -7.75 5.55 -11.45 1.4 -12.8 L2.1 -11.7 Q3.95 -8.1 3.95 -6.1 L3.75 -5.0 3.35 -4.05 2.25 -4.75 Q1.35 -5.45 1.15 -6.7 L1.75 -1.7 2.15 3.05 2.1 5.7 2.2 7.8 Q3.2 4.85 3.2 2.0 L3.7 4.4 2.9 9.55 2.8 9.85 0.75 10.6 -0.65 11.0 Q-1.85 11.0 -3.55 9.4 L-6.05 6.45 -6.25 7.55 Q-6.95 6.7 -7.55 3.85 -8.4 -0.05 -8.4 -4.2 L-8.35 -5.0 -8.65 -5.1 Q-9.85 -2.85 -9.85 0.7 L-9.4 4.55 -8.8 8.05 -10.15 7.35 -11.85 6.15 Q-10.75 7.25 -10.05 8.65 -12.45 7.7 -15.2 4.8 -17.65 2.15 -18.25 0.35 L-19.3 4.9 Q-19.65 6.55 -19.65 8.15 -19.65 8.65 -17.85 10.85 -16.05 13.05 -15.05 13.65 L-17.4 12.95 -17.45 12.9 Q-18.1 14.65 -18.15 17.2 L-20.25 16.8 -19.4 16.5 -19.2 16.0 Q-20.7 15.75 -22.85 13.4 -25.2 10.8 -25.5 8.5 L-26.05 6.8 -26.2 9.75 -25.6 12.05 -24.5 14.6 -24.3 15.9 Q-24.2 16.55 -24.8 16.1 -25.65 14.25 -26.5 8.6 L-26.25 5.7 -25.5 1.55 -25.3 1.85 -24.6 1.95 -23.35 0.65 -21.7 -1.25 -22.7 0.9 Q-23.0 1.95 -23.0 5.6 -22.65 7.35 -21.3 8.95 L-21.35 6.6 Q-21.35 4.5 -19.5 0.1 -17.6 -4.45 -16.5 -4.45 L-15.55 -6.25 Q-14.5 -8.2 -13.55 -8.95 L-13.45 -9.2 Q-15.45 -10.0 -15.45 -10.7 L-14.0 -12.95 -11.55 -15.95 -12.6 -15.95 -10.7 -16.8 -11.5 -17.75 Q-12.05 -18.65 -12.2 -19.95 L-12.1 -20.45 Q-11.15 -18.15 -9.65 -16.45 -6.9 -13.35 -3.15 -13.35 -1.45 -13.35 -1.35 -15.05 -1.3 -16.4 -1.95 -17.2 L1.8 -17.45 11.3 -15.0 M26.75 8.45 Q26.75 11.0 26.05 13.25 25.25 13.9 24.55 14.9 L25.75 11.95 26.75 8.45 M17.6 24.45 L17.75 23.15 17.8 23.5 17.6 24.45 M17.75 15.85 L17.85 14.65 18.35 13.9 17.75 15.85 M17.0 13.55 L15.9 14.15 Q15.55 14.25 14.9 13.8 L14.85 13.4 14.9 13.35 17.0 13.55 M14.9 11.35 Q14.55 11.9 12.9 12.8 L10.5 13.8 14.9 11.35 M4.75 14.6 L4.1 15.3 6.7 11.2 6.15 13.2 4.75 14.6 M2.9 17.0 L1.85 18.35 2.2 17.9 2.9 17.0 M1.3 18.95 L0.5 19.75 0.8 19.3 1.05 19.1 1.1 19.15 1.3 18.95 M-0.1 19.7 L-0.95 18.7 -1.8 17.4 -1.75 17.35 -0.1 19.35 -0.1 19.7 M-4.75 14.55 L-6.0 14.45 -6.05 14.15 -5.05 14.0 -4.75 14.55 M-6.3 14.35 L-9.05 13.45 -14.4 10.7 Q-14.05 10.65 -13.9 10.4 -13.15 11.9 -6.3 14.35 M-15.2 10.35 L-15.3 11.15 -15.85 9.7 -15.65 10.0 -15.2 10.35 M-15.1 11.45 L-14.55 12.3 -14.25 12.95 -15.1 11.45 M-17.3 24.45 Q-18.15 24.75 -17.8 24.75 -17.4 24.75 -17.55 24.9 -17.9 25.0 -18.25 24.65 L-17.3 24.45 M-23.1 18.35 L-24.7 16.35 -23.95 17.0 Q-23.3 17.55 -23.1 18.35 M-20.75 -9.4 Q-16.8 -14.45 -13.15 -15.65 L-15.45 -14.05 Q-17.75 -12.5 -20.75 -9.4 M-12.1 -21.7 L-10.75 -23.8 -9.25 -25.3 -10.1 -23.75 -10.35 -22.85 -9.2 -21.95 -8.3 -22.25 Q-8.05 -23.5 -7.0 -25.05 -5.55 -27.25 -3.7 -27.75 L-3.8 -27.75 -1.5 -28.15 Q-0.9 -28.15 -0.3 -27.65 -1.65 -26.9 -3.15 -24.9 -4.85 -22.6 -4.85 -20.65 L-4.4 -18.35 Q-7.6 -18.35 -9.85 -19.3 -12.1 -20.3 -12.1 -21.7 M20.1 18.05 L19.45 18.2 19.0 16.55 Q19.2 17.6 20.1 18.05 M0.6 0.25 Q0.6 -2.55 0.05 -2.95 L-1.5 -2.9 Q-1.8 -2.9 -2.65 -3.45 -3.8 -4.25 -4.65 -5.5 L-5.45 -2.85 -5.55 -2.2 -5.85 -2.25 Q-5.9 -4.15 -5.55 -6.1 L-5.25 -8.3 Q-5.25 -9.3 -5.5 -9.65 L-6.7 -8.1 Q-7.45 -6.4 -7.45 -2.6 -7.45 3.4 -6.4 3.95 L-4.85 3.25 Q-4.45 5.2 -3.0 6.0 L-1.45 6.45 Q-0.1 6.45 0.35 4.15 L0.6 0.25 M-12.05 -7.3 Q-12.05 -8.1 -10.9 -9.85 L-9.1 -12.45 -9.8 -12.0 Q-11.75 -10.4 -13.9 -6.9 -15.8 -3.75 -15.8 -2.8 L-15.2 0.1 Q-14.35 2.85 -12.8 2.85 L-12.15 2.8 -12.3 2.7 Q-11.45 2.0 -11.15 -0.6 L-10.4 -5.45 Q-11.6 -5.35 -11.9 -6.0 L-12.05 -7.3 M-4.7 12.7 L-5.1 12.5 -6.45 10.35 -4.7 12.7" fill="#cc0033" fill-rule="evenodd" stroke="none"/>
      <path d="M2.9 9.55 L3.7 4.4 3.2 2.0 Q3.2 4.85 2.2 7.8 L2.1 5.7 2.15 3.05 1.75 -1.7 1.15 -6.7 Q1.35 -5.45 2.25 -4.75 L3.35 -4.05 3.75 -5.0 3.95 -6.1 Q3.95 -8.1 2.1 -11.7 L1.4 -12.8 Q5.55 -11.45 6.9 -7.75 8.2 -4.25 7.85 4.05 L5.25 7.3 2.9 9.55" fill="#ffffff" fill-rule="evenodd" stroke="none"/>
      <path d="M1.85 18.35 L1.4 18.85 1.3 18.95 1.1 19.15 1.05 19.1 0.8 19.3 0.5 19.75 -0.1 19.7 -0.1 19.35 2.8 9.85 2.9 9.55 5.25 7.3 7.85 4.05 7.1 7.65 Q6.55 9.95 5.8 11.25 L5.65 11.5 2.85 16.3 Q2.4 17.0 2.2 17.9 L1.85 18.35" fill="#786462" fill-rule="evenodd" stroke="none"/>
      <path d="M11.3 -15.0 L11.2 -15.15 14.4 -14.1 16.2 -12.85 Q17.4 -11.1 21.8 -7.15 25.55 -3.05 25.55 0.95 L25.5 2.25 24.6 2.5 23.7 1.8 21.8 -0.4 23.0 2.45 23.7 4.7 Q23.7 7.3 23.15 8.15 22.2 9.25 21.3 10.85 L21.4 9.7 Q21.4 5.2 19.95 0.85 18.6 -3.1 17.6 -3.1 L16.7 -4.65 15.25 -6.85 14.35 -8.25 14.4 -8.3 12.6 -10.65 16.15 -10.05 16.25 -10.4 Q15.6 -11.85 15.15 -12.3 L11.3 -15.0 M26.05 13.25 L24.75 16.35 23.45 18.65 19.4 24.3 18.1 26.25 17.65 25.95 17.45 25.75 17.6 24.45 17.8 23.5 17.75 23.15 Q17.45 21.65 17.45 19.6 17.45 17.05 17.75 15.85 L18.35 13.9 17.85 14.65 17.45 15.55 17.2 15.3 Q17.05 15.05 17.05 14.6 L17.05 13.7 Q17.05 13.2 17.0 13.55 L14.9 13.35 14.75 13.35 14.7 12.75 Q14.7 12.15 14.95 11.85 L15.4 11.45 15.5 10.95 14.9 11.35 10.5 13.8 7.7 15.25 Q5.7 16.25 5.05 16.25 L4.45 16.2 4.2 15.45 4.75 14.6 6.15 13.2 6.7 11.2 4.1 15.3 2.9 17.0 2.2 17.9 Q2.4 17.0 2.85 16.3 L5.65 11.5 5.8 11.25 Q7.6 8.25 8.2 6.2 8.6 4.85 8.6 3.35 L8.3 0.5 Q8.1 -1.6 8.7 -1.6 L9.0 -1.65 9.0 -0.1 9.0 1.65 Q9.1 5.75 11.15 7.2 L10.3 8.3 Q12.05 7.8 14.9 4.6 L18.35 0.1 18.65 1.3 19.45 3.85 Q19.75 5.4 19.75 9.55 L19.25 11.4 18.35 13.9 19.0 16.35 19.0 16.55 19.45 18.2 20.1 18.05 Q20.6 17.9 22.4 16.55 L24.55 14.9 Q25.25 13.9 26.05 13.25 M-1.8 17.4 L-1.85 17.55 Q-3.45 16.85 -4.75 14.55 L-5.05 14.0 -6.05 14.15 -6.0 14.45 -6.3 14.35 Q-13.15 11.9 -13.9 10.4 -14.05 10.65 -14.4 10.7 L-15.2 10.35 -15.65 10.0 -15.85 9.7 -15.3 11.15 -15.1 11.45 -14.25 12.95 -14.2 13.65 -14.4 13.9 -15.05 13.65 Q-16.05 13.05 -17.85 10.85 -19.65 8.65 -19.65 8.15 -19.65 6.55 -19.3 4.9 L-18.25 0.35 Q-17.65 2.15 -15.2 4.8 -12.45 7.7 -10.05 8.65 -10.75 7.25 -11.85 6.15 L-10.15 7.35 -8.8 8.05 -9.4 4.55 -9.85 0.7 Q-9.85 -2.85 -8.65 -5.1 L-8.35 -5.0 -8.4 -4.2 Q-8.4 -0.05 -7.55 3.85 -6.95 6.7 -6.25 7.55 L-6.05 6.45 -3.55 9.4 Q-1.85 11.0 -0.65 11.0 L0.75 10.6 2.8 9.85 -0.1 19.35 -1.75 17.35 -1.8 17.4 M-17.4 12.95 Q-17.1 13.75 -16.75 15.6 L-16.45 18.15 Q-16.45 21.85 -16.7 23.1 L-17.3 24.45 -18.25 24.65 -21.6 20.65 Q-22.95 19.15 -23.1 18.35 -23.3 17.55 -23.95 17.0 L-24.7 16.35 -24.8 16.1 Q-24.2 16.55 -24.3 15.9 L-24.5 14.6 -23.25 15.7 -21.75 16.75 -21.55 16.8 -20.25 16.8 -18.15 17.2 Q-18.1 14.65 -17.45 12.9 L-17.4 12.95 M-25.5 1.55 L-25.65 0.9 Q-25.5 -0.65 -23.95 -4.0 -22.3 -7.5 -20.75 -9.4 -17.75 -12.5 -15.45 -14.05 L-13.15 -15.65 -12.6 -15.95 -11.55 -15.95 -14.0 -12.95 -15.45 -10.7 Q-15.45 -10.0 -13.45 -9.2 L-13.55 -8.95 Q-14.5 -8.2 -15.55 -6.25 L-16.5 -4.45 Q-17.6 -4.45 -19.5 0.1 -21.35 4.5 -21.35 6.6 L-21.3 8.95 Q-22.65 7.35 -23.0 5.6 -23.0 1.95 -22.7 0.9 L-21.7 -1.25 -23.35 0.65 -24.6 1.95 -25.3 1.85 -25.5 1.55 M-12.1 -20.45 L-12.1 -21.7 Q-12.1 -20.3 -9.85 -19.3 -7.6 -18.35 -4.4 -18.35 L-1.95 -17.2 Q-1.3 -16.4 -1.35 -15.05 -1.45 -13.35 -3.15 -13.35 -6.9 -13.35 -9.65 -16.45 -11.15 -18.15 -12.1 -20.45 M-4.7 12.7 L-6.45 10.35 -5.1 12.5 -4.7 12.7" fill="#910031" fill-rule="evenodd" stroke="none"/>
      <path d="M12.6 -10.65 L14.4 -8.3 14.35 -8.25 15.25 -6.85 16.6 -4.1 15.85 -1.0 Q14.6 2.1 12.25 2.65 L11.55 0.05 9.5 -7.05 10.05 -6.45 Q10.25 -6.15 10.85 -6.15 11.35 -6.15 11.75 -6.5 12.25 -6.95 12.25 -7.6 12.25 -8.5 11.5 -10.1 L10.2 -12.45 10.0 -12.7 12.6 -10.65 M26.8 7.25 L26.75 8.45 25.75 11.95 24.55 14.9 22.4 16.55 Q20.6 17.9 20.1 18.05 19.2 17.6 19.0 16.55 L19.0 16.35 18.95 15.95 Q18.95 14.75 19.5 12.9 L19.55 13.25 Q19.5 14.1 20.0 14.55 20.45 15.0 21.2 15.0 23.1 15.0 24.25 13.5 25.4 11.9 26.8 7.25 M-9.25 -25.3 L-6.75 -26.55 -3.8 -27.75 -3.7 -27.75 Q-5.55 -27.25 -7.0 -25.05 -8.05 -23.5 -8.3 -22.25 L-9.2 -21.95 -10.35 -22.85 -10.1 -23.75 -9.25 -25.3 M0.6 0.25 L0.35 4.15 Q-0.1 6.45 -1.45 6.45 L-3.0 6.0 Q-4.45 5.2 -4.85 3.25 L-6.4 3.95 Q-7.45 3.4 -7.45 -2.6 -7.45 -6.4 -6.7 -8.1 L-5.5 -9.65 Q-5.25 -9.3 -5.25 -8.3 L-5.55 -6.1 Q-5.9 -4.15 -5.85 -2.25 L-5.55 -2.2 -5.45 -2.85 -4.65 -5.5 Q-3.8 -4.25 -2.65 -3.45 -1.8 -2.9 -1.5 -2.9 L0.05 -2.95 Q0.6 -2.55 0.6 0.25 M-12.05 -7.3 L-11.9 -6.0 Q-11.6 -5.35 -10.4 -5.45 L-11.15 -0.6 Q-11.45 2.0 -12.3 2.7 L-12.15 2.8 -12.8 2.85 Q-14.35 2.85 -15.2 0.1 L-15.8 -2.8 Q-15.8 -3.75 -13.9 -6.9 -11.75 -10.4 -9.8 -12.0 L-9.1 -12.45 -10.9 -9.85 Q-12.05 -8.1 -12.05 -7.3 M-24.5 14.6 L-25.6 12.05 -26.2 9.75 -26.05 6.8 -25.5 8.5 Q-25.2 10.8 -22.85 13.4 -20.7 15.75 -19.2 16.0 L-19.4 16.5 -20.25 16.8 -21.55 16.8 -21.75 16.75 -23.25 15.7 -24.5 14.6" fill="#ff4f53" fill-rule="evenodd" stroke="none"/>
      <path d="M1.7 -27.9 L2.1 -28.3 2.7 -28.2 1.7 -27.9 M19.4 27.85 L19.5 27.85 19.8 27.7 19.55 28.4 19.4 27.85 M1.0 -16.3 Q-3.75 -15.35 -5.5 -19.3 L-4.0 -17.8 Q-1.95 -16.3 1.0 -16.3 M-10.35 -17.25 L-6.65 -14.45 -5.3 -13.7 Q-7.4 -13.8 -9.2 -14.6 L-11.05 -15.3 -10.15 -16.15 -10.2 -16.7 -10.35 -17.25 M-16.9 -12.2 L-20.3 -8.85 -22.45 -6.1 -20.5 -8.7 -16.9 -12.2 M-24.8 0.85 L-24.75 1.75 Q-23.2 -0.55 -21.3 -2.35 L-22.2 -0.25 Q-26.05 3.55 -25.8 8.95 L-25.6 11.3 -25.9 9.95 Q-26.5 5.2 -24.8 0.85 M-17.55 23.2 Q-17.0 18.9 -18.2 14.6 -19.25 10.75 -19.3 6.65 -19.4 2.15 -17.95 -1.8 L-16.6 -5.25 Q-17.8 -2.05 -16.3 1.1 -14.8 4.4 -11.9 6.65 -15.45 5.4 -16.9 1.65 -18.15 6.3 -17.75 11.15 L-16.3 12.2 -14.95 12.8 -14.65 13.6 -17.55 12.25 -18.15 12.95 -17.8 14.1 Q-16.55 18.55 -17.55 23.2 M-15.25 11.95 L-16.95 7.2 -17.1 6.4 Q-14.9 10.35 -10.6 12.4 -8.05 13.65 -5.05 14.25 -6.85 11.7 -7.35 8.75 -4.55 13.65 -1.0 17.85 L-3.2 16.05 Q-3.8 15.5 -4.5 15.25 -9.8 14.15 -14.0 10.8 L-15.05 10.95 -15.25 11.95 M3.2 16.2 Q5.6 13.2 7.5 9.95 L7.8 9.6 Q7.6 11.5 6.45 13.15 L5.45 14.7 6.15 14.65 5.25 14.95 Q4.05 15.35 3.2 16.2 M7.95 14.25 Q12.2 13.7 15.0 10.35 L17.2 7.3 15.55 12.6 15.1 12.25 14.55 12.1 14.25 12.15 13.9 12.3 Q11.15 13.9 7.95 14.25 M17.7 12.05 Q18.45 8.1 17.7 4.05 L17.3 2.1 Q16.05 4.45 14.2 6.5 13.45 7.3 12.15 7.2 14.95 5.4 16.25 2.4 17.7 -1.1 16.9 -4.85 18.8 -2.3 19.25 0.75 L19.65 6.0 19.35 11.5 18.9 11.35 17.7 12.05 M18.95 13.4 L18.05 18.8 17.95 20.7 Q17.55 17.35 18.4 13.9 L18.95 13.4 M18.5 24.5 Q21.45 21.05 23.7 17.3 26.2 13.05 26.1 8.0 L26.0 6.4 26.25 7.8 Q26.75 12.65 24.35 16.95 21.95 21.1 18.5 24.5 M23.8 1.9 Q22.4 0.6 21.7 -1.15 L21.1 -2.8 Q21.95 -1.15 23.15 -0.05 L23.7 0.5 Q22.95 -2.65 20.65 -5.15 L23.4 -1.6 23.75 -0.95 23.8 1.9 M5.45 -10.95 L7.5 -8.15 Q9.6 -3.85 9.4 0.9 9.25 5.25 6.6 8.8 8.8 3.2 7.7 -2.6 6.8 -7.2 5.05 -11.35 L5.45 -10.95 M-2.9 -12.3 Q-5.85 -9.6 -6.95 -5.6 -8.9 1.3 -6.35 8.15 L-8.0 5.05 Q-10.05 0.2 -8.55 -4.7 -7.1 -9.4 -2.9 -12.3" fill="#550026" fill-rule="evenodd" stroke="none"/>
      <path d="M2.1 -28.3 L1.7 -27.9 Q-3.35 -25.75 -3.85 -20.8 -4.0 -19.35 -2.85 -18.25 L-0.7 -18.35 2.75 -18.1 Q7.25 -17.5 11.6 -15.75 15.45 -14.3 18.9 -11.55 22.9 -8.45 25.2 -4.1 27.45 0.25 27.35 5.15 L27.45 8.05 Q27.8 12.35 25.8 16.3 L22.1 23.45 19.8 27.7 19.5 27.85 19.4 27.85 Q18.95 25.95 20.2 24.1 L21.1 22.55 Q19.55 24.25 18.65 26.1 18.05 27.2 17.75 28.5 16.15 22.85 16.45 17.0 L16.65 14.3 13.1 14.65 14.65 13.05 Q10.1 15.7 4.7 16.15 L1.95 20.15 1.35 20.75 Q0.95 20.9 0.6 21.1 -1.2 19.9 -2.55 18.15 L-4.35 15.85 Q-9.3 14.95 -13.85 12.5 L-12.8 14.4 -13.2 14.65 -13.6 14.55 -15.0 14.0 -16.2 13.4 -16.4 13.6 -16.5 14.0 Q-14.75 18.05 -16.05 22.55 L-17.45 27.7 -18.6 24.9 Q-19.0 23.85 -19.8 23.15 L-19.1 24.85 -18.9 25.6 -18.85 26.4 Q-21.5 21.45 -24.85 17.0 -28.65 11.95 -27.1 5.9 L-26.15 3.1 Q-26.8 -0.7 -25.15 -4.45 -22.85 -9.6 -18.5 -12.65 -15.45 -14.85 -12.0 -16.55 -13.9 -19.55 -12.05 -22.75 -9.55 -27.05 -4.4 -28.15 -1.1 -28.9 2.1 -28.3 M23.75 -0.95 L23.9 0.3 23.85 0.65 25.0 2.4 Q24.6 -5.3 18.55 -10.4 16.1 -12.5 13.15 -13.8 8.3 -15.95 2.9 -16.4 L1.3 -16.7 1.7 -16.55 1.0 -16.3 Q-1.95 -16.3 -4.0 -17.8 L-5.5 -19.3 -5.9 -20.45 -6.1 -21.4 Q-4.95 -25.1 -1.85 -27.15 L-0.9 -27.7 Q-7.7 -27.6 -11.3 -22.45 -12.1 -21.25 -11.8 -19.75 -11.45 -18.2 -10.35 -17.25 L-10.2 -16.7 -10.15 -16.15 -11.05 -15.3 -12.9 -14.7 -16.9 -12.2 -20.5 -8.7 -22.45 -6.1 Q-24.25 -3.3 -24.75 -0.05 L-24.8 0.85 Q-26.5 5.2 -25.9 9.95 L-25.6 11.3 Q-24.85 15.85 -21.8 19.4 -19.65 21.85 -17.65 24.55 L-17.55 23.2 Q-16.55 18.55 -17.8 14.1 L-18.15 12.95 -17.55 12.25 -14.65 13.6 -14.95 12.8 -15.25 11.95 -15.05 10.95 -14.0 10.8 Q-9.8 14.15 -4.5 15.25 -3.8 15.5 -3.2 16.05 L-1.0 17.85 0.55 19.15 2.4 17.15 3.2 16.2 Q4.05 15.35 5.25 14.95 L6.15 14.65 7.95 14.25 Q11.15 13.9 13.9 12.3 L14.25 12.15 14.55 12.1 15.1 12.25 15.55 12.6 15.05 13.5 Q16.3 13.25 17.3 12.45 L17.7 12.05 18.9 11.35 19.35 11.5 18.95 13.4 18.4 13.9 Q17.55 17.35 17.95 20.7 L17.95 25.35 18.5 24.5 Q21.95 21.1 24.35 16.95 26.75 12.65 26.25 7.8 L26.0 6.4 24.8 3.6 23.8 1.9 23.75 -0.95" fill="#000000" fill-rule="evenodd" stroke="none"/>
    </g>
  </defs>
</svg>
