<?xml version="1.0" encoding="UTF-8" standalone="no"?>
<svg xmlns:ffdec="https://www.free-decompiler.com/flash" xmlns:xlink="http://www.w3.org/1999/xlink" ffdec:objectType="frame" height="44.2px" width="58.45px" xmlns="http://www.w3.org/2000/svg">
  <g transform="matrix(1.0, 0.0, 0.0, 1.0, 29.45, 28.05)">
    <use ffdec:characterId="5" height="44.2" transform="matrix(1.0, 0.0, 0.0, 1.0, -0.2, -5.95)" width="58.45" xlink:href="#sprite0"/>
  </g>
  <defs>
    <g id="sprite0">
      <use ffdec:characterId="4" height="44.2" transform="matrix(1.0, 0.0, 0.0, 1.0, 0.0, 0.0)" width="58.45" xlink:href="#shape0"/>
    </g>
    <g id="shape0">
      <path d="M7.7 21.2 L7.3 21.3 7.4 21.3 5.1 21.8 4.5 21.9 1.65 22.1 1.45 22.1 0.8 22.1 0.65 22.1 0.55 22.1 -4.25 21.8 -5.65 21.5 -6.65 21.3 -6.45 21.3 -11.4 19.75 Q-17.0 17.55 -20.4 12.95 L-21.15 11.95 -22.25 9.8 -22.25 9.7 -22.35 9.5 -22.4 9.4 -22.65 8.55 -22.85 7.95 -23.0 7.1 -23.1 6.8 -23.15 6.4 -23.15 6.35 -23.25 5.9 -23.25 5.75 -22.95 3.85 -22.95 3.6 -22.9 3.35 -22.85 3.25 -22.85 3.2 -22.8 2.8 -22.5 2.2 -22.45 2.0 -22.4 2.0 -22.4 1.95 -20.6 -2.55 -20.55 -2.75 -20.3 -3.35 -19.8 -4.65 -19.75 -4.65 -19.75 -4.8 -19.55 -5.15 -19.45 -5.3 -19.65 -5.2 -19.65 -5.15 -19.75 -5.15 -19.75 -5.05 -19.8 -5.05 -20.1 -4.8 -20.3 -4.65 -20.6 -4.45 -20.65 -4.45 -20.75 -4.4 Q-20.95 -4.25 -21.15 -4.2 L-21.4 -4.15 -21.6 -4.1 -22.0 -3.95 Q-23.45 -3.6 -24.9 -4.55 L-25.45 -5.1 -25.55 -5.3 -26.5 -6.7 -27.3 -8.25 -27.7 -8.95 -28.25 -9.8 -28.25 -9.95 -28.55 -10.45 -29.1 -11.05 -29.1 -11.1 -29.1 -11.2 -29.15 -11.25 -29.1 -11.25 -29.25 -11.35 -28.3 -11.45 -28.1 -11.35 -26.2 -11.45 -25.55 -11.5 -24.05 -11.7 -22.3 -12.05 -21.4 -12.25 -20.6 -12.4 -20.25 -12.5 -20.1 -12.55 -19.75 -12.7 -17.6 -13.5 -16.65 -13.95 Q-16.3 -14.15 -16.1 -14.3 L-16.0 -14.35 -15.95 -14.4 -15.9 -14.45 -15.85 -14.5 -15.75 -14.5 Q-15.0 -14.8 -14.35 -15.25 L-14.25 -15.25 -14.2 -15.2 -14.1 -15.1 -13.3 -15.6 -12.8 -15.8 -12.55 -15.9 -12.6 -15.9 -12.4 -16.0 -12.1 -16.05 -11.5 -16.25 -11.35 -16.25 -11.35 -16.3 -10.45 -16.3 -10.25 -16.25 -8.8 -19.2 -7.75 -21.3 -7.65 -21.3 -7.65 -21.4 -7.3 -21.7 -7.25 -21.75 -7.2 -21.8 -6.8 -22.1 -6.75 -22.1 -6.75 -21.9 -6.65 -21.85 -6.7 -21.75 -6.75 -21.7 Q-6.8 -20.45 -6.45 -19.15 L-5.85 -17.3 -5.7 -17.15 -5.65 -17.05 -5.6 -16.9 -5.5 -16.85 -5.3 -16.65 -5.25 -16.6 -5.15 -16.45 -5.1 -16.35 -5.1 -16.3 0.7 -16.35 0.8 -16.35 1.45 -16.35 1.65 -16.35 4.35 -16.35 4.45 -16.35 4.6 -16.55 Q5.7 -18.0 6.4 -19.7 L6.95 -21.65 6.9 -21.7 6.85 -21.8 6.85 -21.85 6.9 -21.9 7.25 -21.95 7.25 -22.0 7.45 -21.9 7.55 -21.85 7.7 -21.65 7.7 -21.7 8.1 -20.0 8.25 -19.0 8.85 -16.85 8.9 -16.35 9.75 -16.35 10.05 -16.35 10.5 -16.25 11.35 -16.05 11.65 -15.8 11.5 -15.8 Q12.1 -15.6 12.6 -15.2 L12.7 -15.25 12.75 -15.3 13.0 -15.35 13.25 -15.3 13.35 -15.3 13.4 -15.2 14.2 -14.65 14.55 -14.4 14.55 -14.55 14.65 -14.4 Q15.4 -13.95 16.25 -13.55 L18.4 -12.8 19.05 -12.6 19.65 -12.45 20.0 -12.4 21.05 -12.2 21.25 -12.2 21.85 -12.1 22.35 -12.0 23.55 -11.8 25.0 -11.6 25.9 -11.55 26.2 -11.5 28.0 -11.4 28.05 -11.4 29.0 -11.45 29.05 -11.4 29.1 -11.45 29.2 -11.45 29.15 -11.4 29.2 -11.4 29.05 -11.35 29.1 -11.35 29.1 -11.3 29.0 -11.2 29.0 -11.15 28.45 -10.55 28.1 -10.0 28.05 -9.95 28.05 -9.9 27.5 -8.95 27.1 -8.35 26.2 -6.8 25.1 -5.15 25.0 -5.0 24.9 -4.9 24.5 -4.65 23.55 -4.15 23.25 -4.1 22.85 -4.0 22.35 -3.95 22.3 -3.95 21.85 -3.95 21.4 -4.0 21.25 -4.0 21.05 -4.05 20.85 -4.1 20.6 -4.15 20.0 -4.3 19.8 -4.4 19.65 -4.45 19.45 -4.55 19.35 -4.6 19.45 -4.4 19.45 -4.35 20.2 -2.9 20.65 -1.95 20.7 -1.8 20.85 -1.65 21.3 -0.6 21.4 -0.4 22.05 0.95 22.1 1.05 22.2 1.35 22.4 1.85 22.5 1.85 22.5 1.9 22.5 2.0 22.85 2.7 22.9 2.9 23.0 3.2 23.1 3.45 23.2 3.75 23.2 3.85 23.2 4.1 23.35 4.75 23.45 5.2 23.5 5.9 23.55 6.35 23.55 6.65 23.55 7.1 23.45 7.65 23.4 8.55 23.4 8.8 23.35 8.9 22.65 10.6 21.3 12.95 Q19.8 15.0 17.9 16.5 15.4 18.55 12.15 19.75 L8.85 20.85 8.35 21.0 7.75 21.2 7.7 21.2 M-7.65 -20.65 L-7.65 -20.7 -7.7 -20.65 -9.1 -17.75 -9.7 -16.45 -9.8 -16.35 -9.9 -16.25 -9.15 -16.25 -6.15 -16.3 -6.0 -16.3 -6.4 -17.15 Q-7.3 -18.35 -7.35 -19.8 L-7.35 -20.2 -7.55 -20.6 -7.65 -20.65 M-15.65 -12.55 L-15.75 -12.6 -15.75 -12.65 -15.85 -12.75 -15.8 -12.85 -15.8 -13.0 -15.85 -13.1 -15.8 -13.2 -15.75 -13.3 -15.75 -13.55 -15.65 -13.6 -15.6 -13.8 -15.5 -13.9 -15.55 -13.9 -15.45 -14.0 -15.2 -14.2 -15.45 -14.1 -15.75 -13.95 -16.0 -13.75 -16.05 -13.7 -16.65 -13.4 -17.0 -13.2 -17.4 -13.0 -18.35 -12.6 -18.7 -12.45 -19.45 -12.3 -19.75 -12.2 -19.9 -12.1 -20.1 -12.05 -20.35 -11.95 -20.5 -11.9 -20.6 -11.9 -20.8 -11.9 -20.85 -11.9 -20.95 -11.85 -21.4 -11.75 -22.3 -11.5 -24.05 -11.2 -24.65 -11.15 -25.55 -11.1 -27.1 -11.15 -27.6 -11.2 -27.85 -11.25 -27.9 -11.25 -27.85 -11.15 -27.75 -11.1 -27.65 -11.05 -27.6 -10.95 -27.55 -10.95 -27.5 -10.9 -26.95 -10.55 -26.75 -10.3 -25.7 -9.4 -25.55 -9.25 -25.25 -8.95 -25.25 -8.85 -25.2 -8.8 -25.1 -8.65 -25.0 -8.55 -24.05 -7.6 -23.9 -7.5 Q-23.15 -6.85 -22.3 -6.45 L-22.15 -6.4 -22.0 -6.4 -21.7 -6.4 -21.4 -6.35 -20.6 -6.3 -20.4 -6.35 -20.1 -6.4 -19.75 -6.5 Q-19.35 -6.6 -19.05 -6.85 L-18.7 -7.0 -17.3 -8.05 -17.1 -8.2 -16.95 -8.35 -16.8 -8.6 -16.7 -8.6 -16.7 -8.7 -16.65 -8.75 -16.35 -8.9 -16.25 -8.9 -16.25 -8.85 -16.45 -8.6 -16.55 -8.45 -16.55 -8.4 -16.65 -8.25 -16.7 -8.2 -16.85 -7.95 -16.9 -7.9 -17.0 -7.6 -18.3 -6.3 -18.3 -6.25 -18.35 -6.1 -18.5 -5.85 -18.55 -5.8 -18.55 -5.7 -18.55 -5.6 -19.45 -3.35 -19.7 -2.75 -19.75 -2.55 -19.9 -2.1 -21.5 1.8 -22.25 3.85 -22.25 3.9 -22.25 5.9 -22.2 6.35 -22.2 6.55 -22.1 7.1 -21.95 7.95 -21.75 8.55 -21.3 9.9 -20.8 10.75 -20.65 11.1 -20.55 11.25 -20.5 11.35 -20.45 11.4 -20.35 11.55 -20.2 11.85 -20.1 11.95 -19.95 12.15 -19.85 12.3 -19.75 12.45 -19.7 12.55 -19.6 12.7 -16.85 15.65 -14.95 17.1 -13.35 18.1 -13.1 18.3 -12.95 18.35 -12.85 18.45 -12.4 18.7 -11.2 19.25 -10.9 19.4 -8.8 20.25 -8.75 20.25 -8.65 20.3 -8.6 20.35 -8.35 20.4 -7.9 20.55 -6.5 20.95 -6.35 20.95 -5.65 21.15 -4.65 21.3 -2.8 21.55 0.55 21.75 0.65 21.75 0.8 21.75 1.45 21.7 1.65 21.7 3.7 21.55 4.5 21.5 6.45 21.2 6.75 21.1 7.1 21.05 Q11.8 19.9 15.8 17.1 L16.65 16.5 Q19.15 14.55 20.95 12.0 L21.25 11.55 21.8 10.6 22.1 9.85 22.35 8.9 22.45 8.55 22.65 7.1 22.65 6.4 22.65 6.35 22.7 5.9 22.7 5.2 22.65 4.75 22.65 4.55 22.4 3.9 22.4 3.85 21.9 2.5 21.6 2.0 21.55 1.9 21.25 1.05 21.2 0.95 21.1 0.75 20.6 -0.4 20.05 -1.65 19.9 -1.95 19.8 -2.2 19.7 -2.35 19.65 -2.4 19.3 -3.2 19.1 -3.6 18.8 -4.15 18.7 -4.35 18.5 -4.9 18.35 -5.2 18.3 -5.2 18.3 -5.25 18.2 -5.4 18.0 -5.65 17.7 -5.9 17.4 -6.2 17.35 -6.2 16.6 -6.65 16.55 -6.75 15.8 -7.55 15.7 -7.65 15.4 -8.1 15.0 -8.65 15.0 -8.75 15.1 -8.6 16.45 -7.65 16.75 -7.5 17.25 -7.15 17.35 -7.1 17.6 -6.95 17.65 -6.95 Q18.35 -6.45 19.15 -6.4 L19.65 -6.4 20.0 -6.4 21.05 -6.5 21.25 -6.5 21.85 -6.65 22.3 -6.8 22.3 -6.85 22.35 -6.85 22.5 -6.95 23.1 -7.3 23.25 -7.4 23.25 -7.45 23.35 -7.45 23.45 -7.5 23.5 -7.55 23.55 -7.6 24.25 -8.25 24.45 -8.45 24.5 -8.6 24.9 -8.95 25.0 -9.05 25.85 -9.95 26.05 -10.05 26.1 -10.1 26.4 -10.3 27.75 -11.25 26.2 -11.15 25.2 -11.15 25.15 -11.15 25.0 -11.15 24.65 -11.15 24.55 -11.15 24.2 -11.2 23.75 -11.25 23.55 -11.25 22.45 -11.4 22.35 -11.4 22.3 -11.4 21.85 -11.5 21.25 -11.6 21.05 -11.65 20.0 -11.85 19.65 -11.9 19.1 -12.0 18.25 -12.25 18.0 -12.35 Q16.65 -12.7 15.5 -13.25 14.8 -13.6 14.2 -14.0 L13.8 -14.15 13.8 -14.2 13.75 -14.2 13.8 -14.1 14.2 -13.6 14.2 -13.55 14.2 -13.5 14.55 -12.65 14.5 -12.55 14.5 -12.45 14.45 -12.45 14.4 -12.5 13.95 -12.95 13.2 -13.6 12.8 -14.0 12.7 -14.1 12.45 -14.3 12.1 -14.65 Q11.25 -15.45 10.15 -15.8 L9.9 -15.9 4.9 -15.9 4.35 -15.9 1.65 -15.9 1.45 -15.9 0.8 -15.9 0.65 -15.9 0.0 -15.9 -3.05 -15.95 -5.65 -15.95 -7.4 -15.95 -8.25 -15.95 -11.65 -15.95 -11.65 -15.9 -11.75 -15.9 -11.8 -15.9 -11.85 -15.85 -11.9 -15.8 -11.95 -15.8 -11.95 -15.75 -12.1 -15.75 -12.35 -15.65 -12.4 -15.6 -12.4 -15.5 -12.6 -15.45 -13.2 -15.05 -13.3 -15.0 -14.0 -14.35 -14.45 -13.95 -14.55 -13.8 -14.9 -13.4 -14.85 -13.4 -14.95 -13.25 -15.2 -12.75 -15.2 -12.7 -15.3 -12.6 -15.4 -12.55 -15.45 -12.45 -15.6 -12.45 -15.65 -12.45 -15.65 -12.55 M-28.2 -10.5 L-28.25 -10.55 -28.25 -10.5 -28.15 -10.4 -27.75 -9.9 -27.15 -8.95 -26.05 -6.95 -25.9 -6.75 -25.55 -6.15 -25.25 -5.6 -25.05 -5.35 -25.05 -5.3 -24.2 -4.55 -24.15 -4.55 -24.05 -4.5 -24.0 -4.45 -23.8 -4.3 -23.65 -4.25 -23.4 -4.2 -22.3 -4.15 -22.25 -4.15 -22.15 -4.2 -22.05 -4.25 -22.0 -4.25 -21.75 -4.35 -21.7 -4.4 -21.4 -4.5 -21.3 -4.55 -20.85 -4.75 -20.9 -4.75 -20.8 -4.8 -20.6 -4.95 -20.5 -5.05 -20.45 -5.15 -20.2 -5.3 -20.15 -5.35 -20.1 -5.35 -20.05 -5.3 -19.9 -5.45 -19.9 -5.5 -19.85 -5.55 -19.75 -5.6 -19.75 -5.65 -19.75 -5.75 -19.5 -5.9 -19.35 -6.05 -19.75 -5.95 -20.1 -5.85 -20.6 -5.7 -20.85 -5.65 -21.4 -5.6 -22.0 -5.7 -22.3 -5.75 -24.05 -6.75 -24.65 -7.35 -25.55 -8.2 -26.35 -8.95 -28.2 -10.5 M-6.35 -10.0 L-6.15 -10.25 -5.6 -10.4 -4.95 -10.4 -4.5 -10.25 -4.4 -10.2 -4.35 -10.1 -4.3 -10.05 -4.2 -9.8 -4.15 -9.75 -4.15 -9.65 Q-4.05 -9.1 -4.35 -8.6 L-4.75 -8.45 -4.8 -8.45 -4.9 -8.45 -5.0 -8.4 -6.25 -8.65 -6.45 -9.15 -6.55 -9.2 -6.55 -9.5 -6.55 -9.65 -6.45 -9.75 -6.35 -9.85 -6.35 -10.0 M16.6 -0.45 L16.45 0.9 15.85 1.7 15.8 1.75 Q14.15 3.0 12.05 3.45 L7.7 4.45 3.2 4.85 1.65 4.95 1.45 4.95 0.8 4.95 0.7 4.95 -1.25 4.85 -5.65 4.45 -9.5 3.65 -13.6 2.1 -14.65 1.55 -14.8 1.35 -15.3 1.05 -15.65 0.6 -15.6 0.45 -15.55 0.25 -15.55 0.15 -15.45 -0.2 -15.4 -0.3 -15.15 -0.8 -15.15 -0.2 Q-14.85 0.65 -14.2 1.1 -12.8 2.1 -11.0 2.6 L-8.3 3.4 -7.9 3.5 -6.95 3.7 -3.35 4.25 0.7 4.3 0.85 4.3 1.0 4.3 1.0 4.25 0.8 4.25 0.75 4.25 0.7 4.2 0.1 4.15 -0.5 4.1 -0.9 3.95 -1.55 3.75 Q-2.6 3.5 -3.4 2.7 L-3.45 2.65 -4.0 2.1 -4.2 1.55 -4.25 1.45 -4.35 1.05 -4.35 0.75 -4.35 0.4 -4.8 0.45 -5.1 0.3 -5.45 -0.25 -5.45 -0.35 Q-2.9 -2.1 0.0 -1.1 -0.75 0.2 -2.15 0.4 L-1.6 1.65 -0.25 2.65 0.1 2.75 0.15 2.75 0.3 2.8 0.6 2.85 0.7 2.9 0.75 2.95 0.8 2.95 1.45 2.9 1.55 2.9 1.6 2.9 1.65 2.9 2.15 2.8 2.6 2.6 Q3.35 2.2 3.75 1.4 L3.75 1.35 4.1 0.3 Q2.75 0.3 2.1 -1.0 3.75 -1.95 6.1 -1.35 7.35 -1.0 7.6 0.05 L6.5 0.25 6.5 0.4 6.5 0.8 6.5 0.85 5.9 2.3 4.05 3.65 3.65 3.85 2.6 4.2 2.35 4.3 5.15 4.1 9.6 3.45 10.4 3.35 11.9 3.0 12.0 2.95 13.2 2.6 14.0 2.2 14.05 2.2 14.45 1.95 14.85 1.65 15.35 1.35 16.45 0.25 16.6 -0.45 M-4.0 -0.35 L-3.85 -0.35 -3.55 -0.5 -2.95 -0.9 -3.4 -0.85 -3.9 -0.5 -4.0 -0.35 M-3.9 1.15 Q-3.35 2.65 -1.75 3.4 L-1.35 3.55 -0.7 3.8 -0.65 3.8 -0.25 3.95 0.0 3.95 0.7 4.1 0.8 4.1 1.2 4.1 1.45 4.1 1.65 4.1 1.8 4.1 2.05 4.1 2.3 4.05 2.55 4.0 2.6 4.0 2.65 3.95 3.6 3.7 3.65 3.65 Q5.15 3.0 5.8 1.5 L6.1 0.8 6.15 0.35 6.15 0.25 6.15 0.15 6.1 0.1 6.1 0.05 6.05 0.0 6.05 -0.05 6.0 -0.05 5.9 -0.2 5.85 -0.3 5.75 -0.3 5.7 -0.3 5.4 -0.4 4.75 -0.3 4.65 -0.3 4.6 -0.2 4.55 -0.2 4.55 -0.1 4.5 -0.05 4.45 0.05 4.5 0.25 4.5 0.4 Q4.15 2.05 2.65 2.8 L2.25 3.0 2.05 3.0 1.75 3.05 1.65 3.05 1.45 3.1 0.8 3.1 0.75 3.05 0.6 3.05 0.45 3.05 0.4 3.0 0.3 3.0 0.0 2.95 Q-1.35 2.7 -2.2 1.5 L-2.5 0.9 -2.65 0.4 -2.6 0.25 -2.6 -0.1 -2.6 -0.15 -2.55 -0.2 -2.55 -0.3 -2.7 -0.3 -2.9 -0.3 -3.0 -0.3 -3.35 -0.3 -3.45 -0.3 -3.6 -0.25 -3.6 -0.15 -3.7 -0.1 -3.7 0.0 -3.75 0.05 -3.8 0.05 -3.85 0.15 -3.9 0.15 -3.9 0.2 -3.9 0.3 -3.95 0.35 -3.95 0.5 -3.95 0.85 -3.95 0.9 -3.95 1.0 -3.9 1.15 M-2.2 -0.45 L-2.1 -0.35 -1.55 -0.35 -1.3 -0.55 -1.3 -0.9 -1.35 -0.95 -2.15 -0.6 -2.2 -0.55 -2.15 -0.55 -2.1 -0.5 -2.2 -0.45 M8.1 -16.35 L8.45 -16.35 Q8.1 -17.5 7.9 -18.7 L7.5 -20.35 6.4 -17.9 5.3 -16.35 6.05 -16.35 6.2 -16.35 7.7 -16.35 7.9 -16.35 7.95 -16.35 8.1 -16.35 M3.85 -9.8 L3.95 -9.95 4.05 -10.0 4.05 -10.15 4.25 -10.45 4.8 -10.6 5.4 -10.6 5.95 -10.45 6.05 -10.35 6.1 -10.25 6.15 -10.25 6.25 -10.0 6.3 -9.95 6.3 -9.8 Q6.4 -9.25 6.1 -8.75 L4.15 -8.8 3.95 -9.35 3.85 -9.4 3.85 -9.45 3.85 -9.6 3.85 -9.8 M5.85 -0.7 Q6.15 -0.55 5.8 -0.8 L5.7 -0.85 5.15 -0.85 5.85 -0.7 M4.15 -0.3 L3.25 -1.0 3.6 -0.4 4.1 -0.3 4.15 -0.3 M19.15 -5.3 L19.2 -5.25 19.45 -5.05 19.45 -5.0 19.65 -4.9 20.0 -4.75 21.05 -4.4 21.25 -4.35 21.85 -4.25 22.3 -4.25 22.35 -4.25 23.15 -4.35 Q23.4 -4.4 23.55 -4.55 L24.1 -4.9 24.15 -4.95 25.0 -5.8 25.7 -6.95 25.8 -7.05 26.2 -7.85 26.9 -8.95 27.55 -9.95 27.6 -10.0 28.05 -10.5 25.2 -8.2 25.0 -8.05 24.25 -7.45 23.75 -6.95 23.55 -6.8 23.35 -6.65 22.35 -6.1 22.3 -6.1 22.3 -6.05 22.25 -6.05 21.85 -5.9 21.25 -5.75 21.05 -5.75 20.0 -5.65 19.65 -5.7 19.6 -5.7 19.65 -5.65 19.05 -5.65 19.05 -5.8 19.0 -5.8 18.8 -5.85 18.65 -5.85 18.7 -5.8 18.95 -5.45 19.0 -5.4 19.1 -5.3 19.15 -5.3" fill="#000000" fill-rule="evenodd" stroke="none"/>
      <path d="M-7.75 -19.05 L-7.75 -18.95 -7.75 -18.75 -7.75 -18.65 -7.75 -18.5 -7.75 -18.4 -7.75 -18.35 -7.7 -18.3 -7.7 -18.25 -7.7 -18.15 -7.65 -18.0 -7.55 -18.0 -7.55 -17.85 -7.5 -17.8 -7.5 -17.75 -7.5 -17.65 -7.5 -17.6 -7.45 -17.55 -7.45 -17.45 -7.4 -17.4 -7.4 -17.25 -7.3 -17.15 -7.3 -17.05 -7.25 -16.8 -7.25 -16.7 -8.6 -16.8 -8.85 -16.9 -8.95 -16.9 -8.55 -17.65 -7.8 -19.35 -7.8 -19.25 -7.8 -19.15 -7.8 -19.1 -7.75 -19.05 M-10.15 -5.75 L-10.0 -5.7 -9.95 -5.65 -10.0 -5.65 -10.05 -5.7 -10.1 -5.7 -10.15 -5.75 M-9.8 -5.6 L-9.45 -5.5 -9.6 -5.5 -9.75 -5.55 -9.8 -5.6 M-4.15 -7.4 L-4.2 -7.4 -4.1 -7.45 -4.15 -7.4 M7.45 -19.1 L7.5 -19.1 7.5 -19.2 7.55 -19.45 7.65 -18.75 7.7 -17.1 7.6 -17.1 7.1 -17.0 6.9 -17.0 6.4 -16.95 6.55 -17.2 6.6 -17.3 6.6 -17.4 6.7 -17.45 6.75 -17.45 6.75 -17.55 6.85 -17.7 6.85 -17.75 6.85 -17.85 6.9 -17.9 6.95 -17.9 6.95 -18.0 7.0 -18.05 7.0 -18.15 7.1 -18.2 7.1 -18.3 7.25 -18.45 7.25 -18.55 7.35 -18.85 7.45 -19.0 7.45 -19.1 M6.45 -5.95 L6.25 -6.05 6.45 -6.0 6.45 -5.95" fill="#dddddd" fill-rule="evenodd" stroke="none"/>
      <path d="M-7.65 -20.65 L-7.55 -20.6 -7.35 -20.2 -7.35 -19.8 Q-7.3 -18.35 -6.4 -17.15 L-6.0 -16.3 -6.15 -16.3 -9.15 -16.25 -9.9 -16.25 -9.8 -16.35 -9.7 -16.45 -9.1 -17.75 -7.7 -20.65 -7.65 -20.7 -7.65 -20.65 M-7.75 -19.05 L-7.8 -19.1 -7.8 -19.15 -7.8 -19.25 -7.8 -19.35 -8.55 -17.65 -8.95 -16.9 -8.85 -16.9 -8.6 -16.8 -7.25 -16.7 -7.25 -16.8 -7.3 -17.05 -7.3 -17.15 -7.4 -17.25 -7.4 -17.4 -7.45 -17.45 -7.45 -17.55 -7.5 -17.6 -7.5 -17.65 -7.5 -17.75 -7.5 -17.8 -7.55 -17.85 -7.55 -18.0 -7.65 -18.0 -7.7 -18.15 -7.7 -18.25 -7.7 -18.3 -7.75 -18.35 -7.75 -18.4 -7.75 -18.5 -7.75 -18.65 -7.75 -18.75 -7.75 -18.95 -7.75 -19.05 M7.45 -19.1 L7.45 -19.0 7.35 -18.85 7.25 -18.55 7.25 -18.45 7.1 -18.3 7.1 -18.2 7.0 -18.15 7.0 -18.05 6.95 -18.0 6.95 -17.9 6.9 -17.9 6.85 -17.85 6.85 -17.75 6.85 -17.7 6.75 -17.55 6.75 -17.45 6.7 -17.45 6.6 -17.4 6.6 -17.3 6.55 -17.2 6.4 -16.95 6.9 -17.0 7.1 -17.0 7.6 -17.1 7.7 -17.1 7.65 -18.75 7.55 -19.45 7.5 -19.2 7.5 -19.1 7.45 -19.1 M8.1 -16.35 L7.95 -16.35 7.9 -16.35 7.7 -16.35 6.2 -16.35 6.05 -16.35 5.3 -16.35 6.4 -17.9 7.5 -20.35 7.9 -18.7 Q8.1 -17.5 8.45 -16.35 L8.1 -16.35" fill="#a2a2a2" fill-rule="evenodd" stroke="none"/>
      <path d="M9.75 -16.35 L9.8 -16.4 10.15 -16.4 10.45 -16.35 10.45 -16.3 10.5 -16.25 10.05 -16.35 9.75 -16.35 M19.8 -4.4 L19.65 -4.35 19.45 -4.35 19.45 -4.4 19.65 -4.4 19.8 -4.4 M8.85 20.85 L8.75 20.9 8.6 20.95 8.35 21.0 8.85 20.85 M0.65 -15.9 L0.8 -15.9 1.45 -15.9 1.65 -15.9 4.35 -15.9 4.9 -15.9 9.9 -15.9 10.15 -15.8 Q11.25 -15.45 12.1 -14.65 L12.45 -14.3 12.7 -14.1 12.8 -14.0 13.2 -13.6 13.95 -12.95 14.4 -12.5 14.45 -12.45 14.5 -12.45 14.5 -12.55 14.55 -12.65 14.2 -13.5 14.2 -13.55 14.2 -13.6 13.8 -14.1 13.75 -14.2 13.8 -14.2 13.8 -14.15 14.2 -14.0 Q14.8 -13.6 15.5 -13.25 16.65 -12.7 18.0 -12.35 L18.25 -12.25 19.1 -12.0 19.65 -11.9 20.0 -11.85 21.05 -11.65 21.25 -11.6 21.85 -11.5 22.3 -11.4 22.35 -11.4 22.45 -11.4 23.55 -11.25 23.75 -11.25 24.2 -11.2 24.55 -11.15 23.55 -11.1 22.35 -11.1 22.3 -11.1 21.85 -11.15 21.25 -11.15 21.05 -11.2 20.0 -11.3 19.65 -11.3 17.8 -11.6 15.9 -12.0 15.75 -12.05 15.6 -12.1 15.4 -12.15 15.3 -12.15 15.4 -11.9 15.4 -11.85 15.45 -11.75 15.55 -11.5 15.6 -11.45 Q16.8 -9.6 18.65 -8.25 L19.55 -7.75 19.65 -7.7 20.0 -7.6 21.05 -7.35 21.25 -7.3 21.85 -7.3 22.3 -7.3 22.35 -7.3 23.25 -7.45 23.25 -7.4 23.1 -7.3 22.5 -6.95 22.35 -6.85 22.3 -6.85 22.3 -6.8 21.85 -6.65 21.25 -6.5 21.05 -6.5 20.0 -6.4 19.65 -6.4 19.15 -6.4 Q18.35 -6.45 17.65 -6.95 L17.6 -6.95 17.35 -7.1 17.25 -7.15 16.75 -7.5 16.45 -7.65 15.1 -8.6 15.0 -8.75 15.0 -8.65 15.4 -8.1 15.7 -7.65 15.8 -7.55 16.55 -6.75 16.6 -6.65 17.35 -6.2 17.4 -6.2 17.7 -5.9 18.0 -5.65 18.2 -5.4 18.3 -5.25 18.3 -5.2 18.35 -5.2 18.5 -4.9 18.7 -4.35 18.8 -4.15 19.1 -3.6 19.3 -3.2 18.4 -3.2 18.15 -3.3 Q16.7 -3.35 15.45 -4.2 13.8 -5.3 13.15 -7.05 L13.0 -7.5 12.9 -7.55 12.85 -7.8 12.75 -8.05 12.6 -8.25 12.5 -8.35 11.5 -10.6 Q10.85 -11.85 9.8 -12.75 7.3 -14.9 4.0 -15.75 L3.65 -15.8 1.65 -15.85 1.45 -15.85 0.95 -15.85 0.8 -15.85 0.7 -15.85 0.65 -15.9 M20.95 12.0 Q19.15 14.55 16.65 16.5 L15.8 17.1 Q11.8 19.9 7.1 21.05 L7.4 20.9 7.35 20.8 7.3 20.7 7.3 20.65 7.25 20.6 7.25 20.55 7.25 20.5 7.2 20.45 7.2 20.35 7.1 20.3 7.0 20.25 7.2 20.2 8.45 19.75 8.0 19.85 8.35 19.7 11.75 17.55 13.0 16.7 Q14.95 15.3 16.5 13.4 L16.5 13.3 16.6 13.15 16.6 13.1 16.65 13.05 16.7 12.95 16.7 12.85 16.75 12.8 16.8 12.75 16.75 12.7 16.85 12.7 17.1 12.7 17.3 12.7 17.5 12.75 18.15 12.75 18.25 12.75 18.65 12.8 18.75 12.75 18.6 12.75 18.6 12.7 18.8 12.65 19.1 12.6 19.25 12.55 20.5 12.1 20.55 12.05 20.65 12.05 20.9 12.0 20.95 12.0 M-21.95 7.95 L-22.1 7.1 -22.2 6.55 -22.2 6.35 -22.25 5.9 -22.25 3.9 -22.25 3.85 -21.5 1.8 -19.9 -2.1 -19.75 -2.55 -19.7 -2.75 -19.45 -3.35 -18.55 -5.6 -18.55 -5.7 -18.55 -5.8 -18.5 -5.85 -18.35 -6.1 -18.3 -6.25 -18.3 -6.3 -17.0 -7.6 -16.9 -7.9 -16.85 -7.95 -16.7 -8.2 -16.65 -8.25 -16.55 -8.4 -16.55 -8.45 -16.45 -8.6 -16.25 -8.85 -15.25 -9.4 -15.2 -9.4 -15.15 -9.35 -15.1 -9.3 -15.0 -9.2 -15.0 -9.15 -15.05 -9.15 -15.05 -9.05 -15.0 -9.05 -15.1 -8.85 -16.4 -5.3 -16.65 -4.85 -18.1 -2.55 -18.8 -1.8 -19.1 -1.4 -19.45 -0.85 -20.2 0.75 -20.85 2.1 -21.65 3.55 -21.8 5.5 -21.8 5.9 -21.85 6.35 -21.9 7.1 -21.95 7.9 -21.95 7.95 M-16.7 -8.7 L-16.7 -8.6 -16.8 -8.6 -16.95 -8.35 -17.1 -8.2 -17.3 -8.05 -18.7 -7.0 -19.05 -6.85 Q-19.35 -6.6 -19.75 -6.5 L-20.1 -6.4 -20.4 -6.35 -20.6 -6.3 -21.4 -6.35 -21.7 -6.4 -22.0 -6.4 -22.15 -6.4 -21.4 -6.6 -21.0 -6.75 -20.6 -6.85 -20.1 -7.05 -19.75 -7.15 Q-18.45 -7.65 -17.2 -8.45 L-17.0 -8.6 -16.7 -8.7 M-27.6 -10.95 L-27.65 -11.05 -27.6 -11.0 -27.6 -10.95 M16.65 12.65 L16.5 12.65 16.6 12.6 16.65 12.65" fill="#3c3c3c" fill-rule="evenodd" stroke="none"/>
      <path d="M7.75 21.2 L7.75 21.3 7.8 21.35 7.8 21.4 7.7 21.4 7.7 21.3 7.7 21.2 7.75 21.2 M0.0 -15.9 L0.65 -15.9 0.7 -15.85 0.8 -15.85 0.95 -15.85 1.45 -15.85 1.65 -15.85 3.65 -15.8 4.0 -15.75 Q7.3 -14.9 9.8 -12.75 10.85 -11.85 11.5 -10.6 L12.5 -8.35 12.6 -8.25 12.75 -8.05 12.85 -7.8 12.9 -7.55 13.0 -7.5 13.15 -7.05 Q13.8 -5.3 15.45 -4.2 16.7 -3.35 18.15 -3.3 L18.4 -3.2 19.3 -3.2 19.65 -2.4 19.7 -2.35 19.65 -2.3 19.6 -2.2 19.55 -2.2 19.25 -2.1 15.75 -2.3 14.6 -2.7 Q14.1 -2.75 13.7 -3.1 L13.4 -3.35 13.35 -3.35 13.35 -3.4 13.2 -3.45 13.0 -3.6 12.55 -3.95 12.5 -4.05 12.5 -4.15 12.4 -4.25 12.25 -4.45 12.15 -4.6 12.1 -4.7 12.05 -4.75 12.05 -4.8 12.0 -4.9 11.9 -5.0 11.9 -5.1 11.9 -5.15 11.8 -5.25 11.75 -5.25 12.05 -5.5 12.1 -5.6 12.15 -5.8 12.2 -5.85 12.25 -6.55 12.25 -6.75 12.25 -6.85 12.15 -7.5 12.15 -7.55 12.05 -7.65 12.05 -7.7 12.1 -8.1 11.95 -8.5 11.7 -8.95 11.65 -9.0 11.65 -9.05 11.55 -9.1 10.9 -9.9 10.9 -9.95 8.45 -11.9 8.35 -11.9 Q8.0 -12.15 7.7 -12.35 L7.3 -12.45 7.0 -12.45 4.5 -13.5 1.65 -14.75 1.45 -14.85 0.8 -15.3 0.75 -15.3 0.7 -15.35 0.35 -15.55 0.1 -15.8 0.0 -15.9 M24.55 -11.15 L24.65 -11.15 25.0 -11.15 25.15 -11.15 25.2 -11.15 26.2 -11.15 27.75 -11.25 26.4 -10.3 26.2 -10.25 25.35 -10.2 25.15 -10.25 25.0 -10.25 23.55 -10.2 22.35 -10.3 22.3 -10.3 21.85 -10.35 21.35 -10.4 21.25 -10.4 21.05 -10.45 20.0 -10.55 19.9 -10.6 19.65 -10.6 Q17.65 -11.0 15.85 -11.9 L15.8 -11.95 15.75 -11.95 15.75 -12.05 15.9 -12.0 17.8 -11.6 19.65 -11.3 20.0 -11.3 21.05 -11.2 21.25 -11.15 21.85 -11.15 22.3 -11.1 22.35 -11.1 23.55 -11.1 24.55 -11.15 M26.1 -10.1 L26.05 -10.05 26.05 -10.1 26.1 -10.1 M24.25 -8.25 L23.55 -7.6 23.5 -7.55 23.45 -7.5 23.35 -7.45 23.25 -7.45 22.35 -7.3 22.3 -7.3 21.85 -7.3 21.25 -7.3 21.05 -7.35 20.0 -7.6 19.65 -7.7 19.55 -7.75 18.65 -8.25 Q16.8 -9.6 15.6 -11.45 L15.55 -11.5 15.45 -11.75 15.4 -11.85 15.4 -11.9 15.3 -12.15 15.4 -12.15 15.6 -12.1 15.5 -12.1 15.4 -12.1 15.4 -11.95 15.45 -11.9 15.4 -11.9 15.45 -11.85 15.55 -11.75 15.6 -11.65 15.85 -11.5 15.85 -11.45 16.0 -11.25 Q16.85 -10.45 17.9 -10.0 L19.1 -9.5 19.65 -9.3 20.0 -9.2 21.05 -8.95 21.25 -8.9 21.85 -8.75 22.3 -8.65 22.35 -8.65 23.55 -8.5 23.55 -8.45 23.6 -8.4 24.1 -8.35 24.15 -8.35 24.25 -8.25 M21.25 11.55 L20.95 12.0 20.9 12.0 20.65 12.05 20.55 12.05 20.5 12.1 19.25 12.55 Q20.25 12.25 21.25 11.55 M-20.2 11.85 L-20.35 11.55 -20.05 11.85 -20.15 11.85 -20.2 11.85 M-20.8 10.75 L-21.3 9.9 -21.75 8.55 -21.95 7.95 -21.95 7.9 -21.9 7.1 -21.85 6.35 -21.8 5.9 -21.8 5.5 -21.65 3.55 -20.85 2.1 -20.2 0.75 -19.45 -0.85 -19.1 -1.4 -18.8 -1.8 -18.1 -2.55 -16.65 -4.85 -16.4 -5.3 -15.1 -8.85 -15.0 -9.05 -15.05 -9.05 -15.05 -9.15 -15.0 -9.15 -15.0 -9.2 -15.1 -9.3 -15.15 -9.35 -15.2 -9.4 -15.25 -9.4 -16.25 -8.85 -16.25 -8.9 -16.35 -8.9 -16.65 -8.75 -16.7 -8.7 -17.0 -8.6 -17.2 -8.45 Q-18.45 -7.65 -19.75 -7.15 L-20.1 -7.05 -20.6 -6.85 -21.0 -6.75 -21.4 -6.6 -22.15 -6.4 -22.3 -6.45 Q-23.15 -6.85 -23.9 -7.5 L-24.05 -7.6 -25.0 -8.55 -25.1 -8.65 -25.05 -8.65 -25.0 -8.6 -25.0 -8.55 -24.05 -7.95 -22.3 -7.65 -21.75 -7.75 -21.4 -7.8 -20.6 -8.0 -20.3 -8.05 -20.1 -8.05 -19.75 -8.15 -17.9 -8.7 -17.15 -8.95 -16.65 -9.15 -14.8 -10.0 -14.4 -10.05 -14.25 -10.0 Q-14.2 -9.0 -14.5 -7.95 -15.0 -6.0 -15.9 -4.2 L-16.65 -2.85 -16.8 -2.55 -18.3 -0.35 -18.6 0.0 -19.1 0.55 -19.1 0.7 -19.15 0.75 -19.2 0.8 -19.25 0.85 -19.25 0.9 -19.9 2.0 Q-20.45 3.2 -20.65 4.5 L-20.6 4.55 -20.65 4.6 -20.65 4.7 -20.7 4.8 -20.7 4.9 -20.7 5.0 -20.75 5.1 -20.75 5.15 -20.8 5.15 -20.8 5.2 -20.8 5.45 -20.85 5.8 -20.95 5.85 -20.95 5.9 -20.95 6.0 -20.95 6.1 -20.95 6.35 -20.95 6.4 -21.05 6.5 -21.15 6.6 -21.15 6.7 -21.15 6.75 -21.15 7.1 -21.15 7.2 -21.15 7.3 -21.15 7.4 -21.15 8.5 -21.15 8.55 -21.15 9.45 -21.15 9.55 -21.1 9.65 -21.1 9.75 -21.1 9.8 -21.1 9.9 -21.1 10.0 -20.95 10.1 -20.9 10.2 -20.9 10.3 -20.9 10.4 -20.9 10.5 -20.85 10.6 -20.8 10.65 -20.8 10.75 M-28.25 -10.5 L-28.25 -10.55 -28.2 -10.5 -28.25 -10.5 M-22.05 -4.25 L-22.15 -4.2 -22.1 -4.25 -22.05 -4.25 M-20.35 3.9 L-20.3 3.75 -20.3 3.8 -20.35 3.9 M-13.35 -6.7 L-13.45 -6.75 -13.4 -6.95 -13.4 -7.1 -13.4 -7.15 -13.35 -7.15 -13.35 -7.1 -13.35 -6.7 M15.75 -12.05 L15.65 -12.05 15.6 -12.1 15.75 -12.05 M3.35 -12.75 L3.35 -12.8 3.4 -12.85 3.5 -12.9 3.65 -12.85 3.35 -12.75 M18.7 -5.8 L18.65 -5.85 18.8 -5.85 18.75 -5.8 18.7 -5.8 M1.6 18.7 L1.65 18.7 Q7.8 18.55 13.05 14.65 L13.85 13.95 14.8 12.8 15.4 11.9 15.55 11.65 15.65 11.85 15.65 11.9 Q16.25 12.6 17.1 12.7 L16.85 12.7 16.75 12.7 16.8 12.75 16.75 12.8 16.7 12.85 16.7 12.95 16.65 13.05 16.6 13.1 16.6 13.15 16.5 13.3 16.5 13.4 Q14.95 15.3 13.0 16.7 L11.75 17.55 8.35 19.7 8.0 19.85 8.45 19.75 7.2 20.2 7.0 20.25 7.1 20.3 7.2 20.35 7.2 20.45 7.25 20.5 7.25 20.55 7.1 20.4 6.6 20.0 Q5.45 19.05 4.0 18.85 L3.7 18.8 2.9 18.75 2.25 18.75 1.75 18.75 1.65 18.75 1.6 18.7 M18.25 12.75 L18.6 12.7 18.6 12.75 18.75 12.75 18.65 12.8 18.25 12.75 M16.65 12.65 L16.6 12.6 16.5 12.65 16.65 12.65" fill="#595959" fill-rule="evenodd" stroke="none"/>
      <path d="M7.0 -12.45 L7.3 -12.45 7.7 -12.35 Q8.0 -12.15 8.35 -11.9 L8.45 -11.9 10.9 -9.95 10.9 -9.9 11.55 -9.1 11.65 -9.05 11.65 -9.0 11.7 -8.95 11.95 -8.5 12.1 -8.1 12.05 -7.7 12.05 -7.65 12.15 -7.55 12.15 -7.5 12.25 -6.85 12.25 -6.75 12.25 -6.55 12.2 -5.85 12.15 -5.8 12.1 -5.6 12.05 -5.5 11.75 -5.25 11.5 -5.1 11.4 -5.0 11.35 -5.0 9.6 -4.7 8.75 -4.75 8.5 -4.8 8.2 -4.8 Q7.85 -4.85 7.65 -5.05 5.8 -5.55 4.35 -6.5 3.0 -7.45 2.05 -8.75 L1.65 -9.55 1.5 -10.15 1.5 -10.75 Q1.45 -11.2 1.65 -11.55 L1.7 -11.65 1.9 -11.9 3.0 -12.65 3.05 -12.65 3.35 -12.75 3.65 -12.85 4.35 -12.95 4.95 -12.95 5.1 -12.95 5.15 -12.9 5.85 -12.8 7.0 -12.45 M-3.85 -12.7 L-4.65 -12.75 -5.65 -12.55 Q-7.65 -12.1 -9.1 -10.7 L-9.5 -10.3 -9.6 -10.25 -9.65 -10.1 -9.65 -10.05 -10.1 -9.65 -10.15 -9.45 -10.45 -9.05 -10.55 -8.55 -10.7 -8.05 -10.8 -8.05 -10.8 -8.0 -10.9 -7.35 -10.9 -6.8 -10.85 -6.75 -10.85 -6.7 -10.8 -6.7 -10.8 -6.6 -10.8 -6.45 -10.8 -6.4 -10.75 -6.35 -10.7 -6.35 -10.7 -6.3 -10.65 -6.25 -10.6 -6.2 -10.5 -6.05 -10.45 -6.0 -10.4 -5.9 -10.4 -5.85 -10.2 -5.8 -10.15 -5.75 -10.1 -5.7 -10.05 -5.7 -10.0 -5.65 -9.95 -5.65 -9.8 -5.6 -9.75 -5.55 -9.6 -5.5 -9.45 -5.5 -9.35 -5.5 -8.65 -5.4 -8.65 -5.45 -8.6 -5.45 -8.4 -5.4 Q-6.95 -5.7 -5.65 -6.4 L-4.15 -7.4 -4.1 -7.45 -4.0 -7.5 -3.4 -8.05 -3.05 -8.4 -3.0 -8.45 -2.95 -8.5 -2.65 -8.85 -2.6 -8.95 -2.25 -9.4 -2.25 -9.5 -2.25 -9.55 Q-1.95 -10.15 -2.0 -10.85 L-2.05 -11.15 -2.05 -11.2 -2.1 -11.4 -2.1 -11.45 -2.15 -11.7 -2.3 -11.9 -2.35 -11.95 -2.5 -12.2 -2.6 -12.25 -2.65 -12.3 -2.75 -12.35 -2.8 -12.35 -2.85 -12.4 -2.95 -12.45 -3.2 -12.55 -3.3 -12.55 -3.4 -12.6 -3.6 -12.65 -3.65 -12.65 -3.85 -12.7 M-6.9 -12.55 L-6.85 -12.6 -5.65 -12.95 -5.45 -13.0 -4.6 -13.05 -2.65 -12.85 -1.6 -12.1 -1.4 -11.85 -1.25 -10.9 -1.25 -10.3 Q-1.3 -9.8 -1.5 -9.3 L-1.6 -9.2 -1.85 -8.75 -3.55 -7.0 -3.8 -6.85 -4.2 -6.55 -4.35 -6.4 -4.4 -6.4 -5.65 -5.8 -7.25 -5.2 -7.3 -5.15 -7.95 -5.0 -8.15 -5.0 -8.35 -4.95 -9.1 -4.85 Q-10.1 -4.75 -10.9 -5.15 L-10.95 -5.15 -10.95 -5.2 -11.3 -5.45 -11.6 -5.85 -11.6 -5.9 -11.7 -6.0 -11.75 -6.05 -11.75 -6.1 -11.8 -6.6 -11.8 -6.65 -11.8 -6.75 -11.7 -7.6 -11.65 -7.75 -11.55 -7.85 -11.55 -7.9 -11.55 -8.15 -11.5 -8.35 -11.4 -8.55 -11.4 -8.7 -11.3 -8.9 -11.3 -8.95 -11.15 -9.15 -11.15 -9.2 -11.05 -9.25 -10.55 -9.95 -10.5 -10.05 Q-9.25 -11.4 -7.55 -12.35 L-7.45 -12.35 -7.4 -12.35 -7.3 -12.45 -6.9 -12.55 M6.45 -5.95 L7.7 -5.5 8.8 -5.25 8.85 -5.25 9.5 -5.2 9.95 -5.3 10.0 -5.3 10.1 -5.3 10.15 -5.3 10.15 -5.35 10.8 -5.65 10.85 -5.8 11.1 -6.05 11.2 -6.25 11.35 -7.0 11.1 -8.1 11.1 -8.2 11.0 -8.6 11.0 -8.7 10.9 -8.75 10.85 -8.8 10.8 -8.8 10.8 -8.95 10.7 -9.05 10.6 -9.15 10.55 -9.3 10.35 -9.6 10.15 -9.75 10.15 -9.85 10.15 -9.95 10.05 -10.05 9.95 -10.15 9.6 -10.55 Q7.7 -12.3 5.0 -12.55 L4.35 -12.55 3.65 -12.35 3.35 -12.2 2.85 -11.7 2.8 -11.7 2.75 -11.65 2.55 -11.2 2.5 -11.15 2.4 -10.6 2.45 -10.0 2.45 -9.95 2.5 -9.85 2.55 -9.8 2.6 -9.35 2.85 -8.95 2.9 -8.9 2.9 -8.8 2.95 -8.75 2.95 -8.7 3.05 -8.6 3.25 -8.45 3.45 -8.2 3.95 -7.65 4.0 -7.65 4.35 -7.3 6.2 -6.1 6.25 -6.05 6.45 -5.95" fill="#404040" fill-rule="evenodd" stroke="none"/>
      <path d="M-10.15 -5.75 L-10.2 -5.8 -10.4 -5.85 -10.4 -5.9 -10.45 -6.0 -10.5 -6.05 -10.6 -6.2 -10.65 -6.25 -10.7 -6.3 -10.7 -6.35 -10.75 -6.35 -10.8 -6.4 -10.8 -6.45 -10.8 -6.6 -10.8 -6.7 -10.85 -6.7 -10.85 -6.75 -10.9 -6.8 -10.9 -7.35 -10.8 -8.0 -10.8 -8.05 -10.7 -8.05 -10.55 -8.55 -10.45 -9.05 -10.15 -9.45 -10.1 -9.65 -9.65 -10.05 -9.65 -10.1 -9.6 -10.25 -9.5 -10.3 -9.1 -10.7 Q-7.65 -12.1 -5.65 -12.55 L-4.65 -12.75 -3.85 -12.7 -5.7 -12.15 Q-6.95 -11.55 -7.65 -10.6 L-7.75 -10.5 -7.8 -10.4 -7.85 -10.3 -7.85 -10.25 -7.9 -10.2 -8.0 -10.1 -8.1 -10.0 -8.1 -9.95 -8.15 -9.85 -8.2 -9.75 -8.25 -9.7 -8.25 -9.65 -8.3 -9.55 -8.4 -9.4 -8.5 -9.2 -8.5 -9.15 -8.5 -9.05 -8.5 -9.0 -8.5 -8.9 -8.55 -8.8 -8.6 -8.75 -8.65 -8.5 -8.65 -8.2 -8.65 -7.95 -8.55 -7.85 -8.55 -7.75 -8.45 -7.6 -8.45 -7.55 -8.35 -7.5 -8.2 -7.3 -7.65 -6.95 -7.4 -6.95 -6.4 -6.95 -4.95 -7.25 -4.8 -7.3 -4.7 -7.3 -4.7 -7.35 -4.65 -7.4 -4.35 -7.45 -3.7 -7.9 -3.4 -8.05 -4.0 -7.5 -4.1 -7.45 -4.2 -7.4 -4.15 -7.4 -5.65 -6.4 Q-6.95 -5.7 -8.4 -5.4 L-8.6 -5.45 -8.65 -5.45 -8.65 -5.4 -9.35 -5.5 -9.45 -5.5 -9.8 -5.6 -9.95 -5.65 -10.0 -5.7 -10.15 -5.75 M-7.4 -12.35 L-7.3 -12.5 -7.25 -12.55 -7.0 -12.6 -6.9 -12.55 -7.3 -12.45 -7.4 -12.35 M3.65 -12.35 L4.35 -12.55 5.0 -12.55 Q7.7 -12.3 9.6 -10.55 L9.95 -10.15 10.05 -10.05 10.15 -9.95 10.15 -9.85 10.15 -9.75 10.35 -9.6 10.55 -9.3 10.6 -9.15 10.7 -9.05 10.8 -8.95 10.8 -8.8 10.85 -8.8 10.9 -8.75 11.0 -8.7 11.0 -8.6 11.1 -8.2 11.1 -8.1 11.35 -7.0 11.2 -6.25 11.1 -6.05 10.85 -5.8 10.8 -5.65 10.15 -5.35 10.15 -5.3 10.1 -5.3 10.0 -5.3 9.95 -5.3 9.5 -5.2 8.85 -5.25 8.8 -5.25 7.7 -5.5 6.45 -5.95 6.45 -6.0 6.25 -6.05 6.2 -6.1 4.35 -7.3 4.0 -7.65 4.1 -7.55 4.15 -7.5 4.45 -7.45 4.5 -7.35 4.55 -7.3 4.6 -7.3 4.65 -7.25 Q5.0 -6.95 5.5 -6.85 7.0 -6.25 8.65 -6.45 L9.2 -6.85 9.35 -7.05 9.35 -7.1 9.4 -7.25 9.4 -7.6 9.4 -8.05 9.35 -8.1 9.3 -8.2 9.3 -8.25 9.3 -8.45 9.25 -8.7 9.2 -8.9 9.05 -9.1 8.85 -9.4 8.85 -9.45 6.0 -11.75 5.9 -11.85 4.8 -12.25 3.85 -12.35 3.65 -12.35 M3.95 -7.65 L3.45 -8.2 3.25 -8.45 3.45 -8.25 3.6 -8.15 3.7 -8.05 3.85 -7.8 3.95 -7.65 M3.05 -8.6 L2.95 -8.7 3.0 -8.7 3.05 -8.6" fill="#bbbbbb" fill-rule="evenodd" stroke="none"/>
      <path d="M-3.05 -15.95 L0.0 -15.9 0.1 -15.8 0.35 -15.55 0.7 -15.35 0.75 -15.3 0.8 -15.3 1.45 -14.85 1.65 -14.75 4.5 -13.5 7.0 -12.45 5.85 -12.8 5.15 -12.9 5.1 -12.95 4.95 -12.95 4.35 -12.95 3.65 -12.85 3.5 -12.9 3.4 -12.85 3.35 -12.8 3.35 -12.75 3.05 -12.65 3.0 -12.65 2.7 -12.7 1.65 -12.8 1.45 -12.85 0.8 -13.0 0.75 -13.0 0.7 -13.0 Q-0.75 -13.45 -2.2 -14.2 L-2.65 -14.7 -2.9 -15.0 -2.95 -15.1 -2.95 -15.25 -3.0 -15.3 -3.05 -15.4 -3.0 -15.75 -2.95 -15.85 -3.05 -15.95 M26.4 -10.3 L26.1 -10.1 26.05 -10.1 26.05 -10.05 25.85 -9.95 25.0 -9.05 24.9 -8.95 24.5 -8.6 24.45 -8.45 24.25 -8.25 24.15 -8.35 24.1 -8.35 23.6 -8.4 23.55 -8.45 23.55 -8.5 22.35 -8.65 22.3 -8.65 21.85 -8.75 21.25 -8.9 21.05 -8.95 20.0 -9.2 19.65 -9.3 19.1 -9.5 17.9 -10.0 Q16.85 -10.45 16.0 -11.25 L15.85 -11.45 15.85 -11.5 15.6 -11.65 15.55 -11.75 15.45 -11.85 15.4 -11.9 15.45 -11.9 15.4 -11.95 15.4 -12.1 15.5 -12.1 15.6 -12.1 15.65 -12.05 15.75 -12.05 15.75 -11.95 15.8 -11.95 15.85 -11.9 Q17.65 -11.0 19.65 -10.6 L19.9 -10.6 20.0 -10.55 21.05 -10.45 21.25 -10.4 21.35 -10.4 21.85 -10.35 22.3 -10.3 22.35 -10.3 23.55 -10.2 25.0 -10.25 25.15 -10.25 25.35 -10.2 26.2 -10.25 26.4 -10.3 M-25.1 -8.65 L-25.2 -8.8 -25.25 -8.85 -25.25 -8.95 -25.55 -9.25 -25.7 -9.4 -24.05 -8.7 -22.7 -8.55 -22.3 -8.5 -21.4 -8.5 -20.6 -8.55 -20.1 -8.6 -19.95 -8.6 -19.75 -8.65 -19.4 -8.75 -17.25 -9.45 -16.65 -9.8 -16.35 -10.0 -15.15 -10.75 -15.0 -10.9 -14.75 -11.0 -14.5 -11.15 -14.25 -11.15 -14.2 -11.15 -14.1 -11.05 -14.0 -10.95 -13.95 -10.9 -13.9 -10.8 -13.85 -10.8 -13.8 -10.65 -13.8 -10.6 -13.4 -8.8 -13.35 -7.2 -13.35 -7.15 -13.4 -7.15 -13.4 -7.1 -13.4 -6.95 -13.45 -6.75 -13.35 -6.7 Q-13.45 -4.5 -15.35 -2.65 L-18.55 0.7 -18.6 0.75 -19.3 1.7 -19.35 1.8 -19.35 1.9 -19.5 2.0 -19.65 2.35 -19.65 2.3 -19.75 2.55 -19.85 2.8 -19.95 2.95 -19.95 3.05 -20.0 3.1 -20.05 3.15 -20.1 3.25 -20.15 3.35 -20.2 3.55 -20.25 3.65 -20.3 3.75 -20.35 3.9 -20.35 4.0 -20.4 4.15 -20.45 4.5 -20.5 4.55 -20.55 4.55 -20.55 4.65 -20.6 4.7 -20.6 4.55 -20.65 4.5 Q-20.45 3.2 -19.9 2.0 L-19.25 0.9 -19.25 0.85 -19.2 0.8 -19.15 0.75 -19.1 0.7 -19.1 0.55 -18.6 0.0 -18.3 -0.35 -16.8 -2.55 -16.65 -2.85 -15.9 -4.2 Q-15.0 -6.0 -14.5 -7.95 -14.2 -9.0 -14.25 -10.0 L-14.4 -10.05 -14.8 -10.0 -16.65 -9.15 -17.15 -8.95 -17.9 -8.7 -19.75 -8.15 -20.1 -8.05 -20.3 -8.05 -20.6 -8.0 -21.4 -7.8 -21.75 -7.75 -22.3 -7.65 -24.05 -7.95 -25.0 -8.55 -25.0 -8.6 -25.05 -8.65 -25.1 -8.65" fill="#707070" fill-rule="evenodd" stroke="none"/>
      <path d="M-15.65 -12.55 L-15.65 -12.45 -15.6 -12.45 -15.45 -12.45 -15.4 -12.55 -15.3 -12.6 -15.2 -12.7 -15.2 -12.75 -14.95 -13.25 -14.85 -13.4 -14.65 -13.45 -14.45 -13.75 -14.45 -13.95 -14.0 -14.35 -13.3 -15.0 -13.2 -15.05 -12.6 -15.45 -12.4 -15.5 -12.4 -15.6 -12.35 -15.65 -12.1 -15.75 -11.95 -15.75 -11.95 -15.8 -11.9 -15.8 -11.85 -15.85 -11.8 -15.9 -11.75 -15.9 -11.65 -15.9 -11.65 -15.95 -8.25 -15.95 -7.4 -15.95 -5.65 -15.95 -3.05 -15.95 -2.95 -15.85 -3.0 -15.75 -3.05 -15.4 -3.0 -15.3 -2.95 -15.25 -2.95 -15.1 -2.9 -15.0 -2.65 -14.7 -2.2 -14.2 Q-0.75 -13.45 0.7 -13.0 L0.75 -13.0 0.8 -13.0 1.45 -12.85 1.65 -12.8 2.7 -12.7 3.0 -12.65 1.9 -11.9 1.7 -11.65 1.65 -11.55 Q1.45 -11.2 1.5 -10.75 L1.5 -10.15 1.65 -9.55 2.05 -8.75 Q3.0 -7.45 4.35 -6.5 5.8 -5.55 7.65 -5.05 7.85 -4.85 8.2 -4.8 L8.5 -4.8 8.75 -4.75 9.6 -4.7 11.35 -5.0 11.4 -5.0 11.5 -5.1 11.75 -5.25 11.8 -5.25 11.9 -5.15 11.9 -5.1 11.9 -5.0 12.0 -4.9 12.05 -4.8 12.05 -4.75 12.1 -4.7 12.15 -4.6 12.25 -4.45 12.4 -4.25 12.5 -4.15 12.5 -4.05 12.55 -3.95 13.0 -3.6 13.2 -3.45 13.35 -3.4 13.35 -3.35 13.4 -3.35 13.7 -3.1 Q14.1 -2.75 14.6 -2.7 L15.75 -2.3 19.25 -2.1 19.3 -1.65 19.3 -0.85 19.2 1.05 19.05 2.55 Q18.9 4.25 18.35 5.9 L18.2 6.35 18.15 6.4 17.9 7.1 17.35 8.55 15.8 11.05 16.45 8.9 16.55 8.55 16.95 7.15 16.95 7.1 16.95 6.35 16.95 6.3 17.0 5.9 17.05 5.3 17.0 5.2 16.95 5.15 16.95 3.85 16.85 3.35 16.65 2.3 16.65 2.0 16.6 1.85 16.65 1.8 16.7 1.7 16.65 1.6 16.65 1.55 16.6 1.5 16.55 1.4 16.55 1.2 16.55 1.15 16.5 1.1 16.5 1.0 16.45 0.95 16.45 0.9 16.6 -0.45 16.0 -1.35 15.9 -1.5 15.8 -1.5 15.5 -1.75 15.5 -1.85 15.45 -1.9 15.4 -1.8 15.0 -2.05 13.15 -2.8 10.0 -3.7 8.85 -3.95 7.4 -4.2 6.9 -4.3 5.75 -4.6 2.3 -5.1 1.65 -5.05 1.6 -5.05 1.45 -5.05 0.8 -5.1 0.7 -5.1 -0.7 -5.15 -6.1 -4.6 -7.1 -4.4 -7.45 -4.3 -9.4 -3.65 -9.5 -3.6 -10.2 -3.4 -10.95 -3.1 -11.75 -2.75 -11.85 -2.7 -12.3 -2.5 -13.1 -2.1 -13.25 -2.05 -13.3 -1.95 -13.3 -2.0 -13.8 -1.65 -13.9 -1.55 -14.0 -1.5 -14.05 -1.45 -14.4 -1.35 -14.45 -1.3 -14.55 -1.2 -14.95 -0.9 -15.0 -0.85 -15.05 -0.9 -15.1 -0.85 -15.15 -0.8 -15.4 -0.3 -15.6 -0.1 -15.6 -0.05 -15.65 0.2 -15.65 0.3 -15.6 0.45 -15.65 0.6 -15.3 1.05 -15.35 1.05 -15.35 1.1 -15.35 1.2 -15.35 1.35 -15.45 1.5 -15.5 1.5 -15.55 1.8 -15.6 1.9 -15.85 3.3 -15.9 3.85 -15.9 5.1 -15.95 5.15 -15.85 5.9 -15.8 6.35 -15.65 7.1 -15.5 8.0 -15.35 8.55 -15.35 8.75 -15.35 8.8 -15.3 9.05 -15.25 9.05 -15.2 9.1 -14.65 10.55 -14.25 11.45 -14.2 11.55 -14.2 11.6 -14.1 11.7 -14.05 11.75 -14.05 11.85 -13.95 12.0 -13.9 12.15 -13.7 12.45 -13.65 12.65 -13.45 12.75 -13.0 13.3 -12.85 13.55 -12.8 13.65 -12.8 13.75 -12.65 13.85 -12.6 13.9 -12.3 14.2 -12.25 14.25 -12.1 14.5 -11.9 14.5 -11.85 14.55 -11.85 14.65 -11.8 14.7 -11.7 14.75 -11.7 14.85 Q-8.8 16.95 -5.65 17.9 -3.35 18.55 -0.8 18.6 L-0.7 18.65 0.65 18.7 0.25 18.8 -0.8 18.9 -2.95 19.1 -5.3 18.85 -7.3 18.7 -7.95 18.5 -8.8 18.25 -9.9 17.95 -11.65 17.1 -11.7 17.1 -11.8 17.0 -11.8 16.95 -12.1 16.85 -12.25 16.75 -12.7 16.5 -15.8 13.75 Q-17.45 12.05 -18.4 9.9 L-19.0 8.55 -19.3 7.1 -19.4 6.35 -19.45 5.9 -19.5 5.6 Q-19.65 3.6 -19.3 1.7 L-18.6 0.75 -18.55 0.7 -15.35 -2.65 Q-13.45 -4.5 -13.35 -6.7 L-13.35 -7.1 -13.35 -7.15 -13.35 -7.2 -13.4 -8.8 -13.8 -10.6 -13.8 -10.65 -13.85 -10.8 -13.9 -10.8 -13.95 -10.9 -14.0 -10.95 -14.1 -11.05 -14.2 -11.15 -14.25 -11.15 -14.5 -11.15 -14.75 -11.0 -15.0 -10.9 -15.15 -10.75 -16.35 -10.0 -16.65 -9.8 -17.25 -9.45 -19.4 -8.75 -19.75 -8.65 -19.95 -8.6 -20.1 -8.6 -20.6 -8.55 -21.4 -8.5 -22.3 -8.5 -22.7 -8.55 -24.05 -8.7 -25.7 -9.4 -26.75 -10.3 -26.45 -10.25 -26.4 -10.25 -26.2 -10.15 -25.6 -10.0 -24.05 -10.0 -22.3 -10.0 -22.25 -10.0 -21.5 -10.2 -21.45 -10.25 -21.4 -10.25 -20.6 -10.4 -20.55 -10.45 -20.1 -10.6 -19.8 -10.7 -19.75 -10.75 -19.4 -10.8 -18.65 -11.15 -17.5 -11.55 -16.9 -11.9 -16.85 -11.95 -16.8 -12.0 -16.65 -12.05 Q-16.45 -12.15 -16.35 -12.2 L-16.3 -12.3 -16.25 -12.4 -16.2 -12.35 -16.0 -12.4 -15.95 -12.4 -15.9 -12.45 -15.65 -12.55 M19.7 -2.35 L19.8 -2.2 19.6 -2.15 19.6 -2.2 19.65 -2.3 19.7 -2.35 M-20.45 11.4 L-20.5 11.35 -20.55 11.25 -20.65 11.1 -20.5 11.1 -20.45 11.4 M-7.4 -12.35 L-7.45 -12.35 -7.55 -12.35 Q-9.25 -11.4 -10.5 -10.05 L-10.55 -9.95 -11.05 -9.25 -11.15 -9.2 -11.15 -9.15 -11.3 -8.95 -11.3 -8.9 -11.4 -8.7 -11.4 -8.55 -11.5 -8.35 -11.55 -8.15 -11.55 -7.9 -11.55 -7.85 -11.65 -7.75 -11.7 -7.6 -11.8 -6.75 -11.8 -6.65 -11.8 -6.6 -11.75 -6.1 -11.75 -6.05 -11.7 -6.0 -11.6 -5.9 -11.6 -5.85 -11.3 -5.45 -10.95 -5.2 -10.95 -5.15 -10.9 -5.15 Q-10.1 -4.75 -9.1 -4.85 L-8.35 -4.95 -8.15 -5.0 -7.95 -5.0 -7.3 -5.15 -7.25 -5.2 -5.65 -5.8 -4.4 -6.4 -4.35 -6.4 -4.2 -6.55 -3.8 -6.85 -3.55 -7.0 -1.85 -8.75 -1.6 -9.2 -1.5 -9.3 Q-1.3 -9.8 -1.25 -10.3 L-1.25 -10.9 -1.4 -11.85 -1.6 -12.1 -2.65 -12.85 -4.6 -13.05 -5.45 -13.0 -5.65 -12.95 -6.85 -12.6 -6.9 -12.55 -7.0 -12.6 -7.25 -12.55 -7.3 -12.5 -7.4 -12.35 M-2.0 2.35 L-2.05 2.4 -2.0 2.45 -2.05 2.45 -2.15 2.4 -2.6 2.25 -2.8 2.05 -2.9 1.9 -3.0 1.75 -3.0 1.7 -3.1 1.6 -3.1 1.5 -3.2 1.5 -3.2 1.4 -3.2 1.3 -3.2 1.15 -3.2 1.1 -3.2 1.0 -3.1 1.0 -3.1 0.9 -2.95 0.9 -2.9 0.9 -2.9 1.0 -2.9 1.05 -2.9 1.1 -2.8 1.25 -2.8 1.3 -2.8 1.35 -2.75 1.5 -2.3 2.1 -2.0 2.35 M4.95 0.5 L5.0 0.5 5.15 0.6 5.15 0.75 5.15 0.9 Q4.75 2.1 3.65 2.85 3.2 3.25 2.55 3.3 4.05 2.7 4.7 1.3 L4.8 1.15 4.85 0.9 4.85 0.85 4.9 0.75 4.95 0.65 4.95 0.55 4.95 0.5 M0.1 3.1 L0.4 3.25 0.65 3.35 0.25 3.35 -0.15 3.3 -0.15 3.25 -0.2 3.2 -0.2 3.15 -0.15 3.1 -0.05 3.1 0.05 3.1 0.1 3.1 M19.1 12.6 L19.15 12.5 19.25 12.4 19.3 12.4 19.25 12.5 19.25 12.55 19.1 12.6 M-12.8 16.8 L-12.85 16.75 -12.65 16.8 -12.75 16.8 -12.8 16.8" fill="#ffffff" fill-rule="evenodd" stroke="none"/>
      <path d="M-3.4 -8.05 L-3.7 -7.9 -4.35 -7.45 -4.65 -7.4 -4.7 -7.35 -4.7 -7.3 -4.8 -7.3 -4.95 -7.25 -6.4 -6.95 -7.4 -6.95 -7.65 -6.95 -8.2 -7.3 -8.35 -7.5 -8.45 -7.55 -8.45 -7.6 -8.55 -7.75 -8.55 -7.85 -8.65 -7.95 -8.65 -8.2 -8.65 -8.5 -8.6 -8.75 -8.55 -8.8 -8.5 -8.9 -8.5 -9.0 -8.5 -9.05 -8.5 -9.15 -8.5 -9.2 -8.4 -9.4 -8.3 -9.55 -8.25 -9.65 -8.25 -9.7 -8.2 -9.75 -8.15 -9.85 -8.1 -9.95 -8.1 -10.0 -8.0 -10.1 -7.9 -10.2 -7.85 -10.25 -7.85 -10.3 -7.8 -10.4 -7.75 -10.5 -7.65 -10.6 Q-6.95 -11.55 -5.7 -12.15 L-3.85 -12.7 -3.65 -12.65 -3.6 -12.65 -3.4 -12.6 -3.3 -12.55 -3.2 -12.55 -2.95 -12.45 -2.85 -12.4 -2.8 -12.35 -2.75 -12.35 -2.65 -12.3 -2.6 -12.25 -2.5 -12.2 -2.35 -11.95 -2.3 -11.9 -2.15 -11.7 -2.1 -11.45 -2.1 -11.4 -2.05 -11.2 -2.05 -11.15 -2.0 -10.85 Q-1.95 -10.15 -2.25 -9.55 L-2.25 -9.5 -2.25 -9.4 -2.6 -8.95 -2.65 -8.85 -2.95 -8.5 -3.0 -8.45 -3.05 -8.4 -3.4 -8.05 M-6.35 -10.0 L-6.35 -9.85 -6.45 -9.75 -6.55 -9.65 -6.55 -9.5 -6.55 -9.2 -6.45 -9.15 -6.25 -8.65 -5.0 -8.4 -4.9 -8.45 -4.8 -8.45 -4.75 -8.45 -4.35 -8.6 Q-4.05 -9.1 -4.15 -9.65 L-4.15 -9.75 -4.2 -9.8 -4.3 -10.05 -4.35 -10.1 -4.4 -10.2 -4.5 -10.25 -4.95 -10.4 -5.6 -10.4 -6.15 -10.25 -6.35 -10.0 M4.0 -7.65 L3.95 -7.65 3.85 -7.8 3.7 -8.05 3.6 -8.15 3.45 -8.25 3.25 -8.45 3.05 -8.6 3.0 -8.7 2.95 -8.7 2.95 -8.75 2.9 -8.8 2.9 -8.9 2.85 -8.95 2.6 -9.35 2.55 -9.8 2.5 -9.85 2.45 -9.95 2.45 -10.0 2.4 -10.6 2.5 -11.15 2.55 -11.2 2.75 -11.65 2.8 -11.7 2.85 -11.7 3.35 -12.2 3.65 -12.35 3.85 -12.35 4.8 -12.25 5.9 -11.85 6.0 -11.75 8.85 -9.45 8.85 -9.4 9.05 -9.1 9.2 -8.9 9.25 -8.7 9.3 -8.45 9.3 -8.25 9.3 -8.2 9.35 -8.1 9.4 -8.05 9.4 -7.6 9.4 -7.25 9.35 -7.1 9.35 -7.05 9.2 -6.85 8.65 -6.45 Q7.0 -6.25 5.5 -6.85 5.0 -6.95 4.65 -7.25 L4.6 -7.3 4.55 -7.3 4.5 -7.35 4.45 -7.45 4.15 -7.5 4.1 -7.55 4.0 -7.65 M3.85 -9.8 L3.85 -9.6 3.85 -9.45 3.85 -9.4 3.95 -9.35 4.15 -8.8 6.1 -8.75 Q6.4 -9.25 6.3 -9.8 L6.3 -9.95 6.25 -10.0 6.15 -10.25 6.1 -10.25 6.05 -10.35 5.95 -10.45 5.4 -10.6 4.8 -10.6 4.25 -10.45 4.05 -10.15 4.05 -10.0 3.95 -9.95 3.85 -9.8" fill="#f7f7f7" fill-rule="evenodd" stroke="none"/>
      <path d="M-13.1 -2.1 L-12.3 -2.5 -11.85 -2.7 -11.75 -2.75 -11.45 -2.85 Q-10.9 -3.05 -10.3 -3.3 L-12.4 -2.1 -12.65 -1.85 -12.65 -1.6 -12.45 -1.7 Q-11.0 -2.7 -9.45 -3.3 L-7.05 -3.95 -6.7 -4.05 -6.1 -4.15 -1.2 -4.75 0.7 -4.75 0.8 -4.75 1.45 -4.75 1.65 -4.75 4.2 -4.55 4.9 -4.45 8.3 -3.75 11.05 -3.2 11.15 -3.2 13.05 -2.35 14.7 -1.35 13.95 -0.7 Q12.5 0.15 11.05 0.8 L7.1 2.1 6.8 2.1 5.9 2.3 6.5 0.85 6.5 0.8 7.8 0.45 8.85 0.15 8.9 0.2 10.35 -0.35 10.55 -0.35 12.1 -1.25 12.15 -1.25 12.35 -1.4 12.35 -1.45 12.4 -1.5 12.4 -1.65 12.35 -1.7 12.3 -1.8 12.15 -1.95 12.1 -1.95 11.95 -2.0 11.75 -2.1 11.75 -2.2 11.65 -2.25 11.5 -2.35 11.1 -2.5 11.05 -2.5 11.05 -2.55 9.8 -3.05 8.35 -3.45 7.95 -3.6 5.4 -4.15 5.2 -4.15 4.8 -4.2 4.4 -4.25 4.35 -4.25 4.3 -4.3 3.85 -4.3 3.8 -4.3 3.6 -4.25 2.3 -4.4 1.65 -4.4 1.45 -4.4 0.8 -4.4 0.7 -4.4 0.05 -4.4 -3.8 -4.25 -3.85 -4.2 -3.85 -4.15 -4.15 -4.15 -5.1 -4.05 -8.5 -3.25 -10.85 -2.05 -10.9 -2.0 -10.95 -1.95 -11.15 -1.8 -11.15 -1.75 -11.2 -1.75 -11.2 -1.7 -11.25 -1.65 -11.25 -1.55 -11.3 -1.55 -11.3 -1.5 -11.35 -1.45 -11.4 -1.4 -11.4 -1.3 -11.6 -0.95 -11.6 -0.85 -11.55 -0.65 Q-9.5 0.3 -7.25 0.9 L-4.45 1.4 -4.25 1.45 -4.2 1.55 -4.0 2.1 -3.45 2.65 -3.4 2.7 -3.6 2.7 -5.05 2.45 -8.5 1.8 -11.85 0.9 -13.3 0.35 -14.2 -0.7 -14.2 -0.95 -13.9 -1.25 -13.85 -1.25 -13.8 -1.3 -13.7 -1.4 -13.6 -1.5 -12.25 -2.5 -12.9 -2.1 -13.1 -2.1 M7.4 -4.2 L8.85 -3.95 10.0 -3.7 10.0 -3.65 10.0 -3.6 10.4 -3.45 9.2 -3.8 7.4 -4.2 M-14.05 -1.45 L-14.35 -1.35 -14.4 -1.35 -14.05 -1.45 M-14.45 -1.3 L-14.45 -1.25 -14.5 -1.2 -14.55 -1.2 -14.55 -1.15 -14.85 -0.9 -14.95 -0.9 -14.55 -1.2 -14.45 -1.3 M-15.0 -0.85 L-15.05 -0.85 -15.1 -0.8 -15.1 -0.85 -15.05 -0.9 -15.0 -0.85 M3.75 1.4 Q3.35 2.2 2.6 2.6 L2.15 2.8 1.65 2.9 1.6 2.9 1.55 2.9 1.45 2.9 0.8 2.95 0.75 2.95 0.7 2.9 0.6 2.85 0.3 2.8 0.15 2.75 0.1 2.75 -0.25 2.65 -1.6 1.65 0.7 1.65 0.8 1.65 1.45 1.6 1.65 1.6 2.45 1.5 3.6 1.4 3.75 1.4" fill="#be967c" fill-rule="evenodd" stroke="none"/>
      <path d="M-9.5 -3.6 L-9.4 -3.65 -7.45 -4.3 -7.1 -4.4 -6.1 -4.6 -0.7 -5.15 0.7 -5.1 0.8 -5.1 1.45 -5.05 1.6 -5.05 1.65 -5.05 2.3 -5.1 5.75 -4.6 6.9 -4.3 7.4 -4.2 9.2 -3.8 10.4 -3.45 10.8 -3.3 11.15 -3.2 11.05 -3.2 8.3 -3.75 4.9 -4.45 4.2 -4.55 1.65 -4.75 1.45 -4.75 0.8 -4.75 0.7 -4.75 -1.2 -4.75 -6.1 -4.15 -6.7 -4.05 -7.05 -3.95 -9.45 -3.3 Q-11.0 -2.7 -12.45 -1.7 L-12.65 -1.6 -12.65 -1.85 -12.4 -2.1 -10.3 -3.3 -10.15 -3.35 -9.5 -3.6 M-4.25 1.45 L-4.45 1.4 -7.25 0.9 Q-9.5 0.3 -11.55 -0.65 L-11.6 -0.85 -11.6 -0.95 -11.4 -1.3 -11.4 -1.4 -11.35 -1.45 -11.3 -1.5 -11.3 -1.55 -11.25 -1.55 -11.25 -1.65 -11.2 -1.7 -11.2 -1.75 -11.15 -1.75 -11.15 -1.8 -10.95 -1.95 -10.9 -2.0 -10.85 -2.05 -8.5 -3.25 -5.1 -4.05 -4.15 -4.15 -3.85 -4.15 -3.85 -4.2 -3.8 -4.25 0.05 -4.4 0.7 -4.4 0.8 -4.4 1.45 -4.4 1.65 -4.4 2.3 -4.4 3.6 -4.25 3.8 -4.3 3.85 -4.3 4.3 -4.3 4.35 -4.25 4.4 -4.25 4.8 -4.2 5.2 -4.15 5.4 -4.15 7.95 -3.6 8.35 -3.45 9.8 -3.05 11.05 -2.55 11.05 -2.5 11.1 -2.5 11.5 -2.35 11.65 -2.25 11.75 -2.2 11.75 -2.1 11.95 -2.0 12.1 -1.95 12.15 -1.95 12.3 -1.8 12.35 -1.7 12.4 -1.65 12.4 -1.5 12.35 -1.45 12.35 -1.4 12.15 -1.25 12.1 -1.25 10.55 -0.35 10.35 -0.35 8.9 0.2 8.85 0.15 7.8 0.45 6.5 0.8 6.5 0.4 6.5 0.25 7.6 0.05 Q7.35 -1.0 6.1 -1.35 3.75 -1.95 2.1 -1.0 2.75 0.3 4.1 0.3 L3.75 1.35 3.75 1.4 3.6 1.4 2.45 1.5 1.65 1.6 1.45 1.6 0.8 1.65 0.7 1.65 -1.6 1.65 -2.15 0.4 Q-0.75 0.2 0.0 -1.1 -2.9 -2.1 -5.45 -0.35 L-5.45 -0.25 -5.1 0.3 -4.8 0.45 -4.35 0.4 -4.35 0.75 -4.35 1.05 -4.25 1.45 M-3.9 1.15 L-3.95 1.0 -3.95 0.9 -3.9 1.15 M-3.95 0.85 L-3.95 0.5 -3.95 0.35 -3.9 0.3 -3.9 0.5 -3.95 0.85" fill="#e0c7af" fill-rule="evenodd" stroke="none"/>
      <path d="M-14.05 -1.45 L-14.0 -1.5 -13.9 -1.55 -13.8 -1.65 -13.3 -2.0 -13.3 -1.95 -13.25 -2.05 -13.1 -2.1 -12.9 -2.1 -12.25 -2.5 -13.6 -1.5 -13.7 -1.4 -13.8 -1.3 -13.85 -1.25 -13.9 -1.25 -14.2 -0.95 -14.2 -0.7 -13.3 0.35 -11.85 0.9 -8.5 1.8 -5.05 2.45 -3.6 2.7 -3.4 2.7 Q-2.6 3.5 -1.55 3.75 L-0.9 3.95 -0.5 4.1 0.1 4.15 0.7 4.2 0.75 4.25 0.8 4.25 1.0 4.25 1.0 4.3 0.85 4.3 0.7 4.3 -3.35 4.25 -6.95 3.7 -7.9 3.5 -8.3 3.4 -11.0 2.6 Q-12.8 2.1 -14.2 1.1 -14.85 0.65 -15.15 -0.2 L-15.15 -0.8 -15.1 -0.85 -15.1 -0.8 -15.05 -0.85 -15.0 -0.85 -14.95 -0.9 -14.85 -0.9 -14.55 -1.15 -14.55 -1.2 -14.5 -1.2 -14.45 -1.25 -14.45 -1.3 -14.4 -1.35 -14.35 -1.35 -14.05 -1.45 M10.0 -3.7 L13.15 -2.8 15.0 -2.05 15.4 -1.8 15.45 -1.9 15.5 -1.85 15.5 -1.75 15.8 -1.5 15.9 -1.5 16.0 -1.35 16.6 -0.45 16.45 0.25 15.35 1.35 14.85 1.65 14.45 1.95 14.05 2.2 14.0 2.2 13.2 2.6 12.0 2.95 11.9 3.0 10.4 3.35 9.6 3.45 5.15 4.1 2.35 4.3 2.6 4.2 3.65 3.85 4.05 3.65 5.9 2.3 6.8 2.1 7.1 2.1 11.05 0.8 Q12.5 0.15 13.95 -0.7 L14.7 -1.35 13.05 -2.35 11.15 -3.2 10.8 -3.3 10.4 -3.45 10.0 -3.6 10.0 -3.65 10.0 -3.7" fill="#8d6347" fill-rule="evenodd" stroke="none"/>
      <path d="M-3.9 0.3 L-3.9 0.2 -3.9 0.15 -3.85 0.15 -3.8 0.05 -3.75 0.05 -3.7 0.0 -3.7 -0.1 -3.6 -0.15 -3.6 -0.25 -3.45 -0.3 -3.35 -0.3 -3.0 -0.3 -2.9 -0.3 -2.7 -0.3 -2.55 -0.3 -2.55 -0.2 -2.6 -0.15 -2.6 -0.1 -2.6 0.25 -2.65 0.4 -2.5 0.9 -2.2 1.5 Q-1.35 2.7 0.0 2.95 L0.3 3.0 0.4 3.0 0.45 3.05 0.6 3.05 0.75 3.05 0.8 3.1 1.45 3.1 1.65 3.05 1.75 3.05 2.05 3.0 2.25 3.0 2.65 2.8 Q4.15 2.05 4.5 0.4 L4.5 0.25 4.45 0.05 4.5 -0.05 4.55 -0.1 4.55 -0.2 4.6 -0.2 4.65 -0.3 4.75 -0.3 5.4 -0.4 5.7 -0.3 5.75 -0.3 5.85 -0.3 5.9 -0.2 6.0 -0.05 6.05 -0.05 6.05 0.0 6.1 0.05 6.1 0.1 6.15 0.15 6.15 0.25 6.15 0.35 6.1 0.8 5.8 1.5 Q5.15 3.0 3.65 3.65 L3.6 3.7 2.65 3.95 2.6 4.0 2.55 4.0 2.3 4.05 2.05 4.1 1.8 4.1 1.65 4.1 1.45 4.1 1.2 4.1 0.8 4.1 0.7 4.1 0.0 3.95 -0.25 3.95 -0.65 3.8 -0.7 3.8 -1.35 3.55 -1.75 3.4 Q-3.35 2.65 -3.9 1.15 L-3.95 0.9 -3.95 0.85 -3.9 0.5 -3.9 0.3 M0.05 3.1 L-0.4 3.0 -0.55 3.0 -0.65 2.95 -0.8 2.9 -1.0 2.85 -1.15 2.75 -1.2 2.7 Q-2.0 2.35 -2.6 1.45 L-2.85 0.8 -2.85 0.55 -2.8 0.25 -2.85 0.25 -2.85 0.1 -2.9 0.05 -3.05 0.05 -3.2 0.05 -3.25 0.1 -3.25 0.2 -3.35 0.2 -3.45 0.35 -3.45 0.6 -3.5 0.6 -3.5 0.7 -3.5 0.8 -2.95 2.05 -2.2 2.75 -2.15 2.8 -2.1 2.85 -2.05 2.85 -1.9 2.95 -1.55 3.1 -1.5 3.15 -1.45 3.15 -1.4 3.2 -1.3 3.25 -1.3 3.3 -1.15 3.35 -1.0 3.4 -0.8 3.45 -0.3 3.55 0.1 3.65 0.15 3.65 0.25 3.65 0.15 3.7 0.45 3.7 0.7 3.75 0.75 3.75 0.8 3.75 1.2 3.8 1.3 3.85 1.45 3.85 1.65 3.85 3.0 3.65 3.15 3.6 3.85 3.3 3.95 3.2 4.0 3.2 4.0 3.15 4.05 3.15 5.1 2.2 5.5 1.65 5.7 1.25 5.85 0.85 5.9 0.7 5.9 0.6 5.85 0.55 5.8 0.45 5.8 0.35 5.75 0.3 5.75 0.25 5.6 0.2 5.5 0.2 5.4 0.1 5.25 0.15 5.25 0.2 5.15 0.25 5.0 0.3 4.95 0.35 4.95 0.4 4.95 0.5 4.95 0.55 4.95 0.65 4.9 0.75 4.85 0.8 4.85 0.85 4.85 0.9 4.8 1.15 4.65 1.35 3.65 2.55 3.2 2.85 2.45 3.15 2.3 3.15 1.65 3.25 1.45 3.25 0.8 3.25 0.65 3.25 0.35 3.15 0.1 3.1 0.05 3.1" fill="#d36d0a" fill-rule="evenodd" stroke="none"/>
      <path d="M16.45 0.9 L16.45 0.95 16.5 1.0 16.5 1.1 16.55 1.15 16.55 1.2 16.55 1.4 16.6 1.5 16.65 1.55 16.65 1.6 16.7 1.7 16.65 1.8 16.6 1.85 16.65 2.0 16.65 2.3 16.85 3.35 16.95 3.85 16.95 5.15 17.0 5.2 17.05 5.3 17.0 5.9 16.95 6.3 16.95 6.35 16.95 7.1 16.95 7.15 16.55 8.55 16.45 8.9 15.8 11.05 15.7 11.45 15.55 11.65 15.4 11.9 14.8 12.8 13.85 13.95 13.05 14.65 Q7.8 18.55 1.65 18.7 L1.6 18.7 1.45 18.7 0.85 18.7 0.65 18.7 -0.7 18.65 -0.8 18.6 Q-3.35 18.55 -5.65 17.9 -8.8 16.95 -11.7 14.85 L-11.7 14.75 -11.8 14.7 -11.85 14.65 -11.85 14.55 -11.9 14.5 -12.1 14.5 -12.25 14.25 -12.3 14.2 -12.6 13.9 -12.65 13.85 -12.8 13.75 -12.8 13.65 -12.85 13.55 -13.0 13.3 -13.45 12.75 -13.65 12.65 -13.7 12.45 -13.9 12.15 -13.95 12.0 -14.05 11.85 -14.05 11.75 -14.1 11.7 -14.2 11.6 -14.2 11.55 -14.25 11.45 -14.65 10.55 -15.2 9.1 -15.25 9.05 -15.3 9.05 -15.35 8.8 -15.35 8.75 -15.35 8.55 -15.5 8.0 -15.65 7.1 -15.8 6.35 -15.85 5.9 -15.95 5.15 -15.9 5.1 -15.9 3.85 -15.85 3.3 -15.6 1.9 -15.55 1.8 -15.5 1.5 -15.45 1.5 -15.35 1.35 -15.35 1.2 -15.35 1.1 -15.35 1.05 -15.3 1.05 -14.8 1.35 -14.65 1.55 -14.65 1.6 -14.65 1.75 -14.7 1.8 -14.7 1.85 -14.7 1.95 -14.8 2.0 -14.9 2.7 -15.05 3.7 -15.0 3.85 -15.0 4.25 -15.0 5.1 -14.9 5.9 -14.85 6.35 -14.75 7.1 -14.4 8.55 -12.85 11.95 -11.55 13.7 Q-10.2 15.3 -8.25 16.2 L-5.65 17.25 -3.45 17.8 -3.35 17.75 -1.65 18.05 0.7 18.15 0.75 18.15 0.8 18.15 1.15 18.1 1.45 18.1 1.65 18.1 4.4 17.8 4.25 17.9 Q6.75 17.4 9.2 16.3 11.1 15.4 12.5 13.8 14.6 11.45 15.45 8.55 L15.75 7.1 15.85 6.35 15.9 5.9 15.95 5.15 15.95 4.35 Q15.9 4.1 16.0 3.85 L16.0 3.8 15.85 2.8 15.85 2.6 15.95 2.5 15.8 2.4 15.8 2.2 15.8 1.9 15.8 1.8 15.8 1.75 15.85 1.7 16.45 0.9 M-4.0 -0.35 L-3.9 -0.5 -3.4 -0.85 -2.95 -0.9 -3.55 -0.5 -3.85 -0.35 -4.0 -0.35 M-2.2 -0.45 L-2.1 -0.5 -2.15 -0.55 -2.2 -0.55 -2.15 -0.6 -1.35 -0.95 -1.3 -0.9 -1.3 -0.55 -1.55 -0.35 -2.1 -0.35 -2.2 -0.45 M5.85 -0.7 L5.15 -0.85 5.7 -0.85 5.8 -0.8 Q6.15 -0.55 5.85 -0.7 M4.15 -0.3 L4.1 -0.3 3.6 -0.4 3.25 -1.0 4.15 -0.3" fill="#848484" fill-rule="evenodd" stroke="none"/>
      <path d="M-2.8 2.05 Q-2.3 2.75 -1.3 3.0 L-1.3 3.05 -1.2 3.1 -1.15 3.05 -1.15 3.0 -1.25 3.0 -1.25 2.95 -1.9 2.45 -2.0 2.35 -2.8 1.3 -2.8 1.25 -2.9 1.05 -2.9 1.0 -2.9 0.9 -2.95 0.9 -3.0 0.8 -3.0 0.75 -3.05 0.7 -3.05 0.6 -3.05 0.45 -3.2 0.4 -3.3 0.45 -3.35 0.45 -3.35 0.55 -3.35 0.7 -3.4 0.7 -3.4 0.8 -3.4 0.9 -3.35 1.05 -3.35 1.15 -3.2 1.5 -3.1 1.5 -3.1 1.6 -3.0 1.7 -3.0 1.75 -2.9 1.9 -2.8 2.05 M4.95 0.5 L4.95 0.4 4.95 0.35 5.0 0.3 5.15 0.25 5.25 0.2 5.25 0.15 5.4 0.1 5.5 0.2 5.6 0.2 5.75 0.25 5.75 0.3 5.8 0.35 5.8 0.45 5.85 0.55 5.9 0.6 5.9 0.7 5.85 0.85 5.7 1.25 5.5 1.65 5.1 2.2 4.05 3.15 4.0 3.15 4.0 3.2 3.95 3.2 3.85 3.3 3.15 3.6 3.0 3.65 1.65 3.85 1.45 3.85 1.3 3.85 1.2 3.8 0.8 3.75 0.75 3.75 0.7 3.75 0.45 3.7 0.15 3.7 0.25 3.65 0.15 3.65 0.1 3.65 -0.3 3.55 -0.8 3.45 -1.0 3.4 -1.15 3.35 -1.3 3.3 -1.3 3.25 -1.4 3.2 -1.45 3.15 -1.5 3.15 -1.55 3.1 -1.9 2.95 -2.05 2.85 -2.1 2.85 -2.15 2.8 -2.2 2.75 -2.95 2.05 -3.5 0.8 -3.5 0.7 -3.5 0.6 -3.45 0.6 -3.45 0.35 -3.35 0.2 -3.25 0.2 -3.25 0.1 -3.2 0.05 -3.05 0.05 -2.9 0.05 -2.85 0.1 -2.85 0.25 -2.8 0.25 -2.85 0.55 -2.85 0.8 -2.6 1.45 Q-2.0 2.35 -1.2 2.7 L-1.15 2.75 -1.0 2.85 -0.8 2.9 -0.65 2.95 -0.55 3.0 -0.4 3.0 0.05 3.1 -0.05 3.1 -0.15 3.1 -0.2 3.15 -0.2 3.2 -0.15 3.25 -0.15 3.3 0.25 3.35 0.65 3.35 0.4 3.25 0.1 3.1 0.35 3.15 0.65 3.25 0.8 3.25 1.45 3.25 1.65 3.25 2.3 3.15 2.45 3.15 3.2 2.85 3.3 2.85 1.8 3.4 3.15 3.2 Q4.75 2.45 5.3 0.9 L5.3 0.85 5.35 0.75 5.35 0.65 5.3 0.6 5.3 0.55 5.3 0.4 5.25 0.35 5.2 0.3 5.1 0.35 5.0 0.35 5.0 0.45 5.0 0.5 4.95 0.5 M4.9 0.75 L4.85 0.85 4.85 0.8 4.9 0.75" fill="#f5bf45" fill-rule="evenodd" stroke="none"/>
      <path d="M-2.0 2.35 L-1.9 2.45 -1.25 2.95 -1.25 3.0 -1.15 3.0 -1.15 3.05 -1.2 3.1 -1.3 3.05 -1.3 3.0 Q-2.3 2.75 -2.8 2.05 L-2.6 2.25 -2.15 2.4 -2.05 2.45 -2.0 2.45 -2.05 2.4 -2.0 2.35 -2.3 2.1 -2.75 1.5 -2.8 1.35 -2.8 1.3 -2.0 2.35 M-3.2 1.5 L-3.35 1.15 -3.35 1.05 -3.4 0.9 -3.4 0.8 -3.4 0.7 -3.35 0.7 -3.35 0.55 -3.35 0.45 -3.3 0.45 -3.2 0.4 -3.05 0.45 -3.05 0.6 -3.05 0.7 -3.0 0.75 -3.0 0.8 -2.95 0.9 -3.1 0.9 -3.1 1.0 -3.2 1.0 -3.2 1.1 -3.2 1.15 -3.2 1.3 -3.2 1.4 -3.2 1.5 M-2.9 1.05 L-2.8 1.25 -2.9 1.1 -2.9 1.05 M5.0 0.5 L5.0 0.45 5.0 0.35 5.1 0.35 5.2 0.3 5.25 0.35 5.3 0.4 5.3 0.55 5.3 0.6 5.35 0.65 5.35 0.75 5.3 0.85 5.3 0.9 Q4.75 2.45 3.15 3.2 L1.8 3.4 3.3 2.85 3.2 2.85 3.65 2.55 4.65 1.35 4.8 1.15 4.7 1.3 Q4.05 2.7 2.55 3.3 3.2 3.25 3.65 2.85 4.75 2.1 5.15 0.9 L5.15 0.75 5.15 0.6 5.0 0.5" fill="#fbe0a6" fill-rule="evenodd" stroke="none"/>
      <path d="M-28.25 -10.5 L-28.2 -10.5 -26.35 -8.95 -25.55 -8.2 -24.65 -7.35 -24.05 -6.75 -22.3 -5.75 -22.0 -5.7 -21.4 -5.6 -20.85 -5.65 -20.6 -5.7 -20.1 -5.85 -19.75 -5.95 -19.35 -6.05 -19.5 -5.9 -19.75 -5.75 -19.75 -5.65 -19.75 -5.6 -19.85 -5.55 -19.9 -5.5 -19.9 -5.45 -20.05 -5.3 -20.1 -5.35 -20.15 -5.35 -20.2 -5.3 -20.45 -5.15 -20.5 -5.05 -20.6 -5.05 -21.4 -5.1 -22.3 -5.2 -23.5 -5.5 -24.05 -5.65 Q-25.1 -6.05 -25.9 -6.75 L-26.05 -6.95 -27.15 -8.95 -27.75 -9.9 -28.15 -10.4 -28.25 -10.5 M24.15 -4.95 L24.3 -5.15 25.0 -5.8 24.5 -5.7 23.55 -5.45 22.35 -5.3 22.3 -5.3 21.85 -5.25 21.25 -5.25 21.05 -5.25 20.0 -5.25 19.65 -5.25 19.15 -5.3 19.1 -5.3 19.0 -5.4 18.95 -5.45 18.7 -5.8 18.75 -5.8 18.8 -5.85 19.0 -5.8 19.05 -5.8 19.05 -5.65 19.65 -5.65 19.6 -5.7 19.65 -5.7 20.0 -5.65 21.05 -5.75 21.25 -5.75 21.85 -5.9 22.25 -6.05 22.3 -6.05 22.3 -6.1 22.35 -6.1 23.35 -6.65 23.55 -6.8 23.75 -6.95 24.25 -7.45 25.0 -8.05 25.2 -8.2 28.05 -10.5 27.6 -10.0 27.55 -9.95 26.9 -8.95 26.2 -7.85 25.8 -7.05 25.7 -6.95 25.0 -5.8 24.15 -4.95" fill="#382e2e" fill-rule="evenodd" stroke="none"/>
      <path d="M-20.5 -5.05 L-20.6 -4.95 -20.8 -4.8 -20.9 -4.75 -20.85 -4.75 -21.3 -4.55 -21.4 -4.5 -21.7 -4.4 -21.75 -4.35 -22.0 -4.25 -22.05 -4.25 -22.1 -4.25 -22.15 -4.2 -22.25 -4.15 -22.3 -4.15 -23.4 -4.2 -23.65 -4.25 -23.8 -4.3 -24.0 -4.45 -24.05 -4.5 -24.15 -4.55 -24.2 -4.55 -25.05 -5.3 -25.05 -5.35 -25.25 -5.6 -25.55 -6.15 -25.9 -6.75 Q-25.1 -6.05 -24.05 -5.65 L-23.5 -5.5 -22.3 -5.2 -21.4 -5.1 -20.6 -5.05 -20.5 -5.05 M-23.75 -4.45 L-23.7 -4.5 -24.05 -4.55 -23.75 -4.45 M24.15 -4.95 L24.1 -4.9 23.55 -4.55 Q23.4 -4.4 23.15 -4.35 L22.35 -4.25 22.3 -4.25 21.85 -4.25 21.25 -4.35 21.05 -4.4 20.0 -4.75 19.65 -4.9 19.45 -5.0 19.45 -5.05 19.2 -5.25 19.15 -5.3 19.65 -5.25 20.0 -5.25 21.05 -5.25 21.25 -5.25 21.85 -5.25 22.3 -5.3 22.35 -5.3 23.55 -5.45 24.5 -5.7 25.0 -5.8 24.3 -5.15 24.15 -4.95" fill="#5f4b4b" fill-rule="evenodd" stroke="none"/>
      <path d="M-27.65 -11.05 L-27.75 -11.1 -27.85 -11.15 -27.9 -11.25 -27.85 -11.25 -27.6 -11.2 -27.1 -11.15 -25.55 -11.1 -24.65 -11.15 -24.05 -11.2 -22.3 -11.5 -21.4 -11.75 -20.95 -11.85 -20.85 -11.9 -20.8 -11.9 -20.6 -11.9 -20.5 -11.9 -20.35 -11.95 -20.1 -12.05 -19.9 -12.1 -19.75 -12.2 -19.45 -12.3 -18.7 -12.45 -18.35 -12.6 -17.4 -13.0 -17.0 -13.2 -16.65 -13.4 -16.05 -13.7 -16.0 -13.75 -15.75 -13.95 -15.45 -14.1 -15.2 -14.2 -15.45 -14.0 -15.55 -13.9 -15.5 -13.9 -15.6 -13.8 -15.65 -13.6 -15.75 -13.55 -15.75 -13.3 -15.8 -13.2 -15.85 -13.1 -15.8 -13.0 -15.8 -12.85 -15.85 -12.75 -15.75 -12.65 -15.75 -12.6 -15.65 -12.55 -15.9 -12.45 -15.95 -12.4 -16.0 -12.4 -16.2 -12.35 -16.25 -12.4 -16.3 -12.3 -16.35 -12.2 Q-16.45 -12.15 -16.65 -12.05 L-16.8 -12.0 -16.85 -11.95 -16.9 -11.9 -17.5 -11.55 -18.65 -11.15 -19.4 -10.8 -19.75 -10.75 -19.8 -10.7 -20.1 -10.6 -20.55 -10.45 -20.6 -10.4 -21.4 -10.25 -21.45 -10.25 -21.5 -10.2 -22.25 -10.0 -22.3 -10.0 -24.05 -10.0 -25.6 -10.0 -26.2 -10.15 -26.4 -10.25 -26.45 -10.25 -26.75 -10.3 -26.95 -10.55 -27.5 -10.9 -27.55 -10.95 -27.6 -10.95 -27.6 -11.0 -27.65 -11.05 M19.8 -2.2 L19.9 -1.95 20.05 -1.65 20.6 -0.4 21.1 0.75 21.2 0.95 21.25 1.05 21.55 1.9 21.6 2.0 21.9 2.5 22.4 3.85 22.4 3.9 22.65 4.55 22.65 4.75 22.7 5.2 22.7 5.9 22.65 6.35 22.65 6.4 22.65 7.1 22.45 8.55 22.35 8.9 22.1 9.85 21.8 10.6 21.25 11.55 Q20.25 12.25 19.25 12.55 L19.25 12.5 19.3 12.4 19.25 12.4 19.15 12.5 19.1 12.6 18.8 12.65 18.6 12.7 18.25 12.75 18.15 12.75 17.5 12.75 17.3 12.7 17.1 12.7 Q16.25 12.6 15.65 11.9 L15.65 11.85 15.55 11.65 15.7 11.45 15.8 11.05 17.35 8.55 17.9 7.1 18.15 6.4 18.2 6.35 18.35 5.9 Q18.9 4.25 19.05 2.55 L19.2 1.05 19.3 -0.85 19.3 -1.65 19.25 -2.1 19.55 -2.2 19.6 -2.2 19.6 -2.15 19.8 -2.2 M7.1 21.05 L6.75 21.1 6.45 21.2 4.5 21.5 3.7 21.55 1.65 21.7 1.45 21.7 0.8 21.75 0.65 21.75 0.55 21.75 -2.8 21.55 -4.65 21.3 -5.65 21.15 -6.35 20.95 -6.5 20.95 -7.9 20.55 -8.35 20.4 -8.6 20.35 -8.65 20.3 -8.75 20.25 -8.8 20.25 -10.9 19.4 -11.2 19.25 -12.4 18.7 -12.85 18.45 -12.95 18.35 -13.1 18.3 -13.35 18.1 -14.95 17.1 -16.85 15.65 -19.6 12.7 -19.7 12.55 -19.75 12.45 -19.85 12.3 -19.95 12.15 -20.1 11.95 -20.15 11.85 -20.05 11.85 -20.35 11.55 -20.45 11.4 -20.5 11.1 -20.65 11.1 -20.8 10.75 -20.8 10.65 -20.85 10.6 -20.9 10.5 -20.9 10.4 -20.9 10.3 -20.9 10.2 -20.95 10.1 -21.1 10.0 -21.1 9.9 -21.1 9.8 -21.1 9.75 -21.1 9.65 -21.15 9.55 -21.15 9.45 -21.15 8.55 -21.15 8.5 -21.15 7.4 -21.15 7.3 -21.15 7.2 -21.15 7.1 -21.15 6.75 -21.15 6.7 -21.15 6.6 -21.05 6.5 -20.95 6.4 -20.95 6.35 -20.95 6.1 -20.95 6.0 -20.95 5.9 -20.95 5.85 -20.85 5.8 -20.8 5.45 -20.8 5.2 -20.8 5.15 -20.75 5.15 -20.75 5.1 -20.7 5.0 -20.7 4.9 -20.7 4.8 -20.65 4.7 -20.65 4.6 -20.6 4.55 -20.6 4.7 -20.55 4.65 -20.55 4.55 -20.5 4.55 -20.45 4.5 -20.4 4.15 -20.35 4.0 -20.35 3.9 -20.3 3.8 -20.3 3.75 -20.25 3.65 -20.2 3.55 -20.15 3.35 -20.1 3.25 -20.05 3.15 -20.0 3.1 -19.95 3.05 -19.95 2.95 -19.85 2.8 -19.75 2.55 -19.65 2.3 -19.65 2.35 -19.5 2.0 -19.35 1.9 -19.35 1.8 -19.3 1.7 Q-19.65 3.6 -19.5 5.6 L-19.45 5.9 -19.4 6.35 -19.3 7.1 -19.0 8.55 -18.4 9.9 Q-17.45 12.05 -15.8 13.75 L-12.7 16.5 -12.25 16.75 -12.1 16.85 -11.8 16.95 -11.8 17.0 -11.7 17.1 -11.65 17.1 -9.9 17.95 -8.8 18.25 -7.95 18.5 -7.3 18.7 -5.3 18.85 -2.95 19.1 -0.8 18.9 0.25 18.8 0.65 18.7 0.85 18.7 1.45 18.7 1.6 18.7 1.65 18.75 1.75 18.75 2.25 18.75 2.9 18.75 3.7 18.8 4.0 18.85 Q5.45 19.05 6.6 20.0 L7.1 20.4 7.25 20.55 7.25 20.6 7.3 20.65 7.3 20.7 7.35 20.8 7.4 20.9 7.1 21.05 M-12.8 16.8 L-12.75 16.8 -12.65 16.8 -12.85 16.75 -12.8 16.8" fill="#d0d0d0" fill-rule="evenodd" stroke="none"/>
      <path d="M-23.75 -4.45 L-24.05 -4.55 -23.7 -4.5 -23.75 -4.45" fill="#321b12" fill-rule="evenodd" stroke="none"/>
      <path d="M-14.85 -13.4 L-14.9 -13.4 -14.55 -13.8 -14.45 -13.95 -14.45 -13.75 -14.65 -13.45 -14.85 -13.4 M-11.75 -2.75 L-10.95 -3.1 -10.2 -3.4 -9.5 -3.6 -10.15 -3.35 -10.3 -3.3 Q-10.9 -3.05 -11.45 -2.85 L-11.75 -2.75 M-15.4 -0.3 L-15.45 -0.2 -15.55 0.15 -15.55 0.25 -15.6 0.45 -15.65 0.3 -15.65 0.2 -15.6 -0.05 -15.6 -0.1 -15.4 -0.3" fill="#e3e3e3" fill-rule="evenodd" stroke="none"/>
    </g>
  </defs>
</svg>
