<?xml version="1.0" encoding="UTF-8" standalone="no"?>
<svg xmlns:ffdec="https://www.free-decompiler.com/flash" xmlns:xlink="http://www.w3.org/1999/xlink" ffdec:objectType="frame" height="51.8px" width="56.25px" xmlns="http://www.w3.org/2000/svg">
  <g transform="matrix(1.0, 0.0, 0.0, 1.0, 28.65, 31.0)">
    <use ffdec:characterId="5" height="51.8" transform="matrix(1.0, 0.0, 0.0, 1.0, -28.65, -31.0)" width="56.25" xlink:href="#sprite0"/>
  </g>
  <defs>
    <g id="sprite0">
      <use ffdec:characterId="4" height="51.8" transform="matrix(1.0, 0.0, 0.0, 1.0, 0.0, 0.0)" width="56.25" xlink:href="#shape0"/>
    </g>
    <g id="shape0">
      <path d="M47.85 19.0 Q49.0 21.35 49.0 23.1 L48.75 23.8 48.7 23.8 Q47.5 18.35 45.15 15.2 L45.2 15.1 Q46.8 16.95 47.85 19.0 M27.95 4.7 Q25.35 3.6 23.5 3.35 L23.5 3.25 22.9 3.25 Q24.5 2.8 28.05 4.5 L27.95 4.7 M24.0 4.7 L24.05 4.85 24.0 5.0 Q22.15 5.35 20.1 6.3 L19.35 6.6 19.3 6.65 18.55 7.0 Q16.1 8.3 15.05 9.4 L15.75 8.9 19.15 7.1 20.75 6.6 21.6 6.35 23.3 6.25 24.35 6.35 24.55 6.45 23.9 6.35 Q20.1 6.35 16.0 9.05 L14.15 10.45 12.4 12.35 11.85 13.05 Q11.75 13.8 10.9 14.95 L10.7 15.2 10.65 15.3 Q9.55 17.6 9.55 20.2 L9.55 20.45 Q9.6 18.7 10.05 17.25 10.5 15.7 11.7 13.8 L10.3 17.4 10.1 18.2 10.9 16.95 Q12.15 14.55 14.25 12.4 15.4 11.25 16.5 10.5 L16.9 10.15 17.3 10.0 Q18.45 9.3 19.55 9.05 21.05 8.4 24.0 8.4 25.65 8.4 26.8 9.55 L27.6 10.55 28.5 11.3 28.65 11.55 28.65 11.6 28.6 11.8 28.55 11.85 28.1 11.6 27.65 11.2 27.35 11.3 27.15 11.1 27.1 11.1 22.75 10.35 Q20.65 10.35 18.4 11.45 L15.4 13.1 15.35 13.05 16.25 12.0 16.0 12.1 Q15.45 12.3 15.2 12.55 L15.1 12.7 Q13.2 15.4 13.2 16.05 L13.05 16.6 12.85 17.15 12.95 17.15 14.65 15.05 14.45 15.85 13.1 18.65 12.0 21.6 11.6 23.2 10.75 26.15 10.1 28.4 10.0 28.4 10.6 25.4 10.5 25.05 10.5 24.8 10.45 24.6 Q9.95 23.95 9.75 22.95 9.35 21.75 9.35 20.35 9.35 18.4 9.75 17.2 L10.65 15.3 10.2 15.9 Q9.25 18.15 9.25 20.8 L9.45 22.8 9.45 22.85 8.85 21.75 8.8 20.55 9.0 18.7 Q8.3 20.7 8.3 22.3 8.3 23.3 9.0 24.5 L8.9 24.55 Q8.25 24.55 8.0 22.25 L8.15 20.7 7.85 19.75 Q7.85 18.1 8.95 16.15 9.8 14.6 11.15 13.2 L11.15 13.15 11.2 13.05 Q11.85 11.4 14.8 8.7 17.65 6.05 20.45 5.15 L23.45 4.65 24.0 4.7 M26.4 10.35 L26.65 10.5 26.55 10.35 26.4 10.35 M26.35 12.3 L26.15 12.5 26.85 12.3 27.25 12.15 27.3 12.25 27.3 12.3 Q27.25 12.7 25.95 13.1 L23.1 13.5 22.95 13.5 22.85 13.5 22.55 13.5 22.1 13.75 22.25 13.75 Q22.45 13.75 22.5 13.9 L22.55 14.05 22.2 14.6 Q22.3 14.5 22.45 14.5 21.8 15.55 21.25 16.75 L21.0 16.65 20.25 16.4 20.0 16.3 18.3 15.8 Q18.05 15.6 17.75 15.55 L17.65 15.55 18.25 14.75 20.15 13.15 20.2 13.1 20.35 13.0 20.45 12.95 20.85 12.7 20.9 12.65 21.7 12.55 22.4 12.45 26.45 12.05 26.35 12.3 M20.7 18.1 L20.25 19.45 19.35 19.2 17.3 18.85 16.6 18.6 15.95 18.95 15.7 19.85 15.95 20.05 15.8 20.05 16.2 20.15 16.0 20.75 15.8 21.45 15.9 21.2 16.2 20.15 17.7 20.45 18.05 20.55 19.1 21.0 19.75 21.25 Q19.4 22.55 19.2 24.0 L17.9 33.45 17.8 33.45 17.85 32.8 17.75 32.0 17.8 31.15 17.75 31.2 17.6 31.25 17.35 34.0 17.3 34.35 Q16.75 38.35 15.0 41.45 L14.95 41.45 Q16.5 38.5 17.05 33.9 L17.65 28.55 17.65 28.45 17.8 27.15 18.0 25.2 18.05 24.65 18.05 23.7 18.05 23.6 18.05 23.5 18.05 23.0 18.05 22.9 18.05 22.55 18.05 22.4 18.1 21.75 18.0 21.9 17.05 24.7 16.45 26.1 16.05 27.35 15.65 29.4 14.3 34.25 14.2 34.25 15.8 27.5 Q15.6 27.45 15.65 27.25 L15.75 26.7 Q15.3 26.5 15.4 25.6 L15.4 25.45 15.45 24.6 15.45 24.05 15.25 24.3 15.2 24.3 Q14.2 29.4 13.3 31.75 L13.3 31.8 13.25 31.85 13.2 31.95 13.15 31.95 13.2 31.85 13.15 31.85 13.15 31.8 12.4 35.65 12.3 35.65 12.35 35.3 12.3 35.1 12.25 35.0 12.85 31.55 13.35 28.95 13.75 27.05 14.45 23.8 14.35 23.45 Q14.35 22.35 15.05 20.25 15.6 18.6 16.05 17.65 L16.75 16.7 16.75 16.8 17.15 16.85 17.25 16.85 18.0 17.15 18.85 17.35 20.7 18.1 M19.15 9.3 L19.2 9.25 18.8 9.45 19.15 9.3 M11.15 19.75 L11.0 20.1 11.0 20.2 Q10.7 21.0 10.55 21.75 L10.75 24.55 10.8 24.15 10.75 23.7 10.9 21.4 Q10.9 20.75 11.25 19.8 L11.15 19.75" fill="#d07b73" fill-rule="evenodd" stroke="none"/>
      <path d="M41.7 21.4 L40.75 19.0 40.7 19.0 41.45 21.8 41.55 21.8 Q43.35 27.9 44.8 30.85 45.45 32.25 46.3 35.45 47.0 38.15 47.0 40.0 L46.75 41.7 47.05 41.15 Q47.7 39.95 47.7 38.15 L47.5 36.75 47.2 35.4 47.25 35.4 47.95 37.35 Q47.7 34.7 46.7 32.15 L45.05 28.7 45.95 30.75 Q46.9 32.95 47.15 34.25 L47.1 34.3 Q45.2 31.1 43.9 27.25 L41.7 21.4 M44.45 10.4 L44.45 10.35 Q42.5 8.55 41.1 7.85 39.0 6.85 36.25 6.75 L37.3 6.9 Q39.55 7.35 41.0 8.05 L42.85 9.3 44.45 10.4 M40.5 11.4 L41.35 11.9 39.6 11.1 Q44.45 14.0 46.45 18.15 L48.1 23.15 48.35 25.35 48.45 25.3 48.5 24.45 48.75 25.2 48.95 24.75 49.2 25.9 Q49.75 25.9 49.85 24.3 49.85 23.4 49.25 21.15 48.7 19.05 48.35 18.5 47.65 16.9 46.5 15.65 L47.45 16.55 Q48.7 18.15 49.4 20.35 50.1 22.65 50.1 25.15 L49.85 26.2 49.9 26.2 50.0 26.15 50.25 24.05 Q50.25 22.1 49.35 19.55 L48.55 17.7 48.95 18.35 49.0 18.2 Q49.0 17.7 48.1 16.7 L46.5 15.35 44.85 14.1 43.1 12.65 41.05 11.25 39.0 10.2 Q37.1 9.35 36.3 9.2 L34.75 9.3 34.05 9.45 33.9 9.5 33.55 9.75 32.3 10.9 Q30.3 13.0 30.3 14.85 L30.4 15.15 30.35 15.4 30.4 15.4 Q31.15 13.05 32.8 11.25 L34.25 9.75 34.25 9.6 35.5 9.4 Q37.15 9.4 40.5 11.4 M40.6 7.3 L40.9 7.45 41.8 8.0 Q44.4 9.55 45.35 11.15 L45.4 11.2 Q48.25 13.4 49.35 15.5 47.7 13.4 45.0 11.2 L44.95 11.2 Q48.5 14.5 49.65 16.25 51.6 19.15 51.6 22.8 51.6 25.55 50.9 27.6 L51.0 27.65 Q51.9 25.5 51.9 22.55 51.9 19.55 50.3 16.9 L49.35 15.5 50.05 16.35 51.35 18.8 Q52.2 21.2 52.2 23.9 52.2 25.6 51.4 27.55 L51.15 28.2 51.1 28.55 51.15 29.2 53.2 32.15 53.6 32.4 54.6 32.5 55.9 32.3 55.0 32.95 55.1 32.95 55.15 33.0 55.25 33.3 55.2 33.5 54.95 33.8 54.15 33.95 54.1 33.95 52.85 34.3 52.3 34.4 52.4 35.4 52.45 35.6 52.6 36.85 52.15 39.3 52.15 39.45 52.1 39.5 52.1 39.55 51.5 40.95 51.4 41.55 51.4 43.0 51.4 43.15 51.5 43.95 51.65 44.15 52.1 45.0 52.15 45.05 52.25 45.15 Q52.65 46.0 53.2 46.15 53.0 46.15 52.75 45.95 L52.7 45.95 52.65 45.9 52.6 45.9 52.3 45.7 51.75 45.5 Q51.4 45.45 50.9 45.05 L50.55 44.75 49.95 44.2 48.95 43.0 48.7 42.55 48.2 43.0 48.6 43.7 48.95 44.95 Q48.75 46.3 48.25 46.55 L48.15 46.95 48.15 47.05 47.75 47.8 47.45 48.15 47.15 47.95 47.1 47.75 47.4 46.8 46.85 45.5 46.0 44.6 44.4 45.05 Q44.05 45.2 43.75 45.3 43.05 48.15 41.6 48.6 L41.45 48.7 41.5 49.25 41.45 49.65 41.45 49.9 41.35 49.95 41.25 49.75 41.2 49.75 41.25 50.05 41.2 50.25 41.15 50.3 40.85 49.8 40.05 49.1 38.8 48.25 38.55 48.25 38.2 48.25 Q36.8 48.25 35.95 47.75 L35.7 47.55 35.85 47.75 36.75 48.55 36.95 48.65 37.35 48.85 37.15 48.9 36.7 48.8 35.8 48.4 35.75 48.4 35.6 48.3 35.3 48.1 35.15 48.0 34.9 47.85 34.2 47.4 33.7 47.2 Q31.5 47.1 31.5 46.65 31.5 46.45 31.75 46.4 31.45 46.25 31.45 46.0 L32.35 46.0 31.75 45.9 31.75 45.7 37.1 44.75 42.45 42.4 43.55 41.8 Q44.0 41.2 45.15 40.3 L45.6 40.0 45.5 39.55 45.05 36.95 44.65 35.55 44.4 34.8 44.25 34.4 44.75 35.45 45.25 36.6 45.6 37.95 45.8 40.5 45.6 42.85 45.5 42.95 45.3 43.25 45.5 43.15 46.5 41.05 46.6 39.4 Q46.6 37.3 46.0 35.0 L44.55 30.6 43.6 28.4 43.3 27.75 44.15 30.6 45.0 34.2 Q44.0 32.25 43.1 28.95 L41.65 23.55 40.8 20.9 Q40.6 18.8 39.95 17.45 38.8 15.05 36.3 13.9 L36.3 14.0 Q38.45 15.55 39.45 17.7 L39.65 18.3 40.1 19.6 40.3 20.15 41.3 23.8 42.6 29.35 42.2 27.95 41.15 23.8 40.6 21.85 39.5 19.05 33.8 18.4 35.8 18.1 35.05 18.05 34.5 18.0 32.9 18.25 32.8 18.2 32.35 18.35 30.95 19.1 30.7 19.25 30.55 19.2 30.5 19.25 30.1 19.65 30.2 19.55 30.15 19.55 29.95 19.4 30.0 19.3 29.3 19.85 29.25 20.0 29.0 20.7 28.8 21.05 28.7 21.15 28.6 21.0 28.55 20.8 28.7 20.1 28.55 20.1 28.4 19.7 28.3 19.7 28.25 19.7 28.25 19.75 28.15 19.8 27.25 18.9 26.45 18.5 26.45 18.55 24.35 18.05 24.45 18.15 24.15 18.1 23.85 18.25 23.7 18.35 23.65 18.35 23.65 18.4 23.6 18.25 23.6 17.95 23.35 17.7 23.2 17.7 Q22.95 17.4 22.15 17.05 L22.2 16.95 22.2 16.9 22.45 16.4 23.3 15.2 Q25.8 13.0 27.45 12.85 L28.2 12.35 27.3 12.3 27.3 12.25 27.25 12.15 26.85 12.3 26.8 12.3 26.8 12.25 26.7 12.2 26.5 12.3 26.35 12.3 26.45 12.05 22.4 12.45 21.7 12.55 20.9 12.65 20.85 12.7 20.1 12.8 19.55 13.0 19.5 13.0 Q17.35 13.85 17.3 14.9 L16.95 15.15 15.7 16.95 14.1 20.6 13.1 23.65 12.85 24.7 Q12.7 25.6 12.7 27.8 L12.7 28.25 10.15 38.8 10.3 38.8 10.65 37.85 10.2 39.7 9.75 41.05 9.15 43.05 9.55 40.9 9.85 39.9 9.65 39.95 9.1 40.95 9.05 40.95 9.05 41.15 9.0 41.5 9.0 41.6 Q9.0 42.4 8.7 42.55 L8.35 43.8 8.25 43.85 8.2 43.6 8.5 42.0 8.35 40.45 8.3 40.1 8.3 39.75 Q7.8 39.5 7.35 37.55 L7.0 35.55 4.55 37.65 4.45 37.6 5.6 36.15 6.05 35.75 4.7 36.05 4.3 36.1 3.65 36.05 3.55 36.05 3.45 36.05 3.25 36.05 3.2 36.05 2.7 36.1 2.05 36.0 2.2 35.9 1.9 35.85 1.9 35.75 2.05 35.8 2.6 35.75 2.85 35.65 2.95 35.65 3.05 35.6 2.85 35.55 3.25 35.5 3.6 35.4 3.35 35.4 3.2 35.35 3.45 35.3 5.25 34.75 5.5 34.6 5.55 34.6 Q7.75 32.85 8.7 30.65 L9.1 29.45 9.55 26.4 9.65 26.4 9.7 27.55 Q9.7 28.85 9.15 30.3 L8.65 32.0 8.95 31.65 10.0 30.3 10.1 30.1 11.55 25.05 11.75 24.4 Q11.4 25.75 11.35 27.0 L11.35 27.8 11.4 27.8 Q11.6 24.35 14.15 19.3 L16.65 14.3 Q17.9 13.0 19.35 12.2 L20.85 12.3 21.15 12.3 21.75 12.25 22.0 12.25 24.2 12.05 25.4 11.95 26.8 11.75 27.9 11.55 27.95 11.5 28.1 11.6 28.55 11.85 28.6 11.8 28.85 11.9 28.65 11.55 28.5 11.3 Q27.5 9.8 26.2 8.8 L25.85 8.7 22.55 8.25 Q24.75 7.65 27.05 8.85 L27.1 8.85 26.85 8.6 26.35 8.35 26.35 8.25 26.5 8.3 26.1 7.9 25.05 7.55 25.05 7.45 25.1 7.45 Q27.6 7.9 29.15 9.45 L29.3 9.6 29.1 9.05 Q30.05 10.2 30.15 11.4 L30.25 11.4 30.3 11.2 Q30.3 9.6 28.7 8.25 L27.75 7.3 Q27.05 6.7 26.15 6.3 L23.5 5.8 21.75 5.95 23.1 5.85 Q21.3 5.95 19.55 6.6 L19.35 6.6 20.1 6.3 21.6 5.95 21.45 5.95 Q23.0 5.2 25.0 5.65 L24.8 5.55 24.8 5.4 25.4 5.35 26.15 5.5 25.4 5.2 Q26.7 5.3 27.65 5.8 L28.9 6.6 29.85 7.05 29.8 6.45 Q29.8 6.05 30.2 5.7 L29.9 5.85 29.55 5.55 29.55 5.45 29.5 5.4 29.7 5.1 29.7 5.0 30.05 5.3 30.1 5.3 30.55 4.95 30.7 4.9 30.55 5.05 30.6 5.15 30.75 5.1 30.8 5.15 Q30.95 4.8 32.05 4.5 L32.25 3.7 Q32.25 2.65 31.25 1.6 30.45 0.8 29.55 0.6 28.85 0.25 27.95 0.25 L27.55 0.3 27.35 0.2 27.1 0.15 27.35 0.15 27.35 0.1 27.6 0.15 28.45 0.2 28.75 0.25 29.2 0.35 Q33.05 1.75 33.05 3.85 L33.1 3.85 33.2 3.35 Q33.2 2.55 32.1 1.6 31.3 0.95 30.35 0.6 L30.95 0.7 31.3 0.85 31.75 1.1 33.45 1.95 34.3 2.7 Q34.95 3.75 35.0 4.55 L36.7 5.3 36.2 5.2 38.1 6.0 39.0 6.5 39.45 6.7 40.6 7.3 M47.2 30.15 Q48.55 32.9 48.8 35.4 L49.05 37.9 49.05 38.1 49.15 36.6 Q49.15 33.75 47.6 30.6 L47.2 30.15 M45.75 28.85 L46.4 30.3 47.3 32.5 47.75 33.95 47.45 32.55 47.4 32.5 47.45 32.5 46.8 30.6 45.75 28.85 M48.15 38.4 L48.15 38.65 48.15 38.8 48.2 38.55 48.15 38.4 M47.0 43.25 L46.45 43.65 44.6 44.95 Q46.1 44.9 47.0 43.25 M36.1 5.15 L36.1 5.1 35.5 4.85 34.8 4.7 36.1 5.15 M32.2 5.55 L33.0 5.2 33.5 5.1 33.3 5.0 33.0 5.0 32.6 5.1 32.2 5.5 32.2 5.55 M34.2 5.75 L33.6 5.85 32.9 6.2 32.45 6.4 31.6 7.3 31.55 7.45 31.45 7.95 31.25 8.45 31.25 8.5 32.65 7.2 Q33.0 7.0 33.3 6.85 L33.35 6.8 34.5 6.4 35.4 5.95 35.45 5.9 34.95 5.75 34.2 5.75 M26.15 4.7 L26.05 4.7 24.05 4.85 24.0 4.7 23.45 4.65 20.45 5.15 Q17.1 5.9 14.65 8.65 L12.2 10.9 12.85 10.1 16.35 6.65 Q14.6 7.45 12.5 7.45 L12.45 7.45 12.15 7.45 11.25 7.45 10.75 7.45 Q9.55 7.45 9.55 7.1 L9.7 7.1 9.25 6.8 9.25 6.75 11.9 6.95 Q13.15 6.95 17.1 5.45 21.1 3.95 23.2 3.95 24.8 3.95 26.15 4.7 M35.1 6.85 L35.25 6.7 36.25 6.45 Q34.9 6.4 33.9 6.9 L33.8 6.9 Q33.1 7.05 33.05 7.4 L32.65 7.75 Q31.5 8.85 31.5 9.85 L31.5 10.0 32.6 8.9 Q34.1 7.7 35.7 7.7 L35.75 7.7 36.4 7.35 37.4 7.45 38.15 7.35 36.55 7.1 34.55 7.2 33.6 7.55 33.45 7.65 Q32.4 8.45 31.8 9.55 L31.75 9.65 Q32.0 7.9 34.4 7.0 L36.0 6.85 35.1 6.85 M30.45 1.85 Q31.0 2.55 31.0 3.75 L30.85 3.05 30.25 1.75 29.8 1.45 27.75 0.4 Q29.75 1.0 30.45 1.85 M27.65 3.8 L25.9 3.25 Q24.2 2.45 22.05 2.45 20.4 2.35 18.6 3.0 L18.4 3.0 17.75 3.0 19.65 2.4 19.95 2.3 22.65 2.0 24.25 2.3 Q25.1 2.4 26.3 3.05 L26.9 3.4 27.65 3.8 M28.35 5.7 L28.45 5.65 28.2 5.25 28.55 5.4 29.7 6.0 29.45 6.25 29.2 6.65 28.35 5.7 M21.2 7.55 L21.2 7.6 Q17.65 8.25 14.55 11.65 13.55 12.6 12.2 14.4 L11.45 15.45 11.9 14.5 Q12.7 12.85 13.45 12.0 14.45 10.8 15.85 9.7 18.55 7.45 20.75 7.45 L21.2 7.55 M29.25 7.65 L29.65 8.15 29.8 8.3 29.9 8.45 29.35 7.55 Q28.7 6.8 27.3 6.35 L27.4 6.4 27.6 6.55 Q28.15 6.65 28.65 7.1 L28.75 7.2 29.2 7.6 29.25 7.65 M12.8 6.4 Q14.05 5.9 15.8 5.0 19.05 3.35 21.85 3.4 19.6 3.8 17.0 4.95 14.75 5.95 12.8 6.4 M20.85 21.5 L21.3 21.5 21.6 21.45 21.65 21.5 21.45 21.65 21.45 21.7 21.65 21.75 21.85 21.85 21.75 23.4 21.7 23.8 21.55 24.85 Q21.5 28.2 21.1 30.95 L20.6 33.85 20.55 35.0 20.8 33.5 20.7 34.65 20.5 36.1 20.45 37.35 20.45 37.45 20.5 37.95 20.4 38.45 20.4 38.55 20.4 40.7 20.4 42.2 20.25 43.4 20.2 41.7 20.15 42.7 20.2 43.25 20.2 45.1 20.25 45.55 20.25 44.9 21.05 45.1 21.2 45.15 23.0 45.5 23.25 45.5 23.45 45.5 23.5 45.55 25.45 45.7 25.55 45.8 25.3 46.0 25.3 46.05 24.75 46.8 24.05 47.5 22.85 48.35 22.1 49.0 22.05 49.0 21.8 49.25 21.75 49.1 22.15 47.55 22.35 47.05 20.85 49.25 20.75 49.3 20.75 49.4 20.6 49.5 19.85 48.7 19.9 48.55 19.65 48.2 19.15 47.75 18.5 47.05 Q17.8 46.7 16.6 44.8 L16.75 45.15 Q17.75 46.55 17.75 48.3 17.75 50.3 16.65 50.5 L16.85 50.15 16.2 50.4 Q15.55 50.4 15.35 50.0 L15.35 49.95 16.0 50.3 16.95 49.8 17.15 49.55 17.15 48.95 17.15 48.8 15.7 46.8 15.55 46.7 15.85 48.15 15.65 49.1 15.5 48.55 14.85 47.3 14.5 46.3 14.15 45.95 14.15 45.85 13.95 45.6 12.65 46.75 12.5 46.75 12.4 46.75 12.35 46.6 12.9 45.7 13.0 45.55 13.1 45.35 13.15 45.3 13.15 45.2 13.25 45.0 13.3 44.85 13.35 44.75 12.3 42.85 9.6 45.8 9.45 46.0 9.4 46.1 8.9 47.6 Q8.55 47.4 8.55 46.75 L8.3 47.0 8.6 46.45 8.6 46.25 8.6 45.95 8.7 45.8 8.7 45.65 Q8.95 44.25 9.7 41.6 L11.05 37.1 12.25 32.25 12.4 31.6 12.2 32.2 12.85 29.3 12.9 29.45 13.45 27.5 13.5 27.7 13.35 28.95 12.85 31.55 12.25 35.0 12.3 35.1 11.75 37.65 11.1 40.3 11.65 39.15 13.3 33.4 14.75 27.6 15.4 24.7 15.45 24.6 15.4 25.45 15.4 25.6 13.9 33.55 Q12.65 40.05 10.15 43.75 L9.85 44.7 9.95 44.55 Q13.55 38.15 15.85 31.2 L15.9 31.25 14.7 34.9 13.35 38.5 11.35 42.9 11.45 42.75 12.8 41.0 13.3 40.5 14.5 37.95 16.6 32.9 16.7 31.9 16.45 32.65 Q15.0 37.1 12.6 41.1 L12.55 41.1 Q14.65 36.05 15.95 32.05 L17.2 27.15 17.25 26.3 17.45 24.85 17.6 23.45 Q17.7 22.75 18.05 22.4 L18.05 22.55 18.05 22.9 18.05 23.0 18.05 23.5 18.05 23.6 18.05 23.7 18.05 24.65 18.0 25.2 17.8 27.15 17.65 27.95 17.65 28.35 17.65 28.45 17.65 28.55 17.05 33.9 Q16.5 38.5 14.95 41.45 L15.0 41.45 Q16.75 38.35 17.3 34.35 17.3 36.85 16.1 40.35 L15.3 42.45 17.95 38.85 Q18.8 37.2 19.1 35.95 L17.8 38.3 19.0 32.1 19.05 33.55 19.15 33.55 19.45 29.25 20.85 21.5 M22.65 18.85 L22.35 19.55 22.4 19.7 22.25 20.25 21.75 20.1 21.35 19.85 21.45 19.6 21.6 19.25 21.75 18.65 21.2 19.7 21.3 19.1 21.55 18.4 22.3 18.6 22.9 18.8 22.65 18.85 M29.95 17.7 L29.95 17.75 Q30.05 18.6 29.8 18.8 L29.85 19.25 29.95 19.2 Q30.15 17.25 31.45 15.8 32.95 14.0 35.3 14.0 L36.1 14.2 35.7 13.9 34.75 13.7 34.1 13.7 33.85 13.75 33.0 14.05 32.0 14.75 Q31.35 15.15 30.85 16.0 L29.95 17.7 M29.05 10.5 L29.0 10.5 Q29.7 11.65 29.7 13.15 L29.55 14.15 29.1 15.2 29.15 15.2 29.8 14.1 29.85 13.25 Q29.85 11.65 29.05 10.5 M9.7 6.55 L11.75 6.3 9.7 6.65 9.7 6.55 M15.25 15.95 L15.95 15.1 13.85 18.95 12.25 22.75 12.7 21.4 Q13.4 18.55 15.25 15.95 M6.9 18.1 Q7.85 16.45 8.75 15.6 L8.95 15.45 8.65 15.9 Q6.65 18.95 6.8 21.4 L6.8 21.65 6.9 21.65 7.4 19.75 Q7.25 20.4 7.25 21.75 7.25 23.1 7.4 23.45 L7.45 23.6 7.5 25.3 7.05 29.25 Q6.55 31.7 5.65 32.9 L5.55 32.9 5.8 31.45 6.0 30.3 5.95 30.3 5.85 30.55 5.85 30.3 5.8 30.3 5.65 29.35 5.4 28.25 5.35 28.05 5.1 27.15 4.9 26.25 4.45 24.7 4.35 24.2 4.15 23.15 Q4.2 22.5 4.4 21.8 L4.35 21.55 Q4.35 19.8 7.55 15.85 9.0 14.05 10.15 13.1 L10.1 13.2 10.15 13.35 7.6 16.1 Q5.3 18.75 5.3 20.85 L5.25 22.2 Q5.25 24.4 6.2 26.1 L6.2 26.05 5.95 25.2 5.7 23.3 Q5.7 20.5 6.9 18.1 M8.65 16.15 L9.6 15.0 8.3 17.15 7.5 19.15 7.55 18.9 8.65 16.15 M12.25 26.85 Q11.95 31.5 6.95 35.1 9.5 34.1 11.05 31.0 12.15 28.75 12.3 26.75 L12.25 26.85 M7.95 27.75 L7.8 26.4 7.85 26.5 7.95 26.65 8.45 27.6 8.6 27.85 8.75 28.2 Q8.6 29.9 7.9 31.45 7.25 32.9 6.25 33.85 L6.3 33.65 7.1 32.05 Q7.95 29.9 7.95 27.75 M19.1 36.9 L18.9 36.9 18.9 37.3 18.95 37.3 19.55 42.0 19.6 42.4 19.6 42.35 19.55 41.65 19.1 36.9 M4.2 35.45 L3.2 35.6 3.15 35.6 3.1 35.75 3.15 35.9 3.3 35.95 3.75 35.75 Q4.8 35.7 6.15 34.9 L6.1 34.9 4.75 35.4 4.65 35.4 4.2 35.45 M9.25 32.65 L9.75 32.2 9.4 32.45 9.25 32.65 M19.65 37.9 L19.8 36.0 20.5 30.8 21.05 26.05 20.95 25.95 Q19.45 36.85 19.45 38.95 L19.5 39.15 19.45 39.55 19.6 41.8 19.6 42.2 19.8 39.55 19.85 38.25 19.95 36.85 19.7 37.9 19.65 37.9 M32.0 46.45 L31.85 46.4 31.85 46.5 32.0 46.45 M35.15 47.35 L35.05 47.2 35.0 47.2 35.15 47.35" fill="#662822" fill-rule="evenodd" stroke="none"/>
      <path d="M45.0 11.2 Q47.7 13.4 49.35 15.5 L50.3 16.9 Q51.9 19.55 51.9 22.55 51.9 25.5 51.0 27.65 L50.9 27.6 Q51.6 25.55 51.6 22.8 51.6 19.15 49.65 16.25 48.5 14.5 44.95 11.2 L45.0 11.2 M44.45 10.4 L42.85 9.3 41.0 8.05 Q39.55 7.35 37.3 6.9 L36.25 6.75 Q39.0 6.85 41.1 7.85 42.5 8.55 44.45 10.35 L44.45 10.4 M40.5 11.4 Q37.15 9.4 35.5 9.4 L34.25 9.6 34.25 9.75 32.8 11.25 Q31.15 13.05 30.4 15.4 L30.35 15.4 30.4 15.15 30.3 14.85 Q30.3 13.0 32.3 10.9 L33.55 9.75 33.9 9.5 34.05 9.45 34.75 9.3 36.3 9.2 Q37.1 9.35 39.0 10.2 L41.05 11.25 43.1 12.65 44.85 14.1 46.5 15.35 48.1 16.7 Q49.0 17.7 49.0 18.2 L48.95 18.35 48.55 17.7 49.35 19.55 Q50.25 22.1 50.25 24.05 L50.0 26.15 49.9 26.2 49.85 26.2 50.1 25.15 Q50.1 22.65 49.4 20.35 48.7 18.15 47.45 16.55 L46.5 15.65 Q47.65 16.9 48.35 18.5 48.7 19.05 49.25 21.15 49.85 23.4 49.85 24.3 49.75 25.9 49.2 25.9 L48.95 24.75 48.75 25.2 48.5 24.45 48.45 25.3 48.35 25.35 48.1 23.15 46.45 18.15 Q44.45 14.0 39.6 11.1 L41.35 11.9 40.5 11.4 M44.1 13.75 L44.15 13.8 43.8 13.5 41.95 12.3 42.75 12.85 Q43.2 13.05 44.1 13.75 M45.2 15.1 L45.15 15.2 Q47.5 18.35 48.7 23.8 L48.75 23.8 49.0 23.1 Q49.0 21.35 47.85 19.0 46.8 16.95 45.2 15.1 M42.55 24.4 L42.35 23.9 42.55 24.5 42.55 24.4 M40.7 19.0 L40.75 19.0 41.7 21.4 43.9 27.25 Q45.2 31.1 47.1 34.3 L47.15 34.25 Q46.9 32.95 45.95 30.75 L45.05 28.7 46.7 32.15 Q47.7 34.7 47.95 37.35 L47.25 35.4 47.2 35.4 47.5 36.75 47.7 38.15 Q47.7 39.95 47.05 41.15 L46.75 41.7 47.0 40.0 Q47.0 38.15 46.3 35.45 45.45 32.25 44.8 30.85 43.35 27.9 41.55 21.8 L41.45 21.8 40.7 19.0 M41.65 23.55 L43.1 28.95 Q44.0 32.25 45.0 34.2 L44.15 30.6 43.3 27.75 43.6 28.4 44.55 30.6 46.0 35.0 Q46.6 37.3 46.6 39.4 L46.5 41.05 45.5 43.15 45.3 43.25 45.5 42.95 45.6 42.85 45.8 40.5 45.6 37.95 45.25 36.6 44.75 35.45 44.25 34.4 44.25 34.35 44.15 34.15 Q43.1 31.7 42.6 29.35 L41.3 23.8 40.3 20.15 40.1 19.6 39.65 18.3 39.45 17.7 Q38.45 15.55 36.3 14.0 L36.3 13.9 Q38.8 15.05 39.95 17.45 40.6 18.8 40.8 20.9 L41.65 23.55 M44.6 44.95 L46.45 43.65 47.0 43.25 Q46.1 44.9 44.6 44.95 M48.15 38.8 L48.15 38.65 48.15 38.4 48.2 38.55 48.15 38.8 M45.75 28.85 L46.8 30.6 47.45 32.5 47.4 32.5 47.45 32.55 47.75 33.95 47.3 32.5 46.4 30.3 45.75 28.85 M47.2 30.15 L47.6 30.6 Q49.15 33.75 49.15 36.6 L49.05 38.1 49.05 37.9 48.8 35.4 Q48.55 32.9 47.2 30.15 M36.1 5.15 L34.8 4.7 35.5 4.85 36.1 5.1 36.1 5.15 M37.25 5.55 L38.0 5.9 38.4 6.1 39.2 6.55 39.45 6.7 39.0 6.5 38.1 6.0 36.2 5.2 36.7 5.3 37.25 5.55 M30.95 1.95 L31.05 2.2 31.05 2.1 30.95 1.95 M32.05 4.5 Q30.95 4.8 30.8 5.15 L30.75 5.1 30.6 5.15 30.55 5.05 30.7 4.9 30.8 4.8 30.9 4.4 31.0 3.75 Q31.0 2.55 30.45 1.85 29.75 1.0 27.75 0.4 L27.55 0.35 27.4 0.3 27.55 0.3 27.95 0.25 Q28.85 0.25 29.55 0.6 30.45 0.8 31.25 1.6 32.25 2.65 32.25 3.7 L32.05 4.5 M32.2 5.5 L32.6 5.1 33.0 5.0 33.3 5.0 33.5 5.1 33.0 5.2 32.2 5.55 32.2 5.5 M33.05 3.85 Q33.05 1.75 29.2 0.35 L28.9 0.25 30.35 0.6 Q31.3 0.95 32.1 1.6 33.2 2.55 33.2 3.35 L33.1 3.85 33.05 3.85 M33.6 5.85 L34.2 5.75 34.95 5.75 35.45 5.9 35.4 5.95 34.5 6.4 33.35 6.8 33.3 6.85 Q33.0 7.0 32.65 7.2 L31.25 8.5 31.25 8.45 31.45 7.95 31.55 7.45 31.6 7.3 32.45 6.4 32.9 6.2 33.6 5.85 M35.1 6.85 L36.0 6.85 34.4 7.0 Q32.0 7.9 31.75 9.65 L31.8 9.55 Q32.4 8.45 33.45 7.65 L33.6 7.55 34.55 7.2 36.55 7.1 38.15 7.35 37.4 7.45 36.4 7.35 35.75 7.7 35.7 7.7 Q34.1 7.7 32.6 8.9 L31.5 10.0 31.5 9.85 Q31.5 8.85 32.65 7.75 L33.05 7.4 Q33.1 7.05 33.8 6.9 L33.9 6.9 Q34.9 6.4 36.25 6.45 L35.25 6.7 35.1 6.85 M25.4 5.2 L26.15 5.5 25.4 5.35 24.8 5.4 24.8 5.55 25.0 5.65 Q23.0 5.2 21.45 5.95 L21.6 5.95 20.1 6.3 Q22.15 5.35 24.0 5.0 L24.05 4.85 26.05 4.7 26.15 4.7 Q24.8 3.95 23.2 3.95 21.1 3.95 17.1 5.45 13.15 6.95 11.9 6.95 L9.25 6.75 8.7 6.6 9.45 6.65 9.7 6.65 11.75 6.3 Q13.3 5.75 15.35 4.55 17.05 3.5 18.6 3.0 20.4 2.35 22.05 2.45 24.2 2.45 25.9 3.25 L27.65 3.8 27.75 3.85 Q29.45 4.5 29.7 5.0 L29.7 5.1 29.5 5.4 29.55 5.45 29.55 5.55 29.9 5.85 30.2 5.7 Q29.8 6.05 29.8 6.45 L29.85 7.05 28.9 6.6 27.65 5.8 Q26.7 5.3 25.4 5.2 M28.2 5.25 L28.45 5.65 28.35 5.7 29.2 6.65 29.45 6.25 29.7 6.0 28.55 5.4 28.2 5.25 M27.95 4.7 L28.05 4.5 Q24.5 2.8 22.9 3.25 L23.5 3.25 23.5 3.35 Q25.35 3.6 27.95 4.7 M19.35 6.6 L19.55 6.6 Q21.3 5.95 23.1 5.85 L21.75 5.95 23.5 5.8 26.15 6.3 Q27.05 6.7 27.75 7.3 L28.7 8.25 Q27.95 7.65 26.85 7.1 L26.8 7.1 Q28.3 8.05 29.1 9.05 L29.3 9.6 29.15 9.45 Q27.6 7.9 25.1 7.45 L25.05 7.45 25.05 7.55 26.1 7.9 26.5 8.3 26.35 8.25 26.35 8.35 26.85 8.6 27.1 8.85 27.05 8.85 Q24.75 7.65 22.55 8.25 L25.85 8.7 26.2 8.8 Q27.5 9.8 28.5 11.3 L27.6 10.55 26.8 9.55 Q25.65 8.4 24.0 8.4 21.05 8.4 19.55 9.05 18.45 9.3 17.3 10.0 L16.9 10.15 16.5 10.5 Q15.4 11.25 14.25 12.4 12.15 14.55 10.9 16.95 L10.1 18.2 10.3 17.4 11.7 13.8 Q10.5 15.7 10.05 17.25 9.6 18.7 9.55 20.45 L9.55 20.2 Q9.55 17.6 10.65 15.3 L9.75 17.2 Q9.35 18.4 9.35 20.35 9.35 21.75 9.75 22.95 9.95 23.95 10.45 24.6 L10.5 24.8 10.5 25.05 10.6 25.4 10.0 28.4 10.1 28.4 10.75 26.15 11.6 23.2 12.0 21.6 13.1 18.65 14.45 15.85 14.65 15.05 12.95 17.15 12.85 17.15 13.05 16.6 13.2 16.05 Q13.2 15.4 15.1 12.7 L15.2 12.55 Q15.45 12.3 16.0 12.1 L16.25 12.0 15.35 13.05 15.4 13.1 18.4 11.45 Q20.65 10.35 22.75 10.35 L27.1 11.1 27.15 11.1 27.35 11.3 27.65 11.2 28.1 11.6 27.95 11.5 27.9 11.55 26.8 11.75 25.4 11.95 24.2 12.05 22.0 12.25 21.75 12.25 21.15 12.3 20.85 12.3 19.35 12.2 Q17.9 13.0 16.65 14.3 L14.15 19.3 Q11.6 24.35 11.4 27.8 L11.35 27.8 11.35 27.0 Q11.4 25.75 11.75 24.4 L11.55 25.05 10.1 30.1 10.0 30.3 8.95 31.65 8.65 32.0 9.15 30.3 Q9.7 28.85 9.7 27.55 L9.65 26.4 9.55 26.4 9.1 29.45 8.7 30.65 Q7.75 32.85 5.55 34.6 L5.5 34.6 5.25 34.75 3.45 35.3 3.75 35.1 3.8 35.0 3.8 34.95 4.0 34.6 4.45 33.75 5.25 32.3 5.7 31.75 5.75 31.3 5.85 30.75 5.85 30.6 5.85 30.55 5.95 30.3 6.0 30.3 5.8 31.45 5.55 32.9 5.65 32.9 Q6.55 31.7 7.05 29.25 L7.5 25.3 7.45 23.6 7.4 23.45 Q7.25 23.1 7.25 21.75 7.25 20.4 7.4 19.75 L6.9 21.65 6.8 21.65 6.8 21.4 Q6.65 18.95 8.65 15.9 L8.95 15.45 8.75 15.6 Q7.85 16.45 6.9 18.1 5.7 20.5 5.7 23.3 L5.95 25.2 6.2 26.05 6.2 26.1 Q5.25 24.4 5.25 22.2 L5.3 20.85 Q5.3 18.75 7.6 16.1 L10.15 13.35 10.1 13.2 10.15 13.1 Q10.3 12.5 12.1 10.95 L12.2 10.9 14.65 8.65 Q17.1 5.9 20.45 5.15 17.65 6.05 14.8 8.7 11.85 11.4 11.2 13.05 L11.15 13.15 11.15 13.2 Q9.8 14.6 8.95 16.15 7.85 18.1 7.85 19.75 L8.15 20.7 8.0 22.25 Q8.25 24.55 8.9 24.55 L9.0 24.5 Q8.3 23.3 8.3 22.3 8.3 20.7 9.0 18.7 L8.8 20.55 8.85 21.75 9.45 22.85 9.45 22.8 9.25 20.8 Q9.25 18.15 10.2 15.9 L10.65 15.3 10.7 15.2 10.9 14.95 Q11.75 13.8 11.85 13.05 L12.4 12.35 14.15 10.45 16.0 9.05 Q20.1 6.35 23.9 6.35 L24.55 6.45 24.35 6.35 23.3 6.25 21.6 6.35 20.75 6.6 19.15 7.1 15.75 8.9 15.05 9.4 Q16.1 8.3 18.55 7.0 L19.3 6.65 19.35 6.65 19.35 6.6 M29.25 7.65 L29.2 7.6 28.75 7.2 28.65 7.1 Q28.15 6.65 27.6 6.55 L27.4 6.4 27.3 6.35 Q28.7 6.8 29.35 7.55 L29.9 8.45 29.8 8.3 29.65 8.15 29.25 7.65 M21.2 7.55 L20.75 7.45 Q18.55 7.45 15.85 9.7 14.45 10.8 13.45 12.0 12.7 12.85 11.9 14.5 L11.45 15.45 12.2 14.4 Q13.55 12.6 14.55 11.65 17.65 8.25 21.2 7.6 L21.2 7.55 M26.4 10.35 L26.55 10.35 26.65 10.5 26.4 10.35 M26.5 12.3 L26.7 12.2 26.8 12.25 26.8 12.3 26.85 12.3 26.15 12.5 26.35 12.3 26.5 12.3 M28.65 11.6 L28.65 11.55 28.85 11.9 28.6 11.8 28.65 11.6 M28.2 12.35 L27.45 12.85 Q25.8 13.0 23.3 15.2 L22.45 16.4 22.2 16.9 22.2 16.95 22.15 17.05 21.25 16.75 Q21.8 15.55 22.45 14.5 22.3 14.5 22.2 14.6 L22.55 14.05 22.5 13.9 Q22.45 13.75 22.25 13.75 L22.1 13.75 22.55 13.5 22.85 13.5 22.95 13.5 23.1 13.5 25.95 13.1 Q27.25 12.7 27.3 12.3 L28.2 12.35 M29.95 17.7 L30.85 16.0 Q31.35 15.15 32.0 14.75 L33.0 14.05 33.85 13.75 34.1 13.7 34.75 13.7 35.7 13.9 36.1 14.2 35.3 14.0 Q32.95 14.0 31.45 15.8 30.15 17.25 29.95 19.2 L29.85 19.25 29.8 18.8 Q30.05 18.6 29.95 17.75 L29.95 17.7 M20.7 18.1 L21.55 18.4 21.3 19.1 21.2 19.7 21.75 18.65 21.6 19.25 21.45 19.6 21.35 19.85 20.25 19.45 20.7 18.1 M20.85 12.7 L20.45 12.95 20.35 13.0 20.2 13.1 20.15 13.15 18.25 14.75 17.65 15.55 Q17.25 15.45 17.25 15.65 L17.25 15.7 17.1 15.9 16.7 16.35 16.7 16.65 16.75 16.7 16.05 17.65 Q15.6 18.6 15.05 20.25 14.35 22.35 14.35 23.45 L14.45 23.8 13.75 27.05 13.35 28.95 13.5 27.7 13.45 27.5 12.9 29.45 12.85 29.3 12.2 32.2 12.4 31.6 12.25 32.25 11.05 37.1 9.7 41.6 Q8.95 44.25 8.7 45.65 L8.75 45.15 8.7 45.15 8.7 44.9 8.85 44.65 8.85 44.45 8.95 44.0 9.15 43.05 9.75 41.05 10.2 39.7 10.65 37.85 10.3 38.8 10.15 38.8 12.7 28.25 12.7 27.8 Q12.7 25.6 12.85 24.7 L13.1 23.65 14.1 20.6 15.7 16.95 16.95 15.15 17.3 14.9 Q17.35 13.85 19.5 13.0 L19.55 13.0 20.1 12.8 20.85 12.7 M20.3 22.2 L20.2 22.55 20.35 22.25 20.3 22.2 M21.75 23.4 L21.75 23.6 Q21.75 28.2 21.1 31.8 L20.8 33.5 20.55 35.0 20.6 33.85 21.1 30.95 Q21.5 28.2 21.55 24.85 L21.7 23.8 21.75 23.4 M19.15 9.3 L18.8 9.45 19.2 9.25 19.15 9.3 M17.0 4.95 Q19.6 3.8 21.85 3.4 19.05 3.35 15.8 5.0 14.05 5.9 12.8 6.4 14.75 5.95 17.0 4.95 M8.65 16.15 L7.55 18.9 7.5 19.15 8.3 17.15 9.6 15.0 8.65 16.15 M15.25 15.95 Q13.4 18.55 12.7 21.4 L12.25 22.75 13.85 18.95 15.95 15.1 15.25 15.95 M11.25 19.8 Q10.9 20.75 10.9 21.4 L10.75 23.7 10.8 24.15 10.75 24.55 10.55 21.75 Q10.7 21.0 11.0 20.2 L11.0 20.1 11.15 19.75 11.25 19.8 M16.0 20.75 L16.2 20.15 15.9 21.2 15.8 21.45 16.0 20.75 M15.45 24.05 L15.45 24.6 15.4 24.7 14.75 27.6 13.3 33.4 11.65 39.15 11.1 40.3 11.75 37.65 12.3 35.1 12.35 35.3 12.3 35.65 12.4 35.65 13.15 31.8 13.15 31.85 13.2 31.85 13.15 31.95 13.2 31.95 13.25 31.85 13.3 31.8 13.3 31.75 Q14.2 29.4 15.2 24.3 L15.25 24.3 15.45 24.05 M18.05 22.4 Q17.7 22.75 17.6 23.45 L17.45 24.85 17.25 26.3 17.2 27.15 15.95 32.05 Q14.65 36.05 12.55 41.1 L12.6 41.1 Q15.0 37.1 16.45 32.65 L16.7 31.9 16.6 32.9 14.5 37.95 13.3 40.5 12.8 41.0 11.45 42.75 11.35 42.9 13.35 38.5 14.7 34.9 15.9 31.25 15.85 31.2 Q13.55 38.15 9.95 44.55 L9.85 44.7 10.15 43.75 Q12.65 40.05 13.9 33.55 L15.4 25.6 Q15.3 26.5 15.75 26.7 L15.65 27.25 Q15.6 27.45 15.8 27.5 L14.2 34.25 14.3 34.25 15.65 29.4 16.05 27.35 16.45 26.1 17.05 24.7 18.0 21.9 18.1 21.75 18.05 22.4 M19.75 21.25 L20.85 21.5 19.45 29.25 19.15 33.55 19.05 33.55 19.0 32.1 17.8 38.3 19.1 35.95 Q18.8 37.2 17.95 38.85 L15.3 42.45 16.1 40.35 Q17.3 36.85 17.3 34.35 L17.35 34.0 17.6 31.25 17.75 31.2 17.8 31.15 17.75 32.0 17.85 32.8 17.8 33.45 17.9 33.45 19.2 24.0 Q19.4 22.55 19.75 21.25 M12.25 26.85 L12.3 26.75 Q12.15 28.75 11.05 31.0 9.5 34.1 6.95 35.1 11.95 31.5 12.25 26.85 M17.65 28.45 L17.65 28.35 17.65 27.95 17.8 27.15 17.65 28.45 M19.1 36.9 L19.55 41.65 19.6 42.35 19.6 42.4 19.55 42.0 18.95 37.3 18.9 37.3 18.9 36.9 19.1 36.9 M7.85 26.5 L7.8 26.4 7.95 27.75 Q7.95 29.9 7.1 32.05 L6.3 33.65 6.25 33.85 Q7.25 32.9 7.9 31.45 8.6 29.9 8.75 28.2 L8.6 27.85 8.45 27.6 7.95 26.65 7.85 26.5 M4.2 35.45 L4.65 35.4 4.75 35.4 6.1 34.9 6.15 34.9 Q4.8 35.7 3.75 35.75 L3.3 35.95 3.15 35.9 3.1 35.75 3.15 35.6 3.2 35.6 4.2 35.45 M3.6 35.4 L3.25 35.5 3.35 35.4 3.6 35.4 M9.25 32.65 L9.4 32.45 9.75 32.2 9.25 32.65 M6.15 32.1 L6.1 32.35 6.15 32.15 6.15 32.1 M6.15 33.85 L5.95 34.1 6.25 33.85 6.15 33.85 M9.4 46.1 L9.45 46.0 9.6 45.8 9.4 46.1 M19.85 38.25 L19.8 39.55 19.6 42.2 19.6 41.8 19.45 39.55 19.5 39.15 19.45 38.95 Q19.45 36.85 20.95 25.95 L21.05 26.05 20.5 30.8 19.8 36.0 19.65 37.9 19.7 37.9 19.95 36.85 19.85 38.25 M20.2 41.7 L20.25 43.65 20.25 44.1 20.25 45.55 20.2 45.1 20.2 43.25 20.15 42.7 20.2 41.7 M13.1 45.35 L13.0 45.55 12.9 45.7 13.1 45.35" fill="#9f4035" fill-rule="evenodd" stroke="none"/>
      <path d="M44.1 13.75 Q43.2 13.05 42.75 12.85 L41.95 12.3 43.8 13.5 44.15 13.8 44.1 13.75 M42.55 24.4 L42.55 24.5 42.35 23.9 42.55 24.4 M30.95 1.95 L31.05 2.1 31.05 2.2 30.95 1.95 M3.45 35.3 L3.95 34.6 4.0 34.6 3.8 34.95 3.8 35.0 3.75 35.1 3.45 35.3 M19.3 6.65 L19.35 6.6 19.35 6.65 19.3 6.65 M21.5 21.4 L21.55 21.4 21.6 21.45 21.35 21.4 21.5 21.4 21.4 21.35 21.45 21.3 21.5 21.4 M20.3 22.2 L20.35 22.25 20.2 22.55 20.3 22.2 M6.15 33.85 L6.25 33.85 5.95 34.1 6.15 33.85 M6.15 32.1 L6.15 32.15 6.1 32.35 6.15 32.1" fill="#662822" fill-rule="evenodd" stroke="none"/>
      <path d="M28.7 8.25 Q30.3 9.6 30.3 11.2 L30.25 11.4 30.15 11.4 Q30.05 10.2 29.1 9.05 28.3 8.05 26.8 7.1 L26.85 7.1 Q27.95 7.65 28.7 8.25 M29.05 10.5 Q29.85 11.65 29.85 13.25 L29.8 14.1 29.15 15.2 29.1 15.2 29.55 14.15 29.7 13.15 Q29.7 11.65 29.0 10.5 L29.05 10.5" fill="#d07b73" fill-rule="evenodd" stroke="none"/>
      <path d="M20.7 18.1 L18.85 17.35 18.0 17.15 17.25 16.85 17.15 16.85 16.75 16.8 16.75 16.7 16.7 16.65 16.7 16.35 17.1 15.9 17.25 15.7 17.25 15.65 Q17.25 15.45 17.65 15.55 L17.75 15.55 Q18.05 15.6 18.3 15.8 L20.0 16.3 20.25 16.4 21.0 16.65 21.25 16.75 22.15 17.05 Q22.95 17.4 23.2 17.7 L23.35 17.7 23.6 17.95 23.6 18.25 23.65 18.4 23.6 18.55 23.2 18.8 22.9 18.8 22.3 18.6 21.55 18.4 20.7 18.1 M22.85 17.95 L22.9 17.9 Q22.15 17.05 20.15 16.4 17.15 15.35 17.15 16.05 L22.85 17.95 M21.35 19.85 L21.75 20.1 22.25 20.25 22.5 20.35 22.85 20.8 22.65 21.2 22.65 21.3 Q22.65 21.9 22.2 21.9 L21.85 21.85 21.65 21.75 21.45 21.7 21.45 21.65 21.65 21.5 21.6 21.45 21.3 21.5 20.85 21.5 19.75 21.25 19.1 21.0 18.05 20.55 17.7 20.45 15.8 20.05 15.95 20.05 15.7 19.85 15.95 18.95 16.6 18.6 17.3 18.85 19.35 19.2 20.25 19.45 21.35 19.85 M21.5 21.4 L21.45 21.3 21.4 21.35 21.5 21.4 21.35 21.4 21.6 21.45 21.55 21.4 21.5 21.4 M22.1 20.9 L22.2 20.75 Q21.4 20.15 18.8 19.45 16.1 18.65 16.1 19.15 16.1 19.3 18.6 20.05 L22.1 20.9" fill="#704f3a" fill-rule="evenodd" stroke="none"/>
      <path d="M22.85 17.95 L17.15 16.05 Q17.15 15.35 20.15 16.4 22.15 17.05 22.9 17.9 L22.85 17.95 M22.1 20.9 L18.6 20.05 Q16.1 19.3 16.1 19.15 16.1 18.65 18.8 19.45 21.4 20.15 22.2 20.75 L22.1 20.9" fill="#b08568" fill-rule="evenodd" stroke="none"/>
      <path d="M31.3 0.85 L31.4 0.85 31.85 1.05 33.3 1.65 Q34.95 2.6 34.95 4.15 L34.95 4.55 35.2 4.5 Q35.9 4.5 38.35 5.8 L41.2 7.4 45.05 10.6 45.05 10.65 44.9 10.55 45.95 11.7 45.95 11.65 48.65 14.75 48.4 14.4 48.8 14.9 50.6 17.15 Q52.8 20.05 52.8 23.15 52.8 25.2 52.2 27.35 L51.7 29.25 51.9 29.85 52.6 31.3 52.85 31.5 52.6 31.35 Q53.05 31.75 53.65 31.85 L53.65 31.95 53.3 31.95 52.9 31.9 53.05 32.0 54.95 32.5 55.1 32.55 55.35 32.5 55.4 32.5 55.25 32.55 55.3 32.55 54.5 32.85 53.2 32.5 Q52.05 32.2 51.05 31.4 L52.8 32.25 Q51.5 31.25 50.6 29.7 L49.05 26.9 Q47.3 24.25 46.55 21.45 L46.6 21.45 Q47.8 24.55 49.45 27.45 L51.65 30.8 51.6 30.7 51.15 29.75 50.95 29.0 50.95 28.9 51.0 28.3 51.15 27.95 51.4 27.25 Q52.05 25.0 52.05 23.2 52.05 20.85 51.05 18.65 L50.75 18.0 50.3 17.3 46.2 12.05 44.35 10.15 44.15 9.95 40.65 7.55 Q37.7 5.75 34.85 4.85 L34.65 5.0 34.5 4.7 34.45 4.7 34.4 4.7 34.45 4.7 33.2 4.55 31.4 4.8 32.1 4.55 34.35 4.55 34.5 4.6 34.3 4.05 Q33.95 2.85 33.25 2.1 32.6 1.5 31.1 0.95 L31.15 1.0 30.2 0.7 30.75 0.85 29.05 0.35 29.85 0.6 27.45 0.3 28.85 0.75 Q29.6 1.0 30.2 1.45 31.55 2.5 31.55 3.8 L31.35 4.85 30.4 5.6 30.3 5.6 30.65 5.2 30.1 5.65 30.05 5.55 30.7 5.15 31.0 4.15 31.0 3.7 Q30.85 2.45 29.75 1.65 28.25 0.45 25.3 0.35 L24.8 0.45 24.65 0.45 24.8 0.35 24.7 0.35 24.85 0.3 Q25.45 -0.1 26.75 0.0 L29.05 0.35 28.65 0.25 28.9 0.25 31.45 0.9 31.3 0.85 M29.7 5.5 L30.4 6.15 30.4 6.35 Q30.85 5.9 31.2 5.75 L30.35 6.5 30.4 6.65 30.3 6.95 30.65 6.45 30.25 7.1 30.1 7.55 Q31.65 9.0 31.65 10.9 L31.65 11.0 33.45 9.4 33.6 9.5 33.85 9.3 33.6 9.5 Q31.5 11.6 30.4 13.65 L30.05 14.9 30.0 14.9 30.0 14.5 29.9 14.7 29.8 14.7 29.8 14.15 30.9 12.05 31.15 10.9 Q31.05 9.4 29.9 7.9 L29.35 7.25 Q28.6 6.5 27.7 6.1 26.45 5.5 24.85 5.45 L25.2 5.45 26.85 5.65 26.45 5.45 27.1 5.7 Q28.15 6.0 28.95 6.7 L29.7 7.2 29.7 7.1 29.8 6.85 30.0 6.55 30.1 6.5 30.25 6.45 30.35 6.4 28.85 5.4 28.3 5.1 25.25 4.7 Q21.3 4.7 18.25 6.1 L16.9 6.9 16.8 7.0 15.5 8.0 13.2 10.05 12.6 10.75 11.2 12.45 9.35 14.5 10.25 13.4 8.05 15.75 8.15 15.7 Q6.7 17.25 5.85 18.65 5.05 20.3 4.45 22.8 4.55 24.45 5.4 26.95 6.25 29.55 6.3 30.85 L6.35 30.4 6.4 30.85 6.25 31.65 5.95 32.6 5.3 33.5 5.1 33.7 3.95 34.75 3.4 35.3 4.45 34.95 5.4 34.45 4.45 35.0 Q3.4 35.55 2.55 35.55 L0.6 35.0 0.6 34.85 1.2 35.15 2.55 35.35 3.3 35.3 3.75 34.85 3.25 34.95 3.15 35.0 Q4.65 33.75 5.3 32.6 L5.25 32.6 Q5.8 31.4 5.8 30.3 L5.75 29.45 5.1 27.0 4.75 25.65 Q4.15 23.7 4.15 22.45 L4.2 22.1 4.15 21.85 Q4.15 19.8 6.15 17.0 8.15 14.2 10.7 12.7 L10.75 12.7 11.6 11.6 12.45 10.4 Q14.0 8.55 15.95 7.25 L12.3 7.65 11.3 7.6 9.95 7.35 9.45 7.2 9.45 7.1 9.6 7.1 9.4 6.95 8.85 6.85 Q8.75 6.8 8.8 6.55 L8.85 6.45 8.9 6.7 9.2 6.7 10.05 6.65 12.0 6.0 Q13.7 5.1 14.5 4.75 L16.85 3.55 17.65 3.2 17.0 3.2 16.95 3.15 15.75 3.0 19.55 2.4 24.1 1.8 26.55 2.55 Q28.1 3.2 28.2 3.65 L28.2 3.7 Q29.4 4.4 30.1 5.3 L30.1 5.45 28.4 4.1 26.7 3.2 27.35 3.55 29.85 5.4 29.7 5.5 29.75 5.4 Q29.0 4.5 27.2 3.55 L25.95 2.95 25.75 2.9 24.5 2.5 22.85 2.35 18.9 2.9 19.35 2.9 19.35 2.95 19.45 2.95 19.8 2.9 20.3 2.8 20.3 2.85 21.95 2.8 22.05 2.8 22.85 2.9 22.35 2.9 21.7 2.85 20.0 3.05 19.6 3.15 18.35 3.5 15.0 5.1 14.75 5.2 Q12.15 6.65 10.85 6.75 L9.65 6.95 9.55 6.95 10.1 7.1 11.3 7.3 14.3 7.15 16.25 6.6 16.95 6.4 18.8 5.35 18.45 5.9 Q21.4 4.6 25.3 4.6 L26.55 4.65 26.65 4.5 27.2 4.45 Q28.35 4.45 29.7 5.5 M43.0 17.75 Q40.9 17.25 39.6 16.05 L37.4 14.0 37.45 14.0 37.85 14.25 37.9 14.25 40.2 16.05 Q41.8 17.2 43.15 17.55 L41.3 17.05 42.95 17.7 43.0 17.75 M35.6 9.05 L36.65 9.15 36.85 9.2 34.2 9.15 35.6 9.05 M29.05 12.05 L29.45 12.5 29.55 12.55 29.6 12.6 29.45 12.55 29.65 14.1 29.5 15.1 29.5 15.55 29.3 17.3 29.2 17.3 29.25 16.65 29.3 15.35 29.3 15.3 29.05 12.65 28.95 12.45 28.9 12.05 29.05 12.05 M31.9 15.1 Q31.3 15.7 30.85 16.45 L30.75 16.6 29.7 18.8 29.8 18.7 30.95 17.4 32.3 16.1 33.45 15.0 32.65 15.95 Q32.15 17.0 30.6 18.45 L30.6 18.5 29.75 19.5 29.65 19.65 29.6 19.65 29.65 19.6 Q29.4 19.6 29.35 19.45 L29.3 19.55 29.25 19.55 29.35 19.35 29.55 18.95 29.75 18.5 29.6 18.5 29.55 18.05 Q29.55 16.9 30.6 15.45 31.9 13.65 34.05 13.4 L34.2 13.35 34.15 13.4 34.7 13.35 Q37.2 13.35 38.1 15.9 L39.7 18.9 40.0 18.95 40.0 19.0 39.7 18.95 40.05 19.75 41.5 24.9 41.6 25.45 42.1 27.6 Q42.3 28.55 44.4 34.15 46.2 39.0 46.2 40.95 L46.15 41.75 46.05 42.3 45.6 43.25 45.15 43.7 45.05 43.8 45.0 43.8 44.2 44.3 44.05 44.4 44.0 44.45 43.95 44.45 43.4 44.75 43.15 44.8 43.15 45.0 46.0 43.95 Q47.45 43.1 48.35 41.9 49.65 40.2 49.65 38.1 49.65 35.75 48.7 32.3 L47.7 28.6 47.6 27.85 47.65 27.85 49.05 33.05 49.6 35.4 49.65 35.35 Q50.5 36.7 50.5 38.9 50.5 40.35 49.15 42.3 L50.15 43.95 Q51.1 45.2 52.35 45.7 L51.65 44.55 51.5 44.0 51.45 43.9 51.3 42.6 51.35 41.7 51.35 41.4 51.35 41.2 51.3 41.2 51.35 41.1 51.35 41.05 51.25 38.15 Q51.1 36.45 50.6 35.3 L50.6 35.05 50.5 34.85 50.55 34.85 Q51.3 35.75 51.5 36.95 L51.6 39.1 51.45 40.7 51.45 40.8 52.05 39.1 52.5 36.95 52.1 35.0 52.15 34.8 52.25 34.8 Q52.9 35.85 52.9 37.25 52.9 38.9 51.95 40.45 51.7 41.45 51.7 42.5 51.7 43.85 52.15 44.55 52.65 45.5 53.95 45.95 L54.0 45.95 55.05 45.95 55.65 45.75 Q55.3 46.05 54.5 46.15 L53.1 46.1 53.0 46.1 Q51.4 45.8 50.3 44.6 49.5 43.9 49.35 43.35 L49.0 42.5 48.7 42.9 48.85 43.15 49.05 44.1 48.95 44.9 48.85 44.9 48.85 45.25 Q48.85 46.25 48.25 47.25 47.55 48.4 46.35 49.05 L46.3 49.0 Q47.6 47.85 48.1 46.8 L48.15 46.7 47.25 47.9 Q46.8 48.85 45.6 48.85 L45.25 48.75 Q46.05 48.5 46.5 47.9 L46.85 46.9 46.65 45.8 46.0 44.75 45.5 44.9 45.4 44.95 44.05 45.6 43.9 45.6 43.9 45.7 43.4 47.05 42.25 48.25 42.0 48.65 41.95 49.1 41.7 50.1 41.3 50.8 Q40.85 51.3 40.3 51.3 L40.1 51.25 Q40.15 50.95 40.55 50.7 L41.0 50.5 41.0 50.3 40.95 50.45 40.85 50.45 Q40.75 49.95 38.6 48.55 L38.5 48.55 36.85 48.35 39.3 49.3 39.35 49.3 39.0 49.4 38.15 49.3 37.9 49.3 Q36.7 49.3 34.95 48.2 33.3 47.15 33.3 46.7 L33.35 46.45 33.5 46.45 34.9 47.75 34.6 47.5 36.35 48.5 35.75 47.95 Q34.6 47.4 34.25 46.75 L34.3 46.75 32.6 45.55 34.9 47.0 36.25 47.6 37.65 47.85 38.2 47.95 37.2 47.2 36.05 46.15 37.3 47.1 38.55 48.0 38.65 48.05 Q40.05 48.7 40.55 49.45 L41.1 49.95 41.15 49.9 Q40.95 48.95 39.65 47.65 38.7 47.5 37.5 46.85 36.15 46.15 35.45 45.4 L37.75 46.8 39.55 47.45 39.5 47.4 39.3 47.35 37.8 46.55 39.2 47.2 37.5 45.8 37.6 45.8 39.4 47.25 39.45 47.25 40.7 47.6 41.45 47.85 41.5 47.9 40.25 47.6 40.15 47.65 39.8 47.65 40.6 48.5 41.25 49.55 41.45 48.8 41.4 48.8 41.45 48.75 42.0 48.0 Q42.8 46.65 43.0 45.2 L42.85 45.2 42.7 45.1 43.0 45.05 43.05 44.85 42.75 44.95 42.6 45.0 42.0 45.05 41.1 45.0 42.65 44.75 42.0 44.8 40.55 44.7 39.3 44.4 39.55 44.4 40.5 44.5 41.8 44.4 43.05 44.0 42.85 42.7 43.15 44.0 44.55 43.2 44.85 41.35 44.9 41.95 44.65 43.1 44.95 42.8 Q45.5 42.05 45.5 40.85 L45.35 40.05 45.4 39.9 44.7 37.1 43.65 34.65 42.95 32.75 42.05 30.1 Q41.45 28.4 41.05 24.95 L39.7 19.75 39.4 18.8 37.45 18.65 37.45 18.5 39.35 18.75 38.65 17.15 37.8 15.9 37.75 15.8 36.9 15.65 Q35.25 15.65 33.6 16.8 L31.4 18.95 31.3 18.9 31.25 18.9 31.2 18.85 31.25 18.85 31.2 18.75 Q31.2 18.3 32.35 17.4 33.35 16.55 34.05 16.25 L33.8 16.55 35.3 15.8 37.7 15.75 37.3 15.15 Q36.15 13.95 34.6 13.95 33.55 13.95 32.7 14.35 L31.9 15.1 M31.25 15.5 Q30.7 16.2 30.1 17.8 L30.75 16.45 30.85 16.3 31.9 14.9 32.15 14.65 31.25 15.5 M28.9 16.7 L28.8 16.7 28.25 13.6 28.4 13.4 28.95 15.75 28.9 16.7 M28.75 18.4 L29.2 20.75 29.2 21.35 29.0 21.4 28.8 21.35 28.7 20.6 28.5 20.3 28.45 20.3 28.5 20.3 27.95 19.45 27.2 18.1 Q25.55 16.6 24.4 16.15 L24.4 16.1 Q26.05 16.6 27.0 17.7 L25.4 14.85 25.55 14.95 25.6 14.9 27.15 17.0 27.25 17.15 28.55 19.3 28.45 18.1 28.5 18.0 28.4 16.95 Q28.45 16.05 27.55 14.15 L27.6 14.15 28.15 15.35 28.5 16.55 28.7 17.85 28.75 18.4 M33.5 18.3 L34.9 17.8 38.6 17.7 34.9 18.0 33.55 18.3 33.5 18.3 M32.2 18.55 Q35.3 16.95 37.85 17.3 L37.9 17.35 37.2 17.3 34.6 17.7 Q33.0 18.15 32.25 18.55 L32.2 18.55 M44.95 20.45 L45.5 21.95 46.0 23.35 44.65 20.2 Q43.75 18.3 42.4 18.0 43.3 17.95 44.15 18.95 44.85 19.8 44.95 20.45 M38.35 9.4 Q43.05 11.15 47.45 15.55 42.55 11.2 38.35 9.4 M55.05 33.5 L55.3 33.3 54.35 33.3 Q52.45 33.1 51.1 32.0 L49.45 30.25 51.15 31.95 Q52.75 33.1 55.55 33.15 L55.6 33.1 55.55 33.15 55.65 33.15 56.25 33.1 55.65 33.25 55.65 33.3 55.4 33.3 55.3 33.4 55.35 33.35 54.8 34.05 Q54.15 34.65 53.25 34.65 L52.5 34.5 52.15 34.5 50.55 34.25 49.65 33.8 Q50.75 36.0 50.75 37.3 L50.7 38.05 50.7 38.25 50.5 39.75 50.45 39.75 50.6 38.45 50.55 38.45 50.6 38.05 50.25 36.5 49.45 34.6 50.3 35.8 48.9 32.4 49.65 33.75 50.55 34.1 52.15 34.3 53.7 34.1 54.1 33.9 55.05 33.5 M49.9 37.1 L49.85 36.9 49.9 37.1 M51.45 41.15 L51.5 41.05 51.45 41.1 51.45 41.15 M51.5 39.25 Q51.5 37.4 50.9 35.75 51.4 37.5 51.45 40.45 L51.5 39.25 M48.35 43.3 L48.4 43.45 48.7 44.1 48.65 43.75 48.4 43.25 48.35 43.3 M48.5 44.65 L48.3 43.7 48.2 43.45 46.25 44.7 46.5 45.0 Q47.45 45.65 47.45 46.95 L47.45 47.0 47.45 47.15 47.25 47.9 48.1 46.6 48.45 45.5 48.5 44.85 48.5 44.7 48.5 44.65 M46.05 44.75 L46.5 45.0 46.2 44.7 46.05 44.75 M43.8 45.3 L44.05 45.1 43.75 45.1 43.8 45.3 M43.6 45.45 L43.65 45.4 43.65 45.1 43.15 45.2 Q42.95 46.6 42.1 47.95 L42.2 47.95 42.35 47.75 42.3 47.75 42.5 47.6 Q43.5 46.4 43.65 45.5 L43.6 45.45 M39.55 47.45 L40.15 47.55 39.55 47.4 39.55 47.45 M13.3 5.85 L11.8 6.45 12.0 6.4 12.6 6.2 13.3 5.85 M15.95 3.55 L15.7 3.6 15.65 3.6 15.95 3.55 M23.65 3.0 L23.2 2.9 23.65 2.95 23.65 3.0 M7.9 15.85 L8.9 14.7 7.75 15.95 7.9 15.85 M6.8 26.15 L6.9 30.75 6.75 31.9 6.15 33.25 6.1 33.25 Q6.75 31.85 6.8 29.7 L6.75 26.15 6.8 26.15 M5.9 30.25 L5.85 31.15 5.95 31.35 5.95 30.85 5.9 30.25 M26.0 8.05 Q24.65 7.3 22.8 7.3 19.4 7.3 17.0 8.9 L12.55 12.6 Q14.2 10.8 15.85 9.55 19.0 7.2 22.9 7.2 24.7 7.2 26.1 8.0 L27.7 9.15 26.0 8.05 M27.8 12.2 L25.1 12.5 24.55 12.6 22.2 12.9 20.1 12.7 19.95 12.65 19.7 12.6 19.9 12.65 19.5 12.4 19.5 12.35 19.6 12.3 20.75 12.45 25.15 12.0 27.7 11.75 27.7 11.85 26.1 12.25 28.25 12.2 27.8 12.2 M19.4 12.95 L18.95 13.25 17.05 15.45 Q15.4 18.4 14.35 21.9 13.5 25.1 12.9 29.75 L12.8 30.65 11.85 35.2 9.95 40.6 9.1 44.05 8.8 46.7 9.55 45.45 13.3 41.15 14.4 39.15 14.45 39.05 14.8 37.65 Q15.2 36.4 15.75 35.55 L16.2 34.35 16.4 33.85 16.9 30.45 16.95 30.45 17.0 30.6 16.7 33.15 16.85 32.75 16.7 33.2 16.45 34.7 15.4 40.75 Q15.15 42.45 13.85 44.55 L13.45 45.2 13.2 45.6 12.5 46.4 12.3 46.65 12.2 46.6 12.25 46.5 12.85 45.3 12.85 45.15 Q12.45 44.75 12.1 43.75 L11.4 44.3 10.65 45.35 8.45 48.65 8.35 49.55 Q8.35 50.85 9.0 51.8 8.1 50.8 8.1 49.45 8.1 48.35 8.5 47.3 L8.35 45.9 8.7 43.9 8.4 44.35 Q7.3 46.0 5.85 45.85 6.8 45.35 7.45 44.65 8.25 43.6 8.75 42.1 L8.75 42.0 8.8 41.9 8.8 41.55 Q8.8 39.55 8.2 37.75 L7.55 36.0 7.6 35.75 7.65 35.75 8.45 38.35 8.95 41.1 8.95 41.2 9.4 39.4 9.6 38.45 9.65 38.2 Q10.3 35.3 10.35 33.85 L10.4 33.85 10.45 33.95 10.6 32.9 9.8 33.85 7.25 35.5 7.2 36.25 7.3 37.35 7.85 38.55 7.5 37.2 Q8.25 38.95 8.5 40.6 L8.6 41.7 8.35 42.65 7.75 43.65 7.7 43.65 8.1 41.65 7.7 39.75 7.25 38.5 7.35 38.45 Q6.7 37.55 6.65 36.5 L5.1 37.6 5.15 37.45 5.05 37.55 4.95 37.55 5.2 37.25 5.15 37.25 4.9 37.45 6.65 35.65 Q7.0 35.3 8.1 34.7 L9.5 33.85 11.0 31.95 12.05 30.15 11.55 31.45 11.55 31.4 11.25 33.2 11.05 35.1 11.0 35.1 11.0 34.25 11.1 32.75 11.3 31.85 10.7 32.75 10.7 33.15 10.55 34.55 10.55 35.25 10.05 38.8 10.8 36.75 10.8 36.7 11.8 32.85 12.2 30.9 12.15 30.45 Q12.15 25.15 13.95 19.95 16.1 13.85 19.4 12.8 L19.3 12.95 19.4 12.95 M19.7 12.6 L19.4 12.5 19.45 12.45 19.7 12.6 M23.1 17.45 L23.0 17.4 Q23.4 16.45 23.95 15.7 L23.1 17.45 M23.3 17.2 Q24.6 14.25 27.95 13.15 L28.2 13.15 28.35 13.25 28.35 13.3 Q26.2 13.7 24.95 15.0 L23.4 17.15 23.3 17.2 M23.45 17.65 L23.7 18.2 Q23.7 18.65 23.15 18.95 L22.9 18.95 23.35 18.45 23.5 18.15 23.35 17.65 20.5 16.55 17.55 15.55 17.65 15.5 Q21.4 16.7 23.35 17.6 L23.4 17.6 23.45 17.65 M23.4 17.3 L25.85 17.55 Q26.9 17.9 27.25 18.5 L27.25 18.55 25.95 18.0 23.45 17.55 23.4 17.3 M28.35 13.05 L28.55 13.0 28.6 13.05 28.35 13.05 M16.65 6.55 L16.0 6.75 16.45 6.6 16.65 6.55 M10.55 13.0 L10.35 13.25 10.5 13.1 10.55 13.0 M17.05 16.75 Q20.25 17.7 22.8 18.8 L22.8 19.0 22.55 18.85 22.15 20.2 22.75 20.45 22.8 20.45 22.85 20.95 22.7 21.8 22.35 22.1 22.1 22.1 21.8 22.05 21.75 22.3 21.95 23.15 22.0 24.25 22.05 26.4 21.1 35.15 20.4 41.05 20.35 43.45 20.35 43.65 20.35 45.3 20.4 47.6 20.85 48.95 20.95 48.8 21.5 47.7 22.6 46.2 22.75 46.35 22.75 46.3 22.8 46.45 22.95 46.25 22.8 46.5 22.6 47.3 22.65 47.15 Q23.3 46.2 24.5 45.9 L24.55 45.95 24.7 45.9 24.7 46.0 24.45 46.15 23.8 46.85 22.3 48.85 22.2 48.85 22.1 49.65 21.9 49.7 Q21.75 49.3 21.75 48.75 L21.8 48.35 21.1 49.5 21.05 49.55 21.35 50.3 21.0 49.6 20.9 49.6 20.9 49.45 20.85 49.35 20.8 49.4 20.95 49.8 21.0 50.0 21.0 50.4 20.95 50.45 20.7 50.05 20.7 50.15 20.6 49.9 18.9 47.85 17.15 46.0 17.6 47.1 17.95 49.15 Q17.95 51.5 16.6 51.5 L16.35 51.45 16.25 51.35 16.2 51.3 16.7 50.9 16.15 51.25 17.0 50.35 17.3 48.1 17.0 46.45 16.7 45.4 16.6 45.2 16.55 45.05 16.55 44.85 16.5 44.7 16.2 44.1 15.55 44.95 14.85 45.7 15.0 45.85 Q16.0 46.3 16.55 47.1 L17.1 48.35 17.15 48.5 17.1 48.4 17.1 48.8 Q17.1 50.1 16.4 50.1 L16.15 50.05 Q16.7 49.75 16.7 48.85 16.7 48.15 16.25 47.5 L16.2 47.4 16.2 48.0 Q16.2 49.35 15.6 49.4 L15.6 49.1 15.7 48.85 Q15.65 47.3 15.25 46.4 L14.7 45.8 14.45 46.0 Q15.45 47.05 15.55 48.75 L15.45 48.55 15.4 48.6 14.7 47.6 14.0 46.55 13.1 47.3 Q11.9 48.2 11.1 48.05 L11.05 48.0 11.1 47.95 Q10.7 47.95 10.6 47.8 L10.65 47.7 Q12.35 47.45 13.8 45.7 L15.5 43.2 17.6 40.1 17.85 39.25 17.95 39.3 Q18.0 38.9 18.2 38.7 L18.25 38.9 18.5 38.3 18.3 39.1 18.6 40.8 18.5 39.05 18.85 42.1 19.2 44.25 20.1 47.65 Q19.65 44.45 19.65 42.9 19.65 39.2 20.65 33.65 L21.0 30.45 Q21.45 28.05 21.55 23.0 L21.6 22.65 21.55 22.45 21.6 22.05 21.65 22.05 21.7 22.0 21.65 21.95 21.55 21.8 22.4 21.8 22.7 20.45 22.75 20.45 16.05 18.6 Q17.1 18.55 19.65 19.35 L22.05 20.15 22.4 18.8 19.9 17.9 17.1 16.85 17.1 16.95 Q16.6 17.0 16.6 16.65 17.0 15.5 17.5 15.5 17.05 15.7 16.8 16.55 L17.05 16.8 17.05 16.75 M18.1 21.95 L16.95 30.15 16.9 30.15 18.0 21.95 18.1 21.95 M15.65 20.05 Q17.85 20.4 22.05 21.7 L19.2 21.0 15.8 20.15 15.65 20.05 M16.1 18.7 L16.2 18.75 16.1 18.95 Q15.8 19.25 15.8 19.9 L15.7 19.95 15.6 19.75 Q15.6 19.0 16.1 18.7 M13.05 28.15 L13.35 25.85 Q13.7 23.35 14.2 21.8 15.4 18.35 16.7 15.95 14.6 19.0 13.85 22.85 L13.2 26.9 13.05 28.15 M11.75 25.6 Q10.9 30.45 9.35 32.65 L6.05 36.05 4.9 37.25 4.3 38.05 Q3.65 38.9 3.5 39.6 L3.4 39.7 3.35 39.6 Q3.35 39.05 3.85 38.3 L3.8 38.25 4.2 37.4 4.7 36.55 5.2 35.95 3.65 36.1 3.5 36.1 3.45 36.1 Q1.5 36.05 0.85 35.6 L0.0 34.8 0.0 34.55 0.75 35.15 Q1.75 35.7 3.3 35.7 5.05 35.7 6.15 35.05 7.3 34.35 7.4 34.35 L7.3 34.6 9.05 32.75 Q10.75 30.5 11.7 25.6 L11.75 25.6 M21.7 24.0 L21.3 29.65 Q21.7 26.5 21.7 24.45 L21.7 24.0 M16.0 35.35 L16.15 34.75 15.9 35.35 16.0 35.35 M16.35 34.35 L16.4 34.05 16.25 34.35 16.35 34.35 M11.35 34.9 L11.2 35.55 11.3 35.2 11.35 34.9 M12.6 43.3 L13.25 44.5 14.8 40.5 15.05 39.35 14.75 40.3 14.45 41.45 14.0 42.1 13.35 42.6 12.6 43.3 M14.35 39.4 L13.9 40.65 14.15 40.05 14.35 39.4 M17.7 41.55 L16.75 43.3 16.3 43.95 16.35 44.05 16.5 44.35 16.9 44.95 16.9 44.9 Q17.25 45.65 19.15 47.45 L19.55 47.8 19.35 47.35 18.75 44.85 18.0 40.85 17.7 41.55 M14.35 46.1 L14.2 46.15 14.45 46.3 14.35 46.1 M14.05 45.85 L14.25 45.55 13.95 45.9 14.05 45.85 M14.8 45.75 L14.85 45.75 14.8 45.7 14.8 45.75 14.75 45.75 14.9 45.85 14.8 45.75 M13.2 44.55 L13.1 44.4 13.2 44.6 13.2 44.55 M20.15 44.75 L20.1 46.95 20.3 48.2 20.4 48.5 20.65 48.9 20.3 47.85 Q20.15 47.05 20.15 45.4 L20.15 44.75 M20.7 49.05 L20.5 48.75 20.7 49.25 20.75 49.15 20.7 49.05 M7.15 35.55 L7.15 35.6 7.15 35.65 7.15 35.55 M6.75 35.9 L6.8 35.85 6.7 35.9 6.75 35.9 M6.7 36.15 L6.7 36.1 6.65 36.15 6.7 36.15" fill="#000000" fill-rule="evenodd" stroke="none"/>
    </g>
  </defs>
</svg>
