<?xml version="1.0" encoding="UTF-8" standalone="no"?>
<svg xmlns:ffdec="https://www.free-decompiler.com/flash" xmlns:xlink="http://www.w3.org/1999/xlink" ffdec:objectType="frame" height="70.65px" width="84.65px" xmlns="http://www.w3.org/2000/svg">
  <g transform="matrix(1.0, 0.0, 0.0, 1.0, 44.85, 48.05)">
    <use ffdec:characterId="6" height="53.55" transform="matrix(0.5733, 0.0922, -0.0922, 0.5733, 15.55, -12.0)" width="42.3" xlink:href="#sprite0"/>
    <use ffdec:characterId="2" height="12.25" transform="matrix(0.965, 0.2623, -0.2623, 0.965, 12.2, 2.0)" width="9.9" xlink:href="#sprite1"/>
    <use ffdec:characterId="2" height="12.25" transform="matrix(-0.8439, 0.5365, 0.5365, 0.8439, 24.65, -8.15)" width="9.9" xlink:href="#sprite1"/>
    <use ffdec:characterId="4" height="28.3" transform="matrix(-0.9966, 0.0829, 0.0829, 0.9966, 25.6, -15.2)" width="17.9" xlink:href="#sprite2"/>
    <use ffdec:characterId="2" height="12.25" transform="matrix(0.9172, 0.3983, -0.3983, 0.9172, 9.1, -14.3)" width="9.9" xlink:href="#sprite1"/>
    <use ffdec:characterId="2" height="12.25" transform="matrix(1.0, 0.0, 0.0, 1.0, 4.7, -15.5)" width="9.9" xlink:href="#sprite1"/>
    <use ffdec:characterId="2" height="12.25" transform="matrix(1.2524, -0.0984, 0.1107, 1.4096, 0.35, -15.6)" width="9.9" xlink:href="#sprite1"/>
    <use ffdec:characterId="4" height="28.3" transform="matrix(0.9924, -0.123, 0.123, 0.9924, 10.65, -22.9)" width="17.9" xlink:href="#sprite2"/>
    <use ffdec:characterId="2" height="12.25" transform="matrix(-0.965, 0.2623, 0.2623, 0.965, -13.2, 2.0)" width="9.9" xlink:href="#sprite1"/>
    <use ffdec:characterId="4" height="28.3" transform="matrix(0.98, 0.1987, -0.1987, 0.98, -24.35, -16.3)" width="17.9" xlink:href="#sprite2"/>
    <use ffdec:characterId="8" height="17.15" transform="matrix(-0.8042, -0.6055, -0.8964, 1.0627, 1.25, -1.55)" width="24.55" xlink:href="#sprite3"/>
    <use ffdec:characterId="13" height="64.4" transform="matrix(0.7852, 0.2235, -0.2235, 0.7852, -17.4, -48.05)" width="65.85" xlink:href="#sprite4"/>
  </g>
  <defs>
    <g id="sprite0">
      <use ffdec:characterId="5" height="53.55" transform="matrix(1.0, 0.0, 0.0, 1.0, 0.0, 0.0)" width="42.3" xlink:href="#shape0"/>
    </g>
    <g id="shape0">
      <path d="M13.8 21.9 L17.5 25.05 Q15.8 15.2 24.6 13.85 L26.05 13.6 Q24.05 3.0 32.95 0.35 L37.45 0.15 Q41.5 0.8 42.3 5.0 L41.55 6.0 Q39.65 4.75 37.35 4.05 35.9 5.9 35.95 8.7 L38.9 14.55 39.15 15.25 39.35 15.85 39.7 17.05 39.85 17.6 40.4 20.4 40.5 21.2 Q40.9 25.0 40.15 28.75 39.9 30.6 38.25 31.65 38.85 43.65 30.45 50.0 24.9 54.05 17.5 53.5 13.35 53.2 7.8 49.9 2.3 46.6 0.0 42.95 L0.8 42.35 Q3.6 45.85 7.3 48.3 11.4 51.0 16.15 51.8 20.85 52.4 25.3 50.7 29.35 49.3 32.25 46.3 L32.5 46.05 33.35 45.1 34.15 44.1 34.8 43.1 36.9 38.35 36.95 38.1 36.95 38.0 37.0 37.9 37.2 36.3 37.25 35.65 37.25 35.55 37.25 34.75 37.0 30.7 Q36.7 28.35 36.15 27.05 L32.65 19.95 Q30.15 15.1 25.15 15.6 20.05 15.95 19.5 19.2 18.85 22.5 19.9 26.0 L19.8 26.25 Q18.75 26.55 21.15 26.4 L24.7 26.1 25.15 26.3 25.9 26.9 26.15 27.6 Q24.35 28.45 22.6 28.5 L21.95 28.45 Q20.2 28.35 18.4 27.45 15.05 25.8 13.45 22.5 L13.45 21.7 13.45 21.6 13.8 21.9 M34.25 5.55 Q34.9 2.5 37.75 1.75 30.15 0.0 27.85 6.8 26.5 10.55 27.85 14.75 36.0 19.5 37.9 29.8 39.95 28.2 39.25 24.35 40.0 16.95 37.05 12.05 34.0 7.15 34.25 5.55" fill="#000a2c" fill-rule="evenodd" stroke="none"/>
      <path d="M5.9 39.05 L6.85 37.95 8.05 36.55 10.1 38.35 6.55 43.1 6.5 43.05 5.75 42.45 Q5.0 41.55 5.55 40.3 L5.7 39.9 5.9 39.05 M29.3 6.7 Q29.35 6.1 30.1 5.45 30.3 5.25 30.55 5.2 32.05 3.35 33.05 5.95 32.85 9.6 33.4 10.95 L35.05 14.25 35.2 15.05 Q34.2 15.15 33.6 14.35 32.9 13.45 32.2 13.4 30.5 13.25 29.65 11.35 30.15 11.65 30.6 11.55 31.6 11.4 31.9 10.3 L32.05 9.05 31.65 8.1 30.95 8.35 30.05 8.15 29.4 7.5 29.3 6.7 M21.1 19.85 L21.45 19.25 22.0 19.25 Q23.15 19.3 23.45 20.05 23.8 20.95 22.8 21.1 21.6 21.35 21.15 20.15 L21.1 19.85 M26.4 20.25 L25.85 20.1 25.5 19.65 Q25.3 19.15 26.05 18.95 26.75 18.8 27.0 19.5 27.2 20.1 26.4 20.25 M26.25 22.15 Q27.25 22.4 27.5 23.1 27.85 24.05 27.2 24.15 26.8 24.25 26.25 23.8 L25.6 23.05 Q25.15 21.75 26.25 22.15 M16.65 29.9 L16.6 29.8 16.5 29.2 Q16.5 28.7 16.65 28.55 L17.45 28.35 Q18.35 28.35 18.6 28.95 L18.65 29.45 18.65 29.5 18.75 29.85 Q18.75 30.5 18.1 30.5 L17.4 30.4 16.65 29.9 M18.85 34.2 Q18.85 33.1 20.15 32.95 21.4 32.75 21.4 34.1 L21.15 34.8 Q20.8 35.25 20.25 35.25 19.4 35.25 19.05 34.75 L18.85 34.2 M9.65 44.45 L10.65 42.6 10.85 41.55 11.65 40.7 11.55 39.35 Q12.95 40.4 13.75 41.8 15.5 45.0 13.35 46.75 L12.85 47.1 Q11.55 46.95 10.25 46.2 L10.05 46.05 9.5 45.1 9.45 44.65 9.65 44.45 M17.5 43.6 L16.7 41.5 20.0 42.25 20.6 42.95 Q22.0 44.7 21.95 46.8 L21.7 48.4 Q20.6 49.05 19.05 48.75 L17.75 48.5 17.3 48.3 17.55 47.75 Q18.0 46.4 17.75 44.05 L17.5 43.6 M23.7 43.85 L23.35 42.5 23.0 42.25 27.0 41.65 28.35 43.1 28.25 45.45 27.0 46.6 25.65 47.25 24.85 47.3 24.95 46.1 24.45 44.2 23.7 43.85 M29.9 41.95 L29.6 41.35 31.3 40.45 31.85 41.6 32.8 41.65 33.2 41.05 33.55 41.6 33.65 41.75 33.7 41.85 33.9 42.2 33.75 43.0 Q33.4 44.2 32.45 44.45 L32.3 44.5 31.55 44.5 31.15 44.45 Q31.25 43.05 30.5 41.9 L29.9 41.95 M33.2 39.95 L31.95 40.1 35.15 37.95 35.75 38.95 35.6 39.45 35.35 40.1 35.1 40.4 34.95 40.6 34.6 40.9 34.6 40.6 34.35 40.25 33.2 39.95 M23.5 32.3 Q22.15 32.3 22.15 31.4 22.15 30.4 23.5 30.25 24.85 30.1 24.85 31.15 24.85 32.3 23.5 32.3" fill="#ffffff" fill-rule="evenodd" stroke="none"/>
      <path d="M9.2 34.4 L9.45 34.0 10.05 32.8 10.65 31.5 11.65 28.9 11.9 27.2 11.9 26.95 12.1 26.35 13.15 23.8 13.45 22.5 Q15.05 25.8 18.4 27.45 20.2 28.35 21.95 28.45 20.05 28.45 18.6 28.95 18.35 28.35 17.45 28.35 L16.65 28.55 Q16.5 28.7 16.5 29.2 L16.6 29.8 16.65 29.9 Q15.35 30.75 15.35 31.95 15.35 33.4 17.3 34.45 19.2 35.45 21.95 35.45 24.7 35.45 26.65 34.45 28.55 33.4 28.55 31.95 28.55 30.5 26.65 29.5 24.9 28.55 22.6 28.5 24.35 28.45 26.15 27.6 L25.9 26.9 25.15 26.3 24.7 26.1 21.15 26.4 Q18.75 26.55 19.8 26.25 L19.9 26.0 Q18.85 22.5 19.5 19.2 20.05 15.95 25.15 15.6 30.15 15.1 32.65 19.95 L36.15 27.05 Q36.7 28.35 37.0 30.7 L37.0 31.2 Q37.15 36.05 32.3 38.6 27.2 41.25 21.8 40.7 16.4 40.15 12.3 37.05 L9.2 34.4 M29.65 11.35 Q30.5 13.25 32.2 13.4 32.9 13.45 33.6 14.35 34.2 15.15 35.2 15.05 L35.05 14.25 33.4 10.95 Q32.85 9.6 33.05 5.95 32.05 3.35 30.55 5.2 30.3 5.25 30.1 5.45 29.35 6.1 29.3 6.7 L29.15 6.85 Q27.65 8.2 28.25 9.75 28.45 10.4 29.1 10.95 L29.65 11.35 M34.25 5.55 Q34.0 7.15 37.05 12.05 40.0 16.95 39.25 24.35 39.95 28.2 37.9 29.8 36.0 19.5 27.85 14.75 26.5 10.55 27.85 6.8 30.15 0.0 37.75 1.75 34.9 2.5 34.25 5.55 M21.45 19.25 L21.1 19.85 Q20.35 21.0 20.75 22.05 21.5 24.15 23.15 23.85 24.2 23.65 26.1 21.25 27.9 18.95 27.7 18.45 26.45 15.1 23.2 17.5 22.05 18.35 21.45 19.25 M26.25 22.15 Q25.15 21.75 25.6 23.05 L26.25 23.8 Q26.8 24.25 27.2 24.15 27.85 24.05 27.5 23.1 27.25 22.4 26.25 22.15" fill="#c8e6fd" fill-rule="evenodd" stroke="none"/>
      <path d="M29.3 6.7 L29.4 7.5 30.05 8.15 30.95 8.35 31.65 8.1 32.05 9.05 31.9 10.3 Q31.6 11.4 30.6 11.55 30.15 11.65 29.65 11.35 L29.1 10.95 Q28.45 10.4 28.25 9.75 27.65 8.2 29.15 6.85 L29.3 6.7 M21.1 19.85 L21.15 20.15 Q21.6 21.35 22.8 21.1 23.8 20.95 23.45 20.05 23.15 19.3 22.0 19.25 L21.45 19.25 Q22.05 18.35 23.2 17.5 26.45 15.1 27.7 18.45 27.9 18.95 26.1 21.25 24.2 23.65 23.15 23.85 21.5 24.15 20.75 22.05 20.35 21.0 21.1 19.85 M26.4 20.25 Q27.2 20.1 27.0 19.5 26.75 18.8 26.05 18.95 25.3 19.15 25.5 19.65 L25.85 20.1 26.4 20.25 M22.6 28.5 Q24.9 28.55 26.65 29.5 28.55 30.5 28.55 31.95 28.55 33.4 26.65 34.45 24.7 35.45 21.95 35.45 19.2 35.45 17.3 34.45 15.35 33.4 15.35 31.95 15.35 30.75 16.65 29.9 L17.4 30.4 18.1 30.5 Q18.75 30.5 18.75 29.85 L18.65 29.5 18.65 29.45 18.6 28.95 Q20.05 28.45 21.95 28.45 L22.6 28.5 M18.85 34.2 L19.05 34.75 Q19.4 35.25 20.25 35.25 20.8 35.25 21.15 34.8 L21.4 34.1 Q21.4 32.75 20.15 32.95 18.85 33.1 18.85 34.2 M23.5 32.3 Q24.85 32.3 24.85 31.15 24.85 30.1 23.5 30.25 22.15 30.4 22.15 31.4 22.15 32.3 23.5 32.3" fill="#eff8ff" fill-rule="evenodd" stroke="none"/>
      <path d="M39.35 15.85 L39.55 16.45 39.7 17.05 39.35 15.85 M13.45 21.6 L13.45 21.55 13.6 21.7 13.8 21.9 13.45 21.6" fill="#61c75b" fill-rule="evenodd" stroke="none"/>
      <path d="M8.05 36.55 L9.2 34.4 12.3 37.05 Q16.4 40.15 21.8 40.7 27.2 41.25 32.3 38.6 37.15 36.05 37.0 31.2 L37.25 35.55 37.0 36.1 Q36.75 36.7 36.85 36.8 L36.95 37.95 36.95 38.0 36.95 38.1 35.9 39.2 35.75 38.95 35.15 37.95 31.95 40.1 33.2 39.95 33.2 41.05 32.8 41.65 31.85 41.6 31.3 40.45 29.6 41.35 29.9 41.95 29.55 44.9 28.2 46.1 28.25 45.45 28.35 43.1 27.0 41.65 23.0 42.25 23.35 42.5 23.7 43.85 23.4 45.9 22.8 47.9 22.65 48.1 21.7 48.4 21.95 46.8 Q22.0 44.7 20.6 42.95 L20.0 42.25 16.7 41.5 17.5 43.6 Q17.55 44.45 16.75 46.35 15.95 48.2 12.1 48.4 L10.8 47.95 12.85 47.1 13.35 46.75 Q15.5 45.0 13.75 41.8 12.95 40.4 11.55 39.35 L11.65 40.7 10.85 41.55 10.2 42.05 Q8.85 43.05 7.3 43.25 L6.95 43.2 6.5 43.1 6.55 43.1 10.1 38.35 8.05 36.55" fill="#aecdfc" fill-rule="evenodd" stroke="none"/>
      <path d="M0.8 42.35 Q3.2 41.4 5.1 39.75 L5.9 39.05 5.7 39.9 5.55 40.3 Q5.0 41.55 5.75 42.45 L6.5 43.05 6.55 43.1 6.5 43.1 6.6 43.15 6.95 43.2 7.3 43.25 7.2 43.25 6.75 43.25 6.1 43.2 5.6 43.15 5.1 43.15 4.5 43.1 3.9 43.05 3.25 43.05 2.85 43.0 2.95 43.2 3.05 43.5 3.1 43.6 3.15 43.75 3.2 43.85 4.7 45.2 4.95 45.3 5.15 45.35 5.2 45.35 5.85 45.45 8.95 45.0 9.45 44.65 9.5 45.1 10.05 46.05 10.25 46.2 Q11.55 46.95 12.85 47.1 L10.8 47.95 12.1 48.4 12.25 48.95 Q16.1 50.45 17.3 48.3 L17.75 48.5 19.05 48.75 Q20.6 49.05 21.7 48.4 L22.65 48.1 21.25 49.7 21.85 50.1 22.55 49.85 Q24.45 48.85 24.85 47.3 L25.65 47.25 27.0 46.6 28.25 45.45 28.2 46.1 29.55 44.9 29.55 44.95 29.5 45.1 29.2 45.65 28.75 46.15 28.7 46.2 28.4 46.5 28.2 46.55 28.6 46.95 Q30.7 47.15 31.05 45.25 L31.15 44.75 31.15 44.45 31.55 44.5 32.3 44.5 32.45 44.45 Q33.4 44.2 33.75 43.0 L33.9 42.2 34.6 41.6 34.6 40.9 34.95 40.6 35.1 40.4 35.35 40.1 35.6 39.45 35.75 38.95 35.9 39.2 36.95 38.1 36.9 38.35 34.8 43.1 34.15 44.1 33.35 45.1 32.5 46.05 32.25 46.3 Q29.35 49.3 25.3 50.7 20.85 52.4 16.15 51.8 11.4 51.0 7.3 48.3 3.6 45.85 0.8 42.35" fill="#cef0ff" fill-rule="evenodd" stroke="none"/>
      <path d="M8.95 45.0 L5.85 45.45 5.2 45.35 5.15 45.35 4.95 45.3 4.7 45.2 3.2 43.85 3.15 43.75 3.1 43.6 3.05 43.5 2.95 43.2 2.85 43.0 3.25 43.05 3.9 43.05 4.5 43.1 5.1 43.15 5.6 43.15 6.1 43.2 6.75 43.25 7.2 43.25 7.3 43.25 Q8.85 43.05 10.2 42.05 L10.85 41.55 10.65 42.6 9.65 44.45 8.95 45.0 M17.5 43.6 L17.75 44.05 Q18.0 46.4 17.55 47.75 L17.3 48.3 Q16.1 50.45 12.25 48.95 L12.1 48.4 Q15.95 48.2 16.75 46.35 17.55 44.45 17.5 43.6 M22.65 48.1 L22.8 47.9 23.4 45.9 23.7 43.85 24.45 44.2 24.95 46.1 24.85 47.3 Q24.45 48.85 22.55 49.85 L21.85 50.1 21.25 49.7 22.65 48.1 M29.55 44.9 L29.9 41.95 30.5 41.9 Q31.25 43.05 31.15 44.45 L31.15 44.75 31.05 45.25 Q30.7 47.15 28.6 46.95 L28.2 46.55 28.4 46.5 28.7 46.2 28.75 46.15 29.2 45.65 29.55 44.95 29.55 44.9 M33.2 41.05 L33.2 39.95 34.35 40.25 34.6 40.6 34.6 40.9 34.6 41.6 33.9 42.2 33.7 41.85 33.65 41.75 33.55 41.6 33.2 41.05" fill="#8acce9" fill-rule="evenodd" stroke="none"/>
      <path d="M36.95 38.0 L36.95 37.95 36.85 36.8 Q36.75 36.7 37.0 36.1 L37.25 35.55 37.25 35.65 37.2 36.3 37.0 37.9 36.95 38.0" fill="#b81c1c" fill-rule="evenodd" stroke="none"/>
    </g>
    <g id="sprite1">
      <use ffdec:characterId="1" height="12.25" transform="matrix(1.0, 0.0, 0.0, 1.0, 0.0, 0.0)" width="9.9" xlink:href="#shape1"/>
    </g>
    <g id="shape1">
      <path d="M9.2 4.7 L8.3 5.8 7.25 6.95 4.45 9.8 2.05 11.55 Q1.65 11.55 1.65 11.1 L2.85 9.5 Q4.0 7.85 4.0 6.8 L3.65 6.1 3.15 6.4 2.75 6.55 Q2.45 6.55 2.35 6.35 L2.3 6.15 Q2.3 5.85 2.65 5.45 L3.05 4.4 3.5 2.75 Q3.6 2.0 4.35 1.25 5.55 0.0 7.95 0.0 9.3 0.0 9.75 1.1 L9.9 2.3 9.7 3.4 9.2 4.7 M7.65 4.2 L7.1 6.6 Q8.7 5.65 8.1 4.05 L7.65 4.2 M4.0 8.95 Q5.5 9.05 6.55 6.75 7.3 5.1 6.75 4.15 4.75 5.9 4.05 8.4 L4.0 8.95" fill="#583105" fill-rule="evenodd" stroke="none"/>
      <path d="M4.0 8.95 L4.05 8.4 Q4.75 5.9 6.75 4.15 7.3 5.1 6.55 6.75 5.5 9.05 4.0 8.95 M7.65 4.2 L8.1 4.05 Q8.7 5.65 7.1 6.6 L7.65 4.2" fill="#ab6617" fill-rule="evenodd" stroke="none"/>
      <path d="M9.3 4.85 Q8.2 7.45 6.35 9.1 4.2 11.0 1.55 12.1 L0.65 12.25 0.0 11.85 Q2.7 9.9 3.6 6.9 L1.3 7.35 3.25 3.55 3.4 4.95 2.55 6.45 4.55 5.25 Q4.2 7.85 2.65 10.05 L1.9 11.1 Q4.45 10.1 6.3 8.05 L8.3 5.55 9.15 4.3 9.3 4.85" fill="#000000" fill-rule="evenodd" stroke="none"/>
    </g>
    <g id="sprite2">
      <use ffdec:characterId="3" height="28.3" transform="matrix(1.0, 0.0, 0.0, 1.0, 0.0, 0.0)" width="17.9" xlink:href="#shape2"/>
    </g>
    <g id="shape2">
      <path d="M2.25 8.55 L1.65 7.2 1.55 6.9 0.95 4.95 0.5 3.05 Q0.15 1.7 0.4 1.05 0.65 0.4 1.45 0.4 L4.25 0.05 Q6.25 -0.25 7.9 0.7 9.9 2.1 10.05 2.9 L10.4 5.45 10.75 9.15 10.8 12.95 11.0 16.15 11.15 17.6 10.55 17.95 9.1 17.15 Q9.85 20.6 12.4 22.6 L13.65 23.55 13.6 23.7 Q11.8 24.2 10.8 22.9 10.65 22.75 10.5 22.75 L9.9 22.9 9.95 23.65 9.95 23.75 Q10.15 24.5 9.65 24.8 L9.45 24.9 9.25 25.55 8.9 26.3 8.65 26.5 8.6 26.45 8.25 24.95 7.9 20.15 7.75 20.85 Q7.45 22.35 6.6 23.65 L5.15 25.4 4.7 25.45 4.7 25.3 4.6 25.4 4.3 25.5 Q3.9 25.5 3.9 25.1 3.9 24.55 4.45 24.15 L4.65 23.95 4.75 23.9 4.8 23.55 4.8 23.5 5.9 20.6 6.9 17.95 Q7.3 16.55 7.05 15.2 6.7 13.05 5.4 11.25 L4.2 9.75 3.75 11.15 2.55 9.35 2.35 9.15 2.25 8.65 2.25 8.55" fill="#583105" fill-rule="evenodd" stroke="none"/>
      <path d="M2.25 8.55 L2.25 8.65 2.1 8.55 2.25 8.55 M2.55 9.35 L3.75 11.15 4.2 9.75 5.4 11.25 Q6.7 13.05 7.05 15.2 7.3 16.55 6.9 17.95 L5.9 20.6 4.8 23.5 2.3 24.2 1.9 24.55 1.15 24.55 0.3 24.8 Q0.45 23.65 1.4 23.2 L2.85 19.6 2.85 19.85 Q2.85 20.1 3.2 20.15 L4.0 17.5 Q4.0 16.2 3.45 17.35 L3.3 17.7 Q4.0 13.55 2.55 9.35 M4.8 23.55 L4.75 23.9 4.65 23.95 4.45 24.15 4.5 24.0 4.8 23.55 M4.6 25.4 L4.7 25.3 4.7 25.45 4.6 25.4 M6.6 23.65 Q7.45 22.35 7.75 20.85 L7.9 20.15 8.25 24.95 8.6 26.45 8.65 26.5 8.9 26.3 9.25 25.55 9.45 24.9 9.65 24.8 9.6 24.9 Q9.1 26.95 8.65 26.95 7.7 26.95 7.0 23.3 L6.6 23.65 M9.95 23.65 L9.9 22.9 10.5 22.75 Q10.65 22.75 10.8 22.9 L10.45 22.8 Q10.25 22.8 9.95 23.65 M13.65 23.55 L12.4 22.6 Q9.85 20.6 9.1 17.15 L10.55 17.95 11.15 17.6 Q12.15 19.45 13.5 21.0 L14.4 21.95 15.3 22.05 16.1 22.25 16.3 22.35 16.4 22.45 15.75 22.95 14.4 23.3 13.65 23.55 M5.2 17.75 L5.15 17.8 4.5 18.1 4.5 18.05 4.45 17.9 4.35 17.7 Q3.9 18.35 3.9 19.05 L3.75 19.75 4.85 18.8 Q4.6 20.05 4.5 21.3 L4.7 21.35 4.95 21.35 5.1 21.15 Q6.6 18.95 6.05 15.05 L5.5 16.9 5.2 17.75 M10.55 20.15 Q10.65 21.0 12.7 21.65 L12.3 20.5 Q11.85 19.35 10.15 18.35 L10.55 20.15" fill="#ab6617" fill-rule="evenodd" stroke="none"/>
      <path d="M5.2 17.75 L5.5 16.9 6.05 15.05 Q6.6 18.95 5.1 21.15 L4.95 21.35 4.7 21.35 4.5 21.3 Q4.6 20.05 4.85 18.8 L3.75 19.75 3.9 19.05 Q3.9 18.35 4.35 17.7 L4.45 17.9 4.5 18.05 4.5 18.1 5.15 17.8 5.2 17.75 M3.3 17.7 L3.45 17.35 Q4.0 16.2 4.0 17.5 L3.2 20.15 Q2.85 20.1 2.85 19.85 L2.85 19.6 3.3 17.7 M10.55 20.15 L10.15 18.35 Q11.85 19.35 12.3 20.5 L12.7 21.65 Q10.65 21.0 10.55 20.15" fill="#f8bb50" fill-rule="evenodd" stroke="none"/>
      <path d="M11.0 15.65 Q11.3 17.65 12.4 19.8 9.55 17.8 9.8 12.5 L11.1 8.1 Q10.5 11.4 11.0 15.65 M2.7 11.7 L2.3 8.7 Q4.55 10.3 3.75 16.15 2.9 21.95 0.7 24.6 L1.45 24.25 Q4.15 24.05 6.0 20.6 L7.4 16.95 7.7 17.85 Q7.5 19.1 4.55 24.9 L5.3 24.35 Q6.4 23.45 6.75 22.75 L6.95 22.05 7.1 22.2 7.3 22.6 8.6 26.55 9.05 25.5 9.5 23.55 9.05 22.8 8.55 22.2 9.0 22.1 11.35 22.75 13.6 23.2 16.05 22.95 14.9 22.65 Q13.35 21.95 12.4 19.75 L13.8 20.85 Q15.4 21.8 17.9 22.55 16.05 24.1 13.25 24.1 L11.35 23.8 10.2 23.45 Q10.05 24.85 9.4 26.45 L8.45 28.3 8.4 28.25 Q7.65 26.7 6.9 23.6 6.75 24.5 5.7 25.3 4.65 26.1 3.75 26.1 L3.15 26.0 3.3 25.9 3.3 25.7 4.05 24.0 2.1 24.8 0.6 25.2 0.0 25.15 0.05 25.15 0.0 24.95 Q1.0 22.95 1.95 19.4 L2.9 14.95 2.7 11.7" fill="#000000" fill-rule="evenodd" stroke="none"/>
    </g>
    <g id="sprite3">
      <use ffdec:characterId="7" height="17.15" transform="matrix(1.0, 0.0, 0.0, 1.0, 0.0, 0.0)" width="24.55" xlink:href="#shape3"/>
    </g>
    <g id="shape3">
      <path d="M14.05 10.85 L13.95 11.5 Q14.55 12.95 15.65 13.8 16.75 14.6 20.1 14.7 23.4 14.75 28.1 10.9 32.8 7.05 32.15 3.75 L32.3 2.75 Q32.6 4.35 32.55 9.2 L36.2 6.55 37.1 5.75 Q36.0 9.6 31.0 13.2 25.95 16.75 22.7 16.8 L17.85 16.3 Q16.25 15.8 14.9 14.5 13.7 13.1 13.7 12.35 13.7 11.45 13.85 11.2 L14.05 10.85 M28.25 11.75 L27.5 12.15 Q25.5 13.0 24.5 14.55 L24.9 15.0 Q28.3 14.1 31.25 12.0 L28.25 11.75 M34.25 9.25 L33.95 9.25 Q31.5 9.95 29.35 11.2 L29.25 11.35 Q32.6 12.4 34.25 9.25" fill="#ff0000" fill-rule="evenodd" stroke="none"/>
      <path d="M34.25 9.25 Q32.6 12.4 29.25 11.35 L29.35 11.2 Q31.5 9.95 33.95 9.25 L34.25 9.25 M28.25 11.75 L31.25 12.0 Q28.3 14.1 24.9 15.0 L24.5 14.55 Q25.5 13.0 27.5 12.15 L28.25 11.75" fill="#ffc0c0" fill-rule="evenodd" stroke="none"/>
      <path d="M17.8 11.9 L17.95 13.05 18.2 13.5 18.0 13.7 17.4 13.85 15.45 13.2 Q14.6 12.5 14.55 11.35 15.65 10.25 16.7 10.65 17.75 11.0 17.8 11.9" fill="#690000" fill-rule="evenodd" stroke="none"/>
      <path d="M14.05 10.85 Q14.15 10.65 14.85 10.4 L16.7 10.1 Q17.85 10.1 18.35 12.05 18.85 14.0 19.75 14.0 25.25 14.0 29.15 8.0 32.1 3.4 32.25 0.0 L33.05 1.55 33.7 3.4 33.95 4.8 33.7 7.25 Q36.0 5.85 38.25 3.4 L38.25 4.7 Q38.5 8.1 32.8 12.5 26.8 17.15 21.1 17.15 17.0 17.15 15.1 15.2 L14.3 13.9 14.9 14.5 Q16.25 15.8 17.85 16.3 L22.7 16.8 Q25.95 16.75 31.0 13.2 36.0 9.6 37.1 5.75 L36.2 6.55 32.55 9.2 Q32.6 4.35 32.3 2.75 L32.15 3.75 Q32.8 7.05 28.1 10.9 23.4 14.75 20.1 14.7 16.75 14.6 15.65 13.8 14.55 12.95 13.95 11.5 L14.05 10.85 M17.8 11.9 Q17.75 11.0 16.7 10.65 15.65 10.25 14.55 11.35 14.6 12.5 15.45 13.2 L17.4 13.85 18.0 13.7 18.2 13.5 17.95 13.05 17.8 11.9" fill="#2a0000" fill-rule="evenodd" stroke="none"/>
    </g>
    <g id="sprite4">
      <use ffdec:characterId="12" height="64.4" transform="matrix(1.0, 0.0, 0.0, 1.0, 0.0, 0.0)" width="65.85" xlink:href="#shape4"/>
    </g>
    <g id="shape4">
      <path d="M49.25 6.45 L49.3 6.45 49.75 7.45 50.5 8.75 50.85 9.2 51.2 9.45 51.3 9.45 51.35 9.5 51.5 9.45 51.6 9.55 51.65 9.7 51.8 9.65 51.95 9.65 52.0 9.7 52.1 9.75 52.2 9.7 52.95 10.15 53.1 10.25 53.45 10.4 53.6 10.45 53.6 10.55 53.95 10.8 54.6 11.25 56.6 13.2 Q58.05 14.75 58.3 15.45 L58.7 15.7 Q62.05 19.75 63.0 24.0 60.95 19.35 56.75 16.5 55.4 15.55 53.8 15.05 L53.25 15.8 Q54.0 18.05 53.25 19.15 L51.65 20.7 52.15 20.6 Q53.5 23.1 55.25 25.4 L51.45 22.05 Q52.45 25.55 51.65 28.9 50.1 36.2 45.2 41.7 L44.3 41.85 44.65 41.85 43.8 42.75 39.7 47.05 Q39.2 47.0 38.3 47.95 L37.65 48.75 36.35 50.05 34.05 52.15 Q32.55 53.15 30.05 53.95 L23.35 56.2 17.0 58.15 16.5 58.2 14.3 58.75 14.25 58.8 14.2 58.7 10.45 59.35 9.1 58.85 7.6 57.7 Q5.85 55.9 5.35 54.7 4.85 53.45 4.9 52.6 4.9 51.75 3.9 50.0 2.85 48.2 2.45 44.7 L1.6 39.55 1.3 37.0 0.8 34.55 Q0.7 31.95 1.2 30.7 L0.95 26.8 Q1.15 23.15 2.3 20.75 5.6 13.3 11.6 8.75 12.8 7.0 13.0 7.7 L13.6 7.8 Q8.9 13.15 6.45 19.95 4.0 26.7 5.2 31.15 L7.6 39.65 Q8.8 43.75 7.6 47.95 7.1 49.55 7.9 51.05 L8.05 51.25 8.6 51.75 Q11.55 54.2 15.45 54.8 19.6 54.6 23.7 53.6 28.15 52.35 31.85 49.95 L39.2 44.75 Q42.6 42.0 44.8 38.1 47.15 34.05 47.3 29.3 47.5 24.15 43.05 21.15 41.75 20.2 40.9 18.75 L35.9 10.45 35.35 9.6 36.75 9.3 Q38.25 9.0 38.25 7.25 L38.15 6.25 38.0 6.05 Q37.6 4.8 36.05 4.85 34.75 4.9 34.3 5.55 33.85 4.2 32.65 3.15 30.8 1.55 28.15 1.55 26.0 1.55 24.35 2.65 L23.65 2.45 24.2 1.55 Q29.15 0.65 34.1 1.5 40.3 2.45 45.6 5.2 L46.2 5.5 Q46.2 5.05 46.35 4.75 47.8 5.55 49.25 6.45 M47.05 18.45 Q47.25 18.9 48.2 18.9 49.05 18.9 49.45 18.1 L49.7 17.15 Q49.7 16.1 48.35 16.3 47.0 16.5 47.0 17.9 L47.05 18.45" fill="#c8e6fd" fill-rule="evenodd" stroke="none"/>
      <path d="M46.45 4.05 L46.45 3.95 46.6 3.7 46.7 3.85 47.35 4.25 47.65 4.4 47.95 4.75 48.15 4.95 48.3 5.2 48.65 5.8 49.15 6.3 49.25 6.45 Q47.8 5.55 46.35 4.75 L46.45 4.05" fill="#2f4188" fill-rule="evenodd" stroke="none"/>
      <path d="M45.6 5.2 Q45.8 4.65 46.35 4.15 L46.45 4.05 46.35 4.75 Q46.2 5.05 46.2 5.5 L45.6 5.2" fill="#1a5e16" fill-rule="evenodd" stroke="none"/>
      <path d="M39.7 47.05 Q40.15 47.0 40.45 47.5 39.95 47.2 38.8 48.15 38.0 48.95 37.2 50.45 L36.95 50.3 Q36.8 49.7 37.65 48.75 L38.3 47.95 Q39.2 47.0 39.7 47.05 M41.35 49.5 L41.45 49.8 42.05 50.8 42.5 51.55 42.35 52.2 Q42.2 52.55 41.7 52.7 41.15 52.8 39.25 51.65 L39.3 50.8 Q39.2 50.1 40.05 49.4 40.85 48.7 41.35 49.5 M19.2 58.45 L19.55 58.2 Q20.45 57.95 20.35 58.9 L20.6 61.2 Q20.7 61.8 21.05 62.2 L21.35 62.95 Q21.55 63.65 20.95 63.8 20.35 63.9 18.5 63.25 L17.15 62.55 Q16.9 61.95 16.25 61.5 16.95 60.7 18.0 60.05 19.1 59.4 19.6 59.6 20.05 59.8 19.95 59.25 19.8 58.65 19.2 58.45 M14.55 60.65 L14.3 60.6 14.25 60.4 14.55 60.65 M47.05 18.45 L47.0 17.9 Q47.0 16.5 48.35 16.3 49.7 16.1 49.7 17.15 L49.45 18.1 Q49.05 18.9 48.2 18.9 47.25 18.9 47.05 18.45 M7.9 51.05 Q7.4 46.55 12.05 44.15 16.1 41.9 20.2 39.7 24.5 37.45 28.3 34.5 31.95 31.55 36.05 28.7 39.5 26.3 43.4 26.6 44.85 26.8 45.6 28.05 47.45 31.0 44.85 33.55 41.4 36.85 37.7 39.55 L29.75 45.0 Q25.85 47.55 21.85 49.65 17.5 52.1 12.6 52.75 10.35 53.1 8.6 51.75 L8.05 51.25 7.9 51.05 M33.25 7.7 Q32.55 8.65 30.3 8.65 28.4 8.65 27.55 7.6 L27.1 6.45 Q27.1 3.75 30.35 3.35 33.55 2.95 33.55 6.35 33.55 7.3 33.25 7.7" fill="#ffffff" fill-rule="evenodd" stroke="none"/>
      <path d="M13.0 7.7 L14.7 6.55 Q18.8 3.55 23.65 2.45 L24.35 2.65 Q23.95 2.85 23.6 3.15 21.75 4.75 21.75 7.05 21.75 9.3 23.6 10.9 25.5 12.55 28.15 12.55 30.8 12.55 32.65 10.9 L33.95 9.4 35.2 9.6 35.35 9.6 35.9 10.45 40.9 18.75 Q41.75 20.2 43.05 21.15 47.5 24.15 47.3 29.3 47.15 34.05 44.8 38.1 42.6 42.0 39.2 44.75 L31.85 49.95 Q28.15 52.35 23.7 53.6 19.6 54.6 15.45 54.8 11.55 54.2 8.6 51.75 10.35 53.1 12.6 52.75 17.5 52.1 21.85 49.65 25.85 47.55 29.75 45.0 L37.7 39.55 Q41.4 36.85 44.85 33.55 47.45 31.0 45.6 28.05 44.85 26.8 43.4 26.6 39.5 26.3 36.05 28.7 31.95 31.55 28.3 34.5 24.5 37.45 20.2 39.7 16.1 41.9 12.05 44.15 7.4 46.55 7.9 51.05 7.1 49.55 7.6 47.95 8.8 43.75 7.6 39.65 L5.2 31.15 Q4.0 26.7 6.45 19.95 8.9 13.15 13.6 7.8 L13.0 7.7" fill="#ddf0ff" fill-rule="evenodd" stroke="none"/>
      <path d="M63.0 24.0 L63.4 25.05 64.2 27.25 Q65.4 31.1 63.8 35.15 L59.6 30.45 58.2 29.0 55.25 25.4 Q53.5 23.1 52.15 20.6 L51.65 20.7 53.25 19.15 Q54.0 18.05 53.25 15.8 L53.8 15.05 Q55.4 15.55 56.75 16.5 60.95 19.35 63.0 24.0" fill="#aecdfc" fill-rule="evenodd" stroke="none"/>
      <path d="M63.8 35.15 L63.55 35.65 Q60.8 32.9 58.65 29.65 L58.2 29.0 59.6 30.45 63.8 35.15" fill="#4d9e48" fill-rule="evenodd" stroke="none"/>
      <path d="M35.35 9.6 L35.2 9.6 33.95 9.4 32.65 10.9 Q30.8 12.55 28.15 12.55 25.5 12.55 23.6 10.9 21.75 9.3 21.75 7.05 21.75 4.75 23.6 3.15 23.95 2.85 24.35 2.65 26.0 1.55 28.15 1.55 30.8 1.55 32.65 3.15 33.85 4.2 34.3 5.55 34.75 4.9 36.05 4.85 37.6 4.8 38.0 6.05 L38.15 6.25 38.25 7.25 Q38.25 9.0 36.75 9.3 L35.35 9.6 M33.25 7.7 Q33.55 7.3 33.55 6.35 33.55 2.95 30.35 3.35 27.1 3.75 27.1 6.45 L27.55 7.6 Q28.4 8.65 30.3 8.65 32.55 8.65 33.25 7.7" fill="#eff8ff" fill-rule="evenodd" stroke="none"/>
      <path d="M40.45 47.5 Q41.0 47.9 41.3 49.25 L41.35 49.5 Q40.85 48.7 40.05 49.4 39.2 50.1 39.3 50.8 L39.25 51.65 39.15 51.65 Q38.7 51.8 38.5 51.45 L38.45 51.2 37.35 51.0 37.1 50.5 37.2 50.45 Q38.0 48.95 38.8 48.15 39.95 47.2 40.45 47.5 M17.0 58.15 L19.2 58.45 Q19.8 58.65 19.95 59.25 20.05 59.8 19.6 59.6 19.1 59.4 18.0 60.05 16.95 60.7 16.25 61.5 L15.3 60.95 14.55 60.65 14.25 60.4 14.15 60.25 13.7 59.85 Q13.6 59.2 14.25 58.8 L14.3 58.75 16.5 58.2 17.0 58.15" fill="#a1c4e5" fill-rule="evenodd" stroke="none"/>
      <path d="M56.2 11.45 Q58.85 13.4 61.3 18.1 63.7 22.8 65.1 26.65 67.3 32.75 63.25 36.85 60.4 31.6 53.2 24.45 52.4 28.8 50.6 32.75 52.5 27.7 51.0 22.45 L49.1 21.5 49.3 20.7 52.5 20.25 57.1 26.8 Q61.55 33.15 63.5 34.5 65.1 32.4 64.2 28.55 63.3 24.7 61.65 20.5 59.95 16.3 55.9 12.4 54.5 10.65 51.2 9.8 43.5 3.5 33.8 1.85 L24.95 2.1 Q20.1 3.05 14.95 6.8 9.75 10.5 7.1 13.85 4.4 17.2 2.75 21.25 1.05 25.3 1.3 30.65 1.55 35.95 2.5 41.4 3.75 47.9 5.6 52.7 7.4 57.45 10.9 58.15 14.4 58.85 19.85 57.2 28.1 54.75 33.05 51.6 38.0 48.4 40.4 46.1 L45.65 40.05 50.4 33.55 Q47.1 40.8 41.4 46.4 L43.95 52.5 Q40.2 53.4 36.65 50.7 29.5 56.0 20.9 58.2 22.45 61.3 23.1 64.4 17.3 64.75 13.55 59.65 6.45 60.15 4.25 53.15 2.4 47.2 1.15 41.55 -0.15 35.85 0.0 31.15 0.15 26.45 1.5 21.95 2.85 17.45 6.7 12.85 10.5 8.25 16.3 4.75 21.9 1.35 28.2 0.15 L39.0 0.6 Q43.85 1.45 47.15 3.8 50.9 6.45 50.8 7.55 L56.2 11.45 M20.05 59.65 L19.9 58.5 14.45 59.65 Q17.75 61.7 21.4 63.3 20.3 61.5 20.05 59.65 M42.4 51.7 L40.6 47.25 37.45 50.0 42.4 51.7" fill="#000a2c" fill-rule="evenodd" stroke="none"/>
      <path d="M9.9 39.2 Q8.6 40.5 8.55 42.4 8.55 44.3 9.85 45.6 11.25 46.95 13.05 46.95 14.95 46.95 16.3 45.7 17.65 44.35 17.65 42.45 17.7 40.6 16.3 39.25 15.0 37.9 13.1 37.9 11.25 37.9 9.9 39.2 M6.95 44.25 Q6.65 43.35 6.65 42.4 6.7 39.75 8.6 37.85 10.55 35.95 13.2 36.0 15.85 36.0 17.75 37.95 19.55 39.8 19.5 42.45 19.5 45.1 17.7 47.0 15.75 48.85 13.05 48.85 10.4 48.8 8.6 46.95 7.4 45.7 6.95 44.25 M38.75 26.85 Q37.35 25.5 35.5 25.5 33.65 25.5 32.3 26.75 30.95 28.1 30.9 29.95 30.9 31.85 32.25 33.2 33.55 34.55 35.4 34.55 37.3 34.55 38.7 33.25 40.0 31.95 40.0 30.05 40.05 28.15 38.75 26.85 M35.45 36.4 Q32.8 36.4 30.9 34.5 29.75 33.3 29.35 31.8 29.05 30.95 29.05 29.95 29.1 27.3 31.0 25.45 32.95 23.6 35.6 23.6 38.25 23.6 40.1 25.5 41.95 27.4 41.9 30.05 41.9 32.7 40.0 34.6 38.1 36.45 35.45 36.4" fill="#000000" fill-rule="evenodd" stroke="none"/>
      <path d="M9.9 39.2 Q11.25 37.9 13.1 37.9 15.0 37.9 16.3 39.25 17.7 40.6 17.65 42.45 17.65 44.35 16.3 45.7 14.95 46.95 13.05 46.95 11.25 46.95 9.85 45.6 8.55 44.3 8.55 42.4 8.6 40.5 9.9 39.2 M38.75 26.85 Q40.05 28.15 40.0 30.05 40.0 31.95 38.7 33.25 37.3 34.55 35.4 34.55 33.55 34.55 32.25 33.2 30.9 31.85 30.9 29.95 30.95 28.1 32.3 26.75 33.65 25.5 35.5 25.5 37.35 25.5 38.75 26.85" fill="#ffffff" fill-rule="evenodd" stroke="none"/>
    </g>
  </defs>
</svg>
