<?xml version="1.0" encoding="UTF-8" standalone="no"?>
<svg xmlns:ffdec="https://www.free-decompiler.com/flash" xmlns:xlink="http://www.w3.org/1999/xlink" ffdec:objectType="frame" height="56.7px" width="64.7px" xmlns="http://www.w3.org/2000/svg">
  <g transform="matrix(1.0, 0.0, 0.0, 1.0, 33.5, 46.35)">
    <use ffdec:characterId="2" height="20.9" transform="matrix(-1.0, 0.0, 0.0, 1.0759, 17.85, 0.1)" width="7.55" xlink:href="#sprite0"/>
    <use ffdec:characterId="2" height="20.9" transform="matrix(1.0, 0.0, 0.0, 1.1047, -18.4, -0.15)" width="7.55" xlink:href="#sprite0"/>
    <use ffdec:characterId="6" height="13.65" transform="matrix(1.0414, 0.0, 0.0, 1.0414, -0.9, -10.2)" width="41.45" xlink:href="#sprite1"/>
    <use ffdec:characterId="4" height="20.15" transform="matrix(-1.1589, -0.1109, -0.134, 1.401, 23.0, -11.65)" width="12.05" xlink:href="#sprite2"/>
    <use ffdec:characterId="4" height="20.15" transform="matrix(1.136, -0.2043, 0.2328, 1.2943, -24.4, -10.0)" width="12.05" xlink:href="#sprite2"/>
    <use ffdec:characterId="8" height="30.1" transform="matrix(1.0414, 0.0, 0.0, 1.1382, -2.6, -29.25)" width="48.35" xlink:href="#sprite3"/>
  </g>
  <defs>
    <g id="sprite0">
      <use ffdec:characterId="1" height="20.9" transform="matrix(1.0, 0.0, 0.0, 1.0, 0.0, 0.0)" width="7.55" xlink:href="#shape0"/>
    </g>
    <g id="shape0">
      <path d="M-3.1 -5.3 Q-2.75 -6.15 -2.75 -6.8 L-2.7 -7.1 -2.7 -7.7 -2.55 -8.7 -2.25 -10.1 -2.0 -10.8 Q-0.7 -11.4 0.7 -11.25 L1.9 -11.25 2.85 -11.35 Q4.0 -10.3 3.15 -9.0 L2.05 -7.7 Q1.45 -7.3 1.5 -6.65 1.5 -6.2 1.9 -5.65 L1.85 -5.45 1.6 -4.8 0.55 -4.6 0.15 -5.15 -0.05 -5.6 -0.55 -6.5 -1.8 -7.05 -1.7 -6.95 -1.25 -6.35 -0.25 -3.95 Q-0.2 -3.75 -0.45 -3.65 -1.05 -3.5 -1.35 -3.05 L-3.1 -5.3 M-1.45 -1.0 L-1.4 0.05 -1.4 0.15 -3.5 -0.2 -3.3 -3.1 -2.3 -2.5 Q-1.8 -2.35 -1.75 -1.95 L-1.45 -1.0 M-1.45 1.3 L-1.45 2.2 -2.25 1.6 -1.45 1.3 M-1.3 3.65 L-1.0 4.25 -0.7 4.75 -1.85 4.75 -1.3 3.65 M-2.8 4.2 L-2.85 4.0 -3.25 2.6 -3.35 1.8 -3.45 0.75 -3.5 0.1 -2.95 0.5 -2.95 1.3 -3.05 1.6 -3.1 1.8 -3.15 2.45 -3.05 2.65 -2.55 2.75 -1.8 3.2 -2.8 4.2" fill="#c4c4c4" fill-rule="evenodd" stroke="none"/>
      <path d="M1.9 -5.65 L2.3 -5.2 Q3.05 -4.4 2.85 -3.85 1.8 -3.7 0.9 -3.15 -0.05 -2.65 -0.95 -3.35 L-1.15 -2.75 -1.35 -3.05 -1.6 -2.6 Q-1.8 -2.15 -1.45 -1.65 L-1.4 -1.6 -1.45 -1.0 -1.75 -1.95 Q-1.8 -2.35 -2.3 -2.5 L-3.3 -3.1 -3.15 -3.75 Q-3.05 -4.45 -3.1 -5.3 L-1.35 -3.05 Q-1.05 -3.5 -0.45 -3.65 -0.2 -3.75 -0.25 -3.95 L-1.25 -6.35 -1.7 -6.95 -1.8 -7.05 -0.55 -6.5 -0.05 -5.6 0.15 -5.15 0.55 -4.6 1.6 -4.8 1.85 -5.45 1.9 -5.65 M-1.4 0.15 L-1.3 0.4 -1.4 0.55 -1.4 0.85 -1.45 1.3 -2.25 1.6 -1.45 2.2 -1.3 3.65 -1.85 4.75 -0.7 4.75 -0.8 5.6 -2.05 5.5 -2.8 4.2 -1.8 3.2 -2.55 2.75 -3.05 2.65 -3.15 2.45 -3.1 1.8 -3.05 1.6 -2.95 1.3 -2.95 0.5 -3.5 0.1 -3.5 -0.2 -1.4 0.15" fill="#ffffff" fill-rule="evenodd" stroke="none"/>
      <path d="M-0.8 6.9 L-0.4 7.4 -1.05 7.7 -1.2 7.4 -0.85 6.9 -0.8 6.9 M0.35 8.25 L0.85 8.7 0.55 9.15 0.1 8.85 0.35 8.25" fill="#ff0000" fill-rule="evenodd" stroke="none"/>
      <path d="M-1.15 -2.75 L-1.4 -1.6 -1.45 -1.65 Q-1.8 -2.15 -1.6 -2.6 L-1.35 -3.05 -1.15 -2.75" fill="#ba0000" fill-rule="evenodd" stroke="none"/>
      <path d="M-0.4 7.4 L-0.8 6.9 0.25 6.6 0.4 7.15 -0.4 7.4 M0.35 8.25 L0.4 8.0 Q1.5 7.4 0.9 8.6 L0.85 8.7 0.35 8.25" fill="#ff3e64" fill-rule="evenodd" stroke="none"/>
      <path d="M-0.8 5.6 L-0.9 5.65 Q-1.45 6.25 -2.05 5.5 L-0.8 5.6" fill="#939191" fill-rule="evenodd" stroke="none"/>
      <path d="M0.7 7.05 Q0.7 7.3 0.0 7.6 L-1.1 7.9 -1.35 7.65 -1.45 7.3 Q-1.45 6.95 -0.3 6.4 L0.5 6.5 0.7 7.05 M2.85 -9.55 L3.2 -9.35 2.4 -8.05 1.6 -6.75 1.75 -6.05 2.1 -5.55 2.45 -5.2 Q2.9 -4.3 3.4 -3.85 L3.8 -3.55 3.5 -3.3 2.5 -3.3 2.25 -3.5 1.85 -3.55 1.05 -3.05 0.15 -2.5 -0.55 -2.95 -1.05 -2.2 -1.15 -2.0 -1.1 -2.0 -1.25 -0.55 -1.15 0.65 -1.3 2.05 -0.9 3.75 -0.7 4.6 -0.35 5.1 -0.1 5.4 -0.5 5.8 -1.6 6.1 Q-2.1 6.1 -3.6 3.25 L-3.45 0.9 -3.75 -1.6 -3.25 -2.65 -3.45 -4.25 -3.35 -5.85 Q-2.0 -7.8 -2.65 -8.3 -1.9 -8.15 -2.0 -7.85 L-2.6 -6.5 -3.05 -4.3 -2.8 -2.55 -3.35 -1.65 -3.1 -0.6 -3.15 -0.35 -3.15 2.15 -3.2 2.75 -3.0 3.5 -2.6 4.15 -1.95 5.05 -1.55 5.6 -1.0 5.3 -1.4 3.85 -1.7 2.05 -1.55 0.8 -1.65 -0.1 -1.75 -1.35 -1.75 -1.8 -1.8 -2.1 Q-1.5 -3.6 -0.6 -3.6 L0.2 -3.15 Q0.5 -3.15 1.2 -3.5 L2.1 -3.85 2.9 -3.7 Q2.65 -4.9 1.9 -5.6 1.3 -6.2 1.3 -7.1 L1.9 -8.0 2.85 -9.55 M0.15 8.55 L0.35 8.9 0.6 9.15 Q0.6 8.8 1.05 8.3 L0.75 8.0 Q0.15 8.3 0.15 8.55 M1.55 8.35 L1.3 8.65 0.9 8.95 1.0 9.3 1.0 9.45 0.75 9.55 0.0 9.0 -0.15 8.55 0.2 7.9 Q0.5 7.65 1.0 7.55 1.0 7.95 1.25 8.05 L1.55 8.35 M-1.1 7.65 L-0.45 7.4 0.05 7.0 -0.05 6.75 -1.15 7.3 -1.1 7.65" fill="#000000" fill-rule="evenodd" stroke="none"/>
      <path d="M-1.1 7.65 L-1.15 7.3 -0.05 6.75 0.05 7.0 -0.45 7.4 -1.1 7.65" fill="#ffffff" fill-rule="evenodd" stroke="none"/>
      <path d="M0.15 8.55 Q0.15 8.3 0.75 8.0 L1.05 8.3 Q0.6 8.8 0.6 9.15 L0.35 8.9 0.15 8.55" fill="#c4c4c4" fill-rule="evenodd" stroke="none"/>
    </g>
    <g id="sprite1">
      <use ffdec:characterId="5" height="13.65" transform="matrix(1.0, 0.0, 0.0, 1.0, 0.0, 0.0)" width="41.45" xlink:href="#shape1"/>
    </g>
    <g id="shape1">
      <path d="M0.2 -3.6 Q-0.15 -2.4 -0.75 -1.25 L-1.45 -0.15 Q-3.05 -1.5 -3.65 -3.5 L-4.1 -5.1 Q-4.25 -3.45 -3.95 -1.9 -3.65 -0.45 -2.95 0.85 L-1.15 3.75 -1.45 1.9 -0.2 3.85 0.9 1.55 1.5 2.75 Q3.4 0.85 3.95 -1.7 4.25 -3.1 4.2 -4.5 3.6 -2.5 2.15 -0.85 L1.5 -0.1 0.2 -3.6 M6.75 -3.5 Q7.75 -1.7 7.75 -0.25 L8.0 -1.8 8.75 0.4 Q10.25 -1.7 10.05 -4.35 L9.9 -5.75 8.1 -2.65 6.75 -3.5 M10.75 -1.65 L10.3 -0.15 8.85 1.75 8.4 2.05 7.65 2.45 7.55 1.8 Q6.85 -0.45 5.05 -2.35 L4.6 0.45 Q3.75 3.1 1.4 4.85 L-1.95 5.0 -3.35 3.8 Q-4.05 2.85 -4.55 3.25 L-4.7 3.4 -5.7 3.5 -9.8 2.85 -11.65 2.35 Q-14.05 1.55 -16.05 0.2 L-16.15 4.95 Q-16.85 4.95 -18.3 3.6 -19.8 2.2 -19.8 1.4 -20.0 -0.6 -19.2 -2.4 L-17.4 -6.6 -17.15 -7.2 20.75 -7.6 21.05 -6.65 Q21.65 -4.7 21.35 -2.7 21.0 -0.45 19.5 1.05 L19.45 1.1 19.05 1.4 19.0 1.45 16.65 2.6 15.8 2.85 15.9 1.4 16.15 -0.2 16.3 -1.1 14.5 0.35 Q12.85 1.5 10.95 2.05 L10.3 2.25 10.75 0.9 Q11.15 -0.5 10.75 -1.65 M12.9 -4.1 Q12.75 -2.1 11.8 -0.25 L11.45 0.45 Q14.1 -0.6 15.95 -2.7 L16.45 -3.35 12.8 -0.9 12.9 -4.1 M17.45 -1.5 Q17.85 -0.4 17.4 0.65 L17.1 1.35 Q20.3 -0.4 20.8 -4.15 L18.25 -1.0 17.45 -1.5 M-11.15 -1.0 Q-13.5 -2.1 -15.5 -3.9 L-16.0 -4.4 Q-14.6 -1.1 -11.55 0.9 -9.0 2.5 -5.9 2.75 -8.15 1.6 -9.95 -0.1 -7.7 0.75 -5.35 0.45 -9.55 -1.05 -11.3 -5.25 -11.6 -3.05 -11.15 -1.0" fill="#e3e3e3" fill-rule="evenodd" stroke="none"/>
      <path d="M6.75 -3.5 L8.1 -2.65 9.9 -5.75 10.05 -4.35 Q10.25 -1.7 8.75 0.4 L8.0 -1.8 7.75 -0.25 Q7.75 -1.7 6.75 -3.5 M0.2 -3.6 L1.5 -0.1 2.15 -0.85 Q3.6 -2.5 4.2 -4.5 4.25 -3.1 3.95 -1.7 3.4 0.85 1.5 2.75 L0.9 1.55 -0.2 3.85 -1.45 1.9 -1.15 3.75 -2.95 0.85 Q-3.65 -0.45 -3.95 -1.9 -4.25 -3.45 -4.1 -5.1 L-3.65 -3.5 Q-3.05 -1.5 -1.45 -0.15 L-0.75 -1.25 Q-0.15 -2.4 0.2 -3.6 M-11.15 -1.0 Q-11.6 -3.05 -11.3 -5.25 -9.55 -1.05 -5.35 0.45 -7.7 0.75 -9.95 -0.1 -8.15 1.6 -5.9 2.75 -9.0 2.5 -11.55 0.9 -14.6 -1.1 -16.0 -4.4 L-15.5 -3.9 Q-13.5 -2.1 -11.15 -1.0 M17.45 -1.5 L18.25 -1.0 20.8 -4.15 Q20.3 -0.4 17.1 1.35 L17.4 0.65 Q17.85 -0.4 17.45 -1.5 M12.9 -4.1 L12.8 -0.9 16.45 -3.35 15.95 -2.7 Q14.1 -0.6 11.45 0.45 L11.8 -0.25 Q12.75 -2.1 12.9 -4.1" fill="#ffffff" fill-rule="evenodd" stroke="none"/>
      <path d="M5.55 -2.1 L7.15 -0.5 Q7.95 0.6 7.9 2.15 11.3 0.35 10.0 -3.1 L10.8 -2.15 11.3 -1.25 Q11.65 -0.25 10.8 1.9 L10.9 1.85 14.75 0.0 16.15 -1.25 Q16.6 0.05 16.05 1.7 15.8 2.45 16.1 2.55 18.75 1.65 20.05 0.0 L19.0 1.55 Q17.3 2.95 15.2 3.25 L15.55 2.45 Q16.05 1.2 15.95 -0.25 13.6 1.6 11.05 2.2 L9.15 2.65 10.5 0.65 10.7 -0.65 10.45 -0.05 Q9.65 2.05 7.6 2.65 7.35 0.4 5.55 -1.05 5.25 1.0 3.85 2.7 2.05 4.85 -0.35 6.05 L-1.4 5.6 -4.35 3.45 -4.85 3.95 -11.5 2.8 Q-14.05 2.45 -16.0 0.75 L-15.85 5.1 Q-17.8 5.05 -18.95 3.5 -20.3 1.65 -19.9 -0.75 L-19.75 0.75 Q-19.55 2.9 -16.35 4.7 L-16.4 4.65 -16.4 0.35 Q-17.15 -0.4 -17.0 -2.9 -16.65 -4.0 -15.75 -4.65 -17.25 -2.4 -15.85 -0.45 -14.55 1.35 -12.25 2.0 L-10.35 2.65 -5.45 3.4 Q-4.8 2.2 -4.95 0.9 L-4.35 2.05 Q-3.3 4.35 -0.35 5.5 2.1 3.8 3.55 2.05 4.95 0.3 4.25 -2.95 L5.55 -2.1" fill="#000000" fill-rule="evenodd" stroke="none"/>
    </g>
    <g id="sprite2">
      <use ffdec:characterId="3" height="20.15" transform="matrix(1.0, 0.0, 0.0, 1.0, 0.0, 0.0)" width="12.05" xlink:href="#shape2"/>
    </g>
    <g id="shape2">
      <path d="M-0.2 -8.05 L0.5 -8.1 2.4 -8.6 2.95 -8.75 4.5 -8.7 6.1 -9.6 6.1 -3.7 4.45 0.45 4.1 1.4 3.65 3.55 1.05 0.2 0.65 2.15 0.6 2.35 0.5 3.15 Q0.15 5.2 0.95 7.25 L0.75 7.5 0.35 5.5 -0.25 1.4 Q-0.55 -1.1 0.05 -3.55 L1.15 -5.0 1.35 -5.45 1.3 -5.9 1.6 -6.25 -0.2 -8.05 M-3.5 2.7 L-3.6 2.65 -5.15 1.95 -2.4 -0.45 -3.5 2.7" fill="#e3e3e3" fill-rule="evenodd" stroke="none"/>
      <path d="M2.4 -8.6 L0.5 -8.1 -0.2 -8.05 -0.95 -8.75 -0.05 -8.6 2.4 -8.6 M1.3 -5.9 L1.35 -5.45 1.15 -5.0 0.05 -3.55 Q-0.55 -1.1 -0.25 1.4 L0.35 5.5 0.75 7.5 -0.7 9.35 -1.6 9.8 Q-0.55 8.45 -0.8 6.55 L-1.8 5.05 -2.45 2.85 -3.5 2.7 -2.4 -0.45 -0.75 -1.9 -2.25 -2.05 -3.65 -2.4 Q-2.1 -3.1 -1.45 -3.5 L1.3 -5.9 M0.65 2.15 L1.05 0.2 3.65 3.55 3.6 4.3 3.65 6.45 2.45 5.3 Q2.0 5.05 1.0 2.9 L0.65 2.15" fill="#ffffff" fill-rule="evenodd" stroke="none"/>
      <path d="M2.4 -8.6 L-0.05 -8.6 -0.95 -8.75 -1.2 -9.25 Q-1.35 -9.9 -0.5 -9.45 0.3 -9.0 1.8 -8.85 L2.95 -8.75 2.4 -8.6 M0.95 7.25 Q0.15 5.2 0.5 3.15 L0.6 2.35 1.2 6.2 1.3 6.8 0.95 7.25" fill="#c4c4c4" fill-rule="evenodd" stroke="none"/>
      <path d="M5.95 -9.5 L4.8 -8.95 Q3.2 -8.4 1.35 -8.35 L-1.1 -9.45 -0.1 -7.9 0.95 -6.9 Q1.75 -6.3 2.85 -7.05 1.0 -5.05 -0.8 -3.6 L-2.85 -2.3 -1.8 -2.25 Q0.3 -2.3 2.15 -4.15 L3.2 -5.2 2.85 -4.7 Q2.05 -3.9 1.5 -1.95 0.9 0.0 1.0 1.3 1.05 2.55 1.55 3.7 2.0 4.85 3.45 6.05 2.95 4.95 3.35 2.85 3.75 0.65 4.2 -0.45 4.6 -1.55 5.3 -2.55 3.95 0.75 3.75 3.15 3.55 5.5 4.5 7.25 1.45 5.65 0.65 2.35 0.55 3.55 0.95 4.6 L1.4 6.2 Q1.6 8.15 -1.8 10.05 -0.8 8.5 -0.8 7.05 L-1.65 5.6 Q-2.55 4.25 -2.75 2.85 L-5.95 2.2 -1.3 -1.6 -4.85 -2.25 Q-1.95 -2.9 1.3 -6.15 0.5 -6.4 -0.6 -8.1 L-1.75 -10.1 -0.05 -9.5 Q1.7 -8.85 3.15 -8.85 4.4 -8.85 5.95 -9.5 M0.15 1.65 L0.8 -2.45 Q-1.2 -1.65 -1.8 0.45 -2.5 3.6 -1.45 5.1 -0.4 6.6 -0.45 7.45 L-1.2 9.55 Q2.0 7.25 0.55 4.45 0.0 3.4 0.15 1.65 M-2.65 2.25 L-1.95 -0.2 -5.1 1.95 -2.65 2.25" fill="#000000" fill-rule="evenodd" stroke="none"/>
    </g>
    <g id="sprite3">
      <use ffdec:characterId="7" height="30.1" transform="matrix(1.0, 0.0, 0.0, 1.0, 0.0, 0.0)" width="48.35" xlink:href="#shape3"/>
    </g>
    <g id="shape3">
      <path d="M-20.45 8.25 L-20.85 8.2 -21.3 8.05 -20.45 8.25" fill="#ba0000" fill-rule="evenodd" stroke="none"/>
      <path d="M9.6 -7.55 Q9.25 -6.85 8.35 -6.25 6.95 -5.4 4.95 -5.4 L4.45 -5.25 Q3.5 -2.35 -0.1 0.05 -3.2 2.05 -5.55 2.35 L-7.25 2.65 1.45 -2.55 3.1 -4.75 0.05 -3.45 1.25 -5.55 5.3 -7.2 Q9.05 -8.7 9.75 -9.15 L9.75 -8.4 9.6 -7.55 M6.35 -2.9 L7.45 -3.75 9.6 -3.6 Q10.3 -3.55 11.7 -4.3 13.05 -5.1 13.5 -5.95 L13.7 -4.5 Q13.1 -3.65 11.95 -3.1 L6.35 -2.9 M5.95 0.7 Q8.85 0.6 11.5 -0.35 12.4 -0.65 13.3 -1.1 L14.0 -1.05 Q16.95 -1.0 19.25 -2.95 16.9 -0.4 15.05 0.05 L11.75 0.8 Q10.3 1.05 4.5 0.85 L5.95 0.7 M21.45 6.25 L23.2 7.7 18.05 6.25 16.1 5.8 17.85 5.85 21.45 6.25 M23.2 8.95 L21.3 9.15 16.0 6.55 17.15 6.65 Q18.0 7.35 19.6 7.95 21.2 8.55 23.2 8.95 M20.2 9.55 L20.3 10.05 Q19.2 9.95 17.65 9.1 L16.3 7.55 20.2 9.55 M8.4 10.7 L8.7 11.85 Q5.85 11.65 2.0 8.7 L2.35 8.8 8.4 10.7 M-8.15 9.65 L-8.45 9.55 -7.2 10.8 -10.4 9.1 -11.0 8.45 -7.75 9.8 -8.15 9.65 M-6.1 12.65 L-5.8 13.15 Q-7.5 13.05 -9.45 11.5 -11.25 10.0 -11.3 8.9 L-9.2 10.8 -6.1 12.65 M-20.9 14.45 L-19.25 12.95 -18.75 12.65 -15.65 10.35 Q-16.5 12.5 -17.75 13.45 -18.85 14.25 -20.9 14.45 M-19.65 8.35 L-20.45 8.25 -21.3 8.05 -22.55 7.45 Q-19.65 7.6 -17.7 6.35 -16.2 5.4 -15.6 3.85 L-12.95 3.75 Q-13.6 5.1 -15.7 6.65 -18.0 8.4 -19.65 8.35 M-5.2 -5.6 Q-3.55 -6.1 -1.6 -8.95 0.3 -11.85 -0.15 -14.1 0.85 -10.9 -1.8 -5.85 L-4.5 -3.5 -5.25 -3.0 -5.2 -5.6 M-7.9 -0.45 Q-7.9 1.0 -8.65 2.0 -9.45 3.0 -10.55 3.0 L-9.15 1.35 -7.9 -0.45 M13.3 8.8 Q11.05 6.0 8.6 5.2 L4.6 3.95 Q9.4 3.6 11.45 5.35 13.45 7.05 13.3 8.8 M-3.95 6.25 Q-2.95 6.75 -1.75 7.55 L-1.7 7.55 0.0 9.55 0.45 10.35 1.25 12.5 Q-0.05 10.15 -2.85 8.25 -5.35 6.5 -7.9 5.8 L-3.95 6.25 M-9.6 6.15 Q-7.05 6.2 -4.0 8.45 -1.05 10.6 1.1 13.8 -0.5 12.0 -10.3 6.4 L-9.6 6.15" fill="#ffffff" fill-rule="evenodd" stroke="none"/>
      <path d="M1.25 -5.55 L0.05 -3.45 3.1 -4.75 0.15 -2.3 1.45 -2.55 -7.25 2.65 -5.55 2.35 2.6 2.7 Q9.15 2.7 14.25 1.35 17.7 0.4 19.3 -0.7 19.3 0.9 18.6 2.05 17.9 3.2 16.9 3.2 L11.15 4.05 Q9.6 3.0 6.2 3.0 L2.35 3.25 Q-0.9 3.55 -2.0 3.95 L0.0 3.9 Q5.55 3.9 9.5 6.5 13.45 9.05 13.45 12.7 L13.85 14.05 8.15 10.2 2.9 8.95 2.75 8.9 2.0 8.7 1.15 8.5 2.1 10.95 1.05 10.3 1.2 11.6 0.45 10.35 0.0 9.55 -1.7 7.55 -1.75 7.55 Q-2.95 6.75 -3.95 6.25 -3.6 6.25 -5.25 5.8 L-7.75 5.3 -9.8 5.5 -7.9 5.8 Q-5.35 6.5 -2.85 8.25 -0.05 10.15 1.25 12.5 L1.3 12.55 1.35 14.35 1.1 13.8 Q-1.05 10.6 -4.0 8.45 -7.05 6.2 -9.6 6.15 L-10.5 6.3 -11.35 6.7 Q-7.1 9.0 -3.6 11.6 L-8.15 9.65 -7.75 9.8 -11.0 8.45 -10.4 9.1 -6.6 11.75 -6.1 12.65 -9.2 10.8 -11.3 8.9 Q-11.95 8.2 -12.8 8.0 L-11.55 10.3 -10.2 12.4 -13.3 10.4 -14.65 12.45 -14.85 9.1 -17.3 11.05 -16.2 9.2 -14.75 7.55 -14.1 6.55 -17.7 8.55 -19.65 8.35 Q-18.0 8.4 -15.7 6.65 -13.6 5.1 -12.95 3.75 L-15.6 3.85 -15.3 3.45 Q-12.95 2.7 -10.95 1.0 L-9.55 -0.4 -11.85 3.6 -10.55 3.0 Q-9.45 3.0 -8.65 2.0 -7.9 1.0 -7.9 -0.45 -7.85 -2.45 -7.95 -4.2 L-7.7 -3.6 Q-6.9 -2.05 -5.55 -1.75 -4.2 -1.45 -3.1 -2.6 -2.0 -3.75 -1.8 -5.85 0.85 -10.9 -0.15 -14.1 1.9 -11.75 1.75 -8.7 1.7 -6.85 1.25 -5.55 M4.45 -5.25 L4.95 -5.4 7.0 -5.45 9.2 -5.8 7.45 -3.75 6.35 -2.9 4.55 -1.15 6.3 -0.9 Q11.35 -0.9 13.4 -2.55 L12.25 -1.25 13.3 -1.1 Q12.4 -0.65 11.5 -0.35 8.85 0.6 5.95 0.7 L1.55 1.1 Q2.65 0.85 3.5 -0.7 4.45 -2.6 4.45 -5.25 M19.9 4.45 L19.85 5.25 17.85 5.85 16.1 5.8 18.05 6.25 23.2 7.7 23.75 8.85 23.25 8.55 Q21.65 7.75 19.75 7.25 L17.15 6.65 16.0 6.55 21.3 9.15 20.4 9.4 20.2 9.55 16.3 7.55 17.65 9.1 Q19.4 10.4 20.4 10.85 L20.5 11.6 18.6 10.5 16.7 9.15 15.25 7.0 14.8 6.75 Q15.65 8.95 15.7 10.45 L14.75 10.05 Q13.45 5.35 11.15 4.05 L13.0 4.6 16.4 5.0 19.9 4.45" fill="#ededed" fill-rule="evenodd" stroke="none"/>
      <path d="M4.95 -5.4 Q6.95 -5.4 8.35 -6.25 9.25 -6.85 9.6 -7.55 L9.2 -5.8 7.0 -5.45 4.95 -5.4 M3.1 -4.75 L1.45 -2.55 0.15 -2.3 3.1 -4.75 M-5.55 2.35 Q-3.2 2.05 -0.1 0.05 3.5 -2.35 4.45 -5.25 4.45 -2.6 3.5 -0.7 2.65 0.85 1.55 1.1 L5.95 0.7 4.5 0.85 Q10.3 1.05 11.75 0.8 L15.05 0.05 Q16.9 -0.4 19.25 -2.95 L19.3 -0.7 Q17.7 0.4 14.25 1.35 9.15 2.7 2.6 2.7 L-5.55 2.35 M6.35 -2.9 L11.95 -3.1 Q13.1 -3.65 13.7 -4.5 L13.4 -2.55 Q11.35 -0.9 6.3 -0.9 L4.55 -1.15 6.35 -2.9 M16.9 3.2 L20.95 3.45 19.9 4.45 16.4 5.0 13.0 4.6 11.15 4.05 Q13.45 5.35 14.75 10.05 L13.85 14.05 13.45 12.7 Q13.45 9.05 9.5 6.5 5.55 3.9 0.0 3.9 L-2.0 3.95 Q-0.9 3.55 2.35 3.25 L6.2 3.0 Q9.6 3.0 11.15 4.05 L16.9 3.2 M19.85 5.25 L21.45 6.25 17.85 5.85 19.85 5.25 M23.75 8.85 L23.2 8.95 Q21.2 8.55 19.6 7.95 18.0 7.35 17.15 6.65 L19.75 7.25 Q21.65 7.75 23.25 8.55 L23.75 8.85 M20.3 10.05 L20.4 10.85 Q19.4 10.4 17.65 9.1 19.2 9.95 20.3 10.05 M20.5 11.6 L20.7 12.85 15.7 10.45 Q15.65 8.95 14.8 6.75 L15.25 7.0 16.7 9.15 18.6 10.5 20.5 11.6 M8.15 10.2 L8.4 10.7 2.35 8.8 2.75 8.9 2.9 8.95 8.15 10.2 M8.7 11.85 Q5.45 12.6 2.1 10.95 L1.15 8.5 2.0 8.7 Q5.85 11.65 8.7 11.85 M1.2 11.6 L1.3 12.55 1.25 12.5 0.45 10.35 1.2 11.6 M1.35 14.35 L-3.6 11.6 Q-7.1 9.0 -11.35 6.7 L-10.5 6.3 -9.6 6.15 -10.3 6.4 Q-0.5 12.0 1.1 13.8 L1.35 14.35 M-7.2 10.8 L-6.6 11.75 -10.4 9.1 -7.2 10.8 M-5.8 13.15 Q-7.85 13.3 -10.2 12.4 L-11.55 10.3 -12.8 8.0 Q-11.95 8.2 -11.3 8.9 -11.25 10.0 -9.45 11.5 -7.5 13.05 -5.8 13.15 M-14.65 12.45 L-16.55 13.85 -18.4 14.6 -20.9 14.45 Q-18.85 14.25 -17.75 13.45 -16.5 12.5 -15.65 10.35 L-18.75 12.65 -17.3 11.05 -14.85 9.1 -14.65 12.45 M-16.2 9.2 L-15.8 8.35 -17.7 8.55 -14.1 6.55 -14.75 7.55 -16.2 9.2 M-15.3 3.45 L-18.15 1.55 -17.9 1.6 Q-14.65 1.55 -12.35 -0.5 -10.05 -2.55 -10.8 -6.7 L-8.35 -3.35 -8.1 -5.45 -8.35 -6.85 -7.55 -6.35 -7.5 -6.2 Q-7.25 -5.6 -6.3 -5.6 L-5.85 -5.6 -5.2 -5.6 -5.25 -3.0 -4.5 -3.5 -1.8 -5.85 Q-2.0 -3.75 -3.1 -2.6 -4.2 -1.45 -5.55 -1.75 -6.9 -2.05 -7.7 -3.6 L-7.95 -4.2 Q-7.85 -2.45 -7.9 -0.45 L-9.15 1.35 -10.55 3.0 -11.85 3.6 -9.55 -0.4 -10.95 1.0 Q-12.95 2.7 -15.3 3.45 M13.3 8.8 Q13.45 7.05 11.45 5.35 9.4 3.6 4.6 3.95 L8.6 5.2 Q11.05 6.0 13.3 8.8 M-7.9 5.8 L-9.8 5.5 -7.75 5.3 -5.25 5.8 Q-3.6 6.25 -3.95 6.25 L-7.9 5.8" fill="#d5d5d5" fill-rule="evenodd" stroke="none"/>
      <path d="M9.6 -9.05 Q7.9 -7.25 5.25 -6.95 8.25 -8.0 10.2 -10.5 L10.3 -9.25 Q10.25 -6.1 7.8 -4.1 L10.15 -3.95 Q12.65 -4.35 13.65 -6.65 L13.8 -5.05 Q14.0 -2.95 12.55 -1.3 L13.75 -1.15 Q17.4 -1.0 19.2 -3.75 L19.4 -2.6 Q19.9 0.8 17.5 2.95 19.7 3.45 21.7 2.55 L23.05 1.7 21.7 3.25 19.4 5.1 Q20.7 5.65 21.7 6.35 23.45 7.45 24.2 8.9 23.25 9.55 21.7 9.55 L20.1 9.35 21.15 13.3 19.4 12.9 Q16.75 12.25 14.9 10.5 L14.45 12.4 14.2 13.25 13.95 14.0 13.65 14.85 8.6 10.65 9.0 11.85 8.5 12.0 5.8 12.25 Q3.1 11.9 0.9 10.25 L1.75 15.05 1.2 14.6 0.4 14.0 -2.45 12.35 -7.55 10.3 -5.05 13.25 -7.45 13.45 Q-10.85 13.2 -13.55 10.7 L-13.85 11.3 Q-14.8 13.05 -16.35 14.0 L-17.7 14.65 Q-20.25 15.45 -22.35 14.05 L-21.95 14.0 Q-21.2 13.85 -20.45 13.3 -18.05 11.6 -17.05 8.7 L-18.15 8.7 Q-21.35 8.55 -24.15 6.9 -22.3 7.4 -20.6 6.85 -17.6 6.1 -15.85 3.4 L-16.55 3.05 -19.35 0.9 -15.95 1.25 Q-13.15 0.6 -11.8 -2.0 -10.4 -4.55 -11.1 -7.45 L-11.3 -8.15 -8.45 -3.35 -8.85 -7.9 -6.55 -5.7 Q-3.3 -6.85 -1.55 -9.8 -0.1 -12.2 -0.2 -15.05 L1.45 -11.9 Q2.8 -8.8 1.35 -5.7 L3.15 -6.35 0.35 -4.45 Q1.9 -6.45 1.6 -9.25 1.4 -11.3 0.15 -13.65 -0.15 -10.15 -1.9 -8.1 -3.75 -6.05 -7.1 -4.65 L-8.1 -6.3 Q-7.8 -3.95 -8.45 -1.8 L-10.7 -6.4 -10.55 -5.3 Q-10.15 -1.8 -12.95 0.55 -15.05 2.35 -17.8 1.8 L-15.0 3.4 -15.55 4.25 Q-17.95 7.4 -22.0 7.5 L-21.0 7.85 Q-17.6 9.15 -14.8 7.2 -15.1 8.35 -15.8 9.5 -17.75 12.5 -21.0 13.9 L-20.65 14.0 -20.3 14.1 -17.95 14.0 Q-16.5 13.7 -15.3 12.8 -13.4 11.4 -13.15 9.05 L-13.15 10.0 -12.2 11.0 Q-10.2 13.05 -6.2 12.85 L-9.3 9.05 Q-10.15 8.05 -11.0 7.5 L-10.7 7.65 -2.7 11.9 0.85 13.55 Q0.7 11.0 -1.2 7.35 L-1.55 6.75 1.1 9.6 2.85 11.2 Q5.15 12.3 7.65 11.75 L8.6 11.55 8.05 9.95 8.5 10.25 13.4 13.75 14.1 11.55 Q14.35 10.75 14.25 9.75 17.5 11.4 19.65 12.05 L20.25 12.2 19.4 9.35 Q17.35 8.95 15.95 7.35 18.6 9.0 20.5 9.1 L21.7 9.15 23.6 8.75 Q22.9 7.45 21.7 6.6 20.45 5.7 18.6 5.35 L16.45 5.45 Q18.9 5.25 20.65 3.5 L13.8 3.4 16.15 2.85 Q19.2 1.7 18.9 -1.4 L18.75 -2.2 Q16.4 -0.7 13.7 -0.5 12.75 -0.45 11.15 -1.2 13.7 -2.4 13.2 -5.7 11.8 -3.0 8.7 -3.5 L7.4 -3.6 6.5 -3.1 Q9.15 -5.65 9.6 -9.05 M0.5 -1.9 Q-1.8 -0.5 -4.15 0.75 L-7.7 2.45 Q-5.35 0.6 -2.75 -0.75 0.0 -2.1 2.05 -4.15 3.4 -5.45 4.1 -7.3 5.25 -5.25 4.7 -3.05 4.1 -0.6 2.15 0.9 1.05 1.7 -0.55 1.8 2.4 0.7 3.85 -2.0 4.8 -3.85 4.15 -5.9 3.05 -3.3 0.5 -1.9" fill="#000000" fill-rule="evenodd" stroke="none"/>
    </g>
  </defs>
</svg>
