<?xml version="1.0" encoding="UTF-8" standalone="no"?>
<svg xmlns:ffdec="https://www.free-decompiler.com/flash" xmlns:xlink="http://www.w3.org/1999/xlink" ffdec:objectType="frame" height="49.7px" width="78.2px" xmlns="http://www.w3.org/2000/svg">
  <g transform="matrix(1.0, 0.0, 0.0, 1.0, 38.2, 35.1)">
    <use ffdec:characterId="6" height="18.9" transform="matrix(1.0, 0.0, 0.0, 1.0, -14.8, -20.95)" width="24.75" xlink:href="#sprite0"/>
    <use ffdec:characterId="2" height="27.45" transform="matrix(1.0821, 0.0, 0.0, 1.0821, 6.5, -16.15)" width="14.1" xlink:href="#sprite1"/>
    <use ffdec:characterId="2" height="27.45" transform="matrix(-1.0821, 0.0, 0.0, 1.0821, -6.2, -16.15)" width="14.1" xlink:href="#sprite1"/>
    <use ffdec:characterId="4" height="43.5" transform="matrix(1.0, 0.0, 0.0, 1.0, -32.05, -28.9)" width="21.3" xlink:href="#sprite2"/>
    <use ffdec:characterId="4" height="43.5" transform="matrix(-1.0, 0.0, 0.0, 1.0, 33.35, -28.9)" width="21.3" xlink:href="#sprite2"/>
    <use ffdec:characterId="8" height="24.7" transform="matrix(0.9384, 0.0, 0.0, 0.9737, -19.0, -35.1)" width="43.1" xlink:href="#sprite3"/>
    <use ffdec:characterId="10" height="21.55" transform="matrix(1.1037, 0.0, 0.0, 1.1037, 19.35, -34.3)" width="18.75" xlink:href="#sprite4"/>
    <use ffdec:characterId="10" height="21.55" transform="matrix(-1.1037, 0.0, 0.0, 1.1037, -17.55, -34.3)" width="18.75" xlink:href="#sprite4"/>
  </g>
  <defs>
    <g id="sprite0">
      <use ffdec:characterId="5" height="18.9" transform="matrix(1.0, 0.0, 0.0, 1.0, 0.0, 0.0)" width="24.75" xlink:href="#shape0"/>
    </g>
    <g id="shape0">
      <path d="M4.2 6.75 L4.2 6.7 Q7.45 1.9 9.6 1.9 10.4 1.45 11.9 1.1 L17.7 0.05 20.5 0.05 Q23.1 -0.35 23.95 1.45 24.25 2.15 24.25 3.75 24.25 5.35 23.85 7.05 23.15 7.0 22.8 7.75 23.2 5.6 22.7 3.2 L22.15 1.75 Q21.85 5.2 21.15 7.1 L20.0 6.15 19.4 6.6 18.9 6.55 17.0 7.75 18.1 4.65 Q13.95 7.9 10.55 12.0 L10.1 11.7 9.25 11.65 Q11.75 9.65 13.15 6.7 L11.3 8.35 Q10.1 9.45 6.1 8.8 L7.0 7.3 5.8 7.4 6.9 5.25 6.1 5.7 4.6 6.7 4.2 6.75" fill="#5e3520" fill-rule="evenodd" stroke="none"/>
      <path d="M2.15 10.1 L2.1 9.85 Q3.0 7.1 4.15 6.75 L4.2 6.75 4.6 6.7 6.1 5.7 6.9 5.25 5.8 7.4 7.0 7.3 6.1 8.8 Q10.1 9.45 11.3 8.35 L13.15 6.7 Q11.75 9.65 9.25 11.65 L7.85 10.5 6.1 10.65 5.75 10.35 1.75 14.85 2.15 10.1 M10.55 12.0 Q13.95 7.9 18.1 4.65 L17.0 7.75 18.9 6.55 19.4 6.6 20.0 6.15 21.15 7.1 Q21.85 5.2 22.15 1.75 L22.7 3.2 Q23.2 5.6 22.8 7.75 L22.5 8.95 Q21.7 11.45 19.55 13.55 20.7 11.05 21.0 8.0 L19.2 8.6 18.95 7.3 17.0 8.5 16.45 8.5 14.35 10.7 Q12.3 12.6 9.55 13.2 L10.55 12.0" fill="#8e640c" fill-rule="evenodd" stroke="none"/>
      <path d="M23.85 7.05 L23.95 7.05 24.0 7.25 23.6 8.05 22.4 11.15 Q21.7 12.65 20.8 13.8 L20.25 14.5 19.15 14.4 18.4 14.85 18.0 14.7 17.75 14.75 17.45 14.55 18.1 13.25 Q18.5 12.3 18.1 11.25 L13.2 14.1 12.75 14.0 13.7 12.6 Q11.1 14.45 8.0 13.9 L8.15 13.1 7.45 13.15 7.2 13.1 5.8 13.5 6.25 12.3 Q4.2 13.4 2.9 15.5 L0.8 16.35 0.4 15.6 0.3 15.05 2.15 10.1 1.75 14.85 5.75 10.35 6.1 10.65 7.85 10.5 9.25 11.65 10.1 11.7 10.55 12.0 9.55 13.2 Q12.3 12.6 14.35 10.7 L16.45 8.5 17.0 8.5 18.95 7.3 19.2 8.6 21.0 8.0 Q20.7 11.05 19.55 13.55 21.7 11.45 22.5 8.95 L22.8 7.75 Q23.15 7.0 23.85 7.05" fill="#422009" fill-rule="evenodd" stroke="none"/>
      <path d="M20.25 14.5 Q17.55 17.4 13.4 17.4 12.5 17.4 12.5 17.05 12.5 16.7 13.75 16.15 L15.6 15.2 17.15 13.7 16.0 14.1 Q10.55 15.95 6.6 15.95 5.95 15.95 6.1 15.4 L7.45 13.15 8.15 13.1 8.0 13.9 Q11.1 14.45 13.7 12.6 L12.75 14.0 13.2 14.1 18.1 11.25 Q18.5 12.3 18.1 13.25 L17.45 14.55 17.75 14.75 18.0 14.7 18.4 14.85 19.15 14.4 20.25 14.5 M7.2 13.1 Q5.45 14.2 0.65 17.85 0.25 17.85 0.35 16.7 L0.4 15.6 0.8 16.35 2.9 15.5 Q4.2 13.4 6.25 12.3 L5.8 13.5 7.2 13.1" fill="#774418" fill-rule="evenodd" stroke="none"/>
      <path d="M21.9 13.45 Q17.8 17.75 14.8 17.7 L11.0 17.45 Q13.4 16.6 15.4 15.1 L15.95 14.45 Q10.85 16.95 5.1 16.2 L6.8 13.65 Q3.0 15.75 0.05 18.9 -0.4 12.7 2.3 8.05 4.95 3.4 8.75 2.1 3.95 5.95 2.3 10.1 0.6 14.2 0.65 17.6 4.2 14.2 7.95 12.6 L7.65 13.3 7.05 14.25 6.35 15.2 Q11.7 15.9 14.4 13.75 17.05 11.55 17.65 10.45 L19.25 8.05 Q19.05 13.75 14.0 16.4 L12.55 17.1 Q16.75 17.45 20.25 13.75 23.75 10.0 24.2 2.3 25.95 9.15 21.9 13.45" fill="#260d00" fill-rule="evenodd" stroke="none"/>
    </g>
    <g id="sprite1">
      <use ffdec:characterId="1" height="27.45" transform="matrix(1.0, 0.0, 0.0, 1.0, 0.0, 0.0)" width="14.1" xlink:href="#shape1"/>
    </g>
    <g id="shape1">
      <path d="M7.2 14.05 Q7.7 12.7 7.7 11.45 L7.55 10.4 7.55 6.1 5.8 2.0 Q4.4 -1.0 4.4 -1.9 4.4 -2.65 5.95 -2.6 9.95 -2.45 13.1 3.6 15.65 8.55 15.65 11.7 L15.2 15.25 14.8 15.1 14.7 15.1 14.15 15.15 14.05 15.3 13.65 12.25 13.15 12.1 12.15 14.45 11.65 12.45 11.15 13.85 10.55 11.95 8.75 13.3 8.75 11.8 Q8.7 9.8 7.75 8.05 L7.8 9.1 Q7.95 11.6 7.45 14.25 7.35 13.85 7.2 14.05 M7.1 16.5 L6.85 16.45 6.9 16.4 7.1 16.5" fill="#5e3520" fill-rule="evenodd" stroke="none"/>
      <path d="M7.45 14.25 Q7.95 11.6 7.8 9.1 L7.75 8.05 Q8.7 9.8 8.75 11.8 L8.75 13.3 10.55 11.95 11.15 13.85 11.65 12.45 12.15 14.45 Q11.0 16.25 11.05 15.85 L11.2 14.6 10.55 13.8 10.45 12.7 10.0 13.3 9.25 13.45 8.85 14.35 Q8.25 15.55 7.1 16.5 L6.9 16.4 7.45 14.25" fill="#8e640c" fill-rule="evenodd" stroke="none"/>
      <path d="M12.15 14.45 L13.15 12.1 13.65 12.25 14.05 15.3 Q13.65 16.7 11.45 18.1 L9.3 19.2 9.9 17.25 10.05 15.65 Q8.05 17.4 6.75 17.35 L6.85 16.45 7.1 16.5 Q8.25 15.55 8.85 14.35 L9.25 13.45 10.0 13.3 10.45 12.7 10.55 13.8 11.2 14.6 11.05 15.85 Q11.0 16.25 12.15 14.45" fill="#422009" fill-rule="evenodd" stroke="none"/>
      <path d="M15.2 15.25 L15.45 16.05 15.25 16.9 14.9 17.4 Q14.9 17.8 14.5 18.4 L13.9 19.3 13.1 20.25 12.5 21.2 Q9.65 24.3 6.3 24.3 L5.45 24.05 4.75 24.05 Q2.2 24.05 2.2 23.5 2.2 23.15 3.25 22.8 L5.3 21.95 7.4 20.15 8.45 18.3 Q8.75 17.05 8.45 18.0 6.25 18.85 5.0 18.9 3.7 18.95 4.75 18.2 L4.75 17.95 6.25 15.8 6.35 15.7 6.55 15.25 7.05 14.15 Q7.1 14.05 7.2 14.05 7.35 13.85 7.45 14.25 L6.9 16.4 6.85 16.45 6.75 17.35 Q8.05 17.4 10.05 15.65 L9.9 17.25 9.3 19.2 11.45 18.1 Q13.65 16.7 14.05 15.3 L14.15 15.15 14.7 15.1 14.8 15.1 15.2 15.25" fill="#774418" fill-rule="evenodd" stroke="none"/>
      <path d="M4.95 0.0 Q7.95 4.55 8.35 9.95 8.7 15.35 4.55 18.75 7.6 19.05 9.8 16.2 9.35 19.5 6.65 21.6 4.7 23.15 2.3 23.5 8.7 25.2 12.25 21.15 15.8 17.05 15.15 13.5 16.65 16.75 13.4 20.8 10.15 24.8 6.8 24.85 3.45 24.85 2.05 24.05 0.65 23.2 3.35 22.55 6.05 21.9 7.5 20.0 8.85 18.1 7.65 18.85 6.4 19.6 4.25 19.25 3.1 19.0 3.7 18.2 7.6 15.15 7.5 10.15 7.4 5.1 4.95 0.0" fill="#260d00" fill-rule="evenodd" stroke="none"/>
    </g>
    <g id="sprite2">
      <use ffdec:characterId="3" height="43.5" transform="matrix(1.0, 0.0, 0.0, 1.0, 0.0, 0.0)" width="21.3" xlink:href="#shape2"/>
    </g>
    <g id="shape2">
      <path d="M9.85 5.95 L10.0 5.45 Q10.5 4.0 11.1 2.95 L11.7 1.75 12.2 1.1 13.5 0.7 13.9 0.75 14.4 0.85 15.8 1.6 16.45 2.95 17.35 5.4 18.1 8.0 19.2 10.3 19.3 10.25 Q19.9 10.25 19.85 10.95 L19.8 11.2 20.15 11.65 20.65 12.95 20.5 13.95 19.45 15.25 17.75 17.45 16.45 19.7 15.35 21.95 Q14.45 23.6 13.7 26.2 12.95 28.95 12.95 30.85 12.95 31.5 13.3 32.4 L13.9 33.95 13.9 34.05 13.7 33.95 13.45 33.7 13.15 34.05 13.1 34.75 13.05 34.9 8.9 33.95 Q6.85 33.55 4.0 30.7 5.6 34.65 8.1 36.3 L13.2 39.4 Q15.05 40.55 17.25 41.05 L19.4 41.35 Q23.3 42.3 21.65 41.45 L22.05 41.5 Q22.6 41.65 22.6 42.1 22.6 42.55 22.05 42.55 L21.9 42.55 21.5 42.65 20.5 42.4 20.25 42.3 19.7 42.3 Q16.8 41.7 15.2 41.1 13.7 40.6 12.1 39.65 L9.2 38.0 6.65 36.2 5.4 35.3 4.5 34.2 3.35 32.1 2.65 29.85 Q2.4 29.05 2.4 27.9 2.4 25.35 3.55 22.85 L5.65 17.9 9.5 6.9 9.5 6.95 Q9.5 7.35 9.85 8.15 L10.45 9.05 10.15 9.6 9.9 10.15 9.65 10.2 Q8.75 10.4 8.75 11.0 L8.85 12.75 8.8 12.8 Q7.8 13.85 7.8 14.95 L8.0 16.4 7.85 16.6 Q7.4 17.35 7.1 18.45 L6.55 20.3 6.35 21.2 6.35 22.1 5.55 23.05 4.6 23.95 Q3.5 25.25 3.35 25.9 L3.3 27.6 3.3 28.85 Q3.5 30.05 4.6 30.05 5.2 30.05 6.05 29.45 L6.2 30.75 Q6.65 31.85 8.3 31.85 L9.55 31.65 10.1 31.75 Q11.8 31.75 11.8 29.5 L11.35 28.15 10.85 27.45 11.6 26.75 Q12.35 25.9 12.35 24.95 L12.05 23.7 Q12.9 22.65 13.05 21.8 L13.25 19.9 13.4 19.85 Q15.25 19.7 15.25 17.85 15.25 17.1 14.85 16.3 14.4 15.45 13.6 15.25 L13.95 14.55 14.4 12.35 14.15 10.7 Q13.7 9.45 12.8 9.3 13.2 8.5 13.2 7.75 13.2 5.9 11.85 5.5 11.05 5.25 10.7 5.65 10.1 5.7 9.85 5.95 M11.8 32.6 Q11.45 32.15 10.85 32.15 L10.0 32.35 Q9.45 32.6 9.45 32.95 9.45 33.75 11.0 33.75 12.05 33.75 12.05 33.25 L11.8 32.6" fill="#dfe9f0" fill-rule="evenodd" stroke="none"/>
      <path d="M9.5 6.9 L9.7 6.1 9.85 5.95 Q10.1 5.7 10.7 5.65 11.05 5.25 11.85 5.5 13.2 5.9 13.2 7.75 13.2 8.5 12.8 9.3 13.7 9.45 14.15 10.7 L14.4 12.35 13.95 14.55 13.6 15.25 Q14.4 15.45 14.85 16.3 15.25 17.1 15.25 17.85 15.25 19.7 13.4 19.85 L13.25 19.9 13.05 21.8 Q12.9 22.65 12.05 23.7 L12.35 24.95 Q12.35 25.9 11.6 26.75 L10.85 27.45 11.35 28.15 11.8 29.5 Q11.8 31.75 10.1 31.75 L9.55 31.65 8.3 31.85 Q6.65 31.85 6.2 30.75 L6.05 29.45 Q5.2 30.05 4.6 30.05 3.5 30.05 3.3 28.85 L3.3 27.6 3.35 25.9 Q3.5 25.25 4.6 23.95 L5.55 23.05 6.35 22.1 6.35 21.2 6.55 20.3 7.1 18.45 Q7.4 17.35 7.85 16.6 L8.0 16.4 7.8 14.95 Q7.8 13.85 8.8 12.8 L8.85 12.75 8.75 11.0 Q8.75 10.4 9.65 10.2 L9.9 10.15 10.15 9.6 10.45 9.05 9.85 8.15 Q9.5 7.35 9.5 6.95 L9.5 6.9 M11.8 32.6 L12.05 33.25 Q12.05 33.75 11.0 33.75 9.45 33.75 9.45 32.95 9.45 32.6 10.0 32.35 L10.85 32.15 Q11.45 32.15 11.8 32.6" fill="#ffffff" fill-rule="evenodd" stroke="none"/>
      <path d="M13.1 34.75 L13.15 34.05 13.45 33.7 13.7 33.95 13.1 34.75 M13.05 34.9 Q12.95 37.4 15.2 39.1 17.4 40.75 19.4 41.35 L17.25 41.05 Q15.05 40.55 13.2 39.4 L8.1 36.3 Q5.6 34.65 4.0 30.7 6.85 33.55 8.9 33.95 L13.05 34.9" fill="#c5cbd9" fill-rule="evenodd" stroke="none"/>
      <path d="M13.9 34.05 L15.4 35.65 21.65 41.45 Q23.3 42.3 19.4 41.35 17.4 40.75 15.2 39.1 12.95 37.4 13.05 34.9 L13.1 34.75 13.7 33.95 13.9 34.05" fill="#8588a8" fill-rule="evenodd" stroke="none"/>
      <path d="M10.85 3.9 L10.3 5.6 9.6 7.25 7.35 13.85 6.1 17.25 4.8 20.55 3.45 23.75 Q2.65 25.85 2.65 27.15 2.65 32.05 6.45 35.6 8.45 37.35 11.4 39.0 17.15 42.25 22.3 42.25 L22.6 42.2 Q20.2 41.15 17.8 38.75 L14.2 34.75 13.95 35.15 13.5 35.35 Q12.65 35.35 12.7 33.7 12.7 30.25 12.95 28.5 13.35 25.75 14.6 23.25 L17.2 18.05 Q18.85 15.1 21.1 13.05 19.65 16.5 16.45 21.9 14.0 26.55 14.0 30.4 L14.0 31.85 14.4 33.7 Q14.5 34.3 15.3 35.2 L16.75 36.75 Q18.05 38.25 20.7 40.25 L23.35 42.25 22.65 42.85 21.7 43.2 Q18.05 44.2 13.3 41.75 8.55 39.25 5.95 36.5 3.3 33.75 2.6 31.5 2.05 29.9 2.05 27.15 2.05 25.5 4.2 20.1 L7.05 13.05 9.4 6.0 10.4 2.5 11.1 0.7 Q11.65 -0.3 12.55 0.1 13.4 0.45 13.4 1.1 13.4 1.3 12.35 1.65 11.2 2.3 10.85 3.9" fill="#26282b" fill-rule="evenodd" stroke="none"/>
    </g>
    <g id="sprite3">
      <use ffdec:characterId="7" height="24.7" transform="matrix(1.0, 0.0, 0.0, 1.0, 0.0, 0.0)" width="43.1" xlink:href="#shape3"/>
    </g>
    <g id="shape3">
      <path d="M40.55 8.45 Q40.95 8.45 40.95 9.75 L40.2 11.95 Q39.4 14.25 39.4 15.9 L39.4 19.5 Q39.25 21.85 38.4 21.85 L38.2 21.85 Q37.7 21.75 37.7 21.25 L38.65 16.15 Q39.05 13.2 39.05 11.0 39.05 9.9 40.0 8.8 L40.55 8.45 M38.8 8.75 L38.15 9.4 Q37.6 9.4 37.6 8.7 L37.8 8.4 Q38.05 8.15 38.3 8.15 38.8 8.15 38.8 8.75 M35.7 8.75 Q36.85 9.65 37.3 11.2 37.5 11.85 37.0 12.4 L36.0 13.25 34.45 13.2 34.75 13.55 Q35.05 15.6 32.95 15.9 L31.55 16.05 Q28.7 15.45 26.7 13.1 L20.6 12.95 Q19.0 14.45 16.85 13.6 16.0 13.25 15.3 12.7 L12.35 15.05 Q11.05 15.85 9.65 16.3 8.05 16.95 6.95 15.85 6.5 14.75 7.2 13.65 7.65 12.85 8.25 12.15 L7.95 11.45 Q7.65 10.55 8.15 10.2 L8.95 9.55 Q7.65 9.55 6.45 8.7 L5.8 8.25 Q5.0 7.85 5.0 6.75 5.0 5.6 6.55 4.85 8.1 4.05 10.35 4.5 10.9 3.5 11.95 2.9 L12.6 2.6 Q14.2 2.3 14.6 3.2 16.8 2.15 19.2 1.75 22.4 1.15 25.4 2.3 L27.15 2.55 Q31.05 2.15 34.3 4.05 L35.5 4.9 Q36.55 5.65 36.95 6.75 L37.25 7.8 37.05 8.0 35.7 8.75 M26.55 15.0 Q26.55 15.55 25.9 15.55 25.15 15.55 24.75 15.15 L24.45 14.6 Q24.45 13.65 25.5 13.85 26.55 14.05 26.55 15.0 M37.2 18.05 Q36.9 18.8 36.35 18.8 35.75 18.8 35.4 18.0 L35.1 16.95 35.3 16.15 Q35.6 15.45 36.2 15.45 37.45 15.45 37.35 17.15 L37.2 18.05 M3.45 16.3 L3.4 15.65 2.5 11.4 1.55 8.0 Q1.55 7.3 2.35 7.6 3.1 7.95 3.1 8.55 L3.05 10.3 3.75 13.9 5.3 20.9 Q5.3 21.4 5.0 21.4 L4.75 21.35 Q3.9 20.75 3.45 16.3 M6.5 9.85 Q7.05 10.15 7.05 10.7 L6.8 11.75 Q6.35 12.55 5.5 12.45 L5.0 12.8 Q4.65 12.8 4.55 12.55 L4.5 12.3 Q4.75 10.85 5.1 10.45 5.85 9.55 6.5 9.85 M6.9 17.65 L7.45 17.25 Q8.0 17.25 8.0 17.65 L7.65 18.2 7.0 18.6 Q6.6 18.6 6.6 18.15 L6.9 17.65" fill="#ffffff" fill-rule="evenodd" stroke="none"/>
      <path d="M41.15 6.35 L40.25 6.05 40.05 6.9 40.75 7.8 40.55 8.45 40.0 8.8 Q39.05 9.9 39.05 11.0 39.05 13.2 38.65 16.15 L37.7 21.25 Q37.7 21.75 38.2 21.85 L37.15 24.1 36.1 23.25 35.6 22.05 34.25 20.9 32.55 19.85 Q31.55 19.1 29.15 18.1 25.7 16.7 23.0 16.7 15.55 16.7 13.2 17.55 L10.15 19.55 Q9.0 20.15 7.1 22.25 L5.4 23.8 4.75 21.35 5.0 21.4 Q5.3 21.4 5.3 20.9 L3.75 13.9 3.05 10.3 3.1 8.55 Q3.1 7.95 2.35 7.6 1.55 7.3 1.55 8.0 L2.5 11.4 3.4 15.65 3.45 16.3 1.25 6.95 1.55 5.95 1.2 5.95 Q0.45 6.1 0.05 6.55 0.5 5.75 1.8 5.2 L6.8 2.85 Q8.75 1.55 13.75 0.8 L18.9 0.2 Q21.6 0.4 21.7 0.2 25.7 0.3 30.15 1.5 33.4 2.35 35.1 3.15 L37.65 3.9 Q39.4 4.45 40.3 5.35 L41.15 6.35 M37.2 18.05 L37.35 17.15 Q37.45 15.45 36.2 15.45 35.6 15.45 35.3 16.15 L35.1 16.95 35.4 18.0 Q35.75 18.8 36.35 18.8 36.9 18.8 37.2 18.05 M26.55 15.0 Q26.55 14.05 25.5 13.85 24.45 13.65 24.45 14.6 L24.75 15.15 Q25.15 15.55 25.9 15.55 26.55 15.55 26.55 15.0 M35.7 8.75 L37.05 8.0 37.25 7.8 36.95 6.75 Q36.55 5.65 35.5 4.9 L34.3 4.05 Q31.05 2.15 27.15 2.55 L25.4 2.3 Q22.4 1.15 19.2 1.75 16.8 2.15 14.6 3.2 14.2 2.3 12.6 2.6 L11.95 2.9 Q10.9 3.5 10.35 4.5 8.1 4.05 6.55 4.85 5.0 5.6 5.0 6.75 5.0 7.85 5.8 8.25 L6.45 8.7 Q7.65 9.55 8.95 9.55 L8.15 10.2 Q7.65 10.55 7.95 11.45 L8.25 12.15 Q7.65 12.85 7.2 13.65 6.5 14.75 6.95 15.85 8.05 16.95 9.65 16.3 11.05 15.85 12.35 15.05 L15.3 12.7 Q16.0 13.25 16.85 13.6 19.0 14.45 20.6 12.95 L26.7 13.1 Q28.7 15.45 31.55 16.05 L32.95 15.9 Q35.05 15.6 34.75 13.55 L34.45 13.2 36.0 13.25 37.0 12.4 Q37.5 11.85 37.3 11.2 36.85 9.65 35.7 8.75 M38.8 8.75 Q38.8 8.15 38.3 8.15 38.05 8.15 37.8 8.4 L37.6 8.7 Q37.6 9.4 38.15 9.4 L38.8 8.75 M6.9 17.65 L6.6 18.15 Q6.6 18.6 7.0 18.6 L7.65 18.2 8.0 17.65 Q8.0 17.25 7.45 17.25 L6.9 17.65 M6.5 9.85 Q5.85 9.55 5.1 10.45 4.75 10.85 4.5 12.3 L4.55 12.55 Q4.65 12.8 5.0 12.8 L5.5 12.45 Q6.35 12.55 6.8 11.75 L7.05 10.7 Q7.05 10.15 6.5 9.85" fill="#dfe9f0" fill-rule="evenodd" stroke="none"/>
      <path d="M41.15 6.35 Q43.1 8.45 42.05 10.75 41.0 13.05 40.55 15.65 L39.6 21.25 Q39.05 24.2 38.05 24.5 L37.15 24.1 38.2 21.85 38.4 21.85 Q39.25 21.85 39.4 19.5 L39.4 15.9 Q39.4 14.25 40.2 11.95 L40.95 9.75 Q40.95 8.45 40.55 8.45 L40.75 7.8 40.05 6.9 40.25 6.05 41.15 6.35 M5.4 23.8 L4.75 24.25 4.1 24.0 2.35 16.25 0.65 11.3 -0.7 7.9 0.05 6.55 Q0.45 6.1 1.2 5.95 L1.55 5.95 1.25 6.95 3.45 16.3 Q3.9 20.75 4.75 21.35 L5.4 23.8" fill="#c5cbd9" fill-rule="evenodd" stroke="none"/>
      <path d="M37.85 3.5 Q39.6 4.15 40.9 5.65 L41.6 6.95 35.9 4.0 Q32.75 2.4 29.3 1.45 L20.65 0.7 12.25 1.45 Q8.85 2.4 5.65 4.0 L0.0 6.95 0.65 5.65 Q1.95 4.15 3.7 3.5 12.05 0.1 20.65 0.0 L20.9 0.0 Q29.5 0.1 37.85 3.5 M36.6 21.7 Q37.4 22.25 38.15 24.0 L37.75 24.7 Q35.0 24.25 33.2 21.7 31.35 19.15 25.5 17.7 20.1 16.8 15.55 17.75 11.0 18.65 7.65 22.8 5.8 25.0 4.35 24.25 7.9 19.55 12.3 17.85 18.0 15.7 23.25 16.55 29.6 16.95 32.7 19.05 L36.6 21.7" fill="#26282b" fill-rule="evenodd" stroke="none"/>
    </g>
    <g id="sprite4">
      <use ffdec:characterId="9" height="21.55" transform="matrix(1.0, 0.0, 0.0, 1.0, 0.0, 0.0)" width="18.75" xlink:href="#shape4"/>
    </g>
    <g id="shape4">
      <path d="M16.1 4.95 L15.65 4.8 15.55 4.8 15.25 4.2 15.4 4.3 15.8 4.6 16.1 4.95" fill="#1b2030" fill-rule="evenodd" stroke="none"/>
      <path d="M15.25 4.2 L15.55 4.8 15.65 4.8 16.1 4.95 16.7 5.75 17.0 6.6 17.0 6.7 16.95 7.3 17.3 7.5 17.8 8.1 18.25 9.0 18.0 9.75 17.0 10.0 Q16.2 10.0 15.95 9.65 L15.9 9.25 16.1 7.85 16.05 7.7 15.95 7.7 15.7 7.7 Q15.7 8.3 15.15 8.3 14.65 8.3 14.45 7.45 L14.3 6.2 Q13.4 6.25 12.55 5.6 L12.3 5.1 11.95 4.7 11.3 4.3 11.25 3.75 11.15 3.2 Q11.0 3.0 11.0 2.8 11.0 2.05 11.75 2.1 12.5 2.2 12.5 2.9 L12.55 3.05 12.7 3.05 13.6 2.95 14.25 3.25 14.35 3.55 14.75 3.85 14.9 3.9 15.1 4.05 15.25 4.2 M15.7 6.1 Q15.7 5.7 15.35 5.7 15.0 5.7 15.0 6.1 14.9 6.55 15.35 6.55 L15.7 6.1 M17.85 13.45 L17.75 13.6 Q17.75 14.4 16.7 14.4 15.5 14.4 15.5 13.6 15.5 13.15 15.95 12.8 15.45 12.6 15.45 12.0 15.6 10.35 16.75 10.35 17.0 10.35 17.2 10.6 L17.3 10.6 Q17.8 10.6 18.1 11.15 L18.2 11.4 18.4 12.3 18.1 13.05 17.85 13.45 M13.45 4.8 Q14.35 4.8 14.35 4.1 L14.35 3.85 Q14.25 3.55 13.8 3.55 L13.05 3.4 Q12.5 3.4 12.5 3.95 12.75 4.8 13.45 4.8 M9.95 2.65 L10.1 3.3 Q10.1 4.05 9.35 4.05 8.3 4.05 8.35 3.1 L7.55 3.35 6.45 3.55 Q5.6 3.55 5.6 2.85 5.95 1.45 6.6 1.45 7.1 1.45 7.4 1.85 L7.65 2.25 7.7 2.25 7.55 1.85 Q7.55 1.1 8.75 1.15 9.95 1.15 9.95 2.65 M9.45 2.45 Q9.45 1.95 9.05 2.0 8.6 2.05 8.6 2.6 8.65 3.0 9.0 3.0 L9.3 2.8 9.45 2.45 M15.75 17.2 Q15.45 17.55 15.05 17.55 14.75 17.55 14.3 16.75 L14.6 16.3 15.35 16.05 Q15.8 16.05 15.95 16.35 L16.0 16.65 15.75 17.2" fill="#3a3f51" fill-rule="evenodd" stroke="none"/>
      <path d="M15.7 6.1 L15.35 6.55 Q14.9 6.55 15.0 6.1 15.0 5.7 15.35 5.7 15.7 5.7 15.7 6.1 M13.45 4.8 Q12.75 4.8 12.5 3.95 12.5 3.4 13.05 3.4 L13.8 3.55 Q14.25 3.55 14.35 3.85 L14.35 4.1 Q14.35 4.8 13.45 4.8 M9.45 2.45 L9.3 2.8 9.0 3.0 Q8.65 3.0 8.6 2.6 8.6 2.05 9.05 2.0 9.45 1.95 9.45 2.45" fill="#646a7f" fill-rule="evenodd" stroke="none"/>
      <path d="M14.9 3.9 L14.75 3.85 14.35 3.55 14.25 3.25 13.6 2.95 12.7 3.05 12.55 3.05 12.5 2.9 Q12.5 2.2 11.75 2.1 11.0 2.05 11.0 2.8 11.0 3.0 11.15 3.2 L11.25 3.75 11.3 4.3 11.95 4.7 12.3 5.1 12.55 5.6 Q13.4 6.25 14.3 6.2 L14.45 7.45 Q14.65 8.3 15.15 8.3 15.7 8.3 15.7 7.7 L15.95 7.7 16.05 7.7 16.1 7.85 15.9 9.25 15.95 9.65 Q16.2 10.0 17.0 10.0 L18.0 9.75 18.1 10.65 18.1 11.15 Q17.8 10.6 17.3 10.6 L17.2 10.6 Q17.0 10.35 16.75 10.35 15.6 10.35 15.45 12.0 15.45 12.6 15.95 12.8 15.5 13.15 15.5 13.6 15.5 14.4 16.7 14.4 17.75 14.4 17.75 13.6 L17.85 13.45 17.2 16.2 Q17.0 17.65 15.5 18.95 13.45 20.7 10.15 20.7 8.5 20.7 7.05 19.3 L6.4 18.6 11.5 18.8 11.9 17.75 12.65 17.5 13.35 17.1 13.45 16.9 13.8 16.15 13.6 15.7 13.4 15.0 14.25 13.45 Q14.4 12.5 14.15 11.5 L13.85 10.3 13.75 10.05 12.95 9.9 12.7 9.7 12.55 9.45 12.5 9.05 12.55 8.8 12.65 8.4 Q12.2 7.3 11.35 6.55 L10.65 5.85 10.45 5.85 9.8 6.1 7.3 5.95 7.05 5.55 6.4 5.3 Q4.9 6.3 3.25 6.25 L2.85 6.05 1.25 8.5 4.8 16.5 4.55 16.05 3.8 14.4 1.95 10.75 Q0.6 8.05 0.6 7.75 0.6 7.1 1.5 5.5 L2.55 3.65 Q3.15 2.25 5.65 1.25 7.65 0.45 8.8 0.45 10.85 0.45 12.15 1.25 L13.75 2.6 14.9 3.9 M9.95 2.65 Q9.95 1.15 8.75 1.15 7.55 1.1 7.55 1.85 L7.7 2.25 7.65 2.25 7.4 1.85 Q7.1 1.45 6.6 1.45 5.95 1.45 5.6 2.85 5.6 3.55 6.45 3.55 L7.55 3.35 8.35 3.1 Q8.3 4.05 9.35 4.05 10.1 4.05 10.1 3.3 L9.95 2.65 M15.75 17.2 L16.0 16.65 15.95 16.35 Q15.8 16.05 15.35 16.05 L14.6 16.3 14.3 16.75 Q14.75 17.55 15.05 17.55 15.45 17.55 15.75 17.2" fill="#181c28" fill-rule="evenodd" stroke="none"/>
      <path d="M4.8 16.5 L1.25 8.5 2.85 6.05 3.25 6.25 Q4.9 6.3 6.4 5.3 L7.05 5.55 7.3 5.95 9.8 6.1 10.45 5.85 10.65 5.85 11.35 6.55 Q12.2 7.3 12.65 8.4 L12.55 8.8 12.5 9.05 12.55 9.45 12.7 9.7 12.95 9.9 13.75 10.05 13.85 10.3 14.15 11.5 Q14.4 12.5 14.25 13.45 L13.4 15.0 13.6 15.7 13.8 16.15 13.45 16.9 13.35 17.1 12.65 17.5 11.9 17.75 11.5 18.8 6.4 18.6 4.8 16.5" fill="#000000" fill-rule="evenodd" stroke="none"/>
      <path d="M17.3 7.5 L16.95 7.3 17.0 6.7 17.0 6.6 17.3 7.5" fill="#131826" fill-rule="evenodd" stroke="none"/>
      <path d="M15.0 4.3 Q13.45 2.5 11.25 1.45 8.75 0.35 6.1 1.4 4.5 1.85 3.4 3.05 2.7 3.7 2.05 4.75 L0.8 7.3 3.0 11.8 4.65 15.75 Q5.8 18.4 8.0 19.95 9.05 20.7 10.45 20.6 12.5 20.2 14.25 18.95 L15.95 17.35 Q17.45 15.3 17.65 12.6 17.85 10.1 17.0 7.75 16.3 5.9 15.0 4.3 M18.75 12.35 Q18.7 14.65 17.75 16.7 16.75 18.95 14.75 20.25 12.75 21.55 10.45 21.55 8.0 21.35 6.45 19.6 4.9 17.8 4.0 15.45 L2.85 13.05 1.2 10.1 0.0 7.55 Q0.5 4.6 2.6 2.4 4.6 1.1 6.7 0.45 L8.2 0.0 Q10.4 -0.15 12.45 0.8 14.8 1.85 16.1 3.95 17.2 5.85 17.95 7.9 18.8 10.15 18.75 12.35" fill="#000000" fill-rule="evenodd" stroke="none"/>
    </g>
  </defs>
</svg>
