<?xml version="1.0" encoding="UTF-8" standalone="no"?>
<svg xmlns:ffdec="https://www.free-decompiler.com/flash" xmlns:xlink="http://www.w3.org/1999/xlink" ffdec:objectType="frame" height="26.9px" width="48.05px" xmlns="http://www.w3.org/2000/svg">
  <g transform="matrix(1.0, 0.0, 0.0, 1.0, 24.0, 23.55)">
    <use ffdec:characterId="6" height="15.5" transform="matrix(1.0, 0.0, 0.0, 1.0, 0.0, -9.5)" width="35.25" xlink:href="#shape0"/>
    <use ffdec:characterId="7" height="16.75" transform="matrix(-1.0, 0.0, 0.0, 1.0, -19.0, -4.8)" width="8.25" xlink:href="#shape1"/>
    <use ffdec:characterId="7" height="16.75" transform="matrix(1.0, 0.0, 0.0, 1.0, 19.05, -4.6)" width="8.25" xlink:href="#shape1"/>
    <use ffdec:characterId="8" height="6.95" transform="matrix(1.0, 0.0, 0.0, 1.0, 0.0, -9.5)" width="33.8" xlink:href="#shape2"/>
  </g>
  <defs>
    <g id="shape0">
      <path d="M4.0 -12.9 Q5.45 -12.45 5.85 -11.3 6.65 -9.3 6.4 -9.05 L6.1 -8.95 2.1 -9.2 1.8 -9.3 1.1 -9.3 0.65 -9.3 -5.6 -8.95 -5.0 -11.3 Q-4.65 -12.45 -3.3 -12.95 L-3.5 -12.55 Q-4.4 -11.85 -3.75 -10.85 0.2 -9.35 2.25 -10.15 4.2 -11.0 4.2 -11.55 L4.0 -12.9" fill="#000000" fill-rule="evenodd" stroke="none"/>
      <path d="M4.0 -12.9 L4.2 -11.55 Q4.2 -11.0 2.25 -10.15 0.2 -9.35 -3.75 -10.85 -4.4 -11.85 -3.5 -12.55 L-3.3 -12.95 Q-2.1 -14.2 0.25 -14.05 2.6 -14.0 4.0 -12.9" fill="#333333" fill-rule="evenodd" stroke="none"/>
      <path d="M12.45 -1.8 L11.9 -3.2 Q11.1 -4.65 10.35 -5.2 L8.65 -6.1 6.4 -6.7 3.25 -7.35 0.0 -7.45 -5.45 -7.05 Q-8.9 -6.5 -10.45 -5.1 -12.05 -3.7 -12.15 -3.15 L-12.2 -2.1 -12.85 -1.8 -13.05 -1.75 -13.1 -1.7 -13.8 -1.1 -15.5 0.5 -16.7 1.45 Q-17.8 1.45 -17.65 -1.05 -17.65 -2.35 -15.6 -4.15 L-12.55 -6.55 Q-11.55 -7.2 -7.15 -8.6 L3.6 -9.05 Q9.9 -8.1 12.3 -6.5 L15.25 -4.45 16.05 -3.75 16.95 -2.8 Q17.6 -2.15 17.6 -0.85 17.6 1.25 16.05 1.25 L15.4 0.7 14.85 -0.05 13.6 -1.15 13.05 -1.6 12.45 -1.8" fill="#9eb3c7" fill-rule="evenodd" stroke="none"/>
      <path d="M-12.2 -2.1 L-12.15 -3.15 Q-12.05 -3.7 -10.45 -5.1 -8.9 -6.5 -5.45 -7.05 L0.0 -7.45 3.25 -7.35 6.4 -6.7 8.65 -6.1 10.35 -5.2 Q11.1 -4.65 11.9 -3.2 L12.45 -1.8 10.15 -2.65 Q8.1 -3.6 4.6 -4.05 L0.9 -4.4 -0.75 -4.45 Q-3.7 -4.45 -10.65 -2.8 L-12.2 -2.1" fill="#d5eaff" fill-rule="evenodd" stroke="none"/>
    </g>
    <g id="shape1">
      <path d="M-2.05 -7.45 L-1.95 -7.5 -0.8 -5.7 0.3 -3.85 0.75 -2.6 0.95 -1.7 0.9 -1.15 Q0.8 -0.75 0.7 -1.05 L0.65 -0.9 0.55 -0.55 0.5 -0.55 0.4 -0.45 -0.2 -0.35 -0.7 -0.45 -0.75 -0.55 -3.25 -3.85 -2.65 -4.75 Q-2.0 -5.95 -2.0 -7.15 L-2.05 -7.45" fill="#333333" fill-rule="evenodd" stroke="none"/>
      <path d="M-0.7 -0.45 L-0.2 -0.35 0.4 -0.45 0.5 -0.55 0.55 -0.55 0.65 -0.9 0.7 -1.05 Q0.8 -0.75 0.9 -1.15 L0.95 -1.7 0.75 -2.6 0.3 -3.85 -0.8 -5.7 -1.95 -7.5 -2.05 -7.45 -2.1 -7.45 -2.15 -7.65 Q-2.15 -7.9 -1.6 -7.95 -1.1 -8.05 0.0 -6.6 L1.75 -3.9 2.9 -0.65 Q3.45 1.4 3.25 2.65 3.0 3.85 2.55 4.25 L2.65 4.4 2.4 6.55 1.8 7.95 Q1.4 8.15 0.95 4.8 0.5 1.45 -0.7 -0.45" fill="#000000" fill-rule="evenodd" stroke="none"/>
      <path d="M4.1 -3.2 Q5.15 -1.2 5.0 1.6 4.85 4.35 4.5 5.5 3.85 7.7 2.25 7.7 1.2 7.7 1.35 6.55 1.35 5.65 1.75 4.3 L2.1 1.85 Q1.1 -5.6 -0.9 -6.75 L-1.3 -7.3 Q-1.85 -8.0 -1.95 -7.75 -1.55 -9.0 -0.6 -8.75 1.35 -8.25 2.2 -6.7 L4.1 -3.2" fill="#000000" fill-rule="evenodd" stroke="none"/>
    </g>
    <g id="shape2">
      <path d="M11.9 -7.45 Q12.65 -7.05 14.7 -5.25 L16.75 -3.25 16.7 -2.95 Q14.05 -5.15 11.6 -6.5 7.0 -9.1 -0.3 -9.1 -5.95 -9.1 -9.15 -7.75 -13.35 -5.95 -17.0 -3.4 L-17.05 -3.4 Q-16.05 -5.1 -12.95 -6.95 -8.0 -9.9 -1.35 -9.9 L7.1 -9.05 Q10.05 -8.4 11.9 -7.45" fill="#000000" fill-rule="evenodd" stroke="none"/>
    </g>
  </defs>
</svg>
