<?xml version="1.0" encoding="UTF-8" standalone="no"?>
<svg xmlns:ffdec="https://www.free-decompiler.com/flash" xmlns:xlink="http://www.w3.org/1999/xlink" ffdec:objectType="frame" height="54.35px" width="62.15px" xmlns="http://www.w3.org/2000/svg">
  <g transform="matrix(1.0, 0.0, 0.0, 1.0, 29.1, 40.45)">
    <use ffdec:characterId="2" height="47.2" transform="matrix(1.0, 0.0, 0.0, 1.0966, 10.25, -14.95)" width="45.7" xlink:href="#sprite0"/>
    <use ffdec:characterId="4" height="42.9" transform="matrix(1.2667, 0.0, 0.0, 1.1282, -19.65, -10.25)" width="16.35" xlink:href="#sprite1"/>
    <use ffdec:characterId="6" height="44.8" transform="matrix(1.0, 0.0, 0.0, 1.0, 4.25, -9.5)" width="34.65" xlink:href="#sprite2"/>
  </g>
  <defs>
    <g id="sprite0">
      <use ffdec:characterId="1" height="47.2" transform="matrix(1.0, 0.0, 0.0, 1.0, 0.0, 0.0)" width="45.7" xlink:href="#shape0"/>
    </g>
    <g id="shape0">
      <path d="M0.7 -22.4 L0.5 -22.3 Q-1.05 -21.55 -2.55 -21.1 L-8.15 -20.2 -13.75 -20.75 -19.55 -20.3 Q-17.3 -21.65 -14.65 -21.95 L-8.7 -21.6 -3.15 -21.4 Q-1.05 -21.65 0.7 -22.4 M4.4 -18.75 L9.7 -16.8 11.6 -15.85 Q13.45 -13.8 14.65 -11.4 15.95 -8.75 16.4 -5.95 L16.5 -5.35 15.1 -8.5 14.5 -9.8 14.2 -4.6 12.65 -4.5 12.25 -6.0 12.9 -6.25 12.4 -9.95 Q11.95 -12.8 9.85 -14.85 8.0 -17.0 5.45 -18.2 L4.4 -18.75 M16.95 6.05 L15.0 1.4 17.1 4.05 17.3 6.3 Q17.25 9.15 16.2 12.15 15.1 15.1 16.25 17.3 L15.3 16.55 Q15.1 14.95 15.25 13.9 15.35 12.8 15.55 12.3 L15.7 11.6 16.8 7.65 16.95 6.05 M18.55 -0.25 Q19.7 1.9 21.25 3.7 L22.0 4.45 21.0 4.7 Q19.8 2.8 19.0 0.85 L18.55 -0.25 M11.2 18.15 Q12.15 15.65 12.45 12.75 12.8 9.85 12.75 6.9 L13.05 8.8 Q13.7 11.7 13.6 14.55 L13.6 15.25 13.25 14.95 11.65 22.4 10.15 21.25 11.2 18.15" fill="#fffcbb" fill-rule="evenodd" stroke="none"/>
      <path d="M0.5 -22.3 Q-1.0 -20.3 -3.05 -19.25 -4.3 -18.5 -5.95 -18.1 L-7.0 -17.9 -8.15 -17.85 -5.9 -20.0 -14.35 -18.95 -13.9 -20.65 -13.75 -20.75 -8.15 -20.2 -2.55 -21.1 Q-1.05 -21.55 0.5 -22.3 M-2.2 -17.45 Q-0.45 -17.95 1.15 -18.85 L3.95 -18.9 4.1 -18.85 4.4 -18.75 5.45 -18.2 Q8.0 -17.0 9.85 -14.85 L8.2 -15.8 Q5.15 -17.5 1.75 -17.35 L1.15 -17.35 2.65 -16.55 3.15 -16.25 Q5.6 -14.4 7.35 -11.85 L8.05 -10.65 Q8.8 -8.7 8.65 -6.6 L5.5 -10.2 Q3.25 -12.55 0.6 -14.45 L-3.0 -16.75 -2.2 -17.45 M15.1 -8.5 L15.05 -6.4 14.85 -2.55 14.2 -4.6 14.5 -9.8 15.1 -8.5 M13.9 2.85 Q15.65 4.2 16.95 6.05 L16.8 7.65 15.7 11.6 15.65 11.2 Q15.25 9.15 14.45 7.25 L14.1 6.45 13.9 2.85 M20.6 4.8 L19.3 2.8 Q17.95 0.25 17.45 -2.5 L18.55 -0.25 19.0 0.85 Q19.8 2.8 21.0 4.7 L20.75 4.75 20.6 4.8 M12.55 4.5 L12.7 5.7 13.05 8.8 12.75 6.9 Q12.8 9.85 12.45 12.75 12.15 15.65 11.2 18.15 10.95 17.05 11.1 16.45 L11.8 11.6 Q12.25 8.25 11.1 2.05 12.0 3.1 12.55 4.5" fill="#ffdd1c" fill-rule="evenodd" stroke="none"/>
      <path d="M0.5 -22.3 L0.7 -22.4 0.6 -21.55 Q0.3 -20.4 -0.7 -20.05 L-0.4 -20.05 -3.05 -18.95 Q-8.2 -16.9 -13.75 -16.0 L-11.5 -18.9 -20.35 -15.35 -19.7 -18.9 -22.9 -14.7 Q-22.55 -17.5 -20.7 -19.35 L-19.55 -20.3 -13.75 -20.75 -13.9 -20.65 -14.35 -18.95 -5.9 -20.0 -8.15 -17.85 -7.0 -17.9 -5.95 -18.1 Q-4.3 -18.5 -3.05 -19.25 -1.0 -20.3 0.5 -22.3 M4.4 -18.75 L4.1 -18.85 3.95 -18.9 1.15 -18.85 Q-0.45 -17.95 -2.2 -17.45 L0.35 -20.1 5.9 -19.7 Q8.55 -18.75 9.85 -17.5 L11.6 -15.85 9.7 -16.8 4.4 -18.75 M-3.0 -16.75 L0.6 -14.45 Q3.25 -12.55 5.5 -10.2 L8.65 -6.6 Q8.8 -8.7 8.05 -10.65 L9.3 -7.45 9.6 -6.55 4.0 -6.2 5.5 -8.2 0.25 -8.9 2.8 -10.3 Q0.85 -11.1 -1.05 -12.0 -3.9 -13.3 -6.8 -14.1 L-4.8 -15.35 -3.0 -16.75 M3.15 -16.25 L2.65 -16.55 1.15 -17.35 1.75 -17.35 Q5.15 -17.5 8.2 -15.8 L9.85 -14.85 Q11.95 -12.8 12.4 -9.95 L12.9 -6.25 12.25 -6.0 Q11.55 -12.2 6.05 -15.15 L2.0 -17.3 3.15 -16.25 M14.2 -4.6 L14.85 -2.55 15.05 -6.4 15.1 -8.5 16.5 -5.35 17.45 -2.5 Q17.95 0.25 19.3 2.8 L20.6 4.8 17.1 4.05 15.0 1.4 16.95 6.05 Q15.65 4.2 13.9 2.85 L12.5 -1.9 13.95 -0.95 15.2 -0.3 13.6 -2.7 Q13.05 -3.55 12.65 -4.5 L14.2 -4.6 M13.05 8.8 L12.7 5.7 12.55 4.5 13.8 11.0 14.1 6.45 14.45 7.25 Q15.25 9.15 15.65 11.2 L15.7 11.6 15.55 12.3 Q15.35 12.8 15.25 13.9 15.1 14.95 15.3 16.55 L13.6 15.25 13.6 14.55 Q13.7 11.7 13.05 8.8 M11.1 16.45 Q10.95 17.05 11.2 18.15 L10.15 21.25 9.85 21.0 11.1 16.45" fill="#d5af18" fill-rule="evenodd" stroke="none"/>
      <path d="M-22.9 -14.7 L-19.7 -18.9 -20.35 -15.35 -11.5 -18.9 -13.75 -16.0 Q-8.2 -16.9 -3.05 -18.95 L-0.4 -20.05 0.35 -20.1 -2.2 -17.45 -3.0 -16.75 -4.8 -15.35 -6.8 -14.1 Q-3.9 -13.3 -1.05 -12.0 0.85 -11.1 2.8 -10.3 L0.25 -8.9 5.5 -8.2 4.0 -6.2 9.6 -6.55 9.3 -7.45 8.05 -10.65 7.35 -11.85 Q5.6 -14.4 3.15 -16.25 L2.0 -17.3 6.05 -15.15 Q11.55 -12.2 12.25 -6.0 L12.65 -4.5 Q13.05 -3.55 13.6 -2.7 L15.2 -0.3 13.95 -0.95 12.5 -1.9 13.9 2.85 14.1 6.45 13.8 11.0 12.55 4.5 Q12.0 3.1 11.1 2.05 12.25 8.25 11.8 11.6 L11.1 16.45 9.85 21.0 8.05 19.6 5.9 12.45 Q4.85 10.35 3.4 8.45 -0.05 4.05 -5.2 1.25 L-15.15 -4.45 Q-19.6 -7.05 -21.8 -11.65 L-22.35 -13.0 -22.45 -13.2 -22.9 -14.7" fill="#a67a00" fill-rule="evenodd" stroke="none"/>
      <path d="M6.95 -18.25 Q0.95 -21.05 -2.9 -19.45 L-0.15 -21.85 Q-2.5 -21.1 -3.8 -21.0 L-8.05 -21.4 -12.3 -21.95 Q-16.75 -21.95 -19.7 -19.75 -22.7 -17.25 -22.8 -14.7 -23.0 -17.9 -20.35 -20.2 -17.1 -23.05 -13.6 -23.0 -10.15 -23.0 -7.6 -22.15 L-2.45 -21.95 Q0.15 -22.6 1.3 -23.3 0.85 -21.5 -0.05 -20.35 11.05 -21.7 15.45 -10.2 17.1 -3.5 18.65 -0.15 19.65 2.0 21.05 3.2 L22.8 4.3 Q20.85 5.55 18.65 4.85 L17.7 4.65 Q17.9 6.8 17.55 8.85 17.25 10.85 16.3 12.65 15.95 13.3 15.85 14.1 15.6 16.05 16.75 17.9 15.45 17.5 14.45 16.5 L13.6 15.75 12.4 19.8 12.1 21.9 Q12.05 22.6 12.6 23.9 L10.6 22.2 Q9.95 21.6 7.65 20.1 L8.25 18.7 11.5 22.2 Q11.45 20.3 12.25 18.2 13.05 16.1 13.3 14.6 L13.6 12.25 Q13.45 14.15 14.5 15.65 15.2 16.6 15.4 16.55 14.85 15.3 15.35 13.75 L16.2 11.3 Q17.2 9.25 17.15 6.9 17.1 4.8 15.95 3.2 L15.85 3.1 16.0 3.2 Q17.9 4.3 19.95 4.65 L21.8 4.25 20.55 3.45 Q18.05 1.55 16.9 -2.7 L16.6 0.55 16.3 -1.6 14.5 -9.25 Q12.95 -15.5 6.95 -18.25" fill="#000000" fill-rule="evenodd" stroke="none"/>
    </g>
    <g id="sprite1">
      <use ffdec:characterId="3" height="42.9" transform="matrix(1.0, 0.0, 0.0, 1.0, 0.0, 0.0)" width="16.35" xlink:href="#shape1"/>
    </g>
    <g id="shape1">
      <path d="M0.7 -2.65 L0.5 -3.35 0.15 -4.75 -0.15 -6.2 -0.4 -7.6 -0.5 -9.05 -0.3 -10.9 0.1 -11.9 1.2 -13.45 2.3 -14.35 4.15 -14.4 1.8 -12.45 Q0.35 -9.85 1.0 -6.85 1.5 -4.5 0.9 -2.0 L0.7 -2.65 M-2.15 11.05 L0.35 15.1 3.0 18.85 0.2 15.9 -2.45 12.2 Q-1.2 14.95 -1.15 15.75 L-1.7 16.1 Q-2.4 13.95 -3.4 12.0 L-3.7 11.45 -4.1 10.75 -5.7 7.8 Q-6.35 6.75 -6.55 5.5 L-6.65 3.6 -6.6 3.05 -6.6 3.45 Q-6.45 5.35 -5.45 7.1 L-3.4 10.25 Q-4.25 8.3 -4.55 6.15 L-4.7 4.95 -4.45 6.25 -2.65 10.1 -2.15 11.05" fill="#fffcbb" fill-rule="evenodd" stroke="none"/>
      <path d="M6.5 -18.3 L5.4 -18.15 Q4.85 -17.9 4.3 -18.55 L3.4 -19.85 3.45 -20.4 Q3.85 -19.75 4.4 -19.15 5.0 -18.45 5.8 -18.65 L6.5 -18.3 M-2.95 5.85 L-3.9 6.6 -2.8 6.6 -2.1 8.9 0.2 13.3 -0.8 12.45 -2.15 11.05 -2.65 10.1 -4.45 6.25 -4.55 5.05 -3.1 -1.0 Q-3.5 2.85 -2.95 5.85 M-0.4 5.85 L-0.2 5.7 -0.15 6.05 Q0.35 8.85 2.4 10.9 L3.45 13.6 Q1.6 13.0 0.0 11.35 -1.6 9.65 -0.75 7.1 L-0.4 5.85 M3.0 -18.3 L3.25 -17.65 2.4 -17.55 Q0.25 -17.3 -1.35 -16.0 -2.9 -14.8 -3.65 -13.05 -2.9 -15.5 -1.7 -17.75 -0.4 -18.45 1.45 -18.5 L3.0 -18.3 M0.9 -2.0 Q1.5 -4.5 1.0 -6.85 0.35 -9.85 1.8 -12.45 1.45 -9.45 2.1 -6.65 L2.95 -1.2 Q3.1 0.45 0.75 2.35 2.05 0.3 1.3 -1.15 L0.9 -2.0" fill="#ffdd1c" fill-rule="evenodd" stroke="none"/>
      <path d="M3.4 -19.85 L4.3 -18.55 Q4.85 -17.9 5.4 -18.15 L6.5 -18.3 Q7.3 -18.3 7.8 -17.9 L8.15 -17.2 Q6.2 -17.2 4.8 -17.9 3.4 -18.65 3.4 -19.7 L3.4 -19.85 M3.25 -17.65 L3.8 -16.65 3.2 -16.4 1.75 -15.9 -0.05 -15.0 -0.85 -14.3 -1.65 -13.55 -2.3 -12.65 -2.85 -11.75 -3.4 -10.85 -3.9 -9.95 -4.35 -8.95 -4.7 -7.95 -4.95 -6.95 -5.2 -5.15 -5.25 -3.55 -5.35 -3.35 -5.9 -2.75 -6.45 -3.15 Q-7.35 -9.15 -5.65 -12.55 -3.8 -16.25 -1.7 -17.75 -2.9 -15.5 -3.65 -13.05 -2.9 -14.8 -1.35 -16.0 0.25 -17.3 2.4 -17.55 L3.25 -17.65 M-6.55 2.65 L-5.25 5.45 -4.1 -3.85 -3.0 -2.4 -2.4 -1.4 -1.9 -0.45 -1.55 0.7 -1.35 1.7 -1.45 2.7 -1.9 4.4 Q-2.2 5.2 -2.95 5.85 -3.5 2.85 -3.1 -1.0 L-4.55 5.05 -4.45 6.25 -4.7 4.95 -4.55 6.15 Q-4.25 8.3 -3.4 10.25 L-5.45 7.1 Q-6.45 5.35 -6.6 3.45 L-6.6 3.05 -6.55 2.7 -6.55 2.65 M-2.8 6.6 L-0.4 5.85 -0.75 7.1 Q-1.6 9.65 0.0 11.35 1.6 13.0 3.45 13.6 L4.05 15.0 1.5 14.8 Q3.3 17.55 3.1 18.95 L3.0 18.85 0.35 15.1 -2.15 11.05 -0.8 12.45 0.2 13.3 -2.1 8.9 -2.8 6.6 M-0.2 5.7 L0.45 5.2 1.95 8.25 1.95 9.1 2.4 10.9 Q0.35 8.85 -0.15 6.05 L-0.2 5.7 M0.7 -2.65 L0.9 -2.0 1.3 -1.15 Q2.05 0.3 0.75 2.35 3.1 0.45 2.95 -1.2 L2.1 -6.65 Q1.45 -9.45 1.8 -12.45 L4.15 -14.4 2.3 -14.35 Q4.6 -15.45 6.7 -14.9 L6.3 -13.9 5.7 -12.3 5.25 -10.9 5.15 -10.3 4.95 -8.25 4.9 -6.45 4.8 -4.6 4.75 -3.35 4.6 -2.0 4.3 -0.6 3.75 0.7 2.95 1.85 2.45 2.35 1.8 2.85 1.15 3.3 0.45 3.55 -0.35 3.7 -0.05 2.65 0.25 1.55 0.45 0.55 0.65 -0.55 0.7 -1.55 0.7 -2.65 M0.2 15.9 Q-0.5 15.4 -1.15 15.75 -1.2 14.95 -2.45 12.2 L0.2 15.9" fill="#d5af18" fill-rule="evenodd" stroke="none"/>
      <path d="M3.4 -19.7 Q3.4 -18.65 4.8 -17.9 6.2 -17.2 8.15 -17.2 L8.35 -16.7 8.65 -15.35 8.8 -14.25 8.85 -13.25 8.85 -12.15 8.6 -10.15 8.2 -8.45 7.75 -6.95 7.3 -5.55 6.75 -4.3 6.15 -3.05 5.45 -1.65 4.75 -0.25 3.8 1.4 2.15 3.55 2.15 3.65 1.95 8.25 0.45 5.2 -0.2 5.7 -0.4 5.85 -2.8 6.6 -3.9 6.6 -2.95 5.85 Q-2.2 5.2 -1.9 4.4 L-1.45 2.7 -1.35 1.7 -1.55 0.7 -1.9 -0.45 -2.4 -1.4 -3.0 -2.4 -4.1 -3.85 -5.25 5.45 -6.55 2.65 -6.3 0.8 -6.25 -1.1 -6.35 -2.45 -6.45 -3.15 -5.9 -2.75 -5.35 -3.35 -5.25 -3.55 -5.2 -5.15 -4.95 -6.95 -4.7 -7.95 -4.35 -8.95 -3.9 -9.95 -3.4 -10.85 -2.85 -11.75 -2.3 -12.65 -1.65 -13.55 -0.85 -14.3 -0.05 -15.0 1.75 -15.9 3.2 -16.4 3.8 -16.65 3.25 -17.65 3.0 -18.3 3.1 -18.3 3.4 -19.7 M2.3 -14.35 L1.2 -13.45 0.1 -11.9 -0.3 -10.9 -0.5 -9.05 -0.4 -7.6 -0.15 -6.2 0.15 -4.75 0.5 -3.35 0.7 -2.65 0.7 -1.55 0.65 -0.55 0.45 0.55 0.25 1.55 -0.05 2.65 -0.35 3.7 0.45 3.55 1.15 3.3 1.8 2.85 2.45 2.35 2.95 1.85 3.75 0.7 4.3 -0.6 4.6 -2.0 4.75 -3.35 4.8 -4.6 4.9 -6.45 4.95 -8.25 5.15 -10.3 5.25 -10.9 5.7 -12.3 6.3 -13.9 6.7 -14.9 Q4.6 -15.45 2.3 -14.35" fill="#a67a00" fill-rule="evenodd" stroke="none"/>
      <path d="M3.05 -18.5 L3.35 -21.45 Q4.25 -19.05 6.5 -18.55 4.75 -17.95 3.65 -20.1 3.3 -18.25 4.4 -16.9 2.6 -18.65 0.15 -17.9 -2.35 -17.2 -4.5 -13.65 -6.7 -10.1 -6.4 -7.0 -6.2 -3.9 -5.15 0.15 -5.25 -2.85 -4.9 -5.35 -4.55 -7.85 -3.65 -10.3 -2.8 -12.8 -0.4 -13.55 -2.55 -12.25 -3.4 -9.7 -4.25 -7.2 -4.5 -4.3 L-4.8 3.25 -5.9 -0.45 -6.35 2.05 Q-6.85 4.75 -5.9 7.2 -5.0 9.5 -3.35 11.35 -1.75 13.3 -1.5 15.8 L-0.65 15.1 -1.3 14.15 -0.35 14.95 Q1.5 16.65 2.95 18.5 L2.15 16.1 -0.55 11.55 Q2.3 14.85 4.0 14.9 L3.3 13.15 Q2.05 10.7 1.65 8.0 1.3 5.8 1.5 3.7 0.75 4.25 -0.05 4.6 L-1.6 5.35 -1.2 4.45 0.5 0.5 0.4 2.1 0.05 3.65 Q1.95 3.4 3.0 1.8 4.4 -0.25 4.95 -2.85 5.45 -5.1 7.05 -6.85 7.25 -6.3 7.1 -4.85 6.95 -3.4 5.5 -0.7 4.05 1.95 2.5 3.25 2.2 4.45 2.1 6.5 1.95 8.55 3.05 11.1 L5.2 16.35 2.1 14.9 2.45 15.45 Q3.6 17.25 3.45 19.5 L3.05 21.45 1.85 19.0 -0.5 15.8 -3.0 17.75 Q-2.5 15.6 -3.0 14.15 -3.55 12.7 -5.0 10.9 -6.5 9.1 -7.15 6.3 -7.8 3.5 -7.1 1.2 -6.45 -1.15 -7.05 -3.0 -7.65 -4.9 -7.45 -8.5 -7.3 -12.15 -5.3 -15.0 -3.35 -17.9 -1.1 -18.5 1.15 -19.15 3.05 -18.5 M0.15 -12.9 Q2.1 -14.95 3.8 -14.45 1.5 -14.65 0.05 -12.3 -1.4 -10.0 -0.3 -6.85 0.75 -3.75 0.4 -0.25 0.2 -4.4 -0.5 -6.1 -1.2 -7.85 -1.35 -9.25 -1.55 -10.7 0.15 -12.9" fill="#000000" fill-rule="evenodd" stroke="none"/>
    </g>
    <g id="sprite2">
      <use ffdec:characterId="5" height="44.8" transform="matrix(1.0, 0.0, 0.0, 1.0, 0.0, 0.0)" width="34.65" xlink:href="#shape2"/>
    </g>
    <g id="shape2">
      <path d="M-17.2 -13.0 L-17.15 -13.35 -17.0 -13.15 -17.2 -13.0" fill="#829417" fill-rule="evenodd" stroke="none"/>
      <path d="M-17.15 -13.35 L-17.15 -13.45 -17.0 -13.15 -17.15 -13.35" fill="#4b550d" fill-rule="evenodd" stroke="none"/>
      <path d="M-11.4 -15.75 L-10.5 -15.75 -9.6 -15.85 -8.25 -15.45 Q-2.65 -14.95 -0.9 -20.45 L-0.8 -19.25 Q-0.8 -18.3 -2.8 -15.75 L-2.25 -15.75 Q-4.5 -14.25 -7.0 -14.05 -9.4 -13.9 -11.4 -15.75 M-1.25 -15.65 L2.85 -14.95 -3.25 -13.95 -1.25 -15.65" fill="#f3c100" fill-rule="evenodd" stroke="none"/>
      <path d="M7.1 -13.1 L8.05 -12.6 11.85 -10.0 Q5.45 -10.2 -0.25 -12.75 3.45 -11.35 7.55 -12.2 L7.1 -13.1 M15.5 2.0 Q16.05 4.25 16.15 6.45 16.25 8.3 15.95 10.1 L14.0 13.05 14.35 6.7 Q14.25 3.15 13.3 -0.1 L15.5 2.0 M-17.05 -13.65 L-16.65 -14.25 -16.3 -14.55 -14.65 -15.3 Q-13.1 -13.9 -11.15 -12.75 L-14.35 -13.05 -17.05 -13.65 M-0.65 -2.85 L1.0 1.75 -3.0 0.1 0.0 5.6 -3.2 3.3 -7.6 -0.25 Q-10.4 -2.6 -12.15 -4.9 L-12.4 -6.1 -10.4 -4.7 Q-8.75 -3.5 -6.95 -2.65 -5.2 -1.75 -4.4 -1.85 L-4.75 -6.15 -1.9 -5.5 -2.45 -8.6 -1.25 -7.85 -0.25 -7.05 0.65 -6.1 Q2.2 -4.65 2.35 -2.5 L-1.9 -4.5 -0.8 -3.05 -0.65 -2.85" fill="#fffcbb" fill-rule="evenodd" stroke="none"/>
      <path d="M2.85 -14.95 Q3.55 -15.05 5.35 -14.0 L7.1 -13.1 7.55 -12.2 Q3.45 -11.35 -0.25 -12.75 5.45 -10.2 11.85 -10.0 L8.05 -12.6 14.85 -8.9 Q6.8 -6.8 -3.35 -13.9 L-3.25 -13.95 2.85 -14.95 M14.6 -0.45 Q15.15 0.5 15.5 2.0 L13.3 -0.1 Q14.25 3.15 14.35 6.7 L14.0 13.05 12.35 14.7 Q12.9 12.4 12.95 9.95 13.05 4.1 10.85 -1.35 L9.85 -3.65 14.6 -0.45 M-14.65 -15.3 L-14.25 -15.5 -8.35 -12.2 -10.55 -12.15 Q-12.65 -12.15 -14.35 -13.05 L-11.15 -12.75 Q-13.1 -13.9 -14.65 -15.3 M-9.6 -15.85 L-8.6 -16.2 Q-4.1 -17.15 -0.9 -20.45 -2.65 -14.95 -8.25 -15.45 L-9.6 -15.85 M-0.8 -3.05 L-1.9 -4.5 2.35 -2.5 Q2.2 -4.65 0.65 -6.1 L-0.25 -7.05 -1.25 -7.85 -2.45 -8.6 -1.9 -5.5 -4.75 -6.15 -4.4 -1.85 Q-5.2 -1.75 -6.95 -2.65 -8.75 -3.5 -10.4 -4.7 L-12.4 -6.1 -12.15 -4.9 Q-10.4 -2.6 -7.6 -0.25 L-3.2 3.3 0.0 5.6 -3.0 0.1 1.0 1.75 -0.65 -2.85 Q3.9 0.8 4.6 11.25 -2.25 5.95 -7.05 1.75 -11.85 -2.45 -15.5 -8.85 -13.0 -7.8 -10.0 -7.75 -7.0 -7.7 -3.35 -10.3 0.1 -9.2 2.7 -6.45 4.1 -5.1 4.9 -3.45 6.7 -0.05 6.25 3.75 L5.35 2.5 Q2.8 -0.95 -0.8 -3.05" fill="#ffdd1c" fill-rule="evenodd" stroke="none"/>
      <path d="M14.85 -8.9 L15.8 -8.4 12.25 -7.65 8.2 -7.3 Q5.65 -7.35 3.45 -8.1 1.4 -8.85 -0.15 -10.35 1.0 -9.1 2.45 -8.2 4.75 -6.85 7.2 -5.85 L12.7 -3.7 14.6 -0.45 9.85 -3.65 10.85 -1.35 Q13.05 4.1 12.95 9.95 12.9 12.4 12.35 14.7 L10.55 16.45 10.85 14.3 Q11.1 11.45 10.8 8.7 L10.0 3.3 8.55 -2.15 8.15 -3.3 7.75 -3.6 Q8.4 -0.45 8.65 2.7 8.9 5.5 8.5 8.4 8.25 10.15 7.3 11.65 6.7 9.8 5.15 7.6 5.75 9.0 5.65 10.45 L5.35 12.8 Q5.1 12.3 3.5 11.45 L-0.3 9.2 Q-2.15 8.05 -4.65 6.8 -7.15 5.5 -8.8 3.55 L-10.85 1.1 Q-12.35 -0.9 -14.8 -6.2 L-13.7 -1.65 -13.65 0.95 -13.7 0.9 -13.8 0.7 Q-15.05 -1.85 -15.7 -4.55 -16.35 -7.1 -16.55 -9.8 L-15.95 -9.5 Q-13.85 -8.2 -11.4 -8.8 -8.85 -9.4 -6.1 -10.65 L-11.55 -10.95 Q-14.6 -11.4 -17.0 -13.15 L-17.15 -13.45 -17.05 -13.65 -14.35 -13.05 Q-12.65 -12.15 -10.55 -12.15 L-8.35 -12.2 -14.25 -15.5 -12.1 -15.75 Q-10.2 -13.4 -7.1 -13.0 -5.05 -12.6 -3.35 -13.9 6.8 -6.8 14.85 -8.9 M-0.8 -3.05 Q2.8 -0.95 5.35 2.5 L6.25 3.75 Q6.7 -0.05 4.9 -3.45 4.1 -5.1 2.7 -6.45 0.1 -9.2 -3.35 -10.3 -7.0 -7.7 -10.0 -7.75 -13.0 -7.8 -15.5 -8.85 -11.85 -2.45 -7.05 1.75 -2.25 5.95 4.6 11.25 3.9 0.8 -0.65 -2.85 L-0.8 -3.05" fill="#d5af18" fill-rule="evenodd" stroke="none"/>
      <path d="M15.8 -8.4 Q15.7 -7.3 15.1 -6.75 13.65 -5.3 11.4 -5.55 L12.7 -3.7 7.2 -5.85 Q4.75 -6.85 2.45 -8.2 1.0 -9.1 -0.15 -10.35 1.4 -8.85 3.45 -8.1 5.65 -7.35 8.2 -7.3 L12.25 -7.65 15.8 -8.4 M15.95 10.1 L15.2 13.65 Q14.7 15.5 13.35 17.4 11.8 19.7 9.4 21.15 L9.3 20.5 8.8 18.2 Q7.9 16.25 6.05 15.05 L5.3 16.1 4.6 15.0 Q3.45 12.9 1.2 11.8 L-2.55 9.55 -6.1 6.9 -9.25 3.95 -12.15 0.4 -12.65 -0.2 -13.15 -0.9 -12.05 4.85 -13.6 3.0 Q-14.85 1.65 -15.5 -0.15 -16.55 -2.95 -17.0 -5.75 -17.5 -8.6 -17.2 -10.95 L-17.2 -13.0 -17.0 -13.15 Q-14.6 -11.4 -11.55 -10.95 L-6.1 -10.65 Q-8.85 -9.4 -11.4 -8.8 -13.85 -8.2 -15.95 -9.5 L-16.55 -9.8 Q-16.35 -7.1 -15.7 -4.55 -15.05 -1.85 -13.8 0.7 L-13.7 0.9 -13.65 0.95 -13.7 -1.65 -14.8 -6.2 Q-12.35 -0.9 -10.85 1.1 L-8.8 3.55 Q-7.15 5.5 -4.65 6.8 -2.15 8.05 -0.3 9.2 L3.5 11.45 Q5.1 12.3 5.35 12.8 L5.65 10.45 Q5.75 9.0 5.15 7.6 6.7 9.8 7.3 11.65 8.25 10.15 8.5 8.4 8.9 5.5 8.65 2.7 8.4 -0.45 7.75 -3.6 L8.15 -3.3 8.55 -2.15 10.0 3.3 10.8 8.7 Q11.1 11.45 10.85 14.3 L10.55 16.45 12.35 14.7 14.0 13.05 15.95 10.1 M-12.1 -15.75 L-11.4 -15.75 Q-9.4 -13.9 -7.0 -14.05 -4.5 -14.25 -2.25 -15.75 L-1.25 -15.65 -3.25 -13.95 -3.35 -13.9 Q-5.05 -12.6 -7.1 -13.0 -10.2 -13.4 -12.1 -15.75" fill="#a67a00" fill-rule="evenodd" stroke="none"/>
      <path d="M-0.3 -22.4 L-0.3 -21.6 Q-0.3 -18.35 -2.15 -15.75 L-0.6 -15.7 Q2.2 -15.65 4.8 -14.75 7.85 -13.7 10.45 -11.85 13.6 -9.65 17.35 -8.7 L16.95 -8.15 Q15.25 -5.75 12.15 -5.4 L13.3 -3.55 Q14.45 -1.7 15.05 0.15 15.95 2.75 16.2 5.75 16.35 8.65 15.75 11.65 15.0 15.7 12.65 19.1 11.05 21.3 8.45 22.4 L8.7 21.55 Q9.55 17.7 6.35 15.1 L5.55 16.5 4.5 17.4 4.4 16.75 Q3.85 13.9 1.1 12.2 L-3.15 9.85 Q-6.3 8.45 -8.6 5.95 -11.35 3.05 -12.9 -0.55 L-11.65 5.25 -12.2 4.9 Q-14.1 3.3 -15.3 0.95 -16.55 -1.55 -16.85 -4.6 L-17.25 -10.2 -17.1 -8.45 Q-16.7 -4.9 -15.7 -1.75 -14.75 1.3 -12.7 3.9 -13.6 0.7 -13.3 -2.6 L-12.55 -1.3 -9.4 3.45 Q-7.75 5.75 -5.55 7.25 -2.9 9.15 -0.15 10.6 3.35 12.35 5.3 15.65 L5.65 14.95 Q6.65 12.8 6.2 10.25 7.65 12.0 6.7 14.2 L7.2 14.8 Q9.2 17.2 9.65 20.15 L10.9 19.2 Q13.55 17.1 14.35 13.9 15.2 10.6 15.45 7.25 15.7 3.55 14.5 0.0 13.3 -3.3 10.75 -5.55 13.65 -6.15 15.65 -8.3 L13.55 -9.1 8.45 -12.05 Q6.05 -13.5 3.3 -14.35 L-3.5 -14.6 Q-1.75 -16.9 -1.35 -20.1 -1.95 -18.65 -3.3 -18.0 -6.8 -16.2 -12.0 -15.4 -9.75 -14.4 -8.7 -13.5 -6.2 -11.6 -2.9 -11.1 -6.55 -9.1 -10.65 -9.45 -13.8 -9.65 -15.9 -12.0 -14.4 -10.95 -12.8 -10.45 -9.4 -9.4 -6.35 -11.1 L-7.1 -11.7 Q-10.45 -14.05 -14.1 -15.55 -15.75 -14.7 -17.3 -13.3 -16.5 -15.75 -14.0 -16.15 -11.8 -15.85 -9.7 -16.15 -6.8 -16.9 -4.15 -18.4 -1.7 -19.75 -0.3 -22.4" fill="#000000" fill-rule="evenodd" stroke="none"/>
    </g>
  </defs>
</svg>
