<?xml version="1.0" encoding="UTF-8" standalone="no"?>
<svg xmlns:ffdec="https://www.free-decompiler.com/flash" xmlns:xlink="http://www.w3.org/1999/xlink" ffdec:objectType="frame" height="58.15px" width="53.85px" xmlns="http://www.w3.org/2000/svg">
  <g transform="matrix(1.0, 0.0, 0.0, 1.0, 28.4, 29.45)">
    <use ffdec:characterId="5" height="58.15" transform="matrix(1.0, 0.0, 0.0, 1.0, -1.45, -0.35)" width="53.85" xlink:href="#sprite0"/>
  </g>
  <defs>
    <g id="sprite0">
      <use ffdec:characterId="4" height="58.15" transform="matrix(1.0, 0.0, 0.0, 1.0, 0.0, 0.0)" width="53.85" xlink:href="#shape0"/>
    </g>
    <g id="shape0">
      <path d="M11.25 -24.15 L11.2 -24.15 11.2 -24.2 11.25 -24.15 M11.65 -24.05 L11.65 -24.0 11.6 -24.0 11.3 -24.15 11.65 -24.05 M16.8 10.75 L16.8 10.8 16.75 10.8 16.8 10.75 M21.1 3.8 L21.2 3.9 21.05 3.8 20.95 3.7 21.1 3.8 M-22.4 -9.55 L-22.4 -9.5 -22.45 -9.5 -22.45 -9.55 -22.4 -9.55" fill="#a83113" fill-rule="evenodd" stroke="none"/>
      <path d="M-3.8 -16.35 L-3.15 -16.45 Q-2.75 -16.45 -3.0 -16.3 L-3.55 -16.2 -3.8 -16.35" fill="#f2e0c8" fill-rule="evenodd" stroke="none"/>
      <path d="M11.7 -26.5 L11.7 -26.55 11.75 -26.55 11.7 -26.5 M-19.35 4.5 L-19.4 4.45 -19.35 4.5" fill="#692616" fill-rule="evenodd" stroke="none"/>
      <path d="M-17.25 -22.75 L-17.2 -22.8 -17.1 -22.85 Q-15.55 -24.25 -13.4 -25.35 L-9.0 -27.35 Q-6.7 -28.25 -3.95 -28.7 L0.2 -29.0 2.15 -28.85 Q14.85 -25.75 6.6 -18.7 4.9 -17.35 4.55 -17.35 L-2.15 -16.5 Q-7.8 -15.55 -7.35 -15.0 -7.1 -14.65 -7.1 -14.95 6.95 -16.2 12.0 -13.65 14.95 -11.1 15.35 -8.9 15.75 -6.3 14.85 -6.3 L9.85 -7.25 2.15 -7.55 -1.6 -6.9 Q-5.6 -6.4 -5.6 -5.6 -5.6 -4.95 -4.45 -4.95 L-0.65 -5.35 7.4 -5.7 Q11.75 -5.65 16.55 -3.5 L17.75 -2.95 17.8 -2.25 16.5 -1.0 15.95 -0.45 15.6 -0.65 11.75 -2.5 8.35 -3.55 4.35 -4.25 1.5 -4.4 -0.4 -4.35 -4.1 -4.15 -8.65 -3.35 Q-10.9 -2.75 -12.95 -1.65 L-16.15 0.3 -18.25 2.2 -19.35 3.3 -19.4 3.6 -19.4 3.7 -19.35 4.5 -19.35 4.55 -19.4 4.6 -19.95 5.3 Q-20.7 6.4 -20.6 6.75 L-21.25 5.9 -21.85 2.4 -22.5 -2.85 Q-22.65 -4.25 -20.25 -8.85 L-19.6 -9.25 -19.6 -9.3 -16.55 -11.5 -19.6 -12.15 Q-19.85 -14.65 -18.65 -17.6 -17.8 -19.65 -15.65 -22.25 L-13.7 -24.6 -13.75 -24.95 Q-15.65 -24.15 -17.15 -22.7 L-17.2 -22.75 -17.25 -22.75 M-19.35 4.5 L-19.4 4.45 -19.35 4.5 M-3.95 -26.0 Q-6.6 -26.3 -9.25 -25.05 L-10.3 -24.45 Q-11.9 -23.85 -13.4 -22.5 -15.85 -20.25 -17.15 -17.65 -18.45 -15.1 -18.3 -13.3 L-13.7 -15.35 -12.15 -16.05 -9.05 -17.7 Q-6.7 -19.05 -4.8 -21.45 -2.9 -23.9 -3.05 -24.15 L-3.15 -24.95 -3.95 -26.0 M-20.4 -4.8 Q-20.75 -1.8 -20.4 -0.25 -20.15 1.3 -19.95 0.55 -19.75 -0.2 -14.45 -3.9 -9.15 -7.65 -3.5 -8.15 -5.05 -11.45 -6.25 -12.75 -7.55 -14.1 -13.8 -10.95 -20.1 -7.85 -20.4 -4.8" fill="#6a4392" fill-rule="evenodd" stroke="none"/>
      <path d="M2.15 -28.85 L3.25 -28.85 5.7 -28.45 8.45 -27.7 8.5 -27.7 11.25 -26.7 11.25 -26.65 11.3 -26.65 11.65 -26.5 11.7 -26.5 11.75 -26.55 13.95 -25.5 15.15 -24.9 Q16.45 -24.1 17.75 -22.95 L20.2 -20.4 22.2 -17.4 23.9 -14.05 Q24.7 -12.2 24.95 -7.45 24.65 -6.5 25.7 -5.1 L25.7 -5.05 25.75 -5.0 26.35 -4.05 Q26.95 -2.95 26.7 -0.8 26.45 1.25 25.45 3.6 24.45 5.95 23.75 6.8 L22.65 8.0 21.0 9.35 19.2 10.8 Q17.55 12.05 17.15 12.1 L15.75 11.8 15.65 11.8 17.0 10.7 Q20.2 8.15 20.95 6.4 21.9 4.3 21.5 3.35 L21.4 3.25 21.2 3.15 20.05 2.1 19.3 1.55 18.55 1.05 16.65 -0.1 Q16.35 -0.25 16.15 -0.35 L15.95 -0.45 16.5 -1.0 17.8 -2.25 17.75 -2.95 16.55 -3.5 Q11.75 -5.65 7.4 -5.7 L-0.65 -5.35 -4.45 -4.95 Q-5.6 -4.95 -5.6 -5.6 -5.6 -6.4 -1.6 -6.9 L2.15 -7.55 9.85 -7.25 14.85 -6.3 Q15.75 -6.3 15.35 -8.9 14.95 -11.1 12.0 -13.65 6.95 -16.2 -7.1 -14.95 -7.1 -14.65 -7.35 -15.0 -7.8 -15.55 -2.15 -16.5 L4.55 -17.35 Q4.9 -17.35 6.6 -18.7 14.85 -25.75 2.15 -28.85 M-19.4 3.7 Q-19.45 4.25 -18.45 6.25 -17.45 8.25 -14.8 10.45 L-16.75 10.05 Q-17.6 9.45 -18.55 8.95 L-18.65 8.85 -20.05 8.6 -22.35 7.1 -22.9 5.1 -24.3 -1.25 -24.75 -4.8 Q-22.95 -6.15 -23.15 -8.0 L-23.2 -9.05 -23.2 -9.1 -23.1 -11.0 -23.05 -11.0 -23.05 -11.05 -23.1 -11.05 -22.9 -12.35 Q-22.5 -14.65 -21.7 -16.45 L-21.5 -16.8 -19.6 -20.1 -17.25 -22.75 -17.2 -22.75 -17.15 -22.7 Q-15.65 -24.15 -13.75 -24.95 L-13.7 -24.6 -15.65 -22.25 Q-17.8 -19.65 -18.65 -17.6 -19.85 -14.65 -19.6 -12.15 L-16.55 -11.5 -19.6 -9.3 -19.6 -9.25 -20.25 -8.85 Q-22.65 -4.25 -22.5 -2.85 L-21.85 2.4 -21.25 5.9 -20.6 6.75 Q-20.7 6.4 -19.95 5.3 L-19.4 4.6 -19.35 4.55 -19.35 4.5 -19.4 3.7" fill="#402857" fill-rule="evenodd" stroke="none"/>
      <path d="M-3.95 -26.0 L-3.15 -24.95 -3.05 -24.15 Q-2.9 -23.9 -4.8 -21.45 -6.7 -19.05 -9.05 -17.7 L-12.15 -16.05 -13.7 -15.35 -18.3 -13.3 Q-18.45 -15.1 -17.15 -17.65 -15.85 -20.25 -13.4 -22.5 -11.9 -23.85 -10.3 -24.45 L-9.25 -25.05 Q-6.6 -26.3 -3.95 -26.0 M-20.4 -4.8 Q-20.1 -7.85 -13.8 -10.95 -7.55 -14.1 -6.25 -12.75 -5.05 -11.45 -3.5 -8.15 -9.15 -7.65 -14.45 -3.9 -19.75 -0.2 -19.95 0.55 -20.15 1.3 -20.4 -0.25 -20.75 -1.8 -20.4 -4.8" fill="#a081c2" fill-rule="evenodd" stroke="none"/>
      <path d="M-6.15 -18.55 L-6.15 -18.65 -6.1 -18.55 -6.15 -18.55" fill="#f2e0c8" fill-rule="evenodd" stroke="none"/>
      <path d="M1.75 -17.25 L3.85 -17.95 3.85 -17.65 3.8 -17.15 2.9 -17.1 2.35 -16.95 2.2 -17.0 1.8 -17.15 1.75 -17.25 M4.55 -18.05 L6.0 -18.9 6.65 -19.3 6.7 -19.2 6.75 -19.15 6.75 -19.1 6.8 -19.0 6.9 -18.45 6.9 -18.3 6.9 -18.2 6.6 -17.8 5.35 -17.9 4.55 -17.5 4.5 -17.5 4.5 -17.6 4.5 -17.75 4.45 -17.8 4.35 -18.15 4.55 -17.8 4.55 -18.05 M7.05 -19.8 L8.15 -20.65 Q9.8 -22.4 9.75 -24.75 L9.8 -25.8 9.7 -27.3 10.9 -26.8 11.35 -25.05 Q11.65 -23.0 8.4 -20.45 8.65 -19.85 9.15 -19.85 L9.3 -19.6 9.15 -19.35 8.6 -18.85 8.45 -18.7 7.95 -18.2 Q7.6 -18.2 7.5 -18.7 L7.5 -18.95 Q7.1 -19.15 7.05 -19.8 M4.55 -15.4 L6.55 -16.5 Q8.1 -17.3 9.05 -18.3 9.15 -19.2 10.4 -19.2 11.7 -19.2 11.7 -18.0 L11.6 -17.45 Q12.6 -17.4 12.6 -16.35 12.6 -15.05 11.05 -15.05 10.3 -15.05 9.9 -15.35 L7.85 -15.05 4.55 -15.4 M10.8 -7.25 L10.75 -7.05 10.5 -6.5 9.1 -6.4 Q8.05 -6.7 8.15 -7.3 L7.95 -7.65 10.8 -7.25 M-5.1 -15.2 L-6.85 -15.7 -6.75 -15.75 -5.65 -15.85 -3.25 -16.5 -0.8 -15.1 -5.1 -15.2" fill="#b69d85" fill-rule="evenodd" stroke="none"/>
      <path d="M-3.25 -23.95 Q-3.7 -22.75 -5.45 -20.6 L-5.35 -20.55 -5.35 -20.5 -6.0 -20.9 -6.35 -21.15 Q-8.85 -22.9 -8.6 -25.25 -7.75 -26.05 -6.85 -25.8 L-6.85 -25.7 Q-6.85 -23.55 -5.05 -23.7 L-3.25 -23.95 M-4.0 -8.9 L-4.45 -8.65 -4.85 -8.35 -5.3 -8.15 -5.65 -7.9 -8.75 -7.15 -8.8 -7.25 -9.15 -7.25 -9.7 -7.65 -10.4 -8.5 -10.6 -8.85 -10.2 -9.6 -8.05 -9.75 -6.4 -10.3 Q-4.9 -10.7 -5.0 -10.8 L-4.95 -10.8 -4.35 -9.85 -4.0 -8.9" fill="#ffffff" fill-rule="evenodd" stroke="none"/>
      <path d="M-3.25 -23.95 L-2.95 -24.1 -3.2 -24.1 -3.05 -24.15 -3.0 -24.2 Q1.15 -26.9 0.15 -29.05 L0.7 -29.05 2.65 -28.95 Q2.35 -28.4 2.65 -27.55 2.9 -26.7 3.65 -25.2 4.35 -23.75 6.05 -23.55 L8.35 -23.6 9.75 -24.75 Q9.8 -22.4 8.15 -20.65 L7.05 -19.8 6.55 -20.4 6.35 -20.4 6.0 -20.0 6.65 -19.3 6.0 -18.9 4.55 -18.05 4.05 -19.9 3.55 -19.85 3.5 -19.85 3.85 -17.95 1.75 -17.25 1.75 -17.7 1.75 -18.8 1.6 -19.95 1.25 -19.95 1.0 -18.95 0.55 -16.95 0.35 -16.95 0.0 -16.95 -0.95 -16.95 Q-1.7 -16.95 -1.45 -17.7 L-1.0 -19.2 Q-0.8 -19.75 -0.9 -20.1 L-1.35 -20.3 -1.4 -20.3 -1.65 -19.2 Q-2.05 -17.4 -2.55 -17.25 -3.0 -17.15 -3.8 -17.9 L-2.8 -19.9 -2.8 -20.1 -3.5 -20.45 -3.55 -20.5 -3.65 -20.45 -4.5 -18.3 Q-4.95 -18.3 -5.75 -19.45 L-5.35 -20.25 -5.2 -20.45 -5.35 -20.55 -5.45 -20.6 Q-3.7 -22.75 -3.25 -23.95 M1.45 -23.45 L1.9 -22.35 Q2.3 -21.65 3.05 -21.65 3.55 -21.65 3.55 -22.3 2.25 -25.4 1.25 -25.15 0.8 -24.9 0.0 -23.65 L-0.7 -22.3 Q-0.65 -21.65 0.05 -21.65 0.65 -21.65 1.45 -23.45 M-0.8 -15.1 L1.35 -14.0 4.55 -15.4 7.85 -15.05 6.55 -14.55 Q4.35 -13.65 3.4 -12.95 6.85 -10.95 8.2 -10.4 L9.9 -9.85 11.25 -9.9 Q12.15 -9.9 12.55 -9.25 12.95 -8.65 12.65 -8.4 L12.25 -8.1 11.8 -7.85 Q11.15 -7.65 10.8 -7.25 L7.95 -7.65 5.3 -9.75 1.85 -11.95 1.1 -12.2 -0.4 -11.35 -4.0 -8.95 -4.0 -8.9 -4.35 -9.85 -4.95 -10.8 -0.45 -13.1 -4.4 -15.0 -5.1 -15.2 -0.8 -15.1 M-4.85 -8.35 L-5.5 -7.95 -5.35 -7.95 -5.55 -7.9 -5.85 -7.65 Q-5.85 -6.3 -7.3 -6.3 -8.55 -6.3 -8.75 -7.15 L-5.65 -7.9 -5.3 -8.15 -4.85 -8.35 M-6.85 -15.7 L-8.35 -15.65 Q-9.2 -15.25 -9.75 -15.85 -10.25 -16.4 -10.25 -16.8 -10.25 -17.8 -8.9 -17.9 -8.9 -19.05 -7.35 -19.05 -6.45 -19.05 -6.15 -18.55 L-6.1 -18.55 Q-5.05 -17.65 -3.25 -16.5 L-5.65 -15.85 -6.75 -15.75 -6.85 -15.7 M-8.6 -25.25 L-8.65 -25.25 -8.55 -25.7 -8.5 -26.7 -8.25 -27.65 -6.4 -28.2 Q-6.85 -27.85 -6.85 -25.8 -7.75 -26.05 -8.6 -25.25" fill="#d9c7bf" fill-rule="evenodd" stroke="none"/>
      <path d="M15.15 -25.1 Q18.75 -23.05 21.7 -18.75 24.55 -14.45 25.05 -9.7 25.35 -6.4 25.05 -6.35 27.1 -3.8 26.85 -2.55 L26.85 -1.3 Q27.0 1.9 23.85 7.3 L17.35 12.25 15.45 11.8 16.95 10.85 17.65 11.0 Q22.3 8.1 24.0 5.1 25.65 2.0 25.65 -2.75 24.4 -6.1 22.15 -8.65 L23.8 -7.55 Q23.55 -11.95 21.15 -16.75 18.95 -21.2 14.95 -23.9 11.5 -26.2 7.45 -27.55 3.45 -28.95 -3.5 -28.55 L-4.3 -28.7 Q1.95 -29.55 6.1 -28.55 10.95 -27.45 15.15 -25.1 M6.8 -3.65 L-2.85 -4.05 Q-8.4 -3.55 -10.35 -2.7 -13.4 -1.45 -16.1 0.45 -17.65 1.6 -19.2 3.4 -19.3 6.05 -17.45 8.2 L-18.3 7.3 -19.75 5.55 -20.05 4.95 -20.65 6.05 Q-21.0 4.2 -18.4 1.25 -15.8 -1.75 -11.45 -4.2 -7.2 -6.7 -2.35 -7.5 2.55 -8.35 7.75 -7.5 -0.6 -7.6 -6.55 -5.05 L9.85 -4.5 Q14.2 -3.5 17.95 -1.25 21.7 1.0 23.35 5.15 L22.6 4.45 21.1 6.45 20.05 7.4 Q21.5 5.95 21.4 3.55 17.65 0.25 14.3 -1.25 10.9 -2.8 6.8 -3.65 M-22.0 -7.3 Q-18.95 -10.4 -14.95 -12.6 -12.55 -13.85 -10.0 -14.45 -13.55 -13.15 -16.7 -11.25 -19.75 -9.2 -22.1 -6.05 L-22.95 -4.65 -23.15 -4.05 Q-23.5 0.75 -22.05 5.75 -16.85 10.95 -15.35 9.9 L-13.3 11.5 -16.85 11.15 -22.55 7.05 Q-24.95 -2.65 -24.95 -4.95 L-23.3 -6.75 Q-23.9 -9.45 -23.0 -13.1 -22.0 -17.65 -19.05 -21.2 -15.4 -25.6 -8.4 -27.6 -14.2 -24.85 -16.75 -22.55 -19.35 -20.25 -20.7 -17.2 -22.1 -14.15 -22.15 -9.4 L-22.0 -7.3" fill="#000000" fill-rule="evenodd" stroke="none"/>
      <path d="M-15.2 10.1 L-14.15 10.9 -9.85 13.25 -10.55 12.95 -10.45 13.0 -10.45 13.05 Q-10.6 14.1 -12.35 17.15 L-14.25 20.4 -15.0 21.65 -13.8 19.05 -12.2 15.65 -11.9 14.7 Q-11.35 13.5 -11.6 13.15 L-12.3 13.25 -15.25 15.45 -15.95 15.95 Q-17.7 17.25 -16.7 22.6 -15.8 27.95 -14.7 27.7 L-12.85 21.15 -11.35 17.45 -11.3 17.2 Q-10.1 14.65 -9.85 13.25 L-9.4 13.45 -9.15 13.55 -8.75 13.75 -8.8 13.8 -10.95 18.35 Q-12.4 21.5 -13.15 25.0 -14.0 28.55 -14.5 28.95 -15.0 29.25 -15.55 28.75 -16.05 28.2 -16.85 25.85 -17.7 23.5 -17.9 20.45 L-17.95 17.0 -17.5 16.4 Q-17.35 16.1 -12.75 12.75 L-13.05 12.6 -13.05 12.55 -13.1 12.4 Q-13.35 11.85 -13.7 11.65 L-13.85 11.6 -14.9 11.45 -15.8 11.3 -15.2 10.1" fill="#000000" fill-rule="evenodd" stroke="none"/>
      <path d="M-15.25 15.45 L-12.3 13.25 -11.6 13.15 Q-11.35 13.5 -11.9 14.7 L-12.2 15.65 -13.8 19.05 -15.0 21.65 -14.25 20.4 -12.35 17.15 Q-10.6 14.05 -10.45 13.0 -10.05 13.15 -9.7 13.35 L-11.3 17.2 -11.2 16.2 -11.3 16.0 -11.35 15.95 -11.6 16.0 -12.3 17.55 -13.1 18.8 -13.85 20.1 -14.7 21.45 -15.75 22.6 Q-16.2 22.7 -16.25 22.25 L-15.45 19.55 -14.35 16.9 -13.25 15.0 -13.3 14.85 -13.4 14.55 Q-14.05 14.75 -15.1 15.45 L-15.25 15.45 M-13.25 12.0 L-12.4 12.05 -12.3 12.1 -11.8 12.45 -12.85 12.45 -13.25 12.0" fill="#402857" fill-rule="evenodd" stroke="none"/>
      <path d="M-15.25 15.45 L-15.1 15.45 Q-14.05 14.75 -13.4 14.55 L-13.3 14.85 -13.25 15.0 -14.35 16.9 -15.45 19.55 -16.25 22.25 Q-16.2 22.7 -15.75 22.6 L-14.7 21.45 -13.85 20.1 -13.1 18.8 -12.3 17.55 -11.6 16.0 -11.35 15.95 -11.3 16.0 -11.2 16.2 -11.3 17.2 -11.35 17.45 -12.85 21.15 -14.7 27.7 Q-15.8 27.95 -16.7 22.6 -17.7 17.25 -15.95 15.95 L-15.25 15.45" fill="#6a4392" fill-rule="evenodd" stroke="none"/>
      <path d="M-13.75 11.25 L-11.75 12.5 -14.45 19.0 Q-15.0 20.1 -18.8 21.45 L-20.8 22.2 Q-26.9 24.2 -26.95 22.95 -27.05 21.55 -26.35 20.55 L-24.65 16.7 Q-23.5 13.85 -21.6 13.0 L-21.4 12.85 -16.2 11.25 -13.75 11.25 M-15.15 17.5 L-15.0 17.45 -14.3 16.0 -14.05 15.1 -14.9 15.25 -21.05 18.25 -19.45 16.8 Q-17.7 15.6 -15.55 15.0 L-14.6 14.7 -14.2 14.55 -13.3 13.85 -12.7 12.35 -12.9 12.0 -12.95 12.0 -13.4 11.95 -16.4 12.5 -16.6 12.5 -16.8 12.5 -16.95 12.5 Q-18.5 12.85 -19.85 13.35 L-20.9 13.75 Q-21.6 13.95 -22.2 14.7 L-22.55 14.95 Q-24.15 16.75 -25.5 21.55 -26.25 23.0 -21.25 21.1 L-20.15 20.7 -19.15 20.35 Q-16.1 18.85 -15.1 17.55 L-15.1 17.5 -15.15 17.5" fill="#000000" fill-rule="evenodd" stroke="none"/>
      <path d="M-15.15 17.5 L-15.1 17.5 -15.1 17.55 -15.15 17.5" fill="#a83113" fill-rule="evenodd" stroke="none"/>
      <path d="M-16.4 12.5 L-13.4 11.95 -12.95 12.0 -12.9 12.0 -12.7 12.35 -13.3 13.85 -14.2 14.55 -14.6 14.7 -15.55 15.0 Q-17.7 15.6 -19.45 16.8 L-21.05 18.25 -14.9 15.25 -14.05 15.1 -14.3 16.0 -15.0 17.45 -15.15 17.5 Q-16.65 17.65 -18.0 18.15 L-22.05 18.7 Q-21.2 17.3 -19.7 16.25 L-14.7 13.15 -15.0 12.95 Q-15.65 12.4 -16.4 12.5" fill="#402857" fill-rule="evenodd" stroke="none"/>
      <path d="M-15.1 17.55 Q-16.1 18.85 -19.15 20.35 L-20.15 20.7 -21.25 21.1 Q-26.25 23.0 -25.5 21.55 -24.15 16.75 -22.55 14.95 L-22.2 14.7 Q-21.6 13.95 -20.9 13.75 L-19.85 13.35 Q-18.5 12.85 -16.95 12.5 L-16.8 12.5 -16.6 12.5 -16.4 12.5 Q-15.65 12.4 -15.0 12.95 L-14.7 13.15 -19.7 16.25 Q-21.2 17.3 -22.05 18.7 L-18.0 18.15 Q-16.65 17.65 -15.15 17.5 L-15.1 17.55" fill="#6a4392" fill-rule="evenodd" stroke="none"/>
    </g>
  </defs>
</svg>
