<?xml version="1.0" encoding="UTF-8" standalone="no"?>
<svg xmlns:ffdec="https://www.free-decompiler.com/flash" xmlns:xlink="http://www.w3.org/1999/xlink" ffdec:objectType="frame" height="56.95px" width="69.0px" xmlns="http://www.w3.org/2000/svg">
  <g transform="matrix(1.0, 0.0, 0.0, 1.0, 34.5, 39.8)">
    <use ffdec:characterId="2" height="21.8" transform="matrix(1.0, 0.0, 0.0, 1.0, -29.95, -3.3)" width="23.2" xlink:href="#sprite0"/>
    <use ffdec:characterId="2" height="21.8" transform="matrix(-1.0, 0.0, 0.0, 1.0, 29.35, -3.3)" width="23.2" xlink:href="#sprite0"/>
    <use ffdec:characterId="4" height="39.25" transform="matrix(1.0, 0.0, 0.0, 1.0, -34.5, -37.35)" width="43.9" xlink:href="#sprite1"/>
    <use ffdec:characterId="6" height="17.75" transform="matrix(1.0, 0.0, 0.0, 1.0, 3.35, -39.8)" width="10.75" xlink:href="#sprite2"/>
    <use ffdec:characterId="8" height="34.1" transform="matrix(1.0, 0.0, 0.0, 1.0, 6.9, -32.0)" width="29.35" xlink:href="#sprite3"/>
    <use ffdec:characterId="11" height="35.6" transform="matrix(1.0732, 0.0, 0.0, 1.0242, -21.55, -27.55)" width="13.35" xlink:href="#sprite4"/>
    <use ffdec:characterId="13" height="39.65" transform="matrix(1.0549, 0.0, 0.0, 0.9868, -21.55, -26.9)" width="30.45" xlink:href="#sprite5"/>
  </g>
  <defs>
    <g id="sprite0">
      <use ffdec:characterId="1" height="21.8" transform="matrix(1.0, 0.0, 0.0, 1.0, 0.0, 0.0)" width="23.2" xlink:href="#shape0"/>
    </g>
    <g id="shape0">
      <path d="M7.9 -1.25 L8.45 -0.55 8.45 2.1 Q8.75 4.95 9.2 6.55 9.9 8.95 11.45 10.9 13.25 13.25 16.35 15.05 18.1 16.05 19.7 16.65 L21.75 17.4 22.0 17.45 22.8 17.75 22.85 18.15 Q22.85 18.8 22.2 18.85 L22.15 18.9 21.15 19.45 Q20.2 19.45 17.9 17.65 L15.25 15.85 15.25 16.2 15.4 16.95 15.25 17.6 14.65 18.05 Q13.5 18.05 12.05 16.35 10.85 14.95 10.6 14.15 10.05 12.7 10.05 12.0 9.95 11.1 9.6 11.0 L7.7 10.4 7.4 10.5 Q5.9 10.5 3.7 9.2 1.5 7.9 1.5 7.05 1.5 6.85 3.0 6.35 4.7 5.75 5.2 5.3 L6.1 4.1 6.65 2.85 6.95 0.3 Q6.95 -0.45 7.2 -1.0 7.45 -1.55 7.9 -1.25 M7.65 0.1 L7.6 0.95 7.65 1.0 7.65 0.1" fill="#601717" fill-rule="evenodd" stroke="none"/>
      <path d="M21.65 19.05 L22.75 17.7 22.95 17.7 Q23.35 18.2 23.1 18.75 L21.85 20.2 21.4 20.45 Q17.7 19.0 15.85 17.05 15.6 17.4 15.6 17.95 L15.6 19.2 Q11.4 18.25 10.25 15.55 9.1 12.85 9.25 11.85 2.5 12.0 0.0 6.5 5.45 5.85 6.25 0.45 L6.5 0.0 7.8 0.0 Q8.1 6.05 2.0 7.05 2.9 8.95 5.6 9.8 L10.5 10.55 Q10.3 13.85 11.6 15.5 12.9 17.1 14.55 17.9 14.5 16.7 14.6 16.0 L14.7 14.6 Q16.65 17.4 21.25 19.25 L21.65 19.05" fill="#220e0e" fill-rule="evenodd" stroke="none"/>
    </g>
    <g id="sprite1">
      <use ffdec:characterId="3" height="39.25" transform="matrix(1.0, 0.0, 0.0, 1.0, 0.0, 0.0)" width="43.9" xlink:href="#shape1"/>
    </g>
    <g id="shape1">
      <path d="M43.8 16.4 Q43.5 17.65 42.45 18.15 40.75 18.95 39.1 19.05 35.7 19.1 33.9 19.9 L30.95 20.9 28.0 22.0 Q26.5 22.55 25.15 23.5 24.35 24.05 22.9 25.1 19.35 27.55 16.7 31.9 L14.5 35.4 Q12.85 37.95 9.2 38.3 L7.6 38.3 Q4.95 37.7 2.85 35.7 L1.85 34.2 0.95 32.65 Q0.95 32.45 1.25 32.15 L3.35 32.15 Q5.55 32.25 6.9 30.05 L8.25 26.65 9.05 23.75 9.9 20.85 Q11.2 17.8 13.75 14.4 16.3 11.0 18.35 9.6 L16.2 9.15 15.65 9.1 14.3 9.1 13.05 9.45 11.75 9.9 Q11.15 9.9 11.2 9.4 L14.1 6.95 15.8 5.75 17.65 4.55 Q19.75 2.8 27.45 1.65 L31.55 1.65 Q33.6 1.65 35.65 2.7 L38.05 4.2 Q39.85 5.2 41.9 7.55 42.85 8.55 43.55 11.05 43.9 12.05 43.9 14.5 L43.8 16.4" fill="#b72f2f" fill-rule="evenodd" stroke="none"/>
      <path d="M42.1 7.95 L41.8 7.9 Q39.1 5.2 36.75 3.7 34.45 2.2 30.25 2.1 26.05 1.95 21.1 3.6 16.2 5.25 11.75 9.5 14.3 8.65 16.7 8.7 19.05 8.75 19.5 9.4 L13.4 15.0 Q9.9 19.4 8.75 27.3 8.4 29.85 6.45 31.5 4.7 33.0 2.8 33.0 L1.95 32.9 1.4 32.6 Q1.6 33.65 2.55 34.75 3.25 35.6 4.85 36.5 6.45 37.4 8.25 37.55 L11.35 37.35 12.6 36.75 11.2 38.4 Q10.2 39.1 8.95 39.25 4.9 39.25 2.45 36.7 -0.05 34.1 0.0 32.0 0.0 29.9 1.0 30.55 1.95 31.2 3.6 31.15 5.25 31.1 6.3 29.2 6.85 28.15 7.6 24.25 9.3 15.25 15.35 10.25 L13.9 10.35 9.4 11.0 Q10.15 6.35 17.4 2.9 24.6 -0.6 30.35 0.1 36.1 0.75 39.6 3.55 42.05 5.45 42.1 7.95" fill="#220e0e" fill-rule="evenodd" stroke="none"/>
      <path d="M43.85 14.9 L40.0 14.9 36.65 15.2 Q33.9 15.65 31.45 17.1 L27.25 19.8 Q24.95 21.4 23.0 23.4 20.95 25.35 19.25 27.65 17.65 29.85 16.75 32.35 15.75 35.1 13.75 37.0 12.7 38.05 11.2 37.95 9.0 37.95 6.9 36.75 8.75 36.35 10.25 35.1 12.0 33.5 13.05 31.35 14.2 29.15 14.55 26.75 14.9 24.3 15.9 21.65 16.9 19.0 18.35 16.75 L21.3 12.55 Q22.8 10.6 24.45 9.4 26.05 8.2 27.1 8.05 23.95 7.65 20.25 7.95 22.05 7.05 24.2 6.45 26.45 5.65 28.75 5.6 31.4 5.55 34.05 6.4 36.7 7.25 37.95 8.6 L40.7 11.2 42.6 12.9 43.85 14.9" fill="#601717" fill-rule="evenodd" stroke="none"/>
      <path d="M39.5 7.5 Q39.1 6.45 37.25 4.1 L39.85 5.9 41.2 7.3 40.75 7.85 Q39.85 8.55 39.5 7.5" fill="#601717" fill-rule="evenodd" stroke="none"/>
      <path d="M25.2 5.5 Q22.7 5.9 20.4 6.65 L16.4 7.8 13.0 8.65 16.1 6.6 Q17.85 5.55 19.9 4.6 21.9 3.65 24.1 3.2 L29.25 2.65 Q31.65 2.35 33.9 3.4 35.9 4.25 37.5 5.7 38.8 6.85 39.6 8.55 L39.9 9.2 39.4 10.15 Q38.15 8.3 36.15 7.2 34.05 6.05 31.65 5.7 L29.65 5.45 Q27.45 5.25 25.2 5.5" fill="#f46767" fill-rule="evenodd" stroke="none"/>
      <path d="M14.35 21.15 Q14.1 21.05 14.15 20.6 14.15 20.1 14.45 19.6 L15.15 18.8 15.8 18.65 Q16.05 18.8 15.95 19.25 L15.65 20.25 14.95 21.05 14.35 21.15" fill="#ff9595" fill-rule="evenodd" stroke="none"/>
      <path d="M21.6 8.6 L17.7 12.75 Q15.55 15.05 13.45 18.5 11.35 21.95 10.5 25.1 9.6 28.25 7.55 30.5 L8.7 26.8 9.5 22.85 Q10.0 20.8 11.1 18.55 12.2 16.3 14.8 13.4 17.4 10.5 21.6 8.6" fill="#f46767" fill-rule="evenodd" stroke="none"/>
      <path d="M12.45 19.95 Q12.05 19.7 12.1 18.9 12.2 18.15 12.75 17.2 L13.9 15.8 Q14.6 15.3 15.0 15.55 15.4 15.75 15.3 16.6 L14.65 18.3 13.5 19.7 12.45 19.95" fill="#ff9595" fill-rule="evenodd" stroke="none"/>
    </g>
    <g id="sprite2">
      <use ffdec:characterId="5" height="17.75" transform="matrix(1.0, 0.0, 0.0, 1.0, 0.0, 0.0)" width="10.75" xlink:href="#shape2"/>
    </g>
    <g id="shape2">
      <path d="M7.95 3.7 L9.5 5.85 Q9.85 6.6 9.85 7.85 9.85 9.7 9.5 10.65 8.9 12.35 7.05 13.15 L5.7 13.15 Q4.65 13.2 4.0 12.1 3.5 11.25 3.5 10.5 3.5 9.9 4.2 9.9 L4.55 10.0 4.6 10.3 4.65 10.3 5.0 8.35 5.3 6.25 Q5.3 4.6 3.7 2.9 L2.05 1.25 Q2.05 0.65 3.3 1.1 L5.3 1.9 Q6.05 2.15 6.85 2.7 L7.95 3.7" fill="#b72f2f" fill-rule="evenodd" stroke="none"/>
      <path d="M4.5 0.2 Q7.05 0.85 8.85 3.0 10.65 5.15 10.75 7.9 10.8 10.65 9.9 11.8 L7.35 12.95 Q9.45 10.35 9.05 7.4 8.65 4.4 6.45 2.9 4.25 1.35 2.45 1.45 5.15 3.6 5.5 6.25 5.8 8.85 4.25 11.15 L2.6 10.2 Q4.15 9.1 3.9 6.55 3.65 3.95 2.15 2.6 L0.25 1.1 Q1.95 -0.45 4.5 0.2" fill="#220e0e" fill-rule="evenodd" stroke="none"/>
      <path d="M7.55 9.9 Q7.1 5.15 3.3 2.05 L5.2 2.7 Q9.4 4.2 8.2 8.3 L7.55 9.9" fill="#f46767" fill-rule="evenodd" stroke="none"/>
      <path d="M7.15 9.15 Q7.4 11.65 6.2 14.7 5.0 17.75 2.75 17.75 L0.0 17.7 Q0.1 15.45 1.0 13.35 L1.1 13.3 1.85 12.65 Q3.95 12.35 5.0 10.45 L6.25 7.4 6.6 6.1 7.1 7.85 7.1 8.35 7.15 9.15" fill="#601717" fill-rule="evenodd" stroke="none"/>
    </g>
    <g id="sprite3">
      <use ffdec:characterId="7" height="34.1" transform="matrix(1.0, 0.0, 0.0, 1.0, 0.0, 0.0)" width="29.35" xlink:href="#shape3"/>
    </g>
    <g id="shape3">
      <path d="M22.9 24.35 Q23.65 24.8 24.35 24.95 L25.7 25.05 Q26.05 25.0 26.1 25.25 L26.1 26.0 Q26.1 27.6 24.5 29.8 22.35 32.8 18.9 32.8 14.5 32.8 11.65 28.55 9.55 25.45 8.95 21.6 8.45 18.2 5.75 15.5 L3.75 14.1 1.55 12.95 Q0.0 12.0 0.0 9.9 0.0 7.45 2.1 5.35 L4.4 3.2 5.95 2.05 Q6.7 1.65 8.35 1.55 L9.75 1.55 9.85 1.55 Q11.9 1.6 13.65 4.05 15.15 6.1 15.3 7.65 L15.85 10.95 16.35 14.2 Q16.75 17.55 18.65 20.65 L19.7 22.25 Q20.5 23.2 21.5 23.65 L22.9 24.35" fill="#b72f2f" fill-rule="evenodd" stroke="none"/>
      <path d="M26.35 23.5 Q27.8 23.75 27.55 25.35 L26.65 28.3 Q26.1 29.65 24.6 31.3 23.05 32.95 20.8 33.6 L17.6 34.1 16.0 33.9 15.1 31.8 15.55 31.6 20.0 31.7 Q21.55 31.2 22.75 29.9 24.5 28.1 25.4 25.7 22.85 25.75 20.75 24.2 19.3 23.15 18.45 21.8 17.0 19.5 16.4 16.9 15.7 14.1 15.15 11.2 L14.35 7.25 Q14.05 5.7 13.05 4.2 12.05 2.65 10.7 2.25 L8.35 1.85 Q5.9 2.05 4.35 4.05 L4.3 2.75 Q4.9 1.6 6.05 0.8 8.15 -0.45 10.5 0.3 11.6 0.55 12.65 1.2 14.65 2.55 15.55 4.5 L17.05 8.55 17.95 12.95 Q18.2 15.3 18.85 17.7 19.45 20.05 21.1 21.5 22.75 22.9 23.8 23.1 L26.35 23.5" fill="#220e0e" fill-rule="evenodd" stroke="none"/>
      <path d="M5.7 4.95 Q8.45 6.45 10.25 9.0 12.05 11.45 12.8 14.55 L13.15 16.15 Q11.15 14.45 8.6 13.5 L3.15 11.3 Q0.75 10.1 -1.75 9.9 1.25 5.5 2.95 5.2 L5.7 4.95" fill="#601717" fill-rule="evenodd" stroke="none"/>
      <path d="M11.75 8.9 Q9.6 6.45 7.25 6.3 L4.7 6.4 Q5.95 4.9 8.3 4.9 L8.9 4.95 Q10.15 5.2 11.75 8.9" fill="#601717" fill-rule="evenodd" stroke="none"/>
      <path d="M6.75 2.85 Q11.2 1.5 13.0 4.5 14.75 7.5 15.6 12.9 16.45 18.25 18.5 21.6 20.5 24.95 25.15 25.8 L24.45 26.2 23.65 26.35 Q20.15 27.6 18.0 24.4 16.55 22.3 14.95 16.55 13.05 9.9 12.0 7.7 9.95 3.4 6.75 2.85" fill="#f46767" fill-rule="evenodd" stroke="none"/>
      <path d="M12.7 22.1 L12.8 21.35 Q13.7 24.15 16.05 25.9 19.2 28.3 21.95 27.75 L23.7 27.35 Q22.9 29.0 21.3 30.1 17.65 32.75 13.2 31.7 12.2 27.75 11.95 23.8 L12.8 23.35 12.7 22.1" fill="#601717" fill-rule="evenodd" stroke="none"/>
      <path d="M15.1 16.05 Q14.65 16.2 14.15 15.55 13.65 14.95 13.35 13.9 13.1 12.85 13.2 12.05 13.35 11.3 13.8 11.15 14.2 11.05 14.75 11.65 L15.5 13.35 Q15.8 14.4 15.7 15.15 15.5 15.95 15.1 16.05" fill="#ff9595" fill-rule="evenodd" stroke="none"/>
    </g>
    <g id="sprite4">
      <use ffdec:characterId="10" height="35.6" transform="matrix(1.0, 0.0, 0.0, 1.0, 0.0, 0.0)" width="13.35" xlink:href="#shape4"/>
    </g>
    <g id="shape4">
      <path d="M34.0 35.5 L33.85 36.85 33.8 36.7 34.0 35.5 M34.1 34.1 L34.35 33.65 34.05 34.75 34.1 34.1" fill="#654d35" fill-rule="evenodd" stroke="none"/>
      <path d="M28.0 10.75 L29.4 9.4 29.75 9.15 30.75 8.65 31.7 10.25 31.8 10.5 32.65 13.6 Q33.15 16.95 33.15 19.85 L33.15 20.6 32.4 18.4 31.7 16.8 31.55 16.5 30.5 16.2 29.15 13.4 28.5 12.05 28.0 10.75 M33.75 24.0 Q34.7 20.1 34.5 15.9 34.35 11.9 32.5 8.45 L33.7 9.7 Q36.6 13.65 37.05 18.9 37.45 23.85 36.8 28.7 36.2 33.3 34.6 37.4 L34.4 37.6 Q33.8 37.6 33.85 36.85 L34.0 35.5 34.05 34.75 34.35 33.65 34.1 34.1 33.75 24.0" fill="#601717" fill-rule="evenodd" stroke="none"/>
      <path d="M33.15 20.6 L33.15 19.85 Q33.15 16.95 32.65 13.6 L31.8 10.5 31.7 10.25 30.75 8.65 29.75 9.15 29.4 9.4 28.0 10.75 Q27.45 9.45 27.65 8.65 27.85 7.85 28.45 6.9 29.05 5.9 29.65 5.75 L30.7 5.55 Q31.15 5.45 30.6 5.65 L33.25 5.65 Q37.45 6.8 39.25 13.0 40.35 16.85 40.35 21.75 40.35 23.55 38.8 29.75 38.35 31.55 36.8 34.4 35.25 37.35 34.6 37.4 36.2 33.3 36.8 28.7 37.45 23.85 37.05 18.9 36.6 13.65 33.7 9.7 L32.5 8.45 Q34.35 11.9 34.5 15.9 34.7 20.1 33.75 24.0 L33.6 24.05 Q33.05 24.05 33.05 21.95 L33.15 20.6" fill="#b72f2f" fill-rule="evenodd" stroke="none"/>
      <path d="M36.35 6.4 Q38.4 7.95 39.6 11.8 L40.45 15.45 Q41.25 20.0 40.8 24.65 40.4 28.7 38.85 32.15 36.75 37.05 32.45 40.4 L33.2 34.35 Q33.6 29.35 32.75 24.45 31.9 19.45 29.55 14.85 L30.1 13.65 30.7 13.7 Q32.05 14.95 32.7 16.95 34.05 21.3 34.6 26.65 35.05 32.0 34.4 37.1 37.15 33.9 38.3 29.2 39.45 24.4 39.5 19.25 39.55 13.95 37.0 9.8 34.45 5.65 29.6 5.85 31.4 4.75 32.9 4.8 34.3 4.9 36.35 6.4" fill="#2f1717" fill-rule="evenodd" stroke="none"/>
      <path d="M38.45 15.2 Q38.4 15.95 38.05 16.05 37.7 16.15 37.25 15.5 L36.55 13.85 Q36.3 12.85 36.35 12.1 36.4 11.35 36.75 11.25 37.1 11.15 37.55 11.8 L38.25 13.4 Q38.55 14.4 38.45 15.2" fill="#ff9595" fill-rule="evenodd" stroke="none"/>
      <path d="M34.0 15.4 L33.7 15.75 33.35 15.4 Q33.2 15.05 33.2 14.5 33.2 14.0 33.35 13.65 33.5 13.3 33.7 13.3 33.9 13.3 34.0 13.65 L34.15 14.5 34.0 15.4" fill="#ff9595" fill-rule="evenodd" stroke="none"/>
      <path d="M31.95 11.4 L32.3 14.5 30.95 12.2 29.3 10.0 30.55 9.0 31.15 9.05 31.65 10.15 31.95 11.4" fill="#331212" fill-rule="evenodd" stroke="none"/>
    </g>
    <g id="sprite5">
      <use ffdec:characterId="12" height="39.65" transform="matrix(1.0, 0.0, 0.0, 1.0, 0.0, 0.0)" width="30.45" xlink:href="#shape5"/>
    </g>
    <g id="shape5">
      <path d="M28.45 19.35 L28.4 19.45 27.95 21.15 28.45 18.75 28.45 19.35" fill="#3d3129" fill-rule="evenodd" stroke="none"/>
      <path d="M29.55 11.35 L29.6 11.55 29.6 12.0 Q29.0 10.2 29.55 11.35" fill="#7d6044" fill-rule="evenodd" stroke="none"/>
      <path d="M18.5 28.95 Q17.05 31.1 15.2 32.75 13.6 34.2 9.45 36.5 L9.2 36.65 10.1 36.05 14.45 32.95 18.5 28.95" fill="#6a4d31" fill-rule="evenodd" stroke="none"/>
      <path d="M20.8 28.2 L20.9 25.55 20.95 25.5 20.9 27.8 20.8 28.2" fill="#654d35" fill-rule="evenodd" stroke="none"/>
      <path d="M1.1 28.75 L1.05 28.45 Q0.9 27.9 0.9 27.05 0.9 23.25 2.45 18.15 4.1 12.7 6.25 10.4 L9.65 6.3 Q11.85 3.7 14.5 2.3 15.5 1.6 16.15 1.35 L18.95 1.25 24.55 2.0 Q26.3 2.45 27.1 3.6 L28.0 5.1 28.65 7.3 28.5 7.0 26.9 4.7 25.25 4.7 Q24.0 4.7 21.95 5.6 19.95 6.5 18.25 7.95 16.6 9.3 15.1 11.1 13.2 13.35 11.7 16.15 L9.15 21.35 6.95 26.45 Q6.15 28.5 5.65 30.65 5.15 32.6 5.15 34.55 L5.65 34.85 Q7.2 33.95 8.0 32.3 L10.35 27.0 11.75 22.95 12.9 18.5 Q13.55 15.9 15.5 14.1 L16.3 13.45 Q17.15 15.6 17.05 18.0 16.95 21.3 15.75 24.6 14.6 27.8 12.85 30.5 11.05 33.25 8.5 35.2 5.8 37.2 2.6 38.3 L2.8 38.05 2.7 37.9 2.75 37.9 Q3.35 37.9 3.35 37.35 3.65 37.2 3.65 36.45 3.65 30.25 5.85 22.9 L7.45 18.25 7.45 18.2 10.3 12.75 Q12.2 9.55 14.65 7.2 11.2 9.15 9.25 12.35 8.1 14.2 6.3 17.9 5.7 18.8 5.1 20.55 L4.3 22.95 2.9 28.1 Q1.95 31.9 1.55 30.3 L1.1 28.75" fill="#b72f2f" fill-rule="evenodd" stroke="none"/>
      <path d="M29.5 13.6 L28.45 19.35 28.45 18.75 27.95 21.15 Q27.15 23.3 25.95 25.3 L23.8 28.6 23.3 28.85 Q24.1 26.9 25.4 24.75 L26.15 23.45 Q27.2 21.3 27.5 18.95 27.8 16.65 27.1 14.55 26.4 12.3 24.05 11.95 25.25 14.25 25.65 16.7 26.15 20.15 25.15 23.5 L24.1 26.35 Q23.2 28.35 21.7 30.1 L21.1 30.65 20.75 30.8 20.4 31.15 20.3 30.7 20.3 30.85 Q20.1 31.65 20.2 30.6 20.2 30.1 20.45 29.5 L20.5 29.4 20.6 29.15 20.65 29.0 21.3 27.05 22.05 22.75 Q22.4 19.8 21.85 17.85 21.3 15.85 20.5 14.85 19.65 13.8 18.95 13.5 20.1 9.7 22.4 8.15 27.3 7.05 29.4 13.3 L29.5 13.6 M18.15 15.35 L19.0 18.5 Q20.05 22.95 17.9 26.95 16.45 29.6 13.9 31.1 15.4 29.45 16.2 27.5 17.3 24.95 17.85 22.1 18.4 19.15 18.25 16.15 L18.15 15.35" fill="#d83d3d" fill-rule="evenodd" stroke="none"/>
      <path d="M1.1 28.75 L1.55 30.3 Q1.95 31.9 2.9 28.1 L4.3 22.95 5.1 20.55 Q5.7 18.8 6.3 17.9 8.1 14.2 9.25 12.35 11.2 9.15 14.65 7.2 12.2 9.55 10.3 12.75 L7.45 18.2 7.45 18.25 5.85 22.9 Q3.65 30.25 3.65 36.45 3.65 37.2 3.35 37.35 3.35 37.9 2.75 37.9 L2.7 37.9 Q1.75 37.8 1.3 33.75 L1.05 29.55 1.05 28.95 1.1 28.75 M2.6 38.3 Q5.8 37.2 8.5 35.2 11.05 33.25 12.85 30.5 14.6 27.8 15.75 24.6 16.95 21.3 17.05 18.0 17.15 15.6 16.3 13.45 L15.5 14.1 Q13.55 15.9 12.9 18.5 L11.75 22.95 10.35 27.0 8.0 32.3 Q7.2 33.95 5.65 34.85 L5.15 34.55 Q5.15 32.6 5.65 30.65 6.15 28.5 6.95 26.45 L9.15 21.35 11.7 16.15 Q13.2 13.35 15.1 11.1 16.6 9.3 18.25 7.95 19.95 6.5 21.95 5.6 24.0 4.7 25.25 4.7 L26.9 4.7 28.5 7.0 28.65 7.3 Q29.6 10.1 29.55 11.35 29.0 10.2 29.6 12.0 L29.65 12.25 Q28.9 10.7 28.95 11.4 L29.25 12.6 29.55 13.5 29.55 13.55 29.5 13.6 29.4 13.3 Q27.3 7.05 22.4 8.15 20.1 9.7 18.95 13.5 19.65 13.8 20.5 14.85 21.3 15.85 21.85 17.85 22.4 19.8 22.05 22.75 L21.3 27.05 20.65 29.0 20.65 28.85 20.8 28.2 20.9 27.8 20.95 25.5 20.9 25.55 18.5 28.95 14.45 32.95 10.1 36.05 9.2 36.65 Q6.95 38.05 4.3 38.65 L2.1 38.85 2.6 38.3 M23.8 28.6 L21.65 30.65 21.25 30.6 21.1 30.65 21.7 30.1 Q23.2 28.35 24.1 26.35 L25.15 23.5 Q26.15 20.15 25.65 16.7 25.25 14.25 24.05 11.95 26.4 12.3 27.1 14.55 27.8 16.65 27.5 18.95 27.2 21.3 26.15 23.45 L25.4 24.75 Q24.1 26.9 23.3 28.85 L23.8 28.6 M18.15 15.35 L18.25 16.15 Q18.4 19.15 17.85 22.1 17.3 24.95 16.2 27.5 15.4 29.45 13.9 31.1 16.45 29.6 17.9 26.95 20.05 22.95 19.0 18.5 L18.15 15.35" fill="#601717" fill-rule="evenodd" stroke="none"/>
      <path d="M6.65 13.9 Q6.15 13.6 6.2 12.6 6.3 11.65 6.95 10.5 7.6 9.4 8.4 8.8 9.25 8.25 9.75 8.55 10.2 8.8 10.1 9.75 10.05 10.8 9.4 11.9 8.75 13.05 7.9 13.55 7.1 14.15 6.65 13.9" fill="#ff9595" fill-rule="evenodd" stroke="none"/>
      <path d="M10.8 15.6 Q10.25 16.05 9.95 15.9 9.65 15.7 9.75 14.95 9.9 14.25 10.4 13.35 L11.5 11.9 Q12.1 11.45 12.4 11.65 12.7 11.8 12.55 12.55 L11.9 14.25 10.8 15.6" fill="#ff9595" fill-rule="evenodd" stroke="none"/>
      <path d="M15.35 18.35 Q14.95 18.75 14.6 18.65 14.25 18.55 14.15 18.05 14.0 17.5 14.2 16.85 14.4 16.2 14.75 15.75 15.15 15.35 15.5 15.45 15.85 15.55 15.95 16.05 L15.9 17.3 15.35 18.35" fill="#ff9595" fill-rule="evenodd" stroke="none"/>
      <path d="M23.95 18.15 Q23.6 18.25 23.15 17.7 22.75 17.2 22.55 16.35 22.3 15.55 22.4 14.9 22.5 14.25 22.85 14.15 23.2 14.05 23.6 14.6 L24.25 15.9 24.35 17.4 Q24.3 18.05 23.95 18.15" fill="#ff9595" fill-rule="evenodd" stroke="none"/>
      <path d="M10.05 5.95 Q14.1 2.1 19.7 1.9 L20.6 1.95 Q12.3 3.8 7.45 11.25 4.75 15.45 3.35 20.25 2.2 24.3 1.95 28.7 1.3 22.35 3.4 16.5 4.85 12.45 7.45 9.3 L10.05 5.95" fill="#ff9595" fill-rule="evenodd" stroke="none"/>
      <path d="M22.45 7.45 L22.15 7.1 Q24.05 5.1 26.65 5.2 L28.0 9.85 Q26.95 8.35 25.4 7.8 L23.3 7.4 22.45 7.45" fill="#331212" fill-rule="evenodd" stroke="none"/>
      <path d="M27.9 4.7 L27.0 3.6 Q25.8 1.9 19.45 1.8 13.1 1.7 6.15 11.5 -0.8 21.25 2.2 36.95 0.45 33.95 0.05 25.45 -0.4 17.0 5.1 9.3 10.45 1.6 17.1 0.4 21.25 -0.65 24.5 1.0 27.05 2.35 27.9 4.7" fill="#2f1717" fill-rule="evenodd" stroke="none"/>
      <path d="M29.75 10.8 Q30.3 11.45 30.3 12.55 30.55 14.3 30.35 16.1 L29.6 19.6 27.45 24.15 Q25.8 26.9 23.55 29.25 21.2 31.5 18.8 32.3 L19.85 27.55 Q20.2 25.5 20.8 23.6 L21.05 24.55 Q21.7 27.45 20.55 30.4 L23.7 27.05 Q25.7 24.75 26.9 22.25 L28.35 18.0 Q28.7 16.35 28.7 14.15 28.7 11.9 27.7 10.1 28.85 10.25 29.25 10.5 L29.75 10.8" fill="#2f1717" fill-rule="evenodd" stroke="none"/>
      <path d="M11.65 23.8 Q11.25 26.55 10.0 29.25 8.75 31.85 7.1 34.25 5.4 36.75 2.95 38.5 4.55 38.65 7.9 37.15 11.15 35.65 13.25 33.65 L17.3 29.15 Q19.25 26.75 20.15 24.45 21.05 22.15 20.65 18.7 21.45 19.65 21.55 21.05 21.8 25.05 20.2 27.9 18.6 30.75 16.65 32.75 14.65 34.8 11.6 36.65 8.5 38.5 6.15 39.2 L0.45 39.55 3.65 36.3 Q6.85 33.0 8.7 29.0 L11.05 22.8 12.3 18.3 11.65 23.8" fill="#2f1717" fill-rule="evenodd" stroke="none"/>
      <path d="M7.2 29.85 Q5.45 34.8 3.4 37.25 4.75 31.55 5.6 29.3 6.4 26.95 9.05 21.85 8.9 24.85 7.2 29.85" fill="#2f1717" fill-rule="evenodd" stroke="none"/>
    </g>
  </defs>
</svg>
