<?xml version="1.0" encoding="UTF-8" standalone="no"?>
<svg xmlns:ffdec="https://www.free-decompiler.com/flash" xmlns:xlink="http://www.w3.org/1999/xlink" ffdec:objectType="frame" height="47.25px" width="59.85px" xmlns="http://www.w3.org/2000/svg">
  <g transform="matrix(1.0, 0.0, 0.0, 1.0, 30.45, 35.95)">
    <use ffdec:characterId="14" height="47.25" transform="matrix(1.0, 0.0, 0.0, 1.0, -0.5, -12.35)" width="59.85" xlink:href="#sprite0"/>
  </g>
  <defs>
    <g id="sprite0">
      <use ffdec:characterId="6" height="19.05" transform="matrix(1.0, 0.0, 0.0, 0.6597, 0.65, -17.35)" width="19.35" xlink:href="#sprite1"/>
      <use ffdec:characterId="11" height="17.9" transform="matrix(0.8485, 0.0, 0.0, 0.8485, -0.1, -9.9)" width="10.75" xlink:href="#sprite2"/>
      <use ffdec:characterId="13" height="38.4" transform="matrix(-1.0, 0.0, 0.0, 1.0, 13.1, 4.45)" width="31.35" xlink:href="#sprite3"/>
      <use ffdec:characterId="13" height="38.4" transform="matrix(1.0, 0.0, 0.0, 1.0, -13.15, 4.45)" width="31.35" xlink:href="#sprite3"/>
    </g>
    <g id="sprite1">
      <use ffdec:characterId="5" height="19.05" transform="matrix(1.0, 0.0, 0.0, 1.0, 0.0, 0.0)" width="19.35" xlink:href="#shape0"/>
    </g>
    <g id="shape0">
      <path d="M3.1 -0.35 Q1.5 2.95 -2.65 2.95 -4.65 2.95 -5.4 1.2 L-5.75 -0.7 Q-5.75 -2.55 -4.5 -5.1 -2.95 -8.25 -1.3 -4.7 -1.0 -4.75 -0.55 -5.05 L0.2 -5.3 Q0.75 -5.3 0.85 -4.75 L0.95 -4.05 Q1.7 -4.1 2.45 -4.8 L3.35 -5.55 3.8 -5.15 3.95 -4.55 Q3.95 -2.05 3.1 -0.35" fill="#336699" fill-rule="evenodd" stroke="none"/>
      <path d="M3.1 -0.35 Q3.95 -2.05 3.95 -4.55 L3.8 -5.15 3.35 -5.55 2.45 -4.8 Q1.7 -4.1 0.95 -4.05 L0.85 -4.75 Q0.75 -5.3 0.2 -5.3 L-0.55 -5.05 Q-1.0 -4.75 -1.3 -4.7 -2.95 -8.25 -4.5 -5.1 -5.75 -2.55 -5.75 -0.7 L-5.4 1.2 Q-4.65 2.95 -2.65 2.95 1.5 2.95 3.1 -0.35 M5.7 -1.95 Q4.7 -0.4 4.7 2.75 4.7 4.3 3.1 5.95 1.1 7.95 -2.05 7.95 -5.6 7.95 -7.9 4.4 L-8.05 4.2 -7.9 2.55 Q-7.65 1.1 -7.65 -1.1 L-7.7 -3.25 -7.9 -4.25 Q-5.95 -6.5 -1.4 -7.65 L4.15 -7.9 Q6.7 -7.3 6.7 -5.35 6.7 -3.5 5.7 -1.95" fill="#152b40" fill-rule="evenodd" stroke="none"/>
      <path d="M0.1 -9.1 L3.0 -9.55 Q4.45 -9.7 6.95 -8.9 9.7 -8.0 9.7 -7.05 L8.55 -5.25 Q7.1 -3.35 6.1 -0.8 5.45 1.0 5.55 2.4 L5.85 5.15 Q5.85 6.5 4.25 7.9 2.2 9.7 -1.4 9.5 -5.0 9.25 -6.85 6.85 -8.75 4.45 -8.0 2.7 -8.05 -3.8 -9.0 -6.25 -10.0 -8.7 -9.5 -8.8 L-8.3 -8.95 Q-7.5 -8.95 -7.05 -8.25 -6.6 -7.6 -6.0 -7.6 -5.8 -7.6 -4.45 -8.5 -3.2 -9.35 0.1 -9.1 M-0.7 -6.8 Q-0.8 -7.3 -1.5 -7.3 -3.65 -7.3 -5.4 -5.75 -6.8 -4.55 -6.8 -4.1 L-6.4 2.65 Q-6.4 3.7 -5.65 4.8 -4.4 6.7 -1.6 6.7 2.15 6.7 3.6 3.2 4.3 1.45 4.25 -0.4 4.25 -1.1 5.2 -3.55 L6.35 -6.2 Q3.9 -8.5 2.95 -7.75 1.15 -6.35 0.2 -6.35 -0.6 -6.35 -0.7 -6.8" fill="#000000" fill-rule="evenodd" stroke="none"/>
    </g>
    <g id="sprite2">
      <use ffdec:characterId="10" height="17.9" transform="matrix(1.0, 0.0, 0.0, 1.0, 0.0, 0.0)" width="10.75" xlink:href="#shape1"/>
    </g>
    <g id="shape1">
      <path d="M2.35 -3.0 L2.7 3.4 3.4 4.8 Q4.1 6.0 4.1 6.65 4.1 8.85 1.45 8.85 -1.45 8.85 -2.55 4.8 L-2.55 4.65 Q-3.2 3.6 -3.55 1.65 -3.95 -0.45 -3.95 -2.6 -3.95 -4.55 -2.3 -6.0 -1.35 -7.85 0.7 -8.0 3.1 -8.15 3.1 -5.8 L2.35 -3.0" fill="#ffffff" fill-rule="evenodd" stroke="none"/>
      <path d="M0.95 -2.5 Q-0.8 -1.5 -2.3 -1.5 L-3.75 -1.55 Q-3.85 -0.1 -3.4 0.4 L-2.75 1.1 -1.35 1.25 Q0.0 1.25 1.3 0.65 0.95 -0.95 0.95 -2.35 L0.95 -2.5 M3.05 -5.45 Q2.8 -2.85 2.9 -0.95 2.95 0.9 4.1 3.9 5.2 6.9 5.65 6.95 6.1 7.0 5.3 8.15 4.15 9.9 1.95 9.9 -1.2 9.9 -3.0 6.95 -4.25 4.85 -4.25 3.1 -4.25 0.4 -4.7 -1.35 -5.2 -3.15 -4.7 -4.8 -4.2 -6.45 -2.25 -7.15 -0.35 -7.9 1.5 -8.0 3.3 -8.1 3.05 -5.45 M1.45 -6.25 Q-1.7 -7.05 -2.8 -5.6 -3.95 -4.2 -3.6 -2.9 L-1.75 -3.05 0.95 -2.75 Q2.5 -5.1 1.45 -6.25 M-1.95 5.4 Q-1.05 7.6 0.75 7.6 2.0 7.6 2.75 7.0 3.35 6.6 3.35 6.25 L3.0 5.35 2.6 5.6 Q1.65 6.15 0.2 6.15 L-1.2 5.85 -1.95 5.4 M-2.15 4.9 L0.2 5.15 Q1.95 5.15 2.45 4.6 L2.65 4.45 2.15 3.25 1.65 1.85 Q0.3 2.5 -1.3 2.5 L-2.8 2.05 -2.65 3.0 -2.15 4.95 -2.15 4.9" fill="#000000" fill-rule="evenodd" stroke="none"/>
    </g>
    <g id="sprite3">
      <use ffdec:characterId="12" height="38.4" transform="matrix(1.0, 0.0, 0.0, 1.0, 0.0, 0.0)" width="31.35" xlink:href="#shape2"/>
    </g>
    <g id="shape2">
      <path d="M-11.95 -7.0 L-10.9 -6.75 Q-8.95 -6.75 -4.25 -9.05 0.25 -11.25 0.45 -12.2 L1.8 -12.65 Q2.45 -13.5 4.0 -13.35 L5.1 -13.6 13.15 -12.9 14.35 -12.85 13.3 -5.95 12.85 -4.8 12.8 -4.85 12.0 -4.9 Q10.55 -6.05 9.3 -6.05 8.4 -6.05 8.25 -5.6 8.1 -5.2 7.6 -5.2 7.1 -5.2 6.15 -6.15 4.7 -7.2 1.5 -7.2 -3.35 -7.2 -5.55 -2.2 -6.75 0.65 -6.75 3.65 L-6.7 5.7 -6.1 8.4 -5.85 9.05 -5.35 10.8 Q-4.65 10.7 -4.35 11.35 L-4.25 11.5 -4.95 11.9 Q-7.55 10.9 -9.25 8.7 L-9.25 8.65 -9.1 8.1 -9.25 6.7 -9.95 0.55 -10.2 -1.35 Q-11.65 -2.75 -13.3 -6.35 -13.3 -7.0 -12.4 -6.75 L-11.95 -7.0" fill="#336699" fill-rule="evenodd" stroke="none"/>
      <path d="M-11.95 -7.0 L-12.05 -7.25 -11.4 -7.4 Q-11.05 -8.0 -10.0 -8.6 L-9.55 -8.8 -8.2 -9.5 -6.4 -10.65 Q-3.25 -12.7 -2.45 -13.8 -0.8 -16.0 2.15 -17.1 5.2 -18.65 10.2 -18.65 13.4 -18.65 14.25 -17.85 14.55 -17.5 14.55 -16.35 L14.4 -15.65 14.15 -15.0 14.35 -12.85 13.15 -12.9 5.1 -13.6 4.0 -13.35 Q2.45 -13.5 1.8 -12.65 L0.45 -12.2 Q0.25 -11.25 -4.25 -9.05 -8.95 -6.75 -10.9 -6.75 L-11.95 -7.0 M-4.25 11.5 Q-4.1 11.9 -4.1 12.35 L-4.95 14.55 -5.35 15.35 Q-5.9 16.55 -6.15 16.55 -7.15 16.55 -8.15 13.0 L-8.5 12.35 -8.65 11.85 -9.15 10.6 -9.4 9.2 -9.25 8.7 Q-7.55 10.9 -4.95 11.9 L-4.25 11.5" fill="#152b40" fill-rule="evenodd" stroke="none"/>
      <path d="M14.3 -17.7 L14.35 -17.2 10.9 -17.45 7.9 -17.7 Q4.25 -17.25 1.5 -16.45 L-7.6 -9.65 -9.65 -8.0 -12.05 -7.3 -11.1 -7.5 -11.65 -7.25 Q-12.45 -6.95 -10.35 -7.0 -8.25 -7.05 -4.7 -9.05 -1.1 -11.05 -0.55 -11.9 6.25 -15.65 10.15 -14.9 L14.4 -14.05 14.4 -12.35 8.6 -13.3 Q4.65 -14.05 -1.2 -10.3 -7.05 -6.6 -10.55 -6.15 L-13.0 -6.65 Q-11.0 -2.1 -7.2 2.05 -7.25 -2.25 -4.6 -4.6 -2.0 -6.95 2.4 -7.55 L8.85 -7.35 11.8 -6.5 13.25 -6.1 Q13.45 -6.0 13.25 -5.25 L13.1 -4.4 8.65 -6.0 9.3 -4.4 9.2 -4.2 Q1.15 -9.2 -4.1 -2.25 -6.4 0.85 -6.5 4.65 -6.55 8.05 -5.25 10.6 L-3.25 10.75 -4.0 14.2 -4.75 17.1 -5.75 19.2 Q-9.65 14.35 -10.25 9.45 L-11.4 1.25 Q-11.95 -2.0 -14.15 -6.2 L-16.8 -8.05 Q-9.1 -9.1 -4.5 -13.3 2.1 -19.2 10.55 -19.2 12.8 -19.2 14.3 -17.7 M-8.65 10.95 Q-7.7 14.8 -6.1 15.95 L-4.35 11.75 Q-6.7 11.3 -6.9 7.45 -7.2 3.55 -9.15 0.0 -9.7 7.05 -8.65 10.95" fill="#000000" fill-rule="evenodd" stroke="none"/>
    </g>
  </defs>
</svg>
