<?xml version="1.0" encoding="UTF-8" standalone="no"?>
<svg xmlns:ffdec="https://www.free-decompiler.com/flash" xmlns:xlink="http://www.w3.org/1999/xlink" ffdec:objectType="frame" height="56.0px" width="65.9px" xmlns="http://www.w3.org/2000/svg">
  <g transform="matrix(1.0, 0.0, 0.0, 1.0, 35.05, 33.6)">
    <use ffdec:characterId="5" height="56.0" transform="matrix(1.0, 0.0, 0.0, 1.0, -2.1, -5.6)" width="65.9" xlink:href="#sprite0"/>
  </g>
  <defs>
    <g id="sprite0">
      <use ffdec:characterId="4" height="56.0" transform="matrix(1.0, 0.0, 0.0, 1.0, 0.0, 0.0)" width="65.9" xlink:href="#shape0"/>
    </g>
    <g id="shape0">
      <path d="M-19.75 4.7 L-19.65 4.8 -19.75 4.75 -19.75 4.7 M-4.35 -12.8 L-4.35 -12.85 -4.35 -12.8 M7.0 9.45 L6.9 9.35 7.35 9.55 7.4 9.6 7.0 9.45 M5.25 8.7 L5.35 8.75 5.25 8.75 5.25 8.7" fill="#af6958" fill-rule="evenodd" stroke="none"/>
      <path d="M-29.15 0.5 L-29.15 0.55 -29.8 0.65 -29.15 0.5 M-27.7 -0.25 L-27.65 -0.3 -27.7 -0.25 M27.3 -12.2 L27.1 -11.95 27.3 -12.45 27.3 -12.2 M-8.5 5.1 L-8.6 5.05 -8.6 5.0 -8.5 5.1 M-6.3 19.6 L-6.25 19.55 -6.1 19.65 -6.3 19.6" fill="#863e3e" fill-rule="evenodd" stroke="none"/>
      <path d="M-1.5 -4.8 L-1.5 -4.65 -1.6 -4.8 -1.5 -4.8" fill="#988c81" fill-rule="evenodd" stroke="none"/>
      <path d="M-12.05 9.8 L-12.0 9.75 -12.0 9.85 -12.05 9.8 M-27.0 3.4 L-27.05 3.4 -27.15 3.5 -27.0 3.4" fill="#242120" fill-rule="evenodd" stroke="none"/>
      <path d="M-29.15 0.5 L-23.45 -9.65 -21.75 -12.6 -20.05 -15.0 Q-19.2 -16.25 -21.15 -13.95 L-23.55 -11.1 -31.2 -14.1 Q-26.3 -15.6 -7.6 -24.05 L-3.15 -22.65 -1.85 -22.25 -7.45 -24.55 Q-12.05 -26.35 -15.5 -27.35 L0.05 -26.6 Q9.7 -26.1 12.3 -25.2 L13.9 -24.65 15.2 -23.7 18.7 -20.2 Q20.7 -18.0 23.35 -14.4 L23.85 -13.8 22.3 -16.5 22.2 -21.95 22.0 -23.75 22.05 -23.75 Q23.55 -21.85 25.05 -19.15 26.8 -15.85 26.9 -14.05 27.0 -12.35 26.45 -10.75 L26.4 -10.45 29.1 -13.1 29.3 -13.25 28.6 -11.85 26.35 -7.45 28.75 -10.15 31.1 -10.45 32.05 -10.55 Q31.9 -9.85 30.95 -8.45 L29.5 -6.35 Q28.95 -5.9 27.3 -5.45 30.05 -1.45 30.7 0.4 L31.2 2.35 29.9 1.4 Q26.9 -0.8 25.65 -4.35 L26.25 -2.0 26.3 -1.6 27.65 6.7 Q28.9 14.0 28.0 17.15 L26.45 22.55 24.2 19.35 Q22.15 16.45 22.1 16.0 25.8 12.75 25.25 12.9 25.8 12.6 24.0 4.0 24.6 9.3 24.35 12.8 L18.3 18.5 13.85 22.2 Q15.5 20.6 18.65 10.9 L19.4 0.05 18.5 -0.95 Q18.95 -0.05 14.45 7.2 14.6 6.95 13.8 5.55 L11.8 3.05 10.3 1.75 7.85 -0.35 5.3 -2.6 4.7 -3.1 3.8 -3.6 3.8 -3.2 Q3.85 -1.85 5.35 3.15 L7.05 8.8 7.35 9.25 7.25 9.3 4.8 8.3 Q-0.3 6.25 -5.9 2.95 -11.4 -0.3 -12.0 -1.25 L-12.65 -1.8 -12.3 0.8 Q-11.7 5.8 -11.2 7.35 L-10.3 10.0 -9.75 11.25 -12.0 9.75 -12.05 9.8 -12.1 9.7 -18.0 5.8 -19.0 5.15 Q-19.3 5.0 -19.65 4.8 L-19.75 4.7 -19.85 4.6 -20.15 4.4 -19.8 4.85 -17.6 6.9 -12.9 13.9 Q-9.75 18.6 -7.25 21.25 L-6.35 22.25 -12.1 19.0 Q-16.15 16.7 -17.25 14.9 L-20.95 8.6 -19.5 11.9 -20.15 16.65 -20.75 21.75 -22.9 17.05 -25.15 11.3 -22.95 2.3 -22.35 -0.05 -27.0 3.35 -26.05 2.05 -24.8 0.15 -22.2 -0.65 -26.35 0.1 -29.15 0.55 -29.15 0.5 M-27.7 -0.25 L-27.65 -0.2 -27.5 -0.4 -20.75 -3.7 -23.3 5.8 -23.7 7.35 -24.75 11.35 -21.2 19.55 -21.45 7.35 -21.4 7.35 -20.0 9.4 Q-17.65 12.8 -15.05 15.5 -12.6 18.05 -8.9 20.1 L-20.65 5.65 -19.55 -2.05 Q-19.6 -0.8 -19.5 -2.15 -19.4 2.75 -12.45 8.05 -15.45 -2.2 -12.0 -9.55 -11.95 -0.5 3.4 5.4 1.15 -1.5 0.15 -16.65 2.95 -10.7 4.05 -9.15 L8.65 -2.7 Q5.15 -8.75 1.3 -18.15 L10.15 -3.95 13.0 1.0 13.3 1.5 Q13.15 -8.1 8.5 -15.05 11.75 -13.8 16.8 -10.2 16.6 -17.05 9.65 -21.25 17.2 -20.2 20.25 -17.0 17.65 -20.55 13.65 -24.25 L-11.65 -26.8 -12.75 -27.0 -6.05 -24.6 -4.1 -23.8 0.0 -21.5 -7.35 -23.15 -28.7 -14.3 Q-24.1 -14.25 -16.7 -17.5 -19.7 -15.35 -28.0 -0.15 L-27.7 -0.25 M22.7 -22.0 L22.75 -18.95 26.45 -13.6 Q26.3 -15.5 25.1 -17.95 24.2 -19.85 22.7 -22.0 M19.7 -0.5 L19.75 -0.1 19.8 0.65 Q20.1 4.45 19.5 8.1 18.8 12.45 17.25 16.6 L16.1 19.0 Q15.8 19.6 16.0 19.6 L16.9 18.7 22.05 12.9 22.4 12.1 Q22.85 8.55 22.5 4.85 22.2 1.3 21.5 -2.2 L19.7 -0.5 M19.4 -2.65 L19.8 -3.15 Q22.2 -6.05 20.7 -9.45 20.7 -6.25 19.4 -2.65 M-6.3 19.6 L-7.35 20.4 -9.05 17.95 -8.35 18.75 -7.8 18.9 Q-7.05 19.15 -6.25 19.55 L-6.3 19.6 M-12.75 19.45 L-12.35 19.65 -8.65 21.45 -14.9 26.45 -12.75 19.45 M-15.25 22.05 L-15.55 22.6 -15.65 21.85 -16.2 17.4 -14.1 18.75 -14.25 19.15 -15.25 22.05 M15.5 21.8 L15.5 21.6 19.2 18.5 17.1 23.25 16.05 25.9 15.5 21.8 M14.4 20.2 L12.85 18.6 15.65 17.15 14.4 20.2" fill="#6a3737" fill-rule="evenodd" stroke="none"/>
      <path d="M1.2 -22.65 L0.05 -20.7 3.6 -15.95 Q6.8 -11.5 11.2 -3.8 8.8 -11.5 2.7 -20.2 5.4 -19.5 12.75 -15.05 10.25 -20.55 3.8 -21.3 6.45 -23.9 10.6 -24.05 L-8.7 -26.0 Q0.25 -22.7 1.2 -22.65 M-27.7 -0.25 L-28.0 -0.15 Q-19.7 -15.35 -16.7 -17.5 -24.1 -14.25 -28.7 -14.3 L-7.35 -23.15 0.0 -21.5 -4.1 -23.8 -6.05 -24.6 -12.75 -27.0 -11.65 -26.8 13.65 -24.25 Q17.65 -20.55 20.25 -17.0 17.2 -20.2 9.65 -21.25 16.6 -17.05 16.8 -10.2 11.75 -13.8 8.5 -15.05 13.15 -8.1 13.3 1.5 L13.0 1.0 10.15 -3.95 1.3 -18.15 Q5.15 -8.75 8.65 -2.7 L4.05 -9.15 Q2.95 -10.7 0.15 -16.65 1.15 -1.5 3.4 5.4 -11.95 -0.5 -12.0 -9.55 -15.45 -2.2 -12.45 8.05 -19.4 2.75 -19.5 -2.15 -19.6 -0.8 -19.55 -2.05 L-20.65 5.65 -8.9 20.1 Q-12.6 18.05 -15.05 15.5 -17.65 12.8 -20.0 9.4 L-21.4 7.35 -21.45 7.35 -21.2 19.55 -24.75 11.35 -23.7 7.35 -23.3 5.8 -20.75 -3.7 -27.5 -0.4 -27.65 -0.2 -27.7 -0.25 -27.65 -0.3 -27.7 -0.25 M15.7 -11.55 L15.75 -11.5 15.75 -11.55 15.7 -11.55 M19.4 -2.65 Q20.7 -6.25 20.7 -9.45 22.2 -6.05 19.8 -3.15 L19.4 -2.65 M19.7 -0.5 L21.5 -2.2 Q22.2 1.3 22.5 4.85 22.85 8.55 22.4 12.1 L22.05 12.9 16.9 18.7 16.0 19.6 Q15.8 19.6 16.1 19.0 L17.25 16.6 Q18.8 12.45 19.5 8.1 20.1 4.45 19.8 0.65 L19.75 -0.1 19.7 -0.5 M22.7 -22.0 Q24.2 -19.85 25.1 -17.95 26.3 -15.5 26.45 -13.6 L22.75 -18.95 22.7 -22.0 M-1.5 -4.8 Q-2.35 -8.25 -1.8 -14.5 -1.3 -20.9 -1.0 -20.8 L-0.7 -21.1 -2.65 -21.6 -7.45 -22.15 Q-8.75 -22.0 -13.55 -19.9 -18.4 -17.8 -24.85 -15.55 L-21.45 -16.55 -14.7 -18.45 Q-16.9 -17.0 -19.75 -12.85 L-24.95 -4.75 Q-20.2 -12.6 -14.45 -17.8 -21.65 -9.35 -26.2 -2.3 -25.3 -3.25 -19.75 -6.55 -17.95 -9.75 -15.45 -12.4 L-10.15 -17.2 Q-15.95 -11.35 -17.65 -5.75 -18.8 -1.9 -14.35 4.4 -16.05 -6.6 -10.2 -13.95 -7.1 -17.9 -4.9 -19.65 -6.45 -18.2 -8.45 -15.3 -13.25 -8.6 -8.4 -3.6 -3.55 1.35 -0.3 2.8 -5.65 -3.75 -5.8 -6.9 -5.95 -9.5 -4.35 -12.8 -5.7 -7.8 -1.6 -4.8 L-1.5 -4.65 -1.5 -4.8 M-19.5 8.75 Q-16.4 13.15 -12.7 17.0 L-21.05 6.45 -19.5 8.75 M-21.85 16.4 L-22.25 7.15 -20.4 -4.05 -23.7 11.45 -21.85 16.4 M20.25 3.5 L19.95 8.15 Q19.55 10.65 18.75 13.45 L17.5 17.5 20.55 12.45 20.25 3.5" fill="#974f4f" fill-rule="evenodd" stroke="none"/>
      <path d="M1.2 -22.65 Q0.25 -22.7 -8.7 -26.0 L10.6 -24.05 Q6.45 -23.9 3.8 -21.3 10.25 -20.55 12.75 -15.05 5.4 -19.5 2.7 -20.2 8.8 -11.5 11.2 -3.8 6.8 -11.5 3.6 -15.95 L0.05 -20.7 1.2 -22.65 M-4.35 -12.8 Q-5.95 -9.5 -5.8 -6.9 -5.65 -3.75 -0.3 2.8 -3.55 1.35 -8.4 -3.6 -13.25 -8.6 -8.45 -15.3 -6.45 -18.2 -4.9 -19.65 -7.1 -17.9 -10.2 -13.95 -16.05 -6.6 -14.35 4.4 -18.8 -1.9 -17.65 -5.75 -15.95 -11.35 -10.15 -17.2 L-15.45 -12.4 Q-17.95 -9.75 -19.75 -6.55 -25.3 -3.25 -26.2 -2.3 -21.65 -9.35 -14.45 -17.8 -20.2 -12.6 -24.95 -4.75 L-19.75 -12.85 Q-16.9 -17.0 -14.7 -18.45 L-21.45 -16.55 -24.85 -15.55 Q-18.4 -17.8 -13.55 -19.9 -8.75 -22.0 -7.45 -22.15 L-2.65 -21.6 -0.7 -21.1 -1.0 -20.8 Q-1.3 -20.9 -1.8 -14.5 -2.35 -8.25 -1.5 -4.8 L-1.6 -4.8 Q-5.7 -7.8 -4.35 -12.8 L-4.35 -12.85 -4.35 -12.8 M-19.5 8.75 L-21.05 6.45 -12.7 17.0 Q-16.4 13.15 -19.5 8.75 M-21.85 16.4 L-23.7 11.45 -20.4 -4.05 -22.25 7.15 -21.85 16.4 M20.25 3.5 L20.55 12.45 17.5 17.5 18.75 13.45 Q19.55 10.65 19.95 8.15 L20.25 3.5" fill="#dc8278" fill-rule="evenodd" stroke="none"/>
      <path d="M19.4 -20.75 L21.6 -18.25 21.3 -25.0 Q23.85 -22.45 25.9 -19.35 28.0 -16.15 27.45 -12.85 L27.3 -12.45 27.1 -11.95 27.3 -12.2 27.4 -12.3 29.1 -13.85 30.7 -14.9 29.45 -12.2 29.1 -11.55 28.8 -10.95 29.1 -10.95 32.95 -11.4 31.55 -8.1 Q30.95 -6.85 30.15 -6.05 L30.1 -6.0 29.75 -5.7 28.3 -4.8 30.2 -2.25 31.75 2.45 31.85 2.75 31.95 3.65 29.5 1.85 26.8 -0.4 Q29.8 12.95 29.35 14.9 L26.65 23.7 22.05 16.9 21.7 16.4 20.4 17.5 15.75 27.4 Q14.9 23.2 14.8 22.1 L11.8 24.25 13.5 22.0 14.1 20.8 12.15 19.0 12.1 18.9 12.8 18.55 12.85 18.6 14.4 20.2 15.5 17.5 Q18.05 10.75 18.75 3.5 L18.9 -0.35 18.9 -0.4 Q17.15 3.9 14.4 7.6 L13.85 6.4 Q12.2 2.9 3.85 -3.45 5.9 5.75 8.0 9.9 -9.15 3.25 -12.3 -1.45 -11.9 5.25 -9.4 11.6 -12.9 10.2 -16.1 7.9 -13.8 10.75 -11.75 13.95 L-9.05 17.95 -7.35 20.4 -6.3 19.6 -6.1 19.65 -5.0 19.95 -6.7 21.3 -6.25 22.0 -4.3 23.5 -7.6 21.95 Q-13.55 26.5 -16.6 28.0 L-15.45 26.45 -13.25 19.2 -13.5 19.05 -15.55 22.8 -15.6 22.85 -16.25 20.35 Q-16.35 19.2 -16.8 16.8 L-17.2 16.35 -19.0 12.95 Q-19.05 14.75 -19.65 18.6 L-20.45 23.85 -22.25 20.0 -25.65 11.65 -24.6 6.15 -23.5 1.3 -24.25 1.9 -27.9 4.6 -28.1 4.6 -27.75 4.2 Q-26.85 2.35 -25.55 0.7 L-26.4 0.8 -31.3 1.25 Q-29.75 0.25 -28.4 -2.25 L-24.35 -9.95 Q-26.15 -11.3 -30.7 -13.4 L-32.95 -14.35 -24.95 -16.75 Q-12.15 -23.4 -9.05 -24.55 L-17.45 -27.75 -17.7 -28.0 0.2 -27.3 Q11.2 -26.9 13.55 -25.95 15.85 -25.0 19.4 -20.75 M22.0 -23.8 L22.0 -23.75 22.2 -21.95 22.3 -16.5 23.85 -13.8 23.35 -14.4 Q20.7 -18.0 18.7 -20.2 L15.2 -23.7 13.9 -24.65 12.3 -25.2 Q9.7 -26.1 0.05 -26.6 L-15.5 -27.35 Q-12.05 -26.35 -7.45 -24.55 L-1.85 -22.25 -3.15 -22.65 -7.6 -24.05 Q-26.3 -15.6 -31.2 -14.1 L-23.55 -11.1 -21.15 -13.95 Q-19.2 -16.25 -20.05 -15.0 L-21.75 -12.6 -23.45 -9.65 -29.15 0.5 -29.8 0.65 -26.35 0.1 -22.2 -0.65 -24.8 0.15 -26.05 2.05 -27.0 3.35 -27.25 3.6 -27.15 3.5 -22.35 -0.05 -22.95 2.3 -25.15 11.3 -22.9 17.05 -20.75 21.75 -20.15 16.65 -19.5 11.9 -20.95 8.6 -17.25 14.9 Q-16.15 16.7 -12.1 19.0 L-6.35 22.25 -7.25 21.25 Q-9.75 18.6 -12.9 13.9 L-17.6 6.9 Q-18.9 6.1 -20.15 4.4 -14.85 7.85 -10.8 10.0 -13.05 4.5 -13.15 -4.8 -12.45 0.6 6.4 8.4 5.85 7.95 3.6 -0.95 1.25 -10.25 1.0 -12.6 0.7 -15.0 0.9 -14.05 1.35 -12.1 3.55 -4.95 10.95 1.2 13.35 3.9 L13.6 4.15 14.55 5.65 Q18.85 -1.35 18.5 -4.0 18.2 -6.1 15.9 -9.5 18.45 -6.55 18.9 -5.4 L19.35 -3.7 19.05 -0.75 19.4 0.05 18.65 10.9 Q15.5 20.6 13.85 22.2 L18.3 18.5 24.35 12.8 Q24.6 9.3 24.0 4.0 25.8 12.6 25.25 12.9 25.8 12.75 22.1 16.0 22.15 16.45 24.2 19.35 L26.45 22.55 28.0 17.15 Q28.9 14.0 27.65 6.7 L26.3 -1.6 26.25 -2.0 25.65 -4.35 Q26.9 -0.8 29.9 1.4 L31.2 2.35 30.7 0.4 Q30.05 -1.45 27.3 -5.45 28.95 -5.9 29.5 -6.35 L30.95 -8.45 Q31.9 -9.85 32.05 -10.55 L31.1 -10.45 28.75 -10.15 26.35 -7.45 28.6 -11.85 29.3 -13.25 29.1 -13.1 26.4 -10.45 26.45 -10.75 Q27.0 -12.35 26.9 -14.05 26.8 -15.85 25.05 -19.15 23.55 -21.85 22.05 -23.75 L22.0 -23.8 M21.35 -10.1 L23.15 -5.35 23.35 -4.8 20.05 -2.1 Q22.3 -4.05 22.25 -5.35 22.2 -6.9 20.6 -11.1 L19.85 -5.65 19.35 -4.65 20.4 -12.65 21.35 -10.1 M15.5 21.8 L16.05 25.9 17.1 23.25 19.2 18.5 15.5 21.6 15.5 21.8 M-12.35 19.65 L-12.75 19.45 -14.9 26.45 -8.65 21.45 -12.35 19.65 M-14.1 18.75 L-16.2 17.4 -15.65 21.85 -15.55 22.75 -15.25 22.05 -14.25 19.15 -14.1 18.75" fill="#000000" fill-rule="evenodd" stroke="none"/>
    </g>
  </defs>
</svg>
