<?xml version="1.0" encoding="UTF-8" standalone="no"?>
<svg xmlns:ffdec="https://www.free-decompiler.com/flash" xmlns:xlink="http://www.w3.org/1999/xlink" ffdec:objectType="frame" height="66.7px" width="66.7px" xmlns="http://www.w3.org/2000/svg">
  <g transform="matrix(1.0, 0.0, 0.0, 1.0, 33.55, 42.6)">
    <use ffdec:characterId="4" height="26.0" transform="matrix(0.9341, 0.0, 0.0, 0.9557, -1.55, -33.5)" width="30.45" xlink:href="#sprite0"/>
    <use ffdec:characterId="4" height="26.0" transform="matrix(-0.9341, 0.0, 0.0, 0.9557, 1.65, -33.5)" width="30.45" xlink:href="#sprite0"/>
    <use ffdec:characterId="6" height="27.1" transform="matrix(1.0, 0.0, 0.0, 1.0, 5.45, -20.7)" width="12.9" xlink:href="#sprite1"/>
    <use ffdec:characterId="8" height="27.3" transform="matrix(1.0, 0.0, 0.0, 1.0, -19.95, -25.05)" width="28.0" xlink:href="#sprite2"/>
    <use ffdec:characterId="2" height="43.95" transform="matrix(0.7195, 0.0562, -0.0959, 0.8642, 17.55, -15.05)" width="22.15" xlink:href="#sprite3"/>
    <use ffdec:characterId="2" height="43.95" transform="matrix(-0.8057, 0.0202, 0.0502, 0.9269, -16.1, -17.75)" width="22.15" xlink:href="#sprite3"/>
    <use ffdec:characterId="14" height="38.6" transform="matrix(1.0, 0.0, 0.0, 1.044, -24.6, -25.6)" width="17.5" xlink:href="#sprite4"/>
    <use ffdec:characterId="14" height="38.6" transform="matrix(-1.0, 0.0, 0.0, 1.044, 25.0, -25.6)" width="17.5" xlink:href="#sprite4"/>
    <use ffdec:characterId="10" height="35.5" transform="matrix(1.0, 0.0, 0.0, 1.0, -33.55, -24.35)" width="17.1" xlink:href="#sprite5"/>
    <use ffdec:characterId="10" height="35.5" transform="matrix(-1.0236, -0.0727, 0.0279, 1.109, 32.2, -24.75)" width="17.1" xlink:href="#sprite5"/>
    <use ffdec:characterId="12" height="13.4" transform="matrix(1.0, 0.0, 0.0, 1.0, -6.6, -42.6)" width="12.6" xlink:href="#sprite6"/>
  </g>
  <defs>
    <g id="sprite0">
      <use ffdec:characterId="3" height="26.0" transform="matrix(1.0, 0.0, 0.0, 1.0, 0.0, 0.0)" width="30.45" xlink:href="#shape0"/>
    </g>
    <g id="shape0">
      <path d="M17.9 5.45 L19.15 6.2 21.65 8.15 24.4 11.9 Q25.45 13.35 26.0 15.05 L25.3 13.85 Q23.9 11.25 21.9 9.2 L17.9 5.45" fill="#966f2d" fill-rule="evenodd" stroke="none"/>
      <path d="M26.0 15.05 Q26.65 16.3 26.85 17.8 L26.95 18.45 24.1 13.8 Q22.55 11.2 20.45 9.2 L16.5 5.65 15.9 5.15 15.4 5.75 14.2 5.5 14.4 4.3 9.45 2.1 5.6 0.7 Q8.55 0.7 11.3 1.85 13.85 2.8 16.2 4.35 L17.9 5.45 21.9 9.2 Q23.9 11.25 25.3 13.85 L26.0 15.05 M10.45 7.35 L10.4 7.55 10.0 7.55 9.95 7.4 10.1 7.25 10.4 7.25 10.45 7.35 M12.45 7.15 L12.15 6.95 12.1 6.75 Q12.1 6.15 13.3 6.15 L13.7 6.45 Q13.05 7.15 12.45 7.15" fill="#fff9fd" fill-rule="evenodd" stroke="none"/>
      <path d="M26.95 18.45 L27.5 20.4 Q28.2 22.75 28.05 25.1 L28.1 25.7 24.85 24.75 23.55 24.3 Q22.05 22.35 20.25 20.7 18.5 19.15 16.5 18.2 14.3 17.2 11.95 16.35 L5.55 14.75 0.35 14.0 Q-1.2 12.15 -1.8 10.0 -2.35 8.0 -2.1 5.9 -1.8 3.45 -0.2 1.65 0.15 1.25 0.75 1.1 L2.5 0.65 5.6 0.7 9.45 2.1 14.4 4.3 14.2 5.5 15.4 5.75 15.9 5.15 16.5 5.65 20.45 9.2 Q22.55 11.2 24.1 13.8 L26.95 18.45 M12.45 7.15 Q13.05 7.15 13.7 6.45 L13.3 6.15 Q12.1 6.15 12.1 6.75 L12.15 6.95 12.45 7.15 M10.45 7.35 L10.4 7.25 10.1 7.25 9.95 7.4 10.0 7.55 10.4 7.55 10.45 7.35" fill="#ff7cce" fill-rule="evenodd" stroke="none"/>
      <path d="M10.6 1.95 Q5.4 0.25 0.0 1.1 7.35 -1.45 14.25 1.95 20.5 5.0 24.45 10.75 27.95 15.8 28.2 21.75 L28.1 26.0 Q27.65 18.2 23.5 11.75 21.95 9.35 19.75 7.3 15.7 3.55 10.6 1.95" fill="#81114c" fill-rule="evenodd" stroke="none"/>
    </g>
    <g id="sprite1">
      <use ffdec:characterId="5" height="27.1" transform="matrix(1.0, 0.0, 0.0, 1.0, 0.0, 0.0)" width="12.9" xlink:href="#shape1"/>
    </g>
    <g id="shape1">
      <path d="M7.6 18.3 L7.55 18.05 Q7.25 15.95 6.75 14.85 L5.65 11.7 5.3 10.7 4.9 10.25 3.8 8.95 2.35 7.55 2.15 7.35 Q1.2 7.25 0.55 5.4 0.0 3.85 0.0 2.7 0.0 0.95 0.95 0.35 L1.85 0.15 2.9 0.0 Q5.0 0.0 7.65 2.7 9.0 4.05 10.0 5.5 L11.2 8.15 12.0 10.25 Q12.55 12.35 12.55 14.35 12.55 15.75 12.2 16.85 L10.95 19.6 9.5 22.45 Q8.35 24.5 7.6 24.5 7.25 24.5 7.2 24.3 L7.2 24.0 7.75 21.05 8.15 20.2 8.4 19.4 Q9.95 16.25 9.15 12.75 L8.1 9.35 7.6 8.25 6.0 5.5 Q5.0 4.15 3.45 3.25 0.45 2.05 0.4 4.8 2.3 6.45 4.15 8.6 L5.6 10.65 5.55 10.85 5.7 11.45 Q5.9 12.0 6.3 12.05 L6.85 13.8 7.6 16.55 7.6 18.3 M10.6 11.2 L10.35 10.2 9.95 9.45 Q9.6 8.7 9.25 8.6 L8.75 8.3 8.5 8.05 8.35 8.25 Q8.35 8.6 8.85 9.95 9.1 11.6 9.4 11.6 L9.7 11.4 10.25 11.65 Q10.6 11.65 10.6 11.2" fill="#ffa8de" fill-rule="evenodd" stroke="none"/>
      <path d="M6.3 12.05 Q5.9 12.0 5.7 11.45 L5.55 10.85 5.6 10.65 6.15 10.6 Q6.7 11.05 6.7 11.55 6.7 12.05 6.35 12.05 L6.3 12.05 M10.6 11.2 Q10.6 11.65 10.25 11.65 L9.7 11.4 9.4 11.6 Q9.1 11.6 8.85 9.95 8.35 8.6 8.35 8.25 L8.5 8.05 8.75 8.3 9.25 8.6 Q9.6 8.7 9.95 9.45 L10.35 10.2 10.6 11.2" fill="#fff9fd" fill-rule="evenodd" stroke="none"/>
      <path d="M7.6 16.55 L6.85 13.8 6.3 12.05 6.35 12.05 Q6.7 12.05 6.7 11.55 6.7 11.05 6.15 10.6 L5.6 10.65 4.15 8.6 Q2.3 6.45 0.4 4.8 0.45 2.05 3.45 3.25 5.0 4.15 6.0 5.5 L7.6 8.25 Q6.6 6.45 3.95 4.45 6.0 8.2 6.8 10.9 7.6 13.65 7.6 16.55" fill="#ff69c7" fill-rule="evenodd" stroke="none"/>
      <path d="M7.75 21.05 L7.6 18.3 7.6 16.55 Q7.6 13.65 6.8 10.9 6.0 8.2 3.95 4.45 6.6 6.45 7.6 8.25 L8.1 9.35 Q8.85 12.25 8.9 15.15 8.95 17.3 8.4 19.4 L8.15 20.2 7.75 21.05" fill="#f237ac" fill-rule="evenodd" stroke="none"/>
      <path d="M8.1 9.35 L9.15 12.75 Q9.95 16.25 8.4 19.4 8.95 17.3 8.9 15.15 8.85 12.25 8.1 9.35" fill="#966f2d" fill-rule="evenodd" stroke="none"/>
      <path d="M6.6 6.0 Q8.9 9.2 9.4 13.25 10.05 18.8 7.8 23.9 10.65 21.05 11.75 17.3 12.7 14.15 12.05 10.95 13.95 15.8 11.6 20.1 9.35 24.15 5.65 27.0 L5.5 27.1 4.95 26.7 Q6.95 24.35 7.1 21.05 7.4 15.15 4.0 10.4 2.6 8.4 0.9 6.75 L1.3 6.6 Q4.95 8.95 6.7 13.1 7.8 15.75 8.35 18.65 8.7 13.1 7.05 7.8 L6.6 6.0" fill="#81114c" fill-rule="evenodd" stroke="none"/>
    </g>
    <g id="sprite2">
      <use ffdec:characterId="7" height="27.3" transform="matrix(1.0, 0.0, 0.0, 1.0, 0.0, 0.0)" width="28.0" xlink:href="#shape2"/>
    </g>
    <g id="shape2">
      <path d="M22.75 10.2 Q22.45 10.25 22.45 10.7 L22.5 10.95 22.8 10.95 23.05 10.5 22.75 10.2 M22.1 9.35 L21.8 9.7 21.35 9.45 Q21.0 9.3 20.75 9.7 L20.6 10.2 20.9 10.55 20.55 11.0 20.15 11.85 20.2 12.05 20.55 12.2 Q21.35 12.2 22.05 11.1 L22.6 9.75 Q22.6 8.9 22.1 9.35 M17.75 21.2 L18.25 20.7 21.15 17.55 23.8 14.1 Q25.4 11.6 25.95 8.8 26.45 6.05 25.45 3.5 25.4 5.4 24.8 7.45 24.0 10.1 22.45 12.25 L18.9 16.85 Q17.05 19.2 14.75 21.05 L9.9 24.4 9.55 24.55 9.25 24.7 6.7 25.55 9.25 23.6 12.45 20.25 15.85 16.25 18.9 12.25 Q20.6 9.95 21.45 7.35 22.4 4.55 22.1 1.6 L18.35 3.5 Q16.2 4.55 13.9 6.4 11.55 8.15 9.8 10.1 L6.25 14.4 Q4.45 16.9 3.2 19.6 L0.65 24.95 Q0.6 24.15 0.7 23.4 1.0 20.5 1.95 17.8 L3.85 12.8 6.75 9.1 Q7.85 7.5 9.35 6.05 L12.8 2.95 Q14.3 1.75 16.25 1.0 18.4 0.25 20.55 0.05 23.2 -0.3 25.3 1.05 27.4 2.5 27.8 4.8 28.2 6.95 27.75 9.15 L27.05 11.4 24.7 15.7 Q23.4 17.7 21.5 19.2 19.8 20.55 17.75 21.2 M15.05 4.6 L14.95 4.45 Q13.4 4.85 11.55 7.3 L11.65 7.35 Q15.05 4.95 15.05 4.6 M11.65 5.1 L11.8 5.5 12.2 5.9 12.95 5.5 13.45 5.0 Q13.45 4.7 13.05 4.7 L12.5 4.55 Q11.65 4.55 11.65 5.1 M26.25 11.8 L26.55 11.3 26.3 10.9 25.75 10.95 Q25.3 11.4 25.3 11.9 L25.35 12.1 25.4 12.15 25.35 12.15 24.45 14.0 24.45 14.1 24.65 14.2 Q25.45 14.2 26.25 11.8" fill="#ffa8de" fill-rule="evenodd" stroke="none"/>
      <path d="M22.1 9.35 Q22.6 8.9 22.6 9.75 L22.05 11.1 Q21.35 12.2 20.55 12.2 L20.2 12.05 20.15 11.85 20.55 11.0 20.9 10.55 20.6 10.2 20.75 9.7 Q21.0 9.3 21.35 9.45 L21.8 9.7 22.1 9.35 M22.75 10.2 L23.05 10.5 22.8 10.95 22.5 10.95 22.45 10.7 Q22.45 10.25 22.75 10.2 M26.25 11.8 Q25.45 14.2 24.65 14.2 L24.45 14.1 24.45 14.0 25.35 12.15 25.4 12.15 25.35 12.1 25.3 11.9 Q25.3 11.4 25.75 10.95 L26.3 10.9 26.55 11.3 26.25 11.8 M11.65 5.1 Q11.65 4.55 12.5 4.55 L13.05 4.7 Q13.45 4.7 13.45 5.0 L12.95 5.5 12.2 5.9 11.8 5.5 11.65 5.1 M15.05 4.6 Q15.05 4.95 11.65 7.35 L11.55 7.3 Q13.4 4.85 14.95 4.45 L15.05 4.6" fill="#fff9fd" fill-rule="evenodd" stroke="none"/>
      <path d="M9.9 24.4 L14.75 21.05 Q17.05 19.2 18.9 16.85 L22.45 12.25 Q24.0 10.1 24.8 7.45 25.4 5.4 25.45 3.5 26.45 6.05 25.95 8.8 25.4 11.6 23.8 14.1 L21.15 17.55 18.25 20.7 17.75 21.2 17.1 21.8 16.4 21.65 Q13.85 23.2 11.3 24.0 L9.9 24.4 M19.45 7.6 Q19.0 10.2 17.65 12.45 L14.4 17.3 10.55 21.85 Q8.45 24.0 5.85 25.4 L7.95 21.95 Q9.0 19.8 10.2 17.85 11.4 15.9 12.85 14.25 L15.5 11.15 19.45 7.6 M0.75 26.3 Q1.4 23.75 2.9 21.4 L5.9 16.7 Q7.4 14.3 9.15 12.25 10.85 10.2 13.35 8.35 15.8 6.45 18.85 5.3 16.45 7.2 14.7 9.3 L12.1 12.4 Q10.75 13.95 9.5 15.75 L6.5 19.85 3.65 23.7 Q2.5 25.2 0.85 26.25 L0.75 26.3" fill="#ff5bc1" fill-rule="evenodd" stroke="none"/>
      <path d="M0.65 24.95 L3.2 19.6 Q4.45 16.9 6.25 14.4 L9.8 10.1 Q11.55 8.15 13.9 6.4 16.2 4.55 18.35 3.5 L22.1 1.6 Q22.4 4.55 21.45 7.35 20.6 9.95 18.9 12.25 L15.85 16.25 12.45 20.25 9.25 23.6 6.7 25.55 9.25 24.7 6.6 26.1 5.45 26.35 5.85 25.0 5.7 24.6 7.6 20.0 4.0 24.05 3.0 25.0 Q2.0 25.8 0.85 26.25 2.5 25.2 3.65 23.7 L6.5 19.85 9.5 15.75 Q10.75 13.95 12.1 12.4 L14.7 9.3 Q16.45 7.2 18.85 5.3 15.8 6.45 13.35 8.35 10.85 10.2 9.15 12.25 7.4 14.3 5.9 16.7 L2.9 21.4 Q1.4 23.75 0.75 26.3 L0.65 26.3 Q-0.5 27.1 0.65 24.95 M19.45 7.6 L15.5 11.15 12.85 14.25 Q11.4 15.9 10.2 17.85 9.0 19.8 7.95 21.95 L5.85 25.4 Q8.45 24.0 10.55 21.85 L14.4 17.3 17.65 12.45 Q19.0 10.2 19.45 7.6 M10.6 16.15 L13.5 12.6 11.1 15.4 10.6 16.15" fill="#ff7cce" fill-rule="evenodd" stroke="none"/>
      <path d="M10.6 16.15 L11.1 15.4 13.5 12.6 10.6 16.15" fill="#8e6e37" fill-rule="evenodd" stroke="none"/>
      <path d="M1.85 16.35 Q3.1 12.7 5.2 9.75 8.55 4.95 13.75 2.35 L10.2 5.45 Q6.85 8.45 4.85 12.1 1.3 18.8 0.45 26.45 L2.05 24.9 Q6.1 20.85 9.65 16.4 13.3 11.85 18.05 8.65 14.7 11.65 11.8 15.0 7.5 19.85 5.5 25.9 L6.35 21.6 Q3.55 24.85 0.0 27.3 L0.3 26.5 0.0 26.15 Q0.25 21.0 1.85 16.35 M11.5 23.6 L10.05 24.5 Q7.95 25.8 5.6 26.65 L10.25 23.75 Q16.9 18.85 22.4 12.3 L20.1 15.85 Q16.75 20.65 11.5 23.6 17.6 21.15 22.5 16.9 25.55 14.35 26.9 10.65 28.1 7.25 27.6 3.7 28.3 6.6 27.8 9.45 26.75 15.15 22.2 18.8 17.4 22.6 11.5 23.6" fill="#81114c" fill-rule="evenodd" stroke="none"/>
    </g>
    <g id="sprite3">
      <use ffdec:characterId="1" height="43.95" transform="matrix(1.0, 0.0, 0.0, 1.0, 0.0, 0.0)" width="22.15" xlink:href="#shape3"/>
    </g>
    <g id="shape3">
      <path d="M11.7 34.25 L8.7 33.5 9.2 33.1 9.35 33.5 11.6 34.05 11.7 34.25" fill="#966f2d" fill-rule="evenodd" stroke="none"/>
      <path d="M9.2 33.1 L9.25 33.05 9.25 33.1 9.2 33.1" fill="#b3873c" fill-rule="evenodd" stroke="none"/>
      <path d="M10.9 9.15 L13.65 14.0 15.9 19.2 Q16.85 21.9 16.95 24.85 17.05 27.7 15.15 29.95 13.35 32.15 10.5 32.6 L9.75 32.6 9.4 32.6 Q10.85 28.75 10.75 24.6 L10.75 23.4 Q10.3 20.85 9.25 18.35 L8.95 17.6 Q10.9 20.2 11.75 23.3 12.35 25.65 11.95 28.1 11.55 30.35 10.25 32.05 L10.4 32.05 Q13.25 31.45 14.85 29.3 16.45 27.15 16.05 24.0 15.65 20.85 14.8 18.25 13.95 15.65 12.6 13.4 11.25 11.1 10.45 8.75 L10.1 7.65 10.9 9.15 M6.85 28.95 L9.15 31.95 Q7.2 31.45 5.8 30.0 L6.85 24.45 7.15 19.9 Q7.7 22.4 7.55 24.95 7.45 26.9 6.85 28.95 M8.1 37.2 L9.4 39.3 10.1 42.25 9.15 42.9 Q8.25 43.3 8.05 41.9 L8.15 41.9 Q8.95 41.95 9.0 41.35 9.05 40.1 8.35 40.15 8.1 40.2 7.95 40.4 L8.1 37.2 M12.3 38.9 L12.55 39.1 12.65 39.5 12.5 39.65 12.3 39.8 Q12.0 39.8 11.85 39.4 L11.8 39.0 Q11.8 38.5 12.25 38.85 L12.3 38.9 M16.15 32.25 Q18.2 30.2 18.6 27.35 19.0 24.4 17.9 21.6 L15.85 16.25 14.1 11.6 15.15 13.85 16.9 17.15 Q18.15 19.9 18.9 22.7 19.5 25.05 19.25 27.3 18.8 30.3 16.45 32.05 L16.15 32.25 M12.85 22.05 Q12.75 20.3 10.55 15.0 L9.7 13.65 Q11.7 16.0 12.35 18.15 13.05 20.25 12.85 22.05" fill="#ffa8de" fill-rule="evenodd" stroke="none"/>
      <path d="M-0.15 34.25 L0.7 34.05 3.05 31.6 0.95 35.25 Q0.4 35.15 -0.1 34.6 L-0.15 34.25 M15.0 25.7 L14.65 25.85 14.3 25.75 14.05 25.9 13.75 26.05 Q13.4 26.0 13.2 25.8 L13.1 25.55 Q13.1 25.35 14.15 25.1 15.15 24.95 15.1 25.55 L15.0 25.7 M5.1 30.25 L4.8 30.45 4.4 30.2 4.25 29.9 Q4.25 29.75 4.8 29.45 5.25 29.2 5.2 29.85 L5.1 30.25 M7.95 40.4 Q8.1 40.2 8.35 40.15 9.05 40.1 9.0 41.35 8.95 41.95 8.15 41.9 L8.05 41.9 7.6 41.65 7.6 41.35 Q7.65 40.65 7.95 40.4" fill="#fff9fd" fill-rule="evenodd" stroke="none"/>
      <path d="M11.7 6.0 L12.15 6.9 14.1 11.6 15.85 16.25 17.9 21.6 Q19.0 24.4 18.6 27.35 18.2 30.2 16.15 32.25 L15.3 32.8 Q13.55 33.85 11.6 34.05 L9.35 33.5 9.2 33.1 8.7 33.5 11.7 34.25 Q13.05 35.1 13.65 36.65 14.55 39.05 14.95 41.55 L13.85 41.6 12.65 39.5 12.55 39.1 12.3 38.9 11.6 37.6 10.75 37.55 10.35 36.75 10.25 36.75 10.2 36.95 11.0 40.2 11.25 42.1 Q11.4 43.2 11.75 43.45 L11.7 43.5 11.45 43.85 10.6 43.2 10.4 42.45 9.4 39.3 8.1 37.2 7.65 38.2 Q6.75 40.3 7.0 42.8 L6.95 42.8 5.5 38.3 5.85 35.4 1.1 35.6 0.95 35.25 3.05 31.6 0.7 34.05 -0.15 34.25 Q-0.35 31.7 0.75 29.65 2.6 26.15 3.8 22.5 4.4 20.7 5.65 19.15 L5.6 20.3 Q5.05 24.15 3.6 27.6 2.9 29.3 3.95 31.0 5.15 32.95 7.55 32.75 L6.25 32.1 4.5 31.3 5.8 30.0 Q7.2 31.45 9.15 31.95 L6.85 28.95 Q7.8 28.7 8.4 27.85 10.0 25.4 9.75 22.65 L9.3 20.15 10.75 23.4 10.75 24.6 Q10.85 28.75 9.4 32.6 L9.75 32.6 10.5 32.6 Q13.35 32.15 15.15 29.95 17.05 27.7 16.95 24.85 16.85 21.9 15.9 19.2 L13.65 14.0 10.9 9.15 Q10.7 7.35 11.4 5.8 L11.1 4.65 11.7 6.0 M9.2 33.1 L9.25 33.1 9.25 33.05 9.2 33.1" fill="#f237ac" fill-rule="evenodd" stroke="none"/>
      <path d="M11.7 6.0 L11.1 4.65 11.4 5.8 Q10.7 7.35 10.9 9.15 L10.1 7.65 10.45 8.75 Q11.25 11.1 12.6 13.4 13.95 15.65 14.8 18.25 15.65 20.85 16.05 24.0 16.45 27.15 14.85 29.3 13.25 31.45 10.4 32.05 L10.25 32.05 Q11.55 30.35 11.95 28.1 12.35 25.65 11.75 23.3 10.9 20.2 8.95 17.6 L9.25 18.35 Q10.3 20.85 10.75 23.4 L9.3 20.15 9.75 22.65 Q10.0 25.4 8.4 27.85 7.8 28.7 6.85 28.95 7.45 26.9 7.55 24.95 7.7 22.4 7.15 19.9 L6.85 24.45 5.8 30.0 4.5 31.3 6.25 32.1 7.55 32.75 Q5.15 32.95 3.95 31.0 2.9 29.3 3.6 27.6 5.05 24.15 5.6 20.3 L5.65 19.15 Q4.4 20.7 3.8 22.5 2.6 26.15 0.75 29.65 -0.35 31.7 -0.15 34.25 L-0.1 34.6 Q0.4 35.15 0.95 35.25 L1.1 35.6 -1.45 35.05 -1.9 34.4 -1.8 33.8 Q-1.3 30.95 0.4 28.65 2.15 26.35 3.0 23.7 L4.45 18.15 Q5.0 15.85 5.15 13.45 L5.3 8.05 4.8 5.65 Q3.55 2.8 4.95 0.35 L5.85 0.1 Q7.85 0.95 9.05 2.5 9.15 2.1 9.5 1.8 9.6 1.65 9.95 1.65 L10.25 2.35 11.7 6.0 M5.5 38.3 L6.95 42.8 5.9 42.65 5.5 38.3 M7.0 42.8 Q6.75 40.3 7.65 38.2 L8.1 37.2 7.95 40.4 Q7.65 40.65 7.6 41.35 L7.6 41.65 8.05 41.9 Q8.25 43.3 9.15 42.9 L10.1 42.25 9.4 39.3 10.4 42.45 10.6 43.2 7.0 42.8 M11.75 43.45 Q11.4 43.2 11.25 42.1 L11.0 40.2 10.2 36.95 10.25 36.75 10.35 36.75 10.75 37.55 11.6 37.6 12.3 38.9 12.25 38.85 Q11.8 38.5 11.8 39.0 L11.85 39.4 Q12.0 39.8 12.3 39.8 L12.5 39.65 12.65 39.5 13.85 41.6 12.15 40.7 12.2 42.5 12.25 43.0 12.05 43.5 12.0 43.65 11.9 43.7 11.85 43.5 11.75 43.45 M12.85 22.05 Q13.05 20.25 12.35 18.15 11.7 16.0 9.7 13.65 L10.55 15.0 Q12.75 20.3 12.85 22.05 M15.0 25.7 L15.1 25.55 Q15.15 24.95 14.15 25.1 13.1 25.35 13.1 25.55 L13.2 25.8 Q13.4 26.0 13.75 26.05 L14.05 25.9 14.3 25.75 14.65 25.85 15.0 25.7 M5.1 30.25 L5.2 29.85 Q5.25 29.2 4.8 29.45 4.25 29.75 4.25 29.9 L4.4 30.2 4.8 30.45 5.1 30.25" fill="#ff7cce" fill-rule="evenodd" stroke="none"/>
      <path d="M10.1 1.5 Q12.2 5.4 13.85 9.8 15.35 13.95 17.7 17.75 20.15 21.75 20.05 26.3 20.0 31.3 15.4 33.75 12.35 35.4 9.15 33.75 7.95 34.35 6.8 34.9 5.65 37.1 5.85 39.6 L6.35 42.75 10.6 42.9 11.4 43.45 11.85 43.1 12.0 40.4 Q12.05 40.3 12.1 40.35 13.3 40.8 14.45 41.4 L12.85 36.95 11.9 34.85 Q13.2 35.5 13.9 36.7 15.45 39.35 15.15 42.3 L15.0 42.75 14.85 42.85 14.3 42.7 13.85 42.25 13.15 41.75 12.85 41.5 12.6 41.25 12.5 41.1 12.5 41.6 12.45 42.55 12.4 43.2 12.15 43.65 11.95 44.0 11.45 44.05 11.15 43.9 10.95 43.7 10.9 43.5 10.85 43.35 8.35 43.95 5.9 43.15 5.4 41.7 Q4.45 38.4 5.85 35.25 2.9 36.7 -0.6 35.85 -1.5 35.7 -1.85 34.65 -2.65 32.3 -1.1 31.4 L-1.1 31.6 -1.35 33.95 -1.35 34.3 -1.2 34.65 Q0.25 35.6 1.95 35.3 5.4 34.7 8.3 32.65 9.05 32.1 9.7 32.25 L9.75 32.4 9.8 32.55 9.8 32.7 9.7 33.15 Q12.7 33.9 15.4 32.5 17.75 31.2 18.65 28.75 20.15 24.65 18.05 20.55 L13.05 9.45 10.05 1.5 10.1 1.5" fill="#81114c" fill-rule="evenodd" stroke="none"/>
    </g>
    <g id="sprite4">
      <use ffdec:characterId="13" height="38.6" transform="matrix(1.0, 0.0, 0.0, 1.0, 0.0, 0.0)" width="17.5" xlink:href="#shape4"/>
    </g>
    <g id="shape4">
      <path d="M6.65 33.2 L6.05 32.45 Q9.05 34.45 11.65 37.15 L11.65 37.2 11.05 36.85 6.65 33.2" fill="#b3873c" fill-rule="evenodd" stroke="none"/>
      <path d="M3.15 30.9 L3.15 30.8 5.45 32.65 5.8 33.05 5.65 33.1 Q4.2 32.35 3.15 30.9" fill="#966f2d" fill-rule="evenodd" stroke="none"/>
      <path d="M7.55 20.9 Q7.25 18.15 7.75 15.35 8.2 12.6 9.35 10.3 L11.8 5.15 12.25 4.0 Q10.9 4.95 9.25 7.65 7.6 10.35 7.0 13.1 6.4 15.8 6.1 19.75 5.75 23.65 6.85 26.9 7.95 30.15 8.95 31.6 L11.55 34.45 Q10.95 31.95 9.85 29.65 8.9 27.6 8.45 25.45 L9.25 27.55 13.65 36.85 Q11.1 34.95 8.9 32.55 5.45 28.95 5.15 23.85 5.05 25.05 5.1 26.3 5.15 27.6 5.45 28.8 L4.55 25.4 Q3.5 20.8 4.6 16.3 5.45 12.8 7.4 9.5 4.1 13.95 2.4 19.25 0.75 24.25 2.6 29.15 L3.15 30.8 3.15 30.9 1.9 28.9 Q0.0 25.2 0.55 19.6 1.05 13.95 3.75 9.6 6.45 5.25 9.9 2.45 13.0 0.05 17.05 -0.2 L14.15 2.8 Q10.65 6.75 8.95 11.7 7.35 16.2 7.55 20.9 M5.7 15.05 Q5.05 15.4 5.05 15.95 5.05 16.7 5.6 16.7 6.05 16.7 6.35 15.3 6.35 14.7 5.7 15.05 M1.75 16.2 L1.95 16.7 2.9 15.55 Q2.9 14.9 2.35 15.25 1.75 15.6 1.75 16.2" fill="#ffa8de" fill-rule="evenodd" stroke="none"/>
      <path d="M8.45 25.45 Q8.9 27.6 9.85 29.65 10.95 31.95 11.55 34.45 L8.95 31.6 Q7.95 30.15 6.85 26.9 5.75 23.65 6.1 19.75 6.4 15.8 7.0 13.1 7.6 10.35 9.25 7.65 10.9 4.95 12.25 4.0 L11.8 5.15 9.35 10.3 Q8.2 12.6 7.75 15.35 7.25 18.15 7.55 20.9 L8.45 25.45 M5.7 15.05 Q6.35 14.7 6.35 15.3 6.05 16.7 5.6 16.7 5.05 16.7 5.05 15.95 5.05 15.4 5.7 15.05 M1.75 16.2 Q1.75 15.6 2.35 15.25 2.9 14.9 2.9 15.55 L1.95 16.7 1.75 16.2" fill="#fff9fd" fill-rule="evenodd" stroke="none"/>
      <path d="M2.6 29.15 Q0.75 24.25 2.4 19.25 4.1 13.95 7.4 9.5 5.45 12.8 4.6 16.3 3.5 20.8 4.55 25.4 L5.45 28.8 Q5.15 27.6 5.1 26.3 5.05 25.05 5.15 23.85 5.45 28.95 8.9 32.55 11.1 34.95 13.65 36.85 L14.45 37.9 14.15 38.0 13.4 37.6 Q12.3 37.05 12.05 37.05 L11.65 37.15 Q9.05 34.45 6.05 32.45 L6.65 33.2 6.1 32.85 6.05 32.9 Q2.7 28.4 3.0 20.2 1.9 23.45 2.6 29.15" fill="#ff69c7" fill-rule="evenodd" stroke="none"/>
      <path d="M3.15 30.8 L2.6 29.15 Q1.9 23.45 3.0 20.2 2.7 28.4 6.05 32.9 L5.8 33.05 5.45 32.65 3.15 30.8" fill="#f237ac" fill-rule="evenodd" stroke="none"/>
      <path d="M0.8 19.55 Q0.3 24.3 2.35 28.55 3.55 31.15 5.6 32.35 L4.9 30.95 7.7 33.2 Q10.2 35.6 13.35 37.45 11.2 35.45 10.05 32.9 7.8 27.95 7.2 22.3 6.45 14.85 9.75 8.3 11.9 4.05 15.55 1.2 L17.5 0.0 Q15.55 1.7 13.9 3.65 11.4 6.4 10.05 10.0 8.0 15.5 8.55 21.3 9.15 27.7 12.3 33.15 13.55 35.35 15.3 37.45 L15.95 38.4 Q14.3 38.4 12.7 37.8 9.05 36.55 6.6 33.55 5.15 33.35 3.9 32.5 1.4 30.7 0.65 27.75 -0.55 23.05 0.5 18.25 1.2 14.9 2.7 11.85 1.25 15.5 0.8 19.55" fill="#81114c" fill-rule="evenodd" stroke="none"/>
    </g>
    <g id="sprite5">
      <use ffdec:characterId="9" height="35.5" transform="matrix(1.0, 0.0, 0.0, 1.0, 0.0, 0.0)" width="17.1" xlink:href="#shape5"/>
    </g>
    <g id="shape5">
      <path d="M4.9 13.45 L6.9 10.25 9.1 7.4 10.25 6.05 10.65 5.4 11.45 4.7 11.4 4.45 Q11.4 4.0 12.65 3.15 L13.1 2.6 Q13.6 2.1 14.0 1.95 L14.45 1.55 15.0 1.15 16.2 0.3 17.1 0.35 15.05 2.15 14.0 2.95 13.5 3.5 12.7 4.3 12.45 4.6 11.8 4.95 9.8 7.4 8.7 8.9 8.75 8.9 6.75 12.15 5.85 12.65 4.9 13.45 M3.0 20.6 L2.6 22.1 Q2.05 23.75 2.05 25.15 2.05 26.8 2.4 28.85 L3.0 30.6 Q3.55 32.15 5.9 33.6 L5.95 33.6 Q6.85 33.8 7.0 34.2 L8.95 35.15 8.95 35.3 8.1 35.3 6.3 34.75 Q3.45 34.5 1.65 30.35 L1.15 29.0 0.9 28.6 0.6 27.45 0.6 27.25 0.35 25.5 Q0.35 22.25 2.45 17.95 L2.95 18.5 2.05 22.05 3.0 20.6" fill="#ff69c7" fill-rule="evenodd" stroke="none"/>
      <path d="M6.75 12.15 L3.0 20.6 2.05 22.05 2.95 18.5 2.45 17.95 2.7 17.15 Q3.4 15.1 4.9 13.45 L5.85 12.65 6.75 12.15" fill="#ffa8de" fill-rule="evenodd" stroke="none"/>
      <path d="M15.7 0.5 Q10.8 4.5 5.85 12.2 0.6 20.45 0.6 25.15 0.6 28.35 1.85 30.75 3.9 34.6 8.9 35.0 L8.75 35.4 7.6 35.5 Q3.3 35.5 1.25 31.0 0.0 28.2 0.0 25.15 0.0 20.4 5.3 12.15 10.55 4.1 15.7 0.5 M14.45 2.65 Q10.8 5.45 6.6 13.45 2.35 21.55 2.35 25.85 2.35 28.15 3.35 30.15 4.7 32.75 7.6 34.25 L7.6 34.3 7.2 34.3 Q4.3 33.35 2.85 30.4 1.8 28.25 1.8 25.9 1.8 21.45 6.05 13.4 10.4 4.95 14.45 2.65" fill="#81114c" fill-rule="evenodd" stroke="none"/>
    </g>
    <g id="sprite6">
      <use ffdec:characterId="11" height="13.4" transform="matrix(1.0, 0.0, 0.0, 1.0, 0.0, 0.0)" width="12.6" xlink:href="#shape6"/>
    </g>
    <g id="shape6">
      <path d="M11.6 3.6 L10.1 3.35 Q7.85 3.35 6.25 5.15 4.8 6.75 4.8 8.5 L5.0 9.5 6.05 10.35 7.4 11.2 Q8.1 11.55 8.1 12.0 L7.7 12.75 6.85 13.4 4.45 13.4 Q1.7 11.9 0.95 10.7 0.35 9.85 0.35 7.95 0.35 5.8 2.1 3.2 3.85 0.55 5.4 0.6 L7.1 0.6 7.6 0.85 8.05 0.75 Q8.35 0.75 10.2 1.9 L11.3 2.45 Q12.1 2.85 12.1 3.15 12.1 3.6 11.6 3.6 M7.25 2.7 Q7.25 1.55 5.5 1.55 3.3 1.55 2.1 4.05 1.25 5.7 1.25 7.0 L1.45 8.45 Q1.8 9.8 2.6 9.8 3.8 9.8 4.2 8.7 4.5 7.15 4.95 6.35 5.25 5.7 6.2 4.55 L7.0 3.5 7.25 2.7" fill="#ff69c7" fill-rule="evenodd" stroke="none"/>
      <path d="M7.25 2.7 L7.0 3.5 6.2 4.55 Q5.25 5.7 4.95 6.35 4.5 7.15 4.2 8.7 3.8 9.8 2.6 9.8 1.8 9.8 1.45 8.45 L1.25 7.0 Q1.25 5.7 2.1 4.05 3.3 1.55 5.5 1.55 7.25 1.55 7.25 2.7 M2.7 3.95 Q2.1 4.4 2.1 5.4 2.1 6.1 2.65 6.1 3.25 6.1 3.85 5.35 L4.35 4.25 Q4.35 3.2 3.25 3.6 L3.15 3.65 Q2.85 3.7 2.7 3.95 M5.8 3.55 Q5.8 3.2 5.35 3.2 4.6 3.2 4.6 3.9 4.6 4.4 5.1 4.4 5.35 4.4 5.6 4.05 L5.8 3.55" fill="#ffa8de" fill-rule="evenodd" stroke="none"/>
      <path d="M5.8 3.55 L5.6 4.05 Q5.35 4.4 5.1 4.4 4.6 4.4 4.6 3.9 4.6 3.2 5.35 3.2 5.8 3.2 5.8 3.55 M2.7 3.95 Q2.85 3.7 3.15 3.65 L3.25 3.6 Q4.35 3.2 4.35 4.25 L3.85 5.35 Q3.25 6.1 2.65 6.1 2.1 6.1 2.1 5.4 2.1 4.4 2.7 3.95" fill="#fff9fd" fill-rule="evenodd" stroke="none"/>
      <path d="M12.6 4.8 L10.75 3.85 Q8.95 3.75 7.6 4.65 2.55 8.15 7.45 11.3 4.4 11.15 4.65 8.3 5.2 1.7 11.75 3.4 10.45 1.75 8.45 1.3 3.4 -0.1 1.55 4.85 -0.85 11.2 5.9 13.25 L4.4 13.3 Q-1.3 11.95 0.4 5.65 2.25 -1.25 9.1 0.3 10.35 0.6 11.3 1.45 12.8 2.85 12.6 4.8" fill="#81114c" fill-rule="evenodd" stroke="none"/>
    </g>
  </defs>
</svg>
