<?xml version="1.0" encoding="UTF-8" standalone="no"?>
<svg xmlns:ffdec="https://www.free-decompiler.com/flash" xmlns:xlink="http://www.w3.org/1999/xlink" ffdec:objectType="frame" height="38.5px" width="49.8px" xmlns="http://www.w3.org/2000/svg">
  <g transform="matrix(1.0, 0.0, 0.0, 1.0, 25.35, 22.3)">
    <use ffdec:characterId="3" height="38.5" transform="matrix(1.0, 0.0, 0.0, 1.0, -0.45, -3.05)" width="49.8" xlink:href="#shape0"/>
  </g>
  <defs>
    <g id="shape0">
      <path d="M12.95 -13.55 L11.4 -13.85 Q10.2 -14.05 9.85 -14.45 9.6 -14.7 9.25 -15.65 8.75 -16.5 7.75 -16.5 L6.4 -16.35 5.65 -16.2 Q4.75 -16.2 4.5 -16.65 L4.25 -17.5 Q3.4 -16.75 2.7 -16.75 1.85 -16.75 1.55 -17.15 L1.1 -17.7 Q0.1 -16.7 -2.45 -16.1 L-7.45 -15.3 -10.0 -14.75 -11.8 -14.1 -12.95 -12.95 -13.1 -12.8 Q-13.75 -12.3 -13.9 -12.3 -14.5 -12.3 -14.45 -13.05 L-14.4 -13.1 -14.85 -13.3 Q-16.15 -13.85 -17.1 -13.85 -18.85 -13.85 -18.95 -13.45 L-19.3 -12.4 -21.3 -10.8 -22.45 -10.25 -22.7 -9.55 -23.15 -7.7 Q-23.15 -7.0 -21.85 -5.6 L-20.95 -4.5 -19.55 -3.55 Q-19.55 -2.95 -20.4 -2.95 L-20.65 -2.95 -21.05 -1.7 Q-21.6 -0.1 -21.6 1.3 -21.6 4.25 -21.15 6.05 -20.65 8.15 -19.3 10.0 -14.6 16.25 -11.25 17.3 L-8.0 17.6 -4.3 17.4 Q-3.8 17.4 -3.55 17.8 L-3.4 18.2 Q-3.4 18.7 -3.95 18.9 L-7.45 19.25 Q-12.4 19.25 -15.65 16.7 -17.6 15.2 -20.8 10.7 -23.2 7.2 -23.2 1.3 -23.2 -0.25 -22.7 -1.8 L-22.25 -3.4 -22.55 -3.85 -23.7 -5.1 -24.9 -7.3 Q-24.9 -9.0 -23.95 -11.1 -23.15 -12.85 -21.95 -13.6 L-20.1 -14.95 Q-18.75 -15.85 -17.55 -15.9 -16.25 -15.65 -14.95 -14.9 -14.25 -14.5 -13.9 -14.15 L-13.8 -14.1 -13.65 -14.05 -12.45 -15.25 Q-11.55 -15.9 -7.15 -16.8 L-1.6 -17.9 Q-0.45 -18.15 0.45 -19.0 L2.05 -19.05 2.7 -18.5 Q3.45 -19.0 4.3 -19.0 5.35 -19.0 5.6 -18.4 L5.95 -17.8 7.75 -18.05 Q9.45 -18.05 10.25 -16.9 11.05 -15.7 11.2 -15.65 L14.15 -14.7 Q15.25 -15.2 18.2 -15.4 21.55 -15.25 23.45 -12.5 24.9 -10.45 24.9 -8.55 L24.85 -7.95 24.9 -7.1 Q24.9 -6.2 24.2 -5.3 23.5 -4.4 23.5 -2.9 L23.95 1.85 Q23.95 4.4 23.4 6.2 L21.45 11.3 Q20.6 13.5 18.05 15.7 14.15 19.0 8.9 19.0 L4.65 18.65 Q2.7 18.3 2.7 18.05 2.7 17.75 4.05 17.45 L6.1 17.15 6.85 17.3 10.15 17.4 Q12.2 17.4 15.75 15.3 19.2 13.25 19.2 12.25 L18.9 11.2 Q18.9 10.65 20.65 7.7 22.4 4.7 22.4 1.9 L22.15 -0.5 21.9 -2.6 21.9 -3.0 21.2 -3.9 20.55 -5.0 Q20.55 -5.7 21.95 -6.75 23.3 -7.75 23.3 -8.65 23.3 -9.9 22.15 -11.6 20.5 -14.0 17.7 -14.0 L15.7 -13.75 15.4 -13.7 15.45 -13.45 Q15.45 -12.7 14.7 -12.7 14.5 -12.7 13.75 -13.1 L12.95 -13.55" fill="#000000" fill-rule="evenodd" stroke="none"/>
      <path d="M22.1 -12.65 L22.2 -12.55 22.2 -12.5 22.1 -12.65 M-1.35 11.3 L-1.8 11.45 -1.4 11.25 -1.35 11.3" fill="#653201" fill-rule="evenodd" stroke="none"/>
      <path d="M18.5 -6.3 Q16.1 -6.25 15.1 -7.4 13.85 -9.75 14.5 -10.85 15.15 -12.0 16.35 -12.9 17.55 -13.85 20.35 -12.6 L20.65 -12.3 21.4 -7.75 20.9 -6.9 Q19.75 -6.3 18.5 -6.3 M-20.3 -12.1 Q-18.4 -13.15 -17.05 -12.6 L-16.25 -12.3 -15.5 -11.55 Q-14.7 -10.45 -15.3 -8.85 -16.0 -7.75 -17.15 -7.2 L-17.05 -6.9 -18.0 -6.5 -20.5 -6.6 -21.65 -7.6 Q-21.95 -9.1 -21.85 -10.55 L-20.3 -12.1" fill="#000000" fill-rule="evenodd" stroke="none"/>
      <path d="M-1.25 11.3 L-1.35 11.3 -1.4 11.25 -1.3 11.2 -1.25 11.3" fill="#660000" fill-rule="evenodd" stroke="none"/>
      <path d="M22.2 -12.55 Q24.05 -10.75 24.05 -8.5 24.05 -7.05 22.45 -5.3 L21.55 -4.45 22.45 -2.95 23.0 -1.25 23.2 -0.3 23.0 4.25 21.7 9.2 Q20.9 11.65 18.6 14.0 16.25 16.3 14.85 17.05 L12.35 18.0 10.6 18.35 8.35 18.55 6.2 18.35 6.15 18.3 -1.4 18.7 -3.3 19.05 -5.15 18.55 -5.25 18.5 -8.1 18.7 -11.2 18.1 -12.35 17.75 -12.4 17.7 Q-16.15 15.55 -19.2 11.55 -20.55 9.8 -21.3 7.8 -22.35 5.15 -22.35 2.05 -22.35 -1.05 -21.95 -2.1 L-20.85 -3.8 Q-22.75 -4.25 -23.6 -6.2 -24.15 -7.5 -24.2 -8.75 -24.2 -9.95 -23.55 -11.0 -23.45 -9.2 -23.0 -7.5 L-22.0 -6.55 Q-21.25 -6.05 -20.9 -5.25 L-20.1 -5.25 -19.95 -5.1 -19.65 -4.5 -19.05 -4.4 Q-18.2 -4.5 -18.1 -3.8 L-19.05 -3.7 -19.65 -3.35 -19.45 -2.95 Q-19.5 -2.5 -19.7 -2.45 -20.45 -2.3 -19.95 -2.15 L-19.95 -1.95 -20.5 0.55 Q-20.7 3.25 -19.65 5.75 L-19.65 6.6 -19.55 8.45 -19.35 8.85 Q-18.8 10.1 -17.55 10.7 -16.35 11.3 -15.4 12.2 L-13.0 13.75 -10.4 14.4 -9.55 14.5 Q-7.2 14.95 -5.35 15.8 -3.55 16.6 -0.1 16.3 L4.0 15.8 5.75 14.75 7.15 13.45 9.7 13.8 Q13.4 13.8 16.05 11.2 17.95 9.35 18.5 7.0 L19.05 5.5 Q19.2 4.25 19.95 3.25 L19.95 2.45 19.9 1.4 20.15 -1.8 20.05 -1.95 18.95 -4.0 16.75 -5.35 Q17.1 -5.15 17.65 -5.05 20.3 -4.4 21.85 -6.4 24.05 -9.35 22.2 -12.5 L22.2 -12.55 M-18.1 -14.4 Q-15.6 -14.75 -13.95 -13.65 L-13.5 -13.3 -12.25 -14.35 Q-9.25 -16.65 -5.2 -16.45 -2.75 -16.3 0.05 -18.25 L1.25 -18.9 Q1.7 -18.8 1.8 -17.6 L2.8 -18.05 3.8 -18.5 Q4.5 -18.5 4.7 -17.9 L4.8 -17.1 Q6.45 -17.65 8.1 -17.1 9.7 -16.55 9.7 -15.35 11.75 -15.25 13.25 -14.1 L13.7 -13.7 14.2 -14.1 Q15.7 -15.15 17.9 -14.75 15.85 -14.15 14.35 -12.2 L12.15 -12.6 Q10.05 -13.05 8.45 -14.05 L8.35 -14.9 7.6 -15.1 Q7.1 -15.0 7.0 -15.3 6.95 -16.25 5.75 -15.8 L4.1 -15.7 4.0 -16.85 3.75 -16.85 2.75 -16.25 2.2 -16.15 1.7 -16.45 1.2 -16.25 Q0.75 -16.05 0.55 -16.25 L0.55 -16.35 0.4 -16.65 0.15 -17.15 Q-2.3 -15.9 -4.9 -15.7 -8.75 -15.1 -11.45 -12.4 L-12.5 -12.2 -13.15 -11.35 -13.15 -11.15 -13.1 -10.95 -13.1 -10.9 -13.55 -10.75 Q-14.05 -10.7 -13.75 -11.05 -13.25 -11.7 -13.75 -12.45 L-15.3 -13.95 -15.95 -14.25 -18.1 -14.4 M-1.3 11.2 L-1.1 10.9 -1.05 10.65 Q-0.5 10.25 -0.4 9.7 L-0.4 9.65 0.2 9.3 0.4 9.25 1.15 9.55 Q1.45 10.3 2.1 10.8 L2.3 11.2 -0.95 11.15 -1.25 11.3 -1.3 11.2" fill="#999999" fill-rule="evenodd" stroke="none"/>
      <path d="M17.9 -14.75 L18.2 -14.7 Q20.45 -14.2 22.1 -12.65 L22.2 -12.5 Q24.05 -9.35 21.85 -6.4 20.3 -4.4 17.65 -5.05 17.1 -5.15 16.75 -5.35 L18.95 -4.0 20.05 -1.95 20.15 -1.8 19.9 1.4 19.95 2.45 19.95 3.25 Q19.2 4.25 19.05 5.5 L18.5 7.0 18.7 5.05 Q18.7 1.45 16.05 -1.15 13.4 -3.7 9.7 -3.7 6.0 -3.7 3.35 -1.15 0.7 1.45 0.7 5.05 0.7 8.65 3.35 11.2 5.05 12.85 7.15 13.45 L5.75 14.75 4.0 15.8 -0.1 16.3 Q-3.55 16.6 -5.35 15.8 -7.2 14.95 -9.55 14.5 L-10.4 14.4 -13.0 13.75 -15.4 12.2 Q-16.35 11.3 -17.55 10.7 -18.8 10.1 -19.35 8.85 L-19.55 8.45 -19.65 6.6 -19.65 5.75 Q-20.7 3.25 -20.5 0.55 L-19.95 -1.95 -19.95 -2.15 Q-20.45 -2.3 -19.7 -2.45 -19.5 -2.5 -19.45 -2.95 L-19.65 -3.35 -19.05 -3.7 -18.1 -3.8 Q-18.2 -4.5 -19.05 -4.4 L-19.65 -4.5 -19.95 -5.1 -20.1 -5.25 -20.9 -5.25 Q-21.25 -6.05 -22.0 -6.55 L-23.0 -7.5 Q-23.45 -9.2 -23.55 -11.0 L-22.3 -12.5 Q-20.55 -14.0 -18.15 -14.4 L-18.1 -14.4 -15.95 -14.25 -15.3 -13.95 -13.75 -12.45 Q-13.25 -11.7 -13.75 -11.05 -14.05 -10.7 -13.55 -10.75 L-13.1 -10.9 -13.1 -10.95 -13.15 -11.15 -13.15 -11.35 -12.5 -12.2 -11.45 -12.4 Q-8.75 -15.1 -4.9 -15.7 -2.3 -15.9 0.15 -17.15 L0.4 -16.65 0.55 -16.35 0.55 -16.25 Q0.75 -16.05 1.2 -16.25 L1.7 -16.45 2.2 -16.15 2.75 -16.25 3.75 -16.85 4.0 -16.85 4.1 -15.7 5.75 -15.8 Q6.95 -16.25 7.0 -15.3 7.1 -15.0 7.6 -15.1 L8.35 -14.9 8.45 -14.05 Q10.05 -13.05 12.15 -12.6 L14.35 -12.2 Q15.85 -14.15 17.9 -14.75 M18.5 -6.3 Q19.75 -6.3 20.9 -6.9 L21.4 -7.75 20.65 -12.3 20.35 -12.6 Q17.55 -13.85 16.35 -12.9 15.15 -12.0 14.5 -10.85 13.85 -9.75 15.1 -7.4 16.1 -6.25 18.5 -6.3 M-20.3 -12.1 L-21.85 -10.55 Q-21.95 -9.1 -21.65 -7.6 L-20.5 -6.6 -18.0 -6.5 -17.05 -6.9 -17.15 -7.2 Q-16.0 -7.75 -15.3 -8.85 -14.7 -10.45 -15.5 -11.55 L-16.25 -12.3 -17.05 -12.6 Q-18.4 -13.15 -20.3 -12.1 M-8.55 -3.7 Q-12.25 -3.7 -14.9 -1.15 -17.55 1.45 -17.55 5.05 -17.55 8.65 -14.9 11.2 -12.25 13.8 -8.55 13.8 -4.85 13.8 -2.2 11.2 0.45 8.65 0.45 5.05 0.45 1.45 -2.2 -1.15 -4.85 -3.7 -8.55 -3.7 M-1.25 11.3 L-0.95 11.15 2.3 11.2 2.1 10.8 Q1.45 10.3 1.15 9.55 L0.4 9.25 0.2 9.3 -0.4 9.65 -0.4 9.7 Q-0.5 10.25 -1.05 10.65 L-1.1 10.9 -1.3 11.2 -1.4 11.25 -1.8 11.45 -1.35 11.3 -1.25 11.3" fill="#cccccc" fill-rule="evenodd" stroke="none"/>
      <path d="M7.15 13.45 Q5.05 12.85 3.35 11.2 0.7 8.65 0.7 5.05 0.7 1.45 3.35 -1.15 6.0 -3.7 9.7 -3.7 13.4 -3.7 16.05 -1.15 18.7 1.45 18.7 5.05 L18.5 7.0 Q17.95 9.35 16.05 11.2 13.4 13.8 9.7 13.8 L7.15 13.45 M9.7 -2.7 Q6.4 -2.7 4.05 -0.45 1.7 1.85 1.7 5.05 1.7 8.25 4.05 10.5 6.4 12.8 9.7 12.8 L10.6 12.75 Q12.55 12.55 14.2 11.45 L15.35 10.5 Q17.7 8.25 17.7 5.05 17.7 1.85 15.35 -0.45 13.0 -2.7 9.7 -2.7 M-8.55 -3.7 Q-4.85 -3.7 -2.2 -1.15 0.45 1.45 0.45 5.05 0.45 8.65 -2.2 11.2 -4.85 13.8 -8.55 13.8 -12.25 13.8 -14.9 11.2 -17.55 8.65 -17.55 5.05 -17.55 1.45 -14.9 -1.15 -12.25 -3.7 -8.55 -3.7 M-2.9 -0.45 Q-5.25 -2.7 -8.55 -2.7 -11.85 -2.7 -14.2 -0.45 -16.55 1.85 -16.55 5.05 -16.55 8.25 -14.2 10.5 -11.85 12.8 -8.55 12.8 -5.25 12.8 -2.9 10.5 -0.55 8.25 -0.55 5.05 -0.55 1.85 -2.9 -0.45" fill="#666666" fill-rule="evenodd" stroke="none"/>
      <path d="M15.8 -9.75 Q17.15 -10.8 18.95 -10.55 L20.0 -9.35 20.3 -7.4 20.15 -7.25 Q19.55 -6.4 18.8 -6.05 16.5 -6.1 15.95 -8.35 L15.8 -9.75" fill="#ffcccc" fill-rule="evenodd" stroke="none"/>
      <path d="M18.8 -6.05 Q19.55 -6.4 20.15 -7.25 L20.3 -7.4 20.0 -9.35 18.95 -10.55 Q17.15 -10.8 15.8 -9.75 L15.9 -10.8 Q15.9 -12.35 18.8 -12.5 21.65 -12.65 21.65 -9.5 L21.45 -7.55 Q20.9 -6.05 18.95 -6.05 L18.8 -6.05" fill="#a66159" fill-rule="evenodd" stroke="none"/>
      <path d="M-20.25 -6.65 Q-20.85 -7.8 -20.2 -9.35 L-18.7 -10.4 -17.95 -10.55 Q-16.2 -11.2 -15.3 -9.95 -15.45 -9.2 -16.05 -8.3 L-16.6 -7.5 -16.65 -7.45 Q-17.7 -6.4 -19.1 -6.4 L-20.25 -6.65" fill="#ffcccc" fill-rule="evenodd" stroke="none"/>
      <path d="M-15.3 -9.95 Q-16.2 -11.2 -17.95 -10.55 L-18.7 -10.4 -20.2 -9.35 Q-20.85 -7.8 -20.25 -6.65 L-21.05 -7.45 -21.25 -8.55 Q-21.25 -10.75 -18.2 -11.55 -15.2 -12.4 -15.2 -10.6 L-15.3 -9.95" fill="#a66159" fill-rule="evenodd" stroke="none"/>
      <path d="M3.05 14.6 Q1.95 15.25 0.4 15.25 -1.2 15.25 -2.35 14.6 -3.45 13.9 -3.45 13.0 -3.45 12.1 -2.35 11.4 -1.2 10.75 0.4 10.75 1.95 10.75 3.05 11.4 4.25 12.1 4.25 13.0 4.25 13.9 3.05 14.6" fill="#000000" fill-rule="evenodd" stroke="none"/>
      <path d="M0.6 13.2 Q0.15 13.6 -0.55 13.6 -1.25 13.6 -1.75 13.2 -2.25 12.9 -2.25 12.4 -2.25 11.95 -1.75 11.55 L-0.55 11.25 Q0.15 11.25 0.6 11.55 1.15 11.95 1.15 12.4 1.15 12.9 0.6 13.2" fill="#666666" fill-rule="evenodd" stroke="none"/>
    </g>
  </defs>
</svg>
