<?xml version="1.0" encoding="UTF-8" standalone="no"?>
<svg xmlns:ffdec="https://www.free-decompiler.com/flash" xmlns:xlink="http://www.w3.org/1999/xlink" ffdec:objectType="frame" height="51.5px" width="57.65px" xmlns="http://www.w3.org/2000/svg">
  <g transform="matrix(1.0, 0.0, 0.0, 1.0, 28.9, 33.55)">
    <use ffdec:characterId="5" height="51.5" transform="matrix(1.0, 0.0, 0.0, 1.0, -28.9, -33.55)" width="57.65" xlink:href="#sprite0"/>
  </g>
  <defs>
    <g id="sprite0">
      <use ffdec:characterId="4" height="51.5" transform="matrix(1.0, 0.0, 0.0, 1.0, 0.0, 0.0)" width="57.65" xlink:href="#shape0"/>
    </g>
    <g id="shape0">
      <path d="M43.6 5.5 L43.85 5.6 45.2 6.15 46.15 6.6 Q52.65 11.0 54.45 17.05 L54.8 18.3 Q55.45 20.2 55.9 23.5 56.4 27.95 56.4 32.45 L56.5 34.55 56.65 33.05 56.65 39.65 56.45 37.75 Q56.55 43.3 52.55 47.75 51.85 48.15 51.3 48.65 L52.2 47.75 50.2 49.1 49.15 49.75 48.0 50.1 46.55 50.45 45.8 50.4 46.1 50.3 47.7 49.6 47.85 49.65 48.1 49.4 Q52.15 47.1 51.1 42.6 50.8 47.3 45.5 49.3 L45.45 49.3 45.35 49.3 44.35 49.6 44.1 49.55 44.7 49.15 45.0 48.95 45.0 48.9 45.2 48.75 46.5 47.6 47.85 45.15 45.75 47.85 45.7 47.85 45.45 47.85 44.25 48.4 Q46.2 47.05 47.5 44.75 L46.95 45.45 Q45.1 47.7 42.3 48.8 L43.25 47.5 42.3 48.35 Q40.55 49.7 38.45 49.55 39.85 48.9 41.45 48.35 42.3 47.9 42.5 47.25 L37.15 49.7 38.9 48.65 Q37.0 49.25 35.45 50.15 35.35 50.15 35.3 50.25 L34.85 50.4 Q33.55 50.35 33.2 49.9 L33.1 49.75 33.9 50.1 34.6 50.15 33.05 49.3 33.05 49.25 32.75 48.95 32.4 48.65 32.5 48.45 34.55 48.1 35.1 48.05 Q40.6 46.5 44.8 43.45 L47.25 41.5 47.4 41.35 47.95 40.65 Q48.6 38.85 49.2 38.15 L49.55 38.05 Q52.95 36.65 53.6 33.6 L50.1 37.1 Q49.25 37.85 47.85 38.15 L48.55 37.6 45.6 38.55 43.4 39.1 Q44.2 38.55 44.9 38.15 51.75 33.2 51.35 25.35 L51.15 26.85 Q50.0 34.95 42.45 39.45 L42.35 39.35 42.3 39.25 41.65 39.85 41.4 39.5 43.9 36.1 Q46.5 31.2 45.0 25.1 44.8 25.25 44.75 25.55 43.85 29.05 41.25 32.05 L41.95 30.65 Q44.0 26.05 42.3 21.45 L42.3 23.05 41.95 21.75 41.95 22.0 41.8 23.7 41.25 20.7 Q42.25 28.85 36.25 34.95 L36.9 33.1 35.4 35.45 35.35 35.4 35.4 35.5 34.95 36.25 Q31.05 31.75 27.65 27.0 L25.75 23.4 Q28.0 26.7 30.3 28.3 29.6 26.95 27.65 24.35 L24.85 20.35 Q24.3 19.5 23.7 18.25 L26.7 21.45 27.15 21.9 29.8 24.95 Q33.6 29.15 34.2 33.9 L34.35 33.85 34.55 33.15 Q35.3 31.75 35.35 29.1 L35.3 28.45 35.35 27.75 35.15 25.15 34.6 22.7 34.0 20.75 34.45 21.95 Q34.5 22.35 34.7 22.75 L35.2 25.1 35.4 25.05 35.4 24.5 Q35.1 20.65 33.35 17.8 L34.35 19.55 Q35.85 22.55 36.45 27.75 L36.5 27.75 36.05 30.5 35.55 32.45 35.8 32.7 36.45 31.3 Q37.55 30.9 39.05 27.6 40.45 24.45 40.5 22.9 40.55 19.65 40.1 18.15 L41.8 19.8 42.2 20.3 42.95 21.7 43.65 24.15 43.5 25.85 43.55 26.05 Q44.05 24.2 44.15 22.25 L44.1 20.8 43.85 19.7 43.9 19.8 44.0 20.1 Q43.3 14.95 40.05 11.05 L40.2 11.05 Q41.55 12.3 42.55 13.9 43.65 15.1 44.35 16.6 L44.35 16.55 44.4 16.25 45.45 17.65 44.5 15.25 44.55 15.1 46.35 17.8 Q45.7 15.85 44.65 14.5 46.3 16.5 47.2 19.15 L47.1 18.35 Q46.6 15.2 45.9 13.45 43.4 7.6 33.6 4.1 L33.65 3.95 34.0 3.95 34.65 3.95 34.65 3.9 35.9 3.85 35.95 3.9 36.15 3.9 36.35 3.9 37.4 4.05 Q40.15 4.4 43.85 6.5 L44.05 6.65 44.15 6.7 44.4 6.85 44.45 6.85 44.65 7.0 45.9 7.75 45.5 7.6 Q49.9 10.9 52.05 16.1 L52.3 16.75 51.7 15.05 Q50.75 12.8 49.7 11.2 L48.5 10.0 47.8 9.15 49.65 11.05 Q46.85 7.25 43.15 5.4 L43.6 5.5 M48.35 17.8 L48.35 17.75 48.3 17.6 48.35 17.8 M52.5 15.2 L52.2 14.75 52.5 15.3 52.55 15.35 52.5 15.2 M54.35 24.25 Q54.25 27.45 53.5 27.7 53.4 27.85 53.45 27.95 53.0 29.35 51.55 31.85 52.75 28.95 52.65 25.4 L52.5 23.7 52.2 22.9 Q53.4 31.95 45.7 38.1 L45.0 38.6 Q48.35 36.65 50.3 34.05 51.8 33.2 53.15 30.2 54.3 27.35 54.35 25.15 L54.35 22.85 54.35 24.25 M56.7 26.45 L56.7 25.9 56.75 27.1 56.7 28.0 56.6 27.1 56.7 26.45 M43.5 39.7 L42.7 39.55 45.05 39.3 43.5 39.7 M50.05 48.3 L50.2 48.2 50.05 48.3 M51.4 48.95 L52.65 48.15 Q54.5 46.25 55.45 43.85 55.0 45.65 53.85 47.25 L53.6 47.5 52.35 48.6 51.5 49.0 51.4 48.95 M21.8 16.1 Q22.8 18.45 23.9 20.4 L22.85 18.9 22.8 18.95 26.85 26.5 29.35 31.55 28.85 31.0 28.4 30.6 29.0 30.95 27.7 29.8 Q25.6 27.95 24.3 25.85 L23.4 24.6 23.7 25.3 23.35 24.9 23.25 25.3 23.25 25.1 22.8 27.2 Q22.15 30.7 19.75 33.35 L21.05 32.1 22.1 30.6 Q20.65 33.8 18.8 33.8 L18.6 33.75 21.5 30.05 22.2 27.9 Q22.65 26.2 22.7 24.45 L22.3 26.25 Q21.3 31.2 16.75 34.95 L16.75 35.0 16.4 34.65 16.35 34.75 15.7 34.05 15.6 34.05 15.2 33.95 13.3 30.15 14.0 31.4 Q14.95 33.4 16.75 34.95 12.95 29.3 13.65 22.9 L13.75 22.05 13.85 21.1 14.05 20.4 Q14.0 23.35 14.6 26.45 15.4 30.6 16.9 31.45 L16.95 31.35 16.9 31.25 17.05 31.3 16.8 31.75 17.0 31.85 Q18.5 31.1 19.6 27.85 20.55 25.1 20.55 23.05 L20.45 21.45 20.4 20.2 Q20.9 22.4 20.9 24.25 20.85 27.8 18.8 32.3 L19.0 32.4 Q20.35 31.25 21.15 28.6 21.75 26.5 21.75 24.45 L21.3 20.85 21.95 21.85 Q23.5 24.3 25.85 25.6 L26.05 25.45 25.4 24.95 25.55 24.9 25.6 24.7 Q24.4 22.8 23.1 19.8 L21.5 15.9 21.8 16.1 M1.85 24.55 L1.85 24.85 1.85 25.4 Q1.95 29.15 3.55 31.7 4.25 33.2 5.15 34.05 L5.15 34.0 4.35 32.45 4.6 32.7 4.8 32.6 Q4.15 31.2 3.65 29.2 3.05 27.05 3.1 25.6 3.1 23.05 4.2 19.8 L4.0 21.85 Q4.0 24.5 5.65 27.95 7.3 31.35 9.55 32.85 10.0 33.65 10.75 34.25 L10.8 34.15 Q9.05 29.75 8.75 27.6 8.5 26.2 8.5 21.85 L8.7 20.25 Q8.75 21.45 9.3 23.35 9.95 25.7 11.0 26.55 11.65 27.6 12.35 27.95 L12.75 29.55 Q13.3 31.4 14.45 33.25 13.9 33.1 13.25 32.25 12.7 32.05 11.9 30.9 L13.15 32.0 Q9.9 28.45 9.25 24.0 L9.1 24.25 8.95 23.95 Q8.85 24.15 8.9 24.4 9.25 30.15 13.15 34.5 L14.55 35.85 14.5 36.0 Q15.85 37.1 17.4 37.75 L17.45 37.9 17.4 38.15 17.15 38.2 15.55 37.65 15.35 37.75 15.2 37.7 14.55 37.85 12.8 37.3 14.75 37.65 Q9.85 36.45 6.75 33.2 10.1 36.15 14.3 36.8 9.85 35.6 6.85 32.85 L6.1 32.1 5.6 31.4 4.4 28.7 3.9 26.55 3.65 24.15 3.7 23.2 3.65 22.15 3.65 21.85 3.55 22.3 3.45 24.1 Q3.45 27.25 4.4 30.15 L4.15 29.75 Q5.9 37.2 13.05 41.45 8.3 39.35 4.7 36.1 3.65 34.35 3.15 32.3 L2.95 32.35 2.8 32.35 Q3.3 34.05 4.0 35.35 L3.35 34.7 4.35 36.0 Q5.65 38.4 8.0 40.25 L8.2 40.05 5.6 37.4 8.65 39.75 8.4 39.45 8.45 39.15 8.6 39.15 9.5 40.25 9.55 40.3 9.55 40.35 10.4 41.3 11.75 42.6 14.9 45.15 Q17.55 46.7 20.8 47.6 L22.3 47.9 24.1 48.05 Q25.15 48.05 25.4 48.55 L25.45 48.55 25.5 48.9 25.3 49.2 22.9 50.1 16.75 47.8 20.75 49.65 18.35 49.1 16.55 48.5 17.1 48.9 16.0 48.6 Q14.1 47.9 12.85 47.0 L12.3 46.6 12.75 47.5 11.25 45.0 11.9 46.35 Q12.95 49.0 15.8 50.45 L15.8 50.55 15.65 50.65 Q8.55 47.75 6.75 42.15 7.45 46.45 10.45 50.15 4.3 47.3 2.3 42.7 2.4 43.45 2.85 44.25 L2.2 43.45 3.25 45.45 2.65 44.85 Q0.65 41.45 0.75 37.6 0.85 31.85 1.8 26.2 1.75 25.25 1.85 24.4 L1.85 24.55 M13.4 20.2 Q12.9 22.35 12.9 23.8 L13.0 24.95 13.1 24.95 13.3 24.3 Q12.95 27.0 13.45 29.6 12.25 26.35 12.85 22.9 L12.7 23.25 12.85 21.65 Q12.95 21.05 13.4 20.2 M38.4 33.4 Q37.45 35.3 36.2 35.55 L38.4 33.4 M9.65 48.45 L9.05 47.8 7.9 45.35 9.65 48.45 M5.25 32.15 Q6.0 33.6 7.0 34.65 8.5 37.55 11.05 40.05 6.8 36.8 5.25 32.15" fill="#c7c1af" fill-rule="evenodd" stroke="none"/>
      <path d="M52.4 11.95 L52.45 11.8 52.75 12.5 52.9 12.9 52.4 11.95 M44.45 6.85 L44.4 6.85 44.15 6.7 44.45 6.85 M47.8 9.15 L48.5 10.0 49.7 11.2 Q50.75 12.8 51.7 15.05 L52.3 16.75 52.05 16.1 Q49.9 10.9 45.5 7.6 L45.9 7.75 Q46.9 8.4 47.8 9.15 M45.9 13.45 Q46.6 15.2 47.1 18.35 L47.2 19.15 Q46.3 16.5 44.65 14.5 45.7 15.85 46.35 17.8 L44.55 15.1 44.5 15.25 45.45 17.65 44.4 16.25 44.35 16.55 44.35 16.6 Q43.65 15.1 42.55 13.9 41.55 12.3 40.2 11.05 L40.05 11.05 Q43.3 14.95 44.0 20.1 L43.9 19.8 43.85 19.7 43.9 19.8 44.1 20.8 44.15 22.25 Q44.05 24.2 43.55 26.05 L43.5 25.85 43.65 24.15 42.95 21.7 42.2 20.3 41.8 19.8 40.1 18.15 Q40.55 19.65 40.5 22.9 40.45 24.45 39.05 27.6 37.55 30.9 36.45 31.3 L35.8 32.7 35.55 32.45 36.05 30.5 36.5 27.75 36.45 27.75 Q35.85 22.55 34.35 19.55 L33.35 17.8 Q35.1 20.65 35.4 24.5 L35.4 25.05 35.2 25.1 34.7 22.75 Q34.5 22.35 34.45 21.95 L34.0 20.75 34.6 22.7 35.15 25.15 35.35 27.75 35.3 28.45 35.35 29.1 Q35.3 31.75 34.55 33.15 L34.35 33.85 34.2 33.9 Q33.6 29.15 29.8 24.95 L27.15 21.9 26.7 21.45 23.7 18.25 Q24.3 19.5 24.85 20.35 L27.65 24.35 Q29.6 26.95 30.3 28.3 28.0 26.7 25.75 23.4 L23.9 20.4 Q22.8 18.45 21.8 16.1 L21.5 15.9 23.1 19.8 Q24.4 22.8 25.6 24.7 L25.55 24.9 25.4 24.95 26.05 25.45 25.85 25.6 Q23.5 24.3 21.95 21.85 L21.3 20.85 21.75 24.45 Q21.75 26.5 21.15 28.6 20.35 31.25 19.0 32.4 L18.8 32.3 Q20.85 27.8 20.9 24.25 20.9 22.4 20.4 20.2 L20.45 21.45 20.55 23.05 Q20.55 25.1 19.6 27.85 18.5 31.1 17.0 31.85 L16.8 31.75 17.05 31.3 16.9 31.25 16.95 31.35 16.9 31.45 Q15.4 30.6 14.6 26.45 14.0 23.35 14.05 20.4 L13.85 21.1 13.75 22.05 Q13.4 23.15 13.3 24.3 L13.1 24.95 13.0 24.95 12.9 23.8 Q12.9 22.35 13.4 20.2 12.95 21.05 12.85 21.65 L12.7 23.25 Q12.1 24.65 12.3 26.2 L12.1 25.05 Q12.0 26.1 12.25 27.35 L12.3 27.65 12.35 27.95 Q11.65 27.6 11.0 26.55 9.95 25.7 9.3 23.35 8.75 21.45 8.7 20.25 L8.5 21.85 Q8.5 26.2 8.75 27.6 9.05 29.75 10.8 34.15 L10.75 34.25 Q10.0 33.65 9.55 32.85 7.3 31.35 5.65 27.95 4.0 24.5 4.0 21.85 L4.2 19.8 Q3.1 23.05 3.1 25.6 3.05 27.05 3.65 29.2 4.15 31.2 4.8 32.6 L4.6 32.7 4.35 32.45 5.15 34.0 5.15 34.05 Q4.25 33.2 3.55 31.7 1.95 29.15 1.85 25.4 L1.85 24.85 1.85 24.55 1.85 24.4 1.85 24.3 Q1.9 22.25 2.3 20.65 2.45 19.55 2.75 18.75 L2.3 19.85 Q3.4 16.05 4.5 14.55 7.3 9.7 13.85 7.15 13.8 6.95 13.35 7.0 L12.85 7.15 Q12.45 6.9 12.45 6.25 12.25 5.9 12.2 5.45 L12.1 4.8 12.8 6.6 13.0 6.55 Q12.5 3.15 9.7 0.45 L9.7 0.35 11.05 1.2 11.15 1.25 Q12.2 2.05 12.8 3.15 13.35 4.15 13.6 6.2 L13.75 6.2 13.9 5.4 13.9 5.35 14.0 6.1 13.9 6.65 14.8 6.0 14.85 6.05 15.0 5.9 15.3 5.75 15.4 5.7 15.6 5.55 15.7 5.45 Q17.65 4.2 18.9 3.8 20.75 3.1 25.6 2.7 L25.75 2.7 26.6 2.7 28.0 2.7 30.1 2.8 31.1 2.9 30.35 2.9 Q26.45 2.8 23.25 3.7 L30.5 3.3 35.9 3.85 34.65 3.9 34.65 3.95 34.0 3.95 33.65 3.95 33.6 4.1 Q43.4 7.6 45.9 13.45 M48.35 17.75 L48.35 17.8 48.3 17.6 48.35 17.75 M54.05 15.15 L53.35 13.7 54.05 15.1 54.05 15.15 M41.95 38.2 L42.15 37.95 41.95 38.3 41.95 38.2 M49.6 47.5 L49.55 47.45 49.75 47.25 49.6 47.5 M1.4 22.6 L1.35 22.5 1.55 22.5 1.35 23.25 1.35 23.1 1.35 22.55 1.4 22.6 M17.05 6.2 L17.05 6.35 17.05 6.4 16.7 6.7 Q16.25 6.95 15.35 7.6 L17.05 6.2 M13.4 3.45 L13.5 3.8 12.7 2.4 12.2 1.7 13.4 3.45 M31.1 20.65 L31.15 20.85 31.05 20.7 31.1 20.65 M34.6 8.2 L34.65 8.2 35.9 8.85 35.9 8.8 36.3 9.0 36.6 9.3 39.4 11.65 Q38.8 10.6 37.5 9.55 L37.0 9.05 Q36.45 7.9 34.4 6.8 33.6 5.65 31.15 4.8 28.45 3.8 25.35 3.7 23.1 3.85 20.8 4.45 L19.15 4.9 Q19.95 4.5 20.8 4.25 18.25 4.9 15.9 6.3 14.95 6.8 14.9 7.75 L14.8 7.8 Q13.7 8.1 12.6 8.75 12.6 8.55 13.1 8.45 L13.6 8.2 14.1 8.0 13.75 8.05 13.8 8.0 Q9.35 9.1 5.95 14.3 3.05 18.7 3.05 22.05 3.05 22.3 3.2 22.35 L3.4 22.2 Q3.95 18.55 5.4 15.7 6.35 13.8 8.05 11.85 9.85 9.75 11.2 9.35 10.55 9.65 10.1 10.2 10.7 9.65 11.4 9.3 L11.75 9.3 Q11.3 9.5 10.9 9.85 5.25 13.7 5.25 17.8 5.15 18.8 5.35 19.85 5.45 20.9 5.9 21.4 L5.9 21.45 6.35 22.85 6.4 22.8 6.55 24.5 6.65 24.45 6.65 23.1 Q6.65 24.1 7.0 25.45 L7.5 27.35 Q7.8 28.35 8.25 28.55 L7.65 25.5 Q7.35 24.45 7.35 23.6 7.55 16.8 12.2 12.1 10.2 14.9 10.2 19.4 10.15 20.95 10.9 21.7 L10.75 23.05 Q10.7 23.8 11.1 24.05 11.5 21.4 13.25 17.75 L16.15 12.3 15.9 13.4 Q15.65 14.8 15.65 16.8 15.6 18.45 16.05 20.2 L16.6 22.25 17.15 23.45 17.15 23.75 Q17.15 24.4 17.45 24.55 L17.15 26.75 17.3 27.5 17.45 27.45 18.6 22.05 18.7 21.35 19.3 18.8 Q19.7 16.25 19.7 14.25 L19.45 11.55 19.35 11.15 Q21.9 14.15 25.85 17.7 L28.65 20.6 Q31.55 23.95 32.8 26.15 L32.95 26.05 32.95 25.6 31.5 23.0 Q31.55 22.95 31.6 23.05 L32.05 23.45 32.15 23.3 32.05 22.85 32.1 22.6 32.05 22.45 32.1 22.45 Q32.15 19.0 29.25 15.15 27.2 12.4 24.35 10.35 L22.55 9.1 23.2 9.15 Q24.65 9.5 25.95 10.1 L26.45 10.3 26.95 10.5 Q29.4 11.55 31.45 13.1 34.35 15.35 36.2 18.35 L37.7 22.35 37.9 22.3 37.95 22.25 38.0 21.85 Q38.0 20.7 37.55 19.5 L37.55 19.45 Q37.35 15.8 35.75 13.45 34.0 11.05 30.4 9.1 L29.55 8.6 28.55 8.15 28.45 8.05 Q31.5 8.7 32.6 9.1 35.5 10.05 38.3 12.35 L38.35 12.4 39.2 13.4 36.45 9.9 34.6 8.2 M49.95 46.75 L50.05 46.6 50.0 46.65 49.95 46.75 M47.55 49.35 L47.55 49.45 47.05 49.75 47.55 49.3 47.55 49.35 M16.4 34.65 L16.75 35.0 16.75 35.1 16.7 35.15 16.35 34.8 16.35 34.75 16.4 34.65 M9.95 28.25 L9.85 27.8 9.9 27.95 9.9 28.0 9.95 28.25 M1.3 42.5 L1.55 43.05 1.35 42.7 1.3 42.5 M9.1 46.8 L9.0 46.6 9.2 46.85 9.1 46.8 M12.65 41.05 L13.15 41.5 12.5 40.95 12.65 41.05 M40.45 31.25 L40.45 31.15 40.75 30.55 40.45 31.25 M30.55 31.4 L30.45 31.3 30.3 31.15 30.3 31.05 30.55 31.4 M13.15 41.85 L12.8 41.7 13.2 41.8 13.15 41.85 M28.8 29.05 L28.6 28.95 28.15 28.0 28.8 29.05 M29.75 31.55 L29.3 30.6 29.65 31.3 29.75 31.55 M14.95 50.75 L14.4 50.55 15.15 50.7 14.95 50.75" fill="#ded8d3" fill-rule="evenodd" stroke="none"/>
      <path d="M34.6 8.2 L36.45 9.9 39.2 13.4 38.35 12.4 38.3 12.35 Q35.5 10.05 32.6 9.1 31.5 8.7 28.45 8.05 L28.55 8.15 29.55 8.6 30.4 9.1 Q34.0 11.05 35.75 13.45 37.35 15.8 37.55 19.45 L37.55 19.5 Q38.0 20.7 38.0 21.85 L37.95 22.25 37.9 22.3 37.7 22.35 36.2 18.35 Q34.35 15.35 31.45 13.1 29.4 11.55 26.95 10.5 L26.45 10.3 25.95 10.1 Q24.65 9.5 23.2 9.15 L22.55 9.1 24.35 10.35 Q27.2 12.4 29.25 15.15 32.15 19.0 32.1 22.45 L32.05 22.45 32.1 22.6 32.05 22.85 32.15 23.3 32.05 23.45 31.6 23.05 Q31.55 22.95 31.5 23.0 L32.95 25.6 32.95 26.05 32.8 26.15 Q31.55 23.95 28.65 20.6 L25.85 17.7 Q21.9 14.15 19.35 11.15 L19.45 11.55 19.7 14.25 Q19.7 16.25 19.3 18.8 L18.7 21.35 18.6 22.05 17.45 27.45 17.3 27.5 17.15 26.75 17.45 24.55 Q17.15 24.4 17.15 23.75 L17.15 23.45 16.6 22.25 16.05 20.2 Q15.6 18.45 15.65 16.8 15.65 14.8 15.9 13.4 L16.15 12.3 13.25 17.75 Q11.5 21.4 11.1 24.05 10.7 23.8 10.75 23.05 L10.9 21.7 Q10.15 20.95 10.2 19.4 10.2 14.9 12.2 12.1 7.55 16.8 7.35 23.6 7.35 24.45 7.65 25.5 L8.25 28.55 Q7.8 28.35 7.5 27.35 L7.0 25.45 Q6.65 24.1 6.65 23.1 L6.65 24.45 6.55 24.5 6.4 22.8 6.35 22.85 5.9 21.45 5.9 21.4 Q5.45 20.9 5.35 19.85 5.15 18.8 5.25 17.8 5.25 13.7 10.9 9.85 11.3 9.5 11.75 9.3 L11.4 9.3 11.85 9.0 11.2 9.35 Q9.85 9.75 8.05 11.85 6.35 13.8 5.4 15.7 3.95 18.55 3.4 22.2 L3.2 22.35 Q3.05 22.3 3.05 22.05 3.05 18.7 5.95 14.3 9.35 9.1 13.8 8.0 L13.75 8.05 Q12.6 8.35 11.85 9.0 L13.6 8.2 13.1 8.45 Q12.6 8.55 12.6 8.75 13.7 8.1 14.8 7.8 L14.9 7.75 14.9 8.1 15.3 7.65 15.35 7.6 Q16.25 6.95 16.7 6.7 L17.05 6.4 17.05 6.35 17.05 6.2 17.1 6.15 Q18.0 5.35 19.15 4.9 L20.8 4.45 Q23.1 3.85 25.35 3.7 28.45 3.8 31.15 4.8 33.6 5.65 34.4 6.8 36.45 7.9 37.0 9.05 L37.5 9.55 Q38.8 10.6 39.4 11.65 L36.6 9.3 36.3 9.0 35.9 8.8 35.9 8.85 34.65 8.2 34.6 8.2 M31.15 20.85 L31.1 20.65 31.05 20.7 31.15 20.85" fill="#ffffff" fill-rule="evenodd" stroke="none"/>
      <path d="M43.95 5.8 Q47.15 7.65 49.65 11.05 L47.8 9.15 Q46.9 8.4 45.9 7.75 L44.65 7.0 44.45 6.85 44.15 6.7 44.05 6.65 43.85 6.5 Q40.15 4.4 37.4 4.05 L36.35 3.9 36.15 3.9 30.5 3.3 23.25 3.7 Q26.45 2.8 30.35 2.9 L34.7 3.05 37.5 3.6 37.65 3.6 37.7 3.6 37.75 3.65 37.8 3.65 39.8 4.1 Q41.95 4.7 43.85 5.8 L43.95 5.8 M50.4 9.95 L53.0 13.1 53.05 13.15 53.2 13.4 53.25 13.5 53.35 13.7 54.05 15.15 54.2 15.45 Q56.75 21.7 56.7 25.9 L56.7 26.45 56.6 27.1 56.7 28.0 Q57.55 32.9 57.65 37.95 L57.6 39.6 Q57.0 45.8 52.1 49.1 L53.85 47.25 Q55.0 45.65 55.45 43.85 54.5 46.25 52.65 48.15 L51.4 48.95 Q49.6 50.0 47.4 50.35 L48.0 50.1 49.15 49.75 50.2 49.1 52.2 47.75 51.3 48.65 Q51.85 48.15 52.55 47.75 56.55 43.3 56.45 37.75 L56.65 39.65 56.65 33.05 56.5 34.55 56.4 32.45 Q56.4 27.95 55.9 23.5 55.45 20.2 54.8 18.3 L54.45 17.05 Q52.65 11.0 46.25 6.65 48.1 7.4 50.4 9.95 M42.3 21.45 Q44.0 26.05 41.95 30.65 L41.25 32.05 Q43.85 29.05 44.75 25.55 44.8 25.25 45.0 25.1 46.5 31.2 43.9 36.1 L41.4 39.5 39.9 41.0 41.95 38.3 42.15 37.95 Q45.3 32.75 45.0 26.55 43.5 31.05 39.55 34.55 L38.2 35.05 40.45 31.25 40.75 30.55 Q42.25 27.0 42.3 23.05 L42.3 21.45 M41.8 23.7 Q42.2 29.05 38.4 33.4 L36.2 35.55 35.55 36.1 Q34.9 36.45 34.35 36.9 L34.7 36.5 29.2 29.65 28.15 28.0 28.6 28.95 29.3 30.6 29.75 31.55 30.65 33.6 30.5 33.7 29.35 31.55 26.85 26.5 22.8 18.95 22.85 18.9 23.9 20.4 25.75 23.4 27.65 27.0 Q31.05 31.75 34.95 36.25 L35.4 35.5 35.4 35.45 36.9 33.1 36.25 34.95 Q42.25 28.85 41.25 20.7 L41.8 23.7 M54.35 24.25 L54.35 22.85 54.35 25.15 Q54.3 27.35 53.15 30.2 51.8 33.2 50.3 34.05 48.35 36.65 45.0 38.6 L45.7 38.1 Q53.4 31.95 52.2 22.9 L52.5 23.7 52.65 25.4 Q52.75 28.95 51.55 31.85 53.0 29.35 53.45 27.95 53.4 27.85 53.5 27.7 54.25 27.45 54.35 24.25 M52.5 15.2 L52.55 15.35 52.5 15.3 52.2 14.75 52.5 15.2 M51.35 25.35 Q51.75 33.2 44.9 38.15 44.2 38.55 43.4 39.1 L45.6 38.55 48.55 37.6 47.85 38.15 Q49.25 37.85 50.1 37.1 L53.6 33.6 Q52.95 36.65 49.55 38.05 L49.2 38.15 47.4 38.75 46.25 39.05 45.05 39.3 42.7 39.55 42.2 39.6 42.45 39.45 Q50.0 34.95 51.15 26.85 L51.35 25.35 M45.0 48.9 L44.7 49.15 44.0 49.5 45.75 47.85 47.85 45.15 46.5 47.6 45.2 48.75 45.0 48.9 M41.45 48.35 Q39.85 48.9 38.45 49.55 40.55 49.7 42.3 48.35 L43.25 47.5 42.3 48.8 Q45.1 47.7 46.95 45.45 L47.5 44.75 Q46.2 47.05 44.25 48.4 42.05 49.8 39.0 49.95 L37.0 49.95 35.35 50.5 35.15 50.35 Q35.2 50.25 35.3 50.25 35.35 50.15 35.45 50.15 37.0 49.25 38.9 48.65 L37.15 49.7 42.5 47.25 Q42.3 47.9 41.45 48.35 M50.0 46.85 L50.0 46.65 50.05 46.6 49.95 46.75 Q48.4 49.15 45.3 49.55 L44.5 49.65 45.5 49.3 Q50.8 47.3 51.1 42.6 52.15 47.1 48.1 49.4 L47.7 49.6 46.1 50.3 45.8 50.4 45.7 50.45 45.25 50.45 47.05 49.75 47.55 49.45 49.6 47.5 49.75 47.25 50.0 46.85 M15.6 5.55 L15.0 5.9 14.85 6.05 14.7 5.9 Q16.15 4.7 17.4 4.1 18.1 3.7 18.75 3.6 21.35 2.6 25.8 2.65 20.8 3.1 18.9 3.8 17.65 4.2 15.7 5.45 L15.6 5.55 M19.15 4.9 Q18.0 5.35 17.1 6.15 L17.05 6.2 15.35 7.6 15.3 7.65 14.9 8.1 14.9 7.75 Q14.95 6.8 15.9 6.3 18.25 4.9 20.8 4.25 19.95 4.5 19.15 4.9 M11.05 1.2 L9.7 0.35 9.5 0.25 9.7 0.45 Q12.5 3.15 13.0 6.55 L12.8 6.6 12.1 4.8 11.45 3.65 9.3 0.3 9.45 0.25 9.1 0.1 9.25 0.0 Q10.95 0.1 12.2 1.7 L12.7 2.4 13.5 3.8 13.55 3.9 13.85 5.05 13.85 5.2 13.85 5.3 13.9 5.35 13.9 5.4 13.75 6.2 13.6 6.2 Q13.35 4.15 12.8 3.15 12.2 2.05 11.15 1.25 L11.05 1.2 M13.35 7.0 Q13.8 6.95 13.85 7.15 7.3 9.7 4.5 14.55 3.4 16.05 2.3 19.85 L2.75 18.75 Q2.45 19.55 2.3 20.65 1.9 22.25 1.85 24.3 L1.85 24.4 Q1.75 25.25 1.8 26.2 0.85 31.85 0.75 37.6 0.65 41.45 2.65 44.85 L3.05 45.5 1.55 43.05 1.3 42.5 Q0.25 40.25 0.15 37.85 L0.05 37.0 0.05 36.75 0.05 36.55 Q0.05 34.9 0.45 33.35 0.8 31.5 0.75 29.8 0.55 26.25 1.35 23.25 L1.55 22.5 1.35 22.5 1.4 22.6 1.35 22.55 Q1.15 22.5 1.3 22.3 L1.25 21.55 1.25 21.35 Q1.35 18.05 4.25 14.05 5.95 11.4 8.15 9.7 L8.4 9.5 8.7 9.2 8.85 9.15 Q10.7 7.8 12.85 7.15 L13.35 7.0 M14.1 8.0 L13.6 8.2 11.85 9.0 11.4 9.3 Q10.7 9.65 10.1 10.2 10.55 9.65 11.2 9.35 L11.85 9.0 Q12.6 8.35 13.75 8.05 L14.1 8.0 M3.65 22.15 L3.7 23.2 3.65 24.15 3.9 26.55 4.4 28.7 5.6 31.4 6.1 32.1 6.85 32.85 Q9.85 35.6 14.3 36.8 10.1 36.15 6.75 33.2 9.85 36.45 14.75 37.65 L12.8 37.3 Q10.4 36.7 8.55 35.3 L9.85 36.3 9.6 36.5 7.75 35.35 Q9.4 37.9 11.45 39.95 L12.3 40.75 12.5 40.95 13.15 41.5 13.3 41.6 14.2 42.1 13.2 41.8 12.8 41.7 9.55 40.3 Q7.35 39.05 5.6 37.4 L8.2 40.05 8.0 40.25 Q5.65 38.4 4.35 36.0 L3.35 34.7 4.0 35.35 Q3.3 34.05 2.8 32.35 L2.95 32.35 3.15 32.3 Q3.65 34.35 4.7 36.1 8.3 39.35 13.05 41.45 5.9 37.2 4.15 29.75 L4.4 30.15 Q3.45 27.25 3.45 24.1 L3.55 22.3 3.65 21.85 3.65 22.15 M9.25 24.0 Q9.9 28.45 13.15 32.0 L11.9 30.9 Q10.6 29.55 9.9 27.95 L9.85 27.8 9.95 28.25 Q11.2 31.8 13.75 34.85 L14.55 35.75 15.25 36.5 14.55 35.85 13.15 34.5 Q9.25 30.15 8.9 24.4 8.85 24.15 8.95 23.95 L9.1 24.25 9.25 24.0 M12.85 22.9 Q12.25 26.35 13.45 29.6 12.95 27.0 13.3 24.3 13.4 23.15 13.75 22.05 L13.65 22.9 Q12.95 29.3 16.75 34.95 21.3 31.2 22.3 26.25 L22.7 24.45 Q22.65 26.2 22.2 27.9 L21.5 30.05 18.6 33.75 18.5 33.85 18.05 34.4 17.5 35.1 Q16.8 35.55 16.75 35.1 L16.75 34.95 Q14.95 33.4 14.0 31.4 L13.3 30.15 15.85 35.25 14.55 33.4 14.45 33.25 Q13.3 31.4 12.75 29.55 L12.35 27.95 12.3 27.65 12.25 27.35 Q12.0 26.1 12.1 25.05 L12.3 26.2 Q12.1 24.65 12.7 23.25 L12.85 22.9 M5.25 32.15 Q6.8 36.8 11.05 40.05 8.5 37.55 7.0 34.65 6.0 33.6 5.25 32.15 M2.85 44.25 Q2.4 43.45 2.3 42.7 4.3 47.3 10.45 50.15 7.45 46.45 6.75 42.15 8.55 47.75 15.65 50.65 L15.9 50.75 15.15 50.7 14.4 50.55 Q11.7 50.0 10.0 47.85 L9.2 46.85 9.0 46.6 9.1 46.8 Q10.6 49.8 14.1 51.5 6.65 50.75 3.25 45.45 L2.2 43.45 2.85 44.25 M9.65 48.45 L7.9 45.35 9.05 47.8 9.65 48.45 M11.25 45.0 L12.75 47.5 12.3 46.6 12.85 47.0 Q14.1 47.9 16.0 48.6 L17.1 48.9 16.55 48.5 18.35 49.1 20.75 49.65 16.75 47.8 22.9 50.1 25.3 49.2 25.65 49.1 24.2 50.25 21.85 50.6 22.55 50.3 21.3 49.9 21.8 50.2 16.5 49.5 14.45 48.95 16.9 50.95 15.8 50.45 Q12.95 49.0 11.9 46.35 L11.25 45.0 M23.25 25.1 L23.25 25.3 Q23.55 28.0 22.1 30.6 L21.05 32.1 19.75 33.35 Q22.15 30.7 22.8 27.2 L23.25 25.1 M23.7 25.3 L23.4 24.6 24.3 25.85 Q25.6 27.95 27.7 29.8 L29.0 30.95 28.4 30.6 Q25.65 28.8 24.15 26.15 L23.7 25.3 M33.1 49.75 Q32.75 49.5 32.7 49.1 L34.6 50.15 33.9 50.1 33.1 49.75" fill="#000000" fill-rule="evenodd" stroke="none"/>
    </g>
  </defs>
</svg>
