<?xml version="1.0" encoding="UTF-8" standalone="no"?>
<svg xmlns:ffdec="https://www.free-decompiler.com/flash" xmlns:xlink="http://www.w3.org/1999/xlink" ffdec:objectType="frame" height="48.2px" width="59.6px" xmlns="http://www.w3.org/2000/svg">
  <g transform="matrix(1.0, 0.0, 0.0, 1.0, 29.7, 34.2)">
    <use ffdec:characterId="5" height="48.2" transform="matrix(1.0, 0.0, 0.0, 1.0, 0.1, -9.75)" width="59.6" xlink:href="#sprite0"/>
  </g>
  <defs>
    <g id="sprite0">
      <use ffdec:characterId="4" height="48.2" transform="matrix(1.0, 0.0, 0.0, 1.0, 0.0, 0.0)" width="59.6" xlink:href="#shape0"/>
    </g>
    <g id="shape0">
      <path d="M13.75 -21.55 Q14.85 -21.0 14.95 -20.75 L15.75 -19.85 16.0 -19.55 Q18.15 -19.45 20.95 -17.0 23.25 -14.9 23.9 -13.55 24.25 -12.9 25.6 -12.0 26.95 -11.1 27.35 -10.4 28.25 -8.7 28.25 -7.3 28.25 -4.9 27.75 -4.15 L28.2 -3.6 Q29.8 -1.4 29.8 0.55 29.8 2.3 28.9 4.35 L27.95 6.25 28.25 8.9 27.95 10.6 27.15 11.65 Q26.8 14.3 24.2 17.6 L24.35 18.5 Q24.4 19.05 23.55 20.35 22.65 21.65 21.3 22.05 L19.55 22.2 19.4 22.0 Q17.55 23.1 15.45 23.7 L14.65 23.15 14.55 23.2 14.45 23.2 Q13.3 23.05 12.6 22.6 L11.85 21.75 11.5 21.0 Q11.5 20.2 12.15 19.55 L13.45 17.7 Q14.35 15.35 14.35 14.3 L14.15 12.75 14.25 12.6 15.1 11.1 14.4 9.85 13.85 7.8 13.85 7.55 13.5 7.15 10.1 3.45 10.3 4.8 Q10.2 5.85 8.95 5.85 7.85 5.85 6.05 4.05 L4.0 4.95 Q2.35 5.5 1.3 5.5 0.2 5.5 -0.8 4.95 L-1.55 4.85 -2.55 4.05 -3.0 3.35 -3.0 2.75 -2.95 2.25 -4.2 2.85 -4.75 3.7 Q-5.2 4.35 -5.8 4.35 -6.5 4.35 -6.8 3.65 L-7.0 2.95 -7.35 3.6 -7.1 4.1 -6.85 4.55 Q-6.85 5.7 -8.05 5.7 -9.4 5.7 -11.35 3.75 L-12.55 5.65 -12.65 5.85 -12.85 7.15 Q-13.1 8.45 -14.1 9.45 -15.1 10.45 -14.9 10.6 -14.7 10.7 -14.15 12.85 L-14.25 14.9 -14.1 16.65 -13.2 18.35 -12.1 20.05 -12.0 20.2 -12.0 20.25 -11.85 21.5 Q-12.1 23.1 -13.6 23.25 L-15.5 23.25 -15.7 23.25 -16.2 23.65 -16.2 23.75 -17.7 23.6 -19.35 22.3 -20.15 21.5 -21.1 21.7 Q-22.65 21.7 -23.35 20.45 L-23.8 18.7 -23.6 17.85 -25.25 16.6 Q-26.05 16.05 -26.05 14.55 -26.05 13.4 -25.35 12.9 -27.2 11.35 -27.9 9.8 -28.4 8.6 -28.45 6.75 -28.45 6.1 -29.1 3.8 L-29.8 0.65 Q-29.8 -0.3 -28.9 -2.85 L-28.3 -4.55 -27.7 -6.25 Q-27.7 -9.15 -26.25 -10.75 -23.9 -13.4 -23.35 -14.55 -22.3 -16.6 -18.85 -18.6 L-17.2 -19.1 -15.0 -21.2 Q-13.6 -22.65 -9.55 -23.15 L-6.0 -22.9 -5.3 -23.3 Q-3.05 -24.45 -0.3 -24.45 L2.25 -24.0 3.95 -23.45 Q5.35 -22.85 8.45 -22.6 L11.9 -22.35 13.75 -21.55 M3.35 2.85 L3.35 2.95 3.4 2.95 3.35 2.85" fill="#000000" fill-rule="evenodd" stroke="none"/>
      <path d="M-7.1 2.05 L-7.05 2.0 -7.0 2.25 -7.1 2.05" fill="#2b1500" fill-rule="evenodd" stroke="none"/>
      <path d="M15.5 -18.55 Q18.15 -17.55 20.4 -16.15 22.05 -14.3 23.2 -12.1 L26.7 -8.35 Q27.15 -7.25 27.2 -6.05 L27.4 -3.65 28.3 -1.4 28.85 0.9 28.3 3.25 27.4 5.5 27.2 7.9 Q27.15 9.1 26.7 10.2 L25.8 11.3 Q26.7 11.25 26.7 12.4 26.7 12.9 26.1 13.3 L24.85 13.75 24.85 14.15 Q24.85 14.95 22.85 17.3 L22.95 18.3 Q22.95 19.1 22.25 20.2 21.4 21.5 20.2 21.5 19.6 21.5 19.15 21.15 L19.0 21.05 18.35 21.5 16.7 22.25 Q15.85 22.6 16.05 22.05 16.25 21.45 14.9 21.45 14.35 21.45 14.15 20.6 14.0 19.95 13.25 19.9 13.4 19.75 13.55 19.7 14.7 18.65 15.45 17.4 L17.8 15.25 18.15 14.0 18.25 12.65 18.85 11.4 19.25 10.05 18.85 8.75 18.25 7.45 18.15 6.15 17.8 4.85 15.45 2.7 Q14.7 1.45 13.55 0.4 L11.4 -0.55 10.8 0.1 8.25 -1.3 Q5.05 -2.6 1.05 -2.85 L0.35 -3.55 0.2 -3.6 -0.1 -3.6 -1.95 -3.3 -3.8 -2.95 -3.85 -2.95 -4.05 -2.8 -7.4 -2.15 -7.25 -2.65 -7.5 -2.6 -7.7 -2.5 -8.5 -1.8 -9.95 -1.15 Q-11.55 -0.3 -12.55 0.85 L-12.7 -0.1 -13.8 0.4 -15.7 2.7 -18.0 4.85 Q-18.35 5.45 -18.35 6.15 L-18.5 7.45 -19.05 8.75 Q-19.45 9.35 -19.45 10.05 -19.45 10.75 -19.05 11.4 L-18.5 12.65 Q-18.35 13.3 -18.35 14.0 L-18.0 15.25 -15.7 17.4 -14.25 19.2 Q-13.7 19.45 -13.25 20.1 L-13.15 20.2 -13.85 20.65 -14.1 20.65 Q-14.6 20.8 -14.0 21.45 L-13.95 21.5 Q-14.2 22.45 -15.85 21.95 L-18.4 21.9 -19.85 20.85 -21.05 20.85 -22.85 19.65 Q-23.3 18.35 -23.15 17.9 L-22.75 16.8 -23.55 16.35 Q-24.95 15.75 -24.95 14.75 -24.95 13.5 -24.25 13.05 L-26.8 10.2 -27.25 7.9 -27.55 5.5 Q-27.9 4.4 -28.4 3.25 -28.95 2.1 -29.0 0.9 -28.95 -0.25 -28.4 -1.4 -27.9 -2.55 -27.55 -3.65 L-27.25 -6.05 -26.8 -8.35 -23.35 -12.1 -20.5 -16.15 Q-18.25 -17.55 -15.6 -18.55 -13.55 -20.2 -11.15 -21.45 L-8.4 -21.85 -5.5 -22.05 -2.85 -22.8 -0.05 -23.25 2.7 -22.8 5.4 -22.05 8.25 -21.85 11.0 -21.45 Q13.4 -20.2 15.5 -18.55" fill="#660000" fill-rule="evenodd" stroke="none"/>
      <path d="M12.65 -12.9 Q14.85 -12.1 16.65 -10.95 L18.95 -7.65 21.85 -4.55 22.25 -2.7 22.4 -0.7 23.15 1.1 23.6 3.0 23.15 4.95 22.4 6.75 22.25 8.75 21.85 10.6 21.1 11.5 Q21.85 11.5 21.85 12.4 21.85 12.85 21.35 13.15 20.9 13.5 20.3 13.5 L20.3 13.85 Q20.3 14.7 17.65 17.55 L17.25 18.0 17.45 19.15 Q17.45 19.65 16.6 20.15 L15.7 20.65 Q15.1 22.0 13.95 22.0 13.1 22.0 12.95 21.35 L12.95 20.7 12.6 20.7 Q14.75 17.4 14.85 15.85 L14.9 13.75 14.9 12.6 15.4 11.6 15.75 10.5 15.4 9.45 14.9 8.35 14.85 7.3 14.55 6.25 12.6 4.5 11.05 2.6 9.3 1.8 Q8.75 2.05 8.75 2.7 8.75 3.4 9.2 4.05 L9.7 4.65 9.4 4.95 Q8.2 4.95 7.4 3.55 6.85 2.7 6.75 1.8 L4.05 4.1 Q2.65 5.1 1.25 4.9 L-0.3 4.5 Q-0.5 4.25 0.2 4.0 L1.55 3.25 -0.45 3.8 -1.6 3.55 Q-1.95 3.3 -1.9 2.6 -1.9 1.7 -0.9 0.75 L0.05 -0.2 -0.45 -0.65 -1.6 -0.45 -3.15 -0.15 -3.2 -0.15 Q-3.85 0.25 -4.25 1.8 -4.7 3.35 -5.2 3.6 -5.75 3.85 -6.2 3.4 -6.7 2.95 -6.6 2.2 L-6.25 0.9 -6.9 1.7 Q-7.4 2.3 -7.65 3.4 L-8.0 4.6 -8.0 4.75 Q-9.4 5.05 -10.05 3.6 -10.4 2.9 -10.4 2.2 L-11.3 2.6 -12.9 4.5 -14.75 6.25 -15.05 7.3 -15.15 8.35 -15.6 9.45 Q-15.95 9.9 -15.95 10.5 L-15.6 11.6 -15.15 12.6 Q-15.05 13.15 -15.65 13.9 -16.3 14.65 -14.65 18.0 -13.9 19.55 -13.35 19.9 L-14.6 20.4 -14.6 20.45 -15.1 20.2 Q-16.7 19.35 -17.2 17.9 -17.85 16.25 -19.3 15.65 -20.45 15.15 -20.45 14.35 -20.45 13.3 -19.9 12.95 L-21.95 10.6 Q-22.35 9.7 -22.35 8.75 L-22.6 6.75 -23.25 4.95 Q-23.7 4.0 -23.75 3.0 -23.7 2.05 -23.25 1.1 L-22.6 -0.7 -22.35 -2.7 Q-22.35 -3.65 -21.95 -4.55 L-19.15 -7.65 -16.8 -10.95 Q-14.95 -12.1 -12.8 -12.9 -11.1 -14.25 -9.15 -15.3 L-6.9 -15.6 -4.55 -15.8 -2.35 -16.4 -0.05 -16.75 2.2 -16.4 4.4 -15.8 6.75 -15.6 9.0 -15.3 Q10.95 -14.25 12.65 -12.9" fill="#cc0000" fill-rule="evenodd" stroke="none"/>
      <path d="M-9.15 -13.15 Q-9.15 -12.75 -10.35 -12.55 -11.65 -12.35 -11.95 -11.6 L-12.4 -10.8 Q-13.0 -10.05 -13.65 -10.05 -14.35 -10.05 -14.35 -10.8 -14.35 -11.95 -12.8 -13.0 -11.1 -14.25 -9.3 -13.55 -9.15 -13.5 -9.15 -13.15" fill="#660000" fill-rule="evenodd" stroke="none"/>
      <path d="M-14.0 -9.5 Q-16.7 -8.3 -16.95 -7.5 -17.2 -6.95 -17.8 -6.6 L-18.1 -7.5 Q-18.1 -8.8 -17.4 -9.65 -16.45 -10.95 -14.35 -10.65 -14.25 -10.75 -14.25 -10.35 -11.3 -10.75 -14.0 -9.5" fill="#660000" fill-rule="evenodd" stroke="none"/>
      <path d="M-21.75 0.45 L-21.35 2.8 Q-21.0 4.65 -21.0 5.4 L-21.1 5.8 -21.25 6.1 Q-23.55 4.65 -23.55 1.55 -23.55 0.0 -23.0 -0.7 -22.3 -1.65 -19.9 -2.55 -21.75 -0.75 -21.75 0.45" fill="#660000" fill-rule="evenodd" stroke="none"/>
      <path d="M-20.05 3.45 L-20.35 5.45 -20.05 6.4 -19.8 7.3 -19.95 8.05 Q-21.2 7.75 -21.7 7.0 L-22.0 5.65 Q-22.0 3.15 -20.1 2.85 L-20.05 3.45" fill="#660000" fill-rule="evenodd" stroke="none"/>
      <path d="M15.55 -9.5 Q15.3 -9.05 14.95 -9.05 14.5 -9.05 13.4 -10.3 L12.05 -11.75 9.85 -12.5 Q8.15 -13.1 7.7 -13.8 11.4 -13.45 13.3 -12.75 15.8 -11.8 15.8 -10.1 L15.55 -9.5" fill="#660000" fill-rule="evenodd" stroke="none"/>
      <path d="M17.15 -8.85 L20.45 -5.2 Q21.8 -3.75 21.8 -1.85 L21.4 -0.95 Q22.55 1.25 22.55 2.1 L22.15 4.15 Q21.6 5.9 20.6 6.3 20.3 5.9 20.3 5.45 L20.75 1.9 20.4 0.55 20.05 -0.65 Q20.05 -1.25 20.4 -1.55 20.75 -1.9 20.75 -2.4 20.75 -3.4 18.9 -6.0 L17.05 -8.75 Q17.05 -9.15 17.15 -8.85" fill="#660000" fill-rule="evenodd" stroke="none"/>
      <path d="M23.6 1.65 L23.15 3.25 Q22.55 4.5 21.65 4.5 21.25 4.5 21.15 4.2 L21.05 3.9 21.7 2.85 Q22.3 1.85 22.3 1.2 L22.15 0.7 21.95 0.15 Q21.95 -0.8 22.8 -0.15 23.6 0.55 23.6 1.65" fill="#660000" fill-rule="evenodd" stroke="none"/>
      <path d="M21.8 6.25 L21.85 5.7 Q23.15 5.65 23.15 7.75 23.15 8.6 22.55 9.95 21.75 11.7 20.65 11.7 L20.25 11.6 19.9 11.45 21.6 8.5 Q21.8 8.2 21.8 6.25" fill="#660000" fill-rule="evenodd" stroke="none"/>
      <path d="M18.45 15.35 Q19.45 12.6 19.45 14.25 19.45 15.9 18.95 17.15 18.15 19.2 16.45 19.2 L13.85 19.05 Q17.4 18.1 18.45 15.35" fill="#660000" fill-rule="evenodd" stroke="none"/>
      <path d="M7.25 -15.05 L7.6 -14.35 7.4 -13.85 Q7.15 -13.55 6.85 -13.55 L5.3 -14.6 Q4.75 -15.1 3.7 -15.2 L2.45 -15.3 5.85 -15.65 Q6.75 -15.65 7.25 -15.05" fill="#660000" fill-rule="evenodd" stroke="none"/>
      <path d="M10.25 -9.3 L5.95 -11.85 5.95 -11.8 5.9 -12.05 8.4 -12.1 Q10.85 -11.25 10.85 -10.05 10.85 -9.3 10.25 -9.3" fill="#660000" fill-rule="evenodd" stroke="none"/>
      <path d="M17.5 -0.95 Q17.2 -1.0 16.85 -1.8 16.55 -2.55 16.55 -3.0 16.55 -3.75 17.2 -3.2 17.8 -2.6 17.8 -2.05 17.8 -1.25 17.5 -0.95" fill="#660000" fill-rule="evenodd" stroke="none"/>
      <path d="M-15.7 -6.4 Q-16.85 -5.1 -16.05 -7.2 -15.25 -9.3 -14.2 -10.1 -13.15 -10.95 -12.15 -10.9 L-10.35 -10.8 Q-9.55 -10.75 -12.05 -9.2 -14.55 -7.7 -15.7 -6.4" fill="#660000" fill-rule="evenodd" stroke="none"/>
      <path d="M8.6 -2.05 Q8.8 0.6 6.55 2.25 L7.45 0.1 Q8.0 -1.65 7.85 -4.55 8.5 -3.3 8.6 -2.05" fill="#000000" fill-rule="evenodd" stroke="none"/>
      <path d="M-16.85 3.1 L-16.75 4.3 -16.2 5.6 -16.75 5.85 -17.75 4.45 -17.85 3.25 Q-17.85 2.25 -17.05 0.75 -16.1 -0.9 -15.15 -0.75 L-16.25 1.2 Q-16.85 2.45 -16.85 3.1" fill="#000000" fill-rule="evenodd" stroke="none"/>
    </g>
  </defs>
</svg>
