<?xml version="1.0" encoding="UTF-8" standalone="no"?>
<svg xmlns:ffdec="https://www.free-decompiler.com/flash" xmlns:xlink="http://www.w3.org/1999/xlink" ffdec:objectType="frame" height="39.95px" width="81.2px" xmlns="http://www.w3.org/2000/svg">
  <g transform="matrix(1.0, 0.0, 0.0, 1.0, 40.6, 28.45)">
    <use ffdec:characterId="11" height="39.95" transform="matrix(1.0, 0.0, 0.0, 1.0, 0.0, -8.5)" width="81.2" xlink:href="#sprite0"/>
  </g>
  <defs>
    <g id="sprite0">
      <use ffdec:characterId="6" height="1.35" transform="matrix(1.0, 0.0, 0.0, 1.0, 0.0, 0.0)" width="0.6" xlink:href="#shape0"/>
      <use ffdec:characterId="8" height="17.55" transform="matrix(1.0, 0.0, 0.0, 1.0, 0.85, 1.5)" width="28.45" xlink:href="#sprite1"/>
      <use ffdec:characterId="10" height="39.95" transform="matrix(1.0, 0.0, 0.0, 1.0, -20.25, 2.65)" width="41.0" xlink:href="#sprite2"/>
      <use ffdec:characterId="10" height="39.95" transform="matrix(-1.0, 0.0, 0.0, 1.0, 20.25, 2.65)" width="41.0" xlink:href="#sprite2"/>
    </g>
    <g id="shape0">
      <path d="M-9.25 -5.15 L-9.55 -4.3 Q-9.8 -4.4 -9.5 -4.95 L-9.05 -5.65 -9.2 -5.3 -9.15 -5.3 -9.25 -5.15" fill="#000000" fill-rule="evenodd" stroke="none"/>
    </g>
    <g id="sprite1">
      <use ffdec:characterId="7" height="17.55" transform="matrix(1.0, 0.0, 0.0, 1.0, 0.0, 0.0)" width="28.45" xlink:href="#shape1"/>
    </g>
    <g id="shape1">
      <path d="M13.35 -2.1 L13.5 -1.9 13.8 -1.5 13.35 0.0 13.45 0.0 13.55 0.0 13.45 0.1 13.2 0.8 12.15 2.1 11.5 2.35 Q10.95 2.35 9.35 0.95 L7.8 -0.35 7.75 0.0 8.45 1.65 Q8.85 3.5 7.1 3.5 4.95 3.5 2.8 1.4 L2.3 0.8 1.8 0.4 0.75 -0.75 0.25 -1.6 0.2 -1.65 0.6 1.9 Q0.7 3.95 0.2 4.6 L-2.05 3.95 Q-3.55 3.3 -4.5 2.55 L-4.65 2.35 -4.85 2.2 -6.15 1.05 -6.2 0.95 Q-7.4 -0.5 -7.75 -1.8 L-7.8 -2.25 -9.1 -1.2 Q-10.8 -0.05 -11.95 -0.05 -12.45 -0.05 -12.65 -0.25 -13.2 -0.25 -13.65 -0.9 L-13.95 -1.8 -13.85 -2.4 -13.85 -2.45 -14.0 -2.95 -13.65 -3.3 -13.6 -3.3 Q-12.95 -3.3 -12.25 -2.35 L-12.15 -2.25 -12.1 -2.3 -11.8 -2.25 -11.75 -2.25 Q-10.3 -2.25 -8.9 -3.2 L-8.25 -3.65 -8.2 -3.7 -8.1 -3.85 -8.05 -4.5 -7.6 -6.35 -7.05 -7.45 -6.9 -7.75 -6.8 -7.95 -6.75 -7.85 -6.85 -7.1 -7.05 -6.4 -7.35 -5.45 -7.45 -3.8 -7.0 -2.6 -6.0 -0.65 -5.85 -0.45 -4.55 0.9 -4.25 1.2 -3.45 1.65 -1.75 2.3 -1.7 2.3 -1.3 2.3 -1.15 2.1 -1.2 2.05 -1.15 2.05 -0.9 2.2 -0.9 1.9 -0.95 1.65 -0.95 1.45 -0.95 0.85 -0.95 0.8 -1.1 -0.45 -0.85 -1.85 -0.15 -2.95 -0.25 -3.4 0.1 -4.5 0.2 -4.35 0.1 -4.0 Q0.1 -3.1 0.9 -2.0 L1.65 -1.05 Q3.1 0.55 5.0 0.9 L5.05 0.95 5.5 1.0 6.0 1.0 6.05 1.0 6.7 0.85 6.95 0.6 7.0 0.45 7.05 0.2 7.1 0.1 7.1 -0.35 7.65 -1.6 8.1 -2.0 9.4 -1.2 10.5 -0.05 11.15 0.45 11.2 0.35 Q11.85 -0.4 12.25 -1.85 L12.35 -2.65 Q12.45 -3.2 13.0 -2.9 13.1 -2.4 13.35 -2.1" fill="#000000" fill-rule="evenodd" stroke="none"/>
      <path d="M-13.85 -2.4 L-14.0 -2.5 -13.85 -2.45 -13.85 -2.4 M-4.35 -8.1 L-4.4 -8.1 -4.6 -8.15 -4.35 -8.1 M-6.8 -7.95 L-6.9 -7.75 -6.85 -8.0 -6.8 -7.95" fill="#ff9933" fill-rule="evenodd" stroke="none"/>
      <path d="M7.85 -10.95 L8.1 -10.55 8.15 -10.6 8.85 -10.15 9.5 -9.55 10.15 -9.2 Q11.0 -8.45 11.65 -6.95 L12.75 -4.65 Q13.35 -3.35 13.35 -2.4 L13.35 -2.1 Q13.1 -2.4 13.0 -2.9 12.45 -3.2 12.35 -2.65 L12.25 -1.85 Q11.85 -0.4 11.2 0.35 L11.15 0.45 10.5 -0.05 9.4 -1.2 8.1 -2.0 7.65 -1.6 7.1 -0.35 7.1 0.1 7.05 0.2 7.0 0.45 6.95 0.6 6.7 0.85 6.05 1.0 6.0 1.0 5.5 1.0 5.05 0.95 5.0 0.9 Q3.1 0.55 1.65 -1.05 L0.9 -2.0 Q0.1 -3.1 0.1 -4.0 L0.2 -4.35 0.1 -4.5 -0.25 -3.4 -0.15 -2.95 -0.85 -1.85 -1.1 -0.45 -0.95 0.8 -0.95 0.85 -0.95 1.45 -0.95 1.65 -0.9 1.9 -0.9 2.2 -1.15 2.05 -1.2 2.05 -1.15 2.1 -1.3 2.3 -1.7 2.3 -1.75 2.3 -3.45 1.65 -4.25 1.2 -4.55 0.9 -5.85 -0.45 -6.0 -0.65 -7.0 -2.6 -7.45 -3.8 -7.35 -5.45 -7.05 -6.4 -6.85 -7.1 -6.9 -6.9 -6.75 -5.85 -6.3 -5.05 -5.95 -3.2 -5.65 -2.25 -5.1 -1.45 Q-4.05 -0.15 -3.3 0.2 L-1.7 0.6 -1.75 0.05 -1.3 -2.75 -1.25 -2.9 -0.05 -4.85 0.15 -5.05 0.6 -5.55 0.65 -5.5 0.55 -5.3 0.65 -5.05 0.6 -4.85 0.8 -3.9 1.9 -2.2 2.0 -2.15 2.75 -1.5 3.4 -1.05 3.8 -0.9 5.7 -0.4 5.85 -0.35 6.55 -1.3 6.7 -1.55 6.9 -2.15 6.95 -2.25 Q7.35 -3.65 7.35 -5.0 L7.05 -7.3 6.2 -9.5 5.35 -10.8 4.95 -11.5 4.3 -12.35 4.5 -12.35 5.05 -12.2 6.85 -11.45 7.85 -10.95 M-13.65 -3.3 L-13.65 -3.45 Q-13.65 -4.5 -11.35 -8.1 L-9.95 -9.75 -9.95 -9.8 -9.65 -10.05 -9.5 -10.25 -8.3 -11.1 -8.25 -11.15 -8.0 -11.4 -7.45 -11.65 -6.7 -12.1 -6.65 -12.0 -6.6 -11.95 -6.7 -11.8 -6.2 -12.05 -6.15 -11.9 -7.1 -10.8 -8.6 -8.85 -9.3 -7.1 -9.4 -5.45 -9.3 -4.4 Q-9.2 -4.2 -8.9 -4.2 L-8.05 -4.5 -8.1 -3.85 -8.2 -3.7 -8.25 -3.65 -8.9 -3.2 Q-10.3 -2.25 -11.75 -2.25 L-11.8 -2.25 -12.1 -2.3 -12.15 -2.25 -12.25 -2.35 Q-12.95 -3.3 -13.6 -3.3 L-13.65 -3.3" fill="#65402a" fill-rule="evenodd" stroke="none"/>
      <path d="M13.35 -2.1 L13.35 -2.4 Q13.35 -3.35 12.75 -4.65 L11.65 -6.95 Q11.0 -8.45 10.15 -9.2 L9.5 -9.55 8.85 -10.15 8.15 -10.6 8.1 -10.55 7.85 -10.95 10.9 -8.95 Q12.9 -7.3 13.6 -6.05 14.45 -4.7 14.45 -2.95 14.45 -0.15 13.55 0.0 L13.45 0.0 13.35 0.0 13.8 -1.5 13.5 -1.9 13.35 -2.1 M4.5 -12.35 L4.3 -12.35 4.95 -11.5 5.35 -10.8 6.2 -9.5 7.05 -7.3 6.9 -7.55 6.45 -8.5 5.7 -9.7 5.0 -10.5 Q5.0 -9.6 4.4 -8.9 L4.45 -8.9 Q3.45 -7.8 2.25 -7.75 L1.4 -7.55 0.9 -7.55 0.8 -6.7 Q0.8 -5.55 1.65 -4.4 L2.1 -3.55 2.35 -3.4 Q3.6 -2.75 4.15 -2.75 5.35 -2.75 5.7 -3.9 L6.25 -4.4 6.35 -4.65 6.65 -4.8 6.95 -4.95 7.35 -5.0 Q7.35 -3.65 6.95 -2.25 L6.9 -2.15 6.7 -1.55 6.55 -1.3 5.85 -0.35 5.7 -0.4 3.8 -0.9 3.4 -1.05 2.75 -1.5 2.0 -2.15 1.9 -2.2 0.8 -3.9 0.6 -4.85 0.65 -5.05 0.55 -5.3 0.65 -5.5 0.6 -5.55 0.15 -5.05 -0.05 -4.85 -0.2 -5.6 -0.2 -6.7 -0.3 -7.7 -0.3 -7.8 -0.35 -8.1 -1.05 -8.05 Q-2.55 -8.05 -4.35 -8.75 L-5.15 -9.1 -5.55 -9.25 -5.7 -9.4 Q-6.5 -10.0 -6.5 -10.65 L-6.5 -10.75 -6.6 -10.7 -6.55 -10.8 -7.75 -9.85 Q-9.25 -8.15 -9.25 -6.5 L-9.15 -6.35 -9.15 -6.2 Q-9.05 -5.85 -8.5 -5.85 L-8.35 -5.75 -8.15 -5.9 -7.6 -6.35 -8.05 -4.5 -8.9 -4.2 Q-9.2 -4.2 -9.3 -4.4 L-9.4 -5.45 -9.3 -7.1 -8.6 -8.85 -7.1 -10.8 -6.15 -11.9 -6.2 -12.05 -6.7 -11.8 -6.6 -11.95 -6.65 -12.0 -6.55 -12.05 -5.5 -12.6 -4.45 -12.8 -3.7 -12.8 -3.15 -12.75 -0.8 -12.95 0.8 -12.95 4.5 -12.35 M-1.3 -2.75 L-1.75 0.05 -1.7 0.6 -3.3 0.2 Q-4.05 -0.15 -5.1 -1.45 L-5.65 -2.25 -5.95 -3.2 -6.3 -5.05 -6.05 -5.0 -5.75 -5.2 -5.1 -5.25 -4.3 -4.5 -3.85 -3.8 -3.4 -3.05 Q-2.95 -2.45 -2.25 -2.45 -1.8 -2.45 -1.3 -2.75" fill="#986b3e" fill-rule="evenodd" stroke="none"/>
      <path d="M7.05 -7.3 L7.35 -5.0 6.95 -4.95 6.65 -4.8 6.35 -4.65 6.25 -4.4 5.7 -3.9 Q5.35 -2.75 4.15 -2.75 3.6 -2.75 2.35 -3.4 L2.1 -3.55 1.65 -4.4 Q0.8 -5.55 0.8 -6.7 L0.9 -7.55 1.4 -7.55 2.25 -7.75 Q3.45 -7.8 4.45 -8.9 L4.4 -8.9 Q5.0 -9.6 5.0 -10.5 L5.7 -9.7 6.45 -8.5 6.9 -7.55 7.05 -7.3 M-0.05 -4.85 L-1.25 -2.9 -1.3 -2.75 Q-1.8 -2.45 -2.25 -2.45 -2.95 -2.45 -3.4 -3.05 L-3.85 -3.8 -4.3 -4.5 -5.1 -5.25 -5.75 -5.2 -6.05 -5.0 -6.3 -5.05 -6.75 -5.85 -6.9 -6.9 -6.85 -7.1 -6.75 -7.85 -6.8 -7.95 -6.85 -8.0 -6.9 -7.75 -7.05 -7.45 -7.6 -6.35 -8.15 -5.9 -8.35 -5.75 -8.5 -5.85 Q-9.05 -5.85 -9.15 -6.2 L-9.15 -6.35 -9.25 -6.5 Q-9.25 -8.15 -7.75 -9.85 L-6.55 -10.8 -6.6 -10.7 -6.5 -10.75 -6.5 -10.65 Q-6.5 -10.0 -5.7 -9.4 L-5.55 -9.25 -5.15 -9.1 -4.35 -8.75 Q-2.55 -8.05 -1.05 -8.05 L-0.35 -8.1 -0.3 -7.8 -0.3 -7.7 -0.2 -6.7 -0.2 -5.6 -0.05 -4.85 M-4.35 -8.1 L-4.6 -8.15 -4.4 -8.1 -4.35 -8.1" fill="#bea87e" fill-rule="evenodd" stroke="none"/>
    </g>
    <g id="sprite2">
      <use ffdec:characterId="9" height="39.95" transform="matrix(1.0, 0.0, 0.0, 1.0, 0.0, 0.0)" width="41.0" xlink:href="#shape2"/>
    </g>
    <g id="shape2">
      <path d="M-5.75 -7.7 Q-5.2 -9.1 -4.05 -10.6 L-3.85 -10.85 -2.35 -12.65 Q-1.5 -13.6 -0.5 -14.35 L-0.45 -14.45 2.9 -17.25 Q5.05 -18.55 7.4 -19.4 L12.35 -21.0 14.1 -21.0 14.25 -21.05 Q15.95 -20.95 17.85 -20.25 L18.65 -19.9 19.7 -19.1 19.75 -19.1 19.9 -19.1 19.9 -19.35 20.15 -19.3 20.1 -19.3 Q19.75 -18.9 19.65 -18.15 L19.5 -16.8 18.85 -17.15 18.75 -17.6 17.45 -18.45 Q17.0 -18.95 15.95 -18.95 L13.9 -18.55 13.2 -18.05 11.7 -17.0 Q9.4 -15.35 9.2 -14.65 L9.45 -15.0 Q9.7 -15.45 11.45 -16.05 L13.9 -16.6 15.15 -16.45 Q15.7 -16.4 16.15 -15.95 L16.55 -15.25 16.25 -14.95 15.3 -14.65 13.95 -13.85 12.15 -12.1 8.9 -8.6 5.7 -4.35 3.35 -1.55 3.1 -0.45 2.65 1.75 2.55 2.2 2.55 2.4 2.4 4.45 Q2.35 4.95 2.55 5.15 L2.5 5.4 2.35 5.8 2.25 6.3 2.15 6.7 2.05 7.55 2.05 7.6 1.95 9.3 1.95 9.6 2.0 10.05 1.3 9.3 -0.7 6.6 Q-2.05 3.9 -2.1 2.4 L-2.1 0.35 -2.15 0.15 -1.9 -1.45 -1.75 -2.05 -1.25 -3.15 Q-1.95 -2.85 -2.4 -2.1 L-3.0 -0.75 -3.55 0.85 -3.5 1.3 -3.8 2.3 -4.0 3.85 -3.9 4.55 -4.2 4.0 -5.25 1.55 -5.2 1.15 -5.25 1.05 -5.3 1.1 -5.35 0.85 -5.6 1.25 -5.65 1.55 -6.0 2.75 -6.25 5.15 -6.25 5.5 -6.75 3.3 -7.25 -0.5 -7.2 -1.5 -7.05 -2.35 Q-7.0 -1.5 -6.45 -1.5 -5.7 -1.5 -5.05 -5.05 L-3.8 -8.7 -3.8 -8.75 -4.05 -8.7 Q-4.45 -8.7 -4.55 -9.25 L-4.5 -9.4 -5.75 -7.7 M13.25 -19.0 L13.55 -19.35 13.45 -19.7 Q10.9 -19.25 6.95 -15.25 2.55 -10.75 1.05 -10.75 -0.35 -10.75 -0.5 -11.85 -1.15 -11.7 -2.1 -10.45 L-3.5 -8.35 Q-4.65 -5.7 -4.65 -4.5 -4.85 -3.05 -3.6 -3.05 -2.95 -3.05 -2.0 -3.8 -1.05 -4.6 -0.5 -4.6 L0.45 -4.3 1.15 -3.95 1.5 -2.2 Q1.15 -0.75 1.15 0.0 L1.35 0.6 1.45 0.55 1.8 -0.65 2.1 -1.6 2.1 -1.65 3.65 -6.7 5.1 -10.4 5.3 -10.75 7.3 -13.95 Q9.0 -16.35 11.05 -17.8 L11.05 -17.85 11.85 -18.25 12.5 -18.55 13.25 -19.0 M-18.95 -1.6 L-19.0 -1.7 -19.0 -2.2 Q-19.0 -3.2 -18.6 -4.05 L-18.0 -5.0 -17.55 -5.85 -16.4 -6.85 -16.35 -6.95 -15.0 -7.65 -14.95 -7.65 -15.05 -7.65 -15.05 -7.7 -15.0 -7.7 -14.9 -7.65 -14.85 -7.65 -14.3 -7.65 Q-13.95 -7.6 -13.95 -7.25 L-14.05 -6.85 -13.85 -6.7 -14.2 -6.3 -14.15 -6.2 -14.7 -5.6 -16.05 -3.9 -16.1 -3.8 -16.2 -3.65 -16.7 -2.2 Q-16.95 -1.3 -17.35 -0.75 -17.7 -0.75 -17.7 -1.45 L-17.65 -2.2 -17.8 -1.45 Q-18.0 -0.3 -18.35 0.25 L-18.7 -0.75 -18.75 -1.3 -18.95 -1.6 M-16.75 -10.2 Q-16.45 -10.15 -16.45 -9.75 L-16.5 -9.25 -16.35 -8.55 -16.2 -8.25 -16.2 -8.1 -16.35 -7.85 -16.7 -7.6 Q-17.8 -7.6 -17.65 -8.95 -17.65 -10.2 -16.85 -10.2 L-16.75 -10.2 M-8.65 -9.1 L-7.75 -9.25 -6.65 -9.05 -6.7 -8.95 Q-7.25 -9.1 -7.6 -8.65 L-8.55 -8.05 -9.15 -7.65 -10.2 -6.5 Q-11.45 -5.35 -11.45 -4.15 -11.45 -3.55 -11.1 -3.6 L-11.0 -4.1 -10.6 -5.2 Q-9.85 -6.8 -8.8 -6.9 -9.3 -6.7 -9.9 -5.5 -10.5 -4.2 -10.5 -3.65 L-10.35 -3.0 -10.25 -3.05 -10.2 -2.9 Q-9.8 -3.0 -9.05 -4.5 L-8.3 -6.15 -8.25 -6.25 -8.25 -6.15 -8.0 -4.65 -8.1 -4.4 -8.3 -4.2 -9.25 -2.25 -9.95 -0.15 -10.1 0.6 -10.5 0.75 -10.8 0.8 -11.15 -0.1 -11.45 -1.7 -11.8 0.55 -12.05 1.4 -12.05 1.35 -12.4 1.25 -12.8 0.35 Q-13.2 -0.55 -13.2 -1.45 L-13.15 -1.9 -13.25 -2.6 -13.0 -3.75 -12.95 -3.8 -12.9 -3.8 -12.45 -4.3 -12.3 -4.4 -10.45 -6.9 -10.45 -6.95 -8.55 -8.8 -8.65 -9.1 M-12.35 -6.3 Q-13.2 -5.1 -13.2 -4.25 L-13.1 -3.85 -13.5 -2.95 -13.7 -2.1 -13.85 -1.8 -14.0 -1.15 -14.2 -0.55 -14.25 -0.45 -14.4 0.55 -14.5 -1.1 Q-14.5 -2.75 -13.9 -4.0 L-12.35 -6.3 M-17.15 -3.75 L-16.9 -4.3 -17.0 -4.2 -17.15 -3.75 M-12.25 -3.15 L-12.15 -3.35 -12.35 -2.85 -12.25 -3.15" fill="#986b3e" fill-rule="evenodd" stroke="none"/>
      <path d="M-7.05 -2.35 L-7.2 -1.5 -7.25 -0.5 -6.75 3.3 -6.25 5.5 -6.25 5.15 -6.0 2.75 -5.65 1.55 -5.6 1.25 -5.35 0.85 -5.3 1.1 -5.25 1.05 -5.2 1.15 -5.25 1.55 -4.2 4.0 -3.9 4.55 -4.0 3.85 -3.8 2.3 -3.5 1.3 -3.55 0.85 -3.0 -0.75 -2.4 -2.1 Q-1.95 -2.85 -1.25 -3.15 L-1.75 -2.05 -1.9 -1.45 -2.15 0.15 -2.1 0.35 -2.1 2.4 Q-2.05 3.9 -0.7 6.6 L1.3 9.3 2.0 10.05 2.55 10.75 2.45 11.1 3.3 13.9 3.3 14.05 3.9 14.65 4.05 14.9 3.95 14.95 3.35 15.4 3.15 15.45 3.05 15.45 3.1 15.2 3.05 15.2 2.8 15.45 2.45 15.6 0.95 15.25 Q-0.6 15.25 -2.85 13.05 L-2.95 12.9 -3.25 12.9 Q-4.1 12.35 -4.7 11.25 -5.65 10.85 -6.7 8.2 L-6.75 8.3 -7.15 7.9 -7.1 8.15 Q-7.1 8.55 -7.3 8.55 L-7.65 8.4 -7.75 8.4 -8.2 8.2 Q-8.7 8.9 -9.3 8.9 -10.1 8.9 -10.8 8.55 L-11.75 8.25 -12.25 8.3 Q-13.85 8.3 -14.55 4.9 L-14.45 4.65 -14.6 3.85 -14.55 3.45 -14.75 2.6 -14.8 2.65 Q-15.05 3.45 -15.8 3.45 -17.05 3.45 -18.35 1.15 -18.95 -0.3 -18.95 -1.45 L-18.95 -1.6 -18.75 -1.3 -18.7 -0.75 -18.35 0.25 Q-18.0 -0.3 -17.8 -1.45 L-17.65 -2.2 -17.7 -1.45 Q-17.7 -0.75 -17.35 -0.75 -16.95 -1.3 -16.7 -2.2 L-16.2 -3.65 -16.1 -3.8 -16.05 -3.9 -14.7 -5.6 -14.15 -6.2 -14.2 -6.3 -13.85 -6.7 -14.05 -6.85 -13.95 -7.25 Q-13.95 -7.6 -14.3 -7.65 L-13.65 -7.7 Q-12.7 -7.7 -12.5 -6.95 L-12.4 -7.1 Q-11.35 -8.2 -10.7 -8.3 L-11.15 -7.75 -11.05 -7.8 -11.55 -7.3 -12.3 -6.4 -12.35 -6.3 -13.9 -4.0 Q-14.5 -2.75 -14.5 -1.1 L-14.4 0.55 -14.25 -0.45 -14.2 -0.55 -14.0 -1.15 -13.85 -1.8 -13.7 -2.1 -13.5 -2.95 -13.1 -3.85 -12.95 -3.8 -13.0 -3.75 -13.25 -2.6 -13.15 -1.9 -13.2 -1.45 Q-13.2 -0.55 -12.8 0.35 L-12.4 1.25 -12.05 1.35 -12.05 1.4 -11.8 0.55 -11.45 -1.7 -11.15 -0.1 -10.8 0.8 -10.5 0.75 -10.1 0.6 -9.95 -0.15 -9.25 -2.25 -8.3 -4.2 -8.1 -4.4 -8.0 -4.65 -8.25 -6.15 -8.25 -6.25 -8.1 -6.55 -8.2 -6.85 -8.2 -6.95 -8.25 -6.9 -8.55 -7.0 -8.8 -6.9 Q-9.85 -6.8 -10.6 -5.2 L-11.0 -4.1 -11.1 -3.6 Q-11.45 -3.55 -11.45 -4.15 -11.45 -5.35 -10.2 -6.5 L-9.15 -7.65 -8.55 -8.05 -7.6 -8.65 Q-7.25 -9.1 -6.7 -8.95 L-6.65 -9.05 -6.0 -9.45 -5.8 -9.35 -5.8 -9.25 -5.9 -9.0 -5.7 -8.95 -5.95 -8.3 -5.9 -8.3 -6.55 -6.6 -6.55 -6.4 -6.6 -6.35 -6.65 -6.1 -6.8 -5.15 -7.1 -2.95 -7.05 -2.35 M2.55 5.15 Q2.35 4.95 2.4 4.45 L2.55 2.4 2.65 1.75 3.1 -0.45 3.35 -1.55 5.7 -4.35 8.9 -8.6 12.15 -12.1 13.95 -13.85 15.3 -14.65 16.25 -14.95 16.55 -15.25 16.15 -15.95 Q15.7 -16.4 15.15 -16.45 L13.9 -16.6 11.45 -16.05 Q9.7 -15.45 9.45 -15.0 L9.2 -14.65 Q9.4 -15.35 11.7 -17.0 L13.2 -18.05 13.9 -18.55 15.95 -18.95 Q17.0 -18.95 17.45 -18.45 L18.75 -17.6 18.85 -17.15 19.5 -16.8 19.65 -18.15 Q19.75 -18.9 20.1 -19.3 L20.15 -19.3 Q20.45 -19.6 20.45 -19.0 L20.4 -18.0 20.35 -17.65 20.45 -16.05 20.5 -15.3 20.65 -13.45 20.65 -13.0 20.65 -12.75 20.65 -12.1 20.6 -11.9 20.6 -11.75 20.45 -11.15 Q20.35 -11.05 20.25 -11.05 19.9 -11.05 19.9 -11.45 L19.9 -11.5 19.8 -11.5 18.9 -12.15 17.2 -13.35 16.3 -13.35 14.8 -12.8 Q14.15 -12.15 13.95 -12.15 13.65 -12.15 13.55 -12.3 L9.5 -7.3 9.4 -7.2 9.4 -7.15 7.15 -3.65 7.05 -3.45 Q5.85 -1.15 5.1 -0.55 L5.05 -0.5 4.85 -0.2 4.3 0.95 4.1 1.4 4.05 1.55 3.7 2.0 3.65 2.3 3.6 2.85 3.3 3.25 3.1 4.0 2.9 4.75 2.9 5.3 2.55 5.15 M15.5 -16.7 L15.45 -16.75 15.35 -16.7 15.5 -16.7 M-18.6 -4.05 L-18.65 -4.0 Q-19.05 -4.0 -18.95 -4.4 -18.95 -5.2 -17.8 -6.15 L-18.45 -5.75 -18.75 -5.45 Q-19.1 -5.85 -19.05 -7.5 -18.95 -10.5 -17.35 -10.35 L-17.2 -10.3 -16.75 -10.2 -16.85 -10.2 Q-17.65 -10.2 -17.65 -8.95 -17.8 -7.6 -16.7 -7.6 L-16.35 -7.85 -16.2 -8.1 -15.95 -7.65 -15.05 -7.65 -14.95 -7.65 -15.0 -7.65 -16.35 -6.95 -16.4 -6.85 -17.55 -5.85 -18.0 -5.0 -18.6 -4.05 M-11.85 2.25 L-12.05 1.55 -12.05 1.6 -12.15 1.95 -11.9 2.25 -11.85 2.25" fill="#65402a" fill-rule="evenodd" stroke="none"/>
      <path d="M-5.75 -7.7 L-4.5 -9.4 -4.55 -9.25 Q-4.45 -8.7 -4.05 -8.7 L-3.8 -8.75 -3.8 -8.7 -5.05 -5.05 Q-5.7 -1.5 -6.45 -1.5 -7.0 -1.5 -7.05 -2.35 L-7.1 -2.95 -6.8 -5.15 -6.65 -6.1 -6.6 -6.35 -6.55 -6.4 -5.75 -7.7 M13.25 -19.0 L12.5 -18.55 11.85 -18.25 11.05 -17.85 11.05 -17.8 Q9.0 -16.35 7.3 -13.95 L5.3 -10.75 5.1 -10.4 3.65 -6.7 2.1 -1.65 2.1 -1.6 1.8 -0.65 1.45 0.55 1.35 0.6 1.15 0.0 Q1.15 -0.75 1.5 -2.2 L1.15 -3.95 0.45 -4.3 -0.5 -4.6 Q-1.05 -4.6 -2.0 -3.8 -2.95 -3.05 -3.6 -3.05 -4.85 -3.05 -4.65 -4.5 -4.65 -5.7 -3.5 -8.35 L-2.1 -10.45 Q-1.15 -11.7 -0.5 -11.85 -0.35 -10.75 1.05 -10.75 2.55 -10.75 6.95 -15.25 10.9 -19.25 13.45 -19.7 L13.55 -19.35 13.25 -19.0 M-11.05 -7.8 Q-9.7 -9.15 -8.85 -9.15 L-8.65 -9.1 -8.55 -8.8 -10.45 -6.95 -11.2 -6.25 -12.1 -4.85 -12.45 -4.3 -12.9 -3.8 -12.95 -3.8 -13.1 -3.85 -13.2 -4.25 Q-13.2 -5.1 -12.35 -6.3 L-12.3 -6.4 -11.55 -7.3 -11.05 -7.8 M-8.25 -6.25 L-8.3 -6.15 -9.05 -4.5 Q-9.8 -3.0 -10.2 -2.9 L-10.25 -3.05 -10.35 -3.0 -10.5 -3.65 Q-10.5 -4.2 -9.9 -5.5 -9.3 -6.7 -8.8 -6.9 L-8.55 -7.0 -8.25 -6.9 -8.2 -6.85 -8.1 -6.55 -8.25 -6.25" fill="#bea87e" fill-rule="evenodd" stroke="none"/>
      <path d="M20.4 -18.0 L20.45 -16.05 20.35 -17.65 20.4 -18.0 M20.6 -11.75 L20.6 -11.15 20.5 -11.15 20.45 -11.15 20.6 -11.75 M5.05 -0.5 L4.75 0.15 4.05 1.55 4.1 1.4 4.3 0.95 4.85 -0.2 5.05 -0.5 M15.5 -16.7 L15.35 -16.7 15.45 -16.75 15.5 -16.7 M3.05 15.45 L2.8 15.45 3.05 15.2 3.1 15.2 3.05 15.45 M-8.25 -6.9 L-8.2 -6.95 -8.2 -6.85 -8.25 -6.9 M-11.85 2.25 L-11.9 2.25 -12.15 1.95 -12.05 1.6 -12.05 1.55 -11.85 2.25" fill="#ff9933" fill-rule="evenodd" stroke="none"/>
      <path d="M2.55 2.4 L2.55 2.2 2.65 1.75 2.55 2.4" fill="#ffff66" fill-rule="evenodd" stroke="none"/>
      <path d="M-12.45 -4.3 L-12.1 -4.85 -11.2 -6.25 -10.45 -6.95 -10.45 -6.9 -12.3 -4.4 -12.45 -4.3 M-17.15 -3.75 L-17.0 -4.2 -16.9 -4.3 -17.15 -3.75" fill="#b46332" fill-rule="evenodd" stroke="none"/>
      <path d="M-12.25 -3.15 L-12.35 -2.85 -12.15 -3.35 -12.25 -3.15" fill="#ffdf2d" fill-rule="evenodd" stroke="none"/>
      <path d="M19.9 -19.35 L19.9 -19.1 19.75 -19.1 19.7 -19.1 18.65 -19.9 17.85 -20.25 Q15.95 -20.95 14.25 -21.05 L14.1 -21.0 12.95 -21.0 Q7.7 -19.6 2.2 -15.05 -3.6 -10.25 -4.1 -6.95 L-4.2 -6.9 -4.35 -7.05 Q-4.35 -8.5 -2.3 -11.25 -0.5 -13.75 1.0 -14.85 L5.7 -18.2 8.2 -19.7 7.4 -19.4 Q5.05 -18.55 2.9 -17.25 L-0.45 -14.45 -0.5 -14.35 Q-1.5 -13.6 -2.35 -12.65 -6.55 -8.05 -6.45 -4.8 L-6.45 -4.45 -6.65 -4.0 -6.7 -3.95 -6.8 -4.85 -6.75 -6.55 -6.45 -7.75 -6.3 -8.05 -6.35 -8.1 -6.3 -8.3 -6.3 -8.45 -6.35 -8.45 -6.4 -8.45 -6.4 -8.6 -6.3 -8.55 -6.35 -8.6 -6.45 -8.6 -7.0 -8.45 -7.3 -8.4 Q-7.8 -8.7 -9.3 -7.2 -11.35 -5.15 -11.5 -2.75 L-11.7 -3.3 Q-11.7 -5.0 -10.75 -6.35 L-11.65 -5.4 Q-13.3 -3.45 -13.6 -1.3 L-13.7 -1.25 Q-14.05 -3.3 -11.4 -6.4 -9.45 -8.65 -7.9 -9.2 L-9.15 -8.9 -9.6 -8.8 -10.2 -8.45 -10.95 -7.85 -11.35 -7.4 -12.5 -6.3 Q-13.25 -5.35 -13.6 -4.35 L-13.65 -4.45 Q-13.65 -5.05 -13.05 -6.0 L-12.85 -6.6 -12.85 -6.65 -13.05 -6.8 -13.2 -6.75 -13.55 -6.85 Q-14.45 -6.85 -15.75 -5.3 L-16.95 -3.45 -17.05 -3.45 -16.1 -5.75 -14.85 -6.8 -14.15 -7.25 -13.55 -7.35 -14.2 -7.3 -13.95 -7.45 -14.1 -7.65 -14.9 -7.65 -15.65 -7.4 -15.75 -7.35 -15.85 -7.45 -16.25 -8.15 -16.55 -9.05 -16.65 -9.95 -16.65 -10.0 Q-16.9 -10.45 -17.2 -10.3 L-17.35 -10.35 Q-18.95 -10.5 -19.05 -7.5 L-19.05 -6.95 Q-18.4 -8.1 -17.35 -8.1 L-16.85 -8.05 Q-18.4 -7.5 -18.85 -6.45 L-18.95 -5.95 -18.75 -5.45 -18.45 -5.75 Q-17.85 -6.3 -16.95 -6.4 L-16.5 -6.45 -16.5 -6.4 -16.95 -6.0 -17.95 -4.6 -17.95 -4.45 -18.2 -3.75 -18.4 -2.85 -18.55 -1.2 -18.4 -0.3 -18.0 0.9 Q-17.05 3.2 -15.9 3.2 L-15.55 3.1 -15.45 3.05 -15.35 2.95 -16.3 2.15 -17.15 1.05 -17.6 -0.95 -17.35 -2.9 -17.2 -2.9 -17.25 -1.95 Q-17.25 -0.4 -16.9 0.55 -16.5 1.55 -15.55 2.25 L-15.2 2.45 -15.15 2.0 -16.15 0.9 Q-15.85 1.25 -15.4 1.25 L-15.2 1.25 -15.0 1.4 -15.0 1.35 -14.7 0.65 -14.7 0.8 Q-14.7 3.5 -14.3 4.5 L-13.45 6.35 -12.55 7.3 -12.95 6.35 -13.3 4.75 -13.4 3.9 -13.3 3.9 -12.85 5.4 -12.2 7.0 -10.95 8.3 -9.55 8.55 -9.0 8.5 -9.6 7.9 -11.1 5.7 -11.7 3.85 -12.1 1.7 -12.0 0.15 -12.0 0.4 Q-12.05 2.3 -10.6 5.25 -9.6 7.35 -8.4 8.25 L-8.2 8.05 -7.8 7.75 -7.8 7.7 Q-7.65 7.55 -7.65 7.2 L-7.85 6.35 -7.85 5.6 -7.75 5.15 -7.8 5.05 -7.8 4.7 -7.65 4.95 -7.5 5.55 -6.15 8.7 -6.05 8.9 -5.5 9.9 Q-4.5 11.55 -3.25 12.5 L-4.15 11.05 Q-6.35 7.15 -6.35 4.9 L-6.25 4.3 -5.9 3.7 -6.05 4.3 Q-6.05 6.85 -3.75 10.8 L-1.5 13.8 -1.2 14.0 Q-0.15 14.75 0.65 14.95 L0.95 15.05 3.05 15.45 3.15 15.45 3.25 15.45 Q1.3 15.2 -0.55 13.4 -2.1 11.8 -2.85 10.05 -4.1 6.65 -4.1 4.15 -4.1 1.95 -3.5 0.0 -2.65 -2.6 -0.95 -3.5 L-0.9 -3.35 -0.9 -3.3 -1.0 -3.4 Q-2.3 -2.35 -3.0 0.1 -3.6 2.1 -3.6 4.05 -3.6 8.35 -1.35 11.6 0.75 14.6 3.85 15.05 L3.95 14.95 4.05 14.9 3.9 14.65 Q3.3 14.3 2.75 13.1 L2.65 12.85 2.3 12.05 2.3 11.95 Q2.0 11.1 1.95 9.6 L1.95 9.3 2.05 7.6 2.05 7.55 2.15 6.7 2.05 4.9 Q2.05 2.6 2.4 0.7 2.6 -0.7 2.95 -1.4 3.45 -2.45 4.5 -3.15 3.5 -2.4 2.95 0.25 2.55 2.3 2.55 4.75 L2.55 5.15 3.1 3.4 Q3.95 1.15 5.85 -2.0 L7.25 -4.3 Q8.4 -6.5 9.85 -8.2 L9.95 -8.25 10.85 -9.45 11.95 -11.2 13.75 -13.5 13.8 -13.55 14.3 -13.9 15.5 -14.8 13.95 -13.0 15.45 -13.3 17.5 -13.65 18.6 -13.25 18.75 -13.15 19.4 -12.75 19.45 -12.7 19.55 -12.45 20.05 -11.5 18.8 -12.2 17.65 -12.5 Q16.95 -12.55 15.15 -11.9 13.5 -11.4 12.55 -10.6 L11.15 -8.6 10.85 -8.15 10.8 -8.0 10.55 -6.5 10.25 -5.05 9.6 -3.2 8.35 -2.45 6.25 -0.4 6.2 -0.4 4.3 1.9 4.25 2.0 4.15 2.1 Q2.95 3.7 2.85 6.05 L2.75 7.4 2.75 7.6 Q2.8 9.25 3.5 11.15 L3.65 11.5 Q4.5 13.7 5.9 14.6 L5.95 14.95 6.0 15.0 6.0 15.35 Q6.0 15.95 5.35 16.5 4.3 17.5 2.15 17.35 L0.8 17.05 -1.55 16.1 -3.15 14.95 -3.45 14.75 -4.75 13.3 -5.75 11.85 -6.6 10.15 -6.7 10.1 -8.3 10.35 Q-11.55 10.35 -13.25 8.5 -14.2 7.5 -14.6 6.05 L-15.6 4.55 -15.7 4.55 Q-16.7 4.55 -17.7 3.5 L-18.8 1.95 Q-19.4 0.9 -19.45 -0.85 L-19.25 -2.35 Q-20.3 -5.05 -20.35 -7.25 -20.4 -9.25 -19.25 -10.75 -18.15 -12.2 -16.95 -12.05 -15.8 -11.95 -15.95 -10.3 -16.2 -8.8 -14.55 -8.1 L-13.95 -8.2 Q-13.2 -8.2 -12.75 -7.7 L-12.7 -7.65 Q-12.35 -8.25 -10.3 -9.55 L-8.1 -10.3 -6.5 -10.15 -6.0 -10.0 -5.2 -10.2 -3.35 -12.8 Q-1.6 -14.9 -0.45 -15.75 L-0.4 -15.75 -0.35 -16.0 1.15 -17.25 3.8 -19.05 5.25 -19.85 Q11.0 -22.8 13.65 -22.6 L15.85 -22.6 Q17.4 -22.6 18.6 -21.85 L19.3 -21.35 Q20.5 -20.35 20.5 -19.75 L20.35 -19.25 19.9 -19.35 M17.2 -19.15 Q18.0 -19.3 18.85 -18.35 19.6 -17.5 19.6 -17.05 L19.5 -16.65 19.25 -16.35 Q18.75 -17.8 17.6 -18.4 L17.2 -18.45 15.7 -18.45 Q14.0 -18.2 12.0 -16.9 L9.05 -14.85 8.9 -14.9 Q12.0 -18.5 15.8 -19.15 L17.2 -19.15" fill="#000000" fill-rule="evenodd" stroke="none"/>
    </g>
  </defs>
</svg>
