<?xml version="1.0" encoding="UTF-8" standalone="no"?>
<svg xmlns:ffdec="https://www.free-decompiler.com/flash" xmlns:xlink="http://www.w3.org/1999/xlink" ffdec:objectType="frame" height="56.5px" width="60.45px" xmlns="http://www.w3.org/2000/svg">
  <g transform="matrix(1.0, 0.0, 0.0, 1.0, 29.15, 42.3)">
    <use ffdec:characterId="13" height="16.6" transform="matrix(1.0, 0.0, 0.0, 1.0, 0.0, -5.0)" width="35.55" xlink:href="#shape0"/>
    <use ffdec:characterId="5" height="37.65" transform="matrix(0.8961, 0.0, 0.0, 0.8949, -23.95, -10.75)" width="13.5" xlink:href="#sprite0"/>
    <use ffdec:characterId="5" height="37.65" transform="matrix(-0.8961, 0.0, 0.0, 0.8949, 24.15, -10.75)" width="13.5" xlink:href="#sprite0"/>
    <use ffdec:characterId="2" height="22.05" transform="matrix(1.0813, 0.0422, -0.0425, 1.08, -27.75, -25.65)" width="12.75" xlink:href="#sprite1"/>
    <use ffdec:characterId="2" height="22.05" transform="matrix(-0.8961, 0.0, 0.0, 0.8949, 27.6, -21.2)" width="12.75" xlink:href="#sprite1"/>
    <use ffdec:characterId="7" height="11.2" transform="matrix(0.8961, 0.0, 0.0, 0.8949, -29.15, -32.15)" width="27.0" xlink:href="#sprite2"/>
    <use ffdec:characterId="7" height="11.2" transform="matrix(-1.0707, -0.1552, -0.1554, 1.0693, 31.35, -29.15)" width="27.0" xlink:href="#sprite2"/>
    <use ffdec:characterId="11" height="29.3" transform="matrix(1.0, 0.0, 0.0, 1.0, -17.6, -22.35)" width="38.15" xlink:href="#sprite3"/>
    <use ffdec:characterId="9" height="14.35" transform="matrix(1.0, 0.0, 0.0, 1.0, -10.75, -42.3)" width="23.05" xlink:href="#sprite4"/>
  </g>
  <defs>
    <g id="shape0">
      <path d="M17.4 -7.35 L-18.15 -7.35 -18.15 -22.1 Q-1.0 -25.8 17.4 -22.1 L17.4 -7.35" fill="#c61b1b" fill-rule="evenodd" stroke="none"/>
    </g>
    <g id="sprite0">
      <use ffdec:characterId="4" height="37.65" transform="matrix(1.0, 0.0, 0.0, 1.0, 0.0, 0.0)" width="13.5" xlink:href="#shape1"/>
    </g>
    <g id="shape1">
      <path d="M2.1 13.9 L2.0 13.65 1.6 11.0 2.1 13.9" fill="#38393d" fill-rule="evenodd" stroke="none"/>
      <path d="M10.8 25.3 Q9.05 25.35 7.9 23.85 L7.2 22.8 Q4.25 17.15 4.3 11.05 L4.4 9.75 8.95 21.55 10.85 24.7 10.8 25.3" fill="#ff2c2c" fill-rule="evenodd" stroke="none"/>
      <path d="M0.75 3.7 L0.5 2.15 Q0.5 0.25 2.1 -2.0 3.6 -4.1 5.6 -5.4 7.6 -6.6 8.9 -6.25 8.0 -5.5 6.25 -2.1 4.5 1.3 4.4 9.75 L4.3 11.05 Q4.25 17.15 7.2 22.8 L5.85 21.05 3.8 17.9 Q1.3 6.45 5.1 -2.7 L2.7 0.05 Q1.4 1.8 0.75 3.7 M8.25 2.85 L8.05 5.3 Q7.8 6.65 7.8 8.8 L7.5 11.0 7.25 11.1 Q6.45 7.4 6.45 6.4 6.45 5.4 6.75 3.9 8.25 1.05 8.25 2.85" fill="#c61b1b" fill-rule="evenodd" stroke="none"/>
      <path d="M8.9 -6.25 L9.85 -7.25 10.9 -8.15 11.95 -9.0 13.5 -9.75 Q13.0 -6.2 11.8 -2.9 8.8 5.4 9.2 14.4 L9.25 14.65 9.3 15.35 Q9.6 17.65 10.15 19.8 L11.25 24.6 Q11.25 25.2 10.8 25.3 L10.85 24.7 8.95 21.55 4.4 9.75 Q4.5 1.3 6.25 -2.1 8.0 -5.5 8.9 -6.25 M3.8 17.9 Q2.65 16.65 2.25 14.9 L2.1 13.9 1.6 11.0 Q0.35 8.15 0.6 5.2 L0.75 3.7 Q1.4 1.8 2.7 0.05 L5.1 -2.7 Q1.3 6.45 3.8 17.9 M8.25 2.85 Q8.25 1.05 6.75 3.9 6.45 5.4 6.45 6.4 6.45 7.4 7.25 11.1 L7.5 11.0 7.8 8.8 Q7.8 6.65 8.05 5.3 L8.25 2.85" fill="#790303" fill-rule="evenodd" stroke="none"/>
      <path d="M0.8 0.0 Q1.0 7.65 3.2 14.45 5.4 21.25 10.75 24.8 9.75 23.35 8.8 16.55 7.85 9.75 9.8 1.65 9.25 13.35 10.0 18.15 10.85 23.6 13.2 27.9 L9.65 26.1 Q3.05 21.0 1.1 13.4 -0.9 5.8 0.8 0.0" fill="#4d0000" fill-rule="evenodd" stroke="none"/>
    </g>
    <g id="sprite1">
      <use ffdec:characterId="1" height="22.05" transform="matrix(1.0, 0.0, 0.0, 1.0, 0.0, 0.0)" width="12.75" xlink:href="#shape2"/>
    </g>
    <g id="shape2">
      <path d="M3.25 5.4 L4.15 3.3 Q5.0 1.85 6.65 1.0 10.7 -1.05 12.1 1.2 12.75 2.2 12.75 4.1 12.75 6.15 10.75 8.35 L9.25 8.55 8.75 8.2 7.55 9.1 8.55 7.85 Q4.6 6.7 4.05 6.05 L3.25 5.4" fill="#c61b1b" fill-rule="evenodd" stroke="none"/>
      <path d="M2.45 7.3 L2.6 6.9 3.0 6.2 3.0 6.05 3.05 5.9 3.25 5.4 4.05 6.05 Q4.6 6.7 8.55 7.85 L7.55 9.1 3.2 9.1 2.4 7.5 2.45 7.3" fill="#ff2c2c" fill-rule="evenodd" stroke="none"/>
      <path d="M5.55 14.8 L4.25 16.1 4.95 15.0 5.55 14.8 M0.25 15.2 Q0.35 12.95 0.9 11.05 L1.0 10.75 0.25 15.2 M2.4 7.4 L2.45 7.3 2.4 7.5 2.4 7.4 M2.6 6.9 L3.0 6.05 3.0 6.2 2.6 6.9" fill="#38393d" fill-rule="evenodd" stroke="none"/>
      <path d="M10.75 8.35 L5.55 14.8 4.95 15.0 4.25 16.1 3.9 16.55 3.6 16.15 2.35 15.8 1.6 14.5 0.35 17.5 0.25 15.2 1.0 10.75 2.0 7.65 2.4 7.4 2.4 7.5 3.2 9.1 7.55 9.1 8.75 8.2 9.25 8.55 10.75 8.35" fill="#790303" fill-rule="evenodd" stroke="none"/>
      <path d="M3.9 16.55 L3.85 16.6 3.6 17.1 2.2 18.25 3.05 18.1 2.65 18.8 1.55 20.45 Q0.6 20.45 0.35 17.5 L1.6 14.5 2.35 15.8 3.6 16.15 3.9 16.55" fill="#941010" fill-rule="evenodd" stroke="none"/>
      <path d="M3.6 17.1 L3.55 17.2 3.05 18.1 2.2 18.25 3.6 17.1" fill="#1d1e23" fill-rule="evenodd" stroke="none"/>
      <path d="M2.65 5.3 Q3.9 2.7 5.7 1.65 0.9 8.3 0.9 17.75 L1.15 19.4 1.2 19.65 Q5.55 12.6 7.2 12.6 7.6 12.6 7.8 12.95 L7.95 13.35 Q7.95 13.7 6.0 15.55 3.8 17.65 3.3 18.45 2.8 19.2 2.25 21.05 1.35 23.1 0.5 21.05 L0.0 18.45 0.4 13.55 0.9 9.65 2.65 5.3" fill="#4d0000" fill-rule="evenodd" stroke="none"/>
    </g>
    <g id="sprite2">
      <use ffdec:characterId="6" height="11.2" transform="matrix(1.0, 0.0, 0.0, 1.0, 0.0, 0.0)" width="27.0" xlink:href="#shape3"/>
    </g>
    <g id="shape3">
      <path d="M14.65 2.25 L14.6 2.15 Q14.6 1.95 15.6 1.35 16.65 0.7 17.2 0.7 L18.25 0.45 Q18.9 0.15 19.25 0.15 L20.85 0.1 22.9 0.3 23.75 0.55 23.95 0.55 24.5 0.6 25.55 0.9 26.95 1.75 27.0 2.5 Q27.0 3.85 26.25 4.8 L24.8 6.05 21.0 7.35 19.75 7.7 20.5 6.9 18.85 6.95 19.05 5.95 Q14.55 9.5 8.95 9.45 L6.65 9.15 Q4.9 8.75 4.65 8.05 L5.0 8.0 10.15 8.25 Q14.5 7.55 18.4 5.55 L16.7 4.75 Q12.55 6.0 8.35 4.7 L7.95 4.2 Q11.5 4.7 14.65 3.25 L14.65 2.25" fill="#c61b1b" fill-rule="evenodd" stroke="none"/>
      <path d="M19.75 7.7 L14.85 10.0 12.75 10.2 Q10.2 10.55 7.65 9.6 L6.65 9.15 8.95 9.45 Q14.55 9.5 19.05 5.95 L18.85 6.95 20.5 6.9 19.75 7.7 M5.0 8.0 L3.75 6.85 Q1.75 4.7 1.25 1.65 L2.75 4.65 Q3.95 7.05 10.15 8.25 6.2 6.95 5.15 5.5 L5.05 4.8 4.45 4.55 5.9 4.05 3.7 2.65 3.25 2.8 2.55 1.95 Q7.25 3.95 12.3 2.9 L13.7 2.55 13.8 2.0 14.65 2.25 14.65 3.25 Q11.5 4.7 7.95 4.2 L8.35 4.7 Q12.55 6.0 16.7 4.75 L18.4 5.55 Q14.5 7.55 10.15 8.25 L5.0 8.0" fill="#790303" fill-rule="evenodd" stroke="none"/>
      <path d="M14.85 10.0 L14.75 10.05 13.55 10.2 12.75 10.2 14.85 10.0" fill="#38393d" fill-rule="evenodd" stroke="none"/>
      <path d="M1.25 1.65 L1.9 2.0 2.55 1.95 3.25 2.8 3.7 2.65 5.9 4.05 4.45 4.55 5.05 4.8 5.15 5.5 Q6.2 6.95 10.15 8.25 3.95 7.05 2.75 4.65 L1.25 1.65" fill="#941010" fill-rule="evenodd" stroke="none"/>
      <path d="M16.5 8.9 Q13.35 12.35 8.55 10.7 1.75 8.4 0.0 1.15 L0.45 0.55 Q7.3 4.5 13.9 1.65 20.5 -1.2 25.8 1.05 L19.35 0.7 Q14.95 2.4 10.3 3.5 5.6 4.55 1.45 2.2 2.15 6.65 6.95 9.05 11.7 11.45 16.5 8.9" fill="#4d0000" fill-rule="evenodd" stroke="none"/>
      <path d="M15.35 2.05 L16.25 2.5 Q15.35 3.5 13.6 4.3 10.75 5.4 7.7 5.0 4.95 4.55 2.35 3.5 L2.5 3.0 4.6 3.75 10.15 4.05 Q12.8 3.3 15.35 2.05" fill="#ff2c2c" fill-rule="evenodd" stroke="none"/>
    </g>
    <g id="sprite3">
      <use ffdec:characterId="10" height="29.3" transform="matrix(1.0, 0.0, 0.0, 1.0, 0.0, 0.0)" width="38.15" xlink:href="#shape4"/>
    </g>
    <g id="shape4">
      <path d="M17.15 14.15 L17.9 13.1 17.8 13.95 17.15 14.15" fill="#38393d" fill-rule="evenodd" stroke="none"/>
      <path d="M1.2 12.25 L1.1 13.8 1.3 16.0 1.65 18.25 2.15 20.55 2.25 21.0 Q-0.15 16.55 0.6 11.3 L1.0 11.8 1.2 12.25 M36.8 23.3 L36.85 23.25 37.0 22.35 36.75 20.25 36.9 20.15 Q37.15 22.6 37.0 25.1 L36.65 24.85 36.8 23.3 M34.85 12.95 L34.1 11.75 32.95 9.7 32.35 8.75 Q33.75 10.65 34.8 12.8 L34.85 12.95 M29.6 21.65 L29.55 21.6 29.6 21.55 29.6 21.65 M4.55 24.1 L4.6 24.1 4.6 24.15 4.55 24.1" fill="#1d1e23" fill-rule="evenodd" stroke="none"/>
      <path d="M1.6 9.6 L1.75 9.5 Q1.3 10.65 1.2 12.25 L1.0 11.8 1.6 9.6" fill="#7f7f7f" fill-rule="evenodd" stroke="none"/>
      <path d="M1.6 9.6 Q1.55 6.05 7.05 2.7 12.55 -0.7 20.25 0.2 27.8 1.3 31.55 7.8 L32.35 8.75 32.95 9.7 34.1 11.75 34.85 12.95 35.95 15.75 36.6 17.65 37.05 19.8 36.95 20.05 36.9 20.15 36.75 20.25 37.0 22.35 36.85 23.25 36.8 23.3 36.75 23.3 Q36.5 23.3 36.35 22.3 L36.25 21.5 34.95 20.65 28.25 13.2 28.75 13.15 29.75 13.6 Q31.2 14.4 32.15 15.55 L35.95 20.05 35.7 19.4 Q35.1 17.2 34.1 15.05 L33.1 12.9 Q31.95 10.0 30.1 7.5 28.85 5.95 27.05 5.1 L26.55 5.85 28.55 8.65 Q26.85 10.1 24.9 10.7 22.95 11.35 20.9 11.2 L21.65 12.9 20.5 12.95 18.5 8.35 18.1 10.95 18.05 10.65 Q14.7 12.3 12.65 11.25 L12.45 10.65 11.8 10.55 11.15 11.25 10.4 7.35 9.3 9.75 9.05 9.2 8.3 9.6 Q5.5 9.05 5.5 8.35 L4.6 6.0 Q3.55 7.05 3.1 8.3 2.15 10.7 2.05 13.3 1.85 15.95 2.3 17.6 L2.85 19.9 3.35 22.65 2.25 21.0 2.15 20.55 1.65 18.25 1.3 16.0 1.1 13.8 1.2 12.25 Q1.3 10.65 1.75 9.5 L1.6 9.6" fill="#c61b1b" fill-rule="evenodd" stroke="none"/>
      <path d="M2.05 13.3 Q2.15 10.7 3.1 8.3 3.55 7.05 4.6 6.0 L5.5 8.35 Q5.5 9.05 8.3 9.6 L6.35 12.85 5.35 13.0 4.65 11.95 2.7 11.05 2.05 13.3 M11.15 11.25 L11.8 10.55 12.45 10.65 12.65 11.25 Q14.7 12.3 18.05 10.65 L18.1 10.95 18.05 11.1 17.9 13.1 17.15 14.15 11.55 13.9 11.15 11.25 M21.65 12.9 L20.9 11.2 Q22.95 11.35 24.9 10.7 26.85 10.1 28.55 8.65 L26.55 5.85 27.05 5.1 Q28.85 5.95 30.1 7.5 31.95 10.0 33.1 12.9 L32.65 13.25 30.0 10.65 27.1 12.5 Q24.5 13.75 21.65 12.9" fill="#ff2c2c" fill-rule="evenodd" stroke="none"/>
      <path d="M2.85 19.9 L2.3 17.6 Q1.85 15.95 2.05 13.3 L2.7 11.05 4.65 11.95 5.35 13.0 6.35 12.85 8.3 9.6 9.05 9.2 9.3 9.75 8.05 12.55 Q6.9 14.8 6.3 17.25 L4.9 22.2 4.65 19.35 5.55 13.75 Q3.7 16.4 3.6 18.8 L3.7 21.6 2.85 19.9 M20.5 12.95 L21.65 12.9 Q24.5 13.75 27.1 12.5 L30.0 10.65 32.65 13.25 33.1 12.9 34.1 15.05 Q35.1 17.2 35.7 19.4 L35.0 18.45 Q33.75 16.75 32.15 15.55 31.2 14.4 29.75 13.6 L28.75 13.15 28.25 13.2 34.95 20.65 33.85 19.9 35.7 23.9 28.4 17.05 29.15 19.9 27.65 17.25 27.3 18.15 Q24.8 15.05 22.8 13.9 24.1 16.35 26.55 18.9 L25.5 18.5 27.6 20.95 26.95 20.7 Q24.65 19.65 23.1 17.6 21.45 15.5 20.5 12.95 M17.15 14.15 L17.8 13.95 18.25 15.4 17.95 15.7 19.05 24.7 16.65 20.8 16.75 23.45 13.9 16.25 Q14.0 20.35 16.4 23.85 L14.9 22.65 17.2 26.75 Q15.6 25.55 14.5 23.45 12.25 19.05 10.55 14.25 L11.55 13.9 17.15 14.15" fill="#790303" fill-rule="evenodd" stroke="none"/>
      <path d="M2.25 21.0 L3.35 22.65 2.85 19.9 3.7 21.6 3.6 18.8 Q3.7 16.4 5.55 13.75 L4.65 19.35 4.9 22.2 5.15 23.55 4.6 24.1 4.55 24.1 4.0 23.7 Q2.55 22.6 2.25 21.0 M35.7 19.4 L35.95 20.05 32.15 15.55 Q33.75 16.75 35.0 18.45 L35.7 19.4 M34.95 20.65 L36.25 21.5 36.35 22.3 Q36.5 23.3 36.75 23.3 L36.8 23.3 36.65 24.85 35.7 23.9 33.85 19.9 34.95 20.65 M27.6 20.95 L25.5 18.5 26.55 18.9 Q24.1 16.35 22.8 13.9 24.8 15.05 27.3 18.15 L27.65 17.25 29.15 19.9 29.6 21.55 29.55 21.6 29.6 21.65 30.05 22.55 Q30.05 22.9 29.75 22.9 29.5 22.9 29.05 21.75 L28.45 21.8 27.6 20.95 M17.2 26.75 L14.9 22.65 16.4 23.85 Q14.0 20.35 13.9 16.25 L16.75 23.45 16.65 20.8 19.05 24.7 19.9 28.05 19.5 28.25 17.2 26.75" fill="#941010" fill-rule="evenodd" stroke="none"/>
      <path d="M33.0 8.2 L34.6 11.35 Q36.15 14.75 37.3 18.2 39.0 23.0 37.35 27.55 L36.95 27.5 Q34.6 23.15 30.2 20.15 L31.25 23.8 Q28.2 23.0 25.85 21.0 21.15 16.9 18.7 11.15 18.7 14.4 19.2 17.75 20.15 23.55 20.2 29.3 L18.15 28.3 Q15.1 26.55 13.45 23.25 10.5 17.35 9.75 10.8 8.3 13.15 7.2 15.55 5.1 20.15 5.65 25.3 L5.4 25.65 Q3.9 24.6 2.7 23.1 0.35 20.05 0.05 16.05 -0.4 10.85 2.85 6.7 1.65 9.5 1.5 12.55 1.1 18.7 4.55 23.65 4.65 19.65 6.15 15.85 8.2 10.65 10.55 5.8 L11.0 5.6 11.15 8.55 Q11.5 12.95 12.65 17.25 14.35 23.6 19.35 27.95 18.5 24.2 17.9 20.45 16.8 14.0 18.2 7.65 L18.5 7.4 Q19.65 10.65 21.5 13.5 24.65 18.45 29.45 21.85 28.0 16.8 25.45 12.35 L25.75 11.75 Q27.55 14.0 29.75 16.1 33.7 19.8 36.5 24.4 L36.35 21.55 Q35.95 17.2 33.65 12.0 31.3 6.75 25.5 2.3 L26.65 2.55 Q31.05 4.0 33.0 8.2" fill="#4d0000" fill-rule="evenodd" stroke="none"/>
    </g>
    <g id="sprite4">
      <use ffdec:characterId="8" height="14.35" transform="matrix(1.0, 0.0, 0.0, 1.0, 0.0, 0.0)" width="23.05" xlink:href="#shape5"/>
    </g>
    <g id="shape5">
      <path d="M20.5 3.15 Q21.2 3.2 21.2 3.75 21.2 4.1 17.95 6.55 L16.3 8.05 15.95 9.3 15.85 10.75 15.55 12.15 Q15.4 12.75 14.15 13.55 12.85 14.35 11.75 14.35 L9.8 13.95 8.95 13.55 8.3 13.85 7.1 14.05 Q5.05 14.05 3.75 12.95 L5.5 13.65 8.05 13.45 6.5 11.95 7.6 12.15 5.55 9.15 Q6.75 10.2 8.85 10.9 L9.65 8.6 Q10.25 7.2 11.8 6.2 12.9 5.4 15.1 4.5 L13.85 5.35 Q8.75 8.95 11.7 13.85 L12.3 13.85 12.6 13.85 13.8 13.05 13.8 11.9 Q14.05 7.45 16.65 3.85 L18.85 3.2 18.0 3.75 Q14.65 6.15 15.1 10.35 16.25 5.75 20.6 3.7 L20.5 3.15" fill="#c61b1b" fill-rule="evenodd" stroke="none"/>
      <path d="M20.5 3.15 L20.6 3.7 Q16.25 5.75 15.1 10.35 14.65 6.15 18.0 3.75 L18.85 3.2 20.5 3.15 M5.55 9.15 L7.6 12.15 6.5 11.95 Q1.75 8.55 3.65 3.4 3.85 2.8 4.2 2.25 L3.85 5.05 3.85 5.1 Q3.8 5.85 4.1 6.65 L4.45 7.45 5.55 9.15" fill="#ff2c2c" fill-rule="evenodd" stroke="none"/>
      <path d="M16.65 3.85 Q14.05 7.45 13.8 11.9 L13.8 13.05 12.6 13.85 12.3 13.85 11.7 13.85 Q8.75 8.95 13.85 5.35 L15.1 4.5 16.65 3.85 M6.5 11.95 L8.05 13.45 5.5 13.65 3.75 12.95 2.95 12.25 Q0.95 9.1 1.65 5.35 L2.05 3.6 Q2.7 1.95 4.25 1.35 L5.3 0.95 5.05 1.9 Q4.1 3.5 3.85 5.05 L4.2 2.25 Q3.85 2.8 3.65 3.4 1.75 8.55 6.5 11.95" fill="#790303" fill-rule="evenodd" stroke="none"/>
      <path d="M2.95 12.25 L2.1 10.95 Q1.15 9.1 1.15 7.6 L1.4 5.65 1.9 3.9 2.05 3.6 1.65 5.35 Q0.95 9.1 2.95 12.25 M5.05 1.9 L5.05 1.95 4.55 3.35 Q4.0 4.55 4.0 5.7 L4.1 6.65 Q3.8 5.85 3.85 5.1 L3.85 5.05 Q4.1 3.5 5.05 1.9" fill="#38393d" fill-rule="evenodd" stroke="none"/>
      <path d="M23.0 3.15 L23.05 3.9 21.9 4.45 Q17.95 6.5 16.2 9.45 15.5 10.95 15.45 11.9 L15.35 12.3 15.3 12.4 Q14.7 6.5 20.25 3.55 L18.8 3.65 Q11.6 4.8 9.0 11.7 7.6 11.55 6.5 10.6 2.0 7.0 4.6 1.4 1.65 3.4 1.75 6.9 1.85 12.0 6.6 14.0 L3.5 13.7 Q-0.15 12.0 0.0 7.95 0.25 2.5 5.4 0.0 L6.45 0.35 Q2.6 6.55 8.45 10.45 9.35 7.4 11.5 5.4 16.55 0.8 23.0 3.15" fill="#4d0000" fill-rule="evenodd" stroke="none"/>
    </g>
  </defs>
</svg>
