<?xml version="1.0" encoding="UTF-8" standalone="no"?>
<svg xmlns:ffdec="https://www.free-decompiler.com/flash" xmlns:xlink="http://www.w3.org/1999/xlink" ffdec:objectType="frame" height="61.3px" width="76.7px" xmlns="http://www.w3.org/2000/svg">
  <g transform="matrix(1.0, 0.0, 0.0, 1.0, 38.15, 43.5)">
    <use ffdec:characterId="19" height="53.8" transform="matrix(1.0, 0.0, 0.0, 1.0, -0.7, -23.65)" width="51.6" xlink:href="#sprite0"/>
    <use ffdec:characterId="6" height="4.75" transform="matrix(1.0, 0.0, 0.0, 1.0, 7.45, -20.05)" width="7.65" xlink:href="#sprite1"/>
    <use ffdec:characterId="6" height="4.75" transform="matrix(-1.0, 0.0, 0.0, 1.0, -6.35, -20.05)" width="7.65" xlink:href="#sprite1"/>
    <use ffdec:characterId="21" height="7.4" transform="matrix(0.8322, 0.0, 0.0, 1.0, 0.3, -13.05)" width="15.3" xlink:href="#sprite2"/>
    <use ffdec:characterId="8" height="3.5" transform="matrix(1.0, 0.0, 0.0, 1.0, 0.55, -13.9)" width="4.05" xlink:href="#sprite3"/>
    <use ffdec:characterId="10" height="11.7" transform="matrix(0.7577, -0.3329, 0.3329, 0.7577, -21.2, -15.55)" width="16.1" xlink:href="#sprite4"/>
    <use ffdec:characterId="12" height="22.75" transform="matrix(1.0, 0.0, 0.0, 1.0, -8.9, -33.6)" width="35.4" xlink:href="#sprite5"/>
    <use ffdec:characterId="10" height="11.7" transform="matrix(-0.7577, -0.3329, -0.3329, 0.7577, 21.85, -15.55)" width="16.1" xlink:href="#sprite4"/>
    <use ffdec:characterId="16" height="10.45" transform="matrix(-1.0, 0.0, 0.0, 1.0, 5.2, -38.45)" width="12.05" xlink:href="#sprite6"/>
    <use ffdec:characterId="12" height="22.75" transform="matrix(-1.0, 0.0, 0.0, 1.0, 9.3, -33.6)" width="35.4" xlink:href="#sprite5"/>
  </g>
  <defs>
    <g id="sprite0">
      <use ffdec:characterId="18" height="53.8" transform="matrix(1.0, 0.0, 0.0, 1.0, 0.0, 0.0)" width="51.6" xlink:href="#shape0"/>
    </g>
    <g id="shape0">
      <path d="M-23.55 25.25 L-24.0 23.5 -24.35 21.1 -24.35 17.3 -24.2 14.55 -23.8 11.8 -22.95 8.4 -22.1 5.5 -22.05 5.45 Q-20.15 -0.9 -15.9 -4.9 -11.7 -8.95 -6.35 -10.5 -1.05 -12.05 4.25 -11.35 9.75 -11.0 14.2 -7.85 18.9 -4.6 21.5 0.75 L23.4 4.8 Q24.15 8.0 23.8 11.05 L23.6 11.85 22.65 13.0 20.7 14.05 19.75 15.75 18.4 14.7 Q17.65 15.25 18.15 16.7 L15.0 16.05 12.85 13.95 Q11.15 12.15 6.05 11.0 0.95 9.85 -3.85 11.15 -8.7 12.45 -10.75 14.25 L-13.15 16.35 -13.5 16.7 Q-15.05 18.25 -15.35 20.1 L-15.65 23.15 -15.65 23.3 -15.6 24.0 -15.2 26.9 -14.25 32.4 -13.65 35.95 -13.85 36.1 -15.75 32.3 Q-17.75 28.25 -16.2 24.3 L-16.3 23.65 Q-15.4 24.15 -15.9 21.15 L-15.85 20.9 Q-15.25 17.9 -13.05 16.05 L-16.2 16.7 Q-15.7 15.25 -16.45 14.7 L-17.8 15.75 -18.75 14.05 -20.7 13.0 -22.45 11.7 Q-22.75 9.1 -21.9 6.2 L-23.0 10.0 Q-23.7 12.6 -24.0 15.45 -24.55 20.45 -23.55 25.25" fill="#e7d5d5" fill-rule="evenodd" stroke="none"/>
      <path d="M17.85 23.65 Q17.5 23.2 17.85 21.15 L17.8 20.9 Q17.2 17.9 15.0 16.05 L18.15 16.7 Q17.65 15.25 18.4 14.7 L19.75 15.75 20.7 14.05 22.65 13.0 23.6 11.85 22.95 16.05 Q21.95 20.85 17.85 23.65 M-22.45 11.7 L-20.7 13.0 -18.75 14.05 -17.8 15.75 -16.45 14.7 Q-15.7 15.25 -16.2 16.7 L-13.05 16.05 Q-15.25 17.9 -15.85 20.9 L-15.9 21.15 Q-15.4 24.15 -16.3 23.65 L-16.2 24.3 -17.6 22.9 -20.2 19.85 Q-22.0 17.6 -22.4 13.75 L-22.45 11.7" fill="#dbc8c8" fill-rule="evenodd" stroke="none"/>
      <path d="M23.4 4.8 Q24.85 9.05 25.7 13.5 27.3 22.05 24.0 30.1 21.85 35.45 16.3 36.45 L15.8 36.25 15.9 35.55 Q17.8 32.5 18.85 28.8 19.6 26.05 17.85 23.65 21.95 20.85 22.95 16.05 L23.6 11.85 23.8 11.05 Q24.15 8.0 23.4 4.8 M-13.85 36.1 Q-15.15 37.15 -17.15 35.75 -21.2 32.95 -22.65 28.3 L-23.55 25.25 Q-24.55 20.45 -24.0 15.45 -23.7 12.6 -23.0 10.0 L-21.9 6.2 Q-22.75 9.1 -22.45 11.7 L-22.4 13.75 Q-22.0 17.6 -20.2 19.85 L-17.6 22.9 -16.2 24.3 Q-17.75 28.25 -15.75 32.3 L-13.85 36.1" fill="#baa7a7" fill-rule="evenodd" stroke="none"/>
      <path d="M21.3 28.8 Q20.7 32.5 16.55 35.0 L16.0 35.3 15.35 35.0 Q18.35 30.25 18.45 26.3 18.5 22.35 17.3 20.1 16.1 17.8 11.4 12.3 17.95 15.0 19.95 20.05 21.9 25.1 21.3 28.8" fill="#7c7586" fill-rule="evenodd" stroke="none"/>
      <path d="M16.3 -1.15 L14.45 -1.4 Q16.95 1.35 16.35 2.5 L15.75 3.75 16.3 5.5 13.55 5.05 14.45 6.3 14.4 7.35 12.4 11.25 Q12.4 10.95 8.45 9.65 4.5 8.4 1.3 8.35 -1.9 8.35 -5.55 9.3 -9.3 10.2 -11.5 11.3 -9.4 9.15 -9.55 9.0 L-9.3 8.1 -11.0 9.25 -12.2 9.65 Q-12.75 9.6 -12.75 9.4 L-12.7 8.95 Q-11.8 6.75 -12.9 5.2 L-14.1 3.85 Q-14.0 3.0 -13.15 2.25 L-13.5 2.4 Q-13.55 2.6 -14.0 2.7 L-15.2 2.75 Q-15.75 2.65 -14.5 0.15 L-15.35 0.15 Q-12.45 -4.45 -7.15 -6.45 -1.9 -8.4 3.3 -7.85 8.4 -7.25 12.45 -4.85 16.55 -2.55 16.3 -1.15" fill="#ffffff" fill-rule="evenodd" stroke="none"/>
      <path d="M14.5 11.85 Q21.35 16.85 22.35 23.6 23.35 30.4 19.0 33.6 21.6 29.7 21.15 24.65 20.7 19.6 14.5 11.85" fill="#fff3f3" fill-rule="evenodd" stroke="none"/>
      <path d="M-19.3 28.8 Q-18.7 32.5 -14.55 35.0 L-14.0 35.3 -13.35 35.0 Q-16.35 30.25 -16.45 26.3 -16.5 22.35 -15.3 20.1 -14.1 17.8 -9.4 12.3 -15.95 15.0 -17.95 20.05 -19.9 25.1 -19.3 28.8" fill="#7c7586" fill-rule="evenodd" stroke="none"/>
      <path d="M-12.5 11.85 Q-19.35 16.85 -20.35 23.6 -21.35 30.4 -17.0 33.6 -19.6 29.7 -19.15 24.65 -18.7 19.6 -12.5 11.85" fill="#fff3f3" fill-rule="evenodd" stroke="none"/>
      <path d="M-17.25 -3.4 Q-20.35 1.1 -22.35 7.95 -24.35 14.7 -23.6 20.3 -22.85 25.85 -20.55 30.65 -18.3 35.45 -14.45 34.95 -15.35 29.35 -13.75 32.75 -12.15 36.05 -13.85 36.8 -15.6 37.55 -18.7 34.95 -21.85 32.25 -23.5 27.05 -25.2 21.8 -24.85 16.5 -24.55 11.1 -22.5 5.3 -20.5 -0.55 -17.25 -3.4" fill="#312c2c" fill-rule="evenodd" stroke="none"/>
      <path d="M7.7 -9.95 L-3.7 -10.4 Q-8.7 -9.35 -11.9 -7.9 L-10.05 -9.2 Q-8.05 -10.75 -3.3 -12.0 L2.8 -12.25 Q9.05 -11.6 13.55 -7.95 11.8 -8.95 7.7 -9.95" fill="#312c2c" fill-rule="evenodd" stroke="none"/>
      <path d="M-5.3 -11.1 Q-6.65 -10.2 -9.05 -9.05 -11.5 -7.95 -14.0 -6.1 L-18.45 -2.15 -16.2 -5.0 Q-14.45 -7.0 -11.65 -8.75 -8.85 -10.5 -5.3 -11.1" fill="#312c2c" fill-rule="evenodd" stroke="none"/>
      <path d="M6.95 -11.1 Q8.3 -10.2 10.7 -9.05 L15.65 -6.1 Q18.2 -4.25 20.1 -2.15 L17.85 -5.0 Q16.1 -7.0 13.3 -8.75 10.5 -10.5 6.95 -11.1" fill="#312c2c" fill-rule="evenodd" stroke="none"/>
      <path d="M19.05 -3.4 Q22.15 1.1 24.15 7.95 26.15 14.7 25.4 20.3 24.65 25.85 22.35 30.65 20.1 35.45 16.25 34.95 17.15 29.35 15.55 32.75 13.95 36.05 15.65 36.8 17.4 37.55 20.5 34.95 23.65 32.25 25.3 27.05 27.0 21.8 26.65 16.5 26.35 11.1 24.3 5.3 22.3 -0.55 19.05 -3.4" fill="#312c2c" fill-rule="evenodd" stroke="none"/>
      <path d="M7.3 10.8 Q-5.05 10.95 -8.9 13.4 -12.75 15.9 -14.55 19.2 -16.35 22.55 -14.5 29.2 -12.7 35.8 -13.15 35.6 -14.75 37.3 -15.05 34.25 -15.4 31.2 -17.0 27.35 -18.6 23.55 -15.7 18.05 -13.9 14.65 -10.55 12.95 -7.25 11.25 -2.65 10.3 1.9 9.35 7.3 10.8" fill="#312c2c" fill-rule="evenodd" stroke="none"/>
      <path d="M-4.75 10.95 Q6.0 10.25 10.25 13.1 14.55 15.9 16.35 19.2 18.15 22.55 16.3 29.2 14.5 35.8 14.95 35.6 16.55 37.3 16.85 34.25 17.2 31.2 18.8 27.35 20.4 23.55 17.5 18.05 15.7 14.65 12.85 12.95 10.0 11.25 5.4 10.3 0.85 9.35 -4.75 10.95" fill="#312c2c" fill-rule="evenodd" stroke="none"/>
      <path d="M17.5 36.8 L17.05 39.9 16.85 41.15 15.7 41.15 15.65 40.35 15.75 37.0 Q16.25 35.4 16.9 35.5 17.5 35.55 17.5 36.8" fill="#dd5300" fill-rule="evenodd" stroke="none"/>
      <path d="M15.2 39.4 Q15.15 38.9 15.25 38.6 L17.75 38.4 17.85 39.95 17.8 40.9 Q17.5 41.45 16.3 41.45 15.45 41.45 15.25 40.65 L15.2 39.4 M17.35 38.85 L15.95 38.8 15.9 39.6 15.95 40.7 16.75 40.75 Q17.2 40.75 17.25 40.55 L17.35 40.25 17.35 38.85" fill="#000000" fill-rule="evenodd" stroke="none"/>
      <path d="M-16.0 36.8 L-15.55 39.9 -15.35 41.15 -14.2 41.15 -14.15 40.35 -14.25 37.0 Q-14.75 35.4 -15.4 35.5 -16.0 35.55 -16.0 36.8" fill="#dd5300" fill-rule="evenodd" stroke="none"/>
      <path d="M-13.7 39.4 Q-13.65 38.9 -13.75 38.6 L-16.25 38.4 -16.35 39.95 -16.3 40.9 Q-16.0 41.45 -14.8 41.45 -13.95 41.45 -13.75 40.65 L-13.7 39.4 M-15.85 38.85 L-14.45 38.8 -14.4 39.6 -14.45 40.7 -15.25 40.75 Q-15.7 40.75 -15.75 40.55 L-15.85 40.25 -15.85 38.85" fill="#000000" fill-rule="evenodd" stroke="none"/>
    </g>
    <g id="sprite1">
      <use ffdec:characterId="5" height="4.75" transform="matrix(1.0, 0.0, 0.0, 1.0, 0.0, 0.0)" width="7.65" xlink:href="#shape1"/>
    </g>
    <g id="shape1">
      <path d="M5.8 4.75 Q2.55 5.0 0.8 2.25 L0.15 1.05 0.0 0.0 Q2.35 1.85 3.75 2.1 5.15 2.3 5.8 2.1 L6.7 1.55 7.25 0.85 Q8.15 2.5 6.95 3.95 L5.8 4.75" fill="#1a5697" fill-rule="evenodd" stroke="none"/>
    </g>
    <g id="sprite2">
      <use ffdec:characterId="20" height="7.4" transform="matrix(1.0, 0.0, 0.0, 1.0, 0.0, 0.0)" width="15.3" xlink:href="#shape2"/>
    </g>
    <g id="shape2">
      <path d="M6.85 -0.1 L7.15 0.35 7.55 1.15 Q7.8 1.85 5.1 2.6 2.4 3.3 0.05 1.55 -2.65 3.8 -5.5 2.75 -8.3 1.7 -7.65 0.95 L-7.35 0.25 Q-7.4 1.15 -5.15 1.8 -2.9 2.4 -0.75 0.8 -0.45 0.65 -0.3 0.2 L-0.15 -0.4 0.15 0.2 0.8 0.95 Q3.55 2.35 5.35 1.35 6.6 0.65 6.85 0.2 L6.85 -0.1" fill="#5e5556" fill-rule="evenodd" stroke="none"/>
      <path d="M-6.45 -1.0 Q-5.55 -4.2 0.65 -4.3 5.3 -3.65 6.05 -0.95 6.25 -0.85 5.95 -0.45 L5.1 0.2 Q1.85 1.05 0.15 0.2 L-0.15 -0.4 -0.3 0.2 Q-3.8 1.45 -5.9 0.2 -6.5 -0.35 -6.45 -1.0" fill="#ffffff" fill-rule="evenodd" stroke="none"/>
      <path d="M-7.35 0.25 L-7.35 0.2 -7.4 0.0 Q-7.4 -0.55 -6.45 -1.0 -6.5 -0.35 -5.9 0.2 -3.8 1.45 -0.3 0.2 -0.45 0.65 -0.75 0.8 -2.9 2.4 -5.15 1.8 -7.4 1.15 -7.35 0.25 M6.05 -0.95 Q6.85 -0.6 6.85 -0.25 L6.85 -0.1 6.85 0.2 Q6.6 0.65 5.35 1.35 3.55 2.35 0.8 0.95 L0.15 0.2 Q1.85 1.05 5.1 0.2 L5.95 -0.45 Q6.25 -0.85 6.05 -0.95" fill="#dad2d2" fill-rule="evenodd" stroke="none"/>
    </g>
    <g id="sprite3">
      <use ffdec:characterId="7" height="3.5" transform="matrix(1.0, 0.0, 0.0, 1.0, 0.0, 0.0)" width="4.05" xlink:href="#shape3"/>
    </g>
    <g id="shape3">
      <path d="M-1.6 1.1 L-1.85 0.25 Q-1.85 -1.2 0.05 -1.2 1.9 -1.25 1.65 0.3 1.35 1.8 -0.05 1.75 -1.45 1.7 -1.6 1.1" fill="#e62d2d" fill-rule="evenodd" stroke="none"/>
      <path d="M-0.15 1.45 Q0.35 1.55 0.8 1.1 L1.4 0.0 Q1.55 -0.7 1.1 -0.8 L-0.25 -1.0 Q-1.05 -0.8 -1.3 -0.5 L-1.5 0.05 -1.1 0.85 Q-0.7 1.35 -0.15 1.45 M-2.05 0.45 Q-2.05 -1.4 -0.35 -1.4 L1.7 -1.0 2.0 0.1 Q2.0 0.75 1.35 1.45 0.7 2.1 0.2 2.1 -1.3 2.1 -2.05 0.45" fill="#930f0f" fill-rule="evenodd" stroke="none"/>
    </g>
    <g id="sprite4">
      <use ffdec:characterId="9" height="11.7" transform="matrix(1.0, 0.0, 0.0, 1.0, 0.0, 0.0)" width="16.1" xlink:href="#shape4"/>
    </g>
    <g id="shape4">
      <path d="M2.05 0.2 Q1.6 -1.8 -0.75 -4.6 -4.05 -8.6 -8.0 -8.6 L-9.3 -8.3 -9.9 -7.9 Q-10.5 -6.4 -6.6 -3.95 L-2.55 -1.3 -2.9 -1.0 -5.9 -2.0 -7.5 -2.4 Q-11.4 -2.4 -12.3 -1.05 -11.95 -0.25 -9.45 0.3 L-5.95 1.05 Q-9.65 1.75 -11.7 0.95 -13.5 0.2 -13.5 -1.45 -13.5 -2.2 -12.05 -2.9 -10.35 -3.7 -7.95 -3.65 -10.1 -4.7 -10.95 -6.1 -11.8 -7.55 -11.45 -8.7 -11.15 -9.85 -8.5 -9.85 -4.75 -9.85 -1.2 -7.2 2.6 -4.35 2.6 -0.75 L2.45 0.25 2.25 0.5 2.05 0.2" fill="#434040" fill-rule="evenodd" stroke="none"/>
      <path d="M-6.15 -6.75 L-4.75 -6.9 Q-1.5 -5.3 -0.3 -1.75 L-0.15 -1.3 -1.45 -1.4 -3.35 -2.85 -5.55 -4.4 -6.3 -5.2 -6.4 -5.75 -6.35 -6.15 -6.35 -6.45 -6.15 -6.75" fill="#ffffff" fill-rule="evenodd" stroke="none"/>
      <path d="M2.05 0.2 Q1.75 0.6 1.65 1.35 L-1.3 1.85 Q-3.2 1.85 -5.95 1.05 L-9.45 0.3 Q-11.95 -0.25 -12.3 -1.05 -11.4 -2.4 -7.5 -2.4 L-5.9 -2.0 -2.9 -1.0 -2.55 -1.3 -6.6 -3.95 Q-10.5 -6.4 -9.9 -7.9 L-9.3 -8.3 -8.0 -8.6 Q-4.05 -8.6 -0.75 -4.6 1.6 -1.8 2.05 0.2 M-6.15 -6.75 L-6.35 -6.45 -6.35 -6.15 -6.4 -5.75 -6.3 -5.2 -5.55 -4.4 -3.35 -2.85 -1.45 -1.4 -0.15 -1.3 -0.3 -1.75 Q-1.5 -5.3 -4.75 -6.9 L-6.15 -6.75" fill="#f0e7e7" fill-rule="evenodd" stroke="none"/>
    </g>
    <g id="sprite5">
      <use ffdec:characterId="11" height="22.75" transform="matrix(1.0, 0.0, 0.0, 1.0, 0.0, 0.0)" width="35.4" xlink:href="#shape5"/>
    </g>
    <g id="shape5">
      <path d="M-10.5 -1.45 L-10.5 -2.75 Q-10.1 -3.05 -10.2 -3.5 L-10.15 -3.75 -10.15 -3.85 -10.0 -4.1 -9.9 -4.25 -9.75 -4.3 -9.65 -4.45 -8.25 -4.7 -7.3 -4.45 -5.05 -3.6 -4.45 -3.25 -3.95 -3.25 -3.1 -2.75 -2.85 -2.75 -2.6 -2.6 -2.35 -2.5 -2.1 -2.5 -1.95 -2.35 -1.85 -2.25 -1.7 -2.25 Q-1.45 -1.95 -1.1 -1.9 L-0.85 -1.75 -0.6 -1.65 -0.35 -1.5 -0.05 -1.35 0.15 -1.0 0.0 -0.9 -0.25 -0.65 -0.35 -0.5 -1.6 0.1 Q2.05 0.95 1.75 1.3 L0.95 1.55 -0.65 1.95 -2.65 1.9 Q-3.8 1.55 -5.0 0.75 -7.5 -0.8 -10.5 -1.45" fill="#766767" fill-rule="evenodd" stroke="none"/>
      <path d="M1.75 1.3 Q2.05 0.95 -1.6 0.1 L-0.35 -0.5 -0.25 -0.65 0.0 -0.9 0.15 -1.0 -0.05 -1.35 -0.35 -1.5 -0.6 -1.65 -0.85 -1.75 -1.1 -1.9 Q-1.45 -1.95 -1.7 -2.25 L-1.85 -2.25 -1.95 -2.35 -2.1 -2.5 -2.35 -2.5 -2.6 -2.6 -2.85 -2.75 -3.1 -2.75 -3.95 -3.25 -4.45 -3.25 -5.05 -3.6 -7.3 -4.45 -8.25 -4.7 -9.65 -4.45 -9.75 -4.3 -9.9 -4.25 -10.0 -4.1 -10.15 -3.85 -10.15 -3.75 -10.2 -3.5 Q-10.1 -3.05 -10.5 -2.75 L-10.5 -1.45 -10.8 -1.5 Q-10.95 2.85 -14.2 6.8 -17.5 10.75 -22.05 11.45 -26.65 12.15 -28.5 9.9 L-28.7 9.55 Q-27.4 5.85 -25.4 3.0 -23.4 0.1 -20.75 -2.75 -18.1 -5.6 -14.9 -7.35 -11.7 -9.1 -8.85 -9.05 -5.7 -8.85 -2.0 -6.65 1.65 -4.45 3.05 -2.5 8.15 0.45 3.35 1.1 L1.75 1.3" fill="#e8dfdf" fill-rule="evenodd" stroke="none"/>
      <path d="M-4.4 -4.5 L-1.6 -3.1 1.75 -0.55 Q4.05 1.35 2.0 1.45 -0.05 1.55 -1.4 0.6 L-4.05 -0.85 -5.4 -1.4 -6.3 -1.8 -7.9 -2.45 -7.1 -3.0 -4.4 -4.5" fill="#e62d2d" fill-rule="evenodd" stroke="none"/>
      <path d="M-7.9 -2.45 L-8.05 -2.5 -8.45 -2.65 -9.85 -3.1 -10.3 -3.2 Q-10.65 -5.65 -8.45 -5.6 L-6.25 -5.2 -4.8 -4.65 -4.65 -4.6 -4.4 -4.5 -7.1 -3.0 -7.9 -2.45" fill="#991c1c" fill-rule="evenodd" stroke="none"/>
      <path d="M-12.6 -8.15 L-12.65 -8.1 -12.35 -8.95 Q-12.0 -9.8 -9.15 -9.9 -6.35 -10.0 -2.9 -7.95 1.95 -5.25 4.15 -2.75 6.35 -0.3 6.15 0.4 2.5 -3.25 -1.5 -5.8 -6.65 -8.65 -9.15 -8.7 -11.65 -8.8 -12.6 -8.15" fill="#3c3334" fill-rule="evenodd" stroke="none"/>
      <path d="M-9.35 -1.25 Q-7.95 -1.05 -5.0 0.25 -2.05 1.5 -1.55 2.05 -1.05 2.55 -2.25 2.3 L-7.1 0.5 Q-10.75 -1.0 -10.75 -1.25 -10.8 -1.5 -9.35 -1.25" fill="#3c3334" fill-rule="evenodd" stroke="none"/>
      <path d="M-11.05 -8.85 L-14.65 -6.9 Q-18.2 -4.55 -21.2 -1.6 L-24.05 1.75 Q-26.9 5.05 -27.75 8.3 -27.3 10.3 -24.95 10.7 -23.45 11.1 -19.45 9.7 -15.45 8.25 -13.0 3.75 -10.6 -0.75 -10.35 -4.25 -9.6 -0.4 -11.3 4.2 -13.05 8.75 -17.65 11.25 -22.3 13.75 -25.75 12.4 -29.25 11.05 -29.25 8.95 -29.25 6.8 -27.45 4.2 L-23.7 -0.8 Q-21.2 -3.75 -17.85 -6.0 -14.75 -8.2 -11.05 -8.85" fill="#3c3334" fill-rule="evenodd" stroke="none"/>
      <path d="M-11.65 -7.25 L-11.1 -7.25 -10.2 -6.6 Q-9.8 -4.8 -10.35 -3.1 -11.55 0.35 -13.6 3.4 -17.35 9.05 -23.55 7.85 L-23.55 7.25 Q-22.85 4.85 -20.95 3.2 L-21.75 2.5 Q-21.7 0.95 -19.1 0.6 -16.55 0.2 -16.9 -2.55 -16.9 -4.55 -15.3 -4.6 L-14.8 -4.4 -11.65 -7.25" fill="#ffffff" fill-rule="evenodd" stroke="none"/>
      <path d="M-25.85 9.2 Q-26.95 9.2 -26.95 7.55 -26.95 6.1 -25.5 5.15 -24.1 4.25 -24.1 5.75 L-24.35 6.55 -24.6 7.3 -24.4 8.1 -24.65 8.7 Q-25.05 9.2 -25.85 9.2" fill="#ffffff" fill-rule="evenodd" stroke="none"/>
    </g>
    <g id="sprite6">
      <use ffdec:characterId="15" height="10.45" transform="matrix(1.0, 0.0, 0.0, 1.0, 0.0, 0.0)" width="12.05" xlink:href="#shape6"/>
    </g>
    <g id="shape6">
      <path d="M0.0 4.8 Q1.45 -0.35 7.2 0.0 10.35 0.35 11.7 2.8 12.15 3.6 12.05 4.6 11.5 8.7 7.5 9.35 7.55 8.05 7.05 7.15 L6.2 5.7 Q6.45 7.2 5.6 8.6 4.9 9.85 3.25 10.45 L2.75 10.15 3.15 8.1 3.55 8.4 3.8 9.15 4.5 8.5 Q5.2 7.0 5.15 6.5 L4.95 5.5 4.75 4.75 Q5.8 4.95 6.75 5.45 7.6 5.95 7.9 6.6 L8.35 8.2 Q9.1 7.95 10.3 6.5 11.5 5.0 10.7 3.3 9.9 1.55 8.45 1.2 3.45 1.1 0.0 4.8" fill="#312c2c" fill-rule="evenodd" stroke="none"/>
      <path d="M3.15 8.1 Q2.45 6.05 0.75 5.05 L0.0 4.8 Q3.45 1.1 8.45 1.2 9.9 1.55 10.7 3.3 11.5 5.0 10.3 6.5 9.1 7.95 8.35 8.2 L7.9 6.6 Q7.6 5.95 6.75 5.45 5.8 4.95 4.75 4.75 L4.95 5.5 5.15 6.5 Q5.2 7.0 4.5 8.5 L3.8 9.15 3.55 8.4 3.15 8.1 M2.0 4.05 L1.6 4.6 3.85 6.65 4.0 5.9 3.05 4.35 Q5.65 3.5 7.75 4.75 L9.05 5.7 Q10.0 4.05 8.6 2.85 7.6 1.95 6.3 2.1 3.5 2.0 2.0 4.05" fill="#e7d5d5" fill-rule="evenodd" stroke="none"/>
      <path d="M2.0 4.05 Q3.5 2.0 6.3 2.1 7.6 1.95 8.6 2.85 10.0 4.05 9.05 5.7 L7.75 4.75 Q5.65 3.5 3.05 4.35 L4.0 5.9 3.85 6.65 1.6 4.6 2.0 4.05" fill="#ffffff" fill-rule="evenodd" stroke="none"/>
    </g>
  </defs>
</svg>
