<?xml version="1.0" encoding="UTF-8" standalone="no"?>
<svg xmlns:ffdec="https://www.free-decompiler.com/flash" xmlns:xlink="http://www.w3.org/1999/xlink" ffdec:objectType="frame" height="48.05px" width="63.35px" xmlns="http://www.w3.org/2000/svg">
  <g transform="matrix(1.0, 0.0, 0.0, 1.0, 25.85, 32.3)">
    <use ffdec:characterId="23" height="48.05" transform="matrix(1.0, 0.0, 0.0, 1.0, -25.1, -31.25)" width="63.35" xlink:href="#sprite0"/>
  </g>
  <defs>
    <g id="sprite0">
      <use ffdec:characterId="17" height="47.3" transform="matrix(1.0, 0.0, 0.0, 1.0, 0.0, 0.0)" width="61.25" xlink:href="#shape0"/>
      <use ffdec:characterId="3" height="17.75" transform="matrix(1.0, 0.0, 0.0, 1.0, 7.35, 22.2)" width="13.85" xlink:href="#sprite1"/>
      <use ffdec:characterId="3" height="17.75" transform="matrix(-1.0, 0.0, 0.0, 1.0, 41.25, 22.2)" width="13.85" xlink:href="#sprite1"/>
    </g>
    <g id="shape0">
      <path d="M13.5 3.1 Q16.85 1.4 20.1 0.9 L26.55 0.2 31.75 0.0 37.05 0.9 Q40.45 1.75 42.7 3.3 44.95 4.85 46.3 6.35 47.55 7.85 49.65 9.3 L53.05 9.75 Q54.55 9.5 55.65 10.4 L57.6 12.35 58.95 14.1 60.0 16.3 60.55 17.9 53.2 18.65 Q52.2 20.85 51.15 21.9 50.15 22.9 49.35 23.25 L49.15 26.6 Q49.0 29.2 48.15 33.05 47.3 36.9 44.65 40.95 41.95 45.0 38.2 45.9 34.3 46.75 26.95 46.0 L20.85 46.55 13.55 45.95 Q9.05 45.05 6.65 42.15 4.25 39.2 3.2 36.9 1.65 33.6 0.75 30.2 -0.85 24.15 1.05 18.1 2.05 15.1 3.8 12.0 5.6 8.9 7.9 6.85 10.15 4.8 13.5 3.1" fill="#a5b4ba" fill-rule="evenodd" stroke="none"/>
      <path d="M13.5 3.1 Q16.85 1.4 20.1 0.9 L26.55 0.2 31.75 0.0 37.05 0.9 Q40.45 1.75 42.7 3.3 44.95 4.85 46.3 6.35 47.55 7.85 49.65 9.3 L53.05 9.75 Q54.55 9.5 55.65 10.4 L57.6 12.35 58.95 14.1 60.0 16.3 60.55 17.9 53.2 18.65 Q52.2 20.85 51.15 21.9 50.15 22.9 49.35 23.25 L49.15 26.6 Q49.0 29.2 48.15 33.05 47.3 36.9 44.65 40.95 41.95 45.0 38.2 45.9 34.3 46.75 26.95 46.0 L20.85 46.55 13.55 45.95 Q9.05 45.05 6.65 42.15 4.25 39.2 3.2 36.9 1.65 33.6 0.75 30.2 -0.85 24.15 1.05 18.1 2.05 15.1 3.8 12.0 5.6 8.9 7.9 6.85 10.15 4.8 13.5 3.1 Z" ffdec:has-small-stroke="true" ffdec:original-stroke-width="0.7" fill="none" stroke="#4b4b50" stroke-linecap="round" stroke-linejoin="round" stroke-width="1.0"/>
      <path d="M47.7 17.0 Q48.75 23.7 42.95 29.35 37.25 35.05 28.15 36.25 19.0 37.45 11.75 33.55 4.55 29.6 3.5 22.9 2.45 16.15 8.15 10.5 13.9 4.8 23.05 3.6 32.15 2.4 39.35 6.3 46.65 10.25 47.7 17.0" fill="#ffffff" fill-rule="evenodd" stroke="none"/>
      <path d="M54.5 13.3 Q55.3 12.0 57.45 14.35 59.2 15.75 60.4 17.7 L52.9 18.35 Q53.65 15.5 54.5 13.3" fill="#5a6b7c" fill-rule="evenodd" stroke="none"/>
    </g>
    <g id="sprite1">
      <use ffdec:characterId="2" height="17.75" transform="matrix(1.0, 0.0, 0.0, 1.0, 0.0, 0.0)" width="13.85" xlink:href="#shape1"/>
    </g>
    <g id="shape1">
      <path d="M13.85 10.25 Q13.85 12.75 12.5 14.6 10.4 17.55 6.35 17.75 2.25 17.9 1.2 15.35 0.1 12.8 0.0 9.9 -0.1 7.0 1.55 3.8 3.2 0.6 6.45 0.0 9.85 -0.35 12.15 4.25 13.85 7.7 13.85 10.25" fill="#7f909a" fill-rule="evenodd" stroke="none"/>
      <path d="M12.25 11.15 Q12.25 17.2 7.2 17.2 4.15 17.2 2.8 14.55 2.15 13.25 2.1 11.9 2.1 4.7 5.95 3.3 9.1 2.2 10.95 6.0 12.25 8.75 12.25 11.15" fill="#0a0f13" fill-rule="evenodd" stroke="none"/>
      <path d="M8.2 10.15 L7.9 11.0 7.2 11.4 Q6.8 11.4 6.5 11.0 6.2 10.65 6.2 10.15 6.2 9.65 6.5 9.25 6.8 8.9 7.2 8.9 7.6 8.9 7.9 9.25 L8.2 10.15" fill="#00fff3" fill-rule="evenodd" stroke="none"/>
    </g>
  </defs>
</svg>
