<?xml version="1.0" encoding="UTF-8" standalone="no"?>
<svg xmlns:ffdec="https://www.free-decompiler.com/flash" xmlns:xlink="http://www.w3.org/1999/xlink" ffdec:objectType="frame" height="61.25px" width="67.5px" xmlns="http://www.w3.org/2000/svg">
  <g transform="matrix(1.0, 0.0, 0.0, 1.0, 35.1, 46.3)">
    <use ffdec:characterId="50" height="61.25" transform="matrix(1.0, 0.0, 0.0, 1.0, -49.55, -58.45)" width="67.5" xlink:href="#sprite0"/>
  </g>
  <defs>
    <g id="sprite0">
      <use ffdec:characterId="16" height="15.45" transform="matrix(0.9939, -0.3757, 0.4724, 0.9889, 18.1, 60.45)" width="13.1" xlink:href="#sprite1"/>
      <use ffdec:characterId="18" height="47.35" transform="matrix(1.2599, -0.0822, 0.128, 1.0663, 16.65, 19.9)" width="37.0" xlink:href="#sprite2"/>
      <use ffdec:characterId="20" height="38.95" transform="matrix(1.451, 0.1329, -0.0357, 1.2054, 61.5, 20.2)" width="15.35" xlink:href="#sprite3"/>
      <use ffdec:characterId="14" height="18.4" transform="matrix(0.1005, -1.3856, -0.5926, -0.1992, 29.85, 71.95)" width="13.4" xlink:href="#sprite4"/>
      <use ffdec:characterId="40" height="26.2" transform="matrix(1.0, 0.0, 0.0, 1.0, 0.0, 0.0)" width="11.4" xlink:href="#shape4"/>
      <use ffdec:characterId="14" height="18.4" transform="matrix(-0.1005, -1.3856, 0.5926, -0.1992, 70.0, 71.5)" width="13.4" xlink:href="#sprite4"/>
      <use ffdec:characterId="9" height="16.55" transform="matrix(1.4704, -0.2758, 0.3101, 1.308, 43.05, 44.55)" width="12.5" xlink:href="#sprite5"/>
      <use ffdec:characterId="22" height="18.45" transform="matrix(0.8338, -0.6104, 0.6862, 0.7417, 35.15, 51.35)" width="20.2" xlink:href="#sprite6"/>
      <use ffdec:characterId="28" height="41.8" transform="matrix(-1.08, 0.0, 0.0, 0.9607, 76.3, 31.85)" width="21.95" xlink:href="#sprite7"/>
      <use ffdec:characterId="42" height="27.6" transform="matrix(1.08, 0.0, 0.0, 0.9607, 27.35, 24.7)" width="48.8" xlink:href="#sprite8"/>
      <use ffdec:characterId="6" height="25.4" transform="matrix(1.08, 0.0, 0.0, 0.9607, 69.2, 52.2)" width="9.45" xlink:href="#sprite9"/>
      <use ffdec:characterId="44" height="18.5" transform="matrix(1.08, 0.0, 0.0642, 0.8714, 59.0, 41.65)" width="11.45" xlink:href="#sprite12"/>
      <use ffdec:characterId="24" height="32.0" transform="matrix(0.8565, 0.0, 0.2252, 0.7619, 26.85, 40.05)" width="25.25" xlink:href="#sprite13"/>
      <use ffdec:characterId="14" height="18.4" transform="matrix(1.0688, -0.6435, 0.6376, 0.7735, 14.45, 44.35)" width="13.4" xlink:href="#sprite4"/>
      <use ffdec:characterId="30" height="8.0" transform="matrix(0.8462, 0.0, 0.0, 0.9607, 36.55, 25.25)" width="23.05" xlink:href="#sprite14"/>
      <use ffdec:characterId="34" height="4.1" transform="matrix(1.08, 0.0, 0.0, 0.9607, 62.9, 33.2)" width="11.3" xlink:href="#sprite15"/>
      <use ffdec:characterId="46" height="17.5" transform="matrix(1.0642, -0.2536, 0.2851, 0.9466, 24.3, 34.55)" width="26.25" xlink:href="#sprite16"/>
      <use ffdec:characterId="36" height="7.65" transform="matrix(1.08, 0.0, 0.0, 0.9607, 27.55, 30.85)" width="21.55" xlink:href="#sprite17"/>
      <use ffdec:characterId="32" height="12.7" transform="matrix(-1.011, 0.0727, 0.6659, 0.6499, 58.1, 12.5)" width="11.9" xlink:href="#sprite18"/>
      <use ffdec:characterId="30" height="8.0" transform="matrix(-0.6357, -0.7514, -0.8628, 0.5776, 78.45, 50.2)" width="23.05" xlink:href="#sprite14"/>
      <use ffdec:characterId="48" height="26.55" transform="matrix(-0.8873, -0.569, -0.678, 0.6846, 78.35, 57.45)" width="17.5" xlink:href="#sprite19"/>
      <use ffdec:characterId="49" height="25.8" transform="matrix(1.0, 0.0, 0.0, 1.0, 0.0, 0.0)" width="21.95" xlink:href="#shape20"/>
    </g>
    <g id="sprite1">
      <use ffdec:characterId="15" height="15.45" transform="matrix(1.0, 0.0, 0.0, 1.0, 0.0, 0.0)" width="13.1" xlink:href="#shape0"/>
    </g>
    <g id="shape0">
      <path d="M0.1 9.3 L0.15 9.25 0.4 9.0 1.0 8.4 Q3.9 5.35 5.7 1.05 L6.1 0.0 13.1 -5.25 8.85 2.2 8.6 3.25 Q8.15 4.5 6.95 6.1 L6.7 6.35 6.55 6.55 6.0 7.2 3.8 8.85 2.35 9.6 2.2 9.65 1.25 10.05 Q0.7 10.35 0.2 10.05 -0.15 9.75 0.1 9.3" fill="#a0e984" fill-rule="evenodd" stroke="none"/>
      <path d="M0.1 9.3 L0.15 9.25 0.4 9.0 1.0 8.4 Q3.9 5.35 5.7 1.05 L6.1 0.0 Q4.15 6.0 1.4 8.8 L1.15 9.0 Q0.5 9.6 1.35 9.4 L2.2 9.1 3.6 8.5 Q4.85 7.8 5.75 6.9 L6.35 6.3 6.5 6.15 Q8.05 4.45 8.85 1.9 8.9 3.5 6.95 6.1 L6.7 6.35 6.55 6.55 6.0 7.2 3.8 8.85 2.35 9.6 2.2 9.65 1.25 10.05 Q0.7 10.35 0.2 10.05 -0.15 9.75 0.1 9.3" fill="#5bb630" fill-rule="evenodd" stroke="none"/>
    </g>
    <g id="sprite2">
      <use ffdec:characterId="17" height="47.35" transform="matrix(1.0, 0.0, 0.0, 1.0, 0.0, 0.0)" width="37.0" xlink:href="#shape1"/>
    </g>
    <g id="shape1">
      <path d="M0.2 33.65 Q-0.1 29.25 0.05 24.15 0.15 21.2 0.65 19.0 L1.1 17.4 2.25 14.35 3.6 11.8 3.7 11.65 3.8 11.45 4.15 10.95 4.25 10.75 5.2 9.4 5.75 8.8 7.0 7.4 8.0 6.4 9.2 5.35 9.55 5.15 9.85 4.9 12.85 3.0 13.2 2.85 Q15.05 1.9 17.2 1.25 L18.7 0.8 21.4 0.3 23.9 0.05 24.95 0.05 26.0 0.05 26.25 0.05 26.55 0.05 28.35 0.3 28.55 0.35 29.3 0.5 29.7 0.55 29.8 0.6 31.65 1.15 32.0 1.25 33.2 1.8 Q35.4 2.8 37.0 4.4 L37.0 5.75 36.15 6.35 Q35.45 6.6 35.4 6.95 L33.1 8.1 Q10.9 19.8 7.0 33.65 L6.75 34.6 Q6.25 36.5 5.9 38.55 2.25 38.85 0.2 33.65" fill="#dcffcc" fill-rule="evenodd" stroke="none"/>
      <path d="M36.15 6.35 L36.25 6.5 36.15 6.55 36.15 6.35" fill="#5eceff" fill-rule="evenodd" stroke="none"/>
      <path d="M0.2 33.65 Q2.25 38.85 5.9 38.55 5.2 42.3 4.95 46.45 L4.2 47.0 Q1.9 45.65 0.95 40.0 0.5 37.45 0.3 34.6 L0.2 33.65" fill="#a0e984" fill-rule="evenodd" stroke="none"/>
      <path d="M1.3 23.75 L1.2 26.9 Q1.6 45.25 5.15 47.35 2.1 46.8 0.95 40.0 -0.25 33.15 0.05 24.15 0.15 21.2 0.65 19.0 L1.1 17.4 2.25 14.35 3.6 11.8 3.7 11.65 3.8 11.45 4.15 10.95 4.25 10.75 5.2 9.4 5.75 8.8 8.0 6.4 9.2 5.35 9.55 5.15 9.85 4.9 12.85 3.0 13.2 2.85 Q15.65 1.55 18.7 0.8 L21.4 0.3 23.9 0.05 26.25 0.05 26.55 0.05 28.35 0.3 Q30.3 0.6 31.65 1.15 L32.0 1.25 34.4 2.3 34.5 2.3 34.45 2.5 34.35 2.45 31.6 1.4 28.3 0.65 28.05 0.6 27.8 0.6 27.3 0.5 26.8 0.5 26.5 0.45 26.25 0.45 23.95 0.55 21.5 0.85 18.85 1.4 Q16.15 2.1 13.55 3.5 L11.0 5.1 10.85 5.25 10.7 5.35 8.65 7.1 6.55 9.4 6.3 9.75 6.15 9.9 6.05 10.05 5.8 10.35 5.05 11.5 4.95 11.7 4.75 12.0 4.7 12.1 4.7 12.15 4.65 12.2 3.35 14.85 2.3 17.8 1.65 20.8 1.45 22.3 1.4 22.45 1.4 22.65 1.3 23.75" fill="#73c74d" fill-rule="evenodd" stroke="none"/>
    </g>
    <g id="sprite3">
      <use ffdec:characterId="19" height="38.95" transform="matrix(1.0, 0.0, 0.0, 1.0, 0.0, 0.0)" width="15.35" xlink:href="#shape2"/>
    </g>
    <g id="shape2">
      <path d="M11.4 34.75 L11.35 35.5 11.25 35.75 11.2 36.0 11.0 36.6 10.65 37.25 10.55 37.4 10.45 37.5 10.45 37.55 10.4 37.55 10.4 37.6 10.3 37.7 10.3 37.75 10.15 37.9 9.4 38.45 8.5 38.8 8.45 38.8 -1.25 -0.15 0.8 0.2 Q9.15 1.8 12.25 8.5 L13.15 10.95 13.35 11.55 13.15 11.8 13.15 12.75 13.55 12.75 13.55 25.05 Q12.9 29.5 11.4 34.75" fill="#dcffcc" fill-rule="evenodd" stroke="none"/>
      <path d="M11.4 34.75 L11.35 35.5 11.25 35.75 11.2 36.0 11.0 36.6 10.65 37.25 10.55 37.4 10.45 37.5 10.45 37.55 10.4 37.55 10.4 37.6 10.3 37.7 10.3 37.75 10.15 37.9 9.4 38.45 8.5 38.8 8.1 38.8 8.1 38.0 8.35 38.0 Q9.05 37.85 9.5 37.3 L9.6 37.15 9.7 37.05 9.7 37.0 9.8 36.9 9.85 36.75 10.15 36.25 10.35 35.55 10.4 34.7 10.45 34.6 10.45 34.55 Q19.3 4.55 0.1 0.15 L0.15 0.05 0.25 0.1 Q20.2 3.5 11.4 34.75" fill="#73c74d" fill-rule="evenodd" stroke="none"/>
    </g>
    <g id="sprite4">
      <use ffdec:characterId="13" height="18.4" transform="matrix(1.0, 0.0, 0.0, 1.0, 0.0, 0.0)" width="13.4" xlink:href="#shape3"/>
    </g>
    <g id="shape3">
      <path d="M1.25 17.95 Q0.35 18.9 0.0 17.75 2.4 9.5 5.95 5.15 9.45 0.7 11.7 0.0 L13.4 0.0 8.5 10.6 Q5.3 12.7 1.25 17.95" fill="#dcffcc" fill-rule="evenodd" stroke="none"/>
      <path d="M1.25 17.95 Q0.35 18.9 0.0 17.75 2.4 9.5 5.95 5.15 9.45 0.7 11.7 0.0 3.45 6.15 0.9 17.45 4.0 13.4 8.5 10.6 3.95 14.45 1.25 17.95" fill="#5bb630" fill-rule="evenodd" stroke="none"/>
    </g>
    <g id="shape4">
      <path d="M35.15 61.5 Q35.0 67.45 35.8 72.9 L35.6 72.85 32.25 69.95 Q29.85 67.8 28.65 65.9 L27.3 63.95 25.35 51.85 28.0 50.75 Q28.8 57.65 31.5 63.35 34.05 69.1 35.15 61.5" fill="#a0e984" fill-rule="evenodd" stroke="none"/>
      <path d="M28.0 50.75 L30.2 50.0 30.05 48.65 34.25 47.1 34.4 47.9 Q35.3 47.45 36.75 46.9 35.45 53.25 35.25 59.35 L35.15 61.5 Q34.05 69.1 31.5 63.35 28.8 57.65 28.0 50.75" fill="#dcffcc" fill-rule="evenodd" stroke="none"/>
      <path d="M33.65 58.25 Q33.5 65.85 35.65 73.05 L35.85 73.1 Q34.95 66.6 35.3 59.5 L35.55 56.15 36.6 49.05 Q34.5 50.2 34.1 50.7 33.7 54.55 33.65 58.25" fill="#5bb630" fill-rule="evenodd" stroke="none"/>
      <path d="M36.2 73.0 Q30.65 70.85 27.55 63.45 L28.75 61.0 Q31.75 68.55 36.2 73.0" fill="#5bb630" fill-rule="evenodd" stroke="none"/>
    </g>
    <g id="sprite5">
      <use ffdec:characterId="8" height="16.55" transform="matrix(1.0, 0.0, 0.0, 1.0, 0.0, 0.0)" width="12.5" xlink:href="#shape5"/>
    </g>
    <g id="shape5">
      <path d="M9.7 0.0 L9.75 0.1 9.75 -2.7 13.9 -2.7 13.9 2.35 13.7 2.55 13.65 2.65 13.6 3.1 13.55 3.15 13.6 3.3 13.5 3.35 13.4 3.8 Q13.4 4.1 13.55 4.2 13.25 5.45 12.65 6.3 8.6 11.5 2.95 13.5 L2.85 13.55 1.85 13.85 1.65 13.8 1.6 13.75 1.45 13.7 Q8.0 6.9 9.65 0.0 L9.7 0.0" fill="#a0e984" fill-rule="evenodd" stroke="none"/>
      <path d="M13.9 1.85 Q13.75 4.7 12.65 6.3 8.65 11.45 3.1 13.45 L2.95 13.5 1.4 13.65 1.9 13.2 Q8.05 6.65 9.65 0.0 L9.7 0.0 Q10.3 0.9 9.7 2.8 7.8 7.8 3.4 12.35 9.4 9.75 13.9 1.85" fill="#65ba3a" fill-rule="evenodd" stroke="none"/>
    </g>
    <g id="sprite6">
      <use ffdec:characterId="21" height="18.45" transform="matrix(1.0, 0.0, 0.0, 1.0, 0.0, 0.0)" width="20.2" xlink:href="#shape6"/>
    </g>
    <g id="shape6">
      <path d="M18.85 6.9 L18.85 7.2 18.75 7.35 18.85 6.9" fill="#91d1ff" fill-rule="evenodd" stroke="none"/>
      <path d="M2.8 11.15 Q8.0 9.4 15.1 4.55 L16.65 2.45 17.9 0.1 20.1 2.55 Q19.75 3.8 18.9 5.25 L18.85 5.25 18.85 6.9 18.75 7.35 Q4.6 17.0 1.5 15.7 L0.3 15.7 0.3 14.3 0.25 14.35 0.1 14.25 0.15 14.15 Q1.55 12.85 2.8 11.15" fill="#a0e984" fill-rule="evenodd" stroke="none"/>
      <path d="M2.8 11.15 Q4.85 8.2 6.3 4.1 L6.45 3.8 6.8 3.8 6.8 -2.3 18.9 -2.3 Q20.85 -0.35 20.1 2.55 L17.9 0.1 16.65 2.45 15.1 4.55 Q8.0 9.4 2.8 11.15" fill="#b2f69a" fill-rule="evenodd" stroke="none"/>
      <path d="M6.2 4.25 L6.35 3.95 6.95 4.3 Q5.65 9.3 0.2 14.85 L0.2 14.2 Q3.95 10.6 6.2 4.25 M16.0 5.4 Q10.9 12.45 0.2 16.15 L0.2 15.6 Q12.4 9.5 17.8 0.0 L17.85 0.1 Q18.1 2.05 16.0 5.4" fill="#5bb630" fill-rule="evenodd" stroke="none"/>
      <path d="M19.0 7.05 Q12.65 14.4 2.7 15.85 11.95 13.35 19.0 4.95 L19.0 7.05" fill="#5bb630" fill-rule="evenodd" stroke="none"/>
    </g>
    <g id="sprite7">
      <use ffdec:characterId="27" height="41.8" transform="matrix(1.0, 0.0, 0.0, 1.0, 0.0, 0.0)" width="21.95" xlink:href="#shape7"/>
    </g>
    <g id="shape7">
      <path d="M6.35 27.35 Q4.9 31.0 4.0 27.7 3.1 24.35 4.2 16.05 8.6 3.25 21.95 0.0 9.85 9.25 6.35 27.35" fill="#dcffcc" fill-rule="evenodd" stroke="none"/>
      <path d="M6.35 27.35 Q5.95 29.35 5.7 31.45 L5.65 31.65 Q5.95 33.1 5.2 35.6 L5.1 35.95 5.0 36.2 4.7 37.0 4.4 37.65 3.3 39.3 2.2 40.55 1.15 41.55 1.05 41.55 1.0 41.6 0.8 41.8 Q-0.1 41.8 0.0 41.05 L0.0 41.0 1.3 37.65 Q1.9 35.6 2.1 33.35 L2.05 31.55 2.05 31.45 2.15 27.35 Q2.5 21.0 4.2 16.05 3.1 24.35 4.0 27.7 4.9 31.0 6.35 27.35" fill="#a0e984" fill-rule="evenodd" stroke="none"/>
      <path d="M21.95 0.0 Q2.15 7.6 2.25 33.6 L2.1 33.6 Q1.05 5.05 21.95 0.0" fill="#5bb630" fill-rule="evenodd" stroke="none"/>
      <path d="M0.0 41.05 L0.0 41.0 Q2.1 36.65 2.2 31.35 L2.2 30.25 Q2.6 37.3 0.6 41.0 L0.55 41.2 0.75 41.0 1.75 40.25 2.9 39.05 4.4 36.8 4.7 36.05 4.85 35.8 Q5.65 33.65 5.45 31.05 6.1 32.5 5.2 35.6 L5.1 35.95 5.0 36.2 4.7 37.0 3.3 39.3 2.2 40.55 1.15 41.55 1.05 41.55 1.0 41.6 0.8 41.8 Q-0.1 41.8 0.0 41.05" fill="#5bb630" fill-rule="evenodd" stroke="none"/>
    </g>
    <g id="sprite8">
      <use ffdec:characterId="41" height="27.6" transform="matrix(1.0, 0.0, 0.0, 1.0, 0.0, 0.0)" width="48.8" xlink:href="#shape8"/>
    </g>
    <g id="shape8">
      <path d="M48.8 17.1 Q48.8 23.1 43.7 27.6 L41.25 27.6 41.25 21.5 33.45 21.5 33.45 18.3 23.8 18.3 23.8 21.5 12.85 21.5 12.85 27.6 5.1 27.6 Q0.0 23.1 0.0 17.1 0.0 10.0 7.15 5.0 14.3 0.0 24.4 0.0 34.5 0.0 41.65 5.0 48.8 10.0 48.8 17.1" fill="#dcffcc" fill-rule="evenodd" stroke="none"/>
    </g>
    <g id="sprite9">
      <use ffdec:characterId="1" height="25.4" transform="matrix(1.0, 0.0, 0.0, 1.0, 0.0, 0.0)" width="9.35" xlink:href="#shape9"/>
      <use ffdec:characterId="3" height="6.85" transform="matrix(1.0, 0.0, 0.0, 1.0, 3.0, 4.55)" width="4.8" xlink:href="#sprite10"/>
      <use ffdec:characterId="5" height="16.1" transform="matrix(1.0, 0.0, 0.0, 1.0, 0.0, 0.0)" width="6.95" xlink:href="#sprite11"/>
    </g>
    <g id="shape9">
      <path d="M2.55 12.05 L1.25 13.0 0.15 13.25 0.1 13.25 Q2.7 7.25 0.1 -6.05 L0.4 -7.9 7.1 -2.95 5.85 4.2 Q5.45 4.8 5.5 5.5 5.55 6.2 4.7 7.9 L3.3 10.65 2.55 12.05" fill="#dcffcc" fill-rule="evenodd" stroke="none"/>
      <path d="M2.55 12.05 L3.3 10.65 4.7 7.9 Q5.55 6.2 5.5 5.5 5.45 4.8 5.85 4.2 L7.1 -2.95 8.7 -12.15 Q9.25 -9.9 9.4 -7.7 9.65 -4.3 8.95 -0.95 L7.65 4.75 7.8 4.8 7.65 5.4 7.35 6.45 7.2 6.95 Q6.55 8.9 5.65 10.0 4.55 11.35 3.1 11.4 L2.55 12.05" fill="#8ad96b" fill-rule="evenodd" stroke="none"/>
    </g>
    <g id="sprite10">
      <use ffdec:characterId="2" height="6.85" transform="matrix(1.0, 0.0, 0.0, 1.0, 0.0, 0.0)" width="4.8" xlink:href="#shape10"/>
    </g>
    <g id="shape10">
      <path d="M4.1 0.0 L4.8 0.25 Q3.3 6.75 0.1 6.85 L0.0 6.8 0.05 6.75 Q3.35 6.0 4.1 0.0" fill="#5bb630" fill-rule="evenodd" stroke="none"/>
    </g>
    <g id="sprite11">
      <use ffdec:characterId="4" height="16.1" transform="matrix(1.0, 0.0, 0.0, 1.0, 0.0, 0.0)" width="6.95" xlink:href="#shape11"/>
    </g>
    <g id="shape11">
      <path d="M6.55 0.15 L6.95 -2.85 Q5.15 13.55 0.15 13.25 L0.0 13.2 0.05 13.1 Q4.5 11.6 6.55 0.15" fill="#5bb630" fill-rule="evenodd" stroke="none"/>
    </g>
    <g id="sprite12">
      <use ffdec:characterId="43" height="18.5" transform="matrix(1.0, 0.0, 0.0, 1.0, 0.0, 0.0)" width="11.45" xlink:href="#shape12"/>
    </g>
    <g id="shape12">
      <path d="M0.0 0.0 L0.15 0.05 -0.4 -0.25 8.3 -0.25 11.05 18.1 6.25 18.1 6.3 18.2 6.1 18.25 6.1 18.15 Q4.45 9.35 0.0 0.0" fill="#dcffcc" fill-rule="evenodd" stroke="none"/>
      <path d="M0.0 0.0 Q1.5 0.6 2.6 3.0 5.65 10.05 6.25 18.1 L6.3 18.2 6.1 18.25 6.1 18.15 Q4.45 9.35 0.0 0.0" fill="#5bb630" fill-rule="evenodd" stroke="none"/>
    </g>
    <g id="sprite13">
      <use ffdec:characterId="23" height="32.0" transform="matrix(1.0, 0.0, 0.0, 1.0, 0.0, 0.0)" width="25.25" xlink:href="#shape13"/>
    </g>
    <g id="shape13">
      <path d="M1.85 16.4 Q2.5 14.4 3.4 12.75 L4.25 11.25 Q9.9 -2.05 21.15 -5.4 L25.25 -1.3 24.45 -0.55 Q3.4 15.7 1.85 16.4" fill="#dcffcc" fill-rule="evenodd" stroke="none"/>
      <path d="M24.45 -0.55 L24.2 0.0 23.55 1.15 23.55 1.2 Q21.6 4.35 18.05 6.75 L17.8 6.85 17.0 7.45 Q5.35 18.0 1.25 26.05 L1.05 26.35 0.65 26.45 0.5 26.5 0.45 26.55 0.0 26.05 Q0.35 22.05 1.15 18.85 L1.85 16.4 Q3.4 15.7 24.45 -0.55" fill="#a0e984" fill-rule="evenodd" stroke="none"/>
      <path d="M1.25 26.05 L0.65 26.6 0.6 26.6 0.0 26.05 Q0.75 17.6 3.4 12.75 L4.2 11.3 Q1.05 18.05 0.8 25.65 L2.95 21.8 Q6.4 15.4 11.4 10.5 14.35 7.6 17.8 5.25 L24.2 0.0 Q22.25 3.9 18.05 6.75 L17.8 6.85 17.0 7.45 Q5.35 18.0 1.25 26.05" fill="#5bb630" fill-rule="evenodd" stroke="none"/>
    </g>
    <g id="sprite14">
      <use ffdec:characterId="29" height="8.0" transform="matrix(1.0, 0.0, 0.0, 1.0, 0.0, 0.0)" width="23.05" xlink:href="#shape14"/>
    </g>
    <g id="shape14">
      <path d="M0.0 8.0 L0.0 6.55 Q10.9 -1.15 22.9 0.2 L23.0 0.15 23.05 0.35 22.95 0.35 Q10.5 0.2 0.0 8.0" fill="#5bb630" fill-rule="evenodd" stroke="none"/>
    </g>
    <g id="sprite15">
      <use ffdec:characterId="33" height="4.1" transform="matrix(1.0, 0.0, 0.0, 1.0, 0.0, 0.0)" width="11.3" xlink:href="#shape15"/>
    </g>
    <g id="shape15">
      <path d="M11.3 1.75 Q5.0 5.15 0.3 3.65 L0.0 3.55 Q5.3 3.0 9.15 0.0 L11.3 1.75" fill="#ffffff" fill-rule="evenodd" stroke="none"/>
    </g>
    <g id="sprite16">
      <use ffdec:characterId="45" height="17.5" transform="matrix(1.0, 0.0, 0.0, 1.0, 0.0, 0.0)" width="26.25" xlink:href="#shape16"/>
    </g>
    <g id="shape16">
      <path d="M26.25 1.5 Q9.05 9.8 1.15 17.1 0.0 18.05 0.0 16.85 4.45 8.8 9.05 4.7 13.65 0.55 16.05 0.0 L26.25 0.0 26.25 1.5" fill="#dcffcc" fill-rule="evenodd" stroke="none"/>
      <path d="M15.25 5.8 Q15.95 5.4 18.35 4.45 20.75 3.45 21.9 3.65 L16.65 6.45 Q6.65 12.0 1.15 17.1 L0.95 17.25 Q0.0 17.95 0.0 16.85 L0.2 16.0 Q1.45 11.8 3.8 9.55 1.85 12.35 0.75 16.0 L0.7 16.55 0.95 16.3 Q7.0 10.3 15.25 5.8" fill="#5bb630" fill-rule="evenodd" stroke="none"/>
    </g>
    <g id="sprite17">
      <use ffdec:characterId="35" height="7.65" transform="matrix(1.0, 0.0, 0.0, 1.0, 0.0, 0.0)" width="21.55" xlink:href="#shape17"/>
    </g>
    <g id="shape17">
      <path d="M-1.35 3.5 L1.5 0.0 Q9.0 6.55 18.7 6.1 L20.2 5.8 19.75 6.0 20.2 5.95 18.75 6.4 Q8.65 9.95 -1.35 3.5" fill="#ffffff" fill-rule="evenodd" stroke="none"/>
    </g>
    <g id="sprite18">
      <use ffdec:characterId="31" height="12.7" transform="matrix(1.0, 0.0, 0.0, 1.0, 0.0, 0.0)" width="11.9" xlink:href="#shape18"/>
    </g>
    <g id="shape18">
      <path d="M0.0 0.15 Q8.65 5.0 10.7 12.25 7.7 10.85 6.05 8.25 3.45 4.1 0.05 0.25 L0.0 0.25 0.0 0.15" fill="#dcffcc" fill-rule="evenodd" stroke="none"/>
      <path d="M0.0 0.15 L0.0 0.0 Q7.85 2.1 11.35 9.5 L10.7 9.5 10.7 12.25 Q8.65 5.0 0.0 0.15" fill="#74c84f" fill-rule="evenodd" stroke="none"/>
      <path d="M10.45 9.5 Q7.55 3.6 3.45 1.9 2.05 1.25 2.45 2.5 2.7 3.4 6.05 8.25 4.0 6.45 2.3 4.35 0.55 2.25 -0.55 -0.45 7.9 2.25 11.35 9.5 L10.45 9.5" fill="#5bb630" fill-rule="evenodd" stroke="none"/>
    </g>
    <g id="sprite19">
      <use ffdec:characterId="47" height="26.55" transform="matrix(1.0, 0.0, 0.0, 1.0, 0.0, 0.0)" width="17.5" xlink:href="#shape19"/>
    </g>
    <g id="shape19">
      <path d="M14.35 2.1 L14.3 2.15 14.25 2.1 14.35 2.1 14.3 2.05 14.3 2.0 14.35 2.05 14.4 2.05 14.35 2.1 M13.8 2.45 L13.8 2.5 13.75 2.45 14.0 2.2 13.9 2.35 13.8 2.45" fill="#ffdae4" fill-rule="evenodd" stroke="none"/>
      <path d="M1.25 22.7 Q0.7 23.85 0.0 22.85 -0.15 14.25 1.95 9.05 3.95 3.8 5.9 2.5 11.1 -4.8 17.5 -2.8 L17.5 -1.9 17.45 -1.95 15.2 1.1 15.15 1.05 15.2 0.95 15.0 0.65 14.65 0.65 14.55 0.7 14.35 0.7 14.35 0.8 14.15 1.0 13.95 1.15 13.25 1.85 13.15 2.05 13.1 2.1 12.8 2.45 12.75 2.55 12.65 2.65 12.6 2.75 12.55 2.8 12.5 2.9 12.0 3.65 11.9 3.85 11.85 4.0 11.9 4.05 11.9 4.15 11.8 4.2 11.9 4.35 12.05 4.5 12.1 4.7 12.3 4.8 Q4.05 15.15 1.25 22.7" fill="#dcffcc" fill-rule="evenodd" stroke="none"/>
      <path d="M8.6 7.6 Q13.7 0.55 16.2 0.0 4.7 13.45 1.25 22.7 0.7 23.85 0.0 22.85 -0.15 14.25 1.95 9.05 3.95 3.75 5.9 2.45 -0.15 10.8 0.75 22.3 3.5 14.75 8.6 7.6" fill="#5bb630" fill-rule="evenodd" stroke="none"/>
    </g>
    <g id="shape20">
      <path d="M43.0 59.05 L42.1 59.3 41.25 57.4 Q38.7 53.45 38.4 49.05 38.25 44.55 40.55 40.1 L46.35 39.7 Q47.8 41.3 46.3 46.0 44.8 50.75 44.05 54.8 L43.5 57.45 43.0 59.05" fill="#dcffcc" fill-rule="evenodd" stroke="none"/>
      <path d="M43.3 59.1 L43.15 59.2 42.6 59.35 41.75 58.2 41.15 57.3 Q35.55 48.1 40.7 39.95 36.55 49.25 41.9 57.05 L42.7 58.1 42.75 57.5 Q44.0 49.0 45.2 45.15 46.75 40.2 50.05 38.9 47.95 43.1 47.1 45.7 L45.95 49.45 45.95 49.55 43.35 58.9 43.3 59.1" fill="#5bb630" fill-rule="evenodd" stroke="none"/>
      <path d="M49.3 56.45 Q50.95 51.75 49.1 41.85 L57.8 35.2 59.55 36.8 Q61.05 39.5 59.05 45.9 57.2 52.45 49.45 60.6 47.6 61.1 49.3 56.45" fill="#dcffcc" fill-rule="evenodd" stroke="none"/>
      <path d="M47.95 59.65 Q47.7 61.2 49.5 60.7 57.3 52.55 59.05 46.05 61.05 39.55 59.6 36.9 60.35 49.15 48.95 59.65 50.8 53.75 49.65 47.5 49.55 54.55 47.95 59.65" fill="#65ba3a" fill-rule="evenodd" stroke="none"/>
      <path d="M46.7 53.55 L46.3 53.4 45.7 51.35 Q43.5 48.3 43.5 42.4 43.5 36.45 47.3 35.0 L53.2 36.5 Q54.55 38.45 51.85 42.55 49.1 46.65 47.85 50.1 L46.7 53.55" fill="#dcffcc" fill-rule="evenodd" stroke="none"/>
      <path d="M46.75 52.7 L46.75 52.6 46.85 52.35 46.9 51.9 Q48.8 41.35 56.75 37.05 50.9 43.8 48.35 50.1 L47.55 51.9 47.2 52.7 46.8 53.6 Q45.75 53.05 45.55 51.9 40.65 42.05 45.65 35.85 42.0 43.0 46.45 51.9 L46.65 52.35 46.7 52.6 46.75 52.7" fill="#5bb630" fill-rule="evenodd" stroke="none"/>
    </g>
  </defs>
</svg>
