<?xml version="1.0" encoding="UTF-8" standalone="no"?>
<svg xmlns:ffdec="https://www.free-decompiler.com/flash" xmlns:xlink="http://www.w3.org/1999/xlink" ffdec:objectType="frame" height="40.85px" width="71.75px" xmlns="http://www.w3.org/2000/svg">
  <g transform="matrix(1.0, 0.0, 0.0, 1.0, 35.45, 25.35)">
    <use ffdec:characterId="18" height="40.85" transform="matrix(1.0, 0.0, 0.0, 1.0, -35.1, -25.0)" width="71.75" xlink:href="#sprite0"/>
  </g>
  <defs>
    <g id="sprite0">
      <use ffdec:characterId="17" height="26.5" transform="matrix(1.0, 0.0, 0.0, 1.0, 48.5, 0.0)" width="23.25" xlink:href="#sprite1"/>
      <use ffdec:characterId="17" height="26.5" transform="matrix(-1.0, 0.0, 0.0, 1.0, 22.55, 0.2)" width="23.25" xlink:href="#sprite4"/>
      <use ffdec:characterId="6" height="37.65" transform="matrix(1.0, 0.0, 0.0, 1.0, 12.3, 3.1)" width="45.9" xlink:href="#sprite7"/>
      <use ffdec:characterId="8" height="2.3" transform="matrix(1.0, 0.0, 0.0, 1.0, 18.7, 29.95)" width="5.0" xlink:href="#sprite8"/>
      <use ffdec:characterId="8" height="2.3" transform="matrix(1.0, 0.0, 0.0, 1.0, 49.1, 29.95)" width="5.0" xlink:href="#sprite9"/>
      <use ffdec:characterId="14" height="14.2" transform="matrix(1.0, 0.0, 0.0, 1.0, 24.55, 24.7)" width="21.0" xlink:href="#sprite10"/>
    </g>
    <g id="sprite1">
      <use ffdec:characterId="2" height="26.5" transform="matrix(1.0, 0.0, 0.0, 1.0, 0.0, 0.0)" width="23.25" xlink:href="#sprite2"/>
      <use ffdec:characterId="4" height="17.35" transform="matrix(1.0, 0.0, 0.0, 1.0, 2.1, 3.7)" width="13.9" xlink:href="#sprite3"/>
    </g>
    <g id="sprite2">
      <use ffdec:characterId="1" height="26.5" transform="matrix(1.0, 0.0, 0.0, 1.0, 0.0, 0.0)" width="23.25" xlink:href="#shape0"/>
    </g>
    <g id="shape0">
      <path d="M7.3 21.45 Q5.75 12.2 0.0 7.1 3.35 2.05 6.5 0.8 9.8 -0.75 13.85 0.8 16.3 1.6 18.25 3.85 L19.05 4.85 19.25 5.1 21.2 7.85 Q21.75 8.55 21.6 9.5 L21.2 10.45 21.25 10.95 22.05 11.8 Q22.6 12.4 22.55 13.2 L22.55 13.4 21.9 14.65 21.75 14.8 21.25 15.1 21.1 15.15 21.0 15.15 21.0 15.25 21.0 15.3 21.45 15.75 21.6 15.95 Q22.0 16.45 21.95 17.15 21.9 18.05 21.3 18.6 L20.45 19.1 19.55 19.1 Q18.55 19.95 17.0 20.05 L17.05 20.7 Q17.0 21.6 16.4 22.15 15.75 22.75 14.95 22.7 14.1 22.65 13.5 22.05 L13.15 21.7 Q13.1 22.45 12.55 23.0 11.95 23.6 11.1 23.6 10.25 23.6 9.65 23.0 9.15 22.5 9.1 21.85 L7.3 21.45 M21.1 15.15 L21.2 14.85 21.1 14.9 21.1 15.15" fill="#b8acb0" fill-rule="evenodd" stroke="none"/>
      <path d="M21.1 15.15 L21.1 14.9 21.2 14.85 21.1 15.15" fill="#ad9ba2" fill-rule="evenodd" stroke="none"/>
      <path d="M20.45 19.1 L19.85 19.15 19.8 19.15 Q20.2 19.7 20.15 20.4 20.1 21.3 19.5 21.85 18.85 22.45 18.05 22.4 L17.35 22.25 17.4 22.9 Q17.35 23.8 16.75 24.35 16.1 24.95 15.3 24.9 14.45 24.85 13.85 24.25 L13.5 23.9 Q13.45 24.65 12.9 25.2 12.3 25.8 11.45 25.8 10.6 25.8 10.0 25.2 9.5 24.7 9.45 24.05 L7.6 23.6 7.3 21.45 9.1 21.85 Q9.15 22.5 9.65 23.0 10.25 23.6 11.1 23.6 11.95 23.6 12.55 23.0 13.1 22.45 13.15 21.7 L13.5 22.05 Q14.1 22.65 14.95 22.7 15.75 22.75 16.4 22.15 17.0 21.6 17.05 20.7 L17.0 20.05 Q18.55 19.95 19.55 19.1 L20.45 19.1" fill="#d7cfd2" fill-rule="evenodd" stroke="none"/>
      <path d="M7.3 21.45 Q5.75 12.2 0.0 7.1 3.35 2.05 6.5 0.8 9.8 -0.75 13.85 0.8 16.3 1.6 18.25 3.85 L19.05 4.85 19.25 5.1 21.2 7.85 Q21.75 8.55 21.6 9.5 L21.2 10.45 21.25 10.95 22.05 11.8 Q22.6 12.4 22.55 13.2 L22.55 13.4 21.9 14.65 21.75 14.8 21.25 15.1 21.1 15.15 21.0 15.15 21.0 15.25 21.0 15.3 21.45 15.75 21.6 15.95 Q22.0 16.45 21.95 17.15 21.9 18.05 21.3 18.6 L20.45 19.1 19.85 19.15 19.8 19.15 Q20.2 19.7 20.15 20.4 20.1 21.3 19.5 21.85 18.85 22.45 18.05 22.4 L17.35 22.25 17.4 22.9 Q17.35 23.8 16.75 24.35 16.1 24.95 15.3 24.9 14.45 24.85 13.85 24.25 L13.5 23.9 Q13.45 24.65 12.9 25.2 12.3 25.8 11.45 25.8 10.6 25.8 10.0 25.2 9.5 24.7 9.45 24.05 L7.6 23.6 7.3 21.45 Z" ffdec:has-small-stroke="true" ffdec:original-stroke-width="0.75" fill="none" stroke="#625055" stroke-linecap="round" stroke-linejoin="round" stroke-width="1.0"/>
    </g>
    <g id="sprite3">
      <use ffdec:characterId="3" height="17.35" transform="matrix(1.0, 0.0, 0.0, 1.0, 0.0, 0.0)" width="13.9" xlink:href="#shape1"/>
    </g>
    <g id="shape1">
      <path d="M4.65 15.15 Q3.6 9.4 0.0 6.15 2.15 2.9 4.15 2.1 6.3 1.1 8.9 2.1 10.5 2.6 11.75 4.05 L11.8 4.1 Q12.5 5.7 12.5 7.6 12.5 10.75 10.55 13.0 8.55 15.25 5.8 15.25 L4.65 15.15" fill="#ffe8d3" fill-rule="evenodd" stroke="none"/>
      <path d="M11.8 4.1 Q13.7 6.35 13.7 9.5 13.7 12.65 11.75 14.9 9.75 17.15 7.0 17.15 L4.9 16.8 4.65 15.15 5.8 15.25 Q8.55 15.25 10.55 13.0 12.5 10.75 12.5 7.6 12.5 5.7 11.8 4.1" fill="#f7d2b1" fill-rule="evenodd" stroke="none"/>
      <path d="M4.65 15.15 Q3.6 9.4 0.0 6.15 2.15 2.9 4.15 2.1 6.3 1.1 8.9 2.1 10.5 2.6 11.75 4.05 L11.8 4.1 Q13.7 6.35 13.7 9.5 13.7 12.65 11.75 14.9 9.75 17.15 7.0 17.15 L4.9 16.8 4.65 15.15 Z" ffdec:has-small-stroke="true" ffdec:original-stroke-width="0.2" fill="none" stroke="#dec2a9" stroke-linecap="round" stroke-linejoin="round" stroke-width="1.0"/>
      <path d="M0.15 6.05 Q0.25 5.4 0.7 4.5 1.55 2.8 3.25 1.5 4.95 0.2 6.45 0.0 7.5 -0.1 8.05 0.3 9.0 0.85 8.8 2.1 L8.8 2.25 Q8.6 3.35 7.35 5.35 6.05 5.35 4.6 5.9 L4.2 6.05 0.15 6.05" fill="#ffe8d3" fill-rule="evenodd" stroke="none"/>
      <path d="M8.8 2.25 L8.8 2.1 Q9.0 0.85 8.05 0.3 7.5 -0.1 6.45 0.0 4.95 0.2 3.25 1.5 1.55 2.8 0.7 4.5 0.25 5.4 0.15 6.05" ffdec:has-small-stroke="true" ffdec:original-stroke-width="0.2" fill="none" stroke="#dec2a9" stroke-linecap="round" stroke-linejoin="round" stroke-width="1.0"/>
    </g>
    <g id="sprite4">
      <use ffdec:characterId="2" height="26.5" transform="matrix(1.0, 0.0, 0.0, 1.0, 0.0, 0.0)" width="23.25" xlink:href="#sprite5"/>
      <use ffdec:characterId="4" height="17.35" transform="matrix(1.0, 0.0, 0.0, 1.0, 2.1, 3.7)" width="13.9" xlink:href="#sprite6"/>
    </g>
    <g id="sprite5">
      <use ffdec:characterId="1" height="26.5" transform="matrix(1.0, 0.0, 0.0, 1.0, 0.0, 0.0)" width="23.25" xlink:href="#shape2"/>
    </g>
    <g id="shape2">
      <path d="M7.3 21.45 Q5.75 12.2 0.0 7.1 3.35 2.05 6.5 0.8 9.8 -0.75 13.85 0.8 16.3 1.6 18.25 3.85 L19.05 4.85 19.25 5.1 21.2 7.85 Q21.75 8.55 21.6 9.5 L21.2 10.45 21.25 10.95 22.05 11.8 Q22.6 12.4 22.55 13.2 L22.55 13.4 21.9 14.65 21.75 14.8 21.25 15.1 21.1 15.15 21.0 15.15 21.0 15.25 21.0 15.3 21.45 15.75 21.6 15.95 Q22.0 16.45 21.95 17.15 21.9 18.05 21.3 18.6 L20.45 19.1 19.55 19.1 Q18.55 19.95 17.0 20.05 L17.05 20.7 Q17.0 21.6 16.4 22.15 15.75 22.75 14.95 22.7 14.1 22.65 13.5 22.05 L13.15 21.7 Q13.1 22.45 12.55 23.0 11.95 23.6 11.1 23.6 10.25 23.6 9.65 23.0 9.15 22.5 9.1 21.85 L7.3 21.45 M21.1 15.15 L21.2 14.85 21.1 14.9 21.1 15.15" fill="#b8acb0" fill-rule="evenodd" stroke="none"/>
      <path d="M21.1 15.15 L21.1 14.9 21.2 14.85 21.1 15.15" fill="#ad9ba2" fill-rule="evenodd" stroke="none"/>
      <path d="M20.45 19.1 L19.85 19.15 19.8 19.15 Q20.2 19.7 20.15 20.4 20.1 21.3 19.5 21.85 18.85 22.45 18.05 22.4 L17.35 22.25 17.4 22.9 Q17.35 23.8 16.75 24.35 16.1 24.95 15.3 24.9 14.45 24.85 13.85 24.25 L13.5 23.9 Q13.45 24.65 12.9 25.2 12.3 25.8 11.45 25.8 10.6 25.8 10.0 25.2 9.5 24.7 9.45 24.05 L7.6 23.6 7.3 21.45 9.1 21.85 Q9.15 22.5 9.65 23.0 10.25 23.6 11.1 23.6 11.95 23.6 12.55 23.0 13.1 22.45 13.15 21.7 L13.5 22.05 Q14.1 22.65 14.95 22.7 15.75 22.75 16.4 22.15 17.0 21.6 17.05 20.7 L17.0 20.05 Q18.55 19.95 19.55 19.1 L20.45 19.1" fill="#d7cfd2" fill-rule="evenodd" stroke="none"/>
      <path d="M7.3 21.45 Q5.75 12.2 0.0 7.1 3.35 2.05 6.5 0.8 9.8 -0.75 13.85 0.8 16.3 1.6 18.25 3.85 L19.05 4.85 19.25 5.1 21.2 7.85 Q21.75 8.55 21.6 9.5 L21.2 10.45 21.25 10.95 22.05 11.8 Q22.6 12.4 22.55 13.2 L22.55 13.4 21.9 14.65 21.75 14.8 21.25 15.1 21.1 15.15 21.0 15.15 21.0 15.25 21.0 15.3 21.45 15.75 21.6 15.95 Q22.0 16.45 21.95 17.15 21.9 18.05 21.3 18.6 L20.45 19.1 19.85 19.15 19.8 19.15 Q20.2 19.7 20.15 20.4 20.1 21.3 19.5 21.85 18.85 22.45 18.05 22.4 L17.35 22.25 17.4 22.9 Q17.35 23.8 16.75 24.35 16.1 24.95 15.3 24.9 14.45 24.85 13.85 24.25 L13.5 23.9 Q13.45 24.65 12.9 25.2 12.3 25.8 11.45 25.8 10.6 25.8 10.0 25.2 9.5 24.7 9.45 24.05 L7.6 23.6 7.3 21.45 Z" ffdec:has-small-stroke="true" ffdec:original-stroke-width="0.75" fill="none" stroke="#625055" stroke-linecap="round" stroke-linejoin="round" stroke-width="1.0"/>
    </g>
    <g id="sprite6">
      <use ffdec:characterId="3" height="17.35" transform="matrix(1.0, 0.0, 0.0, 1.0, 0.0, 0.0)" width="13.9" xlink:href="#shape3"/>
    </g>
    <g id="shape3">
      <path d="M4.65 15.15 Q3.6 9.4 0.0 6.15 2.15 2.9 4.15 2.1 6.3 1.1 8.9 2.1 10.5 2.6 11.75 4.05 L11.8 4.1 Q12.5 5.7 12.5 7.6 12.5 10.75 10.55 13.0 8.55 15.25 5.8 15.25 L4.65 15.15" fill="#ffe8d3" fill-rule="evenodd" stroke="none"/>
      <path d="M11.8 4.1 Q13.7 6.35 13.7 9.5 13.7 12.65 11.75 14.9 9.75 17.15 7.0 17.15 L4.9 16.8 4.65 15.15 5.8 15.25 Q8.55 15.25 10.55 13.0 12.5 10.75 12.5 7.6 12.5 5.7 11.8 4.1" fill="#f7d2b1" fill-rule="evenodd" stroke="none"/>
      <path d="M4.65 15.15 Q3.6 9.4 0.0 6.15 2.15 2.9 4.15 2.1 6.3 1.1 8.9 2.1 10.5 2.6 11.75 4.05 L11.8 4.1 Q13.7 6.35 13.7 9.5 13.7 12.65 11.75 14.9 9.75 17.15 7.0 17.15 L4.9 16.8 4.65 15.15 Z" ffdec:has-small-stroke="true" ffdec:original-stroke-width="0.2" fill="none" stroke="#dec2a9" stroke-linecap="round" stroke-linejoin="round" stroke-width="1.0"/>
      <path d="M0.15 6.05 Q0.25 5.4 0.7 4.5 1.55 2.8 3.25 1.5 4.95 0.2 6.45 0.0 7.5 -0.1 8.05 0.3 9.0 0.85 8.8 2.1 L8.8 2.25 Q8.6 3.35 7.35 5.35 6.05 5.35 4.6 5.9 L4.2 6.05 0.15 6.05" fill="#ffe8d3" fill-rule="evenodd" stroke="none"/>
      <path d="M8.8 2.25 L8.8 2.1 Q9.0 0.85 8.05 0.3 7.5 -0.1 6.45 0.0 4.95 0.2 3.25 1.5 1.55 2.8 0.7 4.5 0.25 5.4 0.15 6.05" ffdec:has-small-stroke="true" ffdec:original-stroke-width="0.2" fill="none" stroke="#dec2a9" stroke-linecap="round" stroke-linejoin="round" stroke-width="1.0"/>
    </g>
    <g id="sprite7">
      <use ffdec:characterId="5" height="37.65" transform="matrix(1.0, 0.0, 0.0, 1.0, 0.0, 0.0)" width="45.9" xlink:href="#shape4"/>
    </g>
    <g id="shape4">
      <path d="M45.25 26.65 L45.05 27.8 Q44.05 31.5 38.3 34.2 31.7 37.15 22.7 37.15 13.65 37.15 7.1 34.2 1.35 31.5 0.3 27.8 L0.15 26.65 0.15 26.35 0.05 25.2 Q-0.65 15.2 5.85 7.75 12.6 0.0 22.7 0.0 32.75 0.0 39.55 7.75 46.0 15.2 45.35 25.2 L45.25 26.2 45.25 26.65" fill="#b9adb1" fill-rule="evenodd" stroke="none"/>
      <path d="M45.25 26.65 L45.25 26.2 45.35 25.2 Q46.0 15.2 39.55 7.75 32.75 0.0 22.7 0.0 12.6 0.0 5.85 7.75 -0.65 15.2 0.05 25.2 L0.15 26.35 0.15 26.65 0.3 27.8 Q1.35 31.5 7.1 34.2 13.65 37.15 22.7 37.15 31.7 37.15 38.3 34.2 44.05 31.5 45.05 27.8 L45.25 26.65 Z" ffdec:has-small-stroke="true" ffdec:original-stroke-width="0.5" fill="none" stroke="#625055" stroke-linecap="round" stroke-linejoin="round" stroke-width="1.0"/>
      <path d="M44.5 23.35 L44.4 24.4 Q43.7 27.95 38.15 30.55 31.7 33.5 22.7 33.5 13.65 33.5 7.25 30.55 1.7 27.95 0.95 24.4 L0.85 23.35 0.9 23.05 0.85 22.0 Q0.85 13.0 7.25 6.55 13.65 0.2 22.7 0.2 31.7 0.2 38.15 6.55 44.5 13.0 44.5 22.0 L44.5 22.95 44.5 23.35" fill="#d1ced1" fill-rule="evenodd" stroke="none"/>
    </g>
    <g id="sprite8">
      <use ffdec:characterId="7" height="2.3" transform="matrix(1.0, 0.0, 0.0, 1.0, 0.0, 0.0)" width="5.0" xlink:href="#shape5"/>
    </g>
    <g id="shape5">
      <path d="M3.65 -0.45 L3.65 1.35 M-0.85 -0.45 L-0.85 1.35 M1.35 -0.45 L1.35 1.35" ffdec:has-small-stroke="true" ffdec:original-stroke-width="0.5" fill="none" stroke="#948794" stroke-linecap="round" stroke-linejoin="round" stroke-width="1.0"/>
    </g>
    <g id="sprite9">
      <use ffdec:characterId="7" height="2.3" transform="matrix(1.0, 0.0, 0.0, 1.0, 0.0, 0.0)" width="5.0" xlink:href="#shape6"/>
    </g>
    <g id="shape6">
      <path d="M3.65 -0.45 L3.65 1.35 M-0.85 -0.45 L-0.85 1.35 M1.35 -0.45 L1.35 1.35" ffdec:has-small-stroke="true" ffdec:original-stroke-width="0.5" fill="none" stroke="#948794" stroke-linecap="round" stroke-linejoin="round" stroke-width="1.0"/>
    </g>
    <g id="sprite10">
      <use ffdec:characterId="9" height="1.5" transform="matrix(1.0, 0.0, 0.0, 1.0, 0.0, 0.0)" width="2.5" xlink:href="#shape7"/>
      <use ffdec:characterId="11" height="3.1" transform="matrix(1.0, 0.0, 0.0, 1.0, 0.0, 0.0)" width="3.1" xlink:href="#sprite11"/>
      <use ffdec:characterId="11" height="3.1" transform="matrix(1.0, 0.0, 0.0, 1.0, 17.9, 0.0)" width="3.1" xlink:href="#sprite12"/>
      <use ffdec:characterId="13" height="11.4" transform="matrix(1.1721, 0.0, 0.0, 1.1721, 4.4, -0.5)" width="10.45" xlink:href="#sprite13"/>
    </g>
    <g id="shape7">
      <path d="M11.75 12.95 L11.4 13.5 10.5 13.7 9.6 13.5 Q9.25 13.25 9.25 12.95 9.25 12.6 9.6 12.4 L10.5 12.2 11.4 12.4 Q11.75 12.6 11.75 12.95" fill="#e9c1c1" fill-rule="evenodd" stroke="none"/>
    </g>
    <g id="sprite11">
      <use ffdec:characterId="10" height="3.1" transform="matrix(1.0, 0.0, 0.0, 1.0, 0.0, 0.0)" width="3.1" xlink:href="#shape8"/>
    </g>
    <g id="shape8">
      <path d="M3.0 1.5 Q3.0 2.1 2.55 2.55 L1.5 3.0 Q0.9 3.0 0.45 2.55 0.0 2.1 0.0 1.5 0.0 0.9 0.45 0.45 0.9 0.0 1.5 0.0 2.1 0.0 2.55 0.45 3.0 0.9 3.0 1.5" fill="#605358" fill-rule="evenodd" stroke="none"/>
      <path d="M3.0 1.5 Q3.0 2.1 2.55 2.55 L1.5 3.0 Q0.9 3.0 0.45 2.55 0.0 2.1 0.0 1.5 0.0 0.9 0.45 0.45 0.9 0.0 1.5 0.0 2.1 0.0 2.55 0.45 3.0 0.9 3.0 1.5 Z" ffdec:has-small-stroke="true" ffdec:original-stroke-width="0.1" fill="none" stroke="#41383b" stroke-linecap="round" stroke-linejoin="round" stroke-width="1.0"/>
    </g>
    <g id="sprite12">
      <use ffdec:characterId="10" height="3.1" transform="matrix(1.0, 0.0, 0.0, 1.0, 0.0, 0.0)" width="3.1" xlink:href="#shape9"/>
    </g>
    <g id="shape9">
      <path d="M3.0 1.5 Q3.0 2.1 2.55 2.55 L1.5 3.0 Q0.9 3.0 0.45 2.55 0.0 2.1 0.0 1.5 0.0 0.9 0.45 0.45 0.9 0.0 1.5 0.0 2.1 0.0 2.55 0.45 3.0 0.9 3.0 1.5" fill="#605358" fill-rule="evenodd" stroke="none"/>
      <path d="M3.0 1.5 Q3.0 2.1 2.55 2.55 L1.5 3.0 Q0.9 3.0 0.45 2.55 0.0 2.1 0.0 1.5 0.0 0.9 0.45 0.45 0.9 0.0 1.5 0.0 2.1 0.0 2.55 0.45 3.0 0.9 3.0 1.5 Z" ffdec:has-small-stroke="true" ffdec:original-stroke-width="0.1" fill="none" stroke="#41383b" stroke-linecap="round" stroke-linejoin="round" stroke-width="1.0"/>
    </g>
    <g id="sprite13">
      <use ffdec:characterId="12" height="11.4" transform="matrix(1.0, 0.0, 0.0, 1.0, 0.0, 0.0)" width="10.45" xlink:href="#shape10"/>
    </g>
    <g id="shape10">
      <path d="M9.05 2.5 Q9.95 4.0 10.3 5.85 10.65 8.05 10.3 9.75 L8.95 10.7 Q7.3 11.35 5.3 11.4 3.15 11.35 1.65 10.7 L0.3 9.7 Q-0.25 8.0 0.3 5.6 0.65 3.9 1.55 2.5 3.0 -0.1 5.3 0.0 7.5 -0.1 9.05 2.5" fill="#644d56" fill-rule="evenodd" stroke="none"/>
      <path d="M6.8 11.25 Q6.8 10.1 7.3 9.3 7.85 8.5 8.6 8.5 9.35 8.5 9.85 9.3 L10.1 9.7 Q9.8 10.9 6.8 11.25" fill="#1d191a" fill-rule="evenodd" stroke="none"/>
      <path d="M3.8 11.25 Q3.8 10.1 3.3 9.3 2.75 8.5 2.0 8.5 1.25 8.5 0.75 9.3 L0.5 9.7 Q0.8 10.9 3.8 11.25" fill="#1d191a" fill-rule="evenodd" stroke="none"/>
      <path d="M2.85 2.9 L3.6 1.85 Q4.5 1.2 4.65 2.15 L4.0 3.1 Q3.15 4.4 2.9 5.95 L1.7 5.95 Q1.95 4.25 2.85 2.9" fill="#b0b0b0" fill-rule="evenodd" stroke="none"/>
      <path d="M2.8 7.35 L2.6 7.95 2.0 8.15 Q1.65 8.15 1.45 7.95 L1.2 7.35 Q1.2 7.0 1.45 6.8 1.65 6.55 2.0 6.55 2.35 6.55 2.6 6.8 L2.8 7.35" fill="#b0b0b0" fill-rule="evenodd" stroke="none"/>
    </g>
  </defs>
</svg>
