<?xml version="1.0" encoding="UTF-8" standalone="no"?>
<svg xmlns:ffdec="https://www.free-decompiler.com/flash" xmlns:xlink="http://www.w3.org/1999/xlink" ffdec:objectType="frame" height="70.0px" width="60.45px" xmlns="http://www.w3.org/2000/svg">
  <g transform="matrix(1.0, 0.0, 0.0, 1.0, 28.75, 55.1)">
    <use ffdec:characterId="33" height="46.4" transform="matrix(1.0, 0.0, 0.0, 1.0, -28.65, -31.4)" width="57.8" xlink:href="#sprite0"/>
    <use ffdec:characterId="23" height="37.3" transform="matrix(1.0, 0.0, 0.0, 1.0, -10.75, -48.6)" width="56.8" xlink:href="#sprite7"/>
  </g>
  <defs>
    <g id="sprite0">
      <use ffdec:characterId="26" height="7.35" transform="matrix(1.0, 0.0, 0.0, 1.0, 0.0, 0.0)" width="4.0" xlink:href="#shape0"/>
      <use ffdec:characterId="28" height="31.15" transform="matrix(1.0, 0.0, 0.0, 1.0, 4.9, 7.3)" width="49.4" xlink:href="#sprite1"/>
      <use ffdec:characterId="2" height="9.1" transform="matrix(-1.0, 0.0, 0.0, 1.0, 57.6, 19.5)" width="4.85" xlink:href="#sprite2"/>
      <use ffdec:characterId="2" height="9.1" transform="matrix(1.0, 0.0, 0.0, 1.0, 0.0, 19.5)" width="4.85" xlink:href="#sprite3"/>
      <use ffdec:characterId="30" height="46.4" transform="matrix(1.0, 0.0, 0.0, 1.0, 3.15, 0.0)" width="51.4" xlink:href="#sprite4"/>
      <use ffdec:characterId="32" height="34.95" transform="matrix(1.0, 0.0, 0.0, 1.0, 3.15, 11.1)" width="51.25" xlink:href="#sprite6"/>
    </g>
    <g id="shape0">
      <path d="M44.65 20.55 L43.3 17.9 43.2 17.5 Q43.2 16.85 43.4 16.65 L43.6 16.45 43.6 16.3 43.75 15.7 44.15 15.3 44.6 15.45 44.95 15.9 45.45 16.85 45.55 16.95 46.8 20.3 47.2 21.85 Q47.2 22.4 47.0 22.55 46.75 22.75 46.35 22.55 L46.1 22.3 45.9 22.15 45.65 21.75 45.35 20.8 45.1 20.8 Q44.8 20.8 44.65 20.55" fill="#fac187" fill-rule="evenodd" stroke="none"/>
    </g>
    <g id="sprite1">
      <use ffdec:characterId="27" height="31.15" transform="matrix(1.0, 0.0, 0.0, 1.0, 0.0, 0.0)" width="49.4" xlink:href="#shape1"/>
    </g>
    <g id="shape1">
      <path d="M13.35 15.65 L12.45 15.95 12.45 15.2 12.8 14.95 Q13.3 10.6 12.2 6.4 9.4 11.1 7.9 16.2 L7.1 16.05 5.95 12.55 Q5.55 16.95 7.45 20.95 L6.7 21.6 3.9 20.45 Q4.2 25.15 7.15 28.8 6.75 29.25 6.1 29.1 L5.7 29.0 5.3 28.7 4.6 28.2 6.35 31.15 Q0.45 28.3 0.05 21.85 -0.35 14.9 4.35 9.6 13.55 -0.75 27.4 0.05 43.7 0.65 48.7 15.75 50.6 21.45 47.45 26.0 46.3 27.55 44.7 28.35 L40.75 27.45 Q42.7 25.85 43.35 23.4 L41.35 24.35 40.85 23.95 Q43.05 16.55 40.35 9.3 L36.8 17.65 36.05 17.95 Q36.35 12.6 32.8 8.45 32.6 10.95 30.85 12.8 L28.2 14.95 27.8 14.4 Q29.05 13.05 28.55 11.2 L28.3 9.95 Q24.35 16.1 17.0 17.35 18.75 16.0 19.0 13.85 19.35 10.85 19.05 7.7 18.4 10.5 16.55 12.6 L13.35 15.65" fill="#212020" fill-rule="evenodd" stroke="none"/>
    </g>
    <g id="sprite2">
      <use ffdec:characterId="1" height="9.1" transform="matrix(1.0, 0.0, 0.0, 1.0, 0.0, 0.0)" width="4.85" xlink:href="#shape2"/>
    </g>
    <g id="shape2">
      <path d="M1.6 0.0 L3.3 0.0 3.4 0.0 3.5 0.0 Q3.9 0.05 4.3 1.3 4.65 2.6 4.65 4.45 4.65 6.25 4.3 7.6 3.95 8.8 3.5 8.9 L3.4 8.9 3.3 8.9 1.6 8.9 Q2.0 8.8 2.3 7.6 L2.6 4.45 2.3 1.3 Q2.0 0.05 1.6 0.0" fill="#aba796" fill-rule="evenodd" stroke="none"/>
      <path d="M1.6 8.9 L1.4 8.9 1.3 8.9 1.2 8.9 Q0.7 8.75 0.35 7.6 0.0 6.25 0.0 4.45 0.0 2.6 0.35 1.3 0.65 0.25 1.1 0.0 L1.2 0.0 1.3 0.0 1.4 0.0 1.6 0.0 Q2.0 0.05 2.3 1.3 L2.6 4.45 2.3 7.6 Q2.0 8.8 1.6 8.9" fill="#eeeeee" fill-rule="evenodd" stroke="none"/>
      <path d="M1.4 0.0 L3.4 0.0 3.5 0.0 Q3.9 0.05 4.3 1.3 4.65 2.6 4.65 4.45 4.65 6.25 4.3 7.6 3.95 8.8 3.5 8.9 L3.4 8.9 1.4 8.9 1.3 8.9 1.2 8.9 Q0.7 8.75 0.35 7.6 0.0 6.25 0.0 4.45 0.0 2.6 0.35 1.3 0.65 0.25 1.3 0.0 L1.4 0.0 Z" ffdec:has-small-stroke="true" ffdec:original-stroke-width="0.25" fill="none" stroke="#000000" stroke-linecap="round" stroke-linejoin="round" stroke-width="1.0"/>
    </g>
    <g id="sprite3">
      <use ffdec:characterId="1" height="9.1" transform="matrix(1.0, 0.0, 0.0, 1.0, 0.0, 0.0)" width="4.85" xlink:href="#shape3"/>
    </g>
    <g id="shape3">
      <path d="M1.6 0.0 L3.3 0.0 3.4 0.0 3.5 0.0 Q3.9 0.05 4.3 1.3 4.65 2.6 4.65 4.45 4.65 6.25 4.3 7.6 3.95 8.8 3.5 8.9 L3.4 8.9 3.3 8.9 1.6 8.9 Q2.0 8.8 2.3 7.6 L2.6 4.45 2.3 1.3 Q2.0 0.05 1.6 0.0" fill="#aba796" fill-rule="evenodd" stroke="none"/>
      <path d="M1.6 8.9 L1.4 8.9 1.3 8.9 1.2 8.9 Q0.7 8.75 0.35 7.6 0.0 6.25 0.0 4.45 0.0 2.6 0.35 1.3 0.65 0.25 1.1 0.0 L1.2 0.0 1.3 0.0 1.4 0.0 1.6 0.0 Q2.0 0.05 2.3 1.3 L2.6 4.45 2.3 7.6 Q2.0 8.8 1.6 8.9" fill="#eeeeee" fill-rule="evenodd" stroke="none"/>
      <path d="M1.4 0.0 L3.4 0.0 3.5 0.0 Q3.9 0.05 4.3 1.3 4.65 2.6 4.65 4.45 4.65 6.25 4.3 7.6 3.95 8.8 3.5 8.9 L3.4 8.9 1.4 8.9 1.3 8.9 1.2 8.9 Q0.7 8.75 0.35 7.6 0.0 6.25 0.0 4.45 0.0 2.6 0.35 1.3 0.65 0.25 1.3 0.0 L1.4 0.0 Z" ffdec:has-small-stroke="true" ffdec:original-stroke-width="0.25" fill="none" stroke="#000000" stroke-linecap="round" stroke-linejoin="round" stroke-width="1.0"/>
    </g>
    <g id="sprite4">
      <use ffdec:characterId="29" height="46.4" transform="matrix(1.0, 0.0, 0.0, 1.0, 0.0, 0.0)" width="51.4" xlink:href="#shape4"/>
      <use ffdec:characterId="5" height="5.95" transform="matrix(1.5424, -0.1595, 0.0, 1.1853, 8.05, 2.95)" width="8.55" xlink:href="#sprite5"/>
    </g>
    <g id="shape4">
      <path d="M0.05 23.9 L0.15 15.35 Q0.7 12.25 2.75 9.55 4.55 7.2 7.45 5.2 15.0 0.0 25.6 0.0 L32.1 0.55 Q36.9 1.35 40.9 3.5 L41.65 3.9 Q43.85 9.25 37.65 11.15 L36.95 11.1 36.25 11.15 Q34.05 11.25 32.15 11.9 L30.8 12.4 27.25 13.15 26.8 13.2 24.4 13.2 24.0 13.15 21.0 12.6 20.5 12.4 19.15 11.9 Q17.15 11.25 15.05 11.15 L14.35 11.1 Q11.4 11.1 8.85 12.1 6.3 13.1 4.15 15.1 0.3 18.8 0.05 23.9" fill="#d5d1bf" fill-rule="evenodd" stroke="none"/>
      <path d="M41.65 3.9 L43.75 5.2 Q50.0 9.55 51.25 15.9 L51.25 24.25 Q51.1 18.9 47.0 15.1 43.05 11.35 37.65 11.15 43.85 9.25 41.65 3.9" fill="#b2ae9a" fill-rule="evenodd" stroke="none"/>
      <path d="M51.25 24.25 L51.25 30.45 51.2 30.45 50.9 32.45 Q50.25 34.85 48.65 36.95 L48.2 37.6 Q46.45 39.75 43.5 41.6 41.45 42.85 39.15 43.8 L36.15 44.75 31.7 45.65 Q34.8 45.05 37.5 43.8 39.5 42.85 41.3 41.6 42.8 40.5 43.8 39.15 48.35 33.2 47.1 24.2 45.9 15.75 37.4 11.65 L36.25 11.15 36.95 11.1 37.65 11.15 Q43.05 11.35 47.0 15.1 51.1 18.9 51.25 24.25 M15.05 11.15 L14.7 11.2 Q13.7 11.6 12.75 12.1 L11.75 12.65 Q4.95 16.7 3.9 24.2 2.65 33.2 7.1 39.25 8.25 40.5 9.85 41.6 12.05 43.15 14.55 44.2 17.0 45.15 19.75 45.7 L17.2 45.3 16.4 45.1 13.05 44.2 Q10.2 43.15 7.7 41.6 4.75 39.75 3.05 37.6 L2.5 36.95 Q1.0 34.95 0.4 32.55 0.05 31.25 0.0 29.8 L0.05 23.9 Q0.3 18.8 4.15 15.1 6.3 13.1 8.85 12.1 11.4 11.1 14.35 11.1 L15.05 11.15" fill="#000000" fill-rule="evenodd" stroke="none"/>
      <path d="M51.25 30.45 L51.25 30.5 50.9 32.45 51.2 30.45 51.25 30.45 M36.15 44.75 L29.9 46.0 31.7 45.65 36.15 44.75 M19.75 45.7 L22.55 46.1 17.2 45.3 19.75 45.7 M0.4 32.55 L0.0 30.7 0.0 30.5 0.0 29.8 Q0.05 31.25 0.4 32.55" fill="#ffffff" fill-rule="evenodd" stroke="none"/>
      <path d="M36.15 44.75 L39.15 43.8 Q41.45 42.85 43.5 41.6 46.45 39.75 48.2 37.6 L48.65 36.95 Q50.25 34.85 50.9 32.45 L51.25 30.5 51.25 30.45 51.25 29.65 51.25 24.25 Q51.1 18.9 47.0 15.1 42.8 11.1 36.95 11.1 L36.25 11.15 Q34.05 11.25 32.15 11.9 L30.8 12.4 27.45 13.15 27.25 13.15 26.8 13.2 24.4 13.2 24.0 13.15 21.45 12.7 20.5 12.4 19.15 11.9 Q17.15 11.25 15.05 11.15 L14.35 11.1 Q11.4 11.1 8.85 12.1 6.3 13.1 4.15 15.1 0.3 18.8 0.05 23.9 L0.0 24.65 0.0 24.9 0.0 30.5 0.0 30.7 0.4 32.55 Q1.0 34.95 2.5 36.95 L3.05 37.6 Q4.75 39.75 7.7 41.6 10.2 43.15 13.05 44.2 L16.4 45.1 17.2 45.3 19.75 45.7 25.55 46.05 31.7 45.65 36.15 44.75 29.9 46.0 28.85 46.05 25.5 46.2 22.55 46.1 17.2 45.3" ffdec:has-small-stroke="true" ffdec:original-stroke-width="0.1" fill="none" stroke="#595749" stroke-linecap="round" stroke-linejoin="round" stroke-width="1.0"/>
      <path d="M17.2 45.3 L16.4 45.1 13.05 44.2 Q10.2 43.15 7.7 41.6 4.75 39.75 3.05 37.6 L2.5 36.95 Q1.0 34.95 0.4 32.55 L0.05 30.8 0.05 15.7 Q0.7 12.25 2.75 9.55 4.55 7.2 7.45 5.2 15.0 0.0 25.6 0.0 34.3 0.0 40.9 3.5 42.4 4.25 43.75 5.2 50.0 9.55 51.25 15.9 L51.25 29.65 51.25 30.45 51.25 30.5 50.9 32.45 Q50.25 34.85 48.65 36.95 L48.2 37.6 Q46.45 39.75 43.5 41.6 41.45 42.85 39.15 43.8 L36.15 44.75 29.9 46.0 28.85 46.05 25.5 46.2 22.55 46.1 17.2 45.3 19.75 45.7 25.55 46.05 31.7 45.65 36.15 44.75" ffdec:has-small-stroke="true" ffdec:original-stroke-width="0.25" fill="none" stroke="#000000" stroke-linecap="round" stroke-linejoin="round" stroke-width="1.0"/>
    </g>
    <g id="sprite5">
      <use ffdec:characterId="4" height="5.95" transform="matrix(1.0, 0.0, 0.0, 1.0, 0.0, 0.0)" width="8.55" xlink:href="#shape5"/>
    </g>
    <g id="shape5">
      <path d="M8.45 1.55 Q8.8 2.65 7.8 3.8 6.8 4.95 5.05 5.55 L1.85 5.8 Q0.4 5.45 0.05 4.35 -0.25 3.3 0.7 2.15 1.75 1.0 3.5 0.4 L6.7 0.15 Q8.15 0.5 8.45 1.55" fill="#ffffff" fill-rule="evenodd" stroke="none"/>
    </g>
    <g id="sprite6">
      <use ffdec:characterId="31" height="34.95" transform="matrix(1.0, 0.0, 0.0, 1.0, 0.0, 0.0)" width="51.25" xlink:href="#shape6"/>
    </g>
    <g id="shape6">
      <path d="M0.0 18.2 L0.0 13.8 0.0 13.55 0.05 12.8 Q0.3 7.7 4.15 4.0 6.3 2.0 8.85 1.0 11.4 0.0 14.35 0.0 L15.05 0.05 Q17.15 0.15 19.15 0.8 L20.5 1.3 21.45 1.6 24.0 2.05 24.4 2.1 26.8 2.1 27.25 2.05 27.45 2.05 27.6 2.05 30.8 1.3 32.15 0.8 Q34.05 0.15 36.25 0.05 L36.95 0.0 Q42.8 0.0 47.0 4.0 L48.8 6.0 Q51.15 9.15 51.25 13.15 L51.25 18.1 50.9 19.0 Q50.25 20.15 48.65 21.1 L48.2 21.45 Q46.45 22.45 43.5 23.3 L39.15 24.3 36.15 24.75 31.7 25.2 26.25 25.4 25.55 25.4 19.75 25.2 17.2 25.05 16.4 24.95 13.05 24.5 7.7 23.3 7.35 23.2 Q4.65 22.35 3.05 21.45 L2.5 21.1 Q1.0 20.2 0.4 19.05 L0.0 18.2" fill="#21347d" fill-opacity="0.8" fill-rule="evenodd" stroke="none"/>
      <path d="M0.0 18.2 L0.4 19.05 Q1.0 20.2 2.5 21.1 L3.05 21.45 Q4.65 22.35 7.35 23.2 L7.7 23.3 13.05 24.5 16.4 24.95 17.2 25.05 19.75 25.2 25.55 25.4 26.25 25.4 31.7 25.2 36.15 24.75 39.15 24.3 43.5 23.3 Q46.45 22.45 48.2 21.45 L48.65 21.1 Q50.25 20.15 50.9 19.0 L51.25 18.1 51.25 18.55 51.25 19.35 51.25 19.4 50.9 21.35 Q50.25 23.75 48.65 25.85 L48.2 26.5 Q46.45 28.65 43.5 30.5 41.45 31.75 39.15 32.7 L36.15 33.65 31.7 34.55 26.25 34.95 25.55 34.95 19.75 34.6 17.2 34.2 16.4 34.0 13.05 33.1 Q10.2 32.05 7.7 30.5 L7.35 30.3 Q4.65 28.5 3.05 26.5 L2.5 25.85 Q1.0 23.85 0.4 21.45 L0.0 19.6 0.0 19.4 0.0 18.2" fill="#667a9e" fill-opacity="0.8" fill-rule="evenodd" stroke="none"/>
      <path d="M15.6 5.85 Q16.1 6.95 15.2 8.25 14.4 9.5 12.75 10.1 L9.65 10.4 Q8.2 10.05 7.7 8.9 7.3 7.75 8.1 6.5 8.95 5.25 10.6 4.6 12.2 3.95 13.7 4.3 15.2 4.65 15.6 5.85" fill="#ffffff" fill-opacity="0.9764706" fill-rule="evenodd" stroke="none"/>
      <path d="M48.1 25.5 Q43.6 31.25 34.0 33.3 L28.5 34.0 Q40.3 31.05 48.1 25.5" fill="#ffffff" fill-opacity="0.9764706" fill-rule="evenodd" stroke="none"/>
    </g>
    <g id="sprite7">
      <use ffdec:characterId="10" height="19.4" transform="matrix(1.0, 0.0, 0.0, 1.0, 0.0, 0.0)" width="7.4" xlink:href="#shape7"/>
      <filter color-interpolation-filters="sRGB" height="300%" id="filter0" width="300%" x="-100%" y="-100%">
        <feOffset dx="0.0" dy="0.0" in="SourceGraphic" result="filterResult0"/>
        <feFlood flood-color="#58d8ff" flood-opacity="1.0" result="filterResult1"/>
        <feComposite in="filterResult1" in2="filterResult0" operator="out" result="filterResult2"/>
        <feGaussianBlur in="filterResult2" result="filterResult3" stdDeviation="0.3227486121839514 0.3227486121839514"/>
        <feColorMatrix in="filterResult3" result="filterResult4" type="matrix" values="1 0 0 0 0,0 1 0 0 0,0 0 1 0 0,0 0 0 4.0 0"/>
        <feComposite in="filterResult4" in2="SourceGraphic" operator="atop" result="filterResult5"/>
      </filter>
      <use ffdec:characterId="12" filter="url(#filter0)" height="20.05" transform="matrix(1.0, 0.0, 0.0, 1.0, -1.5, -7.05)" width="29.75" xlink:href="#sprite8"/>
      <filter color-interpolation-filters="sRGB" height="300%" id="filter1" width="300%" x="-100%" y="-100%">
        <feOffset dx="0.0" dy="0.0" in="SourceGraphic" result="filterResult6"/>
        <feFlood flood-color="#58d8ff" flood-opacity="1.0" result="filterResult7"/>
        <feComposite in="filterResult7" in2="filterResult6" operator="out" result="filterResult8"/>
        <feGaussianBlur in="filterResult8" result="filterResult9" stdDeviation="0.3227486121839514 0.3227486121839514"/>
        <feColorMatrix in="filterResult9" result="filterResult10" type="matrix" values="1 0 0 0 0,0 1 0 0 0,0 0 1 0 0,0 0 0 4.0 0"/>
        <feComposite in="filterResult10" in2="SourceGraphic" operator="atop" result="filterResult11"/>
        <feOffset dx="0.0" dy="0.0" in="filterResult11" result="filterResult12"/>
        <feColorMatrix in="filterResult12" result="filterResult13" type="matrix" values="0 0 0 0 0.0,0 0 0 0 0.0,0 0 0 0 1.0,0 0 0 1.0 0"/>
        <feGaussianBlur in="filterResult13" result="filterResult14" stdDeviation="1.118033988749895 1.118033988749895"/>
        <feComposite in="filterResult11" in2="filterResult14" operator="over" result="filterResult15"/>
      </filter>
      <use ffdec:characterId="14" filter="url(#filter1)" height="17.35" transform="matrix(-1.0, 0.0, 0.0, 1.0, 16.6, -19.65)" width="27.7" xlink:href="#sprite9"/>
    </g>
    <g id="shape7">
      <path d="M7.35 16.85 L7.35 16.55 Q7.45 16.15 8.4 15.85 L10.9 15.6 13.35 15.85 Q14.15 16.15 14.35 16.45 L14.35 16.5 13.45 15.95 10.95 15.65 8.4 15.95 Q7.55 16.2 7.4 16.6 L7.4 16.95 7.4 16.6 Q7.55 16.2 8.4 15.95 L10.95 15.65 13.45 15.95 14.35 16.5 14.35 16.85 Q14.3 17.2 13.35 17.4 L10.9 17.7 8.4 17.4 Q7.6 17.25 7.4 16.95 L7.35 16.85" fill="#e8e8f5" fill-rule="evenodd" stroke="none"/>
      <path d="M14.45 16.95 L14.45 18.4 14.4 18.5 13.45 19.0 12.6 19.2 12.55 19.2 12.2 19.25 10.9 19.3 8.4 19.0 Q7.65 18.75 7.4 18.5 L7.35 18.35 7.35 16.85 7.4 16.95 Q7.6 17.25 8.4 17.4 L10.9 17.7 13.35 17.4 Q14.3 17.2 14.35 16.85 L14.45 16.95 M7.4 18.5 L7.4 18.4 7.4 16.95 7.4 18.4 7.4 18.5" fill="#8e8c88" fill-rule="evenodd" stroke="none"/>
      <path d="M14.35 16.5 L14.45 16.65 14.45 16.95 14.45 18.4 M7.4 16.95 L7.4 16.6 Q7.55 16.2 8.4 15.95 L10.95 15.65 13.45 15.95 14.35 16.5 M7.4 16.95 L7.4 18.4 7.4 18.5" ffdec:has-small-stroke="true" ffdec:original-stroke-width="0.15" fill="none" stroke="#494949" stroke-linecap="round" stroke-linejoin="round" stroke-width="1.0"/>
      <path d="M14.45 18.4 L14.4 18.5 13.45 19.0 12.6 19.2 12.55 19.2 12.2 19.25 10.9 19.3 8.4 19.0 Q7.65 18.75 7.4 18.5" ffdec:has-small-stroke="true" ffdec:original-stroke-width="0.15" fill="none" stroke="#7a7a7a" stroke-linecap="round" stroke-linejoin="round" stroke-width="1.0"/>
      <path d="M10.9 16.4 L10.9 5.6" fill="none" stroke="#000000" stroke-linecap="round" stroke-linejoin="round" stroke-width="1.0"/>
      <path d="M9.5 0.25 L10.85 0.0 12.25 0.25 13.1 0.9 Q14.0 1.8 14.0 3.15 14.0 4.5 13.1 5.45 12.15 6.35 10.85 6.35 9.55 6.35 8.65 5.45 7.7 4.5 7.7 3.15 7.7 1.8 8.65 0.9 9.0 0.5 9.5 0.25" fill="#a7a28a" fill-rule="evenodd" stroke="none"/>
      <path d="M12.25 0.25 L13.4 1.05 Q14.5 2.15 14.5 3.65 14.5 5.1 13.4 6.2 12.35 7.3 10.85 7.3 9.35 7.3 8.3 6.2 7.2 5.1 7.2 3.65 7.2 2.15 8.3 1.05 8.85 0.5 9.5 0.25 9.0 0.5 8.65 0.9 7.7 1.8 7.7 3.15 7.7 4.5 8.65 5.45 9.55 6.35 10.85 6.35 12.15 6.35 13.1 5.45 14.0 4.5 14.0 3.15 14.0 1.8 13.1 0.9 L12.25 0.25" fill="#efebdc" fill-rule="evenodd" stroke="none"/>
      <path d="M12.25 0.25 L13.4 1.05 Q14.5 2.15 14.5 3.65 14.5 5.1 13.4 6.2 12.35 7.3 10.85 7.3 9.35 7.3 8.3 6.2 7.2 5.1 7.2 3.65 7.2 2.15 8.3 1.05 8.85 0.5 9.5 0.25 L10.85 0.0 12.25 0.25 Z" ffdec:has-small-stroke="true" ffdec:original-stroke-width="0.15" fill="none" stroke="#212020" stroke-linecap="round" stroke-linejoin="round" stroke-width="1.0"/>
      <path d="M10.85 3.55 Q10.05 3.55 9.5 3.1 8.95 2.6 8.95 2.0 8.95 1.35 9.5 0.9 10.05 0.4 10.85 0.4 11.6 0.4 12.1 0.9 12.7 1.35 12.7 2.0 12.7 2.6 12.1 3.1 11.6 3.55 10.85 3.55" fill="#ffffff" fill-rule="evenodd" stroke="none"/>
    </g>
    <g id="sprite8">
      <use ffdec:characterId="11" height="20.05" transform="matrix(1.0, 0.0, 0.0, 1.0, 0.0, 0.0)" width="29.75" xlink:href="#shape8"/>
    </g>
    <g id="shape8">
      <path d="M23.5 20.55 L23.55 20.45 23.55 20.4 23.55 20.35 23.5 20.3 23.4 20.3 13.55 21.15 17.1 16.5 17.1 16.45 17.05 16.35 17.0 16.35 7.2 18.0 19.15 13.95 15.85 19.75 15.85 19.85 15.9 19.85 15.9 19.9 16.0 19.9 29.25 16.35 17.05 28.65 23.5 20.55 M2.35 13.35 L2.45 13.45 5.2 13.45 -0.5 14.9 6.4 8.6 2.4 13.3 2.35 13.35" fill="#ffffff" fill-rule="evenodd" stroke="none"/>
    </g>
    <g id="sprite9">
      <use ffdec:characterId="13" height="17.35" transform="matrix(1.0, 0.0, 0.0, 1.0, 0.0, 0.0)" width="27.7" xlink:href="#shape9"/>
    </g>
    <g id="shape9">
      <path d="M29.45 16.75 L29.4 16.9 15.4 30.5 22.7 20.85 12.8 22.05 12.6 22.0 12.5 21.85 12.55 21.65 16.1 17.1 1.75 19.95 19.85 13.15 20.05 13.15 20.15 13.25 20.2 13.4 20.15 13.55 16.7 19.2 29.15 16.45 29.3 16.45 29.35 16.5 29.45 16.6 29.4 16.6 29.45 16.75" fill="#ffffff" fill-rule="evenodd" stroke="none"/>
    </g>
  </defs>
</svg>
