<?xml version="1.0" encoding="UTF-8" standalone="no"?>
<svg xmlns:ffdec="https://www.free-decompiler.com/flash" xmlns:xlink="http://www.w3.org/1999/xlink" ffdec:objectType="frame" height="61.15px" width="70.8px" xmlns="http://www.w3.org/2000/svg">
  <g transform="matrix(1.0, 0.0, 0.0, 1.0, 35.5, 46.05)">
    <use ffdec:characterId="32" height="61.15" transform="matrix(1.0, 0.0, 0.0, 1.0, -35.25, -45.9)" width="70.8" xlink:href="#sprite0"/>
  </g>
  <defs>
    <g id="sprite0">
      <use ffdec:characterId="26" height="61.15" transform="matrix(1.0, 0.0, 0.0, 1.0, 0.0, 1.35)" width="36.15" xlink:href="#sprite1"/>
      <use ffdec:characterId="26" height="61.15" transform="matrix(-1.0, 0.0, 0.0, 1.0, 70.3, 1.35)" width="36.15" xlink:href="#sprite2"/>
      <use ffdec:characterId="31" height="19.4" transform="matrix(1.0, 0.0, 0.0, 1.0, 6.6, 16.7)" width="60.4" xlink:href="#sprite3"/>
      <use ffdec:characterId="7" height="13.5" transform="matrix(0.9954, -0.0959, 0.0959, 0.9954, 13.25, 10.8)" width="11.95" xlink:href="#sprite7"/>
      <use ffdec:characterId="22" height="13.1" transform="matrix(1.0, 0.0, 0.0, 1.0, 17.45, 4.35)" width="15.15" xlink:href="#sprite8"/>
      <use ffdec:characterId="22" height="13.1" transform="matrix(-1.0, 0.0, 0.0, 1.0, 53.25, 4.35)" width="15.15" xlink:href="#sprite8"/>
    </g>
    <g id="sprite1">
      <use ffdec:characterId="25" height="61.15" transform="matrix(1.0, 0.0, 0.0, 1.0, 0.0, 0.0)" width="36.15" xlink:href="#shape0"/>
    </g>
    <g id="shape0">
      <path d="M6.5 25.0 Q12.4 13.6 21.25 5.65 27.6 0.0 30.9 -0.2 34.15 -0.45 34.45 -1.0 34.75 -1.55 35.2 -1.25 L35.25 26.85 Q26.45 27.2 19.65 26.85 11.75 26.4 6.5 25.0" fill="#779437" fill-rule="evenodd" stroke="none"/>
      <path d="M6.5 25.0 Q11.75 26.4 19.65 26.85 26.45 27.2 35.25 26.85 L35.35 26.85 35.35 35.15 26.15 35.15 25.75 35.15 Q23.75 35.25 22.05 36.0 20.25 36.75 18.8 38.25 L17.25 40.2 16.5 41.8 16.45 42.0 16.3 42.3 Q15.95 43.25 15.85 44.3 L15.75 44.3 Q13.15 46.85 11.3 47.4 L5.7 47.4 Q2.25 47.3 0.0 44.25 L0.05 43.35 0.15 42.4 0.35 41.25 Q0.6 39.65 1.15 37.9 L1.55 36.6 Q2.8 32.95 4.3 29.6 L6.5 25.0" fill="#3f6a1b" fill-rule="evenodd" stroke="none"/>
      <path d="M15.85 44.3 L15.75 45.75 15.75 46.5 Q15.75 50.85 18.8 53.95 L18.85 54.0 Q21.9 57.05 26.15 57.05 L35.4 57.05 35.4 58.95 35.05 59.4 28.7 59.2 26.7 59.1 26.55 59.1 20.15 58.6 17.6 58.35 16.6 58.25 Q12.25 57.75 9.0 56.6 L8.1 56.25 Q5.2 55.05 3.35 53.25 L1.85 51.4 Q0.35 49.15 0.05 46.15 L0.05 45.75 0.0 44.85 0.0 44.25 Q2.25 47.3 5.7 47.4 L11.3 47.4 Q13.15 46.85 15.75 44.3 L15.85 44.3" fill="#264c07" fill-rule="evenodd" stroke="none"/>
      <path d="M35.2 -1.25 Q27.6 0.0 21.25 5.65 8.2 17.35 1.55 36.6 0.1 40.85 0.0 44.3" ffdec:has-small-stroke="true" ffdec:original-stroke-width="0.5" fill="none" stroke="#144c03" stroke-linecap="round" stroke-linejoin="round" stroke-width="1.0"/>
      <path d="M0.0 44.3 Q-0.3 56.4 16.6 58.25 L26.7 59.1 28.7 59.2 35.05 59.4" ffdec:has-small-stroke="true" ffdec:original-stroke-width="0.5" fill="none" stroke="#082500" stroke-linecap="round" stroke-linejoin="round" stroke-width="1.0"/>
      <path d="M15.85 44.3 Q15.95 43.25 16.3 42.3 L16.45 42.0 16.5 41.8 17.25 40.2 18.8 38.25 Q20.25 36.75 22.05 36.0 23.75 35.25 25.75 35.15 L26.15 35.15 35.35 35.15 35.35 37.4 35.5 37.4 35.5 37.9 35.35 37.9 35.35 37.95 26.05 37.95 Q22.85 37.95 20.6 39.8 18.35 41.6 17.85 44.15 L17.8 44.3 15.85 44.3" fill="#254709" fill-rule="evenodd" stroke="none"/>
      <path d="M15.85 44.3 L17.8 44.3 17.8 47.35 18.15 49.4 Q18.7 51.4 20.35 53.25 L20.45 53.3 Q22.75 55.75 26.05 55.75 L35.55 55.75 35.9 56.75 35.4 56.75 35.4 57.05 26.15 57.05 Q21.9 57.05 18.85 54.0 L18.8 53.95 Q15.75 50.85 15.75 46.5 L15.75 45.75 15.85 44.3" fill="#89ad3a" fill-rule="evenodd" stroke="none"/>
      <path d="M35.55 55.75 L26.05 55.75 Q22.75 55.75 20.45 53.3 L20.35 53.25 Q18.7 51.4 18.15 49.4 L17.8 47.35 17.8 44.3" ffdec:has-small-stroke="true" ffdec:original-stroke-width="0.5" fill="none" stroke="#74a300" stroke-linecap="round" stroke-linejoin="round" stroke-width="1.0"/>
      <path d="M17.8 44.3 L17.85 44.15 Q18.35 41.6 20.6 39.8 22.85 37.95 26.05 37.95 L35.35 37.95" ffdec:has-small-stroke="true" ffdec:original-stroke-width="0.5" fill="none" stroke="#162300" stroke-linecap="round" stroke-linejoin="round" stroke-width="1.0"/>
      <path d="M23.35 9.45 L20.35 8.15" fill="none" stroke="#b4c98b" stroke-linecap="round" stroke-linejoin="round" stroke-width="1.0"/>
      <path d="M35.15 18.55 Q17.45 18.8 14.0 15.8" fill="none" stroke="#b4c98b" stroke-linecap="round" stroke-linejoin="round" stroke-width="1.0"/>
      <path d="M12.5 26.15 L3.3 33.8" fill="none" stroke="#5a9124" stroke-linecap="round" stroke-linejoin="round" stroke-width="1.0"/>
      <path d="M23.35 27.3 L2.85 44.3" fill="none" stroke="#5a9124" stroke-linecap="round" stroke-linejoin="round" stroke-width="1.0"/>
      <path d="M35.15 26.55 Q15.85 27.2 7.3 25.0" fill="none" stroke="#8bb241" stroke-linecap="round" stroke-linejoin="round" stroke-width="1.0"/>
      <path d="M34.75 28.55 L28.0 34.15" fill="none" stroke="#5a9124" stroke-linecap="round" stroke-linejoin="round" stroke-width="1.0"/>
      <path d="M7.35 47.95 Q10.0 55.95 19.0 57.6" fill="none" stroke="#385900" stroke-linecap="round" stroke-linejoin="round" stroke-width="1.0"/>
    </g>
    <g id="sprite2">
      <use ffdec:characterId="25" height="61.15" transform="matrix(1.0, 0.0, 0.0, 1.0, 0.0, 0.0)" width="36.15" xlink:href="#shape1"/>
    </g>
    <g id="shape1">
      <path d="M6.5 25.0 Q12.4 13.6 21.25 5.65 27.6 0.0 30.9 -0.2 34.15 -0.45 34.45 -1.0 34.75 -1.55 35.2 -1.25 L35.25 26.85 Q26.45 27.2 19.65 26.85 11.75 26.4 6.5 25.0" fill="#779437" fill-rule="evenodd" stroke="none"/>
      <path d="M6.5 25.0 Q11.75 26.4 19.65 26.85 26.45 27.2 35.25 26.85 L35.35 26.85 35.35 35.15 26.15 35.15 25.75 35.15 Q23.75 35.25 22.05 36.0 20.25 36.75 18.8 38.25 L17.25 40.2 16.5 41.8 16.45 42.0 16.3 42.3 Q15.95 43.25 15.85 44.3 L15.75 44.3 Q13.15 46.85 11.3 47.4 L5.7 47.4 Q2.25 47.3 0.0 44.25 L0.05 43.35 0.15 42.4 0.35 41.25 Q0.6 39.65 1.15 37.9 L1.55 36.6 Q2.8 32.95 4.3 29.6 L6.5 25.0" fill="#3f6a1b" fill-rule="evenodd" stroke="none"/>
      <path d="M15.85 44.3 L15.75 45.75 15.75 46.5 Q15.75 50.85 18.8 53.95 L18.85 54.0 Q21.9 57.05 26.15 57.05 L35.4 57.05 35.4 58.95 35.05 59.4 28.7 59.2 26.7 59.1 26.55 59.1 20.15 58.6 17.6 58.35 16.6 58.25 Q12.25 57.75 9.0 56.6 L8.1 56.25 Q5.2 55.05 3.35 53.25 L1.85 51.4 Q0.35 49.15 0.05 46.15 L0.05 45.75 0.0 44.85 0.0 44.25 Q2.25 47.3 5.7 47.4 L11.3 47.4 Q13.15 46.85 15.75 44.3 L15.85 44.3" fill="#264c07" fill-rule="evenodd" stroke="none"/>
      <path d="M35.2 -1.25 Q27.6 0.0 21.25 5.65 8.2 17.35 1.55 36.6 0.1 40.85 0.0 44.3" ffdec:has-small-stroke="true" ffdec:original-stroke-width="0.5" fill="none" stroke="#144c03" stroke-linecap="round" stroke-linejoin="round" stroke-width="1.0"/>
      <path d="M0.0 44.3 Q-0.3 56.4 16.6 58.25 L26.7 59.1 28.7 59.2 35.05 59.4" ffdec:has-small-stroke="true" ffdec:original-stroke-width="0.5" fill="none" stroke="#082500" stroke-linecap="round" stroke-linejoin="round" stroke-width="1.0"/>
      <path d="M15.85 44.3 Q15.95 43.25 16.3 42.3 L16.45 42.0 16.5 41.8 17.25 40.2 18.8 38.25 Q20.25 36.75 22.05 36.0 23.75 35.25 25.75 35.15 L26.15 35.15 35.35 35.15 35.35 37.4 35.5 37.4 35.5 37.9 35.35 37.9 35.35 37.95 26.05 37.95 Q22.85 37.95 20.6 39.8 18.35 41.6 17.85 44.15 L17.8 44.3 15.85 44.3" fill="#254709" fill-rule="evenodd" stroke="none"/>
      <path d="M15.85 44.3 L17.8 44.3 17.8 47.35 18.15 49.4 Q18.7 51.4 20.35 53.25 L20.45 53.3 Q22.75 55.75 26.05 55.75 L35.55 55.75 35.9 56.75 35.4 56.75 35.4 57.05 26.15 57.05 Q21.9 57.05 18.85 54.0 L18.8 53.95 Q15.75 50.85 15.75 46.5 L15.75 45.75 15.85 44.3" fill="#89ad3a" fill-rule="evenodd" stroke="none"/>
      <path d="M35.55 55.75 L26.05 55.75 Q22.75 55.75 20.45 53.3 L20.35 53.25 Q18.7 51.4 18.15 49.4 L17.8 47.35 17.8 44.3" ffdec:has-small-stroke="true" ffdec:original-stroke-width="0.5" fill="none" stroke="#74a300" stroke-linecap="round" stroke-linejoin="round" stroke-width="1.0"/>
      <path d="M17.8 44.3 L17.85 44.15 Q18.35 41.6 20.6 39.8 22.85 37.95 26.05 37.95 L35.35 37.95" ffdec:has-small-stroke="true" ffdec:original-stroke-width="0.5" fill="none" stroke="#162300" stroke-linecap="round" stroke-linejoin="round" stroke-width="1.0"/>
      <path d="M23.35 9.45 L20.35 8.15" fill="none" stroke="#b4c98b" stroke-linecap="round" stroke-linejoin="round" stroke-width="1.0"/>
      <path d="M35.15 18.55 Q17.45 18.8 14.0 15.8" fill="none" stroke="#b4c98b" stroke-linecap="round" stroke-linejoin="round" stroke-width="1.0"/>
      <path d="M12.5 26.15 L3.3 33.8" fill="none" stroke="#5a9124" stroke-linecap="round" stroke-linejoin="round" stroke-width="1.0"/>
      <path d="M23.35 27.3 L2.85 44.3" fill="none" stroke="#5a9124" stroke-linecap="round" stroke-linejoin="round" stroke-width="1.0"/>
      <path d="M35.15 26.55 Q15.85 27.2 7.3 25.0" fill="none" stroke="#8bb241" stroke-linecap="round" stroke-linejoin="round" stroke-width="1.0"/>
      <path d="M34.75 28.55 L28.0 34.15" fill="none" stroke="#5a9124" stroke-linecap="round" stroke-linejoin="round" stroke-width="1.0"/>
      <path d="M7.35 47.95 Q10.0 55.95 19.0 57.6" fill="none" stroke="#385900" stroke-linecap="round" stroke-linejoin="round" stroke-width="1.0"/>
    </g>
    <g id="sprite3">
      <use ffdec:characterId="11" height="9.25" transform="matrix(1.0, 0.0, 0.0, 1.0, 0.0, 4.9)" width="60.4" xlink:href="#sprite4"/>
      <use ffdec:characterId="30" height="19.4" transform="matrix(1.0, 0.0, 0.0, 1.0, 15.2, 2.1)" width="28.5" xlink:href="#sprite5"/>
    </g>
    <g id="sprite4">
      <use ffdec:characterId="10" height="9.25" transform="matrix(1.0, 0.0, 0.0, 1.0, 0.0, 0.0)" width="60.4" xlink:href="#shape2"/>
    </g>
    <g id="shape2">
      <path d="M27.85 6.2 Q5.0 5.8 0.2 1.05" fill="none" stroke="#682b09" stroke-linecap="round" stroke-linejoin="round" stroke-width="4.0"/>
      <path d="M28.95 6.2 Q51.8 5.8 56.6 1.05" fill="none" stroke="#682b09" stroke-linecap="round" stroke-linejoin="round" stroke-width="4.0"/>
      <path d="M28.8 5.1 Q51.65 4.7 56.45 -0.05" fill="none" stroke="#db5f1a" stroke-linecap="round" stroke-linejoin="round" stroke-width="2.0"/>
      <path d="M28.0 5.1 Q5.15 4.7 0.35 -0.05" fill="none" stroke="#db5f1a" stroke-linecap="round" stroke-linejoin="round" stroke-width="2.0"/>
    </g>
    <g id="sprite5">
      <use ffdec:characterId="27" height="19.4" transform="matrix(1.0, 0.0, 0.0, 1.0, 0.0, 0.0)" width="28.5" xlink:href="#shape3"/>
      <use ffdec:characterId="29" height="8.75" transform="matrix(1.0, 0.0, 0.0, 1.0, 0.8, 0.6)" width="13.4" xlink:href="#sprite6"/>
      <use ffdec:characterId="29" height="8.75" transform="matrix(-1.0, 0.0, 0.0, 1.0, 26.05, 0.6)" width="13.4" xlink:href="#sprite6"/>
    </g>
    <g id="shape3">
      <path d="M12.25 7.6 Q8.95 12.25 1.25 15.25" fill="none" stroke="#ff7425" stroke-linecap="round" stroke-linejoin="round" stroke-width="3.0"/>
      <path d="M14.6 7.6 Q17.1 11.15 22.2 13.75" fill="none" stroke="#ff7425" stroke-linecap="round" stroke-linejoin="round" stroke-width="3.0"/>
      <path d="M13.8 9.2 L12.7 7.2 14.85 7.2 Q17.0 12.45 22.65 15.15 22.85 15.8 21.65 15.6 16.5 13.05 13.8 9.2" fill="#6a2c09" fill-rule="evenodd" stroke="none"/>
      <path d="M13.1 9.7 Q9.95 14.1 3.05 17.15 1.75 17.85 0.85 16.7 L1.0 16.65 Q8.15 13.75 11.45 8.55 L12.25 7.05 14.45 7.05 13.1 9.7" fill="#6a2c09" fill-rule="evenodd" stroke="none"/>
      <path d="M14.75 6.0 L21.8 7.75 Q23.4 7.75 24.55 6.6 25.65 5.5 25.65 3.9 L25.65 3.85 Q25.65 2.25 24.55 1.1 23.4 0.0 21.8 0.0 L13.95 3.85" fill="none" stroke="#ff7425" stroke-linecap="square" stroke-linejoin="round" stroke-width="3.0"/>
      <path d="M12.05 6.0 L5.0 7.75 Q3.4 7.75 2.25 6.6 1.15 5.5 1.15 3.9 L1.15 3.85 Q1.15 2.25 2.25 1.1 3.4 0.0 5.0 0.0 L12.55 3.8" fill="none" stroke="#ff7425" stroke-linecap="square" stroke-linejoin="round" stroke-width="3.0"/>
    </g>
    <g id="sprite6">
      <use ffdec:characterId="28" height="8.75" transform="matrix(1.0, 0.0, 0.0, 1.0, 0.0, 0.0)" width="13.4" xlink:href="#shape4"/>
    </g>
    <g id="shape4">
      <path d="M4.0 1.05 Q3.05 1.05 2.45 1.95 L2.15 2.55 Q2.0 3.15 2.25 3.95 2.65 5.1 3.75 5.5 L10.2 4.05 4.0 1.05 M0.15 5.5 L0.0 4.4 0.0 4.35 0.0 4.05 Q0.05 3.25 0.4 2.55 L1.25 1.25 Q2.55 0.0 4.35 0.0 L4.6 0.05 12.6 4.1 13.4 6.45 4.5 8.75 4.35 8.75 3.55 8.7 3.5 8.7 Q2.2 8.4 1.25 7.45 0.4 6.6 0.15 5.5" fill="#6a2c09" fill-rule="evenodd" stroke="none"/>
    </g>
    <g id="sprite7">
      <use ffdec:characterId="6" height="13.5" transform="matrix(1.0, 0.0, 0.0, 1.0, 0.0, 0.0)" width="11.95" xlink:href="#shape5"/>
    </g>
    <g id="shape5">
      <path d="M8.95 0.0 Q5.95 2.5 3.65 5.7 M0.6 9.75 L0.0 10.5" fill="none" stroke="#bde26b" stroke-linecap="round" stroke-linejoin="round" stroke-width="3.0"/>
    </g>
    <g id="sprite8">
      <use ffdec:characterId="15" height="6.45" transform="matrix(0.9984, -0.0558, 0.0558, 0.9984, 5.1, 0.55)" width="9.75" xlink:href="#sprite9"/>
      <use ffdec:characterId="17" height="5.95" transform="matrix(1.0, 0.0, 0.0, 1.0, 0.0, 7.15)" width="10.65" xlink:href="#sprite10"/>
    </g>
    <g id="sprite9">
      <use ffdec:characterId="14" height="6.45" transform="matrix(1.0, 0.0, 0.0, 1.0, 0.0, 0.0)" width="9.75" xlink:href="#shape6"/>
    </g>
    <g id="shape6">
      <path d="M3.0 5.65 Q2.35 6.6 1.35 6.45 0.35 6.25 0.05 4.9 -0.2 3.55 1.1 2.0 2.65 0.2 4.75 0.0 L5.65 0.05 Q7.75 0.3 8.8 1.5 9.75 2.7 9.75 4.35 9.75 6.3 8.0 6.3 7.2 6.3 6.4 5.35 5.55 4.4 4.65 4.55 3.7 4.65 3.0 5.65" fill="#391f17" fill-rule="evenodd" stroke="none"/>
      <path d="M3.0 4.1 Q2.3 4.8 1.9 4.8 1.0 4.8 1.0 3.95 1.0 2.9 1.95 2.1 3.2 1.05 4.6 0.95 L5.15 0.95 Q6.55 0.95 7.5 1.85 8.45 2.7 8.6 3.75 8.7 4.8 7.95 4.8 L7.0 4.05 Q6.15 3.25 4.95 3.3 3.7 3.35 3.0 4.1" fill="#ffffff" fill-rule="evenodd" stroke="none"/>
      <path d="M3.95 0.9 L4.8 0.8 4.8 0.75 5.9 0.95 5.8 1.95 Q5.55 2.85 4.7 2.85 4.1 2.85 3.85 2.35 L3.5 1.4 Q3.5 1.0 3.95 0.9" fill="#000000" fill-rule="evenodd" stroke="none"/>
    </g>
    <g id="sprite10">
      <use ffdec:characterId="16" height="5.95" transform="matrix(1.0, 0.0, 0.0, 1.0, 0.0, 0.0)" width="10.65" xlink:href="#shape7"/>
    </g>
    <g id="shape7">
      <path d="M4.2 5.95 Q2.1 5.95 0.9 5.05 0.0 4.35 0.0 3.6 0.0 0.05 5.35 0.0 10.65 -0.05 10.65 2.5 10.65 3.7 9.05 4.75 7.15 5.95 4.2 5.95" fill="#ff7870" fill-rule="evenodd" stroke="none"/>
    </g>
  </defs>
</svg>
