<?xml version="1.0" encoding="UTF-8" standalone="no"?>
<svg xmlns:ffdec="https://www.free-decompiler.com/flash" xmlns:xlink="http://www.w3.org/1999/xlink" ffdec:objectType="frame" height="44.75px" width="57.6px" xmlns="http://www.w3.org/2000/svg">
  <g transform="matrix(1.0, 0.0, 0.0, 1.0, 30.45, 29.55)">
    <use ffdec:characterId="20" height="44.75" transform="matrix(1.0, 0.0, 0.0, 1.0, 0.0, 0.0)" width="55.05" xlink:href="#shape0"/>
    <use ffdec:characterId="2" height="13.65" transform="matrix(1.0, 0.0, 0.0, 1.0, 12.25, -28.6)" width="14.25" xlink:href="#sprite0"/>
    <use ffdec:characterId="2" height="13.65" transform="matrix(-1.0, 0.0, 0.0, 1.0, -15.85, -27.4)" width="14.25" xlink:href="#sprite1"/>
    <filter color-interpolation-filters="sRGB" height="300%" id="filter0" width="300%" x="-100%" y="-100%">
      <feGaussianBlur in="SourceGraphic" result="filterResult0" stdDeviation="1.118033988749895 1.118033988749895"/>
    </filter>
    <use ffdec:characterId="5" filter="url(#filter0)" height="6.2" transform="matrix(1.0, 0.0, 0.0, 1.0, 11.2, -3.35)" width="6.2" xlink:href="#sprite2"/>
    <filter color-interpolation-filters="sRGB" height="300%" id="filter1" width="300%" x="-100%" y="-100%">
      <feGaussianBlur in="SourceGraphic" result="filterResult1" stdDeviation="1.118033988749895 1.118033988749895"/>
    </filter>
    <use ffdec:characterId="5" filter="url(#filter1)" height="6.2" transform="matrix(1.0, 0.0, 0.0, 1.0, -17.8, -3.35)" width="6.2" xlink:href="#sprite2"/>
    <use ffdec:characterId="6" height="4.5" transform="matrix(1.0, 0.0, 0.0, 1.0, -30.2, -29.3)" width="4.5" xlink:href="#shape4"/>
  </g>
  <defs>
    <g id="shape0">
      <path d="M-27.6 -4.2 L-27.55 -4.35 Q-27.15 0.4 -23.85 4.15 -17.5 11.45 -1.55 11.45 L-0.35 11.4 0.8 11.45 Q16.75 11.45 23.1 4.15 26.4 0.4 26.85 -4.35 L26.85 -4.0 26.9 -2.6 26.9 -2.35 Q26.9 3.35 23.1 7.65 L22.95 7.65 Q16.75 14.95 0.8 14.95 L-0.35 14.9 -0.4 14.65 -0.4 14.9 -1.55 14.95 Q-17.5 14.95 -23.7 7.65 L-23.85 7.65 Q-27.65 3.35 -27.65 -2.35 L-27.65 -2.5 -27.6 -4.05 -27.6 -4.15 -27.6 -4.2" fill="#fad5c6" fill-rule="evenodd" stroke="none"/>
      <path d="M-27.6 -4.2 Q-27.3 -9.1 -25.35 -13.95 -23.1 -19.55 -18.25 -23.4 -13.4 -27.2 -7.45 -28.6 L-0.4 -29.3 -0.4 -29.0 -0.35 -29.3 6.7 -28.6 Q12.65 -27.2 17.5 -23.4 22.35 -19.55 24.6 -13.95 26.5 -9.2 26.85 -4.35 26.4 0.4 23.1 4.15 16.75 11.45 0.8 11.45 L-0.35 11.4 -1.55 11.45 Q-17.5 11.45 -23.85 4.15 -27.15 0.4 -27.55 -4.35 L-27.6 -4.2" fill="#f8e1d8" fill-rule="evenodd" stroke="none"/>
      <path d="M-0.35 -29.3 L6.7 -28.6 Q12.65 -27.2 17.5 -23.4 22.35 -19.55 24.6 -13.95 26.9 -8.25 26.9 -2.35 26.9 3.35 23.1 7.65 16.75 14.95 0.8 14.95 L-0.35 14.9 -1.55 14.95 Q-17.5 14.95 -23.85 7.65 -27.65 3.35 -27.65 -2.35 -27.65 -8.25 -25.35 -13.95 -23.1 -19.55 -18.25 -23.4 -13.4 -27.2 -7.45 -28.6 L-0.35 -29.3 Z" ffdec:has-small-stroke="true" ffdec:original-stroke-width="0.5" fill="none" stroke="#7c4845" stroke-linecap="round" stroke-linejoin="round" stroke-width="1.0"/>
      <path d="M-8.15 -7.55 Q-8.15 -7.1 -8.5 -6.8 -8.8 -6.45 -9.25 -6.45 -9.7 -6.45 -10.05 -6.8 -10.35 -7.1 -10.35 -7.55 L-10.05 -8.35 -9.25 -8.65 Q-8.8 -8.65 -8.5 -8.35 -8.15 -8.0 -8.15 -7.55" fill="#7c4845" fill-rule="evenodd" stroke="none"/>
      <path d="M11.05 -8.05 Q11.05 -7.6 10.7 -7.3 10.4 -6.95 9.95 -6.95 9.5 -6.95 9.15 -7.3 8.85 -7.6 8.85 -8.05 8.85 -8.5 9.15 -8.85 9.5 -9.15 9.95 -9.15 L10.7 -8.85 11.05 -8.05" fill="#7c4845" fill-rule="evenodd" stroke="none"/>
      <path d="M7.25 -2.55 Q6.9 -1.15 5.4 -0.45 L3.75 -0.1 2.85 -0.2 0.5 -0.65 -2.15 -0.25 Q-3.45 0.1 -4.8 -0.5 -6.25 -1.15 -6.6 -2.65 -7.0 -4.35 -5.05 -5.7 -2.95 -7.15 0.35 -7.1 3.65 -7.15 5.75 -5.7 7.7 -4.35 7.25 -2.55" fill="#e5868c" fill-rule="evenodd" stroke="none"/>
      <path d="M7.25 -2.55 Q6.9 -1.15 5.4 -0.45 L3.75 -0.1 2.85 -0.2 0.5 -0.65 -2.15 -0.25 Q-3.45 0.1 -4.8 -0.5 -6.25 -1.15 -6.6 -2.65 -7.0 -4.35 -5.05 -5.7 -2.95 -7.15 0.35 -7.1 3.65 -7.15 5.75 -5.7 7.7 -4.35 7.25 -2.55 Z" ffdec:has-small-stroke="true" ffdec:original-stroke-width="0.5" fill="none" stroke="#7c4845" stroke-linecap="round" stroke-linejoin="round" stroke-width="1.0"/>
      <path d="M-0.85 -3.6 Q-0.85 -3.2 -1.1 -2.95 -1.4 -2.65 -1.75 -2.65 -2.15 -2.65 -2.4 -2.95 L-2.65 -3.6 -2.4 -4.25 -1.75 -4.5 -1.1 -4.25 -0.85 -3.6" fill="#7c4845" fill-rule="evenodd" stroke="none"/>
      <path d="M3.25 -3.6 L3.0 -2.95 2.35 -2.65 Q1.95 -2.65 1.7 -2.95 1.45 -3.2 1.45 -3.6 L1.7 -4.25 2.35 -4.5 3.0 -4.25 3.25 -3.6" fill="#7c4845" fill-rule="evenodd" stroke="none"/>
      <path d="M2.9 2.4 L2.1 3.1 0.3 3.35 -1.5 3.1 Q-2.3 2.8 -2.3 2.4 -2.3 2.0 -1.5 1.75 L0.3 1.45 2.1 1.75 Q2.9 2.0 2.9 2.4" fill="#ff97b3" fill-rule="evenodd" stroke="none"/>
    </g>
    <g id="sprite0">
      <use ffdec:characterId="1" height="13.65" transform="matrix(1.0, 0.0, 0.0, 1.0, 0.0, 0.0)" width="14.25" xlink:href="#shape1"/>
    </g>
    <g id="shape1">
      <path d="M0.6 3.5 Q6.0 0.35 12.65 0.8 L12.7 0.8 Q13.35 0.9 13.75 1.3 14.35 1.9 14.35 3.2 L14.2 5.7 Q13.65 9.05 12.7 11.7 L12.0 13.2 11.95 13.25 11.8 13.4 11.6 13.65 11.3 13.85 10.5 14.15 9.85 14.1 8.95 13.5 8.85 13.45 8.55 13.2 8.45 13.15 Q2.7 9.25 0.55 4.6 L0.45 4.25 Q0.35 3.9 0.6 3.5" fill="#f8e1d8" fill-rule="evenodd" stroke="none"/>
      <path d="M0.6 3.5 Q6.0 0.35 12.65 0.8 L12.7 0.8 Q13.35 0.9 13.75 1.3 14.35 1.9 14.35 3.2 L14.2 5.7 Q13.65 9.05 12.7 11.7 L12.0 13.2 11.95 13.25 11.8 13.4 11.6 13.65" ffdec:has-small-stroke="true" ffdec:original-stroke-width="0.5" fill="none" stroke="#7c4845" stroke-linecap="round" stroke-linejoin="round" stroke-width="1.0"/>
      <path d="M3.95 6.6 L3.9 6.45 3.9 6.35 4.05 6.05 Q7.0 3.85 10.7 3.3 L11.1 3.25 11.7 3.15 12.05 3.15 12.75 3.35 Q13.05 3.55 13.15 4.35 L13.15 4.55 12.85 6.4 11.6 10.85 10.95 12.1 9.8 12.85 9.4 12.7 Q5.05 10.05 3.95 6.8 L3.95 6.6" fill="#ffc4ca" fill-rule="evenodd" stroke="none"/>
    </g>
    <g id="sprite1">
      <use ffdec:characterId="1" height="13.65" transform="matrix(1.0, 0.0, 0.0, 1.0, 0.0, 0.0)" width="14.25" xlink:href="#shape2"/>
    </g>
    <g id="shape2">
      <path d="M0.6 3.5 Q6.0 0.35 12.65 0.8 L12.7 0.8 Q13.35 0.9 13.75 1.3 14.35 1.9 14.35 3.2 L14.2 5.7 Q13.65 9.05 12.7 11.7 L12.0 13.2 11.95 13.25 11.8 13.4 11.6 13.65 11.3 13.85 10.5 14.15 9.85 14.1 8.95 13.5 8.85 13.45 8.55 13.2 8.45 13.15 Q2.7 9.25 0.55 4.6 L0.45 4.25 Q0.35 3.9 0.6 3.5" fill="#f8e1d8" fill-rule="evenodd" stroke="none"/>
      <path d="M0.6 3.5 Q6.0 0.35 12.65 0.8 L12.7 0.8 Q13.35 0.9 13.75 1.3 14.35 1.9 14.35 3.2 L14.2 5.7 Q13.65 9.05 12.7 11.7 L12.0 13.2 11.95 13.25 11.8 13.4 11.6 13.65" ffdec:has-small-stroke="true" ffdec:original-stroke-width="0.5" fill="none" stroke="#7c4845" stroke-linecap="round" stroke-linejoin="round" stroke-width="1.0"/>
      <path d="M3.95 6.6 L3.9 6.45 3.9 6.35 4.05 6.05 Q7.0 3.85 10.7 3.3 L11.1 3.25 11.7 3.15 12.05 3.15 12.75 3.35 Q13.05 3.55 13.15 4.35 L13.15 4.55 12.85 6.4 11.6 10.85 10.95 12.1 9.8 12.85 9.4 12.7 Q5.05 10.05 3.95 6.8 L3.95 6.6" fill="#ffc4ca" fill-rule="evenodd" stroke="none"/>
    </g>
    <g id="sprite2">
      <use ffdec:characterId="4" height="6.2" transform="matrix(1.0, 0.0, 0.0, 1.0, 0.0, 0.0)" width="6.2" xlink:href="#shape3"/>
    </g>
    <g id="shape3">
      <path d="M6.2 3.1 Q6.2 4.4 5.3 5.3 4.4 6.2 3.1 6.2 1.8 6.2 0.9 5.3 0.0 4.4 0.0 3.1 0.0 1.8 0.9 0.9 1.8 0.0 3.1 0.0 4.4 0.0 5.3 0.9 6.2 1.8 6.2 3.1" fill="#f4b1a9" fill-rule="evenodd" stroke="none"/>
    </g>
    <g id="shape4">
      <path d="M21.85 6.05 Q21.85 7.0 21.2 7.65 20.55 8.3 19.6 8.3 18.65 8.3 18.0 7.65 17.35 7.0 17.35 6.05 17.35 5.1 18.0 4.45 18.65 3.8 19.6 3.8 20.55 3.8 21.2 4.45 21.85 5.1 21.85 6.05" fill="#fff4f0" fill-rule="evenodd" stroke="none"/>
    </g>
  </defs>
</svg>
