<?xml version="1.0" encoding="UTF-8" standalone="no"?>
<svg xmlns:ffdec="https://www.free-decompiler.com/flash" xmlns:xlink="http://www.w3.org/1999/xlink" ffdec:objectType="frame" height="63.5px" width="59.8px" xmlns="http://www.w3.org/2000/svg">
  <g transform="matrix(1.0, 0.0, 0.0, 1.0, 29.95, 47.95)">
    <use ffdec:characterId="19" height="63.5" transform="matrix(1.0, 0.0, 0.0, 1.0, -29.95, -47.95)" width="59.8" xlink:href="#sprite0"/>
  </g>
  <defs>
    <g id="sprite0">
      <use ffdec:characterId="13" height="19.5" transform="matrix(1.0, 0.0, 0.0, 1.0, 0.0, 0.0)" width="47.4" xlink:href="#shape0"/>
      <use ffdec:characterId="15" height="9.75" transform="matrix(1.2963, 0.0, 0.0, 1.0, 10.65, 38.1)" width="29.75" xlink:href="#sprite1"/>
      <use ffdec:characterId="3" height="15.75" transform="matrix(1.0, 0.0, 0.0, 1.0, 35.9, 5.3)" width="14.75" xlink:href="#sprite2"/>
      <use ffdec:characterId="16" height="47.25" transform="matrix(1.0, 0.0, 0.0, 1.0, 0.0, 0.0)" width="59.8" xlink:href="#shape3"/>
      <use ffdec:characterId="17" height="5.75" transform="matrix(1.0, 0.0, 0.0, 1.0, 17.85, 29.8)" width="7.95" xlink:href="#sprite3"/>
      <use ffdec:characterId="17" height="5.75" transform="matrix(-1.0, 0.0, 0.0, 1.0, 41.7, 29.8)" width="7.95" xlink:href="#sprite4"/>
      <use ffdec:characterId="18" height="8.1" transform="matrix(1.0, 0.0, 0.0, 1.0, 6.9, 23.05)" width="8.1" xlink:href="#sprite5"/>
      <use ffdec:characterId="18" height="8.1" transform="matrix(-1.0, 0.0, 0.0, 1.0, 52.95, 23.05)" width="8.1" xlink:href="#sprite5"/>
      <use ffdec:characterId="10" height="20.45" transform="matrix(1.0, 0.0, 0.0, 1.0, 26.55, 0.05)" width="10.45" xlink:href="#sprite6"/>
    </g>
    <g id="shape0">
      <path d="M51.0 42.5 Q50.4 40.75 49.3 39.3 L47.15 37.15 50.5 37.35 Q52.6 38.45 53.45 42.5 L51.0 42.5 M8.85 42.5 L6.4 42.5 Q7.75 35.65 12.8 37.2 11.55 37.95 10.5 39.3 9.4 40.75 8.85 42.5" fill="#4855af" fill-rule="evenodd" stroke="none"/>
      <path d="M47.6 56.25 L48.65 55.25 49.25 54.55 Q51.65 51.35 51.65 46.9 51.65 44.5 51.0 42.5 L53.45 42.5 53.45 42.6 Q54.5 50.7 49.05 55.25 L47.6 56.25 M12.3 56.35 Q5.15 51.75 6.35 42.6 L6.4 42.5 8.85 42.5 Q8.15 44.5 8.15 46.9 8.15 51.35 10.55 54.55 L12.3 56.35" fill="#6c7ded" fill-rule="evenodd" stroke="none"/>
      <path d="M47.6 56.25 L48.65 55.25 49.25 54.55 Q51.65 51.35 51.65 46.9 51.65 44.5 51.0 42.5 50.4 40.75 49.3 39.3 L47.15 37.15 M12.3 56.35 L10.55 54.55 Q8.15 51.35 8.15 46.9 8.15 44.5 8.85 42.5 9.4 40.75 10.5 39.3 11.55 37.95 12.8 37.2" ffdec:has-small-stroke="true" ffdec:original-stroke-width="0.1" fill="none" stroke="#e45572" stroke-linecap="round" stroke-linejoin="round" stroke-width="1.0"/>
    </g>
    <g id="sprite1">
      <use ffdec:characterId="14" height="9.75" transform="matrix(1.0, 0.0, 0.0, 1.0, 0.0, 0.0)" width="29.75" xlink:href="#shape1"/>
    </g>
    <g id="shape1">
      <path d="M29.6 -1.5 L29.6 0.0 Q29.9 3.75 28.65 6.7 28.3 7.45 27.7 6.8 L25.5 4.25 Q24.6 3.35 23.9 4.25 L21.05 7.55 Q20.15 8.65 19.25 7.8 L14.85 3.75 10.4 7.8 Q9.5 8.65 8.6 7.55 L5.75 4.25 Q5.05 3.35 4.15 4.25 L1.95 6.8 Q1.35 7.45 1.0 6.7 -0.25 3.75 0.05 0.0 L0.05 -1.5 29.6 -1.5" fill="#b5c3ff" fill-rule="evenodd" stroke="none"/>
      <path d="M29.6 -1.5 L0.05 -1.5 0.05 0.0 Q-0.25 3.75 1.0 6.7 1.35 7.45 1.95 6.8 L4.15 4.25 Q5.05 3.35 5.75 4.25 L8.6 7.55 Q9.5 8.65 10.4 7.8 L14.85 3.75 19.25 7.8 Q20.15 8.65 21.05 7.55 L23.9 4.25 Q24.6 3.35 25.5 4.25 L27.7 6.8 Q28.3 7.45 28.65 6.7 29.9 3.75 29.6 0.0 L29.6 -1.5 Z" ffdec:has-small-stroke="true" ffdec:original-stroke-width="0.1" fill="none" stroke="#16263c" stroke-linecap="round" stroke-linejoin="round" stroke-width="0.87832078740842"/>
      <path d="M28.25 0.4 Q28.5 2.7 27.4 4.45 L26.5 4.55 24.5 3.0 Q23.7 2.45 23.05 3.0 L20.5 5.0 Q19.65 5.65 18.85 5.15 L14.85 2.7 10.85 5.15 Q10.05 5.65 9.2 5.0 L6.65 3.0 Q6.0 2.45 5.2 3.0 L3.2 4.55 2.3 4.45 Q1.2 2.7 1.45 0.4 L28.25 0.4" fill="#ffffff" fill-rule="evenodd" stroke="none"/>
    </g>
    <g id="sprite2">
      <use ffdec:characterId="2" height="15.75" transform="matrix(1.0, 0.0, 0.0, 1.0, 0.0, 0.0)" width="14.75" xlink:href="#shape2"/>
    </g>
    <g id="shape2">
      <path d="M11.2 13.65 Q15.7 8.5 14.35 15.65 L11.2 13.65" fill="#e7f7ff" fill-rule="evenodd" stroke="none"/>
      <path d="M11.2 13.65 L14.35 15.65 Q15.7 8.5 11.2 13.65 Z" ffdec:has-small-stroke="true" ffdec:original-stroke-width="0.1" fill="none" stroke="#00509e" stroke-linecap="round" stroke-linejoin="round" stroke-width="1.0"/>
      <path d="M11.6 10.4 L11.6 13.65 7.15 11.75 7.05 11.6 8.75 8.9 Q10.7 8.1 11.6 10.4" fill="#91ddff" fill-rule="evenodd" stroke="none"/>
      <path d="M8.75 8.9 Q9.95 6.95 10.65 6.7 L10.8 6.7 10.95 6.75 11.2 6.9 Q11.65 7.45 11.6 9.2 L11.6 10.4 Q10.7 8.1 8.75 8.9" fill="#d9f3ff" fill-rule="evenodd" stroke="none"/>
      <path d="M11.6 10.4 L11.6 13.65 7.15 11.75 7.05 11.6 8.75 8.9 Q9.95 6.95 10.65 6.7 L10.8 6.7 10.95 6.75 11.2 6.9 Q11.65 7.45 11.6 9.2 L11.6 10.4 Z" ffdec:has-small-stroke="true" ffdec:original-stroke-width="0.1" fill="none" stroke="#00509e" stroke-linecap="round" stroke-linejoin="round" stroke-width="1.0"/>
      <path d="M1.65 7.25 L3.9 1.45 Q4.45 0.4 5.1 0.15 L5.95 0.05 Q7.1 0.3 7.15 2.3 L7.15 7.85 Q4.85 5.15 1.65 7.25" fill="#c3ecff" fill-rule="evenodd" stroke="none"/>
      <path d="M7.15 7.85 L7.15 11.9 0.0 11.4 1.65 7.25 Q4.85 5.15 7.15 7.85" fill="#54caff" fill-rule="evenodd" stroke="none"/>
      <path d="M1.65 7.25 L3.9 1.45 Q4.45 0.4 5.1 0.15 L5.95 0.05 Q7.1 0.3 7.15 2.3 L7.15 7.85 7.15 11.9 0.0 11.4 1.65 7.25 Z" ffdec:has-small-stroke="true" ffdec:original-stroke-width="0.1" fill="none" stroke="#00509e" stroke-linecap="round" stroke-linejoin="round" stroke-width="1.0"/>
    </g>
    <g id="shape3">
      <path d="M28.65 16.5 L31.15 16.5 Q51.75 14.5 57.15 31.9 61.4 43.2 58.8 51.0 57.75 54.05 55.65 56.6 52.55 60.05 46.45 60.1 42.8 60.0 39.15 61.8 35.55 63.4 30.05 63.45 L29.75 63.45 Q24.25 63.4 20.65 61.8 17.0 60.0 13.35 60.1 7.25 60.05 4.15 56.6 2.05 54.05 1.05 51.0 -1.6 43.2 2.65 31.9 8.05 14.5 28.65 16.5 M47.15 37.15 L45.25 37.9 Q40.4 40.55 35.0 40.55 L24.8 40.55 22.85 40.45 Q18.5 40.05 14.55 37.9 13.65 37.4 12.8 37.2 7.75 35.65 6.35 42.6 5.7 47.45 7.4 51.0 8.05 52.35 9.05 53.5 10.35 55.1 12.3 56.35 L14.3 57.45 Q16.6 58.55 19.55 59.3 25.4 60.75 29.75 60.75 L30.05 60.75 Q34.4 60.75 40.25 59.3 44.65 58.2 47.6 56.25 L49.05 55.25 50.4 53.95 Q51.65 52.6 52.4 51.0 54.1 47.45 53.45 42.6 52.65 38.45 50.5 37.35 L47.15 37.15" fill="#10161b" fill-rule="evenodd" stroke="none"/>
      <path d="M28.65 16.5 Q8.05 14.5 2.65 31.9 -3.25 47.65 4.15 56.6 7.25 60.05 13.35 60.1 17.0 60.0 20.65 61.8 24.25 63.4 29.75 63.45 L30.05 63.45 Q35.55 63.4 39.15 61.8 42.8 60.0 46.45 60.1 52.55 60.05 55.65 56.6 63.05 47.65 57.15 31.9 51.75 14.5 31.15 16.5 L28.65 16.5 Z" ffdec:has-small-stroke="true" ffdec:original-stroke-width="0.1" fill="none" stroke="#000000" stroke-linecap="round" stroke-linejoin="round" stroke-width="1.0"/>
      <path d="M37.55 34.25 L28.15 34.9 18.65 34.25 Q15.65 33.7 14.95 33.05 L12.2 31.7 Q8.25 29.2 8.25 25.65 8.25 22.05 12.2 19.55 16.15 17.05 21.7 17.05 25.45 17.05 28.5 18.25 31.5 17.1 35.15 17.1 40.65 17.1 44.55 19.6 48.55 22.1 48.55 25.7 48.55 29.25 44.55 31.75 42.5 33.05 40.05 33.7 L37.55 34.25" fill="#1d366e" fill-rule="evenodd" stroke="none"/>
      <path d="M15.5 24.7 Q13.9 26.05 12.1 26.45 10.4 26.95 9.45 26.2 8.6 25.45 9.15 23.95 9.7 22.45 11.3 21.1 12.95 19.7 14.65 19.25 16.4 18.8 17.25 19.55 18.2 20.25 17.6 21.75 17.15 23.3 15.5 24.7" fill="#244a99" fill-rule="evenodd" stroke="none"/>
    </g>
    <g id="sprite3">
      <use ffdec:characterId="5" height="5.75" transform="matrix(1.0, 0.0, 0.0, 1.0, 0.0, 0.0)" width="7.95" xlink:href="#shape4"/>
    </g>
    <g id="shape4">
      <path d="M7.4 3.7 L7.05 5.4 Q1.8 5.95 -0.4 2.75 -0.15 1.7 0.65 0.9 1.8 -0.25 3.45 -0.25 5.1 -0.25 6.25 0.9 7.4 2.05 7.4 3.7" fill="#0d2946" fill-rule="evenodd" stroke="none"/>
      <path d="M4.85 1.55 Q4.85 2.0 4.35 2.3 L3.15 2.6 1.95 2.3 Q1.45 2.0 1.45 1.55 1.45 1.1 1.95 0.8 2.45 0.5 3.15 0.5 L4.35 0.8 Q4.85 1.1 4.85 1.55" fill="#23578e" fill-rule="evenodd" stroke="none"/>
      <path d="M2.45 3.9 L4.1 4.5 M0.0 2.15 L0.7 1.1 Q1.85 0.0 3.45 0.0 5.05 0.0 6.15 1.1 6.8 1.75 7.1 2.6 L7.3 3.55 7.3 3.85 7.25 4.55" ffdec:has-small-stroke="true" ffdec:original-stroke-width="0.5" fill="none" stroke="#000000" stroke-linecap="round" stroke-linejoin="round" stroke-width="1.0"/>
    </g>
    <g id="sprite4">
      <use ffdec:characterId="5" height="5.75" transform="matrix(1.0, 0.0, 0.0, 1.0, 0.0, 0.0)" width="7.95" xlink:href="#shape5"/>
    </g>
    <g id="shape5">
      <path d="M7.4 3.7 L7.05 5.4 Q1.8 5.95 -0.4 2.75 -0.15 1.7 0.65 0.9 1.8 -0.25 3.45 -0.25 5.1 -0.25 6.25 0.9 7.4 2.05 7.4 3.7" fill="#0d2946" fill-rule="evenodd" stroke="none"/>
      <path d="M4.85 1.55 Q4.85 2.0 4.35 2.3 L3.15 2.6 1.95 2.3 Q1.45 2.0 1.45 1.55 1.45 1.1 1.95 0.8 2.45 0.5 3.15 0.5 L4.35 0.8 Q4.85 1.1 4.85 1.55" fill="#23578e" fill-rule="evenodd" stroke="none"/>
      <path d="M2.45 3.9 L4.1 4.5 M0.0 2.15 L0.7 1.1 Q1.85 0.0 3.45 0.0 5.05 0.0 6.15 1.1 6.8 1.75 7.1 2.6 L7.3 3.55 7.3 3.85 7.25 4.55" ffdec:has-small-stroke="true" ffdec:original-stroke-width="0.5" fill="none" stroke="#000000" stroke-linecap="round" stroke-linejoin="round" stroke-width="1.0"/>
    </g>
    <g id="sprite5">
      <use ffdec:characterId="7" height="8.1" transform="matrix(1.0, 0.0, 0.0, 1.0, 0.0, 0.0)" width="8.1" xlink:href="#shape6"/>
    </g>
    <g id="shape6">
      <path d="M6.9 4.5 Q6.9 5.45 6.25 6.15 5.55 6.8 4.6 6.8 3.6 6.8 2.95 6.15 2.3 5.45 2.3 4.5 2.3 3.55 2.95 2.9 3.6 2.2 4.6 2.2 5.55 2.2 6.25 2.9 6.9 3.55 6.9 4.5" fill="#ffe000" fill-rule="evenodd" stroke="none"/>
      <path d="M6.9 4.5 Q6.9 3.55 6.25 2.9 5.55 2.2 4.6 2.2 3.6 2.2 2.95 2.9 2.3 3.55 2.3 4.5 2.3 5.45 2.95 6.15 3.6 6.8 4.6 6.8 5.55 6.8 6.25 6.15 6.9 5.45 6.9 4.5 M8.6 4.5 Q8.6 6.2 7.45 7.4 6.25 8.55 4.55 8.55 2.85 8.55 1.7 7.4 0.5 6.2 0.5 4.5 0.5 2.8 1.7 1.65 2.85 0.45 4.55 0.45 6.25 0.45 7.45 1.65 8.6 2.8 8.6 4.5" fill="#fff5b2" fill-rule="evenodd" stroke="none"/>
      <path d="M1.9 6.75 Q2.5 3.95 5.1 2.85 L7.15 2.4 Q6.3 4.9 4.65 5.85 2.95 6.75 1.9 6.75" fill="#000000" fill-rule="evenodd" stroke="none"/>
    </g>
    <g id="sprite6">
      <use ffdec:characterId="9" height="20.45" transform="matrix(1.0, 0.0, 0.0, 1.0, 0.0, 0.0)" width="10.45" xlink:href="#shape7"/>
    </g>
    <g id="shape7">
      <path d="M0.95 10.45 L2.05 2.75 Q2.45 0.3 3.85 0.05 L4.25 0.0 Q5.4 -0.05 6.15 1.7 L10.3 16.15 Q3.6 4.25 0.95 10.45" fill="#bfebff" fill-rule="evenodd" stroke="none"/>
      <path d="M0.95 10.45 Q3.6 4.25 10.3 16.15 L10.35 16.85 Q10.3 18.25 8.65 19.3 7.1 20.35 4.85 20.35 2.65 20.35 1.2 19.3 0.05 18.45 0.1 17.25 L0.0 17.0 0.95 10.45" fill="#54caff" fill-rule="evenodd" stroke="none"/>
      <path d="M10.3 16.15 L6.15 1.7 Q5.4 -0.05 4.25 0.0 L3.85 0.05 Q2.45 0.3 2.05 2.75 L0.95 10.45 0.0 17.0" ffdec:has-small-stroke="true" ffdec:original-stroke-width="0.1" fill="none" stroke="#00509e" stroke-linecap="round" stroke-linejoin="round" stroke-width="1.0"/>
      <path d="M10.3 16.15 L10.35 16.85 Q10.3 18.25 8.65 19.3 7.1 20.35 4.85 20.35 2.65 20.35 1.2 19.3 0.05 18.45 0.1 17.25 L0.0 17.0" ffdec:has-small-stroke="true" ffdec:original-stroke-width="0.1" fill="none" stroke="#004180" stroke-linecap="round" stroke-linejoin="round" stroke-width="1.0"/>
    </g>
  </defs>
</svg>
