<?xml version="1.0" encoding="UTF-8" standalone="no"?>
<svg xmlns:ffdec="https://www.free-decompiler.com/flash" xmlns:xlink="http://www.w3.org/1999/xlink" ffdec:objectType="frame" height="55.7px" width="72.9px" xmlns="http://www.w3.org/2000/svg">
  <g transform="matrix(1.0, 0.0, 0.0, 1.0, 35.15, 40.5)">
    <use ffdec:characterId="23" height="46.7" transform="matrix(1.05, 0.0, 0.0, 1.0, -3.95, -8.15)" width="56.85" xlink:href="#sprite0"/>
    <use ffdec:characterId="3" height="22.5" transform="matrix(1.05, 0.0, 0.0, 1.0, 21.3, 0.2)" width="10.0" xlink:href="#sprite1"/>
    <use ffdec:characterId="27" height="45.85" transform="matrix(1.05, 0.0, 0.0, 1.0, 1.15, -17.3)" width="69.5" xlink:href="#sprite2"/>
    <use ffdec:characterId="8" height="25.1" transform="matrix(1.05, 0.0, 0.0, 1.0, 15.15, -6.85)" width="10.55" xlink:href="#sprite4"/>
    <use ffdec:characterId="11" height="21.3" transform="matrix(1.05, 0.0, 0.0, 1.0, -16.2, -7.05)" width="26.05" xlink:href="#sprite5"/>
    <use ffdec:characterId="13" height="21.75" transform="matrix(1.05, 0.0, 0.0, 1.0, -0.85, -11.7)" width="22.25" xlink:href="#sprite7"/>
    <use ffdec:characterId="15" height="17.9" transform="matrix(1.05, 0.0, 0.0, 1.0, 7.15, -8.5)" width="17.05" xlink:href="#sprite8"/>
    <use ffdec:characterId="32" height="7.55" transform="matrix(1.05, 0.0, 0.0, 1.0, 1.05, -26.25)" width="45.3" xlink:href="#sprite9"/>
  </g>
  <defs>
    <g id="sprite0">
      <use ffdec:characterId="22" height="46.7" transform="matrix(1.0, 0.0, 0.0, 1.0, 0.0, 0.0)" width="56.85" xlink:href="#shape0"/>
    </g>
    <g id="shape0">
      <path d="M21.6 6.85 L21.6 -7.45 17.7 -9.9 -2.35 -9.9 -14.75 8.25 -12.05 16.95 -8.1 20.35 -9.0 21.0 -11.15 20.15 -10.0 22.15 -10.6 22.85 -12.55 21.7 -18.0 15.25 -20.9 14.7 Q-19.3 13.55 -19.55 11.8 L-24.15 14.7 -26.15 15.45 -27.6 15.45 -28.2 14.75 -26.2 13.1 -23.0 8.35 -23.15 -4.7 -22.45 -9.25 -8.85 -23.1 19.4 -23.1 28.15 -9.65 28.15 5.3 23.2 5.3 23.2 6.85 21.6 6.85 M27.05 12.25 L23.75 17.25 Q23.1 18.7 22.0 19.5 L21.4 19.5 21.05 20.5 Q20.4 21.65 19.2 22.6 18.65 23.55 18.0 22.6 18.85 21.0 18.7 19.0 L18.7 18.1 21.6 14.6 21.6 12.25 27.05 12.25" fill="#58a396" fill-rule="evenodd" stroke="none"/>
      <path d="M28.15 5.3 L28.15 10.55 27.05 12.25 21.6 12.25 21.6 6.85 23.2 6.85 23.2 5.3 28.15 5.3" fill="#185d50" fill-rule="evenodd" stroke="none"/>
      <path d="M-17.45 -14.65 L-17.45 9.95 -17.2 9.75 -13.15 20.85 -13.5 20.3 Q-14.65 18.75 -16.35 17.25 L-17.0 16.55 -17.45 15.95 -17.6 15.8 -17.6 15.6 -17.7 15.5 -17.9 15.4 -18.2 15.4 -19.55 14.8 -19.8 14.8 -19.9 14.75 -20.15 14.75 -20.45 14.65 -20.65 14.55 -21.05 14.55 -21.05 14.5 -19.9 13.2 -19.7 13.0 -19.5 12.45 -19.7 12.15 -19.9 12.15 -19.95 12.1 -20.6 12.5 -20.65 12.55 -20.85 12.7 -21.55 13.2 -21.85 13.4 -23.8 14.55 -25.95 15.25 -26.4 15.5 -26.5 15.5 -26.55 15.45 -26.9 15.55 -27.25 15.5 -27.45 15.55 -27.6 15.55 -27.85 15.6 -28.4 14.9 -28.45 14.75 -28.35 14.55 -26.4 12.95 -23.25 8.3 -23.4 -4.0 -23.35 -4.15 -22.65 -9.4 -17.45 -14.65 M22.85 15.45 L24.15 16.8 24.05 16.9 24.0 17.0 23.95 17.05 23.95 17.1 23.9 17.1 23.9 17.15 23.85 17.25 23.85 17.3 23.7 17.4 23.7 17.55 23.6 17.65 23.55 17.85 23.6 18.1 23.55 18.2 23.25 18.55 23.25 18.6 23.2 18.65 23.2 18.7 22.2 19.7 22.0 19.75 21.6 19.75 21.15 20.8 20.2 22.1 19.45 22.75 19.4 22.75 19.35 22.85 Q19.0 23.4 18.65 23.35 18.3 23.4 17.9 22.85 L17.8 22.75 17.75 22.65 17.8 22.5 Q18.3 21.55 18.45 20.5 L18.45 19.05 18.45 18.1 18.5 17.95 21.95 13.85 23.2 15.8 22.85 15.45" fill="#185d50" fill-rule="evenodd" stroke="none"/>
      <path d="M-17.45 -14.65 L-9.0 -23.25 -8.85 -23.35 19.4 -23.35 19.6 -23.3 19.65 -23.2 28.35 -9.75 28.4 -9.65 28.4 -2.45 21.35 -2.45 21.35 -7.3 17.65 -9.65 -2.15 -9.65 -14.45 8.3 -11.8 16.8 -10.0 18.4 -10.0 18.45 -9.9 18.55 -9.65 18.9 -9.55 19.05 -9.45 19.15 -9.1 19.45 -9.0 19.55 -8.35 19.95 -8.15 20.2 -8.4 20.3 -9.05 20.9 -9.3 21.0 -9.35 20.9 -9.45 20.8 -9.65 20.7 -9.7 20.55 -9.8 20.4 -10.3 20.3 -10.35 20.25 -10.75 20.7 -10.65 20.95 -10.55 21.1 -10.45 21.1 -10.4 21.2 -10.4 21.3 -10.35 21.45 -10.25 21.65 -10.25 21.85 -10.15 21.9 -10.15 22.0 -10.1 22.15 -10.15 22.3 -10.6 22.85 -11.85 22.25 -13.15 20.85 -17.2 9.75 -17.45 9.95 -17.45 -14.65" fill="#58a396" fill-rule="evenodd" stroke="none"/>
      <path d="M22.05 14.05 L21.6 14.6 18.7 18.1 18.7 19.0 Q18.85 21.0 18.0 22.6 18.65 23.55 19.2 22.6 20.4 21.65 21.05 20.5 L21.4 19.5 22.0 19.5 Q23.1 18.7 23.75 17.25 L28.15 10.55 28.15 -9.65 19.4 -23.1 -8.85 -23.1 -22.45 -9.25 -23.15 -4.7 -23.0 8.35 -26.2 13.1 -28.2 14.75 -27.6 15.45 -26.15 15.45 -24.15 14.7 -19.55 11.8 Q-19.3 13.55 -20.9 14.7 L-18.0 15.25 -12.55 21.7 -10.6 22.85 -10.0 22.15 -11.1 20.15 -9.0 21.0 -8.1 20.35 -12.05 16.95 -14.75 8.25 -2.35 -9.9 17.7 -9.9 21.6 -7.45 21.6 14.6" ffdec:has-small-stroke="true" ffdec:original-stroke-width="0.5" fill="none" stroke="#046480" stroke-linecap="round" stroke-linejoin="round" stroke-width="0.9759057457802286"/>
    </g>
    <g id="sprite1">
      <use ffdec:characterId="2" height="22.5" transform="matrix(1.0, 0.0, 0.0, 1.0, 0.0, 0.0)" width="10.0" xlink:href="#shape1"/>
    </g>
    <g id="shape1">
      <path d="M-3.05 4.7 L-3.15 4.5 -3.6 2.4 -3.8 1.0 -4.0 -1.25 -4.85 -10.45 2.2 -11.1 3.0 -2.25 2.9 -2.15 2.9 -1.7 3.05 -0.1 3.95 2.0 4.15 2.5 4.25 2.9 4.6 3.5 4.75 4.35 4.75 4.55 4.75 4.6 4.85 5.1 4.85 5.2 4.85 5.3 1.45 2.05 1.2 -0.6 -0.15 0.25 0.6 8.1 -3.05 4.7" fill="#98cac1" fill-rule="evenodd" stroke="none"/>
      <path d="M-3.05 4.7 L0.6 8.1 -0.15 0.25 1.2 -0.6 1.45 2.05 4.85 5.3 4.75 8.35 4.25 8.25 4.2 8.2 3.35 7.55 2.6 6.75 2.6 6.7 2.4 6.45 2.3 6.35 2.65 10.35 2.55 10.45 2.5 10.65 2.3 10.9 2.3 10.95 1.75 10.95 1.6 11.0 1.55 11.0 1.4 11.1 1.35 11.05 1.3 11.05 1.2 11.05 1.2 11.0 1.1 10.75 0.9 10.4 0.85 10.2 0.6 9.6 0.6 9.5 0.25 9.25 0.2 9.25 0.2 9.2 0.05 9.1 0.0 9.1 0.0 9.0 -0.15 8.6 -0.45 8.35 -1.7 7.25 -1.8 7.15 -2.6 6.0 -2.7 5.8 -2.75 5.7 -2.95 5.1 -3.05 4.7" fill="#176657" fill-rule="evenodd" stroke="none"/>
      <path d="M0.65 0.95 L0.8 2.6 Q1.6 4.95 2.8 6.55 L3.75 7.65 4.35 8.0 4.75 8.05 4.85 7.55 Q5.25 5.0 3.15 -0.35 L2.85 -1.05 1.95 -11.1 M-4.6 -10.55 L-3.75 -1.3 Q-3.55 3.05 -2.45 5.7 -1.7 7.5 -0.55 8.55 L0.2 9.05 0.35 9.65 Q0.7 10.4 1.5 10.9 L2.45 10.8 2.05 5.9" ffdec:has-small-stroke="true" ffdec:original-stroke-width="0.5" fill="none" stroke="#046480" stroke-linecap="round" stroke-linejoin="round" stroke-width="0.9759057457802286"/>
    </g>
    <g id="sprite2">
      <use ffdec:characterId="24" height="45.85" transform="matrix(1.0, 0.0, 0.0, 1.0, 0.0, 0.0)" width="63.9" xlink:href="#shape2"/>
      <use ffdec:characterId="26" height="23.9" transform="matrix(1.0, 0.0, 0.0, 1.0, 26.7, 4.0)" width="19.2" xlink:href="#sprite3"/>
    </g>
    <g id="shape2">
      <path d="M-30.35 -1.0 L-31.85 -1.95 -32.5 -2.6 Q-32.7 -3.05 -32.55 -3.55 L-31.15 -3.55 -30.5 -3.7 -29.1 -3.7 Q-28.6 -3.8 -28.2 -4.1 L-27.8 -4.45 -27.4 -4.55 Q-27.0 -4.6 -26.75 -4.9 L-26.7 -4.95 -26.45 -5.5 -26.15 -6.1 -26.0 -6.35 -25.9 -6.6 -25.4 -7.45 -24.65 -8.15 -22.5 -10.95 Q-18.6 -15.75 -13.1 -18.75 L-11.75 -19.45 Q-5.35 -22.55 1.55 -22.65 L4.1 -22.5 4.6 -22.55 4.65 -22.55 6.6 -22.4 6.95 -22.25 8.3 -21.95 8.65 -22.0 10.9 -21.7 11.1 -21.65 11.6 -21.3 13.8 -20.3 14.25 -20.0 14.15 -19.9 14.15 -19.85 14.1 -19.8 14.1 -19.65 14.15 -19.6 14.15 -19.5 14.25 -19.45 14.35 -19.3 14.45 -19.3 14.7 -19.3 14.8 -19.35 14.9 -19.3 15.0 -18.9 15.15 -18.6 15.2 -18.55 15.35 -18.2 15.5 -18.05 15.55 -17.95 15.6 -17.9 15.4 -17.15 15.4 -17.05 15.5 -16.5 16.05 -16.25 19.7 -14.9 19.9 -14.75 20.3 -14.5 21.35 -13.7 22.4 -12.95 23.15 -12.1 23.3 -11.95 24.15 -10.65 24.25 -10.3 24.35 -9.85 24.8 -8.9 24.75 -8.6 24.8 -6.9 24.95 -6.8 Q25.05 -6.65 25.2 -6.65 L25.2 -6.5 25.3 -6.3 25.3 -6.1 Q25.3 -5.85 25.6 -5.65 L25.85 -4.8 25.65 -4.5 25.6 -3.85 25.95 -1.7 20.65 0.5 19.0 1.15 18.4 0.3 18.4 2.3 -10.95 6.95 -12.2 2.3 -12.75 2.8 Q-20.8 9.1 -26.7 10.9 L-29.45 11.5 -29.45 11.15 -29.45 11.1 -29.55 11.0 -29.6 10.95 -29.25 10.65 -29.05 10.65 Q-28.7 10.6 -28.55 10.3 L-28.45 10.2 -28.25 9.95 -28.15 9.9 -27.9 9.6 Q-27.7 9.6 -27.85 9.45 L-27.15 8.7 -27.1 8.55 -26.7 8.15 -26.4 7.85 -25.2 6.65 -22.3 3.75 -21.25 2.6 -19.7 1.15 -18.05 -0.3 -18.8 0.0 -19.3 0.05 -16.5 -0.9 -13.25 -2.25 Q-8.7 -3.85 -7.0 -7.0 -17.9 -0.2 -26.7 -0.5 L-30.35 -1.0 M25.95 -1.7 L26.0 -1.6 25.65 -1.45 25.95 -1.7 M27.1 13.6 L27.25 13.7 27.3 14.0 27.25 16.6 27.2 16.95 27.25 17.7 27.3 17.85 27.35 17.85 27.55 18.2 27.55 18.4 27.6 18.8 27.75 19.0 27.85 19.1 27.9 19.2 28.1 19.5 28.3 19.75 28.45 19.95 28.9 20.3 28.85 20.35 28.65 20.55 Q28.55 20.75 28.15 20.75 L27.95 20.8 27.7 20.6 27.05 20.25 26.65 20.15 25.9 19.9 25.55 19.7 25.4 19.55 25.35 19.55 25.1 19.2 25.2 19.15 25.3 19.15 25.35 19.1 25.4 19.1 25.55 19.2 28.1 20.65 28.2 20.65 28.25 20.65 28.45 20.45 28.45 20.3 Q27.25 19.2 27.1 17.5 L27.1 13.6" fill="#98cac1" fill-rule="evenodd" stroke="none"/>
      <path d="M24.45 18.6 L24.25 18.3 23.9 17.9 23.85 17.75 23.8 17.4 24.5 18.2 24.55 18.45 24.5 18.5 24.5 18.55 24.45 18.6 M23.3 16.75 L23.25 16.75 23.15 16.7 23.05 16.4 23.2 16.6 23.3 16.75 M14.45 -20.9 L14.5 -20.85 14.45 -20.85 14.45 -20.9 M-33.75 15.7 L-32.7 15.6 -33.55 15.85 -33.75 15.7 M-31.7 15.4 L-26.7 14.2 -25.3 13.8 -25.8 14.0 -28.8 14.9 -31.7 15.4" fill="#99cac1" fill-rule="evenodd" stroke="none"/>
      <path d="M-19.3 0.05 L-18.8 0.0 -18.05 -0.3 -19.7 1.15 -21.25 2.6 -22.3 3.75 -25.2 6.65 -26.4 7.85 -26.7 8.15 -27.1 8.55 -27.15 8.7 -27.85 9.45 Q-27.7 9.6 -27.9 9.6 L-28.15 9.9 -28.25 9.95 -28.45 10.2 -28.55 10.3 Q-28.7 10.6 -29.05 10.65 L-29.25 10.65 -29.6 10.95 Q-29.8 10.75 -30.1 10.95 L-30.25 11.05 -30.35 11.1 -31.45 11.1 -31.5 11.05 -31.65 11.0 -32.1 11.05 -32.2 11.0 -32.35 11.05 -32.65 10.9 -32.8 10.85 -33.1 10.85 -33.65 10.3 -34.2 10.2 -34.25 10.2 -34.35 10.2 -34.25 10.1 Q-31.6 8.15 -29.5 5.75 L-29.2 5.35 -29.15 5.45 -28.8 5.5 -28.6 5.3 -28.5 5.1 -28.35 4.2 -27.95 3.7 -27.75 3.4 -26.7 2.4 -26.1 1.9 -25.75 1.65 -25.3 1.35 -25.0 1.15 -24.35 0.8 -25.2 0.7 -22.7 0.55 -21.5 0.4 -20.45 0.25 -19.3 0.05 M18.4 2.3 L18.4 0.3 19.0 1.15 20.65 0.5 25.95 -1.7 25.65 -1.45 Q27.95 4.5 27.2 13.15 L27.1 13.0 27.1 13.6 27.1 17.5 Q27.25 19.2 28.45 20.3 L28.45 20.45 28.25 20.65 28.2 20.65 28.1 20.65 25.55 19.2 25.4 19.1 25.35 19.1 25.3 19.15 25.2 19.15 25.1 19.2 24.65 19.1 24.65 19.0 24.55 18.9 24.5 18.8 24.5 18.75 24.45 18.6 24.5 18.55 24.5 18.5 24.55 18.45 24.5 18.2 23.8 17.4 23.7 17.25 23.7 17.0 23.55 16.85 23.3 16.75 23.2 16.6 23.05 16.4 22.75 15.7 21.9 13.9 19.95 9.95 19.6 8.9 19.55 8.8 19.2 8.5 19.2 8.9 Q18.85 8.6 18.25 8.45 L18.2 8.4 18.15 8.4 18.4 2.3" fill="#64aa9d" fill-rule="evenodd" stroke="none"/>
      <path d="M19.95 9.95 L19.75 9.75 19.3 9.0 19.2 8.9 19.2 8.5 19.55 8.8 19.6 8.9 19.95 9.95" fill="#10211e" fill-rule="evenodd" stroke="none"/>
      <path d="M-29.45 11.5 L-26.7 10.9 Q-20.8 9.1 -12.75 2.8 L-23.65 13.1 -25.3 13.8 -26.7 14.2 -31.7 15.4 -32.45 15.55 -32.7 15.6 -33.75 15.7 -33.8 15.65 -33.75 15.6 -33.7 15.35 -33.7 15.3 -33.65 15.2 -33.65 14.8 -33.7 14.7 -33.7 14.65 -30.7 12.25 -30.35 11.95 -29.85 11.9 -29.6 11.7 -29.5 11.55 -29.45 11.5 M8.45 22.5 L8.35 22.4 8.25 22.25 8.35 22.15 8.8 22.65 8.45 22.5" fill="#389282" fill-rule="evenodd" stroke="none"/>
      <path d="M-30.35 -1.0 L-26.7 -0.5 Q-17.9 -0.2 -7.0 -7.0 -8.7 -3.85 -13.25 -2.25 L-16.5 -0.9 -19.3 0.05 -20.45 0.25 -21.5 0.4 -22.7 0.55 -25.2 0.7 -26.7 0.4 -26.75 0.4 -27.45 0.2 -27.5 0.1 -27.6 -0.05 -27.9 -0.2 -27.95 -0.15 -28.2 -0.05 Q-29.35 -0.45 -30.35 -1.0" fill="#63aa9d" fill-rule="evenodd" stroke="none"/>
      <path d="M15.35 -16.35 Q18.95 -15.75 21.75 -13.25 24.95 -10.45 24.95 -6.45" fill="none" stroke="#2485a2" stroke-linecap="round" stroke-linejoin="round" stroke-width="1.0"/>
      <path d="M-34.1 10.3 Q-31.6 11.35 -28.65 10.65" fill="none" stroke="#046480" stroke-linecap="round" stroke-linejoin="round" stroke-width="1.0"/>
      <path d="M-34.1 10.3 Q-31.4 8.35 -29.3 5.9" fill="none" stroke="#046480" stroke-linecap="round" stroke-linejoin="round" stroke-width="1.0"/>
      <path d="M-29.3 5.9 Q-25.7 0.5 -22.0 0.6" fill="none" stroke="#046480" stroke-linecap="round" stroke-linejoin="round" stroke-width="1.0"/>
      <path d="M-32.3 -3.6 Q-32.5 -2.6 -31.75 -2.2" fill="none" stroke="#2485a2" stroke-linecap="round" stroke-linejoin="round" stroke-width="1.0"/>
      <path d="M-31.75 -2.2 Q-26.4 1.85 -18.5 0.1" fill="none" stroke="#2485a2" stroke-linecap="round" stroke-linejoin="round" stroke-width="1.0"/>
      <path d="M-33.05 15.8 L-32.35 15.7 Q-25.1 14.5 -20.4 10.9" fill="none" stroke="#2485a1" stroke-linecap="round" stroke-linejoin="round" stroke-width="1.0"/>
      <path d="M-13.15 -2.25 Q-16.05 -1.8 -19.15 0.6 -22.3 3.0 -25.7 7.3 -28.65 10.9 -32.35 13.9 L-33.7 14.95 Q-33.9 15.6 -33.05 15.8" fill="none" stroke="#2485a2" stroke-linecap="round" stroke-linejoin="round" stroke-width="1.0"/>
      <path d="M-32.3 -3.6 Q-28.7 -2.95 -26.35 -5.25" fill="none" stroke="#2485a2" stroke-linecap="round" stroke-linejoin="round" stroke-width="1.0"/>
      <path d="M-26.35 -5.25 Q-22.6 -12.85 -13.35 -18.55" fill="none" stroke="#2485a2" stroke-linecap="round" stroke-linejoin="round" stroke-width="1.0"/>
      <path d="M-13.35 -18.55 Q-7.0 -22.35 2.25 -22.7" fill="none" stroke="#2485a2" stroke-linecap="round" stroke-linejoin="round" stroke-width="1.0"/>
      <path d="M2.25 -22.7 Q12.45 -22.6 15.0 -18.85 15.75 -17.7 15.2 -16.35" fill="none" stroke="#2485a2" stroke-linecap="round" stroke-linejoin="round" stroke-width="1.0"/>
      <path d="M13.1 -14.45 L15.15 -16.35" fill="none" stroke="#2485a2" stroke-linecap="round" stroke-linejoin="round" stroke-width="1.0"/>
      <path d="M18.4 8.05 L19.45 8.95" fill="none" stroke="#2485a2" stroke-linecap="round" stroke-linejoin="round" stroke-width="1.0"/>
      <path d="M19.45 8.95 L24.6 18.95" fill="none" stroke="#2485a2" stroke-linecap="round" stroke-linejoin="round" stroke-width="1.0"/>
      <path d="M24.6 18.95 L28.15 20.9" fill="none" stroke="#2485a2" stroke-linecap="round" stroke-linejoin="round" stroke-width="1.0"/>
      <path d="M28.15 20.9 L28.8 20.4" fill="none" stroke="#2485a2" stroke-linecap="round" stroke-linejoin="round" stroke-width="1.0"/>
      <path d="M27.3 12.7 L27.3 17.5" fill="none" stroke="#2485a2" stroke-linecap="round" stroke-linejoin="round" stroke-width="1.0"/>
      <path d="M27.3 17.5 Q27.45 19.35 28.8 20.4" fill="none" stroke="#2485a2" stroke-linecap="round" stroke-linejoin="round" stroke-width="1.0"/>
    </g>
    <g id="sprite3">
      <use ffdec:characterId="25" height="23.9" transform="matrix(1.0, 0.0, 0.0, 1.0, 0.0, 0.0)" width="19.2" xlink:href="#shape3"/>
    </g>
    <g id="shape3">
      <path d="M0.95 9.05 L0.9 9.1 0.8 9.0 0.75 9.0 0.6 8.95 0.4 8.95 0.4 8.75 0.35 8.75 -0.2 8.35 Q-4.2 5.45 -6.45 -1.0 L-6.45 -1.05 -6.5 -1.1 -11.0 -7.5 Q-8.1 -16.2 -2.05 -11.1 L-2.05 -10.6 -1.5 -10.6 -1.45 -10.3 -1.4 -9.35 -1.25 -9.05 -1.15 -8.1 -1.0 -7.65 -0.8 -6.75 -0.65 -6.6 -0.9 -5.5 -0.7 -5.6 -0.25 -2.75 0.45 -0.45 0.5 0.1 0.55 0.85 0.7 1.0 0.85 1.4 1.05 1.7 1.1 1.75 Q1.05 1.9 1.15 2.05 L1.35 2.25 1.75 3.1 2.1 3.6 2.25 3.7 2.7 4.5 3.25 5.4 3.3 5.7 3.35 5.75 3.35 5.85 3.4 5.9 3.5 6.05 3.5 6.15 3.6 6.2 3.6 6.3 3.7 6.35 3.7 6.45 3.8 6.5 3.8 6.6 4.05 6.7 4.05 6.8 4.2 6.8 4.35 6.85 5.45 8.1 6.0 8.45 6.95 9.4 7.4 9.65 7.35 10.25 7.3 10.45 5.35 10.35 4.25 10.1 3.15 9.95 2.7 9.95 2.25 9.7 2.0 9.7 2.0 9.6 2.05 9.5 2.0 9.35 2.0 9.3 1.9 9.25 1.9 9.2 Q1.65 8.95 1.35 9.05 L1.3 9.05 1.1 9.1 1.0 9.05 0.95 9.05" fill="#98cac1" fill-rule="evenodd" stroke="none"/>
      <path d="M-6.35 -1.1 Q-5.4 1.65 -4.15 3.75 -1.1 8.85 3.9 10.1 L5.5 10.4" fill="none" stroke="#2485a2" stroke-linecap="round" stroke-linejoin="round" stroke-width="1.0"/>
      <path d="M5.5 10.4 L7.35 10.4" fill="none" stroke="#2485a2" stroke-linecap="round" stroke-linejoin="round" stroke-width="1.0"/>
      <path d="M7.35 10.4 Q8.2 9.65 7.1 9.25" fill="none" stroke="#2485a2" stroke-linecap="round" stroke-linejoin="round" stroke-width="1.0"/>
      <path d="M7.1 9.25 Q1.05 5.9 -0.9 -5.55" fill="none" stroke="#2485a2" stroke-linecap="round" stroke-linejoin="round" stroke-width="1.0"/>
      <path d="M-1.75 -10.45 Q-0.65 -8.5 -0.9 -5.6" fill="none" stroke="#2485a2" stroke-linecap="round" stroke-linejoin="round" stroke-width="1.0"/>
    </g>
    <g id="sprite4">
      <use ffdec:characterId="7" height="25.1" transform="matrix(1.0, 0.0, 0.0, 1.0, 0.0, 0.0)" width="10.55" xlink:href="#shape4"/>
    </g>
    <g id="shape4">
      <path d="M-3.15 -6.6 L-2.9 -9.05 -2.4 -8.0 -2.2 -7.55 -2.2 -12.45 4.15 -12.5 5.1 -10.85 5.0 -8.95 4.75 -2.0 4.65 -2.05 4.65 -2.0 4.7 -2.0 4.75 -1.85 4.7 -0.9 Q4.6 0.7 4.15 2.3 L3.35 4.55 3.35 4.65 3.3 4.65 3.2 4.9 2.6 6.25 Q0.55 9.55 -2.05 10.7 1.1 6.35 -0.1 0.55 -1.35 -5.35 -3.15 -6.6" fill="#99cac1" fill-rule="evenodd" stroke="none"/>
      <path d="M-3.15 -6.6 Q-1.35 -5.35 -0.1 0.55 1.1 6.35 -2.05 10.7 0.55 9.55 2.6 6.25 L2.05 7.5 2.05 7.7 1.8 8.1 1.5 8.45 1.2 9.0 Q0.2 10.7 -1.55 11.7 L-2.2 12.05 -3.55 12.55 -3.75 12.55 -4.6 12.2 -5.05 11.7 -5.0 11.65 -2.75 9.15 -2.2 7.95 Q-1.7 6.55 -1.6 4.8 L-1.6 4.65 Q-1.55 3.75 -1.65 2.75 L-1.65 2.7 Q-1.7 0.6 -1.9 -0.95 L-2.05 -1.9 -2.05 -1.95 -2.15 -2.5 -2.2 -2.7 -3.15 -6.6" fill="#389282" fill-rule="evenodd" stroke="none"/>
      <path d="M-4.55 -6.8 Q-1.65 -5.8 -1.35 2.7" ffdec:has-small-stroke="true" ffdec:original-stroke-width="0.5" fill="none" stroke="#2485a2" stroke-linecap="round" stroke-linejoin="round" stroke-width="0.9759057457802286"/>
      <path d="M-1.35 2.7 Q-1.2 5.0 -1.55 6.85 L-2.5 9.3" ffdec:has-small-stroke="true" ffdec:original-stroke-width="0.5" fill="none" stroke="#2485a2" stroke-linecap="round" stroke-linejoin="round" stroke-width="0.9759057457802286"/>
      <path d="M-2.5 9.3 L-4.85 11.85" ffdec:has-small-stroke="true" ffdec:original-stroke-width="0.5" fill="none" stroke="#2485a2" stroke-linecap="round" stroke-linejoin="round" stroke-width="0.9759057457802286"/>
      <path d="M-4.85 11.85 L-3.65 12.35" ffdec:has-small-stroke="true" ffdec:original-stroke-width="0.5" fill="none" stroke="#2485a2" stroke-linecap="round" stroke-linejoin="round" stroke-width="0.9759057457802286"/>
      <path d="M-3.65 12.35 Q-0.1 11.3 1.3 8.35" ffdec:has-small-stroke="true" ffdec:original-stroke-width="0.5" fill="none" stroke="#2485a2" stroke-linecap="round" stroke-linejoin="round" stroke-width="0.9759057457802286"/>
      <path d="M1.3 8.35 Q4.65 3.95 5.0 -1.65" ffdec:has-small-stroke="true" ffdec:original-stroke-width="0.5" fill="none" stroke="#2485a2" stroke-linecap="round" stroke-linejoin="round" stroke-width="0.9759057457802286"/>
      <path d="M5.0 -1.4 Q5.45 -6.15 4.95 -9.55" ffdec:has-small-stroke="true" ffdec:original-stroke-width="0.5" fill="none" stroke="#2485a2" stroke-linecap="round" stroke-linejoin="round" stroke-width="0.9759057457802286"/>
      <path d="M5.0 -9.55 Q4.75 -11.1 4.25 -11.85" ffdec:has-small-stroke="true" ffdec:original-stroke-width="0.5" fill="none" stroke="#2485a2" stroke-linecap="round" stroke-linejoin="round" stroke-width="0.9759057457802286"/>
    </g>
    <g id="sprite5">
      <use ffdec:characterId="10" height="21.3" transform="matrix(1.0, 0.0, 0.0, 1.0, 0.0, 0.0)" width="26.05" xlink:href="#sprite6"/>
    </g>
    <g id="sprite6">
      <use ffdec:characterId="9" height="21.3" transform="matrix(1.0, 0.0, 0.0, 1.0, 0.0, 0.0)" width="26.05" xlink:href="#shape5"/>
    </g>
    <g id="shape5">
      <path d="M9.3 -7.05 L8.7 -6.4 7.4 -4.8 Q4.15 -1.15 1.25 1.3 -4.4 6.0 -9.3 6.2 L-7.55 4.4 -7.25 4.0 -7.15 3.9 -7.05 3.75 -7.05 3.6 -6.75 3.45 -6.4 3.35 -6.2 3.25 -6.0 3.2 -5.75 2.95 -5.75 2.85 -5.7 2.8 -5.7 2.65 -5.6 2.6 -5.6 2.5 -5.55 2.45 -5.5 2.25 -5.5 2.2 -5.55 2.15 4.4 -7.95 3.75 -7.45 7.15 -10.65 13.0 -10.65 11.8 -9.65 9.3 -7.05 M3.8 0.9 L6.15 -2.3 5.7 -1.55 4.95 -0.55 3.8 0.9" fill="#99cac1" fill-rule="evenodd" stroke="none"/>
      <path d="M-9.3 6.2 Q-4.4 6.0 1.25 1.3 4.15 -1.15 7.4 -4.8 L8.7 -6.4 9.3 -7.05 9.45 -7.2 8.9 -6.5 8.5 -5.95 7.75 -4.8 7.0 -3.7 6.15 -2.3 3.8 0.9 3.4 1.35 1.85 3.1 Q-1.15 6.15 -4.25 8.0 -7.2 9.75 -10.2 10.45 L-11.5 10.65 -12.8 10.65 -12.95 10.6 -13.05 10.45 -13.0 10.2 -11.3 7.8 -10.2 7.05 -10.15 7.0 -9.9 6.8 -9.3 6.2 M3.75 -7.45 L4.4 -7.95 -5.55 2.15 -5.6 2.0 -5.7 2.0 -5.75 1.95 -6.1 1.95 -6.15 2.0 -6.2 2.0 -6.45 2.25 -6.6 2.35 3.75 -7.45 M-7.15 2.85 L-6.75 2.5 -6.8 2.55 -6.9 2.65 -6.9 2.7 -7.15 2.85" fill="#389282" fill-rule="evenodd" stroke="none"/>
      <path d="M7.5 -4.6 L6.95 -3.75 3.85 0.4 3.45 0.85 Q-3.3 8.8 -10.55 10.2 L-11.05 10.3 -11.55 10.35 -12.8 10.4 -10.95 7.7 -3.9 0.75" ffdec:has-small-stroke="true" ffdec:original-stroke-width="0.5" fill="none" stroke="#2485a2" stroke-linecap="round" stroke-linejoin="round" stroke-width="0.9759057457802286"/>
    </g>
    <g id="sprite7">
      <use ffdec:characterId="12" height="21.75" transform="matrix(1.0, 0.0, 0.0, 1.0, 0.0, 0.0)" width="22.25" xlink:href="#shape6"/>
    </g>
    <g id="shape6">
      <path d="M3.15 -8.15 Q-4.65 -2.2 -10.5 10.7 L-10.9 10.8 -10.95 10.85 -11.0 10.8 -11.0 10.75 -10.95 10.6 -10.95 10.45 Q-10.0 6.05 -8.0 2.0 L-6.85 -0.15 Q-5.15 -3.0 -2.8 -5.0 0.35 -7.8 4.0 -8.8 L3.15 -8.15" fill="#389282" fill-rule="evenodd" stroke="none"/>
      <path d="M3.15 -8.15 L5.2 -9.05 Q7.8 -10.15 10.55 -10.85 L10.8 -10.25 Q12.0 -6.6 6.05 0.2 L6.0 0.05 5.85 0.0 5.7 0.0 5.4 0.45 5.3 0.8 5.2 0.95 5.15 1.2 Q4.55 1.6 3.95 2.7 3.3 2.85 2.8 3.4 L2.25 4.1 1.65 4.45 1.4 4.75 0.8 5.3 0.45 5.5 0.1 5.55 -1.1 6.55 -3.65 7.9 -4.1 8.4 -4.55 8.55 -5.15 8.8 -5.85 9.05 -5.95 9.1 -6.25 9.25 -6.95 9.55 -7.35 9.75 -8.15 10.15 -8.25 10.05 -8.5 10.2 -8.95 10.35 -9.05 10.35 -9.2 10.4 -9.4 10.4 -9.55 10.45 -9.75 10.45 -10.3 10.65 -10.5 10.7 Q-4.65 -2.2 3.15 -8.15 M-10.95 10.45 L-10.95 9.4 -9.95 6.6 -10.0 6.6 -9.9 6.3 -9.8 5.9 -9.8 5.75 -9.35 4.25 -8.9 3.1 -7.6 0.95 -6.85 -0.15 -8.0 2.0 Q-10.0 6.05 -10.95 10.45" fill="#99cac1" fill-rule="evenodd" stroke="none"/>
      <path d="M6.85 -1.05 Q1.0 6.9 -9.35 10.4 -11.0 11.0 -11.0 10.15 L-9.8 6.7 Q-8.85 2.5 -6.6 -0.7 -4.8 -3.4 -2.1 -5.5" ffdec:has-small-stroke="true" ffdec:original-stroke-width="0.5" fill="none" stroke="#2485a2" stroke-linecap="round" stroke-linejoin="round" stroke-width="0.9759057457802286"/>
    </g>
    <g id="sprite8">
      <use ffdec:characterId="14" height="17.9" transform="matrix(1.0, 0.0, 0.0, 1.0, 0.0, 0.0)" width="17.05" xlink:href="#shape7"/>
    </g>
    <g id="shape7">
      <path d="M1.85 -7.55 L2.3 -7.8 2.5 -7.9 3.3 -8.2 3.45 -8.25 4.1 -8.45 4.25 -8.5 4.3 -8.55 4.6 -8.65 4.7 -8.65 4.85 -8.7 5.3 -8.75 5.5 -8.75 Q6.6 -8.9 7.35 -8.4 L7.45 -8.35 7.75 -8.1 Q9.0 -7.05 7.85 -4.1 L7.8 -3.9 7.75 -3.75 Q6.7 -1.35 4.65 1.25 L3.35 2.7 Q1.15 5.1 -0.8 6.6 L-1.85 7.3 -2.65 7.75 -3.35 8.15 -5.55 8.75 -6.45 8.85 Q-4.75 7.65 -3.3 5.9 0.3 1.3 1.85 -7.55 M-8.2 8.7 L-8.4 8.65 -8.25 8.55 -8.2 8.7" fill="#99cac1" fill-rule="evenodd" stroke="none"/>
      <path d="M-8.25 8.55 L-8.05 8.35 -6.65 6.9 -6.1 6.25 -5.8 5.9 Q-3.2 2.4 -1.3 -2.7 L-1.25 -2.85 -0.85 -4.0 -0.75 -4.25 -0.6 -4.65 1.6 -7.4 2.0 -8.6 1.85 -7.55 Q0.3 1.3 -3.3 5.9 -4.75 7.65 -6.45 8.85 L-7.35 8.8 -8.05 8.75 -8.2 8.7 -8.25 8.55" fill="#389282" fill-rule="evenodd" stroke="none"/>
      <path d="M-8.25 8.55 L-8.05 8.35 -6.65 6.9 -6.1 6.25 -5.8 5.9 Q-3.2 2.4 -1.3 -2.7 L-1.25 -2.85 -0.85 -4.0 -0.75 -4.25 M7.8 -3.9 L7.75 -3.75 Q6.7 -1.35 4.65 1.25 L3.35 2.7 Q1.15 5.1 -0.8 6.6 L-1.85 7.3 -2.65 7.75 -3.35 8.15 -5.55 8.75 -6.45 8.85 -7.35 8.8 -8.05 8.75 -8.2 8.7 -8.4 8.65 -8.25 8.55" ffdec:has-small-stroke="true" ffdec:original-stroke-width="0.5" fill="none" stroke="#2485a2" stroke-linecap="round" stroke-linejoin="round" stroke-width="0.9759057457802286"/>
    </g>
    <g id="sprite9">
      <use ffdec:characterId="29" height="7.35" transform="matrix(1.0, 0.0, 0.0, 1.0, 9.2, 0.0)" width="23.75" xlink:href="#sprite10"/>
      <use ffdec:characterId="31" height="5.15" transform="matrix(1.0, 0.0, 0.0, 1.0, -17.2, 0.6)" width="17.6" xlink:href="#sprite11"/>
    </g>
    <g id="sprite10">
      <use ffdec:characterId="28" height="7.35" transform="matrix(1.0, 0.0, 0.0, 1.0, 0.0, 0.0)" width="23.75" xlink:href="#shape8"/>
    </g>
    <g id="shape8">
      <path d="M12.1 -1.7 Q10.0 2.3 -11.65 1.95 9.05 -0.35 8.8 -5.35 11.5 -3.15 12.1 -1.7" fill="#d9f1ff" fill-rule="evenodd" stroke="none"/>
    </g>
    <g id="sprite11">
      <use ffdec:characterId="30" height="5.15" transform="matrix(1.0, 0.0, 0.0, 1.0, 0.0, 0.0)" width="17.6" xlink:href="#shape9"/>
    </g>
    <g id="shape9">
      <path d="M-6.8 -0.65 Q-5.9 -2.25 -4.4 -3.55 -4.3 0.25 10.8 1.55 -4.6 2.0 -6.8 -0.65" fill="#ffffff" fill-rule="evenodd" stroke="none"/>
    </g>
  </defs>
</svg>
