<?xml version="1.0" encoding="UTF-8" standalone="no"?>
<svg xmlns:ffdec="https://www.free-decompiler.com/flash" xmlns:xlink="http://www.w3.org/1999/xlink" ffdec:objectType="frame" height="54.85px" width="58.55px" xmlns="http://www.w3.org/2000/svg">
  <g transform="matrix(1.0, 0.0, 0.0, 1.0, 29.65, 37.35)">
    <use ffdec:characterId="17" height="25.2" transform="matrix(0.95, 0.0, 0.0, 0.95, -25.05, -3.0)" width="54.25" xlink:href="#sprite0"/>
    <use ffdec:characterId="21" height="41.65" transform="matrix(0.95, 0.0, 0.0, 0.95, -23.6, -24.4)" width="53.4" xlink:href="#sprite1"/>
    <use ffdec:characterId="25" height="57.75" transform="matrix(0.95, 0.0, 0.0, 0.95, -29.0, -41.2)" width="61.65" xlink:href="#sprite4"/>
  </g>
  <defs>
    <g id="sprite0">
      <use ffdec:characterId="16" height="25.2" transform="matrix(1.0, 0.0, 0.0, 1.0, 0.0, 0.0)" width="54.25" xlink:href="#shape0"/>
    </g>
    <g id="shape0">
      <path d="M10.15 14.0 Q13.1 16.45 16.65 17.4 L21.9 18.6 25.05 18.9 20.65 20.35 17.0 20.9 Q15.05 21.15 10.65 18.35 7.85 17.25 5.4 15.7 L3.05 14.05 Q-5.9 6.7 5.25 -4.3 3.6 5.15 6.6 10.15 7.2 11.45 10.15 14.0" fill="#7e7e7e" fill-rule="evenodd" stroke="none"/>
      <path d="M42.2 14.0 Q39.25 16.45 35.7 17.4 L30.45 18.6 27.3 18.9 Q30.05 20.05 31.7 20.35 L35.35 20.9 Q37.3 21.15 41.7 18.35 44.5 17.25 46.95 15.7 L49.3 14.05 Q58.25 6.7 47.1 -4.3 48.75 5.15 45.75 10.15 45.15 11.45 42.2 14.0" fill="#7e7e7e" fill-rule="evenodd" stroke="none"/>
    </g>
    <g id="sprite1">
      <use ffdec:characterId="4" height="23.95" transform="matrix(1.0, 0.0, 0.0, 1.0, 0.0, 15.75)" width="16.5" xlink:href="#sprite2"/>
      <use ffdec:characterId="4" height="23.95" transform="matrix(-0.9991, -0.0163, -0.0505, 0.9862, 49.8, 15.95)" width="16.5" xlink:href="#sprite3"/>
      <use ffdec:characterId="18" height="33.85" transform="matrix(1.0, 0.0, 0.0, 1.0, 0.0, 0.0)" width="45.25" xlink:href="#shape3"/>
      <clipPath id="clipPath0">
        <path d="M 20.75 0 L 14.5 1.5 L 8.5 5.15 L 6.3 8.1 L 5.78 8.81 L 5.28 9.52 L 4.8 10.26 L 4.35 11 L 3.92 11.76 L 3.53 12.52 L 3.15 13.31 L 2.8 14.1 L 2.68 14.39 L 2.58 14.69 L 2.49 14.98 L 2.42 15.27 L 2.36 15.56 L 2.32 15.85 L 2.29 16.14 L 2.28 16.42 L 2.28 16.71 L 2.29 17 L 2.32 17.28 L 2.37 17.57 L 2.43 17.85 L 2.5 18.14 L 2.59 18.42 L 2.7 18.7 L 2.24 19.46 L 1.82 20.19 L 1.45 20.9 L 1.12 21.58 L 0.85 22.22 L 0.62 22.84 L 0.44 23.44 L 0.3 24 L 0.17 24.79 L 0.07 25.56 L 0.01 26.3 L -0.01 27.02 L -0 27.73 L 0.05 28.41 L 0.13 29.06 L 0.25 29.7 L 0.38 30.33 L 0.48 30.92 L 0.55 31.48 L 0.57 32 L 0.57 32.48 L 0.53 32.92 L 0.5 33.13 L 0.46 33.33 L 0.41 33.52 L 0.35 33.7 L 3.05 32.3 L 2.85 31.8 L 2.79 31.45 L 2.75 31.12 L 2.73 30.81 L 2.73 30.52 L 2.76 30.24 L 2.8 29.98 L 2.86 29.74 L 2.94 29.51 L 3.04 29.31 L 3.16 29.12 L 3.3 28.94 L 3.46 28.79 L 3.64 28.65 L 3.84 28.54 L 4.06 28.43 L 4.3 28.35 L 4.47 28.71 L 4.66 29.07 L 4.86 29.42 L 5.07 29.76 L 5.29 30.1 L 5.52 30.44 L 5.76 30.77 L 6.01 31.1 L 6.28 31.42 L 6.55 31.74 L 6.84 32.05 L 7.14 32.36 L 7.45 32.67 L 7.77 32.97 L 8.11 33.26 L 8.45 33.55 L 8.38 33.33 L 8.31 33.09 L 8.25 32.83 L 8.2 32.54 L 8.11 31.9 L 8.04 31.16 L 7.99 30.34 L 7.97 29.42 L 7.97 28.4 L 8 27.3 L 8.02 26.73 L 8.05 26.16 L 8.09 25.61 L 8.14 25.06 L 8.21 24.51 L 8.29 23.98 L 8.37 23.45 L 8.48 22.92 L 8.59 22.41 L 8.71 21.9 L 8.85 21.4 L 8.99 20.91 L 9.15 20.42 L 9.32 19.94 L 9.51 19.47 L 9.7 19 L 9.7 19 L 9.57 19.69 L 9.45 20.37 L 9.35 21.06 L 9.27 21.74 L 9.19 22.42 L 9.14 23.1 L 9.09 23.77 L 9.06 24.45 L 9.05 25.12 L 9.05 25.8 L 9.06 26.47 L 9.09 27.14 L 9.13 27.81 L 9.19 28.47 L 9.26 29.14 L 9.35 29.8 L 12.15 25.2 L 12.46 24.68 L 12.78 24.13 L 13.09 23.56 L 13.4 22.96 L 13.72 22.34 L 14.03 21.7 L 14.66 20.35 L 15.29 18.9 L 15.93 17.36 L 16.56 15.73 L 17.2 14 L 17.2 14 L 17.14 14.78 L 17.08 15.53 L 17 16.26 L 16.91 16.98 L 16.81 17.66 L 16.7 18.33 L 16.58 18.98 L 16.45 19.6 L 15.45 24.05 L 15.86 23.92 L 16.28 23.75 L 16.71 23.54 L 17.16 23.3 L 17.63 23.02 L 18.1 22.7 L 18.59 22.34 L 19.1 21.95 L 19.35 21.73 L 19.6 21.51 L 19.84 21.28 L 20.07 21.04 L 20.3 20.79 L 20.52 20.53 L 20.73 20.27 L 20.94 20 L 21.33 19.43 L 21.7 18.84 L 22.04 18.21 L 22.35 17.55 L 22.35 17.55 L 22.1 18.95 L 22.08 19.48 L 22.08 20.03 L 22.11 20.6 L 22.16 21.17 L 22.24 21.77 L 22.35 22.38 L 22.49 23.01 L 22.65 23.65 L 26.5 18.25 L 29.35 14.35 L 29.35 14.35 L 29.14 15.22 L 28.97 16.09 L 28.84 16.96 L 28.74 17.83 L 28.67 18.69 L 28.65 19.54 L 28.66 20.4 L 28.7 21.25 L 29.55 20.15 L 31.6 17 L 31.77 16.7 L 31.95 16.38 L 32.12 16.04 L 32.29 15.68 L 32.64 14.88 L 32.97 14 L 33.31 13.03 L 33.64 11.98 L 33.97 10.83 L 34.3 9.6 L 36.95 16.65 L 37.21 17.55 L 37.46 18.54 L 37.71 19.63 L 37.95 20.81 L 38.18 22.09 L 38.41 23.47 L 38.63 24.94 L 38.85 26.5 L 39.03 26.25 L 39.21 25.97 L 39.37 25.67 L 39.53 25.35 L 39.67 25 L 39.81 24.64 L 39.93 24.25 L 40.05 23.84 L 40.16 23.4 L 40.26 22.95 L 40.35 22.47 L 40.42 21.97 L 40.5 21.45 L 40.56 20.91 L 40.61 20.34 L 40.65 19.75 L 40.78 20.11 L 40.9 20.48 L 41.01 20.87 L 41.11 21.27 L 41.2 21.69 L 41.28 22.12 L 41.34 22.56 L 41.4 23.02 L 41.44 23.5 L 41.48 23.99 L 41.5 24.5 L 41.51 25.02 L 41.51 25.55 L 41.5 26.1 L 41.48 26.67 L 41.45 27.25 L 41.37 28.37 L 41.28 29.38 L 41.17 30.27 L 41.05 31.05 L 40.92 31.72 L 40.85 32.01 L 40.78 32.28 L 40.7 32.51 L 40.62 32.72 L 40.54 32.9 L 40.45 33.05 L 41.14 32.47 L 41.8 31.89 L 42.41 31.31 L 42.99 30.73 L 43.52 30.14 L 44.02 29.54 L 44.48 28.95 L 44.9 28.35 L 45.13 28.44 L 45.34 28.55 L 45.52 28.67 L 45.69 28.81 L 45.84 28.96 L 45.97 29.13 L 46.07 29.32 L 46.16 29.52 L 46.23 29.75 L 46.28 29.98 L 46.31 30.24 L 46.32 30.51 L 46.3 30.79 L 46.27 31.1 L 46.22 31.41 L 46.15 31.75 L 45.9 32.2 L 46.17 32.42 L 46.46 32.63 L 46.76 32.83 L 47.09 33.01 L 47.43 33.19 L 47.78 33.35 L 48.16 33.51 L 48.55 33.65 L 48.5 33.47 L 48.46 33.28 L 48.42 33.08 L 48.4 32.88 L 48.38 32.44 L 48.4 31.96 L 48.46 31.45 L 48.55 30.9 L 48.68 30.32 L 48.85 29.7 L 49 29.08 L 49.11 28.43 L 49.19 27.76 L 49.24 27.08 L 49.25 26.36 L 49.23 25.63 L 49.18 24.88 L 49.1 24.1 L 48.99 23.58 L 48.85 23.02 L 48.67 22.45 L 48.45 21.85 L 48.19 21.23 L 47.9 20.58 L 47.57 19.9 L 47.2 19.2 L 47.18 18.86 L 47.15 18.55 L 47.11 18.27 L 47.06 18.01 L 47 17.78 L 46.93 17.58 L 46.84 17.4 L 46.75 17.25 L 46.54 16.96 L 46.34 16.7 L 46.14 16.48 L 45.95 16.3 L 45.77 16.16 L 45.59 16.05 L 45.42 15.98 L 45.25 15.95 L 45.24 15.41 L 45.21 14.88 L 45.17 14.34 L 45.1 13.81 L 45.02 13.28 L 44.91 12.75 L 44.79 12.23 L 44.65 11.7 L 44.42 11.01 L 44.16 10.33 L 43.87 9.68 L 43.55 9.04 L 43.2 8.41 L 42.81 7.81 L 42.4 7.22 L 41.95 6.65 L 41.46 6.1 L 40.95 5.58 L 40.42 5.1 L 39.86 4.64 L 39.28 4.21 L 38.68 3.81 L 38.05 3.44 L 37.4 3.1 L 36.75 2.8 L 36.08 2.51 L 35.41 2.24 L 34.74 1.99 L 34.05 1.75 L 33.36 1.53 L 32.66 1.33 L 31.95 1.15 L 31.25 0.96 L 30.56 0.8 L 29.87 0.66 L 29.19 0.55 L 28.5 0.46 L 27.82 0.4 L 27.14 0.36 L 26.47 0.35 L 26.15 0.35 L 20.75 0 Z M 39.95 34.45 L 39.05 35.2 L 38.8 38.4 L 39.19 38.13 L 39.58 37.83 L 39.94 37.48 L 40.3 37.1 L 40.64 36.68 L 40.97 36.22 L 41.29 35.73 L 41.6 35.2 L 41.38 35.19 L 41.16 35.15 L 40.95 35.09 L 40.74 35.01 L 40.53 34.91 L 40.33 34.78 L 40.14 34.63 L 39.95 34.45 Z M 8.9 34.65 L 8.71 34.81 L 8.52 34.96 L 8.33 35.08 L 8.13 35.18 L 7.93 35.25 L 7.73 35.31 L 7.52 35.34 L 7.31 35.35 L 7.2 35.35 L 7.2 35.35 L 7.48 35.9 L 7.78 36.42 L 8.09 36.89 L 8.41 37.33 L 8.75 37.72 L 9.1 38.07 L 9.28 38.23 L 9.47 38.38 L 9.66 38.52 L 9.85 38.65 L 9.75 35.4 L 8.9 34.65 Z M 38.05 36.2 L 35.15 38.25 L 33.6 39 L 33.35 40.75 L 33.94 40.41 L 34.5 40.05 L 35.01 39.69 L 35.49 39.31 L 35.92 38.93 L 36.32 38.53 L 36.68 38.12 L 37 37.7 L 38.05 36.2 Z M 10.7 36.45 L 11.7 38 L 11.99 38.43 L 12.33 38.85 L 12.7 39.26 L 13.11 39.66 L 13.56 40.05 L 14.05 40.43 L 14.58 40.79 L 15.15 41.15 L 15 39.4 L 13.5 38.55 L 12.89 38.16 L 12.23 37.67 L 11.49 37.11 L 10.7 36.45 Z"/>
      </clipPath>
      <g clip-path="url(#clipPath0)">
        <use ffdec:characterId="20" height="29.1" transform="matrix(1.0, 0.0, 0.0, 1.0, 0.0, 0.0)" width="51.75" xlink:href="#shape4"/>
      </g>
    </g>
    <g id="sprite2">
      <use ffdec:characterId="3" height="23.95" transform="matrix(1.0, 0.0, 0.0, 1.0, 0.0, 0.0)" width="16.5" xlink:href="#shape1"/>
    </g>
    <g id="shape1">
      <path d="M9.5 22.65 Q4.7 19.85 2.6 16.45 0.4 13.0 1.45 11.95 2.5 10.85 4.45 9.45 4.75 13.65 8.35 18.2 10.2 20.45 13.25 22.2 L9.5 22.65 M4.5 21.2 L4.4 21.15 4.05 20.9 4.5 21.2" fill="#714c33" fill-rule="evenodd" stroke="none"/>
      <path d="M9.5 22.65 Q11.15 24.3 14.5 24.95 11.05 26.45 6.55 24.55 2.05 22.6 -0.9 16.8 -3.9 10.95 4.65 1.95 4.1 6.15 4.45 9.45 2.5 10.85 1.45 11.95 0.4 13.0 2.6 16.45 4.7 19.85 9.5 22.65 M4.5 21.2 L4.05 20.9 4.4 21.15 4.5 21.2" fill="#482f1e" fill-rule="evenodd" stroke="none"/>
      <path d="M4.45 9.45 Q4.1 6.15 4.65 1.95 -3.9 10.95 -0.9 16.8 2.05 22.6 6.55 24.55 11.05 26.45 14.5 24.95 11.15 24.3 9.5 22.65 L13.25 22.2 Q10.2 20.45 8.35 18.2 4.75 13.65 4.45 9.45 Z" ffdec:has-small-stroke="true" ffdec:original-stroke-width="0.3" fill="none" stroke="#472915" stroke-linecap="round" stroke-linejoin="round" stroke-width="1.0526349604073306"/>
    </g>
    <g id="sprite3">
      <use ffdec:characterId="3" height="23.95" transform="matrix(1.0, 0.0, 0.0, 1.0, 0.0, 0.0)" width="16.5" xlink:href="#shape2"/>
    </g>
    <g id="shape2">
      <path d="M9.5 22.65 Q4.7 19.85 2.6 16.45 0.4 13.0 1.45 11.95 2.5 10.85 4.45 9.45 4.75 13.65 8.35 18.2 10.2 20.45 13.25 22.2 L9.5 22.65 M4.5 21.2 L4.4 21.15 4.05 20.9 4.5 21.2" fill="#714c33" fill-rule="evenodd" stroke="none"/>
      <path d="M9.5 22.65 Q11.15 24.3 14.5 24.95 11.05 26.45 6.55 24.55 2.05 22.6 -0.9 16.8 -3.9 10.95 4.65 1.95 4.1 6.15 4.45 9.45 2.5 10.85 1.45 11.95 0.4 13.0 2.6 16.45 4.7 19.85 9.5 22.65 M4.5 21.2 L4.05 20.9 4.4 21.15 4.5 21.2" fill="#482f1e" fill-rule="evenodd" stroke="none"/>
      <path d="M4.45 9.45 Q4.1 6.15 4.65 1.95 -3.9 10.95 -0.9 16.8 2.05 22.6 6.55 24.55 11.05 26.45 14.5 24.95 11.15 24.3 9.5 22.65 L13.25 22.2 Q10.2 20.45 8.35 18.2 4.75 13.65 4.45 9.45 Z" ffdec:has-small-stroke="true" ffdec:original-stroke-width="0.3" fill="none" stroke="#472915" stroke-linecap="round" stroke-linejoin="round" stroke-width="1.0599827148412888"/>
    </g>
    <g id="shape3">
      <path d="M8.0 27.3 Q7.85 31.9 8.45 33.55 3.6 29.55 3.05 23.75 2.75 20.85 2.95 19.25 1.65 16.75 2.8 14.1 4.15 10.9 6.3 8.1 L8.5 5.15 14.5 1.5 20.75 0.0 26.15 0.35 Q29.0 0.3 31.95 1.15 34.8 1.85 37.4 3.1 40.05 4.4 41.95 6.65 43.8 8.9 44.65 11.7 45.25 13.8 45.25 15.95 45.9 16.0 46.75 17.25 47.6 18.5 46.8 23.55 46.0 28.55 40.45 33.05 41.15 31.95 41.45 27.25 41.75 22.55 40.65 19.75 40.35 24.55 38.85 26.5 38.0 20.05 36.95 16.65 L34.3 9.6 Q33.0 14.7 31.6 17.0 L29.55 20.15 28.7 21.25 Q28.45 17.85 29.35 14.35 L26.5 18.25 22.65 23.65 Q21.95 21.05 22.1 18.95 L22.35 17.55 Q21.15 20.25 19.1 21.95 17.05 23.6 15.45 24.05 L16.45 19.6 Q17.0 17.15 17.2 14.0 14.65 21.1 12.15 25.2 L9.35 29.8 Q8.6 24.5 9.7 19.0 8.1 22.7 8.0 27.3" fill="#714c33" fill-rule="evenodd" stroke="none"/>
      <path d="M8.0 27.3 Q7.85 31.9 8.45 33.55 3.6 29.55 3.05 23.75 2.75 20.85 2.95 19.25 1.65 16.75 2.8 14.1 4.15 10.9 6.3 8.1 L8.5 5.15 14.5 1.5 20.75 0.0 26.15 0.35 Q29.0 0.3 31.95 1.15 34.8 1.85 37.4 3.1 40.05 4.4 41.95 6.65 43.8 8.9 44.65 11.7 45.25 13.8 45.25 15.95 45.9 16.0 46.75 17.25 47.6 18.5 46.8 23.55 46.0 28.55 40.45 33.05 41.15 31.95 41.45 27.25 41.75 22.55 40.65 19.75 40.35 24.55 38.85 26.5 38.0 20.05 36.95 16.65 L34.3 9.6 Q33.0 14.7 31.6 17.0 L29.55 20.15 28.7 21.25 Q28.45 17.85 29.35 14.35 L26.5 18.25 22.65 23.65 Q21.95 21.05 22.1 18.95 L22.35 17.55 Q21.15 20.25 19.1 21.95 17.05 23.6 15.45 24.05 L16.45 19.6 Q17.0 17.15 17.2 14.0 14.65 21.1 12.15 25.2 L9.35 29.8 Q8.6 24.5 9.7 19.0 8.1 22.7 8.0 27.3 Z" ffdec:has-small-stroke="true" ffdec:original-stroke-width="0.3" fill="none" stroke="#472915" stroke-linecap="round" stroke-linejoin="round" stroke-width="1.0526349604073306"/>
    </g>
    <g id="shape4">
      <path d="M22.75 0.1 Q25.75 0.0 30.45 0.85 35.1 1.65 39.35 4.9 43.6 8.15 46.45 12.75 49.45 17.3 49.9 22.25 L50.95 29.2 Q41.5 23.1 37.8 21.65 34.1 20.15 28.25 19.3 22.4 18.4 14.45 20.65 6.55 22.9 -0.8 26.9 -0.35 17.3 1.2 14.1 2.85 10.95 5.2 8.1 7.2 5.55 10.0 3.8 14.2 1.3 16.95 0.8 L22.75 0.1" fill="#482f1e" fill-rule="evenodd" stroke="none"/>
      <path d="M8.3 17.0 L2.1 15.45 9.5 15.4 Q15.2 17.2 25.55 17.6 L23.55 17.75 Q15.65 18.45 8.3 17.0 M35.3 17.55 L34.35 17.5 Q39.65 17.0 43.4 15.55 L43.65 15.45 47.05 16.5 Q39.25 18.0 35.3 17.55" fill="#cb9156" fill-rule="evenodd" stroke="none"/>
    </g>
    <g id="sprite4">
      <use ffdec:characterId="22" height="53.85" transform="matrix(1.0, 0.0, 0.0, 1.0, 0.0, 0.0)" width="61.65" xlink:href="#shape5"/>
      <use ffdec:characterId="10" height="5.2" transform="matrix(1.0, 0.0, 0.0, 1.0, 17.4, 24.35)" width="2.75" xlink:href="#sprite5"/>
      <use ffdec:characterId="10" height="5.2" transform="matrix(1.0, 0.0, 0.0, 1.0, 40.3, 24.35)" width="2.75" xlink:href="#sprite5"/>
      <use ffdec:characterId="24" height="22.2" transform="matrix(0.9151, 0.0, 0.0, 0.8065, 25.3, 4.3)" width="11.05" xlink:href="#sprite6"/>
      <use ffdec:characterId="12" height="7.0" transform="matrix(1.0, 0.0, 0.0, 1.0, 23.55, 27.5)" width="13.65" xlink:href="#sprite7"/>
    </g>
    <g id="shape5">
      <path d="M29.2 31.35 Q28.35 31.85 27.1 31.85 L24.9 31.35 Q24.05 30.8 24.05 30.0 24.05 29.25 24.9 28.7 L28.05 26.85 32.15 26.85 35.25 28.7 Q36.15 29.25 36.15 30.0 36.15 30.8 35.25 31.35 34.4 31.85 33.15 31.85 31.85 31.85 30.95 31.35 30.25 30.9 30.15 30.3 30.0 30.9 29.2 31.35" fill="#ffffff" fill-rule="evenodd" stroke="none"/>
      <path d="M55.4 25.15 L55.55 25.45 57.5 29.95 Q58.7 32.95 59.7 37.45 60.95 42.9 60.55 47.25 60.15 51.6 52.75 56.05 45.35 60.45 42.35 61.2 39.75 61.8 37.0 61.3 L36.2 61.15 Q33.9 60.5 31.6 59.35 L32.4 59.35 35.5 59.7 36.1 59.75 36.75 59.75 40.95 59.2 43.55 58.3 Q48.05 56.6 52.15 53.3 56.15 50.0 54.35 46.5 52.55 43.1 49.3 39.2 45.95 35.2 40.65 32.45 37.9 30.9 35.0 29.95 L35.05 29.95 30.2 28.7 Q27.65 29.1 25.25 29.95 22.35 30.9 19.6 32.45 14.3 35.2 10.95 39.2 7.7 43.1 5.9 46.5 4.1 50.0 8.1 53.3 12.2 56.6 16.7 58.3 21.15 60.05 24.85 59.7 L27.95 59.35 28.65 59.35 Q26.35 60.5 24.05 61.15 20.9 61.9 17.9 61.2 14.9 60.45 7.5 56.05 0.1 51.6 -0.3 47.25 -0.7 42.9 0.55 37.45 1.55 32.95 2.75 29.95 L3.25 28.7 4.75 25.4 Q7.05 20.85 11.25 16.8 15.5 12.8 20.2 10.5 L22.65 9.4 Q25.75 8.2 29.65 8.2 L30.2 8.2 30.6 8.2 Q34.5 8.2 37.6 9.4 L40.05 10.5 Q44.75 12.8 49.0 16.8 53.1 20.7 55.4 25.15" fill="#ffffff" fill-rule="evenodd" stroke="none"/>
      <path d="M60.5 47.25 Q60.1 51.6 52.7 56.05 45.3 60.45 42.3 61.2 39.7 61.8 36.95 61.3 L36.15 61.15 Q33.85 60.5 31.55 59.35 L32.35 59.35 35.45 59.7 36.05 59.75 36.7 59.75 40.9 59.2 43.5 58.3 Q48.0 56.6 52.1 53.3 56.1 50.0 54.3 46.5 L54.1 46.1 Q58.8 50.35 60.6 46.1 L60.5 47.25 M5.85 46.5 Q4.05 50.0 8.05 53.3 12.15 56.6 16.65 58.3 21.1 60.05 24.8 59.7 L27.9 59.35 28.6 59.35 Q26.3 60.5 24.0 61.15 20.85 61.9 17.85 61.2 14.85 60.45 7.45 56.05 0.05 51.6 -0.35 47.25 L-0.4 46.1 Q2.05 52.55 6.0 46.2 L5.85 46.5" fill="#b6b0b0" fill-rule="evenodd" stroke="none"/>
      <path d="M30.25 8.2 L30.65 8.2 Q34.55 8.2 37.65 9.4 L40.1 10.5 Q44.8 12.8 49.05 16.8 53.15 20.7 55.45 25.15 L55.6 25.45 57.55 29.95 Q58.75 32.95 59.75 37.45 61.0 42.9 60.6 47.25 60.2 51.6 52.8 56.05 45.4 60.45 42.4 61.2 39.8 61.8 37.05 61.3 L36.25 61.15 Q33.95 60.5 31.65 59.35 L32.45 59.35 M30.0 8.2 L29.6 8.2 Q25.7 8.2 22.6 9.4 21.55 9.75 20.15 10.5 15.45 12.8 11.2 16.8 7.1 20.7 4.8 25.15 L4.65 25.45 Q3.5 27.8 2.7 29.95 1.5 32.95 0.5 37.45 -0.75 42.9 -0.35 47.25 0.05 51.6 7.45 56.05 14.85 60.45 17.85 61.2 20.45 61.8 23.2 61.3 L24.0 61.15 Q26.3 60.5 28.6 59.35 L27.8 59.35" ffdec:has-small-stroke="true" ffdec:original-stroke-width="0.5" fill="none" stroke="#7b7979" stroke-linecap="round" stroke-linejoin="round" stroke-width="1.0526349604073306"/>
      <path d="M32.45 59.35 L35.55 59.7 36.15 59.75 36.8 59.75 41.0 59.2 43.6 58.3 Q48.1 56.6 52.2 53.3 56.2 50.0 54.4 46.5 52.6 43.1 49.35 39.2 46.0 35.2 40.7 32.45 38.5 31.2 36.2 30.35 L35.35 31.25 Q34.5 31.8 33.25 31.8 31.95 31.8 31.05 31.25 30.35 30.8 30.25 30.25 M27.8 59.35 L24.7 59.7 24.1 59.75 23.45 59.75 19.25 59.2 16.65 58.3 Q12.15 56.6 8.05 53.3 4.05 50.0 5.85 46.5 7.65 43.1 10.9 39.2 14.25 35.2 19.55 32.45 21.75 31.2 24.05 30.35 L24.9 31.25 Q25.75 31.8 27.0 31.8 28.3 31.8 29.2 31.25 29.9 30.8 30.0 30.25" ffdec:has-small-stroke="true" ffdec:original-stroke-width="0.5" fill="none" stroke="#333333" stroke-linecap="round" stroke-linejoin="round" stroke-width="1.0526349604073306"/>
      <path d="M5.5 30.1 L3.6 31.65" ffdec:has-small-stroke="true" ffdec:original-stroke-width="0.5" fill="none" stroke="#cccccc" stroke-linecap="round" stroke-linejoin="round" stroke-width="1.0526349604073306"/>
      <path d="M6.4 32.9 L5.1 33.8" ffdec:has-small-stroke="true" ffdec:original-stroke-width="0.5" fill="none" stroke="#cccccc" stroke-linecap="round" stroke-linejoin="round" stroke-width="1.0526349604073306"/>
      <path d="M7.3 35.05 L6.4 35.55" ffdec:has-small-stroke="true" ffdec:original-stroke-width="0.5" fill="none" stroke="#cccccc" stroke-linecap="round" stroke-linejoin="round" stroke-width="1.0526349604073306"/>
      <path d="M10.0 34.95 L9.0 36.3" ffdec:has-small-stroke="true" ffdec:original-stroke-width="0.5" fill="none" stroke="#cccccc" stroke-linecap="round" stroke-linejoin="round" stroke-width="1.0526349604073306"/>
      <path d="M12.25 34.85 L11.5 35.7" ffdec:has-small-stroke="true" ffdec:original-stroke-width="0.5" fill="none" stroke="#cccccc" stroke-linecap="round" stroke-linejoin="round" stroke-width="1.0526349604073306"/>
      <path d="M55.65 30.55 L56.65 32.0" ffdec:has-small-stroke="true" ffdec:original-stroke-width="0.5" fill="none" stroke="#cccccc" stroke-linecap="round" stroke-linejoin="round" stroke-width="1.0526349604073306"/>
      <path d="M54.65 33.15 L55.7 34.0" ffdec:has-small-stroke="true" ffdec:original-stroke-width="0.5" fill="none" stroke="#cccccc" stroke-linecap="round" stroke-linejoin="round" stroke-width="1.0526349604073306"/>
      <path d="M52.9 34.65 L54.05 35.7" ffdec:has-small-stroke="true" ffdec:original-stroke-width="0.5" fill="none" stroke="#cccccc" stroke-linecap="round" stroke-linejoin="round" stroke-width="1.0526349604073306"/>
      <path d="M50.2 34.5 L51.35 35.75" ffdec:has-small-stroke="true" ffdec:original-stroke-width="0.5" fill="none" stroke="#cccccc" stroke-linecap="round" stroke-linejoin="round" stroke-width="1.0526349604073306"/>
      <path d="M48.2 34.85 L48.75 35.8" ffdec:has-small-stroke="true" ffdec:original-stroke-width="0.5" fill="none" stroke="#cccccc" stroke-linecap="round" stroke-linejoin="round" stroke-width="1.0526349604073306"/>
      <path d="M12.75 27.55 L11.85 27.6" ffdec:has-small-stroke="true" ffdec:original-stroke-width="1.0" fill="none" stroke="#dbdbdb" stroke-linecap="round" stroke-linejoin="round" stroke-width="1.0526349604073306"/>
      <path d="M13.7 29.05 L13.0 29.3" ffdec:has-small-stroke="true" ffdec:original-stroke-width="1.0" fill="none" stroke="#dbdbdb" stroke-linecap="round" stroke-linejoin="round" stroke-width="1.0526349604073306"/>
      <path d="M14.95 30.15 L14.65 30.45" ffdec:has-small-stroke="true" ffdec:original-stroke-width="1.0" fill="none" stroke="#dbdbdb" stroke-linecap="round" stroke-linejoin="round" stroke-width="1.0526349604073306"/>
      <path d="M47.45 27.55 L48.35 27.6" ffdec:has-small-stroke="true" ffdec:original-stroke-width="1.0" fill="none" stroke="#dbdbdb" stroke-linecap="round" stroke-linejoin="round" stroke-width="1.0526349604073306"/>
      <path d="M46.5 29.05 L47.2 29.3" ffdec:has-small-stroke="true" ffdec:original-stroke-width="1.0" fill="none" stroke="#dbdbdb" stroke-linecap="round" stroke-linejoin="round" stroke-width="1.0526349604073306"/>
      <path d="M45.25 30.15 L45.55 30.45" ffdec:has-small-stroke="true" ffdec:original-stroke-width="1.0" fill="none" stroke="#dbdbdb" stroke-linecap="round" stroke-linejoin="round" stroke-width="1.0526349604073306"/>
    </g>
    <g id="sprite5">
      <use ffdec:characterId="9" height="5.2" transform="matrix(1.0, 0.0, 0.0, 1.0, 0.0, 0.0)" width="2.75" xlink:href="#shape6"/>
    </g>
    <g id="shape6">
      <path d="M2.65 1.5 L2.65 2.5 2.2 3.6 1.25 4.25 Q0.7 4.25 0.3 3.6 0.0 3.15 -0.05 2.5 L-0.1 1.5 -0.1 1.0 Q-0.05 0.25 0.3 -0.35 0.7 -0.95 1.25 -0.95 1.8 -0.95 2.2 -0.35 2.6 0.25 2.65 1.0 L2.65 1.5" fill="#1d1900" fill-rule="evenodd" stroke="none"/>
      <path d="M1.7 0.75 L1.35 1.2 0.9 1.4 0.5 1.0 0.5 0.45 0.8 -0.1 1.3 -0.2 1.65 0.1 1.7 0.75" fill="#e9e9e9" fill-rule="evenodd" stroke="none"/>
    </g>
    <g id="sprite6">
      <use ffdec:characterId="23" height="22.2" transform="matrix(1.0, 0.0, 0.0, 1.0, 0.0, 0.0)" width="11.05" xlink:href="#shape7"/>
    </g>
    <g id="shape7">
      <path d="M10.55 8.85 Q10.55 12.95 9.0 15.85 L5.3 21.7 1.55 15.85 Q0.0 12.95 0.0 8.85 0.0 6.95 0.4 5.6 0.7 4.55 1.55 2.9 3.05 0.0 5.3 0.0 7.5 0.0 9.0 2.9 L10.15 5.6 Q10.55 6.95 10.55 8.85" fill="#d90f2c" fill-rule="evenodd" stroke="none"/>
      <path d="M8.7 15.85 L5.35 21.7 Q2.85 17.8 1.9 15.85 1.05 14.1 0.7 11.9 L0.5 10.15 0.5 9.7 Q0.6 7.7 1.85 6.25 3.25 4.65 5.3 4.65 7.3 4.65 8.65 6.25 10.1 7.85 10.1 10.15 L10.1 10.3 10.0 11.25 Q9.65 13.85 8.7 15.85" fill="#f91111" fill-rule="evenodd" stroke="none"/>
      <path d="M1.9 15.85 Q1.05 14.1 0.7 11.9 L0.5 10.15 0.5 9.7 Q0.6 7.7 1.85 6.25 3.25 4.65 5.3 4.65 L5.3 21.65 Q2.85 17.8 1.9 15.85" fill="#ff1d1d" fill-rule="evenodd" stroke="none"/>
      <path d="M8.0 6.15 Q8.0 6.75 7.25 7.15 L5.3 7.55 3.4 7.15 Q2.6 6.75 2.6 6.15 2.6 5.55 3.4 5.15 L5.3 4.75 7.25 5.15 Q8.0 5.55 8.0 6.15" fill="#ff5353" fill-rule="evenodd" stroke="none"/>
      <path d="M7.05 1.1 L6.55 1.7 5.25 1.95 4.0 1.7 Q3.45 1.45 3.45 1.1 3.45 0.75 4.0 0.5 L5.25 0.3 6.55 0.5 Q7.05 0.75 7.05 1.1" fill="#ff3030" fill-rule="evenodd" stroke="none"/>
      <path d="M10.55 8.85 Q10.55 12.95 9.0 15.85 L5.3 21.7 1.55 15.85 Q0.0 12.95 0.0 8.85 0.0 6.95 0.4 5.6 0.7 4.55 1.55 2.9 3.05 0.0 5.3 0.0 7.5 0.0 9.0 2.9 L10.15 5.6 Q10.55 6.95 10.55 8.85 Z" ffdec:has-small-stroke="true" ffdec:original-stroke-width="0.5" fill="none" stroke="#c20016" stroke-linecap="round" stroke-linejoin="round" stroke-width="1.2253290818368074"/>
    </g>
    <g id="sprite7">
      <use ffdec:characterId="11" height="7.0" transform="matrix(1.0, 0.0, 0.0, 1.0, 0.0, 0.0)" width="13.65" xlink:href="#shape8"/>
    </g>
    <g id="shape8">
      <path d="M13.15 3.25 Q13.15 4.6 11.25 5.55 9.3 6.5 6.55 6.5 3.85 6.5 1.9 5.55 0.0 4.6 0.0 3.25 0.0 1.95 1.9 1.0 3.85 0.0 6.55 0.0 9.3 0.0 11.25 1.0 13.15 1.95 13.15 3.25" fill="#ffae00" fill-rule="evenodd" stroke="none"/>
      <path d="M13.15 3.25 Q13.15 4.6 11.25 5.55 9.3 6.5 6.55 6.5 3.85 6.5 1.9 5.55 0.0 4.6 0.0 3.25 0.0 1.95 1.9 1.0 3.85 0.0 6.55 0.0 9.3 0.0 11.25 1.0 13.15 1.95 13.15 3.25 Z" ffdec:has-small-stroke="true" ffdec:original-stroke-width="0.5" fill="none" stroke="#ff5c00" stroke-linecap="round" stroke-linejoin="round" stroke-width="1.0526349604073306"/>
      <path d="M12.25 2.4 Q12.25 3.3 10.6 3.95 8.95 4.55 6.55 4.55 4.25 4.55 2.55 3.95 0.9 3.3 0.9 2.4 0.9 1.55 2.55 0.95 4.25 0.3 6.55 0.3 8.95 0.3 10.6 0.95 12.25 1.55 12.25 2.4" fill="#fff840" fill-rule="evenodd" stroke="none"/>
    </g>
  </defs>
</svg>
