<?xml version="1.0" encoding="UTF-8" standalone="no"?>
<svg xmlns:ffdec="https://www.free-decompiler.com/flash" xmlns:xlink="http://www.w3.org/1999/xlink" ffdec:objectType="frame" height="43.15px" width="48.8px" xmlns="http://www.w3.org/2000/svg">
  <g transform="matrix(1.0, 0.0, 0.0, 1.0, 24.0, 26.4)">
    <use ffdec:characterId="22" height="43.15" transform="matrix(1.0, 0.0, 0.0, 1.0, 0.4, -4.8)" width="48.8" xlink:href="#sprite0"/>
  </g>
  <defs>
    <g id="sprite0">
      <use ffdec:characterId="18" height="43.15" transform="matrix(1.0, 0.0, 0.0, 1.0, 0.0, 0.0)" width="48.8" xlink:href="#shape0"/>
      <use ffdec:characterId="3" height="8.35" transform="matrix(1.0, 0.0, 0.0, 1.0, -13.85, 7.65)" width="4.1" xlink:href="#sprite1"/>
      <use ffdec:characterId="3" height="8.35" transform="matrix(-1.0, 0.0, 0.0, 1.0, 13.2, 7.65)" width="4.1" xlink:href="#sprite1"/>
      <use ffdec:characterId="19" height="34.7" transform="matrix(1.0, 0.0, 0.0, 1.0, 0.0, 0.0)" width="46.0" xlink:href="#shape2"/>
      <use ffdec:characterId="5" height="20.85" transform="matrix(-1.0, 0.0, 0.0, 1.0, -16.3, 0.45)" width="13.1" xlink:href="#sprite2"/>
      <use ffdec:characterId="20" height="5.15" transform="matrix(1.0, 0.0, 0.0, 1.0, 0.0, 0.0)" width="21.55" xlink:href="#shape4"/>
      <use ffdec:characterId="5" height="20.85" transform="matrix(1.0, 0.0, 0.0, 1.0, 16.0, 0.45)" width="13.1" xlink:href="#sprite2"/>
      <use ffdec:characterId="8" height="7.25" transform="matrix(-1.0, 0.0, 0.0, 1.0, 7.75, 3.45)" width="17.6" xlink:href="#sprite3"/>
      <use ffdec:characterId="8" height="7.25" transform="matrix(1.0, 0.0, 0.0, 1.0, -8.25, 3.8)" width="17.6" xlink:href="#sprite3"/>
      <use ffdec:characterId="10" height="4.2" transform="matrix(1.0, 0.0, 0.0, 1.0, -0.05, 1.05)" width="8.1" xlink:href="#sprite4"/>
      <use ffdec:characterId="12" height="9.7" transform="matrix(1.0, 0.0, 0.0, 1.0, 9.0, -2.95)" width="9.5" xlink:href="#sprite5"/>
      <use ffdec:characterId="14" height="11.5" transform="matrix(1.0, 0.0, 0.0, 1.0, 7.3, -8.6)" width="11.75" xlink:href="#sprite6"/>
      <use ffdec:characterId="12" height="9.7" transform="matrix(-1.0, 0.0, 0.0, 1.0, -9.15, -2.95)" width="9.5" xlink:href="#sprite5"/>
      <use ffdec:characterId="14" height="11.5" transform="matrix(-1.0, 0.0, 0.0, 1.0, -7.45, -8.6)" width="11.75" xlink:href="#sprite6"/>
      <use ffdec:characterId="21" height="21.15" transform="matrix(1.0, 0.0, 0.0, 1.0, 0.0, 0.0)" width="44.9" xlink:href="#shape9"/>
    </g>
    <g id="shape0">
      <path d="M18.9 -20.85 Q22.6 -20.95 22.75 -16.45 24.15 -13.4 24.15 -11.2 L22.7 -5.9 Q22.7 -5.35 23.55 -3.4 24.4 -1.4 24.4 0.6 24.4 6.5 20.85 12.1 14.8 21.55 1.2 21.55 -14.15 21.55 -20.75 13.65 -24.4 9.2 -24.4 4.7 L-23.9 -0.65 Q-23.4 -4.35 -23.4 -5.2 L-22.95 -7.25 -22.55 -8.45 -23.3 -9.45 Q-24.05 -10.35 -24.05 -10.95 -24.05 -12.65 -23.1 -15.45 L-21.55 -19.55 Q-20.35 -23.15 -15.6 -20.35 -11.15 -17.7 -10.75 -15.7 -10.5 -16.95 -8.9 -16.95 -8.0 -16.95 -7.2 -16.3 L-6.4 -15.7 Q-6.2 -15.7 -5.65 -16.05 L-4.45 -16.45 Q-3.7 -16.45 -3.3 -16.05 L-2.9 -15.55 -1.95 -16.65 Q-1.0 -17.55 -0.15 -17.55 0.7 -17.55 1.65 -16.25 2.6 -15.0 6.7 -15.0 7.25 -15.0 8.5 -16.15 9.75 -17.3 11.15 -17.3 11.75 -17.3 12.6 -16.55 L15.55 -19.3 16.2 -19.95 16.85 -20.35 Q17.7 -20.95 18.1 -20.95 L18.9 -20.85 M14.45 13.95 L15.95 12.55 Q21.6 7.0 21.6 0.55 21.6 -0.45 20.75 -2.45 19.85 -4.4 19.85 -5.75 L20.1 -6.95 20.35 -8.15 Q20.35 -9.55 19.4 -11.4 L18.4 -13.55 Q18.4 -13.9 18.7 -14.3 L19.0 -15.0 18.65 -17.35 Q17.2 -16.9 14.2 -14.4 11.35 -12.05 11.1 -12.05 10.05 -12.05 9.9 -12.85 L9.95 -13.85 8.45 -13.0 Q7.75 -12.55 6.65 -12.55 3.05 -12.55 1.05 -13.5 L-0.3 -14.55 Q-0.7 -14.4 -1.0 -13.45 -1.25 -12.75 -2.8 -12.75 L-4.35 -12.95 -4.75 -13.45 -5.45 -12.5 Q-5.8 -12.0 -6.6 -12.0 -8.4 -12.0 -8.4 -13.75 L-8.4 -13.95 Q-8.85 -12.2 -10.9 -12.2 L-14.15 -15.15 Q-17.55 -18.25 -19.15 -18.75 -19.55 -16.65 -19.55 -14.5 L-19.6 -13.6 Q-19.8 -12.85 -20.45 -12.7 -19.35 -12.1 -19.65 -11.4 L-20.2 -10.3 -19.85 -9.5 -19.55 -8.75 Q-19.55 -7.75 -20.1 -6.9 -20.7 -6.0 -20.7 -5.25 L-20.2 -3.2 -19.75 -1.5 Q-21.75 2.4 -21.75 2.95 -21.75 7.5 -18.65 11.4 -15.65 15.2 -10.3 17.0 L-10.05 17.15 Q-8.35 18.05 -6.9 18.4 L0.2 19.1 Q7.9 19.1 12.6 15.55 L14.45 13.95" fill="#000000" fill-rule="evenodd" stroke="none"/>
      <path d="M-10.3 17.0 L-13.15 15.35 Q-14.8 14.55 -15.7 13.2 L-16.0 12.65 -16.05 12.65 Q-16.75 12.65 -17.1 10.55 -17.1 8.2 -15.6 6.95 L-14.1 6.9 -14.2 7.0 -14.8 8.35 Q-15.45 9.6 -15.45 10.9 -15.45 11.75 -14.25 12.95 L-12.05 14.7 -9.2 16.6 -5.2 17.55 0.2 18.05 5.65 17.45 Q8.65 16.8 10.4 15.45 12.15 14.05 13.0 13.5 L14.55 12.05 15.2 9.65 14.95 8.2 14.6 7.55 Q14.0 6.65 13.15 6.7 16.25 5.0 16.25 10.0 16.25 11.95 14.45 13.95 L12.6 15.55 Q7.9 19.1 0.2 19.1 L-6.9 18.4 Q-8.35 18.05 -10.05 17.15 L-10.3 17.0" fill="#b15901" fill-rule="evenodd" stroke="none"/>
    </g>
    <g id="sprite1">
      <use ffdec:characterId="2" height="8.35" transform="matrix(1.0, 0.0, 0.0, 1.0, 0.0, 0.0)" width="4.1" xlink:href="#shape1"/>
    </g>
    <g id="shape1">
      <path d="M-0.05 -4.15 Q1.7 -4.35 2.05 -2.05 L1.8 0.35 Q1.5 1.55 1.5 2.65 L1.6 4.1 0.8 4.15 Q-0.2 3.85 -1.1 2.15 -2.0 0.45 -2.05 -1.2 -2.25 -3.9 -0.05 -4.15 M-1.2 -1.2 L-1.15 -1.2 -1.25 -1.45 -1.2 -1.2" fill="#000000" fill-rule="evenodd" stroke="none"/>
      <path d="M-0.65 -3.1 Q-1.35 -2.8 -1.35 -1.8 -1.35 -0.8 -0.7 0.95 -0.1 2.65 0.3 2.3 L0.2 0.6 0.1 -2.35 -0.1 -2.95 -0.65 -3.1 M-0.15 -3.6 Q1.35 -3.6 1.35 -1.95 L1.1 2.6 1.0 3.75 0.5 3.5 Q-0.05 3.15 -0.8 1.55 -1.6 -0.1 -1.7 -1.45 -1.7 -3.65 -0.15 -3.6" fill="#cccccc" fill-rule="evenodd" stroke="none"/>
      <path d="M-0.65 -3.1 L-0.1 -2.95 0.1 -2.35 0.2 0.6 0.3 2.3 Q-0.1 2.65 -0.7 0.95 -1.35 -0.8 -1.35 -1.8 -1.35 -2.8 -0.65 -3.1" fill="#ffffff" fill-rule="evenodd" stroke="none"/>
    </g>
    <g id="shape2">
      <path d="M4.9 4.2 Q3.7 3.2 2.5 2.6 L0.3 2.55 Q-0.4 2.15 -0.4 2.4 L-0.35 2.6 -0.7 2.8 Q-1.15 2.05 -2.65 2.8 -4.1 3.55 -4.95 4.4 -5.55 5.1 -8.3 6.0 L-12.3 6.85 -14.35 6.65 Q-15.55 6.65 -15.55 7.6 L-15.55 7.65 -16.05 8.5 -16.35 9.7 Q-16.35 12.75 -11.7 15.55 -7.2 18.25 -4.1 18.35 L-1.3 18.55 -0.45 18.6 3.85 18.35 Q6.95 18.1 11.45 15.4 16.1 12.6 16.1 9.55 L15.8 8.35 Q15.45 7.45 15.1 7.4 L15.1 7.35 Q15.1 6.4 14.0 6.4 L12.55 6.7 Q9.75 6.7 7.55 5.7 L4.9 4.2 M16.05 -10.5 Q22.95 -6.5 22.95 1.35 22.95 5.4 21.2 8.8 19.5 12.05 16.2 14.75 9.5 20.3 -0.05 20.3 -9.6 20.3 -16.35 14.75 -23.05 9.2 -23.05 1.35 -23.05 -6.5 -16.5 -10.4 -14.6 -11.55 -12.4 -12.35 -7.15 -14.35 -0.4 -14.4 9.15 -14.5 16.05 -10.5" fill="#ff9900" fill-rule="evenodd" stroke="none"/>
    </g>
    <g id="sprite2">
      <use ffdec:characterId="4" height="20.85" transform="matrix(1.0, 0.0, 0.0, 1.0, 0.0, 0.0)" width="13.1" xlink:href="#shape3"/>
    </g>
    <g id="shape3">
      <path d="M5.4 -16.1 L6.0 -16.35 6.3 -16.25 6.35 -16.0 5.85 -14.95 5.4 -14.25 5.45 -13.75 5.7 -13.8 6.35 -13.7 6.45 -13.45 5.6 -12.05 5.65 -11.75 Q6.95 -11.6 6.95 -11.1 L5.8 -9.4 6.05 -5.9 Q6.6 1.85 4.45 -0.6 2.25 -3.0 0.0 -3.0 -2.25 -3.0 -4.25 -5.3 -6.3 -7.65 -6.15 -10.7 -6.0 -13.8 -2.7 -17.15 0.6 -20.5 2.65 -20.8 4.7 -21.15 5.1 -17.35 L5.25 -15.95 5.4 -16.1" fill="#ff9900" fill-rule="evenodd" stroke="none"/>
      <path d="M2.15 -19.55 L2.1 -18.75 Q2.05 -17.5 1.0 -15.6 -0.1 -13.75 -0.9 -13.75 -1.7 -13.75 -2.2 -14.65 -2.7 -15.55 -2.25 -16.2 L-0.5 -18.1 Q0.8 -19.35 1.4 -19.5 L2.15 -19.55" fill="#fece89" fill-rule="evenodd" stroke="none"/>
      <path d="M1.9 -10.3 L1.75 -10.6 Q1.05 -12.2 1.9 -13.45 L3.55 -16.35 3.75 -16.65 3.9 -17.0 3.95 -17.05 4.1 -17.45 4.15 -17.6 4.2 -17.15 4.2 -17.1 Q4.05 -11.55 3.15 -10.75 2.25 -9.95 1.95 -10.3 L1.9 -10.3" fill="#cc3300" fill-rule="evenodd" stroke="none"/>
      <path d="M4.2 -17.1 L4.15 -16.1 Q4.1 -14.8 4.4 -13.1 L4.75 -10.3 Q4.8 -9.15 4.15 -8.4 3.9 -8.1 3.6 -8.25 3.2 -8.35 2.75 -8.95 L2.25 -9.7 2.2 -9.75 2.0 -10.1 1.9 -10.3 1.95 -10.3 Q2.25 -9.95 3.15 -10.75 4.05 -11.55 4.2 -17.1" fill="#7e1a01" fill-rule="evenodd" stroke="none"/>
    </g>
    <g id="shape4">
      <path d="M10.35 -14.0 Q10.05 -11.8 9.6 -12.2 L9.0 -12.85 8.8 -13.25 Q7.5 -12.45 7.1 -12.45 6.25 -12.45 6.5 -13.4 L5.45 -13.65 Q7.0 -13.75 8.85 -14.95 9.95 -15.65 10.75 -16.45 L10.35 -14.0" fill="#ff9900" fill-rule="evenodd" stroke="none"/>
      <path d="M-0.1 -12.7 Q-0.8 -12.7 -0.95 -12.95 L-1.15 -13.35 -1.75 -13.1 Q-2.4 -13.1 -2.35 -13.75 L-0.7 -16.25 Q0.9 -17.95 0.9 -14.05 1.1 -12.7 -0.1 -12.7" fill="#ff9900" fill-rule="evenodd" stroke="none"/>
      <path d="M-4.65 -13.25 Q-5.15 -12.85 -5.75 -12.85 -6.15 -12.85 -6.15 -13.15 -6.15 -14.8 -5.15 -15.2 -4.2 -15.65 -4.2 -13.85 -4.2 -13.6 -4.65 -13.25" fill="#ff9900" fill-rule="evenodd" stroke="none"/>
      <path d="M-8.25 -15.3 Q-6.75 -14.15 -6.75 -12.8 -6.75 -12.4 -7.15 -12.4 L-7.7 -12.85 -7.7 -12.35 Q-7.75 -12.15 -8.25 -12.15 L-8.8 -12.4 Q-9.25 -12.4 -9.35 -12.0 -9.5 -11.6 -9.9 -11.6 -10.15 -11.6 -10.5 -12.5 L-10.8 -13.4 -10.65 -14.0 Q-10.35 -14.2 -9.45 -14.0 -9.8 -14.2 -9.8 -14.8 -9.8 -16.45 -8.25 -15.3" fill="#ff9900" fill-rule="evenodd" stroke="none"/>
    </g>
    <g id="sprite3">
      <use ffdec:characterId="7" height="7.25" transform="matrix(1.0, 0.0, 0.0, 1.0, 0.0, 0.0)" width="17.6" xlink:href="#shape5"/>
    </g>
    <g id="shape5">
      <path d="M4.9 -1.2 L4.95 -1.25 4.9 -1.2 M1.15 -1.6 L1.15 -1.65 1.15 -1.6 M-8.0 -2.05 L-7.35 -3.35 Q-6.85 -3.45 -6.1 -2.9 L-5.55 -2.05 Q-5.3 -1.55 -4.7 -1.55 L-4.05 -1.85 -3.4 -2.2 -3.2 -2.15 -3.15 -2.05 -3.3 -1.65 -3.75 -1.25 -1.35 -1.6 -0.65 -2.05 -0.5 -1.95 Q-0.6 -1.6 -1.05 -1.25 L-1.05 -1.1 Q0.2 -1.1 0.65 -1.45 L1.45 -2.1 1.6 -2.0 1.3 -1.35 0.95 -0.7 2.0 -0.7 Q3.5 -0.85 4.7 -1.4 L6.8 -2.5 3.0 0.65 Q-0.75 3.15 -4.45 3.15 -6.45 3.15 -7.55 2.55 L-8.7 0.4 Q-8.7 -0.6 -8.0 -2.05" fill="#ffcc66" fill-rule="evenodd" stroke="none"/>
      <path d="M8.8 -3.15 L7.2 -1.85 3.95 0.55 0.65 2.6 Q-1.95 3.65 -5.8 3.65 -7.1 3.65 -8.1 2.1 L-8.8 0.55 -8.5 -1.7 Q-8.05 -3.35 -7.15 -3.45 L-7.0 -2.85 Q-7.0 -2.55 -7.3 -1.95 L-7.6 -1.2 Q-7.6 0.05 -7.3 0.65 -6.55 2.15 -4.2 2.15 0.7 2.15 4.1 -0.35 L8.75 -3.6 8.8 -3.15" fill="#000000" fill-rule="evenodd" stroke="none"/>
      <path d="M-4.35 -1.7 L-4.1 -1.25 -4.25 -0.85 -4.7 -0.75 Q-5.2 -0.75 -5.2 -1.15 -5.2 -1.75 -4.65 -1.9 L-4.35 -1.7" fill="#996600" fill-rule="evenodd" stroke="none"/>
      <path d="M-2.5 0.6 Q-2.95 0.6 -2.95 0.1 -2.95 -0.4 -2.3 -0.5 -1.65 -0.6 -1.65 0.05 -1.65 0.6 -2.5 0.6" fill="#996600" fill-rule="evenodd" stroke="none"/>
      <path d="M-4.85 1.4 Q-5.35 1.4 -5.25 1.05 -5.25 0.65 -4.75 0.55 -4.3 0.5 -4.3 0.95 -4.3 1.4 -4.85 1.4" fill="#996600" fill-rule="evenodd" stroke="none"/>
    </g>
    <g id="sprite4">
      <use ffdec:characterId="9" height="4.2" transform="matrix(1.0, 0.0, 0.0, 1.0, 0.0, 0.0)" width="8.1" xlink:href="#shape6"/>
    </g>
    <g id="shape6">
      <path d="M2.7 0.3 Q1.95 1.35 0.15 1.35 -2.4 1.35 -3.2 0.55 -3.55 0.2 -3.55 -0.45 -3.55 -1.95 -0.2 -2.1 3.15 -2.25 3.15 -0.95 L2.7 0.3" fill="#333333" fill-rule="evenodd" stroke="none"/>
      <path d="M2.85 -0.7 Q2.8 -1.6 2.05 -1.45 L2.2 -1.65 2.85 -1.85 Q4.0 -1.85 4.05 -0.7 4.05 0.25 2.9 1.1 1.6 2.1 -0.45 2.1 -2.2 2.1 -3.25 1.15 -4.05 0.5 -4.05 0.05 -4.05 -2.15 -2.2 -1.85 -2.7 -1.9 -3.45 -0.6 -3.45 0.05 -2.7 0.55 -1.8 1.15 -0.45 1.15 1.15 1.15 2.05 0.4 L2.95 -0.65 2.85 -0.7" fill="#000000" fill-rule="evenodd" stroke="none"/>
      <path d="M-0.2 -0.4 L-1.05 -0.2 -1.9 -0.4 -2.25 -0.85 -1.9 -1.3 -1.05 -1.5 -0.2 -1.3 0.15 -0.85 -0.2 -0.4" fill="#999999" fill-rule="evenodd" stroke="none"/>
    </g>
    <g id="sprite5">
      <use ffdec:characterId="11" height="9.7" transform="matrix(1.0, 0.0, 0.0, 1.0, 0.0, 0.0)" width="9.5" xlink:href="#shape7"/>
    </g>
    <g id="shape7">
      <path d="M4.45 -0.05 Q4.45 0.95 3.55 2.55 2.35 4.7 0.0 4.7 -2.35 4.65 -3.6 2.55 -4.85 0.4 -4.5 -0.5 L-3.5 -2.5 Q-2.5 -4.25 -0.3 -4.25 1.6 -4.25 3.1 -2.8 4.45 -1.45 4.45 -0.05 M1.65 1.4 Q2.2 0.65 2.2 0.1 2.2 -3.7 -0.75 -3.2 -3.7 -2.7 -3.7 0.45 -3.7 0.9 -3.0 1.55 -2.05 2.45 -0.4 2.45 0.9 2.45 1.65 1.4" fill="#cccccc" fill-rule="evenodd" stroke="none"/>
      <path d="M1.65 1.4 Q0.9 2.45 -0.4 2.45 -2.05 2.45 -3.0 1.55 -3.7 0.9 -3.7 0.45 -3.7 -2.7 -0.75 -3.2 2.2 -3.7 2.2 0.1 2.2 0.65 1.65 1.4" fill="#ffffff" fill-rule="evenodd" stroke="none"/>
      <path d="M2.55 -2.55 Q-0.85 -5.3 -3.15 -2.65 -5.5 -0.05 -3.05 2.9 -0.6 5.85 2.65 3.0 5.9 0.15 2.55 -2.55 M-0.85 -4.85 L1.25 -4.5 Q5.8 -2.65 4.45 1.75 3.7 4.25 1.15 4.7 -2.0 5.45 -3.6 2.9 -6.9 -2.2 -0.85 -4.85" fill="#000000" fill-rule="evenodd" stroke="none"/>
      <path d="M0.25 0.65 Q0.0 0.95 -0.35 0.95 L-1.0 0.65 -1.25 0.05 -1.0 -0.6 -0.35 -0.85 0.25 -0.6 0.55 0.05 0.25 0.65" fill="#000000" fill-rule="evenodd" stroke="none"/>
    </g>
    <g id="sprite6">
      <use ffdec:characterId="13" height="11.5" transform="matrix(1.0, 0.0, 0.0, 1.0, 0.0, 0.0)" width="11.75" xlink:href="#shape8"/>
    </g>
    <g id="shape8">
      <path d="M3.4 -5.95 Q4.45 -6.05 5.25 -4.55 L5.9 -2.9 Q6.4 -1.5 4.8 0.9 2.85 3.7 -0.65 4.95 -3.6 6.0 -4.95 5.25 L-5.65 4.2 Q-5.9 3.55 -5.45 2.65 -4.95 1.6 -3.7 1.15 -0.85 0.1 1.7 -0.1 4.95 -1.3 4.65 -3.05 4.55 -4.05 3.4 -5.95" fill="#333333" fill-rule="evenodd" stroke="none"/>
    </g>
    <g id="shape9">
      <path d="M21.45 -2.75 L21.3 -0.9 Q21.3 0.25 20.6 1.4 19.75 2.95 18.35 2.95 L17.8 2.9 17.8 2.8 17.7 2.45 Q19.4 0.3 21.35 -3.25 L21.45 -2.75" fill="#000000" fill-rule="evenodd" stroke="none"/>
      <path d="M22.3 1.85 Q22.45 3.2 21.7 5.0 20.6 7.5 18.4 7.75 18.15 7.8 17.6 7.45 L17.55 7.2 Q17.5 6.75 18.9 5.35 L22.35 1.65 22.3 1.85" fill="#000000" fill-rule="evenodd" stroke="none"/>
      <path d="M-21.65 -2.75 L-21.5 -0.9 Q-21.5 0.25 -20.8 1.4 -19.95 2.95 -18.55 2.95 L-18.0 2.9 -18.0 2.8 -17.9 2.45 Q-19.6 0.3 -21.55 -3.25 L-21.65 -2.75" fill="#000000" fill-rule="evenodd" stroke="none"/>
      <path d="M-22.5 1.85 Q-22.65 3.2 -21.9 5.0 -20.8 7.5 -18.6 7.75 -18.35 7.8 -17.8 7.45 L-17.75 7.2 Q-17.7 6.75 -19.1 5.35 L-22.55 1.65 -22.5 1.85" fill="#000000" fill-rule="evenodd" stroke="none"/>
      <path d="M5.4 -12.75 L6.15 -12.5 Q6.55 -12.2 5.35 -12.0 L0.35 -11.65 Q-3.5 -11.5 -5.3 -11.65 L-7.15 -11.75 -7.45 -11.9 -4.8 -12.95 1.35 -13.3 Q6.05 -13.3 5.4 -12.75" fill="#000000" fill-rule="evenodd" stroke="none"/>
      <path d="M0.85 -8.75 L-3.3 -8.65 -4.55 -8.8 -5.45 -9.05 -5.45 -9.0 -5.5 -9.45 Q-5.5 -10.25 -0.8 -10.65 4.1 -11.0 5.3 -9.3 L0.85 -8.75" fill="#000000" fill-rule="evenodd" stroke="none"/>
      <path d="M0.25 -9.95 L0.35 -7.05 0.1 -5.85 Q0.15 -5.65 -0.5 -5.7 -1.0 -5.8 -1.0 -9.05 L-0.9 -12.4 Q-0.8 -13.15 -0.25 -13.4 L0.25 -9.95" fill="#000000" fill-rule="evenodd" stroke="none"/>
    </g>
  </defs>
</svg>
