<?xml version="1.0" encoding="UTF-8" standalone="no"?>
<svg xmlns:ffdec="https://www.free-decompiler.com/flash" xmlns:xlink="http://www.w3.org/1999/xlink" ffdec:objectType="frame" height="64.25px" width="63.8px" xmlns="http://www.w3.org/2000/svg">
  <g transform="matrix(1.0, 0.0, 0.0, 1.0, 30.05, 42.35)">
    <use ffdec:characterId="14" height="20.9" transform="matrix(1.0, 0.0, 0.0, 1.0, -25.0, -4.4)" width="52.25" xlink:href="#sprite0"/>
    <use ffdec:characterId="18" height="39.05" transform="matrix(1.129, 0.0, 0.0, 1.0, -26.45, -31.95)" width="51.0" xlink:href="#sprite1"/>
    <use ffdec:characterId="8" height="43.5" transform="matrix(-1.3265, 0.0, 0.1072, 1.0793, 23.85, -14.35)" width="14.35" xlink:href="#sprite2"/>
    <use ffdec:characterId="8" height="43.5" transform="matrix(1.2551, 0.0, 0.0, 1.0, -21.8, -12.35)" width="14.35" xlink:href="#sprite3"/>
    <use ffdec:characterId="33" height="60.05" transform="matrix(1.0, 0.0, 0.0, 1.0, 0.0, 0.0)" width="61.2" xlink:href="#shape5"/>
  </g>
  <defs>
    <g id="sprite0">
      <use ffdec:characterId="13" height="20.9" transform="matrix(1.0, 0.0, 0.0, 1.0, 0.0, 0.0)" width="52.25" xlink:href="#shape0"/>
    </g>
    <g id="shape0">
      <path d="M47.4 6.3 L47.65 0.0 50.45 0.0 Q53.8 6.5 51.0 13.0 46.85 17.15 44.0 18.3 36.0 22.45 26.8 18.9 35.85 18.2 40.35 14.85 44.8 11.45 44.45 12.45 47.0 9.45 47.4 6.3 M5.1 7.8 Q5.9 10.6 7.65 12.55 9.4 14.5 11.4 15.6 L15.3 17.5 Q17.2 18.3 19.55 18.6 L23.05 18.95 25.05 18.9 20.65 20.35 17.0 20.9 Q15.05 21.15 10.65 18.35 7.85 17.25 5.4 15.7 L3.05 14.05 Q-2.45 8.3 1.95 0.0 L4.4 0.0 Q4.25 4.95 5.1 7.8" fill="#333333" fill-rule="evenodd" stroke="none"/>
    </g>
    <g id="sprite1">
      <use ffdec:characterId="15" height="35.55" transform="matrix(1.0, 0.0, 0.0, 1.0, 0.0, 0.0)" width="47.9" xlink:href="#shape1"/>
      <clipPath id="clipPath0">
        <path d="M 24.34 3.17 L 23.64 3.19 L 22.93 3.23 L 22.22 3.3 L 21.5 3.4 L 20.99 3.51 L 20.48 3.64 L 19.98 3.79 L 19.49 3.95 L 19.01 4.13 L 18.54 4.33 L 18.08 4.54 L 17.62 4.76 L 17.18 5 L 16.74 5.26 L 16.31 5.54 L 15.89 5.83 L 15.48 6.13 L 15.08 6.46 L 14.69 6.8 L 14.3 7.15 L 13.89 7.54 L 13.5 7.95 L 13.12 8.36 L 12.75 8.79 L 12.39 9.22 L 12.05 9.67 L 11.72 10.13 L 11.4 10.6 L 10.4 11.57 L 9.46 12.51 L 8.57 13.44 L 7.74 14.35 L 6.96 15.24 L 6.23 16.11 L 5.56 16.97 L 4.95 17.8 L 4.34 18.1 L 3.78 18.42 L 3.51 18.58 L 3.26 18.75 L 3.02 18.93 L 2.79 19.11 L 2.57 19.3 L 2.36 19.49 L 2.16 19.69 L 1.98 19.89 L 1.8 20.1 L 1.64 20.31 L 1.49 20.53 L 1.35 20.75 L 1.22 20.98 L 1.1 21.21 L 1 21.45 L 0.9 21.69 L 0.82 21.94 L 0.75 22.19 L 0.69 22.45 L 0.64 22.71 L 0.6 22.98 L 0.57 23.25 L 0.56 23.53 L 0.55 23.82 L 0.56 24.1 L 0.58 24.4 L 0.61 24.7 L 0.65 25 L 0.74 25.64 L 0.82 26.29 L 0.88 26.94 L 0.94 27.59 L 0.98 28.25 L 1.02 28.92 L 1.04 29.59 L 1.05 30.26 L 1.05 30.94 L 1.04 31.63 L 1.02 32.32 L 0.99 33.02 L 0.94 33.72 L 0.89 34.42 L 0.83 35.13 L 0.75 35.85 L 1.17 35.53 L 1.58 35.21 L 1.95 34.88 L 2.3 34.55 L 2.62 34.21 L 2.92 33.86 L 3.2 33.51 L 3.45 33.15 L 4.4 31.35 L 4.5 31.05 L 4.5 31 L 4.6 30.7 L 4.85 31.59 L 5.13 32.46 L 5.43 33.32 L 5.76 34.15 L 6.12 34.97 L 6.5 35.76 L 6.91 36.54 L 7.35 37.3 L 7.72 37.9 L 8.12 38.49 L 8.54 39.07 L 8.98 39.65 L 9.44 40.22 L 9.92 40.79 L 10.42 41.35 L 10.95 41.9 L 11.1 42.05 L 10.2 38.85 L 9.94 37.72 L 9.71 36.62 L 9.51 35.54 L 9.34 34.47 L 9.2 33.44 L 9.08 32.42 L 9 31.42 L 8.95 30.45 L 8.95 26.85 L 9.18 27.46 L 9.43 28.06 L 9.71 28.65 L 10.01 29.23 L 10.34 29.8 L 10.7 30.36 L 11.09 30.91 L 11.5 31.45 L 11.46 31.04 L 11.42 30.6 L 11.4 30.12 L 11.39 29.6 L 11.39 29.04 L 11.4 28.45 L 11.45 27.15 L 11.5 26.46 L 11.56 25.77 L 11.63 25.11 L 11.73 24.45 L 11.83 23.81 L 11.96 23.17 L 12.1 22.56 L 12.25 21.95 L 12.65 20.4 L 13.25 22.55 L 13.47 23.14 L 13.73 23.75 L 14.03 24.37 L 14.36 25 L 14.74 25.64 L 15.15 26.3 L 15.61 26.97 L 16.1 27.65 L 19.6 32.65 L 19.69 31.91 L 19.75 31.17 L 19.79 30.44 L 19.8 29.7 L 19.79 28.96 L 19.75 28.23 L 19.69 27.49 L 19.6 26.75 L 19.6 26.75 L 19.95 27.1 L 20.95 28.35 L 21.35 28.92 L 21.74 29.49 L 22.1 30.07 L 22.45 30.66 L 22.78 31.26 L 23.09 31.87 L 23.38 32.48 L 23.65 33.1 L 23.77 33.41 L 23.88 33.72 L 23.98 34.03 L 24.06 34.35 L 24.12 34.67 L 24.17 34.99 L 24.21 35.32 L 24.23 35.65 L 24.23 35.98 L 24.22 36.32 L 24.2 36.66 L 24.16 37 L 24.1 37.35 L 24.03 37.69 L 23.95 38.05 L 23.85 38.4 L 24.3 38.12 L 24.74 37.81 L 25.15 37.49 L 25.55 37.15 L 25.93 36.79 L 26.29 36.41 L 26.63 36.02 L 26.95 35.6 L 29.5 30.95 L 29.66 30.58 L 29.81 30.21 L 29.94 29.83 L 30.06 29.46 L 30.17 29.08 L 30.26 28.7 L 30.34 28.32 L 30.4 27.94 L 30.45 27.55 L 30.48 27.16 L 30.51 26.78 L 30.51 26.38 L 30.51 25.99 L 30.48 25.6 L 30.45 25.2 L 30.4 24.8 L 30.34 24.41 L 30.28 24.03 L 30.2 23.66 L 30.11 23.29 L 30.01 22.92 L 29.9 22.56 L 29.78 22.2 L 29.65 21.85 L 29.65 21.85 L 30.2 23.05 L 30.36 23.48 L 30.51 23.93 L 30.66 24.41 L 30.8 24.92 L 30.93 25.46 L 31.06 26.03 L 31.18 26.63 L 31.3 27.25 L 31.4 27.89 L 31.47 28.54 L 31.51 29.2 L 31.52 29.88 L 31.51 30.55 L 31.47 31.24 L 31.4 31.94 L 31.3 32.65 L 31.74 32.15 L 32.16 31.63 L 32.55 31.09 L 32.92 30.52 L 33.28 29.94 L 33.61 29.33 L 33.91 28.7 L 34.2 28.05 L 34.32 27.71 L 34.43 27.36 L 34.53 27.01 L 34.62 26.66 L 34.7 26.29 L 34.77 25.93 L 34.83 25.55 L 34.88 25.17 L 34.91 24.79 L 34.94 24.4 L 34.96 24.01 L 34.97 23.61 L 34.97 23.2 L 34.95 22.79 L 34.9 21.95 L 34.85 21.45 L 34.85 21.45 L 35.08 21.92 L 35.34 22.36 L 35.61 22.79 L 35.9 23.2 L 36.17 23.56 L 36.41 23.92 L 36.64 24.28 L 36.85 24.64 L 37.04 24.99 L 37.21 25.35 L 37.37 25.7 L 37.5 26.05 L 38.1 28.7 L 38.21 28.63 L 38.31 28.54 L 38.42 28.44 L 38.52 28.32 L 38.62 28.18 L 38.72 28.02 L 38.92 27.66 L 39.12 27.24 L 39.32 26.74 L 39.51 26.18 L 39.7 25.55 L 39.95 24.5 L 40.05 26.5 L 40.05 30.2 L 40 31.17 L 39.92 32.17 L 39.8 33.19 L 39.66 34.22 L 39.49 35.29 L 39.29 36.37 L 39.06 37.47 L 38.8 38.6 L 37.9 41.8 L 38.05 41.65 L 38.58 41.1 L 39.08 40.54 L 39.56 39.97 L 40.03 39.4 L 40.46 38.82 L 40.88 38.24 L 41.28 37.65 L 41.65 37.05 L 42.11 36.24 L 42.54 35.41 L 42.94 34.57 L 43.31 33.7 L 43.65 32.82 L 43.97 31.91 L 44.25 30.99 L 44.5 30.05 L 45 30.9 L 46.1 32.6 L 47.1 33.85 L 48.15 35.15 L 48.15 32.8 L 48.1 28.3 L 48.06 27.68 L 48 27.06 L 47.92 26.44 L 47.81 25.83 L 47.68 25.21 L 47.53 24.61 L 47.35 24 L 47.15 23.4 L 46.93 22.83 L 46.68 22.28 L 46.41 21.76 L 46.12 21.27 L 45.81 20.81 L 45.48 20.38 L 45.13 19.98 L 44.75 19.6 L 44.75 19.55 L 44.55 18.25 L 44.23 17.78 L 43.89 17.31 L 43.53 16.83 L 43.16 16.35 L 42.35 15.36 L 41.47 14.34 L 40.53 13.29 L 39.51 12.22 L 38.41 11.12 L 37.25 10 L 36.99 9.56 L 36.72 9.14 L 36.42 8.73 L 36.11 8.33 L 35.79 7.95 L 35.44 7.58 L 35.08 7.22 L 34.7 6.88 L 34.3 6.54 L 33.89 6.23 L 33.46 5.92 L 33.01 5.63 L 32.55 5.35 L 32.07 5.09 L 31.57 4.84 L 31.05 4.6 L 30.65 4.43 L 30.24 4.27 L 29.83 4.11 L 29.43 3.97 L 29.01 3.85 L 28.6 3.73 L 28.18 3.62 L 27.77 3.53 L 27.35 3.44 L 26.92 3.37 L 26.5 3.31 L 26.07 3.26 L 25.64 3.22 L 25.21 3.19 L 24.78 3.18 L 24.34 3.17 Z"/>
      </clipPath>
      <g clip-path="url(#clipPath0)">
        <use ffdec:characterId="17" height="29.1" transform="matrix(1.0, 0.0, 0.0, 1.0, 0.0, 0.0)" width="51.0" xlink:href="#shape2"/>
      </g>
    </g>
    <g id="shape1">
      <path d="M12.25 21.95 Q11.6 24.35 11.45 27.15 11.3 29.9 11.5 31.45 8.65 27.85 8.15 23.25 7.6 18.65 9.4 14.35 11.1 10.2 14.3 7.15 17.35 4.25 21.5 3.4 26.55 2.6 31.05 4.6 35.5 6.55 37.5 10.45 39.5 14.3 40.0 18.6 40.45 22.85 39.7 25.55 38.95 28.2 38.1 28.7 L37.5 26.05 Q37.0 24.65 35.9 23.2 35.3 22.4 34.85 21.45 L34.9 21.95 Q35.2 25.35 34.2 28.05 33.1 30.7 31.3 32.65 31.75 29.8 31.3 27.25 30.85 24.7 30.2 23.05 L29.65 21.85 Q30.2 23.25 30.4 24.8 30.85 28.0 29.5 30.95 L26.95 35.6 Q25.7 37.3 23.85 38.4 24.7 35.55 23.65 33.1 22.6 30.6 20.95 28.35 L19.6 26.7 Q20.0 29.65 19.6 32.65 L16.1 27.65 Q14.05 24.9 13.25 22.55 L12.65 20.4 12.25 21.95" fill="#3a3a46" fill-rule="evenodd" stroke="none"/>
      <path d="M12.25 21.95 Q11.6 24.35 11.45 27.15 11.3 29.9 11.5 31.45 8.65 27.85 8.15 23.25 7.6 18.65 9.4 14.35 11.1 10.2 14.3 7.15 17.35 4.25 21.5 3.4 26.55 2.6 31.05 4.6 35.5 6.55 37.5 10.45 39.5 14.3 40.0 18.6 40.45 22.85 39.7 25.55 38.95 28.2 38.1 28.7 L37.5 26.05 Q37.0 24.65 35.9 23.2 35.3 22.4 34.85 21.45 L34.9 21.95 Q35.2 25.35 34.2 28.05 33.1 30.7 31.3 32.65 31.75 29.8 31.3 27.25 30.85 24.7 30.2 23.05 L29.65 21.85 Q30.2 23.25 30.4 24.8 30.85 28.0 29.5 30.95 L26.95 35.6 Q25.7 37.3 23.85 38.4 24.7 35.55 23.65 33.1 22.6 30.6 20.95 28.35 L19.6 26.7 Q20.0 29.65 19.6 32.65 L16.1 27.65 Q14.05 24.9 13.25 22.55 L12.65 20.4 12.25 21.95 Z" ffdec:has-small-stroke="true" ffdec:original-stroke-width="0.3" fill="none" stroke="#101015" stroke-linecap="round" stroke-linejoin="round" stroke-width="0.9411573891412636"/>
      <path d="M3.45 33.15 Q2.5 34.6 0.75 35.85 1.4 30.1 0.65 25.0 -0.15 19.8 5.6 17.5 4.2 20.9 4.85 26.85 5.3 30.3 3.45 33.15" fill="#3a3a46" fill-rule="evenodd" stroke="none"/>
      <path d="M3.45 33.15 Q2.5 34.6 0.75 35.85 1.4 30.1 0.65 25.0 -0.15 19.8 5.6 17.5 4.2 20.9 4.85 26.85 5.3 30.3 3.45 33.15 Z" ffdec:has-small-stroke="true" ffdec:original-stroke-width="0.3" fill="none" stroke="#101015" stroke-linecap="round" stroke-linejoin="round" stroke-width="0.9411573891412636"/>
      <path d="M41.9 22.05 Q40.55 15.0 44.75 19.6 46.3 21.05 47.15 23.4 48.0 25.8 48.1 28.3 L48.15 32.8 48.15 35.15 47.1 33.85 Q45.3 31.75 44.35 29.7 L43.65 27.4 Q42.5 25.2 41.9 22.05" fill="#3a3a46" fill-rule="evenodd" stroke="none"/>
      <path d="M41.9 22.05 Q40.55 15.0 44.75 19.6 46.3 21.05 47.15 23.4 48.0 25.8 48.1 28.3 L48.15 32.8 48.15 35.15 47.1 33.85 Q45.3 31.75 44.35 29.7 L43.65 27.4 Q42.5 25.2 41.9 22.05 Z" ffdec:has-small-stroke="true" ffdec:original-stroke-width="0.3" fill="none" stroke="#101015" stroke-linecap="round" stroke-linejoin="round" stroke-width="0.9411573891412636"/>
      <path d="M20.55 27.7 L19.25 26.4 Q18.55 24.1 18.2 22.4 17.85 20.7 18.55 17.45 18.4 19.7 18.9 21.4 19.35 23.05 20.75 25.4 22.15 27.7 23.15 31.7 21.85 29.45 20.55 27.7" fill="#1d1d28" fill-rule="evenodd" stroke="none"/>
      <path d="M25.8 12.6 Q28.35 13.7 28.9 16.75 29.45 19.75 29.25 20.2 28.0 17.0 25.95 14.4 L25.0 13.15 25.8 12.6" fill="#1d1d28" fill-rule="evenodd" stroke="none"/>
      <path d="M45.55 25.8 Q46.55 27.8 47.25 33.9 45.35 31.95 44.6 30.1 45.25 26.85 44.75 24.0 L45.55 25.8" fill="#1d1d28" fill-rule="evenodd" stroke="none"/>
      <path d="M3.75 26.1 Q2.8 28.65 2.4 34.4 3.65 33.1 4.5 31.05 3.8 26.85 4.3 24.0 L3.75 26.1" fill="#1d1d28" fill-rule="evenodd" stroke="none"/>
      <path d="M9.55 22.15 L9.8 27.4 4.6 28.85 Q3.85 23.85 3.85 22.15 3.85 19.75 4.65 18.05 5.5 16.35 6.7 16.35 7.9 16.35 8.7 18.05 9.55 19.75 9.55 22.15" fill="#3a3a46" fill-rule="evenodd" stroke="none"/>
      <path d="M39.4 21.65 Q39.05 19.35 39.95 17.5 40.8 15.65 42.0 15.65 43.2 15.65 44.05 17.35 44.85 19.05 44.85 21.45 44.85 23.15 44.1 28.15 L40.0 28.4 39.4 21.65" fill="#3a3a46" fill-rule="evenodd" stroke="none"/>
    </g>
    <g id="shape2">
      <path d="M22.45 4.15 L30.05 4.9 Q34.65 5.7 38.85 8.95 43.0 12.2 45.85 16.8 48.8 21.35 49.25 26.3 L50.25 33.25 Q40.95 27.15 37.3 25.7 33.65 24.2 27.9 23.35 22.1 22.45 14.3 24.7 6.5 26.95 -0.75 30.95 -0.3 21.35 1.25 18.15 2.85 15.0 5.15 12.15 7.15 9.6 9.9 7.85 14.05 5.35 16.75 4.85 L22.45 4.15" fill="#1d1d28" fill-rule="evenodd" stroke="none"/>
      <path d="M9.8 22.85 L4.5 21.55 10.85 21.25 Q15.75 22.9 24.65 22.95 L22.95 23.2 Q16.2 24.1 9.8 22.85 M33.05 22.6 L32.25 22.55 Q36.8 21.9 40.0 20.35 L40.2 20.25 43.2 21.2 Q36.45 22.9 33.05 22.6" fill="#747480" fill-rule="evenodd" stroke="none"/>
    </g>
    <g id="sprite2">
      <clipPath id="clipPath1">
        <path d="M 9.6 6.55 L -4.75 10.4 L -4.75 33.6 L 9.6 29.75 L 9.6 6.55 Z"/>
      </clipPath>
      <g clip-path="url(#clipPath1)">
        <use ffdec:characterId="7" height="32.75" transform="matrix(1.0, 0.0, 0.0, 1.0, 0.0, 0.0)" width="8.65" xlink:href="#shape3"/>
      </g>
    </g>
    <g id="shape3">
      <path d="M-0.05 9.75 L-0.3 7.4 Q-0.5 3.95 0.15 -0.85 2.85 -4.85 8.3 -9.9 5.5 -1.7 5.0 2.8 L4.9 3.9 Q4.7 5.7 4.65 7.4 L4.65 11.1 Q4.8 14.95 5.9 19.5 L6.8 22.7 6.65 22.55 Q4.5 20.35 3.05 17.95 1.05 14.6 0.1 10.5 L-0.05 9.75" fill="#3a3a46" fill-rule="evenodd" stroke="none"/>
      <path d="M-0.05 9.75 L0.1 10.5 Q1.05 14.6 3.05 17.95 4.5 20.35 6.65 22.55 L6.8 22.7 5.9 19.5 Q4.8 14.95 4.65 11.1 L4.65 7.4 Q4.7 5.7 4.9 3.9" ffdec:has-small-stroke="true" ffdec:original-stroke-width="0.3" fill="none" stroke="#101015" stroke-linecap="round" stroke-linejoin="round" stroke-width="0.8357418198713703"/>
    </g>
    <g id="sprite3">
      <clipPath id="clipPath2">
        <path d="M 9.6 6.55 L -4.75 10.4 L -4.75 33.6 L 9.6 29.75 L 9.6 6.55 Z"/>
      </clipPath>
      <g clip-path="url(#clipPath2)">
        <use ffdec:characterId="7" height="32.75" transform="matrix(1.0, 0.0, 0.0, 1.0, 0.0, 0.0)" width="8.65" xlink:href="#shape4"/>
      </g>
    </g>
    <g id="shape4">
      <path d="M-0.05 9.75 L-0.3 7.4 Q-0.5 3.95 0.15 -0.85 2.85 -4.85 8.3 -9.9 5.5 -1.7 5.0 2.8 L4.9 3.9 Q4.7 5.7 4.65 7.4 L4.65 11.1 Q4.8 14.95 5.9 19.5 L6.8 22.7 6.65 22.55 Q4.5 20.35 3.05 17.95 1.05 14.6 0.1 10.5 L-0.05 9.75" fill="#3a3a46" fill-rule="evenodd" stroke="none"/>
      <path d="M-0.05 9.75 L0.1 10.5 Q1.05 14.6 3.05 17.95 4.5 20.35 6.65 22.55 L6.8 22.7 5.9 19.5 Q4.8 14.95 4.65 11.1 L4.65 7.4 Q4.7 5.7 4.9 3.9" ffdec:has-small-stroke="true" ffdec:original-stroke-width="0.3" fill="none" stroke="#101015" stroke-linecap="round" stroke-linejoin="round" stroke-width="0.8926093914818871"/>
    </g>
    <g id="shape5">
      <path d="M-3.45 -33.45 L-4.9 -31.4 Q-5.75 -29.65 -7.85 -28.3 -9.95 -26.9 -11.75 -27.0 -12.8 -27.05 -13.0 -27.4 -13.2 -27.7 -12.75 -28.65 L-11.7 -30.65 -10.5 -32.6 Q-8.75 -35.0 -6.0 -35.4 L-5.7 -35.5 -5.5 -35.75 -9.4 -35.35 -13.05 -34.05 Q-12.55 -35.7 -10.55 -37.25 -8.6 -38.75 -6.65 -39.05 -4.5 -39.4 -2.45 -38.65 -0.75 -38.05 1.25 -36.5 L0.65 -37.6 Q1.55 -38.7 2.9 -39.25 L5.55 -39.5 1.85 -36.25 2.1 -35.9 Q5.1 -37.95 8.05 -37.45 10.7 -37.05 13.35 -34.65 L11.35 -35.0 9.25 -35.2 7.15 -35.0 5.0 -34.5 Q7.0 -34.4 8.05 -33.05 8.9 -32.05 9.3 -30.05 9.7 -27.75 8.2 -26.0 L8.7 -28.65 8.6 -28.7 6.8 -24.85 6.7 -28.5 Q6.45 -30.5 5.45 -31.85 6.6 -29.3 5.2 -26.75 3.8 -24.15 1.35 -23.0 L3.1 -28.2 -0.3 -23.85 -1.1 -23.3 -2.85 -23.2 -3.1 -23.8 -3.1 -24.65 -2.9 -26.8 -2.8 -28.95 -3.7 -24.2 Q-6.3 -29.1 -3.1 -33.2 L-3.45 -33.45 M1.8 -35.3 L1.8 -35.2 Q-2.1 -38.55 -6.7 -37.7 -11.35 -36.9 -7.7 -37.1 -4.1 -37.25 -1.5 -35.3 -3.6 -35.6 -5.55 -34.2 L-5.9 -33.95 -6.55 -33.25 -1.3 -34.25 -1.25 -34.3 -1.6 -33.5 -2.65 -31.9 -2.95 -30.2 -2.65 -30.55 Q-2.0 -32.15 -1.05 -32.6 L-1.0 -32.6 Q-2.0 -29.8 -0.95 -25.45 L-1.1 -24.45 Q0.3 -26.45 2.0 -28.05 3.7 -29.65 3.75 -31.25 L4.2 -28.15 4.9 -29.25 Q5.25 -30.1 4.95 -32.85 L5.8 -32.35 7.5 -30.55 7.8 -28.6 8.1 -29.05 Q8.65 -30.7 7.95 -32.25 L7.6 -32.6 6.35 -33.7 Q5.3 -34.45 3.3 -34.65 L3.6 -35.1 3.95 -35.2 Q6.55 -36.6 10.0 -35.9 L9.45 -36.25 Q6.3 -37.15 3.3 -36.25 L1.8 -35.3 M1.0 -37.25 L1.45 -36.25 1.5 -36.2 4.1 -38.95 4.3 -39.1 4.2 -39.1 4.3 -39.2 4.15 -39.05 Q2.6 -38.7 1.0 -37.25 M9.7 -34.45 Q11.95 -34.8 13.75 -33.3 15.5 -31.8 15.4 -29.55 L14.2 -31.05 12.85 -32.55 11.25 -33.6 9.7 -34.45 M8.55 -33.7 Q10.55 -33.45 11.4 -31.45 12.25 -29.45 11.2 -27.15 L8.55 -33.7" fill="#2f738b" fill-rule="evenodd" stroke="none"/>
      <path d="M1.0 -37.25 Q2.6 -38.7 4.15 -39.05 L4.3 -39.2 4.2 -39.1 4.3 -39.1 4.1 -38.95 1.5 -36.2 1.45 -36.25 1.0 -37.25 M1.8 -35.3 L3.3 -36.25 Q6.3 -37.15 9.45 -36.25 L10.0 -35.9 Q6.55 -36.6 3.95 -35.2 L3.6 -35.1 3.3 -34.65 Q5.3 -34.45 6.35 -33.7 L7.6 -32.6 7.95 -32.25 Q8.65 -30.7 8.1 -29.05 L7.8 -28.6 7.5 -30.55 5.8 -32.35 4.95 -32.85 Q5.25 -30.1 4.9 -29.25 L4.2 -28.15 3.75 -31.25 Q3.7 -29.65 2.0 -28.05 0.3 -26.45 -1.1 -24.45 L-0.95 -25.45 Q-2.0 -29.8 -1.0 -32.6 L-1.05 -32.6 Q-2.0 -32.15 -2.65 -30.55 L-2.95 -30.2 -2.65 -31.9 -1.6 -33.5 -1.25 -34.3 -1.3 -34.25 -6.55 -33.25 -5.9 -33.95 -5.55 -34.2 Q-3.6 -35.6 -1.5 -35.3 -4.1 -37.25 -7.7 -37.1 -11.35 -36.9 -6.7 -37.7 -2.1 -38.55 1.8 -35.2 L1.8 -35.3" fill="#5bb4d4" fill-rule="evenodd" stroke="none"/>
      <path d="M-14.85 -24.8 Q-12.8 -24.8 -11.8 -23.15 -10.85 -21.55 -11.9 -19.9 -13.0 -18.2 -14.25 -17.4 -15.45 -16.7 -16.8 -17.0 -18.05 -17.3 -18.85 -18.35 -19.55 -19.25 -19.4 -20.6 -19.3 -22.0 -18.45 -23.0 -17.05 -24.65 -14.85 -24.8 M15.2 -24.35 Q17.55 -24.1 18.65 -22.5 19.75 -20.95 19.0 -19.05 18.45 -17.65 16.7 -17.3 14.95 -17.0 14.05 -17.95 L13.05 -18.75 12.0 -19.5 Q11.2 -20.1 11.05 -20.75 10.95 -21.35 11.4 -22.25 11.85 -23.2 12.95 -23.75 13.95 -24.3 15.2 -24.35" fill="#ffffff" fill-rule="evenodd" stroke="none"/>
      <path d="M-13.4 -16.45 L-13.2 -16.1 -12.85 -15.75 Q-12.2 -14.2 -10.15 -13.6 L-8.7 -13.15 -3.5 -12.75 3.85 -12.7 11.45 -12.9 13.15 -14.15 13.2 -17.75 Q14.75 -16.35 14.95 -14.65 15.2 -12.75 13.5 -11.45 11.85 -10.1 9.05 -10.45 -0.15 -11.65 -7.0 -10.65 -9.05 -10.4 -11.15 -10.6 -12.85 -10.75 -13.6 -11.95 -14.35 -13.1 -13.95 -14.85 L-13.4 -16.45" fill="#ddbac9" fill-rule="evenodd" stroke="none"/>
      <path d="M-13.4 -16.45 Q-12.7 -17.95 -11.45 -19.0 -9.9 -20.35 -7.2 -21.05 L-3.7 -21.7 -0.2 -22.2 Q3.8 -21.95 6.6 -21.15 10.15 -20.15 12.8 -18.1 L13.2 -17.75 13.15 -14.15 11.45 -12.9 3.85 -12.7 -3.5 -12.75 -8.7 -13.15 -10.15 -13.6 Q-12.2 -14.2 -12.85 -15.75 L-13.2 -16.1 -13.4 -16.45" fill="#eddbe3" fill-rule="evenodd" stroke="none"/>
      <path d="M6.2 -20.3 Q6.95 -19.9 5.9 -19.75 -0.6 -20.3 -6.8 -19.75 -3.45 -22.35 4.5 -20.85 L6.2 -20.3" fill="#ffffff" fill-opacity="0.49803922" fill-rule="evenodd" stroke="none"/>
      <path d="M-11.45 -11.0 Q-0.25 -13.4 9.45 -11.5 L4.25 -11.85 -0.95 -12.0 -6.2 -11.6 -11.45 -11.0" fill="#221916" fill-rule="evenodd" stroke="none"/>
      <path d="M-6.9 -16.0 Q-6.95 -15.4 -7.4 -14.95 -7.85 -14.5 -8.45 -14.55 -9.05 -14.55 -9.45 -15.05 -9.9 -15.5 -9.9 -16.1 L-9.35 -17.05 Q-8.85 -17.45 -8.3 -17.45 -7.75 -17.4 -7.3 -17.0 -6.9 -16.55 -6.9 -16.0" fill="#221916" fill-rule="evenodd" stroke="none"/>
      <path d="M8.1 -14.65 Q7.15 -14.65 6.6 -15.1 6.1 -15.5 6.15 -16.2 6.2 -17.4 7.4 -17.45 8.1 -17.45 8.6 -16.9 9.2 -16.4 9.05 -15.8 L8.6 -15.1 8.1 -14.65" fill="#221916" fill-rule="evenodd" stroke="none"/>
      <path d="M-15.4 -18.8 Q-16.35 -18.8 -17.0 -19.45 -17.55 -20.1 -17.55 -21.15 -17.5 -22.3 -16.7 -23.1 -15.95 -23.95 -14.9 -23.95 -13.9 -23.95 -13.25 -23.2 -12.5 -22.5 -12.5 -21.5 -12.45 -20.45 -13.35 -19.65 -14.3 -18.8 -15.4 -18.8 M-14.3 -23.4 L-14.75 -23.4 -15.1 -22.85 -15.35 -22.3 Q-15.5 -21.8 -15.25 -21.45 -15.0 -21.1 -14.55 -21.25 L-13.95 -21.65 Q-13.65 -22.0 -13.65 -22.3 L-13.85 -22.85 -14.3 -23.4" fill="#096eb2" fill-rule="evenodd" stroke="none"/>
      <path d="M-14.3 -23.4 L-13.85 -22.85 -13.65 -22.3 Q-13.65 -22.0 -13.95 -21.65 L-14.55 -21.25 Q-15.0 -21.1 -15.25 -21.45 -15.5 -21.8 -15.35 -22.3 L-15.1 -22.85 -14.75 -23.4 -14.3 -23.4" fill="#a1ffff" fill-rule="evenodd" stroke="none"/>
      <path d="M17.45 -20.9 Q17.5 -19.85 16.8 -19.1 16.15 -18.35 15.2 -18.35 14.0 -18.3 13.1 -19.15 12.25 -20.0 12.25 -21.15 12.25 -22.1 13.0 -22.75 13.8 -23.4 14.95 -23.4 16.05 -23.4 16.75 -22.7 17.45 -22.0 17.45 -20.9 M16.15 -21.65 L16.15 -22.1 15.55 -22.55 14.95 -22.75 14.4 -22.45 14.1 -21.9 Q14.0 -21.4 14.3 -21.05 L15.15 -20.85 15.7 -21.15 16.15 -21.65" fill="#096eb2" fill-rule="evenodd" stroke="none"/>
      <path d="M-13.85 -22.85 L-13.65 -22.3 Q-13.65 -22.0 -13.95 -21.65 L-14.55 -21.25 Q-15.0 -21.1 -15.25 -21.45 -15.5 -21.8 -15.35 -22.3 L-15.1 -22.85 -14.85 -22.8 -14.3 -23.4 -14.2 -23.25 -13.85 -22.85" fill="#a1ffff" fill-rule="evenodd" stroke="none"/>
      <path d="M-13.6 -22.45 Q-13.6 -22.05 -13.9 -21.75 -14.2 -21.45 -14.6 -21.45 -15.0 -21.45 -15.3 -21.75 L-15.6 -22.45 -15.3 -23.15 -14.6 -23.45 Q-14.2 -23.45 -13.9 -23.15 -13.6 -22.85 -13.6 -22.45" fill="#a1ffff" fill-rule="evenodd" stroke="none"/>
      <path d="M25.6 -5.6 L25.4 -5.9 Q22.3 -10.5 16.7 -13.15 L16.05 -13.65 Q15.85 -13.9 15.75 -14.4 L15.5 -15.3 15.25 -16.0 17.15 -16.75 Q18.25 -17.2 18.9 -17.7 20.25 -18.8 20.1 -20.8 19.95 -22.75 18.45 -23.8 16.9 -24.9 14.9 -24.85 12.8 -24.8 11.6 -23.4 L10.85 -22.1 10.35 -20.75 2.6 -22.85 4.45 -24.15 Q5.55 -25.0 5.9 -26.05 L5.55 -23.25 Q7.3 -24.05 8.25 -24.85 9.55 -25.95 10.1 -27.55 L10.6 -25.15 Q12.25 -26.95 12.55 -28.55 L15.3 -27.45 15.3 -27.4 15.95 -26.25 16.05 -27.0 Q17.75 -25.9 18.95 -24.2 22.45 -19.15 24.5 -12.4 25.55 -8.95 25.6 -5.6 M25.2 -1.5 L24.45 -2.75 Q21.5 -7.0 16.5 -10.0 L14.75 -11.05 15.75 -13.2 Q22.3 -10.2 25.6 -4.85 L25.2 -1.5 M-13.15 -26.55 L-13.0 -26.5 Q-9.55 -25.9 -6.3 -28.35 L-5.6 -28.8 -4.95 -25.15 Q-4.6 -24.1 -4.85 -24.6 L-4.75 -24.35 -4.0 -22.75 -11.0 -20.5 -10.9 -22.15 Q-11.05 -23.55 -12.2 -24.45 -13.35 -25.35 -14.95 -25.25 L-15.05 -25.25 -13.15 -26.55 M-20.1 -20.55 L-20.15 -20.0 Q-20.1 -18.15 -18.6 -17.0 -17.1 -15.9 -15.3 -16.4 L-14.35 -16.7 -14.95 -13.8 -15.65 -13.2 Q-19.15 -11.25 -21.45 -9.25 L-23.65 -6.9 Q-23.65 -13.85 -21.2 -18.7 L-20.1 -20.55 M-23.65 -6.2 Q-21.15 -9.6 -16.6 -12.1 L-15.05 -13.05 -14.0 -10.55 -17.45 -8.65 Q-21.4 -6.3 -23.5 -3.05 L-23.65 -4.9 -23.65 -6.2" fill="#ffffff" fill-rule="evenodd" stroke="none"/>
      <path d="M12.0 -32.15 L11.75 -32.65 12.35 -32.1 12.0 -32.15" fill="#915033" fill-rule="evenodd" stroke="none"/>
      <path d="M25.6 -5.6 Q25.55 -8.95 24.5 -12.4 22.45 -19.15 18.95 -24.2 17.75 -25.9 16.05 -27.0 L16.25 -29.85 20.1 -26.6 Q21.85 -24.75 22.9 -22.55 26.4 -15.05 28.55 -5.35 L29.95 1.75 Q30.5 4.75 29.1 7.8 27.45 11.15 24.1 12.65 21.85 13.6 19.75 14.5 17.6 15.4 13.55 16.2 L7.05 16.6 Q4.7 16.3 2.15 15.0 L6.2 15.6 11.75 15.05 16.6 14.15 20.95 12.4 Q24.55 10.75 25.85 5.95 L26.15 4.5 Q26.65 1.3 25.2 -1.5 L25.6 -4.85 27.3 -1.25 27.55 -0.5 Q29.6 6.0 24.8 10.5 L24.5 10.8 24.45 11.0 Q25.5 10.6 26.6 9.1 27.75 7.6 28.15 6.1 29.0 2.9 28.15 -0.25 L27.15 -2.85 25.6 -5.6 M15.3 -27.45 L12.55 -28.55 12.6 -28.8 12.65 -29.85 12.6 -30.3 12.45 -30.85 12.0 -32.15 12.35 -32.1 12.65 -31.8 13.5 -30.85 14.1 -29.95 14.55 -29.15 14.8 -28.6 14.9 -28.4 15.2 -27.65 15.3 -27.45 M-13.15 -26.55 L-15.05 -25.25 Q-17.15 -25.1 -18.6 -23.6 -20.0 -22.25 -20.1 -20.55 L-21.2 -18.7 Q-23.65 -13.85 -23.65 -6.9 L-25.75 -3.75 Q-26.8 -1.7 -27.2 0.25 -28.15 4.6 -26.05 8.45 -25.4 9.65 -23.45 11.15 L-24.45 10.1 -25.35 8.9 Q-27.2 5.95 -27.05 2.65 L-26.85 0.8 Q-26.45 -1.3 -25.3 -3.6 L-23.65 -6.2 -23.65 -4.9 -23.5 -3.05 -23.85 -2.55 Q-25.4 0.05 -25.4 2.65 -25.45 4.75 -24.5 6.85 -22.3 11.6 -16.35 13.45 -10.45 15.25 -7.2 15.7 L-1.9 15.55 Q-3.5 16.55 -4.95 16.85 L-11.6 16.2 Q-16.75 15.3 -18.7 14.6 L-22.9 12.9 Q-26.4 11.3 -27.95 8.15 -29.4 5.25 -28.85 1.55 L-28.3 -1.85 Q-26.95 -9.45 -24.3 -17.55 -22.05 -24.5 -16.9 -28.2 L-15.2 -29.2 -13.4 -30.2 -13.85 -27.7 -13.75 -26.9 Q-13.6 -26.7 -13.15 -26.55" fill="#ebe4e7" fill-rule="evenodd" stroke="none"/>
      <path d="M22.95 -41.0 L23.35 -40.9 23.45 -40.85 Q24.2 -40.45 24.55 -39.35 L24.55 -39.3 Q25.3 -37.15 25.55 -34.5 L25.65 -33.55 25.65 -33.25 25.65 -33.15 Q25.4 -32.25 23.7 -30.35 L23.2 -30.0 23.15 -29.95 22.95 -29.55 22.7 -28.85 22.55 -28.85 22.3 -28.5 22.3 -28.35 21.3 -27.6 21.7 -28.0 Q22.65 -29.05 23.15 -30.35 23.75 -31.9 23.75 -33.8 23.8 -36.1 23.5 -37.6 23.25 -38.7 22.6 -38.9 21.85 -39.15 21.0 -38.35 19.65 -37.1 19.0 -35.95 L17.75 -33.4 16.8 -31.15 16.6 -30.75 15.15 -33.45 15.2 -33.6 15.45 -34.1 15.8 -35.25 16.25 -35.75 16.55 -36.75 17.65 -37.9 Q19.65 -40.6 22.95 -41.0" fill="#d9c5cd" fill-rule="evenodd" stroke="none"/>
      <path d="M22.95 -41.0 Q19.65 -40.6 17.65 -37.9 L16.55 -36.75 16.25 -35.75 15.8 -35.25 15.45 -34.1 15.2 -33.6 15.15 -33.45 13.95 -35.7 Q15.5 -37.95 17.15 -39.2 19.1 -40.7 21.5 -41.05 L22.6 -41.05 22.95 -41.0 M21.3 -27.6 L22.3 -28.35 22.3 -28.5 22.55 -28.85 22.7 -28.85 22.95 -29.55 23.15 -29.95 23.2 -30.0 23.7 -30.35 Q25.4 -32.25 25.65 -33.15 25.7 -29.0 23.6 -26.2 L23.1 -25.5 22.55 -25.05 20.9 -27.25 21.05 -27.35 21.15 -27.45 21.25 -27.5 21.3 -27.6 M21.95 -38.15 L22.55 -38.45 23.0 -37.65 23.3 -36.9 Q23.35 -33.4 23.05 -31.25 L23.0 -30.85 22.95 -30.65 Q22.5 -29.25 21.25 -30.65 19.85 -32.15 20.0 -33.5 20.1 -34.85 20.5 -35.2 20.85 -35.6 21.2 -36.85 L21.7 -37.7 22.1 -38.2 21.95 -38.15" fill="#cca2b4" fill-rule="evenodd" stroke="none"/>
      <path d="M21.95 -38.15 L22.1 -38.2 21.7 -37.7 21.2 -36.85 Q20.85 -35.6 20.5 -35.2 20.1 -34.85 20.0 -33.5 19.85 -32.15 21.25 -30.65 22.5 -29.25 22.95 -30.65 L22.25 -29.25 20.7 -27.55 18.0 -29.7 17.75 -30.15 17.7 -30.65 Q17.95 -32.45 18.85 -34.3 19.6 -35.8 20.9 -37.55 21.1 -37.8 21.65 -38.05 L21.95 -38.15" fill="#cc8cb3" fill-rule="evenodd" stroke="none"/>
      <path d="M16.2 -38.05 L18.45 -39.8 20.4 -40.6 23.7 -40.45 Q22.1 -39.9 21.45 -39.3 L19.45 -37.5 Q18.15 -36.35 17.4 -34.6 16.65 -32.85 16.45 -31.1 15.0 -32.65 14.85 -34.65 14.7 -36.7 16.2 -38.05" fill="#ffffff" fill-rule="evenodd" stroke="none"/>
      <path d="M-23.05 -41.1 L-21.4 -41.05 Q-16.45 -39.85 -14.0 -36.1 L-13.7 -35.3 -13.85 -34.5 -14.3 -33.55 -14.65 -32.45 -10.75 -34.3 -10.7 -34.15 -12.05 -33.1 -13.35 -31.95 -14.5 -30.7 Q-15.2 -30.0 -16.0 -29.8 L-16.65 -31.7 -17.4 -33.45 -17.45 -33.55 -17.55 -35.05 Q-17.95 -36.2 -18.85 -37.25 -20.55 -39.3 -23.05 -41.1 M-22.15 -29.05 L-21.2 -27.85 -20.05 -26.6 -21.85 -24.5 Q-22.4 -24.85 -22.55 -25.05 -25.05 -28.1 -25.65 -31.6 -24.85 -30.15 -23.65 -29.35 L-23.65 -29.25 -23.55 -29.25 -23.25 -29.15 -23.15 -29.05 -22.15 -29.05 M-19.7 -36.15 L-19.65 -35.6 Q-19.05 -31.9 -21.9 -30.2 L-21.85 -29.5 -21.65 -29.05 -21.7 -29.05 -21.95 -29.45 Q-23.1 -31.45 -23.25 -34.2 L-23.05 -37.25 Q-22.9 -38.25 -22.45 -38.4 -22.0 -38.55 -21.25 -37.9 L-20.45 -37.15 -20.2 -36.8 -19.7 -36.15" fill="#cca2b4" fill-rule="evenodd" stroke="none"/>
      <path d="M-21.65 -29.05 L-21.85 -29.5 -21.9 -30.2 Q-19.05 -31.9 -19.65 -35.6 L-19.7 -36.15 -18.15 -33.45 -17.8 -32.55 -17.45 -31.45 -17.15 -30.3 -18.9 -30.3 -18.9 -30.05 -16.9 -29.65 -16.85 -29.65 -16.85 -29.25 -19.55 -28.7 -19.55 -28.6 -18.35 -28.5 Q-19.1 -27.3 -19.65 -27.25 -20.2 -27.2 -21.1 -28.25 L-21.25 -28.4 -21.6 -28.9 -21.65 -29.05" fill="#cc8cb3" fill-rule="evenodd" stroke="none"/>
      <path d="M-23.05 -41.1 Q-20.55 -39.3 -18.85 -37.25 -17.95 -36.2 -17.55 -35.05 L-17.45 -33.55 Q-19.0 -36.1 -20.5 -37.85 L-20.8 -38.15 -20.85 -38.2 Q-21.75 -39.15 -22.5 -38.85 -23.3 -38.55 -23.4 -37.3 L-23.45 -33.05 Q-23.2 -30.8 -22.15 -29.05 L-23.15 -29.05 -23.25 -29.15 -23.55 -29.25 -23.65 -29.25 -23.65 -29.35 Q-24.85 -30.15 -25.65 -31.6 -26.0 -33.45 -25.8 -35.4 -25.55 -37.4 -24.7 -39.55 -24.3 -40.6 -23.45 -41.0 L-23.05 -41.1" fill="#d9c5cd" fill-rule="evenodd" stroke="none"/>
      <path d="M-21.7 -29.05 L-21.65 -29.05 -21.6 -28.9 -21.7 -29.05" fill="#462216" fill-rule="evenodd" stroke="none"/>
      <path d="M-15.85 -37.65 L-17.8 -39.4 -19.5 -40.2 -23.0 -40.75 -19.4 -38.35 -21.2 -39.45 -18.65 -37.1 Q-17.55 -35.95 -16.9 -34.2 -16.25 -32.45 -16.05 -30.7 -14.8 -32.25 -14.7 -34.25 -14.55 -36.3 -15.85 -37.65" fill="#ffffff" fill-rule="evenodd" stroke="none"/>
      <path d="M22.55 -25.05 L23.1 -25.5 23.6 -26.2 Q26.05 -29.45 25.55 -34.5 25.3 -37.15 24.55 -39.35 24.2 -40.45 23.45 -40.85 L21.5 -41.05 Q19.1 -40.7 17.15 -39.2 15.5 -37.95 13.95 -35.7 L16.6 -30.75 17.75 -33.4 19.0 -35.95 Q19.65 -37.1 21.0 -38.35 21.85 -39.15 22.6 -38.9 23.25 -38.7 23.5 -37.6 23.8 -36.1 23.75 -33.8 23.7 -29.55 20.9 -27.25 L22.55 -25.05 M20.7 -27.55 L22.25 -29.25 Q22.95 -30.2 23.05 -31.25 23.35 -33.4 23.3 -36.9 L23.0 -37.65 22.55 -38.45 21.65 -38.05 Q21.1 -37.8 20.9 -37.55 19.6 -35.8 18.85 -34.3 17.95 -32.45 17.7 -30.65 L17.75 -30.15 18.0 -29.7 20.7 -27.55 M-13.0 -36.4 Q-9.05 -39.65 -6.1 -40.1 -3.15 -40.55 0.2 -38.35 1.85 -40.4 5.2 -40.55 L6.7 -40.4 8.35 -40.15 5.35 -38.65 5.45 -38.4 9.45 -38.05 Q11.15 -37.55 13.1 -36.3 15.45 -40.3 20.55 -42.05 L23.6 -41.95 Q25.1 -41.25 25.7 -39.65 27.75 -34.15 26.2 -28.85 L25.25 -26.75 24.2 -24.65 Q23.75 -23.6 23.95 -23.05 27.6 -15.25 29.65 -5.8 L30.6 -1.75 31.15 2.3 Q31.3 7.4 28.85 10.45 26.4 13.5 22.75 14.7 L20.05 15.5 15.7 17.05 9.5 17.7 5.35 17.25 4.7 17.0 2.25 15.3 2.05 14.95 1.65 14.9 1.85 14.8 7.7 14.5 Q12.65 14.5 19.15 12.0 22.3 10.95 23.8 8.65 25.35 6.25 25.65 4.45 L25.85 4.05 26.0 2.8 25.45 0.65 24.65 -0.8 24.2 -1.45 24.0 -1.6 22.9 -3.2 22.6 -3.8 22.4 -4.2 21.25 -5.4 21.1 -5.55 21.05 -5.55 20.6 -6.05 20.85 -5.7 16.9 -8.35 16.0 -9.0 Q14.5 -9.65 13.15 -9.6 L12.9 -9.6 12.4 -9.65 9.45 -9.35 9.25 -9.4 7.55 -9.5 6.85 -9.6 5.2 -10.1 0.35 -10.4 0.05 -10.4 -0.75 -10.4 -3.95 -10.25 -4.95 -10.2 -7.65 -9.7 -11.7 -9.65 -12.75 -9.4 -12.95 -9.3 -14.2 -9.05 Q-15.2 -8.5 -17.2 -7.5 L-18.95 -6.2 -19.65 -5.75 Q-22.3 -3.25 -21.65 -4.05 L-22.5 -3.05 Q-23.95 -1.3 -24.75 1.55 L-24.7 2.8 -24.5 4.25 Q-24.3 7.05 -20.2 9.95 -16.1 12.85 -11.3 13.55 L-9.3 14.05 -3.6 14.65 -1.4 14.65 Q0.0 14.6 -0.45 14.9 L-0.4 14.9 -0.5 15.05 -1.2 15.8 Q-1.9 16.55 -4.65 17.3 -7.4 18.05 -14.45 16.6 L-17.55 16.0 -16.85 16.05 -19.1 15.65 -19.25 15.65 -21.45 14.85 -23.8 13.9 Q-29.75 11.05 -30.05 4.1 -30.15 1.55 -29.55 -1.6 L-28.3 -7.15 -26.55 -14.3 Q-25.35 -18.3 -23.95 -21.25 -23.35 -22.45 -23.45 -23.35 -23.5 -24.3 -24.3 -25.45 -28.6 -31.55 -26.1 -39.15 -25.4 -41.3 -23.9 -41.95 -22.45 -42.65 -20.3 -41.9 -15.35 -40.15 -13.0 -36.4 M-3.45 -33.45 L-3.1 -33.2 Q-6.3 -29.1 -3.7 -24.2 L-2.8 -28.95 -2.9 -26.8 -3.1 -24.65 -3.1 -23.8 -2.85 -23.2 -1.1 -23.3 -0.3 -23.85 3.1 -28.2 1.35 -23.0 Q3.8 -24.15 5.2 -26.75 6.6 -29.3 5.45 -31.85 6.45 -30.5 6.7 -28.5 L6.8 -24.85 8.6 -28.7 8.7 -28.65 8.2 -26.0 Q9.7 -27.75 9.3 -30.05 8.9 -32.05 8.05 -33.05 7.0 -34.4 5.0 -34.5 L7.15 -35.0 9.25 -35.2 11.35 -35.0 13.35 -34.65 Q10.7 -37.05 8.05 -37.45 5.1 -37.95 2.1 -35.9 L1.85 -36.25 5.55 -39.5 2.9 -39.25 Q1.55 -38.7 0.65 -37.6 L1.25 -36.5 Q-0.75 -38.05 -2.45 -38.65 -4.5 -39.4 -6.65 -39.05 -8.6 -38.75 -10.55 -37.25 -12.55 -35.7 -13.05 -34.05 L-9.4 -35.35 -5.5 -35.75 -5.7 -35.5 -6.0 -35.4 Q-8.75 -35.0 -10.5 -32.6 L-11.7 -30.65 -12.75 -28.65 Q-13.2 -27.7 -13.0 -27.4 -12.8 -27.05 -11.75 -27.0 -9.95 -26.9 -7.85 -28.3 -5.75 -29.65 -4.9 -31.4 L-3.45 -33.45 M15.25 -16.0 L15.5 -15.3 15.75 -14.4 Q15.85 -13.9 16.05 -13.65 L16.7 -13.15 Q22.3 -10.5 25.4 -5.9 27.45 -2.85 28.15 -0.25 29.0 2.9 28.15 6.1 27.75 7.6 26.6 9.1 25.5 10.6 24.45 11.0 L24.5 10.8 24.8 10.5 Q29.6 6.0 27.55 -0.5 24.8 -9.1 15.75 -13.2 L14.75 -11.05 16.5 -10.0 Q21.5 -7.0 24.45 -2.75 27.15 1.15 25.85 5.95 24.55 10.75 20.95 12.4 L16.6 14.15 11.75 15.05 6.2 15.6 2.15 15.0 Q4.7 16.3 7.05 16.6 L13.55 16.2 Q17.6 15.4 19.75 14.5 21.85 13.6 24.1 12.65 27.45 11.15 29.1 7.8 30.5 4.75 29.95 1.75 L28.55 -5.35 Q26.4 -15.05 22.9 -22.55 21.85 -24.75 20.1 -26.6 L16.25 -29.85 15.95 -26.25 15.3 -27.4 14.8 -28.6 13.5 -30.85 12.65 -31.8 11.75 -32.65 Q12.85 -30.45 12.6 -28.8 12.35 -27.1 10.6 -25.15 L10.1 -27.55 Q9.55 -25.95 8.25 -24.85 7.3 -24.05 5.55 -23.25 L5.9 -26.05 Q5.55 -25.0 4.45 -24.15 L2.6 -22.85 10.35 -20.75 10.85 -22.1 11.6 -23.4 Q12.8 -24.8 14.9 -24.85 16.9 -24.9 18.45 -23.8 19.95 -22.75 20.1 -20.8 20.25 -18.8 18.9 -17.7 18.25 -17.2 17.15 -16.75 L15.25 -16.0 M9.7 -34.45 L11.25 -33.6 12.85 -32.55 14.2 -31.05 15.4 -29.55 Q15.5 -31.8 13.75 -33.3 11.95 -34.8 9.7 -34.45 M8.55 -33.7 L11.2 -27.15 Q12.25 -29.45 11.4 -31.45 10.55 -33.45 8.55 -33.7 M15.2 -24.35 Q13.95 -24.3 12.95 -23.75 11.85 -23.2 11.4 -22.25 10.95 -21.35 11.05 -20.75 11.2 -20.1 12.0 -19.5 L13.05 -18.75 14.05 -17.95 Q14.95 -17.0 16.7 -17.3 18.45 -17.65 19.0 -19.05 19.75 -20.95 18.65 -22.5 17.55 -24.1 15.2 -24.35 M-0.2 -22.2 L-3.7 -21.7 -7.2 -21.05 Q-9.9 -20.35 -11.45 -19.0 -13.35 -17.45 -13.95 -14.85 -14.35 -13.1 -13.6 -11.95 -12.85 -10.75 -11.15 -10.6 -9.05 -10.4 -7.0 -10.65 -0.15 -11.65 9.05 -10.45 11.85 -10.1 13.5 -11.45 15.2 -12.75 14.95 -14.65 14.7 -16.55 12.8 -18.1 10.15 -20.15 6.6 -21.15 3.8 -21.95 -0.2 -22.2 M-20.05 -26.6 L-21.2 -27.85 -22.15 -29.05 Q-23.2 -30.8 -23.45 -33.05 L-23.4 -37.3 Q-23.3 -38.55 -22.5 -38.85 -21.75 -39.15 -20.85 -38.2 -19.15 -36.35 -17.4 -33.45 L-16.65 -31.7 -16.0 -29.8 Q-15.2 -30.0 -14.5 -30.7 L-13.35 -31.95 -12.05 -33.1 -10.7 -34.15 -10.75 -34.3 -14.65 -32.45 -14.3 -33.55 -13.85 -34.5 -13.7 -35.3 -14.0 -36.1 Q-16.45 -39.85 -21.4 -41.05 L-23.45 -41.0 Q-24.3 -40.6 -24.7 -39.55 -25.55 -37.4 -25.8 -35.4 -26.4 -29.7 -22.55 -25.05 -22.4 -24.85 -21.85 -24.5 L-20.05 -26.6 M-18.9 -30.05 L-18.9 -30.3 -17.15 -30.3 -17.45 -31.45 -17.8 -32.55 Q-19.25 -36.15 -21.25 -37.9 -22.0 -38.55 -22.45 -38.4 -22.9 -38.25 -23.05 -37.25 L-23.25 -34.2 Q-23.05 -30.5 -21.1 -28.25 -20.2 -27.2 -19.65 -27.25 -19.1 -27.3 -18.35 -28.5 L-19.55 -28.6 -19.55 -28.7 -16.85 -29.25 -16.85 -29.65 -18.9 -30.05 M-13.4 -30.2 L-15.2 -29.2 -16.9 -28.2 Q-22.05 -24.5 -24.3 -17.55 -27.55 -7.6 -28.85 1.55 -29.4 5.25 -27.95 8.15 -26.4 11.3 -22.9 12.9 L-18.7 14.6 Q-16.75 15.3 -11.6 16.2 L-4.95 16.85 Q-3.5 16.55 -1.9 15.55 L-7.2 15.7 Q-10.45 15.25 -16.35 13.45 -22.3 11.6 -24.5 6.85 -26.65 2.15 -23.85 -2.55 -21.7 -6.1 -17.45 -8.65 L-14.0 -10.55 -15.05 -13.05 -16.6 -12.1 Q-22.8 -8.65 -25.3 -3.6 -26.95 -0.3 -27.05 2.65 -27.2 5.95 -25.35 8.9 L-24.45 10.1 -23.45 11.15 Q-25.4 9.65 -26.05 8.45 -29.1 2.85 -25.75 -3.75 -24.2 -6.8 -21.45 -9.25 -19.15 -11.25 -15.65 -13.2 L-14.95 -13.8 -14.35 -16.7 -15.3 -16.4 Q-17.1 -15.9 -18.6 -17.0 -20.1 -18.15 -20.15 -20.0 -20.2 -22.05 -18.6 -23.6 -17.1 -25.15 -14.95 -25.25 -13.35 -25.35 -12.2 -24.45 -11.05 -23.55 -10.9 -22.15 L-11.0 -20.5 -4.0 -22.75 -4.75 -24.35 -5.35 -25.6 Q-6.2 -28.2 -5.6 -28.8 L-6.3 -28.35 Q-9.55 -25.9 -13.0 -26.5 L-13.75 -26.9 -13.85 -27.7 -13.4 -30.2 M-14.85 -24.8 Q-17.05 -24.65 -18.45 -23.0 -19.3 -22.0 -19.4 -20.6 -19.55 -19.25 -18.85 -18.35 -18.05 -17.3 -16.8 -17.0 -15.45 -16.7 -14.25 -17.4 -13.0 -18.2 -11.9 -19.9 -10.85 -21.55 -11.8 -23.15 -12.8 -24.8 -14.85 -24.8" fill="#221916" fill-rule="evenodd" stroke="none"/>
      <path d="M15.9 -22.05 L16.1 -21.5 15.8 -20.85 15.2 -20.45 Q14.75 -20.3 14.5 -20.65 14.25 -21.0 14.4 -21.5 L14.65 -22.05 14.9 -22.0 15.45 -22.6 15.55 -22.45 15.9 -22.05" fill="#a1ffff" fill-rule="evenodd" stroke="none"/>
      <path d="M16.15 -21.65 L15.85 -20.95 Q15.55 -20.65 15.15 -20.65 14.75 -20.65 14.45 -20.95 14.15 -21.25 14.15 -21.65 14.15 -22.05 14.45 -22.35 L15.15 -22.65 15.85 -22.35 16.15 -21.65" fill="#a1ffff" fill-rule="evenodd" stroke="none"/>
    </g>
  </defs>
</svg>
