<?xml version="1.0" encoding="UTF-8" standalone="no"?>
<svg xmlns:ffdec="https://www.free-decompiler.com/flash" xmlns:xlink="http://www.w3.org/1999/xlink" ffdec:objectType="frame" height="67.6px" width="85.35px" xmlns="http://www.w3.org/2000/svg">
  <g transform="matrix(1.0, 0.0, 0.0, 1.0, 42.3, 49.8)">
    <use ffdec:characterId="15" height="53.8" transform="matrix(1.0, 0.0, 0.0, 1.0, -0.7, -23.65)" width="51.6" xlink:href="#sprite0"/>
    <use ffdec:characterId="4" height="13.0" transform="matrix(0.7577, -0.3329, 0.3329, 0.7577, -21.4, -16.9)" width="10.95" xlink:href="#sprite1"/>
    <use ffdec:characterId="4" height="13.0" transform="matrix(-0.7577, -0.3329, -0.3329, 0.7577, 21.65, -16.9)" width="10.95" xlink:href="#sprite1"/>
    <use ffdec:characterId="6" height="19.65" transform="matrix(1.0, 0.0, 0.0, 1.0, -16.6, -26.85)" width="17.55" xlink:href="#sprite2"/>
    <use ffdec:characterId="6" height="19.65" transform="matrix(-1.0, 0.0, 0.0, 1.0, 15.65, -26.85)" width="17.55" xlink:href="#sprite2"/>
    <use ffdec:characterId="8" height="7.95" transform="matrix(1.2698, 0.0, 0.0, 1.2698, -9.2, -19.35)" width="7.8" xlink:href="#sprite3"/>
    <use ffdec:characterId="8" height="7.95" transform="matrix(-1.2698, 0.0, 0.0, 1.2698, 10.2, -19.35)" width="7.8" xlink:href="#sprite3"/>
    <use ffdec:characterId="17" height="13.75" transform="matrix(1.1428, 0.0, 0.0, 1.1428, -0.2, -17.45)" width="74.7" xlink:href="#sprite4"/>
    <use ffdec:characterId="10" height="15.35" transform="matrix(0.8727, 0.4882, -0.4882, 0.8727, -5.85, -49.8)" width="18.1" xlink:href="#sprite5"/>
  </g>
  <defs>
    <g id="sprite0">
      <use ffdec:characterId="14" height="53.8" transform="matrix(1.0, 0.0, 0.0, 1.0, 0.0, 0.0)" width="51.6" xlink:href="#shape0"/>
    </g>
    <g id="shape0">
      <path d="M17.85 23.65 Q17.5 23.2 17.85 21.15 L17.8 20.9 Q17.2 17.9 15.0 16.05 L18.15 16.7 Q17.65 15.25 18.4 14.7 L19.75 15.75 20.7 14.05 22.65 13.0 23.6 11.85 22.95 16.05 Q21.95 20.85 17.85 23.65 M-22.45 11.7 L-20.7 13.0 -18.75 14.05 -17.8 15.75 -16.45 14.7 Q-15.7 15.25 -16.2 16.7 L-13.05 16.05 Q-15.25 17.9 -15.85 20.9 L-15.9 21.15 Q-15.4 24.15 -16.3 23.65 L-16.2 24.3 -17.6 22.9 -20.2 19.85 Q-22.0 17.6 -22.4 13.75 L-22.45 11.7" fill="#112d3b" fill-rule="evenodd" stroke="none"/>
      <path d="M23.4 4.8 Q24.85 9.05 25.7 13.5 27.3 22.05 24.0 30.1 21.85 35.45 16.3 36.45 L15.8 36.25 15.9 35.55 Q17.8 32.5 18.85 28.8 19.6 26.05 17.85 23.65 21.95 20.85 22.95 16.05 L23.6 11.85 23.8 11.05 Q24.15 8.0 23.4 4.8 M-13.85 36.1 Q-15.15 37.15 -17.15 35.75 -21.2 32.95 -22.65 28.3 L-23.55 25.25 Q-24.55 20.45 -24.0 15.45 -23.7 12.6 -23.0 10.0 L-21.9 6.2 Q-22.75 9.1 -22.45 11.7 L-22.4 13.75 Q-22.0 17.6 -20.2 19.85 L-17.6 22.9 -16.2 24.3 Q-17.75 28.25 -15.75 32.3 L-13.85 36.1" fill="#071b25" fill-rule="evenodd" stroke="none"/>
      <path d="M-23.55 25.25 L-24.0 23.5 -24.35 21.1 -24.35 17.3 -24.2 14.55 -23.8 11.8 -22.95 8.4 -22.1 5.5 -22.05 5.45 Q-20.15 -0.9 -15.9 -4.9 -11.7 -8.95 -6.35 -10.5 -1.05 -12.05 4.25 -11.35 9.75 -11.0 14.2 -7.85 18.9 -4.6 21.5 0.75 L23.4 4.8 Q24.15 8.0 23.8 11.05 L23.6 11.85 22.65 13.0 20.7 14.05 19.75 15.75 18.4 14.7 Q17.65 15.25 18.15 16.7 L15.0 16.05 12.85 13.95 Q11.15 12.15 6.05 11.0 0.95 9.85 -3.85 11.15 -8.7 12.45 -10.75 14.25 L-13.15 16.35 -13.5 16.7 Q-15.05 18.25 -15.35 20.1 L-15.65 23.15 -15.65 23.3 -15.6 24.0 -15.2 26.9 -14.25 32.4 -13.65 35.95 -13.85 36.1 -15.75 32.3 Q-17.75 28.25 -16.2 24.3 L-16.3 23.65 Q-15.4 24.15 -15.9 21.15 L-15.85 20.9 Q-15.25 17.9 -13.05 16.05 L-16.2 16.7 Q-15.7 15.25 -16.45 14.7 L-17.8 15.75 -18.75 14.05 -20.7 13.0 -22.45 11.7 Q-22.75 9.1 -21.9 6.2 L-23.0 10.0 Q-23.7 12.6 -24.0 15.45 -24.55 20.45 -23.55 25.25" fill="#0e3449" fill-rule="evenodd" stroke="none"/>
      <path d="M21.3 28.8 Q20.7 32.5 16.55 35.0 L16.0 35.3 15.35 35.0 Q18.35 30.25 18.45 26.3 18.5 22.35 17.3 20.1 16.1 17.8 11.4 12.3 17.95 15.0 19.95 20.05 21.9 25.1 21.3 28.8" fill="#090932" fill-rule="evenodd" stroke="none"/>
      <path d="M16.3 -1.15 L14.45 -1.4 Q16.95 1.35 16.35 2.5 L15.75 3.75 16.3 5.5 13.55 5.05 14.45 6.3 14.4 7.35 12.4 11.25 Q12.4 10.95 8.45 9.65 4.5 8.4 1.3 8.35 -1.9 8.35 -5.55 9.3 -9.3 10.2 -11.5 11.3 -9.4 9.15 -9.55 9.0 L-9.3 8.1 -11.0 9.25 -12.2 9.65 Q-12.75 9.6 -12.75 9.4 L-12.7 8.95 Q-11.8 6.75 -12.9 5.2 L-14.1 3.85 Q-14.0 3.0 -13.15 2.25 L-13.5 2.4 Q-13.55 2.6 -14.0 2.7 L-15.2 2.75 Q-15.75 2.65 -14.5 0.15 L-15.35 0.15 Q-12.45 -4.45 -7.15 -6.45 -1.9 -8.4 3.3 -7.85 8.4 -7.25 12.45 -4.85 16.55 -2.55 16.3 -1.15" fill="#1d5c86" fill-rule="evenodd" stroke="none"/>
      <path d="M14.5 11.85 Q21.35 16.85 22.35 23.6 23.35 30.4 19.0 33.6 21.6 29.7 21.15 24.65 20.7 19.6 14.5 11.85" fill="#124560" fill-rule="evenodd" stroke="none"/>
      <path d="M-17.95 20.05 Q-19.9 25.1 -19.3 28.8 -18.7 32.5 -14.55 35.0 L-14.0 35.3 -13.35 35.0 Q-16.35 30.25 -16.45 26.3 -16.5 22.35 -15.3 20.1 -14.1 17.8 -9.4 12.3 -15.95 15.0 -17.95 20.05" fill="#090932" fill-rule="evenodd" stroke="none"/>
      <path d="M-12.5 11.85 Q-19.35 16.85 -20.35 23.6 -21.35 30.4 -17.0 33.6 -19.6 29.7 -19.15 24.65 -18.7 19.6 -12.5 11.85" fill="#124560" fill-rule="evenodd" stroke="none"/>
      <path d="M-22.35 7.95 Q-24.35 14.7 -23.6 20.3 -22.85 25.85 -20.55 30.65 -18.3 35.45 -14.45 34.95 -15.35 29.35 -13.75 32.75 -12.15 36.05 -13.85 36.8 -15.6 37.55 -18.7 34.95 -21.85 32.25 -23.5 27.05 -25.2 21.8 -24.85 16.5 -24.55 11.1 -22.5 5.3 -20.5 -0.55 -17.25 -3.4 -20.35 1.1 -22.35 7.95" fill="#080a1e" fill-rule="evenodd" stroke="none"/>
      <path d="M7.7 -9.95 L-3.7 -10.4 Q-8.7 -9.35 -11.9 -7.9 L-10.05 -9.2 Q-8.05 -10.75 -3.3 -12.0 L2.8 -12.25 Q9.05 -11.6 13.55 -7.95 11.8 -8.95 7.7 -9.95" fill="#080a1e" fill-rule="evenodd" stroke="none"/>
      <path d="M-9.05 -9.05 Q-11.5 -7.95 -14.0 -6.1 L-18.45 -2.15 -16.2 -5.0 Q-14.45 -7.0 -11.65 -8.75 -8.85 -10.5 -5.3 -11.1 -6.65 -10.2 -9.05 -9.05" fill="#080a1e" fill-rule="evenodd" stroke="none"/>
      <path d="M10.7 -9.05 L15.65 -6.1 Q18.2 -4.25 20.1 -2.15 L17.85 -5.0 Q16.1 -7.0 13.3 -8.75 10.5 -10.5 6.95 -11.1 8.3 -10.2 10.7 -9.05" fill="#080a1e" fill-rule="evenodd" stroke="none"/>
      <path d="M24.15 7.95 Q26.15 14.7 25.4 20.3 24.65 25.85 22.35 30.65 20.1 35.45 16.25 34.95 17.15 29.35 15.55 32.75 13.95 36.05 15.65 36.8 17.4 37.55 20.5 34.95 23.65 32.25 25.3 27.05 27.0 21.8 26.65 16.5 26.35 11.1 24.3 5.3 22.3 -0.55 19.05 -3.4 22.15 1.1 24.15 7.95" fill="#080a1e" fill-rule="evenodd" stroke="none"/>
      <path d="M7.3 10.8 Q-5.05 10.95 -8.9 13.4 -12.75 15.9 -14.55 19.2 -16.35 22.55 -14.5 29.2 -12.7 35.8 -13.15 35.6 -14.75 37.3 -15.05 34.25 -15.4 31.2 -17.0 27.35 -18.6 23.55 -15.7 18.05 -13.9 14.65 -10.55 12.95 -7.25 11.25 -2.65 10.3 1.9 9.35 7.3 10.8" fill="#080a1e" fill-rule="evenodd" stroke="none"/>
      <path d="M-4.75 10.95 Q6.0 10.25 10.25 13.1 14.55 15.9 16.35 19.2 18.15 22.55 16.3 29.2 14.5 35.8 14.95 35.6 16.55 37.3 16.85 34.25 17.2 31.2 18.8 27.35 20.4 23.55 17.5 18.05 15.7 14.65 12.85 12.95 10.0 11.25 5.4 10.3 0.85 9.35 -4.75 10.95" fill="#080a1e" fill-rule="evenodd" stroke="none"/>
      <path d="M17.05 39.9 L16.85 41.15 15.7 41.15 15.65 40.35 15.75 37.0 Q16.25 35.4 16.9 35.5 17.5 35.55 17.5 36.8 L17.05 39.9" fill="#dd5300" fill-rule="evenodd" stroke="none"/>
      <path d="M15.25 38.6 L17.75 38.4 17.85 39.95 17.8 40.9 Q17.5 41.45 16.3 41.45 15.45 41.45 15.25 40.65 L15.2 39.4 Q15.15 38.9 15.25 38.6 M17.35 38.85 L15.95 38.8 15.9 39.6 15.95 40.7 16.75 40.75 Q17.2 40.75 17.25 40.55 L17.35 40.25 17.35 38.85" fill="#000000" fill-rule="evenodd" stroke="none"/>
      <path d="M-15.55 39.9 L-15.35 41.15 -14.2 41.15 -14.15 40.35 -14.25 37.0 Q-14.75 35.4 -15.4 35.5 -16.0 35.55 -16.0 36.8 L-15.55 39.9" fill="#dd5300" fill-rule="evenodd" stroke="none"/>
      <path d="M-13.75 38.6 L-16.25 38.4 -16.35 39.95 -16.3 40.9 Q-16.0 41.45 -14.8 41.45 -13.95 41.45 -13.75 40.65 L-13.7 39.4 Q-13.65 38.9 -13.75 38.6 M-15.85 38.85 L-14.45 38.8 -14.4 39.6 -14.45 40.7 -15.25 40.75 Q-15.7 40.75 -15.75 40.55 L-15.85 40.25 -15.85 38.85" fill="#000000" fill-rule="evenodd" stroke="none"/>
    </g>
    <g id="sprite1">
      <use ffdec:characterId="3" height="13.0" transform="matrix(1.0, 0.0, 0.0, 1.0, 0.0, 0.0)" width="10.95" xlink:href="#shape1"/>
    </g>
    <g id="shape1">
      <path d="M5.7 -6.85 Q2.7 -5.05 -0.6 -5.7 L-2.15 -6.35 Q-4.25 -3.4 -4.35 0.05 L-4.55 4.0 Q-5.35 2.0 -5.25 -0.15 -4.95 -4.4 -2.75 -8.3 -1.8 -7.45 0.45 -6.85 2.65 -6.2 5.7 -6.85" fill="#151020" fill-rule="evenodd" stroke="none"/>
      <path d="M5.7 -6.85 L4.65 -5.55 0.4 -1.3 Q-2.2 1.35 -4.15 4.7 L-4.35 4.55 -4.55 4.0 -4.35 0.05 Q-4.25 -3.4 -2.15 -6.35 L-0.6 -5.7 Q2.7 -5.05 5.7 -6.85" fill="#0e3449" fill-rule="evenodd" stroke="none"/>
    </g>
    <g id="sprite2">
      <use ffdec:characterId="5" height="19.65" transform="matrix(1.0, 0.0, 0.0, 1.0, 0.0, 0.0)" width="17.55" xlink:href="#shape2"/>
    </g>
    <g id="shape2">
      <path d="M2.4 -1.0 Q1.3 2.3 -0.4 2.7 -2.1 3.1 -6.4 1.1 -10.75 -0.9 -12.15 -3.1 -13.6 -5.35 -13.35 -5.7 -13.15 -6.1 -13.15 -7.85 -13.15 -10.95 -11.5 -13.3 -9.8 -15.65 -6.1 -16.1 -2.45 -16.55 0.55 -10.4 3.5 -4.3 2.4 -1.0" fill="#0e3449" fill-rule="evenodd" stroke="none"/>
      <path d="M-6.3 -3.6 Q-5.2 -2.25 -3.75 -1.65 -0.8 -0.75 0.75 1.55 L0.4 2.0 -0.25 2.55 Q-5.9 2.95 -9.6 -1.8 -8.85 -3.6 -6.9 -4.1 L-6.3 -3.6" fill="#071b25" fill-rule="evenodd" stroke="none"/>
      <path d="M-8.15 -7.15 L-6.15 -6.85 -4.4 -5.85 -2.75 -4.05 Q-0.95 0.2 -7.4 -4.0 L-8.3 -5.8 Q-8.5 -6.3 -8.15 -7.15" fill="#ff99cc" fill-rule="evenodd" stroke="none"/>
      <path d="M-7.4 -4.0 Q-0.95 0.2 -2.75 -4.05 L-4.4 -5.85 -6.15 -6.85 -8.15 -7.15 -8.1 -7.3 Q-7.85 -8.25 -6.2 -8.5 L-3.95 -8.3 -1.55 -5.1 -0.9 -4.0 -0.4 -2.95 -0.15 -2.15 -0.1 -2.05 Q0.5 0.3 -0.45 0.3 -4.2 -0.2 -7.05 -3.4 L-7.4 -4.0" fill="#ff3399" fill-rule="evenodd" stroke="none"/>
      <path d="M2.7 -2.35 Q2.1 -6.35 0.4 -10.35 -1.3 -14.4 -3.55 -14.95 L-6.8 -15.45 Q-12.15 -14.35 -13.0 -8.95 -13.75 -4.25 -9.6 -1.6 L-1.75 2.8 Q-5.3 2.85 -9.65 -0.15 -14.05 -3.15 -14.55 -4.65 -15.1 -6.2 -14.5 -9.75 -13.9 -13.3 -10.6 -15.25 -7.3 -17.2 -4.9 -16.8 -0.95 -16.0 0.8 -12.3 3.0 -7.55 2.7 -2.35" fill="#181826" fill-rule="evenodd" stroke="none"/>
      <path d="M0.15 -6.5 Q-0.35 -6.0 -1.0 -6.25 -2.4 -6.8 -3.0 -8.0 L-3.75 -9.5 -3.85 -9.35 Q-4.3 -9.05 -4.9 -9.15 -6.0 -9.2 -6.8 -9.85 L-7.3 -11.05 Q-7.65 -8.95 -9.6 -8.05 L-11.55 -7.8 Q-12.5 -8.2 -12.45 -9.65 -12.4 -11.1 -11.0 -12.25 -9.6 -13.45 -8.05 -12.95 -7.85 -14.6 -6.2 -14.9 -4.75 -15.25 -2.8 -14.05 -0.9 -12.9 -0.05 -10.05 0.7 -7.2 0.15 -6.5" fill="#1d5c86" fill-rule="evenodd" stroke="none"/>
    </g>
    <g id="sprite3">
      <use ffdec:characterId="7" height="7.95" transform="matrix(1.0, 0.0, 0.0, 1.0, 0.0, 0.0)" width="7.8" xlink:href="#shape3"/>
    </g>
    <g id="shape3">
      <path d="M0.95 -3.1 Q2.3 -3.1 3.2 -2.2 4.15 -1.2 4.15 0.15 4.15 1.5 3.2 2.4 2.3 3.35 0.95 3.35 -0.35 3.35 -1.25 2.4 -2.15 1.5 -2.15 0.15 -2.15 -1.2 -1.25 -2.2 -0.35 -3.1 0.95 -3.1" fill="#ffffff" fill-rule="evenodd" stroke="none"/>
      <path d="M0.95 -3.1 Q-0.35 -3.1 -1.25 -2.2 -2.15 -1.2 -2.15 0.15 -2.15 1.5 -1.25 2.4 -0.35 3.35 0.95 3.35 2.3 3.35 3.2 2.4 4.15 1.5 4.15 0.15 4.15 -1.2 3.2 -2.2 2.3 -3.1 0.95 -3.1 Z" fill="none" stroke="#000000" stroke-linecap="round" stroke-linejoin="round" stroke-width="1.5"/>
      <path d="M0.6 1.4 L0.4 0.95 0.6 0.45 Q0.85 0.3 1.1 0.3 1.3 0.3 1.5 0.45 L1.7 0.95 1.5 1.4 1.1 1.6 Q0.85 1.6 0.6 1.4" fill="#000000" fill-rule="evenodd" stroke="none"/>
    </g>
    <g id="sprite4">
      <use ffdec:characterId="16" height="13.75" transform="matrix(1.0, 0.0, 0.0, 1.0, 0.0, 0.0)" width="74.7" xlink:href="#shape4"/>
    </g>
    <g id="shape4">
      <path d="M3.85 0.1 Q4.5 0.6 5.35 1.8 6.15 2.95 5.1 5.05 4.1 7.15 0.6 8.9 L-0.7 8.2 Q-3.05 6.75 -4.5 4.9 -5.4 3.7 -5.05 2.55 -4.25 0.2 -1.5 -0.55 1.55 -1.25 3.85 0.1" fill="#1d5c86" fill-rule="evenodd" stroke="none"/>
      <path d="M2.35 6.2 Q1.65 7.15 0.85 7.25 -0.3 7.45 -1.75 5.3 -2.0 4.4 0.35 4.3 2.7 4.2 2.85 4.95 2.95 5.35 2.35 6.2" fill="#ff99cc" fill-rule="evenodd" stroke="none"/>
      <path d="M2.15 8.65 Q1.05 9.35 -0.25 9.0 -2.15 8.15 -3.15 6.9 L-4.8 4.45 -1.5 7.2 Q0.15 8.35 1.85 7.5 3.6 6.6 4.45 5.4 L5.65 3.7 5.3 5.1 Q4.2 7.4 2.15 8.65" fill="#272037" fill-rule="evenodd" stroke="none"/>
      <path d="M1.85 6.9 Q0.45 8.05 -1.15 6.45 -2.7 4.85 -1.65 4.65 L-0.4 4.35 -1.05 4.55 -1.3 5.0 Q-0.95 6.3 0.45 7.0 L0.95 7.0 Q2.25 5.95 2.85 4.5 L3.0 4.65 Q3.3 5.75 1.85 6.9" fill="#ff0066" fill-rule="evenodd" stroke="none"/>
      <path d="M-4.2 3.65 L-35.85 -1.85 -36.15 -0.9 -4.5 4.6 -4.2 3.65" fill="#0e0404" fill-rule="evenodd" stroke="none"/>
      <path d="M-4.5 3.65 L-35.4 11.0 -34.95 11.9 -4.05 4.55 -4.5 3.65" fill="#0e0404" fill-rule="evenodd" stroke="none"/>
      <path d="M-4.25 3.8 L-36.85 4.1 -36.8 5.05 -4.2 4.75 -4.25 3.8" fill="#0e0404" fill-rule="evenodd" stroke="none"/>
      <path d="M5.2 3.65 L36.85 -1.85 37.15 -0.9 5.5 4.6 5.2 3.65" fill="#0e0404" fill-rule="evenodd" stroke="none"/>
      <path d="M5.5 3.65 L36.4 11.0 35.95 11.9 5.05 4.55 5.5 3.65" fill="#0e0404" fill-rule="evenodd" stroke="none"/>
      <path d="M5.25 3.8 L37.85 4.1 37.8 5.05 5.2 4.75 5.25 3.8" fill="#0e0404" fill-rule="evenodd" stroke="none"/>
    </g>
    <g id="sprite5">
      <use ffdec:characterId="9" height="15.35" transform="matrix(1.0, 0.0, 0.0, 1.0, 0.0, 0.0)" width="18.1" xlink:href="#shape5"/>
    </g>
    <g id="shape5">
      <path d="M9.5 13.45 L6.0 13.9 Q3.95 14.3 1.4 15.35 1.45 14.35 1.65 14.0 3.2 10.5 7.1 9.05 6.05 8.5 4.2 8.05 L0.0 7.15 Q1.1 6.35 1.75 6.05 6.55 3.45 11.9 4.9 L11.6 2.9 11.3 0.0 Q16.25 4.2 18.1 10.45 L17.9 10.9 17.35 10.05 Q15.5 5.3 12.05 1.6 L12.55 3.7 12.6 5.75 11.3 5.5 Q6.5 4.7 2.15 6.7 L3.8 7.05 Q6.45 7.7 8.8 8.85 4.8 10.35 2.5 14.1 6.05 12.65 9.5 13.45" fill="#161121" fill-rule="evenodd" stroke="none"/>
      <path d="M13.35 4.5 L13.3 4.5 14.1 6.65 14.55 8.5 Q13.9 7.0 11.85 6.45 9.25 5.9 6.7 6.45 L12.65 9.55 Q8.7 9.05 5.9 11.7 L5.2 12.45 10.9 12.2 13.35 12.05 Q15.3 11.75 15.3 9.25 15.3 8.1 14.75 6.65 14.15 5.05 13.35 4.5 M9.5 13.45 Q6.05 12.65 2.5 14.1 4.8 10.35 8.8 8.85 6.45 7.7 3.8 7.05 L2.15 6.7 Q6.5 4.7 11.3 5.5 L12.6 5.75 12.55 3.7 12.05 1.6 Q15.5 5.3 17.35 10.05 L17.9 10.9 17.9 10.95 17.25 11.85 15.65 12.55 13.2 13.15 10.3 13.55 9.5 13.45" fill="#0e3449" fill-rule="evenodd" stroke="none"/>
      <path d="M13.35 4.5 Q14.15 5.05 14.75 6.65 15.3 8.1 15.3 9.25 15.3 11.75 13.35 12.05 L10.9 12.2 5.2 12.45 5.9 11.7 Q8.7 9.05 12.65 9.55 L6.7 6.45 Q9.25 5.9 11.85 6.45 13.9 7.0 14.55 8.5 L14.1 6.65 13.3 4.5 13.35 4.5" fill="#1d5c86" fill-rule="evenodd" stroke="none"/>
    </g>
  </defs>
</svg>
