<?xml version="1.0" encoding="UTF-8" standalone="no"?>
<svg xmlns:ffdec="https://www.free-decompiler.com/flash" xmlns:xlink="http://www.w3.org/1999/xlink" ffdec:objectType="frame" height="43.75px" width="47.3px" xmlns="http://www.w3.org/2000/svg">
  <g transform="matrix(1.0, 0.0, 0.0, 1.0, 23.8, 26.4)">
    <use ffdec:characterId="10" height="43.75" transform="matrix(1.0, 0.0, 0.0, 1.0, -0.15, -8.0)" width="47.3" xlink:href="#sprite0"/>
  </g>
  <defs>
    <g id="sprite0">
      <use ffdec:characterId="7" height="43.75" transform="matrix(1.0, 0.0, 0.0, 1.0, 0.0, 0.7)" width="47.3" xlink:href="#sprite1"/>
      <use ffdec:characterId="9" height="21.8" transform="matrix(0.85, 0.0, 0.0, 0.85, 0.4, 6.85)" width="42.6" xlink:href="#sprite2"/>
    </g>
    <g id="sprite1">
      <use ffdec:characterId="6" height="43.75" transform="matrix(1.0, 0.0, 0.0, 1.0, 0.0, 0.0)" width="47.3" xlink:href="#shape0"/>
    </g>
    <g id="shape0">
      <path d="M22.55 6.35 Q22.1 10.3 22.3 13.8 L22.35 15.25 Q22.95 18.5 22.95 22.6 20.45 20.95 19.75 20.85 L17.9 24.0 15.1 21.45 12.25 23.85 9.95 21.2 7.9 23.85 5.2 21.8 2.65 23.75 -0.7 21.45 Q-2.75 22.75 -4.05 24.2 L-6.9 21.3 -10.15 24.3 -12.35 21.4 -14.7 24.2 -17.6 22.15 Q-18.9 23.4 -21.95 24.4 L-21.65 21.65 Q-21.55 21.25 -21.75 18.85 -22.05 16.45 -21.55 13.9 -21.1 11.35 -21.7 7.5 L-22.65 1.15 -23.3 -6.15 -23.4 -9.15 -11.5 -18.25 7.8 -18.75 13.2 -18.75 16.3 -15.95 20.6 -11.85 23.4 -8.9 23.35 -7.65 23.3 -6.6 23.1 -0.75 22.55 6.35" fill="#d88c4c" fill-rule="evenodd" stroke="none"/>
      <path d="M22.55 6.35 Q22.1 10.3 22.3 13.8 L22.35 15.25 Q22.95 18.5 22.95 22.6 20.45 20.95 19.75 20.85 L17.9 24.0 15.1 21.45 12.25 23.85 9.95 21.2 7.9 23.85 5.2 21.8 2.65 23.75 -0.7 21.45 Q-2.75 22.75 -4.05 24.2 L-6.9 21.3 -10.15 24.3 -12.35 21.4 -14.7 24.2 -17.6 22.15 Q-18.9 23.4 -21.95 24.4 L-21.65 21.65 Q-21.55 21.25 -21.75 18.85 -22.05 16.45 -21.55 13.9 -21.1 11.35 -21.7 7.5 L-22.65 1.15 -23.3 -6.15 -23.4 -9.15 -11.5 -18.25 7.8 -18.75 13.2 -18.75 16.3 -15.95 20.6 -11.85 23.4 -8.9 23.35 -7.65 23.3 -6.6 23.1 -0.75 22.55 6.35 Z" ffdec:has-small-stroke="true" ffdec:original-stroke-width="0.5" fill="none" stroke="#81440e" stroke-linecap="round" stroke-linejoin="round" stroke-width="1.0"/>
      <path d="M-23.4 -9.15 L-11.5 -18.25 7.8 -18.75 13.2 -18.75 16.3 -15.95 20.6 -11.85 23.2 -9.1 Q1.6 -10.1 -23.4 -9.1 L-23.4 -9.15" fill="#a45e30" fill-rule="evenodd" stroke="none"/>
      <path d="M-23.4 -9.15 L-11.5 -18.25 7.8 -18.75 13.2 -18.75 16.3 -15.95 20.6 -11.85 23.2 -9.1" ffdec:has-small-stroke="true" ffdec:original-stroke-width="0.5" fill="none" stroke="#81440e" stroke-linecap="round" stroke-linejoin="round" stroke-width="1.0"/>
      <path d="M-0.45 -9.15 L-2.7 -8.85 Q-3.4 -8.9 -3.85 -9.7 L-4.1 -10.55 -3.9 -10.8 Q-3.8 -10.6 -3.45 -10.55 L-3.25 -11.1 -2.05 -11.15 Q1.4 -10.7 1.25 -9.85 1.2 -9.6 -0.45 -9.15" fill="#a45e30" fill-rule="evenodd" stroke="none"/>
      <path d="M-19.85 -7.65 Q-19.15 -7.45 -19.0 -7.1 L-16.9 -4.6 -16.95 -4.45 -17.3 -4.35 Q-17.55 -4.35 -18.2 -4.8 -18.75 -5.3 -19.95 -5.3 -21.35 -5.3 -21.7 -5.7 L-21.75 -6.65 Q-21.75 -7.15 -22.45 -8.6 L-21.7 -8.55 Q-21.05 -8.45 -20.75 -8.15 L-19.85 -7.65" fill="#c57531" fill-rule="evenodd" stroke="none"/>
      <path d="M22.1 7.9 L21.85 10.85 22.1 11.6 22.0 12.05 21.5 11.25 21.0 10.7 Q20.75 10.0 20.35 9.9 L19.75 9.55 19.4 8.9 18.6 8.05 17.25 6.65 Q17.25 5.95 18.0 6.4 L18.95 7.0 20.8 7.0 Q22.1 7.15 22.1 7.9" fill="#c57531" fill-rule="evenodd" stroke="none"/>
      <path d="M16.8 3.85 L16.75 2.95 Q16.75 2.45 17.1 1.35 L17.45 -0.2 Q17.45 -1.15 18.0 -1.95 L19.5 -3.6 Q19.15 -3.95 19.8 -4.5 L21.2 -5.5 Q21.65 -5.8 22.0 -6.6 L22.5 -7.6 22.6 -7.45 21.45 -4.2 Q20.7 -2.65 19.8 -2.65 18.7 -2.65 18.1 -0.1 L16.9 3.85 16.8 3.85" fill="#c57531" fill-rule="evenodd" stroke="none"/>
      <path d="M-19.75 7.45 L-17.6 12.0 -18.15 12.65 Q-18.75 13.45 -19.05 15.0 L-19.5 16.55 -20.3 19.1 Q-20.55 20.1 -21.55 21.6 L-21.65 19.2 Q-21.75 16.3 -21.45 14.35 L-21.2 11.45 Q-21.2 9.9 -21.45 8.1 L-21.95 4.8 Q-22.85 1.9 -19.75 7.45" fill="#c57531" fill-rule="evenodd" stroke="none"/>
      <path d="M10.2 16.3 Q9.6 17.25 9.3 18.15 L9.1 18.8 Q7.6 19.85 6.5 21.3 L7.15 19.15 7.35 18.2 8.45 17.75 9.0 17.65 9.55 17.05 10.2 16.3" fill="#c57531" fill-rule="evenodd" stroke="none"/>
      <path d="M15.5 18.55 L18.95 20.0 19.85 20.05 Q18.75 21.5 17.85 23.6 L14.95 20.55 14.0 19.6 12.45 18.95 11.9 18.65 15.5 18.55" fill="#c57531" fill-rule="evenodd" stroke="none"/>
      <path d="M14.25 -6.05 Q15.75 -6.5 16.2 -8.2 L22.0 -7.9 Q22.55 -7.9 21.0 -7.35 L17.8 -3.95 Q17.4 -3.25 16.15 0.8 L15.65 6.05 Q9.9 6.9 7.85 7.7 5.7 8.45 2.35 10.05 0.55 10.9 -0.15 12.2 -0.65 10.05 -3.85 8.1 L-3.25 5.75 Q-2.75 3.85 -4.5 2.75 -6.6 1.35 -8.9 0.25 L-11.85 -1.2 Q-12.5 -1.35 -12.95 -1.75 -14.3 -2.8 -15.95 -3.45 L-16.15 -3.7 -16.35 -4.0 Q-15.25 -5.3 -13.4 -5.95 -12.4 -6.35 -11.5 -7.05 -9.4 -8.55 -6.5 -8.75 L-4.75 -8.9 -3.8 -7.8 -3.05 -7.65 Q-1.4 -7.95 0.1 -8.6 2.3 -9.65 4.65 -9.65 7.2 -9.65 9.4 -8.55 10.1 -8.15 10.95 -7.85 12.65 -7.05 14.25 -6.05" fill="#f9a864" fill-rule="evenodd" stroke="none"/>
      <path d="M-10.1 23.35 L-12.25 20.85 Q-13.95 22.05 -14.7 23.5 -15.5 22.75 -17.0 19.65 L-16.9 17.65 Q-16.7 15.05 -17.95 13.2 L-10.75 18.55 Q-5.65 19.8 -10.1 23.35" fill="#f9a864" fill-rule="evenodd" stroke="none"/>
      <path d="M22.45 20.2 L22.2 20.75 Q21.5 21.15 20.8 20.75 18.85 19.65 16.65 19.3 L15.2 18.9 Q13.2 18.45 11.75 17.4 12.55 16.0 14.3 15.7 L15.35 15.45 Q16.45 14.95 17.65 14.7 19.7 14.05 20.55 15.9 L21.85 18.75 22.45 20.2" fill="#f9a864" fill-rule="evenodd" stroke="none"/>
      <path d="M-20.8 -9.45 L-19.15 -9.7 -17.6 -9.35 -8.35 -9.65 -6.95 -9.8 Q-6.5 -9.85 -6.15 -9.35 L-6.15 -9.3 -6.4 -9.2 -6.95 -9.35 -10.75 -8.95 -16.05 -8.55 -18.15 -7.85 -19.25 -8.25 -20.4 -8.7 -21.75 -9.05 -20.8 -9.45" fill="#ffea7c" fill-rule="evenodd" stroke="none"/>
      <path d="M3.9 -9.35 L3.95 -9.2 2.7 -8.85 1.15 -8.45 -0.45 -7.85 -2.05 -7.55 Q-3.1 -7.7 -3.25 -8.0 L-4.1 -9.0 -4.2 -9.3 -3.0 -8.95 0.3 -9.45 3.9 -9.35" fill="#ffea7c" fill-rule="evenodd" stroke="none"/>
      <path d="M-2.7 -11.55 Q-3.55 -12.3 -12.5 -13.0 L2.5 -13.6 8.75 -13.9 11.0 -13.9 11.0 -13.8 9.4 -12.6 9.1 -12.4 Q4.7 -13.3 0.5 -11.35 L-1.35 -10.85 Q-1.85 -10.85 -2.7 -11.55" fill="#bd6931" fill-rule="evenodd" stroke="none"/>
      <path d="M-14.0 -13.7 L15.1 -14.25" ffdec:has-small-stroke="true" ffdec:original-stroke-width="0.5" fill="none" stroke="#8f4718" stroke-linecap="round" stroke-linejoin="round" stroke-width="1.0"/>
      <path d="M15.15 -14.4 L22.75 -9.4" ffdec:has-small-stroke="true" ffdec:original-stroke-width="0.5" fill="none" stroke="#8f4718" stroke-linecap="round" stroke-linejoin="round" stroke-width="1.0"/>
      <path d="M15.25 -14.35 L13.1 -18.35" ffdec:has-small-stroke="true" ffdec:original-stroke-width="0.5" fill="none" stroke="#8f4718" stroke-linecap="round" stroke-linejoin="round" stroke-width="1.0"/>
      <path d="M-11.3 -18.25 L-14.0 -14.1" ffdec:has-small-stroke="true" ffdec:original-stroke-width="0.5" fill="none" stroke="#8f4718" stroke-linecap="round" stroke-linejoin="round" stroke-width="1.0"/>
      <path d="M-14.0 -13.95 Q-18.6 -11.5 -23.2 -9.1" ffdec:has-small-stroke="true" ffdec:original-stroke-width="0.5" fill="none" stroke="#8f4718" stroke-linecap="round" stroke-linejoin="round" stroke-width="1.0"/>
      <path d="M15.05 -9.7 L18.25 -9.45 19.9 -9.55 21.05 -9.7 21.25 -9.75 20.55 -10.6 Q20.9 -10.7 21.2 -10.35 L21.7 -9.95 22.95 -9.6 Q23.35 -9.45 23.35 -9.1 23.35 -8.8 22.95 -8.55 22.55 -8.2 21.95 -8.2 L21.05 -8.35 20.1 -8.45 17.25 -8.7 14.9 -8.9 12.6 -8.65 9.15 -8.9 9.1 -8.95 10.9 -9.3 12.2 -9.3 15.05 -9.7" fill="#ffea7c" fill-rule="evenodd" stroke="none"/>
      <path d="M12.1 -18.45 L12.4 -18.4 12.55 -18.2 14.2 -14.8 3.25 -14.6 5.0 -16.2 6.15 -17.35 Q6.45 -17.75 8.2 -17.9 L12.1 -18.45" fill="#bd6931" fill-rule="evenodd" stroke="none"/>
      <path d="M-10.7 -10.95 L-19.6 -9.95 Q-14.7 -13.6 -13.05 -13.0 -11.5 -12.45 -10.7 -10.95" fill="#bd6931" fill-rule="evenodd" stroke="none"/>
      <path d="M-12.0 -17.65 L-14.45 -14.2 Q-16.9 -13.35 -18.3 -12.2 -18.65 -11.9 -19.7 -11.7 -18.95 -12.25 -16.05 -14.55 L-12.0 -17.65" fill="#bd6931" fill-rule="evenodd" stroke="none"/>
      <path d="M1.05 -17.95 L-3.15 -16.5 -4.85 -16.1 -7.2 -17.4 -2.75 -17.8 -0.8 -17.9 0.3 -17.95 1.05 -17.95" fill="#bd6931" fill-rule="evenodd" stroke="none"/>
      <path d="M-18.0 11.95 L-17.9 12.0 -21.3 11.85 -21.15 11.35 Q-20.65 9.75 -20.4 9.6 -18.35 10.15 -18.0 11.95" fill="#b05d18" fill-rule="evenodd" stroke="none"/>
      <path d="M20.75 9.85 L20.5 9.5 Q20.35 9.2 19.35 8.6 18.4 8.0 18.4 7.5 L21.25 9.0 Q21.85 9.3 22.05 11.55 L20.75 9.85" fill="#b05d18" fill-rule="evenodd" stroke="none"/>
      <path d="M20.8 -3.45 L20.7 -3.35 19.65 -2.9 18.05 -1.6 Q19.1 -3.2 19.5 -3.45 L20.05 -4.05 20.5 -4.6 21.6 -5.7 21.5 -4.75 Q21.5 -4.15 20.8 -3.45" fill="#b35643" fill-rule="evenodd" stroke="none"/>
      <path d="M19.85 20.5 Q19.3 21.65 18.4 22.25 L18.05 22.2 18.1 21.25 Q18.1 20.7 17.5 20.4 L15.6 19.8 Q14.75 19.55 14.45 19.1 L17.2 19.6 19.85 20.5" fill="#b35643" fill-rule="evenodd" stroke="none"/>
      <path d="M-21.4 -7.7 L-21.45 -7.2 Q-21.4 -6.7 -21.5 -6.7 L-22.55 -7.75 -23.2 -8.7 Q-23.15 -9.4 -21.75 -8.35 -20.4 -7.4 -19.85 -7.55 L-18.55 -6.35 Q-17.75 -5.7 -17.1 -4.35 L-19.4 -6.4 Q-21.15 -7.75 -21.4 -7.7" fill="#b35643" fill-rule="evenodd" stroke="none"/>
      <path d="M2.95 17.95 L-6.25 16.6 -0.2 12.15 2.95 17.95" fill="#c37432" fill-rule="evenodd" stroke="none"/>
      <path d="M22.55 6.35 Q22.1 10.3 22.3 13.8 L22.35 15.25 Q22.95 18.5 22.95 22.6 20.45 20.95 19.75 20.85 L17.9 24.0 15.1 21.45 12.25 23.85 9.95 21.2 7.9 23.85 5.2 21.8 2.65 23.75 -0.7 21.45 Q-2.75 22.75 -4.05 24.2 L-6.9 21.3 -10.15 24.3 -12.35 21.4 -14.7 24.2 -17.6 22.15 Q-18.9 23.4 -21.95 24.4 L-21.65 21.65 Q-21.55 21.25 -21.75 18.85 -22.05 16.45 -21.55 13.9 -21.1 11.35 -21.7 7.5 L-22.65 1.15 -23.3 -6.15 -23.4 -9.15 -11.5 -18.25 7.8 -18.75 13.2 -18.75 16.3 -15.95 20.6 -11.85 23.4 -8.9 23.35 -7.65 23.3 -6.6 23.1 -0.75 22.55 6.35 Z" ffdec:has-small-stroke="true" ffdec:original-stroke-width="0.5" fill="none" stroke="#4e1b0b" stroke-linecap="round" stroke-linejoin="round" stroke-width="1.0"/>
    </g>
    <g id="sprite2">
      <use ffdec:characterId="8" height="21.8" transform="matrix(1.0, 0.0, 0.0, 1.0, 0.0, 0.0)" width="42.6" xlink:href="#shape1"/>
    </g>
    <g id="shape1">
      <path d="M8.95 -1.4 L9.9 -1.2 Q10.8 -1.2 11.4 -1.85 L11.7 -2.15 13.6 -1.9 14.55 -1.8 13.65 -0.7 Q12.15 0.85 10.0 0.85 8.3 0.85 7.05 -0.1 8.0 -0.55 8.95 -1.4" fill="#25222e" fill-rule="evenodd" stroke="none"/>
      <path d="M7.05 -0.1 L6.3 -0.7 5.5 -1.7 7.75 -3.25 Q7.75 -2.45 8.35 -1.85 L8.95 -1.4 Q8.0 -0.55 7.05 -0.1 M11.7 -2.15 Q12.05 -2.65 12.05 -3.35 12.05 -4.25 11.4 -4.9 L10.75 -5.35 14.05 -7.6 Q15.2 -6.2 15.2 -4.35 15.2 -2.95 14.55 -1.8 L13.6 -1.9 11.7 -2.15" fill="#3c3946" fill-rule="evenodd" stroke="none"/>
      <path d="M-6.6 -0.7 L-5.8 -1.7 -8.05 -3.25 Q-8.05 -2.45 -8.65 -1.85 -9.3 -1.2 -10.2 -1.2 -11.1 -1.2 -11.7 -1.85 -12.35 -2.45 -12.35 -3.35 -12.35 -4.25 -11.7 -4.9 L-11.05 -5.35 -14.35 -7.6 Q-15.5 -6.2 -15.5 -4.35 -15.5 -2.2 -13.95 -0.7 -12.45 0.85 -10.3 0.85 -8.15 0.85 -6.6 -0.7" fill="#25222e" fill-rule="evenodd" stroke="none"/>
      <path d="M6.85 12.65 Q3.6 13.7 -0.15 13.7 -8.8 13.7 -14.9 8.1 -20.95 2.5 -20.95 -5.4 L-20.9 -6.9 Q-20.35 -1.95 -14.9 1.65 -8.8 5.65 -0.15 5.65 8.45 5.65 14.55 1.65 17.0 0.05 18.45 -1.8" ffdec:has-small-stroke="true" ffdec:original-stroke-width="1.0" fill="none" stroke="#393544" stroke-linecap="round" stroke-linejoin="round" stroke-width="1.1765043802958495"/>
      <path d="M18.45 -1.8 Q20.25 -4.15 20.6 -6.9 L20.65 -5.4 Q20.65 -0.65 18.45 3.25 17.0 5.85 14.55 8.1 L12.55 9.75 Q9.9 11.65 6.85 12.65" ffdec:has-small-stroke="true" ffdec:original-stroke-width="1.0" fill="none" stroke="#24212f" stroke-linecap="round" stroke-linejoin="round" stroke-width="1.1765043802958495"/>
      <path d="M18.1 3.5 L15.1 1.75" ffdec:has-small-stroke="true" ffdec:original-stroke-width="1.0" fill="none" stroke="#25222e" stroke-linecap="round" stroke-linejoin="round" stroke-width="1.1765043802958495"/>
      <path d="M15.05 1.65 L13.85 8.5" ffdec:has-small-stroke="true" ffdec:original-stroke-width="1.0" fill="none" stroke="#25222e" stroke-linecap="round" stroke-linejoin="round" stroke-width="1.1765043802958495"/>
      <path d="M13.75 8.5 L8.2 4.65" ffdec:has-small-stroke="true" ffdec:original-stroke-width="1.0" fill="none" stroke="#25222e" stroke-linecap="round" stroke-linejoin="round" stroke-width="1.1765043802958495"/>
      <path d="M8.2 4.7 L5.8 12.75" ffdec:has-small-stroke="true" ffdec:original-stroke-width="1.0" fill="none" stroke="#25222e" stroke-linecap="round" stroke-linejoin="round" stroke-width="1.1765043802958495"/>
      <path d="M5.55 12.95 L-0.15 6.0" ffdec:has-small-stroke="true" ffdec:original-stroke-width="1.0" fill="none" stroke="#13111a" stroke-linecap="round" stroke-linejoin="round" stroke-width="1.1765043802958495"/>
      <path d="M-18.45 3.5 L-15.45 1.75" ffdec:has-small-stroke="true" ffdec:original-stroke-width="1.0" fill="none" stroke="#393544" stroke-linecap="round" stroke-linejoin="round" stroke-width="1.1765043802958495"/>
      <path d="M-15.4 1.65 L-14.2 8.5" ffdec:has-small-stroke="true" ffdec:original-stroke-width="1.0" fill="none" stroke="#393544" stroke-linecap="round" stroke-linejoin="round" stroke-width="1.1765043802958495"/>
      <path d="M-14.1 8.5 L-8.55 4.65" ffdec:has-small-stroke="true" ffdec:original-stroke-width="1.0" fill="none" stroke="#393544" stroke-linecap="round" stroke-linejoin="round" stroke-width="1.1765043802958495"/>
      <path d="M-8.55 4.7 L-6.15 12.75" ffdec:has-small-stroke="true" ffdec:original-stroke-width="1.0" fill="none" stroke="#13111a" stroke-linecap="round" stroke-linejoin="round" stroke-width="1.1765043802958495"/>
      <path d="M-5.9 12.95 L-0.2 6.0" ffdec:has-small-stroke="true" ffdec:original-stroke-width="1.0" fill="none" stroke="#13111a" stroke-linecap="round" stroke-linejoin="round" stroke-width="1.1765043802958495"/>
    </g>
  </defs>
</svg>
