<?xml version="1.0" encoding="UTF-8" standalone="no"?>
<svg xmlns:ffdec="https://www.free-decompiler.com/flash" xmlns:xlink="http://www.w3.org/1999/xlink" ffdec:objectType="frame" height="65.1px" width="80.85px" xmlns="http://www.w3.org/2000/svg">
  <g transform="matrix(1.0, 0.0, 0.0, 1.0, 39.65, 45.45)">
    <use ffdec:characterId="34" height="65.1" transform="matrix(1.1, 0.0, 0.0, 1.0, -38.95, -45.45)" width="73.55" xlink:href="#sprite0"/>
  </g>
  <defs>
    <g id="sprite0">
      <use ffdec:characterId="23" height="22.2" transform="matrix(1.0, 0.0, 0.0, 1.0, 19.2, 24.7)" width="32.25" xlink:href="#sprite1"/>
      <use ffdec:characterId="4" height="14.45" transform="matrix(1.0676, 0.0, 0.0, 1.0, 13.6, 50.65)" width="9.05" xlink:href="#sprite2"/>
      <use ffdec:characterId="4" height="14.45" transform="matrix(-1.0676, 0.0, 0.0, 1.0, 57.75, 50.25)" width="9.05" xlink:href="#sprite2"/>
      <use ffdec:characterId="33" height="65.05" transform="matrix(1.0, 0.0, 0.0, 1.0, 0.0, 0.0)" width="73.55" xlink:href="#sprite4"/>
    </g>
    <g id="sprite1">
      <use ffdec:characterId="22" height="22.2" transform="matrix(1.0, 0.0, 0.0, 1.0, 0.0, 0.0)" width="32.25" xlink:href="#shape0"/>
    </g>
    <g id="shape0">
      <path d="M19.75 15.6 Q22.05 14.4 23.7 11.55 L23.75 11.45 23.9 11.15 24.05 10.85 24.65 9.25 24.8 8.75 25.05 8.0 Q26.05 9.0 26.6 10.3 L26.75 10.65 26.85 10.95 27.05 11.7 26.9 11.85 26.85 11.95 Q23.75 15.25 19.75 15.6 M11.05 17.15 L11.25 17.05 11.5 16.95 Q14.0 15.6 15.75 12.85 L16.4 11.75 16.45 11.65 16.55 11.5 16.55 11.45 16.6 11.4 16.65 11.3 16.75 11.05 16.8 10.95 17.95 8.65 15.9 10.4 10.8 13.6 9.7 14.05 Q7.85 14.9 5.9 14.45 L3.6 14.2 3.5 14.2 3.55 14.05 3.6 13.2 Q4.0 5.25 15.4 4.8 19.65 5.0 22.4 6.2 L23.9 7.05 22.45 7.05 22.4 7.2 Q18.95 16.8 11.05 17.15" fill="#edaca7" fill-rule="evenodd" stroke="none"/>
      <path d="M32.25 9.55 L32.25 10.95 32.25 11.05 Q30.6 14.75 27.25 14.75 L26.85 14.7 26.85 14.4 27.25 14.2 28.35 13.3 Q30.9 13.2 32.25 9.55 M29.35 11.85 L27.65 11.85 27.05 12.75 Q24.25 16.55 19.45 16.25 L19.45 15.75 19.75 15.6 Q23.75 15.25 26.85 11.95 L26.9 11.85 27.05 11.7 27.35 11.35 27.5 11.15 29.45 8.3 30.6 6.05 Q30.45 9.5 29.35 11.85 M23.7 11.55 L23.9 11.15 23.75 11.45 23.7 11.55 M24.05 10.85 L23.95 10.85 22.05 10.85 21.8 11.35 21.75 11.5 21.6 11.75 21.55 11.8 21.05 12.65 Q18.75 16.2 15.25 17.3 L11.75 17.8 11.5 17.8 11.05 17.75 11.05 17.15 Q18.95 16.8 22.4 7.2 L22.45 7.05 23.9 7.05 25.25 7.05 25.05 8.0 24.8 8.75 24.65 9.25 24.05 10.85 M16.8 10.95 L16.05 10.95 15.15 12.5 14.25 13.7 Q12.55 15.75 10.4 16.75 L8.4 17.45 3.5 17.9 2.7 18.15 Q1.15 18.95 0.0 22.2 L0.0 13.95 3.5 14.2 3.6 14.2 5.9 14.45 Q7.85 14.9 9.7 14.05 L10.8 13.6 15.9 10.4 17.95 8.65 16.8 10.95 M27.65 11.85 L27.75 11.65 27.65 11.85" fill="#dd6f66" fill-rule="evenodd" stroke="none"/>
      <path d="M32.25 9.55 Q30.9 13.2 28.35 13.3 L29.4 11.8 29.35 11.85 Q30.45 9.5 30.6 6.05 L29.45 8.3 27.5 11.15 27.35 11.35 27.05 11.7 26.85 10.95 26.75 10.65 26.6 10.3 Q26.05 9.0 25.05 8.0 L25.25 7.05 23.9 7.05 22.4 6.2 Q19.65 5.0 15.4 4.8 4.0 5.25 3.6 13.2 L3.55 14.05 3.5 14.2 0.0 13.95 0.0 0.0 32.25 0.0 32.25 9.55" fill="#f48e86" fill-rule="evenodd" stroke="none"/>
    </g>
    <g id="sprite2">
      <use ffdec:characterId="2" height="3.3" transform="matrix(0.3139, 0.9494, -0.9494, 0.3139, 6.05, 0.0)" width="6.2" xlink:href="#sprite3"/>
      <use ffdec:characterId="2" height="3.3" transform="matrix(0.3139, 0.9494, -0.9494, 0.3139, 4.45, 3.15)" width="6.2" xlink:href="#sprite3"/>
      <use ffdec:characterId="2" height="3.3" transform="matrix(-0.4441, 0.1468, 0.3139, 0.9494, 8.05, 2.85)" width="6.2" xlink:href="#sprite3"/>
      <use ffdec:characterId="2" height="3.3" transform="matrix(-0.9494, 0.3139, 0.3139, 0.9494, 8.05, 5.55)" width="6.2" xlink:href="#sprite3"/>
      <use ffdec:characterId="3" height="11.05" transform="matrix(1.0, 0.0, 0.0, 1.0, 0.0, 0.0)" width="8.7" xlink:href="#shape2"/>
    </g>
    <g id="sprite3">
      <use ffdec:characterId="1" height="3.3" transform="matrix(1.0, 0.0, 0.0, 1.0, 0.0, 0.0)" width="6.2" xlink:href="#shape1"/>
    </g>
    <g id="shape1">
      <path d="M6.2 1.65 Q6.2 2.35 5.3 2.85 L3.1 3.3 0.9 2.85 Q0.0 2.35 0.0 1.65 0.0 0.95 0.9 0.5 1.8 0.0 3.1 0.0 4.4 0.0 5.3 0.5 6.2 0.95 6.2 1.65" fill="#edaca7" fill-rule="evenodd" stroke="none"/>
    </g>
    <g id="shape2">
      <path d="M0.6 14.0 Q0.5 12.9 1.05 12.0 L0.1 13.05 Q-0.4 10.7 1.35 9.95 L3.05 9.85 3.25 9.95 3.5 10.1 3.65 10.2 3.75 10.3 3.8 10.35 Q4.65 12.5 3.05 13.4 2.6 13.3 2.6 12.25 2.1 13.45 0.6 14.0" fill="#edaca7" fill-rule="evenodd" stroke="none"/>
      <path d="M3.8 10.35 Q5.55 12.15 3.65 14.15 L3.45 14.3 Q2.85 14.6 2.4 14.3 L2.4 13.5 Q1.85 14.35 0.65 14.25 L0.6 14.0 Q2.1 13.45 2.6 12.25 2.6 13.3 3.05 13.4 4.65 12.5 3.8 10.35" fill="#dd7066" fill-rule="evenodd" stroke="none"/>
      <path d="M7.85 6.45 L7.8 6.35 Q7.65 5.85 7.1 5.65 L7.85 4.9 Q8.1 4.3 7.85 3.65 L7.75 3.4 7.85 3.45 Q8.4 3.75 8.6 4.45 8.85 5.1 8.6 5.7 L7.85 6.45 Q8.4 6.65 8.55 7.15 8.8 7.8 8.1 8.6 7.4 9.25 6.15 9.65 L3.95 9.95 Q2.9 9.75 2.65 9.1 L2.65 9.0 3.2 9.15 5.4 8.85 7.35 7.8 Q8.0 7.05 7.85 6.45 M4.7 5.55 L4.8 5.6 4.75 5.6 4.7 5.55" fill="#dd6f66" fill-rule="evenodd" stroke="none"/>
    </g>
    <g id="sprite4">
      <use ffdec:characterId="9" height="12.55" transform="matrix(1.0, 0.0, 0.0, 1.0, 16.35, 52.5)" width="6.8" xlink:href="#sprite5"/>
      <use ffdec:characterId="9" height="12.55" transform="matrix(-1.0, 0.0, 0.0, 1.0, 54.65, 52.5)" width="6.8" xlink:href="#sprite5"/>
      <use ffdec:characterId="28" height="50.0" transform="matrix(1.0, 0.0, 0.0, 1.0, 0.0, 9.3)" width="27.2" xlink:href="#sprite6"/>
      <use ffdec:characterId="25" height="50.0" transform="matrix(-1.0, 0.0, 0.0, 1.0, 70.9, 9.3)" width="27.2" xlink:href="#sprite8"/>
      <use ffdec:characterId="30" height="20.2" transform="matrix(-0.9946, 0.1039, 0.1039, 0.9946, 70.4, 8.0)" width="18.65" xlink:href="#sprite9"/>
      <use ffdec:characterId="32" height="20.2" transform="matrix(1.0, 0.0, 0.0, 1.0, 0.0, 10.35)" width="23.4" xlink:href="#sprite10"/>
      <use ffdec:characterId="13" height="10.0" transform="matrix(0.9336, -0.3582, 0.3582, 0.9336, 31.05, 2.8)" width="7.8" xlink:href="#sprite11"/>
      <use ffdec:characterId="13" height="10.0" transform="matrix(-0.1674, 0.9278, 0.53, 0.344, 37.5, 2.8)" width="7.8" xlink:href="#sprite11"/>
    </g>
    <g id="sprite5">
      <use ffdec:characterId="8" height="12.55" transform="matrix(1.0, 0.0, 0.0, 1.0, 0.0, 0.0)" width="6.8" xlink:href="#shape3"/>
    </g>
    <g id="shape3">
      <path d="M2.65 1.0 L2.7 1.0 3.1 1.15 3.3 1.6 3.3 6.95 4.1 7.45 Q4.8 8.15 4.8 9.15 4.8 10.15 4.1 10.85 3.4 11.55 2.4 11.55 1.4 11.55 0.7 10.85 0.0 10.15 0.0 9.15 0.0 8.15 0.7 7.45 1.25 6.9 2.05 6.8 L2.05 1.6 Q2.05 1.35 2.2 1.15 2.4 1.0 2.65 1.0 Z" fill="none" stroke="#63564b" stroke-linecap="round" stroke-linejoin="round" stroke-width="2.0"/>
      <path d="M2.65 1.0 L2.7 1.0 3.1 1.15 3.3 1.6 3.3 6.95 4.1 7.45 Q4.8 8.15 4.8 9.15 4.8 10.15 4.1 10.85 3.4 11.55 2.4 11.55 1.4 11.55 0.7 10.85 0.0 10.15 0.0 9.15 0.0 8.15 0.7 7.45 1.25 6.9 2.05 6.8 L2.05 1.6 Q2.05 1.35 2.2 1.15 2.4 1.0 2.65 1.0" fill="#f7d1b7" fill-rule="evenodd" stroke="none"/>
      <path d="M3.6 8.5 Q3.6 9.1 3.15 9.5 2.75 9.95 2.15 9.95 1.55 9.95 1.1 9.5 0.7 9.1 0.7 8.5 0.7 7.9 1.1 7.45 1.55 7.05 2.15 7.05 2.75 7.05 3.15 7.45 3.6 7.9 3.6 8.5" fill="#ffffff" fill-rule="evenodd" stroke="none"/>
    </g>
    <g id="sprite6">
      <use ffdec:characterId="27" height="50.0" transform="matrix(1.0, 0.0, 0.0, 1.0, -3.8, -0.3)" width="27.2" xlink:href="#sprite7"/>
    </g>
    <g id="sprite7">
      <use ffdec:characterId="25" height="50.0" transform="matrix(1.0, 0.0, 0.0, 1.0, 3.85, 0.3)" width="27.2" xlink:href="#sprite8"/>
      <use ffdec:characterId="26" height="12.2" transform="matrix(1.0, 0.0, 0.0, 1.0, 0.0, 0.0)" width="10.85" xlink:href="#shape5"/>
    </g>
    <g id="sprite8">
      <use ffdec:characterId="24" height="50.0" transform="matrix(1.0, 0.0, 0.0, 1.0, 0.0, 0.0)" width="27.2" xlink:href="#shape4"/>
    </g>
    <g id="shape4">
      <path d="M13.95 9.45 L17.55 3.2 17.6 3.2 18.6 2.3 18.9 2.15 Q20.8 1.05 22.8 0.5 L27.45 -0.4 32.85 -0.9 Q35.6 -1.1 35.7 -0.35 L35.6 2.4 35.6 15.25 35.45 15.3 Q21.05 15.9 21.2 26.7 20.3 28.65 20.15 31.0 19.95 33.95 20.85 37.5 L20.85 37.55 20.9 37.6 Q22.45 41.15 21.25 43.95 L20.65 45.1 Q19.35 47.0 16.75 47.95 L12.05 47.75 Q9.5 46.85 9.45 45.3 L9.45 45.1 Q9.5 44.55 9.7 44.15 9.95 43.6 10.55 43.2 12.75 42.7 13.55 44.55 16.6 45.3 18.1 41.85 18.1 39.9 16.95 37.6 16.0 36.75 15.75 35.3 15.5 33.85 15.85 32.75 13.15 32.4 12.05 31.0 10.5 29.0 9.6 24.9 9.8 23.4 10.3 22.45 14.35 21.7 16.1 22.45 13.95 19.05 14.55 15.45 14.9 13.45 16.05 11.35 L16.1 11.3 16.2 11.25 16.1 11.25 16.05 11.25 Q14.1 11.25 13.95 9.45 M10.4 21.55 Q10.25 18.45 10.8 16.15 L11.2 15.85 Q10.65 18.3 10.85 21.55 L10.4 21.55" fill="#f8f0e5" fill-rule="evenodd" stroke="none"/>
      <path d="M10.55 43.2 L11.2 42.8 Q10.5 40.1 10.1 37.6 8.75 30.2 9.6 24.9 10.5 29.0 12.05 31.0 13.15 32.4 15.85 32.75 15.5 33.85 15.75 35.3 16.0 36.75 16.95 37.6 18.1 39.9 18.1 41.85 16.6 45.3 13.55 44.55 12.75 42.7 10.55 43.2" fill="#f7d1b7" fill-rule="evenodd" stroke="none"/>
      <path d="M10.3 22.45 L10.45 22.2 10.4 21.55 10.85 21.55 Q10.65 18.3 11.2 15.85 L10.8 16.15 10.5 16.3 12.5 12.1 13.95 9.45 Q14.1 11.25 16.05 11.25 L16.1 11.25 16.2 11.25 16.1 11.3 16.05 11.35 Q14.9 13.45 14.55 15.45 13.95 19.05 16.1 22.45 14.35 21.7 10.3 22.45" fill="#fec39a" fill-rule="evenodd" stroke="none"/>
      <path d="M24.4 11.55 Q24.4 12.5 23.7 13.2 23.0 13.9 22.0 13.9 21.0 13.9 20.3 13.2 19.6 12.5 19.6 11.55 19.6 10.6 20.3 9.9 21.0 9.2 22.0 9.2 23.0 9.2 23.7 9.9 24.4 10.6 24.4 11.55" fill="#f4c79e" fill-rule="evenodd" stroke="none"/>
      <path d="M27.35 8.65 Q27.35 9.35 26.85 9.85 26.35 10.35 25.65 10.35 24.95 10.35 24.45 9.85 23.95 9.35 23.95 8.65 23.95 7.95 24.45 7.45 24.95 6.95 25.65 6.95 26.35 6.95 26.85 7.45 27.35 7.95 27.35 8.65" fill="#000000" fill-rule="evenodd" stroke="none"/>
      <path d="M26.1 7.8 L25.95 8.1 25.65 8.25 25.3 8.1 25.2 7.8 25.3 7.45 25.65 7.35 25.95 7.45 26.1 7.8" fill="#ffffff" fill-rule="evenodd" stroke="none"/>
      <path d="M35.45 15.3 Q21.05 15.9 21.2 26.7 20.3 28.65 20.15 31.0 19.95 33.95 20.85 37.5 L20.85 37.55 20.9 37.6 Q22.45 41.15 21.25 43.95 L20.65 45.1 Q19.35 47.0 16.75 47.95 L12.05 47.75 Q9.5 46.85 9.45 45.3 L9.45 45.1 Q9.5 44.55 9.7 44.15 9.95 43.6 10.55 43.2 L11.2 42.8 Q10.5 40.1 10.1 37.6 8.75 30.2 9.6 24.9 9.85 23.2 10.45 22.2 10.2 18.65 10.8 16.05 11.2 14.25 12.0 12.7 L12.3 12.1 M17.6 3.2 Q25.35 -1.8 35.4 -0.45" fill="none" stroke="#63564b" stroke-linecap="round" stroke-linejoin="round" stroke-width="1.0"/>
    </g>
    <g id="shape5">
      <path d="M16.6 10.45 Q18.75 4.4 23.4 2.65 L23.45 2.6 Q25.0 1.8 26.55 1.4 25.45 8.4 19.6 12.3 17.55 12.35 16.6 10.45" fill="#958d88" fill-rule="evenodd" stroke="none"/>
      <path d="M19.6 12.3 Q18.0 13.4 17.0 13.55 L15.75 13.55 15.7 13.5 16.6 10.45 Q17.55 12.35 19.6 12.3" fill="#706762" fill-rule="evenodd" stroke="none"/>
    </g>
    <g id="sprite9">
      <use ffdec:characterId="29" height="20.2" transform="matrix(1.0, 0.0, 0.0, 1.0, 0.0, 0.0)" width="18.65" xlink:href="#shape6"/>
    </g>
    <g id="shape6">
      <path d="M6.4 18.4 Q4.75 19.25 3.3 19.2 1.75 19.1 0.85 18.05 -0.05 17.0 0.0 15.35 0.1 13.75 1.0 12.25 L1.15 12.0 1.8 11.15 2.25 10.5 3.05 9.2 3.8 7.55 Q3.7 5.85 4.8 3.55 5.85 1.25 7.4 0.55 8.9 -0.2 10.4 0.05 11.85 0.3 12.85 1.0 13.85 1.7 14.4 2.65 L17.55 2.65 Q18.95 7.5 16.95 10.8 L16.55 10.85 Q15.7 10.85 14.8 10.0 13.9 9.15 14.15 7.05 L13.2 8.2 12.85 8.6 9.25 12.15 8.85 12.4 7.95 13.05 6.85 13.7 Q4.9 14.7 3.05 14.9 0.6 14.7 2.65 10.3 L2.2 10.95 1.55 11.8 1.4 12.05 Q0.5 13.55 0.4 15.15 0.35 16.8 1.25 17.85 2.15 18.9 3.7 19.0 4.95 19.05 6.4 18.4" fill="#f8f0e5" fill-rule="evenodd" stroke="none"/>
      <path d="M16.55 10.85 L16.4 10.9 16.55 10.9 16.75 10.85 16.8 10.85 16.9 10.85 16.8 10.9 16.8 10.95 16.8 11.05 16.9 11.1 16.8 11.05 15.4 14.25 Q13.5 12.5 12.6 13.9 L12.6 13.8 12.5 13.9 10.55 15.75 10.5 15.75 7.1 18.0 6.4 18.4 Q4.95 19.05 3.7 19.0 2.15 18.9 1.25 17.85 0.35 16.8 0.4 15.15 0.5 13.55 1.4 12.05 L1.55 11.8 2.2 10.95 2.65 10.3 Q0.6 14.7 3.05 14.9 4.9 14.7 6.85 13.7 L7.95 13.05 8.85 12.4 9.25 12.15 12.85 8.6 13.2 8.2 14.15 7.05 Q13.9 9.15 14.8 10.0 15.7 10.85 16.55 10.85" fill="#fec39a" fill-rule="evenodd" stroke="none"/>
      <path d="M15.1 13.85 Q14.25 12.7 13.3 13.05 12.45 14.45 10.55 15.7 L6.7 18.2 Q4.9 19.25 3.3 19.2 1.75 19.1 0.85 18.05 -0.05 17.0 0.0 15.35 L0.3 13.8 1.0 12.25 1.15 12.0 1.8 11.15 2.25 10.5 3.05 9.2 3.5 8.3 3.8 7.55 Q3.7 5.85 4.8 3.55 5.85 1.25 7.4 0.55 8.9 -0.2 10.4 0.05 11.85 0.3 12.85 1.0 13.85 1.7 14.4 2.65 L17.6 2.65" fill="none" stroke="#63564b" stroke-linecap="round" stroke-linejoin="round" stroke-width="1.0"/>
    </g>
    <g id="sprite10">
      <use ffdec:characterId="31" height="20.2" transform="matrix(1.0, 0.0, 0.0, 1.0, 0.0, 0.0)" width="23.4" xlink:href="#shape7"/>
    </g>
    <g id="shape7">
      <path d="M2.25 10.5 L3.05 9.2 3.8 7.55 Q3.7 5.85 4.8 3.55 5.85 1.25 7.4 0.55 8.9 -0.2 10.4 0.05 11.85 0.3 12.85 1.0 13.85 1.7 14.4 2.65 L17.6 2.65 18.6 1.75 18.9 1.6 Q20.8 0.5 22.75 0.0 21.65 7.0 15.8 10.9 13.75 10.95 13.6 9.1 13.5 8.35 13.75 7.25 7.9 14.6 2.65 15.1 0.2 14.9 2.25 10.5" fill="#958d88" fill-rule="evenodd" stroke="none"/>
      <path d="M15.8 10.9 L14.0 11.95 13.6 12.15 12.0 12.15 Q11.2 13.7 10.8 15.5 L6.7 18.2 Q4.9 19.25 3.3 19.2 1.75 19.1 0.85 18.05 -0.05 17.0 0.0 15.35 0.1 13.75 1.0 12.25 L1.15 12.0 1.8 11.15 2.25 10.5 Q0.2 14.9 2.65 15.1 7.9 14.6 13.75 7.25 13.5 8.35 13.6 9.1 13.75 10.95 15.8 10.9" fill="#706762" fill-rule="evenodd" stroke="none"/>
      <path d="M12.45 12.1 Q10.8 15.8 6.55 17.9 4.75 18.95 3.15 18.9 1.6 18.8 0.7 17.75 -0.2 16.7 -0.15 15.05 L0.15 13.5 0.85 11.95 1.0 11.7 1.65 10.85 2.1 10.2 2.9 8.9 3.35 8.0 3.65 7.25 Q3.55 5.55 4.65 3.25 5.7 0.95 7.25 0.25 8.75 -0.5 10.25 -0.25 11.7 0.0 12.7 0.7 13.7 1.4 14.25 2.35 L17.45 2.35" fill="none" stroke="#63564b" stroke-linecap="round" stroke-linejoin="round" stroke-width="1.0"/>
    </g>
    <g id="sprite11">
      <use ffdec:characterId="12" height="10.0" transform="matrix(1.0, 0.0, 0.0, 1.0, 0.0, 0.0)" width="7.8" xlink:href="#shape8"/>
    </g>
    <g id="shape8">
      <path d="M1.75 9.2 L1.8 9.5 1.35 10.0 Q0.9 10.1 0.6 9.6 0.1 8.95 0.0 7.6 -0.1 4.45 1.5 2.6 L2.8 1.35 Q4.5 0.15 6.2 0.0 L7.1 0.15 7.75 0.7 7.7 1.65 6.65 2.75 4.55 4.65 Q3.25 6.0 2.4 7.6 1.55 9.2 1.75 9.2" fill="#f8f0e5" fill-rule="evenodd" stroke="none"/>
    </g>
  </defs>
</svg>
