<?xml version="1.0" encoding="UTF-8" standalone="no"?>
<svg xmlns:ffdec="https://www.free-decompiler.com/flash" xmlns:xlink="http://www.w3.org/1999/xlink" ffdec:objectType="frame" height="60.25px" width="67.8px" xmlns="http://www.w3.org/2000/svg">
  <g transform="matrix(1.0, 0.0, 0.0, 1.0, 34.3, 43.8)">
    <use ffdec:characterId="8" height="43.0" transform="matrix(1.0, 0.0, 0.0, 1.0, 13.65, -14.35)" width="20.95" xlink:href="#sprite0"/>
    <use ffdec:characterId="8" height="43.0" transform="matrix(-1.0, 0.0, 0.0, 1.0, -14.15, -14.35)" width="20.95" xlink:href="#sprite0"/>
    <use ffdec:characterId="17" height="3.65" transform="matrix(-1.0, 0.0, 0.0, 1.0, 7.8, 14.6)" width="9.85" xlink:href="#sprite1"/>
    <use ffdec:characterId="2" height="9.85" transform="matrix(-1.0, 0.0, 0.0, 1.0, 15.7, 11.5)" width="9.35" xlink:href="#sprite2"/>
    <use ffdec:characterId="10" height="18.95" transform="matrix(1.0, 0.0, 0.0, 1.0, 17.9, 2.6)" width="11.65" xlink:href="#sprite3"/>
    <use ffdec:characterId="17" height="3.65" transform="matrix(1.0, 0.0, 0.0, 1.0, -7.45, 14.6)" width="9.85" xlink:href="#sprite1"/>
    <use ffdec:characterId="2" height="9.85" transform="matrix(1.0, 0.0, 0.0, 1.0, -15.65, 11.5)" width="9.35" xlink:href="#sprite2"/>
    <use ffdec:characterId="10" height="18.95" transform="matrix(-1.0, 0.0, 0.0, 1.0, -18.1, 2.6)" width="11.65" xlink:href="#sprite3"/>
    <use ffdec:characterId="19" height="55.65" transform="matrix(1.0, 0.0, 0.0, 1.054, -0.3, -14.45)" width="50.05" xlink:href="#sprite4"/>
    <use ffdec:characterId="21" height="47.0" transform="matrix(1.0, 0.0, 0.0, 1.0, 28.65, -24.2)" width="14.7" xlink:href="#sprite5"/>
    <use ffdec:characterId="21" height="47.0" transform="matrix(-1.0, 0.0, 0.0, 1.0, -29.45, -24.25)" width="14.7" xlink:href="#sprite5"/>
  </g>
  <defs>
    <g id="sprite0">
      <use ffdec:characterId="7" height="43.0" transform="matrix(1.0, 0.0, 0.0, 1.0, 0.0, 0.0)" width="20.95" xlink:href="#shape0"/>
    </g>
    <g id="shape0">
      <path d="M0.1 -15.4 Q6.2 -11.65 8.0 -5.2 9.85 1.2 8.65 9.0 L7.5 14.9 -7.05 12.0 -8.4 8.2 Q-9.85 2.85 -10.55 -2.6 -11.5 -10.15 -10.2 -18.8 -6.05 -19.15 0.1 -15.4" fill="#292828" fill-rule="evenodd" stroke="none"/>
      <path d="M5.5 15.75 Q5.8 14.85 6.75 15.25 L9.4 16.55 Q9.8 16.9 9.8 17.8 9.8 19.0 8.7 20.85 7.05 23.55 4.35 23.55 3.4 23.55 3.4 22.65 L4.1 20.3 5.15 17.3 5.5 15.75" fill="#575757" fill-rule="evenodd" stroke="none"/>
      <path d="M0.55 -15.7 Q4.05 -13.2 6.3 -9.8 8.55 -6.45 9.35 -2.35 10.25 2.5 9.55 7.35 L8.05 14.9 8.15 15.25 Q8.1 16.1 8.55 16.35 9.6 16.85 9.85 17.25 L10.0 18.3 9.15 21.25 8.65 22.75 7.0 23.25 5.95 23.7 5.0 23.95 4.65 23.8 4.2 23.5 6.4 22.55 Q8.25 21.8 8.4 21.05 L8.9 19.45 9.25 18.0 8.25 16.9 7.7 16.3 6.9 19.05 7.3 15.45 7.25 15.0 7.4 14.7 7.45 14.7 7.7 13.2 Q8.5 9.15 8.85 4.0 9.2 -1.15 6.75 -6.2 4.25 -11.25 -0.35 -14.4 -4.9 -17.55 -9.9 -19.05 L-7.15 -18.85 Q-2.9 -18.1 0.55 -15.7" fill="#000000" fill-rule="evenodd" stroke="none"/>
    </g>
    <g id="sprite1">
      <use ffdec:characterId="16" height="3.65" transform="matrix(1.0, 0.0, 0.0, 1.0, 0.0, 0.0)" width="9.85" xlink:href="#shape1"/>
    </g>
    <g id="shape1">
      <path d="M-5.05 -2.35 Q-2.05 -0.8 3.4 0.4 L0.25 0.25 -0.25 0.75 Q-2.75 -0.65 -2.8 0.85 -4.45 0.0 -4.9 -1.65 L-5.05 -2.35" fill="#39787d" fill-rule="evenodd" stroke="none"/>
      <path d="M-4.35 -0.7 L-2.85 0.5 -2.85 0.0 -2.4 -0.4 0.05 0.5 0.2 0.2 1.2 0.15 4.6 0.4 2.95 0.8 0.95 0.8 0.9 0.75 0.65 0.8 0.65 1.05 0.35 1.3 -2.25 0.4 -2.25 0.85 Q-2.3 1.25 -2.6 1.25 -3.3 1.25 -5.25 -1.1 -5.25 -1.55 -4.35 -0.7" fill="#000000" fill-rule="evenodd" stroke="none"/>
    </g>
    <g id="sprite2">
      <use ffdec:characterId="1" height="9.85" transform="matrix(1.0, 0.0, 0.0, 1.0, 0.0, 0.0)" width="9.35" xlink:href="#shape2"/>
    </g>
    <g id="shape2">
      <path d="M2.75 2.05 L1.2 1.55 0.95 1.6 1.25 2.25 1.45 2.95 Q1.45 3.75 0.95 3.75 0.25 3.75 -0.9 2.3 -2.05 0.85 -2.5 0.85 -3.3 0.85 -3.2 0.05 L-3.15 -0.85 1.25 1.35 2.75 2.05" fill="#5fc0c7" fill-rule="evenodd" stroke="none"/>
      <path d="M-3.15 -0.85 Q-2.95 -6.4 0.1 -3.35 1.75 -1.7 3.4 1.35 3.4 2.05 2.75 2.05 L1.25 1.35 -3.15 -0.85" fill="#39787d" fill-rule="evenodd" stroke="none"/>
      <path d="M-3.15 -3.5 L-3.15 -4.9 Q-2.3 -3.2 -2.8 -1.15 L-3.15 0.15 -2.75 0.0 0.1 2.8 1.1 3.5 0.5 1.4 3.1 1.8 1.05 -2.35 Q3.45 -0.4 4.65 2.5 L1.85 2.45 2.8 4.45 2.7 4.95 Q-0.25 4.5 -2.15 2.15 L-2.9 1.25 -4.15 2.0 -4.7 1.9 -4.0 0.45 Q-3.2 -1.35 -3.15 -3.5" fill="#000000" fill-rule="evenodd" stroke="none"/>
    </g>
    <g id="sprite3">
      <use ffdec:characterId="9" height="18.95" transform="matrix(1.0, 0.0, 0.0, 1.0, 0.0, 0.0)" width="11.65" xlink:href="#shape3"/>
    </g>
    <g id="shape3">
      <path d="M-3.65 5.8 Q-1.65 3.95 0.35 1.1 L1.85 -1.25 Q3.7 -4.45 5.55 -8.7 L2.15 7.4 -4.45 9.15 -4.65 8.6 -1.4 6.25 Q0.15 4.95 1.15 2.05 -2.55 5.6 -3.65 5.8" fill="#2f2c34" fill-rule="evenodd" stroke="none"/>
      <path d="M-3.65 5.8 Q-2.55 5.6 1.15 2.05 0.15 4.95 -1.4 6.25 L-4.65 8.6 -5.3 7.05 -3.65 5.8" fill="#9f9f9f" fill-rule="evenodd" stroke="none"/>
      <path d="M-4.4 8.9 Q-1.85 8.75 1.2 7.35 L5.8 -9.5 Q3.15 3.85 2.0 7.8 -1.25 9.25 -4.9 9.45 L-5.85 6.85 Q-1.4 4.25 -0.3 -0.65 0.5 4.2 -3.9 6.5 L-4.9 7.15 -4.4 8.9" fill="#000000" fill-rule="evenodd" stroke="none"/>
    </g>
    <g id="sprite4">
      <use ffdec:characterId="18" height="55.65" transform="matrix(1.0, 0.0, 0.0, 1.0, 0.0, 0.0)" width="50.05" xlink:href="#shape4"/>
    </g>
    <g id="shape4">
      <path d="M22.05 -1.0 L21.55 0.35 Q19.3 5.85 13.55 6.6 11.15 6.95 9.65 5.2 5.95 1.0 6.0 -4.85 6.1 -10.75 6.95 -16.75 7.55 -16.35 8.1 -16.0 7.5 -10.25 8.8 -4.7 10.3 1.85 16.95 2.2 20.45 1.55 21.55 -2.05 L22.05 -1.0 M-6.75 -17.2 L-4.75 -6.2 Q-3.8 -0.15 -7.3 4.45 -11.45 9.9 -17.35 5.65 -21.0 3.1 -22.7 -0.95 L-21.5 -3.25 Q-19.2 1.75 -13.75 1.65 -6.8 1.5 -6.45 -5.85 -6.2 -11.4 -7.7 -16.65 L-6.75 -17.2" fill="#727171" fill-rule="evenodd" stroke="none"/>
      <path d="M6.95 -16.75 Q6.1 -10.75 6.0 -4.85 5.95 1.0 9.65 5.2 11.15 6.95 13.55 6.6 19.3 5.85 21.55 0.35 L22.05 -1.0 22.45 2.0 Q22.95 8.45 17.45 11.7 14.8 13.3 11.85 14.1 4.15 5.4 -0.25 -8.9 L-1.55 -3.95 Q-2.2 -1.15 -4.45 4.75 -6.75 10.6 -11.55 14.55 L-15.7 13.25 Q-18.55 12.1 -20.55 9.8 -24.65 5.05 -22.7 -0.95 -21.0 3.1 -17.35 5.65 -11.45 9.9 -7.3 4.45 -3.8 -0.15 -4.75 -6.2 L-6.75 -17.2 Q-5.15 -18.75 -3.2 -19.4 2.95 -21.55 6.95 -16.75" fill="#4d4b51" fill-rule="evenodd" stroke="none"/>
      <path d="M21.55 -2.05 Q20.45 1.55 16.95 2.2 10.3 1.85 8.8 -4.7 7.5 -10.25 8.1 -16.0 L16.2 -9.15 Q20.05 -5.75 21.55 -2.05 M-7.7 -16.65 Q-6.2 -11.4 -6.45 -5.85 -6.8 1.5 -13.75 1.65 -19.2 1.75 -21.5 -3.25 -18.3 -7.75 -14.0 -11.55 L-7.7 -16.65" fill="#9f9f9f" fill-rule="evenodd" stroke="none"/>
      <path d="M-11.55 14.55 Q-6.75 10.6 -4.45 4.75 -2.2 -1.15 -1.55 -3.95 L-0.25 -8.9 Q4.15 5.4 11.85 14.1 L10.65 14.4 -0.95 15.35 Q-6.35 15.65 -11.55 14.55" fill="#2f2c34" fill-rule="evenodd" stroke="none"/>
      <path d="M4.95 -22.1 L3.95 -20.75 Q2.95 -19.1 2.9 -11.9 L2.75 0.75 2.5 14.25 3.95 12.2 3.95 12.3 Q9.55 12.4 14.8 10.05 L16.9 8.95 18.05 8.45 19.95 7.45 21.6 6.25 22.15 5.7 20.65 8.5 20.0 9.35 19.45 9.95 18.8 10.5 Q17.45 11.45 15.95 12.1 L14.6 16.65 2.5 19.35 2.4 25.85 -2.6 26.1 -3.1 19.35 -5.25 19.05 -13.6 17.2 -15.7 11.7 -17.0 11.1 -20.5 8.7 Q-22.15 7.1 -23.1 5.15 L-22.75 5.35 -20.45 7.05 -17.65 8.75 -16.65 9.3 -12.4 10.95 -11.95 11.05 -8.95 11.85 -6.15 12.35 -5.8 12.4 -4.2 12.65 -2.95 14.2 Q-2.35 6.55 -2.45 0.2 L-2.5 -12.75 Q-2.45 -19.4 -4.7 -22.0 L-4.1 -22.85 Q-3.45 -22.4 -2.05 -18.7 -0.65 -15.05 0.15 2.55 0.3 -9.2 0.75 -12.85 1.45 -18.35 3.85 -23.35 L4.95 -22.1 M12.5 11.65 Q9.75 12.5 6.9 12.55 6.25 12.55 5.75 12.9 L5.15 13.0 4.9 13.4 Q4.1 13.75 3.65 14.75 L3.75 16.0 Q7.25 14.3 10.95 13.15 14.45 11.95 17.4 10.25 L12.5 11.65 M-17.6 9.65 Q-13.05 13.4 -7.45 14.9 -5.75 15.25 -4.1 16.0 -4.7 12.95 -8.1 12.5 L-12.25 11.45 Q-14.3 11.1 -16.2 10.3 L-17.6 9.65" fill="#ffd556" fill-rule="evenodd" stroke="none"/>
      <path d="M3.85 -23.35 Q1.45 -18.35 0.75 -12.85 0.3 -9.2 0.15 2.55 -0.65 -15.05 -2.05 -18.7 -3.45 -22.4 -4.1 -22.85 L-0.45 -27.65 0.15 -27.6 3.85 -23.35 M12.5 11.65 L17.4 10.25 Q14.45 11.95 10.95 13.15 7.25 14.3 3.75 16.0 L3.65 14.75 Q4.1 13.75 4.9 13.4 L5.15 13.0 5.75 12.9 Q6.25 12.55 6.9 12.55 9.75 12.5 12.5 11.65 M-17.6 9.65 L-16.2 10.3 Q-14.3 11.1 -12.25 11.45 L-8.1 12.5 Q-4.7 12.95 -4.1 16.0 -5.75 15.25 -7.45 14.9 -13.05 13.4 -17.6 9.65" fill="#ffffff" fill-rule="evenodd" stroke="none"/>
      <path d="M3.95 12.2 L2.5 14.25 2.75 0.75 2.9 -11.9 Q2.95 -19.1 3.95 -20.75 L4.95 -22.1 5.0 -22.05 5.95 -20.6 4.25 -17.95 4.25 -7.55 4.15 -1.0 Q3.85 5.0 3.95 12.2 M-4.7 -22.0 Q-2.45 -19.4 -2.5 -12.75 L-2.45 0.2 Q-2.35 6.55 -2.95 14.2 L-4.2 12.65 Q-3.55 7.65 -3.75 2.25 L-3.9 -9.5 Q-3.85 -15.7 -5.55 -20.95 L-4.7 -22.0 M-20.5 8.7 L-17.0 11.1 -15.7 11.7 -13.6 17.2 -5.25 19.05 -3.1 19.35 -2.6 26.1 2.4 25.85 2.5 19.35 14.6 16.65 15.95 12.1 Q17.45 11.45 18.8 10.5 L19.45 9.95 20.0 9.35 Q19.5 14.8 15.5 18.35 L14.5 19.25 Q10.0 20.7 5.3 21.45 L4.25 21.6 3.1 27.35 -3.3 27.35 -4.0 21.2 -9.7 20.4 Q-13.0 19.25 -16.2 16.45 -19.4 13.6 -20.5 8.7" fill="#c98933" fill-rule="evenodd" stroke="none"/>
      <path d="M-22.75 5.35 L-23.1 5.15 Q-22.15 7.1 -20.5 8.7 -19.4 13.6 -16.2 16.45 -13.0 19.25 -9.7 20.4 L-12.15 19.8 -12.2 19.75 -13.6 19.35 -13.85 19.3 -16.0 18.7 -17.35 18.2 -19.1 16.9 -20.15 15.65 -20.85 14.6 -21.15 14.05 -22.4 11.85 Q-24.35 8.15 -24.65 6.4 -24.95 4.65 -24.5 3.7 L-23.25 2.1 -23.15 5.0 -22.75 5.35 M20.0 9.35 L20.65 8.5 22.15 5.7 23.75 2.7 Q25.1 4.85 24.2 7.25 L22.8 10.55 21.6 13.0 21.45 13.25 20.9 14.45 19.25 16.75 18.05 17.7 16.05 18.7 14.5 19.25 15.5 18.35 Q19.5 14.8 20.0 9.35" fill="#895c20" fill-rule="evenodd" stroke="none"/>
      <path d="M1.4 -26.55 L3.15 -24.75 5.65 -22.15 6.35 -21.05 6.45 -20.75 6.5 -18.75 15.85 -10.95 17.65 -9.4 Q20.25 -7.0 22.05 -3.95 22.9 -2.5 23.3 -0.85 L23.7 2.5 Q25.1 3.15 25.0 4.65 L24.5 7.2 23.2 10.2 22.55 11.55 Q21.45 14.15 19.65 16.6 L18.6 17.6 17.65 18.3 17.1 18.6 16.4 18.85 15.0 19.3 13.55 19.85 12.0 20.25 10.35 20.55 8.4 21.0 6.35 21.45 4.2 22.1 3.4 27.8 -3.5 27.8 -4.2 22.0 -13.6 19.85 -15.05 19.4 Q-16.95 18.8 -18.65 17.55 L-20.05 16.25 Q-21.95 13.8 -22.95 10.95 L-23.75 9.3 -24.25 8.2 -24.6 7.25 -24.85 6.3 -25.0 5.5 -25.05 4.65 -24.95 3.95 -24.75 3.35 -24.35 2.9 -23.8 2.5 Q-24.15 -0.95 -22.2 -4.0 -20.2 -7.0 -17.65 -9.35 L-12.45 -13.9 -6.6 -18.75 Q-6.3 -19.8 -6.35 -20.75 L-6.1 -21.6 -5.7 -22.15 -3.25 -24.75 -0.1 -27.85 0.0 -27.85 1.4 -26.55 M18.7 -6.35 L13.55 -11.15 4.75 -18.35 4.2 12.1 Q9.6 11.65 11.8 10.65 L15.65 8.7 19.1 6.75 21.75 5.5 21.9 4.15 Q22.1 2.15 21.85 0.25 21.65 -1.65 20.7 -3.25 L18.7 -6.35 M3.75 -18.95 L5.1 -20.75 5.45 -21.0 0.0 -27.2 -0.85 -26.4 -1.25 -26.05 -2.35 -24.7 -2.95 -23.95 -5.4 -20.95 -3.85 -18.95 -3.75 12.65 -8.8 11.95 -11.7 11.25 -14.25 10.3 -15.75 9.75 -16.2 9.5 -20.3 7.6 -21.5 7.0 -22.15 6.6 -24.05 5.0 -24.05 4.7 -23.75 4.25 -23.5 4.0 -23.5 3.9 -23.75 3.0 -24.1 3.55 -24.35 4.35 Q-24.55 5.8 -24.0 7.15 L-23.15 9.15 -22.35 11.0 -21.35 13.2 -20.7 14.45 Q-18.9 17.65 -15.3 18.65 L-13.95 19.1 -12.45 19.5 Q-8.15 20.6 -3.65 20.9 L-3.1 27.15 3.0 27.15 3.55 20.9 5.6 20.7 9.2 20.2 Q12.2 19.65 15.25 18.55 L17.85 17.3 18.9 16.5 20.55 14.4 21.25 13.15 23.9 7.15 24.25 6.2 24.3 4.35 Q24.15 3.55 23.65 3.0 L23.4 4.0 23.65 4.3 23.95 4.65 24.0 5.0 23.15 5.8 22.1 6.5 20.25 7.6 18.25 8.45 17.45 8.9 14.25 10.3 13.05 10.85 11.75 11.25 Q7.8 12.35 3.65 12.65 L3.75 -18.95 M-18.8 -6.35 L-20.65 -3.2 Q-21.4 -1.55 -21.75 0.3 L-22.0 2.8 -21.85 5.5 -19.15 6.85 Q-17.9 7.4 -16.2 8.35 L-12.25 10.35 Q-10.0 11.4 -4.45 12.05 L-4.85 -18.35 -13.65 -11.15 -18.8 -6.35" fill="#000000" fill-rule="evenodd" stroke="none"/>
      <path d="M9.5 -12.7 Q10.4 -12.7 13.1 -10.15 15.45 -7.9 16.6 -6.3 L19.0 -3.1 Q20.35 -1.2 20.35 0.15 20.35 1.6 19.4 1.6 19.0 1.6 17.75 -1.45 16.35 -4.95 15.75 -5.7 13.8 -8.0 8.5 -13.0 L8.55 -13.1 9.5 -12.7 M6.9 -14.25 Q6.3 -14.25 5.95 -14.8 L5.7 -15.25 Q5.7 -15.95 6.7 -15.9 7.7 -15.85 7.7 -14.95 7.7 -14.25 6.9 -14.25 M-15.4 -7.65 L-17.15 -4.1 -18.3 -0.05 Q-18.95 2.7 -19.5 2.7 -20.3 2.7 -20.45 1.85 L-20.45 1.0 Q-20.45 -4.05 -14.1 -9.3 L-15.4 -7.65 M-9.0 -12.3 L-11.35 -11.0 -11.6 -11.25 Q-11.6 -12.1 -9.5 -14.0 -7.4 -15.9 -7.4 -13.8 -7.4 -12.95 -9.0 -12.3" fill="#ffffff" fill-rule="evenodd" stroke="none"/>
    </g>
    <g id="sprite5">
      <use ffdec:characterId="20" height="47.0" transform="matrix(1.0, 0.0, 0.0, 1.0, 0.0, 0.0)" width="14.7" xlink:href="#shape5"/>
    </g>
    <g id="shape5">
      <path d="M4.0 15.05 Q1.4 18.7 -1.5 18.3 -3.2 16.85 -2.9 15.65 L-2.95 14.7 -2.85 14.45 -1.25 13.7 Q1.75 12.55 4.4 14.35 L4.0 15.05" fill="#ffd556" fill-rule="evenodd" stroke="none"/>
      <path d="M4.0 15.05 L2.6 17.6 Q1.4 19.85 -1.8 22.55 -3.8 22.3 -5.15 20.8 -5.2 19.15 -4.7 17.0 -4.4 15.45 -2.85 14.45 L-2.95 14.7 -2.9 15.65 Q-3.2 16.85 -1.5 18.3 1.4 18.7 4.0 15.05" fill="#c98933" fill-rule="evenodd" stroke="none"/>
      <path d="M3.45 15.05 L2.2 14.7 -1.15 14.85 -2.7 17.55 -4.5 20.7 -2.15 22.45 -0.6 21.0 1.55 18.25 3.45 15.05 M0.7 13.25 Q3.1 12.9 4.85 14.0 L3.45 16.6 1.35 19.95 Q0.1 21.85 -2.25 24.0 L-4.4 22.35 -5.6 21.15 -4.45 15.15 Q-4.2 13.75 -2.8 13.5 L-0.7 13.6 Q-3.5 14.15 -4.35 16.9 -5.2 19.6 -5.0 20.7 L-2.05 15.1 Q-1.35 14.35 -0.45 14.35 L4.2 14.25 0.7 13.25" fill="#000000" fill-rule="evenodd" stroke="none"/>
      <path d="M3.9 -13.75 L3.55 -8.15 Q2.5 -2.3 0.35 3.05 L-1.45 7.1 Q-2.8 0.35 0.35 -5.5 -1.85 -1.95 -3.25 1.95 -4.5 5.35 -5.1 8.9 L-5.85 7.7 Q-6.45 5.05 -6.05 1.1 -5.9 -0.55 -5.2 -2.35 -5.3 -0.35 -4.75 4.15 -3.55 -0.15 -1.75 -3.8 0.0 -7.45 2.4 -11.2 L3.9 -13.75" fill="#ffd556" fill-rule="evenodd" stroke="none"/>
      <path d="M3.9 -13.75 L2.4 -11.2 Q0.0 -7.45 -1.75 -3.8 -3.55 -0.15 -4.75 4.15 -5.3 -0.35 -5.2 -2.35 -4.3 -4.8 -2.4 -7.5 0.85 -12.2 4.0 -16.15 L3.95 -14.5 3.95 -14.2 Q4.35 -14.6 3.9 -13.75" fill="#ffffff" fill-rule="evenodd" stroke="none"/>
      <path d="M-5.85 7.7 L-5.1 8.9 Q-4.5 5.35 -3.25 1.95 -1.85 -1.95 0.35 -5.5 -2.8 0.35 -1.45 7.1 L0.35 3.05 Q2.5 -2.3 3.55 -8.15 L2.6 3.45 2.3 5.8 Q0.5 7.5 -1.65 9.1 L-4.5 11.1 -5.15 11.1 -5.15 11.0 -5.6 10.5 -5.85 7.7" fill="#c98933" fill-rule="evenodd" stroke="none"/>
      <path d="M2.3 5.8 L1.5 8.95 1.45 9.05 Q0.3 12.3 -1.9 15.1 L-2.8 16.1 -4.5 17.35 -5.05 17.1 -5.6 10.5 -5.15 11.0 -5.15 11.1 -4.5 11.1 -1.65 9.1 Q0.5 7.5 2.3 5.8" fill="#895c20" fill-rule="evenodd" stroke="none"/>
      <path d="M3.85 -14.4 L3.3 -13.2 0.85 -9.45 Q-1.15 -6.5 -2.4 -3.15 L-4.05 1.5 -4.6 4.85 -4.9 8.45 Q-5.1 10.0 -4.55 17.3 -1.5 14.4 -0.4 12.2 L1.15 8.45 1.95 4.5 2.45 0.4 2.85 -3.25 3.2 -7.4 3.85 -14.4 M3.65 -15.85 L1.95 -13.4 -0.6 -9.7 -3.55 -4.45 Q-5.25 -1.05 -5.5 0.7 L-5.75 4.2 -5.8 9.0 -5.65 12.75 -5.35 8.9 -5.0 5.7 -4.5 2.85 Q-4.0 0.05 -2.15 -4.1 L0.95 -10.35 2.8 -13.7 3.65 -15.85 M4.45 -18.4 Q4.9 -14.6 4.7 -11.5 L4.35 -6.9 4.05 -2.4 3.45 2.85 2.85 6.85 Q2.55 8.65 1.6 10.55 0.65 12.4 -0.65 13.9 L-2.35 16.2 Q-3.3 17.55 -5.4 19.25 L-6.3 11.2 Q-6.7 7.5 -6.6 5.15 L-6.5 1.6 Q-6.45 0.35 -4.75 -3.65 -3.1 -7.65 -1.6 -9.65 L0.8 -13.1 2.65 -15.55 4.45 -18.4" fill="#000000" fill-rule="evenodd" stroke="none"/>
      <path d="M-5.45 13.95 Q-4.75 13.45 -4.4 13.5 -3.15 13.45 -3.15 15.0 L-3.15 17.7 -4.2 18.65 Q-6.3 20.6 -7.25 23.25 L-9.45 22.5 Q-9.2 17.05 -7.1 15.25 L-5.85 14.2 -6.65 15.05 Q-8.45 17.3 -8.45 19.1 -8.7 19.85 -7.65 19.85 -7.0 19.85 -6.75 18.85 L-6.45 17.45 -5.55 16.05 -4.85 14.75 Q-4.85 13.65 -5.45 13.95" fill="#ffd556" fill-rule="evenodd" stroke="none"/>
      <path d="M-5.85 14.2 L-5.45 13.95 Q-4.85 13.65 -4.85 14.75 L-5.55 16.05 -6.45 17.45 -6.75 18.85 Q-7.0 19.85 -7.65 19.85 -8.7 19.85 -8.45 19.1 -8.45 17.3 -6.65 15.05 L-5.85 14.2" fill="#ffffff" fill-rule="evenodd" stroke="none"/>
      <path d="M-3.15 17.7 L-3.45 22.6 Q-3.5 23.5 -5.05 25.75 -6.7 28.1 -7.65 28.1 -8.6 28.1 -9.15 26.0 L-9.5 23.35 -9.45 22.5 -7.25 23.25 Q-6.3 20.6 -4.2 18.65 L-3.15 17.7" fill="#c98933" fill-rule="evenodd" stroke="none"/>
      <path d="M-3.55 17.25 Q-3.55 13.75 -4.25 14.75 L-5.35 16.15 -6.6 18.45 -7.15 19.75 Q-6.4 16.75 -4.85 15.0 L-3.65 13.9 -5.2 13.85 Q-7.6 16.55 -8.35 18.35 -9.25 20.5 -9.25 23.3 -9.25 24.95 -8.85 25.9 L-8.45 27.2 -7.8 27.85 -7.95 27.3 -8.1 25.2 -8.1 24.9 -7.8 22.45 -7.3 20.3 -7.5 22.3 -7.75 24.6 Q-7.95 25.6 -7.65 26.3 L-7.1 27.2 Q-6.8 27.35 -5.85 26.5 -4.95 25.6 -4.15 21.5 -3.55 18.6 -3.55 17.25 M-2.8 14.55 Q-2.65 15.25 -2.65 16.45 -2.75 18.8 -3.25 21.35 -4.3 26.55 -6.5 28.3 -7.0 28.7 -7.35 28.55 L-7.45 28.55 Q-8.75 28.55 -9.45 26.1 -9.85 24.55 -9.85 23.4 -9.85 20.85 -8.8 18.1 -8.15 16.45 -6.65 14.7 L-5.1 13.2 -3.5 13.3 Q-3.1 13.5 -3.1 13.75 L-3.1 13.8 -2.8 14.55" fill="#000000" fill-rule="evenodd" stroke="none"/>
    </g>
  </defs>
</svg>
