<?xml version="1.0" encoding="UTF-8" standalone="no"?>
<svg xmlns:ffdec="https://www.free-decompiler.com/flash" xmlns:xlink="http://www.w3.org/1999/xlink" ffdec:objectType="frame" height="76.9px" width="84.5px" xmlns="http://www.w3.org/2000/svg">
  <g transform="matrix(1.0, 0.0, 0.0, 1.0, 41.5, 60.95)">
    <use ffdec:characterId="25" height="76.9" transform="matrix(1.0, 0.0, 0.0, 1.0, -41.15, -60.95)" width="84.5" xlink:href="#sprite0"/>
  </g>
  <defs>
    <g id="sprite0">
      <use ffdec:characterId="11" height="5.0" transform="matrix(0.9659, -0.2588, 0.3992, 1.4898, -1.8, 53.65)" width="19.3" xlink:href="#sprite1"/>
      <use ffdec:characterId="11" height="5.0" transform="matrix(-0.9659, -0.2588, -0.3992, 1.4898, 85.6, 53.65)" width="19.3" xlink:href="#sprite2"/>
      <use ffdec:characterId="24" height="76.9" transform="matrix(1.0, 0.0, 0.0, 1.0, 12.65, 1.0)" width="60.1" xlink:href="#sprite3"/>
    </g>
    <g id="sprite1">
      <use ffdec:characterId="10" height="5.0" transform="matrix(1.0, 0.0, 0.0, 1.0, 0.0, 0.0)" width="19.3" xlink:href="#shape0"/>
    </g>
    <g id="shape0">
      <path d="M3.4 3.2 Q7.25 0.65 15.7 0.45 L19.65 3.2 Q9.6 2.5 3.4 3.2" fill="#001b47" fill-rule="evenodd" stroke="none"/>
      <path d="M3.4 3.2 Q9.6 2.5 19.65 3.2 L20.45 3.75 18.7 4.95 Q10.55 3.95 1.65 4.7 L2.95 3.5 3.4 3.2" fill="#327adf" fill-rule="evenodd" stroke="none"/>
      <path d="M19.65 3.2 L15.7 0.45 Q7.25 0.65 3.4 3.2 L2.95 3.5 1.65 4.7 Q10.55 3.95 18.7 4.95 L20.45 3.75 19.65 3.2 Z" ffdec:has-small-stroke="true" ffdec:original-stroke-width="0.5" fill="none" stroke="#00050a" stroke-linecap="round" stroke-linejoin="round" stroke-width="0.8052098979900955"/>
    </g>
    <g id="sprite2">
      <use ffdec:characterId="10" height="5.0" transform="matrix(1.0, 0.0, 0.0, 1.0, 0.0, 0.0)" width="19.3" xlink:href="#shape1"/>
    </g>
    <g id="shape1">
      <path d="M3.4 3.2 Q7.25 0.65 15.7 0.45 L19.65 3.2 Q9.6 2.5 3.4 3.2" fill="#001b47" fill-rule="evenodd" stroke="none"/>
      <path d="M3.4 3.2 Q9.6 2.5 19.65 3.2 L20.45 3.75 18.7 4.95 Q10.55 3.95 1.65 4.7 L2.95 3.5 3.4 3.2" fill="#327adf" fill-rule="evenodd" stroke="none"/>
      <path d="M19.65 3.2 L15.7 0.45 Q7.25 0.65 3.4 3.2 L2.95 3.5 1.65 4.7 Q10.55 3.95 18.7 4.95 L20.45 3.75 19.65 3.2 Z" ffdec:has-small-stroke="true" ffdec:original-stroke-width="0.5" fill="none" stroke="#00050a" stroke-linecap="round" stroke-linejoin="round" stroke-width="0.8052098979900955"/>
    </g>
    <g id="sprite3">
      <use ffdec:characterId="12" height="76.9" transform="matrix(1.0, 0.0, 0.0, 1.0, 0.0, 0.0)" width="60.1" xlink:href="#shape2"/>
      <use ffdec:characterId="14" height="0.5" transform="matrix(1.0, 0.0, 0.0, 1.0, 21.7, 40.2)" width="1.45" xlink:href="#sprite4"/>
      <use ffdec:characterId="14" height="0.5" transform="matrix(1.0, 0.0, 0.0, 1.0, 34.55, 40.2)" width="1.45" xlink:href="#sprite5"/>
      <use ffdec:characterId="15" height="8.65" transform="matrix(0.5862, 0.0, 0.0, 1.0, 7.45, 29.2)" width="8.65" xlink:href="#sprite6"/>
      <use ffdec:characterId="16" height="8.65" transform="matrix(1.0, 0.0, 0.0, 1.0, 0.0, 0.0)" width="5.05" xlink:href="#shape6"/>
      <use ffdec:characterId="20" height="25.15" transform="matrix(1.0, 0.0, 0.0, 1.0, 6.65, 48.1)" width="21.15" xlink:href="#sprite7"/>
      <use ffdec:characterId="20" height="25.15" transform="matrix(-1.0, 0.0, 0.0, 1.0, 50.5, 48.1)" width="21.15" xlink:href="#sprite9"/>
      <use ffdec:characterId="21" height="11.75" transform="matrix(1.0, 0.0, 0.0, 1.0, 0.0, 0.0)" width="44.85" xlink:href="#shape11"/>
      <use ffdec:characterId="23" height="10.3" transform="matrix(1.0, 0.0, 0.0, 1.0, 52.75, 33.5)" width="6.35" xlink:href="#sprite11"/>
      <use ffdec:characterId="23" height="10.3" transform="matrix(-1.0, 0.0, 0.0, 1.0, 5.1, 33.5)" width="6.35" xlink:href="#sprite11"/>
    </g>
    <g id="shape2">
      <path d="M29.2 -1.0 L30.55 -0.2 30.7 -0.1 30.7 -0.15 30.75 -0.05 31.4 1.2 31.45 1.3 31.8 2.2 31.85 2.35 31.85 2.4 31.85 2.55 31.9 2.75 32.15 3.5 32.2 3.6 32.25 3.65 32.3 3.75 32.35 3.75 32.4 4.0 32.4 4.05 33.0 5.85 33.05 5.95 33.15 6.25 33.25 6.5 33.25 6.55 33.5 7.2 33.6 7.45 33.6 7.55 35.7 13.55 35.85 13.75 35.9 13.85 36.25 15.0 36.35 15.25 36.35 15.35 36.55 16.0 36.95 17.1 37.1 17.3 37.15 17.4 37.35 18.1 37.35 18.2 37.35 18.25 37.55 19.1 37.55 19.25 37.6 19.4 37.65 20.0 37.7 20.65 40.7 21.05 Q43.05 21.55 45.3 22.5 L46.0 22.8 45.95 22.8 Q54.0 26.1 58.45 32.45 L58.5 32.55 58.55 32.6 58.7 33.05 Q59.05 36.45 59.0 39.5 L59.0 39.6 58.85 41.4 58.75 42.45 58.75 42.5 58.75 42.65 58.75 42.75 58.35 45.3 58.35 45.35 58.2 46.0 58.2 46.1 58.2 46.2 57.55 48.1 57.4 48.75 57.4 48.8 57.35 48.9 56.95 49.9 56.15 51.2 56.05 51.3 55.75 51.6 55.75 51.65 55.65 51.7 54.7 52.35 54.6 52.4 54.45 52.45 53.9 52.65 53.7 52.75 53.6 52.8 53.55 52.8 53.15 52.9 53.15 58.4 Q53.1 61.75 51.9 64.65 L51.8 65.0 51.8 65.05 51.0 66.55 50.95 66.6 50.95 66.65 50.9 66.7 50.7 67.05 50.65 67.1 50.65 67.15 50.55 67.25 49.4 68.8 49.3 68.9 48.35 69.9 48.25 70.0 Q46.15 72.1 43.65 73.25 L42.35 73.8 42.1 73.9 41.4 74.15 41.35 74.15 34.8 75.55 29.65 75.9 28.65 75.9 23.15 75.65 22.45 75.55 Q19.0 75.1 15.9 74.15 L15.85 74.15 15.15 73.9 14.9 73.8 13.6 73.25 Q11.1 72.1 9.0 70.0 L8.9 69.9 8.05 68.95 8.0 68.9 7.9 68.85 6.75 67.25 6.35 66.65 6.3 66.6 6.25 66.55 5.65 65.25 5.35 64.65 Q4.15 61.75 4.1 58.4 L4.1 52.65 3.55 52.45 3.35 52.35 3.3 52.35 Q1.95 51.55 1.2 50.25 L0.95 49.7 0.9 49.55 0.85 49.45 0.8 49.35 0.7 48.95 0.75 49.0 0.6 48.7 0.25 47.8 0.25 47.7 0.25 47.65 0.2 47.55 -0.15 46.1 -0.35 45.3 -0.35 45.25 -0.7 42.85 -0.75 42.6 -0.85 41.55 -0.9 40.7 -0.95 40.2 -1.0 38.15 Q-1.3 36.1 -0.8 34.05 L-0.7 33.05 -0.7 33.0 -0.5 32.55 -0.05 32.0 0.1 31.85 0.1 31.8 1.4 30.4 3.75 28.2 3.8 28.05 3.85 28.0 5.6 26.65 6.55 25.9 8.75 24.45 8.95 24.35 9.0 24.3 9.05 24.3 9.1 24.2 Q10.85 23.2 12.7 22.5 L12.95 22.45 13.0 22.45 13.6 22.2 13.85 22.1 13.9 22.1 15.6 21.45 17.3 21.05 17.7 21.0 19.9 20.65 20.3 20.6 20.35 19.9 20.4 19.55 20.45 19.1 20.5 19.05 20.5 19.0 20.5 18.9 20.65 18.25 20.65 18.15 20.65 18.1 20.85 17.4 20.95 17.3 21.05 17.15 21.25 16.6 21.25 16.4 21.35 16.3 22.05 14.3 22.05 14.2 22.1 13.95 22.3 13.65 24.4 7.6 24.4 7.35 24.45 7.3 24.85 6.2 25.0 5.9 25.05 5.75 25.05 5.8 25.65 4.05 25.65 3.95 25.8 3.65 25.8 3.6 26.1 2.8 26.1 2.6 26.55 1.25 Q26.9 0.4 27.3 -0.1 L27.4 -0.15 27.5 -0.2 Q28.05 -0.9 28.75 -1.0 L29.2 -1.0 M47.35 54.95 L46.75 53.25 46.25 54.55 46.25 54.6 46.2 54.75 45.85 55.15 45.85 55.2 45.65 55.25 45.45 55.3 45.35 55.3 44.9 55.1 43.45 54.1 42.45 56.65 42.1 57.1 41.9 57.15 41.65 57.2 41.15 57.0 39.1 55.45 38.15 58.05 38.1 58.25 37.85 58.6 37.65 58.7 37.3 58.8 36.8 58.6 33.95 56.25 32.4 59.4 32.4 59.45 32.35 59.45 32.3 59.55 32.1 59.65 32.15 59.65 31.9 59.7 31.7 59.85 31.65 59.9 31.3 59.85 31.35 59.85 30.95 59.6 30.9 59.5 28.6 56.95 26.25 59.5 26.2 59.6 25.85 59.85 25.75 59.9 25.7 59.9 25.55 59.9 25.25 59.8 25.15 59.75 25.05 59.7 24.9 59.55 24.8 59.45 24.8 59.4 23.2 56.25 20.4 58.6 19.85 58.8 19.55 58.7 19.5 58.7 19.45 58.65 19.35 58.6 19.3 58.6 19.05 58.25 19.0 58.05 18.1 55.45 16.05 57.0 15.55 57.2 15.5 57.2 15.25 57.15 15.05 57.1 14.7 56.65 14.65 56.5 14.65 56.45 13.8 54.05 12.3 55.1 12.25 55.1 11.8 55.3 11.75 55.3 11.5 55.25 11.3 55.2 10.95 54.75 10.9 54.6 10.9 54.55 10.45 53.35 10.05 54.8 10.0 55.0 9.85 55.5 10.0 55.6 10.15 55.65 10.55 56.0 10.55 56.1 10.65 56.4 10.65 56.5 10.45 56.95 9.65 58.05 9.65 58.8 10.15 59.05 10.2 59.15 10.2 59.2 10.25 59.25 10.35 59.4 10.4 59.4 10.4 59.95 10.35 59.95 10.3 60.1 10.0 60.8 10.45 62.05 10.65 62.1 10.85 62.15 11.0 62.2 11.35 62.55 11.4 62.6 11.45 62.7 11.45 63.15 11.3 63.9 11.35 64.0 11.45 64.1 12.45 65.45 12.7 65.45 13.25 65.6 13.4 65.75 13.6 66.3 13.6 66.65 14.65 67.55 14.95 67.5 15.0 67.5 Q15.3 67.5 15.5 67.75 L15.6 67.8 15.7 68.0 15.8 68.15 15.8 68.35 16.4 68.7 16.5 68.75 17.45 69.25 17.65 69.15 Q17.85 68.95 18.15 69.0 L18.25 69.0 18.45 69.05 18.6 69.1 18.95 69.45 19.0 69.6 19.15 69.95 20.85 70.35 21.55 69.95 21.7 69.8 22.15 69.7 22.25 69.7 22.35 69.7 22.5 69.75 22.45 69.75 22.8 70.0 22.85 70.0 22.9 70.1 22.95 70.2 22.95 70.25 23.25 70.7 23.85 70.75 25.15 70.85 25.75 70.35 25.8 70.3 Q26.05 70.05 26.45 70.1 26.75 70.1 27.0 70.35 L27.45 70.9 29.7 70.9 30.1 70.4 30.15 70.4 30.25 70.3 30.75 70.1 Q31.1 70.05 31.4 70.3 L31.4 70.35 32.0 70.8 32.15 70.8 33.95 70.65 34.25 70.15 Q34.35 69.9 34.6 69.8 L34.75 69.75 34.95 69.7 35.05 69.7 35.45 69.8 35.6 69.9 36.2 70.25 38.1 69.75 38.15 69.75 38.15 69.65 38.15 69.6 38.6 69.1 38.75 69.05 39.35 69.05 39.75 69.25 39.9 69.15 40.2 69.0 40.3 68.95 41.35 68.45 41.4 68.25 41.65 67.75 41.85 67.6 42.0 67.5 42.05 67.5 42.5 67.5 42.6 67.55 42.65 67.6 42.7 67.65 42.75 67.6 43.6 66.9 43.6 66.3 43.75 65.75 43.9 65.6 44.45 65.45 45.05 65.45 45.9 64.3 45.9 64.2 45.75 63.2 45.75 62.75 45.8 62.55 45.85 62.5 46.1 62.25 46.15 62.2 46.55 62.1 47.0 62.05 47.3 61.1 46.9 60.1 46.8 59.95 46.8 59.4 46.9 59.25 47.05 59.05 Q47.25 58.85 47.5 58.8 L47.7 58.75 47.8 58.1 46.8 56.85 46.65 56.45 46.65 56.4 Q46.65 56.2 46.8 56.05 L46.75 56.05 47.1 55.75 47.5 55.55 47.35 54.95" fill="#0a1a29" fill-rule="evenodd" stroke="none"/>
      <path d="M48.05 64.5 L48.0 64.55 47.2 66.05 46.75 66.65 45.45 68.2 45.25 68.4 44.3 69.3 Q42.5 70.8 40.4 71.55 L39.65 71.8 37.65 72.35 34.2 73.0 32.0 73.25 30.4 73.3 29.1 73.3 28.65 73.3 28.5 73.3 27.6 73.3 23.5 73.05 23.05 73.0 20.35 72.55 19.6 72.35 17.6 71.8 16.85 71.55 Q14.75 70.8 13.0 69.3 L12.0 68.4 11.8 68.2 10.5 66.65 10.1 66.05 9.25 64.55 10.65 64.55 Q12.75 67.65 16.05 69.5 19.25 71.35 23.75 71.6 L32.2 71.65 Q37.3 71.3 40.5 69.8 44.55 68.05 46.75 64.5 L48.05 64.5" fill="#f9bed7" fill-rule="evenodd" stroke="none"/>
      <path d="M28.5 73.3 L28.65 73.3 29.1 73.3 30.4 73.3 32.0 73.25 34.2 73.0 37.65 72.35 39.65 71.8 40.4 71.55 Q42.5 70.8 44.3 69.3 L45.25 68.4 45.45 68.2 46.75 66.65 47.2 66.05 48.0 64.55 48.05 64.5 Q49.15 62.05 49.15 59.1 L48.85 56.2 Q50.3 54.45 52.15 56.2 L52.15 58.4 Q52.1 61.7 50.9 64.5 L50.9 64.55 50.1 66.05 49.75 66.65 48.6 68.2 47.65 69.2 47.55 69.3 Q45.6 71.25 43.25 72.35 L41.95 72.9 41.05 73.15 34.7 74.55 29.65 74.9 28.65 74.9 27.65 74.9 27.6 74.9 26.55 74.9 23.25 74.65 22.55 74.55 16.2 73.15 15.3 72.9 14.0 72.35 Q11.65 71.25 9.7 69.3 L9.6 69.2 8.7 68.2 7.55 66.65 7.15 66.05 6.4 64.55 6.35 64.5 Q5.15 61.7 5.1 58.4 L5.1 56.2 Q6.75 54.75 8.4 56.2 8.1 57.6 8.1 59.1 8.1 62.05 9.25 64.5 L9.25 64.55 10.1 66.05 10.5 66.65 11.8 68.2 12.0 68.4 13.0 69.3 Q14.75 70.8 16.85 71.55 L17.6 71.8 19.6 72.35 20.35 72.55 23.05 73.0 23.5 73.05 27.6 73.3 28.15 73.3 28.5 73.3" fill="#1652ac" fill-rule="evenodd" stroke="none"/>
      <path d="M5.1 51.95 L5.45 52.0 10.15 52.0 10.1 52.05 Q9.35 53.25 8.85 54.6 L8.4 56.2 Q6.75 54.75 5.1 56.2 L5.1 51.95 M52.15 56.2 Q50.3 54.45 48.85 56.2 L48.4 54.6 47.15 52.15 47.1 52.0 52.15 52.0 52.15 56.2" fill="#052364" fill-rule="evenodd" stroke="none"/>
      <path d="M48.05 64.5 L46.75 64.5 46.75 64.45 Q48.3 62.0 48.55 59.0 L48.65 57.55 48.5 56.25 48.2 54.7 47.15 52.15 48.4 54.6 48.85 56.2 49.15 59.1 Q49.15 62.05 48.05 64.5 M10.65 64.55 L9.25 64.55 9.25 64.5 Q8.1 62.05 8.1 59.1 8.1 57.6 8.4 56.2 L8.85 54.6 Q9.35 53.25 10.1 52.05 9.45 53.3 9.15 54.7 L8.85 56.25 8.75 57.5 8.8 59.0 Q9.05 62.05 10.65 64.5 L10.65 64.55" fill="#ed82af" fill-rule="evenodd" stroke="none"/>
      <path d="M28.5 73.3 L28.65 73.3 29.1 73.3 30.4 73.3 32.0 73.25 34.2 73.0 37.65 72.35 39.65 71.8 40.4 71.55 Q42.5 70.8 44.3 69.3 L45.25 68.4 45.45 68.2 46.75 66.65 47.2 66.05 48.0 64.55 48.05 64.5 Q49.15 62.05 49.15 59.1 L48.85 56.2 48.4 54.6 47.15 52.15 47.1 52.0 M9.25 64.55 L10.1 66.05 10.5 66.65 11.8 68.2 12.0 68.4 13.0 69.3 Q14.75 70.8 16.85 71.55 L17.6 71.8 19.6 72.35 20.35 72.55 23.05 73.0 23.5 73.05 27.6 73.3 28.5 73.3 28.15 73.3 27.6 73.3 M8.4 56.2 L8.85 54.6 Q9.35 53.25 10.1 52.05 L10.15 52.0 M9.25 64.55 L9.25 64.5 Q8.1 62.05 8.1 59.1 8.1 57.6 8.4 56.2" ffdec:has-small-stroke="true" ffdec:original-stroke-width="0.1" fill="none" stroke="#254666" stroke-linecap="round" stroke-linejoin="round" stroke-width="1.0"/>
      <path d="M46.75 64.5 Q44.55 68.05 40.5 69.8 37.3 71.3 32.2 71.65 L23.75 71.6 Q19.25 71.35 16.05 69.5 12.75 67.65 10.65 64.55" ffdec:has-small-stroke="true" ffdec:original-stroke-width="0.1" fill="none" stroke="#b9567f" stroke-linecap="round" stroke-linejoin="round" stroke-width="1.0"/>
      <path d="M10.65 64.55 L10.65 64.5 Q9.05 62.05 8.8 59.0 L8.75 57.5 8.85 56.25 9.15 54.7 Q9.45 53.3 10.1 52.05 M47.15 52.15 L48.2 54.7 48.5 56.25 48.65 57.55 48.55 59.0 Q48.3 62.0 46.75 64.45 L46.75 64.5" ffdec:has-small-stroke="true" ffdec:original-stroke-width="0.1" fill="none" stroke="#913058" stroke-linecap="round" stroke-linejoin="round" stroke-width="1.0"/>
      <path d="M5.1 51.95 L5.1 56.2 5.1 58.4 Q5.15 61.7 6.35 64.5 L6.4 64.55 7.15 66.05 7.55 66.65 8.7 68.2 9.6 69.2 9.7 69.3 Q11.65 71.25 14.0 72.35 L15.3 72.9 16.2 73.15 22.55 74.55 23.25 74.65 26.55 74.9 27.6 74.9 27.65 74.9 28.65 74.9 29.65 74.9 34.7 74.55 41.05 73.15 41.95 72.9 43.25 72.35 Q45.6 71.25 47.55 69.3 L47.65 69.2 48.6 68.2 49.75 66.65 50.1 66.05 50.9 64.55 50.9 64.5 Q52.1 61.7 52.15 58.4 L52.15 56.2 52.15 52.0 M27.65 74.9 L26.55 74.9" ffdec:has-small-stroke="true" ffdec:original-stroke-width="0.5" fill="none" stroke="#000000" stroke-linecap="round" stroke-linejoin="round" stroke-width="1.0"/>
      <path d="M45.55 23.7 L45.55 24.6 Q45.75 27.95 41.0 31.85 L39.85 32.7 39.85 32.75 40.0 33.45 40.15 34.9 40.15 35.2 40.15 35.25 40.15 35.35 Q40.05 36.55 39.55 37.65 38.85 39.05 37.45 40.2 L37.25 40.35 36.65 40.8 36.5 40.9 Q34.9 41.95 33.2 42.4 L32.0 42.65 30.45 42.85 29.85 42.9 28.85 42.9 27.9 42.85 26.9 42.7 26.6 42.65 25.25 42.4 Q21.05 41.6 18.85 39.15 17.55 37.75 16.9 36.05 16.3 34.5 16.2 32.7 L16.2 32.55 16.25 31.15 16.3 30.55 15.9 30.25 Q14.35 28.85 13.6 27.5 13.15 26.65 13.0 25.8 12.75 24.6 13.1 23.4 L14.2 23.0 15.9 22.45 17.5 22.05 17.9 22.0 20.05 21.65 21.3 21.55 21.5 21.5 Q23.6 21.35 25.8 21.55 L26.2 21.6 26.7 21.65 27.9 21.8 28.3 21.85 28.65 21.9 28.95 21.95 29.1 21.95 29.45 21.9 29.55 21.85 31.05 21.7 31.15 21.7 31.5 21.65 31.8 21.6 36.5 21.5 36.7 21.55 40.5 22.05 Q42.75 22.5 44.9 23.4 L45.55 23.7" fill="#0744a0" fill-rule="evenodd" stroke="none"/>
      <path d="M40.15 35.35 L40.15 35.25 40.15 35.2 40.15 34.9 40.0 33.45 39.85 32.75 39.85 32.7 41.0 31.85 Q45.75 27.95 45.55 24.6 L45.55 23.7 Q53.35 26.9 57.65 33.05 L57.7 33.15 Q58.05 36.5 58.0 39.5 L57.85 41.3 57.75 42.4 57.75 42.5 57.75 42.65 Q55.0 44.2 51.3 42.65 50.45 43.95 49.0 45.3 L48.35 45.9 Q46.7 47.3 43.5 48.65 L42.45 49.05 42.3 49.1 41.6 49.35 37.2 50.4 35.5 50.65 30.45 51.05 30.25 51.05 27.75 51.05 23.4 50.55 Q19.15 49.95 15.9 48.9 12.65 47.85 10.4 46.35 L10.1 46.15 9.75 45.9 9.05 45.3 7.55 43.8 6.7 42.65 Q2.8 44.55 0.3 42.65 L0.25 42.4 0.15 41.45 0.1 40.5 0.05 40.2 0.0 37.45 0.3 33.15 0.85 32.5 2.1 31.1 4.5 28.8 6.25 27.4 7.15 26.7 Q7.6 27.75 8.3 28.6 L8.5 28.8 8.75 29.05 Q10.4 30.7 13.2 31.45 L14.25 31.65 14.35 32.7 Q14.65 35.55 15.9 37.65 L16.9 39.0 Q18.9 41.25 22.35 42.4 L23.15 42.65 27.4 43.4 28.95 43.5 29.1 43.5 Q31.75 43.45 34.0 42.65 34.35 42.55 34.65 42.4 L35.6 41.95 36.9 41.15 37.2 40.9 38.0 40.2 Q39.4 38.85 39.9 37.25 L40.15 35.35 M36.5 21.5 L31.8 21.6 31.5 21.65 31.15 21.7 31.05 21.7 29.55 21.85 29.45 21.9 29.1 21.95 28.95 21.95 28.65 21.9 Q35.9 20.75 35.65 16.3 L36.15 17.7 36.35 18.4 36.55 19.3 36.6 19.55 36.6 19.6 36.65 20.0 36.65 20.05 Q36.75 21.0 36.5 21.5 M28.3 21.85 L27.9 21.8 26.7 21.65 26.2 21.6 25.8 21.55 Q23.6 21.35 21.5 21.5 21.2 21.0 21.35 19.95 L21.4 19.75 21.4 19.6 21.45 19.3 21.5 19.1 21.65 18.4 21.85 17.7 22.25 16.65 Q22.2 20.85 28.3 21.85" fill="#002a6a" fill-rule="evenodd" stroke="none"/>
      <path d="M0.3 42.65 Q2.8 44.55 6.7 42.65 L7.55 43.8 9.05 45.3 9.75 45.9 10.1 46.15 10.4 46.35 Q12.65 47.85 15.9 48.9 19.15 49.95 23.4 50.55 L27.75 51.05 30.25 51.05 30.45 51.05 35.5 50.65 37.2 50.4 41.6 49.35 42.3 49.1 42.45 49.05 43.5 48.65 Q46.7 47.3 48.35 45.9 L49.0 45.3 Q50.45 43.95 51.3 42.65 55.0 44.2 57.75 42.65 L57.35 45.1 57.2 45.9 56.55 48.1 56.55 48.15 56.5 48.3 56.4 48.6 56.05 49.5 55.35 50.55 55.0 50.9 54.2 51.45 53.5 51.75 53.35 51.8 52.55 52.0 47.1 52.0 46.4 51.05 46.05 51.05 Q28.9 53.0 11.4 50.85 L11.05 50.8 10.85 51.05 10.15 52.0 5.45 52.0 5.1 51.95 5.0 51.9 4.5 51.75 3.8 51.45 Q2.6 50.75 2.0 49.55 L1.95 49.5 1.8 49.15 1.7 48.75 1.5 48.3 1.25 47.5 1.2 47.25 0.85 45.9 0.65 45.1 0.65 45.05 0.3 42.65" fill="#001c47" fill-rule="evenodd" stroke="none"/>
      <path d="M26.6 4.2 L26.7 3.9 27.1 2.8 27.45 1.65 28.1 0.55 28.95 0.0 29.0 0.0 Q29.5 0.1 29.95 0.6 L30.55 1.65 30.85 2.5 30.9 2.8 31.3 3.95 31.4 4.2 31.65 5.05 31.45 5.35 31.0 6.0 30.4 7.6 30.1 9.1 30.0 10.1 29.65 17.55 29.65 17.8 29.55 18.4 29.1 19.2 29.0 19.3 28.5 18.4 28.4 17.8 28.35 17.55 28.0 10.1 27.9 8.8 27.65 7.6 27.0 6.0 26.35 5.05 26.6 4.2" fill="#55a8f8" fill-rule="evenodd" stroke="none"/>
      <path d="M28.65 21.9 L28.3 21.85 Q22.2 20.85 22.25 16.65 L23.0 14.5 23.1 14.15 25.4 7.6 25.75 6.6 25.95 6.1 26.35 5.05 27.0 6.0 27.65 7.6 27.9 8.8 28.0 10.1 28.35 17.55 28.4 17.8 28.5 18.4 29.0 19.3 29.1 19.2 29.55 18.4 29.65 17.8 29.65 17.55 30.0 10.1 30.1 9.1 30.4 7.6 31.0 6.0 31.45 5.35 31.65 5.05 32.05 6.15 32.25 6.65 32.6 7.6 34.9 14.15 35.35 15.4 35.65 16.3 Q35.9 20.75 28.65 21.9" fill="#1f5dbc" fill-rule="evenodd" stroke="none"/>
      <path d="M13.1 23.4 Q12.75 24.6 13.0 25.8 13.15 26.65 13.6 27.5 14.35 28.85 15.9 30.25 L16.3 30.55 16.25 31.15 16.2 32.55 16.2 32.7 Q16.3 34.5 16.9 36.05 17.55 37.75 18.85 39.15 21.05 41.6 25.25 42.4 L26.6 42.65 26.9 42.7 27.9 42.85 28.85 42.9 29.85 42.9 30.45 42.85 32.0 42.65 33.2 42.4 Q34.9 41.95 36.5 40.9 L36.65 40.8 37.25 40.35 37.45 40.2 Q38.85 39.05 39.55 37.65 40.05 36.55 40.15 35.35 L39.9 37.25 Q39.4 38.85 38.0 40.2 L37.2 40.9 36.9 41.15 35.6 41.95 34.65 42.4 Q34.35 42.55 34.0 42.65 31.75 43.45 29.1 43.5 L28.95 43.5 27.4 43.4 23.15 42.65 22.35 42.4 Q18.9 41.25 16.9 39.0 L15.9 37.65 Q14.65 35.55 14.35 32.7 L14.25 31.65 13.2 31.45 Q10.4 30.7 8.75 29.05 L8.5 28.8 8.3 28.6 Q7.6 27.75 7.15 26.7 L9.25 25.3 9.6 25.1 Q11.3 24.1 13.1 23.4" fill="#327adf" fill-rule="evenodd" stroke="none"/>
      <path d="M45.55 23.7 L44.9 23.4 Q42.75 22.5 40.5 22.05 L36.7 21.55 36.5 21.5 Q36.75 21.0 36.65 20.05 L36.65 20.0 36.6 19.6 36.6 19.55 36.55 19.3 36.35 18.4 36.15 17.7 35.65 16.3 35.35 15.4 34.9 14.15 32.6 7.6 32.25 6.65 32.05 6.15 31.4 4.2 31.3 3.95 30.9 2.8 30.85 2.5 30.55 1.65 29.95 0.6 Q29.5 0.1 29.0 0.0 L28.95 0.0 28.1 0.55 27.45 1.65 27.1 2.8 26.7 3.9 26.6 4.2 25.95 6.1 25.75 6.6 25.4 7.6 23.1 14.15 23.0 14.5 22.25 16.65 21.85 17.7 21.65 18.4 21.5 19.1 21.45 19.3 21.4 19.6 21.4 19.75 21.35 19.95 Q21.2 21.0 21.5 21.5 L21.3 21.55 20.05 21.65 17.9 22.0 17.5 22.05 15.9 22.45 14.2 23.0 13.1 23.4 Q11.3 24.1 9.6 25.1 L9.25 25.3 7.15 26.7 6.25 27.4 4.5 28.8 2.1 31.1 0.85 32.5 0.3 33.15 0.0 37.45 0.05 40.2 0.1 40.5 0.15 41.45 0.25 42.4 0.3 42.65 0.65 45.05 0.65 45.1 0.85 45.9 1.2 47.25 1.25 47.5 1.5 48.3 1.7 48.75 1.8 49.15 1.95 49.5 2.0 49.55 Q2.6 50.75 3.8 51.45 L4.5 51.75 5.0 51.9 5.1 51.95 5.45 52.0 M57.75 42.65 L57.75 42.5 57.75 42.4 57.85 41.3 58.0 39.5 Q58.05 36.5 57.7 33.15 L57.65 33.05 Q53.35 26.9 45.55 23.7 M57.75 42.65 L57.35 45.1 57.2 45.9 56.55 48.1 56.55 48.15 56.5 48.3 56.4 48.6 56.05 49.5 55.35 50.55 55.0 50.9 54.2 51.45 53.5 51.75 53.35 51.8 52.55 52.0" ffdec:has-small-stroke="true" ffdec:original-stroke-width="0.5" fill="none" stroke="#00081e" stroke-linecap="round" stroke-linejoin="round" stroke-width="1.0"/>
      <path d="M36.5 21.5 L31.8 21.6 31.5 21.65 31.15 21.7 31.05 21.7 29.55 21.85 29.45 21.9 29.1 21.95 28.95 21.95 28.65 21.9 28.3 21.85 27.9 21.8 26.7 21.65 26.2 21.6 25.8 21.55 Q23.6 21.35 21.5 21.5" ffdec:has-small-stroke="true" ffdec:original-stroke-width="0.1" fill="none" stroke="#003061" stroke-linecap="round" stroke-linejoin="round" stroke-width="1.0"/>
      <path d="M52.55 52.0 L47.1 52.0 46.4 51.05 M10.85 51.05 L10.15 52.0 5.45 52.0" ffdec:has-small-stroke="true" ffdec:original-stroke-width="0.5" fill="none" stroke="#17213d" stroke-linecap="round" stroke-linejoin="round" stroke-width="1.0"/>
      <path d="M11.05 50.8 L10.85 51.05" ffdec:has-small-stroke="true" ffdec:original-stroke-width="0.1" fill="none" stroke="#020202" stroke-linecap="round" stroke-linejoin="round" stroke-width="1.0"/>
      <path d="M46.4 51.05 L46.05 51.05 Q28.9 53.0 11.4 50.85 L11.05 50.8" ffdec:has-small-stroke="true" ffdec:original-stroke-width="0.5" fill="none" stroke="#323f60" stroke-linecap="round" stroke-linejoin="round" stroke-width="1.0"/>
    </g>
    <g id="sprite4">
      <use ffdec:characterId="13" height="0.5" transform="matrix(1.0, 0.0, 0.0, 1.0, 0.0, 0.0)" width="1.45" xlink:href="#shape3"/>
    </g>
    <g id="shape3">
      <path d="M0.0 0.0 L0.95 0.0" ffdec:has-small-stroke="true" ffdec:original-stroke-width="0.5" fill="none" stroke="#000000" stroke-linecap="round" stroke-linejoin="round" stroke-width="1.0"/>
    </g>
    <g id="sprite5">
      <use ffdec:characterId="13" height="0.5" transform="matrix(1.0, 0.0, 0.0, 1.0, 0.0, 0.0)" width="1.45" xlink:href="#shape4"/>
    </g>
    <g id="shape4">
      <path d="M0.0 0.0 L0.95 0.0" ffdec:has-small-stroke="true" ffdec:original-stroke-width="0.5" fill="none" stroke="#000000" stroke-linecap="round" stroke-linejoin="round" stroke-width="1.0"/>
    </g>
    <g id="sprite6">
      <use ffdec:characterId="2" height="8.65" transform="matrix(1.0, 0.0, 0.0, 1.0, 0.0, 0.0)" width="8.65" xlink:href="#shape5"/>
    </g>
    <g id="shape5">
      <path d="M1.25 1.25 Q2.5 0.0 4.3 0.0 6.1 0.0 7.4 1.3 8.65 2.55 8.65 4.35 8.65 6.15 7.4 7.4 6.1 8.7 4.35 8.65 2.55 8.65 1.3 7.4 0.0 6.1 0.0 4.3 -0.05 2.55 1.25 1.25" fill="#dabc41" fill-rule="evenodd" stroke="none"/>
      <path d="M2.65 2.85 Q3.3 2.2 4.25 2.25 5.15 2.25 5.8 2.9 6.4 3.5 6.4 4.4 6.45 5.35 5.8 6.0 5.2 6.6 4.25 6.55 3.35 6.55 2.75 5.95 2.1 5.3 2.1 4.4 2.05 3.45 2.65 2.85 M4.5 4.5 Q4.15 3.65 4.45 4.45 L4.5 4.5" fill="#000000" fill-rule="evenodd" stroke="none"/>
    </g>
    <g id="shape6">
      <path d="M44.4 30.45 Q45.1 29.2 46.15 29.2 47.25 29.2 48.0 30.5 48.7 31.75 48.7 33.55 48.7 35.35 48.0 36.6 47.25 37.9 46.2 37.85 45.15 37.85 44.4 36.6 43.65 35.3 43.65 33.5 43.6 31.75 44.4 30.45" fill="#dabc41" fill-rule="evenodd" stroke="none"/>
      <path d="M45.2 32.05 Q45.6 31.4 46.15 31.45 46.65 31.45 47.05 32.1 47.4 32.7 47.4 33.6 47.45 34.55 47.05 35.2 46.7 35.8 46.15 35.75 45.6 35.75 45.25 35.15 44.9 34.5 44.9 33.6 44.85 32.65 45.2 32.05" fill="#000000" fill-rule="evenodd" stroke="none"/>
    </g>
    <g id="sprite7">
      <use ffdec:characterId="18" height="26.9" transform="matrix(0.8879, 0.0, 0.0, 0.6729, 3.85, 18.2)" width="23.65" xlink:href="#sprite8"/>
      <use ffdec:characterId="19" height="10.4" transform="matrix(1.0, 0.0, 0.0, 1.0, 0.0, 0.0)" width="19.2" xlink:href="#shape8"/>
    </g>
    <g id="sprite8">
      <use ffdec:characterId="17" height="26.9" transform="matrix(1.0, 0.0, 0.0, 1.0, 0.0, 0.0)" width="23.65" xlink:href="#shape7"/>
    </g>
    <g id="shape7">
      <path d="M-2.95 -11.1 L-2.5 -15.65 -0.85 -14.7 -2.95 -11.1 M-3.1 -10.4 L-1.1 -9.85 -2.4 -5.3 0.05 -5.0 -0.5 -0.35 Q-1.8 -2.8 -2.6 -5.35 L-3.1 -10.4 M-2.4 -5.3 L-2.6 -5.35 -2.4 -5.3 M-0.75 0.0 L2.5 0.0 2.5 4.15 4.95 3.05 5.6 7.1 8.6 5.25 9.85 8.95 13.1 6.35 14.85 10.1 17.85 6.9 20.15 10.2 Q21.35 11.35 18.3 11.1 L15.2 10.8 11.2 10.35 10.6 10.2 Q9.4 10.1 7.15 9.05 4.85 7.95 2.55 5.65 0.45 3.5 -0.75 0.0" fill="#c8a6dc" fill-rule="evenodd" stroke="none"/>
      <path d="M-2.95 -11.1 L-0.85 -14.7 -2.5 -15.65 M-3.1 -10.4 L-1.1 -9.85 -2.4 -5.3 0.05 -5.0 -0.5 -0.35 M-2.6 -5.35 L-2.4 -5.3 M-0.75 0.0 L2.5 0.0 2.5 4.15 4.95 3.05 5.6 7.1 8.6 5.25 9.85 8.95 13.1 6.35 14.85 10.1 17.85 6.9 20.15 10.2" ffdec:has-small-stroke="true" ffdec:original-stroke-width="0.1" fill="none" stroke="#6f5c9e" stroke-linecap="round" stroke-linejoin="round" stroke-width="1.2937894862332373"/>
      <path d="M15.5 10.9 L18.15 8.15 20.2 11.15 15.5 10.9 M5.35 8.05 L8.55 6.35 9.7 10.05 10.85 9.35 13.2 7.5 14.8 10.75 Q12.45 10.85 9.7 10.05 7.55 9.4 5.35 8.05 3.55 7.05 2.1 5.1 L4.7 4.1 5.35 8.0 5.35 8.05" fill="#ffffff" fill-rule="evenodd" stroke="none"/>
      <path d="M-0.55 -4.45 L-0.85 -1.2 -2.45 -4.75 -0.55 -4.45 M2.1 5.1 Q0.15 2.8 -0.35 0.7 L2.1 0.7 2.1 5.1" fill="#f6e5ff" fill-rule="evenodd" stroke="none"/>
      <path d="M-1.55 -14.5 L-2.9 -12.15 -2.6 -15.0 -1.55 -14.5 M-1.7 -9.35 L-2.7 -6.55 -3.0 -9.65 -1.7 -9.35" fill="#e6c8f6" fill-rule="evenodd" stroke="none"/>
      <path d="M20.2 11.15 L15.5 10.9 M14.8 10.75 Q12.45 10.85 9.7 10.05 7.55 9.4 5.35 8.05 3.55 7.05 2.1 5.1 0.15 2.8 -0.35 0.7 M5.35 8.0 L5.35 8.05" ffdec:has-small-stroke="true" ffdec:original-stroke-width="0.1" fill="none" stroke="#a99acd" stroke-linecap="round" stroke-linejoin="round" stroke-width="1.2937894862332373"/>
    </g>
    <g id="shape8">
      <path d="M3.05 0.6 L21.95 5.1 21.95 7.45 18.9 10.9 16.8 6.75 13.2 9.8 11.8 5.95 8.85 8.2 7.55 4.6 7.55 4.55 7.5 4.6 5.1 6.3 3.05 0.6" fill="#cbc6ff" fill-rule="evenodd" stroke="none"/>
      <path d="M21.95 7.45 L18.9 10.9 16.8 6.75 13.2 9.8 11.8 5.95 8.85 8.2 7.55 4.6 M7.5 4.6 L5.1 6.3 3.05 0.6" ffdec:has-small-stroke="true" ffdec:original-stroke-width="0.1" fill="none" stroke="#53447d" stroke-linecap="round" stroke-linejoin="round" stroke-width="1.0"/>
      <path d="M4.7 2.6 L4.05 0.85 Q5.7 0.95 22.2 4.8 L22.2 6.5 21.1 7.05 19.15 9.25 17.55 6.25 17.25 5.85 17.05 5.75 16.75 5.7 Q16.45 5.7 16.3 5.9 L13.55 8.25 12.6 5.6 12.3 5.1 12.25 5.05 11.85 4.85 11.75 4.85 11.35 5.1 11.25 5.2 9.3 6.8 8.4 4.4 8.2 3.85 Q7.9 3.5 7.55 3.5 L6.85 3.75 5.5 4.8 4.7 2.55 4.7 2.6" fill="#ffffff" fill-rule="evenodd" stroke="none"/>
    </g>
    <g id="sprite9">
      <use ffdec:characterId="18" height="26.9" transform="matrix(0.8879, 0.0, 0.0, 0.6729, 3.85, 18.2)" width="23.65" xlink:href="#sprite10"/>
      <use ffdec:characterId="19" height="10.4" transform="matrix(1.0, 0.0, 0.0, 1.0, 0.0, 0.0)" width="19.2" xlink:href="#shape10"/>
    </g>
    <g id="sprite10">
      <use ffdec:characterId="17" height="26.9" transform="matrix(1.0, 0.0, 0.0, 1.0, 0.0, 0.0)" width="23.65" xlink:href="#shape9"/>
    </g>
    <g id="shape9">
      <path d="M-2.95 -11.1 L-2.5 -15.65 -0.85 -14.7 -2.95 -11.1 M-3.1 -10.4 L-1.1 -9.85 -2.4 -5.3 0.05 -5.0 -0.5 -0.35 Q-1.8 -2.8 -2.6 -5.35 L-3.1 -10.4 M-2.4 -5.3 L-2.6 -5.35 -2.4 -5.3 M-0.75 0.0 L2.5 0.0 2.5 4.15 4.95 3.05 5.6 7.1 8.6 5.25 9.85 8.95 13.1 6.35 14.85 10.1 17.85 6.9 20.15 10.2 Q21.35 11.35 18.3 11.1 L15.2 10.8 11.2 10.35 10.6 10.2 Q9.4 10.1 7.15 9.05 4.85 7.95 2.55 5.65 0.45 3.5 -0.75 0.0" fill="#c8a6dc" fill-rule="evenodd" stroke="none"/>
      <path d="M-2.95 -11.1 L-0.85 -14.7 -2.5 -15.65 M-3.1 -10.4 L-1.1 -9.85 -2.4 -5.3 0.05 -5.0 -0.5 -0.35 M-2.6 -5.35 L-2.4 -5.3 M-0.75 0.0 L2.5 0.0 2.5 4.15 4.95 3.05 5.6 7.1 8.6 5.25 9.85 8.95 13.1 6.35 14.85 10.1 17.85 6.9 20.15 10.2" ffdec:has-small-stroke="true" ffdec:original-stroke-width="0.1" fill="none" stroke="#6f5c9e" stroke-linecap="round" stroke-linejoin="round" stroke-width="1.2937894862332373"/>
      <path d="M15.5 10.9 L18.15 8.15 20.2 11.15 15.5 10.9 M5.35 8.05 L8.55 6.35 9.7 10.05 10.85 9.35 13.2 7.5 14.8 10.75 Q12.45 10.85 9.7 10.05 7.55 9.4 5.35 8.05 3.55 7.05 2.1 5.1 L4.7 4.1 5.35 8.0 5.35 8.05" fill="#ffffff" fill-rule="evenodd" stroke="none"/>
      <path d="M-0.55 -4.45 L-0.85 -1.2 -2.45 -4.75 -0.55 -4.45 M2.1 5.1 Q0.15 2.8 -0.35 0.7 L2.1 0.7 2.1 5.1" fill="#f6e5ff" fill-rule="evenodd" stroke="none"/>
      <path d="M-1.55 -14.5 L-2.9 -12.15 -2.6 -15.0 -1.55 -14.5 M-1.7 -9.35 L-2.7 -6.55 -3.0 -9.65 -1.7 -9.35" fill="#e6c8f6" fill-rule="evenodd" stroke="none"/>
      <path d="M20.2 11.15 L15.5 10.9 M14.8 10.75 Q12.45 10.85 9.7 10.05 7.55 9.4 5.35 8.05 3.55 7.05 2.1 5.1 0.15 2.8 -0.35 0.7 M5.35 8.0 L5.35 8.05" ffdec:has-small-stroke="true" ffdec:original-stroke-width="0.1" fill="none" stroke="#a99acd" stroke-linecap="round" stroke-linejoin="round" stroke-width="1.2937894862332373"/>
    </g>
    <g id="shape10">
      <path d="M3.05 0.6 L21.95 5.1 21.95 7.45 18.9 10.9 16.8 6.75 13.2 9.8 11.8 5.95 8.85 8.2 7.55 4.6 7.55 4.55 7.5 4.6 5.1 6.3 3.05 0.6" fill="#cbc6ff" fill-rule="evenodd" stroke="none"/>
      <path d="M21.95 7.45 L18.9 10.9 16.8 6.75 13.2 9.8 11.8 5.95 8.85 8.2 7.55 4.6 M7.5 4.6 L5.1 6.3 3.05 0.6" ffdec:has-small-stroke="true" ffdec:original-stroke-width="0.1" fill="none" stroke="#53447d" stroke-linecap="round" stroke-linejoin="round" stroke-width="1.0"/>
      <path d="M4.7 2.6 L4.05 0.85 Q5.7 0.95 22.2 4.8 L22.2 6.5 21.1 7.05 19.15 9.25 17.55 6.25 17.25 5.85 17.05 5.75 16.75 5.7 Q16.45 5.7 16.3 5.9 L13.55 8.25 12.6 5.6 12.3 5.1 12.25 5.05 11.85 4.85 11.75 4.85 11.35 5.1 11.25 5.2 9.3 6.8 8.4 4.4 8.2 3.85 Q7.9 3.5 7.55 3.5 L6.85 3.75 5.5 4.8 4.7 2.55 4.7 2.6" fill="#ffffff" fill-rule="evenodd" stroke="none"/>
    </g>
    <g id="shape11">
      <path d="M45.2 47.9 L46.9 46.95 49.0 45.3 49.05 45.3 Q49.8 45.75 49.85 47.5 49.85 49.8 45.65 51.35 L45.6 51.35 45.5 51.4 45.6 51.15 45.85 50.45 45.95 49.95 Q46.2 48.8 45.2 47.9 M12.45 51.4 L12.4 51.35 12.15 51.25 11.5 51.0 11.15 50.85 11.05 50.8 10.75 50.65 10.65 50.6 10.25 50.4 10.1 50.35 9.5 50.0 9.05 49.6 9.0 49.55 8.95 49.5 8.9 49.4 Q8.3 48.65 8.2 47.65 8.05 46.5 8.6 45.65 L8.95 45.3 9.0 45.3 10.1 46.15 10.4 46.35 10.75 46.6 12.15 47.4 12.45 47.55 Q10.95 49.35 12.45 51.4 M45.2 51.5 L45.25 51.5 45.5 51.4 45.45 51.4 45.2 51.5" fill="#ed82af" fill-rule="evenodd" stroke="none"/>
      <path d="M45.15 47.9 L45.2 47.9 Q46.2 48.8 45.95 49.95 L45.85 50.45 45.6 51.15 45.5 51.4 45.25 51.5 45.2 51.5 44.65 51.7 44.6 51.7 44.05 51.9 44.35 51.8 Q29.65 56.6 12.45 51.4 10.95 49.35 12.45 47.55 28.9 53.6 45.15 47.9 M45.45 51.4 L45.5 51.4 45.45 51.4" fill="#f9bed7" fill-rule="evenodd" stroke="none"/>
      <path d="M49.85 47.5 Q49.8 45.75 49.05 45.3 M8.95 45.3 L8.6 45.65 Q8.05 46.5 8.2 47.65 8.3 48.65 8.9 49.4 L8.95 49.5 9.0 49.55 9.05 49.6 9.5 50.0 10.1 50.35 10.25 50.4 10.65 50.6 10.75 50.65 11.05 50.8 11.15 50.85 11.5 51.0 12.15 51.25 12.4 51.35 12.45 51.4 M45.65 51.35 Q49.85 49.8 49.85 47.5" ffdec:has-small-stroke="true" ffdec:original-stroke-width="0.1" fill="none" stroke="#861c49" stroke-linecap="round" stroke-linejoin="round" stroke-width="1.0"/>
      <path d="M45.2 47.9 L46.9 46.95 49.0 45.3 M49.05 45.3 L49.15 45.2 49.25 45.1 51.3 42.65 M12.45 47.55 L12.15 47.4 10.75 46.6 10.4 46.35 10.1 46.15 9.0 45.3 M8.95 45.3 L8.85 45.2 8.75 45.1 7.55 43.8 6.55 42.4 M12.45 47.55 Q28.9 53.6 45.15 47.9" ffdec:has-small-stroke="true" ffdec:original-stroke-width="0.1" fill="none" stroke="#062442" stroke-linecap="round" stroke-linejoin="round" stroke-width="1.0"/>
    </g>
    <g id="sprite11">
      <use ffdec:characterId="22" height="10.3" transform="matrix(1.0, 0.0, 0.0, 1.0, 0.0, 0.0)" width="6.35" xlink:href="#shape12"/>
    </g>
    <g id="shape12">
      <path d="M1.15 0.0 Q2.25 3.15 1.15 6.3" fill="none" stroke="#00153b" stroke-linecap="round" stroke-linejoin="round" stroke-width="4.0"/>
      <path d="M3.95 0.0 Q4.95 3.15 3.95 6.3" fill="none" stroke="#01050b" stroke-linecap="round" stroke-linejoin="round" stroke-width="2.0"/>
      <path d="M-0.15 0.0 Q0.95 3.15 -0.15 6.3" fill="none" stroke="#99b0c8" stroke-linecap="round" stroke-linejoin="round" stroke-width="1.5"/>
      <path d="M3.45 0.0 Q4.45 3.15 3.45 6.3" fill="none" stroke="#99b0c8" stroke-linecap="round" stroke-linejoin="round" stroke-width="1.0"/>
    </g>
  </defs>
</svg>
