<?xml version="1.0" encoding="UTF-8" standalone="no"?>
<svg xmlns:ffdec="https://www.free-decompiler.com/flash" xmlns:xlink="http://www.w3.org/1999/xlink" ffdec:objectType="frame" height="44.0px" width="56.3px" xmlns="http://www.w3.org/2000/svg">
  <g transform="matrix(1.0, 0.0, 0.0, 1.0, 28.35, 37.55)">
    <use ffdec:characterId="31" height="42.05" transform="matrix(1.0571, 0.0, 0.0, 1.0474, -29.8, -42.5)" width="53.3" xlink:href="#sprite0"/>
  </g>
  <defs>
    <g id="sprite0">
      <use ffdec:characterId="26" height="47.8" transform="matrix(0.8799, 0.0, 0.0, 0.8799, 1.35, 10.7)" width="30.55" xlink:href="#sprite1"/>
      <use ffdec:characterId="26" height="47.8" transform="matrix(-0.8799, 0.0, 0.0, 0.8799, 54.65, 10.7)" width="30.55" xlink:href="#sprite1"/>
      <use ffdec:characterId="28" height="18.85" transform="matrix(0.8799, 0.0, 0.0, 0.8799, 26.6, 19.5)" width="16.25" xlink:href="#sprite8"/>
      <use ffdec:characterId="30" height="18.85" transform="matrix(0.8799, 0.0, 0.0, 0.8799, 13.4, 19.5)" width="17.65" xlink:href="#sprite9"/>
      <use ffdec:characterId="10" height="10.7" transform="matrix(0.8799, 0.0, 0.0, 0.8799, 34.5, 25.45)" width="6.65" xlink:href="#sprite10"/>
      <use ffdec:characterId="12" height="5.2" transform="matrix(0.8799, 0.0, 0.0, 0.8799, 19.1, 20.7)" width="7.25" xlink:href="#sprite11"/>
    </g>
    <g id="sprite1">
      <use ffdec:characterId="18" height="19.8" transform="matrix(1.0, 0.0, 0.0, 1.0, 9.3, 21.2)" width="12.6" xlink:href="#sprite2"/>
      <use ffdec:characterId="19" height="5.9" transform="matrix(1.0, 0.0, 0.0, 1.0, 0.0, 0.0)" width="5.9" xlink:href="#shape1"/>
      <use ffdec:characterId="21" height="11.7" transform="matrix(1.0, 0.0, 0.0, 1.0, 3.55, 28.55)" width="8.0" xlink:href="#sprite3"/>
      <use ffdec:characterId="23" height="31.8" transform="matrix(1.0, 0.0, 0.0, 1.0, 0.0, 1.5)" width="30.3" xlink:href="#sprite4"/>
      <use ffdec:characterId="25" height="3.55" transform="matrix(1.0, 0.0, 0.0, 1.0, 3.7, 27.05)" width="6.2" xlink:href="#sprite5"/>
      <use ffdec:characterId="3" height="6.15" transform="matrix(1.0, 0.0, 0.0, 1.0, 5.05, 15.55)" width="12.35" xlink:href="#sprite6"/>
      <use ffdec:characterId="7" height="21.45" transform="matrix(1.0, 0.0, 0.0, 1.0, 9.45, -6.8)" width="21.1" xlink:href="#sprite7"/>
    </g>
    <g id="sprite2">
      <use ffdec:characterId="17" height="19.8" transform="matrix(1.0, 0.0, 0.0, 1.0, 0.0, 0.0)" width="12.6" xlink:href="#shape0"/>
    </g>
    <g id="shape0">
      <path d="M9.0 0.0 L12.6 2.05 Q1.7 5.8 3.2 19.8 2.3 18.35 0.15 18.7 -1.1 4.4 9.0 0.0" fill="#3d3d3d" fill-rule="evenodd" stroke="none"/>
    </g>
    <g id="shape1">
      <path d="M5.65 28.55 L9.45 26.75 9.55 26.75 11.2 25.95 11.2 30.4 11.55 30.4 11.55 30.5 11.15 31.85 5.65 28.55" fill="#737373" fill-rule="evenodd" stroke="none"/>
    </g>
    <g id="sprite3">
      <use ffdec:characterId="20" height="11.7" transform="matrix(1.0, 0.0, 0.0, 1.0, 0.0, 0.0)" width="8.0" xlink:href="#shape2"/>
    </g>
    <g id="shape2">
      <path d="M7.55 3.4 Q7.1 5.05 7.1 6.65 7.05 8.1 7.35 9.55 L7.6 10.35 8.0 11.65 Q7.5 11.3 7.05 11.25 L5.95 11.35 Q5.6 11.45 5.3 11.7 L4.4 11.2 3.55 10.3 1.15 6.35 0.05 2.65 0.0 1.5 1.2 0.4 2.1 0.0 7.6 3.3 7.55 3.4" fill="#4a4a4a" fill-rule="evenodd" stroke="none"/>
      <path d="M6.35 3.15 L7.55 3.4 Q7.1 5.05 7.1 6.65 7.05 8.1 7.35 9.55 L7.55 10.2 6.6 10.05 Q5.1 5.9 6.35 3.15" fill="#989898" fill-rule="evenodd" stroke="none"/>
      <path d="M6.6 10.05 L6.5 10.05 Q5.6 10.05 4.9 10.4 3.6 9.05 3.0 7.8 1.8 5.35 3.0 3.95 3.9 2.7 6.35 3.15 5.1 5.9 6.6 10.05" fill="#737373" fill-rule="evenodd" stroke="none"/>
    </g>
    <g id="sprite4">
      <use ffdec:characterId="22" height="31.8" transform="matrix(1.0, 0.0, 0.0, 1.0, 0.0, 0.0)" width="30.3" xlink:href="#shape3"/>
    </g>
    <g id="shape3">
      <path d="M0.1 22.6 Q-0.1 21.1 0.05 19.2 0.55 15.1 2.9 12.05 L5.5 9.35 5.9 8.4 Q7.5 4.5 11.0 2.55 14.15 0.75 18.85 0.6 L20.1 0.45 21.2 0.3 22.3 0.2 27.5 0.0 27.85 0.0 28.15 0.0 30.3 0.05 30.3 11.85 28.7 11.4 25.05 11.1 21.2 11.3 17.35 12.05 Q15.4 12.15 13.35 13.7 12.15 14.55 11.4 15.65 L11.1 16.1 11.1 15.55 Q10.2 16.55 9.6 17.9 L8.6 19.7 Q5.45 24.55 0.1 22.6" fill="#343434" fill-rule="evenodd" stroke="none"/>
      <path d="M30.3 11.85 L30.3 18.2 30.1 18.2 30.1 20.0 24.75 20.2 Q16.8 21.25 13.4 26.9 12.25 28.8 11.9 30.2 L11.15 31.0 Q8.45 32.75 7.3 30.55 L6.95 30.2 Q0.65 27.65 0.1 22.6 5.45 24.55 8.6 19.7 L9.6 17.9 Q10.2 16.55 11.1 15.55 L11.1 16.1 11.4 15.65 Q12.15 14.55 13.35 13.7 15.4 12.15 17.35 12.05 L21.2 11.3 25.05 11.1 28.7 11.4 30.3 11.85" fill="#000000" fill-rule="evenodd" stroke="none"/>
    </g>
    <g id="sprite5">
      <use ffdec:characterId="24" height="3.55" transform="matrix(1.0, 0.0, 0.0, 1.0, 0.0, 0.0)" width="6.2" xlink:href="#shape4"/>
    </g>
    <g id="shape4">
      <path d="M4.65 3.55 Q2.95 3.65 1.45 2.4 -0.05 1.1 0.0 0.0 3.05 2.6 6.2 3.15 6.35 3.4 4.65 3.55" fill="#b3b3b3" fill-rule="evenodd" stroke="none"/>
    </g>
    <g id="sprite6">
      <use ffdec:characterId="2" height="6.15" transform="matrix(1.0, 0.0, 0.0, 1.0, 0.0, 0.0)" width="12.35" xlink:href="#shape5"/>
    </g>
    <g id="shape5">
      <path d="M9.75 2.45 L9.4 3.0 Q9.15 3.15 8.85 3.35 L8.05 3.95 6.9 4.3 5.3 4.35 Q4.4 4.2 3.95 3.6 3.35 2.75 3.6 1.85 3.9 0.95 4.8 0.55 L6.05 0.2 7.5 0.05 8.15 0.05 10.65 0.15 11.8 0.05 Q12.6 -0.15 12.2 0.2 L11.1 1.05 10.7 1.55 9.75 2.45" fill="#ff003c" fill-rule="evenodd" stroke="none"/>
      <path d="M1.4 6.0 Q2.6 5.3 3.35 4.05 L5.55 0.3 Q9.05 1.15 6.3 5.55 L2.3 6.15 1.5 6.05 1.4 6.0" fill="#ffedf1" fill-rule="evenodd" stroke="none"/>
      <path d="M5.55 0.3 L3.35 4.05 Q2.6 5.3 1.4 6.0 L1.3 6.0 Q-0.3 5.65 0.05 4.25 1.25 1.75 4.0 0.7 L5.55 0.3" fill="#ffffff" fill-rule="evenodd" stroke="none"/>
    </g>
    <g id="sprite7">
      <use ffdec:characterId="6" height="21.45" transform="matrix(1.0, 0.0, 0.0, 1.0, 0.0, 0.0)" width="21.1" xlink:href="#shape6"/>
    </g>
    <g id="shape6">
      <path d="M0.3 13.85 L0.3 13.8 0.3 13.55 0.35 13.35 0.5 12.85 Q0.9 11.1 2.2 8.5 L4.15 4.5 4.95 3.0 5.1 2.75 Q6.25 0.65 7.6 0.15 L7.85 0.05 8.1 0.0 Q9.0 -0.1 10.4 0.5 11.7 1.05 12.75 1.7 L14.45 2.95 14.5 3.0 Q8.95 -0.85 5.75 3.0 L5.05 3.95 Q2.75 7.1 4.3 7.2 5.8 7.3 7.3 8.7 2.65 6.8 0.3 13.85" fill="#ffe8f2" fill-rule="evenodd" stroke="none"/>
      <path d="M14.5 3.0 L15.65 4.25 16.8 6.05 17.3 6.7 17.6 7.0 17.7 7.15 18.7 8.3 19.95 9.8 20.5 10.55 20.8 11.1 19.35 11.25 Q18.4 10.9 16.65 8.4 14.9 5.9 14.75 8.45 14.45 9.05 16.7 11.5 17.6 12.6 14.5 13.4 L9.8 13.15 Q5.55 17.35 0.15 15.1 L0.2 14.4 0.3 13.85 Q2.65 6.8 7.3 8.7 5.8 7.3 4.3 7.2 2.75 7.1 5.05 3.95 L5.75 3.0 Q8.95 -0.85 14.5 3.0" fill="#fcacd2" fill-rule="evenodd" stroke="none"/>
      <path d="M20.8 11.1 L21.1 12.5 20.95 13.65 20.9 13.8 20.2 15.75 Q19.6 16.85 18.2 17.75 17.15 18.4 14.85 19.3 10.95 20.7 8.95 21.1 5.5 21.8 2.85 21.1 1.0 20.6 0.4 19.6 L0.35 19.5 Q0.05 18.95 0.05 18.0 L0.0 17.5 0.05 16.55 0.15 15.1 Q5.55 17.35 9.8 13.15 L14.5 13.4 Q17.6 12.6 16.7 11.5 14.45 9.05 14.75 8.45 14.9 5.9 16.65 8.4 18.4 10.9 19.35 11.25 L20.8 11.1" fill="#cf4887" fill-rule="evenodd" stroke="none"/>
    </g>
    <g id="sprite8">
      <use ffdec:characterId="27" height="18.85" transform="matrix(1.0, 0.0, 0.0, 1.0, 0.0, 0.0)" width="16.25" xlink:href="#shape7"/>
    </g>
    <g id="shape7">
      <path d="M0.0 2.4 L0.0 0.5 0.55 0.4 Q13.15 -1.85 15.7 8.5 L15.75 8.65 15.9 9.5 16.1 10.4 16.05 10.35 Q13.65 1.85 4.2 2.45 L3.95 2.5 2.2 2.35 1.25 2.35 1.15 2.35 0.55 2.35 0.0 2.4" fill="#343434" fill-rule="evenodd" stroke="none"/>
      <path d="M16.05 10.35 L16.25 11.75 Q16.1 13.7 14.95 14.85 13.9 15.8 11.7 16.65 8.7 18.95 0.55 18.85 L0.0 18.85 0.0 2.4 0.55 2.35 1.15 2.35 1.25 2.35 2.2 2.35 3.95 2.5 4.2 2.45 Q13.65 1.85 16.05 10.35" fill="#000000" fill-rule="evenodd" stroke="none"/>
    </g>
    <g id="sprite9">
      <use ffdec:characterId="29" height="18.85" transform="matrix(1.0, 0.0, 0.0, 1.0, 0.0, 0.0)" width="17.65" xlink:href="#shape8"/>
    </g>
    <g id="shape8">
      <path d="M4.7 16.8 L4.75 16.7 4.8 16.75 4.1 16.0 Q2.1 13.65 2.4 10.3 2.7 7.0 5.05 4.6 8.25 2.0 12.15 2.2 L16.25 2.4 16.25 5.05 Q17.85 7.3 17.6 10.3 17.4 12.55 16.25 14.35 L16.25 18.85 15.7 18.85 8.75 18.35 Q6.8 17.95 5.55 17.3 L4.7 16.8" fill="#000000" fill-rule="evenodd" stroke="none"/>
      <path d="M4.7 16.8 L3.9 16.5 Q3.1 16.2 2.4 15.7 L1.3 14.85 Q0.15 13.7 0.0 11.75 0.2 10.0 0.55 8.5 3.1 -1.85 15.7 0.4 L16.25 0.5 16.25 2.4 12.15 2.2 Q8.25 2.0 5.05 4.6 2.7 7.0 2.4 10.3 2.1 13.65 4.1 16.0 L4.8 16.75 4.75 16.7 4.7 16.8" fill="#5e5e5e" fill-rule="evenodd" stroke="none"/>
    </g>
    <g id="sprite10">
      <use ffdec:characterId="9" height="10.7" transform="matrix(1.0, 0.0, 0.0, 1.0, 0.0, 0.0)" width="6.65" xlink:href="#shape9"/>
    </g>
    <g id="shape9">
      <path d="M2.2 9.65 L0.0 10.7 Q7.0 6.4 5.55 0.0 7.15 2.8 6.45 5.75 5.7 8.0 2.2 9.65" fill="#b3b3b3" fill-rule="evenodd" stroke="none"/>
    </g>
    <g id="sprite11">
      <use ffdec:characterId="11" height="5.2" transform="matrix(1.0, 0.0, 0.0, 1.0, 0.0, 0.0)" width="7.25" xlink:href="#shape10"/>
    </g>
    <g id="shape10">
      <path d="M7.25 2.6 Q7.25 3.7 6.15 4.45 5.1 5.2 3.6 5.2 2.1 5.2 1.05 4.45 0.0 3.7 0.0 2.6 0.0 1.55 1.05 0.75 2.1 0.0 3.6 0.0 5.1 0.0 6.15 0.75 7.25 1.55 7.25 2.6" fill="#989898" fill-rule="evenodd" stroke="none"/>
    </g>
  </defs>
</svg>
