<?xml version="1.0" encoding="UTF-8" standalone="no"?>
<svg xmlns:ffdec="https://www.free-decompiler.com/flash" xmlns:xlink="http://www.w3.org/1999/xlink" ffdec:objectType="frame" height="69.9px" width="72.2px" xmlns="http://www.w3.org/2000/svg">
  <g transform="matrix(1.0, 0.0, 0.0, 1.0, 35.85, 54.1)">
    <use ffdec:characterId="17" height="32.4" transform="matrix(1.4122, 0.0, 0.0, 1.4122, 0.8, -7.45)" width="30.4" xlink:href="#sprite0"/>
    <use ffdec:characterId="19" height="10.75" transform="matrix(1.4604, 0.0, 0.0, 1.4604, 0.55, 7.95)" width="15.9" xlink:href="#sprite1"/>
    <use ffdec:characterId="20" height="8.9" transform="matrix(1.4122, 0.0, 0.0, 1.4122, 0.35, -5.85)" width="20.0" xlink:href="#shape2"/>
    <use ffdec:characterId="22" height="34.5" transform="matrix(1.4122, 0.0, 0.0, 1.4122, 0.8, -4.85)" width="38.85" xlink:href="#sprite2"/>
    <use ffdec:characterId="24" height="19.45" transform="matrix(1.4604, 0.0, 0.0, 1.4604, 23.75, -30.3)" width="15.15" xlink:href="#sprite3"/>
    <use ffdec:characterId="24" height="19.45" transform="matrix(-1.4604, 0.0, 0.0, 1.4604, -23.25, -30.3)" width="15.15" xlink:href="#sprite3"/>
    <use ffdec:characterId="26" height="29.75" transform="matrix(1.4604, 0.0, 0.0, 1.4604, 0.2, -32.45)" width="16.65" xlink:href="#sprite4"/>
  </g>
  <defs>
    <g id="sprite0">
      <use ffdec:characterId="16" height="32.4" transform="matrix(1.0, 0.0, 0.0, 1.0, 0.0, 0.0)" width="30.4" xlink:href="#shape0"/>
    </g>
    <g id="shape0">
      <path d="M9.75 10.2 Q8.4 12.45 7.9 14.65 L7.7 15.55 5.1 16.1 -0.35 16.35 -5.8 16.1 -8.4 15.55 -8.65 14.3 Q-9.2 12.4 -10.35 10.45 L-10.35 -12.35 Q-6.95 -15.65 -2.25 -15.95 L-0.35 -16.05 1.55 -15.95 Q6.3 -15.65 9.75 -12.25 L9.75 10.2" fill="#383838" fill-rule="evenodd" stroke="none"/>
      <path d="M9.75 -12.25 L10.35 -11.65 Q13.55 -8.15 14.2 -3.6 14.85 1.0 14.85 5.45 L14.35 5.75 13.25 6.35 Q11.6 7.15 9.9 10.0 L9.75 10.2 9.75 -12.25 M-10.35 10.45 L-10.6 10.0 Q-12.3 7.15 -13.95 6.35 L-15.55 5.45 Q-15.55 1.0 -14.9 -3.6 -14.25 -8.15 -11.05 -11.65 L-10.35 -12.35 -10.35 10.45" fill="#171717" fill-rule="evenodd" stroke="none"/>
      <path d="M1.55 -15.95 Q6.75 -15.6 10.35 -11.65 13.55 -8.15 14.2 -3.6 14.85 1.0 14.85 5.45 L13.25 6.35 Q11.6 7.15 9.9 10.0 8.15 12.85 7.7 15.55 L5.1 16.1 -0.35 16.35 -5.8 16.1 -8.4 15.55 Q-8.85 12.85 -10.6 10.0 -12.3 7.15 -13.95 6.35 L-15.55 5.45 Q-15.55 1.0 -14.9 -3.6 -14.25 -8.15 -11.05 -11.65 -7.45 -15.6 -2.25 -15.95 L-0.35 -16.05 1.55 -15.95 M3.3 -14.0 L-0.35 -14.45 -4.0 -14.0 Q-6.45 -13.55 -8.4 -11.9 -11.9 -9.15 -13.25 -5.5 -14.8 -1.35 -14.65 3.05 L-14.65 4.3 Q-14.15 4.3 -13.5 5.0 -10.65 7.8 -7.55 14.55 L-7.45 14.55 -7.5 14.6 -0.35 14.9 6.8 14.6 6.75 14.55 6.85 14.55 Q9.95 7.8 12.8 5.0 13.45 4.3 13.95 4.3 L13.95 3.05 Q14.1 -1.35 12.55 -5.5 11.2 -9.15 7.7 -11.9 5.75 -13.55 3.3 -14.0" fill="#000000" fill-rule="evenodd" stroke="none"/>
    </g>
    <g id="sprite1">
      <use ffdec:characterId="18" height="10.75" transform="matrix(1.0, 0.0, 0.0, 1.0, 0.0, 0.0)" width="15.9" xlink:href="#shape1"/>
    </g>
    <g id="shape1">
      <path d="M5.65 -1.25 L5.65 5.4 -5.65 5.2 -5.65 -1.05 -4.05 -3.95 Q-0.05 -6.7 3.75 -3.95 L5.65 -1.25" fill="#9c958e" fill-rule="evenodd" stroke="none"/>
      <path d="M5.65 -1.25 L8.0 2.05 5.8 5.4 5.65 5.4 5.65 -1.25 M-5.65 5.2 L-6.1 5.2 -7.9 3.05 -5.65 -1.05 -5.65 5.2" fill="#56504a" fill-rule="evenodd" stroke="none"/>
      <path d="M5.8 5.35 L-5.85 5.35 -4.05 -3.1 Q-0.25 -5.85 3.75 -3.1 L5.8 5.35" fill="#000000" fill-rule="evenodd" stroke="none"/>
      <path d="M-3.35 -0.8 Q0.25 -2.3 3.25 -0.8 L4.1 4.65 -4.3 4.65 -3.35 -0.8" fill="#ff0000" fill-rule="evenodd" stroke="none"/>
      <path d="M-3.35 -0.8 L-3.05 -2.5 Q-0.15 -4.8 3.0 -2.35 L3.25 -0.8 Q0.25 -2.3 -3.35 -0.8" fill="#8c0000" fill-rule="evenodd" stroke="none"/>
      <path d="M3.9 4.0 L4.15 4.8 -4.35 4.8 -4.1 4.0 3.9 4.0" fill="#989898" fill-rule="evenodd" stroke="none"/>
      <path d="M-2.3 5.05 L-2.35 5.25 -2.55 5.3 -2.7 5.25 -2.8 5.05 -2.8 -3.35 -2.7 -3.5 -2.55 -3.6 -2.35 -3.5 -2.3 -3.35 -2.3 5.05 M0.0 5.05 L-0.05 5.25 -0.25 5.3 -0.4 5.25 -0.5 5.05 -0.5 -3.9 -0.4 -4.05 -0.25 -4.15 -0.05 -4.05 0.0 -3.9 0.0 5.05 M2.2 4.85 L2.15 5.05 1.95 5.1 1.8 5.05 1.7 4.85 1.7 -3.05 1.8 -3.2 1.95 -3.3 2.15 -3.2 2.2 -3.05 2.2 4.85" fill="#000000" fill-rule="evenodd" stroke="none"/>
    </g>
    <g id="shape2">
      <path d="M6.2 2.85 Q8.6 1.9 8.6 0.6 L8.6 0.55 9.95 0.55 9.95 0.6 Q9.95 2.3 6.95 3.45 L6.2 3.75 6.2 2.85 M-6.3 3.8 L-7.15 3.45 Q-10.05 2.3 -10.05 0.6 L-10.05 0.55 -8.65 0.55 -8.65 0.6 Q-8.65 1.9 -6.3 2.85 L-6.3 3.8" fill="#5b5b5b" fill-rule="evenodd" stroke="none"/>
      <path d="M6.2 2.85 L6.2 3.75 Q3.55 4.7 -0.05 4.7 -3.6 4.7 -6.3 3.8 L-6.3 2.85 -6.15 2.9 Q-3.55 3.85 0.0 3.85 3.55 3.85 6.05 2.9 L6.2 2.85" fill="#8e8e8e" fill-rule="evenodd" stroke="none"/>
      <path d="M9.95 -0.15 Q9.95 1.55 6.95 2.7 4.05 3.95 -0.05 3.95 -4.2 3.95 -7.15 2.7 -10.05 1.55 -10.05 -0.15 -10.05 -1.8 -7.15 -3.05 -4.2 -4.2 -0.05 -4.2 4.05 -4.2 6.95 -3.05 9.95 -1.8 9.95 -0.15" fill="#000000" fill-rule="evenodd" stroke="none"/>
      <path d="M4.7 -0.15 Q4.7 1.55 3.3 2.7 1.9 3.95 -0.05 3.95 -2.0 3.95 -3.4 2.7 -4.8 1.55 -4.8 -0.15 L-4.75 -0.8 4.65 -0.8 4.7 -0.15" fill="url(#gradient0)" fill-rule="evenodd" stroke="none"/>
      <path d="M9.95 -0.15 Q9.95 1.55 6.95 2.7 4.05 3.95 -0.05 3.95 -4.2 3.95 -7.15 2.7 -10.05 1.55 -10.05 -0.15 -10.05 -1.8 -7.15 -3.05 -4.2 -4.2 -0.05 -4.2 4.05 -4.2 6.95 -3.05 9.95 -1.8 9.95 -0.15 M8.6 -0.15 Q8.6 -1.5 6.05 -2.45 3.55 -3.4 0.0 -3.4 -3.55 -3.4 -6.15 -2.45 -8.65 -1.5 -8.65 -0.15 -8.65 1.2 -6.15 2.15 -3.55 3.1 0.0 3.1 3.55 3.1 6.05 2.15 8.6 1.2 8.6 -0.15" fill="#000000" fill-rule="evenodd" stroke="none"/>
      <path d="M1.1 -0.7 L0.8 0.1 -0.1 0.4 -0.9 0.1 Q-1.3 -0.25 -1.3 -0.7 L-1.3 -0.75 1.1 -0.75 1.1 -0.7 M-1.9 0.9 Q-1.15 1.6 -0.1 1.6 0.9 1.6 1.65 0.9 2.35 0.2 2.4 -0.75 L2.8 -0.75 Q2.75 0.4 2.0 1.2 1.15 2.0 -0.1 2.0 -1.3 2.0 -2.1 1.2 -2.95 0.4 -3.0 -0.75 L-2.65 -0.75 Q-2.6 0.2 -1.9 0.9" fill="#ffffff" fill-rule="evenodd" stroke="none"/>
    </g>
    <radialGradient cx="0" cy="0" gradientTransform="matrix(0.0059, 0.0, 0.0, 0.0059, -0.05, -0.1)" gradientUnits="userSpaceOnUse" id="gradient0" r="819.2" spreadMethod="pad">
      <stop offset="0.0" stop-color="#ffee00"/>
      <stop offset="0.6627450980392157" stop-color="#ff0000"/>
      <stop offset="0.9882352941176471" stop-color="#5d0000"/>
    </radialGradient>
    <g id="sprite2">
      <use ffdec:characterId="21" height="34.5" transform="matrix(1.0, 0.0, 0.0, 1.0, 0.0, 0.0)" width="38.85" xlink:href="#shape3"/>
    </g>
    <g id="shape3">
      <path d="M-13.15 12.3 L-19.75 6.35 Q-17.6 -0.05 -17.2 -6.25 -16.5 -16.9 -7.25 -20.45 L-5.85 -20.9 -3.55 -21.35 -3.55 -22.2 2.95 -22.2 2.95 -21.35 6.6 -20.45 9.45 -19.05 Q15.95 -15.1 16.55 -6.25 16.95 -0.05 19.1 6.35 L12.5 12.3 9.05 -0.85 Q6.95 -6.45 1.9 -2.25 L1.9 -1.15 -2.5 -1.15 -2.5 -2.2 Q-4.4 -3.8 -5.85 -4.0 -8.35 -4.4 -9.7 -0.85 L-13.15 12.3" fill="#e0a54c" fill-rule="evenodd" stroke="none"/>
      <path d="M-2.05 -9.3 L-1.85 -10.0 1.75 -10.0 Q2.5 -7.5 4.6 -4.35 -0.5 0.2 -4.8 -4.2 -2.8 -7.05 -2.05 -9.3" fill="#68298e" fill-rule="evenodd" stroke="none"/>
      <path d="M1.15 -17.4 L1.15 -14.5 -1.8 -14.5 -1.8 -17.4 1.15 -17.4 M1.15 -5.5 L1.15 -2.3 -1.8 -2.3 -1.8 -5.5 1.15 -5.5 M-1.8 -20.05 L-1.8 -21.05 1.15 -21.05 1.15 -20.05 -1.8 -20.05" fill="#414141" fill-rule="evenodd" stroke="none"/>
      <path d="M1.15 -14.5 L1.15 -5.5 -1.8 -5.5 -1.8 -14.5 1.15 -14.5" fill="#202020" fill-rule="evenodd" stroke="none"/>
      <path d="M1.15 -20.05 L1.15 -17.4 -1.8 -17.4 -1.8 -20.05 1.15 -20.05" fill="#808080" fill-rule="evenodd" stroke="none"/>
      <path d="M-13.7 11.8 L-14.5 11.1 -14.5 10.3 -10.3 -3.1 Q-9.15 -4.6 -7.9 -5.25 L-5.55 -5.4 Q-4.35 -4.95 -2.4 -3.1 L-2.4 -3.2 -2.3 -3.1 -2.0 -2.8 -1.75 -2.6 -1.75 -1.65 -2.6 -1.65 -2.6 -2.7 Q-4.6 -4.3 -6.1 -4.5 -8.7 -4.9 -10.1 -1.35 L-13.7 11.8 M13.85 10.3 L13.85 11.1 13.0 11.8 9.4 -1.35 Q7.25 -6.95 2.0 -2.75 L2.0 -1.65 1.4 -1.65 1.4 -2.35 1.5 -2.5 1.8 -3.1 2.05 -3.35 Q4.45 -5.45 6.25 -5.4 8.1 -5.4 9.65 -3.0 L13.85 10.3" fill="#68298e" fill-rule="evenodd" stroke="none"/>
      <path d="M14.35 -11.2 Q14.95 -8.0 13.85 -6.25 L10.5 -9.0 Q13.25 -11.25 12.2 -16.15 13.3 -14.25 14.0 -12.2 L14.35 -11.2 M-14.85 -11.2 L-14.5 -12.2 Q-13.8 -14.25 -12.7 -16.15 -13.75 -11.25 -11.0 -9.0 L-14.35 -6.25 Q-15.45 -8.0 -14.85 -11.2" fill="#68298e" fill-rule="evenodd" stroke="none"/>
      <path d="M-1.8 -21.05 L-1.8 -2.3 1.15 -2.3 1.15 -21.05 -1.8 -21.05 M13.3 10.8 L18.15 6.45 Q15.35 -4.7 12.5 -6.95 L9.45 -8.9 7.4 -9.45 9.2 -9.35 11.05 -8.75 13.4 -6.9 Q14.6 -5.6 15.55 -3.8 L14.55 -8.45 13.15 -12.8 Q11.85 -16.15 9.45 -18.05 7.15 -19.95 3.85 -20.5 L1.85 -20.75 1.8 -7.45 Q3.95 -9.05 6.05 -9.35 3.7 -8.65 1.75 -6.55 L1.65 -2.6 Q4.2 -4.95 6.0 -4.9 7.8 -4.9 9.3 -2.5 L13.3 10.8 M-13.15 12.3 L-19.75 6.35 Q-17.6 -0.05 -17.2 -6.25 -16.5 -16.9 -7.25 -20.45 L-5.85 -20.9 -3.55 -21.35 -3.55 -22.2 2.95 -22.2 2.95 -21.35 6.6 -20.45 9.45 -19.05 Q15.95 -15.1 16.55 -6.25 16.95 -0.05 19.1 6.35 L12.5 12.3 9.05 -0.85 Q6.95 -6.45 1.9 -2.25 L1.9 -1.15 -2.5 -1.15 -2.5 -2.2 Q-4.4 -3.8 -5.85 -4.0 -8.35 -4.4 -9.7 -0.85 L-13.15 12.3 M-13.95 10.8 L-9.9 -2.6 Q-8.8 -4.1 -7.6 -4.75 L-5.35 -4.9 Q-4.2 -4.45 -2.3 -2.6 L-2.4 -6.55 Q-4.0 -8.4 -6.8 -9.7 -3.4 -8.6 -2.45 -7.45 L-2.5 -20.75 -4.5 -20.5 -5.85 -20.2 Q-11.45 -18.65 -13.8 -12.8 L-15.2 -8.45 -16.2 -3.8 -14.05 -6.9 Q-12.85 -8.25 -11.2 -9.1 -9.55 -10.0 -8.75 -9.3 -10.5 -9.1 -13.15 -6.95 -16.0 -4.7 -18.8 6.45 L-13.95 10.8" fill="#000000" fill-rule="evenodd" stroke="none"/>
      <path d="M9.45 -8.75 Q11.75 -7.85 12.85 -6.2 L14.55 -3.4 11.25 -2.3 Q10.85 -4.3 9.4 -5.15 7.9 -6.05 6.1 -5.85 L4.5 -8.45 Q7.1 -9.6 9.45 -8.75" fill="#ffeb58" fill-rule="evenodd" stroke="none"/>
      <path d="M11.6 -7.9 Q13.85 -6.25 14.8 -4.35 L16.75 0.15 Q17.7 2.8 18.45 6.25 L16.8 7.6 Q15.05 -7.8 6.45 -9.2 9.35 -9.55 11.6 -7.9" fill="#ffffff" fill-rule="evenodd" stroke="none"/>
      <path d="M-9.95 -8.75 Q-12.25 -7.85 -13.35 -6.2 L-15.05 -3.4 -11.75 -2.3 Q-11.35 -4.3 -9.9 -5.15 -8.4 -6.05 -6.6 -5.85 L-5.0 -8.45 Q-7.6 -9.6 -9.95 -8.75" fill="#ffeb58" fill-rule="evenodd" stroke="none"/>
      <path d="M-12.3 -7.9 Q-14.55 -6.25 -15.5 -4.35 L-17.45 0.15 Q-18.4 2.8 -19.15 6.25 L-17.5 7.6 Q-15.75 -7.8 -7.15 -9.2 -10.05 -9.55 -12.3 -7.9" fill="#ffffff" fill-rule="evenodd" stroke="none"/>
    </g>
    <g id="sprite3">
      <use ffdec:characterId="23" height="19.45" transform="matrix(1.0, 0.0, 0.0, 1.0, 0.0, 0.0)" width="15.15" xlink:href="#shape4"/>
    </g>
    <g id="shape4">
      <path d="M-4.0 -7.45 L-1.05 -6.65 2.0 -5.7 Q3.65 -5.1 4.8 -4.2 L5.9 -3.3 6.65 -2.1 7.55 0.15 Q7.8 1.7 6.95 2.9 6.55 3.7 4.25 5.45 1.9 7.15 -0.6 8.35 L-2.25 9.15 -2.4 8.9 Q-3.8 5.65 -3.1 3.0 L-2.7 2.35 -1.75 2.1 Q0.2 1.85 1.0 1.15 1.7 0.5 1.75 -0.5 1.75 -1.55 1.1 -2.5 L0.0 -3.85 -4.0 -7.45" fill="#ffb037" fill-rule="evenodd" stroke="none"/>
      <path d="M3.5 3.1 Q6.3 1.45 5.3 -1.05 4.3 -3.6 1.9 -4.95 -0.55 -6.35 -2.65 -7.25 -0.1 -6.65 2.6 -5.35 5.3 -4.1 6.35 -1.45 7.4 1.15 5.75 2.85 4.1 4.55 1.95 5.6 L-2.9 8.0 -3.85 6.15 Q0.65 4.7 3.5 3.1" fill="#8e6629" fill-rule="evenodd" stroke="none"/>
      <path d="M-4.55 -7.75 Q-1.9 -7.15 0.8 -5.45 3.5 -3.75 4.25 -1.25 5.0 1.25 -0.05 3.65 -5.15 6.05 -3.35 4.3 L-3.45 3.8 Q-1.05 3.25 1.75 1.8 4.5 0.3 3.0 -2.25 1.5 -4.85 -1.1 -5.9 -3.7 -7.0 -4.55 -7.75" fill="#ffffff" fill-rule="evenodd" stroke="none"/>
      <path d="M-2.35 10.2 Q-3.25 10.05 -3.7 8.85 -5.4 5.1 -4.55 2.25 -4.3 1.5 -3.8 1.15 L-1.95 0.9 Q-0.65 0.7 0.05 0.15 0.8 -0.65 0.4 -1.7 L-0.6 -3.05 -3.95 -6.25 -6.15 -8.25 -6.45 -8.8 Q-6.6 -9.2 -6.3 -9.2 L-5.7 -9.05 -2.5 -7.85 0.75 -6.95 Q4.75 -5.6 6.65 -3.55 L7.9 -1.6 Q8.75 0.15 8.65 1.4 8.55 3.3 6.65 5.0 L2.75 7.7 Q1.35 8.4 -1.5 10.0 L-2.35 10.2 M-4.0 -7.45 L0.0 -3.85 1.1 -2.5 Q1.75 -1.55 1.75 -0.5 1.7 0.5 1.0 1.15 0.2 1.85 -1.75 2.1 L-2.7 2.35 -3.1 3.0 Q-3.8 5.65 -2.4 8.9 L-2.25 9.15 -0.6 8.35 Q1.9 7.15 4.25 5.45 6.55 3.7 6.95 2.9 7.8 1.7 7.55 0.15 L6.65 -2.1 5.9 -3.3 4.8 -4.2 Q3.65 -5.1 2.0 -5.7 L-1.05 -6.65 -4.0 -7.45" fill="#000000" fill-rule="evenodd" stroke="none"/>
    </g>
    <g id="sprite4">
      <use ffdec:characterId="25" height="29.75" transform="matrix(1.0, 0.0, 0.0, 1.0, 0.0, 0.0)" width="16.65" xlink:href="#shape5"/>
    </g>
    <g id="shape5">
      <path d="M1.0 -7.35 L-1.25 -7.35 -1.25 -14.5 -0.4 -14.55 -0.25 -14.55 -0.05 -14.55 0.4 -14.55 1.0 -14.5 1.0 -7.35" fill="#ffffff" fill-rule="evenodd" stroke="none"/>
      <path d="M5.9 -12.55 L6.1 -12.45 Q7.4 -11.4 7.85 -10.1 L7.95 -7.25 6.15 -7.15 6.2 -9.45 5.9 -12.55 M-6.85 -7.45 L-8.25 -7.45 -8.25 -10.1 Q-7.95 -11.35 -6.65 -12.35 L-6.7 -9.3 -6.85 -7.45" fill="#aa4700" fill-rule="evenodd" stroke="none"/>
      <path d="M1.0 -14.5 L2.05 -14.3 2.45 -14.2 2.45 -7.35 1.0 -7.35 1.0 -14.5 M-1.25 -7.35 L-3.1 -7.4 -3.1 -14.1 -2.75 -14.2 -2.4 -14.3 -2.15 -14.35 -2.1 -14.35 -1.95 -14.35 -1.45 -14.45 -1.25 -14.5 -1.25 -7.35" fill="#fffd3f" fill-rule="evenodd" stroke="none"/>
      <path d="M2.45 -14.2 L3.3 -13.95 4.7 -13.3 5.85 -12.6 5.9 -12.55 6.2 -9.45 6.15 -7.15 2.45 -7.35 2.45 -14.2 M-3.1 -7.4 L-6.85 -7.45 -6.7 -9.3 -6.65 -12.35 -6.3 -12.6 -5.25 -13.25 -5.2 -13.25 -4.5 -13.6 -4.2 -13.7 -3.25 -14.05 -3.1 -14.1 -3.1 -7.4" fill="#ffc400" fill-rule="evenodd" stroke="none"/>
      <path d="M7.9 5.05 L7.85 10.15 Q7.15 12.1 4.7 13.4 2.4 14.6 -0.05 14.65 L-0.25 14.65 Q-2.75 14.6 -5.2 13.35 -7.85 12.0 -8.25 10.15 L-8.2 2.35 -8.2 1.75 -8.25 -7.5 -5.35 -5.25 -2.05 -2.4 1.25 0.05 Q3.1 1.25 4.75 2.6 L7.9 5.05" fill="#ffae00" fill-rule="evenodd" stroke="none"/>
      <path d="M-8.25 -7.5 L-8.25 -7.85 Q-7.85 -9.65 -5.2 -11.0 -2.75 -12.25 -0.25 -12.3 L-0.05 -12.3 Q2.4 -12.25 4.7 -11.05 7.15 -9.75 7.85 -7.85 L7.85 -6.95 7.9 -0.05 7.9 5.05 4.75 2.6 Q3.1 1.25 1.25 0.05 L-2.05 -2.4 -5.35 -5.25 -8.25 -7.5" fill="#fffc00" fill-rule="evenodd" stroke="none"/>
      <path d="M-8.05 -7.85 Q-7.65 -9.65 -5.05 -11.05 -2.7 -12.3 -0.25 -12.35 L-0.05 -12.35 Q2.35 -12.3 4.6 -11.1 7.0 -9.8 7.65 -7.85" ffdec:has-small-stroke="true" ffdec:original-stroke-width="0.5" fill="none" stroke="#ffffff" stroke-linecap="butt" stroke-linejoin="round" stroke-width="0.6847208291541291"/>
      <path d="M7.7 1.1 Q7.8 8.85 7.35 10.6 7.05 9.5 7.0 5.45 L7.0 1.1 7.0 -3.85 6.9 -6.35 Q6.9 -7.8 7.35 -8.75 L7.7 -7.5 7.7 -6.3 7.7 1.1" fill="#ffffff" fill-rule="evenodd" stroke="none"/>
      <path d="M-7.3 1.1 Q-7.2 8.85 -7.65 10.6 L-8.0 5.45 -8.0 1.1 -8.0 -3.85 -8.1 -6.35 Q-8.1 -7.8 -7.65 -8.75 -7.35 -8.3 -7.3 -7.5 L-7.3 -6.3 -7.3 1.1" fill="#ffffff" fill-rule="evenodd" stroke="none"/>
      <path d="M-8.25 -10.1 Q-7.8 -11.9 -5.2 -13.3 -2.75 -14.55 -0.25 -14.6 L-0.05 -14.6 Q2.4 -14.55 4.7 -13.35 7.2 -12.05 7.9 -10.1 L7.9 -7.85 7.9 -7.25 7.9 -6.95 7.9 -0.05 7.9 10.15 Q7.2 12.1 4.7 13.4 2.4 14.55 -0.05 14.65 L-0.25 14.65 Q-2.75 14.55 -5.2 13.3 -7.8 11.95 -8.25 10.15 L-8.2 2.35 -8.2 1.75 -8.25 -7.5 -8.25 -7.85 -8.25 -10.1 Z" ffdec:has-small-stroke="true" ffdec:original-stroke-width="0.5" fill="none" stroke="#000000" stroke-linecap="butt" stroke-linejoin="round" stroke-width="0.6847208291541291"/>
      <path d="M-0.4 -10.4 Q3.55 -9.35 4.6 -8.35 5.6 -7.3 5.35 -3.4 5.1 0.5 5.3 4.7 5.45 8.9 4.35 10.65 3.2 12.35 -0.1 11.9 -3.45 11.45 -5.0 9.6 -5.55 8.85 -5.5 7.8 L-5.25 4.9 -5.15 -7.95 Q-3.15 -9.9 -0.4 -10.4" fill="#fef66c" fill-rule="evenodd" stroke="none"/>
      <path d="M-3.8 -8.05 L3.55 -8.05 3.55 6.9 -3.8 6.9 -3.8 -8.05" fill="#fffde7" fill-rule="evenodd" stroke="none"/>
      <path d="M-0.65 0.3 L0.05 1.1 0.75 1.9 -5.35 1.9 Q-5.9 1.9 -5.9 1.1 -5.9 0.4 -5.35 0.3 L-0.65 0.3 M-4.2 -4.6 L-5.35 -4.6 Q-5.9 -4.6 -5.9 -5.4 -5.9 -6.05 -5.4 -6.2 L-4.2 -4.6 M-2.1 -1.6 L-5.35 -1.6 Q-5.9 -1.6 -5.9 -2.4 -5.9 -3.1 -5.35 -3.2 L-3.2 -3.2 -2.95 -2.75 -2.1 -1.6 M4.2 5.45 L-5.35 5.45 Q-5.9 5.45 -5.9 4.7 -5.9 4.0 -5.35 3.9 L2.75 3.9 3.0 4.15 3.55 4.6 3.9 5.15 4.2 5.45 M-5.35 7.2 L5.0 7.2 Q5.5 7.3 5.5 7.95 5.3 8.8 5.0 8.75 L-5.35 8.75 Q-5.9 8.75 -5.9 7.95 -5.9 7.3 -5.35 7.2" fill="#ffae00" fill-rule="evenodd" stroke="none"/>
      <path d="M0.75 1.9 L0.05 1.1 -0.65 0.3 5.0 0.3 Q5.5 0.45 5.5 1.1 5.3 1.9 5.0 1.9 L0.75 1.9 M-5.4 -6.2 L5.0 -6.2 Q5.5 -6.05 5.5 -5.4 5.3 -4.6 5.0 -4.6 L-4.2 -4.6 -5.4 -6.2 M-3.2 -3.2 L5.0 -3.2 Q5.5 -3.05 5.5 -2.4 5.3 -1.55 5.0 -1.6 L-2.1 -1.6 -2.95 -2.75 -3.2 -3.2 M2.75 3.9 L5.0 3.9 Q5.5 4.0 5.5 4.7 5.3 5.5 5.0 5.45 L4.2 5.45 3.9 5.15 3.55 4.6 3.0 4.15 2.75 3.9" fill="#ffd000" fill-rule="evenodd" stroke="none"/>
      <path d="M1.85 -9.85 Q2.85 -9.65 3.95 -8.85 L5.25 -7.85 5.3 9.35 Q4.7 10.65 4.0 11.0 L2.75 11.6 1.95 11.85 M-2.0 -9.85 Q-3.05 -9.65 -4.15 -8.85 L-5.45 -7.85 -5.5 9.35 Q-4.9 10.65 -4.2 11.0 L-2.95 11.6 -2.15 11.85" fill="none" stroke="#8f6018" stroke-linecap="butt" stroke-linejoin="round" stroke-width="1.0"/>
      <path d="M3.8 -5.35 L3.8 -5.3 2.2 -4.95 -0.25 -4.7 -2.85 -4.95 -4.15 -5.05 -4.2 -5.05 Q-3.7 -5.6 -0.2 -5.75 L3.8 -5.35 M3.8 -2.4 L3.8 -2.3 2.2 -2.0 -0.25 -1.75 -2.85 -2.0 -4.15 -2.05 -4.2 -2.1 Q-3.7 -2.65 -0.2 -2.8 L3.8 -2.4 M3.8 1.0 L3.8 1.05 2.2 1.4 -0.25 1.65 -2.85 1.4 -4.15 1.3 -4.2 1.25 Q-3.7 0.75 -0.2 0.55 3.3 0.45 3.8 1.0 M3.8 4.35 L3.8 4.45 2.2 4.75 -0.25 5.0 -2.85 4.75 -4.15 4.7 -4.2 4.65 Q-3.7 4.1 -0.2 3.95 3.3 3.8 3.8 4.35 M3.8 7.75 L3.8 7.85 2.2 8.2 -0.25 8.45 -2.85 8.2 -4.15 8.1 -4.2 8.05 Q-3.7 7.5 -0.2 7.35 L3.8 7.75" fill="#c28600" fill-rule="evenodd" stroke="none"/>
    </g>
  </defs>
</svg>
