<?xml version="1.0" encoding="UTF-8" standalone="no"?>
<svg xmlns:ffdec="https://www.free-decompiler.com/flash" xmlns:xlink="http://www.w3.org/1999/xlink" ffdec:objectType="frame" height="61.35px" width="64.3px" xmlns="http://www.w3.org/2000/svg">
  <g transform="matrix(1.0, 0.0, 0.0, 1.0, 30.3, 44.2)">
    <use ffdec:characterId="2" height="50.0" transform="matrix(1.0, 0.0, 0.0, 1.0, 0.25, -8.75)" width="64.3" xlink:href="#sprite0"/>
    <use ffdec:characterId="4" height="8.5" transform="matrix(1.0, 0.0, 0.0, 1.0, -15.05, -9.0)" width="26.2" xlink:href="#sprite1"/>
    <use ffdec:characterId="4" height="8.5" transform="matrix(-1.0, 0.0, 0.0, 1.0, 13.35, -9.0)" width="26.2" xlink:href="#sprite1"/>
    <use ffdec:characterId="21" height="45.75" transform="matrix(1.0, 0.0, 0.0, 1.0, -0.1, -9.0)" width="47.95" xlink:href="#sprite2"/>
    <use ffdec:characterId="8" height="19.0" transform="matrix(-1.0, 0.0, 0.0, 1.0, 18.25, -0.45)" width="14.15" xlink:href="#sprite3"/>
    <use ffdec:characterId="14" height="23.0" transform="matrix(1.0, 0.0, 0.0, 1.0, -13.0, -14.7)" width="20.45" xlink:href="#sprite4"/>
    <use ffdec:characterId="23" height="17.85" transform="matrix(1.0, 0.0, 0.0, 1.0, -0.25, -35.3)" width="11.6" xlink:href="#sprite5"/>
    <use ffdec:characterId="25" height="15.4" transform="matrix(1.0, 0.0, 0.0, 1.0, -0.05, -1.9)" width="20.35" xlink:href="#sprite6"/>
    <use ffdec:characterId="10" height="10.0" transform="matrix(1.0, 0.0, 0.0, 1.0, 0.15, 12.15)" width="31.55" xlink:href="#sprite7"/>
    <use ffdec:characterId="8" height="19.0" transform="matrix(1.0, 0.0, 0.0, 1.0, -18.85, -0.05)" width="14.15" xlink:href="#sprite3"/>
    <use ffdec:characterId="12" height="7.4" transform="matrix(1.0, 0.0, 0.0, 1.0, -0.25, 8.25)" width="34.6" xlink:href="#sprite8"/>
    <use ffdec:characterId="14" height="23.0" transform="matrix(-1.0, 0.0, 0.0, 1.0, 12.4, -15.1)" width="20.45" xlink:href="#sprite4"/>
  </g>
  <defs>
    <g id="sprite0">
      <use ffdec:characterId="1" height="50.0" transform="matrix(1.0, 0.0, 0.0, 1.0, 0.0, 0.0)" width="64.3" xlink:href="#shape0"/>
    </g>
    <g id="shape0">
      <path d="M21.4 5.1 Q21.75 11.05 21.15 13.7 20.6 16.35 19.75 18.0 L17.55 21.5 17.75 19.3 Q17.95 16.6 17.75 15.6 L14.5 19.15 9.8 23.45 9.25 23.65 Q8.7 23.65 8.65 23.25 L8.65 22.8 Q8.65 21.5 9.25 20.05 L9.25 18.75 Q7.75 20.1 3.5 23.05 L3.2 23.15 1.7 20.65 1.75 23.45 1.75 23.9 1.45 23.95 Q-1.05 23.95 -4.7 21.2 L-5.4 20.6 Q-6.85 19.45 -7.75 19.35 L-7.5 19.95 -7.35 20.35 -6.75 22.05 Q-6.75 22.8 -7.4 22.8 -9.4 22.8 -12.35 20.1 L-14.6 17.75 -14.25 20.55 -14.05 21.85 Q-13.85 22.85 -14.8 23.1 -15.4 23.25 -16.15 21.9 L-16.1 13.8 -14.45 15.55 -9.05 20.1 -9.0 15.9 -7.35 17.45 Q-4.9 19.65 -1.7 21.2 L-2.35 18.4 -0.3 20.7 -0.25 16.25 0.95 17.35 2.75 19.95 3.4 21.3 7.95 17.55 7.85 18.55 9.95 17.0 10.55 20.95 11.6 20.2 15.4 16.85 Q16.8 15.35 17.8 13.65 L18.85 16.35 19.35 12.25 19.9 14.55 20.05 12.45 Q20.25 9.45 18.35 7.3 L17.0 5.85 18.9 5.2 20.7 4.8 21.4 5.1" fill="#8e8696" fill-rule="evenodd" stroke="none"/>
      <path d="M-16.15 21.9 Q-18.75 17.3 -18.6 12.1 -18.4 6.25 -13.05 3.6 -7.4 0.65 -0.85 0.25 4.8 -0.2 10.45 0.5 16.5 1.0 21.4 4.6 L21.4 5.1 20.7 4.8 18.9 5.2 17.0 5.85 18.35 7.3 Q20.25 9.45 20.05 12.45 L19.9 14.55 19.35 12.25 18.85 16.35 17.8 13.65 Q16.8 15.35 15.4 16.85 L11.6 20.2 10.55 20.95 9.95 17.0 7.85 18.55 7.95 17.55 3.4 21.3 2.75 19.95 0.95 17.35 -0.25 16.25 -0.3 20.7 -2.35 18.4 -1.7 21.2 Q-4.9 19.65 -7.35 17.45 L-9.0 15.9 -9.05 20.1 -14.45 15.55 -16.1 13.8 -16.15 21.9" fill="#d5cfdb" fill-rule="evenodd" stroke="none"/>
      <path d="M20.65 -16.7 Q25.0 -13.95 25.0 -13.45 L25.0 -13.35 22.2 -13.3 19.6 -13.15 18.45 -12.65 5.35 -16.55 Q7.7 -16.95 10.2 -16.55 L22.05 -15.35 20.65 -16.7 M28.9 -6.15 L29.35 -5.65 Q29.35 -5.25 27.45 -4.6 L23.4 -3.85 23.45 -3.3 Q23.9 -1.3 24.85 0.95 L23.85 0.25 Q19.7 -3.2 19.2 -8.75 L20.35 -8.0 Q24.3 -5.65 28.9 -6.15 M-24.6 -10.15 L-24.6 -10.2 -23.45 -11.35 Q-22.3 -11.95 -21.2 -12.15 L-21.1 -12.15 -21.3 -13.55 Q-21.3 -15.25 -20.85 -16.1 L-20.4 -16.75 Q-19.7 -13.85 -17.3 -11.9 L-15.45 -10.4 -24.6 -10.15 M3.65 -22.6 L4.55 -22.75 4.85 -22.9 1.55 -19.85 Q-3.0 -19.15 -7.3 -17.35 L-5.95 -18.4 Q-1.35 -21.9 4.4 -22.6 L3.65 -22.6" fill="#c0b8c7" fill-rule="evenodd" stroke="none"/>
      <path d="M18.45 -12.65 L28.9 -6.15 Q24.3 -5.65 20.35 -8.0 L19.2 -8.75 Q19.7 -3.2 23.85 0.25 L24.85 0.95 Q27.6 2.8 30.85 3.6 L32.45 3.8 Q27.05 5.45 21.6 3.9 16.35 2.6 13.65 -2.3 L13.7 1.75 12.1 -2.7 Q11.45 3.05 14.7 8.0 L16.8 10.05 Q17.85 10.8 19.1 11.35 13.25 10.2 10.15 5.25 L9.35 4.05 Q7.8 7.15 9.2 10.25 9.85 11.65 11.05 12.45 L8.75 11.7 7.55 11.2 Q9.35 13.1 11.75 14.2 5.8 12.85 1.85 7.9 L0.15 5.6 Q1.2 8.6 3.1 11.55 -3.75 7.05 -5.55 -0.8 -9.3 4.75 -8.25 11.35 -7.95 13.35 -6.95 15.2 L-11.55 12.65 Q-13.25 9.7 -13.8 6.35 L-14.5 0.05 Q-17.95 3.45 -19.45 8.2 -21.15 13.45 -20.75 19.0 L-23.5 15.0 -23.75 12.25 Q-24.15 8.7 -23.6 5.25 -22.85 0.0 -20.75 -5.15 L-21.4 -4.05 Q-24.15 0.5 -28.1 4.25 L-25.9 -3.6 Q-24.6 -7.9 -24.6 -10.15 L-15.45 -10.4 -17.3 -11.9 Q-19.7 -13.85 -20.4 -16.75 L-14.3 -15.4 -13.0 -15.0 Q-14.55 -20.7 -10.55 -22.1 -6.45 -23.55 -3.3 -23.45 L3.65 -22.6 4.4 -22.6 Q-1.35 -21.9 -5.95 -18.4 L-7.3 -17.35 Q-3.0 -19.15 1.55 -19.85 L0.95 -19.45 Q7.1 -20.15 13.3 -19.2 17.05 -18.5 20.65 -16.7 L22.05 -15.35 10.2 -16.55 Q7.7 -16.95 5.35 -16.55 L18.45 -12.65" fill="#f8f1ff" fill-rule="evenodd" stroke="none"/>
      <path d="M32.45 3.8 Q32.7 3.95 31.65 4.4 L28.55 6.3 Q26.5 7.7 22.2 7.8 17.85 7.9 13.7 5.9 13.85 6.65 14.7 8.0 11.45 3.05 12.1 -2.7 L13.7 1.75 13.65 -2.3 Q16.35 2.6 21.6 3.9 27.05 5.45 32.45 3.8 M19.1 11.35 L19.9 11.5 Q20.8 11.45 20.35 11.6 L17.65 12.05 Q15.4 12.3 12.7 11.05 L9.7 9.65 Q9.9 10.55 10.6 11.1 L12.0 11.9 12.8 12.35 12.05 12.4 11.8 12.4 11.05 12.45 Q9.85 11.65 9.2 10.25 7.8 7.15 9.35 4.05 L10.15 5.25 Q13.25 10.2 19.1 11.35 M11.75 14.2 L13.1 14.95 Q13.1 16.05 9.5 16.05 3.9 16.05 -1.2 13.15 -6.35 10.2 -7.3 6.3 L-7.35 6.3 -7.75 8.4 -7.8 9.95 Q-7.8 11.5 -7.1 12.9 L-6.0 14.85 Q-5.5 15.4 -6.8 15.25 L-6.95 15.2 Q-7.95 13.35 -8.25 11.35 -9.3 4.75 -5.55 -0.8 -3.75 7.05 3.1 11.55 1.2 8.6 0.15 5.6 L1.85 7.9 Q5.8 12.85 11.75 14.2 M-11.55 12.65 L-14.2 9.5 -15.25 7.65 -17.05 11.85 -18.25 16.05 Q-18.7 17.8 -19.25 18.55 -19.75 19.15 -20.3 19.1 L-20.75 19.0 Q-21.15 13.45 -19.45 8.2 -17.95 3.45 -14.5 0.05 L-13.8 6.35 Q-13.25 9.7 -11.55 12.65 M-23.5 15.0 L-24.5 11.25 -25.05 6.65 -24.9 3.95 Q-26.45 5.75 -27.75 5.75 -28.3 5.75 -28.3 5.05 L-28.15 4.35 -28.1 4.25 Q-24.15 0.5 -21.4 -4.05 L-20.75 -5.15 Q-22.85 0.0 -23.6 5.25 -24.15 8.7 -23.75 12.25 L-23.5 15.0" fill="#8e8696" fill-rule="evenodd" stroke="none"/>
      <path d="M-16.7 25.3 L-16.2 24.95 Q-17.7 26.2 -16.7 25.3 M17.25 -12.8 L15.75 -12.7 Q19.5 -14.4 23.75 -14.1 20.0 -17.0 15.5 -18.45 L11.6 -19.2 Q4.8 -20.45 -1.6 -18.55 L3.55 -22.4 -3.25 -22.85 -8.0 -23.0 Q-10.8 -22.4 -12.3 -19.9 -12.75 -19.15 -12.7 -18.3 -12.45 -15.5 -13.0 -13.9 L-13.5 -14.1 Q-16.6 -16.5 -20.35 -16.7 -17.5 -18.35 -13.95 -15.8 -15.15 -19.05 -12.65 -21.4 -8.2 -25.45 -1.95 -23.8 2.25 -22.75 6.4 -24.15 L4.65 -22.1 2.7 -20.55 8.1 -20.45 Q12.75 -20.4 17.05 -19.0 22.05 -17.6 25.05 -13.3 L19.5 -13.0 Q21.6 -12.0 23.2 -10.3 L24.75 -8.85 Q27.7 -6.85 31.1 -6.35 L30.25 -5.8 Q27.2 -4.2 23.65 -3.7 L24.6 -1.8 Q25.3 -0.55 26.5 0.3 29.75 2.6 33.75 3.25 31.45 5.1 28.8 6.55 25.65 8.35 22.05 8.0 22.0 11.5 21.25 14.95 20.25 19.7 16.6 22.85 L17.05 16.55 11.15 22.75 Q9.45 24.3 7.15 23.95 L7.65 22.45 8.45 19.7 6.55 21.2 Q4.6 22.7 2.7 23.3 L1.95 22.15 1.85 23.9 -0.25 24.05 Q-4.0 22.5 -7.15 19.85 L-6.45 21.5 -6.55 21.9 -6.7 22.3 -6.95 22.65 -7.15 23.0 -8.25 22.85 Q-11.45 21.6 -14.3 19.65 -14.1 20.05 -13.65 24.4 L-16.9 21.5 Q-17.8 20.3 -18.6 17.6 L-20.25 19.95 -20.35 19.9 Q-23.55 18.05 -24.55 14.45 -25.8 9.85 -25.85 5.0 L-28.65 6.35 Q-30.35 7.2 -30.55 6.2 L-29.7 4.95 Q-28.15 2.05 -27.1 -0.9 -25.9 -4.35 -25.9 -8.0 -25.95 -12.1 -22.0 -12.85 L-21.95 -14.45 Q-21.8 -15.65 -21.1 -16.2 L-20.35 -16.7 -20.7 -16.2 Q-20.6 -13.65 -19.4 -11.6 L-19.95 -11.55 -20.8 -12.0 -23.45 -11.05 Q-23.95 -10.75 -24.0 -10.15 -24.55 -5.55 -26.35 -1.15 -27.8 2.35 -27.8 4.8 -26.35 4.4 -25.55 3.2 L-23.95 1.0 Q-24.6 2.85 -24.7 5.0 -24.9 8.3 -24.4 11.5 -23.7 15.8 -20.6 18.3 L-20.15 18.2 -19.75 17.55 Q-18.7 14.5 -18.55 11.55 -17.8 17.35 -16.7 19.2 -15.7 21.05 -14.5 22.2 L-14.95 17.15 Q-12.2 21.35 -7.65 21.85 L-8.5 18.15 Q-6.95 19.0 -5.65 20.2 -2.85 22.7 0.95 23.15 L1.35 20.1 3.1 22.2 Q6.95 19.65 10.1 16.6 10.2 19.9 8.85 22.9 13.45 19.3 17.4 14.8 L17.7 15.2 Q18.45 17.7 17.65 20.5 21.2 14.35 20.7 7.25 L20.1 6.5 22.95 6.9 Q28.1 7.1 31.9 3.9 27.7 3.5 24.25 1.1 22.35 -3.0 22.0 -7.5 L22.95 -4.75 Q25.9 -4.65 28.6 -5.9 L25.8 -7.05 25.0 -7.55 Q21.85 -11.45 17.25 -12.8" fill="#353138" fill-rule="evenodd" stroke="none"/>
    </g>
    <g id="sprite1">
      <use ffdec:characterId="3" height="8.5" transform="matrix(1.0, 0.0, 0.0, 1.0, 0.0, 0.0)" width="26.2" xlink:href="#shape1"/>
    </g>
    <g id="shape1">
      <path d="M-10.65 -1.6 L-10.6 -1.75 -10.55 -2.4 -10.4 -3.8 -8.4 -3.05 -1.8 0.0 4.85 1.45 5.2 1.55 5.0 2.2 4.65 3.2 4.65 3.35 4.55 3.6 0.3 3.0 Q-3.9 2.45 -8.05 0.1 L-10.65 -1.6 M-8.05 -1.55 Q-7.65 -0.95 -5.95 0.15 -4.1 1.35 -3.15 1.35 -2.4 1.35 -2.4 0.7 -2.4 0.35 -4.95 -0.65 -7.4 -1.65 -7.95 -1.65 L-8.05 -1.55" fill="#ce0000" fill-rule="evenodd" stroke="none"/>
      <path d="M-10.65 -1.6 L-11.65 -2.6 Q-11.95 -3.05 -11.85 -3.4 L-11.85 -3.5 Q-11.6 -4.1 -10.4 -3.8 L-10.55 -2.4 -10.6 -1.75 -10.65 -1.6 M5.2 1.55 L11.75 2.3 Q13.85 2.45 13.85 3.25 13.85 4.45 11.1 4.2 L8.5 4.2 7.75 4.1 6.8 3.95 4.55 3.6 4.65 3.35 4.65 3.2 5.0 2.2 5.2 1.55" fill="#730404" fill-rule="evenodd" stroke="none"/>
      <path d="M-8.05 -1.55 L-7.95 -1.65 Q-7.4 -1.65 -4.95 -0.65 -2.4 0.35 -2.4 0.7 -2.4 1.35 -3.15 1.35 -4.1 1.35 -5.95 0.15 -7.65 -0.95 -8.05 -1.55" fill="#ffbaba" fill-rule="evenodd" stroke="none"/>
      <path d="M-9.6 -3.6 Q-4.05 -0.7 1.5 0.55 L12.0 2.1 1.3 1.45 Q-3.9 0.4 -8.45 -2.75 L-9.6 -3.6 M-11.4 -3.1 Q-6.25 1.85 2.0 3.0 L12.35 4.2 1.35 3.65 Q-3.2 2.7 -7.35 0.7 -10.2 -0.65 -12.35 -3.1 L-12.05 -3.9 -9.7 -4.25 -11.4 -3.1" fill="#000000" fill-rule="evenodd" stroke="none"/>
    </g>
    <g id="sprite2">
      <use ffdec:characterId="20" height="45.75" transform="matrix(1.0, 0.0, 0.0, 1.0, 0.0, 0.0)" width="47.95" xlink:href="#shape2"/>
    </g>
    <g id="shape2">
      <path d="M20.6 -1.35 L20.3 0.8 20.95 1.6 21.4 2.25 21.2 5.5 Q20.8 7.95 18.05 7.9 15.25 7.85 14.25 6.55 12.85 5.05 13.7 2.7 15.25 -1.5 19.75 -1.45 L20.6 -1.35 M-22.3 4.4 L-22.0 3.45 -21.45 1.85 Q-18.3 1.0 -15.45 1.3 -12.55 1.55 -12.85 4.7 -13.15 7.85 -13.7 8.3 -14.3 8.7 -16.1 8.9 -17.9 9.05 -19.9 8.0 -21.9 6.9 -22.3 4.4 M-10.4 -21.8 Q-8.3 -23.05 -5.85 -23.6 L-5.6 -23.65 Q-1.2 -24.7 2.85 -24.35 5.3 -24.15 7.9 -23.1 L8.2 -22.95 Q11.75 -20.55 10.6 -17.4 9.45 -14.3 4.95 -12.05 0.45 -9.85 -5.15 -11.65 -10.8 -13.5 -11.85 -16.7 -12.85 -19.95 -10.4 -21.8 M4.45 -20.4 L4.2 -20.75 Q3.15 -21.6 -0.65 -21.85 -3.8 -21.2 -4.65 -20.6 L-5.25 -19.9 Q-5.95 -19.5 -5.95 -18.3 -5.95 -17.25 -4.4 -16.5 -2.65 -15.65 0.4 -15.65 2.95 -15.65 4.35 -16.9 5.4 -17.8 5.4 -18.8 5.4 -19.95 4.45 -20.4 M-8.25 -19.15 Q-7.8 -19.7 -7.8 -20.0 -7.8 -21.45 -9.05 -20.4 -10.3 -19.35 -10.3 -18.0 -10.3 -17.2 -9.25 -16.1 -7.95 -14.75 -6.25 -14.75 L-5.55 -14.95 -5.1 -15.3 -7.1 -16.65 Q-8.7 -17.65 -8.7 -18.05 L-8.25 -19.15" fill="#ce0000" fill-rule="evenodd" stroke="none"/>
      <path d="M8.2 -22.95 L11.7 -21.2 Q14.8 -19.3 16.65 -16.75 L17.4 -15.45 18.05 -14.05 18.75 -12.2 18.8 -12.0 Q19.9 -8.7 20.3 -5.3 L20.4 -4.35 20.6 -1.35 19.75 -1.45 Q15.25 -1.5 13.7 2.7 12.85 5.05 14.25 6.55 15.25 7.85 18.05 7.9 20.8 7.95 21.2 5.5 L21.4 2.25 Q23.5 5.6 22.15 9.25 L21.8 9.45 Q20.75 10.15 19.5 10.35 15.85 10.6 12.9 8.5 14.3 13.25 18.95 14.8 L18.4 15.6 16.15 18.5 Q-0.4 23.6 -15.5 18.5 L-16.75 16.35 -16.9 16.1 Q-13.6 13.45 -12.0 9.5 -13.4 10.4 -15.15 11.0 L-19.9 10.85 Q-21.9 10.0 -22.75 8.35 -23.0 6.65 -22.3 4.4 -21.9 6.9 -19.9 8.0 -17.9 9.05 -16.1 8.9 -14.3 8.7 -13.7 8.3 -13.15 7.85 -12.85 4.7 -12.55 1.55 -15.45 1.3 -18.3 1.0 -21.45 1.85 -20.45 -1.15 -19.75 -4.35 L-19.2 -7.1 -19.0 -8.25 -18.95 -8.7 -18.4 -11.35 Q-17.25 -15.65 -14.3 -18.65 L-13.85 -19.15 -10.4 -21.8 Q-12.85 -19.95 -11.85 -16.7 -10.8 -13.5 -5.15 -11.65 0.45 -9.85 4.95 -12.05 9.45 -14.3 10.6 -17.4 11.75 -20.55 8.2 -22.95 M4.45 -20.4 Q5.4 -19.95 5.4 -18.8 5.4 -17.8 4.35 -16.9 2.95 -15.65 0.4 -15.65 -2.65 -15.65 -4.4 -16.5 -5.95 -17.25 -5.95 -18.3 -5.95 -19.5 -5.25 -19.9 L-4.65 -20.6 Q-3.8 -21.2 -0.65 -21.85 3.15 -21.6 4.2 -20.75 L4.45 -20.4 M7.5 -8.65 L1.0 -7.25 Q-3.05 -6.85 -6.35 -8.25 L-6.5 -8.15 -5.1 -6.25 Q-2.65 -3.15 -0.1 -0.75 L0.15 -0.9 2.7 -3.35 7.5 -8.65" fill="#860000" fill-rule="evenodd" stroke="none"/>
      <path d="M22.15 9.25 L21.65 10.3 18.95 14.8 Q14.3 13.25 12.9 8.5 15.85 10.6 19.5 10.35 20.75 10.15 21.8 9.45 L22.15 9.25 M-16.9 16.1 Q-17.9 14.25 -20.85 11.8 -22.5 10.45 -22.75 8.35 -21.9 10.0 -19.9 10.85 L-15.15 11.0 Q-13.4 10.4 -12.0 9.5 -13.6 13.45 -16.9 16.1 M7.5 -8.65 L2.7 -3.35 0.15 -0.9 -0.1 -0.75 Q-2.65 -3.15 -5.1 -6.25 L-6.5 -8.15 -6.35 -8.25 Q-3.05 -6.85 1.0 -7.25 L7.5 -8.65" fill="#410000" fill-rule="evenodd" stroke="none"/>
      <path d="M-8.25 -19.15 L-8.7 -18.05 Q-8.7 -17.65 -7.1 -16.65 L-5.1 -15.3 -5.55 -14.95 -6.25 -14.75 Q-7.95 -14.75 -9.25 -16.1 -10.3 -17.2 -10.3 -18.0 -10.3 -19.35 -9.05 -20.4 -7.8 -21.45 -7.8 -20.0 -7.8 -19.7 -8.25 -19.15" fill="#ff4949" fill-rule="evenodd" stroke="none"/>
      <path d="M15.7 -17.3 L16.6 -16.1 Q20.3 -11.0 20.95 -4.7 21.25 -1.8 19.35 0.4 19.55 -3.35 18.8 -6.95 17.7 -12.2 15.7 -17.3 M0.3 -23.1 L0.05 -23.1 -0.25 -23.1 Q-5.2 -22.95 -9.65 -20.7 -12.25 -19.4 -14.65 -17.6 -12.55 -23.35 -6.25 -24.35 L-0.75 -24.7 0.8 -24.7 6.3 -24.35 Q12.6 -23.35 14.7 -17.6 L9.7 -20.7 Q5.25 -22.95 0.3 -23.1 M19.8 1.3 L19.8 0.8 20.1 0.3 Q24.05 2.25 24.0 6.55 23.95 12.7 18.3 13.25 L20.1 11.4 Q24.45 6.0 19.8 1.3 M13.05 -14.4 Q11.1 -8.15 4.9 -7.05 L-5.85 -7.45 Q-10.9 -8.8 -12.75 -13.85 -9.6 -9.95 -3.85 -8.25 1.9 -6.55 6.4 -8.8 10.85 -11.1 13.05 -14.4 M-15.65 -17.3 Q-17.65 -12.2 -18.75 -6.95 -19.5 -3.35 -19.3 0.4 -21.2 -1.8 -20.9 -4.7 -20.25 -11.0 -16.55 -16.1 L-15.65 -17.3 M-19.75 0.8 L-19.75 1.3 Q-24.4 6.0 -20.05 11.4 L-18.25 13.25 Q-23.9 12.7 -23.95 6.55 -24.0 2.25 -20.05 0.3 L-19.75 0.8" fill="#000000" fill-rule="evenodd" stroke="none"/>
    </g>
    <g id="sprite3">
      <use ffdec:characterId="7" height="19.0" transform="matrix(1.0, 0.0, 0.0, 1.0, 0.0, 0.0)" width="14.15" xlink:href="#shape3"/>
    </g>
    <g id="shape3">
      <path d="M6.35 4.45 L4.5 5.1 2.7 1.4 Q1.35 -2.1 -1.35 -4.8 L-3.45 -6.65 -5.3 -8.75 -3.45 -7.95 -0.3 -6.0 1.75 -4.25 Q3.7 -2.45 5.2 1.1 L6.35 4.45" fill="#ffefc4" fill-rule="evenodd" stroke="none"/>
      <path d="M6.35 4.45 L6.55 5.3 7.1 7.65 3.0 9.6 Q3.1 5.95 1.65 1.6 0.4 -2.0 -3.45 -6.65 L-1.35 -4.8 Q1.35 -2.1 2.7 1.4 L4.5 5.1 6.35 4.45" fill="#6f6750" fill-rule="evenodd" stroke="none"/>
      <path d="M-0.85 -7.4 Q2.0 -5.65 4.55 -1.9 7.05 1.85 7.1 7.35 4.65 -4.0 -4.65 -8.0 4.05 1.3 2.65 8.45 L2.2 9.45 Q1.85 2.85 -0.35 -1.45 -2.45 -5.45 -7.05 -9.4 -3.7 -9.15 -0.85 -7.4" fill="#000000" fill-rule="evenodd" stroke="none"/>
    </g>
    <g id="sprite4">
      <use ffdec:characterId="13" height="23.0" transform="matrix(1.0, 0.0, 0.0, 1.0, 0.0, 0.0)" width="20.45" xlink:href="#shape4"/>
    </g>
    <g id="shape4">
      <path d="M1.15 4.9 Q1.9 3.85 3.05 3.55 L6.25 5.1 Q6.8 6.5 5.75 7.7 5.05 8.55 3.25 9.1 1.5 8.8 0.35 7.25 0.4 5.95 1.15 4.9" fill="#ffffff" fill-rule="evenodd" stroke="none"/>
      <path d="M8.35 5.45 Q8.35 7.1 7.7 8.4 6.55 10.65 3.8 10.65 1.05 10.65 -0.45 8.8 -1.45 7.5 -1.45 6.3 -1.45 2.1 3.45 1.85 5.45 1.75 6.8 2.65 8.35 3.65 8.35 5.45 M1.15 4.9 Q0.4 5.95 0.35 7.25 1.5 8.8 3.25 9.1 5.05 8.55 5.75 7.7 6.8 6.5 6.25 5.1 L3.05 3.55 Q1.9 3.85 1.15 4.9" fill="#b2b6b9" fill-rule="evenodd" stroke="none"/>
      <path d="M-8.55 -5.35 L-8.3 -7.15 Q-7.8 -8.7 -6.2 -8.75 L-5.45 -6.4 Q-4.95 -4.7 -3.5 -3.95 L-3.55 -5.35 Q-3.45 -6.4 -2.6 -6.4 L-1.05 -4.55 Q0.5 -2.7 2.7 -2.7 L3.5 -3.5 Q4.25 -4.3 6.0 -4.3 8.0 -4.3 8.85 -2.25 L9.3 -0.2 9.25 0.7 8.7 0.25 8.7 0.6 8.25 0.95 Q7.95 0.95 7.5 -0.25 L7.15 -1.25 4.15 -1.3 5.6 0.35 1.9 -0.2 Q-2.3 -0.8 -2.6 -4.9 -2.85 -1.5 -3.15 -0.9 L-3.4 -1.0 Q-6.0 -1.45 -7.55 -3.6 L-8.55 -5.35" fill="#3a3b3f" fill-rule="evenodd" stroke="none"/>
      <path d="M9.25 0.7 L8.95 1.6 Q8.35 3.05 6.9 3.05 L5.35 2.7 4.55 2.3 -0.8 2.65 Q-3.0 2.65 -3.95 0.25 L-4.35 0.55 -5.55 0.85 Q-7.45 0.85 -8.2 -1.85 L-8.55 -4.6 -8.55 -5.35 -7.55 -3.6 Q-6.0 -1.45 -3.4 -1.0 L-3.15 -0.9 Q-2.85 -1.5 -2.6 -4.9 -2.3 -0.8 1.9 -0.2 L5.6 0.35 4.15 -1.3 7.15 -1.25 7.5 -0.25 Q7.95 0.95 8.25 0.95 L8.7 0.6 8.7 0.25 9.25 0.7" fill="#0d0d0f" fill-rule="evenodd" stroke="none"/>
      <path d="M10.2 -1.05 Q10.5 2.0 9.15 3.2 9.65 3.8 9.6 5.5 9.6 6.8 8.5 8.8 7.0 11.5 4.65 11.5 0.6 11.5 -1.1 9.2 -2.05 7.9 -2.05 6.5 -2.05 4.45 -1.15 3.05 L-1.1 3.0 Q-2.85 2.5 -4.2 1.4 -7.5 1.75 -9.55 -1.75 -10.7 -3.7 -9.75 -5.95 -8.7 -8.35 -5.0 -11.5 -5.7 -6.8 -3.9 -4.4 -3.75 -6.3 -1.45 -8.95 -2.6 -4.2 2.45 -3.3 4.05 -5.9 7.1 -4.75 9.95 -3.6 10.2 -1.05 M5.85 2.75 L-0.25 3.2 -0.55 4.25 -0.85 5.35 Q-0.85 7.1 -0.2 8.05 1.05 9.95 4.75 9.95 6.85 9.95 8.05 5.45 L7.65 3.95 5.35 3.9 5.85 2.75 M7.25 2.8 Q8.65 2.0 8.7 0.75 9.2 -5.8 3.1 -2.4 2.95 -0.9 3.55 0.9 L2.2 -2.1 Q-1.2 -2.3 -2.4 -5.4 L-2.45 -2.05 Q-5.9 -4.35 -6.45 -8.15 -10.55 -2.95 -5.0 0.55 L-4.5 -1.85 Q-2.65 2.85 2.55 2.35 7.7 1.85 7.25 2.8 M3.6 4.4 Q5.6 4.65 5.6 5.95 L5.3 7.2 Q4.85 8.0 4.05 8.0 2.15 8.0 1.7 7.1 L1.65 6.15 Q1.65 4.25 3.6 4.4" fill="#000000" fill-rule="evenodd" stroke="none"/>
    </g>
    <g id="sprite5">
      <use ffdec:characterId="22" height="17.85" transform="matrix(1.0, 0.0, 0.0, 1.0, 0.0, 0.0)" width="11.6" xlink:href="#shape5"/>
    </g>
    <g id="shape5">
      <path d="M-1.15 -5.85 L-0.4 -2.4 -0.4 -2.35 -0.05 -1.4 1.0 0.5 1.85 2.4 1.7 -1.4 1.7 -1.5 4.5 4.95 4.35 5.0 Q2.8 6.0 1.2 6.5 0.05 6.85 -0.65 6.5 L-0.9 4.85 Q-1.55 1.8 -1.75 -1.4 L-1.8 -2.1 -1.8 -2.4 -1.85 -3.5 -1.15 -5.85" fill="#ffb949" fill-rule="evenodd" stroke="none"/>
      <path d="M-1.85 -3.5 L-1.8 -2.4 -1.8 -2.1 -1.75 -1.4 Q-1.55 1.8 -0.9 4.85 L-0.65 6.5 Q0.05 6.85 1.2 6.5 2.8 6.0 4.35 5.0 L4.5 4.95 5.05 6.25 Q1.3 8.45 -2.1 8.15 L-5.0 6.95 -1.85 -3.5" fill="#7f5b20" fill-rule="evenodd" stroke="none"/>
      <path d="M1.7 -1.5 L1.7 -1.4 1.85 2.4 1.0 0.5 -0.05 -1.4 -0.4 -2.35 -0.4 -2.4 -1.15 -5.85 -0.75 -7.2 1.7 -1.5" fill="#ffffff" fill-rule="evenodd" stroke="none"/>
      <path d="M-4.55 6.8 L-4.3 7.15 Q0.35 8.4 4.8 6.35 L3.65 4.1 Q1.1 -1.15 -0.9 -6.55 L-1.55 -3.7 Q-2.65 1.65 -4.55 6.8 M5.8 6.5 Q4.7 7.1 1.6 8.5 -1.5 9.85 -5.8 7.15 L-0.95 -8.9 5.8 6.5" fill="#000000" fill-rule="evenodd" stroke="none"/>
      <path d="M3.6 2.55 Q0.0 5.9 -3.85 3.0 0.55 3.95 3.6 2.55 M2.35 -1.35 Q0.0 1.75 -3.1 -1.05 0.55 -0.2 2.35 -1.35" fill="#28241e" fill-rule="evenodd" stroke="none"/>
    </g>
    <g id="sprite6">
      <use ffdec:characterId="24" height="15.4" transform="matrix(1.0, 0.0, 0.0, 1.0, 0.0, 0.0)" width="20.35" xlink:href="#shape6"/>
    </g>
    <g id="shape6">
      <path d="M5.7 -1.2 Q4.7 -1.25 4.7 -0.3 L4.8 0.2 Q5.05 0.75 5.75 0.75 6.2 0.75 6.45 0.45 L6.65 -0.1 Q6.65 -1.15 5.7 -1.2 M6.85 -2.15 L7.05 -1.85 Q7.85 -0.3 7.65 1.6 L6.9 2.75 6.0 2.85 Q5.15 2.8 4.5 2.25 L4.4 1.75 4.2 1.55 3.95 1.2 3.85 1.95 Q2.85 5.5 -0.85 4.6 L-0.85 4.5 Q-2.15 4.25 -2.75 3.1 L-2.75 1.85 -3.1 2.85 -4.1 3.75 -6.75 3.5 Q-8.05 2.35 -8.0 0.45 L-6.1 -1.05 Q-5.25 -1.7 -4.7 -2.95 L-3.9 -4.9 Q-2.9 -6.25 -1.75 -6.8 L0.65 -7.45 Q1.95 -7.4 3.1 -6.15 4.75 -4.5 4.35 -2.1 L6.85 -2.15 M-1.6 -5.3 Q-4.6 -1.85 -6.7 2.3 L-4.3 2.4 -4.0 1.85 -2.35 0.95 -0.95 2.5 -0.1 3.0 1.55 2.35 Q-0.35 -1.9 -0.75 -3.4 -1.15 -4.9 -1.6 -5.3" fill="#c60101" fill-rule="evenodd" stroke="none"/>
      <path d="M-8.0 0.45 Q-8.05 2.35 -6.75 3.5 L-4.1 3.75 -3.1 2.85 -2.75 1.85 -2.75 3.1 Q-2.15 4.25 -0.85 4.5 L-0.85 4.6 Q2.85 5.5 3.85 1.95 L3.95 1.2 4.2 1.55 4.4 1.75 4.5 2.25 Q5.15 2.8 6.0 2.85 L6.9 2.75 7.65 1.6 Q7.85 -0.3 7.05 -1.85 L6.85 -2.15 Q9.45 -1.55 9.45 2.5 9.45 6.15 6.5 6.15 L4.85 5.75 3.7 5.35 2.3 6.2 Q0.9 7.0 -0.55 6.95 -2.05 6.9 -2.6 6.3 L-3.75 5.1 -4.55 5.9 -5.8 6.2 Q-8.6 6.2 -9.0 2.75 -9.0 1.55 -8.6 1.0 L-8.0 0.45" fill="#600000" fill-rule="evenodd" stroke="none"/>
      <path d="M5.7 -1.2 Q6.65 -1.15 6.65 -0.1 L6.45 0.45 Q6.2 0.75 5.75 0.75 5.05 0.75 4.8 0.2 L4.7 -0.3 Q4.7 -1.25 5.7 -1.2 M-1.6 -5.3 Q-1.15 -4.9 -0.75 -3.4 -0.35 -1.9 1.55 2.35 L-0.1 3.0 -0.95 2.5 -2.35 0.95 -4.0 1.85 -4.3 2.4 -6.7 2.3 Q-4.6 -1.85 -1.6 -5.3" fill="#ff4949" fill-rule="evenodd" stroke="none"/>
      <path d="M-8.55 1.9 Q-8.75 2.85 -8.6 3.75 -8.15 6.4 -5.25 5.65 L-3.8 4.1 Q-4.0 5.55 -1.4 6.4 1.2 7.25 3.5 4.0 4.35 4.4 4.65 5.0 L7.75 5.1 Q9.25 4.6 9.15 1.55 9.05 -1.55 6.6 -1.55 4.4 -1.55 3.95 -2.4 L3.1 -5.65 Q2.75 -6.35 1.35 -6.6 L-1.15 -6.55 Q-3.4 -5.95 -3.9 -3.45 -4.45 -1.0 -8.55 1.9 M-8.7 6.9 L-9.4 5.75 Q-11.55 1.75 -7.6 -0.9 -4.75 -2.3 -4.9 -3.75 -5.0 -4.65 -3.8 -5.95 -2.4 -7.4 -0.65 -7.65 2.2 -8.0 3.45 -6.7 4.6 -5.5 4.55 -2.7 7.8 -3.85 9.6 -0.25 10.7 1.85 9.85 4.05 8.2 8.55 3.45 6.0 -0.35 9.25 -3.9 6.3 -5.55 7.75 -6.8 7.55 L-8.7 6.9" fill="#000000" fill-rule="evenodd" stroke="none"/>
    </g>
    <g id="sprite7">
      <use ffdec:characterId="9" height="10.0" transform="matrix(1.0, 0.0, 0.0, 1.0, 0.0, 0.0)" width="31.55" xlink:href="#shape7"/>
    </g>
    <g id="shape7">
      <path d="M-12.85 1.8 L-15.35 -0.7 Q-14.45 -1.95 -12.8 -2.9 -9.95 -4.35 -6.5 -4.7 L1.85 -4.95 9.0 -4.1 Q12.9 -3.15 15.75 -0.9 L14.0 1.0 11.4 1.35 7.15 1.75 -0.15 0.65 Q-3.45 0.45 -6.3 1.5 L-6.5 1.3 -8.9 1.9 -12.85 1.8 M2.75 -1.6 L3.95 -0.5 Q4.9 0.25 7.05 0.25 L9.0 0.0 Q9.55 -0.25 9.55 -0.85 L8.7 -1.85 Q7.8 -2.5 7.0 -2.5 L6.2 -2.25 4.25 -2.5 2.85 -2.8 -2.0 -2.8 -5.7 -2.2 -8.55 -1.45 Q-10.35 -1.2 -10.35 -0.2 -10.3 0.65 -9.25 0.65 L-8.7 0.65 -7.6 0.75 Q-6.9 0.75 -5.4 -0.1 -4.05 -0.85 -3.85 -1.2 L-1.9 -1.6 2.75 -1.6" fill="#860000" fill-rule="evenodd" stroke="none"/>
      <path d="M2.75 -1.6 L-1.9 -1.6 -3.85 -1.2 Q-4.05 -0.85 -5.4 -0.1 -6.9 0.75 -7.6 0.75 L-8.7 0.65 -9.25 0.65 Q-10.3 0.65 -10.35 -0.2 -10.35 -1.2 -8.55 -1.45 L-5.7 -2.2 -2.0 -2.8 2.85 -2.8 4.25 -2.5 6.2 -2.25 7.0 -2.5 Q7.8 -2.5 8.7 -1.85 L9.55 -0.85 Q9.55 -0.25 9.0 0.0 L7.05 0.25 Q4.9 0.25 3.95 -0.5 L2.75 -1.6" fill="#ce0000" fill-rule="evenodd" stroke="none"/>
      <path d="M-12.85 1.8 L-8.9 1.9 -6.5 1.3 -6.3 1.5 Q-3.45 0.45 -0.15 0.65 L7.15 1.75 11.4 1.35 14.0 1.0 13.25 1.7 Q10.2 4.75 5.65 3.9 L-2.3 3.55 -7.7 4.3 Q-9.7 4.55 -10.85 3.5 L-12.85 1.8" fill="#410000" fill-rule="evenodd" stroke="none"/>
      <path d="M-0.1 4.15 L-5.0 4.85 Q-11.45 5.75 -14.65 0.5 -15.4 -0.75 -15.8 -2.15 -14.9 0.65 -11.8 2.35 -8.75 4.0 -7.45 3.7 L-2.0 2.8 -0.9 2.65 -0.9 2.6 -0.3 2.6 0.65 2.6 0.65 2.65 1.75 2.8 7.2 3.7 Q8.5 4.0 11.55 2.35 14.65 0.65 15.55 -2.15 15.15 -0.75 14.4 0.5 11.2 5.75 4.75 4.85 L-0.1 4.15" fill="#000000" fill-rule="evenodd" stroke="none"/>
    </g>
    <g id="sprite8">
      <use ffdec:characterId="11" height="7.4" transform="matrix(1.0, 0.0, 0.0, 1.0, 0.0, 0.0)" width="34.6" xlink:href="#shape8"/>
    </g>
    <g id="shape8">
      <path d="M-15.7 -1.0 Q-11.45 -2.65 -6.8 -3.0 L4.2 -3.3 14.15 -1.4 14.25 0.35 13.85 0.85 10.85 0.75 Q4.95 -2.4 -1.7 -1.75 -6.9 -1.2 -11.7 0.8 -13.7 1.6 -15.75 0.35 L-15.7 -1.0" fill="#ffb949" fill-rule="evenodd" stroke="none"/>
      <path d="M14.15 -1.4 L15.7 -0.7 Q16.75 0.0 16.75 0.95 16.75 2.75 14.6 2.75 13.65 2.75 9.05 1.15 4.5 -0.45 0.3 -0.45 -4.3 -0.45 -8.95 1.45 -13.55 3.35 -14.2 3.35 -16.65 3.35 -16.65 1.05 -16.65 0.0 -16.05 -0.7 L-15.7 -1.0 -15.75 0.35 Q-13.7 1.6 -11.7 0.8 -6.9 -1.2 -1.7 -1.75 4.95 -2.4 10.85 0.75 L13.85 0.85 14.25 0.35 14.15 -1.4" fill="#9f4600" fill-rule="evenodd" stroke="none"/>
      <path d="M-9.3 -2.85 L-0.15 -3.65 4.55 -3.45 Q7.5 -3.4 14.9 -1.5 17.35 -0.6 17.3 0.5 L17.15 2.7 Q15.65 4.3 13.25 3.4 10.0 2.15 6.65 1.25 2.8 0.25 -1.15 0.35 -7.0 0.95 -12.65 3.05 L-17.0 3.2 Q-17.7 1.25 -16.75 -0.8 -16.45 -1.7 -13.35 -2.15 L-9.3 -2.85 M-16.1 2.4 L-15.25 2.55 -13.1 1.85 -11.75 1.55 Q-7.8 0.1 -3.7 -0.5 L5.15 -0.2 Q9.6 0.95 14.5 2.6 16.5 1.9 16.7 0.95 16.95 -0.1 14.75 -0.95 L12.0 -1.65 6.5 -2.5 -3.0 -2.8 -12.0 -1.8 Q-17.45 -1.05 -16.35 1.75 L-16.1 2.4" fill="#000000" fill-rule="evenodd" stroke="none"/>
    </g>
  </defs>
</svg>
