<?xml version="1.0" encoding="UTF-8" standalone="no"?>
<svg xmlns:ffdec="https://www.free-decompiler.com/flash" xmlns:xlink="http://www.w3.org/1999/xlink" ffdec:objectType="frame" height="51.9px" width="64.7px" xmlns="http://www.w3.org/2000/svg">
  <g transform="matrix(1.0, 0.0, 0.0, 1.0, 34.7, 34.8)">
    <use ffdec:characterId="4" height="45.1" transform="matrix(-1.0, 0.0, 0.0, 1.0, -2.4, -28.15)" width="27.35" xlink:href="#sprite0"/>
    <use ffdec:characterId="4" height="45.1" transform="matrix(1.0, 0.0, 0.0, 1.0, 2.65, -28.15)" width="27.35" xlink:href="#sprite0"/>
    <use ffdec:characterId="6" height="43.4" transform="matrix(1.0, 0.0, 0.0, 1.0, -34.7, -34.8)" width="43.9" xlink:href="#sprite1"/>
  </g>
  <defs>
    <g id="sprite0">
      <use ffdec:characterId="3" height="45.1" transform="matrix(1.0, 0.0, 0.0, 1.0, 0.0, 0.0)" width="27.35" xlink:href="#shape0"/>
    </g>
    <g id="shape0">
      <path d="M6.4 0.55 L7.45 0.3 8.45 0.15 9.45 0.2 10.45 0.4 12.5 1.4 14.4 2.75 14.9 3.2 15.3 3.65 16.55 5.65 17.6 7.8 18.35 9.8 18.85 11.35 19.2 12.55 19.55 13.75 19.75 14.35 20.05 15.5 20.35 16.5 20.6 17.45 20.85 18.45 21.05 19.35 21.3 20.45 21.95 22.5 22.8 24.55 23.95 26.5 25.2 28.3 25.85 29.0 26.6 29.7 27.3 30.45 27.35 30.65 25.8 30.7 24.2 30.3 23.85 30.1 23.2 29.7 22.85 29.45 22.35 29.1 21.85 28.75 21.25 28.3 21.45 28.95 21.55 29.55 22.05 31.55 22.6 33.2 23.3 34.8 24.15 36.3 24.55 36.85 24.9 37.3 25.45 38.1 25.85 38.7 24.65 38.3 23.45 37.75 21.85 36.8 21.05 36.2 20.3 35.4 19.8 34.85 19.4 34.4 19.2 35.0 19.0 35.6 18.7 36.2 18.35 36.8 17.85 37.65 17.35 38.35 16.8 39.05 16.25 39.75 15.4 40.7 14.6 41.6 13.65 42.45 12.75 43.3 12.15 43.9 11.45 44.4 10.75 44.85 9.9 45.25 10.85 43.95 11.4 43.15 11.85 42.35 12.6 40.85 13.2 39.45 13.65 38.0 13.95 36.45 14.15 34.85 14.3 33.1 14.35 32.2 14.3 31.1 14.2 30.0 13.95 28.9 13.6 27.8 13.25 26.95 12.85 26.1 11.95 24.5 11.0 22.75 9.95 20.9 9.2 19.6 8.8 18.9 8.35 18.2 7.85 17.45 7.4 16.45 7.0 18.0 6.4 19.35 5.15 21.2 3.75 22.8 2.9 23.45 2.0 24.05 1.05 24.5 0.0 24.95 1.05 23.5 1.85 22.1 2.5 20.55 3.15 18.7 3.4 17.7 3.6 16.75 3.7 15.75 3.75 14.7 3.9 16.65 3.85 17.65 3.7 18.7 3.45 19.7 3.15 20.75 2.75 21.75 2.25 22.7 1.65 23.7 3.45 22.1 4.45 20.55 5.45 18.9 6.05 17.8 6.45 16.75 6.85 15.0 6.9 14.35 7.15 14.8 11.0 22.55 12.05 24.15 12.65 25.05 13.35 25.95 14.05 26.85 15.35 28.25 13.15 19.6 12.9 18.1 12.6 16.6 12.3 15.5 11.95 14.35 11.5 13.25 11.05 12.15 10.6 11.15 10.05 10.1 9.25 8.5 8.95 7.9 10.15 9.45 10.8 10.35 10.95 10.65 12.45 13.95 Q13.65 17.2 14.1 19.7 L15.35 25.85 Q16.0 29.3 16.55 30.8 L16.4 30.75 15.75 30.45 15.05 30.2 15.15 31.35 15.15 32.45 15.05 33.55 14.9 34.55 14.7 35.7 14.5 36.8 14.2 37.9 13.95 38.9 12.4 42.1 11.3 43.7 11.95 43.25 13.15 42.35 14.5 41.0 15.3 40.1 16.05 39.2 16.75 38.3 17.4 37.25 18.45 35.2 19.0 33.85 19.15 33.55 19.3 33.6 19.8 34.2 20.85 35.45 20.85 35.4 21.6 36.1 22.25 36.6 23.3 37.0 23.85 37.2 23.85 37.15 22.55 34.8 22.0 33.7 21.55 32.55 21.4 31.95 21.25 31.35 20.9 29.5 20.6 27.6 20.5 26.45 21.1 26.95 22.3 27.8 23.45 28.6 24.05 28.9 24.75 29.2 25.4 29.4 25.0 28.8 24.15 27.55 23.3 26.25 22.9 25.55 22.6 24.85 22.25 24.05 21.7 22.9 21.35 22.0 20.75 20.05 Q20.25 17.9 19.9 15.55 L19.45 13.75 18.85 11.9 17.35 8.55 16.8 7.7 15.55 6.0 14.05 4.3 12.35 2.7 10.5 1.4 8.65 0.7 7.1 0.65 6.5 0.65 6.4 0.55" fill="#3c2805" fill-rule="evenodd" stroke="none"/>
      <path d="M6.4 0.55 L6.5 0.65 7.1 0.65 8.65 0.7 10.5 1.4 12.35 2.7 14.05 4.3 15.55 6.0 16.8 7.7 17.35 8.55 18.85 11.9 19.45 13.75 19.9 15.55 Q20.25 17.9 20.75 20.05 L21.35 22.0 21.7 22.9 22.25 24.05 22.6 24.85 22.9 25.55 23.3 26.25 24.15 27.55 25.0 28.8 25.4 29.4 24.75 29.2 24.05 28.9 23.45 28.6 22.3 27.8 21.1 26.95 20.5 26.45 20.6 27.6 20.9 29.5 21.25 31.35 21.4 31.95 21.55 32.55 22.0 33.7 22.55 34.8 23.85 37.15 23.85 37.2 23.3 37.0 22.25 36.6 21.6 36.1 20.85 35.4 20.85 35.45 19.8 34.2 19.3 33.6 19.15 33.55 19.0 33.85 18.45 35.2 17.4 37.25 16.75 38.3 16.05 39.2 15.3 40.1 14.5 41.0 13.15 42.35 11.95 43.25 11.3 43.7 12.4 42.1 Q14.25 40.75 15.25 38.7 L16.8 35.0 16.8 36.0 Q17.6 35.4 17.9 34.2 L18.35 32.3 20.25 32.65 18.8 28.0 17.55 23.7 Q16.9 21.05 16.55 18.2 L16.05 15.35 15.25 11.95 13.9 8.55 Q12.7 6.25 10.3 5.15 L9.45 4.75 Q8.2 4.75 7.3 5.7 L6.95 6.15 8.95 7.9 9.25 8.5 10.05 10.1 10.6 11.15 11.05 12.15 11.5 13.25 11.95 14.35 12.3 15.5 12.6 16.6 12.9 18.1 13.15 19.6 13.35 21.55 Q13.05 19.4 11.8 17.3 L10.9 15.9 Q12.6 20.2 13.15 24.65 L12.35 23.75 11.7 23.1 11.0 22.55 7.15 14.8 5.75 12.0 Q6.0 16.15 4.35 20.05 L3.45 22.1 1.65 23.7 2.25 22.7 2.75 21.75 3.15 20.75 3.45 19.7 3.7 18.7 3.85 17.65 3.9 16.65 3.75 14.7 3.75 14.65 3.5 13.0 3.75 9.2 4.25 5.45 4.0 3.75 Q4.0 2.45 4.55 1.5 5.15 0.45 6.4 0.55 M13.95 38.9 L14.2 37.9 14.5 36.8 14.7 35.7 14.9 34.55 15.05 33.55 15.15 32.45 15.15 31.35 15.05 30.2 15.8 30.85 Q15.6 33.2 15.0 35.6 L13.95 38.9 M15.95 8.05 L17.6 14.55 16.85 13.25 16.65 13.65 Q16.45 14.5 16.9 15.05 L17.0 15.05 17.4 18.4 17.95 16.4 18.85 19.9 Q19.95 14.1 16.8 9.25 L15.95 8.05 M8.45 15.25 L10.9 21.0 Q10.7 18.35 9.25 16.2 L8.45 15.25 M9.85 16.1 L10.7 17.8 9.9 15.3 9.85 16.1 M4.85 16.7 L4.25 17.9 3.95 18.9 4.2 19.35 4.6 18.3 4.85 16.7 M19.75 28.95 L20.05 20.1 Q18.75 23.5 19.35 27.15 L19.75 28.95" fill="#ffdd7a" fill-rule="evenodd" stroke="none"/>
      <path d="M12.4 42.1 L13.95 38.9 15.0 35.6 Q15.6 33.2 15.8 30.85 L15.05 30.2 15.75 30.45 16.4 30.75 16.55 30.8 Q16.0 29.3 15.35 25.85 L14.1 19.7 Q13.65 17.2 12.45 13.95 L10.95 10.65 10.8 10.35 10.15 9.45 8.95 7.9 6.95 6.15 7.3 5.7 Q8.2 4.75 9.45 4.75 L10.3 5.15 Q12.7 6.25 13.9 8.55 L15.25 11.95 16.05 15.35 16.55 18.2 Q16.9 21.05 17.55 23.7 L18.8 28.0 20.25 32.65 18.35 32.3 17.9 34.2 Q17.6 35.4 16.8 36.0 L16.8 35.0 15.25 38.7 Q14.25 40.75 12.4 42.1 M13.15 19.6 L15.35 28.25 14.05 26.85 13.35 25.95 12.65 25.05 12.05 24.15 11.0 22.55 11.7 23.1 12.35 23.75 13.15 24.65 Q12.6 20.2 10.9 15.9 L11.8 17.3 Q13.05 19.4 13.35 21.55 L13.15 19.6 M7.15 14.8 L6.9 14.35 6.85 15.0 6.45 16.75 6.05 17.8 5.45 18.9 4.45 20.55 3.45 22.1 4.35 20.05 Q6.0 16.15 5.75 12.0 L7.15 14.8 M19.75 28.95 L19.35 27.15 Q18.75 23.5 20.05 20.1 L19.75 28.95" fill="#ac811e" fill-rule="evenodd" stroke="none"/>
      <path d="M15.95 8.05 L16.8 9.25 Q19.95 14.1 18.85 19.9 L17.95 16.4 17.4 18.4 17.0 15.05 16.9 15.05 Q16.45 14.5 16.65 13.65 L16.85 13.25 17.6 14.55 15.95 8.05 M4.85 16.7 L4.6 18.3 4.2 19.35 3.95 18.9 4.25 17.9 4.85 16.7 M9.85 16.1 L9.9 15.3 10.7 17.8 9.85 16.1 M8.45 15.25 L9.25 16.2 Q10.7 18.35 10.9 21.0 L8.45 15.25" fill="#fffcf7" fill-rule="evenodd" stroke="none"/>
    </g>
    <g id="sprite1">
      <use ffdec:characterId="5" height="43.4" transform="matrix(1.0, 0.0, 0.0, 1.0, 0.0, 0.0)" width="43.9" xlink:href="#shape1"/>
    </g>
    <g id="shape1">
      <path d="M20.8 39.5 L21.0 39.7 20.8 39.5" fill="#ffe28b" fill-rule="evenodd" stroke="none"/>
      <path d="M12.25 11.5 L11.6 11.95 12.25 11.5 12.4 11.45 8.75 15.4 7.55 16.9 Q10.25 15.85 12.65 14.15 L14.25 13.05 15.9 11.85 Q13.0 12.95 10.3 14.9 L9.35 15.55 Q12.0 13.3 15.05 11.6 L20.25 8.85 20.45 8.85 Q22.15 8.65 23.55 7.65 L17.05 7.95 Q12.2 7.5 9.15 5.85 L21.0 4.55 32.9 3.15 36.75 3.7 Q40.15 4.4 41.0 5.6 41.45 5.7 41.45 4.75 L41.25 2.75 Q41.0 1.4 40.8 1.4 L40.15 0.1 41.9 1.9 Q42.4 2.85 42.75 7.45 L42.6 8.9 42.6 9.0 42.65 9.0 42.9 9.9 43.35 12.1 43.05 12.35 42.6 12.25 Q43.7 14.45 43.7 16.7 L42.6 17.85 41.25 18.75 41.25 18.8 41.8 18.95 41.9 19.3 41.2 20.65 41.1 20.95 41.1 20.6 40.25 22.45 Q38.8 24.85 36.1 27.15 32.15 30.5 28.25 31.25 L27.35 31.45 29.8 30.05 32.55 27.8 33.2 26.9 30.15 28.55 Q28.1 29.4 24.35 29.4 L24.3 29.4 24.25 29.4 23.9 29.4 27.7 27.7 28.1 27.4 Q26.4 28.15 24.35 28.4 L23.8 28.45 25.9 27.55 27.0 27.0 27.1 26.95 28.4 26.0 24.5 27.55 26.55 25.65 Q29.1 24.7 31.65 24.25 L34.7 23.1 38.9 19.8 40.7 18.0 40.05 17.65 40.1 17.6 39.95 17.55 36.95 17.5 36.75 17.55 36.0 17.7 35.85 17.75 Q32.95 18.0 30.25 19.1 27.6 20.3 25.2 22.05 23.45 23.35 21.65 25.1 L24.95 23.95 Q22.5 25.4 20.55 27.65 L18.45 27.95 19.15 26.25 19.4 25.3 16.85 28.8 17.75 27.05 Q16.75 27.8 16.05 28.6 L15.0 29.9 12.2 33.65 10.05 36.1 Q11.55 35.6 12.8 34.45 L12.4 34.85 10.9 36.15 9.75 36.55 9.85 36.45 9.5 36.8 9.85 36.8 9.3 36.9 9.05 36.65 10.2 35.0 10.6 34.1 10.65 34.55 10.95 30.85 13.35 25.7 Q14.5 23.2 16.1 20.9 17.6 18.75 19.45 17.0 21.0 15.55 22.5 14.4 20.15 14.35 18.2 15.8 L14.35 17.45 Q22.25 10.9 26.65 9.25 L26.85 9.15 27.9 8.85 29.15 8.65 29.2 8.65 Q31.7 8.65 33.0 9.5 L33.15 9.6 33.45 9.8 33.55 9.85 33.7 9.95 41.55 14.15 42.9 14.8 42.9 14.75 43.2 14.9 42.85 14.6 42.85 14.55 41.9 13.65 35.35 9.4 35.2 9.35 34.55 9.1 Q31.45 8.05 26.05 8.2 L26.4 8.25 Q23.4 8.4 20.75 9.75 18.25 11.05 16.05 12.6 L14.3 13.9 5.1 18.5 5.9 17.05 Q6.65 16.0 9.15 13.9 L12.25 11.5 M11.4 37.3 L11.1 36.45 11.15 36.3 11.25 36.25 11.6 36.05 11.9 35.9 Q12.2 37.35 12.95 38.8 L13.35 39.35 13.35 38.1 Q13.7 39.6 14.35 40.8 L14.4 42.05 12.45 38.9 11.65 37.6 11.15 36.45 11.4 37.3 M40.8 7.85 L39.45 6.55 Q37.2 5.05 34.45 5.2 L36.2 5.75 Q38.8 6.75 40.8 7.85 M36.55 6.9 L37.15 7.5 39.25 9.1 40.1 9.55 39.5 8.5 Q38.45 7.0 36.55 6.9 M30.4 15.45 L29.2 16.25 34.1 15.05 Q32.1 14.45 30.4 15.45 M33.4 13.6 Q31.0 12.2 28.7 13.85 27.5 14.65 26.45 15.65 L30.45 14.15 33.4 13.6 M25.15 13.8 L30.35 12.25 35.05 12.6 32.75 11.2 Q29.95 10.0 27.2 10.7 24.95 11.4 22.8 12.7 L22.2 13.15 25.0 12.3 30.35 11.4 Q28.8 11.6 27.35 12.3 26.1 12.95 25.15 13.8 M34.1 24.85 L35.7 23.15 31.65 25.5 Q30.15 26.1 28.85 26.85 L32.0 26.2 31.6 26.45 31.0 26.95 29.95 27.95 30.4 28.0 Q31.7 27.55 32.75 26.75 L34.55 25.45 34.7 24.7 34.1 24.85 M20.0 29.2 Q21.8 30.15 23.0 30.05 L26.4 30.1 Q24.05 31.35 21.3 31.5 L19.45 31.45 20.85 32.45 22.05 32.65 21.55 34.1 20.35 37.95 20.3 38.45 19.6 35.2 19.4 34.35 18.4 35.6 Q18.6 32.35 20.0 29.2 M37.85 24.55 Q37.3 23.75 35.9 25.75 L33.95 28.5 Q36.1 27.15 37.7 24.85 L37.85 24.55 M8.35 21.15 Q7.5 23.3 7.0 25.6 L6.85 26.5 10.15 21.8 11.4 19.7 9.75 23.15 13.65 20.2 Q11.85 22.55 10.55 25.1 L9.7 27.1 11.9 24.3 8.2 34.05 9.5 33.0 7.35 36.7 9.2 25.9 6.9 28.5 Q4.4 31.25 2.65 32.15 5.55 25.55 8.35 21.15 M12.0 32.8 L14.95 27.9 18.05 23.4 18.95 22.2 18.5 22.1 15.65 24.9 Q13.95 26.7 13.05 29.1 12.35 30.9 12.0 32.8" fill="#ffdd7a" fill-rule="evenodd" stroke="none"/>
      <path d="M26.65 9.25 L27.9 8.85 26.85 9.15 26.65 9.25" fill="#e7b84e" fill-rule="evenodd" stroke="none"/>
      <path d="M12.25 11.5 L13.8 10.5 Q15.2 9.55 16.9 8.65 L11.85 7.2 6.95 5.55 14.75 4.2 18.3 3.55 31.05 1.9 35.75 2.75 Q39.5 3.6 41.0 4.25 L39.95 0.0 40.15 0.1 40.8 1.4 Q41.0 1.4 41.25 2.75 L41.45 4.75 Q41.45 5.7 41.0 5.6 40.15 4.4 36.75 3.7 L32.9 3.15 21.0 4.55 9.15 5.85 Q12.2 7.5 17.05 7.95 L23.55 7.65 Q22.15 8.65 20.45 8.85 L20.25 8.85 19.8 8.9 Q17.95 9.0 16.25 9.55 14.65 10.15 12.4 11.45 L12.25 11.5 11.6 11.95 12.25 11.5 M40.15 0.1 Q41.85 1.0 43.0 2.95 43.9 4.55 43.9 5.6 43.9 7.35 42.65 9.0 L42.6 9.0 42.6 8.9 42.75 7.45 Q42.4 2.85 41.9 1.9 L40.15 0.1 M41.1 20.95 L41.05 21.6 Q40.55 24.3 36.0 28.25 30.45 33.05 24.4 33.05 23.45 33.05 20.95 39.15 L20.8 39.5 21.0 39.7 24.15 43.1 22.75 43.4 Q20.7 43.15 19.0 42.05 16.6 40.6 15.0 38.3 L14.4 37.35 14.35 37.25 14.35 38.5 15.2 43.3 Q12.55 40.55 11.7 38.55 L11.7 38.45 11.5 37.75 11.4 37.3 11.15 36.45 11.65 37.6 12.45 38.9 14.4 42.05 14.35 40.8 14.25 38.4 14.25 36.5 20.05 42.15 19.35 38.95 19.3 38.75 18.7 37.95 18.15 39.35 17.8 38.7 18.7 36.1 20.1 40.35 20.3 38.45 20.35 37.95 21.55 34.1 22.05 32.65 22.15 32.35 Q24.05 32.4 27.0 31.05 L28.2 30.5 29.8 29.4 28.8 29.8 26.5 30.1 26.4 30.1 23.0 30.05 Q21.8 30.15 20.0 29.2 L19.9 29.15 Q18.8 28.55 18.05 27.95 L18.45 27.95 20.55 27.65 Q22.95 27.15 25.35 26.0 L25.5 25.95 27.7 24.6 26.55 25.65 24.5 27.55 28.4 26.0 27.1 26.95 27.0 27.0 23.9 28.05 23.05 28.3 21.15 28.75 20.15 28.75 23.9 29.4 24.25 29.4 24.3 29.4 24.35 29.4 Q28.1 29.4 30.15 28.55 L33.2 26.9 32.55 27.8 29.8 30.05 27.35 31.45 28.25 31.25 Q32.15 30.5 36.1 27.15 38.8 24.85 40.25 22.45 L41.1 20.6 41.1 20.95 M11.15 36.3 L9.85 36.8 9.5 36.8 9.85 36.45 9.75 36.55 10.9 36.15 12.4 34.85 12.8 34.45 16.85 30.4 17.05 30.15 17.4 29.8 17.75 38.65 16.65 31.45 15.85 32.85 15.2 33.45 Q13.8 34.95 11.9 35.9 L11.6 36.05 11.25 36.25 11.15 36.3 M10.6 34.1 L10.6 34.05 10.25 32.3 Q8.5 36.25 7.05 40.3 L6.9 37.25 Q6.9 36.35 7.25 33.5 7.6 30.15 8.05 28.05 L4.25 31.4 0.0 34.45 Q10.9 16.65 11.85 15.45 7.0 18.0 2.3 21.3 L5.9 17.05 5.1 18.5 14.3 13.9 14.6 13.7 14.0 14.2 10.9 17.85 Q9.55 19.4 8.35 21.15 5.55 25.55 2.65 32.15 4.4 31.25 6.9 28.5 L9.2 25.9 7.35 36.7 9.5 33.0 9.75 32.6 10.95 30.75 10.95 30.85 10.65 34.55 10.6 34.1 M26.4 8.25 L26.05 8.2 Q31.45 8.05 34.55 9.1 L35.2 9.35 35.35 9.4 41.9 13.65 42.85 14.55 42.85 14.6 43.2 14.9 42.9 14.75 42.9 14.8 41.55 14.15 33.7 9.95 33.55 9.85 33.45 9.8 33.15 9.6 33.0 9.5 Q31.7 8.65 29.2 8.65 L29.15 8.65 26.4 8.25 M18.2 15.8 L18.6 15.6 12.65 19.05 Q14.95 15.4 21.0 11.85 L21.3 11.7 21.4 11.6 21.65 11.45 22.85 10.8 23.3 10.55 Q27.1 8.55 29.15 8.65 L27.9 8.85 26.65 9.25 Q22.25 10.9 14.35 17.45 L18.2 15.8 M35.85 17.75 L36.0 17.7 36.75 17.55 36.95 17.5 39.95 17.55 40.1 17.6 40.05 17.65 38.15 18.1 35.0 19.2 Q32.85 20.15 31.2 21.5 L30.15 22.4 33.75 18.7 Q34.65 18.05 35.85 17.75 M20.8 39.5 L20.85 42.45 23.05 42.6 20.8 39.5" fill="#3c2805" fill-rule="evenodd" stroke="none"/>
      <path d="M12.4 11.45 Q14.65 10.15 16.25 9.55 17.95 9.0 19.8 8.9 L20.25 8.85 15.05 11.6 Q12.0 13.3 9.35 15.55 L10.3 14.9 Q13.0 12.95 15.9 11.85 L14.25 13.05 12.65 14.15 Q10.25 15.85 7.55 16.9 L8.75 15.4 12.4 11.45 M26.4 8.25 L29.15 8.65 Q27.1 8.55 23.3 10.55 L22.85 10.8 21.65 11.45 21.4 11.6 21.3 11.7 21.0 11.85 Q14.95 15.4 12.65 19.05 L18.6 15.6 18.2 15.8 Q20.15 14.35 22.5 14.4 21.0 15.55 19.45 17.0 17.6 18.75 16.1 20.9 14.5 23.2 13.35 25.7 L10.95 30.85 10.95 30.75 9.75 32.6 9.5 33.0 8.2 34.05 11.9 24.3 9.7 27.1 10.55 25.1 Q11.85 22.55 13.65 20.2 L9.75 23.15 11.4 19.7 10.15 21.8 6.85 26.5 7.0 25.6 Q7.5 23.3 8.35 21.15 9.55 19.4 10.9 17.85 L14.0 14.2 14.6 13.7 14.3 13.9 16.05 12.6 Q18.25 11.05 20.75 9.75 23.4 8.4 26.4 8.25 M35.85 17.75 Q34.65 18.05 33.75 18.7 L30.15 22.4 31.2 21.5 Q32.85 20.15 35.0 19.2 L38.15 18.1 40.05 17.65 40.7 18.0 38.9 19.8 34.7 23.1 31.65 24.25 Q29.1 24.7 26.55 25.65 L27.7 24.6 25.5 25.95 25.35 26.0 Q22.95 27.15 20.55 27.65 22.5 25.4 24.95 23.95 L21.65 25.1 Q23.45 23.35 25.2 22.05 27.6 20.3 30.25 19.1 32.95 18.0 35.85 17.75 M27.0 27.0 L25.9 27.55 23.8 28.45 24.35 28.4 Q26.4 28.15 28.1 27.4 L27.7 27.7 23.9 29.4 20.15 28.75 21.15 28.75 23.05 28.3 23.9 28.05 27.0 27.0 M18.45 27.95 L18.05 27.95 Q18.8 28.55 19.9 29.15 L20.0 29.2 Q18.6 32.35 18.4 35.6 L19.4 34.35 19.6 35.2 20.3 38.45 20.1 40.35 18.7 36.1 17.8 38.7 18.15 39.35 18.7 37.95 19.3 38.75 19.35 38.95 20.05 42.15 14.25 36.5 14.25 38.4 14.35 40.8 Q13.7 39.6 13.35 38.1 L13.35 39.35 12.95 38.8 Q12.2 37.35 11.9 35.9 13.8 34.95 15.2 33.45 L15.85 32.85 16.65 31.45 17.75 38.65 17.4 29.8 17.05 30.15 16.85 30.4 12.8 34.45 Q11.55 35.6 10.05 36.1 L12.2 33.65 15.0 29.9 16.05 28.6 Q16.75 27.8 17.75 27.05 L16.85 28.8 19.4 25.3 19.15 26.25 18.45 27.95 M26.4 30.1 L26.5 30.1 28.8 29.8 29.8 29.4 28.2 30.5 27.0 31.05 Q24.05 32.4 22.15 32.35 L22.05 32.65 20.85 32.45 19.45 31.45 21.3 31.5 Q24.05 31.35 26.4 30.1 M12.0 32.8 Q12.35 30.9 13.05 29.1 13.95 26.7 15.65 24.9 L18.5 22.1 18.95 22.2 18.05 23.4 14.95 27.9 12.0 32.8 M20.8 39.5 L23.05 42.6 20.85 42.45 20.8 39.5" fill="#ac811e" fill-rule="evenodd" stroke="none"/>
      <path d="M36.55 6.9 Q38.45 7.0 39.5 8.5 L40.1 9.55 39.25 9.1 37.15 7.5 36.55 6.9 M40.8 7.85 Q38.8 6.75 36.2 5.75 L34.45 5.2 Q37.2 5.05 39.45 6.55 L40.8 7.85 M34.1 24.85 L34.7 24.7 34.55 25.45 32.75 26.75 Q31.7 27.55 30.4 28.0 L29.95 27.95 31.0 26.95 31.6 26.45 32.0 26.2 28.85 26.85 Q30.15 26.1 31.65 25.5 L35.7 23.15 34.1 24.85 M25.15 13.8 Q26.1 12.95 27.35 12.3 28.8 11.6 30.35 11.4 L25.0 12.3 22.2 13.15 22.8 12.7 Q24.95 11.4 27.2 10.7 29.95 10.0 32.75 11.2 L35.05 12.6 30.35 12.25 25.15 13.8 M33.4 13.6 L30.45 14.15 26.45 15.65 Q27.5 14.65 28.7 13.85 31.0 12.2 33.4 13.6 M30.4 15.45 Q32.1 14.45 34.1 15.05 L29.2 16.25 30.4 15.45 M37.85 24.55 L37.7 24.85 Q36.1 27.15 33.95 28.5 L35.9 25.75 Q37.3 23.75 37.85 24.55" fill="#fffcf7" fill-rule="evenodd" stroke="none"/>
    </g>
  </defs>
</svg>
