<?xml version="1.0" encoding="UTF-8" standalone="no"?>
<svg xmlns:ffdec="https://www.free-decompiler.com/flash" xmlns:xlink="http://www.w3.org/1999/xlink" ffdec:objectType="frame" height="44.5px" width="55.55px" xmlns="http://www.w3.org/2000/svg">
  <g transform="matrix(1.0, 0.0, 0.0, 1.0, 27.5, 29.45)">
    <use ffdec:characterId="2" height="39.75" transform="matrix(1.0255, 0.0, 0.0, 1.0615, 0.3, -1.5)" width="49.75" xlink:href="#sprite0"/>
    <use ffdec:characterId="4" height="13.0" transform="matrix(1.1409, 0.0, 0.0, 1.1409, 10.55, -4.45)" width="13.85" xlink:href="#sprite1"/>
    <use ffdec:characterId="6" height="19.1" transform="matrix(1.0, 0.0, 0.0, 1.0, 20.7, -20.35)" width="15.5" xlink:href="#sprite2"/>
    <use ffdec:characterId="4" height="13.0" transform="matrix(-1.1409, 0.0, 0.0, 1.1409, -10.35, -4.5)" width="13.85" xlink:href="#sprite1"/>
    <use ffdec:characterId="6" height="19.1" transform="matrix(-1.0, 0.0, 0.0, 1.0, -20.15, -20.35)" width="15.5" xlink:href="#sprite2"/>
    <use ffdec:characterId="8" height="3.45" transform="matrix(1.0, 0.0, 0.0, 1.0, 0.3, 5.1)" width="6.7" xlink:href="#sprite3"/>
    <use ffdec:characterId="10" height="11.45" transform="matrix(1.0, 0.0, 0.0, 1.0, 17.45, -18.45)" width="9.35" xlink:href="#sprite4"/>
    <use ffdec:characterId="10" height="11.45" transform="matrix(-1.0, 0.0, 0.0, 1.0, -16.7, -18.85)" width="9.35" xlink:href="#sprite4"/>
    <use ffdec:characterId="12" height="4.1" transform="matrix(1.0, 0.0, 0.0, 1.0, 0.4, 8.1)" width="15.35" xlink:href="#sprite5"/>
  </g>
  <defs>
    <g id="sprite0">
      <use ffdec:characterId="1" height="39.75" transform="matrix(1.0, 0.0, 0.0, 1.0, 0.0, 0.0)" width="49.75" xlink:href="#shape0"/>
    </g>
    <g id="shape0">
      <path d="M-1.45 -23.65 L-2.55 -23.4 Q-5.1 -22.7 -7.4 -21.55 -9.4 -20.5 -11.25 -19.8 L-11.4 -18.85 Q-11.8 -16.35 -13.15 -14.6 -14.3 -13.1 -15.8 -11.95 -17.5 -10.6 -19.15 -9.8 -19.3 -8.0 -18.85 -6.25 -18.15 -3.65 -17.75 -0.95 L-18.45 -0.25 -16.85 0.55 -17.7 1.2 -16.05 1.9 -16.3 2.85 -16.1 2.9 -14.8 2.45 Q-14.9 4.7 -14.0 6.6 -13.15 8.45 -8.65 9.95 L-8.0 10.15 -5.5 10.55 Q0.3 11.0 5.5 9.8 10.7 8.6 13.2 7.65 15.7 6.65 16.4 3.6 17.05 0.55 16.5 -0.55 L18.5 -0.1 17.4 -2.05 18.05 -2.4 18.8 -2.95 19.5 -3.6 19.1 -3.8 19.5 -4.45 18.25 -5.5 18.55 -6.35 Q18.95 -7.65 19.0 -9.05 17.85 -9.65 16.7 -10.55 15.05 -11.8 13.8 -13.45 12.75 -14.85 12.15 -16.55 L11.2 -19.8 7.1 -21.6 Q4.85 -22.4 2.7 -22.85 L-1.45 -23.65 Q2.2 -23.9 5.45 -23.0 L10.95 -21.3 Q13.2 -20.45 14.35 -19.55 L16.35 -17.9 19.5 -14.25 Q21.6 -11.55 22.25 -8.8 L23.1 -4.3 23.25 -2.8 Q22.85 -0.45 21.15 1.35 L20.95 1.5 20.7 1.4 Q20.65 2.65 20.9 3.95 L19.95 3.8 19.4 5.65 19.3 6.05 17.45 5.95 17.45 6.75 17.35 7.3 17.15 7.7 16.7 7.85 15.65 7.3 Q13.45 10.25 9.7 11.2 L1.85 13.0 -5.35 13.2 -10.9 12.45 -14.25 11.5 -15.25 9.5 -17.2 9.4 -17.15 8.8 -17.2 7.95 -17.3 7.6 -17.6 7.25 -18.9 7.75 -20.1 4.6 -20.4 5.85 Q-22.25 2.0 -22.7 -2.25 -22.95 -4.9 -22.8 -7.55 L-22.4 -9.05 Q-21.3 -12.6 -18.8 -15.9 L-17.2 -17.45 -16.95 -17.7 Q-15.0 -19.6 -12.55 -20.85 L-10.9 -21.6 -9.45 -22.1 Q-5.25 -23.45 -1.45 -23.65" fill="#f2c5cf" fill-rule="evenodd" stroke="none"/>
      <path d="M-1.45 -23.65 L2.7 -22.85 Q4.85 -22.4 7.1 -21.6 L11.2 -19.8 12.15 -16.55 Q12.75 -14.85 13.8 -13.45 15.05 -11.8 16.7 -10.55 17.85 -9.65 19.0 -9.05 18.95 -7.65 18.55 -6.35 L18.25 -5.5 19.5 -4.45 19.1 -3.8 19.5 -3.6 18.8 -2.95 18.05 -2.4 17.4 -2.05 18.5 -0.1 16.5 -0.55 Q17.05 0.55 16.4 3.6 15.7 6.65 13.2 7.65 10.7 8.6 5.5 9.8 0.3 11.0 -5.5 10.55 L-8.0 10.15 -8.65 9.95 Q-13.15 8.45 -14.0 6.6 -14.9 4.7 -14.8 2.45 L-16.1 2.9 -16.3 2.85 -16.05 1.9 -17.7 1.2 -16.85 0.55 -18.45 -0.25 -17.75 -0.95 Q-18.15 -3.65 -18.85 -6.25 -19.3 -8.0 -19.15 -9.8 -17.5 -10.6 -15.8 -11.95 -14.3 -13.1 -13.15 -14.6 -11.8 -16.35 -11.4 -18.85 L-11.25 -19.8 Q-9.4 -20.5 -7.4 -21.55 -5.1 -22.7 -2.55 -23.4 L-1.45 -23.65" fill="#ffffff" fill-rule="evenodd" stroke="none"/>
      <path d="M-22.8 -7.55 Q-22.95 -4.9 -22.7 -2.25 -22.25 2.0 -20.4 5.85 L-20.1 4.6 -18.9 7.75 -17.6 7.25 -17.3 7.6 -17.2 7.95 -17.15 8.8 -17.2 9.4 -15.25 9.5 -14.25 11.5 -10.9 12.45 -5.35 13.2 1.85 13.0 9.7 11.2 Q13.45 10.25 15.65 7.3 L16.7 7.85 17.15 7.7 17.35 7.3 17.45 6.75 17.45 5.95 19.3 6.05 19.4 5.65 19.95 3.8 20.9 3.95 Q20.65 2.65 20.7 1.4 L20.95 1.5 21.15 1.35 Q22.85 -0.45 23.25 -2.8 23.75 0.2 23.7 3.25 L24.75 4.2 23.8 4.65 24.45 6.4 23.4 6.95 23.9 8.75 21.15 9.05 21.55 11.15 18.95 10.65 18.3 11.6 16.6 11.95 15.65 13.35 13.55 12.55 Q12.35 13.1 11.0 13.25 L7.6 14.05 0.95 15.5 -4.2 15.45 -12.0 13.7 Q-16.2 12.45 -17.55 12.85 -18.9 11.5 -20.05 11.75 L-20.5 10.05 -21.05 10.1 -21.45 9.9 -22.4 7.45 -24.25 7.0 Q-23.3 5.55 -23.3 3.95 L-23.25 -1.75 -22.8 -7.55" fill="#eb9aac" fill-rule="evenodd" stroke="none"/>
      <path d="M16.0 -18.1 Q14.1 -19.75 11.65 -20.9 10.65 -21.25 9.7 -21.75 7.05 -22.8 4.15 -23.15 L1.1 -23.35 -3.25 -23.15 -6.2 -22.6 Q-8.3 -22.1 -10.25 -21.25 -13.7 -19.8 -16.5 -17.45 -20.05 -14.6 -21.15 -9.95 L-22.1 -5.2 -22.7 -0.9 Q-23.05 2.25 -22.55 5.45 L-23.85 7.05 Q-22.5 7.2 -21.5 7.85 L-21.45 9.7 -19.55 10.25 -19.85 11.75 -17.9 11.6 -17.75 12.55 -16.2 12.45 -15.5 12.65 Q-14.65 12.85 -13.7 13.2 L-10.5 13.95 -4.9 14.5 2.55 14.55 6.95 14.0 10.8 13.2 14.8 11.8 14.15 12.2 13.45 12.5 15.9 12.95 17.1 11.2 18.15 11.6 18.75 10.1 19.35 10.5 21.35 10.95 20.85 8.95 23.25 8.5 22.95 6.8 24.5 6.4 23.65 4.7 24.45 4.35 23.2 3.3 23.15 1.9 22.7 -3.55 Q22.35 -6.3 21.6 -8.95 20.9 -11.6 19.45 -14.0 18.05 -16.25 16.0 -18.1 M15.35 -19.65 Q17.4 -18.0 18.95 -15.9 L20.25 -13.8 Q22.15 -10.6 23.15 -7.1 23.85 -4.7 23.95 -2.35 L23.95 2.85 25.45 4.25 24.2 4.95 25.3 6.55 23.65 7.3 24.15 9.35 21.45 9.5 22.1 11.55 19.35 11.1 18.1 12.7 17.2 11.95 16.2 13.65 15.4 13.4 12.75 12.85 7.7 14.9 2.6 15.55 -1.5 15.6 -6.8 15.35 -10.6 14.5 Q-13.1 14.0 -15.25 12.9 L-15.9 13.1 -17.2 13.35 -18.05 13.2 -18.05 13.05 -18.1 12.9 -18.6 12.25 -20.35 12.3 -20.4 10.5 -22.35 10.3 -22.15 8.4 -24.3 7.2 Q-23.65 4.85 -23.6 2.45 L-23.45 -3.35 Q-23.4 -5.95 -22.5 -8.75 -21.65 -11.6 -19.95 -14.3 -18.3 -17.0 -16.15 -18.6 -14.0 -20.25 -11.35 -21.5 -8.7 -22.75 -5.85 -23.3 L0.05 -24.1 5.25 -23.7 11.0 -22.05 Q13.35 -21.2 15.35 -19.65" fill="#000000" fill-rule="evenodd" stroke="none"/>
    </g>
    <g id="sprite1">
      <use ffdec:characterId="3" height="13.0" transform="matrix(1.0, 0.0, 0.0, 1.0, 0.0, 0.0)" width="13.85" xlink:href="#shape1"/>
    </g>
    <g id="shape1">
      <path d="M2.35 -5.45 Q4.9 -3.9 6.35 -1.3 7.0 -0.25 7.0 0.8 6.95 3.8 4.45 5.3 1.95 6.8 -0.9 6.55 -3.9 6.05 -5.55 3.6 -7.3 1.15 -6.65 -1.9 -6.0 -4.85 -3.05 -6.0 -0.15 -7.0 2.35 -5.45" fill="#b8104d" fill-rule="evenodd" stroke="none"/>
      <path d="M2.5 -0.85 Q2.5 0.6 1.5 1.6 0.5 2.6 -0.95 2.6 -2.4 2.6 -3.4 1.6 -4.4 0.6 -4.4 -0.85 -4.4 -2.3 -3.4 -3.3 -2.4 -4.3 -0.95 -4.3 0.5 -4.3 1.5 -3.3 2.5 -2.3 2.5 -0.85 M1.7 -0.85 Q1.7 -1.95 0.95 -2.7 0.2 -3.5 -0.95 -3.5 -2.05 -3.5 -2.8 -2.7 -3.6 -1.95 -3.6 -0.85 -3.6 0.3 -2.8 1.05 -2.05 1.8 -0.95 1.8 0.2 1.8 0.95 1.05 1.7 0.3 1.7 -0.85" fill="#ffffff" fill-rule="evenodd" stroke="none"/>
    </g>
    <g id="sprite2">
      <use ffdec:characterId="5" height="19.1" transform="matrix(1.0, 0.0, 0.0, 1.0, 0.0, 0.0)" width="15.5" xlink:href="#shape2"/>
    </g>
    <g id="shape2">
      <path d="M-6.6 -6.2 L-5.45 -7.0 Q-3.45 -8.25 -1.95 -8.25 L0.5 -8.1 Q1.45 -7.9 3.05 -6.85 4.6 -5.8 6.0 -3.9 L5.75 -2.0 5.55 -0.85 4.4 -3.85 4.3 -2.5 3.1 -4.6 3.05 -3.85 2.9 -3.9 1.4 -5.5 1.3 -4.95 Q-0.3 -6.0 -2.05 -5.75 L-5.1 -5.25 -4.25 -6.0 -5.5 -6.0 -4.85 -6.5 -4.2 -6.75 -6.6 -6.2" fill="#ffa2b5" fill-rule="evenodd" stroke="none"/>
      <path d="M-6.6 -6.2 L-4.2 -6.75 -4.85 -6.5 -5.5 -6.0 -4.25 -6.0 -5.1 -5.25 -2.05 -5.75 Q-0.3 -6.0 1.3 -4.95 L1.4 -5.5 2.9 -3.9 3.05 -3.85 3.1 -4.6 4.3 -2.5 4.4 -3.85 5.55 -0.85 5.75 -2.0 6.0 -3.9 6.9 -1.95 7.2 -0.75 7.25 -0.55 Q7.45 0.65 7.3 1.85 L7.1 2.5 6.3 1.75 5.75 4.25 5.55 5.0 4.8 3.6 4.3 5.35 Q3.65 6.9 1.85 7.35 L1.5 7.45 1.45 7.35 1.1 6.35 2.55 6.55 1.35 4.8 3.4 4.55 1.65 3.85 Q3.3 1.55 2.5 -0.85 1.65 -3.3 -0.2 -4.45 -2.05 -5.65 -4.1 -4.15 -6.15 -2.7 -6.55 0.05 L-6.9 -0.5 -7.2 -1.15 -7.7 -3.35 Q-7.55 -5.0 -6.6 -6.15 L-6.6 -6.2 M-3.1 4.35 L-5.3 1.8 Q-5.95 0.1 -3.9 -1.6 -1.85 -3.35 -0.2 -1.75 1.45 -0.2 0.6 1.4 L-0.75 2.15 -0.15 2.65 -0.9 2.85 0.2 3.7 -0.9 3.95 -0.2 4.6 Q-1.65 5.35 -3.1 4.35" fill="#ff6685" fill-rule="evenodd" stroke="none"/>
      <path d="M7.3 1.85 Q7.1 3.4 6.25 4.85 4.95 7.1 2.6 8.05 L2.95 9.75 1.65 9.5 -0.7 7.2 -3.1 4.35 Q-1.65 5.35 -0.2 4.6 L-0.9 3.95 0.2 3.7 -0.9 2.85 -0.15 2.65 -0.75 2.15 0.6 1.4 Q1.45 -0.2 -0.2 -1.75 -1.85 -3.35 -3.9 -1.6 -5.95 0.1 -5.3 1.8 L-5.4 1.7 -6.45 0.25 -6.55 0.05 Q-6.15 -2.7 -4.1 -4.15 -2.05 -5.65 -0.2 -4.45 1.65 -3.3 2.5 -0.85 3.3 1.55 1.65 3.85 L3.4 4.55 1.35 4.8 2.55 6.55 1.1 6.35 1.45 7.35 1.5 7.45 1.85 7.35 Q3.65 6.9 4.3 5.35 L4.8 3.6 5.55 5.0 5.75 4.25 6.3 1.75 7.1 2.5 7.3 1.85" fill="#a6223d" fill-rule="evenodd" stroke="none"/>
      <path d="M2.7 -0.15 Q2.7 2.05 1.55 3.0 0.95 3.55 -0.2 3.75 L-0.7 3.7 -1.7 3.3 Q0.2 2.95 1.0 2.2 1.7 1.45 1.7 0.0 1.7 -1.7 0.45 -3.25 -0.8 -4.75 -2.2 -4.75 -2.85 -4.75 -4.0 -3.15 L-5.25 -1.0 Q-5.4 -0.25 -5.45 -1.2 -5.15 -2.65 -4.05 -3.95 -2.85 -5.35 -1.7 -5.35 0.6 -5.35 1.9 -2.8 2.55 -1.5 2.7 -0.15 M6.6 0.2 Q6.6 -2.95 4.3 -5.5 1.85 -8.15 -1.5 -8.15 -3.8 -8.15 -5.65 -6.65 -7.65 -5.1 -7.6 -3.0 L-7.55 -1.65 Q-8.15 -2.15 -8.15 -3.15 -8.15 -5.65 -5.9 -7.5 -3.95 -9.1 -2.0 -9.1 2.35 -9.1 4.9 -6.15 7.35 -3.25 7.35 1.3 7.35 4.1 5.35 6.25 3.35 8.4 3.35 8.8 3.35 9.4 3.75 9.55 L4.35 10.0 2.2 10.0 1.55 9.4 2.9 9.4 1.8 8.35 Q4.75 6.65 5.8 4.65 6.6 3.1 6.6 0.2" fill="#000000" fill-rule="evenodd" stroke="none"/>
    </g>
    <g id="sprite3">
      <use ffdec:characterId="7" height="3.45" transform="matrix(1.0, 0.0, 0.0, 1.0, 0.0, 0.0)" width="6.7" xlink:href="#shape3"/>
    </g>
    <g id="shape3">
      <path d="M3.35 -0.65 L3.3 -0.05 3.0 1.1 -2.85 1.3 -3.35 -0.45 Q-0.25 -2.85 3.35 -0.65" fill="#b8104d" fill-rule="evenodd" stroke="none"/>
    </g>
    <g id="sprite4">
      <use ffdec:characterId="9" height="11.45" transform="matrix(1.0, 0.0, 0.0, 1.0, 0.0, 0.0)" width="9.35" xlink:href="#shape4"/>
    </g>
    <g id="shape4">
      <path d="M-3.85 -5.75 L-3.05 -2.35 -1.8 -2.9 -1.1 -3.1 -0.4 -3.35 -1.0 -1.3 2.25 -0.1 Q1.45 0.45 0.6 0.95 1.6 1.7 4.7 2.15 2.0 3.05 2.8 5.7 -3.2 1.25 -4.65 -2.6 L-3.85 -5.75" fill="#f2c5cf" fill-rule="evenodd" stroke="none"/>
    </g>
    <g id="sprite5">
      <use ffdec:characterId="11" height="4.1" transform="matrix(1.0, 0.0, 0.0, 1.0, 0.0, 0.0)" width="15.35" xlink:href="#shape5"/>
    </g>
    <g id="shape5">
      <path d="M7.55 -1.8 Q8.0 -0.85 7.15 0.4 L6.4 1.2 Q4.25 2.5 2.1 1.6 1.0 1.1 -0.1 0.05 -1.6 1.5 -3.25 1.85 L-6.15 2.0 Q-7.35 1.8 -7.55 0.95 -7.75 0.05 -7.45 -0.55 L-6.5 -1.8 -6.15 -1.7 Q-7.6 -0.05 -7.3 0.65 -6.7 2.25 -3.7 1.3 -0.65 0.3 0.05 -2.0 0.35 -0.2 1.25 0.3 2.1 0.8 4.45 0.95 6.8 1.05 7.05 -1.1 L6.8 -2.05 7.55 -1.8" fill="#b8104d" fill-rule="evenodd" stroke="none"/>
    </g>
  </defs>
</svg>
