<?xml version="1.0" encoding="UTF-8" standalone="no"?>
<svg xmlns:ffdec="https://www.free-decompiler.com/flash" xmlns:xlink="http://www.w3.org/1999/xlink" ffdec:objectType="frame" height="60.3px" width="52.5px" xmlns="http://www.w3.org/2000/svg">
  <g transform="matrix(1.0, 0.0, 0.0, 1.0, 26.2, 43.15)">
    <use ffdec:characterId="11" height="2.7" transform="matrix(1.0, 0.0, 0.0, 1.0, 0.0, -4.0)" width="9.0" xlink:href="#shape0"/>
    <use ffdec:characterId="5" height="52.8" transform="matrix(0.9362, 0.0977, 0.0, 1.0, -11.9, -10.5)" width="25.6" xlink:href="#sprite0"/>
    <use ffdec:characterId="5" height="52.8" transform="matrix(-0.9362, 0.0859, 0.0, 1.0, 11.95, -10.5)" width="25.6" xlink:href="#sprite0"/>
    <use ffdec:characterId="7" height="36.4" transform="matrix(1.062, 0.0, 0.0, 1.0989, -13.4, -6.25)" width="24.25" xlink:href="#sprite1"/>
    <use ffdec:characterId="7" height="36.4" transform="matrix(-1.0703, 0.0, 0.0, 1.0989, 13.35, -6.25)" width="24.25" xlink:href="#sprite1"/>
    <use ffdec:characterId="9" height="52.4" transform="matrix(1.0, 0.0, 0.0, 1.0, -0.2, -14.2)" width="41.7" xlink:href="#sprite2"/>
  </g>
  <defs>
    <g id="shape0">
      <path d="M4.3 15.05 Q-0.3 14.75 -3.9 15.2 L-4.35 14.5 Q3.1 14.25 4.65 12.5 L4.3 15.05" fill="#000000" fill-rule="evenodd" stroke="none"/>
    </g>
    <g id="sprite0">
      <use ffdec:characterId="4" height="52.8" transform="matrix(1.0, 0.0, 0.0, 1.0, 0.0, 0.0)" width="25.6" xlink:href="#shape1"/>
    </g>
    <g id="shape1">
      <path d="M12.85 15.1 L12.85 16.55 Q3.05 17.0 3.95 21.95 3.9 24.1 5.2 25.85 L3.45 25.75 2.4 25.55 -0.8 24.9 Q-6.15 23.7 -9.0 18.75 -11.2 14.95 -11.8 7.55 L-11.3 9.3 Q-10.1 12.55 -8.25 15.6 -6.1 19.05 -2.15 20.0 L1.35 20.65 1.55 19.7 Q2.7 16.0 7.0 15.35 L12.85 15.1" fill="#031022" fill-rule="evenodd" stroke="none"/>
      <path d="M-4.3 -18.25 Q1.25 -22.5 12.65 -25.6 L12.75 -25.65 12.85 13.6 9.6 13.5 Q5.75 13.0 2.2 11.2 -1.35 9.55 -3.9 6.5 -6.35 3.6 -6.85 -0.25 -7.35 -4.15 -6.85 -8.15 -6.3 -12.15 -5.1 -15.95 L-4.3 -18.25" fill="#434148" fill-rule="evenodd" stroke="none"/>
      <path d="M12.85 13.6 L12.85 15.1 7.0 15.35 Q2.7 16.0 1.55 19.7 L1.35 20.65 -2.15 20.0 Q-6.1 19.05 -8.25 15.6 -10.1 12.55 -11.3 9.3 L-11.8 7.55 -12.05 2.45 Q-12.25 -8.9 -7.45 -15.2 -6.2 -16.8 -4.3 -18.25 L-5.1 -15.95 Q-6.3 -12.15 -6.85 -8.15 -7.35 -4.15 -6.85 -0.25 -6.35 3.6 -3.9 6.5 -1.35 9.55 2.2 11.2 5.75 13.0 9.6 13.5 L12.85 13.6" fill="#27262e" fill-rule="evenodd" stroke="none"/>
      <path d="M12.75 -26.4 L12.75 -24.6 Q3.2 -24.05 -3.15 -18.1 -9.55 -12.2 -10.9 -6.7 -12.3 -1.25 -11.5 5.85 -10.7 12.9 -8.45 19.55 -2.3 25.5 4.0 25.05 1.35 19.0 4.5 17.85 7.65 16.65 12.85 15.65 L12.85 16.85 Q8.1 17.4 4.3 19.6 3.9 20.1 4.3 21.9 L4.9 24.0 5.5 25.1 6.2 26.1 6.35 26.4 Q1.3 26.45 -3.85 24.45 -9.0 22.4 -10.15 19.0 -11.3 15.55 -12.35 7.95 -13.4 0.35 -11.75 -7.0 -10.15 -14.4 -2.55 -20.35 5.05 -26.3 12.75 -26.4" fill="#000000" fill-rule="evenodd" stroke="none"/>
    </g>
    <g id="sprite1">
      <use ffdec:characterId="6" height="36.4" transform="matrix(1.0, 0.0, 0.0, 1.0, 0.0, 0.0)" width="24.25" xlink:href="#shape2"/>
    </g>
    <g id="shape2">
      <path d="M4.9 -7.65 L5.5 -7.8 6.8 -6.4 8.5 -4.4 9.05 -2.15 9.7 2.15 9.15 2.95 5.8 5.75 5.25 6.2 5.2 3.6 5.2 2.3 Q7.0 1.55 9.1 -0.05 7.05 -0.7 5.0 -3.05 L4.9 -7.65 M-3.3 4.2 L-3.15 4.1 -3.45 4.0 Q-6.0 1.05 -6.55 -2.8 -7.15 -6.6 -6.75 -10.45 -6.5 -12.9 -5.5 -15.0 L-5.35 -11.35 -3.35 -13.9 -2.25 -9.15 -1.4 -13.85 Q-0.9 -10.25 0.8 -8.8 L0.5 -6.4 0.35 -4.95 -0.2 -4.95 Q-2.0 -5.0 -4.2 -7.6 -4.35 -0.85 -0.9 2.0 L-0.15 2.5 -0.2 5.1 -0.2 7.1 -3.25 4.25 -3.3 4.2" fill="#ffd949" fill-rule="evenodd" stroke="none"/>
      <path d="M5.0 -3.05 Q7.05 -0.7 9.1 -0.05 7.0 1.55 5.2 2.3 L-0.15 2.5 -0.9 2.0 Q-4.35 -0.85 -4.2 -7.6 -2.0 -5.0 -0.2 -4.95 L0.35 -4.95 3.25 -5.4 5.0 -3.05 M5.25 6.2 L5.8 5.75 9.15 2.95 9.7 2.15 9.05 -2.15 8.5 -4.4 10.1 -2.2 11.35 -0.15 Q10.8 0.65 9.75 2.8 L9.1 4.25 Q8.15 6.3 5.25 7.85 L2.7 8.95 0.9 9.55 -0.9 7.15 -3.9 9.3 Q-6.25 11.15 -4.45 16.95 -7.85 13.5 -8.0 9.8 -8.15 6.1 -3.3 4.2 L-3.25 4.25 -0.2 7.1 1.25 8.1 Q3.4 7.45 5.25 6.2 M-3.45 4.0 L-7.2 1.85 Q-10.55 -0.25 -12.0 -6.95 L-7.45 -6.15 Q-9.65 -13.15 -5.25 -16.95 L-5.5 -15.0 Q-6.5 -12.9 -6.75 -10.45 -7.15 -6.6 -6.55 -2.8 -6.0 1.05 -3.45 4.0" fill="#ba811a" fill-rule="evenodd" stroke="none"/>
      <path d="M4.9 -7.65 L5.0 -3.05 3.25 -5.4 0.35 -4.95 0.5 -6.4 0.8 -8.8 1.05 -8.6 Q2.75 -7.3 4.9 -7.65 M5.2 2.3 L5.2 3.6 5.25 6.2 Q3.4 7.45 1.25 8.1 L-0.2 7.1 -0.2 5.1 -0.15 2.5 5.2 2.3" fill="#fff7db" fill-rule="evenodd" stroke="none"/>
      <path d="M5.8 -7.45 Q1.5 -6.1 -0.55 -9.65 L-1.5 -12.5 -1.65 -8.7 -1.15 -7.45 Q-3.2 -9.35 -3.3 -12.25 L-3.35 -13.45 Q-5.2 -11.8 -4.6 -8.65 -7.15 -12.65 -5.55 -16.4 -9.5 -12.15 -6.8 -5.4 -9.75 -5.7 -11.65 -6.75 -10.65 -2.55 -7.45 -1.8 L-6.2 -1.55 -9.65 -1.3 Q-7.1 2.4 -0.65 4.55 -7.2 4.55 -7.65 11.1 -7.8 13.75 -4.5 16.65 -6.9 10.85 -4.35 8.95 -1.75 7.0 -0.95 7.0 L0.85 9.05 Q5.75 8.15 8.05 5.1 10.3 2.05 11.0 -0.75 L5.8 -7.45 M5.9 -8.75 Q8.25 -4.85 10.6 -2.5 L12.15 -1.1 Q11.55 2.05 8.7 5.7 5.85 9.35 0.6 10.1 L-1.15 7.75 Q-5.95 10.15 -4.45 14.5 L-3.1 18.2 Q-8.25 15.6 -8.4 11.7 -8.55 7.75 -6.85 6.1 -5.15 4.4 -4.25 4.15 -8.75 2.1 -10.45 -1.35 -12.15 -4.8 -12.1 -7.75 L-7.75 -6.35 Q-9.6 -11.25 -7.95 -13.9 -6.3 -16.6 -4.5 -18.2 -5.6 -15.4 -5.05 -12.4 L-3.85 -13.9 -2.7 -15.0 Q-3.05 -13.2 -2.4 -10.6 -2.65 -12.45 -1.2 -16.05 -1.1 -10.55 1.25 -8.7 3.6 -6.9 5.9 -8.75" fill="#000000" fill-rule="evenodd" stroke="none"/>
      <path d="M7.45 0.6 Q2.55 4.85 -0.9 2.0 -4.35 -0.85 -3.85 -5.3 -2.55 -3.2 -0.8 -2.9 0.9 -2.65 2.4 -3.45 4.55 0.0 7.45 0.6" fill="#0d1632" fill-rule="evenodd" stroke="none"/>
      <path d="M9.0 0.2 Q6.6 3.0 2.6 4.25 -5.95 2.85 -4.45 -7.45 -2.75 -4.5 -1.3 -4.1 0.15 -3.75 2.6 -4.7 5.2 -0.4 9.0 0.2 M7.45 0.6 Q4.55 0.0 2.4 -3.45 0.9 -2.65 -0.8 -2.9 -2.55 -3.2 -3.85 -5.3 -4.35 -0.85 -0.9 2.0 2.55 4.85 7.45 0.6" fill="#ff0000" fill-rule="evenodd" stroke="none"/>
    </g>
    <g id="sprite2">
      <use ffdec:characterId="8" height="52.4" transform="matrix(1.0, 0.0, 0.0, 1.0, 0.0, 0.0)" width="41.7" xlink:href="#shape3"/>
    </g>
    <g id="shape3">
      <path d="M3.4 -15.15 L7.9 -18.3 8.35 -18.2 8.7 -17.95 8.8 -15.05 10.65 -16.3 10.7 -16.35 Q12.25 -17.65 16.0 -25.8 L16.35 -25.4 17.35 -24.1 Q18.05 -23.35 18.1 -21.35 18.1 -19.35 16.35 -17.2 14.55 -15.1 13.15 -14.5 L10.7 -12.8 7.6 -10.1 Q7.1 -13.5 7.25 -15.75 L6.1 -14.5 Q4.55 -12.65 3.55 -10.45 2.35 -7.9 0.05 3.15 -3.2 -10.1 -6.25 -13.5 -6.45 -11.75 -7.25 -10.25 -9.9 -12.15 -14.85 -14.9 L-15.2 -15.3 Q-16.65 -16.65 -17.3 -18.6 -17.9 -20.3 -17.75 -22.2 L-17.35 -24.35 -15.85 -25.65 -12.15 -17.5 Q-10.9 -15.2 -8.75 -15.45 L-8.7 -18.5 -4.85 -16.35 -4.9 -16.4 -4.85 -16.35 -4.7 -16.25 -4.15 -15.9 -3.3 -14.5 0.15 -9.35 3.4 -15.15 M0.0 -19.25 Q0.9 -19.25 0.8 -23.0 0.8 -23.9 0.05 -23.35 -0.75 -22.75 -0.75 -21.15 -1.0 -19.25 0.0 -19.25 M16.7 -20.3 Q16.7 -21.75 15.95 -22.85 15.2 -23.95 15.05 -21.05 14.95 -19.7 12.95 -17.7 L10.95 -15.75 11.25 -15.45 Q12.85 -15.4 14.85 -17.4 16.7 -19.25 16.7 -20.3 M2.3 -20.2 L2.0 -19.4 Q1.2 -17.55 0.0 -16.3 L-0.95 -17.5 Q-1.6 -18.5 -1.8 -19.85 L-1.9 -21.25 0.2 -26.9 2.3 -20.2 M-16.45 -22.3 L-16.75 -20.15 -16.3 -18.15 Q-15.5 -16.3 -13.8 -16.3 L-12.9 -16.4 Q-12.65 -16.5 -12.65 -16.85 -12.65 -17.15 -14.0 -18.05 -15.3 -18.95 -15.05 -21.25 -15.9 -24.1 -16.45 -22.3 M2.2 -10.1 L2.0 -10.75 Q0.05 -7.8 -0.5 -6.5 -1.7 -9.35 -2.4 -9.35 -2.95 -9.35 -2.95 -8.65 -1.65 -4.55 -0.35 -4.55 0.75 -4.55 2.2 -10.1" fill="#ffd949" fill-rule="evenodd" stroke="none"/>
      <path d="M3.4 -15.15 L0.15 -9.35 -3.3 -14.5 -4.15 -15.9 -3.35 -15.4 Q-3.2 -17.4 -1.9 -21.25 L-1.8 -19.85 Q-1.6 -18.5 -0.95 -17.5 L0.0 -16.3 Q1.2 -17.55 2.0 -19.4 L2.3 -20.2 Q3.3 -16.7 3.35 -15.15 L3.4 -15.15 M-17.35 -24.35 L-17.75 -22.2 Q-17.9 -20.3 -17.3 -18.6 -16.65 -16.65 -15.2 -15.3 L-14.85 -14.9 Q-9.9 -12.15 -7.25 -10.25 -6.45 -11.75 -6.25 -13.5 -3.2 -10.1 0.05 3.15 2.35 -7.9 3.55 -10.45 4.55 -12.65 6.1 -14.5 L7.25 -15.75 Q7.1 -13.5 7.6 -10.1 L10.7 -12.8 13.15 -14.5 Q14.55 -15.1 16.35 -17.2 18.1 -19.35 18.1 -21.35 18.05 -23.35 17.35 -24.1 L16.35 -25.4 Q19.25 -22.25 20.25 -19.7 20.7 -17.8 19.7 -15.9 15.0 -12.85 13.2 -11.15 11.4 -9.5 10.5 -8.25 9.55 -7.0 9.5 -4.75 6.65 -6.7 6.1 -8.25 5.9 -8.8 5.95 -9.3 L6.1 -10.75 6.15 -11.1 5.0 -8.5 Q3.1 -4.15 2.35 1.0 1.3 7.85 0.8 14.75 -0.9 13.75 -1.1 10.05 -1.3 6.3 -2.35 0.5 -3.4 -5.35 -6.05 -10.9 -6.05 -6.8 -9.5 -4.6 -9.85 -9.5 -16.35 -13.2 L-16.4 -13.25 Q-23.0 -17.0 -18.8 -23.05 L-17.35 -24.35" fill="#ba811a" fill-rule="evenodd" stroke="none"/>
      <path d="M16.7 -20.3 Q16.7 -19.25 14.85 -17.4 12.85 -15.4 11.25 -15.45 L10.95 -15.75 12.95 -17.7 Q14.95 -19.7 15.05 -21.05 15.2 -23.95 15.95 -22.85 16.7 -21.75 16.7 -20.3 M0.0 -19.25 Q-1.0 -19.25 -0.75 -21.15 -0.75 -22.75 0.05 -23.35 0.8 -23.9 0.8 -23.0 0.9 -19.25 0.0 -19.25 M2.2 -10.1 Q0.75 -4.55 -0.35 -4.55 -1.65 -4.55 -2.95 -8.65 -2.95 -9.35 -2.4 -9.35 -1.7 -9.35 -0.5 -6.5 0.05 -7.8 2.0 -10.75 L2.2 -10.1 M-16.45 -22.3 Q-15.9 -24.1 -15.05 -21.25 -15.3 -18.95 -14.0 -18.05 -12.65 -17.15 -12.65 -16.85 -12.65 -16.5 -12.9 -16.4 L-13.8 -16.3 Q-15.5 -16.3 -16.3 -18.15 L-16.75 -20.15 -16.45 -22.3" fill="#fff7db" fill-rule="evenodd" stroke="none"/>
      <path d="M6.65 -17.1 L6.05 -16.7 5.45 -16.25 4.7 -15.65 Q3.35 -14.5 0.1 -8.4 -3.2 -14.4 -4.7 -15.65 L-5.45 -16.25 Q-7.05 -17.55 -8.45 -18.15 L-8.6 -14.3 Q-11.3 -15.15 -12.55 -17.7 L-16.0 -25.4 Q-23.95 -18.0 -16.65 -14.2 -9.35 -10.35 -9.25 -5.05 -5.7 -7.4 -6.55 -12.3 L-5.45 -10.3 Q-4.3 -7.85 -3.25 -4.3 -1.8 0.9 0.15 14.1 1.55 2.4 2.6 -2.55 3.5 -7.05 6.0 -11.35 L6.4 -12.05 6.35 -10.3 Q6.25 -7.05 9.25 -5.05 9.35 -10.35 16.65 -14.2 23.95 -18.0 16.0 -25.4 L12.55 -17.7 Q11.3 -15.15 8.6 -14.3 L8.45 -18.15 6.65 -17.1 M9.25 -15.7 Q13.05 -17.85 15.55 -26.7 25.15 -17.4 17.4 -13.75 9.7 -10.1 10.1 -3.75 7.5 -5.25 6.95 -6.0 6.45 -6.75 6.1 -7.8 5.75 -8.85 5.95 -10.0 L5.6 -8.75 Q2.8 0.6 2.15 5.9 L0.2 23.45 Q-1.65 8.7 -2.45 3.7 -3.15 -0.85 -5.45 -8.4 L-5.95 -10.0 Q-5.75 -8.85 -6.1 -7.8 -6.45 -6.75 -6.95 -6.0 -7.5 -5.25 -10.1 -3.75 -9.7 -10.1 -17.4 -13.75 -25.15 -17.4 -15.55 -26.7 -13.05 -17.85 -9.25 -15.7 L-9.05 -18.8 Q-7.1 -18.75 -5.45 -17.6 L-3.45 -15.75 Q-4.15 -18.95 -3.2 -21.05 L0.1 -28.95 3.1 -21.0 Q4.0 -18.95 3.45 -15.75 L5.45 -17.6 Q7.1 -18.75 9.05 -18.8 L9.25 -15.7 M0.25 -10.0 L2.45 -15.0 Q3.8 -17.95 0.1 -26.05 -3.7 -17.8 -2.45 -15.0 -1.4 -12.6 0.25 -10.0" fill="#000000" fill-rule="evenodd" stroke="none"/>
    </g>
  </defs>
</svg>
