<?xml version="1.0" encoding="UTF-8" standalone="no"?>
<svg xmlns:ffdec="https://www.free-decompiler.com/flash" xmlns:xlink="http://www.w3.org/1999/xlink" ffdec:objectType="frame" height="43.35px" width="54.1px" xmlns="http://www.w3.org/2000/svg">
  <g transform="matrix(1.0, 0.0, 0.0, 1.0, 26.85, 33.0)">
    <use ffdec:characterId="4" height="15.1" transform="matrix(1.0, 0.0, 0.0, 1.0, -26.85, -4.75)" width="12.2" xlink:href="#sprite0"/>
    <use ffdec:characterId="4" height="15.1" transform="matrix(-1.0, 0.0, 0.0, 1.0, 27.25, -4.75)" width="12.2" xlink:href="#sprite0"/>
    <use ffdec:characterId="4" height="15.1" transform="matrix(-0.7964, -0.6047, -0.6047, 0.7964, 9.3, -11.1)" width="12.2" xlink:href="#sprite0"/>
    <use ffdec:characterId="9" height="32.3" transform="matrix(1.0, 0.0, 0.0, 1.0, -26.0, -33.0)" width="51.65" xlink:href="#sprite1"/>
  </g>
  <defs>
    <g id="sprite0">
      <use ffdec:characterId="3" height="15.1" transform="matrix(1.0, 0.0, 0.0, 1.0, 0.0, 0.0)" width="12.2" xlink:href="#shape0"/>
    </g>
    <g id="shape0">
      <path d="M6.1 0.0 Q6.75 0.0 9.1 4.6 9.1 5.25 8.1 5.25 L10.4 8.4 10.15 8.9 7.9 9.25 Q7.9 10.45 7.5 11.7 7.05 13.25 6.3 13.25 6.0 13.25 5.4 10.9 L4.45 7.35 3.1 8.55 Q2.1 9.5 1.6 9.5 1.15 9.5 1.05 9.2 L1.0 8.85 2.25 6.25 Q3.45 3.4 3.45 1.85 3.45 1.2 3.95 0.7 4.65 0.0 6.1 0.0 M5.9 4.15 L5.2 2.6 Q4.9 2.7 4.9 2.95 4.9 4.2 5.85 6.2 L6.1 6.65 5.75 6.55 Q5.15 6.55 5.15 7.35 L5.8 9.05 6.6 10.8 Q7.05 10.8 7.05 9.75 7.05 8.6 6.6 7.6 L6.6 7.45 Q7.65 9.0 9.1 9.0 9.5 9.0 9.5 8.7 L8.2 7.6 Q6.85 6.4 6.45 5.65 L5.9 4.15 M4.45 4.0 Q4.45 2.8 3.9 3.25 3.4 3.7 3.15 4.55 L2.35 6.75 2.4 7.1 2.7 7.15 Q3.5 7.15 4.05 5.7 4.45 4.65 4.45 4.0" fill="#732323" fill-rule="evenodd" stroke="none"/>
      <path d="M4.45 4.0 Q4.45 4.65 4.05 5.7 3.5 7.15 2.7 7.15 L2.4 7.1 2.35 6.75 3.15 4.55 Q3.4 3.7 3.9 3.25 4.45 2.8 4.45 4.0 M5.9 4.15 L6.45 5.65 Q6.85 6.4 8.2 7.6 L9.5 8.7 Q9.5 9.0 9.1 9.0 7.65 9.0 6.6 7.45 L6.6 7.6 Q7.05 8.6 7.05 9.75 7.05 10.8 6.6 10.8 L5.8 9.05 5.15 7.35 Q5.15 6.55 5.75 6.55 L6.1 6.65 5.85 6.2 Q4.9 4.2 4.9 2.95 4.9 2.7 5.2 2.6 L5.9 4.15" fill="#ed3232" fill-rule="evenodd" stroke="none"/>
      <path d="M6.6 1.25 L6.95 0.6 Q9.1 3.1 9.85 5.25 L8.2 5.55 12.2 9.55 8.4 9.55 8.1 11.15 Q7.55 13.55 5.6 15.1 L5.2 14.9 Q5.6 11.25 4.2 7.85 2.25 10.05 0.0 9.4 3.15 4.85 3.2 1.15 L3.8 1.65 Q4.1 2.9 3.7 4.25 3.25 5.6 1.35 8.55 L3.05 7.95 5.0 6.4 4.75 7.3 Q6.15 10.0 6.3 13.1 L7.75 9.6 7.1 9.2 10.45 8.65 7.2 5.1 9.0 4.75 6.6 1.25" fill="#000000" fill-rule="evenodd" stroke="none"/>
    </g>
    <g id="sprite1">
      <use ffdec:characterId="8" height="32.3" transform="matrix(1.0, 0.0, 0.0, 1.0, 0.0, 0.0)" width="51.65" xlink:href="#shape1"/>
    </g>
    <g id="shape1">
      <path d="M18.95 25.0 L15.8 23.75 Q11.15 21.55 9.2 16.85 7.9 13.7 9.0 10.45 10.0 7.5 15.45 5.75 20.85 3.95 28.7 4.5 36.5 5.0 42.5 8.95 45.05 13.25 42.4 17.7 39.45 22.7 34.1 24.9 L22.95 24.35 18.95 25.0" fill="#fdfdfd" fill-rule="evenodd" stroke="none"/>
      <path d="M4.0 12.35 L4.55 11.5 6.6 8.9 Q9.15 6.2 11.9 4.5 L14.2 3.3 Q18.15 1.55 23.55 1.2 L33.15 1.75 Q38.15 2.2 42.25 4.9 L43.65 5.9 Q45.2 7.05 46.45 8.55 L48.05 11.0 49.55 14.2 49.35 14.7 48.15 17.5 50.3 21.15 50.2 21.55 Q49.35 21.2 47.8 18.9 L47.0 17.65 Q44.15 14.0 44.15 15.95 L46.9 19.6 47.0 19.7 45.6 21.75 46.55 22.45 Q48.15 23.2 49.25 24.75 48.6 24.65 45.95 23.25 L44.45 22.45 Q42.65 21.5 41.95 21.5 41.4 21.5 41.4 21.9 L44.35 23.2 42.7 24.7 Q41.3 25.8 39.7 26.6 L37.7 25.95 34.1 24.9 Q39.45 22.7 42.4 17.7 45.05 13.25 42.5 8.95 36.5 5.0 28.7 4.5 20.85 3.95 15.45 5.75 10.0 7.5 9.0 10.45 7.9 13.7 9.2 16.85 11.15 21.55 15.8 23.75 L18.95 25.0 Q16.7 25.6 14.55 26.45 L13.25 27.0 11.45 26.15 9.15 24.9 11.8 22.95 11.4 23.0 11.1 23.1 Q10.8 23.1 8.5 24.45 L8.45 24.4 8.05 24.75 Q6.1 26.5 5.45 26.5 5.05 26.5 4.95 26.2 L4.9 25.9 Q4.9 25.25 7.6 23.75 L5.95 22.0 5.95 21.7 6.75 18.4 7.45 15.6 Q7.45 13.6 6.3 15.4 5.15 17.2 4.8 19.85 L4.75 20.2 4.25 24.05 3.95 24.15 Q3.65 24.15 3.55 23.65 L3.5 23.1 Q3.5 20.45 3.8 17.9 3.35 16.2 3.6 14.4 L4.0 12.35" fill="#c3d1d3" fill-rule="evenodd" stroke="none"/>
      <path d="M4.0 12.35 L3.6 14.4 Q3.35 16.2 3.8 17.9 3.5 20.45 3.5 23.1 L3.55 23.65 Q3.65 24.15 3.95 24.15 L4.25 24.05 4.75 20.2 4.8 19.85 Q5.15 17.2 6.3 15.4 7.45 13.6 7.45 15.6 L6.75 18.4 5.95 21.7 5.95 22.0 7.6 23.75 Q4.9 25.25 4.9 25.9 L4.95 26.2 Q5.05 26.5 5.45 26.5 6.1 26.5 8.05 24.75 L8.45 24.4 8.5 24.45 Q10.8 23.1 11.1 23.1 L11.4 23.0 11.8 22.95 9.15 24.9 11.45 26.15 13.25 27.0 Q8.85 28.75 4.6 30.7 L3.85 29.65 Q0.5 24.65 1.65 18.65 2.3 15.2 4.0 12.35 M39.7 26.6 Q41.3 25.8 42.7 24.7 L44.35 23.2 41.4 21.9 Q41.4 21.5 41.95 21.5 42.65 21.5 44.45 22.45 L45.95 23.25 Q48.6 24.65 49.25 24.75 48.15 23.2 46.55 22.45 L45.6 21.75 47.0 19.7 46.9 19.6 44.15 15.95 Q44.15 14.0 47.0 17.65 L47.8 18.9 Q49.35 21.2 50.2 21.55 L50.3 21.15 48.15 17.5 49.35 14.7 49.55 14.2 Q50.35 16.3 50.7 18.5 51.55 23.65 49.05 29.7 L49.0 29.65 39.7 26.6" fill="#8f9ea0" fill-rule="evenodd" stroke="none"/>
      <path d="M15.25 5.45 Q24.35 1.65 34.7 5.45 36.15 8.25 38.45 13.95 33.0 13.7 28.1 16.25 L25.2 17.95 Q20.35 14.65 14.5 14.55 L12.1 14.75 Q13.8 8.8 14.65 6.75 L15.25 5.45 M11.7 19.35 L11.85 18.9 12.35 17.75 Q18.2 17.1 23.35 19.75 L24.8 20.55 Q28.95 17.45 34.0 16.8 L38.05 17.0 38.35 17.8 38.3 17.9 37.05 20.35 Q32.35 20.4 28.1 22.65 L25.2 24.35 Q20.35 21.05 14.5 20.95 L12.7 21.1 11.7 19.35 M35.5 22.9 L33.55 25.7 29.8 25.25 29.6 24.8 32.5 23.75 Q34.0 23.15 35.5 22.9 M14.75 23.75 L20.15 24.5 18.35 25.4 17.1 25.95 15.85 24.8 14.75 23.75" fill="#006dff" fill-rule="evenodd" stroke="none"/>
      <path d="M15.25 5.45 L15.65 4.7 Q18.15 1.2 21.6 0.55 26.35 -0.35 32.0 1.2 L33.75 3.75 33.85 3.95 34.7 5.45 Q24.35 1.65 15.25 5.45 M38.35 17.8 L39.4 20.4 37.05 20.35 38.3 17.9 38.35 17.8 M12.7 21.1 L11.15 21.2 11.7 19.35 12.7 21.1 M35.5 22.9 L39.8 22.75 39.1 26.4 33.55 25.7 35.5 22.9 M14.75 23.75 L15.85 24.8 17.1 25.95 Q14.0 27.15 10.7 27.6 L11.55 23.25 14.75 23.75" fill="#123f7c" fill-rule="evenodd" stroke="none"/>
      <path d="M36.15 3.55 Q27.75 1.5 17.1 3.55 7.75 5.4 3.7 13.8 -0.35 22.25 4.05 29.95 12.75 25.25 23.25 24.15 33.75 23.05 48.85 29.3 L49.6 22.75 Q50.15 17.85 47.3 11.7 44.5 5.55 36.15 3.55 M18.25 0.65 Q32.9 -1.7 43.1 4.75 53.25 11.25 51.35 22.85 L50.15 32.15 Q41.15 26.4 29.8 25.5 17.15 24.25 2.3 32.3 -2.35 22.4 2.35 13.1 7.35 3.35 18.25 0.65" fill="#000000" fill-rule="evenodd" stroke="none"/>
    </g>
  </defs>
</svg>
