<?xml version="1.0" encoding="UTF-8" standalone="no"?>
<svg xmlns:ffdec="https://www.free-decompiler.com/flash" xmlns:xlink="http://www.w3.org/1999/xlink" ffdec:objectType="frame" height="61.0px" width="79.85px" xmlns="http://www.w3.org/2000/svg">
  <g transform="matrix(1.0, 0.0, 0.0, 1.0, 40.0, 40.4)">
    <use ffdec:characterId="2" height="14.35" transform="matrix(-0.6887, 0.0266, -0.0646, -0.7065, -29.85, -18.9)" width="15.1" xlink:href="#sprite0"/>
    <use ffdec:characterId="2" height="14.35" transform="matrix(0.7612, -0.0401, 0.0, -0.7847, 29.65, -24.35)" width="15.1" xlink:href="#sprite0"/>
    <use ffdec:characterId="4" height="24.65" transform="matrix(1.0, 0.0, 0.0, 1.0, 11.7, -40.4)" width="23.6" xlink:href="#sprite1"/>
    <use ffdec:characterId="2" height="14.35" transform="matrix(0.875, 0.0, 0.0, 0.875, 23.55, -20.15)" width="15.1" xlink:href="#sprite0"/>
    <use ffdec:characterId="6" height="48.7" transform="matrix(1.0, 0.0, 0.0, 1.0, 13.4, -27.8)" width="17.9" xlink:href="#sprite2"/>
    <use ffdec:characterId="4" height="24.65" transform="matrix(-1.0, 0.0, 0.0, 1.0, -12.2, -40.4)" width="23.6" xlink:href="#sprite1"/>
    <use ffdec:characterId="2" height="14.35" transform="matrix(-0.7282, 0.2684, 0.2684, 0.7282, -29.1, -19.4)" width="15.1" xlink:href="#sprite0"/>
    <use ffdec:characterId="6" height="48.7" transform="matrix(-1.0, 0.0, 0.0, 1.0, -13.9, -27.8)" width="17.9" xlink:href="#sprite2"/>
    <use ffdec:characterId="8" height="36.8" transform="matrix(1.0, 0.0, 0.0, 1.0, -24.0, -29.8)" width="25.7" xlink:href="#sprite3"/>
    <use ffdec:characterId="8" height="36.8" transform="matrix(-0.9802, 0.1982, 0.1931, 0.9548, 20.9, -35.6)" width="25.7" xlink:href="#sprite3"/>
    <use ffdec:characterId="10" height="32.7" transform="matrix(1.0, 0.0, 0.0, 1.0, -22.55, -16.35)" width="12.0" xlink:href="#sprite4"/>
    <use ffdec:characterId="16" height="38.2" transform="matrix(1.0, 0.0, 0.0, 1.0, -14.7, -27.5)" width="39.0" xlink:href="#sprite5"/>
    <use ffdec:characterId="12" height="9.5" transform="matrix(1.0, 0.0, 0.0, 1.0, -2.45, -37.1)" width="18.05" xlink:href="#sprite6"/>
    <use ffdec:characterId="14" height="16.75" transform="matrix(1.0, 0.0, 0.0, 1.0, -18.1, -36.7)" width="18.15" xlink:href="#sprite7"/>
  </g>
  <defs>
    <g id="sprite0">
      <use ffdec:characterId="1" height="14.35" transform="matrix(1.0, 0.0, 0.0, 1.0, 0.0, 0.0)" width="15.1" xlink:href="#shape0"/>
    </g>
    <g id="shape0">
      <path d="M10.15 2.35 L11.55 3.6 12.1 5.2 12.6 7.05 12.5 7.5 12.5 7.55 12.15 9.75 Q11.6 11.75 10.65 11.85 L10.4 11.9 Q9.75 11.9 9.75 11.25 L10.0 10.45 10.2 9.65 Q10.2 9.3 9.0 7.25 L7.35 4.8 Q6.8 4.4 2.9 3.3 L1.3 2.85 Q0.5 3.75 -0.6 3.75 -1.6 3.75 -1.7 2.9 1.15 -0.25 3.85 0.15 6.15 0.5 8.6 1.35 L10.15 2.35" fill="#ff655f" fill-rule="evenodd" stroke="none"/>
      <path d="M0.4 2.85 L1.7 2.45 Q10.15 2.4 10.7 11.5 12.9 10.4 12.15 5.8 11.35 1.2 2.05 0.3 9.55 -1.05 12.45 3.85 15.3 8.75 9.7 14.35 L9.1 14.05 Q9.85 11.25 8.7 8.6 6.1 2.75 0.0 3.7 L0.4 2.85" fill="#8d0000" fill-rule="evenodd" stroke="none"/>
      <path d="M11.3 6.65 L10.85 8.35 Q9.15 2.25 3.6 1.7 L4.2 1.55 Q10.25 0.2 11.3 6.65" fill="#ffb5b2" fill-rule="evenodd" stroke="none"/>
    </g>
    <g id="sprite1">
      <use ffdec:characterId="3" height="24.65" transform="matrix(1.0, 0.0, 0.0, 1.0, 0.0, 0.0)" width="23.6" xlink:href="#shape1"/>
    </g>
    <g id="shape1">
      <path d="M3.95 9.75 L4.0 9.85 4.2 10.55 4.15 11.15 Q3.9 11.7 2.85 11.7 0.75 11.7 0.3 8.0 0.3 4.2 1.8 2.3 4.7 -1.4 12.25 2.95 L13.8 3.95 Q14.5 4.4 15.9 4.9 19.6 6.15 20.4 7.2 L22.6 10.2 22.85 12.6 Q22.85 15.35 21.0 19.05 18.45 24.1 14.4 24.1 12.65 24.1 9.15 20.7 12.85 24.1 16.9 22.6 18.85 21.9 19.95 20.25 20.7 19.05 20.85 17.45 L20.35 16.95 20.05 16.9 19.1 17.5 Q13.9 16.8 11.5 11.85 10.8 10.35 9.25 10.15 L8.45 11.15 5.1 15.1 5.25 16.05 Q3.9 13.85 3.9 11.9 3.9 11.65 5.4 9.85 6.9 8.1 6.9 6.75 L6.8 6.35 7.35 6.2 Q7.55 9.85 4.5 11.45 4.3 11.5 4.25 11.75 8.2 11.95 8.6 7.55 9.2 0.8 3.35 3.55 2.7 3.85 2.4 4.6 1.05 7.95 3.0 10.9 L3.5 10.75 3.65 10.65 3.95 9.75 M6.3 6.15 Q5.55 6.4 4.75 7.55 4.0 8.6 3.85 9.15 3.85 7.9 4.6 7.05 5.3 6.15 6.3 6.15" fill="#ff655f" fill-rule="evenodd" stroke="none"/>
      <path d="M5.25 16.05 L5.1 15.1 8.45 11.15 9.25 10.15 Q10.8 10.35 11.5 11.85 13.9 16.8 19.1 17.5 L20.05 16.9 20.35 16.95 20.85 17.45 Q20.7 19.05 19.95 20.25 18.85 21.9 16.9 22.6 12.85 24.1 9.15 20.7 L8.9 20.5 8.65 20.25 7.85 19.65 Q6.1 18.1 5.25 16.05" fill="#ee4f49" fill-rule="evenodd" stroke="none"/>
      <path d="M3.95 9.75 L3.65 10.65 3.5 10.75 3.0 10.9 Q1.05 7.95 2.4 4.6 2.7 3.85 3.35 3.55 9.2 0.8 8.6 7.55 8.2 11.95 4.25 11.75 4.3 11.5 4.5 11.45 7.55 9.85 7.35 6.2 L6.8 6.35 6.3 6.15 Q5.3 6.15 4.6 7.05 3.85 7.9 3.85 9.15 L3.95 9.75" fill="#d02e28" fill-rule="evenodd" stroke="none"/>
      <path d="M16.7 6.75 L17.35 7.55 17.5 8.0 17.25 8.4 15.65 8.2 Q13.85 6.75 12.55 4.65 9.45 0.25 4.15 1.6 0.2 2.5 0.8 6.5 1.15 8.75 2.1 10.7 L2.45 11.0 2.8 11.0 3.1 10.9 3.65 10.3 Q3.1 8.95 3.55 8.0 4.1 6.9 4.85 6.15 L5.4 5.7 4.15 5.0 3.95 4.85 Q4.55 3.0 6.45 4.7 7.9 5.95 7.6 7.9 7.35 9.55 6.1 10.75 L4.4 11.95 Q6.1 18.3 11.3 22.2 14.5 24.55 17.5 21.95 22.75 17.3 21.8 10.45 21.65 9.45 20.9 8.85 18.2 6.55 14.75 5.0 L16.7 6.75 M23.6 12.65 Q23.3 17.5 20.4 21.55 17.2 26.15 12.5 23.95 10.7 23.05 9.15 21.8 5.3 18.8 3.9 13.95 L3.4 12.35 Q0.95 12.45 0.4 10.25 L0.1 8.7 Q-0.25 5.4 1.0 2.4 1.3 1.7 2.05 1.25 4.7 -0.4 7.5 0.1 11.85 1.7 15.7 4.1 L18.4 5.35 Q23.9 7.45 23.6 12.65 M4.4 8.85 L4.85 9.9 5.2 9.65 Q5.95 8.4 5.85 6.95 L4.85 8.05 4.4 8.85" fill="#630000" fill-rule="evenodd" stroke="none"/>
      <path d="M6.55 2.7 L5.85 2.7 Q2.45 2.95 1.95 6.6 1.2 5.65 1.45 4.55 2.35 0.55 6.5 1.75 12.4 3.5 10.2 9.65 8.7 13.7 5.4 13.4 L7.9 9.6 Q10.7 5.2 6.55 2.7" fill="#ffa671" fill-rule="evenodd" stroke="none"/>
      <path d="M21.65 12.2 Q21.8 15.15 20.7 17.9 L20.55 18.35 19.6 19.15 18.8 19.05 18.3 17.6 Q14.55 17.1 11.7 14.9 7.85 11.95 12.0 8.55 L15.55 10.95 Q17.45 12.2 19.85 11.45 L20.3 9.85 21.15 9.55 21.5 9.8 21.65 12.2" fill="#ff8a86" fill-rule="evenodd" stroke="none"/>
      <path d="M12.25 13.45 Q11.25 12.3 11.25 11.7 11.25 10.0 14.05 10.95 16.85 11.9 16.85 12.65 16.2 14.85 14.9 14.85 13.5 14.85 12.25 13.45" fill="#ffb5b2" fill-rule="evenodd" stroke="none"/>
      <path d="M19.05 17.2 L18.9 15.55 Q21.0 9.55 21.0 13.7 21.0 17.55 19.35 17.9 L19.05 17.2" fill="#ffb5b2" fill-rule="evenodd" stroke="none"/>
      <path d="M13.9 4.4 Q14.9 4.55 15.65 5.15 19.15 7.75 18.6 12.6 17.7 20.3 10.85 20.3 L10.6 19.6 Q11.9 18.85 13.3 18.25 14.75 17.6 15.4 16.25 18.25 10.6 13.5 5.6 L13.5 4.75 13.9 4.4" fill="#ee4f49" fill-rule="evenodd" stroke="none"/>
      <path d="M16.6 10.7 Q15.75 8.2 14.25 6.0 14.3 5.25 14.9 5.65 19.2 8.45 16.75 10.9 L16.6 10.7" fill="#d02e28" fill-rule="evenodd" stroke="none"/>
      <path d="M11.9 19.6 L11.6 19.15 Q9.8 16.5 9.55 13.75 L14.95 17.1 14.35 18.2 Q13.55 19.35 11.9 19.6" fill="#d02e28" fill-rule="evenodd" stroke="none"/>
      <path d="M16.55 22.4 L16.15 21.8 Q15.95 19.5 17.35 18.15 L18.45 18.65 19.25 19.95 Q18.55 21.8 16.55 22.4" fill="#d02e28" fill-rule="evenodd" stroke="none"/>
    </g>
    <g id="sprite2">
      <use ffdec:characterId="5" height="48.7" transform="matrix(1.0, 0.0, 0.0, 1.0, 0.0, 0.0)" width="17.9" xlink:href="#shape2"/>
    </g>
    <g id="shape2">
      <path d="M8.35 9.75 Q8.65 9.3 9.1 9.0 10.75 8.4 12.45 9.3 L14.0 10.2 Q15.05 11.95 15.3 13.3 L16.3 18.3 Q15.0 19.0 12.65 18.9 L11.4 18.8 9.85 13.3 Q9.25 11.45 8.35 9.75" fill="#ff655f" fill-rule="evenodd" stroke="none"/>
      <path d="M16.3 18.3 L16.95 21.3 Q17.3 23.2 17.3 27.25 L12.8 27.35 12.8 26.6 Q12.8 24.5 11.55 19.5 L11.4 18.8 12.65 18.9 Q15.0 19.0 16.3 18.3" fill="#ff8a86" fill-rule="evenodd" stroke="none"/>
      <path d="M17.3 27.25 L17.3 27.75 Q17.3 32.15 15.0 36.45 L14.95 36.55 14.65 35.9 Q13.8 34.15 11.85 33.7 L12.25 31.3 12.8 27.35 17.3 27.25" fill="#ee4f49" fill-rule="evenodd" stroke="none"/>
      <path d="M14.95 36.55 Q13.45 39.2 11.4 41.85 L11.05 42.3 Q10.55 41.25 9.45 40.75 L10.05 39.85 10.9 37.55 11.4 35.45 11.85 33.7 Q13.8 34.15 14.65 35.9 L14.95 36.55" fill="#ff6862" fill-rule="evenodd" stroke="none"/>
      <path d="M11.05 42.3 Q8.8 45.1 7.85 45.1 7.4 45.1 7.25 44.7 L7.15 44.25 7.35 43.95 8.4 42.75 9.15 41.15 9.45 40.75 Q10.55 41.25 11.05 42.3" fill="#ffa671" fill-rule="evenodd" stroke="none"/>
      <path d="M8.35 9.75 Q6.75 6.55 4.25 3.65 2.35 1.45 0.75 0.25 L0.8 -0.05 1.75 -0.3 Q4.35 -0.3 7.6 2.5 9.55 4.15 11.05 6.1 L13.7 9.7 14.0 10.2 12.45 9.3 Q10.75 8.4 9.1 9.0 8.65 9.3 8.35 9.75" fill="#d02e28" fill-rule="evenodd" stroke="none"/>
      <path d="M3.35 48.4 L2.55 48.0 Q5.9 46.15 8.0 42.95 10.4 39.35 11.35 35.1 12.3 31.05 12.1 26.95 11.9 22.65 11.05 18.65 10.15 14.45 8.25 10.7 5.15 4.65 0.0 0.0 3.8 2.1 6.35 5.5 9.3 9.5 10.85 14.15 12.25 18.55 12.85 22.95 13.45 27.15 13.05 31.05 12.3 38.6 7.8 44.65 L8.9 43.75 Q12.0 41.05 14.0 37.25 16.6 32.35 16.95 26.7 17.3 21.65 15.9 17.0 14.6 12.65 12.3 8.85 8.9 3.35 3.5 0.1 5.75 0.95 7.8 2.4 12.05 5.5 14.35 10.15 17.05 15.65 17.7 21.85 18.3 27.15 17.25 32.2 16.05 37.75 12.6 42.25 9.05 46.95 3.35 48.4" fill="#630000" fill-rule="evenodd" stroke="none"/>
      <path d="M15.0 32.25 L13.1 28.5 Q13.1 27.5 14.95 27.5 16.8 27.45 16.8 28.35 16.0 32.25 15.0 32.25" fill="#d02e28" fill-rule="evenodd" stroke="none"/>
      <path d="M15.0 20.65 Q16.2 20.75 16.2 23.95 16.4 26.45 15.45 26.45 14.7 26.45 14.2 25.35 L13.8 24.0 Q13.8 20.55 15.0 20.65" fill="#ffb5b2" fill-rule="evenodd" stroke="none"/>
    </g>
    <g id="sprite3">
      <use ffdec:characterId="7" height="36.8" transform="matrix(1.0, 0.0, 0.0, 1.0, 0.0, 0.0)" width="25.7" xlink:href="#shape3"/>
    </g>
    <g id="shape3">
      <path d="M5.95 34.15 Q4.3 28.75 4.45 23.1 4.65 17.05 6.4 11.8 8.1 6.55 12.55 3.1 16.9 -0.4 23.5 -0.9 25.05 0.1 25.65 2.9 26.2 5.8 21.1 7.5 16.75 8.75 14.55 10.6 5.7 17.95 5.7 27.3 L6.0 30.15 6.25 32.7 6.05 33.8 5.95 34.15" fill="#ff655f" fill-rule="evenodd" stroke="none"/>
      <path d="M5.95 34.15 Q2.7 30.95 1.75 26.4 0.6 20.75 1.15 15.0 1.65 9.65 4.9 5.15 7.95 1.0 12.8 -0.9 18.05 -3.05 23.5 -0.9 16.9 -0.4 12.55 3.1 8.1 6.55 6.4 11.8 4.65 17.05 4.45 23.1 4.3 28.75 5.95 34.15" fill="#ee4f49" fill-rule="evenodd" stroke="none"/>
      <path d="M9.8 0.85 Q5.8 3.85 3.75 8.35 1.85 12.45 1.2 17.1 0.6 21.7 2.0 26.1 3.4 30.6 5.3 34.8 1.55 30.55 0.5 25.0 -0.45 20.2 0.35 15.05 1.1 10.2 3.7 6.05 6.35 1.75 11.1 0.0 L9.8 0.85" fill="#630000" fill-rule="evenodd" stroke="none"/>
    </g>
    <g id="sprite4">
      <use ffdec:characterId="9" height="32.7" transform="matrix(1.0, 0.0, 0.0, 1.0, 0.0, 0.0)" width="12.0" xlink:href="#shape4"/>
    </g>
    <g id="shape4">
      <path d="M9.4 10.45 L9.3 10.25 8.9 10.25 8.55 10.55 10.4 4.25 10.2 4.3 Q7.5 7.15 6.95 10.85 L7.05 9.1 3.15 7.05 2.35 5.7 2.9 4.75 Q4.5 2.45 6.6 1.05 8.8 -0.4 10.3 0.15 11.95 0.8 11.95 4.0 11.95 5.6 10.45 8.05 9.8 9.15 9.4 10.45" fill="#ff655f" fill-rule="evenodd" stroke="none"/>
      <path d="M6.95 10.85 Q7.5 7.15 10.2 4.3 L10.4 4.25 8.55 10.55 8.9 10.25 9.3 10.25 9.4 10.45 Q8.8 14.6 9.55 18.6 L8.95 18.4 Q4.65 17.05 2.45 19.4 1.15 16.35 0.45 13.1 0.25 12.3 0.3 11.2 L1.0 11.65 Q2.75 13.8 5.45 13.9 L6.7 14.2 6.95 10.85" fill="#ee4f49" fill-rule="evenodd" stroke="none"/>
      <path d="M2.35 5.7 L3.15 7.05 7.05 9.1 6.95 10.85 6.7 14.2 5.45 13.9 Q2.75 13.8 1.0 11.65 L1.0 11.25 Q1.15 8.35 2.35 5.7" fill="#ff8a86" fill-rule="evenodd" stroke="none"/>
      <path d="M2.45 19.4 Q4.65 17.05 8.95 18.4 L9.55 18.6 Q10.05 21.55 11.3 24.4 L11.9 26.6 11.55 26.0 10.6 26.15 9.85 24.75 9.35 26.0 Q9.4 24.55 8.4 23.2 7.45 21.95 6.1 21.15 L7.2 26.15 6.7 26.6 6.0 26.05 Q3.85 22.8 2.45 19.4" fill="#ff6862" fill-rule="evenodd" stroke="none"/>
      <path d="M6.0 26.05 L6.7 26.6 7.2 26.15 6.1 21.15 Q7.45 21.95 8.4 23.2 9.4 24.55 9.35 26.0 L9.85 24.75 10.6 26.15 11.55 26.0 11.9 26.6 Q11.75 27.9 11.1 29.3 9.75 32.2 6.85 32.2 6.15 32.2 6.0 31.9 L6.0 31.6 Q6.95 30.1 6.95 29.45 L6.45 27.35 6.0 26.05" fill="#ffa671" fill-rule="evenodd" stroke="none"/>
      <path d="M2.75 8.4 Q4.5 9.7 5.1 12.05 L4.25 12.8 4.0 12.95 Q2.75 13.0 1.8 12.15 L1.3 11.7 1.4 9.2 Q1.45 8.25 2.25 8.05 L2.75 8.4" fill="#ffb5b2" fill-rule="evenodd" stroke="none"/>
      <path d="M7.75 15.25 L9.35 22.25 Q6.6 20.75 5.0 17.55 4.3 16.2 3.2 15.55 2.35 15.0 2.45 13.95 L6.25 14.25 Q7.2 14.55 7.75 15.25" fill="#d02e28" fill-rule="evenodd" stroke="none"/>
      <path d="M11.25 7.1 L10.55 8.75 Q9.95 10.15 9.65 11.6 9.3 13.15 9.25 14.7 L9.5 16.9 10.25 19.55 11.4 22.3 Q12.1 24.15 12.0 25.95 L11.8 28.2 Q11.45 30.75 9.25 32.0 L7.65 32.7 Q5.85 32.6 4.25 31.9 L4.6 31.5 Q5.1 31.15 5.3 31.15 L5.95 30.1 6.25 28.95 6.1 27.95 5.15 25.65 3.7 23.45 1.95 21.1 Q0.55 19.0 0.2 16.5 -0.2 13.45 0.3 10.45 0.95 6.4 3.55 3.3 L2.5 5.65 1.75 7.85 1.5 9.0 Q1.35 10.5 1.35 12.05 L1.6 15.05 Q1.8 16.5 2.35 17.9 L3.65 20.55 5.2 22.95 6.65 25.25 Q7.55 26.85 7.65 28.55 7.75 30.3 6.5 31.7 L7.95 31.7 Q8.65 31.55 9.2 31.0 L9.7 30.25 10.5 26.5 Q10.65 25.4 10.4 24.35 L9.5 21.55 Q8.6 19.4 8.3 17.15 8.0 14.95 8.0 12.7 8.05 9.8 9.95 7.5 L11.25 6.35 11.4 6.4 11.25 7.1" fill="#8d0000" fill-rule="evenodd" stroke="none"/>
    </g>
    <g id="sprite5">
      <use ffdec:characterId="15" height="38.2" transform="matrix(1.0, 0.0, 0.0, 1.0, 0.0, 0.0)" width="39.0" xlink:href="#shape5"/>
    </g>
    <g id="shape5">
      <path d="M30.15 3.9 Q31.6 10.0 23.25 11.45 14.9 12.9 8.7 10.95 L8.65 10.65 8.35 10.95 3.8 10.05 Q2.55 9.8 1.4 9.15 1.8 7.45 2.8 5.9 L3.35 5.05 Q6.3 0.35 13.3 0.0 15.7 -0.15 19.0 2.2 L21.9 1.55 24.85 1.55 Q27.8 2.35 30.15 3.9" fill="#ff655f" fill-rule="evenodd" stroke="none"/>
      <path d="M8.7 10.95 Q14.9 12.9 23.25 11.45 31.6 10.0 30.15 3.9 34.45 7.15 36.35 12.2 L36.75 13.4 Q32.65 16.8 27.4 17.95 18.5 19.85 9.85 17.35 L8.7 10.95 M1.4 9.15 Q2.55 9.8 3.8 10.05 L8.35 10.95 Q6.6 12.15 6.65 16.1 2.7 15.85 1.15 12.5 L1.4 9.15" fill="#ff8a86" fill-rule="evenodd" stroke="none"/>
      <path d="M28.4 23.2 L28.4 23.55 28.1 24.75 28.1 24.7 27.9 23.8 27.95 23.1 28.4 23.2 M37.25 28.65 L36.5 30.75 34.55 33.85 33.7 34.85 Q32.6 36.05 31.1 36.65 29.0 37.45 26.8 37.45 L26.1 37.45 25.4 37.35 25.4 36.9 Q31.45 37.7 34.7 32.3 35.8 30.55 35.85 28.25 L33.3 32.4 31.3 32.45 Q32.15 29.05 30.95 25.7 31.6 29.7 29.15 32.75 L27.65 34.45 Q28.75 33.1 29.3 31.35 L29.6 30.5 29.9 29.6 26.05 31.85 26.45 30.25 Q27.65 28.85 28.2 26.9 L28.95 23.25 30.6 23.35 Q33.15 23.3 35.05 24.8 36.85 26.25 37.25 28.65 M17.9 26.2 L17.8 27.25 17.65 28.15 Q17.25 30.2 16.65 30.2 L16.2 29.75 16.5 29.75 Q16.95 29.75 17.2 29.15 L17.35 28.4 Q17.35 27.25 16.2 26.45 15.1 25.65 15.0 26.55 L14.8 25.9 14.5 25.15 14.2 24.6 13.7 23.75 Q15.6 23.9 17.05 25.3 L17.9 26.2 M15.85 29.0 L15.55 28.15 15.85 28.9 15.85 29.0" fill="#ff6862" fill-rule="evenodd" stroke="none"/>
      <path d="M9.85 17.35 Q18.5 19.85 27.4 17.95 32.65 16.8 36.75 13.4 L37.15 14.65 37.5 15.8 37.75 17.1 37.9 19.1 37.95 21.35 37.65 26.65 37.35 28.4 37.25 28.65 Q36.85 26.25 35.05 24.8 33.15 23.3 30.6 23.35 L28.95 23.25 28.2 26.9 Q27.65 28.85 26.45 30.25 L26.35 30.25 Q26.0 30.25 26.0 29.8 L26.35 28.15 26.75 26.5 26.75 26.45 Q23.45 25.5 20.35 21.6 L18.55 19.1 18.55 19.8 18.05 21.3 18.05 25.15 17.9 26.2 17.05 25.3 Q15.6 23.9 13.7 23.75 12.4 21.6 11.1 20.2 10.5 19.5 9.9 17.55 L9.85 17.35 M28.4 23.2 L27.95 23.1 27.9 23.8 28.1 24.7 28.1 24.75 28.4 23.55 28.4 23.2 M6.65 16.1 L6.7 16.7 6.85 17.55 7.1 18.55 7.1 18.8 7.1 19.05 8.35 20.2 8.15 20.65 7.6 20.9 Q6.45 20.9 4.75 19.45 L4.4 19.15 2.95 17.55 1.65 15.7 Q1.4 15.25 1.4 14.6 L1.15 12.55 1.15 12.5 Q2.7 15.85 6.65 16.1" fill="#ee4f49" fill-rule="evenodd" stroke="none"/>
      <path d="M25.4 36.9 L26.6 35.4 27.65 34.45 29.15 32.75 Q31.6 29.7 30.95 25.7 32.15 29.05 31.3 32.45 L33.3 32.4 35.85 28.25 Q35.8 30.55 34.7 32.3 31.45 37.7 25.4 36.9 M16.2 29.75 Q15.7 29.65 15.7 29.4 L15.85 29.0 15.85 28.9 15.55 28.15 15.0 26.7 15.0 26.55 Q15.1 25.65 16.2 26.45 17.35 27.25 17.35 28.4 L17.2 29.15 Q16.95 29.75 16.5 29.75 L16.2 29.75" fill="#ffa671" fill-rule="evenodd" stroke="none"/>
      <path d="M28.15 18.95 Q29.2 22.45 27.9 25.85 27.8 18.5 23.35 12.65 20.6 9.05 16.3 7.05 22.4 6.7 25.8 13.15 27.25 15.95 28.15 18.95" fill="#ee4f49" fill-rule="evenodd" stroke="none"/>
      <path d="M15.35 9.9 Q19.25 12.65 20.65 18.0 L21.45 20.65 21.75 22.0 Q18.3 20.05 17.45 15.7 17.05 13.8 16.15 12.0 L15.25 10.35 15.35 9.9" fill="#ee4f49" fill-rule="evenodd" stroke="none"/>
      <path d="M21.8 19.25 L26.55 18.95 Q27.35 19.95 27.25 21.2 L27.0 22.05 26.75 22.35 Q24.1 22.1 22.55 20.25 L21.8 19.25" fill="#d02e28" fill-rule="evenodd" stroke="none"/>
      <path d="M29.05 18.65 L36.1 15.25 Q37.15 17.3 36.9 19.8 L36.7 21.3 31.0 19.6 29.35 19.05 29.05 18.65" fill="#d02e28" fill-rule="evenodd" stroke="none"/>
      <path d="M16.8 19.2 L17.3 19.55 16.45 21.85 16.05 22.7 15.0 22.3 Q12.4 21.1 11.25 18.55 L16.8 19.2" fill="#d02e28" fill-rule="evenodd" stroke="none"/>
      <path d="M5.45 18.5 Q4.1 17.7 3.3 16.15 L2.85 15.25 Q4.15 15.45 5.3 16.3 L6.45 17.15 5.45 18.5" fill="#d02e28" fill-rule="evenodd" stroke="none"/>
      <path d="M30.2 8.65 L30.6 8.45 31.0 8.3 31.45 8.25 31.9 8.3 32.6 9.35 Q33.8 11.35 33.45 13.6 L32.05 14.45 29.8 15.2 28.45 13.9 Q27.4 12.95 26.75 11.8 L30.2 8.65" fill="#ffb5b2" fill-rule="evenodd" stroke="none"/>
      <path d="M15.75 16.3 L15.25 16.45 Q13.35 16.05 11.65 15.15 L11.45 14.5 Q11.05 13.45 11.15 12.35 L14.95 12.3 15.5 13.05 Q16.3 14.6 15.75 16.3" fill="#ffb5b2" fill-rule="evenodd" stroke="none"/>
      <path d="M2.4 11.0 L2.8 10.1 3.5 10.35 Q4.8 10.6 5.95 11.2 L5.85 12.0 5.15 14.0 4.3 13.7 Q3.25 13.25 2.35 12.45 L2.3 11.8 2.4 11.0" fill="#ffb5b2" fill-rule="evenodd" stroke="none"/>
      <path d="M21.65 16.2 Q20.95 14.65 20.6 12.9 L20.75 12.5 21.15 12.35 Q23.1 13.45 23.95 15.55 L23.8 15.95 21.65 16.2" fill="#ffb5b2" fill-rule="evenodd" stroke="none"/>
      <path d="M24.25 13.15 L22.7 10.8 Q25.3 12.3 26.65 14.95 27.95 17.45 28.5 20.1 29.15 23.1 28.05 26.0 27.6 27.2 26.65 28.1 27.55 25.2 27.35 22.2 27.15 19.75 26.4 17.5 25.65 15.35 24.25 13.15" fill="#8d0000" fill-rule="evenodd" stroke="none"/>
      <path d="M30.45 2.05 Q35.15 5.1 37.1 10.55 38.65 15.15 38.95 20.25 39.25 26.3 36.4 31.55 33.45 37.15 27.45 38.2 25.45 38.25 23.6 37.6 L23.1 36.95 Q27.0 35.3 28.7 31.4 26.9 32.9 24.65 32.75 L24.25 32.05 Q26.05 29.45 25.6 26.45 L19.05 22.5 Q19.25 26.8 17.4 30.75 L16.85 31.8 15.65 32.4 14.9 32.05 Q15.3 25.6 10.6 21.5 5.95 22.55 2.75 19.0 -0.6 15.25 0.15 9.85 0.7 5.7 3.6 3.25 L5.7 2.35 Q0.75 7.2 1.65 12.35 2.5 17.45 4.65 18.8 L7.75 20.65 Q5.35 17.15 6.7 12.8 7.4 10.55 9.1 8.9 L9.5 9.0 Q8.45 14.95 11.8 19.85 14.85 24.4 16.55 29.65 18.6 23.9 17.15 17.95 L16.8 16.35 17.3 15.8 18.0 15.8 Q19.95 22.95 26.75 24.45 L28.3 24.75 26.2 31.15 29.45 28.85 30.15 29.2 Q30.2 33.2 27.25 35.7 L25.7 36.8 Q29.0 37.7 31.75 35.4 35.85 32.05 37.1 26.65 38.1 22.2 37.45 17.6 36.75 12.65 33.75 8.65 29.95 3.45 23.7 2.0 L20.9 1.6 Q25.85 -0.8 30.45 2.05 M9.7 20.45 Q7.4 16.4 7.9 11.55 5.7 16.3 8.9 19.75 L9.7 20.45" fill="#a12316" fill-rule="evenodd" stroke="none"/>
    </g>
    <g id="sprite6">
      <use ffdec:characterId="11" height="9.5" transform="matrix(1.0, 0.0, 0.0, 1.0, 0.0, 0.0)" width="18.05" xlink:href="#shape6"/>
    </g>
    <g id="shape6">
      <path d="M9.4 1.05 L8.85 1.6 9.3 2.55 8.4 3.4 8.7 3.8 14.6 5.2 15.0 4.9 14.75 3.85 15.9 5.05 Q17.4 6.7 17.4 7.1 17.4 7.85 16.6 7.85 L14.95 6.65 Q13.4 5.4 8.45 5.4 7.7 5.4 7.05 5.9 6.4 6.35 5.55 6.35 3.75 6.35 2.0 4.7 0.55 3.3 0.55 2.7 0.55 2.05 0.85 1.8 1.2 1.45 2.0 1.35 2.15 0.95 2.7 0.8 L6.7 0.35 7.3 0.35 9.4 1.05" fill="#ff655f" fill-rule="evenodd" stroke="none"/>
      <path d="M14.75 3.85 L15.0 4.9 14.6 5.2 8.7 3.8 8.4 3.4 9.3 2.55 8.85 1.6 9.4 1.05 Q12.25 1.65 14.75 3.85" fill="#ff8a86" fill-rule="evenodd" stroke="none"/>
      <path d="M18.0 9.5 Q14.2 6.4 9.45 6.2 8.65 5.9 7.85 6.2 6.7 6.75 5.85 5.95 8.8 4.05 12.35 5.25 15.85 6.45 16.9 7.65 14.35 2.05 8.65 1.25 2.95 0.4 0.8 2.2 L0.6 2.85 0.55 2.95 0.3 3.05 Q-0.45 1.5 0.8 0.65 2.0 -0.25 6.5 0.1 11.35 0.65 15.2 3.8 17.35 5.6 17.95 8.05 L18.0 9.5" fill="#8d0000" fill-rule="evenodd" stroke="none"/>
      <path d="M4.65 4.8 L4.5 4.8 Q4.1 2.65 7.6 2.25 L10.4 2.4 10.95 2.05 11.85 2.1 Q13.5 3.15 14.35 4.9 L14.5 5.25 Q12.5 4.55 9.1 4.0 6.6 3.6 4.65 4.8" fill="#ffb5b2" fill-rule="evenodd" stroke="none"/>
    </g>
    <g id="sprite7">
      <use ffdec:characterId="13" height="16.75" transform="matrix(1.0, 0.0, 0.0, 1.0, 0.0, 0.0)" width="18.15" xlink:href="#shape7"/>
    </g>
    <g id="shape7">
      <path d="M17.85 5.75 L17.45 4.75 Q16.5 2.6 14.15 2.1 16.15 4.6 15.05 6.65 L16.3 6.2 17.85 5.75 M3.7 4.25 L3.2 5.2 Q2.25 7.3 2.25 8.35 L2.35 9.1 Q2.6 9.8 3.4 9.8 L8.1 8.3 Q12.55 6.55 12.55 6.05 12.55 5.55 11.85 5.55 L8.15 5.05 Q6.6 4.5 6.6 3.7 L6.8 2.95 7.0 2.4 Q7.0 2.0 6.7 2.05 L6.9 1.95 Q11.6 -0.45 15.1 1.7 18.15 3.5 18.15 6.55 L17.65 8.0 Q16.95 9.15 15.9 9.15 L11.7 8.55 Q7.65 8.55 5.1 11.75 3.35 14.05 3.25 15.7 3.2 15.85 2.95 15.85 1.85 15.85 0.85 9.35 0.85 7.65 2.6 5.45 L3.7 4.25" fill="#ff655f" fill-rule="evenodd" stroke="none"/>
      <path d="M17.85 5.75 L16.3 6.2 15.05 6.65 Q16.15 4.6 14.15 2.1 16.5 2.6 17.45 4.75 L17.85 5.75" fill="#d02e28" fill-rule="evenodd" stroke="none"/>
      <path d="M6.7 2.05 Q7.0 2.0 7.0 2.4 L6.8 2.95 6.6 3.7 Q6.6 4.5 8.15 5.05 L11.85 5.55 Q12.55 5.55 12.55 6.05 12.55 6.55 8.1 8.3 L3.4 9.8 Q2.6 9.8 2.35 9.1 L2.25 8.35 Q2.25 7.3 3.2 5.2 L3.7 4.25 Q4.75 2.4 6.05 2.4 L6.1 2.4 6.25 2.3 6.55 2.1 6.7 2.05 M6.2 5.3 L5.5 4.65 Q4.95 4.35 4.55 5.05 3.75 6.1 3.75 7.95 L3.75 8.4 Q3.85 8.8 4.4 8.8 5.0 8.8 6.55 7.55 L8.05 7.1 Q8.7 6.95 8.7 6.5 8.7 6.05 8.2 5.95 L6.2 5.3" fill="#ff8a86" fill-rule="evenodd" stroke="none"/>
      <path d="M6.2 5.3 L8.2 5.95 Q8.7 6.05 8.7 6.5 8.7 6.95 8.05 7.1 L6.55 7.55 Q5.0 8.8 4.4 8.8 3.85 8.8 3.75 8.4 L3.75 7.95 Q3.75 6.1 4.55 5.05 4.95 4.35 5.5 4.65 L6.2 5.3" fill="#ffb5b2" fill-rule="evenodd" stroke="none"/>
      <path d="M16.3 9.0 L15.9 10.4 14.9 10.4 14.25 9.6 Q9.9 9.0 5.9 12.1 3.9 13.55 3.4 16.0 L3.65 16.75 Q1.45 16.15 0.3 11.8 -0.9 7.45 2.95 3.6 6.75 -0.25 11.3 0.0 13.1 0.25 14.55 1.15 L17.15 3.2 Q17.65 3.75 17.7 4.5 13.65 0.3 8.2 1.95 6.9 2.4 5.65 3.05 0.95 6.1 1.6 11.45 1.9 13.75 2.9 15.65 3.3 11.65 6.55 9.3 11.45 5.95 16.1 8.4 L16.3 9.0" fill="#8d0000" fill-rule="evenodd" stroke="none"/>
    </g>
  </defs>
</svg>
