<?xml version="1.0" encoding="UTF-8" standalone="no"?>
<svg xmlns:ffdec="https://www.free-decompiler.com/flash" xmlns:xlink="http://www.w3.org/1999/xlink" ffdec:objectType="frame" height="57.85px" width="76.6px" xmlns="http://www.w3.org/2000/svg">
  <g transform="matrix(1.0, 0.0, 0.0, 1.0, 38.15, 40.1)">
    <use ffdec:characterId="6" height="48.7" transform="matrix(1.0, 0.0, 0.0, 1.0, 8.75, -32.4)" width="22.2" xlink:href="#sprite0"/>
    <use ffdec:characterId="4" height="20.65" transform="matrix(1.0, 0.0, 0.0, 1.0, 17.0, -2.9)" width="21.45" xlink:href="#sprite1"/>
    <use ffdec:characterId="10" height="8.7" transform="matrix(1.0, 0.0, 0.0, 1.0, -2.45, -40.1)" width="9.35" xlink:href="#sprite2"/>
    <use ffdec:characterId="6" height="48.7" transform="matrix(-1.0, 0.0, 0.0, 1.0, -8.45, -32.4)" width="22.2" xlink:href="#sprite0"/>
    <use ffdec:characterId="4" height="20.65" transform="matrix(-1.0, 0.0, 0.0, 1.0, -16.7, -2.9)" width="21.45" xlink:href="#sprite1"/>
    <use ffdec:characterId="8" height="34.5" transform="matrix(1.0, 0.0, 0.0, 1.0, -19.05, -33.8)" width="38.65" xlink:href="#sprite3"/>
  </g>
  <defs>
    <g id="sprite0">
      <use ffdec:characterId="5" height="48.7" transform="matrix(1.0, 0.0, 0.0, 1.0, 0.0, 0.0)" width="22.2" xlink:href="#shape0"/>
    </g>
    <g id="shape0">
      <path d="M1.2 0.05 L5.55 1.25 Q7.65 2.15 9.55 3.4 11.1 4.55 12.35 6.15 14.0 8.05 14.6 10.2 L15.15 12.8 Q15.4 14.85 16.15 16.8 17.0 18.9 18.4 20.65 L21.0 23.85 21.35 24.35 Q22.15 25.35 22.15 26.55 L22.1 27.45 Q22.0 28.5 21.3 29.25 L21.0 29.55 17.55 32.35 13.95 34.85 13.5 34.8 Q12.3 36.85 11.35 39.2 10.5 41.2 9.05 42.75 L5.85 45.85 2.35 48.7 Q3.35 46.35 4.6 44.15 6.0 41.75 6.95 39.15 7.95 36.5 8.3 33.65 8.65 30.95 8.3 28.45 8.15 26.7 7.65 24.9 L7.2 23.15 Q8.35 25.25 8.5 27.55 L8.7 32.25 Q8.8 34.95 8.2 37.35 7.6 39.8 6.5 42.0 L4.3 46.35 7.4 43.5 10.35 39.45 Q11.95 36.85 12.9 33.85 L13.65 31.15 Q12.25 28.45 12.05 25.5 L12.15 25.2 12.45 26.45 14.35 31.75 14.0 29.25 Q13.45 26.95 12.45 24.85 L12.15 24.3 Q11.25 22.25 11.3 20.05 L11.5 21.1 Q11.8 22.95 12.75 24.6 13.7 26.5 14.3 28.5 15.05 30.85 14.65 33.15 L15.35 32.85 Q17.35 31.35 16.8 28.65 16.35 26.2 15.25 23.9 L13.85 20.7 Q13.1 18.4 13.7 16.2 L14.2 17.9 Q14.6 19.65 15.65 21.3 16.85 23.35 18.35 25.1 L19.45 26.65 Q19.65 26.5 19.75 26.65 19.35 28.15 17.75 31.05 L17.85 31.1 18.9 30.55 20.15 29.3 21.0 28.0 21.2 27.65 21.4 27.15 21.75 26.1 21.05 25.1 19.0 22.4 16.3 18.6 Q15.0 16.5 14.7 13.95 14.35 10.8 13.0 7.9 12.05 5.8 10.05 4.35 8.7 3.3 7.1 2.55 L4.05 1.1 1.2 0.05 M14.25 19.75 L14.5 20.85 Q15.15 22.9 16.15 24.85 17.35 27.1 17.65 29.65 17.8 27.2 16.9 24.85 L16.4 23.65 14.95 20.9 14.25 19.75 M19.0 27.55 L19.1 27.35 17.0 24.05 17.75 26.75 Q18.2 28.0 18.05 29.4 L18.35 28.8 19.0 27.55" fill="#421717" fill-rule="evenodd" stroke="none"/>
      <path d="M18.35 25.1 Q16.85 23.35 15.65 21.3 14.6 19.65 14.2 17.9 L13.7 16.2 Q13.1 18.4 13.85 20.7 L15.25 23.9 13.4 24.4 12.75 24.6 Q11.8 22.95 11.5 21.1 L11.3 20.05 Q11.25 22.25 12.15 24.3 L12.45 24.85 12.15 25.2 12.05 25.5 11.15 26.65 Q10.1 24.95 9.35 23.05 8.4 20.8 7.9 18.4 7.3 15.55 7.85 12.85 L9.05 12.0 9.15 11.75 11.25 11.15 10.5 9.35 8.25 9.65 Q7.15 7.85 7.8 6.3 L8.0 5.75 Q10.25 6.15 12.15 7.6 L13.15 8.8 Q14.35 10.8 14.35 13.05 14.4 15.65 15.4 18.15 16.35 20.35 17.7 22.25 L18.8 23.65 Q18.8 25.1 19.65 25.15 L19.85 25.1 19.75 25.7 19.4 26.05 18.35 25.1 M12.35 8.65 L11.65 8.2 11.6 9.05 11.65 9.75 12.2 11.4 13.25 11.55 Q13.15 10.0 12.35 8.65" fill="#ffc72f" fill-rule="evenodd" stroke="none"/>
      <path d="M7.2 23.15 L5.5 18.6 4.15 14.3 2.4 9.8 0.75 5.75 Q-0.05 3.6 0.0 1.55 0.0 0.85 0.3 0.15 L0.55 0.05 0.85 0.05 1.2 0.05 4.05 1.1 7.1 2.55 Q8.7 3.3 10.05 4.35 12.05 5.8 13.0 7.9 14.35 10.8 14.7 13.95 15.0 16.5 16.3 18.6 L19.0 22.4 21.05 25.1 21.75 26.1 21.4 27.15 21.2 27.65 21.0 28.0 20.15 29.3 18.9 30.55 17.85 31.1 17.75 31.05 Q19.35 28.15 19.75 26.65 19.65 26.5 19.45 26.65 L18.35 25.1 19.4 26.05 19.75 25.7 19.85 25.1 Q20.3 24.95 19.9 24.35 L19.45 23.75 18.8 23.65 17.7 22.25 Q16.35 20.35 15.4 18.15 14.4 15.65 14.35 13.05 14.35 10.8 13.15 8.8 L12.15 7.6 Q10.25 6.15 8.0 5.75 L7.8 6.3 Q7.15 7.85 8.25 9.65 L7.4 9.85 7.45 11.15 9.15 11.75 9.05 12.0 7.85 12.85 Q7.3 15.55 7.9 18.4 8.4 20.8 9.35 23.05 10.1 24.95 11.15 26.65 L12.05 25.5 Q12.25 28.45 13.65 31.15 L12.9 33.85 Q11.95 36.85 10.35 39.45 L7.4 43.5 4.3 46.35 6.5 42.0 Q7.6 39.8 8.2 37.35 8.8 34.95 8.7 32.25 L8.5 27.55 Q8.35 25.25 7.2 23.15 M15.25 23.9 Q16.35 26.2 16.8 28.65 17.35 31.35 15.35 32.85 L14.65 33.15 Q15.05 30.85 14.3 28.5 13.7 26.5 12.75 24.6 L13.4 24.4 15.25 23.9 M12.45 24.85 Q13.45 26.95 14.0 29.25 L14.35 31.75 12.45 26.45 12.15 25.2 12.45 24.85 M14.25 19.75 L14.95 20.9 16.4 23.65 16.9 24.85 Q17.8 27.2 17.65 29.65 17.35 27.1 16.15 24.85 15.15 22.9 14.5 20.85 L14.25 19.75 M12.0 33.6 L12.7 33.65 13.0 33.4 13.1 31.35 12.55 30.7 12.3 31.75 12.0 33.6 M11.15 33.65 L11.35 32.7 11.65 29.4 9.75 29.5 9.65 30.15 Q9.55 31.75 9.75 33.45 L11.15 33.65 M14.85 29.9 L15.05 30.75 15.15 30.95 15.95 31.55 16.15 29.85 14.85 29.9" fill="#c37015" fill-rule="evenodd" stroke="none"/>
      <path d="M18.8 23.65 L19.45 23.75 19.9 24.35 Q20.3 24.95 19.85 25.1 L19.65 25.15 Q18.8 25.1 18.8 23.65 M8.25 9.65 L10.5 9.35 11.25 11.15 9.15 11.75 7.45 11.15 7.4 9.85 8.25 9.65 M12.35 8.65 Q13.15 10.0 13.25 11.55 L12.2 11.4 11.65 9.75 11.6 9.05 11.65 8.2 12.35 8.65 M14.85 29.9 L16.15 29.85 15.95 31.55 15.15 30.95 15.05 30.75 14.85 29.9 M11.15 33.65 L9.75 33.45 Q9.55 31.75 9.65 30.15 L9.75 29.5 11.65 29.4 11.35 32.7 11.15 33.65 M12.0 33.6 L12.3 31.75 12.55 30.7 13.1 31.35 13.0 33.4 12.7 33.65 12.0 33.6" fill="#ffeb79" fill-rule="evenodd" stroke="none"/>
    </g>
    <g id="sprite1">
      <use ffdec:characterId="3" height="20.65" transform="matrix(1.0, 0.0, 0.0, 1.0, 0.0, 0.0)" width="21.45" xlink:href="#shape1"/>
    </g>
    <g id="shape1">
      <path d="M20.25 6.0 L20.3 5.15 20.2 4.75 Q20.05 4.4 19.6 4.4 19.15 4.4 18.9 5.45 18.75 6.15 18.75 6.8 L18.75 7.15 Q18.85 7.45 19.25 7.45 L19.9 6.8 20.25 6.0 M20.75 7.65 L20.05 10.3 20.05 10.35 20.8 12.3 21.45 14.45 Q21.45 17.05 19.55 18.9 18.1 20.25 16.5 20.5 L15.8 20.65 13.05 19.9 Q11.8 19.45 10.4 19.35 L8.05 19.75 5.75 19.4 Q4.0 18.9 2.4 17.6 -0.25 15.45 0.0 10.65 0.25 5.8 2.9 3.85 5.35 2.0 10.15 1.85 L11.0 1.55 12.0 1.15 Q14.7 -0.3 16.05 0.05 17.7 0.4 19.4 1.65 21.35 3.1 21.35 5.25 L20.75 7.65 M9.85 16.8 Q11.2 18.35 13.15 19.05 L14.65 19.45 Q16.85 20.0 18.5 18.4 20.05 16.9 20.55 14.65 L20.55 14.45 20.6 14.0 Q20.6 13.2 20.05 11.8 L19.5 10.9 Q18.6 12.4 18.4 13.3 L18.35 14.7 18.35 15.0 Q18.45 16.1 17.9 16.7 17.1 17.6 16.05 17.7 L15.6 17.7 Q13.7 17.7 11.8 16.35 L11.0 15.75 10.05 14.65 9.9 14.55 9.45 13.9 8.9 13.3 8.55 13.3 Q8.2 13.15 8.2 14.0 L8.25 14.4 8.4 14.85 9.7 16.75 9.85 16.8 M18.2 4.85 L19.0 3.8 19.4 3.8 20.5 4.35 20.0 3.15 19.65 2.85 Q16.65 0.4 13.1 1.5 L12.15 1.85 13.35 1.7 Q15.8 1.7 17.15 3.05 L17.9 4.1 17.95 4.15 17.95 4.2 18.15 4.85 18.2 4.85 M17.4 4.6 Q17.05 3.4 16.05 2.95 14.2 2.0 12.25 2.55 L11.6 2.75 Q12.8 2.9 14.45 4.1 L15.1 4.6 15.65 4.95 Q17.2 5.95 17.65 7.7 L17.7 6.85 Q17.75 5.65 17.4 4.6 M11.55 3.35 L11.35 3.3 10.85 3.05 10.8 3.05 Q9.75 3.4 8.9 3.9 L9.85 4.65 10.75 5.55 Q11.7 6.45 11.7 7.5 L11.65 7.5 11.75 8.65 10.85 7.35 10.5 6.85 9.45 5.4 8.55 4.25 8.45 4.65 8.55 4.45 Q8.25 5.4 9.0 7.1 9.9 9.2 11.6 9.2 L11.9 9.0 12.4 8.55 13.45 7.3 13.7 6.65 13.95 5.4 13.8 4.6 13.8 4.5 13.7 4.35 13.65 4.3 11.55 3.35 M10.4 4.15 L9.75 3.5 10.8 3.9 11.65 4.35 Q12.15 4.75 12.8 6.05 L13.0 6.35 13.0 6.4 13.1 6.6 13.45 7.3 12.95 6.8 10.4 4.15 M15.35 7.4 Q15.5 6.65 14.9 5.4 L14.35 4.75 14.5 6.05 14.35 6.75 14.2 7.35 14.15 7.65 Q13.75 8.45 12.4 9.35 L13.75 9.4 Q13.95 8.65 14.9 8.05 L15.3 7.5 15.35 7.4 M12.25 10.05 L12.0 9.95 9.4 8.65 8.45 7.7 Q8.35 8.85 9.0 9.85 L9.15 10.05 9.75 10.55 10.8 11.45 Q11.85 12.05 12.8 12.3 L12.85 12.3 13.8 12.3 15.3 12.0 15.4 11.95 16.45 10.7 17.35 8.9 17.2 8.35 16.85 7.35 16.75 7.25 16.55 6.9 16.25 6.45 15.3 8.35 14.5 9.1 13.9 9.4 15.35 9.45 15.6 9.4 14.85 10.15 14.8 10.2 13.65 10.5 12.25 10.05 M7.8 2.85 L9.25 3.05 10.4 2.0 9.8 2.0 9.7 2.05 9.45 2.15 9.05 2.25 7.35 2.6 Q5.15 3.15 3.45 4.55 1.45 6.35 1.9 8.9 2.35 11.2 3.9 13.0 5.55 14.8 7.7 15.6 L8.3 15.7 Q7.75 15.25 7.1 12.2 L6.6 10.85 6.05 10.1 5.1 9.75 5.05 9.75 4.05 9.4 3.25 8.8 3.45 10.35 3.75 11.15 4.2 12.05 Q3.45 10.95 2.75 8.45 L2.7 8.2 2.7 7.95 Q2.95 6.35 3.8 5.0 5.2 2.7 7.8 2.85 M8.5 3.65 Q6.5 4.7 4.8 6.15 L3.8 7.0 3.2 8.1 6.4 5.65 8.5 3.65 M3.15 9.0 L3.15 8.7 3.1 8.65 3.15 9.0 M4.4 9.1 L4.9 7.95 4.95 7.05 5.15 6.85 5.0 6.95 3.45 8.55 4.1 9.0 4.4 9.1 M4.9 9.2 L5.15 9.2 6.2 8.65 5.05 8.25 4.9 9.2 M1.9 12.2 L3.15 13.9 3.15 13.85 2.75 13.15 2.45 12.75 1.85 11.95 1.9 12.2 M1.95 12.6 L1.05 10.3 0.9 10.95 0.85 12.1 0.9 13.2 1.0 13.45 Q1.4 15.3 2.6 16.5 4.3 18.15 6.4 18.9 L6.6 18.95 7.5 19.0 Q9.15 19.0 10.15 18.35 L10.25 18.2 Q9.95 17.9 9.15 18.2 L7.65 18.55 7.15 18.55 7.05 18.55 6.85 18.5 Q5.25 18.25 4.3 17.1 3.35 15.95 2.15 13.1 L1.95 12.6 M7.1 16.15 L6.65 17.1 7.25 17.6 7.5 17.7 9.45 17.35 9.0 17.1 7.95 16.55 7.1 16.15 M17.55 14.7 L17.45 13.35 16.9 13.85 14.0 16.85 15.3 16.9 16.15 16.8 16.35 16.7 16.75 16.5 17.3 16.05 17.5 15.5 17.55 14.7 M14.15 13.2 L14.0 13.15 12.05 12.75 11.6 13.85 12.05 14.6 13.35 14.2 14.15 13.2" fill="#421717" fill-rule="evenodd" stroke="none"/>
      <path d="M20.25 6.0 L19.9 6.8 19.25 7.45 Q18.85 7.45 18.75 7.15 L18.75 6.8 Q18.75 6.15 18.9 5.45 19.15 4.4 19.6 4.4 20.05 4.4 20.2 4.75 L20.3 5.15 20.25 6.0 M11.0 15.75 L11.3 16.5 Q11.3 17.05 10.75 17.05 L9.85 16.8 9.7 16.75 8.4 14.85 8.25 14.4 8.2 14.0 Q8.2 13.15 8.55 13.3 L8.9 13.3 9.45 13.9 9.9 14.55 10.05 14.65 11.0 15.75 M2.7 7.95 L2.7 8.2 2.75 8.45 2.75 8.7 3.0 9.95 2.9 10.0 Q2.2 10.0 2.05 8.3 2.05 7.5 2.4 7.3 L2.7 7.95 M2.9 16.55 Q2.6 16.55 2.15 15.4 2.15 15.1 2.55 15.1 2.9 15.1 3.05 15.65 L3.15 16.25 2.9 16.55" fill="#ffeb79" fill-rule="evenodd" stroke="none"/>
      <path d="M20.55 14.45 L20.55 14.65 Q20.05 16.9 18.5 18.4 16.85 20.0 14.65 19.45 L13.15 19.05 Q11.2 18.35 9.85 16.8 L10.75 17.05 Q11.3 17.05 11.3 16.5 L11.0 15.75 11.8 16.35 Q13.7 17.7 15.6 17.7 L16.05 17.7 Q17.1 17.6 17.9 16.7 18.45 16.1 18.35 15.0 L19.4 14.0 20.2 14.05 20.55 14.45 M9.85 4.65 L10.4 4.15 12.95 6.8 11.7 7.5 Q11.7 6.45 10.75 5.55 L9.85 4.65 M10.8 3.9 L11.55 3.35 13.65 4.3 13.7 4.35 13.1 6.6 13.0 6.4 13.0 6.35 12.8 6.05 Q12.15 4.75 11.65 4.35 L10.8 3.9 M9.45 5.4 L10.5 6.85 10.85 7.35 Q9.8 7.15 9.45 6.35 L9.3 5.8 9.45 5.4 M15.35 7.4 L15.3 7.5 14.9 8.05 Q13.95 8.65 13.75 9.4 L12.4 9.35 Q13.75 8.45 14.15 7.65 L14.2 7.35 14.35 6.75 15.05 6.95 15.35 7.4 M12.8 12.3 L12.05 11.15 11.9 10.75 12.25 10.05 13.65 10.5 14.8 10.2 14.85 10.15 15.4 11.95 15.3 12.0 13.8 12.3 12.85 12.3 12.8 12.3 M15.35 9.45 L13.9 9.4 14.5 9.1 15.3 8.35 16.25 6.45 16.55 6.9 16.75 7.25 15.35 9.45 M9.05 2.25 L8.8 2.35 7.8 2.85 Q5.2 2.7 3.8 5.0 2.95 6.35 2.7 7.95 L2.4 7.3 Q2.05 7.5 2.05 8.3 2.2 10.0 2.9 10.0 L3.0 9.95 2.75 8.7 2.75 8.45 Q3.45 10.95 4.2 12.05 L3.75 11.15 4.95 12.75 5.15 12.9 5.6 12.3 6.2 11.25 4.05 9.4 5.05 9.75 5.1 9.75 6.05 10.1 6.6 10.85 7.5 14.9 7.7 15.6 Q5.55 14.8 3.9 13.0 2.35 11.2 1.9 8.9 1.45 6.35 3.45 4.55 5.15 3.15 7.35 2.6 L9.05 2.25 M1.0 13.45 L1.6 13.65 1.95 12.6 2.15 13.1 Q3.35 15.95 4.3 17.1 5.25 18.25 6.85 18.5 L7.05 18.55 6.6 18.95 6.4 18.9 Q4.3 18.15 2.6 16.5 1.4 15.3 1.0 13.45 M2.9 16.55 L3.15 16.25 3.05 15.65 Q2.9 15.1 2.55 15.1 2.15 15.1 2.15 15.4 2.6 16.55 2.9 16.55" fill="#ffc72f" fill-rule="evenodd" stroke="none"/>
      <path d="M20.55 14.45 L20.2 14.05 19.4 14.0 18.35 15.0 18.35 14.7 18.4 13.3 Q18.6 12.4 19.5 10.9 L20.05 11.8 Q20.6 13.2 20.6 14.0 L20.55 14.45 M18.2 4.85 L18.15 4.85 17.95 4.2 17.95 4.15 17.9 4.1 17.15 3.05 Q15.8 1.7 13.35 1.7 L12.15 1.85 13.1 1.5 Q16.65 0.4 19.65 2.85 L20.0 3.15 20.5 4.35 19.4 3.8 19.0 3.8 18.2 4.85 M9.85 4.65 L8.9 3.9 Q9.75 3.4 10.8 3.05 L10.85 3.05 11.35 3.3 11.55 3.35 10.8 3.9 9.75 3.5 10.4 4.15 9.85 4.65 M13.7 4.35 L13.8 4.5 13.8 4.6 13.95 5.4 13.7 6.65 13.45 7.3 12.4 8.55 11.9 9.0 11.6 9.2 Q9.9 9.2 9.0 7.1 8.25 5.4 8.55 4.45 L8.45 4.65 8.55 4.25 9.45 5.4 9.3 5.8 9.45 6.35 Q9.8 7.15 10.85 7.35 L11.75 8.65 11.65 7.5 11.7 7.5 12.95 6.8 13.45 7.3 13.1 6.6 13.7 4.35 M14.35 6.75 L14.5 6.05 14.35 4.75 14.9 5.4 Q15.5 6.65 15.35 7.4 L15.05 6.95 14.35 6.75 M12.8 12.3 Q11.85 12.05 10.8 11.45 L9.75 10.55 9.15 10.05 9.0 9.85 Q8.35 8.85 8.45 7.7 L9.4 8.65 12.0 9.95 12.25 10.05 11.9 10.75 12.05 11.15 12.8 12.3 M14.85 10.15 L15.6 9.4 15.35 9.45 16.75 7.25 16.85 7.35 17.2 8.35 17.35 8.9 16.45 10.7 15.4 11.95 14.85 10.15 M9.05 2.25 L9.45 2.15 9.7 2.05 9.8 2.0 10.4 2.0 9.25 3.05 7.8 2.85 8.8 2.35 9.05 2.25 M3.75 11.15 L3.45 10.35 3.25 8.8 4.05 9.4 6.2 11.25 5.6 12.3 5.15 12.9 4.95 12.75 3.75 11.15 M6.6 10.85 L7.1 12.2 Q7.75 15.25 8.3 15.7 L7.7 15.6 7.5 14.9 6.6 10.85 M8.5 3.65 L6.4 5.65 3.2 8.1 3.8 7.0 4.8 6.15 Q6.5 4.7 8.5 3.65 M1.0 13.45 L0.9 13.2 0.85 12.1 0.9 10.95 1.05 10.3 1.95 12.6 1.6 13.65 1.0 13.45 M1.9 12.2 L1.85 11.95 2.45 12.75 2.75 13.15 3.15 13.85 3.15 13.9 1.9 12.2 M4.9 9.2 L5.05 8.25 6.2 8.65 5.15 9.2 4.9 9.2 M4.4 9.1 L4.1 9.0 3.45 8.55 5.0 6.95 5.15 6.85 4.95 7.05 4.9 7.95 4.4 9.1 M7.05 18.55 L7.15 18.55 7.65 18.55 9.15 18.2 Q9.95 17.9 10.25 18.2 L10.15 18.35 Q9.15 19.0 7.5 19.0 L6.6 18.95 7.05 18.55 M7.1 16.15 L7.95 16.55 9.0 17.1 9.45 17.35 7.5 17.7 7.25 17.6 6.65 17.1 7.1 16.15 M14.15 13.2 L13.35 14.2 12.05 14.6 11.6 13.85 12.05 12.75 14.0 13.15 14.15 13.2" fill="#c37015" fill-rule="evenodd" stroke="none"/>
      <path d="M3.15 9.0 L3.1 8.65 3.15 8.7 3.15 9.0" fill="#c43333" fill-rule="evenodd" stroke="none"/>
    </g>
    <g id="sprite2">
      <use ffdec:characterId="9" height="8.7" transform="matrix(1.0, 0.0, 0.0, 1.0, 0.0, 0.0)" width="9.35" xlink:href="#shape2"/>
    </g>
    <g id="shape2">
      <path d="M4.35 0.95 Q2.4 1.5 1.35 3.15 L1.2 3.4 0.5 5.55 2.75 8.1 Q-1.35 7.15 0.65 3.1 1.05 2.3 1.75 1.7 5.75 -1.55 9.35 1.5 4.3 3.05 4.05 8.1 L4.0 8.05 3.7 7.6 3.8 4.8 Q5.3 2.4 8.05 1.25 L8.15 1.15 8.15 1.0 8.1 0.8 7.7 0.5 4.9 0.8 4.35 0.95 M4.0 8.65 L4.0 8.7 3.95 8.6 4.0 8.65" fill="#421717" fill-rule="evenodd" stroke="none"/>
      <path d="M4.35 0.95 L3.75 1.95 5.65 2.0 5.85 1.8 5.9 1.2 5.75 1.0 4.9 0.8 7.7 0.5 8.1 0.8 8.15 1.0 8.15 1.15 8.05 1.25 Q5.3 2.4 3.8 4.8 3.0 5.8 1.7 5.8 L1.1 5.6 Q0.85 4.55 1.2 3.4 L1.35 3.15 Q2.4 1.5 4.35 0.95 M4.05 2.95 L3.7 2.85 Q3.5 2.85 3.4 2.95 L3.25 3.2 3.4 3.45 3.7 3.55 4.05 3.45 4.15 3.2 4.05 2.95" fill="#ffc72f" fill-rule="evenodd" stroke="none"/>
      <path d="M4.9 0.8 L5.75 1.0 5.9 1.2 5.85 1.8 5.65 2.0 3.75 1.95 4.35 0.95 4.9 0.8 M4.05 2.95 L4.15 3.2 4.05 3.45 3.7 3.55 3.4 3.45 3.25 3.2 3.4 2.95 Q3.5 2.85 3.7 2.85 L4.05 2.95" fill="#ffeb79" fill-rule="evenodd" stroke="none"/>
      <path d="M1.2 3.4 Q0.85 4.55 1.1 5.6 L1.7 5.8 Q3.0 5.8 3.8 4.8 L3.7 7.6 4.0 8.05 4.05 8.1 4.2 8.35 Q4.35 8.65 4.0 8.65 L3.95 8.6 2.75 8.1 0.5 5.55 1.2 3.4" fill="#c37015" fill-rule="evenodd" stroke="none"/>
    </g>
    <g id="sprite3">
      <use ffdec:characterId="7" height="34.5" transform="matrix(1.0, 0.0, 0.0, 1.0, 0.0, 0.0)" width="38.65" xlink:href="#shape3"/>
    </g>
    <g id="shape3">
      <path d="M26.15 1.7 Q27.75 1.9 29.0 2.45 31.25 3.45 32.95 5.25 L33.95 6.6 35.1 8.65 34.5 8.8 33.85 9.1 Q32.85 11.0 33.45 13.35 32.05 13.8 31.35 15.15 L32.15 18.4 Q33.85 17.25 35.85 16.95 L36.75 16.9 36.6 13.25 36.8 14.45 Q37.15 16.9 37.1 19.25 L36.65 23.9 36.45 24.6 35.25 25.05 34.9 24.2 34.75 23.8 34.05 21.2 33.45 26.1 32.6 30.7 32.45 31.3 31.85 31.3 Q32.6 28.95 32.45 26.45 L31.45 28.65 30.9 28.7 30.35 27.9 31.25 24.45 30.95 23.85 29.25 27.3 28.95 27.4 Q28.35 27.4 27.9 26.3 L27.65 25.55 27.7 25.05 Q27.7 24.35 27.3 24.65 L27.05 24.9 27.0 24.9 27.0 25.05 26.8 25.5 Q26.6 26.8 26.15 27.15 L24.35 28.25 19.5 28.65 16.1 28.6 16.0 28.6 15.25 28.6 14.95 28.5 13.15 28.35 13.1 28.3 13.1 28.2 12.75 26.5 12.35 27.1 Q12.2 27.4 12.2 27.65 L10.8 27.65 10.0 23.9 9.85 25.4 9.6 25.3 9.4 25.5 8.9 25.6 Q7.95 25.55 7.5 24.4 L7.2 22.95 7.15 22.95 7.1 20.8 Q6.5 22.1 6.35 23.8 6.1 25.95 6.65 27.9 L7.15 29.55 6.95 29.6 6.35 29.4 5.0 26.75 5.2 27.95 5.1 28.2 4.65 28.6 Q4.2 28.5 3.95 28.15 L3.55 27.95 2.1 25.15 Q1.2 22.9 1.05 20.45 L0.95 16.1 Q1.0 13.95 1.65 12.0 L3.1 8.35 Q3.95 6.55 5.35 5.1 6.8 3.55 8.55 2.45 10.4 1.25 12.8 0.7 15.05 0.5 17.0 1.4 L20.3 2.8 20.75 3.0 20.9 3.05 Q22.2 3.65 22.95 3.65 L25.7 3.15 26.65 2.5 Q26.65 2.0 26.15 1.7 M28.8 16.95 L29.0 19.55 31.5 18.45 30.85 16.15 28.8 16.95 M28.05 20.3 L27.8 17.9 27.5 16.3 22.05 16.55 Q16.95 17.5 11.85 16.5 L12.35 21.1 28.05 20.3 M1.9 13.5 L1.6 15.2 Q1.15 17.7 1.55 20.1 L3.6 13.55 2.45 13.05 1.9 13.5 M8.85 17.25 Q9.25 14.95 7.25 12.95 L6.65 12.85 4.9 13.5 Q2.55 17.2 3.85 21.4 6.35 21.75 7.75 19.7 L8.1 19.2 7.9 19.8 10.15 20.4 10.35 17.35 8.85 17.25" fill="#ffc72f" fill-rule="evenodd" stroke="none"/>
      <path d="M21.0 1.15 L21.8 1.0 Q23.8 0.5 25.9 0.95 28.6 1.05 30.75 2.3 32.85 3.45 34.45 5.25 36.0 6.9 36.95 8.95 37.75 10.9 38.1 13.15 L38.65 17.95 38.65 18.8 37.0 28.35 36.8 28.9 36.6 29.5 35.7 31.35 34.95 31.6 33.95 31.15 33.7 31.7 33.15 32.05 33.0 32.05 31.7 31.55 30.95 31.95 30.75 31.1 30.8 30.95 31.45 28.65 32.45 26.45 Q32.6 28.95 31.85 31.3 L32.45 31.3 32.6 30.7 33.45 26.1 34.05 21.2 34.75 23.8 34.85 26.35 Q34.8 28.4 34.15 30.35 L34.7 30.55 35.45 28.1 36.65 23.9 37.1 19.25 Q37.15 16.9 36.8 14.45 L36.6 13.25 35.1 8.65 33.95 6.6 32.95 5.25 Q31.25 3.45 29.0 2.45 27.75 1.9 26.15 1.7 L25.55 1.5 21.0 1.15 M30.05 31.0 L30.0 31.05 29.6 31.3 29.15 30.8 29.0 30.5 29.0 30.35 28.75 30.4 27.95 30.4 27.15 29.2 26.15 30.35 13.8 29.65 13.4 30.35 12.85 30.1 12.7 30.05 12.55 29.7 Q12.25 28.8 12.2 27.9 L12.2 27.65 Q12.2 27.4 12.35 27.1 L12.75 26.5 13.1 28.2 13.1 28.3 13.25 29.05 Q19.45 29.4 25.65 28.95 L27.3 27.1 27.7 27.35 27.95 27.7 28.25 28.25 28.45 28.9 29.25 27.3 30.95 23.85 31.25 24.45 30.35 27.9 30.2 28.3 30.55 28.7 30.35 29.9 30.1 30.8 30.05 31.0 M12.35 31.0 L9.0 32.25 8.1 31.75 7.3 31.95 6.95 32.45 6.5 32.45 5.55 33.7 5.6 34.4 4.55 33.2 Q2.85 31.15 2.1 28.6 L0.85 24.4 Q0.3 22.55 0.15 20.5 L0.0 16.25 Q0.05 13.4 1.05 10.75 1.8 9.05 2.85 7.35 3.75 5.9 4.95 4.6 6.95 2.4 9.55 1.2 10.8 0.6 11.8 0.35 L15.7 0.2 Q17.55 0.45 19.15 1.5 L19.55 1.75 19.65 2.1 20.3 2.8 17.0 1.4 Q15.05 0.5 12.8 0.7 10.4 1.25 8.55 2.45 6.8 3.55 5.35 5.1 3.95 6.55 3.1 8.35 L1.65 12.0 Q1.0 13.95 0.95 16.1 L1.05 20.45 Q1.2 22.9 2.1 25.15 L3.55 27.95 3.9 29.3 5.35 33.2 6.25 32.3 5.2 27.95 5.0 26.75 6.35 29.4 7.2 31.45 7.8 31.35 7.15 29.55 6.65 27.9 Q6.1 25.95 6.35 23.8 6.5 22.1 7.1 20.8 L7.15 22.95 Q7.2 24.8 7.6 26.5 8.35 29.15 9.45 31.55 L11.15 30.9 10.85 30.2 Q9.85 28.0 9.85 25.4 L10.0 23.9 10.8 27.65 11.95 30.25 12.35 31.0" fill="#421717" fill-rule="evenodd" stroke="none"/>
      <path d="M35.1 8.65 L36.6 13.25 36.75 16.9 35.85 16.95 Q33.85 17.25 32.15 18.4 L31.35 15.15 Q32.05 13.8 33.45 13.35 32.85 11.0 33.85 9.1 L34.5 8.8 35.1 8.65 M28.05 20.3 L12.35 21.1 11.85 16.5 Q16.95 17.5 22.05 16.55 L27.5 16.3 27.8 17.9 28.05 20.3 M28.8 16.95 L30.85 16.15 31.5 18.45 29.0 19.55 28.8 16.95 M8.85 17.25 L10.35 17.35 10.15 20.4 7.9 19.8 8.1 19.2 7.75 19.7 Q6.35 21.75 3.85 21.4 2.55 17.2 4.9 13.5 L6.65 12.85 7.25 12.95 Q9.25 14.95 8.85 17.25 M1.9 13.5 L2.45 13.05 3.6 13.55 1.55 20.1 Q1.15 17.7 1.6 15.2 L1.9 13.5" fill="#ffeb79" fill-rule="evenodd" stroke="none"/>
      <path d="M30.8 30.95 L30.75 30.95 30.35 30.95 30.15 30.85 30.1 30.8 30.35 29.9 30.55 28.7 30.2 28.3 30.35 27.9 30.9 28.7 31.45 28.65 30.8 30.95 M12.85 30.1 L12.75 30.15 12.4 30.3 12.35 30.25 12.3 30.25 12.0 30.25 11.95 30.25 10.8 27.65 12.2 27.65 12.2 27.9 Q12.25 28.8 12.55 29.7 L12.7 30.05 12.85 30.1 M19.15 1.5 L19.9 1.4 21.0 1.15 25.55 1.5 26.15 1.7 Q26.65 2.0 26.65 2.5 L25.7 3.15 22.95 3.65 Q22.2 3.65 20.9 3.05 L20.75 3.0 20.3 2.8 19.65 2.1 19.55 1.75 19.15 1.5 M36.65 23.9 L35.45 28.1 34.7 30.55 34.15 30.35 Q34.8 28.4 34.85 26.35 L34.75 23.8 34.9 24.2 35.25 25.05 36.45 24.6 36.65 23.9 M3.55 27.95 L3.95 28.15 Q4.2 28.5 4.65 28.6 L5.1 28.2 5.2 27.95 6.25 32.3 5.35 33.2 3.9 29.3 3.55 27.95 M6.35 29.4 L6.95 29.6 7.15 29.55 7.8 31.35 7.2 31.45 6.35 29.4 M7.15 22.95 L7.2 22.95 7.5 24.4 Q7.95 25.55 8.9 25.6 L9.4 25.5 9.6 25.3 9.85 25.4 Q9.85 28.0 10.85 30.2 L11.15 30.9 9.45 31.55 Q8.35 29.15 7.6 26.5 7.2 24.8 7.15 22.95 M13.1 28.3 L13.15 28.35 14.95 28.5 15.25 28.6 16.0 28.6 16.1 28.6 19.5 28.65 24.35 28.25 26.15 27.15 Q26.6 26.8 26.8 25.5 L27.0 25.05 27.0 24.9 27.05 24.9 27.3 24.65 Q27.7 24.35 27.7 25.05 L27.65 25.55 27.9 26.3 Q28.35 27.4 28.95 27.4 L29.25 27.3 28.45 28.9 28.25 28.25 27.95 27.7 27.7 27.35 27.3 27.1 25.65 28.95 Q19.45 29.4 13.25 29.05 L13.1 28.3" fill="#c37015" fill-rule="evenodd" stroke="none"/>
      <path d="M30.15 30.85 L30.1 31.0 30.05 31.0 30.1 30.8 30.15 30.85 M29.0 30.5 L28.95 30.5 28.75 30.4 29.0 30.35 29.0 30.5 M12.3 30.25 L12.0 30.3 12.35 31.0 11.95 30.25 12.0 30.25 12.3 30.25 M5.65 34.4 L5.65 34.5 5.6 34.5 5.65 34.4" fill="#87bded" fill-rule="evenodd" stroke="none"/>
    </g>
  </defs>
</svg>
