<?xml version="1.0" encoding="UTF-8" standalone="no"?>
<svg xmlns:ffdec="https://www.free-decompiler.com/flash" xmlns:xlink="http://www.w3.org/1999/xlink" ffdec:objectType="frame" height="20.5px" width="21.1px" xmlns="http://www.w3.org/2000/svg">
  <g transform="matrix(1.0, 0.0, 0.0, 1.0, -4.55, 23.75)">
    <use ffdec:characterId="5" height="20.5" transform="matrix(1.0, 0.0, 0.0, 1.0, 15.1, -13.5)" width="21.1" xlink:href="#sprite0"/>
  </g>
  <defs>
    <g id="sprite0">
      <use ffdec:characterId="4" height="20.5" transform="matrix(1.0, 0.0, 0.0, 1.0, 0.0, 0.0)" width="21.1" xlink:href="#shape0"/>
    </g>
    <g id="shape0">
      <path d="M3.8 -6.35 L4.0 -6.35 3.95 -6.3 3.8 -6.35" fill="#d17a25" fill-rule="evenodd" stroke="none"/>
      <path d="M2.45 -3.95 Q3.8 -4.15 3.8 -3.05 3.8 -2.05 2.85 -2.05 2.15 -2.05 1.7 -2.45 1.35 -2.75 1.35 -3.0 1.35 -3.3 1.65 -3.65 2.0 -4.0 2.45 -3.95 M-2.1 -4.9 Q-2.65 -5.45 -2.65 -5.9 -2.65 -6.95 -0.9 -6.75 0.85 -6.6 0.85 -5.2 0.85 -4.2 -0.4 -4.2 -1.4 -4.2 -2.1 -4.9 M-1.5 0.1 L-0.95 0.05 Q-0.1 0.2 -0.1 0.9 L-0.25 1.35 Q-0.45 1.7 -0.85 1.7 L-1.55 1.45 -1.8 0.8 -1.8 0.7 -1.75 0.4 -1.5 0.1" fill="#ffffff" fill-rule="evenodd" stroke="none"/>
      <path d="M4.0 -6.35 L4.55 -6.25 4.8 -5.7 4.3 -3.15 5.45 -1.7 6.25 -0.8 5.9 -0.7 6.2 0.1 6.65 0.05 6.55 -0.45 6.65 -0.25 7.05 0.3 7.4 0.75 7.15 2.3 7.05 2.3 7.15 2.5 7.15 2.55 7.1 2.65 6.85 2.7 5.0 2.0 2.85 1.85 Q2.1 2.25 1.85 4.8 L1.45 7.9 Q1.3 8.1 1.3 8.35 L1.3 8.55 1.25 9.05 0.75 9.4 Q0.05 9.4 -0.25 8.85 L-0.3 8.85 Q-1.15 8.85 -1.85 7.15 L-2.35 5.45 -2.2 3.8 Q-2.05 2.8 -1.6 3.9 L-1.55 1.45 -0.85 1.7 Q-0.45 1.7 -0.25 1.35 L-0.1 0.9 Q-0.1 0.2 -0.95 0.05 L-1.5 0.1 -1.6 -0.15 -1.85 -0.1 -1.75 0.4 -1.8 0.7 -1.8 0.8 -4.35 0.85 -6.75 0.6 Q-7.9 0.35 -8.0 -0.05 L-8.0 -0.9 -7.45 -1.8 Q-6.9 -2.55 -5.55 -3.15 L-3.8 -4.05 -3.2 -4.35 -3.9 -5.0 Q-3.3 -5.0 -3.1 -5.25 L-3.2 -5.6 Q-3.8 -6.25 -4.3 -6.1 L-4.4 -5.55 -4.6 -5.8 -5.35 -7.8 Q-5.35 -9.5 -3.1 -7.9 L-2.2 -7.2 -1.65 -7.15 2.1 -6.45 2.65 -6.55 3.8 -6.35 3.95 -6.3 4.0 -6.35 M3.55 -4.25 Q4.15 -4.25 3.8 -4.55 L2.1 -4.6 2.8 -4.5 Q3.3 -4.25 3.55 -4.25 M2.45 -3.95 Q2.0 -4.0 1.65 -3.65 1.35 -3.3 1.35 -3.0 1.35 -2.75 1.7 -2.45 2.15 -2.05 2.85 -2.05 3.8 -2.05 3.8 -3.05 3.8 -4.15 2.45 -3.95 M2.85 -1.8 L3.0 -1.45 3.25 -1.45 3.5 -1.8 Q3.2 -2.15 2.85 -1.8 M1.0 4.65 L0.95 3.85 Q0.65 3.85 0.35 4.25 L0.65 4.8 1.0 4.65 M1.3 1.0 L1.35 1.65 2.05 1.75 2.35 1.45 2.5 0.45 Q2.5 -0.15 2.15 0.1 1.3 0.45 1.3 1.0 M-6.3 -0.55 L-6.65 -0.55 Q-6.85 -0.55 -6.85 0.05 L-6.7 0.4 -6.65 0.45 -5.75 0.55 -5.55 0.05 -6.3 -0.55 M-2.1 -4.9 Q-1.4 -4.2 -0.4 -4.2 0.85 -4.2 0.85 -5.2 0.85 -6.6 -0.9 -6.75 -2.65 -6.95 -2.65 -5.9 -2.65 -5.45 -2.1 -4.9 M-1.15 -2.55 L-1.35 -2.75 Q-1.85 -2.75 -2.15 -2.3 L-1.75 -2.05 Q-1.25 -2.3 -1.15 -2.55" fill="#7cc8cf" fill-rule="evenodd" stroke="none"/>
      <path d="M4.55 -6.25 Q5.3 -6.1 5.65 -5.8 5.95 -5.25 5.9 -4.3 L5.9 -2.85 Q5.9 -2.45 7.8 0.0 9.75 2.35 9.75 3.1 L9.65 3.5 10.1 4.05 Q9.35 5.95 9.05 5.95 L8.6 5.65 8.55 5.4 7.9 5.55 Q6.95 5.55 4.9 4.4 L4.85 4.35 4.8 4.4 Q4.45 5.0 4.45 5.55 2.35 9.05 1.5 9.05 L1.25 9.05 1.3 8.55 Q1.35 8.75 1.8 8.75 L2.25 8.25 2.5 7.5 Q2.5 7.05 1.9 7.4 L1.45 7.9 1.85 4.8 Q2.1 2.25 2.85 1.85 L5.0 2.0 6.85 2.7 7.1 2.65 7.15 2.85 Q7.65 3.6 8.0 3.55 L8.05 3.55 8.4 3.25 Q8.05 2.15 7.15 2.3 L7.4 0.75 7.05 0.3 6.65 -0.25 6.55 -0.45 6.3 -0.85 6.25 -0.8 5.45 -1.7 4.3 -3.15 4.8 -5.7 4.55 -6.25 M-2.2 3.8 Q-2.9 3.3 -5.0 3.1 L-7.7 2.15 -8.2 2.6 Q-8.95 2.6 -9.25 1.55 L-9.35 0.55 Q-9.35 -0.4 -7.45 -1.8 L-8.0 -0.9 -8.0 -0.05 Q-7.9 0.35 -6.75 0.6 L-4.35 0.85 -1.8 0.8 -1.55 1.45 -1.6 3.9 Q-2.05 2.8 -2.2 3.8 M-5.55 -3.15 Q-7.6 -5.9 -7.6 -6.85 L-7.45 -8.1 Q-7.45 -9.25 -6.15 -9.3 -4.65 -9.4 -2.05 -7.5 L-1.65 -7.15 -2.2 -7.2 -3.1 -7.9 Q-5.35 -9.5 -5.35 -7.8 L-4.6 -5.8 -4.4 -5.55 -4.4 -5.4 -4.3 -5.15 Q-4.25 -5.0 -3.9 -5.0 L-3.2 -4.35 -3.8 -4.05 -5.55 -3.15 M4.25 3.0 Q4.25 2.75 4.0 2.9 3.7 3.0 3.7 3.35 L3.7 3.6 3.95 3.8 4.2 3.6 4.25 3.4 4.25 3.0" fill="#368d96" fill-rule="evenodd" stroke="none"/>
      <path d="M6.25 -0.8 L6.3 -0.85 6.55 -0.45 6.65 0.05 6.2 0.1 5.9 -0.7 6.25 -0.8 M7.15 2.3 Q8.05 2.15 8.4 3.25 L8.05 3.55 8.0 3.55 Q7.65 3.6 7.15 2.85 L7.1 2.65 7.15 2.55 7.15 2.5 7.05 2.3 7.15 2.3 M1.45 7.9 L1.9 7.4 Q2.5 7.05 2.5 7.5 L2.25 8.25 1.8 8.75 Q1.35 8.75 1.3 8.55 L1.3 8.35 Q1.3 8.1 1.45 7.9 M3.55 -4.25 Q3.3 -4.25 2.8 -4.5 L2.1 -4.6 3.8 -4.55 Q4.15 -4.25 3.55 -4.25 M2.85 -1.8 Q3.2 -2.15 3.5 -1.8 L3.25 -1.45 3.0 -1.45 2.85 -1.8 M4.25 3.0 L4.25 3.4 4.2 3.6 3.95 3.8 3.7 3.6 3.7 3.35 Q3.7 3.0 4.0 2.9 4.25 2.75 4.25 3.0 M1.3 1.0 Q1.3 0.45 2.15 0.1 2.5 -0.15 2.5 0.45 L2.35 1.45 2.05 1.75 1.35 1.65 1.3 1.0 M1.0 4.65 L0.65 4.8 0.35 4.25 Q0.65 3.85 0.95 3.85 L1.0 4.65 M-6.3 -0.55 L-5.55 0.05 -5.75 0.55 -6.65 0.45 -6.7 0.4 -6.85 0.05 Q-6.85 -0.55 -6.65 -0.55 L-6.3 -0.55 M-4.4 -5.55 L-4.3 -6.1 Q-3.8 -6.25 -3.2 -5.6 L-3.1 -5.25 Q-3.3 -5.0 -3.9 -5.0 -4.25 -5.0 -4.3 -5.15 L-4.4 -5.4 -4.4 -5.55 M-1.15 -2.55 Q-1.25 -2.3 -1.75 -2.05 L-2.15 -2.3 Q-1.85 -2.75 -1.35 -2.75 L-1.15 -2.55 M-1.75 0.4 L-1.85 -0.1 -1.6 -0.15 -1.5 0.1 -1.75 0.4" fill="#205257" fill-rule="evenodd" stroke="none"/>
      <path d="M-4.95 -2.75 L-4.95 -2.65 -5.0 -2.65 -4.95 -2.75 M5.65 -2.8 Q5.85 -4.1 5.6 -4.65 4.85 -6.0 3.5 -6.3 L0.85 -6.1 Q-0.9 -6.5 -2.0 -7.35 -3.6 -8.7 -5.85 -9.1 L-7.15 -8.65 Q-7.8 -7.95 -5.65 -3.85 L-5.5 -4.0 -5.15 -4.35 -5.75 -5.4 -4.85 -4.85 -4.55 -3.85 -4.55 -3.8 -4.8 -3.55 -5.25 -3.2 -6.3 -2.5 -6.85 -2.15 -8.9 -0.3 Q-9.8 0.65 -8.35 1.55 L-5.45 2.4 -2.05 2.95 -2.0 2.95 -1.7 3.0 -1.7 3.1 Q-1.35 5.35 -0.5 7.05 L0.6 8.45 Q0.95 8.8 1.5 8.95 2.15 9.5 4.7 4.7 5.05 3.6 5.6 3.6 5.7 3.35 6.0 3.6 L6.45 3.9 6.5 3.95 6.15 4.0 5.95 4.0 5.55 4.2 5.55 4.25 5.45 4.35 6.9 4.85 8.85 5.05 9.5 4.35 Q9.75 3.85 9.65 3.4 9.1 1.85 5.4 -2.3 L5.7 -2.05 Q5.6 -2.35 5.65 -2.8 M0.45 -7.15 L2.45 -7.3 4.2 -7.05 Q5.65 -6.75 6.15 -5.45 6.55 -4.3 6.5 -2.55 6.85 -2.0 7.05 -2.0 L7.9 -1.05 9.25 0.65 9.7 1.45 10.1 2.15 Q10.55 3.1 10.55 4.15 L10.45 5.1 10.0 5.75 9.4 6.15 8.1 6.25 5.1 5.7 Q3.2 10.25 2.05 10.25 L1.55 10.1 1.25 10.1 Q0.3 10.1 -0.3 9.4 -1.25 8.8 -2.05 6.75 L-2.95 4.0 -8.3 2.95 Q-10.1 2.4 -10.35 1.5 L-10.5 0.05 -10.1 -1.0 -8.2 -2.6 Q-6.9 -3.65 -6.85 -3.4 -6.75 -4.0 -7.15 -4.55 L-8.0 -6.0 Q-8.4 -6.9 -8.2 -8.1 -8.05 -9.3 -7.5 -9.85 -7.0 -10.45 -5.85 -10.2 L-4.65 -9.95 -2.55 -8.8 Q-0.5 -7.6 0.45 -7.15" fill="#000000" fill-rule="evenodd" stroke="none"/>
    </g>
  </defs>
</svg>
