<?xml version="1.0" encoding="UTF-8" standalone="no"?>
<svg xmlns:ffdec="https://www.free-decompiler.com/flash" xmlns:xlink="http://www.w3.org/1999/xlink" ffdec:objectType="frame" height="22.75px" width="40.0px" xmlns="http://www.w3.org/2000/svg">
  <g transform="matrix(1.0, 0.0, 0.0, 1.0, 19.55, 30.85)">
    <use ffdec:characterId="1" height="15.6" transform="matrix(1.0, 0.0, 0.0, 1.0, 0.6, -15.9)" width="39.7" xlink:href="#shape0"/>
    <use ffdec:characterId="2" height="17.05" transform="matrix(1.0, 0.0, 0.0, 1.0, 12.45, -22.3)" width="15.45" xlink:href="#shape1"/>
    <use ffdec:characterId="2" height="17.05" transform="matrix(-1.0, 0.0, 0.0, 1.0, -11.8, -22.3)" width="15.45" xlink:href="#shape1"/>
  </g>
  <defs>
    <g id="shape0">
      <path d="M9.9 -4.55 L10.9 -1.9 Q11.0 -1.5 10.7 -1.3 L6.65 -2.0 Q-1.75 -3.55 -8.4 -0.85 -11.95 -0.1 -14.15 1.5 -18.35 4.55 -19.85 7.05 -18.8 1.9 -14.45 -2.0 -8.6 -7.15 -0.5 -7.15 5.3 -7.15 9.9 -4.55" fill="#e3ab4c" fill-rule="evenodd" stroke="none"/>
      <path d="M-8.4 -0.85 Q-1.75 -3.55 6.65 -2.0 L10.7 -1.3 Q11.0 -1.5 10.9 -1.9 L9.9 -4.55 13.4 -2.0 Q18.05 2.1 19.0 7.65 17.4 4.8 12.6 1.7 7.75 -1.45 -1.1 -1.5 L-8.4 -0.85" fill="#bd862b" fill-rule="evenodd" stroke="none"/>
      <path d="M-14.8 -0.5 Q-16.65 1.4 -17.6 3.15 L-17.6 3.2 -13.3 -0.25 Q-9.5 -2.55 -2.0 -2.55 4.0 -2.55 6.95 -1.35 9.85 -0.2 14.4 2.8 18.95 5.8 18.9 6.65 18.8 7.3 19.25 7.8 15.85 4.75 10.95 1.8 5.85 -1.3 -2.9 -1.25 -11.7 -1.25 -15.9 3.0 -16.95 4.1 -17.8 5.9 -18.45 7.25 -18.95 7.25 -19.3 7.25 -19.6 6.9 L-19.85 6.3 Q-19.85 3.95 -16.7 0.55 -14.05 -2.25 -11.1 -4.1 L-14.8 -0.5" fill="#000000" fill-rule="evenodd" stroke="none"/>
      <path d="M-2.4 -6.9 L-5.15 -6.35 Q-0.8 -8.55 4.4 -7.4 8.5 -6.45 12.15 -4.05 16.05 -1.55 18.2 2.5 19.4 4.65 19.85 7.1 L19.65 7.4 19.35 7.6 19.15 7.75 Q16.85 3.1 13.65 -1.05 12.65 -2.35 11.3 -3.25 7.0 -6.2 2.05 -6.6 L-2.4 -6.9" fill="#000000" fill-rule="evenodd" stroke="none"/>
      <path d="M-3.45 -4.35 Q-3.6 -4.05 -4.2 -4.05 -4.8 -4.05 -5.15 -4.75 -5.15 -5.2 -4.8 -5.2 L-4.5 -5.05 -3.45 -5.2 -3.4 -4.75 -3.45 -4.35" fill="#000000" fill-rule="evenodd" stroke="none"/>
      <path d="M-2.3 -6.1 Q-2.3 -5.45 -3.05 -5.45 -3.85 -5.45 -3.85 -5.85 -3.1 -6.6 -2.8 -6.6 -2.25 -6.6 -2.3 -6.1" fill="#000000" fill-rule="evenodd" stroke="none"/>
      <path d="M-0.75 -3.3 Q-0.75 -2.85 -1.5 -2.85 -2.25 -2.85 -2.6 -3.4 L-2.45 -3.65 -1.8 -3.8 -1.7 -4.05 -1.2 -4.25 Q-0.95 -4.25 -0.75 -3.3" fill="#000000" fill-rule="evenodd" stroke="none"/>
      <path d="M-0.85 -4.65 L-1.65 -4.8 -1.65 -5.05 -1.45 -5.5 -0.35 -5.8 Q0.1 -5.85 0.1 -5.05 L-0.05 -4.75 -0.85 -4.65" fill="#000000" fill-rule="evenodd" stroke="none"/>
      <path d="M0.85 -3.3 Q0.85 -2.9 0.3 -2.9 -0.5 -2.9 -0.3 -3.55 -0.3 -4.4 0.2 -4.4 0.65 -4.4 0.85 -3.3" fill="#000000" fill-rule="evenodd" stroke="none"/>
      <path d="M2.35 -4.25 Q2.0 -4.25 1.8 -4.7 L1.65 -5.2 Q1.65 -5.8 2.3 -5.5 L2.95 -4.75 Q2.95 -4.25 2.35 -4.25" fill="#000000" fill-rule="evenodd" stroke="none"/>
      <path d="M4.65 -5.2 L3.95 -5.05 Q3.5 -5.05 3.35 -5.45 L3.3 -5.8 Q3.3 -6.45 4.0 -6.35 4.7 -6.25 4.7 -5.5 L4.65 -5.2" fill="#000000" fill-rule="evenodd" stroke="none"/>
      <path d="M4.8 -3.85 Q4.8 -3.35 4.2 -3.35 L2.8 -3.6 2.7 -3.9 Q2.65 -4.55 3.95 -4.55 4.9 -4.55 4.8 -3.85" fill="#000000" fill-rule="evenodd" stroke="none"/>
      <path d="M7.85 -4.1 L7.3 -3.95 6.4 -4.45 6.0 -5.0 Q6.0 -5.5 6.95 -5.4 7.85 -5.25 7.85 -4.35 L7.85 -4.1" fill="#000000" fill-rule="evenodd" stroke="none"/>
      <path d="M6.8 -3.65 L6.55 -2.95 Q6.75 -2.35 5.9 -2.35 5.55 -2.35 5.5 -2.6 L5.5 -2.9 5.65 -3.95 5.95 -4.2 Q6.65 -4.2 6.8 -3.65" fill="#000000" fill-rule="evenodd" stroke="none"/>
      <path d="M7.95 -2.8 L8.1 -2.3 7.75 -2.0 Q7.5 -2.0 7.25 -2.55 L7.05 -3.3 Q7.05 -3.6 7.6 -3.5 8.15 -3.4 8.15 -3.2 L7.95 -2.8" fill="#000000" fill-rule="evenodd" stroke="none"/>
      <path d="M9.35 -1.5 Q8.6 -1.5 8.6 -1.9 L8.8 -2.3 9.35 -2.35 10.25 -2.95 Q10.65 -3.3 10.65 -2.35 10.65 -1.5 9.35 -1.5" fill="#000000" fill-rule="evenodd" stroke="none"/>
      <path d="M11.85 -1.3 L12.05 -0.65 Q12.05 -0.35 11.5 -0.35 L10.8 -0.75 10.55 -1.2 10.55 -1.45 11.25 -1.6 11.85 -1.3" fill="#000000" fill-rule="evenodd" stroke="none"/>
      <path d="M10.05 -1.25 Q10.5 -1.25 10.5 -0.65 10.5 -0.3 10.0 -0.3 L9.0 -0.5 8.6 -0.85 8.8 -1.2 9.45 -1.1 Q9.95 -1.1 10.05 -1.25" fill="#000000" fill-rule="evenodd" stroke="none"/>
      <path d="M14.6 1.35 Q14.6 1.75 14.25 1.75 13.85 1.75 13.65 1.45 L13.4 1.05 12.95 0.55 12.95 0.3 Q13.05 0.15 13.6 0.15 L14.2 0.35 14.2 0.75 14.6 1.35" fill="#000000" fill-rule="evenodd" stroke="none"/>
      <path d="M-6.85 -4.05 L-6.65 -3.65 Q-6.65 -2.95 -7.7 -2.95 -8.25 -2.95 -8.15 -3.65 -8.15 -4.45 -7.4 -4.45 -7.1 -4.45 -6.85 -4.05" fill="#000000" fill-rule="evenodd" stroke="none"/>
      <path d="M-8.6 -4.65 L-9.5 -3.3 -9.85 -3.55 -9.8 -3.85 -10.4 -3.95 -10.45 -4.2 -10.3 -4.65 Q-10.1 -5.0 -9.7 -5.0 -8.6 -5.0 -8.6 -4.65" fill="#000000" fill-rule="evenodd" stroke="none"/>
      <path d="M-8.25 -2.35 L-9.25 -2.1 -9.55 -2.1 -9.8 -2.45 -9.75 -2.75 -9.35 -2.8 -8.75 -3.4 Q-8.2 -3.8 -8.2 -2.8 L-8.25 -2.35" fill="#000000" fill-rule="evenodd" stroke="none"/>
      <path d="M-5.75 -5.45 Q-6.1 -5.1 -6.45 -5.1 -6.95 -5.1 -6.95 -5.6 -6.95 -6.05 -6.2 -6.2 -5.45 -6.4 -5.45 -5.9 L-5.75 -5.45" fill="#000000" fill-rule="evenodd" stroke="none"/>
      <path d="M-10.7 -1.8 Q-11.05 -1.5 -11.55 -1.5 -12.15 -1.5 -12.15 -2.0 L-11.45 -2.95 Q-11.25 -3.05 -10.9 -2.7 L-10.4 -2.2 -10.7 -1.8" fill="#000000" fill-rule="evenodd" stroke="none"/>
      <path d="M-13.05 -1.1 Q-13.05 -0.7 -13.55 -0.7 -14.35 -0.7 -14.35 -1.15 -14.35 -1.5 -13.65 -1.5 -13.05 -1.5 -13.05 -1.1" fill="#000000" fill-rule="evenodd" stroke="none"/>
    </g>
    <g id="shape1">
      <path d="M2.55 -2.7 Q3.95 1.1 3.25 4.9 L2.95 5.75 2.8 5.9 2.55 5.75 2.5 5.55 2.35 5.45 2.3 5.15 Q1.15 4.35 -0.75 3.7 -2.7 2.95 -4.15 2.85 L-5.85 2.45 Q-6.1 2.05 -5.7 1.0 L-4.15 -1.75 -2.3 -4.1 -1.3 -5.15 -0.25 -6.0 Q0.2 -6.3 0.7 -5.85 1.95 -4.35 2.55 -2.7" fill="#000000" fill-rule="evenodd" stroke="none"/>
      <path d="M-3.45 -1.85 L-2.25 -3.3 -1.5 -4.1 -0.7 -4.75 0.05 -4.65 1.5 -2.2 Q2.6 0.75 2.0 3.7 L1.85 3.9 1.55 3.95 1.05 3.7 -0.95 2.8 Q-2.6 2.15 -3.75 2.1 L-5.05 1.75 Q-5.25 1.5 -4.9 0.65 L-4.5 -0.15 Q-4.4 0.7 -3.5 1.25 -2.55 1.8 -1.55 1.85 L-0.2 1.55 Q0.2 0.15 -0.15 -1.25 -0.45 -2.35 -1.25 -2.95 -1.85 -3.0 -2.45 -2.65 L-3.45 -1.85" fill="#f2a6dc" fill-rule="evenodd" stroke="none"/>
      <path d="M-4.5 -0.15 L-3.75 -1.5 -3.45 -1.85 -2.45 -2.65 Q-1.85 -3.0 -1.25 -2.95 -0.45 -2.35 -0.15 -1.25 0.2 0.15 -0.2 1.55 L-1.55 1.85 Q-2.55 1.8 -3.5 1.25 -4.4 0.7 -4.5 -0.15" fill="#fecdeb" fill-rule="evenodd" stroke="none"/>
      <path d="M-0.25 -6.0 L-1.3 -5.15 -2.3 -4.1 -4.15 -1.75 -5.7 1.0 Q-6.1 2.05 -5.85 2.45 L-4.15 2.85 Q-2.7 2.95 -0.75 3.7 1.15 4.35 2.3 5.15 L2.35 5.45 2.5 5.55 2.55 5.75 2.8 5.9 2.95 5.75 3.25 4.9 Q3.95 1.1 2.55 -2.7 1.95 -4.35 0.7 -5.85 0.2 -6.3 -0.25 -6.0 M6.4 7.45 L6.05 7.85 5.5 8.1 Q3.75 8.45 2.4 7.2 1.05 6.0 -2.2 4.9 -5.5 3.75 -6.55 3.7 -7.65 3.55 -7.35 2.2 -7.1 0.75 -5.8 -1.2 L-3.5 -4.35 -1.65 -6.5 -0.1 -8.0 1.8 -7.95 2.0 -7.8 2.1 -7.75 Q3.0 -7.2 3.9 -5.85 L4.3 -4.75 4.85 -3.05 5.05 -1.0 4.7 1.0 4.5 0.3 Q4.05 -1.5 2.7 -3.75 L3.75 -0.45 4.15 2.1 Q4.3 3.35 4.1 4.4 L3.7 6.0 3.3 6.75 Q3.1 6.9 3.4 7.15 L4.1 7.55 5.15 7.8 5.6 7.8 6.4 7.45" fill="#e09f37" fill-rule="evenodd" stroke="none"/>
      <path d="M3.9 -5.85 L4.1 -5.45 4.7 -4.45 5.3 -3.35 6.15 -1.75 6.6 -0.65 7.35 2.3 7.45 3.45 Q7.5 4.95 6.95 6.3 L6.6 7.0 6.4 7.45 5.6 7.8 5.15 7.8 4.1 7.55 3.4 7.15 Q3.1 6.9 3.3 6.75 L3.7 6.0 4.1 4.4 Q4.3 3.35 4.15 2.1 L3.75 -0.45 2.7 -3.75 Q4.05 -1.5 4.5 0.3 L4.7 1.0 5.05 -1.0 4.85 -3.05 4.3 -4.75 3.9 -5.85" fill="#edb45a" fill-rule="evenodd" stroke="none"/>
      <path d="M4.15 -2.95 L3.8 -2.7 Q3.3 -2.7 3.3 -3.05 3.3 -3.55 3.85 -3.7 4.4 -3.8 4.4 -3.3 L4.15 -2.95" fill="#000000" fill-rule="evenodd" stroke="none"/>
      <path d="M5.25 -1.0 Q4.8 -1.0 4.65 -1.3 L4.65 -1.65 Q4.05 -1.6 4.05 -1.95 4.05 -2.35 4.9 -2.1 5.75 -1.85 5.75 -1.3 5.75 -1.0 5.25 -1.0" fill="#000000" fill-rule="evenodd" stroke="none"/>
      <path d="M4.85 -0.2 L4.65 0.1 4.1 0.35 Q3.15 0.35 3.4 -0.55 3.4 -1.45 3.75 -1.3 L3.85 -0.8 Q3.85 -0.6 4.6 -0.6 4.9 -0.6 4.85 -0.2" fill="#000000" fill-rule="evenodd" stroke="none"/>
      <path d="M6.05 1.4 L5.65 1.6 5.2 1.95 5.0 1.7 Q5.0 0.95 5.6 0.65 6.15 0.4 6.15 1.1 L6.05 1.4" fill="#000000" fill-rule="evenodd" stroke="none"/>
      <path d="M7.05 2.25 Q6.65 2.25 6.4 1.95 L6.2 1.55 Q6.2 1.05 6.85 1.3 7.5 1.5 7.5 1.95 L7.05 2.25" fill="#000000" fill-rule="evenodd" stroke="none"/>
      <path d="M6.3 2.5 Q6.4 2.35 6.55 2.35 7.1 2.35 7.1 2.95 7.1 3.45 6.55 3.45 L5.85 3.15 Q5.5 2.85 5.5 2.55 5.5 2.0 5.75 2.25 L6.2 2.6 6.3 2.5" fill="#000000" fill-rule="evenodd" stroke="none"/>
      <path d="M5.3 4.8 L4.8 5.15 4.15 4.9 4.05 4.65 Q4.05 4.3 4.75 3.8 L5.35 3.85 5.65 4.3 5.3 4.8" fill="#000000" fill-rule="evenodd" stroke="none"/>
      <path d="M6.25 5.45 Q5.85 5.45 5.85 5.0 5.85 4.5 6.65 4.5 7.45 4.5 7.45 4.85 7.45 5.45 6.25 5.45" fill="#000000" fill-rule="evenodd" stroke="none"/>
      <path d="M5.7 6.7 L5.1 6.95 Q4.45 6.95 4.45 6.5 L4.75 5.9 4.75 5.6 4.85 5.35 Q5.45 5.3 5.65 5.65 L5.7 6.3 5.7 6.7" fill="#000000" fill-rule="evenodd" stroke="none"/>
      <path d="M6.5 6.65 Q6.2 6.65 6.2 6.5 L6.2 6.35 Q6.2 5.95 6.7 5.85 7.15 5.7 7.15 6.1 7.15 6.65 6.5 6.65" fill="#000000" fill-rule="evenodd" stroke="none"/>
      <path d="M1.7 -7.05 L2.0 -6.65 2.2 -6.3 1.85 -6.1 Q1.55 -6.1 1.45 -6.25 L0.9 -6.55 Q0.35 -6.65 0.35 -7.1 0.4 -7.75 0.85 -7.75 1.35 -7.75 1.7 -7.05" fill="#000000" fill-rule="evenodd" stroke="none"/>
      <path d="M3.35 -6.05 L3.05 -5.95 Q2.75 -5.95 2.5 -6.55 L2.25 -7.15 Q2.25 -7.8 2.8 -7.4 3.35 -6.95 3.35 -6.3 L3.35 -6.05" fill="#000000" fill-rule="evenodd" stroke="none"/>
      <path d="M2.5 -5.8 Q3.5 -5.75 3.5 -5.3 L3.3 -5.0 Q3.05 -4.8 2.8 -4.8 2.6 -4.8 2.25 -5.1 L1.9 -5.4 Q1.9 -6.05 2.5 -5.85 L2.5 -5.8" fill="#000000" fill-rule="evenodd" stroke="none"/>
      <path d="M-0.75 -6.4 Q-1.1 -5.85 -1.6 -5.85 L-1.9 -6.15 Q-0.5 -8.0 -0.5 -7.05 L-0.75 -6.4" fill="#000000" fill-rule="evenodd" stroke="none"/>
      <path d="M-2.4 -3.95 L-2.5 -3.6 Q-2.6 -3.35 -2.95 -3.35 L-3.15 -3.55 Q-1.75 -5.6 -1.75 -4.6 L-2.4 -3.95" fill="#000000" fill-rule="evenodd" stroke="none"/>
      <path d="M-3.1 -3.85 L-3.6 -3.2 Q-4.05 -3.2 -4.05 -3.65 L-3.5 -4.55 Q-3.2 -5.0 -2.95 -4.9 L-2.75 -4.55 -3.1 -3.85" fill="#000000" fill-rule="evenodd" stroke="none"/>
      <path d="M-4.75 -0.65 Q-5.05 -0.65 -5.0 -1.25 -5.0 -1.95 -4.5 -1.9 -4.0 -1.85 -4.0 -1.4 L-4.75 -0.65" fill="#000000" fill-rule="evenodd" stroke="none"/>
      <path d="M-5.55 -0.2 L-6.0 0.3 Q-6.45 0.65 -6.65 0.65 L-6.9 0.4 Q-6.9 -0.05 -6.2 -0.6 -5.55 -1.15 -5.55 -0.2" fill="#000000" fill-rule="evenodd" stroke="none"/>
      <path d="M-5.45 2.7 Q-5.6 3.0 -6.05 3.0 -6.4 3.0 -6.45 2.8 L-6.5 2.55 -6.95 2.15 Q-6.95 1.65 -6.15 1.6 -5.4 1.55 -5.4 2.35 L-5.45 2.7" fill="#000000" fill-rule="evenodd" stroke="none"/>
      <path d="M-4.1 4.3 L-4.6 4.2 -4.95 3.85 Q-4.95 3.25 -4.25 3.5 -3.55 3.8 -3.55 4.05 -3.55 4.3 -4.1 4.3" fill="#000000" fill-rule="evenodd" stroke="none"/>
      <path d="M-2.1 4.25 L-2.65 3.5 Q-2.65 2.5 -1.65 3.65 -1.65 4.25 -2.1 4.25" fill="#000000" fill-rule="evenodd" stroke="none"/>
      <path d="M-1.25 5.35 L-2.2 4.8 -2.1 4.6 -1.75 4.6 Q-1.6 3.95 -1.1 4.45 -0.8 4.6 -0.8 5.0 L-1.25 5.35" fill="#000000" fill-rule="evenodd" stroke="none"/>
      <path d="M0.15 5.1 L-0.3 4.6 -0.5 3.95 Q-0.5 3.5 0.05 3.85 0.6 4.15 0.6 4.5 0.6 5.1 0.15 5.1" fill="#000000" fill-rule="evenodd" stroke="none"/>
      <path d="M1.45 6.4 Q0.75 6.4 0.45 5.7 0.45 5.25 1.3 5.5 2.1 5.7 2.1 6.05 2.1 6.4 1.45 6.4" fill="#000000" fill-rule="evenodd" stroke="none"/>
      <path d="M3.0 7.55 Q2.5 7.55 2.5 6.95 2.5 6.25 3.1 6.4 3.65 6.55 3.65 7.15 3.65 7.55 3.0 7.55" fill="#000000" fill-rule="evenodd" stroke="none"/>
      <path d="M5.2 8.3 Q3.8 8.3 4.05 8.0 L4.75 7.4 5.5 7.5 5.85 8.05 5.2 8.3" fill="#000000" fill-rule="evenodd" stroke="none"/>
      <path d="M3.75 2.95 L3.5 2.3 3.4 1.65 Q3.4 1.2 3.95 1.5 4.5 1.85 4.5 2.4 4.5 2.95 3.75 2.95" fill="#000000" fill-rule="evenodd" stroke="none"/>
      <path d="M4.45 -4.7 L4.6 -4.4 Q4.6 -3.85 3.75 -3.85 L3.55 -4.05 3.65 -4.3 3.4 -4.65 Q3.4 -4.9 3.9 -4.9 L4.45 -4.7" fill="#000000" fill-rule="evenodd" stroke="none"/>
      <path d="M-0.15 -7.95 Q0.85 -8.8 1.7 -8.45 2.5 -8.15 4.2 -5.95 L6.45 -2.25 Q7.1 -0.8 7.55 2.15 8.0 5.05 7.5 6.65 6.9 8.25 5.35 8.35 L4.8 8.5 Q3.65 8.6 2.9 8.1 L2.3 7.45 -0.2 6.0 Q-3.45 4.3 -6.1 3.7 L-3.15 4.3 -1.05 5.1 Q2.55 6.6 2.75 7.2 L3.2 7.45 3.75 7.7 4.55 7.8 4.65 7.75 4.8 7.7 Q5.65 7.65 6.15 7.1 L6.2 7.1 6.9 5.8 Q7.2 4.0 6.95 1.85 6.7 -0.35 5.85 -2.35 4.95 -4.4 3.35 -6.3 1.75 -8.25 0.65 -8.2 0.15 -7.95 -0.1 -8.0 L-0.15 -7.95 M-6.05 0.2 Q-7.15 1.75 -7.05 2.7 L-6.8 3.05 -6.55 3.4 Q-6.55 3.75 -6.9 3.85 -7.25 3.95 -7.45 3.55 L-7.7 2.3 Q-7.75 1.45 -4.8 -2.7 -1.85 -6.9 -0.45 -7.55 -3.35 -4.75 -4.5 -2.45 L-6.05 0.2 M2.2 -3.7 L1.1 -5.55 Q0.4 -6.65 -0.45 -6.55 0.2 -7.3 0.8 -6.7 L1.45 -5.75 2.25 -3.75 2.2 -3.7" fill="#000000" fill-rule="evenodd" stroke="none"/>
    </g>
  </defs>
</svg>
