<?xml version="1.0" encoding="UTF-8" standalone="no"?>
<svg xmlns:ffdec="https://www.free-decompiler.com/flash" xmlns:xlink="http://www.w3.org/1999/xlink" ffdec:objectType="frame" height="36.7px" width="53.0px" xmlns="http://www.w3.org/2000/svg">
  <g transform="matrix(1.0, 0.0, 0.0, 1.0, 26.55, 35.2)">
    <use ffdec:characterId="5" height="5.95" transform="matrix(1.0, 0.0, 0.0, 1.0, 0.0, -16.85)" width="7.05" xlink:href="#shape0"/>
    <use ffdec:characterId="2" height="22.2" transform="matrix(1.0, 0.0, 0.0, 1.0, -20.15, -13.95)" width="11.55" xlink:href="#shape1"/>
    <use ffdec:characterId="2" height="22.2" transform="matrix(-1.0, 0.0053, 0.0053, 1.0, 20.0, -14.7)" width="11.55" xlink:href="#shape1"/>
    <use ffdec:characterId="6" height="28.0" transform="matrix(1.0, 0.0, 0.0, 1.0, 0.0, -16.85)" width="48.8" xlink:href="#shape2"/>
  </g>
  <defs>
    <g id="shape0">
      <path d="M-22.0 9.35 L-21.45 9.0 Q-20.9 8.6 -20.65 7.8 -20.4 7.05 -19.6 6.25 L-18.1 4.8 Q-16.65 3.65 -15.65 3.75 -14.9 3.8 -14.95 4.25 -15.3 4.15 -17.3 5.0 L-19.0 6.6 -20.1 8.6 Q-20.6 9.7 -21.35 9.7 -22.0 9.7 -22.0 9.35" fill="#000000" fill-rule="evenodd" stroke="none"/>
    </g>
    <g id="shape1">
      <path d="M-4.85 1.8 L-4.75 1.5 -3.65 -1.25 Q-3.25 -2.2 -3.1 -4.1 -3.0 -6.0 -3.3 -6.75 L-2.85 -5.9 -1.95 -4.7 -0.8 -3.6 2.3 -1.5 5.15 0.65 4.75 0.9 4.6 0.75 2.5 0.6 Q0.2 1.3 -1.1 3.25 L-2.55 4.0 -3.5 3.9 -4.0 3.7 Q-4.8 2.8 -4.85 1.8" fill="#666666" fill-rule="evenodd" stroke="none"/>
      <path d="M4.75 0.9 L4.25 0.95 Q3.2 0.95 2.2 1.8 L0.9 3.1 -0.15 5.1 -1.0 6.4 Q-1.55 6.4 -4.05 4.85 L-5.0 4.05 -5.4 3.3 -4.85 1.8 Q-4.8 2.8 -4.0 3.7 L-3.5 3.9 -2.55 4.0 -1.1 3.25 Q0.2 1.3 2.5 0.6 L4.6 0.75 4.75 0.9" fill="#333333" fill-rule="evenodd" stroke="none"/>
      <path d="M-3.45 -5.55 L-3.4 -6.05 -3.35 -6.05 Q-3.0 -5.5 -3.0 -3.35 -3.0 -2.3 -3.95 -0.05 -4.95 2.2 -4.95 3.2 -4.95 4.05 -3.6 5.05 -2.35 6.0 -1.6 6.0 L-1.2 5.85 -0.85 5.65 Q-0.65 5.65 -0.6 5.9 L-0.55 6.15 -0.9 6.5 -1.45 6.7 -3.0 6.15 Q-4.25 5.6 -4.6 5.25 -5.6 4.35 -5.6 3.65 -5.6 1.95 -4.45 -0.45 -3.35 -2.85 -3.35 -4.7 L-3.45 -5.55" fill="#000000" fill-rule="evenodd" stroke="none"/>
      <path d="M-2.15 -2.9 Q-1.65 -2.25 0.1 -1.3 L2.45 -0.05 2.45 0.1 2.3 0.15 Q1.8 0.15 0.05 -1.0 L-1.5 -2.1 -2.15 -2.9" fill="#000000" fill-rule="evenodd" stroke="none"/>
      <path d="M-5.35 13.15 L-5.85 11.4 -5.95 9.2 Q-5.95 7.55 -5.6 6.05 L-5.55 5.95 Q-3.3 5.6 -2.85 8.5 -2.45 11.4 -3.35 12.7 -4.25 13.95 -5.35 13.15" fill="#996600" fill-rule="evenodd" stroke="none"/>
      <path d="M-5.55 5.95 L-5.15 4.65 Q-4.8 3.8 -4.3 4.25 -4.05 4.85 -2.55 5.25 -1.2 5.6 -1.2 6.2 L-1.55 8.55 -1.5 13.85 Q-1.5 14.95 -2.05 14.95 -4.3 14.95 -5.35 13.15 -4.25 13.95 -3.35 12.7 -2.45 11.4 -2.85 8.5 -3.3 5.6 -5.55 5.95" fill="#5c3701" fill-rule="evenodd" stroke="none"/>
      <path d="M-4.95 4.55 L-5.1 5.0 -5.8 8.7 Q-5.8 10.65 -5.1 12.45 -4.2 14.75 -2.7 14.75 L-2.15 14.6 Q-1.9 14.45 -1.75 14.45 -1.45 14.45 -1.45 14.85 L-1.85 15.25 -2.65 15.45 Q-5.75 15.45 -6.4 9.4 -6.4 6.05 -4.95 4.1 L-4.95 4.55" fill="#000000" fill-rule="evenodd" stroke="none"/>
      <path d="M-1.05 5.8 L-1.4 7.8 -1.25 14.2 Q-1.25 14.75 -1.55 14.75 -2.0 14.75 -1.9 12.15 -1.9 6.0 -1.1 5.55 L-1.05 5.8" fill="#000000" fill-rule="evenodd" stroke="none"/>
      <path d="M-4.15 4.45 Q-4.3 4.1 -4.75 4.15 L-4.1 4.1 -3.65 4.7 Q-2.8 5.35 -1.35 5.5 L-1.3 5.6 -1.4 5.8 -1.75 5.8 Q-2.6 5.8 -3.7 5.0 L-4.15 4.45" fill="#000000" fill-rule="evenodd" stroke="none"/>
      <path d="M-3.7 2.85 L-4.05 3.0 -4.15 3.0 -4.55 2.4 -4.4 1.85 -3.25 -0.05 Q-3.8 1.15 -3.7 2.45 L-3.7 2.85" fill="#cccccc" fill-rule="evenodd" stroke="none"/>
    </g>
    <g id="shape2">
      <path d="M1.3 -5.55 L3.05 -6.0 2.95 -5.45 1.3 -5.55 M-3.95 -6.25 Q-2.35 -6.0 -1.0 -5.25 -2.7 -4.75 -3.8 -3.4 L-3.95 -6.25" fill="#0066cc" fill-rule="evenodd" stroke="none"/>
      <path d="M21.8 -10.15 L22.25 -9.1 Q23.4 -6.0 23.35 -3.65 L23.2 -1.95 22.7 -0.5 21.75 1.7 21.0 2.9 20.6 3.55 18.55 5.25 Q15.75 6.8 10.2 6.8 L6.65 6.3 5.45 5.65 Q4.85 3.7 5.05 2.0 6.1 2.75 7.65 3.1 7.3 3.45 7.6 3.9 L8.5 4.65 12.3 5.0 15.45 4.4 Q17.15 3.9 17.8 2.45 L17.8 2.4 17.55 1.9 17.5 1.9 20.15 -0.5 Q21.2 -1.7 21.95 -4.2 22.7 -6.75 21.8 -10.15 M-4.05 4.25 L-5.35 5.3 Q-6.0 5.65 -7.6 6.05 L-11.15 6.5 Q-16.7 6.5 -19.5 5.0 -21.05 4.2 -21.95 2.65 L-22.65 1.45 -23.2 0.5 -23.65 -0.75 -24.1 -2.2 -24.25 -3.95 Q-24.25 -5.9 -23.1 -8.8 L-21.8 -11.2 -22.35 -8.35 Q-22.95 -1.75 -17.45 1.65 -14.5 2.9 -11.45 2.95 -7.45 3.05 -4.25 1.3 -3.65 2.65 -4.05 4.25 M19.2 0.6 Q18.85 0.9 18.85 1.2 L19.2 1.4 19.45 1.0 19.2 0.6 M-20.55 -0.7 L-20.55 -0.6 Q-21.15 -0.5 -21.1 0.05 L-20.6 1.7 Q-19.8 3.7 -17.65 4.6 L-14.4 5.05 -12.5 4.8 Q-11.75 4.5 -11.4 3.8 -11.55 3.55 -11.95 3.55 L-15.5 3.15 Q-17.15 2.65 -18.55 1.6 -19.85 0.65 -20.55 -0.7 M-9.35 4.55 L-8.2 4.2 Q-7.4 3.85 -7.4 3.5 -7.4 3.25 -7.5 3.3 L-8.05 3.25 Q-8.9 3.25 -10.25 4.25 L-9.35 4.55" fill="#666666" fill-rule="evenodd" stroke="none"/>
      <path d="M1.3 -5.55 L2.95 -5.45 3.05 -6.0 4.5 -6.1 6.9 -6.0 Q9.6 -6.0 11.85 -7.45 13.25 -8.3 13.85 -9.15 L14.65 -10.25 15.1 -10.9 Q16.55 -12.5 18.05 -12.5 L19.5 -12.2 Q20.8 -12.2 21.8 -10.15 22.7 -6.75 21.95 -4.2 21.2 -1.7 20.15 -0.5 L17.5 1.9 17.35 2.0 Q13.1 4.15 8.15 3.2 L8.0 3.2 7.85 3.15 7.7 3.05 7.65 3.1 Q6.1 2.75 5.05 2.0 4.85 3.7 5.45 5.65 L4.8 5.2 Q3.65 4.2 2.75 1.25 1.9 -1.7 1.3 -1.65 L-0.75 -1.55 -1.35 -1.0 -2.0 0.25 -2.55 1.6 -3.25 3.0 -4.0 4.25 -4.05 4.25 Q-3.65 2.65 -4.25 1.3 -7.45 3.05 -11.45 2.95 -14.5 2.9 -17.45 1.65 -22.95 -1.75 -22.35 -8.35 L-21.8 -11.2 -20.4 -12.45 -19.05 -12.75 Q-17.5 -12.75 -16.05 -11.15 L-14.8 -9.4 Q-14.3 -8.75 -13.3 -8.05 L-12.75 -7.7 Q-10.5 -6.25 -7.85 -6.25 L-5.45 -6.35 -3.95 -6.25 -3.8 -3.4 Q-2.7 -4.75 -1.0 -5.25 L-0.55 -5.0 -0.25 -4.8 Q0.45 -5.25 1.3 -5.55" fill="#333333" fill-rule="evenodd" stroke="none"/>
      <path d="M17.5 1.9 L17.55 1.9 17.8 2.4 17.8 2.45 Q17.15 3.9 15.45 4.4 L12.3 5.0 8.5 4.65 7.6 3.9 Q7.3 3.45 7.65 3.1 L7.7 3.05 7.85 3.15 8.0 3.2 8.15 3.2 Q13.1 4.15 17.35 2.0 L17.5 1.9 M19.2 0.6 L19.45 1.0 19.2 1.4 18.85 1.2 Q18.85 0.9 19.2 0.6 M-20.55 -0.7 Q-19.85 0.65 -18.55 1.6 -17.15 2.65 -15.5 3.15 L-11.95 3.55 Q-11.55 3.55 -11.4 3.8 -11.75 4.5 -12.5 4.8 L-14.4 5.05 -17.65 4.6 Q-19.8 3.7 -20.6 1.7 L-21.1 0.05 Q-21.15 -0.5 -20.55 -0.6 L-20.55 -0.7 M-9.35 4.55 L-10.25 4.25 Q-8.9 3.25 -8.05 3.25 L-7.5 3.3 Q-7.4 3.25 -7.4 3.5 -7.4 3.85 -8.2 4.2 L-9.35 4.55" fill="#cccccc" fill-rule="evenodd" stroke="none"/>
      <path d="M20.5 -2.65 L18.95 -3.5 Q15.3 -5.55 15.9 -10.05 L15.3 -9.05 15.1 -8.05 Q14.35 -6.6 13.1 -5.55 L13.25 -4.75 Q13.4 -4.45 13.75 -4.4 L14.85 -4.2 16.4 -3.75 16.6 -3.55 16.95 -3.3 Q17.1 -2.85 17.35 -2.7 L17.45 -2.45 Q17.75 -1.65 17.65 -0.85 L17.55 0.45 Q14.7 2.35 10.8 2.35 6.55 2.35 4.7 0.35 2.9 -1.7 2.65 -2.35 0.25 -3.75 -1.85 -2.0 -2.05 -1.3 -4.15 0.5 -6.3 2.35 -10.65 2.35 -14.75 2.35 -17.65 0.35 L-17.6 0.1 Q-16.9 -4.6 -12.5 -4.35 L-12.05 -4.5 -12.5 -4.5 -15.45 -7.6 -15.6 -7.6 Q-16.2 -7.65 -16.6 -7.25 -16.8 -4.65 -18.25 -2.75 L-18.8 -2.45 Q-19.4 -2.05 -20.05 -1.95 -21.15 -3.5 -21.25 -5.3 L-21.35 -5.9 Q-22.5 -12.55 -16.0 -15.3 -9.5 -18.05 -0.3 -17.95 8.8 -17.9 15.7 -15.1 21.8 -12.6 21.2 -6.3 L21.2 -5.6 Q21.2 -4.05 20.5 -2.65" fill="#1d546b" fill-rule="evenodd" stroke="none"/>
      <path d="M17.55 0.45 L17.65 -0.85 Q17.75 -1.65 17.45 -2.45 L17.35 -2.7 Q17.1 -2.85 16.95 -3.3 L16.6 -3.55 16.4 -3.75 14.85 -4.2 13.75 -4.4 Q13.4 -4.45 13.25 -4.75 L13.1 -5.55 Q14.35 -6.6 15.1 -8.05 L15.3 -9.05 15.9 -10.05 Q15.3 -5.55 18.95 -3.5 L20.5 -2.65 Q19.7 -1.2 18.1 0.0 L17.55 0.45 M-20.05 -1.95 Q-19.4 -2.05 -18.8 -2.45 L-18.25 -2.75 Q-16.8 -4.65 -16.6 -7.25 -16.2 -7.65 -15.6 -7.6 L-15.45 -7.6 -12.5 -4.5 -12.05 -4.5 -12.5 -4.35 Q-16.9 -4.6 -17.6 0.1 L-17.65 0.35 -18.1 0.0 -20.05 -1.95" fill="#2d7d9f" fill-rule="evenodd" stroke="none"/>
      <path d="M3.55 -4.05 Q2.1 -5.55 1.9 -6.05 0.05 -7.1 -1.65 -5.8 -1.8 -5.25 -3.45 -3.95 -5.15 -2.6 -8.55 -2.6 -12.05 -2.6 -14.45 -4.3 -16.8 -6.0 -16.9 -8.25 L-17.0 -8.65 Q-17.9 -13.65 -12.75 -15.65 -7.65 -17.7 -0.4 -17.65 6.75 -17.6 12.15 -15.55 17.0 -13.65 16.45 -9.0 L16.45 -8.5 Q16.45 -6.05 14.1 -4.3 11.7 -2.6 8.3 -2.6 4.95 -2.6 3.55 -4.05" fill="#24708e" fill-rule="evenodd" stroke="none"/>
      <path d="M1.85 -7.4 Q0.2 -8.3 -1.3 -7.2 -1.45 -6.75 -2.95 -5.65 -4.4 -4.55 -7.5 -4.55 -10.6 -4.55 -12.75 -5.95 -14.85 -7.35 -14.9 -9.25 L-15.0 -9.6 Q-15.85 -13.7 -11.25 -15.4 -6.65 -17.1 -0.2 -17.05 6.2 -17.0 11.05 -15.3 15.35 -13.75 14.9 -9.85 L14.9 -9.45 Q14.9 -7.4 12.75 -5.95 10.65 -4.55 7.6 -4.55 4.6 -4.55 3.35 -5.75 2.05 -7.0 1.85 -7.4" fill="#8bc9e2" fill-rule="evenodd" stroke="none"/>
      <path d="M-8.4 -14.65 Q-8.4 -14.05 -9.15 -13.6 -9.9 -13.15 -9.9 -12.2 -10.05 -11.1 -10.5 -10.1 -11.35 -8.05 -12.65 -8.05 -14.15 -8.05 -14.9 -9.3 L-15.35 -10.7 Q-15.35 -13.1 -11.85 -14.7 -8.4 -16.35 -8.4 -14.65 M-9.15 -14.6 L-9.15 -14.55 -9.1 -14.6 -9.15 -14.6" fill="#eefcff" fill-rule="evenodd" stroke="none"/>
      <path d="M9.1 -7.4 Q9.65 -7.55 11.3 -9.0 11.25 -9.6 12.25 -10.1 13.35 -10.7 13.6 -9.45 13.75 -8.6 13.5 -7.75 13.0 -6.35 11.3 -6.0 L9.2 -6.05 Q8.65 -6.2 8.6 -6.55 8.45 -7.25 9.1 -7.4" fill="#eefcff" fill-rule="evenodd" stroke="none"/>
      <path d="M21.3 -10.45 L20.85 -11.15 20.0 -12.05 18.6 -13.4 14.55 -15.35 Q12.0 -16.55 9.0 -16.8 L4.4 -17.4 0.3 -17.8 -3.15 -17.75 -5.9 -17.5 -11.3 -16.75 Q-14.1 -16.0 -16.6 -14.7 L-18.8 -13.15 -19.85 -12.25 Q-21.25 -9.85 -21.2 -6.95 -21.15 -4.65 -20.15 -2.8 L-20.6 -2.85 Q-22.05 -4.9 -21.9 -7.5 -21.75 -9.65 -21.1 -11.7 -23.0 -9.15 -23.3 -5.95 L-23.55 0.85 Q-25.2 -1.35 -25.0 -4.15 L-24.35 -7.9 Q-23.4 -11.2 -20.75 -13.25 -18.7 -14.8 -16.35 -15.85 L-12.75 -17.1 -9.05 -17.85 -4.0 -18.3 Q-1.1 -18.45 1.4 -18.25 L3.0 -18.2 5.9 -18.0 9.5 -17.55 13.2 -16.7 16.35 -15.5 Q18.95 -14.15 20.9 -12.1 L22.5 -9.85 Q23.45 -8.05 23.7 -5.95 23.9 -4.2 23.7 -2.25 L23.45 -0.5 22.6 -0.45 Q23.0 -2.95 22.8 -5.35 L22.25 -7.95 Q22.05 -9.15 21.3 -10.45 M21.2 -9.15 L21.45 -6.85 21.05 -4.5 20.45 -2.65 20.0 -2.0 19.4 -1.0 Q17.8 0.6 17.35 0.6 L17.15 0.55 Q14.55 2.2 12.75 2.5 L12.6 2.55 10.85 2.7 Q8.15 2.7 6.45 1.85 L5.15 0.9 4.05 -0.2 3.2 -1.35 3.25 -1.5 3.3 -1.5 4.3 -0.35 5.4 0.7 Q6.2 1.4 7.1 1.65 L7.75 1.9 9.0 2.0 10.15 2.15 11.2 2.2 12.0 2.2 12.15 2.15 12.2 2.15 17.15 0.5 17.15 0.45 18.5 -0.5 Q19.9 -1.75 20.35 -2.95 20.75 -4.15 20.95 -5.7 L21.05 -8.4 20.6 -10.55 20.6 -10.8 20.65 -10.8 Q20.9 -10.75 21.2 -9.15 M1.9 -4.4 L1.95 -4.4 Q2.55 -2.7 3.3 -1.75 L3.1 -1.6 Q2.65 -1.6 2.35 -2.15 L1.95 -2.5 Q1.65 -2.9 0.75 -2.9 L-0.45 -2.55 -1.05 -2.25 -1.75 -1.55 -1.9 -1.8 -1.5 -2.7 Q-1.1 -3.55 -1.1 -4.45 -1.1 -4.95 -1.25 -5.1 L-1.2 -5.15 Q-0.75 -4.45 -0.75 -3.45 L-0.75 -2.95 -0.35 -3.1 0.0 -3.25 0.9 -3.25 1.95 -3.05 2.05 -3.0 1.9 -3.95 1.9 -4.4 M2.4 0.4 Q4.05 4.15 6.1 5.55 7.5 6.5 9.75 6.5 L13.7 6.1 15.85 5.65 17.55 5.15 19.05 4.7 Q19.6 4.7 19.6 5.15 L19.5 5.4 20.2 6.15 Q20.4 7.35 21.1 7.75 L21.7 8.0 Q21.7 8.45 21.0 8.45 20.3 8.45 19.75 7.1 19.25 5.95 18.9 5.75 L16.3 6.55 9.75 7.4 Q6.15 7.4 4.3 5.2 3.0 3.6 2.3 0.4 L2.4 0.4 M1.55 -0.2 L1.1 -0.45 -0.2 -0.7 Q-0.8 -0.7 -1.9 0.3 L-2.15 0.05 Q-2.15 -0.45 -1.55 -1.05 -0.85 -1.85 0.05 -1.8 1.35 -2.1 1.85 -1.55 L2.05 -0.85 Q2.05 -0.2 1.55 -0.2 M-21.2 9.2 Q-20.0 6.55 -18.95 6.1 L-19.25 5.7 Q-19.25 5.3 -18.8 5.3 -18.4 5.3 -16.9 5.85 L-10.95 6.4 Q-5.65 6.4 -3.7 3.75 -2.7 2.4 -2.15 0.55 -2.25 5.35 -6.95 6.8 L-13.05 7.4 Q-15.6 7.4 -17.6 6.7 L-18.5 6.35 -19.6 8.1 Q-20.4 9.65 -20.8 9.65 -21.2 9.65 -21.2 9.2 M-2.5 -1.2 Q-2.9 -0.1 -4.65 1.0 -7.05 2.6 -10.4 2.6 L-11.75 2.6 -12.65 2.45 Q-14.6 2.4 -17.2 0.65 -19.7 -1.0 -19.95 -2.1 L-19.9 -2.1 -18.65 -0.85 -17.15 0.25 Q-16.2 0.7 -15.4 1.35 L-13.75 1.9 -12.65 2.1 -11.95 2.1 -10.5 2.2 Q-7.4 2.2 -4.75 0.6 L-2.5 -1.2" fill="#000000" fill-rule="evenodd" stroke="none"/>
      <path d="M16.4 -11.45 L16.7 -8.75 Q16.7 -6.7 15.65 -5.25 13.65 -2.5 8.45 -2.5 L4.85 -2.8 4.25 -3.3 4.25 -3.5 4.35 -3.55 8.45 -3.1 Q16.25 -3.1 16.25 -9.4 16.25 -11.55 14.85 -14.0 L14.9 -14.0 15.8 -12.75 16.4 -11.45 M1.9 -5.8 Q1.15 -6.4 -0.05 -6.4 -0.85 -6.4 -1.5 -5.6 L-2.25 -4.85 -2.15 -4.75 Q-3.55 -2.4 -8.25 -2.55 -13.0 -2.75 -14.5 -4.2 -16.0 -5.7 -16.65 -7.2 -17.3 -8.7 -17.25 -9.15 L-17.2 -10.5 -16.95 -11.45 -17.05 -11.3 Q-17.05 -2.95 -7.45 -2.95 -5.05 -2.95 -3.9 -3.75 L-2.45 -4.75 -2.55 -4.75 -1.45 -6.15 Q-0.95 -6.6 0.15 -6.7 L1.55 -6.5 3.0 -5.15 4.05 -3.85 4.0 -3.7 4.0 -3.75 Q3.45 -3.9 3.0 -4.4 L2.45 -5.2 1.9 -5.8" fill="#66ffff" fill-rule="evenodd" stroke="none"/>
    </g>
  </defs>
</svg>
