<?xml version="1.0" encoding="UTF-8" standalone="no"?>
<svg xmlns:ffdec="https://www.free-decompiler.com/flash" xmlns:xlink="http://www.w3.org/1999/xlink" ffdec:objectType="frame" height="44.95px" width="39.75px" xmlns="http://www.w3.org/2000/svg">
  <g transform="matrix(1.0, 0.0, 0.0, 1.0, 17.35, 57.6)">
    <use ffdec:characterId="9" height="44.95" transform="matrix(1.0, 0.0, 0.0, 1.0, 3.4, -35.1)" width="39.75" xlink:href="#sprite0"/>
  </g>
  <defs>
    <g id="sprite0">
      <use ffdec:characterId="2" height="16.75" transform="matrix(1.0, 0.0, 0.0, 1.0, 10.5, -14.1)" width="17.0" xlink:href="#sprite1"/>
      <use ffdec:characterId="4" height="35.95" transform="matrix(0.9214, 0.0, 0.0, 1.0, -3.0, 4.5)" width="31.85" xlink:href="#sprite2"/>
      <use ffdec:characterId="6" height="13.3" transform="matrix(1.0, 0.0, 0.0, 1.0, -4.1, 15.5)" width="33.55" xlink:href="#sprite3"/>
    </g>
    <g id="sprite1">
      <use ffdec:characterId="1" height="16.75" transform="matrix(1.0, 0.0, 0.0, 1.0, 0.0, 0.0)" width="17.0" xlink:href="#shape0"/>
    </g>
    <g id="shape0">
      <path d="M-5.05 -6.25 Q-4.95 -7.15 -3.5 -7.45 L-2.55 -7.45 -2.5 -7.75 Q-2.25 -8.4 -1.6 -8.4 -1.15 -8.4 -0.6 -8.0 L-0.3 -7.9 -0.2 -8.0 0.6 -8.2 Q1.55 -8.2 1.7 -7.2 2.0 -7.5 2.75 -7.5 3.65 -7.55 3.9 -7.0 L4.0 -7.0 Q4.85 -6.95 4.85 -6.15 5.75 -6.3 6.0 -5.45 L5.9 -5.2 6.5 -4.6 6.7 -4.4 7.0 -4.4 Q8.0 -4.4 8.05 -3.1 L7.85 -2.35 7.7 -2.05 8.15 -1.35 7.95 -1.0 8.0 -0.95 8.2 -0.55 8.1 -0.3 8.5 0.6 Q8.5 1.25 8.05 1.5 L8.1 1.9 7.65 2.6 7.6 2.7 7.6 2.95 Q7.6 3.8 7.05 4.05 L7.1 4.4 Q7.1 5.25 6.15 5.35 L6.15 5.45 5.9 6.2 Q5.55 6.75 4.9 6.75 L4.4 6.7 4.15 7.0 Q3.7 7.45 3.1 7.45 L2.8 7.45 2.6 7.55 1.95 7.75 1.65 7.7 1.55 7.8 Q1.1 8.2 0.6 8.2 L-0.35 8.0 Q-0.6 8.35 -1.5 8.35 -2.8 8.35 -3.1 7.65 L-4.05 7.8 Q-4.75 7.8 -5.2 7.4 -5.6 7.05 -5.6 6.5 L-5.6 6.35 -5.7 6.35 Q-6.4 6.35 -6.55 5.8 L-6.6 5.1 -6.6 5.0 -7.05 5.05 Q-7.65 5.05 -7.95 4.15 L-8.15 3.15 Q-8.15 2.6 -7.65 2.25 L-8.25 1.65 -8.35 0.65 -8.15 -0.35 Q-8.5 -0.7 -8.5 -1.45 -8.5 -2.8 -7.6 -3.1 L-7.65 -3.35 Q-7.65 -4.6 -6.75 -4.6 L-6.45 -4.55 -6.45 -4.75 Q-6.45 -6.15 -5.2 -6.25 L-5.05 -6.25" fill="#000000" fill-rule="evenodd" stroke="none"/>
      <path d="M-1.9 -7.25 Q-0.65 -8.2 -0.15 -7.0 -0.15 -6.8 0.1 -7.25 0.65 -7.95 1.4 -7.15 L1.6 -6.3 2.15 -6.75 Q3.0 -7.2 3.35 -6.5 3.9 -6.9 4.35 -6.25 4.45 -5.75 4.2 -5.55 L5.05 -5.75 Q5.6 -5.15 5.3 -4.55 L6.1 -4.35 6.2 -3.8 6.75 -3.95 Q7.45 -3.9 7.45 -2.95 7.45 -2.25 7.05 -2.05 L7.25 -1.65 7.05 -1.05 Q7.75 -0.9 7.55 -0.65 7.35 -0.4 7.55 -0.25 L7.8 0.45 7.1 1.25 7.5 1.75 Q7.5 2.5 6.85 2.7 L6.85 2.75 Q6.65 3.95 6.0 3.45 L6.2 3.95 6.0 4.5 5.4 4.9 5.45 5.5 5.2 5.9 4.35 6.2 3.9 6.15 3.4 6.75 Q2.6 7.15 2.5 6.75 L1.85 7.25 1.5 7.15 0.95 7.55 0.05 7.7 -0.55 7.35 Q-0.7 7.8 -1.3 7.75 -2.15 7.45 -2.25 6.95 -2.4 6.4 -2.75 6.9 -3.1 7.4 -4.15 6.9 -5.2 6.35 -5.0 6.05 L-4.95 5.95 -5.15 5.95 Q-6.15 5.95 -6.15 5.1 L-6.0 4.9 -6.05 4.85 -5.95 4.65 -6.15 4.65 Q-7.0 4.65 -7.35 4.0 L-7.55 3.3 Q-7.55 2.4 -6.95 2.2 -7.95 2.0 -7.95 0.8 -7.95 -0.15 -7.5 -0.35 L-7.75 -0.7 -8.05 -1.6 -7.8 -2.25 -7.05 -2.7 -7.1 -3.5 Q-6.65 -4.35 -6.1 -4.35 -6.0 -5.85 -4.45 -5.85 L-4.05 -6.4 Q-3.1 -7.3 -2.3 -6.6 L-1.9 -7.25 M7.2 0.2 Q7.2 -0.4 6.65 -0.3 6.05 -0.25 6.05 0.15 6.05 0.65 6.6 0.65 7.2 0.65 7.2 0.2 M4.7 0.3 L4.75 0.6 4.95 0.9 5.25 0.7 5.45 0.35 Q5.45 0.0 5.1 -0.1 4.7 -0.2 4.7 0.3 M5.25 -1.6 Q4.85 -1.75 4.85 -1.25 4.85 -0.8 5.3 -0.8 5.65 -0.8 5.65 -1.1 5.65 -1.45 5.25 -1.6 M3.9 -3.1 L4.1 -2.85 4.4 -2.9 4.4 -3.25 Q3.9 -3.35 3.9 -3.1 M-2.05 -5.55 Q-2.05 -5.25 -1.65 -5.25 L-1.6 -5.25 -1.75 -4.7 -2.15 -5.0 Q-3.7 -5.1 -3.5 -4.0 -4.4 -4.6 -5.1 -3.7 L-4.8 -3.15 Q-5.65 -3.0 -5.8 -2.05 L-5.35 -1.4 -5.45 -1.35 Q-6.0 -1.15 -5.85 -0.4 -5.65 0.2 -5.0 0.25 L-5.5 0.35 Q-6.0 0.95 -5.5 1.8 L-4.9 2.2 Q-5.3 2.4 -4.8 2.65 L-4.85 3.05 Q-4.85 3.55 -4.2 3.55 L-3.75 3.45 -3.75 3.5 Q-3.25 5.05 -1.8 4.45 L-1.6 4.7 Q0.05 5.65 1.2 4.35 L1.2 4.2 0.85 4.25 Q0.3 4.25 0.3 4.0 1.6 3.0 1.6 3.65 L1.45 3.95 2.0 3.7 2.25 3.25 3.05 2.55 2.5 1.7 Q3.45 1.75 3.0 0.8 L3.95 0.7 Q4.6 0.05 3.7 -0.35 4.2 -0.5 4.3 -1.15 4.05 -2.0 3.25 -1.95 L3.15 -1.95 3.65 -2.1 3.7 -2.35 Q3.5 -2.95 2.8 -3.15 L3.55 -3.65 Q3.5 -4.4 2.95 -4.6 L2.55 -4.65 Q2.3 -4.5 2.45 -4.7 2.5 -5.7 1.65 -5.75 L1.55 -5.75 1.05 -5.4 Q0.7 -5.85 0.1 -5.8 L-0.15 -5.65 -0.2 -5.3 Q-0.5 -5.7 -1.1 -5.5 -1.1 -5.9 -1.55 -5.9 L-2.05 -5.55 M0.3 -0.6 L0.25 -0.75 0.65 -1.1 Q1.05 -1.15 1.05 -1.45 L0.95 -1.85 Q0.95 -2.05 1.25 -2.05 1.75 -2.05 1.75 -1.35 1.75 -0.5 0.55 -0.5 0.35 -0.5 0.3 -0.6 M-0.25 1.25 L-0.45 1.75 Q-0.75 2.1 -1.2 2.1 -1.85 2.1 -1.85 1.7 L-1.75 1.25 -1.6 1.2 -1.15 1.35 -0.7 1.2 -0.4 0.95 -0.25 1.25 M1.4 2.0 L1.05 2.15 0.65 2.0 0.85 1.75 1.05 1.35 Q1.55 1.2 1.55 1.7 L1.4 2.0 M3.45 4.05 Q3.45 3.65 3.05 3.8 2.6 3.95 2.6 4.2 2.6 4.55 3.0 4.55 3.45 4.55 3.45 4.05 M-1.15 3.45 L-1.75 3.8 -2.3 3.6 -2.45 3.4 -2.3 3.25 -1.95 3.35 -1.4 3.25 -1.15 3.45 M4.45 3.9 L4.5 4.25 4.8 4.6 Q5.2 4.6 5.45 4.3 L5.65 3.75 Q5.65 3.35 5.2 3.35 4.45 3.35 4.45 3.9 M4.65 1.7 Q4.15 1.75 4.15 2.1 L4.2 2.3 Q4.25 2.6 4.55 2.6 5.1 2.6 5.1 2.1 5.1 1.65 4.65 1.7 M2.65 6.0 Q2.65 6.55 3.15 6.55 L3.6 6.35 3.85 6.05 3.8 5.6 Q2.65 5.6 2.65 6.0 M2.1 4.75 L1.8 4.75 1.55 5.05 1.6 5.3 1.9 5.3 2.1 5.2 2.1 4.75 M0.3 6.6 L0.5 6.35 Q0.5 5.95 -0.25 5.95 -0.95 5.95 -0.95 6.4 L-0.85 6.6 -0.2 6.75 0.3 6.6 M-2.95 1.3 L-2.9 1.5 Q-2.9 1.9 -3.5 1.9 L-4.0 1.55 -3.85 1.2 -3.4 1.4 -3.25 1.3 -2.95 1.3 M-2.4 -1.05 Q-2.4 -0.6 -3.0 -0.6 L-3.45 -0.7 Q-3.4 -1.1 -2.7 -1.4 -2.4 -1.4 -2.4 -1.05 M-4.5 5.15 L-4.45 5.4 -3.95 5.5 Q-3.45 5.5 -3.45 5.2 -3.45 4.7 -4.05 4.7 -4.5 4.7 -4.5 5.15" fill="#8ea2b5" fill-rule="evenodd" stroke="none"/>
      <path d="M-2.05 -5.55 L-1.55 -5.9 Q-1.1 -5.9 -1.1 -5.5 -0.5 -5.7 -0.2 -5.3 L-0.15 -5.65 0.1 -5.8 Q0.7 -5.85 1.05 -5.4 L1.55 -5.75 1.65 -5.75 Q2.5 -5.7 2.45 -4.7 2.3 -4.5 2.55 -4.65 L2.95 -4.6 Q3.5 -4.4 3.55 -3.65 L2.8 -3.15 Q3.5 -2.95 3.7 -2.35 L3.65 -2.1 3.15 -1.95 3.25 -1.95 Q4.05 -2.0 4.3 -1.15 4.2 -0.5 3.7 -0.35 4.6 0.05 3.95 0.7 L3.0 0.8 Q3.45 1.75 2.5 1.7 L3.05 2.55 2.25 3.25 2.0 3.7 1.45 3.95 1.6 3.65 Q1.6 3.0 0.3 4.0 0.3 4.25 0.85 4.25 L1.2 4.2 1.2 4.35 Q0.05 5.65 -1.6 4.7 L-1.8 4.45 Q-3.25 5.05 -3.75 3.5 L-3.75 3.45 -4.2 3.55 Q-4.85 3.55 -4.85 3.05 L-4.8 2.65 Q-5.3 2.4 -4.9 2.2 L-5.5 1.8 Q-6.0 0.95 -5.5 0.35 L-5.0 0.25 Q-5.65 0.2 -5.85 -0.4 -6.0 -1.15 -5.45 -1.35 L-5.35 -1.4 -5.8 -2.05 Q-5.65 -3.0 -4.8 -3.15 L-5.1 -3.7 Q-4.4 -4.6 -3.5 -4.0 -3.7 -5.1 -2.15 -5.0 L-1.75 -4.7 -1.6 -5.25 -1.65 -5.25 Q-2.05 -5.25 -2.05 -5.55 M3.9 -3.1 Q3.9 -3.35 4.4 -3.25 L4.4 -2.9 4.1 -2.85 3.9 -3.1 M5.25 -1.6 Q5.65 -1.45 5.65 -1.1 5.65 -0.8 5.3 -0.8 4.85 -0.8 4.85 -1.25 4.85 -1.75 5.25 -1.6 M4.7 0.3 Q4.7 -0.2 5.1 -0.1 5.45 0.0 5.45 0.35 L5.25 0.7 4.95 0.9 4.75 0.6 4.7 0.3 M7.2 0.2 Q7.2 0.65 6.6 0.65 6.05 0.65 6.05 0.15 6.05 -0.25 6.65 -0.3 7.2 -0.4 7.2 0.2 M1.4 2.0 L1.55 1.7 Q1.55 1.2 1.05 1.35 L0.85 1.75 0.65 2.0 1.05 2.15 1.4 2.0 M-0.25 1.25 L-0.4 0.95 -0.7 1.2 -1.15 1.35 -1.6 1.2 -1.75 1.25 -1.85 1.7 Q-1.85 2.1 -1.2 2.1 -0.75 2.1 -0.45 1.75 L-0.25 1.25 M0.3 -0.6 Q0.35 -0.5 0.55 -0.5 1.75 -0.5 1.75 -1.35 1.75 -2.05 1.25 -2.05 0.95 -2.05 0.95 -1.85 L1.05 -1.45 Q1.05 -1.15 0.65 -1.1 L0.25 -0.75 0.3 -0.6 M3.45 4.05 Q3.45 4.55 3.0 4.55 2.6 4.55 2.6 4.2 2.6 3.95 3.05 3.8 3.45 3.65 3.45 4.05 M-1.15 3.45 L-1.4 3.25 -1.95 3.35 -2.3 3.25 -2.45 3.4 -2.3 3.6 -1.75 3.8 -1.15 3.45 M0.3 6.6 L-0.2 6.75 -0.85 6.6 -0.95 6.4 Q-0.95 5.95 -0.25 5.95 0.5 5.95 0.5 6.35 L0.3 6.6 M2.1 4.75 L2.1 5.2 1.9 5.3 1.6 5.3 1.55 5.05 1.8 4.75 2.1 4.75 M2.65 6.0 Q2.65 5.6 3.8 5.6 L3.85 6.05 3.6 6.35 3.15 6.55 Q2.65 6.55 2.65 6.0 M4.65 1.7 Q5.1 1.65 5.1 2.1 5.1 2.6 4.55 2.6 4.25 2.6 4.2 2.3 L4.15 2.1 Q4.15 1.75 4.65 1.7 M4.45 3.9 Q4.45 3.35 5.2 3.35 5.65 3.35 5.65 3.75 L5.45 4.3 Q5.2 4.6 4.8 4.6 L4.5 4.25 4.45 3.9 M-2.4 -1.05 Q-2.4 -1.4 -2.7 -1.4 -3.4 -1.1 -3.45 -0.7 L-3.0 -0.6 Q-2.4 -0.6 -2.4 -1.05 M-2.95 1.3 L-3.25 1.3 -3.4 1.4 -3.85 1.2 -4.0 1.55 -3.5 1.9 Q-2.9 1.9 -2.9 1.5 L-2.95 1.3 M-4.5 5.15 Q-4.5 4.7 -4.05 4.7 -3.45 4.7 -3.45 5.2 -3.45 5.5 -3.95 5.5 L-4.45 5.4 -4.5 5.15" fill="#ffffff" fill-rule="evenodd" stroke="none"/>
    </g>
    <g id="sprite2">
      <use ffdec:characterId="3" height="35.95" transform="matrix(1.0, 0.0, 0.0, 1.0, 0.0, 0.0)" width="31.85" xlink:href="#shape1"/>
    </g>
    <g id="shape1">
      <path d="M14.8 -7.95 L14.85 7.7 Q14.85 11.8 10.45 14.7 6.05 17.6 -0.15 17.6 -6.35 17.6 -10.75 14.7 -15.15 11.8 -15.15 7.7 -15.15 3.6 -7.55 -5.6 0.0 -14.85 7.35 -17.2 14.7 -19.55 14.8 -7.95" fill="#000000" fill-rule="evenodd" stroke="none"/>
      <path d="M8.75 -4.5 Q7.7 1.25 5.95 5.2 4.2 9.15 0.35 9.9 -3.5 10.6 -6.6 8.75 -9.7 6.9 -9.6 3.7 -9.5 0.4 -7.2 -3.2 -4.9 -6.8 -0.2 -10.2 4.55 -13.55 7.15 -11.9 9.75 -10.25 8.75 -4.5" fill="#333333" fill-rule="evenodd" stroke="none"/>
      <path d="M7.9 -17.1 Q4.6 -16.2 3.35 -15.4 L0.75 -13.55 -1.65 -11.65 -3.95 -9.35 -8.75 -3.8 Q-12.3 0.3 -13.35 2.6 -14.45 4.9 -14.65 6.55 L-14.45 9.1 Q-14.35 10.4 -14.9 10.05 -15.45 9.7 -15.95 6.85 -15.95 4.5 -13.35 0.2 -10.75 -4.05 -6.8 -8.15 1.9 -17.15 9.0 -17.65 L7.9 -17.1" fill="#000000" fill-rule="evenodd" stroke="none"/>
      <path d="M12.35 -16.4 Q14.15 -15.2 14.65 -10.45 L15.7 -0.5 Q16.35 6.0 14.85 9.2 L13.25 12.5 13.15 12.6 12.95 12.6 13.3 11.6 Q14.2 8.95 14.35 7.2 L14.6 3.9 Q14.95 -1.25 14.55 -7.6 14.5 -12.85 12.35 -16.4" fill="#000000" fill-rule="evenodd" stroke="none"/>
      <path d="M13.4 12.6 Q13.1 13.7 10.35 15.8 7.6 17.9 1.4 17.95 -4.85 18.0 -10.1 15.2 -14.5 12.85 -14.5 10.85 L-14.4 10.55 Q-11.25 13.85 -10.35 14.35 -5.9 17.05 1.2 16.8 8.25 16.5 10.55 14.5 L13.4 12.05 Q13.75 11.55 13.4 12.6" fill="#000000" fill-rule="evenodd" stroke="none"/>
      <path d="M12.55 -17.0 L14.05 -13.9 13.95 -13.65 13.0 -15.1 11.4 -16.7 Q10.4 -17.4 8.9 -17.6 11.65 -18.6 12.55 -17.0" fill="#000000" fill-rule="evenodd" stroke="none"/>
    </g>
    <g id="sprite3">
      <use ffdec:characterId="5" height="13.3" transform="matrix(1.0, 0.0, 0.0, 1.0, 0.0, 0.0)" width="33.55" xlink:href="#shape2"/>
    </g>
    <g id="shape2">
      <path d="M16.6 -0.6 L16.15 0.05 Q16.05 0.2 16.25 0.7 16.45 1.2 16.15 2.4 15.8 3.6 13.4 4.8 10.95 6.0 2.8 6.25 -5.35 6.5 -10.7 4.85 -15.7 3.25 -16.0 2.25 L-16.05 2.1 Q-16.05 1.0 -16.3 0.65 -16.55 0.25 -16.0 -0.75 L-16.0 -0.8 -15.9 -1.25 -15.85 -1.85 Q-15.85 -2.45 -15.25 -3.0 -14.65 -3.55 -14.8 -4.2 -15.0 -4.85 -13.95 -5.65 L-13.8 -5.8 Q-12.55 -6.7 -12.05 -6.15 L-11.8 -5.85 Q-11.55 -5.35 -11.55 -4.55 -11.55 -3.9 -10.45 -3.65 L-8.55 -3.5 -6.5 -3.15 -4.7 -2.75 -3.55 -2.4 -2.75 -2.05 Q-2.55 -2.05 -2.25 -2.3 L-1.15 -2.6 Q-0.3 -2.6 0.2 -2.25 L3.55 -1.9 Q3.95 -1.9 4.1 -2.2 L6.1 -2.0 8.65 -2.35 Q9.7 -2.35 10.15 -1.95 L10.65 -1.45 12.45 -2.6 Q14.3 -3.65 14.95 -3.45 15.6 -3.25 16.05 -2.85 L16.7 -1.8 Q16.95 -1.15 16.6 -0.6 M7.05 -1.05 Q7.05 -1.45 6.35 -1.45 L5.85 -1.3 5.8 -0.95 5.85 -0.8 5.65 -0.8 4.8 -0.65 4.35 -0.55 4.1 -0.7 3.5 -0.85 2.45 -0.65 2.35 -0.6 2.35 -0.65 Q2.35 -1.05 1.7 -0.85 1.25 -0.7 1.1 -0.45 L0.45 -0.7 0.65 -0.7 0.9 -0.85 1.05 -1.1 0.6 -1.6 0.0 -1.4 -0.3 -1.05 -0.2 -0.9 -0.6 -0.95 -1.35 -0.8 -1.6 -0.55 -2.6 -0.8 -2.75 -0.8 Q-2.45 -0.9 -2.45 -1.2 -2.45 -1.55 -3.05 -1.6 -3.65 -1.65 -3.65 -1.15 L-3.65 -1.0 -3.75 -1.05 -4.65 -0.9 -4.85 -1.25 -4.8 -1.5 -4.9 -1.8 -5.4 -2.05 -6.0 -1.85 -6.1 -1.75 -6.8 -1.9 Q-7.55 -1.95 -7.7 -1.5 L-8.25 -1.7 -8.0 -2.0 Q-8.0 -2.5 -8.6 -2.5 -9.25 -2.45 -9.25 -2.1 -9.25 -1.8 -8.65 -1.7 L-9.55 -1.55 Q-9.7 -2.25 -10.65 -2.3 -10.5 -2.65 -10.75 -2.9 L-11.0 -3.15 -12.3 -3.1 Q-12.9 -2.5 -12.3 -2.05 -12.75 -2.15 -13.0 -1.8 L-13.2 -2.1 -14.15 -2.4 Q-14.6 -2.4 -14.6 -1.9 -14.6 -1.25 -13.75 -1.25 L-13.15 -1.35 -12.8 -0.8 Q-13.55 -0.95 -13.8 -0.2 -13.9 0.25 -13.5 0.4 L-12.95 0.5 Q-13.3 0.55 -13.45 0.95 -13.7 1.5 -13.35 1.8 L-13.75 1.95 -14.0 2.25 -13.65 2.45 Q-13.1 2.45 -13.1 2.1 L-13.15 2.0 Q-12.25 1.95 -12.7 2.25 L-12.8 2.3 -12.95 2.7 -12.7 2.55 -12.45 2.25 -12.25 2.55 -12.4 2.9 -11.9 3.2 -11.35 3.1 -11.05 3.0 -10.8 3.15 -10.75 3.25 -11.05 3.45 -11.15 3.5 -11.2 3.8 -11.15 4.05 -10.45 4.25 -10.3 4.3 -10.3 4.0 -10.25 4.0 Q-10.2 3.75 -9.95 3.75 -9.8 3.75 -9.7 3.85 L-9.65 3.6 Q-9.4 3.3 -9.2 3.6 L-9.15 3.75 -8.95 4.1 -8.95 4.2 -8.65 4.25 -7.7 4.0 -7.6 3.9 -7.45 3.9 -7.3 3.8 -7.1 4.05 -7.25 4.45 -6.9 4.8 -6.85 4.85 -6.55 4.85 -5.9 4.65 -5.55 4.4 Q-5.15 4.4 -5.35 4.7 L-4.7 4.75 -4.1 4.55 -3.65 4.35 Q-3.4 4.35 -3.4 4.6 L-3.65 5.05 Q-3.65 5.25 -3.25 5.25 -2.85 5.25 -2.7 5.05 L-2.5 4.8 Q-2.15 4.8 -2.15 5.0 L-1.95 5.2 -0.9 4.6 Q-0.7 4.6 -0.7 4.95 L-0.15 5.0 Q0.35 5.0 0.9 4.6 L1.1 4.85 0.95 5.1 Q0.8 5.2 0.8 5.35 L0.95 5.55 1.25 5.6 Q1.9 5.6 2.05 5.2 2.2 4.8 2.45 4.8 2.75 4.8 2.7 5.1 L2.6 5.4 2.65 5.55 3.05 5.55 Q3.9 5.55 4.2 5.25 L4.5 4.95 Q4.7 4.95 4.8 5.2 L4.8 5.35 5.3 5.4 5.15 5.4 Q5.65 5.55 5.8 5.05 5.9 4.5 6.2 4.5 6.6 4.5 6.5 5.2 L6.9 5.2 6.95 4.9 7.2 4.6 Q7.6 4.6 7.75 4.85 L7.8 4.85 7.65 4.5 7.65 4.4 7.3 4.4 7.4 4.3 7.65 4.05 8.05 3.9 8.4 3.6 8.5 4.0 8.55 4.15 8.15 4.35 8.25 4.5 8.35 4.85 9.1 4.6 9.4 4.4 9.85 4.15 9.95 3.7 Q9.95 3.2 9.2 3.25 L8.55 3.4 8.8 2.95 8.55 2.4 8.9 2.45 9.25 2.4 9.15 2.5 9.55 2.8 Q9.95 2.8 9.95 2.45 L9.8 2.05 9.9 1.75 9.6 1.2 Q9.3 0.95 8.8 1.2 L8.8 1.25 8.7 1.0 8.6 0.85 8.75 0.6 8.45 -0.2 8.55 -0.4 8.45 -0.7 8.05 -0.9 6.9 -0.65 6.35 -0.35 6.25 -0.6 6.3 -0.6 Q7.05 -0.6 7.05 -1.05 M9.3 -1.05 Q9.3 -1.7 8.75 -1.05 L8.8 -0.9 9.15 -0.9 9.3 -1.05 M11.7 3.0 Q12.35 3.0 12.35 2.65 12.35 2.15 11.7 2.1 11.0 2.05 11.0 2.55 11.0 3.0 11.7 3.0 M11.9 3.3 Q11.9 2.9 11.45 3.05 11.0 3.15 11.0 3.4 11.0 3.7 11.35 3.7 L11.75 3.55 11.9 3.3 M12.6 3.55 L13.1 3.55 13.25 3.45 13.25 3.15 Q12.55 3.15 12.55 3.4 L12.6 3.55 M14.75 2.55 Q14.75 2.2 14.2 2.2 13.65 2.2 13.65 2.55 L13.65 2.75 Q13.7 2.95 14.0 2.95 14.75 2.95 14.75 2.55 M14.8 0.65 L14.55 0.35 13.95 0.4 13.9 0.75 Q13.9 1.15 14.15 1.15 L14.8 0.65 M12.25 -0.15 L12.25 -0.45 Q11.8 -0.55 11.8 -0.3 11.8 0.0 12.0 0.0 12.2 0.0 12.25 -0.15 M12.85 1.55 Q12.5 1.55 12.5 1.85 L12.5 2.05 12.9 2.2 13.3 1.95 Q13.3 1.55 12.85 1.55 M14.4 -1.05 Q14.4 -1.55 13.95 -1.65 13.5 -1.75 13.5 -0.95 13.5 -0.55 13.8 -0.55 14.4 -0.55 14.4 -1.05 M6.45 1.05 L6.2 1.6 5.95 1.6 5.75 1.1 5.95 0.85 Q6.15 0.7 6.35 0.7 L6.45 1.05 M8.45 1.95 L8.2 2.15 7.95 1.9 8.2 1.45 8.45 1.95 M10.3 1.2 L10.25 1.2 10.0 1.4 10.1 1.7 10.35 1.7 10.45 1.55 Q10.6 1.75 11.05 1.75 12.0 1.75 12.0 1.1 12.0 0.55 11.2 0.55 10.75 0.55 10.5 0.8 L10.3 1.2 M9.55 -0.15 Q9.0 -0.1 9.0 0.3 L9.0 0.5 Q9.0 0.65 9.3 0.65 10.1 0.65 10.1 0.2 10.1 -0.2 9.55 -0.15 M3.3 0.3 L3.6 0.3 3.65 0.55 3.5 0.6 3.3 0.5 3.3 0.3 M6.05 2.95 L6.05 2.5 Q6.55 2.05 6.7 3.15 L6.55 3.5 6.1 3.75 5.7 3.6 5.65 3.45 Q5.65 3.25 5.8 3.2 L6.05 2.95 M4.75 3.55 L4.6 3.8 4.4 3.95 4.15 3.75 4.25 3.5 Q4.4 3.2 4.7 3.25 L4.75 3.55 M3.25 2.35 L2.85 2.65 2.65 2.45 Q2.65 2.2 3.2 2.2 L3.25 2.35 M1.65 4.05 Q1.35 4.35 1.05 4.35 L0.65 4.05 Q1.95 2.85 1.95 3.6 L1.65 4.05 M-3.15 -0.75 L-3.05 -0.75 -3.2 -0.65 -3.25 -0.75 -3.15 -0.75 M10.45 4.7 L10.8 4.85 Q11.8 4.85 11.8 4.4 11.8 4.05 11.1 4.05 10.45 4.05 10.45 4.5 L10.45 4.7 M10.0 5.15 Q10.0 4.9 9.5 4.9 9.0 4.9 9.0 5.2 9.0 5.45 9.5 5.45 L10.0 5.15 M-4.85 4.6 L-4.9 4.55 -4.85 4.6 M-14.0 1.55 Q-13.65 1.55 -13.65 1.1 -13.65 0.4 -14.25 0.45 -14.85 0.5 -14.85 1.05 -14.85 1.55 -14.0 1.55 M-12.7 -3.45 Q-12.15 -3.45 -12.15 -3.8 -12.15 -4.15 -12.5 -4.15 L-13.0 -4.1 -13.1 -3.75 Q-13.2 -3.45 -12.7 -3.45" fill="#8ea2b5" fill-rule="evenodd" stroke="none"/>
      <path d="M14.4 -1.05 Q14.4 -0.55 13.8 -0.55 13.5 -0.55 13.5 -0.95 13.5 -1.75 13.95 -1.65 14.4 -1.55 14.4 -1.05 M12.85 1.55 Q13.3 1.55 13.3 1.95 L12.9 2.2 12.5 2.05 12.5 1.85 Q12.5 1.55 12.85 1.55 M12.25 -0.15 Q12.2 0.0 12.0 0.0 11.8 0.0 11.8 -0.3 11.8 -0.55 12.25 -0.45 L12.25 -0.15 M14.8 0.65 L14.15 1.15 Q13.9 1.15 13.9 0.75 L13.95 0.4 14.55 0.35 14.8 0.65 M14.75 2.55 Q14.75 2.95 14.0 2.95 13.7 2.95 13.65 2.75 L13.65 2.55 Q13.65 2.2 14.2 2.2 14.75 2.2 14.75 2.55 M12.6 3.55 L12.55 3.4 Q12.55 3.15 13.25 3.15 L13.25 3.45 13.1 3.55 12.6 3.55 M11.9 3.3 L11.75 3.55 11.35 3.7 Q11.0 3.7 11.0 3.4 11.0 3.15 11.45 3.05 11.9 2.9 11.9 3.3 M11.7 3.0 Q11.0 3.0 11.0 2.55 11.0 2.05 11.7 2.1 12.35 2.15 12.35 2.65 12.35 3.0 11.7 3.0 M9.3 -1.05 L9.15 -0.9 8.8 -0.9 8.75 -1.05 Q9.3 -1.7 9.3 -1.05 M7.05 -1.05 Q7.05 -0.6 6.3 -0.6 L6.25 -0.6 6.35 -0.35 6.9 -0.65 8.05 -0.9 8.45 -0.7 8.55 -0.4 8.45 -0.2 8.75 0.6 8.6 0.85 8.7 1.0 8.8 1.25 8.8 1.2 Q9.3 0.95 9.6 1.2 L9.9 1.75 9.8 2.05 9.95 2.45 Q9.95 2.8 9.55 2.8 L9.15 2.5 9.25 2.4 8.9 2.45 8.55 2.4 8.8 2.95 8.55 3.4 9.2 3.25 Q9.95 3.2 9.95 3.7 L9.85 4.15 9.4 4.4 9.1 4.6 8.35 4.85 8.25 4.5 8.15 4.35 8.55 4.15 8.5 4.0 8.4 3.6 8.05 3.9 7.65 4.05 7.4 4.3 7.3 4.4 7.65 4.4 7.65 4.5 7.8 4.85 7.75 4.85 Q7.6 4.6 7.2 4.6 L6.95 4.9 6.9 5.2 6.5 5.2 Q6.6 4.5 6.2 4.5 5.9 4.5 5.8 5.05 5.65 5.55 5.15 5.4 L5.3 5.4 4.8 5.35 4.8 5.2 Q4.7 4.95 4.5 4.95 L4.2 5.25 Q3.9 5.55 3.05 5.55 L2.65 5.55 2.6 5.4 2.7 5.1 Q2.75 4.8 2.45 4.8 2.2 4.8 2.05 5.2 1.9 5.6 1.25 5.6 L0.95 5.55 0.8 5.35 Q0.8 5.2 0.95 5.1 L1.1 4.85 0.9 4.6 Q0.35 5.0 -0.15 5.0 L-0.7 4.95 Q-0.7 4.6 -0.9 4.6 L-1.95 5.2 -2.15 5.0 Q-2.15 4.8 -2.5 4.8 L-2.7 5.05 Q-2.85 5.25 -3.25 5.25 -3.65 5.25 -3.65 5.05 L-3.4 4.6 Q-3.4 4.35 -3.65 4.35 L-4.1 4.55 -4.7 4.75 -5.35 4.7 Q-5.15 4.4 -5.55 4.4 L-5.9 4.65 -6.55 4.85 -6.85 4.85 -6.9 4.8 -7.25 4.45 -7.1 4.05 -7.3 3.8 -7.45 3.9 -7.6 3.9 -7.7 4.0 -8.65 4.25 -8.95 4.2 -8.95 4.1 -9.15 3.75 -9.2 3.6 Q-9.4 3.3 -9.65 3.6 L-9.7 3.85 Q-9.8 3.75 -9.95 3.75 -10.2 3.75 -10.25 4.0 L-10.3 4.0 -10.3 4.3 -10.45 4.25 -11.15 4.05 -11.2 3.8 -11.15 3.5 -11.05 3.45 -10.75 3.25 -10.8 3.15 -11.05 3.0 -11.35 3.1 -11.9 3.2 -12.4 2.9 -12.25 2.55 -12.45 2.25 -12.7 2.55 -12.95 2.7 -12.8 2.3 -12.7 2.25 Q-12.25 1.95 -13.15 2.0 L-13.1 2.1 Q-13.1 2.45 -13.65 2.45 L-14.0 2.25 -13.75 1.95 -13.35 1.8 Q-13.7 1.5 -13.45 0.95 -13.3 0.55 -12.95 0.5 L-13.5 0.4 Q-13.9 0.25 -13.8 -0.2 -13.55 -0.95 -12.8 -0.8 L-13.15 -1.35 -13.75 -1.25 Q-14.6 -1.25 -14.6 -1.9 -14.6 -2.4 -14.15 -2.4 L-13.2 -2.1 -13.0 -1.8 Q-12.75 -2.15 -12.3 -2.05 -12.9 -2.5 -12.3 -3.1 L-11.0 -3.15 -10.75 -2.9 Q-10.5 -2.65 -10.65 -2.3 -9.7 -2.25 -9.55 -1.55 L-8.65 -1.7 Q-9.25 -1.8 -9.25 -2.1 -9.25 -2.45 -8.6 -2.5 -8.0 -2.5 -8.0 -2.0 L-8.25 -1.7 -7.7 -1.5 Q-7.55 -1.95 -6.8 -1.9 L-6.1 -1.75 -6.0 -1.85 -5.4 -2.05 -4.9 -1.8 -4.8 -1.5 -4.85 -1.25 -4.65 -0.9 -3.75 -1.05 -3.65 -1.0 -3.65 -1.15 Q-3.65 -1.65 -3.05 -1.6 -2.45 -1.55 -2.45 -1.2 -2.45 -0.9 -2.75 -0.8 L-2.6 -0.8 -1.6 -0.55 -1.35 -0.8 -0.6 -0.95 -0.2 -0.9 -0.3 -1.05 0.0 -1.4 0.6 -1.6 1.05 -1.1 0.9 -0.85 0.65 -0.7 0.45 -0.7 1.1 -0.45 Q1.25 -0.7 1.7 -0.85 2.35 -1.05 2.35 -0.65 L2.35 -0.6 2.45 -0.65 3.5 -0.85 4.1 -0.7 4.35 -0.55 4.8 -0.65 5.65 -0.8 5.85 -0.8 5.8 -0.95 5.85 -1.3 6.35 -1.45 Q7.05 -1.45 7.05 -1.05 M8.45 1.95 L8.2 1.45 7.95 1.9 8.2 2.15 8.45 1.95 M6.45 1.05 L6.35 0.7 Q6.15 0.7 5.95 0.85 L5.75 1.1 5.95 1.6 6.2 1.6 6.45 1.05 M9.55 -0.15 Q10.1 -0.2 10.1 0.2 10.1 0.65 9.3 0.65 9.0 0.65 9.0 0.5 L9.0 0.3 Q9.0 -0.1 9.55 -0.15 M10.3 1.2 L10.5 0.8 Q10.75 0.55 11.2 0.55 12.0 0.55 12.0 1.1 12.0 1.75 11.05 1.75 10.6 1.75 10.45 1.55 L10.35 1.7 10.1 1.7 10.0 1.4 10.25 1.2 10.3 1.2 M1.65 4.05 L1.95 3.6 Q1.95 2.85 0.65 4.05 L1.05 4.35 Q1.35 4.35 1.65 4.05 M3.25 2.35 L3.2 2.2 Q2.65 2.2 2.65 2.45 L2.85 2.65 3.25 2.35 M4.75 3.55 L4.7 3.25 Q4.4 3.2 4.25 3.5 L4.15 3.75 4.4 3.95 4.6 3.8 4.75 3.55 M6.05 2.95 L5.8 3.2 Q5.65 3.25 5.65 3.45 L5.7 3.6 6.1 3.75 6.55 3.5 6.7 3.15 Q6.55 2.05 6.05 2.5 L6.05 2.95 M3.3 0.3 L3.3 0.5 3.5 0.6 3.65 0.55 3.6 0.3 3.3 0.3 M10.0 5.15 L9.5 5.45 Q9.0 5.45 9.0 5.2 9.0 4.9 9.5 4.9 10.0 4.9 10.0 5.15 M10.45 4.7 L10.45 4.5 Q10.45 4.05 11.1 4.05 11.8 4.05 11.8 4.4 11.8 4.85 10.8 4.85 L10.45 4.7 M-3.15 -0.75 L-3.25 -0.75 -3.2 -0.65 -3.05 -0.75 -3.15 -0.75 M-4.85 4.6 L-4.9 4.55 -4.85 4.6 M-12.7 -3.45 Q-13.2 -3.45 -13.1 -3.75 L-13.0 -4.1 -12.5 -4.15 Q-12.15 -4.15 -12.15 -3.8 -12.15 -3.45 -12.7 -3.45 M-14.0 1.55 Q-14.85 1.55 -14.85 1.05 -14.85 0.5 -14.25 0.45 -13.65 0.4 -13.65 1.1 -13.65 1.55 -14.0 1.55" fill="#ffffff" fill-rule="evenodd" stroke="none"/>
      <path d="M2.25 -2.0 L1.2 -1.8 0.25 -2.25 -0.25 -2.5 -0.6 -2.55 Q-1.4 -2.65 -1.75 -2.2 L-2.2 -1.8 Q-2.25 -1.65 -2.45 -1.65 L-2.8 -1.85 -3.25 -2.05 -4.0 -1.8 Q-3.8 -2.65 -5.8 -2.8 L-5.85 -2.85 -5.75 -3.0 -5.05 -3.0 -4.25 -2.6 -3.7 -2.5 -3.0 -2.55 -2.5 -2.3 Q-2.25 -2.95 -0.3 -2.95 L0.2 -2.8 0.2 -2.5 2.25 -2.0 M4.05 -2.05 L3.8 -1.85 3.6 -2.05 Q3.6 -3.05 5.6 -2.3 L5.6 -2.2 5.2 -2.15 4.45 -2.25 Q4.1 -2.25 4.05 -2.05 M5.75 -2.2 L5.75 -2.3 6.3 -2.15 7.6 -2.4 8.95 -2.65 Q10.05 -2.65 10.35 -2.2 L10.9 -1.8 11.45 -2.35 Q12.1 -2.9 13.05 -3.05 L13.2 -3.0 11.85 -2.25 11.55 -1.7 Q11.3 -1.3 10.9 -1.3 L10.15 -1.5 10.1 -1.8 Q10.1 -2.25 8.95 -2.25 L6.2 -1.75 5.75 -2.2 M14.45 -3.3 L14.2 -2.95 14.0 -3.2 Q14.0 -3.7 14.7 -3.7 L15.7 -3.5 15.8 -3.05 15.6 -2.95 15.45 -3.05 15.4 -3.3 14.45 -3.3 M16.1 -2.45 L15.7 -2.9 Q16.3 -3.3 16.65 -2.45 L16.9 -1.25 16.75 -0.65 16.6 -0.4 16.6 -0.15 16.4 0.35 16.75 1.3 16.6 1.6 16.45 1.9 16.55 2.25 16.2 3.05 15.3 3.65 14.65 4.2 13.7 4.45 13.45 4.8 Q12.95 5.0 12.7 5.15 11.9 5.7 11.0 5.7 10.15 5.7 10.15 5.3 L11.2 5.15 12.1 5.0 Q12.05 4.75 12.25 4.65 L13.15 4.5 13.1 4.3 Q13.1 4.15 13.5 4.05 L14.25 3.95 14.95 3.55 14.7 3.45 Q14.8 3.3 15.6 2.85 L16.05 2.2 15.7 1.95 16.25 1.2 16.2 0.75 16.0 0.45 15.65 0.2 Q15.65 0.1 16.2 -0.1 L16.15 -0.2 Q15.8 -0.2 15.8 -0.45 L16.1 -0.8 16.4 -1.2 16.35 -2.05 16.1 -2.45 M9.95 5.6 Q9.45 6.1 8.5 6.1 L7.4 6.05 7.1 5.95 6.0 6.2 5.2 6.4 4.6 6.35 3.45 6.25 2.85 6.4 2.2 6.5 1.25 6.4 0.3 6.5 0.2 6.5 -0.75 6.45 -2.05 6.35 -3.0 6.15 -3.75 6.25 -4.6 6.05 -5.8 6.1 Q-6.7 6.1 -7.6 5.55 L-7.35 5.35 Q-6.5 5.95 -5.0 5.95 L-4.5 5.9 -4.35 5.85 -4.0 5.95 -3.15 5.85 -2.9 5.75 0.15 6.0 1.35 5.75 1.6 6.0 1.6 6.05 2.45 6.0 3.5 5.8 4.95 5.9 5.3 6.0 6.05 5.85 7.1 5.65 8.5 5.8 9.95 5.6 M-15.95 -2.7 Q-15.8 -3.3 -15.1 -3.3 -14.8 -3.3 -14.95 -3.0 -15.15 -2.8 -15.5 -2.7 L-15.65 -2.35 -15.4 -1.5 -15.65 -1.15 -15.95 -0.75 -15.8 -0.55 -15.65 -0.35 -15.9 -0.15 -15.9 -0.1 Q-16.35 -0.1 -16.35 0.2 L-16.05 0.55 -15.8 0.8 -15.85 1.0 -15.75 1.1 -16.0 1.8 Q-16.0 2.3 -15.5 2.45 -15.05 2.55 -15.05 2.75 L-15.05 2.9 Q-14.95 2.95 -14.8 3.1 -14.6 3.45 -14.1 3.45 L-13.4 3.6 Q-12.8 4.05 -12.0 4.1 L-11.55 4.2 -11.3 4.0 Q-10.9 4.75 -9.5 4.75 -9.25 4.75 -9.25 5.25 L-8.8 5.25 -8.3 5.1 Q-8.05 5.1 -8.05 5.3 -8.05 5.75 -9.1 5.75 -9.65 5.75 -9.65 5.25 L-11.25 4.8 -11.45 4.6 -11.55 4.6 -12.7 4.55 -13.85 3.9 Q-14.0 3.7 -14.4 3.7 L-15.0 3.6 -15.25 3.1 -15.25 3.0 -15.35 3.0 Q-16.0 3.0 -16.3 2.6 L-16.5 2.05 -16.35 1.45 -16.15 1.05 Q-16.55 0.95 -16.65 0.25 -16.65 -0.25 -16.25 -0.3 L-16.35 -0.65 -16.25 -1.2 -16.05 -2.05 -15.95 -2.7 M-11.75 -5.25 Q-11.25 -5.45 -11.25 -4.6 L-11.4 -4.35 -11.15 -4.0 -10.55 -3.8 -10.75 -3.6 Q-11.4 -3.6 -11.6 -4.0 L-11.65 -4.65 -11.75 -4.85 -11.75 -5.25 M-6.35 -3.3 L-6.15 -2.85 Q-6.15 -2.55 -6.4 -2.55 L-6.65 -2.8 Q-6.75 -3.05 -7.1 -3.05 L-7.5 -2.9 -7.7 -2.8 -8.15 -3.05 -8.6 -3.35 -9.25 -3.25 -9.95 -3.45 -9.75 -3.65 -9.3 -3.55 -8.45 -3.85 Q-7.9 -4.05 -7.75 -3.45 L-7.1 -3.6 -6.35 -3.3" fill="#000000" fill-rule="evenodd" stroke="none"/>
      <path d="M-11.3 -5.45 L-11.45 -5.4 -11.8 -5.75 Q-12.0 -6.15 -12.65 -6.15 -13.55 -6.15 -13.75 -5.6 L-13.95 -4.7 -14.2 -4.95 -14.3 -5.4 Q-14.3 -6.65 -12.75 -6.8 -11.25 -6.95 -11.25 -5.7 L-11.3 -5.5 -11.3 -5.45" fill="#000000" fill-rule="evenodd" stroke="none"/>
      <path d="M-14.5 -4.75 L-14.8 -4.05 Q-14.8 -3.45 -14.4 -3.15 L-14.65 -3.1 Q-15.25 -3.1 -15.35 -4.0 -15.5 -4.95 -14.35 -5.0 L-14.5 -4.75" fill="#000000" fill-rule="evenodd" stroke="none"/>
    </g>
  </defs>
</svg>
