<?xml version="1.0" encoding="UTF-8" standalone="no"?>
<svg xmlns:ffdec="https://www.free-decompiler.com/flash" xmlns:xlink="http://www.w3.org/1999/xlink" ffdec:objectType="frame" height="34.3px" width="65.05px" xmlns="http://www.w3.org/2000/svg">
  <g transform="matrix(1.0, 0.0, 0.0, 1.0, 33.1, 41.7)">
    <use ffdec:characterId="9" height="34.3" transform="matrix(1.0, 0.0, 0.0, 1.0, -0.55, -24.55)" width="65.05" xlink:href="#sprite0"/>
  </g>
  <defs>
    <g id="sprite0">
      <use ffdec:characterId="2" height="18.85" transform="matrix(-1.0, 0.0, 0.0, 1.0, 24.6, 7.25)" width="17.7" xlink:href="#sprite1"/>
      <use ffdec:characterId="2" height="18.85" transform="matrix(1.0, 0.0, 0.0, 1.0, -24.65, 7.95)" width="17.7" xlink:href="#sprite1"/>
      <use ffdec:characterId="4" height="32.1" transform="matrix(1.0, 0.0, 0.0, 1.0, 0.2, -2.65)" width="48.95" xlink:href="#sprite2"/>
      <use ffdec:characterId="6" height="14.1" transform="matrix(1.0, 0.0, 0.0, 1.0, 0.15, 0.35)" width="15.15" xlink:href="#sprite3"/>
    </g>
    <g id="sprite1">
      <use ffdec:characterId="1" height="18.85" transform="matrix(1.0, 0.0, 0.0, 1.0, 0.0, 0.0)" width="17.7" xlink:href="#shape0"/>
    </g>
    <g id="shape0">
      <path d="M-4.5 2.45 L-5.0 1.5 Q-4.65 -0.25 -3.5 -1.9 -2.45 -3.5 -1.1 -4.4 L-1.55 -1.5 -2.2 1.2 -1.55 0.4 Q-0.55 -1.5 0.1 -3.25 0.3 -2.95 -0.55 0.95 0.9 -1.6 1.15 0.0 1.55 1.85 0.65 4.1 L2.7 1.75 Q3.35 2.35 3.15 3.35 L0.95 6.15 0.1 6.75 Q-0.7 3.45 -0.8 1.3 L-1.95 4.05 Q-2.75 2.0 -2.35 -1.85 L-4.5 2.45" fill="#ffffff" fill-rule="evenodd" stroke="none"/>
      <path d="M-1.05 -7.35 Q2.55 -0.45 5.35 2.05 0.95 8.1 -0.05 7.85 -2.35 6.3 -4.5 2.45 L-2.35 -1.85 Q-2.75 2.0 -1.95 4.05 L-0.8 1.3 Q-0.7 3.45 0.1 6.75 L0.95 6.15 3.15 3.35 Q3.35 2.35 2.7 1.75 L0.65 4.1 Q1.55 1.85 1.15 0.0 0.9 -1.6 -0.55 0.95 0.3 -2.95 0.1 -3.25 -0.55 -1.5 -1.55 0.4 L-2.2 1.2 -1.55 -1.5 -1.1 -4.4 Q-2.45 -3.5 -3.5 -1.9 -4.65 -0.25 -5.0 1.5 L-6.05 -1.1 -1.85 -6.2 -6.7 -3.3 Q-8.35 -5.5 -6.0 -6.15 L-1.05 -7.35" fill="#bcc8de" fill-rule="evenodd" stroke="none"/>
      <path d="M-1.05 -7.35 Q0.0 -7.75 2.1 -8.9 3.8 -9.8 4.4 -9.65 5.6 -9.35 7.6 -7.6 9.6 -5.95 9.5 -5.4 9.35 -4.75 7.8 -2.05 L5.35 2.05 Q2.55 -0.45 -1.05 -7.35 M-6.05 -1.1 L-6.7 -3.3 -1.85 -6.2 -6.05 -1.1" fill="#8a9eb9" fill-rule="evenodd" stroke="none"/>
      <path d="M9.8 -4.25 L9.7 -3.8 Q1.5 9.65 -0.45 9.2 -2.05 8.8 -5.75 1.4 L-7.05 -1.85 Q-8.05 -4.75 -7.85 -5.65 -7.7 -6.4 -5.95 -6.7 L-3.05 -7.1 -0.25 -8.15 Q1.55 -8.85 2.35 -8.7 L2.35 -8.55 Q2.1 -7.45 -6.8 -5.35 -5.6 1.25 -0.2 7.8 3.6 4.3 6.6 -0.85 8.9 -4.9 9.25 -4.8 9.8 -4.7 9.8 -4.25" fill="#000000" fill-rule="evenodd" stroke="none"/>
    </g>
    <g id="sprite2">
      <use ffdec:characterId="3" height="32.1" transform="matrix(1.0, 0.0, 0.0, 1.0, 0.0, 0.0)" width="48.95" xlink:href="#shape1"/>
    </g>
    <g id="shape1">
      <path d="M-3.05 -10.75 L-2.0 -11.95 -2.55 -8.95 -2.8 -1.55 -2.9 2.4 -3.15 8.0 -3.3 8.1 -4.6 8.55 -6.85 9.0 -9.8 9.3 -8.0 3.3 -5.3 -3.85 Q-4.05 -7.2 -3.05 -10.75" fill="#75c3ff" fill-rule="evenodd" stroke="none"/>
      <path d="M-1.3 -13.5 Q-1.3 -10.95 -0.7 -8.4 L1.1 -0.4 2.25 7.45 Q2.3 8.4 5.25 12.15 L1.65 13.35 -4.05 14.1 -9.55 13.8 Q-12.15 13.15 -14.1 11.55 L-15.95 9.95 Q-15.45 7.3 -14.5 6.05 L-11.9 1.75 Q-10.4 -1.3 -7.95 -4.1 L-3.65 -11.95 -1.3 -13.5 M-3.05 -10.75 Q-4.05 -7.2 -5.3 -3.85 L-8.0 3.3 -9.8 9.3 -6.85 9.0 -4.6 8.55 -3.3 8.1 -3.15 8.0 -2.9 2.4 -2.8 -1.55 -2.55 -8.95 -2.0 -11.95 -3.05 -10.75" fill="#0096ff" fill-rule="evenodd" stroke="none"/>
      <path d="M-0.55 -14.05 Q2.3 -11.05 3.65 -8.1 4.95 -5.15 6.5 -2.1 7.95 0.85 8.95 3.9 9.9 6.85 10.15 10.65 L9.0 12.8 4.3 16.15 1.8 16.35 -1.85 16.45 -6.0 16.0 -8.5 15.45 -11.2 14.65 Q-12.6 14.0 -14.85 13.6 L-16.1 12.55 -16.7 12.25 -17.25 11.9 -17.6 11.3 -18.9 10.6 Q-19.55 10.05 -19.95 9.95 L-19.65 9.6 -19.1 8.65 -19.0 8.2 -18.55 7.85 -17.45 5.6 -13.45 -1.45 -9.4 -7.55 -9.4 -8.65 -3.65 -11.95 -7.95 -4.1 Q-10.4 -1.3 -11.9 1.75 L-14.5 6.05 Q-15.45 7.3 -15.95 9.95 L-14.1 11.55 Q-12.15 13.15 -9.55 13.8 L-4.05 14.1 1.65 13.35 5.25 12.15 Q2.3 8.4 2.25 7.45 L1.1 -0.4 -0.7 -8.4 Q-1.3 -10.95 -1.3 -13.5 L-0.55 -14.05 M22.95 -0.75 Q22.65 -0.6 22.0 1.35 L20.95 3.6 19.55 5.3 Q18.55 6.6 16.65 7.7 L15.75 0.7 Q13.95 -4.85 11.3 -7.35 8.6 -9.85 5.45 -11.5 6.95 -11.0 8.65 -9.7 10.4 -8.35 15.3 -5.6 L20.2 -2.75 22.1 -1.55 22.95 -0.75" fill="#055196" fill-rule="evenodd" stroke="none"/>
      <path d="M4.3 16.15 L9.0 12.8 10.15 10.65 Q9.9 6.85 8.95 3.9 7.95 0.85 6.5 -2.1 4.95 -5.15 3.65 -8.1 2.3 -11.05 -0.55 -14.05 L-0.4 -14.15 Q2.8 -13.05 5.45 -11.5 8.6 -9.85 11.3 -7.35 13.95 -4.85 15.75 0.7 L16.65 7.7 Q18.55 6.6 19.55 5.3 L20.95 3.6 22.0 1.35 Q22.65 -0.6 22.95 -0.75 L23.55 0.05 23.75 0.65 Q23.65 1.95 22.35 4.8 L20.65 7.85 19.15 10.2 Q18.4 11.25 16.7 11.75 L16.65 11.75 15.2 12.8 Q14.7 12.95 13.45 13.8 12.25 14.6 11.55 14.8 L7.35 15.85 4.3 16.15" fill="#0b345f" fill-rule="evenodd" stroke="none"/>
      <path d="M-9.4 -8.65 L-9.4 -7.55 -13.45 -1.45 -17.45 5.6 -18.55 7.85 -19.0 8.2 -19.1 8.65 -19.65 9.6 -19.95 9.95 -22.75 5.65 Q-23.45 3.85 -23.0 -0.3 -22.05 -2.25 -9.4 -8.65" fill="#092d54" fill-rule="evenodd" stroke="none"/>
      <path d="M3.1 -12.95 Q8.25 -10.75 13.1 -8.05 18.75 -4.75 24.1 -0.95 L24.6 0.65 24.1 2.55 23.45 4.35 Q21.75 9.2 17.8 12.45 14.6 15.2 10.35 16.3 6.4 17.5 2.4 17.6 -3.75 17.75 -9.8 16.0 -16.45 14.3 -20.75 9.15 -23.3 6.1 -24.35 0.55 L-21.2 -2.9 -0.9 -14.5 1.15 -13.75 3.1 -12.95 M11.65 -6.7 L3.5 -11.35 -0.7 -13.5 -19.8 -1.65 -22.0 1.4 Q-20.7 7.85 -15.75 11.55 -10.9 15.1 -4.95 15.7 1.2 16.7 7.3 15.55 13.05 14.35 19.3 7.95 25.5 1.5 21.05 -1.15 L11.65 -6.7" fill="#000000" fill-rule="evenodd" stroke="none"/>
      <path d="M-18.8 5.95 Q-19.45 4.85 -19.25 3.75 L-13.7 10.95 Q-14.4 11.15 -15.0 10.65 L-16.65 9.0 -18.8 5.95 M-19.6 1.05 Q-19.4 0.75 -19.15 0.75 -18.9 0.75 -18.7 1.05 L-18.5 1.65 -18.7 2.3 -19.15 2.55 -19.6 2.3 -19.8 1.65 -19.6 1.05 M-6.15 -3.25 L-5.35 -2.15 -9.55 6.9 -10.55 6.75 -6.7 -3.15 -6.15 -3.25 M-2.65 -9.75 L-2.3 -8.45 -3.75 -4.75 -4.05 -4.7 Q-4.75 -4.4 -5.3 -4.9 L-2.65 -9.75" fill="#ffffff" fill-rule="evenodd" stroke="none"/>
    </g>
    <g id="sprite3">
      <use ffdec:characterId="5" height="14.1" transform="matrix(1.0, 0.0, 0.0, 1.0, 0.0, 0.0)" width="15.15" xlink:href="#shape2"/>
    </g>
    <g id="shape2">
      <path d="M6.0 6.85 L2.0 7.0 -7.25 6.8 -7.25 2.75 -6.8 2.45 7.3 2.95 7.5 4.2 7.5 4.65 7.5 6.6 6.0 6.85 M-7.55 0.6 L-0.7 -7.05 Q4.2 -4.2 7.6 0.25 L-1.3 0.7 Q-5.55 1.0 -7.55 0.6" fill="#000000" fill-rule="evenodd" stroke="none"/>
    </g>
  </defs>
</svg>
