<?xml version="1.0" encoding="UTF-8" standalone="no"?>
<svg xmlns:ffdec="https://www.free-decompiler.com/flash" xmlns:xlink="http://www.w3.org/1999/xlink" ffdec:objectType="frame" height="66.65px" width="72.9px" xmlns="http://www.w3.org/2000/svg">
  <g transform="matrix(1.0, 0.0, 0.0, 1.0, 38.8, 54.35)">
    <use ffdec:characterId="11" height="66.65" transform="matrix(1.0, 0.0, 0.0, 1.0, -2.35, -21.0)" width="72.9" xlink:href="#sprite0"/>
  </g>
  <defs>
    <g id="sprite0">
      <use ffdec:characterId="4" height="55.9" transform="matrix(0.98, 0.1989, -0.1989, 0.98, 2.45, 0.7)" width="52.55" xlink:href="#sprite1"/>
      <use ffdec:characterId="8" height="39.6" transform="matrix(1.0797, 0.2294, -0.2078, 0.9781, -16.8, -10.7)" width="28.75" xlink:href="#sprite2"/>
      <use ffdec:characterId="2" height="13.05" transform="matrix(1.0, 0.0, 0.0, 1.0, 24.85, 14.3)" width="23.15" xlink:href="#sprite3"/>
      <use ffdec:characterId="6" height="18.1" transform="matrix(1.0, 0.0, 0.0, 1.0, 11.9, -1.3)" width="16.6" xlink:href="#sprite4"/>
    </g>
    <g id="sprite1">
      <use ffdec:characterId="3" height="55.9" transform="matrix(1.0, 0.0, 0.0, 1.0, 0.0, 0.0)" width="52.55" xlink:href="#shape0"/>
    </g>
    <g id="shape0">
      <path d="M7.1 -20.5 L5.55 -21.05 4.7 -21.15 Q5.5 -21.1 6.2 -19.7 L6.75 -18.25 4.35 -17.1 Q3.25 -19.25 0.1 -18.65 L-3.9 -17.7 -9.5 -16.2 -14.4 -14.15 -14.95 -10.4 -11.9 -11.2 -11.6 -11.3 -14.75 -9.45 -22.55 -4.1 -19.5 -5.0 Q-17.7 -5.65 -16.6 -6.25 L-17.75 -5.25 Q-19.1 -5.15 -18.9 -4.2 L-18.15 -2.15 -17.4 -0.25 -20.1 3.05 -23.5 7.0 -24.1 4.55 Q-27.4 -2.95 -25.0 -6.95 -22.7 -10.9 -19.3 -11.7 -18.65 -11.85 -18.25 -12.25 -17.85 -12.6 -17.95 -13.0 -17.0 -13.3 -15.75 -14.0 -15.45 -13.8 -15.0 -14.0 L-14.95 -14.4 -12.9 -15.35 -10.65 -16.05 -5.5 -18.4 -3.1 -18.85 -0.2 -19.6 0.55 -19.6 1.1 -19.9 1.05 -20.5 1.05 -20.55 4.75 -21.35 Q6.45 -21.5 7.1 -20.5" fill="#9e96a3" fill-rule="evenodd" stroke="none"/>
      <path d="M-9.5 -16.2 L-3.9 -17.7 0.1 -18.65 Q3.25 -19.25 4.35 -17.1 L6.75 -18.25 6.2 -19.7 Q5.5 -21.1 4.7 -21.15 L5.55 -21.05 7.1 -20.5 8.7 -18.5 7.85 -16.85 7.0 -16.95 Q5.7 -16.8 3.25 -15.5 L4.45 -15.15 Q4.45 -14.0 4.0 -13.5 L2.9 -13.05 1.55 -12.3 -0.35 -9.8 Q-1.45 -4.85 -1.95 -3.8 -2.5 -2.4 -4.55 -2.5 -2.75 -7.25 -4.15 -7.45 L-8.45 -6.85 -4.15 -13.95 -9.5 -16.2 M-23.5 7.0 L-20.1 3.05 -17.4 -0.25 -18.15 -2.15 -18.9 -4.2 Q-19.1 -5.15 -17.75 -5.25 L-16.6 -6.25 Q-17.7 -5.65 -19.5 -5.0 L-22.55 -4.1 -14.75 -9.45 -13.55 -8.5 -16.65 -1.8 Q-15.25 -1.95 -14.2 -1.3 -13.4 -0.65 -13.25 0.15 -13.15 0.8 -13.6 1.2 L-14.65 1.9 -23.4 7.9 -23.5 7.0 M-1.05 14.65 L-1.5 15.1 Q-2.05 15.6 -2.55 15.5 L-3.8 13.15 -3.85 12.85 -4.45 10.9 -8.35 15.95 -14.7 18.85 Q-15.4 18.9 -17.65 21.25 -17.9 21.75 -18.7 22.25 -19.2 22.8 -18.95 24.2 L-19.1 24.9 -21.05 23.25 -19.35 21.05 -17.85 18.6 -20.25 18.65 -16.7 15.9 -13.05 13.3 Q-11.1 12.55 -8.8 10.2 L-8.25 11.05 -0.35 5.6 0.55 5.3 4.65 6.65 3.55 8.6 4.5 8.85 Q3.6 10.25 -1.05 14.65 M-15.65 10.2 L-17.45 11.05 Q-19.35 11.7 -19.75 11.35 -18.9 10.45 -18.7 9.2 -18.6 8.4 -15.3 6.05 L-15.65 10.2 M-9.3 12.05 Q-9.95 12.15 -11.25 14.0 -10.5 15.45 -9.7 14.4 L-8.6 12.6 -8.75 12.2 -8.6 12.05 Q-8.65 11.9 -9.3 12.05" fill="#d0d0d0" fill-rule="evenodd" stroke="none"/>
      <path d="M1.05 -20.5 L1.1 -19.9 0.55 -19.6 -0.2 -19.6 -1.05 -19.65 -5.35 -22.3 -6.65 -21.35 Q-6.9 -21.3 -7.1 -21.6 L-7.45 -22.3 Q-6.65 -22.45 -6.2 -23.1 -5.7 -23.7 -5.85 -24.45 L-5.7 -24.6 -4.9 -25.35 Q-4.25 -25.05 -1.75 -22.9 L1.05 -20.5 M-14.6 -17.15 L-15.3 -18.15 -15.15 -18.55 -14.3 -18.8 -14.05 -18.7 -13.45 -18.4 -13.1 -18.05 -9.15 -20.85 Q-8.6 -20.8 -8.0 -19.95 -8.55 -18.45 -9.25 -17.95 -9.7 -17.65 -11.05 -17.4 L-14.6 -17.15 M-18.95 -18.6 L-18.8 -18.65 -17.8 -18.75 -16.6 -18.4 -16.1 -17.2 -17.25 -17.45 -17.75 -17.55 -18.05 -17.65 -18.25 -18.6 -18.9 -18.45 -18.95 -18.6" fill="#c7fffc" fill-rule="evenodd" stroke="none"/>
      <path d="M1.05 -20.55 L1.05 -20.5 -1.75 -22.9 Q-4.25 -25.05 -4.9 -25.35 L-5.7 -24.6 -4.3 -26.3 -4.0 -26.25 Q-3.2 -25.95 -1.35 -23.95 0.9 -21.5 1.05 -20.55 M-0.2 -19.6 L-3.1 -18.85 -5.5 -18.4 -6.45 -18.3 Q-7.05 -18.2 -7.9 -17.7 L-7.85 -18.5 -8.0 -19.95 Q-8.6 -20.8 -9.15 -20.85 L-13.1 -18.05 -13.45 -18.4 -14.05 -18.7 -14.3 -18.8 -15.15 -18.55 -15.3 -18.15 -14.6 -17.15 Q-14.45 -15.7 -12.9 -15.35 L-14.95 -14.4 -14.95 -14.6 Q-14.4 -14.7 -14.35 -15.1 -14.8 -16.9 -15.7 -17.55 L-15.95 -16.85 -16.1 -17.2 -16.6 -18.4 -17.55 -18.85 -17.25 -18.9 -14.2 -19.1 -12.15 -19.55 -11.7 -19.25 -11.65 -19.8 -7.45 -22.3 -7.1 -21.6 Q-6.9 -21.3 -6.65 -21.35 -5.85 -19.05 -4.95 -18.85 L-1.05 -19.65 -0.2 -19.6 M-15.75 -14.0 Q-17.0 -13.3 -17.95 -13.0 L-16.9 -13.8 -17.3 -14.35 -17.8 -15.35 -18.0 -17.5 -17.75 -17.55 -17.25 -17.45 Q-16.85 -15.9 -15.75 -14.0 M-19.4 -18.6 L-19.05 -18.9 -18.8 -18.65 -18.95 -18.6 -19.2 -18.45 -19.4 -18.6" fill="#585a6b" fill-rule="evenodd" stroke="none"/>
      <path d="M-4.55 -2.5 Q-2.5 -2.4 -1.95 -3.8 -1.45 -4.85 -0.35 -9.8 L1.55 -12.3 2.9 -13.05 4.0 -13.5 Q4.45 -14.0 4.45 -15.15 L3.25 -15.5 Q5.7 -16.8 7.0 -16.95 L7.85 -16.85 8.7 -18.5 Q13.25 -16.2 15.3 -12.9 L23.8 0.6 18.45 -6.1 19.15 -1.5 Q20.1 -1.15 23.05 3.35 L20.25 4.5 19.5 2.2 18.1 4.6 Q17.35 5.65 15.8 6.2 L13.0 4.6 13.05 5.95 13.45 7.35 13.4 8.25 Q13.95 8.4 16.2 7.05 L16.85 7.35 Q15.5 8.35 14.5 8.55 12.2 9.0 12.0 8.25 12.6 10.8 12.2 11.55 11.95 9.35 11.05 7.65 10.6 6.85 9.15 5.55 L9.25 6.95 9.6 9.65 9.9 10.45 Q7.8 9.1 7.7 9.45 8.05 3.35 3.95 4.15 2.75 4.35 -0.35 5.6 L-8.25 11.05 -8.8 10.2 Q-11.1 12.55 -13.05 13.3 L-16.7 15.9 -20.25 18.65 -17.85 18.6 -19.35 21.05 -21.05 23.25 -20.95 22.4 -20.85 20.5 Q-20.95 20.0 -22.2 16.7 L-23.6 12.95 Q-23.85 11.5 -23.4 7.9 L-14.65 1.9 -12.45 1.0 -10.45 0.15 -4.55 -2.5 M8.6 -16.95 L9.4 -15.9 Q10.3 -14.2 12.6 -12.55 L14.85 -10.95 Q15.1 -12.55 12.65 -14.55 10.6 -16.3 8.6 -16.95 M-0.6 3.75 L2.55 2.1 5.8 0.3 4.15 0.05 -0.75 0.0 -8.35 3.25 -10.7 4.2 -15.3 6.05 Q-18.6 8.4 -18.7 9.2 -18.9 10.45 -19.75 11.35 -19.35 11.7 -17.45 11.05 L-15.65 10.2 -11.15 8.0 -9.4 7.2 -8.65 6.85 Q-7.35 6.2 -9.45 7.6 L-21.45 15.9 -11.1 9.9 -11.1 9.95 -9.55 9.05 -8.5 8.5 -7.45 7.8 -0.75 3.9 -0.6 3.75" fill="#9697a3" fill-rule="evenodd" stroke="none"/>
      <path d="M-11.6 -11.3 L-11.9 -11.2 -12.05 -12.05 -10.95 -13.55 Q-11.7 -11.3 -10.55 -6.85 L-9.25 -2.8 Q-9.05 -1.6 -9.25 -1.05 -9.55 -0.35 -10.45 0.15 L-12.45 1.0 -12.15 -0.35 Q-11.75 -1.8 -11.9 -2.4 -12.1 -3.55 -12.95 -3.95 L-13.45 -3.75 Q-13.6 -5.25 -12.95 -7.3 L-12.2 -9.15 -12.95 -9.2 Q-13.55 -8.75 -13.65 -9.2 -13.75 -9.75 -12.85 -10.25 -11.75 -10.8 -11.6 -11.3 M8.6 -16.95 Q10.6 -16.3 12.65 -14.55 15.1 -12.55 14.85 -10.95 L12.6 -12.55 Q10.3 -14.2 9.4 -15.9 L8.6 -16.95 M12.2 11.55 L12.1 12.1 11.85 12.3 11.55 12.0 11.4 11.5 Q11.1 10.6 10.4 10.7 L10.3 10.7 9.9 10.45 9.6 9.65 9.25 6.95 9.15 5.55 Q10.6 6.85 11.05 7.65 11.95 9.35 12.2 11.55 M24.25 2.4 L24.1 3.65 21.5 0.7 Q21.6 -0.45 22.4 0.0 23.45 0.7 24.1 1.65 L24.25 2.4 M-9.55 9.05 L-11.1 9.95 -11.1 9.9 -21.45 15.9 -9.45 7.6 -9.55 9.05 M-9.4 7.2 L-11.15 8.0 -11.75 8.0 -12.05 7.45 Q-12.1 7.05 -10.7 4.2 L-8.35 3.25 -8.9 5.25 -9.4 7.2 M-9.3 12.05 Q-8.65 11.9 -8.6 12.05 L-8.75 12.2 -8.6 12.6 -9.7 14.4 Q-10.5 15.45 -11.25 14.0 -9.95 12.15 -9.3 12.05" fill="#ffffff" fill-rule="evenodd" stroke="none"/>
      <path d="M15.8 6.2 Q17.35 5.65 18.1 4.6 L19.5 2.2 20.25 4.5 23.05 3.35 Q20.1 -1.15 19.15 -1.5 L18.45 -6.1 23.8 0.6 24.1 1.65 Q23.45 0.7 22.4 0.0 21.6 -0.45 21.5 0.7 L24.1 3.65 24.25 2.4 24.55 3.65 22.4 5.3 Q21.1 6.05 21.0 6.8 L20.9 7.75 20.8 8.65 16.85 7.35 16.2 7.05 15.8 6.2" fill="#e6e6e6" fill-rule="evenodd" stroke="none"/>
      <path d="M-10.45 -23.15 L-10.15 -23.05 -10.45 -23.7 -6.45 -25.6 -4.2 -26.8 -3.95 -26.3 -4.0 -26.25 -4.3 -26.3 -5.7 -24.6 -5.85 -24.45 Q-5.7 -23.7 -6.2 -23.1 -6.65 -22.45 -7.45 -22.3 L-11.65 -19.8 Q-11.4 -20.9 -10.1 -22.1 L-10.45 -23.15" fill="#a3b7d1" fill-rule="evenodd" stroke="none"/>
      <path d="M-10.65 -16.05 L-12.9 -15.35 Q-14.45 -15.7 -14.6 -17.15 L-11.05 -17.4 Q-9.7 -17.65 -9.25 -17.95 -8.55 -18.45 -8.0 -19.95 L-7.85 -18.5 -7.9 -17.7 -10.65 -16.05 M-14.95 -14.4 L-15.0 -14.0 Q-15.45 -13.8 -15.75 -14.0 -16.85 -15.9 -17.25 -17.45 L-16.1 -17.2 -15.95 -16.85 Q-15.75 -15.2 -14.95 -14.6 L-14.95 -14.4 M-1.05 -19.65 L-4.95 -18.85 Q-5.85 -19.05 -6.65 -21.35 L-5.35 -22.3 -1.05 -19.65" fill="#848484" fill-rule="evenodd" stroke="none"/>
      <path d="M-14.75 -9.45 L-11.6 -11.3 Q-11.75 -10.8 -12.85 -10.25 -13.75 -9.75 -13.65 -9.2 -13.55 -8.75 -12.95 -9.2 L-12.2 -9.15 -12.95 -7.3 Q-13.6 -5.25 -13.45 -3.75 L-12.95 -3.95 Q-12.1 -3.55 -11.9 -2.4 -11.75 -1.8 -12.15 -0.35 L-12.45 1.0 -14.65 1.9 -13.6 1.2 Q-13.15 0.8 -13.25 0.15 -13.4 -0.65 -14.2 -1.3 -15.25 -1.95 -16.65 -1.8 L-13.55 -8.5 -14.75 -9.45 M-11.9 -11.2 L-14.95 -10.4 -14.4 -14.15 -9.5 -16.2 -4.15 -13.95 -8.45 -6.85 -4.15 -7.45 Q-2.75 -7.25 -4.55 -2.5 L-10.45 0.15 Q-9.55 -0.35 -9.25 -1.05 -9.05 -1.6 -9.25 -2.8 L-10.55 -6.85 Q-11.7 -11.3 -10.95 -13.55 L-12.05 -12.05 -11.9 -11.2 M-0.6 3.75 L-0.75 3.9 -7.45 7.8 Q-7.5 7.5 -7.95 7.8 -8.4 8.1 -8.5 8.5 L-9.55 9.05 -9.45 7.6 Q-7.35 6.2 -8.65 6.85 L-9.4 7.2 -8.9 5.25 -8.35 3.25 -0.75 0.0 0.15 0.4 -0.6 3.75 M-11.15 8.0 L-15.65 10.2 -15.3 6.05 -10.7 4.2 Q-12.1 7.05 -12.05 7.45 L-11.75 8.0 -11.15 8.0" fill="#eeeeee" fill-rule="evenodd" stroke="none"/>
      <path d="M-17.95 -13.0 Q-17.85 -12.6 -18.25 -12.25 -18.65 -11.85 -19.3 -11.7 -19.8 -11.9 -19.8 -12.85 L-19.85 -14.95 -20.4 -17.15 -19.4 -18.6 -19.2 -18.45 -18.9 -18.45 -18.25 -18.6 -18.05 -17.65 -18.0 -17.5 -17.8 -15.35 -17.3 -14.35 -16.9 -13.8 -17.95 -13.0 M-10.45 -23.15 L-10.1 -22.1 Q-11.4 -20.9 -11.65 -19.8 L-11.7 -19.25 -12.15 -19.55 -14.2 -19.1 -17.25 -18.9 -17.55 -18.85 -17.8 -18.75 -18.8 -18.65 -19.05 -18.9 -18.7 -19.55 -17.75 -20.6 -17.55 -20.7 -12.05 -23.1 -11.15 -23.4 -10.45 -23.15 M-15.95 -16.85 L-15.7 -17.55 Q-14.8 -16.9 -14.35 -15.1 -14.4 -14.7 -14.95 -14.6 -15.75 -15.2 -15.95 -16.85" fill="#343639" fill-rule="evenodd" stroke="none"/>
      <path d="M-19.2 -18.45 L-18.95 -18.6 -18.9 -18.45 -19.2 -18.45 M-17.8 -18.75 L-17.55 -18.85 -16.6 -18.4 -17.8 -18.75 M-18.0 -17.5 L-18.05 -17.65 -17.75 -17.55 -18.0 -17.5" fill="#c7dfff" fill-rule="evenodd" stroke="none"/>
      <path d="M-7.45 7.8 L-8.5 8.5 Q-8.4 8.1 -7.95 7.8 -7.5 7.5 -7.45 7.8" fill="#ffaeae" fill-rule="evenodd" stroke="none"/>
      <path d="M5.75 11.65 Q4.35 11.65 2.4 12.8 L-1.05 14.65 Q3.6 10.25 4.5 8.85 L4.6 8.9 5.5 11.1 5.75 11.65 M-17.65 21.25 Q-16.4 23.25 -16.2 24.4 L-16.1 25.5 Q-16.15 26.0 -16.6 26.15 -20.9 25.25 -21.05 24.3 L-21.05 23.25 -19.1 24.9 -18.95 24.2 Q-19.2 22.8 -18.7 22.25 -17.9 21.75 -17.65 21.25" fill="#7f7c81" fill-rule="evenodd" stroke="none"/>
      <path d="M11.4 11.5 L10.3 10.7 10.4 10.7 Q11.1 10.6 11.4 11.5 M-2.55 15.5 Q-3.3 15.05 -3.8 13.15 L-2.55 15.5 M-3.85 12.85 L-8.35 15.95 -4.45 10.9 -3.85 12.85" fill="#730031" fill-rule="evenodd" stroke="none"/>
      <path d="M16.2 7.05 Q13.95 8.4 13.4 8.25 L13.45 7.35 13.05 5.95 13.0 4.6 15.8 6.2 16.2 7.05" fill="#c3c3c3" fill-rule="evenodd" stroke="none"/>
      <path d="M7.7 9.45 L7.65 9.55 8.0 10.2 7.35 9.5 6.5 11.45 6.15 11.6 5.75 11.65 5.5 11.1 6.5 9.5 4.6 8.9 4.5 8.85 3.55 8.6 4.65 6.65 0.55 5.3 -0.35 5.6 Q2.75 4.35 3.95 4.15 8.05 3.35 7.7 9.45 M-0.75 0.0 L4.15 0.05 5.8 0.3 2.55 2.1 -0.6 3.75 0.15 0.4 -0.75 0.0" fill="#b1b1b1" fill-rule="evenodd" stroke="none"/>
      <path d="M5.5 11.1 L4.6 8.9 6.5 9.5 5.5 11.1" fill="#e0dde2" fill-rule="evenodd" stroke="none"/>
      <path d="M13.85 9.45 L12.45 9.45 13.35 12.95 7.35 9.95 6.85 11.95 6.3 12.5 4.35 11.5 -4.05 18.3 -4.75 13.15 -7.7 15.9 -15.25 20.0 -18.6 24.85 Q-19.8 23.15 -18.75 22.4 L-17.9 21.3 -17.0 19.4 -16.6 18.35 -16.5 18.3 Q-14.85 16.4 -12.3 14.7 L-13.6 18.7 -10.75 15.9 -10.8 16.1 Q-10.7 16.55 -10.2 16.45 -9.3 16.3 -6.35 12.7 L-4.45 10.05 -2.45 12.9 -1.8 14.6 4.25 11.5 3.85 11.35 5.6 10.7 5.8 11.2 5.9 11.2 6.5 10.35 7.0 8.35 11.85 11.3 10.65 6.15 13.6 8.4 16.4 6.5 20.5 8.8 16.55 7.6 13.85 9.45 M10.15 -7.4 Q11.0 -8.35 13.15 -7.85 L16.35 -7.4 Q0.05 -2.65 -9.1 1.9 -12.65 4.3 -16.55 6.2 L-18.3 6.9 Q-14.05 2.75 -9.65 -0.5 L-7.95 -1.3 -2.6 -2.25 Q0.9 -2.65 5.05 -4.5 9.15 -6.4 10.15 -7.4 M8.5 -16.8 L6.7 -16.45 Q3.25 -14.6 -0.25 -13.25 -8.25 -11.4 -10.0 -10.3 -11.75 -9.3 -14.4 -8.15 -17.05 -7.0 -19.0 -5.4 L-21.35 -3.7 Q-23.3 -1.9 -24.6 -1.1 L-24.85 -1.15 -24.8 -0.75 -24.6 -0.2 Q-24.45 0.35 -25.85 2.35 -24.35 3.25 -22.9 4.1 L-23.05 4.9 -23.3 6.5 -23.05 6.85 Q-23.55 7.35 -23.45 7.6 L-23.1 7.85 -21.3 6.8 -18.8 6.9 -22.85 9.1 -23.5 9.65 Q-24.0 10.2 -21.75 14.5 -20.9 13.15 -20.8 14.8 L-21.35 15.3 -21.75 15.95 -21.85 16.15 -21.75 16.4 -21.45 16.4 -20.75 15.75 -20.9 17.1 Q-16.2 12.7 -10.9 9.4 L-7.85 7.6 Q2.15 2.0 13.95 -0.3 L20.15 -1.75 20.25 -1.85 20.55 -1.95 Q21.1 -1.6 21.4 -1.7 L21.75 -2.05 20.5 -2.4 Q20.65 -3.2 19.9 -4.5 L17.55 -8.1 16.55 -7.7 16.4 -8.4 Q16.85 -8.85 16.75 -9.1 16.7 -9.55 16.15 -9.3 14.9 -13.55 11.25 -16.8 L8.5 -16.8 M3.25 -20.9 L2.55 -19.95 1.25 -19.5 -1.0 -18.8 -4.2 -18.25 Q-6.4 -17.85 -9.4 -16.3 L-12.7 -14.6 Q-15.9 -13.35 -18.45 -11.15 L-20.15 -10.55 Q-23.0 -10.0 -23.45 -8.85 L-24.35 -8.75 Q-24.35 -6.95 -24.9 -3.35 L-23.6 -3.5 -20.6 -4.45 Q-16.8 -7.6 -13.6 -9.05 L-7.15 -12.3 Q-4.35 -13.75 -0.15 -15.05 L7.95 -17.8 8.35 -17.95 Q6.3 -22.9 3.25 -20.9 M10.15 -17.65 L11.7 -18.1 Q13.15 -18.45 15.4 -14.9 17.6 -11.45 18.0 -10.3 L18.6 -8.85 18.7 -8.55 18.7 -8.25 Q20.15 -10.55 21.9 -6.7 L24.25 -1.5 26.25 2.35 Q26.5 3.95 23.6 5.35 L22.4 5.9 Q21.6 6.3 21.5 6.75 L21.4 6.75 21.05 8.05 20.95 8.75 20.45 5.45 18.85 1.8 21.9 5.35 23.75 2.2 Q22.55 -2.2 19.5 -1.35 L20.0 -1.6 13.8 0.25 Q-7.25 6.6 -14.1 11.9 L-21.05 17.45 -20.9 18.15 -20.35 19.65 Q-20.25 20.1 -21.0 24.0 -16.85 26.75 -15.8 25.25 L-16.3 26.35 Q-15.3 26.05 -14.95 27.3 -14.65 28.55 -19.1 27.35 -23.6 26.15 -22.75 24.85 -21.95 23.55 -21.5 22.2 -21.1 20.8 -22.45 20.55 -21.6 18.35 -22.6 18.0 -22.45 15.6 -24.95 12.3 -27.55 8.95 -24.95 8.05 -24.0 7.1 -25.25 3.55 L-25.9 2.4 -26.25 2.85 -26.0 2.25 Q-25.25 0.0 -25.7 -1.15 L-26.1 -5.25 Q-26.6 -9.35 -25.75 -9.6 -24.9 -10.5 -24.7 -10.25 L-21.65 -12.35 -21.15 -15.8 -21.3 -16.6 -20.9 -19.6 -14.35 -21.7 -8.8 -24.3 -8.55 -24.3 -8.5 -24.3 -2.4 -27.95 3.35 -21.2 3.3 -20.95 Q4.95 -24.7 7.1 -22.8 9.25 -20.9 10.15 -17.65 M-5.65 -25.3 L-15.7 -20.95 Q-18.85 -19.2 -19.2 -19.1 L-17.55 -19.5 -14.5 -19.7 -14.4 -19.7 -13.55 -18.55 -13.6 -18.1 -13.65 -18.25 -16.0 -18.45 -14.95 -15.0 -6.2 -18.8 -8.0 -21.6 -11.4 -18.9 -11.45 -18.95 -11.55 -19.05 Q-11.55 -19.4 -11.8 -19.45 L-11.8 -19.55 -11.85 -20.3 -8.05 -22.45 -6.9 -24.15 -5.6 -24.25 -6.4 -23.45 -7.6 -21.55 -5.85 -18.65 0.9 -20.6 Q-3.0 -25.55 -4.25 -25.6 -4.25 -25.9 -5.65 -25.3 M-16.8 -18.3 L-19.9 -17.85 -19.9 -17.75 -19.45 -12.15 -15.35 -14.75 -16.8 -18.3" fill="#000000" fill-rule="evenodd" stroke="none"/>
    </g>
    <g id="sprite2">
      <use ffdec:characterId="7" height="39.6" transform="matrix(1.0, 0.0, 0.0, 1.0, 0.0, 0.0)" width="28.75" xlink:href="#shape1"/>
    </g>
    <g id="shape1">
      <path d="M-2.6 -3.95 Q-0.95 2.15 -2.2 7.05 L-2.65 11.55 Q-2.6 15.25 -5.3 18.15 -7.35 20.35 -9.9 19.65 -13.0 18.6 -14.1 14.65 -15.2 10.65 -11.9 8.6 -8.95 8.5 -7.8 10.65 -7.35 11.6 -7.55 12.5 -7.75 13.3 -8.75 13.7 L-9.9 12.75 -10.85 12.9 -11.45 13.6 Q-11.6 14.9 -10.9 15.9 -10.2 16.95 -8.7 17.35 -6.5 15.85 -5.7 10.5 L-5.15 6.3 -5.45 -0.2 Q-7.7 -11.95 -3.85 -14.95 -0.15 -17.8 4.6 -19.05 14.05 -21.05 14.35 -17.85 L13.75 -17.15 12.4 -17.0 12.45 -17.15 12.2 -16.95 10.95 -16.9 10.9 -17.0 10.65 -17.1 10.35 -17.1 10.4 -17.2 9.55 -17.55 12.1 -17.3 Q7.55 -20.0 2.4 -17.7 -2.55 -15.45 -3.5 -10.85 -4.3 -6.85 -4.35 -2.85 -4.4 1.7 -5.1 6.4 L-5.15 6.7 -4.95 11.6 Q-3.0 7.05 -3.05 2.4 L-2.6 -3.95 M1.05 -15.15 L6.85 -14.65 7.45 -14.1 8.7 -13.5 9.25 -10.85 8.95 -9.7 7.0 -9.65 5.45 -12.35 7.85 -10.3 7.05 -12.7 Q3.95 -14.65 0.05 -13.1 -0.6 -12.75 -1.3 -12.5 L1.05 -15.15 M-8.2 10.25 Q-8.95 9.45 -10.1 9.25 L-10.5 9.4 -10.95 9.55 -11.1 9.9 Q-10.2 10.7 -8.55 10.9 -8.5 11.05 -8.3 11.0 -7.85 10.7 -8.2 10.25 M-11.25 18.25 L-10.25 18.55 Q-3.85 19.15 -3.9 13.45 -4.85 18.4 -9.8 17.75 -12.6 17.45 -13.05 14.8 -13.0 17.05 -11.25 18.25" fill="#000000" fill-rule="evenodd" stroke="none"/>
      <path d="M9.55 -17.55 Q6.05 -17.4 2.75 -15.85 L1.05 -15.15 -1.3 -12.5 Q-0.6 -12.75 0.05 -13.1 3.95 -14.65 7.05 -12.7 L7.85 -10.3 5.45 -12.35 3.5 -12.65 Q2.45 -12.7 -0.15 -11.35 -2.85 -10.05 -2.6 -3.95 L-3.05 2.4 Q-3.0 7.05 -4.95 11.6 L-5.15 6.7 -5.1 6.4 Q-4.4 1.7 -4.35 -2.85 -4.3 -6.85 -3.5 -10.85 -2.55 -15.45 2.4 -17.7 7.55 -20.0 12.1 -17.3 L9.55 -17.55" fill="#535353" fill-rule="evenodd" stroke="none"/>
      <path d="M-8.2 10.25 Q-7.85 10.7 -8.3 11.0 -8.5 11.05 -8.55 10.9 -10.2 10.7 -11.1 9.9 L-10.95 9.55 -10.5 9.4 -10.1 9.25 Q-8.95 9.45 -8.2 10.25" fill="#8e8e8e" fill-rule="evenodd" stroke="none"/>
      <path d="M-11.25 18.25 Q-13.0 17.05 -13.05 14.8 -12.6 17.45 -9.8 17.75 -4.85 18.4 -3.9 13.45 -3.85 19.15 -10.25 18.55 L-11.25 18.25" fill="#ffffff" fill-rule="evenodd" stroke="none"/>
    </g>
    <g id="sprite3">
      <use ffdec:characterId="1" height="13.05" transform="matrix(1.0, 0.0, 0.0, 1.0, 0.0, 0.0)" width="23.15" xlink:href="#shape2"/>
    </g>
    <g id="shape2">
      <path d="M0.5 4.35 L0.95 4.2 Q0.8 3.6 2.8 2.7 L4.85 1.95 3.55 2.25 Q2.0 2.2 -1.05 0.85 -4.5 -0.65 -4.95 -2.1 L-3.9 -3.1 Q-1.75 -0.85 2.45 -0.65 L1.15 -1.3 -0.15 -2.25 0.65 -2.6 2.2 -2.95 4.85 -2.4 3.45 -1.0 3.55 -0.95 6.15 -1.5 8.65 -1.9 9.55 -1.75 Q10.25 -1.25 10.25 0.5 10.25 2.25 9.25 2.85 L7.45 3.6 Q8.75 0.75 8.55 0.25 L8.5 0.0 7.85 -0.1 6.65 0.55 4.4 2.65 Q5.35 4.4 7.05 3.8 L7.4 3.7 Q6.95 4.35 4.4 4.75 L2.55 4.95 Q1.35 4.8 0.5 4.35" fill="#afd60e" fill-rule="evenodd" stroke="none"/>
      <path d="M7.45 3.6 L9.25 2.85 Q10.25 2.25 10.25 0.5 10.25 -1.25 9.55 -1.75 L8.65 -1.9 6.15 -1.5 3.55 -0.95 3.45 -1.0 4.85 -2.4 2.2 -2.95 0.65 -2.6 -0.15 -2.25 1.15 -1.3 2.45 -0.65 Q-1.75 -0.85 -3.9 -3.1 L-4.95 -2.1 Q-4.5 -0.65 -1.05 0.85 2.0 2.2 3.55 2.25 L4.85 1.95 2.8 2.7 Q0.8 3.6 0.95 4.2 L0.5 4.35 Q-1.1 4.25 -3.9 1.9 L-8.5 -1.65 -9.6 -2.75 Q-6.7 -3.6 9.35 -5.15 10.7 -3.05 10.7 -1.2 10.7 1.6 8.8 3.8 6.7 6.25 4.4 4.75 6.95 4.35 7.4 3.7 L7.45 3.6" fill="#385b19" fill-rule="evenodd" stroke="none"/>
      <path d="M7.4 3.7 L7.05 3.8 Q5.35 4.4 4.4 2.65 L6.65 0.55 7.85 -0.1 8.5 0.0 8.55 0.25 Q8.75 0.75 7.45 3.6 L7.4 3.7" fill="#fffed4" fill-rule="evenodd" stroke="none"/>
      <path d="M1.8 -5.35 Q3.0 -4.75 4.85 -4.75 5.9 -4.75 6.85 -5.7 9.05 -7.65 10.55 -5.05 13.2 -1.15 9.25 3.55 5.35 8.15 -0.05 5.55 -2.5 3.75 -4.55 1.4 -7.6 -2.0 -11.55 -2.4 L-8.15 -3.1 -6.85 -2.4 Q-5.95 -1.8 -5.2 -0.95 -2.8 1.8 -0.05 3.2 L3.9 4.35 Q9.65 4.2 9.85 -1.3 L9.7 -2.3 Q7.9 -7.0 5.5 -3.25 L4.4 -1.85 Q2.4 1.0 -0.05 -0.45 -1.45 -1.3 -2.05 -3.15 L-0.05 -1.65 Q1.95 -1.15 4.6 -3.1 L2.65 -3.3 -0.05 -4.4 -1.2 -4.7 1.8 -5.35" fill="#000000" fill-rule="evenodd" stroke="none"/>
    </g>
    <g id="sprite4">
      <use ffdec:characterId="5" height="18.1" transform="matrix(1.0, 0.0, 0.0, 1.0, 0.0, 0.0)" width="16.6" xlink:href="#shape3"/>
    </g>
    <g id="shape3">
      <path d="M1.35 -6.7 L1.85 -6.5 2.05 -6.1 1.85 -5.65 1.35 -5.5 0.85 -5.65 0.65 -6.1 0.85 -6.5 1.35 -6.7 M-4.55 -3.25 L-4.25 -4.5 -3.35 -5.8 -2.9 -6.3 0.05 -6.8 Q-1.55 -6.4 -3.15 -3.2 L-4.05 -0.15 -4.65 -1.85 -4.55 -3.25 M4.75 4.0 Q5.0 4.55 5.9 2.75 L6.9 0.4 Q7.45 1.25 7.45 2.55 7.1 4.25 5.7 5.8 L4.85 5.3 4.3 4.7 4.75 4.0 M-3.1 -8.3 L-2.55 -8.25 -2.65 -8.05 -4.1 -6.0 Q-5.35 -4.15 -6.1 -2.3 L-6.15 -2.6 -6.4 -3.05 -6.5 -3.8 Q-6.5 -5.35 -5.35 -6.85 -4.2 -8.3 -3.1 -8.3" fill="#ffffff" fill-rule="evenodd" stroke="none"/>
      <path d="M1.35 -6.7 L0.85 -6.5 0.65 -6.1 0.85 -5.65 1.35 -5.5 1.85 -5.65 2.05 -6.1 1.85 -6.5 1.35 -6.7 M-2.65 -7.3 L0.1 -7.95 Q0.7 -7.95 2.25 -6.4 L2.35 -6.4 5.35 -4.25 Q5.4 -1.8 4.2 0.1 3.0 1.95 1.25 2.05 -0.5 2.15 -1.8 0.4 -3.1 -1.35 -3.15 -3.2 -1.55 -6.4 0.05 -6.8 L-2.9 -6.3 -2.65 -7.3 M0.9 -1.0 L0.9 0.75 3.35 0.75 3.35 -1.0 0.9 -1.0" fill="#c4c9a9" fill-rule="evenodd" stroke="none"/>
      <path d="M0.9 -1.0 L3.35 -1.0 3.35 0.75 0.9 0.75 0.9 -1.0" fill="#ff0000" fill-rule="evenodd" stroke="none"/>
      <path d="M5.35 -4.25 Q5.7 -2.5 5.65 -0.75 L4.4 2.05 Q3.8 3.2 0.3 3.05 0.55 5.35 3.35 4.15 1.6 5.7 0.6 5.7 0.0 5.7 -2.35 3.75 -5.1 1.4 -5.1 -0.6 -5.1 -2.0 -4.75 -2.9 L-4.55 -3.25 -4.65 -1.85 -4.05 -0.15 -3.15 -3.2 Q-3.1 -1.35 -1.8 0.4 -0.5 2.15 1.25 2.05 3.0 1.95 4.2 0.1 5.4 -1.8 5.35 -4.25" fill="#838076" fill-rule="evenodd" stroke="none"/>
      <path d="M-3.35 -5.8 L-2.65 -7.3 -2.9 -6.3 -3.35 -5.8" fill="#918d7e" fill-rule="evenodd" stroke="none"/>
      <path d="M5.65 -0.75 L5.0 1.6 4.05 3.45 3.35 4.15 Q0.55 5.35 0.3 3.05 3.8 3.2 4.4 2.05 L5.65 -0.75 M4.75 4.0 L4.3 4.7 4.85 5.3 5.7 5.8 Q4.0 6.85 3.25 6.85 2.2 6.85 1.75 6.0 1.8 5.8 2.9 5.1 L4.75 4.0" fill="#c3c3c3" fill-rule="evenodd" stroke="none"/>
      <path d="M-8.2 -2.25 L-7.7 -4.25 Q-7.35 -5.9 -6.65 -7.15 -6.05 -8.45 -3.2 -9.05 -5.05 -7.95 -5.75 -6.7 -6.75 -5.05 -6.5 -2.3 L-6.55 -0.15 Q-7.85 -0.45 -8.1 -1.1 -8.45 -1.8 -8.2 -2.25 M8.3 0.35 Q8.4 1.3 7.85 2.1 L7.5 3.05 7.1 4.6 6.35 7.6 Q5.6 9.5 4.3 8.95 2.95 8.3 2.1 8.5 0.25 8.7 -0.95 7.05 L0.2 7.25 1.95 7.15 Q3.7 6.6 5.4 5.55 L6.15 4.85 6.65 3.95 7.45 1.5 Q7.8 0.65 8.25 -0.05 L8.3 0.35 M5.0 -2.45 L4.55 -4.15 Q3.95 -5.8 2.05 -6.65 L-0.6 -7.35 Q-1.5 -7.55 -2.3 -6.95 -3.5 -6.35 -4.2 -5.3 -5.35 -3.65 -5.5 -1.75 L-5.15 -0.65 Q-4.6 1.4 -3.05 2.85 L-1.05 4.25 Q0.6 5.15 2.45 4.25 3.6 3.75 4.15 2.8 4.6 2.15 4.65 1.5 L5.0 -2.45 M4.0 -1.8 L3.9 -0.4 Q3.8 0.65 3.15 1.45 L0.7 1.3 0.05 0.55 Q-0.3 -0.1 -0.15 -0.85 0.5 -3.2 3.3 -3.0 L3.8 -2.65 4.0 -2.05 4.0 -1.8 M2.15 -1.55 L1.85 -1.4 1.65 -1.15 1.15 -0.1 2.05 1.2 2.85 1.05 2.75 -0.2 2.05 -0.05 1.75 -0.4 Q1.65 -0.5 1.7 -0.65 L2.75 -0.75 2.65 -1.2 2.45 -1.4 2.15 -1.55 M2.6 -8.2 L3.95 -7.3 5.7 -5.7 Q6.25 -5.3 6.4 -4.65 L7.0 -1.3 Q7.2 0.7 6.4 2.35 L5.2 4.15 2.75 5.7 -2.15 5.45 -4.2 3.85 -5.1 2.35 -5.7 0.15 Q-5.85 -1.1 -5.65 -2.2 -5.4 -4.0 -4.7 -5.45 L-4.0 -6.7 Q-3.15 -8.45 -1.25 -8.8 0.75 -9.15 2.6 -8.2" fill="#000000" fill-rule="evenodd" stroke="none"/>
    </g>
  </defs>
</svg>
