<?xml version="1.0" encoding="UTF-8" standalone="no"?>
<svg xmlns:ffdec="https://www.free-decompiler.com/flash" xmlns:xlink="http://www.w3.org/1999/xlink" ffdec:objectType="frame" height="53.4px" width="94.15px" xmlns="http://www.w3.org/2000/svg">
  <g transform="matrix(1.0, 0.0, 0.0, 1.0, 39.35, 57.7)">
    <use ffdec:characterId="16" height="51.15" transform="matrix(1.0443, 0.0, 0.0, 1.0443, 7.7, -31.0)" width="90.25" xlink:href="#sprite0"/>
  </g>
  <defs>
    <g id="sprite0">
      <use ffdec:characterId="3" height="27.5" transform="matrix(0.9255, 0.0, 0.0, 1.0, -35.55, 13.5)" width="27.3" xlink:href="#sprite1"/>
      <use ffdec:characterId="3" height="27.5" transform="matrix(-0.9167, 0.0, 0.0, 1.0, 20.25, 13.5)" width="27.3" xlink:href="#sprite1"/>
      <use ffdec:characterId="14" height="44.95" transform="matrix(1.0, 0.0, 0.0, 1.0, 0.0, 0.0)" width="42.0" xlink:href="#shape1"/>
      <use ffdec:characterId="8" height="18.35" transform="matrix(1.0, 0.0, 0.0, 1.0, 18.3, 7.55)" width="18.8" xlink:href="#sprite2"/>
      <use ffdec:characterId="8" height="18.35" transform="matrix(-1.0, 0.0, 0.0, 1.0, -34.7, 7.55)" width="18.8" xlink:href="#sprite2"/>
      <use ffdec:characterId="15" height="30.15" transform="matrix(1.0, 0.0, 0.0, 1.0, 0.0, 0.0)" width="83.15" xlink:href="#shape4"/>
      <use ffdec:characterId="11" height="3.1" transform="matrix(0.4584, 0.0, 0.0, 0.6129, -12.7, 0.3)" width="3.1" xlink:href="#sprite4"/>
      <use ffdec:characterId="11" height="3.1" transform="matrix(0.4584, 0.0, 0.0, 0.6129, -10.8, -0.3)" width="3.1" xlink:href="#sprite4"/>
      <use ffdec:characterId="11" height="3.1" transform="matrix(0.6129, 0.0, 0.0, 0.6129, -9.65, -16.85)" width="3.1" xlink:href="#sprite4"/>
      <use ffdec:characterId="11" height="3.1" transform="matrix(0.6129, 0.0, 0.0, 0.6129, 16.85, -2.65)" width="3.1" xlink:href="#sprite4"/>
      <use ffdec:characterId="11" height="3.1" transform="matrix(0.6129, 0.0, 0.0, 0.6129, -36.35, 4.1)" width="3.1" xlink:href="#sprite4"/>
      <use ffdec:characterId="11" height="3.1" transform="matrix(0.4584, 0.0, 0.0, 0.6129, -30.5, -5.9)" width="3.1" xlink:href="#sprite4"/>
      <use ffdec:characterId="11" height="3.1" transform="matrix(0.4584, 0.0, 0.0, 0.6129, -17.6, -19.3)" width="3.1" xlink:href="#sprite4"/>
      <use ffdec:characterId="11" height="3.1" transform="matrix(0.4584, 0.0, 0.0, 0.6129, -14.4, 16.9)" width="3.1" xlink:href="#sprite4"/>
      <use ffdec:characterId="11" height="3.1" transform="matrix(0.4584, 0.0, 0.0, 0.6129, -35.1, 3.6)" width="3.1" xlink:href="#sprite4"/>
      <use ffdec:characterId="11" height="3.1" transform="matrix(0.4584, 0.0, 0.0, 0.6129, 14.8, 5.7)" width="3.1" xlink:href="#sprite4"/>
    </g>
    <g id="sprite1">
      <use ffdec:characterId="2" height="27.5" transform="matrix(1.0, 0.0, 0.0, 1.0, 0.0, 0.0)" width="27.3" xlink:href="#shape0"/>
    </g>
    <g id="shape0">
      <path d="M-4.45 4.65 L-4.6 4.55 -5.15 4.15 -5.65 3.25 -6.95 1.4 -7.05 1.2 -7.1 1.15 -7.75 -0.45 -8.1 -1.45 -8.45 -2.4 -8.7 -3.65 -8.6 -5.15 -8.15 -5.8 -7.55 -6.55 -6.8 -7.05 -5.95 -7.45 -5.0 -7.8 -3.65 -8.7 -2.35 -9.25 Q-1.8 -9.55 -1.2 -9.95 L0.15 -10.65 5.1 -13.65 Q6.7 -14.65 8.5 -15.45 L8.45 -14.6 Q8.45 -10.2 9.6 -7.3 10.05 -6.0 11.45 -3.85 L12.05 -3.1 12.05 -2.2 12.05 -0.65 12.0 0.15 11.95 1.0 12.35 1.7 Q12.65 2.3 12.2 2.45 L11.8 2.4 11.75 2.7 12.15 3.6 11.7 3.5 11.65 3.6 11.65 4.45 11.3 6.65 11.0 6.6 10.9 6.6 10.55 6.4 10.7 6.35 10.9 6.2 11.2 5.8 11.45 5.05 11.6 3.6 9.0 2.7 8.45 2.55 8.4 2.7 8.4 2.8 8.25 2.95 8.05 3.6 8.0 3.7 Q7.6 1.8 6.35 0.3 L7.3 0.7 9.8 0.05 9.85 -1.55 Q9.45 -4.15 6.65 -4.95 L0.9 -6.1 1.3 -4.9 Q2.25 -2.55 4.15 -1.05 L2.25 -1.65 Q0.0 -2.25 -2.1 -3.2 L-1.45 -1.8 Q-0.65 0.05 0.65 1.75 -0.9 0.45 -2.6 -0.4 L-7.55 -2.95 -6.6 0.65 Q-5.85 2.85 -4.45 4.65 M5.1 11.2 L4.6 11.1 4.25 10.9 4.75 10.85 5.1 10.6 5.1 10.5 5.4 9.7 5.45 9.55 5.55 9.55 5.1 11.15 5.1 11.2 M0.4 8.95 L-0.05 8.75 -2.15 7.5 -2.75 6.7 -3.2 6.15 -0.6 8.2 -0.25 8.4 -0.15 8.55 -0.1 8.55 0.0 8.65 0.35 8.9 0.4 8.95 M7.1 5.6 L7.15 5.25 7.3 5.25 7.3 5.3 7.1 5.6 M5.35 9.2 L5.65 9.25 5.65 9.3 5.35 9.2 M5.75 9.05 L5.7 9.05 5.75 9.05" fill="#1a1a1a" fill-rule="evenodd" stroke="none"/>
      <path d="M-3.2 6.15 L-4.45 4.65 Q-5.85 2.85 -6.6 0.65 L-7.55 -2.95 -2.6 -0.4 Q-0.9 0.45 0.65 1.75 -0.65 0.05 -1.45 -1.8 L-2.1 -3.2 Q0.0 -2.25 2.25 -1.65 L4.15 -1.05 Q2.25 -2.55 1.3 -4.9 L0.9 -6.1 6.65 -4.95 Q9.45 -4.15 9.85 -1.55 L9.8 0.05 7.3 0.7 6.35 0.3 Q7.6 1.8 8.0 3.7 L7.7 4.3 7.15 5.25 7.1 5.6 Q6.5 6.5 6.2 7.5 L5.75 9.05 5.65 9.25 5.35 9.2 Q3.2 8.6 1.3 7.35 L-2.35 4.6 -5.3 1.35 -5.75 0.7 Q-4.35 4.85 -1.15 7.7 L-0.6 8.2 -3.2 6.15 M9.2 -0.2 Q7.35 -1.6 4.75 -2.45 L5.75 -1.45 Q7.2 -0.1 9.1 -0.1 L9.2 -0.2 M-1.2 -2.45 L-0.35 -0.75 Q0.85 1.25 2.65 2.85 L3.3 3.4 Q4.55 4.25 6.35 4.1 L-1.2 -2.45 M5.75 9.05 L5.7 9.05 5.75 9.05" fill="#444444" fill-rule="evenodd" stroke="none"/>
      <path d="M9.7 6.25 L9.5 6.2 9.1 6.2 9.1 6.25 9.05 6.3 8.8 6.45 8.55 6.8 6.1 10.75 5.75 11.35 5.4 11.5 Q5.1 11.5 5.1 11.2 L5.1 11.15 5.55 9.55 5.45 9.55 5.4 9.7 5.1 10.5 5.1 10.6 4.75 10.85 4.25 10.9 Q3.7 10.6 3.0 10.25 L0.4 8.95 0.35 8.9 0.0 8.65 -0.1 8.55 -0.15 8.55 -0.25 8.4 -0.6 8.2 -1.15 7.7 Q-4.35 4.85 -5.75 0.7 L-5.3 1.35 -2.35 4.6 1.3 7.35 Q3.2 8.6 5.35 9.2 L5.65 9.3 5.65 9.25 5.75 9.05 6.2 7.5 Q6.5 6.5 7.1 5.6 L7.3 5.3 9.8 6.2 9.7 6.25 M9.2 -0.2 L9.1 -0.1 Q7.2 -0.1 5.75 -1.45 L4.75 -2.45 Q7.35 -1.6 9.2 -0.2 M-1.2 -2.45 L6.35 4.1 Q4.55 4.25 3.3 3.4 L2.65 2.85 Q0.85 1.25 -0.35 -0.75 L-1.2 -2.45" fill="#666666" fill-rule="evenodd" stroke="none"/>
      <path d="M10.9 6.6 L9.7 6.25 9.8 6.2 7.3 5.3 7.3 5.25 7.15 5.25 7.7 4.3 8.0 3.7 8.05 3.6 8.25 2.95 8.4 2.8 8.4 2.7 8.45 2.55 9.0 2.7 11.6 3.6 11.45 5.05 11.2 5.8 10.9 6.2 10.5 6.35 10.55 6.4 10.9 6.6 M9.05 6.3 L9.0 6.4 8.8 6.45 9.05 6.3 M8.55 6.8 L8.1 8.7 7.8 8.8 7.65 9.05 7.7 9.3 7.85 9.4 7.75 10.1 Q7.5 9.95 7.3 10.4 L7.15 11.45 7.1 11.7 5.75 11.35 6.1 10.75 8.55 6.8" fill="#eeeeee" fill-rule="evenodd" stroke="none"/>
      <path d="M10.9 6.2 L10.7 6.35 10.55 6.4 10.5 6.35 10.9 6.2" fill="#e23647" fill-rule="evenodd" stroke="none"/>
      <path d="M0.9 -11.55 L3.55 -12.5 Q-1.15 -9.85 -1.9 -9.05 -2.7 -8.25 -2.85 -7.35 -3.0 -6.4 -2.1 -4.3 -3.5 -5.6 -3.65 -7.6 L-7.45 -5.4 -8.25 -4.3 Q-8.5 -3.0 -8.0 -1.85 -4.15 7.65 4.3 10.35 L6.55 6.25 5.4 10.95 6.75 11.2 8.55 5.75 10.0 6.3 Q10.9 4.8 11.1 3.6 11.5 1.85 11.9 -3.55 L16.75 0.05 16.7 0.1 16.95 0.3 Q12.1 6.7 12.05 7.0 L9.15 6.15 7.2 12.05 7.1 12.05 6.9 12.0 6.8 11.95 6.4 11.9 Q2.55 11.15 -0.45 8.95 -5.15 5.55 -7.95 0.15 -10.8 -5.15 -10.3 -6.35 -7.0 -7.75 -4.45 -8.95 -1.4 -10.3 0.9 -11.55 M10.4 -1.4 L11.3 -4.15 11.4 -4.1 9.7 0.65 Q8.55 3.75 7.2 5.4 L7.1 5.4 2.6 3.0 Q4.65 4.05 6.85 4.35 L7.2 4.0 Q7.8 3.25 7.7 2.35 7.6 1.1 6.5 0.4 4.85 -0.55 3.35 -1.85 1.35 -3.75 0.7 -6.45 L1.25 -5.05 Q2.2 -2.5 4.75 -1.1 6.8 0.05 8.6 0.1 9.85 0.3 10.4 -1.4" fill="#000000" fill-rule="evenodd" stroke="none"/>
    </g>
    <g id="shape1">
      <path d="M-1.15 -21.55 L0.1 -20.5 0.9 -20.0 Q1.15 -19.05 2.05 -18.3 6.45 -14.4 8.45 -8.9 9.45 -6.1 9.0 -3.2 L10.1 0.75 Q10.65 2.65 10.4 4.8 L10.7 4.75 13.2 6.25 13.05 6.75 13.35 7.65 11.6 9.05 11.45 9.2 10.85 9.55 10.7 9.65 6.15 12.3 6.1 12.55 6.1 12.65 0.55 16.1 -0.1 16.25 -0.4 16.45 -2.65 17.25 -3.5 17.5 -5.2 18.05 -5.55 18.2 -7.3 18.15 -7.3 18.05 -7.25 16.95 Q-7.2 14.95 -7.4 12.9 L-7.6 12.0 -10.0 11.7 -9.7 11.7 -6.9 11.7 -4.45 11.45 Q-3.6 11.3 -2.9 10.7 L-2.75 10.35 -2.7 9.9 -2.7 9.55 -5.5 9.6 -10.55 9.45 -13.85 8.95 -14.95 8.75 -16.95 8.15 -19.45 7.3 Q-22.15 6.2 -24.2 4.1 L-23.9 4.9 -22.8 7.0 Q-21.9 8.5 -20.25 9.4 L-27.35 5.8 -27.5 7.4 -26.65 8.3 -28.1 8.25 -28.2 8.05 -28.15 6.65 -28.1 5.8 -28.15 5.2 -27.85 2.2 -27.7 1.15 -26.7 -2.65 Q-26.05 -2.15 -25.1 -2.0 L-24.25 -2.0 Q-24.05 0.0 -23.3 1.8 L-22.05 4.0 -20.4 5.75 Q-19.05 6.8 -17.7 7.35 L-15.5 8.0 -12.25 8.5 -9.55 9.05 -6.1 9.35 Q-4.15 9.15 -2.55 8.45 -1.1 7.7 -0.15 6.4 0.7 5.25 1.0 4.0 L1.85 0.3 2.25 -3.55 2.25 -7.4 2.05 -9.4 1.7 -11.45 0.95 -15.05 0.15 -18.1 Q-0.3 -19.7 -1.1 -21.2 L-1.15 -21.25 -1.15 -21.55 M4.25 -14.1 L2.35 -16.9 3.65 -13.25 4.65 -10.0 5.5 -6.75 6.35 -3.45 7.05 -0.25 7.85 2.95 8.35 5.4 8.5 4.45 8.6 -0.45 Q8.55 -2.85 8.05 -5.2 L7.15 -8.3 5.85 -11.25 4.25 -14.1" fill="#151515" fill-rule="evenodd" stroke="none"/>
      <path d="M-1.15 -21.55 L-1.15 -21.25 -1.1 -21.2 Q-0.3 -19.7 0.15 -18.1 L0.95 -15.05 1.7 -11.45 2.05 -9.4 2.25 -7.4 2.25 -3.55 1.85 0.3 1.0 4.0 Q0.7 5.25 -0.15 6.4 -1.1 7.7 -2.55 8.45 -4.15 9.15 -6.1 9.35 L-9.55 9.05 -12.25 8.5 -15.5 8.0 -17.7 7.35 Q-19.05 6.8 -20.4 5.75 L-22.05 4.0 -23.3 1.8 Q-24.05 0.0 -24.25 -2.0 L-23.85 -1.9 -22.35 -1.2 Q-22.7 -4.9 -22.35 -8.5 -22.15 -10.8 -21.45 -13.0 L-19.85 -16.65 -18.85 -18.15 -18.15 -18.85 -17.6 -19.5 -16.2 -20.75 -14.9 -21.65 -12.25 -22.6 -9.5 -23.25 -8.65 -24.85 -7.65 -25.1 -6.5 -24.1 -5.0 -23.75 -3.85 -23.2 -3.0 -22.6 -2.25 -22.15 -2.2 -22.25 -1.7 -22.3 Q-1.25 -22.1 -1.15 -21.55 M-28.1 8.25 L-26.65 8.3 -27.5 7.4 -27.35 5.8 -20.25 9.4 Q-21.9 8.5 -22.8 7.0 L-23.9 4.9 -24.2 4.1 Q-22.15 6.2 -19.45 7.3 L-16.95 8.15 -14.95 8.75 -13.85 8.95 -10.55 9.45 -5.5 9.6 -2.7 9.55 -2.7 9.9 -2.75 10.35 -2.9 10.7 Q-3.6 11.3 -4.45 11.45 L-6.9 11.7 -9.7 11.7 -10.0 11.7 -7.6 12.0 -7.4 12.9 Q-7.2 14.95 -7.25 16.95 L-7.3 18.05 -7.3 18.15 -5.55 18.2 -5.2 18.05 -4.85 18.05 -3.5 17.5 -2.65 17.25 -0.4 16.45 -0.1 16.25 0.55 16.1 0.35 16.2 1.3 15.9 2.85 15.1 6.15 13.45 7.75 12.4 8.15 12.1 8.55 11.8 8.8 11.65 9.65 10.9 9.75 10.8 Q10.25 10.4 10.5 10.35 L10.65 10.0 10.95 9.7 11.0 9.95 Q11.0 10.5 10.1 11.9 L9.0 13.25 Q7.3 15.25 3.5 16.8 L-2.35 18.8 -3.1 18.95 -3.55 19.05 Q-8.25 19.75 -12.3 18.9 L-13.7 18.6 -13.8 18.6 -13.85 18.6 -14.2 18.5 Q-16.25 18.05 -19.3 16.8 -23.9 14.95 -25.4 12.4 L-25.65 11.65 -25.6 10.85 -25.5 10.85 -25.4 11.0 -25.15 10.95 -21.7 13.55 -20.0 14.2 -19.65 14.4 -18.3 15.15 -17.85 15.35 -17.3 15.6 -18.0 15.25 -18.0 15.05 -16.35 15.95 -14.0 16.9 -13.55 16.95 -13.3 17.0 -12.95 17.05 -11.55 17.35 -9.65 17.75 -9.65 17.7 Q-9.45 16.8 -9.4 15.8 -9.4 14.5 -9.55 13.15 L-9.7 12.75 Q-10.3 12.75 -10.45 13.25 -11.15 12.6 -12.0 12.15 L-12.2 12.15 -15.9 11.5 -17.5 11.0 -19.65 10.6 -25.8 9.05 -27.7 8.5 -28.1 8.25 M10.7 9.65 L10.85 9.55 10.9 9.55 10.95 9.65 10.65 9.8 10.65 9.7 10.7 9.65 M4.25 -14.1 L5.85 -11.25 7.15 -8.3 8.05 -5.2 Q8.55 -2.85 8.6 -0.45 L8.5 4.45 8.35 5.4 7.85 2.95 7.05 -0.25 6.35 -3.45 5.5 -6.75 4.65 -10.0 3.65 -13.25 2.35 -16.9 4.25 -14.1 M-7.85 -10.65 L-7.9 -8.2 Q-7.95 -4.6 -8.95 -0.95 L-7.65 -2.2 Q-6.4 -3.35 -5.3 -4.65 -4.25 -5.8 -3.35 -7.1 L-1.85 -9.55 Q-0.8 -11.35 -0.3 -13.05 0.1 -14.6 -0.3 -16.15 -0.7 -17.7 -1.8 -18.85 -3.2 -20.25 -4.8 -21.15 -6.3 -22.0 -8.05 -21.9 L-8.0 -20.65 -7.9 -18.6 -7.8 -14.15 -7.85 -10.65 M-9.65 -18.65 L-9.65 -20.6 -9.65 -21.5 -10.15 -21.9 -11.2 -21.85 -12.25 -21.55 Q-14.05 -20.9 -15.45 -19.75 -16.95 -18.4 -18.0 -16.65 L-18.65 -14.95 -18.9 -13.2 -18.65 -11.4 Q-18.1 -9.5 -17.15 -7.75 -16.2 -5.95 -14.8 -4.5 L-12.75 -2.8 -12.0 -2.35 -11.15 -2.0 -10.3 -1.8 -9.75 -9.95 -9.65 -13.65 -9.65 -18.65 M-17.05 8.45 L-18.9 7.9 -21.85 6.9 -20.5 7.9 -17.7 9.55 -14.65 10.75 -13.2 11.15 -10.1 10.95 -11.3 10.45 -13.8 9.5 -17.05 8.45 M-10.2 18.4 Q-12.8 17.9 -15.3 16.75 L-20.55 14.25 -24.3 12.2 -24.3 12.65 Q-22.3 14.75 -19.9 16.0 -17.2 17.4 -14.4 18.05 L-10.2 18.4" fill="#2b2b2b" fill-rule="evenodd" stroke="none"/>
      <path d="M0.55 16.1 L6.1 12.65 10.65 9.8 10.95 9.65 11.15 9.5 10.95 9.7 10.65 10.0 9.75 10.8 9.65 10.9 8.8 11.65 8.55 11.8 8.15 12.1 6.15 13.45 2.85 15.1 1.3 15.9 0.35 16.2 0.55 16.1 M-20.0 14.2 L-23.15 12.1 -24.1 11.45 -23.75 11.65 Q-23.3 11.85 -22.8 12.2 L-19.1 14.4 -18.95 14.5 -18.0 15.05 -18.0 15.25 -17.3 15.6 -17.85 15.35 -18.3 15.15 -19.65 14.4 -20.0 14.2" fill="#2f2f2f" fill-rule="evenodd" stroke="none"/>
      <path d="M-9.8 -24.5 L-9.25 -25.0 -8.65 -24.85 -9.5 -23.25 -12.25 -22.6 -14.9 -21.65 -12.15 -23.25 -9.8 -24.5" fill="#8c8c8c" fill-rule="evenodd" stroke="none"/>
      <path d="M-21.8 -15.75 L-21.65 -16.05 -20.65 -17.35 -20.65 -17.45 -19.5 -18.65 -18.95 -18.9 -16.9 -20.8 Q-15.25 -22.15 -14.45 -22.3 L-14.45 -22.25 -14.2 -22.45 -13.35 -22.85 -12.15 -23.25 -14.9 -21.65 -16.2 -20.75 -17.6 -19.5 -18.15 -18.85 -18.8 -18.3 -20.9 -15.6 -22.65 -12.8 -23.55 -10.85 -24.3 -8.85 -25.05 -6.9 -25.7 -4.9 -25.2 -7.15 -24.4 -9.9 -23.45 -12.65 -22.6 -14.25 -22.4 -14.5 -22.3 -14.75 -21.8 -15.75 M-7.8 -14.15 L-7.9 -18.6 -7.4 -18.6 -6.3 -16.2 -7.15 -14.35 -7.8 -14.15 M-9.65 -13.65 L-11.9 -13.55 -13.4 -13.7 -14.9 -15.35 -14.4 -17.1 -11.9 -18.7 -9.65 -18.65 -9.65 -13.65 M-19.55 -18.25 L-19.75 -18.0 -19.75 -17.9 -19.55 -18.2 -19.55 -18.25 M-13.55 16.95 L-14.8 16.5 -15.6 16.05 -15.9 15.65 -15.05 15.05 Q-14.1 14.6 -13.35 14.6 -12.3 14.6 -12.3 15.55 L-12.55 16.4 -12.9 16.95 -13.15 17.0 -13.3 17.0 -13.55 16.95 M-16.55 17.15 Q-17.65 17.15 -19.15 16.25 L-20.9 14.9 Q-16.85 15.9 -16.15 17.0 L-16.55 17.15" fill="#e6e6e6" fill-rule="evenodd" stroke="none"/>
      <path d="M-22.3 -14.75 L-22.4 -14.5 -22.6 -14.25 -22.3 -14.75 M-14.2 -22.45 L-13.85 -22.7 -13.35 -22.85 -14.2 -22.45 M-19.55 -18.25 L-19.55 -18.2 -19.75 -17.9 -19.75 -18.0 -19.55 -18.25" fill="#ea2f55" fill-rule="evenodd" stroke="none"/>
      <path d="M-25.15 10.4 L-27.7 8.5 -25.8 9.05 -25.15 10.4 M-3.85 -23.2 L-2.2 -22.25 -2.25 -22.15 -3.0 -22.6 -3.85 -23.2 M-14.1 -22.95 L-11.65 -23.95 -10.7 -24.15 -9.8 -24.5 -12.15 -23.25 -13.35 -22.85 -13.85 -22.7 -14.1 -22.95 M-22.3 -14.75 L-22.6 -14.25 -23.45 -12.65 -24.5 -11.0 -23.1 -13.6 -21.8 -15.75 -22.3 -14.75 M-25.0 -9.65 Q-25.05 -8.55 -25.4 -7.75 L-25.6 -7.3 -25.0 -9.65" fill="#7e121e" fill-rule="evenodd" stroke="none"/>
      <path d="M-24.25 -2.0 L-25.1 -2.0 Q-26.05 -2.15 -26.7 -2.65 L-26.8 -2.9 -26.75 -3.75 -25.6 -7.3 -25.4 -7.75 Q-25.05 -8.55 -25.0 -9.65 L-24.5 -11.0 -23.45 -12.65 -24.4 -9.9 -25.2 -7.15 -25.7 -4.9 -25.05 -6.9 -24.3 -8.85 -23.55 -10.85 -22.65 -12.8 -20.9 -15.6 -18.8 -18.3 -18.15 -18.85 -18.85 -18.15 -19.85 -16.65 -21.45 -13.0 Q-22.15 -10.8 -22.35 -8.5 -22.7 -4.9 -22.35 -1.2 L-23.85 -1.9 -24.25 -2.0 M-24.1 11.45 L-24.85 10.9 -25.15 10.4 -25.8 9.05 -19.65 10.6 -17.5 11.0 -15.9 11.5 -12.2 12.15 -12.0 12.15 Q-11.15 12.6 -10.45 13.25 -10.3 12.75 -9.7 12.75 L-9.55 13.15 Q-9.4 14.5 -9.4 15.8 -9.45 16.8 -9.65 17.7 L-9.65 17.75 -11.55 17.35 -11.5 17.3 -10.65 14.55 -21.85 10.6 -22.8 12.2 Q-23.3 11.85 -23.75 11.65 L-24.1 11.45 M-8.0 -20.65 L-8.05 -21.9 Q-6.3 -22.0 -4.8 -21.15 -3.2 -20.25 -1.8 -18.85 -0.7 -17.7 -0.3 -16.15 0.1 -14.6 -0.3 -13.05 -0.8 -11.35 -1.85 -9.55 L-3.35 -7.1 Q-4.25 -5.8 -5.3 -4.65 -6.4 -3.35 -7.65 -2.2 L-8.95 -0.95 Q-7.95 -4.6 -7.9 -8.2 L-7.85 -10.65 -5.5 -12.55 -4.45 -16.5 -5.8 -19.4 -8.0 -20.65 M-9.65 -20.6 L-10.45 -20.6 -14.55 -19.7 -16.7 -16.65 -16.85 -13.7 -14.8 -10.5 -13.4 -10.05 -9.75 -9.95 -10.3 -1.8 -11.15 -2.0 -12.0 -2.35 -12.75 -2.8 -14.8 -4.5 Q-16.2 -5.95 -17.15 -7.75 -18.1 -9.5 -18.65 -11.4 L-18.9 -13.2 -18.65 -14.95 -18.0 -16.65 Q-16.95 -18.4 -15.45 -19.75 -14.05 -20.9 -12.25 -21.55 L-11.2 -21.85 -10.15 -21.9 -9.65 -21.5 -9.65 -20.6 M-17.05 8.45 L-13.8 9.5 -11.3 10.45 -10.1 10.95 -13.2 11.15 -14.65 10.75 -17.7 9.55 -20.5 7.9 -21.85 6.9 -18.9 7.9 -17.05 8.45" fill="#595959" fill-rule="evenodd" stroke="none"/>
      <path d="M-7.85 -10.65 L-7.8 -14.15 -7.15 -14.35 -6.3 -16.2 -7.4 -18.6 -7.9 -18.6 -8.0 -20.65 -5.8 -19.4 -4.45 -16.5 -5.5 -12.55 -7.85 -10.65 M-9.65 -20.6 L-9.65 -18.65 -11.9 -18.7 -14.4 -17.1 -14.9 -15.35 -13.4 -13.7 -11.9 -13.55 -9.65 -13.65 -9.75 -9.95 -13.4 -10.05 -14.8 -10.5 -16.85 -13.7 -16.7 -16.65 -14.55 -19.7 -10.45 -20.6 -9.65 -20.6 M-13.3 17.0 L-13.15 17.0 -12.9 16.95 -12.55 16.4 -12.3 15.55 Q-12.3 14.6 -13.35 14.6 -14.1 14.6 -15.05 15.05 L-15.9 15.65 -15.6 16.05 -14.8 16.5 -13.55 16.95 -14.0 16.9 -16.35 15.95 -18.0 15.05 -18.95 14.5 -19.1 14.4 -22.8 12.2 -21.85 10.6 -10.65 14.55 -11.5 17.3 -11.55 17.35 -12.95 17.05 -13.3 17.0" fill="#b3b3b3" fill-rule="evenodd" stroke="none"/>
      <path d="M-28.15 5.2 L-28.1 5.8 -28.15 6.65 -28.15 5.2 M-19.5 -18.65 L-19.5 -18.7 -18.2 -20.2 Q-16.75 -21.55 -15.0 -22.4 L-14.5 -22.7 -14.45 -22.8 -14.1 -22.95 -13.85 -22.7 -14.2 -22.45 -14.45 -22.25 -14.45 -22.3 Q-15.25 -22.15 -16.9 -20.8 L-18.95 -18.9 -19.5 -18.65" fill="#a41726" fill-rule="evenodd" stroke="none"/>
      <path d="M-10.2 18.4 L-14.4 18.05 Q-17.2 17.4 -19.9 16.0 -22.3 14.75 -24.3 12.65 L-24.3 12.2 -20.55 14.25 -15.3 16.75 Q-12.8 17.9 -10.2 18.4 M-16.55 17.15 L-16.15 17.0 Q-16.85 15.9 -20.9 14.9 L-19.15 16.25 Q-17.65 17.15 -16.55 17.15" fill="#818181" fill-rule="evenodd" stroke="none"/>
      <path d="M3.05 9.9 L2.65 10.2 Q0.45 11.85 -1.95 12.55 -4.45 13.4 -6.95 13.55 L-12.0 12.95 Q-14.75 12.25 -17.4 10.95 L-19.55 9.8 Q-17.6 10.75 -14.7 11.3 L-7.65 11.9 0.15 11.1 Q1.85 10.65 3.05 9.9 M3.95 -19.4 L4.15 -19.15 Q10.25 -12.45 12.55 -0.8 L13.35 5.25 13.45 8.35 Q11.7 10.95 0.7 16.2 -4.1 18.3 -6.9 18.4 L-7.7 18.4 Q-18.2 17.2 -28.5 9.05 L-28.55 7.0 -28.5 5.95 Q-28.45 2.5 -27.75 -0.8 L-27.15 -3.45 Q-24.85 -13.25 -19.35 -19.15 L-19.1 -19.4 Q-17.55 -21.0 -15.85 -22.1 L-14.95 -22.6 Q-13.25 -23.55 -11.35 -24.0 L-8.55 -25.6 -8.0 -25.4 -5.6 -24.35 Q-0.55 -23.75 3.95 -19.4 M1.85 -18.35 L0.9 -19.4 Q-3.15 -23.15 -6.55 -23.95 L-7.85 -24.85 Q-8.15 -23.6 -8.0 -19.4 L-7.9 -16.55 -7.35 4.25 -7.75 8.5 -1.0 8.0 Q2.2 7.25 4.95 5.4 L6.7 4.15 Q4.75 6.5 1.75 7.6 -1.1 8.75 -4.35 9.05 -8.35 9.5 -12.3 9.0 L-17.4 7.7 Q-19.9 6.95 -22.25 5.8 L-24.65 4.4 Q-21.55 5.85 -18.5 6.9 L-13.65 8.15 -8.65 8.5 -8.75 7.8 -9.0 4.25 Q-9.0 -2.15 -8.6 -9.4 -8.25 -15.7 -8.3 -19.4 L-8.3 -22.25 Q-8.3 -24.55 -8.6 -24.85 -9.5 -24.15 -10.9 -23.6 L-13.15 -22.7 -14.65 -22.1 Q-16.65 -21.15 -18.4 -19.4 L-19.35 -18.35 Q-25.0 -12.25 -26.8 -1.85 -27.8 2.85 -27.55 7.0 L-27.55 7.1 -27.5 7.35 -22.3 12.2 Q-17.2 16.7 -6.45 17.8 5.6 15.75 9.0 7.8 L9.5 6.75 Q9.55 2.45 8.95 -1.85 7.2 -12.25 1.85 -18.35" fill="#000000" fill-rule="evenodd" stroke="none"/>
    </g>
    <g id="sprite2">
      <use ffdec:characterId="5" height="18.35" transform="matrix(1.0, 0.0, 0.0, 1.0, 0.0, 0.0)" width="18.8" xlink:href="#shape2"/>
      <use ffdec:characterId="7" height="2.6" transform="matrix(0.7776, -0.056, 0.0, 0.8603, -3.2, 0.45)" width="2.65" xlink:href="#sprite3"/>
      <use ffdec:characterId="7" height="2.6" transform="matrix(0.7776, -0.056, 0.0, 0.8603, -0.7, -1.15)" width="2.65" xlink:href="#sprite3"/>
      <use ffdec:characterId="7" height="2.6" transform="matrix(0.7776, -0.056, 0.0, 0.8603, -2.1, 2.8)" width="2.65" xlink:href="#sprite3"/>
      <use ffdec:characterId="7" height="2.6" transform="matrix(0.7776, -0.056, 0.0, 0.8603, 0.35, 1.35)" width="2.65" xlink:href="#sprite3"/>
    </g>
    <g id="shape2">
      <path d="M-0.45 -5.5 L-0.45 -5.55 -0.25 -5.7 -0.3 -5.65 -0.45 -5.5" fill="#fa6b88" fill-rule="evenodd" stroke="none"/>
      <path d="M1.0 3.25 L1.05 3.3 -0.25 4.3 0.5 3.5 1.0 3.25" fill="#86131f" fill-rule="evenodd" stroke="none"/>
      <path d="M1.1 -6.6 L1.45 -6.45 Q1.9 -5.4 1.7 -5.15 L1.55 -5.05 0.95 -4.55 0.85 -4.45 0.6 -4.3 -0.15 -3.75 -1.45 -2.7 -1.5 -2.65 -3.3 -1.2 -4.9 -0.45 -5.55 -0.2 -6.45 0.1 -6.55 0.15 -7.7 0.35 -7.85 0.15 -7.95 0.3 -7.95 0.35 -8.5 0.3 Q-9.6 0.7 -10.4 0.7 L-10.9 0.35 -10.0 -0.6 -8.25 -0.95 -7.5 -1.2 -4.6 -2.2 -3.4 -3.2 -1.35 -4.85 -0.45 -5.55 -0.45 -5.5 0.0 -5.85 0.6 -6.3 Q0.25 -5.95 0.7 -6.2 L1.15 -6.4 1.1 -6.6" fill="#ffffff" fill-rule="evenodd" stroke="none"/>
      <path d="M1.7 -5.15 Q1.9 -5.4 1.45 -6.45 L1.1 -6.6 1.05 -6.7 Q1.05 -7.1 1.55 -6.95 L2.0 -6.35 2.0 -6.3 5.45 -5.05 5.45 -4.9 5.4 -4.9 5.2 -3.9 5.15 -3.75 4.9 -2.8 4.25 -0.25 4.25 -0.15 4.2 -0.3 4.95 -3.8 5.05 -3.95 5.0 -4.0 4.7 -4.1 4.7 -4.05 2.45 -4.95 2.35 -4.95 1.7 -5.15" fill="#d9d9d9" fill-rule="evenodd" stroke="none"/>
      <path d="M1.1 -6.6 L1.15 -6.4 0.7 -6.2 Q0.25 -5.95 0.6 -6.3 L0.0 -5.85 -0.45 -5.5 -0.3 -5.65 -0.25 -5.7 -0.45 -5.55 -1.35 -4.85 -3.4 -3.2 -4.6 -2.2 -7.5 -1.2 -7.6 -1.3 -5.15 -2.7 -5.15 -2.75 -4.55 -3.1 -4.5 -3.15 -3.4 -3.9 -3.15 -4.05 Q-2.85 -4.7 -1.35 -5.4 L-0.15 -5.85 0.05 -6.1 Q0.5 -6.55 1.1 -6.6" fill="#8c8c8c" fill-rule="evenodd" stroke="none"/>
      <path d="M-4.9 -0.45 L-3.3 -1.2 -1.5 -2.65 -0.6 -3.3 1.6 2.2 1.45 2.75 1.0 3.25 0.5 3.5 -0.25 4.3 Q-0.45 4.8 -0.95 5.0 L-1.35 5.1 -1.5 5.05 -3.4 2.2 -3.5 2.0 -4.9 -0.45" fill="#cccccc" fill-rule="evenodd" stroke="none"/>
      <path d="M-6.55 0.15 L-6.45 0.1 -5.55 -0.2 -4.9 -0.45 -3.5 2.0 -3.4 2.2 -1.5 5.05 -2.5 6.0 Q-2.9 6.1 -3.6 6.55 L-5.4 3.9 -7.6 0.45 -6.55 0.15 M-1.5 -2.65 L-1.45 -2.7 -0.15 -3.75 0.6 -4.3 0.85 -4.45 0.95 -4.55 1.55 -5.05 1.75 -4.95 1.85 -5.0 4.8 -3.85 4.2 -0.5 3.85 -0.1 Q2.65 1.85 1.05 3.3 L1.0 3.25 1.45 2.75 1.6 2.2 -0.6 -3.3 -1.5 -2.65" fill="#959595" fill-rule="evenodd" stroke="none"/>
      <path d="M-7.95 0.35 L-7.95 0.3 -7.85 0.15 -7.7 0.35 -7.6 0.45 -5.4 3.9 -3.6 6.55 -3.4 6.75 Q-3.6 6.75 -3.7 6.9 L-3.8 6.7 -3.95 6.8 -5.65 8.15 -6.3 8.7 -6.55 8.65 -6.8 8.65 Q-10.15 8.0 -10.15 1.2 L-7.9 0.55 -7.95 0.35" fill="#676767" fill-rule="evenodd" stroke="none"/>
      <path d="M1.5 -6.3 L2.1 -5.15 2.05 -5.1 2.1 -5.1 4.7 -4.05 4.8 -4.05 4.7 -4.1 5.0 -4.0 5.0 -3.95 5.05 -3.95 4.95 -3.8 4.2 -0.3 4.25 -0.15 4.25 -0.25 4.9 -2.8 5.15 -3.75 5.2 -3.9 5.4 -4.9 5.45 -4.9 5.45 -5.05 1.35 -6.55 1.5 -6.3 M3.85 -0.1 L4.2 -0.5 4.8 -3.85 1.85 -5.0 Q-2.75 -0.85 -9.45 1.25 L-5.9 7.55 Q1.05 3.8 3.85 -0.1 M6.8 -5.35 L4.6 1.6 -8.0 10.9 -12.0 -0.75 Q-2.9 -3.65 0.6 -7.45 5.0 -5.85 6.8 -5.35 M1.35 -6.55 Q-3.55 -1.2 -10.85 -0.2 L-5.95 -0.4 Q-2.8 -0.95 1.85 -5.6 1.25 -6.2 1.35 -6.55" fill="#000000" fill-rule="evenodd" stroke="none"/>
    </g>
    <g id="sprite3">
      <use ffdec:characterId="6" height="2.6" transform="matrix(1.0, 0.0, 0.0, 1.0, 0.0, 0.0)" width="2.65" xlink:href="#shape3"/>
    </g>
    <g id="shape3">
      <path d="M-0.25 1.25 L-0.15 1.25 0.65 0.95 0.95 0.1 0.65 -0.7 Q0.3 -1.1 -0.15 -1.1 -0.6 -1.1 -0.95 -0.7 L-0.75 -0.9 Q-0.4 -1.3 0.1 -1.3 0.6 -1.3 1.0 -0.9 1.35 -0.55 1.35 0.0 1.35 0.55 1.0 0.95 0.6 1.3 0.1 1.3 L-0.25 1.25" fill="#250509" fill-rule="evenodd" stroke="none"/>
      <path d="M-0.95 -0.7 Q-0.6 -1.1 -0.15 -1.1 0.3 -1.1 0.65 -0.7 L0.95 0.1 0.65 0.95 -0.15 1.25 -0.25 1.25 -0.95 0.95 -1.3 0.1 Q-1.3 -0.4 -0.95 -0.7" fill="#fef8fa" fill-rule="evenodd" stroke="none"/>
    </g>
    <g id="shape4">
      <path d="M26.95 -11.05 L24.7 -10.0 21.5 -8.55 21.4 -8.55 21.5 -8.6 19.65 -7.9 17.8 -7.05 17.5 -6.9 17.5 -6.85 17.4 -6.8 13.7 -5.5 11.6 -4.8 11.15 -4.7 10.2 -4.5 9.4 -4.3 8.1 -3.95 7.95 -3.95 7.75 -3.95 6.4 -3.55 6.1 -3.45 6.35 -3.5 6.25 -3.4 5.75 -3.2 5.2 -3.2 4.95 -3.15 3.3 -2.75 3.15 -2.7 2.8 -2.7 1.4 -2.35 0.85 -2.2 -0.45 -2.2 0.3 -2.1 -2.6 -1.75 -4.25 -1.55 -4.35 -1.55 -8.7 -1.35 -8.85 -1.35 -11.4 -1.45 -15.2 -1.9 -15.3 -1.9 -15.8 -1.95 -16.45 -2.0 -17.55 -2.2 -21.75 -3.15 -23.7 -3.7 Q-29.6 -5.6 -33.7 -9.1 L-34.25 -9.5 -34.2 -9.5 Q-35.4 -10.5 -36.4 -11.65 L-37.0 -12.3 -37.15 -12.7 -37.3 -12.9 -37.45 -13.25 Q-37.5 -13.7 -37.2 -13.7 L-36.75 -13.3 Q-36.5 -13.4 -36.2 -12.95 L-36.15 -12.85 -33.7 -10.9 Q-30.35 -8.2 -28.8 -7.4 -28.3 -7.45 -27.25 -6.9 L-26.65 -6.6 -25.15 -6.1 Q-24.85 -5.85 -24.2 -5.55 L-22.8 -4.95 -20.1 -4.4 -16.9 -3.95 -14.1 -3.9 -13.8 -3.7 -12.55 -3.35 -10.55 -3.35 -8.55 -3.6 -6.7 -3.55 -4.7 -3.85 Q-4.6 -3.45 -3.9 -3.45 L2.35 -4.45 Q3.3 -4.5 5.15 -5.2 L5.8 -5.45 Q11.8 -6.6 17.9 -9.2 24.55 -12.15 29.35 -13.95 L34.95 -17.25 Q37.8 -19.05 38.75 -19.0 L39.9 -19.35 40.0 -19.1 39.85 -18.55 Q39.9 -18.35 38.45 -17.45 L37.05 -16.75 37.75 -17.0 38.05 -17.05 Q33.9 -14.6 29.9 -12.55 L29.9 -12.7 29.95 -12.85 29.45 -12.65 Q28.95 -12.0 27.8 -11.65 L26.7 -11.2 26.95 -11.05 M8.8 -4.3 L8.35 -4.1 9.0 -4.3 9.1 -4.35 9.0 -4.35 8.8 -4.3 M4.65 -3.6 L7.6 -4.5 12.15 -6.35 12.35 -6.45 4.65 -4.65 -4.25 -3.25 Q-9.35 -2.7 -14.7 -3.4 -21.3 -4.05 -27.65 -6.45 L-27.35 -6.2 -26.0 -5.3 -24.45 -4.4 Q-22.95 -3.6 -21.2 -3.05 L-18.6 -2.45 -15.05 -1.9 -14.65 -1.85 -12.6 -1.75 -12.6 -1.7 -12.55 -1.7 -11.2 -1.6 -9.95 -1.65 -8.9 -1.6 -8.75 -1.6 -7.45 -1.65 -8.25 -1.65 -9.15 -1.65 -9.3 -1.65 -9.85 -1.7 -9.8 -1.75 -9.1 -1.7 -4.35 -1.95 -3.6 -2.0 -2.15 -2.15 Q1.25 -2.7 4.65 -3.6 M15.5 -6.4 L15.4 -6.4 15.25 -6.35 14.8 -6.1 15.5 -6.4 M21.4 -8.55 L21.05 -8.3 20.55 -8.0 20.8 -8.2 21.4 -8.55 M-4.9 -1.8 L-5.7 -1.7 -4.4 -1.8 -2.95 -2.0 -3.25 -2.0 -4.4 -1.9 -4.75 -1.85 -4.9 -1.8" fill="#e1c2a6" fill-rule="evenodd" stroke="none"/>
      <path d="M1.4 -2.35 L2.8 -2.7 3.15 -2.7 3.3 -2.75 4.95 -3.15 5.2 -3.2 5.75 -3.2 6.25 -3.4 6.35 -3.5 6.1 -3.45 6.4 -3.55 7.75 -3.95 7.95 -3.95 8.1 -3.95 9.4 -4.3 10.2 -4.5 11.15 -4.7 11.6 -4.8 13.7 -5.5 17.4 -6.8 17.5 -6.85 17.5 -6.9 17.8 -7.05 19.65 -7.9 21.5 -8.6 21.4 -8.55 21.5 -8.55 24.7 -10.0 26.95 -11.05 29.9 -12.55 Q33.9 -14.6 38.05 -17.05 L42.95 -20.05 36.1 -14.3 36.15 -14.25 37.05 -14.95 36.25 -14.1 36.25 -13.8 35.3 -13.15 34.05 -11.95 32.85 -11.05 Q31.3 -10.35 28.5 -8.55 21.15 -3.3 18.7 -1.9 16.5 -0.6 8.25 2.6 L1.95 4.3 Q-0.05 4.8 -1.15 5.3 L-2.3 5.3 -3.8 5.55 -4.1 5.9 -6.35 5.8 -6.85 6.05 -11.6 5.9 Q-15.2 5.5 -19.4 3.95 -23.5 2.55 -25.95 0.8 -29.7 -1.7 -30.45 -2.65 L-32.6 -4.65 -33.3 -5.85 -34.3 -6.85 Q-37.2 -10.7 -37.2 -11.5 L-37.2 -11.55 -37.25 -11.65 -37.65 -12.6 -37.3 -12.9 -37.15 -12.7 -37.0 -12.3 -37.3 -12.65 -36.7 -11.6 -36.25 -10.8 -33.25 -6.5 -32.8 -5.95 -32.65 -5.75 -32.0 -5.05 -31.4 -4.4 -31.45 -4.4 -30.9 -4.0 -29.2 -2.55 Q-25.4 0.35 -20.3 1.95 L-15.6 3.1 -8.85 3.7 -8.75 3.7 -4.8 3.55 Q0.9 3.0 7.1 1.05 10.8 -0.15 14.6 -1.8 L18.0 -3.4 Q24.7 -6.7 32.0 -11.45 29.9 -10.4 20.9 -7.4 L20.45 -7.25 Q15.05 -5.45 9.85 -4.1 L9.35 -4.0 6.35 -3.3 1.35 -2.3 1.4 -2.35 M21.4 -8.55 L20.8 -8.2 20.55 -8.0 21.05 -8.3 21.4 -8.55" fill="#a27533" fill-rule="evenodd" stroke="none"/>
      <path d="M-37.0 -12.3 L-36.4 -11.65 Q-35.4 -10.5 -34.2 -9.5 L-34.25 -9.5 -33.7 -9.1 Q-29.6 -5.6 -23.7 -3.7 L-21.75 -3.15 -17.55 -2.2 -16.45 -2.0 -15.8 -1.95 -15.3 -1.9 -15.2 -1.9 -11.4 -1.45 -8.85 -1.35 -8.7 -1.35 -4.35 -1.55 -4.25 -1.55 -2.6 -1.75 0.3 -2.1 -0.45 -2.2 0.85 -2.2 1.4 -2.35 1.35 -2.3 6.35 -3.3 9.35 -4.0 9.85 -4.1 Q15.05 -5.45 20.45 -7.25 L20.9 -7.4 Q29.9 -10.4 32.0 -11.45 24.7 -6.7 18.0 -3.4 L14.6 -1.8 Q10.8 -0.15 7.1 1.05 0.9 3.0 -4.8 3.55 L-8.75 3.7 -8.85 3.7 -15.6 3.1 -20.3 1.95 Q-25.4 0.35 -29.2 -2.55 L-30.9 -4.0 -31.45 -4.4 -31.4 -4.4 -32.0 -5.05 -32.65 -5.75 -32.8 -5.95 -33.25 -6.5 -36.25 -10.8 -36.7 -11.6 -37.3 -12.65 -37.0 -12.3 M8.8 -4.3 L9.0 -4.35 9.1 -4.35 9.0 -4.3 8.35 -4.1 8.8 -4.3 M15.5 -6.4 L14.8 -6.1 15.25 -6.35 15.4 -6.4 15.5 -6.4 M-4.9 -1.8 L-4.75 -1.85 -4.4 -1.9 -3.25 -2.0 -2.95 -2.0 -4.4 -1.8 -5.7 -1.7 -4.9 -1.8" fill="#ffc43c" fill-rule="evenodd" stroke="none"/>
      <path d="M4.65 -3.6 Q1.25 -2.7 -2.15 -2.15 L-3.6 -2.0 -4.35 -1.95 -9.1 -1.7 -9.8 -1.75 -9.85 -1.7 -9.3 -1.65 -9.15 -1.65 -8.25 -1.65 -7.45 -1.65 -8.75 -1.6 -8.9 -1.6 -9.95 -1.65 -11.2 -1.6 -12.55 -1.7 -12.6 -1.7 -12.6 -1.75 -14.65 -1.85 -15.05 -1.9 -18.6 -2.45 -21.2 -3.05 Q-22.95 -3.6 -24.45 -4.4 L-26.0 -5.3 -27.35 -6.2 -27.65 -6.45 Q-21.3 -4.05 -14.7 -3.4 -9.35 -2.7 -4.25 -3.25 L4.65 -4.65 12.35 -6.45 12.15 -6.35 7.6 -4.5 4.65 -3.6" fill="#f9f1ec" fill-rule="evenodd" stroke="none"/>
      <path d="M17.3 -7.0 L19.25 -7.75 21.15 -8.55 21.2 -8.55 38.1 -17.25 39.85 -18.3 39.7 -18.25 Q37.1 -16.8 34.2 -15.45 32.3 -14.5 30.25 -13.65 L26.55 -12.1 25.2 -11.55 17.4 -8.55 Q13.05 -6.9 8.9 -5.7 1.7 -3.75 -4.95 -3.15 L-9.35 -3.0 -9.4 -3.0 -9.55 -3.0 Q-16.05 -3.25 -21.3 -4.55 L-23.6 -5.05 Q-26.7 -5.8 -29.05 -7.0 -31.25 -8.05 -32.4 -8.85 L-35.25 -11.0 -37.25 -12.85 -37.3 -12.9 Q-35.65 -10.7 -34.2 -9.5 L-33.8 -9.1 Q-31.25 -7.05 -28.15 -5.5 L-25.95 -4.55 Q-24.05 -3.65 -21.95 -3.0 -24.55 -3.7 -26.75 -4.6 -30.85 -6.35 -33.9 -8.95 L-34.4 -9.35 -34.35 -9.35 -37.45 -12.5 Q-35.65 -9.15 -33.45 -6.35 -24.5 4.75 -10.9 5.55 L-9.1 5.65 -4.65 5.4 Q1.95 4.75 9.05 2.05 13.15 0.45 17.45 -1.8 L17.5 -1.8 21.25 -3.85 Q31.55 -10.0 42.75 -19.9 L41.8 -19.3 40.2 -18.3 38.1 -17.05 28.85 -11.95 Q25.0 -10.0 21.25 -8.4 L17.4 -6.75 Q13.1 -5.1 8.9 -3.9 5.25 -2.9 1.8 -2.25 L-4.5 -1.4 -8.9 -1.2 -9.05 -1.2 -16.65 -1.85 -11.8 -1.6 -9.1 -1.45 -8.95 -1.45 -4.55 -1.65 4.1 -3.0 8.8 -4.15 Q13.0 -5.4 17.3 -7.0 M8.65 -6.4 Q12.75 -7.55 17.1 -9.2 L20.95 -10.7 22.0 -11.1 Q31.35 -15.25 41.6 -21.65 L45.0 -23.8 45.15 -20.95 Q32.8 -9.85 21.7 -3.25 L17.85 -1.15 Q13.45 1.1 9.35 2.75 2.15 5.4 -4.5 6.1 L-9.0 6.35 -9.05 6.35 -10.85 6.25 Q-24.85 5.35 -33.95 -5.9 -35.75 -8.2 -37.55 -11.8 L-37.6 -11.9 -37.65 -12.1 -37.7 -13.2 -38.0 -15.55 Q-37.4 -14.4 -31.85 -9.8 -28.25 -6.8 -22.0 -5.25 -16.75 -3.95 -9.55 -3.7 L-9.4 -3.7 -5.1 -3.85 Q1.45 -4.4 8.65 -6.4 M-32.15 -9.25 L-32.25 -9.35 -32.35 -9.35 -32.15 -9.25" fill="#000000" fill-rule="evenodd" stroke="none"/>
    </g>
    <g id="sprite4">
      <use ffdec:characterId="10" height="3.1" transform="matrix(1.0, 0.0, 0.0, 1.0, 0.0, 0.0)" width="3.1" xlink:href="#shape5"/>
    </g>
    <g id="shape5">
      <path d="M0.0 -1.55 Q0.65 -1.55 1.1 -1.1 1.55 -0.65 1.55 0.0 1.55 0.65 1.1 1.1 0.65 1.55 0.0 1.55 -0.65 1.55 -1.1 1.1 -1.55 0.65 -1.55 0.0 -1.55 -0.65 -1.1 -1.1 -0.65 -1.55 0.0 -1.55" fill="#ffffff" fill-rule="evenodd" stroke="none"/>
    </g>
  </defs>
</svg>
