<?xml version="1.0" encoding="UTF-8" standalone="no"?>
<svg xmlns:ffdec="https://www.free-decompiler.com/flash" xmlns:xlink="http://www.w3.org/1999/xlink" ffdec:objectType="frame" height="46.3px" width="53.75px" xmlns="http://www.w3.org/2000/svg">
  <g transform="matrix(1.0, 0.0, 0.0, 1.0, 13.25, 45.8)">
    <use ffdec:characterId="2" height="33.0" transform="matrix(-0.6758, -0.9789, -0.6587, 0.4252, 17.05, -28.7)" width="11.7" xlink:href="#sprite0"/>
    <use ffdec:characterId="4" height="37.1" transform="matrix(-0.1915, -0.7596, -0.6598, 0.1664, 14.5, -27.75)" width="17.8" xlink:href="#sprite1"/>
    <use ffdec:characterId="2" height="33.0" transform="matrix(1.4318, -0.3118, 0.1686, 0.9223, 10.05, -30.05)" width="11.7" xlink:href="#sprite0"/>
    <use ffdec:characterId="4" height="37.1" transform="matrix(0.8347, -0.517, 0.3997, 0.6932, 11.25, -27.05)" width="17.8" xlink:href="#sprite2"/>
    <use ffdec:characterId="6" height="18.7" transform="matrix(0.495, -0.5217, 0.5217, 0.495, 17.95, -29.95)" width="21.15" xlink:href="#sprite3"/>
    <use ffdec:characterId="6" height="18.7" transform="matrix(0.8693, 0.2529, -0.2529, 0.8693, 16.15, -28.85)" width="21.15" xlink:href="#sprite3"/>
    <use ffdec:characterId="6" height="18.7" transform="matrix(0.0915, -0.7133, -0.7133, -0.0915, 13.6, -29.05)" width="21.15" xlink:href="#sprite3"/>
    <use ffdec:characterId="6" height="18.7" transform="matrix(-0.8787, -0.2176, -0.2176, 0.8787, 14.85, -31.45)" width="21.15" xlink:href="#sprite3"/>
    <use ffdec:characterId="8" height="18.8" transform="matrix(0.8455, -0.3237, 0.3237, 0.8455, 5.1, -33.75)" width="18.8" xlink:href="#sprite4"/>
  </g>
  <defs>
    <g id="sprite0">
      <use ffdec:characterId="1" height="33.0" transform="matrix(1.0, 0.0, 0.0, 1.0, 0.0, 0.0)" width="11.7" xlink:href="#shape0"/>
    </g>
    <g id="shape0">
      <path d="M7.55 4.65 L7.8 5.55 8.2 6.9 8.7 9.1 9.5 13.45 10.8 22.25 Q10.8 24.1 10.5 24.7 10.1 25.6 7.9 27.4 L5.1 29.85 2.55 32.2 Q2.05 32.2 1.75 30.75 L1.5 28.8 1.0 25.4 0.7 22.05 0.35 18.65 0.35 15.85 0.1 13.8 0.1 12.45 Q0.1 11.65 0.6 8.5 L0.5 8.3 0.45 5.45 Q0.45 3.45 0.7 2.7 L1.75 0.1 Q2.7 -0.25 3.9 0.75 L5.35 2.1 Q7.55 3.55 7.55 4.65 M1.25 9.75 Q1.05 12.5 1.0 15.45 1.0 16.8 1.45 18.0 3.4 18.65 1.85 15.3 1.35 10.65 1.55 7.35 L1.25 9.75 M1.7 19.0 Q1.4 21.75 1.65 24.7 1.85 27.35 2.45 29.85 L2.55 30.45 6.1 27.95 Q8.4 26.1 9.85 23.85 6.65 25.65 5.4 25.2 4.1 24.7 3.25 18.85 L1.7 19.0" fill="#6c0e0e" fill-rule="evenodd" stroke="none"/>
      <path d="M1.25 9.75 L1.55 7.35 Q1.35 10.65 1.85 15.3 3.4 18.65 1.45 18.0 1.0 16.8 1.0 15.45 1.05 12.5 1.25 9.75 M3.0 21.0 L2.75 21.35 3.5 29.05 3.85 29.3 Q5.7 28.2 6.35 26.05 L5.0 25.7 Q4.0 25.4 3.55 23.15 L3.0 21.0 M1.7 19.0 L3.25 18.85 Q4.1 24.7 5.4 25.2 6.65 25.65 9.85 23.85 8.4 26.1 6.1 27.95 L2.55 30.45 2.45 29.85 Q1.85 27.35 1.65 24.7 1.4 21.75 1.7 19.0" fill="#d81b1b" fill-rule="evenodd" stroke="none"/>
      <path d="M3.0 21.0 L3.55 23.15 Q4.0 25.4 5.0 25.7 L6.35 26.05 Q5.7 28.2 3.85 29.3 L3.5 29.05 2.75 21.35 3.0 21.0" fill="#ff6464" fill-rule="evenodd" stroke="none"/>
      <path d="M1.35 0.75 Q-1.65 13.0 1.9 32.5" ffdec:has-small-stroke="true" ffdec:original-stroke-width="1.0" fill="none" stroke="#420404" stroke-linecap="round" stroke-linejoin="round" stroke-width="1.0357842509935915"/>
      <path d="M7.35 3.75 Q10.8 13.8 10.7 24.55" ffdec:has-small-stroke="true" ffdec:original-stroke-width="1.0" fill="none" stroke="#420404" stroke-linecap="round" stroke-linejoin="round" stroke-width="1.0357842509935915"/>
      <path d="M10.45 24.7 Q6.65 29.6 2.05 32.5" ffdec:has-small-stroke="true" ffdec:original-stroke-width="1.0" fill="none" stroke="#420404" stroke-linecap="round" stroke-linejoin="round" stroke-width="1.0357842509935915"/>
    </g>
    <g id="sprite1">
      <use ffdec:characterId="3" height="37.1" transform="matrix(1.0, 0.0, 0.0, 1.0, 0.0, 0.0)" width="17.8" xlink:href="#shape1"/>
    </g>
    <g id="shape1">
      <path d="M0.5 16.5 L0.3 15.7 0.15 13.2 0.25 11.75 0.05 7.8 0.15 6.65 0.25 5.05 0.95 2.4 0.75 1.65 Q0.75 1.15 0.9 0.75 1.2 0.0 1.95 0.0 2.6 0.0 5.8 3.6 L8.5 7.2 10.1 10.0 Q11.55 11.7 13.0 14.55 12.9 14.65 12.95 14.8 L12.9 14.9 12.2 14.0 9.4 10.7 Q7.9 8.9 5.65 8.6 4.2 8.65 2.65 7.9 1.1 7.1 1.15 10.2 1.15 13.3 1.5 15.5 L2.0 19.2 Q2.15 20.65 3.4 20.85 L5.75 21.5 10.15 22.9 Q12.45 23.7 13.95 25.35 15.4 27.0 15.75 28.55 L16.25 31.05 Q15.85 32.8 14.9 34.2 L15.3 31.9 Q15.3 30.35 14.85 29.2 L14.1 27.7 Q13.4 26.55 12.6 26.55 11.9 26.55 11.7 27.3 L11.65 28.15 Q11.65 29.35 11.8 29.95 L11.9 30.2 10.75 27.7 10.05 26.0 10.0 25.9 Q7.6 24.25 4.8 23.6 L2.15 23.35 1.0 21.1 0.7 20.15 Q0.55 19.5 0.55 17.85 L0.6 17.35 0.65 16.65 0.5 16.5" fill="#6c0e0e" fill-rule="evenodd" stroke="none"/>
      <path d="M12.2 14.0 L13.55 16.9 Q12.6 15.6 11.2 14.7 8.9 13.3 6.4 13.5 L2.9 13.85 2.8 15.95 3.0 19.35 6.95 20.6 Q9.4 21.05 11.4 22.0 13.4 22.95 14.75 24.7 16.3 26.8 16.9 29.15 17.2 30.3 16.5 31.0 L16.25 31.05 15.75 28.55 Q15.4 27.0 13.95 25.35 12.45 23.7 10.15 22.9 L5.75 21.5 3.4 20.85 Q2.15 20.65 2.0 19.2 L1.5 15.5 Q1.15 13.3 1.15 10.2 1.1 7.1 2.65 7.9 4.2 8.65 5.65 8.6 7.9 8.9 9.4 10.7 L12.2 14.0 M0.6 17.35 L0.5 16.5 0.65 16.65 0.6 17.35" fill="#d81b1b" fill-rule="evenodd" stroke="none"/>
      <path d="M13.55 16.9 L13.65 17.1 15.35 21.25 15.5 21.65 16.05 23.95 Q17.55 26.35 16.9 29.15 16.3 26.8 14.75 24.7 13.4 22.95 11.4 22.0 9.4 21.05 6.95 20.6 L3.0 19.35 2.8 15.95 2.9 13.85 6.4 13.5 Q8.9 13.3 11.2 14.7 12.6 15.6 13.55 16.9 M8.75 18.8 L9.3 19.25 Q11.0 20.55 13.05 21.2 13.35 19.35 12.2 17.95 L12.7 17.25 11.0 15.95 10.75 16.45 Q10.45 17.65 9.35 18.25 L8.75 18.8" fill="#ff6464" fill-rule="evenodd" stroke="none"/>
      <path d="M8.75 18.8 L9.35 18.25 Q10.45 17.65 10.75 16.45 L11.0 15.95 12.7 17.25 12.2 17.95 Q13.35 19.35 13.05 21.2 11.0 20.55 9.3 19.25 L8.75 18.8" fill="#ffa3a3" fill-rule="evenodd" stroke="none"/>
      <path d="M14.9 34.2 Q14.35 36.1 13.6 36.1 13.2 36.1 12.9 34.55 L12.45 32.1 11.9 30.2 11.8 29.95 Q11.65 29.35 11.65 28.15 L11.7 27.3 Q11.9 26.55 12.6 26.55 13.4 26.55 14.1 27.7 L14.85 29.2 Q15.3 30.35 15.3 31.9 L14.9 34.2" fill="#a21414" fill-rule="evenodd" stroke="none"/>
      <path d="M0.9 0.6 Q-1.2 11.15 1.6 23.45" ffdec:has-small-stroke="true" ffdec:original-stroke-width="1.0" fill="none" stroke="#420404" stroke-linecap="round" stroke-linejoin="round" stroke-width="1.3696779583443326"/>
      <path d="M6.5 4.05 Q22.8 27.45 13.3 36.4" ffdec:has-small-stroke="true" ffdec:original-stroke-width="1.0" fill="none" stroke="#420404" stroke-linecap="round" stroke-linejoin="round" stroke-width="1.3696779583443326"/>
      <path d="M1.7 23.55 Q20.65 24.95 13.3 36.6" ffdec:has-small-stroke="true" ffdec:original-stroke-width="1.0" fill="none" stroke="#420404" stroke-linecap="round" stroke-linejoin="round" stroke-width="1.3696779583443326"/>
      <path d="M9.3 25.0 Q13.35 33.05 13.15 36.3" ffdec:has-small-stroke="true" ffdec:original-stroke-width="1.0" fill="none" stroke="#420404" stroke-linecap="round" stroke-linejoin="round" stroke-width="1.3696779583443326"/>
    </g>
    <g id="sprite2">
      <use ffdec:characterId="3" height="37.1" transform="matrix(1.0, 0.0, 0.0, 1.0, 0.0, 0.0)" width="17.8" xlink:href="#shape2"/>
    </g>
    <g id="shape2">
      <path d="M0.5 16.5 L0.3 15.7 0.15 13.2 0.25 11.75 0.05 7.8 0.15 6.65 0.25 5.05 0.95 2.4 0.75 1.65 Q0.75 1.15 0.9 0.75 1.2 0.0 1.95 0.0 2.6 0.0 5.8 3.6 L8.5 7.2 10.1 10.0 Q11.55 11.7 13.0 14.55 12.9 14.65 12.95 14.8 L12.9 14.9 12.2 14.0 9.4 10.7 Q7.9 8.9 5.65 8.6 4.2 8.65 2.65 7.9 1.1 7.1 1.15 10.2 1.15 13.3 1.5 15.5 L2.0 19.2 Q2.15 20.65 3.4 20.85 L5.75 21.5 10.15 22.9 Q12.45 23.7 13.95 25.35 15.4 27.0 15.75 28.55 L16.25 31.05 Q15.85 32.8 14.9 34.2 L15.3 31.9 Q15.3 30.35 14.85 29.2 L14.1 27.7 Q13.4 26.55 12.6 26.55 11.9 26.55 11.7 27.3 L11.65 28.15 Q11.65 29.35 11.8 29.95 L11.9 30.2 10.75 27.7 10.05 26.0 10.0 25.9 Q7.6 24.25 4.8 23.6 L2.15 23.35 1.0 21.1 0.7 20.15 Q0.55 19.5 0.55 17.85 L0.6 17.35 0.65 16.65 0.5 16.5" fill="#6c0e0e" fill-rule="evenodd" stroke="none"/>
      <path d="M12.2 14.0 L13.55 16.9 Q12.6 15.6 11.2 14.7 8.9 13.3 6.4 13.5 L2.9 13.85 2.8 15.95 3.0 19.35 6.95 20.6 Q9.4 21.05 11.4 22.0 13.4 22.95 14.75 24.7 16.3 26.8 16.9 29.15 17.2 30.3 16.5 31.0 L16.25 31.05 15.75 28.55 Q15.4 27.0 13.95 25.35 12.45 23.7 10.15 22.9 L5.75 21.5 3.4 20.85 Q2.15 20.65 2.0 19.2 L1.5 15.5 Q1.15 13.3 1.15 10.2 1.1 7.1 2.65 7.9 4.2 8.65 5.65 8.6 7.9 8.9 9.4 10.7 L12.2 14.0 M0.6 17.35 L0.5 16.5 0.65 16.65 0.6 17.35" fill="#d81b1b" fill-rule="evenodd" stroke="none"/>
      <path d="M13.55 16.9 L13.65 17.1 15.35 21.25 15.5 21.65 16.05 23.95 Q17.55 26.35 16.9 29.15 16.3 26.8 14.75 24.7 13.4 22.95 11.4 22.0 9.4 21.05 6.95 20.6 L3.0 19.35 2.8 15.95 2.9 13.85 6.4 13.5 Q8.9 13.3 11.2 14.7 12.6 15.6 13.55 16.9 M8.75 18.8 L9.3 19.25 Q11.0 20.55 13.05 21.2 13.35 19.35 12.2 17.95 L12.7 17.25 11.0 15.95 10.75 16.45 Q10.45 17.65 9.35 18.25 L8.75 18.8" fill="#ff6464" fill-rule="evenodd" stroke="none"/>
      <path d="M8.75 18.8 L9.35 18.25 Q10.45 17.65 10.75 16.45 L11.0 15.95 12.7 17.25 12.2 17.95 Q13.35 19.35 13.05 21.2 11.0 20.55 9.3 19.25 L8.75 18.8" fill="#ffa3a3" fill-rule="evenodd" stroke="none"/>
      <path d="M14.9 34.2 Q14.35 36.1 13.6 36.1 13.2 36.1 12.9 34.55 L12.45 32.1 11.9 30.2 11.8 29.95 Q11.65 29.35 11.65 28.15 L11.7 27.3 Q11.9 26.55 12.6 26.55 13.4 26.55 14.1 27.7 L14.85 29.2 Q15.3 30.35 15.3 31.9 L14.9 34.2" fill="#a21414" fill-rule="evenodd" stroke="none"/>
      <path d="M0.9 0.6 Q-1.2 11.15 1.6 23.45" ffdec:has-small-stroke="true" ffdec:original-stroke-width="1.0" fill="none" stroke="#420404" stroke-linecap="round" stroke-linejoin="round" stroke-width="1.1284784020317187"/>
      <path d="M6.5 4.05 Q22.8 27.45 13.3 36.4" ffdec:has-small-stroke="true" ffdec:original-stroke-width="1.0" fill="none" stroke="#420404" stroke-linecap="round" stroke-linejoin="round" stroke-width="1.1284784020317187"/>
      <path d="M1.7 23.55 Q20.65 24.95 13.3 36.6" ffdec:has-small-stroke="true" ffdec:original-stroke-width="1.0" fill="none" stroke="#420404" stroke-linecap="round" stroke-linejoin="round" stroke-width="1.1284784020317187"/>
      <path d="M9.3 25.0 Q13.35 33.05 13.15 36.3" ffdec:has-small-stroke="true" ffdec:original-stroke-width="1.0" fill="none" stroke="#420404" stroke-linecap="round" stroke-linejoin="round" stroke-width="1.1284784020317187"/>
    </g>
    <g id="sprite3">
      <use ffdec:characterId="5" height="18.7" transform="matrix(1.0, 0.0, 0.0, 1.0, 0.0, 0.0)" width="21.15" xlink:href="#shape3"/>
    </g>
    <g id="shape3">
      <path d="M18.8 5.15 L18.25 4.65 Q15.15 2.45 11.35 2.15 L13.2 3.55 Q14.5 4.8 14.15 7.45 16.45 6.55 18.85 6.1 L18.8 5.15 M10.3 15.15 L9.5 16.55 Q8.5 17.85 7.1 17.85 5.35 17.85 4.8 17.4 L3.4 15.35 Q2.2 13.5 2.0 12.4 L1.15 9.35 Q0.55 7.0 0.55 6.0 0.55 4.4 2.4 2.35 3.1 1.5 4.75 1.1 L8.15 0.45 9.6 0.45 13.95 1.5 Q15.45 2.0 17.15 3.05 19.15 4.4 19.9 5.75 L19.6 6.35 19.5 7.4 18.7 7.15 Q16.25 8.55 13.55 9.1 L12.0 9.05 11.75 9.35 11.45 9.65 10.55 9.85 8.85 8.5 10.15 12.0 10.55 13.05 11.7 11.6 Q14.1 11.35 16.15 10.1 16.4 9.9 16.75 9.85 L17.1 10.1 Q14.5 10.65 12.25 12.25 11.0 13.15 9.85 14.35 10.25 11.75 8.65 9.55 7.0 7.35 4.45 5.8 3.25 5.1 1.75 4.65 L1.3 5.4 Q4.3 5.95 6.5 8.15 5.8 7.5 4.75 6.8 3.1 5.75 2.15 5.75 1.6 5.75 1.6 6.35 1.6 8.0 2.75 11.35 4.25 15.85 6.3 15.85 8.6 15.85 8.6 12.5 8.6 11.65 8.05 10.45 L7.05 8.75 Q8.95 11.15 8.8 14.0 8.75 15.55 7.55 16.4 5.85 16.6 4.8 15.45 2.8 13.15 1.85 10.2 2.0 12.45 3.25 14.85 5.2 18.5 8.85 16.5 L10.3 15.15 M18.65 10.25 L17.6 10.7 14.1 11.95 14.05 11.95 16.2 10.85 18.65 10.25 M12.2 5.7 Q11.9 5.0 10.6 4.5 L9.8 4.5 9.6 4.9 9.0 5.5 7.6 6.05 Q9.5 7.65 9.9 9.1 L10.2 8.05 12.25 7.7 12.5 7.05 12.2 5.7 M8.55 1.6 Q6.7 1.25 5.15 2.1 L4.2 2.6 4.05 3.05 4.55 3.5 Q7.05 2.45 9.55 3.45 11.4 4.2 12.85 5.45 12.25 2.9 9.2 2.4 7.65 2.2 8.55 1.6 M2.7 4.2 L2.6 4.35 Q5.2 5.4 7.2 7.25 6.1 5.3 4.0 4.25 L3.95 3.75 Q3.3 3.55 2.7 4.2" fill="#d81b1b" fill-rule="evenodd" stroke="none"/>
      <path d="M18.8 5.15 L18.85 6.1 Q16.45 6.55 14.15 7.45 14.5 4.8 13.2 3.55 L11.35 2.15 Q15.15 2.45 18.25 4.65 L18.8 5.15 M19.9 5.75 Q21.2 7.85 19.75 9.9 L18.65 10.25 16.2 10.85 14.05 11.95 14.1 11.95 13.05 13.0 11.65 13.9 10.5 14.95 10.35 15.1 10.3 15.15 8.85 16.5 Q5.2 18.5 3.25 14.85 2.0 12.45 1.85 10.2 2.8 13.15 4.8 15.45 5.85 16.6 7.55 16.4 8.75 15.55 8.8 14.0 8.95 11.15 7.05 8.75 L6.5 8.15 Q4.3 5.95 1.3 5.4 L1.75 4.65 Q3.25 5.1 4.45 5.8 7.0 7.35 8.65 9.55 10.25 11.75 9.85 14.35 11.0 13.15 12.25 12.25 14.5 10.65 17.1 10.1 18.6 9.45 19.2 8.15 L19.5 7.4 19.6 6.35 19.9 5.75 M12.2 5.7 L12.5 7.05 12.25 7.7 10.2 8.05 9.9 9.1 Q9.5 7.65 7.6 6.05 L9.0 5.5 9.6 4.9 9.8 4.5 10.6 4.5 Q11.9 5.0 12.2 5.7" fill="#ff6464" fill-rule="evenodd" stroke="none"/>
      <path d="M17.1 10.1 L16.75 9.85 Q16.4 9.9 16.15 10.1 14.1 11.35 11.7 11.6 L10.55 13.05 10.15 12.0 8.85 8.5 10.55 9.85 11.45 9.65 11.75 9.35 12.0 9.05 13.55 9.1 Q16.25 8.55 18.7 7.15 L19.5 7.4 19.2 8.15 Q18.6 9.45 17.1 10.1" fill="#a21414" fill-rule="evenodd" stroke="none"/>
      <path d="M7.05 8.75 L8.05 10.45 Q8.6 11.65 8.6 12.5 8.6 15.85 6.3 15.85 4.25 15.85 2.75 11.35 1.6 8.0 1.6 6.35 1.6 5.75 2.15 5.75 3.1 5.75 4.75 6.8 5.8 7.5 6.5 8.15 L7.05 8.75 M2.7 4.2 Q3.3 3.55 3.95 3.75 L4.0 4.25 Q6.1 5.3 7.2 7.25 5.2 5.4 2.6 4.35 L2.7 4.2 M8.55 1.6 Q7.65 2.2 9.2 2.4 12.25 2.9 12.85 5.45 11.4 4.2 9.55 3.45 7.05 2.45 4.55 3.5 L4.05 3.05 4.2 2.6 5.15 2.1 Q6.7 1.25 8.55 1.6" fill="#6c0e0e" fill-rule="evenodd" stroke="none"/>
      <path d="M20.3 4.9 L20.45 5.05 Q22.35 8.6 19.2 10.65 L18.9 10.85 Q13.0 12.6 9.35 17.45 L9.05 17.6 9.0 17.65 Q6.5 19.85 3.95 17.5 L3.75 17.25 Q-0.05 12.3 0.0 6.5 L0.2 6.2 Q0.3 6.05 0.5 6.05 0.7 6.05 0.9 6.2 L1.0 6.5 Q1.0 11.95 4.55 16.65 L4.65 16.75 Q6.55 18.55 8.35 16.95 L8.5 16.8 Q12.35 11.8 18.45 9.95 18.5 9.85 18.6 9.85 21.05 8.3 19.6 5.6 14.5 0.7 8.4 1.05 L8.05 0.9 7.85 0.6 Q7.85 0.3 8.0 0.2 8.1 0.05 8.35 0.05 14.9 -0.45 20.3 4.9" fill="#420404" fill-rule="evenodd" stroke="none"/>
    </g>
    <g id="sprite4">
      <use ffdec:characterId="7" height="18.8" transform="matrix(1.0, 0.0, 0.0, 1.0, 0.0, 0.0)" width="18.8" xlink:href="#shape4"/>
    </g>
    <g id="shape4">
      <path d="M13.95 10.0 Q14.75 11.3 14.25 12.9 13.4 15.7 10.3 15.95 7.6 16.55 5.0 15.3 3.05 14.4 2.4 12.3 1.45 9.4 3.8 7.55 6.05 5.9 8.9 6.35 L10.05 6.85 Q12.55 7.8 13.95 10.0" fill="#ffffff" fill-rule="evenodd" stroke="none"/>
      <path d="M12.75 1.1 Q15.4 2.5 16.75 5.05 18.1 7.6 17.7 10.35 17.3 13.3 15.2 15.25 13.15 17.2 10.3 17.8 7.35 18.25 4.8 16.7 2.2 15.1 1.1 12.25 0.1 9.6 0.75 6.7 1.35 3.9 3.55 2.2 L5.2 1.1 Q7.8 0.2 10.65 0.7 L12.75 1.1 M15.8 9.35 Q15.6 6.45 13.35 4.4 11.1 2.35 8.1 2.8 L7.4 2.9 Q4.45 3.55 3.0 5.85 1.55 8.2 1.9 11.0 2.2 13.85 4.5 15.75 6.7 17.5 9.6 17.1 12.5 16.6 14.25 14.4 16.0 12.25 15.8 9.35" fill="#c5c9dc" fill-rule="evenodd" stroke="none"/>
      <path d="M15.8 9.35 Q16.0 12.25 14.25 14.4 12.5 16.6 9.6 17.1 6.7 17.5 4.5 15.75 2.2 13.85 1.9 11.0 1.55 8.2 3.0 5.85 4.45 3.55 7.4 2.9 L8.1 2.8 Q11.1 2.35 13.35 4.4 15.6 6.45 15.8 9.35 M13.95 10.0 Q12.55 7.8 10.05 6.85 L8.9 6.35 Q6.05 5.9 3.8 7.55 1.45 9.4 2.4 12.3 3.05 14.4 5.0 15.3 7.6 16.55 10.3 15.95 13.4 15.7 14.25 12.9 14.75 11.3 13.95 10.0" fill="#dde0ee" fill-rule="evenodd" stroke="none"/>
      <path d="M8.9 17.8 Q5.2 17.8 2.6 15.2 0.0 12.6 0.0 8.9 0.0 5.2 2.6 2.6 5.2 0.0 8.9 0.0 12.6 0.0 15.2 2.6 17.8 5.2 17.8 8.9 17.8 12.6 15.2 15.2 12.6 17.8 8.9 17.8 Z" ffdec:has-small-stroke="true" ffdec:original-stroke-width="1.0" fill="none" stroke="#2c2d37" stroke-linecap="round" stroke-linejoin="round" stroke-width="1.1045576146953076"/>
      <path d="M11.9 11.05 Q10.3 12.7 8.0 12.7 5.7 12.7 4.05 11.05 2.45 9.45 2.45 7.15 2.45 4.85 4.05 3.2 5.7 1.6 8.0 1.6 10.3 1.6 11.9 3.2 13.55 4.85 13.55 7.15 13.55 9.45 11.9 11.05" fill="#00ddff" fill-rule="evenodd" stroke="none"/>
      <path d="M12.95 8.3 Q12.6 9.85 11.35 10.9 9.85 12.35 7.7 12.25 5.6 12.1 4.2 10.5 3.1 9.3 2.95 7.7 8.2 6.1 12.95 8.3" fill="#00ddff" fill-rule="evenodd" stroke="none"/>
      <path d="M2.95 7.7 Q2.9 7.25 3.0 6.85 3.1 4.75 4.6 3.35 6.2 2.0 8.25 2.15 10.4 2.25 11.75 3.75 13.2 5.4 13.1 7.45 L12.95 8.3 Q8.2 6.1 2.95 7.7" fill="#150d91" fill-rule="evenodd" stroke="none"/>
      <path d="M9.6 8.75 Q8.95 9.45 8.0 9.45 7.05 9.45 6.35 8.75 5.7 8.1 5.7 7.15 5.7 6.2 6.35 5.5 7.05 4.85 8.0 4.85 8.95 4.85 9.6 5.5 10.3 6.2 10.3 7.15 10.3 8.1 9.6 8.75" fill="#03003a" fill-rule="evenodd" stroke="none"/>
      <path d="M10.65 10.15 L10.2 9.85 10.1 9.55 Q10.1 8.75 10.65 9.05 11.2 9.3 11.2 9.65 L10.65 10.15" fill="#150d91" fill-rule="evenodd" stroke="none"/>
      <path d="M9.3 10.6 Q9.3 11.15 8.9 11.15 L8.6 10.8 8.45 10.35 Q8.45 10.0 8.9 10.0 9.15 10.0 9.3 10.6" fill="#150d91" fill-rule="evenodd" stroke="none"/>
      <path d="M6.9 10.85 L6.7 10.9 6.45 10.65 5.8 10.5 5.5 10.1 Q5.5 9.75 5.75 9.85 L6.3 10.05 7.2 10.6 6.9 10.85" fill="#150d91" fill-rule="evenodd" stroke="none"/>
      <path d="M4.7 6.6 L4.8 7.0 4.6 7.9 5.1 8.65 Q5.1 9.1 4.3 9.1 4.0 9.1 3.95 8.55 L3.95 7.85 3.75 6.55 Q3.75 6.3 4.5 6.0 5.25 5.75 5.25 6.2 5.25 6.55 4.7 6.6" fill="#150d91" fill-rule="evenodd" stroke="none"/>
      <path d="M11.95 7.3 Q11.6 7.3 11.4 7.1 L11.2 6.8 Q11.2 6.45 11.75 6.6 12.3 6.75 12.3 7.05 L11.95 7.3" fill="#00ddff" fill-rule="evenodd" stroke="none"/>
      <path d="M6.55 4.25 L6.0 4.85 5.8 4.65 5.9 5.15 5.7 5.35 5.45 5.1 5.4 4.8 Q5.4 4.0 6.25 4.0 L6.55 4.25" fill="#00ddff" fill-rule="evenodd" stroke="none"/>
      <path d="M10.45 6.2 Q10.1 6.6 9.55 6.6 9.0 6.6 8.6 6.2 8.25 5.85 8.25 5.3 8.25 4.75 8.6 4.35 9.0 4.0 9.55 4.0 10.1 4.0 10.45 4.35 10.85 4.75 10.85 5.3 10.85 5.85 10.45 6.2" fill="#ffffff" fill-rule="evenodd" stroke="none"/>
    </g>
  </defs>
</svg>
