<?xml version="1.0" encoding="UTF-8" standalone="no"?>
<svg xmlns:ffdec="https://www.free-decompiler.com/flash" xmlns:xlink="http://www.w3.org/1999/xlink" ffdec:objectType="frame" height="54.75px" width="53.6px" xmlns="http://www.w3.org/2000/svg">
  <g transform="matrix(1.0, 0.0, 0.0, 1.0, 24.9, 63.2)">
    <use ffdec:characterId="8" height="41.9" transform="matrix(1.0, 0.0, 0.0, 1.0, -0.1, -29.4)" width="36.25" xlink:href="#sprite0"/>
    <use ffdec:characterId="4" height="31.55" transform="matrix(0.7553, 0.0, 0.0, 0.7553, 19.75, -39.95)" width="22.05" xlink:href="#sprite1"/>
    <use ffdec:characterId="5" height="31.55" transform="matrix(0.5697, 0.0, 0.0, 0.5697, -18.95, -42.6)" width="22.05" xlink:href="#sprite2"/>
    <use ffdec:characterId="5" height="31.55" transform="matrix(0.9563, 0.0, 0.0, 0.9563, -15.2, -49.0)" width="22.05" xlink:href="#sprite2"/>
  </g>
  <defs>
    <g id="sprite0">
      <use ffdec:characterId="7" height="41.9" transform="matrix(1.0, 0.0, 0.0, 1.0, 0.0, 0.0)" width="36.25" xlink:href="#shape0"/>
    </g>
    <g id="shape0">
      <path d="M-7.3 -19.0 L-7.1 -19.15 -7.1 -19.2 -7.05 -19.2 -7.0 -19.25 -6.85 -19.35 -6.6 -19.35 -6.6 -19.4 -6.5 -19.45 Q-6.25 -19.5 -6.1 -19.65 L-5.4 -19.75 -5.3 -19.8 -5.25 -19.9 -5.25 -20.05 -4.55 -20.15 -4.45 -20.2 -4.35 -20.2 -3.85 -20.3 -2.85 -20.5 -2.7 -20.5 -1.85 -20.55 -1.1 -20.55 -1.0 -20.55 -0.7 -20.6 -0.3 -20.6 0.2 -20.6 0.45 -20.6 0.7 -20.6 1.6 -20.55 3.8 -20.45 3.9 -20.45 4.1 -20.4 4.6 -20.2 4.9 -20.2 4.9 -20.15 5.15 -20.15 5.45 -20.05 5.55 -19.9 5.65 -19.8 6.3 -19.7 Q6.45 -19.55 6.7 -19.5 L6.8 -19.45 6.9 -19.4 7.05 -19.4 7.15 -19.35 7.3 -19.25 7.35 -19.25 7.35 -19.2 7.5 -19.15 Q7.7 -19.0 7.75 -19.0 L7.8 -18.95 7.85 -18.85 8.05 -18.85 8.2 -18.8 8.25 -18.75 8.3 -18.7 8.45 -18.6 8.5 -18.6 8.55 -18.5 8.7 -18.45 8.85 -18.4 8.85 -18.35 8.95 -18.15 9.05 -18.1 9.1 -18.05 9.3 -18.0 9.45 -17.75 9.3 -17.8 9.8 -17.25 Q9.9 -17.1 10.2 -16.9 L10.25 -16.85 10.25 -16.75 Q10.3 -16.55 10.5 -16.5 L10.6 -16.4 10.6 -16.35 10.65 -16.35 10.65 -16.3 10.7 -16.2 10.7 -16.15 10.85 -16.15 11.0 -16.0 11.15 -16.0 11.15 -16.05 11.05 -16.15 11.0 -16.15 11.0 -16.2 11.15 -16.15 11.25 -16.05 11.3 -16.0 11.25 -15.95 11.15 -15.95 11.25 -15.6 11.3 -15.55 10.95 -15.85 10.6 -16.05 10.5 -16.15 10.3 -16.05 10.65 -15.8 10.95 -15.55 11.9 -13.95 Q13.55 -11.05 14.7 -8.05 15.7 -5.35 15.9 -2.45 L16.15 -1.3 16.05 -0.35 Q15.9 2.8 15.15 5.6 L15.3 5.7 12.85 7.8 12.25 8.2 10.15 9.15 8.9 9.55 8.7 9.55 8.7 9.6 7.8 9.9 7.75 9.85 7.75 9.8 7.7 9.7 7.65 9.6 7.35 9.55 7.1 9.55 7.05 9.55 6.95 9.55 6.9 9.6 6.8 9.9 6.8 10.2 5.65 10.55 5.35 10.35 5.3 10.35 Q5.15 10.4 5.15 10.6 L5.15 10.65 4.5 10.75 4.1 10.75 3.95 10.85 2.15 10.9 2.1 10.9 1.5 10.9 0.45 10.85 0.2 10.85 -0.3 10.75 -1.5 10.65 -3.15 10.3 -3.15 10.35 -3.15 10.95 -3.2 11.0 -3.25 11.1 -3.35 11.2 -3.35 11.25 -3.45 11.25 -3.5 11.2 -3.65 11.2 -3.65 11.1 -3.7 11.0 -3.7 10.95 -3.8 10.65 -3.8 10.2 Q-4.25 10.0 -4.6 9.95 L-4.65 10.3 -4.65 10.9 -4.7 11.25 -4.65 11.35 -4.65 11.55 -4.95 11.55 -5.25 11.45 -5.25 11.4 -5.3 11.25 -5.35 11.2 -5.35 10.75 -5.4 10.25 -5.35 9.8 -7.1 9.3 -8.5 8.85 -8.5 9.7 -8.25 12.0 -8.2 12.4 -8.05 12.3 -7.8 12.2 -7.9 11.35 -7.9 11.25 -7.8 11.1 -7.8 10.75 -7.75 10.25 -7.7 10.25 -7.45 10.2 -7.35 10.25 -7.3 10.25 -7.35 10.7 -7.4 11.0 -7.4 11.2 -7.35 11.25 -7.35 11.4 -7.4 11.8 -7.4 12.05 -7.35 12.5 -7.25 13.2 -6.5 14.95 -6.75 14.9 -7.15 14.75 -7.05 14.9 -7.15 14.95 -7.3 14.9 -7.45 14.65 -7.9 14.15 -8.1 13.9 -8.6 12.7 Q-8.95 11.55 -8.9 10.35 L-8.85 9.55 -8.6 8.75 Q-9.65 8.2 -10.65 7.75 -11.85 7.0 -12.5 5.9 L-13.4 4.25 -13.5 4.0 -13.7 3.35 Q-11.95 4.8 -9.85 5.7 L-9.6 5.8 -9.6 6.0 -9.6 6.5 -8.6 7.0 -8.55 6.75 -8.05 6.35 -7.55 6.6 -7.8 6.75 -7.95 7.1 -7.7 7.2 -7.15 6.7 -6.45 6.85 -6.85 7.45 -6.75 7.45 -6.5 7.5 -6.35 7.8 -6.05 8.05 -6.0 8.15 -6.0 8.2 -4.85 8.65 -0.3 9.5 0.2 9.5 0.45 9.5 5.0 8.9 5.4 8.8 6.1 8.6 6.65 8.35 6.65 8.25 6.95 8.2 7.9 7.9 8.05 7.8 8.15 7.6 8.7 7.45 9.1 7.0 8.85 7.1 8.05 7.4 Q7.85 7.2 7.65 7.4 7.1 7.5 6.65 7.75 L6.6 7.6 6.55 7.6 5.75 7.85 5.55 7.9 5.6 7.85 5.65 7.8 5.7 7.8 5.75 7.75 5.85 7.6 5.85 7.45 5.85 7.35 5.85 7.2 5.75 7.2 7.05 7.0 7.15 6.85 7.3 6.85 8.2 6.7 8.55 6.65 8.65 6.6 8.75 6.55 8.85 6.5 Q11.3 5.7 13.35 3.95 L13.3 4.15 13.1 4.25 13.05 4.4 12.85 4.9 12.75 5.0 12.7 5.0 12.4 5.4 12.15 5.75 11.65 6.4 11.4 6.7 11.35 6.75 11.55 6.8 11.65 6.8 11.7 6.85 12.3 6.75 Q12.65 6.4 13.0 6.25 14.15 5.55 14.7 4.2 L14.85 3.8 Q15.05 2.15 14.6 0.6 L14.6 0.4 14.55 0.3 14.5 0.1 14.5 0.25 14.45 0.3 14.5 -0.25 14.25 -1.35 14.2 -2.0 14.15 -2.5 14.05 -3.85 14.1 -3.95 14.1 -4.1 14.05 -4.2 13.0 -8.05 10.6 -13.15 10.55 -13.15 10.6 -13.2 10.6 -13.35 10.55 -13.4 10.4 -13.45 10.95 -13.7 10.6 -13.95 Q9.75 -13.45 8.85 -13.1 L8.75 -13.15 8.75 -13.35 8.7 -13.45 8.55 -13.45 8.5 -13.65 8.3 -13.8 8.3 -14.05 8.2 -14.05 8.2 -13.9 8.15 -13.9 8.15 -13.8 8.2 -13.65 8.3 -13.45 8.3 -13.1 8.55 -13.0 8.7 -13.0 7.85 -12.75 7.65 -12.65 7.45 -12.85 7.35 -13.2 7.35 -13.35 7.35 -13.45 7.3 -13.45 7.3 -13.5 7.15 -13.55 7.1 -13.55 7.1 -13.7 7.0 -13.7 7.0 -13.65 6.95 -13.55 7.0 -13.5 7.0 -13.4 7.0 -13.15 7.05 -13.15 7.05 -12.95 7.1 -12.85 7.1 -12.75 7.1 -12.6 7.3 -12.6 4.85 -12.1 0.7 -11.7 0.7 -11.75 0.45 -11.7 0.2 -11.7 -0.3 -11.7 -1.3 -11.75 -1.3 -11.7 -1.4 -11.7 -1.5 -11.7 -4.9 -11.8 -6.35 -12.05 -6.3 -12.1 -6.35 -12.35 -6.35 -12.5 -6.35 -12.75 -6.3 -12.8 -6.25 -12.95 -6.25 -13.1 -6.25 -13.15 -6.15 -13.35 -6.15 -13.45 -6.15 -13.5 -6.15 -13.65 -6.1 -13.7 -6.1 -13.9 -6.0 -14.1 -6.0 -14.2 -6.1 -14.2 -6.15 -14.15 -6.15 -14.05 -6.3 -13.8 -6.3 -13.7 -6.45 -13.55 -6.45 -13.45 -6.5 -13.35 -6.5 -13.15 -6.6 -13.15 -6.6 -12.95 -6.7 -12.85 -6.7 -12.6 -6.75 -12.6 -6.75 -12.5 -6.85 -12.35 -6.9 -12.1 -7.0 -12.1 -10.35 -13.2 -10.55 -13.4 -10.65 -13.5 -10.65 -13.55 -11.3 -13.55 -11.35 -13.45 -11.3 -13.35 -11.3 -13.2 -11.25 -13.0 -11.1 -12.85 Q-10.7 -12.75 -10.45 -12.5 L-10.45 -12.45 -10.55 -12.45 -10.7 -12.5 -11.0 -12.6 -11.05 -12.65 -11.1 -12.5 -11.1 -12.45 -11.25 -12.35 -11.1 -12.3 -11.25 -12.3 -11.35 -12.1 -11.5 -11.95 Q-11.35 -12.2 -11.3 -12.6 L-11.35 -12.65 Q-12.05 -12.0 -12.45 -10.9 L-13.4 -8.5 -13.45 -8.45 -13.5 -8.5 -13.9 -9.15 -14.0 -9.15 -14.0 -9.2 -14.05 -9.25 -14.05 -9.35 -14.05 -9.4 -14.15 -9.6 -14.15 -9.95 -14.45 -10.75 -14.5 -11.0 -14.5 -11.25 -13.7 -12.75 -12.85 -13.9 -11.65 -15.55 -11.6 -15.55 -11.5 -15.6 -11.5 -15.65 -11.35 -15.8 -11.35 -15.85 -11.3 -15.85 -11.05 -16.0 -10.9 -16.15 -10.65 -16.5 -10.2 -17.0 -9.95 -17.1 -9.9 -17.2 -9.8 -17.25 -9.65 -17.3 -9.6 -17.35 -9.6 -17.55 -9.3 -17.7 -9.05 -17.95 -8.95 -18.0 -8.9 -18.05 -8.8 -18.1 -8.6 -18.3 -8.6 -18.35 -8.5 -18.4 -8.45 -18.5 -8.2 -18.5 -8.1 -18.6 -8.05 -18.7 Q-7.95 -18.7 -7.95 -18.75 L-7.85 -18.8 -7.75 -18.85 -7.55 -18.85 -7.55 -18.8 -7.3 -18.85 -7.55 -18.85 -7.3 -19.0 M-8.2 12.4 L-8.25 12.3 -8.4 12.05 -8.25 12.5 -8.2 12.4 M3.25 -13.4 L4.2 -13.4 4.25 -13.35 6.8 -13.75 5.95 -15.6 5.45 -16.35 4.9 -17.2 4.95 -17.2 Q5.95 -16.15 6.55 -14.95 L6.95 -13.9 7.9 -14.2 7.85 -14.3 7.85 -14.45 6.8 -16.05 5.4 -17.6 5.45 -17.6 5.45 -17.65 5.55 -17.65 5.7 -17.6 6.4 -17.0 7.0 -16.5 7.5 -15.85 7.9 -14.95 8.05 -14.8 8.05 -14.75 8.1 -14.75 8.15 -14.55 8.15 -14.4 8.9 -15.2 9.1 -15.5 9.3 -15.85 Q9.05 -16.15 8.95 -16.65 L8.7 -16.9 8.7 -17.0 8.75 -16.95 8.85 -16.9 8.9 -16.85 8.9 -16.8 8.95 -16.75 9.0 -16.75 9.1 -16.8 9.35 -16.8 9.45 -16.95 9.3 -17.25 9.1 -17.35 9.05 -17.4 9.0 -17.65 8.9 -17.75 8.85 -17.8 8.85 -17.95 8.75 -18.0 8.15 -18.4 7.85 -18.5 7.45 -18.75 7.35 -18.8 Q6.8 -19.35 6.05 -19.45 L5.95 -19.5 5.95 -19.55 5.85 -19.55 5.65 -19.5 5.45 -19.5 5.4 -19.45 5.4 -19.4 5.35 -19.4 5.3 -19.45 5.25 -19.45 5.0 -19.5 4.9 -19.5 4.7 -19.5 4.6 -19.5 4.35 -19.5 4.25 -19.5 1.5 -19.9 0.45 -19.8 0.2 -19.8 -0.3 -19.8 -2.15 -19.8 -3.8 -19.75 -4.1 -19.7 -4.25 -19.7 -4.35 -19.7 -4.55 -19.7 -4.6 -19.65 -4.95 -19.55 -5.05 -19.5 -5.25 -19.5 -5.3 -19.45 -5.7 -19.35 -5.75 -19.35 -6.6 -18.85 -6.7 -18.85 -7.25 -18.5 -8.05 -17.8 -8.25 -17.55 -8.25 -17.25 -8.25 -16.65 -8.05 -16.35 -7.9 -16.15 -7.85 -16.0 -7.8 -15.95 -6.15 -14.85 -6.0 -15.35 -5.4 -16.35 -5.1 -16.75 -4.9 -16.95 -4.9 -17.0 -4.7 -17.0 -4.6 -16.95 -5.6 -15.3 -5.75 -14.75 -4.95 -14.5 Q-4.3 -14.2 -3.55 -14.05 L-5.05 -14.05 -2.7 -13.7 -2.7 -13.65 -2.55 -13.55 -0.3 -13.1 0.2 -13.0 0.45 -13.0 3.25 -13.4 M-8.55 8.75 L-8.7 10.15 -8.5 11.75 -8.5 10.7 -8.55 8.75" fill="#f0d775" fill-rule="evenodd" stroke="none"/>
      <path d="M5.15 -20.15 L4.9 -20.15 4.9 -20.2 4.6 -20.2 4.1 -20.4 3.9 -20.45 3.8 -20.45 1.6 -20.55 0.7 -20.6 0.45 -20.6 0.2 -20.6 -0.3 -20.6 -0.7 -20.6 -1.0 -20.55 -1.1 -20.55 -1.85 -20.55 -2.7 -20.5 -2.85 -20.5 -3.85 -20.3 -4.35 -20.2 -4.45 -20.2 -4.55 -20.15 -5.25 -20.05 -5.25 -19.9 -5.3 -19.8 -5.4 -19.75 -6.1 -19.65 Q-6.25 -19.5 -6.5 -19.45 L-6.6 -19.4 -6.6 -19.35 -6.85 -19.35 -7.0 -19.25 -7.05 -19.2 -7.1 -19.2 -7.1 -19.15 -7.3 -19.0 -7.45 -18.95 -7.55 -18.85 -7.75 -18.85 -7.85 -18.8 -7.95 -18.75 Q-7.95 -18.7 -8.05 -18.7 L-8.1 -18.6 -8.2 -18.5 -8.45 -18.5 -8.5 -18.4 -8.6 -18.35 -8.6 -18.3 -8.8 -18.1 -8.9 -18.05 -8.95 -18.0 -9.05 -17.95 -9.3 -17.7 -9.6 -17.55 -9.6 -17.35 -9.65 -17.3 -9.8 -17.25 -9.9 -17.2 -9.95 -17.1 -10.2 -17.0 -10.65 -16.5 -10.9 -16.15 -11.05 -16.0 -11.3 -15.85 -11.35 -15.85 -11.35 -15.8 -11.5 -15.65 -11.5 -15.6 -11.6 -15.55 -11.65 -15.55 -12.85 -13.9 -13.7 -12.75 -14.5 -11.25 -14.55 -11.05 -15.35 -9.35 -16.45 -6.25 -16.6 -5.35 -16.9 -4.35 -17.05 -3.55 -17.1 -1.75 -17.1 -1.4 -17.05 1.1 -17.0 2.05 -16.9 2.8 -16.8 2.95 -16.55 3.95 -16.3 4.6 -16.2 4.95 Q-16.05 5.45 -16.05 5.9 L-16.05 5.95 -14.45 9.7 -14.45 9.8 -14.6 9.8 -14.65 9.85 -14.6 9.9 -14.25 10.25 -13.7 10.9 -13.45 11.25 -13.1 11.75 -12.9 12.05 -13.0 12.05 -13.4 11.6 -13.7 11.35 -13.75 11.25 -13.8 11.25 -13.9 11.1 -14.1 10.75 -14.15 10.75 -14.3 10.4 -14.45 10.35 -14.5 10.35 -14.5 10.4 -14.45 10.4 -14.45 10.55 -14.3 10.7 -14.25 10.7 -14.15 10.75 -14.05 10.95 -14.0 11.0 -14.0 11.1 -13.9 11.1 -13.8 11.35 -13.6 11.6 -13.5 11.7 -13.05 12.15 -12.45 12.65 -12.45 12.7 -12.0 13.05 -10.35 14.35 -9.95 14.65 -8.2 15.8 -8.15 15.85 -8.15 15.9 -7.9 15.95 -7.85 16.0 -6.15 16.75 -4.55 17.4 -4.55 17.45 -4.45 17.6 -4.35 17.6 -4.35 17.55 -3.5 17.85 -1.3 18.3 -0.35 18.35 -0.1 18.35 0.2 18.35 0.45 18.3 0.6 18.3 1.15 18.2 1.3 18.3 1.4 18.3 1.45 18.2 1.65 18.2 2.15 18.3 6.65 16.9 Q6.9 16.7 7.15 16.6 L7.3 16.65 7.35 16.6 7.85 16.3 10.15 14.75 10.4 14.55 10.65 14.1 11.05 13.8 11.25 13.7 11.8 13.1 12.15 12.8 12.4 12.7 12.55 12.6 13.05 12.05 13.7 11.1 14.4 10.0 14.7 9.2 14.8 9.1 15.05 8.6 16.05 5.9 16.55 3.95 16.6 3.8 17.0 2.1 17.05 1.05 17.2 -1.55 17.2 -1.8 17.05 -3.6 16.95 -4.4 16.6 -5.35 16.4 -6.35 15.35 -9.4 14.5 -11.3 13.75 -12.75 13.7 -12.8 13.0 -13.95 11.7 -15.6 11.65 -15.6 11.65 -15.8 11.55 -15.85 11.5 -15.95 11.35 -15.95 11.3 -16.0 11.25 -16.05 11.15 -16.15 11.0 -16.2 10.95 -16.3 10.7 -16.55 10.3 -17.1 10.2 -17.2 10.15 -17.25 9.9 -17.3 9.8 -17.35 9.75 -17.4 9.75 -17.6 9.6 -17.7 9.45 -17.75 9.3 -18.0 9.1 -18.05 9.05 -18.1 8.95 -18.15 8.85 -18.35 8.85 -18.4 8.7 -18.45 8.55 -18.5 8.5 -18.6 8.45 -18.6 8.3 -18.7 8.25 -18.75 8.2 -18.8 8.05 -18.85 7.85 -18.85 7.8 -18.95 7.75 -19.0 Q7.7 -19.0 7.5 -19.15 L7.35 -19.2 7.35 -19.25 7.3 -19.25 7.15 -19.35 7.05 -19.4 6.9 -19.4 6.8 -19.45 6.7 -19.5 Q6.45 -19.55 6.3 -19.7 L5.65 -19.8 5.55 -19.9 5.45 -20.05 5.45 -20.1 5.15 -20.15 M-10.65 15.5 L-11.95 14.65 -13.25 13.45 -13.5 13.35 -13.7 13.05 -13.7 12.8 -13.8 12.4 -14.05 12.25 -14.05 12.2 -14.1 12.15 -14.1 12.05 -14.3 11.95 -14.5 11.95 -14.95 10.9 -16.55 7.9 -16.6 7.5 -16.65 7.45 -16.8 7.15 -16.95 7.0 -17.1 5.75 -17.4 4.9 -17.75 3.35 -17.75 3.2 -17.8 3.15 -18.1 1.2 -18.1 0.6 -18.15 -1.3 -18.1 -1.95 -18.1 -2.2 -18.1 -2.4 -18.05 -3.25 -18.1 -3.25 -18.05 -3.6 -18.0 -3.65 -18.0 -3.95 -17.85 -4.1 -17.8 -4.2 -17.8 -4.4 -17.8 -4.5 -17.75 -4.7 -17.65 -5.8 -17.4 -6.1 -17.05 -7.35 -16.45 -8.85 -14.5 -12.75 -14.05 -13.35 -12.65 -15.2 -11.25 -16.75 -10.55 -17.35 -9.1 -18.45 -7.9 -19.25 Q-7.0 -19.5 -6.1 -19.9 L-5.7 -20.05 -4.25 -20.5 -3.85 -20.55 -2.85 -20.85 -2.75 -20.85 -2.35 -20.9 -1.4 -20.95 -1.2 -20.95 -1.05 -20.95 -0.3 -20.95 0.2 -20.95 0.45 -20.95 2.35 -20.9 5.45 -20.3 8.3 -19.2 11.3 -17.0 11.35 -16.95 Q11.55 -16.4 12.05 -16.35 12.4 -15.8 13.0 -15.35 13.3 -14.6 13.75 -13.9 L14.6 -12.75 14.95 -12.1 16.4 -9.4 16.4 -9.35 16.6 -8.75 16.95 -8.25 17.2 -7.0 17.6 -6.1 17.8 -3.8 18.05 -2.85 18.0 -2.75 18.1 -1.8 18.0 0.45 18.0 1.45 17.9 1.45 17.9 1.35 17.8 1.8 17.4 4.8 16.9 6.7 Q16.6 7.2 16.55 7.85 L15.05 10.85 14.8 11.45 14.5 12.05 Q14.2 12.3 14.05 12.65 L13.85 12.7 13.75 12.8 13.75 13.0 13.55 13.2 13.35 13.4 12.1 14.65 11.65 14.9 11.65 14.95 11.55 14.95 11.5 15.05 11.5 15.1 11.3 15.2 11.15 15.55 10.9 15.6 10.5 15.85 Q9.1 17.05 7.4 17.7 L6.55 18.15 6.05 18.35 4.7 18.75 4.65 18.75 0.85 19.2 0.45 19.15 0.3 19.15 0.2 19.15 -0.3 19.15 -0.7 19.1 -1.1 19.05 -1.5 19.05 -1.7 19.05 -3.45 18.65 -3.5 18.65 -4.55 18.35 -4.85 18.35 -7.05 17.55 -7.7 17.35 -8.05 17.2 -8.6 16.9 -10.65 15.5 M9.9 -10.9 L10.0 -10.9 10.5 -10.0 10.6 -9.5 10.6 -9.15 10.6 -8.05 10.6 -7.85 10.55 -7.3 10.3 -6.65 10.15 -6.0 9.9 -5.95 9.75 -5.65 9.55 -5.4 9.5 -5.35 9.45 -5.3 9.35 -5.3 9.3 -5.2 9.3 -5.05 9.2 -5.0 9.1 -5.0 9.05 -5.05 9.1 -5.2 9.2 -5.2 9.2 -5.25 9.3 -5.3 9.3 -5.35 9.0 -5.2 8.9 -5.05 8.7 -4.95 8.6 -4.95 8.6 -5.0 Q8.05 -4.55 7.35 -4.8 L7.5 -4.8 8.3 -4.9 Q8.5 -4.95 8.7 -5.2 8.45 -5.05 8.25 -5.0 L8.15 -5.0 8.85 -5.35 7.85 -5.2 8.1 -5.25 7.9 -5.25 7.85 -5.25 8.3 -5.35 8.85 -5.95 8.9 -6.0 8.9 -5.95 8.85 -5.75 8.95 -5.95 8.95 -6.0 9.1 -6.05 9.2 -6.1 8.85 -6.1 8.85 -6.2 8.75 -6.25 8.55 -6.4 8.5 -6.45 8.45 -6.6 8.3 -6.6 8.3 -6.65 8.25 -6.7 8.3 -6.8 8.2 -6.95 7.7 -7.0 7.5 -6.95 6.45 -6.2 6.15 -6.0 5.35 -5.65 5.3 -5.55 4.55 -4.9 4.1 -4.4 3.95 -4.35 3.85 -4.2 2.75 -3.3 1.9 -3.0 2.3 -3.25 2.35 -3.25 2.6 -3.3 3.65 -4.15 3.85 -4.4 4.5 -5.2 4.95 -5.65 4.85 -5.6 4.7 -5.6 4.55 -5.55 4.6 -5.6 4.6 -5.65 4.65 -5.65 4.65 -5.8 4.85 -6.0 4.6 -6.0 4.6 -5.95 3.1 -4.9 2.3 -4.5 3.0 -4.9 3.15 -5.05 Q2.5 -4.6 1.65 -4.55 L1.65 -4.6 1.75 -4.6 Q2.15 -4.65 2.5 -4.95 L4.1 -6.2 4.85 -7.2 4.9 -7.55 4.95 -7.65 5.3 -8.05 5.85 -8.5 6.1 -8.55 6.45 -8.45 6.65 -8.25 6.65 -8.05 6.65 -7.8 6.65 -7.65 6.6 -7.45 6.7 -7.55 Q7.3 -8.1 7.7 -8.8 L7.7 -8.85 7.8 -8.85 7.8 -8.9 7.85 -9.0 7.8 -9.0 7.8 -9.15 8.25 -10.6 8.3 -10.85 8.3 -10.95 8.3 -11.0 8.45 -11.2 8.6 -11.3 8.75 -11.3 8.7 -11.25 8.85 -11.25 9.45 -11.2 9.5 -11.2 9.6 -11.2 9.75 -10.95 9.9 -10.9 M9.55 -5.75 L9.5 -5.65 9.3 -5.35 9.45 -5.55 9.5 -5.55 9.5 -5.65 9.55 -5.65 9.55 -5.75 9.6 -5.8 9.65 -5.9 9.55 -5.75 M-11.35 -10.9 L-11.1 -10.9 -10.95 -11.05 -10.7 -11.05 -10.55 -11.2 -10.35 -11.2 -10.2 -11.2 -9.95 -11.2 -10.05 -11.25 -9.9 -11.25 -9.7 -11.05 -9.65 -10.95 -9.6 -10.9 -9.6 -10.75 -9.6 -10.55 -9.05 -9.0 -9.05 -8.9 -8.85 -8.6 -7.9 -7.4 -7.9 -7.55 -7.9 -7.75 -7.9 -7.95 -7.95 -8.05 -7.9 -8.05 -7.9 -8.15 -7.8 -8.4 -7.3 -8.5 -7.1 -8.45 -6.5 -8.05 -6.15 -7.55 -6.15 -7.45 -6.05 -7.15 -5.25 -6.1 -3.7 -4.9 -2.9 -4.55 -2.85 -4.55 -2.85 -4.5 -4.45 -5.0 -4.2 -4.8 -3.5 -4.5 -3.5 -4.4 -4.35 -4.8 -4.55 -4.9 -4.0 -4.5 -5.05 -5.2 -4.95 -5.0 -4.95 -4.9 -4.85 -4.7 -4.7 -4.65 -4.85 -4.65 -4.7 -4.6 -4.1 -4.1 -4.45 -4.25 -3.9 -3.8 -3.85 -3.75 -3.8 -3.65 -4.1 -3.8 -5.9 -5.35 -6.1 -5.55 -6.15 -5.65 Q-6.15 -5.6 -6.25 -5.6 L-6.1 -5.4 -5.65 -5.05 -5.05 -4.35 -3.8 -3.3 -3.55 -3.25 -3.5 -3.25 -3.1 -2.9 Q-3.5 -3.0 -3.9 -3.25 L-5.05 -4.15 -5.25 -4.25 Q-6.05 -4.8 -6.7 -5.65 L-7.05 -5.75 -7.3 -5.95 -7.35 -6.0 -7.8 -6.1 -8.05 -6.35 -8.85 -6.85 -8.95 -6.95 -9.5 -6.85 -9.6 -6.75 -9.6 -6.6 -9.65 -6.45 -9.7 -6.45 -9.7 -6.4 -9.8 -6.4 -9.85 -6.35 -10.05 -6.2 -10.15 -6.1 -10.15 -6.05 -10.2 -6.05 -10.55 -6.05 -10.45 -6.0 -10.25 -5.95 -10.25 -5.8 -10.2 -5.75 -10.2 -5.8 -9.6 -5.35 -9.25 -5.2 -9.3 -5.2 -9.25 -5.05 -10.05 -5.35 -10.15 -5.35 -9.45 -4.95 -9.6 -4.95 -9.95 -5.05 -9.6 -4.8 -9.05 -4.65 -8.85 -4.7 -8.6 -4.7 -9.05 -4.6 Q-9.5 -4.6 -9.9 -4.95 L-9.9 -4.9 -9.95 -4.9 -10.2 -5.0 -10.3 -5.05 -10.35 -5.25 -10.55 -5.35 -10.65 -5.4 -10.65 -5.55 -10.7 -5.55 -10.9 -5.6 -10.95 -5.65 -11.25 -5.75 -11.3 -5.75 -11.35 -5.95 -11.35 -6.0 -11.4 -6.05 -11.65 -6.6 -11.65 -6.65 -11.95 -7.95 -11.95 -8.25 -11.95 -9.0 -11.95 -9.4 -11.95 -9.55 -11.85 -9.95 -11.4 -10.65 -11.35 -10.75 -11.35 -10.9 M8.6 -8.05 L8.85 -8.05 9.2 -8.1 9.05 -8.15 8.95 -8.15 8.85 -8.15 8.6 -8.15 8.6 -8.05 M8.95 -9.2 L8.75 -9.15 8.7 -9.15 8.6 -9.0 8.5 -8.85 8.5 -8.8 8.45 -8.75 8.45 -8.7 Q8.3 -8.7 8.45 -8.6 L8.55 -8.6 8.9 -8.7 9.0 -8.75 9.05 -8.8 9.3 -9.0 9.05 -9.15 8.95 -9.2 M8.85 -9.75 L8.85 -9.8 8.7 -9.95 8.55 -9.8 8.55 -9.75 8.6 -9.65 8.5 -9.4 8.25 -9.2 8.25 -9.15 8.2 -8.85 8.2 -8.8 8.45 -8.9 8.45 -9.15 8.55 -9.2 8.75 -9.4 8.9 -9.65 8.9 -9.75 8.85 -9.75 M8.9 -5.35 L8.9 -5.3 9.2 -5.6 9.1 -5.6 8.9 -5.35 M9.6 -6.25 L9.55 -6.25 9.5 -6.1 9.55 -6.1 9.5 -6.05 9.3 -5.65 9.55 -6.1 9.6 -6.25 M8.7 -5.4 L8.75 -5.6 8.6 -5.4 8.7 -5.4 M9.75 -6.0 L9.8 -6.0 9.85 -6.1 9.85 -6.2 9.75 -6.0 M6.25 -5.2 L6.55 -5.05 6.6 -5.05 6.65 -5.0 6.8 -5.0 6.95 -5.0 7.05 -4.9 7.15 -4.8 7.4 -4.65 7.5 -4.55 7.65 -4.4 7.65 -4.25 7.7 -4.25 7.75 -4.2 7.8 -4.15 7.8 -3.75 7.8 -3.25 7.8 -3.15 7.85 -2.85 7.75 -2.4 7.7 -2.4 7.7 -2.2 7.65 -2.2 7.45 -2.05 7.3 -1.85 7.15 -1.8 7.05 -1.8 6.95 -1.7 6.8 -1.55 6.7 -1.55 6.6 -1.4 Q5.95 -1.35 5.4 -1.75 L5.4 -1.8 5.15 -2.0 4.95 -2.05 4.9 -2.4 4.9 -2.65 4.9 -2.85 4.9 -3.4 4.9 -3.65 4.95 -4.25 5.0 -4.4 5.25 -4.55 5.35 -4.65 5.4 -4.8 5.45 -4.95 6.1 -5.05 6.25 -5.2 M6.45 -0.4 L6.6 -0.6 Q7.4 -1.0 7.9 -1.95 L8.7 -2.4 8.7 -2.5 8.95 -2.65 9.05 -2.8 9.1 -2.8 9.3 -2.75 9.35 -2.65 9.45 -2.8 9.5 -2.9 9.6 -3.15 9.75 -3.15 9.8 -3.05 10.0 -3.3 9.9 -3.05 9.9 -3.0 10.15 -2.9 10.25 -2.9 10.3 -2.9 10.5 -2.75 10.65 -2.65 10.65 -2.55 11.4 -1.95 11.8 -1.35 11.9 -1.25 11.95 -1.2 11.95 -1.15 12.05 -0.95 12.05 -0.75 11.95 0.1 11.35 1.45 Q11.05 1.9 11.15 2.25 L11.0 2.2 11.0 2.25 10.65 2.35 10.55 2.4 10.55 2.45 10.5 2.45 Q10.25 2.45 10.15 2.6 10.0 2.6 10.0 2.75 L9.05 2.95 5.95 2.75 Q6.7 2.6 6.25 2.45 L6.3 2.4 6.9 2.4 Q7.15 2.15 7.65 2.15 L7.7 2.05 7.8 1.9 Q8.3 1.8 7.75 1.8 L7.7 1.7 7.7 1.5 7.5 1.5 7.5 1.45 7.5 1.4 7.5 1.1 7.5 1.05 7.45 1.05 7.4 0.75 Q7.3 0.65 7.5 0.6 L5.7 0.65 5.65 0.6 5.85 0.3 5.95 0.3 5.95 0.1 6.25 -0.05 6.4 -0.25 6.45 -0.25 6.45 -0.4 M8.9 -1.85 L8.3 -1.55 7.8 -1.15 7.45 -0.95 7.15 -0.75 7.15 -0.6 7.05 -0.6 7.0 -0.55 7.05 -0.45 8.05 -0.8 9.45 -1.8 9.35 -1.8 9.3 -1.85 9.05 -1.95 9.05 -1.85 8.9 -1.85 M3.45 -4.7 L3.5 -4.7 3.25 -4.6 3.45 -4.7 M3.45 -4.9 L3.95 -5.35 4.1 -5.35 4.1 -5.2 3.75 -4.95 3.75 -5.0 3.65 -5.0 3.45 -4.9 M4.55 -5.65 L4.2 -5.25 4.15 -5.25 4.15 -5.35 4.55 -5.75 4.55 -5.65 M4.15 -4.95 L3.95 -4.7 4.1 -4.95 4.15 -4.95 M2.5 -4.5 Q2.75 -4.5 3.0 -4.65 L3.15 -4.6 2.8 -4.5 2.7 -4.5 2.5 -4.4 2.5 -4.5 M2.3 -4.5 L2.2 -4.4 2.2 -4.5 2.3 -4.5 M1.65 -3.95 L1.5 -3.9 1.6 -3.95 1.65 -3.95 M2.45 -3.55 L2.3 -3.45 2.35 -3.6 2.45 -3.55 2.7 -3.75 2.75 -3.8 3.05 -3.95 2.45 -3.55 M3.5 -4.15 L3.75 -4.35 3.55 -4.2 3.5 -4.15 2.8 -3.6 2.75 -3.6 3.1 -3.85 3.45 -4.15 3.5 -4.15 M3.65 -4.55 L3.45 -4.2 3.3 -4.15 3.1 -3.95 3.3 -4.2 3.65 -4.55 M3.75 5.55 L4.1 5.7 4.3 5.7 4.35 5.75 3.9 5.7 3.8 5.7 3.55 5.55 3.55 5.5 3.5 5.4 2.75 5.35 2.8 5.4 2.85 5.4 3.05 5.45 3.5 5.6 3.55 5.6 3.55 5.7 3.75 5.7 4.3 5.8 4.6 5.9 4.2 5.95 4.15 5.95 3.5 5.75 3.25 5.7 3.0 5.7 2.9 5.7 2.75 5.55 2.7 5.55 1.9 5.35 1.85 5.4 1.4 5.05 1.15 4.9 1.05 4.75 0.85 4.65 0.75 4.6 0.95 4.55 1.0 4.55 1.15 4.65 1.35 4.75 1.4 4.65 1.45 4.65 1.05 4.4 1.05 4.2 1.45 4.2 1.5 4.2 1.6 4.15 1.65 4.15 1.8 4.0 1.85 4.15 2.15 4.15 2.15 4.0 2.2 3.95 2.6 4.0 2.8 4.15 2.8 4.0 2.85 4.0 3.5 4.25 3.75 4.55 3.55 4.4 3.45 4.3 3.3 4.25 3.0 4.15 4.2 4.9 3.95 4.65 4.2 4.75 4.2 4.9 4.2 4.95 4.3 5.0 4.5 5.0 4.55 5.05 4.35 5.15 4.3 5.15 4.2 5.0 4.15 5.05 4.2 5.05 4.15 5.15 4.1 5.05 3.9 5.0 3.75 5.0 3.65 4.95 3.55 5.0 3.5 5.0 3.25 4.95 2.85 4.75 3.05 4.95 3.25 5.05 3.55 5.4 3.65 5.45 3.65 5.5 3.75 5.55 M2.6 5.75 L2.8 5.8 2.8 5.9 2.7 5.8 2.6 5.75 M-3.1 5.5 L-3.25 5.6 -3.35 5.6 -3.65 5.7 -3.8 5.75 -3.85 5.7 -3.35 5.5 -3.8 5.55 -4.3 5.6 -4.45 5.6 -4.55 5.55 -4.65 5.55 -4.85 5.55 -4.9 5.5 -4.35 5.55 -4.25 5.55 -3.25 5.4 -2.7 5.05 -2.6 4.95 -2.45 4.75 -2.85 5.0 -3.1 5.0 -3.15 5.0 -3.25 5.05 -3.35 5.05 -3.55 5.15 -3.85 5.25 -3.9 5.35 -4.35 5.35 -3.9 5.25 -3.85 5.25 -3.2 4.8 -3.9 4.95 Q-3.8 4.75 -3.45 4.65 L-3.5 4.65 -3.25 4.4 -3.7 4.6 -3.85 4.65 -3.9 4.65 -4.1 4.6 -4.2 4.65 -4.35 4.65 -4.55 4.75 -4.6 4.7 -4.55 4.7 -4.6 4.65 -4.7 4.75 -4.85 4.75 -4.95 4.7 -4.9 4.65 -4.7 4.65 -4.6 4.6 -4.6 4.4 -3.9 4.15 -3.85 4.0 -3.25 3.8 -3.15 3.8 -2.95 3.65 -2.6 3.6 -2.55 3.65 -2.55 3.85 -2.2 3.85 -2.15 3.65 -2.1 3.8 -1.9 3.8 -1.9 3.85 -1.85 3.9 -1.4 3.9 -1.4 4.0 -1.35 4.15 -1.3 4.15 -1.15 4.15 -1.85 4.7 -1.2 4.4 -1.15 4.4 -1.0 4.25 -1.15 4.25 -1.1 4.2 -1.0 4.2 -0.85 4.15 -0.65 4.15 -0.65 4.2 -0.9 4.4 -0.65 4.4 -0.85 4.55 -2.05 5.05 -2.2 5.25 -2.2 5.15 -2.05 5.05 -1.75 4.75 -2.45 5.15 -3.1 5.5 M1.3 4.3 L1.35 4.4 1.4 4.3 1.5 4.4 1.6 4.4 1.5 4.3 1.4 4.3 1.3 4.3 M3.35 4.15 L3.3 4.15 2.8 3.65 3.2 3.85 3.15 3.8 3.1 3.65 3.3 3.6 Q3.75 3.6 4.2 3.9 3.85 3.6 3.5 3.45 L3.5 3.35 3.55 3.25 3.75 3.25 3.85 3.35 3.9 3.15 4.1 3.15 4.3 3.25 4.7 3.35 4.9 3.45 6.1 4.3 6.15 4.3 6.25 4.4 6.45 4.4 6.4 4.6 6.15 4.4 5.6 4.2 5.95 4.4 5.7 4.4 5.35 4.4 5.3 4.4 4.95 4.4 4.25 4.2 3.25 3.8 3.55 4.0 3.55 4.15 3.45 4.15 3.35 4.15 M3.55 4.15 L3.95 4.2 3.9 4.2 4.1 4.3 4.1 4.4 4.2 4.4 4.6 4.65 4.1 4.4 3.95 4.4 3.65 4.25 3.55 4.2 3.55 4.15 M3.85 4.25 L3.8 4.25 3.9 4.3 3.85 4.25 M4.65 3.65 L4.6 3.55 3.95 3.35 4.65 3.65 M9.1 -0.95 L8.9 -0.8 8.3 -0.45 9.2 -0.8 9.1 -0.95 M9.3 -0.55 L8.3 -0.1 9.35 -0.35 9.3 -0.55 M8.2 -0.8 L7.85 -0.6 7.9 -0.6 8.2 -0.8 M8.9 -0.8 L8.2 -0.6 8.1 -0.45 8.9 -0.8 M8.7 0.25 L9.5 0.0 8.55 0.1 8.7 0.25 M8.75 0.75 L9.55 0.7 9.65 0.65 9.0 0.7 8.6 0.75 8.75 0.75 M8.75 1.05 L9.8 0.95 8.85 0.8 Q8.5 0.8 8.75 1.05 M8.85 1.4 L8.85 1.7 9.9 1.7 9.9 1.4 8.85 1.4 M9.75 2.35 L9.85 2.15 9.75 2.05 8.85 1.95 9.65 2.4 9.75 2.35 M8.3 2.75 L9.35 2.6 8.15 2.55 8.3 2.75 8.15 2.75 7.85 2.8 8.3 2.75 M11.25 14.95 L11.3 14.8 10.7 15.15 11.25 14.95 M3.05 5.05 L2.9 5.0 2.85 4.95 2.6 4.9 1.85 4.65 1.65 4.45 1.8 4.7 2.2 4.8 Q2.8 5.0 3.3 5.35 L3.05 5.05 M3.05 5.5 L3.25 5.6 3.3 5.6 3.15 5.55 3.05 5.5 M1.75 5.05 L2.2 5.4 1.65 4.8 1.75 5.05 M1.75 5.15 L1.5 4.7 1.45 4.7 1.45 4.8 1.75 5.15 M0.95 5.25 L0.85 5.25 0.75 5.15 0.75 5.05 0.95 5.25 M2.2 18.8 L2.35 18.7 1.75 18.9 1.5 19.05 1.4 19.1 1.5 19.15 1.65 19.15 1.65 19.1 1.85 19.0 2.05 18.95 2.2 18.9 2.2 18.8 M-9.9 -10.15 L-9.95 -10.2 Q-10.05 -10.2 -10.15 -10.3 L-10.25 -10.2 -10.25 -10.15 -10.2 -9.75 -9.95 -9.35 -9.85 -9.2 -9.8 -9.0 -9.7 -8.9 -9.7 -8.85 -9.6 -8.85 -9.6 -8.9 -9.6 -9.2 -9.8 -9.65 -9.9 -10.15 M-7.15 -4.8 L-7.0 -4.8 -6.75 -4.7 -6.3 -4.7 -6.3 -4.65 -6.1 -4.5 -6.05 -4.5 -6.0 -4.4 -5.45 -3.8 -5.35 -3.15 -5.35 -2.85 -5.4 -2.75 -5.35 -2.6 -5.45 -2.1 -5.45 -2.05 -5.65 -2.0 -5.7 -1.95 -5.75 -1.8 -5.9 -1.75 -6.0 -1.7 -6.15 -1.7 -6.35 -1.55 -7.25 -1.55 -7.35 -1.65 -7.45 -1.7 Q-7.7 -1.8 -7.75 -1.85 L-7.85 -1.95 -7.85 -2.0 -8.05 -2.1 -8.15 -2.15 -8.15 -2.5 -8.2 -2.5 -8.2 -2.55 -8.25 -2.55 -8.45 -2.65 -8.5 -2.65 -8.5 -2.85 -8.5 -3.25 -8.55 -3.4 -8.5 -4.1 -8.5 -4.25 -8.5 -4.4 -8.45 -4.5 -8.2 -4.5 -8.15 -4.55 -8.15 -4.6 -7.95 -4.65 -7.35 -4.9 -7.15 -4.8 M-10.05 -9.3 L-10.15 -9.35 -10.2 -9.4 -10.3 -9.4 -10.45 -9.5 -10.6 -9.5 -10.65 -9.4 -10.3 -9.2 -9.95 -9.15 -10.05 -9.3 M-13.45 0.2 L-13.4 -0.05 -13.2 -0.35 -13.25 -0.45 Q-13.45 -1.35 -13.1 -1.95 L-12.7 -2.55 -12.7 -2.65 -12.7 -2.85 -12.5 -3.15 -12.05 -3.45 -12.0 -3.45 -12.0 -3.6 -11.85 -3.6 -11.8 -3.65 -11.8 -3.75 -11.75 -3.8 -11.6 -3.95 -11.35 -3.95 -11.3 -4.1 -11.25 -4.1 -11.1 -3.95 -11.0 -3.95 -10.95 -3.8 -10.05 -3.15 -9.8 -2.9 Q-9.35 -2.8 -9.25 -2.5 -8.6 -1.65 -7.85 -1.15 L-7.7 -0.8 -7.45 -0.6 -7.35 -0.6 -7.15 -0.45 -7.1 -0.35 -7.05 -0.35 -6.85 -0.05 -6.85 0.0 Q-6.7 0.05 -6.5 0.25 L-8.1 -0.35 Q-8.55 -0.35 -8.8 -0.05 -8.5 0.0 -8.6 0.3 L-8.7 0.45 -8.8 0.45 -8.8 0.6 -8.8 0.75 -8.7 0.8 -8.8 0.95 -8.9 0.95 -8.9 1.1 -8.95 1.2 Q-9.6 1.2 -9.05 1.4 L-8.9 1.45 -8.85 1.6 Q-8.5 1.6 -8.1 1.9 L-7.45 1.9 -7.35 1.9 Q-7.9 2.05 -7.15 2.1 L-7.85 2.35 -8.95 2.4 -9.05 2.4 -9.8 2.3 -9.85 2.25 -9.95 2.2 -10.55 2.1 -11.4 1.95 -11.75 1.9 -11.8 1.9 -12.2 1.8 -12.3 1.8 -12.4 1.75 -12.45 1.75 -12.45 1.7 -12.5 1.7 -12.5 1.75 -12.6 1.7 -12.7 1.7 -12.8 1.7 -12.85 1.6 -12.9 1.6 -12.95 1.6 -13.0 1.7 -13.1 1.6 -13.4 1.45 -13.45 0.4 -13.45 0.35 -13.45 0.25 -13.45 0.2 M-10.65 -8.9 L-10.55 -8.85 -10.35 -8.9 -10.45 -9.0 -10.6 -9.15 -10.65 -9.0 -10.65 -8.9 M-10.95 -6.2 L-10.9 -6.05 -10.7 -6.05 -10.9 -6.2 -10.95 -6.2 M-10.9 -5.75 L-11.1 -6.0 -11.3 -6.1 -11.3 -6.05 -11.25 -6.0 -11.1 -5.95 -11.0 -5.8 -10.95 -5.75 -10.9 -5.75 -10.9 -5.6 -10.7 -5.6 -10.9 -5.75 M-10.55 -5.55 L-10.2 -5.25 -10.2 -5.35 -10.45 -5.55 -10.55 -5.55 M-10.35 -5.65 L-10.3 -5.65 -10.35 -5.75 -10.35 -5.65 M-10.9 -6.05 L-10.6 -5.6 -10.7 -6.0 -10.9 -6.05 M-9.25 -1.75 L-9.25 -1.8 -9.3 -1.85 -9.8 -2.4 -9.9 -2.45 -10.7 -2.55 -10.95 -2.55 -11.0 -2.55 -11.05 -2.5 -10.2 -2.05 -10.15 -2.0 -9.5 -1.7 -9.35 -1.7 -9.25 -1.7 -9.1 -1.7 -9.25 -1.75 M-10.25 -1.35 L-10.25 -1.7 -10.3 -1.75 -10.35 -1.8 -10.6 -1.8 -10.95 -1.8 -10.95 -1.75 -11.0 -1.7 -10.95 -1.65 -10.7 -1.55 -10.65 -1.55 -10.6 -1.35 -10.45 -1.35 -9.6 -1.0 -10.25 -1.35 M-11.3 0.75 L-11.3 1.1 -10.05 1.1 -10.05 0.75 -11.3 0.75 M-10.6 -1.05 L-10.65 -0.85 -9.6 -0.6 -10.6 -1.05 M-10.25 0.1 L-10.95 0.0 -10.7 0.1 -10.25 0.1 M-10.05 1.45 L-11.0 1.45 -11.25 1.6 -11.0 1.8 -10.95 1.9 -10.05 1.45 M-10.05 0.35 L-11.1 0.4 -9.95 0.45 Q-9.7 0.35 -10.05 0.35 M-3.65 -3.95 L-2.85 -3.75 -2.75 -3.75 -3.5 -3.85 -3.7 -3.95 -3.7 -4.15 -3.65 -4.15 -3.65 -3.95 M-5.8 -5.6 L-5.25 -5.0 -5.05 -4.9 -5.25 -5.05 -5.7 -5.55 -5.8 -5.6 M-6.05 -5.95 L-6.0 -5.8 -5.8 -5.75 -5.75 -5.75 -5.75 -5.65 -5.3 -5.3 -5.25 -5.25 -5.05 -5.2 -5.35 -5.4 -5.8 -5.8 -5.8 -5.95 -6.05 -5.95 M-5.9 -4.95 L-5.6 -4.6 -5.7 -4.8 -5.9 -4.95 M-6.15 -4.95 L-4.6 -3.45 -5.05 -3.8 -5.6 -4.2 -6.5 -5.25 -6.15 -4.95 M-9.9 -5.35 L-10.05 -5.5 -9.95 -5.35 -9.9 -5.35 M-9.45 -1.25 L-10.2 -1.4 -9.3 -1.0 -9.45 -1.25 M-9.9 -0.4 L-9.8 -0.45 -10.7 -0.6 -9.9 -0.4 M-9.95 0.25 L-9.85 0.25 -10.2 0.1 -9.95 0.25 M-9.25 -1.25 L-9.1 -1.25 -9.45 -1.35 -9.25 -1.25 M-9.1 2.15 L-9.35 2.1 -9.6 2.1 -9.35 1.95 -10.65 2.05 -9.6 2.1 -9.1 2.15 M-6.6 4.15 L-5.4 3.35 -5.35 3.35 -5.25 3.2 -4.85 3.15 -4.45 3.1 -4.35 3.15 -4.25 3.15 -4.1 3.15 -4.1 3.1 -3.9 3.15 -3.9 3.2 -4.6 3.6 -3.8 3.45 -3.55 3.45 -4.65 3.95 -5.4 4.15 -5.45 4.2 -5.7 4.15 -5.75 4.15 -6.15 4.2 -6.35 4.2 -6.45 4.2 -6.1 4.0 -6.6 4.2 -6.85 4.3 -7.0 4.2 -6.7 4.15 -6.6 4.15 M-2.15 4.2 L-1.9 4.15 -1.85 4.15 -1.7 4.0 -1.85 4.0 -2.15 4.2 M-1.2 4.55 L-1.45 4.65 -1.15 4.55 -1.2 4.55 M-2.25 4.75 L-2.5 4.95 -2.25 4.8 -2.25 4.75 M-2.15 4.8 L-2.15 4.95 -1.85 4.7 -2.15 4.8 M-3.1 4.9 L-3.25 5.0 -3.1 4.95 -3.1 4.9" fill="#000000" fill-rule="evenodd" stroke="none"/>
      <path d="M-7.45 14.65 L-7.3 14.9 -7.15 14.95 -7.05 14.9 -7.15 14.75 -6.75 14.9 -6.5 14.95 -7.25 13.2 -7.35 12.5 -7.4 12.05 -7.4 11.8 -7.35 11.4 -7.35 11.25 -7.35 11.0 -7.3 10.95 -7.15 12.0 Q-6.9 13.7 -6.1 15.05 L-4.45 15.5 -1.7 15.85 -1.7 15.6 -1.5 15.15 Q-1.8 14.6 -1.7 13.8 L-1.5 13.0 -1.5 12.65 -1.45 12.5 -1.3 14.15 -1.15 15.1 -1.05 15.6 -1.05 15.8 -1.1 15.8 -1.15 15.85 -1.2 15.9 -1.2 16.0 -1.15 16.15 -1.1 16.2 -1.05 16.25 -0.85 16.3 -0.7 16.3 -0.6 16.3 -0.5 16.3 -0.45 16.3 -0.35 16.25 -0.35 16.2 -0.35 16.0 -0.35 15.9 -0.45 15.85 -0.3 15.85 0.2 15.85 0.45 15.9 0.7 15.9 Q2.15 15.5 3.5 14.65 4.9 13.9 5.7 12.4 L3.55 12.25 0.7 11.95 0.45 11.95 Q0.3 11.8 0.2 11.8 L-0.15 11.75 -0.3 11.75 -0.85 11.7 -1.05 11.7 -2.35 11.45 -3.35 11.25 -3.35 11.2 -3.25 11.1 -3.2 11.0 -3.15 10.95 -3.15 10.35 -3.15 10.3 -1.5 10.65 -0.3 10.75 0.2 10.85 0.45 10.85 1.5 10.9 2.1 10.9 2.15 10.9 3.95 10.85 4.1 10.75 4.5 10.75 5.15 10.65 5.15 10.6 Q5.15 10.4 5.3 10.35 L5.35 10.35 5.65 10.55 6.8 10.2 6.8 9.9 6.9 9.6 6.95 9.55 7.05 9.55 7.1 9.55 7.35 9.55 7.65 9.6 7.7 9.7 7.75 9.8 7.75 9.85 7.8 9.9 8.7 9.6 8.7 9.55 8.9 9.55 10.15 9.15 12.25 8.2 12.85 7.8 15.3 5.7 15.15 5.6 Q15.9 2.8 16.05 -0.35 L16.15 -1.3 15.9 -2.45 Q15.7 -5.35 14.7 -8.05 13.55 -11.05 11.9 -13.95 L10.95 -15.55 10.65 -15.8 10.3 -16.05 10.5 -16.15 10.6 -16.05 10.95 -15.85 11.3 -15.55 11.35 -15.55 11.4 -15.6 11.4 -15.85 11.5 -15.95 11.55 -15.85 11.65 -15.8 11.65 -15.6 11.7 -15.6 13.0 -13.95 13.7 -12.8 13.75 -12.75 14.5 -11.3 15.35 -9.4 16.4 -6.35 16.6 -5.35 16.95 -4.4 17.05 -3.6 17.2 -1.8 17.2 -1.55 17.05 1.05 17.0 2.1 16.6 3.8 16.5 3.95 16.55 3.95 16.05 5.9 15.05 8.6 14.8 9.1 14.7 9.2 14.4 10.0 13.7 11.1 13.05 12.05 12.55 12.6 12.4 12.7 12.15 12.8 11.8 13.1 11.25 13.7 11.05 13.8 10.65 14.1 10.4 14.55 10.15 14.75 7.85 16.3 7.35 16.6 7.3 16.65 7.15 16.6 Q6.9 16.7 6.65 16.9 L2.15 18.3 1.65 18.2 1.45 18.2 1.4 18.3 1.3 18.3 1.15 18.2 0.6 18.3 0.45 18.3 0.2 18.35 -0.1 18.35 -0.35 18.35 -1.3 18.3 -3.5 17.85 -4.35 17.55 -4.35 17.6 -4.45 17.6 -4.55 17.45 -4.55 17.4 -6.15 16.75 -7.85 16.0 -7.9 15.95 -8.15 15.9 -8.15 15.85 -8.2 15.8 -9.95 14.65 -10.35 14.35 -12.0 13.05 -12.45 12.7 -12.45 12.65 -13.05 12.15 -13.5 11.7 -13.6 11.6 -13.8 11.35 -13.75 11.25 -13.7 11.35 -13.4 11.6 -13.0 12.05 -12.9 12.05 -13.1 11.75 -13.45 11.25 -13.7 10.9 -14.25 10.25 -14.6 9.9 -14.65 9.85 -14.6 9.8 -14.45 9.8 -14.45 9.7 -14.15 9.8 Q-12.45 11.8 -10.2 13.2 L-9.95 13.4 -9.8 13.45 -9.7 13.5 -9.65 13.5 -9.6 13.55 -9.45 13.7 -9.35 13.75 -9.3 13.75 -9.3 13.8 -9.1 13.85 -9.05 13.85 -9.05 13.9 -7.45 14.65 M15.8 5.0 L15.75 4.95 15.7 5.15 15.8 5.0 M9.75 12.8 L9.75 12.6 9.75 12.4 9.6 12.35 9.5 12.4 9.45 12.4 9.45 12.5 9.45 12.65 9.45 12.7 9.05 13.2 9.0 13.35 7.05 15.1 6.95 15.2 6.6 15.55 6.95 15.6 8.1 14.9 9.45 13.5 9.75 12.8 M4.35 15.6 L4.3 15.8 2.2 16.95 3.65 16.3 3.75 16.3 3.85 16.3 4.3 16.0 4.9 15.7 4.9 15.6 6.05 14.75 Q7.1 13.85 7.75 12.5 L7.85 12.2 7.75 12.15 7.5 12.2 7.5 12.15 7.45 12.0 7.4 11.95 7.35 11.85 7.1 12.05 6.95 12.05 6.9 12.15 6.7 12.15 6.65 12.4 6.65 12.55 6.45 12.85 6.4 12.85 6.4 12.95 6.3 13.0 6.3 13.15 6.3 13.2 6.4 13.3 6.25 13.35 Q5.45 14.65 4.35 15.6 M-6.3 15.4 L-6.25 15.4 -6.3 15.35 -6.3 15.4" fill="#ba7001" fill-rule="evenodd" stroke="none"/>
      <path d="M-7.0 -12.1 L-6.9 -12.1 -6.85 -12.35 -6.75 -12.5 -6.75 -12.6 -6.7 -12.6 -6.7 -12.85 -6.6 -12.95 -6.6 -13.15 -6.5 -13.15 -6.5 -13.35 -6.45 -13.45 -6.45 -13.55 -6.3 -13.7 -6.3 -13.8 -6.15 -14.05 -6.15 -14.15 -6.1 -14.2 -6.0 -14.2 -6.0 -14.1 -6.1 -13.9 -6.1 -13.7 -6.15 -13.65 -6.15 -13.5 -6.15 -13.45 -6.15 -13.35 -6.25 -13.15 -6.25 -13.1 -6.25 -12.95 -6.3 -12.8 -6.35 -12.75 -6.35 -12.5 -6.35 -12.35 -6.3 -12.1 -6.35 -12.05 Q-6.7 -11.8 -7.0 -12.05 L-7.0 -12.1 M7.3 -12.6 L7.1 -12.6 7.1 -12.75 7.1 -12.85 7.05 -12.95 7.05 -13.15 7.0 -13.15 7.0 -13.4 7.0 -13.5 6.95 -13.55 7.0 -13.65 7.0 -13.7 7.1 -13.7 7.1 -13.55 7.15 -13.55 7.3 -13.5 7.3 -13.45 7.35 -13.45 7.35 -13.35 7.35 -13.2 7.45 -12.85 7.65 -12.65 7.3 -12.6 M8.7 -13.0 L8.55 -13.0 8.3 -13.1 8.3 -13.45 8.2 -13.65 8.15 -13.8 8.15 -13.9 8.2 -13.9 8.2 -14.05 8.3 -14.05 8.3 -13.8 8.5 -13.65 8.55 -13.45 8.7 -13.45 8.75 -13.35 8.75 -13.15 8.85 -13.1 8.7 -13.0 M5.75 7.2 L5.85 7.2 5.85 7.35 5.85 7.45 5.85 7.6 5.75 7.75 5.7 7.8 5.65 7.8 5.6 7.85 5.55 7.9 5.45 7.9 3.55 8.2 0.45 8.35 0.2 8.35 -0.3 8.35 -4.65 7.85 -4.85 7.85 -5.65 7.5 -6.45 7.35 -6.5 7.45 -6.5 7.5 -6.75 7.45 -6.85 7.45 -6.45 6.85 -6.15 7.0 -1.1 7.9 -0.7 7.85 -0.3 7.9 -0.15 7.9 0.2 7.95 0.45 7.95 0.85 7.9 1.15 7.9 2.9 7.75 Q3.05 7.6 3.25 7.6 L5.75 7.2 M-7.15 6.7 L-7.7 7.2 -7.95 7.1 -7.8 6.75 -7.55 6.6 -7.15 6.7 M-8.05 6.35 L-8.55 6.75 -8.6 7.0 -9.6 6.5 -9.6 6.0 -9.6 5.8 -8.05 6.35 M-8.2 12.4 L-8.25 12.5 -8.4 12.05 -8.25 12.3 -8.2 12.4 M-4.65 10.9 L-4.65 10.3 -4.6 9.95 Q-4.25 10.0 -3.8 10.2 L-3.8 10.65 -3.7 10.95 -3.7 11.0 -3.65 11.1 -3.65 11.2 -3.8 11.2 -4.65 10.9 M11.0 -16.2 L11.0 -16.15 11.05 -16.15 11.15 -16.05 11.15 -16.0 11.0 -16.0 10.85 -16.15 10.7 -16.15 10.7 -16.2 10.65 -16.3 10.65 -16.35 10.6 -16.35 10.6 -16.4 10.5 -16.5 Q10.3 -16.55 10.25 -16.75 L10.25 -16.85 10.2 -16.9 Q9.9 -17.1 9.8 -17.25 L9.3 -17.8 9.45 -17.75 9.6 -17.7 9.75 -17.6 9.75 -17.4 9.8 -17.35 9.9 -17.3 10.15 -17.25 10.2 -17.2 10.3 -17.1 10.7 -16.55 10.95 -16.3 10.95 -16.2 11.0 -16.2 M-13.8 11.25 L-13.75 11.25 -13.8 11.35 -13.8 11.25 M-8.55 8.75 L-8.5 10.7 -8.5 11.75 -8.7 10.15 -8.55 8.75 M-11.3 12.0 L-11.3 11.95 -11.25 11.95 -11.1 12.0 -11.1 12.05 -11.0 12.2 -10.95 12.25 -10.7 12.5 -10.7 12.65 -11.3 12.0" fill="#fda31c" fill-rule="evenodd" stroke="none"/>
      <path d="M-7.3 -19.0 L-7.55 -18.85 -7.3 -18.85 -7.55 -18.8 -7.55 -18.85 -7.45 -18.95 -7.3 -19.0 M11.3 -15.55 L11.25 -15.6 11.15 -15.95 11.25 -15.95 11.3 -16.0 11.35 -15.95 11.5 -15.95 11.4 -15.85 11.4 -15.6 11.35 -15.55 11.3 -15.55 M-5.3 -19.25 L-5.4 -19.25 -6.6 -18.85 -5.75 -19.35 -5.7 -19.35 -5.3 -19.45 -5.25 -19.5 -5.05 -19.5 -4.95 -19.55 -4.6 -19.65 -4.55 -19.7 -4.35 -19.7 -4.25 -19.7 -4.1 -19.7 -4.85 -19.5 -5.3 -19.25 M9.0 -12.65 L9.0 -12.5 8.9 -12.6 9.0 -12.65" fill="#973535" fill-rule="evenodd" stroke="none"/>
      <path d="M11.0 -16.2 L10.95 -16.2 10.95 -16.3 11.0 -16.2 M12.65 -2.15 L12.65 -2.1 12.65 -1.95 12.55 -2.1 12.65 -2.15 M8.45 6.25 L8.5 6.3 8.25 6.3 8.45 6.25 M15.8 5.0 L15.7 5.15 15.75 4.95 15.8 5.0 M-10.35 -12.5 L-10.2 -12.35 -10.35 -12.45 -10.35 -12.5 M-9.6 13.55 L-9.65 13.5 -9.6 13.5 -9.6 13.55 M-9.45 13.7 L-9.35 13.7 -9.35 13.75 -9.45 13.7" fill="#722727" fill-rule="evenodd" stroke="none"/>
      <path d="M-13.45 -8.45 L-13.4 -8.5 -12.45 -10.9 Q-12.05 -12.0 -11.35 -12.65 L-11.3 -12.6 Q-11.35 -12.2 -11.5 -11.95 L-11.35 -12.1 -11.25 -12.3 -11.1 -12.3 -11.25 -12.35 -11.1 -12.45 -11.1 -12.5 -11.05 -12.65 -11.0 -12.6 -10.7 -12.5 -10.55 -12.45 -10.45 -12.45 -10.35 -12.45 -10.2 -12.35 -10.35 -12.5 -10.35 -12.75 -10.45 -12.5 Q-10.7 -12.75 -11.1 -12.85 L-11.25 -13.0 -11.3 -13.2 -11.3 -13.35 -11.35 -13.45 -11.3 -13.55 -10.65 -13.55 -10.65 -13.5 -10.55 -13.4 -10.35 -13.2 -7.0 -12.1 -7.0 -12.05 Q-6.7 -11.8 -6.35 -12.05 L-4.9 -11.8 -1.5 -11.7 -1.4 -11.7 -1.3 -11.7 -0.3 -11.7 0.2 -11.7 0.45 -11.7 0.7 -11.7 4.85 -12.1 7.3 -12.6 7.65 -12.65 7.85 -12.75 8.7 -13.0 8.85 -13.1 Q9.75 -13.45 10.6 -13.95 L10.95 -13.7 10.4 -13.45 10.3 -13.45 10.15 -13.4 9.85 -13.2 9.8 -13.15 9.85 -13.15 9.85 -13.1 9.85 -12.95 10.0 -12.85 10.3 -12.35 10.65 -11.3 11.25 -10.15 11.25 -10.1 11.25 -9.75 11.4 -9.35 11.4 -9.3 11.55 -8.85 12.15 -6.7 12.65 -3.95 12.65 -3.85 12.55 -3.8 12.65 -3.4 12.65 -3.15 12.65 -3.0 12.65 -2.65 12.65 -2.4 12.65 -2.15 12.55 -2.1 12.55 -2.2 12.45 -2.4 12.45 -2.45 12.4 -2.5 12.4 -2.6 12.4 -2.9 12.4 -3.15 12.4 -3.25 12.3 -3.6 12.25 -4.1 12.15 -4.2 12.15 -4.35 12.15 -4.4 12.1 -4.4 12.1 -4.5 12.1 -4.6 12.05 -4.95 12.05 -5.0 11.95 -5.05 11.9 -5.4 11.8 -5.55 11.8 -5.6 10.7 -9.0 10.6 -9.5 10.5 -10.0 10.0 -10.9 9.9 -10.9 9.75 -11.25 9.6 -11.7 9.5 -12.0 Q7.35 -11.25 5.0 -10.9 L1.65 -10.55 0.45 -10.5 0.2 -10.5 -0.3 -10.5 -7.75 -11.25 -10.2 -11.8 -10.7 -12.1 -11.35 -10.9 -11.35 -10.75 -11.4 -10.65 -11.85 -9.95 -11.95 -9.55 -12.3 -8.25 -12.85 -6.05 -12.9 -5.8 -13.4 -3.6 -13.7 -1.95 -13.7 -1.55 -13.8 -1.7 -13.85 -1.3 -13.9 -1.95 -14.0 -1.25 -14.0 -1.2 -13.9 -0.1 -13.9 0.05 -13.9 0.1 -14.0 0.0 -14.05 -0.2 -14.15 0.05 -14.15 0.4 -14.15 1.15 -14.25 1.05 -14.3 0.8 -14.45 0.95 -14.55 0.95 -14.6 1.15 -14.6 1.35 -14.65 1.45 -14.8 1.4 -14.8 1.15 -14.45 -4.5 -13.75 -7.95 -13.7 -8.05 -13.7 -8.1 -13.5 -8.45 -13.45 -8.45 M9.0 -12.65 L8.9 -12.6 9.0 -12.5 9.0 -12.65 M-5.1 -11.3 L-6.25 -11.5 -6.15 -11.4 -5.1 -11.3 M-8.05 -12.0 L-8.05 -11.95 -7.9 -11.95 -8.05 -12.0 M-0.45 -10.9 L-0.55 -10.95 -0.75 -10.95 -0.45 -10.9 M-14.65 2.3 L-14.6 2.4 -14.55 2.45 -14.5 2.55 -14.5 2.8 -14.55 3.1 -14.6 3.1 -14.65 3.2 -14.7 3.25 -14.8 3.25 -14.85 3.2 -14.9 3.15 -14.9 3.0 -14.9 2.8 -14.9 2.6 -14.9 2.45 -14.9 2.35 -14.7 2.3 -14.65 2.3 M-11.3 12.0 L-11.95 10.95 Q-13.05 9.2 -13.7 7.15 L-13.7 6.85 -13.05 8.2 -11.3 11.95 -11.3 12.0" fill="#764701" fill-rule="evenodd" stroke="none"/>
      <path d="M10.4 -13.45 L10.55 -13.4 10.6 -13.35 10.6 -13.2 10.55 -13.15 10.6 -13.15 13.0 -8.05 14.05 -4.2 14.1 -4.1 14.1 -3.95 14.05 -3.85 14.15 -2.5 14.2 -2.0 14.25 -1.35 14.5 -0.25 14.45 0.3 14.45 0.35 14.4 0.65 14.2 1.35 14.2 1.7 14.15 1.75 14.05 1.8 14.05 2.1 13.9 2.6 13.85 2.75 13.7 2.95 13.7 3.1 13.7 3.2 Q13.55 3.25 13.55 3.45 L13.5 3.65 13.4 3.85 13.35 3.95 Q11.3 5.7 8.85 6.5 L8.75 6.55 8.75 6.4 8.55 6.3 8.5 6.3 8.45 6.25 8.95 6.0 9.65 5.7 Q10.5 5.55 11.25 5.05 L11.25 5.0 11.3 4.9 12.1 4.2 12.1 4.15 12.15 4.0 12.15 3.95 12.25 3.9 12.3 3.9 12.3 3.8 12.35 3.65 12.55 3.45 12.65 3.15 12.7 2.95 12.85 2.8 12.85 2.6 12.85 2.55 12.9 2.35 13.0 2.25 12.9 0.8 12.75 -1.0 12.7 -1.15 12.65 -1.3 12.65 -1.4 12.65 -1.65 12.65 -1.85 12.65 -1.95 12.65 -2.1 12.65 -2.15 12.65 -2.4 12.65 -2.65 12.65 -3.0 12.65 -3.15 12.65 -3.4 12.55 -3.8 12.65 -3.85 12.65 -3.95 12.15 -6.7 11.55 -8.85 11.4 -9.3 11.4 -9.35 11.25 -9.75 11.25 -10.1 11.25 -10.15 10.65 -11.3 10.3 -12.35 10.0 -12.85 9.85 -12.95 9.85 -13.1 9.85 -13.15 9.8 -13.15 9.85 -13.2 10.15 -13.4 10.3 -13.45 10.4 -13.45 M8.2 6.7 L7.3 6.85 7.15 6.85 7.65 6.75 8.05 6.65 8.2 6.7 M10.3 -12.35 L10.55 -12.5 10.3 -12.45 10.3 -12.35 M-3.8 -19.75 L-2.15 -19.8 -0.3 -19.8 0.2 -19.8 0.45 -19.8 1.5 -19.9 4.25 -19.5 4.35 -19.5 4.6 -19.5 4.7 -19.5 4.9 -19.5 5.0 -19.5 5.25 -19.45 5.3 -19.45 5.35 -19.4 5.4 -19.4 5.4 -19.45 5.45 -19.5 5.65 -19.5 5.85 -19.55 5.95 -19.55 5.95 -19.5 6.05 -19.45 Q6.8 -19.35 7.35 -18.8 L7.45 -18.75 7.85 -18.5 8.15 -18.4 8.75 -18.0 8.85 -17.95 8.85 -17.8 8.9 -17.75 9.0 -17.65 9.05 -17.4 9.1 -17.35 9.3 -17.25 9.45 -16.95 9.35 -16.8 9.1 -16.8 9.0 -16.75 8.95 -16.75 8.9 -16.8 8.9 -16.85 8.85 -16.9 8.75 -16.95 8.7 -17.0 8.7 -16.9 8.95 -16.65 Q9.05 -16.15 9.3 -15.85 L9.1 -15.5 8.9 -15.2 8.15 -14.4 8.15 -14.55 8.1 -14.75 8.05 -14.75 8.05 -14.8 7.9 -14.95 7.5 -15.85 7.0 -16.5 6.4 -17.0 5.7 -17.6 5.55 -17.65 5.45 -17.65 5.45 -17.6 5.4 -17.6 6.8 -16.05 7.85 -14.45 7.85 -14.3 7.9 -14.2 6.95 -13.9 6.55 -14.95 Q5.95 -16.15 4.95 -17.2 L4.9 -17.2 5.45 -16.35 5.95 -15.6 6.8 -13.75 4.25 -13.35 4.2 -13.4 3.25 -13.4 3.85 -13.5 4.1 -13.55 4.85 -13.8 4.85 -13.9 4.9 -14.05 5.25 -14.1 5.45 -14.3 5.15 -14.3 4.85 -14.2 4.7 -14.2 4.65 -14.3 4.55 -14.4 4.3 -14.3 3.9 -14.2 3.8 -14.3 3.65 -14.4 2.1 -14.15 0.45 -14.2 0.2 -14.2 -0.3 -14.2 -2.2 -14.1 -2.35 -14.05 -2.55 -13.95 -2.7 -14.05 -3.55 -14.05 Q-4.3 -14.2 -4.95 -14.5 L-5.75 -14.75 -5.6 -15.3 -4.6 -16.95 -4.7 -17.0 -4.9 -17.0 -4.9 -16.95 -5.1 -16.75 -5.4 -16.35 -6.0 -15.35 -6.15 -14.85 -7.8 -15.95 -7.85 -16.0 -7.9 -16.15 -8.05 -16.35 -8.25 -16.65 -8.25 -17.25 -8.25 -17.55 -8.05 -17.8 -7.25 -18.5 -7.3 -18.3 Q-7.3 -17.65 -5.4 -17.25 L-0.7 -16.85 -0.3 -16.85 0.2 -16.85 0.45 -16.85 3.8 -17.25 Q5.7 -17.65 5.7 -18.3 5.7 -18.85 3.8 -19.25 L0.45 -19.65 0.2 -19.65 -0.3 -19.65 -0.7 -19.65 -1.0 -19.65 -2.7 -19.75 -3.8 -19.75" fill="#f7e9b3" fill-rule="evenodd" stroke="none"/>
      <path d="M10.3 -12.35 L10.3 -12.45 10.55 -12.5 10.3 -12.35 M12.65 -1.95 L12.65 -1.85 12.65 -1.65 12.65 -1.4 12.55 -2.1 12.65 -1.95 M16.6 3.8 L16.55 3.95 16.5 3.95 16.6 3.8 M-13.8 11.35 L-13.9 11.1 -14.0 11.1 -14.0 11.0 -14.05 10.95 -14.15 10.75 -14.25 10.7 -14.3 10.7 -14.45 10.55 -14.45 10.4 -14.5 10.4 -14.5 10.35 -14.45 10.35 -14.3 10.4 -14.15 10.75 -14.1 10.75 -13.9 11.1 -13.8 11.25 -13.8 11.35 M-6.3 15.4 L-6.3 15.35 -6.25 15.4 -6.3 15.4" fill="#451818" fill-rule="evenodd" stroke="none"/>
      <path d="M9.65 5.7 L8.95 6.0 8.45 6.25 8.25 6.3 8.1 6.3 8.05 6.35 7.9 6.35 7.75 6.4 7.65 6.4 6.7 6.65 0.45 7.35 0.2 7.35 -0.3 7.35 -1.05 7.2 -1.05 7.15 -1.1 7.15 -2.95 6.85 -7.35 5.7 Q-9.6 5.0 -11.65 4.0 L-11.8 3.95 -11.8 3.9 -11.95 3.65 Q-12.1 3.45 -12.3 3.35 L-12.7 2.8 -12.85 2.4 -12.9 2.15 -12.95 2.0 -12.8 2.05 -12.6 2.3 -12.25 2.55 -12.2 2.65 -12.15 2.8 -12.0 2.85 -11.75 3.1 -11.65 3.1 -11.5 3.15 -11.4 3.2 -11.35 3.25 -11.35 3.55 -11.1 3.8 -10.6 3.95 -9.25 4.7 -6.05 5.7 -6.0 5.7 -5.4 5.8 -5.3 5.8 -4.7 5.9 -4.65 5.95 -4.55 5.95 -4.35 6.0 -4.1 6.15 -3.9 6.25 -3.45 6.3 -3.2 6.3 -2.95 6.35 -1.3 6.65 -1.15 6.65 -0.3 6.75 0.2 6.75 0.45 6.7 1.05 6.65 Q3.95 7.0 6.8 6.0 L8.45 5.55 8.5 5.5 8.55 5.45 8.9 5.25 9.0 5.15 9.0 5.0 9.05 5.0 9.1 4.95 9.3 4.9 9.3 4.8 9.35 4.75 9.45 4.7 9.5 4.65 9.6 4.6 9.6 4.55 9.65 4.4 10.15 4.15 10.5 3.8 10.55 3.65 10.85 3.25 10.9 3.15 11.0 3.15 11.15 3.05 11.25 2.95 11.25 2.75 11.15 2.6 11.0 2.55 11.25 2.4 11.25 2.25 11.15 2.25 Q11.05 1.9 11.35 1.45 L11.95 0.1 12.05 -0.75 12.05 -0.95 11.95 -1.15 11.95 -1.2 11.9 -1.25 11.95 -1.3 10.95 -5.55 10.55 -7.3 10.6 -7.85 10.6 -8.05 10.6 -9.15 10.6 -9.5 10.7 -9.0 11.8 -5.6 11.8 -5.55 11.9 -5.4 11.95 -5.05 12.05 -5.0 12.05 -4.95 12.1 -4.6 12.1 -4.5 12.1 -4.4 12.15 -4.4 12.15 -4.35 12.15 -4.2 12.25 -4.1 12.3 -3.6 12.4 -3.25 12.4 -3.15 12.4 -2.9 12.4 -2.6 12.4 -2.5 12.45 -2.45 12.45 -2.4 12.55 -2.2 12.55 -2.1 12.65 -1.4 12.55 -1.4 12.55 -1.7 12.45 -1.75 12.45 -1.85 12.4 -1.95 12.35 -2.15 12.3 -2.4 12.3 -2.2 12.3 -1.7 12.35 -1.0 12.35 -0.6 12.35 -0.35 12.35 0.35 12.25 1.15 12.15 1.5 12.15 1.75 12.1 1.75 12.05 1.8 12.05 2.2 11.95 2.35 11.9 2.45 11.9 2.75 11.8 3.1 11.65 3.65 11.55 3.8 11.4 3.85 11.35 3.95 11.3 4.15 11.25 4.15 11.05 4.25 11.0 4.3 10.9 4.4 10.7 4.4 10.55 4.7 10.4 4.8 10.3 4.8 9.3 5.55 9.1 5.55 9.05 5.6 9.05 5.7 8.95 5.7 8.9 5.7 9.0 5.75 9.05 5.75 9.65 5.7 M11.3 2.45 L11.25 2.45 11.25 2.6 11.3 2.55 11.3 2.45 M-9.8 2.3 L-11.4 1.95 -10.55 2.1 -9.95 2.2 -9.85 2.25 -9.8 2.3 M-12.45 1.75 L-12.5 1.75 -12.5 1.7 -12.45 1.7 -12.45 1.75 M-12.8 1.7 L-12.9 1.6 -12.85 1.6 -12.8 1.7 M-13.0 1.7 L-13.05 1.7 -13.1 1.6 -13.0 1.7" fill="#7e4b01" fill-rule="evenodd" stroke="none"/>
      <path d="M14.45 0.3 L14.5 0.25 14.5 0.1 14.55 0.3 14.6 0.4 14.6 0.6 Q15.05 2.15 14.85 3.8 L14.7 4.2 Q14.15 5.55 13.0 6.25 12.65 6.4 12.3 6.75 L11.7 6.85 11.65 6.8 11.55 6.8 11.35 6.75 11.4 6.7 11.65 6.4 12.15 5.75 12.4 5.4 12.7 5.0 12.75 5.0 12.85 4.9 13.05 4.4 13.1 4.25 13.3 4.15 13.35 3.95 13.4 3.85 13.5 3.65 13.55 3.45 Q13.55 3.25 13.7 3.2 L13.7 3.1 13.7 2.95 13.85 2.75 13.9 2.6 14.05 2.1 14.05 1.8 14.15 1.75 14.2 1.7 14.2 1.35 14.4 0.65 14.45 0.35 14.45 0.3 M5.55 7.9 L5.75 7.85 6.55 7.6 6.6 7.6 6.65 7.75 Q7.1 7.5 7.65 7.4 7.85 7.2 8.05 7.4 L8.85 7.1 9.1 7.0 8.7 7.45 8.15 7.6 8.05 7.8 7.9 7.9 6.95 8.2 6.65 8.25 6.65 8.35 6.1 8.6 5.4 8.8 5.0 8.9 0.45 9.5 0.2 9.5 -0.3 9.5 -4.85 8.65 -6.0 8.2 -6.0 8.15 -6.05 8.05 -6.35 7.8 -6.5 7.5 -6.5 7.45 -6.45 7.35 -5.65 7.5 -4.85 7.85 -4.65 7.85 -0.3 8.35 0.2 8.35 0.45 8.35 3.55 8.2 5.45 7.9 5.55 7.9 M-3.8 -19.75 L-2.7 -19.75 -1.0 -19.65 -0.55 -19.5 -0.3 -19.4 0.2 -19.0 0.3 -18.75 0.2 -18.4 -0.3 -18.05 -0.55 -18.0 -2.7 -17.65 -4.85 -18.0 Q-5.7 -18.3 -5.7 -18.75 L-5.3 -19.25 -4.85 -19.5 -4.1 -19.7 -3.8 -19.75 M-3.55 -14.05 L-2.7 -14.05 -2.55 -13.95 -2.35 -14.05 -2.2 -14.1 -0.3 -14.2 0.2 -14.2 0.45 -14.2 2.1 -14.15 3.65 -14.4 3.8 -14.3 3.9 -14.2 4.3 -14.3 4.55 -14.4 4.65 -14.3 4.7 -14.2 4.85 -14.2 5.15 -14.3 5.45 -14.3 5.25 -14.1 4.9 -14.05 4.85 -13.9 4.85 -13.8 4.1 -13.55 3.85 -13.5 3.25 -13.4 0.45 -13.0 0.2 -13.0 -0.3 -13.1 -2.55 -13.55 -2.7 -13.65 -2.7 -13.7 -5.05 -14.05 -3.55 -14.05" fill="#ffffff" fill-rule="evenodd" stroke="none"/>
      <path d="M-1.0 -19.65 L-0.7 -19.65 -0.3 -19.65 0.2 -19.65 0.45 -19.65 3.8 -19.25 Q5.7 -18.85 5.7 -18.3 5.7 -17.65 3.8 -17.25 L0.45 -16.85 0.2 -16.85 -0.3 -16.85 -0.7 -16.85 -5.4 -17.25 Q-7.3 -17.65 -7.3 -18.3 L-7.25 -18.5 -6.7 -18.85 -6.6 -18.85 -5.4 -19.25 -5.3 -19.25 -5.7 -18.75 Q-5.7 -18.3 -4.85 -18.0 L-2.7 -17.65 -0.55 -18.0 -0.3 -18.05 0.2 -18.4 0.3 -18.75 0.2 -19.0 -0.3 -19.4 -0.55 -19.5 -1.0 -19.65" fill="#fcf5e0" fill-rule="evenodd" stroke="none"/>
      <path d="M9.5 -11.2 L9.45 -11.2 8.85 -11.25 8.7 -11.25 8.75 -11.3 8.6 -11.3 8.45 -11.2 8.3 -11.0 8.3 -10.95 8.3 -10.85 8.2 -10.85 Q5.3 -10.05 2.2 -10.0 L2.15 -9.95 1.05 -9.95 1.0 -9.95 0.75 -9.95 0.6 -9.95 0.45 -9.95 0.2 -9.95 -0.3 -9.8 Q-4.55 -9.8 -8.9 -10.75 L-9.3 -10.85 -9.6 -10.9 -9.65 -10.95 -9.7 -11.05 -9.9 -11.25 -10.05 -11.25 -9.95 -11.2 -10.2 -11.2 -10.35 -11.2 -10.55 -11.25 -10.55 -11.2 -10.7 -11.05 -10.95 -11.05 -11.1 -10.9 -11.35 -10.9 -10.7 -12.1 -10.2 -11.8 -7.75 -11.25 -0.3 -10.5 0.2 -10.5 0.45 -10.5 1.65 -10.55 5.0 -10.9 Q7.35 -11.25 9.5 -12.0 L9.6 -11.7 9.75 -11.25 9.5 -11.2 M3.0 -0.05 L3.3 0.1 3.3 0.25 3.45 0.3 3.45 0.35 3.55 0.65 3.85 0.8 3.85 0.95 3.95 1.45 4.1 1.7 4.25 1.9 4.35 1.9 4.35 2.05 4.35 2.1 4.95 2.8 4.95 2.85 5.0 2.95 4.95 3.05 4.7 3.05 4.65 2.95 4.55 2.95 4.55 2.85 4.3 2.75 2.7 2.6 2.6 2.6 2.5 2.75 1.75 2.75 1.65 2.8 1.6 2.8 -0.65 2.8 -0.85 2.75 -1.15 2.55 -1.35 2.45 -2.1 2.15 -2.6 2.1 -2.7 2.1 -2.55 1.75 -2.75 2.05 -3.15 2.05 -4.55 2.2 -5.45 2.6 -5.6 2.75 -5.6 2.6 Q-5.9 2.8 -6.15 2.8 L-6.45 2.75 -5.6 2.2 -5.45 2.2 -5.45 2.15 Q-5.25 1.8 -4.65 1.6 L-3.8 0.95 -2.9 0.45 -1.85 0.0 -1.85 -0.05 -1.7 -0.1 -1.3 -0.35 -1.1 -0.35 -1.05 -0.25 -1.0 -0.2 -1.0 -0.05 -0.9 0.0 -0.85 0.0 -0.65 0.1 -0.65 0.25 -0.6 0.3 -0.5 0.4 -0.45 0.45 -0.1 0.8 0.65 0.8 0.7 0.95 0.75 0.8 1.8 -0.1 1.8 -0.25 2.05 -0.4 2.15 -0.45 2.2 -0.55 2.2 -0.45 2.35 -0.4 2.5 -0.35 2.6 -0.25 2.7 -0.25 2.8 -0.25 3.0 -0.05 M1.8 0.95 L1.5 1.15 1.5 1.35 1.6 1.4 2.35 1.4 2.35 1.35 2.35 1.15 2.45 1.15 2.45 1.1 2.3 0.95 2.1 0.8 Q1.9 0.8 1.8 0.95 M2.6 1.4 L2.75 1.4 2.6 1.35 2.6 1.4 M-8.15 -2.15 L-8.1 -2.1 -7.95 -1.95 -7.55 -1.55 -7.3 -1.25 -8.5 -2.2 -9.7 -3.75 -9.9 -3.95 -9.95 -3.95 -10.2 -3.95 -10.25 -3.95 -10.6 -4.15 -10.65 -4.25 -10.7 -4.25 -11.0 -4.35 -11.05 -4.4 -11.1 -4.4 -11.6 -4.4 -11.65 -4.35 -11.75 -4.25 -11.75 -4.2 -11.8 -4.2 -11.85 -4.1 -11.95 -4.15 -11.95 -4.2 -12.0 -3.75 -12.0 -3.6 -12.0 -3.45 -12.05 -3.45 -12.5 -3.15 -12.7 -2.85 -12.7 -2.65 -12.7 -2.55 -13.1 -1.95 Q-13.45 -1.35 -13.25 -0.45 L-13.2 -0.35 -13.4 -0.05 -13.45 0.2 -13.45 0.0 -13.6 -0.55 -13.6 -0.6 -13.7 -0.8 -13.7 -1.3 -13.7 -1.55 -13.7 -1.95 -13.4 -3.6 -12.9 -5.8 -12.85 -6.05 -12.3 -8.25 -11.95 -9.55 -11.95 -9.4 -11.95 -9.0 -11.95 -8.25 -11.95 -7.95 -11.65 -6.65 -11.65 -6.6 -11.4 -6.05 -11.4 -6.0 -11.35 -6.0 -11.35 -5.95 -11.3 -5.75 -11.25 -5.75 -10.95 -5.65 -10.9 -5.6 -10.7 -5.55 -10.65 -5.55 -10.65 -5.4 -10.55 -5.35 -10.35 -5.25 -10.3 -5.05 -10.3 -5.0 -10.3 -4.9 -10.25 -4.9 -10.25 -4.8 -10.2 -4.7 -10.15 -4.65 -10.15 -4.6 -9.25 -3.4 -8.5 -2.45 Q-8.25 -2.4 -8.15 -2.15 M-1.7 0.75 L-1.9 0.7 -2.25 0.7 -2.55 0.8 -2.55 1.05 -2.55 1.1 -2.45 1.15 -2.45 1.35 -2.35 1.35 -2.25 1.4 -2.25 1.45 -2.2 1.45 -1.9 1.5 -1.3 1.45 -1.2 1.4 -1.2 1.35 -1.3 1.2 -1.3 1.15 -1.35 1.15 -1.35 1.05 -1.4 0.95 -1.45 0.95 -1.5 0.8 -1.5 0.75 -1.7 0.75 M-1.75 0.45 L-1.8 0.4 -1.8 0.45 -1.85 0.45 -1.85 0.6 -1.7 0.6 -1.75 0.45 M-3.9 1.15 L-4.4 1.45 -3.9 1.35 -3.9 1.15 M-3.2 0.8 L-3.25 0.95 -2.95 0.8 -2.95 0.75 -3.2 0.8" fill="#999999" fill-rule="evenodd" stroke="none"/>
      <path d="M8.25 -10.6 L7.8 -9.15 7.8 -9.0 7.85 -9.0 7.8 -8.9 7.8 -8.85 7.7 -8.85 7.7 -8.8 7.5 -8.75 7.05 -8.8 6.95 -8.9 5.85 -9.25 4.1 -9.5 -1.1 -9.6 -3.9 -9.4 -6.7 -8.85 -8.55 -8.6 -8.85 -8.6 -9.05 -8.9 -9.05 -9.0 -9.6 -10.55 -9.6 -10.75 -9.6 -10.9 -9.3 -10.85 -8.9 -10.75 Q-4.55 -9.8 -0.3 -9.8 L0.2 -9.95 0.45 -9.95 0.6 -9.95 0.75 -9.95 1.0 -9.95 1.05 -9.95 2.15 -9.95 2.2 -10.0 Q5.3 -10.05 8.2 -10.85 L8.25 -10.6 M9.9 -5.95 L10.15 -6.0 10.3 -6.65 10.55 -7.3 10.95 -5.55 11.95 -1.3 11.9 -1.25 11.8 -1.35 11.4 -1.95 10.65 -2.55 10.65 -2.65 10.5 -2.75 10.3 -2.9 10.25 -2.9 10.15 -2.9 10.15 -3.05 10.2 -3.45 10.2 -3.65 10.15 -3.65 10.15 -3.95 10.15 -4.2 10.0 -4.25 10.0 -4.5 9.9 -4.55 9.9 -4.6 9.9 -4.7 9.9 -5.2 9.9 -5.3 9.85 -5.35 9.9 -5.35 9.9 -5.4 9.85 -5.55 9.85 -5.65 10.0 -5.65 9.9 -5.95 M5.0 2.95 L5.25 3.1 5.35 3.1 5.45 3.15 5.45 3.2 5.3 3.15 5.45 3.25 5.55 3.25 5.6 3.35 5.55 3.35 5.75 3.45 8.3 3.95 8.45 4.0 8.3 4.15 8.1 4.2 8.05 4.25 7.8 4.25 7.75 4.3 7.7 4.4 7.45 4.4 7.4 4.55 5.55 5.0 6.4 5.15 5.4 5.05 4.9 5.15 3.75 5.55 3.65 5.5 3.65 5.45 3.55 5.4 3.25 5.05 3.05 4.95 2.85 4.75 3.25 4.95 3.5 5.0 3.55 5.0 3.65 4.95 3.75 5.0 3.9 5.0 4.1 5.05 4.15 5.15 4.2 5.05 4.15 5.05 4.2 5.0 4.3 5.15 4.35 5.15 4.55 5.05 4.5 5.0 4.3 5.0 4.2 4.95 4.2 4.9 4.2 4.75 3.95 4.65 4.2 4.9 3.0 4.15 3.3 4.25 3.45 4.3 3.55 4.4 3.75 4.55 3.5 4.25 2.85 4.0 2.8 4.0 2.8 4.15 2.6 4.0 2.2 3.95 2.15 4.0 2.15 4.15 1.85 4.15 1.8 4.0 1.65 4.15 1.6 4.15 1.5 4.2 1.45 4.2 1.05 4.2 1.05 4.4 1.45 4.65 1.4 4.65 1.35 4.75 1.15 4.65 1.0 4.55 0.95 4.55 0.75 4.6 0.85 4.65 1.05 4.75 1.15 4.9 1.4 5.05 1.85 5.4 1.9 5.35 2.7 5.55 2.75 5.55 2.9 5.7 2.85 5.7 2.75 5.7 2.6 5.75 2.7 5.8 2.8 5.9 2.7 5.9 2.7 5.95 2.6 6.0 Q2.8 6.0 2.9 6.15 L2.85 6.15 2.3 6.0 2.15 5.95 2.1 5.95 1.9 5.9 1.75 5.9 1.65 5.9 1.6 5.8 1.45 5.8 1.4 5.8 1.1 5.7 1.0 5.6 0.85 5.55 0.85 5.45 0.7 5.45 0.65 5.4 0.65 5.35 0.6 5.25 0.6 5.15 0.45 5.0 0.35 4.95 0.25 4.8 0.15 4.9 -0.3 5.0 -2.15 5.7 -2.75 5.5 -2.95 5.6 -3.2 5.6 -3.1 5.5 -2.45 5.15 -1.75 4.75 -2.05 5.05 -2.2 5.15 -2.2 5.25 -2.05 5.05 -0.85 4.55 -0.65 4.4 -0.9 4.4 -0.65 4.2 -0.65 4.15 -0.85 4.15 -1.0 4.2 -1.1 4.2 -1.15 4.25 -1.0 4.25 -1.15 4.4 -1.2 4.4 -1.85 4.7 -1.15 4.15 -1.3 4.15 -1.35 4.15 -1.4 4.0 -1.4 3.9 -1.85 3.9 -1.9 3.85 -1.9 3.8 -2.1 3.8 -2.15 3.65 -2.2 3.85 -2.55 3.85 -2.55 3.65 -2.6 3.6 -2.95 3.65 -3.15 3.8 -3.25 3.8 -3.85 4.0 -3.9 4.15 -4.6 4.4 -4.6 4.6 -4.7 4.65 -4.9 4.65 -4.95 4.7 -4.85 4.75 -4.7 4.75 -4.6 4.65 -4.55 4.7 -4.6 4.7 -4.55 4.75 -4.35 4.65 -4.2 4.65 -4.1 4.6 -3.9 4.65 -3.85 4.65 -3.7 4.6 -3.25 4.4 -3.5 4.65 -3.45 4.65 Q-3.8 4.75 -3.9 4.95 L-3.2 4.8 -3.85 5.25 -4.25 5.05 -5.6 4.6 -8.05 4.15 -8.1 4.15 -9.05 3.95 -9.3 3.9 -11.1 3.1 -11.25 3.1 -11.4 3.1 -11.45 3.1 -11.65 3.1 -11.75 3.1 -12.0 2.85 -12.15 2.8 -12.2 2.65 -12.25 2.55 -12.6 2.3 -12.8 2.05 -12.95 2.0 -13.05 1.95 -13.05 1.8 -13.1 1.75 -13.05 1.7 -13.0 1.7 -12.95 1.6 -12.9 1.6 -12.8 1.7 -12.7 1.7 -12.6 1.7 -12.5 1.75 -12.45 1.75 -12.4 1.75 -12.3 1.8 -12.2 1.8 -11.8 1.9 -11.75 1.9 -11.4 1.95 -9.8 2.3 -9.05 2.4 -8.95 2.4 -7.85 2.35 -7.15 2.1 Q-7.9 2.05 -7.35 1.9 L-7.45 1.9 -8.1 1.9 Q-8.5 1.6 -8.85 1.6 L-8.9 1.45 -9.05 1.4 Q-9.6 1.2 -8.95 1.2 L-8.9 1.1 -8.9 0.95 -8.8 0.95 -8.7 0.8 -8.8 0.75 -8.8 0.6 -8.8 0.45 -8.7 0.45 -8.6 0.3 Q-8.5 0.0 -8.8 -0.05 -8.55 -0.35 -8.1 -0.35 L-6.5 0.25 Q-6.7 0.05 -6.85 0.0 L-6.85 -0.05 -7.05 -0.35 -7.1 -0.35 -7.15 -0.45 -7.35 -0.6 -7.45 -0.6 -7.7 -0.8 -7.85 -1.15 Q-8.6 -1.65 -9.25 -2.5 -9.35 -2.8 -9.8 -2.9 L-10.05 -3.15 -10.95 -3.8 -11.0 -3.95 -11.1 -3.95 -11.25 -4.1 -11.3 -4.1 -11.35 -3.95 -11.6 -3.95 -11.75 -3.8 -11.8 -3.75 -11.8 -3.65 -11.85 -3.6 -12.0 -3.6 -12.0 -3.75 -11.95 -4.2 -11.95 -4.15 -11.85 -4.1 -11.8 -4.2 -11.75 -4.2 -11.75 -4.25 -11.65 -4.35 -11.6 -4.4 -11.1 -4.4 -11.05 -4.4 -11.0 -4.35 -10.7 -4.25 -10.65 -4.25 -10.6 -4.15 -10.25 -3.95 -10.2 -3.95 -9.95 -3.95 -9.9 -3.95 -9.7 -3.75 -8.5 -2.2 -7.3 -1.25 -7.55 -1.55 -7.95 -1.95 -7.9 -1.95 -7.85 -1.85 Q-6.05 -0.25 -4.0 0.8 L-3.85 0.8 -3.8 0.95 -4.65 1.6 Q-5.25 1.8 -5.45 2.15 L-5.45 2.2 -5.6 2.2 -6.45 2.75 -6.15 2.8 Q-5.9 2.8 -5.6 2.6 L-5.6 2.75 -5.45 2.6 -4.55 2.2 -3.15 2.05 -2.75 2.05 -2.55 1.75 -2.7 2.1 -2.6 2.1 -2.1 2.15 -1.35 2.45 -1.15 2.55 -0.85 2.75 -0.65 2.8 1.6 2.8 1.65 2.8 1.75 2.75 2.5 2.75 2.6 2.6 2.7 2.6 4.3 2.75 4.55 2.85 4.55 2.95 4.65 2.95 4.7 3.05 4.95 3.05 5.0 2.95 M1.8 0.95 Q1.9 0.8 2.1 0.8 L2.3 0.95 2.45 1.1 2.45 1.15 2.35 1.15 2.35 1.35 2.35 1.4 1.6 1.4 1.5 1.35 1.5 1.15 1.8 0.95 M3.55 4.15 L3.55 4.0 3.25 3.8 4.25 4.2 4.95 4.4 5.3 4.4 5.35 4.4 5.7 4.4 5.95 4.4 5.6 4.2 6.15 4.4 6.4 4.6 6.45 4.4 6.25 4.4 6.15 4.3 6.1 4.3 4.9 3.45 4.7 3.35 4.3 3.25 4.1 3.15 3.9 3.15 3.85 3.35 3.75 3.25 3.55 3.25 3.5 3.35 3.5 3.45 Q3.85 3.6 4.2 3.9 3.75 3.6 3.3 3.6 L3.1 3.65 3.15 3.8 3.2 3.85 2.8 3.65 3.3 4.15 3.35 4.15 3.55 4.2 3.65 4.25 3.95 4.4 4.1 4.4 4.6 4.65 4.2 4.4 4.1 4.4 4.1 4.3 3.9 4.2 3.95 4.2 3.55 4.15 M0.95 5.25 L0.75 5.05 0.75 5.15 0.85 5.25 0.95 5.25 M-8.05 -6.35 L-7.35 -5.2 -7.15 -4.8 -7.35 -4.9 -7.95 -4.65 -8.15 -4.6 -8.15 -4.55 -8.2 -4.5 -8.45 -4.5 -8.5 -4.4 -8.5 -4.25 -8.5 -4.1 -8.55 -3.4 -8.5 -3.25 -8.5 -2.85 -8.5 -2.65 -8.45 -2.65 -8.25 -2.55 -8.2 -2.55 -8.2 -2.5 -8.15 -2.5 -8.15 -2.15 Q-8.25 -2.4 -8.5 -2.45 L-9.25 -3.4 -10.15 -4.6 -10.15 -4.65 -9.95 -4.65 -9.85 -4.55 -9.8 -4.55 -9.6 -4.6 -9.05 -4.5 -8.85 -4.4 -9.05 -4.6 -8.6 -4.7 -8.85 -4.7 -9.05 -4.65 -9.6 -4.8 -9.6 -4.95 -9.45 -4.95 -10.15 -5.35 -10.05 -5.35 -9.25 -5.05 -9.3 -5.2 -9.25 -5.2 -9.6 -5.35 -10.2 -5.8 -10.2 -5.75 -10.25 -5.8 -10.25 -5.95 -10.45 -6.0 -10.55 -6.05 -10.2 -6.05 -10.15 -6.05 -10.15 -6.1 -10.05 -6.2 -9.85 -6.35 -9.8 -6.4 -9.7 -6.4 -9.7 -6.45 -9.65 -6.45 -9.6 -6.6 -9.6 -6.75 -9.5 -6.85 -8.95 -6.95 -8.85 -6.85 -8.05 -6.35 M-6.6 4.15 L-6.7 4.15 -7.0 4.2 -6.85 4.3 -6.6 4.2 -6.1 4.0 -6.45 4.2 -6.35 4.2 -6.15 4.2 -5.75 4.15 -5.7 4.15 -5.45 4.2 -5.4 4.15 -4.65 3.95 -3.55 3.45 -3.8 3.45 -4.6 3.6 -3.9 3.2 -3.9 3.15 -4.1 3.1 -4.1 3.15 -4.25 3.15 -4.35 3.15 -4.45 3.1 -4.85 3.15 -5.25 3.2 -5.35 3.35 -5.4 3.35 -6.6 4.15 M-5.75 4.3 L-5.7 4.3 -5.65 4.25 -5.8 4.25 -5.75 4.3 M-1.7 0.75 L-1.5 0.75 -1.5 0.8 -1.45 0.95 -1.4 0.95 -1.35 1.05 -1.35 1.15 -1.3 1.15 -1.3 1.2 -1.2 1.35 -1.2 1.4 -1.3 1.45 -1.9 1.5 -2.2 1.45 -2.25 1.45 -2.25 1.4 -2.35 1.35 -2.45 1.35 -2.45 1.15 -2.55 1.1 -2.55 1.05 -2.55 0.8 -2.25 0.7 -1.9 0.7 -1.7 0.75" fill="#c4c4c4" fill-rule="evenodd" stroke="none"/>
      <path d="M9.9 -10.9 L9.75 -10.95 9.6 -11.2 9.5 -11.2 9.75 -11.25 9.9 -10.9 M8.3 -10.85 L8.25 -10.6 8.2 -10.85 8.3 -10.85 M-10.55 -11.2 L-10.55 -11.25 -10.35 -11.2 -10.55 -11.2" fill="#b78073" fill-rule="evenodd" stroke="none"/>
      <path d="M7.7 -8.8 Q7.3 -8.1 6.7 -7.55 L6.6 -7.45 6.65 -7.65 6.65 -7.8 6.65 -8.05 6.65 -8.25 6.45 -8.45 6.1 -8.55 5.85 -8.5 5.3 -8.05 4.95 -7.65 4.9 -7.55 4.85 -7.2 4.1 -6.2 2.5 -4.95 Q2.15 -4.65 1.75 -4.6 L1.65 -4.6 1.65 -4.55 Q2.5 -4.6 3.15 -5.05 L3.0 -4.9 2.3 -4.5 3.1 -4.9 4.6 -5.95 4.6 -6.0 4.85 -6.0 4.65 -5.8 4.65 -5.65 4.6 -5.65 4.6 -5.6 4.55 -5.55 4.7 -5.6 4.85 -5.6 4.95 -5.65 4.5 -5.2 3.85 -4.4 3.65 -4.15 2.6 -3.3 2.35 -3.25 2.3 -3.25 1.9 -3.0 2.75 -3.3 3.85 -4.2 3.95 -4.35 4.1 -4.4 4.55 -4.9 5.3 -5.55 5.35 -5.65 6.15 -6.0 6.45 -6.2 7.5 -6.95 7.7 -7.0 8.2 -6.95 8.3 -6.8 8.25 -6.7 8.3 -6.65 8.3 -6.6 8.45 -6.6 8.5 -6.45 8.55 -6.4 8.75 -6.25 8.85 -6.2 8.85 -6.1 9.2 -6.1 9.1 -6.05 8.95 -6.0 8.95 -5.95 8.85 -5.75 8.9 -5.95 8.9 -6.0 8.85 -5.95 8.3 -5.35 7.85 -5.25 7.9 -5.25 8.1 -5.25 7.85 -5.2 8.85 -5.35 8.15 -5.0 8.25 -5.0 Q8.45 -5.05 8.7 -5.2 8.5 -4.95 8.3 -4.9 L7.5 -4.8 7.35 -4.8 Q8.05 -4.55 8.6 -5.0 L8.6 -4.95 8.7 -4.95 8.9 -5.05 9.0 -5.2 9.3 -5.35 9.3 -5.3 9.2 -5.25 9.2 -5.2 9.1 -5.2 9.05 -5.05 9.1 -5.0 9.2 -5.0 9.3 -5.05 9.3 -5.2 9.35 -5.3 9.45 -5.3 9.5 -5.35 9.55 -5.4 9.75 -5.65 9.9 -5.95 10.0 -5.65 9.85 -5.65 9.85 -5.55 9.9 -5.4 9.9 -5.35 9.85 -5.35 9.9 -5.3 9.9 -5.2 9.9 -4.7 9.9 -4.6 9.9 -4.55 10.0 -4.5 10.0 -4.25 10.15 -4.2 10.15 -3.95 10.15 -3.65 10.2 -3.65 10.2 -3.45 10.15 -3.05 10.15 -2.9 9.9 -3.0 9.9 -3.05 10.0 -3.3 9.8 -3.05 9.75 -3.15 9.6 -3.15 9.5 -2.9 9.45 -2.8 9.35 -2.65 9.3 -2.75 9.1 -2.8 9.05 -2.8 8.95 -2.65 8.7 -2.5 8.7 -2.4 7.9 -1.95 Q7.4 -1.0 6.6 -0.6 L6.45 -0.4 5.95 -0.25 5.15 -0.25 5.15 -0.2 3.0 -0.05 2.8 -0.25 2.7 -0.25 2.6 -0.25 2.5 -0.35 2.35 -0.4 2.2 -0.45 2.2 -0.55 2.15 -0.45 2.05 -0.4 1.8 -0.25 1.8 -0.1 0.55 -0.4 0.45 -0.4 0.2 -0.4 -0.3 -0.45 -0.85 -0.6 -1.5 -0.6 -1.85 -0.8 -1.9 -0.75 Q-3.9 -1.55 -5.35 -2.85 L-5.35 -3.15 -5.45 -3.8 -6.0 -4.4 -6.05 -4.5 -6.1 -4.5 -6.3 -4.65 -6.3 -4.7 -6.75 -4.7 -7.0 -4.8 -7.15 -4.8 -7.35 -5.2 -8.05 -6.35 -7.8 -6.1 -7.35 -6.0 -7.3 -5.95 -7.05 -5.75 -6.7 -5.65 Q-6.05 -4.8 -5.25 -4.25 L-5.05 -4.15 -3.9 -3.25 Q-3.5 -3.0 -3.1 -2.9 L-3.5 -3.25 -3.55 -3.25 -3.8 -3.3 -5.05 -4.35 -5.65 -5.05 -6.1 -5.4 -6.25 -5.6 Q-6.15 -5.6 -6.15 -5.65 L-6.1 -5.55 -5.9 -5.35 -4.1 -3.8 -3.8 -3.65 -3.85 -3.75 -3.9 -3.8 -4.45 -4.25 -4.1 -4.1 -4.7 -4.6 -4.85 -4.65 -4.7 -4.65 -4.85 -4.7 -4.95 -4.9 -4.95 -5.0 -5.05 -5.2 -4.0 -4.5 -4.55 -4.9 -4.35 -4.8 -3.5 -4.4 -3.5 -4.5 -4.2 -4.8 -4.45 -5.0 -2.85 -4.5 -2.85 -4.55 -2.9 -4.55 -3.7 -4.9 -5.25 -6.1 -6.05 -7.15 -6.15 -7.45 -6.15 -7.55 -6.5 -8.05 -7.1 -8.45 -7.3 -8.5 -7.8 -8.4 -7.9 -8.15 -7.9 -8.05 -7.95 -8.05 -7.9 -7.95 -7.9 -7.75 -7.9 -7.55 -7.9 -7.4 -8.85 -8.6 -8.55 -8.6 -6.7 -8.85 -3.9 -9.4 -1.1 -9.6 4.1 -9.5 5.85 -9.25 6.95 -8.9 7.05 -8.8 7.5 -8.75 7.7 -8.8 M6.25 -5.2 L6.1 -5.05 5.45 -4.95 5.4 -4.8 5.35 -4.65 5.25 -4.55 5.0 -4.4 4.95 -4.25 4.9 -3.65 4.9 -3.4 4.9 -2.85 4.9 -2.65 4.9 -2.4 4.95 -2.05 5.15 -2.0 5.4 -1.8 5.4 -1.75 Q5.95 -1.35 6.6 -1.4 L6.7 -1.55 6.8 -1.55 6.95 -1.7 7.05 -1.8 7.15 -1.8 7.3 -1.85 7.45 -2.05 7.65 -2.2 7.7 -2.2 7.7 -2.4 7.75 -2.4 7.85 -2.85 7.8 -3.15 7.8 -3.25 7.8 -3.75 7.8 -4.15 7.75 -4.2 7.7 -4.25 7.65 -4.25 7.65 -4.4 7.5 -4.55 7.4 -4.65 7.15 -4.8 7.05 -4.9 6.95 -5.0 6.8 -5.0 6.65 -5.0 6.6 -5.05 6.55 -5.05 6.25 -5.2 M3.45 -4.7 L3.25 -4.6 3.5 -4.7 3.45 -4.7 M1.65 -3.95 L1.6 -3.95 1.5 -3.9 1.65 -3.95 M2.3 -4.5 L2.2 -4.5 2.2 -4.4 2.3 -4.5 M2.5 -4.5 L2.5 -4.4 2.7 -4.5 2.8 -4.5 3.15 -4.6 3.0 -4.65 Q2.75 -4.5 2.5 -4.5 M4.15 -4.95 L4.1 -4.95 3.95 -4.7 4.15 -4.95 M4.55 -5.65 L4.55 -5.75 4.15 -5.35 4.15 -5.25 4.2 -5.25 4.55 -5.65 M3.45 -4.9 L3.65 -5.0 3.75 -5.0 3.75 -4.95 4.1 -5.2 4.1 -5.35 3.95 -5.35 3.45 -4.9 M2.45 -3.55 L2.35 -3.6 2.3 -3.45 2.45 -3.55 3.05 -3.95 2.75 -3.8 2.7 -3.75 2.45 -3.55 M3.5 -4.15 L3.45 -4.15 3.1 -3.85 2.75 -3.6 2.8 -3.6 3.5 -4.15 3.55 -4.2 3.75 -4.35 3.5 -4.15 M3.65 -4.55 L3.3 -4.2 3.1 -3.95 3.3 -4.15 3.45 -4.2 3.65 -4.55 M-3.65 -3.95 L-3.65 -4.15 -3.7 -4.15 -3.7 -3.95 -3.5 -3.85 -2.75 -3.75 -2.85 -3.75 -3.65 -3.95 M-6.15 -4.95 L-6.5 -5.25 -5.6 -4.2 -5.05 -3.8 -4.6 -3.45 -6.15 -4.95" fill="#f2f2f2" fill-rule="evenodd" stroke="none"/>
      <path d="M8.85 -9.75 L8.9 -9.75 8.9 -9.65 8.75 -9.4 8.55 -9.2 8.45 -9.15 8.45 -8.9 8.2 -8.8 8.2 -8.85 8.25 -9.15 8.25 -9.2 8.5 -9.4 8.6 -9.65 8.55 -9.75 8.55 -9.8 8.7 -9.95 8.85 -9.8 8.85 -9.75 M8.95 -9.2 L9.05 -9.15 9.3 -9.0 9.05 -8.8 9.0 -8.75 8.9 -8.7 8.55 -8.6 8.45 -8.6 Q8.3 -8.7 8.45 -8.7 L8.45 -8.75 8.5 -8.8 8.5 -8.85 8.6 -9.0 8.7 -9.15 8.75 -9.15 8.95 -9.2 M8.6 -8.05 L8.6 -8.15 8.85 -8.15 8.95 -8.15 9.05 -8.15 9.2 -8.1 8.85 -8.05 8.6 -8.05 M8.2 -0.8 L7.9 -0.6 7.85 -0.6 8.2 -0.8 M9.3 -0.55 L9.35 -0.35 8.3 -0.1 9.3 -0.55 M9.1 -0.95 L9.2 -0.8 8.3 -0.45 8.9 -0.8 9.1 -0.95 M8.9 -0.8 L8.1 -0.45 8.2 -0.6 8.9 -0.8 M8.3 2.75 L8.15 2.55 9.35 2.6 8.3 2.75 7.85 2.8 8.15 2.75 8.3 2.75 M9.75 2.35 L9.65 2.4 8.85 1.95 9.75 2.05 9.85 2.15 9.75 2.35 M8.85 1.4 L9.9 1.4 9.9 1.7 8.85 1.7 8.85 1.4 M8.75 1.05 Q8.5 0.8 8.85 0.8 L9.8 0.95 8.75 1.05 M8.75 0.75 L8.6 0.75 9.0 0.7 9.65 0.65 9.55 0.7 8.75 0.75 M8.7 0.25 L8.55 0.1 9.5 0.0 8.7 0.25 M-9.9 -10.15 L-9.8 -9.65 -9.6 -9.2 -9.6 -8.9 -9.6 -8.85 -9.7 -8.85 -9.7 -8.9 -9.8 -9.0 -9.85 -9.2 -9.95 -9.35 -10.2 -9.75 -10.25 -10.15 -10.25 -10.2 -10.15 -10.3 Q-10.05 -10.2 -9.95 -10.2 L-9.9 -10.15 M-10.05 -9.3 L-9.95 -9.15 -10.3 -9.2 -10.65 -9.4 -10.6 -9.5 -10.45 -9.5 -10.3 -9.4 -10.2 -9.4 -10.15 -9.35 -10.05 -9.3 M-10.65 -8.9 L-10.65 -9.0 -10.6 -9.15 -10.45 -9.0 -10.35 -8.9 -10.55 -8.85 -10.65 -8.9 M-1.75 0.45 L-1.7 0.6 -1.85 0.6 -1.85 0.45 -1.8 0.45 -1.8 0.4 -1.75 0.45 M-2.95 0.8 L-3.2 0.8 -2.95 0.75 -2.95 0.8" fill="#caa49b" fill-rule="evenodd" stroke="none"/>
      <path d="M9.55 -5.75 L9.65 -5.9 9.6 -5.8 9.55 -5.75 M9.6 -6.25 L9.55 -6.1 9.3 -5.65 9.5 -6.05 9.55 -6.1 9.5 -6.1 9.55 -6.25 9.6 -6.25 M8.9 -5.35 L9.1 -5.6 9.2 -5.6 8.9 -5.3 8.9 -5.35 M9.75 -6.0 L9.85 -6.2 9.85 -6.1 9.8 -6.0 9.75 -6.0" fill="#c08e83" fill-rule="evenodd" stroke="none"/>
      <path d="M9.3 -5.35 L9.5 -5.65 9.55 -5.75 9.55 -5.65 9.5 -5.65 9.5 -5.55 9.45 -5.55 9.3 -5.35 M8.7 -5.4 L8.6 -5.4 8.75 -5.6 8.7 -5.4 M8.9 -1.85 L9.05 -1.85 9.05 -1.95 9.3 -1.85 9.35 -1.8 9.45 -1.8 8.05 -0.8 7.05 -0.45 7.0 -0.55 7.05 -0.6 7.15 -0.6 7.15 -0.75 7.45 -0.95 7.8 -1.15 8.3 -1.55 8.9 -1.85 M-9.25 -1.7 L-9.35 -1.7 -9.5 -1.7 -10.15 -2.0 -10.2 -2.05 -11.05 -2.5 -11.0 -2.55 -10.95 -2.55 -10.7 -2.55 -9.9 -2.45 -9.8 -2.4 -9.3 -1.85 -9.25 -1.8 -9.25 -1.75 -9.25 -1.7 M-10.45 -1.35 L-10.6 -1.35 -10.65 -1.55 -10.7 -1.55 -10.95 -1.65 -11.0 -1.7 -10.95 -1.75 -10.95 -1.8 -10.6 -1.8 -10.35 -1.8 -10.3 -1.75 -10.25 -1.7 -10.25 -1.35 -10.3 -1.35 -10.45 -1.35 M-5.9 -4.95 L-5.7 -4.8 -5.6 -4.6 -5.9 -4.95 M-6.05 -5.95 L-5.8 -5.95 -5.8 -5.8 -5.35 -5.4 -5.05 -5.2 -5.25 -5.25 -5.3 -5.3 -5.75 -5.65 -5.75 -5.75 -5.8 -5.75 -6.0 -5.8 -6.05 -5.95 M-5.8 -5.6 L-5.7 -5.55 -5.25 -5.05 -5.05 -4.9 -5.25 -5.0 -5.8 -5.6" fill="#d9bdb7" fill-rule="evenodd" stroke="none"/>
      <path d="M5.15 -0.2 L5.15 -0.25 5.95 -0.25 5.35 -0.2 5.15 -0.1 5.15 -0.2 M3.55 5.55 L3.5 5.6 3.05 5.45 2.85 5.4 2.8 5.4 2.75 5.35 3.5 5.4 3.55 5.5 3.55 5.55 M-3.25 5.4 L-3.85 5.25 -3.55 5.15 -3.35 5.05 -3.25 5.05 -3.15 5.0 -3.1 5.0 -2.85 5.0 -2.45 4.75 -2.6 4.95 -2.7 5.05 -3.25 5.4 M2.6 1.4 L2.6 1.35 2.75 1.4 2.6 1.4 M1.3 4.3 L1.4 4.3 1.5 4.3 1.6 4.4 1.5 4.4 1.4 4.3 1.35 4.4 1.3 4.3 M3.35 4.15 L3.45 4.15 3.55 4.15 3.55 4.2 3.35 4.15 M3.85 4.25 L3.9 4.3 3.8 4.25 3.85 4.25 M4.65 3.65 L3.95 3.35 4.6 3.55 4.65 3.65 M11.3 2.45 L11.3 2.55 11.25 2.6 11.25 2.45 11.3 2.45 M3.05 5.05 L3.3 5.35 Q2.8 5.0 2.2 4.8 L1.8 4.7 1.65 4.45 1.85 4.65 2.6 4.9 2.85 4.95 2.9 5.0 3.05 5.05 M3.05 5.5 L3.15 5.55 3.3 5.6 3.25 5.6 3.05 5.5 M1.75 5.05 L1.65 4.8 2.2 5.4 1.75 5.05 M-10.25 -1.35 L-9.6 -1.0 -10.45 -1.35 -10.3 -1.35 -10.25 -1.35 M-10.6 -1.05 L-9.6 -0.6 -10.65 -0.85 -10.6 -1.05 M-11.3 0.75 L-10.05 0.75 -10.05 1.1 -11.3 1.1 -11.3 0.75 M-10.25 0.1 L-10.7 0.1 -10.95 0.0 -10.25 0.1 M-10.05 0.35 Q-9.7 0.35 -9.95 0.45 L-11.1 0.4 -10.05 0.35 M-10.05 1.45 L-10.95 1.9 -11.0 1.8 -11.25 1.6 -11.0 1.45 -10.05 1.45 M-9.45 -1.25 L-9.3 -1.0 -10.2 -1.4 -9.45 -1.25 M-9.9 -5.35 L-9.95 -5.35 -10.05 -5.5 -9.9 -5.35 M-9.9 -0.4 L-10.7 -0.6 -9.8 -0.45 -9.9 -0.4 M-9.1 2.15 L-9.6 2.1 -10.65 2.05 -9.35 1.95 -9.6 2.1 -9.35 2.1 -9.1 2.15 M-2.25 4.75 L-2.25 4.8 -2.5 4.95 -2.25 4.75 M-1.2 4.55 L-1.15 4.55 -1.45 4.65 -1.2 4.55 M-2.15 4.2 L-1.85 4.0 -1.7 4.0 -1.85 4.15 -1.9 4.15 -2.15 4.2 M-3.1 4.9 L-3.1 4.95 -3.25 5.0 -3.1 4.9" fill="#c0958b" fill-rule="evenodd" stroke="none"/>
      <path d="M5.95 -0.25 L6.45 -0.4 6.45 -0.25 6.4 -0.25 6.25 -0.05 5.95 0.1 5.95 0.3 5.85 0.3 5.65 0.6 5.7 0.65 7.5 0.6 Q7.3 0.65 7.4 0.75 L7.45 1.05 7.5 1.05 7.5 1.1 7.5 1.4 7.5 1.45 7.5 1.5 7.7 1.5 7.7 1.7 7.75 1.8 Q8.3 1.8 7.8 1.9 L7.7 2.05 7.65 2.15 Q7.15 2.15 6.9 2.4 L6.3 2.4 6.25 2.45 Q6.7 2.6 5.95 2.75 L9.05 2.95 10.0 2.75 Q10.0 2.6 10.15 2.6 10.25 2.45 10.5 2.45 L10.55 2.45 10.55 2.4 10.65 2.35 11.0 2.25 11.0 2.2 11.15 2.25 11.25 2.25 11.25 2.4 11.0 2.55 11.15 2.6 11.25 2.75 11.25 2.95 11.15 3.05 11.0 3.15 10.9 3.15 10.85 3.25 10.55 3.65 10.5 3.8 10.15 4.15 9.65 4.4 9.6 4.55 9.6 4.6 9.5 4.65 9.45 4.7 9.35 4.75 9.3 4.8 9.3 4.9 9.1 4.95 9.05 5.0 9.0 5.0 9.0 5.15 8.9 5.25 8.55 5.45 8.5 5.5 8.45 5.55 6.8 6.0 Q3.95 7.0 1.05 6.65 L0.45 6.7 0.2 6.75 -0.3 6.75 -1.15 6.65 -1.3 6.65 -2.95 6.35 -3.2 6.3 -3.45 6.3 -3.9 6.25 -4.1 6.15 -4.35 6.0 -4.55 5.95 -4.65 5.95 -4.7 5.9 -5.3 5.8 -5.4 5.8 -6.0 5.7 -6.05 5.7 -9.25 4.7 -10.6 3.95 -11.1 3.8 -11.35 3.55 -11.35 3.25 -11.4 3.2 -11.5 3.15 -11.65 3.1 -11.45 3.1 -11.4 3.1 -11.25 3.1 -11.1 3.1 -9.3 3.9 -9.05 3.95 -8.1 4.15 -8.05 4.15 -5.6 4.6 -4.25 5.05 -3.85 5.25 -3.25 5.4 -4.25 5.55 -4.9 5.5 -4.85 5.55 -4.65 5.55 -4.55 5.55 -4.45 5.6 -4.3 5.6 -3.8 5.55 -3.35 5.5 -3.85 5.7 -3.8 5.75 -3.65 5.7 -3.35 5.6 -3.25 5.6 -3.1 5.5 -3.2 5.6 -2.95 5.6 -2.75 5.5 -2.15 5.7 -0.3 5.0 0.15 4.9 0.25 4.8 0.35 4.95 0.45 5.0 0.6 5.15 0.6 5.25 0.65 5.35 0.65 5.4 0.7 5.45 0.85 5.45 0.85 5.55 1.0 5.6 1.1 5.7 1.4 5.8 1.45 5.8 1.6 5.8 1.65 5.9 1.75 5.9 1.9 5.9 2.1 5.95 2.15 5.95 2.3 6.0 2.85 6.15 2.9 6.15 Q2.8 6.0 2.6 6.0 L2.7 5.95 2.7 5.9 2.8 5.9 2.8 5.8 2.6 5.75 2.75 5.7 2.85 5.7 2.9 5.7 3.0 5.7 3.3 5.75 3.25 5.7 3.5 5.75 4.15 5.95 4.2 5.95 4.6 5.9 4.3 5.8 3.75 5.7 3.55 5.7 3.55 5.6 3.5 5.6 3.55 5.55 3.8 5.7 3.9 5.7 4.35 5.75 4.3 5.7 4.1 5.7 3.75 5.55 4.9 5.15 5.4 5.05 6.4 5.15 5.55 5.0 7.4 4.55 7.45 4.4 7.7 4.4 7.75 4.3 7.8 4.25 8.05 4.25 8.1 4.2 8.3 4.15 8.45 4.0 8.3 3.95 5.75 3.45 5.55 3.35 5.6 3.35 5.55 3.25 5.45 3.25 5.3 3.15 5.45 3.2 5.45 3.15 5.35 3.1 5.25 3.1 5.0 2.95 4.95 2.85 4.95 2.8 4.35 2.1 4.35 2.05 4.35 1.9 4.25 1.9 4.1 1.7 3.95 1.45 3.85 0.95 3.85 0.8 3.55 0.65 3.45 0.35 3.45 0.3 3.3 0.25 3.3 0.1 3.0 -0.05 5.15 -0.2 5.15 -0.1 5.35 -0.2 5.95 -0.25 M-3.85 5.25 L-3.9 5.25 -4.35 5.35 -3.9 5.35 -3.85 5.25 M-5.35 -2.85 Q-3.9 -1.55 -1.9 -0.75 L-1.85 -0.8 -1.5 -0.6 -0.85 -0.6 -0.3 -0.45 0.2 -0.4 0.45 -0.4 0.55 -0.4 1.8 -0.1 0.75 0.8 0.7 0.95 0.65 0.8 -0.1 0.8 -0.45 0.45 -0.5 0.4 -0.6 0.3 -0.65 0.25 -0.65 0.1 -0.85 0.0 -0.9 0.0 -1.0 -0.05 -1.0 -0.2 -1.05 -0.25 -1.1 -0.35 -1.3 -0.35 -1.7 -0.1 -1.85 -0.05 -1.85 0.0 -2.9 0.45 -3.8 0.95 -3.85 0.8 -4.0 0.8 Q-6.05 -0.25 -7.85 -1.85 L-7.9 -1.95 -7.95 -1.95 -8.1 -2.1 -8.15 -2.15 -8.05 -2.1 -7.85 -2.0 -7.85 -1.95 -7.75 -1.85 Q-7.7 -1.8 -7.45 -1.7 L-7.35 -1.65 -7.25 -1.55 -6.35 -1.55 -6.15 -1.7 -6.0 -1.7 -5.9 -1.75 -5.75 -1.8 -5.7 -1.95 -5.65 -2.0 -5.45 -2.05 -5.45 -2.1 -5.35 -2.6 -5.4 -2.75 -5.35 -2.85 M0.7 5.75 L0.7 5.8 0.85 5.75 0.7 5.75" fill="#d0d0d0" fill-rule="evenodd" stroke="none"/>
      <path d="M12.65 -1.4 L12.65 -1.3 12.7 -1.15 12.75 -1.0 12.9 0.8 13.0 2.25 12.9 2.35 12.85 2.55 12.85 2.6 12.85 2.8 12.7 2.95 12.65 3.15 12.55 3.45 12.35 3.65 12.3 3.8 12.3 3.9 12.25 3.9 12.15 3.95 12.15 4.0 12.1 4.15 12.1 4.2 11.3 4.9 11.25 5.0 11.25 5.05 Q10.5 5.55 9.65 5.7 L9.05 5.75 9.0 5.75 8.9 5.7 8.95 5.7 9.05 5.7 9.05 5.6 9.1 5.55 9.3 5.55 10.3 4.8 10.4 4.8 10.55 4.7 10.7 4.4 10.9 4.4 11.0 4.3 11.05 4.25 11.25 4.15 11.3 4.15 11.35 3.95 11.4 3.85 11.55 3.8 11.65 3.65 11.8 3.1 11.9 2.75 11.9 2.45 11.95 2.35 12.05 2.2 12.05 1.8 12.1 1.75 12.15 1.75 12.15 1.5 12.25 1.15 12.35 0.35 12.35 -0.35 12.35 -0.6 12.35 -1.0 12.3 -1.7 12.3 -2.2 12.3 -2.4 12.35 -2.15 12.4 -1.95 12.45 -1.85 12.45 -1.75 12.55 -1.7 12.55 -1.4 12.65 -1.4" fill="#808080" fill-rule="evenodd" stroke="none"/>
      <path d="M-3.65 11.2 L-3.5 11.2 -3.45 11.25 -3.65 11.2 M11.25 14.95 L10.7 15.15 11.3 14.8 11.25 14.95 M2.2 18.8 L2.2 18.9 2.05 18.95 1.85 19.0 1.65 19.1 1.65 19.15 1.5 19.15 1.4 19.1 1.5 19.05 1.75 18.9 2.35 18.7 2.2 18.8" fill="#2c1010" fill-rule="evenodd" stroke="none"/>
      <path d="M-10.65 15.5 L-8.6 16.9 -8.05 17.2 -7.7 17.35 -7.05 17.55 -4.85 18.35 -4.55 18.35 -3.5 18.65 -3.45 18.65 -1.7 19.05 -1.5 19.05 -1.1 19.05 -0.7 19.1 -0.3 19.15 0.2 19.15 0.3 19.15 0.45 19.15 0.85 19.2 4.65 18.75 4.7 18.75 6.05 18.35 6.55 18.15 7.4 17.7 Q9.1 17.05 10.5 15.85 L10.9 15.6 10.9 16.2 Q10.9 18.35 7.15 19.75 L7.0 19.8 Q4.2 20.95 0.65 20.95 L-0.85 20.9 -2.55 20.75 -3.8 20.55 Q-6.15 20.0 -8.05 19.0 -10.65 17.65 -10.65 15.6 L-10.65 15.5" fill="#636363" fill-opacity="0.42352942" fill-rule="evenodd" stroke="none"/>
      <path d="M-14.5 -11.25 L-14.5 -11.0 -14.45 -10.75 -14.15 -9.95 -14.15 -9.6 -14.05 -9.4 -14.05 -9.35 -14.05 -9.25 -14.0 -9.2 -14.0 -9.15 -13.9 -9.15 -13.5 -8.5 -13.45 -8.45 -13.5 -8.45 -13.7 -8.1 -13.7 -8.05 -13.75 -7.95 -14.45 -4.5 -14.8 1.15 -14.8 1.4 -14.65 1.45 -14.6 1.35 -14.6 1.15 -14.55 0.95 -14.45 0.95 -14.3 0.8 -14.25 1.05 -14.15 1.15 -14.15 0.4 -14.15 0.05 -14.05 -0.2 -14.0 0.0 -13.9 0.1 -13.9 0.05 -13.9 -0.1 -14.0 -1.2 -14.0 -1.25 -13.9 -1.95 -13.85 -1.3 -13.8 -1.7 -13.7 -1.55 -13.7 -1.3 -13.7 -0.8 -13.6 -0.6 -13.6 -0.55 -13.45 0.0 -13.45 0.2 -13.45 0.25 -13.45 0.35 -13.45 0.4 -13.4 1.45 -13.1 1.6 -13.05 1.7 -13.1 1.75 -13.05 1.8 -13.05 1.95 -12.95 2.0 -12.9 2.15 -12.85 2.4 -12.7 2.8 -12.3 3.35 Q-12.1 3.45 -11.95 3.65 L-11.8 3.9 -11.8 3.95 -11.65 4.0 Q-9.6 5.0 -7.35 5.7 L-2.95 6.85 -1.1 7.15 -1.05 7.15 -1.05 7.2 -0.3 7.35 0.2 7.35 0.45 7.35 6.7 6.65 7.65 6.4 7.75 6.4 7.9 6.35 8.05 6.35 8.1 6.3 8.25 6.3 8.5 6.3 8.55 6.3 8.75 6.4 8.75 6.55 8.65 6.6 8.55 6.65 8.2 6.7 8.05 6.65 7.65 6.75 7.15 6.85 7.05 7.0 5.75 7.2 3.25 7.6 Q3.05 7.6 2.9 7.75 L1.15 7.9 0.85 7.9 0.45 7.95 0.2 7.95 -0.15 7.9 -0.3 7.9 -0.7 7.85 -1.1 7.9 -6.15 7.0 -6.45 6.85 -7.15 6.7 -7.55 6.6 -8.05 6.35 -9.6 5.8 -9.85 5.7 Q-11.95 4.8 -13.7 3.35 L-13.5 4.0 -13.4 4.25 -12.5 5.9 -13.45 4.3 -13.6 4.0 -13.75 3.45 -13.8 3.2 -13.9 3.15 -14.0 3.45 -13.75 4.4 -13.7 4.4 -13.7 4.55 -13.7 4.65 -13.6 4.9 -13.2 5.7 Q-12.45 7.15 -11.1 8.2 L-8.85 9.55 -8.9 10.35 Q-8.95 11.55 -8.6 12.7 L-8.1 13.9 -7.9 14.15 -7.45 14.65 -9.05 13.9 -9.05 13.85 -9.1 13.85 -9.3 13.8 -9.3 13.75 -9.35 13.75 -9.35 13.7 -9.45 13.7 -9.6 13.55 -9.6 13.5 -9.65 13.5 -9.7 13.5 -9.8 13.45 -9.95 13.4 -10.2 13.2 Q-12.45 11.8 -14.15 9.8 L-14.45 9.7 -16.05 5.95 -16.05 5.9 Q-16.05 5.45 -16.2 4.95 L-16.3 4.6 -16.55 3.95 -16.8 2.95 -16.9 2.8 -17.0 2.05 -17.05 1.1 -17.1 -1.4 -17.1 -1.75 -17.05 -3.55 -16.9 -4.35 -16.6 -5.35 -16.45 -6.25 -15.35 -9.35 -14.55 -11.05 -14.5 -11.25 M-14.65 2.3 L-14.7 2.3 -14.9 2.35 -14.9 2.45 -14.9 2.6 -14.9 2.8 -14.9 3.0 -14.9 3.15 -14.85 3.2 -14.8 3.25 -14.7 3.25 -14.65 3.2 -14.6 3.1 -14.55 3.1 -14.5 2.8 -14.5 2.55 -14.55 2.45 -14.6 2.4 -14.65 2.3 M-11.3 11.95 L-13.05 8.2 -13.7 6.85 -13.7 7.15 Q-13.05 9.2 -11.95 10.95 L-11.3 12.0 -10.7 12.65 -10.7 12.5 -10.95 12.25 -11.0 12.2 -11.1 12.05 -11.1 12.0 -11.25 11.95 -11.3 11.95" fill="#ffcc66" fill-rule="evenodd" stroke="none"/>
      <path d="M3.25 5.7 L3.3 5.75 3.0 5.7 3.25 5.7 M1.75 5.15 L1.45 4.8 1.45 4.7 1.5 4.7 1.75 5.15 M-10.9 -5.75 L-10.7 -5.6 -10.9 -5.6 -10.9 -5.75 M-10.3 -5.05 L-10.2 -5.0 -9.95 -4.9 -9.9 -4.9 -9.9 -4.95 Q-9.5 -4.6 -9.05 -4.6 L-8.85 -4.4 -9.05 -4.5 -9.6 -4.6 -9.8 -4.55 -9.85 -4.55 -9.95 -4.65 -10.15 -4.65 -10.2 -4.7 -10.25 -4.8 -10.25 -4.9 -10.3 -4.9 -10.3 -5.0 -10.3 -5.05 M-11.4 -6.05 L-11.35 -6.0 -11.4 -6.0 -11.4 -6.05 M-2.95 0.8 L-3.25 0.95 -3.2 0.8 -2.95 0.8 M-3.9 1.15 L-3.9 1.35 -4.4 1.45 -3.9 1.15 M-2.15 4.8 L-1.85 4.7 -2.15 4.95 -2.15 4.8" fill="#b6827c" fill-rule="evenodd" stroke="none"/>
      <path d="M-10.45 -12.45 L-10.45 -12.5 -10.35 -12.75 -10.35 -12.5 -10.35 -12.45 -10.45 -12.45 M0.7 5.75 L0.85 5.75 0.7 5.8 0.7 5.75 M-5.1 -11.3 L-6.15 -11.4 -6.25 -11.5 -5.1 -11.3 M-8.05 -12.0 L-7.9 -11.95 -8.05 -11.95 -8.05 -12.0 M-0.45 -10.9 L-0.75 -10.95 -0.55 -10.95 -0.45 -10.9 M-10.95 -6.2 L-10.9 -6.2 -10.7 -6.05 -10.9 -6.05 -10.95 -6.2 M-10.9 -5.75 L-10.95 -5.75 -11.0 -5.8 -11.1 -5.95 -11.25 -6.0 -11.3 -6.05 -11.3 -6.1 -11.1 -6.0 -10.9 -5.75 M-9.6 -4.8 L-9.95 -5.05 -9.6 -4.95 -9.6 -4.8 M-10.9 -6.05 L-10.7 -6.0 -10.6 -5.6 -10.9 -6.05 M-10.35 -5.65 L-10.35 -5.75 -10.3 -5.65 -10.35 -5.65 M-10.55 -5.55 L-10.45 -5.55 -10.2 -5.35 -10.2 -5.25 -10.55 -5.55 M-9.25 -1.75 L-9.1 -1.7 -9.25 -1.7 -9.25 -1.75 M-9.25 -1.25 L-9.45 -1.35 -9.1 -1.25 -9.25 -1.25 M-9.95 0.25 L-10.2 0.1 -9.85 0.25 -9.95 0.25" fill="#a06456" fill-rule="evenodd" stroke="none"/>
      <path d="M-7.35 11.25 L-7.4 11.2 -7.4 11.0 -7.35 10.7 -7.3 10.25 Q-6.7 10.4 -6.05 10.65 L-5.35 10.75 -5.35 11.2 -5.3 11.25 -5.25 11.4 -5.25 11.45 -4.95 11.55 -4.65 11.55 -4.65 11.35 -4.7 11.25 -4.65 10.9 -3.8 11.2 -3.65 11.2 -3.45 11.25 -3.35 11.25 -2.35 11.45 -1.05 11.7 -0.85 11.7 -0.3 11.75 -0.15 11.75 0.2 11.8 Q0.3 11.8 0.45 11.95 L0.7 11.95 3.55 12.25 5.7 12.4 Q4.9 13.9 3.5 14.65 2.15 15.5 0.7 15.9 L0.45 15.9 0.2 15.85 -0.3 15.85 -0.45 15.85 -0.35 15.9 -0.35 16.0 -0.35 16.2 -0.35 16.25 -0.45 16.3 -0.5 16.3 -0.6 16.3 -0.7 16.3 -0.85 16.3 -1.05 16.25 -1.1 16.2 -1.15 16.15 -1.2 16.0 -1.2 15.9 -1.15 15.85 -1.1 15.8 -1.05 15.8 -1.05 15.6 -1.15 15.1 -1.3 14.15 -1.45 12.5 -1.5 12.65 -1.5 13.0 -1.7 13.8 Q-1.8 14.6 -1.5 15.15 L-1.7 15.6 -1.7 15.85 -4.45 15.5 -6.1 15.05 Q-6.9 13.7 -7.15 12.0 L-7.3 10.95 -7.35 11.0 -7.35 11.25 M4.35 15.6 Q5.45 14.65 6.25 13.35 L6.4 13.3 6.3 13.2 6.3 13.15 6.3 13.0 6.4 12.95 6.4 12.85 6.45 12.85 6.65 12.55 6.65 12.4 6.7 12.15 6.9 12.15 6.95 12.05 7.1 12.05 7.35 11.85 7.4 11.95 7.45 12.0 7.5 12.15 7.5 12.2 7.75 12.15 7.85 12.2 7.75 12.5 Q7.1 13.85 6.05 14.75 L4.9 15.6 4.9 15.7 4.3 16.0 3.85 16.3 3.75 16.3 3.65 16.3 2.2 16.95 4.3 15.8 4.35 15.6 M9.75 12.8 L9.45 13.5 8.1 14.9 6.95 15.6 6.6 15.55 6.95 15.2 7.05 15.1 9.0 13.35 9.05 13.2 9.45 12.7 9.45 12.65 9.45 12.5 9.45 12.4 9.5 12.4 9.6 12.35 9.75 12.4 9.75 12.6 9.75 12.8" fill="#fec570" fill-rule="evenodd" stroke="none"/>
      <path d="M-12.5 5.9 Q-11.85 7.0 -10.65 7.75 -9.65 8.2 -8.6 8.75 L-8.85 9.55 -11.1 8.2 Q-12.45 7.15 -13.2 5.7 L-13.6 4.9 -13.7 4.65 -13.7 4.55 -13.7 4.4 -13.75 4.4 -14.0 3.45 -13.9 3.15 -13.8 3.2 -13.75 3.45 -13.6 4.0 -13.45 4.3 -12.5 5.9 M-7.3 10.25 L-7.35 10.25 -7.45 10.2 -7.7 10.25 -7.75 10.25 -7.8 10.75 -7.8 11.1 -7.9 11.25 -7.9 11.35 -7.8 12.2 -8.05 12.3 -8.2 12.4 -8.25 12.0 -8.5 9.7 -8.5 8.85 -7.1 9.3 -5.35 9.8 -5.4 10.25 -5.35 10.75 -6.05 10.65 Q-6.7 10.4 -7.3 10.25" fill="#feb445" fill-rule="evenodd" stroke="none"/>
      <path d="M-4.9 5.5 L-4.25 5.55 -4.35 5.55 -4.9 5.5" fill="#b57b75" fill-rule="evenodd" stroke="none"/>
    </g>
    <g id="sprite1">
      <use ffdec:characterId="3" height="31.55" transform="matrix(1.0, 0.0, 0.0, 1.0, 0.0, 0.0)" width="22.05" xlink:href="#shape1"/>
    </g>
    <g id="shape1">
      <path d="M11.9 -0.45 L1.35 1.45 -0.1 16.65 -0.9 1.3 -10.15 -0.45 -1.05 -1.25 0.2 -14.9 1.3 -1.0 11.9 -0.45" fill="#ffffff" fill-rule="evenodd" stroke="none"/>
    </g>
    <g id="sprite2">
      <use ffdec:characterId="3" height="31.55" transform="matrix(0.4715, 0.0, 0.0, 0.4715, 0.0, 0.0)" width="22.05" xlink:href="#shape1"/>
    </g>
  </defs>
</svg>
