<?xml version="1.0" encoding="UTF-8" standalone="no"?>
<svg xmlns:ffdec="https://www.free-decompiler.com/flash" xmlns:xlink="http://www.w3.org/1999/xlink" ffdec:objectType="frame" height="42.2px" width="51.9px" xmlns="http://www.w3.org/2000/svg">
  <g transform="matrix(1.0, 0.0, 0.0, 1.0, 18.65, 48.0)">
    <use ffdec:characterId="2" height="18.3" transform="matrix(-0.8121, -0.5835, -0.5835, 0.8121, -3.6, -22.85)" width="24.0" xlink:href="#sprite0"/>
    <use ffdec:characterId="2" height="18.3" transform="matrix(1.0, 0.0, -0.1202, 1.0, 19.75, -14.95)" width="24.0" xlink:href="#sprite0"/>
    <use ffdec:characterId="4" height="20.65" transform="matrix(1.0, 0.0, 0.0, 1.0, 21.9, -26.0)" width="22.65" xlink:href="#sprite1"/>
    <use ffdec:characterId="4" height="20.65" transform="matrix(-0.7291, -0.6844, -0.6844, 0.7291, 4.45, -32.7)" width="22.65" xlink:href="#sprite1"/>
    <use ffdec:characterId="6" height="10.1" transform="matrix(1.0, 0.0, 0.0, 1.0, 10.5, -24.5)" width="8.1" xlink:href="#sprite2"/>
    <use ffdec:characterId="8" height="5.3" transform="matrix(0.9997, -0.0237, 0.0237, 0.9997, 12.25, -21.6)" width="5.15" xlink:href="#sprite3"/>
    <use ffdec:characterId="8" height="5.3" transform="matrix(0.9997, -0.0237, 0.0237, 0.9997, 7.8, -23.75)" width="5.15" xlink:href="#sprite3"/>
    <use ffdec:characterId="8" height="5.3" transform="matrix(0.9997, -0.0237, 0.0237, 0.9997, 11.75, -27.05)" width="5.15" xlink:href="#sprite3"/>
  </g>
  <defs>
    <g id="sprite0">
      <use ffdec:characterId="1" height="18.3" transform="matrix(1.0, 0.0, 0.0, 1.0, 0.0, 0.0)" width="24.0" xlink:href="#shape0"/>
    </g>
    <g id="shape0">
      <path d="M-10.45 5.0 Q-9.75 3.65 -9.6 2.25 L-9.5 0.9 -8.75 -1.95 Q-1.05 -2.45 2.9 1.3 6.8 5.0 8.15 4.15 4.55 7.75 -0.8 8.6 -6.15 9.35 -8.1 7.4 L-10.45 5.0" fill="#3ca718" fill-rule="evenodd" stroke="none"/>
      <path d="M-10.45 5.0 L-10.5 4.65 -10.8 0.65 -10.85 -0.1 -11.2 -0.3 -10.8 -0.25 -10.9 -2.7 -10.9 -7.1 -10.55 -8.25 Q-10.1 -8.75 -8.25 -8.7 L-5.7 -8.35 Q-1.6 -7.35 3.55 -2.5 8.5 2.95 8.45 3.3 L8.15 4.15 Q6.8 5.0 2.9 1.3 -1.05 -2.45 -8.75 -1.95 L-9.5 0.9 -9.6 2.25 Q-9.75 3.65 -10.45 5.0" fill="#396f0a" fill-rule="evenodd" stroke="none"/>
      <path d="M3.75 5.35 Q4.25 6.3 4.9 6.65 L4.1 7.4 Q3.15 7.9 2.6 7.8 L2.55 7.85 2.15 7.95 Q1.85 7.95 0.65 4.9 L0.25 4.05 2.35 4.9 3.75 5.35 M-4.55 1.05 L-3.65 3.85 -2.95 6.05 -1.9 7.3 Q-1.35 7.95 -1.35 8.15 -1.35 8.5 -2.1 8.45 L-4.6 8.15 -5.75 6.55 -7.0 4.15 Q-7.85 2.0 -8.05 0.05 L-8.2 -1.55 -8.1 -1.4 -4.55 1.05 M-9.0 -0.3 L-7.85 3.6 -7.25 5.75 -6.9 6.75 -6.25 7.75 -6.6 7.95 Q-7.1 7.9 -7.4 6.85 L-7.6 5.45 -8.35 3.2 -9.2 0.3 -9.0 -0.3" fill="#2b561b" fill-rule="evenodd" stroke="none"/>
      <path d="M1.05 -2.85 Q1.35 -1.95 2.4 0.35 2.9 1.7 5.15 5.5 L5.7 6.65 Q5.75 6.95 5.5 6.9 L4.5 5.75 4.35 5.45 3.5 3.75 2.85 2.2 2.0 0.6 -0.5 -5.65 -0.5 -5.8 Q0.1 -5.4 0.5 -4.4 L1.05 -2.85 M0.25 4.05 L-1.25 0.15 Q-3.8 -6.75 -3.8 -7.75 L-3.8 -8.05 -3.75 -8.0 -3.45 -7.65 -3.4 -7.75 -2.75 -7.35 -2.25 -6.9 Q-1.2 -6.65 -1.15 -6.05 L-0.6 -4.15 0.75 -0.45 1.75 1.35 3.55 5.0 3.75 5.35 2.35 4.9 0.25 4.05 M-8.2 -1.55 L-8.4 -4.1 Q-8.75 -6.45 -9.4 -8.2 L-9.0 -8.4 -8.6 -8.6 Q-8.3 -8.55 -8.15 -8.35 L-7.45 -8.4 Q-6.6 -8.15 -6.45 -7.9 L-6.2 -6.8 -5.85 -4.65 -5.0 -0.45 -4.55 1.05 -8.1 -1.4 -8.2 -1.55 M-9.2 0.3 Q-9.55 -0.85 -9.5 -1.55 L-9.45 -3.8 -10.15 -8.3 Q-9.8 -8.25 -9.7 -7.6 L-9.65 -6.55 -9.25 -4.55 Q-9.05 -3.8 -9.1 -2.5 L-9.05 -0.5 -9.0 -0.3 -9.2 0.3" fill="#153409" fill-rule="evenodd" stroke="none"/>
      <path d="M0.45 -4.4 L0.9 -4.2 2.3 -3.6 2.85 -3.1 Q2.85 -2.9 1.35 -2.55 L0.55 -3.65 0.45 -4.4 M0.85 -2.35 L0.15 -2.25 0.15 -2.3 -0.05 -3.05 -0.65 -4.3 -0.25 -4.45 0.05 -4.4 0.85 -2.35 M-2.1 -1.95 L-4.25 -1.85 -5.35 -1.7 -5.8 -3.45 -2.7 -3.85 -2.35 -2.8 -2.1 -1.95 M-8.2 -1.2 L-9.1 -1.3 -9.05 -3.1 -9.05 -3.35 -8.35 -3.3 -8.2 -1.2 M-9.45 -1.3 L-9.7 -1.3 Q-11.3 -1.5 -11.3 -1.8 L-11.25 -2.75 Q-10.85 -3.25 -10.1 -3.25 L-9.45 -3.35 -9.45 -1.3 M3.1 1.4 L3.15 1.35 5.05 0.6 5.7 0.15 6.5 -0.6 6.75 -0.65 6.8 -0.65 7.4 -0.1 8.2 0.8 Q8.65 1.15 8.6 1.5 8.65 1.9 8.0 2.5 L5.7 4.15 4.6 4.85 4.1 3.5 3.1 1.65 3.1 1.4 M4.35 5.2 L4.1 5.25 3.9 5.25 2.0 1.85 1.9 1.6 2.6 1.5 3.45 3.3 4.35 5.2 M0.8 5.7 L-2.75 5.55 -3.25 5.5 -4.35 1.8 -0.6 2.1 -0.2 2.95 0.8 5.7 M-6.95 4.8 L-7.8 4.6 -9.0 1.05 -8.25 1.4 -8.1 1.8 -6.95 4.8 M-8.5 4.5 L-10.85 4.1 Q-11.55 3.75 -11.55 2.1 -11.6 0.6 -11.2 0.35 L-9.5 0.8 -9.35 1.85 -8.5 4.5" fill="#063a15" fill-rule="evenodd" stroke="none"/>
      <path d="M1.35 -2.55 L0.85 -2.35 0.05 -4.4 0.45 -4.4 0.55 -3.65 1.35 -2.55 M0.15 -2.25 L-0.7 -2.0 -2.1 -1.95 -2.35 -2.8 -2.7 -3.85 -1.3 -4.0 -0.65 -4.3 -0.05 -3.05 0.15 -2.3 0.15 -2.25 M-5.35 -1.7 L-5.7 -1.65 -6.75 -1.4 -7.8 -1.2 -8.2 -1.2 -8.35 -3.3 -5.8 -3.45 -5.35 -1.7 M-9.1 -1.3 L-9.45 -1.3 -9.45 -3.35 -9.05 -3.35 -9.05 -3.1 -9.1 -1.3 M4.6 4.85 L4.35 5.2 3.45 3.3 2.6 1.5 3.1 1.4 3.1 1.65 4.1 3.5 4.6 4.85 M3.9 5.25 L1.45 5.85 0.8 5.7 -0.2 2.95 -0.6 2.1 -0.5 2.1 1.9 1.6 2.0 1.85 3.9 5.25 M-3.25 5.5 L-6.95 4.8 -8.1 1.8 -8.25 1.4 -7.65 1.6 -4.9 1.8 -4.75 1.85 -4.35 1.8 -3.25 5.5 M-7.8 4.6 L-8.5 4.5 -9.35 1.85 -9.5 0.8 -9.2 0.95 -9.0 1.05 -7.8 4.6" fill="#201805" fill-rule="evenodd" stroke="none"/>
      <path d="M3.25 6.85 L8.4 3.9 Q1.35 -7.6 -10.55 -7.8 -11.25 -0.6 -9.55 6.1 -3.45 8.45 3.25 6.85 M-10.85 7.5 Q-12.85 -0.05 -11.4 -8.35 -4.95 -10.6 0.3 -6.4 L12.0 3.35 Q1.55 11.4 -7.45 8.3 L-9.5 7.7 -10.85 7.5" fill="#000000" fill-rule="evenodd" stroke="none"/>
    </g>
    <g id="sprite1">
      <use ffdec:characterId="3" height="20.65" transform="matrix(1.0, 0.0, 0.0, 1.0, 0.0, 0.0)" width="22.65" xlink:href="#shape1"/>
    </g>
    <g id="shape1">
      <path d="M-5.8 -1.75 L-5.75 -1.85 -4.35 -1.85 Q-3.25 -1.75 -1.3 -2.4 L1.75 -3.7 3.6 -4.6 4.7 -4.95 4.7 -4.35 Q4.7 -2.0 3.5 0.3 3.0 1.35 2.0 2.05 L2.3 2.9 2.35 3.3 2.35 3.65 -4.15 4.45 -4.4 3.9 -6.3 3.1 -7.15 2.5 -7.6 2.1 -5.0 0.75 -3.15 -0.2 -5.25 0.3 -7.4 0.2 -5.8 -1.75" fill="#3ca718" fill-rule="evenodd" stroke="none"/>
      <path d="M8.1 -9.4 Q9.6 -7.4 8.3 -7.3 L6.1 -7.6 Q5.2 -8.0 2.55 -6.6 L-0.65 -5.05 1.35 -8.55 1.7 -9.15 3.3 -9.6 4.65 -9.65 8.1 -9.4 M-6.05 -1.95 L-5.8 -1.75 -7.4 0.2 -5.25 0.3 -3.15 -0.2 -5.0 0.75 -7.6 2.1 -7.15 2.5 -6.3 3.1 -4.4 3.9 -4.15 4.45 2.35 3.65 2.35 3.3 2.3 2.9 2.0 2.05 Q3.0 1.35 3.5 0.3 4.7 -2.0 4.7 -4.35 L9.5 -6.0 Q9.15 -4.85 9.3 -3.2 L9.6 -1.05 9.65 0.75 9.6 0.85 8.2 2.9 Q6.55 4.7 4.5 5.9 L2.0 6.65 -2.5 7.4 -2.45 7.45 -1.75 7.95 -2.95 8.15 Q-4.7 7.9 -7.9 5.45 -10.8 3.1 -10.95 2.35 -11.05 1.8 -8.85 0.0 L-8.0 -0.6 -7.5 -0.95 -6.35 -1.75 -6.05 -1.95" fill="#396f0a" fill-rule="evenodd" stroke="none"/>
      <path d="M9.6 0.85 L9.5 1.15 Q9.55 3.35 9.0 5.4 8.0 9.35 4.95 9.95 L2.5 9.7 1.55 8.9 0.85 8.15 Q0.45 7.6 -0.45 7.7 L-1.75 7.95 -2.45 7.45 -2.5 7.4 2.0 6.65 4.5 5.9 Q6.55 4.7 8.2 2.9 L9.6 0.85" fill="#468311" fill-rule="evenodd" stroke="none"/>
      <path d="M1.7 -9.15 L1.35 -8.55 -0.65 -5.05 2.55 -6.6 Q5.2 -8.0 6.1 -7.6 L8.3 -7.3 Q9.6 -7.4 8.1 -9.4 L8.6 -9.3 Q10.25 -8.8 10.45 -7.75 L9.75 -6.65 9.5 -6.0 4.7 -4.35 4.7 -4.95 3.6 -4.6 1.75 -3.7 -1.3 -2.4 Q-3.25 -1.75 -4.35 -1.85 L-5.75 -1.85 -5.8 -1.75 -6.05 -1.95 -5.9 -2.05 -5.3 -2.45 Q-4.7 -2.9 -4.4 -3.55 -2.25 -7.75 1.7 -9.15" fill="#27470c" fill-rule="evenodd" stroke="none"/>
      <path d="M4.0 -3.1 Q2.3 -2.55 0.9 -1.75 -1.1 -0.6 -3.3 -0.2 -5.6 0.0 -7.5 -1.15 L-5.55 -1.55 Q-3.8 -1.65 -2.25 -2.35 L-0.5 -3.2 Q1.8 -4.15 3.5 -6.05 L4.0 -3.1 M-5.8 1.65 L-5.3 2.0 Q-3.0 3.45 -1.7 3.0 L0.55 2.0 1.5 1.45 2.75 1.6 2.5 1.85 Q1.75 2.9 0.5 3.55 -1.15 4.5 -3.2 4.45 -6.05 4.45 -7.15 2.25 L-5.8 1.65" fill="#2b561b" fill-rule="evenodd" stroke="none"/>
      <path d="M3.5 -6.05 L7.9 -5.7 8.5 -5.95 9.5 -5.05 Q9.8 -2.75 9.35 -0.3 7.0 -2.25 4.0 -3.1 L3.5 -6.05 M2.75 1.6 L3.2 1.85 4.4 2.7 6.85 2.3 Q8.85 1.9 9.15 2.75 L9.15 4.8 Q8.95 6.7 8.3 6.95 L4.65 6.85 0.5 5.9 -3.5 7.4 Q-4.95 7.15 -6.9 6.05 -9.1 4.8 -9.4 3.9 -9.6 3.35 -9.35 2.75 -9.1 2.1 -9.45 1.25 -9.7 0.4 -9.25 -0.1 -8.7 -0.6 -7.7 0.15 L-7.3 0.45 -7.2 0.55 -5.8 1.65 -7.15 2.25 Q-6.05 4.45 -3.2 4.45 -1.15 4.5 0.5 3.55 1.75 2.9 2.5 1.85 L2.75 1.6" fill="#153409" fill-rule="evenodd" stroke="none"/>
      <path d="M-2.75 2.7 L-1.7 1.55 Q-0.45 -0.25 -0.5 -2.0 L-0.65 -3.45 -0.35 -3.55 Q0.65 -3.7 1.55 -4.1 L1.85 -4.2 Q1.7 -3.7 1.9 -3.35 L1.9 -1.5 Q1.6 -0.05 0.85 1.25 L0.3 2.2 Q-1.2 2.85 -2.75 2.7 M8.65 -0.75 L8.25 0.25 7.6 2.0 7.6 2.05 Q6.05 2.15 4.8 2.85 L4.45 2.75 4.45 2.7 5.85 -0.45 6.5 -2.25 7.1 -1.95 8.65 -0.75 M5.55 6.95 L5.35 7.35 3.9 9.7 2.5 9.55 1.75 8.95 0.6 7.85 Q0.55 7.65 1.45 7.1 L2.25 6.55 3.65 6.8 4.9 6.95 5.55 6.95" fill="#063a15" fill-rule="evenodd" stroke="none"/>
      <path d="M0.3 2.2 L0.15 2.55 -0.35 3.05 -1.7 5.4 -1.85 5.65 -2.4 6.65 -3.1 7.7 Q-3.75 7.95 -5.1 7.2 L-5.15 7.2 Q-5.55 6.35 -5.3 5.45 -4.95 4.4 -3.45 3.25 L-2.95 2.85 -2.75 2.7 Q-1.2 2.85 0.3 2.2 M6.5 -2.25 L6.65 -2.7 7.1 -4.55 7.2 -5.7 7.5 -5.7 Q8.2 -5.7 8.65 -6.15 L9.0 -5.9 9.05 -4.0 8.75 -1.2 8.65 -0.75 7.1 -1.95 6.5 -2.25 M7.6 2.05 L6.85 3.9 6.55 4.65 6.45 4.85 5.55 6.95 4.9 6.95 3.65 6.8 2.25 6.55 2.9 5.7 4.0 3.55 4.35 2.9 4.45 2.75 4.8 2.85 Q6.05 2.15 7.6 2.05" fill="#201805" fill-rule="evenodd" stroke="none"/>
      <path d="M6.45 -8.65 L6.2 -9.65 Q8.0 -9.5 9.75 -8.75 L10.25 -8.4 10.45 -7.65 Q10.85 -6.7 10.05 -5.6 9.2 -4.5 6.85 -4.6 L6.75 -5.45 7.7 -5.55 Q9.05 -6.2 9.6 -7.75 L6.45 -8.65" fill="#228700" fill-rule="evenodd" stroke="none"/>
      <path d="M6.2 -9.65 L6.45 -8.65 6.1 -8.7 4.65 -8.65 Q2.5 -8.65 0.7 -7.6 L0.3 -8.75 1.5 -9.4 4.3 -9.8 6.1 -9.65 6.2 -9.65 M-2.95 -5.0 L-2.7 -4.25 -3.65 -3.1 Q-4.6 -1.9 -6.0 -1.9 -4.35 -3.2 -2.95 -5.0" fill="#2db500" fill-rule="evenodd" stroke="none"/>
      <path d="M6.75 -5.45 L6.85 -4.6 5.7 -4.9 4.2 -5.2 Q3.35 -5.2 2.2 -4.25 L2.0 -4.1 0.55 -2.8 Q-0.3 -2.3 -0.95 -2.05 -1.75 -1.75 -2.2 -1.75 L-4.8 -1.25 -5.1 -1.15 -5.75 -1.25 -2.85 -2.1 -1.35 -2.6 Q-0.8 -2.85 -0.05 -3.25 0.5 -3.5 1.8 -4.8 L1.9 -4.9 2.5 -5.55 Q3.05 -6.0 4.2 -6.0 L5.6 -5.8 5.8 -5.7 5.9 -5.7 Q6.4 -5.5 6.75 -5.45" fill="#6adf43" fill-rule="evenodd" stroke="none"/>
      <path d="M0.3 -8.75 L0.7 -7.6 -0.55 -6.65 -2.7 -4.25 -2.95 -5.0 -2.85 -5.15 -0.7 -7.8 0.3 -8.75" fill="#73ef4a" fill-rule="evenodd" stroke="none"/>
      <path d="M9.25 -7.0 L8.6 -5.7 6.5 -5.15 5.7 -5.45 4.4 -5.75 3.1 -5.3 1.9 -4.5 -0.1 -3.1 Q-3.85 -1.35 -5.75 -1.35 L-6.0 -1.45 -8.5 0.1 -8.7 0.1 -9.5 0.95 -10.45 1.7 Q-10.25 2.85 -9.05 3.75 L-7.75 4.75 -6.05 5.9 -3.15 7.6 -1.0 7.5 Q0.9 7.4 1.6 8.1 3.1 9.7 4.8 9.4 6.15 9.1 7.55 7.35 8.7 5.8 8.85 4.5 L8.9 2.45 8.9 0.4 9.05 -3.7 Q9.1 -4.55 9.3 -5.35 9.8 -5.95 10.35 -7.65 10.5 -8.35 9.9 -8.35 L9.7 -8.3 7.25 -9.05 1.95 -9.2 Q0.35 -8.9 -1.35 -6.8 L-3.0 -4.5 Q-3.65 -3.35 -5.85 -1.6 L-5.85 -1.55 Q-4.1 -1.95 -2.8 -2.45 -1.15 -3.0 -0.05 -3.75 L2.35 -5.6 Q3.5 -6.55 4.35 -6.55 L5.75 -6.2 7.15 -5.9 Q8.2 -5.9 8.7 -6.4 L9.25 -7.0 M3.25 -10.35 L8.4 -9.9 Q11.1 -9.5 11.3 -8.3 11.45 -7.65 11.15 -7.3 L10.2 -5.9 10.0 -4.7 9.9 -3.6 Q9.65 -2.75 9.75 -1.45 L9.8 0.8 9.9 2.95 9.75 5.2 Q9.3 6.7 8.0 8.15 6.55 9.95 4.85 10.25 3.75 10.45 2.4 9.8 L1.05 8.9 Q0.6 8.45 -1.35 8.45 L-3.5 8.45 -6.35 6.75 -8.6 5.1 -9.3 4.75 -10.55 3.7 -10.95 2.8 -11.3 1.85 Q-11.45 1.25 -10.1 0.2 L-9.3 -0.3 -9.3 -0.45 Q-9.4 -0.95 -7.1 -2.25 -4.45 -3.85 -3.65 -5.2 L-1.3 -7.9 0.0 -9.25 Q1.0 -9.9 3.25 -10.35" fill="#000000" fill-rule="evenodd" stroke="none"/>
    </g>
    <g id="sprite2">
      <use ffdec:characterId="5" height="10.1" transform="matrix(1.0, 0.0, 0.0, 1.0, 0.0, 0.0)" width="8.1" xlink:href="#shape2"/>
    </g>
    <g id="shape2">
      <path d="M-2.75 2.25 L-2.8 2.2 -2.85 2.1 -3.5 0.05 Q-3.5 -0.95 -3.15 -1.35 L-2.95 -1.5 -2.9 -1.2 Q-3.25 -0.9 -3.25 -0.45 L-2.85 1.2 -2.55 2.1 -2.75 2.25" fill="#324400" fill-rule="evenodd" stroke="none"/>
      <path d="M2.9 -3.6 L2.95 -3.6 Q3.5 -3.6 3.65 -3.35 L3.65 -3.1 2.6 0.4 2.6 0.5 2.5 0.55 1.9 1.15 1.55 1.25 0.3 0.75 -0.7 0.0 -1.0 -0.15 -2.4 0.25 -2.7 -0.3 -2.5 -0.7 -1.65 -0.4 -0.3 -1.3 -0.4 -0.25 Q0.6 -0.25 1.55 0.4 L2.9 -3.6 M0.8 3.2 Q0.05 3.45 -0.25 3.65 L-0.7 4.1 -1.35 4.35 Q-2.05 4.35 -2.75 2.25 L-2.55 2.1 -2.1 2.8 -2.0 2.75 -2.25 1.85 -1.85 1.55 -1.7 1.5 Q-0.4 2.1 0.8 3.2 M-2.95 -1.5 L-2.8 -1.6 -1.3 -2.85 -0.65 -3.7 -0.6 -3.7 -0.75 -2.95 -1.95 -1.85 -2.55 -1.5 -2.9 -1.2 -2.95 -1.5 M1.75 -3.55 L1.65 -3.2 1.8 -3.2 2.2 -3.3 0.25 -1.7 1.75 -3.55" fill="#063a15" fill-rule="evenodd" stroke="none"/>
      <path d="M2.6 0.5 L2.45 1.05 2.45 1.45 2.4 2.1 Q2.3 2.55 1.8 2.85 L1.45 2.95 1.1 3.1 0.8 3.2 Q-0.4 2.1 -1.7 1.5 L-1.85 1.55 -2.25 1.85 -2.4 1.5 Q-2.8 0.7 -2.8 0.1 L-2.7 -0.3 -2.4 0.25 -1.0 -0.15 -0.7 0.0 0.3 0.75 1.55 1.25 1.9 1.15 2.5 0.55 2.6 0.5" fill="#06240f" fill-rule="evenodd" stroke="none"/>
      <path d="M-0.6 -3.7 L0.15 -4.2 0.5 -4.35 1.45 -4.1 1.75 -3.55 0.25 -1.7 2.2 -3.3 2.9 -3.6 1.55 0.4 Q0.6 -0.25 -0.4 -0.25 L-0.3 -1.3 -1.65 -0.4 -2.5 -0.7 -2.7 -0.3 -2.8 0.1 Q-2.8 0.7 -2.4 1.5 L-2.25 1.85 -2.0 2.75 -2.1 2.8 -2.55 2.1 -2.85 1.2 -3.25 -0.45 Q-3.25 -0.9 -2.9 -1.2 L-2.55 -1.5 -1.95 -1.85 -0.75 -2.95 -0.6 -3.7" fill="#087e2a" fill-rule="evenodd" stroke="none"/>
      <path d="M-1.15 -2.7 L-3.0 -1.3 -3.25 -0.3 -2.6 2.15 Q-1.8 4.35 -1.2 4.35 L-0.25 3.6 Q0.75 2.75 1.9 2.6 L2.55 -0.3 Q2.85 -2.3 3.25 -3.25 L3.25 -3.55 2.8 -3.55 Q2.3 -3.05 1.95 -3.05 1.7 -3.05 1.4 -3.45 1.2 -3.85 0.4 -3.75 L-0.6 -3.35 -1.15 -2.7 M-2.0 -2.65 L-0.8 -3.9 Q0.3 -5.05 1.15 -5.05 1.85 -5.05 1.95 -3.85 L2.35 -4.05 3.35 -4.25 Q4.25 -4.25 4.0 -3.6 L3.8 -2.45 3.3 -1.2 Q2.9 -0.2 3.0 1.1 L2.95 2.4 Q2.8 3.2 2.25 3.4 L1.0 3.75 Q0.3 3.85 0.0 4.05 L-0.5 4.65 -1.0 5.05 Q-2.3 5.05 -3.25 2.8 -4.05 1.1 -4.05 -0.15 -4.05 -1.3 -3.6 -1.6 L-2.0 -2.65" fill="#000000" fill-rule="evenodd" stroke="none"/>
    </g>
    <g id="sprite3">
      <use ffdec:characterId="7" height="5.3" transform="matrix(1.0, 0.0, 0.0, 1.0, 0.0, 0.0)" width="5.15" xlink:href="#shape3"/>
    </g>
    <g id="shape3">
      <path d="M1.4 -1.7 L0.55 -2.1 Q-0.55 -2.35 -1.0 -1.8 L-1.6 -0.95 -1.85 -0.35 Q-2.15 0.7 -1.7 1.2 L-0.85 1.8 0.2 2.1 0.35 2.0 -0.35 1.8 0.95 1.85 1.25 1.5 Q2.05 0.5 1.8 -0.6 L1.4 -1.7 M1.9 -1.9 L2.35 -0.95 2.55 0.55 Q2.5 1.35 1.95 1.95 1.35 2.5 0.55 2.65 L-0.45 2.5 -1.75 1.8 -2.35 1.05 Q-2.75 0.25 -2.55 -0.45 L-2.1 -1.4 -0.95 -2.4 0.55 -2.65 Q1.35 -2.5 1.9 -1.9" fill="#8d6300" fill-rule="evenodd" stroke="none"/>
      <path d="M1.4 -1.7 L1.8 -0.6 Q2.05 0.5 1.25 1.5 L0.95 1.85 -0.35 1.8 0.35 2.0 0.2 2.1 -0.85 1.8 -1.7 1.2 Q-2.15 0.7 -1.85 -0.35 L-1.6 -0.95 -1.0 -1.8 Q-0.55 -2.35 0.55 -2.1 L1.4 -1.7" fill="#ffd829" fill-rule="evenodd" stroke="none"/>
      <path d="M0.6 -1.85 L1.75 -1.35 1.6 0.4 Q0.8 1.15 -0.45 0.7 -1.6 0.25 -1.1 -0.5 -1.4 -1.85 0.6 -1.85" fill="#ffffff" fill-rule="evenodd" stroke="none"/>
    </g>
  </defs>
</svg>
