<?xml version="1.0" encoding="UTF-8" standalone="no"?>
<svg xmlns:ffdec="https://www.free-decompiler.com/flash" xmlns:xlink="http://www.w3.org/1999/xlink" ffdec:objectType="frame" height="43.45px" width="72.7px" xmlns="http://www.w3.org/2000/svg">
  <g transform="matrix(1.0, 0.0, 0.0, 1.0, 37.2, 46.0)">
    <use ffdec:characterId="1" height="43.45" transform="matrix(1.0, 0.0, 0.0, 1.0, -0.85, -24.25)" width="72.7" xlink:href="#shape0"/>
    <use ffdec:characterId="2" height="15.2" transform="matrix(1.0, 0.0, 0.0, 1.0, -15.3, -18.3)" width="20.45" xlink:href="#shape1"/>
  </g>
  <defs>
    <g id="shape0">
      <path d="M17.7 -14.6 L17.25 -14.95 17.25 -15.1 17.7 -14.6" fill="#f1d25a" fill-rule="evenodd" stroke="none"/>
      <path d="M12.15 18.25 L13.1 18.15 10.45 18.55 12.15 18.25" fill="#3399cc" fill-rule="evenodd" stroke="none"/>
      <path d="M23.8 -0.75 L23.9 -0.7 23.8 -0.65 23.8 -0.75 M-1.4 -8.75 L-1.55 -8.75 -1.4 -8.75" fill="#ccccff" fill-rule="evenodd" stroke="none"/>
      <path d="M-21.8 -0.6 L-21.7 -1.9 -21.65 -3.15 -21.6 -3.9 -21.55 -4.65 -22.1 -7.0 Q-22.1 -17.4 -8.3 -20.25 L0.6 -20.8 4.45 -20.55 5.6 -19.0 4.35 -19.0 Q5.45 -18.7 6.5 -17.9 6.85 -17.6 6.6 -17.25 L5.35 -17.0 6.85 -16.25 Q6.8 -15.55 6.1 -15.7 L5.35 -15.75 6.85 -14.5 Q6.75 -13.85 6.1 -13.75 L5.8 -13.6 5.6 -13.5 6.1 -12.5 Q5.95 -11.55 4.6 -11.25 L4.35 -11.25 3.0 -9.85 Q2.4 -9.45 1.85 -9.5 L1.25 -9.9 0.85 -9.5 Q-0.35 -8.95 -1.4 -8.75 L-1.3 -8.5 -1.4 -8.25 -3.4 -8.25 -3.9 -7.75 Q-5.0 -7.6 -5.65 -7.75 L-5.65 -7.5 Q-6.05 -7.9 -5.85 -7.5 L-5.65 -7.25 -5.1 -6.8 -4.9 -6.75 Q-6.1 -6.45 -4.75 -5.8 L-4.5 -5.5 -4.4 -5.0 Q-4.95 -4.25 -4.45 -3.45 L-4.2 -3.0 -4.15 -2.5 Q-5.3 -2.1 -4.2 -1.65 L-3.95 -1.25 Q-3.7 -0.55 -3.9 -0.25 L-4.9 0.5 Q-4.65 1.15 -3.65 1.5 L-3.4 1.75 Q-3.3 2.55 -3.95 2.95 L-4.3 3.3 -4.15 3.5 -3.85 3.8 -3.9 4.25 -3.9 4.3 -4.0 4.4 -4.15 4.5 -4.15 5.5 -4.1 6.4 -4.2 6.7 -4.5 6.95 -4.55 7.0 Q-4.45 7.45 -4.8 7.6 L-5.15 8.05 -5.15 8.1 -6.1 8.2 Q-6.1 8.35 -6.5 8.5 L-6.75 9.05 -7.95 9.5 -8.55 9.85 -10.7 10.1 -7.9 10.4 -5.85 10.55 -4.85 10.75 Q-4.4 11.2 -3.3 11.2 L-2.75 11.35 -3.35 11.85 -3.4 12.0 -2.9 13.25 -3.65 14.0 -9.65 15.25 -10.15 14.75 -18.65 15.0 -19.4 14.25 -22.4 14.0 Q-23.3 13.75 -22.65 13.25 L-22.35 12.7 -22.4 12.5 -25.15 12.0 Q-25.75 11.15 -25.2 10.25 L-24.9 9.75 -25.55 9.25 -25.1 9.25 -24.8 8.55 -24.25 8.4 -24.1 7.95 -22.95 7.5 -22.35 7.65 Q-20.4 8.55 -18.75 8.8 L-19.65 8.3 Q-20.5 7.55 -20.9 6.1 L-21.05 4.8 -21.8 4.05 -21.85 3.75 -21.85 3.7 -21.85 3.6 -21.8 3.1 -21.8 3.05 -21.75 2.2 -21.75 2.15 -21.75 1.75 -21.8 1.65 -21.75 1.35 -21.75 0.55 -21.8 -0.6 M-1.4 -8.75 L-1.55 -8.75 -1.4 -8.75" fill="#ffffff" fill-rule="evenodd" stroke="none"/>
      <path d="M17.7 -14.6 L18.75 -13.8 19.15 -13.25 19.55 -11.55 20.05 -11.15 Q20.65 -9.75 20.3 -7.95 20.9 -7.6 20.85 -6.45 20.8 -4.7 20.3 -3.25 L20.2 -3.15 20.3 -3.45 20.05 -3.85 Q19.8 -4.9 18.75 -5.15 L18.2 -6.1 18.05 -6.6 17.25 -6.85 16.15 -7.6 14.8 -7.95 Q13.15 -7.15 11.25 -7.6 L12.95 -7.75 13.7 -8.15 13.85 -8.9 14.4 -9.0 14.6 -9.3 15.95 -9.45 16.15 -9.7 16.9 -11.15 17.65 -11.75 17.55 -12.85 Q17.45 -13.1 18.0 -13.05 L18.0 -13.25 Q18.05 -14.05 17.7 -14.6 M22.4 -0.95 L23.2 -0.85 23.6 -0.75 23.8 -0.75 23.8 -0.65 Q23.7 -0.05 23.95 0.4 L26.7 2.0 29.4 2.85 30.9 3.9 31.05 3.95 Q31.8 4.9 31.9 5.85 L32.4 7.1 32.1 9.55 Q31.3 10.35 30.9 11.35 L30.45 11.5 30.3 11.95 Q26.75 14.4 22.8 15.85 L12.15 18.25 Q12.8 17.9 13.75 17.8 L14.5 17.65 18.45 16.45 Q19.1 15.6 20.85 15.6 L21.0 15.55 21.6 14.5 22.95 14.05 23.1 13.6 25.35 12.1 25.5 11.35 Q28.1 9.85 28.7 7.25 L25.75 7.15 25.3 7.2 25.1 7.65 24.6 7.75 24.35 8.0 24.1 8.15 Q23.6 9.25 22.55 10.1 L21.5 11.15 Q17.55 12.95 13.5 13.9 7.55 14.95 1.5 14.15 L1.25 14.15 0.85 13.9 0.55 13.85 3.35 13.65 3.75 13.0 6.0 13.15 7.0 12.25 Q8.6 12.85 10.25 11.75 12.4 12.05 13.6 10.9 L14.25 11.25 Q15.7 11.35 16.25 10.15 L17.5 9.9 17.1 9.25 Q19.25 9.7 20.25 8.25 20.1 7.75 21.1 7.25 21.1 6.65 20.6 6.25 L21.0 6.0 Q21.4 6.1 21.3 5.65 L21.35 5.4 Q22.5 4.85 22.5 4.5 L22.15 4.0 22.1 3.75 22.45 1.5 Q22.5 0.75 21.75 0.65 21.35 0.55 21.95 0.3 L22.1 0.25 22.4 -0.95 M-25.7 1.05 Q-24.7 0.65 -23.55 0.35 L-21.9 -0.05 -21.85 -0.05 -21.8 -0.6 -21.75 0.55 -21.75 1.35 -21.8 1.65 -21.75 1.75 -21.75 2.15 -21.75 2.2 -21.8 3.05 -21.8 3.1 -21.85 3.6 -21.85 3.7 -22.25 5.05 -22.9 5.55 -24.6 6.05 -24.7 6.05 -24.75 5.95 -24.7 5.85 -24.55 5.65 Q-24.55 5.25 -24.95 4.9 L-25.15 4.6 -25.45 4.65 -25.65 4.95 -26.5 5.15 -27.05 5.4 -27.2 5.45 -30.35 6.95 -30.65 8.7 -31.1 9.0 -31.3 9.2 Q-32.4 10.45 -32.05 12.0 L-32.0 12.05 -31.85 12.1 -31.9 11.8 -31.4 12.3 -31.3 12.35 -31.1 12.6 -31.1 12.65 -31.75 12.3 -31.75 12.25 -31.85 12.2 -32.0 12.05 -32.15 12.0 -32.6 11.45 Q-32.8 10.75 -32.6 9.85 -32.25 8.1 -31.0 6.75 L-30.8 6.65 -30.55 6.45 -30.25 6.0 -29.4 5.6 -28.65 4.95 -28.55 4.85 Q-28.2 5.0 -28.2 4.6 -27.6 4.25 -26.75 4.0 L-26.1 3.85 -25.85 3.5 -25.7 3.2 -25.65 3.0 -24.9 3.0 -24.75 2.95 -24.65 2.5 -23.0 2.3 -22.85 2.05 -22.95 1.85 -23.3 1.5 -23.5 1.3 -25.65 1.2 -25.7 1.05 M8.7 17.6 L10.55 18.3 0.6 18.95 Q-4.4 19.25 -9.45 18.7 L-9.85 18.4 -10.55 18.4 -10.95 18.15 -12.0 18.3 -12.9 18.0 -13.85 18.15 -15.05 17.6 -22.6 17.5 -26.0 16.05 Q-27.15 15.55 -28.3 15.5 L-28.95 14.85 -29.1 14.05 Q-28.35 14.8 -27.25 14.85 L-26.15 14.85 -24.75 15.5 -24.6 15.5 Q-20.55 17.35 -16.25 16.95 L-14.9 17.5 -8.8 17.2 Q-6.9 18.25 -4.15 17.75 L-3.5 17.9 -3.2 17.8 Q-2.9 18.0 -3.0 18.3 -1.55 18.95 -0.35 18.7 -0.3 18.3 -0.05 18.3 L0.45 18.15 2.45 18.4 Q4.3 16.5 7.55 17.45 L8.7 17.6" fill="#999999" fill-rule="evenodd" stroke="none"/>
      <path d="M17.7 -14.6 Q18.05 -14.05 18.0 -13.25 L18.0 -13.05 Q17.45 -13.1 17.55 -12.85 L17.65 -11.75 16.9 -11.15 16.15 -9.7 15.95 -9.45 14.6 -9.3 14.4 -9.0 13.85 -8.9 13.7 -8.15 12.95 -7.75 11.25 -7.6 Q13.15 -7.15 14.8 -7.95 L16.15 -7.6 17.25 -6.85 18.05 -6.6 18.2 -6.1 18.75 -5.15 Q19.8 -4.9 20.05 -3.85 L20.3 -3.45 20.2 -3.15 20.3 -3.25 Q20.8 -4.7 20.85 -6.45 20.9 -7.6 20.3 -7.95 20.65 -9.75 20.05 -11.15 L19.55 -11.55 19.15 -13.25 18.75 -13.8 17.7 -14.6 17.25 -15.1 17.25 -14.95 17.7 -14.6 M4.45 -20.55 L9.95 -19.5 12.2 -18.9 Q22.3 -16.85 22.2 -5.4 22.15 -3.0 22.25 -0.95 L22.4 -0.95 22.1 0.25 21.95 0.3 Q21.35 0.55 21.75 0.65 22.5 0.75 22.45 1.5 L22.1 3.75 22.15 4.0 22.5 4.5 Q22.5 4.85 21.35 5.4 L21.3 5.65 Q21.4 6.1 21.0 6.0 L20.6 6.25 Q21.1 6.65 21.1 7.25 20.1 7.75 20.25 8.25 19.25 9.7 17.1 9.25 L17.5 9.9 16.25 10.15 Q15.7 11.35 14.25 11.25 L13.6 10.9 Q12.4 12.05 10.25 11.75 8.6 12.85 7.0 12.25 L6.0 13.15 3.75 13.0 3.35 13.65 0.55 13.85 0.85 13.9 1.25 14.15 1.5 14.15 Q7.55 14.95 13.5 13.9 17.55 12.95 21.5 11.15 L22.55 10.1 Q23.6 9.25 24.1 8.15 L24.35 8.0 24.6 7.75 25.1 7.65 25.3 7.2 25.75 7.15 28.7 7.25 Q28.1 9.85 25.5 11.35 L25.35 12.1 23.1 13.6 22.95 14.05 21.6 14.5 21.0 15.55 20.85 15.6 Q19.1 15.6 18.45 16.45 L14.5 17.65 13.75 17.8 Q12.8 17.9 12.15 18.25 L22.8 15.85 Q26.75 14.4 30.3 11.95 L30.45 11.5 30.9 11.35 Q31.3 10.35 32.1 9.55 L32.4 7.1 31.9 5.85 Q31.8 4.9 31.05 3.95 L30.9 3.9 29.4 2.85 26.7 2.0 23.95 0.4 Q23.7 -0.05 23.8 -0.65 L23.9 -0.7 Q30.5 0.4 33.4 2.75 35.45 4.4 35.7 6.7 36.3 11.65 31.25 15.45 23.4 21.45 3.9 21.45 -17.8 21.45 -28.05 18.2 -35.3 15.85 -35.75 12.35 -36.3 7.5 -31.45 3.95 -29.55 2.55 -26.95 1.5 L-25.7 1.05 -25.65 1.2 -23.5 1.3 -23.3 1.5 -22.95 1.85 -22.85 2.05 -23.0 2.3 -24.65 2.5 -24.75 2.95 -24.9 3.0 -25.65 3.0 -25.7 3.2 -25.85 3.5 -26.1 3.85 -26.75 4.0 Q-27.6 4.25 -28.2 4.6 -28.2 5.0 -28.55 4.85 L-28.65 4.95 -29.4 5.6 -30.25 6.0 -30.55 6.45 -30.8 6.65 -31.0 6.75 Q-32.25 8.1 -32.6 9.85 -32.8 10.75 -32.6 11.45 L-32.15 12.0 -32.0 12.05 -31.85 12.2 -31.75 12.25 -31.75 12.3 -31.1 12.65 -31.1 12.6 -31.3 12.35 -31.4 12.3 -31.9 11.8 -31.85 12.1 -32.0 12.05 -32.05 12.0 Q-32.4 10.45 -31.3 9.2 L-31.1 9.0 -30.65 8.7 -30.35 6.95 -27.2 5.45 -27.05 5.4 -26.5 5.15 -25.65 4.95 -25.45 4.65 -25.15 4.6 -24.95 4.9 Q-24.55 5.25 -24.55 5.65 L-24.7 5.85 -24.75 5.95 -24.7 6.05 -24.6 6.05 -22.9 5.55 -22.25 5.05 -21.85 3.7 -21.85 3.75 -21.8 4.05 -21.05 4.8 -20.9 6.1 Q-20.5 7.55 -19.65 8.3 L-18.75 8.8 Q-20.4 8.55 -22.35 7.65 L-22.95 7.5 -24.1 7.95 -24.25 8.4 -24.8 8.55 -25.1 9.25 -25.55 9.25 -24.9 9.75 -25.2 10.25 Q-25.75 11.15 -25.15 12.0 L-22.4 12.5 -22.35 12.7 -22.65 13.25 Q-23.3 13.75 -22.4 14.0 L-19.4 14.25 -18.65 15.0 -10.15 14.75 -9.65 15.25 -3.65 14.0 -2.9 13.25 -3.4 12.0 -3.35 11.85 -2.75 11.35 -3.3 11.2 Q-4.4 11.2 -4.85 10.75 L-5.85 10.55 -7.9 10.4 -10.7 10.1 -8.55 9.85 -7.95 9.5 -6.75 9.05 -6.5 8.5 Q-6.1 8.35 -6.1 8.2 L-5.15 8.1 -5.15 8.05 -4.8 7.6 Q-4.45 7.45 -4.55 7.0 L-4.5 6.95 -4.2 6.7 -4.1 6.4 -4.15 5.5 -4.15 4.5 -4.0 4.4 -3.9 4.3 -3.9 4.25 -3.85 3.8 -4.15 3.5 -4.3 3.3 -3.95 2.95 Q-3.3 2.55 -3.4 1.75 L-3.65 1.5 Q-4.65 1.15 -4.9 0.5 L-3.9 -0.25 Q-3.7 -0.55 -3.95 -1.25 L-4.2 -1.65 Q-5.3 -2.1 -4.15 -2.5 L-4.2 -3.0 -4.45 -3.45 Q-4.95 -4.25 -4.4 -5.0 L-4.5 -5.5 -4.75 -5.8 Q-6.1 -6.45 -4.9 -6.75 L-5.1 -6.8 -5.65 -7.25 -5.85 -7.5 Q-6.05 -7.9 -5.65 -7.5 L-5.65 -7.75 Q-5.0 -7.6 -3.9 -7.75 L-3.4 -8.25 -1.4 -8.25 -1.3 -8.5 -1.4 -8.75 Q-0.35 -8.95 0.85 -9.5 L1.25 -9.9 1.85 -9.5 Q2.4 -9.45 3.0 -9.85 L4.35 -11.25 4.6 -11.25 Q5.95 -11.55 6.1 -12.5 L5.6 -13.5 5.8 -13.6 6.1 -13.75 Q6.75 -13.85 6.85 -14.5 L5.35 -15.75 6.1 -15.7 Q6.8 -15.55 6.85 -16.25 L5.35 -17.0 6.6 -17.25 Q6.85 -17.6 6.5 -17.9 5.45 -18.7 4.35 -19.0 L5.6 -19.0 4.45 -20.55 M12.15 18.25 L10.45 18.55 13.1 18.15 12.15 18.25 M8.7 17.6 L7.55 17.45 Q4.3 16.5 2.45 18.4 L0.45 18.15 -0.05 18.3 Q-0.3 18.3 -0.35 18.7 -1.55 18.95 -3.0 18.3 -2.9 18.0 -3.2 17.8 L-3.5 17.9 -4.15 17.75 Q-6.9 18.25 -8.8 17.2 L-14.9 17.5 -16.25 16.95 Q-20.55 17.35 -24.6 15.5 L-24.75 15.5 -26.15 14.85 -27.25 14.85 Q-28.35 14.8 -29.1 14.05 L-28.95 14.85 -28.3 15.5 Q-27.15 15.55 -26.0 16.05 L-22.6 17.5 -15.05 17.6 -13.85 18.15 -12.9 18.0 -12.0 18.3 -10.95 18.15 -10.55 18.4 -9.85 18.4 -9.45 18.7 Q-4.4 19.25 0.6 18.95 L10.55 18.3 8.7 17.6" fill="#cccccc" fill-rule="evenodd" stroke="none"/>
      <path d="M33.05 10.55 L33.55 8.45 33.75 6.7 32.95 5.8 Q32.25 5.1 32.7 4.4 L29.55 2.3 Q28.95 1.9 26.25 1.5 23.85 1.1 23.85 0.8 23.85 0.4 25.6 0.3 L29.45 0.8 Q35.0 2.3 35.0 6.9 L34.8 9.65 Q34.8 12.25 32.6 13.75 32.0 14.2 24.75 17.7 22.85 18.65 20.7 19.0 L10.4 20.25 -7.3 21.35 -10.7 20.8 -14.45 20.25 -18.6 19.5 -21.65 19.2 -24.5 18.75 -25.8 18.3 -27.45 17.55 Q-27.85 17.25 -28.55 17.05 L-29.75 16.55 Q-34.05 14.05 -34.35 13.75 -34.7 13.35 -34.7 11.25 L-35.0 9.75 -34.75 9.15 -34.55 8.75 Q-34.55 8.6 -34.7 8.5 L-34.85 8.2 -34.7 7.55 Q-34.45 7.25 -33.6 6.9 -34.1 5.55 -27.05 1.65 L-26.15 1.8 -26.1 2.1 -30.6 4.8 -31.95 6.15 -33.35 7.8 Q-33.0 8.35 -33.0 8.9 L-33.45 9.7 -33.9 10.55 -33.1 11.75 -31.35 13.5 Q-31.15 13.65 -30.85 14.35 L-30.3 15.05 Q-29.4 15.8 -27.75 16.35 L-25.3 17.4 Q-22.8 18.25 -18.45 18.3 -17.45 18.3 -17.3 18.55 L-16.05 18.75 -13.5 18.85 -11.4 19.05 -8.25 20.25 -5.1 19.8 -1.35 19.35 6.15 19.05 8.3 19.35 Q15.8 19.35 22.95 16.9 26.55 15.7 29.15 14.25 29.35 13.75 30.4 13.2 L31.95 12.45 32.85 11.55 33.05 10.55" fill="#ffffff" fill-rule="evenodd" stroke="none"/>
      <path d="M-23.25 0.35 Q-23.25 0.8 -24.55 0.95 L-25.85 1.05 -30.4 3.25 Q-33.35 5.0 -33.35 5.35 -33.35 5.55 -33.7 6.0 L-34.7 7.5 -35.55 9.65 -35.4 10.1 -35.25 10.5 -35.5 11.2 -35.75 11.85 Q-35.75 12.85 -34.95 13.65 L-32.85 15.3 Q-33.15 15.6 -33.85 15.6 -35.6 15.6 -36.35 11.95 L-36.1 11.15 -35.9 10.55 -36.25 9.6 -36.05 8.9 -35.9 8.05 Q-35.9 7.25 -34.7 5.9 -33.55 4.6 -32.8 4.35 L-32.85 4.15 Q-32.85 3.6 -28.8 1.85 -24.95 0.15 -23.4 -0.15 -23.25 0.15 -23.25 0.35" fill="#000000" fill-rule="evenodd" stroke="none"/>
      <path d="M25.8 -0.55 L33.55 2.0 Q33.95 2.15 34.0 2.55 L34.1 3.05 35.3 3.95 35.95 5.1 36.2 6.05 35.95 7.05 36.15 7.45 36.35 7.8 35.9 8.95 Q35.4 10.15 35.4 10.85 35.4 11.65 34.4 12.8 L33.35 13.8 33.6 14.4 32.55 15.55 Q31.45 16.35 30.75 16.35 30.3 16.35 30.3 16.0 30.3 15.5 31.2 15.15 L32.7 14.45 33.0 14.0 32.85 13.45 33.65 12.75 33.75 12.55 34.2 12.05 34.8 11.35 34.95 10.15 35.0 8.9 Q35.0 8.2 35.65 7.8 L35.25 7.1 35.5 6.05 35.1 5.85 Q34.75 5.65 35.15 4.7 34.5 4.6 34.55 4.3 34.55 3.95 33.95 3.65 32.9 3.25 33.05 2.8 L29.4 0.95 26.8 0.2 Q25.4 -0.1 24.95 -0.6 L22.95 -0.55 22.1 -0.9 Q22.5 -1.95 24.1 -1.85 25.7 -1.7 25.8 -0.55" fill="#000000" fill-rule="evenodd" stroke="none"/>
      <path d="M-20.25 19.75 L-12.8 20.55 -10.45 20.45 -9.65 20.3 Q-9.25 20.3 -8.7 20.65 L-8.05 21.35 -8.5 21.5 -9.65 21.25 -10.45 21.45 Q-15.6 21.45 -23.25 19.7 -31.15 17.9 -32.95 16.15 -32.55 15.95 -29.7 17.05 L-25.9 18.45 -22.9 18.8 Q-21.4 18.95 -21.25 19.35 -21.05 19.7 -20.25 19.75" fill="#000000" fill-rule="evenodd" stroke="none"/>
      <path d="M5.2 20.8 L6.8 20.8 8.2 20.65 9.2 20.75 Q9.7 20.85 10.05 21.2 L9.5 21.65 7.35 21.45 5.85 21.65 2.5 21.3 0.55 21.4 -1.15 21.7 -2.45 21.5 -2.55 21.4 Q-2.65 21.25 -2.8 21.25 L-6.65 21.5 -7.0 21.15 Q-7.0 20.8 -6.4 20.7 L-3.0 20.55 Q-2.35 20.55 -2.1 20.8 L-1.2 21.0 1.6 20.75 5.2 20.8" fill="#000000" fill-rule="evenodd" stroke="none"/>
      <path d="M15.1 21.1 L12.35 21.35 10.8 21.2 10.75 21.0 Q10.75 20.75 14.05 20.45 L19.35 19.7 21.35 19.4 23.0 19.0 24.4 18.55 26.0 18.25 26.05 18.6 Q26.05 19.85 15.1 21.25 L15.1 21.1" fill="#000000" fill-rule="evenodd" stroke="none"/>
      <path d="M-18.1 -15.15 Q-21.3 -12.35 -21.3 -9.9 L-21.75 -7.2 -21.4 -6.15 Q-21.4 -5.85 -21.7 -5.5 L-22.0 -4.9 -21.75 -1.1 -21.85 2.55 Q-22.15 6.0 -23.1 6.0 L-23.5 5.85 Q-22.8 4.6 -22.6 2.45 L-22.5 -1.2 -22.75 -5.15 -22.35 -6.0 -22.65 -7.15 Q-22.65 -8.7 -21.95 -10.3 L-20.25 -13.85 Q-18.95 -16.65 -12.4 -19.45 L-18.1 -15.15" fill="#000000" fill-rule="evenodd" stroke="none"/>
      <path d="M-8.95 -20.35 Q-8.95 -19.55 -10.35 -19.55 L-10.65 -19.6 -10.7 -19.85 -10.15 -20.35 -9.15 -20.65 -8.95 -20.35" fill="#000000" fill-rule="evenodd" stroke="none"/>
      <path d="M11.05 -19.15 L7.6 -19.65 6.1 -19.9 3.55 -20.15 1.15 -20.75 0.3 -20.55 -0.45 -20.4 -1.75 -20.55 -3.2 -20.7 -4.4 -20.4 -6.55 -20.15 -7.65 -20.35 Q-7.45 -20.45 -7.6 -20.6 L-5.8 -20.7 -4.5 -20.9 -3.9 -20.7 Q-3.5 -20.7 -2.45 -21.15 L-1.5 -21.65 -0.8 -21.4 0.95 -21.75 2.1 -21.55 3.2 -21.05 5.3 -20.8 7.05 -20.65 Q7.8 -20.25 9.8 -20.2 11.25 -20.15 11.35 -19.3 11.3 -19.15 11.05 -19.15" fill="#000000" fill-rule="evenodd" stroke="none"/>
      <path d="M22.7 -9.8 Q22.7 -9.05 22.35 -9.05 21.9 -9.05 21.5 -10.2 L20.8 -11.8 Q20.25 -12.25 20.0 -13.15 19.7 -14.15 19.25 -14.6 L18.0 -15.8 16.8 -17.2 15.7 -17.6 Q14.7 -17.8 14.5 -18.1 13.9 -18.8 12.2 -18.9 L12.05 -19.15 14.7 -19.1 Q16.65 -18.15 16.85 -18.1 L18.15 -16.8 19.45 -15.4 21.4 -12.8 Q22.7 -10.7 22.7 -9.8" fill="#000000" fill-rule="evenodd" stroke="none"/>
      <path d="M22.9 -7.15 L22.65 -5.2 22.4 -3.05 22.6 -0.45 22.35 0.8 22.8 2.85 23.2 4.75 23.1 5.05 22.75 5.1 Q22.15 5.1 21.85 3.0 L21.65 0.85 21.85 -0.4 21.7 -1.45 21.85 -6.5 22.1 -7.4 21.95 -7.8 Q21.8 -8.15 21.8 -8.65 22.3 -8.95 22.65 -8.2 L22.9 -7.15" fill="#000000" fill-rule="evenodd" stroke="none"/>
      <path d="M-22.95 3.2 L-24.65 3.8 -26.55 4.5 Q-27.0 4.9 -27.8 5.3 L-29.25 5.9 -29.3 5.6 Q-29.3 5.0 -26.65 4.0 -24.45 3.2 -23.15 2.95 L-22.95 3.2" fill="#000000" fill-rule="evenodd" stroke="none"/>
      <path d="M32.15 8.6 Q32.15 10.05 31.25 11.0 30.35 11.95 30.05 12.8 29.75 13.65 27.3 14.6 L24.6 15.6 24.0 15.55 26.85 14.25 29.65 12.5 Q30.65 11.55 31.25 10.05 31.8 8.55 32.0 8.35 32.15 8.1 32.15 8.6" fill="#000000" fill-rule="evenodd" stroke="none"/>
      <path d="M7.75 18.1 L7.95 17.6 9.7 17.9 12.35 17.0 13.1 17.65 19.75 15.9 21.65 16.05 Q20.2 17.2 17.05 17.3 L13.2 17.95 10.0 18.4 7.9 18.1 7.75 18.1" fill="#000000" fill-rule="evenodd" stroke="none"/>
      <path d="M32.6 6.35 L32.95 6.95 32.75 7.7 32.1 8.45 31.85 8.3 31.8 7.8 32.0 5.8 32.15 5.8 32.6 6.35" fill="#000000" fill-rule="evenodd" stroke="none"/>
    </g>
    <g id="shape1">
      <path d="M0.7 -2.95 L0.5 -2.85 Q0.1 -2.85 0.1 -4.3 0.1 -6.0 1.6 -7.15 3.1 -8.3 6.55 -7.5 10.0 -6.75 10.25 -3.5 10.45 -0.3 8.5 2.0 6.55 4.25 2.25 7.35 3.85 4.65 6.9 2.25 8.8 0.7 8.8 -1.8 8.8 -3.4 7.1 -5.05 5.6 -6.45 4.8 -6.45 1.5 -6.45 0.8 -4.8 L0.7 -2.95" fill="#000000" fill-rule="evenodd" stroke="none"/>
      <path d="M-9.05 -3.75 Q-7.8 -5.85 -5.05 -5.6 L-0.9 -4.85 Q0.15 -4.5 0.15 -3.95 L-0.1 -3.55 -0.7 -3.95 Q-1.25 -4.35 -2.95 -4.35 -6.9 -4.35 -8.3 -2.2 -9.0 -1.1 -8.95 0.15 -8.95 2.7 -3.5 3.95 1.95 5.2 1.95 6.7 L1.9 6.9 1.6 7.05 0.3 6.3 Q-1.15 5.5 -1.8 5.25 L-4.25 4.85 -7.8 4.0 Q-9.25 3.4 -9.65 2.2 L-10.2 -0.35 Q-10.3 -1.7 -9.05 -3.75" fill="#000000" fill-rule="evenodd" stroke="none"/>
      <path d="M-3.4 -4.9 Q-1.65 -4.9 -0.5 -4.2 L0.5 -2.95 Q0.15 -7.1 4.45 -6.85 L4.6 -6.85 4.7 -6.85 Q9.35 -6.45 9.35 -2.35 9.35 -0.25 6.2 3.05 L2.75 6.65 1.7 6.5 0.0 5.4 Q-1.45 4.55 -2.05 4.45 L-7.2 3.3 -8.4 2.15 -8.6 1.9 Q-9.2 0.95 -9.2 -0.05 L-9.2 -0.2 Q-9.15 -1.3 -8.8 -1.8 L-8.0 -3.1 -6.4 -4.25 -5.3 -4.65 Q-5.05 -4.7 -4.75 -4.85 L-3.4 -4.9" fill="#cc0000" fill-rule="evenodd" stroke="none"/>
      <path d="M-8.7 -1.5 Q-8.8 0.15 -7.65 1.45 L-5.9 3.05 Q-4.75 3.9 -1.95 3.8 -0.35 4.0 0.65 4.85 L1.85 5.85 2.3 6.2 Q3.65 4.6 5.25 3.15 7.4 1.3 8.65 -1.2 9.25 -2.35 9.0 -3.9 9.5 -1.9 8.95 -0.4 8.35 1.1 7.2 2.15 L4.75 4.4 2.3 6.75 -1.9 4.55 -4.7 4.15 Q-6.45 3.95 -7.65 2.85 L-8.4 1.9 -8.7 1.25 -8.8 -0.15 -8.7 -1.5" fill="#ffcccc" fill-rule="evenodd" stroke="none"/>
    </g>
  </defs>
</svg>
