<?xml version="1.0" encoding="UTF-8" standalone="no"?>
<svg xmlns:ffdec="https://www.free-decompiler.com/flash" xmlns:xlink="http://www.w3.org/1999/xlink" ffdec:objectType="frame" height="37.7px" width="47.8px" xmlns="http://www.w3.org/2000/svg">
  <g transform="matrix(1.0, 0.0, 0.0, 1.0, 27.9, 41.4)">
    <use ffdec:characterId="9" height="37.7" transform="matrix(1.0, 0.0, 0.0, 1.0, -4.0, -22.55)" width="47.8" xlink:href="#sprite0"/>
  </g>
  <defs>
    <g id="sprite0">
      <use ffdec:characterId="2" height="18.8" transform="matrix(1.0, 0.0, 0.0, 1.0, 1.8, 9.45)" width="33.2" xlink:href="#sprite1"/>
      <use ffdec:characterId="4" height="25.9" transform="matrix(1.0, 0.0, 0.0, 1.0, 0.0, -5.9)" width="47.8" xlink:href="#sprite2"/>
      <use ffdec:characterId="6" height="4.8" transform="matrix(1.0, 0.0, 0.0, 1.0, 3.5, 8.1)" width="9.45" xlink:href="#sprite3"/>
    </g>
    <g id="sprite1">
      <use ffdec:characterId="1" height="18.8" transform="matrix(1.0, 0.0, 0.0, 1.0, 0.0, 0.0)" width="33.2" xlink:href="#shape0"/>
    </g>
    <g id="shape0">
      <path d="M2.95 -0.05 L3.05 -0.25 4.6 -0.55 Q7.35 -1.4 9.95 -2.6 L10.0 -2.5 10.7 -2.8 11.0 -2.95 11.6 -3.15 11.85 -3.3 12.35 -3.75 12.45 -3.85 12.75 -4.0 12.75 -3.95 13.05 -3.95 13.1 -4.15 13.2 -4.15 Q13.55 -4.15 13.9 -4.9 L13.75 -3.7 13.85 0.0 12.9 1.7 Q11.25 3.9 8.8 5.0 L8.75 5.0 Q9.6 2.25 8.6 -0.5 L7.9 -0.65 5.5 -0.35 2.95 -0.05 M14.75 -5.3 L14.95 -4.85 14.9 -4.15 Q15.3 -3.05 14.85 -2.0 L14.85 -2.15 14.8 -3.25 14.75 -3.95 14.75 -5.3 M-13.35 0.55 L-13.55 0.1 Q-13.55 -0.85 -12.85 -0.8 L-12.8 -0.6 -12.4 -0.65 -12.3 -0.6 -11.7 -0.3 -11.7 -0.25 -11.7 -0.05 -10.65 0.15 -10.45 -0.05 -10.35 0.05 -10.45 0.1 -8.75 0.35 -10.5 0.5 -10.85 0.5 -11.2 1.0 -11.25 1.95 -9.9 4.5 -10.7 3.55 -10.85 3.55 -11.2 3.05 -11.3 2.9 -11.75 2.2 -12.6 0.9 -13.0 -0.15 -13.1 -0.6 -13.45 0.2 -13.35 0.55 M-8.2 0.45 L-7.8 0.5 -8.15 0.5 -8.2 0.45" fill="#171717" fill-rule="evenodd" stroke="none"/>
      <path d="M9.95 -2.6 Q7.35 -1.4 4.6 -0.55 L3.05 -0.25 -4.95 0.5 -0.15 0.1 0.1 -0.15 5.05 -0.85 6.25 -1.6 6.1 -2.4 0.2 -1.3 -0.2 -1.0 -2.75 -1.0 -9.2 -1.7 -9.05 0.2 -10.45 -0.05 -11.65 -0.3 -12.5 -2.3 -10.2 -2.0 -7.05 -1.7 Q-3.55 -1.65 -0.15 -1.85 L4.85 -2.5 9.95 -3.8 10.75 -4.2 10.25 -2.8 9.95 -2.6" fill="#68696c" fill-rule="evenodd" stroke="none"/>
      <path d="M13.9 -4.9 Q13.55 -4.15 13.2 -4.15 L13.1 -4.15 13.05 -3.95 12.75 -3.95 12.75 -4.0 12.7 -4.25 12.7 -4.4 12.75 -4.5 13.3 -6.9 13.35 -7.1 13.4 -7.1 13.7 -7.1 13.7 -7.0 14.15 -7.25 14.5 -6.95 14.0 -5.2 13.95 -5.65 13.9 -4.9 M-9.05 0.2 L-9.2 -1.7 -2.75 -1.0 -0.2 -1.0 0.2 -1.3 6.1 -2.4 6.25 -1.6 5.05 -0.85 0.1 -0.15 -0.15 0.1 -4.95 0.5 -5.0 0.5 -5.1 0.5 -6.25 0.4 -6.5 0.45 -9.05 0.2 M-14.2 -2.2 L-14.7 -2.6 -15.25 -3.0 -15.35 -3.1 -15.35 -3.35 -15.35 -3.45 -15.25 -3.45 -15.0 -3.25 -13.6 -2.25 -12.45 -1.0 -12.4 -0.95 -14.2 -2.2 M-15.05 -3.65 L-13.8 -3.75 -13.2 -3.5 -12.75 -3.45 -12.55 -3.3 -11.95 -3.25 -11.5 -3.15 -11.25 -2.85 -12.15 -2.9 -13.6 -3.0 -13.75 -3.05 Q-13.9 -3.0 -13.95 -3.15 L-14.25 -3.0 -14.35 -3.0 -14.35 -2.95 -14.45 -3.05 -14.5 -3.15 -14.7 -3.4 -14.8 -3.45 -14.95 -3.5 -15.05 -3.65" fill="#a4a4a4" fill-rule="evenodd" stroke="none"/>
      <path d="M2.95 -0.05 L5.5 -0.35 7.9 -0.65 8.6 -0.5 Q9.6 2.25 8.75 5.0 8.45 5.1 8.4 5.15 L8.4 5.2 8.3 5.15 8.2 5.25 8.25 5.15 7.35 5.55 4.8 6.25 5.8 4.55 Q6.15 3.5 5.9 2.6 5.65 1.65 5.25 1.45 L4.6 1.15 2.05 1.0 -1.75 0.75 -1.35 0.7 1.55 0.35 2.65 0.05 2.95 -0.05 M-4.95 0.5 L-4.6 0.55 -4.6 0.6 -7.55 0.9 Q-9.25 1.35 -9.2 1.65 L-9.2 2.25 Q-8.9 4.3 -7.75 5.7 L-8.15 5.5 -9.05 5.15 -9.8 4.6 -9.9 4.5 -11.25 1.95 -11.2 1.0 -10.85 0.5 -10.5 0.5 -8.75 0.35 -8.45 0.35 Q-8.3 0.35 -8.2 0.45 L-8.15 0.5 -7.8 0.5 -6.8 0.45 -6.5 0.45 -6.25 0.4 -5.1 0.5 -5.0 0.5 -4.95 0.5 M-3.15 0.6 L-2.8 0.6 -2.2 0.7 -2.75 0.7 -3.15 0.6 M-10.05 4.4 L-10.85 3.55 -10.7 3.55 -9.9 4.5 -10.05 4.4" fill="#262626" fill-rule="evenodd" stroke="none"/>
      <path d="M12.75 -4.0 L12.45 -3.85 12.35 -3.75 11.6 -3.2 11.6 -3.15 11.0 -2.95 10.6 -2.95 10.6 -2.8 10.55 -2.8 10.3 -2.7 10.25 -2.8 10.75 -4.2 9.95 -3.8 4.85 -2.5 -0.15 -1.85 Q-3.55 -1.65 -7.05 -1.7 L-10.2 -2.0 -12.5 -2.3 -11.65 -0.3 -11.7 -0.3 -12.3 -0.6 -12.35 -0.7 -12.75 -1.1 -13.35 -1.0 -14.2 -2.2 -12.4 -0.95 -12.45 -1.0 -13.6 -2.25 -15.0 -3.25 -14.7 -3.4 -14.5 -3.15 -14.45 -3.05 -14.35 -2.95 -14.35 -3.0 -14.25 -3.0 -13.95 -3.15 Q-13.9 -3.0 -13.75 -3.05 L-13.6 -3.0 -12.15 -2.9 -11.85 -2.8 -10.8 -2.65 -10.45 -2.7 -10.25 -2.75 -10.2 -2.7 -9.2 -2.85 -8.8 -2.75 -7.95 -2.75 -6.35 -2.75 Q-5.8 -2.4 -4.75 -2.75 L-4.7 -2.75 -4.55 -2.7 -4.3 -2.7 -3.4 -2.65 -3.3 -2.65 -2.95 -2.65 3.0 -3.45 Q6.85 -4.15 9.85 -5.25 L11.2 -6.05 11.6 -6.25 11.5 -6.1 11.55 -6.05 11.7 -6.3 11.75 -6.35 12.45 -6.5 12.25 -6.2 12.35 -6.15 12.55 -6.55 12.65 -6.55 12.7 -6.65 12.85 -6.7 12.95 -6.7 13.05 -6.75 13.3 -6.9 12.75 -4.5 12.7 -4.4 12.7 -4.25 12.75 -4.0" fill="#3b3d42" fill-rule="evenodd" stroke="none"/>
      <path d="M16.55 -8.75 L16.25 -8.35 16.25 -8.5 16.3 -8.65 16.55 -8.75" fill="#3283ba" fill-rule="evenodd" stroke="none"/>
      <path d="M11.2 -6.05 L11.3 -6.15 11.8 -6.4 12.45 -6.6 12.45 -6.5 11.75 -6.35 11.7 -6.3 11.6 -6.25 11.2 -6.05 M12.6 -6.65 L12.7 -6.65 12.65 -6.55 12.55 -6.55 12.6 -6.65 M-15.35 -3.35 L-15.4 -3.35 -15.45 -3.4 -15.4 -3.5 -15.35 -3.45 -15.35 -3.35 M-10.5 -2.85 L-9.95 -2.9 -9.2 -2.85 -10.2 -2.7 -10.25 -2.75 -10.45 -2.75 -10.5 -2.85" fill="#24508e" fill-rule="evenodd" stroke="none"/>
      <path d="M12.45 -6.6 L12.6 -6.65 12.55 -6.55 12.35 -6.15 12.25 -6.2 12.45 -6.5 12.45 -6.6 M12.85 -6.7 L12.95 -6.75 13.45 -7.2 13.4 -7.1 13.35 -7.1 13.3 -6.9 13.05 -6.75 12.95 -6.7 12.85 -6.7 M-15.4 -3.5 L-15.3 -3.65 -15.2 -3.65 -15.05 -3.65 -14.95 -3.5 -14.8 -3.45 -15.2 -3.45 -15.25 -3.45 -15.35 -3.45 -15.4 -3.5" fill="#293c74" fill-rule="evenodd" stroke="none"/>
      <path d="M13.45 -7.2 L13.8 -7.4 14.2 -7.5 14.45 -7.65 14.55 -7.05 14.35 -5.9 14.15 -5.5 14.15 -5.35 14.0 -5.15 14.0 -5.2 14.5 -6.95 14.15 -7.25 13.7 -7.0 13.7 -7.1 13.4 -7.1 13.45 -7.2 M-14.7 -2.6 L-14.75 -2.6 Q-15.2 -2.5 -15.3 -2.85 L-15.25 -3.0 -14.7 -2.6" fill="#10182c" fill-rule="evenodd" stroke="none"/>
      <path d="M14.35 -5.9 L14.45 -5.95 14.75 -5.5 14.75 -5.3 14.75 -3.95 14.8 -3.25 Q14.8 -0.8 14.35 -0.8 L14.1 -0.85 14.1 -0.9 14.2 -1.45 14.1 -1.65 14.15 -5.15 14.15 -5.35 14.15 -5.5 14.35 -5.9 M14.55 0.25 L14.7 0.0 14.85 0.1 14.4 1.25 14.3 1.45 14.1 1.8 14.15 0.8 14.15 0.75 14.4 0.5 14.45 0.45 14.55 0.25 M9.6 5.9 L9.2 6.1 8.05 6.7 8.2 6.75 8.5 7.0 Q8.55 7.45 8.25 7.5 L7.75 7.05 7.75 6.9 7.55 6.9 6.7 7.1 9.1 6.1 9.6 5.9 M5.55 7.4 L5.6 7.45 5.45 7.7 4.65 7.9 2.15 8.1 2.1 8.4 1.95 8.5 1.0 8.6 -2.55 8.7 Q-4.65 8.55 -4.7 8.2 L-4.7 8.1 -3.35 8.25 2.1 8.05 5.55 7.4 M-6.1 8.05 L-7.7 7.75 -7.9 7.7 -8.35 7.45 -8.7 6.85 Q-6.85 7.8 -4.7 8.1 L-6.1 8.05 M-11.2 4.25 L-11.95 3.25 -12.2 2.85 -12.6 2.4 -12.95 1.75 -13.35 0.85 -13.3 0.75 -13.35 0.65 -13.35 0.55 -13.45 0.2 -13.1 -0.6 -13.0 -0.15 -12.6 0.9 -11.75 2.2 -11.3 2.9 -11.2 3.05 -10.85 3.55 -10.05 4.4 -10.05 4.45 -9.9 4.5 -9.8 4.6 -9.05 5.15 -8.15 5.5 -7.75 5.7 -7.5 5.8 -5.95 6.25 -5.55 6.3 -5.15 6.4 -5.35 6.05 Q-5.45 5.6 -5.15 5.3 L-4.8 5.1 -5.2 4.9 Q-5.8 4.55 -5.85 4.05 L-5.45 3.35 Q-4.9 2.8 -4.05 2.65 -3.0 2.55 -2.05 3.15 -1.25 3.65 -1.15 4.1 -1.05 4.65 -1.75 4.9 L-1.35 5.5 Q-1.3 5.85 -1.55 6.15 L-1.6 6.3 -1.55 6.55 -1.5 6.8 -0.8 6.7 4.8 6.25 7.35 5.55 7.6 5.6 8.4 5.2 9.7 4.65 Q11.55 3.8 13.9 1.05 L14.0 1.9 14.05 1.9 13.15 3.1 Q11.65 4.6 9.35 5.65 6.95 6.65 3.5 7.2 L-1.85 7.5 -2.0 7.55 -2.1 7.55 -2.1 7.2 Q-2.15 6.75 -2.85 6.7 L-2.6 6.65 -2.25 6.4 -2.05 6.0 Q-2.15 5.35 -3.35 5.2 -4.6 5.15 -4.55 5.65 -4.4 6.45 -3.6 6.7 L-3.95 6.7 Q-4.9 6.85 -4.9 7.2 -7.35 6.8 -9.45 5.4 L-10.9 4.25 -12.45 2.25 -12.55 2.25 -11.2 4.25" fill="#919191" fill-rule="evenodd" stroke="none"/>
      <path d="M8.8 5.0 Q11.25 3.9 12.9 1.7 L13.85 0.0 13.75 -3.7 13.9 -4.9 13.95 -5.65 14.0 -5.2 14.0 -5.15 14.0 -5.1 14.15 -5.15 14.1 -1.65 14.2 -1.45 14.1 -0.9 14.1 -0.85 14.35 -0.8 Q14.8 -0.8 14.8 -3.25 L14.85 -2.15 14.85 -2.0 14.65 -1.15 Q14.75 -0.5 14.5 -0.3 L14.25 0.3 14.2 0.65 14.15 0.75 14.15 0.8 14.1 1.8 14.1 1.9 14.05 1.9 14.0 1.9 13.9 1.05 Q11.55 3.8 9.7 4.65 L8.4 5.2 7.6 5.6 7.35 5.55 8.25 5.15 8.2 5.25 8.3 5.15 8.4 5.2 8.8 5.0 M9.2 6.1 L10.0 5.95 8.2 6.75 8.05 6.7 9.2 6.1 M-4.7 8.1 L-5.2 8.3 -5.85 8.15 -6.1 8.05 -4.7 8.1 M-7.7 7.75 L-7.8 7.8 -7.9 7.7 -7.7 7.75 M-0.8 6.7 L-1.5 6.8 -1.55 6.55 -1.6 6.3 -1.55 6.15 Q-1.3 5.85 -1.35 5.5 L-1.75 4.9 Q-1.05 4.65 -1.15 4.1 -1.25 3.65 -2.05 3.15 -3.0 2.55 -4.05 2.65 -4.9 2.8 -5.45 3.35 L-5.85 4.05 Q-5.8 4.55 -5.2 4.9 L-4.8 5.1 -5.15 5.3 Q-5.45 5.6 -5.35 6.05 L-5.15 6.4 -5.55 6.3 -5.95 6.25 Q-6.9 5.4 -7.15 4.25 L-7.2 3.6 -6.3 3.25 -5.7 3.15 Q-7.1 3.05 -7.15 2.75 -7.3 1.55 -4.0 1.7 L0.2 2.3 -0.25 2.7 Q0.55 3.05 0.5 4.3 0.45 5.45 -0.8 6.7 M-9.9 4.5 L-10.05 4.45 -10.05 4.4 -9.9 4.5" fill="#666666" fill-rule="evenodd" stroke="none"/>
      <path d="M8.75 5.0 L8.8 5.0 8.4 5.2 8.4 5.15 Q8.45 5.1 8.75 5.0 M12.35 -3.75 L11.85 -3.3 11.6 -3.15 11.6 -3.2 12.35 -3.75 M10.7 -2.8 L10.0 -2.5 10.3 -2.7 10.55 -2.8 10.6 -2.8 10.7 -2.8 M-4.6 0.6 L-4.65 0.65 -4.55 0.7 -3.3 0.6 -3.15 0.6 -2.75 0.7 -2.2 0.7 -2.15 0.75 -2.15 0.8 -1.75 0.75 2.05 1.0 4.6 1.15 5.25 1.45 Q5.65 1.65 5.9 2.6 6.15 3.5 5.8 4.55 L4.8 6.25 -0.8 6.7 Q0.45 5.45 0.5 4.3 0.55 3.05 -0.25 2.7 L0.2 2.3 -4.0 1.7 Q-7.3 1.55 -7.15 2.75 -7.1 3.05 -5.7 3.15 L-6.3 3.25 -7.2 3.6 -7.15 4.25 Q-6.9 5.4 -5.95 6.25 L-7.5 5.8 -7.75 5.7 Q-8.9 4.3 -9.2 2.25 L-9.2 1.65 Q-9.25 1.35 -7.55 0.9 L-4.6 0.6 M14.5 -0.3 L14.55 0.25 14.45 0.45 14.4 0.5 14.15 0.75 14.2 0.65 14.25 0.3 14.5 -0.3 M14.3 1.45 L13.65 3.05 12.95 3.75 13.15 3.1 14.05 1.9 14.1 1.9 14.1 1.8 14.3 1.45" fill="#373737" fill-rule="evenodd" stroke="none"/>
      <path d="M12.95 3.75 L12.4 4.2 9.75 5.85 9.7 5.85 9.65 5.9 9.6 5.9 9.1 6.1 6.7 7.1 5.55 7.4 2.1 8.05 -3.35 8.25 -4.7 8.1 Q-6.85 7.8 -8.7 6.85 L-10.1 5.5 -10.75 4.85 -10.75 4.8 -11.2 4.25 -12.55 2.25 -12.45 2.25 -10.9 4.25 -9.45 5.4 Q-7.35 6.8 -4.9 7.2 -4.9 6.85 -3.95 6.7 L-3.6 6.7 Q-4.4 6.45 -4.55 5.65 -4.6 5.15 -3.35 5.2 -2.15 5.35 -2.05 6.0 L-2.25 6.4 -2.6 6.65 -2.85 6.7 Q-2.15 6.75 -2.1 7.2 L-2.1 7.55 -2.0 7.55 -1.85 7.5 3.5 7.2 Q6.95 6.65 9.35 5.65 11.65 4.6 13.15 3.1 L12.95 3.75" fill="#ffffff" fill-rule="evenodd" stroke="none"/>
      <path d="M-11.5 -3.15 L-11.3 -3.15 -11.05 -3.0 -10.6 -2.9 -10.5 -2.85 -10.45 -2.75 -10.45 -2.7 -10.8 -2.65 -11.25 -2.85 -11.5 -3.15 M-4.7 -2.75 L-4.3 -2.7 -4.55 -2.7 -4.7 -2.75" fill="#3794c9" fill-rule="evenodd" stroke="none"/>
      <path d="M-6.35 -2.75 L-5.7 -2.75 -4.75 -2.75 Q-5.8 -2.4 -6.35 -2.75" fill="#81c1dc" fill-rule="evenodd" stroke="none"/>
      <path d="M13.7 -4.85 L13.65 -4.8 13.7 -4.8 13.7 -4.85 M14.2 -5.3 L14.0 -4.75 13.95 -4.65 13.65 -4.25 Q1.6 3.05 -12.05 -0.05 L-12.15 -0.15 -12.2 -0.2 -12.4 -0.25 -13.1 -0.75 -13.25 0.2 -13.0 1.05 -12.3 2.35 -11.15 4.0 -10.0 5.45 -9.45 6.15 -6.1 7.5 -4.85 7.9 1.1 8.05 6.9 6.75 8.9 5.95 Q10.4 5.3 11.85 3.9 L13.45 2.0 13.85 1.15 14.25 -0.25 14.4 -0.9 14.65 -2.5 14.75 -4.1 14.2 -5.3 M16.45 -9.4 L16.6 -9.35 16.5 -9.15 14.75 -6.1 14.75 -6.0 15.05 -4.55 15.0 -1.75 14.75 0.85 14.45 2.45 13.7 3.75 Q12.05 5.75 9.95 6.75 L8.2 7.65 5.8 8.5 1.4 9.3 -3.95 9.05 -4.65 8.95 -5.9 8.55 -6.35 8.45 -9.3 7.2 -9.4 7.1 -13.55 1.1 -14.0 -1.35 -16.6 -3.45 -14.95 -3.15 -13.35 -1.6 -12.35 -0.85 -11.85 -0.45 -11.85 -0.35 Q1.35 2.6 12.95 -4.3 L13.1 -4.4 13.15 -4.45 13.3 -4.65 13.35 -4.95 13.4 -4.95 14.35 -7.45 16.45 -9.4" fill="#000000" fill-rule="evenodd" stroke="none"/>
    </g>
    <g id="sprite2">
      <use ffdec:characterId="3" height="25.9" transform="matrix(1.0, 0.0, 0.0, 1.0, 0.0, 0.0)" width="47.8" xlink:href="#shape1"/>
    </g>
    <g id="shape1">
      <path d="M1.25 -12.45 L2.1 -12.6 6.15 -12.7 7.45 -12.5 9.05 -12.75 Q11.2 -12.85 11.7 -12.0 L7.9 -11.95 3.7 -12.25 3.65 -12.3 2.6 -12.35 1.25 -12.45 M7.35 11.0 L7.7 11.0 6.45 11.3 7.3 11.0 7.35 11.0 M5.25 11.45 L5.85 11.45 2.9 11.9 5.25 11.45" fill="#293c74" fill-rule="evenodd" stroke="none"/>
      <path d="M7.55 -6.85 L7.05 -7.3 Q4.25 -9.4 0.1 -9.9 L7.85 -10.25 Q11.2 -10.0 13.4 -8.9 14.95 -8.1 16.25 -6.0 18.1 -3.05 16.4 -0.1 15.4 1.65 13.65 2.75 L13.05 3.05 Q10.7 4.7 7.85 4.75 9.55 4.2 10.3 2.5 11.6 -0.65 9.85 -3.7 L7.55 -6.85" fill="#000000" fill-rule="evenodd" stroke="none"/>
      <path d="M18.1 6.25 L16.65 7.15 15.35 7.95 15.3 8.05 15.25 8.15 14.75 8.6 14.65 8.65 14.5 8.55 14.45 8.45 14.4 8.7 14.25 8.75 14.35 8.45 14.3 8.5 13.6 8.9 13.55 8.95 13.45 9.0 11.65 9.85 11.55 9.85 11.45 9.75 11.45 9.7 9.8 10.45 9.7 10.45 9.55 10.5 Q12.2 9.1 13.9 7.6 L14.85 6.65 15.3 4.0 15.1 4.0 14.55 4.05 14.45 3.9 14.85 3.6 15.4 3.55 15.35 3.4 15.5 3.5 15.65 3.45 15.75 3.45 17.0 3.05 18.15 1.9 20.05 0.95 18.1 6.25 M-13.25 11.7 L-13.4 11.7 -13.5 11.7 -13.6 11.85 -13.95 11.3 -13.95 11.45 -15.1 11.15 -16.0 9.4 -17.15 7.05 -16.65 7.95 -16.75 7.55 -16.85 7.3 -16.6 7.25 -15.8 7.45 -15.7 7.5 -15.65 7.3 -15.35 7.35 -15.2 7.6 -14.6 7.65 -14.4 7.65 -14.1 7.75 -11.55 8.05 -11.25 8.15 -11.05 8.1 -10.85 8.1 -9.65 8.35 -8.7 8.25 -9.45 8.15 -5.4 8.25 -5.65 8.35 -6.15 8.45 -7.45 8.5 -8.9 8.75 -14.45 9.75 -13.25 11.7 M-20.35 -3.95 L-18.3 -5.6 -17.85 -5.85 -17.75 -5.95 Q-14.75 -7.9 -10.8 -9.3 L-10.95 -9.5 -9.35 -9.75 -8.95 -10.1 -9.3 -10.25 -8.05 -10.9 -7.9 -10.95 -7.95 -10.9 -7.7 -10.65 -6.55 -10.85 -6.65 -10.75 -6.95 -10.6 -7.2 -10.45 -6.6 -10.65 -5.55 -11.0 -4.45 -11.15 2.0 -11.3 2.4 -11.3 2.9 -11.3 5.45 -11.3 Q11.0 -11.2 15.95 -9.15 22.0 -6.6 19.55 -0.65 L18.3 1.35 16.5 2.4 14.45 3.55 12.4 4.45 11.85 4.85 Q11.6 4.85 11.3 5.0 L9.85 5.55 8.15 6.05 8.15 6.0 8.05 6.0 8.05 6.1 7.8 6.15 7.75 6.15 7.4 6.2 3.9 7.1 3.55 7.2 2.35 7.35 6.2 6.45 4.55 6.65 1.6 7.15 -3.5 7.6 -8.5 7.5 -13.2 6.75 Q-15.55 6.2 -17.6 4.9 -18.7 4.15 -19.45 3.1 -20.95 1.15 -21.0 -1.25 -21.0 -2.65 -20.35 -3.95 M7.55 -6.85 L9.85 -3.7 Q11.6 -0.65 10.3 2.5 9.55 4.2 7.85 4.75 10.7 4.7 13.05 3.05 L13.65 2.75 Q15.4 1.65 16.4 -0.1 18.1 -3.05 16.25 -6.0 14.95 -8.1 13.4 -8.9 11.2 -10.0 7.85 -10.25 L0.1 -9.9 Q4.25 -9.4 7.05 -7.3 L7.55 -6.85 M7.3 -3.45 Q5.9 -6.05 3.8 -7.35 1.65 -8.65 -1.05 -8.9 -3.8 -9.15 -6.4 -8.8 -9.05 -8.45 -11.65 -7.1 -14.35 -5.75 -16.0 -3.25 -17.55 -0.85 -17.8 0.95 -18.1 2.7 -17.25 4.05 -16.45 5.4 -13.65 6.1 L-8.15 7.0 -2.2 6.95 Q0.55 6.6 3.1 5.65 5.6 4.55 7.25 2.05 8.9 -0.6 7.3 -3.45" fill="#272727" fill-rule="evenodd" stroke="none"/>
      <path d="M11.7 -12.0 L13.1 -12.0 Q14.7 -12.0 17.6 -10.45 L18.8 -9.75 19.6 -9.35 21.35 -8.45 20.85 -8.6 21.35 -8.2 Q22.8 -5.35 22.1 -2.1 L22.7 -1.9 21.2 1.75 22.1 -0.75 22.0 -0.85 21.75 -0.85 Q21.05 -0.3 20.65 0.8 L20.1 2.5 18.75 5.8 18.85 5.85 18.75 5.95 18.35 6.6 18.1 6.7 18.05 6.85 18.1 6.25 20.05 0.95 18.15 1.9 18.3 1.35 19.55 -0.65 Q22.0 -6.6 15.95 -9.15 11.0 -11.2 5.45 -11.3 L2.9 -11.3 2.4 -11.3 2.0 -11.3 -4.45 -11.15 -1.3 -11.7 -1.3 -11.75 0.0 -12.0 0.15 -12.0 Q0.7 -12.15 1.25 -12.45 L2.6 -12.35 3.65 -12.3 3.7 -12.25 7.9 -11.95 11.7 -12.0 M-2.5 12.65 L-2.9 12.6 -2.95 12.6 -3.15 12.3 -3.35 11.8 -3.35 10.95 -3.45 9.55 -3.45 9.1 -5.25 9.35 -4.85 12.35 -7.15 12.45 -8.85 12.25 -8.7 12.5 -8.8 12.45 -9.25 12.35 -9.5 12.2 -9.7 12.2 -10.8 9.7 8.4 6.6 8.4 7.6 7.65 10.95 7.35 11.0 7.3 11.0 6.45 11.3 6.35 11.3 6.2 11.35 6.15 11.35 5.25 11.45 2.9 11.9 1.35 12.0 2.75 11.65 2.8 8.35 0.0 8.65 -1.65 8.85 -2.2 8.95 -2.15 9.95 -2.0 12.2 -2.0 12.4 Q-2.0 12.55 -2.35 12.55 L-2.5 12.65 M-15.1 11.15 L-14.8 11.95 -14.85 12.0 -15.15 11.55 -14.9 12.15 -15.8 11.95 -16.1 11.55 -16.65 11.4 -17.4 10.0 -17.25 10.2 -16.35 11.15 -15.85 11.65 -16.0 11.35 -15.9 11.25 -15.95 11.15 -15.7 11.0 -17.4 8.35 -18.2 6.85 Q-18.65 6.15 -19.1 6.1 L-19.25 5.9 -17.85 6.25 -18.15 5.95 Q-21.95 3.25 -22.25 -1.6 L-22.6 -1.05 Q-23.1 -0.2 -23.05 0.8 L-23.1 0.5 -23.2 -1.75 -18.7 -5.75 -20.35 -3.95 Q-21.0 -2.65 -21.0 -1.25 -20.95 1.15 -19.45 3.1 -18.7 4.15 -17.6 4.9 -15.55 6.2 -13.2 6.75 L-8.5 7.5 -3.5 7.6 1.6 7.15 4.55 6.65 6.2 6.45 2.35 7.35 -3.5 8.15 -4.2 8.2 -5.4 8.25 -9.45 8.15 -10.5 8.0 -10.65 8.0 -10.7 8.05 -11.15 8.05 -11.35 8.05 -11.55 8.05 -14.1 7.75 -14.4 7.65 -14.6 7.65 -15.35 7.35 -15.65 7.3 -16.55 6.8 -17.05 6.9 -16.95 7.2 -16.85 7.3 -16.75 7.55 -16.65 7.95 -17.15 7.05 -16.0 9.4 -15.1 11.15 M-17.25 6.95 L-17.15 7.05 -17.15 6.9 -17.25 6.95 M-17.55 6.95 L-17.4 7.2 -17.4 6.95 -17.55 6.95" fill="#848484" fill-rule="evenodd" stroke="none"/>
      <path d="M7.3 -3.45 Q8.9 -0.6 7.25 2.05 5.6 4.55 3.1 5.65 0.55 6.6 -2.2 6.95 L-8.15 7.0 -13.65 6.1 Q-16.45 5.4 -17.25 4.05 -18.1 2.7 -17.8 0.95 -17.55 -0.85 -16.0 -3.25 -14.35 -5.75 -11.65 -7.1 -9.05 -8.45 -6.4 -8.8 -3.8 -9.15 -1.05 -8.9 1.65 -8.65 3.8 -7.35 5.9 -6.05 7.3 -3.45" fill="#3f3f3f" fill-rule="evenodd" stroke="none"/>
      <path d="M21.35 -8.45 L21.25 -9.5 22.6 -7.05 23.2 -3.45 23.2 -2.6 22.7 -1.9 22.1 -2.1 Q22.8 -5.35 21.35 -8.2 L21.35 -8.45 M21.2 1.75 L20.65 3.3 Q19.75 5.9 19.15 5.9 L18.85 5.85 18.75 5.8 20.1 2.5 20.65 0.8 Q21.05 -0.3 21.75 -0.85 L22.0 -0.85 22.1 -0.75 21.2 1.75 M-1.5 12.7 L-1.6 12.7 -1.95 12.2 -2.0 12.2 -2.15 9.95 -2.2 8.95 -1.65 8.85 0.0 8.65 2.8 8.35 2.75 11.65 1.35 12.0 -1.5 12.7 M-2.95 12.6 L-3.9 12.6 -4.55 12.6 -4.85 12.35 -5.25 9.35 -3.45 9.1 -3.45 9.55 -3.35 10.95 -3.35 11.8 -3.15 12.3 -2.95 12.6 M-17.4 10.0 L-17.45 9.9 -17.6 9.7 -17.6 9.65 -17.9 9.15 -18.8 7.6 -19.25 7.15 -19.35 6.95 -19.6 6.55 -19.45 6.55 -19.7 6.25 -19.6 6.2 -19.7 6.05 -19.3 6.1 -19.1 6.1 Q-18.65 6.15 -18.2 6.85 L-17.4 8.35 -15.7 11.0 -15.95 11.15 -15.9 11.25 -16.0 11.35 -15.85 11.65 -16.35 11.15 -17.25 10.2 -17.4 10.0 M-19.25 5.9 Q-21.85 5.15 -23.0 2.65 L-23.45 1.65 -23.0 1.35 -22.9 1.35 -23.05 0.8 Q-23.1 -0.2 -22.6 -1.05 L-22.25 -1.6 Q-21.95 3.25 -18.15 5.95 L-17.85 6.25 -19.25 5.9" fill="#cccccc" fill-rule="evenodd" stroke="none"/>
      <path d="M22.6 -7.05 L22.85 -7.0 Q23.65 -6.6 23.75 -5.85 L23.85 -5.25 Q23.75 -4.75 23.15 -4.7 L23.15 -4.65 23.25 -3.95 23.2 -3.45 22.6 -7.05 M-17.6 9.7 Q-18.3 8.55 -19.15 7.55 L-19.35 6.95 -19.25 7.15 -18.8 7.6 -17.9 9.15 -17.6 9.65 -17.6 9.7" fill="#3283ba" fill-rule="evenodd" stroke="none"/>
      <path d="M14.25 8.75 L13.6 8.95 13.1 9.2 13.0 9.3 12.55 9.55 12.3 9.6 12.25 9.6 12.2 9.65 11.95 9.8 11.7 9.85 10.55 10.3 9.35 10.6 8.85 10.7 8.4 10.75 8.4 10.8 8.4 10.85 7.75 10.95 7.7 11.0 7.35 11.0 7.65 10.95 8.4 7.6 8.4 6.6 -10.8 9.7 -9.7 12.2 -10.15 12.1 -10.75 12.05 -10.95 11.9 -11.4 11.85 -12.0 11.6 -13.25 11.7 -14.45 9.75 -8.9 8.75 -7.45 8.5 -6.15 8.45 -5.65 8.35 -5.4 8.25 -4.2 8.2 -3.75 8.2 -3.7 8.2 -3.5 8.15 2.35 7.35 3.55 7.2 3.9 7.1 7.4 6.2 7.75 6.15 7.8 6.15 8.05 6.1 8.05 6.0 8.15 6.0 8.15 6.05 9.85 5.55 11.3 5.0 Q11.6 4.85 11.85 4.85 L12.9 4.55 Q13.65 4.0 14.25 3.9 L14.4 3.9 14.45 3.55 14.85 3.6 14.45 3.9 14.55 4.05 15.1 4.0 15.3 4.0 14.85 6.65 13.9 7.6 Q12.2 9.1 9.55 10.5 L9.7 10.45 9.8 10.45 11.45 9.7 11.45 9.75 11.55 9.85 11.65 9.85 13.45 9.0 13.55 8.95 13.6 8.9 14.3 8.5 14.35 8.45 14.25 8.75" fill="#5a5a5a" fill-rule="evenodd" stroke="none"/>
      <path d="M14.5 8.7 L14.4 8.7 14.45 8.45 14.5 8.55 14.5 8.7 M-7.4 12.5 L-8.15 12.45 -8.7 12.5 -8.85 12.25 -7.15 12.45 -7.4 12.5 M-13.6 11.85 L-13.65 11.95 -13.95 11.45 -13.95 11.3 -13.6 11.85 M5.85 11.45 L5.25 11.45 6.15 11.35 5.95 11.45 5.85 11.45 M-9.45 8.15 L-8.7 8.25 -9.65 8.35 -10.85 8.1 -10.7 8.05 -10.65 8.0 -10.5 8.0 -9.45 8.15 M-11.05 8.1 L-11.25 8.15 -11.35 8.05 -11.15 8.05 -11.05 8.1" fill="#24508e" fill-rule="evenodd" stroke="none"/>
      <path d="M15.3 8.05 Q15.7 7.8 16.25 7.7 L16.0 7.85 15.6 7.95 15.25 8.15 15.3 8.05 M14.65 8.65 L14.5 8.7 14.5 8.55 14.65 8.65 M13.0 9.3 L11.65 10.1 Q8.65 11.2 4.8 11.9 L-1.15 12.7 -1.5 12.7 1.35 12.0 2.9 11.9 5.85 11.45 5.95 11.45 6.15 11.35 6.2 11.35 6.35 11.3 6.45 11.3 7.7 11.0 7.75 10.95 8.4 10.85 8.4 10.8 8.85 10.7 9.35 10.6 10.55 10.3 11.7 9.85 11.95 9.8 12.2 9.65 12.25 9.6 12.3 9.6 12.55 9.55 13.0 9.3 M-1.6 12.7 L-2.5 12.65 -2.35 12.55 Q-2.0 12.55 -2.0 12.4 L-2.0 12.2 -1.95 12.2 -1.6 12.7 M-4.55 12.6 L-6.15 12.6 -7.0 12.6 -7.4 12.5 -7.15 12.45 -4.85 12.35 -4.55 12.6" fill="#10182c" fill-rule="evenodd" stroke="none"/>
      <path d="M21.4 0.15 L20.75 0.65 17.0 3.3 Q16.75 3.35 16.55 3.5 L13.45 4.7 5.8 6.8 2.2 7.5 1.0 7.7 -2.2 8.15 -2.9 8.2 -3.95 8.3 -7.45 8.4 -9.2 8.35 -9.65 8.4 -12.55 8.1 -13.4 8.1 Q-17.9 7.55 -19.55 6.6 L-16.3 10.75 -13.6 11.5 -10.35 11.9 -10.2 11.95 -5.55 12.25 -4.25 12.3 Q0.9 12.25 6.4 11.05 L8.25 10.6 11.25 9.6 16.6 7.25 18.65 5.7 19.1 5.1 19.4 4.6 21.4 0.15 M8.8 -12.0 L1.0 -11.75 -2.1 -11.4 -4.55 -11.0 -5.8 -10.7 -5.9 -10.6 -10.0 -9.5 -10.1 -9.45 -10.75 -9.25 -11.5 -8.95 -13.45 -8.2 Q-15.6 -7.35 -17.6 -6.05 L-20.9 -3.6 -21.15 -3.3 -22.5 -0.95 -22.75 1.2 Q-22.45 3.7 -20.35 5.05 -18.4 6.45 -14.95 7.25 L-12.9 7.65 -10.15 7.95 -9.0 8.05 -7.5 8.1 -4.05 8.05 1.1 7.4 2.15 7.25 5.75 6.55 Q9.35 5.7 12.35 4.45 13.95 3.85 15.35 3.05 L16.45 2.45 19.95 0.0 21.1 -1.1 22.1 -2.3 Q22.75 -3.3 22.85 -4.1 L22.45 -6.3 Q22.0 -7.75 19.95 -9.15 18.25 -10.2 15.65 -10.85 L11.05 -11.8 8.8 -12.0 M11.2 -12.7 L12.8 -12.55 15.95 -11.9 16.0 -11.9 19.8 -10.35 20.55 -9.95 Q22.5 -8.8 23.4 -6.9 24.45 -4.75 23.35 -2.45 L23.3 -2.25 23.3 -2.15 22.0 0.95 20.35 4.85 20.0 5.55 20.05 5.55 19.85 6.0 19.75 6.05 19.35 6.3 16.8 7.9 15.8 8.4 Q13.15 9.7 10.2 10.5 L8.3 11.0 6.45 11.45 3.75 12.05 1.0 12.5 0.7 12.5 -4.15 12.85 Q-7.05 13.05 -9.75 12.85 L-10.55 12.8 -12.65 12.5 -12.95 12.45 -13.8 12.4 -14.15 12.35 -15.95 11.95 -16.0 11.95 -16.25 11.9 Q-16.9 11.8 -16.8 11.7 L-18.1 9.85 -21.6 5.65 -21.85 5.25 Q-23.1 4.0 -23.65 2.25 -24.3 0.15 -23.3 -1.8 L-22.05 -3.6 -21.35 -4.35 Q-19.7 -6.0 -17.45 -7.25 L-13.6 -9.15 -12.75 -9.55 -11.9 -9.85 -10.4 -10.3 -6.3 -11.45 -6.1 -11.5 -4.05 -12.0 -2.2 -12.3 -0.4 -12.45 1.8 -12.7 Q6.8 -13.15 11.2 -12.7" fill="#000000" fill-rule="evenodd" stroke="none"/>
    </g>
    <g id="sprite3">
      <use ffdec:characterId="5" height="4.8" transform="matrix(1.0, 0.0, 0.0, 1.0, 0.0, 0.0)" width="9.45" xlink:href="#shape2"/>
    </g>
    <g id="shape2">
      <path d="M2.6 0.6 L2.5 -0.3 2.35 -0.85 -2.95 -0.45 -1.25 -0.85 0.4 -1.3 -3.45 -0.8 -3.65 -0.85 -3.7 -0.85 3.55 -1.8 3.7 -1.0 3.9 0.75 3.9 0.95 3.05 1.1 3.1 1.05 3.4 0.85 3.4 0.5 Q3.3 -0.3 2.8 -0.9 L2.65 -0.25 2.6 0.6 M-2.0 1.4 L-1.1 1.3 -1.2 1.35 -1.1 1.5 2.3 1.2 0.4 1.45 -3.95 2.1 -4.0 2.65 -4.5 -0.6 -4.45 -0.75 -3.75 -0.85 -3.9 -0.75 -4.05 -0.75 -4.0 -0.65 -4.2 -0.3 -4.05 1.0 Q-3.95 1.55 -3.55 1.5 L-3.45 1.5 Q-2.95 1.4 -3.1 0.05 L-3.25 -0.45 -2.95 -0.45 Q-2.9 1.1 -2.05 1.5 L-2.0 1.4" fill="#ffcc00" fill-rule="evenodd" stroke="none"/>
      <path d="M2.35 -0.85 L2.5 -0.3 2.6 0.6 2.3 0.65 -1.1 1.3 -2.0 1.4 -2.2 -0.15 2.35 -0.85 M3.55 -1.8 L-3.7 -0.85 -3.75 -0.85 -4.45 -0.75 -4.6 -0.75 4.35 -2.05 4.85 1.7 -1.05 2.35 4.5 1.5 3.55 -1.8 M2.3 0.65 L2.0 -0.1 -1.95 0.4 -1.9 1.1 2.3 0.65 M-4.5 -0.6 L-4.0 2.65 -4.6 -0.2 -4.6 -0.75 -4.5 -0.6" fill="#000000" fill-rule="evenodd" stroke="none"/>
      <path d="M2.6 0.6 L2.65 -0.25 2.8 -0.9 Q3.3 -0.3 3.4 0.5 L3.4 0.85 3.35 0.5 Q3.3 0.0 2.95 -0.05 2.65 -0.25 2.75 0.45 2.75 1.1 3.1 1.05 L3.05 1.1 2.7 1.15 2.3 1.2 -1.1 1.5 -1.2 1.35 -1.1 1.3 2.3 0.65 2.6 0.6 M-3.45 -0.8 L0.4 -1.3 -1.25 -0.85 -2.95 -0.45 -3.25 -0.45 -3.1 0.05 Q-2.95 1.4 -3.45 1.5 L-3.55 1.5 Q-3.95 1.55 -4.05 1.0 L-4.2 -0.3 -4.0 -0.65 -4.05 -0.75 -3.9 -0.75 -3.75 -0.85 -3.7 -0.85 Q-4.0 -0.75 -3.9 0.05 -3.75 1.2 -3.3 1.25 -3.05 0.85 -3.2 -0.05 L-3.25 -0.45 -3.45 -0.8" fill="#fff4cc" fill-rule="evenodd" stroke="none"/>
      <path d="M3.05 1.1 L3.9 0.95 3.9 0.75 3.7 -1.0 3.55 -1.8 4.5 1.5 -1.05 2.35 -4.0 2.75 -4.0 2.65 -3.95 2.1 0.4 1.45 2.3 1.2 2.7 1.15 3.05 1.1 M-2.95 -0.45 L2.35 -0.85 -2.2 -0.15 -2.0 1.4 -2.05 1.5 Q-2.9 1.1 -2.95 -0.45" fill="#f7ac00" fill-rule="evenodd" stroke="none"/>
      <path d="M3.4 0.85 L3.1 1.05 Q2.75 1.1 2.75 0.45 2.65 -0.25 2.95 -0.05 3.3 0.0 3.35 0.5 L3.4 0.85 M-3.7 -0.85 L-3.65 -0.85 -3.45 -0.8 -3.25 -0.45 -3.2 -0.05 Q-3.05 0.85 -3.3 1.25 -3.75 1.2 -3.9 0.05 -4.0 -0.75 -3.7 -0.85" fill="#ffffff" fill-rule="evenodd" stroke="none"/>
    </g>
  </defs>
</svg>
