<?xml version="1.0" encoding="UTF-8" standalone="no"?>
<svg xmlns:ffdec="https://www.free-decompiler.com/flash" xmlns:xlink="http://www.w3.org/1999/xlink" ffdec:objectType="frame" height="28.2px" width="70.0px" xmlns="http://www.w3.org/2000/svg">
  <g transform="matrix(1.0, 0.0, 0.0, 1.0, 34.75, 30.5)">
    <use ffdec:characterId="2" height="28.2" transform="matrix(1.0, 0.0, 0.0, 1.0, 26.35, -14.25)" width="20.15" xlink:href="#sprite0"/>
    <use ffdec:characterId="2" height="28.2" transform="matrix(-1.0, 0.0, 0.0, 1.0, -25.85, -14.25)" width="20.15" xlink:href="#sprite0"/>
  </g>
  <defs>
    <g id="sprite0">
      <use ffdec:characterId="1" height="28.2" transform="matrix(1.0, 0.0, 0.0, 1.0, 0.0, 0.0)" width="20.15" xlink:href="#shape0"/>
    </g>
    <g id="shape0">
      <path d="M5.25 1.9 L6.2 2.25 6.45 3.0 4.95 4.1 Q4.0 4.55 3.0 2.9 L4.7 2.4 5.0 2.0 5.25 1.9 M6.5 4.05 L6.55 4.05 7.5 4.25 6.8 5.0 Q6.4 5.55 6.2 5.3 L6.15 5.3 Q5.15 5.05 5.4 4.5 L5.7 4.15 6.5 4.05 M6.45 6.6 L4.9 9.35 2.95 9.5 3.7 9.4 3.95 9.4 3.55 9.35 3.05 9.05 2.6 8.6 2.45 8.25 Q2.6 7.15 3.65 6.7 L6.45 6.6 M2.3 9.55 L0.7 10.55 Q-0.2 9.95 0.05 9.05 0.45 8.3 1.35 8.75 L2.2 9.15 2.25 9.2 2.3 9.55 M-0.75 10.45 L-2.2 10.3 -2.45 9.75 Q-2.4 9.05 -1.9 8.95 -1.75 8.95 -1.5 9.1 -0.7 9.5 -0.75 10.45 M-3.3 11.45 L-5.6 10.95 Q-5.85 10.2 -5.15 9.85 -4.1 9.3 -3.65 9.7 -2.85 10.45 -3.3 11.45 M-4.45 -13.25 L-3.55 -13.2 0.5 -13.3 2.05 -9.95 Q2.75 -8.4 4.85 -7.05 5.55 -5.2 5.05 -3.2 L0.95 -3.1 2.15 -4.75 -1.1 -5.1 Q-3.6 -5.25 -4.7 -8.25 -4.7 -10.35 -3.95 -10.8 L-6.35 -10.6 -5.25 -12.75 -4.45 -13.25 M-8.9 -14.95 L-8.5 -14.75 -6.55 -13.9 -9.05 -11.05 -8.3 -13.45 Q-9.8 -13.55 -9.6 -14.05 L-9.3 -14.5 -8.9 -14.95 M-4.8 1.35 Q-1.7 3.4 -0.75 5.75 L-0.5 7.25 -1.0 7.55 -1.8 7.75 -2.7 7.9 Q-4.2 6.35 -4.8 1.35 M-0.8 2.95 L1.75 3.2 Q3.35 3.5 3.2 5.5 2.3 6.0 1.35 6.45 0.35 6.3 -0.35 4.4 L-0.8 2.95 M-6.65 0.3 L-6.35 1.0 Q-5.5 3.4 -5.2 6.0 L-5.6 8.2 -6.5 8.35 -6.75 7.25 Q-7.35 3.8 -6.65 0.3" fill="#ffffff" fill-rule="evenodd" stroke="none"/>
      <path d="M2.65 9.55 L2.3 9.55 2.25 9.2 2.65 9.55 M3.55 9.35 L3.95 9.4 3.7 9.4 3.55 9.35" fill="#ffd9d9" fill-rule="evenodd" stroke="none"/>
      <path d="M6.55 -1.05 L4.8 0.7 3.45 1.6 5.25 1.9 5.0 2.0 -1.05 2.2 -0.8 2.95 -0.35 4.4 0.1 6.0 -2.45 1.65 -4.95 0.45 -5.3 2.9 -5.45 2.3 -5.65 1.65 -5.9 1.05 -6.6 -0.5 -7.95 2.6 Q-7.5 -0.25 -8.8 -2.95 L-9.8 -4.75 Q-9.15 -7.2 -10.4 -9.7 L-10.75 -10.45 -10.85 -10.65 Q-11.25 -11.85 -10.6 -13.55 L-10.5 -13.8 -10.2 -14.55 -10.1 -14.75 -9.6 -15.65 -9.25 -15.9 -9.1 -15.85 Q-9.85 -14.8 -10.05 -13.3 L-10.1 -11.9 -9.6 -9.8 Q-8.0 -10.95 -6.55 -12.2 -5.2 -13.35 -4.25 -14.65 -3.6 -14.2 -2.15 -14.35 L-4.45 -13.25 -5.25 -12.75 -6.75 -11.55 Q-8.3 -10.05 -7.95 -8.6 L-7.45 -8.5 Q-6.15 -8.7 -5.5 -9.55 L-4.65 -10.4 Q-5.75 -8.6 -6.7 -7.75 L-4.85 -7.55 Q-5.45 -6.7 -7.55 -6.8 L-7.8 -5.95 Q-6.9 -4.95 -5.2 -4.6 L-1.45 -4.0 0.15 -4.3 -2.35 -3.15 -2.2 -2.6 Q-1.15 -1.35 0.7 -1.4 4.8 -2.85 6.55 -1.05 M5.9 3.5 L6.0 3.75 6.5 4.05 5.7 4.15 5.4 4.5 Q5.15 5.05 6.15 5.3 L4.75 5.35 Q3.65 5.5 1.7 7.7 L2.6 8.6 3.05 9.05 3.55 9.35 3.7 9.4 2.95 9.5 2.65 9.55 2.25 9.2 2.2 9.15 1.25 7.95 -1.9 8.95 Q-2.4 9.05 -2.45 9.75 L-2.2 10.3 -2.55 11.15 Q-2.45 9.85 -3.45 9.05 -5.35 8.55 -6.55 9.75 L-7.1 9.65 -7.75 10.15 -7.65 9.55 -8.1 9.05 -3.4 8.45 Q-0.3 8.4 1.55 7.05 L5.9 3.5" fill="#7cc2ed" fill-rule="evenodd" stroke="none"/>
      <path d="M-2.15 -14.35 L-1.15 -14.55 -0.75 -14.6 Q0.2 -14.75 1.45 -13.4 L1.55 -13.3 1.6 -13.2 2.65 -11.9 3.0 -11.35 3.0 -11.4 4.4 -8.95 4.6 -8.65 4.6 -8.6 5.1 -7.9 5.5 -7.25 Q7.05 -4.4 6.55 -1.05 4.8 -2.85 0.7 -1.4 -1.15 -1.35 -2.2 -2.6 L-2.35 -3.15 0.15 -4.3 -1.45 -4.0 -5.2 -4.6 Q-6.9 -4.95 -7.8 -5.95 L-7.55 -6.8 Q-5.45 -6.7 -4.85 -7.55 L-6.7 -7.75 Q-5.75 -8.6 -4.65 -10.4 L-5.5 -9.55 Q-6.15 -8.7 -7.45 -8.5 L-7.95 -8.6 Q-8.3 -10.05 -6.75 -11.55 L-5.25 -12.75 -6.35 -10.6 -3.95 -10.8 Q-4.7 -10.35 -4.7 -8.25 -3.6 -5.25 -1.1 -5.1 L2.15 -4.75 0.95 -3.1 5.05 -3.2 Q5.55 -5.2 4.85 -7.05 2.75 -8.4 2.05 -9.95 L0.5 -13.3 -3.55 -13.2 -4.45 -13.25 -2.15 -14.35 M6.45 3.0 L6.4 3.05 6.1 3.4 5.9 3.5 1.55 7.05 Q-0.3 8.4 -3.4 8.45 L-8.1 9.05 -8.2 8.9 -8.25 8.85 -8.25 8.8 -8.2 8.6 Q-7.9 5.2 -7.95 2.6 L-6.6 -0.5 -5.9 1.05 -5.65 1.65 -5.45 2.3 -5.3 2.9 -4.95 0.45 -2.45 1.65 0.1 6.0 -0.35 4.4 Q0.35 6.3 1.35 6.45 2.3 6.0 3.2 5.5 3.35 3.5 1.75 3.2 L-0.8 2.95 -1.05 2.2 5.0 2.0 4.7 2.4 3.0 2.9 Q4.0 4.55 4.95 4.1 L6.45 3.0 M7.5 4.25 L6.85 5.8 6.45 6.6 3.65 6.7 Q2.6 7.15 2.45 8.25 L2.6 8.6 1.7 7.7 Q3.65 5.5 4.75 5.35 L6.15 5.3 6.2 5.3 Q6.4 5.55 6.8 5.0 L7.5 4.25 M0.7 10.55 L0.55 10.55 0.5 10.55 0.45 10.55 -0.75 10.45 Q-0.7 9.5 -1.5 9.1 -1.75 8.95 -1.9 8.95 L1.25 7.95 2.2 9.15 1.35 8.75 Q0.45 8.3 0.05 9.05 -0.2 9.95 0.7 10.55 M-2.55 11.15 L-2.65 11.35 -3.3 11.45 Q-2.85 10.45 -3.65 9.7 -4.1 9.3 -5.15 9.85 -5.85 10.2 -5.6 10.95 L-5.95 10.3 -6.55 10.4 -7.3 10.65 -7.55 10.75 -7.7 10.65 -7.8 10.65 -7.85 10.6 -7.65 9.55 -7.75 10.15 -7.1 9.65 -6.55 9.75 Q-5.35 8.55 -3.45 9.05 -2.45 9.85 -2.55 11.15 M-9.1 -15.85 L-5.45 -14.95 -4.6 -14.75 -4.55 -14.75 -4.5 -14.7 -4.45 -14.7 -4.25 -14.65 Q-5.2 -13.35 -6.55 -12.2 -8.0 -10.95 -9.6 -9.8 L-10.1 -11.9 -10.05 -13.3 Q-9.85 -14.8 -9.1 -15.85 M-8.9 -14.95 L-9.3 -14.5 -9.6 -14.05 Q-9.8 -13.55 -8.3 -13.45 L-9.05 -11.05 -6.55 -13.9 -8.5 -14.75 -8.9 -14.95 M-4.8 1.35 Q-4.2 6.35 -2.7 7.9 L-1.8 7.75 -1.0 7.55 -0.5 7.25 -0.75 5.75 Q-1.7 3.4 -4.8 1.35 M-6.65 0.3 Q-7.35 3.8 -6.75 7.25 L-6.5 8.35 -5.6 8.2 -5.2 6.0 Q-5.5 3.4 -6.35 1.0 L-6.65 0.3" fill="#d7f0ff" fill-rule="evenodd" stroke="none"/>
      <path d="M2.0 -12.7 L4.4 -9.35 4.3 -9.2 Q2.0 -10.6 1.2 -12.7 0.6 -14.2 -0.5 -14.2 -4.15 -14.2 -7.0 -11.25 -9.0 -9.15 -9.55 -7.3 L-9.5 -5.55 Q-9.4 -4.5 -7.95 -3.85 L-8.0 -3.8 -7.7 -3.6 -5.65 -2.95 -6.0 -2.9 -6.75 -2.95 -4.7 -1.4 Q-1.3 1.25 1.4 1.25 2.95 1.25 4.45 0.5 L5.6 -0.1 4.8 -0.9 3.7 -1.8 0.7 -1.3 -3.55 -1.9 Q-4.4 -2.2 -5.05 -2.7 L-4.95 -2.7 Q-2.8 -1.65 -0.3 -1.65 L2.25 -2.05 4.05 -2.45 Q4.75 -2.45 5.55 -1.75 L5.95 -1.35 6.35 -1.8 6.45 -2.4 6.15 -3.8 Q5.8 -4.8 5.8 -5.35 L5.35 -6.85 4.55 -8.3 Q6.45 -7.65 6.45 -5.45 6.25 -4.7 6.65 -3.85 L7.15 -2.4 7.1 -1.65 6.75 -0.95 6.2 -0.35 5.95 -0.1 4.65 1.05 3.9 1.55 5.1 1.65 Q7.75 2.0 7.75 2.7 L6.25 3.5 5.95 3.7 Q8.9 3.45 8.9 3.95 L8.1 4.4 Q7.25 4.6 7.1 5.15 6.9 5.6 6.65 6.8 L5.35 8.8 4.25 9.85 4.0 9.85 3.8 9.85 3.4 9.6 2.3 9.6 1.4 10.65 Q0.95 11.15 0.1 11.15 L-1.25 10.7 -2.2 10.35 -2.1 10.85 -2.5 11.5 -4.4 11.5 -5.2 11.4 -5.7 11.0 Q-6.1 10.7 -6.3 10.7 -7.2 10.7 -8.6 11.95 L-8.8 11.65 -8.25 10.55 Q-7.95 10.05 -7.8 9.55 L-7.9 9.6 Q-8.45 9.6 -8.3 7.75 L-8.1 5.7 -7.9 3.4 -8.2 -1.05 Q-8.2 -1.7 -8.95 -3.2 L-8.85 -3.2 Q-7.5 -1.45 -7.5 3.4 L-7.7 5.85 -7.9 7.75 -7.8 8.6 Q-6.2 7.8 -4.6 7.8 -3.8 7.8 -2.9 8.2 L-1.95 8.6 -0.05 8.3 0.2 8.0 0.2 7.85 Q0.2 6.4 1.75 6.2 3.4 6.05 3.6 5.3 3.75 4.65 4.45 3.95 5.2 3.2 6.2 2.75 L3.0 1.9 1.4 2.15 Q-1.0 2.15 -4.8 -0.65 L-8.75 -3.95 -9.1 -4.1 -9.8 -4.55 -9.65 -7.1 -9.75 -7.1 -9.85 -7.7 -9.65 -8.45 Q-10.45 -8.65 -10.9 -9.9 L-11.25 -11.4 -10.85 -13.05 -10.25 -14.6 -10.1 -15.45 -9.75 -16.15 -8.65 -16.1 Q-7.9 -15.55 -4.7 -15.5 L-4.05 -14.7 -3.35 -14.75 Q-2.7 -14.7 -2.65 -14.3 0.05 -15.25 1.1 -14.35 L2.0 -12.7 M5.75 3.8 Q4.6 4.5 4.45 5.4 L4.3 6.15 3.7 6.85 2.5 7.0 1.1 7.4 0.9 8.4 Q0.4 9.4 -1.3 9.4 L-2.9 9.05 -4.6 8.65 Q-5.9 8.65 -6.9 9.15 L-7.25 9.3 -7.25 9.4 -7.25 9.9 -7.65 10.55 -7.65 10.6 -6.65 10.3 Q-5.95 10.3 -5.6 10.6 L-4.45 11.1 -2.55 11.1 -2.35 10.2 -2.25 10.3 Q-1.95 10.0 -1.35 10.0 L-0.8 10.35 0.1 10.65 1.65 9.5 Q2.55 8.75 3.7 9.35 3.85 9.0 4.65 8.45 5.8 7.65 6.2 6.85 L7.3 4.2 7.25 4.05 7.2 4.05 5.9 3.9 5.75 3.8 M-10.05 -13.6 L-10.75 -11.4 Q-10.75 -10.75 -9.95 -9.75 L-9.4 -9.0 -7.7 -11.1 Q-5.7 -13.05 -3.55 -13.95 L-4.05 -14.2 -4.3 -14.15 Q-4.7 -14.15 -4.9 -14.85 L-8.35 -15.25 -9.35 -15.7 Q-9.35 -15.15 -10.05 -13.6 M-8.15 -13.5 Q-9.4 -12.35 -9.05 -10.9 L-9.15 -10.85 -9.3 -11.85 -9.05 -12.7 -8.15 -13.5 M-7.75 -6.3 Q-7.75 -5.2 -4.15 -4.8 L0.75 -4.05 -0.6 -3.95 Q-3.7 -3.95 -5.85 -4.6 -8.05 -5.25 -8.05 -6.3 -8.05 -7.1 -6.75 -6.85 -7.75 -6.75 -7.75 -6.3 M-7.95 -7.95 Q-7.35 -8.15 -6.4 -9.0 L-5.05 -10.0 -6.1 -8.95 Q-6.85 -8.25 -7.95 -7.95" fill="#000000" fill-rule="evenodd" stroke="none"/>
    </g>
  </defs>
</svg>
