<?xml version="1.0" encoding="UTF-8" standalone="no"?>
<svg xmlns:ffdec="https://www.free-decompiler.com/flash" xmlns:xlink="http://www.w3.org/1999/xlink" ffdec:objectType="frame" height="25.7px" width="26.55px" xmlns="http://www.w3.org/2000/svg">
  <g transform="matrix(1.0, 0.0, 0.0, 1.0, -1.35, 32.95)">
    <use ffdec:characterId="5" height="25.7" transform="matrix(1.0, 0.0, 0.0, 1.0, 14.6, -20.1)" width="26.55" xlink:href="#sprite0"/>
  </g>
  <defs>
    <g id="sprite0">
      <use ffdec:characterId="2" height="15.35" transform="matrix(-0.2703, 0.7043, 0.7043, 0.2703, 6.45, -2.6)" width="11.5" xlink:href="#sprite1"/>
      <use ffdec:characterId="2" height="15.35" transform="matrix(0.1682, -0.843, -0.9807, -0.1957, -4.9, 0.6)" width="11.5" xlink:href="#sprite1"/>
      <use ffdec:characterId="2" height="15.35" transform="matrix(-0.8346, -0.0225, 0.0368, -0.834, 4.75, -6.45)" width="11.5" xlink:href="#sprite1"/>
      <use ffdec:characterId="2" height="15.35" transform="matrix(1.0, 0.0, 0.0, 1.0, -2.55, 5.3)" width="11.5" xlink:href="#sprite1"/>
      <use ffdec:characterId="4" height="8.85" transform="matrix(1.0, 0.0, 0.0, 1.0, 1.45, -1.25)" width="7.8" xlink:href="#sprite2"/>
    </g>
    <g id="sprite1">
      <use ffdec:characterId="1" height="15.35" transform="matrix(1.0, 0.0, 0.0, 1.0, 0.0, 0.0)" width="11.5" xlink:href="#shape0"/>
    </g>
    <g id="shape0">
      <path d="M4.45 -3.6 L4.35 -3.65 4.45 -3.8 4.45 -3.6 M3.45 -1.95 L4.25 -1.9 4.25 -1.85 4.35 -1.85 3.9 0.3 2.65 0.15 2.65 0.1 3.4 -1.8 3.45 -1.95 M0.3 -0.55 L-1.2 -1.2 -1.35 -1.45 -0.3 -3.4 -0.25 -3.5 1.1 -2.7 1.05 -2.55 0.3 -0.55 M-2.4 4.8 L-2.1 1.95 -0.5 2.9 -0.9 5.8 -2.4 4.8 M3.3 2.95 Q3.3 4.45 2.9 5.55 2.45 6.6 1.85 6.6 1.75 4.4 1.9 3.15 L3.3 2.95" fill="#fff5df" fill-rule="evenodd" stroke="none"/>
      <path d="M-1.2 -1.2 L-2.1 1.9 -4.8 -1.1 Q-3.35 -3.45 -2.75 -3.6 L-1.35 -1.45 -1.2 -1.2" fill="#4c83ff" fill-rule="evenodd" stroke="none"/>
      <path d="M0.75 -5.3 L0.7 -5.25 -0.25 -3.5 -0.3 -3.4 -1.45 -4.7 0.25 -5.8 0.75 -5.3" fill="#c839b8" fill-rule="evenodd" stroke="none"/>
      <path d="M2.05 -4.4 L2.1 -4.45 4.45 -3.8 4.35 -3.65 3.45 -1.95 3.4 -1.8 Q2.05 -2.15 1.05 -2.55 L1.1 -2.7 2.05 -4.4" fill="#ff3636" fill-rule="evenodd" stroke="none"/>
      <path d="M0.3 -0.55 L0.25 -0.45 -0.45 2.8 -0.5 2.9 -2.1 1.95 -2.4 4.8 -4.85 2.4 Q-6.15 1.1 -4.8 -1.1 L-2.1 1.9 -1.2 -1.2 0.3 -0.55 M3.35 2.95 L3.3 2.95 1.9 3.15 1.9 3.05 Q2.3 1.15 2.65 0.15 L3.9 0.3 3.35 2.95" fill="#a3c0ff" fill-rule="evenodd" stroke="none"/>
      <path d="M2.1 -4.45 L4.15 -7.3 4.45 -3.8 2.1 -4.45 M4.35 -3.65 L4.45 -3.6 4.25 -1.9 3.45 -1.95 4.35 -3.65 M0.25 -0.45 L0.3 -0.55 1.05 -2.55 Q2.05 -2.15 3.4 -1.8 L2.65 0.1 0.25 -0.45 M-0.5 2.9 L-0.45 2.8 1.9 3.05 1.9 3.15 Q1.75 4.4 1.85 6.6 L1.8 6.65 Q0.6 6.5 -0.9 5.8 L-0.5 2.9 M4.25 -1.85 L4.35 -1.9 4.35 -1.85 4.25 -1.85" fill="#fe8a8a" fill-rule="evenodd" stroke="none"/>
      <path d="M-0.45 2.8 L0.25 -0.45 2.65 0.1 2.65 0.15 Q2.3 1.15 1.9 3.05 L-0.45 2.8" fill="#e84ed7" fill-rule="evenodd" stroke="none"/>
      <path d="M3.95 -7.8 L2.05 -6.45 0.75 -5.3 0.25 -5.8 1.5 -6.7 Q2.45 -7.35 3.95 -7.8" fill="#7a94cd" fill-rule="evenodd" stroke="none"/>
      <path d="M-0.3 -3.4 L-1.35 -1.45 -2.75 -3.6 -1.45 -4.7 -0.3 -3.4" fill="#92aeea" fill-rule="evenodd" stroke="none"/>
      <path d="M0.75 -5.3 L2.05 -6.45 3.95 -7.8 4.15 -7.7 4.15 -7.3 2.1 -4.45 2.05 -4.4 0.7 -5.25 0.75 -5.3 M4.45 -3.6 L4.45 -3.8 5.1 -4.85 5.2 -3.5 4.45 -3.6 M4.25 -1.9 L4.35 -1.9 4.25 -1.85 4.25 -1.9 M4.35 -1.85 L5.25 -1.85 5.15 -0.05 3.9 0.3 4.35 -1.85 M4.65 2.75 L3.5 5.9 Q3.0 6.65 1.8 6.65 L1.85 6.6 Q2.45 6.6 2.9 5.55 3.3 4.45 3.3 2.95 L3.35 2.95 4.65 2.75" fill="#d8c8a6" fill-rule="evenodd" stroke="none"/>
      <path d="M0.7 -5.25 L2.05 -4.4 1.1 -2.7 -0.25 -3.5 0.7 -5.25" fill="#d48585" fill-rule="evenodd" stroke="none"/>
      <path d="M4.15 -7.3 L4.15 -7.7 Q4.6 -7.45 5.1 -4.85 L4.45 -3.8 4.15 -7.3 M4.25 -1.9 L4.45 -3.6 5.2 -3.5 5.25 -1.85 4.35 -1.85 4.35 -1.9 4.25 -1.9" fill="#bf6666" fill-rule="evenodd" stroke="none"/>
      <path d="M5.15 -0.05 L4.65 2.75 3.35 2.95 3.9 0.3 5.15 -0.05" fill="#758dc2" fill-rule="evenodd" stroke="none"/>
      <path d="M1.05 -3.15 Q0.05 -1.4 -0.55 -0.95 L-0.75 -1.2 Q1.8 -6.7 4.1 -5.1 3.95 -4.85 2.6 -4.2 1.25 -3.5 1.05 -3.15 M4.3 -0.9 Q3.65 0.65 3.5 1.55 L3.0 4.25 2.85 5.8 3.55 4.5 Q4.45 2.6 4.65 1.05 L4.85 -1.3 4.9 -2.25 4.3 -0.9 M3.4 -7.3 Q1.65 -6.8 -1.45 -4.5 -4.6 -2.2 -5.1 0.15 -5.6 2.45 -2.7 4.3 0.15 6.15 2.15 6.65 L2.35 6.5 2.35 6.45 2.5 5.2 Q2.65 3.35 3.45 0.65 4.25 -2.05 4.95 -3.1 L5.1 -4.2 Q5.5 -4.9 5.7 -4.05 L5.75 -2.25 Q4.15 7.55 2.1 7.55 L1.75 7.5 1.75 7.4 Q-0.85 6.95 -5.75 1.85 -5.75 -0.5 -3.3 -3.25 -0.65 -6.25 3.3 -7.6 L3.4 -7.3" fill="#000000" fill-rule="evenodd" stroke="none"/>
    </g>
    <g id="sprite2">
      <use ffdec:characterId="3" height="8.85" transform="matrix(1.0, 0.0, 0.0, 1.0, 0.0, 0.0)" width="7.8" xlink:href="#shape1"/>
    </g>
    <g id="shape1">
      <path d="M0.8 -2.85 L2.5 -0.65 2.7 -0.3 1.45 0.7 0.75 1.3 Q0.3 1.75 -0.05 2.35 L-0.15 2.25 -0.8 1.75 -2.4 -0.3 -1.65 -0.85 -0.65 -1.55 0.8 -2.85" fill="#fff5df" fill-rule="evenodd" stroke="none"/>
      <path d="M0.8 -2.85 L-0.65 -1.55 -2.05 -3.05 -0.4 -3.95 0.3 -3.35 0.8 -2.85" fill="#a3c0ff" fill-rule="evenodd" stroke="none"/>
      <path d="M-0.05 2.35 Q0.3 1.75 0.75 1.3 L1.45 0.7 2.65 2.2 2.5 2.35 1.55 3.4 -0.05 2.35" fill="#fe8a8a" fill-rule="evenodd" stroke="none"/>
      <path d="M1.45 0.7 L2.7 -0.3 3.35 1.2 2.65 2.2 1.45 0.7" fill="#ff4c4c" fill-rule="evenodd" stroke="none"/>
      <path d="M-0.65 -1.55 L-1.65 -0.85 -2.4 -0.3 -3.15 -2.1 -2.45 -2.75 -2.05 -3.05 -0.65 -1.55" fill="#4781ff" fill-rule="evenodd" stroke="none"/>
      <path d="M3.0 1.6 Q3.1 1.1 2.5 -0.15 1.9 -1.45 -0.5 -3.6 L-3.2 -2.15 -2.0 -0.1 Q-1.15 1.3 1.5 3.4 L3.0 1.6 M0.0 -4.3 L1.25 -3.05 Q3.0 -1.2 3.85 1.2 L3.3 2.2 2.7 3.1 1.4 4.4 0.65 3.75 Q-2.2 1.5 -3.85 -2.1 L-3.2 -3.25 -0.7 -4.45 0.0 -4.3" fill="#000000" fill-rule="evenodd" stroke="none"/>
      <path d="M1.0 -3.15 L0.5 -3.6 0.3 -3.6 0.3 -3.45 1.05 -2.3 1.3 -2.3 1.3 -2.6 1.0 -3.15 M0.55 -1.2 L1.0 -1.35 1.0 -1.8 0.85 -2.65 0.75 -2.8 -0.25 -3.95 0.0 -4.1 Q2.4 -2.7 3.25 -0.85 L3.75 0.25 3.1 -0.35 Q2.4 -0.85 2.1 -0.75 L3.6 0.7 3.8 0.5 3.8 0.45 3.9 1.05 2.8 0.1 2.0 -0.65 1.2 -0.45 Q0.3 0.05 -0.05 1.1 0.0 1.65 0.2 1.85 L0.25 1.85 0.2 2.1 0.0 1.75 0.0 1.65 -0.15 0.9 Q-0.15 0.45 0.25 0.05 L0.95 -0.85 -0.25 0.15 -0.3 0.1 -0.7 0.7 -0.8 1.3 -0.7 1.8 -2.35 -0.05 Q-3.25 -1.0 -3.65 -2.1 L-3.1 -2.25 -1.9 -0.8 Q0.05 -0.35 0.55 -1.2 M1.9 -2.2 L1.7 -2.05 2.05 -1.55 1.75 -1.2 1.4 -0.85 1.6 -0.75 2.15 -0.95 2.35 -1.3 2.2 -1.8 1.9 -2.2 M0.45 2.5 L1.7 3.75 1.2 3.7 0.15 2.85 -0.5 1.35 -0.45 1.3 Q-0.4 1.9 -0.15 1.95 0.25 2.9 1.1 3.4 L1.1 3.35 0.45 2.5 M-3.15 -2.0 L-3.25 -2.0 -3.25 -1.5 -2.35 -0.5 -1.4 0.25 -1.25 0.2 -3.15 -2.0" fill="#ffda71" fill-rule="evenodd" stroke="none"/>
      <path d="M1.9 -2.2 L2.2 -1.8 2.35 -1.3 2.15 -0.95 1.6 -0.75 1.4 -0.85 1.75 -1.2 2.05 -1.55 1.7 -2.05 1.9 -2.2 M-0.25 -3.95 L0.75 -2.8 0.85 -2.65 1.0 -1.8 1.0 -1.35 0.55 -1.2 0.65 -2.3 -0.55 -3.8 -0.25 -3.95 M-3.65 -2.1 Q-3.25 -1.0 -2.35 -0.05 L-0.7 1.8 -0.8 1.3 -0.7 0.7 -0.3 0.1 -0.25 0.15 -0.25 0.2 -0.45 1.3 -0.5 1.35 0.15 2.85 1.2 3.7 Q-0.3 3.5 -1.35 2.25 L-3.05 -0.1 Q-3.65 -1.1 -3.75 -2.1 L-3.65 -2.1 M0.25 1.85 L0.2 1.85 Q0.0 1.65 -0.05 1.1 0.3 0.05 1.2 -0.45 L2.0 -0.65 2.8 0.1 2.45 -0.2 Q1.75 -0.55 1.25 -0.2 0.7 0.05 0.25 1.85" fill="#9e7400" fill-rule="evenodd" stroke="none"/>
      <path d="M1.0 -3.15 L1.3 -2.6 1.3 -2.3 1.05 -2.3 0.3 -3.45 0.3 -3.6 0.5 -3.6 1.0 -3.15 M-0.25 0.15 L0.95 -0.85 0.25 0.05 Q-0.15 0.45 -0.15 0.9 L0.0 1.65 0.0 1.75 0.2 2.1 0.45 2.5 1.1 3.35 1.1 3.4 Q0.25 2.9 -0.15 1.95 -0.4 1.9 -0.45 1.3 L-0.25 0.2 -0.25 0.15 M3.8 0.45 L3.8 0.5 3.6 0.7 2.1 -0.75 Q2.4 -0.85 3.1 -0.35 L3.75 0.25 3.8 0.45 M-3.15 -2.0 L-1.25 0.2 -1.4 0.25 -2.35 -0.5 -3.25 -1.5 -3.25 -2.0 -3.15 -2.0" fill="#ffffff" fill-rule="evenodd" stroke="none"/>
    </g>
  </defs>
</svg>
