<?xml version="1.0" encoding="UTF-8" standalone="no"?>
<svg xmlns:ffdec="https://www.free-decompiler.com/flash" xmlns:xlink="http://www.w3.org/1999/xlink" ffdec:objectType="frame" height="46.65px" width="39.6px" xmlns="http://www.w3.org/2000/svg">
  <g transform="matrix(1.0, 0.0, 0.0, 1.0, 19.7, 64.3)">
    <use ffdec:characterId="7" height="37.4" transform="matrix(1.0, 0.0, 0.0, 1.0, 0.1, -45.6)" width="39.6" xlink:href="#sprite0"/>
    <use ffdec:characterId="2" height="21.1" transform="matrix(1.0, 0.0, 0.0, 1.0, -0.05, -28.2)" width="9.3" xlink:href="#sprite1"/>
  </g>
  <defs>
    <g id="sprite0">
      <use ffdec:characterId="6" height="37.4" transform="matrix(1.0, 0.0, 0.0, 1.0, 0.0, 0.0)" width="39.6" xlink:href="#shape0"/>
    </g>
    <g id="shape0">
      <path d="M6.0 -5.9 L17.6 -5.45 17.65 -5.4 9.4 5.5 11.9 17.15 -0.95 10.35 -12.2 16.1 -8.95 4.55 -19.05 -5.65 -9.4 -5.65 -8.2 -5.55 Q-5.45 -5.3 -4.15 -8.4 L-1.95 -13.35 -0.05 -17.25 3.05 -10.25 Q4.75 -6.55 6.0 -5.9" fill="#f8ff88" fill-rule="evenodd" stroke="none"/>
      <path d="M0.15 -16.85 L-0.15 2.1 -5.75 -5.5 -0.75 -17.05 0.15 -16.85 M-0.7 2.4 L-11.55 16.1 -12.35 15.7 -9.4 4.15 -0.7 2.4 M11.3 16.1 L0.45 2.4 9.15 4.15 12.1 15.7 11.3 16.1" fill="#ffd428" fill-rule="evenodd" stroke="none"/>
      <path d="M0.65 2.4 L0.85 2.7 3.65 6.35 6.45 9.85 Q7.4 11.45 10.15 14.15 12.4 16.4 12.4 17.05 L12.25 17.45 11.8 17.7 6.15 14.05 4.45 12.85 Q3.25 12.6 1.35 11.1 L0.25 10.2 0.1 10.15 -5.95 13.25 Q-6.9 13.7 -8.95 15.0 L-10.8 16.2 -11.3 15.95 -11.35 15.7 -5.5 8.55 -4.05 6.8 -2.6 5.0 -1.15 2.85 -1.2 2.85 -9.1 4.65 -18.15 -5.05 -17.1 -4.4 -0.45 2.1 0.25 2.05 17.8 -4.7 Q14.6 0.4 10.3 3.5 L9.65 3.95 Q3.45 3.35 0.65 2.4" fill="#b37800" fill-rule="evenodd" stroke="none"/>
      <path d="M15.3 -2.3 L13.85 -2.0 13.3 -1.7 12.65 -1.65 1.55 2.2 0.65 2.6 0.25 2.3 17.45 -4.8 17.0 -3.95 15.3 -2.3 M9.5 14.35 L0.25 6.3 -9.75 14.05 -1.3 2.7 -9.75 -0.5 -12.25 -1.2 -12.35 -1.2 -12.45 -1.2 -13.35 -1.3 Q-14.6 -1.4 -15.5 -2.15 L-16.5 -2.75 -17.3 -3.35 -18.45 -4.85 -0.5 2.2 -0.45 2.1 0.2 2.25 9.5 14.35" fill="#653000" fill-rule="evenodd" stroke="none"/>
      <path d="M-5.85 -5.8 Q-3.65 -4.65 -1.7 -6.15 -1.05 -6.65 -0.65 -7.45 L-0.1 -8.55 0.05 -3.1 -0.2 2.0 -2.9 -1.55 Q-4.25 -3.05 -5.85 -5.8" fill="#be8000" fill-rule="evenodd" stroke="none"/>
      <path d="M5.9 -5.8 Q4.3 -3.05 2.95 -1.55 1.5 0.1 0.25 2.0 L0.0 -3.1 0.15 -8.55 0.7 -7.45 Q1.1 -6.65 1.75 -6.15 3.7 -4.65 5.9 -5.8" fill="#ffd428" fill-rule="evenodd" stroke="none"/>
      <path d="M-18.1 -5.0 L-15.95 -4.4 -13.65 -3.4 -9.05 -1.65 -4.85 0.05 -2.75 0.85 -0.35 1.6 -0.2 -1.0 -0.15 -3.3 -0.15 -7.8 -0.15 -12.75 -0.2 -15.2 Q-0.2 -16.7 0.15 -17.5 L0.4 -17.25 0.4 1.7 Q1.15 1.3 2.3 0.85 L4.4 0.05 8.6 -1.65 13.2 -3.4 15.5 -4.4 17.65 -5.0 17.55 -4.65 0.55 2.15 0.5 2.15 1.55 3.25 3.0 5.15 5.9 8.7 9.05 12.7 10.7 14.65 11.9 16.6 11.55 16.65 -0.1 2.35 -12.0 16.65 -12.35 16.6 Q-12.1 15.85 -11.15 14.65 L-9.5 12.7 -6.35 8.7 -3.45 5.15 -2.0 3.25 -1.55 2.75 -1.15 2.35 -0.95 2.15 -1.0 2.15 -18.0 -4.65 -18.1 -5.0 M0.3 1.95 L0.35 2.0 0.35 1.95 0.3 1.95" fill="#fdfdfd" fill-rule="evenodd" stroke="none"/>
      <path d="M1.45 -13.9 L3.15 -9.95 Q3.15 -9.35 2.65 -9.35 L1.05 -10.7 Q0.05 -11.65 -0.2 -11.55 L-0.15 -12.1 0.0 -14.2 -0.2 -15.9 Q-0.2 -17.55 0.4 -16.35 L1.45 -13.9 M8.9 -3.85 L9.65 -4.45 9.75 -4.9 Q13.55 -6.95 17.95 -5.9 L17.85 -5.0 Q10.95 -1.85 3.6 0.3 L3.2 0.15 5.6 -1.6 8.9 -3.85 M-16.85 -5.65 L-13.1 -5.45 -12.15 -5.45 Q-11.6 -5.25 -11.6 -4.75 L-11.45 -3.95 Q-10.3 -2.85 -10.3 -2.5 -10.3 -2.05 -10.95 -2.05 -11.75 -2.05 -14.15 -3.05 -16.5 -4.05 -17.45 -4.8 -18.55 -4.85 -18.55 -5.2 L-18.15 -5.65 -16.85 -5.65" fill="#ffffff" fill-rule="evenodd" stroke="none"/>
      <path d="M-18.35 -5.3 L-8.8 4.4 -12.15 16.15 -0.25 9.95 12.1 17.0 8.85 4.15 17.7 -5.15 4.8 -5.45 0.0 -16.9 -5.35 -5.45 -18.35 -5.3 M-19.8 -5.75 L-5.95 -6.6 -0.1 -18.7 5.15 -6.5 19.8 -6.35 10.25 4.85 13.5 18.7 0.0 12.0 -13.7 18.15 -10.05 4.55 -19.8 -5.75" fill="#000000" fill-rule="evenodd" stroke="none"/>
    </g>
    <g id="sprite1">
      <use ffdec:characterId="1" height="21.1" transform="matrix(1.0, 0.0, 0.0, 1.0, 0.0, 0.0)" width="9.3" xlink:href="#shape1"/>
    </g>
    <g id="shape1">
      <path d="M-1.8 0.1 L-0.85 -4.3 0.2 -8.6 1.35 -2.7 Q1.9 0.4 1.9 3.55 1.9 5.05 1.3 6.1 0.85 7.0 -0.1 7.0 L-0.8 6.55 -1.6 5.45 -1.85 4.15 -1.8 0.1 M2.95 4.7 L3.75 7.85 Q2.7 9.55 1.85 9.7 L0.6 10.0 0.25 10.0 Q2.3 8.85 2.75 7.45 3.2 6.1 2.95 4.7 M-1.05 9.85 L-3.7 8.3 -2.9 5.6 -2.75 7.05 Q-2.55 8.15 -1.6 8.8 -1.05 9.15 -1.05 9.85" fill="#ffc628" fill-rule="evenodd" stroke="none"/>
      <path d="M1.35 -2.7 L2.9 4.45 2.9 4.5 2.95 4.7 Q3.2 6.1 2.75 7.45 2.3 8.85 0.25 10.0 L-0.05 10.05 Q-0.45 10.15 -0.6 9.8 -0.75 9.45 -1.05 9.85 -1.05 9.15 -1.6 8.8 -2.55 8.15 -2.75 7.05 L-2.9 5.6 -2.8 5.25 -2.8 5.15 -2.55 4.1 -2.55 3.95 -1.8 0.1 -1.85 4.15 -1.6 5.45 -0.8 6.55 -0.1 7.0 Q0.85 7.0 1.3 6.1 1.9 5.05 1.9 3.55 1.9 0.4 1.35 -2.7" fill="#653000" fill-rule="evenodd" stroke="none"/>
      <path d="M-4.65 8.15 L-2.1 -1.9 0.2 -10.55 4.65 7.95 Q2.3 11.4 -1.55 10.3 -3.25 9.65 -4.65 8.15 M3.35 8.15 L0.2 -7.95 -1.85 1.55 -3.25 8.25 Q-1.9 9.8 0.15 9.65 2.2 9.5 3.35 8.15" fill="#000000" fill-rule="evenodd" stroke="none"/>
      <path d="M0.6 -2.8 L0.75 -0.1 Q0.75 1.7 0.35 1.7 -0.1 1.7 -0.2 0.95 L-0.2 0.15 Q-0.2 -4.5 0.3 -5.45 L0.6 -2.8 M0.75 5.1 Q0.95 6.4 0.2 6.4 -0.25 6.4 -0.35 5.75 L-0.35 5.1 Q-0.35 3.25 0.2 2.8 0.75 3.25 0.75 5.1" fill="#ffffff" fill-rule="evenodd" stroke="none"/>
    </g>
  </defs>
</svg>
