<?xml version="1.0" encoding="UTF-8" standalone="no"?>
<svg xmlns:ffdec="https://www.free-decompiler.com/flash" xmlns:xlink="http://www.w3.org/1999/xlink" ffdec:objectType="frame" height="40.1px" width="82.35px" xmlns="http://www.w3.org/2000/svg">
  <g transform="matrix(1.0, 0.0, 0.0, 1.0, 41.1, 53.9)">
    <use ffdec:characterId="9" height="40.1" transform="matrix(1.0, 0.0, 0.0, 1.0, 0.0, -19.6)" width="82.35" xlink:href="#sprite0"/>
  </g>
  <defs>
    <g id="sprite0">
      <use ffdec:characterId="8" height="22.05" transform="matrix(1.0, 0.0, 0.0, 1.0, -9.15, 1.8)" width="33.25" xlink:href="#sprite1"/>
      <use ffdec:characterId="8" height="22.05" transform="matrix(-1.0, 0.0, 0.0, 1.0, 9.3, 1.8)" width="33.25" xlink:href="#sprite1"/>
      <use ffdec:characterId="3" height="10.2" transform="matrix(1.0, 0.0, 0.0, 1.0, -0.85, -29.05)" width="24.85" xlink:href="#sprite2"/>
    </g>
    <g id="sprite1">
      <use ffdec:characterId="7" height="22.05" transform="matrix(1.0, 0.0, 0.0, 1.0, 0.0, 0.0)" width="33.25" xlink:href="#shape0"/>
    </g>
    <g id="shape0">
      <path d="M1.3 -0.7 L1.25 -0.65 1.25 -0.7 1.3 -0.7" fill="#60ffce" fill-rule="evenodd" stroke="none"/>
      <path d="M-8.7 3.55 L-8.85 3.25 -8.85 3.2 -7.8 2.3 -7.1 1.7 Q-6.7 1.3 -6.7 0.45 L-6.9 -0.65 Q-7.25 -1.7 -8.1 -1.7 L-8.55 -1.65 -8.7 -1.85 -8.8 -1.85 -9.8 -1.7 -9.95 -1.7 -10.55 -1.65 -10.6 -1.7 -11.7 -1.45 -11.75 -1.45 -11.95 -1.15 -13.6 -1.65 -15.0 -2.1 Q-15.35 -2.25 -15.4 -3.0 L-15.4 -3.05 -15.95 -2.95 Q-16.95 -2.95 -17.55 -3.5 L-17.65 -3.6 -17.75 -4.0 -17.55 -5.05 -17.6 -5.2 -17.65 -5.2 -18.1 -5.3 Q-18.6 -5.35 -18.9 -5.65 L-19.55 -6.35 Q-20.2 -6.8 -21.35 -6.8 L-21.5 -6.85 -21.75 -6.65 -21.75 -6.6 Q-21.75 -6.25 -22.65 -6.0 L-24.4 -5.75 Q-26.5 -5.75 -28.35 -6.95 -29.85 -7.9 -29.95 -8.7 L-30.05 -8.85 -30.55 -8.7 Q-30.95 -8.4 -30.95 -7.55 -30.95 -5.9 -29.05 -4.85 L-28.55 -4.5 -28.35 -4.35 -29.4 -4.75 Q-29.9 -5.0 -30.6 -5.9 -31.3 -6.85 -31.3 -7.3 L-30.75 -8.65 -30.2 -9.35 -29.95 -9.9 -29.6 -10.15 -29.45 -10.4 -29.3 -10.4 Q-29.15 -10.8 -28.8 -10.65 L-28.35 -11.35 Q-27.95 -11.9 -27.45 -11.95 L-27.05 -11.85 -26.05 -12.5 Q-23.1 -14.3 -15.55 -17.45 L-14.5 -17.4 -14.3 -17.3 Q-13.5 -13.1 -9.2 -6.9 L-9.1 -6.75 -8.95 -6.55 -8.8 -6.3 -8.55 -6.0 -7.75 -5.4 -5.7 -3.15 -5.45 -3.0 Q-4.95 -3.0 -4.35 -2.65 L-4.1 -2.2 -3.65 -1.2 -3.65 -1.15 Q-3.65 -0.45 -4.0 0.2 L-4.2 0.45 -4.65 1.4 -5.0 2.2 Q-5.35 2.95 -5.85 3.05 L-6.25 3.3 -6.35 3.35 Q-6.7 3.75 -7.4 3.8 L-8.1 3.75 -8.7 3.55 M-21.1 -12.35 L-20.7 -12.25 -19.0 -11.7 -17.4 -11.0 Q-16.35 -10.55 -16.15 -10.55 -15.4 -10.55 -15.4 -11.25 L-15.6 -12.95 -16.1 -13.6 -16.95 -14.15 -17.0 -14.2 -18.9 -13.95 Q-19.35 -13.6 -20.35 -12.9 L-21.1 -12.35" fill="#feffe4" fill-rule="evenodd" stroke="none"/>
      <path d="M-28.35 -4.35 L-28.55 -4.5 -29.05 -4.85 Q-30.95 -5.9 -30.95 -7.55 -30.95 -8.4 -30.55 -8.7 L-30.05 -8.85 -29.95 -8.7 Q-29.85 -7.9 -28.35 -6.95 -26.5 -5.75 -24.4 -5.75 L-22.65 -6.0 Q-21.75 -6.25 -21.75 -6.6 L-21.75 -6.65 -21.5 -6.85 -21.35 -6.8 Q-20.2 -6.8 -19.55 -6.35 L-18.9 -5.65 Q-18.6 -5.35 -18.1 -5.3 L-17.65 -5.2 -17.6 -5.2 -17.55 -5.05 -17.75 -4.0 -17.65 -3.6 -17.55 -3.5 Q-16.95 -2.95 -15.95 -2.95 L-15.4 -3.05 -15.4 -3.0 Q-15.35 -2.25 -15.0 -2.1 L-13.6 -1.65 -11.95 -1.15 -11.75 -1.45 -11.7 -1.45 -10.6 -1.7 -10.55 -1.65 -9.95 -1.7 -9.8 -1.7 -8.8 -1.85 -8.7 -1.85 -8.55 -1.65 -8.1 -1.7 Q-7.25 -1.7 -6.9 -0.65 L-6.7 0.45 Q-6.7 1.3 -7.1 1.7 L-7.8 2.3 -8.85 3.2 -8.85 3.25 -8.7 3.55 -9.75 3.2 -9.95 3.45 -10.45 3.2 -11.25 2.7 -11.8 2.2 -12.3 1.6 -12.6 1.0 Q-12.7 0.55 -13.05 0.4 L-13.35 0.5 -13.5 0.35 -13.65 0.3 -13.7 0.35 Q-14.35 0.35 -15.8 1.3 L-16.35 1.45 -16.4 1.45 -16.65 1.4 -16.8 1.35 -18.05 1.55 -18.4 1.55 -19.05 1.65 -19.8 1.5 -19.75 1.35 -19.85 1.1 -20.15 1.0 -20.2 0.9 -20.25 0.7 -20.45 0.55 -21.0 -0.2 -21.25 -0.9 Q-21.05 -1.1 -21.0 -1.55 L-20.95 -2.25 -20.95 -2.4 -20.5 -3.5 -22.65 -3.5 -22.6 -3.4 Q-22.6 -2.8 -24.6 -2.8 -26.2 -2.8 -28.35 -4.35 M-21.1 -12.35 L-20.35 -12.9 Q-19.35 -13.6 -18.9 -13.95 L-17.0 -14.2 -16.95 -14.15 -16.1 -13.6 -15.6 -12.95 -15.4 -11.25 Q-15.4 -10.55 -16.15 -10.55 -16.35 -10.55 -17.4 -11.0 L-19.0 -11.7 -20.7 -12.25 -21.1 -12.35" fill="#bfbfbf" fill-rule="evenodd" stroke="none"/>
      <path d="M-31.6 -8.95 Q-30.9 -11.4 -25.55 -14.05 L-18.9 -17.4 -18.6 -17.5 -18.4 -17.55 -15.6 -18.05 -14.55 -17.8 Q-13.8 -17.45 -13.55 -16.9 L-12.8 -15.3 -11.35 -12.1 -9.7 -9.45 -9.55 -9.2 -8.55 -7.75 -7.45 -6.5 -6.8 -5.95 -6.45 -5.55 -4.95 -4.0 -3.75 -2.5 -3.6 -2.25 -3.55 -2.05 -3.5 -1.95 -3.3 -0.8 -3.5 0.3 -3.6 0.6 -3.65 0.8 -3.7 0.9 -4.05 1.75 -4.4 2.25 -4.85 2.7 Q-5.85 3.75 -7.1 4.0 L-8.4 4.0 Q-11.1 3.8 -12.15 2.6 L-13.35 0.95 -13.8 1.2 Q-14.95 1.85 -15.95 2.0 L-17.3 2.35 Q-18.8 2.55 -20.45 1.5 -21.4 0.95 -21.65 -0.25 -21.85 -1.5 -21.2 -2.95 L-28.05 -2.65 Q-30.6 -3.75 -31.5 -5.15 -32.35 -6.45 -31.6 -8.95 M-20.3 -7.9 Q-20.25 -7.35 -19.8 -7.05 L-19.5 -6.75 Q-18.6 -6.1 -16.7 -6.1 L-16.15 -6.2 -15.8 -6.15 -16.35 -5.65 Q-16.9 -4.95 -16.9 -4.35 L-16.65 -3.55 -15.55 -3.15 -14.4 -3.25 -13.85 -3.3 -14.0 -2.8 -13.9 -2.15 Q-13.55 -1.55 -12.3 -1.55 L-12.25 -1.55 -11.8 -1.9 -11.1 -2.3 -10.85 -2.4 -10.75 -2.4 -9.25 -2.6 Q-8.2 -2.6 -7.5 -1.9 -6.8 -1.25 -6.8 -0.45 -6.8 0.2 -7.15 0.75 L-8.15 1.55 -8.95 1.7 -9.3 1.65 -9.1 1.45 -8.2 0.75 -8.15 0.7 -7.95 0.4 -7.8 0.15 -7.75 -0.2 -7.75 -0.3 -7.75 -0.35 -7.8 -0.7 -7.9 -0.9 -8.15 -1.2 -8.45 -1.45 -9.6 -1.75 -10.55 -1.55 -11.4 -0.6 -11.75 0.65 Q-11.75 1.9 -9.8 2.65 L-9.05 2.85 -6.6 2.6 -5.75 2.1 -5.2 1.55 -5.05 1.4 -4.7 0.95 -4.5 0.65 Q-4.35 0.25 -4.35 -0.45 -4.35 -1.05 -4.7 -1.7 L-5.6 -2.95 -7.55 -4.85 -8.55 -6.1 -9.4 -7.15 -9.65 -7.7 -9.75 -7.7 -12.15 -11.7 -13.25 -13.65 -13.6 -14.45 -14.25 -15.35 -14.45 -15.55 -15.05 -16.4 -15.45 -16.6 -16.35 -16.8 -16.95 -16.75 -17.15 -16.8 -17.9 -16.45 -18.4 -16.35 -19.15 -15.9 Q-23.9 -13.85 -26.05 -12.5 -30.8 -9.8 -30.45 -7.45 -30.1 -5.15 -27.4 -4.3 L-22.6 -3.9 Q-20.5 -4.3 -19.9 -4.65 L-19.45 -4.95 -19.05 -5.15 Q-22.15 -5.8 -22.15 -7.5 -22.15 -9.2 -19.8 -10.05 L-16.9 -10.15 -17.2 -10.15 -17.5 -10.15 -17.65 -10.15 -17.95 -10.1 -18.3 -10.05 -19.05 -9.8 Q-20.3 -9.3 -20.3 -8.0 L-20.3 -7.9 M-21.6 -12.3 L-21.1 -12.6 -19.8 -13.45 Q-19.65 -13.55 -18.6 -14.5 L-18.05 -14.9 -17.85 -14.95 -17.55 -14.95 -16.25 -14.6 -15.95 -13.7 -15.25 -12.2 -14.85 -11.3 -14.9 -11.25 Q-14.95 -11.05 -15.25 -11.05 L-16.25 -12.3 Q-17.25 -13.55 -17.75 -13.55 -18.7 -13.55 -19.75 -12.85 -20.75 -12.2 -21.3 -12.2 L-21.6 -12.3 M-20.5 -1.15 L-20.45 -0.9 Q-20.45 -0.35 -19.95 0.1 L-19.7 0.3 -19.65 0.35 -19.6 0.35 -18.45 0.8 Q-17.75 1.0 -16.4 0.8 L-14.55 0.35 -14.0 0.1 -13.4 -0.1 -13.1 -0.25 -12.85 -0.35 -12.85 -0.4 Q-13.75 -0.5 -14.4 -1.2 -14.95 -1.75 -15.1 -2.25 -16.9 -2.05 -17.6 -2.6 L-17.95 -3.25 -17.65 -4.85 -17.6 -4.9 -18.45 -5.0 -18.5 -4.95 -18.8 -4.55 -18.8 -4.5 -19.8 -3.25 Q-20.5 -2.05 -20.5 -1.15" fill="#0e3257" fill-rule="evenodd" stroke="none"/>
    </g>
    <g id="sprite2">
      <use ffdec:characterId="2" height="10.2" transform="matrix(1.0, 0.0, 0.0, 1.0, 0.0, 0.0)" width="24.85" xlink:href="#shape1"/>
    </g>
    <g id="shape1">
      <path d="M0.55 -2.75 L-0.15 -2.7 -0.2 -2.7 -0.55 -2.65 -0.65 -2.65 -0.75 -2.65 -1.0 -2.6 -1.05 -2.6 -1.6 -2.5 -1.85 -2.5 -4.7 -1.95 -6.85 -1.1 Q-4.65 -0.3 -2.3 -0.2 L3.55 -0.2 Q5.9 -0.3 7.95 -1.25 3.95 -2.8 2.2 -2.8 L1.3 -2.75 0.55 -2.75 M3.3 -3.15 L6.3 -2.45 7.85 -1.9 8.45 -1.55 9.4 -2.1 9.3 -2.0 9.05 -1.35 8.8 -0.9 Q7.35 0.45 5.1 0.7 L-0.85 1.05 Q-4.05 1.1 -5.95 0.3 L-6.95 -0.15 -7.55 -0.65 -8.3 -1.7 -8.4 -2.25 -7.65 -1.4 -4.8 -2.4 -4.75 -2.4 Q-2.45 -3.3 0.15 -3.3 L0.5 -3.25 2.2 -3.3 3.3 -3.15 M0.2 -2.65 L-0.45 -2.65 0.25 -2.7 0.2 -2.65" fill="#ff9900" fill-rule="evenodd" stroke="none"/>
      <path d="M3.3 -3.15 L2.2 -3.3 0.5 -3.25 0.15 -3.3 Q-2.45 -3.3 -4.75 -2.4 L-4.8 -2.4 -7.65 -1.4 -8.4 -2.25 -8.3 -1.7 -7.55 -0.65 -6.95 -0.15 -5.95 0.3 Q-4.05 1.1 -0.85 1.05 L5.1 0.7 Q7.35 0.45 8.8 -0.9 L9.05 -1.35 9.3 -2.0 9.4 -2.1 8.45 -1.55 7.85 -1.9 6.3 -2.45 3.3 -3.15 M10.05 -1.0 L9.55 -0.65 9.25 -0.5 Q8.85 0.05 8.5 0.05 L8.3 -0.1 7.95 0.05 7.75 0.0 7.0 0.3 6.3 0.55 5.0 0.85 0.85 1.4 -1.1 1.4 -4.9 0.85 -6.25 0.25 -6.8 0.0 Q-5.95 0.75 -5.95 1.0 L-6.0 1.15 -6.2 1.2 Q-6.55 1.2 -7.3 0.5 L-8.15 -0.35 -8.3 -0.5 -8.55 -0.6 -8.8 -0.25 Q-8.8 0.8 -6.35 1.6 L-3.35 2.35 -1.05 2.35 0.5 2.5 Q2.7 2.5 6.0 1.4 L7.45 1.15 10.35 -0.6 Q10.35 -1.1 10.05 -1.0 M0.35 -5.0 Q5.0 -5.05 8.5 -3.85 11.2 -2.9 11.85 -1.65 L12.0 -0.9 Q12.0 0.9 8.45 2.4 4.9 3.85 -0.05 3.9 -5.0 3.95 -8.5 2.45 -12.0 0.9 -12.0 -0.9 L-11.9 -1.35 Q-11.45 -2.8 -8.15 -3.8 -4.3 -4.95 0.35 -5.0 M-9.25 -2.0 L-9.55 -2.1 Q-10.1 -2.1 -10.1 -1.5 -10.05 -0.8 -9.4 -0.8 -8.95 -0.8 -8.95 -1.25 L-9.25 -1.95 -9.25 -2.0" fill="#ffffcc" fill-rule="evenodd" stroke="none"/>
      <path d="M10.05 -1.0 Q10.35 -1.1 10.35 -0.6 L7.45 1.15 6.0 1.4 Q2.7 2.5 0.5 2.5 L-1.05 2.35 -3.35 2.35 -6.35 1.6 Q-8.8 0.8 -8.8 -0.25 L-8.55 -0.6 -8.3 -0.5 -8.15 -0.35 -7.3 0.5 Q-6.55 1.2 -6.2 1.2 L-6.0 1.15 -5.95 1.0 Q-5.95 0.75 -6.8 0.0 L-6.25 0.25 -4.9 0.85 -1.1 1.4 0.85 1.4 5.0 0.85 6.3 0.55 7.0 0.3 7.75 0.0 7.95 0.05 8.3 -0.1 8.5 0.05 Q8.85 0.05 9.25 -0.5 L9.55 -0.65 10.05 -1.0 M-9.25 -2.0 L-9.25 -1.95 -8.95 -1.25 Q-8.95 -0.8 -9.4 -0.8 -10.05 -0.8 -10.1 -1.5 -10.1 -2.1 -9.55 -2.1 L-9.25 -2.0" fill="#ffffff" fill-rule="evenodd" stroke="none"/>
      <path d="M0.35 -5.0 Q-4.3 -4.95 -8.15 -3.8 -11.45 -2.8 -11.9 -1.35 L-12.0 -0.9 Q-12.0 0.9 -8.5 2.45 -5.0 3.95 -0.05 3.9 4.9 3.85 8.45 2.4 12.0 0.9 12.0 -0.9 L11.85 -1.65 Q11.2 -2.9 8.5 -3.85 5.0 -5.05 0.35 -5.0 Z" ffdec:has-small-stroke="true" ffdec:original-stroke-width="0.5" fill="none" stroke="#ff9900" stroke-linecap="round" stroke-linejoin="round" stroke-width="1.0"/>
      <path d="M12.15 -1.4 Q13.25 0.9 9.4 2.65 5.95 4.2 3.15 4.45 L2.8 4.55 1.05 4.8 -0.35 4.95 -1.65 4.9 -2.2 4.8 -2.25 4.8 -2.35 4.8 -2.65 4.75 -6.15 4.15 -6.65 4.0 -6.8 3.95 -9.45 2.9 Q-13.3 1.15 -12.2 -1.15 L-12.2 -1.1 Q-12.1 0.5 -10.85 1.25 L-9.1 2.3 -7.45 2.95 -7.05 3.1 Q-5.5 3.05 -5.2 3.6 L-4.3 3.65 -2.85 3.85 -0.45 3.85 0.1 3.9 0.6 3.85 1.2 3.85 2.15 3.65 2.75 3.7 Q4.2 3.7 6.25 3.1 L7.4 2.7 9.05 2.05 10.8 1.0 Q12.05 0.25 12.15 -1.35 L12.15 -1.4" fill="#ff9900" fill-rule="evenodd" stroke="none"/>
    </g>
  </defs>
</svg>
