<?xml version="1.0" encoding="UTF-8" standalone="no"?>
<svg xmlns:ffdec="https://www.free-decompiler.com/flash" xmlns:xlink="http://www.w3.org/1999/xlink" ffdec:objectType="frame" height="29.15px" width="22.65px" xmlns="http://www.w3.org/2000/svg">
  <g transform="matrix(1.0, 0.0, 0.0, 1.0, -5.1, 26.9)">
    <use ffdec:characterId="11" height="29.15" transform="matrix(1.0, 0.0, 0.0, 1.0, 16.4, -12.3)" width="22.65" xlink:href="#sprite0"/>
  </g>
  <defs>
    <g id="sprite0">
      <use ffdec:characterId="2" height="5.15" transform="matrix(0.6215, 0.0, 0.0, 0.6215, 5.3, 7.75)" width="8.85" xlink:href="#sprite1"/>
      <use ffdec:characterId="4" height="16.85" transform="matrix(0.3861, 0.6169, -0.6169, 0.3861, 2.4, 1.0)" width="16.45" xlink:href="#sprite2"/>
      <use ffdec:characterId="6" height="5.2" transform="matrix(0.3269, 0.6611, -0.6611, 0.3269, 4.6, -0.55)" width="1.8" xlink:href="#sprite3"/>
      <use ffdec:characterId="6" height="5.2" transform="matrix(0.6786, -0.2889, 0.2889, 0.6786, 1.55, -0.75)" width="1.8" xlink:href="#sprite3"/>
      <use ffdec:characterId="6" height="5.2" transform="matrix(-0.0854, -0.6024, 0.6365, -0.0471, 0.3, 2.1)" width="1.8" xlink:href="#sprite3"/>
      <use ffdec:characterId="6" height="5.2" transform="matrix(-0.5259, 0.5171, -0.5171, -0.5259, 5.1, 2.15)" width="1.8" xlink:href="#sprite3"/>
      <use ffdec:characterId="6" height="5.2" transform="matrix(-0.7367, -0.2283, 0.1805, -0.5825, 2.95, 4.25)" width="1.8" xlink:href="#sprite3"/>
      <use ffdec:characterId="4" height="16.85" transform="matrix(0.9737, 0.0, 0.0, 0.9737, -4.35, -6.15)" width="16.45" xlink:href="#sprite2"/>
      <use ffdec:characterId="2" height="5.15" transform="matrix(0.5139, 0.0, 0.0, 0.5139, 5.4, 10.05)" width="8.85" xlink:href="#sprite1"/>
      <use ffdec:characterId="2" height="5.15" transform="matrix(0.4249, 0.0, 0.0, 0.4249, 5.45, 11.95)" width="8.85" xlink:href="#sprite1"/>
      <use ffdec:characterId="2" height="5.15" transform="matrix(0.3599, 0.0, 0.0, 0.3599, 5.5, 13.65)" width="8.85" xlink:href="#sprite1"/>
      <use ffdec:characterId="6" height="5.2" transform="matrix(1.0, 0.0, 0.0, 1.0, -4.5, -9.65)" width="1.8" xlink:href="#sprite3"/>
      <use ffdec:characterId="6" height="5.2" transform="matrix(0.0567, -0.9984, 0.9984, 0.0567, -6.95, -5.6)" width="1.8" xlink:href="#sprite3"/>
      <use ffdec:characterId="6" height="5.2" transform="matrix(-0.7834, -0.2582, 0.3253, -0.8019, -4.2, -2.3)" width="1.8" xlink:href="#sprite3"/>
      <use ffdec:characterId="6" height="5.2" transform="matrix(0.3124, 0.9499, -0.9499, 0.3124, -0.6, -8.25)" width="1.8" xlink:href="#sprite3"/>
      <use ffdec:characterId="6" height="5.2" transform="matrix(-0.7203, 0.7581, -0.5995, -0.5695, 0.0, -4.25)" width="1.8" xlink:href="#sprite3"/>
      <use ffdec:characterId="8" height="0.9" transform="matrix(1.0, 0.0, 0.0, 1.0, -8.6, -9.35)" width="1.9" xlink:href="#sprite4"/>
      <use ffdec:characterId="8" height="0.9" transform="matrix(-0.4789, 0.3253, 0.3746, 0.5515, -1.35, -11.9)" width="1.9" xlink:href="#sprite4"/>
      <use ffdec:characterId="8" height="0.9" transform="matrix(0.0924, 0.5715, 0.6581, -0.1064, -6.0, -10.5)" width="1.9" xlink:href="#sprite4"/>
      <use ffdec:characterId="8" height="0.9" transform="matrix(0.3601, -0.5188, 0.6389, 0.4435, -7.95, -1.85)" width="1.9" xlink:href="#sprite4"/>
      <use ffdec:characterId="8" height="0.9" transform="matrix(0.4004, -0.4182, 0.4514, 0.4323, 4.25, 8.05)" width="1.9" xlink:href="#sprite4"/>
      <use ffdec:characterId="8" height="0.9" transform="matrix(0.4004, -0.4182, 0.4514, 0.4323, 4.5, 10.25)" width="1.9" xlink:href="#sprite4"/>
      <use ffdec:characterId="8" height="0.9" transform="matrix(0.4004, -0.4182, 0.4514, 0.4323, 4.8, 12.2)" width="1.9" xlink:href="#sprite4"/>
      <use ffdec:characterId="8" height="0.9" transform="matrix(0.4004, -0.4182, 0.4514, 0.4323, 5.0, 13.95)" width="1.9" xlink:href="#sprite4"/>
    </g>
    <g id="sprite1">
      <use ffdec:characterId="1" height="5.15" transform="matrix(1.0, 0.0, 0.0, 1.0, 0.0, 0.0)" width="8.85" xlink:href="#shape0"/>
    </g>
    <g id="shape0">
      <path d="M-1.85 2.4 L-2.35 2.45 -3.4 2.15 -3.85 1.7 -2.0 -0.1 -1.85 -0.25 -0.6 0.05 Q-1.0 1.6 -1.85 2.4" fill="#ffe109" fill-rule="evenodd" stroke="none"/>
      <path d="M-1.85 -0.25 Q-0.45 -1.9 0.1 -1.9 L0.55 -1.75 1.0 -1.5 1.8 -0.9 2.35 -0.5 2.6 -0.3 4.05 1.1 Q4.05 1.3 2.5 1.75 L2.45 1.75 Q1.4 1.75 1.15 1.4 L0.35 1.0 0.3 1.0 -0.5 1.75 Q-1.1 2.3 -1.85 2.4 -1.0 1.6 -0.6 0.05 L-1.85 -0.25" fill="#c99f34" fill-rule="evenodd" stroke="none"/>
      <path d="M-0.55 1.8 L-4.4 1.9 -0.2 -2.55 4.45 1.1 Q3.55 1.9 2.6 2.1 1.6 2.3 0.0 1.3 L-0.55 1.8 M-0.25 -1.85 L-0.85 -1.25 -1.95 0.0 -3.75 1.7 Q-2.8 2.45 -1.05 1.7 -0.15 1.15 0.0 0.45 0.35 1.55 2.6 1.75 L3.95 1.15 Q2.1 -0.55 -0.25 -1.85" fill="#000000" fill-rule="evenodd" stroke="none"/>
    </g>
    <g id="sprite2">
      <use ffdec:characterId="3" height="16.85" transform="matrix(1.0, 0.0, 0.0, 1.0, 0.0, 0.0)" width="16.45" xlink:href="#shape1"/>
    </g>
    <g id="shape1">
      <path d="M7.55 -1.45 L7.75 -1.25 8.3 -1.15 8.85 -0.65 9.0 -0.3 7.4 0.6 7.2 0.65 6.9 0.0 6.8 -0.7 6.9 -0.8 6.95 -0.9 7.55 -1.45 M2.0 5.5 L2.25 5.0 2.7 4.85 4.3 5.05 4.45 5.15 4.8 5.3 4.9 5.6 Q5.0 6.4 4.25 7.7 L2.75 6.85 Q2.1 6.3 2.0 5.5 M-3.5 -4.3 L-3.4 -3.05 -5.3 -2.75 -5.75 -2.55 -6.0 -3.2 -6.05 -3.9 -4.05 -4.35 -3.5 -4.3 M-2.0 4.7 Q-2.6 5.55 -4.05 5.75 L-4.8 5.7 -4.9 5.2 Q-4.85 4.35 -4.3 3.75 L-2.6 3.75 -2.0 4.7" fill="#f3f4f4" fill-rule="evenodd" stroke="none"/>
      <path d="M4.25 -5.95 L4.1 -5.6 4.0 -5.3 3.65 -4.45 3.2 -4.05 2.4 -3.65 1.7 -3.35 1.35 -4.25 1.6 -4.85 2.2 -5.7 2.4 -5.35 2.45 -5.3 Q3.05 -4.9 3.4 -5.4 3.7 -5.95 3.95 -5.95 L4.25 -5.95 M7.2 0.65 L6.3 0.55 6.1 0.5 5.85 0.45 4.55 -0.05 3.9 -0.35 Q5.9 -0.55 7.0 -1.85 L7.25 -1.5 7.55 -1.45 6.95 -0.9 6.9 -0.8 6.8 -0.7 6.9 0.0 7.2 0.65 M4.8 5.3 L4.45 5.15 4.3 5.05 2.7 4.85 2.25 5.0 2.0 5.5 Q1.85 4.85 2.1 4.05 L2.2 3.6 2.6 3.4 3.6 3.95 Q4.55 4.55 4.8 5.3 M-5.75 -2.55 L-5.3 -2.75 -3.4 -3.05 -3.5 -4.3 -2.65 -4.05 -2.0 -2.0 Q-4.0 -1.15 -5.75 -2.55 M-4.3 3.75 Q-3.5 2.8 -1.3 2.1 -1.35 3.85 -2.0 4.7 L-2.6 3.75 -4.3 3.75" fill="#c6d0dc" fill-rule="evenodd" stroke="none"/>
      <path d="M2.2 -5.7 L2.65 -6.5 3.75 -7.2 4.55 -7.45 4.4 -6.05 4.25 -5.95 3.95 -5.95 Q3.7 -5.95 3.4 -5.4 3.05 -4.9 2.45 -5.3 L2.4 -5.35 2.2 -5.7" fill="#f4f3f3" fill-rule="evenodd" stroke="none"/>
      <path d="M1.5 -6.35 L1.7 -6.25 1.85 -5.5 1.7 -4.75 -2.4 -4.1 -2.5 -4.95 -2.5 -5.35 Q-0.4 -6.7 1.5 -6.35 M1.7 -4.45 L1.65 -3.9 1.55 -3.25 2.5 -4.2 Q4.25 -3.35 5.45 -1.8 5.85 -1.3 5.7 -0.8 L4.05 -0.3 Q4.65 0.1 6.2 0.5 L5.75 1.9 Q4.9 3.65 2.75 4.05 L2.0 3.0 1.9 2.9 1.95 3.75 2.0 4.1 Q0.3 4.2 -1.2 3.25 L-1.7 2.9 -1.55 2.7 -1.35 2.15 -2.05 2.6 Q-3.0 1.6 -3.3 0.1 -3.45 -0.95 -3.1 -1.8 L-1.9 -1.85 -1.7 -1.85 Q-2.15 -2.15 -2.25 -3.05 L-1.75 -3.5 Q-0.1 -4.7 1.7 -4.45 M3.15 -4.65 L4.0 -5.1 4.15 -5.15 4.3 -5.2 Q5.7 -4.4 6.5 -3.1 L6.9 -2.5 7.05 -1.95 7.0 -1.85 6.5 -1.3 5.5 -2.5 Q4.6 -3.9 3.15 -4.65 M7.2 0.9 L7.65 1.4 7.8 1.55 7.9 1.7 Q7.65 2.85 6.85 3.85 L5.4 5.1 5.35 5.1 4.65 5.05 3.9 4.8 4.2 4.55 Q5.75 3.5 6.8 1.75 L7.2 0.9 M2.15 5.2 L2.15 5.3 0.1 5.7 Q-1.65 5.8 -2.5 4.75 L-2.45 4.55 -2.4 4.4 -2.05 3.6 Q-0.4 4.85 1.5 5.0 L2.05 5.1 2.15 5.2 M-2.75 3.0 L-3.45 3.3 Q-4.6 2.9 -5.2 1.7 -5.9 0.25 -5.65 -1.2 L-5.6 -1.2 -5.2 -1.35 -4.65 -1.55 Q-5.0 -0.05 -4.1 1.4 L-2.75 3.0 M3.9 -0.8 Q2.65 -2.95 0.45 -2.4 L-0.4 -1.75 Q-1.15 -1.35 -1.0 -0.05 L-1.0 0.1 Q-0.2 1.8 1.6 1.6 3.7 1.35 3.9 -0.65 L3.9 -0.8" fill="#ff0000" fill-rule="evenodd" stroke="none"/>
      <path d="M-2.4 -4.1 L1.7 -4.75 1.7 -4.45 Q-0.1 -4.7 -1.75 -3.5 L-2.25 -3.05 -2.4 -4.1 M2.5 -4.2 L2.9 -4.5 3.15 -4.65 Q4.6 -3.9 5.5 -2.5 L6.5 -1.3 6.2 -1.05 Q6.0 -0.85 5.7 -0.8 5.85 -1.3 5.45 -1.8 4.25 -3.35 2.5 -4.2 M6.2 0.5 L6.65 0.6 7.2 0.9 6.8 1.75 Q5.75 3.5 4.2 4.55 L3.9 4.8 2.75 4.05 Q4.9 3.65 5.75 1.9 L6.2 0.5 M2.0 4.1 L2.15 5.2 2.05 5.1 1.5 5.0 Q-0.4 4.85 -2.05 3.6 L-1.7 2.9 -1.2 3.25 Q0.3 4.2 2.0 4.1 M-2.05 2.6 L-2.35 2.75 -2.75 3.0 -4.1 1.4 Q-5.0 -0.05 -4.65 -1.55 L-4.5 -1.6 -3.1 -1.8 Q-3.45 -0.95 -3.3 0.1 -3.0 1.6 -2.05 2.6" fill="#f87979" fill-rule="evenodd" stroke="none"/>
      <path d="M1.5 -6.35 Q-0.4 -6.7 -2.5 -5.35 L-2.5 -5.95 -1.8 -7.3 -1.15 -8.1 -0.4 -8.35 Q0.55 -8.25 0.9 -7.5 L1.5 -6.35 M4.3 -5.2 L4.85 -5.3 4.95 -5.3 Q7.1 -5.25 7.15 -3.3 L7.1 -2.05 6.9 -2.5 6.5 -3.1 Q5.7 -4.4 4.3 -5.2 M7.9 1.7 L7.95 1.85 Q8.55 3.2 8.05 4.2 L7.25 4.45 Q6.75 4.8 6.25 4.95 L5.7 5.1 5.4 5.1 6.85 3.85 Q7.65 2.85 7.9 1.7 M2.15 5.3 L2.15 5.55 2.15 5.95 2.15 6.05 1.75 7.15 1.5 7.4 Q0.75 7.9 -1.55 7.95 L-2.45 7.7 -2.8 6.8 -2.85 6.25 -2.7 5.35 -2.5 4.75 Q-1.65 5.8 0.1 5.7 L2.15 5.3 M-3.45 3.3 L-3.7 3.4 -4.4 3.55 -4.6 3.55 -4.75 3.55 -4.95 3.55 -5.9 3.35 -6.4 3.1 -6.85 2.2 -7.05 0.95 -7.05 0.85 -6.85 0.05 -6.35 -0.7 -5.65 -1.2 Q-5.9 0.25 -5.2 1.7 -4.6 2.9 -3.45 3.3 M3.9 -0.8 L3.9 -0.65 Q3.7 1.35 1.6 1.6 -0.2 1.8 -1.0 0.1 L-1.0 -0.05 Q-1.15 -1.35 -0.4 -1.75 L0.45 -2.4 Q2.65 -2.95 3.9 -0.8" fill="#8b0000" fill-rule="evenodd" stroke="none"/>
      <path d="M4.55 -6.6 L4.15 -5.25 5.85 -5.15 7.2 -4.95 7.2 -3.4 7.2 -1.7 8.5 -1.1 9.3 -0.1 7.05 0.8 Q8.45 1.55 8.55 2.75 L8.4 4.4 6.1 5.0 5.2 5.35 Q4.95 5.7 5.0 6.15 L4.3 8.0 2.4 6.7 Q1.3 7.8 -0.3 8.1 L-1.9 8.0 -2.75 7.4 -3.05 6.85 -3.15 6.45 -3.15 5.7 -3.15 5.65 -3.6 5.85 -5.4 6.2 -5.1 5.45 -4.7 4.25 -4.4 3.7 -6.2 3.55 Q-7.1 2.7 -7.15 1.3 -7.2 -0.15 -6.7 -0.85 -6.25 -1.55 -4.85 -1.7 L-5.8 -2.55 Q-6.2 -2.9 -6.4 -4.05 L-4.8 -4.3 -2.8 -4.45 Q-2.9 -6.0 -2.05 -7.2 -1.1 -8.45 -0.25 -8.7 L1.55 -6.9 2.0 -6.1 2.6 -6.6 3.95 -7.35 4.65 -7.8 4.55 -6.6 M3.85 -5.3 Q4.3 -5.8 4.35 -7.25 3.05 -7.1 2.15 -5.7 L1.8 -3.9 Q2.55 -4.95 3.15 -5.05 L3.85 -5.3 M4.6 -0.55 Q5.4 -0.65 6.05 -1.2 L6.65 -1.85 6.75 -2.75 6.75 -4.7 5.35 -4.85 Q2.45 -5.0 1.35 -2.5 L1.7 -5.75 Q0.4 -8.7 -0.65 -8.1 -1.7 -7.5 -2.15 -6.4 -2.6 -5.3 -2.25 -3.7 -1.95 -2.1 -1.25 -1.2 -1.9 -1.9 -4.15 -1.75 -6.4 -1.6 -6.75 0.15 -7.1 1.85 -6.2 3.05 L-3.6 3.25 -1.3 2.15 -0.6 1.55 Q-2.5 3.6 -2.7 5.4 -2.9 7.2 -2.3 7.5 L-0.9 7.75 1.15 7.25 Q2.35 6.75 2.15 4.95 1.9 3.1 1.2 1.3 L2.15 3.05 Q2.85 4.3 3.8 4.65 L5.0 4.95 6.1 4.65 7.95 4.15 Q8.55 2.5 7.5 1.5 6.4 0.5 5.15 0.2 L2.75 -0.3 3.45 -0.4 4.6 -0.55 M5.9 -0.75 Q5.4 -0.4 4.05 -0.3 L5.7 0.15 6.7 0.45 Q7.8 0.5 8.85 -0.35 8.5 -0.95 6.85 -1.55 L5.9 -0.75 M2.35 4.1 L2.5 6.35 4.1 7.6 Q4.8 6.9 4.65 5.3 L2.35 4.1 M-2.1 -2.0 L-2.7 -3.9 Q-4.25 -4.55 -5.95 -3.85 -6.25 -2.6 -4.35 -1.95 L-2.1 -2.0 M-4.45 5.25 Q-3.75 5.65 -2.7 4.75 L-1.95 2.75 -3.75 3.5 Q-4.75 4.45 -4.45 5.25" fill="#000000" fill-rule="evenodd" stroke="none"/>
    </g>
    <g id="sprite3">
      <use ffdec:characterId="5" height="5.2" transform="matrix(1.0, 0.0, 0.0, 1.0, 0.0, 0.0)" width="1.8" xlink:href="#shape2"/>
    </g>
    <g id="shape2">
      <path d="M0.75 -0.15 L0.8 0.65 0.55 2.2 -0.55 0.2 Q-0.55 -2.2 0.75 -0.15" fill="#dddde6" fill-rule="evenodd" stroke="none"/>
      <path d="M-0.55 0.2 Q-0.8 -0.25 -0.85 -1.55 L-0.5 -2.4 Q0.4 -2.4 0.75 -0.15 -0.55 -2.2 -0.55 0.2" fill="#8ea0b2" fill-rule="evenodd" stroke="none"/>
      <path d="M-0.75 -1.25 L-0.4 0.25 0.5 1.85 0.55 -0.9 Q0.4 -1.65 -0.35 -2.3 -0.75 -1.9 -0.75 -1.25 M-0.9 -1.5 L-0.85 -1.85 -0.75 -2.25 -0.6 -2.45 -0.4 -2.6 0.1 -2.2 Q0.7 -1.3 0.8 -0.1 L0.9 1.3 0.85 1.65 0.7 2.55 0.7 2.6 0.15 1.6 -0.35 0.6 -0.7 -0.35 -0.9 -1.5" fill="#0f1f06" fill-rule="evenodd" stroke="none"/>
    </g>
    <g id="sprite4">
      <use ffdec:characterId="7" height="0.9" transform="matrix(1.0, 0.0, 0.0, 1.0, 0.0, 0.0)" width="1.9" xlink:href="#shape3"/>
    </g>
    <g id="shape3">
      <path d="M0.95 0.35 L0.9 0.45 -0.55 0.0 Q-0.95 -0.05 -0.95 -0.3 L-0.25 -0.45 Q0.7 -0.45 0.95 0.35" fill="#ffffff" fill-rule="evenodd" stroke="none"/>
    </g>
  </defs>
</svg>
