<?xml version="1.0" encoding="UTF-8" standalone="no"?>
<svg xmlns:ffdec="https://www.free-decompiler.com/flash" xmlns:xlink="http://www.w3.org/1999/xlink" ffdec:objectType="frame" height="60.4px" width="75.1px" xmlns="http://www.w3.org/2000/svg">
  <g transform="matrix(1.0, 0.0, 0.0, 1.0, 37.8, 36.55)">
    <use ffdec:characterId="8" height="60.4" transform="matrix(1.0, 0.0, 0.0, 1.0, 21.0, -2.8)" width="75.1" xlink:href="#sprite0"/>
  </g>
  <defs>
    <g id="sprite0">
      <use ffdec:characterId="2" height="17.6" transform="matrix(0.8669, 0.0105, 0.4441, 1.0857, -6.2, -23.15)" width="14.55" xlink:href="#sprite1"/>
      <use ffdec:characterId="2" height="17.6" transform="matrix(1.0016, 0.6003, -0.6003, 1.0016, 2.6, -20.55)" width="14.55" xlink:href="#sprite1"/>
      <use ffdec:characterId="4" height="39.95" transform="matrix(1.0, 0.0, 0.0, 1.0, 3.7, 6.25)" width="13.45" xlink:href="#sprite2"/>
      <use ffdec:characterId="2" height="17.6" transform="matrix(-0.8669, 0.0105, -0.4441, 1.0857, -36.3, -22.55)" width="14.55" xlink:href="#sprite1"/>
      <use ffdec:characterId="2" height="17.6" transform="matrix(-1.0016, 0.6003, 0.6003, 1.0016, -45.1, -20.55)" width="14.55" xlink:href="#sprite1"/>
      <use ffdec:characterId="4" height="39.95" transform="matrix(-1.0, 0.0, 0.0, 1.0, -45.8, 6.65)" width="13.45" xlink:href="#sprite2"/>
    </g>
    <g id="sprite1">
      <use ffdec:characterId="1" height="17.6" transform="matrix(1.0, 0.0, 0.0, 1.0, 0.0, 0.0)" width="14.55" xlink:href="#shape0"/>
    </g>
    <g id="shape0">
      <path d="M4.25 0.5 L4.3 0.55 4.25 0.5 M-3.4 3.6 L-3.55 3.4 -3.4 3.5 -3.4 3.6" fill="#ffffff" fill-rule="evenodd" stroke="none"/>
      <path d="M1.4 -6.0 L2.2 -5.95 3.45 -3.3 2.55 -3.35 2.45 -3.45 1.4 -6.0 M1.7 5.65 Q3.3 3.7 5.7 2.85 6.8 2.4 7.4 1.7 L8.05 2.0 7.75 2.6 Q5.7 3.5 3.9 4.6 L0.35 7.2 1.7 5.65 M0.2 7.35 L-0.15 7.65 Q-0.5 6.55 0.55 5.05 L2.95 1.6 Q2.75 0.3 1.5 -0.65 -0.2 -1.85 -2.35 -2.15 L-3.05 -1.3 -3.4 -0.6 -3.45 -1.5 -3.05 -2.1 -3.0 -2.15 Q-3.6 -3.5 -4.25 -6.3 -5.75 -4.15 -5.55 -1.65 -5.4 0.65 -4.25 2.95 L-4.0 3.4 -2.6 6.25 -3.55 5.45 Q-4.05 4.3 -5.05 3.1 -6.1 1.85 -6.2 -0.6 -6.35 -3.1 -5.3 -5.25 -4.3 -7.4 -2.65 -9.05 L-3.05 -6.65 -3.05 -5.95 Q-2.95 -4.3 -2.5 -2.75 L-1.5 -2.85 -0.75 -2.6 2.75 0.4 3.55 1.65 1.65 4.7 0.2 7.35 M-3.5 1.7 L-3.25 2.65 -1.55 6.55 -2.25 6.35 -2.6 5.7 -3.25 3.95 -3.4 3.6 -3.4 3.5 -3.9 1.55 -3.5 1.7" fill="#ef098b" fill-rule="evenodd" stroke="none"/>
      <path d="M2.2 -5.95 L1.4 -6.0 1.35 -6.1 1.25 -6.55 2.2 -5.95 M2.55 -3.35 L3.45 -3.3 4.15 -2.7 5.45 -1.7 Q7.25 -0.4 8.05 2.0 L7.4 1.7 Q6.75 0.25 5.75 -0.7 L2.55 -3.35 M1.7 5.65 L0.35 7.2 0.3 7.25 0.2 7.35 1.65 4.7 1.7 5.55 1.7 5.65 M-0.75 -2.6 L-1.5 -2.85 -2.5 -2.75 Q-2.95 -4.3 -3.05 -5.95 L-3.05 -6.65 -2.65 -9.05 -2.55 -9.1 -2.1 -8.85 Q-2.45 -6.4 -1.8 -4.05 L-1.55 -3.35 -0.75 -2.6 M-2.6 6.25 L-4.0 3.4 -3.25 3.95 -2.6 5.7 -2.25 6.35 -2.6 6.25 M-3.45 -1.5 L-3.4 -0.6 -3.05 -1.3 -3.25 -0.6 Q-3.6 0.5 -3.5 1.7 L-3.9 1.55 -3.9 0.8 -3.45 -1.5" fill="#ff48af" fill-rule="evenodd" stroke="none"/>
      <path d="M1.35 -6.1 L1.4 -6.0 2.45 -3.45 1.4 -3.75 Q0.4 -4.1 -0.1 -4.5 L-1.15 -5.35 -1.95 -6.25 -1.9 -6.6 -1.4 -6.7 0.4 -6.3 1.35 -6.1 M-1.55 -3.35 Q-0.5 -2.45 0.6 -2.1 L3.75 -0.7 Q4.45 -0.4 5.75 0.8 L7.1 1.55 7.4 1.7 Q6.8 2.4 5.7 2.85 3.3 3.7 1.7 5.65 L1.7 5.55 1.65 4.7 3.55 1.65 2.75 0.4 -0.75 -2.6 -1.55 -3.35 M-4.0 3.4 L-4.25 2.95 Q-5.4 0.65 -5.55 -1.65 -5.75 -4.15 -4.25 -6.3 -3.6 -3.5 -3.0 -2.15 L-3.05 -2.1 -3.2 -1.9 -4.7 -4.55 -5.15 -3.55 -5.35 -1.15 -5.1 0.55 -3.95 1.5 -3.9 1.55 -3.4 3.5 -3.55 3.4 -3.4 3.6 -3.25 3.95 -4.0 3.4 M4.25 0.5 L4.3 0.55 4.25 0.5" fill="#ffa6d8" fill-rule="evenodd" stroke="none"/>
      <path d="M-3.05 -2.1 L-3.45 -1.5 -3.9 0.8 -3.9 1.55 -3.95 1.5 -5.1 0.55 -5.35 -1.15 -5.15 -3.55 -4.7 -4.55 -3.2 -1.9 -3.05 -2.1" fill="#ffcfea" fill-rule="evenodd" stroke="none"/>
      <path d="M1.25 -6.55 L1.35 -6.1 0.4 -6.3 -1.4 -6.7 -1.9 -6.6 -1.95 -6.25 -1.15 -5.35 -0.1 -4.5 Q0.4 -4.1 1.4 -3.75 L2.45 -3.45 2.55 -3.35 5.75 -0.7 Q6.75 0.25 7.4 1.7 L7.1 1.55 5.75 0.8 Q4.45 -0.4 3.75 -0.7 L0.6 -2.1 Q-0.5 -2.45 -1.55 -3.35 L-1.8 -4.05 Q-2.45 -6.4 -2.1 -8.85 L-1.3 -8.2 1.25 -6.55" fill="#ffe6f4" fill-rule="evenodd" stroke="none"/>
      <path d="M0.2 -6.85 Q-0.8 -7.4 -2.4 -8.95 -4.25 -3.95 -0.3 -1.85 3.6 0.25 3.1 1.65 0.15 5.55 -0.1 7.3 L4.25 3.85 Q5.75 2.6 7.7 2.25 7.8 1.3 6.3 -1.1 L7.85 0.7 8.1 2.6 Q3.4 4.05 -0.2 8.25 -7.45 3.85 -6.3 -3.95 L-5.75 -5.6 Q-4.4 -7.9 -2.5 -9.35 L-0.2 -7.8 2.05 -6.6 Q3.0 -3.45 4.55 -2.25 L2.95 -3.55 Q2.55 -4.0 1.75 -6.25 1.15 -6.35 0.2 -6.85 M-3.25 -8.05 Q-7.4 -3.65 -5.5 1.45 -4.4 4.35 -1.95 6.2 L-3.25 2.9 Q-3.65 1.6 -3.55 0.2 -3.4 -2.1 -2.5 -2.7 -4.4 -4.45 -3.25 -8.05 M-0.4 7.45 Q-0.45 5.5 2.75 1.45 1.45 -1.15 -2.3 -2.1 -3.7 -0.15 -2.75 3.4 -1.8 6.95 -0.4 7.45" fill="#000000" fill-rule="evenodd" stroke="none"/>
    </g>
    <g id="sprite2">
      <use ffdec:characterId="3" height="39.95" transform="matrix(1.0, 0.0, 0.0, 1.0, 0.0, 0.0)" width="13.45" xlink:href="#shape1"/>
    </g>
    <g id="shape1">
      <path d="M3.15 -0.55 L3.05 -1.3 3.15 -0.7 3.65 -1.45 3.45 -2.0 3.7 -1.35 3.75 -1.2 4.95 3.65 5.05 4.1 5.05 4.15 4.7 4.9 4.4 5.75 Q4.25 6.15 4.25 6.6 4.25 7.1 4.4 7.4 L4.95 8.15 5.35 8.95 5.35 9.0 Q5.2 11.35 4.4 13.65 L1.1 13.65 1.2 13.5 1.5 13.0 Q2.6 11.05 3.25 8.6 3.8 6.05 3.55 3.15 L3.15 -0.55" fill="#fff9fc" fill-rule="evenodd" stroke="none"/>
      <path d="M3.05 -1.3 L3.15 -0.55 2.5 0.1 2.35 -1.4 Q1.6 -6.55 -0.95 -11.95 L-1.0 -11.95 -1.3 -12.55 -2.25 -14.45 -2.55 -15.0 -3.35 -16.4 -3.4 -16.55 -1.9 -14.55 -1.65 -14.25 -1.65 -14.2 Q0.55 -10.9 2.05 -7.2 L4.05 -1.8 3.75 -1.25 3.75 -1.2 3.7 -1.35 3.45 -2.0 2.0 -5.9 3.0 -1.9 3.05 -1.3 M1.2 13.5 L1.1 13.65 0.65 14.25 -0.9 15.7 -1.3 16.0 -2.9 14.85 Q-1.0 14.5 0.0 13.35 L1.2 13.5 M5.35 9.0 L5.35 8.95 Q5.5 6.6 5.05 4.15 L5.05 4.1 5.05 4.05 5.5 3.15 Q6.45 6.8 5.95 10.35 L5.35 9.0 M5.15 13.6 L5.05 13.9 5.1 13.85 4.8 14.55 4.3 15.65 4.05 16.1 Q3.15 17.7 1.85 19.15 L1.35 18.65 1.4 18.65 Q3.3 16.55 4.25 14.05 L4.4 13.65 4.4 13.6 5.15 13.6" fill="#ef098b" fill-rule="evenodd" stroke="none"/>
      <path d="M3.15 -0.55 L3.55 3.15 Q3.8 6.05 3.25 8.6 2.6 11.05 1.5 13.0 L1.2 13.5 0.0 13.35 Q1.35 11.75 2.0 8.8 2.9 4.45 2.5 0.1 L3.15 -0.55 M1.1 13.65 L4.4 13.65 Q5.2 11.35 5.35 9.0 L5.95 10.35 Q6.45 6.8 5.5 3.15 L5.05 4.05 5.05 4.1 4.95 3.65 3.75 -1.2 3.75 -1.25 4.05 -1.8 5.45 3.0 Q6.9 8.45 5.15 13.6 L4.4 13.6 4.4 13.65 4.25 14.05 Q3.3 16.55 1.4 18.65 L1.2 18.5 -1.3 16.0 -0.9 15.7 0.65 14.25 1.1 13.65 M5.35 8.95 L4.95 8.15 4.4 7.4 Q4.25 7.1 4.25 6.6 4.25 6.15 4.4 5.75 L4.7 4.9 5.05 4.15 Q5.5 6.6 5.35 8.95 M3.45 -2.0 L3.65 -1.45 3.15 -0.7 3.05 -1.3 3.0 -1.9 2.0 -5.9 3.45 -2.0" fill="#ffa6d8" fill-rule="evenodd" stroke="none"/>
      <path d="M1.35 18.65 L1.2 18.5 1.4 18.65 1.35 18.65" fill="#ffffff" fill-rule="evenodd" stroke="none"/>
      <path d="M-3.35 -16.4 L-3.65 -16.9 -3.55 -16.75 -3.4 -16.55 -3.35 -16.4" fill="#2da8ff" fill-rule="evenodd" stroke="none"/>
      <path d="M-6.75 -19.95 Q-3.15 -16.9 -0.5 -13.1 4.25 -6.35 6.1 1.85 7.55 8.4 5.55 15.0 4.55 18.35 1.25 20.0 L-2.1 16.45 -4.1 14.3 Q-2.7 14.55 -0.15 11.3 2.4 8.05 1.7 1.35 0.95 -5.4 -1.1 -10.2 -3.3 -15.35 -6.75 -19.95 M-3.7 -16.9 L-2.6 -15.0 Q1.35 -7.8 2.35 -1.95 3.3 3.85 2.1 8.85 0.85 13.85 -2.4 14.95 L1.8 19.15 Q4.05 16.65 5.1 13.6 6.85 8.45 5.4 3.0 4.0 -2.2 2.0 -7.2 -0.1 -12.45 -3.7 -16.9" fill="#000000" fill-rule="evenodd" stroke="none"/>
    </g>
  </defs>
</svg>
