<?xml version="1.0" encoding="UTF-8" standalone="no"?>
<svg xmlns:ffdec="https://www.free-decompiler.com/flash" xmlns:xlink="http://www.w3.org/1999/xlink" ffdec:objectType="frame" height="59.35px" width="56.15px" xmlns="http://www.w3.org/2000/svg">
  <g transform="matrix(1.0, 0.0, 0.0, 1.0, 27.65, 56.15)">
    <use ffdec:characterId="5" height="59.35" transform="matrix(1.0, 0.0, 0.0, 1.0, -27.65, -56.15)" width="56.15" xlink:href="#sprite0"/>
  </g>
  <defs>
    <g id="sprite0">
      <use ffdec:characterId="4" height="59.35" transform="matrix(1.0, 0.0, 0.0, 1.0, 0.0, 0.0)" width="56.15" xlink:href="#shape0"/>
    </g>
    <g id="shape0">
      <path d="M42.65 21.5 L41.0 18.35 40.8 17.75 46.25 18.25 46.35 18.25 46.9 18.35 47.3 18.4 Q48.6 18.65 50.75 19.75 L52.05 20.45 Q51.5 23.5 48.9 24.65 46.3 25.8 43.4 26.0 40.65 26.05 38.0 26.75 L32.75 28.35 27.35 29.1 21.45 28.8 16.1 28.0 Q13.45 27.35 11.0 25.7 8.5 23.9 6.85 21.55 9.05 21.3 10.7 22.7 L10.65 23.15 10.95 23.5 11.1 23.65 11.15 23.7 11.75 24.3 12.75 25.25 Q14.15 26.3 15.8 26.9 18.1 27.8 20.6 27.75 L24.15 28.0 24.85 28.1 25.95 28.2 31.45 28.0 36.4 26.65 37.55 26.4 Q40.4 26.0 42.55 24.15 L42.8 24.0 44.1 23.1 42.65 21.5 M46.9 28.75 L46.95 29.35 44.1 33.15 42.55 37.2 42.5 37.25 42.45 37.25 42.45 37.3 41.9 37.1 Q40.2 38.25 38.2 38.95 L35.5 39.75 32.65 40.35 29.65 40.7 26.95 40.75 24.3 40.75 21.35 40.55 18.4 40.1 15.65 39.2 13.05 38.05 12.45 38.2 12.4 38.15 12.05 36.95 12.4 36.7 Q13.95 38.0 15.8 38.55 L18.35 39.15 21.75 39.6 23.85 39.9 26.65 40.0 30.4 39.55 33.95 38.7 37.2 37.8 38.75 37.05 Q40.6 35.8 41.1 33.65 L41.65 31.8 Q38.6 33.15 36.55 33.65 L32.8 34.25 29.65 34.65 28.25 34.7 25.55 34.7 23.05 34.55 19.8 34.3 16.9 33.75 Q14.4 33.25 12.2 32.2 L10.5 31.4 11.2 33.35 10.55 33.5 8.65 30.4 8.85 30.0 8.9 29.95 9.0 29.9 9.55 30.05 11.9 30.75 15.8 31.45 18.85 31.85 21.9 32.15 24.85 32.35 27.65 32.35 30.35 32.35 33.0 32.05 35.8 31.65 37.3 31.4 42.7 29.85 43.25 29.55 46.15 28.6 46.9 28.75 M42.25 38.25 L42.1 39.05 40.6 39.75 Q38.1 40.95 35.35 41.15 L35.3 41.1 35.3 41.15 33.5 41.45 28.0 41.95 23.2 41.9 20.8 41.65 21.25 41.65 26.85 41.9 30.6 41.75 32.5 41.5 37.55 40.4 40.15 39.45 Q41.3 39.0 42.25 38.25 M12.75 38.8 L12.6 38.6 12.55 38.55 12.55 38.45 12.55 38.4 12.65 38.5 12.65 38.55 12.75 38.65 12.75 38.8 M44.85 30.75 L45.9 29.7 44.45 29.7 44.85 30.75" fill="#1b1b21" fill-rule="evenodd" stroke="none"/>
      <path d="M42.55 24.15 Q40.4 26.0 37.55 26.4 L36.4 26.65 35.75 26.7 27.35 28.1 25.0 28.1 24.15 28.0 19.15 27.5 Q16.35 27.25 13.7 25.8 L12.75 25.25 11.75 24.3 11.15 23.7 11.1 23.6 11.0 23.4 10.85 22.95 11.3 22.4 12.0 23.55 13.35 22.15 13.6 24.45 14.65 23.3 Q15.9 25.4 18.35 26.15 L23.2 26.35 24.0 26.65 25.9 25.2 Q27.3 26.25 29.3 26.65 L32.4 26.3 Q33.85 25.7 35.15 24.6 L34.1 20.85 36.4 23.9 35.4 20.15 33.4 15.55 Q35.1 17.2 36.35 19.3 L38.0 22.2 38.5 23.35 Q38.85 20.45 37.2 18.15 L34.65 15.0 31.8 12.05 32.2 13.65 Q32.4 14.65 32.15 15.65 L29.6 12.6 27.15 12.85 25.95 15.05 25.55 13.1 22.95 14.65 24.05 11.9 23.3 11.6 24.4 11.6 25.4 12.1 25.45 12.3 26.1 12.3 28.7 11.85 29.6 11.7 29.9 11.2 30.15 10.75 31.95 10.75 35.85 14.15 Q37.8 16.0 39.45 18.2 L40.25 19.5 Q41.5 21.45 41.75 23.4 41.8 21.2 41.15 19.05 L42.1 21.1 42.75 22.7 42.15 24.0 42.9 23.35 42.7 24.0 42.55 24.15" fill="#5d2323" fill-rule="evenodd" stroke="none"/>
      <path d="M24.15 28.0 L20.6 27.75 19.15 27.5 24.15 28.0 M11.15 23.7 L11.1 23.65 11.1 23.6 11.15 23.7 M12.85 19.15 L13.25 18.6 14.7 16.7 Q16.6 14.6 18.85 13.0 20.95 11.4 23.4 10.6 L23.95 10.95 24.4 11.6 23.3 11.6 24.05 11.9 22.95 14.65 25.55 13.1 25.95 15.05 27.15 12.85 29.6 12.6 32.15 15.65 Q32.4 14.65 32.2 13.65 L31.8 12.05 34.65 15.0 37.2 18.15 Q38.85 20.45 38.5 23.35 L38.0 22.2 36.35 19.3 Q35.1 17.2 33.4 15.55 L35.4 20.15 36.4 23.9 34.1 20.85 35.15 24.6 Q33.85 25.7 32.4 26.3 L29.3 26.65 Q27.3 26.25 25.9 25.2 L24.0 26.65 23.2 26.35 18.35 26.15 Q15.9 25.4 14.65 23.3 L13.6 24.45 13.35 22.15 12.0 23.55 11.3 22.4 12.85 19.15 M29.8 11.25 L29.9 11.2 29.6 11.7 28.7 11.85 29.2 11.55 29.8 11.25 M31.95 10.75 Q33.8 11.15 35.25 12.55 L37.45 14.8 40.25 18.0 41.15 19.05 Q41.8 21.2 41.75 23.4 41.5 21.45 40.25 19.5 L39.45 18.2 Q37.8 16.0 35.85 14.15 L31.95 10.75 M42.1 21.1 L42.8 22.25 42.75 22.7 42.1 21.1 M25.4 12.1 L26.1 12.3 25.45 12.3 25.4 12.1 M28.55 13.0 Q28.15 13.05 28.85 14.0 29.75 15.3 30.05 16.3 L29.75 14.0 29.5 13.45 Q29.15 13.2 28.8 13.05 L28.55 13.0 M27.25 13.5 Q28.15 17.0 28.35 19.4 L28.7 24.9 Q29.35 21.5 29.05 18.95 28.7 16.35 28.1 15.25 L27.25 13.5 M22.45 16.95 Q21.4 19.75 21.65 20.75 L22.1 19.85 22.65 18.55 23.25 16.85 23.4 15.7 22.45 16.95 M17.0 22.55 Q18.9 17.85 22.15 13.5 20.4 13.5 18.7 16.75 16.95 20.0 17.0 22.55 M35.75 26.7 Q33.9 27.45 31.85 27.8 L27.35 28.1 35.75 26.7" fill="#982b2c" fill-rule="evenodd" stroke="none"/>
      <path d="M42.65 21.5 L44.1 23.1 42.8 24.0 43.1 23.75 42.8 22.25 42.65 21.5 M36.4 26.65 L31.45 28.0 25.95 28.2 24.85 28.1 25.0 28.1 27.35 28.1 31.85 27.8 Q33.9 27.45 35.75 26.7 L36.4 26.65 M10.95 23.5 L10.65 23.15 10.7 22.7 Q9.05 21.3 6.85 21.55 8.5 23.9 11.0 25.7 13.45 27.35 16.1 28.0 L21.45 28.8 27.35 29.1 32.75 28.35 38.0 26.75 Q40.65 26.05 43.4 26.0 46.3 25.8 48.9 24.65 51.5 23.5 52.05 20.45 L52.0 20.15 52.5 22.25 Q51.25 24.2 49.35 25.4 47.1 26.85 44.7 27.5 L46.95 25.95 Q45.2 26.75 43.1 27.35 L38.2 28.5 33.3 29.45 29.8 29.75 34.1 30.05 28.6 30.5 23.0 30.5 17.3 30.1 11.65 28.9 6.45 27.1 1.7 24.95 1.6 24.9 0.5 22.95 1.7 22.05 Q3.5 20.85 5.6 20.15 L10.6 18.65 12.85 18.3 13.0 18.7 12.85 19.15 11.3 22.4 10.85 22.95 11.0 23.4 10.95 23.5 M53.7 21.8 L53.75 22.55 53.3 23.4 Q53.85 22.55 53.7 21.8 M50.4 26.2 L49.6 26.9 46.9 28.75 46.15 28.6 Q48.45 27.7 50.4 26.2 M42.55 37.2 L42.75 37.05 42.9 36.9 42.95 36.9 43.05 36.9 43.15 36.9 43.25 36.95 43.25 37.0 43.3 37.1 43.3 37.3 42.25 38.25 Q41.3 39.0 40.15 39.45 L37.55 40.4 32.5 41.5 30.6 41.75 26.85 41.9 21.25 41.65 20.8 41.65 20.7 41.6 17.1 40.85 Q15.9 40.65 14.85 40.05 L14.3 39.85 14.3 39.8 13.45 39.4 13.35 39.35 13.35 39.4 13.3 39.35 13.3 39.3 13.25 39.25 13.15 39.15 12.95 39.05 12.8 38.9 12.75 38.8 12.75 38.65 12.65 38.55 12.65 38.5 12.55 38.4 12.5 38.4 12.5 38.35 12.45 38.35 12.45 38.25 12.4 38.2 12.45 38.2 13.05 38.05 15.65 39.2 18.4 40.1 21.35 40.55 24.3 40.75 26.95 40.75 29.65 40.7 32.65 40.35 35.5 39.75 38.2 38.95 Q40.2 38.25 41.9 37.1 L42.45 37.3 42.45 37.25 42.5 37.25 42.55 37.2 M8.3 29.9 Q4.45 28.8 2.1 27.3 L1.7 27.05 Q-0.2 25.7 0.05 24.3 L0.45 23.05 Q-0.5 25.55 1.7 26.9 3.9 28.25 5.95 29.0 L9.0 29.9 9.95 30.1 9.55 30.05 9.0 29.9 8.9 29.95 8.85 30.0 8.3 29.9 M43.25 29.55 L42.7 29.85 42.6 29.8 42.45 29.8 41.8 29.85 43.25 29.55 M28.1 31.65 L25.2 32.0 22.25 31.65 Q25.15 31.85 28.1 31.65 M4.55 21.45 Q4.1 21.7 3.7 23.3 3.3 24.85 6.85 26.55 10.35 28.25 13.7 27.95 11.2 27.45 9.4 25.85 6.9 23.7 6.05 22.35 5.25 20.4 4.55 21.45" fill="#686977" fill-rule="evenodd" stroke="none"/>
      <path d="M52.0 20.15 L52.65 20.5 Q53.15 20.4 53.5 21.3 L53.7 21.8 Q53.85 22.55 53.3 23.4 L53.1 23.85 50.4 26.2 Q48.45 27.7 46.15 28.6 L43.25 29.55 41.8 29.85 39.8 30.15 37.55 30.75 32.75 31.4 28.1 31.65 Q25.15 31.85 22.25 31.65 L9.95 30.1 9.0 29.9 5.95 29.0 Q3.9 28.25 1.7 26.9 -0.5 25.55 0.45 23.05 L0.5 22.95 1.6 24.9 1.7 24.95 6.45 27.1 11.65 28.9 17.3 30.1 23.0 30.5 28.6 30.5 34.1 30.05 39.4 29.1 44.7 27.5 Q47.1 26.85 49.35 25.4 51.25 24.2 52.5 22.25 L52.0 20.15" fill="#2c2e3a" fill-rule="evenodd" stroke="none"/>
      <path d="M44.1 33.15 L43.35 36.05 42.8 36.9 42.55 37.2 44.1 33.15 M35.35 41.15 L35.3 41.15 35.3 41.1 35.35 41.15 M12.55 38.55 L12.5 38.5 12.45 38.35 12.5 38.35 12.5 38.4 12.55 38.4 12.55 38.45 12.55 38.55 M12.05 36.95 L10.55 33.5 11.2 33.35 10.5 31.4 12.2 32.2 Q14.4 33.25 16.9 33.75 L19.8 34.3 23.05 34.55 25.55 34.7 28.25 34.7 29.65 34.65 32.8 34.25 36.55 33.65 Q38.6 33.15 41.65 31.8 L41.1 33.65 Q40.6 35.8 38.75 37.05 L37.2 37.8 33.95 38.7 30.4 39.55 26.65 40.0 23.85 39.9 21.75 39.6 18.35 39.15 15.8 38.55 Q13.95 38.0 12.4 36.7 L12.05 36.95 M8.65 30.4 L8.3 29.9 8.85 30.0 8.65 30.4 M42.7 29.85 L37.3 31.4 35.8 31.65 33.0 32.05 30.35 32.35 27.65 32.35 24.85 32.35 21.9 32.15 18.85 31.85 15.8 31.45 11.9 30.75 9.55 30.05 9.95 30.1 22.25 31.65 25.2 32.0 28.1 31.65 32.75 31.4 37.55 30.75 39.8 30.15 41.8 29.85 42.45 29.8 42.6 29.8 42.7 29.85" fill="#4c4d58" fill-rule="evenodd" stroke="none"/>
      <path d="M44.7 27.5 L39.4 29.1 34.1 30.05 29.8 29.75 33.3 29.45 38.2 28.5 43.1 27.35 Q45.2 26.75 46.95 25.95 L44.7 27.5 M4.55 21.45 Q5.25 20.4 6.05 22.35 6.9 23.7 9.4 25.85 11.2 27.45 13.7 27.95 10.35 28.25 6.85 26.55 3.3 24.85 3.7 23.3 4.1 21.7 4.55 21.45" fill="#b8b8b8" fill-rule="evenodd" stroke="none"/>
      <path d="M28.4 5.05 Q27.05 4.45 26.15 5.2 25.6 5.3 25.2 6.2 L25.0 7.0 Q24.8 8.15 25.7 8.65 L26.4 8.7 Q25.9 8.0 26.55 7.35 26.85 7.9 27.95 8.0 29.0 8.05 29.7 6.6 29.45 5.75 28.4 5.05 M24.25 8.65 L24.2 7.8 Q24.05 4.55 27.35 4.5 29.6 4.1 30.65 5.8 31.7 7.5 29.9 9.3 28.05 11.05 24.25 8.65" fill="#494c5d" fill-rule="evenodd" stroke="none"/>
      <path d="M28.4 5.05 Q29.45 5.75 29.7 6.6 29.0 8.05 27.95 8.0 26.85 7.9 26.55 7.35 25.9 8.0 26.4 8.7 L25.7 8.65 Q24.8 8.15 25.0 7.0 L25.2 6.2 Q25.6 5.3 26.15 5.2 27.05 4.45 28.4 5.05" fill="#8c8ea4" fill-rule="evenodd" stroke="none"/>
      <path d="M23.95 10.95 L24.0 10.7 24.45 9.9 29.9 10.15 29.8 11.25 29.2 11.55 28.7 11.85 26.1 12.3 25.4 12.1 24.4 11.6 23.95 10.95" fill="#56462b" fill-rule="evenodd" stroke="none"/>
      <path d="M22.45 16.95 L23.4 15.7 23.25 16.85 22.65 18.55 22.1 19.85 21.65 20.75 Q21.4 19.75 22.45 16.95 M27.25 13.5 L28.1 15.25 Q28.7 16.35 29.05 18.95 29.35 21.5 28.7 24.9 L28.35 19.4 Q28.15 17.0 27.25 13.5 M28.55 13.0 L28.8 13.05 Q29.15 13.2 29.5 13.45 L29.75 14.0 30.05 16.3 Q29.75 15.3 28.85 14.0 28.15 13.05 28.55 13.0 M17.0 22.55 Q16.95 20.0 18.7 16.75 20.4 13.5 22.15 13.5 18.9 17.85 17.0 22.55" fill="#ff4042" fill-rule="evenodd" stroke="none"/>
      <path d="M26.45 35.5 L27.15 35.55 27.8 35.45 Q28.35 35.15 27.9 34.45 L26.9 33.4 Q28.4 33.05 29.15 34.0 29.75 34.4 29.85 35.55 L29.25 36.45 29.9 36.85 30.2 34.95 30.6 36.1 30.7 36.4 30.65 37.35 Q30.35 39.1 28.6 39.8 L27.75 39.95 Q26.3 40.05 25.5 39.3 L24.9 38.75 24.35 38.25 26.35 38.95 27.6 38.95 Q28.0 38.95 28.4 38.5 L28.75 37.7 Q28.5 36.6 27.6 36.9 L26.9 37.85 26.15 37.05 26.0 38.2 25.5 38.0 25.2 37.6 25.2 36.5 Q25.5 35.35 26.1 35.45 L26.45 35.5 M26.65 33.85 Q25.65 34.3 25.1 35.05 L24.15 36.75 24.1 36.45 24.1 36.15 Q24.3 35.05 25.1 34.35 L25.6 33.9 26.65 33.85" fill="#4f562b" fill-rule="evenodd" stroke="none"/>
      <path d="M30.7 36.4 L30.6 36.1 30.2 34.95 29.9 36.85 29.25 36.45 29.85 35.55 Q29.75 34.4 29.15 34.0 28.4 33.05 26.9 33.4 L27.9 34.45 Q28.35 35.15 27.8 35.45 L27.15 35.55 26.45 35.5 Q27.0 35.5 27.4 35.1 L27.65 34.8 27.35 33.85 26.9 33.4 Q24.1 32.8 23.7 35.45 23.3 38.05 23.8 38.15 L24.35 38.15 24.4 37.9 24.1 37.25 24.1 36.45 24.15 36.75 25.1 35.05 Q25.65 34.3 26.65 33.85 L25.9 34.9 26.1 35.45 Q25.5 35.35 25.2 36.5 L25.2 37.6 25.5 38.0 26.0 38.2 26.15 37.05 26.9 37.85 27.6 36.9 Q28.5 36.6 28.75 37.7 L28.4 38.5 Q28.0 38.95 27.6 38.95 L26.35 38.95 24.35 38.25 24.9 38.75 25.5 39.3 Q26.3 40.05 27.75 39.95 L28.6 39.8 27.7 40.45 Q30.45 40.35 31.1 37.45 31.6 35.05 29.6 33.65 30.55 34.85 30.7 36.4 M23.9 34.4 Q25.6 31.6 28.3 32.45 30.95 33.3 31.5 36.1 32.0 38.85 29.25 40.35 26.5 41.8 24.4 39.45 22.25 37.1 23.9 34.4" fill="#d8ff93" fill-rule="evenodd" stroke="none"/>
      <path d="M26.45 35.5 L26.1 35.45 25.9 34.9 26.65 33.85 25.6 33.9 25.1 34.35 Q24.3 35.05 24.1 36.15 L24.1 36.45 24.1 37.25 24.4 37.9 24.35 38.15 23.8 38.15 Q23.3 38.05 23.7 35.45 24.1 32.8 26.9 33.4 L27.35 33.85 27.65 34.8 27.4 35.1 Q27.0 35.5 26.45 35.5 M28.6 39.8 Q30.35 39.1 30.65 37.35 L30.7 36.4 Q30.55 34.85 29.6 33.65 31.6 35.05 31.1 37.45 30.45 40.35 27.7 40.45 L28.6 39.8" fill="#ffffff" fill-rule="evenodd" stroke="none"/>
      <path d="M31.95 36.95 Q31.55 39.35 29.55 40.5 27.4 41.8 25.1 40.7 22.75 39.5 22.65 36.85 22.5 34.25 24.5 32.85 25.25 32.25 26.1 32.05 28.55 31.8 30.35 33.05 L31.2 33.7 Q32.3 35.2 31.95 36.95 M27.55 32.75 L26.15 32.85 25.35 33.1 Q23.9 33.85 23.4 35.85 22.9 37.85 24.3 39.25 25.7 40.7 27.05 40.65 30.05 40.65 31.1 37.9 32.05 35.3 30.1 33.7 28.55 32.75 27.55 32.75" fill="#000000" fill-rule="evenodd" stroke="none"/>
      <path d="M53.6 10.65 Q54.8 12.6 55.55 14.8 56.35 17.15 56.0 19.55 L55.9 18.6 Q55.6 16.05 54.4 13.95 L52.05 10.4 Q50.75 8.8 49.3 8.3 L47.2 7.7 45.75 7.3 Q43.95 6.9 42.0 7.3 L41.3 7.7 Q42.95 7.15 44.0 9.8 45.0 12.4 43.0 14.85 L43.7 11.35 Q44.15 8.85 41.65 8.8 L37.55 9.05 Q35.95 9.35 34.2 10.0 32.45 10.6 31.05 11.5 L29.7 9.65 Q29.95 9.35 30.85 8.9 L32.7 7.35 Q33.65 6.25 33.75 5.05 33.85 3.85 33.4 2.7 L34.6 4.2 Q35.0 5.1 34.85 5.8 L34.7 6.8 35.3 6.2 Q37.25 4.45 39.8 4.15 L40.8 4.05 40.2 4.35 Q38.55 4.7 37.0 5.8 L36.25 6.35 36.2 6.4 Q38.85 6.2 41.6 4.5 44.35 2.8 45.6 0.0 L45.5 0.9 Q45.0 3.8 42.55 4.95 L40.9 5.8 47.25 4.35 Q49.5 4.05 50.4 4.75 51.5 5.65 53.85 5.55 L50.05 5.65 Q48.85 5.0 47.25 5.25 L45.25 5.75 47.25 5.95 49.25 6.4 Q50.8 6.9 52.7 8.3 54.55 9.7 56.0 13.0 L56.15 13.3 52.75 9.6 53.6 10.65" fill="#000000" fill-rule="evenodd" stroke="none"/>
      <path d="M42.1 12.65 Q40.5 14.3 37.95 13.15 35.35 11.95 35.95 8.8 L36.55 8.0 37.55 7.6 Q41.1 7.9 41.8 9.8 42.45 11.7 42.1 12.65 M39.6 12.95 Q40.8 12.75 41.15 12.1 41.5 8.05 37.55 8.7 36.6 9.6 37.5 11.35 38.35 13.05 39.6 12.95" fill="#86f347" fill-rule="evenodd" stroke="none"/>
      <path d="M39.6 12.95 Q38.35 13.05 37.5 11.35 36.6 9.6 37.55 8.7 41.5 8.05 41.15 12.1 40.8 12.75 39.6 12.95" fill="#7218ff" fill-rule="evenodd" stroke="none"/>
      <path d="M40.7 8.2 Q42.55 9.4 42.3 12.75 39.15 14.9 37.15 13.0 35.1 11.05 35.8 8.75 35.8 7.9 34.45 7.6 L34.85 7.1 Q36.1 7.65 37.1 7.6 38.85 7.0 40.7 8.2 M41.85 12.55 Q42.45 11.3 41.15 9.35 39.85 7.4 36.85 8.3 35.1 10.65 37.35 12.5 39.6 14.3 41.85 12.55 M37.65 9.6 Q37.7 9.05 38.85 9.15 39.95 9.2 40.45 9.65 40.9 10.05 40.9 11.0 40.9 11.95 40.4 12.2 L39.3 12.3 38.25 11.8 37.75 10.8 Q37.55 10.1 37.65 9.6" fill="#000000" fill-rule="evenodd" stroke="none"/>
      <path d="M43.5 28.0 L40.8 29.0 36.35 29.65 37.95 29.4 43.5 27.85 43.7 27.8 45.0 27.4 43.5 28.0 M40.65 20.8 L40.6 21.05 40.4 21.35 40.15 21.4 38.55 18.1 38.25 17.0 39.4 18.15 Q40.35 19.35 40.65 20.8 M41.7 20.55 L41.45 19.95 40.25 18.2 37.1 14.75 36.45 14.2 35.75 13.55 34.15 12.35 32.85 11.45 31.85 11.0 30.95 10.65 Q30.45 10.7 30.65 11.6 L30.65 11.9 30.75 12.1 30.8 12.25 30.8 12.65 30.75 12.9 30.7 13.05 Q30.7 12.4 29.65 11.9 27.9 12.7 25.9 12.6 25.05 12.3 24.15 13.5 22.95 13.9 23.95 12.55 L24.45 12.25 24.6 12.15 Q24.9 11.55 23.7 11.45 22.5 11.8 21.2 13.5 21.8 11.85 23.25 10.9 L22.65 11.1 20.8 11.9 20.55 12.1 19.2 13.05 18.45 13.6 17.35 14.65 16.1 15.95 15.15 17.05 14.1 18.1 14.0 18.1 13.15 19.3 12.45 20.6 12.2 21.15 11.85 21.95 11.4 23.4 11.65 23.85 11.9 24.15 12.1 24.45 12.65 24.85 13.75 25.5 14.85 26.0 16.1 26.35 17.6 26.6 16.85 26.8 18.5 27.15 19.05 27.25 24.5 27.75 30.25 27.5 30.4 27.45 33.95 26.7 38.1 25.5 39.8 24.7 41.5 23.9 42.55 23.2 42.25 22.1 41.8 20.8 41.7 20.55 M46.4 17.8 L47.35 18.1 50.4 19.15 51.1 19.45 52.75 20.15 Q53.65 20.45 53.95 21.25 54.25 22.05 53.95 22.9 L53.2 24.4 52.35 25.3 51.1 26.4 49.7 27.45 48.75 28.25 48.6 28.35 48.25 28.7 47.55 29.45 46.4 30.9 45.75 31.9 45.1 32.85 44.45 33.85 43.6 35.55 43.35 36.35 42.6 38.6 40.8 39.7 Q37.85 40.85 34.75 41.5 L29.45 42.3 24.3 42.25 17.7 41.5 13.1 40.0 11.9 37.05 10.7 34.1 9.8 32.55 8.95 31.5 Q6.95 29.35 3.95 28.4 0.9 27.4 0.3 25.45 1.65 27.35 4.2 28.05 L8.95 29.25 10.05 29.45 11.4 29.75 16.85 30.85 22.55 31.55 28.25 31.65 32.85 31.35 38.7 30.35 42.45 29.3 44.05 28.75 45.3 28.3 46.5 27.85 47.35 27.45 47.55 27.35 49.55 26.3 51.05 25.35 52.55 24.1 53.25 23.05 53.6 22.15 53.3 21.2 Q53.1 20.55 52.5 20.55 51.9 20.5 52.15 20.65 L52.65 21.3 52.75 21.65 52.85 22.1 52.7 22.4 51.8 23.65 50.45 24.6 49.85 24.9 50.65 24.25 51.6 23.25 52.2 22.35 51.65 21.0 Q51.05 20.2 50.25 19.9 L48.65 19.2 47.35 18.75 46.4 18.45 40.9 17.8 42.55 20.55 42.7 20.8 44.2 22.2 Q44.6 22.5 45.2 22.6 L45.95 22.25 45.45 22.75 44.25 23.65 42.95 24.45 41.65 25.1 40.3 25.7 38.9 26.25 37.3 26.75 36.3 27.05 32.85 27.9 30.25 28.35 29.75 28.4 24.2 28.55 19.05 28.1 18.5 28.05 17.95 27.95 17.6 27.9 16.5 27.7 15.4 27.4 14.1 26.95 13.3 26.55 11.75 25.9 10.7 25.05 9.35 23.3 9.25 22.4 9.35 22.3 10.15 23.1 10.45 22.55 11.05 21.15 12.9 18.65 12.25 18.75 10.1 18.95 8.95 19.2 Q6.4 19.85 4.05 20.75 1.65 21.6 1.3 23.0 1.4 25.05 3.4 26.1 5.15 27.1 7.0 27.6 5.1 27.25 3.35 26.3 1.3 25.25 0.6 23.15 L0.3 24.3 0.3 25.45 Q-0.7 22.7 2.4 21.05 5.05 19.65 7.85 19.0 L8.95 18.7 9.3 18.6 10.2 18.4 11.1 18.3 12.0 18.15 13.8 17.75 15.3 15.95 17.0 14.3 18.3 13.15 19.7 12.1 20.45 11.6 24.35 9.5 24.05 8.8 23.65 7.05 Q23.7 6.4 24.25 5.8 25.15 4.75 26.05 4.4 24.75 5.3 24.35 7.05 24.25 7.9 24.7 8.6 25.55 8.65 26.65 9.7 28.05 8.25 28.65 9.55 L29.5 8.6 29.8 7.9 29.9 8.2 29.9 8.9 30.3 8.4 Q30.85 7.8 30.8 7.05 L30.8 6.85 Q30.25 5.35 29.0 4.9 L28.95 4.85 Q27.6 4.3 26.7 4.5 28.05 4.0 29.6 4.5 31.25 5.5 31.45 7.05 L31.3 8.15 Q31.1 9.15 30.35 9.7 L31.55 10.1 34.85 11.9 36.4 13.05 37.1 13.6 40.5 17.05 46.4 17.8 M42.6 30.2 L38.4 31.35 32.85 32.3 28.2 32.6 22.65 32.5 17.15 31.8 11.35 30.6 11.0 30.5 8.95 30.05 8.9 30.0 8.95 30.1 9.3 30.5 10.2 31.75 10.9 32.85 11.55 34.5 11.95 35.65 12.75 38.4 Q13.35 39.6 16.7 40.6 L27.6 41.45 33.05 41.0 38.0 39.9 Q39.95 39.25 41.0 38.4 L41.6 36.35 42.1 34.8 42.35 34.35 43.5 31.9 43.85 31.1 Q44.6 30.3 44.4 30.0 L42.6 30.2 M29.6 5.4 Q30.45 5.75 30.1 6.45 29.3 6.55 29.45 5.6 L29.6 5.4 M15.65 22.95 Q15.05 21.35 16.05 20.65 17.0 19.9 16.85 20.45 L16.2 21.8 15.65 22.95 M19.3 14.25 L20.15 13.65 20.65 13.4 20.15 13.9 17.65 16.45 17.0 17.15 16.25 18.05 15.75 18.65 16.6 17.3 17.35 16.4 18.15 15.55 19.3 14.25 M33.65 13.5 L34.2 13.85 Q37.45 16.5 38.3 20.55 L37.75 20.2 36.95 18.85 Q35.4 15.75 33.65 13.5 M26.15 10.5 L25.75 10.45 Q24.65 10.15 24.35 10.85 L25.35 11.6 29.4 11.35 29.6 11.1 29.75 10.75 29.7 10.25 28.55 10.55 26.15 10.5 M11.7 29.0 L9.3 28.0 Q14.8 29.35 20.15 29.8 L30.75 30.3 23.95 30.65 17.85 30.3 11.7 29.0" fill="#000000" fill-rule="evenodd" stroke="none"/>
      <path d="M27.7 42.6 L27.7 43.0 28.4 43.5 28.45 43.9 28.2 44.2 Q28.1 44.4 28.5 44.45 L28.6 44.4 30.1 43.8 Q32.35 43.15 32.45 41.5 L32.15 41.25 31.55 41.4 30.3 41.6 26.75 41.85 26.1 41.75 Q26.7 42.35 27.7 42.6 M21.9 41.6 Q21.4 41.15 20.65 40.85 L21.0 40.55 24.95 40.65 24.25 40.75 29.0 41.1 30.6 40.75 30.6 40.55 30.85 40.3 30.9 40.1 30.45 39.9 31.8 39.3 32.45 39.75 32.3 39.7 32.05 39.6 31.95 39.6 31.95 39.5 31.55 39.45 31.5 39.5 31.45 39.5 31.45 39.55 31.4 39.55 31.35 39.7 31.4 39.75 31.45 39.8 31.5 39.9 31.45 39.9 31.4 40.0 31.4 40.05 31.3 40.15 31.25 40.3 31.25 40.35 31.2 40.35 31.15 40.4 31.15 40.45 31.1 40.5 31.1 40.55 31.3 40.65 31.25 40.75 31.15 40.85 31.1 40.9 31.05 40.95 31.05 41.0 31.1 41.0 31.1 41.05 31.2 41.05 31.3 41.1 31.4 41.1 31.45 41.05 31.5 40.95 31.65 40.9 31.9 40.6 32.4 40.3 32.6 40.25 32.7 40.15 32.75 40.1 32.8 40.0 32.7 39.95 32.9 40.0 32.9 40.15 32.7 40.7 32.75 40.75 Q33.15 42.4 32.8 43.6 L31.6 45.7 31.95 47.1 Q31.8 47.25 31.95 47.75 L32.0 48.15 31.95 49.9 31.9 49.45 Q31.65 48.25 31.0 47.3 30.8 47.65 31.0 48.2 31.5 49.7 30.5 51.2 L30.8 52.35 30.5 52.9 Q30.05 54.45 31.75 55.55 32.95 56.3 34.45 56.9 L34.8 56.85 35.15 56.85 35.35 56.85 35.85 56.85 36.0 56.85 36.5 56.75 36.65 56.8 36.85 56.7 36.95 56.7 37.05 56.6 37.2 56.6 37.3 56.6 37.35 56.6 37.4 56.7 37.35 56.8 37.15 56.9 37.05 57.0 37.0 57.0 36.75 57.1 36.7 57.1 36.6 57.15 36.6 57.2 36.6 57.25 36.5 57.4 36.3 57.55 36.2 57.6 36.15 57.65 36.1 57.7 Q34.85 58.45 33.4 58.45 L32.85 58.4 31.35 58.3 31.25 58.25 31.2 58.2 31.2 58.15 30.8 58.25 Q28.35 58.0 28.15 57.1 L29.6 56.5 29.8 56.2 Q26.75 56.4 25.2 55.15 23.45 53.75 23.85 52.75 L24.75 50.7 Q25.2 49.7 25.0 48.75 24.7 47.85 25.55 47.9 26.3 47.95 25.85 47.55 25.35 47.15 25.15 46.6 L24.65 45.9 25.2 44.5 24.65 44.55 24.65 44.5 24.5 44.35 Q24.2 42.85 24.55 42.55 L25.6 41.55 22.55 41.15 21.15 40.7 21.9 41.6 M33.3 42.15 L33.35 42.45 33.3 42.6 33.3 42.15 M33.2 43.5 L33.2 43.8 33.2 44.5 33.1 43.9 33.2 43.5 M32.1 52.0 L32.5 54.0 33.2 55.5 32.6 54.85 Q31.4 53.55 32.1 52.0 M24.15 45.65 Q24.0 43.9 22.8 42.45 L22.45 42.05 23.0 42.35 24.4 45.2 24.15 45.65 M25.5 45.55 L25.55 46.2 26.55 47.35 26.45 48.0 26.6 48.15 27.1 47.9 Q27.6 47.3 27.4 46.7 L25.5 45.55" fill="#e9cc3f" fill-rule="evenodd" stroke="none"/>
      <path d="M27.7 42.6 Q26.7 42.35 26.1 41.75 L26.75 41.85 30.3 41.6 31.55 41.4 32.15 41.25 32.45 41.5 Q32.35 43.15 30.1 43.8 L28.6 44.4 28.5 44.45 Q28.1 44.4 28.2 44.2 L28.45 43.9 28.4 43.5 27.7 43.0 27.7 42.6 M31.95 49.9 L32.1 52.0 Q31.4 53.55 32.6 54.85 L33.2 55.5 Q34.05 55.85 34.55 56.55 L34.8 56.85 34.45 56.9 Q32.95 56.3 31.75 55.55 30.05 54.45 30.5 52.9 L30.8 52.35 30.5 51.2 Q31.5 49.7 31.0 48.2 30.8 47.65 31.0 47.3 31.65 48.25 31.9 49.45 L31.95 49.9 M25.5 45.55 L27.4 46.7 Q27.6 47.3 27.1 47.9 L26.6 48.15 26.45 48.0 26.55 47.35 25.55 46.2 25.5 45.55" fill="#fff1ab" fill-rule="evenodd" stroke="none"/>
      <path d="M22.45 42.05 L21.9 41.6 21.15 40.7 22.55 41.15 25.6 41.55 24.55 42.55 Q24.2 42.85 24.5 44.35 L24.65 44.5 24.65 44.55 25.2 44.5 24.65 45.9 25.15 46.6 Q25.35 47.15 25.85 47.55 26.3 47.95 25.55 47.9 24.7 47.85 25.0 48.75 25.2 49.7 24.75 50.7 L23.85 52.75 Q23.45 53.75 25.2 55.15 26.75 56.4 29.8 56.2 L29.6 56.5 28.15 57.1 Q28.35 58.0 30.8 58.25 L31.2 58.15 31.2 58.2 31.25 58.25 31.35 58.3 32.85 58.4 33.4 58.45 29.85 59.0 Q29.35 58.6 28.45 58.5 L26.45 58.4 24.85 56.95 Q23.6 55.85 23.15 53.95 22.75 52.1 23.45 50.0 24.15 47.9 23.9 45.95 L24.15 45.65 24.4 45.2 23.0 42.35 22.45 42.05 M24.95 40.65 L29.1 40.15 30.45 39.9 30.9 40.1 30.85 40.3 30.6 40.55 30.6 40.75 29.0 41.1 24.25 40.75 24.95 40.65 M32.75 40.75 L32.85 40.75 Q33.25 41.25 33.3 42.15 L33.3 42.6 33.2 43.5 33.1 43.9 33.2 44.5 33.15 44.8 32.35 46.45 32.25 46.55 32.2 46.7 32.15 47.25 31.95 47.75 Q31.8 47.25 31.95 47.1 L31.6 45.7 32.8 43.6 Q33.15 42.4 32.75 40.75" fill="#665e32" fill-rule="evenodd" stroke="none"/>
      <path d="M32.45 39.75 L32.5 39.8 32.6 39.8 32.65 39.9 32.7 39.95 32.8 40.0 32.75 40.1 32.7 40.15 32.6 40.25 32.4 40.3 31.9 40.6 31.65 40.9 31.5 40.95 31.45 41.05 31.4 41.1 31.3 41.1 31.2 41.05 31.1 41.05 31.1 41.0 31.05 41.0 31.05 40.95 31.1 40.9 31.15 40.85 31.25 40.75 31.3 40.65 31.1 40.55 31.1 40.5 31.15 40.45 31.15 40.4 31.2 40.35 31.25 40.35 31.25 40.3 31.3 40.15 31.4 40.05 31.4 40.0 31.45 39.9 31.5 39.9 31.45 39.8 31.4 39.75 31.35 39.7 31.4 39.55 31.45 39.55 31.45 39.5 31.5 39.5 31.55 39.45 31.95 39.5 31.95 39.6 32.05 39.6 32.3 39.7 32.45 39.75" fill="#ffea80" fill-rule="evenodd" stroke="none"/>
      <path d="M31.75 39.6 L31.4 40.85 33.3 40.05 31.75 39.6 M20.45 40.55 L21.05 40.25 26.2 40.55 Q28.85 40.55 30.7 39.3 L31.7 39.2 33.4 39.8 33.6 40.6 Q34.05 42.3 33.65 44.15 L32.85 47.45 32.55 50.7 Q32.45 52.0 32.9 53.4 L33.15 53.95 Q33.55 54.9 34.25 55.7 L35.2 56.65 36.85 56.5 38.25 56.2 Q38.65 56.05 38.2 56.6 L36.75 57.8 Q35.85 58.45 33.9 59.0 L30.55 59.25 27.4 58.65 Q25.45 58.3 24.85 57.5 24.15 56.7 23.45 55.1 22.75 53.45 22.95 52.0 L23.35 49.5 Q23.85 47.3 23.75 45.2 23.7 42.65 20.85 41.55 L20.0 42.05 20.45 40.55 M30.25 39.95 L29.1 40.4 26.05 40.95 21.35 40.7 22.05 41.2 Q23.15 41.95 24.85 41.75 L23.55 42.25 23.9 43.05 24.4 44.6 24.7 44.85 24.45 47.45 23.95 50.4 23.7 51.7 Q23.2 53.35 23.95 54.8 24.3 56.0 24.95 56.6 L26.45 57.6 Q28.3 57.6 29.5 56.05 L30.75 55.1 30.95 55.05 30.85 55.2 30.85 55.25 30.9 55.35 30.9 55.45 30.8 55.5 30.75 55.55 31.0 55.95 33.5 56.65 34.05 56.5 32.55 54.55 31.95 53.45 31.9 53.15 32.0 50.6 Q32.2 49.05 32.05 47.35 32.0 46.95 32.35 46.5 33.2 45.25 33.3 43.8 33.45 42.25 32.8 40.85 L30.7 41.45 30.95 40.45 30.25 39.95 M31.6 56.55 L30.35 55.8 30.1 56.2 28.45 57.4 27.25 58.0 Q31.4 59.0 32.7 58.7 L34.5 58.4 35.6 58.15 37.35 56.9 37.0 56.8 34.1 57.1 Q32.45 57.1 31.6 56.55" fill="#000000" fill-rule="evenodd" stroke="none"/>
      <path d="M27.85 45.45 Q27.6 45.0 27.75 44.7 29.15 45.3 29.25 44.0 29.45 42.7 30.5 44.4 30.9 44.6 30.65 45.15 L29.95 46.45 Q29.65 47.2 29.35 46.85 L28.75 46.25 27.85 45.45 M27.2 46.95 L28.05 46.2 Q28.35 47.3 28.9 48.25 29.0 48.95 29.45 49.25 28.65 49.3 27.7 48.4 26.8 47.55 27.2 46.95 M27.25 53.85 Q27.7 54.2 27.8 53.65 28.05 53.1 30.15 51.95 28.8 52.95 28.75 54.25 L29.5 54.35 Q30.5 54.45 30.55 54.95 L28.5 57.2 Q28.9 55.45 28.15 54.9 L27.9 54.8 Q27.35 54.45 27.25 53.85 M26.7 51.9 L27.75 50.6 Q28.5 49.85 29.15 50.4 29.05 51.4 27.4 52.75 27.75 52.0 27.55 51.85 L26.7 51.9" fill="#581717" fill-rule="evenodd" stroke="none"/>
      <path d="M26.05 47.15 L25.35 50.75 Q25.0 52.55 25.55 54.35 L25.85 55.2 Q24.7 54.65 24.6 53.55 24.3 52.1 24.85 50.65 L25.7 47.55 Q25.95 45.65 25.65 43.8 26.4 45.4 26.05 47.15" fill="#7b1b1b" fill-rule="evenodd" stroke="none"/>
      <path d="M32.0 43.3 Q32.05 45.2 31.7 47.25 L31.25 51.1 Q31.15 52.95 31.3 54.15 31.35 55.35 32.9 56.5 32.0 56.6 31.5 56.15 30.9 55.25 30.85 54.55 30.5 52.25 30.75 50.85 L31.0 48.95 Q32.1 43.9 30.65 41.55 31.85 41.35 32.0 43.3" fill="#7b1b1b" fill-rule="evenodd" stroke="none"/>
    </g>
  </defs>
</svg>
