<?xml version="1.0" encoding="UTF-8" standalone="no"?>
<svg xmlns:ffdec="https://www.free-decompiler.com/flash" xmlns:xlink="http://www.w3.org/1999/xlink" ffdec:objectType="frame" height="57.35px" width="74.45px" xmlns="http://www.w3.org/2000/svg">
  <g transform="matrix(1.0, 0.0, 0.0, 1.0, 37.4, 59.0)">
    <use ffdec:characterId="15" height="57.35" transform="matrix(1.0, 0.0, 0.0, 1.0, -0.2, -30.35)" width="74.45" xlink:href="#sprite0"/>
  </g>
  <defs>
    <g id="sprite0">
      <use ffdec:characterId="2" height="39.8" transform="matrix(1.0, 0.0, 0.0, 1.0, 0.0, -0.55)" width="54.45" xlink:href="#sprite1"/>
      <use ffdec:characterId="4" height="50.65" transform="matrix(1.0, 0.0, 0.0, 1.0, -10.5, 3.35)" width="37.55" xlink:href="#sprite2"/>
      <use ffdec:characterId="4" height="50.65" transform="matrix(-1.0, 0.0, 0.0, 1.0, 10.55, 3.35)" width="37.55" xlink:href="#sprite2"/>
      <use ffdec:characterId="6" height="15.5" transform="matrix(1.0, 0.0, 0.0, 1.0, -0.55, 10.7)" width="36.95" xlink:href="#sprite3"/>
      <use ffdec:characterId="8" height="16.75" transform="matrix(1.0, 0.0, 0.0, 1.0, -9.25, 11.2)" width="11.75" xlink:href="#sprite4"/>
      <use ffdec:characterId="8" height="16.75" transform="matrix(-1.0, 0.0, 0.0, 1.0, 8.05, 10.95)" width="11.75" xlink:href="#sprite4"/>
      <use ffdec:characterId="10" height="35.25" transform="matrix(1.0, 0.0, 0.0, 1.0, -0.35, -11.0)" width="43.35" xlink:href="#sprite5"/>
      <use ffdec:characterId="12" height="2.9" transform="matrix(1.0, 0.0, 0.0, 1.0, -24.0, 0.15)" width="3.05" xlink:href="#sprite6"/>
      <use ffdec:characterId="12" height="2.9" transform="matrix(1.0, 0.0, 0.0, 1.0, -23.1, 5.25)" width="3.05" xlink:href="#sprite6"/>
      <use ffdec:characterId="12" height="2.9" transform="matrix(-1.0, 0.0, 0.0, 1.0, 23.2, -0.55)" width="3.05" xlink:href="#sprite6"/>
      <use ffdec:characterId="12" height="2.9" transform="matrix(-1.0, 0.0, 0.0, 1.0, 22.35, 4.45)" width="3.05" xlink:href="#sprite6"/>
      <use ffdec:characterId="12" height="2.9" transform="matrix(1.0, 0.0, 0.0, 1.0, -5.75, -18.35)" width="3.05" xlink:href="#sprite6"/>
      <use ffdec:characterId="12" height="2.9" transform="matrix(1.0, 0.0, 0.0, 1.0, -6.25, -13.4)" width="3.05" xlink:href="#sprite6"/>
      <use ffdec:characterId="12" height="2.9" transform="matrix(-1.0, 0.0, 0.0, 1.0, 6.0, -18.35)" width="3.05" xlink:href="#sprite6"/>
      <use ffdec:characterId="12" height="2.9" transform="matrix(-1.0, 0.0, 0.0, 1.0, 6.3, -13.4)" width="3.05" xlink:href="#sprite6"/>
    </g>
    <g id="sprite1">
      <use ffdec:characterId="1" height="39.8" transform="matrix(1.0, 0.0, 0.0, 1.0, 0.0, 0.0)" width="54.45" xlink:href="#shape0"/>
    </g>
    <g id="shape0">
      <path d="M-7.05 -17.75 Q-7.25 -17.85 -7.5 -17.5 -9.1 -16.8 -10.3 -14.85 -12.15 -12.1 -12.15 -9.1 -12.15 -5.15 -9.75 -2.2 -7.15 1.0 -3.05 1.0 2.1 1.0 4.95 -1.9 7.6 -4.65 7.6 -9.25 7.6 -12.7 6.0 -15.4 3.3 -19.9 -2.9 -19.0 L-2.5 -18.9 -2.65 -18.9 -3.55 -19.1 -5.5 -18.6 -7.0 -17.8 -7.05 -17.75 M8.4 -19.65 Q13.65 -14.85 17.9 -4.1 22.1 6.65 26.55 7.2 23.75 10.9 20.1 14.4 L15.55 18.1 13.15 13.55 Q10.25 15.8 4.2 15.8 L-6.1 15.65 -13.4 14.35 Q-13.45 14.85 -14.2 15.95 L-15.5 17.6 -20.25 12.8 Q-15.4 10.15 -15.35 7.55 -15.3 4.95 -15.65 0.05 -16.0 -4.9 -15.25 -8.75 L-15.1 -9.4 -13.85 -11.75 Q-11.75 -15.35 -9.05 -18.55 L-8.4 -19.7 -6.3 -20.6 Q-3.25 -21.7 -0.25 -21.7 2.85 -21.7 5.5 -20.8 L8.4 -19.65" fill="#191d1f" fill-rule="evenodd" stroke="none"/>
      <path d="M-2.5 -18.9 Q0.45 -17.75 1.8 -16.2 3.85 -13.95 3.85 -10.0 3.85 -8.05 0.65 -6.55 -1.85 -5.4 -3.35 -5.4 -4.4 -5.4 -6.05 -7.6 -8.2 -10.45 -8.2 -14.4 L-8.2 -14.6 -8.2 -14.85 -7.7 -16.65 -7.15 -17.45 -7.0 -17.7 -7.05 -17.75 -7.0 -17.8 -5.5 -18.6 -3.55 -19.1 -2.65 -18.9 -2.5 -18.9 M26.55 7.2 Q22.1 6.65 17.9 -4.1 13.65 -14.85 8.4 -19.65 L9.8 -18.8 Q13.85 -15.9 16.75 -9.15 19.65 -2.4 21.6 0.7 23.5 3.8 27.65 5.55 L26.55 7.2 M-15.1 -9.4 L-15.25 -8.75 Q-16.0 -4.9 -15.65 0.05 -15.3 4.95 -15.35 7.55 -15.4 10.15 -20.25 12.8 -25.4 7.45 -26.8 5.2 -22.75 3.75 -20.35 -2.7 L-18.6 -6.9 -18.7 -6.4 Q-19.15 -2.65 -19.1 1.35 L-19.1 3.35 -18.4 -0.15 -16.6 -6.0 -15.1 -9.4 M-3.15 -17.6 L-5.0 -17.75 Q-6.0 -17.35 -6.6 -16.25 L-6.3 -16.4 Q-7.45 -11.6 -2.6 -10.65 L-1.6 -10.75 Q3.05 -14.4 -1.5 -17.5 L-2.05 -17.55 -2.5 -17.75 -3.15 -17.6" fill="#586064" fill-rule="evenodd" stroke="none"/>
      <path d="M-7.05 -17.75 L-7.0 -17.7 -7.15 -17.45 -7.7 -16.65 -8.2 -14.85 -8.2 -14.6 -8.2 -14.4 Q-8.2 -10.45 -6.05 -7.6 -4.4 -5.4 -3.35 -5.4 -1.85 -5.4 0.65 -6.55 3.85 -8.05 3.85 -10.0 3.85 -13.95 1.8 -16.2 0.45 -17.75 -2.5 -18.9 L-2.9 -19.0 Q3.3 -19.9 6.0 -15.4 7.6 -12.7 7.6 -9.25 7.6 -4.65 4.95 -1.9 2.1 1.0 -3.05 1.0 -7.15 1.0 -9.75 -2.2 -12.15 -5.15 -12.15 -9.1 -12.15 -12.1 -10.3 -14.85 -9.1 -16.8 -7.5 -17.5 -7.25 -17.85 -7.05 -17.75" fill="#2a3135" fill-rule="evenodd" stroke="none"/>
      <path d="M-8.4 -19.7 L-9.05 -18.55 Q-11.75 -15.35 -13.85 -11.75 L-15.1 -9.4 -16.6 -6.0 -18.4 -0.15 -19.1 3.35 -19.1 1.35 Q-19.15 -2.65 -18.7 -6.4 L-18.6 -6.9 Q-16.8 -10.9 -14.5 -14.2 -12.05 -17.2 -9.8 -18.9 L-8.4 -19.7 M-2.05 -17.55 L-1.5 -17.5 Q3.05 -14.4 -1.6 -10.75 L-2.6 -10.65 Q-7.45 -11.6 -6.3 -16.4 L-6.6 -16.25 Q-6.0 -17.35 -5.0 -17.75 L-3.15 -17.6 -3.35 -16.9 Q-3.55 -15.85 -2.35 -15.85 -1.7 -15.85 -1.7 -16.6 -1.7 -17.25 -2.05 -17.55 M-1.2 -13.45 Q-0.85 -13.45 -0.85 -14.3 -0.85 -14.85 -1.4 -15.15 -2.0 -15.4 -2.0 -14.55 -1.6 -13.45 -1.2 -13.45" fill="#a7b8c0" fill-rule="evenodd" stroke="none"/>
      <path d="M-2.05 -17.55 Q-1.7 -17.25 -1.7 -16.6 -1.7 -15.85 -2.35 -15.85 -3.55 -15.85 -3.35 -16.9 L-3.15 -17.6 -2.5 -17.75 -2.05 -17.55 M-1.2 -13.45 Q-1.6 -13.45 -2.0 -14.55 -2.0 -15.4 -1.4 -15.15 -0.85 -14.85 -0.85 -14.3 -0.85 -13.45 -1.2 -13.45" fill="#ffffff" fill-rule="evenodd" stroke="none"/>
    </g>
    <g id="sprite2">
      <use ffdec:characterId="3" height="50.65" transform="matrix(1.0, 0.0, 0.0, 1.0, 0.0, 0.0)" width="37.55" xlink:href="#shape1"/>
    </g>
    <g id="shape1">
      <path d="M-6.65 6.65 Q-9.75 8.35 -15.5 10.15 L-20.1 4.35 -16.1 2.2 Q-12.55 0.05 -12.1 -1.5 L-6.65 6.65 M-8.3 16.25 L-4.9 9.6 Q-3.1 12.8 -4.25 14.6 L-6.6 17.8 -8.3 16.25 M-7.8 19.75 L-9.15 22.15 -10.5 21.05 -9.35 18.45 -7.8 19.75 M-25.55 8.2 L-26.2 7.35 -26.15 7.35 -23.55 7.3 Q-21.8 7.0 -20.7 5.5 -20.9 5.9 -20.65 5.65 L-18.2 9.3 -17.15 10.65 -21.4 11.6 -25.55 8.2" fill="#191d1f" fill-rule="evenodd" stroke="none"/>
      <path d="M-6.65 6.65 L-4.9 9.6 -8.3 16.25 -8.75 15.9 -8.75 15.5 Q-8.75 14.25 -9.45 14.0 -10.15 13.75 -10.2 14.8 L-11.2 14.1 -15.5 10.15 Q-9.75 8.35 -6.65 6.65 M-15.35 16.8 L-21.4 11.6 -17.15 10.65 -14.3 13.9 Q-11.45 17.05 -9.35 18.45 L-10.5 21.05 -11.95 19.65 -11.75 19.15 Q-11.75 18.4 -12.45 18.1 -13.15 17.85 -13.2 18.55 L-13.8 18.05 -13.8 17.5 Q-13.8 16.3 -14.6 16.25 -15.2 16.2 -15.35 16.8" fill="#586064" fill-rule="evenodd" stroke="none"/>
      <path d="M-15.5 10.15 L-11.2 14.1 -10.2 14.8 -10.2 15.0 Q-10.2 16.45 -9.35 16.45 -8.85 16.45 -8.75 16.1 L-8.75 15.9 -8.3 16.25 -6.6 17.8 -7.8 19.75 -9.35 18.45 Q-11.45 17.05 -14.3 13.9 L-17.15 10.65 -18.2 9.3 -20.65 5.65 Q-20.1 5.05 -20.1 4.35 L-15.5 10.15 M-9.15 22.15 L-9.55 24.2 Q-15.55 19.45 -17.25 17.7 L-25.55 8.2 -21.4 11.6 -15.35 16.8 -15.4 17.2 Q-15.45 18.6 -14.45 18.6 -14.0 18.6 -13.85 18.1 L-13.8 18.05 -13.2 18.55 -13.2 18.7 Q-13.2 19.75 -12.3 19.75 L-11.95 19.65 -10.5 21.05 -9.15 22.15" fill="#b8c9d2" fill-rule="evenodd" stroke="none"/>
      <path d="M-10.2 14.8 Q-10.15 13.75 -9.45 14.0 -8.75 14.25 -8.75 15.5 L-8.75 15.9 -8.75 16.1 Q-8.85 16.45 -9.35 16.45 -10.2 16.45 -10.2 15.0 L-10.2 14.8 M-13.8 18.05 L-13.85 18.1 Q-14.0 18.6 -14.45 18.6 -15.45 18.6 -15.4 17.2 L-15.35 16.8 Q-15.2 16.2 -14.6 16.25 -13.8 16.3 -13.8 17.5 L-13.8 18.05 M-13.2 18.55 Q-13.15 17.85 -12.45 18.1 -11.75 18.4 -11.75 19.15 L-11.95 19.65 -12.3 19.75 Q-13.2 19.75 -13.2 18.7 L-13.2 18.55" fill="#ffffff" fill-rule="evenodd" stroke="none"/>
      <path d="M2.1 -18.35 L2.1 -21.3 Q2.1 -22.05 1.5 -22.5 -3.0 -19.45 -5.3 -14.0 -7.65 -8.6 -9.85 -4.05 -12.1 0.45 -15.25 2.15 L-4.7 12.9 -2.4 8.45 -2.3 9.9 Q2.1 11.9 4.45 11.0 3.3 8.35 2.45 3.6 1.55 -1.15 1.45 -5.55 1.3 -9.95 1.7 -13.8 L2.1 -18.35 M3.6 -23.55 L3.25 -18.25 2.9 -11.0 Q2.6 -3.75 3.35 1.75 4.05 7.25 6.2 10.85 L10.85 11.25 10.85 12.45 0.1 12.05 -2.4 11.3 -3.2 13.15 -3.65 14.3 Q-3.95 14.85 -4.65 14.6 L-5.75 19.9 -5.9 20.3 -6.95 20.4 -7.8 20.35 -9.35 25.35 Q-15.45 20.9 -19.5 16.25 L-26.7 7.3 -21.0 5.85 -22.15 4.0 -17.2 2.45 -17.6 1.35 Q-12.5 -0.4 -10.35 -6.1 -8.2 -11.85 -4.5 -17.65 -0.85 -23.5 4.25 -24.7 L10.85 -25.2 10.85 -24.3 8.85 -24.3 3.6 -23.55 M-20.2 4.9 L-14.65 12.65 Q-11.5 16.4 -7.0 18.3 L-5.7 14.05 -16.2 3.45 -20.2 4.9 M-8.85 19.6 Q-11.35 17.7 -13.5 15.4 -17.6 11.05 -20.35 6.95 L-24.55 8.35 Q-22.15 11.6 -19.25 14.7 -15.25 19.05 -10.1 23.2 L-8.85 19.6" fill="#000000" fill-rule="evenodd" stroke="none"/>
    </g>
    <g id="sprite3">
      <use ffdec:characterId="5" height="15.5" transform="matrix(1.0, 0.0, 0.0, 1.0, 0.0, 0.0)" width="36.95" xlink:href="#shape2"/>
    </g>
    <g id="shape2">
      <path d="M-13.5 -5.1 L-13.75 -3.4 Q-13.75 -0.15 -11.45 1.25 -8.4 3.1 -0.1 3.1 3.75 3.1 6.25 0.65 8.1 -1.2 8.1 -2.6 8.1 -3.3 6.9 -5.0 L13.55 -5.85 Q13.1 -4.25 13.1 -2.45 13.1 -1.95 13.7 -0.85 L14.25 0.75 Q14.25 2.45 10.1 3.95 5.4 5.65 -1.45 5.65 -7.25 5.65 -10.95 4.6 -15.45 3.3 -15.45 0.8 L-15.05 -1.2 Q-14.7 -2.7 -14.7 -3.2 L-14.8 -5.25 -13.5 -5.1" fill="#586064" fill-rule="evenodd" stroke="none"/>
      <path d="M-14.8 -5.25 L-14.7 -3.2 Q-14.7 -2.7 -15.05 -1.2 L-15.45 0.8 Q-15.45 3.3 -10.95 4.6 -7.25 5.65 -1.45 5.65 5.4 5.65 10.1 3.95 14.25 2.45 14.25 0.75 L13.7 -0.85 Q13.1 -1.95 13.1 -2.45 13.1 -4.25 13.55 -5.85 16.85 -6.6 17.1 -6.85 L17.65 -6.8 17.85 -4.75 Q17.85 2.05 14.15 4.95 11.05 7.4 4.45 7.4 L-10.85 6.35 Q-18.4 4.5 -18.4 -1.6 L-17.9 -5.9 -14.8 -5.25" fill="#313a3f" fill-rule="evenodd" stroke="none"/>
      <path d="M6.9 -5.0 Q8.1 -3.3 8.1 -2.6 8.1 -1.2 6.25 0.65 3.75 3.1 -0.1 3.1 -8.4 3.1 -11.45 1.25 -13.75 -0.15 -13.75 -3.4 L-13.5 -5.1 -12.05 -5.05 Q-12.85 -4.5 -12.85 -3.55 -12.85 -3.1 -10.85 -2.2 -8.6 -1.2 -6.6 -1.2 2.0 -1.2 3.65 -2.1 4.6 -2.65 4.4 -4.05 L3.35 -4.95 6.9 -5.0" fill="#848e93" fill-rule="evenodd" stroke="none"/>
      <path d="M3.35 -4.95 L4.4 -4.05 Q4.6 -2.65 3.65 -2.1 2.0 -1.2 -6.6 -1.2 -8.6 -1.2 -10.85 -2.2 -12.85 -3.1 -12.85 -3.55 -12.85 -4.5 -12.05 -5.05 -5.7 -4.75 3.35 -4.95 M-12.55 -4.2 L-12.25 -3.85 -11.65 -3.7 -11.0 -3.85 -10.75 -4.2 -11.0 -4.55 -11.65 -4.7 -12.25 -4.55 -12.55 -4.2 M-9.55 -4.2 L-9.8 -4.3 -10.05 -4.2 -10.15 -4.05 -10.05 -3.85 -9.8 -3.8 -9.55 -3.85 -9.45 -4.05 -9.55 -4.2" fill="#c6d3da" fill-rule="evenodd" stroke="none"/>
      <path d="M-9.55 -4.2 L-9.45 -4.05 -9.55 -3.85 -9.8 -3.8 -10.05 -3.85 -10.15 -4.05 -10.05 -4.2 -9.8 -4.3 -9.55 -4.2 M-12.55 -4.2 L-12.25 -4.55 -11.65 -4.7 -11.0 -4.55 -10.75 -4.2 -11.0 -3.85 -11.65 -3.7 -12.25 -3.85 -12.55 -4.2" fill="#ffffff" fill-rule="evenodd" stroke="none"/>
      <path d="M17.45 -2.75 L17.4 -6.55 Q14.7 -5.4 14.05 -5.2 L8.95 -4.25 -3.7 -3.9 -17.25 -5.35 Q-18.35 1.25 -15.85 3.85 -13.35 6.45 -2.5 7.05 8.35 7.6 12.65 5.55 L14.05 4.75 15.9 3.1 Q17.25 1.85 17.45 -2.75 M18.1 -7.75 L18.45 -3.75 Q18.6 -2.35 18.05 0.75 17.5 3.85 13.75 6.0 9.95 8.15 -1.1 7.65 -12.2 7.1 -15.75 5.05 -19.3 2.95 -18.15 -6.4 4.2 -2.85 18.1 -7.75" fill="#000000" fill-rule="evenodd" stroke="none"/>
    </g>
    <g id="sprite4">
      <use ffdec:characterId="7" height="16.75" transform="matrix(1.0, 0.0, 0.0, 1.0, 0.0, 0.0)" width="11.75" xlink:href="#shape3"/>
    </g>
    <g id="shape3">
      <path d="M-13.95 -13.5 L-14.1 -13.5 -14.15 -13.5 -14.6 -13.5 -13.5 -13.9 Q-10.7 -14.75 -9.4 -11.45 -8.2 -8.15 -6.6 -6.1 -5.0 -4.0 -5.4 -1.5 -5.9 1.15 -8.25 2.2 -10.6 3.25 -12.65 1.4 -14.8 -0.6 -15.45 -4.1 L-14.45 -3.05 -13.65 -1.3 -13.3 -0.8 Q-12.5 0.0 -11.15 0.25 -8.95 0.6 -8.25 -1.45 -7.65 -3.35 -8.15 -5.3 -8.6 -7.3 -9.75 -8.7 L-9.8 -8.75 -10.0 -9.4 Q-10.6 -11.35 -11.95 -12.6 -12.95 -13.4 -13.95 -13.5" fill="#191d1f" fill-rule="evenodd" stroke="none"/>
      <path d="M-14.45 -3.05 Q-14.0 -2.75 -13.35 -2.65 L-12.3 -2.8 Q-10.6 -3.6 -10.0 -5.65 -9.4 -7.3 -9.8 -8.75 L-9.75 -8.7 Q-8.6 -7.3 -8.15 -5.3 -7.65 -3.35 -8.25 -1.45 -8.95 0.6 -11.15 0.25 -12.5 0.0 -13.3 -0.8 L-13.65 -1.3 -14.45 -3.05" fill="#2a3135" fill-rule="evenodd" stroke="none"/>
      <path d="M-15.9 -6.4 L-15.45 -5.8 -15.05 -5.45 Q-14.1 -5.25 -13.2 -5.7 -11.3 -6.95 -11.5 -9.3 -11.7 -10.75 -12.45 -12.15 -12.95 -13.2 -13.95 -13.5 -12.95 -13.4 -11.95 -12.6 -10.6 -11.35 -10.0 -9.4 L-9.8 -8.75 Q-9.4 -7.3 -10.0 -5.65 -10.6 -3.6 -12.3 -2.8 L-13.35 -2.65 Q-14.0 -2.75 -14.45 -3.05 L-15.45 -4.1 -15.5 -4.2 -15.55 -4.3 -15.9 -6.3 -15.9 -6.4" fill="#586064" fill-rule="evenodd" stroke="none"/>
      <path d="M-15.9 -6.4 L-16.35 -10.4 Q-16.35 -11.6 -15.8 -12.4 L-15.4 -12.9 -15.1 -13.2 -14.9 -13.3 -14.6 -13.5 -14.15 -13.5 -14.1 -13.5 -13.95 -13.5 Q-12.95 -13.2 -12.45 -12.15 -11.7 -10.75 -11.5 -9.3 -11.3 -6.95 -13.2 -5.7 -14.1 -5.25 -15.05 -5.45 L-15.45 -5.8 -15.9 -6.4" fill="#a7b8c0" fill-rule="evenodd" stroke="none"/>
      <path d="M-15.6 -3.6 Q-16.8 -9.8 -16.7 -10.7 -16.6 -13.4 -13.35 -14.0 L-11.1 -13.8 Q-10.15 -13.3 -8.85 -10.5 -7.55 -7.6 -6.45 -6.25 -5.35 -5.0 -5.15 -4.2 -4.7 -1.75 -5.15 -0.25 -6.0 2.0 -9.25 2.6 -11.45 3.05 -13.15 1.5 -15.0 -0.2 -15.6 -3.6 M-15.65 -10.65 Q-15.6 -8.15 -14.7 -2.8 -13.8 2.5 -9.45 1.95 -5.25 1.3 -5.6 -2.2 -5.9 -5.65 -7.25 -6.7 -8.6 -7.7 -9.25 -9.85 -9.9 -12.05 -10.25 -12.65 L-11.4 -13.6 -13.9 -13.55 Q-15.7 -13.2 -15.65 -10.65" fill="#000000" fill-rule="evenodd" stroke="none"/>
    </g>
    <g id="sprite5">
      <use ffdec:characterId="9" height="35.25" transform="matrix(1.0, 0.0, 0.0, 1.0, 0.0, 0.0)" width="43.35" xlink:href="#shape4"/>
    </g>
    <g id="shape4">
      <path d="M-5.8 1.5 L-5.35 1.6 -5.05 1.65 -3.4 1.9 0.9 2.1 Q-1.45 5.2 -5.15 13.0 L-8.3 12.4 -10.9 11.15 Q-10.75 8.45 -9.05 0.5 L-5.8 1.5 M-11.7 -1.5 L-10.05 -0.05 -11.65 3.4 Q-12.5 5.5 -13.1 9.7 L-15.05 7.9 -11.7 -1.5" fill="#ffd366" fill-rule="evenodd" stroke="none"/>
      <path d="M0.9 2.1 L2.8 1.9 2.4 1.8 4.3 1.55 5.15 1.4 5.7 1.35 8.85 0.7 Q9.95 7.5 7.15 10.85 4.7 13.85 -0.6 13.85 L-2.9 13.55 -5.15 13.0 Q-1.45 5.2 0.9 2.1" fill="#fabc47" fill-rule="evenodd" stroke="none"/>
      <path d="M12.85 -16.0 Q15.1 -13.7 17.75 -9.1 20.95 -3.55 20.95 -0.4 20.95 1.3 19.7 4.05 18.0 7.7 15.1 10.25 L15.45 6.6 15.6 3.3 Q15.6 -0.1 15.0 -2.35 13.95 -6.1 13.85 -6.75 L13.5 -11.4 12.85 -16.0 M11.95 13.25 Q10.25 14.6 6.75 15.6 2.9 16.7 -0.95 16.7 -5.85 16.7 -8.45 15.45 L-11.3 13.95 -10.9 11.15 -8.3 12.4 -5.15 13.0 -2.9 13.55 -0.6 13.85 Q4.7 13.85 7.15 10.85 9.95 7.5 8.85 0.7 L10.5 -0.4 10.4 0.65 11.95 13.25 M-13.8 12.45 L-15.85 10.7 -15.05 7.9 -13.1 9.7 -13.8 12.45 M-12.8 -16.25 Q-14.05 -8.35 -11.8 -3.85 -9.55 0.6 -5.8 1.5 L-9.05 0.5 -10.05 -0.05 -11.7 -1.5 -13.1 -3.8 Q-14.6 -7.1 -14.6 -8.6 -13.55 -14.25 -12.8 -16.25" fill="#f6a336" fill-rule="evenodd" stroke="none"/>
      <path d="M-11.3 13.95 L-12.5 13.15 Q-13.55 12.5 -13.8 12.45 L-13.1 9.7 Q-12.5 5.5 -11.65 3.4 L-10.05 -0.05 -9.05 0.5 Q-10.75 8.45 -10.9 11.15 L-11.3 13.95 M-15.85 10.7 Q-17.1 9.7 -18.0 8.25 -16.95 6.7 -15.1 2.1 -13.25 -2.5 -13.1 -3.8 L-11.7 -1.5 -15.05 7.9 -15.85 10.7" fill="#fff0cc" fill-rule="evenodd" stroke="none"/>
      <path d="M15.1 10.25 Q14.55 11.25 13.4 12.25 L11.95 13.25 10.4 0.65 10.5 -0.4 Q11.6 -1.6 12.8 -4.0 L13.85 -6.75 Q13.95 -6.1 15.0 -2.35 15.6 -0.1 15.6 3.3 L15.45 6.6 15.1 10.25" fill="#ba7a25" fill-rule="evenodd" stroke="none"/>
      <path d="M5.7 1.35 Q8.7 0.75 11.35 -2.9 14.2 -6.85 12.85 -16.0 L13.5 -11.4 13.85 -6.75 12.8 -4.0 Q11.6 -1.6 10.5 -0.4 L8.85 0.7 5.7 1.35 M-18.0 8.25 L-19.7 4.85 Q-21.05 1.9 -21.05 0.75 -21.05 -2.2 -20.25 -4.9 -19.45 -7.65 -12.8 -16.25 -13.55 -14.25 -14.6 -8.6 -14.6 -7.1 -13.1 -3.8 -13.25 -2.5 -15.1 2.1 -16.95 6.7 -18.0 8.25" fill="#ffffff" fill-rule="evenodd" stroke="none"/>
      <path d="M12.7 -15.85 Q14.35 -6.9 12.2 -3.0 10.0 0.85 5.15 2.05 0.25 3.25 -2.8 2.8 -5.9 2.3 -10.45 -1.0 -15.0 -4.3 -12.85 -15.15 L-13.75 -12.0 Q-14.2 -10.15 -14.2 -7.65 L-14.2 -7.35 -14.3 -8.75 Q-14.3 -10.9 -13.95 -11.95 L-13.1 -15.45 Q-21.9 -5.55 -20.65 1.1 -19.35 7.8 -15.65 10.75 -11.95 13.7 -7.1 15.25 -2.25 16.8 2.15 16.35 6.5 15.9 10.95 13.6 15.35 11.3 19.6 4.45 23.85 -2.45 12.7 -15.85 M11.1 -3.25 Q13.5 -6.4 11.7 -17.65 23.45 -5.0 21.25 2.2 19.55 7.9 15.05 11.95 11.75 14.95 7.55 16.35 1.85 18.3 -4.05 17.25 -9.35 16.2 -14.65 12.35 -20.0 8.5 -21.55 2.1 -23.15 -4.3 -12.0 -17.5 -13.95 -6.8 -11.6 -3.5 -9.3 -0.25 -5.15 1.05 -1.0 2.35 3.85 1.1 8.65 -0.15 11.1 -3.25 M-13.6 -4.8 Q-13.05 -3.1 -11.05 0.1 L-10.6 0.7 Q-12.25 -0.55 -12.8 -2.15 L-13.6 -4.8" fill="#000000" fill-rule="evenodd" stroke="none"/>
    </g>
    <g id="sprite6">
      <use ffdec:characterId="11" height="2.9" transform="matrix(1.0, 0.0, 0.0, 1.0, 0.0, 0.0)" width="3.05" xlink:href="#shape5"/>
    </g>
    <g id="shape5">
      <path d="M0.6 -0.35 Q0.6 -0.9 0.0 -0.9 -0.65 -0.9 -0.65 -0.35 -0.65 0.35 0.0 0.35 0.6 0.35 0.6 -0.35 M-1.3 0.25 Q-1.3 -1.05 -0.1 -1.05 1.15 -1.05 1.15 0.1 1.15 1.35 -0.1 1.35 -1.15 1.35 -1.3 0.25" fill="#c9c9c9" fill-rule="evenodd" stroke="none"/>
      <path d="M0.6 -0.35 Q0.6 0.35 0.0 0.35 -0.65 0.35 -0.65 -0.35 -0.65 -0.9 0.0 -0.9 0.6 -0.9 0.6 -0.35" fill="#ffffff" fill-rule="evenodd" stroke="none"/>
      <path d="M1.25 -0.25 L1.35 0.4 1.1 1.05 Q-0.1 2.1 -1.05 1.4 -2.0 0.65 -1.6 -0.1 L-1.1 -1.05 -0.15 -1.15 -0.05 -1.2 -0.55 -0.85 Q-1.45 0.1 -0.9 0.5 L0.65 0.6 1.0 -0.8 1.25 -0.25" fill="#000000" fill-rule="evenodd" stroke="none"/>
    </g>
  </defs>
</svg>
