<?xml version="1.0" encoding="UTF-8" standalone="no"?>
<svg xmlns:ffdec="https://www.free-decompiler.com/flash" xmlns:xlink="http://www.w3.org/1999/xlink" ffdec:objectType="frame" height="56.85px" width="79.85px" xmlns="http://www.w3.org/2000/svg">
  <g transform="matrix(1.0, 0.0, 0.0, 1.0, 39.85, 59.5)">
    <use ffdec:characterId="2" height="49.2" transform="matrix(1.0, 0.0, 0.0, 1.0, -0.2, -34.4)" width="52.9" xlink:href="#sprite0"/>
    <use ffdec:characterId="4" height="25.15" transform="matrix(1.0, 0.0, 0.0, 1.0, 27.7, -44.95)" width="24.6" xlink:href="#sprite1"/>
    <use ffdec:characterId="6" height="20.4" transform="matrix(-0.0277, -0.7167, 0.8631, 0.1778, -22.05, -12.2)" width="21.5" xlink:href="#sprite2"/>
    <use ffdec:characterId="6" height="20.4" transform="matrix(0.9736, -0.2282, 0.2282, 0.9736, -27.1, -23.55)" width="21.5" xlink:href="#sprite2"/>
    <use ffdec:characterId="8" height="5.45" transform="matrix(1.0, 0.0, 0.0, 0.8125, -13.15, -14.35)" width="4.25" xlink:href="#sprite3"/>
    <use ffdec:characterId="8" height="5.45" transform="matrix(1.0, 0.0, 0.0, 0.7778, -16.75, -15.7)" width="4.25" xlink:href="#sprite3"/>
    <use ffdec:characterId="8" height="5.45" transform="matrix(1.0, 0.0, 0.0, 0.8148, -14.05, -18.7)" width="4.25" xlink:href="#sprite3"/>
  </g>
  <defs>
    <g id="sprite0">
      <use ffdec:characterId="1" height="49.2" transform="matrix(1.0, 0.0, 0.0, 1.0, 0.0, 0.0)" width="52.9" xlink:href="#shape0"/>
    </g>
    <g id="shape0">
      <path d="M-13.35 -9.9 L-10.2 -15.15 Q-5.7 -22.6 1.65 -24.45 3.4 -25.1 8.0 -23.15 12.55 -21.25 20.55 -15.45 L18.25 -14.8 15.65 -16.55 13.0 -15.85 9.7 -17.7 8.8 -14.45 -1.5 -13.55 Q3.75 -12.5 7.4 -8.45 L5.05 -7.6 4.25 -7.6 -1.8 -8.5 -5.45 -8.85 Q-5.45 -7.75 -2.65 -6.4 0.5 -4.95 4.25 -4.95 L8.2 -5.3 9.15 -1.7 Q3.8 2.6 -2.85 2.85 -6.6 3.25 -10.35 1.85 L-13.95 0.6 Q-13.6 -2.35 -11.75 -5.15 L-10.6 -6.6 -12.9 -6.7 -13.35 -9.9" fill="#ff0000" fill-rule="evenodd" stroke="none"/>
      <path d="M-13.35 -9.9 L-12.9 -6.7 -10.6 -6.6 -11.75 -5.15 Q-13.6 -2.35 -13.95 0.6 L-10.35 1.85 Q-6.6 3.25 -2.85 2.85 3.8 2.6 9.15 -1.7 L8.2 -5.3 4.25 -4.95 Q0.5 -4.95 -2.65 -6.4 -5.45 -7.75 -5.45 -8.85 L-1.8 -8.5 4.25 -7.6 5.05 -7.6 7.4 -8.45 Q3.75 -12.5 -1.5 -13.55 L8.8 -14.45 9.7 -17.7 13.0 -15.85 15.65 -16.55 18.25 -14.8 20.55 -15.45 20.6 -15.35 Q21.8 -14.55 23.25 -14.6 24.2 -14.6 24.2 -13.75 24.2 -13.2 23.5 -12.7 22.55 -12.1 20.95 -12.1 L19.65 -12.35 17.65 -13.0 12.15 -13.0 Q11.7 -12.9 11.0 -12.1 10.3 -11.25 10.3 -10.9 L12.4 -8.1 Q14.65 -5.2 15.2 -3.35 L16.2 0.85 16.75 3.95 Q16.75 6.25 10.6 9.6 3.8 13.25 -3.0 13.6 L-9.2 13.6 Q-12.5 13.75 -15.0 11.35 -17.05 9.4 -17.05 7.95 L-16.65 6.7 Q-17.45 3.55 -17.45 1.7 -17.45 -1.7 -13.4 -9.75 L-13.35 -9.9" fill="#930000" fill-rule="evenodd" stroke="none"/>
      <path d="M-17.85 3.5 L-17.8 3.5 Q-15.95 5.2 -15.3 5.45 -13.85 5.4 -12.6 6.55 -11.85 7.3 -11.6 7.9 L-10.3 7.65 Q-9.25 7.8 -9.0 8.15 L-8.6 8.55 -8.2 8.35 -6.75 8.1 Q-5.9 8.1 -5.55 8.8 L-3.45 8.8 -2.5 8.65 -0.35 8.65 1.95 8.35 2.0 8.25 Q2.45 7.7 2.85 7.7 3.35 7.7 3.4 7.95 L3.45 7.95 3.9 7.5 Q4.4 7.1 4.7 7.15 L5.9 7.3 6.2 7.55 9.55 6.6 10.15 5.75 Q10.9 4.9 11.85 4.9 12.25 4.9 12.5 5.3 L12.65 5.2 13.25 5.3 13.65 5.3 13.25 5.6 Q13.0 5.75 13.1 6.45 L14.25 7.15 14.25 7.3 14.5 7.9 14.45 8.35 13.2 8.7 10.05 9.05 Q10.25 9.45 11.05 9.6 11.95 9.95 12.2 10.65 L12.05 10.65 Q10.35 10.5 9.15 11.35 L9.0 13.25 Q5.2 12.65 3.6 14.3 4.2 14.55 3.6 15.2 L2.25 16.05 2.05 16.05 Q-0.9 14.9 -3.8 16.05 L-4.5 17.3 -6.05 17.3 -8.55 15.35 Q-10.85 16.45 -12.95 16.4 L-12.95 13.6 -16.85 12.9 -16.8 12.65 -16.0 12.05 -16.1 10.7 -16.25 10.9 Q-16.8 11.75 -17.35 11.75 -17.95 11.75 -18.1 11.15 L-18.15 10.5 Q-18.15 9.65 -17.45 9.25 L-18.7 8.35 -18.65 7.9 -18.2 7.5 -18.35 7.3 -18.75 6.45 -18.85 5.95 -18.75 5.05 -18.75 4.9 Q-19.3 4.45 -19.3 3.9 L-19.25 3.55 -18.7 3.55 -17.85 3.5 M-11.35 13.25 L-11.25 13.7 Q-11.1 14.2 -10.4 14.2 -9.9 14.2 -9.3 13.7 L-8.85 13.1 Q-8.85 12.25 -10.05 12.25 -11.35 12.25 -11.35 13.25 M0.7 14.65 Q1.4 14.65 1.4 13.8 1.4 12.75 0.15 12.3 -1.1 11.85 -1.1 13.0 L-0.8 13.8 Q-0.25 14.65 0.7 14.65 M4.1 10.65 L4.35 11.15 Q4.7 11.5 5.15 11.5 5.8 11.5 5.8 10.8 5.8 10.15 4.95 10.0 4.1 9.85 4.1 10.65 M-15.95 14.55 Q-14.9 14.75 -14.9 15.55 -14.9 16.4 -16.15 16.4 -16.8 16.4 -16.95 15.9 L-17.0 15.45 Q-17.0 14.3 -15.95 14.55 M-10.4 17.1 Q-10.4 16.45 -9.85 16.45 -9.3 16.4 -9.3 17.3 -9.3 17.8 -9.85 17.8 L-10.35 17.7 -10.4 17.1" fill="#ffffff" fill-rule="evenodd" stroke="none"/>
      <path d="M13.65 5.3 L14.9 4.95 Q16.45 1.25 16.4 0.75 16.3 0.25 16.35 -1.0 16.45 -2.25 18.0 -2.4 19.55 -2.55 19.65 -0.9 19.65 0.15 20.75 1.15 21.85 2.2 21.85 2.9 L21.1 4.5 21.75 5.5 Q22.45 6.35 22.45 7.05 L22.7 7.5 22.85 7.9 21.2 10.55 20.5 11.5 Q20.25 12.25 18.7 13.35 17.2 14.35 16.35 14.65 L16.5 15.1 Q16.5 15.75 15.7 16.15 14.9 16.5 14.9 17.2 14.9 18.05 13.45 19.1 L10.95 20.5 9.85 20.5 Q8.4 21.65 4.85 21.65 L3.8 21.3 3.45 20.95 Q2.05 21.75 0.9 21.75 L-0.4 21.55 -1.2 21.35 -2.75 21.35 Q-2.75 22.45 -3.65 22.45 -4.25 22.45 -5.0 21.75 -6.0 21.0 -6.8 20.85 L-8.65 20.85 Q-9.2 22.25 -10.0 22.25 -10.55 22.25 -11.2 21.7 L-12.0 20.85 -15.45 20.35 -15.75 19.65 Q-19.2 19.65 -20.55 17.9 -21.6 16.65 -21.25 15.1 L-21.85 14.2 -22.15 13.95 -21.9 13.7 Q-23.2 13.1 -24.85 11.35 -24.85 10.75 -24.25 10.5 L-25.25 9.5 -25.45 8.5 Q-25.45 7.85 -24.3 6.35 -23.15 4.9 -23.15 3.55 -23.15 3.0 -22.55 2.6 L-23.55 1.3 Q-23.55 0.45 -22.5 0.45 L-21.7 0.7 Q-20.9 0.7 -20.85 0.1 L-20.95 -0.75 Q-20.7 -1.95 -20.05 -1.7 -19.2 -1.15 -18.7 -1.15 L-17.95 -1.45 -17.2 -1.0 -17.15 -0.55 Q-17.15 1.0 -17.3 1.75 -17.15 2.1 -17.15 2.75 -17.15 3.3 -17.85 3.5 L-18.7 3.55 -19.25 3.55 -19.3 3.9 Q-19.3 4.45 -18.75 4.9 L-18.75 5.05 -18.85 5.95 -18.75 6.45 -18.35 7.3 -18.2 7.5 -18.65 7.9 -18.7 8.35 -17.45 9.25 Q-18.15 9.65 -18.15 10.5 L-18.1 11.15 Q-17.95 11.75 -17.35 11.75 -16.8 11.75 -16.25 10.9 L-16.1 10.7 -16.0 12.05 -16.8 12.65 -16.85 12.9 -12.95 13.6 -12.95 16.4 Q-10.85 16.45 -8.55 15.35 L-6.05 17.3 -4.5 17.3 -3.8 16.05 Q-0.9 14.9 2.05 16.05 L2.25 16.05 3.6 15.2 Q4.2 14.55 3.6 14.3 5.2 12.65 9.0 13.25 L9.15 11.35 Q10.35 10.5 12.05 10.65 L12.2 10.65 Q11.95 9.95 11.05 9.6 10.25 9.45 10.05 9.05 L13.2 8.7 14.45 8.35 14.5 7.9 14.25 7.3 14.25 7.15 13.1 6.45 Q13.0 5.75 13.25 5.6 L13.65 5.3 M4.1 10.65 Q4.1 9.85 4.95 10.0 5.8 10.15 5.8 10.8 5.8 11.5 5.15 11.5 4.7 11.5 4.35 11.15 L4.1 10.65 M0.7 14.65 Q-0.25 14.65 -0.8 13.8 L-1.1 13.0 Q-1.1 11.85 0.15 12.3 1.4 12.75 1.4 13.8 1.4 14.65 0.7 14.65 M-11.35 13.25 Q-11.35 12.25 -10.05 12.25 -8.85 12.25 -8.85 13.1 L-9.3 13.7 Q-9.9 14.2 -10.4 14.2 -11.1 14.2 -11.25 13.7 L-11.35 13.25 M-10.4 17.1 L-10.35 17.7 -9.85 17.8 Q-9.3 17.8 -9.3 17.3 -9.3 16.4 -9.85 16.45 -10.4 16.45 -10.4 17.1 M-15.95 14.55 Q-17.0 14.3 -17.0 15.45 L-16.95 15.9 Q-16.8 16.4 -16.15 16.4 -14.9 16.4 -14.9 15.55 -14.9 14.75 -15.95 14.55" fill="#d1d1d1" fill-rule="evenodd" stroke="none"/>
      <path d="M-8.3 -16.65 Q-7.4 -17.35 -7.4 -16.15 -7.4 -13.6 -8.45 -13.6 -9.05 -13.6 -9.2 -14.3 L-9.2 -15.0 Q-9.2 -15.85 -8.3 -16.65 M-12.2 -5.9 L-14.65 -6.0 Q-14.55 -7.65 -13.6 -7.55 -12.7 -7.45 -12.2 -5.9 M-13.2 -2.75 L-13.05 -2.9 -12.7 -3.95 -11.75 -4.95 Q-10.25 -2.4 -10.0 -1.5 L-10.35 -1.25 Q-11.95 -1.25 -13.2 -2.75 M-14.3 -0.95 L-13.15 -0.55 -13.85 0.5 -14.6 1.1 -14.6 -0.1 -14.4 -0.65 -14.3 -0.95 M-9.05 -2.55 L-9.15 -3.0 Q-9.15 -5.15 -7.55 -5.85 -5.9 -6.55 -5.9 -5.0 -5.9 -4.75 -7.2 -3.45 L-8.65 -2.2 Q-8.95 -2.2 -9.05 -2.55 M-12.45 2.55 L-11.5 1.9 -11.3 2.7 -11.3 2.95 -12.45 2.55 M-9.35 -0.05 Q-7.3 -0.05 -5.55 0.65 -3.75 1.35 -3.75 2.35 L-3.95 2.85 Q-4.25 3.2 -4.65 3.2 L-7.55 2.35 Q-9.9 1.3 -10.1 0.15 L-9.35 -0.05 M-4.45 -19.8 Q-2.7 -20.05 -2.7 -19.0 -2.7 -18.6 -3.6 -18.25 L-5.3 -17.9 Q-5.9 -17.9 -6.15 -18.25 L-6.25 -18.65 Q-6.25 -19.55 -4.45 -19.8 M-7.3 -17.55 Q-7.3 -19.45 -5.65 -17.45 -4.05 -15.6 -4.05 -15.1 L-4.65 -14.05 -6.2 -15.8 -7.3 -17.55 M5.75 -19.45 Q5.55 -19.55 5.55 -19.9 5.55 -20.55 6.9 -21.65 8.2 -22.8 8.2 -21.2 8.2 -20.85 7.5 -20.05 6.75 -19.3 6.35 -19.3 L6.0 -19.35 6.1 -18.25 4.8 -14.4 Q4.1 -14.4 3.8 -14.95 L3.65 -15.5 Q3.65 -16.85 4.95 -18.65 5.5 -19.45 5.75 -19.45 M3.3 -20.5 L2.6 -21.8 Q2.6 -23.3 3.95 -22.25 5.3 -21.25 5.3 -20.15 L5.05 -19.45 5.05 -19.3 5.0 -18.95 Q4.8 -18.8 4.45 -18.8 2.85 -18.8 1.65 -19.3 0.65 -19.7 0.65 -20.05 0.65 -20.95 2.9 -20.55 L3.3 -20.5 M9.75 -15.25 Q9.15 -15.45 8.2 -16.55 L7.15 -17.95 7.25 -18.3 Q8.3 -18.5 10.25 -16.7 L9.7 -15.85 9.75 -15.25 M13.4 -15.65 L13.75 -16.0 14.45 -16.4 14.25 -16.4 Q13.75 -16.4 13.55 -17.1 13.4 -17.55 13.4 -17.95 13.4 -18.95 14.15 -18.45 14.95 -18.05 14.95 -17.45 14.95 -16.7 14.6 -16.5 L14.85 -16.5 Q14.95 -18.05 16.75 -16.3 L18.15 -14.75 15.9 -15.1 15.2 -15.85 15.2 -15.7 15.0 -15.25 13.4 -15.65 M8.15 -4.1 L9.0 -4.15 9.2 -2.2 Q8.8 -2.05 8.7 -1.7 8.35 -0.3 7.1 0.75 L6.95 0.8 Q6.75 1.1 6.2 1.1 L5.5 1.45 5.15 1.65 4.85 1.35 4.7 0.85 Q4.7 0.4 5.55 -0.25 L6.9 -1.35 7.5 -2.0 7.45 -2.0 Q6.1 -2.0 5.4 -2.5 4.8 -2.9 4.8 -3.45 L4.95 -3.95 Q5.2 -4.45 6.45 -3.95 L6.55 -3.95 Q8.3 -3.35 8.3 -2.55 L8.3 -2.4 8.5 -2.4 8.65 -2.65 Q8.35 -3.0 8.15 -4.05 L8.15 -4.1 M3.6 -9.85 Q2.5 -9.15 2.0 -9.15 L1.3 -9.2 Q1.15 -9.2 1.15 -9.55 1.15 -9.9 2.4 -10.95 L3.4 -9.9 3.6 -9.85 M0.85 -12.2 L1.1 -10.45 0.85 -9.4 Q0.6 -8.65 0.25 -8.65 -0.75 -8.65 -1.25 -10.45 L-1.6 -12.15 Q-1.6 -14.3 -0.25 -13.6 L-0.1 -13.55 0.1 -12.7 Q0.25 -12.55 0.5 -12.5 L0.85 -12.2 M0.75 -6.95 L0.3 -7.45 2.75 -7.55 4.0 -6.9 3.75 -6.75 0.75 -6.95 M-2.3 -4.45 Q-2.7 -4.05 -3.05 -4.05 -3.75 -4.05 -4.05 -4.5 L-4.15 -5.1 -3.9 -5.65 -3.25 -5.0 -2.7 -4.85 -2.3 -4.45 M-2.35 -7.25 Q-0.65 -8.85 -0.65 -7.1 L-2.35 -7.25 M-2.75 -8.7 Q-4.3 -8.7 -4.85 -9.55 L-5.15 -10.35 Q-5.15 -11.5 -3.55 -11.25 -1.95 -10.95 -1.95 -9.5 -1.95 -8.85 -2.75 -8.7" fill="#ffde6b" fill-rule="evenodd" stroke="none"/>
      <path d="M-14.65 -6.0 L-12.2 -5.9 -12.1 -5.55 -11.75 -4.95 -12.7 -3.95 -13.05 -2.9 -13.2 -2.75 -13.6 -3.35 Q-14.65 -4.85 -14.65 -5.65 L-14.65 -6.0 M-14.6 1.1 L-15.45 1.2 Q-16.4 1.2 -16.75 0.45 L-17.0 -0.3 Q-17.0 -1.65 -15.65 -1.35 L-14.3 -0.95 -14.4 -0.65 -14.6 -0.1 -14.6 1.1 M-11.3 2.95 Q-11.85 5.9 -13.2 5.9 -14.3 5.9 -14.3 4.65 -14.3 4.0 -13.55 3.4 -13.4 3.2 -12.45 2.55 L-11.3 2.95 M9.75 -15.25 L9.7 -15.85 10.25 -16.7 10.9 -16.05 10.65 -15.6 Q10.4 -15.25 9.95 -15.25 L9.75 -15.25 M18.15 -14.75 L18.6 -13.95 18.45 -13.6 Q18.25 -13.35 17.95 -13.35 17.45 -13.35 16.15 -14.8 L15.9 -15.1 18.15 -14.75 M15.0 -15.25 L14.3 -14.4 13.2 -13.25 Q12.7 -13.25 12.4 -13.6 L12.3 -13.95 Q12.3 -14.65 13.4 -15.65 L15.0 -15.25 M12.2 -3.75 Q13.8 -4.4 13.8 -2.9 L13.05 -2.15 Q12.15 -1.65 11.3 -1.65 10.65 -1.65 10.55 -2.0 L10.55 -2.4 Q10.55 -3.2 12.2 -3.75 M5.15 1.65 L5.5 1.45 6.2 1.1 Q6.75 1.1 6.95 0.8 L7.1 0.75 Q8.35 -0.3 8.7 -1.7 8.8 -2.05 9.2 -2.2 L9.0 -4.15 8.15 -4.1 7.95 -5.55 Q7.95 -6.9 9.15 -6.6 10.3 -6.35 10.3 -4.8 10.4 -2.75 9.35 -2.4 L10.75 -1.3 Q13.1 1.1 13.1 1.65 L12.85 2.05 12.5 2.2 Q11.25 2.2 9.7 0.15 L8.85 -1.1 7.85 0.15 Q6.55 1.8 5.85 1.8 L5.15 1.65 M2.4 -10.95 L3.25 -11.65 Q5.3 -13.25 5.3 -11.5 5.3 -11.1 3.95 -10.1 L3.6 -9.85 3.4 -9.9 2.4 -10.95 M-0.1 -13.55 L0.85 -12.2 0.5 -12.5 Q0.25 -12.55 0.1 -12.7 L-0.1 -13.55 M4.0 -6.9 Q5.15 -6.2 5.15 -5.35 5.15 -4.5 4.3 -4.5 3.2 -4.5 1.65 -6.0 L0.75 -6.95 3.75 -6.75 4.0 -6.9 M-0.65 -7.1 Q-1.6 -5.2 -2.3 -4.45 L-2.7 -4.85 -3.25 -5.0 -3.9 -5.65 -2.4 -7.25 -2.35 -7.25 -0.65 -7.1" fill="#f18f00" fill-rule="evenodd" stroke="none"/>
      <path d="M14.65 -20.1 Q17.25 -18.3 18.8 -17.5 L20.15 -16.1 24.85 -15.5 25.5 -14.75 25.45 -14.3 25.45 -14.25 Q25.4 -13.6 24.7 -12.75 23.8 -11.7 22.75 -11.75 L13.7 -12.45 Q12.75 -12.5 12.05 -11.8 L11.3 -11.2 13.25 -7.3 15.15 -4.3 16.25 -1.9 Q16.9 -1.8 18.2 -0.15 L17.9 0.6 17.35 1.45 17.25 2.1 17.3 2.85 16.25 4.2 16.5 4.15 17.15 4.45 Q15.75 5.15 14.6 6.7 L12.2 5.35 9.45 7.1 Q9.95 5.1 12.7 4.15 L13.55 4.75 14.4 4.6 14.8 3.9 15.75 1.8 15.8 -0.45 Q15.0 -2.9 13.65 -4.9 10.35 -8.9 9.85 -10.55 L7.35 -9.95 9.5 -11.7 10.45 -12.25 12.5 -13.15 Q13.7 -13.85 18.55 -13.15 22.75 -12.5 23.7 -14.1 L23.4 -14.15 Q21.15 -14.2 19.95 -15.2 L18.55 -16.55 14.05 -19.25 9.15 -22.15 Q5.5 -24.15 3.95 -24.2 -2.4 -24.45 -7.0 -19.1 -8.85 -17.0 -12.25 -10.45 -14.75 -5.95 -15.7 -3.3 -17.0 0.35 -16.9 3.45 -16.2 3.95 -16.2 4.6 L-16.35 4.95 -16.65 5.15 Q-17.45 5.15 -18.35 4.25 L-19.1 3.45 -18.85 2.8 -18.75 2.75 -18.5 2.8 -18.25 2.75 -17.95 2.85 -17.95 2.3 -17.6 -0.5 -17.8 -0.45 Q-19.05 -0.45 -19.45 -2.1 -19.45 -3.55 -18.35 -2.85 -17.55 -2.3 -17.35 -1.55 -15.7 -8.1 -9.5 -16.85 L-7.85 -19.3 Q-6.9 -20.65 -5.6 -21.65 -3.9 -22.95 -1.6 -23.6 -0.95 -23.8 0.65 -24.75 L5.4 -24.9 Q7.6 -24.15 10.75 -22.45 13.4 -21.05 14.65 -20.1 M17.6 -3.35 L17.6 -3.4 17.65 -3.4 18.7 -3.7 Q20.15 -3.7 20.15 -2.75 20.15 -1.75 18.2 -1.75 17.4 -1.75 17.25 -2.2 L17.2 -2.55 Q17.2 -3.1 17.6 -3.35 M21.35 -1.4 Q21.35 -1.15 20.75 -0.7 L20.15 -0.3 19.7 -0.2 19.4 -0.3 Q19.25 -0.4 19.25 -0.7 19.25 -1.3 20.35 -1.8 21.35 -2.25 21.35 -1.4 M21.3 0.3 L21.2 0.8 21.05 1.05 Q21.35 1.35 22.25 1.5 22.8 1.6 22.8 2.15 L22.1 3.65 22.2 4.05 Q23.45 3.8 23.45 4.65 23.45 5.1 23.05 5.45 L22.1 5.8 Q21.15 5.8 20.95 5.1 L20.9 4.25 Q20.9 3.65 21.15 3.3 L22.1 2.3 22.1 2.2 20.3 1.4 19.6 0.8 19.5 0.6 Q19.5 0.1 20.45 -0.3 20.9 -0.5 21.1 -0.3 L21.3 0.3 M23.3 6.85 Q23.3 7.3 22.5 7.5 22.1 7.5 21.85 7.15 L21.65 6.75 Q21.65 6.3 22.15 6.3 L22.85 6.35 Q23.3 6.35 23.3 6.85 M21.1 8.5 Q21.55 8.15 22.45 7.9 24.1 7.35 24.1 8.5 24.1 9.2 22.9 9.2 L22.15 9.6 22.3 9.75 Q22.75 10.3 22.65 10.75 22.65 11.35 21.6 12.35 L20.1 13.25 Q20.65 13.8 20.6 14.25 20.6 15.35 18.15 15.1 L18.8 16.15 Q18.8 17.3 16.2 17.4 16.8 17.8 16.8 18.6 16.8 19.55 16.1 19.55 L13.95 19.0 12.9 19.0 12.95 19.5 12.8 19.7 12.55 19.85 Q12.05 19.75 11.9 19.15 L11.9 18.5 Q11.9 18.1 12.75 17.9 L14.6 18.0 14.85 17.95 14.75 16.9 14.95 16.25 16.8 15.85 Q16.55 15.3 16.55 14.4 16.55 14.1 16.7 14.05 17.15 13.7 18.6 13.7 L18.4 13.2 18.5 12.85 18.35 12.5 Q18.4 12.05 19.05 11.6 L20.25 10.6 19.3 10.25 Q20.05 10.15 20.75 9.05 L21.1 8.5 M4.6 8.1 L4.0 8.45 2.8 8.1 2.3 8.3 1.95 7.95 Q1.95 7.5 2.5 7.25 L3.8 7.3 Q4.35 6.2 5.85 6.2 7.4 6.25 7.3 7.5 L7.1 7.85 6.45 8.1 Q5.35 7.5 5.05 7.5 L4.6 8.1 M1.65 21.75 Q2.65 20.45 3.8 20.55 L4.9 20.8 Q5.25 20.9 5.7 20.4 6.05 19.9 6.55 19.9 7.25 20.0 7.95 20.55 L8.7 21.3 Q9.25 19.85 10.5 19.65 11.7 19.55 11.7 20.4 L11.55 20.9 9.85 20.8 10.0 21.8 Q10.0 22.45 9.25 22.45 L7.55 21.75 6.6 20.95 Q6.2 20.95 5.85 21.45 5.55 21.95 5.05 21.85 L4.05 21.5 3.2 21.5 Q2.3 21.95 2.2 22.45 L2.45 23.2 2.2 23.6 1.8 23.85 0.8 23.0 -0.05 22.0 -1.4 21.75 -1.6 21.75 -1.95 22.15 Q-2.35 22.9 -2.55 23.95 L-3.0 24.1 Q-3.35 24.1 -3.7 23.35 -4.05 22.7 -5.0 23.0 L-5.5 22.1 Q-5.55 21.4 -5.7 21.25 L-8.4 21.15 Q-8.95 21.3 -9.4 21.95 -9.75 22.5 -9.6 22.9 L-9.95 23.05 Q-10.45 23.05 -10.95 21.95 L-11.35 20.9 Q-12.35 21.05 -12.65 21.6 -12.9 22.0 -13.35 22.0 L-14.25 21.45 -16.3 21.05 -16.45 20.45 -16.2 19.75 Q-15.9 19.35 -15.95 18.95 -15.65 19.05 -15.45 19.3 L-15.05 19.75 -13.9 20.0 -13.35 20.25 -12.45 19.9 -11.15 19.65 Q-9.85 19.7 -10.0 21.85 L-9.85 21.95 -9.25 21.1 Q-8.9 20.55 -8.35 20.6 L-5.4 20.75 -3.5 22.3 -3.1 21.3 Q-2.75 20.45 -2.25 20.45 L-2.1 20.45 -1.1 20.4 Q-0.05 20.45 0.8 21.1 L1.65 21.75 M-6.85 8.7 Q-6.2 8.35 -6.2 9.2 L-6.55 9.8 -7.05 10.3 Q-7.6 10.15 -7.6 9.55 -7.55 9.05 -6.85 8.7 M-0.2 8.2 Q-0.25 8.8 -1.95 11.1 -2.65 11.1 -2.95 10.65 -3.1 10.1 -3.3 10.1 -4.05 10.1 -4.05 9.5 L-3.8 8.5 Q-3.35 7.85 -2.75 7.95 -2.25 7.95 -2.0 8.55 -1.55 7.75 -0.85 7.65 -0.2 7.5 -0.2 8.2 M-19.75 1.2 L-19.85 1.3 -20.25 1.4 Q-20.9 1.4 -21.7 0.6 L-22.35 -0.1 Q-22.35 -1.15 -20.95 -0.55 L-20.65 -0.4 Q-19.6 0.15 -19.6 0.75 L-19.75 1.2 M-15.0 7.65 Q-15.85 7.65 -16.0 5.5 L-15.7 4.85 Q-15.25 4.6 -14.75 5.45 -14.4 6.05 -14.4 7.05 L-14.55 7.4 -15.0 7.65 M-13.1 6.65 Q-13.0 4.65 -11.25 6.4 -9.5 8.25 -9.55 9.4 -9.55 10.35 -10.4 10.35 -11.1 10.3 -13.1 6.65 M-19.95 18.15 L-22.95 17.95 -23.4 17.4 -21.25 15.5 -22.15 14.65 -22.8 13.8 -25.2 14.8 -25.6 14.45 -26.0 14.0 Q-24.65 12.15 -22.35 11.8 L-21.9 12.0 -21.4 11.5 -20.2 12.9 -21.0 13.75 -20.7 14.65 -20.5 15.85 -21.05 16.9 -19.5 17.05 -18.65 18.1 -18.35 18.2 -17.95 18.1 -17.35 18.6 -19.0 19.7 -19.65 19.55 -19.95 18.15 M-23.15 0.85 Q-22.85 0.65 -22.35 1.0 L-21.85 2.1 -21.45 2.9 -21.55 2.8 -22.2 2.15 Q-22.3 2.8 -22.0 3.9 -21.8 5.45 -21.3 5.45 -21.1 5.45 -21.0 5.6 L-20.95 5.8 Q-21.1 6.25 -21.45 6.35 L-21.45 6.5 Q-21.45 7.0 -21.6 7.2 L-23.55 7.5 -25.95 6.85 Q-27.45 6.15 -27.4 5.3 L-27.35 4.95 -26.6 4.95 -24.25 5.1 -24.85 4.35 -25.95 2.05 Q-25.9 -0.05 -24.15 2.05 L-22.9 3.85 -23.2 1.95 -23.15 0.85 M-23.95 10.6 Q-24.7 11.2 -25.3 11.2 -26.15 11.2 -26.15 10.5 -26.15 9.85 -24.7 9.05 -23.25 8.25 -23.25 9.6 -23.25 10.0 -23.95 10.6" fill="#1d1c1c" fill-rule="evenodd" stroke="none"/>
    </g>
    <g id="sprite1">
      <use ffdec:characterId="3" height="25.15" transform="matrix(1.0, 0.0, 0.0, 1.0, 0.0, 0.0)" width="24.6" xlink:href="#shape1"/>
    </g>
    <g id="shape1">
      <path d="M1.5 0.7 L7.8 0.15 10.7 7.05 1.5 0.7" fill="#f0bb00" fill-rule="evenodd" stroke="none"/>
      <path d="M10.8 -6.35 L11.25 -6.35 7.8 0.15 1.5 0.7 0.6 0.5 1.8 6.45 -4.45 11.8 -4.5 10.65 -2.5 7.65 -0.05 2.3 0.15 1.25 -0.65 1.85 -1.55 2.7 -4.55 4.4 -10.65 0.55 -0.2 -0.1 -4.55 -3.15 -2.95 -11.8 1.1 -0.25 10.8 -6.35" fill="#f18f00" fill-rule="evenodd" stroke="none"/>
      <path d="M1.8 6.45 L0.6 0.5 1.5 0.7 10.7 7.05 2.15 6.1 1.8 6.45" fill="#aa6500" fill-rule="evenodd" stroke="none"/>
      <path d="M10.8 -6.35 L1.1 -0.25 -2.95 -11.8 -2.85 -11.8 -2.85 -11.9 -2.65 -11.75 2.9 -5.15 10.8 -6.35 M-4.55 4.4 L-1.55 2.7 -0.65 1.85 0.15 1.25 -0.05 2.3 -2.5 7.65 -4.5 10.65 -4.55 10.0 -4.55 4.4" fill="#ffde6b" fill-rule="evenodd" stroke="none"/>
      <path d="M-4.55 -3.15 L-0.2 -0.1 -10.65 0.55 Q-7.55 -1.0 -4.6 -2.5 L-4.55 -3.15" fill="#ffffcc" fill-rule="evenodd" stroke="none"/>
      <path d="M11.85 -5.95 L8.75 -0.5 8.2 0.2 11.35 6.6 11.85 7.75 4.95 7.3 2.35 6.95 Q-0.15 9.5 -3.2 11.55 L-5.3 12.45 Q-5.75 9.25 -5.4 5.8 L-5.35 4.85 Q-8.5 2.95 -11.75 1.1 L-12.3 0.55 Q-9.1 -1.75 -5.35 -3.05 -5.2 -6.55 -4.45 -10.0 -4.15 -11.45 -3.2 -12.7 1.8 -8.8 3.25 -6.2 7.9 -7.5 12.3 -6.8 L11.85 -5.95 M2.75 -4.95 L-1.7 -10.15 -2.7 -11.35 Q-4.1 -7.95 -4.3 -4.05 L-4.5 -2.5 Q-7.35 -0.7 -10.45 0.45 L-4.7 3.8 -4.15 4.35 -4.35 9.45 -4.35 11.25 2.0 5.65 7.6 6.2 10.2 6.6 Q8.55 3.8 7.6 0.85 L7.35 -0.15 10.75 -6.1 8.95 -5.9 2.75 -4.95" fill="#996600" fill-rule="evenodd" stroke="none"/>
      <path d="M8.7 -5.3 L10.45 -5.9 2.1 0.4 7.7 4.75 1.05 2.25 -3.15 8.85 -0.4 1.3 -10.85 0.55 -0.85 -0.4 -2.45 -10.6 1.25 -1.3 8.7 -5.3" fill="#ffffff" fill-rule="evenodd" stroke="none"/>
    </g>
    <g id="sprite2">
      <use ffdec:characterId="5" height="20.4" transform="matrix(1.0, 0.0, 0.0, 1.0, 0.0, 0.0)" width="21.5" xlink:href="#shape2"/>
    </g>
    <g id="shape2">
      <path d="M8.55 10.2 Q3.75 5.1 -3.55 3.95 L-6.4 3.25 -3.15 -0.2 -7.5 -1.4 Q-7.85 -1.45 -8.2 -1.7 L-8.05 -2.0 -5.55 -3.65 -5.15 -4.05 -10.75 -9.7 Q-7.1 -10.6 -2.4 -9.8 0.8 -9.15 3.35 -7.3 L5.55 -9.15 6.45 -9.15 6.7 -6.95 7.25 -3.35 9.7 -4.95 10.75 -5.2 Q9.55 -1.55 9.55 2.25 9.6 6.05 9.1 9.85 L8.55 10.2 M7.5 5.45 Q7.35 2.75 8.05 0.1 L8.75 -2.6 7.1 -1.7 Q6.3 -1.65 5.95 -2.45 L5.35 -4.5 4.95 -6.6 4.05 -5.5 Q0.5 -7.3 -4.0 -8.2 L-7.15 -8.55 Q-4.65 -6.7 -3.8 -4.1 L-3.7 -3.0 Q-4.4 -2.7 -5.05 -2.35 L-4.35 -1.9 -2.25 -0.85 -1.8 -0.45 -4.0 2.35 Q2.55 3.25 7.15 7.0 L4.45 2.25 Q1.35 -3.2 -0.2 -4.75 L-0.05 -5.05 Q0.3 -5.35 1.2 -4.65 L2.0 -3.95 Q3.15 -2.75 5.8 1.95 L7.5 5.45" fill="#082000" fill-rule="evenodd" stroke="none"/>
      <path d="M7.5 5.45 L5.8 1.95 Q3.15 -2.75 2.0 -3.95 L1.2 -4.65 Q0.3 -5.35 -0.05 -5.05 L-0.2 -4.75 Q1.35 -3.2 4.45 2.25 L7.15 7.0 Q2.55 3.25 -4.0 2.35 L-1.8 -0.45 -2.25 -0.85 -4.35 -1.9 -5.05 -2.35 Q-4.4 -2.7 -3.7 -3.0 L-3.8 -4.1 Q-4.65 -6.7 -7.15 -8.55 L-4.0 -8.2 Q0.5 -7.3 4.05 -5.5 L4.95 -6.6 5.35 -4.5 5.95 -2.45 Q6.3 -1.65 7.1 -1.7 L8.75 -2.6 8.05 0.1 Q7.35 2.75 7.5 5.45" fill="#268200" fill-rule="evenodd" stroke="none"/>
      <path d="M4.2 -3.35 L3.25 -4.3 Q0.55 -6.55 -2.85 -7.3 L-5.85 -7.7 Q-6.15 -7.95 -5.9 -8.3 -5.1 -9.2 -1.7 -8.0 2.0 -6.7 4.4 -3.55 L4.2 -3.35" fill="#ffffff" fill-rule="evenodd" stroke="none"/>
    </g>
    <g id="sprite3">
      <use ffdec:characterId="7" height="5.45" transform="matrix(1.0, 0.0, 0.0, 1.0, 0.0, 0.0)" width="4.25" xlink:href="#shape3"/>
    </g>
    <g id="shape3">
      <path d="M0.8 -0.5 L0.8 -0.95 Q0.8 -1.9 0.1 -1.85 -0.6 -1.8 -0.6 -0.95 -0.6 -0.2 0.25 -0.2 0.75 -0.2 0.8 -0.5 M1.75 -0.1 Q1.75 0.7 1.2 1.35 0.7 2.05 0.05 2.1 L-1.1 1.45 Q-1.5 0.85 -1.55 -0.05 -1.6 -0.8 -1.15 -1.5 -0.7 -2.1 -0.1 -2.05 0.55 -2.1 1.15 -1.6 1.65 -0.95 1.75 -0.1" fill="#ff0000" fill-rule="evenodd" stroke="none"/>
      <path d="M1.75 -0.1 Q1.65 -0.95 1.15 -1.6 0.55 -2.1 -0.1 -2.05 -0.7 -2.1 -1.15 -1.5 -1.6 -0.8 -1.55 -0.05 -1.5 0.85 -1.1 1.45 L0.05 2.1 Q0.7 2.05 1.2 1.35 1.75 0.7 1.75 -0.1 M-1.45 -2.05 Q-0.9 -2.75 -0.05 -2.75 0.85 -2.85 1.45 -2.1 2.1 -1.25 2.1 -0.2 2.15 0.95 1.6 1.75 0.95 2.6 0.05 2.7 -0.8 2.65 -1.4 1.8 -2.1 1.1 -2.15 0.0 -2.15 -1.15 -1.45 -2.05" fill="#560000" fill-rule="evenodd" stroke="none"/>
      <path d="M0.8 -0.5 Q0.75 -0.2 0.25 -0.2 -0.6 -0.2 -0.6 -0.95 -0.6 -1.8 0.1 -1.85 0.8 -1.9 0.8 -0.95 L0.8 -0.5" fill="#ffffff" fill-rule="evenodd" stroke="none"/>
    </g>
  </defs>
</svg>
