<?xml version="1.0" encoding="UTF-8" standalone="no"?>
<svg xmlns:ffdec="https://www.free-decompiler.com/flash" xmlns:xlink="http://www.w3.org/1999/xlink" ffdec:objectType="frame" height="34.6px" width="59.9px" xmlns="http://www.w3.org/2000/svg">
  <g transform="matrix(1.0, 0.0, 0.0, 1.0, 34.35, 38.85)">
    <use ffdec:characterId="2" height="34.6" transform="matrix(1.0, 0.0, 0.0, 1.0, -14.35, -21.85)" width="39.7" xlink:href="#sprite0"/>
    <use ffdec:characterId="4" height="17.85" transform="matrix(1.0, 0.0, 0.0, 1.0, 13.7, -16.95)" width="23.65" xlink:href="#sprite1"/>
  </g>
  <defs>
    <g id="sprite0">
      <use ffdec:characterId="1" height="34.6" transform="matrix(1.0, 0.0, 0.0, 1.0, 0.0, 0.0)" width="39.7" xlink:href="#shape0"/>
    </g>
    <g id="shape0">
      <path d="M-15.05 -9.0 L-13.8 -10.05 -11.7 -11.85 Q-10.05 -13.35 -6.3 -14.7 -2.55 -16.05 1.65 -16.15 L5.8 -16.0 7.25 -15.8 8.95 -14.0 Q15.7 -5.85 8.45 2.55 1.85 10.25 -8.7 8.1 -18.0 6.3 -16.3 -3.25 L-15.05 -9.0" fill="#ffffff" fill-rule="evenodd" stroke="none"/>
      <path d="M11.2 -14.95 L11.9 -14.75 Q21.85 -5.0 16.55 3.35 11.2 11.7 3.75 14.8 -3.7 17.85 -8.85 16.75 -14.0 15.6 -17.9 8.75 -19.3 6.25 -19.3 3.25 L-18.9 4.0 -17.2 6.3 Q-15.85 7.95 -13.95 9.4 -12.35 10.65 -10.25 11.2 L-5.3 11.75 -0.05 10.75 Q3.3 9.9 6.1 8.0 L10.95 4.25 11.05 3.85 11.55 3.5 11.75 3.1 Q13.75 0.1 14.35 -3.5 14.85 -6.7 13.65 -9.6 L11.2 -14.95" fill="#beb7ac" fill-rule="evenodd" stroke="none"/>
      <path d="M-19.3 3.25 Q-19.4 -2.05 -15.05 -9.0 L-16.3 -3.25 Q-18.0 6.3 -8.7 8.1 1.85 10.25 8.45 2.55 15.7 -5.85 8.95 -14.0 L7.25 -15.8 11.2 -14.95 13.65 -9.6 Q14.85 -6.7 14.35 -3.5 13.75 0.1 11.75 3.1 L11.55 3.5 11.05 3.85 10.95 4.25 6.1 8.0 Q3.3 9.9 -0.05 10.75 L-5.3 11.75 -10.25 11.2 Q-12.35 10.65 -13.95 9.4 -15.85 7.95 -17.2 6.3 L-18.9 4.0 -19.3 3.25" fill="#9e968a" fill-rule="evenodd" stroke="none"/>
      <path d="M1.9 -13.55 L1.9 -13.6 Q7.4 -13.4 7.4 -7.55 7.4 -6.3 6.75 -4.95 5.7 -2.75 3.55 -2.75 -0.5 -2.75 -2.5 -4.05 -0.8 -4.3 0.1 -6.15 0.75 -7.5 0.75 -8.55 0.75 -10.05 -0.3 -11.6 L-1.4 -12.65 Q-0.35 -13.3 0.8 -13.45 L1.9 -13.55 M-10.8 -7.8 L-10.85 -6.75 Q-10.85 -4.85 -10.5 -4.0 -9.5 -1.6 -6.15 -1.6 L-5.0 -1.7 -4.3 0.7 Q-4.3 4.6 -11.15 4.6 -14.1 4.6 -14.75 2.75 L-14.85 0.6 -14.5 -3.7 Q-13.6 -7.6 -10.8 -7.8" fill="#beb7ac" fill-rule="evenodd" stroke="none"/>
      <path d="M11.5 4.2 L10.7 5.65 9.55 7.65 Q8.15 9.8 3.1 11.55 L-0.2 12.45 -2.85 12.7 -7.7 12.4 -10.0 10.35 -10.15 10.25 -10.7 8.6 -9.9 8.8 -9.55 8.95 -9.3 8.95 -9.05 8.95 -6.5 9.7 -1.8 9.8 Q2.5 8.85 6.25 6.2 7.85 5.05 8.9 3.5 L9.95 1.55 Q10.95 2.6 11.5 4.2" fill="#ff0000" fill-rule="evenodd" stroke="none"/>
      <path d="M-7.7 12.4 L-9.25 12.15 -10.65 11.75 Q-12.25 11.15 -13.7 9.75 L-15.4 7.65 -16.7 5.6 Q-16.65 4.85 -15.8 4.85 L-13.35 6.2 Q-10.1 7.3 -4.55 7.15 1.0 7.0 6.15 2.25 9.95 -1.25 10.1 -4.0 L10.0 -5.55 9.8 -6.55 Q10.05 -10.75 11.4 -7.6 12.8 -4.4 13.1 -2.25 13.4 -0.15 12.2 2.7 L11.9 3.3 11.5 4.2 Q10.95 2.6 9.95 1.55 L8.9 3.5 Q7.85 5.05 6.25 6.2 2.5 8.85 -1.8 9.8 L-6.5 9.7 -9.05 8.95 -9.3 8.95 -9.55 8.95 -9.9 8.8 -10.7 8.6 -10.15 10.25 -10.0 10.35 -7.7 12.4" fill="#830000" fill-rule="evenodd" stroke="none"/>
      <path d="M1.1 -15.6 L-2.25 -15.15 -5.75 -14.4 -8.85 -13.45 -8.9 -13.35 -9.0 -13.7 Q-9.0 -14.75 -4.5 -15.95 0.4 -17.25 5.35 -16.95 19.7 -16.0 19.7 -2.2 19.7 1.05 17.95 4.35 16.4 7.2 13.85 9.2 12.05 11.2 7.25 13.9 2.4 16.55 -1.8 16.7 3.55 14.3 7.55 11.75 L12.0 8.4 11.95 8.45 12.45 8.0 12.65 7.85 14.65 6.25 16.1 4.05 Q18.15 0.5 18.15 -2.05 18.15 -6.15 16.15 -9.25 13.6 -13.15 7.15 -14.9 L7.25 -15.0 1.1 -15.6 M-11.95 -6.2 L-11.35 -4.25 Q-9.95 -1.0 -6.7 -1.0 L-5.45 -1.25 -5.3 -0.05 Q-5.3 1.75 -5.65 2.3 -6.55 3.6 -10.05 3.6 -12.85 3.6 -13.65 1.85 L-13.9 0.05 Q-13.9 -5.25 -11.95 -6.2 M0.45 -12.25 L0.4 -12.35 1.55 -12.4 Q3.3 -12.25 4.6 -11.05 6.0 -9.7 6.0 -7.9 6.0 -6.8 5.45 -5.7 4.75 -4.4 3.6 -3.9 L0.35 -3.9 -0.25 -4.15 Q0.6 -4.75 1.2 -5.95 1.9 -7.45 1.9 -8.7 1.9 -10.65 0.55 -11.7 L0.45 -12.25 M-10.55 -12.15 Q-15.2 -9.85 -17.2 -4.3 -18.6 -0.5 -18.6 4.45 -18.6 8.4 -16.45 11.55 -13.55 15.85 -4.35 16.95 L-9.75 17.6 Q-15.15 17.6 -17.95 12.5 -20.0 8.75 -20.0 4.45 -20.0 -1.1 -18.7 -4.55 -16.6 -10.0 -11.1 -12.35 L-10.55 -12.15" fill="#000000" fill-rule="evenodd" stroke="none"/>
      <path d="M3.4 -4.3 Q2.35 -4.3 2.0 -5.15 1.85 -5.55 1.85 -6.05 1.85 -7.7 3.3 -7.7 4.7 -7.7 4.7 -5.8 4.7 -4.3 3.4 -4.3 M-9.85 0.15 Q-9.85 -0.95 -8.75 -1.0 -7.7 -1.0 -7.7 0.55 -7.7 2.05 -8.75 2.05 -9.55 2.05 -9.75 1.15 L-9.85 0.15" fill="#ff0000" fill-rule="evenodd" stroke="none"/>
      <path d="M9.2 -13.1 L11.5 -9.85 Q14.15 -5.35 14.0 -3.25 L13.95 -0.35 15.1 0.2 Q14.6 0.9 14.05 0.9 L13.75 0.9 12.9 3.35 14.5 3.8 14.6 4.15 Q13.95 4.7 13.15 4.7 L12.2 4.55 10.7 6.65 Q11.15 6.8 10.55 7.9 L9.8 7.65 8.45 8.95 Q3.4 13.6 -1.95 13.6 L-4.5 13.55 -4.95 14.35 -5.35 13.5 -8.55 13.15 -9.2 13.95 -9.65 13.85 -9.75 13.35 -9.65 12.85 -9.9 12.75 -10.55 12.5 -10.9 12.65 -11.25 12.35 -12.2 12.4 -13.4 13.25 Q-14.25 13.25 -14.2 12.35 L-13.05 11.0 -16.0 8.4 Q-17.15 6.9 -17.0 4.25 L-16.9 3.55 -16.95 3.25 -16.8 2.1 -16.7 2.05 -16.5 1.35 -16.25 1.35 -16.15 2.05 Q-15.6 2.95 -14.9 4.8 L-13.45 5.85 Q-13.2 5.15 -12.6 5.0 -12.3 5.4 -12.35 6.15 L-12.35 6.25 -10.05 6.7 Q-9.85 4.65 -9.05 4.25 L-8.85 4.35 -8.85 4.75 -9.05 6.8 -8.3 6.85 -5.45 6.8 -6.05 5.15 -5.85 4.25 -5.35 3.4 Q-4.9 3.8 -4.45 5.45 L-4.15 6.75 -1.35 6.65 -1.6 6.3 -3.1 3.4 Q-2.05 3.05 -0.55 4.8 L0.25 5.9 2.25 4.65 1.7 4.0 Q0.75 2.8 0.5 2.0 1.5 1.7 2.55 3.05 L3.2 3.9 5.15 2.05 4.65 1.65 3.05 0.4 Q3.65 -0.9 5.35 0.2 L6.2 0.9 Q7.35 -0.45 8.1 -1.75 L7.8 -1.9 Q6.5 -2.65 6.3 -3.4 L6.55 -3.75 8.4 -2.9 8.6 -2.8 9.15 -5.15 9.15 -5.5 Q8.35 -5.7 8.15 -5.85 L8.1 -5.85 Q8.0 -5.9 8.05 -6.25 8.1 -6.85 9.15 -6.85 9.0 -8.9 8.3 -10.9 L7.85 -12.15 6.95 -13.5 8.3 -13.9 9.2 -13.1 M11.15 -6.55 L10.75 -7.35 10.7 -6.7 11.15 -6.55 M10.6 -5.3 L10.0 -2.25 11.3 -1.6 Q10.9 -1.15 10.4 -1.15 L9.65 -1.2 9.4 -0.65 7.25 1.9 7.45 2.1 7.2 2.55 6.55 2.7 6.35 2.7 3.85 4.65 4.3 5.25 4.15 5.7 3.5 5.9 2.9 5.35 0.85 6.75 1.4 7.65 Q1.15 8.2 0.65 8.2 0.15 8.2 -0.5 7.65 L-1.1 8.05 -4.1 8.05 -4.65 8.35 -4.8 8.05 -9.2 8.05 -9.2 8.2 -9.9 8.45 -10.0 8.05 -12.65 7.6 -12.7 8.05 -13.15 8.35 -13.55 7.95 -13.6 7.4 -13.55 7.25 -15.15 6.25 -15.9 5.55 -15.4 6.9 Q-14.0 9.15 -12.55 10.45 -10.9 8.8 -11.0 10.75 L-11.2 11.2 -10.95 11.2 -9.95 11.45 -9.1 11.65 -9.05 11.5 Q-8.4 10.2 -7.9 10.0 L-7.65 11.1 -8.0 12.0 -6.1 12.25 -5.5 12.25 -5.5 12.2 Q-5.4 10.75 -4.75 10.25 -4.3 10.5 -4.25 11.1 L-4.25 12.2 Q3.6 11.75 8.35 7.15 L8.5 7.0 7.75 6.45 7.75 5.9 9.3 6.15 10.85 4.15 10.8 3.8 11.4 3.25 11.75 2.65 11.75 2.05 12.15 0.7 11.7 0.5 10.85 -0.05 10.75 -0.25 12.35 -0.6 Q12.4 -3.0 11.6 -5.4 L10.6 -5.3" fill="#000000" fill-rule="evenodd" stroke="none"/>
    </g>
    <g id="sprite1">
      <use ffdec:characterId="3" height="17.85" transform="matrix(1.0, 0.0, 0.0, 1.0, 0.0, 0.0)" width="23.65" xlink:href="#shape1"/>
    </g>
    <g id="shape1">
      <path d="M10.7 8.9 Q9.9 8.9 8.25 5.6 6.25 1.55 3.2 -0.6 1.6 -1.7 -4.15 -4.65 L-11.8 -8.6 Q-9.2 -10.45 3.45 -2.25 11.85 3.45 11.85 7.25 11.85 8.9 10.7 8.9" fill="#ff0000" fill-rule="evenodd" stroke="none"/>
    </g>
  </defs>
</svg>
