<?xml version="1.0" encoding="UTF-8" standalone="no"?>
<svg xmlns:ffdec="https://www.free-decompiler.com/flash" xmlns:xlink="http://www.w3.org/1999/xlink" ffdec:objectType="frame" height="36.0px" width="36.6px" xmlns="http://www.w3.org/2000/svg">
  <g transform="matrix(1.0, 0.0, 0.0, 1.0, -1.45, 43.6)">
    <use ffdec:characterId="2" height="15.65" transform="matrix(-0.8154, 0.2518, 0.0885, 0.9887, 15.6, -43.0)" width="13.45" xlink:href="#sprite0"/>
    <use ffdec:characterId="2" height="15.65" transform="matrix(0.4877, 0.6423, -0.7094, 0.6665, 31.4, -36.7)" width="13.45" xlink:href="#sprite1"/>
    <use ffdec:characterId="4" height="24.3" transform="matrix(0.8394, 0.3134, -0.3134, 0.8394, 9.35, -36.1)" width="27.55" xlink:href="#sprite2"/>
    <use ffdec:characterId="6" height="8.35" transform="matrix(1.0746, 0.3959, -0.3959, 1.0746, 10.55, -28.15)" width="13.85" xlink:href="#sprite3"/>
  </g>
  <defs>
    <g id="sprite0">
      <use ffdec:characterId="1" height="15.65" transform="matrix(1.0, 0.0, 0.0, 1.0, 0.0, 0.0)" width="13.45" xlink:href="#shape0"/>
    </g>
    <g id="shape0">
      <path d="M0.25 9.1 Q0.6 7.55 1.45 5.5 2.0 4.15 3.45 2.15 4.9 0.2 5.4 0.1 8.25 0.4 10.4 4.75 L10.65 5.25 Q7.1 8.5 0.25 9.1" fill="#23292f" fill-rule="evenodd" stroke="none"/>
      <path d="M10.65 5.25 L10.7 5.35 Q12.15 8.55 12.15 11.0 12.15 13.5 9.9 14.2 L5.85 14.5 Q1.35 14.5 0.35 13.3 0.0 12.9 0.0 10.9 L0.2 9.25 0.25 9.1 Q7.1 8.5 10.65 5.25" fill="#000000" fill-rule="evenodd" stroke="none"/>
      <path d="M12.2 9.5 Q13.15 12.7 11.0 13.65 8.9 14.65 6.3 14.65 L1.65 14.1 Q-0.4 13.6 0.15 10.0 0.75 6.4 2.4 3.25 4.0 0.05 5.8 0.0 7.55 -0.05 9.45 3.15 11.3 6.35 12.2 9.5 Z" ffdec:has-small-stroke="true" ffdec:original-stroke-width="1.0" fill="none" stroke="#000000" stroke-linecap="round" stroke-linejoin="round" stroke-width="1.0986369122626607"/>
      <path d="M3.0 8.95 L3.05 8.6 3.2 8.1 Q4.5 3.85 5.8 3.5 7.05 3.3 8.3 6.0 L8.4 6.2 8.55 6.55 8.7 6.85 Q6.45 8.6 3.0 8.95" fill="#ff0000" fill-rule="evenodd" stroke="none"/>
      <path d="M3.0 8.95 Q6.45 8.6 8.7 6.85 10.3 10.25 10.05 12.4 L4.6 12.8 3.2 12.5 2.45 12.1 3.0 8.95" fill="#a90000" fill-rule="evenodd" stroke="none"/>
      <path d="M7.95 3.3 Q7.0 2.2 5.65 2.15 3.95 3.05 2.9 5.4 L2.5 5.35 Q3.2 2.65 5.6 1.0 L6.1 0.95 Q6.85 1.0 7.3 1.5 L8.3 3.2 7.95 3.3" fill="#aeb5c0" fill-rule="evenodd" stroke="none"/>
    </g>
    <g id="sprite1">
      <use ffdec:characterId="1" height="15.65" transform="matrix(1.0, 0.0, 0.0, 1.0, 0.0, 0.0)" width="13.45" xlink:href="#shape1"/>
    </g>
    <g id="shape1">
      <path d="M0.25 9.1 Q0.6 7.55 1.45 5.5 2.0 4.15 3.45 2.15 4.9 0.2 5.4 0.1 8.25 0.4 10.4 4.75 L10.65 5.25 Q7.1 8.5 0.25 9.1" fill="#23292f" fill-rule="evenodd" stroke="none"/>
      <path d="M10.65 5.25 L10.7 5.35 Q12.15 8.55 12.15 11.0 12.15 13.5 9.9 14.2 L5.85 14.5 Q1.35 14.5 0.35 13.3 0.0 12.9 0.0 10.9 L0.2 9.25 0.25 9.1 Q7.1 8.5 10.65 5.25" fill="#000000" fill-rule="evenodd" stroke="none"/>
      <path d="M12.2 9.5 Q13.15 12.7 11.0 13.65 8.9 14.65 6.3 14.65 L1.65 14.1 Q-0.4 13.6 0.15 10.0 0.75 6.4 2.4 3.25 4.0 0.05 5.8 0.0 7.55 -0.05 9.45 3.15 11.3 6.35 12.2 9.5 Z" ffdec:has-small-stroke="true" ffdec:original-stroke-width="1.0" fill="none" stroke="#000000" stroke-linecap="round" stroke-linejoin="round" stroke-width="1.131770128095561"/>
      <path d="M3.0 8.95 L3.05 8.6 3.2 8.1 Q4.5 3.85 5.8 3.5 7.05 3.3 8.3 6.0 L8.4 6.2 8.55 6.55 8.7 6.85 Q6.45 8.6 3.0 8.95" fill="#ff0000" fill-rule="evenodd" stroke="none"/>
      <path d="M3.0 8.95 Q6.45 8.6 8.7 6.85 10.3 10.25 10.05 12.4 L4.6 12.8 3.2 12.5 2.45 12.1 3.0 8.95" fill="#a90000" fill-rule="evenodd" stroke="none"/>
      <path d="M7.95 3.3 Q7.0 2.2 5.65 2.15 3.95 3.05 2.9 5.4 L2.5 5.35 Q3.2 2.65 5.6 1.0 L6.1 0.95 Q6.85 1.0 7.3 1.5 L8.3 3.2 7.95 3.3" fill="#aeb5c0" fill-rule="evenodd" stroke="none"/>
    </g>
    <g id="sprite2">
      <use ffdec:characterId="3" height="24.3" transform="matrix(1.0, 0.0, 0.0, 1.0, 0.0, 0.0)" width="27.55" xlink:href="#shape2"/>
    </g>
    <g id="shape2">
      <path d="M24.35 6.95 Q25.6 8.75 25.9 10.6 L26.1 14.05 Q26.1 17.55 23.5 20.05 21.2 22.25 18.75 22.25 L17.0 22.75 14.6 23.2 Q10.75 23.2 6.4 21.7 2.7 20.45 2.15 19.6 0.8 17.7 0.5 16.75 L0.3 14.2 Q0.3 8.45 4.1 4.4 7.6 0.65 12.25 0.4 L12.25 0.35 15.65 0.35 Q19.35 1.3 21.55 3.35 22.45 4.2 24.35 6.95 M19.4 18.35 Q24.35 14.9 22.05 8.75 19.85 2.8 13.85 2.95 7.9 3.3 5.5 8.65 2.75 14.75 8.2 18.45 10.55 19.95 13.45 19.85 16.55 19.8 19.4 18.35" fill="#000000" fill-rule="evenodd" stroke="none"/>
      <path d="M19.4 18.35 Q16.55 19.8 13.45 19.85 10.55 19.95 8.2 18.45 2.75 14.75 5.5 8.65 7.9 3.3 13.85 2.95 19.85 2.8 22.05 8.75 24.35 14.9 19.4 18.35" fill="#31373e" fill-rule="evenodd" stroke="none"/>
      <path d="M13.35 0.0 Q18.9 -0.15 22.75 4.2 26.55 8.55 26.55 13.65 26.55 18.75 22.8 21.05 19.0 23.3 13.5 23.3 8.05 23.3 4.05 21.05 0.0 18.75 0.0 13.65 0.0 8.55 3.95 4.35 7.85 0.15 13.35 0.0 Z" ffdec:has-small-stroke="true" ffdec:original-stroke-width="1.0" fill="none" stroke="#000000" stroke-linecap="round" stroke-linejoin="round" stroke-width="1.1160392193703337"/>
      <path d="M19.55 5.55 Q18.9 5.55 18.5 5.05 L18.2 4.45 Q18.2 3.75 19.2 3.95 20.15 4.15 20.15 4.95 20.15 5.55 19.55 5.55" fill="#aeb5c0" fill-rule="evenodd" stroke="none"/>
      <path d="M14.7 4.3 Q13.8 5.2 12.3 5.45 L9.5 5.1 Q8.3 4.65 8.1 3.7 7.9 2.7 8.8 1.9 9.75 1.1 11.2 0.85 L14.0 1.1 Q15.25 1.65 15.5 2.6 15.65 3.5 14.7 4.3" fill="#7f8792" fill-rule="evenodd" stroke="none"/>
      <path d="M21.5 4.4 Q20.25 3.2 18.9 2.6 17.65 2.05 16.85 1.1 20.05 1.9 22.35 4.5 23.8 6.05 24.85 8.15 25.95 10.5 26.05 13.05 26.2 16.05 24.45 18.55 23.2 20.3 21.1 20.85 23.4 19.35 24.55 16.9 25.4 15.1 25.4 13.05 25.4 10.85 24.6 8.9 23.45 6.25 21.5 4.4" fill="#aeb5c0" fill-rule="evenodd" stroke="none"/>
      <path d="M9.3 2.2 L9.0 3.05 7.15 3.8 Q6.25 4.15 4.75 5.8 3.2 7.45 2.2 9.05 1.2 10.6 0.5 12.95 0.35 11.95 0.85 10.1 1.3 8.25 3.6 5.2 5.85 2.1 10.3 1.1 L9.3 2.2" fill="#7f8792" fill-rule="evenodd" stroke="none"/>
      <path d="M16.25 2.05 Q15.95 2.55 15.15 2.4 L14.65 2.0 14.85 1.4 Q16.5 1.5 16.25 2.05" fill="#aeb5c0" fill-rule="evenodd" stroke="none"/>
    </g>
    <g id="sprite3">
      <use ffdec:characterId="5" height="8.35" transform="matrix(1.0, 0.0, 0.0, 1.0, 0.0, 0.0)" width="13.85" xlink:href="#shape3"/>
    </g>
    <g id="shape3">
      <path d="M13.7 2.9 L13.45 3.25 13.25 3.5 12.9 3.75 12.45 3.8 11.95 3.7 11.45 3.25 11.25 2.85 11.05 2.1 11.05 1.9 Q11.05 1.1 11.45 0.55 11.85 0.0 12.45 0.0 13.05 0.0 13.45 0.55 13.85 1.1 13.85 1.9 L13.7 2.9 M2.8 2.05 L2.4 3.25 Q2.0 3.8 1.4 3.8 0.8 3.8 0.4 3.25 L0.2 2.95 0.1 2.6 0.0 1.9 Q0.0 1.1 0.4 0.55 0.8 0.0 1.4 0.0 2.0 0.0 2.4 0.55 L2.8 1.6 2.8 1.9 2.8 2.05" fill="#afd5ff" fill-rule="evenodd" stroke="none"/>
      <path d="M6.9 4.9 L6.9 6.6" fill="none" stroke="#afd5ff" stroke-linecap="round" stroke-linejoin="round" stroke-width="1.0"/>
      <path d="M6.8 6.6 Q4.9 8.85 3.4 7.0" fill="none" stroke="#afd5ff" stroke-linecap="round" stroke-linejoin="round" stroke-width="1.0"/>
      <path d="M7.05 6.6 Q8.95 8.85 10.45 7.0" fill="none" stroke="#afd5ff" stroke-linecap="round" stroke-linejoin="round" stroke-width="1.0"/>
    </g>
  </defs>
</svg>
