<?xml version="1.0" encoding="UTF-8" standalone="no"?>
<svg xmlns:ffdec="https://www.free-decompiler.com/flash" xmlns:xlink="http://www.w3.org/1999/xlink" ffdec:objectType="frame" height="32.45px" width="45.8px" xmlns="http://www.w3.org/2000/svg">
  <g transform="matrix(1.0, 0.0, 0.0, 1.0, 21.7, 50.2)">
    <use ffdec:characterId="15" height="32.45" transform="matrix(1.0, 0.0, 0.0, 1.0, 1.2, -34.0)" width="45.8" xlink:href="#sprite0"/>
  </g>
  <defs>
    <g id="sprite0">
      <use ffdec:characterId="2" height="15.7" transform="matrix(-0.8013, 0.0, 0.0, 0.8013, -16.1, -1.2)" width="16.95" xlink:href="#sprite1"/>
      <use ffdec:characterId="12" height="13.3" transform="matrix(1.0, 0.0, 0.0, 1.0, 7.8, 2.8)" width="7.45" xlink:href="#sprite2"/>
      <use ffdec:characterId="4" height="21.6" transform="matrix(1.0, 0.0, 0.0, 1.0, -1.45, 5.45)" width="26.0" xlink:href="#sprite3"/>
      <use ffdec:characterId="4" height="21.6" transform="matrix(0.7115, 0.0, 0.0, 0.7115, -1.9, -8.55)" width="26.0" xlink:href="#sprite3"/>
      <use ffdec:characterId="2" height="15.7" transform="matrix(1.0, 0.0, 0.0, 1.0, 14.4, -2.5)" width="16.95" xlink:href="#sprite1"/>
      <use ffdec:characterId="13" height="20.1" transform="matrix(1.0, 0.0, 0.0, 1.0, 0.0, 0.0)" width="7.6" xlink:href="#shape3"/>
      <use ffdec:characterId="7" height="8.15" transform="matrix(1.0, 0.0, 0.0, 1.0, -2.1, -1.45)" width="21.35" xlink:href="#sprite4"/>
      <use ffdec:characterId="14" height="8.7" transform="matrix(1.0, 0.0, 0.0, 1.0, 0.0, 0.0)" width="22.1" xlink:href="#shape5"/>
    </g>
    <g id="sprite1">
      <use ffdec:characterId="1" height="15.7" transform="matrix(1.0, 0.0, 0.0, 1.0, 0.0, 0.0)" width="16.95" xlink:href="#shape0"/>
    </g>
    <g id="shape0">
      <path d="M8.4 -4.75 L8.2 -4.25 8.2 -3.85 8.1 -2.55 7.8 -2.15 7.8 -2.05 Q7.3 -0.6 5.2 1.05 L3.4 2.45 2.05 2.9 0.55 3.3 0.35 3.35 -0.55 4.4 -1.65 5.4 -2.3 6.2 Q-3.15 7.15 -4.15 7.5 L-5.65 7.75 -7.4 7.8 Q-8.6 7.35 -8.4 5.7 -8.2 5.05 -6.85 5.35 -5.1 5.8 -3.95 5.0 L-3.45 4.5 -3.0 3.85 Q-2.7 3.5 -1.55 2.8 L-1.05 2.45 -1.0 2.4 -0.9 2.25 0.3 1.05 1.3 -0.45 2.25 -1.9 Q2.45 -2.5 2.45 -4.5 2.4 -6.4 2.6 -6.95 L2.65 -7.0 2.7 -7.15 2.95 -7.6 Q3.3 -7.95 3.6 -7.85 4.1 -7.65 4.2 -6.0 L4.2 -4.25 Q4.05 -2.9 3.35 -0.95 L2.65 0.65 3.05 0.6 4.05 0.3 Q5.6 -0.75 6.2 -1.8 L7.4 -4.15 8.4 -5.5 Q8.65 -5.4 8.4 -4.75 M3.4 -3.65 L3.55 -5.3 Q3.65 -6.35 3.3 -6.85 L3.2 -6.7 Q3.5 -4.35 3.2 -3.25 L3.25 -3.25 3.4 -3.65 M2.4 1.9 Q3.5 1.8 3.85 1.1 L2.45 1.9 2.4 1.9 M1.4 1.15 L1.45 1.0 Q1.6 0.7 1.75 0.75 L1.8 0.75 2.25 -0.35 1.05 1.5 Q0.25 2.45 -0.65 3.0 L-0.65 3.05 0.65 2.5 1.2 2.15 Q0.8 2.1 0.95 1.75 L1.4 1.15 M1.35 2.15 L1.25 2.2 1.35 2.15 M-1.35 3.65 L-1.3 3.7 -1.25 3.65 -1.35 3.65" fill="#000000" fill-rule="evenodd" stroke="none"/>
      <path d="M7.65 -2.4 Q7.35 -1.45 5.3 0.6 2.75 3.2 0.9 2.7 L0.5 3.0 -1.7 4.75 -3.55 6.55 Q-6.55 7.7 -7.4 7.2 -8.3 6.6 -8.2 5.95 L-7.7 5.5 -7.45 5.75 -5.55 5.8 Q-3.9 5.75 -3.25 5.1 L-1.2 2.95 0.0 2.0 0.95 0.85 2.2 -1.5 Q2.85 -3.35 2.85 -6.65 3.65 -8.8 3.75 -6.1 3.85 -3.45 3.05 -1.2 L2.0 1.15 1.8 1.6 Q3.55 1.15 5.65 -0.8 L7.15 -2.65 8.15 -4.75 8.2 -4.75 7.65 -2.4" fill="#542b01" fill-rule="evenodd" stroke="none"/>
      <path d="M0.05 3.4 Q-1.45 4.3 -2.8 5.65 -3.6 6.6 -4.45 6.7 L-7.2 6.75 Q-7.9 6.5 -7.8 6.2 L-7.45 6.1 Q-4.95 7.0 -3.15 5.7 L-0.75 3.55 Q0.95 2.55 1.9 1.0 L0.9 2.35 0.05 3.4" fill="#ca6502" fill-rule="evenodd" stroke="none"/>
      <path d="M7.8 -3.5 L7.6 -2.85 Q7.1 -1.45 5.1 0.3 3.0 2.2 1.45 2.3 L1.1 2.2 1.1 2.1 2.2 1.85 Q3.3 1.65 3.6 1.15 L4.5 0.45 5.25 -0.25 Q7.45 -1.8 7.75 -3.5 L7.8 -3.5" fill="#ca6502" fill-rule="evenodd" stroke="none"/>
      <path d="M3.35 -4.85 L3.0 -3.0 2.8 -1.25 2.35 -0.35 1.7 0.85 1.6 0.8 1.85 0.1 2.7 -1.25 Q3.1 -2.4 3.05 -4.0 L3.0 -5.45 Q2.85 -6.55 3.0 -6.85 L3.2 -7.15 Q3.55 -7.0 3.55 -6.1 L3.35 -4.85" fill="#ca6502" fill-rule="evenodd" stroke="none"/>
    </g>
    <g id="sprite2">
      <use ffdec:characterId="11" height="13.3" transform="matrix(1.0, 0.0, 0.0, 1.0, 0.0, 0.0)" width="7.45" xlink:href="#shape1"/>
    </g>
    <g id="shape1">
      <path d="M2.95 -0.8 Q3.25 1.65 2.55 3.45 1.8 5.2 -0.45 4.95 -2.7 4.65 -3.1 3.05 -3.55 1.4 -3.45 -0.95 -3.35 -3.3 -2.5 -5.0 -1.6 -6.65 -0.35 -6.65 0.9 -6.65 1.75 -5.0 2.65 -3.3 2.95 -0.8" fill="#336633" fill-rule="evenodd" stroke="none"/>
      <path d="M-1.4 6.15 Q-1.3 6.5 -1.75 6.4 -2.25 6.3 -2.55 4.8 L-2.9 2.65 -2.65 2.05 -2.0 3.25 -1.75 4.05 -1.65 4.9 -1.4 6.15" fill="#336633" fill-rule="evenodd" stroke="none"/>
      <path d="M-0.7 2.95 L-0.65 3.0 -0.7 3.0 -0.7 2.95 M-1.45 3.7 L-0.75 3.5 -0.5 3.45 Q0.1 4.75 0.2 5.7 0.3 6.65 -0.1 6.5 -0.55 6.4 -1.05 4.95 L-1.45 3.7" fill="#336633" fill-rule="evenodd" stroke="none"/>
      <path d="M1.25 6.5 Q0.75 6.55 0.75 5.1 L0.3 3.7 0.55 3.2 Q0.95 3.2 1.4 4.4 L1.8 6.05 Q1.75 6.5 1.25 6.5" fill="#336633" fill-rule="evenodd" stroke="none"/>
      <path d="M3.15 6.0 Q2.75 6.25 2.65 4.95 L2.45 4.4 1.85 3.55 Q1.6 2.95 1.8 2.25 2.0 1.5 2.85 2.9 3.65 4.25 3.6 5.05 L3.15 6.0" fill="#336633" fill-rule="evenodd" stroke="none"/>
      <path d="M1.85 -0.45 Q1.85 1.25 1.3 2.45 0.75 3.65 0.0 3.65 -0.75 3.65 -1.3 2.45 -1.85 1.25 -1.85 -0.45 -1.85 -2.15 -1.3 -3.35 -0.75 -4.55 0.0 -4.55 0.75 -4.55 1.3 -3.35 1.85 -2.15 1.85 -0.45" fill="#6cb66b" fill-rule="evenodd" stroke="none"/>
      <path d="M-2.8 -3.65 Q-3.25 -1.95 -3.25 -0.25 L-3.15 1.4 -2.9 3.2 -2.45 4.85 -1.85 6.0 -1.5 6.3 Q-1.5 6.6 -1.85 6.6 -2.6 6.6 -3.2 4.25 L-3.7 1.75 Q-3.7 -5.2 -1.4 -6.3 -2.3 -5.7 -2.8 -3.65" fill="#000000" fill-rule="evenodd" stroke="none"/>
      <path d="M0.5 -6.55 Q3.4 -4.3 3.4 1.3 L3.25 3.35 3.75 5.1 Q3.75 6.05 3.3 6.05 L3.05 5.8 3.15 5.45 3.25 5.05 3.0 4.2 2.75 3.35 2.85 -0.85 2.6 -2.15 2.3 -3.55 Q2.3 -4.05 1.5 -5.2 L0.5 -6.45 0.5 -6.55" fill="#000000" fill-rule="evenodd" stroke="none"/>
      <path d="M3.0 5.9 L2.8 6.15 Q2.5 6.15 2.5 5.1 L2.1 4.1 2.25 3.9 Q3.0 4.9 3.0 5.9" fill="#000000" fill-rule="evenodd" stroke="none"/>
      <path d="M2.05 6.2 L1.8 6.55 1.6 6.35 1.65 6.15 1.25 4.6 1.65 4.55 2.05 6.2" fill="#000000" fill-rule="evenodd" stroke="none"/>
      <path d="M1.35 6.45 L1.15 6.65 Q0.75 6.65 0.75 5.75 L0.55 4.9 0.7 4.6 1.35 6.45" fill="#000000" fill-rule="evenodd" stroke="none"/>
      <path d="M-0.4 6.55 L-0.95 5.65 -1.35 4.7 -1.3 4.5 Q-0.95 4.65 -0.2 6.35 L-0.4 6.55" fill="#000000" fill-rule="evenodd" stroke="none"/>
      <path d="M0.45 6.1 Q0.45 6.5 0.1 6.5 L-0.1 6.4 -0.1 6.15 0.0 5.95 -0.15 5.35 -0.35 4.7 -0.2 4.55 Q0.45 5.25 0.45 6.1" fill="#000000" fill-rule="evenodd" stroke="none"/>
      <path d="M-1.05 6.15 Q-1.05 6.4 -1.35 6.4 L-1.8 5.65 -2.05 4.8 Q-2.05 4.25 -1.75 4.3 L-1.05 6.15" fill="#000000" fill-rule="evenodd" stroke="none"/>
    </g>
    <g id="sprite3">
      <use ffdec:characterId="3" height="21.6" transform="matrix(1.0, 0.0, 0.0, 1.0, 0.0, 0.0)" width="26.0" xlink:href="#shape2"/>
    </g>
    <g id="shape2">
      <path d="M13.0 0.0 Q13.0 4.45 9.2 7.6 5.4 10.8 0.0 10.8 -5.4 10.8 -9.2 7.6 -13.0 4.45 -13.0 0.0 -13.0 -4.45 -9.2 -7.65 -5.4 -10.8 0.0 -10.8 5.4 -10.8 9.2 -7.65 13.0 -4.45 13.0 0.0" fill="#b3bfcc" fill-rule="evenodd" stroke="none"/>
      <path d="M9.1 -2.75 Q9.1 1.2 8.5 2.7 6.85 6.85 1.15 6.85 L-0.35 6.6 Q-0.7 6.3 -1.3 6.3 -1.5 6.3 -1.95 6.65 -2.45 7.0 -3.2 7.0 -8.4 7.0 -9.85 4.6 -10.3 3.85 -10.3 1.8 L-10.7 0.25 -11.15 -1.1 -10.5 -3.4 -9.5 -5.7 Q-8.9 -6.85 -7.65 -7.65 -6.4 -8.5 -4.05 -9.3 0.1 -10.75 4.8 -7.85 9.1 -5.2 9.1 -2.75" fill="#ffffff" fill-rule="evenodd" stroke="none"/>
      <path d="M3.2 7.3 L2.75 8.15 1.75 8.35 Q0.8 8.35 0.8 7.85 0.8 7.45 1.3 7.35 L3.1 7.15 3.2 7.3" fill="#ffffff" fill-rule="evenodd" stroke="none"/>
      <path d="M-0.55 8.1 Q-0.55 8.3 -0.9 8.3 L-1.35 8.2 -1.45 7.8 -0.6 7.95 -0.55 8.1" fill="#ffffff" fill-rule="evenodd" stroke="none"/>
      <path d="M9.95 0.55 Q9.95 1.45 8.9 3.25 7.8 5.2 7.0 5.15 L6.7 4.85 Q6.7 4.45 8.95 1.8 9.4 1.25 9.5 0.35 L9.7 -1.2 9.75 -1.2 9.95 0.55" fill="#ffffff" fill-rule="evenodd" stroke="none"/>
    </g>
    <g id="shape3">
      <path d="M-7.0 6.4 L-7.15 5.45 Q-7.15 4.5 -5.8 4.45 -4.45 4.4 -4.5 5.55 -4.55 6.65 -5.7 6.8 -6.9 6.95 -7.0 6.4" fill="#000000" fill-rule="evenodd" stroke="none"/>
      <path d="M-6.85 8.95 Q-6.85 7.7 -5.45 7.75 -4.05 7.85 -4.05 8.9 -4.5 10.05 -5.9 10.05 -6.75 10.05 -6.85 8.95" fill="#000000" fill-rule="evenodd" stroke="none"/>
      <path d="M-6.7 -8.25 Q-7.1 -8.25 -7.35 -8.7 L-7.5 -9.25 Q-7.5 -10.1 -6.6 -10.05 -5.75 -10.0 -5.75 -9.2 L-6.0 -8.6 Q-6.25 -8.25 -6.7 -8.25" fill="#000000" fill-rule="evenodd" stroke="none"/>
      <path d="M-0.85 -8.0 Q-1.25 -8.0 -1.5 -8.45 L-1.65 -9.0 Q-1.65 -9.85 -0.75 -9.8 0.1 -9.75 0.1 -8.95 L-0.15 -8.35 Q-0.4 -8.0 -0.85 -8.0" fill="#000000" fill-rule="evenodd" stroke="none"/>
    </g>
    <g id="sprite4">
      <use ffdec:characterId="6" height="8.15" transform="matrix(1.0, 0.0, 0.0, 1.0, 0.0, 0.0)" width="21.35" xlink:href="#shape4"/>
    </g>
    <g id="shape4">
      <path d="M7.6 -2.95 Q8.05 -4.45 9.4 -4.0 10.65 -3.55 10.65 -2.65 10.65 -1.75 9.55 -0.6 8.55 0.5 7.0 1.35 5.45 2.3 4.2 2.8 0.95 4.05 -3.25 4.05 -7.6 4.05 -9.5 2.65 -10.7 1.7 -10.7 0.55 -10.7 -1.1 -9.05 -1.65 L-9.15 -1.85 -9.3 -2.45 -9.25 -3.3 -8.75 -3.75 -8.3 -3.95 Q-8.3 -3.5 -7.5 -2.9 L-5.75 -1.85 Q-4.7 -1.3 -2.45 -1.05 L2.1 -0.55 4.45 -0.7 5.25 -1.0 6.45 -1.9 7.6 -2.95" fill="#336633" fill-rule="evenodd" stroke="none"/>
      <path d="M6.0 0.55 Q6.05 1.45 2.3 2.5 -1.4 3.55 -3.7 3.35 L-7.6 2.65 Q-9.1 2.05 -9.1 1.25 -9.1 0.45 -7.6 0.0 -6.1 -0.4 -4.05 0.45 -1.95 1.3 2.0 0.5 5.9 -0.35 6.0 0.55" fill="#6cb66b" fill-rule="evenodd" stroke="none"/>
      <path d="M-8.7 -1.95 Q-8.7 -2.6 -8.35 -2.65 -7.95 -2.7 -7.6 -2.35 L-6.55 -1.65 -4.85 -0.75 Q-3.75 -0.2 -5.15 -0.45 L-7.3 -0.8 -8.35 -1.1 Q-8.7 -1.35 -8.7 -1.95" fill="#6cb66b" fill-rule="evenodd" stroke="none"/>
    </g>
    <g id="shape5">
      <path d="M5.05 -4.0 L5.25 -4.6 5.95 -5.4 5.8 -4.95 5.35 -3.7 5.1 -3.75 4.3 -3.05 3.5 -2.35 4.1 -2.45 4.3 -2.4 4.4 -2.3 4.2 -2.0 2.95 -2.1 0.45 -1.65 -3.6 -2.2 -7.3 -3.0 Q-8.55 -3.35 -9.4 -4.1 L-10.35 -5.3 -10.6 -5.25 -11.0 -4.95 -11.15 -4.3 -11.0 -3.55 -10.85 -3.0 Q-10.85 -2.8 -11.1 -2.8 -11.3 -2.8 -11.45 -2.95 -12.5 -2.35 -12.5 -1.35 L-12.05 0.05 -12.05 0.15 Q-9.9 1.8 -5.7 2.25 L-3.15 2.25 Q0.25 2.35 4.25 0.15 8.45 -2.1 8.45 -4.5 L8.4 -4.65 8.15 -4.9 Q7.7 -5.35 6.8 -5.35 L6.1 -5.2 6.0 -5.15 Q6.15 -5.7 7.65 -5.7 L8.65 -5.35 8.75 -5.25 8.85 -5.1 8.95 -4.9 8.95 -4.75 9.0 -3.9 Q9.0 -2.05 5.8 0.1 4.1 1.25 2.6 1.8 -0.45 3.0 -4.35 3.0 -8.35 3.0 -10.8 1.9 -12.65 1.1 -12.8 0.15 -13.05 -0.25 -13.1 -1.15 L-12.9 -2.25 -11.55 -3.3 -11.65 -4.1 -11.2 -5.35 -10.2 -5.4 -10.25 -5.35 -9.0 -4.05 Q-8.1 -3.35 -6.95 -3.2 L-4.3 -2.55 -1.65 -2.2 0.7 -2.0 2.65 -2.4 2.9 -2.5 4.1 -3.3 5.05 -4.0" fill="#000000" fill-rule="evenodd" stroke="none"/>
    </g>
  </defs>
</svg>
