<?xml version="1.0" encoding="UTF-8" standalone="no"?>
<svg xmlns:ffdec="https://www.free-decompiler.com/flash" xmlns:xlink="http://www.w3.org/1999/xlink" ffdec:objectType="frame" height="49.4px" width="31.85px" xmlns="http://www.w3.org/2000/svg">
  <g transform="matrix(1.0, 0.0, 0.0, 1.0, 16.9, 67.7)">
    <use ffdec:characterId="5" height="49.4" transform="matrix(1.0, 0.0, 0.0, 1.0, -0.9, -43.25)" width="31.85" xlink:href="#sprite0"/>
  </g>
  <defs>
    <g id="sprite0">
      <use ffdec:characterId="4" height="49.4" transform="matrix(1.0, 0.0, 0.0, 1.0, 0.0, 0.0)" width="31.85" xlink:href="#shape0"/>
    </g>
    <g id="shape0">
      <path d="M-5.9 23.25 L-3.8 23.95 Q1.15 24.95 5.95 23.95 7.8 23.5 8.3 23.0" fill="none" stroke="#003300" stroke-linecap="round" stroke-linejoin="round" stroke-width="1.0"/>
      <path d="M-7.3 -22.5 Q-2.55 -24.85 2.05 -24.4 6.2 -24.05 9.2 -21.85 12.15 -19.8 13.8 -15.85 15.25 -12.4 15.65 -8.0 L15.85 -2.8 Q15.9 -2.15 15.4 -1.75 14.3 -0.85 12.2 -0.1 L8.85 0.75 8.45 0.9 8.05 0.75 Q8.0 0.6 8.25 0.4 9.25 -0.45 9.85 -1.75 10.3 -2.9 10.55 -4.5 L10.65 -5.85 10.65 -7.3 Q10.65 -7.75 10.25 -7.7 L9.65 -7.7 9.15 -7.8 8.9 -8.3 8.35 -10.25 8.2 -11.25 8.4 -11.4 8.6 -10.9 9.3 -8.85 Q9.45 -8.45 9.9 -8.45 L12.35 -8.45 12.95 -8.5 Q13.4 -8.6 13.6 -8.1 14.15 -6.7 14.15 -5.2 L14.15 -2.4 14.15 -2.2 Q14.15 -2.05 14.3 -2.05 15.15 -2.4 15.1 -3.4 L14.95 -7.0 14.65 -10.6 Q14.15 -13.5 13.2 -15.75 11.6 -19.75 8.15 -22.0 5.65 -23.65 2.45 -23.95 -1.85 -24.4 -5.65 -22.75 L-6.55 -22.35 -7.05 -22.35 -7.2 -22.35 -7.3 -22.5" fill="#2e1f1a" fill-rule="evenodd" stroke="none"/>
      <path d="M-14.45 -6.65 L-13.85 -6.95 -13.85 -7.3 -13.6 -7.4 -13.15 -7.5 -12.0 -7.65 -11.2 -8.55 -10.8 -9.4 Q-10.6 -10.4 -11.45 -10.9 L-12.25 -11.1 -12.45 -11.45 -12.15 -11.7 Q-10.65 -12.45 -10.55 -13.95 L-10.45 -14.05 -10.25 -14.05 -10.05 -13.95 Q-9.45 -13.45 -8.9 -13.4 -8.1 -13.35 -7.75 -14.0 L-7.45 -14.3 -6.4 -15.0 -6.3 -14.7 -6.4 -14.45 -7.2 -13.7 -8.1 -13.05 -9.95 -13.2 -10.15 -13.2 -10.3 -13.0 Q-10.6 -12.15 -11.2 -11.7 -11.5 -11.45 -11.2 -11.3 -10.2 -10.7 -10.5 -9.05 L-10.6 -8.6 -10.55 -8.5 -8.45 -8.45 -8.35 -8.55 -7.5 -12.5 Q-7.4 -12.8 -7.15 -12.75 L-6.85 -12.45 -6.6 -11.2 -6.4 -9.95 -6.2 -8.9 -5.85 -8.6 -4.4 -8.6 -2.95 -8.55 -2.7 -8.55 -1.8 -8.55 -0.9 -8.5 -0.3 -8.45 7.0 -8.45 7.6 -8.35 Q7.8 -7.95 7.35 -7.9 L7.0 -7.85 Q0.6 -7.8 -2.55 -7.9 L-5.95 -7.95 -6.4 -8.0 -6.65 -8.4 -7.15 -11.85 -7.25 -11.3 -7.75 -8.55 -8.0 -8.0 -8.55 -7.9 -9.35 -7.9 Q-9.7 -7.9 -9.65 -7.5 L-9.3 -4.4 Q-9.0 -2.75 -8.3 -1.45 -7.75 -0.45 -6.95 0.2 L-6.75 0.35 -6.6 0.65 -7.0 0.8 -7.4 0.7 Q-10.85 0.45 -13.2 -1.1 -13.3 -1.05 -13.3 -1.15 L-13.15 -1.5 Q-12.15 -2.6 -13.2 -3.65 L-13.35 -4.0 -13.15 -4.2 -12.9 -4.3 -12.3 -4.75 Q-11.75 -5.45 -12.05 -6.15 -12.2 -6.45 -12.6 -6.6 L-13.35 -6.75 -13.85 -6.6 -14.3 -6.5 -14.45 -6.65" fill="#2f1f1a" fill-rule="evenodd" stroke="none"/>
      <path d="M-10.15 14.9 L-11.35 14.2 -11.45 12.7 Q-10.75 5.45 -5.65 1.75 L-5.6 1.7 -5.2 1.65 -5.2 1.85 -5.35 2.0 -5.75 2.35 Q-7.5 3.95 -8.5 5.55 -9.7 7.45 -10.35 10.1 L-10.7 11.45 -10.95 13.3 Q-11.0 13.85 -10.65 14.05 L-9.85 14.45 -9.0 14.35 -8.7 14.4 Q-7.85 15.25 -6.65 15.25 -6.3 15.3 -6.3 14.9 L-6.3 12.75 -6.4 12.25 -6.6 11.8 -6.8 11.4 -6.85 10.95 -6.6 11.0 -6.1 11.95 -5.45 12.8 -5.45 12.85 -5.5 13.7 -5.55 13.8 Q-5.9 14.05 -5.7 14.5 -5.4 14.95 -5.45 15.25 L-5.45 15.65 Q-5.5 16.1 -5.95 16.1 L-6.95 16.05 -7.4 15.95 -8.7 15.3 -9.25 15.15 -9.85 15.05 -10.15 14.9" fill="#638741" fill-rule="evenodd" stroke="none"/>
      <path d="M-13.15 -3.75 Q-12.55 -3.15 -12.55 -2.45 -12.6 -1.8 -13.3 -1.15 -13.8 -0.75 -14.55 -0.85 -15.3 -0.95 -15.65 -1.4 L-15.9 -2.05 -15.75 -2.7 -15.1 -3.5 -14.95 -3.65 -14.8 -3.75 -14.15 -3.85 -13.65 -3.8 -13.15 -3.75" fill="#cfd259" fill-rule="evenodd" stroke="none"/>
      <path d="M7.15 1.75 Q11.95 5.4 13.2 12.25 L13.35 13.45 Q13.45 14.2 12.8 14.55 L12.2 14.85 11.95 14.95 11.2 15.05 Q10.95 15.0 11.1 14.7 11.2 14.6 11.5 14.45 L12.35 14.2 12.7 13.8 12.75 13.25 12.45 11.6 Q11.55 7.35 9.2 4.3 L7.4 2.4 7.0 2.05 6.85 1.9 6.85 1.7 7.15 1.75" fill="#598141" fill-rule="evenodd" stroke="none"/>
      <path d="M7.15 1.75 L6.85 1.8 6.45 2.05 6.0 2.2 5.35 2.4 2.95 2.75 2.7 2.8 2.4 2.85 -0.55 2.85 -0.9 2.8 -2.15 2.65 -3.4 2.45 -4.25 2.2 -4.7 2.05 -5.2 1.75 -5.6 1.7 -6.55 1.25 -7.4 0.7 -7.0 0.7 -6.65 0.6 -6.25 0.7 -3.95 1.65 -1.5 2.1 Q0.05 2.3 2.15 2.15 5.05 2.0 6.95 1.2 L7.7 0.8 8.05 0.7 8.45 0.75 8.85 0.75 Q8.1 1.35 7.15 1.75" fill="#985d36" fill-rule="evenodd" stroke="none"/>
      <path d="M8.75 22.6 L7.65 23.35 Q5.5 24.2 2.55 24.3 L-4.6 23.65 Q-5.8 23.35 -6.4 22.8 L-6.2 22.45 -5.4 22.8 -4.6 23.1 -3.9 23.3 -1.7 23.75 5.75 23.3 Q6.95 23.05 7.75 22.55 L8.15 22.4 8.45 22.5 8.75 22.6" fill="#3f6539" fill-rule="evenodd" stroke="none"/>
      <path d="M8.75 22.6 L8.45 22.6 8.2 22.45 8.5 21.7 8.7 20.95 8.7 20.8 8.7 20.6 7.65 20.95 6.6 21.2 6.45 21.1 6.45 20.7 6.95 18.55 Q7.1 18.3 7.2 18.4 L7.3 18.7 7.0 20.2 7.0 20.55 7.35 20.55 9.5 19.85 Q10.6 19.3 10.6 17.95 L10.5 17.65 10.2 17.55 9.7 17.55 9.2 17.5 9.2 17.25 9.1 17.0 Q8.95 16.4 9.1 15.9 L9.45 15.8 9.55 16.2 9.75 16.85 10.4 17.05 10.55 17.05 10.85 17.1 11.05 17.3 10.95 18.35 Q10.7 19.85 9.6 20.3 L9.35 20.65 9.05 22.1 8.75 22.6" fill="#53753e" fill-rule="evenodd" stroke="none"/>
      <path d="M-6.15 22.55 L-6.4 22.8 Q-6.95 22.5 -7.1 21.8 L-7.2 21.15 Q-7.25 20.4 -7.9 20.05 -8.6 19.75 -8.8 18.7 L-9.0 17.2 -8.8 17.05 -8.55 17.05 -8.15 17.05 -7.6 16.85 Q-7.45 16.7 -7.45 16.25 L-7.35 15.85 -7.05 16.0 -6.9 16.35 -6.9 16.7 -7.05 17.15 Q-7.4 17.65 -8.15 17.65 L-8.45 17.7 -8.5 18.05 Q-8.35 19.45 -7.2 19.95 L-5.05 20.5 -4.75 20.45 -4.45 20.3 -4.35 20.8 -4.5 21.0 -4.75 21.05 -5.5 20.9 -6.25 20.65 -6.6 20.65 -6.6 21.0 -6.15 22.55" fill="#50753e" fill-rule="evenodd" stroke="none"/>
      <path d="M-7.3 -22.5 L-6.5 -22.45 Q-6.05 -22.45 -5.95 -22.0 L-6.05 -21.85 -6.4 -21.95 -6.8 -22.1 Q-7.7 -22.4 -8.55 -21.85 L-9.1 -21.45 -9.65 -20.5 Q-9.75 -20.05 -9.45 -19.35 L-9.35 -19.05 -9.45 -18.95 -9.8 -19.35 -10.8 -20.2 Q-11.65 -20.55 -12.55 -19.75 L-13.3 -19.05 Q-13.75 -18.35 -13.65 -17.7 -13.5 -17.0 -12.9 -16.55 L-12.7 -16.45 -12.6 -16.25 -12.75 -16.15 -12.9 -16.15 Q-14.0 -16.85 -14.0 -17.9 L-13.9 -18.55 Q-13.5 -19.75 -12.3 -20.3 L-10.1 -20.2 Q-9.65 -22.3 -7.3 -22.5" fill="#b3844e" fill-rule="evenodd" stroke="none"/>
      <path d="M-13.6 -7.3 L-13.75 -7.2 -13.85 -6.95 -13.95 -7.05 -14.05 -7.1 Q-14.7 -7.3 -15.0 -7.95 -15.25 -8.55 -15.0 -9.3 -14.75 -10.05 -13.75 -10.8 L-13.35 -11.05 Q-14.25 -11.15 -14.85 -11.85 -15.4 -12.55 -15.4 -13.3 -15.4 -14.1 -14.85 -14.75 -14.1 -15.6 -13.05 -15.95 L-12.95 -15.95 -12.9 -15.8 -13.85 -15.3 -14.95 -14.05 Q-15.35 -13.1 -14.75 -12.3 -14.2 -11.55 -13.45 -11.5 L-13.15 -11.5 -12.85 -11.4 -12.95 -11.2 -12.75 -11.05 -12.95 -10.8 -13.25 -10.6 Q-14.3 -10.05 -14.65 -9.3 -14.95 -8.65 -14.7 -8.1 -14.5 -7.6 -13.9 -7.45 L-13.75 -7.4 -13.6 -7.3" fill="#8f5f32" fill-rule="evenodd" stroke="none"/>
      <path d="M-12.9 -15.85 L-13.05 -15.95 -12.8 -16.0 -12.4 -16.1 -12.05 -16.1 -11.6 -16.15 -11.3 -16.25 -11.1 -16.55 -10.2 -17.4 Q-9.95 -17.3 -10.05 -17.1 L-10.25 -16.85 Q-10.95 -16.2 -10.9 -15.35 -10.85 -15.1 -11.05 -15.0 -11.35 -15.0 -11.7 -15.35 -11.95 -15.75 -12.35 -15.7 L-12.65 -15.7 -12.9 -15.85" fill="#3f2616" fill-rule="evenodd" stroke="none"/>
      <path d="M11.05 17.3 L10.5 17.15 10.7 17.0 Q11.75 16.6 11.85 15.25 L11.95 14.9 12.2 14.85 Q12.35 16.7 11.05 17.3" fill="#a75030" fill-rule="evenodd" stroke="none"/>
      <path d="M-14.45 -6.65 L-14.35 -6.6 -14.25 -6.55 -14.3 -6.45 -14.8 -5.95 Q-15.6 -5.05 -14.75 -4.25 L-14.65 -4.1 -14.7 -4.0 -14.7 -3.9 Q-15.3 -4.05 -15.5 -4.6 -15.7 -5.15 -15.35 -5.7 L-14.45 -6.65" fill="#ac804c" fill-rule="evenodd" stroke="none"/>
      <path d="M-8.55 17.15 L-9.0 17.2 Q-9.95 16.8 -10.15 15.4 L-10.15 14.9 -9.85 14.9 -9.7 15.65 Q-9.5 16.6 -8.75 17.0 L-8.6 17.05 -8.55 17.15" fill="#a95a32" fill-rule="evenodd" stroke="none"/>
      <path d="M-15.1 -3.5 L-15.45 -3.1 Q-15.95 -2.45 -15.8 -1.85 -15.6 -1.15 -14.75 -0.95 L-13.3 -1.15 -13.2 -1.1 -15.4 -1.05 Q-15.85 -1.3 -15.95 -1.8 L-15.8 -2.8 -15.5 -3.2 -15.1 -3.5" fill="#6e6137" fill-rule="evenodd" stroke="none"/>
      <path d="M-14.7 -3.9 L-14.75 -4.0 -14.65 -4.1 -13.3 -4.0 -13.15 -3.75 -13.95 -3.7 -14.8 -3.75 -14.7 -3.9" fill="#77562d" fill-rule="evenodd" stroke="none"/>
      <path d="M-11.5 -16.05 L-12.15 -15.95 -12.8 -16.0 -12.9 -16.15 -12.8 -16.25 -12.6 -16.25 -12.05 -16.25 -11.5 -16.05" fill="#8f5f32" fill-rule="evenodd" stroke="none"/>
      <path d="M-9.5 -18.95 L-9.4 -19.05 -9.2 -18.95 -9.05 -18.75 -8.4 -18.2 -7.6 -18.25 -7.15 -18.25 Q-5.9 -18.05 -5.75 -19.45 L-5.5 -20.0 Q-5.2 -20.45 -5.4 -20.9 L-5.7 -21.4 -6.05 -21.85 -6.0 -22.0 -5.2 -22.5 -4.3 -22.8 Q-1.4 -23.8 1.8 -23.55 6.15 -23.25 9.1 -20.65 11.1 -18.95 12.4 -16.2 L12.85 -15.3 Q14.1 -12.0 14.4 -8.1 L14.45 -5.7 14.45 -3.35 14.4 -2.6 14.25 -1.85 14.05 -1.9 14.1 -3.7 14.05 -5.65 13.5 -8.05 Q13.35 -8.55 13.0 -8.4 L12.35 -8.35 11.2 -8.35 Q10.75 -8.35 10.55 -8.85 L9.25 -12.0 Q9.1 -12.45 8.65 -12.35 L8.2 -12.25 7.95 -11.85 7.45 -8.95 7.3 -8.5 7.2 -8.45 7.5 -8.5 7.6 -8.3 -0.45 -8.35 -0.65 -8.3 Q-0.8 -8.3 -0.9 -8.4 L-0.65 -8.45 -2.55 -8.45 -2.7 -8.4 -2.95 -8.45 -5.75 -8.55 -6.05 -8.6 -6.2 -8.95 -6.8 -12.35 -7.2 -12.7 Q-7.4 -12.7 -7.45 -12.5 L-8.25 -9.0 -8.4 -8.5 -8.9 -8.4 -10.3 -8.4 -10.7 -8.5 -10.6 -9.15 -10.5 -9.8 Q-10.55 -10.85 -11.3 -11.2 L-11.55 -11.4 -11.35 -11.7 Q-10.6 -12.25 -10.35 -13.25 -10.3 -13.55 -10.05 -13.35 -9.4 -12.9 -8.2 -13.1 L-7.25 -13.85 -6.4 -14.7 -6.4 -14.95 -6.45 -15.2 Q-6.3 -16.4 -7.2 -16.95 -7.75 -17.95 -9.0 -17.8 L-9.3 -17.7 Q-9.45 -17.7 -9.6 -17.85 L-9.55 -18.4 -9.5 -18.95" fill="#4b3223" fill-rule="evenodd" stroke="none"/>
      <path d="M8.05 0.7 Q7.05 1.4 5.75 1.75 L3.3 2.2 -3.9 1.8 Q-5.45 1.4 -6.65 0.6 -8.0 -0.4 -8.75 -2.05 -9.35 -3.45 -9.6 -5.5 L-9.75 -7.6 -9.7 -7.9 -9.45 -8.0 -8.35 -7.95 Q-8.15 -7.95 -8.05 -8.05 L-7.9 -8.35 -7.35 -11.3 -7.0 -10.9 -6.9 -10.4 -6.65 -8.45 -6.45 -8.1 -1.55 -8.0 3.35 -7.95 7.0 -7.95 7.05 -7.95 7.6 -8.0 7.75 -8.55 7.9 -9.4 8.05 -10.25 8.3 -10.5 8.45 -10.25 9.0 -8.25 Q9.1 -7.8 9.5 -7.8 L10.55 -7.8 10.75 -7.6 10.65 -4.65 Q10.5 -3.05 9.95 -1.75 9.3 -0.25 8.05 0.7" fill="#f4daa7" fill-rule="evenodd" stroke="none"/>
      <path d="M12.7 -15.3 L11.25 -18.05 Q8.45 -22.2 3.5 -23.2 L-0.75 -23.45 Q-3.45 -23.15 -5.6 -22.15 L-6.0 -22.0 -6.5 -22.45 Q-4.9 -23.35 -2.65 -23.8 2.1 -24.8 6.1 -23.2 11.0 -21.25 13.25 -15.95 L13.25 -15.8 13.0 -15.5 12.7 -15.3" fill="#a38169" fill-rule="evenodd" stroke="none"/>
      <path d="M12.7 -15.3 L12.95 -15.6 Q13.1 -15.8 13.25 -15.8 14.1 -14.05 14.65 -11.15 15.1 -8.8 15.1 -5.65 L15.2 -3.1 Q15.25 -2.4 14.65 -2.1 L14.25 -1.85 14.35 -6.5 Q14.25 -11.2 12.8 -15.0 L12.7 -15.3" fill="#98775d" fill-rule="evenodd" stroke="none"/>
      <path d="M13.1 -5.35 Q13.05 -3.35 12.35 -1.65 L12.2 -1.45 10.1 -0.95 Q11.25 -3.45 11.3 -6.45 L11.55 -6.65 Q12.6 -6.6 13.1 -5.8 L13.1 -5.35" fill="#816346" fill-rule="evenodd" stroke="none"/>
      <path d="M7.55 -8.45 L4.95 -8.45 4.95 -8.5 6.95 -8.5 7.2 -8.55 7.35 -8.85 7.9 -11.95 Q7.9 -12.2 8.05 -12.3 L8.35 -12.45 9.05 -12.45 9.45 -11.8 10.7 -8.75 11.2 -8.4 11.75 -8.45 12.35 -8.35 9.7 -8.35 9.45 -8.4 9.25 -8.65 8.35 -11.4 8.2 -11.35 8.15 -11.2 7.75 -9.25 7.7 -8.85 7.55 -8.45" fill="#9c7d66" fill-rule="evenodd" stroke="none"/>
      <path d="M13.1 -5.35 L13.0 -5.8 12.7 -6.05 Q12.1 -6.65 11.3 -6.45 L11.3 -7.45 11.55 -7.75 12.85 -8.1 Q13.2 -8.25 13.2 -7.9 L13.2 -5.5 13.1 -5.35" fill="#684a32" fill-rule="evenodd" stroke="none"/>
      <path d="M7.55 -8.45 L8.15 -11.7 8.3 -11.55 8.35 -11.4 8.3 -11.2 8.1 -10.25 8.0 -9.35 7.9 -8.65 7.7 -7.95 7.0 -7.95 7.15 -8.0 7.3 -8.0 Q7.65 -7.95 7.6 -8.3 L7.55 -8.45" fill="#985030" fill-rule="evenodd" stroke="none"/>
      <path d="M8.0 -9.35 L8.05 -10.3 8.15 -11.25 8.2 -11.25 8.3 -11.2 8.45 -10.25 8.25 -10.4 8.15 -10.2 8.1 -9.75 8.0 -9.35" fill="#dc945c" fill-rule="evenodd" stroke="none"/>
      <path d="M-12.3 -15.8 Q-11.9 -15.9 -11.65 -15.55 L-11.1 -15.05 Q-10.4 -14.7 -10.45 -14.05 -10.4 -12.45 -12.15 -11.55 L-12.4 -11.5 -12.85 -11.4 -13.55 -11.4 -14.2 -11.6 Q-15.0 -12.1 -15.15 -13.0 -15.3 -13.95 -14.65 -14.7 L-13.9 -15.35 -13.9 -15.1 -14.0 -14.8 Q-14.25 -13.95 -13.75 -13.45 L-13.0 -13.15 -12.15 -13.25 Q-11.5 -13.65 -11.55 -14.5 L-12.0 -15.4 -12.2 -15.55 -12.3 -15.8" fill="#eed25a" fill-rule="evenodd" stroke="none"/>
      <path d="M-10.15 -6.1 Q-9.85 -3.05 -8.7 -1.05 L-10.85 -1.4 -11.2 -1.75 -11.95 -4.15 -11.9 -4.45 Q-11.35 -5.1 -11.6 -6.2 L-11.45 -6.4 Q-10.6 -6.5 -10.15 -6.1" fill="#856349" fill-rule="evenodd" stroke="none"/>
      <path d="M-13.3 -10.7 L-12.75 -11.05 -12.5 -11.2 -12.2 -11.2 -11.65 -11.1 Q-11.0 -10.85 -10.75 -10.35 -10.55 -9.8 -10.85 -9.1 L-11.1 -8.5 -13.0 -8.45 Q-13.6 -8.8 -13.7 -9.45 -13.75 -10.1 -13.3 -10.7" fill="#fcfbe7" fill-rule="evenodd" stroke="none"/>
      <path d="M-7.15 -17.05 Q-6.55 -16.65 -6.4 -16.15 -6.2 -15.7 -6.4 -14.95 L-6.8 -14.45 -7.4 -14.2 -7.65 -14.0 Q-8.0 -13.2 -8.9 -13.3 -9.3 -13.45 -9.25 -13.9 -9.15 -14.75 -8.65 -14.9 L-8.25 -15.2 -8.1 -15.75 -8.0 -16.55 Q-7.8 -17.25 -7.15 -17.05" fill="#f5f1a5" fill-rule="evenodd" stroke="none"/>
      <path d="M-7.15 -17.05 L-7.75 -16.8 -7.95 -16.15 -8.0 -15.6 -8.1 -15.1 -8.6 -14.8 Q-9.0 -14.75 -9.1 -14.2 -9.2 -13.65 -8.9 -13.3 -9.65 -13.4 -10.1 -13.85 -10.15 -14.45 -10.5 -14.95 -10.75 -15.35 -10.55 -15.85 L-10.3 -16.95 -10.1 -17.25 -10.2 -17.35 -9.55 -17.85 -9.25 -17.8 -9.0 -17.9 -7.9 -17.75 Q-7.35 -17.55 -7.15 -17.05" fill="#eed058" fill-rule="evenodd" stroke="none"/>
      <path d="M-13.3 -10.7 L-13.5 -10.1 -13.55 -9.45 Q-13.45 -8.85 -12.85 -8.5 L-11.65 -8.4 -11.1 -8.5 Q-11.95 -7.15 -13.1 -7.4 L-13.6 -7.3 Q-14.4 -7.3 -14.75 -7.95 -15.1 -8.6 -14.7 -9.4 -14.25 -10.3 -13.3 -10.7" fill="#f5f2af" fill-rule="evenodd" stroke="none"/>
      <path d="M-14.3 -6.45 L-14.25 -6.55 -12.85 -6.8 Q-12.05 -6.65 -11.85 -5.95 -11.7 -5.2 -12.25 -4.65 L-13.45 -4.6 Q-14.0 -4.75 -14.35 -5.2 -14.8 -5.85 -14.3 -6.45" fill="#fbfae5" fill-rule="evenodd" stroke="none"/>
      <path d="M-14.3 -6.45 Q-14.65 -5.85 -14.25 -5.25 -13.85 -4.7 -13.25 -4.7 L-12.25 -4.65 -12.75 -4.25 -13.3 -4.0 -14.0 -4.0 -14.65 -4.1 Q-15.25 -4.45 -15.3 -5.0 -15.35 -5.55 -14.85 -6.05 L-14.3 -6.45" fill="#f5f2ab" fill-rule="evenodd" stroke="none"/>
      <path d="M-10.15 -6.1 L-10.7 -6.25 -11.3 -6.3 -11.6 -6.2 Q-12.0 -6.8 -11.8 -7.15 L-10.9 -7.65 -10.2 -7.6 -10.15 -6.85 -10.15 -6.1" fill="#654731" fill-rule="evenodd" stroke="none"/>
      <path d="M-10.7 -8.5 L-8.75 -8.5 Q-8.4 -8.5 -8.35 -8.85 L-7.5 -12.5 -7.4 -12.7 -7.2 -12.8 -6.9 -12.75 -6.75 -12.45 -6.1 -8.95 -6.0 -8.65 -5.75 -8.6 -4.45 -8.6 -3.2 -8.5 -2.95 -8.45 -5.9 -8.5 Q-6.2 -8.5 -6.3 -8.85 L-6.95 -12.4 Q-6.95 -12.7 -7.1 -12.65 L-7.3 -12.65 -7.4 -12.5 -7.85 -10.45 -8.25 -8.4 -9.4 -8.4 -10.55 -8.4 -10.7 -8.5" fill="#91735f" fill-rule="evenodd" stroke="none"/>
      <path d="M-10.3 -16.95 Q-10.15 -16.6 -10.4 -16.0 -10.65 -15.35 -10.3 -14.8 -9.9 -14.25 -10.1 -13.85 L-10.45 -14.05 -10.7 -14.6 -11.1 -15.05 -11.0 -15.2 -11.0 -15.35 Q-11.05 -16.35 -10.3 -16.95" fill="#e39b3d" fill-rule="evenodd" stroke="none"/>
      <path d="M-6.45 -8.1 L-6.65 -8.15 -6.7 -8.35 -6.95 -10.1 Q-6.95 -10.65 -7.35 -11.3 L-7.1 -12.25 -6.8 -9.95 -6.45 -8.1" fill="#dc8e59" fill-rule="evenodd" stroke="none"/>
      <path d="M-2.7 -8.4 L-2.45 -8.5 3.9 -8.5 4.0 -8.4 -2.7 -8.4" fill="#7c6253" fill-rule="evenodd" stroke="none"/>
      <path d="M-12.2 -11.2 L-12.75 -11.05 -13.15 -11.15 -13.6 -11.2 -13.2 -11.3 -12.85 -11.4 -12.4 -11.5 -12.2 -11.2" fill="#4b3223" fill-rule="evenodd" stroke="none"/>
      <path d="M-10.7 -8.5 L-10.4 -8.4 -8.25 -8.4 Q-8.35 -8.3 -8.5 -8.3 L-8.8 -8.35 -10.5 -8.35 -10.65 -8.3 -10.7 -8.5" fill="#4b3223" fill-rule="evenodd" stroke="none"/>
      <path d="M7.0 18.55 L6.5 21.1 6.15 21.25 2.7 21.75 0.45 21.75 -1.8 21.6 -2.15 21.6 -3.65 21.3 -3.95 21.15 -3.85 21.0 -3.65 20.95 -3.15 20.95 -2.7 21.05 -2.5 21.05 -2.5 20.8 -3.0 18.95 -3.2 18.65 -4.1 18.35 -5.0 18.2 -5.2 17.75 -5.55 15.55 -5.55 15.4 -5.5 15.25 -5.45 15.25 -5.4 15.3 -4.9 16.0 -4.0 15.85 -3.65 15.7 -3.3 15.75 -2.8 17.75 Q-2.65 18.35 -2.1 18.4 L0.35 18.7 2.55 18.7 4.7 18.5 6.05 18.3 6.95 17.7 7.2 17.3 7.35 16.45 Q7.45 16.15 7.7 16.25 L8.35 16.3 Q8.9 16.25 9.1 16.85 L9.2 17.1 9.35 17.25 9.2 17.45 8.75 17.75 8.25 17.95 7.3 18.3 Q7.1 18.35 7.0 18.55" fill="#bdd469" fill-rule="evenodd" stroke="none"/>
      <path d="M-10.75 11.4 Q-9.95 7.4 -8.15 4.85 L-5.8 2.3 -5.7 2.45 -5.75 2.7 Q-6.45 3.6 -7.15 5.4 L-8.0 8.4 -8.05 8.7 -8.2 8.9 -8.4 9.3 -8.45 9.7 -8.7 11.6 -8.9 12.3 -9.55 12.3 -10.55 11.85 -10.75 11.4" fill="#c1d671" fill-rule="evenodd" stroke="none"/>
      <path d="M-6.8 10.85 L-6.65 11.5 -6.35 12.1 -6.15 12.9 -6.15 15.1 -6.2 15.3 -6.35 15.4 Q-7.6 15.5 -8.7 14.65 L-8.8 14.45 -8.9 14.0 -8.4 9.45 -8.3 9.45 -8.25 9.5 -7.9 10.1 -7.3 10.35 -6.85 10.5 Q-6.7 10.7 -6.8 10.85" fill="#c1d671" fill-rule="evenodd" stroke="none"/>
      <path d="M-5.55 15.55 L-5.3 16.65 -5.1 17.75 -4.95 18.2 -4.75 18.55 -4.45 19.95 Q-4.4 20.25 -4.5 20.3 -4.55 20.75 -5.0 20.65 L-7.3 20.0 Q-7.95 19.75 -8.3 19.1 -8.65 18.5 -8.65 17.7 -8.65 17.45 -8.35 17.5 -7.6 17.65 -7.1 17.1 -6.25 17.65 -5.45 17.8 L-5.65 16.75 -5.8 16.55 -6.7 16.6 -6.85 16.7 -7.0 16.75 -7.05 16.0 -5.95 16.0 Q-5.5 16.05 -5.55 15.55" fill="#7cab49" fill-rule="evenodd" stroke="none"/>
      <path d="M-8.35 9.4 L-8.5 10.45 -8.6 11.45 -8.7 12.95 -8.8 14.45 -8.9 14.4 -9.9 14.55 -10.8 14.1 Q-11.1 13.9 -11.05 13.55 L-10.75 11.4 -10.55 11.75 -10.2 11.9 -9.15 12.25 -8.85 12.0 -8.4 8.85 -8.35 8.75 -8.25 8.7 -8.25 8.85 Q-8.15 9.2 -8.35 9.4" fill="#85b44d" fill-rule="evenodd" stroke="none"/>
      <path d="M-5.7 2.65 L-5.75 2.5 -5.8 2.3 -5.5 2.0 -5.2 1.75 -4.25 2.15 -4.35 2.55 -4.45 2.95 -4.7 4.3 -4.95 5.65 -5.2 7.25 -5.15 7.5 -4.9 7.55 -3.55 7.7 Q-2.65 8.15 -2.05 8.75 L-1.55 8.7 -0.9 8.15 -0.65 8.15 -0.6 8.25 -1.1 8.9 -1.65 9.5 Q-1.75 9.65 -2.0 9.4 L-2.45 8.9 Q-3.65 7.75 -5.1 8.0 L-5.4 8.05 -5.65 8.1 -5.9 8.05 -5.95 7.5 Q-5.65 5.2 -5.15 3.6 L-5.1 3.1 Q-5.1 3.0 -5.45 2.85 L-5.7 2.65" fill="#7f903f" fill-rule="evenodd" stroke="none"/>
      <path d="M-8.55 17.15 Q-9.7 16.8 -9.9 15.1 L-9.85 14.9 Q-8.7 15.1 -8.0 15.6 L-7.7 15.75 -7.35 15.85 Q-7.3 16.75 -7.5 17.0 L-8.55 17.15" fill="#f1d198" fill-rule="evenodd" stroke="none"/>
      <path d="M-5.9 8.1 L-5.65 8.0 -5.4 7.9 -5.65 8.2 Q-6.55 8.9 -6.4 10.3 -6.3 11.3 -5.65 12.0 L-5.35 12.4 -4.55 13.05 -4.3 13.15 -4.15 13.45 -4.7 13.75 -5.3 13.9 -5.55 13.75 -5.55 13.7 -5.1 13.5 -4.6 13.4 -5.1 13.2 -5.5 12.85 Q-6.35 12.0 -6.65 11.1 L-6.8 10.85 -6.85 10.55 -6.95 10.4 -6.7 9.15 -6.0 8.1 -5.9 8.1" fill="#895d33" fill-rule="evenodd" stroke="none"/>
      <path d="M-5.55 13.75 L-5.35 13.9 Q-5.55 14.25 -5.35 14.6 L-5.1 15.05 -4.8 15.5 -4.4 15.5 -3.9 15.35 -3.65 15.35 -3.4 15.4 Q-3.55 15.8 -4.25 15.9 L-5.2 15.7 -5.5 15.2 -5.5 15.25 Q-5.5 15.05 -5.85 14.4 -6.1 13.9 -5.55 13.75" fill="#9d5932" fill-rule="evenodd" stroke="none"/>
      <path d="M-5.5 12.85 L-4.95 13.1 -4.4 13.4 -5.0 13.6 -5.55 13.7 -5.65 13.25 -5.5 12.85" fill="#8aad49" fill-rule="evenodd" stroke="none"/>
      <path d="M7.45 2.35 Q9.5 4.05 10.9 6.8 12.0 9.05 12.5 11.6 L11.75 12.1 10.9 12.25 Q10.7 12.2 10.65 11.8 L10.35 9.85 10.2 9.5 10.0 9.05 Q9.3 5.55 7.3 2.55 L7.3 2.5 7.35 2.3 7.45 2.35" fill="#c4d76e" fill-rule="evenodd" stroke="none"/>
      <path d="M7.45 2.35 L7.3 2.45 7.0 2.7 6.65 2.95 6.75 3.45 7.45 6.05 8.05 10.05 8.15 11.55 8.25 14.7 8.35 15.2 8.8 15.25 Q9.95 15.2 10.6 14.55 L10.75 14.15 10.65 13.75 10.65 13.25 10.65 12.8 10.8 12.55 11.0 12.8 11.1 13.65 Q11.05 14.3 11.5 14.55 L11.3 14.65 11.15 14.85 11.2 14.95 10.4 15.55 9.45 15.85 9.15 15.9 8.4 16.15 7.65 16.05 Q7.45 16.05 7.4 15.65 L7.45 15.1 7.5 14.6 7.5 14.35 7.3 14.25 3.1 15.0 2.7 15.05 2.3 14.95 2.3 14.6 2.5 14.4 3.0 14.25 6.45 13.75 7.4 13.4 7.45 12.3 7.35 11.2 7.35 10.4 7.25 9.55 7.1 8.7 Q6.9 6.3 6.1 3.25 L6.05 3.0 6.0 2.15 6.85 1.8 7.15 2.05 7.45 2.35" fill="#6f8e41" fill-rule="evenodd" stroke="none"/>
      <path d="M11.5 14.55 L11.1 14.45 11.0 13.95 10.85 12.55 10.75 13.25 10.6 13.0 10.4 11.3 10.2 9.55 10.2 9.45 Q10.35 9.2 10.4 9.5 L10.65 11.15 10.75 11.95 11.05 12.15 Q11.9 12.1 12.5 11.6 L12.9 13.4 Q12.95 13.95 12.5 14.2 L11.5 14.55" fill="#87b54c" fill-rule="evenodd" stroke="none"/>
      <path d="M9.45 15.85 L10.35 15.45 Q11.0 15.05 11.2 14.95 L11.6 14.9 11.95 14.9 Q12.0 15.85 11.65 16.35 L10.5 17.15 10.1 17.15 Q9.45 17.05 9.45 16.35 L9.45 15.85" fill="#f1d29b" fill-rule="evenodd" stroke="none"/>
      <path d="M-0.6 2.8 Q0.9 2.65 2.5 2.8 L2.45 2.95 0.85 4.95 Q0.6 5.2 0.5 4.95 L-0.1 3.95 -0.6 2.95 -0.6 2.8" fill="#e19068" fill-rule="evenodd" stroke="none"/>
      <path d="M-0.65 8.15 L-0.9 8.25 -1.15 8.0 -1.35 7.65 -3.5 3.55 -3.95 3.15 -4.55 2.9 -4.25 2.15 -3.4 2.35 -3.1 3.05 Q-2.25 5.3 -0.4 8.0 -0.45 8.15 -0.65 8.15" fill="#84ab4f" fill-rule="evenodd" stroke="none"/>
      <path d="M6.0 2.15 L6.1 2.55 6.15 3.0 Q5.4 3.1 4.8 4.1 L2.55 7.25 2.4 7.55 2.25 7.95 Q2.0 8.05 1.7 7.7 L1.5 7.2 Q0.95 6.45 0.85 5.95 L0.95 5.7 1.15 5.8 1.25 6.0 1.6 6.55 1.9 6.95 Q2.0 7.0 2.3 6.65 L4.95 2.85 5.15 2.55 5.4 2.3 6.0 2.15" fill="#8db558" fill-rule="evenodd" stroke="none"/>
      <path d="M0.95 5.7 L0.9 5.95 0.6 5.65 -0.75 3.3 -0.85 3.05 -0.9 2.7 -0.6 2.8 0.45 4.75 0.65 4.95 0.9 4.8 2.5 2.8 2.65 2.7 2.9 2.65 2.85 2.85 2.75 3.1 1.95 4.1 1.15 5.1 Q0.9 5.3 0.95 5.7" fill="#7a6e37" fill-rule="evenodd" stroke="none"/>
      <path d="M-0.9 2.7 L-0.65 3.25 -1.15 3.3 -3.2 3.05 -3.4 2.35 -0.9 2.7" fill="#e0cb80" fill-rule="evenodd" stroke="none"/>
      <path d="M2.7 3.05 L2.9 2.65 4.15 2.5 5.4 2.3 5.05 2.9 4.75 3.05 4.4 3.1 3.25 3.25 2.95 3.25 2.7 3.05" fill="#dac570" fill-rule="evenodd" stroke="none"/>
      <path d="M-2.2 21.55 L-1.95 21.4 -1.65 21.45 -0.2 21.6 0.45 21.65 1.05 21.7 6.2 21.1 6.5 21.1 6.6 21.1 6.3 22.25 5.85 23.4 3.35 23.9 -0.6 23.95 -1.75 23.85 -2.2 22.0 -2.2 21.55" fill="#86b84e" fill-rule="evenodd" stroke="none"/>
      <path d="M-2.2 21.55 L-1.7 23.5 Q-1.6 23.75 -1.75 23.85 L-3.95 23.4 -4.0 23.35 Q-4.55 22.0 -4.55 21.0 L-3.95 21.1 -3.35 21.25 -2.75 21.35 -2.2 21.55" fill="#f3f2b0" fill-rule="evenodd" stroke="none"/>
      <path d="M5.85 23.4 L6.45 21.4 6.6 21.1 8.9 20.4 8.7 21.5 8.2 22.45 Q7.25 23.05 5.85 23.4" fill="#bad265" fill-rule="evenodd" stroke="none"/>
      <path d="M-4.55 21.05 L-3.95 23.4 -6.15 22.55 -6.6 21.55 -6.8 20.45 -4.8 20.95 -4.65 20.95 -4.55 21.05" fill="#c5d871" fill-rule="evenodd" stroke="none"/>
      <path d="M7.0 18.55 Q7.0 18.3 7.25 18.2 L8.25 17.85 9.2 17.45 10.3 17.45 10.6 17.5 10.7 17.9 Q10.7 19.4 9.4 20.0 L8.25 20.45 7.1 20.75 Q6.75 20.85 6.85 20.4 L7.2 18.7 7.15 18.45 7.0 18.55" fill="#7aaa48" fill-rule="evenodd" stroke="none"/>
      <path d="M7.3 14.1 Q7.65 13.8 7.6 14.35 L7.55 15.55 7.6 15.9 7.9 16.0 8.55 16.0 9.15 15.9 Q9.1 16.65 9.2 17.1 L9.05 17.0 Q8.95 16.55 8.65 16.45 L8.05 16.4 7.9 16.4 7.45 16.45 7.4 16.9 7.3 17.6 Q7.25 17.95 7.0 17.7 L6.9 17.3 7.2 14.4 7.3 14.1" fill="#86b34c" fill-rule="evenodd" stroke="none"/>
      <path d="M-4.5 20.3 L-4.95 18.2 Q-4.9 18.0 -4.7 18.05 L-3.2 18.5 -2.9 18.85 -2.35 20.9 Q-2.25 21.25 -2.6 21.15 L-3.65 21.05 -4.05 21.05 -4.4 20.75 -4.5 20.55 -4.5 20.3" fill="#f2ee87" fill-rule="evenodd" stroke="none"/>
      <path d="M-7.0 16.75 Q-6.9 16.35 -6.6 16.5 L-6.0 16.5 Q-5.7 16.35 -5.6 16.5 L-5.55 16.9 -5.35 17.75 -5.45 17.95 -6.25 17.65 -7.05 17.25 -7.1 17.1 -7.0 16.75" fill="#bad267" fill-rule="evenodd" stroke="none"/>
      <path d="M-4.4 20.75 L-4.05 20.95 -3.65 21.05 -3.95 21.1 -4.55 21.05 -4.8 20.95 -4.55 20.9 -4.4 20.75" fill="#7cab49" fill-rule="evenodd" stroke="none"/>
      <path d="M-5.3 -21.0 Q-5.0 -20.4 -5.45 -19.9 L-5.65 -19.4 Q-5.65 -18.75 -6.1 -18.35 -6.6 -17.95 -7.2 -18.15 L-7.55 -18.2 -8.3 -18.05 -9.0 -18.5 -9.4 -19.05 -9.65 -19.65 Q-9.9 -20.35 -9.6 -20.95 L-8.6 -21.95 -8.65 -21.3 -8.7 -20.7 Q-8.8 -20.35 -8.4 -19.95 -7.75 -19.35 -7.1 -19.7 L-6.85 -19.85 Q-6.65 -19.9 -6.55 -20.0 -6.0 -20.4 -5.95 -21.0 L-5.95 -21.25 -5.8 -21.45 -5.6 -21.35 -5.45 -21.2 -5.3 -21.0" fill="#f9f0cc" fill-rule="evenodd" stroke="none"/>
      <path d="M-5.3 -21.0 L-5.55 -21.2 -5.8 -21.35 -5.9 -21.05 -5.9 -20.7 Q-6.1 -20.0 -6.8 -19.75 L-7.1 -19.65 -8.15 -19.75 -8.8 -20.65 -8.6 -21.95 -6.05 -21.85 -5.65 -21.45 -5.3 -21.0" fill="#fbfae4" fill-rule="evenodd" stroke="none"/>
      <path d="M-12.6 -19.8 Q-11.7 -20.8 -10.75 -20.25 -9.95 -19.6 -10.3 -18.45 -10.5 -17.75 -10.85 -17.45 -11.2 -17.15 -11.85 -17.15 -12.55 -17.2 -12.85 -18.2 -13.15 -19.2 -12.6 -19.8" fill="#f8f7cf" fill-rule="evenodd" stroke="none"/>
      <path d="M-12.6 -19.8 Q-12.95 -18.8 -12.75 -18.2 -12.5 -17.35 -11.85 -17.25 -11.4 -17.2 -11.3 -16.8 L-11.0 -16.5 -11.2 -16.15 -11.5 -16.05 -12.05 -16.1 -12.6 -16.25 -13.55 -17.15 Q-13.85 -17.7 -13.7 -18.35 -13.6 -19.0 -13.15 -19.4 L-12.9 -19.65 -12.6 -19.8" fill="#efcc89" fill-rule="evenodd" stroke="none"/>
      <path d="M-11.0 -16.5 Q-11.3 -16.4 -11.35 -16.8 L-11.85 -17.25 Q-10.95 -17.2 -10.55 -18.1 -10.05 -19.25 -10.65 -20.05 L-10.75 -20.25 Q-10.15 -20.15 -9.7 -19.35 L-9.5 -18.95 Q-9.3 -18.25 -9.55 -17.85 L-10.2 -17.35 -10.7 -17.0 -11.0 -16.5" fill="#f6efad" fill-rule="evenodd" stroke="none"/>
      <path d="M-12.3 -15.8 L-11.75 -15.3 Q-11.25 -14.7 -11.5 -13.95 -11.75 -13.15 -12.5 -13.0 L-13.3 -13.05 Q-13.9 -13.3 -14.1 -13.8 L-14.05 -14.95 -13.9 -15.35 -12.9 -15.85 -12.3 -15.8" fill="#f6f3b4" fill-rule="evenodd" stroke="none"/>
      <path d="M8.05 -16.15 Q6.0 -16.3 4.75 -18.35 4.2 -19.2 4.5 -19.95 4.8 -20.7 5.65 -20.95 6.8 -21.3 8.15 -20.55 9.5 -19.85 10.0 -18.6 10.4 -17.6 9.85 -16.85 9.3 -16.15 8.05 -16.15" fill="#c3a791" fill-rule="evenodd" stroke="none"/>
      <path d="M-5.8 0.2 Q-6.55 0.2 -7.05 -0.4 -7.55 -0.9 -7.55 -1.75 -7.55 -2.45 -7.05 -2.95 -6.55 -3.5 -5.85 -3.5 -5.2 -3.5 -4.65 -2.9 -4.15 -2.35 -4.15 -1.55 -4.2 -0.8 -4.65 -0.3 -5.1 0.2 -5.8 0.2" fill="#e2a66a" fill-rule="evenodd" stroke="none"/>
      <path d="M9.0 -1.55 Q9.0 -0.75 8.5 -0.25 8.05 0.25 7.35 0.25 6.7 0.25 6.2 -0.3 5.7 -0.9 5.7 -1.65 5.7 -2.35 6.2 -2.9 6.65 -3.4 7.35 -3.4 8.0 -3.4 8.5 -2.85 9.0 -2.3 9.0 -1.55" fill="#e1a466" fill-rule="evenodd" stroke="none"/>
      <path d="M-5.75 -6.4 L-3.75 -5.95 -2.35 -4.6 -2.1 -4.0 Q-2.05 -3.55 -2.25 -3.4 -2.45 -3.3 -2.7 -3.55 -3.3 -4.25 -4.1 -4.55 L-5.95 -4.8 -7.1 -4.05 Q-7.35 -3.75 -7.6 -3.85 L-7.95 -4.35 Q-8.05 -5.0 -7.5 -5.55 L-6.6 -6.2 -5.75 -6.4" fill="#302019" fill-rule="evenodd" stroke="none"/>
      <path d="M6.4 -6.3 L7.8 -6.1 8.85 -5.4 Q9.3 -4.9 9.2 -4.25 L8.95 -3.8 Q8.7 -3.7 8.5 -3.95 7.7 -4.85 6.4 -4.8 5.15 -4.7 4.25 -3.8 L4.0 -3.55 3.6 -3.5 Q3.35 -3.6 3.45 -3.95 3.7 -4.85 4.45 -5.5 L5.5 -6.15 6.4 -6.3" fill="#33211a" fill-rule="evenodd" stroke="none"/>
      <path d="M0.65 0.65 Q-0.2 0.6 -0.65 -0.45 L-0.7 -0.75 -0.55 -0.8 -0.45 -0.75 Q0.75 -0.35 1.9 -0.75 L2.05 -0.8 2.2 -0.75 2.2 -0.35 Q1.9 0.6 0.65 0.65" fill="#b34c2d" fill-rule="evenodd" stroke="none"/>
      <path d="M-8.1 -16.15 L-8.3 -15.35 Q-8.55 -15.05 -8.9 -15.05 -9.3 -15.05 -9.55 -15.35 L-9.85 -16.15 -9.6 -16.95 -9.0 -17.25 Q-8.65 -17.25 -8.35 -16.9 L-8.1 -16.15" fill="#f5f2aa" fill-rule="evenodd" stroke="none"/>
      <path d="M7.3 14.1 L7.25 15.4 7.1 16.7 7.0 17.7 6.6 18.3 5.9 18.45 1.1 18.85 -2.4 18.45 -2.85 18.0 -3.35 16.0 -3.35 15.75 -3.0 15.45 -2.25 14.85 -1.2 14.8 Q-0.25 15.7 1.1 16.0 1.6 16.15 1.8 15.7 L2.0 15.25 2.25 14.9 7.3 14.1" fill="#dbe387" fill-rule="evenodd" stroke="none"/>
      <path d="M2.25 14.9 L1.85 15.8 1.6 16.15 1.2 16.15 Q-0.45 15.75 -1.3 14.85 -1.7 14.4 -2.1 14.85 L-3.35 15.75 -4.5 16.1 Q-5.0 16.25 -5.3 15.7 L-5.5 15.2 -5.4 15.3 -5.15 15.7 -4.8 15.9 Q-3.8 15.75 -3.4 15.4 L-3.1 15.05 Q-2.25 14.5 -1.95 13.9 -1.8 13.65 -1.55 13.7 L-1.1 14.25 -0.05 15.15 1.25 15.6 1.6 15.45 1.8 15.1 2.1 14.65 2.45 14.4 2.5 14.45 2.25 14.9" fill="#6f7b3c" fill-rule="evenodd" stroke="none"/>
      <path d="M-5.9 8.1 Q-6.85 8.95 -6.85 10.55 L-7.85 10.25 Q-8.4 9.95 -8.35 9.4 L-8.25 8.85 -7.7 6.75 Q-7.0 4.45 -6.05 2.95 L-5.7 2.65 -5.25 2.8 Q-4.95 2.85 -4.9 3.0 L-4.95 3.45 -5.15 3.9 Q-5.7 5.9 -5.9 8.1" fill="#e3e891" fill-rule="evenodd" stroke="none"/>
      <path d="M1.85 15.15 L1.45 15.75 0.75 15.6 Q-0.75 15.1 -1.55 13.8 L-1.7 13.65 -1.85 13.45 Q-2.7 15.1 -3.95 15.5 L-4.8 15.55 -5.3 14.85 -5.5 14.45 Q-5.75 14.0 -5.35 13.9 L-4.15 13.45 -3.85 13.2 -4.65 12.95 -5.4 12.4 Q-6.55 11.35 -6.55 9.9 -6.55 8.55 -5.4 7.9 -3.3 7.5 -1.95 9.35 L-1.8 9.5 -1.6 9.35 -0.65 8.3 Q0.85 7.05 2.3 8.1 3.1 8.6 3.0 9.95 3.0 10.85 2.55 11.55 1.8 12.8 0.25 13.2 L1.0 13.6 1.9 13.95 2.2 14.25 2.1 14.65 1.85 15.15" fill="#f8e6dd" fill-rule="evenodd" stroke="none"/>
      <path d="M-4.55 2.9 L-3.75 3.1 -3.5 3.3 -2.45 5.55 -1.25 7.65 -1.45 8.0 -1.75 8.05 -3.5 7.85 -5.1 7.65 -5.3 7.6 -5.35 7.4 -4.95 4.95 -4.55 2.9" fill="#dae383" fill-rule="evenodd" stroke="none"/>
      <path d="M-3.5 7.85 L-2.65 7.9 -1.8 7.9 -1.25 7.65 -0.9 8.25 -1.6 8.95 -1.75 9.05 -1.95 9.0 Q-2.45 8.45 -3.5 7.85" fill="#b3cf65" fill-rule="evenodd" stroke="none"/>
      <path d="M2.5 11.55 L2.9 9.95 Q2.95 8.85 2.3 8.25 1.7 7.6 0.75 7.75 0.05 7.9 -0.65 8.3 L-0.65 8.15 -0.45 8.0 Q-0.1 7.6 0.65 7.5 1.35 7.4 1.7 7.7 L2.25 7.9 Q2.75 8.05 3.05 8.8 L3.2 9.35 3.2 10.2 3.05 11.05 2.85 11.65 2.55 11.95 2.5 11.55" fill="#9b753c" fill-rule="evenodd" stroke="none"/>
      <path d="M-5.4 12.4 Q-4.45 13.05 -3.55 13.15 L-4.15 13.45 -4.4 13.2 -4.7 13.1 -5.4 12.4" fill="#bd6041" fill-rule="evenodd" stroke="none"/>
      <path d="M-3.95 15.5 Q-2.45 14.75 -1.8 13.15 L-1.55 13.8 -1.85 13.9 Q-2.05 14.4 -2.55 14.75 L-3.4 15.4 -3.95 15.5" fill="#ca603f" fill-rule="evenodd" stroke="none"/>
      <path d="M10.2 9.45 L10.25 9.5 Q10.3 9.8 10.0 9.95 L8.25 10.3 7.9 10.05 7.45 6.55 6.55 3.2 6.5 2.85 Q6.55 2.7 6.75 2.7 L7.3 2.45 7.45 2.55 7.55 2.7 Q9.3 5.45 10.0 8.65 L10.1 9.05 10.2 9.45" fill="#e4e992" fill-rule="evenodd" stroke="none"/>
      <path d="M2.5 7.15 L5.2 3.3 5.6 3.0 6.15 3.0 6.15 3.2 6.75 6.45 6.8 7.05 Q6.75 7.75 6.25 7.9 4.45 8.55 2.95 7.95 L2.6 7.75 Q2.3 7.5 2.5 7.15" fill="#d9e383" fill-rule="evenodd" stroke="none"/>
      <path d="M7.9 10.05 L9.0 10.2 Q9.75 10.1 10.1 9.8 L10.25 9.5 10.6 11.8 10.65 12.5 10.75 13.25 10.75 13.8 10.75 14.6 Q9.9 15.4 8.4 15.4 8.15 15.4 8.15 15.1 L8.05 11.8 7.9 10.05" fill="#c4d76e" fill-rule="evenodd" stroke="none"/>
      <path d="M6.45 13.9 L3.45 14.4 2.95 14.4 2.5 14.45 2.5 14.4 1.85 14.0 0.9 13.6 0.8 13.45 Q0.75 13.35 0.85 13.3 L1.65 12.8 2.4 12.35 6.4 11.9 Q6.85 11.8 6.85 12.3 L6.85 13.15 6.45 13.9" fill="#e9a941" fill-rule="evenodd" stroke="none"/>
      <path d="M2.95 11.05 L3.1 10.15 3.1 9.3 3.65 9.1 4.2 9.05 6.7 8.7 7.15 8.65 7.3 8.85 7.45 10.35 6.45 10.7 5.4 10.9 3.3 11.15 Q3.05 11.2 2.95 11.05" fill="#e8a740" fill-rule="evenodd" stroke="none"/>
      <path d="M7.15 8.65 L4.7 9.2 3.1 9.3 Q2.9 8.4 2.25 7.9 2.15 7.4 2.5 7.15 2.45 7.55 2.75 7.7 3.35 8.1 3.85 8.1 L4.75 8.1 5.65 8.0 Q6.35 7.9 6.55 7.55 L6.65 6.45 6.15 3.4 6.15 3.2 7.0 6.9 7.2 8.35 7.15 8.65" fill="#b8d16b" fill-rule="evenodd" stroke="none"/>
      <path d="M2.95 11.05 L5.0 10.85 7.05 10.4 7.45 10.35 7.5 11.25 7.3 11.45 7.05 11.55 3.65 12.1 3.05 12.2 2.55 12.1 2.6 11.95 2.8 11.5 2.95 11.05" fill="#f4ef93" fill-rule="evenodd" stroke="none"/>
      <path d="M2.55 12.0 L3.2 12.1 3.8 12.0 7.15 11.35 7.5 11.25 7.6 13.4 7.45 13.6 6.45 13.9 Q6.8 13.2 6.75 12.25 L6.7 12.0 6.45 12.0 4.05 12.35 2.6 12.5 2.3 12.4 Q2.2 12.05 2.55 12.0" fill="#e08338" fill-rule="evenodd" stroke="none"/>
      <path d="M10.75 14.6 L10.75 13.8 Q10.95 14.25 10.75 14.6" fill="#87b54c" fill-rule="evenodd" stroke="none"/>
      <path d="M1.7 7.7 Q0.85 7.45 -0.45 8.0 L-0.95 7.4 -1.4 6.65 Q-2.6 4.75 -3.2 3.05 L-3.05 2.95 -2.9 2.95 -0.65 3.25 1.75 7.4 1.85 7.55 1.7 7.7" fill="#fbfae2" fill-rule="evenodd" stroke="none"/>
      <path d="M2.7 3.05 L3.45 3.15 4.15 3.0 5.05 2.9 Q3.9 5.05 1.9 7.2 L1.4 6.45 0.95 5.7 0.85 5.45 Q0.8 5.35 0.9 5.2 L2.7 3.05" fill="#faf9dc" fill-rule="evenodd" stroke="none"/>
      <path d="M-8.8 -20.65 Q-8.25 -19.55 -7.1 -19.65 -7.35 -19.4 -7.75 -19.5 -8.2 -19.55 -8.5 -19.9 L-8.75 -20.2 -8.8 -20.65" fill="#f4e893" fill-rule="evenodd" stroke="none"/>
      <path d="M2.55 12.0 L2.3 12.4 Q1.7 13.05 0.75 13.4 1.25 13.75 2.35 14.1 L2.55 14.25 2.5 14.4 2.15 14.8 1.85 15.15 1.85 15.1 2.05 14.65 2.1 14.25 Q2.05 14.1 1.8 14.05 L1.35 13.9 0.3 13.3 0.05 13.15 Q1.6 12.8 2.5 11.55 L2.6 11.95 2.55 12.0" fill="#c2673e" fill-rule="evenodd" stroke="none"/>
      <path d="M-0.45 11.65 L-0.85 11.85 Q-0.9 11.3 -0.55 10.65 L0.35 9.75 0.7 9.55 0.9 9.25 Q1.15 9.8 0.75 10.55 0.3 11.35 -0.45 11.65 L-0.35 11.45 0.0 11.15 -0.35 11.25 -0.45 11.65" fill="#c46d42" fill-rule="evenodd" stroke="none"/>
      <path d="M-2.55 11.95 Q-3.5 11.65 -4.05 10.85 -4.6 10.1 -4.45 9.25 L-4.15 9.65 -3.8 9.85 Q-2.7 10.4 -2.55 11.95" fill="#b6643b" fill-rule="evenodd" stroke="none"/>
      <path d="M-0.45 11.65 L-0.55 11.5 -0.45 11.15 Q-0.35 11.0 -0.2 11.0 L0.2 10.95 -0.1 11.35 -0.45 11.65" fill="#eed958" fill-rule="evenodd" stroke="none"/>
      <path d="M-2.9 11.5 L-3.05 11.6 -4.0 10.65 -4.0 10.45 Q-3.7 10.4 -3.3 10.75 -2.9 11.15 -2.9 11.5" fill="#eedb61" fill-rule="evenodd" stroke="none"/>
    </g>
  </defs>
</svg>
