<?xml version="1.0" encoding="UTF-8" standalone="no"?>
<svg xmlns:ffdec="https://www.free-decompiler.com/flash" xmlns:xlink="http://www.w3.org/1999/xlink" ffdec:objectType="frame" height="37.35px" width="56.5px" xmlns="http://www.w3.org/2000/svg">
  <g transform="matrix(1.0, 0.0, 0.0, 1.0, 23.2, 50.9)">
    <use ffdec:characterId="3" height="13.5" transform="matrix(0.8996, 0.0245, -0.0245, 0.8996, 22.45, -41.2)" width="13.5" xlink:href="#sprite0"/>
    <use ffdec:characterId="5" height="24.25" transform="matrix(0.9995, 0.0302, -0.0302, 0.9995, -15.5, -60.5)" width="41.3" xlink:href="#sprite2"/>
    <use ffdec:characterId="7" height="19.55" transform="matrix(1.0015, 0.0226, -0.0243, 1.0751, -18.25, -32.6)" width="46.95" xlink:href="#sprite3"/>
  </g>
  <defs>
    <g id="sprite0">
      <filter color-interpolation-filters="sRGB" height="300%" id="filter0" width="300%" x="-100%" y="-100%">
        <feOffset dx="0.0" dy="0.0" in="SourceGraphic" result="filterResult0"/>
        <feColorMatrix in="filterResult0" result="filterResult1" type="matrix" values="0 0 0 0 1.0,0 0 0 0 1.0,0 0 0 0 0.0,0 0 0 1.0 0"/>
        <feGaussianBlur in="filterResult1" result="filterResult2" stdDeviation="2.29128784747792 2.29128784747792"/>
        <feColorMatrix in="filterResult2" result="filterResult3" type="matrix" values="1 0 0 0 0,0 1 0 0 0,0 0 1 0 0,0 0 0 1.19921875 0"/>
        <feComposite in="SourceGraphic" in2="filterResult3" operator="over" result="filterResult4"/>
        <feColorMatrix in="filterResult4" result="filterResult5" type="matrix" values="1.0 0.0 0.0 0.0 0.0 0.0 1.0 0.0 0.0 0.0 0.0 0.0 1.0 0.0 0.0 0.0 0.0 0.0 1.0 0.0"/>
      </filter>
      <use ffdec:characterId="2" filter="url(#filter0)" height="13.5" transform="matrix(1.0, 0.0, 0.0, 1.0, 0.0, 0.0)" width="13.5" xlink:href="#sprite1"/>
    </g>
    <g id="sprite1">
      <use ffdec:characterId="1" height="13.5" transform="matrix(1.0, 0.0, 0.0, 1.0, 0.0, 0.0)" width="13.5" xlink:href="#shape0"/>
    </g>
    <g id="shape0">
      <path d="M11.55 5.35 Q11.55 7.95 9.75 9.75 7.9 11.6 5.3 11.6 2.7 11.6 0.9 9.75 -0.95 7.95 -0.95 5.35 -0.95 2.75 0.9 0.9 2.7 -0.9 5.3 -0.9 7.9 -0.9 9.75 0.9 11.55 2.75 11.55 5.35" fill="url(#gradient0)" fill-rule="evenodd" stroke="none"/>
      <path d="M11.55 5.35 Q11.55 7.95 9.75 9.75 7.9 11.6 5.3 11.6 2.7 11.6 0.9 9.75 -0.95 7.95 -0.95 5.35 -0.95 2.75 0.9 0.9 2.7 -0.9 5.3 -0.9 7.9 -0.9 9.75 0.9 11.55 2.75 11.55 5.35 Z" ffdec:has-small-stroke="true" ffdec:original-stroke-width="1.0" fill="none" stroke="#fcfdf0" stroke-linecap="round" stroke-linejoin="round" stroke-width="1.1112351449768971"/>
      <path d="M5.7 4.1 Q5.6 3.35 6.1 2.75 6.6 2.3 7.35 2.3 8.1 2.3 8.65 2.75 9.1 3.3 9.1 4.05 9.25 4.8 8.7 5.3 8.25 5.8 7.45 5.8 6.7 5.8 6.2 5.3 5.7 4.9 5.7 4.1" fill="#ffffff" fill-rule="evenodd" stroke="none"/>
      <path d="M4.6 7.15 Q4.55 6.8 4.8 6.55 5.05 6.3 5.4 6.3 L6.0 6.55 6.15 7.15 6.0 7.7 5.45 7.9 4.85 7.7 4.6 7.15" fill="#ffffff" fill-rule="evenodd" stroke="none"/>
    </g>
    <radialGradient cx="0" cy="0" gradientTransform="matrix(0.0083, 0.0, 0.0, 0.0083, 5.3, 5.3)" gradientUnits="userSpaceOnUse" id="gradient0" r="819.2" spreadMethod="pad">
      <stop offset="0.0" stop-color="#fff8ac"/>
      <stop offset="1.0" stop-color="#ffec00"/>
    </radialGradient>
    <g id="sprite2">
      <use ffdec:characterId="4" height="24.25" transform="matrix(1.0, 0.0, 0.0, 1.0, 0.0, 0.0)" width="41.3" xlink:href="#shape1"/>
    </g>
    <g id="shape1">
      <path d="M24.15 11.65 Q31.1 14.0 36.05 17.9 40.95 21.8 36.8 23.05 33.55 24.25 30.1 23.6 24.6 23.05 21.65 18.95 20.75 17.65 20.15 16.0 18.75 12.5 19.85 11.4 20.9 10.45 24.15 11.65" fill="#b01330" fill-rule="evenodd" stroke="none"/>
      <path d="M24.15 11.65 Q31.1 14.0 36.05 17.9 40.95 21.8 36.8 23.05 33.55 24.25 30.1 23.6 24.6 23.05 21.65 18.95 20.75 17.65 20.15 16.0 18.75 12.5 19.85 11.4 20.9 10.45 24.15 11.65 Z" ffdec:has-small-stroke="true" ffdec:original-stroke-width="1.0" fill="none" stroke="#77001f" stroke-linecap="round" stroke-linejoin="round" stroke-width="1.00000034179556"/>
      <path d="M27.35 13.0 Q27.8 13.2 27.65 14.85 28.9 14.95 32.25 21.45 L32.45 21.85 Q35.5 28.0 35.0 32.3 L-1.3 32.3 Q-1.6 25.35 1.45 20.2 4.9 14.25 8.5 12.35 12.1 10.35 16.6 10.15 20.9 9.95 27.35 13.0" fill="#b01330" fill-rule="evenodd" stroke="none"/>
      <path d="M32.25 21.45 L32.45 21.85 Q35.5 28.0 35.0 32.3 M-1.3 32.3 Q-1.6 25.35 1.45 20.2 4.9 14.25 8.5 12.35 12.1 10.35 16.6 10.15 20.9 9.95 27.35 13.0" ffdec:has-small-stroke="true" ffdec:original-stroke-width="1.0" fill="none" stroke="#77001f" stroke-linecap="round" stroke-linejoin="round" stroke-width="1.00000034179556"/>
      <path d="M25.3 17.15 Q26.25 17.6 28.0 19.65 29.75 21.65 29.65 22.35 L29.3 23.45 29.05 24.1 Q28.9 24.75 29.85 26.6 30.8 28.4 30.8 30.85 30.8 33.3 29.65 33.35 L25.3 33.75 Q22.1 34.05 14.3 33.7 L2.05 33.4 -0.1 32.95 Q-0.45 28.4 1.65 23.9 3.7 19.35 6.55 16.5 9.4 13.6 12.65 12.3 15.85 11.0 19.1 11.2 22.3 11.4 24.85 12.7 27.35 14.0 28.15 15.15 28.9 16.25 29.05 17.1 29.2 17.85 27.75 17.45 L25.3 17.15" fill="#ff0044" fill-rule="evenodd" stroke="none"/>
      <path d="M33.3 21.1 Q33.75 22.5 33.45 23.7 L33.3 23.95 Q32.6 23.8 32.55 23.15 32.45 22.4 31.75 21.8 L31.7 21.7 31.8 21.1 32.1 20.5 32.55 20.5 32.85 20.6 33.3 21.1" fill="#350000" fill-rule="evenodd" stroke="none"/>
      <path d="M-1.1 24.75 Q-0.6 22.85 0.7 21.3 L0.8 21.35 Q-0.05 24.5 -0.5 27.75 L-0.9 31.85 -0.95 32.75 -1.5 33.15 Q-2.15 32.25 -2.1 31.2 L-2.0 29.9 -1.1 24.75" fill="#350000" fill-rule="evenodd" stroke="none"/>
    </g>
    <g id="sprite3">
      <use ffdec:characterId="6" height="19.55" transform="matrix(1.0, 0.0, 0.0, 1.0, 0.0, 0.0)" width="46.95" xlink:href="#shape2"/>
    </g>
    <g id="shape2">
      <path d="M-1.35 0.95 Q-0.4 0.9 1.3 2.55 -0.7 -0.75 1.15 -1.3 2.95 -1.9 4.5 0.9 4.8 -1.1 7.25 0.1 6.6 -1.0 7.0 -1.65 7.3 -2.3 8.6 -2.0 9.85 -1.7 10.75 -0.9 L11.6 -0.1 11.45 -0.9 Q11.25 -1.65 11.55 -2.1 11.85 -2.6 12.9 -1.95 13.9 -1.25 14.4 -0.35 14.85 0.55 14.9 1.3 L14.95 1.25 Q15.3 -0.2 16.95 -1.4 18.65 -2.65 19.65 -2.5 20.6 -2.4 20.55 -1.6 20.55 -0.85 20.15 -0.05 21.15 -0.95 22.6 -1.1 25.65 -1.2 24.55 0.6 25.2 0.55 26.4 1.15 L27.15 -0.55 Q27.8 -1.95 28.8 -1.95 29.9 -1.75 29.65 -0.3 30.15 -1.25 31.0 -1.8 31.95 -2.5 32.65 -2.35 33.3 -2.25 33.45 -1.85 L33.45 -1.0 33.2 -0.35 Q34.6 -1.4 36.35 -1.55 37.45 -1.6 38.1 -0.55 L38.15 -0.4 Q38.15 0.35 37.4 0.7 L38.1 0.7 Q41.15 1.55 40.7 3.25 40.3 4.15 39.35 3.85 41.5 4.7 42.05 6.4 42.6 8.15 39.65 7.35 40.4 7.85 40.9 8.7 41.35 9.5 41.4 10.35 41.4 11.2 40.15 11.0 38.85 10.8 38.25 10.4 L38.55 11.35 38.4 12.15 Q37.55 13.2 35.65 12.0 35.9 13.35 35.4 13.95 L34.15 14.15 Q33.0 13.45 32.95 12.9 32.25 14.15 30.4 13.1 31.35 14.25 30.75 14.8 30.2 15.5 28.2 13.9 28.5 15.25 28.15 15.6 L26.7 15.65 Q25.65 15.3 24.55 13.95 24.8 15.55 24.2 16.3 23.45 16.7 22.55 15.95 21.65 15.25 21.3 14.55 21.2 15.75 20.15 15.75 19.05 15.75 18.25 14.5 17.9 16.9 16.75 16.5 15.55 16.1 14.5 14.45 L14.05 13.7 Q13.2 15.85 12.05 16.1 10.9 16.35 10.75 14.15 L10.7 13.35 8.45 14.8 6.5 15.0 Q5.5 14.65 7.05 12.8 6.25 13.55 4.45 14.05 2.6 14.55 2.35 13.75 2.05 12.9 2.8 12.5 -0.85 13.95 -2.0 12.95 -3.15 11.95 -0.85 10.1 -3.95 10.85 -3.75 9.6 -3.55 8.35 -1.4 7.55 -2.8 7.7 -3.8 6.95 -4.8 6.15 -3.75 5.35 -2.75 4.55 -1.35 4.45 L-2.45 3.1 Q-3.0 2.2 -2.65 1.6 -2.35 0.95 -1.35 0.95" fill="#ffffff" fill-rule="evenodd" stroke="none"/>
      <path d="M-1.35 0.95 Q-0.4 0.9 1.3 2.55 -0.7 -0.75 1.15 -1.3 2.95 -1.9 4.5 0.9 4.8 -1.1 7.25 0.1 6.6 -1.0 7.0 -1.65 7.3 -2.3 8.6 -2.0 9.85 -1.7 10.75 -0.9 L11.6 -0.1 11.45 -0.9 Q11.25 -1.65 11.55 -2.1 11.85 -2.6 12.9 -1.95 13.9 -1.25 14.4 -0.35 14.85 0.55 14.9 1.3 L14.95 1.25 Q15.3 -0.2 16.95 -1.4 18.65 -2.65 19.65 -2.5 20.6 -2.4 20.55 -1.6 20.55 -0.85 20.15 -0.05 21.15 -0.95 22.6 -1.1 25.65 -1.2 24.55 0.6 25.2 0.55 26.4 1.15 L27.15 -0.55 Q27.8 -1.95 28.8 -1.95 29.9 -1.75 29.65 -0.3 30.15 -1.25 31.0 -1.8 31.95 -2.5 32.65 -2.35 33.3 -2.25 33.45 -1.85 L33.45 -1.0 33.2 -0.35 Q34.6 -1.4 36.35 -1.55 37.45 -1.6 38.1 -0.55 L38.15 -0.4 Q38.15 0.35 37.4 0.7 L38.1 0.7 Q41.15 1.55 40.7 3.25 40.3 4.15 39.35 3.85 41.5 4.7 42.05 6.4 42.6 8.15 39.65 7.35 40.4 7.85 40.9 8.7 41.35 9.5 41.4 10.35 41.4 11.2 40.15 11.0 38.85 10.8 38.25 10.4 L38.55 11.35 38.4 12.15 Q37.55 13.2 35.65 12.0 35.9 13.35 35.4 13.95 L34.15 14.15 Q33.0 13.45 32.95 12.9 32.25 14.15 30.4 13.1 31.35 14.25 30.75 14.8 30.2 15.5 28.2 13.9 28.5 15.25 28.15 15.6 L26.7 15.65 Q25.65 15.3 24.55 13.95 24.8 15.55 24.2 16.3 23.45 16.7 22.55 15.95 21.65 15.25 21.3 14.55 21.2 15.75 20.15 15.75 19.05 15.75 18.25 14.5 17.9 16.9 16.75 16.5 15.55 16.1 14.5 14.45 L14.05 13.7 Q13.2 15.85 12.05 16.1 10.9 16.35 10.75 14.15 L10.7 13.35 8.45 14.8 6.5 15.0 Q5.5 14.65 7.05 12.8 6.25 13.55 4.45 14.05 2.6 14.55 2.35 13.75 2.05 12.9 2.8 12.5 -0.85 13.95 -2.0 12.95 -3.15 11.95 -0.85 10.1 -3.95 10.85 -3.75 9.6 -3.55 8.35 -1.4 7.55 -2.8 7.7 -3.8 6.95 -4.8 6.15 -3.75 5.35 -2.75 4.55 -1.35 4.45 L-2.45 3.1 Q-3.0 2.2 -2.65 1.6 -2.35 0.95 -1.35 0.95 Z" ffdec:has-small-stroke="true" ffdec:original-stroke-width="0.5" fill="none" stroke="#999494" stroke-linecap="round" stroke-linejoin="round" stroke-width="0.9634942288817694"/>
      <path d="M39.8 4.05 Q41.55 4.9 42.05 6.4 42.6 8.15 39.65 7.35 40.4 7.85 40.9 8.7 41.35 9.5 41.4 10.35 41.4 11.2 40.15 11.0 38.85 10.8 38.25 10.4 L38.55 11.35 38.4 12.15 Q37.55 13.2 35.65 12.0 35.9 13.35 35.4 13.95 L34.15 14.15 Q33.0 13.45 32.95 12.9 32.25 14.15 30.4 13.1 31.35 14.25 30.75 14.8 30.2 15.5 28.2 13.9 28.5 15.25 28.15 15.6 L26.7 15.65 Q25.65 15.3 24.55 13.95 24.8 15.55 24.2 16.3 23.45 16.7 22.55 15.95 21.65 15.25 21.3 14.55 21.2 15.75 20.15 15.75 19.05 15.75 18.25 14.5 17.9 16.9 16.75 16.5 15.55 16.1 14.5 14.45 L14.05 13.7 Q13.2 15.85 12.05 16.1 10.9 16.35 10.75 14.15 L10.7 13.35 8.45 14.8 6.5 15.0 Q5.5 14.65 7.05 12.8 6.25 13.55 4.45 14.05 2.6 14.55 2.35 13.75 2.05 12.9 2.8 12.5 -0.85 13.95 -2.0 12.95 -3.15 11.95 -0.85 10.1 -3.95 10.85 -3.75 9.6 -3.6 8.55 -2.15 7.85 L0.25 7.35 -0.3 7.6 -1.0 8.1 -1.5 8.6 Q-1.4 9.05 -0.85 9.15 L0.95 8.9 0.7 9.2 0.75 9.55 Q1.6 10.05 5.6 7.9 1.05 11.6 4.45 10.65 L7.9 8.6 7.5 9.25 7.3 9.7 7.35 9.8 Q7.85 9.95 9.05 9.1 L10.65 7.35 Q10.15 8.35 10.55 8.55 10.95 8.75 11.5 8.55 L12.5 7.95 Q13.35 10.9 14.5 10.9 15.6 10.9 15.4 7.75 15.9 11.15 16.85 12.3 18.7 14.25 18.35 10.4 19.35 11.3 20.2 11.25 21.05 11.15 20.65 9.75 22.95 12.2 23.25 11.3 L23.25 11.05 22.5 9.6 Q24.7 10.95 22.75 7.8 L26.1 11.35 Q26.7 11.65 27.1 11.0 27.45 10.3 26.45 7.0 28.05 10.3 28.8 8.7 28.8 7.4 28.45 6.75 30.1 8.65 31.4 9.3 L33.95 10.1 35.4 10.1 35.55 9.45 Q35.55 8.95 33.75 7.25 35.8 8.2 36.6 8.25 37.35 8.25 37.5 7.7 37.65 7.15 35.35 4.55 37.45 6.0 39.2 6.1 40.9 6.2 40.7 5.45 40.45 4.65 39.4 4.0 L39.8 4.05" fill="#dfd5d5" fill-rule="evenodd" stroke="none"/>
      <path d="M39.8 4.05 Q41.55 4.9 42.05 6.4 42.6 8.15 39.65 7.35 40.4 7.85 40.9 8.7 41.35 9.5 41.4 10.35 41.4 11.2 40.15 11.0 38.85 10.8 38.25 10.4 L38.55 11.35 38.4 12.15 Q37.55 13.2 35.65 12.0 35.9 13.35 35.4 13.95 L34.15 14.15 Q33.0 13.45 32.95 12.9 32.25 14.15 30.4 13.1 31.35 14.25 30.75 14.8 30.2 15.5 28.2 13.9 28.5 15.25 28.15 15.6 L26.7 15.65 Q25.65 15.3 24.55 13.95 24.8 15.55 24.2 16.3 23.45 16.7 22.55 15.95 21.65 15.25 21.3 14.55 21.2 15.75 20.15 15.75 19.05 15.75 18.25 14.5 17.9 16.9 16.75 16.5 15.55 16.1 14.5 14.45 L14.05 13.7 Q13.2 15.85 12.05 16.1 10.9 16.35 10.75 14.15 L10.7 13.35 8.45 14.8 6.5 15.0 Q5.5 14.65 7.05 12.8 6.25 13.55 4.45 14.05 2.6 14.55 2.35 13.75 2.05 12.9 2.8 12.5 -0.85 13.95 -2.0 12.95 -3.15 11.95 -0.85 10.1 -3.95 10.85 -3.75 9.6 -3.6 8.55 -2.15 7.85" ffdec:has-small-stroke="true" ffdec:original-stroke-width="0.5" fill="none" stroke="#807e7e" stroke-linecap="round" stroke-linejoin="round" stroke-width="0.9634942288817694"/>
      <path d="M9.95 12.15 L9.9 12.8 9.15 13.6 8.1 14.1 7.45 13.95 Q7.3 13.7 7.5 13.25 L8.3 12.45 Q8.8 12.05 9.3 11.95 9.8 11.9 9.95 12.15" fill="#ffffff" fill-rule="evenodd" stroke="none"/>
      <path d="M31.9 12.85 L31.25 12.8 30.35 12.1 29.8 11.15 Q29.65 10.7 29.85 10.5 30.1 10.3 30.55 10.5 L31.4 11.15 32.0 12.15 Q32.15 12.65 31.9 12.85" fill="#ffffff" fill-rule="evenodd" stroke="none"/>
      <path d="M13.0 12.95 L13.25 13.55 13.05 14.7 12.4 15.6 11.8 15.8 Q11.55 15.7 11.5 15.25 11.5 14.75 11.75 14.15 12.0 13.55 12.35 13.2 12.75 12.85 13.0 12.95" fill="#ffffff" fill-rule="evenodd" stroke="none"/>
      <path d="M18.4 1.0 L18.8 0.75 19.6 0.9 19.75 1.25 19.9 1.75 19.9 1.95 19.65 2.45 19.3 2.65 19.25 2.65 18.6 2.65 18.1 2.35 18.25 1.25 18.4 1.0" fill="#dfd5d5" fill-rule="evenodd" stroke="none"/>
      <path d="M12.0 5.8 Q11.2 5.6 11.1 4.65 10.95 3.5 10.05 2.8 11.3 2.65 11.8 4.0 12.2 3.2 12.9 2.85 L13.05 2.95 13.25 3.35 Q12.7 4.3 12.8 5.45 L12.0 5.8" fill="#dfd5d5" fill-rule="evenodd" stroke="none"/>
      <path d="M4.25 2.95 L5.8 3.1 6.0 3.4 6.1 3.85 5.7 4.0 5.4 4.05 4.8 3.75 3.4 3.6 3.55 3.35 3.65 3.2 4.25 2.95" fill="#dfd5d5" fill-rule="evenodd" stroke="none"/>
      <path d="M34.55 1.25 Q35.6 0.3 36.6 0.5 L36.75 0.65 36.7 0.8 35.5 1.65 34.85 3.0 34.3 3.25 32.95 2.9 32.9 2.7 33.05 1.65 33.85 1.1 34.55 1.25" fill="#dfd5d5" fill-rule="evenodd" stroke="none"/>
      <path d="M29.8 2.95 Q29.8 1.1 31.3 0.95 L31.4 1.0 30.9 1.7 30.95 2.5 30.8 3.1 30.6 3.35 30.3 3.35 30.05 3.25 29.8 2.95" fill="#dfd5d5" fill-rule="evenodd" stroke="none"/>
    </g>
  </defs>
</svg>
