<?xml version="1.0" encoding="UTF-8" standalone="no"?>
<svg xmlns:ffdec="https://www.free-decompiler.com/flash" xmlns:xlink="http://www.w3.org/1999/xlink" ffdec:objectType="frame" height="43.9px" width="48.05px" xmlns="http://www.w3.org/2000/svg">
  <g transform="matrix(1.0, 0.0, 0.0, 1.0, 24.4, 58.7)">
    <use ffdec:characterId="12" height="43.9" transform="matrix(1.0, 0.0, 0.0, 1.0, -0.2, -36.9)" width="48.05" xlink:href="#sprite0"/>
  </g>
  <defs>
    <g id="sprite0">
      <use ffdec:characterId="6" height="43.9" transform="matrix(1.0, 0.0, 0.0, 1.0, 0.0, 0.0)" width="48.05" xlink:href="#shape0"/>
      <use ffdec:characterId="7" height="35.35" transform="matrix(1.0, 0.0, 0.0, 1.0, 0.0, 2.6)" width="44.05" xlink:href="#shape1"/>
      <use ffdec:characterId="8" height="11.15" transform="matrix(1.0, 0.0, 0.0, 1.0, 0.0, 0.0)" width="32.15" xlink:href="#shape2"/>
      <use ffdec:characterId="10" height="24.1" transform="matrix(0.9982, 0.0, 0.0, 0.9977, 0.1, 3.9)" width="28.5" xlink:href="#sprite1"/>
      <use ffdec:characterId="2" height="10.85" transform="matrix(1.0, 0.0, 0.0, 1.0, -0.2, -15.1)" width="15.35" xlink:href="#shape4"/>
      <use ffdec:characterId="11" height="7.15" transform="matrix(1.0, 0.0, 0.0, 1.0, 0.0, 0.0)" width="4.35" xlink:href="#shape5"/>
    </g>
    <g id="shape0">
      <path d="M0.05 -20.5 L0.25 -20.65 0.3 -20.65 0.35 -20.7 0.8 -21.0 1.5 -21.4 Q2.2 -22.25 4.0 -21.2 5.45 -20.75 5.55 -18.55 5.65 -17.4 5.05 -16.4 11.6 -15.0 16.7 -9.75 24.0 -2.4 23.85 4.75 23.9 12.1 16.55 17.25 9.6 22.1 -0.15 22.1 -9.95 22.1 -16.85 17.25 -24.25 12.1 -24.2 4.75 -24.25 -2.25 -17.4 -9.45 L-17.3 -9.65 Q-11.3 -16.0 -2.85 -16.75 L-2.3 -17.8 -2.4 -17.55 -2.35 -17.6 -2.25 -17.85 -1.3 -19.1 -1.1 -19.3 0.05 -20.5" fill="#000000" fill-rule="evenodd" stroke="none"/>
    </g>
    <g id="shape1">
      <path d="M-0.3 -17.7 Q8.85 -17.8 15.4 -11.1 22.0 -4.4 22.0 2.0 22.0 8.35 15.55 12.85 9.1 17.35 0.0 17.35 -9.15 17.35 -15.6 12.85 -22.05 8.35 -22.05 2.0 -22.05 -4.4 -15.75 -11.0 -9.4 -17.6 -0.3 -17.7" fill="#94421f" fill-rule="evenodd" stroke="none"/>
      <path d="M-0.6 -14.85 Q6.95 -14.9 12.4 -9.35 17.85 -3.8 17.85 1.45 17.85 6.75 12.5 10.45 7.15 14.2 -0.4 14.2 -7.95 14.2 -13.3 10.45 -18.65 6.75 -18.65 1.45 -18.65 -3.8 -13.4 -9.3 -8.2 -14.75 -0.6 -14.85" fill="#da6d03" fill-rule="evenodd" stroke="none"/>
      <path d="M12.25 -7.95 Q16.0 -4.75 15.05 -0.95 14.05 2.85 8.85 5.05 3.7 7.3 -2.65 6.6 -9.0 5.9 -12.75 2.7 -16.5 -0.5 -15.5 -4.3 -14.55 -8.1 -9.35 -10.3 -4.2 -12.5 2.15 -11.8 8.5 -11.1 12.25 -7.95" fill="#ff9900" fill-rule="evenodd" stroke="none"/>
      <path d="M-4.3 -17.25 L-4.4 -17.4 -4.35 -17.55 -4.2 -17.65 -4.05 -17.6 -1.15 -15.6 -1.05 -15.45 -1.1 -15.25 -1.25 -15.2 -1.15 -15.15 -1.05 -15.05 -1.1 -14.85 Q-8.4 -2.0 -8.9 6.0 -9.4 13.85 -3.2 16.95 L-3.1 17.1 -3.1 17.25 -3.25 17.35 -3.4 17.35 Q-9.85 14.15 -9.35 5.95 -8.85 -2.1 -1.45 -15.05 L-1.35 -15.15 -1.3 -15.2 -1.4 -15.2 -4.3 -17.25 M-20.35 -5.1 L-20.35 -5.25 Q-18.0 -10.4 -3.7 -15.05 L-8.95 -16.05 -9.1 -16.15 -9.1 -16.3 -9.05 -16.45 -8.9 -16.45 -2.8 -15.3 -2.35 -15.45 -2.2 -15.45 -2.1 -15.3 -2.1 -15.15 -1.95 -15.1 -1.95 -14.95 -2.0 -14.8 -2.1 -14.75 -2.0 -14.65 -1.95 -14.5 -2.0 -14.35 Q-21.3 1.55 -11.9 14.75 L-11.85 14.9 -11.95 15.0 -12.1 15.05 -12.25 15.0 Q-21.95 1.5 -2.3 -14.7 L-2.2 -14.75 -2.8 -14.85 -3.4 -14.65 Q-23.35 -0.5 -20.55 6.85 L-20.55 7.0 -20.65 7.15 -20.8 7.15 -20.95 7.0 Q-23.85 -0.4 -4.75 -14.25 -17.7 -9.85 -19.95 -5.1 L-20.1 -4.95 -20.25 -4.95 -20.35 -5.1 M1.25 17.25 L1.35 17.35 1.4 17.5 1.25 17.65 1.1 17.65 Q-2.0 16.75 -2.45 8.6 -2.95 0.65 -0.95 -14.4 L-0.85 -14.55 -0.7 -14.6 -0.55 -14.5 -0.5 -14.35 Q-2.5 0.65 -2.05 8.6 -1.55 16.35 1.25 17.25 M0.1 -15.15 L0.2 -15.05 Q10.2 13.5 3.15 17.35 L3.0 17.35 2.85 17.25 2.85 17.1 2.95 16.95 Q9.65 13.2 -0.2 -14.9 L-0.2 -15.05 -0.05 -15.15 0.1 -15.15 M13.15 -13.3 L13.3 -13.2 13.3 -13.05 13.2 -12.9 13.05 -12.9 2.05 -15.3 Q20.8 -6.7 21.55 -1.3 L21.5 -1.15 21.35 -1.05 21.2 -1.1 21.1 -1.25 Q20.3 -6.55 1.25 -15.2 21.25 1.7 19.5 8.85 L19.4 9.0 19.25 9.0 19.1 8.9 19.1 8.75 Q20.65 2.0 2.05 -14.0 17.35 10.3 10.95 15.45 L10.8 15.5 10.65 15.4 10.6 15.25 10.65 15.1 Q16.85 10.0 0.95 -14.95 L0.75 -15.1 0.65 -15.25 0.65 -15.35 0.65 -15.45 0.65 -15.5 0.55 -15.6 0.55 -15.75 0.55 -15.9 0.6 -16.0 0.7 -16.1 0.85 -16.2 5.75 -17.05 5.9 -17.0 6.0 -16.85 5.95 -16.7 5.8 -16.65 1.55 -15.85 13.15 -13.3" fill="#452010" fill-rule="evenodd" stroke="none"/>
    </g>
    <g id="shape2">
      <path d="M-17.05 5.45 L-17.15 4.35 Q-17.3 3.15 -16.75 1.3 -16.1 -0.65 -14.75 -1.8 -13.4 -3.0 -13.0 -2.8 -12.6 -2.6 -13.1 -1.3 -13.55 -0.1 -14.9 1.3 -16.3 2.7 -16.6 4.05 L-17.05 5.45" fill="#fed69a" fill-rule="evenodd" stroke="none"/>
      <path d="M-13.2 2.95 Q-13.0 1.7 -12.15 1.0 -11.3 0.25 -10.7 0.25 -10.1 0.25 -9.65 1.2 -9.2 2.2 -9.2 3.6 -9.2 5.0 -9.85 5.55 -10.5 6.1 -11.15 6.05 L-12.6 5.1 Q-13.45 4.2 -13.2 2.95" fill="#fed69a" fill-rule="evenodd" stroke="none"/>
      <path d="M3.05 1.8 L3.5 3.95 Q3.5 4.85 2.75 5.35 1.95 5.85 0.9 5.8 -0.15 5.75 -0.75 5.3 -1.4 4.85 -1.5 3.8 -1.6 2.7 -0.85 1.15 -0.15 -0.45 1.2 0.05 2.55 0.5 3.05 1.8" fill="#fed69a" fill-rule="evenodd" stroke="none"/>
      <path d="M8.8 4.2 Q8.45 5.1 7.6 5.3 6.8 5.55 6.05 5.0 5.25 4.4 4.95 3.35 4.65 2.3 5.05 1.45 5.4 0.55 6.2 0.3 7.05 0.1 7.8 0.65 8.6 1.2 8.9 2.25 9.2 3.3 8.8 4.2" fill="#fed69a" fill-rule="evenodd" stroke="none"/>
      <path d="M11.55 2.65 L10.9 2.6 9.9 1.5 Q9.15 0.6 9.05 -0.3 8.95 -1.25 9.7 -2.05 10.5 -2.85 11.0 -2.4 L12.35 -1.05 Q13.2 -0.15 12.55 1.2 L11.55 2.65" fill="#fed69a" fill-rule="evenodd" stroke="none"/>
      <path d="M13.9 -1.4 L12.65 -2.5 Q11.9 -3.1 11.6 -3.85 11.25 -4.6 11.65 -4.95 L12.75 -4.9 14.1 -3.8 Q14.75 -3.0 14.9 -2.1 15.05 -1.2 14.7 -1.0 14.4 -0.9 13.9 -1.4" fill="#fed69a" fill-rule="evenodd" stroke="none"/>
    </g>
    <g id="sprite1">
      <use ffdec:characterId="9" height="24.1" transform="matrix(1.0, 0.0, 0.0, 1.0, 0.0, 0.0)" width="28.5" xlink:href="#shape3"/>
    </g>
    <g id="shape3">
      <path d="M10.75 4.85 L10.8 4.35 Q12.75 5.85 13.65 8.15 L13.45 10.65 11.95 10.65 11.95 9.75 12.45 9.8 12.65 7.1 Q11.95 5.7 10.75 4.85 M11.85 8.6 L11.75 8.55 9.55 8.15 9.55 10.05 7.35 9.95 7.4 9.0 8.9 9.2 9.1 7.3 11.55 7.75 11.8 8.45 11.85 8.4 11.85 8.6 M7.5 7.1 L4.1 6.65 4.1 9.5 1.85 9.4 1.9 8.5 3.8 8.55 3.7 6.05 7.35 6.45 7.5 7.1 M2.0 5.8 L-0.95 5.6 -0.95 5.95 -1.05 5.65 -0.7 5.05 1.65 5.15 1.95 5.7 2.0 5.7 2.0 5.8 M-0.8 8.55 L-0.75 9.4 -3.2 9.2 -3.45 6.95 -6.25 6.95 -6.25 7.05 -6.35 7.0 -5.85 6.2 -2.8 6.2 -2.85 8.55 -0.8 8.55 M-6.1 8.85 L-6.05 9.7 -9.0 9.75 -8.75 7.4 -12.05 8.15 -12.0 8.2 -12.15 8.25 -11.75 7.5 -8.4 6.95 -8.4 8.9 -6.1 8.85 M-11.6 9.5 L-11.4 10.25 -13.65 10.55 -13.45 7.8 Q-12.15 5.45 -10.05 4.4 L-10.05 4.55 Q-11.6 5.5 -12.65 7.45 L-12.65 9.6 -11.6 9.5 M-9.65 6.2 L-6.55 5.85 -7.3 2.95 -6.2 2.7 -5.85 5.3 -6.4 5.95 -7.85 6.15 -9.65 6.2 M-4.2 2.2 L-4.0 2.15 -4.1 4.7 -1.6 4.6 -1.8 2.05 -1.35 2.0 -1.4 4.85 -4.45 5.0 -4.2 2.2 M1.15 1.95 L1.85 1.9 1.9 4.35 1.35 4.2 1.15 1.95 M1.95 4.45 L2.0 4.45 1.9 4.5 1.95 4.45 M6.9 2.75 L8.05 2.95 7.55 5.5 7.55 5.55 7.5 5.55 7.5 5.45 6.8 4.95 6.9 2.75" fill="#ff6600" fill-rule="evenodd" stroke="none"/>
      <path d="M10.75 4.85 Q11.95 5.7 12.65 7.1 L12.45 9.8 11.95 9.75 11.9 8.6 11.85 8.6 11.85 8.4 11.8 8.45 11.55 7.75 9.1 7.3 8.9 9.2 7.4 9.0 7.5 7.1 7.35 6.45 3.7 6.05 3.8 8.55 1.9 8.5 2.05 5.8 2.0 5.8 2.0 5.7 1.95 5.7 1.65 5.15 -0.7 5.05 -1.05 5.65 -0.95 5.95 -0.8 8.55 -2.85 8.55 -2.8 6.2 -5.85 6.2 -6.35 7.0 -6.25 7.05 -6.1 8.85 -8.4 8.9 -8.4 6.95 -11.75 7.5 -12.15 8.25 -12.0 8.2 -11.6 9.5 -12.65 9.6 -12.65 7.45 Q-11.6 5.5 -10.05 4.55 L-9.85 6.2 -9.65 6.2 -7.85 6.15 -6.4 5.95 -5.85 5.3 -6.2 2.7 -4.2 2.2 -4.45 5.0 -1.4 4.85 -1.35 2.0 1.15 1.95 1.35 4.2 1.9 4.35 1.9 4.45 1.95 4.45 1.9 4.5 2.0 4.45 4.3 4.95 4.3 2.3 6.9 2.75 6.8 4.95 7.5 5.45 7.5 5.55 7.55 5.55 10.55 6.7 10.75 4.85" fill="#ffff99" fill-rule="evenodd" stroke="none"/>
      <path d="M7.55 5.5 L7.55 5.55 7.55 5.5" fill="#ffc199" fill-rule="evenodd" stroke="none"/>
      <path d="M-11.2 10.9 L-11.3 10.9 -11.2 10.9 M11.9 8.6 L12.05 10.35 13.15 10.3 13.3 8.2 Q12.5 6.35 11.1 5.05 L10.55 6.6 7.2 5.4 7.2 5.35 7.65 3.25 4.65 2.75 4.65 4.8 4.55 5.15 1.55 4.4 1.55 4.3 1.5 2.3 -1.4 2.4 -1.55 4.75 -4.3 5.0 -4.35 2.65 -6.85 3.2 -6.2 5.65 -6.35 6.0 -10.05 6.2 -10.45 4.8 Q-12.05 6.05 -13.1 7.9 L-13.2 10.15 -11.85 9.95 -12.1 8.15 -8.75 7.4 -8.6 9.4 -6.4 9.35 -6.35 6.85 -3.1 7.0 -3.1 7.05 -2.85 8.85 -1.1 9.0 -1.05 5.55 1.9 5.85 2.05 5.85 2.25 9.1 3.75 9.15 3.75 6.8 3.8 6.65 7.6 7.15 7.75 9.65 9.2 9.7 9.45 8.15 11.9 8.6 M11.0 3.3 L12.35 4.35 Q13.25 5.3 13.8 6.65 L14.3 8.1 14.35 8.4 14.1 10.7 14.05 11.3 11.25 11.25 11.3 10.7 11.25 9.15 10.2 8.95 10.2 10.05 10.2 10.15 10.15 10.9 6.55 10.65 6.7 9.95 6.85 7.65 4.75 7.4 4.6 10.5 1.0 10.15 1.2 9.4 1.4 6.45 -0.25 6.3 -0.25 10.2 -4.0 10.2 -4.05 7.6 -5.55 7.6 -5.6 10.25 -9.6 10.25 -9.45 8.25 -11.2 8.65 -11.25 10.85 -14.1 10.95 -14.1 7.75 -12.85 6.05 Q-11.65 4.45 -10.65 3.8 L-10.2 3.5 -9.25 5.5 -7.3 5.3 -7.9 3.15 -7.95 3.0 -8.05 2.6 -3.45 1.75 -3.4 4.05 -2.3 4.05 -2.35 1.7 2.55 1.35 2.55 3.95 3.65 4.2 3.7 1.7 8.75 2.45 8.3 5.15 10.0 5.8 11.0 3.3" fill="#000000" fill-rule="evenodd" stroke="none"/>
      <path d="M2.15 -6.15 L4.15 -2.85 10.9 -10.0 11.1 -9.75 4.3 -0.6 1.0 -5.6 2.15 -6.15" fill="#f47b02" fill-rule="evenodd" stroke="none"/>
      <path d="M10.9 -10.0 L4.15 -2.85 2.15 -6.15 10.5 -10.45 10.9 -10.0" fill="#ffff99" fill-rule="evenodd" stroke="none"/>
      <path d="M11.55 -12.8 L13.0 -9.15 4.55 1.2 -0.6 -6.0 11.55 -12.8 M10.5 -10.45 L1.0 -5.55 4.3 -0.55 11.1 -9.7 10.5 -10.45" fill="#000000" fill-rule="evenodd" stroke="none"/>
      <path d="M-12.1 -9.85 L-5.9 -2.4 -3.45 -6.05 -2.25 -5.45 -2.25 -5.4 -5.55 -0.45 -12.35 -9.6 -12.1 -9.85" fill="#f47b02" fill-rule="evenodd" stroke="none"/>
      <path d="M-12.1 -9.85 L-11.75 -10.3 -3.45 -6.05 -5.9 -2.4 -12.1 -9.85" fill="#ffff99" fill-rule="evenodd" stroke="none"/>
      <path d="M-12.35 -9.6 L-5.5 -0.45 -2.25 -5.45 -11.75 -10.35 -12.35 -9.6 M-11.95 -11.4 L-1.35 -5.95 -5.45 1.4 -14.15 -8.45 -11.95 -11.4" fill="#000000" fill-rule="evenodd" stroke="none"/>
    </g>
    <g id="shape4">
      <path d="M-5.3 1.6 Q-3.05 0.85 0.15 0.85 3.25 1.0 5.4 1.7 7.55 2.3 7.65 3.35 7.85 4.35 5.4 5.3 2.95 6.2 -0.15 6.2 -3.25 6.2 -5.5 5.3 -7.85 4.35 -7.7 3.35 -7.65 2.3 -5.3 1.6" fill="#000000" fill-opacity="0.5019608" fill-rule="evenodd" stroke="none"/>
      <path d="M4.1 4.1 Q5.65 3.65 5.7 3.0 5.65 2.4 4.1 1.9 L0.05 1.45 -4.0 1.9 Q-5.55 2.4 -5.55 3.0 -5.55 3.65 -4.0 4.1 L0.05 4.55 4.1 4.1 M0.3 1.25 L4.45 1.8 Q6.15 2.2 6.25 2.9 6.4 3.55 4.45 4.2 L0.05 4.8 -4.2 4.2 Q-6.05 3.55 -5.95 2.9 -5.9 2.2 -4.05 1.75 L0.3 1.25" fill="#000000" fill-rule="evenodd" stroke="none"/>
      <path d="M4.1 4.1 L0.05 4.55 -4.0 4.1 Q-5.55 3.65 -5.55 3.0 -5.55 2.4 -4.0 1.9 L0.05 1.45 4.1 1.9 Q5.65 2.4 5.7 3.0 5.65 3.65 4.1 4.1" fill="#385c01" fill-rule="evenodd" stroke="none"/>
      <path d="M2.5 -4.15 L2.8 -4.25 2.95 -4.25 2.95 -4.15 2.55 -4.05 2.5 -4.15" fill="#336600" fill-rule="evenodd" stroke="none"/>
      <path d="M2.95 -4.25 L3.35 -4.1 3.55 -3.55 3.45 -2.9 Q3.35 -2.4 2.95 -2.3 L2.75 -2.0 2.75 -1.95 2.35 -1.2 2.15 -0.8 Q1.6 0.35 1.35 1.25 L1.35 1.35 1.15 2.6 Q0.9 3.0 0.25 3.1 L-0.2 3.05 -0.55 3.05 -1.05 3.05 -1.45 2.7 -1.75 2.05 -1.45 1.05 -0.7 -0.55 0.4 -2.2 1.2 -3.1 2.3 -4.0 2.5 -4.15 2.55 -4.05 2.45 -3.6 2.5 -3.4 2.5 -3.35 Q2.65 -3.15 2.9 -3.15 L3.35 -3.4 3.45 -3.7 Q3.45 -4.1 2.95 -4.15 L2.95 -4.25" fill="#385c01" fill-rule="evenodd" stroke="none"/>
      <path d="M2.95 -4.15 Q3.45 -4.1 3.45 -3.7 L3.35 -3.4 2.9 -3.15 Q2.65 -3.15 2.5 -3.35 L2.5 -3.4 2.45 -3.6 2.55 -4.05 2.95 -4.15" fill="#9afc36" fill-rule="evenodd" stroke="none"/>
      <path d="M2.3 -4.0 L0.4 -2.2 -0.7 -0.55 Q-1.25 0.3 -1.6 1.9 L-1.55 2.05 -1.65 2.25 Q-1.75 2.4 -1.95 2.4 L-2.2 2.2 -1.8 1.95 -1.4 0.4 -0.25 -1.85 0.65 -2.95 1.7 -4.05 2.25 -4.35 2.7 -4.6 3.0 -4.65 3.45 -4.45 Q3.85 -4.25 3.9 -3.5 3.95 -2.75 3.35 -2.1 2.6 -1.25 2.25 -0.15 L1.8 1.55 1.75 1.7 1.75 2.1 1.7 2.45 2.05 2.7 1.95 2.8 1.8 2.85 1.55 2.85 1.25 2.75 1.2 2.6 1.25 2.4 1.35 1.35 1.35 1.25 2.35 -1.2 2.75 -1.95 2.75 -2.0 2.95 -2.3 Q3.35 -2.4 3.45 -2.9 L3.55 -3.55 3.35 -4.1 2.8 -4.25 2.3 -4.0 M-2.45 2.5 L-2.6 2.6 -2.7 2.5 -2.6 2.4 Q-2.45 2.35 -2.45 2.5" fill="#000000" fill-rule="evenodd" stroke="none"/>
      <path d="M2.15 -3.15 L0.55 -0.5 0.15 1.15 -0.1 1.6 -0.75 1.7 Q-1.45 1.0 -0.75 -0.05 L0.6 -2.1 1.65 -3.25 Q2.0 -3.5 2.15 -3.15" fill="#7caf03" fill-rule="evenodd" stroke="none"/>
    </g>
    <g id="shape5">
      <path d="M0.25 -18.8 L-0.6 -16.9 -1.1 -14.75 Q-1.5 -13.4 -2.4 -13.4 -3.05 -13.4 -3.0 -14.05 -3.0 -15.0 -1.1 -17.6 0.5 -19.85 1.35 -20.55 L0.25 -18.8" fill="#000000" fill-rule="evenodd" stroke="none"/>
    </g>
  </defs>
</svg>
