<?xml version="1.0" encoding="UTF-8" standalone="no"?>
<svg xmlns:ffdec="https://www.free-decompiler.com/flash" xmlns:xlink="http://www.w3.org/1999/xlink" ffdec:objectType="frame" height="37.15px" width="43.95px" xmlns="http://www.w3.org/2000/svg">
  <g transform="matrix(1.0, 0.0, 0.0, 1.0, 21.95, 59.6)">
    <use ffdec:characterId="5" height="37.15" transform="matrix(1.0, 0.0, 0.0, 1.0, -12.7, -55.75)" width="43.95" xlink:href="#sprite0"/>
  </g>
  <defs>
    <g id="sprite0">
      <use ffdec:characterId="4" height="37.15" transform="matrix(1.0, 0.0, 0.0, 1.0, 0.0, 0.0)" width="43.95" xlink:href="#shape0"/>
    </g>
    <g id="shape0">
      <path d="M12.4 24.4 Q21.75 30.45 30.5 24.9 L33.5 27.6 Q34.95 28.85 33.3 29.65 L28.8 31.7 Q25.9 32.9 23.4 32.8 20.85 32.65 17.25 30.85 13.6 29.0 12.4 24.4" fill="#f1dc01" fill-rule="evenodd" stroke="none"/>
      <path d="M12.4 24.4 L12.55 21.65 Q20.75 18.0 30.5 24.9 21.75 30.45 12.4 24.4" fill="#c07d19" fill-rule="evenodd" stroke="none"/>
      <path d="M30.5 24.9 Q20.75 18.0 12.55 21.65 L12.4 24.4 Q13.6 29.0 17.25 30.85 20.85 32.65 23.4 32.8 25.9 32.9 28.8 31.7 L33.3 29.65 Q34.95 28.85 33.5 27.6 L30.5 24.9 Z" fill="none" stroke="#4b0d00" stroke-linecap="round" stroke-linejoin="round" stroke-width="1.0"/>
      <path d="M11.55 24.65 Q9.1 28.65 5.9 30.1 2.7 31.5 -1.3 30.4 L-2.15 30.1 Q-5.65 28.6 -8.55 26.05 L-8.75 25.8 Q-6.55 23.55 -4.4 22.05 0.95 27.5 11.55 24.65" fill="#f1dc01" fill-rule="evenodd" stroke="none"/>
      <path d="M-4.4 22.05 Q4.55 15.65 12.0 21.85 L11.55 24.65 Q0.95 27.5 -4.4 22.05" fill="#c07d19" fill-rule="evenodd" stroke="none"/>
      <path d="M11.55 24.65 Q9.1 28.65 5.9 30.1 2.7 31.5 -1.3 30.4 L-2.15 30.1 Q-5.65 28.6 -8.55 26.05 L-8.75 25.8 Q-6.55 23.55 -4.4 22.05 4.55 15.65 12.0 21.85 L11.55 24.65 Z" fill="none" stroke="#4b0d00" stroke-linecap="round" stroke-linejoin="round" stroke-width="1.0"/>
      <path d="M-2.75 15.85 Q-2.15 4.8 7.1 2.15 16.3 -0.55 18.4 -2.85 20.45 -5.1 27.4 2.55 34.3 10.25 32.6 18.25 30.85 26.25 21.85 25.85 13.45 25.5 11.35 22.35 -3.4 26.85 -2.75 15.85" fill="#f1dc01" fill-rule="evenodd" stroke="none"/>
      <path d="M-2.75 15.85 Q-2.15 4.8 7.1 2.15 16.3 -0.55 18.4 -2.85 20.45 -5.1 27.4 2.55 34.3 10.25 32.6 18.25 30.85 26.25 21.85 25.85 13.45 25.5 11.35 22.35 -3.4 26.85 -2.75 15.85 Z" fill="none" stroke="#4b0d00" stroke-linecap="round" stroke-linejoin="round" stroke-width="1.0"/>
      <path d="M3.9 11.95 Q3.8 10.65 3.95 9.55 4.45 6.05 5.2 4.6 5.9 3.15 12.3 0.85 18.65 -1.45 18.8 -2.3 18.95 -3.15 25.45 1.25 31.95 5.6 30.45 15.0 L28.85 17.15 Q26.6 19.95 23.15 20.75 20.9 21.85 18.1 22.2 L13.15 22.05 Q10.65 21.4 8.45 19.9 4.25 16.8 3.9 11.95" fill="url(#gradient0)" fill-rule="evenodd" stroke="none"/>
      <path d="M31.0 20.75 Q29.15 24.45 25.1 24.35 L24.2 24.15 Q34.9 13.25 24.3 2.15 34.3 9.05 31.0 20.75" fill="#fcff1f" fill-rule="evenodd" stroke="none"/>
      <path d="M27.35 8.5 Q26.3 4.85 23.75 2.25 34.05 11.65 31.15 18.1 28.2 24.55 22.95 24.5 17.7 24.4 16.0 23.7 31.95 24.35 27.35 8.5" fill="#c07d19" fill-rule="evenodd" stroke="none"/>
      <path d="M10.65 2.7 L19.65 -1.1 Q30.85 5.6 26.6 12.7 22.35 19.8 16.1 18.6 9.9 17.35 13.55 6.75 9.85 8.55 8.35 16.95 -0.35 14.95 0.6 11.15 1.5 7.35 3.5 5.45 5.45 3.55 10.65 2.7" fill="#fffe82" fill-rule="evenodd" stroke="none"/>
      <path d="M8.65 3.15 Q12.5 2.25 20.35 -2.35 L16.2 2.7 7.4 8.55 Q4.55 10.1 2.55 9.6 0.5 9.05 2.1 7.1 3.7 5.15 8.65 3.15" fill="#ffffff" fill-rule="evenodd" stroke="none"/>
      <path d="M0.3 12.55 L0.05 13.4 Q4.1 21.5 11.95 20.15 0.8 24.35 -0.9 19.1 -2.65 13.85 -0.3 11.85 L0.3 12.55" fill="#fcff1f" fill-rule="evenodd" stroke="none"/>
      <path d="M20.35 21.65 Q12.45 28.0 10.4 17.2 10.25 16.45 10.25 15.7 L11.15 15.8 Q13.1 22.9 20.35 21.65" fill="#ffc41f" fill-rule="evenodd" stroke="none"/>
      <path d="M10.4 21.7 Q1.35 24.25 0.35 21.4 -0.65 18.55 -0.65 17.7 1.55 22.7 11.55 20.05 L10.4 21.7" fill="#c07d19" fill-rule="evenodd" stroke="none"/>
      <path d="M17.1 11.2 Q15.8 11.8 15.05 11.4 14.15 11.05 14.05 9.7 14.05 8.95 14.55 7.75 L15.65 5.65 Q16.25 4.9 16.75 4.65 L17.9 4.45 18.5 4.4 Q19.4 5.05 19.55 6.35 19.6 7.3 19.25 8.6 L18.25 10.45 17.1 11.2" fill="#ffffff" fill-rule="evenodd" stroke="none"/>
      <path d="M-5.9 25.85 L-5.4 24.95 Q0.8 25.15 6.6 28.0 0.45 30.2 -4.9 26.55 L-5.9 25.85" fill="#fffe82" fill-rule="evenodd" stroke="none"/>
      <path d="M-4.15 27.4 Q-5.1 27.2 -5.6 26.7 -6.2 26.1 -6.2 25.3 L-5.95 24.6 -5.45 24.15 -4.65 24.05 -3.6 24.25 Q-2.45 24.6 -2.1 25.55 -1.9 25.9 -2.0 26.2 -2.05 26.9 -2.8 27.25 L-4.15 27.4" fill="#ffffff" fill-rule="evenodd" stroke="none"/>
      <path d="M28.3 30.3 Q27.95 30.75 26.85 30.9 L23.95 31.1 20.95 30.8 18.55 29.85 Q17.2 29.25 16.8 28.6 L17.9 27.65 19.2 27.55 26.25 28.45 Q27.45 28.7 27.9 29.05 L28.4 29.65 28.3 30.3" fill="#fffe82" fill-rule="evenodd" stroke="none"/>
      <path d="M19.1 30.3 L17.65 29.75 Q17.05 29.3 17.05 28.7 L17.3 28.15 17.8 27.8 18.6 27.7 19.65 27.85 Q20.8 28.15 21.15 28.85 L21.25 29.4 Q21.2 29.9 20.45 30.2 L19.1 30.3" fill="#ffffff" fill-rule="evenodd" stroke="none"/>
    </g>
    <radialGradient cx="0" cy="0" gradientTransform="matrix(-0.0163, 0.0019, 0.001, 0.0151, 17.3, 10.2)" gradientUnits="userSpaceOnUse" id="gradient0" r="819.2" spreadMethod="reflect">
      <stop offset="0.0" stop-color="#2d1900" stop-opacity="0.6784314"/>
      <stop offset="0.5607843137254902" stop-color="#aa350d" stop-opacity="0.627451"/>
      <stop offset="1.0" stop-color="#ead031" stop-opacity="0.26666668"/>
    </radialGradient>
  </defs>
</svg>
