<?xml version="1.0" encoding="UTF-8" standalone="no"?>
<svg xmlns:ffdec="https://www.free-decompiler.com/flash" xmlns:xlink="http://www.w3.org/1999/xlink" ffdec:objectType="frame" height="50.6px" width="60.4px" xmlns="http://www.w3.org/2000/svg">
  <g transform="matrix(1.0, 0.0, 0.0, 1.0, 30.15, 71.15)">
    <use ffdec:characterId="84" height="48.2" transform="matrix(1.05, 0.0, 0.0, 1.05, 0.0, -42.2)" width="57.6" xlink:href="#sprite0"/>
  </g>
  <defs>
    <g id="sprite0">
      <use ffdec:characterId="1" height="42.65" transform="matrix(1.0, 0.0, 0.0, 1.0, 0.0, 0.0)" width="38.7" xlink:href="#shape0"/>
      <use ffdec:characterId="2" height="8.45" transform="matrix(1.0, 0.0, 0.0, 1.0, 0.0, 0.0)" width="15.3" xlink:href="#shape1"/>
      <use ffdec:characterId="4" height="3.8" transform="matrix(1.0, 0.0, 0.0, 1.0, -4.15, 0.35)" width="4.9" xlink:href="#sprite1"/>
      <use ffdec:characterId="6" height="5.2" transform="matrix(1.0, 0.0, 0.2222, 1.0, -4.4, 3.35)" width="7.0" xlink:href="#sprite2"/>
      <use ffdec:characterId="8" height="5.4" transform="matrix(1.0, 0.0, 0.0, 1.0, -3.65, 7.55)" width="11.1" xlink:href="#sprite3"/>
      <use ffdec:characterId="10" height="2.3" transform="matrix(1.0, 0.0, 0.0, 1.0, -10.1, 8.65)" width="3.45" xlink:href="#sprite4"/>
      <use ffdec:characterId="12" height="3.95" transform="matrix(0.1589, -1.051, 0.9887, 0.1495, -5.75, 0.55)" width="6.55" xlink:href="#sprite5"/>
      <use ffdec:characterId="14" height="8.1" transform="matrix(0.9103, -0.414, 0.414, 0.9103, -8.85, -11.1)" width="4.65" xlink:href="#sprite6"/>
      <use ffdec:characterId="16" height="12.3" transform="matrix(0.7867, -0.6172, 0.6172, 0.7867, -4.7, -11.3)" width="6.7" xlink:href="#sprite7"/>
      <use ffdec:characterId="18" height="2.75" transform="matrix(0.9864, -0.1643, 0.1643, 0.9864, -13.65, -4.9)" width="8.35" xlink:href="#sprite8"/>
      <use ffdec:characterId="20" height="8.65" transform="matrix(0.9864, -0.1643, 0.1643, 0.9864, -5.6, -3.8)" width="9.45" xlink:href="#sprite9"/>
      <use ffdec:characterId="21" height="8.55" transform="matrix(1.0, 0.0, 0.0, 1.0, 0.0, 0.0)" width="9.7" xlink:href="#shape11"/>
      <use ffdec:characterId="23" height="10.5" transform="matrix(0.7993, 1.1085, -1.1085, 0.7993, 6.6, -12.15)" width="15.8" xlink:href="#sprite10"/>
      <use ffdec:characterId="25" height="18.2" transform="matrix(1.0, 0.0, 0.0, 1.0, 18.6, -20.9)" width="13.2" xlink:href="#sprite11"/>
      <use ffdec:characterId="27" height="11.0" transform="matrix(1.0, 0.0, 0.0, 1.0, 21.75, -1.45)" width="6.6" xlink:href="#sprite12"/>
      <use ffdec:characterId="29" height="3.0" transform="matrix(1.0, 0.0, 0.0, 1.0, -22.65, -5.35)" width="1.9" xlink:href="#sprite13"/>
    </g>
    <g id="shape0">
      <path d="M8.35 16.7 Q8.35 18.3 5.8 19.45 3.3 20.6 -0.25 20.6 -3.8 20.6 -6.35 19.45 -8.85 18.3 -8.85 16.7 -8.85 15.05 -6.35 13.9 -3.8 12.8 -0.25 12.8 3.3 12.8 5.8 13.9 8.35 15.05 8.35 16.7" fill="#000000" fill-opacity="0.29803923" fill-rule="evenodd" stroke="none"/>
      <path d="M-3.6 -3.15 Q-4.1 -4.45 -5.9 -7.1 L-7.55 -9.55 -7.1 -6.1 Q-7.0 -5.4 -6.7 -5.2 L-6.1 -4.95 -5.3 -4.7 Q-5.05 -4.7 -4.9 -4.5 -4.7 -4.3 -4.95 -4.1 L-6.45 -4.45 Q-7.05 -4.65 -7.25 -4.9 -7.55 -5.2 -7.65 -5.9 L-8.35 -10.25 Q-8.55 -10.8 -8.25 -11.0 L-7.8 -10.95 -7.45 -10.6 -5.35 -7.6 Q-3.75 -5.3 -2.95 -3.5 L-2.7 -4.7 -1.8 -9.05 Q-1.25 -11.0 -0.55 -12.1 L-0.1 -12.6 0.55 -12.7 Q1.0 -12.55 1.1 -11.75 L1.3 -9.9 1.15 -8.75 Q0.6 -6.1 -0.9 -3.1 -1.05 -2.55 -1.45 -2.35 L-1.95 -2.25 -2.35 -2.5 Q-2.4 -2.3 -2.7 -2.25 L-3.15 -2.35 -3.6 -3.15 M0.35 -11.8 Q-0.05 -11.75 -0.25 -11.15 -1.7 -7.6 -2.1 -3.4 L-2.0 -3.1 -1.6 -3.35 Q-0.3 -6.15 0.05 -7.4 0.75 -9.9 0.35 -11.8" fill="url(#gradient0)" fill-rule="evenodd" stroke="none"/>
      <path d="M0.0 -22.05 Q8.0 -22.05 13.7 -16.4 19.35 -10.7 19.35 -2.7 19.35 5.3 13.7 10.95 8.0 16.65 0.0 16.65 -8.0 16.65 -13.65 10.95 -19.35 5.3 -19.35 -2.7 -19.35 -10.7 -13.65 -16.4 -8.0 -22.05 0.0 -22.05" fill="url(#gradient1)" fill-rule="evenodd" stroke="none"/>
    </g>
    <radialGradient cx="0" cy="0" fx="57.6" fy="0" gradientTransform="matrix(0.0, 0.0, 0.0, 0.0, -149.9, -533.55)" gradientUnits="userSpaceOnUse" id="gradient0" r="819.2" spreadMethod="pad">
      <stop offset="0.21568627450980393" stop-color="#fff342"/>
      <stop offset="0.6392156862745098" stop-color="#ffdb00"/>
      <stop offset="0.7686274509803922" stop-color="#ffb000"/>
      <stop offset="0.8235294117647058" stop-color="#fff45b"/>
      <stop offset="1.0" stop-color="#fff75f"/>
    </radialGradient>
    <radialGradient cx="0" cy="0" fx="57.6" fy="0" gradientTransform="matrix(0.0, -0.0311, 0.0311, 0.0, -0.05, -2.7)" gradientUnits="userSpaceOnUse" id="gradient1" r="819.2" spreadMethod="pad">
      <stop offset="0.21568627450980393" stop-color="#fff342"/>
      <stop offset="0.6392156862745098" stop-color="#ffdb00"/>
      <stop offset="0.7686274509803922" stop-color="#ffb000"/>
      <stop offset="0.8235294117647058" stop-color="#fff45b"/>
      <stop offset="1.0" stop-color="#fff75f"/>
    </radialGradient>
    <g id="shape1">
      <path d="M-16.65 -5.5 L-16.65 -5.55 -16.15 -5.2 -16.65 -5.5" fill="#f3ac17" fill-rule="evenodd" stroke="none"/>
      <path d="M-1.7 -1.55 L-1.35 1.95 Q-1.35 3.05 -2.8 2.85 -4.0 2.2 -3.45 0.4 L-3.0 -1.0 -3.15 -1.65 Q-4.25 -2.65 -3.8 -2.85 -3.2 -3.0 -3.15 -3.15 L-2.25 -3.35 Q-1.6 -2.95 -1.7 -1.55" fill="#8e4e00" fill-rule="evenodd" stroke="none"/>
    </g>
    <g id="sprite1">
      <use ffdec:characterId="3" height="3.8" transform="matrix(1.0, 0.0, 0.0, 1.0, 0.0, 0.0)" width="4.9" xlink:href="#shape2"/>
    </g>
    <g id="shape2">
      <path d="M2.45 1.2 Q0.9 3.4 -2.0 1.2 L-1.95 1.1 -1.95 0.85 -1.95 0.65 -2.4 0.05 -2.45 0.05 Q-0.55 -1.2 1.4 -1.5 L2.45 1.2" fill="#cd7201" fill-rule="evenodd" stroke="none"/>
    </g>
    <g id="sprite2">
      <use ffdec:characterId="5" height="5.2" transform="matrix(1.0, 0.0, 0.0, 1.0, 0.0, 0.0)" width="7.0" xlink:href="#shape3"/>
    </g>
    <g id="shape3">
      <path d="M3.3 -1.4 Q3.7 -0.65 3.25 0.2 L2.9 0.75 2.3 1.75 2.35 1.8 Q-0.4 3.45 -3.5 1.8 L-2.85 1.2 -2.6 0.9 -2.5 0.8 Q-2.2 -1.6 -1.35 -2.6 L-0.95 -2.6 2.35 -1.85 2.35 -2.15 3.1 -1.8 3.1 -1.7 3.3 -1.4" fill="#cd7201" fill-rule="evenodd" stroke="none"/>
    </g>
    <g id="sprite3">
      <use ffdec:characterId="7" height="5.4" transform="matrix(1.0, 0.0, 0.0, 1.0, 0.0, 0.0)" width="11.1" xlink:href="#shape4"/>
    </g>
    <g id="shape4">
      <path d="M3.05 -0.6 L3.05 0.05 3.55 0.95 4.4 1.0 Q5.1 1.15 5.45 1.85 5.75 2.55 4.65 2.65 L3.45 2.65 3.25 2.65 -1.9 2.65 -2.3 2.65 Q-3.5 2.5 -3.4 1.8 L-3.4 1.75 Q-4.3 1.75 -4.95 1.1 -5.6 0.45 -5.6 -0.5 -5.6 -1.45 -4.95 -2.1 -4.3 -2.75 -3.4 -2.75 L0.65 -2.75 2.0 -2.4 Q2.9 -1.6 3.05 -0.6" fill="#cd7201" fill-rule="evenodd" stroke="none"/>
    </g>
    <g id="sprite4">
      <use ffdec:characterId="9" height="2.3" transform="matrix(1.0, 0.0, 0.0, 1.0, 0.0, 0.0)" width="3.45" xlink:href="#shape5"/>
    </g>
    <g id="shape5">
      <path d="M1.15 -0.8 Q1.15 -0.35 0.65 0.0 L-0.55 0.35 -1.8 0.0 Q-2.3 -0.35 -2.3 -0.8 L-1.8 -1.6 -0.55 -1.95 0.65 -1.6 1.15 -0.8" fill="#cd7201" fill-rule="evenodd" stroke="none"/>
    </g>
    <g id="sprite5">
      <use ffdec:characterId="11" height="3.95" transform="matrix(1.0, 0.0, 0.0, 1.0, 0.0, 0.0)" width="6.55" xlink:href="#shape6"/>
    </g>
    <g id="shape6">
      <path d="M4.5 0.8 L5.5 0.0 5.15 0.8 Q6.0 0.1 6.55 0.55 L6.55 1.4 6.2 1.85 5.1 2.1 4.35 2.1 2.95 3.1 Q1.25 4.45 0.2 3.6 -0.45 2.35 0.8 1.75 L4.5 0.8" fill="#cd7201" fill-rule="evenodd" stroke="none"/>
    </g>
    <g id="sprite6">
      <use ffdec:characterId="13" height="8.1" transform="matrix(1.0, 0.0, 0.0, 1.0, 0.0, 0.0)" width="4.65" xlink:href="#shape7"/>
    </g>
    <g id="shape7">
      <path d="M0.0 4.1 Q0.05 3.55 -0.7 2.1 L-0.9 1.7 Q-4.0 -2.4 -3.3 -3.35 -3.0 -3.7 -2.35 -3.6 -0.85 -3.25 0.35 -1.05 L0.45 -0.9 Q1.45 0.85 1.15 2.75 L0.85 4.25 Q0.45 4.85 0.0 4.1" fill="#cd7200" fill-rule="evenodd" stroke="none"/>
    </g>
    <g id="sprite7">
      <use ffdec:characterId="15" height="12.3" transform="matrix(1.0, 0.0, 0.0, 1.0, 0.0, 0.0)" width="6.7" xlink:href="#shape8"/>
    </g>
    <g id="shape8">
      <path d="M-1.0 -2.75 L-2.0 -3.2 -2.25 -3.35 -2.5 -3.6 -2.8 -4.65 -2.5 -5.7 -2.25 -5.95 -1.7 -6.15 -1.4 -6.1 2.75 -4.2 3.05 -3.9 3.4 -2.85 Q3.4 -2.25 3.05 -1.8 2.75 -1.35 2.3 -1.35 L2.0 -1.4 1.95 -1.4 -0.05 -2.3 -1.0 -2.75" fill="#cd7200" fill-rule="evenodd" stroke="none"/>
      <path d="M-0.05 -2.3 L-2.35 5.95 Q-3.05 6.45 -3.3 5.55 L-1.0 -2.75 -0.05 -2.3" fill="#b16200" fill-rule="evenodd" stroke="none"/>
    </g>
    <g id="sprite8">
      <use ffdec:characterId="17" height="2.75" transform="matrix(1.0, 0.0, 0.0, 1.0, 0.0, 0.0)" width="8.35" xlink:href="#shape9"/>
    </g>
    <g id="shape9">
      <path d="M-0.55 0.9 L-2.0 1.15 -3.4 1.1 -3.95 0.75 -3.95 0.15 -3.05 -0.9 Q-1.95 -1.55 -0.15 -1.55 2.35 -1.45 3.8 0.1 5.2 1.6 3.4 1.1 L-0.55 0.9" fill="#cd7201" fill-rule="evenodd" stroke="none"/>
    </g>
    <g id="sprite9">
      <use ffdec:characterId="19" height="8.65" transform="matrix(1.0, 0.0, 0.0, 1.0, 0.0, 0.0)" width="9.45" xlink:href="#shape10"/>
    </g>
    <g id="shape10">
      <path d="M3.3 -3.05 L3.55 -2.85 Q4.9 -1.5 4.7 0.15 L4.55 1.2 4.1 2.1 4.05 2.2 Q2.0 4.5 -1.3 4.3 -2.5 4.25 -3.35 3.45 -4.9 2.05 -4.7 0.1 L-4.65 -0.45 Q-4.55 -1.75 -3.65 -2.75 -2.15 -4.45 0.45 -4.35 L2.4 -3.75 3.3 -3.05" fill="#cd7200" fill-rule="evenodd" stroke="none"/>
    </g>
    <g id="shape11">
      <path d="M6.45 9.95 L6.15 9.9 Q5.8 9.8 6.7 8.35 L6.55 8.3 5.25 7.45 Q3.85 6.25 3.85 4.5 L3.9 3.95 13.5 3.95 13.55 4.5 Q13.55 6.25 12.15 7.45 L10.95 8.3 10.8 8.35 Q11.65 9.8 11.3 9.9 L11.0 9.95 6.45 9.95" fill="#cd7200" fill-rule="evenodd" stroke="none"/>
      <path d="M4.75 3.95 Q4.8 2.75 6.9 1.95 9.05 0.85 11.25 1.95 12.35 2.6 12.3 3.95 L4.75 3.95" fill="#cd7200" fill-rule="evenodd" stroke="none"/>
    </g>
    <g id="sprite10">
      <use ffdec:characterId="22" height="10.5" transform="matrix(1.0, 0.0, 0.0, 1.0, 0.0, 0.0)" width="15.8" xlink:href="#shape12"/>
    </g>
    <g id="shape12">
      <path d="M7.7 -2.95 Q8.4 -1.1 6.55 1.0 4.85 3.1 1.65 4.35 -1.55 5.55 -4.35 5.15 -7.0 4.8 -7.7 2.95 -8.4 1.15 -6.7 -1.0 -4.85 -3.1 -1.65 -4.3 1.55 -5.55 4.2 -5.15 7.0 -4.75 7.7 -2.95" fill="url(#gradient2)" fill-rule="evenodd" stroke="none"/>
    </g>
    <radialGradient cx="0" cy="0" gradientTransform="matrix(0.0175, -0.0067, 0.0043, 0.0112, -2.85, -2.0)" gradientUnits="userSpaceOnUse" id="gradient2" r="819.2" spreadMethod="pad">
      <stop offset="0.0" stop-color="#ffffff"/>
      <stop offset="1.0" stop-color="#ffffff" stop-opacity="0.0"/>
    </radialGradient>
    <g id="sprite11">
      <use ffdec:characterId="24" height="18.2" transform="matrix(1.0, 0.0, 0.0, 1.0, 0.0, 0.0)" width="13.2" xlink:href="#shape13"/>
    </g>
    <g id="shape13">
      <path d="M-6.1 -0.65 Q-1.55 -0.7 -0.7 -1.7 0.05 -2.65 0.35 -6.7 L0.7 -6.7 Q0.95 -2.6 1.7 -1.65 2.55 -0.65 7.1 -0.6 L7.1 0.0 Q3.5 0.1 2.55 0.75 0.9 0.85 0.8 11.5 L0.3 11.5 Q0.1 0.8 -1.55 0.7 -2.5 0.05 -6.1 -0.05 L-6.1 -0.65" fill="#fefefe" fill-rule="evenodd" stroke="none"/>
    </g>
    <g id="sprite12">
      <use ffdec:characterId="26" height="11.0" transform="matrix(1.0, 0.0, 0.0, 1.0, 0.0, 0.0)" width="6.6" xlink:href="#shape14"/>
    </g>
    <g id="shape14">
      <path d="M0.45 -4.0 Q0.4 -1.0 2.7 -0.25 L3.5 0.0 Q0.25 0.05 0.2 7.0 0.05 -0.15 -3.1 -0.2 L-2.8 -0.25 Q0.2 -0.7 0.45 -4.0" fill="#fbffbd" fill-rule="evenodd" stroke="none"/>
    </g>
    <g id="sprite13">
      <use ffdec:characterId="28" height="3.0" transform="matrix(1.0, 0.0, 0.0, 1.0, 0.0, 0.0)" width="1.9" xlink:href="#shape15"/>
    </g>
    <g id="shape15">
      <path d="M0.0 -1.55 L0.9 -0.1 -0.05 1.45 -1.0 -0.1 0.0 -1.55" fill="#f8ff71" fill-rule="evenodd" stroke="none"/>
    </g>
  </defs>
</svg>
