<?xml version="1.0" encoding="UTF-8" standalone="no"?>
<svg xmlns:ffdec="https://www.free-decompiler.com/flash" xmlns:xlink="http://www.w3.org/1999/xlink" ffdec:objectType="frame" height="42.4px" width="47.6px" xmlns="http://www.w3.org/2000/svg">
  <g transform="matrix(1.0, 0.0, 0.0, 1.0, 21.15, 23.65)">
    <use ffdec:characterId="5" height="42.4" transform="matrix(1.0, 0.0, 0.0, 1.0, -20.85, -23.15)" width="47.6" xlink:href="#sprite0"/>
  </g>
  <defs>
    <g id="sprite0">
      <use ffdec:characterId="4" height="42.4" transform="matrix(1.0, 0.0, 0.0, 1.0, 0.0, 0.0)" width="47.6" xlink:href="#shape0"/>
    </g>
    <g id="shape0">
      <path d="M27.0 14.8 L13.25 14.8 Q11.25 12.75 13.25 10.55 16.4 9.6 20.75 9.7 L27.0 10.2 Q29.6 12.5 27.0 14.8 M10.05 14.8 L7.85 14.8 Q7.7 13.75 8.8 12.75 L10.05 11.75 Q8.6 13.35 10.05 14.8" fill="#ffe300" fill-rule="evenodd" stroke="none"/>
      <path d="M27.0 10.2 L28.05 10.45 Q30.1 10.95 31.5 11.8 32.9 13.4 31.5 14.8 L27.0 14.8 Q29.6 12.5 27.0 10.2 M13.25 14.8 L10.05 14.8 Q8.6 13.35 10.05 11.75 L11.4 11.1 12.9 10.65 13.25 10.55 Q11.25 12.75 13.25 14.8" fill="#ff8500" fill-rule="evenodd" stroke="none"/>
      <path d="M31.5 11.8 L32.7 12.75 Q33.65 13.75 33.6 14.8 L31.5 14.8 Q32.9 13.4 31.5 11.8" fill="#ffffff" fill-rule="evenodd" stroke="none"/>
      <path d="M8.8 12.75 Q9.65 11.75 11.4 11.1 L12.9 10.65 Q16.15 9.6 20.75 9.7 24.8 9.6 28.05 10.45 31.15 11.2 32.7 12.75 33.65 13.75 33.6 14.8 L7.85 14.8 Q7.7 13.75 8.8 12.75 Z" ffdec:has-small-stroke="true" ffdec:original-stroke-width="0.5" fill="none" stroke="#791900" stroke-linecap="square" stroke-linejoin="round" stroke-width="1.0"/>
      <path d="M17.0 11.05 Q17.85 10.4 19.05 10.4 20.2 10.4 21.05 11.05 21.8 11.65 21.9 12.45 L16.2 12.45 Q16.3 11.65 17.0 11.05" fill="#ffffff" fill-rule="evenodd" stroke="none"/>
      <path d="M45.7 2.85 L45.7 6.05 Q43.9 7.5 41.7 6.05 L41.7 3.05 41.7 2.85 Q43.8 4.35 45.7 2.85 M23.8 35.9 L24.75 35.0 25.5 35.25 25.6 35.3 26.45 35.85 27.25 36.35 28.6 36.9 28.65 36.9 30.2 37.25 30.65 37.25 31.0 37.25 33.95 37.25 34.25 37.25 35.7 37.0 Q37.15 36.6 38.35 35.7 L38.55 35.55 38.85 35.25 39.05 35.15 39.25 34.9 39.8 34.3 40.8 32.95 40.9 32.8 Q41.7 31.2 41.7 29.25 L41.7 22.55 42.15 22.55 42.15 33.9 Q40.25 37.85 35.1 38.65 L28.0 38.65 Q25.25 37.55 23.8 35.9" fill="#ff8500" fill-rule="evenodd" stroke="none"/>
      <path d="M45.7 2.85 Q43.8 4.35 41.7 2.85 L41.7 2.15 Q41.7 1.3 42.3 0.75 42.85 0.15 43.7 0.15 44.55 0.15 45.15 0.75 45.7 1.3 45.7 2.15 L45.7 2.85 M41.7 6.05 Q43.9 7.5 45.7 6.05 L45.7 29.25 Q45.7 32.5 44.2 35.1 43.4 36.5 42.2 37.7 L42.15 37.75 Q39.1 40.85 34.85 41.25 L34.65 41.25 33.95 41.25 31.0 41.25 30.65 41.25 29.95 41.25 29.75 41.25 28.65 41.1 Q25.1 40.45 22.45 37.75 L22.4 37.2 23.8 35.9 Q25.25 37.55 28.0 38.65 L35.1 38.65 Q40.25 37.85 42.15 33.9 L42.15 22.55 41.7 22.55 41.7 6.05" fill="#fcff17" fill-rule="evenodd" stroke="none"/>
      <path d="M45.7 6.05 L45.7 2.85 45.7 2.15 Q45.7 1.3 45.15 0.75 44.55 0.15 43.7 0.15 42.85 0.15 42.3 0.75 41.7 1.3 41.7 2.15 M45.7 6.05 L45.7 29.25 Q45.7 32.5 44.2 35.1 43.4 36.5 42.2 37.7 L42.15 37.75 Q39.1 40.85 34.85 41.25 L34.65 41.25 33.95 41.25 31.0 41.25 30.65 41.25 29.95 41.25 29.75 41.25 28.65 41.1" fill="none" stroke="#791900" stroke-linecap="square" stroke-linejoin="round" stroke-width="1.0"/>
      <path d="M41.7 3.05 L41.7 6.05 41.7 22.55 41.7 29.25 Q41.7 31.2 40.9 32.8 L40.8 32.95 39.8 34.3 39.25 34.9 39.05 35.15 38.85 35.25 38.55 35.55 38.35 35.7 Q37.15 36.6 35.7 37.0 L34.25 37.25 33.95 37.25 31.0 37.25 30.65 37.25 30.2 37.25 28.65 36.9 28.6 36.9 27.25 36.35 26.45 35.85 25.6 35.3 25.5 35.25 24.75 35.0 M28.65 41.1 Q25.1 40.45 22.45 37.75 L22.4 37.2" fill="none" stroke="#540e94" stroke-linecap="square" stroke-linejoin="round" stroke-width="1.0"/>
      <path d="M45.7 1.85 Q45.7 2.7 45.15 3.25 L43.7 3.7 Q42.85 3.7 42.3 3.25 41.7 2.7 41.7 1.85 41.7 1.1 42.3 0.55 42.85 0.0 43.7 0.0 44.55 0.0 45.15 0.55 45.7 1.1 45.7 1.85" fill="#ffffff" fill-rule="evenodd" stroke="none"/>
      <path d="M44.7 1.85 L44.45 2.55 43.75 2.8 43.1 2.55 42.8 1.85 Q42.8 1.45 43.1 1.2 43.35 0.9 43.75 0.9 44.15 0.9 44.45 1.2 L44.7 1.85" fill="#540e94" fill-rule="evenodd" stroke="none"/>
      <path d="M43.05 4.35 L43.5 4.45 43.85 4.9 43.85 26.85 Q44.1 30.9 42.2 33.9 L42.2 4.9 42.45 4.45 43.05 4.35" fill="#ff8500" fill-rule="evenodd" stroke="none"/>
      <path d="M18.95 33.0 L37.6 33.0 Q36.3 34.4 33.95 35.55 28.7 38.15 21.25 38.15 L18.95 38.1 Q17.45 35.7 18.95 33.0" fill="#ff8500" fill-rule="evenodd" stroke="none"/>
      <path d="M18.95 33.0 Q17.45 35.7 18.95 38.1 L16.75 37.9 Q12.1 37.35 8.5 35.55 6.2 34.4 4.9 33.0 L18.95 33.0" fill="#ff4a00" fill-rule="evenodd" stroke="none"/>
      <path d="M18.95 38.1 L21.25 38.15 Q28.7 38.15 33.95 35.55 36.3 34.4 37.6 33.0 L18.95 33.0 4.9 33.0 Q6.2 34.4 8.5 35.55 12.1 37.35 16.75 37.9 L18.95 38.1 Z" ffdec:has-small-stroke="true" ffdec:original-stroke-width="0.5" fill="none" stroke="#791900" stroke-linecap="square" stroke-linejoin="round" stroke-width="1.0"/>
      <path d="M21.45 22.75 L21.5 22.75 Q22.6 22.75 23.4 23.55 24.2 24.35 24.2 25.45 L24.2 25.5 Q24.2 26.6 23.4 27.4 22.6 28.2 21.5 28.2 L21.45 28.2 Q20.35 28.2 19.55 27.4 18.75 26.6 18.75 25.5 L18.75 25.45 Q18.75 24.35 19.55 23.55 20.35 22.75 21.45 22.75" fill="#791900" fill-rule="evenodd" stroke="none"/>
      <path d="M43.7 24.75 L44.15 24.75 44.55 24.75 Q45.55 24.65 46.35 24.1 L46.95 23.45 47.25 23.45 47.25 26.2 Q47.1 27.05 46.3 27.6 45.4 28.25 44.15 28.25 L43.7 28.25 43.7 24.75" fill="#ff8500" fill-rule="evenodd" stroke="none"/>
      <path d="M43.7 24.75 L43.7 28.25 Q42.8 28.15 42.05 27.6 L41.4 26.95 41.25 26.5 41.15 26.2 41.2 23.45 41.25 26.5 41.2 23.45 41.4 23.45 41.95 24.1 42.7 24.5 43.7 24.75" fill="#ed3600" fill-rule="evenodd" stroke="none"/>
      <path d="M43.7 28.25 L44.15 28.25 Q45.4 28.25 46.3 27.6 47.1 27.05 47.25 26.2 L47.25 23.45 M41.25 26.5 L41.2 23.45 M43.7 28.25 Q42.8 28.15 42.05 27.6 L41.4 26.95 41.25 26.5" ffdec:has-small-stroke="true" ffdec:original-stroke-width="0.1" fill="none" stroke="#b42300" stroke-linecap="square" stroke-linejoin="round" stroke-width="1.0"/>
      <path d="M41.45 22.65 L41.75 22.65 Q41.75 23.4 42.4 23.95 43.05 24.5 44.0 24.5 44.95 24.5 45.65 23.95 46.25 23.4 46.25 22.65 L46.15 22.1 46.15 20.55 46.2 20.6 46.25 20.6 46.3 20.65 46.55 20.9 46.95 21.4 47.25 22.65 Q47.25 23.8 46.3 24.7 45.35 25.5 44.0 25.5 42.65 25.5 41.75 24.7 L41.45 24.4 Q40.75 23.6 40.75 22.65 L41.45 22.65" fill="#fcff17" fill-rule="evenodd" stroke="none"/>
      <path d="M46.3 20.65 L46.25 20.6 46.2 20.6 46.15 20.55 46.15 22.1 46.25 22.65 Q46.25 23.4 45.65 23.95 44.95 24.5 44.0 24.5 43.05 24.5 42.4 23.95 41.75 23.4 41.75 22.65 L41.45 22.65" ffdec:has-small-stroke="true" ffdec:original-stroke-width="0.1" fill="none" stroke="#791900" stroke-linecap="square" stroke-linejoin="round" stroke-width="1.0"/>
      <path d="M40.15 16.1 L40.45 16.35 40.55 16.45 40.95 16.85 Q42.45 18.5 42.45 21.65 L42.45 28.3 Q42.45 33.0 39.3 34.55 L38.8 34.75 36.35 35.3 35.45 35.3 28.95 35.3 27.95 35.05 27.2 34.25 22.05 24.95 21.8 24.0 21.8 22.55 25.8 22.55 25.8 21.65 25.8 21.5 26.1 19.9 Q26.75 18.7 28.55 18.65 L35.45 18.65 35.8 18.7 36.05 18.7 36.35 18.75 36.35 14.7 Q37.85 14.8 38.95 15.35 L39.25 15.5 39.4 15.55 39.65 15.7 39.95 15.95 40.05 16.0 40.15 16.1 M20.65 22.55 L20.65 24.0 20.4 25.0 15.25 34.3 14.5 35.05 13.6 35.3 13.5 35.3 7.0 35.3 4.25 34.95 Q3.3 34.7 2.55 34.2 0.2 32.65 0.05 28.95 L0.0 28.3 0.0 21.65 Q0.0 18.7 1.3 17.1 L1.9 16.45 2.35 16.05 2.6 15.85 3.4 15.4 3.5 15.35 5.55 14.75 5.6 14.75 5.7 14.75 5.75 14.7 5.75 14.75 5.8 18.8 6.05 18.75 6.45 18.7 6.7 18.7 7.0 18.65 13.95 18.65 14.75 18.75 14.85 18.8 Q15.7 18.95 16.2 19.55 L16.2 19.6 Q16.6 20.3 16.65 21.45 L16.65 21.65 16.65 22.55 20.65 22.55 M27.1 23.45 L27.1 24.9 30.65 31.25 34.9 31.25 Q35.85 31.25 36.5 30.8 L37.1 30.1 37.35 29.05 37.35 28.8 37.35 23.45 37.3 22.95 37.05 22.25 Q36.65 21.4 35.9 21.15 L35.75 21.1 35.0 21.0 29.55 21.0 Q28.5 21.0 27.85 21.7 27.25 22.15 27.15 22.9 L27.1 23.45 M5.2 29.05 Q5.25 29.7 5.45 30.15 6.0 31.25 7.6 31.25 L11.95 31.25 15.4 24.9 15.4 23.45 15.35 22.7 14.9 21.7 14.3 21.2 13.55 21.05 13.25 21.0 7.55 21.0 7.05 21.05 Q6.4 21.15 5.9 21.75 L5.8 21.85 Q5.2 22.4 5.2 23.3 L5.2 29.05 M12.35 31.3 L12.35 31.45 12.45 31.25 12.35 31.3" fill="#b42300" fill-rule="evenodd" stroke="none"/>
      <path d="M36.35 14.7 L36.35 18.75 36.05 18.7 35.8 18.7 35.45 18.65 28.55 18.65 Q26.75 18.7 26.1 19.9 L25.8 21.5 25.8 21.65 25.8 22.55 21.8 22.55 21.8 21.65 21.8 21.4 20.65 21.4 20.65 21.65 20.65 22.55 16.65 22.55 16.65 21.65 16.65 21.45 Q16.6 20.3 16.2 19.6 L16.2 19.55 Q15.7 18.95 14.85 18.8 L14.75 18.75 13.95 18.65 7.0 18.65 6.7 18.7 6.45 18.7 6.05 18.75 5.8 18.8 5.75 14.75 5.8 14.75 5.75 14.7 Q20.95 11.55 36.35 14.7" fill="#ff8500" fill-rule="evenodd" stroke="none"/>
      <path d="M5.7 14.7 L5.75 14.7 5.6 14.75 5.7 14.7" fill="#ff9901" fill-rule="evenodd" stroke="none"/>
      <path d="M12.35 31.3 L12.45 31.25 12.35 31.45 12.35 31.3" fill="#acc8fc" fill-rule="evenodd" stroke="none"/>
      <path d="M39.3 34.55 Q42.45 33.0 42.45 28.3 L42.45 21.65 Q42.45 18.5 40.95 16.85 L40.55 16.45 40.45 16.35 40.15 16.1 M40.05 16.0 L39.95 15.95 39.65 15.7 39.4 15.55 39.25 15.5 38.95 15.35 Q37.85 14.8 36.35 14.7 20.95 11.55 5.75 14.7 M5.6 14.75 L5.55 14.75 3.5 15.35 3.4 15.4 2.6 15.85 2.35 16.05 1.9 16.45 1.3 17.1 Q0.0 18.7 0.0 21.65 L0.0 28.3 0.05 28.95 Q0.2 32.65 2.55 34.2 M5.7 14.7 L5.6 14.75" ffdec:has-small-stroke="true" ffdec:original-stroke-width="0.5" fill="none" stroke="#791900" stroke-linecap="square" stroke-linejoin="round" stroke-width="1.0"/>
      <path d="M21.8 22.55 L21.8 24.0 22.05 24.95 27.2 34.25 27.95 35.05 28.95 35.3 35.45 35.3 36.35 35.3 38.8 34.75 39.3 34.55 M20.65 22.55 L20.65 21.65 20.65 21.4 21.8 21.4 21.8 21.65 21.8 22.55 M2.55 34.2 Q3.3 34.7 4.25 34.95 L7.0 35.3 13.5 35.3 13.6 35.3 14.5 35.05 15.25 34.3 20.4 25.0 20.65 24.0 20.65 22.55" ffdec:has-small-stroke="true" ffdec:original-stroke-width="0.1" fill="none" stroke="#ff8500" stroke-linecap="square" stroke-linejoin="round" stroke-width="1.0"/>
      <path d="M27.1 23.45 L27.15 22.9 Q27.25 22.15 27.85 21.7 28.5 21.0 29.55 21.0 L35.0 21.0 35.75 21.1 35.9 21.15 Q36.65 21.4 37.05 22.25 L37.3 22.95 37.35 23.45 37.35 28.8 37.35 29.05 37.1 30.1 36.5 30.8 Q35.85 31.25 34.9 31.25 L30.65 31.25 27.1 24.9 27.1 23.45 M5.2 29.05 L5.2 23.3 Q5.2 22.4 5.8 21.85 L5.9 21.75 Q6.4 21.15 7.05 21.05 L7.55 21.0 13.25 21.0 13.55 21.05 14.3 21.2 14.9 21.7 15.35 22.7 15.4 23.45 15.4 24.9 11.95 31.25 7.6 31.25 Q6.0 31.25 5.45 30.15 5.25 29.7 5.2 29.05" fill="url(#gradient0)" fill-rule="evenodd" stroke="none"/>
      <path d="M5.2 29.05 L5.2 23.3 Q5.2 22.4 5.8 21.85 L5.9 21.75 Q6.4 21.15 7.05 21.05 L7.55 21.0 13.25 21.0 13.55 21.05 14.3 21.2 14.9 21.7 15.35 22.7 15.4 23.45 15.4 24.9 11.95 31.25 7.6 31.25 Q6.0 31.25 5.45 30.15 5.25 29.7 5.2 29.05 Z" ffdec:has-small-stroke="true" ffdec:original-stroke-width="0.5" fill="none" stroke="#ffffff" stroke-linecap="square" stroke-linejoin="round" stroke-width="1.0"/>
      <path d="M17.0 36.25 Q16.15 35.55 16.4 34.5 L20.7 26.8 21.1 26.5 Q21.45 26.4 21.7 26.8 L21.75 26.9 21.45 27.5 Q19.35 31.4 17.4 35.35 L17.0 36.25" fill="#ffc602" fill-rule="evenodd" stroke="none"/>
      <path d="M16.4 34.5 Q16.15 35.55 17.0 36.25 17.5 36.7 18.5 37.0 L16.85 36.55 16.7 36.5 15.55 36.0 16.4 34.5 M25.75 34.05 L26.9 36.0 Q26.15 36.6 24.55 37.0 26.2 36.25 25.75 34.05" fill="#b42300" fill-rule="evenodd" stroke="none"/>
      <path d="M17.0 36.25 L17.4 35.35 Q24.3 37.75 21.45 27.5 L21.75 26.9 24.25 31.3 24.4 31.6 25.55 33.6 25.5 33.6 25.75 34.05 Q26.2 36.25 24.55 37.0 L24.05 37.1 21.0 37.35 18.5 37.0 Q17.5 36.7 17.0 36.25" fill="#ffdf00" fill-rule="evenodd" stroke="none"/>
      <path d="M17.4 35.35 Q19.35 31.4 21.45 27.5 24.3 37.75 17.4 35.35" fill="#fcff17" fill-rule="evenodd" stroke="none"/>
      <path d="M21.0 37.35 L18.5 37.0 Q16.0 36.2 16.4 34.5 L16.45 34.45 Q16.75 35.45 18.5 36.0 L21.0 36.35 Q24.95 36.0 22.15 27.55 L24.25 31.3 24.4 31.6 25.55 33.6 25.5 33.6 25.75 34.05 Q26.2 36.25 24.55 37.0 L24.05 37.1 21.0 37.35" fill="#ff8500" fill-rule="evenodd" stroke="none"/>
      <path d="M26.9 36.0 Q26.15 36.6 24.55 37.0 L24.05 37.1 21.0 37.35 18.5 37.0 16.7 36.5 15.55 36.0" ffdec:has-small-stroke="true" ffdec:original-stroke-width="0.5" fill="none" stroke="#b42300" stroke-linecap="square" stroke-linejoin="round" stroke-width="1.0"/>
      <path d="M8.5 16.35 L8.5 16.6 8.4 16.6 6.0 20.7 5.6 20.8 5.3 20.9 5.05 21.0 4.9 21.1 4.7 21.3 Q4.1 21.95 4.0 23.3 L4.0 23.9 0.1 31.55 0.05 30.95 0.0 30.4 0.0 30.25 0.0 23.25 Q0.1 19.95 1.9 18.4 L2.35 18.0 3.5 17.3 4.45 16.95 5.75 16.7 6.05 16.65 6.15 16.65 6.7 16.6 6.75 16.6 7.0 16.6 7.5 16.55 8.5 16.35 M35.25 37.25 L37.4 32.75 Q38.35 32.1 38.45 30.55 L42.4 22.3 42.45 23.0 42.45 30.25 Q42.45 36.4 37.1 37.15 L35.45 37.25 35.25 37.25 M8.0 16.6 L7.5 16.6 7.5 16.8 8.0 16.6" fill="#ffffff" fill-rule="evenodd" stroke="none"/>
      <path d="M8.5 16.35 Q21.45 14.35 35.45 16.6 L35.85 16.6 36.3 16.65 38.4 17.05 38.45 17.1 38.95 17.3 Q39.5 17.5 39.95 17.9 L40.05 17.95 40.15 18.05 40.55 18.4 41.3 19.2 41.8 20.1 42.1 20.9 42.4 22.3 38.45 30.55 38.45 30.25 38.45 23.6 38.45 23.55 38.4 22.95 38.45 23.55 38.4 23.0 38.4 22.95 38.4 22.85 38.05 21.7 37.8 21.3 37.6 21.1 37.55 21.1 37.45 21.0 37.15 20.9 36.75 20.75 35.9 20.6 35.6 20.6 35.5 20.6 35.6 20.6 35.9 20.6 36.75 20.75 36.7 20.75 36.5 20.7 36.05 20.65 35.8 20.65 35.5 20.6 28.55 20.6 28.4 20.6 Q26.7 20.7 26.1 21.85 L26.0 22.25 25.9 22.7 25.9 22.8 25.85 22.95 25.8 23.45 25.8 23.6 25.8 25.45 30.15 33.25 35.45 33.25 Q36.65 33.25 37.4 32.75 L35.25 37.25 29.0 37.25 28.9 37.25 27.95 37.0 27.2 36.2 22.05 26.9 21.8 25.95 21.8 23.6 21.8 23.35 20.65 23.35 20.65 23.6 20.65 25.95 20.4 26.95 15.25 36.25 14.5 37.0 13.5 37.25 7.0 37.25 5.5 37.15 Q3.05 36.85 1.75 35.5 0.35 34.05 0.1 31.55 L4.0 23.9 4.0 30.25 4.0 30.6 Q4.2 33.25 7.0 33.25 L12.35 33.25 16.65 25.45 16.65 23.6 16.65 23.4 16.6 22.7 16.55 22.55 16.2 21.55 16.2 21.5 15.25 20.85 14.45 20.65 15.25 20.85 14.85 20.75 14.75 20.7 14.45 20.65 14.35 20.65 13.95 20.6 7.0 20.6 6.9 20.6 6.35 20.65 6.9 20.6 6.7 20.65 6.45 20.65 6.35 20.65 6.0 20.7 8.4 16.6 8.5 16.6 8.5 16.35 M8.0 16.6 L7.5 16.8 7.5 16.6 8.0 16.6" fill="#fcff17" fill-rule="evenodd" stroke="none"/>
      <path d="M6.0 20.7 L6.35 20.65 Q5.5 20.8 4.85 21.5 4.1 22.25 4.0 23.3 4.1 21.95 4.7 21.3 L4.9 21.1 5.05 21.0 5.3 20.9 5.6 20.8 6.0 20.7 M15.25 20.85 L16.2 21.5 16.2 21.55 16.55 22.55 16.0 21.45 15.25 20.85 M25.9 22.7 L26.0 22.25 26.1 21.85 Q26.7 20.7 28.4 20.6 L28.55 20.6 Q27.5 20.7 26.7 21.45 L26.05 22.35 25.9 22.7 M36.75 20.75 L37.15 20.9 37.45 21.0 37.55 21.1 37.6 21.1 37.8 21.3 38.05 21.7 38.4 22.85 38.4 22.95 38.3 22.5 38.4 22.95 38.4 23.0 38.3 22.5 38.25 22.4 38.15 22.15 37.7 21.5 37.5 21.3 36.75 20.75 37.5 21.3 36.7 20.8 36.7 20.75 36.75 20.75 M28.4 20.6 Q27.35 20.7 26.65 21.45 L26.05 22.35 26.65 21.45 Q27.35 20.7 28.4 20.6" fill="#58bfff" fill-opacity="0.29803923" fill-rule="evenodd" stroke="none"/>
      <path d="M36.5 20.7 L36.7 20.75 36.7 20.8 36.5 20.7" fill="#939393" fill-opacity="0.29803923" fill-rule="evenodd" stroke="none"/>
      <path d="M0.1 31.55 Q0.35 34.05 1.75 35.5 3.05 36.85 5.5 37.15 L7.0 37.25 13.5 37.25 14.5 37.0 15.25 36.25 M20.65 23.35 L21.8 23.35 M27.2 36.2 L27.95 37.0 28.9 37.25 M29.0 37.25 L35.25 37.25 35.45 37.25 37.1 37.15 Q42.45 36.4 42.45 30.25 L42.45 23.0 42.45 20.8 M0.0 23.25 L0.0 30.25 0.0 30.4 0.05 30.95 0.1 31.55 M0.0 20.6 L0.0 23.25" ffdec:has-small-stroke="true" ffdec:original-stroke-width="0.5" fill="none" stroke="#791900" stroke-linecap="square" stroke-linejoin="round" stroke-width="1.0"/>
      <path d="M20.65 23.6 L20.65 23.35 M21.8 23.35 L21.8 23.6" ffdec:has-small-stroke="true" ffdec:original-stroke-width="0.5" fill="none" stroke="#715217" stroke-linecap="square" stroke-linejoin="round" stroke-width="1.0"/>
      <path d="M6.35 20.65 L6.9 20.6 7.0 20.6 13.95 20.6 14.35 20.65 14.45 20.65 15.25 20.85 16.0 21.45 16.55 22.55 16.6 22.7 16.65 23.4 M16.65 23.6 L16.65 25.45 12.35 33.25 7.0 33.25 Q4.2 33.25 4.0 30.6 L4.0 30.25 4.0 23.9 4.0 23.3 Q4.1 22.25 4.85 21.5 5.5 20.8 6.35 20.65 M37.4 32.75 Q36.65 33.25 35.45 33.25 L30.15 33.25 25.8 25.45 25.8 23.6 M25.8 23.45 L25.85 22.95 25.9 22.8 25.9 22.7 26.05 22.35 26.65 21.45 Q27.35 20.7 28.4 20.6 L28.55 20.6 35.5 20.6 35.6 20.6 35.9 20.6 36.75 20.75 37.5 21.3 37.7 21.5 38.15 22.15 38.25 22.4 38.3 22.5 38.4 22.95 38.45 23.55 M38.45 23.6 L38.45 30.25 38.45 30.55 Q38.35 32.1 37.4 32.75" ffdec:has-small-stroke="true" ffdec:original-stroke-width="0.5" fill="none" stroke="#ff8500" stroke-linecap="square" stroke-linejoin="round" stroke-width="1.0"/>
      <path d="M15.3 36.15 L20.4 26.95 20.65 25.95 20.65 23.6" ffdec:has-small-stroke="true" ffdec:original-stroke-width="0.5" fill="none" stroke="#b42300" stroke-linecap="square" stroke-linejoin="round" stroke-width="1.0"/>
      <path d="M21.8 23.6 L21.8 25.95 22.05 26.9 27.2 36.15" ffdec:has-small-stroke="true" ffdec:original-stroke-width="0.5" fill="none" stroke="#b42300" stroke-linecap="square" stroke-linejoin="round" stroke-width="1.0"/>
      <path d="M6.7 33.05 Q5.6 33.05 5.3 32.65 L5.3 30.45 6.7 31.2 6.7 33.05" fill="#fcff45" fill-rule="evenodd" stroke="none"/>
      <path d="M12.1 33.05 L10.7 33.05 10.7 31.45 12.1 31.45 12.1 33.05" fill="#ffb300" fill-rule="evenodd" stroke="none"/>
      <path d="M27.1 23.45 L27.15 22.9 Q27.25 22.15 27.85 21.7 28.5 21.0 29.55 21.0 L35.0 21.0 35.75 21.1 35.9 21.15 Q36.65 21.4 37.05 22.25 L37.3 22.95 37.35 23.45 37.35 28.8 37.35 29.05 37.1 30.1 36.5 30.8 Q35.85 31.25 34.9 31.25 L30.65 31.25 27.1 24.9 27.1 23.45 Z" ffdec:has-small-stroke="true" ffdec:original-stroke-width="0.5" fill="none" stroke="#ffffff" stroke-linecap="square" stroke-linejoin="round" stroke-width="1.0"/>
      <path d="M30.35 33.05 L30.35 31.45 31.75 31.45 31.75 33.05 30.35 33.05" fill="#ffb300" fill-rule="evenodd" stroke="none"/>
      <path d="M35.75 33.05 L35.75 31.4 37.15 30.65 37.15 32.4 Q36.95 32.9 35.75 33.05" fill="#fcff45" fill-rule="evenodd" stroke="none"/>
      <path d="M21.75 33.0 Q21.75 33.95 21.35 34.6 20.95 35.3 20.4 35.3 19.85 35.3 19.45 34.6 19.05 33.95 19.05 33.0 19.05 32.05 19.45 31.35 19.85 30.7 20.4 30.7 20.95 30.7 21.35 31.35 21.75 32.05 21.75 33.0" fill="#ffffff" fill-rule="evenodd" stroke="none"/>
      <path d="M25.75 35.25 L25.3 36.3 24.75 36.7 24.35 36.45 24.8 36.05 25.25 35.0 25.25 34.05 25.2 33.85 25.35 33.8 Q25.65 33.8 25.75 34.3 L25.75 35.25" fill="#ffffff" fill-rule="evenodd" stroke="none"/>
      <path d="M16.6 13.95 Q16.6 14.4 16.05 14.8 L14.6 15.25 13.2 15.0 Q12.6 14.7 12.6 14.25 L12.7 14.0 16.5 13.6 16.6 13.95" fill="#ffffff" fill-rule="evenodd" stroke="none"/>
      <path d="M4.85 34.0 Q4.85 34.55 4.45 34.9 4.1 35.3 3.55 35.3 3.0 35.3 2.6 34.9 2.25 34.55 2.25 34.0 2.25 33.45 2.6 33.05 3.0 32.7 3.55 32.7 4.1 32.7 4.45 33.05 4.85 33.45 4.85 34.0" fill="#ffffff" fill-rule="evenodd" stroke="none"/>
      <path d="M44.5 5.75 L45.0 5.95 45.2 6.45 45.2 9.35 45.0 9.8 44.5 10.05 44.0 9.8 43.8 9.35 43.8 6.45 44.0 5.95 44.5 5.75" fill="#ffffff" fill-rule="evenodd" stroke="none"/>
      <path d="M28.95 38.65 L33.25 38.65 33.25 40.25 28.95 40.25 28.95 38.65" fill="#ffffff" fill-rule="evenodd" stroke="none"/>
    </g>
    <linearGradient gradientTransform="matrix(0.0, -0.0063, 0.0063, 0.0, 10.35, 26.15)" gradientUnits="userSpaceOnUse" id="gradient0" spreadMethod="pad" x1="-819.2" x2="819.2">
      <stop offset="0.0" stop-color="#ffffff" stop-opacity="0.0"/>
      <stop offset="1.0" stop-color="#009dff" stop-opacity="0.49803922"/>
    </linearGradient>
  </defs>
</svg>
