<?xml version="1.0" encoding="UTF-8" standalone="no"?>
<svg xmlns:ffdec="https://www.free-decompiler.com/flash" xmlns:xlink="http://www.w3.org/1999/xlink" ffdec:objectType="frame" height="46.1px" width="41.6px" xmlns="http://www.w3.org/2000/svg">
  <g transform="matrix(1.0, 0.0, 0.0, 1.0, 22.15, 65.7)">
    <use ffdec:characterId="14" height="266.5" transform="matrix(0.134, 0.0, 0.0, 0.134, -15.3, -55.8)" width="226.5" xlink:href="#sprite0"/>
    <use ffdec:characterId="17" height="309.3" transform="matrix(0.134, 0.0, 0.0, 0.134, -22.15, -65.7)" width="310.6" xlink:href="#sprite1"/>
    <use ffdec:characterId="19" height="142.65" transform="matrix(0.134, 0.0, 0.0, 0.134, -15.3, -55.8)" width="129.2" xlink:href="#sprite2"/>
    <use ffdec:characterId="10" height="18.1" transform="matrix(0.63, 0.0, 0.0, 0.63, -9.9, -61.1)" width="30.7" xlink:href="#sprite3"/>
    <use ffdec:characterId="39" height="1.75" transform="matrix(1.0, 0.0, 0.0, 1.0, 0.0, 0.0)" width="12.15" xlink:href="#shape4"/>
  </g>
  <defs>
    <g id="sprite0">
      <clipPath id="clipPath0">
        <path d="M 0 0 L 0 266.45 L 226.5 266.45 L 226.5 0 Z"/>
      </clipPath>
      <g clip-path="url(#clipPath0)">
        <use ffdec:characterId="13" height="266.5" transform="matrix(1.0, 0.0, 0.0, 1.0, 0.0, 0.0)" width="226.5" xlink:href="#shape0"/>
      </g>
    </g>
    <g id="shape0">
      <path d="M69.6 259.8 Q64.65 263.45 58.35 265.05 53.25 266.3 46.15 266.45 26.45 266.85 12.25 254.5 1.9 245.5 0.35 230.9 0.0 228.05 0.0 226.55 -0.05 224.15 0.45 222.05 1.75 208.7 11.4 200.0 21.05 191.3 34.35 191.5 35.45 180.75 38.25 171.45 41.55 160.6 46.85 153.05 37.3 147.5 32.0 142.9 21.6 133.95 16.95 120.2 12.6 107.45 13.8 92.7 14.9 79.35 19.2 68.8 19.9 67.15 18.25 65.85 L14.3 62.55 Q9.5 57.25 7.35 50.5 5.25 43.9 5.8 36.4 6.85 23.05 16.25 13.15 25.6 3.3 38.95 1.15 48.05 -0.3 56.2 1.5 64.9 3.4 71.5 8.75 L77.15 14.6 Q86.7 11.1 98.45 10.1 L119.3 10.05 128.0 10.95 136.55 12.75 Q137.35 12.95 138.0 12.05 L138.85 10.75 142.55 7.55 Q151.9 -0.55 169.15 0.0 179.0 0.35 187.85 5.45 196.8 10.65 201.65 19.0 207.75 28.1 207.65 40.9 207.6 48.6 204.75 55.0 201.7 61.7 195.85 66.2 201.7 81.4 203.45 99.8 L203.7 114.3 Q202.2 126.95 194.65 137.0 187.25 146.8 175.4 152.55 181.5 161.0 184.75 170.85 188.1 180.95 188.1 191.65 203.35 190.25 214.0 199.45 224.5 208.55 226.1 223.9 226.6 225.75 226.5 228.15 L226.05 232.35 Q225.4 239.3 222.15 245.35 219.0 251.35 213.6 256.0 203.4 264.75 187.15 266.15 171.65 267.5 158.75 261.6 L155.5 259.5 Q146.55 261.85 133.45 262.7 L126.1 263.2 100.1 263.3 92.5 262.65 83.25 261.85 Q78.15 261.3 74.15 260.2 L71.9 259.5 Q70.4 259.2 69.6 259.8" fill="#4a1a13" fill-rule="evenodd" stroke="none"/>
      <path d="M71.0 159.9 L79.6 161.0 Q80.4 161.15 81.3 162.2 L82.55 163.85 Q83.95 165.7 84.45 167.9 L83.9 169.0 Q85.7 170.35 86.7 172.2 87.8 174.25 87.65 176.3 87.55 179.6 85.8 179.15 L85.0 178.3 Q86.0 174.5 82.45 171.2 78.85 167.85 75.35 169.55 73.1 170.65 73.15 172.85 73.25 174.8 75.0 176.75 76.75 178.7 79.1 179.4 81.65 180.25 83.65 179.05 L84.55 179.8 85.2 179.7 Q89.3 181.35 88.45 182.35 L88.4 182.95 84.3 182.3 83.4 182.95 Q78.35 182.25 74.45 179.9 L70.35 180.0 Q69.75 177.85 69.4 177.55 69.05 177.35 69.1 178.45 69.35 181.75 71.0 182.75 72.7 184.05 73.45 186.9 78.3 188.55 78.05 193.0 80.4 197.4 85.75 199.85 86.05 201.9 85.55 204.0 88.2 206.1 87.25 208.1 L90.4 214.25 Q91.8 218.1 90.5 221.2 L89.75 221.25 Q89.7 221.05 90.35 220.65 89.0 219.65 89.35 217.3 85.25 218.95 81.0 215.35 78.1 212.95 77.35 210.8 76.75 209.15 76.7 204.95 74.35 202.05 73.75 199.0 71.5 200.8 70.75 199.5 L67.5 199.35 Q66.3 200.5 64.35 198.9 62.8 197.6 61.95 195.8 60.7 191.5 62.25 186.35 56.45 182.5 56.65 176.2 56.85 169.9 62.65 166.05 59.75 166.45 59.15 165.55 58.45 164.6 60.45 162.3 62.4 160.05 65.35 159.6 L71.0 159.9" fill="#f8da4d" fill-rule="evenodd" stroke="none"/>
      <path d="M171.75 207.95 L171.35 209.7 Q165.9 215.15 162.95 223.15 159.95 231.2 160.6 238.65 161.3 246.75 166.1 251.5 171.5 256.85 181.15 256.95 195.8 257.05 205.85 246.7 216.05 236.2 214.55 221.9 L214.9 221.3 Q213.1 220.45 215.0 219.6 215.5 217.85 217.05 218.3 218.65 218.75 218.45 220.85 218.25 223.35 219.15 224.95 220.7 240.8 205.75 253.8 195.4 261.05 182.5 261.35 168.6 261.7 159.8 253.35 159.25 252.85 159.3 252.2 154.75 246.5 153.9 237.95 153.15 229.9 155.9 222.55 L156.25 222.7 Q157.4 219.0 161.15 213.3 165.45 206.85 168.2 206.15 L170.65 206.3 Q172.15 206.8 171.75 207.95" fill="#faea54" fill-rule="evenodd" stroke="none"/>
      <path d="M17.7 207.6 L17.95 208.75 15.35 213.1 14.2 213.2 Q9.85 228.65 17.5 241.25 25.25 253.95 41.15 257.1 52.35 259.35 59.7 252.55 67.0 245.8 66.1 234.35 L66.95 233.05 66.6 224.5 Q68.5 222.0 69.8 223.75 70.85 225.05 70.8 227.3 70.9 226.95 71.15 226.9 73.7 233.05 71.7 242.35 69.6 252.15 64.25 255.65 L63.55 255.7 61.4 257.75 Q57.7 260.1 52.45 261.05 L42.85 261.35 Q30.05 259.9 26.55 257.1 L26.15 256.45 21.5 253.6 Q18.95 251.8 17.45 249.85 L12.75 243.95 Q8.9 238.7 7.65 231.05 6.45 223.4 8.5 217.2 L9.0 217.0 Q9.25 214.4 11.8 209.75 14.7 204.5 16.7 205.05 17.5 205.3 17.9 206.15 18.35 207.05 17.7 207.6" fill="#fae751" fill-rule="evenodd" stroke="none"/>
      <path d="M131.8 175.65 Q131.0 176.45 130.6 176.3 130.25 176.2 129.7 175.1 129.65 170.65 123.15 170.25 116.9 169.9 114.4 172.95 110.65 177.5 115.2 180.35 119.6 183.1 124.2 181.15 L125.55 181.25 Q126.0 181.5 125.9 182.4 L123.35 185.1 Q119.9 188.7 118.75 190.05 116.3 192.9 114.6 195.75 112.05 191.45 106.85 186.7 L101.05 181.35 97.65 177.5 Q97.4 175.75 98.55 176.45 L100.4 178.25 Q105.0 176.4 109.15 173.3 109.4 170.4 109.8 168.05 104.2 169.25 106.35 166.8 L119.4 163.2 128.65 163.55 130.05 162.9 135.1 163.5 139.35 163.35 Q140.5 162.6 140.1 162.1 139.75 161.65 138.35 161.9 136.75 161.75 137.55 160.35 L143.9 160.0 131.8 175.65" fill="#f9e453" fill-rule="evenodd" stroke="none"/>
      <path d="M59.15 157.7 L69.05 159.45 70.15 159.45 Q70.75 159.5 71.0 159.9 67.45 159.45 64.5 160.7 61.1 162.05 59.6 165.25 L64.0 165.05 67.05 164.4 Q68.9 164.0 70.1 164.7 65.5 165.0 62.15 167.6 58.75 170.25 57.8 174.45 57.05 177.75 58.55 180.75 59.95 183.5 62.85 185.55 63.4 186.05 63.2 187.5 L62.75 189.55 Q61.5 192.75 62.95 195.65 64.35 198.45 67.5 199.35 L71.45 199.35 Q72.65 202.6 71.2 204.8 69.7 207.15 66.25 206.35 L60.35 200.75 59.75 200.7 56.9 198.3 Q50.05 190.85 49.35 180.6 48.7 171.0 53.45 161.4 55.4 157.5 57.25 156.8 L58.45 157.05 Q59.1 157.3 59.15 157.7" fill="#d59232" fill-rule="evenodd" stroke="none"/>
      <path d="M150.05 253.65 Q137.15 256.35 123.0 257.3 109.25 258.2 95.8 257.35 85.4 256.7 76.4 254.1 76.2 253.85 75.6 253.7 L74.6 253.3 76.7 247.9 Q81.4 250.25 84.55 249.85 84.25 249.25 83.65 249.25 L82.9 249.3 Q82.6 249.25 82.55 248.85 82.5 248.45 82.75 248.2 83.45 247.5 84.15 247.75 90.85 250.85 99.05 252.4 102.3 252.95 104.9 251.7 L133.05 250.3 Q140.35 249.85 147.2 247.65 147.15 245.75 148.45 245.6 L152.0 253.15 Q150.35 253.0 150.05 253.65" fill="#f9e14f" fill-rule="evenodd" stroke="none"/>
      <path d="M166.7 196.85 L167.25 197.85 Q168.6 196.8 170.65 195.75 173.55 194.25 173.4 195.6 L173.05 196.35 Q166.0 200.05 160.05 206.7 L150.8 219.4 Q147.8 223.5 139.2 223.75 129.7 224.05 125.7 217.45 124.7 215.75 124.95 213.85 125.15 212.0 126.4 210.5 127.4 210.2 127.5 210.9 127.6 211.5 127.1 212.4 129.05 218.4 136.1 219.3 141.8 220.0 148.3 217.4 151.35 216.15 151.95 215.0 152.75 213.5 149.65 212.0 L149.35 210.85 Q146.5 211.2 145.6 208.65 144.75 206.35 145.9 203.65 L145.85 202.65 Q143.6 200.15 140.35 198.65 L140.35 197.5 144.3 198.05 148.85 198.4 146.3 195.8 Q145.8 195.3 145.95 194.85 L146.25 194.35 147.4 194.35 Q149.15 196.35 152.1 196.95 L157.3 196.6 Q159.9 195.65 160.7 193.6 161.65 191.3 159.85 188.3 L160.35 187.1 Q161.4 186.55 162.25 189.25 163.0 191.9 162.75 194.8 164.7 195.15 166.7 196.85" fill="#f9e04f" fill-rule="evenodd" stroke="none"/>
      <path d="M54.4 201.85 Q61.2 206.35 66.0 213.9 68.1 216.45 69.5 220.05 70.9 223.6 71.15 226.9 L71.05 227.75 Q70.95 228.3 70.5 228.4 70.6 227.15 70.25 225.85 69.9 224.4 69.15 223.85 66.8 224.55 67.15 227.45 67.6 231.55 66.95 233.05 65.6 233.2 65.75 231.45 L66.05 226.25 64.95 225.4 Q61.75 212.5 50.95 206.1 40.35 199.85 27.25 202.7 L25.85 202.1 Q24.75 204.05 22.0 205.15 20.0 207.3 17.7 207.6 L16.45 205.9 Q13.7 206.45 11.6 210.9 10.05 214.05 9.05 218.7 L8.65 217.9 8.5 217.2 Q8.75 214.3 10.15 211.2 11.6 208.0 13.7 206.15 15.9 203.45 19.45 200.8 26.3 195.15 36.95 195.75 46.95 196.3 54.4 201.85" fill="#fcf56e" fill-rule="evenodd" stroke="none"/>
      <path d="M140.35 197.5 L142.5 198.8 144.85 200.25 Q146.3 201.3 146.75 202.3 147.15 203.15 146.65 204.85 146.1 206.8 146.25 207.55 146.65 209.5 149.35 210.85 L149.25 211.95 Q138.35 217.5 133.45 214.2 131.8 213.1 130.2 210.95 128.25 208.3 129.7 207.5 129.55 206.55 130.75 205.35 L128.15 205.25 Q126.9 205.75 126.35 207.05 124.45 206.05 125.25 203.25 125.8 201.25 127.35 198.95 130.0 195.15 131.55 195.35 L135.8 196.65 138.15 196.95 Q139.65 197.1 140.35 197.5" fill="#f6d047" fill-rule="evenodd" stroke="none"/>
      <path d="M219.15 224.95 Q218.15 225.15 218.2 223.45 218.25 220.65 217.65 219.15 L215.0 219.6 213.9 218.95 Q210.9 208.45 200.7 203.65 190.65 198.9 180.4 202.9 L179.25 202.4 Q176.5 204.65 173.35 207.75 L171.75 207.95 Q170.95 207.15 169.15 207.05 167.35 206.95 166.4 207.8 160.45 213.0 156.25 223.55 155.95 223.35 155.95 223.0 L155.9 222.55 Q159.95 211.8 168.65 204.6 177.85 197.0 189.05 196.25 203.35 195.4 211.25 203.85 214.35 207.25 216.3 211.4 218.25 215.65 218.7 220.1 L219.15 224.95" fill="#fcf56a" fill-rule="evenodd" stroke="none"/>
      <path d="M57.25 156.8 Q57.0 158.05 56.1 159.15 53.6 162.35 51.65 168.85 49.8 174.9 50.3 180.75 50.8 186.85 53.75 192.15 L56.9 198.3 54.05 196.35 Q52.3 195.15 51.5 193.95 49.95 191.7 48.8 188.35 L46.95 182.15 Q45.55 186.75 45.55 192.25 L43.6 192.45 41.8 191.95 Q41.2 192.1 41.15 191.7 40.65 189.75 41.05 186.85 43.6 167.85 53.0 155.15 L57.25 156.8" fill="#fae551" fill-rule="evenodd" stroke="none"/>
      <path d="M90.35 220.65 Q89.3 223.15 83.85 222.55 80.0 222.15 77.1 220.4 73.9 218.5 72.45 215.25 L68.45 209.5 59.75 200.7 Q59.75 200.35 60.05 200.25 60.3 200.15 60.55 200.4 L65.6 205.2 Q66.65 206.2 68.65 205.45 70.7 204.7 70.95 203.25 L70.8 201.4 Q70.55 200.3 70.9 199.75 68.75 200.0 67.5 199.35 L69.95 199.3 Q71.45 199.3 72.45 198.65 L74.6 196.65 Q74.65 198.9 74.85 199.75 75.15 201.3 76.15 202.35 78.05 204.35 77.9 207.4 77.75 210.5 78.85 211.8 81.75 215.2 84.15 216.25 87.1 217.6 90.05 215.85 90.4 216.95 90.35 218.4 L90.35 220.65" fill="#e1a338" fill-rule="evenodd" stroke="none"/>
      <path d="M131.55 188.45 L131.65 189.7 Q126.85 194.75 124.85 198.7 121.9 204.55 124.05 209.3 L123.95 210.5 123.1 211.65 122.3 212.6 120.85 212.95 Q119.95 212.9 119.55 212.35 116.55 208.15 118.3 201.4 120.1 194.45 127.45 187.25 134.0 180.85 137.75 175.25 L143.85 166.2 Q145.45 166.8 145.8 169.2 144.05 176.55 139.25 181.35 136.75 186.1 132.55 188.7 132.3 188.85 131.55 188.45" fill="#fae752" fill-rule="evenodd" stroke="none"/>
      <path d="M131.8 175.65 L125.9 182.4 123.15 182.25 118.2 182.6 Q115.8 182.4 113.9 180.7 111.9 178.9 112.0 176.65 112.2 173.15 114.9 171.15 117.35 169.35 120.95 169.35 L126.3 169.85 Q129.15 170.65 130.4 172.95 130.6 173.3 130.6 174.6 130.75 175.7 131.8 175.65" fill="#fefda7" fill-rule="evenodd" stroke="none"/>
      <path d="M129.7 207.5 Q130.0 209.5 131.5 210.9 L134.05 213.45 Q137.7 215.1 142.4 213.9 L149.35 210.85 Q151.2 211.65 151.8 212.15 153.05 213.1 153.05 214.65 153.05 215.75 151.65 216.7 L149.1 218.05 Q143.3 220.95 136.5 220.25 129.65 219.5 127.75 215.8 L126.0 212.4 126.5 211.4 Q126.7 210.8 126.4 210.5 L126.45 208.85 Q126.2 208.25 127.2 207.65 127.85 207.25 128.55 208.25 L129.2 208.05 129.7 207.5" fill="#e1a438" fill-rule="evenodd" stroke="none"/>
      <path d="M106.35 166.8 Q106.35 167.4 106.65 167.7 L108.5 167.2 110.3 167.15 Q110.95 167.5 110.7 168.6 L110.25 170.2 110.45 171.95 Q110.55 172.95 110.15 173.55 L109.0 174.7 107.4 175.55 104.1 177.7 Q102.1 179.0 100.5 179.2 99.8 179.3 98.3 177.3 L97.9 177.0 Q97.6 177.1 97.65 177.5 L96.05 175.6 Q91.1 167.35 86.4 163.4 86.4 163.0 86.7 162.9 87.0 162.8 87.05 163.2 88.85 165.0 90.25 165.85 92.2 167.05 94.2 167.05 L96.25 166.6 Q97.6 166.4 98.0 167.4 L98.3 172.55 99.0 172.55 99.15 168.65 Q100.6 168.0 102.8 167.55 L106.35 166.8" fill="#f7d549" fill-rule="evenodd" stroke="none"/>
      <path d="M111.95 204.0 L111.85 204.6 Q111.75 205.0 111.45 205.2 L110.55 201.75 109.75 202.95 Q109.6 203.2 109.2 203.25 108.8 203.35 108.55 203.05 L105.6 200.2 Q106.05 199.35 105.5 198.6 105.0 197.85 104.15 197.75 102.95 197.6 102.3 196.8 L101.2 195.15 92.9 183.75 Q87.35 183.9 84.3 182.3 L88.45 182.35 Q89.6 180.75 90.05 176.35 L91.0 175.75 Q92.2 178.5 95.4 181.7 L101.7 187.5 Q110.2 195.45 111.95 204.0" fill="#fdf671" fill-rule="evenodd" stroke="none"/>
      <path d="M176.5 194.55 Q175.6 195.05 175.4 194.4 175.15 193.75 175.9 193.25 176.9 180.25 172.9 168.95 L173.3 167.8 173.55 166.55 174.0 165.25 173.25 163.2 Q173.35 161.3 172.15 159.55 171.35 158.35 172.0 158.0 177.4 165.15 179.9 174.15 182.3 182.8 181.7 192.25 L176.5 194.55" fill="#fcf162" fill-rule="evenodd" stroke="none"/>
      <path d="M92.3 213.35 Q93.15 211.7 94.5 212.65 96.55 214.1 98.95 213.3 101.65 212.35 103.45 210.45 L104.3 210.1 Q104.8 209.85 104.7 209.25 106.4 213.45 105.1 216.95 103.95 220.1 100.8 221.5 97.75 222.85 94.45 221.9 94.45 217.1 92.3 213.35" fill="#ecb83f" fill-rule="evenodd" stroke="none"/>
      <path d="M133.65 188.9 L131.55 195.35 Q131.2 196.45 128.05 199.65 125.4 203.2 126.35 207.05 125.45 208.9 123.95 210.5 122.8 209.75 122.3 207.2 121.45 202.7 124.65 197.1 127.1 192.75 131.55 188.45 L132.4 190.25 132.95 189.5 133.65 188.9" fill="#d99935" fill-rule="evenodd" stroke="none"/>
      <path d="M91.0 175.75 Q91.15 177.45 90.35 180.1 89.8 181.9 90.65 182.6 L89.3 182.65 Q88.7 182.35 88.45 182.35 88.05 181.9 86.35 181.45 85.0 181.1 84.55 179.8 83.7 178.8 84.5 178.35 85.3 177.9 85.8 179.15 87.35 176.65 86.3 173.75 85.3 170.85 82.45 169.2 83.7 167.7 83.65 166.95 83.65 166.2 82.65 164.9 81.9 164.0 82.55 163.85 L87.3 169.45 Q89.7 172.65 91.0 175.75" fill="#fae857" fill-rule="evenodd" stroke="none"/>
      <path d="M150.05 253.65 Q150.7 253.65 151.1 254.05 136.35 256.95 123.2 257.8 L98.9 257.8 87.05 256.85 75.35 254.5 76.4 254.1 85.05 255.6 96.3 256.95 112.7 257.2 125.7 256.9 138.0 255.55 150.05 253.65" fill="#671b0b" fill-rule="evenodd" stroke="none"/>
      <path d="M90.35 220.65 L90.5 221.2 Q88.9 224.95 84.5 224.65 L79.55 224.05 Q76.7 223.35 75.3 221.7 L72.45 215.25 Q75.0 218.95 80.45 220.8 86.15 222.7 90.35 220.65" fill="#faee57" fill-rule="evenodd" stroke="none"/>
      <path d="M137.55 160.35 Q137.7 161.0 139.3 161.0 L142.6 160.55 139.85 164.35 Q132.95 164.7 128.65 163.55 L129.1 163.2 129.05 162.8 Q128.7 162.45 127.8 162.35 L126.65 162.3 Q126.5 162.3 126.45 162.15 126.35 162.0 126.55 161.85 L128.2 161.15 Q129.5 160.65 130.1 159.3 133.0 160.55 137.55 160.35" fill="#ecb53e" fill-rule="evenodd" stroke="none"/>
      <path d="M63.55 255.7 Q67.85 251.7 69.55 247.95 71.65 243.5 72.0 237.45 72.3 231.95 71.15 226.9 69.25 219.1 66.0 213.9 L66.15 213.5 66.45 213.45 Q71.4 221.3 72.7 232.05 73.5 238.4 70.95 246.45 69.25 251.7 64.45 256.0 L63.9 256.1 Q63.6 256.0 63.55 255.7" fill="#671c0c" fill-rule="evenodd" stroke="none"/>
      <path d="M59.15 157.7 L57.25 156.8 Q55.8 156.75 53.1 155.45 44.95 166.9 42.0 183.0 L41.25 187.85 Q41.0 190.6 41.8 191.95 L41.5 192.35 41.05 192.4 Q40.35 191.6 40.35 190.45 L40.55 188.35 Q42.7 168.65 52.75 154.85 L58.9 157.05 Q59.3 156.65 59.6 157.05 59.85 157.45 59.15 157.7" fill="#631a0b" fill-rule="evenodd" stroke="none"/>
      <path d="M205.75 253.8 Q201.05 257.9 194.05 259.9 187.7 261.7 180.3 261.6 167.4 261.35 159.5 253.6 158.95 253.05 158.95 252.55 158.95 252.15 159.3 252.2 162.25 255.85 167.05 258.05 171.35 260.05 176.7 260.75 187.3 262.05 199.1 257.35 L205.75 253.8" fill="#5f160a" fill-rule="evenodd" stroke="none"/>
      <path d="M13.7 206.15 Q10.25 210.4 8.5 217.2 6.95 223.45 8.1 230.9 9.25 238.5 12.75 243.95 L12.6 244.35 12.25 244.4 Q8.3 238.55 7.05 228.5 6.35 222.7 7.9 216.7 9.5 210.7 13.0 205.9 13.2 205.65 13.45 205.7 13.65 205.75 13.7 206.15" fill="#61180a" fill-rule="evenodd" stroke="none"/>
      <path d="M61.4 257.75 Q58.15 260.75 49.85 261.75 38.45 263.15 26.05 257.3 25.75 257.15 25.8 256.85 25.8 256.55 26.15 256.45 31.45 259.6 39.95 260.8 L50.55 260.9 Q53.05 260.9 56.2 259.8 L61.4 257.75" fill="#671b0b" fill-rule="evenodd" stroke="none"/>
      <path d="M54.4 201.85 Q45.1 195.8 33.05 196.25 25.4 196.55 19.45 200.8 L19.0 200.55 Q18.95 200.25 19.25 200.25 26.6 194.9 36.6 195.4 45.8 195.85 54.2 200.95 L54.9 201.45 54.75 201.7 54.4 201.85" fill="#681d0c" fill-rule="evenodd" stroke="none"/>
      <path d="M148.25 242.05 Q147.6 242.75 147.9 244.45 144.75 244.1 143.85 246.6 142.1 248.05 132.6 249.0 122.95 249.95 121.15 248.5 114.3 252.3 105.7 251.4 102.8 253.05 99.05 252.4 L98.05 252.85 Q91.25 252.0 85.1 249.45 85.3 250.25 84.4 250.8 83.4 251.4 80.05 250.4 76.5 249.35 76.7 247.9 79.15 239.5 77.2 227.7 81.55 229.5 86.7 229.5 L96.15 228.45 Q101.0 227.55 104.05 226.15 108.05 224.4 110.45 221.35 111.65 220.8 111.5 221.6 L111.8 221.35 111.65 220.95 Q113.45 219.85 113.75 218.2 114.15 215.65 115.0 214.25 117.9 220.65 123.3 224.3 128.6 227.9 135.6 228.25 139.85 228.45 142.35 228.2 145.95 227.85 149.05 226.5 148.15 230.45 148.0 234.55 147.95 237.4 148.25 242.05" fill="#da9935" fill-rule="evenodd" stroke="none"/>
      <path d="M148.25 242.05 L148.45 245.6 148.1 248.35 143.15 250.1 138.6 250.4 133.75 251.2 128.75 251.65 122.6 252.1 119.9 251.95 117.35 252.3 102.05 252.75 99.05 252.4 103.75 252.1 Q104.1 250.5 106.05 250.4 L113.7 250.2 Q115.45 250.15 117.45 249.35 L121.05 247.6 Q127.2 249.2 132.6 248.1 L143.2 245.95 Q143.9 244.15 145.0 243.8 L147.5 244.0 Q147.25 243.05 147.3 242.35 L147.7 242.05 148.25 242.05" fill="#f5c945" fill-rule="evenodd" stroke="none"/>
      <path d="M110.45 221.35 Q112.45 220.2 113.75 218.2 L114.1 218.9 113.65 219.55 111.8 221.35 112.05 221.75 Q114.2 221.9 117.95 224.75 122.55 228.3 126.05 229.65 129.0 230.8 134.35 230.25 139.85 229.7 141.35 230.15 143.6 230.85 144.05 233.5 144.5 235.95 143.15 237.85 139.4 243.1 133.05 244.35 L125.75 245.8 104.0 245.8 Q99.35 245.8 93.5 242.7 87.0 239.25 85.05 234.65 86.15 233.05 88.1 232.8 89.85 232.6 91.85 233.4 97.3 231.15 102.95 229.8 104.2 229.5 105.45 228.3 L107.5 226.15 109.8 224.05 111.75 221.85 111.5 221.6 110.45 221.35" fill="#f4c844" fill-rule="evenodd" stroke="none"/>
      <path d="M160.35 187.1 L161.8 190.75 Q162.4 193.15 161.45 194.6 159.15 198.1 153.9 198.1 148.6 198.1 146.25 194.35 145.15 192.25 145.2 190.0 145.2 187.4 146.95 185.85 149.1 183.95 152.35 183.75 155.45 183.6 158.05 185.0 L160.35 187.1" fill="#fefebb" fill-rule="evenodd" stroke="none"/>
      <path d="M158.3 158.75 Q158.2 158.55 158.4 158.05 L169.45 154.65 172.0 158.0 Q173.7 161.15 174.95 165.2 174.8 167.2 173.3 167.8 L172.7 168.55 Q176.3 175.9 175.1 183.45 173.9 191.1 168.1 196.7 L166.7 196.85 Q165.9 197.35 164.15 196.4 162.5 195.55 162.05 194.65 162.65 192.8 162.2 190.6 161.75 188.25 160.35 187.1 159.3 188.05 157.5 185.8 152.65 183.45 148.7 185.75 144.55 188.25 146.9 193.5 L146.25 194.35 Q146.75 196.5 149.35 197.95 148.7 200.25 144.7 199.1 L140.35 197.5 139.9 198.0 138.1 198.0 136.05 197.7 133.25 197.0 Q131.5 196.3 131.55 195.35 L130.75 194.65 Q130.9 193.2 131.8 191.5 132.6 189.95 133.65 188.9 L133.3 188.45 Q133.2 188.15 133.4 188.0 138.75 183.15 143.05 182.45 141.95 176.0 146.35 169.05 150.45 162.6 156.8 159.4 157.6 158.95 158.3 158.75 L159.85 158.6 158.3 158.75" fill="#fae856" fill-rule="evenodd" stroke="none"/>
      <path d="M133.65 188.9 Q132.1 192.25 131.05 189.4 L131.55 188.45 134.45 186.1 Q136.3 184.55 136.95 183.25 137.75 181.7 138.4 180.85 139.15 179.8 140.4 178.7 142.05 177.15 143.25 174.35 L144.85 169.25 144.2 167.75 Q143.75 166.8 143.85 166.2 L146.2 162.5 Q147.85 160.3 149.6 159.95 L158.4 158.05 Q158.85 158.45 159.85 158.6 151.55 163.7 147.1 169.35 144.8 172.35 144.05 176.2 143.25 180.35 144.8 183.3 140.45 183.25 135.15 187.7 L133.65 188.9" fill="#efbd40" fill-rule="evenodd" stroke="none"/>
      <path d="M173.3 167.8 Q174.5 169.7 175.1 172.6 L175.95 177.9 Q177.45 186.9 176.7 193.65 L176.25 194.05 Q176.15 194.35 176.5 194.55 L173.05 196.35 Q173.1 195.95 172.7 195.95 L171.85 196.15 165.8 199.9 166.2 198.2 Q166.4 197.2 166.7 196.85 L170.65 191.9 Q172.7 188.95 173.5 186.25 176.9 175.15 170.15 166.3 170.9 166.4 171.85 167.2 172.7 167.85 173.3 167.8" fill="#efbd41" fill-rule="evenodd" stroke="none"/>
      <path d="M169.75 175.5 Q169.85 177.7 168.55 179.4 167.3 181.0 165.3 181.6 163.3 182.25 161.4 181.25 159.5 180.3 158.5 178.3 157.55 176.4 157.5 174.1 157.45 172.4 157.95 169.6 158.9 167.2 161.45 166.05 164.05 164.9 166.6 165.75 169.9 169.8 169.75 175.5" fill="#fdfec2" fill-rule="evenodd" stroke="none"/>
      <path d="M153.5 175.15 Q151.75 174.0 152.15 172.1 152.45 170.55 153.65 169.5 154.8 168.45 156.35 168.2 157.35 170.3 156.55 172.35 155.7 174.4 153.5 175.15" fill="#fefeba" fill-rule="evenodd" stroke="none"/>
      <path d="M161.5 160.9 Q162.6 161.15 163.05 161.9 163.5 162.6 163.25 163.45 162.85 164.9 160.6 164.65 157.7 164.2 158.0 162.4 158.15 161.35 159.25 160.95 L161.5 160.9" fill="#fefda8" fill-rule="evenodd" stroke="none"/>
      <path d="M85.8 179.15 Q85.1 178.85 84.55 179.8 82.15 180.65 79.75 180.4 77.15 180.1 75.2 178.5 73.35 177.0 72.6 174.7 71.8 172.2 73.05 170.3 74.35 168.35 77.0 168.15 79.35 168.0 81.5 169.25 84.15 170.8 85.35 173.55 86.6 176.3 85.8 179.15" fill="#fefdab" fill-rule="evenodd" stroke="none"/>
      <path d="M84.3 182.3 L89.65 183.2 Q91.75 182.45 93.6 183.2 L103.05 196.2 Q106.75 197.15 106.75 199.95 L108.95 202.15 Q110.1 200.55 111.0 201.95 111.75 203.15 111.5 204.5 L111.55 204.35 Q111.7 203.9 111.95 204.0 112.65 207.35 112.0 210.2 111.2 213.45 108.85 214.25 107.9 210.15 106.8 208.1 105.25 205.1 102.85 204.75 L104.7 209.25 Q105.4 211.0 101.75 213.1 99.35 214.45 97.6 214.6 95.4 214.75 93.55 213.2 L92.3 213.35 Q89.95 209.1 87.25 208.1 86.15 206.05 84.7 204.4 84.5 203.8 84.75 202.45 L85.0 200.35 Q80.9 198.15 79.2 196.55 76.7 194.1 76.85 191.0 76.9 189.25 75.05 188.85 73.4 188.5 72.55 187.3 71.7 186.15 71.8 184.45 69.5 183.3 68.5 180.55 67.6 178.0 68.45 177.1 69.2 176.25 70.0 176.7 70.6 177.05 70.85 178.25 L71.35 179.7 Q71.8 180.05 73.25 179.3 L75.7 179.45 Q77.15 180.7 80.0 181.2 83.35 181.8 84.3 182.3" fill="#fae857" fill-rule="evenodd" stroke="none"/>
      <path d="M95.15 199.9 Q91.95 201.95 87.75 198.4 83.75 194.95 83.2 190.45 82.9 187.8 86.0 187.1 90.2 186.2 93.3 188.6 96.6 191.2 97.1 194.9 97.55 198.4 95.15 199.9" fill="#fefeb4" fill-rule="evenodd" stroke="none"/>
      <path d="M179.25 202.4 Q178.3 203.8 176.65 205.1 175.55 206.4 175.9 209.55 L176.0 210.6 Q174.55 211.95 174.35 214.1 174.15 216.15 175.05 218.0 L174.5 218.95 Q173.25 221.0 173.9 222.65 L168.25 220.8 Q166.65 222.2 166.6 225.3 166.55 228.3 167.9 229.45 168.5 229.95 169.25 230.05 L170.7 230.1 169.2 230.6 Q168.45 230.85 168.05 231.25 L168.8 232.25 170.2 232.35 170.6 232.05 Q171.05 231.75 171.5 231.7 L171.75 233.05 Q167.3 239.85 170.25 246.4 173.25 253.0 181.35 253.9 L181.75 254.35 Q183.35 254.65 184.15 253.65 191.3 254.1 197.3 250.8 203.85 247.15 205.45 240.65 L206.5 239.1 Q205.45 239.2 205.4 238.4 205.4 237.55 206.4 237.3 207.5 235.85 207.2 233.3 206.95 231.2 208.1 230.8 L209.0 231.6 Q208.25 234.9 210.3 234.65 212.4 234.35 212.3 231.5 L213.4 230.95 214.0 229.9 214.45 228.45 214.35 221.65 Q214.3 221.35 214.5 221.25 L214.9 221.3 Q214.8 221.6 215.05 225.75 215.25 230.05 214.15 234.2 212.4 240.65 208.0 245.9 203.7 251.05 197.65 253.95 190.85 257.2 184.1 257.8 176.55 258.45 170.6 255.6 166.3 253.55 162.65 248.55 159.1 243.65 159.35 236.05 159.6 229.9 162.25 222.6 165.35 214.2 171.75 207.95 174.75 205.0 179.25 202.4" fill="#dd9e36" fill-rule="evenodd" stroke="none"/>
      <path d="M20.4 229.4 L19.65 230.4 Q17.75 231.35 17.45 233.1 17.15 234.7 18.2 236.05 19.25 237.45 20.85 237.55 22.75 237.7 24.45 236.0 24.4 234.6 25.65 232.55 27.0 230.3 28.15 230.8 28.8 231.1 28.25 232.05 28.65 232.7 28.45 233.4 28.25 234.2 27.55 234.25 25.85 237.95 26.1 242.55 L27.25 243.15 Q28.4 247.55 31.65 250.25 34.85 252.85 39.4 253.25 41.35 254.0 43.2 254.9 L43.75 253.9 Q51.05 254.45 56.6 250.7 62.75 246.55 62.55 239.45 63.25 238.3 63.15 236.7 62.05 233.55 64.4 229.9 64.4 227.6 65.25 226.2 L66.05 226.25 66.95 233.05 Q67.5 237.25 66.65 241.45 65.8 245.85 63.65 249.35 60.35 254.75 54.15 257.1 48.35 259.25 41.75 258.2 29.9 256.35 21.7 248.0 12.65 238.85 12.1 227.95 11.9 223.4 12.2 220.35 12.65 216.25 14.2 213.2 15.95 212.7 15.45 215.05 13.55 219.55 14.4 223.75 15.45 228.8 20.35 228.25 L20.4 229.4" fill="#d99935" fill-rule="evenodd" stroke="none"/>
      <path d="M25.85 202.1 Q26.65 202.4 27.15 203.15 27.65 203.95 27.25 204.7 L22.3 209.2 Q21.35 210.4 21.7 212.0 L21.4 213.1 Q17.35 214.8 18.35 219.9 19.4 225.05 23.9 224.95 L24.65 225.9 Q26.7 226.25 26.2 227.75 25.7 229.1 23.8 229.9 21.05 231.0 20.4 229.4 L17.7 229.0 Q15.75 228.95 14.8 227.2 11.75 221.55 14.45 215.15 14.9 213.9 14.2 213.2 L16.05 209.5 17.7 207.6 Q21.4 203.65 25.85 202.1" fill="#ebb53e" fill-rule="evenodd" stroke="none"/>
      <path d="M206.4 237.3 L206.5 239.1 Q205.3 242.7 197.1 243.7 186.1 245.1 178.45 240.15 L175.1 237.65 Q173.3 235.9 173.45 234.3 L173.1 233.25 Q172.25 233.3 172.05 232.6 171.9 231.85 172.5 231.25 175.35 227.45 179.95 225.5 184.4 223.7 189.5 223.95 193.45 224.2 195.9 224.8 199.2 225.7 201.5 227.65 203.65 229.55 204.95 232.1 206.25 234.65 206.4 237.3" fill="#fefc9e" fill-rule="evenodd" stroke="none"/>
      <path d="M174.5 218.95 Q173.05 216.7 173.4 213.85 173.75 210.8 175.9 209.55 L178.7 208.45 Q180.9 207.6 183.65 209.2 184.65 209.8 185.2 211.05 L185.95 213.5 Q186.5 215.7 185.7 217.3 184.95 218.8 182.95 220.0 180.65 221.35 178.45 221.25 175.9 221.1 174.5 218.95" fill="#fdfb93" fill-rule="evenodd" stroke="none"/>
      <path d="M215.0 219.6 L214.9 221.3 Q214.5 224.75 214.65 229.25 214.5 231.25 213.4 230.95 212.3 230.85 211.15 229.85 209.55 230.75 208.1 230.8 L207.5 232.35 Q208.95 237.3 206.4 237.3 L205.35 236.6 Q204.6 231.5 200.7 228.4 197.15 225.6 191.9 224.95 186.8 224.35 181.95 225.95 176.9 227.6 173.95 231.05 L172.5 231.25 Q172.75 232.2 172.4 232.4 172.05 232.55 171.5 231.7 169.9 233.7 168.55 233.25 167.2 232.8 167.25 230.15 165.55 228.45 165.65 225.0 165.85 217.9 172.6 221.25 172.85 218.4 174.5 218.95 175.65 218.6 176.6 219.7 180.55 220.95 183.0 219.0 185.1 217.35 185.15 214.4 185.15 211.45 183.05 210.05 L176.8 210.2 174.85 208.95 Q174.6 204.95 179.25 202.4 182.85 200.3 189.4 200.3 195.55 200.25 199.55 201.95 204.9 204.15 209.4 209.0 214.35 214.3 215.0 219.6" fill="#f8d74b" fill-rule="evenodd" stroke="none"/>
      <path d="M196.55 218.25 Q194.25 219.8 191.75 218.75 189.1 217.65 188.25 213.7 187.35 209.65 189.55 207.15 192.55 203.8 195.95 204.75 197.7 205.2 198.8 206.8 199.85 208.4 199.9 210.4 200.05 215.75 196.55 218.25" fill="#fefd9f" fill-rule="evenodd" stroke="none"/>
      <path d="M210.9 224.2 Q209.7 225.85 207.6 226.05 205.85 226.25 204.1 225.35 201.25 223.85 201.0 219.75 200.8 215.75 202.95 213.95 205.75 211.7 208.15 212.8 211.2 214.2 212.1 217.8 213.0 221.45 210.9 224.2" fill="#fdfb90" fill-rule="evenodd" stroke="none"/>
      <path d="M173.45 234.3 Q171.95 239.5 172.85 243.55 173.75 247.55 177.3 251.7 L183.7 253.05 Q185.05 254.75 181.75 254.35 176.75 253.55 174.35 252.3 169.1 249.55 168.3 243.25 167.55 237.1 171.5 231.7 172.25 231.7 172.5 231.25 173.35 232.6 173.45 234.3" fill="#fdf778" fill-rule="evenodd" stroke="none"/>
      <path d="M213.4 230.95 L213.15 232.8 Q212.95 233.9 212.35 234.5 211.6 235.25 210.65 235.5 209.45 235.85 208.6 235.05 207.95 234.4 207.9 233.0 L208.1 230.8 Q208.75 229.75 209.8 229.25 L212.1 229.15 212.85 230.0 213.4 230.95" fill="#fdfb8f" fill-rule="evenodd" stroke="none"/>
      <path d="M173.45 234.3 Q177.1 238.9 182.5 241.2 187.8 243.45 193.9 243.05 L200.65 242.05 Q204.1 241.1 206.5 239.1 206.6 241.5 205.2 244.25 203.85 246.85 201.6 248.9 197.7 252.4 192.2 253.8 186.95 255.2 181.75 254.35 183.0 254.4 183.7 253.85 L180.2 253.35 176.7 252.4 Q173.75 248.45 172.7 246.55 171.05 243.45 171.8 238.9 L172.1 235.9 Q172.25 234.15 172.8 233.1 L173.45 234.3" fill="#f9de4e" fill-rule="evenodd" stroke="none"/>
      <path d="M62.7 236.65 Q63.4 238.3 62.95 239.15 62.55 239.9 60.75 240.85 52.8 245.1 43.95 243.2 35.4 241.4 29.15 234.65 28.8 236.15 27.9 236.65 L27.35 242.05 26.1 242.55 Q24.9 237.1 28.25 232.05 31.6 226.95 36.65 224.65 41.9 222.25 47.85 223.35 53.7 224.4 57.85 228.0 62.2 231.75 62.7 236.65" fill="#fefca1" fill-rule="evenodd" stroke="none"/>
      <path d="M62.7 236.65 L63.15 236.7 Q64.6 243.25 60.6 248.3 58.05 251.45 54.2 253.15 50.55 254.75 46.3 254.85 L43.2 254.9 Q43.05 254.15 41.9 254.3 37.0 251.7 31.8 250.45 29.3 248.1 28.45 243.8 27.85 240.7 28.05 236.1 28.85 235.8 29.15 234.65 29.15 233.55 29.45 233.35 36.45 241.1 44.9 242.45 53.2 243.85 62.45 238.95 62.85 238.3 62.7 236.65" fill="#f9de4e" fill-rule="evenodd" stroke="none"/>
      <path d="M29.15 234.65 Q28.15 243.75 31.75 249.45 L35.65 250.45 Q37.85 251.05 39.2 251.95 L41.0 253.45 Q42.1 254.25 43.45 254.05 43.75 254.25 43.65 254.55 43.6 254.85 43.2 254.9 L37.25 253.85 Q32.95 253.15 29.9 249.9 27.05 246.9 26.1 242.55 26.65 241.65 26.7 238.6 26.8 235.8 28.05 234.35 L28.4 235.85 28.6 235.4 Q28.8 234.75 29.15 234.65" fill="#fdf677" fill-rule="evenodd" stroke="none"/>
      <path d="M24.65 225.9 Q21.15 226.05 19.15 223.8 17.25 221.7 17.3 218.2 17.4 212.95 21.7 212.0 23.75 211.55 25.8 212.4 27.65 213.25 28.95 214.9 30.25 216.6 30.6 218.55 30.95 220.7 30.0 222.55 29.3 223.85 27.65 224.85 26.1 225.8 24.65 225.9" fill="#fdf988" fill-rule="evenodd" stroke="none"/>
      <path d="M66.05 226.25 Q65.6 226.55 65.6 228.3 65.6 230.4 64.4 232.2 62.75 234.95 63.15 236.7 62.85 237.3 62.7 236.65 L61.6 235.95 Q60.2 231.0 56.05 227.8 52.25 224.85 47.15 224.2 42.05 223.55 37.45 225.4 32.55 227.4 29.7 231.7 L28.25 232.05 Q28.1 230.8 26.9 232.4 25.7 234.05 25.2 236.55 L22.15 238.45 19.95 238.5 Q18.95 238.15 18.05 237.35 16.3 235.9 16.5 232.85 16.6 231.1 17.7 230.2 18.75 229.35 20.4 229.4 23.5 229.5 24.95 228.1 25.6 227.5 24.65 225.9 24.55 225.15 25.1 224.85 28.45 223.15 29.35 221.65 30.65 219.6 28.75 216.35 27.8 214.65 26.1 213.7 24.35 212.65 22.4 212.85 L21.7 212.0 Q19.6 211.0 21.6 208.55 22.95 206.85 26.75 204.05 25.6 203.25 25.85 202.1 29.25 200.95 33.5 200.95 L41.3 201.6 Q48.35 202.65 53.85 206.7 59.25 210.65 62.5 216.95 L64.7 221.4 Q65.75 223.85 66.05 226.25" fill="#f8d84b" fill-rule="evenodd" stroke="none"/>
      <path d="M42.35 216.1 Q41.35 218.55 38.45 219.1 L36.0 218.85 Q34.75 218.4 33.85 217.35 32.15 215.35 31.65 212.7 31.15 210.05 32.0 207.55 32.7 205.55 34.6 204.85 36.5 204.2 38.35 205.2 41.2 206.75 42.35 209.85 43.55 213.0 42.35 216.1" fill="#fefc9f" fill-rule="evenodd" stroke="none"/>
      <path d="M53.35 220.85 Q51.75 221.5 49.85 220.9 47.95 220.3 46.95 218.9 45.1 216.3 46.25 213.0 47.4 209.65 50.55 209.0 52.6 208.6 54.4 210.15 55.95 211.45 56.55 213.4 57.25 215.6 56.45 217.65 55.6 219.9 53.35 220.85" fill="#fefc9b" fill-rule="evenodd" stroke="none"/>
      <path d="M62.7 221.35 Q63.85 224.0 62.3 225.35 L58.6 225.5 Q56.5 224.3 57.65 221.45 58.45 219.3 60.05 219.25 61.7 219.1 62.7 221.35" fill="#fefda0" fill-rule="evenodd" stroke="none"/>
      <path d="M99.5 152.4 L101.8 151.65 Q113.8 152.1 125.0 151.9 L126.95 150.65 Q141.75 148.75 153.5 144.6 168.95 139.2 176.3 130.75 178.05 127.75 180.2 125.95 179.75 124.5 181.65 123.4 L184.75 123.35 Q186.65 120.25 189.25 118.45 190.15 118.6 189.6 120.15 L189.95 121.1 Q190.25 122.55 187.2 127.5 180.2 138.95 163.4 147.3 148.45 154.75 133.6 156.25 134.65 156.15 134.7 156.7 L129.1 157.4 Q129.1 158.1 129.5 158.6 L130.1 159.3 Q130.65 160.1 130.35 160.7 L129.25 161.8 Q130.15 162.65 130.05 163.2 129.9 163.75 128.65 163.55 L124.05 163.75 Q117.15 164.35 110.65 166.65 L106.8 167.15 106.35 166.8 105.75 167.95 100.35 169.25 Q99.75 175.75 97.35 172.2 L97.05 167.6 Q94.2 168.2 91.65 167.6 88.5 164.75 86.4 163.4 L83.5 160.95 96.2 160.9 Q97.15 160.9 97.9 160.45 98.65 159.9 98.7 159.1 L84.0 157.2 83.9 156.8 Q67.8 153.75 54.75 146.2 39.7 137.5 32.55 124.8 25.6 112.55 24.75 97.05 23.95 82.3 28.7 68.4 L31.55 65.75 Q32.0 64.3 32.8 62.85 32.1 61.95 32.8 60.5 33.5 59.05 34.65 58.9 33.8 58.0 35.85 56.25 35.45 55.5 36.05 55.0 L37.45 54.95 Q40.3 52.3 40.1 54.5 39.95 56.55 38.25 58.9 39.45 59.65 39.25 60.6 34.9 72.35 34.25 80.9 33.35 92.75 39.05 100.6 35.65 111.55 41.55 121.75 46.4 130.15 57.1 137.35 63.5 141.7 71.85 144.95 77.55 147.1 87.7 149.95 93.9 149.9 99.5 152.4" fill="#d69333" fill-rule="evenodd" stroke="none"/>
      <path d="M165.75 32.25 L167.1 32.55 Q168.7 33.1 173.1 37.7 177.5 42.3 178.0 44.0 L178.25 45.35 Q178.9 45.6 179.1 45.9 184.9 52.6 189.6 65.8 193.45 76.7 195.25 87.9 197.35 100.45 196.75 103.45 L196.35 104.05 196.6 107.65 Q196.65 110.55 196.4 110.7 L195.2 110.6 Q194.8 110.05 194.85 109.05 194.1 111.0 192.9 111.8 191.55 112.7 190.65 110.95 L189.9 110.9 190.55 110.35 Q189.3 106.25 189.3 101.85 190.5 101.35 190.2 99.6 189.45 98.7 188.8 97.2 187.0 81.9 182.55 69.65 177.4 55.6 168.45 44.75 L168.4 43.8 166.65 43.2 Q157.2 32.65 143.2 27.0 130.55 21.85 115.1 21.0 101.0 20.25 90.5 22.25 77.85 24.7 67.8 31.45 L66.45 31.5 Q66.05 31.25 65.7 30.35 L67.1 22.5 Q65.65 16.25 58.85 12.55 52.4 9.05 45.5 9.85 45.05 8.95 43.65 9.15 43.65 9.75 42.95 9.9 42.25 10.05 42.0 9.5 40.0 9.9 39.6 8.9 42.6 6.5 36.65 8.6 35.5 8.5 35.25 8.0 35.0 7.5 35.95 7.0 46.65 3.8 56.7 6.5 67.75 9.45 72.9 18.5 74.05 20.5 73.9 22.4 L81.35 18.75 Q87.15 16.85 91.05 15.95 96.45 14.75 101.05 14.8 L118.45 14.9 Q132.9 16.15 143.45 20.05 153.8 23.9 165.75 32.25" fill="#fdf97e" fill-rule="evenodd" stroke="none"/>
      <path d="M84.0 157.2 L69.5 154.55 Q53.75 151.75 40.2 140.65 29.6 131.9 24.45 118.55 19.9 108.3 20.45 94.65 20.95 83.05 24.95 70.4 25.65 70.45 26.0 69.7 L26.35 68.25 Q27.95 68.25 29.3 67.5 L31.55 65.75 Q31.6 66.3 30.9 66.85 L29.9 67.85 Q23.4 85.8 26.65 104.8 30.1 125.25 43.7 137.1 50.05 142.65 58.4 146.95 65.4 150.6 74.7 153.8 L79.95 155.75 Q82.95 156.65 85.65 156.45 L84.85 157.15 84.0 157.2" fill="#fae652" fill-rule="evenodd" stroke="none"/>
      <path d="M195.75 117.6 Q192.25 129.7 184.05 137.45 174.6 146.5 161.05 151.2 150.85 154.7 134.7 156.7 133.75 156.75 133.15 156.25 L134.55 155.85 136.05 155.65 139.35 155.2 142.4 154.1 Q156.55 149.35 161.5 147.1 170.5 142.95 178.9 135.7 186.6 129.0 189.6 120.15 L189.1 118.8 Q189.95 117.15 190.35 115.2 188.3 111.2 190.65 110.95 192.85 111.35 193.55 110.0 L194.2 107.3 Q194.5 105.55 195.5 104.6 195.95 105.8 195.9 107.6 195.85 109.7 195.95 110.35 L196.3 110.1 196.35 104.05 Q196.9 104.15 196.9 104.75 L197.0 111.35 Q196.8 115.1 195.75 117.6" fill="#fae852" fill-rule="evenodd" stroke="none"/>
      <path d="M22.4 21.0 L22.5 22.6 Q16.35 31.95 18.35 42.5 20.4 53.15 29.75 59.2 32.0 57.0 33.4 57.95 L34.5 57.85 Q34.75 58.0 34.65 58.9 L32.8 62.85 Q28.6 64.05 24.3 61.85 20.65 59.95 17.55 55.95 15.4 54.35 13.4 48.9 10.9 42.0 11.9 34.3 12.95 26.4 17.3 20.8 21.4 15.55 23.55 18.6 L22.4 21.0" fill="#f8dc4d" fill-rule="evenodd" stroke="none"/>
      <path d="M200.2 47.3 Q198.9 47.5 198.9 46.65 199.85 40.6 199.1 35.0 197.55 35.65 196.85 34.6 L195.8 33.75 Q194.85 27.7 192.4 21.9 L189.2 17.9 Q185.25 12.95 179.65 10.55 174.1 8.15 167.6 8.45 L165.75 8.3 Q164.7 8.25 164.25 8.9 163.9 9.6 162.55 9.95 161.15 10.35 160.85 9.5 160.15 8.85 160.15 7.4 L155.45 8.15 Q154.6 8.1 154.95 6.85 162.1 4.15 170.5 4.85 179.2 5.6 185.8 9.7 195.1 15.55 199.1 26.1 202.95 36.5 200.2 47.3" fill="#fdf87d" fill-rule="evenodd" stroke="none"/>
      <path d="M200.2 47.3 Q199.3 51.15 197.15 54.6 194.8 58.3 191.6 60.55 L189.4 56.05 189.7 54.6 Q197.05 48.55 195.95 35.75 L196.85 34.6 199.95 33.6 200.55 39.4 200.05 44.65 199.85 46.1 Q199.8 46.85 200.2 47.3" fill="#fbef5b" fill-rule="evenodd" stroke="none"/>
      <path d="M160.85 9.5 L160.25 10.6 Q156.9 11.4 154.35 13.85 151.8 16.3 150.8 19.6 L149.6 20.15 146.05 18.4 Q143.75 17.3 142.4 16.15 147.0 9.85 154.95 6.85 L157.3 6.95 Q159.5 6.3 160.4 6.5 161.15 6.7 161.25 7.85 161.35 8.9 160.85 9.5" fill="#fae654" fill-rule="evenodd" stroke="none"/>
      <path d="M35.95 7.0 Q35.8 7.3 36.1 7.8 L38.85 6.9 41.8 7.05 Q42.35 7.3 41.7 8.15 41.0 9.0 40.1 8.95 40.5 9.25 41.05 9.4 L42.0 9.5 Q40.9 10.45 39.1 11.05 37.2 11.75 35.9 11.55 29.3 14.55 23.95 20.55 L22.4 21.0 Q22.0 20.6 22.25 19.8 L22.8 18.5 Q20.9 17.7 19.2 19.6 17.7 21.3 17.3 20.85 L17.05 20.55 Q17.15 20.4 17.6 20.35 24.2 11.55 31.4 8.8 L35.95 7.0" fill="#fcf263" fill-rule="evenodd" stroke="none"/>
      <path d="M185.6 55.8 Q194.55 74.45 196.4 94.8 L196.95 100.65 Q197.45 106.2 197.35 109.95 197.25 115.05 196.1 118.65 195.8 118.4 195.8 118.05 L195.75 117.6 196.4 112.8 196.9 108.3 Q196.95 105.85 196.35 104.05 L196.2 100.5 195.9 96.8 Q195.1 83.45 190.55 69.65 185.7 55.1 178.25 45.35 178.3 44.95 178.55 44.85 178.8 44.75 179.0 45.05 183.8 52.1 185.6 55.8" fill="#641a0b" fill-rule="evenodd" stroke="none"/>
      <path d="M24.95 70.4 Q21.85 80.75 21.1 90.1 L21.05 103.9 Q21.05 107.4 22.1 111.45 22.85 114.3 24.45 118.55 L24.25 119.0 23.9 119.05 Q22.3 114.55 21.6 111.9 20.55 107.95 20.4 104.55 L20.2 99.9 Q19.75 98.0 19.9 95.45 L20.3 90.95 Q21.2 79.0 24.95 70.4" fill="#63190b" fill-rule="evenodd" stroke="none"/>
      <path d="M17.6 20.35 L17.3 20.85 Q12.1 28.8 12.0 38.5 11.95 48.55 17.55 55.95 L17.45 56.3 Q17.35 56.45 17.25 56.4 16.75 56.25 16.5 55.85 11.15 47.55 11.25 38.25 11.3 29.15 16.6 20.55 16.75 20.3 17.1 20.25 L17.6 20.35" fill="#651c0b" fill-rule="evenodd" stroke="none"/>
      <path d="M41.45 102.95 L41.95 104.2 Q40.45 107.85 41.45 112.35 42.9 119.55 46.6 122.35 49.2 124.3 57.25 126.3 59.35 126.1 60.35 127.4 60.0 127.85 58.35 128.5 57.55 132.3 61.95 135.35 65.55 137.9 70.6 138.9 71.9 140.35 75.15 139.15 79.3 142.35 82.25 145.0 82.65 147.2 85.45 148.05 L90.35 148.4 95.8 149.6 96.45 149.3 98.25 149.6 98.3 150.05 Q99.45 150.05 101.0 151.3 102.55 152.55 99.5 152.4 87.85 150.95 75.7 147.3 61.6 143.1 50.65 133.6 42.15 126.25 38.95 118.9 35.25 110.35 38.15 100.75 32.4 94.05 33.35 81.05 34.1 70.55 38.55 59.9 37.95 59.8 37.35 60.25 L36.25 60.75 39.6 54.0 Q38.15 54.0 37.45 54.95 37.4 54.3 38.1 53.75 38.65 53.35 39.35 53.15 40.6 52.05 39.65 52.45 39.9 50.7 44.45 45.35 L50.7 38.55 Q51.4 37.85 52.1 37.9 51.5 37.0 51.95 36.6 L53.3 36.7 Q54.05 35.95 53.95 35.1 54.6 34.2 57.0 32.85 59.75 31.3 60.25 32.35 L65.5 32.95 58.0 40.9 Q53.45 45.45 52.25 49.85 51.8 51.6 51.95 54.1 L52.4 58.4 52.8 61.4 Q53.15 63.0 54.05 64.15 L50.85 65.0 Q48.25 66.8 48.2 69.85 48.1 72.85 50.4 75.05 52.05 76.7 51.5 78.2 46.75 78.8 45.45 81.4 44.6 83.1 45.35 86.25 46.15 89.6 47.9 90.45 L43.3 92.9 Q41.35 93.95 40.5 97.95 39.6 102.0 41.45 102.95" fill="#f3c242" fill-rule="evenodd" stroke="none"/>
      <path d="M43.65 9.15 L44.45 9.25 Q44.95 9.35 45.15 9.8 39.3 11.35 36.9 12.8 L36.55 12.0 Q36.4 11.6 34.9 12.2 33.45 12.8 32.15 13.7 L32.5 14.15 33.9 13.55 35.7 13.45 Q29.8 16.4 26.75 22.05 23.75 27.7 24.55 34.2 25.3 40.05 28.25 46.05 31.5 52.6 35.7 55.8 L33.4 57.95 Q31.15 59.05 29.45 61.4 29.4 60.4 29.05 59.85 L28.15 58.95 Q18.65 52.75 17.15 41.25 15.75 30.2 22.4 21.0 25.65 16.45 31.05 13.4 35.9 10.7 42.0 9.5 L43.65 9.15" fill="#d39132" fill-rule="evenodd" stroke="none"/>
      <path d="M190.2 99.6 L190.1 100.7 Q190.05 101.35 189.55 101.75 189.9 98.5 187.5 97.3 L182.95 95.05 181.3 94.0 Q180.3 93.4 179.3 93.25 179.3 84.55 177.2 77.5 L173.3 74.2 Q176.0 68.6 175.5 62.4 175.05 56.5 171.7 50.95 L170.1 48.0 Q169.15 46.25 168.15 45.25 167.8 45.0 167.9 44.55 168.0 44.15 168.4 43.8 L172.55 49.15 Q175.0 52.3 176.55 54.9 185.15 69.15 187.5 83.2 L190.2 99.6" fill="#f4c644" fill-rule="evenodd" stroke="none"/>
      <path d="M192.4 21.9 Q194.75 27.45 195.6 33.3 196.6 40.25 195.0 45.0 193.9 48.35 192.3 50.3 190.05 53.0 188.55 49.85 187.05 48.5 188.25 51.05 L187.3 51.65 186.2 50.65 Q185.5 49.8 185.8 49.45 L188.2 46.65 187.95 45.45 Q190.1 42.45 189.8 38.45 189.5 34.8 187.35 31.45 L187.7 30.15 Q184.2 25.3 177.95 24.25 172.95 23.4 169.5 24.15 166.0 24.85 162.0 27.65 160.1 26.9 157.85 25.4 L154.1 22.95 Q153.1 18.1 156.3 14.15 159.35 10.3 164.35 9.35 L164.25 8.9 Q163.35 7.5 166.3 7.3 L170.4 7.5 Q178.05 8.35 183.25 11.35 188.75 14.55 192.75 20.75 L192.4 21.9" fill="#fae654" fill-rule="evenodd" stroke="none"/>
      <path d="M196.85 34.6 Q197.5 41.55 196.05 46.5 194.3 52.45 189.4 56.05 L188.2 53.9 Q187.5 52.6 187.3 51.65 L187.3 51.0 186.95 50.2 Q186.15 49.25 187.25 48.55 188.0 48.1 188.95 48.9 189.95 49.75 190.2 51.2 194.1 46.75 194.7 41.95 194.9 40.55 194.55 32.05 194.4 28.05 193.2 25.05 192.05 22.8 192.05 22.25 192.05 21.85 192.4 21.9 L195.05 27.6 Q196.4 30.45 196.85 34.6" fill="#e5a83a" fill-rule="evenodd" stroke="none"/>
      <path d="M164.25 8.9 L168.2 9.15 Q165.6 8.95 162.25 10.75 159.1 12.4 157.05 14.75 155.25 16.75 155.0 19.7 154.8 22.4 154.1 22.95 L149.6 20.15 Q150.65 16.0 153.7 13.1 156.75 10.2 160.85 9.5 L164.25 8.9" fill="#eab33d" fill-rule="evenodd" stroke="none"/>
      <path d="M179.0 20.35 Q175.45 21.7 170.05 20.15 164.25 18.45 163.95 15.05 163.8 12.55 166.2 10.95 168.35 9.5 171.0 9.6 176.0 9.75 179.15 11.55 182.6 13.5 182.3 16.85 182.2 17.9 181.25 18.9 L179.0 20.35" fill="#fefec3" fill-rule="evenodd" stroke="none"/>
      <path d="M187.7 30.15 Q190.55 34.2 190.8 38.7 191.05 43.4 188.2 46.65 187.85 46.1 186.4 47.6 184.95 49.05 185.2 49.6 L188.6 56.45 187.1 55.85 185.6 55.8 178.9 45.55 Q178.95 45.75 178.25 45.35 172.6 38.15 165.75 32.25 165.7 31.3 163.3 29.55 161.7 28.35 163.85 27.55 168.7 23.65 176.1 24.6 183.45 25.5 186.95 30.45 187.1 30.7 187.4 30.6 187.65 30.55 187.7 30.15" fill="#964e1b" fill-rule="evenodd" stroke="none"/>
      <path d="M188.3 39.35 Q188.85 43.8 184.3 47.85 179.1 39.15 172.3 33.95 173.7 32.8 175.6 32.4 L179.4 32.05 Q182.65 32.05 185.2 34.0 187.85 36.05 188.3 39.35" fill="#ce882f" fill-rule="evenodd" stroke="none"/>
      <path d="M60.25 32.35 Q58.75 32.85 56.7 34.3 L53.3 36.7 Q51.55 32.75 47.15 31.5 42.8 30.25 38.7 32.45 33.9 35.05 34.75 40.55 35.5 45.55 39.65 48.75 L50.0 37.4 Q52.55 35.6 52.1 37.9 47.3 41.6 42.35 49.2 41.35 50.75 40.75 52.4 40.35 53.4 40.15 53.35 L39.35 53.15 Q35.1 50.75 32.55 46.45 29.9 41.95 30.25 37.05 30.65 31.05 35.2 26.95 39.6 22.95 45.85 22.55 50.4 22.3 54.5 25.25 58.3 28.0 60.25 32.35" fill="#8f4919" fill-rule="evenodd" stroke="none"/>
      <path d="M53.3 36.7 L52.1 37.9 51.75 37.55 51.2 37.65 Q48.95 39.55 46.5 42.45 L42.3 47.7 39.75 50.0 Q37.9 49.05 36.55 47.1 35.8 45.95 34.55 43.2 32.8 39.5 34.15 36.1 35.5 32.65 39.3 31.05 47.85 27.5 53.7 35.3 L53.3 36.7" fill="#cb842e" fill-rule="evenodd" stroke="none"/>
      <path d="M190.55 110.35 L190.65 110.95 Q190.1 111.7 190.65 113.15 L191.3 115.2 Q191.25 116.25 190.6 117.75 L189.6 120.15 Q189.6 119.6 189.25 119.1 L186.2 123.0 185.6 123.85 184.85 124.35 Q184.2 124.35 183.15 123.55 L180.2 125.95 Q173.15 127.9 167.75 126.25 164.25 125.15 161.75 122.05 159.3 118.9 159.05 115.2 158.8 111.6 160.4 108.2 162.0 104.85 164.9 102.8 165.4 102.45 166.9 101.95 168.3 101.45 168.9 100.95 172.15 98.25 176.25 98.25 180.1 98.25 183.7 100.65 186.85 102.75 188.2 105.0 L190.55 110.35" fill="#f3b43e" fill-rule="evenodd" stroke="none"/>
      <path d="M179.2 101.6 Q180.8 102.5 180.9 104.6 181.0 106.65 179.7 107.65 178.4 108.65 176.95 108.8 175.55 108.95 174.5 108.15 173.25 107.2 172.7 105.85 172.05 104.2 172.9 102.9 173.75 101.5 175.7 101.15 177.6 100.75 179.2 101.6" fill="#fcf392" fill-rule="evenodd" stroke="none"/>
      <path d="M170.45 106.75 Q170.45 107.9 169.65 108.75 168.8 109.55 167.65 109.55 166.5 109.55 165.65 108.75 164.85 107.9 164.85 106.75 164.85 105.6 165.65 104.75 166.5 103.95 167.65 103.95 168.8 103.95 169.65 104.75 170.45 105.6 170.45 106.75" fill="#fcf186" fill-rule="evenodd" stroke="none"/>
    </g>
    <g id="sprite1">
      <clipPath id="clipPath1">
        <path d="M 99.15 82.85 L 94.9 83.25 L 95.15 83.8 L 92.7 84.3 L 87 85.7 L 86.4 85.89 L 85.85 86.09 L 85.34 86.28 L 84.88 86.47 L 84.47 86.67 L 84.11 86.86 L 83.79 87.06 L 83.53 87.25 L 83.31 87.44 L 83.13 87.64 L 83.06 87.73 L 83.01 87.83 L 82.96 87.93 L 82.93 88.03 L 82.91 88.12 L 82.9 88.22 L 82.91 88.32 L 82.92 88.41 L 82.95 88.51 L 82.99 88.61 L 83.04 88.7 L 83.1 88.8 L 82.5 89.27 L 81.91 89.75 L 81.36 90.24 L 80.82 90.74 L 80.31 91.25 L 79.81 91.78 L 79.35 92.31 L 78.9 92.86 L 78.48 93.42 L 78.08 93.99 L 77.7 94.57 L 77.34 95.16 L 77.01 95.76 L 76.7 96.38 L 76.41 97 L 76.15 97.64 L 75.91 98.29 L 75.69 98.94 L 75.49 99.61 L 75.32 100.3 L 75.17 100.99 L 75.04 101.69 L 74.93 102.41 L 74.85 103.13 L 74.79 103.87 L 74.75 104.62 L 74.74 105.38 L 74.74 106.15 L 74.77 106.93 L 74.83 107.73 L 74.9 108.53 L 75 109.35 L 75.1 110.09 L 75.22 110.82 L 75.36 111.55 L 75.5 112.26 L 75.67 112.98 L 75.84 113.69 L 76.03 114.39 L 76.24 115.08 L 76.46 115.77 L 76.7 116.46 L 76.95 117.14 L 77.21 117.81 L 77.49 118.47 L 77.78 119.13 L 78.09 119.79 L 78.41 120.44 L 78.75 121.08 L 79.1 121.72 L 79.47 122.35 L 79.85 122.97 L 80.24 123.59 L 80.65 124.2 L 81.08 124.81 L 81.52 125.41 L 81.97 126 L 82.44 126.59 L 82.92 127.18 L 83.42 127.75 L 83.93 128.32 L 84.45 128.89 L 84.99 129.45 L 85.55 130 L 85.22 130.25 L 85.08 130.38 L 84.95 130.5 L 84.84 130.63 L 84.74 130.76 L 84.66 130.88 L 84.6 131.01 L 84.55 131.14 L 84.52 131.27 L 84.5 131.4 L 84.5 131.53 L 84.51 131.66 L 84.54 131.79 L 84.59 131.92 L 84.65 132.05 L 84.76 132.22 L 84.88 132.37 L 85.01 132.51 L 85.16 132.64 L 85.33 132.75 L 85.5 132.85 L 85.69 132.93 L 85.9 133 L 85.98 132.77 L 86.09 132.53 L 86.21 132.29 L 86.35 132.04 L 86.51 131.78 L 86.69 131.51 L 86.88 131.23 L 87.1 130.95 L 88.7 129.05 L 89.5 128.15 L 89.79 128.06 L 90.04 127.96 L 90.24 127.86 L 90.4 127.75 L 90.52 127.63 L 90.56 127.57 L 90.59 127.51 L 90.61 127.45 L 90.62 127.38 L 90.61 127.32 L 90.6 127.25 L 90.35 125.95 L 89.89 125.61 L 89.43 125.27 L 89 124.93 L 88.57 124.58 L 88.17 124.23 L 87.77 123.88 L 87.39 123.52 L 87.02 123.15 L 86.67 122.79 L 86.33 122.42 L 86 122.04 L 85.69 121.66 L 85.4 121.28 L 85.11 120.9 L 84.84 120.51 L 84.59 120.11 L 84.35 119.72 L 84.12 119.31 L 83.91 118.91 L 83.71 118.5 L 83.52 118.09 L 83.35 117.67 L 83.19 117.25 L 83.05 116.83 L 82.92 116.4 L 82.8 115.97 L 82.7 115.53 L 82.61 115.09 L 82.54 114.65 L 82.48 114.2 L 82.43 113.75 L 82.4 113.3 L 82.39 112.9 L 82.38 112.49 L 82.39 112.1 L 82.41 111.7 L 82.43 111.31 L 82.47 110.92 L 82.52 110.54 L 82.58 110.15 L 82.65 109.77 L 82.73 109.4 L 82.81 109.03 L 82.91 108.66 L 83.02 108.29 L 83.14 107.93 L 83.27 107.57 L 83.41 107.21 L 83.56 106.86 L 83.72 106.51 L 83.89 106.16 L 84.08 105.82 L 84.27 105.48 L 84.47 105.14 L 84.68 104.81 L 84.9 104.48 L 85.14 104.15 L 85.38 103.83 L 85.89 103.19 L 86.45 102.56 L 87.05 101.95 L 87.61 101.42 L 88.18 100.93 L 88.76 100.47 L 89.34 100.04 L 89.93 99.65 L 90.54 99.3 L 91.15 98.97 L 91.77 98.68 L 92.4 98.43 L 93.03 98.21 L 93.68 98.02 L 94.33 97.87 L 94.99 97.75 L 95.66 97.66 L 96.34 97.61 L 97.03 97.59 L 97.66 97.61 L 98.3 97.65 L 98.74 97.7 L 99.18 97.76 L 99.62 97.84 L 100.05 97.93 L 100.48 98.03 L 100.9 98.15 L 101.32 98.28 L 101.73 98.43 L 102.14 98.59 L 102.54 98.76 L 102.94 98.95 L 103.33 99.15 L 103.72 99.37 L 104.11 99.6 L 104.49 99.84 L 104.86 100.1 L 105.23 100.37 L 105.6 100.66 L 105.96 100.96 L 106.32 101.28 L 106.67 101.6 L 107.02 101.95 L 107.36 102.3 L 107.7 102.68 L 108.04 103.06 L 108.37 103.46 L 108.69 103.87 L 109.01 104.3 L 109.33 104.74 L 109.64 105.2 L 109.95 105.67 L 110.25 106.15 L 111.5 106.45 L 111.58 106.6 L 111.67 106.75 L 111.78 106.88 L 111.89 107 L 112.02 107.12 L 112.16 107.22 L 112.32 107.31 L 112.48 107.4 L 112.66 107.47 L 112.86 107.54 L 113.06 107.59 L 113.28 107.64 L 113.5 107.67 L 113.75 107.69 L 114 107.71 L 114.27 107.71 L 114.75 107.7 L 114.75 107.7 L 114.03 108.61 L 113.28 109.52 L 112.49 110.42 L 111.66 111.31 L 110.8 112.2 L 109.9 113.09 L 108.97 113.97 L 108 114.85 L 107.4 115.53 L 106.84 116.21 L 106.31 116.89 L 105.81 117.57 L 105.34 118.24 L 104.91 118.92 L 104.51 119.59 L 104.14 120.26 L 103.8 120.93 L 103.5 121.6 L 103.22 122.27 L 102.98 122.94 L 102.78 123.61 L 102.6 124.27 L 102.46 124.94 L 102.35 125.6 L 102.28 126.15 L 102.23 126.72 L 102.2 127.32 L 102.19 127.95 L 102.2 128.6 L 102.23 129.29 L 102.28 130 L 102.35 130.74 L 102.44 131.5 L 102.55 132.3 L 102.69 133.12 L 102.84 133.97 L 103.01 134.85 L 103.2 135.76 L 103.42 136.69 L 103.65 137.65 L 103.05 137.82 L 102.49 138.01 L 101.96 138.24 L 101.71 138.36 L 101.47 138.48 L 101.24 138.62 L 101.02 138.76 L 100.81 138.91 L 100.61 139.06 L 100.41 139.22 L 100.23 139.38 L 100.05 139.56 L 99.89 139.74 L 99.73 139.92 L 99.58 140.12 L 99.45 140.32 L 99.32 140.52 L 99.2 140.73 L 99.09 140.95 L 98.99 141.18 L 98.9 141.41 L 98.81 141.65 L 98.74 141.89 L 98.68 142.14 L 98.62 142.4 L 98.58 142.67 L 98.54 142.94 L 98.5 143.5 L 98.5 144.03 L 98.52 144.55 L 98.57 145.07 L 98.65 145.58 L 98.76 146.08 L 98.9 146.58 L 99.07 147.08 L 99.26 147.56 L 99.49 148.04 L 99.74 148.52 L 100.02 148.99 L 100.33 149.45 L 100.67 149.91 L 101.03 150.36 L 101.43 150.81 L 101.85 151.25 L 101.22 151.38 L 100.61 151.54 L 100.04 151.71 L 99.51 151.92 L 99 152.14 L 98.53 152.39 L 98.08 152.67 L 97.68 152.96 L 97.3 153.28 L 96.95 153.63 L 96.64 154 L 96.36 154.39 L 96.11 154.81 L 95.89 155.25 L 95.7 155.71 L 95.55 156.2 L 95.44 156.67 L 95.36 157.14 L 95.31 157.62 L 95.28 158.1 L 95.29 158.6 L 95.33 159.09 L 95.39 159.6 L 95.49 160.11 L 95.61 160.63 L 95.76 161.16 L 95.95 161.69 L 96.16 162.23 L 96.4 162.77 L 96.67 163.33 L 96.97 163.88 L 97.3 164.45 L 96.94 164.59 L 96.59 164.74 L 96.25 164.9 L 95.92 165.06 L 95.6 165.24 L 95.29 165.42 L 94.98 165.6 L 94.69 165.8 L 94.4 166 L 94.12 166.22 L 93.86 166.44 L 93.6 166.66 L 93.35 166.9 L 93.11 167.14 L 92.87 167.39 L 92.65 167.65 L 92.43 167.93 L 92.22 168.21 L 92.03 168.5 L 91.85 168.8 L 91.68 169.1 L 91.53 169.41 L 91.38 169.73 L 91.25 170.05 L 91.13 170.38 L 91.03 170.71 L 90.93 171.05 L 90.85 171.4 L 90.78 171.75 L 90.72 172.11 L 90.68 172.48 L 90.65 172.85 L 90.61 173.38 L 90.59 173.87 L 90.58 174.33 L 90.59 174.75 L 90.62 175.14 L 90.66 175.5 L 90.72 175.82 L 90.8 176.11 L 90.89 176.37 L 91 176.59 L 91.12 176.77 L 91.26 176.93 L 91.42 177.05 L 91.6 177.13 L 91.79 177.18 L 91.99 177.2 L 92.16 177.19 L 92.33 177.16 L 92.51 177.11 L 92.7 177.05 L 93.85 177 L 94.09 176.65 L 94.33 176.31 L 94.58 175.98 L 94.84 175.66 L 95.1 175.36 L 95.37 175.06 L 95.65 174.78 L 95.94 174.51 L 96.23 174.24 L 96.53 173.99 L 96.84 173.75 L 97.15 173.53 L 97.47 173.31 L 97.79 173.1 L 98.13 172.91 L 98.47 172.72 L 98.81 172.55 L 99.17 172.39 L 99.53 172.24 L 99.9 172.1 L 100.27 171.97 L 100.65 171.86 L 101.04 171.75 L 101.44 171.65 L 101.84 171.57 L 102.25 171.5 L 102.66 171.44 L 103.09 171.39 L 103.52 171.35 L 103.95 171.32 L 104.4 171.3 L 104.85 171.3 L 105.1 171.3 L 105.55 171.31 L 105.99 171.33 L 106.43 171.35 L 106.86 171.39 L 107.29 171.44 L 107.71 171.5 L 108.13 171.57 L 108.55 171.65 L 108.96 171.74 L 109.36 171.83 L 109.76 171.94 L 110.16 172.06 L 110.55 172.19 L 110.93 172.33 L 111.31 172.48 L 111.69 172.64 L 112.06 172.81 L 112.42 172.99 L 112.79 173.17 L 113.14 173.37 L 113.49 173.58 L 113.84 173.8 L 114.18 174.03 L 114.52 174.27 L 114.85 174.52 L 115.18 174.78 L 115.51 175.05 L 115.82 175.33 L 116.14 175.62 L 116.45 175.92 L 116.75 176.23 L 117.05 176.55 L 117.31 176.58 L 117.56 176.62 L 117.81 176.67 L 118.06 176.73 L 118.3 176.8 L 118.54 176.88 L 118.78 176.97 L 119.01 177.07 L 119.24 177.18 L 119.47 177.3 L 119.69 177.43 L 119.91 177.57 L 120.12 177.72 L 120.34 177.88 L 120.75 178.23 L 121.15 178.61 L 121.53 179.04 L 121.91 179.51 L 122.26 180.02 L 122.61 180.57 L 122.93 181.15 L 123.25 181.78 L 123.55 182.45 L 123.72 182.86 L 123.88 183.26 L 124.03 183.67 L 124.16 184.07 L 124.28 184.47 L 124.39 184.86 L 124.49 185.26 L 124.57 185.65 L 124.64 186.04 L 124.7 186.42 L 124.75 186.81 L 124.78 187.19 L 124.8 187.57 L 124.81 187.94 L 124.8 188.32 L 124.79 188.69 L 124.76 189.06 L 124.72 189.42 L 124.66 189.79 L 124.59 190.15 L 124.51 190.51 L 124.42 190.87 L 124.31 191.22 L 124.2 191.57 L 124.07 191.92 L 123.92 192.27 L 123.77 192.61 L 123.6 192.96 L 123.42 193.3 L 123.22 193.63 L 123.02 193.97 L 122.8 194.3 L 122.58 194.61 L 122.36 194.92 L 122.13 195.21 L 121.89 195.5 L 121.65 195.78 L 121.4 196.05 L 121.14 196.32 L 120.87 196.58 L 120.6 196.83 L 120.32 197.07 L 120.03 197.31 L 119.74 197.53 L 119.44 197.75 L 119.13 197.96 L 118.81 198.17 L 118.49 198.36 L 118.16 198.55 L 117.82 198.73 L 117.48 198.9 L 117.12 199.07 L 116.4 199.38 L 115.65 199.65 L 114.87 199.9 L 114.06 200.11 L 113.22 200.3 L 112.35 200.45 L 111.6 201.5 L 111.04 201.58 L 110.54 201.69 L 110.09 201.81 L 109.7 201.95 L 109.53 202.03 L 109.37 202.11 L 109.22 202.2 L 109.09 202.29 L 108.97 202.38 L 108.87 202.48 L 108.78 202.59 L 108.7 202.7 L 108.63 202.81 L 108.57 202.93 L 108.52 203.07 L 108.49 203.21 L 108.46 203.37 L 108.45 203.53 L 108.44 203.71 L 108.45 203.9 L 108.5 204.31 L 108.59 204.76 L 108.72 205.26 L 108.9 205.8 L 109.04 206.17 L 109.2 206.53 L 109.38 206.88 L 109.58 207.23 L 109.81 207.58 L 110.06 207.91 L 110.33 208.25 L 110.62 208.57 L 110.94 208.9 L 111.28 209.21 L 111.65 209.53 L 112.03 209.83 L 112.44 210.13 L 112.87 210.43 L 113.32 210.72 L 113.8 211 L 114.55 211.43 L 115.33 211.83 L 116.15 212.21 L 116.99 212.56 L 117.86 212.89 L 118.76 213.2 L 119.69 213.49 L 120.65 213.75 L 121.85 213 L 121.93 213.19 L 122.03 213.35 L 122.17 213.49 L 122.33 213.6 L 122.53 213.69 L 122.75 213.75 L 123 213.79 L 123.29 213.8 L 123.61 213.79 L 123.95 213.75 L 126.25 213.1 L 126.86 213.68 L 127.46 214.25 L 128.07 214.8 L 128.68 215.33 L 129.28 215.85 L 129.89 216.35 L 130.49 216.83 L 131.1 217.29 L 131.71 217.73 L 132.31 218.16 L 132.92 218.57 L 133.52 218.96 L 134.13 219.33 L 134.74 219.69 L 135.34 220.03 L 135.95 220.35 L 136.58 220.66 L 137.22 220.96 L 137.87 221.25 L 138.54 221.52 L 139.21 221.78 L 139.9 222.03 L 140.59 222.27 L 141.3 222.49 L 142.02 222.7 L 142.75 222.89 L 143.49 223.08 L 144.24 223.25 L 145 223.4 L 145.77 223.55 L 146.56 223.68 L 147.35 223.8 L 147.7 223.4 L 148.1 224.45 L 148.27 224.29 L 148.45 224.14 L 148.62 224.02 L 148.8 223.91 L 148.98 223.83 L 149.15 223.77 L 149.32 223.72 L 149.5 223.7 L 150.35 224.75 L 151.57 224.92 L 152.79 225.08 L 154 225.23 L 155.22 225.37 L 156.43 225.5 L 157.65 225.61 L 158.86 225.72 L 160.07 225.81 L 161.28 225.89 L 162.49 225.97 L 163.69 226.03 L 164.9 226.08 L 166.1 226.12 L 167.3 226.14 L 168.51 226.16 L 169.71 226.17 L 171.34 226.16 L 172.98 226.12 L 174.62 226.07 L 176.25 226 L 178.07 225.79 L 179.87 225.55 L 181.64 225.31 L 183.38 225.04 L 185.1 224.76 L 186.79 224.47 L 188.45 224.15 L 190.09 223.82 L 191.7 223.48 L 193.28 223.12 L 194.83 222.74 L 196.36 222.34 L 197.86 221.93 L 199.33 221.5 L 200.78 221.06 L 202.2 220.6 L 203.9 220.02 L 205.57 219.41 L 207.21 218.78 L 208.82 218.12 L 210.39 217.43 L 211.94 216.72 L 213.45 215.98 L 214.93 215.21 L 216.37 214.42 L 217.79 213.6 L 219.17 212.76 L 220.52 211.89 L 221.84 210.99 L 223.12 210.07 L 223.75 209.6 L 224.38 209.12 L 224.99 208.64 L 225.6 208.15 L 226.12 207.72 L 226.61 207.28 L 227.09 206.83 L 227.54 206.37 L 227.98 205.9 L 228.39 205.42 L 228.79 204.93 L 229.16 204.43 L 229.52 203.91 L 229.85 203.39 L 230.17 202.86 L 230.47 202.32 L 230.74 201.77 L 231 201.2 L 231.23 200.63 L 231.45 200.05 L 230.25 199.35 L 229.52 199.54 L 228.8 199.71 L 228.08 199.85 L 227.37 199.97 L 226.67 200.06 L 225.97 200.13 L 225.28 200.16 L 224.6 200.18 L 223.84 200.16 L 223.1 200.11 L 222.36 200.03 L 221.63 199.92 L 220.91 199.78 L 220.2 199.6 L 219.5 199.39 L 218.8 199.15 L 218.44 199.01 L 218.09 198.87 L 217.74 198.71 L 217.41 198.55 L 217.08 198.38 L 216.76 198.21 L 216.45 198.03 L 216.15 197.83 L 215.86 197.64 L 215.58 197.43 L 215.3 197.22 L 215.04 197 L 214.78 196.77 L 214.53 196.53 L 214.29 196.29 L 214.06 196.04 L 213.84 195.78 L 213.63 195.51 L 213.42 195.24 L 213.23 194.96 L 213.04 194.67 L 212.86 194.37 L 212.69 194.07 L 212.53 193.76 L 212.38 193.44 L 212.23 193.11 L 212.1 192.78 L 211.97 192.44 L 211.85 192.09 L 211.74 191.73 L 211.64 191.37 L 211.55 191 L 211.43 190.41 L 211.33 189.83 L 211.26 189.25 L 211.22 188.67 L 211.21 188.1 L 211.22 187.52 L 211.27 186.95 L 211.34 186.39 L 211.44 185.82 L 211.56 185.26 L 211.72 184.7 L 211.9 184.15 L 212.11 183.59 L 212.34 183.04 L 212.61 182.5 L 212.9 181.95 L 213.22 181.41 L 213.56 180.89 L 213.91 180.4 L 214.28 179.93 L 214.67 179.49 L 215.08 179.07 L 215.5 178.68 L 215.94 178.31 L 216.39 177.97 L 216.86 177.66 L 217.35 177.37 L 217.86 177.1 L 218.38 176.86 L 218.92 176.65 L 219.48 176.46 L 220.05 176.3 L 220.48 175.93 L 220.91 175.59 L 221.35 175.27 L 221.79 174.97 L 222.23 174.7 L 222.68 174.45 L 223.13 174.22 L 223.59 174.02 L 224.05 173.84 L 224.51 173.69 L 224.98 173.56 L 225.45 173.45 L 225.92 173.37 L 226.4 173.31 L 226.89 173.27 L 227.37 173.26 L 227.97 173.28 L 228.58 173.33 L 229.2 173.42 L 229.81 173.55 L 230.44 173.71 L 231.07 173.9 L 231.71 174.13 L 232.35 174.4 L 232.75 174.58 L 233.14 174.77 L 233.52 174.97 L 233.89 175.18 L 234.25 175.39 L 234.61 175.61 L 234.95 175.84 L 235.28 176.08 L 235.61 176.33 L 235.93 176.58 L 236.23 176.84 L 236.53 177.11 L 236.82 177.39 L 237.1 177.68 L 237.38 177.97 L 237.64 178.27 L 237.89 178.59 L 238.13 178.9 L 238.37 179.23 L 238.6 179.56 L 238.81 179.91 L 239.02 180.26 L 239.22 180.61 L 239.41 180.98 L 239.59 181.36 L 239.76 181.74 L 239.92 182.13 L 240.08 182.53 L 240.22 182.93 L 240.36 183.35 L 240.48 183.77 L 240.6 184.2 L 241.8 184.45 L 241.45 173.7 L 241.1 174.4 L 241.09 173.97 L 241.05 173.55 L 240.98 173.14 L 240.89 172.74 L 240.77 172.35 L 240.62 171.97 L 240.45 171.61 L 240.25 171.25 L 231.6 166.6 L 231 158.85 L 230.87 157.82 L 230.73 156.88 L 230.59 156 L 230.44 155.2 L 230.28 154.48 L 230.11 153.82 L 229.93 153.25 L 229.75 152.75 L 229.6 152.39 L 229.44 152.03 L 229.26 151.69 L 229.08 151.36 L 228.88 151.04 L 228.67 150.73 L 228.45 150.43 L 228.21 150.14 L 227.97 149.86 L 227.71 149.59 L 227.44 149.33 L 227.15 149.08 L 226.86 148.85 L 226.55 148.62 L 226.23 148.41 L 225.9 148.2 L 226.26 147.25 L 226.59 146.29 L 226.87 145.34 L 227.12 144.38 L 227.32 143.42 L 227.49 142.45 L 227.62 141.48 L 227.71 140.51 L 227.77 139.54 L 227.78 138.56 L 227.75 137.58 L 227.69 136.6 L 227.59 135.62 L 227.45 134.63 L 227.27 133.64 L 227.05 132.65 L 226.82 131.75 L 226.55 130.86 L 226.26 129.97 L 225.93 129.09 L 225.58 128.21 L 225.2 127.34 L 224.78 126.47 L 224.34 125.61 L 223.86 124.76 L 223.36 123.9 L 222.82 123.06 L 222.26 122.22 L 221.66 121.38 L 221.04 120.55 L 220.38 119.72 L 219.7 118.9 L 219.65 117.9 L 219.18 117.31 L 218.7 116.72 L 218.21 116.13 L 217.7 115.55 L 217.17 114.98 L 216.63 114.41 L 216.08 113.84 L 215.51 113.28 L 214.93 112.73 L 214.33 112.18 L 213.72 111.64 L 213.09 111.1 L 212.45 110.56 L 211.79 110.03 L 211.12 109.51 L 210.44 108.99 L 209.74 108.47 L 209.02 107.96 L 208.3 107.46 L 207.55 106.96 L 206.79 106.46 L 206.02 105.97 L 205.24 105.49 L 204.43 105.01 L 203.62 104.53 L 202.79 104.06 L 201.94 103.6 L 201.08 103.14 L 200.21 102.68 L 199.32 102.23 L 198.42 101.79 L 197.5 101.35 L 196.52 100.9 L 195.53 100.46 L 194.53 100.04 L 193.52 99.63 L 192.5 99.23 L 191.47 98.85 L 190.43 98.48 L 189.38 98.13 L 188.31 97.79 L 187.24 97.47 L 186.16 97.16 L 185.06 96.87 L 183.96 96.59 L 182.85 96.32 L 181.72 96.07 L 180.59 95.83 L 179.44 95.61 L 178.29 95.4 L 177.12 95.21 L 175.95 95.03 L 174.76 94.86 L 173.56 94.71 L 172.36 94.57 L 171.14 94.45 L 169.91 94.34 L 168.67 94.25 L 167.43 94.17 L 166.17 94.11 L 164.9 94.06 L 163.62 94.02 L 162.33 94 L 161.03 93.99 L 159.65 94 L 148 94.45 L 146.45 94.59 L 144.94 94.76 L 143.47 94.96 L 142.02 95.19 L 140.62 95.45 L 139.24 95.73 L 137.9 96.05 L 136.6 96.4 L 135.46 96.74 L 134.3 97.12 L 133.12 97.54 L 131.94 97.99 L 130.74 98.47 L 129.52 99 L 128.29 99.56 L 127.05 100.15 L 126.15 100.59 L 125.18 101.08 L 124.13 101.63 L 123.01 102.22 L 121.82 102.88 L 120.55 103.58 L 117.8 105.15 L 119.25 97 L 119.3 96.63 L 119.31 96.26 L 119.29 95.88 L 119.24 95.5 L 119.15 95.11 L 119.03 94.71 L 118.88 94.31 L 118.7 93.9 L 118.55 93.63 L 118.38 93.34 L 118.18 93.04 L 117.95 92.71 L 117.43 92.02 L 116.8 91.25 L 114.1 88.05 L 113.69 87.74 L 113.28 87.44 L 112.86 87.15 L 112.43 86.87 L 112.01 86.6 L 111.57 86.34 L 111.13 86.08 L 110.69 85.84 L 110.24 85.6 L 109.78 85.37 L 109.32 85.16 L 108.86 84.95 L 108.39 84.75 L 107.91 84.56 L 107.43 84.37 L 106.95 84.2 L 106.47 84.04 L 105.99 83.88 L 105.5 83.74 L 105.02 83.61 L 104.53 83.49 L 104.05 83.38 L 103.56 83.28 L 103.07 83.19 L 102.59 83.11 L 102.1 83.04 L 101.61 82.98 L 101.12 82.93 L 100.63 82.9 L 100.14 82.87 L 99.64 82.86 L 99.15 82.85 Z"/>
      </clipPath>
      <g clip-path="url(#clipPath1)">
        <use ffdec:characterId="16" height="309.3" transform="matrix(1.0, 0.0, 0.0, 1.0, 0.0, 0.0)" width="310.6" xlink:href="#shape1"/>
      </g>
    </g>
    <g id="shape1">
      <path d="M180.1 0.0 L310.6 175.25 130.45 309.3 0.0 134.05 180.1 0.0" fill="url(#gradient0)" fill-rule="evenodd" stroke="none"/>
    </g>
    <linearGradient gradientTransform="matrix(0.0645, 0.0866, -0.0866, 0.0645, 151.9, 150.15)" gradientUnits="userSpaceOnUse" id="gradient0" spreadMethod="pad" x1="-819.2" x2="819.2">
      <stop offset="0.0" stop-color="#fae554"/>
      <stop offset="0.1843137254901961" stop-color="#f7d649"/>
      <stop offset="0.49019607843137253" stop-color="#fae959"/>
      <stop offset="1.0" stop-color="#f8d94b"/>
    </linearGradient>
    <g id="sprite2">
      <use ffdec:characterId="18" height="142.65" transform="matrix(1.0, 0.0, 0.0, 1.0, 0.0, 0.0)" width="129.2" xlink:href="#shape2"/>
    </g>
    <g id="shape2">
      <path d="M125.0 151.9 Q109.35 153.6 99.5 152.4 L100.35 152.25 101.15 151.65 98.95 151.55 Q98.0 151.2 97.4 150.0 97.35 149.95 97.7 149.8 L98.25 149.6 109.8 151.15 121.45 151.15 125.0 151.9" fill="#f3b53f" fill-rule="evenodd" stroke="none"/>
      <path d="M157.6 47.3 Q153.85 51.3 146.5 49.65 139.5 48.1 135.55 43.3 133.8 41.15 133.35 38.5 132.9 35.5 134.6 33.6 137.45 30.3 144.65 31.45 152.05 32.65 156.85 37.65 158.75 39.55 159.05 42.4 159.35 45.4 157.6 47.3" fill="#fefec7" fill-rule="evenodd" stroke="none"/>
      <path d="M62.65 17.45 Q62.95 18.7 62.3 19.8 61.6 20.95 60.4 21.15 55.1 22.15 50.25 19.35 45.45 16.55 46.2 13.05 46.4 12.35 47.2 11.65 48.0 10.95 49.0 10.65 52.55 9.6 56.9 11.45 61.65 13.5 62.65 17.45" fill="#fefec7" fill-rule="evenodd" stroke="none"/>
      <path d="M131.8 47.75 Q130.75 49.4 128.2 49.55 125.95 49.65 124.15 48.7 122.15 47.65 121.1 45.7 119.95 43.6 120.6 41.4 121.25 39.15 123.65 38.4 L128.15 38.55 Q131.05 39.65 132.3 42.25 133.6 45.1 131.8 47.75" fill="#fefec3" fill-rule="evenodd" stroke="none"/>
      <path d="M96.45 149.3 Q96.75 150.4 95.1 149.95 91.9 149.05 88.9 149.5 L85.55 149.0 82.35 147.65 80.9 144.2 75.9 140.4 72.85 140.2 Q70.85 140.6 69.75 139.3 L70.05 139.05 70.6 138.9 Q73.2 139.4 75.2 138.2 81.45 144.75 88.35 146.85 L96.45 149.3" fill="#f3b53f" fill-rule="evenodd" stroke="none"/>
      <path d="M144.75 52.45 Q145.3 54.3 143.35 55.7 L139.55 55.9 Q136.95 55.1 136.85 52.8 136.85 51.5 137.7 50.65 138.55 49.8 140.0 49.65 141.65 49.5 142.9 50.1 144.3 50.85 144.75 52.45" fill="#fefec8" fill-rule="evenodd" stroke="none"/>
      <path d="M87.55 102.45 Q87.95 102.65 87.95 103.1 81.05 107.1 74.05 104.8 L71.85 103.55 69.9 102.1 69.75 101.5 Q65.75 98.35 64.45 93.45 63.2 88.85 64.65 84.25 66.15 79.55 69.75 76.75 73.75 73.7 79.1 73.85 84.45 74.05 88.3 77.3 91.9 80.35 93.3 85.05 94.65 89.75 93.25 94.35 91.8 99.3 87.55 102.45" fill="#452007" fill-rule="evenodd" stroke="none"/>
      <path d="M94.3 92.45 Q92.3 99.6 87.55 102.45 93.35 96.75 93.55 90.1 93.75 84.6 90.45 80.15 87.0 75.55 81.65 74.55 78.25 73.95 75.45 74.55 68.95 76.05 65.85 82.1 62.85 88.0 65.05 94.25 66.3 97.75 68.35 99.85 L70.4 101.85 70.25 102.1 69.9 102.1 Q66.6 99.75 64.95 96.0 63.45 92.45 63.6 87.95 63.7 83.75 66.1 80.25 68.4 76.85 72.05 75.05 76.05 73.05 80.35 73.55 84.65 74.0 88.0 76.7 91.65 79.6 93.25 83.75 94.8 87.75 94.3 92.45" fill="#110702" fill-rule="evenodd" stroke="none"/>
      <path d="M78.3 87.9 Q76.4 88.35 74.65 87.35 73.0 86.35 72.55 84.75 72.0 82.85 72.8 81.25 73.65 79.65 75.55 79.05 77.6 78.35 79.35 79.05 81.15 79.8 81.9 81.7 82.65 83.55 81.6 85.4 80.55 87.35 78.3 87.9" fill="#fdfbd6" fill-rule="evenodd" stroke="none"/>
      <path d="M79.6 101.85 Q77.35 103.4 74.7 102.3 72.05 101.2 71.5 98.65 71.25 97.45 72.05 96.3 72.7 95.35 73.65 94.85 75.65 93.75 77.9 94.85 80.15 95.9 80.9 98.3 81.15 99.0 80.8 100.1 80.4 101.3 79.6 101.85" fill="#ed9436" fill-rule="evenodd" stroke="none"/>
      <path d="M87.95 97.15 Q87.75 98.4 86.3 99.55 84.8 100.8 83.7 100.1 82.25 99.2 82.9 97.3 83.5 95.45 85.05 94.9 L86.9 94.7 Q87.55 95.1 87.8 95.5 88.1 96.1 87.95 97.15" fill="#bb5f23" fill-rule="evenodd" stroke="none"/>
      <path d="M165.65 100.25 Q162.25 104.15 156.95 104.7 151.75 105.3 146.95 102.55 146.45 101.4 144.05 98.9 141.85 96.65 141.4 94.8 138.7 84.55 143.4 78.7 147.55 73.55 154.8 74.0 162.0 74.45 166.0 80.1 170.6 86.55 167.65 96.4 166.4 98.4 165.65 100.25" fill="#452007" fill-rule="evenodd" stroke="none"/>
      <path d="M165.65 100.25 L165.2 99.9 165.3 99.5 166.2 98.6 Q169.3 93.4 168.4 87.35 167.5 81.2 162.85 77.3 158.9 73.95 152.1 74.4 146.9 74.8 143.7 78.85 140.55 82.75 140.9 88.0 L141.55 92.9 Q141.85 94.65 141.4 94.8 140.6 91.65 139.95 90.85 139.4 82.5 143.55 77.95 146.25 75.05 150.1 74.0 153.85 73.0 157.85 74.0 161.25 74.8 163.9 77.25 166.55 79.65 168.1 83.3 169.75 87.2 169.15 91.95 168.55 96.95 165.65 100.25" fill="#140802" fill-rule="evenodd" stroke="none"/>
      <path d="M153.2 79.0 Q154.9 79.65 155.4 81.65 155.85 83.4 155.15 84.95 154.3 86.65 152.55 87.3 150.8 87.95 148.85 87.35 146.3 86.55 146.2 83.4 146.0 79.9 148.9 78.95 151.3 78.25 153.2 79.0" fill="#fdfcd7" fill-rule="evenodd" stroke="none"/>
      <path d="M153.75 102.15 Q150.0 101.65 148.2 99.25 147.45 98.2 147.25 97.1 147.1 95.9 147.65 95.0 148.25 94.05 149.25 93.6 L151.6 93.4 Q153.75 93.95 155.25 95.65 156.8 97.4 156.85 99.6 156.9 100.75 156.0 101.5 155.1 102.3 153.75 102.15" fill="#eb8e34" fill-rule="evenodd" stroke="none"/>
      <path d="M160.6 99.75 Q159.0 100.05 158.5 97.4 158.15 95.7 160.5 94.1 162.85 92.5 163.7 93.85 164.65 95.4 163.6 97.4 162.55 99.35 160.6 99.75" fill="#bf6325" fill-rule="evenodd" stroke="none"/>
      <path d="M139.95 90.85 Q140.5 90.6 140.6 90.7 L141.25 92.7 141.4 94.8 142.5 95.1 Q144.9 98.65 147.5 101.5 L146.95 102.55 Q149.5 108.05 148.65 115.75 148.0 121.45 144.75 126.35 141.65 131.0 136.6 134.25 126.6 140.8 112.7 139.05 100.2 137.55 92.35 127.95 84.3 118.0 87.0 106.05 L87.7 104.5 Q88.15 103.5 87.95 103.1 L87.25 103.05 Q87.1 102.85 87.55 102.45 92.2 98.9 93.75 92.7 L94.3 92.45 Q102.85 84.15 114.65 83.55 129.05 82.7 139.95 90.85" fill="#fefcc1" fill-rule="evenodd" stroke="none"/>
      <path d="M128.8 100.4 Q125.9 103.5 121.1 104.2 L121.0 107.5 Q121.1 109.35 121.75 110.65 123.4 113.8 127.3 114.25 131.1 114.75 134.2 112.4 L136.25 109.05 Q136.85 108.8 137.55 109.55 L138.4 110.8 Q139.1 113.2 135.85 115.7 132.45 118.4 127.75 118.2 122.45 118.05 119.35 113.65 117.0 116.9 113.15 118.1 L105.3 118.3 Q102.7 117.75 100.85 116.3 98.85 114.7 98.15 112.3 97.95 111.6 98.15 110.75 98.35 109.85 98.8 109.45 L99.85 108.7 101.2 108.65 Q102.0 111.8 104.35 113.45 106.65 115.1 109.9 114.85 113.45 114.65 115.6 112.1 117.8 109.6 117.6 105.9 117.6 104.6 117.1 104.3 L113.0 103.45 Q109.55 102.7 107.6 100.5 105.7 98.35 105.95 95.7 106.2 93.05 108.45 91.35 109.2 91.2 109.1 91.35 111.6 89.55 115.7 89.0 119.9 88.5 123.6 89.6 127.65 90.75 129.15 93.35 130.9 96.3 128.8 100.4" fill="#542b0b" fill-rule="evenodd" stroke="none"/>
      <path d="M128.8 100.4 L129.75 96.7 Q130.0 91.6 123.0 89.8 116.15 88.0 110.0 91.05 L109.0 91.85 108.6 91.9 Q108.4 91.75 108.45 91.35 112.45 88.35 118.4 88.4 124.3 88.5 128.15 91.5 130.2 93.1 130.4 95.8 130.55 98.5 128.8 100.4" fill="#250f05" fill-rule="evenodd" stroke="none"/>
      <path d="M121.95 96.05 Q120.55 96.95 118.95 96.85 117.45 96.7 116.2 95.7 115.4 95.05 115.15 94.1 114.85 93.0 115.6 92.3 117.2 90.9 119.9 91.35 122.65 91.75 122.95 93.65 123.15 95.2 121.95 96.05" fill="#ed9e3b" fill-rule="evenodd" stroke="none"/>
      <path d="M60.35 127.4 L55.1 126.8 Q53.25 126.3 50.0 125.0 L46.75 123.8 Q44.95 122.95 44.2 121.65 37.7 110.5 41.45 102.95 42.6 100.65 44.35 99.35 49.4 95.7 55.5 96.3 61.45 96.85 66.0 101.3 L66.75 101.8 67.5 101.3 68.9 102.5 70.4 103.6 Q72.9 106.25 73.95 110.05 75.0 113.85 74.1 117.0 72.8 121.45 68.8 124.35 65.05 127.0 60.35 127.4" fill="#f3b53f" fill-rule="evenodd" stroke="none"/>
      <path d="M57.3 108.75 L52.75 108.9 Q50.9 108.05 50.45 105.05 50.2 102.9 51.5 101.55 52.7 100.25 54.95 100.1 57.2 99.95 58.55 101.1 59.9 102.2 59.9 105.0 59.85 106.45 59.3 107.3 58.7 108.2 57.3 108.75" fill="#fcf38d" fill-rule="evenodd" stroke="none"/>
      <path d="M69.35 107.9 Q68.6 108.6 67.55 108.6 66.55 108.55 65.85 108.0 65.25 107.6 65.1 106.75 64.95 105.9 65.35 105.05 65.65 104.25 66.45 103.8 L68.35 103.75 Q69.45 104.25 69.85 105.65 70.25 107.1 69.35 107.9" fill="#fcf59b" fill-rule="evenodd" stroke="none"/>
    </g>
    <g id="sprite3">
      <use ffdec:characterId="9" height="18.1" transform="matrix(1.0, 0.0, 0.0, 1.0, 0.0, 0.0)" width="30.7" xlink:href="#shape3"/>
    </g>
    <g id="shape3">
      <path d="M24.45 13.7 Q19.6 14.5 15.4 17.75 10.9 14.75 6.8 13.2 11.65 11.0 14.95 10.2 17.8 10.9 24.45 13.7" fill="#000000" fill-opacity="0.29803923" fill-rule="evenodd" stroke="none"/>
      <path d="M9.65 7.15 L20.5 7.15 20.5 7.3 20.15 12.9 20.15 13.0 20.15 13.05 20.15 13.1 9.8 9.4 9.65 7.15" fill="#ff9900" fill-rule="evenodd" stroke="none"/>
      <path d="M20.15 13.1 L19.75 13.2 18.2 13.75 Q17.55 14.0 17.0 14.35 15.95 14.95 15.2 15.7 13.95 14.4 11.85 13.65 L10.45 13.2 10.0 13.1 10.0 13.05 10.0 13.0 9.8 9.4 20.15 13.1" fill="#ffcc00" fill-rule="evenodd" stroke="none"/>
      <path d="M20.15 13.05 L20.15 13.1 M10.0 13.1 L10.0 13.05" ffdec:has-small-stroke="true" ffdec:original-stroke-width="0.1" fill="none" stroke="#061851" stroke-linecap="round" stroke-linejoin="round" stroke-width="1.5873277302782958"/>
      <path d="M20.5 7.3 L20.15 12.9 20.15 13.0 M20.15 13.1 L19.75 13.2 18.2 13.75 Q17.55 14.0 17.0 14.35 15.95 14.95 15.2 15.7 13.95 14.4 11.85 13.65 L10.45 13.2 10.0 13.1 M10.0 13.0 L9.8 9.4 9.65 7.15" ffdec:has-small-stroke="true" ffdec:original-stroke-width="0.75" fill="none" stroke="#4a1a13" stroke-linecap="round" stroke-linejoin="round" stroke-width="1.5873277302782958"/>
      <path d="M30.0 3.25 L30.0 5.15 15.0 9.35 14.95 9.35 14.95 7.45 15.0 7.45 30.0 3.25" fill="#ffcc00" fill-rule="evenodd" stroke="none"/>
      <path d="M14.95 9.35 L0.0 5.15 0.0 3.25 14.95 7.45 14.95 9.35" fill="#fefec7" fill-rule="evenodd" stroke="none"/>
      <path d="M0.0 3.25 L14.95 0.0 15.0 0.0 30.0 3.25 15.0 7.45 14.95 7.45 0.0 3.25" fill="#faea54" fill-rule="evenodd" stroke="none"/>
      <path d="M15.0 9.35 L14.95 9.35" ffdec:has-small-stroke="true" ffdec:original-stroke-width="0.1" fill="none" stroke="#061851" stroke-linecap="round" stroke-linejoin="round" stroke-width="1.5873277302782958"/>
      <path d="M30.0 3.25 L30.0 5.15 15.0 9.35 M14.95 9.35 L0.0 5.15 0.0 3.25 14.95 0.0 15.0 0.0 30.0 3.25" ffdec:has-small-stroke="true" ffdec:original-stroke-width="0.75" fill="none" stroke="#4a1a13" stroke-linecap="round" stroke-linejoin="round" stroke-width="1.5873277302782958"/>
    </g>
    <g id="shape4">
      <path d="M-5.75 -20.8 L-4.85 -20.6 Q-0.25 -19.65 4.3 -20.55 L5.4 -20.85" fill="none" stroke="#660000" stroke-linecap="round" stroke-linejoin="round" stroke-width="1.0"/>
    </g>
  </defs>
</svg>
