<?xml version="1.0" encoding="UTF-8" standalone="no"?>
<svg xmlns:ffdec="https://www.free-decompiler.com/flash" xmlns:xlink="http://www.w3.org/1999/xlink" ffdec:objectType="frame" height="45.65px" width="46.25px" xmlns="http://www.w3.org/2000/svg">
  <g transform="matrix(1.0, 0.0, 0.0, 1.0, 21.55, 53.3)">
    <use ffdec:characterId="19" height="45.65" transform="matrix(1.0, 0.0, 0.0, 1.0, -17.0, -38.0)" width="46.25" xlink:href="#sprite0"/>
  </g>
  <defs>
    <g id="sprite0">
      <use ffdec:characterId="12" height="25.6" transform="matrix(1.0, 0.0, 0.0, 1.0, 0.0, 0.0)" width="42.3" xlink:href="#shape0"/>
      <use ffdec:characterId="18" height="45.65" transform="matrix(1.0, 0.0, 0.0, 1.0, -4.1, -15.3)" width="45.8" xlink:href="#sprite1"/>
    </g>
    <g id="shape0">
      <path d="M2.9 17.5 L2.6 17.3 2.55 17.25 2.15 16.95 1.0 15.6 Q0.55 14.85 0.4 14.1 L-4.2 1.75 -4.25 1.65 -4.55 0.6 Q-4.65 -1.9 1.9 -3.6 8.0 -5.15 16.6 -5.15 25.2 -5.15 31.35 -3.6 37.85 -1.9 37.75 0.6 L37.55 1.55 37.6 1.55 32.8 14.1 Q32.65 15.7 31.0 17.0 L31.0 17.05 30.8 17.15 30.75 17.25 Q29.6 17.95 27.85 18.65 L27.85 18.7 26.15 19.25 20.75 20.25 16.6 20.45 Q10.05 20.45 5.4 18.7 L4.9 18.5 4.85 18.5 Q3.7 18.0 2.9 17.5" fill="#000000" fill-rule="evenodd" stroke="none"/>
    </g>
    <g id="sprite1">
      <use ffdec:characterId="2" height="9.55" transform="matrix(1.0, 0.0, 0.0, 1.0, 24.1, 0.0)" width="21.7" xlink:href="#sprite2"/>
      <use ffdec:characterId="7" height="33.25" transform="matrix(1.0, 0.0, 0.0, 1.0, 0.0, 2.2)" width="41.3" xlink:href="#sprite3"/>
      <use ffdec:characterId="14" height="10.1" transform="matrix(1.0, 0.0, 0.0, 1.0, 24.75, 24.8)" width="5.3" xlink:href="#sprite6"/>
      <use ffdec:characterId="15" height="21.7" transform="matrix(1.0, 0.0, 0.0, 1.0, 0.0, 0.0)" width="12.5" xlink:href="#shape5"/>
      <use ffdec:characterId="17" height="20.95" transform="matrix(1.0, 0.0, 0.0, 1.0, 14.65, 24.7)" width="11.75" xlink:href="#sprite7"/>
    </g>
    <g id="sprite2">
      <use ffdec:characterId="1" height="9.55" transform="matrix(1.0, 0.0, 0.0, 1.0, 0.0, 0.0)" width="21.7" xlink:href="#shape1"/>
    </g>
    <g id="shape1">
      <path d="M21.2 4.85 Q21.3 5.25 20.9 5.65 L4.15 9.05 4.15 7.1 17.45 0.55 Q19.05 -0.25 20.15 0.1 L20.9 0.55 20.95 0.65 7.65 6.4 21.25 1.25 Q22.3 3.5 20.9 4.3 L8.95 7.1 7.05 7.75 21.2 4.85" fill="#000000" fill-rule="evenodd" stroke="none"/>
      <path d="M20.95 0.65 L21.25 1.25 7.65 6.4 20.95 0.65" fill="#666666" fill-rule="evenodd" stroke="none"/>
      <path d="M20.9 4.3 L21.2 4.85 7.05 7.75 8.95 7.1 20.9 4.3" fill="#999999" fill-rule="evenodd" stroke="none"/>
      <path d="M1.5 7.6 L4.7 6.4 5.4 8.95 2.05 9.55 1.5 7.6" fill="#caea65" fill-rule="evenodd" stroke="none"/>
      <path d="M2.45 8.45 L2.4 9.15 2.1 9.55 1.55 9.35 1.25 8.75 1.2 7.95 Q1.3 7.65 1.55 7.6 1.8 7.5 2.05 7.75 L2.45 8.45" fill="#6c7d36" fill-rule="evenodd" stroke="none"/>
      <path d="M0.0 8.5 L1.7 8.05 Q2.2 8.45 2.0 9.05 L0.3 9.5 0.0 8.5" fill="#caea65" fill-rule="evenodd" stroke="none"/>
      <path d="M5.8 7.5 L5.85 8.5 5.5 8.95 Q5.25 9.05 5.0 8.75 4.7 8.4 4.55 7.85 L4.5 6.9 Q4.55 6.45 4.8 6.35 5.1 6.3 5.35 6.65 L5.8 7.5" fill="#caea65" fill-rule="evenodd" stroke="none"/>
      <path d="M2.5 7.55 L4.55 6.8 5.1 7.35 2.9 8.2 2.5 7.55" fill="#ffffff" fill-rule="evenodd" stroke="none"/>
    </g>
    <g id="sprite3">
      <use ffdec:characterId="4" height="26.6" transform="matrix(1.0, 0.0, 0.0, 1.0, 0.0, 6.4)" width="41.3" xlink:href="#sprite4"/>
      <use ffdec:characterId="6" height="9.0" transform="matrix(1.0, 0.0, 0.0, 1.0, 16.8, 0.0)" width="9.0" xlink:href="#sprite5"/>
    </g>
    <g id="sprite4">
      <use ffdec:characterId="3" height="26.6" transform="matrix(1.0, 0.0, 0.0, 1.0, 0.0, 0.0)" width="41.3" xlink:href="#shape2"/>
    </g>
    <g id="shape2">
      <path d="M9.1 24.65 L7.2 23.7 6.9 23.5 6.55 23.25 6.5 23.2 5.45 22.0 Q5.05 21.3 4.95 20.6 L0.2 8.0 41.15 8.0 36.35 20.6 Q36.25 22.05 34.75 23.25 L34.5 23.45 Q33.4 24.15 31.7 24.85 L35.0 12.3 Q20.6 15.4 4.85 11.9 L9.1 24.65" fill="#000000" fill-rule="evenodd" stroke="none"/>
      <path d="M31.7 24.85 L31.65 24.85 30.05 25.4 Q27.6 26.1 24.75 26.4 L20.65 26.6 Q14.2 26.6 9.6 24.85 L9.1 24.65 4.85 11.9 Q20.6 15.4 35.0 12.3 L31.7 24.85" fill="#2e2e2e" fill-rule="evenodd" stroke="none"/>
      <path d="M41.3 7.25 Q41.3 9.45 35.25 10.95 29.2 12.5 20.65 12.5 12.1 12.5 6.05 10.95 0.0 9.45 0.0 7.25 0.0 5.1 6.05 3.5 12.1 2.0 20.65 2.0 29.2 2.0 35.25 3.5 41.3 5.1 41.3 7.25" fill="url(#gradient0)" fill-rule="evenodd" stroke="none"/>
      <path d="M20.65 3.4 Q28.4 3.4 33.85 4.8 38.5 6.05 38.6 7.25 38.5 8.55 33.85 9.7 28.35 11.15 20.65 11.15 13.0 11.15 7.6 9.7 L7.55 9.7 Q2.9 8.55 2.7 7.25 2.9 6.05 7.55 4.8 12.95 3.4 20.65 3.4" fill="#202020" fill-rule="evenodd" stroke="none"/>
      <path d="M4.6 7.25 Q5.6 6.1 11.5 3.05 18.95 -0.85 19.8 0.2 L21.5 0.2 Q22.35 -0.85 29.8 3.05 35.0 5.75 36.45 6.95 L26.0 2.25 31.9 8.3 25.35 2.4 28.4 9.25 22.55 1.4 23.3 10.05 21.05 2.3 22.55 10.15 20.45 2.85 19.05 10.05 18.8 1.9 15.25 9.55 18.55 1.8 11.75 8.95 18.25 1.05 7.25 7.1 14.95 1.7 4.6 7.25" fill="#ff0000" fill-rule="evenodd" stroke="none"/>
      <path d="M4.6 7.25 L14.95 1.7 7.25 7.1 18.25 1.05 11.75 8.95 18.55 1.8 15.25 9.55 18.8 1.9 19.05 10.05 20.45 2.85 22.55 10.15 21.05 2.3 23.3 10.05 22.55 1.4 28.4 9.25 25.35 2.4 31.9 8.3 26.0 2.25 36.45 6.95 36.9 7.7 36.9 7.8 Q36.9 8.7 35.1 9.4 L33.1 10.0 Q21.2 12.25 8.2 10.0 L6.2 9.4 6.25 9.4 Q4.4 8.7 4.4 7.8 L4.4 7.7 4.6 7.25" fill="#9b1818" fill-rule="evenodd" stroke="none"/>
    </g>
    <linearGradient gradientTransform="matrix(0.0, -0.0048, 0.0064, 0.0, 20.65, 7.25)" gradientUnits="userSpaceOnUse" id="gradient0" spreadMethod="pad" x1="-819.2" x2="819.2">
      <stop offset="0.00784313725490196" stop-color="#a2a2a2"/>
      <stop offset="1.0" stop-color="#696969"/>
    </linearGradient>
    <g id="sprite5">
      <use ffdec:characterId="5" height="9.0" transform="matrix(1.0, 0.0, 0.0, 1.0, 0.0, 0.0)" width="9.0" xlink:href="#shape3"/>
    </g>
    <g id="shape3">
      <path d="M0.7 6.55 L0.45 6.15 0.1 5.2 0.0 4.25 Q0.0 2.5 1.25 1.25 2.5 0.0 4.25 0.0 5.8 0.0 6.95 1.0 L7.15 1.15 7.25 1.25 Q8.5 2.5 8.5 4.25 L8.4 5.2 8.05 6.15 8.05 6.2 7.9 6.55 7.75 6.55 6.8 7.05 4.25 7.35 1.95 7.1 1.8 7.05 1.7 7.05 0.8 6.55 0.7 6.55 M6.8 1.8 L6.75 1.55 Q6.65 1.15 6.05 0.9 L4.25 0.5 2.45 0.9 Q1.85 1.15 1.75 1.55 L1.7 1.8 1.7 1.9 Q1.75 2.4 2.45 2.75 L4.25 3.1 6.05 2.75 Q6.8 2.35 6.8 1.85 L6.8 1.8" fill="#62a85f" fill-rule="evenodd" stroke="none"/>
      <path d="M6.8 1.8 L6.8 1.85 Q6.8 2.35 6.05 2.75 L4.25 3.1 2.45 2.75 Q1.75 2.4 1.7 1.9 L1.7 1.8 1.75 1.55 Q1.85 1.15 2.45 0.9 L4.25 0.5 6.05 0.9 Q6.65 1.15 6.75 1.55 L6.8 1.8" fill="#7de878" fill-rule="evenodd" stroke="none"/>
      <path d="M7.9 6.55 Q7.3 7.7 5.85 8.2 L5.5 8.35 4.25 8.5 3.9 8.5 Q2.35 8.35 1.25 7.25 L0.7 6.55 0.8 6.55 1.7 7.05 1.8 7.05 1.95 7.1 4.25 7.35 6.8 7.05 7.75 6.55 7.9 6.55" fill="#22701f" fill-rule="evenodd" stroke="none"/>
      <path d="M8.5 4.25 Q8.5 6.0 7.25 7.25 6.0 8.5 4.25 8.5 2.5 8.5 1.25 7.25 0.0 6.0 0.0 4.25 0.0 2.5 1.25 1.25 2.5 0.0 4.25 0.0 6.0 0.0 7.25 1.25 8.5 2.5 8.5 4.25 Z" ffdec:has-small-stroke="true" ffdec:original-stroke-width="0.5" fill="none" stroke="#22701f" stroke-linecap="round" stroke-linejoin="round" stroke-width="1.0"/>
    </g>
    <g id="sprite6">
      <use ffdec:characterId="13" height="10.1" transform="matrix(1.0, 0.0, 0.0, 1.0, 0.0, 0.0)" width="5.3" xlink:href="#shape4"/>
    </g>
    <g id="shape4">
      <path d="M5.3 9.1 L0.0 10.1 1.75 0.0 5.3 9.1" fill="#000000" fill-rule="evenodd" stroke="none"/>
    </g>
    <g id="shape5">
      <path d="M27.1 44.85 L26.5 45.65 23.35 43.95 15.35 43.95 15.35 26.05 15.3 26.1 14.6 24.75 15.3 23.95 27.1 23.95 27.1 44.85" fill="#c25200" fill-rule="evenodd" stroke="none"/>
    </g>
    <g id="sprite7">
      <use ffdec:characterId="16" height="20.95" transform="matrix(1.0, 0.0, 0.0, 1.0, 0.0, 0.0)" width="11.75" xlink:href="#shape6"/>
    </g>
    <g id="shape6">
      <path d="M0.0 7.4 L0.0 0.0 11.75 0.0 11.75 6.7 Q11.45 5.6 10.1 4.7 8.4 3.55 5.95 3.55 3.45 3.55 1.75 4.7 0.05 5.8 0.0 7.4" fill="#dc9f00" fill-rule="evenodd" stroke="none"/>
      <path d="M11.75 6.7 L11.75 20.95 0.0 20.95 0.0 7.4 Q0.05 5.8 1.75 4.7 3.45 3.55 5.95 3.55 8.4 3.55 10.1 4.7 11.45 5.6 11.75 6.7" fill="#fcd33b" fill-rule="evenodd" stroke="none"/>
      <path d="M1.35 4.9 L1.85 4.9 1.85 19.2 9.9 19.2 9.9 19.15 9.95 19.15 9.95 4.9 10.4 4.9 10.4 19.75 1.35 19.75 1.35 4.9" fill="#db0000" fill-rule="evenodd" stroke="none"/>
      <path d="M1.35 4.9 L1.35 1.65 1.45 1.5 1.6 1.4 10.4 1.4 10.4 4.9 9.95 4.9 9.95 1.9 1.85 1.9 1.85 4.9 1.35 4.9" fill="#750000" fill-rule="evenodd" stroke="none"/>
      <path d="M3.5 7.2 L4.2 7.2 Q5.0 6.1 5.75 7.2 6.65 6.1 7.35 7.2 L8.15 7.2" ffdec:has-small-stroke="true" ffdec:original-stroke-width="0.5" fill="none" stroke="#d30001" stroke-linecap="round" stroke-linejoin="round" stroke-width="1.0"/>
      <path d="M3.55 12.05 L4.25 12.05 Q5.05 10.95 5.8 12.05 6.7 10.95 7.4 12.05 L8.2 12.05" ffdec:has-small-stroke="true" ffdec:original-stroke-width="0.5" fill="none" stroke="#d30001" stroke-linecap="round" stroke-linejoin="round" stroke-width="1.0"/>
      <path d="M3.55 17.1 L4.25 17.1 Q5.05 16.0 5.8 17.1 6.7 16.0 7.4 17.1 L8.2 17.1" ffdec:has-small-stroke="true" ffdec:original-stroke-width="0.5" fill="none" stroke="#d30001" stroke-linecap="round" stroke-linejoin="round" stroke-width="1.0"/>
    </g>
  </defs>
</svg>
