<?xml version="1.0" encoding="UTF-8" standalone="no"?>
<svg xmlns:ffdec="https://www.free-decompiler.com/flash" xmlns:xlink="http://www.w3.org/1999/xlink" ffdec:objectType="frame" height="35.0px" width="62.1px" xmlns="http://www.w3.org/2000/svg">
  <g transform="matrix(1.0, 0.0, 0.0, 1.0, 31.25, 48.0)">
    <use ffdec:characterId="5" height="35.0" transform="matrix(1.0, 0.0, 0.0, 1.0, -31.2, -51.45)" width="62.1" xlink:href="#sprite0"/>
  </g>
  <defs>
    <g id="sprite0">
      <use ffdec:characterId="2" height="35.0" transform="matrix(1.0, 0.0, 0.0, 1.0, 0.0, 0.0)" width="62.1" xlink:href="#sprite1"/>
      <use ffdec:characterId="4" height="12.85" transform="matrix(1.0, 0.1198, 0.0, 1.0, 6.95, 20.45)" width="15.7" xlink:href="#sprite2"/>
    </g>
    <g id="sprite1">
      <use ffdec:characterId="1" height="35.0" transform="matrix(1.0, 0.0, 0.0, 1.0, 0.0, 0.0)" width="62.1" xlink:href="#shape0"/>
    </g>
    <g id="shape0">
      <path d="M52.85 8.85 L52.9 8.85 54.35 9.2 54.65 9.25 Q60.45 10.7 61.7 12.6 L61.8 12.8 62.0 13.6 62.0 13.9 61.8 14.4 61.25 15.15 58.2 16.9 52.85 8.85 M0.2 14.4 L0.0 13.75 0.0 13.6 0.2 12.8 Q0.5 12.15 1.35 11.6 3.2 10.25 7.5 9.2 L9.05 8.85 9.25 8.8 3.8 16.9 Q0.85 15.75 0.2 14.4" fill="#e978d2" fill-rule="evenodd" stroke="none"/>
      <path d="M61.8 14.4 L60.5 19.05 60.05 19.65 59.0 20.45 Q57.35 21.55 53.95 22.5 L53.8 21.9 Q53.0 19.15 49.4 19.15 L48.95 19.15 48.95 19.1 52.9 18.35 54.65 17.95 58.2 16.9 61.25 15.15 61.8 14.4 M59.05 24.1 L57.65 29.0 56.8 29.75 Q55.2 30.9 51.8 31.85 L50.25 32.25 49.05 32.55 Q50.9 30.75 52.2 28.65 L53.05 27.15 Q56.3 26.2 57.95 25.1 L59.05 24.1" fill="#ffa3eb" fill-rule="evenodd" stroke="none"/>
      <path d="M9.25 8.8 L12.55 8.2 Q20.55 6.9 31.0 6.9 34.55 6.9 37.8 7.05 L48.15 8.0 48.95 8.15 49.7 8.25 52.85 8.85 58.2 16.9 54.65 17.95 52.9 18.35 48.95 19.1 48.15 19.2 37.8 20.15 31.0 20.3 Q18.15 20.3 9.05 18.35 L7.5 18.0 3.8 16.9 9.25 8.8" fill="#ed51cd" fill-rule="evenodd" stroke="none"/>
      <path d="M1.5 19.05 L0.2 14.4 Q0.85 15.75 3.8 16.9 L7.5 18.0 9.05 18.35 Q18.15 20.3 31.0 20.3 L37.8 20.15 48.15 19.2 48.95 19.1 48.95 19.15 49.4 19.15 Q53.0 19.15 53.8 21.9 L53.95 22.5 53.6 22.55 51.9 22.95 Q45.85 24.3 38.1 24.75 L31.0 24.9 Q18.75 24.9 10.05 22.95 L8.6 22.6 Q4.75 21.6 3.0 20.45 L1.95 19.65 1.5 19.05" fill="#ffbcf1" fill-rule="evenodd" stroke="none"/>
      <path d="M39.3 38.1 L37.8 38.2 35.45 38.35 31.7 38.4 31.0 38.4 Q20.3 38.4 12.75 36.45 6.4 34.8 5.4 32.55 L5.2 31.9 4.4 29.0 5.2 29.75 Q6.8 30.9 10.35 31.9 L11.7 32.25 Q19.7 34.2 31.0 34.2 L33.1 34.2 Q42.25 34.05 49.05 32.55 47.45 34.05 45.5 35.35 42.2 37.5 39.3 38.0 L39.3 38.1 M2.95 24.0 L1.5 19.05 1.95 19.65 3.0 20.45 Q4.75 21.6 8.6 22.6 L10.05 22.95 Q18.75 24.9 31.0 24.9 L38.1 24.75 Q45.85 24.3 51.9 22.95 L53.6 22.55 53.95 22.5 Q54.25 24.5 53.05 27.15 L52.75 27.2 51.15 27.6 Q44.05 29.25 34.45 29.5 L31.0 29.55 Q19.25 29.55 10.85 27.6 L9.45 27.25 Q5.8 26.25 4.1 25.1 L2.95 24.0" fill="#ffffff" fill-rule="evenodd" stroke="none"/>
      <path d="M60.5 19.05 L59.05 24.1 57.95 25.1 Q56.3 26.2 53.05 27.15 54.25 24.5 53.95 22.5 57.35 21.55 59.0 20.45 L60.05 19.65 60.5 19.05 M57.65 29.0 L56.8 31.9 Q56.55 34.55 49.25 36.45 44.8 37.6 39.3 38.1 L39.3 38.0 Q42.2 37.5 45.5 35.35 47.45 34.05 49.05 32.55 L50.25 32.25 51.8 31.85 Q55.2 30.9 56.8 29.75 L57.65 29.0" fill="#ffdff8" fill-rule="evenodd" stroke="none"/>
      <path d="M4.4 29.0 L2.95 24.0 4.1 25.1 Q5.8 26.25 9.45 27.25 L10.85 27.6 Q19.25 29.55 31.0 29.55 L34.45 29.5 Q44.05 29.25 51.15 27.6 L52.75 27.2 53.05 27.15 52.2 28.65 Q50.9 30.75 49.05 32.55 42.25 34.05 33.1 34.2 L31.0 34.2 Q19.7 34.2 11.7 32.25 L10.35 31.9 Q6.8 30.9 5.2 29.75 L4.4 29.0" fill="#ffcff5" fill-rule="evenodd" stroke="none"/>
      <path d="M7.65 18.05 Q7.95 16.9 8.4 16.0 L10.0 13.2 Q11.1 11.65 12.55 10.3 13.95 9.0 15.7 7.9 L18.2 6.5 Q24.05 3.45 31.1 3.5 37.7 3.45 43.4 6.15 L44.05 6.5 Q45.35 7.15 46.55 7.9 L49.7 10.35 52.2 13.2 53.8 16.0 54.55 18.0" ffdec:has-small-stroke="true" ffdec:original-stroke-width="0.1" fill="none" stroke="#c747df" stroke-linecap="square" stroke-linejoin="round" stroke-width="1.0"/>
      <path d="M0.2 14.4 L0.0 13.75 0.0 13.6 0.2 12.8 Q0.5 12.15 1.35 11.6 3.2 10.25 7.5 9.2 L9.05 8.85 12.55 8.2 Q20.55 6.9 31.0 6.9 34.55 6.9 37.8 7.05 L49.7 8.25 52.9 8.85 54.35 9.2 54.65 9.25 Q60.8 10.8 61.8 12.8 L62.0 13.6 62.0 13.9 61.8 14.4" ffdec:has-small-stroke="true" ffdec:original-stroke-width="0.1" fill="none" stroke="#6c1c62" stroke-linecap="square" stroke-linejoin="round" stroke-width="1.0"/>
      <path d="M61.8 14.4 Q60.8 16.4 54.65 17.95 L52.9 18.35 Q46.35 19.75 37.8 20.15 L31.0 20.3 Q18.15 20.3 9.05 18.35 L7.5 18.0 Q1.2 16.45 0.2 14.4" ffdec:has-small-stroke="true" ffdec:original-stroke-width="0.1" fill="none" stroke="#c747df" stroke-linecap="square" stroke-linejoin="round" stroke-width="1.0"/>
      <path d="M50.9 11.6 L52.2 13.2 53.8 16.0 54.55 18.0 52.9 18.35 Q46.35 19.75 37.8 20.15 L35.35 20.25 33.55 20.3 Q51.75 19.55 50.9 11.6 M28.35 20.3 L19.1 19.85 9.05 18.35 7.65 18.05 Q7.95 16.9 8.4 16.0 L10.0 13.2 11.45 11.45 Q11.5 17.75 21.75 19.6 L28.35 20.3" fill="#fc88e5" fill-rule="evenodd" stroke="none"/>
      <path d="M11.45 11.45 L12.55 10.3 Q13.95 9.0 15.7 7.9 L18.2 6.5 Q24.05 3.45 31.1 3.5 37.7 3.45 43.4 6.15 L44.05 6.5 Q45.35 7.15 46.55 7.9 L49.7 10.35 50.9 11.6 Q51.75 19.55 33.55 20.3 L31.0 20.3 28.35 20.3 21.75 19.6 Q11.5 17.75 11.45 11.45" fill="#ffffff" fill-rule="evenodd" stroke="none"/>
      <path d="M31.95 20.1 L30.15 20.1 30.15 3.8 31.95 3.8 31.95 20.1" fill="#ffc6f4" fill-rule="evenodd" stroke="none"/>
      <path d="M5.2 31.9 L0.2 14.4 M61.8 14.4 L56.8 31.9" ffdec:has-small-stroke="true" ffdec:original-stroke-width="0.1" fill="none" stroke="#6c1c62" stroke-linecap="square" stroke-linejoin="round" stroke-width="1.0"/>
      <path d="M56.8 31.9 Q56.55 34.55 49.25 36.45 44.2 37.75 37.8 38.2 L31.7 38.4 31.0 38.4 Q20.3 38.4 12.75 36.45 6.4 34.8 5.4 32.55 L5.2 31.9" ffdec:has-small-stroke="true" ffdec:original-stroke-width="0.1" fill="none" stroke="#9f3391" stroke-linecap="square" stroke-linejoin="round" stroke-width="1.0"/>
    </g>
    <g id="sprite2">
      <use ffdec:characterId="3" height="12.85" transform="matrix(1.0, 0.0, 0.0, 1.0, 0.0, 0.0)" width="15.7" xlink:href="#shape1"/>
    </g>
    <g id="shape1">
      <path d="M5.1 0.95 Q5.9 1.35 6.55 2.25 7.8 3.95 8.05 5.55 L8.15 6.2 8.3 5.6 Q8.75 3.95 10.05 2.25 11.35 0.55 13.1 0.5 14.8 0.5 15.65 2.25 16.3 3.65 16.05 5.45 15.5 9.6 11.25 12.2 L8.4 13.25 Q5.2 12.65 3.1 10.4 L5.1 0.95" fill="#ff85e6" fill-rule="evenodd" stroke="none"/>
      <path d="M5.1 0.95 L3.1 10.4 1.4 7.9 1.4 7.85 Q0.9 7.05 0.7 6.05 0.2 3.85 1.0 2.25 1.8 0.5 3.5 0.5 4.35 0.5 5.1 0.95" fill="#ffddf7" fill-rule="evenodd" stroke="none"/>
      <path d="M16.05 5.45 Q16.3 3.65 15.65 2.25 14.8 0.5 13.1 0.5 11.35 0.55 10.05 2.25 8.75 3.95 8.3 5.6 L8.15 6.2 8.05 5.55 Q7.8 3.95 6.55 2.25 5.9 1.35 5.1 0.95 4.35 0.5 3.5 0.5 1.8 0.5 1.0 2.25 0.2 3.85 0.7 6.05 0.9 7.05 1.4 7.85 L1.4 7.9 3.1 10.4 Q5.2 12.65 8.4 13.25 L11.25 12.2 Q15.5 9.6 16.05 5.45 Z" ffdec:has-small-stroke="true" ffdec:original-stroke-width="0.1" fill="none" stroke="#ea20ce" stroke-linecap="square" stroke-linejoin="round" stroke-width="1.0"/>
    </g>
  </defs>
</svg>
