<?xml version="1.0" encoding="UTF-8" standalone="no"?>
<svg xmlns:ffdec="https://www.free-decompiler.com/flash" xmlns:xlink="http://www.w3.org/1999/xlink" ffdec:objectType="frame" height="27.2px" width="51.75px" xmlns="http://www.w3.org/2000/svg">
  <g transform="matrix(1.0, 0.0, 0.0, 1.0, 28.35, 28.05)">
    <use ffdec:characterId="5" height="27.2" transform="matrix(1.0, 0.0, 0.0, 1.0, -28.25, -27.95)" width="33.8" xlink:href="#sprite0"/>
    <use ffdec:characterId="7" height="11.5" transform="matrix(0.9128, -0.078, 0.0757, 0.9373, -0.7, -13.9)" width="25.5" xlink:href="#sprite3"/>
  </g>
  <defs>
    <g id="sprite0">
      <use ffdec:characterId="1" height="27.2" transform="matrix(1.0, 0.0, 0.0, 1.0, 0.0, 0.0)" width="33.8" xlink:href="#shape0"/>
      <use ffdec:characterId="3" height="2.7" transform="matrix(1.0, 0.0, 0.0, 1.0, 7.05, 7.5)" width="2.7" xlink:href="#sprite1"/>
      <use ffdec:characterId="3" height="2.7" transform="matrix(1.0, 0.0, 0.0, 1.0, 14.6, 10.55)" width="2.7" xlink:href="#sprite2"/>
      <use ffdec:characterId="4" height="8.05" transform="matrix(1.0, 0.0, 0.0, 1.0, 0.0, 0.0)" width="7.6" xlink:href="#shape3"/>
    </g>
    <g id="shape0">
      <path d="M2.9 15.85 L2.85 14.9 Q1.35 14.2 1.1 12.5 0.75 10.25 3.0 7.4 5.2 4.6 8.55 2.95 12.05 1.2 14.7 1.6 16.4 1.9 17.1 2.9 L17.1 2.85 17.2 2.95 17.2 3.0 17.55 3.75 Q22.05 3.9 25.8 6.3 L26.25 6.65 26.6 6.6 26.7 6.6 27.05 6.55 27.5 6.55 Q30.15 6.55 31.9 9.7 L32.3 10.45 32.85 11.55 32.8 11.55 32.85 11.7 32.9 11.7 Q33.75 14.1 33.7 17.1 L33.7 17.2 Q33.7 20.35 32.8 22.7 L32.0 24.3 Q30.05 27.25 27.45 27.1 25.75 27.05 24.45 25.75 L24.4 25.75 23.6 24.75 21.05 25.65 17.95 26.05 Q12.25 26.45 7.95 23.5 5.55 21.9 4.3 19.9 L4.3 19.85 3.35 17.85 Q3.0 16.9 2.9 15.85" fill="#400000" fill-opacity="0.29803923" fill-rule="evenodd" stroke="none"/>
      <path d="M8.6 16.35 L7.0 14.7 6.55 13.75 6.55 13.4 7.0 13.35 7.15 13.65 7.35 13.85 7.55 14.2 8.05 14.85 Q8.75 15.55 9.6 15.9 L9.85 15.95 12.0 16.3 12.2 16.3 12.45 16.2 Q12.85 16.1 13.0 16.4 13.25 16.65 13.05 17.0 12.8 17.35 12.45 17.2 L12.2 17.1 11.85 17.05 10.05 16.9 9.4 16.75 8.6 16.35" fill="#000000" fill-rule="evenodd" stroke="none"/>
      <path d="M14.5 7.75 Q12.35 10.55 8.95 12.2 5.65 13.9 3.0 13.45 0.4 13.1 0.05 10.8 -0.25 8.6 1.95 5.8 4.15 3.05 7.45 1.4 10.9 -0.3 13.5 0.05 16.15 0.5 16.35 2.7 16.65 5.0 14.5 7.75" fill="url(#gradient0)" fill-rule="evenodd" stroke="none"/>
      <path d="M14.5 7.8 Q12.35 10.55 9.0 12.2 5.65 13.9 3.1 13.45 1.2 13.2 0.55 12.05 2.55 12.2 5.05 10.95 7.8 9.55 9.65 7.25 11.45 4.95 11.15 3.1 10.95 1.2 8.8 0.85 L8.7 0.9 Q11.35 -0.2 13.5 0.1 16.15 0.55 16.45 2.75 16.65 5.0 14.5 7.8" fill="url(#gradient1)" fill-rule="evenodd" stroke="none"/>
      <path d="M14.5 7.75 Q12.35 10.55 8.95 12.2 5.65 13.9 3.0 13.45 0.4 13.1 0.05 10.8 -0.25 8.6 1.95 5.8 4.15 3.05 7.45 1.4 10.9 -0.3 13.5 0.05 16.15 0.5 16.35 2.7 16.65 5.0 14.5 7.75 Z" ffdec:has-small-stroke="true" ffdec:original-stroke-width="0.25" fill="none" stroke="#bd4c00" stroke-linecap="square" stroke-linejoin="round" stroke-width="1.0"/>
      <path d="M16.85 24.3 Q22.5 23.95 26.2 20.4 29.9 16.9 29.35 12.35 28.85 7.8 24.55 4.85 20.15 1.9 14.45 2.2 8.75 2.6 5.05 6.1 1.4 9.65 1.9 14.2 2.4 18.8 6.8 21.8 11.15 24.75 16.85 24.3" fill="url(#gradient2)" fill-rule="evenodd" stroke="none"/>
      <path d="M16.8 24.25 Q22.5 23.95 26.15 20.4 29.85 16.85 29.4 12.35 28.85 7.8 24.55 4.75 20.1 1.85 14.45 2.2 L12.25 2.5 12.95 2.4 Q17.9 2.1 21.65 4.6 25.4 7.2 25.8 11.2 26.35 15.1 23.05 18.1 19.9 21.15 14.95 21.5 10.1 21.85 6.3 19.35 2.55 16.75 2.1 12.75 L2.1 10.85 Q1.7 12.4 1.85 14.15 2.4 18.75 6.85 21.75 11.15 24.65 16.8 24.25" fill="url(#gradient3)" fill-rule="evenodd" stroke="none"/>
      <path d="M16.8 24.25 Q22.5 23.95 26.15 20.4 29.85 16.85 29.4 12.35 28.85 7.8 24.55 4.75 20.1 1.85 14.45 2.2 8.8 2.55 5.05 6.1 1.35 9.6 1.85 14.15 2.4 18.75 6.85 21.75 11.15 24.65 16.8 24.25 Z" ffdec:has-small-stroke="true" ffdec:original-stroke-width="0.25" fill="none" stroke="#bd4c00" stroke-linecap="square" stroke-linejoin="round" stroke-width="1.0"/>
      <path d="M32.4 15.45 Q32.45 19.7 30.75 22.55 28.85 25.45 26.3 25.3 23.75 25.15 22.0 22.05 20.2 18.95 20.15 14.75 20.2 10.55 22.0 7.65 23.85 4.8 26.35 5.0 28.95 5.05 30.65 8.1 32.45 11.2 32.4 15.45" fill="url(#gradient4)" fill-rule="evenodd" stroke="none"/>
      <path d="M32.4 15.55 Q32.45 19.75 30.7 22.7 28.9 25.55 26.3 25.4 23.75 25.25 22.05 22.2 20.2 19.1 20.2 14.85 20.2 10.6 22.05 7.75 23.8 4.95 26.35 5.05 24.25 5.05 22.65 7.5 21.0 10.05 20.7 13.8 20.4 17.6 21.75 20.35 23.0 23.05 25.1 23.15 27.25 23.25 28.95 20.7 30.55 18.1 30.8 14.35 31.05 10.6 29.85 7.9 28.6 5.4 26.65 5.1 29.05 5.4 30.7 8.25 32.5 11.3 32.4 15.55" fill="url(#gradient5)" fill-rule="evenodd" stroke="none"/>
      <path d="M25.0 5.15 L26.35 5.0 Q28.95 5.05 30.65 8.1 32.45 11.2 32.4 15.45 32.45 19.7 30.75 22.55 28.85 25.45 26.3 25.3 24.1 25.2 22.6 22.95" ffdec:has-small-stroke="true" ffdec:original-stroke-width="0.25" fill="none" stroke="#bd4c00" stroke-linecap="square" stroke-linejoin="round" stroke-width="1.0"/>
      <path d="M30.8 17.25 Q30.9 16.75 31.4 16.85 31.9 17.05 31.75 17.5 L31.75 17.65 31.6 18.05 31.45 18.75 30.4 21.5 30.3 21.6 30.3 21.7 30.25 21.7 30.25 21.8 30.05 22.05 29.9 22.35 29.6 22.75 29.5 22.85 28.55 23.85 27.3 24.55 25.95 24.65 25.75 24.65 25.7 24.6 25.6 24.6 25.3 24.5 24.75 24.25 24.6 24.15 24.5 24.1 24.05 23.7 23.85 23.55 23.2 22.65 23.1 22.45 23.05 22.4 23.05 22.3 22.95 22.2 22.75 21.6 Q22.65 21.5 22.8 21.5 22.9 21.4 22.9 21.55 L23.0 21.7 23.15 22.1 23.3 22.25 23.35 22.35 23.55 22.65 24.1 23.3 Q24.5 23.7 24.9 23.9 L25.55 24.15 25.7 24.15 25.75 24.2 26.0 24.2 27.1 24.05 28.15 23.4 28.95 22.45 29.05 22.35 29.1 22.2 29.3 21.95 29.6 21.4 29.6 21.35 29.65 21.3 30.0 20.35 30.3 19.35 30.7 17.85 30.75 17.45 30.8 17.25" fill="#ffffff" fill-rule="evenodd" stroke="none"/>
      <path d="M20.1 21.5 Q20.55 21.3 20.75 21.8 20.95 22.25 20.45 22.45 L19.1 22.95 19.05 23.0 17.2 23.25 14.6 23.3 14.4 23.25 13.9 23.25 12.55 23.05 11.65 22.85 10.75 22.6 10.5 22.5 10.3 22.45 10.1 22.35 10.0 22.35 9.85 22.3 9.45 22.1 9.0 21.95 7.75 21.35 6.95 20.9 6.75 20.75 6.65 20.7 6.6 20.7 6.55 20.65 5.05 19.6 5.05 19.45 5.2 19.45 6.75 20.4 6.8 20.45 8.75 21.4 10.0 21.85 10.15 21.85 10.25 21.9 10.45 21.95 10.65 22.05 11.3 22.2 13.55 22.55 14.4 22.55 14.85 22.55 15.3 22.55 16.2 22.5 17.1 22.4 18.8 22.05 18.75 22.1 20.1 21.5" fill="#ffffff" fill-rule="evenodd" stroke="none"/>
      <path d="M32.1 15.4 L31.9 15.95 31.35 16.15 30.8 15.95 30.6 15.4 30.8 14.9 Q31.0 14.65 31.35 14.65 31.65 14.65 31.9 14.9 L32.1 15.4" fill="#ffffff" fill-rule="evenodd" stroke="none"/>
    </g>
    <radialGradient cx="0" cy="0" gradientTransform="matrix(-0.0085, -0.0014, 0.0078, -0.0097, 5.5, 5.65)" gradientUnits="userSpaceOnUse" id="gradient0" r="819.2" spreadMethod="pad">
      <stop offset="0.0" stop-color="#ffffff"/>
      <stop offset="0.8313725490196079" stop-color="#ffd400"/>
    </radialGradient>
    <radialGradient cx="0" cy="0" gradientTransform="matrix(0.0092, 0.0015, -0.007, 0.0088, 8.25, 6.75)" gradientUnits="userSpaceOnUse" id="gradient1" r="819.2" spreadMethod="pad">
      <stop offset="0.0" stop-color="#fff9db"/>
      <stop offset="0.39215686274509803" stop-color="#ffd400"/>
      <stop offset="1.0" stop-color="#ff9800"/>
    </radialGradient>
    <radialGradient cx="0" cy="0" gradientTransform="matrix(0.0019, 0.0106, 0.0171, -0.0017, 17.25, 13.6)" gradientUnits="userSpaceOnUse" id="gradient2" r="819.2" spreadMethod="pad">
      <stop offset="0.0" stop-color="#ffffff"/>
      <stop offset="1.0" stop-color="#ffde4d"/>
    </radialGradient>
    <radialGradient cx="0" cy="0" gradientTransform="matrix(-0.0111, 0.0175, 0.0154, 0.0102, 18.9, 12.6)" gradientUnits="userSpaceOnUse" id="gradient3" r="819.2" spreadMethod="pad">
      <stop offset="0.0" stop-color="#fffdf0"/>
      <stop offset="0.47843137254901963" stop-color="#ffe600"/>
      <stop offset="0.7725490196078432" stop-color="#ff9200"/>
    </radialGradient>
    <radialGradient cx="0" cy="0" gradientTransform="matrix(0.0073, 6.0E-4, -7.0E-4, 0.0126, 24.45, 12.1)" gradientUnits="userSpaceOnUse" id="gradient4" r="819.2" spreadMethod="pad">
      <stop offset="0.0" stop-color="#ffed47"/>
      <stop offset="0.9921568627450981" stop-color="#ff9400"/>
    </radialGradient>
    <radialGradient cx="0" cy="0" gradientTransform="matrix(0.0173, 0.0015, -7.0E-4, 0.0126, 26.3, 15.2)" gradientUnits="userSpaceOnUse" id="gradient5" r="819.2" spreadMethod="pad">
      <stop offset="0.0" stop-color="#ff5000"/>
      <stop offset="1.0" stop-color="#ffdb00"/>
    </radialGradient>
    <g id="sprite1">
      <use ffdec:characterId="2" height="2.7" transform="matrix(1.0, 0.0, 0.0, 1.0, 0.0, 0.0)" width="2.7" xlink:href="#shape1"/>
    </g>
    <g id="shape1">
      <path d="M2.85 1.5 Q2.85 2.05 2.45 2.45 2.05 2.85 1.5 2.85 0.95 2.85 0.55 2.45 0.15 2.05 0.15 1.5 0.15 0.95 0.55 0.55 0.95 0.15 1.5 0.15 2.05 0.15 2.45 0.55 2.85 0.95 2.85 1.5" fill="#7c0000" fill-rule="evenodd" stroke="none"/>
      <path d="M2.7 1.5 L2.35 2.35 1.5 2.65 0.7 2.35 Q0.3 1.95 0.3 1.5 0.3 1.0 0.7 0.65 1.0 0.3 1.5 0.3 1.95 0.3 2.35 0.65 2.7 1.0 2.7 1.5" fill="url(#gradient6)" fill-rule="evenodd" stroke="none"/>
      <path d="M1.55 1.15 L1.45 1.3 1.25 1.4 1.05 1.3 1.0 1.15 1.05 0.95 1.25 0.85 1.45 0.95 1.55 1.15" fill="#ffffff" fill-rule="evenodd" stroke="none"/>
      <path d="M1.55 1.15 L1.45 1.3 1.25 1.4 1.05 1.3 1.0 1.15 1.05 0.95 1.25 0.85 1.45 0.95 1.55 1.15 Z" ffdec:has-small-stroke="true" ffdec:original-stroke-width="0.7" fill="none" stroke="#ffffff" stroke-linecap="round" stroke-linejoin="round" stroke-width="1.0"/>
    </g>
    <radialGradient cx="0" cy="0" gradientTransform="matrix(0.0019, 0.0, 0.0, 0.0019, 1.35, 1.1)" gradientUnits="userSpaceOnUse" id="gradient6" r="819.2" spreadMethod="pad">
      <stop offset="0.0" stop-color="#ffffff"/>
      <stop offset="0.5372549019607843" stop-color="#ffe600"/>
      <stop offset="0.7529411764705882" stop-color="#ff7800"/>
      <stop offset="0.984313725490196" stop-color="#870000"/>
    </radialGradient>
    <g id="sprite2">
      <use ffdec:characterId="2" height="2.7" transform="matrix(1.0, 0.0, 0.0, 1.0, 0.0, 0.0)" width="2.7" xlink:href="#shape2"/>
    </g>
    <g id="shape2">
      <path d="M2.85 1.5 Q2.85 2.05 2.45 2.45 2.05 2.85 1.5 2.85 0.95 2.85 0.55 2.45 0.15 2.05 0.15 1.5 0.15 0.95 0.55 0.55 0.95 0.15 1.5 0.15 2.05 0.15 2.45 0.55 2.85 0.95 2.85 1.5" fill="#7c0000" fill-rule="evenodd" stroke="none"/>
      <path d="M2.7 1.5 L2.35 2.35 1.5 2.65 0.7 2.35 Q0.3 1.95 0.3 1.5 0.3 1.0 0.7 0.65 1.0 0.3 1.5 0.3 1.95 0.3 2.35 0.65 2.7 1.0 2.7 1.5" fill="url(#gradient7)" fill-rule="evenodd" stroke="none"/>
      <path d="M1.55 1.15 L1.45 1.3 1.25 1.4 1.05 1.3 1.0 1.15 1.05 0.95 1.25 0.85 1.45 0.95 1.55 1.15" fill="#ffffff" fill-rule="evenodd" stroke="none"/>
      <path d="M1.55 1.15 L1.45 1.3 1.25 1.4 1.05 1.3 1.0 1.15 1.05 0.95 1.25 0.85 1.45 0.95 1.55 1.15 Z" ffdec:has-small-stroke="true" ffdec:original-stroke-width="0.7" fill="none" stroke="#ffffff" stroke-linecap="round" stroke-linejoin="round" stroke-width="1.0"/>
    </g>
    <radialGradient cx="0" cy="0" gradientTransform="matrix(0.0019, 0.0, 0.0, 0.0019, 1.35, 1.1)" gradientUnits="userSpaceOnUse" id="gradient7" r="819.2" spreadMethod="pad">
      <stop offset="0.0" stop-color="#ffffff"/>
      <stop offset="0.5372549019607843" stop-color="#ffe600"/>
      <stop offset="0.7529411764705882" stop-color="#ff7800"/>
      <stop offset="0.984313725490196" stop-color="#870000"/>
    </radialGradient>
    <g id="shape3">
      <path d="M7.25 19.4 Q6.5 19.0 6.5 17.6 6.45 16.35 7.1 14.8 L7.2 14.55 8.55 14.65 Q9.8 14.85 10.65 16.55 L10.6 16.55 Q9.9 17.95 8.7 19.05 7.85 19.7 7.25 19.4" fill="url(#gradient8)" fill-rule="evenodd" stroke="none"/>
      <path d="M13.15 14.6 Q13.1 15.25 12.65 15.75 12.1 16.25 11.35 16.25 10.6 16.25 10.1 15.75 9.55 15.2 9.55 14.45 9.55 13.7 10.1 13.2 L10.35 13.0 M9.7 13.0 L9.7 13.25 9.25 14.4 Q8.8 14.85 8.1 14.85 7.45 14.85 7.05 14.4 6.55 13.9 6.55 13.25 6.55 12.6 7.05 12.2" fill="none" stroke="url(#gradient9)" stroke-linecap="round" stroke-linejoin="round" stroke-width="1.0"/>
      <path d="M10.05 11.6 L11.55 12.3 Q12.4 12.7 11.75 13.25 L11.05 13.85 Q10.7 14.1 10.25 13.85 L9.4 13.45 Q8.9 13.2 8.95 12.85 L9.05 11.95 Q9.2 11.15 10.05 11.6" fill="url(#gradient10)" fill-rule="evenodd" stroke="none"/>
    </g>
    <radialGradient cx="0" cy="0" gradientTransform="matrix(0.0021, 0.0012, -0.0018, 0.0032, 8.45, 17.45)" gradientUnits="userSpaceOnUse" id="gradient8" r="819.2" spreadMethod="pad">
      <stop offset="0.0" stop-color="#ffe600"/>
      <stop offset="0.5607843137254902" stop-color="#ff7800"/>
      <stop offset="1.0" stop-color="#990072"/>
    </radialGradient>
    <linearGradient gradientTransform="matrix(0.0046, 0.0, 0.0, 0.0031, 9.85, 14.2)" gradientUnits="userSpaceOnUse" id="gradient9" spreadMethod="pad" x1="-819.2" x2="819.2">
      <stop offset="0.0" stop-color="#891a00"/>
      <stop offset="0.20392156862745098" stop-color="#cb2700"/>
      <stop offset="0.5372549019607843" stop-color="#ff8300"/>
    </linearGradient>
    <radialGradient cx="0" cy="0" fx="-448.0" fy="0" gradientTransform="matrix(-8.0E-4, 0.0014, -0.0014, -7.0E-4, 10.15, 12.65)" gradientUnits="userSpaceOnUse" id="gradient10" r="819.2" spreadMethod="pad">
      <stop offset="0.0" stop-color="#ffffff"/>
      <stop offset="0.5372549019607843" stop-color="#ffe600"/>
      <stop offset="0.7529411764705882" stop-color="#ff7800"/>
      <stop offset="0.984313725490196" stop-color="#870000"/>
    </radialGradient>
    <g id="sprite3">
      <use ffdec:characterId="6" height="11.5" transform="matrix(1.0, 0.0, 0.0, 1.0, 0.0, 0.0)" width="25.5" xlink:href="#shape4"/>
    </g>
    <g id="shape4">
      <path d="M0.55 2.7 Q0.05 2.3 0.0 1.65 -0.1 1.05 0.3 0.55 0.75 0.1 1.35 0.0 2.0 -0.05 2.5 0.35 3.0 0.75 3.0 1.35 3.1 2.0 2.7 2.5 2.25 2.95 1.65 3.0 1.05 3.1 0.55 2.7" fill="#990000" fill-rule="evenodd" stroke="none"/>
      <path d="M1.9 2.4 L1.9 2.45 1.85 2.4 Q1.45 2.4 1.15 2.1 0.85 1.8 0.9 1.4 0.9 1.0 1.2 0.7 1.55 0.4 1.95 0.45 L3.35 0.5 3.45 0.55 3.85 0.55 5.05 0.7 5.45 0.8 6.65 0.95 11.7 2.25 12.8 2.65 16.8 4.5 20.15 6.6 25.45 11.3 25.45 11.45 25.3 11.45 21.7 8.45 18.45 6.4 12.75 3.95 10.2 3.25 9.8 3.2 9.45 3.1 9.05 3.05 8.7 2.95 5.65 2.55 5.25 2.55 4.9 2.5 4.5 2.5 4.15 2.45 3.75 2.45 3.35 2.4 3.35 2.45 2.95 2.45 2.45 2.4 1.9 2.4" fill="#ff0000" fill-rule="evenodd" stroke="none"/>
    </g>
  </defs>
</svg>
