<?xml version="1.0" encoding="UTF-8" standalone="no"?>
<svg xmlns:ffdec="https://www.free-decompiler.com/flash" xmlns:xlink="http://www.w3.org/1999/xlink" ffdec:objectType="frame" height="46.7px" width="97.3px" xmlns="http://www.w3.org/2000/svg">
  <g transform="matrix(1.0, 0.0, 0.0, 1.0, 47.15, 55.85)">
    <use ffdec:characterId="9" height="35.35" transform="matrix(1.0, 0.0, 0.0, 1.0, -36.75, -55.85)" width="74.9" xlink:href="#sprite0"/>
    <use ffdec:characterId="4" height="17.4" transform="matrix(0.8965, 0.0, 0.0, 0.8965, -47.15, -45.6)" width="14.6" xlink:href="#sprite1"/>
    <use ffdec:characterId="4" height="17.4" transform="matrix(-0.4483, -0.7764, -0.7764, 0.4483, 50.15, -33.35)" width="14.6" xlink:href="#sprite1"/>
    <use ffdec:characterId="6" height="19.2" transform="matrix(1.0, 0.0, 0.0, 1.0, -22.75, -28.35)" width="46.05" xlink:href="#sprite2"/>
  </g>
  <defs>
    <g id="sprite0">
      <use ffdec:characterId="8" height="35.35" transform="matrix(1.0, 0.0, 0.0, 1.0, 0.0, 0.0)" width="74.9" xlink:href="#shape0"/>
    </g>
    <g id="shape0">
      <path d="M65.1 4.45 L65.2 4.55 68.6 7.6 68.65 7.65 68.65 7.7 70.55 9.7 70.65 9.8 Q70.5 10.95 70.9 11.95 71.25 13.0 70.8 14.9 70.3 16.75 65.95 17.5 L59.3 17.2 62.2 19.25 Q64.6 20.7 65.55 21.0 L67.7 21.85 65.95 22.3 64.2 22.5 61.75 22.5 60.95 22.5 Q60.1 22.55 59.65 23.2 L58.65 24.85 Q58.25 25.6 58.25 26.35 L58.25 26.6 58.35 28.6 Q58.55 30.3 58.0 31.65 L57.35 32.7 55.65 34.75 54.65 34.55 53.45 35.35 22.4 35.35 19.8 34.65 18.3 32.1 Q17.8 31.0 17.65 29.9 L17.05 26.1 16.85 25.3 Q17.2 24.55 17.7 23.95 L18.3 22.8 22.95 17.55 Q23.55 16.95 24.45 16.5 L24.9 16.15 Q22.85 15.55 22.25 14.05 21.65 12.55 21.4 13.75 21.15 14.9 19.6 16.15 14.8 18.35 9.8 17.6 4.75 16.8 4.25 16.0 3.75 15.2 3.7 13.85 3.6 12.5 6.25 7.55 L8.15 5.85 8.5 5.9 9.75 5.15 10.7 4.3 11.9 3.45 12.8 3.3 13.85 3.0 Q15.7 1.9 17.1 1.35 L18.55 0.9 21.55 0.25 23.15 0.25 23.6 1.1 Q26.9 1.1 29.85 2.45 31.8 3.35 33.55 4.4 32.6 4.75 31.8 5.4 L32.0 5.8 Q36.55 4.5 43.95 6.4 L42.55 5.0 41.65 4.45 41.95 4.25 45.65 2.15 46.05 1.95 Q48.5 0.85 52.25 1.15 L53.05 1.2 Q56.7 1.6 60.25 3.15 L63.55 4.9 64.85 4.5 65.1 4.45" fill="#bd2929" fill-rule="evenodd" stroke="none"/>
      <path d="M65.1 4.45 L64.85 4.5 63.55 4.9 60.25 3.15 Q56.7 1.6 53.05 1.2 L52.25 1.15 Q48.5 0.85 46.05 1.95 L45.65 2.15 41.95 4.25 41.65 4.45 42.55 5.0 43.95 6.4 Q36.55 4.5 32.0 5.8 L31.8 5.4 Q32.6 4.75 33.55 4.4 31.8 3.35 29.85 2.45 26.9 1.1 23.6 1.1 L23.15 0.25 24.45 0.25 29.2 1.2 29.7 1.7 31.8 2.65 32.15 2.85 32.6 3.25 33.45 4.0 Q33.95 4.45 34.4 4.7 L39.35 4.7 41.75 3.6 43.8 2.35 Q44.4 1.85 45.6 1.4 47.9 0.55 51.5 0.55 L58.55 1.15 59.4 1.45 Q62.45 2.55 65.1 4.45" fill="#2f2424" fill-rule="evenodd" stroke="none"/>
      <path d="M6.25 7.55 Q3.6 12.5 3.7 13.85 3.75 15.2 4.25 16.0 4.75 16.8 9.8 17.6 14.8 18.35 19.6 16.15 L19.5 16.25 16.0 19.0 Q14.15 20.4 12.4 20.8 L8.95 21.75 8.55 21.65 7.85 21.5 3.85 20.85 3.75 20.85 1.15 19.6 0.95 19.4 0.15 18.6 0.05 18.55 Q1.35 13.5 4.45 9.6 L6.25 7.55 M67.7 21.85 L65.55 21.0 Q64.6 20.7 62.2 19.25 L59.3 17.2 65.95 17.5 Q70.3 16.75 70.8 14.9 71.25 13.0 70.9 11.95 70.5 10.95 70.65 9.8 L72.2 11.95 Q73.75 14.4 74.6 17.25 L74.9 18.75 74.05 19.4 73.65 19.55 73.15 19.8 71.7 20.35 70.45 20.8 68.55 21.55 67.7 21.85" fill="#8a1c1c" fill-rule="evenodd" stroke="none"/>
      <path d="M19.6 16.15 Q21.15 14.9 21.4 13.75 21.65 12.55 22.25 14.05 22.85 15.55 24.9 16.15 L24.45 16.5 Q23.55 16.95 22.95 17.55 L18.3 22.8 17.7 23.95 Q17.2 24.55 16.85 25.3 16.4 23.85 15.35 23.15 L15.15 23.0 Q13.9 22.2 12.35 22.25 L8.95 21.75 12.4 20.8 Q14.15 20.4 16.0 19.0 L19.5 16.25 19.6 16.15" fill="#681919" fill-rule="evenodd" stroke="none"/>
      <path d="M57.7 0.95 Q62.8 1.9 67.05 5.8 71.3 9.7 72.65 11.95 74.0 14.2 74.7 17.25 L74.9 18.75 Q74.95 20.55 72.1 21.5 69.25 22.4 64.65 23.0 L61.4 23.05 60.4 23.15 60.0 23.8 59.5 24.5 58.95 25.2 58.35 25.6 58.2 25.8 Q58.55 28.05 58.2 30.55 57.9 32.9 56.4 34.2 L55.65 34.75 55.1 34.75 Q54.8 34.55 54.5 34.5 L54.3 34.35 53.95 34.1 Q54.9 33.6 56.0 31.35 57.1 29.05 56.6 26.5 56.1 23.85 53.0 16.45 L53.9 17.05 Q55.75 19.25 57.75 24.3 L59.45 21.8 Q62.65 22.15 65.65 21.2 69.15 20.15 72.7 19.4 L73.85 18.7 Q74.0 16.85 73.05 15.15 71.15 11.8 68.55 9.05 64.95 5.15 60.25 3.15 56.7 1.6 52.65 1.2 48.6 0.8 44.7 2.7 41.95 4.05 40.7 5.15 L40.05 4.95 39.6 4.85 40.15 4.25 Q42.15 2.15 44.8 1.3 47.45 0.45 50.0 0.2 52.55 -0.05 57.7 0.95" fill="#271313" fill-rule="evenodd" stroke="none"/>
      <path d="M21.85 1.2 Q18.2 1.6 14.65 3.15 9.95 5.15 6.35 9.05 3.75 11.8 1.85 15.15 0.9 16.85 1.05 18.7 1.55 19.15 2.2 19.4 L9.25 21.2 Q12.25 22.15 15.45 21.8 L17.15 24.3 Q20.05 18.25 24.0 16.35 20.9 20.5 18.55 25.05 L18.5 25.3 Q17.2 28.45 18.6 31.4 19.4 33.0 20.95 34.1 L20.6 34.35 20.4 34.5 Q20.1 34.55 19.8 34.75 L19.25 34.75 18.5 34.2 Q17.0 32.9 16.7 30.55 16.35 28.05 16.7 25.8 L16.55 25.6 15.95 25.2 15.4 24.5 14.9 23.8 14.5 23.15 13.5 23.05 10.25 23.0 Q5.6 22.4 3.1 21.4 0.65 20.35 0.0 18.75 L0.2 17.25 Q0.9 14.25 2.35 11.95 3.8 9.6 7.85 6.05 11.9 2.45 16.95 1.1 22.05 -0.35 25.6 0.1 29.2 0.55 32.3 2.7 33.7 3.65 34.45 4.55 L32.85 4.9 Q31.6 3.25 29.85 2.45 26.15 0.75 21.85 1.2" fill="#271313" fill-rule="evenodd" stroke="none"/>
      <path d="M43.95 6.4 Q36.55 4.5 32.0 5.8 L31.8 5.4 Q33.95 3.65 37.2 3.85 40.3 3.4 42.55 5.0 L43.95 6.4" fill="#271313" fill-rule="evenodd" stroke="none"/>
      <path d="M25.85 1.9 L27.0 2.5 Q29.4 4.35 30.65 7.15 33.35 6.65 35.55 7.6 37.65 8.5 37.6 8.8 38.65 6.95 42.75 6.1 L44.9 6.3 Q45.65 2.95 48.95 2.45 51.3 1.35 53.75 2.55 56.15 3.8 57.3 7.05 58.4 10.25 61.55 10.95 54.0 13.3 50.8 11.4 52.8 15.05 52.9 19.1 52.95 20.25 52.25 21.05 L51.45 21.75 Q48.6 23.25 45.5 22.0 44.25 21.6 42.95 21.5 39.4 21.4 36.55 19.5 L35.4 19.65 Q31.5 20.15 26.35 17.9 L25.85 16.75 Q27.15 14.6 26.5 12.15 26.25 11.1 25.35 10.6 20.05 12.8 16.35 11.1 17.4 5.3 22.35 2.35 24.0 1.45 25.85 1.9 M45.15 16.8 Q44.6 16.25 43.4 17.25 42.15 18.25 40.7 18.7 L37.85 19.3 44.1 18.9 44.95 18.65 45.25 18.05 Q45.7 17.3 45.15 16.8" fill="#ee4141" fill-rule="evenodd" stroke="none"/>
      <path d="M24.1 20.35 Q24.1 13.0 35.3 18.6 L25.85 22.1 Q24.5 22.1 24.15 21.25 24.0 20.85 24.1 20.35" fill="#ee4141" fill-rule="evenodd" stroke="none"/>
      <path d="M8.85 9.1 Q11.0 7.0 16.05 4.0 21.1 1.0 25.05 1.95 L19.95 9.9 21.35 9.75 24.65 9.75 Q20.5 14.25 12.6 15.15 4.6 16.0 5.7 13.6 6.7 11.2 8.85 9.1" fill="#ee4141" fill-rule="evenodd" stroke="none"/>
      <path d="M50.7 2.05 L53.35 1.95 Q56.0 2.25 58.95 3.15 61.85 4.05 64.55 6.1 67.2 8.15 68.2 9.7 L69.05 11.45 Q71.35 15.3 69.05 15.8 66.75 16.25 57.85 12.15 48.9 8.0 49.95 11.05 47.5 5.7 52.35 4.65 L50.7 2.05" fill="#ee4141" fill-rule="evenodd" stroke="none"/>
      <path d="M38.25 26.3 L38.15 25.65 Q38.2 25.05 40.35 24.75 45.75 23.75 52.8 24.75 39.6 31.25 38.25 26.3" fill="#bd2929" fill-rule="evenodd" stroke="none"/>
      <path d="M35.6 25.05 L35.3 26.7 Q34.8 28.1 33.45 28.1 31.3 28.1 30.1 27.05 29.3 26.35 29.3 25.8 32.1 23.15 33.9 23.15 35.05 23.15 35.45 24.1 L35.6 25.05" fill="#bd2929" fill-rule="evenodd" stroke="none"/>
      <path d="M37.0 23.3 L33.15 23.65 31.35 23.35 30.6 22.9 30.6 22.45 Q33.2 21.15 34.8 20.7 37.75 19.85 37.75 22.2 37.75 23.0 37.0 23.3" fill="#ee4141" fill-rule="evenodd" stroke="none"/>
    </g>
    <g id="sprite1">
      <use ffdec:characterId="3" height="17.4" transform="matrix(1.0, 0.0, 0.0, 1.0, 0.0, 0.0)" width="14.6" xlink:href="#shape1"/>
    </g>
    <g id="shape1">
      <path d="M10.65 4.95 L11.1 4.4 Q11.8 3.95 12.45 4.65 13.9 6.05 13.0 7.8 L12.05 9.2 Q12.2 9.45 12.6 9.5 12.95 9.55 13.5 9.9 14.0 10.25 13.75 11.2 L13.3 12.3 12.8 12.6 12.45 12.75 11.8 12.75 10.45 12.75 Q11.25 14.25 8.85 15.55 6.4 16.8 5.0 15.4 3.55 13.95 3.65 12.85 2.85 13.35 1.85 12.55 0.95 11.1 1.75 10.0 2.5 8.9 3.8 8.8 L3.35 8.25 2.3 7.25 Q0.8 5.6 1.85 3.4 2.1 2.8 2.6 2.45 3.55 1.7 4.5 1.4 L6.2 1.25 Q9.25 1.6 9.6 4.55 L10.2 5.0 10.65 4.95" fill="#cec1d7" fill-rule="evenodd" stroke="none"/>
      <path d="M10.65 4.95 L10.2 5.0 9.6 4.55 Q9.25 1.6 6.2 1.25 L4.5 1.4 Q3.55 1.7 2.6 2.45 2.1 2.8 1.85 3.4 0.8 5.6 2.3 7.25 L3.35 8.25 3.8 8.8 Q2.5 8.9 1.75 10.0 0.95 11.1 1.85 12.55 2.85 13.35 3.65 12.85 3.55 13.95 5.0 15.4 6.4 16.8 8.85 15.55 11.25 14.25 10.45 12.75 L11.8 12.75 12.45 12.75 12.8 12.6 13.3 12.3 13.75 11.2 Q14.0 10.25 13.5 9.9 12.95 9.55 12.6 9.5 12.2 9.45 12.05 9.2 L13.0 7.8 Q13.9 6.05 12.45 4.65 11.8 3.95 11.1 4.4 L10.65 4.95 M14.0 8.95 Q15.1 10.8 14.2 12.7 13.3 14.55 11.3 13.75 10.15 18.3 5.4 17.2 2.95 16.45 2.5 14.0 1.15 14.15 0.7 13.0 -0.4 10.5 1.75 8.7 L1.25 8.4 0.65 7.85 0.15 7.1 Q-0.8 1.2 4.8 0.1 7.4 -0.45 9.5 1.45 L13.25 4.1 Q14.8 4.95 14.5 6.7 L14.0 8.95" fill="#36303b" fill-rule="evenodd" stroke="none"/>
      <path d="M6.15 3.05 L8.3 3.15 Q9.5 4.0 10.25 5.55 L11.85 5.15 Q12.6 5.15 12.85 5.8 L12.95 6.55 10.75 8.75 Q8.45 10.8 7.75 10.8 6.2 10.8 5.65 9.6 5.4 9.05 5.45 8.4 5.45 7.55 5.6 7.25 5.75 7.0 6.8 6.5 5.35 5.7 5.3 4.8 5.2 3.85 6.15 3.05" fill="#ffffff" fill-rule="evenodd" stroke="none"/>
      <path d="M7.0 15.4 Q5.5 15.4 5.6 14.5 5.6 13.65 7.55 13.05 9.45 12.4 9.45 13.75 9.45 14.35 8.7 14.85 7.9 15.4 7.0 15.4" fill="#ffffff" fill-rule="evenodd" stroke="none"/>
      <path d="M13.0 9.8 L12.8 10.3 11.9 10.45 Q9.6 10.45 9.6 8.65 9.6 6.9 11.3 7.9 13.0 8.9 13.0 9.8" fill="#ffffff" fill-rule="evenodd" stroke="none"/>
    </g>
    <g id="sprite2">
      <use ffdec:characterId="5" height="19.2" transform="matrix(1.0, 0.0, 0.0, 1.0, 0.0, 0.0)" width="46.05" xlink:href="#shape2"/>
    </g>
    <g id="shape2">
      <path d="M45.95 4.7 Q45.0 7.55 43.4 10.05 42.4 11.6 40.9 12.75 37.35 15.45 34.3 16.2 L27.7 17.25 24.5 16.9 Q19.3 20.0 14.05 17.8 8.8 15.55 6.05 11.2 1.2 10.35 0.3 5.75 -0.3 2.55 2.5 0.45 4.65 -0.65 6.5 0.85 L7.2 1.45 Q12.85 -0.45 17.45 2.85 20.95 0.85 24.95 0.9 27.05 1.35 28.5 2.8 29.25 3.5 29.65 4.45 31.2 1.3 35.55 1.7 L38.4 2.15 39.0 2.35 40.9 1.1 Q44.9 0.15 46.0 4.0 L45.95 4.7 M43.75 2.25 Q41.55 2.1 39.7 3.35 L39.4 3.6 Q33.6 0.9 29.85 6.15 L29.7 6.2 29.5 5.9 28.25 4.35 Q27.15 2.7 24.45 2.1 20.9 2.0 18.4 4.05 L17.95 5.05 Q15.3 2.25 11.45 1.9 9.15 1.95 6.9 2.75 5.3 0.1 2.85 1.9 1.0 3.3 1.3 5.55 1.75 8.9 5.15 10.35 L5.95 10.65 5.85 10.5 Q4.65 8.4 4.65 6.1 5.35 8.75 6.65 10.8 9.45 15.35 15.2 17.15 19.85 18.75 23.45 15.8 L24.55 15.05 25.0 15.9 Q35.15 16.85 42.65 9.7 44.0 8.4 43.4 6.7 L43.1 5.85 Q44.2 6.05 44.9 4.9 L45.05 4.6 45.2 3.9 Q44.95 2.9 44.55 2.65 L43.75 2.25" fill="#8d8891" fill-rule="evenodd" stroke="none"/>
      <path d="M43.75 2.25 L44.55 2.65 Q44.95 2.9 45.2 3.9 L45.05 4.6 44.9 4.9 Q44.2 6.05 43.1 5.85 L43.4 6.7 Q44.0 8.4 42.65 9.7 35.15 16.85 25.0 15.9 L24.55 15.05 23.45 15.8 Q19.85 18.75 15.2 17.15 9.45 15.35 6.65 10.8 5.35 8.75 4.65 6.1 4.65 8.4 5.85 10.5 L5.95 10.65 5.15 10.35 Q1.75 8.9 1.3 5.55 1.0 3.3 2.85 1.9 5.3 0.1 6.9 2.75 9.15 1.95 11.45 1.9 15.3 2.25 17.95 5.05 L18.4 4.05 Q20.9 2.0 24.45 2.1 27.15 2.7 28.25 4.35 L29.5 5.9 29.7 6.2 29.85 6.15 Q33.6 0.9 39.4 3.6 L39.7 3.35 Q41.55 2.1 43.75 2.25" fill="#cec1d7" fill-rule="evenodd" stroke="none"/>
      <path d="M45.95 4.7 Q45.0 7.55 43.4 10.05 42.4 11.6 40.9 12.75 37.35 15.45 34.3 16.2 L27.7 17.25 24.5 16.9 Q19.3 20.65 13.45 18.25 7.55 15.85 6.1 12.25 0.35 10.85 0.05 6.7 -0.3 2.55 2.5 0.45 4.65 -0.65 6.5 0.85 L7.2 1.45 Q12.85 -0.45 17.45 2.85 20.95 0.85 24.95 0.9 27.05 1.35 28.5 2.8 29.25 3.5 29.65 4.45 31.2 1.3 35.55 1.7 L38.4 2.15 39.0 2.35 40.9 1.1 Q44.9 0.15 46.0 4.0 L45.95 4.7 M43.75 2.25 Q41.55 2.1 39.7 3.35 L39.4 3.6 Q33.6 0.9 29.85 6.15 L29.7 6.2 29.5 5.9 28.25 4.35 Q27.15 2.7 24.45 2.1 20.9 2.0 18.4 4.05 L17.95 5.05 Q15.3 2.25 11.45 1.9 9.15 1.95 6.9 2.75 5.3 0.1 2.85 1.9 1.0 3.3 1.3 5.55 1.75 8.9 5.15 10.35 L5.95 10.65 5.85 10.5 Q4.65 8.4 4.65 6.1 5.35 8.75 6.65 10.8 9.45 15.35 15.2 17.15 19.85 18.75 23.45 15.8 L24.55 15.05 25.0 15.9 Q35.15 16.85 42.65 9.7 44.0 8.4 43.4 6.7 L43.1 5.85 Q44.2 6.05 44.9 4.9 L45.05 4.6 45.2 3.9 Q44.95 2.9 44.55 2.65 L43.75 2.25" fill="#2c2531" fill-rule="evenodd" stroke="none"/>
      <path d="M17.95 6.5 Q18.95 5.8 19.55 4.7 20.0 3.6 21.15 3.5 L22.85 3.05 24.25 3.3 25.55 4.4 26.7 6.6 Q27.2 8.0 26.35 9.2 25.55 10.45 25.0 12.0 L22.45 12.0 Q22.45 12.7 21.9 13.35 20.35 15.15 18.0 15.2 16.2 14.95 14.75 13.7 L12.55 13.35 Q11.45 12.95 10.5 12.2 8.65 10.7 9.4 8.95 L8.5 8.2 Q8.05 7.95 8.3 7.35 L8.45 7.1 9.1 6.55 8.9 5.9 Q8.7 4.8 9.35 4.15 10.45 3.0 11.75 3.0 13.6 3.1 15.25 4.2 L15.85 6.55 Q15.95 7.45 16.3 8.15 L16.6 8.25 17.55 8.7 17.6 6.75 17.95 6.5" fill="#ffffff" fill-rule="evenodd" stroke="none"/>
      <path d="M28.05 11.15 Q29.3 10.05 30.4 10.6 31.25 11.0 31.25 11.65 31.25 14.35 28.5 14.35 26.65 14.35 26.7 13.45 26.7 12.95 27.45 12.4 28.2 11.9 28.05 11.15" fill="#ffffff" fill-rule="evenodd" stroke="none"/>
      <path d="M41.3 7.15 Q41.3 7.9 40.45 8.5 39.6 9.15 39.6 9.85 L39.35 11.15 Q38.75 12.2 36.75 12.2 34.0 12.2 34.0 10.05 30.0 10.45 30.0 8.1 30.0 7.15 31.4 6.6 L32.85 5.8 Q33.05 4.85 34.4 4.3 L35.9 3.8 Q38.2 3.25 39.75 4.6 41.3 5.9 41.3 7.15" fill="#ffffff" fill-rule="evenodd" stroke="none"/>
      <path d="M43.45 3.65 L43.55 4.25 43.45 4.95 Q43.2 5.4 42.45 5.4 41.6 5.4 41.35 4.85 L41.3 4.3 Q41.3 4.0 41.55 3.65 41.9 3.15 42.45 3.15 43.2 3.15 43.45 3.65" fill="#ffffff" fill-rule="evenodd" stroke="none"/>
      <path d="M5.85 3.4 L6.15 4.35 Q6.15 5.35 5.45 5.35 4.95 5.35 4.55 4.9 L3.65 5.0 Q2.95 5.0 2.95 4.45 2.95 4.05 3.3 3.4 3.8 2.55 4.55 2.55 5.4 2.55 5.85 3.4" fill="#ffffff" fill-rule="evenodd" stroke="none"/>
    </g>
  </defs>
</svg>
