<?xml version="1.0" encoding="UTF-8" standalone="no"?>
<svg xmlns:ffdec="https://www.free-decompiler.com/flash" xmlns:xlink="http://www.w3.org/1999/xlink" ffdec:objectType="frame" height="48.2px" width="41.4px" xmlns="http://www.w3.org/2000/svg">
  <g transform="matrix(1.0, 0.0, 0.0, 1.0, 21.25, 71.2)">
    <use ffdec:characterId="5" height="48.2" transform="matrix(1.0, 0.0, 0.0, 1.0, -22.2, -65.15)" width="41.4" xlink:href="#sprite0"/>
  </g>
  <defs>
    <g id="sprite0">
      <use ffdec:characterId="4" height="48.2" transform="matrix(1.0, 0.0, 0.0, 1.0, 0.0, 0.0)" width="41.4" xlink:href="#shape0"/>
    </g>
    <g id="shape0">
      <path d="M24.75 4.9 Q28.7 6.3 31.4 10.2 34.05 14.15 33.45 18.95 35.85 20.05 36.75 21.7 37.65 23.3 37.8 25.15 L37.9 27.25 Q40.0 28.65 40.85 30.95 41.65 33.25 41.2 35.15 40.8 36.95 39.3 38.35 37.7 39.65 34.75 40.2 L30.45 40.85 25.65 40.95 18.5 41.1 Q13.3 41.35 8.4 40.1 5.3 39.2 3.55 36.5 1.2 32.9 2.35 28.9 3.4 25.3 6.2 23.15 5.6 20.65 6.6 18.55 7.65 16.3 10.05 15.0 10.85 14.6 11.7 14.3 L11.2 11.75 Q10.95 10.2 11.9 8.2 12.85 6.15 14.5 5.4 15.05 5.1 15.75 4.85 14.45 3.5 14.5 1.7 14.55 -0.2 16.1 -1.45 17.35 -2.55 19.1 -2.65 L19.4 -4.8 19.45 -4.8 19.45 -4.85 19.55 -4.9 19.75 -5.05 19.85 -4.95 20.0 -4.9 20.1 -4.75 20.25 -4.65 19.8 -2.7 20.0 -2.7 20.3 -3.0 Q22.55 -4.65 24.85 -3.8 23.8 -2.3 22.45 -1.85 L23.3 -1.25 Q24.75 0.1 24.7 2.0 24.65 3.45 23.75 4.6 L24.75 4.9" fill="#000000" fill-rule="evenodd" stroke="none"/>
      <path d="M24.75 4.9 Q28.7 6.3 31.4 10.2 34.05 14.15 33.45 18.95 35.85 20.05 36.75 21.7 37.65 23.3 37.8 25.15 L37.9 27.25 Q40.0 28.65 40.85 30.95 41.65 33.25 41.2 35.15 40.8 36.95 39.3 38.35 37.7 39.65 34.75 40.2 L30.45 40.85 25.65 40.95 18.5 41.1 Q13.3 41.35 8.4 40.1 5.3 39.2 3.55 36.5 1.2 32.9 2.35 28.9 3.4 25.3 6.2 23.15 5.6 20.65 6.6 18.55 7.65 16.3 10.05 15.0 10.85 14.6 11.7 14.3 L11.2 11.75 Q10.95 10.2 11.9 8.2 12.85 6.15 14.5 5.4 15.05 5.1 15.75 4.85 14.45 3.5 14.5 1.7 14.55 -0.2 16.1 -1.45 17.35 -2.55 19.1 -2.65 L19.4 -4.8 19.45 -4.8 19.45 -4.85 19.55 -4.9 19.75 -5.05 19.85 -4.95 20.0 -4.9 20.1 -4.75 20.25 -4.65 19.8 -2.7 20.0 -2.7 20.3 -3.0 Q22.55 -4.65 24.85 -3.8 23.8 -2.3 22.45 -1.85 L23.3 -1.25 Q24.75 0.1 24.7 2.0 24.65 3.45 23.75 4.6 L24.75 4.9 Z" fill="none" stroke="#000000" stroke-linecap="round" stroke-linejoin="round" stroke-width="2.0"/>
      <path d="M38.15 29.35 L38.2 29.4 38.1 29.45 38.15 29.35" fill="#000000" fill-rule="evenodd" stroke="none"/>
      <path d="M8.5 17.45 L9.15 16.8 Q14.65 16.5 19.15 16.6 L22.35 16.05 Q23.85 15.55 27.55 11.8 19.7 14.65 15.8 13.25 11.85 11.8 11.95 9.35 12.05 6.85 16.2 5.2 20.35 3.6 24.95 5.65 29.5 7.7 31.1 11.7 32.7 15.7 29.8 18.8 26.85 21.85 22.35 22.65 L13.7 23.15 Q9.65 22.9 8.1 21.1 6.5 19.3 8.5 17.45 M6.45 24.0 Q9.65 27.95 14.8 28.1 19.3 28.5 23.95 27.9 27.6 27.3 30.1 24.4 31.85 22.3 32.7 19.7 35.0 20.7 35.95 22.35 36.85 24.05 34.6 26.65 32.4 29.2 28.1 31.3 23.7 33.3 22.55 33.15 21.4 33.0 20.45 32.4 L17.05 30.65 Q15.85 30.65 16.5 32.5 17.4 34.25 18.7 35.65 L13.65 35.95 Q10.5 35.85 7.0 34.55 3.5 33.25 2.95 30.05 2.4 26.75 6.45 24.0 M40.05 32.7 Q39.8 34.4 35.45 36.5 25.5 39.4 20.55 34.9 15.65 30.35 17.35 31.25 21.8 33.8 26.2 34.85 31.4 35.8 35.3 32.45 37.1 30.95 37.85 28.65 38.25 28.5 39.35 29.7 40.35 30.95 40.05 32.7" fill="#ffffff" fill-rule="evenodd" stroke="none"/>
      <path d="M8.5 17.45 Q6.5 19.3 8.1 21.1 9.65 22.9 13.7 23.15 L22.35 22.65 Q26.85 21.85 29.8 18.8 32.7 15.7 31.1 11.7 29.5 7.7 24.95 5.65 20.35 3.6 16.2 5.2 12.05 6.85 11.95 9.35 11.85 11.8 15.8 13.25 19.7 14.65 27.55 11.8 23.85 15.55 22.35 16.05 L19.15 16.6 Q14.65 16.5 9.15 16.8 L8.5 17.45 M18.45 4.1 Q20.8 3.55 24.75 4.9 28.7 6.3 31.4 10.2 34.05 14.15 33.45 18.95 35.85 20.05 36.75 21.7 37.65 23.3 37.8 25.15 L37.9 27.25 Q40.0 28.65 40.85 30.95 41.65 33.25 41.2 35.15 40.8 36.95 39.3 38.35 37.7 39.65 34.75 40.2 L30.45 40.85 25.65 40.95 18.5 41.1 Q13.3 41.35 8.4 40.1 5.3 39.2 3.55 36.5 1.2 32.9 2.35 28.9 3.4 25.3 6.2 23.15 5.6 20.65 6.6 18.55 7.65 16.3 10.05 15.0 10.85 14.6 11.7 14.3 L11.2 11.75 Q10.95 10.2 11.9 8.2 12.85 6.15 14.5 5.4 16.05 4.55 18.45 4.1 M6.45 24.0 Q2.4 26.75 2.95 30.05 3.5 33.25 7.0 34.55 10.5 35.85 13.65 35.95 L18.7 35.65 Q17.4 34.25 16.5 32.5 15.85 30.65 17.05 30.65 L20.45 32.4 Q21.4 33.0 22.55 33.15 23.7 33.3 28.1 31.3 32.4 29.2 34.6 26.65 36.85 24.05 35.95 22.35 35.0 20.7 32.7 19.7 31.85 22.3 30.1 24.4 27.6 27.3 23.95 27.9 19.3 28.5 14.8 28.1 9.65 27.95 6.45 24.0 M40.05 32.7 Q40.35 30.95 39.35 29.7 38.25 28.5 37.85 28.65 37.1 30.95 35.3 32.45 31.4 35.8 26.2 34.85 21.8 33.8 17.35 31.25 15.65 30.35 20.55 34.9 25.5 39.4 35.45 36.5 39.8 34.4 40.05 32.7" fill="#b0bfd2" fill-rule="evenodd" stroke="none"/>
      <path d="M20.8 9.6 L20.35 10.55 Q19.95 10.9 19.4 10.9 18.85 10.9 18.45 10.5 18.1 10.05 18.1 9.5 18.1 8.95 18.55 8.6 18.95 8.2 19.5 8.2 20.05 8.2 20.45 8.65 20.8 9.05 20.8 9.6" fill="#000000" fill-rule="evenodd" stroke="none"/>
      <path d="M12.9 11.1 L13.05 10.55 13.25 10.3 Q14.1 10.3 13.3 11.0 L12.9 11.1" fill="#000000" fill-rule="evenodd" stroke="none"/>
      <path d="M11.9 12.1 L11.8 11.3 Q12.7 12.5 14.8 12.75 L19.15 12.55 Q16.3 13.35 15.05 13.25 12.6 12.9 11.9 12.1" fill="#ff0000" fill-rule="evenodd" stroke="none"/>
      <path d="M31.25 17.3 Q31.25 17.95 30.75 18.4 30.25 18.85 29.6 18.8 28.95 18.8 28.5 18.35 28.05 17.85 28.05 17.2 28.05 16.55 28.6 16.15 29.05 15.7 29.7 15.7 30.35 15.75 30.85 16.2 31.25 16.65 31.25 17.3" fill="#ff0000" fill-rule="evenodd" stroke="none"/>
      <path d="M26.9 21.05 Q26.75 20.75 26.85 20.25 26.95 19.65 27.45 19.35 27.9 19.15 28.4 19.35 28.7 19.35 28.85 19.5 L29.15 19.75 28.6 20.15 26.9 21.05" fill="#ff0000" fill-rule="evenodd" stroke="none"/>
      <path d="M29.15 19.75 L29.35 20.15 29.25 21.05 28.9 21.5 28.0 21.65 Q27.15 21.5 26.95 21.15 L26.9 21.05 28.6 20.15 29.15 19.75" fill="#cb0000" fill-rule="evenodd" stroke="none"/>
      <path d="M33.2 17.85 L32.9 18.4 32.3 18.65 31.7 18.4 Q31.45 18.15 31.5 17.8 31.5 17.45 31.75 17.2 32.0 16.95 32.35 16.95 L32.95 17.2 33.2 17.85" fill="#cb0000" fill-rule="evenodd" stroke="none"/>
      <path d="M30.95 21.3 L31.0 21.6 30.95 22.0 30.9 22.2 30.8 22.3 30.25 22.65 Q29.65 22.7 29.55 22.15 L29.5 21.85 Q29.5 21.3 29.8 21.15 30.0 20.95 30.4 20.95 L30.8 21.05 30.95 21.3" fill="#cb0000" fill-rule="evenodd" stroke="none"/>
      <path d="M32.6 20.3 L32.5 20.65 32.15 20.8 Q31.95 20.8 31.85 20.65 L31.7 20.3 31.85 19.95 Q31.95 19.8 32.15 19.8 L32.5 19.95 32.6 20.3" fill="#cb0000" fill-rule="evenodd" stroke="none"/>
      <path d="M31.7 19.25 L31.65 19.9 31.6 19.95 30.95 20.5 30.1 20.2 30.0 20.1 30.0 19.55 30.25 19.05 Q30.4 18.9 30.65 18.9 L31.25 18.85 31.7 19.25" fill="#ffdd45" fill-rule="evenodd" stroke="none"/>
      <path d="M11.05 22.75 L11.5 22.25 Q12.0 21.8 12.65 21.85 L13.7 22.5 13.95 23.15 11.05 22.75" fill="#ff0000" fill-rule="evenodd" stroke="none"/>
      <path d="M13.95 23.15 L14.0 23.65 Q13.9 24.3 13.4 24.75 12.9 25.15 12.25 25.05 11.6 25.0 11.2 24.5 10.85 23.95 10.9 23.3 L11.05 22.75 13.95 23.15" fill="#cb0000" fill-rule="evenodd" stroke="none"/>
      <path d="M8.3 21.4 Q8.55 20.65 8.85 20.4 L8.95 20.4 9.75 20.45 Q10.3 20.6 10.55 21.1 L10.5 22.05 10.25 22.45 10.2 22.6 8.3 21.4" fill="#ff0000" fill-rule="evenodd" stroke="none"/>
      <path d="M10.2 22.6 L9.95 22.8 9.6 22.95 8.7 22.75 8.3 22.4 Q8.2 22.15 8.25 21.5 L8.3 21.4 10.2 22.6" fill="#cb0000" fill-rule="evenodd" stroke="none"/>
      <path d="M11.55 26.95 Q11.2 26.9 11.05 26.65 10.8 26.35 10.85 26.0 10.9 25.65 11.2 25.45 11.4 25.2 11.75 25.25 12.1 25.3 12.35 25.6 L12.5 26.2 12.2 26.8 11.55 26.95" fill="#cb0000" fill-rule="evenodd" stroke="none"/>
      <path d="M8.3 24.4 L8.0 24.45 7.6 24.35 7.4 24.3 7.3 24.2 7.05 23.6 Q7.0 22.95 7.55 22.95 L7.85 22.9 Q8.4 23.0 8.6 23.25 L8.7 23.9 8.6 24.25 8.3 24.4" fill="#cb0000" fill-rule="evenodd" stroke="none"/>
      <path d="M8.85 26.05 Q8.65 26.05 8.55 25.9 L8.4 25.55 8.6 25.25 8.95 25.15 9.3 25.35 9.4 25.65 9.25 26.0 8.85 26.05" fill="#cb0000" fill-rule="evenodd" stroke="none"/>
      <path d="M10.35 25.35 L9.7 25.25 9.65 25.2 Q9.15 25.0 9.1 24.5 9.05 23.95 9.5 23.65 L9.6 23.6 10.2 23.6 10.65 23.9 10.75 24.35 10.75 24.95 10.35 25.35" fill="#ffdd45" fill-rule="evenodd" stroke="none"/>
      <path d="M16.45 34.3 L15.5 35.0 Q14.85 35.1 14.3 34.75 13.75 34.4 13.6 33.75 13.45 33.1 13.8 32.55 14.15 32.0 14.8 31.9 15.45 31.8 16.0 32.15 16.55 32.5 16.7 33.15 L16.45 34.3" fill="#ff0000" fill-rule="evenodd" stroke="none"/>
      <path d="M10.8 35.2 Q10.85 34.85 11.2 34.5 11.6 34.05 12.15 34.05 12.6 34.1 13.0 34.55 L13.25 34.9 13.4 35.3 12.75 35.3 10.8 35.2" fill="#ff0000" fill-rule="evenodd" stroke="none"/>
      <path d="M13.4 35.3 L13.35 35.75 12.8 36.45 12.3 36.65 Q12.0 36.65 11.45 36.25 10.8 35.75 10.75 35.3 L10.8 35.2 12.75 35.3 13.4 35.3" fill="#cb0000" fill-rule="evenodd" stroke="none"/>
      <path d="M18.2 35.95 L18.0 36.4 17.45 36.8 16.85 36.6 16.4 36.1 16.45 35.9 18.2 35.95" fill="#cb0000" fill-rule="evenodd" stroke="none"/>
      <path d="M16.45 35.9 L16.6 35.5 17.1 35.1 17.8 35.2 18.15 35.8 18.2 35.95 16.45 35.9" fill="#ff0000" fill-rule="evenodd" stroke="none"/>
      <path d="M15.6 36.0 L15.55 36.35 15.25 36.9 15.2 36.95 14.3 37.1 Q13.8 36.8 13.75 36.35 L13.7 36.2 13.9 35.95 15.6 36.0" fill="#ffdd45" fill-rule="evenodd" stroke="none"/>
      <path d="M13.9 35.95 L14.0 35.7 Q14.1 35.45 14.5 35.45 L14.9 35.5 15.45 35.8 15.6 36.0 13.9 35.95" fill="#ffe77e" fill-rule="evenodd" stroke="none"/>
      <path d="M14.45 38.8 L14.2 39.2 12.9 39.35 Q12.25 38.95 12.25 37.9 12.3 37.55 12.5 37.4 12.75 37.05 13.3 37.15 L13.8 37.2 14.45 37.9 Q14.65 38.4 14.45 38.8" fill="#cb0000" fill-rule="evenodd" stroke="none"/>
      <path d="M17.25 37.3 L17.45 37.8 17.5 38.35 Q17.45 38.85 16.9 39.05 L16.05 39.1 15.35 38.55 15.3 37.6 15.4 37.3 Q15.65 36.85 16.1 36.9 L16.95 37.05 17.25 37.3" fill="#cb0000" fill-rule="evenodd" stroke="none"/>
      <path d="M35.25 25.75 L34.95 25.6 Q34.5 25.25 34.45 24.6 L34.45 24.05 Q34.45 23.7 34.6 23.45 L34.8 23.3 36.05 23.4 36.2 23.6 35.25 25.75" fill="#ff0000" fill-rule="evenodd" stroke="none"/>
      <path d="M36.2 23.6 L36.3 23.8 36.55 24.85 36.0 25.7 35.25 25.75 36.2 23.6" fill="#cb0000" fill-rule="evenodd" stroke="none"/>
      <path d="M34.45 22.35 L34.15 22.05 34.1 21.65 34.2 21.2 Q34.5 20.55 35.15 20.75 L35.65 21.0 35.95 21.35 Q36.3 21.8 35.9 22.4 L35.6 22.65 35.25 22.7 34.45 22.35" fill="#ff0000" fill-rule="evenodd" stroke="none"/>
      <path d="M36.5 26.9 L36.45 26.45 36.5 26.05 36.6 25.95 Q36.75 25.7 37.05 25.7 L37.1 25.65 Q37.6 25.75 37.75 26.25 L37.85 26.3 37.7 26.9 37.6 27.0 37.2 27.15 Q36.8 27.3 36.5 26.9" fill="#cb0000" fill-rule="evenodd" stroke="none"/>
      <path d="M4.95 26.3 L5.2 26.75 Q5.4 27.75 4.8 28.5 4.5 28.8 4.05 28.9 L3.25 28.65 3.05 27.85 Q3.05 27.3 3.2 27.05 3.35 26.5 3.85 26.15 L4.95 26.3" fill="#ff0000" fill-rule="evenodd" stroke="none"/>
      <path d="M29.55 37.65 L29.5 37.6 Q29.3 37.2 29.55 36.7 29.9 36.1 30.6 36.0 L31.65 36.3 Q32.1 36.7 31.95 37.2 L31.95 37.25 31.95 37.3 29.55 37.65" fill="#ff0000" fill-rule="evenodd" stroke="none"/>
      <path d="M31.95 37.3 L31.8 37.6 31.35 38.1 30.4 38.2 29.7 37.85 29.55 37.65 31.95 37.3" fill="#cb0000" fill-rule="evenodd" stroke="none"/>
      <path d="M33.55 35.65 L33.45 36.0 Q33.0 36.55 32.45 36.35 31.75 36.25 31.75 35.55 L31.9 35.0 Q32.25 34.5 32.55 34.5 L32.65 34.45 Q33.1 34.5 33.35 34.7 L33.55 35.35 33.55 35.65" fill="#ff0000" fill-rule="evenodd" stroke="none"/>
      <path d="M27.7 35.35 L28.15 34.95 28.9 35.15 28.95 35.25 29.05 35.3 Q29.3 35.7 29.15 36.0 L29.1 36.05 28.35 36.5 27.95 36.4 27.7 36.15 27.65 35.95 27.6 35.55 27.7 35.35" fill="#ff0000" fill-rule="evenodd" stroke="none"/>
      <path d="M30.1 34.5 L30.35 34.4 31.05 34.55 31.25 34.7 31.3 34.85 31.35 35.45 31.0 35.9 30.35 35.95 29.65 35.65 Q29.3 35.3 29.5 34.9 L30.1 34.5" fill="#ffe77e" fill-rule="evenodd" stroke="none"/>
      <path d="M18.45 4.1 Q20.8 3.55 24.75 4.9 28.7 6.3 31.4 10.2 34.05 14.15 33.45 18.95 35.85 20.05 36.75 21.7 37.65 23.3 37.8 25.15 L37.9 27.25 Q40.0 28.65 40.85 30.95 41.65 33.25 41.2 35.15 40.8 36.95 39.3 38.35 37.7 39.65 34.75 40.2 L30.45 40.85 25.65 40.95 18.5 41.1 Q13.3 41.35 8.4 40.1 5.3 39.2 3.55 36.5 1.2 32.9 2.35 28.9 3.4 25.3 6.2 23.15 5.6 20.65 6.6 18.55 7.65 16.3 10.05 15.0 10.85 14.6 11.7 14.3 L11.2 11.75 Q10.95 10.2 11.9 8.2 12.85 6.15 14.5 5.4 16.05 4.55 18.45 4.1 M6.45 24.0 Q2.4 26.75 2.6 31.6 2.75 36.4 6.55 38.35 9.8 39.9 13.6 40.0 19.05 40.2 25.55 39.75 L21.95 38.2 Q18.4 36.3 16.5 32.5 15.85 30.65 17.05 30.65 L21.3 32.7 Q23.1 33.55 26.3 34.35 29.55 35.15 32.85 33.4 36.15 31.6 36.85 28.45 37.55 25.3 36.3 23.0 35.0 20.7 32.7 19.7 31.85 22.3 30.1 24.4 27.6 27.3 23.95 27.9 19.3 28.5 14.8 28.1 9.65 27.95 6.45 24.0 M7.4 24.2 Q9.4 26.4 11.6 27.1 13.7 27.8 17.3 28.1 20.85 28.4 25.85 26.6 30.8 24.75 32.1 20.35 33.4 15.95 31.95 12.8 29.5 7.7 24.35 5.65 L16.3 5.4 Q11.35 6.9 12.15 12.15 12.35 13.7 13.45 14.9 14.55 16.0 16.55 16.2 L21.1 15.7 Q23.55 15.05 25.5 14.0 23.85 15.55 22.35 16.05 L19.15 16.6 Q14.45 16.5 12.25 14.95 10.55 15.55 9.05 16.6 7.55 17.6 6.6 20.55 6.05 22.35 7.4 24.2 M19.95 36.25 Q24.15 39.35 28.65 39.85 32.85 40.1 36.1 39.05 39.35 37.95 40.05 36.6 40.7 35.2 40.6 33.35 L40.15 31.35 39.5 30.3 Q38.25 28.5 37.85 28.65 37.1 30.95 35.3 32.45 31.4 35.8 26.2 34.85 21.8 33.8 17.35 31.25 16.25 30.95 17.2 32.65 18.2 34.75 19.95 36.25" fill="#2d353e" fill-rule="evenodd" stroke="none"/>
      <path d="M20.2 9.05 L20.05 9.4 19.7 9.5 19.4 9.35 19.3 9.0 19.45 8.65 Q19.55 8.5 19.75 8.5 L20.1 8.7 20.2 9.05" fill="#ffffff" fill-rule="evenodd" stroke="none"/>
      <path d="M24.7 2.0 Q24.65 3.9 23.1 5.2 21.55 6.5 19.45 6.4 17.35 6.35 15.9 5.0 14.45 3.6 14.5 1.7 14.55 -0.2 16.1 -1.45 17.6 -2.75 19.7 -2.7 21.8 -2.6 23.3 -1.25 24.75 0.1 24.7 2.0" fill="#e25b12" fill-rule="evenodd" stroke="none"/>
      <path d="M23.8 1.2 Q23.75 2.55 22.5 3.5 21.25 4.4 19.55 4.35 17.8 4.3 16.65 3.35 15.45 2.3 15.5 0.95 15.55 -0.45 16.75 -1.35 18.0 -2.3 19.75 -2.25 21.45 -2.2 22.6 -1.2 23.85 -0.2 23.8 1.2" fill="#ffa41c" fill-rule="evenodd" stroke="none"/>
      <path d="M20.2 -4.6 L19.65 -2.15 19.2 -1.75 18.95 -2.1 19.35 -4.75 19.7 -5.0 20.2 -4.6" fill="#472f11" fill-rule="evenodd" stroke="none"/>
      <path d="M22.9 0.45 L22.45 1.2 Q22.05 1.55 21.45 1.55 20.85 1.55 20.45 1.15 20.0 0.85 20.05 0.35 20.05 -0.1 20.5 -0.45 L21.5 -0.7 22.5 -0.4 Q22.9 0.0 22.9 0.45" fill="#ffe11c" fill-rule="evenodd" stroke="none"/>
      <path d="M23.1 4.35 L23.65 4.1 Q21.75 6.25 19.2 5.85 16.65 5.45 15.75 4.0 19.1 5.85 23.1 4.35" fill="#e67031" fill-rule="evenodd" stroke="none"/>
      <path d="M19.35 -2.2 L20.25 -3.0 Q22.5 -4.7 24.8 -3.8 22.75 -0.8 19.35 -2.2" fill="#3f801f" fill-rule="evenodd" stroke="none"/>
      <path d="M20.15 -2.55 L20.85 -3.15 Q22.5 -4.4 24.25 -3.75 22.7 -1.5 20.15 -2.55" fill="#52ad26" fill-rule="evenodd" stroke="none"/>
      <path d="M19.4 -4.15 L19.35 -4.25 19.4 -4.7 19.45 -4.75 19.45 -4.85 19.55 -4.9 19.8 -4.95 19.8 -5.0 20.0 -4.9 20.15 -4.7 20.2 -4.45 20.15 -4.4 20.1 -4.3 20.0 -4.1 19.8 -4.0 19.4 -4.15" fill="#6b491e" fill-rule="evenodd" stroke="none"/>
    </g>
  </defs>
</svg>
