<?xml version="1.0" encoding="UTF-8" standalone="no"?>
<svg xmlns:ffdec="https://www.free-decompiler.com/flash" xmlns:xlink="http://www.w3.org/1999/xlink" ffdec:objectType="frame" height="35.6px" width="35.35px" xmlns="http://www.w3.org/2000/svg">
  <g transform="matrix(1.0, 0.0, 0.0, 1.0, 17.65, 49.05)">
    <use ffdec:characterId="10" height="35.6" transform="matrix(1.0, 0.0, 0.0, 1.0, 0.05, -31.25)" width="35.35" xlink:href="#sprite0"/>
    <use ffdec:characterId="17" height="6.45" transform="matrix(1.0, 0.0, 0.0, 1.0, 0.0, 0.0)" width="9.35" xlink:href="#shape1"/>
    <use ffdec:characterId="5" height="4.85" transform="matrix(1.0, 0.0, 0.0, 1.0, 12.75, -32.9)" width="4.5" xlink:href="#sprite1"/>
    <use ffdec:characterId="7" height="4.25" transform="matrix(1.0, 0.0, 0.0, 1.0, -13.1, -32.9)" width="3.8" xlink:href="#sprite2"/>
    <use ffdec:characterId="5" height="4.85" transform="matrix(1.0, 0.0, 0.0, 1.0, 9.3, -26.6)" width="4.5" xlink:href="#sprite1"/>
    <use ffdec:characterId="5" height="4.85" transform="matrix(1.0, 0.0, 0.0, 1.0, 5.2, -20.05)" width="4.5" xlink:href="#sprite1"/>
    <use ffdec:characterId="7" height="4.25" transform="matrix(1.0, 0.0, 0.0, 1.0, -13.1, -22.75)" width="3.8" xlink:href="#sprite2"/>
    <use ffdec:characterId="7" height="4.25" transform="matrix(1.0, 0.0, 0.0, 1.0, -9.4, -26.2)" width="3.8" xlink:href="#sprite2"/>
    <use ffdec:characterId="7" height="4.25" transform="matrix(1.0, 0.0, 0.0, 1.0, -5.5, -29.35)" width="3.8" xlink:href="#sprite2"/>
    <use ffdec:characterId="7" height="4.25" transform="matrix(1.0, 0.0, 0.0, 1.0, -5.5, -19.2)" width="3.8" xlink:href="#sprite2"/>
  </g>
  <defs>
    <g id="sprite0">
      <use ffdec:characterId="9" height="35.6" transform="matrix(1.0, 0.0, 0.0, 1.0, 0.0, 0.0)" width="35.35" xlink:href="#shape0"/>
    </g>
    <g id="shape0">
      <path d="M0.2 -17.1 L2.8 -16.45 13.3 -12.05 14.95 -11.0 15.1 -10.6 16.65 -7.5 16.85 -7.1 17.0 -5.9 17.0 6.8 Q17.0 9.75 14.45 11.05 L3.55 16.75 2.55 17.15 2.0 17.15 0.2 17.15 0.2 -17.1 M1.25 -9.25 L1.0 -9.5 0.75 -9.25 0.8 -9.05 1.15 -9.05 1.25 -9.25" fill="#d03000" fill-rule="evenodd" stroke="none"/>
      <path d="M0.2 -17.1 L0.2 17.15 -2.4 17.15 -3.6 16.85 -14.5 12.2 Q-17.05 11.1 -17.05 8.15 L-17.05 -4.55 Q-17.05 -5.8 -16.6 -6.3 L-14.6 -10.1 -14.55 -10.2 -13.25 -11.25 -3.75 -16.25 Q-1.85 -17.25 0.2 -17.1" fill="#ffffff" fill-rule="evenodd" stroke="none"/>
      <path d="M-14.5 -6.4 L-3.6 -1.75 Q-1.05 -0.65 -1.05 2.3 L-1.05 15.0 Q-1.05 17.95 -3.6 16.85 L-14.5 12.2 Q-17.05 11.1 -17.05 8.15 L-17.05 -4.55 Q-17.05 -7.5 -14.5 -6.4" fill="#ff9b00" fill-rule="evenodd" stroke="none"/>
      <path d="M-7.2 12.65 Q-7.2 15.2 -5.3 16.35 L-11.15 13.9 -11.15 -4.7 -5.15 -2.15 -5.15 -2.05 Q-7.2 -2.7 -7.2 -0.05 L-7.2 12.65" fill="#ffb50f" fill-rule="evenodd" stroke="none"/>
      <path d="M-12.1 -5.2 L-8.4 -3.6 Q-10.8 -4.55 -10.8 -1.7 L-10.8 11.0 Q-10.8 13.8 -8.45 14.95 L-12.1 13.4 Q-14.65 12.3 -14.65 9.35 L-14.65 -3.35 Q-14.65 -6.3 -12.1 -5.2" fill="#ffe50f" fill-rule="evenodd" stroke="none"/>
      <path d="M14.45 -7.55 Q17.0 -8.85 17.0 -5.9 L17.0 6.8 Q17.0 9.75 14.45 11.05 L3.55 16.75 Q1.0 18.05 1.0 15.1 L1.0 2.4 Q1.0 -0.55 3.55 -1.85 L14.45 -7.55" fill="#e46300" fill-rule="evenodd" stroke="none"/>
      <path d="M6.95 -3.65 L11.35 -5.95 Q13.9 -7.25 13.9 -4.3 L13.9 8.4 Q13.9 11.35 11.35 12.65 L7.4 14.75 Q9.45 13.4 9.45 10.75 L9.45 -1.95 Q9.45 -4.85 6.95 -3.6 L6.95 -3.65" fill="#ff8800" fill-rule="evenodd" stroke="none"/>
      <path d="M2.8 -16.45 L13.3 -12.05 Q16.75 -10.6 13.65 -8.95 L4.15 -3.95 -2.4 -3.75 -12.9 -8.15 Q-16.35 -9.6 -13.25 -11.25 L-3.75 -16.25 2.8 -16.45" fill="#ffe50f" fill-rule="evenodd" stroke="none"/>
      <path d="M2.8 -16.45 L13.3 -12.05 Q16.75 -10.6 13.65 -8.95 L4.15 -3.95 -2.4 -3.75 -12.9 -8.15 Q-16.35 -9.6 -13.25 -11.25 L-3.75 -16.25 2.8 -16.45 Z" ffdec:has-small-stroke="true" ffdec:original-stroke-width="0.5" fill="none" stroke="#ffffff" stroke-linecap="round" stroke-linejoin="round" stroke-width="1.0"/>
      <path d="M-3.75 -16.25 L2.8 -16.45 6.95 -14.7 Q3.65 -16.0 0.65 -14.4 L-8.85 -9.4 Q-11.85 -7.8 -8.7 -6.4 L-12.9 -8.15 Q-16.35 -9.6 -13.25 -11.25 L-3.75 -16.25" fill="#ffffff" fill-rule="evenodd" stroke="none"/>
      <path d="M3.0 -1.55 L0.8 2.0 Q0.1 2.9 -0.8 2.0 L-2.75 -1.05 Q-4.1 -2.85 -2.65 -3.9 L2.6 -3.5 Q3.8 -2.9 3.0 -1.55 M0.9 13.85 L3.25 17.05 -3.3 17.05 -1.05 13.9 -1.0 13.85 Q-0.25 13.05 0.7 13.7 L0.9 13.85" fill="#ffffff" fill-rule="evenodd" stroke="none"/>
      <path d="M13.3 -12.05 Q16.75 -10.6 13.65 -8.95 L4.15 -3.95 3.15 -3.5 Q0.75 -2.65 -1.8 -3.5" ffdec:has-small-stroke="true" ffdec:original-stroke-width="0.5" fill="none" stroke="#ffffff" stroke-linecap="round" stroke-linejoin="round" stroke-width="1.0"/>
      <path d="M16.9 -7.0 Q16.45 -8.55 14.45 -7.55 L3.55 -1.85 3.0 -1.5 1.05 1.6 1.0 2.0 1.0 2.4 1.0 14.0 3.25 17.05" ffdec:has-small-stroke="true" ffdec:original-stroke-width="0.5" fill="none" stroke="#ea3b00" stroke-linecap="round" stroke-linejoin="round" stroke-width="1.0"/>
      <path d="M-16.5 -6.4 Q-15.85 -7.0 -14.5 -6.4 L-3.6 -1.75 -3.05 -1.45 -2.75 -1.05 -1.1 1.55 -1.05 2.3 -1.05 13.9 -3.3 17.05" ffdec:has-small-stroke="true" ffdec:original-stroke-width="0.5" fill="none" stroke="#ffab00" stroke-linecap="round" stroke-linejoin="round" stroke-width="1.0"/>
      <path d="M0.75 14.1 Q-0.1 13.6 -0.8 14.1 L-0.8 1.55 Q0.0 1.95 0.75 1.55 L0.75 14.1" fill="#ffffff" fill-rule="evenodd" stroke="none"/>
      <path d="M-17.05 8.15 Q-17.05 11.1 -14.5 12.2 L-3.6 16.85 -2.4 17.15 2.0 17.15 2.55 17.15 3.55 16.75 14.45 11.05 Q17.0 9.75 17.0 6.8 L17.0 -5.9 16.85 -7.1 16.65 -7.5 15.1 -10.6 14.95 -11.0 13.3 -12.05 2.8 -16.45 -3.75 -16.25 -13.25 -11.25 -14.55 -10.2 -14.6 -10.1 -16.6 -6.3 Q-17.05 -5.8 -17.05 -4.55 L-17.05 8.15 Z" fill="none" stroke="#051632" stroke-linecap="round" stroke-linejoin="round" stroke-width="1.3"/>
    </g>
    <g id="shape1">
      <path d="M4.45 -42.0 Q4.8 -40.85 3.75 -39.85 2.8 -38.8 1.0 -38.55 -0.8 -38.3 -2.35 -39.05 -3.85 -39.75 -4.2 -40.9 -4.55 -42.1 -3.55 -43.15 -2.5 -44.15 -0.7 -44.4 1.1 -44.65 2.55 -43.95 4.1 -43.2 4.45 -42.0" fill="#a77414" fill-rule="evenodd" stroke="none"/>
      <path d="M4.45 -42.0 Q4.8 -40.85 3.75 -39.85 2.8 -38.8 1.0 -38.55 -0.8 -38.3 -2.35 -39.05 -3.85 -39.75 -4.2 -40.9 -4.55 -42.1 -3.55 -43.15 -2.5 -44.15 -0.7 -44.4 1.1 -44.65 2.55 -43.95 4.1 -43.2 4.45 -42.0 Z" ffdec:has-small-stroke="true" ffdec:original-stroke-width="0.5" fill="none" stroke="#ff6b00" stroke-linecap="round" stroke-linejoin="round" stroke-width="1.0"/>
      <path d="M-0.55 -43.4 Q-1.35 -43.1 -1.15 -42.6 -0.9 -42.15 -0.95 -41.55 -1.0 -41.0 -0.25 -40.6 0.4 -40.2 -0.1 -40.1 L-1.8 -40.5 -1.8 -40.95 Q-2.9 -41.45 -2.65 -40.65 -2.4 -39.75 -0.9 -39.35 0.6 -39.0 1.1 -39.35 L3.2 -39.45 Q0.8 -38.25 -1.5 -39.05 -3.85 -39.85 -3.7 -41.4 -3.5 -42.95 -1.65 -43.5 L0.55 -43.55 -0.55 -43.4" fill="#9b2703" fill-rule="evenodd" stroke="none"/>
      <path d="M0.85 -41.9 Q1.15 -43.05 0.65 -43.6 L-0.15 -44.15 Q1.45 -44.25 2.7 -43.5 3.55 -42.9 2.55 -41.85 1.55 -40.9 0.1 -40.1 L0.85 -41.9" fill="#edbd00" fill-rule="evenodd" stroke="none"/>
      <path d="M3.75 -40.0 Q3.15 -39.25 2.1 -39.05 L1.2 -39.0 1.25 -39.7 Q-0.5 -40.05 0.65 -40.05 1.7 -40.1 1.7 -40.4 1.65 -40.7 2.0 -40.7 L2.6 -40.55 Q2.85 -40.5 3.1 -40.8 L3.65 -41.7 Q3.9 -42.25 2.9 -43.35 4.1 -42.75 4.3 -41.75 4.45 -40.8 3.75 -40.0" fill="#091451" fill-rule="evenodd" stroke="none"/>
    </g>
    <g id="sprite1">
      <use ffdec:characterId="4" height="4.85" transform="matrix(1.0, 0.0, 0.0, 1.0, 0.0, 0.0)" width="4.5" xlink:href="#shape2"/>
    </g>
    <g id="shape2">
      <path d="M2.0 1.65 Q1.4 2.35 0.5 2.35 -0.45 2.35 -1.05 1.65 -1.7 0.95 -1.7 -0.1 -1.7 -1.1 -1.05 -1.8 -0.45 -2.5 0.5 -2.5 1.4 -2.5 2.0 -1.8 2.65 -1.1 2.65 -0.1 2.65 0.95 2.0 1.65" fill="#041c9c" fill-rule="evenodd" stroke="none"/>
      <path d="M1.9 -0.05 Q1.9 0.85 1.35 1.45 0.85 2.05 0.05 2.05 -0.75 2.05 -1.35 1.45 -1.85 0.85 -1.85 -0.05 -1.85 -0.9 -1.35 -1.55 -0.75 -2.15 0.05 -2.15 0.85 -2.15 1.35 -1.55 1.9 -0.9 1.9 -0.05" fill="#702300" fill-rule="evenodd" stroke="none"/>
      <path d="M1.4 -0.65 Q1.95 -1.45 1.9 -0.45 L1.8 1.3 Q1.75 2.15 0.85 2.15 L-0.55 2.0 Q-1.0 1.8 -0.65 1.5 -0.35 1.1 -0.7 0.35 L-0.9 0.05 -0.4 0.05 0.3 0.1 Q0.8 0.05 1.4 -0.65" fill="#041c9c" fill-rule="evenodd" stroke="none"/>
      <path d="M0.85 -1.55 Q1.75 -1.7 2.0 -0.15 L1.65 1.05 Q1.2 1.9 0.3 1.9 -0.35 1.9 -0.75 1.25 L-0.6 1.0 -0.9 -0.2 -0.9 -0.3 Q0.2 1.05 0.85 0.85 1.55 0.65 1.55 -0.3 1.55 -1.25 0.85 -1.55" fill="#c1a613" fill-rule="evenodd" stroke="none"/>
      <path d="M0.85 1.55 Q0.8 1.95 0.1 1.9 -0.55 1.8 -0.4 1.3 -0.2 0.75 0.35 0.95 0.9 1.2 0.85 1.55" fill="#fffd73" fill-rule="evenodd" stroke="none"/>
    </g>
    <g id="sprite2">
      <use ffdec:characterId="6" height="4.25" transform="matrix(1.0, 0.0, 0.0, 1.0, 0.0, 0.0)" width="3.8" xlink:href="#shape3"/>
    </g>
    <g id="shape3">
      <path d="M-0.35 -1.9 Q0.35 -1.9 0.85 -1.3 1.4 -0.7 1.45 0.2 1.55 1.1 1.05 1.65 0.6 2.3 -0.1 2.3 -0.75 2.3 -1.35 1.65 -1.85 1.1 -1.95 0.2 -2.0 -0.7 -1.55 -1.3 -1.0 -1.9 -0.35 -1.9" fill="#ffe039" fill-rule="evenodd" stroke="none"/>
      <path d="M0.0 -1.95 Q0.7 -1.95 1.25 -1.4 1.8 -0.85 1.85 0.0 1.9 0.8 1.45 1.3 0.95 1.9 0.25 1.9 -0.4 1.9 -0.95 1.3 -1.5 0.8 -1.55 0.0 -1.6 -0.85 -1.15 -1.4 -0.65 -1.95 0.0 -1.95" fill="#401f60" fill-rule="evenodd" stroke="none"/>
      <path d="M0.05 0.4 L1.05 -0.1 Q0.95 0.5 1.0 1.05 1.05 1.65 0.3 1.7 -0.5 1.75 -1.0 0.85 -1.5 -0.1 -1.2 -0.6 -1.1 0.45 0.05 0.4" fill="#d03000" fill-rule="evenodd" stroke="none"/>
    </g>
  </defs>
</svg>
