<?xml version="1.0" encoding="UTF-8" standalone="no"?>
<svg xmlns:ffdec="https://www.free-decompiler.com/flash" xmlns:xlink="http://www.w3.org/1999/xlink" ffdec:objectType="frame" height="38.85px" width="38.9px" xmlns="http://www.w3.org/2000/svg">
  <g transform="matrix(1.0, 0.0, 0.0, 1.0, 20.75, 63.3)">
    <use ffdec:characterId="2" height="38.85" transform="matrix(1.0, 0.0, 0.0, 1.0, 3.05, -41.7)" width="38.9" xlink:href="#sprite0"/>
  </g>
  <defs>
    <g id="sprite0">
      <use ffdec:characterId="1" height="38.85" transform="matrix(1.0, 0.0, 0.0, 1.0, 0.0, 0.0)" width="38.9" xlink:href="#shape0"/>
    </g>
    <g id="shape0">
      <path d="M-22.4 -6.2 Q-21.35 -11.3 -17.4 -15.25 -12.0 -20.6 -4.35 -20.6 3.3 -20.6 8.7 -15.25 14.1 -9.85 14.1 -2.2 14.1 -0.25 13.75 1.55 12.75 6.85 8.7 10.85 3.3 16.25 -4.35 16.25 -12.0 16.25 -17.4 10.85 -22.8 5.5 -22.8 -2.2 -22.8 -4.3 -22.4 -6.2" fill="#000000" fill-rule="evenodd" stroke="none"/>
      <path d="M-22.4 -6.2 Q-21.35 -11.3 -17.4 -15.25 -12.0 -20.6 -4.35 -20.6 3.3 -20.6 8.7 -15.25 14.1 -9.85 14.1 -2.2 14.1 -0.25 13.75 1.55 12.75 6.85 8.7 10.85 3.3 16.25 -4.35 16.25 -12.0 16.25 -17.4 10.85 -22.8 5.5 -22.8 -2.2 -22.8 -4.3 -22.4 -6.2 Z" fill="none" stroke="#000000" stroke-linecap="round" stroke-linejoin="round" stroke-width="2.0"/>
      <path d="M-22.2 -7.0 Q-21.0 -11.65 -17.4 -15.25 -12.0 -20.6 -4.35 -20.6 3.3 -20.6 8.7 -15.25 14.1 -9.85 14.1 -2.2 L13.8 1.45 13.75 1.55 13.7 1.8 Q12.65 6.95 8.7 10.85 3.3 16.25 -4.35 16.25 -12.0 16.25 -17.4 10.85 -22.8 5.5 -22.8 -2.2 -22.8 -4.3 -22.4 -6.2 L-22.3 -6.6 -22.2 -7.0" fill="#000000" fill-rule="evenodd" stroke="none"/>
      <path d="M13.8 1.45 L13.75 1.55" fill="none" stroke="#753419" stroke-linecap="round" stroke-linejoin="round" stroke-width="1.0"/>
      <path d="M-22.2 -7.0 Q-21.0 -11.65 -17.4 -15.25 -12.0 -20.6 -4.35 -20.6 3.3 -20.6 8.7 -15.25 14.1 -9.85 14.1 -2.2 L13.8 1.45" fill="none" stroke="#ffffff" stroke-linecap="round" stroke-linejoin="round" stroke-width="1.0"/>
      <path d="M13.75 1.55 L13.7 1.8 Q12.65 6.95 8.7 10.85 3.3 16.25 -4.35 16.25 -12.0 16.25 -17.4 10.85 -22.8 5.5 -22.8 -2.2 -22.8 -4.3 -22.4 -6.2 L-22.3 -6.6 -22.2 -7.0" fill="none" stroke="#666666" stroke-linecap="round" stroke-linejoin="round" stroke-width="1.0"/>
      <path d="M14.1 -2.2 Q14.1 5.5 8.7 10.85 3.3 16.25 -4.35 16.25 -12.0 16.25 -17.4 10.85 -22.8 5.5 -22.8 -2.2 -22.8 -9.85 -17.4 -15.25 -12.0 -20.6 -4.35 -20.6 3.3 -20.6 8.7 -15.25 14.1 -9.85 14.1 -2.2" fill="#d2d2d2" fill-rule="evenodd" stroke="none"/>
      <path d="M10.6 -5.45 Q10.6 0.45 6.45 4.65 2.25 8.8 -3.65 8.8 -9.6 8.8 -13.75 4.65 -17.95 0.45 -17.95 -5.45 -17.95 -11.4 -13.75 -15.55 -9.6 -19.7 -3.65 -19.7 2.25 -19.7 6.45 -15.55 10.6 -11.4 10.6 -5.45" fill="#e2e2e2" fill-rule="evenodd" stroke="none"/>
      <path d="M3.65 12.7 Q-1.95 15.25 -8.05 13.75 -14.5 12.15 -17.95 7.3 -20.1 4.3 -20.65 1.05 -19.25 3.7 -14.0 7.45 -5.15 13.9 9.1 8.3 7.2 11.1 3.65 12.7" fill="#b4b4b4" fill-rule="evenodd" stroke="none"/>
      <path d="M9.1 -7.15 Q9.1 -2.1 5.55 1.45 2.0 5.0 -3.0 5.0 -8.05 5.0 -11.55 1.45 -15.1 -2.1 -15.1 -7.15 -15.1 -12.15 -11.55 -15.7 -8.05 -19.25 -3.0 -19.25 2.0 -19.25 5.55 -15.7 9.1 -12.15 9.1 -7.15" fill="#ececec" fill-rule="evenodd" stroke="none"/>
      <path d="M4.05 -12.0 Q4.05 -9.7 2.4 -8.1 0.8 -6.5 -1.45 -6.5 -3.75 -6.5 -5.35 -8.1 -6.95 -9.7 -6.95 -12.0 -6.95 -14.3 -5.35 -15.9 -3.75 -17.5 -1.45 -17.5 0.8 -17.5 2.4 -15.9 4.05 -14.3 4.05 -12.0" fill="#f6f6f6" fill-rule="evenodd" stroke="none"/>
      <path d="M1.15 -13.7 Q1.15 -12.65 0.4 -11.85 -0.35 -11.1 -1.45 -11.1 -2.5 -11.1 -3.25 -11.85 -4.05 -12.65 -4.05 -13.7 -4.05 -14.8 -3.25 -15.55 -2.5 -16.3 -1.45 -16.3 -0.35 -16.3 0.4 -15.55 1.15 -14.8 1.15 -13.7" fill="#ffffff" fill-rule="evenodd" stroke="none"/>
      <path d="M-20.1 -11.75 L-13.95 -17.9 -10.65 -19.25 -13.1 -14.1 -6.9 -10.4 0.95 -11.7 3.0 -17.0 -2.95 -20.3 0.65 -19.95 5.15 -17.95 8.2 -15.6 3.45 -16.85 3.45 -16.8 1.4 -11.5 5.2 -4.5 11.45 -2.6 12.85 -8.0 14.05 -2.55 13.45 2.2 11.6 4.45 11.6 4.2 6.2 10.75 4.55 13.8 -3.8 15.9 -5.65 13.6 -13.5 9.7 -18.35 9.85 -21.75 2.95 -19.8 -1.2 -19.75 -1.15 -19.15 -9.6 -19.25 -9.55 -20.1 -11.75 M-5.3 13.25 L-5.2 13.35 0.75 9.7 -0.15 2.3 -7.75 -1.1 -14.5 3.55 -13.35 9.6 -5.3 13.25 M-14.6 2.95 L-14.6 3.0 -7.85 -1.6 -7.2 -9.95 -13.45 -13.7 -18.6 -10.0 -19.3 -0.8 -14.6 2.95 M11.4 -2.05 L5.35 -3.9 0.3 2.0 1.25 9.65 6.0 10.2 11.6 3.45 11.4 -2.05" fill="#000000" fill-opacity="0.9490196" fill-rule="evenodd" stroke="none"/>
      <path d="M14.1 -2.2 Q14.1 5.5 8.7 10.85 3.3 16.25 -4.35 16.25 -12.0 16.25 -17.4 10.85 -22.8 5.5 -22.8 -2.2 -22.8 -9.85 -17.4 -15.25 -12.0 -20.6 -4.35 -20.6 L-2.95 -20.55 Q0.15 -19.55 3.25 -19.05 6.2 -17.7 8.7 -15.25 14.1 -9.85 14.1 -2.2" fill="url(#gradient0)" fill-rule="evenodd" stroke="none"/>
    </g>
    <radialGradient cx="0" cy="0" gradientTransform="matrix(5.0E-4, 0.0178, 0.0249, 0.0031, -4.85, 4.25)" gradientUnits="userSpaceOnUse" id="gradient0" r="819.2" spreadMethod="pad">
      <stop offset="0.0" stop-color="#fafafa" stop-opacity="0.4"/>
      <stop offset="0.5607843137254902" stop-color="#b8b8b8" stop-opacity="0.34901962"/>
      <stop offset="1.0" stop-color="#e9e9e9" stop-opacity="0.0"/>
    </radialGradient>
  </defs>
</svg>
