<?xml version="1.0" encoding="UTF-8" standalone="no"?>
<svg xmlns:ffdec="https://www.free-decompiler.com/flash" xmlns:xlink="http://www.w3.org/1999/xlink" ffdec:objectType="frame" height="33.5px" width="38.3px" xmlns="http://www.w3.org/2000/svg">
  <g transform="matrix(1.0, 0.0, 0.0, 1.0, 18.5, 68.9)">
    <use ffdec:characterId="48" height="33.5" transform="matrix(1.0, 0.0, 0.0, 1.0, -18.25, -68.6)" width="38.3" xlink:href="#sprite0"/>
  </g>
  <defs>
    <g id="sprite0">
      <filter color-interpolation-filters="sRGB" height="300%" id="filter0" width="300%" x="-100%" y="-100%">
        <feOffset dx="0.0" dy="0.0" in="SourceGraphic" result="filterResult0"/>
        <feColorMatrix in="filterResult0" result="filterResult1" type="matrix" values="0 0 0 0 1.0,0 0 0 0 0.7882353,0 0 0 0 0.19215687,0 0 0 1.0 0"/>
        <feGaussianBlur in="filterResult1" result="filterResult2" stdDeviation="2.8722813232690143 2.8722813232690143"/>
        <feComposite in="SourceGraphic" in2="filterResult2" operator="over" result="filterResult3"/>
      </filter>
      <use ffdec:characterId="9" filter="url(#filter0)" height="33.45" transform="matrix(1.0, 0.0, 0.0, 1.0, -0.05, -1.0)" width="38.2" xlink:href="#sprite1"/>
    </g>
    <g id="sprite1">
      <use ffdec:characterId="6" height="33.45" transform="matrix(1.0, 0.0, 0.0, 1.0, 0.0, 0.0)" width="38.2" xlink:href="#shape0"/>
      <clipPath id="clipPath0">
        <path d="M 29.47 12.7 L 29.54 12.88 L 29.61 13.09 L 29.65 13.33 L 29.69 13.6 L 29.7 13.9 L 29.71 14.24 L 29.69 14.6 L 29.67 15 L 29.67 14.9 L 29.54 15.55 L 29.39 16.17 L 29.22 16.76 L 29.02 17.33 L 28.8 17.86 L 28.56 18.37 L 28.29 18.85 L 28.01 19.3 L 28.01 19.25 L 26.74 20.55 L 26.74 17.55 L 27.61 14.35 L 27.72 14.12 L 27.85 13.89 L 28 13.68 L 28.17 13.48 L 28.37 13.28 L 28.58 13.09 L 28.82 12.92 L 29.07 12.75 L 29 12.75 L 29.47 12.7 Z M 6 3.72 L 5.79 3.74 L 5.58 3.77 L 5.36 3.82 L 5.15 3.9 L 4.96 3.99 L 4.78 4.1 L 4.61 4.23 L 4.45 4.36 L 4.31 4.51 L 4.18 4.68 L 4.06 4.86 L 3.95 5.05 L 3.87 5.26 L 3.8 5.47 L 3.77 5.68 L 3.75 5.89 L 3.77 6.09 L 3.8 6.3 L 3.87 6.5 L 3.95 6.7 L 4.03 6.91 L 4.12 7.1 L 4.24 7.27 L 4.37 7.44 L 4.52 7.59 L 4.69 7.72 L 4.88 7.84 L 5.08 7.95 L 5.48 9.55 L 5.48 9.85 L 5.48 23.2 L 5.49 23.42 L 5.52 23.63 L 5.58 23.84 L 5.65 24.04 L 5.74 24.23 L 5.86 24.41 L 5.99 24.58 L 6.15 24.75 L 6.3 24.9 L 6.47 25.03 L 6.64 25.15 L 6.83 25.24 L 7.02 25.31 L 7.23 25.36 L 7.45 25.39 L 7.67 25.4 L 7.9 25.39 L 8.12 25.36 L 8.33 25.31 L 8.54 25.24 L 8.73 25.15 L 8.92 25.03 L 9.1 24.9 L 9.27 24.75 L 9.41 24.58 L 9.53 24.41 L 9.63 24.23 L 9.72 24.04 L 9.78 23.84 L 9.83 23.63 L 9.86 23.42 L 9.87 23.2 L 9.87 10 L 9.97 9.79 L 10.1 9.6 L 10.23 9.43 L 10.38 9.26 L 10.55 9.11 L 10.73 8.98 L 10.92 8.86 L 11.13 8.75 L 11.29 8.69 L 11.45 8.65 L 11.61 8.63 L 11.77 8.62 L 11.9 8.63 L 12.04 8.64 L 12.18 8.67 L 12.31 8.72 L 12.45 8.77 L 12.58 8.83 L 12.72 8.91 L 12.86 9 L 13.52 9.95 L 13.92 11.65 L 13.92 23.2 L 13.93 23.42 L 13.96 23.63 L 14.01 23.84 L 14.09 24.04 L 14.18 24.23 L 14.29 24.41 L 14.43 24.58 L 14.58 24.75 L 14.74 24.9 L 14.9 25.03 L 15.08 25.15 L 15.27 25.24 L 15.46 25.31 L 15.67 25.36 L 15.89 25.39 L 16.11 25.4 L 16.34 25.39 L 16.56 25.36 L 16.77 25.31 L 16.98 25.24 L 17.17 25.15 L 17.36 25.03 L 17.54 24.9 L 17.71 24.75 L 18.31 23.2 L 18.31 11.9 L 18.38 11.56 L 18.47 11.22 L 18.58 10.9 L 18.7 10.59 L 18.85 10.29 L 19 10 L 19.18 9.72 L 19.37 9.45 L 19.44 9.4 L 20.03 8.85 L 20.17 8.8 L 20.31 8.76 L 20.44 8.74 L 20.57 8.73 L 20.68 8.73 L 20.8 8.75 L 20.91 8.79 L 21.02 8.83 L 21.13 8.89 L 21.23 8.97 L 21.33 9.05 L 21.43 9.15 L 21.5 9.15 L 21.65 9.3 L 21.8 9.47 L 21.93 9.64 L 22.04 9.82 L 22.14 10.02 L 22.23 10.22 L 22.3 10.43 L 22.36 10.65 L 22.36 17.15 L 22.36 17.5 L 22.36 22.7 L 22.49 23.4 L 20.96 24.35 L 20.77 24.47 L 20.6 24.6 L 20.44 24.75 L 20.3 24.91 L 20.17 25.09 L 20.07 25.28 L 19.98 25.48 L 19.9 25.7 L 19.84 25.9 L 19.81 26.1 L 19.79 26.31 L 19.8 26.51 L 19.83 26.72 L 19.88 26.93 L 19.94 27.14 L 20.03 27.35 L 20.16 27.54 L 20.29 27.72 L 20.44 27.87 L 20.6 28.01 L 20.77 28.14 L 20.96 28.24 L 21.15 28.33 L 21.36 28.4 L 23.02 28.2 L 24.55 27.35 L 25.62 28.8 L 25.77 28.95 L 25.93 29.09 L 26.11 29.22 L 26.3 29.33 L 26.49 29.42 L 26.7 29.49 L 26.92 29.55 L 27.14 29.6 L 27.29 29.6 L 27.48 29.6 L 27.67 29.57 L 27.86 29.53 L 28.04 29.48 L 28.22 29.41 L 28.4 29.32 L 28.57 29.22 L 28.74 29.1 L 28.9 28.96 L 29.04 28.8 L 29.16 28.64 L 29.27 28.46 L 29.36 28.28 L 29.44 28.08 L 29.49 27.87 L 29.54 27.65 L 29.54 27.43 L 29.53 27.21 L 29.5 27 L 29.45 26.8 L 29.39 26.6 L 29.3 26.41 L 29.19 26.23 L 29.07 26.05 L 28.14 24.85 L 28.69 24.53 L 29.2 24.19 L 29.69 23.84 L 30.13 23.46 L 30.55 23.07 L 30.93 22.67 L 31.28 22.24 L 31.6 21.8 L 31.81 21.48 L 32.01 21.16 L 32.21 20.82 L 32.39 20.48 L 32.57 20.12 L 32.74 19.76 L 32.9 19.38 L 33.06 19 L 33.2 18.61 L 33.34 18.21 L 33.47 17.8 L 33.59 17.38 L 33.7 16.95 L 33.8 16.51 L 33.99 15.6 L 33.99 15.5 L 34.05 14.93 L 34.09 14.39 L 34.11 13.87 L 34.1 13.37 L 34.08 12.9 L 34.02 12.45 L 33.95 12.02 L 33.85 11.62 L 33.74 11.25 L 33.59 10.9 L 33.43 10.57 L 33.24 10.27 L 33.03 9.99 L 32.8 9.74 L 32.54 9.51 L 32.26 9.3 L 31.91 9.03 L 31.56 8.8 L 31.2 8.6 L 30.84 8.44 L 30.48 8.31 L 30.12 8.22 L 29.75 8.17 L 29.38 8.15 L 29.05 8.16 L 28.71 8.21 L 28.36 8.28 L 28.02 8.39 L 27.67 8.52 L 27.32 8.68 L 26.97 8.88 L 26.61 9.1 L 26.48 9.2 L 26.33 8.72 L 26.15 8.26 L 25.94 7.82 L 25.7 7.4 L 25.43 7 L 25.12 6.61 L 24.79 6.25 L 24.42 5.9 L 24.2 5.71 L 23.99 5.53 L 23.77 5.36 L 23.55 5.21 L 23.32 5.07 L 23.1 4.94 L 22.87 4.82 L 22.64 4.72 L 22.4 4.62 L 22.17 4.54 L 21.93 4.47 L 21.69 4.42 L 21.45 4.38 L 21.21 4.35 L 20.96 4.33 L 20.72 4.32 L 20.44 4.33 L 20.16 4.35 L 19.88 4.39 L 19.6 4.44 L 19.31 4.51 L 19.02 4.59 L 18.73 4.69 L 18.44 4.8 L 18.37 4.85 L 18.06 4.98 L 17.77 5.13 L 17.49 5.29 L 17.23 5.46 L 16.98 5.65 L 16.74 5.85 L 16.52 6.07 L 16.31 6.3 L 15.52 5.55 L 15.45 5.5 L 15 5.18 L 14.55 4.91 L 14.09 4.68 L 13.87 4.58 L 13.64 4.49 L 13.41 4.41 L 13.18 4.34 L 12.95 4.29 L 12.71 4.24 L 12.48 4.2 L 12.25 4.18 L 12.01 4.16 L 11.78 4.16 L 11.48 4.16 L 11.17 4.19 L 10.87 4.23 L 10.57 4.29 L 10.26 4.37 L 9.95 4.46 L 9.65 4.57 L 9.34 4.7 L 9.4 4.7 L 8.54 5.15 L 8.35 4.93 L 8.16 4.73 L 7.95 4.55 L 7.74 4.39 L 7.52 4.24 L 7.29 4.11 L 7.06 4 L 6.81 3.9 L 6.61 3.82 L 6.41 3.77 L 6.2 3.74 L 6 3.72 Z"/>
      </clipPath>
      <g clip-path="url(#clipPath0)">
        <use ffdec:characterId="7" height="27.85" transform="matrix(1.0, 0.0, 0.0, 1.0, 0.0, 0.0)" width="34.6" xlink:href="#shape1"/>
      </g>
      <use ffdec:characterId="8" height="26.5" transform="matrix(1.0, 0.0, 0.0, 1.0, 0.0, 0.0)" width="30.95" xlink:href="#shape2"/>
    </g>
    <g id="shape0">
      <path d="M1.9 10.25 L1.9 10.05 1.55 9.75 Q0.8 9.0 0.45 8.05 -0.35 6.05 0.45 4.15 L0.5 4.05 Q1.45 2.1 3.4 1.4 L3.25 1.45 Q5.2 0.6 7.2 1.45 L8.65 2.25 Q9.25 1.65 10.05 1.6 13.25 1.0 16.3 3.05 L17.3 2.35 Q22.4 0.25 26.6 4.05 L28.15 6.15 30.75 6.0 Q32.65 5.8 34.95 7.3 37.3 8.85 37.7 12.6 L37.55 16.45 37.5 16.85 Q36.75 21.4 34.75 24.05 L32.4 26.7 Q32.95 27.9 32.85 29.35 L32.85 29.5 Q32.5 31.45 31.1 32.75 L30.95 32.85 Q29.25 34.1 27.25 33.9 L27.15 33.9 Q25.15 33.6 23.95 32.25 23.35 32.65 22.6 32.75 L20.65 32.55 20.55 32.5 Q18.6 31.85 17.65 30.1 L17.6 30.05 17.3 29.25 15.9 29.45 Q13.7 29.45 12.3 28.0 L11.45 26.9 10.7 27.95 10.55 28.05 Q9.1 29.45 7.0 29.45 4.8 29.45 3.45 28.0 1.9 26.5 1.9 24.35 L1.9 10.25" fill="#ee4b12" fill-rule="evenodd" stroke="none"/>
      <path d="M1.9 10.25 L1.9 24.35 Q1.9 26.5 3.45 28.0 4.8 29.45 7.0 29.45 9.1 29.45 10.55 28.05 L10.7 27.95 11.45 26.9 12.3 28.0 Q13.7 29.45 15.9 29.45 L17.3 29.25 17.6 30.05 17.65 30.1 Q18.6 31.85 20.55 32.5 L20.65 32.55 22.6 32.75 Q23.35 32.65 23.95 32.25 25.15 33.6 27.15 33.9 L27.25 33.9 Q29.25 34.1 30.95 32.85 L31.1 32.75 Q32.5 31.45 32.85 29.5 L32.85 29.35 Q32.95 27.9 32.4 26.7 L34.75 24.05 Q36.75 21.4 37.5 16.85 L37.55 16.45 37.7 12.6 Q37.3 8.85 34.95 7.3 32.65 5.8 30.75 6.0 L28.15 6.15 26.6 4.05 Q22.4 0.25 17.3 2.35 L16.3 3.05 Q13.25 1.0 10.05 1.6 9.25 1.65 8.65 2.25 L7.2 1.45 Q5.2 0.6 3.25 1.45 L3.4 1.4 Q1.45 2.1 0.5 4.05 L0.45 4.15 Q-0.35 6.05 0.45 8.05 0.8 9.0 1.55 9.75 L1.9 10.05 1.9 10.25 Z" ffdec:has-small-stroke="true" ffdec:original-stroke-width="0.5" fill="none" stroke="#ffc300" stroke-linecap="round" stroke-linejoin="round" stroke-width="1.0"/>
    </g>
    <g id="shape1">
      <path d="M36.9 2.6 L36.9 30.45 2.3 30.45 2.3 2.6 36.9 2.6" fill="url(#gradient0)" fill-rule="evenodd" stroke="none"/>
    </g>
    <linearGradient gradientTransform="matrix(0.0, 0.017, -0.0211, 0.0, 19.6, 16.5)" gradientUnits="userSpaceOnUse" id="gradient0" spreadMethod="pad" x1="-819.2" x2="819.2">
      <stop offset="0.0" stop-color="#ff2206"/>
      <stop offset="0.24313725490196078" stop-color="#f59f46"/>
      <stop offset="0.4" stop-color="#f7ff8f"/>
      <stop offset="0.6274509803921569" stop-color="#f6ef81"/>
      <stop offset="0.7686274509803922" stop-color="#f7ab39"/>
      <stop offset="1.0" stop-color="#ff6b06"/>
    </linearGradient>
    <g id="shape2">
      <path d="M33.95 15.6 L33.95 15.75 Q33.55 13.7 32.2 12.8 29.55 10.6 26.6 12.6 L26.45 12.7 Q25.9 10.75 24.4 9.4 21.75 6.95 18.4 8.3 L18.3 8.35 Q17.1 8.85 16.25 9.8 L15.45 9.05 15.45 9.0 Q12.5 6.8 9.35 8.2 L9.4 8.2 8.5 8.65 Q7.8 7.75 6.8 7.4 5.95 7.05 5.15 7.4 L4.65 7.7 Q4.1 7.3 3.9 6.7 3.55 5.9 3.9 5.05 4.3 4.25 5.15 3.9 5.95 3.55 6.8 3.9 7.8 4.25 8.5 5.15 L9.4 4.7 9.35 4.7 Q12.5 3.3 15.45 5.5 L15.45 5.55 16.25 6.3 Q17.1 5.35 18.3 4.85 L18.4 4.8 Q21.75 3.45 24.4 5.9 25.9 7.25 26.45 9.2 L26.6 9.1 Q29.55 7.1 32.2 9.3 34.5 10.85 33.95 15.5 L33.95 15.6 M28.0 22.75 L26.7 24.05 26.7 21.05 26.85 20.45 28.0 19.25 28.0 19.3 Q28.85 18.0 29.35 16.2 L29.45 16.2 Q29.8 16.85 29.6 18.5 L29.6 18.4 Q29.15 21.05 28.0 22.8 L28.0 22.75 M22.3 26.2 L22.45 26.9 20.95 27.85 20.65 28.05 20.0 27.35 Q19.6 26.5 19.85 25.7 20.1 24.8 20.95 24.35 L22.3 23.55 22.3 26.2" fill="#fe2b14" fill-rule="evenodd" stroke="none"/>
      <path d="M24.75 7.7 L25.9 10.6 Q29.3 8.4 32.0 10.75 L32.55 11.45 Q32.4 12.0 31.85 11.7 30.75 11.1 29.4 11.2 27.9 11.55 27.2 12.35 26.5 13.1 25.35 13.1 24.2 13.05 24.1 11.7 24.0 10.4 23.15 8.7 22.25 6.95 21.45 6.4 L20.3 5.65 Q19.95 5.45 21.0 5.4 22.0 5.35 23.2 6.1 L24.75 7.7" fill="#feffe5" fill-rule="evenodd" stroke="none"/>
      <path d="M15.65 21.25 Q16.05 22.95 17.2 24.2 16.45 24.7 15.8 24.55 15.1 24.35 14.85 24.0 14.55 23.6 14.65 20.4 14.7 17.15 14.95 18.3 L15.65 21.25" fill="#feffe5" fill-rule="evenodd" stroke="none"/>
      <path d="M13.1 7.3 Q10.9 6.15 10.1 6.25 11.75 5.4 12.95 5.55 14.9 5.7 15.6 7.2 16.05 9.05 13.1 7.3" fill="#feffe5" fill-rule="evenodd" stroke="none"/>
      <path d="M22.1 24.55 L23.05 23.95 24.55 23.3 Q25.65 22.9 25.25 23.9 24.8 24.85 23.25 26.0 21.7 27.1 20.9 26.4 L20.85 26.35 Q21.2 25.15 22.1 24.55" fill="#feffe5" fill-rule="evenodd" stroke="none"/>
      <path d="M7.4 21.25 Q7.8 22.95 8.95 24.2 L7.55 24.55 Q6.85 24.35 6.6 24.0 6.3 23.6 6.4 20.4 6.45 17.15 6.7 18.3 L7.4 21.25" fill="#feffe5" fill-rule="evenodd" stroke="none"/>
      <path d="M6.25 5.0 Q7.2 5.2 7.2 5.8 L5.1 5.85 Q5.2 4.75 6.25 5.0" fill="#feffe5" fill-rule="evenodd" stroke="none"/>
      <path d="M9.85 23.2 L9.85 10.0 Q10.25 9.15 11.1 8.75 11.95 8.4 12.8 9.0 L13.5 9.95 13.9 11.65 13.9 23.2 Q13.9 24.1 14.55 24.75 15.15 25.4 16.1 25.4 17.0 25.4 17.65 24.75 18.25 24.1 18.25 23.2 L18.25 11.9 Q18.55 10.5 19.3 9.45 L19.4 9.4 Q19.65 9.05 20.0 8.85 20.75 8.5 21.45 9.15 22.15 9.75 22.3 10.65 L22.3 17.15 22.3 17.5 22.3 22.7 22.45 23.4 20.95 24.35 Q20.1 24.8 19.85 25.7 19.6 26.5 20.0 27.35 20.45 28.15 21.35 28.4 L23.0 28.2 24.5 27.35 25.6 28.8 Q26.15 29.45 27.05 29.6 27.95 29.65 28.7 29.1 29.35 28.55 29.5 27.65 29.55 26.75 29.0 26.05 L28.1 24.85 Q30.35 23.6 31.6 21.8 33.3 19.3 33.95 15.6 L33.95 15.5 Q34.5 10.85 32.2 9.3 29.55 7.1 26.6 9.1 L26.45 9.2 Q25.9 7.25 24.4 5.9 21.75 3.45 18.4 4.8 L18.3 4.85 Q17.1 5.35 16.25 6.3 L15.45 5.55 15.45 5.5 Q12.5 3.3 9.35 4.7 L9.4 4.7 8.5 5.15 Q7.8 4.25 6.8 3.9 5.95 3.55 5.15 3.9 4.3 4.25 3.9 5.05 3.55 5.9 3.9 6.7 4.2 7.55 5.05 7.95 L5.5 9.55 5.5 9.85 5.5 23.2 Q5.5 24.1 6.15 24.75 6.75 25.4 7.7 25.4 8.6 25.4 9.25 24.75 9.85 24.1 9.85 23.2 M28.0 19.25 L26.7 20.55 26.7 17.55 Q27.1 15.65 27.6 14.35 28.0 13.4 29.0 12.75 L28.95 12.75 29.45 12.7 Q29.8 13.35 29.6 15.0 L29.6 14.9 Q29.15 17.55 28.0 19.3 L28.0 19.25 Z" ffdec:has-small-stroke="true" ffdec:original-stroke-width="0.6" fill="none" stroke="#e9ff99" stroke-linecap="round" stroke-linejoin="round" stroke-width="1.0"/>
    </g>
  </defs>
</svg>
