<?xml version="1.0" encoding="UTF-8" standalone="no"?>
<svg xmlns:ffdec="https://www.free-decompiler.com/flash" xmlns:xlink="http://www.w3.org/1999/xlink" ffdec:objectType="frame" height="24.05px" width="68.9px" xmlns="http://www.w3.org/2000/svg">
  <g transform="matrix(1.0, 0.0, 0.0, 1.0, 30.45, 65.95)">
    <use ffdec:characterId="31" height="24.05" transform="matrix(1.0, 0.0, 0.0, 1.0, -25.2, -64.4)" width="68.9" xlink:href="#sprite0"/>
  </g>
  <defs>
    <g id="sprite0">
      <use ffdec:characterId="30" height="20.2" transform="matrix(1.0, 0.0, 0.0, 1.0, 0.0, 0.0)" width="58.75" xlink:href="#sprite1"/>
      <use ffdec:characterId="27" height="5.0" transform="matrix(-1.0, 0.0, 0.0, -1.0, -0.2, 4.3)" width="3.35" xlink:href="#sprite15"/>
    </g>
    <g id="sprite1">
      <use ffdec:characterId="5" height="4.5" transform="matrix(1.0, 0.0, 0.0, 1.0, 36.05, 12.15)" width="10.4" xlink:href="#sprite2"/>
      <use ffdec:characterId="8" height="4.5" transform="matrix(1.0, 0.0, 0.0, 1.0, 28.85, 15.7)" width="3.3" xlink:href="#sprite4"/>
      <use ffdec:characterId="11" height="5.95" transform="matrix(1.0, 0.0, 0.0, 1.0, 20.3, 0.0)" width="9.75" xlink:href="#sprite6"/>
      <use ffdec:characterId="14" height="14.7" transform="matrix(1.0, 0.0, 0.0, 1.0, 47.25, 2.8)" width="11.2" xlink:href="#sprite8"/>
      <use ffdec:characterId="17" height="14.05" transform="matrix(1.0, 0.0, 0.0, 1.0, 0.0, 4.15)" width="51.4" xlink:href="#sprite10"/>
      <use ffdec:characterId="20" height="5.5" transform="matrix(1.0, 0.0, 0.0, 1.0, 15.6, 12.75)" width="8.95" xlink:href="#sprite12"/>
      <use ffdec:characterId="2" height="8.0" transform="matrix(1.0, 0.0, 0.0, 1.0, 3.0, 5.1)" width="7.2" xlink:href="#sprite14"/>
    </g>
    <g id="sprite2">
      <use ffdec:characterId="4" height="4.5" transform="matrix(1.0, 0.0, 0.0, 1.0, 0.0, 0.0)" width="9.8" xlink:href="#sprite3"/>
    </g>
    <g id="sprite3">
      <use ffdec:characterId="3" height="4.5" transform="matrix(1.0, 0.0, 0.0, 1.0, 0.0, 0.0)" width="9.8" xlink:href="#shape0"/>
    </g>
    <g id="shape0">
      <path d="M8.55 0.15 L9.45 0.95 Q9.7 1.05 7.75 2.1 4.45 4.6 3.5 4.15 L1.1 2.8 Q-0.35 1.9 0.15 1.55 0.75 1.15 3.6 0.45 L8.55 0.15" fill="#a9abba" fill-rule="evenodd" stroke="none"/>
      <path d="M8.55 0.15 L9.45 0.95 Q9.7 1.05 7.75 2.1 4.45 4.6 3.5 4.15 L1.1 2.8 Q-0.35 1.9 0.15 1.55 0.75 1.15 3.6 0.45 L8.55 0.15 Z" ffdec:has-small-stroke="true" ffdec:original-stroke-width="0.3" fill="none" stroke="#2e397d" stroke-linecap="round" stroke-linejoin="round" stroke-width="1.0"/>
    </g>
    <g id="sprite4">
      <use ffdec:characterId="7" height="4.5" transform="matrix(1.0, 0.0, 0.0, 1.0, 0.0, 0.0)" width="2.8" xlink:href="#sprite5"/>
    </g>
    <g id="sprite5">
      <use ffdec:characterId="6" height="4.5" transform="matrix(1.0, 0.0, 0.0, 1.0, 0.0, 0.0)" width="2.8" xlink:href="#shape1"/>
    </g>
    <g id="shape1">
      <path d="M2.5 1.1 L1.75 3.95 1.55 4.2 Q-0.45 1.05 0.15 0.0 L0.65 0.05 Q1.65 0.3 2.5 1.1" fill="#a9abba" fill-rule="evenodd" stroke="none"/>
      <path d="M2.5 1.1 L1.75 3.95 1.55 4.2 Q-0.45 1.05 0.15 0.0 L0.65 0.05 Q1.65 0.3 2.5 1.1 Z" ffdec:has-small-stroke="true" ffdec:original-stroke-width="0.3" fill="none" stroke="#2e397d" stroke-linecap="round" stroke-linejoin="round" stroke-width="1.0"/>
    </g>
    <g id="sprite6">
      <use ffdec:characterId="10" height="5.95" transform="matrix(1.0, 0.0, 0.0, 1.0, 0.0, 0.0)" width="9.05" xlink:href="#sprite7"/>
    </g>
    <g id="sprite7">
      <use ffdec:characterId="9" height="5.95" transform="matrix(1.0, 0.0, 0.0, 1.0, 0.0, 0.0)" width="9.05" xlink:href="#shape2"/>
    </g>
    <g id="shape2">
      <path d="M4.05 0.15 Q4.6 -0.3 5.4 1.1 6.2 2.5 7.65 3.4 9.1 4.25 8.6 5.5 L8.55 5.65 1.8 5.4 Q1.15 4.35 2.3 2.5 3.45 0.6 4.05 0.15" fill="#c9cbd6" fill-rule="evenodd" stroke="none"/>
      <path d="M4.05 0.15 Q4.6 -0.3 5.4 1.1 6.2 2.5 7.65 3.4 9.1 4.25 8.6 5.5 L8.55 5.65 1.8 5.4 Q1.15 4.35 2.3 2.5 3.45 0.6 4.05 0.15 Z" ffdec:has-small-stroke="true" ffdec:original-stroke-width="0.3" fill="none" stroke="#2e397d" stroke-linecap="round" stroke-linejoin="round" stroke-width="1.0"/>
      <path d="M4.25 0.0 L4.3 0.15 Q1.75 3.05 1.75 4.15 1.55 5.0 1.65 5.2 L0.8 5.4 Q-0.15 5.4 0.0 4.4 0.15 3.4 1.55 2.1 2.95 0.8 4.25 0.0" fill="#14349f" fill-rule="evenodd" stroke="none"/>
      <path d="M4.25 0.0 L4.3 0.15 Q1.75 3.05 1.75 4.15 1.55 5.0 1.65 5.2 L0.8 5.4 Q-0.15 5.4 0.0 4.4 0.15 3.4 1.55 2.1 2.95 0.8 4.25 0.0 Z" ffdec:has-small-stroke="true" ffdec:original-stroke-width="0.3" fill="none" stroke="#2e397d" stroke-linecap="round" stroke-linejoin="round" stroke-width="1.0"/>
    </g>
    <g id="sprite8">
      <use ffdec:characterId="13" height="13.05" transform="matrix(1.0, 0.0, 0.0, 1.0, 0.0, 0.0)" width="11.2" xlink:href="#sprite9"/>
    </g>
    <g id="sprite9">
      <use ffdec:characterId="12" height="13.05" transform="matrix(1.0, 0.0, 0.0, 1.0, 0.0, 0.0)" width="11.2" xlink:href="#shape3"/>
    </g>
    <g id="shape3">
      <path d="M0.0 4.3 L2.25 2.95 Q3.95 1.65 5.65 1.0 7.25 0.4 10.9 0.0 10.3 2.25 8.75 4.0 7.2 5.7 5.4 6.4 7.2 7.05 8.75 8.75 10.3 10.5 10.9 12.75 7.3 12.35 5.65 11.7 3.95 11.1 2.3 9.8 1.2 8.95 0.0 8.45 L0.0 4.3" fill="#14349f" fill-rule="evenodd" stroke="none"/>
      <path d="M0.0 4.3 L2.25 2.95 Q3.95 1.65 5.65 1.0 7.25 0.4 10.9 0.0 10.3 2.25 8.75 4.0 7.2 5.7 5.4 6.4 7.2 7.05 8.75 8.75 10.3 10.5 10.9 12.75 7.3 12.35 5.65 11.7 3.95 11.1 2.3 9.8 1.2 8.95 0.0 8.45 L0.0 4.3 Z" ffdec:has-small-stroke="true" ffdec:original-stroke-width="0.3" fill="none" stroke="#0f1a5b" stroke-linecap="round" stroke-linejoin="round" stroke-width="1.0"/>
      <path d="M4.2 1.65 Q4.9 1.25 5.65 1.05 7.25 0.4 10.9 0.0 10.3 2.25 8.75 4.0 7.2 5.7 5.4 6.4 7.2 7.05 8.75 8.75 10.3 10.5 10.9 12.75 L7.7 12.3 7.45 12.2 Q5.25 11.25 3.4 9.8 L2.9 9.35 2.25 8.9 3.6 9.6 7.6 11.5 8.0 11.65 2.3 8.15 6.25 10.15 Q2.55 7.05 4.55 8.55 6.55 10.0 9.5 11.7 L5.1 8.4 3.3 7.15 3.5 7.2 6.35 7.9 6.1 7.65 4.9 7.2 4.4 7.05 4.9 6.9 3.4 6.95 3.8 6.75 4.3 6.7 4.7 6.6 2.3 6.5 3.2 6.4 Q5.0 6.05 6.7 5.2 L3.45 5.7 6.4 4.7 4.8 4.75 7.05 3.75 8.6 2.6 Q7.05 3.65 3.65 4.65 L2.75 4.85 Q4.0 4.45 6.05 3.5 7.9 2.6 9.65 1.3 L5.1 3.5 8.2 1.55 5.0 2.45 9.45 0.4 Q7.85 0.6 6.0 1.45 4.2 2.3 2.75 3.25 L4.2 1.65" fill="#101c42" fill-rule="evenodd" stroke="none"/>
      <path d="M4.2 1.65 Q4.9 1.25 5.65 1.05 7.25 0.4 10.9 0.0 10.3 2.25 8.75 4.0 7.2 5.7 5.4 6.4 7.2 7.05 8.75 8.75 10.3 10.5 10.9 12.75 L7.7 12.3" ffdec:has-small-stroke="true" ffdec:original-stroke-width="0.3" fill="none" stroke="#0f1a5b" stroke-linecap="round" stroke-linejoin="round" stroke-width="1.0"/>
    </g>
    <g id="sprite10">
      <use ffdec:characterId="16" height="13.4" transform="matrix(1.0, 0.0, 0.0, 1.0, 0.0, 0.0)" width="50.25" xlink:href="#sprite11"/>
    </g>
    <g id="sprite11">
      <use ffdec:characterId="15" height="13.4" transform="matrix(1.0, 0.0, 0.0, 1.0, 0.0, 0.0)" width="50.25" xlink:href="#shape4"/>
    </g>
    <g id="shape4">
      <path d="M3.1 4.5 Q8.2 1.15 15.75 0.4 23.3 -0.4 27.6 0.35 L37.25 1.8 46.3 2.9 Q49.95 3.2 49.95 5.25 49.95 7.3 39.9 10.15 29.9 12.95 22.75 13.1 L10.1 12.25 Q4.55 11.3 1.3 9.6 -2.0 7.85 3.1 4.5" fill="#14349f" fill-rule="evenodd" stroke="none"/>
      <path d="M6.4 8.1 Q8.7 7.15 10.4 7.3 L12.8 7.3 15.45 6.2 Q17.5 5.25 21.65 5.5 L29.25 5.75 37.05 5.3 43.35 4.5 46.9 4.0 Q48.6 3.8 49.8 4.55 L49.95 5.25 Q49.95 7.3 39.9 10.15 29.9 12.95 22.75 13.1 L10.1 12.25 Q4.55 11.3 1.3 9.6 L1.9 9.5 6.4 8.1" fill="#cfe0ed" fill-rule="evenodd" stroke="none"/>
      <path d="M8.3 5.9 Q9.45 3.6 12.2 4.2 14.4 4.9 14.7 7.2 L14.7 7.7 Q14.5 9.65 13.65 11.6 L13.1 12.7 10.1 12.25 Q4.55 11.3 1.3 9.6 -1.05 8.35 0.85 6.3 0.55 6.7 1.2 7.4 1.85 8.05 4.5 8.15 7.1 8.2 8.3 5.9" fill="#d8d9df" fill-rule="evenodd" stroke="none"/>
      <path d="M10.7 4.8 L10.7 5.05 10.7 5.0 10.7 4.8 M12.45 4.9 Q13.95 5.8 13.9 7.6 13.85 9.4 12.65 10.2 11.4 10.95 11.45 10.55 L11.7 8.8 Q11.9 7.4 10.95 5.6 10.95 3.95 12.45 4.9" fill="#e5f1f5" fill-rule="evenodd" stroke="none"/>
      <path d="M17.8 7.05 L17.7 7.95 Q17.5 8.55 16.8 8.55 16.0 8.55 15.4 7.95 L14.95 7.2 Q14.95 6.5 16.4 6.05 17.8 5.6 17.8 7.05" fill="#ffffff" fill-rule="evenodd" stroke="none"/>
      <path d="M20.7 6.05 Q20.7 6.9 19.8 6.9 18.7 6.9 18.15 5.9 L19.45 4.95 Q20.7 4.3 20.7 6.05" fill="#0d205e" fill-rule="evenodd" stroke="none"/>
      <path d="M18.7 7.25 Q19.4 7.25 19.8 7.85 L20.15 8.6 19.95 9.1 Q19.65 9.5 19.15 9.5 18.3 9.5 18.15 9.0 L18.15 8.25 Q18.15 7.25 18.7 7.25" fill="#f4f8ff" fill-rule="evenodd" stroke="none"/>
      <path d="M21.6 6.6 Q22.25 6.6 22.4 7.2 L22.45 7.95 22.45 8.45 22.1 8.8 Q21.3 8.8 20.85 8.45 20.5 8.2 20.5 7.85 L20.8 7.15 Q21.2 6.6 21.6 6.6" fill="#ffffff" fill-rule="evenodd" stroke="none"/>
      <path d="M22.9 4.8 Q23.8 4.8 24.1 5.4 L24.25 6.1 24.2 6.65 Q24.1 7.0 23.5 7.0 22.85 7.0 22.15 6.35 L21.55 5.6 Q21.55 5.2 21.7 5.05 L22.9 4.8" fill="#0d205e" fill-rule="evenodd" stroke="none"/>
      <path d="M24.8 8.65 Q24.8 9.5 23.95 9.5 22.75 9.5 22.75 8.2 22.75 7.1 23.8 7.55 24.8 7.95 24.8 8.65" fill="#f4f8ff" fill-rule="evenodd" stroke="none"/>
      <path d="M26.5 7.65 Q26.5 8.0 26.1 8.0 24.95 8.0 24.6 7.65 L24.5 7.2 Q24.5 6.0 25.5 6.4 26.5 6.75 26.5 7.65" fill="#ffffff" fill-rule="evenodd" stroke="none"/>
      <path d="M25.25 5.5 Q25.25 5.0 26.6 4.65 27.35 4.45 27.6 5.15 L27.75 5.95 27.7 6.4 27.05 6.7 26.3 6.45 26.0 6.05 25.4 5.75 25.25 5.5" fill="#0d205e" fill-rule="evenodd" stroke="none"/>
      <path d="M27.1 7.2 Q27.65 7.2 28.25 7.55 28.85 7.9 28.85 8.2 L28.55 8.6 27.7 8.85 Q27.1 8.85 26.75 7.5 26.75 7.2 27.1 7.2" fill="#f4f8ff" fill-rule="evenodd" stroke="none"/>
      <path d="M30.65 6.95 Q30.65 7.55 29.75 7.55 L28.65 7.3 28.55 6.85 Q28.55 5.55 29.6 5.95 30.65 6.35 30.65 6.95" fill="#ffffff" fill-rule="evenodd" stroke="none"/>
      <path d="M30.0 4.65 Q31.05 4.6 31.5 5.2 L31.8 5.95 Q31.8 6.45 31.3 6.45 30.8 6.45 30.2 5.85 L29.7 5.15 Q29.7 4.8 30.0 4.65" fill="#0d205e" fill-rule="evenodd" stroke="none"/>
      <path d="M31.7 6.9 Q32.15 6.9 32.4 7.3 L32.55 7.75 32.2 8.15 31.4 8.4 Q30.8 8.4 30.8 7.9 L31.0 7.3 Q31.25 6.9 31.7 6.9" fill="#f4f8ff" fill-rule="evenodd" stroke="none"/>
      <path d="M33.8 6.5 L33.75 6.8 33.1 6.95 Q32.2 6.95 32.2 6.35 32.2 5.9 33.0 5.7 33.8 5.55 33.8 6.5" fill="#ffffff" fill-rule="evenodd" stroke="none"/>
      <path d="M33.95 4.6 L34.55 4.7 Q35.15 4.85 35.15 5.3 L35.05 5.6 34.5 5.7 33.3 5.4 32.9 5.05 Q32.9 4.75 33.05 4.65 L34.0 4.55 33.95 4.6" fill="#0d205e" fill-rule="evenodd" stroke="none"/>
      <path d="M35.5 5.6 Q36.05 5.55 36.35 5.9 L36.6 6.3 Q36.6 6.7 35.65 6.7 34.8 6.7 34.8 6.45 34.8 5.9 35.5 5.6" fill="#f4f8ff" fill-rule="evenodd" stroke="none"/>
      <path d="M38.15 5.6 L37.7 6.05 Q36.85 6.05 36.85 5.5 36.85 4.9 37.5 4.95 38.15 4.95 38.15 5.6" fill="#ffffff" fill-rule="evenodd" stroke="none"/>
      <path d="M39.35 5.4 Q39.65 5.4 39.75 5.55 L39.8 5.7 Q39.8 6.1 39.25 6.1 L38.7 5.8 38.9 5.55 39.35 5.4" fill="#f9fdff" fill-rule="evenodd" stroke="none"/>
      <path d="M18.6 4.5 L18.55 5.25 Q18.4 5.85 17.75 5.85 16.9 5.85 16.5 4.95 16.5 4.25 17.55 3.8 18.6 3.35 18.6 4.5" fill="#49b4ff" fill-rule="evenodd" stroke="none"/>
      <path d="M20.95 3.05 Q21.3 3.05 21.8 3.55 L22.3 4.15 22.05 4.85 Q21.75 5.4 21.3 5.4 20.6 5.4 20.35 4.15 20.3 3.05 20.95 3.05" fill="#49b4ff" fill-rule="evenodd" stroke="none"/>
      <path d="M19.65 2.45 Q20.2 2.45 20.3 2.9 L20.3 3.4 20.3 3.9 Q20.25 4.3 19.8 4.3 18.9 4.3 18.9 3.2 18.9 2.45 19.65 2.45" fill="#49b4ff" fill-rule="evenodd" stroke="none"/>
      <path d="M24.65 3.6 Q25.25 3.6 25.4 4.05 L25.45 4.5 Q25.45 5.75 24.85 5.75 24.35 5.75 23.65 4.4 23.65 3.6 24.65 3.6" fill="#5de3ff" fill-rule="evenodd" stroke="none"/>
      <path d="M23.85 3.15 Q23.85 4.15 23.15 4.15 22.65 4.15 21.95 2.75 21.95 2.15 22.9 2.3 23.85 2.45 23.85 3.15" fill="#2d77df" fill-rule="evenodd" stroke="none"/>
      <path d="M29.4 4.75 L29.3 5.3 Q29.15 5.8 28.7 5.8 28.3 5.8 27.6 4.4 27.6 3.6 28.5 3.65 29.4 3.7 29.4 4.75" fill="#49b4ff" fill-rule="evenodd" stroke="none"/>
      <path d="M26.6 2.4 Q27.55 2.4 27.55 3.25 27.55 3.95 26.6 3.95 25.75 3.95 25.75 3.5 25.75 2.4 26.6 2.4" fill="#2d77df" fill-rule="evenodd" stroke="none"/>
      <path d="M32.55 4.55 Q32.55 5.15 31.9 5.15 31.1 5.15 31.0 4.1 31.0 3.65 31.8 3.8 32.55 3.95 32.55 4.55" fill="#5de3ff" fill-rule="evenodd" stroke="none"/>
      <path d="M36.65 4.5 Q36.65 5.1 36.15 5.1 35.6 5.1 35.15 4.7 L34.8 4.25 Q34.8 3.75 35.75 3.85 36.65 3.9 36.65 4.5" fill="#5de3ff" fill-rule="evenodd" stroke="none"/>
      <path d="M18.25 2.85 L17.85 3.4 17.2 3.7 Q16.55 3.7 16.2 3.25 L15.95 2.65 Q15.95 1.5 17.1 1.6 18.25 1.7 18.25 2.85" fill="#2d77df" fill-rule="evenodd" stroke="none"/>
      <path d="M15.75 4.9 L15.75 5.25 Q15.7 5.45 15.4 5.45 14.45 5.45 13.65 3.65 13.65 2.5 14.7 3.15 15.75 3.85 15.75 4.9" fill="#2d77df" fill-rule="evenodd" stroke="none"/>
      <path d="M20.9 1.05 Q21.35 1.05 21.6 1.45 L21.8 1.95 Q21.8 2.5 21.15 2.5 20.45 2.5 20.25 2.2 L20.25 1.85 Q20.25 1.05 20.9 1.05" fill="#2d77df" fill-rule="evenodd" stroke="none"/>
      <path d="M25.05 1.3 Q25.7 1.3 25.7 1.75 L25.6 2.5 25.3 3.2 Q24.35 3.2 24.35 1.8 24.35 1.3 25.05 1.3" fill="#2d77df" fill-rule="evenodd" stroke="none"/>
      <path d="M30.05 2.7 L30.05 3.15 Q29.95 3.55 29.45 3.55 28.1 3.55 28.1 2.65 28.1 2.05 29.1 1.8 30.05 1.6 30.05 2.7" fill="#2d77df" fill-rule="evenodd" stroke="none"/>
      <path d="M27.4 1.05 L27.85 1.3 27.95 1.6 Q27.95 2.05 27.6 2.05 26.9 2.05 26.9 1.45 26.9 1.05 27.4 1.05" fill="#2d77df" fill-rule="evenodd" stroke="none"/>
      <path d="M31.9 1.8 Q32.5 1.8 32.85 2.35 L33.1 2.95 33.05 3.3 32.1 3.5 30.95 3.2 30.9 2.7 Q30.9 1.8 31.9 1.8" fill="#2d77df" fill-rule="evenodd" stroke="none"/>
      <path d="M34.75 2.95 Q34.75 3.95 33.9 3.95 L33.4 3.65 Q33.4 2.85 34.1 2.4 34.75 1.9 34.75 2.95" fill="#2d77df" fill-rule="evenodd" stroke="none"/>
      <path d="M37.25 2.8 Q37.75 2.8 37.9 3.15 L37.95 3.55 Q37.95 4.2 37.5 4.2 36.9 4.2 36.45 3.25 36.45 2.8 37.25 2.8" fill="#2d77df" fill-rule="evenodd" stroke="none"/>
      <path d="M39.95 3.5 Q40.35 3.5 40.4 3.75 L40.4 4.0 40.2 4.4 39.75 4.75 Q39.15 4.8 39.3 4.6 38.25 4.6 38.25 4.15 38.25 3.95 38.8 3.7 L39.95 3.5" fill="#5de3ff" fill-rule="evenodd" stroke="none"/>
      <path d="M42.65 3.85 Q42.65 4.45 42.1 4.45 41.35 4.45 41.4 3.65 41.4 3.25 42.05 3.3 42.65 3.35 42.65 3.85" fill="#5de3ff" fill-rule="evenodd" stroke="none"/>
      <path d="M16.05 9.15 Q16.4 9.15 17.0 9.8 L17.6 10.65 17.25 11.3 Q16.8 11.8 16.0 11.8 15.2 11.8 15.0 11.45 L14.95 11.0 15.25 9.95 Q15.65 9.15 16.05 9.15" fill="#e9ecff" fill-rule="evenodd" stroke="none"/>
      <path d="M19.8 9.8 L20.55 9.95 Q21.0 9.95 21.0 10.4 21.0 10.95 20.5 11.0 L20.5 11.5 Q20.35 11.8 19.75 11.8 18.8 11.8 18.8 10.8 18.8 9.8 19.8 9.8" fill="#e9ecff" fill-rule="evenodd" stroke="none"/>
      <path d="M22.7 9.7 Q23.9 9.7 24.05 10.1 L23.95 10.7 24.0 10.75 24.3 10.7 Q24.65 9.4 25.75 8.95 27.0 8.5 27.3 9.1 L27.35 10.2 27.7 10.2 28.1 10.0 28.5 9.65 Q28.7 9.2 29.0 9.2 29.25 9.2 29.35 9.4 L29.4 9.6 28.5 10.7 Q27.6 11.45 26.95 11.45 26.2 11.45 26.15 11.15 L26.2 10.7 25.75 11.3 24.9 11.75 Q23.4 11.75 23.1 11.25 L23.1 10.55 21.85 11.15 Q21.15 11.15 21.0 10.05 L21.0 9.7 21.5 9.5 Q22.0 9.5 22.25 9.85 L22.7 9.7" fill="#e9ecff" fill-rule="evenodd" stroke="none"/>
      <path d="M30.0 8.5 Q30.3 8.5 30.75 9.0 L31.2 9.6 30.85 9.95 30.3 10.2 Q29.6 10.2 29.35 9.25 29.35 8.5 30.0 8.5" fill="#e9ecff" fill-rule="evenodd" stroke="none"/>
      <path d="M35.1 7.2 L35.15 7.5 35.05 7.9 Q35.75 7.85 35.75 8.35 35.75 8.85 34.75 8.75 L34.4 9.6 Q33.85 10.35 32.85 10.35 L31.9 10.1 31.85 9.8 32.45 8.9 Q33.15 8.25 33.6 8.25 L34.05 8.4 34.1 8.25 33.85 8.0 33.6 7.6 Q33.6 6.95 34.55 6.95 35.0 6.95 35.1 7.2" fill="#f4f8ff" fill-rule="evenodd" stroke="none"/>
      <path d="M37.55 8.85 L37.45 9.3 36.6 9.5 35.85 9.35 35.8 9.05 Q35.8 8.0 36.7 8.1 37.55 8.15 37.55 8.85" fill="#e9ecff" fill-rule="evenodd" stroke="none"/>
      <path d="M38.05 7.2 Q38.05 7.75 37.0 7.75 36.5 7.75 36.3 7.15 36.3 6.75 37.2 6.75 38.05 6.75 38.05 7.2" fill="#f4f8ff" fill-rule="evenodd" stroke="none"/>
      <path d="M40.9 6.2 L41.4 6.55 41.5 6.9 41.3 7.25 40.6 7.7 40.15 8.15 39.55 8.15 39.25 8.3 38.75 8.4 Q38.05 8.4 38.05 8.0 38.05 7.7 38.6 7.2 39.15 6.75 39.45 6.75 L40.05 6.85 40.1 7.05 40.15 7.05 40.1 6.55 Q40.15 6.2 40.9 6.2" fill="#e9ecff" fill-rule="evenodd" stroke="none"/>
      <path d="M42.25 5.65 L41.7 6.0 Q41.3 6.0 41.3 5.65 41.3 5.3 41.8 5.3 42.25 5.3 42.25 5.65" fill="#f9fdff" fill-rule="evenodd" stroke="none"/>
      <path d="M45.25 5.1 L45.3 5.5 45.15 6.0 44.35 6.2 43.85 6.8 Q43.35 7.2 43.05 7.2 42.35 7.2 42.5 6.8 42.5 6.5 42.9 6.35 L42.85 6.15 Q44.25 4.75 44.7 4.75 45.15 4.75 45.25 5.1" fill="#f4f8ff" fill-rule="evenodd" stroke="none"/>
      <path d="M47.15 5.65 L46.75 6.05 46.1 6.25 Q45.85 6.25 45.9 6.05 47.15 4.4 47.15 5.65" fill="#f4f8ff" fill-rule="evenodd" stroke="none"/>
      <path d="M3.1 4.5 Q8.2 1.15 15.75 0.4 23.3 -0.4 27.6 0.35 L37.25 1.8 46.3 2.9 Q49.95 3.2 49.95 5.25 49.95 7.3 39.9 10.15 29.9 12.95 22.75 13.1 L10.1 12.25 Q4.55 11.3 1.3 9.6 -2.0 7.85 3.1 4.5 Z" ffdec:has-small-stroke="true" ffdec:original-stroke-width="0.3" fill="none" stroke="#1a235b" stroke-linecap="round" stroke-linejoin="round" stroke-width="1.0"/>
    </g>
    <g id="sprite12">
      <use ffdec:characterId="19" height="4.65" transform="matrix(1.0, 0.0, 0.0, 1.0, 0.0, 0.0)" width="8.95" xlink:href="#sprite13"/>
    </g>
    <g id="sprite13">
      <use ffdec:characterId="18" height="4.65" transform="matrix(1.0, 0.0, 0.0, 1.0, 0.0, 0.0)" width="8.95" xlink:href="#shape5"/>
    </g>
    <g id="shape5">
      <path d="M8.15 1.9 Q6.85 3.95 5.55 4.1 L2.8 4.35 Q3.4 2.6 0.0 2.05 1.2 1.3 3.25 0.75 L7.35 0.0 Q9.45 -0.2 8.15 1.9" fill="#3051be" fill-rule="evenodd" stroke="none"/>
      <path d="M8.15 1.9 Q6.85 3.95 5.55 4.1 L2.8 4.35 Q3.4 2.6 0.0 2.05 1.2 1.3 3.25 0.75 L7.35 0.0 Q9.45 -0.2 8.15 1.9 Z" ffdec:has-small-stroke="true" ffdec:original-stroke-width="0.3" fill="none" stroke="#0f1a5b" stroke-linecap="round" stroke-linejoin="round" stroke-width="1.0"/>
      <path d="M4.0 4.25 L2.8 4.35 Q3.4 2.6 0.0 2.05 1.2 1.3 3.25 0.75 L5.1 0.3 Q2.6 1.3 4.0 4.25" fill="#0d205e" fill-rule="evenodd" stroke="none"/>
      <path d="M4.0 4.25 L2.8 4.35 Q3.4 2.6 0.0 2.05 1.2 1.3 3.25 0.75 L5.1 0.3" ffdec:has-small-stroke="true" ffdec:original-stroke-width="0.3" fill="none" stroke="#0f1a5b" stroke-linecap="round" stroke-linejoin="round" stroke-width="1.0"/>
    </g>
    <g id="sprite14">
      <use ffdec:characterId="1" height="8.0" transform="matrix(1.0, 0.0, 0.0, 1.0, 0.0, 0.0)" width="7.2" xlink:href="#shape6"/>
    </g>
    <g id="shape6">
      <path d="M4.5 0.15 Q5.85 0.5 6.65 2.6 7.4 4.65 7.1 5.85 6.75 7.0 5.15 7.6 3.45 8.15 1.5 7.55 -0.45 6.95 0.15 4.1 0.75 1.2 1.95 0.5 3.15 -0.25 4.5 0.15" fill="#000000" fill-rule="evenodd" stroke="none"/>
      <path d="M3.7 0.75 Q5.95 0.75 6.3 3.8 6.6 6.85 4.8 7.85 2.95 8.4 1.55 7.15 1.05 6.7 0.9 6.05 0.5 4.5 1.1 2.65 1.65 0.75 3.7 0.75" fill="#ffffff" fill-rule="evenodd" stroke="none"/>
      <path d="M4.1 4.3 Q4.1 5.0 3.65 5.0 L3.0 4.75 3.0 4.4 Q3.0 3.55 3.55 3.6 4.1 3.6 4.1 4.3" fill="#000000" fill-rule="evenodd" stroke="none"/>
    </g>
    <g id="sprite15">
      <use ffdec:characterId="23" height="1.9" transform="matrix(1.0, 0.0, 0.0, 1.0, 0.0, 0.0)" width="1.9" xlink:href="#shape7"/>
    </g>
    <g id="shape7">
      <path d="M2.5 1.55 L2.25 2.2 1.55 2.5 Q1.15 2.5 0.9 2.2 0.6 1.95 0.6 1.55 0.6 1.15 0.9 0.85 1.15 0.6 1.55 0.6 1.95 0.6 2.25 0.85 L2.5 1.55" fill="#b0dcff" fill-rule="evenodd" stroke="none"/>
    </g>
  </defs>
</svg>
