<?xml version="1.0" encoding="UTF-8" standalone="no"?>
<svg xmlns:ffdec="https://www.free-decompiler.com/flash" xmlns:xlink="http://www.w3.org/1999/xlink" ffdec:objectType="frame" height="35.0px" width="37.6px" xmlns="http://www.w3.org/2000/svg">
  <g transform="matrix(1.0, 0.0, 0.0, 1.0, 18.1, 72.05)">
    <use ffdec:characterId="67" height="35.0" transform="matrix(1.0, 0.0, 0.0, 1.0, -17.85, -70.6)" width="37.6" xlink:href="#sprite0"/>
  </g>
  <defs>
    <g id="sprite0">
      <filter color-interpolation-filters="sRGB" height="300%" id="filter0" width="300%" x="-100%" y="-100%">
        <feOffset dx="0.0" dy="0.0" in="SourceGraphic" result="filterResult0"/>
        <feColorMatrix in="filterResult0" result="filterResult1" type="matrix" values="0 0 0 0 1.0,0 0 0 0 0.7882353,0 0 0 0 0.19215687,0 0 0 1.0 0"/>
        <feGaussianBlur in="filterResult1" result="filterResult2" stdDeviation="2.8722813232690143 2.8722813232690143"/>
        <feComposite in="SourceGraphic" in2="filterResult2" operator="over" result="filterResult3"/>
      </filter>
      <use ffdec:characterId="11" filter="url(#filter0)" height="34.7" transform="matrix(1.0, 0.0, 0.0, 1.0, 2.6, 2.3)" width="37.6" xlink:href="#sprite1"/>
    </g>
    <g id="sprite1">
      <use ffdec:characterId="8" height="33.5" transform="matrix(1.0, 0.0, 0.0, 1.0, 0.0, 0.0)" width="37.6" xlink:href="#shape0"/>
      <clipPath id="clipPath0">
        <path d="M 26.25 13.2 L 26.28 13.21 L 26.28 13.21 L 26.35 13.2 Z M 25.5 17.7 L 25.55 17.75 L 25.7 17.77 L 25.84 17.79 L 25.97 17.83 L 26.1 17.88 L 26.22 17.93 L 26.34 17.99 L 26.45 18.07 L 26.55 18.15 L 26.65 18.25 L 27.25 19 L 27.35 19.95 L 27.3 20 L 27 20.85 L 26.4 21.35 L 26.2 21.4 L 23.95 21.45 L 23.9 21.45 L 23.6 21.3 L 23.31 21.12 L 23.05 20.92 L 22.8 20.7 L 22.57 20.45 L 22.36 20.17 L 22.17 19.88 L 22 19.55 L 22.18 19.27 L 22.39 19.01 L 22.61 18.77 L 22.85 18.55 L 23.11 18.35 L 23.39 18.16 L 23.68 18 L 24 17.85 L 25.5 17.7 Z M 5.7 -0.5 L 5.41 -0.49 L 5.12 -0.47 L 4.84 -0.44 L 4.57 -0.39 L 4.3 -0.33 L 4.04 -0.26 L 3.78 -0.17 L 3.53 -0.08 L 3.28 0.04 L 3.04 0.16 L 2.8 0.3 L 2.57 0.46 L 2.34 0.62 L 2.12 0.8 L 1.91 0.99 L 1.7 1.2 L 1.49 1.41 L 1.3 1.62 L 1.12 1.84 L 0.96 2.07 L 0.8 2.3 L 0.66 2.54 L 0.54 2.78 L 0.43 3.03 L 0.33 3.28 L 0.24 3.54 L 0.17 3.8 L 0.11 4.07 L 0.06 4.34 L 0.03 4.62 L 0.01 4.91 L 0 5.2 L 0.01 5.43 L 0.04 5.66 L 0.1 5.88 L 0.17 6.09 L 0.27 6.29 L 0.39 6.48 L 0.54 6.67 L 0.7 6.85 L 0.87 7 L 1.04 7.13 L 1.23 7.25 L 1.42 7.34 L 1.63 7.41 L 1.84 7.46 L 2.07 7.49 L 2.3 7.5 L 2.53 7.49 L 2.76 7.46 L 2.98 7.41 L 3.19 7.34 L 3.39 7.25 L 3.58 7.13 L 3.77 7 L 3.95 6.85 L 4.1 6.67 L 4.23 6.48 L 4.35 6.29 L 4.44 6.09 L 4.51 5.88 L 4.56 5.66 L 4.59 5.43 L 4.6 5.2 L 4.61 5.09 L 4.62 4.98 L 4.65 4.88 L 4.69 4.79 L 4.74 4.7 L 4.8 4.61 L 4.87 4.53 L 4.95 4.45 L 5.03 4.37 L 5.11 4.3 L 5.2 4.24 L 5.29 4.19 L 5.38 4.15 L 5.48 4.12 L 5.59 4.11 L 5.7 4.1 L 5.8 4.11 L 5.9 4.12 L 5.99 4.15 L 6.09 4.19 L 6.18 4.24 L 6.27 4.3 L 6.45 4.45 L 6.75 4.95 L 6.8 5.2 L 6.8 6.55 L 6.8 6.65 L 6.8 18.75 L 6.81 18.98 L 6.84 19.21 L 6.9 19.43 L 6.97 19.64 L 7.07 19.84 L 7.19 20.03 L 7.34 20.22 L 7.5 20.4 L 7.67 20.55 L 7.84 20.68 L 8.03 20.8 L 8.23 20.89 L 8.43 20.96 L 8.64 21.01 L 8.87 21.04 L 9.1 21.05 L 9.33 21.04 L 9.56 21.01 L 9.78 20.96 L 9.99 20.89 L 10.19 20.8 L 10.38 20.68 L 10.57 20.55 L 10.75 20.4 L 10.9 20.22 L 11.03 20.03 L 11.15 19.84 L 11.24 19.64 L 11.31 19.43 L 11.36 19.21 L 11.39 18.98 L 11.4 18.75 L 11.4 6.55 L 11.42 6.32 L 11.47 6.09 L 11.53 5.88 L 11.61 5.68 L 11.72 5.48 L 11.84 5.29 L 11.99 5.12 L 12.15 4.95 L 12.2 4.9 L 12.39 4.71 L 12.59 4.55 L 12.8 4.41 L 13.02 4.3 L 13.25 4.21 L 13.49 4.15 L 13.74 4.11 L 14 4.1 L 14.27 4.11 L 14.53 4.15 L 14.79 4.22 L 15.04 4.31 L 15.28 4.43 L 15.51 4.58 L 15.73 4.75 L 15.95 4.95 L 16.11 5.13 L 16.26 5.32 L 16.38 5.52 L 16.48 5.72 L 16.55 5.94 L 16.61 6.17 L 16.64 6.4 L 16.65 6.65 L 16.65 18 L 16.8 19.25 L 14.9 22.1 L 14.85 22.1 L 14.67 22.24 L 14.46 22.35 L 14.22 22.45 L 13.95 22.53 L 13.66 22.6 L 13.33 22.64 L 12.97 22.67 L 12.58 22.68 L 12.23 22.67 L 11.85 22.65 L 11.72 22.65 L 11.5 22.66 L 11.3 22.68 L 11.1 22.73 L 10.9 22.8 L 10.72 22.88 L 10.54 22.99 L 10.37 23.11 L 10.2 23.25 L 10.02 23.41 L 9.87 23.57 L 9.74 23.75 L 9.62 23.94 L 9.54 24.14 L 9.47 24.35 L 9.42 24.57 L 9.4 24.8 L 9.4 25.03 L 9.42 25.26 L 9.46 25.48 L 9.52 25.69 L 9.61 25.89 L 9.72 26.08 L 9.85 26.27 L 10 26.45 L 10.16 26.63 L 10.32 26.78 L 10.5 26.91 L 10.69 27.02 L 10.89 27.11 L 11.1 27.18 L 11.32 27.23 L 11.55 27.25 L 12.12 27.28 L 12.67 27.29 L 13.22 27.28 L 13.74 27.25 L 14.24 27.2 L 14.72 27.13 L 15.17 27.03 L 15.6 26.92 L 16.01 26.79 L 16.4 26.64 L 16.76 26.47 L 17.1 26.28 L 17.41 26.06 L 17.71 25.83 L 17.98 25.58 L 18.22 25.31 L 18.45 25.01 L 18.65 24.7 L 19.3 23.8 L 19.62 24.14 L 19.96 24.45 L 20.32 24.74 L 20.7 25 L 21.1 25.24 L 21.51 25.45 L 21.95 25.64 L 22.4 25.8 L 22.35 25.75 L 22.35 25.75 L 22.68 25.87 L 23.02 25.97 L 23.35 26.06 L 23.69 26.13 L 24.02 26.18 L 24.35 26.22 L 24.69 26.24 L 25.02 26.25 L 25.39 26.24 L 25.75 26.21 L 26.12 26.17 L 26.49 26.1 L 26.85 26.02 L 27.22 25.91 L 27.58 25.79 L 27.95 25.65 L 28.3 25.52 L 28.64 25.37 L 28.97 25.18 L 29.3 24.96 L 29.62 24.72 L 29.94 24.44 L 30.25 24.14 L 30.55 23.8 L 30.83 23.43 L 31.08 23.04 L 31.3 22.64 L 31.49 22.23 L 31.64 21.79 L 31.76 21.34 L 31.85 20.88 L 31.9 20.4 L 31.9 20.5 L 31.94 20.01 L 31.95 19.54 L 31.93 19.09 L 31.89 18.66 L 31.82 18.25 L 31.72 17.87 L 31.6 17.5 L 31.45 17.15 L 31.45 17.1 L 31.28 16.75 L 31.09 16.41 L 30.89 16.08 L 30.66 15.77 L 30.42 15.48 L 30.17 15.21 L 29.89 14.95 L 29.6 14.7 L 29.26 14.42 L 28.89 14.16 L 28.51 13.93 L 28.1 13.73 L 27.68 13.56 L 27.23 13.41 L 26.77 13.3 L 26.28 13.21 L 26.28 13.21 L 22.5 13.5 L 22.4 13.55 L 22.08 13.66 L 21.79 13.79 L 21.51 13.93 L 21.25 14.1 L 21.25 6.6 L 21.25 6.55 L 21.23 6.19 L 21.2 5.84 L 21.15 5.5 L 21.08 5.16 L 21.01 4.83 L 20.91 4.51 L 20.81 4.19 L 20.69 3.89 L 20.55 3.59 L 20.4 3.3 L 20.24 3.01 L 20.06 2.73 L 19.87 2.46 L 19.66 2.2 L 19.44 1.95 L 19.2 1.7 L 18.92 1.43 L 18.64 1.18 L 18.35 0.95 L 18.05 0.74 L 17.75 0.54 L 17.44 0.36 L 17.12 0.2 L 16.8 0.05 L 16.47 -0.08 L 16.14 -0.19 L 15.8 -0.29 L 15.45 -0.36 L 15.1 -0.42 L 14.74 -0.47 L 14.37 -0.49 L 14 -0.5 L 13.69 -0.49 L 13.38 -0.47 L 13.08 -0.44 L 12.79 -0.4 L 12.5 -0.34 L 12.21 -0.28 L 11.93 -0.19 L 11.65 -0.1 L 11.38 0.01 L 11.11 0.12 L 10.85 0.26 L 10.59 0.4 L 10.33 0.56 L 10.08 0.73 L 9.84 0.91 L 9.6 1.1 L 9.39 0.91 L 9.17 0.73 L 8.94 0.56 L 8.72 0.4 L 8.49 0.26 L 8.25 0.12 L 8.02 0.01 L 7.78 -0.1 L 7.53 -0.19 L 7.28 -0.28 L 7.03 -0.34 L 6.77 -0.4 L 6.51 -0.44 L 6.24 -0.47 L 5.97 -0.49 L 5.7 -0.5 Z"/>
      </clipPath>
      <g clip-path="url(#clipPath0)">
        <use ffdec:characterId="9" height="33.9" transform="matrix(1.0, 0.0, 0.0, 1.0, 0.0, 0.0)" width="36.6" xlink:href="#shape1"/>
      </g>
      <use ffdec:characterId="10" height="28.4" transform="matrix(1.0, 0.0, 0.0, 1.0, 0.0, 0.0)" width="32.55" xlink:href="#shape2"/>
    </g>
    <g id="shape0">
      <path d="M21.75 29.1 L21.8 29.1 19.75 28.25 Q17.35 31.05 11.35 30.65 9.45 30.5 8.15 29.05 6.85 27.45 6.95 25.4 7.0 24.75 7.2 24.15 L5.7 23.05 Q4.3 21.55 4.3 19.55 L4.3 10.5 Q3.3 11.05 2.1 11.05 0.15 11.05 -1.2 9.6 -2.6 8.1 -2.6 6.05 -2.65 2.6 -0.15 0.1 L-0.1 0.0 Q2.25 -2.3 5.5 -2.3 7.75 -2.3 9.5 -1.2 11.55 -2.3 13.95 -2.3 17.85 -2.3 20.65 0.5 L20.75 0.55 Q23.55 3.35 23.65 7.35 L23.65 7.5 23.65 11.35 Q25.1 11.1 26.65 11.35 L26.8 11.4 Q29.5 11.8 31.2 13.35 32.85 14.7 33.7 16.65 34.75 18.7 34.45 21.55 L34.4 21.6 Q34.15 24.25 32.55 26.25 L32.35 26.5 Q30.65 28.45 28.65 29.05 25.3 30.3 21.75 29.1" fill="#ee4b12" fill-rule="evenodd" stroke="none"/>
      <path d="M21.75 29.1 Q25.3 30.3 28.65 29.05 30.65 28.45 32.35 26.5 L32.55 26.25 Q34.15 24.25 34.4 21.6 L34.45 21.55 Q34.75 18.7 33.7 16.65 32.85 14.7 31.2 13.35 29.5 11.8 26.8 11.4 L26.65 11.35 Q25.1 11.1 23.65 11.35 L23.65 7.5 23.65 7.35 Q23.55 3.35 20.75 0.55 L20.65 0.5 Q17.85 -2.3 13.95 -2.3 11.55 -2.3 9.5 -1.2 7.75 -2.3 5.5 -2.3 2.25 -2.3 -0.1 0.0 L-0.15 0.1 Q-2.65 2.6 -2.6 6.05 -2.6 8.1 -1.2 9.6 0.15 11.05 2.1 11.05 3.3 11.05 4.3 10.5 L4.3 19.55 Q4.3 21.55 5.7 23.05 L7.2 24.15 Q7.0 24.75 6.95 25.4 6.85 27.45 8.15 29.05 9.45 30.5 11.35 30.65 17.35 31.05 19.75 28.25 L21.8 29.1 21.75 29.1 Z" ffdec:has-small-stroke="true" ffdec:original-stroke-width="0.5" fill="none" stroke="#ffc300" stroke-linecap="round" stroke-linejoin="round" stroke-width="1.0"/>
      <path d="M25.15 27.75 Q28.35 27.75 30.65 25.9 32.95 24.05 33.95 20.95 33.9 22.35 32.9 24.45 31.85 26.55 29.85 27.7 27.85 28.85 25.25 28.9 22.65 28.9 19.6 27.35 17.85 29.3 14.4 29.85 10.9 30.4 9.0 28.95 7.05 27.5 7.7 24.5 7.65 27.1 9.7 28.2 11.75 29.25 14.95 28.6 18.15 27.95 19.65 25.95 21.9 27.7 25.15 27.75" fill="#b91100" fill-rule="evenodd" stroke="none"/>
      <path d="M-1.45 6.15 Q-1.1 7.9 0.55 8.75 L3.85 8.65 4.55 7.65 4.6 7.8 4.6 9.65 Q1.55 10.85 -0.05 9.6 -1.85 8.25 -1.95 6.05 -2.05 4.75 -1.7 3.7 L-1.45 6.15" fill="#b91100" fill-rule="evenodd" stroke="none"/>
      <path d="M14.3 5.5 L14.7 5.75 14.7 20.8 14.65 20.85 Q14.1 21.55 13.55 21.6 L13.3 21.6 13.3 5.6 14.3 5.5" fill="#da1400" fill-rule="evenodd" stroke="none"/>
      <path d="M21.75 29.1 Q25.3 30.3 28.65 29.05 30.65 28.45 32.35 26.5 L32.55 26.25 Q34.15 24.25 34.4 21.6 L34.45 21.55 Q34.75 18.7 33.7 16.65 32.85 14.7 31.2 13.35 29.5 11.8 26.8 11.4 L26.65 11.35 Q25.1 11.1 23.65 11.35 L23.65 7.5 23.65 7.35 Q23.55 3.35 20.75 0.55 L20.65 0.5 Q17.85 -2.3 13.95 -2.3 11.55 -2.3 9.5 -1.2 7.75 -2.3 5.5 -2.3 2.25 -2.3 -0.1 0.0 L-0.15 0.1 Q-2.65 2.6 -2.6 6.05 -2.6 8.1 -1.2 9.6 0.15 11.05 2.1 11.05 3.3 11.05 4.3 10.5 L4.3 19.55 Q4.3 21.55 5.7 23.05 L7.2 24.15 Q7.0 24.75 6.95 25.4 6.85 27.45 8.15 29.05 9.45 30.5 11.35 30.65 17.35 31.05 19.75 28.25 L21.8 29.1 21.75 29.1 Z" ffdec:has-small-stroke="true" ffdec:original-stroke-width="0.5" fill="none" stroke="#ffc300" stroke-linecap="round" stroke-linejoin="round" stroke-width="1.0"/>
    </g>
    <g id="shape1">
      <path d="M34.2 -3.75 L34.2 30.15 -2.4 30.15 -2.4 -3.75 34.2 -3.75" fill="url(#gradient0)" fill-rule="evenodd" stroke="none"/>
    </g>
    <linearGradient gradientTransform="matrix(0.0, 0.0207, -0.0223, 0.0, 15.85, 13.15)" gradientUnits="userSpaceOnUse" id="gradient0" spreadMethod="pad" x1="-819.2" x2="819.2">
      <stop offset="0.0" stop-color="#ff2206"/>
      <stop offset="0.19215686274509805" stop-color="#f59f46"/>
      <stop offset="0.4" stop-color="#f7ff8f"/>
      <stop offset="0.6274509803921569" stop-color="#f6ef81"/>
      <stop offset="0.8509803921568627" stop-color="#f7ab39"/>
      <stop offset="1.0" stop-color="#ff6b06"/>
    </linearGradient>
    <g id="shape2">
      <path d="M14.9 22.1 L16.65 19.5 16.65 20.0 16.75 21.25 14.95 24.1 14.9 24.1 Q14.1 24.8 12.0 24.65 11.05 24.6 10.4 25.25 L9.75 26.15 Q9.35 25.55 9.4 24.8 9.45 23.85 10.2 23.25 10.9 22.6 11.85 22.65 14.05 22.8 14.85 22.1 L14.9 22.1 M23.9 21.45 L23.95 21.45 26.2 21.4 26.4 21.35 26.9 21.0 27.55 19.75 Q27.75 19.85 27.6 20.9 L27.1 22.35 26.4 23.05 25.9 23.4 23.7 23.45 23.65 23.45 Q22.45 22.9 21.8 21.55 21.45 19.8 21.95 19.5 23.15 21.15 23.9 21.45 M31.9 20.4 L31.4 22.45 31.4 22.4 Q31.6 20.45 30.95 19.15 L30.95 19.1 Q30.35 17.65 29.15 16.7 27.85 15.5 25.95 15.2 L26.0 15.2 22.3 15.5 22.2 15.55 Q21.55 15.75 21.1 16.1 L21.1 8.6 21.1 8.55 Q21.0 5.65 19.1 3.7 16.95 1.5 14.05 1.5 11.65 1.5 9.8 3.1 8.15 1.5 6.0 1.5 3.75 1.5 2.15 3.2 0.7 4.65 0.55 6.65 0.0 6.0 0.0 5.2 0.0 2.85 1.7 1.2 3.35 -0.5 5.7 -0.5 7.9 -0.5 9.6 1.1 11.5 -0.5 14.0 -0.5 17.0 -0.5 19.2 1.7 21.15 3.65 21.25 6.55 L21.25 6.6 21.25 14.1 Q21.75 13.75 22.4 13.55 L22.5 13.5 26.35 13.2 26.25 13.2 Q28.25 13.5 29.6 14.7 30.8 15.65 31.45 17.1 L31.45 17.15 Q32.1 18.5 31.9 20.5 L31.9 20.4" fill="#ff2b14" fill-rule="evenodd" stroke="none"/>
      <path d="M6.8 5.2 L6.8 5.0 6.9 5.0 Q7.3 5.0 7.65 5.35 L7.95 5.85 8.0 6.1 8.0 7.45 8.0 7.55 8.0 19.65 Q8.0 20.35 8.4 20.95 L7.5 20.4 Q6.8 19.7 6.8 18.75 L6.8 6.65 6.8 6.55 6.8 5.2 M16.65 6.65 Q16.65 5.8 16.15 5.2 L17.15 5.85 Q17.85 6.55 17.85 7.55 L17.85 18.9 18.0 20.15 Q17.0 22.45 14.8 24.2 14.1 23.6 13.05 23.55 12.1 23.5 11.4 24.15 10.65 24.75 10.6 25.7 10.55 26.55 11.05 27.2 L10.0 26.45 Q9.35 25.75 9.4 24.8 9.45 23.85 10.2 23.25 10.9 22.6 11.85 22.65 14.05 22.8 14.85 22.1 L14.9 22.1 16.8 19.25 16.65 18.0 16.65 6.65" fill="#ff2b14" fill-rule="evenodd" stroke="none"/>
      <path d="M7.2 5.2 L7.2 5.0 7.3 5.0 Q7.7 5.0 8.05 5.35 L8.35 5.85 8.4 6.1 8.4 7.45 8.4 7.55 8.4 19.65 Q8.4 20.35 8.8 20.95 L7.9 20.4 Q7.2 19.7 7.2 18.75 L7.2 6.65 7.2 6.55 7.2 5.2 M17.05 6.65 Q17.05 5.8 16.55 5.2 17.1 5.4 17.55 5.85 18.25 6.55 18.25 7.55 L18.25 18.9 18.4 20.15 Q17.4 22.45 15.2 24.2 14.5 23.6 13.45 23.55 12.5 23.5 11.8 24.15 11.05 24.75 11.0 25.7 10.95 26.55 11.45 27.2 10.85 27.0 10.4 26.45 9.75 25.75 9.8 24.8 9.85 23.85 10.6 23.25 11.3 22.6 12.25 22.65 14.45 22.8 15.25 22.1 L15.3 22.1 17.2 19.25 17.05 18.0 17.05 6.65" fill="#ff2b14" fill-rule="evenodd" stroke="none"/>
      <path d="M14.0 -0.5 Q11.5 -0.5 9.6 1.1 7.9 -0.5 5.7 -0.5 3.35 -0.5 1.7 1.2 0.0 2.85 0.0 5.2 0.0 6.15 0.7 6.85 1.35 7.5 2.3 7.5 3.25 7.5 3.95 6.85 4.6 6.15 4.6 5.2 4.6 4.75 4.95 4.45 5.25 4.1 5.7 4.1 6.1 4.1 6.45 4.45 L6.75 4.95 6.8 5.2 6.8 6.55 6.8 6.65 6.8 18.75 Q6.8 19.7 7.5 20.4 8.15 21.05 9.1 21.05 10.05 21.05 10.75 20.4 11.4 19.7 11.4 18.75 L11.4 6.55 Q11.45 5.6 12.15 4.95 L12.2 4.9 Q12.95 4.1 14.0 4.1 15.1 4.1 15.95 4.95 16.65 5.65 16.65 6.65 L16.65 18.0 16.8 19.25 14.9 22.1 14.85 22.1 Q14.05 22.8 11.85 22.65 10.9 22.6 10.2 23.25 9.45 23.85 9.4 24.8 9.35 25.75 10.0 26.45 10.6 27.2 11.55 27.25 16.95 27.6 18.65 24.7 L19.3 23.8 Q20.55 25.2 22.4 25.8 L22.35 25.75 Q25.15 26.8 27.95 25.65 29.35 25.2 30.55 23.8 31.75 22.35 31.9 20.4 L31.9 20.5 Q32.1 18.5 31.45 17.15 L31.45 17.1 Q30.8 15.65 29.6 14.7 28.25 13.5 26.25 13.2 L26.35 13.2 22.5 13.5 22.4 13.55 Q21.75 13.75 21.25 14.1 L21.25 6.6 21.25 6.55 Q21.15 3.65 19.2 1.7 17.0 -0.5 14.0 -0.5 M23.9 21.45 Q22.65 20.9 22.0 19.55 22.7 18.4 24.0 17.85 L25.5 17.7 25.55 17.75 Q26.15 17.8 26.55 18.15 L26.65 18.25 27.25 19.0 27.35 19.95 27.3 20.0 27.0 20.85 26.4 21.35 26.2 21.4 23.95 21.45 23.9 21.45 Z" ffdec:has-small-stroke="true" ffdec:original-stroke-width="0.6" fill="none" stroke="#e9ff99" stroke-linecap="round" stroke-linejoin="round" stroke-width="1.0"/>
      <path d="M21.5 15.2 Q22.35 14.55 24.65 14.35 26.9 14.05 28.9 15.65 L24.55 15.95 Q21.95 16.65 20.0 18.65 L19.95 13.55 Q20.35 11.65 20.8 13.55 20.65 15.75 21.5 15.2" fill="#ffffff" fill-rule="evenodd" stroke="none"/>
      <path d="M14.7 1.85 L14.05 2.1 Q13.3 2.3 12.6 2.8 L11.5 3.55 10.65 3.9 Q10.1 4.0 9.55 3.6 8.95 3.15 7.9 1.7 L9.5 1.8 10.5 1.45 12.1 1.0 Q13.1 0.8 13.9 1.3 L14.7 1.85" fill="#ffffff" fill-rule="evenodd" stroke="none"/>
      <path d="M13.8 23.55 Q15.25 23.4 15.85 22.7 L17.3 20.7 Q19.0 20.75 17.5 22.9 15.95 25.05 14.65 25.25 L12.4 25.5 11.0 25.2 Q10.55 24.95 10.9 24.4 11.25 23.8 11.8 23.75 L13.8 23.55" fill="#ffffff" fill-rule="evenodd" stroke="none"/>
      <path d="M1.7 5.25 Q0.7 5.25 0.55 4.8 0.35 4.3 0.45 3.9 L0.7 3.1 Q1.2 1.85 2.15 1.1 3.1 0.35 4.45 0.4 5.8 0.45 7.25 1.35 5.55 1.2 4.65 1.85 3.7 2.5 3.8 3.25 3.9 4.0 3.3 4.6 2.7 5.2 1.7 5.25" fill="#ffffff" fill-rule="evenodd" stroke="none"/>
    </g>
  </defs>
</svg>
