<?xml version="1.0" encoding="UTF-8" standalone="no"?>
<svg xmlns:ffdec="https://www.free-decompiler.com/flash" xmlns:xlink="http://www.w3.org/1999/xlink" ffdec:objectType="frame" height="41.0px" width="46.25px" xmlns="http://www.w3.org/2000/svg">
  <g transform="matrix(1.0, 0.0, 0.0, 1.0, 23.8, 51.75)">
    <use ffdec:characterId="63" height="41.0" transform="matrix(1.0, 0.0, 0.0, 1.0, -17.95, -50.9)" width="46.25" xlink:href="#sprite0"/>
  </g>
  <defs>
    <g id="sprite0">
      <use ffdec:characterId="2" height="8.0" transform="matrix(1.0, 0.0, 0.0, 1.0, 18.55, 26.05)" width="10.65" xlink:href="#sprite1"/>
      <use ffdec:characterId="4" height="7.0" transform="matrix(1.0, 0.0, 0.0, 1.0, 3.2, 26.4)" width="14.35" xlink:href="#sprite2"/>
      <use ffdec:characterId="6" height="6.7" transform="matrix(0.8245, 0.2272, -0.2657, 0.9641, 24.95, 20.05)" width="15.35" xlink:href="#sprite3"/>
      <use ffdec:characterId="8" height="17.85" transform="matrix(1.0, 0.0, 0.0, 1.0, 5.55, 10.1)" width="23.8" xlink:href="#sprite4"/>
      <use ffdec:characterId="10" height="12.3" transform="matrix(0.7717, 0.022, -0.1369, 0.9855, 23.35, 11.05)" width="11.75" xlink:href="#sprite5"/>
      <use ffdec:characterId="12" height="15.55" transform="matrix(0.991, 0.134, -0.134, 0.991, 5.9, -1.05)" width="19.25" xlink:href="#sprite6"/>
      <use ffdec:characterId="16" height="11.15" transform="matrix(0.991, 0.134, -0.134, 0.991, 13.3, 4.9)" width="8.45" xlink:href="#sprite7"/>
      <use ffdec:characterId="17" height="7.75" transform="matrix(1.0, 0.0, 0.0, 1.0, 0.0, 0.0)" width="16.85" xlink:href="#shape8"/>
    </g>
    <g id="sprite1">
      <use ffdec:characterId="1" height="8.0" transform="matrix(1.0, 0.0, 0.0, 1.0, 0.0, 0.0)" width="10.65" xlink:href="#shape0"/>
    </g>
    <g id="shape0">
      <path d="M7.65 2.5 L9.25 3.7 Q10.2 4.45 10.15 5.65 10.1 6.75 7.8 4.55 L5.4 3.2 Q4.2 3.2 2.0 4.5 -0.25 5.7 0.0 5.0 0.2 4.2 0.65 3.7 1.05 3.15 2.5 2.6 L4.3 1.75 4.5 0.05 4.65 -1.3 7.25 -1.5 6.75 1.85 7.65 2.5" fill="#f86682" fill-rule="evenodd" stroke="none"/>
      <path d="M7.65 2.5 L9.25 3.7 Q10.2 4.45 10.15 5.65 10.1 6.75 7.8 4.55 L5.4 3.2 Q4.2 3.2 2.0 4.5 -0.25 5.7 0.0 5.0 0.2 4.2 0.65 3.7 1.05 3.15 2.5 2.6 L4.3 1.75 4.5 0.05 4.65 -1.3 7.25 -1.5 6.75 1.85 7.65 2.5 Z" ffdec:has-small-stroke="true" ffdec:original-stroke-width="0.5" fill="none" stroke="#922c2c" stroke-linecap="round" stroke-linejoin="round" stroke-width="1.0"/>
    </g>
    <g id="sprite2">
      <use ffdec:characterId="3" height="7.0" transform="matrix(1.0, 0.0, 0.0, 1.0, 0.0, 0.0)" width="14.35" xlink:href="#shape1"/>
    </g>
    <g id="shape1">
      <path d="M4.55 3.6 L4.05 3.6 3.25 4.5 3.25 4.55 1.85 5.15 0.35 5.45 Q0.0 5.35 0.0 5.0 L0.1 4.75 0.7 4.2 1.5 3.65 1.55 3.6 2.2 3.1 2.95 2.3 3.8 1.7 Q4.4 1.55 5.25 1.95 L6.5 2.15 8.35 1.05 Q9.75 0.1 10.8 -0.5 L11.9 -1.05 Q15.15 -0.5 12.95 0.55 L10.05 1.85 Q9.35 2.05 9.2 2.25 L10.2 2.05 11.15 2.0 12.2 2.45 Q12.95 2.9 13.1 3.3 13.25 3.65 12.8 3.8 L11.75 3.85 11.4 3.6 10.6 3.6 9.2 3.8 7.5 4.0 5.2 3.75 4.55 3.6" fill="#f86682" fill-rule="evenodd" stroke="none"/>
      <path d="M4.55 3.6 L4.05 3.6 3.25 4.5 3.25 4.55 1.85 5.15 0.35 5.45 Q0.0 5.35 0.0 5.0 L0.1 4.75 0.7 4.2 1.5 3.65 1.55 3.6 2.2 3.1 2.95 2.3 3.8 1.7 Q4.4 1.55 5.25 1.95 L6.5 2.15 8.35 1.05 Q9.75 0.1 10.8 -0.5 L11.9 -1.05 Q15.15 -0.5 12.95 0.55 L10.05 1.85 Q9.35 2.05 9.2 2.25 L10.2 2.05 11.15 2.0 12.2 2.45 Q12.95 2.9 13.1 3.3 13.25 3.65 12.8 3.8 L11.75 3.85 11.4 3.6 10.6 3.6 9.2 3.8 7.5 4.0 5.2 3.75 4.55 3.6 Z" ffdec:has-small-stroke="true" ffdec:original-stroke-width="0.5" fill="none" stroke="#922c2c" stroke-linecap="round" stroke-linejoin="round" stroke-width="1.0"/>
    </g>
    <g id="sprite3">
      <use ffdec:characterId="5" height="6.7" transform="matrix(1.0, 0.0, 0.0, 1.0, 0.0, 0.0)" width="15.35" xlink:href="#shape2"/>
    </g>
    <g id="shape2">
      <path d="M3.95 4.45 L0.0 3.6 Q1.4 -0.15 2.65 0.0 3.9 0.05 6.4 0.85 8.85 1.65 10.0 2.2 L12.35 3.2 13.7 3.85 Q15.45 4.7 14.5 5.6 13.5 6.5 11.05 6.0 L7.25 5.25 3.95 4.45" fill="#e9dedd" fill-rule="evenodd" stroke="none"/>
      <path d="M3.95 4.45 L0.0 3.6 Q1.4 -0.15 2.65 0.0 3.9 0.05 6.4 0.85 8.85 1.65 10.0 2.2 L12.35 3.2 13.7 3.85 Q15.45 4.7 14.5 5.6 13.5 6.5 11.05 6.0 L7.25 5.25 3.95 4.45 Z" ffdec:has-small-stroke="true" ffdec:original-stroke-width="0.5" fill="none" stroke="#585353" stroke-linecap="round" stroke-linejoin="round" stroke-width="1.081366484038124"/>
    </g>
    <g id="sprite4">
      <use ffdec:characterId="7" height="17.85" transform="matrix(1.0, 0.0, 0.0, 1.0, 0.0, 0.0)" width="23.8" xlink:href="#shape3"/>
    </g>
    <g id="shape3">
      <path d="M0.3 4.0 Q3.75 4.9 8.4 3.45 11.85 2.4 16.0 0.0 17.15 0.25 19.0 2.9 20.8 5.5 20.85 9.1 20.85 12.65 20.1 13.9 19.35 15.1 17.35 16.4 15.35 17.7 11.3 17.6 7.25 17.45 4.5 15.75 1.7 14.05 0.65 10.65 -0.45 7.2 0.3 4.0" fill="#d5c9c8" fill-rule="evenodd" stroke="none"/>
      <path d="M17.35 16.4 Q15.35 17.7 11.3 17.6 7.25 17.45 4.5 15.75 1.7 14.05 0.65 10.65 -0.45 7.2 0.3 4.0" ffdec:has-small-stroke="true" ffdec:original-stroke-width="0.5" fill="none" stroke="#585353" stroke-linecap="round" stroke-linejoin="round" stroke-width="1.0"/>
      <path d="M14.85 16.7 Q14.1 16.5 13.65 16.05 L13.15 15.4 Q12.55 14.2 12.4 12.8 L12.4 11.75 12.4 11.45 Q12.6 9.25 14.15 7.8 14.8 7.25 15.55 6.9 16.65 6.4 17.95 6.4 L18.75 6.45 Q20.5 6.65 21.75 7.8 23.35 9.25 23.55 11.45 L23.5 12.8 23.3 13.5 Q22.95 14.4 22.25 15.1 20.75 16.6 17.45 16.9 L14.85 16.7" fill="#d5c9c8" fill-rule="evenodd" stroke="none"/>
      <path d="M23.3 13.5 Q22.95 14.4 22.25 15.1 20.75 16.6 17.45 16.9 L14.85 16.7" ffdec:has-small-stroke="true" ffdec:original-stroke-width="0.5" fill="none" stroke="#585353" stroke-linecap="round" stroke-linejoin="round" stroke-width="1.0"/>
      <path d="M18.5 6.2 Q19.5 8.25 19.75 9.7 20.1 11.95 19.2 13.35 18.6 14.25 17.3 15.15 L16.35 15.6 14.45 15.7 12.45 15.65 11.15 16.1 Q9.2 16.6 6.45 14.85 4.55 13.75 3.8 12.45 3.0 11.2 2.9 9.5 2.75 8.15 3.2 6.4 3.5 5.0 4.1 4.1 L5.15 3.1 Q7.35 1.25 10.25 0.6 L12.95 0.5 14.1 0.95 Q14.65 -0.8 15.75 1.05 L17.3 3.8 18.5 6.2" fill="#ffffff" fill-rule="evenodd" stroke="none"/>
      <path d="M6.45 13.0 Q6.75 13.6 6.0 13.7 L5.9 13.65 Q5.15 12.9 4.95 11.8 L4.95 11.45 Q5.3 11.2 5.75 11.9 L6.4 12.95 6.45 13.0" fill="#d5c9c8" fill-rule="evenodd" stroke="none"/>
      <path d="M8.45 12.1 Q9.15 12.5 9.45 13.25 L9.5 13.65 8.95 14.05 8.45 14.1 Q7.7 13.55 7.4 12.8 L7.25 12.45 Q7.15 12.1 7.55 12.1 L7.9 12.35 8.3 12.1 8.45 12.1" fill="#d5c9c8" fill-rule="evenodd" stroke="none"/>
      <path d="M10.85 12.75 Q11.05 13.4 10.35 13.3 L10.15 13.2 Q9.7 12.8 9.75 12.15 10.2 11.75 10.45 12.05 L10.85 12.75" fill="#d5c9c8" fill-rule="evenodd" stroke="none"/>
      <path d="M11.3 12.05 Q10.85 11.4 11.3 11.15 11.35 11.05 11.5 11.05 12.25 11.3 12.6 12.0 L12.65 12.15 11.95 12.55 11.3 12.05" fill="#d5c9c8" fill-rule="evenodd" stroke="none"/>
      <path d="M13.6 10.1 Q13.8 10.6 13.1 10.8 L13.0 10.75 Q12.3 10.4 12.4 9.85 L12.45 9.8 12.75 9.55 13.05 9.55 13.6 10.1" fill="#d5c9c8" fill-rule="evenodd" stroke="none"/>
    </g>
    <g id="sprite5">
      <use ffdec:characterId="9" height="12.3" transform="matrix(1.0, 0.0, 0.0, 1.0, 0.0, 0.0)" width="11.75" xlink:href="#shape4"/>
    </g>
    <g id="shape4">
      <path d="M1.1 0.0 Q1.6 -0.05 3.3 1.25 5.0 2.55 6.65 4.65 8.3 6.75 9.3 9.1 L10.2 9.8 11.3 11.15 Q11.9 12.0 10.55 11.7 L7.95 11.25 5.4 10.75 Q4.45 8.9 2.15 6.05 L1.85 5.65 Q0.25 3.55 0.05 2.05 L0.0 1.3 Q0.05 0.7 0.35 0.35 0.6 0.0 1.1 0.0" fill="#ffffff" fill-rule="evenodd" stroke="none"/>
      <path d="M1.1 0.0 Q1.6 -0.05 3.3 1.25 5.0 2.55 6.65 4.65 8.3 6.75 9.3 9.1 L10.2 9.8 11.3 11.15 Q11.9 12.0 10.55 11.7 L7.95 11.25 5.4 10.75 Q4.45 8.9 2.15 6.05 L1.85 5.65" ffdec:has-small-stroke="true" ffdec:original-stroke-width="0.5" fill="none" stroke="#252527" stroke-linecap="round" stroke-linejoin="round" stroke-width="1.1444340807938156"/>
      <path d="M6.2 10.95 Q5.35 10.7 4.5 9.25 L1.9 5.55 4.1 7.8 Q5.2 8.8 6.75 9.3 L9.25 9.2 Q10.9 10.0 11.4 11.75 L10.65 11.7 6.2 10.95" fill="#e9dedd" fill-rule="evenodd" stroke="none"/>
      <path d="M1.1 0.0 Q1.6 -0.05 3.3 1.25 5.0 2.55 6.65 4.65 8.3 6.75 9.3 9.1 L10.2 9.8 11.3 11.15 Q11.9 12.0 10.55 11.7 L7.95 11.25 5.4 10.75 Q4.45 8.9 2.15 6.05 L1.85 5.65" ffdec:has-small-stroke="true" ffdec:original-stroke-width="0.5" fill="none" stroke="#585353" stroke-linecap="round" stroke-linejoin="round" stroke-width="1.1444340807938156"/>
    </g>
    <g id="sprite6">
      <use ffdec:characterId="11" height="15.55" transform="matrix(1.0, 0.0, 0.0, 1.0, 0.0, 0.0)" width="19.25" xlink:href="#shape5"/>
    </g>
    <g id="shape5">
      <path d="M20.65 11.35 L20.6 12.15 20.65 13.55 Q20.8 14.45 13.0 15.1 L4.0 15.6 2.4 15.25 1.95 14.85 Q1.6 7.8 4.1 4.1 6.55 0.35 10.9 0.35 15.2 0.35 17.55 2.9 19.9 5.45 20.65 11.35" fill="#ffffff" fill-rule="evenodd" stroke="none"/>
      <path d="M1.95 14.85 Q1.6 7.8 4.1 4.1 6.55 0.35 10.9 0.35 15.2 0.35 17.55 2.9 19.9 5.45 20.65 11.35" ffdec:has-small-stroke="true" ffdec:original-stroke-width="0.5" fill="none" stroke="#585353" stroke-linecap="round" stroke-linejoin="round" stroke-width="1.0000181333437432"/>
      <path d="M20.2 13.85 Q19.4 15.1 18.85 13.4 18.7 12.45 19.45 12.3 20.2 12.2 20.35 10.95 L20.4 10.9 Q21.0 12.55 20.2 13.85" fill="#e9dedd" fill-rule="evenodd" stroke="none"/>
    </g>
    <g id="sprite7">
      <clipPath id="clipPath0">
        <path d="M 3.05 0 L 2.79 0.02 L 2.54 0.08 L 2.3 0.18 L 2.06 0.31 L 1.84 0.49 L 1.62 0.7 L 1.4 0.96 L 1.2 1.25 L 0.4 3.2 L 0 5.35 L 0.02 5.57 L 0.08 5.8 L 0.18 6.04 L 0.31 6.3 L 0.49 6.57 L 0.7 6.85 L 0.96 7.14 L 1.25 7.45 L 1.54 7.74 L 1.81 8 L 2.07 8.21 L 2.3 8.39 L 2.52 8.52 L 2.71 8.62 L 2.89 8.68 L 3.05 8.7 L 4.85 7.45 L 5.14 7.14 L 5.4 6.85 L 5.61 6.57 L 5.79 6.3 L 5.92 6.04 L 6.02 5.8 L 6.08 5.57 L 6.1 5.35 L 5.7 3.2 L 4.85 1.25 L 4.66 0.96 L 4.46 0.7 L 4.25 0.49 L 4.03 0.31 L 3.8 0.18 L 3.56 0.08 L 3.43 0.04 L 3.31 0.02 L 3.05 0 Z"/>
      </clipPath>
      <g clip-path="url(#clipPath0)">
        <use ffdec:characterId="14" height="11.15" transform="matrix(1.0, 0.0, 0.0, 1.0, 0.0, 0.0)" width="8.45" xlink:href="#shape6"/>
      </g>
      <use ffdec:characterId="15" height="9.2" transform="matrix(1.0, 0.0, 0.0, 1.0, 0.0, 0.0)" width="6.6" xlink:href="#shape7"/>
    </g>
    <g id="shape6">
      <path d="M-1.1 -1.4 L7.35 -1.4 7.35 9.75 -1.1 9.75 -1.1 -1.4" fill="#e02d51" fill-rule="evenodd" stroke="none"/>
      <path d="M4.95 4.9 Q4.95 6.1 4.35 6.9 3.85 7.8 3.05 7.8 2.25 7.8 1.65 6.9 1.15 6.1 1.15 4.9 1.15 3.7 1.65 2.85 2.25 2.05 3.05 2.05 3.85 2.05 4.35 2.85 4.95 3.7 4.95 4.9" fill="#f8607f" fill-rule="evenodd" stroke="none"/>
      <path d="M4.2 4.85 Q4.2 5.55 3.85 6.05 L3.05 6.6 2.2 6.05 Q1.9 5.55 1.9 4.85 1.9 4.1 2.2 3.6 2.55 3.1 3.05 3.1 3.5 3.1 3.85 3.6 4.2 4.1 4.2 4.85" fill="#ff97aa" fill-rule="evenodd" stroke="none"/>
    </g>
    <g id="shape7">
      <path d="M6.1 5.35 Q6.1 6.2 4.85 7.45 L3.05 8.7 Q2.45 8.7 1.25 7.45 0.0 6.2 0.0 5.35 L0.4 3.2 1.2 1.25 Q2.0 0.0 3.05 0.0 4.1 0.0 4.85 1.25 L5.7 3.2 6.1 5.35 Z" ffdec:has-small-stroke="true" ffdec:original-stroke-width="0.5" fill="none" stroke="#8f163c" stroke-linecap="round" stroke-linejoin="round" stroke-width="1.0000181333437432"/>
      <path d="M0.2 5.9 L3.0 5.45 5.8 5.9" ffdec:has-small-stroke="true" ffdec:original-stroke-width="0.5" fill="none" stroke="#6c0c2a" stroke-linecap="round" stroke-linejoin="round" stroke-width="1.0000181333437432"/>
      <path d="M2.95 3.35 L2.95 4.55 2.25 4.8 Q1.75 4.9 1.65 4.6 1.5 4.25 1.75 3.15 L2.2 1.35 Q2.4 0.7 2.65 0.7 2.9 0.6 2.9 1.4 L2.95 3.35" fill="#ffecef" fill-rule="evenodd" stroke="none"/>
    </g>
    <g id="shape8">
      <path d="M22.05 5.0 Q22.55 5.0 22.9 5.4 L23.5 6.2 24.15 7.45 Q24.4 8.15 23.7 9.05 L22.9 10.0 22.1 10.2 21.05 10.2 19.9 9.4 Q19.1 8.65 19.2 8.2 19.3 7.7 19.75 6.95 20.2 6.15 20.9 5.55 21.5 4.85 22.05 5.0" fill="#e9dedd" fill-rule="evenodd" stroke="none"/>
      <path d="M24.4 8.6 Q24.5 9.6 24.2 10.35 23.95 11.05 23.5 11.1 23.05 11.15 22.65 10.5 L22.2 8.8 Q22.1 7.8 22.35 7.1 22.65 6.4 23.1 6.35 23.55 6.3 23.9 6.95 24.3 7.6 24.4 8.6" fill="#fe89d0" fill-rule="evenodd" stroke="none"/>
      <path d="M21.25 9.4 Q20.7 8.65 20.8 7.95 20.85 7.2 21.3 6.5 21.7 5.75 22.1 5.7 L23.0 5.85 Q23.5 6.05 23.85 7.05 24.2 8.05 23.85 9.15 L23.05 9.95 Q21.8 10.2 21.25 9.4" fill="#ffffff" fill-rule="evenodd" stroke="none"/>
      <path d="M20.15 9.35 Q19.85 8.85 20.0 7.75 20.1 6.8 20.45 6.15 20.85 5.15 21.65 4.95 L22.7 5.0 Q23.45 5.25 23.55 5.6 24.8 7.75 24.1 9.8 23.7 10.65 22.8 10.85 21.55 10.95 20.4 9.8 L20.15 9.35 M21.25 9.4 Q21.8 10.2 23.05 9.95 L23.85 9.15 Q24.2 8.05 23.85 7.05 23.5 6.05 23.0 5.85 L22.1 5.7 Q21.7 5.75 21.3 6.5 20.85 7.2 20.8 7.95 20.7 8.65 21.25 9.4" fill="#000000" fill-rule="evenodd" stroke="none"/>
      <path d="M23.45 8.1 L23.15 8.55 22.6 8.75 22.1 8.45 22.0 7.9 Q22.0 7.6 22.25 7.45 22.55 7.2 22.8 7.25 L23.3 7.55 23.45 8.1" fill="#000000" fill-rule="evenodd" stroke="none"/>
      <path d="M11.05 3.55 L10.15 3.7 9.3 4.3 8.4 5.35 Q7.95 6.0 8.35 7.0 L8.9 8.15 Q8.95 8.25 9.55 8.55 L10.6 8.85 11.95 8.4 Q12.85 7.85 12.9 7.35 L12.7 6.0 Q12.55 5.15 12.0 4.4 11.55 3.55 11.05 3.55" fill="#e9dedd" fill-rule="evenodd" stroke="none"/>
      <path d="M7.85 6.4 Q7.5 7.35 7.55 8.1 7.6 8.9 8.05 9.05 8.5 9.2 9.05 8.65 L9.95 7.2 Q10.3 6.25 10.25 5.45 10.2 4.7 9.75 4.55 9.3 4.4 8.75 4.9 8.2 5.45 7.85 6.4" fill="#fe89d0" fill-rule="evenodd" stroke="none"/>
      <path d="M10.7 7.95 Q11.45 7.4 11.55 6.7 11.7 5.95 11.45 5.15 11.25 4.3 10.85 4.15 L9.95 4.1 Q9.45 4.1 8.8 5.0 8.25 5.9 8.3 7.0 8.35 7.7 8.8 8.0 L10.7 7.95" fill="#ffffff" fill-rule="evenodd" stroke="none"/>
      <path d="M10.7 7.95 L8.8 8.0 Q8.35 7.7 8.3 7.0 8.25 5.9 8.8 5.0 9.45 4.1 9.95 4.1 L10.85 4.15 Q11.25 4.3 11.45 5.15 11.7 5.95 11.55 6.7 11.45 7.4 10.7 7.95 M11.8 8.2 L12.35 6.7 12.3 5.0 Q12.2 3.9 11.5 3.5 L10.45 3.35 Q9.7 3.4 9.5 3.65 7.75 5.4 7.85 7.55 7.95 8.5 8.85 8.9 10.0 9.4 11.35 8.55 L11.8 8.2" fill="#000000" fill-rule="evenodd" stroke="none"/>
      <path d="M8.95 6.15 L9.05 6.7 Q9.3 6.95 9.6 7.0 L10.1 6.8 10.4 6.35 10.25 5.8 9.8 5.5 Q9.5 5.45 9.2 5.7 8.95 5.85 8.95 6.15" fill="#000000" fill-rule="evenodd" stroke="none"/>
    </g>
  </defs>
</svg>
