<?xml version="1.0" encoding="UTF-8" standalone="no"?>
<svg xmlns:ffdec="https://www.free-decompiler.com/flash" xmlns:xlink="http://www.w3.org/1999/xlink" ffdec:objectType="frame" height="42.45px" width="50.2px" xmlns="http://www.w3.org/2000/svg">
  <g transform="matrix(1.0, 0.0, 0.0, 1.0, 29.15, 49.85)">
    <use ffdec:characterId="18" height="42.45" transform="matrix(1.0, 0.0, 0.0, 1.0, -4.05, -27.85)" width="50.2" xlink:href="#sprite0"/>
  </g>
  <defs>
    <g id="sprite0">
      <use ffdec:characterId="17" height="32.25" transform="matrix(1.0, 0.0, 0.0, 1.0, 0.0, 5.05)" width="50.2" xlink:href="#sprite1"/>
      <use ffdec:characterId="6" height="14.2" transform="matrix(1.0, 0.0, 0.0, 1.0, 0.65, -14.9)" width="17.25" xlink:href="#sprite11"/>
      <use ffdec:characterId="8" height="13.35" transform="matrix(1.0, 0.0, 0.0, 1.0, 9.1, -9.15)" width="19.4" xlink:href="#sprite12"/>
      <use ffdec:characterId="10" height="12.4" transform="matrix(1.0, 0.0, 0.0, 1.0, -11.85, -9.65)" width="15.85" xlink:href="#sprite13"/>
      <use ffdec:characterId="12" height="16.25" transform="matrix(-0.4393, 0.7909, 0.7909, 0.4393, -2.55, -12.0)" width="15.0" xlink:href="#sprite14"/>
    </g>
    <g id="sprite1">
      <use ffdec:characterId="3" height="2.0" transform="matrix(-0.6557, 0.5231, 0.478, 0.4579, -15.8, 12.75)" width="3.7" xlink:href="#sprite2"/>
      <use ffdec:characterId="3" height="2.0" transform="matrix(-0.8487, 0.1397, 0.1429, 0.6249, -17.2, 12.1)" width="3.7" xlink:href="#sprite2"/>
      <use ffdec:characterId="3" height="2.0" transform="matrix(0.1873, 0.4774, -0.6429, 0.1576, 8.45, 13.1)" width="3.7" xlink:href="#sprite2"/>
      <use ffdec:characterId="3" height="2.0" transform="matrix(0.653, 0.2955, -0.2997, 0.5667, 9.55, 12.55)" width="3.7" xlink:href="#sprite2"/>
      <use ffdec:characterId="3" height="2.0" transform="matrix(0.4009, 0.3198, -0.478, 0.4579, 17.55, 10.35)" width="3.7" xlink:href="#sprite2"/>
      <use ffdec:characterId="3" height="2.0" transform="matrix(0.7133, -0.0706, 0.0237, 0.6406, 18.85, 9.35)" width="3.7" xlink:href="#sprite2"/>
      <use ffdec:characterId="3" height="2.0" transform="matrix(-0.6557, 0.5231, 0.478, 0.4579, -8.1, 13.75)" width="3.7" xlink:href="#sprite2"/>
      <use ffdec:characterId="15" height="9.0" transform="matrix(1.0, 0.0, 0.0, 1.0, 0.0, 0.0)" width="37.2" xlink:href="#shape1"/>
      <use ffdec:characterId="3" height="2.0" transform="matrix(0.0531, 0.5637, 0.635, -0.0355, -3.75, 12.75)" width="3.7" xlink:href="#sprite3"/>
      <use ffdec:characterId="3" height="2.0" transform="matrix(-0.1521, 0.545, 0.6119, 0.1728, -5.2, 13.25)" width="3.7" xlink:href="#sprite3"/>
      <use ffdec:characterId="3" height="2.0" transform="matrix(0.3598, 0.535, 0.5345, -0.3451, 5.6, 13.3)" width="3.7" xlink:href="#sprite3"/>
      <use ffdec:characterId="3" height="2.0" transform="matrix(0.0544, 0.5913, 0.6345, -0.0464, 4.1, 14.0)" width="3.7" xlink:href="#sprite3"/>
      <use ffdec:characterId="3" height="2.0" transform="matrix(-0.2726, 0.4099, 0.5496, 0.2822, 3.45, 14.0)" width="3.7" xlink:href="#sprite3"/>
      <use ffdec:characterId="3" height="2.0" transform="matrix(0.3598, 0.535, 0.5345, -0.3451, 16.8, 8.05)" width="3.7" xlink:href="#sprite4"/>
      <use ffdec:characterId="3" height="2.0" transform="matrix(0.5985, 0.24, 0.2479, -0.586, 17.7, 8.05)" width="3.7" xlink:href="#sprite4"/>
      <use ffdec:characterId="3" height="2.0" transform="matrix(0.3598, 0.535, 0.5345, -0.3451, 13.2, 10.35)" width="3.7" xlink:href="#sprite4"/>
      <use ffdec:characterId="3" height="2.0" transform="matrix(0.0762, 0.4364, 0.4875, -0.0836, -14.0, 12.25)" width="3.7" xlink:href="#sprite5"/>
      <use ffdec:characterId="16" height="29.75" transform="matrix(1.0, 0.0, 0.0, 1.0, 0.0, 0.0)" width="45.95" xlink:href="#shape5"/>
      <use ffdec:characterId="3" height="2.0" transform="matrix(-0.3701, 0.6333, 0.5496, 0.3212, -18.25, -4.75)" width="3.7" xlink:href="#sprite6"/>
      <use ffdec:characterId="3" height="2.0" transform="matrix(-0.6523, 0.3356, 0.2912, 0.5661, -9.0, -1.35)" width="3.7" xlink:href="#sprite6"/>
      <use ffdec:characterId="3" height="2.0" transform="matrix(-0.3701, 0.6333, 0.5496, 0.3212, -6.85, 2.3)" width="3.7" xlink:href="#sprite6"/>
      <use ffdec:characterId="3" height="2.0" transform="matrix(-0.6188, 0.3938, 0.3418, 0.537, -7.55, 1.4)" width="3.7" xlink:href="#sprite6"/>
      <use ffdec:characterId="3" height="2.0" transform="matrix(0.0531, 0.7316, 0.6349, -0.0461, -3.55, 2.3)" width="3.7" xlink:href="#sprite6"/>
      <use ffdec:characterId="3" height="2.0" transform="matrix(0.6523, 0.3356, -0.2912, 0.5661, 2.4, -2.65)" width="3.7" xlink:href="#sprite7"/>
      <use ffdec:characterId="3" height="2.0" transform="matrix(0.3701, 0.6333, -0.5496, 0.3212, 0.25, 1.0)" width="3.7" xlink:href="#sprite7"/>
      <use ffdec:characterId="3" height="2.0" transform="matrix(0.6188, 0.3938, -0.3418, 0.537, 0.95, 0.1)" width="3.7" xlink:href="#sprite7"/>
      <use ffdec:characterId="3" height="2.0" transform="matrix(0.6523, 0.3356, -0.2912, 0.5661, 1.7, -2.05)" width="3.7" xlink:href="#sprite7"/>
      <use ffdec:characterId="3" height="2.0" transform="matrix(0.3701, 0.6333, -0.5496, 0.3212, -16.25, -4.4)" width="3.7" xlink:href="#sprite6"/>
      <use ffdec:characterId="3" height="2.0" transform="matrix(0.6188, 0.3938, -0.3418, 0.537, -15.45, -5.1)" width="3.7" xlink:href="#sprite6"/>
      <use ffdec:characterId="3" height="2.0" transform="matrix(-0.3878, 0.1995, 0.2912, 0.5661, 11.0, -5.55)" width="3.7" xlink:href="#sprite7"/>
      <use ffdec:characterId="3" height="2.0" transform="matrix(-0.3701, 0.6333, 0.5496, 0.3212, 14.35, -4.1)" width="3.7" xlink:href="#sprite6"/>
      <use ffdec:characterId="3" height="2.0" transform="matrix(-0.6188, 0.3938, 0.3418, 0.537, 13.45, -5.0)" width="3.7" xlink:href="#sprite6"/>
      <use ffdec:characterId="3" height="2.0" transform="matrix(0.7329, 0.0292, -0.0253, 0.6361, 20.6, 6.55)" width="3.7" xlink:href="#sprite2"/>
      <use ffdec:characterId="3" height="2.0" transform="matrix(0.5017, 0.2807, -0.3108, 0.5555, 19.15, -6.7)" width="3.7" xlink:href="#sprite8"/>
      <use ffdec:characterId="3" height="2.0" transform="matrix(0.5801, 0.449, -0.3896, 0.5034, 18.65, -5.7)" width="3.7" xlink:href="#sprite8"/>
      <use ffdec:characterId="3" height="2.0" transform="matrix(0.3317, -0.4268, 0.5027, 0.3906, -19.65, -4.95)" width="3.7" xlink:href="#sprite8"/>
      <use ffdec:characterId="3" height="2.0" transform="matrix(0.5995, 0.0199, -0.0325, 0.5099, -19.8, -7.55)" width="3.7" xlink:href="#sprite8"/>
      <use ffdec:characterId="3" height="2.0" transform="matrix(0.3562, 0.3488, -0.5688, 0.303, -19.1, -8.35)" width="3.7" xlink:href="#sprite8"/>
      <use ffdec:characterId="3" height="2.0" transform="matrix(-0.6418, 0.0213, 0.0348, 0.5459, 19.35, -9.7)" width="3.7" xlink:href="#sprite8"/>
      <use ffdec:characterId="3" height="2.0" transform="matrix(-0.3813, 0.3734, 0.6089, 0.3244, 15.35, -13.35)" width="3.7" xlink:href="#sprite8"/>
      <use ffdec:characterId="3" height="2.0" transform="matrix(0.6523, 0.3356, -0.2912, 0.5661, 7.0, 10.2)" width="3.7" xlink:href="#sprite2"/>
      <use ffdec:characterId="3" height="2.0" transform="matrix(0.7201, 0.1397, -0.1212, 0.6249, 8.15, 9.55)" width="3.7" xlink:href="#sprite2"/>
      <use ffdec:characterId="3" height="2.0" transform="matrix(-0.6557, 0.5231, 0.478, 0.4579, -18.45, 9.7)" width="3.7" xlink:href="#sprite2"/>
      <use ffdec:characterId="3" height="2.0" transform="matrix(-0.8487, 0.1397, 0.1429, 0.6249, -19.85, 9.05)" width="3.7" xlink:href="#sprite2"/>
      <use ffdec:characterId="3" height="2.0" transform="matrix(-0.9666, 0.0292, 0.0334, 0.6361, -22.4, 2.6)" width="3.7" xlink:href="#sprite2"/>
      <use ffdec:characterId="3" height="2.0" transform="matrix(-0.9388, -0.177, -0.2026, 0.6177, -23.1, 1.35)" width="3.7" xlink:href="#sprite2"/>
      <use ffdec:characterId="3" height="2.0" transform="matrix(0.7329, 0.0292, -0.0253, 0.6361, 23.05, 3.3)" width="3.7" xlink:href="#sprite2"/>
      <use ffdec:characterId="3" height="2.0" transform="matrix(0.7118, -0.177, 0.1537, 0.6177, 23.6, 1.6)" width="3.7" xlink:href="#sprite2"/>
      <use ffdec:characterId="3" height="2.0" transform="matrix(-0.4711, 0.2424, 0.2912, 0.5661, -8.95, 6.15)" width="3.7" xlink:href="#sprite9"/>
      <use ffdec:characterId="3" height="2.0" transform="matrix(-0.3701, 0.6333, 0.5496, 0.3212, -6.8, 9.8)" width="3.7" xlink:href="#sprite9"/>
      <use ffdec:characterId="3" height="2.0" transform="matrix(-0.456, 0.2902, 0.3418, 0.537, -7.5, 8.9)" width="3.7" xlink:href="#sprite9"/>
      <use ffdec:characterId="3" height="2.0" transform="matrix(0.0531, 0.7316, 0.6349, -0.0461, -3.0, 10.3)" width="3.7" xlink:href="#sprite9"/>
      <use ffdec:characterId="3" height="2.0" transform="matrix(0.6523, 0.3356, -0.2912, 0.5661, 3.6, 5.5)" width="3.7" xlink:href="#sprite9"/>
      <use ffdec:characterId="3" height="2.0" transform="matrix(0.3701, 0.6333, -0.5496, 0.3212, 0.2, 9.0)" width="3.7" xlink:href="#sprite9"/>
      <use ffdec:characterId="3" height="2.0" transform="matrix(0.6188, 0.3938, -0.3418, 0.537, 0.9, 8.1)" width="3.7" xlink:href="#sprite9"/>
      <use ffdec:characterId="3" height="2.0" transform="matrix(0.6523, 0.3356, -0.2912, 0.5661, 2.9, 6.1)" width="3.7" xlink:href="#sprite9"/>
      <use ffdec:characterId="3" height="2.0" transform="matrix(0.5073, 0.261, -0.2912, 0.5661, 5.35, 2.15)" width="3.7" xlink:href="#sprite9"/>
      <use ffdec:characterId="3" height="2.0" transform="matrix(0.6523, 0.3356, -0.2912, 0.5661, -15.15, 7.0)" width="3.7" xlink:href="#sprite9"/>
      <use ffdec:characterId="3" height="2.0" transform="matrix(-0.3701, 0.6333, 0.5496, 0.3212, 11.55, 1.25)" width="3.7" xlink:href="#sprite9"/>
      <use ffdec:characterId="3" height="2.0" transform="matrix(-0.6188, 0.3938, 0.3418, 0.537, 10.85, 0.35)" width="3.7" xlink:href="#sprite9"/>
      <use ffdec:characterId="3" height="2.0" transform="matrix(0.5073, 0.261, -0.2912, 0.5661, -11.9, 3.75)" width="3.7" xlink:href="#sprite9"/>
      <use ffdec:characterId="3" height="2.0" transform="matrix(-0.3701, 0.6333, 0.5496, 0.3212, 11.95, 5.1)" width="3.7" xlink:href="#sprite9"/>
      <use ffdec:characterId="3" height="2.0" transform="matrix(0.6523, 0.3356, -0.2912, 0.5661, 18.35, 6.5)" width="3.7" xlink:href="#sprite9"/>
      <use ffdec:characterId="3" height="2.0" transform="matrix(0.7325, 0.0384, -0.0333, 0.6357, 19.6, 5.5)" width="3.7" xlink:href="#sprite9"/>
      <use ffdec:characterId="3" height="2.0" transform="matrix(-0.5203, 0.3356, 0.2323, 0.5661, -19.65, 6.5)" width="3.7" xlink:href="#sprite9"/>
      <use ffdec:characterId="3" height="2.0" transform="matrix(-0.5843, 0.0384, 0.0265, 0.6357, -20.55, 5.5)" width="3.7" xlink:href="#sprite9"/>
      <use ffdec:characterId="3" height="2.0" transform="matrix(-0.6328, 0.4081, 0.2323, 0.5661, -12.55, 10.65)" width="3.7" xlink:href="#sprite9"/>
      <use ffdec:characterId="3" height="2.0" transform="matrix(-0.4662, 0.3007, 0.2323, 0.5661, -13.85, 9.95)" width="3.7" xlink:href="#sprite9"/>
      <use ffdec:characterId="3" height="2.0" transform="matrix(0.665, -0.3096, 0.2687, 0.5771, 21.9, -0.5)" width="3.7" xlink:href="#sprite9"/>
      <use ffdec:characterId="3" height="2.0" transform="matrix(0.4791, -0.5554, 0.482, 0.4158, 21.2, -1.5)" width="3.7" xlink:href="#sprite9"/>
      <use ffdec:characterId="3" height="2.0" transform="matrix(-0.627, -0.2919, -0.2534, 0.5441, -20.0, -0.85)" width="3.7" xlink:href="#sprite9"/>
      <use ffdec:characterId="3" height="2.0" transform="matrix(-0.4518, -0.5237, -0.4545, 0.392, -19.3, -1.8)" width="3.7" xlink:href="#sprite9"/>
      <use ffdec:characterId="3" height="2.0" transform="matrix(0.8454, -0.3096, 0.3417, 0.5771, 22.95, -5.45)" width="3.7" xlink:href="#sprite10"/>
      <use ffdec:characterId="3" height="2.0" transform="matrix(0.6092, -0.5554, 0.6129, 0.4158, 22.05, -6.9)" width="3.7" xlink:href="#sprite10"/>
      <use ffdec:characterId="3" height="2.0" transform="matrix(-0.122, 0.7233, 0.6277, 0.1059, 3.9, 11.3)" width="3.7" xlink:href="#sprite2"/>
      <use ffdec:characterId="3" height="2.0" transform="matrix(-0.3195, 0.6603, 0.573, 0.2773, 13.15, 8.6)" width="3.7" xlink:href="#sprite2"/>
      <use ffdec:characterId="3" height="2.0" transform="matrix(-0.3195, 0.6603, 0.573, 0.2773, -10.85, 11.4)" width="3.7" xlink:href="#sprite2"/>
      <use ffdec:characterId="3" height="2.0" transform="matrix(-0.8866, -0.0995, 0.0306, 0.6405, -22.5, -2.45)" width="3.7" xlink:href="#sprite2"/>
      <use ffdec:characterId="3" height="2.0" transform="matrix(-0.7763, -0.4679, -0.3729, 0.5028, -22.05, -4.35)" width="3.7" xlink:href="#sprite2"/>
      <use ffdec:characterId="3" height="2.0" transform="matrix(-0.6167, -0.3971, -0.3446, 0.5352, -2.35, -8.5)" width="3.7" xlink:href="#sprite6"/>
      <use ffdec:characterId="3" height="2.0" transform="matrix(-0.7335, -0.0038, -0.0034, 0.6366, -4.45, -4.8)" width="3.7" xlink:href="#sprite6"/>
      <use ffdec:characterId="3" height="2.0" transform="matrix(-0.6505, -0.339, -0.2942, 0.5645, -4.05, -5.9)" width="3.7" xlink:href="#sprite6"/>
      <use ffdec:characterId="3" height="2.0" transform="matrix(0.4233, 0.3276, -0.3896, 0.5034, 18.15, -1.35)" width="3.7" xlink:href="#sprite8"/>
      <use ffdec:characterId="3" height="2.0" transform="matrix(0.4233, 0.3276, -0.3896, 0.5034, -17.0, -11.1)" width="3.7" xlink:href="#sprite8"/>
      <use ffdec:characterId="3" height="2.0" transform="matrix(-0.4145, 0.3762, 0.4278, 0.4714, -15.7, -0.6)" width="3.7" xlink:href="#sprite8"/>
      <use ffdec:characterId="3" height="2.0" transform="matrix(-0.169, -0.6442, -0.559, 0.1466, -15.1, -9.7)" width="3.7" xlink:href="#sprite6"/>
      <use ffdec:characterId="3" height="2.0" transform="matrix(-0.6442, -0.169, 0.1467, -0.559, -16.15, -8.3)" width="3.7" xlink:href="#sprite6"/>
      <use ffdec:characterId="3" height="2.0" transform="matrix(-0.169, -0.6442, -0.559, 0.1466, 13.15, -9.4)" width="3.7" xlink:href="#sprite6"/>
      <use ffdec:characterId="3" height="2.0" transform="matrix(-0.6442, -0.169, 0.1467, -0.559, 15.45, -7.45)" width="3.7" xlink:href="#sprite6"/>
      <use ffdec:characterId="3" height="2.0" transform="matrix(-0.3813, 0.3734, 0.6089, 0.3244, 19.35, -10.55)" width="3.7" xlink:href="#sprite8"/>
    </g>
    <g id="sprite2">
      <use ffdec:characterId="2" height="2.0" transform="matrix(1.0, 0.0, 0.0, 1.0, 0.0, 0.0)" width="3.7" xlink:href="#shape0"/>
    </g>
    <g id="shape0">
      <path d="M0.0 -0.65 L1.3 -0.35 1.85 0.35 1.3 1.05 0.1 1.35 0.0 1.35 -1.3 1.05 -1.85 0.35 -1.3 -0.35 0.0 -0.65" fill="#15100b" fill-rule="evenodd" stroke="none"/>
    </g>
    <g id="shape1">
      <path d="M11.6 10.9 L11.9 10.4 11.6 9.9 10.85 9.7 10.1 9.9 Q9.8 10.1 9.8 10.4 9.8 10.7 10.1 10.9 L10.85 11.1 11.6 10.9 M14.8 11.05 L14.25 11.55 Q13.4 12.35 12.3 12.45 L10.15 12.55 7.6 12.15 7.55 12.1 7.6 12.3 7.55 12.7 Q7.35 13.35 5.9 13.85 L5.0 14.1 4.95 14.15 Q4.05 14.7 3.0 14.85 L0.55 14.9 Q-1.05 14.9 -2.0 13.8 L-2.15 13.6 -2.6 13.55 -3.85 13.95 -6.35 14.3 -9.25 14.05 Q-10.8 13.8 -11.45 12.85 L-11.85 13.05 -12.9 13.4 -15.05 13.3 -16.85 12.05 Q-17.75 11.35 -17.6 10.15 L-17.6 10.0 -17.45 9.5 -17.35 9.45 -17.45 9.1 -17.15 8.55 -17.15 8.5 -16.8 8.4 -14.85 6.55 -14.7 6.4 18.55 6.4 19.0 7.7 19.4 8.5 18.55 9.65 Q17.35 10.95 16.2 11.1 L15.45 11.15 14.8 11.0 14.8 11.05 M3.15 11.5 Q2.3 10.95 1.1 10.95 -0.05 10.95 -0.95 11.5 -1.8 11.95 -1.8 12.6 -1.8 13.25 -0.95 13.8 L1.1 14.25 3.15 13.8 Q4.0 13.25 4.0 12.6 4.0 11.95 3.15 11.5 M-8.15 10.45 Q-9.3 10.45 -10.1 10.95 L-10.7 11.45 -10.95 12.05 Q-10.95 12.7 -10.1 13.2 L-8.15 13.65 Q-7.0 13.65 -6.15 13.2 -5.5 12.8 -5.35 12.3 L-5.35 12.05 Q-5.35 11.4 -6.15 10.95 -7.0 10.45 -8.15 10.45" fill="#ab0027" fill-rule="evenodd" stroke="none"/>
      <path d="M11.6 10.9 L10.85 11.1 10.1 10.9 Q9.8 10.7 9.8 10.4 9.8 10.1 10.1 9.9 L10.85 9.7 11.6 9.9 11.9 10.4 11.6 10.9 M3.15 11.5 Q4.0 11.95 4.0 12.6 4.0 13.25 3.15 13.8 L1.1 14.25 -0.95 13.8 Q-1.8 13.25 -1.8 12.6 -1.8 11.95 -0.95 11.5 -0.05 10.95 1.1 10.95 2.3 10.95 3.15 11.5 M-8.15 10.45 Q-7.0 10.45 -6.15 10.95 -5.35 11.4 -5.35 12.05 L-5.35 12.3 Q-5.5 12.8 -6.15 13.2 -7.0 13.65 -8.15 13.65 L-10.1 13.2 Q-10.95 12.7 -10.95 12.05 L-10.7 11.45 -10.1 10.95 Q-9.3 10.45 -8.15 10.45" fill="#ff0000" fill-rule="evenodd" stroke="none"/>
      <path d="M14.85 9.75 L14.9 9.8 15.35 10.3 15.85 10.5 17.1 9.7 17.8 8.65 Q17.95 8.0 17.5 7.1 18.45 6.5 19.1 6.65 19.75 7.0 19.5 8.3 L18.55 9.65 Q17.35 10.95 16.2 11.1 L15.45 11.15 14.8 11.0 14.8 11.05 14.25 11.55 Q13.4 12.35 12.3 12.45 L11.6 12.5 Q10.05 12.7 8.1 13.8 L6.0 14.95 1.5 15.25 -2.4 14.2 -3.1 13.95 -3.55 14.15 -6.3 14.5 -9.25 14.05 Q-10.8 13.8 -11.45 12.85 L-11.85 13.05 -12.9 13.4 -15.05 13.3 -16.85 12.05 Q-17.75 11.35 -17.6 10.15 L-17.6 10.0 -17.45 9.5 -17.2 8.95 -17.25 9.55 Q-17.0 11.0 -16.4 11.8 -15.65 12.6 -14.2 12.95 L-13.6 12.95 -12.15 12.45 -11.85 12.45 -11.6 12.4 -11.25 12.75 Q-10.8 13.25 -8.95 13.65 L-7.45 13.7 -4.15 13.15 -3.4 12.95 -3.2 12.9 -3.1 12.85 -2.6 12.85 -2.45 12.9 Q-1.05 14.15 0.35 14.3 L4.65 14.05 Q6.75 13.25 7.95 11.4 L8.5 11.2 9.85 11.7 Q11.55 11.8 14.55 9.75 L14.85 9.75" fill="#000000" fill-rule="evenodd" stroke="none"/>
    </g>
    <g id="sprite3">
      <use ffdec:characterId="2" height="2.0" transform="matrix(1.0, 0.0, 0.0, 1.0, 0.0, 0.0)" width="3.7" xlink:href="#shape2"/>
    </g>
    <g id="shape2">
      <path d="M0.0 -0.65 L1.3 -0.35 1.85 0.35 1.3 1.05 0.1 1.35 0.0 1.35 -1.3 1.05 -1.85 0.35 -1.3 -0.35 0.0 -0.65" fill="#ab0027" fill-rule="evenodd" stroke="none"/>
    </g>
    <g id="sprite4">
      <use ffdec:characterId="2" height="2.0" transform="matrix(1.0, 0.0, 0.0, 1.0, 0.0, 0.0)" width="3.7" xlink:href="#shape3"/>
    </g>
    <g id="shape3">
      <path d="M0.0 -0.65 L1.3 -0.35 1.85 0.35 1.3 1.05 0.1 1.35 0.0 1.35 -1.3 1.05 -1.85 0.35 -1.3 -0.35 0.0 -0.65" fill="#710019" fill-rule="evenodd" stroke="none"/>
    </g>
    <g id="sprite5">
      <use ffdec:characterId="2" height="2.0" transform="matrix(1.0, 0.0, 0.0, 1.0, 0.0, 0.0)" width="3.7" xlink:href="#shape4"/>
    </g>
    <g id="shape4">
      <path d="M0.0 -0.65 L1.3 -0.35 1.85 0.35 1.3 1.05 0.1 1.35 0.0 1.35 -1.3 1.05 -1.85 0.35 -1.3 -0.35 0.0 -0.65" fill="#ff0000" fill-rule="evenodd" stroke="none"/>
    </g>
    <g id="shape5">
      <path d="M16.1 -4.5 L16.9 -4.65 Q18.05 -4.85 19.05 -5.5 L20.0 -7.8 19.35 -8.9 18.15 -10.55 17.3 -11.55 15.05 -13.55 14.0 -14.25 Q10.8 -16.2 7.1 -16.1 L3.35 -15.5 1.15 -14.7 Q-0.85 -13.8 -2.45 -13.8 L-7.8 -13.95 -8.15 -13.95 -8.2 -13.95 -10.85 -13.9 Q-12.85 -13.55 -14.75 -12.05 L-15.05 -11.85 -15.05 -11.8 -17.05 -9.9 -18.95 -7.25 -19.4 -6.4 -19.5 -6.25 -19.6 -6.05 -19.85 -5.5 -19.95 -5.3 -19.85 -5.25 Q-19.3 -4.95 -18.6 -4.8 L-19.15 -3.2 -19.65 -0.85 -19.65 -0.8 Q-20.5 5.05 -15.45 7.55 L-12.3 4.25 -12.5 3.7 Q-12.85 3.15 -12.85 1.45 -12.7 -0.95 -11.2 -0.95 L-11.0 -0.9 -10.7 -0.8 Q-9.85 9.1 -5.15 10.65 -0.5 12.15 3.35 5.25 L3.8 4.4 Q7.3 -1.7 9.4 -1.0 11.05 -0.45 12.4 5.75 L13.65 4.05 Q15.45 1.65 15.8 -1.05 L15.95 -2.3 16.1 -4.5 M14.1 -15.3 L15.85 -14.3 16.85 -13.45 19.15 -11.05 20.0 -9.9 20.25 -9.6 Q21.9 -7.15 22.75 -4.4 23.45 -1.95 23.4 0.7 L23.35 1.25 23.25 1.8 23.2 2.15 Q23.0 3.95 22.15 5.25 L20.8 6.55 19.55 7.5 Q17.25 8.95 14.6 9.2 L12.6 8.95 12.35 8.95 12.3 8.9 12.1 8.9 10.6 8.55 Q8.3 9.85 5.9 10.8 L2.15 12.1 1.6 12.2 1.25 12.3 0.55 12.5 -1.35 12.8 -1.55 12.8 Q-5.05 13.15 -8.4 11.95 L-8.95 11.75 -9.25 11.6 -9.5 11.7 -9.6 11.75 -9.7 11.75 -10.15 11.85 -10.25 11.9 -10.35 11.9 -10.65 11.9 -10.95 11.9 -11.4 11.9 -11.45 12.0 -11.6 12.0 -13.0 12.0 -13.3 11.95 -15.4 11.55 -15.45 11.55 -15.65 11.45 Q-17.35 10.8 -18.85 9.55 -20.65 8.1 -21.3 6.95 L-21.45 6.75 Q-22.55 4.75 -22.55 1.9 L-22.55 1.1 -22.4 -0.5 -22.3 -1.0 Q-22.0 -3.6 -20.9 -5.95 L-20.7 -6.35 -20.6 -6.5 -20.15 -7.35 -20.0 -7.6 -19.15 -8.9 -18.05 -10.35 -17.0 -11.4 -15.95 -12.4 -15.6 -12.65 Q-13.6 -14.2 -11.5 -14.6 L-8.7 -14.65 -8.65 -14.65 -8.25 -14.65 -2.6 -14.45 -2.05 -14.45 -0.6 -14.75 1.2 -15.45 3.35 -16.3 7.15 -16.85 Q10.6 -16.95 14.0 -15.35 L14.1 -15.3" fill="#000000" fill-rule="evenodd" stroke="none"/>
      <path d="M-18.6 -4.8 Q-19.3 -4.95 -19.85 -5.25 L-19.95 -5.3 -19.85 -5.5 -19.6 -6.05 -19.5 -6.25 -19.4 -6.4 -18.95 -7.25 -17.05 -9.9 -15.05 -11.8 -15.05 -11.85 -14.75 -12.05 Q-12.85 -13.55 -10.85 -13.9 L-8.2 -13.95 -8.15 -13.95 -7.8 -13.95 -2.45 -13.8 Q-0.85 -13.8 1.15 -14.7 L3.35 -15.5 7.1 -16.1 Q10.8 -16.2 14.0 -14.25 L15.05 -13.55 17.3 -11.55 18.15 -10.55 19.35 -8.9 20.0 -7.8 19.05 -5.5 Q18.05 -4.85 16.9 -4.65 L16.1 -4.5 16.05 -5.0 15.65 -6.95 15.2 -7.95 Q14.45 -9.3 12.35 -9.6 10.05 -9.7 9.55 -9.05 L8.15 -8.9 Q7.2 -8.9 5.55 -9.7 L3.45 -10.15 2.7 -10.15 0.05 -9.6 -1.75 -8.7 -3.0 -7.8 Q-4.1 -6.7 -4.55 -5.65 L-4.95 -4.55 -6.25 -5.0 -5.65 -7.45 -5.65 -7.7 Q-5.6 -8.5 -6.2 -8.9 L-7.8 -9.25 -9.0 -8.85 -10.0 -8.3 -10.45 -8.0 Q-11.9 -6.9 -13.7 -7.2 L-13.95 -8.55 -10.45 -10.8 -9.2 -11.45 -9.5 -12.6 -11.35 -12.7 -14.1 -11.2 -14.45 -11.05 -14.35 -11.05 Q-16.25 -9.3 -17.5 -7.15 L-18.15 -5.85 -18.25 -5.65 -18.6 -4.8" fill="#ba910e" fill-rule="evenodd" stroke="none"/>
      <path d="M-10.0 -8.3 L-9.0 -8.85 -7.8 -9.25 -6.2 -8.9 Q-5.6 -8.5 -5.65 -7.7 L-5.65 -7.45 -6.25 -5.0 -4.95 -4.55 -4.55 -5.65 Q-4.1 -6.7 -3.0 -7.8 L-1.75 -8.7 0.05 -9.6 2.7 -10.15 3.45 -10.15 5.55 -9.7 Q7.2 -8.9 8.15 -8.9 L9.55 -9.05 Q10.05 -9.7 12.35 -9.6 14.45 -9.3 15.2 -7.95 L15.65 -6.95 16.05 -5.0 16.1 -4.5 15.55 -4.5 13.35 -4.9 Q12.4 -5.25 11.55 -5.85 9.8 -7.25 8.0 -7.7 L4.4 -7.8 4.35 -7.75 4.15 -7.5 3.5 -5.6 3.05 -4.45 1.45 -1.1 Q-0.65 3.0 -4.15 2.9 -7.45 2.85 -9.1 0.2 -10.75 -2.5 -10.75 -6.5 L-10.85 -6.4 -10.9 -6.35 -11.0 -6.25 -10.45 -7.5 -10.0 -8.3" fill="#ffeebd" fill-rule="evenodd" stroke="none"/>
      <path d="M16.1 -4.5 L15.95 -2.3 15.8 -1.05 Q15.45 1.65 13.65 4.05 L12.4 5.75 Q11.05 -0.45 9.4 -1.0 7.3 -1.7 3.8 4.4 4.2 2.7 4.25 0.8 4.35 -2.1 3.05 -4.45 L3.5 -5.6 4.15 -7.5 4.35 -7.75 4.4 -7.8 8.0 -7.7 Q9.8 -7.25 11.55 -5.85 12.4 -5.25 13.35 -4.9 L15.55 -4.5 16.1 -4.5 M-11.0 -0.9 L-11.2 -0.95 Q-12.7 -0.95 -12.85 1.45 -12.85 3.15 -12.5 3.7 L-12.3 4.25 -15.45 7.55 Q-20.5 5.05 -19.65 -0.8 L-19.65 -0.85 -19.15 -3.2 -18.6 -4.8 -17.25 -4.6 Q-13.7 -4.1 -11.0 -6.25 L-10.9 -6.35 -10.85 -6.4 -11.0 -0.9" fill="#2e2319" fill-rule="evenodd" stroke="none"/>
      <path d="M3.8 4.4 L3.35 5.25 Q-0.5 12.15 -5.15 10.65 -9.85 9.1 -10.7 -0.8 L-11.0 -0.9 -10.85 -6.4 -10.75 -6.5 Q-10.75 -2.5 -9.1 0.2 -7.45 2.85 -4.15 2.9 -0.65 3.0 1.45 -1.1 L3.05 -4.45 Q4.35 -2.1 4.25 0.8 4.2 2.7 3.8 4.4" fill="#504235" fill-rule="evenodd" stroke="none"/>
      <path d="M-18.6 -4.8 L-18.25 -5.65 -18.15 -5.85 -17.5 -7.15 Q-16.25 -9.3 -14.35 -11.05 L-14.45 -11.05 -14.1 -11.2 -11.35 -12.7 -9.5 -12.6 -9.2 -11.45 -10.45 -10.8 -13.95 -8.55 -13.7 -7.2 Q-11.9 -6.9 -10.45 -8.0 L-10.0 -8.3 -10.45 -7.5 -11.0 -6.25 Q-13.7 -4.1 -17.25 -4.6 L-18.6 -4.8" fill="#ffe69e" fill-rule="evenodd" stroke="none"/>
      <path d="M10.95 -5.75 Q7.35 -7.8 6.2 -7.85 5.05 -7.95 4.1 -6.25 L2.4 -2.5 Q-0.1 2.9 -4.1 2.9 L-5.55 2.75 -4.3 2.75 Q-2.3 2.6 0.45 -2.95 3.15 -8.5 6.4 -8.5 7.7 -8.5 10.65 -6.8 13.55 -5.15 14.65 -4.75 L16.85 -4.6 Q14.45 -3.8 10.95 -5.75 M-10.7 -7.0 L-10.7 -6.45 -10.75 -6.5 Q-11.6 -5.45 -13.4 -4.85 L-16.85 -4.4 Q-18.5 -4.55 -19.95 -5.3 L-19.5 -6.25 Q-19.4 -5.8 -18.4 -5.4 -17.45 -5.0 -16.0 -4.95 -14.55 -4.9 -12.75 -5.65 -11.0 -6.4 -10.75 -7.0 L-10.7 -7.0" fill="#c8ad56" fill-rule="evenodd" stroke="none"/>
    </g>
    <g id="sprite6">
      <use ffdec:characterId="2" height="2.0" transform="matrix(1.0, 0.0, 0.0, 1.0, 0.0, 0.0)" width="3.7" xlink:href="#shape6"/>
    </g>
    <g id="shape6">
      <path d="M0.0 -0.65 L1.3 -0.35 1.85 0.35 1.3 1.05 0.1 1.35 0.0 1.35 -1.3 1.05 -1.85 0.35 -1.3 -0.35 0.0 -0.65" fill="#fce9ac" fill-rule="evenodd" stroke="none"/>
    </g>
    <g id="sprite7">
      <use ffdec:characterId="2" height="2.0" transform="matrix(1.0, 0.0, 0.0, 1.0, 0.0, 0.0)" width="3.7" xlink:href="#shape7"/>
    </g>
    <g id="shape7">
      <path d="M0.0 -0.65 L1.3 -0.35 1.85 0.35 1.3 1.05 0.1 1.35 0.0 1.35 -1.3 1.05 -1.85 0.35 -1.3 -0.35 0.0 -0.65" fill="#c8ad56" fill-rule="evenodd" stroke="none"/>
    </g>
    <g id="sprite8">
      <use ffdec:characterId="2" height="2.0" transform="matrix(1.0, 0.0, 0.0, 1.0, 0.0, 0.0)" width="3.7" xlink:href="#shape8"/>
    </g>
    <g id="shape8">
      <path d="M0.0 -0.65 L1.3 -0.35 1.85 0.35 1.3 1.05 0.1 1.35 0.0 1.35 -1.3 1.05 -1.85 0.35 -1.3 -0.35 0.0 -0.65" fill="#ba910e" fill-rule="evenodd" stroke="none"/>
    </g>
    <g id="sprite9">
      <use ffdec:characterId="2" height="2.0" transform="matrix(1.0, 0.0, 0.0, 1.0, 0.0, 0.0)" width="3.7" xlink:href="#shape9"/>
    </g>
    <g id="shape9">
      <path d="M0.0 -0.65 L1.3 -0.35 1.85 0.35 1.3 1.05 0.1 1.35 0.0 1.35 -1.3 1.05 -1.85 0.35 -1.3 -0.35 0.0 -0.65" fill="#584b3f" fill-rule="evenodd" stroke="none"/>
    </g>
    <g id="sprite10">
      <use ffdec:characterId="2" height="2.0" transform="matrix(1.0, 0.0, 0.0, 1.0, 0.0, 0.0)" width="3.7" xlink:href="#shape10"/>
    </g>
    <g id="shape10">
      <path d="M0.0 -0.65 L1.3 -0.35 1.85 0.35 1.3 1.05 0.1 1.35 0.0 1.35 -1.3 1.05 -1.85 0.35 -1.3 -0.35 0.0 -0.65" fill="#000000" fill-rule="evenodd" stroke="none"/>
    </g>
    <g id="sprite11">
      <use ffdec:characterId="5" height="14.2" transform="matrix(1.0, 0.0, 0.0, 1.0, 0.0, 0.0)" width="17.25" xlink:href="#shape11"/>
    </g>
    <g id="shape11">
      <path d="M5.95 -3.75 Q5.15 -3.1 3.25 -2.8 3.85 -1.35 4.85 -0.8 5.75 -0.1 7.4 0.1 L4.2 1.15 Q1.55 1.9 1.8 3.8 -0.65 4.75 -2.85 6.2 L-4.3 5.7 Q-5.65 5.05 -7.15 4.8 L-6.65 4.65 Q-4.25 2.45 -7.75 1.05 -5.5 0.95 -3.25 -0.45 -2.45 -1.55 -3.3 -2.4 L-1.8 -2.8 Q0.8 -3.55 1.7 -5.5 1.75 -5.25 2.15 -5.1 3.65 -4.35 5.65 -4.35 L6.55 -4.25 5.95 -3.75" fill="#004b2a" fill-rule="evenodd" stroke="none"/>
      <path d="M1.4 -6.35 L1.55 -7.1 Q4.3 -4.1 7.85 -4.65 6.1 -3.75 4.9 -2.5 5.8 -0.6 8.65 0.05 1.8 1.75 2.6 3.9 -0.8 5.1 -3.0 7.1 L-6.2 6.05 Q-8.1 5.6 -8.6 4.9 -8.35 5.05 -7.1 4.3 -5.9 3.65 -6.2 2.85 -6.85 1.8 -8.4 1.2 L-8.2 0.8 -8.0 0.55 Q-5.75 0.7 -3.8 -0.65 -2.8 -1.6 -4.25 -2.45 0.0 -3.15 1.4 -6.35 M3.25 -2.8 Q5.15 -3.1 5.95 -3.75 L6.55 -4.25 5.65 -4.35 Q3.65 -4.35 2.15 -5.1 1.75 -5.25 1.7 -5.5 0.8 -3.55 -1.8 -2.8 L-3.3 -2.4 Q-2.45 -1.55 -3.25 -0.45 -5.5 0.95 -7.75 1.05 -4.25 2.45 -6.65 4.65 L-7.15 4.8 Q-5.65 5.05 -4.3 5.7 L-2.85 6.2 Q-0.65 4.75 1.8 3.8 1.55 1.9 4.2 1.15 L7.4 0.1 Q5.75 -0.1 4.85 -0.8 3.85 -1.35 3.25 -2.8" fill="#000000" fill-rule="evenodd" stroke="none"/>
    </g>
    <g id="sprite12">
      <use ffdec:characterId="7" height="13.35" transform="matrix(1.0, 0.0, 0.0, 1.0, 0.0, 0.0)" width="19.4" xlink:href="#shape12"/>
    </g>
    <g id="shape12">
      <path d="M3.3 -3.1 Q2.6 -3.15 2.35 -2.8 L3.1 -3.0 Q3.5 -3.1 3.3 -3.1 M5.2 0.7 Q4.8 -0.25 3.85 -0.9 2.1 -2.2 0.1 -1.65 -0.7 -1.45 -1.35 -1.05 L-2.25 -0.4 -3.2 -0.4 -2.45 -0.2 -2.95 0.35 -3.6 1.5 -3.9 -0.1 -4.1 -0.25 -3.75 1.9 Q-4.1 2.85 -4.1 3.85 L-3.2 4.8 Q-3.2 4.4 -2.25 3.7 -1.35 2.9 -0.4 2.95 L0.05 3.0 0.25 3.05 0.45 3.1 Q0.35 3.8 0.4 4.55 L-0.3 4.3 -1.8 4.05 -2.25 5.4 -2.35 5.8 -2.45 6.2 -2.55 6.65 Q-6.55 3.15 -8.4 2.7 L-9.7 2.4 -9.7 2.05 -7.85 1.0 Q-8.45 1.7 -8.1 1.65 L-6.6 1.15 Q-5.6 0.75 -4.3 -0.45 L-2.05 -1.85 -3.95 -1.15 -6.7 -0.2 -6.85 -0.55 -6.75 -1.05 -6.4 -2.35 Q-3.95 -2.8 -3.55 -5.2 -3.35 -5.95 -3.4 -6.7 L-2.95 -6.25 -2.9 -6.3 -2.85 -6.15 Q0.6 -3.1 4.0 -6.3 5.35 -3.0 8.75 -2.5 L8.85 -2.5 9.45 -2.5 9.7 -2.5 Q6.7 -1.5 6.2 1.25 5.7 0.9 5.2 0.7 M4.2 -2.1 Q2.25 -2.4 -0.3 -2.15 L5.9 -1.55 Q6.1 -1.8 4.2 -2.1 M-0.8 -4.5 L-1.45 -4.8 -1.35 -4.7 -1.1 -4.6 -0.8 -4.5 M-3.3 -4.25 L-3.35 -4.25 -3.4 -3.9 -3.3 -4.25 M-2.4 -4.2 L-2.8 -4.55 Q-2.5 -4.05 -3.5 -1.75 -2.15 -3.25 -2.4 -4.2" fill="#019552" fill-rule="evenodd" stroke="none"/>
      <path d="M3.3 -3.1 Q3.5 -3.1 3.1 -3.0 L2.35 -2.8 Q2.6 -3.15 3.3 -3.1 M-1.35 -1.05 L0.55 -1.35 Q2.35 -1.55 3.15 -0.05 L3.3 0.2 3.4 0.6 4.55 0.75 5.25 0.95 5.25 0.9 5.2 0.7 Q5.7 0.9 6.2 1.25 L6.05 2.15 6.05 2.7 Q5.6 1.95 4.55 1.95 3.45 1.95 2.3 2.6 L1.3 3.35 0.8 4.45 0.7 4.7 0.4 4.55 Q0.35 3.8 0.45 3.1 0.9 3.2 1.15 3.5 1.15 2.3 1.8 1.45 2.45 0.6 3.4 0.6 L2.9 0.2 Q0.95 -1.2 -1.35 -1.05 M4.2 -2.1 Q6.1 -1.8 5.9 -1.55 L-0.3 -2.15 Q2.25 -2.4 4.2 -2.1 M0.25 3.05 L-0.75 1.25 Q-1.4 0.2 -2.45 -0.2 L-3.2 -0.4 -2.25 -0.4 -1.75 -0.25 Q-0.7 0.3 -0.3 1.35 L0.45 3.1 0.25 3.05 M-3.6 1.5 L-3.05 4.1 -3.15 4.1 -3.4 3.8 -3.75 2.05 -3.75 1.9 -4.1 -0.25 -3.9 -0.1 -3.6 1.5 M-2.4 -4.2 Q-2.15 -3.25 -3.5 -1.75 -2.5 -4.05 -2.8 -4.55 L-2.4 -4.2 M-6.7 -0.2 L-3.95 -1.15 -2.05 -1.85 -4.3 -0.45 Q-5.6 0.75 -6.6 1.15 L-8.1 1.65 Q-8.45 1.7 -7.85 1.0 L-7.65 0.85 -7.45 0.65 -7.05 0.25 -6.7 -0.2" fill="#054428" fill-rule="evenodd" stroke="none"/>
      <path d="M5.2 0.7 L5.25 0.9 5.25 0.95 4.55 0.75 3.4 0.6 3.3 0.2 3.15 -0.05 Q2.35 -1.55 0.55 -1.35 L-1.35 -1.05 Q-0.7 -1.45 0.1 -1.65 2.1 -2.2 3.85 -0.9 4.8 -0.25 5.2 0.7 M-1.35 -1.05 Q0.95 -1.2 2.9 0.2 L3.4 0.6 Q2.45 0.6 1.8 1.45 1.15 2.3 1.15 3.5 0.9 3.2 0.45 3.1 L-0.3 1.35 Q-0.7 0.3 -1.75 -0.25 L-2.25 -0.4 -1.35 -1.05 M0.25 3.05 L0.05 3.0 -0.4 2.95 Q-1.35 2.9 -2.25 3.7 -3.2 4.4 -3.2 4.8 L-4.1 3.85 Q-4.1 2.85 -3.75 1.9 L-3.75 2.05 -3.4 3.8 -3.15 4.1 -3.05 4.1 -3.6 1.5 -2.95 0.35 -2.45 -0.2 Q-1.4 0.2 -0.75 1.25 L0.25 3.05" fill="#7ff58d" fill-rule="evenodd" stroke="none"/>
      <path d="M7.7 -2.4 Q4.95 -3.0 3.75 -5.8 0.35 -2.6 -3.1 -6.1 -3.1 -5.45 -3.25 -4.7 -3.65 -2.45 -5.9 -2.0 L-6.05 -1.55 -6.05 -1.5 -6.25 -0.75 -6.55 0.35 -7.15 1.0 -7.5 1.3 -7.55 1.35 Q-4.8 2.85 -3.2 4.8 -3.2 4.4 -2.25 3.7 -1.35 2.9 -0.4 2.95 L0.05 3.0 Q0.8 3.1 1.15 3.5 L1.15 3.4 Q1.55 2.5 2.35 1.8 3.1 1.05 4.1 1.15 L5.15 1.25 5.75 -1.05 Q6.65 -2.55 7.7 -2.4 M8.85 -2.5 L9.45 -2.5 9.7 -2.5 Q5.9 -1.2 6.05 2.85 L2.6 2.75 Q1.55 3.55 1.45 4.7 L1.45 4.8 1.45 5.25 1.35 5.2 Q0.65 4.5 -0.3 4.3 L-1.8 4.05 -2.25 5.4 -2.35 5.8 -2.45 6.2 -2.55 6.65 Q-6.55 3.15 -8.4 2.7 L-9.7 2.4 -9.7 2.05 -7.65 0.85 -7.1 0.15 Q-6.85 -0.4 -6.75 -1.05 L-6.4 -2.35 Q-3.95 -2.8 -3.55 -5.2 -3.35 -5.95 -3.4 -6.7 0.35 -2.85 4.0 -6.3 5.35 -3.0 8.75 -2.5 L8.85 -2.5 M1.2 3.6 L1.25 3.6 1.25 3.55 1.2 3.6" fill="#000000" fill-rule="evenodd" stroke="none"/>
    </g>
    <g id="sprite13">
      <use ffdec:characterId="9" height="12.4" transform="matrix(1.0, 0.0, 0.0, 1.0, 0.0, 0.0)" width="15.85" xlink:href="#shape13"/>
    </g>
    <g id="shape13">
      <path d="M-0.6 1.0 L-0.35 0.9 0.05 1.05 0.8 0.5 1.45 -0.6 0.75 -0.15 0.1 0.05 -0.65 0.6 Q-0.85 -0.35 -1.65 -0.9 -2.7 -1.65 -3.85 -1.9 -2.1 -2.6 -1.05 -5.0 -0.3 -2.9 1.75 -3.05 L1.85 -2.9 Q3.5 -2.95 4.9 -4.75 L4.9 -3.4 Q5.35 -1.15 6.6 -0.75 L6.5 -0.1 6.55 0.3 Q4.55 -1.15 1.85 -1.7 L-2.55 -2.0 -1.7 -1.25 1.75 -1.0 Q6.1 -0.55 6.35 1.05 L5.55 0.2 Q3.75 -0.2 2.7 1.25 L2.05 2.45 Q1.65 2.1 1.0 2.0 L0.6 1.95 -1.0 3.1 Q-0.55 2.1 -0.6 1.0" fill="#23a76d" fill-rule="evenodd" stroke="none"/>
      <path d="M-0.65 0.6 L0.1 0.05 0.75 -0.15 1.45 -0.6 0.8 0.5 0.05 1.05 -0.35 0.9 -0.6 1.0 -0.95 1.1 -1.15 1.35 -1.8 1.4 -0.65 0.6 M6.35 1.05 Q6.1 -0.55 1.75 -1.0 L-1.7 -1.25 -2.55 -2.0 1.85 -1.7 Q4.55 -1.15 6.55 0.3 L6.85 1.6 6.8 1.65 6.55 1.6 6.3 1.6 6.35 1.05" fill="#0f6741" fill-rule="evenodd" stroke="none"/>
      <path d="M-0.6 1.0 Q-0.55 2.1 -1.0 3.1 L-2.6 4.25 -2.5 2.7 -2.6 1.85 Q-3.35 0.4 -4.65 -0.7 L-5.85 -1.7 -4.0 -1.85 -3.85 -1.9 Q-2.7 -1.65 -1.65 -0.9 -0.85 -0.35 -0.65 0.6 L-1.8 1.4 -1.15 1.35 -0.95 1.1 -0.6 1.0 M2.05 2.45 L2.7 1.25 Q3.75 -0.2 5.55 0.2 L6.35 1.05 6.3 1.6 Q5.3 1.7 4.4 2.5 L3.75 3.4 3.0 5.2 3.0 5.05 2.85 5.6 2.85 4.25 Q2.75 3.0 2.05 2.45" fill="#82ff91" fill-rule="evenodd" stroke="none"/>
      <path d="M1.85 -2.9 L1.5 -2.95 Q0.0 -2.9 -0.8 -4.4 L-1.0 -4.85 Q-2.15 -2.2 -4.4 -1.75 L-4.6 -1.7 -4.7 -1.65 -5.1 -1.55 Q-2.6 -0.55 -2.25 2.4 L-2.3 3.85 0.8 1.7 1.15 1.75 Q2.85 1.95 3.0 3.85 L3.05 4.85 3.25 4.35 Q3.55 3.3 4.5 2.2 5.35 1.45 6.35 1.35 L6.8 1.4 6.55 0.3 6.5 -0.1 6.55 -0.2 6.5 -0.25 6.6 -0.75 Q5.85 -1.0 5.45 -1.8 5.05 -2.4 4.8 -3.35 L4.8 -4.6 4.4 -4.1 Q3.2 -2.95 1.9 -2.9 L1.85 -2.9 M5.0 -5.25 L5.15 -5.45 5.15 -5.4 5.3 -5.6 Q5.1 -2.9 6.05 -1.6 L6.1 -1.55 6.9 -1.2 6.9 -1.1 6.95 -1.1 7.05 0.45 7.05 0.55 Q7.25 1.2 7.6 1.65 L7.8 1.85 7.9 1.95 7.9 2.35 Q4.75 1.75 2.85 5.6 L2.6 6.05 2.55 6.2 2.3 6.2 Q2.85 3.0 1.35 2.9 L0.2 3.15 -1.05 3.9 -3.35 5.65 Q-2.8 2.25 -4.45 0.25 -5.8 -1.3 -7.95 -1.85 L-7.45 -1.85 -7.65 -1.9 -6.4 -1.95 Q-4.75 -2.3 -3.25 -3.35 -1.75 -4.35 -1.05 -6.2 -0.35 -4.1 1.25 -3.45 L1.8 -3.4 Q3.2 -3.35 4.4 -4.65 L5.0 -5.25 M2.9 5.4 L2.85 5.5 2.85 5.6 2.9 5.4" fill="#000000" fill-rule="evenodd" stroke="none"/>
    </g>
    <g id="sprite14">
      <use ffdec:characterId="11" height="16.25" transform="matrix(1.0, 0.0, 0.0, 1.0, 0.0, 0.0)" width="15.0" xlink:href="#shape14"/>
    </g>
    <g id="shape14">
      <path d="M1.25 -7.4 L1.4 -7.3 1.75 -6.85 2.3 -6.65 Q2.95 -5.5 3.0 -3.75 L3.1 -3.7 3.4 -3.2 3.25 -2.7 3.5 -2.55 3.8 -2.0 3.5 -1.45 2.8 -1.25 2.65 -0.85 3.1 -0.65 3.35 -0.35 3.6 -0.6 4.35 -0.85 5.1 -0.6 5.4 -0.1 5.1 0.5 4.35 0.7 3.6 0.5 3.35 0.2 3.1 0.45 2.6 0.65 2.65 0.65 Q3.05 0.95 3.05 1.35 3.05 1.8 2.65 2.1 L1.65 2.4 0.9 2.2 0.45 2.85 -0.5 3.15 -1.35 2.95 -1.95 3.1 -1.75 3.55 -2.05 4.1 -2.8 4.3 -3.55 4.1 -3.9 3.55 -3.85 3.35 -5.6 3.2 -6.55 1.35 -7.1 1.1 Q-7.5 0.8 -7.5 0.4 L-7.2 -0.25 -7.1 -0.3 -6.95 -0.4 -7.1 -0.5 -7.2 -0.55 -7.45 -1.05 -7.1 -1.6 -7.0 -1.7 -6.75 -1.8 -6.55 -2.6 -6.7 -2.75 -6.8 -3.1 -6.55 -3.6 -6.15 -3.75 -6.05 -3.8 -5.75 -4.25 -5.75 -4.35 -5.8 -4.55 -5.45 -5.1 -4.85 -5.4 -4.75 -5.4 -4.6 -5.55 -4.2 -5.85 -4.2 -5.9 -3.95 -6.4 -3.35 -6.6 -3.15 -6.55 -3.05 -6.55 -2.9 -6.6 -2.75 -6.8 -2.7 -6.8 -2.3 -7.0 -2.15 -7.0 -1.85 -6.95 -0.3 -7.15 -0.15 -7.3 0.15 -7.45 0.6 -7.55 1.25 -7.4 M3.25 3.05 L2.85 3.0 Q1.55 3.0 1.55 4.5 L1.1 4.25 Q0.7 3.95 0.7 3.55 0.7 3.15 1.1 2.85 1.5 2.55 2.05 2.55 2.65 2.55 3.05 2.85 L3.25 3.05 M5.8 2.3 L6.1 2.85 5.8 3.35 5.1 3.6 4.75 3.15 4.15 2.5 4.05 2.45 Q4.1 2.4 4.25 2.3 4.55 2.05 5.0 2.05 L5.8 2.3 M4.1 -4.8 L4.55 -4.65 4.7 -4.3 4.55 -3.95 4.1 -3.8 Q3.8 -3.8 3.6 -3.95 L3.4 -4.3 3.6 -4.65 4.1 -4.8 M-0.6 -4.35 L-1.6 -4.65 -2.55 -4.35 -2.95 -3.65 Q-2.95 -3.25 -2.55 -2.95 -2.15 -2.65 -1.6 -2.65 L-1.5 -2.65 -0.6 -2.95 Q-0.2 -3.25 -0.2 -3.65 L-0.6 -4.35 M-2.0 5.4 L-1.2 5.65 Q-0.9 5.85 -0.9 6.2 L-1.2 6.7 -1.9 6.95 -2.0 6.95 -2.75 6.7 -3.05 6.2 -2.75 5.65 Q-2.45 5.4 -2.0 5.4" fill="#ff0000" fill-rule="evenodd" stroke="none"/>
      <path d="M1.25 -7.4 L1.75 -7.3 Q4.05 -6.75 5.7 -4.85 7.7 -2.6 7.5 0.55 7.2 3.7 4.95 5.75 L3.5 6.75 3.35 6.6 2.9 6.4 3.1 6.25 3.55 5.55 3.4 5.2 3.55 5.3 4.25 5.6 4.95 5.3 5.25 4.6 4.95 3.85 5.8 3.6 Q6.2 3.3 6.2 2.85 6.2 2.45 5.8 2.15 L5.75 2.1 5.9 1.75 6.1 1.75 6.2 1.75 6.9 1.5 7.2 1.0 Q7.2 0.65 6.9 0.45 L6.25 0.2 6.25 -0.15 6.3 -1.2 6.45 -1.2 6.95 -1.4 7.2 -1.85 6.95 -2.35 6.45 -2.6 6.5 -2.85 6.25 -3.25 5.75 -3.4 5.7 -3.4 4.7 -4.8 Q3.55 -6.15 2.3 -6.65 L1.75 -6.85 1.4 -7.3 1.25 -7.4 M1.55 7.4 L1.4 7.45 1.6 7.8 1.3 8.35 0.6 8.7 -0.1 8.65 -0.3 8.3 Q-0.65 8.55 -1.1 8.65 L-1.9 8.55 Q-2.2 8.4 -2.15 8.05 L-1.85 7.45 -1.8 7.4 -1.65 7.3 Q-3.85 6.75 -5.35 5.05 L-6.65 2.95 -7.1 1.1 -6.55 1.35 -5.6 3.2 -5.15 3.8 -4.45 4.45 -4.7 4.9 -4.4 5.4 -3.85 5.6 Q-3.55 5.6 -3.35 5.4 L-3.25 5.35 Q-3.0 5.5 -2.7 5.6 L-2.8 5.65 -3.1 6.2 -3.1 6.35 -3.05 6.5 -2.8 6.75 -2.0 7.0 -1.95 7.0 -1.2 6.75 -0.9 6.5 -0.15 6.65 0.2 6.6 0.45 7.05 1.05 7.25 1.5 7.1 1.5 7.15 1.55 7.4 M1.9 6.55 L1.8 6.6 1.8 6.5 1.9 6.55 M0.1 7.55 L0.15 7.55 0.1 7.55" fill="#4a0010" fill-rule="evenodd" stroke="none"/>
      <path d="M2.3 -6.65 Q3.55 -6.15 4.7 -4.8 L5.7 -3.4 5.75 -3.4 6.25 -3.25 6.5 -2.85 6.45 -2.6 6.95 -2.35 7.2 -1.85 6.95 -1.4 6.45 -1.2 6.3 -1.2 6.25 -0.15 6.25 0.2 6.9 0.45 Q7.2 0.65 7.2 1.0 L6.9 1.5 6.2 1.75 6.1 1.75 5.9 1.75 5.75 2.1 5.8 2.15 Q6.2 2.45 6.2 2.85 6.2 3.3 5.8 3.6 L4.95 3.85 5.25 4.6 4.95 5.3 4.25 5.6 3.55 5.3 3.4 5.2 3.55 5.55 3.1 6.25 2.9 6.4 3.35 6.6 3.5 6.75 3.65 7.15 3.35 7.65 2.65 7.9 2.55 7.9 1.8 7.65 1.55 7.4 1.5 7.15 1.5 7.1 1.05 7.25 0.45 7.05 0.2 6.6 -0.15 6.65 -0.9 6.5 -1.2 6.75 -1.95 7.0 -2.0 7.0 -2.8 6.75 -3.05 6.5 -3.1 6.35 -3.1 6.2 -2.8 5.65 -2.7 5.6 Q-3.0 5.5 -3.25 5.35 L-3.35 5.4 Q-3.55 5.6 -3.85 5.6 L-4.4 5.4 -4.7 4.9 -4.45 4.45 -5.15 3.8 -5.6 3.2 -3.85 3.35 -3.9 3.55 -3.55 4.1 -2.8 4.3 -2.05 4.1 -1.75 3.55 -1.95 3.1 -1.35 2.95 -0.5 3.15 0.45 2.85 0.9 2.2 1.65 2.4 2.65 2.1 Q3.05 1.8 3.05 1.35 3.05 0.95 2.65 0.65 L2.6 0.65 3.1 0.45 3.35 0.2 3.6 0.5 4.35 0.7 5.1 0.5 5.4 -0.1 5.1 -0.6 4.35 -0.85 3.6 -0.6 3.35 -0.35 3.1 -0.65 2.65 -0.85 2.8 -1.25 3.5 -1.45 3.8 -2.0 3.5 -2.55 3.25 -2.7 3.4 -3.2 3.1 -3.7 3.0 -3.75 Q2.95 -5.5 2.3 -6.65 M4.1 -4.8 L3.6 -4.65 3.4 -4.3 3.6 -3.95 Q3.8 -3.8 4.1 -3.8 L4.55 -3.95 4.7 -4.3 4.55 -4.65 4.1 -4.8 M5.8 2.3 L5.0 2.05 Q4.55 2.05 4.25 2.3 4.1 2.4 4.05 2.45 L4.15 2.5 4.75 3.15 5.1 3.6 5.8 3.35 6.1 2.85 5.8 2.3 M3.25 3.05 L3.05 2.85 Q2.65 2.55 2.05 2.55 1.5 2.55 1.1 2.85 0.7 3.15 0.7 3.55 0.7 3.95 1.1 4.25 L1.55 4.5 Q1.55 3.0 2.85 3.0 L3.25 3.05 M1.9 6.55 L1.8 6.5 1.8 6.6 1.9 6.55 M-2.0 5.4 Q-2.45 5.4 -2.75 5.65 L-3.05 6.2 -2.75 6.7 -2.0 6.95 -1.9 6.95 -1.2 6.7 -0.9 6.2 Q-0.9 5.85 -1.2 5.65 L-2.0 5.4" fill="#8d0020" fill-rule="evenodd" stroke="none"/>
      <path d="M-7.2 -0.25 L-7.2 -0.5 -7.2 -0.55 -7.1 -0.5 -6.95 -0.4 -7.1 -0.3 -7.2 -0.25 M-7.0 -1.7 L-6.7 -2.75 -6.55 -2.6 -6.75 -1.8 -7.0 -1.7 M-6.15 -3.75 L-5.75 -4.35 -5.75 -4.25 -6.05 -3.8 -6.15 -3.75 M-4.85 -5.4 L-4.6 -5.55 -4.2 -5.9 -4.2 -5.85 -4.6 -5.55 -4.75 -5.4 -4.85 -5.4 M-3.15 -6.55 L-2.7 -6.8 -2.75 -6.8 -2.9 -6.6 -3.05 -6.55 -3.15 -6.55 M-2.3 -7.0 L0.15 -7.45 -0.15 -7.3 -0.3 -7.15 -1.85 -6.95 -2.15 -7.0 -2.3 -7.0" fill="#000000" fill-rule="evenodd" stroke="none"/>
      <path d="M-0.6 -4.35 L-0.2 -3.65 Q-0.2 -3.25 -0.6 -2.95 L-1.5 -2.65 -1.6 -2.65 Q-2.15 -2.65 -2.55 -2.95 -2.95 -3.25 -2.95 -3.65 L-2.55 -4.35 -1.6 -4.65 -0.6 -4.35" fill="#ab0027" fill-rule="evenodd" stroke="none"/>
    </g>
  </defs>
</svg>
