<?xml version="1.0" encoding="UTF-8" standalone="no"?>
<svg xmlns:ffdec="https://www.free-decompiler.com/flash" xmlns:xlink="http://www.w3.org/1999/xlink" ffdec:objectType="frame" height="39.1px" width="34.0px" xmlns="http://www.w3.org/2000/svg">
  <g transform="matrix(1.0, 0.0, 0.0, 1.0, 2.7, 44.3)">
    <use ffdec:characterId="2" height="39.1" transform="matrix(1.0, 0.0, 0.0, 1.0, -12.7, -45.75)" width="34.0" xlink:href="#sprite0"/>
  </g>
  <defs>
    <g id="sprite0">
      <use ffdec:characterId="1" height="39.1" transform="matrix(1.0, 0.0, 0.0, 1.0, 0.0, 0.0)" width="34.0" xlink:href="#shape0"/>
    </g>
    <g id="shape0">
      <path d="M10.75 15.95 Q12.9 17.5 15.6 17.15 L20.25 16.4 24.2 16.7 Q25.85 17.2 27.2 18.6 L26.8 17.85 Q26.15 16.35 26.15 15.0 26.05 12.8 26.65 11.15 L28.05 7.2 Q28.9 4.8 28.0 2.2 L30.55 6.1 33.35 11.0 Q35.1 14.2 35.8 16.6 36.6 19.4 35.8 22.05 L35.7 22.4 35.95 22.3 Q38.3 21.75 38.95 22.95 L40.1 25.1 40.65 27.15 40.85 26.9 41.85 26.7 Q42.5 26.8 42.85 27.4 43.25 27.95 43.25 28.65 L42.8 29.8 Q42.45 30.2 41.85 30.1 L40.85 29.4 40.85 29.35 40.6 30.45 40.3 31.15 Q39.5 32.55 37.95 31.85 36.1 31.0 34.7 29.75 L34.4 29.5 34.6 30.05 Q35.1 32.0 35.1 34.3 35.05 36.65 32.45 37.0 L31.2 37.1 31.25 37.15 Q31.65 37.7 31.45 38.45 31.3 39.2 30.7 39.55 L29.35 39.75 Q28.7 39.55 28.3 38.95 28.0 38.4 28.15 37.7 28.3 36.9 28.8 36.55 L29.1 36.35 Q27.95 35.9 27.4 35.25 L25.85 33.45 Q25.0 32.4 26.7 29.8 L26.95 29.5 26.55 29.55 Q23.5 29.95 21.15 28.35 19.05 26.95 16.8 24.15 L13.3 19.85 11.15 16.65 10.75 15.95" fill="#000000" fill-rule="evenodd" stroke="none"/>
      <path d="M40.85 29.4 L40.85 29.35 M34.4 29.5 L34.6 30.05" fill="none" stroke="#791900" stroke-linecap="round" stroke-linejoin="round" stroke-width="1.5"/>
      <path d="M31.2 37.1 L31.25 37.15" fill="none" stroke="#370079" stroke-linecap="round" stroke-linejoin="round" stroke-width="1.5"/>
      <path d="M10.75 15.95 Q12.9 17.5 15.6 17.15 L20.25 16.4 24.2 16.7 Q25.85 17.2 27.2 18.6 L26.8 17.85 Q26.15 16.35 26.15 15.0 26.05 12.8 26.65 11.15 L28.05 7.2 Q28.9 4.8 28.0 2.2 L30.55 6.1 33.35 11.0 Q35.1 14.2 35.8 16.6 36.6 19.4 35.8 22.05 L35.7 22.4 35.95 22.3 Q38.3 21.75 38.95 22.95 L40.1 25.1 40.65 27.15 40.85 26.9 41.85 26.7 Q42.5 26.8 42.85 27.4 43.25 27.95 43.25 28.65 L42.8 29.8 Q42.45 30.2 41.85 30.1 L40.85 29.4 M40.85 29.35 L40.6 30.45 40.3 31.15 Q39.5 32.55 37.95 31.85 36.1 31.0 34.7 29.75 L34.4 29.5" fill="none" stroke="#cc6666" stroke-linecap="round" stroke-linejoin="round" stroke-width="1.5"/>
      <path d="M34.6 30.05 Q35.1 32.0 35.1 34.3 35.05 36.65 32.45 37.0 L31.2 37.1 M31.25 37.15 Q31.65 37.7 31.45 38.45 31.3 39.2 30.7 39.55 L29.35 39.75 Q28.7 39.55 28.3 38.95 28.0 38.4 28.15 37.7 28.3 36.9 28.8 36.55 L29.1 36.35 Q27.95 35.9 27.4 35.25 L25.85 33.45 Q25.0 32.4 26.7 29.8 L26.95 29.5 26.55 29.55 Q23.5 29.95 21.15 28.35 19.05 26.95 16.8 24.15 L13.3 19.85 11.15 16.65 10.75 15.95" fill="none" stroke="#993399" stroke-linecap="round" stroke-linejoin="round" stroke-width="1.5"/>
      <path d="M32.05 23.45 L32.4 23.4 35.95 22.3 Q38.3 21.75 38.95 22.95 L40.1 25.1 40.65 27.15 40.85 26.9 41.85 26.7 Q42.5 26.8 42.85 27.4 43.25 27.95 43.25 28.65 L42.8 29.8 Q42.45 30.2 41.85 30.1 L40.85 29.4 40.85 29.35 40.6 30.45 40.3 31.15 Q39.5 32.55 37.95 31.85 36.1 31.0 34.7 29.75 33.2 28.45 31.95 26.7 31.6 26.35 31.55 25.8 31.4 24.45 32.05 23.45" fill="#ffcccc" fill-rule="evenodd" stroke="none"/>
      <path d="M29.65 26.6 Q30.2 26.1 30.65 26.0 L31.4 26.05 31.0 26.0 31.05 25.65 31.1 25.25 32.35 25.5 33.05 26.2 Q34.1 28.0 34.65 30.05 35.2 32.0 35.15 34.3 35.1 36.7 32.55 37.0 L31.3 37.05 31.35 37.1 Q31.75 37.7 31.55 38.45 31.4 39.15 30.8 39.5 L29.45 39.7 Q28.75 39.55 28.35 39.0 28.05 38.4 28.25 37.65 28.4 36.9 28.9 36.55 L29.2 36.4 27.5 35.25 25.95 33.4 Q25.1 32.35 26.8 29.75 L27.1 29.3 27.35 29.3 27.6 29.25 27.75 29.2 29.65 26.6" fill="#ff9999" fill-rule="evenodd" stroke="none"/>
      <path d="M32.8 36.3 Q30.3 36.8 27.75 34.3 25.15 31.8 28.0 29.1 28.2 33.45 31.4 34.45 L33.95 35.05 32.8 36.3" fill="#ff6699" fill-rule="evenodd" stroke="none"/>
      <path d="M27.75 19.25 L30.8 23.45 Q32.35 25.7 31.0 27.45 29.6 29.15 26.6 29.5 23.6 29.9 21.2 28.3 19.1 26.9 16.85 24.15 L13.4 19.8 10.85 15.95 Q12.95 17.55 15.65 17.1 L20.3 16.4 24.3 16.7 Q26.25 17.3 27.75 19.25" fill="#ff9999" fill-rule="evenodd" stroke="none"/>
      <path d="M27.6 29.05 Q26.35 29.65 25.1 29.55 23.8 29.4 21.8 28.2 20.0 27.05 17.2 23.55 22.55 27.7 30.2 26.6 28.55 28.55 27.6 29.05" fill="#ff6699" fill-rule="evenodd" stroke="none"/>
      <path d="M33.35 24.05 L31.15 23.95 Q29.75 22.5 28.7 20.6 L27.7 18.4 29.55 21.15 Q30.45 22.55 31.5 23.25 32.55 23.95 33.35 24.05" fill="#ff99cc" fill-rule="evenodd" stroke="none"/>
      <path d="M27.45 19.15 L26.8 17.85 Q26.15 16.35 26.15 15.0 26.05 12.8 26.65 11.15 L28.05 7.2 Q28.9 4.8 28.0 2.2 L30.55 6.1 33.35 11.0 Q35.1 14.2 35.8 16.6 36.6 19.4 35.8 22.05 35.1 24.15 34.0 24.95 L33.35 25.25 Q31.7 25.9 30.2 23.55 L27.45 19.15 M33.35 24.05 L34.4 23.15 Q35.65 21.4 35.55 18.85 35.4 15.85 33.0 11.5 30.65 7.1 29.9 7.05 29.25 6.9 28.8 7.4 L27.85 9.05 Q27.3 10.3 26.85 12.5 26.45 14.8 27.05 16.75 L27.7 18.4 28.7 20.6 Q29.75 22.5 31.15 23.95 L33.35 24.05" fill="#ff6699" fill-rule="evenodd" stroke="none"/>
      <path d="M27.7 18.4 L27.05 16.75 Q26.45 14.8 26.85 12.5 27.3 10.3 27.85 9.05 L28.8 7.4 Q29.25 6.9 29.9 7.05 30.65 7.1 33.0 11.5 35.4 15.85 35.55 18.85 35.65 21.4 34.4 23.15 L33.35 24.05 Q32.55 23.95 31.5 23.25 30.45 22.55 29.55 21.15 L27.7 18.4" fill="#ffcccc" fill-rule="evenodd" stroke="none"/>
      <path d="M15.8 18.95 Q16.0 17.65 18.2 17.2 L22.9 17.45 Q25.3 18.05 27.5 20.35 29.6 22.65 29.45 24.05 29.0 25.15 26.65 25.4 24.3 25.6 21.5 24.55 18.75 23.45 17.1 21.85 15.4 20.1 15.8 18.95" fill="#ffcccc" fill-rule="evenodd" stroke="none"/>
      <path d="M31.55 26.95 Q32.4 26.85 33.0 27.7 33.6 28.5 33.65 29.6 33.65 30.65 32.6 31.8 31.55 33.0 30.7 33.1 29.95 33.1 29.45 32.15 28.95 31.25 29.05 30.05 29.35 28.75 30.05 27.9 30.8 26.95 31.55 26.95" fill="#ffcccc" fill-rule="evenodd" stroke="none"/>
      <path d="M28.5 10.75 Q27.3 11.15 26.95 12.95 27.5 8.65 28.45 7.9 29.4 7.1 29.55 7.35 30.4 6.8 32.4 10.4 34.35 14.0 35.25 16.85 36.15 19.7 34.5 23.0 34.9 19.75 33.2 15.1 31.5 10.4 28.5 10.75" fill="#ffffff" fill-rule="evenodd" stroke="none"/>
      <path d="M17.75 21.65 Q17.6 22.05 18.0 22.7 15.65 20.7 15.95 19.25 16.2 17.75 16.7 17.65 L21.6 17.35 Q24.45 17.7 26.85 19.0 29.25 20.3 29.75 24.9 28.25 21.8 24.15 19.9 20.05 17.95 17.75 21.65" fill="#ffffff" fill-rule="evenodd" stroke="none"/>
      <path d="M31.65 25.2 L31.6 25.2 31.45 25.0 31.65 25.2" fill="#b42300" fill-rule="evenodd" stroke="none"/>
      <path d="M23.25 24.2 L21.7 23.9 Q19.95 23.6 19.35 22.55 L18.0 22.3 17.35 22.15 16.65 21.0 16.65 20.9 18.5 21.35 19.0 21.35 Q18.85 20.1 20.2 19.35 L18.4 19.0 17.15 18.6 Q17.3 18.2 17.6 17.9 L18.9 18.15 19.5 18.25 22.3 18.6 23.05 18.55 24.55 18.75 24.95 19.85 23.2 19.65 23.15 19.65 21.25 20.0 Q20.35 20.4 20.6 21.45 L20.9 22.2 Q21.4 22.75 22.55 23.0 L24.35 23.3 23.25 24.2" fill="#f2b3a4" fill-rule="evenodd" stroke="none"/>
      <path d="M31.7 8.05 L30.75 7.8 30.25 6.65 31.15 7.6 31.6 7.9 31.7 8.05 M29.1 8.5 L28.3 9.3 28.3 8.05 28.25 7.1 28.35 7.0 28.4 7.0 28.5 7.0 28.6 6.85 28.95 7.5 29.1 8.5 M27.7 14.9 L28.15 15.5 28.55 15.9 Q28.4 17.0 28.55 18.15 28.7 19.8 29.7 22.05 L29.7 22.1 29.7 22.15 29.75 22.2 29.75 22.25 29.8 22.35 29.75 22.45 29.7 22.5 28.9 21.25 28.85 21.15 29.0 21.3 Q27.8 19.15 27.65 17.25 27.5 15.95 27.7 14.9 M31.35 16.7 L31.65 16.6 32.25 16.4 32.0 19.35 32.55 18.1 Q34.35 14.75 34.0 13.6 L34.0 13.5 34.05 13.4 34.2 13.25 34.35 13.25 34.4 13.3 34.5 13.5 34.95 14.7 Q35.15 15.6 33.6 18.25 32.05 20.9 31.7 22.35 L32.95 21.6 34.45 20.5 Q35.1 19.9 35.35 18.9 L35.55 17.85 35.65 17.8 35.7 17.85 35.8 17.85 35.9 17.9 35.95 18.0 35.85 19.35 Q36.0 20.8 35.15 21.5 L33.0 22.9 31.75 23.7 31.85 25.05 31.9 25.15 33.8 25.0 35.75 25.25 35.7 25.3 36.35 25.5 36.2 26.3 35.6 26.25 35.5 26.2 33.25 26.25 32.6 26.25 31.7 25.3 31.75 25.25 31.75 25.2 31.65 25.2 31.45 25.0 Q30.8 23.95 31.05 21.9 L31.25 18.75 31.3 18.8 31.35 16.7" fill="#ff99cc" fill-rule="evenodd" stroke="none"/>
      <path d="M31.7 8.05 L31.9 9.75 31.95 10.2 Q32.0 11.65 31.6 12.65 L32.25 14.0 32.3 15.35 32.25 16.4 31.65 16.6 31.35 16.7 31.35 15.95 31.25 14.7 Q31.1 13.8 30.55 13.45 29.7 12.85 29.35 13.45 L28.85 14.5 28.7 15.1 28.65 15.1 28.55 15.9 28.15 15.5 27.7 14.9 28.0 13.9 28.05 13.35 28.2 10.9 28.2 10.85 28.3 9.3 29.1 8.5 29.1 10.0 28.95 12.2 Q29.25 11.8 29.7 11.7 30.15 11.6 30.65 11.95 L30.95 9.8 30.9 8.6 30.75 7.8 31.7 8.05 M36.35 25.5 Q37.75 25.95 38.7 26.85 L38.75 26.9 38.75 27.05 38.7 27.1 Q38.3 27.4 37.15 26.6 L36.2 26.3 36.35 25.5" fill="#ffbadb" fill-rule="evenodd" stroke="none"/>
      <path d="M32.6 26.25 L32.45 26.25 31.85 27.65 Q30.9 29.4 30.7 30.25 30.4 31.15 30.45 32.25 30.5 33.7 30.05 34.1 L29.95 34.15 29.85 34.15 29.8 34.05 Q29.35 32.4 29.75 30.15 L29.8 30.2 Q29.7 29.65 30.4 27.95 30.95 26.15 31.5 25.7 L30.15 25.25 29.75 25.45 26.55 28.2 Q25.05 29.05 23.9 29.0 L23.85 29.0 22.45 28.75 22.35 28.7 22.35 28.65 22.35 28.6 22.35 28.5 22.45 28.4 22.55 28.4 Q24.05 28.55 25.3 27.7 L27.7 25.95 28.9 24.9 28.6 24.9 28.65 24.85 Q26.95 24.95 23.35 25.9 L18.75 26.05 18.65 26.05 18.5 25.8 18.5 25.7 18.55 25.6 18.75 25.5 18.85 25.5 18.9 25.55 Q19.85 26.25 24.05 24.9 L25.55 24.45 23.25 24.2 24.35 23.3 25.55 23.55 28.75 24.0 Q31.05 24.3 31.65 25.45 L31.7 25.3 32.6 26.25 M17.35 22.15 L16.45 21.8 Q14.75 21.2 14.2 20.3 13.7 19.55 14.0 19.3 L14.0 19.25 14.15 19.25 14.95 19.85 16.6 20.85 16.65 20.9 16.65 21.0 17.35 22.15 M17.15 18.6 L15.3 17.8 15.2 17.7 15.2 17.65 15.25 17.55 15.3 17.5 15.8 17.45 17.0 17.7 17.6 17.9 Q17.3 18.2 17.15 18.6 M24.55 18.75 L25.65 19.05 Q27.3 19.7 28.85 21.15 L28.9 21.25 29.7 22.5 29.55 22.45 Q27.75 20.8 26.25 20.2 L24.95 19.85 24.55 18.75" fill="#ff3399" fill-rule="evenodd" stroke="none"/>
      <path d="M36.55 24.4 L34.6 23.9 Q36.25 21.25 38.7 23.9 41.0 26.4 39.45 30.3 39.75 26.15 36.55 24.4" fill="#ffffff" fill-rule="evenodd" stroke="none"/>
      <path d="M37.2 24.5 L37.25 24.55 37.05 24.55 37.2 24.5" fill="#ff8500" fill-rule="evenodd" stroke="none"/>
      <path d="M36.4 24.5 L36.2 23.75 Q36.1 23.1 36.3 22.85 L35.65 22.9 35.5 22.95 35.5 22.8 35.5 22.55 35.5 22.45 35.95 22.3 38.05 22.25 38.95 22.95 40.1 25.1 40.65 27.15 40.85 26.9 41.85 26.7 Q42.5 26.8 42.85 27.4 43.25 27.95 43.25 28.65 L42.8 29.8 Q42.45 30.2 41.85 30.1 L40.85 29.4 40.85 29.35 40.6 30.45 40.3 31.15 Q39.8 32.05 39.0 32.1 L37.95 31.85 Q36.1 31.0 34.7 29.75 L34.2 29.3 34.15 29.15 34.05 28.55 Q35.25 29.75 36.9 30.65 L37.6 30.9 Q36.9 30.2 36.75 29.35 L37.3 29.55 37.5 29.6 Q37.7 30.05 38.45 30.4 39.2 30.45 39.55 29.85 39.95 29.1 39.85 27.55 L39.75 27.5 39.55 26.75 39.7 26.8 Q38.95 24.45 37.95 23.7 L37.8 23.6 Q36.45 22.95 37.15 24.35 L36.55 24.35 36.4 24.5" fill="#ff99cc" fill-rule="evenodd" stroke="none"/>
      <path d="M36.4 24.5 L36.55 24.35 37.15 24.35 37.2 24.5 37.05 24.55 37.25 24.55 37.3 24.65 37.65 25.15 Q38.5 26.3 39.55 26.75 L39.75 27.5 Q38.7 26.9 37.8 27.85 L37.55 28.05 Q37.3 28.6 37.4 29.3 L37.5 29.6 37.3 29.55 36.75 29.35 36.75 29.3 Q36.65 28.55 36.9 27.7 L37.1 27.35 Q37.6 26.45 38.05 26.65 L37.0 25.6 36.4 24.5" fill="#ffbadb" fill-rule="evenodd" stroke="none"/>
      <path d="M27.5 29.6 L27.05 30.3 28.05 30.4 Q29.5 31.05 30.0 33.3 30.05 32.6 31.6 32.15 33.8 31.9 34.4 33.65 L34.5 32.85 Q34.45 30.45 33.7 28.6 33.0 26.8 32.05 26.3 L31.0 26.0 31.05 25.65 31.1 25.25 32.35 25.5 33.05 26.2 Q34.1 28.0 34.65 30.05 35.2 32.0 35.15 34.3 35.1 36.7 32.55 37.0 L31.3 37.05 31.35 37.1 Q31.75 37.7 31.55 38.45 31.4 39.15 30.8 39.5 L29.45 39.7 Q28.75 39.55 28.35 39.0 28.05 38.4 28.25 37.65 28.4 36.9 28.9 36.55 L29.2 36.4 27.5 35.25 25.95 33.4 Q25.1 32.35 26.8 29.75 L27.1 29.3 27.35 29.3 27.6 29.25 27.75 29.2 27.5 29.6 M33.55 34.55 Q33.55 33.35 32.95 33.1 L31.65 32.95 Q29.75 33.95 30.05 35.55 32.75 36.45 33.55 34.55 M29.35 35.15 Q29.55 33.5 28.4 31.9 27.2 30.35 27.1 32.25 27.35 33.65 29.35 35.15" fill="#ff3399" fill-rule="evenodd" stroke="none"/>
      <path d="M27.75 19.25 L30.8 23.45 Q32.35 25.7 31.0 27.45 29.6 29.15 26.6 29.5 23.6 29.9 21.2 28.3 19.1 26.9 16.85 24.15 L13.4 19.8 10.85 15.95 Q12.95 17.55 15.65 17.1 L20.3 16.4 24.3 16.7 Q26.25 17.3 27.75 19.25 M14.6 19.3 Q14.35 20.2 17.55 23.95 20.7 27.65 23.55 28.5 L28.35 28.25 Q30.55 27.05 30.7 24.7 29.95 22.7 28.55 21.0 27.25 19.35 25.55 18.25 23.9 17.05 21.55 17.05 L17.65 17.35 Q16.1 17.8 15.5 18.1 14.8 18.4 14.6 19.3" fill="#ff3399" fill-rule="evenodd" stroke="none"/>
      <path d="M26.25 13.15 L26.65 11.25 28.05 7.3 Q28.9 4.9 28.0 2.3 L30.55 6.2 33.35 11.1 Q35.1 14.3 35.8 16.7 36.6 19.5 35.8 22.15 35.2 23.9 34.4 24.75 L33.6 24.0 34.4 23.25 Q35.65 21.5 35.55 18.95 35.4 15.95 33.0 11.6 30.65 7.2 29.9 7.15 29.25 7.0 28.8 7.5 L27.85 9.15 Q27.3 10.4 26.85 12.6 L26.7 14.3 26.25 13.15" fill="#ff99cc" fill-rule="evenodd" stroke="none"/>
      <path d="M26.25 13.15 L26.7 14.3 Q26.7 15.65 27.05 16.85 L27.8 18.7 29.25 21.15 Q30.2 22.6 31.75 23.4 L33.35 24.15 33.6 24.0 34.4 24.75 34.0 25.05 33.35 25.35 Q31.7 26.0 30.2 23.65 L27.45 19.25 26.8 17.95 Q26.15 16.45 26.15 15.1 L26.25 13.15" fill="#ff66cc" fill-rule="evenodd" stroke="none"/>
      <path d="M31.5 23.9 Q32.9 25.05 34.5 24.6 L33.85 25.35 33.05 26.25 Q32.35 25.5 31.35 25.4 L29.6 22.2 31.5 23.9" fill="#993399" fill-rule="evenodd" stroke="none"/>
      <path d="M26.55 29.5 Q27.95 29.4 29.2 28.6 L29.95 28.2 Q28.75 30.4 26.15 30.1 L26.05 30.05 26.05 29.85 26.35 29.65 26.55 29.5" fill="#993399" fill-rule="evenodd" stroke="none"/>
      <path d="M31.15 24.65 Q31.25 25.55 30.85 26.7 L30.65 27.35 Q32.2 25.65 31.55 24.1 L31.45 24.1 31.3 24.2 31.15 24.45 31.15 24.65" fill="#993399" fill-rule="evenodd" stroke="none"/>
      <path d="M36.0 21.45 Q35.85 22.35 35.15 23.3 L34.8 23.9 Q36.75 22.65 36.5 21.0 L36.45 20.95 36.3 21.0 36.1 21.25 36.0 21.45" fill="#cc3366" fill-rule="evenodd" stroke="none"/>
      <path d="M32.85 26.1 L34.15 28.5 Q34.05 25.95 32.85 25.15 L32.8 25.2 32.75 25.45 32.75 25.85 32.85 26.1" fill="#993399" fill-rule="evenodd" stroke="none"/>
      <path d="M31.35 14.55 Q31.35 15.1 31.0 15.5 30.6 15.9 30.05 15.9 29.5 15.9 29.15 15.5 28.75 15.1 28.75 14.55 28.75 14.0 29.15 13.6 29.5 13.2 30.05 13.2 30.6 13.2 31.0 13.6 31.35 14.0 31.35 14.55 M33.45 13.1 L33.9 13.6 33.85 14.55 33.5 15.4 32.9 15.65 Q32.55 15.6 32.5 15.15 32.35 14.75 32.5 14.25 L32.9 13.35 Q33.15 13.05 33.45 13.1 M34.95 17.75 L35.15 18.4 34.65 19.25 33.95 19.8 33.25 19.75 Q33.0 19.55 33.15 19.15 33.2 18.7 33.55 18.3 L34.35 17.75 Q34.7 17.55 34.95 17.75" fill="#ffffff" fill-rule="evenodd" stroke="none"/>
      <path d="M21.5 19.8 L21.15 20.75 Q20.75 21.15 20.2 21.15 19.65 21.15 19.3 20.75 18.9 20.35 18.9 19.8 18.9 19.25 19.3 18.85 19.65 18.45 20.2 18.45 20.75 18.45 21.15 18.85 21.5 19.25 21.5 19.8" fill="#ffffff" fill-rule="evenodd" stroke="none"/>
      <path d="M39.25 26.95 Q39.25 27.5 38.9 27.9 38.5 28.3 37.95 28.3 37.4 28.3 37.05 27.9 36.65 27.5 36.65 26.95 36.65 26.4 37.05 26.0 37.4 25.6 37.95 25.6 38.5 25.6 38.9 26.0 39.25 26.4 39.25 26.95" fill="#ffffff" fill-rule="evenodd" stroke="none"/>
      <path d="M42.7 28.1 L42.5 28.75 41.8 29.05 Q41.45 29.05 41.2 28.75 40.9 28.5 40.9 28.1 40.9 27.75 41.2 27.45 41.45 27.15 41.8 27.15 42.2 27.15 42.5 27.45 L42.7 28.1" fill="#ffcccc" fill-rule="evenodd" stroke="none"/>
      <path d="M30.5 38.1 L30.3 38.75 29.6 39.05 Q29.25 39.05 29.0 38.75 28.7 38.5 28.7 38.1 28.7 37.75 29.0 37.45 29.25 37.15 29.6 37.15 L30.3 37.45 30.5 38.1" fill="#ffcccc" fill-rule="evenodd" stroke="none"/>
    </g>
  </defs>
</svg>
