<?xml version="1.0" encoding="UTF-8" standalone="no"?>
<svg xmlns:ffdec="https://www.free-decompiler.com/flash" xmlns:xlink="http://www.w3.org/1999/xlink" ffdec:objectType="frame" height="66.55px" width="96.55px" xmlns="http://www.w3.org/2000/svg">
  <g transform="matrix(1.0, 0.0, 0.0, 1.0, 51.9, 91.85)">
    <use ffdec:characterId="6" height="66.55" transform="matrix(1.0, 0.0, 0.0, 1.0, -3.7, -44.55)" width="96.55" xlink:href="#sprite0"/>
  </g>
  <defs>
    <g id="sprite0">
      <use ffdec:characterId="3" height="70.45" transform="matrix(0.8463, 0.0, 0.0, 0.8463, 5.35, -9.1)" width="36.45" xlink:href="#sprite1"/>
      <use ffdec:characterId="4" height="73.85" transform="matrix(0.5181, -0.3689, 0.3689, 0.5181, -20.4, -2.3)" width="36.45" xlink:href="#sprite3"/>
      <use ffdec:characterId="5" height="68.8" transform="matrix(0.4468, 0.2938, -0.2938, 0.4468, 25.6, 6.15)" width="36.45" xlink:href="#sprite4"/>
    </g>
    <g id="sprite1">
      <filter color-interpolation-filters="sRGB" height="300%" id="filter0" width="300%" x="-100%" y="-100%">
        <feOffset dx="0.0" dy="0.0" in="SourceGraphic" result="filterResult0"/>
        <feColorMatrix in="filterResult0" result="filterResult1" type="matrix" values="0 0 0 0 1.0,0 0 0 0 0.6,0 0 0 0 0.0,0 0 0 1.0 0"/>
        <feGaussianBlur in="filterResult1" result="filterResult2" stdDeviation="1.118033988749895 1.118033988749895"/>
        <feComposite in="SourceGraphic" in2="filterResult2" operator="over" result="filterResult3"/>
      </filter>
      <use ffdec:characterId="2" filter="url(#filter0)" height="43.25" transform="matrix(0.5279, -0.0372, 0.0504, 0.7153, -0.95, 9.3)" width="30.75" xlink:href="#sprite2"/>
    </g>
    <g id="sprite2">
      <use ffdec:characterId="1" height="43.25" transform="matrix(1.0, 0.0, 0.0, 1.0, 0.0, 0.0)" width="30.75" xlink:href="#shape0"/>
    </g>
    <g id="shape0">
      <path d="M-3.0 19.2 L-1.85 19.05 11.65 -2.85 -5.15 -1.5 1.1 -19.7 0.55 -19.65 -11.8 1.95 1.35 1.4 -3.0 19.2 M-5.0 19.55 L-5.25 20.0 -1.25 3.5 -15.35 4.1 -0.65 -21.65 3.9 -21.65 -2.25 -3.75 15.4 -5.15 -0.65 20.9 -5.7 21.6 -5.0 19.55" fill="#ffcd6e" fill-rule="evenodd" stroke="none"/>
      <path d="M-1.55 19.5 L12.6 -3.4 -4.4 -2.1 1.8 -20.2 0.25 -20.15 -12.7 2.5 0.7 1.95 -3.65 19.8 -1.55 19.5 M-5.0 21.0 L-4.65 19.9 -4.75 20.15 -0.55 3.0 -14.45 3.55 -0.35 -21.15 3.15 -21.15 -2.95 -3.2 14.45 -4.55 -0.95 20.4 -1.15 20.45 -5.0 21.0" fill="#ffffff" fill-rule="evenodd" stroke="none"/>
      <path d="M2.65 1.85 L-11.5 2.8 -0.05 -20.65 2.5 -20.75 -3.8 -2.45 13.5 -4.0 -1.25 19.95 -4.35 20.4 2.65 1.85" fill="#a96633" fill-rule="evenodd" stroke="none"/>
      <path d="M0.05 2.45 L-13.6 3.0 0.0 -20.75 -6.3 -2.45 10.75 -3.75 -4.35 20.4 0.05 2.45" fill="url(#gradient0)" fill-rule="evenodd" stroke="none"/>
    </g>
    <linearGradient gradientTransform="matrix(0.0113, 0.0096, -0.0162, 0.0192, 1.05, 0.7)" gradientUnits="userSpaceOnUse" id="gradient0" spreadMethod="pad" x1="-819.2" x2="819.2">
      <stop offset="0.0" stop-color="#ffd860"/>
      <stop offset="0.17647058823529413" stop-color="#fff9e5"/>
      <stop offset="1.0" stop-color="#ffbe2c"/>
    </linearGradient>
    <g id="sprite3">
      <filter color-interpolation-filters="sRGB" height="300%" id="filter1" width="300%" x="-100%" y="-100%">
        <feOffset dx="0.0" dy="0.0" in="SourceGraphic" result="filterResult4"/>
        <feColorMatrix in="filterResult4" result="filterResult5" type="matrix" values="0 0 0 0 1.0,0 0 0 0 0.6,0 0 0 0 0.0,0 0 0 1.0 0"/>
        <feGaussianBlur in="filterResult5" result="filterResult6" stdDeviation="1.118033988749895 1.118033988749895"/>
        <feComposite in="SourceGraphic" in2="filterResult6" operator="over" result="filterResult7"/>
      </filter>
      <use ffdec:characterId="2" filter="url(#filter1)" height="43.25" transform="matrix(0.8711, -0.0614, 0.0537, 0.7629, -0.75, 4.0)" width="30.75" xlink:href="#sprite2"/>
    </g>
    <g id="sprite4">
      <filter color-interpolation-filters="sRGB" height="300%" id="filter2" width="300%" x="-100%" y="-100%">
        <feOffset dx="0.0" dy="0.0" in="SourceGraphic" result="filterResult8"/>
        <feColorMatrix in="filterResult8" result="filterResult9" type="matrix" values="0 0 0 0 1.0,0 0 0 0 0.6,0 0 0 0 0.0,0 0 0 1.0 0"/>
        <feGaussianBlur in="filterResult9" result="filterResult10" stdDeviation="1.118033988749895 1.118033988749895"/>
        <feComposite in="SourceGraphic" in2="filterResult10" operator="over" result="filterResult11"/>
      </filter>
      <use ffdec:characterId="2" filter="url(#filter2)" height="43.25" transform="matrix(1.0786, -0.076, 0.076, 1.0786, -0.75, -7.05)" width="30.75" xlink:href="#sprite2"/>
    </g>
  </defs>
</svg>
