<?xml version="1.0" encoding="UTF-8" standalone="no"?>
<svg xmlns:ffdec="https://www.free-decompiler.com/flash" xmlns:xlink="http://www.w3.org/1999/xlink" ffdec:objectType="frame" height="29.3px" width="35.15px" xmlns="http://www.w3.org/2000/svg">
  <g transform="matrix(1.0, 0.0, 0.0, 1.0, 3.05, 41.35)">
    <use ffdec:characterId="2" height="29.3" transform="matrix(1.0, 0.0, 0.0, 1.0, -2.6, -40.8)" width="35.15" xlink:href="#sprite0"/>
  </g>
  <defs>
    <g id="sprite0">
      <use ffdec:characterId="1" height="29.3" transform="matrix(1.0, 0.0, 0.0, 1.0, 0.0, 0.0)" width="35.15" xlink:href="#shape0"/>
    </g>
    <g id="shape0">
      <path d="M2.4 10.2 Q1.65 9.35 2.25 7.05 2.25 6.65 2.5 6.5 L3.8 4.25 Q3.85 3.75 4.3 3.4 4.45 3.15 4.75 3.1 L5.95 2.6 6.0 2.55 Q6.85 2.05 8.65 1.75 L10.4 1.35 11.0 1.3 Q11.2 0.7 11.55 0.35 L11.6 0.35 Q12.35 -0.7 13.8 -0.5 L13.95 -0.4 Q15.95 -0.1 17.7 1.2 18.8 0.5 21.15 1.7 L22.2 2.0 22.4 2.05 24.0 3.1 24.05 3.1 26.85 3.2 27.45 3.4 Q27.75 3.5 27.95 3.85 L27.95 3.9 29.55 5.95 29.65 6.1 Q31.35 8.15 31.55 9.95 L31.65 12.25 31.25 13.55 31.8 14.3 31.8 14.25 Q32.45 15.15 32.2 16.3 L32.2 16.35 32.1 16.8 Q33.4 17.25 34.05 17.9 34.9 18.7 34.6 19.75 L34.6 19.9 Q34.2 21.3 32.75 22.4 L32.55 22.5 31.5 23.3 31.45 23.3 29.2 25.55 29.05 25.7 27.05 26.9 26.8 27.0 22.0 27.65 Q19.7 29.05 18.85 28.65 L18.7 28.55 Q17.8 28.25 17.15 27.55 L16.95 27.4 16.15 26.15 16.1 26.0 15.8 25.2 15.7 25.05 15.6 24.8 14.55 24.55 14.4 24.45 13.65 25.15 Q11.7 27.1 9.65 26.1 L7.6 25.2 7.55 25.15 6.25 23.9 3.35 21.8 2.95 21.45 Q2.1 20.55 1.65 19.5 L1.65 19.4 0.8 18.4 0.6 18.3 Q-0.9 16.85 -0.3 14.85 L-0.35 14.9 0.1 14.2 0.7 13.7 0.7 13.65 Q1.5 12.4 3.4 12.1 L3.55 11.8 3.55 11.75 3.55 11.7 2.45 10.25 2.4 10.2" fill="#000000" fill-rule="evenodd" stroke="none"/>
      <path d="M2.75 7.05 L2.85 6.85 4.3 4.35 Q4.3 4.0 4.65 3.75 L4.9 3.55 6.3 2.95 6.25 2.95 Q7.05 2.5 8.85 2.2 L8.8 2.2 10.45 1.85 11.4 1.75 Q11.55 1.0 11.95 0.65 12.55 -0.15 13.7 0.0 L13.75 0.05 Q15.7 0.35 17.4 1.6 L17.55 1.7 17.65 1.85 Q18.55 0.95 20.9 2.15 L22.15 2.5 22.2 2.5 23.65 3.45 23.8 3.6 26.8 3.7 27.2 3.85 27.5 4.1 29.15 6.25 29.15 6.3 Q30.85 8.3 31.05 10.0 L31.15 12.2 Q31.1 12.85 30.65 13.5 L30.6 13.55 30.65 13.6 31.4 14.55 Q31.95 15.3 31.7 16.3 L31.6 16.7 31.4 17.1 Q34.6 18.05 34.1 19.7 L34.1 19.75 Q33.75 21.0 32.45 22.0 L32.4 22.0 Q31.4 22.6 31.1 22.95 L28.85 25.2 28.75 25.25 26.8 26.45 26.7 26.5 Q23.85 27.4 21.85 27.1 19.75 28.45 19.0 28.15 L18.95 28.1 Q18.05 27.85 17.4 27.1 L17.35 27.1 16.55 25.75 16.55 25.8 16.25 25.0 16.15 24.85 15.9 24.35 14.7 24.05 14.3 23.85 13.3 24.8 Q11.55 26.55 9.7 25.55 L9.8 25.6 7.85 24.75 7.8 24.7 Q7.0 24.2 6.65 23.55 L3.55 21.35 3.45 21.25 Q2.55 20.35 2.1 19.3 L2.1 19.25 1.0 17.9 0.95 17.9 Q-0.35 16.7 0.15 15.0 L0.4 14.6 1.1 13.95 Q1.85 12.8 3.75 12.55 L4.0 11.95 4.0 12.0 4.1 11.6 2.85 9.95 2.8 9.9 Q2.2 9.15 2.75 7.05" fill="#3d2500" fill-rule="evenodd" stroke="none"/>
      <path d="M3.15 7.15 L3.2 7.0 4.65 4.45 4.9 4.0 5.05 3.9 6.45 3.3 Q7.2 2.85 8.9 2.55 L8.9 2.6 10.5 2.25 11.45 2.15 11.5 2.15 11.75 2.15 Q11.85 1.3 12.25 0.9 12.75 0.3 13.65 0.4 L13.7 0.4 Q15.55 0.7 17.15 1.9 L17.25 2.0 17.65 2.45 17.75 2.3 17.8 2.25 Q18.55 1.4 20.8 2.5 L22.0 2.9 22.05 2.9 Q22.75 3.15 23.4 3.75 L23.5 3.85 23.6 4.0 26.8 4.1 27.0 4.2 27.2 4.35 28.85 6.55 Q30.45 8.45 30.65 10.05 L30.75 12.15 Q30.7 12.75 30.25 13.4 L30.25 13.8 31.1 14.8 31.05 14.8 Q31.5 15.4 31.3 16.25 L31.3 16.3 31.25 16.55 Q31.1 17.05 30.25 17.05 L30.5 17.25 Q34.1 18.15 33.7 19.6 L33.7 19.65 Q33.4 20.8 32.2 21.65 L32.2 21.7 30.8 22.65 28.55 24.9 28.5 24.95 26.65 26.1 26.55 26.15 Q23.7 27.05 21.7 26.7 19.75 28.0 19.1 27.75 L19.05 27.75 17.7 26.85 16.9 25.6 16.6 24.9 16.5 24.7 16.15 23.95 14.85 23.65 14.25 23.35 13.0 24.55 13.0 24.5 Q11.5 26.0 9.95 25.25 L9.9 25.2 Q8.35 24.65 8.0 24.35 7.25 23.9 6.95 23.3 L3.75 21.0 3.7 20.95 Q2.9 20.15 2.45 19.1 L2.45 19.15 Q2.0 18.2 1.25 17.6 0.1 16.55 0.55 15.1 L0.7 14.9 Q1.0 14.55 1.4 14.3 L1.4 14.25 Q2.15 13.05 4.1 12.95 L4.15 12.75 4.4 12.1 4.4 11.35 3.15 9.7 Q2.65 9.0 3.15 7.15" fill="#23006c" fill-rule="evenodd" stroke="none"/>
      <path d="M22.0 4.9 L22.05 4.8 21.55 5.05 Q21.05 4.75 19.0 5.6 L16.75 6.65 Q16.1 6.95 15.85 7.35 16.25 6.3 16.8 5.8 L18.05 4.9 19.35 4.65 21.85 4.6 22.15 4.75 22.1 4.8 22.0 4.9 M28.3 13.2 L27.7 14.05 26.55 14.4 23.4 14.35 23.95 13.75 25.5 13.5 26.25 13.0 26.3 12.35 25.95 11.65 25.6 10.9 25.55 10.45 Q27.1 10.6 27.85 12.4 L28.3 13.2 M16.7 23.95 L16.45 23.45 Q18.65 23.3 20.9 22.0 L22.5 20.8 25.75 19.25 Q27.7 18.3 26.05 17.8 L27.0 17.8 Q31.0 18.55 29.4 19.9 L27.85 21.25 Q28.6 19.95 27.15 19.65 25.7 19.3 24.4 21.1 23.75 22.0 23.25 23.0 L20.6 23.95 Q19.75 24.5 18.3 24.5 16.9 24.3 16.7 23.95 M3.55 9.4 Q3.2 8.85 3.6 7.25 L5.15 4.55 Q4.65 7.0 4.7 8.8 4.7 10.6 3.55 9.4 M11.2 9.3 L11.2 10.85 10.45 10.85 Q9.25 11.2 10.3 13.25 L8.8 11.2 7.5 9.75 7.15 8.25 Q7.05 6.4 8.55 7.55 L10.0 9.25 11.2 9.3" fill="#8b440d" fill-rule="evenodd" stroke="none"/>
      <path d="M21.55 5.05 L22.05 4.8 22.0 4.9 21.55 5.05" fill="#ffeb84" fill-rule="evenodd" stroke="none"/>
      <path d="M4.7 13.4 L4.6 12.85 4.85 12.2 Q5.05 11.4 4.8 11.05 5.9 12.1 7.05 12.25 8.2 12.3 9.9 13.35 L10.75 14.1 11.3 16.0 10.8 15.7 10.35 15.4 Q9.0 14.55 8.8 16.0 8.05 14.75 6.6 13.95 5.8 13.45 4.7 13.4" fill="#92640d" fill-rule="evenodd" stroke="none"/>
      <path d="M22.1 4.8 L22.15 4.75 21.85 4.6 19.35 4.65 18.05 4.9 16.8 5.8 Q16.25 6.3 15.85 7.35 L15.55 8.2 15.45 6.85 15.9 5.1 16.35 4.35 Q16.9 3.5 17.45 3.3 L17.65 3.2 18.15 2.6 Q18.75 2.05 20.55 2.95 L21.85 3.35 23.05 4.1 23.3 4.4 23.55 4.5 24.1 4.5 22.1 4.8 M30.8 16.2 L30.8 16.3 Q30.65 16.6 29.9 16.55 L28.85 16.3 Q28.05 16.05 27.1 16.3 26.15 16.5 25.2 16.85 L23.6 17.2 21.1 17.55 22.8 16.9 24.55 15.5 24.6 15.45 28.35 15.45 Q29.8 15.55 29.8 14.8 30.8 15.65 30.8 16.2" fill="#fffec7" fill-rule="evenodd" stroke="none"/>
      <path d="M17.2 11.55 L17.95 11.9 Q19.35 12.0 20.1 12.7 L20.9 12.15 22.25 11.4 20.75 13.0 19.9 13.35 18.2 13.6 18.25 13.0 17.95 12.4 17.2 11.55 M17.45 3.3 Q16.9 3.5 16.35 4.35 16.0 3.8 15.0 3.7 14.05 3.55 13.5 4.95 12.95 6.35 14.05 7.6 L13.55 8.9 13.4 9.55 13.1 8.65 12.7 6.55 12.9 4.75 Q13.85 3.1 16.1 3.3 L17.45 3.3 M20.1 17.85 L21.1 17.55 23.6 17.2 25.2 16.85 Q26.15 16.5 27.1 16.3 28.05 16.05 28.85 16.3 28.05 17.35 28.0 17.7 L27.0 17.8 26.05 17.8 24.05 17.7 19.55 18.55 20.1 17.85 M23.35 24.45 L24.55 23.55 Q26.05 22.45 27.85 22.25 L28.8 22.2 29.95 22.2 28.35 23.95 Q27.05 24.85 26.4 24.85 L24.7 24.9 22.45 25.3 23.35 24.45 M19.7 21.0 Q17.15 20.85 15.95 20.15 14.75 19.4 13.85 19.5 12.95 19.55 11.55 20.15 13.0 18.95 15.0 18.85 L16.2 18.95 Q17.65 19.55 18.95 20.5 L19.7 21.0 M11.15 20.25 L12.05 21.3 13.8 22.45 Q13.2 22.95 12.35 22.95 L11.95 22.9 11.1 22.95 Q9.2 22.55 10.15 20.3 L10.55 20.35 11.15 20.25" fill="#572600" fill-rule="evenodd" stroke="none"/>
      <path d="M6.45 4.15 L6.5 4.1 6.5 4.15 6.45 4.15" fill="#ffdb83" fill-rule="evenodd" stroke="none"/>
      <path d="M15.9 5.1 L15.45 6.85 15.55 8.2 15.65 8.4 15.8 8.6 16.1 8.9 Q15.3 8.75 15.0 8.9 L14.25 9.35 13.85 10.0 13.75 10.55 13.4 9.55 13.55 8.9 14.05 7.6 Q14.7 6.2 15.9 5.1" fill="#ffc553" fill-rule="evenodd" stroke="none"/>
      <path d="M18.45 8.0 L19.35 7.3 Q20.25 6.5 22.15 6.2 20.35 7.05 19.85 8.2 L19.4 8.8 19.2 8.8 18.55 8.9 18.1 9.1 Q17.6 9.05 18.45 8.0 M29.15 14.25 L29.75 13.2 29.75 14.0 30.65 15.05 Q31.0 15.55 30.8 16.2 30.8 15.65 29.8 14.8 L29.15 14.25 M29.9 16.55 Q28.35 16.35 30.3 17.7 L28.0 17.7 Q28.05 17.35 28.85 16.3 L29.9 16.55 M20.55 15.9 L18.9 17.65 Q18.7 17.8 18.95 17.95 L20.1 17.85 19.55 18.55 18.1 18.5 Q17.75 18.2 17.95 17.75 18.15 17.25 18.8 16.8 L20.55 15.9" fill="#563a10" fill-rule="evenodd" stroke="none"/>
      <path d="M22.25 11.4 Q22.85 10.65 23.5 10.45 L24.15 9.8 24.0 9.3 24.35 9.65 24.45 10.25 24.1 11.0 23.0 12.2 Q22.3 12.65 21.3 12.9 L20.85 12.95 20.75 13.0 22.25 11.4 M30.45 22.3 L28.2 24.55 26.4 25.65 Q23.55 26.55 21.6 26.15 L22.45 25.3 24.7 24.9 26.4 24.85 Q27.05 24.85 28.35 23.95 L29.95 22.2 30.45 22.3 M15.35 12.95 L16.3 12.85 Q17.9 12.75 17.95 12.4 L18.25 13.0 18.2 13.6 17.55 13.65 Q17.3 13.75 16.75 14.55 L15.9 14.05 15.35 12.95" fill="#fdb047" fill-rule="evenodd" stroke="none"/>
      <path d="M22.15 6.2 L25.15 6.5 27.05 7.1 Q28.4 7.55 29.0 10.25 27.55 8.75 25.65 8.0 L25.55 7.75 Q25.0 6.55 23.8 6.8 L21.65 7.3 Q20.9 7.25 20.4 8.0 L19.85 8.2 Q20.35 7.05 22.15 6.2 M20.9 12.15 L20.35 12.05 19.75 11.35 19.65 10.85 19.75 10.8 Q21.7 10.3 22.05 9.7 22.45 9.05 23.0 9.05 L24.0 9.3 24.15 9.8 23.5 10.45 Q22.85 10.65 22.25 11.4 L20.9 12.15 M17.2 9.45 L16.5 10.35 14.95 11.8 Q14.55 12.15 14.55 12.55 14.55 12.9 15.35 12.95 L15.9 14.05 16.75 14.55 16.25 15.4 16.7 15.25 Q17.15 15.35 17.5 15.7 L18.1 16.2 16.5 16.3 15.9 16.0 15.15 14.85 14.65 13.5 Q13.65 10.7 13.75 10.55 L13.85 10.0 14.25 9.35 15.0 8.9 Q15.3 8.75 16.1 8.9 L17.2 9.45 M16.35 4.35 L15.9 5.1 Q14.7 6.2 14.05 7.6 12.95 6.35 13.5 4.95 14.05 3.55 15.0 3.7 16.0 3.8 16.35 4.35 M10.3 13.25 Q9.25 11.2 10.45 10.85 L11.2 10.85 11.2 11.05 11.55 11.45 Q12.7 13.75 12.3 15.05 12.1 16.1 12.4 16.35 L11.3 16.0 10.75 14.1 10.3 13.25" fill="#9d4301" fill-rule="evenodd" stroke="none"/>
      <path d="M15.85 7.35 Q16.1 6.95 16.75 6.65 L19.0 5.6 Q16.6 7.65 19.1 7.0 L18.45 8.0 Q17.6 9.05 18.1 9.1 L17.2 9.45 16.1 8.9 15.8 8.6 15.65 8.4 15.55 8.2 15.85 7.35 M20.4 8.0 Q20.9 7.25 21.65 7.3 L23.8 6.8 Q25.0 6.55 25.55 7.75 L25.65 8.0 Q23.7 7.55 23.15 8.3 L22.35 7.9 20.4 8.0 M27.85 21.25 Q26.45 22.25 23.55 22.95 L23.25 23.0 Q23.75 22.0 24.4 21.1 25.7 19.3 27.15 19.65 28.6 19.95 27.85 21.25" fill="#ec8f12" fill-rule="evenodd" stroke="none"/>
      <path d="M27.7 14.05 L29.15 14.25 29.8 14.8 Q29.8 15.55 28.35 15.45 L27.95 14.75 26.55 14.4 27.7 14.05 M16.5 10.35 L16.55 10.9 Q16.6 11.2 17.2 11.55 L17.95 12.4 Q17.9 12.75 16.3 12.85 L15.35 12.95 Q14.55 12.9 14.55 12.55 14.55 12.15 14.95 11.8 L16.5 10.35 M21.6 26.15 Q19.8 27.4 19.2 27.25 L18.05 26.5 17.35 25.4 17.05 24.65 16.95 24.45 16.7 23.95 Q16.9 24.3 18.3 24.5 L21.35 25.1 22.55 24.75 23.35 24.45 22.45 25.3 21.6 26.15 M22.05 13.95 L20.5 14.5 20.0 14.75 19.0 14.5 16.7 15.25 16.25 15.4 16.75 14.55 Q17.3 13.75 17.55 13.65 L18.2 13.6 19.9 13.35 20.75 13.0 20.85 12.95 21.3 12.9 23.15 12.75 Q24.8 12.65 22.05 13.95 M11.95 5.45 Q11.35 9.2 12.95 10.7 12.25 8.5 12.7 6.55 L13.1 8.65 13.4 9.55 13.75 10.55 Q13.65 10.7 14.65 13.5 L15.15 14.85 13.95 13.45 13.25 12.95 Q12.3 12.6 11.55 11.45 L11.2 11.05 11.2 10.85 11.2 9.3 11.25 8.25 11.4 7.0 Q11.55 6.25 11.95 5.45" fill="#ffe342" fill-rule="evenodd" stroke="none"/>
      <path d="M30.3 17.7 Q33.4 18.45 33.2 19.5 32.95 20.5 31.9 21.25 L30.45 22.3 29.95 22.2 28.8 22.2 27.85 22.25 Q26.05 22.45 24.55 23.55 L23.35 24.45 22.55 24.75 21.35 25.1 18.3 24.5 Q19.75 24.5 20.6 23.95 L23.25 23.0 23.55 22.95 Q26.45 22.25 27.85 21.25 L29.4 19.9 Q31.0 18.55 27.0 17.8 L28.0 17.7 30.3 17.7 M12.2 2.5 Q12.35 0.75 13.6 0.9 15.35 1.2 16.85 2.3 15.0 1.55 14.05 2.3 13.1 3.0 12.9 4.75 L12.7 6.55 Q12.25 8.5 12.95 10.7 11.35 9.2 11.95 5.45 L12.1 4.75 12.15 3.8 12.2 2.5 M19.55 18.55 L24.05 17.7 26.05 17.8 Q27.7 18.3 25.75 19.25 L22.5 20.8 19.7 21.0 18.95 20.5 Q17.65 19.55 16.2 18.95 L14.95 18.2 17.35 18.45 18.1 18.5 19.55 18.55" fill="#f9ffa8" fill-rule="evenodd" stroke="none"/>
      <path d="M14.15 22.75 L12.65 24.15 12.9 23.75 Q13.25 23.05 12.35 22.95 13.2 22.95 13.8 22.45 L14.15 22.75 M10.55 2.75 L11.5 2.65 12.2 2.5 12.15 3.8 12.1 4.75 11.95 5.45 Q11.55 6.25 11.4 7.0 L11.25 8.25 11.2 9.3 10.0 9.25 Q9.8 8.2 10.35 7.2 10.95 6.15 11.25 4.5 11.5 2.85 10.55 2.75 M11.55 11.45 Q12.3 12.6 13.25 12.95 L13.95 13.45 15.15 14.85 15.9 16.0 Q13.5 14.9 15.1 17.4 L12.4 16.35 Q12.1 16.1 12.3 15.05 12.7 13.75 11.55 11.45" fill="#ff8e00" fill-rule="evenodd" stroke="none"/>
      <path d="M19.65 10.85 L19.75 11.35 20.35 12.05 20.9 12.15 20.1 12.7 Q19.35 12.0 17.95 11.9 L17.2 11.55 Q16.6 11.2 16.55 10.9 L16.5 10.35 17.2 9.45 18.1 9.1 18.55 8.9 19.2 8.8 19.4 8.8 18.15 10.75 19.65 10.85 M16.45 23.45 L15.05 23.2 14.15 22.75 13.8 22.45 12.05 21.3 11.15 20.25 11.55 20.15 Q12.95 19.55 13.85 19.5 14.75 19.4 15.95 20.15 17.15 20.85 19.7 21.0 L22.5 20.8 20.9 22.0 Q18.65 23.3 16.45 23.45 M18.1 16.2 L18.8 16.8 Q18.15 17.25 17.95 17.75 17.75 18.2 18.1 18.5 L17.35 18.45 15.1 17.4 Q13.5 14.9 15.9 16.0 L16.5 16.3 18.1 16.2" fill="#ffa600" fill-rule="evenodd" stroke="none"/>
      <path d="M4.8 11.05 L3.55 9.4 Q4.7 10.6 4.7 8.8 4.65 7.0 5.15 4.55 L5.25 4.35 6.65 3.75 Q7.4 3.35 9.0 3.05 L10.55 2.75 Q11.5 2.85 11.25 4.5 10.95 6.15 10.35 7.2 9.8 8.2 10.0 9.25 L8.55 7.55 Q7.15 4.8 5.95 5.0 4.7 5.2 7.05 9.15 L7.5 9.75 8.8 11.2 10.3 13.25 10.75 14.1 9.9 13.35 Q8.2 12.3 7.05 12.25 5.9 12.1 4.8 11.05 M6.45 4.15 L6.5 4.15 6.5 4.1 6.45 4.15" fill="#ffdd1b" fill-rule="evenodd" stroke="none"/>
      <path d="M19.0 5.6 Q21.05 4.75 21.55 5.05 21.15 5.25 20.8 5.5 19.8 6.1 19.1 7.0 16.6 7.65 19.0 5.6 M8.8 16.4 Q7.3 15.25 6.6 16.0 5.85 16.75 6.8 18.15 7.7 19.55 7.15 20.5 L5.85 19.25 Q3.85 17.15 3.75 16.2 3.65 15.2 4.0 14.65 4.35 14.1 5.25 14.0 L6.6 13.95 Q8.05 14.75 8.8 16.0 L8.8 16.4" fill="#ffc300" fill-rule="evenodd" stroke="none"/>
      <path d="M29.0 10.25 L29.35 11.9 29.3 12.45 28.3 13.2 27.85 12.4 Q27.1 10.6 25.55 10.45 25.65 9.2 25.0 9.1 L23.15 8.3 Q23.7 7.55 25.65 8.0 27.55 8.75 29.0 10.25" fill="#ffda3d" fill-rule="evenodd" stroke="none"/>
      <path d="M23.4 14.35 L22.7 14.55 21.75 15.0 20.55 15.9 18.8 16.8 18.1 16.2 17.5 15.7 Q17.15 15.35 16.7 15.25 L19.0 14.5 20.0 14.75 20.5 14.5 22.05 13.95 23.95 13.75 23.4 14.35 M7.15 20.5 Q7.7 19.55 6.8 18.15 5.85 16.75 6.6 16.0 7.3 15.25 8.8 16.4 L9.25 18.45 9.55 19.6 10.15 20.3 Q9.2 22.55 11.1 22.95 8.6 22.8 8.05 21.45 L7.15 20.5" fill="#bb5e00" fill-rule="evenodd" stroke="none"/>
      <path d="M21.55 5.05 L22.0 4.9 22.1 4.8 24.1 4.5 26.75 4.6 28.45 6.85 Q29.95 8.65 30.15 10.1 L30.25 12.1 Q30.2 12.65 29.75 13.2 L29.15 14.25 27.7 14.05 28.3 13.2 29.3 12.45 29.35 11.9 29.0 10.25 Q28.4 7.55 27.05 7.1 L25.15 6.5 22.15 6.2 Q20.25 6.5 19.35 7.3 L18.45 8.0 19.1 7.0 Q19.8 6.1 20.8 5.5 21.15 5.25 21.55 5.05 M23.15 8.3 L25.0 9.1 Q25.65 9.2 25.55 10.45 L25.6 10.9 25.95 11.65 26.3 12.35 26.25 13.0 25.5 13.5 23.95 13.75 22.05 13.95 Q24.8 12.65 23.15 12.75 L21.3 12.9 Q22.3 12.65 23.0 12.2 L24.1 11.0 24.45 10.25 24.35 9.65 24.0 9.3 23.0 9.05 Q22.45 9.05 22.05 9.7 21.7 10.3 19.75 10.8 L19.65 10.85 18.15 10.75 19.4 8.8 19.85 8.2 20.4 8.0 22.35 7.9 23.15 8.3 M12.65 24.15 Q11.4 25.4 10.1 24.75 8.65 24.2 8.3 23.95 7.6 23.55 7.35 22.95 L4.05 20.6 Q3.3 19.85 2.9 18.9 2.4 17.9 1.55 17.2 0.65 16.4 1.0 15.25 L1.8 14.55 Q2.55 13.4 4.7 13.4 5.8 13.45 6.6 13.95 L5.25 14.0 Q4.35 14.1 4.0 14.65 3.65 15.2 3.75 16.2 3.85 17.15 5.85 19.25 L7.15 20.5 8.05 21.45 Q8.6 22.8 11.1 22.95 L11.95 22.9 12.35 22.95 Q13.25 23.05 12.9 23.75 L12.65 24.15 M26.55 14.4 L27.95 14.75 28.35 15.45 24.6 15.45 24.55 15.5 22.8 16.9 21.1 17.55 20.1 17.85 18.95 17.95 Q18.7 17.8 18.9 17.65 L20.55 15.9 21.75 15.0 22.7 14.55 23.4 14.35 26.55 14.4 M11.55 20.15 L11.15 20.25 10.55 20.35 10.15 20.3 9.55 19.6 9.25 18.45 8.8 16.4 8.8 16.0 Q9.0 14.55 10.35 15.4 L10.8 15.7 11.3 16.0 12.4 16.35 15.1 17.4 17.35 18.45 14.95 18.2 16.2 18.95 15.0 18.85 Q13.0 18.95 11.55 20.15" fill="#eeff20" fill-rule="evenodd" stroke="none"/>
      <path d="M16.85 2.3 L17.65 3.2 17.45 3.3 16.1 3.3 Q13.85 3.1 12.9 4.75 13.1 3.0 14.05 2.3 15.0 1.55 16.85 2.3" fill="#ffa832" fill-rule="evenodd" stroke="none"/>
      <path d="M8.55 7.55 Q7.05 6.4 7.15 8.25 L7.5 9.75 7.05 9.15 Q4.7 5.2 5.95 5.0 7.15 4.8 8.55 7.55" fill="#f3c016" fill-rule="evenodd" stroke="none"/>
      <path d="M17.2 18.25 Q19.7 19.0 19.2 19.25 L15.85 18.95 12.5 18.2 11.8 17.65 Q11.55 17.35 11.95 17.2 L13.0 17.05 14.2 17.3 17.2 18.25" fill="#f9ffa8" fill-rule="evenodd" stroke="none"/>
      <path d="M16.5 23.45 Q18.9 23.2 21.65 21.45 L19.95 23.55 Q19.1 24.3 18.05 24.25 16.95 24.2 16.5 23.45" fill="#45008a" fill-rule="evenodd" stroke="none"/>
      <path d="M15.95 16.05 Q16.45 15.65 17.1 15.4 L17.95 16.25 15.95 16.05" fill="#45008a" fill-rule="evenodd" stroke="none"/>
      <path d="M12.35 22.8 Q10.3 22.25 11.45 20.7 12.0 21.7 13.7 22.4 12.65 23.2 12.35 22.8" fill="#45008a" fill-rule="evenodd" stroke="none"/>
      <path d="M12.3 14.25 Q11.9 16.0 12.3 16.3 L11.35 15.95 11.05 15.0 12.3 14.25" fill="#45008a" fill-rule="evenodd" stroke="none"/>
      <path d="M23.4 14.35 L24.05 13.8 25.8 13.45 25.3 14.4 23.4 14.35" fill="#45008a" fill-rule="evenodd" stroke="none"/>
      <path d="M5.25 4.45 Q5.0 9.15 9.15 11.7 L4.6 9.65 Q4.2 7.4 5.25 4.45" fill="#f9ffa8" fill-rule="evenodd" stroke="none"/>
      <path d="M8.8 20.3 L10.1 22.35 Q10.6 22.9 11.5 22.95 L9.65 22.85 Q9.05 22.75 8.15 21.75 L7.15 20.5 7.3 19.75 Q7.35 19.4 6.6 17.75 8.15 18.2 8.8 20.3" fill="#9d4301" fill-rule="evenodd" stroke="none"/>
      <path d="M10.65 14.15 Q8.95 14.95 7.55 14.15 6.1 13.35 5.35 11.6 6.15 12.4 8.05 12.5 10.25 13.35 10.65 14.15" fill="#8b440d" fill-rule="evenodd" stroke="none"/>
      <path d="M15.65 20.25 L17.5 20.95 16.65 21.65 15.6 22.3 Q15.3 22.25 14.8 21.85 14.3 21.4 14.45 19.7 14.85 19.8 15.65 20.25" fill="#ffc300" fill-rule="evenodd" stroke="none"/>
      <path d="M26.4 5.7 Q26.4 6.0 25.85 6.2 L24.55 6.45 23.25 6.2 Q22.7 6.0 22.7 5.7 22.7 5.4 23.25 5.15 L24.55 4.95 25.85 5.15 26.4 5.7" fill="#f9ffa8" fill-rule="evenodd" stroke="none"/>
      <path d="M22.3 19.8 Q22.3 20.2 21.9 20.5 L21.05 20.8 20.15 20.5 Q19.8 20.2 19.8 19.8 19.8 19.4 20.15 19.1 20.55 18.8 21.05 18.8 21.55 18.8 21.9 19.1 22.3 19.4 22.3 19.8" fill="#fffec7" fill-rule="evenodd" stroke="none"/>
    </g>
  </defs>
</svg>
