<?xml version="1.0" encoding="UTF-8" standalone="no"?>
<svg xmlns:ffdec="https://www.free-decompiler.com/flash" xmlns:xlink="http://www.w3.org/1999/xlink" ffdec:objectType="frame" height="63.45px" width="54.7px" xmlns="http://www.w3.org/2000/svg">
  <g transform="matrix(1.0, 0.0, 0.0, 1.0, 29.95, 77.75)">
    <use ffdec:characterId="19" height="63.45" transform="matrix(1.0, 0.0, 0.0, 1.0, -2.6, -46.0)" width="54.7" xlink:href="#sprite0"/>
  </g>
  <defs>
    <g id="sprite0">
      <use ffdec:characterId="16" height="63.45" transform="matrix(1.0, 0.0, 0.0, 1.0, 0.0, 0.0)" width="54.7" xlink:href="#shape0"/>
      <use ffdec:characterId="3" height="24.0" transform="matrix(1.2959, -1.0E-4, 0.0, 1.1599, 16.9, -2.6)" width="18.25" xlink:href="#sprite1"/>
      <use ffdec:characterId="3" height="24.0" transform="matrix(-1.2959, 1.0E-4, 0.0, 1.1599, -15.95, -6.3)" width="18.25" xlink:href="#sprite1"/>
      <use ffdec:characterId="5" height="28.2" transform="matrix(1.1599, 0.0, 0.0, 1.1599, 11.55, -6.9)" width="13.95" xlink:href="#sprite2"/>
      <use ffdec:characterId="7" height="22.05" transform="matrix(1.1599, 0.0, 0.0, 1.1599, -5.55, -12.7)" width="14.0" xlink:href="#sprite3"/>
      <use ffdec:characterId="7" height="22.05" transform="matrix(-0.8192, -0.2187, -0.2512, 0.9415, 10.7, -0.75)" width="14.0" xlink:href="#sprite3"/>
      <use ffdec:characterId="5" height="28.2" transform="matrix(-0.9542, 0.1975, 0.1974, 0.9542, -9.95, -3.15)" width="13.95" xlink:href="#sprite2"/>
      <use ffdec:characterId="9" height="17.7" transform="matrix(1.1599, 0.0, 0.0, 1.1599, -1.1, -2.6)" width="10.3" xlink:href="#sprite4"/>
      <use ffdec:characterId="17" height="27.6" transform="matrix(1.0, 0.0, 0.0, 1.0, 0.0, 0.0)" width="45.85" xlink:href="#shape5"/>
      <filter color-interpolation-filters="sRGB" height="300%" id="filter0" width="300%" x="-100%" y="-100%">
        <feOffset dx="0.0" dy="0.0" in="SourceGraphic" result="filterResult0"/>
        <feColorMatrix in="filterResult0" result="filterResult1" type="matrix" values="0 0 0 0 0.2509804,0 0 0 0 0.15686275,0 0 0 0 0.13725491,0 0 0 1.0 0"/>
        <feGaussianBlur in="filterResult1" result="filterResult2" stdDeviation="0.5 0.5"/>
        <feColorMatrix in="filterResult2" result="filterResult3" type="matrix" values="1 0 0 0 0,0 1 0 0 0,0 0 1 0 0,0 0 0 10.0 0"/>
        <feComposite in="SourceGraphic" in2="filterResult3" operator="over" result="filterResult4"/>
      </filter>
      <use ffdec:characterId="12" filter="url(#filter0)" height="10.9" transform="matrix(1.2816, 0.0, 0.0, 1.2816, 1.5, 15.9)" width="22.45" xlink:href="#sprite5"/>
      <use ffdec:characterId="18" height="29.8" transform="matrix(1.0, 0.0, 0.0, 1.0, 0.0, 0.0)" width="46.5" xlink:href="#shape7"/>
    </g>
    <g id="shape0">
      <path d="M9.4 -31.2 L10.15 -30.85 Q11.2 -25.9 8.9 -21.05 L13.25 -26.05 22.75 -22.8 26.2 -15.2 23.95 -13.7 25.05 -13.8 Q27.15 -10.0 27.1 -4.45 L22.15 -1.45 27.35 0.25 Q26.75 5.6 23.55 10.6 L21.7 13.4 20.6 14.65 19.5 15.9 17.8 17.8 16.05 19.7 Q18.65 24.65 17.75 29.9 17.6 30.85 16.9 31.7 10.8 25.9 2.35 25.5 L-1.45 25.15 -3.2 24.9 -4.95 24.7 -6.75 24.5 Q-11.45 28.75 -17.85 27.6 L-13.15 19.0 Q-20.05 12.85 -22.45 5.6 -22.9 4.2 -23.25 3.7 -20.2 4.0 -15.5 0.15 -21.05 -5.15 -27.35 -8.9 L-25.05 -17.2 Q-21.85 -16.7 -18.7 -15.5 -21.35 -18.6 -22.15 -22.35 -17.9 -25.05 -14.05 -28.4 L-6.6 -26.6 -7.65 -31.2 6.55 -31.7 Q8.15 -31.85 9.4 -31.2" fill="#000000" fill-rule="evenodd" stroke="none"/>
      <path d="M23.15 3.7 L22.6 3.75 20.9 3.85 20.15 4.05 Q16.85 4.8 13.6 6.0 L9.75 7.2 2.35 7.75 -3.05 7.25 -20.35 5.0 -20.7 4.95 -20.8 4.4 -20.95 3.6 Q-18.85 3.15 -16.85 2.25 L-15.95 1.85 Q-14.4 0.4 -12.05 -0.5 -7.6 -2.1 0.8 -2.1 L1.75 -2.05 5.3 -2.15 Q10.55 -2.15 18.25 -0.2 L22.8 1.1 25.1 1.55 24.8 3.15 24.8 3.35 23.75 3.6 23.55 3.65 23.5 3.65 23.15 3.7" fill="#381a12" fill-rule="evenodd" stroke="none"/>
      <path d="M23.15 3.7 L23.5 3.65 23.4 3.7 23.15 3.7" fill="#fe2601" fill-rule="evenodd" stroke="none"/>
      <path d="M11.25 -12.25 L13.3 -15.45 Q14.75 -17.35 17.05 -18.5 L17.1 -18.35 Q15.6 -17.55 13.4 -14.75 L11.25 -12.25 M10.15 -8.1 L10.1 -8.1 Q11.45 -9.9 16.2 -13.05 L20.6 -15.85 Q23.5 -17.7 23.5 -17.15 23.5 -16.8 18.2 -13.3 L10.15 -8.1" fill="#000000" fill-rule="evenodd" stroke="none"/>
      <path d="M-3.5 -16.7 Q-5.05 -21.9 -5.6 -25.2 L-6.25 -27.85 -6.25 -28.0 -6.4 -29.25 -5.8 -29.45 -5.7 -29.45 -5.45 -29.5 -1.45 -30.25 5.6 -30.2 8.35 -29.9 8.8 -29.7 8.8 -29.0 Q8.8 -27.0 7.75 -22.05 L3.5 -21.65 3.5 -21.5 3.1 -17.0 Q2.9 -14.6 2.0 -13.0 1.55 -12.15 0.25 -11.25 -0.8 -10.65 -1.6 -10.7 L-2.35 -13.05 -3.2 -15.75 -2.35 -15.05 -1.85 -13.75 Q-1.5 -13.25 0.7 -13.2 L1.15 -15.05 2.2 -21.8 2.8 -27.4 -5.8 -27.8 -5.85 -27.7 -5.55 -27.3 -5.25 -27.0 -4.55 -22.0 -3.5 -16.7" fill="#dc8102" fill-rule="evenodd" stroke="none"/>
      <path d="M0.5 -26.05 Q0.85 -26.05 1.1 -25.65 L1.35 -24.3 1.35 -21.65 1.25 -19.05 0.95 -17.4 0.9 -17.3 0.8 -17.05 -0.3 -17.3 -0.4 -25.5 0.5 -26.05" fill="#ffedb8" fill-rule="evenodd" stroke="none"/>
      <path d="M-3.2 -15.75 L-3.5 -16.7 -4.55 -22.0 -5.25 -27.0 -5.55 -27.3 -5.85 -27.7 -5.8 -27.8 2.8 -27.4 2.2 -21.8 1.15 -15.05 0.7 -13.2 Q-1.5 -13.25 -1.85 -13.75 L-2.35 -15.05 -3.2 -15.75 M0.5 -26.05 L-0.4 -25.5 -0.3 -17.3 0.8 -17.05 0.9 -17.3 0.95 -17.4 1.25 -19.05 1.35 -21.65 1.35 -24.3 1.1 -25.65 Q0.85 -26.05 0.5 -26.05 M19.95 -22.35 L19.75 -22.05 19.55 -21.9 17.1 -21.9 16.4 -21.8 16.05 -20.25 Q15.95 -17.6 15.55 -17.6 14.9 -17.6 14.1 -19.2 13.4 -20.6 13.4 -21.05 13.4 -22.45 13.55 -22.85 L13.95 -23.7 Q14.25 -24.05 14.95 -23.95 L15.7 -23.7 16.0 -23.75 Q16.55 -23.75 16.7 -23.5 L17.7 -23.55 18.65 -23.4 19.3 -22.7 Q19.95 -22.7 19.95 -22.35 M11.2 -19.75 L11.95 -20.25 Q14.0 -18.6 15.2 -16.0 13.75 -13.3 7.0 -9.3 4.2 -7.6 2.8 -6.55 L2.25 -6.8 Q2.5 -8.65 3.5 -10.4 4.95 -13.05 7.05 -15.45 L11.2 -19.75 M16.45 -21.4 L16.5 -21.4 16.45 -21.35 16.45 -21.4 M13.15 -16.65 L11.6 -18.3 Q11.05 -18.05 10.55 -17.6 7.5 -15.25 5.8 -11.75 L7.1 -12.3 Q10.55 -13.3 13.15 -15.85 L13.15 -16.65 M18.95 -17.0 L18.65 -17.3 20.8 -18.45 Q23.0 -19.25 23.0 -17.55 23.0 -16.8 19.75 -16.8 L18.95 -17.0" fill="#f9a713" fill-rule="evenodd" stroke="none"/>
      <path d="M7.75 -22.05 L6.5 -17.3 6.0 -15.5 Q9.05 -19.8 12.75 -23.55 L12.75 -23.5 13.5 -24.25 13.0 -24.4 13.65 -24.4 14.05 -24.35 Q18.3 -24.2 21.75 -21.8 22.25 -19.2 23.95 -16.9 L23.95 -16.8 24.05 -16.55 23.1 -15.5 22.15 -14.55 21.0 -13.75 19.95 -12.8 18.55 -11.85 17.1 -10.75 15.7 -9.75 14.3 -8.85 12.6 -7.6 10.85 -6.35 9.05 -5.25 7.3 -4.05 5.7 -3.05 4.4 -2.2 2.9 -1.5 2.0 -1.2 1.2 -2.95 0.95 -3.4 -0.2 -6.55 -1.6 -10.7 Q-0.8 -10.65 0.25 -11.25 1.55 -12.15 2.0 -13.0 2.9 -14.6 3.1 -17.0 L3.5 -21.5 3.5 -21.65 7.75 -22.05 M19.95 -22.35 Q19.95 -22.7 19.3 -22.7 L18.65 -23.4 17.7 -23.55 16.7 -23.5 Q16.55 -23.75 16.0 -23.75 L15.7 -23.7 14.95 -23.95 Q14.25 -24.05 13.95 -23.7 L13.55 -22.85 Q13.4 -22.45 13.4 -21.05 13.4 -20.6 14.1 -19.2 14.9 -17.6 15.55 -17.6 15.95 -17.6 16.05 -20.25 L16.4 -21.8 17.1 -21.9 19.55 -21.9 19.75 -22.05 19.95 -22.35 M16.45 -21.4 L16.45 -21.35 16.5 -21.4 16.45 -21.4 M11.2 -19.75 L7.05 -15.45 Q4.95 -13.05 3.5 -10.4 2.5 -8.65 2.25 -6.8 L2.8 -6.55 Q4.2 -7.6 7.0 -9.3 13.75 -13.3 15.2 -16.0 14.0 -18.6 11.95 -20.25 L11.2 -19.75 M18.95 -17.0 L19.75 -16.8 Q23.0 -16.8 23.0 -17.55 23.0 -19.25 20.8 -18.45 L18.65 -17.3 18.95 -17.0 M4.85 -13.8 L5.15 -14.75 5.4 -15.7 5.85 -17.5 5.3 -15.6 5.05 -14.75 4.75 -13.65 4.85 -13.8" fill="#9f5c00" fill-rule="evenodd" stroke="none"/>
      <path d="M13.15 -16.65 L13.15 -15.85 Q10.55 -13.3 7.1 -12.3 L5.8 -11.75 Q7.5 -15.25 10.55 -17.6 11.05 -18.05 11.6 -18.3 L13.15 -16.65" fill="#ffe492" fill-rule="evenodd" stroke="none"/>
      <path d="M6.05 -30.0 L4.75 -29.5 0.7 -28.6 -1.05 -28.4 Q-3.5 -28.55 -5.55 -29.5 L6.05 -30.0" fill="#fff2ce" fill-rule="evenodd" stroke="none"/>
      <path d="M7.7 -27.8 L7.35 -25.25 Q6.5 -19.35 4.75 -13.65 L5.9 -15.4 Q9.0 -19.75 12.75 -23.55 13.6 -20.25 15.6 -17.25 L21.25 -16.75 15.6 -16.9 Q13.8 -19.4 12.5 -22.45 L10.55 -20.35 Q6.8 -16.2 3.75 -11.55 L5.2 -15.45 6.15 -21.55 Q6.45 -25.25 7.7 -27.8 M-4.35 -22.55 L-1.9 -12.7 Q-0.2 -6.85 -2.2 -13.3 L-3.7 -17.4 -4.35 -19.9 -6.55 -29.35 -5.35 -28.15 -4.35 -22.55 M21.75 -21.8 Q22.25 -19.05 24.1 -16.7 L23.55 -16.7 Q22.2 -19.2 21.3 -21.85 L13.0 -24.4 Q17.9 -24.45 21.75 -21.8" fill="#000000" fill-rule="evenodd" stroke="none"/>
      <path d="M16.1 -19.3 Q15.75 -20.65 16.0 -21.8 18.0 -22.05 20.8 -21.2 L20.95 -21.1 Q21.5 -20.25 21.55 -19.1 19.05 -17.7 16.4 -18.55 L16.1 -19.3 M16.4 -20.05 Q16.3 -19.3 17.35 -19.05 19.3 -18.55 20.6 -19.5 L19.95 -21.1 16.45 -21.4 16.4 -20.05" fill="#ffe492" fill-rule="evenodd" stroke="none"/>
      <path d="M-19.9 -21.0 L-20.6 -21.25 -20.45 -21.2 -20.6 -21.55 -20.2 -21.95 -20.6 -21.75 -20.6 -21.95 -15.35 -25.85 -14.45 -26.5 -11.75 -26.3 -8.7 -26.0 -8.35 -25.95 -8.15 -25.95 -8.15 -25.9 -8.8 -25.25 Q-9.6 -23.95 -10.8 -22.95 L-11.4 -22.35 -11.7 -21.95 -12.25 -21.2 -12.55 -20.9 -13.5 -20.25 -14.85 -20.55 -16.35 -20.6 -17.55 -20.7 -17.75 -20.65 -18.85 -20.9 -19.5 -21.15 -19.5 -21.0 -19.9 -21.0 M-12.9 -25.65 L-12.65 -25.05 -12.5 -24.25 Q-12.75 -21.8 -11.95 -21.8 L-10.85 -23.15 Q-9.95 -24.4 -9.95 -24.6 -9.95 -26.2 -11.9 -26.2 -12.9 -26.2 -12.9 -25.65 M-8.75 -22.55 L-6.7 -7.4 -8.0 -7.35 -14.95 -18.5 -14.25 -19.1 -12.75 -19.35 -12.1 -19.75 -11.45 -20.6 -9.6 -22.45 -8.75 -22.55 M-14.2 -23.0 L-13.65 -23.5 Q-13.35 -23.6 -13.35 -23.8 -13.35 -24.35 -13.95 -24.25 L-15.05 -24.05 -16.4 -23.65 Q-16.8 -23.5 -16.8 -23.15 L-16.7 -22.7 -15.35 -22.5 -14.35 -22.65 -14.2 -23.0 M-11.1 -18.95 L-11.6 -19.05 -12.45 -18.3 -11.35 -15.1 Q-10.55 -13.45 -9.2 -12.05 -9.0 -13.1 -9.4 -14.1 L-11.1 -18.95" fill="#f9a713" fill-rule="evenodd" stroke="none"/>
      <path d="M-12.9 -25.65 Q-12.9 -26.2 -11.9 -26.2 -9.95 -26.2 -9.95 -24.6 -9.95 -24.4 -10.85 -23.15 L-11.95 -21.8 Q-12.75 -21.8 -12.5 -24.25 L-12.65 -25.05 -12.9 -25.65 M-11.1 -18.95 L-9.4 -14.1 Q-9.0 -13.1 -9.2 -12.05 -10.55 -13.45 -11.35 -15.1 L-12.45 -18.3 -11.6 -19.05 -11.1 -18.95" fill="#ffe492" fill-rule="evenodd" stroke="none"/>
      <path d="M-19.9 -21.0 L-19.5 -21.0 -19.5 -21.15 -18.85 -20.9 -17.75 -20.65 -17.55 -20.7 -16.35 -20.6 -14.85 -20.55 -13.5 -20.25 -12.55 -20.9 -12.25 -21.2 -11.7 -21.95 -11.4 -22.35 -10.8 -22.95 Q-9.6 -23.95 -8.8 -25.25 L-8.15 -25.9 -8.15 -25.95 -7.25 -25.85 Q-5.9 -23.65 -5.45 -21.15 L-4.55 -17.95 Q-3.95 -15.35 -3.55 -9.9 L-3.55 -8.3 -8.05 -6.5 Q-9.35 -5.9 -10.55 -5.45 L-11.8 -7.75 Q-18.75 -17.0 -19.25 -18.55 -19.65 -20.35 -19.5 -20.85 L-19.9 -21.0 M-8.75 -22.55 L-9.6 -22.45 -11.45 -20.6 -12.1 -19.75 -12.75 -19.35 -14.25 -19.1 -14.95 -18.5 -8.0 -7.35 -6.7 -7.4 -8.75 -22.55" fill="#dc8102" fill-rule="evenodd" stroke="none"/>
      <path d="M-14.2 -23.0 L-14.35 -22.65 -15.35 -22.5 -16.7 -22.7 -16.8 -23.15 Q-16.8 -23.5 -16.4 -23.65 L-15.05 -24.05 -13.95 -24.25 Q-13.35 -24.35 -13.35 -23.8 -13.35 -23.6 -13.65 -23.5 L-14.2 -23.0" fill="#be6e00" fill-rule="evenodd" stroke="none"/>
      <path d="M-8.2 -26.15 L-7.4 -26.0 Q-5.7 -23.3 -5.3 -20.25 L-5.1 -17.15 -7.85 -25.75 -9.65 -23.8 -9.45 -24.1 Q-8.55 -25.35 -8.8 -26.0 L-13.0 -26.35 -13.1 -26.65 -10.85 -26.5 -8.2 -26.15 M-20.6 -21.75 L-20.6 -21.95 -14.65 -26.3 Q-16.85 -24.05 -19.65 -22.35 L-20.6 -21.75 M-13.15 -20.1 L-19.65 -20.9 -19.65 -20.85 -20.6 -21.25 -19.45 -21.15 -15.5 -20.65 -12.9 -20.75 -12.05 -21.25 -13.15 -20.1 M-19.5 -20.7 Q-12.25 -9.3 -10.95 -6.7 -18.75 -16.85 -19.25 -18.55 -19.65 -20.15 -19.5 -20.7" fill="#000000" fill-rule="evenodd" stroke="none"/>
      <path d="M-12.9 -23.3 L-14.15 -22.0 -17.65 -22.55 -15.55 -24.6 -12.9 -24.8 -12.35 -24.45 -12.9 -23.3 M-13.35 -24.1 Q-14.95 -23.85 -16.2 -23.1 L-16.85 -22.7 -14.6 -22.65 -13.35 -24.1" fill="#622f01" fill-rule="evenodd" stroke="none"/>
    </g>
    <g id="sprite1">
      <use ffdec:characterId="2" height="24.0" transform="matrix(1.0, 0.0, 0.0, 1.0, 0.0, 0.0)" width="18.25" xlink:href="#shape1"/>
    </g>
    <g id="shape1">
      <path d="M6.25 -7.15 L6.4 -6.95 7.1 -4.6 Q7.35 -3.5 7.1 -2.0 L5.05 -0.55 4.3 -0.45 3.15 0.85 0.7 2.7 -1.1 4.65 -2.65 6.7 -4.95 11.0 -5.7 13.25 -6.1 15.2 -11.05 15.2 Q-10.95 13.45 -6.95 3.8 L-6.7 2.8 -3.65 -1.85 Q-2.35 -3.15 -2.35 -3.6 L-2.35 -3.8 -1.7 -4.4 -0.6 -5.4 Q-0.1 -5.9 1.25 -6.55 L1.25 -6.5 Q1.95 -0.7 3.15 -0.7 4.45 -0.7 5.5 -1.15 L5.6 -1.2 6.05 -1.45 Q7.1 -2.05 7.1 -2.6 7.1 -4.45 6.25 -7.0 L6.25 -7.15 M1.75 -6.8 L1.95 -6.9 2.1 -6.95 2.1 -6.9 1.75 -6.8 M2.95 -7.45 L3.2 -7.75 3.65 -7.9 4.35 -8.1 4.5 -8.2 5.65 -8.4 5.75 -8.2 5.55 -8.25 4.2 -7.95 2.95 -7.45 M0.35 -5.5 Q-2.25 -4.0 -3.65 -1.15 L-5.3 2.8 Q-6.15 5.55 -6.0 8.2 L-5.95 8.9 -2.2 4.65 Q-0.55 2.7 0.85 0.45 L1.85 -1.1 Q1.8 -3.0 0.9 -4.55 L0.35 -5.5" fill="#dc8102" fill-rule="evenodd" stroke="none"/>
      <path d="M1.25 -6.55 L1.75 -6.8 2.1 -6.9 2.05 -6.85 2.05 -6.15 2.45 -3.95 Q2.9 -1.75 3.35 -1.75 L3.6 -1.8 Q6.85 -2.1 6.85 -3.7 L6.5 -6.15 6.25 -7.0 Q7.1 -4.45 7.1 -2.6 7.1 -2.05 6.05 -1.45 L5.6 -1.2 5.5 -1.15 Q4.45 -0.7 3.15 -0.7 1.95 -0.7 1.25 -6.5 L1.25 -6.55 M0.35 -5.5 L0.9 -4.55 Q1.8 -3.0 1.85 -1.1 L0.85 0.45 Q-0.55 2.7 -2.2 4.65 L-5.95 8.9 -6.0 8.2 Q-6.15 5.55 -5.3 2.8 L-3.65 -1.15 Q-2.25 -4.0 0.35 -5.5" fill="#f9a713" fill-rule="evenodd" stroke="none"/>
      <path d="M4.9 -6.75 Q5.8 -4.95 5.3 -3.45 L5.1 -3.05 Q3.2 -4.15 3.3 -6.3 L4.9 -6.75" fill="#be6e00" fill-rule="evenodd" stroke="none"/>
      <path d="M2.1 -6.95 L2.95 -7.45 4.2 -7.95 5.55 -8.25 5.75 -8.2 6.0 -7.9 6.15 -7.45 6.25 -7.15 6.25 -7.0 6.5 -6.15 6.85 -3.7 Q6.85 -2.1 3.6 -1.8 L3.35 -1.75 Q2.9 -1.75 2.45 -3.95 L2.05 -6.15 2.05 -6.85 2.1 -6.9 2.1 -6.95 M4.9 -6.75 L3.3 -6.3 Q3.2 -4.15 5.1 -3.05 L5.3 -3.45 Q5.8 -4.95 4.9 -6.75" fill="#ffe492" fill-rule="evenodd" stroke="none"/>
      <path d="M4.9 -6.75 L3.3 -6.3 Q3.2 -4.15 5.1 -3.05 L5.3 -3.45 Q5.8 -4.95 4.9 -6.75 M4.2 -2.65 L3.95 -2.95 Q3.25 -4.55 2.8 -6.4 L5.15 -7.0 Q5.9 -4.9 5.75 -3.25 5.15 -2.9 4.5 -2.65 L4.2 -2.65" fill="#faba3a" fill-rule="evenodd" stroke="none"/>
      <path d="M1.35 -4.25 L0.75 -6.0 Q-0.75 -5.0 -2.8 -2.7 -4.85 -0.4 -6.2 2.15 L-6.75 3.3 -6.4 2.4 Q-6.0 1.3 -4.05 -1.6 -2.15 -4.5 0.45 -6.35 3.05 -8.2 5.75 -8.4 6.65 -6.65 7.1 -4.6 7.35 -3.5 7.1 -2.0 L4.0 0.2 3.75 0.4 3.7 0.4 1.6 2.4 -0.55 4.75 Q-5.25 10.1 -6.4 15.6 -5.5 8.65 -0.45 3.8 L-0.3 3.6 Q1.85 1.55 3.35 0.4 L3.3 0.4 5.05 -0.9 5.3 -1.1 5.45 -1.15 5.6 -1.2 5.55 -1.2 5.3 -1.1 3.45 -0.35 2.45 0.05 Q2.15 0.15 1.9 0.35 L2.8 -0.45 2.1 -2.05 3.05 -0.7 4.35 -1.1 Q5.55 -1.4 6.55 -2.3 L6.6 -3.5 Q6.5 -5.9 5.85 -7.95 L1.45 -6.75 1.35 -4.25" fill="#000000" fill-rule="evenodd" stroke="none"/>
    </g>
    <g id="sprite2">
      <use ffdec:characterId="4" height="28.2" transform="matrix(1.0, 0.0, 0.0, 1.0, 0.0, 0.0)" width="13.95" xlink:href="#shape2"/>
    </g>
    <g id="shape2">
      <path d="M-7.1 12.8 L-7.25 12.75 -7.35 12.7 -7.4 12.8 -7.5 12.8 -7.45 12.65 -7.5 12.5 -7.35 12.3 -6.35 6.7 -6.4 6.85 -6.4 6.8 -5.7 0.4 -5.0 -4.65 Q-4.65 -7.0 -3.85 -8.8 -2.25 -9.5 -0.35 -9.5 L-0.2 -9.55 4.05 -9.95 4.15 -9.95 4.15 -9.8 4.4 -9.2 Q5.7 -6.75 6.4 -4.25 6.55 -3.8 6.35 -3.3 5.35 -0.55 3.8 2.0 L1.05 6.75 -1.9 12.1 Q-3.5 15.0 -4.55 13.3 L-5.7 13.3 -6.45 13.0 -6.55 13.0 -5.15 10.7 -4.25 9.3 -3.25 7.75 -0.75 3.6 0.85 0.45 4.25 -1.95 4.3 -1.95 4.9 -2.4 5.6 -3.05 6.1 -3.7 6.3 -4.25 Q6.3 -5.0 5.8 -4.85 L4.15 -4.85 4.3 -4.9 3.8 -6.3 3.35 -7.0 2.55 -7.85 Q1.0 -8.8 -1.1 -7.8 L-0.7 -9.1 -2.45 -8.85 -3.45 -8.5 -3.65 -7.1 -3.75 -7.25 -3.95 -7.5 -4.05 -7.45 -4.1 -7.3 -4.2 -6.6 -4.25 -6.0 -4.35 -5.75 -4.1 -4.9 Q-3.45 -2.45 -4.0 0.0 L-5.0 4.15 -6.1 8.75 -7.1 12.8 M-0.7 -7.55 L-0.15 -7.65 -0.25 -7.6 -0.7 -7.55 M1.75 -7.95 L1.8 -8.0 1.85 -7.95 1.75 -7.95 M3.6 -5.55 L3.8 -5.1 2.75 -5.5 1.05 -5.95 0.65 -6.1 0.25 -6.3 Q-0.3 -6.55 -0.85 -6.95 L1.3 -7.05 3.4 -5.65 3.6 -5.55 M-2.2 -3.3 L-2.4 -3.7 -1.8 -3.15 -2.2 -3.3 M4.95 -3.45 L4.4 -2.95 4.2 -2.8 3.85 -2.7 4.15 -3.05 4.95 -3.45 M1.25 -9.15 L1.4 -8.95 Q2.4 -7.8 3.8 -7.15 L4.2 -7.5 4.5 -7.75 4.45 -8.2 4.3 -8.8 4.0 -9.35 Q3.05 -9.85 2.25 -9.6 1.55 -9.7 1.25 -9.15 M5.55 -4.05 L5.55 -4.0 5.45 -3.9 5.55 -4.05" fill="#dc8102" fill-rule="evenodd" stroke="none"/>
      <path d="M3.8 -5.1 L3.9 -4.8 3.0 -4.5 2.05 -4.3 1.85 -4.3 1.0 -4.25 0.8 -4.25 -0.05 -4.3 -0.35 -4.9 -0.6 -5.55 -1.05 -7.0 -1.05 -7.1 -0.85 -6.95 Q-0.3 -6.55 0.25 -6.3 L0.65 -6.1 1.05 -5.95 2.75 -5.5 3.8 -5.1" fill="#9e5b00" fill-rule="evenodd" stroke="none"/>
      <path d="M-6.55 13.0 L-7.1 12.8 -6.1 8.75 -5.0 4.15 -4.0 0.0 Q-3.45 -2.45 -4.1 -4.9 L-4.35 -5.75 -4.25 -6.0 -4.2 -6.6 -4.1 -7.3 -4.05 -7.45 -3.95 -7.5 -3.75 -7.25 -3.65 -7.1 -3.45 -8.5 -2.45 -8.85 -0.7 -9.1 -1.1 -7.8 Q1.0 -8.8 2.55 -7.85 L3.35 -7.0 3.8 -6.3 4.3 -4.9 4.15 -4.85 5.8 -4.85 Q6.3 -5.0 6.3 -4.25 L6.1 -3.7 5.6 -3.05 4.9 -2.4 4.3 -1.95 4.25 -1.95 0.85 0.45 -0.75 3.6 -3.25 7.75 -4.25 9.3 -5.15 10.7 -6.55 13.0 M-0.7 -7.55 L-1.15 -7.5 -1.2 -7.45 -1.05 -7.0 -0.6 -5.55 -0.35 -4.9 -0.05 -4.3 0.8 -4.25 1.0 -4.25 1.85 -4.3 2.05 -4.3 3.0 -4.5 3.9 -4.8 3.8 -5.1 3.6 -5.55 2.45 -7.3 1.85 -7.95 1.8 -8.0 1.75 -7.95 -0.15 -7.65 -0.7 -7.55 M-2.2 -3.3 L-1.8 -3.15 -2.4 -3.7 -2.2 -3.3 M4.95 -3.45 L5.3 -3.7 5.2 -3.7 4.75 -3.8 1.65 -3.2 Q-0.5 -3.2 -1.7 -4.8 L-2.95 -6.65 -3.1 -6.15 Q-3.1 -5.25 -2.35 -4.05 -1.2 -2.25 1.0 -2.25 2.5 -2.25 4.15 -3.05 L3.85 -2.7 4.2 -2.8 4.4 -2.95 4.95 -3.45 M-0.35 -1.15 L-0.5 -1.8 -2.45 -2.0 -4.3 5.5 -4.25 5.5 Q-3.5 3.75 -0.35 -1.15 M1.25 -9.15 Q1.55 -9.7 2.25 -9.6 3.05 -9.85 4.0 -9.35 L4.3 -8.8 4.45 -8.2 4.5 -7.75 4.2 -7.5 3.8 -7.15 Q2.4 -7.8 1.4 -8.95 L1.25 -9.15 M5.55 -4.05 L5.45 -3.9 5.55 -4.0 5.55 -4.05" fill="#f9bd13" fill-rule="evenodd" stroke="none"/>
      <path d="M-1.05 -7.0 L-1.2 -7.45 -1.15 -7.5 -0.7 -7.55 -0.25 -7.6 -0.15 -7.65 1.75 -7.95 1.85 -7.95 2.45 -7.3 3.6 -5.55 3.4 -5.65 1.3 -7.05 -0.85 -6.95 -1.05 -7.1 -1.05 -7.0 M-0.35 -1.15 Q-3.5 3.75 -4.25 5.5 L-4.3 5.5 -2.45 -2.0 -0.5 -1.8 -0.35 -1.15 M4.15 -3.05 Q2.5 -2.25 1.0 -2.25 -1.2 -2.25 -2.35 -4.05 -3.1 -5.25 -3.1 -6.15 L-2.95 -6.65 -1.7 -4.8 Q-0.5 -3.2 1.65 -3.2 L4.75 -3.8 5.2 -3.7 5.3 -3.7 4.95 -3.45 4.15 -3.05" fill="#ffefc1" fill-rule="evenodd" stroke="none"/>
      <path d="M6.35 -3.3 Q5.35 -0.55 3.65 2.3 1.9 5.1 0.1 8.7 -1.75 12.3 -1.55 18.25 L-4.3 17.4 Q-3.3 13.3 -0.3 8.25 L3.9 1.05 Q5.15 -1.1 5.85 -3.3 L5.35 -3.0 Q2.9 -1.4 -0.1 -2.1 -2.85 -2.8 -3.35 -5.3 L-3.9 -7.5 -4.0 -7.65 Q-4.3 -4.95 -4.75 -2.35 L-5.45 2.65 Q-5.7 4.75 -6.4 6.85 L-6.4 6.8 -5.7 0.4 -5.0 -4.65 Q-4.65 -7.0 -3.85 -8.8 -1.5 -9.85 1.45 -9.35 L-3.35 -8.4 -3.25 -7.65 Q-3.05 -5.1 -1.5 -3.2 -0.3 -1.75 1.7 -2.55 L6.25 -4.45 4.05 -9.95 4.4 -9.2 Q5.7 -6.75 6.4 -4.25 6.55 -3.8 6.35 -3.3 M-4.3 3.5 L-5.0 5.8 -4.1 1.75 -3.25 -0.9 -4.3 3.5" fill="#703100" fill-rule="evenodd" stroke="none"/>
    </g>
    <g id="sprite3">
      <use ffdec:characterId="6" height="22.05" transform="matrix(1.0, 0.0, 0.0, 1.0, 0.0, 0.0)" width="14.0" xlink:href="#shape3"/>
    </g>
    <g id="shape3">
      <path d="M1.3 -5.35 L0.95 -4.8 1.0 -4.9 1.05 -5.5 1.2 -6.15 1.45 -7.2 1.35 -5.8 1.3 -5.35 M1.45 -7.25 L1.3 -7.4 1.4 -7.9 1.3 -8.0 1.5 -8.0 1.45 -7.25 M1.1 -7.95 L1.0 -7.9 1.05 -7.9 1.05 -7.8 -1.1 -7.85 1.1 -7.95 M-3.25 -5.85 L-3.3 -5.85 -3.45 -5.65 -3.75 -5.6 -3.8 -5.65 -3.75 -5.75 -3.7 -5.85 -2.65 -7.05 -2.25 -7.3 -3.25 -5.85 M-2.7 -4.7 L-2.45 -4.75 -1.95 -4.65 0.15 -4.3 0.5 -4.35 0.2 -4.15 -1.75 -4.45 -2.7 -4.7" fill="#9d3414" fill-rule="evenodd" stroke="none"/>
      <path d="M-1.4 -5.7 L-1.25 -5.7 -1.5 -5.7 -1.4 -5.7" fill="#b96016" fill-rule="evenodd" stroke="none"/>
      <path d="M0.95 -4.8 L0.8 -4.6 0.5 -4.35 0.15 -4.3 -1.95 -4.65 -2.45 -4.75 -2.7 -4.7 -3.85 -5.2 -3.7 -5.45 -3.75 -5.6 -3.45 -5.65 -3.3 -5.85 -3.25 -5.85 -1.3 -5.95 Q0.5 -6.55 1.05 -7.8 L1.05 -7.9 1.0 -7.9 1.1 -7.95 1.2 -8.1 1.3 -8.0 1.4 -7.9 1.3 -7.4 1.45 -7.25 1.45 -7.2 1.2 -6.15 1.05 -5.5 1.0 -4.9 0.95 -4.8 M-1.4 -5.7 L-1.5 -5.7 -1.25 -5.7 -1.4 -5.7" fill="#be6e00" fill-rule="evenodd" stroke="none"/>
      <path d="M1.45 1.3 L1.85 1.0 Q2.55 1.2 2.75 1.85 3.3 3.25 3.65 4.95 3.95 6.15 3.85 7.3 L2.65 7.25 2.15 5.35 1.05 1.8 1.45 1.3" fill="#ffe492" fill-rule="evenodd" stroke="none"/>
      <path d="M0.6 -2.55 Q2.35 -3.75 3.0 -6.0 3.35 -7.25 2.9 -8.0 L2.55 -8.05 2.3 -8.0 2.05 -7.75 Q1.85 -6.45 1.3 -5.35 L1.35 -5.8 1.45 -7.2 1.45 -7.25 1.5 -8.0 1.3 -8.0 1.2 -8.1 1.1 -7.95 -1.1 -7.85 1.05 -7.8 Q0.5 -6.55 -1.3 -5.95 L-3.25 -5.85 -2.25 -7.3 -2.65 -7.05 -3.7 -5.85 -3.75 -5.75 -3.8 -5.65 -3.75 -5.6 -3.7 -5.45 -3.85 -5.2 -2.7 -4.7 -1.75 -4.45 0.2 -4.15 0.5 -4.35 0.8 -4.6 0.45 -4.2 -0.1 -3.75 Q-2.1 -3.7 -4.1 -4.3 L-4.8 -4.5 -2.3 -3.05 -5.95 -4.4 -5.9 -4.8 -1.6 -9.35 2.05 -9.0 3.6 -8.5 3.6 -8.2 Q3.55 -6.15 2.9 -4.85 2.25 -3.45 1.15 -2.55 L0.6 -2.55" fill="#f9bd13" fill-rule="evenodd" stroke="none"/>
      <path d="M-2.3 -3.05 L0.6 -2.55 1.15 -2.55 Q2.25 -3.45 2.9 -4.85 3.55 -6.15 3.6 -8.2 L3.6 -8.5 2.05 -9.0 -1.6 -9.35 -5.9 -4.8 -5.95 -4.4 -2.3 -3.05 M2.95 -2.7 L1.5 -2.05 -0.6 -0.2 -0.75 0.4 Q-0.95 0.8 -0.8 1.6 L0.25 5.25 1.1 7.4 Q1.55 8.35 2.45 9.1 3.45 10.05 4.95 9.9 L5.45 9.35 2.95 -2.7 M2.6 10.6 Q1.8 10.5 1.55 9.9 L-6.45 -4.5 -2.3 -9.9 4.15 -9.2 6.8 7.9 6.75 9.7 4.9 10.45 2.6 10.6" fill="#f9a313" fill-rule="evenodd" stroke="none"/>
      <path d="M2.95 -2.7 L5.45 9.35 4.95 9.9 Q3.45 10.05 2.45 9.1 1.55 8.35 1.1 7.4 L0.25 5.25 -0.8 1.6 Q-0.95 0.8 -0.75 0.4 L-0.6 -0.2 1.5 -2.05 2.95 -2.7 M1.45 1.3 L1.05 1.8 2.15 5.35 2.65 7.25 3.85 7.3 Q3.95 6.15 3.65 4.95 3.3 3.25 2.75 1.85 2.55 1.2 1.85 1.0 L1.45 1.3" fill="#ffbc00" fill-rule="evenodd" stroke="none"/>
      <path d="M1.3 -5.35 Q1.85 -6.45 2.05 -7.75 L2.3 -8.0 2.55 -8.05 2.9 -8.0 Q3.35 -7.25 3.0 -6.0 2.35 -3.75 0.6 -2.55 L-2.3 -3.05 -4.8 -4.5 -4.1 -4.3 Q-2.1 -3.7 -0.1 -3.75 L0.45 -4.2 0.8 -4.6 0.95 -4.8 1.3 -5.35" fill="#ffefc1" fill-rule="evenodd" stroke="none"/>
      <path d="M1.0 -6.45 L1.35 -7.8 -1.1 -7.85 1.5 -8.0 1.35 -5.8 Q1.3 -4.9 0.2 -4.15 L-1.75 -4.45 -4.15 -5.2 -2.65 -7.05 -2.25 -7.3 -3.3 -5.85 -3.75 -5.1 -1.75 -4.65 0.2 -4.6 1.0 -6.45 M4.0 -9.25 Q4.15 -8.9 4.4 -8.85 L5.1 -7.95 Q5.55 -7.15 6.15 -1.65 L7.45 12.15 5.65 0.75 5.15 -2.65 4.1 -7.8 3.55 -4.7 Q3.15 -2.5 0.85 -2.25 -2.55 -1.75 -5.45 -3.45 L-3.0 0.6 Q0.45 6.4 1.7 9.25 L-0.25 8.8 -1.8 4.95 -3.95 0.9 Q-5.55 -1.8 -6.55 -4.6 L-5.65 -5.4 -2.3 -9.0 -2.9 -8.1 Q-4.3 -6.2 -6.05 -4.5 L-4.3 -3.7 Q-1.7 -2.65 1.05 -2.55 L1.95 -3.45 Q3.75 -5.9 3.5 -8.7 L-1.3 -9.65 4.0 -9.25" fill="#b14e00" fill-rule="evenodd" stroke="none"/>
    </g>
    <g id="sprite4">
      <use ffdec:characterId="8" height="17.7" transform="matrix(1.0, 0.0, 0.0, 1.0, 0.0, 0.0)" width="10.3" xlink:href="#shape4"/>
    </g>
    <g id="shape4">
      <path d="M-2.85 -5.55 L-2.85 -5.6 -2.85 -5.55 M-1.6 -5.05 L-1.7 -4.9 -1.65 -5.05 -1.6 -5.05 M3.25 -5.0 L3.25 -5.05 3.25 -5.0" fill="#f9a713" fill-rule="evenodd" stroke="none"/>
      <path d="M2.75 -5.05 Q3.4 -3.25 2.15 -1.3 0.35 -0.9 -2.1 -1.25 -2.3 -2.95 -1.2 -4.85 L-0.7 -3.9 -0.35 -2.75 -0.3 -2.85 -0.3 -3.1 -0.6 -4.85 2.4 -5.05 2.75 -5.05" fill="#be6e00" fill-rule="evenodd" stroke="none"/>
      <path d="M-2.85 -5.6 L-2.5 -6.15 -2.4 -6.25 -2.35 -6.7 1.3 -6.9 3.15 -6.55 3.25 -6.55 Q3.85 -6.55 4.25 -5.75 L4.4 -5.35 4.35 -5.55 4.65 -5.05 4.3 -5.05 4.35 -3.6 4.2 -1.2 Q3.85 0.4 2.55 0.45 L-0.8 0.45 -3.8 -0.4 Q-4.65 -0.8 -4.65 -1.6 -4.65 -2.55 -3.7 -4.3 L-3.35 -4.85 -2.85 -5.55 -2.85 -5.6 M3.25 -5.05 L3.15 -5.3 2.65 -5.3 2.65 -5.25 2.7 -5.2 -0.75 -5.15 -1.1 -5.15 -1.4 -5.15 -1.6 -5.1 -1.6 -5.05 -1.65 -5.05 -1.7 -4.9 Q-2.8 -2.95 -2.8 -0.9 L3.15 -1.15 Q3.6 -3.3 3.25 -5.0 L3.25 -5.05" fill="#fff0c4" fill-rule="evenodd" stroke="none"/>
      <path d="M5.15 -0.35 L4.6 2.8 4.35 4.45 3.7 10.5 3.1 10.7 Q2.05 10.95 1.5 10.7 L1.1 10.35 1.05 10.7 0.2 10.7 -1.5 6.35 Q-3.55 3.4 -4.9 -0.3 L-4.95 -0.45 -2.65 0.25 -2.6 0.3 -2.6 0.55 -2.55 0.45 -2.55 0.8 -2.2 1.25 Q-1.2 2.65 1.15 9.55 L1.15 9.5 Q1.3 9.9 2.75 9.85 L3.0 1.15 2.95 0.7 3.1 0.65 4.65 -0.2 5.15 -0.35" fill="#e79600" fill-rule="evenodd" stroke="none"/>
      <path d="M4.65 -5.05 L4.95 -4.3 Q5.15 -3.5 5.15 -0.75 L5.15 -0.35 4.65 -0.2 3.1 0.65 2.95 0.7 3.0 1.15 2.75 9.85 Q1.3 9.9 1.15 9.5 L1.15 9.55 Q-1.2 2.65 -2.2 1.25 L-2.55 0.8 -2.55 0.45 -2.6 0.55 -2.6 0.3 -2.65 0.25 -4.95 -0.45 -5.15 -0.9 Q-5.15 -3.0 -3.35 -4.85 L-3.7 -4.3 Q-4.65 -2.55 -4.65 -1.6 -4.65 -0.8 -3.8 -0.4 L-0.8 0.45 2.55 0.45 Q3.85 0.4 4.2 -1.2 L4.35 -3.6 4.3 -5.05 4.65 -5.05" fill="#ffc000" fill-rule="evenodd" stroke="none"/>
      <path d="M-1.6 -5.05 L-1.6 -5.1 -1.4 -5.15 -1.1 -5.15 -0.75 -5.15 2.7 -5.2 2.65 -5.25 2.65 -5.3 3.15 -5.3 3.25 -5.05 3.25 -5.0 Q3.6 -3.3 3.15 -1.15 L-2.8 -0.9 Q-2.8 -2.95 -1.7 -4.9 L-1.6 -5.05 M2.75 -5.05 L2.4 -5.05 -0.6 -4.85 -0.3 -3.1 -0.3 -2.85 -0.35 -2.75 -0.7 -3.9 -1.2 -4.85 Q-2.3 -2.95 -2.1 -1.25 0.35 -0.9 2.15 -1.3 3.4 -3.25 2.75 -5.05" fill="#ffbc00" fill-rule="evenodd" stroke="none"/>
      <path d="M3.85 -6.1 L3.65 -6.2 -1.1 -6.5 -2.05 -6.3 -2.35 -5.95 -2.35 -5.85 -2.6 -5.9 -2.35 -6.7 1.3 -6.9 Q2.9 -6.9 3.85 -6.1 M4.2 -0.1 L4.45 -2.75 4.35 -5.55 4.95 -4.3 Q5.15 -3.5 5.15 -0.75 5.05 1.25 3.55 9.35 L4.65 0.15 4.3 0.3 Q1.45 1.55 -0.35 1.3 L-4.45 -0.1 -2.75 3.7 0.7 10.0 -1.2 10.1 -5.15 -0.9 Q-5.15 -3.2 -3.0 -5.2 -4.8 -2.3 -4.8 -1.2 -4.8 0.45 2.0 0.45 4.0 0.45 4.2 -0.1" fill="#602900" fill-rule="evenodd" stroke="none"/>
    </g>
    <g id="shape5">
      <path d="M-13.75 17.9 L-13.95 17.6 Q-13.95 17.05 -13.25 16.45 L-13.7 16.05 -13.55 16.0 Q-14.45 15.4 -16.15 12.6 -17.75 9.8 -17.7 8.85 L-14.85 8.35 -11.3 8.5 -10.2 8.5 -9.8 8.55 -13.35 7.8 Q-16.05 7.15 -16.45 6.6 L-11.95 7.1 -9.8 7.3 -8.95 7.4 -9.45 8.6 -9.05 8.65 -9.05 8.6 -8.3 8.7 -5.45 9.0 -1.4 9.35 0.7 9.5 5.55 9.8 6.85 9.8 7.3 9.8 8.8 9.7 9.9 9.35 11.05 8.85 11.2 8.75 11.2 8.55 11.1 8.2 10.85 7.5 11.2 7.4 11.6 7.25 13.05 6.45 14.75 5.8 17.4 4.8 20.1 4.15 20.1 4.8 22.2 4.35 22.75 4.9 23.1 4.9 22.5 6.25 19.9 6.8 Q19.3 9.0 17.9 11.05 L14.85 14.55 14.25 14.35 10.55 13.25 11.1 10.3 9.7 10.35 8.95 10.3 6.95 10.2 5.65 10.15 5.55 10.15 0.7 9.75 -0.3 9.65 -1.3 9.5 -2.5 9.4 -4.7 9.2 -4.95 9.2 -5.1 9.2 -6.75 9.05 -8.5 8.85 -9.5 8.75 -9.95 10.05 Q-10.55 12.8 -9.9 15.2 L-10.7 15.55 -11.1 15.85 -12.7 16.95 -13.1 17.25 -13.15 17.3 -13.7 17.9 -13.75 17.9" fill="#b82a00" fill-rule="evenodd" stroke="none"/>
      <path d="M20.1 4.15 L21.75 3.85 21.7 3.75 Q21.7 3.1 23.2 2.95 24.3 2.8 24.5 3.15 L24.55 3.25 24.55 3.5 24.55 3.6 Q24.5 4.6 23.5 4.85 L23.55 4.65 23.2 4.5 23.1 4.9 22.75 4.9 22.2 4.35 20.1 4.8 20.1 4.15 M18.65 16.15 L18.35 16.3 18.3 16.3 19.45 14.4 19.5 14.5 20.15 14.15 20.2 14.15 18.65 16.15 M21.45 10.35 L20.9 11.4 21.25 10.6 22.1 8.45 21.45 10.35 M21.1 12.9 L22.05 10.6 22.4 9.65 23.35 9.4 23.4 9.65 21.35 12.6 21.1 12.9 M22.5 6.25 L18.1 16.15 Q16.65 15.25 14.85 14.55 L17.9 11.05 Q19.3 9.0 19.9 6.8 L22.5 6.25 M20.15 13.25 L19.8 13.6 20.45 12.35 20.15 13.25" fill="#700f00" fill-rule="evenodd" stroke="none"/>
      <path d="M24.55 3.6 L24.7 3.6 24.5 5.15 Q24.5 6.1 23.4 9.75 22.6 12.45 19.2 15.85 L18.65 16.15 20.2 14.15 20.8 13.6 21.1 12.9 21.35 12.6 23.4 9.65 23.35 9.4 22.4 9.65 23.4 6.65 23.25 6.45 Q22.8 6.9 22.6 7.55 L23.5 4.85 Q24.5 4.6 24.55 3.6 M16.45 20.8 L17.15 22.65 17.75 24.6 17.85 24.9 18.1 25.95 16.75 25.35 16.75 25.3 16.5 23.3 16.4 22.65 16.1 22.15 16.0 20.85 16.45 20.8 M18.25 27.45 Q18.25 28.6 17.8 29.15 L16.55 30.5 13.3 27.85 Q9.1 25.3 7.85 25.15 L-5.3 23.65 Q-8.5 27.0 -15.7 27.0 L-15.6 26.6 -15.3 25.1 -15.3 25.05 -14.25 24.75 -14.25 24.8 -14.4 25.0 -14.85 25.85 -14.6 25.8 Q-11.1 25.4 -8.4 23.95 L-7.2 23.5 -4.4 23.1 7.2 23.1 9.1 24.15 9.15 24.2 9.1 24.2 9.15 24.25 9.2 24.25 13.15 26.65 Q15.6 28.1 16.4 29.05 L16.55 28.1 16.4 26.8 13.95 25.85 12.9 25.4 9.95 23.9 10.25 23.75 12.5 24.7 18.2 27.45 18.25 27.45 M-14.9 22.6 L-14.85 22.45 -14.85 22.25 Q-14.5 20.45 -13.55 18.1 L-13.75 17.9 -13.7 17.9 -13.15 17.3 -13.3 17.8 Q-13.3 18.2 -12.9 18.45 L-13.8 19.1 -12.25 19.35 Q-13.15 20.4 -13.95 22.2 L-14.05 22.45 -14.9 22.6 M-13.95 17.6 L-15.05 16.2 -17.65 13.0 Q-19.45 10.95 -19.65 9.2 -20.3 9.05 -21.15 5.0 L-21.15 4.95 -20.75 5.0 -19.3 5.25 -19.35 5.3 -19.65 5.35 Q-20.0 5.8 -20.0 6.45 -20.05 8.1 -19.3 8.1 L-19.25 8.2 -19.25 8.25 -19.2 8.25 -18.95 8.35 -18.9 8.35 -18.75 8.2 -18.65 8.2 -18.25 8.2 -18.1 8.2 -15.65 8.1 -15.6 8.1 -14.7 8.25 -14.85 8.35 -17.7 8.85 -18.75 9.0 -19.0 8.5 -19.4 9.65 Q-19.25 10.4 -18.95 10.4 L-18.8 10.4 -17.9 11.65 Q-15.05 16.05 -13.75 16.05 L-13.7 16.05 -13.25 16.45 Q-13.95 17.05 -13.95 17.6 M-18.95 5.3 L-8.8 6.65 -8.5 6.65 -8.95 7.4 -9.8 7.3 -11.95 7.1 -16.45 6.6 -18.55 6.3 -18.85 5.65 -18.85 5.6 -18.95 5.3 M7.0 22.3 L7.05 22.3 9.8 23.5 9.6 23.75 7.0 22.3 M6.5 22.6 L6.5 22.75 6.35 22.9 5.9 22.95 5.6 22.95 5.7 22.9 5.55 22.9 5.5 22.9 1.2 22.45 6.2 22.75 6.5 22.6 M-12.7 16.95 L-12.5 17.2 -13.1 17.25 -12.7 16.95" fill="#381a12" fill-rule="evenodd" stroke="none"/>
      <path d="M18.15 16.55 L18.1 16.55 18.1 16.6 17.9 16.55 18.1 16.15 22.5 6.25 23.1 4.9 23.2 4.5 23.55 4.65 23.5 4.85 22.6 7.55 Q22.8 6.9 23.25 6.45 L23.4 6.65 22.4 9.65 22.05 10.6 21.1 12.9 20.8 13.6 20.2 14.15 20.15 14.15 19.5 14.5 19.45 14.4 18.3 16.3 18.15 16.55 M18.1 25.95 L18.25 27.35 18.25 27.45 18.2 27.45 12.5 24.7 7.45 22.1 7.05 22.3 7.0 22.3 6.5 22.6 6.2 22.75 1.2 22.45 -2.8 21.85 Q-2.85 21.6 -3.15 21.6 L-4.9 21.6 -5.45 21.7 -7.5 22.05 -10.1 22.8 -12.5 23.65 Q-14.05 24.35 -14.2 24.7 L-14.2 24.75 -14.25 24.75 -15.3 25.05 -14.9 22.6 -14.05 22.45 -6.7 21.4 -4.1 21.35 0.5 21.35 5.9 21.7 7.3 21.1 14.7 24.4 Q15.55 24.65 16.1 22.75 L16.3 22.75 16.5 23.3 16.75 25.3 16.75 25.35 18.1 25.95 M-19.3 5.25 L-19.05 5.3 -18.95 5.3 -18.85 5.6 -18.85 5.65 -18.55 6.3 -16.45 6.6 Q-16.05 7.15 -13.35 7.8 L-9.8 8.55 -10.2 8.5 -11.3 8.5 -14.85 8.35 -14.7 8.25 -15.6 8.1 -15.65 8.1 -18.1 8.2 -18.25 8.2 -18.65 8.2 -18.75 8.2 -18.9 8.35 -18.95 8.35 -19.2 8.25 -19.25 8.2 -19.3 8.1 Q-20.05 8.1 -20.0 6.45 -20.0 5.8 -19.65 5.35 L-19.35 5.3 -19.3 5.25 M-8.95 7.4 L0.7 8.25 6.5 8.4 7.2 8.35 10.4 7.7 10.85 7.5 11.1 8.2 11.2 8.55 10.7 8.85 9.45 9.35 8.35 9.7 7.3 9.8 6.85 9.8 5.55 9.8 0.7 9.5 -1.4 9.35 Q-1.05 9.2 -1.3 8.75 -2.5 8.0 -4.1 7.95 -5.75 7.9 -5.75 8.7 L-5.45 9.0 -8.3 8.7 -9.05 8.6 -9.05 8.65 -9.45 8.6 -8.95 7.4 M21.45 10.35 L22.1 8.45 21.25 10.6 20.9 11.4 21.45 10.35 M5.55 10.15 L5.65 10.15 6.95 10.2 8.5 10.3 9.7 10.35 11.1 10.3 10.55 13.25 8.6 12.9 5.25 12.6 1.25 12.6 -1.95 12.85 -3.45 13.2 Q-5.95 13.55 -8.1 14.35 L-9.9 15.2 Q-10.55 12.8 -9.95 10.05 L-9.5 8.75 -8.5 8.85 -6.75 9.05 -5.1 9.2 -4.95 9.2 -4.7 9.2 -2.5 9.4 -1.3 9.5 -0.7 9.65 0.35 9.75 5.15 10.15 5.55 10.15 M20.15 13.25 L20.45 12.35 19.8 13.6 20.15 13.25" fill="#fe4601" fill-rule="evenodd" stroke="none"/>
      <path d="M-9.9 15.2 L-8.1 14.35 Q-5.95 13.55 -3.45 13.2 L-1.95 12.85 1.25 12.6 5.25 12.6 8.6 12.9 10.55 13.25 10.3 14.05 10.25 14.25 9.05 14.05 8.55 13.9 5.3 13.45 1.5 13.45 -0.6 13.65 -2.1 13.85 -3.95 14.2 -5.3 14.5 Q-6.6 14.75 -7.85 15.25 -8.8 15.55 -9.6 16.1 L-9.9 15.2" fill="#ffffff" fill-rule="evenodd" stroke="none"/>
      <path d="M-9.6 16.1 Q-8.8 15.55 -7.85 15.25 -6.6 14.75 -5.3 14.5 L-3.95 14.2 -2.1 13.85 -0.6 13.65 1.5 13.45 5.3 13.45 8.55 13.9 9.05 14.05 10.25 14.25 Q9.6 16.0 8.35 17.05 L7.5 18.2 Q4.75 20.75 0.5 21.35 L-4.1 21.35 Q-6.7 20.65 -8.35 18.25 -9.15 17.25 -9.6 16.1" fill="#7f3e27" fill-rule="evenodd" stroke="none"/>
      <path d="M10.25 14.25 L12.5 14.75 13.95 15.4 12.65 16.3 12.4 18.25 Q15.35 20.95 16.1 22.15 L16.4 22.65 16.5 23.3 16.3 22.75 16.1 22.75 Q15.55 24.65 14.7 24.4 L7.3 21.1 5.9 21.7 0.5 21.35 Q4.75 20.75 7.5 18.2 L8.35 17.05 Q9.6 16.0 10.25 14.25 M-12.9 18.45 L-10.6 16.75 -10.35 16.55 -9.8 16.2 -9.6 16.1 Q-9.15 17.25 -8.35 18.25 -6.7 20.65 -4.1 21.35 L-6.7 21.4 -14.05 22.45 -13.95 22.2 Q-13.15 20.4 -12.25 19.35 L-13.8 19.1 -12.9 18.45" fill="#611900" fill-rule="evenodd" stroke="none"/>
      <path d="M7.05 22.3 L7.45 22.1 12.5 24.7 10.25 23.75 9.95 23.9 12.9 25.4 13.95 25.85 16.4 26.8 16.55 28.1 16.4 29.05 Q15.6 28.1 13.15 26.65 L9.2 24.25 9.15 24.25 9.1 24.2 9.15 24.2 9.1 24.15 7.2 23.1 -4.4 23.1 -7.2 23.5 -8.4 23.95 Q-11.1 25.4 -14.6 25.8 L-14.85 25.85 -14.4 25.0 -14.25 24.8 -14.25 24.75 -14.2 24.75 -14.2 24.7 Q-14.05 24.35 -12.5 23.65 L-10.1 22.8 -7.5 22.05 -5.45 21.7 -4.9 21.6 -3.15 21.6 Q-2.85 21.6 -2.8 21.85 L1.2 22.45 5.5 22.9 5.55 22.9 5.7 22.9 5.6 22.95 5.9 22.95 6.35 22.9 6.5 22.75 6.5 22.6 7.0 22.3 9.6 23.75 9.8 23.5 7.05 22.3" fill="#d1d1d1" fill-rule="evenodd" stroke="none"/>
      <path d="M18.35 16.3 L18.15 16.55 18.3 16.3 18.35 16.3 M18.1 16.6 L17.55 17.2 17.55 17.25 15.2 16.0 13.95 15.4 14.85 14.55 Q16.65 15.25 18.1 16.15 L17.9 16.55 18.1 16.6" fill="#636363" fill-rule="evenodd" stroke="none"/>
      <path d="M17.55 17.25 L17.2 17.75 15.8 19.15 16.45 20.8 16.0 20.85 16.1 22.15 Q15.35 20.95 12.4 18.25 L12.65 16.3 13.95 15.4 15.2 16.0 17.55 17.25" fill="#290a00" fill-rule="evenodd" stroke="none"/>
      <path d="M10.55 13.25 L14.25 14.35 14.85 14.55 13.95 15.4 12.5 14.75 10.25 14.25 10.3 14.05 10.55 13.25 M-12.9 18.45 Q-13.3 18.2 -13.3 17.8 L-13.15 17.3 -13.1 17.25 -12.5 17.2 -12.7 16.95 -11.1 15.85 -10.7 15.55 -9.9 15.2 -9.6 16.1 -9.8 16.2 -10.35 16.55 -10.6 16.75 -12.9 18.45" fill="#b0b0b0" fill-rule="evenodd" stroke="none"/>
      <path d="M-1.4 9.35 L-5.45 9.0 -5.75 8.7 Q-5.75 7.9 -4.1 7.95 -2.5 8.0 -1.3 8.75 -1.05 9.2 -1.4 9.35 M-17.7 8.85 Q-17.75 9.8 -16.15 12.6 -14.45 15.4 -13.55 16.0 L-13.7 16.05 -13.75 16.05 Q-15.05 16.05 -17.9 11.65 L-18.8 10.4 -18.95 10.4 Q-19.25 10.4 -19.4 9.65 L-19.0 8.5 -18.75 9.0 -17.7 8.85" fill="#ffd1ca" fill-rule="evenodd" stroke="none"/>
      <path d="M-19.25 8.2 L-19.2 8.25 -19.25 8.25 -19.25 8.2" fill="#aa1800" fill-rule="evenodd" stroke="none"/>
    </g>
    <g id="sprite5">
      <use ffdec:characterId="11" height="10.9" transform="matrix(1.0, 0.0, 0.0, 1.0, 0.0, 0.0)" width="22.45" xlink:href="#shape6"/>
    </g>
    <g id="shape6">
      <path d="M3.25 -3.95 L3.95 -4.05 4.0 -4.05 4.05 -4.0 4.1 -3.9 4.0 -3.25 4.6 -3.85 4.55 -3.85 5.2 -4.3 5.25 -4.3 5.55 -4.2 5.65 -4.1 5.7 -4.0 6.0 -3.15 6.0 -3.05 5.8 -2.45 5.8 -2.4 5.8 -2.05 5.8 -1.7 5.85 -1.8 5.95 -1.8 6.9 -2.75 7.0 -2.75 7.05 -2.75 7.1 -3.1 7.4 -3.85 7.4 -3.8 8.45 -4.75 8.5 -4.75 8.9 -4.7 8.95 -4.7 9.2 -4.5 9.25 -4.75 9.25 -4.8 9.35 -4.85 10.05 -5.05 10.1 -5.05 10.15 -5.0 10.2 -4.9 10.05 -2.5 10.9 -3.45 11.0 -3.45 11.1 -3.45 11.15 -3.3 11.2 -2.7 11.2 -2.65 11.15 -2.6 10.35 -1.85 9.7 -1.45 9.65 -1.4 9.55 -1.4 9.5 -1.45 9.45 -1.45 9.2 -1.95 9.0 -1.7 8.7 -1.5 8.25 -1.2 8.2 -1.15 8.15 -1.15 7.8 -1.2 7.75 -1.25 7.4 -1.45 7.45 -1.45 7.1 -1.8 6.6 -1.35 Q6.25 -1.0 5.7 -0.8 L5.65 -0.8 5.45 -0.8 5.35 -0.85 5.15 -1.25 Q4.8 -1.95 4.95 -2.65 L5.0 -3.05 3.9 -2.05 4.05 -0.85 4.05 -0.8 4.0 -0.7 3.95 -0.7 3.3 -0.45 3.2 -0.45 3.15 -0.5 3.15 -0.6 3.1 -1.2 Q2.35 -0.1 1.25 -0.1 L1.2 -0.2 1.15 -0.2 Q0.95 -0.5 0.9 -0.75 L0.55 -0.45 0.2 -0.05 0.15 0.0 -0.35 0.2 -0.45 0.25 -0.75 0.15 -1.0 0.05 -1.0 0.0 -1.05 -0.3 -1.45 0.25 -1.5 0.3 -2.35 0.5 -2.4 0.5 -2.45 0.45 -2.75 0.25 -2.8 0.25 -2.95 -0.1 -3.05 -0.3 Q-3.6 0.5 -4.45 0.9 L-4.5 0.9 -4.65 0.9 -4.7 0.85 -4.75 0.85 -5.05 0.35 -5.1 0.35 -5.45 0.85 -5.7 1.0 -6.0 1.15 -6.05 1.15 Q-6.8 1.15 -7.05 0.45 -8.1 1.75 -9.7 1.55 L-9.75 1.55 -10.0 1.45 -10.05 1.4 Q-11.4 0.25 -11.2 -1.55 -11.0 -3.2 -9.55 -4.05 L-9.05 -4.25 -9.0 -4.25 -8.15 -4.05 -8.1 -4.0 -7.75 -3.4 -7.85 -3.3 -7.9 -3.25 -8.0 -3.2 -8.0 -3.15 -8.35 -3.2 -8.3 -3.15 -8.7 -3.4 Q-9.4 -3.45 -9.75 -2.8 L-9.7 -2.8 Q-10.2 -1.6 -10.15 -0.5 -10.1 0.65 -8.95 0.85 L-8.2 0.3 -7.3 -0.5 -7.25 -0.5 -7.2 -0.85 Q-7.15 -2.15 -5.75 -2.45 L-5.3 -2.4 -5.25 -2.4 -5.0 -2.2 -4.95 -2.45 -4.95 -2.5 -4.85 -2.6 -4.15 -2.75 -4.1 -2.75 -4.05 -2.7 -4.0 -2.65 -4.2 -0.3 -4.05 -0.45 -4.0 -0.45 -3.4 -1.1 -3.3 -1.15 -3.2 -1.15 Q-3.2 -2.05 -2.3 -2.75 L-1.55 -3.05 -1.4 -3.05 -1.25 -3.05 -1.0 -2.85 -0.7 -5.35 -0.7 -5.4 -0.6 -5.45 0.05 -5.55 0.1 -5.55 0.15 -5.5 0.2 -5.45 0.2 -5.35 -0.15 -1.2 -0.15 -0.85 -0.05 -1.0 0.0 -1.0 0.35 -1.25 0.35 -1.2 0.65 -1.7 0.75 -1.8 0.8 -1.8 0.95 -3.5 0.95 -3.55 1.1 -3.6 1.75 -3.6 1.8 -3.55 1.9 -3.5 1.9 -3.25 1.75 -1.3 1.75 -1.15 2.0 -1.25 2.85 -2.1 2.95 -2.15 3.05 -2.15 3.1 -2.05 3.1 -2.1 3.15 -3.85 3.15 -3.9 3.25 -3.95 M2.15 -5.25 Q2.25 -5.1 1.95 -4.5 L1.65 -4.25 Q1.3 -4.25 1.2 -4.45 L1.25 -5.05 1.25 -5.1 1.35 -5.3 1.4 -5.35 1.45 -5.35 2.15 -5.25 M2.75 -0.1 L2.8 0.0 2.9 0.55 3.35 0.45 3.4 0.45 4.15 0.65 4.2 0.75 4.3 0.8 4.9 3.3 1.6 4.05 4.4 3.95 5.0 3.8 4.65 4.45 4.65 4.5 4.55 4.55 0.1 5.0 0.05 4.95 0.0 4.9 0.0 4.85 0.2 2.9 -0.35 3.2 -0.4 3.2 -0.45 3.15 -0.5 3.05 -0.75 2.5 -0.75 2.4 -0.7 2.35 0.45 1.85 0.55 1.85 0.6 1.85 1.0 2.15 0.9 1.15 0.9 1.05 0.95 1.0 1.6 0.95 2.05 0.8 2.0 0.1 2.0 0.05 2.1 0.0 2.6 -0.1 2.75 -0.1 M4.95 -0.1 L6.6 -0.65 6.75 -0.65 7.45 -0.4 7.55 -0.35 7.6 -0.3 8.25 3.5 8.25 3.55 8.2 3.6 7.75 3.95 7.7 4.0 7.05 4.15 6.95 4.15 6.9 4.1 6.75 3.75 Q6.6 3.5 6.75 3.4 6.85 3.2 7.1 3.25 L7.2 3.2 7.15 2.45 6.75 2.5 6.6 3.15 6.45 3.85 6.4 3.95 6.3 4.0 6.25 3.95 5.55 3.45 5.5 3.4 5.5 3.35 5.6 2.75 5.4 2.7 5.2 2.15 5.2 2.05 5.3 2.0 5.7 1.85 5.7 1.65 5.3 1.75 5.2 1.75 5.15 1.7 5.15 1.65 5.05 1.1 5.05 1.0 5.15 0.95 5.65 0.75 5.6 0.55 5.25 0.75 5.2 0.75 5.15 0.65 5.05 0.6 4.9 0.05 4.9 -0.05 4.95 -0.1 M8.25 -3.8 L8.0 -3.55 7.9 -2.6 8.25 -2.0 Q8.65 -2.05 8.8 -2.35 L8.8 -2.3 Q8.9 -2.75 9.15 -3.0 L9.15 -3.75 8.8 -3.95 8.25 -3.8 M8.55 -0.8 L9.25 -1.1 9.35 -1.1 9.4 -1.1 10.15 -0.55 10.2 -0.45 10.2 -0.4 9.8 0.6 10.6 2.0 10.65 2.1 10.6 2.15 10.1 2.55 9.5 2.85 9.45 2.9 9.4 2.85 9.35 2.8 9.05 2.2 9.15 2.75 9.15 3.75 9.05 3.8 8.95 3.85 Q8.65 3.85 8.65 3.7 8.15 2.65 8.0 1.55 L7.65 -0.55 7.65 -0.65 7.75 -0.7 8.5 -0.8 8.55 -0.8 M8.8 0.45 L9.45 -0.2 8.7 0.05 8.8 0.45 M9.15 1.9 L9.3 1.8 9.9 1.5 8.8 0.6 9.05 1.9 9.15 1.9 M6.55 0.3 L6.6 0.5 6.8 0.45 6.65 0.35 6.55 0.3 M6.75 1.3 L6.75 1.65 7.0 1.65 7.0 1.3 6.75 1.3 M3.1 1.35 L3.2 1.85 3.75 1.55 3.6 1.15 3.1 1.35 M3.3 2.55 L3.35 3.15 3.95 2.9 3.75 2.4 3.3 2.55 M0.6 1.3 L0.55 1.35 0.2 1.65 0.15 1.7 0.05 1.7 -0.95 1.25 -1.0 1.2 -1.0 1.1 -1.0 1.05 -0.6 0.5 -0.45 0.45 -0.4 0.45 Q-0.1 0.55 0.3 0.8 L0.6 1.2 0.6 1.3 M1.95 2.15 L2.45 2.05 2.45 1.5 1.8 1.7 1.95 2.15 M1.7 3.95 L1.15 2.95 1.1 4.25 1.7 3.95 M2.65 2.65 L1.9 2.65 2.05 3.45 2.65 3.25 2.65 2.65 M-6.15 -1.2 Q-6.7 -0.45 -6.05 0.15 L-5.8 0.35 -5.7 0.25 -5.1 -0.7 -5.05 -1.45 -5.6 -1.7 -6.15 -1.2 M-1.45 -0.9 L-1.05 -2.05 -1.6 -2.3 Q-2.35 -2.15 -2.3 -1.45 L-2.3 -0.9 -1.95 -0.4 Q-1.65 -0.5 -1.45 -0.9 M-2.05 1.0 L-1.95 1.1 -1.85 1.75 -1.9 1.85 -1.95 1.9 -3.75 2.35 -3.7 2.65 -1.45 2.2 -1.3 2.2 -1.25 2.35 -1.15 2.75 -1.15 3.0 -1.2 3.15 -1.25 3.2 -2.4 3.4 -3.2 3.7 Q-2.8 3.8 -2.45 4.05 L-1.5 4.6 -1.45 4.75 -1.45 4.8 -1.5 4.85 -1.6 4.9 -3.4 4.7 -3.05 5.3 -4.25 5.0 -4.35 4.65 -4.35 4.55 -4.4 4.5 -4.5 3.75 -6.3 4.2 -6.4 4.2 -6.45 4.15 -6.45 4.05 -6.5 3.45 -6.5 3.4 -6.4 3.35 -4.7 2.85 -4.85 1.2 -4.85 1.15 -4.75 1.1 -4.1 0.95 -4.05 0.95 -4.0 1.0 -3.95 1.05 -3.95 1.45 -2.1 1.0 -2.05 1.0" fill="#fcda11" fill-opacity="0.8509804" fill-rule="evenodd" stroke="none"/>
    </g>
    <g id="shape7">
      <path d="M23.4 9.75 Q22.35 13.4 16.6 18.1 22.0 11.25 22.6 6.2 L17.8 7.2 Q14.2 7.75 13.4 9.15 12.5 10.5 8.5 10.3 L5.15 10.15 0.35 9.75 -0.7 9.65 -10.1 8.65 0.35 9.5 5.15 9.8 6.85 9.8 9.45 9.35 10.7 8.85 12.65 7.35 13.45 7.15 14.4 6.8 14.45 6.75 Q14.45 6.25 20.05 4.8 L24.1 4.2 24.3 3.4 22.7 3.7 17.4 4.8 14.75 5.8 13.05 6.45 11.6 7.25 11.2 7.4 10.4 7.7 6.5 8.4 0.7 8.25 -11.95 7.1 -17.9 6.4 -19.9 6.1 -19.85 6.65 -19.25 8.25 -17.5 8.1 -14.7 8.25 -19.0 9.05 -19.3 9.2 Q-19.0 10.4 -17.35 12.4 L-12.8 16.85 -11.35 18.25 Q-12.7 19.5 -14.05 22.45 L-14.35 23.6 -14.5 24.1 -7.55 22.05 Q-7.4 22.05 -7.4 22.15 L-9.8 23.0 -13.15 24.15 -14.4 25.0 -14.85 25.85 -14.6 25.8 Q-9.6 25.2 -6.3 22.45 L-5.9 23.1 7.2 23.1 9.15 24.2 13.15 26.65 Q15.6 28.1 16.4 29.05 L16.55 28.1 16.4 26.8 13.95 25.85 Q12.1 25.1 6.75 22.2 L16.4 26.35 16.2 23.2 15.75 19.0 17.15 22.65 Q18.9 27.75 17.8 29.15 L16.55 30.5 13.3 27.85 Q9.1 25.3 7.85 25.15 L-5.3 23.65 Q-8.5 27.0 -15.7 27.0 L-15.6 26.6 -14.85 22.25 Q-14.5 20.45 -13.55 18.1 L-15.05 16.2 -17.65 13.0 Q-19.45 10.95 -19.65 9.2 -20.15 9.05 -20.75 6.4 L-20.85 5.9 -21.4 3.6 Q-19.3 3.15 -17.25 2.25 L-15.1 1.2 -15.0 1.4 Q-15.75 2.1 -15.6 2.45 -15.45 3.0 -17.25 4.5 L-17.6 4.8 Q-14.6 4.2 -10.45 5.6 L-9.5 5.9 -7.9 6.4 Q-3.1 7.6 2.35 7.85 L7.4 7.85 10.4 7.15 12.7 6.45 Q14.0 5.15 17.85 3.6 L18.75 3.2 21.05 2.9 Q20.7 2.35 18.85 1.6 L19.1 1.2 19.55 0.7 Q24.6 1.3 25.1 1.75 L24.7 3.6 24.5 5.15 Q24.5 6.1 23.4 9.75 M6.5 22.75 L6.35 22.9 5.9 22.95 5.6 22.95 5.7 22.9 5.55 22.9 5.5 22.9 -1.85 22.05 -4.8 21.6 -1.55 21.7 6.45 22.55 6.5 22.75" fill="#000000" fill-rule="evenodd" stroke="none"/>
      <path d="M24.65 2.5 L24.55 3.1 Q20.9 3.2 19.1 3.9 16.85 4.75 15.4 5.55 L13.5 6.45 12.0 7.25 11.6 7.4 10.85 7.7 6.85 8.4 1.15 8.25 -10.05 6.7 -17.7 5.5 -20.6 5.6 -20.75 4.75 Q-19.15 4.4 -17.45 3.4 L-15.3 1.85 Q-14.65 1.25 -14.55 1.4 -15.3 2.1 -15.2 2.45 -15.05 3.0 -16.85 4.5 L-17.15 4.8 Q-14.25 4.2 -10.05 5.6 L-9.15 5.9 -7.5 6.4 Q-2.65 7.6 2.8 7.85 L7.8 7.85 10.85 7.15 13.15 6.45 Q14.45 5.15 18.25 3.6 L19.1 3.2 21.5 2.9 Q21.1 2.35 19.3 1.6 L19.55 1.2 19.95 0.7 Q23.25 2.25 24.65 2.5" fill="#e1e1e1" fill-rule="evenodd" stroke="none"/>
    </g>
  </defs>
</svg>
