<?xml version="1.0" encoding="UTF-8" standalone="no"?>
<svg xmlns:ffdec="https://www.free-decompiler.com/flash" xmlns:xlink="http://www.w3.org/1999/xlink" ffdec:objectType="frame" height="44.9px" width="41.1px" xmlns="http://www.w3.org/2000/svg">
  <g transform="matrix(1.0, 0.0, 0.0, 1.0, 20.3, 61.1)">
    <use ffdec:characterId="2" height="11.5" transform="matrix(0.8393, 0.0, 0.0, 0.8393, -17.05, -32.6)" width="10.8" xlink:href="#sprite0"/>
    <use ffdec:characterId="2" height="11.5" transform="matrix(-0.8393, 0.0, 0.0, 0.8393, 17.55, -32.6)" width="10.8" xlink:href="#sprite1"/>
    <use ffdec:characterId="2" height="11.5" transform="matrix(-0.8393, 0.0, 0.0, 0.8393, 16.55, -26.25)" width="10.8" xlink:href="#sprite2"/>
    <use ffdec:characterId="2" height="11.5" transform="matrix(0.8393, 0.0, 0.0, 0.8393, -16.05, -26.25)" width="10.8" xlink:href="#sprite3"/>
    <use ffdec:characterId="4" height="44.4" transform="matrix(0.9263, 0.0, 0.0, 0.9263, -19.85, -60.65)" width="44.4" xlink:href="#sprite4"/>
    <use ffdec:characterId="21" height="16.9" transform="matrix(0.7401, 0.0, 0.0, 0.7401, -6.55, -29.3)" width="18.3" xlink:href="#sprite5"/>
    <use ffdec:characterId="10" height="5.4" transform="matrix(0.7401, 0.0, 0.0, 0.7401, 1.55, -23.15)" width="2.95" xlink:href="#sprite6"/>
    <use ffdec:characterId="10" height="5.4" transform="matrix(-0.7401, 0.0, 0.0, 0.7401, -1.05, -23.15)" width="2.95" xlink:href="#sprite6"/>
    <use ffdec:characterId="23" height="12.4" transform="matrix(0.5555, 0.4871, -0.4871, 0.5555, 11.35, -48.9)" width="14.0" xlink:href="#sprite7"/>
    <use ffdec:characterId="23" height="12.4" transform="matrix(-0.5555, 0.4871, 0.4871, 0.5555, -10.85, -48.9)" width="14.0" xlink:href="#sprite8"/>
    <use ffdec:characterId="25" height="7.6" transform="matrix(1.0, 0.0, 0.0, 1.0, -9.4, -56.8)" width="21.2" xlink:href="#sprite9"/>
    <use ffdec:characterId="6" height="9.6" transform="matrix(1.0, 0.0, 0.0, 1.0, 6.45, -38.15)" width="8.8" xlink:href="#sprite10"/>
    <use ffdec:characterId="6" height="9.6" transform="matrix(-1.0, 0.0, 0.0, 1.0, -6.0, -38.15)" width="8.8" xlink:href="#sprite11"/>
  </g>
  <defs>
    <g id="sprite0">
      <use ffdec:characterId="1" height="11.5" transform="matrix(1.0, 0.0, 0.0, 1.0, 0.0, 0.0)" width="10.8" xlink:href="#shape0"/>
    </g>
    <g id="shape0">
      <path d="M8.8 9.6 Q7.75 11.55 5.65 11.55 2.3 11.55 0.8 9.9 0.05 9.05 0.0 8.15 L1.0 6.7 1.4 7.1 Q2.65 8.35 4.2 9.0 5.75 9.75 7.8 9.7 L8.8 9.6" fill="#ffb511" fill-rule="evenodd" stroke="none"/>
      <path d="M1.0 6.7 L2.45 4.75 3.5 3.0 4.4 0.85 Q5.3 2.0 10.0 4.5 L9.4 7.8 8.8 9.6 7.8 9.7 Q5.75 9.75 4.2 9.0 2.65 8.35 1.4 7.1 L1.0 6.7" fill="#df7900" fill-rule="evenodd" stroke="none"/>
      <path d="M1.0 6.7 L2.45 4.75 3.5 3.0 4.4 0.85 M10.0 4.5 L9.4 7.8 8.8 9.6 Q7.75 11.55 5.65 11.55 2.3 11.55 0.8 9.9 0.05 9.05 0.0 8.15 L1.0 6.7" ffdec:has-small-stroke="true" ffdec:original-stroke-width="0.8" fill="none" stroke="#481a00" stroke-linecap="round" stroke-linejoin="round" stroke-width="1.191433661782351"/>
      <path d="M1.25 9.4 Q2.85 7.75 4.2 5.5 5.4 6.7 6.7 7.3 6.15 9.15 4.65 10.9 L4.0 10.85 Q2.4 10.5 1.25 9.4" fill="#fffb61" fill-rule="evenodd" stroke="none"/>
    </g>
    <g id="sprite1">
      <use ffdec:characterId="1" height="11.5" transform="matrix(1.0, 0.0, 0.0, 1.0, 0.0, 0.0)" width="10.8" xlink:href="#shape1"/>
    </g>
    <g id="shape1">
      <path d="M8.8 9.6 Q7.75 11.55 5.65 11.55 2.3 11.55 0.8 9.9 0.05 9.05 0.0 8.15 L1.0 6.7 1.4 7.1 Q2.65 8.35 4.2 9.0 5.75 9.75 7.8 9.7 L8.8 9.6" fill="#ffb511" fill-rule="evenodd" stroke="none"/>
      <path d="M1.0 6.7 L2.45 4.75 3.5 3.0 4.4 0.85 Q5.3 2.0 10.0 4.5 L9.4 7.8 8.8 9.6 7.8 9.7 Q5.75 9.75 4.2 9.0 2.65 8.35 1.4 7.1 L1.0 6.7" fill="#df7900" fill-rule="evenodd" stroke="none"/>
      <path d="M1.0 6.7 L2.45 4.75 3.5 3.0 4.4 0.85 M10.0 4.5 L9.4 7.8 8.8 9.6 Q7.75 11.55 5.65 11.55 2.3 11.55 0.8 9.9 0.05 9.05 0.0 8.15 L1.0 6.7" ffdec:has-small-stroke="true" ffdec:original-stroke-width="0.8" fill="none" stroke="#481a00" stroke-linecap="round" stroke-linejoin="round" stroke-width="1.191433661782351"/>
      <path d="M1.25 9.4 Q2.85 7.75 4.2 5.5 5.4 6.7 6.7 7.3 6.15 9.15 4.65 10.9 L4.0 10.85 Q2.4 10.5 1.25 9.4" fill="#fffb61" fill-rule="evenodd" stroke="none"/>
    </g>
    <g id="sprite2">
      <use ffdec:characterId="1" height="11.5" transform="matrix(1.0, 0.0, 0.0, 1.0, 0.0, 0.0)" width="10.8" xlink:href="#shape2"/>
    </g>
    <g id="shape2">
      <path d="M8.8 9.6 Q7.75 11.55 5.65 11.55 2.3 11.55 0.8 9.9 0.05 9.05 0.0 8.15 L1.0 6.7 1.4 7.1 Q2.65 8.35 4.2 9.0 5.75 9.75 7.8 9.7 L8.8 9.6" fill="#ffb511" fill-rule="evenodd" stroke="none"/>
      <path d="M1.0 6.7 L2.45 4.75 3.5 3.0 4.4 0.85 Q5.3 2.0 10.0 4.5 L9.4 7.8 8.8 9.6 7.8 9.7 Q5.75 9.75 4.2 9.0 2.65 8.35 1.4 7.1 L1.0 6.7" fill="#df7900" fill-rule="evenodd" stroke="none"/>
      <path d="M1.0 6.7 L2.45 4.75 3.5 3.0 4.4 0.85 M10.0 4.5 L9.4 7.8 8.8 9.6 Q7.75 11.55 5.65 11.55 2.3 11.55 0.8 9.9 0.05 9.05 0.0 8.15 L1.0 6.7" ffdec:has-small-stroke="true" ffdec:original-stroke-width="0.8" fill="none" stroke="#481a00" stroke-linecap="round" stroke-linejoin="round" stroke-width="1.191433661782351"/>
      <path d="M1.25 9.4 Q2.85 7.75 4.2 5.5 5.4 6.7 6.7 7.3 6.15 9.15 4.65 10.9 L4.0 10.85 Q2.4 10.5 1.25 9.4" fill="#fffb61" fill-rule="evenodd" stroke="none"/>
    </g>
    <g id="sprite3">
      <use ffdec:characterId="1" height="11.5" transform="matrix(1.0, 0.0, 0.0, 1.0, 0.0, 0.0)" width="10.8" xlink:href="#shape3"/>
    </g>
    <g id="shape3">
      <path d="M8.8 9.6 Q7.75 11.55 5.65 11.55 2.3 11.55 0.8 9.9 0.05 9.05 0.0 8.15 L1.0 6.7 1.4 7.1 Q2.65 8.35 4.2 9.0 5.75 9.75 7.8 9.7 L8.8 9.6" fill="#ffb511" fill-rule="evenodd" stroke="none"/>
      <path d="M1.0 6.7 L2.45 4.75 3.5 3.0 4.4 0.85 Q5.3 2.0 10.0 4.5 L9.4 7.8 8.8 9.6 7.8 9.7 Q5.75 9.75 4.2 9.0 2.65 8.35 1.4 7.1 L1.0 6.7" fill="#df7900" fill-rule="evenodd" stroke="none"/>
      <path d="M1.0 6.7 L2.45 4.75 3.5 3.0 4.4 0.85 M10.0 4.5 L9.4 7.8 8.8 9.6 Q7.75 11.55 5.65 11.55 2.3 11.55 0.8 9.9 0.05 9.05 0.0 8.15 L1.0 6.7" ffdec:has-small-stroke="true" ffdec:original-stroke-width="0.8" fill="none" stroke="#481a00" stroke-linecap="round" stroke-linejoin="round" stroke-width="1.191433661782351"/>
      <path d="M1.25 9.4 Q2.85 7.75 4.2 5.5 5.4 6.7 6.7 7.3 6.15 9.15 4.65 10.9 L4.0 10.85 Q2.4 10.5 1.25 9.4" fill="#fffb61" fill-rule="evenodd" stroke="none"/>
    </g>
    <g id="sprite4">
      <use ffdec:characterId="3" height="44.4" transform="matrix(1.0, 0.0, 0.0, 1.0, 0.0, 0.0)" width="44.4" xlink:href="#shape4"/>
    </g>
    <g id="shape4">
      <path d="M21.7 0.0 Q30.7 0.0 37.05 6.35 43.4 12.7 43.4 21.7 43.4 30.7 37.05 37.05 30.7 43.4 21.7 43.4 12.75 43.4 6.35 37.05 0.0 30.7 0.0 21.7 0.0 12.7 6.35 6.35 12.75 0.0 21.7 0.0" fill="#ec961e" fill-rule="evenodd" stroke="none"/>
      <path d="M21.7 -0.05 Q30.7 -0.05 37.05 6.05 43.4 12.15 43.4 20.8 43.4 29.4 37.05 35.5 30.7 41.6 21.7 41.6 12.75 41.6 6.35 35.5 0.0 29.4 0.0 20.8 0.0 12.15 6.35 6.05 12.75 -0.05 21.7 -0.05" fill="#df6000" fill-rule="evenodd" stroke="none"/>
      <path d="M21.7 0.0 Q30.7 0.0 37.05 6.35 43.4 12.7 43.4 21.7 43.4 30.7 37.05 37.05 30.7 43.4 21.7 43.4 12.75 43.4 6.35 37.05 0.0 30.7 0.0 21.7 0.0 12.7 6.35 6.35 12.75 0.0 21.7 0.0 Z" ffdec:has-small-stroke="true" ffdec:original-stroke-width="1.0" fill="none" stroke="#0b1627" stroke-linecap="round" stroke-linejoin="round" stroke-width="1.0796171523647924"/>
      <path d="M36.7 8.25 Q41.65 13.85 40.7 21.0 39.75 28.2 33.5 32.8 27.2 37.4 19.3 36.7 11.3 36.0 6.45 30.35 1.45 24.85 2.4 17.6 3.3 10.5 9.65 5.8 15.85 1.25 23.8 1.95 31.75 2.65 36.7 8.25" fill="#ffc100" fill-rule="evenodd" stroke="none"/>
      <path d="M35.7 12.45 Q34.85 14.85 32.0 15.75 L26.0 15.5 Q22.8 14.35 21.15 11.8 19.5 9.3 20.35 6.9 21.2 4.55 24.05 3.6 L30.1 3.9 Q33.3 5.05 34.9 7.55 36.55 10.1 35.7 12.45" fill="#fffb61" fill-rule="evenodd" stroke="none"/>
    </g>
    <g id="sprite5">
      <use ffdec:characterId="20" height="16.9" transform="matrix(1.0, 0.0, 0.0, 1.0, 0.0, 0.0)" width="18.3" xlink:href="#shape5"/>
    </g>
    <g id="shape5">
      <path d="M18.0 10.9 L17.85 11.3 17.9 11.3 Q17.3 12.55 14.9 13.35 L9.3 14.05 3.6 13.35 Q1.05 12.55 0.55 11.3 L0.5 11.3 0.35 10.9 0.05 9.45 Q-0.25 6.6 1.55 3.9 4.1 -0.3 9.05 -0.35 13.95 -0.55 16.75 3.85 18.55 6.6 18.25 9.55 L18.0 10.9" fill="#fffb61" fill-rule="evenodd" stroke="none"/>
      <path d="M18.0 12.85 L17.85 13.25 17.9 13.25 Q17.3 14.5 14.9 15.3 L9.3 16.0 3.6 15.3 Q1.05 14.5 0.55 13.25 L0.5 13.25 0.35 12.85 0.05 11.4 Q-0.25 8.55 1.55 5.85 4.1 1.65 9.05 1.6 13.95 1.4 16.75 5.8 18.55 8.55 18.25 11.5 L18.0 12.85" fill="#df5100" fill-rule="evenodd" stroke="none"/>
      <path d="M10.6 1.45 Q12.35 1.55 13.95 2.7 15.45 3.85 15.1 4.7 14.65 5.5 14.1 5.4 L12.35 4.6 Q11.15 3.9 10.05 3.9 8.95 3.85 8.15 3.4 7.35 2.95 8.15 2.0 8.8 1.25 10.6 1.45" fill="#ffb822" fill-rule="evenodd" stroke="none"/>
      <path d="M7.5 0.75 Q9.65 0.35 10.85 1.05 9.6 1.6 9.35 2.35 9.15 3.3 12.3 4.35 7.8 3.6 5.2 4.85 L6.0 4.1 6.5 3.2 Q6.75 2.55 6.15 2.15 L4.15 2.25 Q5.35 1.15 7.5 0.75" fill="#fffb61" fill-rule="evenodd" stroke="none"/>
      <path d="M17.65 11.7 L17.7 12.55 17.7 12.95 Q17.55 14.3 15.2 15.1 12.9 15.95 9.35 15.95 5.85 16.0 3.3 15.15 0.8 14.3 0.7 12.95 L0.65 12.55 0.7 11.7 Q9.25 14.8 17.65 11.7" fill="#ffe2a4" fill-rule="evenodd" stroke="none"/>
      <path d="M0.7 11.7 Q0.8 10.9 1.05 10.15 1.5 8.85 2.45 7.7 L3.1 6.95 Q5.6 4.5 9.1 4.5 12.65 4.45 15.15 6.95 16.6 8.4 17.3 10.1 L17.3 10.15 17.65 11.7 Q9.25 14.8 0.7 11.7" fill="#ffaf00" fill-rule="evenodd" stroke="none"/>
      <path d="M0.7 11.7 Q0.8 10.9 1.05 10.15 1.5 8.85 2.45 7.7 L3.1 6.95 Q5.6 4.5 9.1 4.5 12.65 4.45 15.15 6.95 16.6 8.4 17.3 10.1 L17.3 10.15 17.65 11.7 17.7 12.55 17.7 12.95 Q17.55 14.3 15.2 15.1 12.9 15.95 9.35 15.95 5.85 16.0 3.3 15.15 0.8 14.3 0.7 12.95 L0.65 12.55 0.7 11.7 Z" ffdec:has-small-stroke="true" ffdec:original-stroke-width="1.2" fill="none" stroke="#492405" stroke-linecap="round" stroke-linejoin="round" stroke-width="1.3511462972126012"/>
      <path d="M10.0 7.85 Q7.2 7.65 4.75 8.75 2.35 9.8 1.95 10.4 2.85 8.1 5.2 6.6 7.0 5.45 9.05 5.45 11.9 5.45 13.5 6.75 15.1 8.0 16.2 10.0 15.3 9.05 14.0 8.55 12.7 7.95 10.0 7.85" fill="#fff97c" fill-rule="evenodd" stroke="none"/>
    </g>
    <g id="sprite6">
      <use ffdec:characterId="9" height="5.4" transform="matrix(1.0, 0.0, 0.0, 1.0, 0.0, 0.0)" width="2.95" xlink:href="#shape6"/>
    </g>
    <g id="shape6">
      <path d="M3.25 3.9 L3.2 4.65 2.8 5.25 2.55 5.5 1.8 5.7 Q1.2 5.7 0.75 5.25 L0.4 4.65 0.35 3.9 0.35 2.55 0.3 1.5 Q0.25 0.35 1.2 0.55 2.15 0.75 2.7 1.7 3.25 2.7 3.25 3.9" fill="#fffb61" fill-rule="evenodd" stroke="none"/>
      <path d="M0.6 3.25 L0.55 2.45 Q0.5 1.45 1.25 1.65 2.05 1.8 2.5 2.6 3.0 3.4 3.0 4.4 L2.95 5.0 2.6 5.5 2.4 5.7 Q2.7 4.5 2.15 3.7 1.6 2.95 1.15 3.1 L0.6 3.25" fill="#713e22" fill-rule="evenodd" stroke="none"/>
      <path d="M2.4 5.7 L1.8 5.9 Q1.25 5.9 0.9 5.5 L0.65 5.0 0.6 4.4 0.6 3.25 1.15 3.1 Q1.6 2.95 2.15 3.7 2.7 4.5 2.4 5.7" fill="#a36b21" fill-rule="evenodd" stroke="none"/>
    </g>
    <g id="sprite7">
      <use ffdec:characterId="22" height="12.4" transform="matrix(1.0, 0.0, 0.0, 1.0, 0.0, 0.0)" width="14.0" xlink:href="#shape7"/>
    </g>
    <g id="shape7">
      <path d="M13.75 5.8 Q13.3 7.1 11.95 6.6 8.4 2.45 6.35 2.6 4.3 2.8 4.3 9.25 2.05 11.3 0.55 9.3 1.15 -1.65 4.65 -1.7 8.15 -1.7 13.75 5.8" fill="#ffb511" fill-rule="evenodd" stroke="none"/>
      <path d="M0.55 9.3 Q1.15 -1.65 4.65 -1.7 8.15 -1.7 13.75 5.8" ffdec:has-small-stroke="true" ffdec:original-stroke-width="0.8" fill="none" stroke="#5e2a00" stroke-linecap="round" stroke-linejoin="round" stroke-width="1.353538574452914"/>
      <path d="M7.3 7.35 Q5.9 8.05 4.3 9.4 4.3 2.8 6.35 2.6 7.1 2.55 8.05 3.05 7.15 4.75 7.2 6.65 L7.3 7.35" fill="#9c3600" fill-rule="evenodd" stroke="none"/>
      <path d="M12.15 6.8 Q10.1 5.85 7.3 7.35 L7.2 6.65 Q7.15 4.75 8.05 3.05 9.75 4.0 12.15 6.8" fill="#c0710d" fill-rule="evenodd" stroke="none"/>
      <path d="M4.3 9.4 Q4.3 2.8 6.35 2.6 7.1 2.55 8.05 3.05 9.75 4.0 12.15 6.8" ffdec:has-small-stroke="true" ffdec:original-stroke-width="0.8" fill="none" stroke="#ad5300" stroke-linecap="round" stroke-linejoin="round" stroke-width="1.353538574452914"/>
      <path d="M3.2 0.8 Q3.55 0.85 3.7 2.15 L3.55 5.05 Q3.35 6.75 2.8 7.9 2.3 8.95 1.9 8.9 1.55 8.85 1.4 7.55 1.35 6.3 1.6 4.6 1.9 2.9 2.3 1.8 2.8 0.75 3.2 0.8" fill="#fffb61" fill-rule="evenodd" stroke="none"/>
      <path d="M7.5 1.9 Q10.6 3.3 12.8 6.45" ffdec:has-small-stroke="true" ffdec:original-stroke-width="0.8" fill="none" stroke="#ffffff" stroke-linecap="round" stroke-linejoin="round" stroke-width="1.353538574452914"/>
    </g>
    <g id="sprite8">
      <use ffdec:characterId="22" height="12.4" transform="matrix(1.0, 0.0, 0.0, 1.0, 0.0, 0.0)" width="14.0" xlink:href="#shape8"/>
    </g>
    <g id="shape8">
      <path d="M13.75 5.8 Q13.3 7.1 11.95 6.6 8.4 2.45 6.35 2.6 4.3 2.8 4.3 9.25 2.05 11.3 0.55 9.3 1.15 -1.65 4.65 -1.7 8.15 -1.7 13.75 5.8" fill="#ffb511" fill-rule="evenodd" stroke="none"/>
      <path d="M0.55 9.3 Q1.15 -1.65 4.65 -1.7 8.15 -1.7 13.75 5.8" ffdec:has-small-stroke="true" ffdec:original-stroke-width="0.8" fill="none" stroke="#5e2a00" stroke-linecap="round" stroke-linejoin="round" stroke-width="1.353538574452914"/>
      <path d="M7.3 7.35 Q5.9 8.05 4.3 9.4 4.3 2.8 6.35 2.6 7.1 2.55 8.05 3.05 7.15 4.75 7.2 6.65 L7.3 7.35" fill="#9c3600" fill-rule="evenodd" stroke="none"/>
      <path d="M12.15 6.8 Q10.1 5.85 7.3 7.35 L7.2 6.65 Q7.15 4.75 8.05 3.05 9.75 4.0 12.15 6.8" fill="#c0710d" fill-rule="evenodd" stroke="none"/>
      <path d="M4.3 9.4 Q4.3 2.8 6.35 2.6 7.1 2.55 8.05 3.05 9.75 4.0 12.15 6.8" ffdec:has-small-stroke="true" ffdec:original-stroke-width="0.8" fill="none" stroke="#ad5300" stroke-linecap="round" stroke-linejoin="round" stroke-width="1.353538574452914"/>
      <path d="M3.2 0.8 Q3.55 0.85 3.7 2.15 L3.55 5.05 Q3.35 6.75 2.8 7.9 2.3 8.95 1.9 8.9 1.55 8.85 1.4 7.55 1.35 6.3 1.6 4.6 1.9 2.9 2.3 1.8 2.8 0.75 3.2 0.8" fill="#fffb61" fill-rule="evenodd" stroke="none"/>
      <path d="M7.5 1.9 Q10.6 3.3 12.8 6.45" ffdec:has-small-stroke="true" ffdec:original-stroke-width="0.8" fill="none" stroke="#ffffff" stroke-linecap="round" stroke-linejoin="round" stroke-width="1.353538574452914"/>
    </g>
    <g id="sprite9">
      <use ffdec:characterId="24" height="7.6" transform="matrix(1.0, 0.0, 0.0, 1.0, 0.0, 0.0)" width="21.2" xlink:href="#shape9"/>
    </g>
    <g id="shape9">
      <path d="M1.85 4.85 L1.85 2.9 Q9.35 0.3 17.4 2.9 L17.4 4.85 Q9.4 2.2 1.85 4.85" fill="#11101b" fill-rule="evenodd" stroke="none"/>
      <path d="M17.4 4.85 L17.4 2.9 Q9.35 0.3 1.85 2.9 L1.85 4.85 Q0.9 5.15 0.0 5.55 L0.0 1.95 Q8.85 -1.9 19.35 1.95 L19.35 5.55 17.4 4.85" fill="#a25400" fill-rule="evenodd" stroke="none"/>
      <path d="M19.6 5.95 L17.6 5.15 Q9.4 2.1 1.6 5.15 L-0.3 5.95" fill="none" stroke="#ffffff" stroke-linecap="round" stroke-linejoin="round" stroke-width="1.3"/>
      <path d="M-0.3 5.95 L-0.3 1.85 Q8.8 -2.55 19.6 1.85 L19.6 5.95" fill="none" stroke="#fffb61" stroke-linecap="round" stroke-linejoin="round" stroke-width="1.3"/>
    </g>
    <g id="sprite10">
      <use ffdec:characterId="5" height="9.6" transform="matrix(1.0, 0.0, 0.0, 1.0, 0.0, 0.0)" width="8.8" xlink:href="#shape10"/>
    </g>
    <g id="shape10">
      <path d="M7.0 5.55 Q9.6 8.6 5.15 11.8 1.45 13.55 0.35 9.3 -0.85 5.0 1.4 3.9 4.45 2.55 7.0 5.55" fill="#ffffff" fill-rule="evenodd" stroke="none"/>
      <path d="M7.0 5.55 Q9.6 8.6 5.15 11.8 1.45 13.55 0.35 9.3 -0.85 5.0 1.4 3.9 4.45 2.55 7.0 5.55 Z" ffdec:has-small-stroke="true" ffdec:original-stroke-width="0.8" fill="none" stroke="#b55208" stroke-linecap="round" stroke-linejoin="round" stroke-width="1.0"/>
      <path d="M4.65 6.35 L4.9 7.05 4.7 7.65 4.05 7.75 3.45 7.35 3.15 6.7 Q3.15 6.3 3.4 6.1 L4.0 6.0 Q4.4 6.05 4.65 6.35" fill="#281d41" fill-rule="evenodd" stroke="none"/>
    </g>
    <g id="sprite11">
      <use ffdec:characterId="5" height="9.6" transform="matrix(1.0, 0.0, 0.0, 1.0, 0.0, 0.0)" width="8.8" xlink:href="#shape11"/>
    </g>
    <g id="shape11">
      <path d="M7.0 5.55 Q9.6 8.6 5.15 11.8 1.45 13.55 0.35 9.3 -0.85 5.0 1.4 3.9 4.45 2.55 7.0 5.55" fill="#ffffff" fill-rule="evenodd" stroke="none"/>
      <path d="M7.0 5.55 Q9.6 8.6 5.15 11.8 1.45 13.55 0.35 9.3 -0.85 5.0 1.4 3.9 4.45 2.55 7.0 5.55 Z" ffdec:has-small-stroke="true" ffdec:original-stroke-width="0.8" fill="none" stroke="#b55208" stroke-linecap="round" stroke-linejoin="round" stroke-width="1.0"/>
      <path d="M4.65 6.35 L4.9 7.05 4.7 7.65 4.05 7.75 3.45 7.35 3.15 6.7 Q3.15 6.3 3.4 6.1 L4.0 6.0 Q4.4 6.05 4.65 6.35" fill="#281d41" fill-rule="evenodd" stroke="none"/>
    </g>
  </defs>
</svg>
