<?xml version="1.0" encoding="UTF-8" standalone="no"?>
<svg xmlns:ffdec="https://www.free-decompiler.com/flash" xmlns:xlink="http://www.w3.org/1999/xlink" ffdec:objectType="frame" height="58.8px" width="49.1px" xmlns="http://www.w3.org/2000/svg">
  <g transform="matrix(1.0, 0.0, 0.0, 1.0, 24.7, 74.6)">
    <use ffdec:characterId="42" height="58.8" transform="matrix(1.0, 0.0, 0.0, 1.0, -24.7, -74.6)" width="49.1" xlink:href="#sprite0"/>
  </g>
  <defs>
    <g id="sprite0">
      <use ffdec:characterId="2" height="24.8" transform="matrix(1.0, 0.0, 0.0, 1.0, 7.65, 34.05)" width="33.8" xlink:href="#sprite1"/>
      <use ffdec:characterId="4" height="49.1" transform="matrix(1.0, 0.0, 0.0, 1.0, 0.0, 0.0)" width="49.1" xlink:href="#sprite2"/>
      <use ffdec:characterId="6" height="34.25" transform="matrix(1.0865, 0.0, 0.0, 1.0865, 9.1, 5.15)" width="34.45" xlink:href="#sprite3"/>
      <use ffdec:characterId="8" height="6.15" transform="matrix(1.0, 0.0, 0.0, 1.0, 12.3, 38.4)" width="25.3" xlink:href="#sprite4"/>
      <use ffdec:characterId="35" height="46.1" transform="matrix(1.0, 0.0, 0.0, 1.0, 4.35, 4.5)" width="46.1" xlink:href="#sprite5"/>
      <use ffdec:characterId="37" height="43.85" transform="matrix(1.0, 0.0, 0.0, 1.0, 1.7, 3.5)" width="45.45" xlink:href="#sprite6"/>
      <use ffdec:characterId="39" height="10.85" transform="matrix(1.0, 0.0, 0.0, 1.0, 6.45, 42.9)" width="36.0" xlink:href="#sprite7"/>
    </g>
    <g id="sprite1">
      <use ffdec:characterId="1" height="24.8" transform="matrix(1.0, 0.0, 0.0, 1.0, 0.0, 0.0)" width="33.8" xlink:href="#shape0"/>
    </g>
    <g id="shape0">
      <path d="M1.05 20.65 L4.0 0.95 29.8 0.95 32.75 20.65 Q28.45 22.35 24.15 23.1 L24.1 23.1 Q15.85 24.6 7.6 22.7 L7.55 22.7 Q4.3 21.9 1.05 20.65" fill="#ed6200" fill-rule="evenodd" stroke="none"/>
      <path d="M30.2 -0.05 L30.55 0.1 30.7 0.4 33.8 20.9 33.75 21.2 33.5 21.45 Q28.9 23.3 24.3 24.1 15.85 25.6 7.35 23.65 3.8 22.85 0.3 21.45 L0.1 21.2 0.0 20.9 3.05 0.4 3.25 0.1 3.55 -0.05 30.2 -0.05 M1.05 20.65 Q4.3 21.9 7.55 22.7 L7.6 22.7 Q15.85 24.6 24.1 23.1 L24.15 23.1 Q28.45 22.35 32.75 20.65 L29.8 0.95 4.0 0.95 1.05 20.65" fill="#5b1b17" fill-rule="evenodd" stroke="none"/>
      <path d="M29.9 18.35 L30.5 20.9 Q26.4 22.35 22.85 22.8 L22.5 19.95 Q25.7 19.65 29.9 18.35" fill="#ffcc00" fill-rule="evenodd" stroke="none"/>
      <path d="M16.7 20.35 L19.35 20.35 19.35 23.1 16.7 23.1 16.7 20.35" fill="#ffcc00" fill-rule="evenodd" stroke="none"/>
      <path d="M6.5 18.65 L6.35 21.7 4.6 21.3 4.85 18.15 6.5 18.65" fill="#fdff00" fill-rule="evenodd" stroke="none"/>
    </g>
    <g id="sprite2">
      <use ffdec:characterId="3" height="49.1" transform="matrix(1.0, 0.0, 0.0, 1.0, 0.0, 0.0)" width="49.1" xlink:href="#shape1"/>
    </g>
    <g id="shape1">
      <path d="M41.95 7.2 Q49.1 14.35 49.1 24.55 49.1 34.7 41.95 41.95 34.7 49.1 24.55 49.1 14.4 49.1 7.2 41.95 0.0 34.7 0.0 24.55 0.0 14.35 7.2 7.2 14.4 0.0 24.55 0.0 34.7 0.0 41.95 7.2 M47.6 24.55 Q47.6 14.95 40.9 8.25 34.1 1.5 24.55 1.5 15.0 1.5 8.25 8.25 1.5 14.95 1.5 24.55 1.5 34.1 8.25 40.9 15.0 47.6 24.55 47.6 34.1 47.6 40.9 40.9 47.6 34.1 47.6 24.55" fill="#484242" fill-rule="evenodd" stroke="none"/>
      <path d="M47.6 24.55 Q47.6 34.1 40.9 40.9 34.1 47.6 24.55 47.6 15.0 47.6 8.25 40.9 1.5 34.1 1.5 24.55 1.5 14.95 8.25 8.25 15.0 1.5 24.55 1.5 34.1 1.5 40.9 8.25 47.6 14.95 47.6 24.55" fill="#cfcbc9" fill-opacity="0.5019608" fill-rule="evenodd" stroke="none"/>
      <path d="M44.0 23.85 Q45.45 21.3 44.85 18.35 L45.55 19.65 Q48.0 24.85 46.35 30.55 44.7 36.3 40.25 40.25 L37.65 41.85 Q33.65 44.2 28.95 44.95 22.55 45.7 16.35 44.0 11.95 42.7 8.8 39.35 3.8 33.95 2.7 27.9 1.55 21.8 3.45 17.2 5.4 12.6 10.15 10.3 6.95 13.95 8.05 18.45 9.25 23.6 13.45 26.9 17.55 30.05 22.5 31.4 30.45 33.4 37.55 29.9 41.65 27.8 44.0 23.85" fill="#b4aaa5" fill-opacity="0.6" fill-rule="evenodd" stroke="none"/>
      <path d="M10.8 41.45 Q11.5 40.45 14.55 39.8 18.7 38.8 24.55 38.8 30.35 38.8 34.45 39.8 37.55 40.45 38.3 41.45 24.35 51.15 10.8 41.45" fill="#c5c0b5" fill-rule="evenodd" stroke="none"/>
      <path d="M38.3 41.45 Q37.55 40.45 34.45 39.8 30.35 38.8 24.55 38.8 18.7 38.8 14.55 39.8 11.5 40.45 10.8 41.45 L10.65 41.55 10.45 41.5 10.35 41.35 10.4 41.15 Q11.05 40.05 14.45 39.25 18.6 38.25 24.55 38.25 30.45 38.25 34.55 39.25 38.0 40.05 38.7 41.15 L38.75 41.35 38.65 41.5 38.5 41.55 38.3 41.45" fill="#983d37" fill-rule="evenodd" stroke="none"/>
    </g>
    <g id="sprite3">
      <use ffdec:characterId="5" height="34.25" transform="matrix(1.0, 0.0, 0.0, 1.0, 0.0, 0.0)" width="34.45" xlink:href="#shape2"/>
    </g>
    <g id="shape2">
      <path d="M19.05 5.85 L17.75 7.35 18.55 7.8 Q18.95 8.1 19.05 9.3 19.15 10.45 19.7 10.8 L21.0 10.85 Q21.75 10.5 21.85 10.5 22.25 10.5 22.3 10.9 L22.3 11.35 Q22.3 12.5 21.9 13.85 21.45 15.15 19.6 15.15 L19.7 16.05 Q21.5 15.85 21.65 17.6 L21.8 19.45 Q21.8 20.5 20.75 21.1 19.65 21.75 16.95 22.2 L15.35 22.2 15.25 22.15 15.05 23.8 14.9 25.65 14.65 26.55 14.45 27.0 10.55 27.15 10.5 27.2 4.25 27.2 Q2.2 26.8 2.2 26.1 2.2 25.5 2.75 24.4 3.25 23.3 3.75 22.8 L5.85 22.8 5.85 22.35 4.55 22.4 3.35 21.95 Q2.55 21.45 2.5 20.9 L2.55 19.7 3.0 18.4 Q3.45 17.55 4.2 17.55 4.6 17.55 4.6 18.35 4.65 19.15 5.3 19.15 5.55 19.15 6.25 18.6 L7.25 17.6 7.75 16.7 7.75 16.0 Q7.75 15.1 7.05 15.0 5.95 14.85 5.6 14.55 4.9 13.95 4.9 12.95 5.35 10.7 6.45 10.7 6.8 10.7 6.85 11.4 6.9 12.05 7.5 12.05 L8.35 11.1 9.05 9.65 9.75 8.3 9.9 7.2 Q9.9 6.2 9.05 4.75 L7.75 2.3 Q7.75 2.0 8.2 1.7 L9.1 1.5 9.7 1.5 12.0 0.9 14.95 0.8 16.6 1.4 Q20.35 3.15 20.35 4.4 L19.05 5.85" fill="#5b1b17" fill-rule="evenodd" stroke="none"/>
      <path d="M17.65 6.0 Q17.05 6.8 16.7 7.75 17.7 7.85 18.15 8.7 L18.55 9.95 18.95 11.15 Q19.25 11.85 19.9 12.3 L20.3 12.3 21.5 11.65 21.75 11.85 21.8 12.0 21.5 12.7 21.15 13.4 20.75 14.05 Q20.7 14.6 18.85 14.35 L18.85 15.1 19.0 16.65 Q19.75 16.45 20.25 17.2 L21.0 18.05 22.25 17.05 Q23.4 16.05 23.9 16.05 25.1 16.05 26.75 17.45 L28.2 18.85 29.5 18.75 Q30.9 18.75 31.95 21.3 32.4 22.25 32.4 23.9 32.4 26.0 31.85 26.6 L31.55 27.3 29.4 27.65 Q29.05 27.75 29.05 28.0 L29.05 28.35 28.8 29.0 Q28.4 31.05 27.8 31.75 26.65 33.2 23.55 33.4 L21.7 33.45 19.05 33.7 17.7 33.7 17.5 33.65 16.0 33.65 14.95 33.8 13.2 33.95 Q11.6 33.95 10.35 33.25 L9.3 32.55 8.8 32.75 8.6 32.7 6.8 32.7 6.6 32.65 4.3 32.6 Q2.6 32.55 1.45 31.5 L0.05 29.7 -0.55 28.05 -1.0 26.25 -0.9 25.7 Q-0.65 25.4 0.15 25.4 L0.9 25.45 1.3 25.55 2.8 25.55 3.6 24.6 Q4.0 24.05 4.55 23.85 L6.8 23.85 6.9 23.45 6.55 21.5 6.45 21.55 4.55 21.55 Q3.85 21.6 3.4 21.05 3.05 20.65 3.05 20.25 3.4 19.05 3.65 19.05 L4.15 19.6 4.95 20.1 Q5.75 20.1 6.9 19.1 7.95 18.2 8.05 17.7 L8.5 15.05 7.0 14.6 Q5.45 14.15 5.45 13.1 L5.6 12.35 Q5.8 11.8 6.05 11.8 L6.5 12.35 Q6.95 12.85 7.5 12.85 8.25 12.85 9.95 10.05 L10.55 8.75 Q11.15 7.4 11.0 7.05 L10.3 5.25 Q9.75 3.75 9.05 2.9 L8.3 1.95 Q8.3 1.5 9.4 1.15 L12.55 0.3 Q14.6 -0.25 17.15 1.75 19.65 3.75 19.65 4.15 L19.15 4.8 17.65 6.0" fill="#ffcc00" fill-rule="evenodd" stroke="none"/>
      <path d="M22.45 16.95 Q23.65 16.0 24.0 16.0 25.3 16.0 26.65 17.3 L27.9 18.85 29.2 18.5 Q30.6 18.5 31.7 20.75 32.55 22.55 32.55 23.6 32.55 24.8 32.15 25.85 31.75 27.0 31.2 27.3 L29.55 27.5 28.15 26.75 26.15 25.4 25.4 24.35 24.3 23.15 22.8 23.2 14.35 23.75 14.35 21.15 19.0 21.15 Q21.45 20.95 22.4 21.15 L23.35 21.25 Q23.75 21.25 24.2 20.25 L24.6 19.2 23.75 18.0 23.6 18.6 22.9 19.0 Q22.1 19.0 21.65 18.6 L21.2 18.05 22.45 16.95 M19.0 16.55 L13.15 16.55 13.15 14.6 19.0 14.5 19.0 16.55" fill="#ed6200" fill-rule="evenodd" stroke="none"/>
      <path d="M8.45 32.45 L6.25 32.55 6.05 32.35 Q4.6 30.25 4.05 27.4 L4.0 25.95 4.05 25.65 7.85 25.55 Q7.45 26.1 7.5 26.6 7.75 29.1 8.3 31.45 L8.45 32.45" fill="#ed6200" fill-rule="evenodd" stroke="none"/>
      <path d="M20.75 14.3 L14.8 14.75 Q16.05 13.7 16.1 13.05 16.1 12.35 16.35 11.75 L14.95 12.3 Q13.6 11.9 12.8 9.4 11.95 6.9 12.75 4.4 13.5 1.85 14.35 1.35 L17.75 2.3 Q19.15 2.7 19.7 4.3 18.0 5.35 17.55 6.15 L16.4 7.85 Q18.35 8.1 18.55 9.55 18.7 11.0 19.4 12.0 L20.2 12.2 21.55 11.6 Q22.05 12.1 21.55 12.85 L20.75 14.3" fill="#ffa700" fill-rule="evenodd" stroke="none"/>
      <path d="M20.65 17.65 Q21.9 19.25 23.0 19.25 23.45 19.25 23.55 18.75 23.6 18.25 23.75 18.25 L24.15 18.7 24.25 19.15 24.05 19.75 23.85 20.35 23.75 20.85 22.15 21.2 21.2 21.15 20.2 21.05 18.75 21.15 17.55 21.0 17.5 20.75 18.15 19.45 17.85 18.9 Q17.5 18.45 17.25 18.45 L16.95 18.45 17.05 19.0 17.0 19.45 Q16.85 19.75 16.25 19.75 15.1 19.75 14.55 18.75 L13.3 16.35 15.6 16.45 19.25 16.7 19.55 16.8 Q20.3 16.9 20.45 17.1 L20.65 17.65" fill="#ff9100" fill-rule="evenodd" stroke="none"/>
      <path d="M8.6 24.85 L9.0 23.9 9.25 23.75 12.4 23.65 13.8 23.65 20.9 23.3 24.2 23.45 24.85 23.65 26.25 25.6 8.65 25.0 8.6 24.85" fill="#ff9100" fill-rule="evenodd" stroke="none"/>
      <path d="M16.3 26.65 L21.05 26.8 24.8 26.9 Q26.35 27.0 27.05 27.65 27.4 29.6 26.7 30.85 26.0 32.1 22.65 32.45 L16.45 32.65 Q15.5 30.95 15.25 29.05 15.1 28.1 15.25 27.15 L15.7 26.8 16.3 26.65" fill="#ff9100" fill-rule="evenodd" stroke="none"/>
      <path d="M16.1 26.6 L20.25 27.1 Q16.8 28.6 16.55 30.9 L16.4 32.65 Q15.25 30.7 14.4 28.25 14.1 26.55 16.1 26.6" fill="#c63f00" fill-rule="evenodd" stroke="none"/>
      <path d="M24.1 27.4 Q27.65 27.7 27.5 28.45 27.55 30.85 25.35 31.7 23.7 32.35 21.85 32.2 24.15 32.0 25.35 30.2 L25.75 29.1 Q25.9 28.25 24.1 27.4" fill="#c63f00" fill-rule="evenodd" stroke="none"/>
      <path d="M21.05 29.0 Q21.2 29.85 20.75 30.65 L19.15 31.05 Q18.2 31.0 18.05 30.4 17.9 29.75 18.4 28.75 L18.45 28.65 Q18.25 30.3 19.6 30.1 20.25 29.95 20.1 29.15 L19.6 28.05 Q20.55 27.8 21.05 29.0" fill="#c63f00" fill-rule="evenodd" stroke="none"/>
      <path d="M25.1 28.85 Q25.25 29.7 24.8 30.5 24.15 30.95 23.2 30.9 22.25 30.85 22.1 30.25 21.95 29.6 22.45 28.6 L22.5 28.5 Q22.3 30.15 23.65 29.95 24.3 29.8 24.15 29.0 L23.65 27.9 Q24.6 27.65 25.1 28.85" fill="#c63f00" fill-rule="evenodd" stroke="none"/>
      <path d="M11.15 0.8 L14.65 0.35 Q13.5 2.2 13.0 3.9 12.55 5.45 12.4 7.65 L12.3 5.85 Q12.1 4.3 11.0 3.0 9.9 1.7 8.45 1.85 9.8 0.95 11.15 0.8" fill="#fdff00" fill-rule="evenodd" stroke="none"/>
      <path d="M11.9 8.0 Q12.55 7.8 12.65 8.85 L13.05 10.55 Q13.3 11.2 13.95 11.9 14.55 12.6 14.85 12.5 L15.45 12.4 16.2 11.75 15.9 13.05 Q15.45 13.65 14.95 13.65 13.35 13.65 12.55 12.25 11.75 10.8 10.3 10.85 L9.4 11.15 Q9.85 10.1 10.45 9.3 L11.1 8.3 11.9 8.0" fill="#ffffff" fill-rule="evenodd" stroke="none"/>
      <path d="M17.4 18.65 L17.65 18.7 17.9 19.0 Q18.1 19.25 17.95 19.8 L17.55 20.65 17.15 21.1 Q15.45 21.1 14.25 20.45 13.0 19.75 11.1 19.1 L6.5 19.4 7.25 18.7 8.2 16.9 8.5 16.8 8.95 16.7 9.75 16.8 12.25 16.8 13.05 16.7 13.2 16.85 13.45 17.1 Q13.85 18.1 14.7 18.9 15.2 19.3 15.85 19.55 L16.95 19.7 17.2 19.65 17.25 19.6 17.3 19.4 17.3 18.75 17.4 18.65" fill="#ffffff" fill-rule="evenodd" stroke="none"/>
      <path d="M9.95 24.25 L8.0 25.5 Q6.45 24.4 4.65 24.1 L4.35 24.05 8.75 24.0 Q10.6 23.7 9.95 24.25" fill="#fdff00" fill-rule="evenodd" stroke="none"/>
      <path d="M12.6 29.1 Q10.75 28.35 8.6 29.65 L8.1 27.6 Q7.95 27.1 8.05 26.35 8.1 25.55 14.6 25.95 13.0 27.5 15.0 30.65 14.4 29.85 12.6 29.1" fill="#ffffff" fill-rule="evenodd" stroke="none"/>
      <path d="M4.45 30.4 Q1.75 28.0 0.2 28.9 -1.4 25.95 0.15 25.9 L3.7 25.7 Q3.3 27.7 4.45 30.4" fill="#ffffff" fill-rule="evenodd" stroke="none"/>
      <path d="M24.1 19.75 L25.95 18.8 26.85 17.85 Q26.95 17.75 27.0 17.75 L27.8 18.8 26.0 20.5 Q25.55 21.1 25.6 22.3 25.65 23.45 27.8 23.25 30.2 22.75 30.9 22.05 31.5 21.35 30.8 20.05 L31.25 20.05 Q32.15 20.65 32.3 22.05 32.45 24.0 32.15 25.75 L31.85 26.85 31.65 27.4 28.85 27.3 Q28.35 26.15 27.25 26.0 26.2 25.65 25.5 24.95 L24.3 23.4 21.25 23.2 21.3 20.85 Q23.8 21.95 24.1 19.75" fill="#c63f00" fill-rule="evenodd" stroke="none"/>
      <path d="M18.4 17.4 Q15.9 17.4 15.9 18.4 15.9 18.75 16.35 19.1 L16.75 19.55 16.6 19.8 16.3 19.95 Q15.45 19.95 14.35 18.5 L13.4 16.6 16.5 16.6 19.7 16.65 Q20.4 16.6 20.3 17.0 20.2 17.35 20.8 17.4 L18.4 17.4 M18.95 3.4 Q14.95 3.35 14.65 6.2 L14.7 6.65 Q14.7 7.5 16.7 7.75 L16.3 7.8 Q17.5 7.9 17.65 8.45 17.9 9.1 16.35 9.7 14.75 10.25 14.75 10.8 14.75 11.25 15.25 11.7 L15.7 12.1 Q15.7 12.3 15.15 12.3 14.1 12.3 13.25 10.25 L12.65 8.15 12.65 8.05 12.5 8.1 13.0 4.5 14.3 0.75 Q15.3 0.75 16.25 1.4 L18.0 2.45 Q18.75 2.8 18.95 3.4" fill="#c63f00" fill-rule="evenodd" stroke="none"/>
      <path d="M21.25 21.15 L19.8 21.6 Q18.05 22.2 17.25 23.4 L14.8 23.45 14.9 21.6 19.7 21.25 21.25 21.15 M16.7 14.6 L19.15 14.45 17.25 15.7 16.5 16.5 13.4 16.5 Q13.35 15.9 13.45 15.5 L13.75 14.7 16.7 14.6 M8.65 14.95 L13.2 14.95 13.2 16.5 8.65 16.5 8.65 14.95 M14.4 21.5 L14.4 23.8 6.7 23.8 6.7 21.5 14.4 21.5" fill="#9e3b0c" fill-rule="evenodd" stroke="none"/>
      <path d="M14.15 1.35 L14.15 1.6 Q12.7 4.35 12.85 7.45 L12.85 7.5 Q12.7 7.25 12.7 6.55 L12.95 4.2 13.45 1.95 13.65 1.6 Q13.9 1.3 14.15 1.35" fill="#ed6200" fill-rule="evenodd" stroke="none"/>
      <path d="M16.6 7.45 Q16.75 8.05 16.3 7.85 L14.2 7.95 10.95 8.0 15.5 7.45 16.6 7.45" fill="#ed6200" fill-rule="evenodd" stroke="none"/>
      <path d="M14.5 23.35 L14.75 23.45 14.8 23.6 14.75 23.8 14.5 23.85 4.2 24.05 4.05 24.0 3.9 23.8 4.05 23.65 Q4.1 23.55 4.2 23.55 L14.5 23.35" fill="#ed6200" fill-rule="evenodd" stroke="none"/>
      <path d="M4.45 21.7 L4.25 21.65 4.15 21.45 4.25 21.3 Q4.3 21.2 4.4 21.2 L16.9 20.9 17.1 21.0 17.15 21.15 17.1 21.35 16.95 21.4 4.45 21.7" fill="#ed6200" fill-rule="evenodd" stroke="none"/>
      <path d="M12.6 8.0 L13.55 10.45 Q14.2 12.05 14.8 12.05 L15.8 11.75 16.5 11.25 16.55 11.45 16.45 13.15 Q16.2 14.75 15.3 14.8 14.8 14.8 14.8 14.5 14.75 14.3 15.75 13.4 L16.1 12.25 16.05 12.0 15.6 12.45 14.9 12.7 Q13.9 12.7 13.1 10.7 L12.5 8.6 12.55 8.0 12.6 8.0" fill="#ed6200" fill-rule="evenodd" stroke="none"/>
      <path d="M18.0 18.5 L18.45 19.25 18.0 20.4 Q17.5 21.35 17.15 21.35 16.75 21.35 16.85 21.05 L17.35 20.3 17.85 19.35 17.35 18.75 17.35 19.5 Q17.25 19.9 16.35 19.9 15.1 19.95 14.65 19.45 L14.1 18.5 13.35 16.8 13.6 16.4 14.75 18.7 Q15.2 19.5 16.45 19.45 17.0 19.45 16.95 18.9 L16.45 18.1 16.9 17.95 Q17.55 17.95 18.0 18.5" fill="#ed6200" fill-rule="evenodd" stroke="none"/>
      <path d="M19.9 17.05 L15.65 16.6 18.8 16.35 19.45 16.45 20.2 16.35 Q20.5 16.35 21.05 17.65 21.55 18.95 22.7 18.95 23.5 18.9 23.5 18.3 L23.4 17.5 23.5 17.45 24.65 19.0 24.25 20.25 23.7 21.3 17.65 21.35 17.45 21.1 23.45 20.8 24.15 18.95 23.75 18.3 23.7 18.85 Q23.5 19.3 22.55 19.35 21.65 19.35 20.95 18.55 L20.45 17.8 19.9 17.05" fill="#5b1b17" fill-rule="evenodd" stroke="none"/>
      <path d="M24.35 23.0 Q24.7 22.95 25.65 24.1 L26.5 25.45 26.2 25.8 Q25.9 25.8 24.9 24.3 L24.4 23.6 19.35 23.35 23.45 23.05 24.35 23.0" fill="#5b1b17" fill-rule="evenodd" stroke="none"/>
      <path d="M11.85 25.15 L18.2 25.6 Q18.4 26.15 16.25 25.95 14.1 25.7 11.25 25.85 L7.05 25.85 Q6.95 25.45 7.95 25.2 8.9 24.85 11.85 25.15" fill="#ed6200" fill-rule="evenodd" stroke="none"/>
      <path d="M11.1 7.15 L10.95 7.8 10.8 7.8 Q10.3 5.1 7.95 2.0 8.85 1.8 10.05 4.05 11.1 6.1 11.1 7.15" fill="#5b1b17" fill-rule="evenodd" stroke="none"/>
      <path d="M19.95 4.0 L19.9 4.4 19.05 5.15 Q18.2 5.65 17.55 6.55 L16.7 7.8 16.6 7.9 16.45 7.8 Q16.3 6.75 17.15 5.5 17.95 4.2 19.5 4.2 L19.95 4.0" fill="#5b1b17" fill-rule="evenodd" stroke="none"/>
      <path d="M8.9 16.45 L9.05 16.3 13.3 16.25 13.5 16.35 13.55 16.5 13.5 16.7 13.3 16.75 9.05 16.8 8.9 16.8 8.8 16.6 8.9 16.45" fill="#ed6200" fill-rule="evenodd" stroke="none"/>
      <path d="M7.45 15.05 L7.3 15.0 7.2 14.8 7.3 14.65 7.4 14.55 15.25 14.4 15.5 14.5 15.55 14.65 15.5 14.85 15.3 14.9 7.45 15.05" fill="#5b1b17" fill-rule="evenodd" stroke="none"/>
      <path d="M11.15 7.9 L9.3 11.25 Q7.4 14.1 7.4 13.05 6.75 13.0 6.4 12.6 6.05 12.2 6.05 11.95 5.55 12.75 5.55 13.0 5.55 14.15 7.55 14.55 L7.15 14.85 Q5.95 14.9 5.35 14.05 5.05 13.55 5.05 13.0 5.05 12.4 5.35 11.9 L6.35 11.05 6.5 11.25 6.35 11.7 6.6 12.15 Q6.95 12.45 7.35 12.45 7.85 12.45 8.6 11.45 L9.4 9.8 9.8 9.2 10.15 8.45 10.4 7.75 Q10.6 7.45 10.95 7.55 L11.15 7.9" fill="#5b1b17" fill-rule="evenodd" stroke="none"/>
      <path d="M7.8 16.95 Q7.85 16.35 8.5 16.35 L9.0 16.35 9.05 16.5 Q8.6 16.75 8.6 17.0 L8.5 17.5 7.75 18.55 Q7.3 19.35 5.1 20.2 L4.6 20.2 Q3.9 19.7 3.8 19.15 L3.2 20.15 3.85 20.75 4.45 21.35 4.15 21.65 Q3.25 21.65 2.65 20.15 2.7 19.3 3.1 18.8 3.45 18.25 4.15 17.9 4.15 18.95 4.4 19.15 L5.05 19.55 5.75 19.3 7.0 18.4 Q7.7 17.8 7.8 16.95" fill="#5b1b17" fill-rule="evenodd" stroke="none"/>
      <path d="M4.0 23.7 L4.1 23.8 3.45 25.1 3.15 25.55 2.55 25.55 4.0 23.7" fill="#5b1b17" fill-rule="evenodd" stroke="none"/>
      <path d="M8.2 15.1 L8.3 14.95 Q8.35 14.85 8.45 14.85 L8.65 14.95 8.7 15.1 8.7 16.35 8.65 16.55 8.45 16.6 8.3 16.55 8.2 16.35 8.2 15.1" fill="#5b1b17" fill-rule="evenodd" stroke="none"/>
      <path d="M6.85 21.45 L6.95 21.6 6.95 23.5 6.9 23.7 6.7 23.8 6.55 23.75 6.45 23.55 6.45 21.65 Q6.4 21.55 6.5 21.5 6.55 21.4 6.65 21.4 L6.85 21.45" fill="#5b1b17" fill-rule="evenodd" stroke="none"/>
      <path d="M21.65 11.95 Q20.25 13.15 19.2 12.2 18.4 11.25 18.15 10.15 L17.95 9.2 Q17.55 8.4 17.15 8.25 L16.6 7.85 Q17.25 7.8 17.75 8.1 18.65 8.45 18.7 9.25 18.9 10.5 19.55 11.8 20.0 12.2 21.0 11.8 L21.95 11.15 22.05 11.6 21.6 13.15 20.95 14.45 15.3 14.6 20.2 14.3 21.65 11.95" fill="#5b1b17" fill-rule="evenodd" stroke="none"/>
      <path d="M19.25 14.5 L19.3 14.65 19.3 16.5 19.3 16.7 19.1 16.75 18.95 16.7 18.8 16.5 18.8 14.65 18.9 14.5 19.05 14.4 19.25 14.5" fill="#5b1b17" fill-rule="evenodd" stroke="none"/>
      <path d="M21.35 21.0 L21.4 21.15 21.45 23.05 21.4 23.25 21.2 23.3 21.05 23.25 20.95 23.05 20.9 21.15 21.0 21.0 21.15 20.9 21.35 21.0" fill="#5b1b17" fill-rule="evenodd" stroke="none"/>
      <path d="M12.3 33.6 L20.95 33.35 Q25.9 32.95 27.45 31.2 28.65 29.8 28.65 28.8 28.6 26.2 24.6 26.05 L14.85 25.85 15.8 25.5 Q17.05 25.7 26.3 25.55 29.45 25.45 29.55 28.5 29.6 32.3 26.1 33.35 L17.8 34.1 9.75 33.7 Q8.05 32.85 7.0 27.85 6.65 25.95 6.95 25.7 8.35 25.4 7.9 26.05 8.6 33.4 12.3 33.6" fill="#5b1b17" fill-rule="evenodd" stroke="none"/>
      <path d="M9.4 33.05 L5.95 33.1 Q3.5 33.25 2.5 32.65 1.5 32.05 0.65 31.0 L-1.35 27.85 Q-2.45 25.75 -0.85 25.2 1.3 24.85 3.25 25.6 L0.15 25.75 Q-0.85 25.7 -0.85 26.4 L-0.4 27.85 Q0.25 30.0 1.6 31.15 2.9 32.3 4.95 32.3 L7.85 32.2 9.15 32.35 9.65 32.8 9.4 33.05" fill="#5b1b17" fill-rule="evenodd" stroke="none"/>
      <path d="M28.35 18.7 L27.5 19.0 Q28.0 18.55 26.55 17.3 25.05 16.05 23.5 16.25 L20.75 18.3 23.6 15.5 Q26.6 16.05 28.35 18.7" fill="#5b1b17" fill-rule="evenodd" stroke="none"/>
      <path d="M31.65 20.3 L32.2 21.5 Q33.1 24.0 32.25 26.35 L31.7 27.55 30.05 27.7 28.85 27.75 28.85 27.3 31.4 27.05 Q32.25 25.8 32.2 24.1 32.25 21.15 30.05 19.25 L29.5 18.85 Q27.15 19.3 25.15 20.95 L23.95 21.8 27.6 18.9 Q28.55 18.3 29.55 18.0 31.05 18.95 31.65 20.3" fill="#5b1b17" fill-rule="evenodd" stroke="none"/>
      <path d="M13.45 0.0 Q15.25 -0.1 17.85 1.6 20.45 3.25 19.85 4.6 18.45 2.85 16.45 1.75 14.45 0.6 12.3 0.85 10.1 1.05 8.15 1.95 9.0 0.95 10.35 0.5 L13.45 0.0" fill="#5b1b17" fill-rule="evenodd" stroke="none"/>
      <path d="M31.55 21.35 Q31.55 21.7 31.15 21.7 L30.4 21.05 Q29.75 20.4 28.7 20.4 28.1 20.4 24.4 22.4 L24.15 22.15 Q24.15 21.6 28.4 19.3 L29.0 18.95 29.75 18.9 30.5 19.7 31.55 21.35" fill="#ffcc00" fill-rule="evenodd" stroke="none"/>
      <path d="M25.5 17.6 L23.8 17.05 22.1 18.1 21.95 17.95 22.85 17.0 23.3 16.4 24.2 16.25 Q24.7 16.25 25.3 16.75 L25.8 17.35 25.5 17.6" fill="#ffcc00" fill-rule="evenodd" stroke="none"/>
      <path d="M21.9 12.15 L21.3 13.25 20.6 14.25 19.45 13.95 17.15 13.9 15.6 14.65 16.2 13.4 Q16.45 11.8 16.75 11.8 L19.65 12.3 21.25 11.85 Q21.9 11.6 21.9 12.15" fill="#c63f00" fill-rule="evenodd" stroke="none"/>
      <path d="M18.35 19.0 L19.0 19.2 19.6 19.2 21.05 19.05 23.25 19.1 23.55 18.7 Q23.7 18.3 23.95 18.3 24.25 18.3 24.25 18.75 L24.25 19.25 23.9 20.4 23.4 21.1 21.8 20.55 19.55 20.4 Q18.85 20.5 18.1 20.9 L17.3 21.15 17.45 20.7 18.2 19.3 18.0 18.95 18.35 19.0" fill="#c63f00" fill-rule="evenodd" stroke="none"/>
      <path d="M17.95 12.95 Q16.1 12.5 16.55 11.35 L17.8 11.6 19.95 11.65 22.05 11.1 Q19.65 13.35 17.95 12.95" fill="#fdff00" fill-rule="evenodd" stroke="none"/>
      <path d="M24.05 18.35 Q24.8 19.7 21.7 19.7 18.6 19.65 17.25 18.15 L22.2 18.7 24.05 18.35" fill="#fdff00" fill-rule="evenodd" stroke="none"/>
      <path d="M18.35 23.6 L23.95 23.65 25.65 25.6 22.85 25.5 21.85 24.15 18.35 23.6" fill="#fdff00" fill-rule="evenodd" stroke="none"/>
      <path d="M17.9 23.65 Q17.9 24.05 18.25 24.65 L18.6 25.4 17.85 25.5 16.8 25.4 Q16.5 25.35 16.55 23.6 L17.9 23.65" fill="#fdff00" fill-rule="evenodd" stroke="none"/>
    </g>
    <g id="sprite4">
      <use ffdec:characterId="7" height="6.15" transform="matrix(1.0, 0.0, 0.0, 1.0, 0.0, 0.0)" width="25.3" xlink:href="#shape3"/>
    </g>
    <g id="shape3">
      <path d="M19.2 1.85 L20.3 2.2 Q21.1 2.55 21.35 2.85 20.7 3.7 16.85 4.5 L10.0 5.2 6.0 4.8 Q4.8 4.4 4.75 3.35 3.5 3.35 3.25 2.45 3.5 2.05 4.25 2.05 L7.45 2.0 8.5 2.1 14.7 0.35 Q18.8 -0.75 19.2 1.85" fill="#f9f9f9" fill-rule="evenodd" stroke="none"/>
      <path d="M25.3 2.6 Q25.3 3.05 23.9 3.85 22.45 4.7 21.3 4.7 L20.15 4.9 Q19.65 4.9 19.65 4.65 L20.2 4.2 21.0 3.65 22.0 2.7 21.8 2.1 Q22.8 1.25 23.35 1.25 L24.2 1.45 25.05 1.8 25.3 2.6" fill="#ffffff" fill-rule="evenodd" stroke="none"/>
      <path d="M17.55 4.85 Q18.2 4.85 18.2 5.45 18.2 6.15 16.05 6.15 15.2 6.15 15.2 5.75 L15.25 5.45 Q15.25 5.2 17.55 4.85" fill="#ffffff" fill-rule="evenodd" stroke="none"/>
      <path d="M1.0 1.45 Q1.75 1.45 2.4 2.1 3.0 2.7 3.0 3.0 L2.9 3.45 2.3 3.65 Q1.75 3.65 0.85 3.05 L0.0 2.25 Q0.0 1.95 0.15 1.7 L0.35 1.5 0.6 1.45 1.0 1.45" fill="#ffffff" fill-rule="evenodd" stroke="none"/>
    </g>
    <g id="sprite5">
      <clipPath id="clipPath0">
        <path d="M 20.2 -3.05 L 19.61 -3.04 L 19.02 -3.02 L 18.43 -2.99 L 17.86 -2.94 L 17.28 -2.89 L 16.72 -2.81 L 16.16 -2.73 L 15.6 -2.63 L 15.05 -2.52 L 14.5 -2.39 L 13.97 -2.25 L 13.43 -2.1 L 12.9 -1.94 L 12.38 -1.76 L 11.86 -1.57 L 11.35 -1.36 L 10.84 -1.14 L 10.34 -0.91 L 9.85 -0.67 L 9.36 -0.41 L 8.87 -0.14 L 8.39 0.14 L 7.92 0.44 L 7.45 0.75 L 6.99 1.07 L 6.53 1.41 L 6.08 1.76 L 5.63 2.12 L 5.19 2.49 L 4.75 2.88 L 4.32 3.28 L 3.9 3.7 L 3.48 4.12 L 3.08 4.55 L 2.69 4.98 L 2.32 5.42 L 1.96 5.86 L 1.61 6.31 L 1.27 6.77 L 0.95 7.23 L 0.64 7.7 L 0.34 8.17 L 0.06 8.65 L -0.21 9.13 L -0.47 9.62 L -0.71 10.12 L -0.94 10.62 L -1.16 11.12 L -1.37 11.64 L -1.56 12.16 L -1.74 12.68 L -1.9 13.21 L -2.05 13.74 L -2.19 14.28 L -2.32 14.83 L -2.43 15.38 L -2.53 15.94 L -2.61 16.5 L -2.69 17.07 L -2.74 17.65 L -2.79 18.23 L -2.82 18.81 L -2.84 19.4 L -2.85 20 L -2.84 20.59 L -2.82 21.18 L -2.79 21.77 L -2.74 22.34 L -2.69 22.92 L -2.61 23.48 L -2.53 24.05 L -2.43 24.6 L -2.32 25.15 L -2.19 25.7 L -2.05 26.24 L -1.9 26.78 L -1.74 27.31 L -1.56 27.83 L -1.37 28.35 L -1.16 28.86 L -0.94 29.37 L -0.71 29.87 L -0.47 30.37 L -0.21 30.86 L 0.06 31.35 L 0.34 31.83 L 0.64 32.31 L 0.95 32.78 L 1.27 33.24 L 1.61 33.7 L 1.96 34.16 L 2.32 34.61 L 2.69 35.05 L 3.08 35.49 L 3.48 35.92 L 3.9 36.35 L 4.32 36.76 L 4.75 37.16 L 5.19 37.55 L 5.63 37.92 L 6.08 38.28 L 6.53 38.63 L 6.99 38.96 L 7.45 39.28 L 7.92 39.59 L 8.39 39.88 L 8.87 40.16 L 9.36 40.43 L 9.85 40.69 L 10.34 40.93 L 10.84 41.16 L 11.35 41.38 L 11.86 41.58 L 12.38 41.77 L 12.9 41.94 L 13.43 42.11 L 13.97 42.26 L 14.5 42.4 L 15.05 42.52 L 15.6 42.63 L 16.16 42.73 L 16.72 42.81 L 17.28 42.89 L 17.86 42.95 L 18.43 42.99 L 19.02 43.02 L 19.61 43.04 L 20.2 43.05 L 20.79 43.04 L 21.38 43.02 L 21.97 42.99 L 22.54 42.95 L 23.12 42.89 L 23.68 42.81 L 24.25 42.73 L 24.8 42.63 L 25.35 42.52 L 25.9 42.4 L 26.44 42.26 L 26.98 42.11 L 27.51 41.94 L 28.03 41.77 L 28.55 41.58 L 29.06 41.38 L 29.57 41.16 L 30.07 40.93 L 30.57 40.69 L 31.06 40.43 L 31.55 40.16 L 32.03 39.88 L 32.51 39.59 L 32.98 39.28 L 33.44 38.96 L 33.9 38.63 L 34.36 38.28 L 34.81 37.92 L 35.25 37.55 L 35.69 37.16 L 36.12 36.76 L 36.55 36.35 L 36.96 35.92 L 37.36 35.49 L 37.75 35.05 L 38.12 34.61 L 38.48 34.16 L 38.83 33.7 L 39.16 33.24 L 39.48 32.78 L 39.79 32.31 L 40.08 31.83 L 40.36 31.35 L 40.63 30.86 L 40.89 30.37 L 41.13 29.87 L 41.36 29.37 L 41.58 28.86 L 41.78 28.35 L 41.97 27.83 L 42.14 27.31 L 42.31 26.78 L 42.46 26.24 L 42.6 25.7 L 42.72 25.15 L 42.83 24.6 L 42.93 24.05 L 43.01 23.48 L 43.09 22.92 L 43.15 22.34 L 43.19 21.77 L 43.22 21.18 L 43.24 20.59 L 43.25 20 L 43.24 19.4 L 43.22 18.81 L 43.19 18.23 L 43.15 17.65 L 43.09 17.07 L 43.01 16.5 L 42.93 15.94 L 42.83 15.38 L 42.72 14.83 L 42.6 14.28 L 42.46 13.74 L 42.31 13.21 L 42.14 12.68 L 41.97 12.16 L 41.78 11.64 L 41.58 11.12 L 41.36 10.62 L 41.13 10.12 L 40.89 9.62 L 40.63 9.13 L 40.36 8.65 L 40.08 8.17 L 39.79 7.7 L 39.48 7.23 L 39.16 6.77 L 38.83 6.31 L 38.48 5.86 L 38.12 5.42 L 37.75 4.98 L 37.36 4.55 L 36.96 4.12 L 36.55 3.7 L 36.12 3.28 L 35.69 2.88 L 35.25 2.49 L 34.81 2.12 L 34.36 1.76 L 33.9 1.41 L 33.44 1.07 L 32.98 0.75 L 32.51 0.44 L 32.03 0.14 L 31.55 -0.14 L 31.06 -0.41 L 30.57 -0.67 L 30.07 -0.91 L 29.57 -1.14 L 29.06 -1.36 L 28.55 -1.57 L 28.03 -1.76 L 27.51 -1.94 L 26.98 -2.1 L 26.44 -2.25 L 25.9 -2.39 L 25.35 -2.52 L 24.8 -2.63 L 24.25 -2.73 L 23.68 -2.81 L 23.12 -2.89 L 22.54 -2.94 L 21.97 -2.99 L 21.38 -3.02 L 20.79 -3.04 L 20.2 -3.05 Z"/>
      </clipPath>
      <g clip-path="url(#clipPath0)">
        <use ffdec:characterId="10" height="33.35" transform="matrix(1.0, 0.0, 0.0, 1.0, 0.0, 0.0)" width="36.55" xlink:href="#shape4"/>
        <use ffdec:characterId="11" height="6.8" transform="matrix(1.0, 0.0, 0.0, 1.0, 0.0, 0.0)" width="2.9" xlink:href="#shape5"/>
      </g>
    </g>
    <g id="shape4">
      <path d="M8.6 6.15 L8.35 6.7 7.8 6.95 7.2 6.7 7.0 6.15 7.2 5.55 7.8 5.35 8.35 5.55 8.6 6.15" fill="#ffffff" fill-rule="evenodd" stroke="none"/>
      <path d="M36.6 15.05 L36.35 15.6 Q36.15 15.85 35.8 15.85 L35.2 15.6 35.0 15.05 35.2 14.45 Q35.45 14.25 35.8 14.25 L36.35 14.45 36.6 15.05" fill="#ffffff" fill-rule="evenodd" stroke="none"/>
      <path d="M34.6 20.25 L34.35 20.75 33.85 21.0 33.3 20.75 33.1 20.25 33.3 19.7 33.85 19.5 34.35 19.7 34.6 20.25" fill="#ffffff" fill-rule="evenodd" stroke="none"/>
      <path d="M28.5 14.25 L28.25 14.75 27.75 15.0 27.2 14.75 27.0 14.25 27.2 13.7 Q27.45 13.5 27.75 13.5 L28.25 13.7 28.5 14.25" fill="#ffffff" fill-rule="evenodd" stroke="none"/>
      <path d="M6.25 22.6 L6.0 23.1 5.5 23.35 4.95 23.1 4.75 22.6 4.95 22.05 5.5 21.85 6.0 22.05 6.25 22.6" fill="#ffffff" fill-rule="evenodd" stroke="none"/>
      <path d="M33.6 32.05 L33.85 32.6 33.6 33.1 33.1 33.35 32.55 33.1 32.35 32.6 32.55 32.05 33.1 31.85 33.6 32.05" fill="#ffffff" fill-rule="evenodd" stroke="none"/>
      <path d="M14.55 23.7 L14.35 24.15 13.9 24.35 Q13.65 24.35 13.45 24.15 L13.25 23.7 13.45 23.25 Q13.65 23.05 13.9 23.05 L14.35 23.25 14.55 23.7" fill="#ffffff" fill-rule="evenodd" stroke="none"/>
      <path d="M34.1 27.75 L33.85 28.25 33.35 28.5 32.8 28.25 32.6 27.75 32.8 27.2 Q33.05 27.0 33.35 27.0 L33.85 27.2 34.1 27.75" fill="#ffffff" fill-rule="evenodd" stroke="none"/>
      <path d="M38.15 9.2 L38.0 9.45 37.75 9.6 37.45 9.45 37.35 9.2 37.45 8.9 37.75 8.8 38.0 8.9 38.15 9.2" fill="#ffffff" fill-rule="evenodd" stroke="none"/>
      <path d="M27.85 9.6 L27.7 9.95 27.35 10.1 27.0 9.95 26.85 9.6 27.0 9.25 27.35 9.1 Q27.55 9.1 27.7 9.25 L27.85 9.6" fill="#ffffff" fill-rule="evenodd" stroke="none"/>
      <path d="M17.25 0.7 L17.05 1.2 16.55 1.4 Q16.25 1.4 16.05 1.2 L15.85 0.7 16.05 0.2 16.55 0.0 17.05 0.2 17.25 0.7" fill="#ffffff" fill-rule="evenodd" stroke="none"/>
      <path d="M11.35 13.65 L11.2 14.05 10.8 14.2 10.4 14.05 10.25 13.65 Q10.25 13.4 10.4 13.25 10.55 13.1 10.8 13.1 L11.2 13.25 11.35 13.65" fill="#ffffff" fill-rule="evenodd" stroke="none"/>
      <path d="M7.75 14.55 L7.6 14.85 7.3 15.0 6.95 14.85 6.85 14.55 6.95 14.2 7.3 14.1 7.6 14.2 7.75 14.55" fill="#ffffff" fill-rule="evenodd" stroke="none"/>
      <path d="M15.6 10.25 L15.5 10.4 15.35 10.5 15.15 10.4 15.1 10.25 15.15 10.05 15.35 10.0 15.5 10.05 15.6 10.25" fill="#ffffff" fill-rule="evenodd" stroke="none"/>
      <path d="M5.25 10.5 L5.1 10.85 4.75 11.0 4.4 10.85 4.25 10.5 4.4 10.15 Q4.55 10.0 4.75 10.0 L5.1 10.15 5.25 10.5" fill="#ffffff" fill-rule="evenodd" stroke="none"/>
      <path d="M14.5 20.85 L14.25 21.35 13.75 21.6 13.2 21.35 13.0 20.85 13.2 20.3 13.75 20.1 14.25 20.3 14.5 20.85" fill="#ffffff" fill-rule="evenodd" stroke="none"/>
      <path d="M39.75 22.85 L39.6 23.2 39.25 23.35 38.9 23.2 38.75 22.85 38.9 22.5 39.25 22.35 39.6 22.5 39.75 22.85" fill="#ffffff" fill-rule="evenodd" stroke="none"/>
      <path d="M40.8 17.4 L40.6 17.8 40.2 18.0 39.75 17.8 39.6 17.4 Q39.6 17.15 39.75 16.95 39.95 16.8 40.2 16.8 L40.6 16.95 40.8 17.4" fill="#ffffff" fill-rule="evenodd" stroke="none"/>
      <path d="M7.0 28.8 L6.75 29.35 6.2 29.6 Q5.85 29.6 5.6 29.35 L5.4 28.8 5.6 28.2 6.2 28.0 6.75 28.2 7.0 28.8" fill="#ffffff" fill-rule="evenodd" stroke="none"/>
    </g>
    <g id="shape5">
      <path d="M25.8 -0.3 L26.25 -0.8 26.8 -0.85 27.25 -0.45 27.25 0.15 26.9 0.55 26.35 0.6 25.9 0.2 25.8 -0.3" fill="#ffffff" fill-rule="evenodd" stroke="none"/>
      <path d="M27.15 4.9 L27.5 4.4 28.1 4.35 28.6 4.75 28.65 5.35 28.25 5.85 27.65 5.9 27.15 5.5 Q27.0 5.25 27.15 4.9" fill="#ffffff" fill-rule="evenodd" stroke="none"/>
    </g>
    <g id="sprite6">
      <use ffdec:characterId="36" height="43.85" transform="matrix(1.0, 0.0, 0.0, 1.0, 0.0, 0.0)" width="45.45" xlink:href="#shape6"/>
    </g>
    <g id="shape6">
      <path d="M28.7 43.05 Q22.0 44.8 15.5 42.6 8.95 40.4 4.65 34.95 0.3 29.55 0.05 23.1 -0.25 16.6 1.35 13.65 -0.25 18.7 1.35 25.3 2.95 31.75 7.65 35.2 12.3 38.65 18.3 38.85 L30.05 38.35 Q35.8 37.55 39.55 33.85 43.3 30.1 45.45 23.65 44.75 30.4 40.1 35.8 35.4 41.2 28.7 43.05" fill="#dce3eb" fill-rule="evenodd" stroke="none"/>
      <path d="M36.55 6.75 Q36.0 7.95 33.85 8.05 31.65 8.1 29.1 7.0 26.5 5.85 25.1 4.2 23.65 2.5 24.2 1.3 24.75 0.05 26.95 0.0 29.1 -0.1 31.7 1.05 34.25 2.15 35.7 3.85 37.1 5.5 36.55 6.75" fill="#f7faff" fill-rule="evenodd" stroke="none"/>
    </g>
    <g id="sprite7">
      <use ffdec:characterId="38" height="10.85" transform="matrix(1.0, 0.0, 0.0, 1.0, 0.0, 0.0)" width="36.0" xlink:href="#shape7"/>
    </g>
    <g id="shape7">
      <path d="M34.95 4.25 L34.7 6.45 Q18.15 13.0 1.55 6.45 L1.15 4.1 Q17.65 11.3 34.95 4.25" fill="#ed6200" fill-rule="evenodd" stroke="none"/>
      <path d="M1.15 4.1 L1.15 3.9 2.3 1.15 Q18.25 7.3 33.95 1.15 L35.0 4.05 34.95 4.25 Q17.65 11.3 1.15 4.1" fill="#ffcc00" fill-rule="evenodd" stroke="none"/>
      <path d="M0.05 3.95 L0.1 3.65 1.55 0.25 1.85 0.0 2.25 0.0 Q18.25 6.35 34.1 0.0 L34.35 -0.05 34.6 0.1 34.75 0.3 36.05 3.85 36.05 4.1 35.7 6.9 35.6 7.1 35.4 7.35 Q18.15 14.25 0.95 7.35 L0.7 7.15 0.6 6.9 0.05 3.95 M1.15 4.1 L1.55 6.45 Q18.15 13.0 34.7 6.45 L34.95 4.25 35.0 4.05 33.95 1.15 Q18.25 7.3 2.3 1.15 L1.15 3.9 1.15 4.1" fill="#5b1b17" fill-rule="evenodd" stroke="none"/>
      <path d="M33.15 1.45 L33.5 1.45 33.8 1.75 33.75 2.15 33.5 2.45 Q18.7 8.35 2.5 2.45 L2.2 2.15 2.2 1.75 2.45 1.45 2.85 1.45 Q18.7 7.2 33.15 1.45" fill="#fdff00" fill-rule="evenodd" stroke="none"/>
      <path d="M29.55 3.4 L32.4 5.05 24.8 7.1 22.5 5.1 29.55 3.4" fill="#fdff00" fill-rule="evenodd" stroke="none"/>
      <path d="M19.35 4.45 L20.15 4.95 20.95 7.6 18.35 7.75 17.95 7.35 17.5 4.9 18.15 4.65 19.35 4.45" fill="#fdff00" fill-rule="evenodd" stroke="none"/>
      <path d="M18.1 9.7 L18.05 8.15 21.15 8.05 20.85 9.6 18.1 9.7" fill="#ff9100" fill-rule="evenodd" stroke="none"/>
      <path d="M31.95 7.25 Q30.1 8.1 27.95 8.55 L24.35 9.15 24.65 7.55 30.0 6.4 32.6 5.6 31.95 7.25" fill="#ff9100" fill-rule="evenodd" stroke="none"/>
      <path d="M5.3 3.65 L9.35 4.8 8.6 5.85 8.4 6.35 4.3 5.1 5.3 3.65" fill="#ffffff" fill-rule="evenodd" stroke="none"/>
      <path d="M6.25 7.9 Q4.7 7.6 4.6 7.1 L4.5 5.7 8.3 6.95 8.3 8.4 6.25 7.9" fill="#ff9100" fill-rule="evenodd" stroke="none"/>
    </g>
  </defs>
</svg>
