<?xml version="1.0" encoding="UTF-8" standalone="no"?>
<svg xmlns:ffdec="https://www.free-decompiler.com/flash" xmlns:xlink="http://www.w3.org/1999/xlink" ffdec:objectType="frame" height="37.8px" width="34.5px" xmlns="http://www.w3.org/2000/svg">
  <g transform="matrix(1.0, 0.0, 0.0, 1.0, 18.5, 61.65)">
    <use ffdec:characterId="20" height="55.6" transform="matrix(0.6797, 0.0, 0.0, 0.6797, -13.5, -56.0)" width="50.85" xlink:href="#sprite0"/>
  </g>
  <defs>
    <g id="sprite0">
      <use ffdec:characterId="19" height="38.95" transform="matrix(1.0, 0.0, 0.0, 1.0, 0.0, 0.0)" width="50.85" xlink:href="#shape0"/>
      <filter color-interpolation-filters="sRGB" height="300%" id="filter1" width="300%" x="-100%" y="-100%">
        <feOffset dx="0.0" dy="0.0" in="SourceGraphic" result="filterResult1"/>
        <feColorMatrix in="filterResult1" result="filterResult2" type="matrix" values="0 0 0 0 1.0,0 0 0 0 0.0,0 0 0 0 0.0,0 0 0 1.0 0"/>
        <feGaussianBlur in="filterResult2" result="filterResult3" stdDeviation="1.118033988749895 1.118033988749895"/>
        <feComposite in="SourceGraphic" in2="filterResult3" operator="over" result="filterResult4"/>
      </filter>
      <use ffdec:characterId="12" filter="url(#filter1)" height="23.3" transform="matrix(1.0, 0.0, 0.0, 1.0, 28.15, 4.55)" width="11.35" xlink:href="#sprite1"/>
      <filter color-interpolation-filters="sRGB" height="300%" id="filter3" width="300%" x="-100%" y="-100%">
        <feOffset dx="0.0" dy="0.0" in="SourceGraphic" result="filterResult6"/>
        <feColorMatrix in="filterResult6" result="filterResult7" type="matrix" values="0 0 0 0 1.0,0 0 0 0 0.0,0 0 0 0 0.0,0 0 0 1.0 0"/>
        <feGaussianBlur in="filterResult7" result="filterResult8" stdDeviation="1.118033988749895 1.118033988749895"/>
        <feComposite in="SourceGraphic" in2="filterResult8" operator="over" result="filterResult9"/>
      </filter>
      <use ffdec:characterId="16" filter="url(#filter3)" height="22.3" transform="matrix(1.0, 0.0, 0.0, 1.0, 4.7, 4.55)" width="10.85" xlink:href="#sprite3"/>
    </g>
    <g id="shape0">
      <path d="M33.7 33.95 L34.6 32.2 34.2 31.15 33.65 30.3 Q32.55 29.0 30.95 29.0 29.25 29.0 28.15 30.25 27.5 30.95 27.25 32.0 L27.4 32.5 27.4 32.4 Q27.85 33.6 28.85 34.4 29.6 34.95 30.45 35.1 L31.05 35.15 Q32.65 35.15 33.7 33.95 M10.0 10.5 L10.0 43.2 8.15 43.2 8.15 46.25 4.0 46.25 4.0 43.2 1.95 43.2 1.95 24.1 Q0.0 25.6 -1.8 26.5 -3.65 27.45 -6.4 28.3 L-6.4 18.15 Q-2.35 16.85 -0.1 15.0 2.15 13.15 3.45 10.5 L10.0 10.5 M33.15 20.5 L33.3 20.5 32.7 19.65 Q32.0 18.95 30.9 18.95 28.95 18.95 27.9 20.9 27.55 21.55 27.3 22.85 28.45 21.75 29.7 21.2 31.2 20.5 33.15 20.5 M42.4 29.55 Q42.55 31.7 42.25 33.35 L42.25 33.75 Q42.25 36.6 40.95 38.95 39.6 41.3 37.25 42.5 35.55 43.35 33.3 43.6 L33.3 46.25 29.15 46.25 29.15 43.6 Q26.3 43.3 24.4 42.2 22.25 41.0 20.85 38.65 L20.25 37.55 Q18.7 34.35 18.7 29.05 L18.75 27.25 18.7 25.45 18.75 24.3 18.75 23.5 18.95 21.5 19.2 20.15 Q19.6 18.0 20.45 16.35 21.0 15.2 21.8 14.3 L21.9 14.2 21.95 14.1 22.65 13.4 Q25.8 10.5 31.0 10.5 L35.05 10.9 36.4 11.3 Q37.0 11.5 37.5 11.85 L39.7 13.6 Q41.0 15.1 41.65 17.4 L41.6 20.75 41.65 21.0 37.65 21.5 Q38.65 22.05 39.55 22.9 L40.45 23.9 40.45 23.85 Q41.9 25.95 41.95 26.85 L42.05 27.15 42.4 29.55" fill="#000000" fill-rule="evenodd" stroke="none"/>
      <path d="M42.4 29.55 L42.05 27.15 41.95 26.85 Q41.9 25.95 40.45 23.85 L40.45 23.9 39.55 22.9 Q38.65 22.05 37.65 21.5 L41.65 21.0 41.6 20.75 41.65 17.4 Q41.0 15.1 39.7 13.6 L37.5 11.85 Q37.0 11.5 36.4 11.3 L35.05 10.9 31.0 10.5 Q25.8 10.5 22.65 13.4 L21.95 14.1 21.9 14.2 21.8 14.3 Q21.0 15.2 20.45 16.35 19.6 18.0 19.2 20.15 L18.95 21.5 18.75 23.5 18.75 24.3 18.7 25.45 18.75 27.25 18.7 29.05 Q18.7 34.35 20.25 37.55 L20.85 38.65 Q22.25 41.0 24.4 42.2 26.3 43.3 29.15 43.6 L29.15 46.25 33.3 46.25 33.3 43.6 Q35.55 43.35 37.25 42.5 39.6 41.3 40.95 38.95 42.25 36.6 42.25 33.75 L42.25 33.35 Q42.55 31.7 42.4 29.55 M33.15 20.5 Q31.2 20.5 29.7 21.2 28.45 21.75 27.3 22.85 27.55 21.55 27.9 20.9 28.95 18.95 30.9 18.95 32.0 18.95 32.7 19.65 L33.3 20.5 33.15 20.5 M10.0 10.5 L3.45 10.5 Q2.15 13.15 -0.1 15.0 -2.35 16.85 -6.4 18.15 L-6.4 28.3 Q-3.65 27.45 -1.8 26.5 0.0 25.6 1.95 24.1 L1.95 43.2 4.0 43.2 4.0 46.25 8.15 46.25 8.15 43.2 10.0 43.2 10.0 10.5 M33.7 33.95 Q32.65 35.15 31.05 35.15 L30.45 35.1 Q29.6 34.95 28.85 34.4 27.85 33.6 27.4 32.4 L27.4 32.5 27.25 32.0 Q27.5 30.95 28.15 30.25 29.25 29.0 30.95 29.0 32.55 29.0 33.65 30.3 L34.2 31.15 34.6 32.2 33.7 33.95 Z" fill="none" stroke="#000000" stroke-linecap="round" stroke-linejoin="round" stroke-width="2.0"/>
      <path d="M1.95 27.15 L3.5 27.15 3.5 10.5 10.0 10.5 10.0 39.6 1.95 39.6 1.95 27.15" fill="#e122c3" fill-rule="evenodd" stroke="none"/>
      <path d="M3.5 10.5 L3.5 27.15 1.95 27.15 1.95 20.5 Q0.0 22.0 -1.8 22.9 -3.65 23.85 -6.4 24.7 L-6.4 18.15 Q-2.35 16.85 -0.1 15.0 2.15 13.15 3.45 10.5 L3.5 10.5" fill="#bd02a0" fill-rule="evenodd" stroke="none"/>
      <path d="M37.5 21.45 Q38.6 22.0 39.55 22.9 41.35 24.55 42.05 27.15 L42.4 29.55 Q42.7 33.75 41.25 35.9 39.85 37.9 37.5 39.0 L37.5 21.45 M22.65 37.35 Q21.25 36.0 20.25 33.95 18.7 30.75 18.7 25.45 18.7 17.7 21.95 14.1 L22.65 13.4 22.65 37.35 M37.5 11.85 L39.7 13.6 Q41.0 15.1 41.65 17.4 L41.6 20.75 37.5 18.7 37.5 11.85" fill="#c7d6d8" fill-rule="evenodd" stroke="none"/>
      <path d="M37.5 21.45 L37.5 39.0 37.35 39.05 Q34.85 40.1 31.3 40.1 27.0 40.1 24.4 38.6 L23.15 37.75 22.65 37.35 22.65 13.4 Q25.8 10.5 31.0 10.5 34.4 10.5 36.4 11.3 37.0 11.5 37.5 11.85 L37.5 18.7 Q33.25 16.55 32.7 16.05 32.0 15.35 30.9 15.35 28.95 15.35 27.9 17.3 27.1 18.7 26.75 23.35 28.15 21.9 29.7 21.2 31.2 20.5 33.15 20.5 35.6 20.5 37.5 21.45 M28.15 26.65 Q27.0 27.9 27.0 30.15 27.0 32.5 28.2 33.8 L28.9 34.45 Q29.85 35.15 31.05 35.15 32.65 35.15 33.7 33.95 34.6 32.95 34.75 31.1 L34.75 30.4 Q34.75 27.95 33.65 26.7 32.55 25.4 30.95 25.4 29.25 25.4 28.15 26.65" fill="#ffffff" fill-rule="evenodd" stroke="none"/>
      <path d="M37.5 29.3 L37.5 39.0 37.35 39.05 Q34.85 40.1 31.3 40.1 27.0 40.1 24.4 38.6 L23.15 37.75 23.0 37.65 23.15 37.55 23.5 37.15 23.9 37.05 26.4 35.55 27.0 34.9 27.4 32.4 Q27.85 33.6 28.85 34.4 29.85 35.15 31.05 35.15 32.65 35.15 33.7 33.95 34.6 32.95 34.75 31.1 L34.75 30.85 34.9 30.65 35.4 30.55 37.5 29.3" fill="#3bce22" fill-rule="evenodd" stroke="none"/>
      <path d="M37.5 29.3 L37.9 29.05 40.25 27.5 40.45 23.85 Q41.9 25.95 41.95 26.85 L42.05 27.15 42.4 29.55 Q42.7 33.75 41.25 35.9 39.85 37.9 37.5 39.0 L37.5 29.3" fill="#38c421" fill-rule="evenodd" stroke="none"/>
      <path d="M4.0 42.65 L8.15 42.65 8.15 46.25 4.0 46.25 4.0 42.65" fill="#237a15" fill-rule="evenodd" stroke="none"/>
      <path d="M1.95 28.0 L1.95 24.1 Q0.0 25.6 -1.8 26.5 -3.65 27.45 -6.4 28.3 L-6.4 21.75 Q-2.35 20.45 -0.1 18.6 2.15 16.75 3.45 14.1 L10.0 14.1 10.0 21.85 4.2 26.3 1.95 28.0" fill="#9c0083" fill-rule="evenodd" stroke="none"/>
      <path d="M10.0 31.55 L10.0 43.2 1.95 43.2 1.95 37.4 4.6 35.55 10.0 31.55" fill="#30a61c" fill-rule="evenodd" stroke="none"/>
      <path d="M1.95 28.0 L4.2 26.3 10.0 21.85 10.0 31.55 4.6 35.55 1.95 37.4 1.95 28.0" fill="#d6eaec" fill-rule="evenodd" stroke="none"/>
      <path d="M22.65 13.4 Q25.8 10.5 31.0 10.5 L35.05 10.9 35.05 14.4 33.0 15.65 32.55 15.9 Q31.9 15.35 30.9 15.35 28.95 15.35 27.9 17.3 27.6 17.85 27.35 19.0 L26.35 19.55 22.65 21.85 22.65 13.4" fill="#e122c3" fill-rule="evenodd" stroke="none"/>
      <path d="M22.65 13.4 L22.65 21.85 19.6 23.75 18.95 24.6 19.0 24.5 19.0 24.45 19.05 20.9 Q19.75 16.55 21.95 14.1 L22.65 13.4" fill="#bd02a0" fill-rule="evenodd" stroke="none"/>
      <path d="M19.0 24.45 Q18.95 24.15 18.75 24.3 L19.05 20.9 19.0 24.45" fill="#c7d6d8" fill-rule="evenodd" stroke="none"/>
      <path d="M29.15 42.65 L33.3 42.65 33.3 46.25 29.15 46.25 29.15 42.65" fill="#237a15" fill-rule="evenodd" stroke="none"/>
      <path d="M19.0 24.6 Q19.75 20.15 21.95 17.7 25.2 14.1 31.0 14.1 L34.9 14.45 33.3 15.5 33.25 15.4 33.25 15.5 33.15 15.55 31.9 16.3 31.45 16.55 27.0 19.05 20.75 23.05 20.6 23.25 19.25 24.55 19.0 24.6" fill="#9c0083" fill-rule="evenodd" stroke="none"/>
      <path d="M40.35 27.65 Q42.25 30.15 42.25 33.75 42.25 36.6 40.95 38.95 39.6 41.3 37.25 42.5 34.85 43.7 31.3 43.7 27.0 43.7 24.4 42.2 22.25 41.0 20.85 38.65 L22.55 37.65 Q24.8 36.3 27.1 35.05 27.35 36.5 28.2 37.4 29.35 38.75 31.05 38.75 32.65 38.75 33.7 37.55 34.75 36.35 34.75 34.0 34.75 32.25 34.2 31.15 L35.3 30.5 40.35 27.65" fill="#30a61c" fill-rule="evenodd" stroke="none"/>
      <path d="M40.35 27.65 L35.3 30.5 34.2 31.15 33.65 30.3 Q32.55 29.0 30.95 29.0 29.25 29.0 28.15 30.25 27.0 31.5 27.0 33.75 L27.1 35.05 Q24.8 36.3 22.55 37.65 L20.85 38.65 20.25 37.55 Q18.7 34.35 18.7 29.05 18.7 26.75 19.0 24.85 L19.0 24.65 19.0 24.6 19.25 24.55 20.6 23.25 20.75 23.05 27.0 19.05 31.45 16.55 31.9 16.3 33.15 15.55 33.25 15.5 33.25 15.4 33.3 15.5 34.9 14.45 36.4 14.9 Q38.35 15.65 39.7 17.2 41.0 18.7 41.65 21.0 L33.75 22.0 Q33.45 20.35 32.7 19.65 32.0 18.95 30.9 18.95 28.95 18.95 27.9 20.9 27.1 22.3 26.75 26.95 28.15 25.5 29.7 24.8 31.2 24.1 33.15 24.1 37.0 24.1 39.65 26.85 L40.35 27.65" fill="#d7eaed" fill-rule="evenodd" stroke="none"/>
      <path d="M29.5 12.4 Q29.3 12.15 29.4 11.3 L29.55 9.85 29.55 9.15 Q29.65 8.75 29.95 8.6 30.3 8.35 30.6 8.75 L30.65 9.1 30.7 11.45 Q30.7 12.25 30.4 12.5 L29.95 12.6 29.5 12.4" fill="#9c0083" fill-rule="evenodd" stroke="none"/>
      <path d="M7.1 8.35 L7.35 9.05 7.35 11.45 7.3 11.9 7.0 12.15 Q6.7 12.15 6.6 11.9 L6.55 11.4 6.55 8.85 6.65 8.45 7.1 8.35" fill="#9c0083" fill-rule="evenodd" stroke="none"/>
    </g>
    <g id="sprite1">
      <filter color-interpolation-filters="sRGB" height="300%" id="filter0" width="300%" x="-100%" y="-100%">
        <feGaussianBlur in="SourceGraphic" result="filterResult0" stdDeviation="1.118033988749895 1.118033988749895"/>
      </filter>
      <use ffdec:characterId="3" filter="url(#filter0)" height="2.5" transform="matrix(1.7119, 0.0, 0.0, 1.72, -2.4, 6.15)" width="5.9" xlink:href="#sprite2"/>
      <use ffdec:characterId="4" height="15.65" transform="matrix(1.0, 0.0, 0.0, 1.0, 0.0, 0.0)" width="7.55" xlink:href="#shape2"/>
    </g>
    <g id="sprite2">
      <use ffdec:characterId="2" height="2.5" transform="matrix(1.0, 0.0, 0.0, 1.0, 0.0, 0.0)" width="5.9" xlink:href="#shape1"/>
    </g>
    <g id="shape1">
      <path d="M5.9 1.25 Q5.9 1.75 5.0 2.1 L2.95 2.5 0.85 2.1 Q0.0 1.75 0.0 1.25 0.0 0.75 0.85 0.35 L2.95 0.0 Q4.15 0.0 5.0 0.35 5.9 0.75 5.9 1.25" fill="#ffce00" fill-opacity="0.49803922" fill-rule="evenodd" stroke="none"/>
    </g>
    <g id="shape2">
      <path d="M5.65 1.25 Q6.1 2.15 6.0 2.95 L5.65 3.75 5.05 4.3 4.3 4.5 3.55 4.65 Q3.15 4.75 2.85 5.05 L2.35 5.65 2.15 5.9 1.85 5.6 0.8 4.35 -0.35 3.6 -1.3 2.7 Q-1.7 2.0 -1.45 1.05 L-0.65 -0.4 -0.3 -0.95 -0.05 -1.55 -0.05 -1.85 0.0 -2.15 0.15 -2.4 0.4 -2.65 0.7 -3.55 0.85 -3.85 1.0 -3.75 1.05 -3.65 1.05 -3.35 1.0 -3.1 1.15 -2.85 Q1.25 -2.75 1.35 -2.75 L1.55 -2.9 Q1.85 -3.3 1.8 -3.75 L1.8 -4.15 1.8 -4.5 2.0 -4.75 2.2 -4.95 2.5 -5.6 2.5 -6.3 2.4 -6.9 2.0 -7.3 1.6 -7.1 Q1.4 -6.95 1.35 -6.65 L1.35 -6.15 1.35 -5.65 1.2 -5.4 0.95 -5.45 Q0.45 -5.85 0.35 -6.75 L0.45 -7.4 Q0.55 -7.75 0.8 -7.85 L1.05 -7.95 1.25 -8.05 1.35 -8.3 1.4 -8.55 1.7 -9.15 Q1.95 -9.45 2.3 -9.5 L2.95 -9.35 3.3 -8.75 3.2 -8.15 Q3.15 -7.7 3.35 -7.55 L3.55 -7.5 3.75 -7.45 4.05 -6.7 3.95 -5.95 3.75 -5.45 3.5 -4.95 3.6 -4.25 4.1 -3.65 4.6 -2.55 4.8 -1.35 4.85 0.05 4.75 0.35 4.55 0.4 4.35 0.4 Q4.15 0.4 4.0 0.6 3.85 0.8 3.85 1.05 L3.95 1.5 4.15 1.9 Q4.35 2.25 4.55 2.25 L4.9 2.05 5.25 1.4 5.35 1.2 5.55 1.15 5.65 1.25" fill="#ff0000" fill-rule="evenodd" stroke="none"/>
      <path d="M0.35 3.5 Q-0.6 1.4 1.15 -0.2 2.9 -1.8 2.65 -4.05 3.8 -2.1 2.75 -1.35 1.55 0.0 2.8 0.8 4.0 1.6 3.65 3.1 L2.2 6.15 1.95 5.8 1.75 5.25 1.7 4.95 0.35 3.5" fill="#ff7700" fill-rule="evenodd" stroke="none"/>
      <path d="M1.45 4.0 L0.9 3.4 Q0.25 2.85 0.8 2.15 L1.65 1.2 Q3.15 2.05 2.8 4.0 L2.1 5.6 Q2.0 4.7 1.45 4.0" fill="#f2ff00" fill-rule="evenodd" stroke="none"/>
    </g>
    <g id="sprite3">
      <filter color-interpolation-filters="sRGB" height="300%" id="filter2" width="300%" x="-100%" y="-100%">
        <feGaussianBlur in="SourceGraphic" result="filterResult5" stdDeviation="1.118033988749895 1.118033988749895"/>
      </filter>
      <use ffdec:characterId="3" filter="url(#filter2)" height="2.5" transform="matrix(1.1025, 0.0, 0.0, 1.72, -1.0, 5.15)" width="5.9" xlink:href="#sprite2"/>
      <use ffdec:characterId="13" height="18.55" transform="matrix(1.0, 0.0, 0.0, 1.0, 0.0, 0.0)" width="9.35" xlink:href="#shape3"/>
    </g>
    <g id="shape3">
      <path d="M-1.8 -0.85 L-2.45 -1.5 -2.75 -2.3 -2.6 -4.05 Q-2.3 -5.15 -1.7 -5.75 L-0.85 -6.25 0.1 -6.3 0.25 -6.25 0.2 -6.1 0.1 -5.9 Q0.05 -5.8 0.15 -5.65 L0.3 -5.45 0.6 -5.3 0.9 -5.25 1.3 -4.9 Q1.3 -5.35 1.65 -5.7 L2.5 -5.9 2.9 -7.25 3.05 -7.45 3.25 -7.3 3.6 -6.6 4.05 -6.1 4.45 -5.95 4.75 -5.7 4.8 -5.2 4.75 -4.35 4.6 -4.0 Q4.45 -3.95 4.35 -4.1 L4.15 -4.35 3.9 -4.9 3.35 -5.2 3.05 -5.0 2.9 -4.7 2.9 -4.0 2.85 -3.7 2.75 -3.7 2.65 -3.8 2.55 -4.05 2.25 -4.2 1.9 -4.05 1.7 -3.35 Q1.75 -2.7 2.0 -2.4 L2.45 -2.1 2.95 -2.05 3.45 -2.5 3.75 -3.6 3.8 -3.9 4.0 -4.05 Q4.15 -3.6 4.75 -3.2 L5.7 -2.5 6.35 -1.6 6.55 -0.55 6.25 0.55 5.55 1.35 4.85 1.75 4.15 2.2 Q3.65 2.55 3.45 3.2 3.2 3.8 3.25 4.45 L3.3 4.9 3.15 5.3 2.85 5.45 2.55 5.55 1.85 5.6 1.2 5.55 0.3 5.1 -0.85 4.2 -1.45 2.9 -1.2 1.7 -0.85 0.55 Q-0.7 0.05 -0.9 -0.25 L-1.3 -0.6 -1.8 -0.85" fill="#ff0000" fill-rule="evenodd" stroke="none"/>
      <path d="M-0.3 -9.4 L-0.35 -9.7 -0.35 -10.2 -0.2 -10.65 0.0 -10.65 0.15 -10.5 0.35 -9.9 -0.2 -9.4 -0.25 -9.2 -0.3 -9.4" fill="#ff0000" fill-rule="evenodd" stroke="none"/>
      <path d="M1.7 -12.85 L1.9 -12.55 2.2 -11.5 2.4 -11.75 2.6 -11.9 2.85 -11.55 3.0 -10.75 2.95 -10.15 2.85 -10.15 2.4 -11.1 2.25 -11.1 2.2 -10.95 2.0 -10.95 1.8 -11.65 1.7 -11.8 1.5 -11.85 1.35 -11.65 1.35 -11.4 1.3 -11.4 1.25 -11.45 1.15 -11.4 Q1.05 -11.7 1.1 -12.05 L1.3 -12.65 Q1.5 -12.95 1.7 -12.85" fill="#ff0000" fill-rule="evenodd" stroke="none"/>
      <path d="M4.0 1.05 L2.85 2.2 Q1.6 4.45 2.65 5.6 1.0 5.75 0.1 4.25 -0.85 2.75 0.65 0.3 -0.8 -0.65 -0.4 -1.75 -0.05 -2.9 -1.55 -3.45 0.8 -3.2 0.85 -2.35 L0.95 -1.75 Q1.65 -0.45 3.35 -0.25 5.0 -0.05 4.6 -1.9 6.25 -0.7 4.0 1.05" fill="#ff7700" fill-rule="evenodd" stroke="none"/>
      <path d="M1.75 4.8 L2.4 5.65 Q1.2 5.55 0.75 4.9 -0.65 2.95 1.55 0.85 2.7 2.15 1.75 4.8" fill="#f2ff00" fill-rule="evenodd" stroke="none"/>
    </g>
  </defs>
</svg>
