<?xml version="1.0" encoding="UTF-8" standalone="no"?>
<svg xmlns:ffdec="https://www.free-decompiler.com/flash" xmlns:xlink="http://www.w3.org/1999/xlink" ffdec:objectType="frame" height="41.15px" width="33.7px" xmlns="http://www.w3.org/2000/svg">
  <g transform="matrix(1.0, 0.0, 0.0, 1.0, 17.0, 82.5)">
    <use ffdec:characterId="31" height="51.45" transform="matrix(0.8, 0.0, 0.0, 0.8, -0.2, -59.85)" width="42.2" xlink:href="#sprite0"/>
  </g>
  <defs>
    <g id="sprite0">
      <use ffdec:characterId="2" height="51.1" transform="matrix(1.0, 0.0, 0.0, 1.0, 0.0, 0.0)" width="42.05" xlink:href="#sprite1"/>
    </g>
    <g id="sprite1">
      <use ffdec:characterId="1" height="51.1" transform="matrix(1.0, 0.0, 0.0, 1.0, 0.0, 0.0)" width="42.05" xlink:href="#shape0"/>
    </g>
    <g id="shape0">
      <path d="M-1.85 22.0 L-1.85 12.15 -3.75 13.2 Q-5.1 13.85 -6.35 14.1 -9.2 14.7 -11.65 13.4 L-10.7 12.05 -12.4 11.4 Q-14.05 10.6 -15.35 9.4 -16.8 8.0 -17.7 6.15 -18.8 4.0 -19.35 1.65 L-18.05 1.6 -18.85 -0.45 -19.65 -3.0 -20.0 -5.05 -20.15 -6.5 -20.15 -6.6 -18.55 -5.65 -16.8 -4.7 Q-15.05 -3.8 -13.4 -3.35 L-14.05 -5.7 Q-11.9 -5.25 -10.5 -4.25 L-9.45 -3.3 -6.55 -0.6 -4.4 -0.55 Q-3.7 -1.35 -3.65 -1.9 L-3.55 -2.3 Q-3.4 -3.9 -4.5 -5.15 L-6.0 -6.5 -6.65 -6.9 -9.1 -8.15 Q-10.5 -8.95 -10.3 -11.75 L-10.0 -11.3 -9.05 -10.65 -9.1 -12.15 -8.95 -13.2 -8.5 -15.1 -8.2 -15.9 -6.95 -18.45 -6.45 -17.9 -5.95 -17.1 Q-5.6 -19.55 -4.45 -21.65 L-3.45 -23.35 -2.7 -22.2 Q-2.45 -21.65 -1.1 -23.9 -0.2 -25.4 0.1 -27.3 L0.1 -27.6 0.15 -27.5 0.15 -27.25 Q0.45 -25.4 1.35 -23.9 2.7 -21.65 2.95 -22.2 L3.7 -23.35 4.7 -21.65 Q5.85 -19.55 6.2 -17.1 L6.7 -17.9 7.2 -18.45 8.45 -15.9 8.75 -15.1 9.2 -13.2 9.35 -12.15 9.3 -10.65 10.25 -11.3 10.55 -11.75 Q10.75 -8.95 9.35 -8.15 L6.9 -6.9 6.25 -6.5 4.75 -5.15 Q3.65 -3.9 3.8 -2.3 L3.9 -1.9 Q3.95 -1.35 4.65 -0.55 L6.8 -0.6 9.7 -3.3 10.75 -4.25 Q12.15 -5.25 14.3 -5.7 L13.65 -3.35 Q15.3 -3.8 17.05 -4.7 L18.8 -5.65 20.4 -6.6 20.4 -6.5 20.25 -5.05 19.9 -3.0 19.1 -0.45 18.3 1.6 19.6 1.65 Q19.05 4.0 17.95 6.15 17.05 8.0 15.6 9.4 14.3 10.6 12.65 11.4 L10.95 12.05 11.9 13.4 Q9.45 14.7 6.6 14.1 5.35 13.85 4.0 13.2 L2.1 12.15 2.1 19.95 -1.35 22.0 -1.85 22.0" fill="#ee5500" fill-rule="evenodd" stroke="none"/>
      <path d="M-1.35 22.0 L2.1 19.95 2.1 12.15 4.0 13.2 Q5.35 13.85 6.6 14.1 9.45 14.7 11.9 13.4 L10.95 12.05 12.65 11.4 Q14.3 10.6 15.6 9.4 17.05 8.0 17.95 6.15 19.05 4.0 19.6 1.65 L18.3 1.6 19.1 -0.45 19.9 -3.0 20.25 -5.05 20.4 -6.5 20.4 -6.6 18.8 -5.65 17.05 -4.7 Q15.3 -3.8 13.65 -3.35 L14.3 -5.7 Q12.15 -5.25 10.75 -4.25 L9.7 -3.3 6.8 -0.6 4.65 -0.55 Q3.95 -1.35 3.9 -1.9 L3.8 -2.3 Q3.65 -3.9 4.75 -5.15 L6.25 -6.5 6.9 -6.9 9.35 -8.15 Q10.75 -8.95 10.55 -11.75 L10.25 -11.3 9.3 -10.65 9.35 -12.15 9.2 -13.2 8.75 -15.1 8.45 -15.9 7.2 -18.45 6.7 -17.9 6.2 -17.1 Q5.85 -19.55 4.7 -21.65 L3.7 -23.35 2.95 -22.2 Q2.7 -21.65 1.35 -23.9 0.45 -25.4 0.15 -27.25 L0.15 -27.5 0.1 -27.6 0.1 -27.3 Q-0.2 -25.4 -1.1 -23.9 -2.45 -21.65 -2.7 -22.2 L-3.45 -23.35 -4.45 -21.65 Q-5.6 -19.55 -5.95 -17.1 L-6.45 -17.9 -6.95 -18.45 -8.2 -15.9 -8.5 -15.1 -8.95 -13.2 -9.1 -12.15 -9.05 -10.65 -10.0 -11.3 -10.3 -11.75 Q-10.5 -8.95 -9.1 -8.15 L-6.65 -6.9 -6.0 -6.5 -4.5 -5.15 Q-3.4 -3.9 -3.55 -2.3 L-3.65 -1.9 Q-3.7 -1.35 -4.4 -0.55 L-6.55 -0.6 -9.45 -3.3 -10.5 -4.25 Q-11.9 -5.25 -14.05 -5.7 L-13.4 -3.35 Q-15.05 -3.8 -16.8 -4.7 L-18.55 -5.65 -20.15 -6.6 -20.15 -6.5 -20.0 -5.05 -19.65 -3.0 -18.85 -0.45 -18.05 1.6 -19.35 1.65 Q-18.8 4.0 -17.7 6.15 -16.8 8.0 -15.35 9.4 -14.05 10.6 -12.4 11.4 L-10.7 12.05 -11.65 13.4 Q-9.2 14.7 -6.35 14.1 -5.1 13.85 -3.75 13.2 L-1.85 12.15 -1.85 22.0" fill="none" stroke="#8f400e" stroke-linecap="round" stroke-linejoin="round" stroke-width="1.5"/>
      <path d="M2.1 8.7 L2.1 19.95 -0.75 21.65 -1.85 21.65 -1.85 11.05 2.1 8.7" fill="#d84d00" fill-rule="evenodd" stroke="none"/>
      <path d="M0.15 -27.4 L0.15 -27.25 Q0.45 -25.4 1.35 -23.9 2.7 -21.65 2.95 -22.2 L3.7 -23.35 4.7 -21.65 Q5.85 -19.55 6.2 -17.1 L6.7 -17.9 7.2 -18.45 8.45 -15.9 8.75 -15.1 9.2 -13.2 9.35 -12.15 9.3 -10.65 10.25 -11.3 10.55 -11.75 Q10.75 -8.95 9.35 -8.15 L6.9 -6.9 6.25 -6.5 4.75 -5.15 Q3.65 -3.9 3.8 -2.3 L3.9 -1.9 Q3.95 -1.35 4.65 -0.55 L6.8 -0.6 9.7 -3.3 10.75 -4.25 Q12.15 -5.25 14.3 -5.7 L13.65 -3.35 Q15.3 -3.8 17.05 -4.7 L18.8 -5.65 20.4 -6.6 20.4 -6.5 20.25 -5.05 19.9 -3.0 19.1 -0.45 18.3 1.6 19.6 1.65 Q19.05 4.0 17.95 6.15 17.05 8.0 15.6 9.4 14.3 10.6 12.65 11.4 L10.95 12.05 11.9 13.4 Q9.45 14.7 6.6 14.1 5.35 13.85 4.0 13.2 2.55 12.5 0.95 11.35 L0.15 10.4 -0.7 11.35 -3.75 13.2 Q-5.1 13.85 -6.35 14.1 -9.2 14.7 -11.65 13.4 L-10.7 12.05 -12.4 11.4 Q-14.05 10.6 -15.35 9.4 -16.8 8.0 -17.7 6.15 -18.8 4.0 -19.35 1.65 L-18.05 1.6 -18.85 -0.45 -19.65 -3.0 -20.0 -5.05 -20.15 -6.5 -20.15 -6.6 -18.55 -5.65 -16.8 -4.7 Q-15.05 -3.8 -13.4 -3.35 L-14.05 -5.7 Q-11.9 -5.25 -10.5 -4.25 L-9.45 -3.3 -6.55 -0.6 -4.4 -0.55 Q-3.7 -1.35 -3.65 -1.9 L-3.55 -2.3 Q-3.4 -3.9 -4.5 -5.15 L-6.0 -6.5 -6.65 -6.9 -9.1 -8.15 Q-10.5 -8.95 -10.3 -11.75 L-10.0 -11.3 -9.05 -10.65 -9.1 -12.15 -8.95 -13.2 -8.5 -15.1 -8.2 -15.9 -6.95 -18.45 -6.45 -17.9 -5.95 -17.1 Q-5.6 -19.55 -4.45 -21.65 L-3.45 -23.35 -2.7 -22.2 Q-2.45 -21.65 -1.1 -23.9 -0.2 -25.4 0.1 -27.3 L0.1 -27.6 0.15 -27.5 0.15 -27.6 0.15 -27.4" fill="#ee5500" fill-rule="evenodd" stroke="none"/>
      <path d="M0.1 -24.1 L0.1 -24.4 0.15 -24.3 0.15 -24.1 Q0.4 -22.55 1.15 -21.35 2.25 -19.5 2.4 -20.0 L3.05 -20.9 3.9 -19.5 Q4.8 -17.75 5.1 -15.8 L5.5 -16.45 5.9 -16.85 6.95 -14.8 7.15 -14.15 7.55 -12.6 7.7 -11.7 7.65 -10.45 8.45 -11.05 8.7 -11.4 Q8.8 -9.1 7.7 -8.45 L5.65 -7.4 5.15 -7.1 3.9 -6.0 Q3.15 -5.1 3.1 -4.0 3.0 -2.25 4.3 0.25 L4.85 1.05 6.55 1.0 8.95 -1.2 9.8 -2.0 Q11.0 -2.8 12.75 -3.15 L12.2 -1.25 Q13.6 -1.6 15.0 -2.35 L16.45 -3.15 17.75 -3.95 17.75 -3.85 17.65 -2.65 17.35 -0.95 16.7 1.1 16.05 2.8 17.05 2.85 Q16.65 4.8 15.75 6.5 15.0 8.05 13.8 9.2 12.75 10.2 11.35 10.85 L10.0 11.35 10.75 12.5 Q8.8 13.55 6.45 13.05 5.4 12.85 4.3 12.3 L1.8 10.8 1.25 10.15 Q0.15 9.0 -0.95 10.15 L-1.55 10.8 Q-2.85 11.75 -4.05 12.3 L-6.2 13.05 Q-8.5 13.55 -10.55 12.5 L-9.75 11.35 -11.15 10.85 Q-12.5 10.2 -13.55 9.2 -14.75 8.05 -15.5 6.5 -16.4 4.8 -16.85 2.85 L-15.75 2.8 -16.4 1.1 -17.1 -0.95 -17.35 -2.65 -17.45 -3.5 -17.5 -3.85 -17.5 -3.95 -16.75 -3.5 -16.2 -3.15 -14.75 -2.35 Q-13.3 -1.6 -11.95 -1.25 L-12.5 -3.15 Q-10.75 -2.8 -9.6 -2.0 L-8.75 -1.2 -6.35 1.0 -4.6 1.05 -3.5 -0.75 Q-2.8 -2.15 -2.85 -4.0 -2.85 -5.1 -3.65 -6.0 -4.25 -6.65 -4.95 -7.1 L-5.45 -7.4 -7.45 -8.45 Q-8.6 -9.1 -8.4 -11.4 L-8.15 -11.05 -7.4 -10.45 -7.45 -11.7 -7.35 -12.6 -6.95 -14.15 -6.7 -14.8 -5.7 -16.85 -5.25 -16.45 -4.9 -15.8 Q-4.6 -17.75 -3.65 -19.5 L-2.8 -20.9 -2.2 -20.0 Q-2.0 -19.5 -0.9 -21.35 -0.1 -22.55 0.1 -24.1" fill="#ffa100" fill-rule="evenodd" stroke="none"/>
      <path d="M1.15 9.55 L1.15 18.95 -0.8 20.15 -0.8 10.75 1.15 9.55" fill="#ffa100" fill-rule="evenodd" stroke="none"/>
      <path d="M5.65 -13.35 Q7.2 -12.05 7.2 -10.25 7.2 -8.5 5.8 -7.65 4.4 -6.85 3.45 -6.05 2.75 -5.4 2.25 -4.2 1.75 -2.95 2.75 -0.05 3.7 2.85 5.45 3.3 L8.5 3.5 Q9.8 3.3 11.15 4.55 12.4 5.75 12.3 7.55 12.2 9.35 10.65 10.6 9.1 11.9 6.95 11.9 L5.65 11.8 3.9 11.45 0.0 10.95 -3.5 11.55 -3.6 11.55 -5.7 11.9 Q-7.85 11.9 -9.4 10.6 -10.95 9.35 -10.95 7.4 -10.95 5.45 -9.4 4.25 -7.85 3.0 -5.85 3.1 -3.9 3.15 -2.7 1.7 -1.45 0.2 -1.15 -1.85 -0.85 -3.9 -2.0 -5.35 L-3.65 -7.85 Q-4.1 -8.95 -3.75 -10.45 -3.45 -12.0 -1.8 -13.3 -0.2 -14.6 1.95 -14.6 4.1 -14.6 5.65 -13.35" fill="#ffd718" fill-rule="evenodd" stroke="none"/>
      <path d="M9.75 6.95 Q9.95 8.35 7.65 9.6 5.35 10.9 2.0 11.3 L-3.95 11.0 Q-6.4 10.35 -6.6 8.95 -6.75 7.55 -4.55 6.3 -2.2 5.05 1.2 4.65 L7.05 4.9 Q9.6 5.55 9.75 6.95" fill="#fff6af" fill-rule="evenodd" stroke="none"/>
      <path d="M1.35 -4.9 Q1.35 1.4 1.0 5.85 0.7 10.3 0.25 10.3 -0.2 10.3 -0.5 5.85 -0.85 1.4 -0.85 -4.9 -0.85 -11.2 -0.5 -15.65 -0.2 -20.1 0.25 -20.1 0.7 -20.1 1.0 -15.65 1.35 -11.2 1.35 -4.9" fill="#ff6d13" fill-rule="evenodd" stroke="none"/>
      <path d="M-6.2 4.95 Q-3.25 6.75 -1.35 8.3 0.6 9.8 0.35 10.2 0.1 10.65 -2.2 9.7 -4.45 8.7 -7.4 6.9 -10.35 5.15 -12.3 3.6 -14.2 2.05 -13.95 1.6 -13.7 1.2 -11.45 2.2 -9.15 3.2 -6.2 4.95" fill="#ff6d13" fill-rule="evenodd" stroke="none"/>
      <path d="M-2.6 -11.8 L-0.45 -9.8 Q0.35 -8.9 0.1 -8.55 L-1.25 -8.75 -3.7 -10.35 -5.85 -12.3 Q-6.65 -13.25 -6.4 -13.55 L-5.05 -13.35 -2.6 -11.8" fill="#ff6d13" fill-rule="evenodd" stroke="none"/>
      <path d="M2.8 -11.8 L0.65 -9.8 Q-0.15 -8.9 0.1 -8.55 0.35 -8.25 1.45 -8.75 2.55 -9.3 3.9 -10.35 L6.05 -12.3 Q6.85 -13.25 6.6 -13.55 L5.25 -13.35 2.8 -11.8" fill="#ff6d13" fill-rule="evenodd" stroke="none"/>
      <path d="M-11.0 5.9 Q-9.65 5.5 -8.55 5.45 L-7.25 5.65 Q-7.05 5.95 -7.9 6.45 L-10.1 7.3 -12.55 7.8 -13.85 7.6 Q-14.05 7.3 -13.2 6.8 L-11.0 5.9" fill="#ff6d13" fill-rule="evenodd" stroke="none"/>
      <path d="M-9.25 3.05 L-8.25 5.35 Q-7.65 6.3 -7.3 6.25 -6.95 6.25 -7.05 5.3 L-7.65 3.0 -8.65 0.7 Q-9.25 -0.25 -9.6 -0.25 -9.95 -0.2 -9.85 0.75 L-9.25 3.05" fill="#ff6d13" fill-rule="evenodd" stroke="none"/>
      <path d="M6.5 4.95 Q3.55 6.75 1.65 8.3 -0.3 9.8 -0.05 10.2 0.2 10.65 2.5 9.7 4.75 8.7 7.7 6.9 10.65 5.15 12.6 3.6 14.5 2.05 14.25 1.6 14.0 1.2 11.75 2.2 9.45 3.2 6.5 4.95" fill="#ff6d13" fill-rule="evenodd" stroke="none"/>
      <path d="M11.3 5.9 L8.85 5.45 7.55 5.65 Q7.35 5.95 8.2 6.45 L10.4 7.3 12.85 7.8 14.15 7.6 Q14.35 7.3 13.5 6.8 L11.3 5.9" fill="#ff6d13" fill-rule="evenodd" stroke="none"/>
      <path d="M9.55 3.05 L8.55 5.35 Q7.95 6.3 7.6 6.25 7.25 6.25 7.35 5.3 L7.95 3.0 Q8.4 1.65 8.95 0.7 9.55 -0.25 9.9 -0.25 10.25 -0.2 10.15 0.75 L9.55 3.05" fill="#ff6d13" fill-rule="evenodd" stroke="none"/>
      <path d="M-1.3 21.05 L-0.55 21.2 0.6 20.65 1.55 19.8 1.7 19.05 1.0 18.95 Q0.45 19.05 -0.2 19.45 L-1.1 20.35 Q-1.5 20.8 -1.3 21.05" fill="#d62904" fill-rule="evenodd" stroke="none"/>
      <path d="M-1.25 15.8 L-1.1 18.85 -0.7 20.1 Q-0.45 20.1 -0.3 18.85 -0.15 17.6 -0.15 15.8 -0.15 14.0 -0.3 12.75 -0.45 11.5 -0.7 11.5 -0.95 11.5 -1.1 12.75 L-1.25 15.8" fill="#ffffff" fill-rule="evenodd" stroke="none"/>
      <path d="M0.3 -22.85 Q0.1 -19.9 -0.8 -19.85 -1.7 -19.8 -2.85 -19.05 -4.0 -18.3 -5.45 -13.7 -6.9 -9.1 -8.05 -10.3 -9.25 -11.55 -8.2 -14.9 -7.15 -18.25 -6.4 -17.15 -5.65 -16.1 -4.95 -19.25 -4.25 -22.45 -3.15 -21.8 -2.1 -21.15 -1.45 -22.65 -0.8 -24.25 -0.15 -25.0 0.45 -25.8 0.3 -22.85" fill="#ffffff" fill-rule="evenodd" stroke="none"/>
      <path d="M-12.0 -4.85 Q-10.25 -4.05 -9.35 -2.7 -8.5 -1.35 -10.45 -2.4 -12.45 -3.5 -11.75 -1.5 -11.05 0.45 -14.1 -0.45 -17.15 -1.35 -18.55 -3.8 -19.95 -6.3 -16.1 -4.05 -12.3 -1.85 -13.0 -3.75 -13.75 -5.7 -12.0 -4.85" fill="#fff6af" fill-rule="evenodd" stroke="none"/>
      <path d="M12.4 -4.85 Q10.65 -4.05 9.75 -2.7 8.9 -1.35 10.85 -2.4 12.85 -3.5 12.15 -1.5 11.45 0.45 14.5 -0.45 17.55 -1.35 18.95 -3.8 20.35 -6.3 16.5 -4.05 12.7 -1.85 13.4 -3.75 14.15 -5.7 12.4 -4.85" fill="#fff6af" fill-rule="evenodd" stroke="none"/>
      <path d="M2.15 11.0 Q6.75 13.45 10.3 12.75" ffdec:has-small-stroke="true" ffdec:original-stroke-width="1.0" fill="none" stroke="#fef079" stroke-linecap="round" stroke-linejoin="round" stroke-width="1.2500190737773709"/>
      <path d="M10.1 12.5 L9.1 10.95" ffdec:has-small-stroke="true" ffdec:original-stroke-width="1.0" fill="none" stroke="#fef079" stroke-linecap="round" stroke-linejoin="round" stroke-width="1.2500190737773709"/>
      <path d="M9.1 10.75 Q15.45 9.45 17.5 3.5" ffdec:has-small-stroke="true" ffdec:original-stroke-width="1.0" fill="none" stroke="#fef079" stroke-linecap="round" stroke-linejoin="round" stroke-width="1.2500190737773709"/>
      <path d="M-2.0 11.0 Q-6.6 13.45 -10.15 12.75" ffdec:has-small-stroke="true" ffdec:original-stroke-width="1.0" fill="none" stroke="#fef079" stroke-linecap="round" stroke-linejoin="round" stroke-width="1.2500190737773709"/>
      <path d="M-9.95 12.5 L-8.95 10.95" ffdec:has-small-stroke="true" ffdec:original-stroke-width="1.0" fill="none" stroke="#fef079" stroke-linecap="round" stroke-linejoin="round" stroke-width="1.2500190737773709"/>
      <path d="M-8.95 10.75 Q-15.3 9.45 -17.35 3.5" ffdec:has-small-stroke="true" ffdec:original-stroke-width="1.0" fill="none" stroke="#fef079" stroke-linecap="round" stroke-linejoin="round" stroke-width="1.2500190737773709"/>
      <path d="M18.5 -1.7 Q18.45 -0.2 17.45 1.7" fill="none" stroke="#cc350a" stroke-linecap="round" stroke-linejoin="round" stroke-width="1.5"/>
      <path d="M-18.25 -1.7 Q-18.2 -0.2 -17.2 1.7" fill="none" stroke="#cc350a" stroke-linecap="round" stroke-linejoin="round" stroke-width="1.5"/>
      <path d="M3.65 -4.65 Q4.15 -6.7 7.95 -8.35" fill="none" stroke="#cc350a" stroke-linecap="round" stroke-linejoin="round" stroke-width="1.5"/>
      <path d="M6.9 -17.05 Q8.65 -14.4 8.45 -11.95" fill="none" stroke="#cc350a" stroke-linecap="round" stroke-linejoin="round" stroke-width="1.5"/>
      <path d="M-5.3 -6.9 Q-3.6 -5.55 -3.1 -4.15" fill="none" stroke="#cc350a" stroke-linecap="round" stroke-linejoin="round" stroke-width="1.5"/>
      <path d="M1.35 -12.4 Q1.35 -9.1 1.0 -6.8 0.7 -4.5 0.25 -4.5 -0.2 -4.5 -0.5 -6.8 -0.85 -9.1 -0.85 -12.4 -0.85 -15.7 -0.5 -18.0 -0.2 -20.35 0.25 -20.35 0.7 -20.35 1.0 -18.0 1.35 -15.7 1.35 -12.4" fill="#f14d02" fill-rule="evenodd" stroke="none"/>
      <path d="M-2.6 7.15 Q-1.15 8.0 -0.3 8.95 0.6 9.8 0.35 10.2 L-1.15 10.35 -3.8 9.1 -6.15 7.3 Q-7.0 6.4 -6.75 5.95 L-5.3 5.9 Q-4.05 6.25 -2.6 7.15" fill="#f14d02" fill-rule="evenodd" stroke="none"/>
      <path d="M2.55 7.3 Q1.25 8.1 0.5 9.0 -0.3 9.8 -0.05 10.2 0.2 10.65 1.35 10.4 2.45 10.05 3.75 9.25 L5.9 7.65 Q6.65 6.8 6.4 6.35 L5.05 6.25 Q3.9 6.5 2.55 7.3" fill="#f14d02" fill-rule="evenodd" stroke="none"/>
      <path d="M1.85 -11.05 L0.4 -9.6 Q-0.15 -8.85 0.1 -8.5 L1.2 -8.55 Q2.0 -8.85 2.95 -9.6 L4.45 -11.05 Q5.0 -11.8 4.75 -12.1 4.5 -12.45 3.65 -12.1 2.8 -11.8 1.85 -11.05" fill="#f14d02" fill-rule="evenodd" stroke="none"/>
      <path d="M-9.8 1.35 L-9.25 2.45 Q-8.8 2.95 -8.45 2.9 -8.1 2.9 -8.05 2.4 L-8.2 1.3 -8.8 0.2 Q-9.2 -0.25 -9.55 -0.25 -9.9 -0.2 -10.0 0.25 L-9.8 1.35" fill="#f14d02" fill-rule="evenodd" stroke="none"/>
      <path d="M10.15 1.35 L9.6 2.45 Q9.15 2.9 8.8 2.85 8.45 2.85 8.4 2.4 L8.55 1.3 9.15 0.2 9.9 -0.25 10.35 0.25 10.15 1.35" fill="#f14d02" fill-rule="evenodd" stroke="none"/>
    </g>
  </defs>
</svg>
