<?xml version="1.0" encoding="UTF-8" standalone="no"?>
<svg xmlns:ffdec="https://www.free-decompiler.com/flash" xmlns:xlink="http://www.w3.org/1999/xlink" ffdec:objectType="frame" height="71.65px" width="92.05px" xmlns="http://www.w3.org/2000/svg">
  <g transform="matrix(1.0, 0.0, 0.0, 1.0, 45.95, 59.05)">
    <use ffdec:characterId="21" height="71.65" transform="matrix(1.0, 0.0, 0.0, 1.0, -28.0, -58.95)" width="92.05" xlink:href="#sprite0"/>
  </g>
  <defs>
    <g id="sprite0">
      <use ffdec:characterId="2" height="15.05" transform="matrix(1.0, 0.0, 0.0, 1.0, 10.5, 37.2)" width="39.35" xlink:href="#sprite1"/>
      <use ffdec:characterId="4" height="40.05" transform="matrix(-1.0, 0.0, 0.0, 1.0, 25.85, 0.3)" width="26.6" xlink:href="#sprite2"/>
      <use ffdec:characterId="4" height="40.05" transform="matrix(1.0, 0.0, 0.0, 1.0, 30.3, 0.3)" width="26.6" xlink:href="#sprite3"/>
    </g>
    <g id="sprite1">
      <use ffdec:characterId="1" height="15.05" transform="matrix(1.0, 0.0, 0.0, 1.0, 0.0, 0.0)" width="39.35" xlink:href="#shape0"/>
    </g>
    <g id="shape0">
      <path d="M9.2 -1.65 Q7.95 -1.15 7.0 -0.45 L5.05 0.95 Q2.6 2.85 1.7 4.35 0.85 5.65 -0.05 7.45 L-0.4 8.15 -0.65 8.65 -1.15 9.55 Q1.5 6.5 7.05 4.5 L7.55 4.35 8.55 4.0 9.2 3.8 11.8 3.1 17.35 2.45 17.5 2.45 17.65 2.45 17.8 2.45 Q21.6 2.45 25.85 3.75 L28.1 4.5 28.2 4.55 28.6 4.7 Q33.7 6.65 36.3 9.55 L35.65 8.3 33.45 4.35 Q32.55 2.85 30.1 0.95 L28.6 -0.15 28.2 -0.4 28.15 -0.45 Q24.65 -2.9 17.65 -3.35 L17.6 -3.35 17.5 -3.35 Q12.45 -3.0 9.2 -1.65 M9.2 -2.75 Q12.75 -4.15 17.65 -4.3 24.1 -4.0 28.2 -1.7 L28.6 -1.45 28.8 -1.35 Q30.35 -0.4 31.65 0.95 34.7 4.05 36.65 9.2 L37.25 10.75 Q32.9 7.5 28.6 5.8 L28.2 5.65 27.2 5.3 25.45 4.75 Q21.45 3.55 17.65 3.6 L17.5 3.6 Q13.45 3.55 9.2 4.9 L8.9 5.0 7.95 5.3 Q6.25 5.85 4.55 6.7 1.45 8.15 -1.65 10.45 L-2.1 10.75 -1.55 9.2 -1.45 9.0 Q0.5 4.0 3.5 0.95 L6.35 -1.35 Q7.65 -2.15 9.2 -2.75" fill="#230d24" fill-rule="evenodd" stroke="none"/>
      <path d="M-0.65 8.65 L-0.4 8.15 -0.05 7.45 Q0.85 5.65 1.7 4.35 2.6 2.85 5.05 0.95 L7.0 -0.45 Q7.95 -1.15 9.2 -1.65 6.75 0.65 9.2 2.95 L8.25 3.2 Q6.9 3.55 5.5 4.2 4.2 4.75 2.85 5.55 0.75 6.85 -0.65 8.65 M28.6 -0.15 L30.1 0.95 Q32.55 2.85 33.45 4.35 L35.65 8.3 33.1 6.0 Q31.7 5.05 30.1 4.4 L28.6 3.75 Q29.95 2.05 28.6 -0.15" fill="#340e48" fill-rule="evenodd" stroke="none"/>
      <path d="M9.2 -1.65 Q12.45 -3.0 17.5 -3.35 L17.6 -3.35 17.65 -3.35 Q24.65 -2.9 28.15 -0.45 L28.2 -0.4 28.6 -0.15 Q29.95 2.05 28.6 3.75 L28.2 3.6 27.5 3.3 25.8 2.75 Q25.15 2.35 21.4 1.9 L15.15 1.7 Q12.95 1.9 9.2 2.95 6.75 0.65 9.2 -1.65" fill="#4f166d" fill-rule="evenodd" stroke="none"/>
      <path d="M35.65 8.3 L36.3 9.55 Q33.7 6.65 28.6 4.7 L28.2 4.55 28.1 4.5 25.85 3.75 Q21.6 2.45 17.8 2.45 L17.65 2.45 17.5 2.45 17.35 2.45 11.8 3.1 9.2 3.8 8.55 4.0 7.55 4.35 7.05 4.5 Q1.5 6.5 -1.15 9.55 L-0.65 8.65 Q0.75 6.85 2.85 5.55 4.2 4.75 5.5 4.2 6.9 3.55 8.25 3.2 L9.2 2.95 Q12.95 1.9 15.15 1.7 L21.4 1.9 Q25.15 2.35 25.8 2.75 L27.5 3.3 28.2 3.6 28.6 3.75 30.1 4.4 Q31.7 5.05 33.1 6.0 L35.65 8.3" fill="#7b3a9d" fill-rule="evenodd" stroke="none"/>
      <path d="M24.45 -0.8 Q24.35 -0.4 23.65 -0.25 L21.9 -0.4 Q20.95 -0.7 20.35 -1.2 19.75 -1.65 19.85 -2.05 20.0 -2.4 20.7 -2.55 L22.45 -2.35 Q23.4 -2.1 24.0 -1.6 24.6 -1.15 24.45 -0.8" fill="#7b3a9d" fill-rule="evenodd" stroke="none"/>
    </g>
    <g id="sprite2">
      <use ffdec:characterId="3" height="40.05" transform="matrix(1.0, 0.0, 0.0, 1.0, 0.0, 0.0)" width="26.6" xlink:href="#shape1"/>
    </g>
    <g id="shape1">
      <path d="M25.8 0.0 Q18.35 6.6 17.15 14.15 15.95 21.65 20.0 27.05 14.35 29.75 12.9 33.15 11.4 36.55 11.45 39.25 8.25 35.9 3.45 34.4 7.45 33.65 8.25 30.95 9.05 28.25 6.55 26.4 L0.75 21.65 Q-0.95 19.65 1.15 16.3 3.2 12.95 10.15 7.25 17.1 1.55 25.8 0.0" fill="#161414" fill-rule="evenodd" stroke="none"/>
      <path d="M25.8 0.0 Q18.35 6.6 17.15 14.15 15.95 21.65 20.0 27.05 14.35 29.75 12.9 33.15 11.4 36.55 11.45 39.25 8.25 35.9 3.45 34.4 7.45 33.65 8.25 30.95 9.05 28.25 6.55 26.4 L0.75 21.65 Q-0.95 19.65 1.15 16.3 3.2 12.95 10.15 7.25 17.1 1.55 25.8 0.0 Z" ffdec:has-small-stroke="true" ffdec:original-stroke-width="0.8" fill="none" stroke="#000000" stroke-linecap="round" stroke-linejoin="round" stroke-width="1.0"/>
      <path d="M7.65 34.85 Q13.3 30.1 8.35 25.95" ffdec:has-small-stroke="true" ffdec:original-stroke-width="0.5" fill="none" stroke="#837195" stroke-linecap="round" stroke-linejoin="round" stroke-width="1.0"/>
      <path d="M15.3 18.5 Q15.5 21.1 16.25 23.0 L17.35 25.4 Q15.85 24.3 14.0 23.35 12.2 22.35 9.95 21.55 7.65 20.7 3.6 20.25 8.8 16.3 15.85 13.3 15.15 16.1 15.3 18.5" fill="#770909" fill-rule="evenodd" stroke="none"/>
      <path d="M1.05 18.2 Q7.5 7.65 23.5 1.05" ffdec:has-small-stroke="true" ffdec:original-stroke-width="0.5" fill="none" stroke="#837195" stroke-linecap="round" stroke-linejoin="round" stroke-width="1.0"/>
    </g>
    <g id="sprite3">
      <use ffdec:characterId="3" height="40.05" transform="matrix(1.0, 0.0, 0.0, 1.0, 0.0, 0.0)" width="26.6" xlink:href="#shape2"/>
    </g>
    <g id="shape2">
      <path d="M25.8 0.0 Q18.35 6.6 17.15 14.15 15.95 21.65 20.0 27.05 14.35 29.75 12.9 33.15 11.4 36.55 11.45 39.25 8.25 35.9 3.45 34.4 7.45 33.65 8.25 30.95 9.05 28.25 6.55 26.4 L0.75 21.65 Q-0.95 19.65 1.15 16.3 3.2 12.95 10.15 7.25 17.1 1.55 25.8 0.0" fill="#161414" fill-rule="evenodd" stroke="none"/>
      <path d="M25.8 0.0 Q18.35 6.6 17.15 14.15 15.95 21.65 20.0 27.05 14.35 29.75 12.9 33.15 11.4 36.55 11.45 39.25 8.25 35.9 3.45 34.4 7.45 33.65 8.25 30.95 9.05 28.25 6.55 26.4 L0.75 21.65 Q-0.95 19.65 1.15 16.3 3.2 12.95 10.15 7.25 17.1 1.55 25.8 0.0 Z" ffdec:has-small-stroke="true" ffdec:original-stroke-width="0.8" fill="none" stroke="#000000" stroke-linecap="round" stroke-linejoin="round" stroke-width="1.0"/>
      <path d="M7.65 34.85 Q13.3 30.1 8.35 25.95" ffdec:has-small-stroke="true" ffdec:original-stroke-width="0.5" fill="none" stroke="#837195" stroke-linecap="round" stroke-linejoin="round" stroke-width="1.0"/>
      <path d="M15.3 18.5 Q15.5 21.1 16.25 23.0 L17.35 25.4 Q15.85 24.3 14.0 23.35 12.2 22.35 9.95 21.55 7.65 20.7 3.6 20.25 8.8 16.3 15.85 13.3 15.15 16.1 15.3 18.5" fill="#770909" fill-rule="evenodd" stroke="none"/>
      <path d="M1.05 18.2 Q7.5 7.65 23.5 1.05" ffdec:has-small-stroke="true" ffdec:original-stroke-width="0.5" fill="none" stroke="#837195" stroke-linecap="round" stroke-linejoin="round" stroke-width="1.0"/>
    </g>
  </defs>
</svg>
