<?xml version="1.0" encoding="UTF-8" standalone="no"?>
<svg xmlns:ffdec="https://www.free-decompiler.com/flash" xmlns:xlink="http://www.w3.org/1999/xlink" ffdec:objectType="frame" height="38.1px" width="28.55px" xmlns="http://www.w3.org/2000/svg">
  <g transform="matrix(1.0, 0.0, 0.0, 1.0, 14.4, 56.6)">
    <use ffdec:characterId="13" height="6.15" transform="matrix(1.0, 0.0, 0.0, 1.0, 0.0, 0.0)" width="24.55" xlink:href="#shape0"/>
    <use ffdec:characterId="3" height="36.8" transform="matrix(1.0, 0.0, 0.0, 1.0, -14.15, -56.25)" width="28.55" xlink:href="#sprite0"/>
  </g>
  <defs>
    <g id="shape0">
      <path d="M-11.95 -24.3 L11.65 -24.3 11.75 -23.6 Q11.75 -21.6 8.25 -20.25 4.75 -18.85 -0.2 -18.85 -5.1 -18.85 -8.65 -20.25 -12.1 -21.6 -12.1 -23.6 L-11.95 -24.3" fill="#ffd501" fill-rule="evenodd" stroke="none"/>
      <path d="M-11.95 -24.3 L-12.1 -23.6 Q-12.1 -21.6 -8.65 -20.25 -5.1 -18.85 -0.2 -18.85 4.75 -18.85 8.25 -20.25 11.75 -21.6 11.75 -23.6 L11.65 -24.3" ffdec:has-small-stroke="true" ffdec:original-stroke-width="0.7" fill="none" stroke="#960000" stroke-linecap="round" stroke-linejoin="round" stroke-width="1.0"/>
    </g>
    <g id="sprite0">
      <use ffdec:characterId="2" height="36.8" transform="matrix(1.0, 0.0, 0.0, 1.0, 0.0, 0.0)" width="28.55" xlink:href="#shape1"/>
    </g>
    <g id="shape1">
      <path d="M2.8 30.45 Q2.8 17.25 6.85 8.8 11.0 0.05 13.6 0.0 L14.15 0.05 14.65 0.1 Q17.25 0.5 20.9 9.8 24.45 18.8 23.75 31.95 L2.8 30.45" fill="#ffd501" fill-rule="evenodd" stroke="none"/>
      <path d="M2.8 30.45 Q2.8 17.25 6.85 8.8 11.0 0.05 13.6 0.0 L14.15 0.05 14.65 0.1 Q17.25 0.5 20.9 9.8 24.45 18.8 23.75 31.95" ffdec:has-small-stroke="true" ffdec:original-stroke-width="0.7" fill="none" stroke="#ff1300" stroke-linecap="round" stroke-linejoin="round" stroke-width="1.0"/>
      <path d="M8.3 9.8 L9.4 11.6 Q11.8 15.55 15.15 17.4 18.4 19.25 17.5 22.0 16.55 24.8 14.75 26.15 13.0 27.55 10.75 27.5 8.95 27.4 7.55 26.7 L6.85 26.3 4.45 24.05 Q3.6 22.85 3.2 20.15 2.75 17.3 3.3 15.15 L4.7 10.5 Q5.6 7.95 6.2 7.8 6.75 7.65 8.3 9.8" fill="#ffd501" fill-rule="evenodd" stroke="none"/>
      <path d="M7.55 26.7 L6.85 26.3 4.45 24.05 Q3.6 22.85 3.2 20.15 2.75 17.3 3.3 15.15 L4.7 10.5 Q5.6 7.95 6.2 7.8 6.75 7.65 8.3 9.8" ffdec:has-small-stroke="true" ffdec:original-stroke-width="0.7" fill="none" stroke="#ff1300" stroke-linecap="round" stroke-linejoin="round" stroke-width="1.0"/>
      <path d="M8.3 9.8 L9.4 11.6 Q11.8 15.55 15.15 17.4 18.4 19.25 17.5 22.0 16.55 24.8 14.75 26.15 13.0 27.55 10.75 27.5 8.95 27.4 7.55 26.7" ffdec:has-small-stroke="true" ffdec:original-stroke-width="0.7" fill="none" stroke="#ff8e00" stroke-linecap="round" stroke-linejoin="round" stroke-width="1.0"/>
      <path d="M17.9 9.55 L18.95 6.5 Q19.4 4.6 20.55 6.2 L21.9 8.35 23.1 10.85 23.1 11.0 24.05 13.3 Q23.25 12.05 22.15 12.0 21.0 11.85 20.15 13.5 L18.6 16.9 17.0 20.6 Q16.1 22.35 14.55 23.65 L12.9 24.9 Q10.8 23.25 10.3 22.1 9.75 20.85 12.2 17.8 L16.3 12.35 17.9 9.55" fill="#ffd501" fill-rule="evenodd" stroke="none"/>
      <path d="M24.05 13.3 Q24.6 15.15 24.75 16.9 24.95 19.65 24.45 21.35 L23.2 24.1 Q22.45 25.2 21.0 26.25 19.55 27.3 17.35 27.0 L17.15 27.0 Q15.1 26.65 13.05 25.0 L12.9 24.9 14.55 23.65 Q16.1 22.35 17.0 20.6 L18.6 16.9 20.15 13.5 Q21.0 11.85 22.15 12.0 23.25 12.05 24.05 13.3" fill="#ff8b01" fill-rule="evenodd" stroke="none"/>
      <path d="M17.9 9.55 L18.95 6.5 Q19.4 4.6 20.55 6.2 L21.9 8.35 23.1 10.85 23.1 11.0 24.05 13.3 Q24.6 15.15 24.75 16.9 24.95 19.65 24.45 21.35 L23.2 24.1 Q22.45 25.2 21.0 26.25 19.55 27.3 17.35 27.0 L17.15 27.0" ffdec:has-small-stroke="true" ffdec:original-stroke-width="0.7" fill="none" stroke="#ff1300" stroke-linecap="round" stroke-linejoin="round" stroke-width="1.0"/>
      <path d="M17.15 27.0 Q15.1 26.65 13.05 25.0 L12.9 24.9 Q10.8 23.25 10.3 22.1 9.75 20.85 12.2 17.8 L16.3 12.35 17.9 9.55" ffdec:has-small-stroke="true" ffdec:original-stroke-width="0.7" fill="none" stroke="#ff8e00" stroke-linecap="round" stroke-linejoin="round" stroke-width="1.0"/>
      <path d="M12.25 31.3 Q9.25 30.45 8.0 27.45 6.5 23.8 9.2 17.3 11.9 10.7 14.65 15.25 L15.35 16.25 Q13.6 16.55 12.45 18.3 11.25 20.0 10.9 22.15 10.55 24.3 10.75 26.35 10.85 28.35 11.6 30.15 L12.25 31.3" fill="#ffd501" fill-rule="evenodd" stroke="none"/>
      <path d="M15.35 16.25 Q17.9 19.95 21.05 21.65 24.65 23.6 25.0 24.85 25.3 26.0 24.6 27.6 23.9 29.2 22.15 30.3 20.4 31.35 18.95 31.7 L13.45 31.55 12.25 31.3 11.6 30.15 Q10.85 28.35 10.75 26.35 10.55 24.3 10.9 22.15 11.25 20.0 12.45 18.3 13.6 16.55 15.35 16.25" fill="#ffab01" fill-rule="evenodd" stroke="none"/>
      <path d="M12.25 31.3 Q9.25 30.45 8.0 27.45 6.5 23.8 9.2 17.3 11.9 10.7 14.65 15.25 L15.35 16.25 Q17.9 19.95 21.05 21.65 24.65 23.6 25.0 24.85 25.3 26.0 24.6 27.6 23.9 29.2 22.15 30.3 20.4 31.35 18.95 31.7 L13.45 31.55 12.25 31.3 Z" ffdec:has-small-stroke="true" ffdec:original-stroke-width="0.7" fill="none" stroke="#ff8e00" stroke-linecap="round" stroke-linejoin="round" stroke-width="1.0"/>
      <path d="M25.65 33.55 L26.0 33.0 Q27.05 31.25 27.5 29.2 28.0 27.05 27.95 23.6 27.8 20.15 27.0 17.9 26.15 15.5 25.3 17.45 L24.55 18.85 22.45 21.55 Q20.75 23.55 18.4 25.4 16.05 27.15 14.6 28.8 L14.15 29.35 Q13.05 30.85 12.8 32.35 12.6 33.8 12.95 34.5 L14.15 35.65 17.25 36.3 Q19.55 36.35 22.3 35.4 25.1 34.35 25.65 33.55" fill="#ff8b01" fill-rule="evenodd" stroke="none"/>
      <path d="M24.55 18.85 L25.3 17.45 Q26.15 15.5 27.0 17.9 27.8 20.15 27.95 23.6 28.0 27.05 27.5 29.2 27.05 31.25 26.0 33.0 L25.65 33.55" ffdec:has-small-stroke="true" ffdec:original-stroke-width="0.7" fill="none" stroke="#ff1300" stroke-linecap="round" stroke-linejoin="round" stroke-width="1.0"/>
      <path d="M14.15 29.35 L14.6 28.8 Q16.05 27.15 18.4 25.4 20.75 23.55 22.45 21.55 L24.55 18.85" ffdec:has-small-stroke="true" ffdec:original-stroke-width="0.7" fill="none" stroke="#ff8e00" stroke-linecap="round" stroke-linejoin="round" stroke-width="1.0"/>
      <path d="M0.95 31.0 Q0.4 29.4 0.25 27.7 0.0 26.0 0.2 23.1 0.4 20.2 1.2 17.9 2.0 15.65 4.0 19.45 L4.6 20.45 Q6.35 23.5 8.35 25.45 10.7 27.75 12.7 29.05 14.75 30.25 14.1 32.1 L13.55 33.05 11.7 34.55 Q10.3 35.15 8.3 35.15 L5.35 34.8 3.65 34.05 2.2 33.15 Q1.5 32.6 0.95 31.0" fill="#ffd501" fill-rule="evenodd" stroke="none"/>
      <path d="M0.95 31.0 Q0.4 29.4 0.25 27.7 0.0 26.0 0.2 23.1 0.4 20.2 1.2 17.9 2.0 15.65 4.0 19.45 L4.6 20.45" ffdec:has-small-stroke="true" ffdec:original-stroke-width="0.7" fill="none" stroke="#ff1300" stroke-linecap="round" stroke-linejoin="round" stroke-width="1.0"/>
      <path d="M4.6 20.45 Q6.35 23.5 8.35 25.45 10.7 27.75 12.7 29.05 14.75 30.25 14.1 32.1" ffdec:has-small-stroke="true" ffdec:original-stroke-width="0.7" fill="none" stroke="#ff8e00" stroke-linecap="round" stroke-linejoin="round" stroke-width="1.0"/>
      <path d="M9.35 31.35 L12.85 28.55 Q15.3 26.05 17.55 21.4 19.75 16.75 21.75 19.4 L22.95 21.25 Q23.75 22.65 24.2 24.4 L24.4 25.5 24.5 26.0 Q23.55 24.6 22.55 24.65 21.55 24.7 20.65 25.2 19.75 25.6 18.65 26.7 L17.0 28.45 14.9 31.25 Q13.35 33.4 13.35 34.2 L13.55 35.2 Q10.4 34.55 7.75 32.45 L9.35 31.35" fill="#ffd501" fill-rule="evenodd" stroke="none"/>
      <path d="M24.5 26.0 Q25.0 29.15 24.55 30.8 L23.4 32.35 Q19.1 35.95 13.55 35.2 L13.35 34.2 Q13.35 33.4 14.9 31.25 L17.0 28.45 18.65 26.7 Q19.75 25.6 20.65 25.2 21.55 24.7 22.55 24.65 23.55 24.6 24.5 26.0" fill="#ffab01" fill-rule="evenodd" stroke="none"/>
      <path d="M9.35 31.35 L12.85 28.55 Q15.3 26.05 17.55 21.4 19.75 16.75 21.75 19.4 L22.95 21.25 Q23.75 22.65 24.2 24.4 L24.4 25.5 24.5 26.0 Q25.0 29.15 24.55 30.8" ffdec:has-small-stroke="true" ffdec:original-stroke-width="0.7" fill="none" stroke="#ff8e00" stroke-linecap="round" stroke-linejoin="round" stroke-width="1.0"/>
      <path d="M14.4 1.55 Q15.3 2.1 15.2 3.55 15.25 5.05 14.35 6.6 13.5 8.1 12.2 8.85 11.0 9.6 10.1 9.05 9.2 8.55 9.2 7.05 9.25 5.55 10.1 4.05 11.0 2.5 12.2 1.75 13.5 1.05 14.4 1.55" fill="#ecff01" fill-rule="evenodd" stroke="none"/>
      <path d="M20.0 6.9 L20.25 8.9 Q20.3 10.4 19.65 12.2 19.05 14.0 18.15 15.15 17.3 16.25 16.25 15.85 15.3 15.45 15.7 14.6 L17.4 12.0 Q18.75 10.2 19.35 8.35 19.95 6.5 20.0 6.9" fill="#ecff01" fill-rule="evenodd" stroke="none"/>
      <path d="M8.95 11.9 Q10.05 13.25 10.0 13.85 9.95 14.4 8.95 14.15 7.9 13.9 7.25 13.35 6.7 12.75 6.3 11.75 5.8 10.75 5.75 9.75 5.7 8.8 6.15 8.85 6.55 8.85 7.3 9.7 L8.95 11.9" fill="#ecff01" fill-rule="evenodd" stroke="none"/>
      <path d="M12.45 14.2 Q13.3 14.25 14.05 15.4 L14.6 16.15 Q13.5 16.1 12.4 16.85 11.2 17.65 8.75 20.85 L9.3 18.75 Q9.7 17.45 10.65 15.8 11.55 14.15 12.45 14.2" fill="#ecff01" fill-rule="evenodd" stroke="none"/>
      <path d="M4.2 21.0 Q5.5 23.5 6.65 24.8 7.8 26.15 9.85 27.75 L11.1 28.6 Q9.2 28.55 7.3 27.45 5.3 26.3 4.7 25.65 L3.95 24.95 2.45 23.1 Q1.35 21.5 1.35 19.7 1.4 17.95 2.1 18.05 2.9 18.45 4.2 21.0" fill="#ecff01" fill-rule="evenodd" stroke="none"/>
      <path d="M20.85 24.65 Q19.4 25.3 17.85 26.9 L14.5 29.75 Q12.7 31.05 9.85 31.95 12.15 30.7 14.3 28.3 16.45 25.9 17.8 22.55 19.15 19.25 20.5 19.1 21.9 18.9 23.65 24.15 22.25 24.05 20.85 24.65" fill="#ecff01" fill-rule="evenodd" stroke="none"/>
      <path d="M25.7 22.75 Q24.55 24.0 23.75 21.35 L26.0 17.25 Q26.8 21.5 25.7 22.75" fill="#ecff01" fill-rule="evenodd" stroke="none"/>
      <path d="M11.65 26.9 L15.55 24.55 13.7 27.25 12.45 28.6 Q11.75 28.2 9.8 26.4 L11.65 26.9" fill="#ff3f01" fill-rule="evenodd" stroke="none"/>
      <path d="M23.95 18.25 L22.7 20.1 21.35 18.45 Q22.65 18.6 24.35 16.7 L23.95 18.25" fill="#ff3f01" fill-rule="evenodd" stroke="none"/>
      <path d="M7.2 23.95 L5.45 21.55 6.4 21.9 7.8 20.8 Q7.25 22.35 7.2 23.95" fill="#ff3f01" fill-rule="evenodd" stroke="none"/>
      <path d="M15.2 13.75 L14.45 14.55 13.35 13.3 Q15.15 13.05 16.85 10.8 L15.2 13.75" fill="#ff3f01" fill-rule="evenodd" stroke="none"/>
      <path d="M25.5 28.8 Q25.95 30.4 23.75 32.15 24.35 30.3 24.35 28.7 L24.25 25.55 25.5 28.8" fill="#ff3f01" fill-rule="evenodd" stroke="none"/>
      <path d="M3.4 17.95 L2.6 17.2 3.2 15.15 3.4 17.95" fill="#1a00a3" fill-rule="evenodd" stroke="none"/>
      <path d="M24.15 14.45 Q26.05 17.55 23.3 19.4 24.5 17.35 24.15 14.45" fill="#1a00a3" fill-rule="evenodd" stroke="none"/>
      <path d="M8.1 5.7 Q7.65 7.75 7.85 9.1 6.35 8.15 7.2 6.95 L8.1 5.7" fill="#1a00a3" fill-rule="evenodd" stroke="none"/>
      <path d="M0.25 26.75 Q1.4 31.4 2.3 32.7 3.1 34.0 4.95 35.75 0.65 34.05 0.3 31.7 -0.1 29.45 0.0 28.95 L0.25 26.75" fill="#1a00a3" fill-rule="evenodd" stroke="none"/>
      <path d="M27.7 29.7 Q26.6 34.4 24.25 35.4 21.95 36.35 20.3 36.45 23.35 35.2 25.4 32.85 L27.7 29.7" fill="#1a00a3" fill-rule="evenodd" stroke="none"/>
      <path d="M4.35 25.75 L4.5 29.5 Q4.6 31.6 5.0 32.85 5.35 33.95 4.1 33.2 2.75 32.55 2.35 29.95 1.85 27.35 2.05 24.85 2.2 22.35 3.3 23.35 4.4 24.2 4.35 25.75" fill="#ffffff" fill-rule="evenodd" stroke="none"/>
      <path d="M4.8 21.85 L4.85 23.2 Q4.75 23.85 4.3 23.95 3.85 24.1 3.35 23.65 2.85 23.3 2.6 22.5 2.35 21.75 2.5 21.1 2.65 20.5 3.1 20.35 3.55 20.25 4.0 20.65 4.55 21.1 4.8 21.85" fill="#ffffff" fill-rule="evenodd" stroke="none"/>
      <path d="M7.0 12.35 Q7.7 13.05 7.6 13.7 L7.0 16.35 6.3 19.4 Q6.15 20.45 5.65 19.75 L4.9 18.3 4.9 17.3 Q4.95 16.05 5.65 13.8 6.35 11.65 7.0 12.35" fill="#ffffff" fill-rule="evenodd" stroke="none"/>
      <path d="M8.4 11.75 L8.65 12.85 Q8.7 13.45 8.35 13.6 L7.55 13.4 6.8 12.55 Q6.5 11.95 6.5 11.35 6.55 10.8 6.85 10.65 7.2 10.5 7.6 10.8 L8.4 11.75" fill="#ffffff" fill-rule="evenodd" stroke="none"/>
      <path d="M14.15 6.65 Q13.3 8.05 12.25 8.8 11.25 9.55 10.75 9.25 10.2 8.9 10.45 7.65 10.7 6.4 11.55 5.0 12.4 3.55 13.4 2.8 14.4 2.05 14.95 2.4 15.45 2.7 15.2 3.95 15.0 5.2 14.15 6.65" fill="#ffffff" fill-rule="evenodd" stroke="none"/>
    </g>
  </defs>
</svg>
