<?xml version="1.0" encoding="UTF-8" standalone="no"?>
<svg xmlns:ffdec="https://www.free-decompiler.com/flash" xmlns:xlink="http://www.w3.org/1999/xlink" ffdec:objectType="frame" height="39.8px" width="67.65px" xmlns="http://www.w3.org/2000/svg">
  <g transform="matrix(1.0, 0.0, 0.0, 1.0, 33.2, 48.6)">
    <use ffdec:characterId="9" height="39.8" transform="matrix(1.0, 0.0, 0.0, 1.0, 0.6, -28.7)" width="67.65" xlink:href="#sprite0"/>
  </g>
  <defs>
    <g id="sprite0">
      <use ffdec:characterId="8" height="20.6" transform="matrix(1.0, 0.0, 0.0, 1.0, 0.0, 0.0)" width="40.85" xlink:href="#shape0"/>
      <use ffdec:characterId="3" height="24.55" transform="matrix(1.0, 0.0263, -0.0148, 0.9996, 20.25, -7.5)" width="26.9" xlink:href="#sprite1"/>
      <use ffdec:characterId="3" height="24.55" transform="matrix(-1.0, 0.0116, 0.0148, 0.9999, -20.2, -7.25)" width="26.9" xlink:href="#sprite1"/>
      <use ffdec:characterId="5" height="14.8" transform="matrix(0.6281, -0.1122, 0.0933, 0.5482, -13.2, 7.35)" width="15.35" xlink:href="#sprite2"/>
      <use ffdec:characterId="5" height="14.8" transform="matrix(-0.6304, -0.0985, -0.0813, 0.5501, 13.3, 6.85)" width="15.35" xlink:href="#sprite2"/>
    </g>
    <g id="shape0">
      <path d="M-5.1 0.2 L-3.8 -0.15 -2.45 -0.15 -0.05 -0.3 Q6.9 -0.25 12.65 2.95 16.55 5.1 17.45 6.9 L17.25 7.2 16.25 6.05 16.0 5.85 16.35 6.6 16.35 6.65 16.95 7.7 17.0 7.8 17.45 8.8 18.3 11.25 Q18.3 12.2 17.3 12.2 L17.2 12.2 17.2 12.15 Q17.2 11.5 15.95 9.3 L16.2 9.4 Q16.8 9.45 16.8 8.4 14.85 4.8 13.3 4.8 12.3 4.8 12.3 5.6 L12.8 6.3 11.0 5.45 13.2 7.25 14.0 7.95 13.75 7.75 13.7 7.9 Q14.5 9.1 14.7 10.3 L14.95 11.05 14.95 11.1 15.65 10.55 15.2 9.85 14.45 8.4 14.95 9.0 15.95 11.0 15.85 10.9 15.85 10.95 15.75 12.05 15.7 12.15 15.75 12.25 Q15.6 13.4 15.6 14.6 L15.35 14.65 15.6 13.25 15.2 12.2 14.85 12.85 14.85 12.95 Q14.85 14.1 13.0 16.0 10.6 18.45 7.4 18.4 4.65 18.4 3.0 17.2 1.95 16.4 1.8 15.7 2.5 15.5 2.65 14.1 L2.95 13.35 3.0 13.1 3.5 13.6 3.55 14.25 3.25 15.35 Q2.8 15.5 2.8 15.6 2.8 16.0 3.9 16.4 L5.55 16.85 7.55 16.85 Q10.4 16.2 12.0 14.6 L12.2 14.4 Q12.65 14.4 12.65 14.0 L12.65 13.85 Q13.2 13.05 13.35 12.2 13.75 11.25 13.75 10.05 13.75 9.2 12.75 7.8 11.1 6.0 10.3 5.7 L9.85 5.2 9.95 5.2 10.55 5.55 9.85 4.7 10.3 4.95 10.05 4.55 Q10.05 4.2 10.45 4.2 L11.15 4.3 11.45 4.2 11.1 3.8 11.15 3.45 Q11.5 3.5 12.15 3.9 L12.4 3.9 Q10.85 3.05 8.55 2.25 L8.15 2.15 7.7 1.95 7.7 2.05 7.7 2.3 7.9 2.65 7.45 3.4 Q6.9 3.85 5.9 3.85 L5.75 3.85 5.15 4.1 5.55 4.7 5.1 5.15 Q4.1 5.15 4.1 4.45 4.1 3.95 4.35 3.9 L4.35 3.85 Q4.35 3.6 4.5 3.45 L4.5 3.4 Q4.95 3.25 4.95 2.75 L4.8 2.25 4.4 2.0 3.65 1.2 2.05 0.8 -0.05 0.75 -3.35 1.35 -4.15 1.65 -4.25 1.75 -5.5 2.35 Q-6.2 2.85 -6.2 3.35 L-6.05 3.95 -6.0 4.0 -5.4 4.1 -4.4 3.75 Q-3.95 3.55 -3.95 4.05 L-4.05 4.4 Q-4.0 5.15 -3.2 5.15 L-2.5 4.85 -2.5 4.9 Q-2.0 4.35 -2.0 4.85 L-2.3 5.6 -2.45 5.8 Q-2.5 5.6 -2.7 5.6 -2.9 5.6 -3.0 5.75 L-3.55 5.75 Q-4.05 5.8 -4.3 5.45 L-4.5 4.85 -4.6 4.85 -4.7 5.35 -4.55 5.85 Q-4.2 6.35 -3.2 6.35 L-3.3 6.4 -3.6 6.4 Q-4.25 6.4 -4.7 5.9 L-5.0 5.3 -5.15 5.35 -6.05 5.95 Q-6.85 5.95 -6.65 5.4 L-6.6 5.1 -6.65 5.1 Q-7.65 5.1 -7.5 4.05 L-7.3 3.45 -7.35 3.8 -7.05 4.55 Q-6.6 5.15 -5.9 5.15 -4.65 5.15 -4.65 4.45 L-4.7 4.3 -5.4 4.5 Q-6.3 4.5 -6.6 3.95 L-6.7 3.2 -6.6 2.8 -6.6 2.35 -6.55 2.3 Q-7.1 2.4 -7.25 3.05 L-7.45 3.1 -7.9 3.05 -7.95 2.75 Q-8.3 2.6 -8.25 2.1 -9.75 2.5 -11.3 3.05 L-12.55 3.55 -11.2 2.65 Q-9.4 1.6 -7.4 0.9 -7.05 0.4 -6.0 0.25 L-5.9 0.25 -5.15 0.25 -5.1 0.2 M-5.5 8.3 Q-4.6 8.3 -4.25 10.4 -4.25 11.6 -4.75 12.45 -5.2 13.2 -5.9 13.55 L-5.55 13.45 -5.6 13.5 Q-6.2 13.7 -6.6 14.0 L-8.55 14.2 -9.05 14.05 -9.25 13.95 -8.25 14.05 -7.1 13.9 -7.65 13.9 Q-9.7 13.9 -11.0 12.75 L-11.7 11.95 -11.85 11.9 -11.85 12.0 Q-11.85 12.7 -10.7 13.35 L-9.6 13.85 -9.7 13.85 Q-9.9 13.85 -9.9 14.15 L-9.9 14.2 Q-10.65 13.75 -11.6 12.7 L-12.15 11.5 -12.2 11.0 -11.95 11.3 -12.0 11.1 -11.8 9.55 Q-11.45 8.7 -10.25 8.35 L-10.2 8.45 Q-10.65 8.55 -10.9 9.4 L-11.15 10.6 Q-11.15 12.15 -9.0 12.8 L-7.6 13.0 Q-6.1 13.0 -5.35 11.7 -4.85 10.85 -4.85 10.05 -4.85 9.6 -5.7 8.45 L-5.5 8.3 M2.1 12.15 Q1.95 12.05 1.9 12.25 L0.95 11.95 0.05 11.75 0.35 11.85 0.4 11.95 -0.35 12.1 -0.4 12.15 -0.55 12.15 -1.55 12.25 -1.75 12.55 -1.95 12.6 -2.3 12.75 -2.05 12.35 -0.95 11.95 -0.3 11.65 -0.25 11.65 1.75 11.85 2.1 12.1 2.1 12.15 M-16.75 6.15 L-16.75 6.2 Q-16.15 5.65 -15.45 5.6 L-15.2 5.25 Q-14.35 4.3 -13.7 4.25 L-13.55 4.6 -13.55 4.8 Q-12.25 3.05 -10.5 3.25 L-10.4 3.6 -11.85 5.35 Q-12.8 6.45 -13.1 7.55 L-13.15 7.7 -13.15 7.95 Q-13.65 8.95 -13.65 10.7 L-13.6 12.05 -13.1 13.35 -11.6 14.75 Q-10.25 15.75 -9.2 15.75 L-9.1 15.75 -8.25 15.9 -7.85 15.9 -7.8 15.9 -6.0 15.9 -4.8 15.8 -4.15 15.6 -3.35 15.0 Q-2.95 14.7 -2.75 13.7 L-2.75 13.75 -2.45 14.6 -2.25 14.95 Q-2.1 15.15 -2.1 15.5 -2.1 16.1 -3.2 16.7 -4.4 17.35 -5.95 17.35 L-9.6 16.75 -9.45 16.65 -9.35 16.3 -9.4 16.0 Q-9.5 15.75 -9.85 15.75 -10.5 15.75 -10.5 16.35 L-10.5 16.4 Q-12.3 15.5 -13.5 13.85 -14.65 12.3 -14.95 10.9 L-14.7 9.3 Q-14.35 8.1 -13.45 7.0 L-13.65 6.95 -14.05 7.2 -14.5 7.7 -14.6 7.85 Q-15.45 8.3 -16.1 8.85 -17.25 9.75 -17.1 10.45 -17.35 12.0 -18.7 13.3 -18.85 13.15 -19.1 13.6 L-19.2 13.95 Q-19.4 14.3 -19.85 14.3 L-20.1 14.1 -20.1 14.05 -20.25 13.8 -20.1 13.55 -19.95 12.45 -19.7 11.75 -19.25 11.05 -19.0 10.15 -18.9 9.85 -18.3 8.4 -17.95 7.75 -18.95 9.0 -19.0 8.85 -18.85 8.45 -17.6 6.85 -17.35 6.7 -17.2 6.6 -16.9 6.3 -16.85 6.25 -16.75 6.15 M-17.0 8.75 Q-16.05 7.9 -14.9 7.55 L-14.25 7.2 -14.2 7.05 Q-14.2 6.45 -14.55 6.4 -14.75 6.0 -15.7 6.05 -16.9 6.05 -17.35 7.0 L-18.1 8.6 Q-19.1 10.35 -19.1 11.75 L-19.0 11.95 -18.65 12.1 Q-18.15 12.1 -17.85 11.15 L-17.55 9.65 -17.35 9.1 -17.0 8.75 M-15.9 9.8 L-15.4 10.4 -15.45 10.75 Q-15.5 11.75 -15.15 11.75 -14.95 12.75 -14.15 14.05 L-15.15 13.8 Q-15.45 13.5 -15.7 13.35 L-16.2 12.1 -15.95 11.2 Q-15.95 10.5 -16.35 10.8 L-16.1 10.1 -16.1 10.0 -15.9 9.8 M-16.45 11.0 L-16.5 11.15 -16.8 11.7 -16.5 10.65 -16.1 10.0 -16.45 11.0 M-19.55 14.9 L-19.65 14.9 -19.75 14.9 -19.55 14.9 M13.65 7.7 L13.6 7.65 13.45 7.55 13.65 7.85 13.65 7.75 13.65 7.7 M12.1 11.15 L11.8 11.9 11.2 12.5 10.85 12.4 10.8 12.3 9.0 13.4 7.35 13.35 Q6.25 13.7 5.2 12.15 4.35 10.85 4.35 10.05 4.35 7.6 5.9 7.6 L6.45 7.75 5.7 8.4 5.1 9.2 Q5.1 10.2 5.55 11.05 6.3 12.5 8.1 12.5 9.5 12.5 10.3 11.5 10.85 10.8 10.85 10.25 10.85 9.5 9.75 8.7 8.5 7.75 6.8 7.8 8.7 7.0 10.05 7.8 L10.6 8.25 11.45 9.4 11.5 9.45 Q12.1 10.3 12.1 11.15 M2.7 10.3 L2.75 10.2 2.75 10.3 2.7 10.3 M9.45 13.9 L9.3 14.0 8.7 14.0 7.2 13.85 Q9.1 13.8 10.55 13.05 L11.05 12.85 10.75 13.15 Q10.3 13.65 9.45 13.9 M0.9 16.65 L0.4 16.25 0.4 16.2 1.55 16.95 1.8 17.3 0.9 16.65 M16.9 13.75 L16.95 13.75 16.9 13.9 16.9 13.75 M17.05 14.85 L16.9 14.8 16.85 14.7 16.9 14.2 17.05 14.85 M12.05 16.2 Q12.05 15.85 11.6 15.95 11.15 16.05 11.15 16.4 L11.15 16.6 Q11.2 16.8 11.65 16.8 12.05 16.8 12.05 16.2" fill="#cdd8e9" fill-rule="evenodd" stroke="none"/>
      <path d="M-12.55 3.55 L-11.3 3.05 Q-9.75 2.5 -8.25 2.1 -8.3 2.6 -7.95 2.75 L-7.9 3.05 -7.45 3.1 -7.25 3.05 -7.3 3.45 -7.5 4.05 Q-7.65 5.1 -6.65 5.1 L-6.6 5.1 -6.65 5.4 Q-6.85 5.95 -6.05 5.95 L-5.15 5.35 -5.0 5.3 -4.7 5.9 Q-4.25 6.4 -3.6 6.4 L-3.3 6.4 -3.2 6.35 Q-2.45 6.35 -2.45 5.85 L-2.45 5.8 -2.3 5.6 -2.0 4.85 Q-2.0 4.35 -2.5 4.9 L-2.5 4.85 -3.2 5.15 Q-4.0 5.15 -4.05 4.4 L-3.95 4.05 Q-3.95 3.55 -4.4 3.75 L-5.4 4.1 -6.0 4.0 -6.05 3.95 -6.2 3.35 Q-6.2 2.85 -5.5 2.35 L-4.25 1.75 -4.15 1.65 -3.35 1.35 -0.05 0.75 2.05 0.8 3.65 1.2 4.4 2.0 4.8 2.25 4.95 2.75 Q4.95 3.25 4.5 3.4 L4.5 3.45 Q4.35 3.6 4.35 3.85 L4.35 3.9 Q4.1 3.95 4.1 4.45 4.1 5.15 5.1 5.15 L5.55 4.7 5.15 4.1 5.75 3.85 5.9 3.85 Q6.9 3.85 7.45 3.4 L7.9 2.65 7.7 2.3 7.7 2.05 7.7 1.95 8.15 2.15 8.55 2.25 Q10.85 3.05 12.4 3.9 L12.15 3.9 Q11.5 3.5 11.15 3.45 L11.1 3.8 11.45 4.2 11.15 4.3 10.45 4.2 Q10.05 4.2 10.05 4.55 L10.3 4.95 9.85 4.7 10.55 5.55 9.95 5.2 9.85 5.2 10.3 5.7 Q11.1 6.0 12.75 7.8 13.75 9.2 13.75 10.05 13.75 11.25 13.35 12.2 13.2 13.05 12.65 13.85 12.6 13.4 12.15 13.5 11.6 13.6 11.6 14.1 11.6 14.4 12.2 14.4 L12.0 14.6 Q10.4 16.2 7.55 16.85 L5.55 16.85 3.9 16.4 Q2.8 16.0 2.8 15.6 2.8 15.5 3.25 15.35 L3.55 14.25 3.5 13.6 3.0 13.1 Q3.0 12.55 2.5 12.55 L2.45 12.55 2.2 12.2 2.15 12.15 2.1 12.15 2.1 12.1 1.75 11.85 -0.25 11.65 -0.3 11.65 -0.95 11.95 -2.05 12.35 -2.3 12.75 -2.75 13.7 Q-2.95 14.7 -3.35 15.0 L-4.15 15.6 -4.8 15.8 -6.0 15.9 -7.8 15.9 Q-7.45 15.9 -7.45 15.45 -7.45 15.15 -7.9 15.1 -8.35 15.05 -8.35 15.4 L-7.85 15.9 -8.25 15.9 -9.1 15.75 -9.2 15.75 Q-10.25 15.75 -11.6 14.75 L-13.1 13.35 -13.6 12.05 -13.65 10.7 Q-13.65 8.95 -13.15 7.95 L-13.15 7.7 -13.1 7.55 Q-12.8 6.45 -11.85 5.35 L-10.4 3.6 -10.5 3.25 Q-12.25 3.05 -13.55 4.8 L-13.55 4.6 -13.7 4.25 Q-14.35 4.3 -15.2 5.25 L-15.45 5.6 Q-16.15 5.65 -16.75 6.2 L-16.75 6.15 -16.6 6.0 -16.55 5.95 -15.3 4.95 -12.55 3.55 M14.45 8.4 L15.2 9.85 15.65 10.55 14.95 11.1 14.95 11.05 14.7 10.3 Q14.5 9.1 13.7 7.9 L13.75 7.75 14.0 7.95 14.1 8.05 14.45 8.4 M12.8 6.3 L12.3 5.6 Q12.3 4.8 13.3 4.8 14.85 4.8 16.8 8.4 16.8 9.45 16.2 9.4 L15.95 9.3 15.45 8.5 13.55 6.75 12.8 6.3 M16.95 7.7 L16.35 6.65 16.35 6.6 16.0 5.85 16.25 6.05 17.25 7.2 16.95 7.7 M-5.5 8.3 L-5.7 8.45 Q-4.85 9.6 -4.85 10.05 -4.85 10.85 -5.35 11.7 -6.1 13.0 -7.6 13.0 L-9.0 12.8 Q-11.15 12.15 -11.15 10.6 L-10.9 9.4 Q-10.65 8.55 -10.2 8.45 L-10.25 8.35 Q-11.45 8.7 -11.8 9.55 L-12.0 11.1 -11.95 11.3 -12.2 11.0 -12.15 11.5 -11.6 12.7 Q-10.65 13.75 -9.9 14.2 L-9.9 14.15 Q-9.9 13.85 -9.7 13.85 L-9.6 13.85 -10.7 13.35 Q-11.85 12.7 -11.85 12.0 L-11.85 11.9 -11.7 11.95 -11.0 12.75 Q-9.7 13.9 -7.65 13.9 L-7.1 13.9 -8.25 14.05 -9.25 13.95 -9.05 14.05 -8.55 14.2 -6.6 14.0 Q-6.2 13.7 -5.6 13.5 L-5.55 13.45 -5.9 13.55 Q-5.2 13.2 -4.75 12.45 -4.25 11.6 -4.25 10.4 -4.6 8.3 -5.5 8.3 M-1.45 6.25 Q-1.55 7.1 -1.05 7.1 -0.65 7.1 -0.65 6.25 -0.65 5.4 -1.05 5.4 -1.45 5.4 -1.45 6.25 M1.9 12.25 L1.85 12.4 1.9 12.55 1.65 12.55 1.75 13.0 1.5 13.55 1.3 13.75 0.7 13.85 Q-0.35 13.8 -0.35 13.15 -0.35 12.8 -0.15 12.6 L-0.25 12.6 0.1 12.25 0.05 12.1 -0.3 12.1 -0.35 12.1 0.4 11.95 0.35 11.85 0.05 11.75 0.95 11.95 1.9 12.25 M-1.75 12.55 L-1.75 12.6 -1.95 12.6 -1.75 12.55 M-18.95 9.0 L-17.95 7.75 -18.3 8.4 -18.9 9.85 -19.15 9.4 -18.95 9.0 M-17.0 8.75 L-17.35 9.1 -17.55 9.65 -17.85 11.15 Q-18.15 12.1 -18.65 12.1 L-19.0 11.95 -19.1 11.75 Q-19.1 10.35 -18.1 8.6 L-17.35 7.0 Q-16.9 6.05 -15.7 6.05 -14.75 6.0 -14.55 6.4 -14.2 6.45 -14.2 7.05 L-14.25 7.2 -14.9 7.55 Q-16.05 7.9 -17.0 8.75 M-15.9 9.8 L-15.25 9.1 -15.2 9.05 -15.4 10.4 -15.9 9.8 M-1.55 17.85 Q-0.5 17.05 0.05 17.0 L0.15 17.0 Q-0.55 17.15 -1.55 17.85 M2.1 17.95 L2.4 18.2 2.25 18.15 2.1 17.95 M-11.4 14.1 L-11.45 14.5 Q-11.45 14.9 -10.75 14.9 -10.35 14.9 -10.35 14.35 -10.35 13.9 -10.7 13.9 L-11.4 14.1 M13.65 7.7 L13.65 7.75 13.65 7.85 13.45 7.55 13.6 7.65 13.65 7.7 M12.1 11.15 Q12.1 10.3 11.5 9.45 L11.45 9.4 10.6 8.25 10.05 7.8 Q8.7 7.0 6.8 7.8 8.5 7.75 9.75 8.7 10.85 9.5 10.85 10.25 10.85 10.8 10.3 11.5 9.5 12.5 8.1 12.5 6.3 12.5 5.55 11.05 5.1 10.2 5.1 9.2 L5.7 8.4 6.45 7.75 5.9 7.6 Q4.35 7.6 4.35 10.05 4.35 10.85 5.2 12.15 6.25 13.7 7.35 13.35 L9.0 13.4 10.8 12.3 10.85 12.4 11.2 12.5 11.8 11.9 12.1 11.15 M2.1 4.7 Q1.6 4.7 1.6 5.3 L1.8 5.75 Q2.1 6.15 2.65 6.15 3.05 6.15 3.05 5.7 L2.8 5.15 2.1 4.7 M2.7 10.3 L2.75 10.3 2.75 10.2 2.7 10.3 M9.45 13.9 Q10.3 13.65 10.75 13.15 L11.05 12.85 10.55 13.05 Q9.1 13.8 7.2 13.85 L8.7 14.0 9.3 14.0 9.45 13.9 M9.85 15.35 Q9.85 14.9 9.35 14.9 8.9 14.9 8.9 15.35 8.9 15.9 9.5 15.9 9.85 15.9 9.85 15.35" fill="#ffffff" fill-rule="evenodd" stroke="none"/>
      <path d="M-5.1 0.2 L-5.15 0.25 -5.9 0.25 -6.0 0.25 -5.85 0.2 -5.1 0.2 M-7.25 3.05 Q-7.1 2.4 -6.55 2.3 L-6.6 2.35 -6.6 2.8 -6.7 3.2 -6.6 3.95 Q-6.3 4.5 -5.4 4.5 L-4.7 4.3 -4.65 4.45 Q-4.65 5.15 -5.9 5.15 -6.6 5.15 -7.05 4.55 L-7.35 3.8 -7.3 3.45 -7.25 3.05 M-3.2 6.35 Q-4.2 6.35 -4.55 5.85 L-4.7 5.35 -4.6 4.85 -4.5 4.85 -4.3 5.45 Q-4.05 5.8 -3.55 5.75 L-3.0 5.75 Q-2.9 5.6 -2.7 5.6 -2.5 5.6 -2.45 5.8 L-2.45 5.85 Q-2.45 6.35 -3.2 6.35 M12.65 13.85 L12.65 14.0 Q12.65 14.4 12.2 14.4 11.6 14.4 11.6 14.1 11.6 13.6 12.15 13.5 12.6 13.4 12.65 13.85 M2.65 14.1 Q2.5 15.5 1.8 15.7 1.95 16.4 3.0 17.2 4.65 18.4 7.4 18.4 10.6 18.45 13.0 16.0 14.85 14.1 14.85 12.95 L14.85 12.85 15.2 12.2 15.6 13.25 15.35 14.65 15.6 14.6 15.55 15.45 14.2 17.3 Q12.15 19.45 7.25 19.75 L6.6 19.55 5.9 19.65 Q4.15 19.65 2.7 18.25 L2.4 18.2 2.1 17.95 2.05 17.85 Q1.9 17.6 1.75 17.6 L1.35 17.35 0.55 16.95 0.15 17.0 0.05 17.0 Q-0.5 17.05 -1.55 17.85 L-2.25 18.3 -2.75 18.7 Q-4.55 19.45 -5.95 19.45 -8.4 19.45 -11.25 18.2 -11.95 17.9 -12.55 17.7 L-15.7 13.35 Q-15.45 13.5 -15.15 13.8 L-14.15 14.05 Q-14.95 12.75 -15.15 11.75 -15.5 11.75 -15.45 10.75 L-15.4 10.4 -15.2 9.05 -15.25 9.1 -15.9 9.8 -16.1 10.0 -16.1 10.1 -16.35 10.8 -16.45 11.0 -16.1 10.0 -16.5 10.65 -16.8 11.7 -16.5 11.15 -16.95 12.5 Q-17.5 14.15 -18.25 14.15 L-18.55 13.95 Q-18.6 14.4 -18.9 14.65 L-19.3 15.75 Q-19.85 17.3 -20.25 17.3 -20.95 17.3 -20.8 16.5 L-20.55 14.8 -20.7 14.5 -20.45 14.3 -20.4 14.2 -20.45 14.05 -20.35 14.0 -19.95 12.45 -20.1 13.55 -20.25 13.8 -20.1 14.05 -20.1 14.1 -19.85 14.3 Q-19.4 14.3 -19.2 13.95 L-19.1 13.6 Q-18.85 13.15 -18.7 13.3 -17.35 12.0 -17.1 10.45 -17.25 9.75 -16.1 8.85 -15.45 8.3 -14.6 7.85 L-14.5 7.7 -14.05 7.2 -13.65 6.95 -13.45 7.0 Q-14.35 8.1 -14.7 9.3 L-14.95 10.9 Q-14.65 12.3 -13.5 13.85 -12.3 15.5 -10.5 16.4 L-10.5 16.35 Q-10.5 15.75 -9.85 15.75 -9.5 15.75 -9.4 16.0 L-9.35 16.3 -9.45 16.65 -9.6 16.75 -5.95 17.35 Q-4.4 17.35 -3.2 16.7 -2.1 16.1 -2.1 15.5 -2.1 15.15 -2.25 14.95 L-2.45 14.6 -2.75 13.75 -2.75 13.7 -2.3 12.75 -1.95 12.6 -1.75 12.6 -1.8 12.75 Q-2.15 12.9 -2.15 13.65 -2.15 14.05 -1.55 14.5 -0.75 15.1 0.55 15.1 1.65 15.1 2.4 14.35 L2.65 14.1 M15.75 12.25 L15.7 12.15 15.75 12.05 15.75 12.25 M15.95 11.0 L14.95 9.0 14.45 8.4 14.1 8.05 14.0 7.95 13.2 7.25 11.0 5.45 12.8 6.3 13.55 6.75 15.45 8.5 15.95 9.3 Q17.2 11.5 17.2 12.15 L17.2 12.2 17.3 12.2 Q18.3 12.2 18.3 11.25 L17.45 8.8 17.0 7.8 17.65 8.45 18.55 9.8 19.0 12.45 19.2 14.55 Q19.2 15.4 18.65 15.4 L17.15 12.5 17.1 12.5 16.75 12.8 Q16.6 12.8 16.15 11.6 L15.95 11.0 M-1.45 6.25 Q-1.45 5.4 -1.05 5.4 -0.65 5.4 -0.65 6.25 -0.65 7.1 -1.05 7.1 -1.55 7.1 -1.45 6.25 M-7.85 15.9 L-8.35 15.4 Q-8.35 15.05 -7.9 15.1 -7.45 15.15 -7.45 15.45 -7.45 15.9 -7.8 15.9 L-7.85 15.9 M-18.85 8.45 L-19.0 8.85 -18.95 9.0 -19.15 9.4 -19.3 8.95 -18.85 8.45 M-19.0 10.15 L-19.25 11.05 -19.7 11.75 -19.0 10.15 M-11.4 14.1 L-10.7 13.9 Q-10.35 13.9 -10.35 14.35 -10.35 14.9 -10.75 14.9 -11.45 14.9 -11.45 14.5 L-11.4 14.1 M-19.55 14.9 L-19.75 14.9 -19.65 14.9 -19.55 14.9 M2.1 4.7 L2.8 5.15 3.05 5.7 Q3.05 6.15 2.65 6.15 2.1 6.15 1.8 5.75 L1.6 5.3 Q1.6 4.7 2.1 4.7 M9.85 15.35 Q9.85 15.9 9.5 15.9 8.9 15.9 8.9 15.35 8.9 14.9 9.35 14.9 9.85 14.9 9.85 15.35 M0.9 16.65 L1.8 17.3 1.55 16.95 0.4 16.2 0.4 16.25 0.9 16.65 M12.05 16.2 Q12.05 16.8 11.65 16.8 11.2 16.8 11.15 16.6 L11.15 16.4 Q11.15 16.05 11.6 15.95 12.05 15.85 12.05 16.2" fill="#878bad" fill-rule="evenodd" stroke="none"/>
      <path d="M2.45 12.55 L2.5 12.85 Q2.5 14.5 -0.1 14.5 -0.75 14.5 -1.2 14.05 -1.6 13.65 -1.6 13.15 -1.6 12.25 -0.95 12.25 L-0.5 12.3 -0.25 12.15 -0.3 12.1 0.05 12.1 0.1 12.25 -0.25 12.6 -0.15 12.6 Q-0.35 12.8 -0.35 13.15 -0.35 13.8 0.7 13.85 L1.3 13.75 1.5 13.55 1.75 13.0 1.65 12.55 1.9 12.55 1.85 12.4 1.9 12.25 Q1.95 12.05 2.1 12.15 L2.15 12.15 2.2 12.2 2.45 12.55 M-0.3 12.1 L-0.4 12.15 -0.35 12.1 -0.3 12.1" fill="#b8b1b1" fill-rule="evenodd" stroke="none"/>
      <path d="M3.0 13.1 L2.95 13.35 2.65 14.1 2.4 14.35 Q1.65 15.1 0.55 15.1 -0.75 15.1 -1.55 14.5 -2.15 14.05 -2.15 13.65 -2.15 12.9 -1.8 12.75 L-1.75 12.6 -1.75 12.55 -1.55 12.25 -0.55 12.15 -0.4 12.15 -0.3 12.1 -0.25 12.15 -0.5 12.3 -0.95 12.25 Q-1.6 12.25 -1.6 13.15 -1.6 13.65 -1.2 14.05 -0.75 14.5 -0.1 14.5 2.5 14.5 2.5 12.85 L2.45 12.55 2.5 12.55 Q3.0 12.55 3.0 13.1" fill="#54545e" fill-rule="evenodd" stroke="none"/>
      <path d="M10.4 5.4 L10.35 5.4 10.2 5.2 Q13.5 6.75 15.65 9.7 L15.7 9.8 16.65 11.5 16.75 11.5 Q17.25 11.55 17.65 11.9 L17.0 12.0 17.85 13.15 18.7 15.05 18.75 15.05 18.85 12.75 Q18.75 11.3 17.8 9.25 16.85 7.15 15.1 5.6 L12.55 3.6 11.6 3.0 Q8.85 1.05 3.85 0.55 L-6.1 1.05 Q-11.6 2.3 -15.65 6.05 L-17.95 8.7 -18.65 9.75 -19.0 10.65 -19.05 10.9 -19.15 11.1 Q-20.3 14.0 -20.3 16.05 L-20.2 16.5 -20.2 16.6 -20.15 16.65 -20.1 16.6 -20.05 16.6 -19.25 15.3 -19.1 14.95 -18.5 13.7 -17.65 12.75 -16.95 11.5 -16.0 9.25 -14.75 7.95 -14.55 7.8 -14.5 7.8 -14.7 8.15 -15.1 9.65 -15.1 9.75 -15.15 9.8 -15.15 10.6 -15.15 10.8 Q-13.9 10.8 -12.15 11.45 -10.4 12.1 -9.25 12.85 L-9.25 12.95 -9.5 13.05 -11.15 12.6 -12.95 12.05 -14.7 11.75 -15.0 11.7 Q-14.7 13.55 -13.5 15.0 L-11.6 14.6 -11.45 14.85 -12.85 15.75 -12.1 16.45 Q-7.0 20.5 -1.45 17.05 0.1 16.25 0.45 15.8 L0.75 15.9 0.85 16.25 2.8 18.1 Q4.2 18.8 7.35 19.15 L9.35 19.15 11.15 18.45 Q12.95 17.5 13.95 16.3 L13.8 16.25 Q12.7 15.7 11.45 15.6 L11.35 15.3 Q11.35 14.85 12.35 14.95 L13.95 15.4 14.4 15.7 Q15.1 14.5 15.1 13.1 L14.85 12.05 11.75 12.5 10.1 13.0 9.45 12.85 9.35 12.6 Q9.35 11.8 14.35 11.3 L14.7 11.35 14.55 10.8 14.15 9.8 Q14.0 7.5 10.4 5.4 M13.6 3.2 L15.8 5.0 Q17.3 6.3 18.15 8.15 L19.05 10.15 Q19.55 11.6 19.6 13.15 L19.65 15.9 19.4 17.95 19.4 17.9 19.0 18.25 Q18.8 18.25 18.5 17.15 L17.5 13.9 17.15 13.15 16.45 12.05 16.45 13.1 Q16.25 14.85 15.1 16.3 L15.5 16.75 15.25 17.1 14.7 16.75 12.95 18.15 10.95 19.25 Q10.2 19.95 8.3 19.9 L8.0 19.9 4.95 19.5 Q3.65 19.2 2.55 18.55 1.15 17.8 0.7 17.15 -0.25 17.0 -1.45 17.95 -6.95 21.4 -12.4 17.8 L-14.05 16.45 -15.6 17.2 -15.85 17.15 -16.0 16.9 Q-16.0 16.35 -14.75 15.65 -15.9 14.1 -16.2 12.15 L-16.9 13.1 Q-18.7 15.15 -19.3 16.65 -19.9 18.1 -20.3 18.2 L-20.3 18.3 Q-20.3 18.75 -20.65 18.75 -21.25 18.75 -21.2 14.15 L-21.05 12.95 -20.05 10.55 -19.65 9.75 Q-18.05 6.85 -16.7 5.55 -15.35 4.15 -11.7 1.9 -8.05 -0.35 -2.55 -0.6 L2.35 -0.65 Q8.5 -0.05 11.85 2.05 L13.6 3.2" fill="#000000" fill-rule="evenodd" stroke="none"/>
      <path d="M0.55 12.3 Q-1.9 12.3 -1.9 13.35 -1.9 13.9 -1.15 14.5 -0.55 15.1 0.15 15.1 L1.6 14.8 Q2.4 14.65 2.7 13.45 3.0 12.3 0.55 12.3 M3.5 13.6 Q3.5 14.4 2.65 15.1 1.75 15.85 0.5 15.85 -1.2 15.8 -2.25 14.95 -3.0 14.25 -3.0 13.6 -3.0 12.85 -2.3 12.25 -1.4 11.5 0.3 11.55 3.5 11.65 3.5 13.6" fill="#000000" fill-rule="evenodd" stroke="none"/>
      <path d="M-7.15 7.55 Q-4.8 8.05 -4.2 8.75 -3.85 9.15 -3.85 10.3 -3.85 11.6 -4.5 12.65 -5.55 14.45 -7.85 14.45 -10.6 14.4 -11.7 12.85 -12.3 12.0 -12.3 10.9 -12.3 9.5 -11.75 8.85 -11.0 7.9 -8.9 7.55 L-7.15 7.55 M-8.9 8.15 Q-10.15 8.2 -11.1 9.3 -11.9 10.2 -11.9 10.95 -11.9 11.8 -11.15 12.55 -10.05 13.7 -7.85 13.7 -5.85 13.7 -5.0 12.1 -4.5 11.25 -4.5 10.35 -4.5 9.45 -4.75 9.1 -5.3 8.4 -7.15 8.15 L-8.9 8.15 M-7.0 10.55 Q-7.0 11.65 -7.95 11.65 -9.25 11.65 -9.25 10.95 -9.25 9.65 -8.05 9.65 -7.0 9.65 -7.0 10.55" fill="#000000" fill-rule="evenodd" stroke="none"/>
      <path d="M7.1 10.2 Q7.1 9.3 8.15 9.3 9.3 9.3 9.3 10.55 9.3 11.3 8.05 11.3 7.1 11.3 7.1 10.2 M11.8 8.6 Q12.35 9.25 12.35 10.6 12.35 11.7 11.75 12.55 10.65 14.1 7.95 14.05 5.65 14.05 4.6 12.25 4.0 11.25 4.0 9.95 4.0 8.8 4.3 8.45 4.95 7.7 7.25 7.2 L9.0 7.2 Q11.1 7.7 11.8 8.6 M11.95 10.65 Q11.95 9.95 11.15 9.0 10.25 7.9 9.0 7.8 L7.25 7.8 Q5.4 8.05 4.85 8.75 4.6 9.1 4.6 10.0 4.6 10.85 5.1 11.7 5.95 13.3 7.95 13.3 10.1 13.3 11.2 12.25 11.95 11.5 11.95 10.65" fill="#000000" fill-rule="evenodd" stroke="none"/>
    </g>
    <g id="sprite1">
      <use ffdec:characterId="2" height="24.55" transform="matrix(1.0, 0.0, 0.0, 1.0, 0.0, 0.0)" width="26.9" xlink:href="#shape1"/>
    </g>
    <g id="shape1">
      <path d="M5.65 -10.15 L5.6 -9.85 5.75 -9.6 5.65 -9.55 Q4.25 -9.35 2.8 -8.25 1.8 -7.5 1.5 -6.95 0.0 -6.85 -1.05 -6.15 L-1.4 -5.8 Q-2.05 -5.75 -2.75 -5.3 L-5.15 -4.45 -5.45 -4.2 -5.95 -3.95 Q-7.35 -3.15 -7.7 -1.95 -9.4 -1.0 -10.7 1.6 -12.15 4.55 -12.15 6.25 L-12.05 7.3 -12.25 8.75 -12.0 10.55 -12.2 10.3 -12.45 7.8 Q-12.45 6.05 -11.35 1.2 -10.25 -3.65 -5.9 -5.2 -2.35 -6.45 -0.65 -6.5 L5.2 -10.0 5.65 -10.15 M-6.6 11.75 L-6.45 11.25 -6.5 10.65 -6.15 10.6 -6.0 10.55 -6.0 11.1 -6.6 11.75 M-7.5 7.15 L-7.65 6.1 Q-7.65 3.65 -6.5 2.5 -6.25 1.75 -5.6 1.15 -4.5 0.2 -4.5 -0.4 L-4.7 -0.75 -4.85 -0.9 -5.2 -1.2 -5.0 -1.45 -4.9 -1.4 -4.85 -1.4 -4.0 -1.15 Q-1.65 -0.4 -0.65 -0.4 2.6 -0.4 6.0 -1.7 8.2 -2.55 9.25 -3.35 L9.35 -3.4 9.4 -3.45 Q11.0 -4.35 11.4 -4.85 L12.55 -6.7 12.6 -8.3 Q12.6 -11.55 9.4 -11.4 11.35 -11.75 12.25 -11.05 13.1 -10.4 13.1 -7.95 13.1 -4.45 11.0 -2.4 9.9 -1.4 8.2 -0.55 L5.9 0.4 0.75 1.7 Q0.85 2.5 -0.25 3.65 L-0.3 3.5 Q0.05 3.05 0.05 2.8 L0.05 2.35 0.05 2.1 Q0.05 0.9 -0.55 1.3 L-1.45 1.25 -1.65 1.05 0.0 0.95 Q-1.6 0.8 -3.1 0.1 L-3.45 0.55 -3.75 1.0 -4.5 1.7 Q-5.4 2.55 -5.75 3.35 L-6.05 3.6 Q-6.8 4.5 -7.1 5.45 L-7.5 7.05 -7.5 7.15" fill="#878bad" fill-rule="evenodd" stroke="none"/>
      <path d="M-5.45 -4.2 L-5.8 -3.25 Q-5.8 -2.3 -4.6 -2.15 L-3.35 -1.65 Q-1.55 -1.05 -0.35 -1.05 1.1 -1.05 2.15 -1.7 2.95 -2.2 2.95 -2.45 2.95 -4.05 0.85 -4.55 L2.15 -4.3 Q3.3 -3.2 6.1 -3.2 8.1 -3.2 10.0 -5.3 11.65 -7.15 11.65 -8.3 11.65 -10.95 8.65 -11.2 L8.1 -11.25 9.4 -11.4 Q12.6 -11.55 12.6 -8.3 L12.55 -6.7 11.4 -4.85 Q11.0 -4.35 9.4 -3.45 L9.35 -3.4 9.25 -3.35 Q8.2 -2.55 6.0 -1.7 2.6 -0.4 -0.65 -0.4 -1.65 -0.4 -4.0 -1.15 L-4.85 -1.4 -4.9 -1.4 -5.0 -1.45 -5.2 -1.2 -4.85 -0.9 -4.7 -0.75 -4.5 -0.4 Q-4.5 0.2 -5.6 1.15 -6.25 1.75 -6.5 2.5 -7.65 3.65 -7.65 6.1 L-7.5 7.15 -7.8 8.7 -7.6 9.75 Q-7.25 10.65 -6.7 10.65 L-6.5 10.65 -6.45 11.25 -6.6 11.75 Q-7.1 12.45 -9.15 12.45 -10.2 12.45 -11.9 10.75 L-12.0 10.55 -12.25 8.75 -12.05 7.3 -12.15 6.25 Q-12.15 4.55 -10.7 1.6 -9.4 -1.0 -7.7 -1.95 -7.35 -3.15 -5.95 -3.95 L-5.45 -4.2 M5.75 -9.6 L5.8 -9.6 5.65 -9.55 5.75 -9.6 M6.7 -9.95 L6.1 -9.75 6.7 -10.0 7.15 -10.05 6.7 -9.95 M-1.65 1.05 L-2.5 0.8 -3.75 1.0 -3.45 0.55 -3.1 0.1 Q-1.6 0.8 0.0 0.95 L-1.65 1.05 M-8.5 -0.2 Q-11.1 2.65 -11.1 5.65 L-11.0 7.05 Q-10.7 8.0 -9.55 8.0 -7.95 8.0 -7.95 4.1 -7.95 3.7 -6.95 2.25 -5.95 0.8 -5.95 -0.1 -5.95 -3.05 -8.5 -0.2" fill="#cdd8e9" fill-rule="evenodd" stroke="none"/>
      <path d="M8.1 -11.25 L8.65 -11.2 Q11.65 -10.95 11.65 -8.3 11.65 -7.15 10.0 -5.3 8.1 -3.2 6.1 -3.2 3.3 -3.2 2.15 -4.3 L0.85 -4.55 Q2.95 -4.05 2.95 -2.45 2.95 -2.2 2.15 -1.7 1.1 -1.05 -0.35 -1.05 -1.55 -1.05 -3.35 -1.65 L-4.6 -2.15 Q-5.8 -2.3 -5.8 -3.25 L-5.45 -4.2 -5.15 -4.45 -2.75 -5.3 Q-2.05 -5.75 -1.4 -5.8 L-1.05 -6.15 Q0.0 -6.85 1.5 -6.95 1.8 -7.5 2.8 -8.25 4.25 -9.35 5.65 -9.55 L5.8 -9.6 5.75 -9.6 5.6 -9.85 5.65 -10.15 Q5.9 -11.35 8.1 -11.25 M6.7 -9.95 L7.15 -10.05 6.7 -10.0 6.1 -9.75 6.7 -9.95 M-8.5 -0.2 Q-5.95 -3.05 -5.95 -0.1 -5.95 0.8 -6.95 2.25 -7.95 3.7 -7.95 4.1 -7.95 8.0 -9.55 8.0 -10.7 8.0 -11.0 7.05 L-11.1 5.65 Q-11.1 2.65 -8.5 -0.2" fill="#ffffff" fill-rule="evenodd" stroke="none"/>
      <path d="M-2.55 5.55 L-2.6 5.6 -3.7 6.45 -4.1 6.8 -2.55 5.55 M-4.3 7.05 L-4.45 7.3 Q-4.65 8.85 -5.45 9.05 -5.4 8.3 -4.55 7.3 L-4.3 7.05 M-5.8 10.35 L-6.0 10.55 -6.15 10.6 -5.8 10.35" fill="#54545e" fill-rule="evenodd" stroke="none"/>
      <path d="M-1.4 4.75 L-1.5 4.8 -2.2 5.25 Q-3.8 6.1 -4.45 6.95 L-6.3 9.75 -6.55 8.75 -6.15 7.2 -5.45 5.4 -3.05 3.75 Q-1.0 2.6 -1.0 4.0 -1.0 4.35 -1.4 4.75" fill="#9a9a9a" fill-rule="evenodd" stroke="none"/>
      <path d="M-6.5 10.65 L-6.7 10.65 Q-7.25 10.65 -7.6 9.75 L-7.8 8.7 -7.5 7.15 -7.5 7.05 -7.35 6.5 -6.55 4.45 Q-5.25 2.85 -3.75 2.4 -0.7 1.9 -0.3 3.5 L-0.25 3.65 -0.25 3.9 -0.85 4.3 -1.4 4.75 Q-1.0 4.35 -1.0 4.0 -1.0 2.6 -3.05 3.75 L-5.45 5.4 -6.15 7.2 -6.55 8.75 -6.3 9.75 -4.45 6.95 Q-3.8 6.1 -2.2 5.25 L-1.5 4.8 -2.0 5.3 -2.55 5.55 -4.1 6.8 -4.3 7.05 -4.55 7.3 Q-5.4 8.3 -5.45 9.05 L-5.55 9.95 -5.8 10.35 -6.15 10.6 -6.5 10.65" fill="#626262" fill-rule="evenodd" stroke="none"/>
      <path d="M-1.65 1.05 L-1.45 1.25 -0.55 1.3 Q0.05 0.9 0.05 2.1 L0.05 2.35 0.05 2.8 Q0.05 3.05 -0.3 3.5 -0.7 1.9 -3.75 2.4 -5.25 2.85 -6.55 4.45 L-7.35 6.5 -7.5 7.05 -7.1 5.45 Q-6.8 4.5 -6.05 3.6 L-5.75 3.35 Q-5.4 2.55 -4.5 1.7 L-3.75 1.0 -2.5 0.8 -1.65 1.05" fill="#282828" fill-rule="evenodd" stroke="none"/>
      <path d="M9.6 -11.15 L9.6 -10.9 Q9.7 -10.55 9.3 -10.55 L8.35 -10.85 Q7.8 -10.85 6.95 -10.3 L7.1 -9.95 Q7.1 -9.4 6.3 -9.4 L5.9 -9.45 5.7 -9.05 Q5.3 -7.7 4.8 -7.7 4.45 -7.7 4.45 -8.05 L4.5 -8.4 3.75 -8.2 Q3.5 -8.2 3.45 -8.35 L2.5 -7.4 1.35 -6.15 1.1 -6.25 1.0 -6.2 0.6 -6.0 Q0.35 -6.0 0.25 -6.15 L0.15 -6.15 -0.1 -5.85 -0.7 -5.35 -0.85 -5.35 -1.6 -4.9 Q-2.1 -4.9 -2.1 -5.5 L-2.05 -5.75 -1.45 -6.6 Q-0.65 -7.45 0.2 -7.25 L1.0 -7.05 1.05 -7.0 Q1.35 -7.9 3.05 -9.15 4.75 -10.45 5.0 -9.7 5.65 -10.6 7.05 -11.25 L9.6 -11.15 M12.65 -6.95 Q12.35 -6.45 11.8 -6.45 L11.6 -6.65 11.9 -7.3 12.15 -8.35 11.75 -9.7 10.85 -10.4 10.25 -10.95 10.3 -11.15 10.7 -11.15 Q11.65 -11.15 12.3 -10.35 L12.9 -9.0 Q12.95 -7.6 12.65 -6.95 M4.5 -8.95 L4.45 -9.05 4.3 -9.05 4.5 -8.95" fill="#ffffff" fill-rule="evenodd" stroke="none"/>
      <path d="M9.6 -11.15 L7.05 -11.25 Q5.65 -10.6 5.0 -9.7 4.75 -10.45 3.05 -9.15 1.35 -7.9 1.05 -7.0 L1.0 -7.05 0.2 -7.25 Q-0.65 -7.45 -1.45 -6.6 L-2.05 -5.75 -2.65 -5.6 Q-2.8 -6.0 -3.85 -5.95 -5.0 -5.65 -5.1 -5.0 -6.55 -4.55 -7.35 -3.9 -11.0 -0.75 -11.5 3.65 L-12.15 7.05 -12.25 7.85 -11.9 10.35 Q-11.85 11.0 -12.45 10.95 -13.05 10.9 -13.25 9.9 L-13.3 8.9 -13.3 7.7 -13.3 7.65 -13.45 6.45 Q-13.65 3.1 -11.4 -0.9 -8.55 -5.75 -3.9 -6.35 -1.3 -6.65 1.75 -8.7 L5.4 -10.9 6.15 -11.3 8.45 -11.9 Q11.9 -12.85 13.15 -9.75 L13.3 -9.25 13.4 -8.05 Q13.7 -5.25 12.1 -3.05 10.2 -0.6 7.5 0.45 L7.3 0.5 3.95 1.2 3.0 1.55 1.7 2.4 1.4 2.85 0.35 3.8 Q-3.9 6.35 -5.55 10.75 L-5.6 10.9 Q-5.85 12.1 -6.3 12.05 L-6.65 11.85 -6.25 9.75 Q-5.7 8.3 -4.4 6.85 L-3.6 6.1 -3.5 6.05 Q-1.35 4.85 -0.1 2.85 0.25 2.3 -0.3 2.0 L-0.35 1.95 -0.55 1.75 -1.55 1.3 -3.35 1.3 Q-4.5 1.4 -6.0 3.7 -7.5 5.95 -7.5 7.6 L-7.5 8.3 -7.4 8.75 -7.4 8.8 -7.45 8.8 -7.75 6.9 Q-7.75 5.2 -6.65 3.2 -5.45 1.05 -3.75 0.55 L-3.95 0.05 -3.9 0.05 -4.55 -0.4 -4.1 -0.3 -3.5 -0.1 -1.0 0.35 -0.4 0.9 1.1 1.15 Q2.6 1.15 2.95 0.5 L3.9 0.5 5.1 0.25 5.4 0.2 5.5 0.2 6.45 0.3 7.65 0.0 7.95 -0.45 7.95 -0.65 Q8.8 -0.7 9.55 -1.2 10.2 -1.65 10.2 -2.0 L10.2 -2.1 11.85 -3.45 12.4 -4.45 12.65 -5.5 12.5 -6.25 12.65 -6.95 Q12.95 -7.6 12.9 -9.0 L12.3 -10.35 Q11.65 -11.15 10.7 -11.15 L10.2 -11.25 9.6 -11.15" fill="#000000" fill-rule="evenodd" stroke="none"/>
      <path d="M-2.65 -5.6 L-2.65 -5.5 Q-2.65 -5.25 -3.7 -5.2 L-4.35 -4.85 Q-4.85 -4.55 -5.0 -4.55 L-5.15 -4.85 -5.1 -5.0 Q-5.0 -5.65 -3.85 -5.95 -2.8 -6.0 -2.65 -5.6 M-1.0 0.35 L-1.0 0.3 Q-1.0 -0.1 -0.55 -0.1 L0.0 0.05 1.05 0.2 2.05 0.0 2.3 -0.3 2.8 -0.35 3.0 0.0 2.95 0.5 Q2.6 1.15 1.1 1.15 L-0.4 0.9 -1.0 0.35 M5.5 0.2 Q4.85 -0.05 4.85 -0.65 L4.9 -0.8 5.25 -0.95 6.0 -0.6 6.7 -0.6 Q7.05 -0.7 6.95 -0.75 L6.85 -1.05 7.05 -1.4 7.45 -1.7 7.5 -1.7 7.6 -1.85 Q7.95 -2.25 8.5 -2.25 L9.05 -2.35 9.3 -2.6 9.5 -2.8 9.55 -2.8 10.0 -3.15 11.4 -4.4 Q12.25 -6.45 12.5 -6.25 L12.65 -5.5 12.4 -4.45 11.85 -3.45 10.2 -2.1 10.2 -2.0 Q10.2 -1.65 9.55 -1.2 8.8 -0.7 7.95 -0.65 L7.95 -0.45 7.65 0.0 6.45 0.3 5.5 0.2 M8.95 -1.8 L8.85 -1.75 8.95 -1.8" fill="#878bad" fill-rule="evenodd" stroke="none"/>
    </g>
    <g id="sprite2">
      <use ffdec:characterId="4" height="14.8" transform="matrix(1.0, 0.0, 0.0, 1.0, 0.0, 0.0)" width="15.35" xlink:href="#shape2"/>
    </g>
    <g id="shape2">
      <path d="M11.25 12.05 L11.45 11.95 11.7 11.7 Q15.65 8.1 12.6 3.0 L13.35 3.75 Q15.6 6.1 14.5 10.05 13.3 12.4 11.05 13.4 9.1 14.8 6.75 14.8 L4.95 14.65 4.15 14.45 Q1.7 14.45 0.35 11.45 -0.75 10.05 -0.35 8.0 L-0.5 7.4 Q-0.5 4.25 2.4 2.7 L2.5 2.8 1.2 4.7 0.55 5.85 0.5 6.35 Q0.3 13.65 7.25 13.5 L7.4 13.5 9.0 13.1 11.25 12.05" fill="#cdd8e9" fill-rule="evenodd" stroke="none"/>
      <path d="M11.25 12.05 L9.0 13.1 7.4 13.5 7.25 13.5 Q4.65 13.5 2.8 11.65 1.0 9.85 1.0 7.25 1.0 4.65 2.8 2.8 4.65 1.0 7.25 1.0 9.85 1.0 11.65 2.8 13.5 4.65 13.5 7.25 13.5 9.85 11.65 11.65 L11.25 12.05 M10.55 11.85 L11.25 10.7 Q11.25 9.3 9.1 10.45 L6.9 11.9 7.4 12.4 9.0 12.75 Q9.7 12.75 10.55 11.85 M10.8 4.8 L11.25 4.1 Q11.25 3.6 10.1 2.8 8.7 1.85 7.2 1.85 4.9 1.85 3.6 2.65 2.4 3.45 2.4 4.75 2.4 5.75 3.65 5.75 L5.25 4.7 Q6.7 3.65 8.55 3.65 9.3 3.65 10.8 4.8" fill="#d8d1d1" fill-rule="evenodd" stroke="none"/>
      <path d="M10.8 4.8 Q9.3 3.65 8.55 3.65 6.7 3.65 5.25 4.7 L3.65 5.75 Q2.4 5.75 2.4 4.75 2.4 3.45 3.6 2.65 4.9 1.85 7.2 1.85 8.7 1.85 10.1 2.8 11.25 3.6 11.25 4.1 L10.8 4.8 M10.55 11.85 Q9.7 12.75 9.0 12.75 L7.4 12.4 6.9 11.9 9.1 10.45 Q11.25 9.3 11.25 10.7 L10.55 11.85" fill="#ffffff" fill-rule="evenodd" stroke="none"/>
      <path d="M10.25 7.1 Q10.25 8.2 9.45 8.95 8.7 9.75 7.6 9.75 6.5 9.75 5.75 8.95 5.0 8.2 5.0 7.1 5.0 6.6 5.15 6.2 L6.15 7.35 7.05 7.95 8.5 8.05 9.7 7.6 10.25 7.1" fill="#5f0b0b" fill-rule="evenodd" stroke="none"/>
      <path d="M12.35 2.1 Q14.5 4.25 14.5 7.25 14.5 10.25 12.35 12.35 10.25 14.5 7.25 14.5 4.25 14.5 2.1 12.35 0.0 10.25 0.0 7.25 0.0 4.25 2.1 2.1 4.25 0.0 7.25 0.0 10.25 0.0 12.35 2.1 M13.5 7.25 Q13.5 4.65 11.65 2.8 9.85 1.0 7.25 1.0 4.65 1.0 2.8 2.8 1.0 4.65 1.0 7.25 1.0 9.85 2.8 11.65 4.65 13.5 7.25 13.5 9.85 13.5 11.65 11.65 13.5 9.85 13.5 7.25" fill="#000000" fill-rule="evenodd" stroke="none"/>
      <path d="M5.15 6.2 L5.75 5.25 Q6.5 4.5 7.6 4.5 8.7 4.5 9.45 5.25 10.25 6.0 10.25 7.1 L9.7 7.6 8.5 8.05 7.05 7.95 6.15 7.35 5.15 6.2 M7.95 5.05 Q6.45 4.9 6.45 5.95 L6.6 6.45 7.15 6.9 7.85 6.65 8.35 6.4 8.7 6.55 9.05 6.7 9.35 6.45 9.45 6.2 Q9.45 5.2 7.95 5.05" fill="#bd2f2f" fill-rule="evenodd" stroke="none"/>
      <path d="M7.95 5.05 Q9.45 5.2 9.45 6.2 L9.35 6.45 9.05 6.7 8.7 6.55 8.35 6.4 7.85 6.65 7.15 6.9 6.6 6.45 6.45 5.95 Q6.45 4.9 7.95 5.05" fill="#ffffff" fill-rule="evenodd" stroke="none"/>
    </g>
  </defs>
</svg>
