<?xml version="1.0" encoding="UTF-8" standalone="no"?>
<svg xmlns:ffdec="https://www.free-decompiler.com/flash" xmlns:xlink="http://www.w3.org/1999/xlink" ffdec:objectType="frame" height="64.2px" width="62.35px" xmlns="http://www.w3.org/2000/svg">
  <g transform="matrix(1.0, 0.0, 0.0, 1.0, 29.6, 42.6)">
    <use ffdec:characterId="19" height="20.9" transform="matrix(1.0, 0.0, 0.0, 1.0, -26.0, -4.7)" width="52.25" xlink:href="#sprite0"/>
    <use ffdec:characterId="23" height="39.05" transform="matrix(1.129, 0.0, 0.0, 1.0, -27.45, -32.25)" width="51.0" xlink:href="#sprite1"/>
    <use ffdec:characterId="8" height="43.5" transform="matrix(-1.3265, 0.0, 0.1072, 1.0793, 22.85, -14.65)" width="14.35" xlink:href="#sprite2"/>
    <use ffdec:characterId="8" height="43.5" transform="matrix(1.2551, 0.0, 0.0, 1.0, -23.65, -12.1)" width="14.35" xlink:href="#sprite3"/>
    <use ffdec:characterId="31" height="59.85" transform="matrix(1.0, 0.0, 0.0, 1.0, -31.25, -44.0)" width="58.05" xlink:href="#sprite4"/>
  </g>
  <defs>
    <g id="sprite0">
      <use ffdec:characterId="18" height="20.9" transform="matrix(1.0, 0.0, 0.0, 1.0, 0.0, 0.0)" width="52.25" xlink:href="#shape0"/>
    </g>
    <g id="shape0">
      <path d="M47.4 6.3 L47.65 0.0 50.45 0.0 Q53.8 6.5 51.0 13.0 46.85 17.15 44.0 18.3 36.0 22.45 26.8 18.9 35.75 18.25 38.8 16.65 41.85 15.0 44.4 12.65 L43.65 13.3 Q46.9 9.9 47.4 6.3 M5.1 7.8 Q5.9 10.6 7.65 12.55 9.4 14.5 11.4 15.6 L15.3 17.5 Q17.2 18.3 19.55 18.6 L23.05 18.95 25.05 18.9 20.65 20.35 17.0 20.9 Q15.05 21.15 10.65 18.35 7.85 17.25 5.4 15.7 L3.05 14.05 Q-2.45 8.3 1.95 0.0 L4.4 0.0 Q4.25 4.95 5.1 7.8" fill="#4c271f" fill-rule="evenodd" stroke="none"/>
    </g>
    <g id="sprite1">
      <use ffdec:characterId="20" height="35.55" transform="matrix(1.0, 0.0, 0.0, 1.0, 0.0, 0.0)" width="47.9" xlink:href="#shape1"/>
      <clipPath id="clipPath0">
        <path d="M 24.34 3.17 L 23.64 3.19 L 22.93 3.23 L 22.22 3.3 L 21.5 3.4 L 20.99 3.51 L 20.48 3.64 L 19.98 3.79 L 19.49 3.95 L 19.01 4.13 L 18.54 4.33 L 18.08 4.54 L 17.62 4.76 L 17.18 5 L 16.74 5.26 L 16.31 5.54 L 15.89 5.83 L 15.48 6.13 L 15.08 6.46 L 14.69 6.8 L 14.3 7.15 L 13.89 7.54 L 13.5 7.95 L 13.12 8.36 L 12.75 8.79 L 12.39 9.22 L 12.05 9.67 L 11.72 10.13 L 11.4 10.6 L 10.4 11.57 L 9.46 12.51 L 8.57 13.44 L 7.74 14.35 L 6.96 15.24 L 6.23 16.11 L 5.56 16.97 L 4.95 17.8 L 4.34 18.1 L 3.78 18.42 L 3.51 18.58 L 3.26 18.75 L 3.02 18.93 L 2.79 19.11 L 2.57 19.3 L 2.36 19.49 L 2.16 19.69 L 1.98 19.89 L 1.8 20.1 L 1.64 20.31 L 1.49 20.53 L 1.35 20.75 L 1.22 20.98 L 1.1 21.21 L 1 21.45 L 0.9 21.69 L 0.82 21.94 L 0.75 22.19 L 0.69 22.45 L 0.64 22.71 L 0.6 22.98 L 0.57 23.25 L 0.56 23.53 L 0.55 23.82 L 0.56 24.1 L 0.58 24.4 L 0.61 24.7 L 0.65 25 L 0.74 25.64 L 0.82 26.29 L 0.88 26.94 L 0.94 27.59 L 0.98 28.25 L 1.02 28.92 L 1.04 29.59 L 1.05 30.26 L 1.05 30.94 L 1.04 31.63 L 1.02 32.32 L 0.99 33.02 L 0.94 33.72 L 0.89 34.42 L 0.83 35.13 L 0.75 35.85 L 1.17 35.53 L 1.58 35.21 L 1.95 34.88 L 2.3 34.55 L 2.62 34.21 L 2.92 33.86 L 3.2 33.51 L 3.45 33.15 L 4.4 31.35 L 4.5 31.05 L 4.5 31 L 4.6 30.7 L 4.85 31.59 L 5.13 32.46 L 5.43 33.32 L 5.76 34.15 L 6.12 34.97 L 6.5 35.76 L 6.91 36.54 L 7.35 37.3 L 7.72 37.9 L 8.12 38.49 L 8.54 39.07 L 8.98 39.65 L 9.44 40.22 L 9.92 40.79 L 10.42 41.35 L 10.95 41.9 L 11.1 42.05 L 10.2 38.85 L 9.94 37.72 L 9.71 36.62 L 9.51 35.54 L 9.34 34.47 L 9.2 33.44 L 9.08 32.42 L 9 31.42 L 8.95 30.45 L 8.95 26.85 L 9.18 27.46 L 9.43 28.06 L 9.71 28.65 L 10.01 29.23 L 10.34 29.8 L 10.7 30.36 L 11.09 30.91 L 11.5 31.45 L 11.46 31.04 L 11.42 30.6 L 11.4 30.12 L 11.39 29.6 L 11.39 29.04 L 11.4 28.45 L 11.45 27.15 L 11.5 26.46 L 11.56 25.77 L 11.63 25.11 L 11.73 24.45 L 11.83 23.81 L 11.96 23.17 L 12.1 22.56 L 12.25 21.95 L 12.65 20.4 L 13.25 22.55 L 13.47 23.14 L 13.73 23.75 L 14.03 24.37 L 14.36 25 L 14.74 25.64 L 15.15 26.3 L 15.61 26.97 L 16.1 27.65 L 19.6 32.65 L 19.69 31.91 L 19.75 31.17 L 19.79 30.44 L 19.8 29.7 L 19.79 28.96 L 19.75 28.23 L 19.69 27.49 L 19.6 26.75 L 19.6 26.75 L 19.95 27.1 L 20.95 28.35 L 21.35 28.92 L 21.74 29.49 L 22.1 30.07 L 22.45 30.66 L 22.78 31.26 L 23.09 31.87 L 23.38 32.48 L 23.65 33.1 L 23.77 33.41 L 23.88 33.72 L 23.98 34.03 L 24.06 34.35 L 24.12 34.67 L 24.17 34.99 L 24.21 35.32 L 24.23 35.65 L 24.23 35.98 L 24.22 36.32 L 24.2 36.66 L 24.16 37 L 24.1 37.35 L 24.03 37.69 L 23.95 38.05 L 23.85 38.4 L 24.3 38.12 L 24.74 37.81 L 25.15 37.49 L 25.55 37.15 L 25.93 36.79 L 26.29 36.41 L 26.63 36.02 L 26.95 35.6 L 29.5 30.95 L 29.66 30.58 L 29.81 30.21 L 29.94 29.83 L 30.06 29.46 L 30.17 29.08 L 30.26 28.7 L 30.34 28.32 L 30.4 27.94 L 30.45 27.55 L 30.48 27.16 L 30.51 26.78 L 30.51 26.38 L 30.51 25.99 L 30.48 25.6 L 30.45 25.2 L 30.4 24.8 L 30.34 24.41 L 30.28 24.03 L 30.2 23.66 L 30.11 23.29 L 30.01 22.92 L 29.9 22.56 L 29.78 22.2 L 29.65 21.85 L 29.65 21.85 L 30.2 23.05 L 30.36 23.48 L 30.51 23.93 L 30.66 24.41 L 30.8 24.92 L 30.93 25.46 L 31.06 26.03 L 31.18 26.63 L 31.3 27.25 L 31.4 27.89 L 31.47 28.54 L 31.51 29.2 L 31.52 29.88 L 31.51 30.55 L 31.47 31.24 L 31.4 31.94 L 31.3 32.65 L 31.74 32.15 L 32.16 31.63 L 32.55 31.09 L 32.92 30.52 L 33.28 29.94 L 33.61 29.33 L 33.91 28.7 L 34.2 28.05 L 34.32 27.71 L 34.43 27.36 L 34.53 27.01 L 34.62 26.66 L 34.7 26.29 L 34.77 25.93 L 34.83 25.55 L 34.88 25.17 L 34.91 24.79 L 34.94 24.4 L 34.96 24.01 L 34.97 23.61 L 34.97 23.2 L 34.95 22.79 L 34.9 21.95 L 34.85 21.45 L 34.85 21.45 L 35.08 21.92 L 35.34 22.36 L 35.61 22.79 L 35.9 23.2 L 36.17 23.56 L 36.41 23.92 L 36.64 24.28 L 36.85 24.64 L 37.04 24.99 L 37.21 25.35 L 37.37 25.7 L 37.5 26.05 L 38.1 28.7 L 38.21 28.63 L 38.31 28.54 L 38.42 28.44 L 38.52 28.32 L 38.62 28.18 L 38.72 28.02 L 38.92 27.66 L 39.12 27.24 L 39.32 26.74 L 39.51 26.18 L 39.7 25.55 L 39.95 24.5 L 40.05 26.5 L 40.05 30.2 L 40 31.17 L 39.92 32.17 L 39.8 33.19 L 39.66 34.22 L 39.49 35.29 L 39.29 36.37 L 39.06 37.47 L 38.8 38.6 L 37.9 41.8 L 38.05 41.65 L 38.58 41.1 L 39.08 40.54 L 39.56 39.97 L 40.03 39.4 L 40.46 38.82 L 40.88 38.24 L 41.28 37.65 L 41.65 37.05 L 42.11 36.24 L 42.54 35.41 L 42.94 34.57 L 43.31 33.7 L 43.65 32.82 L 43.97 31.91 L 44.25 30.99 L 44.5 30.05 L 45 30.9 L 46.1 32.6 L 47.1 33.85 L 48.15 35.15 L 48.15 32.8 L 48.1 28.3 L 48.06 27.68 L 48 27.06 L 47.92 26.44 L 47.81 25.83 L 47.68 25.21 L 47.53 24.61 L 47.35 24 L 47.15 23.4 L 46.93 22.83 L 46.68 22.28 L 46.41 21.76 L 46.12 21.27 L 45.81 20.81 L 45.48 20.38 L 45.13 19.98 L 44.75 19.6 L 44.75 19.55 L 44.55 18.25 L 44.23 17.78 L 43.89 17.31 L 43.53 16.83 L 43.16 16.35 L 42.35 15.36 L 41.47 14.34 L 40.53 13.29 L 39.51 12.22 L 38.41 11.12 L 37.25 10 L 36.99 9.56 L 36.72 9.14 L 36.42 8.73 L 36.11 8.33 L 35.79 7.95 L 35.44 7.58 L 35.08 7.22 L 34.7 6.88 L 34.3 6.54 L 33.89 6.23 L 33.46 5.92 L 33.01 5.63 L 32.55 5.35 L 32.07 5.09 L 31.57 4.84 L 31.05 4.6 L 30.65 4.43 L 30.24 4.27 L 29.83 4.11 L 29.43 3.97 L 29.01 3.85 L 28.6 3.73 L 28.18 3.62 L 27.77 3.53 L 27.35 3.44 L 26.92 3.37 L 26.5 3.31 L 26.07 3.26 L 25.64 3.22 L 25.21 3.19 L 24.78 3.18 L 24.34 3.17 Z"/>
      </clipPath>
      <g clip-path="url(#clipPath0)">
        <use ffdec:characterId="22" height="29.1" transform="matrix(1.0, 0.0, 0.0, 1.0, 0.0, 0.0)" width="51.0" xlink:href="#shape2"/>
      </g>
    </g>
    <g id="shape1">
      <path d="M12.25 21.95 Q11.6 24.35 11.45 27.15 11.3 29.9 11.5 31.45 8.65 27.85 8.15 23.25 7.6 18.65 9.4 14.35 11.1 10.2 14.3 7.15 17.35 4.25 21.5 3.4 26.55 2.6 31.05 4.6 35.5 6.55 37.5 10.45 39.5 14.3 40.0 18.6 40.45 22.85 39.7 25.55 38.95 28.2 38.1 28.7 L37.5 26.05 Q37.0 24.65 35.9 23.2 35.3 22.4 34.85 21.45 L34.9 21.95 Q35.2 25.35 34.2 28.05 33.1 30.7 31.3 32.65 31.75 29.8 31.3 27.25 30.85 24.7 30.2 23.05 L29.65 21.85 Q30.2 23.25 30.4 24.8 30.85 28.0 29.5 30.95 L26.95 35.6 Q25.7 37.3 23.85 38.4 24.7 35.55 23.65 33.1 22.6 30.6 20.95 28.35 L19.6 26.7 Q20.0 29.65 19.6 32.65 L16.1 27.65 Q14.05 24.9 13.25 22.55 L12.65 20.4 12.25 21.95" fill="#3a3a46" fill-rule="evenodd" stroke="none"/>
      <path d="M12.25 21.95 Q11.6 24.35 11.45 27.15 11.3 29.9 11.5 31.45 8.65 27.85 8.15 23.25 7.6 18.65 9.4 14.35 11.1 10.2 14.3 7.15 17.35 4.25 21.5 3.4 26.55 2.6 31.05 4.6 35.5 6.55 37.5 10.45 39.5 14.3 40.0 18.6 40.45 22.85 39.7 25.55 38.95 28.2 38.1 28.7 L37.5 26.05 Q37.0 24.65 35.9 23.2 35.3 22.4 34.85 21.45 L34.9 21.95 Q35.2 25.35 34.2 28.05 33.1 30.7 31.3 32.65 31.75 29.8 31.3 27.25 30.85 24.7 30.2 23.05 L29.65 21.85 Q30.2 23.25 30.4 24.8 30.85 28.0 29.5 30.95 L26.95 35.6 Q25.7 37.3 23.85 38.4 24.7 35.55 23.65 33.1 22.6 30.6 20.95 28.35 L19.6 26.7 Q20.0 29.65 19.6 32.65 L16.1 27.65 Q14.05 24.9 13.25 22.55 L12.65 20.4 12.25 21.95 Z" ffdec:has-small-stroke="true" ffdec:original-stroke-width="0.3" fill="none" stroke="#101015" stroke-linecap="round" stroke-linejoin="round" stroke-width="0.9411573891412636"/>
      <path d="M3.45 33.15 Q2.5 34.6 0.75 35.85 1.4 30.1 0.65 25.0 -0.15 19.8 5.6 17.5 4.2 20.9 4.85 26.85 5.3 30.3 3.45 33.15" fill="#3a3a46" fill-rule="evenodd" stroke="none"/>
      <path d="M3.45 33.15 Q2.5 34.6 0.75 35.85 1.4 30.1 0.65 25.0 -0.15 19.8 5.6 17.5 4.2 20.9 4.85 26.85 5.3 30.3 3.45 33.15 Z" ffdec:has-small-stroke="true" ffdec:original-stroke-width="0.3" fill="none" stroke="#101015" stroke-linecap="round" stroke-linejoin="round" stroke-width="0.9411573891412636"/>
      <path d="M41.9 22.05 Q40.55 15.0 44.75 19.6 46.3 21.05 47.15 23.4 48.0 25.8 48.1 28.3 L48.15 32.8 48.15 35.15 47.1 33.85 Q45.3 31.75 44.35 29.7 L43.65 27.4 Q42.5 25.2 41.9 22.05" fill="#3a3a46" fill-rule="evenodd" stroke="none"/>
      <path d="M41.9 22.05 Q40.55 15.0 44.75 19.6 46.3 21.05 47.15 23.4 48.0 25.8 48.1 28.3 L48.15 32.8 48.15 35.15 47.1 33.85 Q45.3 31.75 44.35 29.7 L43.65 27.4 Q42.5 25.2 41.9 22.05 Z" ffdec:has-small-stroke="true" ffdec:original-stroke-width="0.3" fill="none" stroke="#101015" stroke-linecap="round" stroke-linejoin="round" stroke-width="0.9411573891412636"/>
      <path d="M20.55 27.7 L19.25 26.4 Q18.55 24.1 18.2 22.4 17.85 20.7 18.55 17.45 18.4 19.7 18.9 21.4 19.35 23.05 20.75 25.4 22.15 27.7 23.15 31.7 21.85 29.45 20.55 27.7" fill="#1d1d28" fill-rule="evenodd" stroke="none"/>
      <path d="M25.8 12.6 Q28.35 13.7 28.9 16.75 29.45 19.75 29.25 20.2 28.0 17.0 25.95 14.4 L25.0 13.15 25.8 12.6" fill="#1d1d28" fill-rule="evenodd" stroke="none"/>
      <path d="M45.55 25.8 Q46.55 27.8 47.25 33.9 45.35 31.95 44.6 30.1 45.25 26.85 44.75 24.0 L45.55 25.8" fill="#1d1d28" fill-rule="evenodd" stroke="none"/>
      <path d="M3.75 26.1 Q2.8 28.65 2.4 34.4 3.65 33.1 4.5 31.05 3.8 26.85 4.3 24.0 L3.75 26.1" fill="#1d1d28" fill-rule="evenodd" stroke="none"/>
      <path d="M9.55 22.15 L9.8 27.4 4.6 28.85 Q3.85 23.85 3.85 22.15 3.85 19.75 4.65 18.05 5.5 16.35 6.7 16.35 7.9 16.35 8.7 18.05 9.55 19.75 9.55 22.15" fill="#3a3a46" fill-rule="evenodd" stroke="none"/>
      <path d="M39.4 21.65 Q39.05 19.35 39.95 17.5 40.8 15.65 42.0 15.65 43.2 15.65 44.05 17.35 44.85 19.05 44.85 21.45 44.85 23.15 44.1 28.15 L40.0 28.4 39.4 21.65" fill="#3a3a46" fill-rule="evenodd" stroke="none"/>
    </g>
    <g id="shape2">
      <path d="M22.45 4.15 L30.05 4.9 Q34.65 5.7 38.85 8.95 43.0 12.2 45.85 16.8 48.8 21.35 49.25 26.3 L50.25 33.25 Q40.95 27.15 37.3 25.7 33.65 24.2 27.9 23.35 22.1 22.45 14.3 24.7 6.5 26.95 -0.75 30.95 -0.3 21.35 1.25 18.15 2.85 15.0 5.15 12.15 7.15 9.6 9.9 7.85 14.05 5.35 16.75 4.85 L22.45 4.15" fill="#1d1d28" fill-rule="evenodd" stroke="none"/>
      <path d="M9.8 22.85 L4.5 21.55 10.85 21.25 Q15.75 22.9 24.65 22.95 L22.95 23.2 Q16.2 24.1 9.8 22.85 M33.05 22.6 L32.25 22.55 Q36.8 21.9 40.0 20.35 L40.2 20.25 43.2 21.2 Q36.45 22.9 33.05 22.6" fill="#747480" fill-rule="evenodd" stroke="none"/>
    </g>
    <g id="sprite2">
      <clipPath id="clipPath1">
        <path d="M 9.6 6.55 L -4.75 10.4 L -4.75 33.6 L 9.6 29.75 L 9.6 6.55 Z"/>
      </clipPath>
      <g clip-path="url(#clipPath1)">
        <use ffdec:characterId="7" height="32.75" transform="matrix(1.0, 0.0, 0.0, 1.0, 0.0, 0.0)" width="8.65" xlink:href="#shape3"/>
      </g>
    </g>
    <g id="shape3">
      <path d="M-0.05 9.75 L-0.3 7.4 Q-0.5 3.95 0.15 -0.85 2.85 -4.85 8.3 -9.9 5.5 -1.7 5.0 2.8 L4.9 3.9 Q4.7 5.7 4.65 7.4 L4.65 11.1 Q4.8 14.95 5.9 19.5 L6.8 22.7 6.65 22.55 Q4.5 20.35 3.05 17.95 1.05 14.6 0.1 10.5 L-0.05 9.75" fill="#3a3a46" fill-rule="evenodd" stroke="none"/>
      <path d="M-0.05 9.75 L0.1 10.5 Q1.05 14.6 3.05 17.95 4.5 20.35 6.65 22.55 L6.8 22.7 5.9 19.5 Q4.8 14.95 4.65 11.1 L4.65 7.4 Q4.7 5.7 4.9 3.9" ffdec:has-small-stroke="true" ffdec:original-stroke-width="0.3" fill="none" stroke="#101015" stroke-linecap="round" stroke-linejoin="round" stroke-width="0.8357418198713703"/>
    </g>
    <g id="sprite3">
      <clipPath id="clipPath2">
        <path d="M 9.6 6.55 L -4.75 10.4 L -4.75 33.6 L 9.6 29.75 L 9.6 6.55 Z"/>
      </clipPath>
      <g clip-path="url(#clipPath2)">
        <use ffdec:characterId="7" height="32.75" transform="matrix(1.0, 0.0, 0.0, 1.0, 0.0, 0.0)" width="8.65" xlink:href="#shape4"/>
      </g>
    </g>
    <g id="shape4">
      <path d="M-0.05 9.75 L-0.3 7.4 Q-0.5 3.95 0.15 -0.85 2.85 -4.85 8.3 -9.9 5.5 -1.7 5.0 2.8 L4.9 3.9 Q4.7 5.7 4.65 7.4 L4.65 11.1 Q4.8 14.95 5.9 19.5 L6.8 22.7 6.65 22.55 Q4.5 20.35 3.05 17.95 1.05 14.6 0.1 10.5 L-0.05 9.75" fill="#3a3a46" fill-rule="evenodd" stroke="none"/>
      <path d="M-0.05 9.75 L0.1 10.5 Q1.05 14.6 3.05 17.95 4.5 20.35 6.65 22.55 L6.8 22.7 5.9 19.5 Q4.8 14.95 4.65 11.1 L4.65 7.4 Q4.7 5.7 4.9 3.9" ffdec:has-small-stroke="true" ffdec:original-stroke-width="0.3" fill="none" stroke="#101015" stroke-linecap="round" stroke-linejoin="round" stroke-width="0.8926093914818871"/>
    </g>
    <g id="sprite4">
      <use ffdec:characterId="24" height="5.35" transform="matrix(1.0, 0.0, 0.0, 1.0, 0.0, 0.0)" width="13.7" xlink:href="#shape5"/>
      <use ffdec:characterId="26" height="20.1" transform="matrix(1.094, -0.0957, 0.0872, 0.9962, 3.95, 3.15)" width="15.85" xlink:href="#sprite5"/>
      <use ffdec:characterId="26" height="20.1" transform="matrix(-1.094, -0.0957, -0.0872, 0.9962, 59.6, 3.15)" width="15.85" xlink:href="#sprite6"/>
      <use ffdec:characterId="27" height="54.35" transform="matrix(1.0, 0.0, 0.0, 1.0, 0.0, 0.0)" width="57.55" xlink:href="#shape8"/>
      <use ffdec:characterId="13" height="8.85" transform="matrix(1.0, 0.0, 0.0, 1.0, 19.9, 18.8)" width="6.15" xlink:href="#sprite7"/>
      <use ffdec:characterId="13" height="8.85" transform="matrix(-1.0, 0.0, 0.0, 1.0, 43.6, 18.8)" width="6.15" xlink:href="#sprite7"/>
      <use ffdec:characterId="28" height="54.85" transform="matrix(1.0, 0.0, 0.0, 1.0, 0.0, 0.0)" width="58.05" xlink:href="#shape10"/>
      <use ffdec:characterId="30" height="13.75" transform="matrix(1.094, -0.0957, 0.0872, 0.9962, 3.95, 3.15)" width="13.45" xlink:href="#sprite8"/>
      <use ffdec:characterId="30" height="13.75" transform="matrix(-1.094, -0.0957, -0.0872, 0.9962, 59.6, 3.15)" width="13.45" xlink:href="#sprite9"/>
    </g>
    <g id="shape5">
      <path d="M29.8 33.35 Q28.85 34.05 27.9 34.1 L27.4 34.05 Q26.15 33.8 25.4 32.85 24.5 31.75 25.2 30.85 L25.95 30.05 Q26.35 29.65 27.4 29.35 L28.8 29.0 31.85 28.75 35.1 29.05 36.15 29.35 Q37.1 29.6 37.55 30.0 L38.35 30.85 38.6 31.75 38.1 32.85 Q37.25 33.8 36.05 34.05 L35.55 34.1 Q34.55 34.1 33.7 33.4 32.8 32.75 31.5 32.75 30.5 32.8 29.8 33.35" fill="#ffffff" fill-rule="evenodd" stroke="none"/>
    </g>
    <g id="sprite5">
      <use ffdec:characterId="25" height="20.1" transform="matrix(1.0, 0.0, 0.0, 1.0, 0.0, 0.0)" width="15.85" xlink:href="#shape6"/>
    </g>
    <g id="shape6">
      <path d="M2.75 10.7 Q2.15 8.15 1.85 4.7 1.75 2.15 2.25 0.95 2.75 -0.25 4.15 0.05 5.5 0.35 7.7 1.4 8.85 2.0 10.8 3.4 10.2 5.5 8.0 6.9 5.8 8.25 5.45 8.7 L4.35 9.8 Q3.6 10.45 2.75 10.7" fill="#f4884b" fill-rule="evenodd" stroke="none"/>
      <path d="M10.8 3.4 L15.35 6.9 Q13.4 10.8 10.25 11.8 7.05 12.8 4.0 14.2 3.25 12.75 2.75 10.7 3.6 10.45 4.35 9.8 L5.45 8.7 Q5.8 8.25 8.0 6.9 10.2 5.5 10.8 3.4" fill="#cc5b1c" fill-rule="evenodd" stroke="none"/>
      <path d="M4.0 14.2 Q3.25 12.75 2.75 10.7 2.15 8.15 1.85 4.7 1.75 2.15 2.25 0.95 2.75 -0.25 4.15 0.05 5.5 0.35 7.7 1.4 8.85 2.0 10.8 3.4" ffdec:has-small-stroke="true" ffdec:original-stroke-width="0.5" fill="none" stroke="#873900" stroke-linecap="round" stroke-linejoin="round" stroke-width="0.9542660343119215"/>
      <path d="M10.8 3.4 L15.35 6.9 Q13.4 10.8 10.25 11.8 7.05 12.8 4.0 14.2" ffdec:has-small-stroke="true" ffdec:original-stroke-width="0.5" fill="none" stroke="#682c00" stroke-linecap="round" stroke-linejoin="round" stroke-width="0.9542660343119215"/>
      <path d="M2.6 0.85 L3.7 1.25 4.65 2.0 Q7.1 4.1 8.95 6.35 L7.85 7.55 5.35 9.15 Q3.8 9.8 3.0 8.25 2.2 6.65 1.85 4.7 1.45 2.75 2.35 1.2 L2.6 0.85" fill="#ffffff" fill-rule="evenodd" stroke="none"/>
      <path d="M8.95 6.35 L9.8 7.45 11.7 10.15 Q12.9 11.9 10.55 14.0 L5.95 17.95 Q3.65 19.8 2.75 19.6 1.85 19.35 1.2 17.6 0.55 15.85 0.2 12.35 -0.2 8.85 0.2 5.1 L0.45 3.3 0.9 1.85 Q1.25 1.1 2.0 0.85 L2.6 0.85 2.35 1.2 Q1.45 2.75 1.85 4.7 2.2 6.65 3.0 8.25 3.8 9.8 5.35 9.15 L7.85 7.55 8.95 6.35" fill="#bdb7b7" fill-rule="evenodd" stroke="none"/>
      <path d="M2.6 0.85 L3.7 1.25 4.65 2.0 Q7.1 4.1 8.95 6.35 L9.8 7.45 11.7 10.15 Q12.9 11.9 10.55 14.0 L5.95 17.95 Q3.65 19.8 2.75 19.6 1.85 19.35 1.2 17.6 0.55 15.85 0.2 12.35 -0.2 8.85 0.2 5.1 L0.45 3.3 0.9 1.85 Q1.25 1.1 2.0 0.85 L2.6 0.85 Z" ffdec:has-small-stroke="true" ffdec:original-stroke-width="0.5" fill="none" stroke="#868686" stroke-linecap="round" stroke-linejoin="round" stroke-width="0.9542660343119215"/>
      <path d="M6.25 16.4 Q4.65 17.85 3.95 17.9 3.2 17.95 2.8 17.2 L2.2 15.6 Q1.95 14.75 1.6 12.1 1.3 9.5 1.45 7.1 L1.55 5.75 1.7 4.95 Q2.5 5.75 3.9 8.1 5.25 10.4 5.65 12.3 L6.25 16.4" fill="#bfb3ab" fill-rule="evenodd" stroke="none"/>
      <path d="M1.7 4.95 L1.75 4.7 2.45 3.95 Q2.9 3.8 3.55 4.3 L4.15 4.85 Q5.9 6.65 7.0 8.3 L9.0 11.45 Q9.9 12.95 9.15 13.65 L6.25 16.4 5.65 12.3 Q5.25 10.4 3.9 8.1 2.5 5.75 1.7 4.95" fill="#a0958d" fill-rule="evenodd" stroke="none"/>
      <path d="M6.25 16.4 Q4.65 17.85 3.95 17.9 3.2 17.95 2.8 17.2 L2.2 15.6 Q1.95 14.75 1.6 12.1 1.3 9.5 1.45 7.1 L1.55 5.75 1.7 4.95 1.75 4.7 2.45 3.95 Q2.9 3.8 3.55 4.3 L4.15 4.85 Q5.9 6.65 7.0 8.3 L9.0 11.45 Q9.9 12.95 9.15 13.65 L6.25 16.4 Z" ffdec:has-small-stroke="true" ffdec:original-stroke-width="0.8" fill="none" stroke="#ffffff" stroke-linecap="round" stroke-linejoin="round" stroke-width="0.9542660343119215"/>
    </g>
    <g id="sprite6">
      <use ffdec:characterId="25" height="20.1" transform="matrix(1.0, 0.0, 0.0, 1.0, 0.0, 0.0)" width="15.85" xlink:href="#shape7"/>
    </g>
    <g id="shape7">
      <path d="M2.75 10.7 Q2.15 8.15 1.85 4.7 1.75 2.15 2.25 0.95 2.75 -0.25 4.15 0.05 5.5 0.35 7.7 1.4 8.85 2.0 10.8 3.4 10.2 5.5 8.0 6.9 5.8 8.25 5.45 8.7 L4.35 9.8 Q3.6 10.45 2.75 10.7" fill="#f4884b" fill-rule="evenodd" stroke="none"/>
      <path d="M10.8 3.4 L15.35 6.9 Q13.4 10.8 10.25 11.8 7.05 12.8 4.0 14.2 3.25 12.75 2.75 10.7 3.6 10.45 4.35 9.8 L5.45 8.7 Q5.8 8.25 8.0 6.9 10.2 5.5 10.8 3.4" fill="#cc5b1c" fill-rule="evenodd" stroke="none"/>
      <path d="M4.0 14.2 Q3.25 12.75 2.75 10.7 2.15 8.15 1.85 4.7 1.75 2.15 2.25 0.95 2.75 -0.25 4.15 0.05 5.5 0.35 7.7 1.4 8.85 2.0 10.8 3.4" ffdec:has-small-stroke="true" ffdec:original-stroke-width="0.5" fill="none" stroke="#873900" stroke-linecap="round" stroke-linejoin="round" stroke-width="0.9542660343119215"/>
      <path d="M10.8 3.4 L15.35 6.9 Q13.4 10.8 10.25 11.8 7.05 12.8 4.0 14.2" ffdec:has-small-stroke="true" ffdec:original-stroke-width="0.5" fill="none" stroke="#682c00" stroke-linecap="round" stroke-linejoin="round" stroke-width="0.9542660343119215"/>
      <path d="M2.6 0.85 L3.7 1.25 4.65 2.0 Q7.1 4.1 8.95 6.35 L7.85 7.55 5.35 9.15 Q3.8 9.8 3.0 8.25 2.2 6.65 1.85 4.7 1.45 2.75 2.35 1.2 L2.6 0.85" fill="#ffffff" fill-rule="evenodd" stroke="none"/>
      <path d="M8.95 6.35 L9.8 7.45 11.7 10.15 Q12.9 11.9 10.55 14.0 L5.95 17.95 Q3.65 19.8 2.75 19.6 1.85 19.35 1.2 17.6 0.55 15.85 0.2 12.35 -0.2 8.85 0.2 5.1 L0.45 3.3 0.9 1.85 Q1.25 1.1 2.0 0.85 L2.6 0.85 2.35 1.2 Q1.45 2.75 1.85 4.7 2.2 6.65 3.0 8.25 3.8 9.8 5.35 9.15 L7.85 7.55 8.95 6.35" fill="#bdb7b7" fill-rule="evenodd" stroke="none"/>
      <path d="M2.6 0.85 L3.7 1.25 4.65 2.0 Q7.1 4.1 8.95 6.35 L9.8 7.45 11.7 10.15 Q12.9 11.9 10.55 14.0 L5.95 17.95 Q3.65 19.8 2.75 19.6 1.85 19.35 1.2 17.6 0.55 15.85 0.2 12.35 -0.2 8.85 0.2 5.1 L0.45 3.3 0.9 1.85 Q1.25 1.1 2.0 0.85 L2.6 0.85 Z" ffdec:has-small-stroke="true" ffdec:original-stroke-width="0.5" fill="none" stroke="#868686" stroke-linecap="round" stroke-linejoin="round" stroke-width="0.9542660343119215"/>
      <path d="M6.25 16.4 Q4.65 17.85 3.95 17.9 3.2 17.95 2.8 17.2 L2.2 15.6 Q1.95 14.75 1.6 12.1 1.3 9.5 1.45 7.1 L1.55 5.75 1.7 4.95 Q2.5 5.75 3.9 8.1 5.25 10.4 5.65 12.3 L6.25 16.4" fill="#bfb3ab" fill-rule="evenodd" stroke="none"/>
      <path d="M1.7 4.95 L1.75 4.7 2.45 3.95 Q2.9 3.8 3.55 4.3 L4.15 4.85 Q5.9 6.65 7.0 8.3 L9.0 11.45 Q9.9 12.95 9.15 13.65 L6.25 16.4 5.65 12.3 Q5.25 10.4 3.9 8.1 2.5 5.75 1.7 4.95" fill="#a0958d" fill-rule="evenodd" stroke="none"/>
      <path d="M6.25 16.4 Q4.65 17.85 3.95 17.9 3.2 17.95 2.8 17.2 L2.2 15.6 Q1.95 14.75 1.6 12.1 1.3 9.5 1.45 7.1 L1.55 5.75 1.7 4.95 1.75 4.7 2.45 3.95 Q2.9 3.8 3.55 4.3 L4.15 4.85 Q5.9 6.65 7.0 8.3 L9.0 11.45 Q9.9 12.95 9.15 13.65 L6.25 16.4 Z" ffdec:has-small-stroke="true" ffdec:original-stroke-width="0.8" fill="none" stroke="#ffffff" stroke-linecap="round" stroke-linejoin="round" stroke-width="0.9542660343119215"/>
    </g>
    <g id="shape8">
      <path d="M60.3 32.2 L60.4 37.6 60.4 40.5 Q60.4 44.2 60.55 46.15 60.7 48.65 59.9 51.0 59.1 53.35 55.75 55.35 53.8 56.5 49.55 58.45 45.35 60.4 41.7 60.9 38.05 61.25 36.15 60.3 34.3 59.45 33.1 58.45 L33.95 58.45 37.65 58.9 43.95 58.2 Q48.55 57.3 53.1 54.55 57.7 51.7 56.7 48.0 55.85 44.95 51.25 40.5 L48.95 38.4 Q42.2 32.45 36.55 31.15 L31.75 30.0 27.05 31.1 Q21.4 32.45 14.65 38.4 L12.3 40.5 Q7.7 44.95 6.9 48.0 5.85 51.65 10.45 54.5 15.0 57.25 19.65 58.2 L25.95 58.9 29.65 58.45 30.5 58.45 Q29.3 59.45 27.45 60.3 25.5 61.2 21.9 60.85 18.25 60.4 14.05 58.45 9.8 56.45 7.85 55.3 4.5 53.3 3.75 50.95 2.85 48.6 3.05 46.1 L3.2 40.5 3.25 37.6 3.35 32.2 Q3.85 32.8 5.0 33.1 7.55 33.65 10.4 32.2 13.2 30.75 15.25 30.05 17.25 29.15 19.1 28.95 L23.3 29.05 26.75 29.8 Q29.0 29.2 30.85 29.15 L31.3 29.2 31.35 29.2 31.75 29.15 31.85 29.15 32.25 29.2 32.3 29.2 32.8 29.15 Q34.6 29.2 36.85 29.8 L40.35 29.05 44.5 28.95 Q46.35 29.15 48.4 30.05 50.4 30.75 53.2 32.2 56.05 33.65 58.65 33.1 L60.3 32.2" fill="#ffffff" fill-rule="evenodd" stroke="none"/>
      <path d="M3.35 32.2 L3.45 30.35 3.65 28.95 Q3.9 26.8 4.9 24.95 L5.65 23.5 7.75 20.75 8.4 19.8 Q10.75 16.65 15.45 11.95 L16.85 10.75 Q18.1 9.55 20.1 8.35 22.1 7.0 23.3 6.8 L25.75 6.65 28.6 6.95 30.95 7.2 31.3 7.2 31.35 7.2 31.65 7.2 31.75 7.2 31.85 7.2 31.95 7.2 32.3 7.2 32.35 7.2 32.7 7.2 35.0 6.95 37.85 6.65 40.3 6.8 Q41.5 7.0 43.5 8.35 45.5 9.55 46.8 10.75 L48.15 11.95 Q52.85 16.65 55.25 19.8 L55.9 20.75 58.0 23.5 58.75 24.95 Q59.7 26.8 60.0 28.95 L60.15 30.35 60.3 32.2 58.65 33.1 Q56.05 33.65 53.2 32.2 50.4 30.75 48.4 30.05 46.35 29.15 44.5 28.95 L40.35 29.05 36.85 29.8 Q34.6 29.2 32.8 29.15 L32.3 29.2 32.25 29.2 31.85 29.15 31.75 29.15 31.35 29.2 31.3 29.2 30.85 29.15 Q29.0 29.2 26.75 29.8 L23.3 29.05 19.1 28.95 Q17.25 29.15 15.25 30.05 13.2 30.75 10.4 32.2 7.55 33.65 5.0 33.1 3.85 32.8 3.35 32.2" fill="#f4884b" fill-rule="evenodd" stroke="none"/>
      <path d="M60.55 46.15 Q60.7 48.65 59.9 51.0 59.1 53.35 55.75 55.35 53.8 56.5 49.55 58.45 45.35 60.4 41.7 60.9 38.05 61.25 36.15 60.3 34.3 59.45 33.1 58.45 L33.95 58.45 37.65 58.9 43.95 58.2 Q48.55 57.3 53.1 54.55 57.7 51.7 56.7 48.0 56.15 45.9 53.7 43.1 60.25 50.25 60.45 42.9 L60.55 46.15 M6.9 48.0 Q5.85 51.65 10.45 54.5 15.0 57.25 19.65 58.2 L25.95 58.9 29.65 58.45 30.5 58.45 Q29.3 59.45 27.45 60.3 25.5 61.2 21.9 60.85 18.25 60.4 14.05 58.45 9.8 56.45 7.85 55.3 4.5 53.3 3.75 50.95 2.85 48.6 3.05 46.1 L3.2 42.9 Q3.65 50.3 8.9 44.25 7.3 46.35 6.9 48.0" fill="#b6b0b0" fill-rule="evenodd" stroke="none"/>
      <path d="M34.45 29.3 L34.45 29.35 Q34.4 30.35 33.6 31.05 32.85 31.75 31.75 31.75 30.65 31.75 29.85 31.05 29.15 30.35 29.05 29.35 L29.05 29.3 Q29.15 28.8 29.85 28.45 L31.75 28.1 Q32.85 28.1 33.6 28.45 34.4 28.8 34.45 29.3" fill="#59585e" fill-rule="evenodd" stroke="none"/>
      <path d="M34.45 29.3 L34.45 29.35 Q34.4 30.35 33.6 31.05 32.85 31.75 31.75 31.75 30.65 31.75 29.85 31.05 29.15 30.35 29.05 29.35 L29.05 29.3 Q29.15 28.8 29.85 28.45 L31.75 28.1 Q32.85 28.1 33.6 28.45 34.4 28.8 34.45 29.3 Z" ffdec:has-small-stroke="true" ffdec:original-stroke-width="0.3" fill="none" stroke="#2e2e30" stroke-linecap="round" stroke-linejoin="round" stroke-width="1.0"/>
      <path d="M33.45 30.1 L33.45 30.15 Q33.4 30.8 32.95 31.25 32.45 31.7 31.75 31.7 31.05 31.7 30.55 31.25 30.1 30.8 30.05 30.15 L30.05 30.1 30.55 29.6 31.75 29.4 32.95 29.6 33.45 30.1" fill="#19181c" fill-rule="evenodd" stroke="none"/>
      <path d="M22.2 30.65 Q22.6 30.2 23.45 30.45 24.25 30.65 24.85 31.7 L21.55 33.25 Q21.75 31.1 22.2 30.65" fill="#b6b0b0" fill-rule="evenodd" stroke="none"/>
      <path d="M29.1 7.2 Q31.65 7.0 34.45 7.1 32.95 7.9 31.85 9.15 31.25 8.25 29.1 7.2" fill="#cc5b1c" fill-rule="evenodd" stroke="none"/>
      <path d="M7.95 28.5 L7.05 30.7" ffdec:has-small-stroke="true" ffdec:original-stroke-width="0.5" fill="none" stroke="#f8c5a6" stroke-linecap="round" stroke-linejoin="round" stroke-width="1.0"/>
      <path d="M8.7 31.3 L8.25 32.55" ffdec:has-small-stroke="true" ffdec:original-stroke-width="0.5" fill="none" stroke="#f8c5a6" stroke-linecap="round" stroke-linejoin="round" stroke-width="1.0"/>
      <path d="M9.65 33.45 L9.5 33.95" ffdec:has-small-stroke="true" ffdec:original-stroke-width="0.5" fill="none" stroke="#f8c5a6" stroke-linecap="round" stroke-linejoin="round" stroke-width="1.0"/>
      <path d="M12.2 32.9 L11.7 34.45" ffdec:has-small-stroke="true" ffdec:original-stroke-width="0.5" fill="none" stroke="#f8c5a6" stroke-linecap="round" stroke-linejoin="round" stroke-width="1.0"/>
      <path d="M14.55 32.5 L14.15 33.5" ffdec:has-small-stroke="true" ffdec:original-stroke-width="0.5" fill="none" stroke="#f8c5a6" stroke-linecap="round" stroke-linejoin="round" stroke-width="1.0"/>
      <path d="M55.75 27.9 L56.45 29.5" ffdec:has-small-stroke="true" ffdec:original-stroke-width="0.5" fill="none" stroke="#f8c5a6" stroke-linecap="round" stroke-linejoin="round" stroke-width="1.0"/>
      <path d="M55.3 30.65 L55.75 31.9" ffdec:has-small-stroke="true" ffdec:original-stroke-width="0.5" fill="none" stroke="#f8c5a6" stroke-linecap="round" stroke-linejoin="round" stroke-width="1.0"/>
      <path d="M53.9 32.3 L54.55 33.6" ffdec:has-small-stroke="true" ffdec:original-stroke-width="0.5" fill="none" stroke="#f8c5a6" stroke-linecap="round" stroke-linejoin="round" stroke-width="1.0"/>
      <path d="M51.2 32.15 L51.95 33.55" ffdec:has-small-stroke="true" ffdec:original-stroke-width="0.5" fill="none" stroke="#f8c5a6" stroke-linecap="round" stroke-linejoin="round" stroke-width="1.0"/>
      <path d="M49.05 32.5 L49.45 33.5" ffdec:has-small-stroke="true" ffdec:original-stroke-width="0.5" fill="none" stroke="#f8c5a6" stroke-linecap="round" stroke-linejoin="round" stroke-width="1.0"/>
      <path d="M17.4 25.15 L16.5 25.2" fill="none" stroke="#ffc796" stroke-linecap="round" stroke-linejoin="round" stroke-width="1.0"/>
      <path d="M18.35 26.65 L17.65 26.9" fill="none" stroke="#ffc796" stroke-linecap="round" stroke-linejoin="round" stroke-width="1.0"/>
      <path d="M19.6 27.75 L19.3 28.05" fill="none" stroke="#ffc796" stroke-linecap="round" stroke-linejoin="round" stroke-width="1.0"/>
      <path d="M46.1 25.15 L47.0 25.2" fill="none" stroke="#ffc796" stroke-linecap="round" stroke-linejoin="round" stroke-width="1.0"/>
      <path d="M45.15 26.65 L45.85 26.9" fill="none" stroke="#ffc796" stroke-linecap="round" stroke-linejoin="round" stroke-width="1.0"/>
      <path d="M43.9 27.75 L44.2 28.05" fill="none" stroke="#ffc796" stroke-linecap="round" stroke-linejoin="round" stroke-width="1.0"/>
    </g>
    <g id="sprite7">
      <use ffdec:characterId="12" height="8.85" transform="matrix(1.0, 0.0, 0.0, 1.0, 0.0, 0.0)" width="6.15" xlink:href="#shape9"/>
    </g>
    <g id="shape9">
      <path d="M6.2 1.95 Q6.2 2.75 5.65 3.1 L3.9 3.75 1.85 3.8 Q0.95 3.6 1.15 2.6 1.3 1.55 2.25 0.75 3.15 -0.05 3.95 0.0 4.75 0.05 5.45 0.6 6.2 1.15 6.2 1.95" fill="#ffffff" fill-rule="evenodd" stroke="none"/>
      <path d="M2.5 5.4 Q3.05 5.4 3.5 5.85 3.95 6.3 4.05 7.4 4.1 8.45 3.55 8.75 L2.25 8.6 0.7 7.75 Q-0.15 7.4 0.15 6.65 0.45 5.85 1.2 5.6 L2.5 5.4" fill="#000000" fill-rule="evenodd" stroke="none"/>
      <path d="M3.3 6.45 L3.0 6.85 Q2.75 7.05 2.35 7.05 L1.65 6.85 1.4 6.45 1.65 6.0 2.35 5.85 3.0 6.0 3.3 6.45" fill="#c3c3c3" fill-rule="evenodd" stroke="none"/>
    </g>
    <g id="shape10">
      <path d="M41.45 30.65 Q41.05 30.2 40.2 30.45 39.4 30.65 38.8 31.7 L42.1 33.25 Q41.9 31.1 41.45 30.65" fill="#b6b0b0" fill-rule="evenodd" stroke="none"/>
      <path d="M3.35 32.2 L3.45 30.35 3.65 28.95 Q3.9 26.8 4.9 24.95 L5.65 23.5 7.75 20.75 8.4 19.8 Q10.75 16.65 15.45 11.95 L16.85 10.75 Q18.1 9.55 20.1 8.35 22.1 7.0 23.3 6.8 L25.75 6.65 28.6 6.95 30.95 7.2 31.3 7.2 31.35 7.2 31.65 7.2 31.75 7.2 31.85 7.2 31.95 7.2 32.3 7.2 32.35 7.2 32.7 7.2 35.0 6.95 37.85 6.65 40.3 6.8 Q41.5 7.0 43.5 8.35 45.5 9.55 46.8 10.75 L48.15 11.95 Q52.85 16.65 55.25 19.8 L55.9 20.75 58.0 23.5 58.75 24.95 Q59.7 26.8 60.0 28.95 L60.15 30.35 60.3 32.2 60.4 37.6 60.4 40.5 Q60.4 44.2 60.55 46.15 60.7 48.65 59.9 51.0 59.1 53.35 55.75 55.35 53.8 56.5 49.55 58.45 45.35 60.4 41.7 60.9 38.05 61.25 36.15 60.3 34.3 59.45 33.1 58.45 L33.95 58.45 37.65 58.9 43.95 58.2 Q48.55 57.3 53.1 54.55 57.7 51.7 56.7 48.0 55.85 44.95 51.25 40.5 L48.95 38.4 Q43.5 33.6 38.8 31.8 L38.4 32.7 Q37.5 33.8 36.25 34.0 35.0 34.25 33.8 33.35 32.9 32.55 31.65 32.65 30.6 32.65 29.9 33.35 28.65 34.25 27.45 34.0 26.15 33.8 25.35 32.7 24.9 32.2 24.9 31.75 20.1 33.6 14.65 38.4 L12.3 40.5 Q7.7 44.95 6.9 48.0 5.85 51.65 10.45 54.5 15.0 57.25 19.65 58.2 L25.95 58.9 29.65 58.45 30.5 58.45 Q29.3 59.45 27.45 60.3 25.5 61.2 21.9 60.85 18.25 60.4 14.05 58.45 9.8 56.45 7.85 55.3 4.5 53.3 3.75 50.95 2.85 48.6 3.05 46.1 L3.2 40.5 3.25 37.6 3.35 32.2 Z" ffdec:has-small-stroke="true" ffdec:original-stroke-width="0.5" fill="none" stroke="#873900" stroke-linecap="round" stroke-linejoin="round" stroke-width="1.0"/>
    </g>
    <g id="sprite8">
      <use ffdec:characterId="29" height="13.75" transform="matrix(1.0, 0.0, 0.0, 1.0, 0.0, 0.0)" width="13.45" xlink:href="#shape11"/>
    </g>
    <g id="shape11">
      <path d="M2.35 0.8 Q2.85 -0.25 4.15 0.05 5.5 0.35 7.7 1.4 L8.1 1.6 10.8 3.4 11.2 3.7 Q12.2 5.65 10.85 8.75 L10.8 8.8 Q6.05 2.45 3.7 1.25 L2.6 0.85 2.35 0.8" fill="#f4884b" fill-rule="evenodd" stroke="none"/>
      <path d="M11.2 3.7 L11.65 4.05 13.8 5.65 14.65 6.3 14.65 6.35 Q13.85 9.1 12.1 10.8 L10.8 8.85 10.8 8.8 10.85 8.75 Q12.2 5.65 11.2 3.7 M14.65 6.35 L13.8 5.65 14.65 6.35" fill="#cc5b1c" fill-rule="evenodd" stroke="none"/>
      <path d="M9.2 12.1 L8.95 11.45 7.2 8.6 7.0 8.3 7.0 8.25 6.65 7.75 6.25 7.25 6.0 6.9 4.15 4.85 3.55 4.3 Q2.9 3.8 2.45 3.95 2.1 4.1 1.85 4.55 1.6 3.2 1.95 2.1 L2.35 1.2 2.6 0.85 3.7 1.25 Q6.05 2.45 10.8 8.8 L10.8 8.85 Q10.2 11.1 9.2 12.1" fill="#ffffff" fill-rule="evenodd" stroke="none"/>
      <path d="M12.1 10.8 L9.7 13.5 9.2 12.1 Q10.2 11.1 10.8 8.85 L12.1 10.8" fill="#bdb7b7" fill-rule="evenodd" stroke="none"/>
      <path d="M2.35 0.8 Q2.85 -0.25 4.15 0.05 5.5 0.35 7.7 1.4 L8.1 1.6 10.8 3.4 11.2 3.7" ffdec:has-small-stroke="true" ffdec:original-stroke-width="0.5" fill="none" stroke="#873900" stroke-linecap="round" stroke-linejoin="round" stroke-width="0.9542660343119215"/>
      <path d="M11.2 3.7 L11.65 4.05 13.8 5.65 14.65 6.35" ffdec:has-small-stroke="true" ffdec:original-stroke-width="0.5" fill="none" stroke="#682c00" stroke-linecap="round" stroke-linejoin="round" stroke-width="0.9542660343119215"/>
      <path d="M10.8 8.8 L10.8 8.85 12.1 10.8" ffdec:has-small-stroke="true" ffdec:original-stroke-width="0.5" fill="none" stroke="#868686" stroke-linecap="round" stroke-linejoin="round" stroke-width="0.9542660343119215"/>
      <path d="M9.2 12.1 L8.95 11.45 7.2 8.6 7.0 8.3 7.0 8.25 6.65 7.75 6.25 7.25 6.0 6.9 4.15 4.85 3.55 4.3 Q2.9 3.8 2.45 3.95 2.1 4.1 1.85 4.55" ffdec:has-small-stroke="true" ffdec:original-stroke-width="0.8" fill="none" stroke="#ffffff" stroke-linecap="round" stroke-linejoin="round" stroke-width="0.9542660343119215"/>
      <path d="M2.6 0.85 L3.7 1.25 Q6.05 2.45 10.8 8.8" ffdec:has-small-stroke="true" ffdec:original-stroke-width="0.5" fill="none" stroke="#b2b2b2" stroke-linecap="round" stroke-linejoin="round" stroke-width="0.9542660343119215"/>
    </g>
    <g id="sprite9">
      <use ffdec:characterId="29" height="13.75" transform="matrix(1.0, 0.0, 0.0, 1.0, 0.0, 0.0)" width="13.45" xlink:href="#shape12"/>
    </g>
    <g id="shape12">
      <path d="M2.35 0.8 Q2.85 -0.25 4.15 0.05 5.5 0.35 7.7 1.4 L8.1 1.6 10.8 3.4 11.2 3.7 Q12.2 5.65 10.85 8.75 L10.8 8.8 Q6.05 2.45 3.7 1.25 L2.6 0.85 2.35 0.8" fill="#f4884b" fill-rule="evenodd" stroke="none"/>
      <path d="M11.2 3.7 L11.65 4.05 13.8 5.65 14.65 6.3 14.65 6.35 Q13.85 9.1 12.1 10.8 L10.8 8.85 10.8 8.8 10.85 8.75 Q12.2 5.65 11.2 3.7 M14.65 6.35 L13.8 5.65 14.65 6.35" fill="#cc5b1c" fill-rule="evenodd" stroke="none"/>
      <path d="M9.2 12.1 L8.95 11.45 7.2 8.6 7.0 8.3 7.0 8.25 6.65 7.75 6.25 7.25 6.0 6.9 4.15 4.85 3.55 4.3 Q2.9 3.8 2.45 3.95 2.1 4.1 1.85 4.55 1.6 3.2 1.95 2.1 L2.35 1.2 2.6 0.85 3.7 1.25 Q6.05 2.45 10.8 8.8 L10.8 8.85 Q10.2 11.1 9.2 12.1" fill="#ffffff" fill-rule="evenodd" stroke="none"/>
      <path d="M12.1 10.8 L9.7 13.5 9.2 12.1 Q10.2 11.1 10.8 8.85 L12.1 10.8" fill="#bdb7b7" fill-rule="evenodd" stroke="none"/>
      <path d="M2.35 0.8 Q2.85 -0.25 4.15 0.05 5.5 0.35 7.7 1.4 L8.1 1.6 10.8 3.4 11.2 3.7" ffdec:has-small-stroke="true" ffdec:original-stroke-width="0.5" fill="none" stroke="#873900" stroke-linecap="round" stroke-linejoin="round" stroke-width="0.9542660343119215"/>
      <path d="M11.2 3.7 L11.65 4.05 13.8 5.65 14.65 6.35" ffdec:has-small-stroke="true" ffdec:original-stroke-width="0.5" fill="none" stroke="#682c00" stroke-linecap="round" stroke-linejoin="round" stroke-width="0.9542660343119215"/>
      <path d="M10.8 8.8 L10.8 8.85 12.1 10.8" ffdec:has-small-stroke="true" ffdec:original-stroke-width="0.5" fill="none" stroke="#868686" stroke-linecap="round" stroke-linejoin="round" stroke-width="0.9542660343119215"/>
      <path d="M9.2 12.1 L8.95 11.45 7.2 8.6 7.0 8.3 7.0 8.25 6.65 7.75 6.25 7.25 6.0 6.9 4.15 4.85 3.55 4.3 Q2.9 3.8 2.45 3.95 2.1 4.1 1.85 4.55" ffdec:has-small-stroke="true" ffdec:original-stroke-width="0.8" fill="none" stroke="#ffffff" stroke-linecap="round" stroke-linejoin="round" stroke-width="0.9542660343119215"/>
      <path d="M2.6 0.85 L3.7 1.25 Q6.05 2.45 10.8 8.8" ffdec:has-small-stroke="true" ffdec:original-stroke-width="0.5" fill="none" stroke="#b2b2b2" stroke-linecap="round" stroke-linejoin="round" stroke-width="0.9542660343119215"/>
    </g>
  </defs>
</svg>
