<?xml version="1.0" encoding="UTF-8" standalone="no"?>
<svg xmlns:ffdec="https://www.free-decompiler.com/flash" xmlns:xlink="http://www.w3.org/1999/xlink" ffdec:objectType="frame" height="77.0px" width="92.0px" xmlns="http://www.w3.org/2000/svg">
  <g transform="matrix(1.0, 0.0, 0.0, 1.0, 47.5, 78.3)">
    <use ffdec:characterId="12" height="65.5" transform="matrix(1.3049, 0.0, 0.0, 1.1759, -49.95, -76.8)" width="70.55" xlink:href="#sprite0"/>
    <use ffdec:characterId="14" height="31.5" transform="matrix(0.9586, 0.0, 0.0, 1.0, -25.45, -58.05)" width="20.8" xlink:href="#sprite1"/>
    <use ffdec:characterId="14" height="31.5" transform="matrix(-0.9586, 0.0, 0.0, 1.0, 25.4, -58.05)" width="20.8" xlink:href="#sprite1"/>
    <use ffdec:characterId="24" height="36.15" transform="matrix(0.9586, 0.0, 0.0, 1.0, -23.8, -44.95)" width="49.65" xlink:href="#sprite2"/>
    <use ffdec:characterId="21" height="2.2" transform="matrix(1.0, 0.0, 0.0, 1.0, -12.15, -27.55)" width="2.2" xlink:href="#sprite3"/>
    <use ffdec:characterId="21" height="2.2" transform="matrix(1.0, 0.0, 0.0, 1.0, 10.0, -27.55)" width="2.2" xlink:href="#sprite3"/>
  </g>
  <defs>
    <g id="sprite0">
      <use ffdec:characterId="1" height="61.3" transform="matrix(1.0, 0.0, 0.0, 1.0, 0.0, 0.0)" width="66.05" xlink:href="#shape0"/>
    </g>
    <g id="shape0">
      <path d="M64.05 11.25 L64.3 11.15 64.3 11.2 64.25 13.25 64.05 16.1 63.7 18.1 63.35 18.95 62.35 20.65 62.25 20.85 Q61.2 22.4 59.8 23.45 L59.35 23.8 60.2 24.05 62.75 24.7 64.6 25.0 65.55 25.05 Q67.1 25.1 68.6 24.3 69.8 23.55 70.5 22.1 71.0 23.35 70.5 24.6 L69.45 27.05 67.85 29.6 65.5 31.7 63.15 32.9 Q61.95 33.5 60.75 33.35 L61.55 34.4 62.8 36.3 Q63.9 37.85 64.45 39.7 L65.15 43.25 65.4 46.75 65.15 49.45 Q64.4 52.05 62.85 54.2 L62.1 55.25 60.8 56.7 58.65 58.85 57.1 60.05 54.75 61.7 52.7 62.9 52.3 62.85 Q52.3 62.5 52.55 62.1 L53.35 60.8 54.45 59.05 Q55.25 57.7 55.35 56.15 L55.45 54.95 55.5 52.9 55.4 51.8 55.0 49.9 54.95 49.85 Q54.05 47.85 52.55 46.05 49.65 42.6 45.45 41.65 L41.35 41.3 41.1 41.35 40.95 41.35 40.8 41.35 40.5 41.4 Q38.9 41.65 37.55 42.35 36.4 42.9 35.45 43.8 L35.3 45.65 35.15 46.5 34.8 47.5 33.8 49.3 Q33.15 50.5 31.95 51.3 L29.2 52.75 27.15 53.75 Q25.85 54.4 24.8 55.4 L23.0 57.4 22.5 58.05 22.2 58.5 Q20.6 61.1 20.7 64.1 L19.9 63.9 Q18.45 63.2 17.5 61.75 16.55 60.3 15.95 58.9 L15.8 58.5 15.15 57.0 15.0 56.45 14.6 55.25 Q13.75 52.55 14.2 49.7 L13.75 50.1 12.7 50.7 12.4 50.85 10.95 51.35 8.6 51.25 6.7 50.7 Q5.45 50.45 4.7 49.65 4.7 49.5 4.8 49.5 L7.3 48.3 Q9.1 47.55 10.1 46.05 L10.35 45.65 10.55 45.35 10.7 45.1 10.95 44.55 11.55 42.4 11.7 41.5 12.05 39.75 13.05 36.85 Q14.15 34.3 16.35 33.05 L15.35 32.85 15.05 32.75 12.25 31.7 Q10.15 31.0 8.6 29.25 5.6 25.8 6.05 21.35 L7.15 21.95 9.85 23.35 11.15 23.6 Q13.1 23.6 14.75 22.55 L14.85 22.5 Q15.75 21.75 16.7 21.25 L19.6 20.05 21.3 19.65 21.9 19.65 21.95 19.65 22.2 19.6 22.4 19.6 21.45 18.35 21.05 17.7 20.55 16.65 20.1 15.0 20.1 14.95 20.1 14.6 20.05 14.2 20.05 14.15 Q20.0 12.9 20.3 11.65 20.7 9.85 21.75 8.3 L22.1 7.85 23.45 6.2 Q25.25 4.1 27.6 2.95 L28.95 2.85 27.9 5.1 27.15 7.15 Q26.65 8.75 26.8 10.25 L26.85 10.4 Q26.95 11.6 27.35 12.8 L27.5 13.25 Q27.6 12.65 28.05 11.65 28.7 10.0 30.4 8.95 32.05 7.9 34.4 8.05 L34.65 8.1 Q36.15 6.05 38.3 5.15 L38.65 5.0 39.0 4.85 39.3 4.75 39.5 4.7 39.55 4.65 42.2 4.05 47.75 3.7 Q52.25 3.85 55.3 8.15 52.4 6.85 49.2 7.45 47.05 7.6 45.7 9.05 L44.5 11.1 Q43.75 12.95 44.1 15.0 44.7 14.45 45.4 14.1 46.8 13.5 48.3 13.05 L50.05 12.9 56.7 13.0 56.8 13.0 60.4 12.55 Q62.2 12.1 64.05 11.25 M61.7 19.8 Q63.7 16.4 63.05 12.4 L61.7 13.35 59.75 14.05 57.35 14.3 57.05 14.3 56.5 14.3 55.4 14.25 54.2 14.1 53.1 14.0 47.95 14.2 Q45.4 14.55 43.95 16.5 L43.55 16.95 43.25 16.1 43.6 15.55 Q42.5 13.45 43.25 11.15 L43.7 10.05 44.25 9.2 Q45.95 7.2 48.35 6.65 51.0 6.2 53.6 7.05 52.5 5.85 50.55 5.05 48.55 4.25 46.2 4.35 43.8 4.45 41.6 5.1 39.65 5.45 38.1 6.4 L37.6 6.65 Q36.55 7.3 35.6 8.2 L35.1 8.75 35.0 8.8 Q32.75 11.1 33.1 14.15 33.25 15.25 33.7 16.5 L33.6 16.4 Q32.75 15.3 32.55 14.15 32.1 12.05 33.55 9.65 L34.25 8.7 33.5 8.65 32.15 8.9 30.55 9.65 Q29.85 10.15 29.25 10.95 28.65 11.75 28.3 13.1 L28.2 14.15 Q28.2 14.75 28.5 15.2 L29.85 16.7 Q28.55 16.35 27.8 15.0 L27.35 14.15 26.6 11.85 26.45 10.7 26.4 10.35 26.4 8.35 Q26.55 6.0 27.75 4.05 L25.1 6.3 22.9 8.9 22.8 9.05 22.1 10.25 Q21.2 12.0 21.2 14.05 L21.2 14.15 21.35 15.5 Q21.5 16.6 22.3 17.9 L22.5 18.15 Q23.2 19.25 24.55 20.05 L25.85 20.8 26.45 21.15 27.25 21.6 27.7 21.85 27.3 21.95 27.25 21.95 26.1 22.0 25.5 21.9 25.4 21.85 24.35 21.4 23.55 20.9 23.45 20.8 23.3 20.65 23.25 20.65 20.3 20.6 Q18.1 20.95 16.1 22.45 L15.15 23.15 15.0 23.25 13.85 23.95 Q12.8 24.55 11.45 24.5 L9.95 24.15 8.05 23.4 6.7 22.7 Q6.9 24.3 7.55 26.05 8.6 28.8 10.95 30.2 12.05 30.9 13.3 31.3 L15.75 31.95 15.8 31.95 16.0 32.0 Q18.45 32.35 20.75 31.3 L21.3 31.05 23.45 29.55 23.5 29.65 24.2 29.0 23.95 32.35 Q23.8 33.55 23.15 34.6 18.8 36.45 17.1 40.45 15.55 44.05 13.8 46.1 L13.9 45.5 11.6 47.35 12.65 45.3 Q13.75 42.8 13.4 40.1 L13.0 41.2 12.3 42.8 11.85 44.0 Q10.4 47.9 6.75 49.85 L7.65 50.25 9.15 50.55 10.75 50.35 10.85 50.3 12.7 49.6 13.0 49.45 13.0 49.4 13.05 49.4 13.05 49.25 13.8 48.75 14.3 48.25 15.5 46.75 Q16.2 45.7 16.85 45.85 22.45 39.2 25.15 38.15 L25.6 38.0 Q24.55 40.55 24.45 41.5 L23.85 44.3 25.25 44.0 Q28.7 42.95 31.5 40.9 32.65 40.05 34.95 36.95 L35.15 37.25 Q36.3 38.65 37.4 39.35 39.0 40.35 40.6 39.75 L41.0 37.85 41.35 37.95 41.9 38.1 42.0 38.1 44.7 38.6 44.8 38.6 45.25 38.7 Q49.45 39.6 53.25 41.8 L53.6 42.05 54.35 42.5 54.5 42.6 54.65 42.7 Q55.5 40.35 52.65 36.5 L54.0 36.35 Q57.15 41.5 57.05 50.65 L56.2 54.65 56.2 55.5 55.9 57.15 55.0 60.0 56.35 59.1 58.7 57.25 60.5 55.4 61.3 54.35 61.6 53.9 Q61.6 52.9 61.2 52.5 L60.1 53.9 59.95 51.1 Q62.6 43.0 58.65 35.75 63.35 40.7 63.45 48.3 L63.9 44.4 Q63.8 41.95 62.9 39.6 L61.5 36.55 Q60.85 35.2 59.8 34.0 L59.2 33.25 58.55 32.55 58.05 32.3 56.8 31.45 55.45 30.35 55.4 30.3 55.4 30.25 Q55.4 30.2 56.2 30.7 L56.65 30.95 58.95 31.85 59.5 32.0 60.65 32.1 61.6 32.05 63.05 31.75 64.45 31.05 64.6 30.95 64.65 30.95 66.35 29.8 67.85 28.15 68.95 26.2 69.75 24.1 Q69.15 24.95 68.2 25.4 66.95 26.2 65.55 26.05 L63.95 25.95 63.8 25.9 61.1 25.2 59.0 24.55 58.85 24.5 58.25 24.4 58.15 24.45 55.75 24.95 53.95 25.1 52.95 25.4 Q53.8 24.65 54.3 24.5 L55.3 24.1 56.0 23.9 56.45 23.8 58.0 23.25 Q58.4 23.0 58.85 22.7 L60.25 21.6 61.35 20.35 61.5 20.15 61.7 19.8 M21.85 53.65 L21.05 54.4 Q20.25 55.2 19.6 56.15 L19.0 57.1 18.7 57.95 18.25 57.25 Q17.15 55.35 16.9 53.25 L16.85 52.4 16.9 51.5 Q15.65 53.75 15.85 56.05 L16.35 57.65 16.65 58.5 Q17.6 60.95 19.7 62.55 L20.55 59.5 20.95 58.5 21.4 57.6 21.85 56.85 21.85 53.65" fill="#9fa0ac" fill-rule="evenodd" stroke="none"/>
      <path d="M57.05 14.3 L57.35 14.3 59.75 14.05 61.7 13.35 63.05 12.4 Q63.7 16.4 61.7 19.8 L61.75 19.45 62.25 17.05 Q60.3 20.35 56.95 20.9 58.0 19.75 58.9 17.65 L59.25 16.5 57.05 16.85 Q53.35 16.1 52.35 15.0 L57.05 14.3 M63.8 25.9 L63.95 25.95 65.55 26.05 Q66.95 26.2 68.2 25.4 69.15 24.95 69.75 24.1 L68.95 26.2 67.85 28.15 66.35 29.8 64.65 30.95 64.6 30.95 64.45 31.05 64.65 30.85 65.95 28.85 66.25 28.0 Q63.6 28.45 60.65 27.45 L59.5 27.1 Q61.55 27.35 63.15 26.3 L63.8 25.9 M59.95 51.1 L60.1 53.9 61.2 52.5 Q61.6 52.9 61.6 53.9 L61.3 54.35 60.5 55.4 58.7 57.25 56.35 59.1 55.0 60.0 55.9 57.15 56.2 55.5 56.2 54.65 57.05 50.65 58.05 45.5 58.75 46.75 Q59.85 48.75 59.95 51.1 M13.05 49.25 L13.05 49.4 13.0 49.4 13.0 49.45 12.7 49.6 10.85 50.3 10.8 50.3 10.75 50.35 9.15 50.55 7.65 50.25 6.75 49.85 Q10.4 47.9 11.85 44.0 L12.3 42.8 13.0 41.2 13.4 40.1 Q13.75 42.8 12.65 45.3 L11.6 47.35 13.9 45.5 13.8 46.1 13.75 46.4 13.05 49.25 M15.8 31.95 L15.75 31.95 13.3 31.3 Q12.05 30.9 10.95 30.2 8.6 28.8 7.55 26.05 6.9 24.3 6.7 22.7 L8.05 23.4 9.95 24.15 11.45 24.5 Q12.8 24.55 13.85 23.95 L15.0 23.25 16.9 23.05 Q15.35 25.75 13.9 26.55 12.45 27.35 12.1 27.25 L13.5 27.7 Q12.9 28.4 11.6 28.15 14.15 31.8 18.0 30.7 17.55 31.45 16.2 31.8 L15.8 31.95 M22.9 8.9 L25.1 6.3 27.75 4.05 Q26.55 6.0 26.4 8.35 L26.4 10.35 25.65 9.5 25.05 10.95 Q24.45 12.55 24.65 14.15 L24.65 14.35 24.45 14.15 Q23.45 13.1 23.2 11.1 L22.9 8.9 M41.6 5.1 Q43.8 4.45 46.2 4.35 48.55 4.25 50.55 5.05 52.5 5.85 53.6 7.05 51.0 6.2 48.35 6.65 45.95 7.2 44.25 9.2 L43.7 10.05 42.6 11.9 42.6 11.3 Q42.75 9.2 44.45 7.65 L42.95 8.15 40.7 9.85 40.55 9.35 Q40.45 9.0 40.7 7.25 40.9 5.5 41.6 5.1 M21.85 53.65 L21.85 56.85 21.4 57.6 20.95 58.5 20.55 59.5 19.7 62.55 Q17.6 60.95 16.65 58.5 L16.35 57.65 15.85 56.05 Q15.65 53.75 16.9 51.5 L16.85 52.4 16.9 53.25 Q17.15 55.35 18.25 57.25 L18.7 57.95 19.0 57.1 19.6 56.15 Q20.25 55.2 21.05 54.4 L21.85 53.65" fill="#8f1717" fill-rule="evenodd" stroke="none"/>
      <path d="M57.05 14.3 L52.35 15.0 Q53.35 16.1 57.05 16.85 L59.25 16.5 58.9 17.65 Q58.0 19.75 56.95 20.9 60.3 20.35 62.25 17.05 L61.75 19.45 61.7 19.8 61.5 20.15 61.35 20.35 60.25 21.6 58.85 22.7 Q58.4 23.0 58.0 23.25 L56.45 23.8 56.0 23.9 55.3 24.1 54.3 24.5 Q53.8 24.65 52.95 25.4 L53.95 25.1 55.75 24.95 58.15 24.45 58.25 24.4 58.85 24.5 59.0 24.55 61.1 25.2 63.8 25.9 63.15 26.3 Q61.55 27.35 59.5 27.1 L60.65 27.45 Q63.6 28.45 66.25 28.0 L65.95 28.85 64.65 30.85 64.45 31.05 63.05 31.75 61.6 32.05 60.65 32.1 59.5 32.0 58.95 31.85 56.65 30.95 56.2 30.7 Q55.4 30.2 55.4 30.25 L55.4 30.3 55.45 30.35 56.8 31.45 58.05 32.3 58.55 32.55 59.2 33.25 59.8 34.0 Q60.85 35.2 61.5 36.55 L62.9 39.6 Q63.8 41.95 63.9 44.4 L63.45 48.3 Q63.35 40.7 58.65 35.75 62.6 43.0 59.95 51.1 59.85 48.75 58.75 46.75 L58.05 45.5 57.05 50.65 Q57.15 41.5 54.0 36.35 L52.65 36.5 Q55.5 40.35 54.65 42.7 L54.5 42.6 54.35 42.5 53.6 42.05 53.25 41.8 Q49.45 39.6 45.25 38.7 L44.8 38.6 44.7 38.6 42.0 38.1 41.9 38.1 41.35 37.95 41.0 37.85 40.6 39.75 Q39.0 40.35 37.4 39.35 36.3 38.65 35.15 37.25 L34.95 36.95 Q32.65 40.05 31.5 40.9 28.7 42.95 25.25 44.0 L23.85 44.3 24.45 41.5 Q24.55 40.55 25.6 38.0 L25.15 38.15 Q22.45 39.2 16.85 45.85 16.2 45.7 15.5 46.75 L14.3 48.25 13.8 48.75 13.05 49.25 13.75 46.4 13.8 46.1 Q15.55 44.05 17.1 40.45 18.8 36.45 23.15 34.6 23.8 33.55 23.95 32.35 L24.2 29.0 23.5 29.65 23.45 29.55 21.3 31.05 20.75 31.3 Q18.45 32.35 16.0 32.0 L15.8 31.95 16.2 31.8 Q17.55 31.45 18.0 30.7 14.15 31.8 11.6 28.15 12.9 28.4 13.5 27.7 L12.1 27.25 Q12.45 27.35 13.9 26.55 15.35 25.75 16.9 23.05 L15.0 23.25 15.15 23.15 16.1 22.45 Q18.1 20.95 20.3 20.6 L23.25 20.65 23.3 20.65 23.45 20.8 23.55 20.9 24.35 21.4 25.4 21.85 25.5 21.9 26.1 22.0 27.25 21.95 27.3 21.95 27.7 21.85 27.25 21.6 26.45 21.15 25.85 20.8 24.55 20.05 Q23.2 19.25 22.5 18.15 L22.3 17.9 Q21.5 16.6 21.35 15.5 L21.2 14.15 21.2 14.05 Q21.2 12.0 22.1 10.25 L22.8 9.05 22.9 8.9 23.2 11.1 Q23.45 13.1 24.45 14.15 L24.65 14.35 24.65 14.15 Q24.45 12.55 25.05 10.95 L25.65 9.5 26.4 10.35 26.45 10.7 26.6 11.85 27.35 14.15 27.8 15.0 Q28.55 16.35 29.85 16.7 L28.5 15.2 Q28.2 14.75 28.2 14.15 L28.3 13.1 Q28.65 11.75 29.25 10.95 29.85 10.15 30.55 9.65 L32.15 8.9 33.5 8.65 34.25 8.7 33.55 9.65 Q32.1 12.05 32.55 14.15 32.75 15.3 33.6 16.4 L33.7 16.5 Q33.25 15.25 33.1 14.15 32.75 11.1 35.0 8.8 L35.1 8.75 35.6 8.2 Q36.55 7.3 37.6 6.65 L38.1 6.4 Q39.65 5.45 41.6 5.1 40.9 5.5 40.7 7.25 40.45 9.0 40.55 9.35 L40.7 9.85 42.95 8.15 44.45 7.65 Q42.75 9.2 42.6 11.3 L42.6 11.9 43.7 10.05 43.25 11.15 Q42.5 13.45 43.6 15.55 L43.25 16.1 43.55 16.95 43.95 16.5 Q45.4 14.55 47.95 14.2 L53.1 14.0 54.2 14.1 55.4 14.25 56.5 14.3 57.05 14.3" fill="#c1b9b9" fill-rule="evenodd" stroke="none"/>
      <path d="M41.0 6.3 L43.05 5.85 45.85 5.7 Q42.75 6.85 40.45 9.25 40.25 7.5 41.0 6.3 M57.15 16.8 L58.05 16.5 59.95 15.5 61.05 15.1 59.7 16.9 59.45 16.9 57.15 16.8 M66.85 27.75 L67.45 27.45 68.6 26.75 Q67.2 29.0 65.05 30.5 L66.3 28.8 66.85 27.75 M59.95 51.2 L58.25 55.2 56.5 58.05 56.85 54.3 57.0 51.05 58.1 48.6 Q58.75 47.35 58.75 45.75 59.5 47.15 59.75 48.85 L59.95 51.2 M23.3 11.5 L23.4 11.1 24.05 9.5 24.35 9.0 25.3 7.5 25.2 8.6 25.1 10.25 25.1 11.1 Q24.55 12.95 24.75 14.7 L24.15 13.75 Q23.5 12.65 23.3 11.5 M16.35 31.7 L16.05 31.65 Q13.75 30.95 11.7 29.45 9.9 28.15 8.8 26.1 L8.45 25.5 12.2 27.2 Q12.85 28.4 14.05 29.15 L14.15 29.2 12.6 29.25 Q14.0 30.65 16.25 31.6 L16.35 31.7 M13.7 46.45 Q13.55 47.9 12.9 49.2 L12.7 49.6 10.75 50.35 9.15 50.55 7.65 50.25 7.8 50.2 9.2 49.85 10.75 49.1 Q12.35 48.2 13.7 46.45" fill="#c32f2f" fill-rule="evenodd" stroke="none"/>
      <path d="M40.45 9.25 L40.0 9.75 Q38.25 11.75 38.65 14.45 38.95 16.55 39.85 18.35 L40.8 20.25 45.4 17.6 Q47.35 16.5 49.7 16.3 L53.75 16.7 57.15 16.8 59.45 16.9 59.7 16.9 58.15 18.4 Q56.6 19.75 54.75 20.75 52.8 21.8 50.65 22.35 L45.9 22.95 Q48.85 24.05 52.05 23.4 L53.4 23.25 54.75 22.95 Q53.0 24.7 50.55 25.05 L47.1 25.55 Q50.0 26.05 52.55 27.0 L56.7 28.5 Q58.8 29.3 61.05 29.05 L64.4 28.7 66.85 27.75 66.3 28.8 65.05 30.5 63.7 31.35 Q61.95 32.35 59.85 32.0 57.55 31.65 55.5 30.55 L54.7 30.1 50.65 29.75 Q48.2 29.55 47.8 31.85 47.6 33.1 48.2 34.35 L48.75 35.55 Q46.15 34.45 44.25 32.3 L42.05 29.45 40.15 25.5 Q40.0 27.25 40.1 29.1 38.15 27.05 36.75 24.55 35.7 22.7 35.1 20.7 34.5 18.65 34.25 16.5 34.05 14.35 34.6 12.25 35.1 10.45 36.25 9.05 L37.45 7.9 Q39.1 6.8 41.0 6.3 40.25 7.5 40.45 9.25 M57.0 51.05 L57.05 49.6 Q57.15 46.55 56.55 43.55 56.0 40.95 55.05 38.5 54.25 36.45 52.85 34.9 L50.75 32.65 Q52.7 31.6 54.95 32.05 57.05 32.25 58.95 33.6 60.95 35.05 61.95 37.35 62.9 39.45 63.45 41.7 64.0 43.95 63.7 46.3 L63.45 48.3 63.1 44.8 Q62.7 42.6 61.75 40.6 60.75 38.4 59.2 36.45 L58.65 35.75 Q59.65 37.6 60.25 39.5 60.9 41.75 61.0 44.25 61.1 47.25 60.25 50.15 L59.95 51.2 59.75 48.85 Q59.5 47.15 58.75 45.75 58.75 47.35 58.1 48.6 L57.0 51.05 M25.1 11.1 L25.1 11.8 Q25.1 13.35 25.85 14.7 26.75 16.2 28.35 17.0 L29.95 17.55 31.7 17.7 Q29.9 16.55 29.7 14.9 29.5 13.25 30.05 12.3 L31.15 10.45 Q30.3 12.9 31.25 15.15 31.9 16.75 33.45 17.65 32.35 19.25 30.4 19.8 L28.5 20.1 Q29.95 21.35 31.8 22.15 32.85 22.65 34.15 22.6 L30.25 22.2 28.4 21.7 Q26.0 20.8 24.5 18.5 23.25 16.5 23.05 14.15 22.95 12.8 23.3 11.5 23.5 12.65 24.15 13.75 L24.75 14.7 Q24.55 12.95 25.1 11.1 M12.2 27.2 L12.85 27.45 15.5 27.85 Q17.8 27.9 20.0 27.1 L24.0 25.6 Q26.35 24.8 28.7 24.95 30.1 25.2 31.1 26.15 L33.0 28.35 28.45 27.6 Q26.6 27.6 25.1 28.55 L21.2 30.85 Q18.8 32.15 16.35 31.7 L16.25 31.6 Q14.0 30.65 12.6 29.25 L14.15 29.2 14.05 29.15 Q12.85 28.4 12.2 27.2 M12.7 49.6 L12.9 49.2 Q13.55 47.9 13.7 46.45 L13.75 46.4 17.1 40.45 Q18.8 36.45 23.15 34.6 25.25 33.8 28.5 34.05 31.7 34.25 34.05 36.85 28.5 36.5 25.6 38.0 L25.15 38.15 Q22.45 39.2 16.85 45.85 L15.9 46.95 14.55 48.2 13.8 48.75 13.05 49.4 12.7 49.6" fill="#f0e9e9" fill-rule="evenodd" stroke="none"/>
      <path d="M35.45 10.7 Q36.85 7.8 39.95 7.35 39.15 8.85 38.6 10.5 37.7 13.25 38.1 16.05 38.55 18.9 40.2 21.55 L38.0 21.7 37.55 22.65 36.2 21.0 Q34.6 19.0 34.4 16.2 34.2 13.3 35.45 10.7 M50.45 20.2 L47.75 19.9 Q48.75 19.05 50.75 18.75 L44.65 18.95 Q45.25 18.05 46.0 17.85 L46.4 17.6 Q48.35 16.5 50.3 16.25 52.0 16.0 55.15 17.0 L58.3 17.05 Q57.1 18.0 54.45 18.6 L54.05 19.4 Q53.45 20.5 54.35 20.5 52.05 21.95 47.75 21.6 49.55 21.15 50.45 20.2 M26.55 18.35 Q24.15 16.9 23.3 14.45 22.75 12.75 23.2 11.1 23.35 12.55 24.2 13.7 L24.65 14.15 24.75 12.55 25.05 10.95 25.15 12.6 25.4 14.1 26.55 18.35" fill="#ffffff" fill-rule="evenodd" stroke="none"/>
      <path d="M56.8 13.0 L60.4 12.55 Q62.2 12.1 64.05 11.25 L64.3 11.15 64.3 11.2 64.25 13.25 64.05 16.1 63.7 18.1 63.35 18.95 62.35 20.65 62.25 20.85 61.95 20.6 61.65 20.3 61.5 20.15 61.7 19.8 Q63.7 16.4 63.05 12.4 L61.7 13.35 59.75 14.05 57.35 14.3 57.05 14.3 56.5 14.3 56.55 13.95 56.7 13.15 56.8 13.0 M64.6 25.0 L65.55 25.05 Q67.1 25.1 68.6 24.3 69.8 23.55 70.5 22.1 71.0 23.35 70.5 24.6 L69.45 27.05 67.85 29.6 65.5 31.7 65.3 31.55 64.85 31.2 64.65 30.95 66.35 29.8 67.85 28.15 68.95 26.2 69.75 24.1 Q69.15 24.95 68.2 25.4 66.95 26.2 65.55 26.05 L63.95 25.95 64.1 25.75 64.1 25.7 64.1 25.6 64.15 25.6 64.6 25.0 M62.1 55.25 L60.8 56.7 58.65 58.85 57.1 60.05 54.75 61.7 52.7 62.9 52.3 62.85 Q52.3 62.5 52.55 62.1 L53.35 60.8 54.45 59.05 Q55.25 57.7 55.35 56.15 L55.45 54.95 56.2 54.65 56.2 55.5 55.9 57.15 55.0 60.0 56.35 59.1 58.7 57.25 60.5 55.4 61.3 54.35 61.5 54.55 62.1 55.25 M45.1 8.2 L45.4 7.95 Q45.95 7.5 46.6 7.2 50.0 5.7 53.6 7.05 L53.65 7.05 Q51.45 4.95 48.9 4.8 45.85 4.3 42.9 4.9 L41.85 5.05 42.0 4.65 42.0 4.55 42.2 4.05 47.75 3.7 Q52.25 3.85 55.3 8.15 52.4 6.85 49.2 7.45 47.05 7.6 45.7 9.05 L45.4 8.65 45.1 8.2 M26.45 10.7 L26.4 10.35 26.4 8.35 Q26.55 6.0 27.75 4.05 L25.1 6.3 22.9 8.9 22.8 9.05 22.65 8.9 22.55 8.7 22.1 7.85 23.45 6.2 Q25.25 4.1 27.6 2.95 L28.95 2.85 27.9 5.1 27.15 7.15 Q26.65 8.75 26.8 10.25 L26.85 10.4 26.7 10.5 26.7 10.55 26.6 10.6 26.5 10.7 26.45 10.7 M15.15 23.15 L15.0 23.25 13.85 23.95 Q12.8 24.55 11.45 24.5 L9.95 24.15 8.05 23.4 6.7 22.7 Q6.9 24.3 7.55 26.05 8.6 28.8 10.95 30.2 12.05 30.9 13.3 31.3 L15.75 31.95 15.75 32.0 15.65 32.25 15.6 32.35 15.05 32.75 12.25 31.7 Q10.15 31.0 8.6 29.25 5.6 25.8 6.05 21.35 L7.15 21.95 9.85 23.35 11.15 23.6 Q13.1 23.6 14.75 22.55 L14.85 22.5 15.15 23.15 M12.3 42.8 L11.85 44.0 Q10.4 47.9 6.75 49.85 L7.65 50.25 9.15 50.55 10.75 50.35 10.85 50.3 12.7 49.6 13.0 49.45 13.0 49.6 12.7 50.7 12.4 50.85 10.95 51.35 8.6 51.25 6.7 50.7 Q5.45 50.45 4.7 49.65 4.7 49.5 4.8 49.5 L7.3 48.3 Q9.1 47.55 10.1 46.05 L10.35 45.65 10.55 45.35 10.7 45.1 10.95 44.55 11.55 42.4 11.7 41.5 11.75 41.6 12.3 42.8 M15.8 55.9 L15.85 56.05 16.35 57.65 Q17.25 60.65 19.7 62.55 L20.55 59.5 Q20.85 58.5 21.4 57.6 L21.85 56.85 22.1 56.55 22.9 57.25 23.0 57.4 22.5 58.05 Q20.6 60.85 20.7 64.1 L19.9 63.9 Q18.45 63.2 17.5 61.75 16.55 60.3 15.95 58.9 L15.15 57.0 15.0 56.45 15.5 56.1 15.8 55.9" fill="#131111" fill-rule="evenodd" stroke="none"/>
      <path d="M56.8 13.0 L56.7 13.15 56.55 13.95 56.5 14.3 55.4 14.25 54.2 14.1 53.1 14.0 47.95 14.2 Q45.4 14.55 43.95 16.5 L43.55 16.95 43.25 16.1 43.6 15.55 Q42.5 13.45 43.25 11.15 43.85 9.3 45.1 8.2 L45.4 8.65 45.7 9.05 44.5 11.1 Q43.75 12.95 44.1 15.0 44.7 14.45 45.4 14.1 46.8 13.5 48.3 13.05 L50.05 12.9 56.7 13.0 56.8 13.0 M61.5 20.15 L61.65 20.3 61.95 20.6 62.25 20.85 Q61.2 22.4 59.8 23.45 L59.35 23.8 60.2 24.05 62.75 24.7 64.6 25.0 64.15 25.6 64.1 25.6 64.1 25.7 64.1 25.75 63.95 25.95 63.8 25.9 61.1 25.2 59.0 24.55 58.85 24.5 58.25 24.4 58.15 24.45 55.75 24.95 53.95 25.1 52.95 25.4 Q53.8 24.65 54.3 24.5 L55.3 24.1 56.0 23.9 56.45 23.8 58.0 23.25 Q58.4 23.0 58.85 22.7 L60.25 21.6 61.35 20.35 61.5 20.15 M65.5 31.7 L63.15 32.9 Q61.95 33.5 60.75 33.35 L61.55 34.4 62.8 36.3 Q63.9 37.85 64.45 39.7 L65.15 43.25 65.4 46.75 65.15 49.45 Q64.4 52.05 62.85 54.2 L62.1 55.25 61.5 54.55 61.3 54.35 61.6 53.9 62.35 52.55 Q63.1 51.05 63.45 49.4 L63.9 45.35 63.9 44.4 Q63.8 41.95 62.9 39.6 L61.5 36.55 Q60.85 35.2 59.8 34.0 L59.2 33.25 58.55 32.55 58.05 32.3 56.8 31.45 55.45 30.35 55.4 30.3 55.4 30.25 Q55.4 30.2 56.2 30.7 L56.65 30.95 58.95 31.85 59.5 32.0 60.65 32.1 61.6 32.05 63.05 31.75 64.45 31.05 64.6 30.95 64.65 30.95 64.85 31.2 65.3 31.55 65.5 31.7 M55.45 54.95 Q55.4 52.65 54.65 50.55 53.9 48.4 52.4 46.7 L49.35 43.45 48.85 42.95 Q50.65 43.7 52.55 45.6 54.4 47.45 55.3 49.9 56.2 52.3 56.2 54.65 L55.45 54.95 M42.2 4.05 L42.0 4.55 42.0 4.65 41.85 5.05 41.6 5.1 Q39.65 5.45 38.1 6.4 L37.6 6.65 Q36.55 7.3 35.6 8.2 L35.1 8.75 35.0 8.8 Q31.95 11.95 33.7 16.5 L33.6 16.4 Q31.3 13.4 33.55 9.65 L34.25 8.7 33.5 8.65 32.15 8.9 30.55 9.65 Q29.85 10.15 29.25 10.95 28.65 11.75 28.3 13.1 27.95 14.4 28.5 15.2 L29.85 16.7 Q28.55 16.35 27.8 15.0 26.95 13.55 26.6 11.85 L26.45 10.7 26.5 10.7 26.6 10.6 26.7 10.55 26.7 10.5 26.85 10.4 Q26.95 11.6 27.35 12.8 L27.5 13.25 Q27.6 12.65 28.05 11.65 28.7 10.0 30.4 8.95 32.05 7.9 34.4 8.05 L34.65 8.1 Q36.15 6.05 38.3 5.15 L38.65 5.0 39.0 4.85 39.3 4.75 39.5 4.7 39.55 4.65 42.2 4.05 M22.8 9.05 L22.1 10.25 Q21.2 12.0 21.2 14.05 L21.35 15.5 Q21.5 16.6 22.3 17.9 L22.5 18.15 Q23.2 19.25 24.55 20.05 L25.85 20.8 26.45 21.15 27.25 21.6 27.7 21.85 27.3 21.95 27.25 21.95 26.1 22.0 25.5 21.9 25.4 21.85 24.35 21.4 23.55 20.9 23.45 20.8 23.3 20.65 23.25 20.65 20.3 20.6 Q18.1 20.95 16.1 22.45 L15.15 23.15 14.85 22.5 Q15.75 21.75 16.7 21.25 L19.6 20.05 21.3 19.65 21.9 19.65 21.95 19.65 22.2 19.6 22.4 19.6 21.45 18.35 21.05 17.7 20.55 16.65 20.1 15.0 20.1 14.95 20.1 14.6 20.05 14.2 Q20.0 12.9 20.3 11.65 20.7 9.85 21.75 8.3 L22.1 7.85 22.55 8.7 22.65 8.9 22.8 9.05 M15.75 31.95 L15.8 31.95 16.0 32.0 Q18.45 32.35 20.75 31.3 L21.3 31.05 23.45 29.55 23.5 29.65 Q22.85 31.25 21.3 32.25 L19.8 32.9 17.25 33.15 Q16.0 34.05 15.1 35.3 14.0 36.9 13.45 38.55 L12.7 41.3 12.3 42.8 11.75 41.6 11.7 41.5 12.05 39.75 13.05 36.85 Q14.15 34.3 16.35 33.05 L15.35 32.85 15.05 32.75 15.6 32.35 15.65 32.25 15.75 32.0 15.75 31.95 M13.0 49.45 L13.0 49.4 13.05 49.4 13.8 48.75 14.3 48.25 15.5 46.75 Q16.2 45.7 16.85 45.85 L17.1 45.9 16.8 46.5 Q16.1 47.65 15.7 48.9 L15.25 50.9 Q14.95 52.8 15.4 54.5 L15.8 55.9 15.5 56.1 15.0 56.45 14.6 55.25 Q13.75 52.55 14.2 49.7 L13.75 50.1 12.7 50.7 13.0 49.6 13.0 49.45 M22.1 56.55 L23.4 55.05 Q25.8 52.8 28.75 51.35 L31.4 49.6 32.8 48.4 33.45 47.4 35.45 42.95 35.45 43.8 35.3 45.65 34.8 47.5 33.8 49.3 Q33.15 50.5 31.95 51.3 L29.2 52.75 27.15 53.75 Q25.85 54.4 24.8 55.4 L23.0 57.4 22.9 57.25 22.1 56.55" fill="#575353" fill-rule="evenodd" stroke="none"/>
      <path d="M46.65 41.75 Q49.35 42.55 50.95 44.7 48.35 42.9 45.6 42.35 L40.25 42.1 Q36.95 42.4 35.1 44.45 34.6 44.15 35.8 42.85 36.95 41.55 40.45 41.2 43.95 40.9 46.65 41.75" fill="#575353" fill-rule="evenodd" stroke="none"/>
    </g>
    <g id="sprite1">
      <use ffdec:characterId="13" height="31.5" transform="matrix(1.0, 0.0, 0.0, 1.0, 0.0, 0.0)" width="20.8" xlink:href="#shape1"/>
    </g>
    <g id="shape1">
      <path d="M5.8 5.05 L7.95 7.4 Q9.6 9.3 13.15 11.85 L17.15 14.75 19.2 16.45 Q19.6 16.9 20.05 18.3 L20.5 19.95 20.8 21.95 Q20.8 25.4 17.95 28.15 L16.95 29.0 15.1 30.3 13.7 29.0 10.9 26.3 8.35 23.3 6.3 20.05 5.45 18.3 4.9 16.7 4.05 12.85 Q3.8 11.05 4.15 9.05 4.5 7.1 5.4 5.6 L5.8 5.05" fill="#f3ecec" fill-rule="evenodd" stroke="none"/>
      <path d="M15.1 30.3 Q13.05 31.5 11.4 31.5 6.7 31.5 3.25 20.7 L1.8 15.4 2.5 16.15 Q3.85 17.6 5.45 18.3 L6.3 20.05 8.35 23.3 10.9 26.3 13.7 29.0 15.1 30.3" fill="#8088a8" fill-rule="evenodd" stroke="none"/>
      <path d="M1.8 15.4 L1.1 11.95 0.7 9.65 0.75 8.7 1.0 5.65 Q1.3 2.8 1.5 2.2 2.05 0.5 3.05 1.6 L4.5 3.65 5.8 5.05 5.4 5.6 Q4.5 7.1 4.15 9.05 3.8 11.05 4.05 12.85 L4.9 16.7 5.45 18.3 Q3.85 17.6 2.5 16.15 L1.8 15.4" fill="#9c94bb" fill-rule="evenodd" stroke="none"/>
      <path d="M4.6 17.75 Q3.6 14.75 3.2 11.45 2.55 6.4 4.05 7.6 5.5 8.8 6.4 11.5 7.3 14.2 9.1 15.45 10.8 16.6 10.75 17.9 9.65 19.55 7.35 18.95 5.1 18.3 4.6 17.75" fill="#901b1b" fill-rule="evenodd" stroke="none"/>
      <path d="M10.75 17.9 L10.75 18.05 10.2 21.35 Q9.8 23.3 8.8 24.3 7.75 25.3 5.8 20.9 L4.6 17.75 Q5.1 18.3 7.35 18.95 9.65 19.55 10.75 17.9" fill="#5a1111" fill-rule="evenodd" stroke="none"/>
      <path d="M1.7 0.65 L3.35 2.7 6.65 6.55 9.15 9.25 15.25 14.3 12.4 15.75 Q10.6 17.7 10.9 21.45 L10.3 19.95 Q9.8 18.25 8.8 16.75 L6.15 12.55 Q4.6 10.1 3.4 7.4 2.3 5.0 1.7 2.15 L1.7 0.65" fill="#ffffff" fill-rule="evenodd" stroke="none"/>
      <path d="M0.45 12.8 L0.05 8.5 Q-0.2 3.85 1.65 0.0 4.0 2.15 6.05 4.7 9.7 9.35 14.65 12.35 17.7 14.2 19.25 16.4 L18.7 16.65 Q15.45 15.0 12.6 12.6 6.6 7.6 1.9 1.25 1.3 5.4 1.5 9.55 1.75 14.6 3.35 19.5 5.2 25.05 8.35 30.1 L8.3 30.7 7.6 30.2 Q4.2 26.7 2.6 21.85 1.15 17.45 0.45 12.8" fill="#373841" fill-rule="evenodd" stroke="none"/>
    </g>
    <g id="sprite2">
      <use ffdec:characterId="23" height="36.15" transform="matrix(1.0, 0.0, 0.0, 1.0, 0.0, 0.0)" width="49.65" xlink:href="#shape2"/>
    </g>
    <g id="shape2">
      <path d="M43.3 16.0 L42.65 17.0 42.1 17.8 39.9 20.6 Q37.1 22.7 34.75 23.55 L32.3 24.05 Q35.25 25.0 37.0 25.0 38.95 25.0 40.8 23.8 42.3 22.8 43.1 21.5 L43.4 20.5 43.5 22.75 Q43.5 24.2 42.95 25.25 L42.25 26.8 44.1 25.05 Q43.7 28.45 40.85 29.9 42.2 29.85 43.75 28.45 L43.35 30.55 42.0 32.4 Q40.95 33.35 38.55 34.15 36.1 35.0 35.05 34.65 34.0 34.35 34.95 33.75 36.35 32.9 36.65 31.1 37.0 29.05 35.9 28.15 L35.15 27.6 Q34.15 26.95 32.55 26.25 30.25 25.25 28.65 23.65 L26.45 21.3 26.5 21.25 27.45 20.4 Q30.4 17.75 33.8 15.4 39.0 12.55 41.75 14.35 42.65 14.9 43.3 16.0 M8.4 8.35 L8.45 8.25 11.6 5.15 Q9.8 8.3 9.0 11.75 L8.55 14.05 9.2 14.55 Q13.5 15.05 17.15 17.6 L17.2 17.65 18.05 18.25 20.15 20.0 20.25 20.1 20.45 20.3 20.5 20.35 20.6 20.4 20.7 20.5 20.95 20.75 21.05 20.85 21.25 21.0 21.8 21.55 22.6 21.6 Q20.85 21.9 19.15 24.0 L17.2 26.4 17.15 26.45 15.7 27.6 14.65 28.0 Q13.5 28.25 12.8 30.0 12.1 31.7 14.5 33.7 15.65 34.5 13.35 34.5 11.05 34.45 8.35 32.9 5.6 31.35 5.75 28.65 L7.65 29.7 Q5.85 27.4 4.65 24.6 L4.25 23.7 Q5.75 25.6 7.75 26.95 6.7 25.1 6.4 23.75 6.05 22.4 6.45 21.65 6.5 21.6 6.65 21.5 7.45 22.8 8.95 23.8 10.8 25.0 12.75 25.0 14.5 25.0 17.45 24.05 L15.0 23.55 Q12.65 22.7 9.85 20.6 L7.65 17.8 6.3 15.55 6.35 15.35 6.6 13.75 7.7 10.0 8.4 8.35" fill="#d1c5c5" fill-rule="evenodd" stroke="none"/>
      <path d="M43.4 20.5 L43.1 21.5 Q42.3 22.8 40.8 23.8 38.95 25.0 37.0 25.0 35.25 25.0 32.3 24.05 L34.75 23.55 Q37.1 22.7 39.9 20.6 L42.1 17.8 42.65 17.0 43.3 16.0 43.45 15.55 43.6 16.45 43.7 18.05 43.4 20.5 M26.5 21.25 L26.45 21.3 28.65 23.65 Q30.25 25.25 32.55 26.25 34.15 26.95 35.15 27.6 35.45 27.95 35.25 29.25 35.05 30.55 34.2 31.55 L32.55 32.85 30.1 32.7 Q28.4 32.25 26.9 29.85 L25.7 28.3 24.5 27.9 23.95 26.7 Q22.8 24.25 24.25 22.4 L24.85 21.7 22.6 21.6 21.8 21.55 21.25 21.0 21.05 20.85 20.95 20.75 21.0 20.7 Q21.3 20.35 21.65 20.1 L20.3 18.8 Q17.65 16.25 15.8 12.75 13.95 9.25 14.85 5.35 15.2 3.85 15.95 2.65 L17.6 1.9 19.7 1.25 Q24.1 0.1 28.7 1.2 33.3 2.45 37.15 4.9 L36.75 7.05 Q35.6 10.7 32.9 13.45 L30.6 15.45 29.05 16.4 28.45 16.8 27.75 17.3 27.05 18.1 26.7 18.75 26.45 19.3 Q26.25 19.65 26.3 20.05 L26.35 20.75 26.45 21.15 26.5 21.25 M6.3 15.55 L7.65 17.8 9.85 20.6 Q12.65 22.7 15.0 23.55 L17.45 24.05 Q14.5 25.0 12.75 25.0 10.8 25.0 8.95 23.8 7.45 22.8 6.65 21.5 6.05 19.85 6.05 18.05 6.05 16.65 6.3 15.55 M15.7 27.6 L17.15 26.45 17.2 26.4 Q17.35 26.2 18.45 25.65 19.55 25.05 20.95 26.65 22.35 28.25 21.2 29.9 20.0 31.55 18.25 31.75 16.45 31.95 15.8 31.05 15.1 30.1 15.7 27.6" fill="#ffffff" fill-rule="evenodd" stroke="none"/>
      <path d="M35.15 27.6 L35.9 28.15 Q37.0 29.05 36.65 31.1 36.35 32.9 34.95 33.75 34.0 34.35 35.05 34.65 36.1 35.0 38.55 34.15 40.95 33.35 42.0 32.4 L43.35 30.55 43.75 28.45 Q42.2 29.85 40.85 29.9 43.7 28.45 44.1 25.05 L42.25 26.8 42.95 25.25 Q43.5 24.2 43.5 22.75 L43.4 20.5 43.7 18.05 43.6 16.45 44.6 14.65 44.75 15.6 45.1 17.25 45.1 17.3 45.6 19.9 45.7 20.0 47.25 21.1 Q47.85 21.45 47.85 21.95 L46.9 24.5 45.75 26.75 Q46.7 26.75 46.7 27.4 L45.6 28.55 45.6 28.75 Q45.6 30.6 42.7 32.7 40.7 34.15 38.45 34.95 L36.75 35.45 33.35 35.4 28.8 33.65 26.7 32.3 26.6 32.2 24.9 30.5 22.1 33.3 20.95 34.1 19.35 34.85 18.7 35.0 17.4 35.15 17.35 35.15 16.15 35.15 16.0 35.15 14.95 35.1 14.4 35.05 Q11.0 34.8 9.05 33.85 8.35 33.5 6.55 31.75 L4.7 29.75 Q3.15 27.9 3.15 27.3 3.15 26.25 4.0 26.6 L2.45 23.75 1.55 21.65 Q1.55 21.1 3.05 20.75 4.45 20.45 4.05 19.4 4.05 18.9 4.4 16.7 L4.95 14.05 Q5.3 12.5 6.05 11.35 L8.3 8.45 8.4 8.35 7.7 10.0 6.6 13.75 6.35 15.35 6.3 15.55 Q6.05 16.65 6.05 18.05 6.05 19.85 6.65 21.5 6.5 21.6 6.45 21.65 6.05 22.4 6.4 23.75 6.7 25.1 7.75 26.95 5.75 25.6 4.25 23.7 L4.65 24.6 Q5.85 27.4 7.65 29.7 L5.75 28.65 Q5.6 31.35 8.35 32.9 11.05 34.45 13.35 34.5 15.65 34.5 14.5 33.7 12.1 31.7 12.8 30.0 13.5 28.25 14.65 28.0 L15.7 27.6 Q15.1 30.1 15.8 31.05 16.45 31.95 18.25 31.75 20.0 31.55 21.2 29.9 22.35 28.25 20.95 26.65 19.55 25.05 18.45 25.65 17.35 26.2 17.2 26.4 L19.15 24.0 Q20.85 21.9 22.6 21.6 L24.85 21.7 24.25 22.4 Q22.8 24.25 23.95 26.7 L24.5 27.9 25.7 28.3 26.9 29.85 Q28.4 32.25 30.1 32.7 L32.55 32.85 34.2 31.55 Q35.05 30.55 35.25 29.25 35.45 27.95 35.15 27.6" fill="#9c94bb" fill-rule="evenodd" stroke="none"/>
      <path d="M43.3 16.0 Q42.65 14.9 41.75 14.35 39.0 12.55 33.8 15.4 30.4 17.75 27.45 20.4 L26.5 21.25 26.45 21.15 26.35 20.75 26.3 20.05 Q26.25 19.65 26.45 19.3 L26.7 18.75 27.05 18.1 27.75 17.3 28.45 16.8 29.05 16.4 30.6 15.45 32.9 13.45 Q35.6 10.7 36.75 7.05 L37.15 4.9 37.6 5.2 39.05 6.2 Q43.55 9.55 44.6 14.65 L43.6 16.45 43.45 15.55 43.3 16.0 M11.6 5.15 L11.65 5.15 Q13.7 3.7 15.95 2.65 15.2 3.85 14.85 5.35 13.95 9.25 15.8 12.75 17.65 16.25 20.3 18.8 L21.65 20.1 Q21.3 20.35 21.0 20.7 L20.95 20.75 20.7 20.5 20.6 20.4 20.5 20.35 20.45 20.3 20.25 20.1 20.15 20.0 18.05 18.25 17.2 17.65 17.15 17.6 Q13.5 15.05 9.2 14.55 L8.55 14.05 9.0 11.75 Q9.8 8.3 11.6 5.15" fill="#f3ecec" fill-rule="evenodd" stroke="none"/>
      <path d="M43.35 10.7 L44.1 12.0 44.95 14.45 45.6 17.0 Q45.75 17.9 46.5 19.1 47.25 20.3 49.45 20.5 L49.65 20.7 47.15 26.35 48.6 26.3 Q48.85 26.95 48.4 27.5 L47.3 29.1 Q45.55 32.2 42.65 34.2 41.45 35.05 39.9 35.5 L33.65 36.1 Q31.15 35.75 29.0 34.65 L27.7 34.0 26.7 33.25 25.65 31.95 24.85 30.85 24.05 31.95 23.0 33.25 22.0 34.0 20.7 34.65 Q18.5 35.75 16.0 36.1 12.8 36.35 9.75 35.5 8.25 35.05 7.05 34.2 4.15 32.2 2.35 29.1 L1.25 27.5 Q0.85 26.95 1.05 26.3 L2.5 26.35 0.0 20.7 0.25 20.5 2.4 20.15 3.55 19.4 Q3.85 19.05 4.55 15.9 5.2 12.75 5.55 12.0 L6.3 10.7 6.1 11.65 Q5.25 14.85 5.2 18.0 5.2 19.05 4.55 19.9 3.6 21.2 1.9 21.45 2.75 24.25 4.75 26.6 L5.05 27.3 3.1 27.25 3.9 28.4 Q5.5 30.75 7.85 32.35 10.45 34.2 13.65 34.35 18.1 34.8 21.75 32.25 L22.65 31.3 Q23.35 30.35 24.35 29.7 24.45 29.35 24.85 29.45 25.15 29.35 25.3 29.6 L25.4 29.75 Q26.35 30.35 27.0 31.3 L27.9 32.25 Q31.55 34.8 36.0 34.35 39.2 34.2 41.8 32.35 44.15 30.75 45.75 28.4 L46.55 27.25 44.6 27.3 Q44.6 26.95 44.9 26.6 46.9 24.25 47.75 21.45 46.05 21.2 45.1 19.9 44.45 19.05 44.45 18.0 44.4 14.85 43.55 11.65 L43.35 10.7" fill="#292a33" fill-rule="evenodd" stroke="none"/>
      <path d="M34.0 2.9 L34.05 3.15 34.05 3.2 30.25 2.35 Q25.45 1.25 21.7 1.8 L15.0 3.0 Q16.0 2.2 18.8 1.05 21.65 -0.15 26.85 0.05 L30.5 0.85 Q32.55 1.35 34.0 2.9" fill="#505158" fill-rule="evenodd" stroke="none"/>
      <path d="M24.1 22.05 Q23.05 23.65 23.3 25.3 23.55 27.05 24.1 27.8 21.0 26.4 20.25 25.35 19.4 24.2 19.8 23.95 20.95 22.45 22.85 22.05 L24.1 22.05" fill="#6b7085" fill-rule="evenodd" stroke="none"/>
      <path d="M5.25 20.45 Q5.35 21.9 5.95 23.4 L6.8 25.9 Q5.3 25.2 4.0 23.6 L2.25 21.65 Q4.15 21.6 4.65 20.5 L5.25 18.6 5.3 18.55 Q5.15 18.95 5.25 20.45" fill="#6b7085" fill-rule="evenodd" stroke="none"/>
      <path d="M44.35 20.45 Q44.25 21.9 43.65 23.4 L42.8 25.9 Q44.3 25.2 45.6 23.6 L47.35 21.65 Q45.45 21.6 44.95 20.5 L44.35 18.6 44.3 18.55 44.35 20.45" fill="#6b7085" fill-rule="evenodd" stroke="none"/>
      <path d="M24.85 24.15 L24.95 24.15 26.35 24.2 Q27.5 24.2 28.05 25.0 L28.2 25.35 Q28.3 26.95 27.0 28.05 L26.2 28.65 26.75 30.15 28.15 32.05 Q29.2 33.15 31.05 33.6 32.95 34.05 34.3 33.3 35.7 32.5 35.3 31.75 34.95 30.95 35.15 30.4 35.35 29.85 35.9 29.45 36.45 29.05 37.25 29.8 38.1 30.5 37.6 32.2 37.15 33.9 35.3 34.55 33.45 35.2 32.45 35.1 L29.95 34.5 Q28.5 34.0 27.25 32.85 26.0 31.65 24.95 29.5 L24.9 29.6 24.85 29.5 Q23.8 31.65 22.55 32.85 L19.85 34.5 17.35 35.1 Q16.35 35.2 14.5 34.55 12.65 33.9 12.2 32.2 11.7 30.5 12.55 29.8 13.35 29.05 13.9 29.45 14.45 29.85 14.65 30.4 14.85 30.95 14.5 31.75 14.1 32.5 15.5 33.3 16.85 34.05 18.75 33.6 20.6 33.15 21.65 32.05 L23.05 30.15 23.6 28.65 22.8 28.05 Q21.5 26.95 21.6 25.35 L21.75 25.0 Q22.3 24.2 23.45 24.2 L24.85 24.15" fill="#581010" fill-rule="evenodd" stroke="none"/>
      <path d="M34.2 10.75 L29.8 14.75 Q28.0 16.25 27.9 15.8 L27.9 15.3 Q27.85 13.0 29.55 11.9 30.9 10.95 34.7 10.25 L34.2 10.75" fill="#d02d2d" fill-rule="evenodd" stroke="none"/>
      <path d="M40.1 11.75 L41.2 10.9 42.7 11.0 42.9 11.8 42.85 14.8 42.35 17.45 Q41.85 19.15 40.3 20.8 38.7 22.4 36.9 22.75 33.1 23.45 29.85 21.45 29.15 20.9 29.15 19.9 30.8 17.35 32.3 16.05 33.8 14.75 34.9 14.2 L37.3 13.25 39.1 12.55 40.1 11.75" fill="#b51c1c" fill-rule="evenodd" stroke="none"/>
      <path d="M43.6 18.7 L43.35 20.15 Q43.15 21.45 41.8 22.9 40.55 24.35 34.0 24.55 35.85 25.75 37.75 26.0 39.7 26.3 41.25 26.05 42.8 25.85 43.6 24.05 44.45 22.25 44.3 21.1 44.15 19.9 43.6 18.7" fill="#901b1b" fill-rule="evenodd" stroke="none"/>
      <path d="M35.5 21.0 Q37.85 20.9 39.25 18.8 40.6 16.75 40.25 16.05 39.4 13.6 35.4 16.15 31.45 18.65 32.25 19.85 33.15 21.05 35.5 21.0" fill="#2a0e0e" fill-rule="evenodd" stroke="none"/>
      <path d="M36.15 20.25 Q37.7 20.25 38.6 18.9 39.55 17.65 39.3 17.25 38.7 15.65 36.1 17.25 33.45 18.85 34.05 19.6 34.6 20.35 36.15 20.25" fill="#572626" fill-rule="evenodd" stroke="none"/>
      <path d="M28.55 3.55 Q29.7 5.5 27.7 8.0 26.0 10.15 25.4 11.95 L25.8 12.55 Q26.45 13.35 26.1 13.95 25.75 14.45 25.2 14.45 L24.95 14.45 24.7 14.45 Q24.15 14.45 23.85 13.95 23.45 13.35 24.1 12.55 L24.55 11.95 Q23.9 10.15 22.2 8.0 20.2 5.5 21.35 3.55 22.35 1.95 24.2 1.95 L24.95 1.95 25.7 1.95 Q27.55 1.95 28.55 3.55" fill="#d02d2d" fill-rule="evenodd" stroke="none"/>
      <path d="M15.55 10.75 L19.95 14.75 Q21.75 16.25 21.85 15.8 L21.85 15.3 Q21.9 13.0 20.2 11.9 18.85 10.95 15.05 10.25 L15.55 10.75" fill="#d02d2d" fill-rule="evenodd" stroke="none"/>
      <path d="M9.65 11.75 L8.55 10.9 7.05 11.0 6.85 11.8 Q6.7 12.9 6.9 14.8 7.1 16.5 7.4 17.45 7.9 19.15 9.45 20.8 11.05 22.4 12.85 22.75 16.65 23.45 19.9 21.45 20.6 20.9 20.6 19.9 18.95 17.35 17.45 16.05 15.95 14.75 14.85 14.2 13.75 13.65 12.45 13.25 L10.65 12.55 9.65 11.75" fill="#b51c1c" fill-rule="evenodd" stroke="none"/>
      <path d="M6.15 18.7 L6.4 20.15 Q6.6 21.45 7.95 22.9 9.2 24.35 15.75 24.55 13.9 25.75 12.0 26.0 10.05 26.3 8.5 26.05 6.95 25.85 6.15 24.05 5.3 22.25 5.45 21.1 5.6 19.9 6.15 18.7" fill="#901b1b" fill-rule="evenodd" stroke="none"/>
      <path d="M14.25 21.0 Q11.9 20.9 10.5 18.8 9.15 16.75 9.5 16.05 10.35 13.6 14.35 16.15 18.3 18.65 17.5 19.85 16.6 21.05 14.25 21.0" fill="#2a0e0e" fill-rule="evenodd" stroke="none"/>
      <path d="M13.6 20.25 Q12.05 20.25 11.15 18.9 10.2 17.65 10.45 17.25 11.05 15.65 13.65 17.25 16.3 18.85 15.7 19.6 15.15 20.35 13.6 20.25" fill="#572626" fill-rule="evenodd" stroke="none"/>
      <path d="M13.95 34.3 L12.15 34.45 Q5.35 33.4 3.35 27.4 L6.0 30.25 Q8.0 32.15 13.95 34.3" fill="#f3ecec" fill-rule="evenodd" stroke="none"/>
      <path d="M35.8 34.3 L37.6 34.45 Q44.4 33.4 46.4 27.4 L43.75 30.25 Q41.75 32.15 35.8 34.3" fill="#f3ecec" fill-rule="evenodd" stroke="none"/>
    </g>
    <g id="sprite3">
      <use ffdec:characterId="20" height="2.2" transform="matrix(1.0, 0.0, 0.0, 1.0, 1.15, 1.1)" width="2.2" xlink:href="#sprite4"/>
    </g>
    <g id="sprite4">
      <use ffdec:characterId="19" height="2.2" transform="matrix(1.0, 0.0, 0.0, 1.0, 0.0, 0.0)" width="2.2" xlink:href="#shape3"/>
    </g>
    <g id="shape3">
      <path d="M0.75 -0.8 L1.1 0.0 Q1.1 0.45 0.75 0.75 0.45 1.1 0.0 1.1 -0.45 1.1 -0.8 0.75 L-1.1 0.0 -0.8 -0.8 0.0 -1.1 0.75 -0.8" fill="#572626" fill-rule="evenodd" stroke="none"/>
    </g>
  </defs>
</svg>
