<?xml version="1.0" encoding="UTF-8" standalone="no"?>
<svg xmlns:ffdec="https://www.free-decompiler.com/flash" xmlns:xlink="http://www.w3.org/1999/xlink" ffdec:objectType="frame" height="54.4px" width="61.65px" xmlns="http://www.w3.org/2000/svg">
  <g transform="matrix(1.0, 0.0, 0.0, 1.0, 37.6, 51.2)">
    <use ffdec:characterId="2" height="28.75" transform="matrix(1.0, 0.0, 0.0, 1.0, -16.35, -50.7)" width="38.4" xlink:href="#sprite0"/>
    <use ffdec:characterId="4" height="15.05" transform="matrix(1.0702, 0.0, 0.0, 1.0687, -19.55, -30.1)" width="41.0" xlink:href="#sprite1"/>
    <use ffdec:characterId="6" height="44.25" transform="matrix(1.0, 0.0, 0.0, 1.0, -32.65, -50.85)" width="40.8" xlink:href="#sprite2"/>
    <use ffdec:characterId="8" height="13.85" transform="matrix(1.0, 0.0, 0.0, 1.0, -37.35, -10.4)" width="14.35" xlink:href="#sprite3"/>
    <use ffdec:characterId="10" height="21.75" transform="matrix(1.0702, 0.0, 0.0, 1.0687, -14.85, -38.4)" width="36.2" xlink:href="#sprite4"/>
    <use ffdec:characterId="12" height="11.25" transform="matrix(1.0, 0.0, 0.0, 1.0, -32.65, -50.85)" width="19.45" xlink:href="#sprite5"/>
  </g>
  <defs>
    <g id="sprite0">
      <use ffdec:characterId="1" height="28.75" transform="matrix(1.0, 0.0, 0.0, 1.0, 0.0, 0.0)" width="38.4" xlink:href="#shape0"/>
    </g>
    <g id="shape0">
      <path d="M31.75 13.1 L29.45 22.45 15.3 21.0 Q-15.7 18.55 16.1 0.0 L19.15 1.55 23.2 3.75 Q25.1 4.6 27.0 6.2 28.95 7.8 30.4 9.85 31.7 11.9 31.75 13.1" fill="#e82c3c" fill-rule="evenodd" stroke="none"/>
      <path d="M16.1 0.0 L19.15 1.55 23.2 3.75 Q25.1 4.6 27.0 6.2 28.95 7.8 30.4 9.85 31.7 11.9 31.75 13.1" ffdec:has-small-stroke="true" ffdec:original-stroke-width="0.5" fill="none" stroke="#8f0000" stroke-linecap="round" stroke-linejoin="round" stroke-width="1.0"/>
      <path d="M37.9 27.9 L15.3 21.0 10.75 20.5 Q14.55 10.15 21.95 10.35 29.4 10.5 26.15 6.4 24.6 4.55 22.35 3.05 L23.85 3.7 Q28.2 5.5 30.0 6.55 31.75 7.7 32.1 8.5 L33.0 11.65 Q33.5 13.95 34.8 15.8 36.1 17.55 37.9 27.9" fill="#af0928" fill-rule="evenodd" stroke="none"/>
      <path d="M22.35 3.05 L18.55 1.25 16.5 0.15 M22.35 3.05 L23.85 3.7 Q28.2 5.5 30.0 6.55 31.75 7.7 32.1 8.5 L33.0 11.65 Q33.5 13.95 34.8 15.8 36.1 17.55 37.9 27.9" fill="none" stroke="#8f0000" stroke-linecap="round" stroke-linejoin="round" stroke-width="1.0"/>
      <path d="M28.75 8.1 Q30.3 10.15 30.25 10.6 30.15 11.05 22.1 10.55 28.45 10.0 26.6 7.5 25.05 5.4 22.55 3.45 27.2 6.2 28.75 8.1" fill="#88001a" fill-rule="evenodd" stroke="none"/>
    </g>
    <g id="sprite1">
      <use ffdec:characterId="3" height="15.05" transform="matrix(1.0, 0.0, 0.0, 1.0, 0.0, 0.0)" width="41.0" xlink:href="#shape1"/>
    </g>
    <g id="shape1">
      <path d="M36.3 3.0 Q37.45 3.4 39.15 5.1 40.45 6.5 40.5 7.45 L38.7 8.05 Q39.7 11.75 37.6 14.8 35.85 12.15 33.5 10.0 L33.3 12.05 Q31.15 11.9 29.45 10.4 L29.9 14.0 Q24.55 13.6 23.6 10.05 22.75 13.2 19.6 14.8 17.3 12.85 16.05 9.75 L15.95 12.9 Q12.4 12.3 11.25 9.65 9.9 11.25 8.7 14.6 6.7 13.4 6.1 11.25 L5.95 10.4 Q3.85 12.0 0.6 12.1 -1.8 1.95 5.05 0.35 17.35 -0.15 21.3 0.1 30.3 0.6 36.3 3.0" fill="#dee1ef" fill-rule="evenodd" stroke="none"/>
      <path d="M36.3 3.0 Q37.45 3.4 39.15 5.1 40.45 6.5 40.5 7.45 L38.7 8.05 Q39.7 11.75 37.6 14.8 35.85 12.15 33.5 10.0 L33.3 12.05 Q31.15 11.9 29.45 10.4 L29.9 14.0 Q24.55 13.6 23.6 10.05 22.75 13.2 19.6 14.8 17.3 12.85 16.05 9.75 L15.95 12.9 Q12.4 12.3 11.25 9.65 9.9 11.25 8.7 14.6 6.7 13.4 6.1 11.25 L5.95 10.4 Q3.85 12.0 0.6 12.1 -1.8 1.95 5.05 0.35" ffdec:has-small-stroke="true" ffdec:original-stroke-width="0.5" fill="none" stroke="#848b98" stroke-linecap="round" stroke-linejoin="round" stroke-width="0.9350666277013264"/>
    </g>
    <g id="sprite2">
      <use ffdec:characterId="5" height="44.25" transform="matrix(1.0, 0.0, 0.0, 1.0, 0.0, 0.0)" width="40.8" xlink:href="#shape2"/>
    </g>
    <g id="shape2">
      <path d="M40.1 3.75 L34.7 9.4 34.15 10.1 Q33.75 10.4 33.5 10.8 L30.85 14.3 26.2 20.0 20.2 25.55 15.35 29.05 Q13.5 29.95 12.65 33.45 11.75 36.9 10.95 38.0 L5.9 43.2 3.3 43.55 Q3.05 40.9 3.25 38.75 L3.5 34.9 0.0 24.9 Q-0.05 21.45 0.95 18.5 1.95 15.5 3.1 12.55 4.3 9.6 5.05 8.65 5.85 7.65 7.0 7.05 8.1 6.35 10.55 5.3 13.0 4.2 17.75 2.85 22.5 1.5 24.7 1.1 L28.45 0.6 30.6 0.3 32.2 0.05 Q33.15 -0.25 35.5 1.05 L40.1 3.75" fill="#e82c3c" fill-rule="evenodd" stroke="none"/>
      <path d="M33.5 10.8 L30.85 14.3 26.2 20.0 20.2 25.55 15.35 29.05 Q13.5 29.95 12.65 33.45 11.75 36.9 10.95 38.0 L5.9 43.2 3.3 43.55 Q3.05 40.9 3.25 38.75 L3.5 34.9 0.0 24.9 Q-0.05 21.45 0.95 18.5 1.95 15.5 3.1 12.55 4.3 9.6 5.05 8.65 5.85 7.65 7.0 7.05 8.1 6.35 10.55 5.3 13.0 4.2 17.75 2.85 22.5 1.5 24.7 1.1 L28.45 0.6 30.6 0.3 32.2 0.05 Q33.15 -0.25 35.5 1.05 L40.1 3.75" ffdec:has-small-stroke="true" ffdec:original-stroke-width="0.7" fill="none" stroke="#8f0000" stroke-linecap="round" stroke-linejoin="round" stroke-width="1.0"/>
      <path d="M37.55 10.3 Q37.4 10.7 36.55 10.8 L34.7 11.2 Q33.65 11.55 32.55 12.6 31.35 13.8 32.1 12.25 32.75 10.7 33.4 9.9 34.0 9.05 34.7 8.8 35.4 8.6 36.6 9.25 37.75 9.85 37.55 10.3" fill="#83000b" fill-rule="evenodd" stroke="none"/>
      <path d="M3.6 43.5 Q3.15 42.2 3.25 39.55 L3.35 33.5 Q4.4 36.55 5.65 38.65 L3.6 43.5" fill="#88001a" fill-rule="evenodd" stroke="none"/>
      <path d="M17.2 25.2 L21.1 23.1 27.9 18.7 20.75 25.2 15.95 28.45 Q13.2 30.15 13.0 31.7 L13.6 26.2 Q15.5 26.05 17.2 25.2" fill="#c21031" fill-rule="evenodd" stroke="none"/>
    </g>
    <g id="sprite3">
      <use ffdec:characterId="7" height="13.85" transform="matrix(1.0, 0.0, 0.0, 1.0, 0.0, 0.0)" width="14.35" xlink:href="#shape3"/>
    </g>
    <g id="shape3">
      <path d="M8.95 3.0 Q10.6 2.35 12.1 2.6 L11.35 5.25 Q13.05 5.9 13.85 7.5 L11.55 8.35 Q12.3 10.45 11.5 11.45 L9.05 10.65 Q8.55 11.9 7.1 13.35 6.05 12.55 5.15 11.0 L2.6 11.85 Q2.5 10.3 2.75 8.65 L0.0 7.75 Q0.3 6.6 2.55 5.75 L1.4 2.95 Q3.25 2.35 4.8 3.3 5.2 1.2 7.7 0.0 8.25 1.85 8.95 3.0" fill="#e5deef" fill-rule="evenodd" stroke="none"/>
      <path d="M8.95 3.0 Q10.6 2.35 12.1 2.6 L11.35 5.25 Q13.05 5.9 13.85 7.5 L11.55 8.35 Q12.3 10.45 11.5 11.45 L9.05 10.65 Q8.55 11.9 7.1 13.35 6.05 12.55 5.15 11.0 L2.6 11.85 Q2.5 10.3 2.75 8.65 L0.0 7.75 Q0.3 6.6 2.55 5.75 L1.4 2.95 Q3.25 2.35 4.8 3.3 5.2 1.2 7.7 0.0 8.25 1.85 8.95 3.0 Z" ffdec:has-small-stroke="true" ffdec:original-stroke-width="0.5" fill="none" stroke="#848b98" stroke-linecap="round" stroke-linejoin="round" stroke-width="1.0"/>
      <path d="M4.8 3.55 L5.45 2.35 Q6.15 0.95 7.5 0.55 5.55 3.8 6.5 6.5 8.0 2.95 11.45 2.8 L9.75 5.75 Q11.9 4.7 13.55 7.4 L10.55 7.2 Q12.15 9.2 11.4 11.1 8.6 9.5 7.75 7.05 6.95 9.85 7.15 13.05 6.05 12.4 5.15 10.75 L2.9 11.55 Q2.5 8.8 4.85 7.35 2.05 6.5 0.35 7.65 2.6 4.85 5.75 6.7 4.6 4.1 1.8 3.05 3.6 2.65 4.8 3.55" fill="#ffffff" fill-rule="evenodd" stroke="none"/>
      <path d="M4.8 6.95 L5.65 7.75 Q3.9 8.1 2.3 9.05 1.8 9.3 1.35 9.65 2.35 7.4 4.7 6.9 L4.8 6.95" fill="#ffffff" fill-rule="evenodd" stroke="none"/>
      <path d="M7.1 7.1 L7.6 6.75 8.35 7.45 Q10.7 9.45 9.75 12.25 L9.45 13.0 Q9.5 11.15 7.1 7.1" fill="#ffffff" fill-rule="evenodd" stroke="none"/>
      <path d="M7.1 3.65 Q7.9 2.05 9.65 1.0 L10.3 0.65 Q9.85 2.5 8.9 4.25 L7.7 6.1 6.45 7.0 Q6.25 5.2 7.1 3.65" fill="#ffffff" fill-rule="evenodd" stroke="none"/>
      <path d="M9.55 7.0 L6.25 6.85 8.25 4.95 Q7.35 6.8 9.55 7.0" fill="#dee1ef" fill-rule="evenodd" stroke="none"/>
    </g>
    <g id="sprite4">
      <use ffdec:characterId="9" height="21.75" transform="matrix(1.0, 0.0, 0.0, 1.0, 0.0, 0.0)" width="36.2" xlink:href="#shape4"/>
    </g>
    <g id="shape4">
      <path d="M4.1 10.15 L1.45 8.1 Q3.0 6.6 5.65 6.85 6.0 4.45 5.25 1.1 8.1 2.05 10.35 4.55 12.5 1.35 15.9 0.25 L17.15 0.0 Q17.75 3.0 18.85 3.9 21.05 2.15 24.65 1.35 27.2 0.85 28.6 1.3 L28.2 2.25 Q26.35 4.75 25.85 6.5 28.45 4.8 31.4 5.45 33.5 5.9 34.7 6.85 32.85 8.7 31.6 10.6 L4.1 10.15" fill="#ffffff" fill-rule="evenodd" stroke="none"/>
      <path d="M4.1 10.15 L1.45 8.1 Q3.0 6.6 5.65 6.85 6.0 4.45 5.25 1.1 8.1 2.05 10.35 4.55 12.5 1.35 15.9 0.25 L17.15 0.0 Q17.75 3.0 18.85 3.9 21.05 2.15 24.65 1.35 27.2 0.85 28.6 1.3 L28.2 2.25 Q26.35 4.75 25.85 6.5 28.45 4.8 31.4 5.45 33.5 5.9 34.7 6.85 32.85 8.7 31.6 10.6" ffdec:has-small-stroke="true" ffdec:original-stroke-width="0.5" fill="none" stroke="#948498" stroke-linecap="round" stroke-linejoin="round" stroke-width="0.9350666277013264"/>
      <path d="M31.4 12.75 Q33.7 14.9 33.9 16.1 L32.65 15.55 Q33.6 18.05 33.5 19.55 31.2 15.7 27.65 14.75 28.65 16.35 28.3 17.8 L25.75 16.2 24.1 15.15 24.65 20.7 Q22.15 20.05 20.95 18.7 19.75 17.3 19.4 15.8 L17.95 18.95 Q18.2 16.25 18.05 15.1 L15.15 21.35 Q12.25 17.85 12.8 12.75 10.65 14.1 10.4 17.6 9.0 15.75 9.0 14.35 6.15 15.65 4.2 20.45 2.25 15.35 4.6 13.45 3.25 13.8 1.75 14.95 2.6 11.05 4.45 10.1 6.25 9.05 7.55 9.2 13.65 7.45 23.35 8.65 33.05 9.85 34.9 13.55 33.25 12.85 31.4 12.75" fill="#ffffff" fill-rule="evenodd" stroke="none"/>
      <path d="M7.1 17.55 Q6.0 15.3 6.9 14.35 L9.85 11.8 Q8.7 13.7 8.85 16.25 9.0 18.75 9.85 19.8 7.75 18.9 7.1 17.55" fill="#ffffff" fill-rule="evenodd" stroke="none"/>
      <path d="M28.5 17.95 Q23.95 15.1 24.4 18.45 L23.75 14.65 Q26.05 15.45 28.5 17.95" fill="#a0a3b2" fill-rule="evenodd" stroke="none"/>
      <path d="M12.4 13.3 L12.95 11.85 Q12.25 17.6 15.25 21.5 11.35 18.05 11.55 16.75 11.75 15.4 12.4 13.3" fill="#a0a3b2" fill-rule="evenodd" stroke="none"/>
      <path d="M16.75 1.4 Q17.4 4.25 18.85 4.2 17.6 5.35 17.25 8.45 16.5 5.0 16.75 1.4" fill="#dee1ef" fill-rule="evenodd" stroke="none"/>
      <path d="M19.65 10.25 Q21.9 5.75 26.15 3.8 25.1 5.05 25.05 7.1 24.95 9.0 29.1 10.75 24.4 8.9 19.65 10.25" fill="#cdcfda" fill-rule="evenodd" stroke="none"/>
      <path d="M5.85 7.1 Q6.15 4.6 5.6 1.5 8.6 6.0 8.35 8.45 7.25 7.35 5.85 7.1" fill="#dee1ef" fill-rule="evenodd" stroke="none"/>
      <path d="M1.7 13.9 Q2.9 12.9 6.8 12.4 4.1 13.7 0.0 17.2 0.5 14.9 1.7 13.9" fill="#a0a3b2" fill-rule="evenodd" stroke="none"/>
      <path d="M21.65 9.65 Q20.15 10.85 20.35 11.0 L18.45 10.7 Q19.55 9.6 20.95 8.9 22.7 8.15 24.7 8.5 L23.95 8.65 Q22.6 8.95 21.65 9.65" fill="#ffffff" fill-rule="evenodd" stroke="none"/>
      <path d="M36.2 11.5 Q32.4 10.85 27.35 12.0 30.4 6.45 36.2 11.5" fill="#ffffff" fill-rule="evenodd" stroke="none"/>
      <path d="M17.95 2.8 Q19.6 0.7 23.0 0.05 20.2 1.25 19.9 3.45 L19.3 6.95 16.2 10.55 Q16.25 4.85 17.95 2.8" fill="#ffffff" fill-rule="evenodd" stroke="none"/>
      <path d="M7.05 15.2 L8.05 12.5 Q7.1 17.05 7.75 19.6 L8.3 21.45 Q5.1 19.4 5.3 17.55 5.5 15.6 5.9 15.5 L6.4 15.3 6.7 15.25 7.05 15.2" fill="#ffffff" fill-rule="evenodd" stroke="none"/>
    </g>
    <g id="sprite5">
      <use ffdec:characterId="11" height="11.25" transform="matrix(1.0, 0.0, 0.0, 1.0, 0.0, 0.0)" width="19.45" xlink:href="#shape5"/>
    </g>
    <g id="shape5">
      <path d="M8.5 22.75 L0.5 24.5 Q-0.1 21.0 3.35 13.25 1.05 20.4 6.8 20.65 12.6 20.85 19.85 19.3 L8.5 22.75" fill="#ff9391" fill-rule="evenodd" stroke="none"/>
    </g>
  </defs>
</svg>
