<?xml version="1.0" encoding="UTF-8" standalone="no"?>
<svg xmlns:ffdec="https://www.free-decompiler.com/flash" xmlns:xlink="http://www.w3.org/1999/xlink" ffdec:objectType="frame" height="37.5px" width="51.45px" xmlns="http://www.w3.org/2000/svg">
  <g transform="matrix(1.0, 0.0, 0.0, 1.0, 25.75, 49.2)">
    <use ffdec:characterId="10" height="37.5" transform="matrix(1.0, 0.0, 0.0, 1.0, -29.5, -60.0)" width="51.45" xlink:href="#sprite0"/>
  </g>
  <defs>
    <g id="sprite0">
      <use ffdec:characterId="7" height="29.8" transform="matrix(1.2581, 0.0, 0.0, 1.2581, 3.7, 4.8)" width="40.9" xlink:href="#sprite1"/>
    </g>
    <g id="sprite1">
      <use ffdec:characterId="2" height="25.4" transform="matrix(1.0, 0.0, 0.0, 1.0, 1.8, 4.85)" width="37.4" xlink:href="#sprite2"/>
      <use ffdec:characterId="4" height="17.75" transform="matrix(1.0, 0.0, 0.0, 1.0, 0.1, 16.9)" width="40.9" xlink:href="#sprite3"/>
      <use ffdec:characterId="6" height="10.15" transform="matrix(1.0, 0.0, 0.0, 1.0, 9.85, 16.95)" width="7.4" xlink:href="#sprite4"/>
    </g>
    <g id="sprite2">
      <use ffdec:characterId="1" height="25.4" transform="matrix(1.0, 0.0, 0.0, 1.0, 0.0, 0.0)" width="37.4" xlink:href="#shape0"/>
    </g>
    <g id="shape0">
      <path d="M2.3 7.85 L2.25 6.65 2.35 6.1 Q2.7 4.8 4.2 3.65 L5.95 2.5 Q7.35 1.75 9.0 1.2 L12.8 0.25 17.45 0.05 18.15 0.2 18.7 0.5 Q19.15 0.0 19.85 0.1 L20.8 0.2 21.2 0.25 23.25 0.55 Q27.55 1.1 30.7 2.65 34.35 4.3 35.0 6.8 L35.05 6.95 35.05 7.1 35.05 7.2 Q34.9 8.8 32.55 8.8 L31.25 8.75 32.6 10.55 32.65 10.6 37.3 17.75 36.05 17.2 33.15 16.25 Q27.15 14.65 18.7 14.65 L14.7 14.75 Q8.75 15.0 4.25 16.25 1.5 16.95 0.0 17.85 0.45 15.9 2.0 15.1 2.8 11.7 5.0 10.75 5.55 10.75 5.95 10.05 L6.25 9.25 Q6.55 8.2 5.6 9.4 3.6 9.95 2.3 7.85 M19.1 2.5 L19.1 1.55 18.7 0.5 19.1 1.55 19.1 2.5" fill="#5a5252" fill-rule="evenodd" stroke="none"/>
      <path d="M35.05 7.2 Q34.95 9.2 33.4 10.15 L32.65 10.6 32.6 10.55 31.25 8.75 32.55 8.8 Q34.9 8.8 35.05 7.2 M5.0 10.75 Q2.65 9.75 2.3 7.85 3.6 9.95 5.6 9.4 6.55 8.2 6.25 9.25 L5.95 10.05 Q5.55 10.75 5.0 10.75" fill="#433b3b" fill-rule="evenodd" stroke="none"/>
      <path d="M32.6 25.35 L32.05 25.25 32.7 25.35 32.6 25.35" fill="#533e3e" fill-rule="evenodd" stroke="none"/>
      <path d="M2.3 7.85 L2.25 6.65 2.35 6.1 Q2.7 4.8 4.2 3.65 L5.95 2.5 Q7.35 1.75 9.0 1.2 L12.8 0.25 17.45 0.05 18.15 0.2 18.7 0.5 Q19.15 0.0 19.85 0.1 L20.8 0.2 21.2 0.25 23.25 0.55 Q27.55 1.1 30.7 2.65 34.35 4.3 35.0 6.8 L35.05 6.95 35.05 7.1 35.05 7.2 Q34.95 9.2 33.4 10.15 L32.65 10.6 37.3 17.75 M0.0 17.85 Q0.45 15.9 2.0 15.1 2.8 11.7 5.0 10.75 2.65 9.75 2.3 7.85 M31.25 8.75 L32.6 10.55 32.65 10.6" ffdec:has-small-stroke="true" ffdec:original-stroke-width="0.1" fill="none" stroke="#372626" stroke-linecap="round" stroke-linejoin="round" stroke-width="0.7948767708131186"/>
      <path d="M18.7 0.5 L19.1 1.55 19.1 2.5" ffdec:has-small-stroke="true" ffdec:original-stroke-width="0.1" fill="none" stroke="#3a3434" stroke-linecap="round" stroke-linejoin="round" stroke-width="0.7948767708131186"/>
      <path d="M31.95 14.15 Q31.55 11.1 30.25 10.3 L29.45 9.45 29.45 8.85 29.7 8.4 30.25 8.35 Q30.65 8.55 31.3 8.05 L32.6 6.7 Q33.25 5.75 33.35 5.0 33.5 4.3 33.15 4.1 M28.35 13.35 L28.25 11.55 28.05 10.75 27.55 9.5 26.95 8.05 26.9 7.6 Q26.9 7.35 27.05 7.3 27.55 7.4 28.1 6.55 L28.6 5.3 28.7 5.0 Q28.95 3.6 28.7 2.5 28.45 1.65 27.95 1.55 M23.25 12.7 Q23.4 9.6 22.5 7.95 21.55 6.25 22.0 5.55 L23.05 3.95 23.4 2.2 23.3 0.55 M12.5 13.2 Q12.35 11.3 12.75 9.45 L13.15 8.35 13.85 7.05 Q14.05 6.35 13.7 6.0 11.4 2.25 12.85 0.25 M7.15 14.4 Q7.05 12.7 8.05 10.35 L8.65 9.1 Q9.1 8.5 8.6 8.25 8.2 8.45 7.4 7.7 6.75 7.05 6.25 5.85 5.7 4.7 5.75 3.7 5.7 2.75 6.1 2.45" ffdec:has-small-stroke="true" ffdec:original-stroke-width="0.1" fill="none" stroke="#423c3c" stroke-linecap="round" stroke-linejoin="round" stroke-width="0.7948767708131186"/>
    </g>
    <g id="sprite3">
      <use ffdec:characterId="3" height="17.75" transform="matrix(1.0, 0.0, 0.0, 1.0, 0.0, 0.0)" width="40.9" xlink:href="#shape1"/>
    </g>
    <g id="shape1">
      <path d="M40.15 11.25 Q40.95 12.3 40.85 14.2 L40.8 14.2 Q40.9 12.6 40.15 11.25 M40.1 17.45 L39.45 17.65 Q36.3 17.1 34.45 14.65 31.55 14.5 29.65 13.35 27.0 13.7 24.0 12.65 L29.65 13.35 33.5 14.35 33.8 14.45 34.45 14.65 35.95 15.2 Q38.55 16.25 40.1 17.45 M9.1 13.8 Q6.95 15.55 4.4 15.4 L4.8 15.2 Q6.8 14.35 9.1 13.8 M4.2 15.45 L1.05 17.35 0.95 17.3 Q2.25 16.3 4.2 15.45 M29.3 1.2 L29.5 1.25 29.35 1.25 29.3 1.2 M33.25 2.15 L33.35 2.15 33.3 2.15 33.25 2.15" fill="#3f3232" fill-rule="evenodd" stroke="none"/>
      <path d="M40.55 15.75 L40.7 15.1 40.8 14.45 40.75 14.9 40.75 15.1 40.7 15.1 40.6 15.7 40.55 15.75" fill="#312626" fill-rule="evenodd" stroke="none"/>
      <path d="M35.2 11.55 L35.6 11.7 38.1 12.85 39.0 13.45 Q39.75 14.05 40.8 14.2 L40.8 14.3 40.8 14.45 40.7 15.1 40.55 15.75 Q40.0 15.85 39.0 15.05 L38.05 14.45 35.6 13.25 34.95 12.95 34.95 12.85 35.05 12.3 35.2 11.55 35.05 12.3 34.95 12.85 34.95 12.95 34.8 12.9 32.0 12.2 30.85 11.85 30.3 11.75 30.4 10.25 30.3 11.75 24.6 10.95 24.7 9.45 24.6 10.95 22.85 10.85 20.4 10.85 16.4 11.0 14.15 11.2 10.05 11.85 9.05 12.05 8.5 12.2 Q8.3 11.45 8.35 10.7 8.3 11.45 8.5 12.2 L6.0 12.9 3.9 13.8 Q2.6 14.4 1.75 15.05 L0.8 15.5 0.8 15.4 Q0.45 14.7 0.25 13.8 0.45 14.3 1.75 13.45 L3.6 12.35 6.0 11.4 Q7.1 11.0 8.35 10.7 L9.1 10.55 10.0 10.35 14.1 9.6 16.4 9.4 Q18.3 9.25 20.4 9.35 L22.85 9.35 24.7 9.45 30.4 10.25 30.85 10.35 32.05 10.55 34.8 11.4 35.2 11.55 M14.15 11.2 Q14.0 10.4 14.1 9.6 14.0 10.4 14.15 11.2 M3.9 13.8 L3.8 13.45 3.7 12.9 3.6 12.35 3.7 12.9 3.8 13.45 3.9 13.8" fill="#5e5656" fill-rule="evenodd" stroke="none"/>
      <path d="M40.6 15.7 L40.55 15.85 40.55 15.75 40.6 15.7" fill="#483636" fill-rule="evenodd" stroke="none"/>
      <path d="M34.95 12.95 L35.6 13.25 38.05 14.45 39.0 15.05 Q40.0 15.85 40.55 15.75 L40.55 15.85 40.4 16.25 40.4 16.3 Q40.5 17.15 40.1 17.45 38.55 16.25 35.95 15.2 L34.45 14.65 34.95 12.95 34.45 14.65 33.8 14.45 33.5 14.35 29.65 13.35 30.3 11.75 29.65 13.35 24.0 12.65 Q18.95 13.7 14.75 12.85 11.95 13.95 9.1 13.8 8.65 13.0 8.5 12.2 8.65 13.0 9.1 13.8 6.8 14.35 4.8 15.2 L4.4 15.4 4.2 15.45 Q2.25 16.3 0.95 17.3 0.25 17.0 0.5 16.15 L0.55 16.1 0.6 15.95 0.65 15.9 0.6 15.9 0.65 15.75 0.7 15.7 0.75 15.65 0.8 15.5 1.75 15.05 Q2.6 14.4 3.9 13.8 L6.0 12.9 8.5 12.2 9.05 12.05 10.05 11.85 14.15 11.2 14.75 12.85 14.15 11.2 16.4 11.0 20.4 10.85 22.85 10.85 24.6 10.95 30.3 11.75 30.85 11.85 32.0 12.2 34.8 12.9 34.95 12.95 M24.0 12.65 L24.6 10.95 24.0 12.65 M3.9 13.8 L4.4 15.4 3.9 13.8" fill="#473f3f" fill-rule="evenodd" stroke="none"/>
      <path d="M40.4 16.25 L40.5 16.05 40.45 16.25 40.4 16.25" fill="#533e3e" fill-rule="evenodd" stroke="none"/>
      <path d="M40.15 11.25 Q40.9 12.6 40.8 14.2 39.75 14.05 39.0 13.45 L38.1 12.85 35.6 11.7 35.2 11.55 Q35.35 9.9 34.85 8.15 35.95 3.75 33.5 2.35 L33.3 2.15 33.5 2.35 Q35.95 3.75 34.85 8.15 35.35 9.9 35.2 11.55 L34.8 11.4 32.05 10.55 30.85 10.35 30.4 10.25 24.7 9.45 24.35 7.95 Q26.05 2.0 23.6 0.6 26.05 2.0 24.35 7.95 L24.7 9.45 22.85 9.35 20.4 9.35 Q18.3 9.25 16.4 9.4 L14.1 9.6 14.4 8.15 Q12.7 2.2 15.15 0.8 L15.25 0.75 Q19.4 -0.7 23.6 0.6 26.95 -0.05 29.3 1.2 L29.35 1.25 29.5 1.25 Q31.45 1.1 33.25 2.15 L33.3 2.15 33.35 2.15 Q36.3 2.55 39.0 4.6 L39.25 4.8 39.3 4.85 39.9 5.5 Q40.95 6.95 40.7 9.05 L40.15 11.25 M0.25 13.8 L0.15 13.3 Q-0.25 11.6 0.35 9.75 -0.15 7.1 1.0 5.25 2.1 3.35 5.35 2.85 7.1 1.55 9.6 1.55 12.25 0.2 15.25 0.75 L15.15 0.8 Q12.7 2.2 14.4 8.15 L14.1 9.6 10.0 10.35 9.1 10.55 8.35 10.7 Q7.1 11.0 6.0 11.4 L3.6 12.35 Q3.4 10.6 3.9 8.75 2.8 4.35 5.25 2.95 L5.35 2.85 5.25 2.95 Q2.8 4.35 3.9 8.75 3.4 10.6 3.6 12.35 L1.75 13.45 Q0.45 14.3 0.25 13.8 M29.35 1.25 Q31.75 2.65 30.05 8.55 L30.4 10.25 30.05 8.55 Q31.75 2.65 29.35 1.25 M9.6 1.55 L9.45 1.7 Q7.0 3.1 8.7 9.05 8.4 9.9 8.35 10.7 8.4 9.9 8.7 9.05 7.0 3.1 9.45 1.7 L9.6 1.55" fill="#5a5252" fill-rule="evenodd" stroke="none"/>
      <path d="M40.15 11.25 Q40.9 12.6 40.8 14.2 L40.8 14.3 40.8 14.45 40.7 15.1 40.55 15.75 40.55 15.85 40.4 16.25 40.4 16.3 Q40.5 17.15 40.1 17.45 L39.45 17.65 M35.2 11.55 L35.05 12.3 34.95 12.85 34.95 12.95 34.45 14.65 M1.05 17.35 L0.95 17.3 Q0.25 17.0 0.5 16.15 L0.6 15.9 0.65 15.75 0.8 15.4 Q0.45 14.7 0.25 13.8 L0.15 13.3 Q-0.25 11.6 0.35 9.75 -0.15 7.1 1.0 5.25 2.1 3.35 5.35 2.85 7.1 1.55 9.6 1.55 12.25 0.2 15.25 0.75 19.4 -0.7 23.6 0.6 26.95 -0.05 29.3 1.2 L29.35 1.25 29.5 1.25 Q31.45 1.1 33.25 2.15 M39.3 4.85 L39.9 5.5 Q40.95 6.95 40.7 9.05 L40.15 11.25 M23.6 0.6 Q26.05 2.0 24.35 7.95 L24.7 9.45 24.6 10.95 24.0 12.65 M30.4 10.25 L30.05 8.55 Q31.75 2.65 29.35 1.25 M33.3 2.15 L33.5 2.35 Q35.95 3.75 34.85 8.15 35.35 9.9 35.2 11.55 M30.4 10.25 L30.3 11.75 29.65 13.35 M5.35 2.85 L5.25 2.95 Q2.8 4.35 3.9 8.75 3.4 10.6 3.6 12.35 L3.7 12.9 3.8 13.45 3.9 13.8 4.4 15.4 M8.35 10.7 Q8.4 9.9 8.7 9.05 7.0 3.1 9.45 1.7 L9.6 1.55 M15.25 0.75 L15.15 0.8 Q12.7 2.2 14.4 8.15 L14.1 9.6 Q14.0 10.4 14.15 11.2 L14.75 12.85 M8.35 10.7 Q8.3 11.45 8.5 12.2 8.65 13.0 9.1 13.8" ffdec:has-small-stroke="true" ffdec:original-stroke-width="0.1" fill="none" stroke="#372626" stroke-linecap="round" stroke-linejoin="round" stroke-width="0.7948767708131186"/>
      <path d="M39.45 17.65 Q36.3 17.1 34.45 14.65 31.55 14.5 29.65 13.35 27.0 13.7 24.0 12.65 18.95 13.7 14.75 12.85 11.95 13.95 9.1 13.8 6.95 15.55 4.4 15.4 L4.2 15.45 1.05 17.35 M33.35 2.15 Q36.3 2.55 39.0 4.6 L39.25 4.8 39.3 4.85 M33.25 2.15 L33.3 2.15 33.35 2.15" ffdec:has-small-stroke="true" ffdec:original-stroke-width="0.1" fill="none" stroke="#000000" stroke-linecap="round" stroke-linejoin="round" stroke-width="0.7948767708131186"/>
    </g>
    <g id="sprite4">
      <use ffdec:characterId="5" height="10.15" transform="matrix(1.0, 0.0, 0.0, 1.0, 0.0, 0.0)" width="7.4" xlink:href="#shape2"/>
    </g>
    <g id="shape2">
      <path d="M4.45 0.0 L5.9 0.1 6.6 0.25 Q6.9 0.45 6.9 1.0 6.25 4.9 6.9 8.65 6.9 9.7 5.9 9.75 L1.1 10.15 Q0.5 10.0 0.5 9.2 -0.45 4.25 0.5 1.55 L0.55 1.2 Q0.7 0.55 1.45 0.5 2.9 0.0 4.45 0.0" fill="#990000" fill-rule="evenodd" stroke="none"/>
      <path d="M1.1 10.15 L5.9 9.75 Q6.9 9.7 6.9 8.65 6.25 4.9 6.9 1.0 6.9 0.45 6.6 0.25 L5.9 0.1 4.45 0.0 6.4 0.1 7.1 0.25 Q7.4 0.45 7.4 1.0 6.75 4.9 7.4 8.65 7.4 9.7 6.4 9.75 L1.45 10.15 1.1 10.15" fill="#760a0a" fill-rule="evenodd" stroke="none"/>
      <path d="M2.65 1.2 L2.65 1.7 3.0 1.65 3.0 1.15 2.65 1.2 M3.25 1.3 L3.1 1.65 3.1 1.7 2.7 1.85 2.3 1.75 2.3 1.7 2.15 1.35 2.3 1.0 2.7 0.8 3.1 0.95 3.25 1.3" fill="#ffffff" fill-rule="evenodd" stroke="none"/>
      <path d="M2.75 6.8 L3.35 6.75 3.35 6.7 3.25 6.5 3.05 6.45 2.8 6.55 2.75 6.75 2.75 6.8 M3.65 6.75 L3.7 7.05 2.5 7.15 2.45 6.85 2.55 6.35 Q2.7 6.2 3.0 6.2 L3.45 6.3 3.65 6.75 M3.8 7.05 L3.75 6.75 3.75 6.5 4.35 6.15 4.35 6.05 3.7 6.45 3.4 6.15 3.0 6.1 2.7 6.15 2.45 6.35 2.35 6.6 2.35 6.85 2.4 7.2 4.45 7.05 4.45 7.0 3.8 7.05 M4.75 7.35 L2.1 7.55 2.0 6.8 2.0 6.4 2.25 6.1 2.5 5.85 2.95 5.75 3.3 5.75 3.55 5.85 3.75 5.95 Q4.15 5.75 4.6 5.5 L4.65 6.3 4.0 6.7 4.7 6.65 4.75 7.35" fill="#ffffff" fill-rule="evenodd" stroke="none"/>
      <path d="M4.6 8.45 L4.6 8.35 2.65 8.5 2.6 8.05 2.5 8.05 2.65 9.05 2.75 9.05 2.65 8.6 4.6 8.45 M4.95 8.7 L2.95 8.85 3.0 9.25 2.3 9.3 2.1 7.8 2.8 7.75 2.85 8.15 4.85 8.0 4.95 8.7" fill="#ffffff" fill-rule="evenodd" stroke="none"/>
      <path d="M4.45 3.0 L4.55 2.3 4.45 2.3 4.4 2.95 3.45 3.0 3.55 2.35 3.45 2.35 3.35 3.0 2.5 3.1 2.6 2.45 2.5 2.45 2.4 3.15 4.45 3.0 M4.75 3.3 L2.0 3.5 2.2 2.2 2.9 2.15 2.8 2.75 3.1 2.75 3.2 2.15 3.9 2.1 3.8 2.7 4.1 2.65 4.2 2.05 4.9 2.0 4.75 3.3" fill="#ffffff" fill-rule="evenodd" stroke="none"/>
      <path d="M3.65 4.1 Q4.25 4.05 4.25 4.55 4.25 5.05 3.65 5.1 L2.3 5.2 2.3 5.25 3.65 5.15 4.15 4.95 4.35 4.5 4.15 4.1 3.65 4.05 2.3 4.15 2.3 4.2 3.65 4.1 M4.65 4.15 L4.7 4.5 4.65 4.85 4.45 5.15 4.15 5.4 3.65 5.5 1.95 5.6 1.95 4.9 3.65 4.8 3.85 4.7 3.9 4.55 3.85 4.4 3.65 4.4 1.95 4.5 1.95 3.8 3.65 3.7 4.15 3.7 4.45 3.85 4.65 4.15" fill="#ffffff" fill-rule="evenodd" stroke="none"/>
    </g>
  </defs>
</svg>
