<?xml version="1.0" encoding="UTF-8" standalone="no"?>
<svg xmlns:ffdec="https://www.free-decompiler.com/flash" xmlns:xlink="http://www.w3.org/1999/xlink" ffdec:objectType="frame" height="36.35px" width="44.0px" xmlns="http://www.w3.org/2000/svg">
  <g transform="matrix(1.0, 0.0, 0.0, 1.0, 21.95, 53.2)">
    <use ffdec:characterId="9" height="36.35" transform="matrix(1.0, 0.0, 0.0, 1.0, 0.1, -34.2)" width="44.0" xlink:href="#sprite0"/>
  </g>
  <defs>
    <g id="sprite0">
      <use ffdec:characterId="8" height="36.35" transform="matrix(1.0, 0.0, 0.0, 1.0, 0.0, 0.0)" width="44.0" xlink:href="#shape0"/>
    </g>
    <g id="shape0">
      <path d="M-6.85 3.55 L-6.9 3.3 Q-6.95 2.9 -6.55 2.9 -6.15 2.9 -6.1 3.3 -6.1 3.7 -6.5 3.7 L-6.65 3.7 -6.85 3.85 -7.0 3.8 -7.05 3.75 -6.85 3.55" fill="#a9d3ef" fill-rule="evenodd" stroke="none"/>
      <path d="M1.35 11.05 L1.85 11.1 2.5 11.1 5.85 11.9 Q8.55 12.8 10.65 14.4 11.8 15.25 13.1 15.8 L10.25 14.8 Q7.85 13.5 5.25 13.0 L0.3 12.45 -5.4 12.8 -8.85 13.2 -5.7 11.65 -5.55 11.6 -0.45 11.05 -1.0 11.4 Q1.55 12.9 4.6 12.15 L5.8 12.0 1.35 11.05" fill="#e77c05" fill-rule="evenodd" stroke="none"/>
      <path d="M1.35 11.05 L5.8 12.0 4.6 12.15 Q1.55 12.9 -1.0 11.4 L-0.45 11.05 0.2 11.0 0.6 10.95 1.35 11.05" fill="#ff9217" fill-rule="evenodd" stroke="none"/>
      <path d="M7.1 11.85 L7.75 11.45 Q9.5 12.05 11.1 13.2 13.55 14.9 15.1 17.35 L15.05 17.3 14.9 17.1 12.1 14.75 Q9.7 13.1 7.1 11.85" fill="#241c00" fill-rule="evenodd" stroke="none"/>
      <path d="M-0.45 11.05 L-5.55 11.6 -3.85 11.25 0.2 11.0 -0.45 11.05 M-5.7 11.65 L-8.85 13.2 -9.85 13.8 -12.9 16.55 -12.95 16.6 -12.9 16.65 -12.85 16.65 -11.75 16.35 Q-9.55 15.45 -7.1 15.05 L-11.7 16.35 -12.05 16.5 -12.35 16.65 -13.9 17.3 Q-13.2 16.15 -11.6 14.7 L-11.6 14.65 -10.75 14.0 Q-8.45 12.25 -5.7 11.65 M10.25 14.8 L13.1 15.8 Q11.8 15.25 10.65 14.4 8.55 12.8 5.85 11.9 L2.5 11.1 Q4.85 11.1 7.1 11.85 9.7 13.1 12.1 14.75 L14.9 17.1 Q12.65 16.2 10.4 15.65 L4.75 14.6 10.25 14.8 M-1.5 14.4 L-2.2 14.45 -4.75 14.65 -2.9 14.35 -1.5 14.4" fill="#e35700" fill-rule="evenodd" stroke="none"/>
      <path d="M15.1 17.35 L13.1 16.9 Q10.45 16.1 7.5 15.8 L2.25 15.4 -2.85 15.45 -7.55 15.85 -5.35 15.35 1.75 14.9 8.35 15.55 9.45 15.75 Q12.25 16.1 15.0 17.3 L15.05 17.3 15.1 17.35 M-10.1 16.3 L-13.9 17.3 -12.35 16.65 -11.9 16.6 -10.1 16.3" fill="#000000" fill-rule="evenodd" stroke="none"/>
      <path d="M15.0 17.3 Q12.25 16.1 9.45 15.75 L8.35 15.55 1.75 14.9 -4.25 14.65 -2.2 14.45 -1.5 14.4 4.75 14.6 10.4 15.65 Q12.65 16.2 14.9 17.1 L15.0 17.3 M-12.9 16.55 L-9.85 13.8 -2.9 14.35 -4.75 14.65 -7.1 15.05 Q-9.55 15.45 -11.75 16.35 L-12.85 16.65 -12.9 16.55 M-12.05 16.5 L-11.7 16.35 -11.9 16.5 -12.05 16.5" fill="#ffffff" fill-rule="evenodd" stroke="none"/>
      <path d="M-8.85 13.2 L-5.4 12.8 0.3 12.45 5.25 13.0 Q7.85 13.5 10.25 14.8 L4.75 14.6 -1.5 14.4 -2.9 14.35 -9.85 13.8 -8.85 13.2 M-2.2 14.45 L-4.25 14.65 -4.75 14.65 -2.2 14.45 M-11.8 16.45 L-11.9 16.5 -11.7 16.35 -11.8 16.45" fill="#ffe034" fill-rule="evenodd" stroke="none"/>
      <path d="M-12.85 16.65 L-12.9 16.65 -12.95 16.6 -12.9 16.55 -12.85 16.65 M-12.35 16.65 L-12.05 16.5 -11.9 16.5 -11.8 16.45 -11.9 16.6 -12.35 16.65" fill="#f3cd2a" fill-rule="evenodd" stroke="none"/>
      <path d="M-5.35 15.35 L-10.1 16.3 -11.9 16.6 -11.8 16.45 -11.7 16.35 -7.1 15.05 -4.75 14.65 -4.25 14.65 1.75 14.9 -5.35 15.35" fill="#ffb200" fill-rule="evenodd" stroke="none"/>
      <path d="M0.1 -1.15 L10.05 -0.85 8.95 2.05 8.95 2.1 Q5.9 8.0 2.05 14.15 L1.95 14.15 1.9 14.15 7.35 4.35 0.1 -1.15" fill="#1f6fa3" fill-rule="evenodd" stroke="none"/>
      <path d="M1.95 14.15 L2.05 14.15 Q5.9 8.0 8.95 2.1 L8.95 2.05 10.05 -0.85 0.1 -1.15 -0.55 -1.15 -1.5 -0.55 -0.65 -1.15 -10.8 -2.05 -10.8 -2.0 -10.75 -1.85 -10.5 -1.15 -9.2 2.15 -8.4 4.15 -7.05 7.55 -5.25 12.3 -4.5 13.2 -3.25 14.05 -0.8 14.15 1.95 14.2 1.95 14.15 M15.9 -3.5 L10.05 -0.1 5.45 12.5 5.15 13.3 6.55 11.4 7.15 10.75 7.3 10.6 13.05 3.2 19.1 -4.0 13.1 4.2 Q10.2 8.25 7.65 12.25 L7.6 12.25 4.85 14.1 4.75 14.15 4.75 14.3 -3.3 14.3 -5.3 13.3 -5.3 13.35 -7.6 12.35 -12.4 5.9 -22.05 -7.8 -17.8 -2.0 -17.9 -2.1 -12.4 4.55 -6.35 11.95 -6.0 12.4 -7.3 8.5 -9.0 3.15 -9.35 2.2 -9.1 3.1 -9.4 2.1 -9.6 1.55 -10.5 -1.0 -16.05 -4.25 -16.1 -4.35 -17.55 -5.2 -20.85 -7.2 -11.75 -2.55 10.4 -1.6 10.35 -1.5 10.5 -1.55 10.55 -1.6 15.7 -4.05 16.65 -4.2 16.85 -4.6 21.25 -6.85 15.9 -3.5" fill="#004778" fill-rule="evenodd" stroke="none"/>
      <path d="M-0.8 14.15 L-3.25 14.05 -3.7 13.4 -4.25 12.1 -7.2 4.85 -0.25 -1.05 -0.8 14.15 M5.45 12.5 L10.05 -0.1 15.9 -3.5 5.45 12.5" fill="#56a8de" fill-rule="evenodd" stroke="none"/>
      <path d="M21.25 -6.85 L16.85 -4.6 16.65 -4.2 15.7 -4.05 21.65 -7.35 21.7 -7.2 Q21.75 -7.05 21.95 -6.85 L21.9 -6.85 20.75 -5.1 15.15 2.55 7.65 12.25 Q10.2 8.25 13.1 4.2 L19.1 -4.0 21.45 -6.9 21.25 -6.85" fill="#0061a2" fill-rule="evenodd" stroke="none"/>
      <path d="M15.9 -3.5 L21.25 -6.85 21.45 -6.9 19.1 -4.0 13.05 3.2 7.3 10.6 7.15 10.75 6.55 11.4 5.15 13.3 5.45 12.5 15.9 -3.5" fill="#edf7ff" fill-rule="evenodd" stroke="none"/>
      <path d="M7.35 4.35 L1.9 14.15 1.95 14.15 1.95 14.2 -0.8 14.15 -0.25 -1.05 7.35 4.35" fill="#2589cc" fill-rule="evenodd" stroke="none"/>
      <path d="M0.1 -1.15 L7.35 4.35 -0.25 -1.05 -7.2 4.85 -4.25 12.1 -7.05 7.55 -8.4 4.15 -1.5 -0.55 -0.55 -1.15 0.1 -1.15" fill="#6ebbef" fill-rule="evenodd" stroke="none"/>
      <path d="M-8.4 4.15 L-9.2 2.15 -10.5 -1.15 -10.75 -1.85 -10.8 -2.0 -10.8 -2.05 -0.65 -1.15 -1.5 -0.55 -8.4 4.15 M-20.85 -7.2 L-17.55 -5.2 -19.05 -6.05 -16.05 -4.25 -15.9 -3.9 -6.35 11.95 -12.4 4.55 -17.9 -2.1 -17.8 -2.0 -22.05 -7.8 -22.0 -7.8 -21.95 -7.85 -20.85 -7.2" fill="#a9d3ef" fill-rule="evenodd" stroke="none"/>
      <path d="M-16.05 -4.25 L-10.5 -1.0 -9.6 1.55 -9.4 2.1 -9.1 3.1 -9.35 2.2 -9.0 3.15 -7.3 8.5 -6.0 12.4 -6.35 11.95 -15.9 -3.9 -16.05 -4.25" fill="#3ba3e9" fill-rule="evenodd" stroke="none"/>
      <path d="M-3.25 14.05 L-4.5 13.2 -5.25 12.3 -7.05 7.55 -4.25 12.1 -3.7 13.4 -3.25 14.05" fill="#2d84bc" fill-rule="evenodd" stroke="none"/>
      <path d="M9.05 -18.3 L18.05 -13.65 18.1 -13.6 17.8 -13.35 18.15 -13.55 21.65 -6.8 17.15 -4.7 16.85 -11.85 16.95 -11.95 16.85 -12.1 16.8 -12.1 16.75 -12.2 14.3 -11.0 10.0 -8.05 9.4 -7.7 9.3 -7.65 8.55 -7.2 9.0 -5.0 9.75 -1.25 9.85 -1.25 9.65 -1.15 5.45 -1.3 9.45 -1.25 9.45 -1.3 9.5 -1.3 8.15 -6.35 7.9 -7.2 8.0 -7.2 11.15 -9.15 13.25 -10.45 15.45 -11.9 17.55 -13.35 16.55 -13.85 9.05 -18.3 M-2.4 -1.55 L-0.95 -1.45 -10.3 -1.7 -10.25 -1.85 -2.4 -1.55 M17.25 -11.55 L17.15 -11.6 17.2 -11.55 17.25 -11.55" fill="#005d9d" fill-rule="evenodd" stroke="none"/>
      <path d="M7.8 -19.0 L10.05 -19.0 18.25 -13.85 18.3 -13.75 18.1 -13.6 18.05 -13.65 9.05 -18.3 7.8 -19.0 M18.15 -13.55 L18.35 -13.65 Q19.5 -10.9 21.8 -6.9 L21.75 -6.85 21.65 -6.8 18.15 -13.55 M7.9 -7.2 L1.9 -7.35 4.05 -7.55 4.95 -7.65 6.65 -8.0 6.85 -8.05 6.95 -8.05 7.05 -8.05 7.65 -8.2 9.55 -8.65 11.2 -9.25 11.55 -9.45 11.15 -9.15 8.0 -7.2 7.9 -7.2 M-5.35 -7.55 L-8.5 -7.6 -13.25 -10.5 -13.0 -10.35 Q-9.35 -9.85 -4.7 -13.0 L-2.0 -15.5 Q-0.45 -17.15 0.1 -18.25 L0.05 -18.25 0.1 -18.3 -5.95 -18.55 -9.6 -18.65 -17.65 -13.3 -17.6 -13.25 -17.3 -13.0 -14.6 -11.1 -13.85 -10.6 -10.05 -8.0 -9.5 -7.65 -9.2 -7.45 -8.85 -7.25 Q-8.8 -7.2 -8.55 -7.1 L-10.4 -1.7 -16.9 -5.1 -16.9 -5.15 -10.15 -7.95 -17.65 -13.1 -21.4 -7.5 -22.05 -7.85 -18.9 -12.75 -18.4 -13.6 -18.45 -13.6 -18.35 -13.8 -18.05 -14.2 Q-15.15 -15.65 -10.0 -19.0 L6.2 -19.0 Q5.1 -16.85 -3.3 -9.3 L-4.15 -8.6 -4.3 -8.45 -4.35 -8.4 -5.0 -7.85 -5.2 -7.65 -5.35 -7.55 M-6.85 -7.1 L-6.8 -7.1 -0.55 -1.55 -1.1 -1.55 -6.85 -7.1 M6.0 -7.2 L6.7 -7.2 0.1 -1.55 -0.45 -1.55 -0.05 -1.85 6.0 -7.2 M16.55 -13.85 L17.55 -13.35 15.45 -11.9 13.4 -10.65 13.3 -10.7 14.45 -11.8 16.55 -13.85 M17.25 -11.55 L17.2 -11.55 17.15 -11.6 17.25 -11.55 M-8.75 -7.5 L-9.0 -7.5 -8.75 -7.5" fill="#ffffff" fill-rule="evenodd" stroke="none"/>
      <path d="M-13.0 -10.35 L-5.95 -18.55 0.1 -18.3 0.05 -18.25 0.1 -18.25 Q-0.45 -17.15 -2.0 -15.5 L-4.7 -13.0 Q-9.35 -9.85 -13.0 -10.35 M-16.9 -5.1 L-21.4 -7.5 -17.65 -13.1 -16.9 -5.15 -16.9 -5.1" fill="#c8e9ff" fill-rule="evenodd" stroke="none"/>
      <path d="M7.8 -19.0 L9.05 -18.3 16.55 -13.85 14.45 -11.8 13.3 -10.7 13.4 -10.65 15.45 -11.9 13.25 -10.45 11.55 -9.45 11.2 -9.25 9.55 -8.65 7.65 -8.2 7.05 -8.05 6.95 -8.05 6.85 -8.05 6.65 -8.0 4.95 -7.65 4.05 -7.55 1.9 -7.35 1.8 -7.35 -5.35 -7.55 -5.2 -7.65 -5.0 -7.85 -4.35 -8.4 -4.3 -8.45 -4.15 -8.6 -3.3 -9.3 Q5.1 -16.85 6.2 -19.0 L7.8 -19.0 M6.35 -8.5 L6.45 -8.55 6.65 -8.6 Q8.9 -9.25 10.95 -10.7 13.35 -12.4 12.9 -14.9 L8.25 -18.05 -0.7 -7.9 -0.8 -7.85 0.9 -7.75 4.1 -8.0 5.05 -8.2 5.4 -8.25 5.9 -8.4 6.35 -8.5" fill="#e2f1fa" fill-rule="evenodd" stroke="none"/>
      <path d="M17.15 -4.7 L16.9 -4.55 16.8 -12.1 16.85 -12.1 16.85 -11.85 17.15 -4.7 M16.65 -4.45 L16.45 -4.35 9.3 -7.65 9.4 -7.7 16.65 -4.45 M10.0 -1.35 L10.0 -1.3 9.85 -1.25 9.75 -1.25 10.0 -1.35" fill="#64aedf" fill-rule="evenodd" stroke="none"/>
      <path d="M6.35 -8.5 L5.9 -8.4 5.4 -8.25 5.05 -8.2 4.1 -8.0 0.9 -7.75 -0.8 -7.85 -0.7 -7.9 8.25 -18.05 12.9 -14.9 Q13.35 -12.4 10.95 -10.7 8.9 -9.25 6.65 -8.6 L6.45 -8.55 6.35 -8.5" fill="#a9d3ef" fill-rule="evenodd" stroke="none"/>
      <path d="M16.45 -4.35 L10.0 -1.35 9.75 -1.25 9.0 -5.0 8.55 -7.2 9.3 -7.65 16.45 -4.35" fill="#4a9ad0" fill-rule="evenodd" stroke="none"/>
      <path d="M16.9 -4.55 L16.65 -4.45 9.4 -7.7 10.0 -8.05 14.3 -11.0 16.75 -12.2 16.8 -12.1 16.9 -4.55 M13.25 -10.45 L11.15 -9.15 11.55 -9.45 13.25 -10.45" fill="#2d84bc" fill-rule="evenodd" stroke="none"/>
      <path d="M16.85 -12.1 L16.95 -11.95 16.85 -11.85 16.85 -12.1" fill="#1d618d" fill-rule="evenodd" stroke="none"/>
      <path d="M-16.9 -5.15 L-17.65 -13.1 -10.15 -7.95 -16.9 -5.15" fill="#a7dafa" fill-rule="evenodd" stroke="none"/>
      <path d="M-8.55 -7.1 L-8.45 -7.05 -8.45 -7.1 -6.85 -7.1 -1.1 -1.55 -2.4 -1.55 -10.25 -1.85 -10.3 -1.7 -10.3 -1.65 -10.4 -1.7 -8.55 -7.1" fill="#cae9fd" fill-rule="evenodd" stroke="none"/>
      <path d="M-6.8 -7.1 L6.0 -7.2 -0.05 -1.85 -0.45 -1.55 -0.55 -1.55 -6.8 -7.1" fill="#90d3ff" fill-rule="evenodd" stroke="none"/>
      <path d="M7.35 -7.3 L7.9 -7.2 8.15 -6.35 9.5 -1.3 9.45 -1.3 9.45 -1.25 0.85 -1.4 0.1 -1.55 6.7 -7.2 6.5 -7.2 7.35 -7.3 M-17.3 -13.5 L-9.6 -18.65 -5.95 -18.55 -12.95 -10.35 -17.3 -13.5" fill="#4a9ad0" fill-rule="evenodd" stroke="none"/>
      <path d="M6.5 -7.2 Q-1.0 -6.9 -8.45 -7.1 L-8.45 -7.05 -8.55 -7.1 Q-8.8 -7.2 -8.85 -7.25 L-9.2 -7.45 -9.5 -7.65 -10.05 -8.0 -13.85 -10.6 -14.6 -11.1 -17.3 -13.0 -17.6 -13.25 -17.65 -13.3 -17.3 -13.5 -12.95 -10.35 -13.0 -10.35 -13.25 -10.5 -8.5 -7.6 Q-3.0 -7.7 1.8 -7.35 L1.9 -7.35 Q5.65 -7.55 7.35 -7.3 L6.5 -7.2 M-8.75 -7.5 L-9.0 -7.5 -8.75 -7.5" fill="#fdfdfd" fill-rule="evenodd" stroke="none"/>
    </g>
  </defs>
</svg>
