<?xml version="1.0" encoding="UTF-8" standalone="no"?>
<svg xmlns:ffdec="https://www.free-decompiler.com/flash" xmlns:xlink="http://www.w3.org/1999/xlink" ffdec:objectType="frame" height="44.4px" width="53.9px" xmlns="http://www.w3.org/2000/svg">
  <g transform="matrix(1.0, 0.0, 0.0, 1.0, 26.7, 34.15)">
    <use ffdec:characterId="2" height="26.95" transform="matrix(0.8557, 0.0, 0.0, 1.0, -19.95, -29.55)" width="46.8" xlink:href="#sprite0"/>
    <use ffdec:characterId="4" height="23.25" transform="matrix(-0.7854, 0.0, 0.0, 0.7854, 20.4, -8.15)" width="13.55" xlink:href="#sprite1"/>
    <use ffdec:characterId="4" height="23.25" transform="matrix(0.785, 0.0, 0.0, 0.785, -20.4, -8.0)" width="13.55" xlink:href="#sprite1"/>
    <use ffdec:characterId="6" height="20.25" transform="matrix(1.0161, 0.219, -0.0403, 1.3361, -25.9, -33.55)" width="13.6" xlink:href="#sprite2"/>
    <use ffdec:characterId="6" height="20.25" transform="matrix(-1.0144, 0.227, 0.0507, 1.3357, 26.2, -34.15)" width="13.6" xlink:href="#sprite2"/>
    <use ffdec:characterId="8" height="31.25" transform="matrix(1.0, 0.0, 0.0, 0.8669, -16.35, -16.95)" width="32.35" xlink:href="#sprite3"/>
  </g>
  <defs>
    <g id="sprite0">
      <use ffdec:characterId="1" height="26.95" transform="matrix(1.0, 0.0, 0.0, 1.0, 0.0, 0.0)" width="46.8" xlink:href="#shape0"/>
    </g>
    <g id="shape0">
      <path d="M37.2 13.65 L38.1 14.9 Q39.7 16.8 42.0 17.8 L43.0 18.25 42.0 19.45 41.75 19.85 Q39.95 20.1 37.9 18.65 36.05 17.35 36.8 13.8 L37.0 12.95 37.2 13.65 M33.5 10.75 L35.15 10.8 35.2 10.8 Q33.45 12.5 31.85 13.1 L28.8 13.2 Q26.65 12.55 25.5 10.25 L24.7 8.05 25.65 8.6 26.4 9.05 Q27.85 9.95 31.15 10.45 L33.5 10.75 M20.25 9.05 Q21.1 8.3 21.75 7.15 L22.15 6.3 21.8 8.05 21.75 8.15 20.5 11.8 20.35 12.05 19.55 12.7 16.25 13.55 Q15.2 13.65 13.85 12.5 L11.9 10.4 11.95 10.4 12.2 10.5 12.55 10.65 16.85 10.5 Q18.85 10.25 20.25 9.05 M9.6 13.45 L10.0 14.2 10.05 14.3 10.1 14.35 10.15 14.55 Q10.65 15.8 10.25 17.05 L10.05 17.85 Q9.8 18.55 9.05 18.8 L5.2 18.25 Q6.2 17.9 7.15 16.9 8.2 15.8 8.85 14.4 L9.2 13.35 9.25 13.2 9.3 13.05 9.5 13.3 9.6 13.45 M37.5 10.1 L35.0 13.65 33.05 15.7 31.45 17.05 31.15 16.85 34.85 12.05 Q37.5 8.8 37.5 10.1 M22.6 5.25 L22.8 4.45 Q23.1 4.15 23.45 5.15 L23.6 6.95 23.6 10.5 Q23.8 17.25 23.0 17.25 L22.8 17.1 22.85 16.9 22.65 15.65 22.65 5.4 22.6 5.25 M11.85 15.15 L9.25 11.55 Q9.25 10.85 10.45 12.1 L12.65 14.85 14.3 16.75 Q15.3 17.9 15.45 18.8 L15.35 18.85 Q14.9 18.85 13.6 17.45 L11.85 15.15" fill="#dddddd" fill-rule="evenodd" stroke="none"/>
      <path d="M36.8 13.8 Q36.05 17.35 37.9 18.65 39.95 20.1 41.75 19.85 L42.0 19.45 43.0 18.25 42.0 17.8 Q39.7 16.8 38.1 14.9 L37.2 13.65 38.6 12.05 Q39.65 14.05 41.25 15.6 L43.4 17.7 44.6 18.8 44.3 19.4 Q42.8 20.3 41.15 20.8 L35.45 22.1 30.55 23.1 30.3 23.15 30.75 22.1 Q32.25 19.5 33.4 18.05 L36.7 14.3 36.8 13.8 M35.3 9.5 L34.2 9.65 33.85 10.2 33.5 10.75 31.15 10.45 Q27.85 9.95 26.4 9.05 L25.65 8.6 25.85 6.75 24.95 6.0 Q27.2 7.9 30.1 8.95 32.5 9.9 35.3 9.5 M31.85 13.1 L30.5 14.95 29.0 17.2 27.55 17.6 Q26.4 16.95 25.3 14.9 L25.3 14.85 25.3 14.2 25.45 11.25 25.5 10.25 Q26.65 12.55 28.8 13.2 L31.85 13.1 M20.15 5.95 L20.15 6.65 20.25 9.05 Q18.85 10.25 16.85 10.5 L12.55 10.65 12.65 10.65 12.25 9.95 12.0 9.4 Q16.5 9.15 20.15 5.95 M20.35 12.05 L20.45 16.0 Q19.95 17.25 18.8 17.9 L16.7 17.3 17.2 17.45 16.75 16.85 13.85 12.5 Q15.2 13.65 16.25 13.55 L19.55 12.7 20.35 12.05 M8.2 11.4 L8.4 11.65 8.6 11.9 9.6 13.45 9.5 13.3 9.3 13.05 9.25 13.2 9.2 13.35 8.85 14.4 Q8.2 15.8 7.15 16.9 6.2 17.9 5.2 18.25 L9.05 18.8 Q9.8 18.55 10.05 17.85 L10.25 17.05 Q10.65 15.8 10.15 14.55 L10.1 14.35 Q10.8 15.8 12.6 18.2 L13.8 20.1 15.0 22.0 15.8 22.95 13.0 22.3 Q10.3 21.6 7.55 20.5 L2.5 18.35 3.0 17.85 Q6.4 14.7 7.8 12.25 L7.95 12.0 8.05 11.7 8.1 11.7 8.2 11.4" fill="#b5b1b1" fill-rule="evenodd" stroke="none"/>
      <path d="M36.8 13.8 L36.7 14.3 33.4 18.05 Q32.25 19.5 30.75 22.1 L30.3 23.15 30.55 23.1 35.45 22.1 41.15 20.8 Q42.8 20.3 44.3 19.4 L40.7 25.8 5.6 25.8 1.8 19.0 2.5 18.35 7.55 20.5 Q10.3 21.6 13.0 22.3 L15.8 22.95 15.0 22.0 13.8 20.1 12.6 18.2 Q10.8 15.8 10.1 14.35 L10.05 14.3 10.0 14.2 9.6 13.45 8.6 11.9 8.4 11.65 8.2 11.4 8.25 11.3 8.6 10.2 8.7 9.2 9.4 9.3 12.0 9.4 12.25 9.95 12.65 10.65 12.55 10.65 12.2 10.5 11.95 10.4 11.9 10.4 13.85 12.5 16.75 16.85 17.2 17.45 16.7 17.3 18.8 17.9 Q19.95 17.25 20.45 16.0 L20.35 12.05 20.5 11.8 21.75 8.15 21.8 8.05 22.15 6.3 21.75 7.15 Q21.1 8.3 20.25 9.05 L20.15 6.65 20.15 5.95 22.5 3.45 24.95 6.0 25.85 6.75 25.65 8.6 24.7 8.05 25.5 10.25 25.45 11.25 25.3 14.2 25.3 14.85 25.3 14.9 Q26.4 16.95 27.55 17.6 L29.0 17.2 30.5 14.95 31.85 13.1 Q33.45 12.5 35.2 10.8 L35.15 10.8 33.5 10.75 33.85 10.2 34.2 9.65 35.3 9.5 37.25 9.1 37.35 9.05 Q37.85 10.65 38.6 12.05 L37.2 13.65 37.0 12.95 36.8 13.8 M22.6 5.25 L22.65 5.4 22.65 15.65 22.85 16.9 22.8 17.1 23.0 17.25 Q23.8 17.25 23.6 10.5 L23.6 6.95 23.45 5.15 Q23.1 4.15 22.8 4.45 L22.6 5.25 M37.5 10.1 Q37.5 8.8 34.85 12.05 L31.15 16.85 31.45 17.05 33.05 15.7 35.0 13.65 37.5 10.1 M11.85 15.15 L13.6 17.45 Q14.9 18.85 15.35 18.85 L15.45 18.8 Q15.3 17.9 14.3 16.75 L12.65 14.85 10.45 12.1 Q9.25 10.85 9.25 11.55 L11.85 15.15" fill="#858484" fill-rule="evenodd" stroke="none"/>
      <path d="M42.05 17.65 Q38.75 15.5 37.85 11.85 36.85 12.7 34.7 15.9 32.5 19.05 24.7 26.2 29.75 17.55 32.55 14.2 L35.9 10.1 Q30.15 11.6 25.4 7.5 L24.8 6.95 24.85 10.4 25.05 25.0 24.1 25.3 23.95 16.05 23.95 11.05 24.15 6.15 23.15 4.35 22.35 5.85 22.85 13.75 23.3 25.2 22.5 25.55 Q22.6 20.05 22.2 15.8 L21.8 8.65 21.85 7.05 21.9 6.45 20.85 7.5 Q15.7 11.9 9.5 9.8 9.95 10.7 12.15 13.45 14.3 16.2 21.6 23.95 L21.05 24.4 Q16.4 18.45 13.1 14.95 L8.65 10.2 8.5 11.45 Q13.65 16.9 19.4 24.9 L18.2 24.75 Q14.6 19.1 12.45 16.6 L9.55 13.2 8.4 11.8 Q7.55 15.5 4.2 17.65 L3.3 18.2 Q5.8 18.7 10.35 21.2 L15.95 23.85 16.25 24.1 Q17.45 25.2 12.5 22.65 7.55 20.1 2.4 18.75 L2.3 18.7 2.1 18.75 3.4 19.85 Q4.95 20.3 7.7 21.3 10.4 22.3 14.7 25.1 L14.1 25.35 Q6.05 20.8 3.75 20.25 5.7 22.5 5.5 25.75 L5.35 26.95 Q3.95 21.95 0.1 18.6 L0.0 18.5 Q4.8 17.1 6.8 13.05 7.8 11.1 7.5 7.7 L12.3 8.95 Q15.45 9.65 19.45 6.25 22.45 3.7 23.05 0.0 23.45 3.05 27.6 7.05 31.75 11.1 38.4 6.9 38.2 10.6 39.45 13.05 41.45 17.1 46.8 18.05 L46.15 18.6 Q45.15 19.5 43.4 21.65 L43.1 22.15 Q41.65 24.3 40.9 26.95 L40.75 25.75 Q40.65 23.75 41.35 22.15 L40.25 22.25 31.95 25.25 33.15 24.0 Q40.0 21.5 41.75 21.35 42.55 19.9 44.15 18.75 L43.8 18.6 Q39.2 19.9 29.55 25.05 L28.15 25.4 Q34.1 21.5 37.45 20.3 40.75 19.05 43.25 18.35 L42.05 17.65 M43.3 21.8 L42.45 22.85 43.2 21.95 43.3 21.8 M37.55 9.5 L36.3 10.35 Q35.15 11.1 26.6 23.95 L33.55 16.25 37.75 11.15 37.55 9.5" fill="#000000" fill-rule="evenodd" stroke="none"/>
      <path d="M33.9 10.65 L34.1 10.8 34.2 11.0 33.6 11.4 32.2 11.4 Q30.0 11.45 27.65 10.35 25.45 9.35 25.45 8.65 25.45 8.15 26.2 8.65 L27.35 9.45 30.65 10.65 33.9 10.65 M23.6 6.6 Q23.7 7.8 23.2 7.8 22.75 7.8 22.65 7.2 L22.65 6.55 Q22.65 5.55 23.15 5.5 23.6 5.45 23.6 6.6 M12.4 10.55 L13.6 10.65 14.7 10.8 Q17.35 10.8 18.9 9.6 20.8 8.2 21.1 8.1 20.7 9.4 19.55 10.3 17.9 11.55 15.0 11.6 L13.55 11.4 Q12.05 11.2 12.05 10.9 L12.05 10.7 Q12.1 10.55 12.4 10.55 M9.85 11.2 Q10.75 12.0 11.6 13.45 L11.6 13.75 11.45 13.85 Q10.95 13.85 9.9 12.6 L8.9 11.25 9.85 11.2" fill="#ffffff" fill-rule="evenodd" stroke="none"/>
    </g>
    <g id="sprite1">
      <use ffdec:characterId="3" height="23.25" transform="matrix(1.0, 0.0, 0.0, 1.0, 0.0, 0.0)" width="13.55" xlink:href="#shape1"/>
    </g>
    <g id="shape1">
      <path d="M8.1 20.8 Q7.1 20.7 6.2 20.3 L5.2 19.7 3.5 18.05 2.25 15.2 Q1.15 12.7 1.45 10.25 1.75 7.8 2.3 6.65 L2.95 8.15 3.0 8.2 3.4 7.05 3.4 7.35 3.55 7.15 5.05 5.15 5.35 6.3 5.35 6.35 5.75 7.2 Q4.05 8.9 4.0 12.7 3.95 16.5 5.75 18.45 L8.1 20.8" fill="#9b9b9b" fill-rule="evenodd" stroke="none"/>
      <path d="M9.0 9.3 L8.15 10.2 Q6.65 12.05 6.95 14.25 7.4 17.75 8.0 19.75 6.4 17.85 5.7 15.3 4.75 11.45 7.2 8.15 L7.7 7.55 8.75 9.0 9.0 9.3 M3.5 18.05 Q2.4 16.7 1.55 14.8 -0.8 9.75 2.0 4.4 L2.9 2.9 3.05 4.1 3.4 7.05 3.0 8.2 2.95 8.15 2.3 6.65 Q1.75 7.8 1.45 10.25 1.15 12.7 2.25 15.2 L3.5 18.05 M5.05 5.15 L5.75 4.25 6.25 5.15 5.35 6.3 5.05 5.15" fill="#5b5757" fill-rule="evenodd" stroke="none"/>
      <path d="M5.75 4.25 L6.35 3.5 Q7.75 1.9 9.55 1.1 L10.4 0.75 10.9 1.5 11.15 2.0 12.2 3.7 12.55 4.35 13.55 6.4 Q10.6 7.75 9.0 9.3 L8.75 9.0 7.7 7.55 7.2 8.15 Q4.75 11.45 5.7 15.3 6.4 17.85 8.0 19.75 L8.35 20.8 8.1 20.8 5.75 18.45 Q3.95 16.5 4.0 12.7 4.05 8.9 5.75 7.2 L5.35 6.35 5.35 6.3 6.25 5.15 5.75 4.25" fill="#312d2d" fill-rule="evenodd" stroke="none"/>
      <path d="M3.4 6.45 L2.7 4.0 Q1.4 6.8 1.15 9.9 0.6 17.25 8.3 20.8 4.85 15.2 7.5 10.95 8.85 8.7 11.45 7.35 L12.7 8.55 Q6.05 10.7 8.25 17.75 9.7 22.55 11.9 23.25 9.5 23.2 5.65 20.95 1.7 18.7 0.3 12.3 -1.1 5.85 3.6 1.45 L3.7 5.05 Q6.95 1.3 10.6 0.0 L10.6 0.9 Q10.35 0.7 8.15 2.0 5.4 3.6 2.65 9.65 2.75 7.4 3.4 6.45" fill="#000000" fill-rule="evenodd" stroke="none"/>
      <path d="M2.25 8.45 Q1.95 8.15 1.95 7.25 1.95 6.5 2.25 6.5 2.5 6.5 2.5 7.3 L2.25 8.45 M6.55 19.65 L4.95 17.75 Q1.5 12.65 4.7 8.9 2.7 14.35 6.55 19.65" fill="#ffffff" fill-rule="evenodd" stroke="none"/>
    </g>
    <g id="sprite2">
      <use ffdec:characterId="5" height="20.25" transform="matrix(1.0, 0.0, 0.0, 1.0, 0.0, 0.0)" width="13.6" xlink:href="#shape2"/>
    </g>
    <g id="shape2">
      <path d="M1.7 3.5 L1.55 2.95 2.45 4.05 4.8 9.15 Q6.2 12.1 8.1 13.55 9.95 15.0 12.05 15.6 L11.7 16.2 11.1 16.7 Q8.0 15.7 6.1 12.95 4.6 10.7 3.6 8.05 L1.7 3.5" fill="#ffffff" fill-rule="evenodd" stroke="none"/>
      <path d="M1.7 3.5 L1.4 2.75 1.55 2.95 1.7 3.5" fill="#67568c" fill-rule="evenodd" stroke="none"/>
      <path d="M0.65 1.75 L1.1 3.95 Q1.75 6.7 3.1 10.15 4.4 13.6 6.0 15.65 7.6 17.7 8.95 18.75 L7.4 19.15 5.3 16.75 Q4.0 15.15 3.0 12.55 1.95 9.95 1.55 7.25 L0.65 1.75 M12.1 14.95 L12.05 15.6 Q9.95 15.0 8.1 13.55 6.2 12.1 4.8 9.15 L2.45 4.05 8.15 11.35 12.1 14.95" fill="#cdcbd2" fill-rule="evenodd" stroke="none"/>
      <path d="M1.4 2.75 L1.7 3.5 3.6 8.05 Q4.6 10.7 6.1 12.95 8.0 15.7 11.1 16.7 L11.7 16.2 12.05 15.6 12.1 14.95 13.1 16.15 Q14.45 20.4 8.6 20.1 L7.4 19.15 8.95 18.75 Q7.6 17.7 6.0 15.65 4.4 13.6 3.1 10.15 1.75 6.7 1.1 3.95 L0.65 1.75 1.4 2.75" fill="#7b7981" fill-rule="evenodd" stroke="none"/>
      <path d="M11.55 19.7 Q12.85 19.15 13.1 17.9 13.3 16.65 13.1 16.0 14.0 16.45 13.25 18.65 12.5 20.85 8.75 20.05 L11.55 19.7 M12.9 15.3 L12.4 15.4 Q5.8 11.6 1.15 2.6 2.1 15.0 8.4 19.7 0.95 16.1 0.0 0.0 5.0 8.7 12.9 15.3" fill="#000000" fill-rule="evenodd" stroke="none"/>
    </g>
    <g id="sprite3">
      <use ffdec:characterId="7" height="31.25" transform="matrix(1.0, 0.0, 0.0, 1.0, 0.0, 0.0)" width="32.35" xlink:href="#shape3"/>
    </g>
    <g id="shape3">
      <path d="M1.05 13.6 Q1.1 12.7 1.45 11.9 L1.9 11.15 Q2.25 12.1 5.6 15.05 8.95 17.95 13.1 18.5 L21.25 18.0 Q25.3 16.95 27.45 15.0 L30.3 12.05 30.45 14.0 30.4 14.45 30.2 16.1 30.2 16.15 Q28.9 17.85 26.55 19.1 L23.5 20.7 21.1 21.2 20.0 21.5 16.25 21.95 12.45 21.6 8.9 21.05 8.15 20.85 Q5.2 19.4 3.05 16.9 2.0 15.65 1.4 14.45 L1.05 13.6 M13.85 25.9 L15.05 25.05 15.15 25.3 15.55 26.85 15.8 28.85 15.95 30.55 15.05 30.2 Q14.3 28.0 13.85 25.9 M16.65 30.9 L16.6 28.6 16.6 24.05 19.7 23.95 17.7 30.2 16.65 30.9" fill="#4c1f92" fill-rule="evenodd" stroke="none"/>
      <path d="M27.75 4.35 L26.25 2.75 28.0 6.55 Q28.9 8.55 28.05 10.65 27.15 12.7 26.0 12.0 24.85 11.25 24.3 10.35 L22.8 7.45 22.95 7.2 Q24.55 5.05 25.1 2.25 L25.15 1.45 27.75 4.35 M21.0 9.15 Q22.35 9.55 23.25 11.2 24.05 12.65 23.0 15.3 20.85 17.15 18.75 16.95 L17.85 16.8 Q16.75 15.1 16.75 13.1 16.7 11.55 17.6 10.55 L18.5 10.3 Q19.9 9.9 21.0 9.15 M15.1 10.55 L15.4 11.0 15.6 12.65 Q15.7 13.9 15.3 15.2 14.9 16.45 12.35 16.3 9.9 16.15 8.3 14.5 7.85 12.85 8.65 11.7 L10.0 9.55 Q10.6 8.5 10.9 8.35 L13.15 9.85 14.9 10.5 15.1 10.55 M9.0 6.3 L8.45 8.9 Q7.85 10.85 6.25 12.0 L5.65 12.35 Q4.8 11.1 4.6 9.6 4.15 6.75 4.85 4.15 L6.7 2.55 8.7 5.9 9.0 6.3" fill="#946ad5" fill-rule="evenodd" stroke="none"/>
      <path d="M22.8 7.45 L24.3 10.35 Q24.85 11.25 26.0 12.0 27.15 12.7 28.05 10.65 28.9 8.55 28.0 6.55 L26.25 2.75 27.75 4.35 30.2 7.05 Q31.65 9.0 31.75 11.5 31.8 13.1 31.25 14.45 L30.35 16.0 30.2 16.15 30.2 16.1 30.4 14.45 30.45 14.0 30.3 12.05 27.45 15.0 Q25.3 16.95 21.25 18.0 L13.1 18.5 Q8.95 17.95 5.6 15.05 2.25 12.1 1.9 11.15 L1.45 11.9 Q1.1 12.7 1.05 13.6 L0.9 12.5 0.85 11.35 Q0.85 9.0 1.95 6.9 L4.75 4.2 4.85 4.15 Q4.15 6.75 4.6 9.6 4.8 11.1 5.65 12.35 L6.25 12.0 Q7.85 10.85 8.45 8.9 L9.0 6.3 10.9 8.35 Q10.6 8.5 10.0 9.55 L8.65 11.7 Q7.85 12.85 8.3 14.5 9.9 16.15 12.35 16.3 14.9 16.45 15.3 15.2 15.7 13.9 15.6 12.65 L15.4 11.0 15.1 10.55 Q16.3 10.8 17.6 10.55 16.7 11.55 16.75 13.1 16.75 15.1 17.85 16.8 L18.75 16.95 Q20.85 17.15 23.0 15.3 24.05 12.65 23.25 11.2 22.35 9.55 21.0 9.15 L22.8 7.45 M23.5 20.7 Q22.5 21.2 21.8 21.6 L21.2 21.9 20.5 22.25 20.3 22.7 19.7 23.95 16.6 24.05 16.6 28.6 16.65 30.9 15.95 30.55 15.8 28.85 15.55 26.85 15.15 25.3 15.05 25.05 13.85 25.9 13.65 25.5 13.3 24.7 13.05 24.05 12.65 23.1 12.4 22.4 12.4 22.35 11.55 22.15 8.15 20.85 8.9 21.05 12.45 21.6 16.25 21.95 20.0 21.5 21.1 21.2 23.5 20.7" fill="#2c1550" fill-rule="evenodd" stroke="none"/>
      <path d="M25.75 2.35 Q25.2 4.55 24.05 6.65 22.85 8.85 19.6 10.8 16.3 12.75 11.7 10.3 6.9 7.8 6.7 2.55 3.65 5.5 1.75 9.75 -0.15 14.0 4.75 17.4 9.7 20.75 16.2 23.05 19.75 21.85 25.5 18.75 31.25 15.65 31.15 12.35 31.0 9.0 25.75 2.35 M30.45 6.0 Q31.3 7.1 32.1 9.75 32.9 12.35 31.1 15.75 29.25 19.15 24.9 21.25 L20.4 23.35 Q20.4 24.2 18.85 28.55 17.3 32.9 14.75 30.25 L12.25 23.2 12.2 23.2 Q9.35 22.15 5.7 19.95 2.05 17.75 0.9 15.15 -1.55 9.45 2.55 4.9 4.6 2.65 8.0 0.0 7.8 3.05 9.05 5.35 10.55 8.15 13.4 9.2 18.45 11.25 21.9 7.25 24.35 4.35 24.6 0.0 L28.3 3.6 30.45 6.0 M18.7 26.45 L19.5 23.75 16.65 25.1 Q15.35 24.35 13.25 23.55 L13.95 25.75 14.85 29.05 Q15.3 30.85 17.7 29.85 L18.7 26.45" fill="#000000" fill-rule="evenodd" stroke="none"/>
      <path d="M23.4 14.6 Q22.8 16.25 20.6 16.85 18.35 17.4 17.85 16.6 L17.05 15.05 Q21.85 17.05 22.65 14.45 23.4 12.0 22.65 10.6 24.0 13.0 23.4 14.6 M26.45 12.5 L25.15 11.45 26.5 11.2 Q28.0 8.65 27.75 5.6 28.95 9.25 28.35 10.6 27.75 11.9 26.45 12.5 M9.55 15.75 Q7.7 14.35 8.0 13.3 8.25 12.25 9.1 11.1 L8.7 12.4 Q9.55 17.65 15.05 15.05 15.55 14.4 15.4 13.85 15.85 14.15 15.4 15.1 14.95 16.05 13.15 16.6 11.35 17.15 9.55 15.75 M4.45 10.95 Q3.4 9.05 4.55 5.4 4.35 8.6 6.05 11.15 L7.45 10.9 5.85 12.4 4.45 10.95 M16.65 29.8 Q16.35 29.8 16.3 29.35 L16.3 28.95 Q16.3 26.4 16.7 25.95 17.05 25.5 17.05 27.85 17.05 29.8 16.65 29.8" fill="#ece0ff" fill-rule="evenodd" stroke="none"/>
    </g>
  </defs>
</svg>
