<?xml version="1.0" encoding="UTF-8" standalone="no"?>
<svg xmlns:ffdec="https://www.free-decompiler.com/flash" xmlns:xlink="http://www.w3.org/1999/xlink" ffdec:objectType="frame" height="45.25px" width="72.85px" xmlns="http://www.w3.org/2000/svg">
  <g transform="matrix(1.0, 0.0, 0.0, 1.0, 28.35, 47.1)">
    <use ffdec:characterId="4" height="39.6" transform="matrix(0.9966, 0.0828, -0.0828, 0.9966, -24.7, -52.85)" width="69.85" xlink:href="#sprite0"/>
  </g>
  <defs>
    <g id="sprite0">
      <use ffdec:characterId="1" height="39.6" transform="matrix(1.0, 0.0, 0.0, 1.0, 0.0, 0.0)" width="69.85" xlink:href="#shape0"/>
      <use ffdec:characterId="3" height="11.45" transform="matrix(0.7843, 0.7603, -0.7482, 0.7718, 44.2, 25.1)" width="12.85" xlink:href="#sprite1"/>
      <use ffdec:characterId="3" height="11.45" transform="matrix(1.028, -0.3692, 0.3633, 1.0116, 53.75, 28.4)" width="12.85" xlink:href="#sprite1"/>
    </g>
    <g id="shape0">
      <path d="M51.35 32.95 Q50.05 33.95 49.3 33.55 49.1 36.0 46.6 37.4 45.65 37.9 45.1 38.0 44.2 38.05 43.65 37.25 43.25 38.4 42.45 39.0 40.55 40.45 38.1 40.65 L37.75 40.35 36.0 41.7 Q33.2 42.9 32.65 42.75 32.05 42.65 31.7 41.9 L31.3 42.3 Q29.75 43.7 27.75 43.5 25.4 43.3 24.5 42.7 22.9 44.45 20.1 44.0 L18.55 43.6 Q17.95 43.15 17.85 42.45 16.45 43.6 14.85 43.75 12.15 44.05 10.4 41.95 L8.75 42.1 Q6.7 42.1 6.35 40.8 L6.3 40.6 6.05 40.7 Q4.3 40.95 3.4 39.2 L3.35 39.05 Q2.85 39.4 2.45 39.05 L1.7 38.15 Q1.1 37.35 1.5 35.5 1.95 33.1 4.25 31.35 6.55 29.55 8.5 30.75 8.65 31.0 8.4 31.55 10.65 30.25 11.9 32.75 L11.85 33.85 12.45 33.3 14.6 33.35 Q15.7 33.75 15.95 34.45 L15.95 35.35 17.65 34.25 Q20.7 33.95 21.25 35.45 L21.4 35.2 Q22.25 33.9 24.15 34.2 25.4 34.4 25.95 35.65 26.4 34.65 26.95 34.3 27.75 33.65 29.7 33.8 30.85 33.75 31.7 34.5 L31.95 34.7 31.9 34.05 Q32.05 32.8 34.05 31.95 L36.9 31.85 Q37.35 30.8 38.05 30.3 39.4 29.2 41.5 29.0 L42.25 29.1 Q42.4 27.95 43.75 27.15 L45.6 27.0 Q45.1 25.75 46.4 24.3 48.1 22.3 51.5 26.6 53.65 31.15 51.35 32.95" fill="#000000" fill-rule="evenodd" stroke="none"/>
      <path d="M51.35 32.95 Q50.05 33.95 49.3 33.55 49.1 36.0 46.6 37.4 45.65 37.9 45.1 38.0 44.2 38.05 43.65 37.25 43.25 38.4 42.45 39.0 40.55 40.45 38.1 40.65 L37.75 40.35 36.0 41.7 Q33.2 42.9 32.65 42.75 32.05 42.65 31.7 41.9 L31.3 42.3 Q29.75 43.7 27.75 43.5 25.4 43.3 24.5 42.7 22.9 44.45 20.1 44.0 L18.55 43.6 Q17.95 43.15 17.85 42.45 16.45 43.6 14.85 43.75 12.15 44.05 10.4 41.95 L8.75 42.1 Q6.7 42.1 6.35 40.8 L6.3 40.6 6.05 40.7 Q4.3 40.95 3.4 39.2 L3.35 39.05 Q2.85 39.4 2.45 39.05 L1.7 38.15 Q1.1 37.35 1.5 35.5 1.95 33.1 4.25 31.35 6.55 29.55 8.5 30.75 8.65 31.0 8.4 31.55 10.65 30.25 11.9 32.75 L11.85 33.85 12.45 33.3 14.6 33.35 Q15.7 33.75 15.95 34.45 L15.95 35.35 17.65 34.25 Q20.7 33.95 21.25 35.45 L21.4 35.2 Q22.25 33.9 24.15 34.2 25.4 34.4 25.95 35.65 26.4 34.65 26.95 34.3 27.75 33.65 29.7 33.8 30.85 33.75 31.7 34.5 L31.95 34.7 31.9 34.05 Q32.05 32.8 34.05 31.95 L36.9 31.85 Q37.35 30.8 38.05 30.3 39.4 29.2 41.5 29.0 L42.25 29.1 Q42.4 27.95 43.75 27.15 L45.6 27.0 Q45.1 25.75 46.4 24.3 48.1 22.3 51.5 26.6 53.65 31.15 51.35 32.95 Z" fill="none" stroke="#101826" stroke-linecap="round" stroke-linejoin="round" stroke-width="2.5"/>
      <path d="M43.75 27.15 Q45.1 26.45 46.55 27.45 47.9 28.4 48.7 30.35 50.55 35.2 46.6 37.4 45.65 37.9 45.1 38.0 44.05 38.05 43.45 36.95 42.85 35.9 42.75 32.3 42.25 30.5 42.25 29.6 42.1 28.1 43.75 27.15" fill="#f2f2f2" fill-rule="evenodd" stroke="none"/>
      <path d="M51.5 26.6 Q53.65 31.15 51.35 32.95 49.0 34.75 48.35 32.0 47.65 29.3 46.15 27.8 44.65 26.3 46.4 24.3 48.1 22.3 51.5 26.6" fill="#d62020" fill-rule="evenodd" stroke="none"/>
      <path d="M38.1 40.65 L36.75 39.55 Q35.5 37.35 36.1 34.35 36.65 31.35 38.05 30.3 39.4 29.2 41.5 29.0 43.6 28.75 43.95 33.15 44.3 37.55 42.45 39.0 40.55 40.45 38.1 40.65" fill="#464646" fill-rule="evenodd" stroke="none"/>
      <path d="M29.7 33.8 Q30.85 33.75 31.7 34.5 33.45 35.9 32.85 39.75 32.6 41.05 31.3 42.3 29.75 43.7 27.75 43.5 23.8 43.15 24.0 41.7 24.15 40.65 25.6 36.6 26.15 34.8 26.95 34.3 27.75 33.65 29.7 33.8" fill="#464646" fill-rule="evenodd" stroke="none"/>
      <path d="M13.55 37.55 Q16.75 34.35 17.65 34.25 23.0 33.7 20.65 38.6 18.3 43.4 14.85 43.75 12.05 44.05 10.25 41.8 10.25 40.7 13.55 37.55" fill="#464646" fill-rule="evenodd" stroke="none"/>
      <path d="M24.15 34.2 Q25.65 34.45 26.15 36.15 26.65 37.75 26.05 39.7 24.6 44.7 20.1 44.0 L18.55 43.6 Q17.7 43.0 17.85 41.8 18.05 40.6 20.2 37.65 L21.4 35.2 Q22.25 33.9 24.15 34.2" fill="#ffffff" fill-rule="evenodd" stroke="none"/>
      <path d="M12.45 33.3 L14.6 33.35 Q15.7 33.75 15.95 34.45 16.2 35.25 15.0 37.8 13.6 40.7 11.55 41.55 10.2 42.15 8.75 42.1 6.7 42.1 6.35 40.8 6.0 39.7 6.55 39.15 L8.25 37.75 Q12.05 33.45 12.45 33.3" fill="#ffffff" fill-rule="evenodd" stroke="none"/>
      <path d="M34.05 31.95 Q35.95 31.1 37.05 31.95 38.15 32.8 38.55 36.6 38.85 40.4 36.0 41.7 33.2 42.9 32.65 42.75 31.95 42.65 31.6 41.65 L31.7 40.7 Q31.95 39.55 32.0 36.95 L31.9 34.05 Q32.05 32.8 34.05 31.95" fill="#ffffff" fill-rule="evenodd" stroke="none"/>
      <path d="M6.25 33.3 Q10.1 29.2 11.9 32.75 12.15 33.25 11.5 34.6 L9.35 38.1 7.65 40.05 6.05 40.7 Q4.3 40.95 3.4 39.2 3.0 38.5 3.9 36.7 4.8 34.8 6.25 33.3" fill="#464646" fill-rule="evenodd" stroke="none"/>
      <path d="M8.25 31.75 L6.1 34.3 Q4.9 35.8 3.4 39.0 L2.45 39.05 1.7 38.15 Q1.1 37.35 1.5 35.5 1.95 33.1 4.25 31.35 6.55 29.55 8.5 30.75 8.7 31.05 8.25 31.75" fill="#f2f2f2" fill-rule="evenodd" stroke="none"/>
      <path d="M47.9 30.65 L50.1 27.75 51.05 26.05 51.5 26.6 Q53.65 31.15 51.35 32.95 50.05 33.95 49.3 33.55 48.65 33.25 48.35 32.0 L47.9 30.65 M43.65 37.25 Q43.25 38.4 42.45 39.0 40.55 40.45 38.1 40.65 L37.75 40.35 Q38.6 39.15 38.6 37.3 41.45 35.95 44.0 34.15 44.05 36.0 43.65 37.25 M31.7 41.9 L31.3 42.3 Q29.75 43.7 27.75 43.5 25.4 43.3 24.5 42.7 25.45 41.65 26.0 39.9 L30.7 39.35 31.9 39.2 31.7 40.7 31.6 41.65 31.7 41.9 M17.7 42.55 Q16.5 43.6 14.85 43.75 12.15 44.05 10.4 41.95 L11.55 41.55 Q13.3 40.85 14.45 38.8 L16.55 39.2 18.9 39.6 Q17.6 41.1 17.7 42.55 M6.3 40.6 L6.05 40.7 Q4.3 40.95 3.4 39.2 L3.35 39.05 3.4 39.0 Q4.65 36.4 5.65 34.9 6.85 35.9 9.15 36.9 L9.9 37.3 9.35 38.1 7.65 40.05 6.3 40.6" fill="#141414" fill-rule="evenodd" stroke="none"/>
      <path d="M49.3 33.55 Q49.1 36.0 46.6 37.4 45.65 37.9 45.1 38.0 44.2 38.05 43.65 37.25 44.05 36.0 44.0 34.15 L45.2 33.2 47.9 30.65 48.35 32.0 Q48.65 33.25 49.3 33.55 M37.75 40.35 L36.0 41.7 Q33.2 42.9 32.65 42.75 32.05 42.65 31.7 41.9 L31.6 41.65 31.7 40.7 31.9 39.2 38.4 37.35 38.6 37.3 Q38.6 39.15 37.75 40.35 M24.5 42.7 Q22.9 44.45 20.1 44.0 L18.55 43.6 17.7 42.55 Q17.6 41.1 18.9 39.6 L23.2 39.95 26.0 39.9 Q25.45 41.65 24.5 42.7 M10.4 41.95 L8.75 42.1 Q6.7 42.1 6.35 40.8 L6.3 40.6 7.65 40.05 9.35 38.1 9.9 37.3 Q9.95 37.65 14.45 38.8 13.3 40.85 11.55 41.55 L10.4 41.95 M3.35 39.05 Q2.85 39.4 2.45 39.05 L1.7 38.15 Q1.1 37.35 1.5 35.5 1.75 34.1 2.7 32.9 L5.65 34.9 Q4.65 36.4 3.4 39.0 L3.35 39.05" fill="#c0b8b8" fill-rule="evenodd" stroke="none"/>
      <path d="M10.7 38.1 L10.15 38.2 Q10.5 37.5 11.4 37.35 L10.7 38.1" fill="#9f8989" fill-rule="evenodd" stroke="none"/>
      <path d="M11.2 38.75 L10.6 38.95 11.75 38.15 12.6 37.85 11.2 38.75" fill="#9f8989" fill-rule="evenodd" stroke="none"/>
      <path d="M12.6 39.65 L12.35 39.85 12.55 39.35 14.65 37.75 12.6 39.65" fill="#9f8989" fill-rule="evenodd" stroke="none"/>
      <path d="M21.4 41.05 L21.15 41.25 Q21.1 40.5 22.0 40.0 L22.2 40.0 21.4 41.05" fill="#9f8989" fill-rule="evenodd" stroke="none"/>
      <path d="M24.1 39.25 Q23.8 40.75 22.55 41.6 22.8 40.6 23.35 39.65 L23.85 38.9 24.0 38.8 24.1 39.25" fill="#9f8989" fill-rule="evenodd" stroke="none"/>
      <path d="M34.5 39.6 L34.25 39.95 Q34.25 39.55 34.4 39.25 34.55 38.95 34.85 38.8 L34.85 38.95 34.5 39.6" fill="#9f8989" fill-rule="evenodd" stroke="none"/>
      <path d="M36.3 38.85 L36.0 39.4 35.95 38.7 36.35 36.25 Q36.85 37.65 36.3 38.85" fill="#9f8989" fill-rule="evenodd" stroke="none"/>
      <path d="M37.45 36.9 L37.4 37.75 37.35 37.8 37.0 36.5 37.35 35.8 37.45 36.9" fill="#9f8989" fill-rule="evenodd" stroke="none"/>
      <path d="M7.95 34.5 Q7.7 35.65 6.15 36.6 L7.15 34.9 7.95 34.5" fill="#000000" fill-rule="evenodd" stroke="none"/>
      <path d="M7.85 36.8 L7.3 37.05 Q7.95 35.95 8.95 35.6 L9.05 35.7 7.85 36.8" fill="#000000" fill-rule="evenodd" stroke="none"/>
      <path d="M14.85 40.35 L14.4 40.45 14.9 39.95 17.1 38.3 Q16.4 39.85 14.85 40.35" fill="#000000" fill-rule="evenodd" stroke="none"/>
      <path d="M18.4 38.75 Q17.9 39.7 16.95 40.25 L18.25 38.35 18.4 38.75" fill="#000000" fill-rule="evenodd" stroke="none"/>
      <path d="M29.35 39.25 Q28.95 40.8 27.75 41.75 L27.6 41.7 28.8 39.5 29.15 38.75 29.35 39.25" fill="#000000" fill-rule="evenodd" stroke="none"/>
      <path d="M30.6 38.95 Q30.6 39.5 30.25 40.05 L30.45 38.9 Q30.65 38.2 30.6 38.95" fill="#000000" fill-rule="evenodd" stroke="none"/>
      <path d="M4.35 36.0 Q5.1 34.0 6.25 33.15 L7.95 31.8 9.35 30.95 Q6.95 33.0 5.05 35.85 4.35 36.85 4.25 38.2 L4.35 36.0" fill="#101420" fill-rule="evenodd" stroke="none"/>
      <path d="M15.65 35.55 L16.05 33.6 Q16.65 35.95 15.55 38.2 14.9 39.5 13.6 40.15 15.3 37.25 15.65 35.55" fill="#101420" fill-rule="evenodd" stroke="none"/>
      <path d="M25.05 40.9 Q26.05 38.3 25.65 35.35 L25.65 34.85 26.2 36.25 Q27.2 39.1 26.05 41.9 25.05 44.5 22.65 45.15 24.2 43.15 25.05 40.9" fill="#101420" fill-rule="evenodd" stroke="none"/>
      <path d="M42.1 28.35 Q43.5 29.85 43.95 32.35 44.35 34.85 43.65 37.1 43.85 35.55 43.25 33.0 42.6 30.4 40.9 28.75 L42.1 28.35" fill="#101420" fill-rule="evenodd" stroke="none"/>
      <path d="M30.7 33.45 L31.1 33.3 Q32.3 33.95 32.3 36.25 32.25 38.5 31.7 39.95 32.05 37.05 31.25 34.65 L30.7 33.45" fill="#101420" fill-rule="evenodd" stroke="none"/>
      <path d="M38.45 35.5 L38.7 36.05 Q38.9 39.5 38.2 40.7 37.5 41.85 36.45 42.1 37.6 40.6 38.05 38.75 38.45 36.85 38.45 35.5" fill="#101420" fill-rule="evenodd" stroke="none"/>
      <path d="M21.0 34.65 L21.2 34.3 21.3 34.4 21.45 34.9 21.4 35.4 Q20.8 37.35 19.55 38.8 L19.35 38.9 Q19.15 38.8 19.65 37.95 L20.55 36.05 21.0 34.65" fill="#101420" fill-rule="evenodd" stroke="none"/>
      <path d="M9.75 37.75 Q11.05 34.55 11.25 33.35 L11.4 31.55 11.85 32.25 12.4 32.4 Q12.05 34.3 11.4 35.4 L9.75 37.75" fill="#101420" fill-rule="evenodd" stroke="none"/>
      <path d="M53.8 7.95 Q55.8 9.5 56.65 12.2 L56.7 12.35 Q57.25 15.4 56.2 17.05 L56.2 17.1 55.25 18.3 55.2 18.75 57.2 18.5 Q57.8 17.55 59.2 16.95 L61.25 16.6 Q61.7 15.95 62.5 15.35 L62.4 15.4 Q63.2 14.75 65.55 13.95 67.3 13.35 68.5 14.8 69.3 15.75 69.7 18.15 70.4 22.7 69.05 24.45 L69.05 24.5 Q67.8 26.2 65.55 27.35 L65.5 27.35 63.75 28.0 63.7 28.05 Q62.2 29.95 59.05 29.95 L58.35 29.9 56.75 30.25 53.5 29.95 53.4 29.95 Q52.6 30.2 52.0 29.95 49.2 29.35 47.55 27.2 L45.8 24.5 45.75 24.4 45.6 23.65 45.35 23.4 45.35 23.35 Q43.5 21.35 43.9 19.05 44.05 17.85 44.35 17.05 L44.05 15.65 Q43.85 13.7 45.15 12.2 L45.3 10.95 Q45.6 8.65 46.95 7.35 48.25 6.0 49.5 5.85 L49.6 5.8 Q50.8 5.5 53.8 7.95" fill="#131c34" fill-rule="evenodd" stroke="none"/>
      <path d="M55.5 12.55 Q56.0 15.1 55.2 16.45 L54.15 17.75 Q53.6 18.3 53.6 18.9 L53.8 19.8 Q54.15 20.7 53.25 21.7 L55.55 19.95 Q56.6 19.25 58.6 20.25 60.6 21.2 61.0 20.05 L61.6 18.4 62.15 17.45 Q62.45 16.85 63.2 16.35 63.85 15.75 65.9 15.1 67.9 14.4 68.5 18.35 69.1 22.25 68.05 23.75 67.0 25.3 65.0 26.3 63.0 27.25 61.75 26.7 L60.75 26.0 Q59.4 28.7 56.6 29.05 54.2 29.35 50.3 27.2 49.4 26.7 49.2 24.6 49.0 23.55 48.35 23.85 47.6 24.15 46.2 22.55 44.8 21.0 45.05 19.2 45.35 17.35 46.0 16.65 46.6 15.9 48.3 15.75 46.4 15.55 46.3 14.3 46.2 12.95 46.45 11.15 46.75 9.25 47.8 8.2 48.8 7.15 49.7 7.0 50.65 6.9 53.05 8.85 54.8 10.2 55.5 12.55" fill="#464646" fill-rule="evenodd" stroke="none"/>
      <path d="M50.9 12.4 Q53.8 13.55 54.0 16.5 54.2 19.35 53.7 19.75 53.3 18.8 52.55 18.15 51.75 17.5 50.3 17.35 L48.0 17.2 46.25 17.25 Q45.4 17.25 45.25 15.55 45.1 13.75 46.5 12.5 L50.9 12.4" fill="#f2f2f2" fill-rule="evenodd" stroke="none"/>
      <path d="M52.4 28.75 Q49.9 28.4 48.5 26.5 L46.9 23.95 Q46.4 23.0 48.1 22.0 49.85 21.05 53.2 21.55 L53.1 23.5 Q52.9 25.95 53.3 28.5 L53.05 28.85 52.4 28.75" fill="#f2f2f2" fill-rule="evenodd" stroke="none"/>
      <path d="M58.15 19.25 Q58.6 18.55 59.7 18.05 L62.1 17.95 Q63.8 19.95 63.9 22.9 64.0 25.75 62.8 27.25 61.55 28.75 59.05 28.75 58.45 28.75 58.3 28.45 L58.25 28.15 58.4 27.15 58.55 25.25 58.2 22.15 57.8 20.35 Q57.8 19.85 58.15 19.25" fill="#f2f2f2" fill-rule="evenodd" stroke="none"/>
      <path d="M63.05 26.9 Q64.0 25.5 63.9 22.9 L63.85 22.15 Q66.45 19.7 67.85 16.1 L68.5 18.35 Q69.1 22.3 68.05 23.8 67.0 25.3 65.0 26.3 L63.05 26.9 M58.55 25.5 L58.45 27.15 58.25 28.15 58.3 28.5 58.4 28.55 56.6 29.1 Q55.2 29.3 53.25 28.6 L53.3 28.55 53.05 25.8 Q54.65 26.7 57.0 26.2 L58.0 25.7 Q58.25 25.55 58.55 25.5 M46.3 12.7 L46.45 11.15 Q46.75 9.3 47.8 8.25 48.8 7.2 49.7 7.05 50.25 6.95 51.4 7.7 50.2 8.1 49.3 9.35 48.45 10.55 48.0 11.9 47.1 11.95 46.5 12.5 L46.3 12.7 M47.75 17.3 Q48.05 18.3 48.8 19.0 50.65 18.85 52.05 17.85 L52.55 18.2 Q53.3 18.85 53.7 19.8 L53.75 19.7 53.8 19.85 53.85 20.5 53.5 21.4 53.25 21.65 53.25 21.6 Q49.85 21.1 48.1 22.05 47.05 22.65 46.85 23.25 L46.25 22.6 Q44.8 21.05 45.05 19.25 45.25 17.8 45.7 17.05 L46.25 17.3 47.75 17.3 M53.9 15.8 L54.65 14.4 55.35 12.05 55.5 12.6 Q56.0 15.1 55.2 16.5 L54.15 17.75 54.05 17.9 54.05 16.5 53.9 15.8" fill="#141414" fill-rule="evenodd" stroke="none"/>
      <path d="M63.85 22.15 L63.9 22.9 Q64.0 25.5 63.05 26.9 L62.8 27.3 Q61.55 28.75 59.05 28.75 L58.4 28.55 58.3 28.5 58.25 28.15 58.45 27.15 58.55 25.5 Q61.65 24.3 63.85 22.15 M48.0 11.9 Q47.4 13.7 47.45 15.7 L47.75 17.3 46.25 17.3 45.7 17.05 Q45.35 16.6 45.25 15.55 45.1 13.9 46.3 12.7 L46.5 12.5 Q47.1 11.95 48.0 11.9 M52.05 17.85 L53.9 15.8 54.05 16.5 54.05 17.9 Q54.05 19.35 53.75 19.7 L53.7 19.8 Q53.3 18.85 52.55 18.2 L52.05 17.85 M53.25 21.65 Q51.5 21.75 51.2 22.5 50.85 23.25 51.4 24.2 51.9 25.15 53.05 25.8 L53.3 28.55 53.25 28.6 53.05 28.85 52.4 28.8 Q49.95 28.4 48.5 26.5 L46.85 24.0 Q46.7 23.6 46.85 23.25 47.05 22.65 48.1 22.05 49.85 21.1 53.25 21.6 L53.25 21.65" fill="#c0b8b8" fill-rule="evenodd" stroke="none"/>
      <path d="M60.15 21.95 L60.4 22.25 Q61.0 24.45 60.1 26.45 L59.9 26.7 60.15 23.0 60.15 21.95" fill="#9f8989" fill-rule="evenodd" stroke="none"/>
      <path d="M61.45 25.05 L61.15 25.55 Q61.35 24.25 61.7 22.9 L61.8 22.45 Q62.0 23.75 61.45 25.05" fill="#9f8989" fill-rule="evenodd" stroke="none"/>
      <path d="M62.35 20.65 Q63.35 22.25 62.35 24.0 62.15 23.2 62.35 22.15 L62.35 20.65" fill="#9f8989" fill-rule="evenodd" stroke="none"/>
      <path d="M52.75 17.1 L52.8 17.35 Q52.35 17.4 51.55 16.4 51.15 15.9 50.6 15.6 L50.0 15.2 Q51.1 14.95 51.9 15.75 L52.55 16.5 52.75 17.1" fill="#9f8989" fill-rule="evenodd" stroke="none"/>
      <path d="M52.65 14.45 L52.85 15.4 51.25 13.8 51.15 13.6 51.85 13.95 52.35 14.2 52.65 14.45" fill="#9f8989" fill-rule="evenodd" stroke="none"/>
      <path d="M55.0 26.6 L55.65 24.25 Q55.75 23.5 55.95 24.2 56.05 25.35 55.3 26.3 L55.0 26.6" fill="#000000" fill-rule="evenodd" stroke="none"/>
      <path d="M56.95 25.55 L56.85 25.55 Q56.9 24.6 57.35 23.8 L57.45 24.25 Q57.65 25.05 56.95 25.55" fill="#000000" fill-rule="evenodd" stroke="none"/>
      <path d="M65.25 21.2 L65.15 21.85 64.8 22.05 64.8 18.45 64.9 18.7 Q65.45 19.9 65.25 21.2" fill="#000000" fill-rule="evenodd" stroke="none"/>
      <path d="M66.7 20.4 L66.55 20.65 66.2 18.6 66.75 18.8 66.85 19.5 66.7 20.4" fill="#000000" fill-rule="evenodd" stroke="none"/>
      <path d="M48.15 19.95 L47.2 20.4 Q48.0 19.5 49.0 19.2 50.65 18.8 52.1 19.85 L52.35 20.05 50.45 19.85 48.15 19.95" fill="#000000" fill-rule="evenodd" stroke="none"/>
      <path d="M58.65 23.8 L58.55 25.55 58.25 23.95 57.45 20.25 Q57.25 19.25 58.25 18.1 57.65 19.25 58.15 20.9 58.65 22.55 58.65 23.8" fill="#101420" fill-rule="evenodd" stroke="none"/>
      <path d="M62.1 28.8 L61.8 28.8 61.6 28.95 61.35 28.95 62.95 26.1 Q63.55 24.65 63.75 21.0 64.25 23.45 64.0 25.05 63.65 27.1 62.4 28.65 L62.1 28.8" fill="#101420" fill-rule="evenodd" stroke="none"/>
      <path d="M48.15 17.3 L47.15 17.2 Q49.25 16.9 51.25 17.25 52.85 17.65 53.85 19.25 L54.15 20.3 52.5 18.9 Q51.75 18.3 50.75 17.95 L48.15 17.3" fill="#101420" fill-rule="evenodd" stroke="none"/>
      <path d="M45.2 13.3 Q46.75 11.65 49.05 11.55 50.9 11.85 52.45 13.25 50.85 12.25 48.95 12.1 46.95 12.35 45.2 13.3" fill="#101420" fill-rule="evenodd" stroke="none"/>
      <path d="M46.15 26.0 Q44.2 25.75 42.9 27.55 41.6 29.4 40.85 29.1 40.05 28.85 40.6 27.4 41.45 25.6 43.75 24.75 46.05 23.9 49.15 25.6 L48.95 26.7 48.9 26.7 46.15 26.0" fill="#4e3401" fill-rule="evenodd" stroke="none"/>
      <path d="M56.7 27.55 Q56.3 26.4 57.2 26.15 L57.65 26.45 Q59.3 29.05 57.1 31.7 55.2 34.0 52.1 33.5 50.85 33.1 49.95 32.25 52.4 33.15 54.4 32.0 57.45 30.35 56.7 27.55" fill="#4e3401" fill-rule="evenodd" stroke="none"/>
      <path d="M55.05 29.8 Q54.5 30.65 53.55 30.5 52.4 30.3 52.0 29.3 L51.85 28.2 Q52.2 25.95 54.0 26.3 55.8 26.7 55.5 28.6 L55.05 29.8" fill="#fff6a9" fill-rule="evenodd" stroke="none"/>
      <path d="M45.65 22.85 Q45.05 23.45 43.85 23.3 42.8 23.1 42.4 22.35 42.1 21.8 42.2 21.4 42.45 19.65 44.5 19.95 46.5 20.3 46.3 21.5 46.2 22.3 45.65 22.85" fill="#fff6a9" fill-rule="evenodd" stroke="none"/>
      <path d="M57.6 28.4 Q56.9 28.4 56.85 27.15 56.85 26.4 57.4 26.75 57.95 27.15 57.95 27.8 57.95 28.4 57.6 28.4" fill="#030c21" fill-rule="evenodd" stroke="none"/>
      <path d="M42.1 28.0 Q41.8 28.45 41.35 28.45 L40.8 28.15 Q40.8 26.95 41.6 26.8 42.35 26.65 42.35 27.35 L42.1 28.0" fill="#030c21" fill-rule="evenodd" stroke="none"/>
      <path d="M43.85 29.95 Q42.65 29.95 42.95 29.25 43.6 27.55 45.95 27.35 48.25 27.1 47.85 27.95 47.4 28.8 46.2 29.4 45.0 30.0 43.85 29.95" fill="#eb7406" fill-rule="evenodd" stroke="none"/>
    </g>
    <g id="sprite1">
      <use ffdec:characterId="2" height="11.45" transform="matrix(1.0, 0.0, 0.0, 1.0, 0.0, 0.0)" width="12.85" xlink:href="#shape1"/>
    </g>
    <g id="shape1">
      <path d="M3.75 -2.55 Q4.85 -0.85 4.6 0.95 4.15 2.95 2.55 4.05 0.85 5.25 -0.95 4.75 -2.8 4.5 -3.9 2.8 -5.0 1.1 -4.65 -0.85 -4.4 -2.7 -2.7 -3.9 -1.1 -5.0 0.85 -4.65 2.65 -4.25 3.75 -2.55" fill="#ffd641" fill-rule="evenodd" stroke="none"/>
      <path d="M5.45 1.1 Q4.9 3.55 3.05 4.85 1.1 6.2 -1.1 5.6 -3.4 5.25 -4.65 3.3 -5.95 1.35 -5.5 -1.1 -5.15 -3.3 -3.2 -4.65 -1.35 -5.95 1.0 -5.6 3.2 -5.0 4.5 -3.05 5.75 -1.1 5.45 1.1 M3.75 -2.55 Q2.65 -4.25 0.85 -4.65 -1.1 -5.0 -2.7 -3.9 -4.4 -2.7 -4.65 -0.85 -5.0 1.1 -3.9 2.8 -2.8 4.5 -0.95 4.75 0.85 5.25 2.55 4.05 4.15 2.95 4.6 0.95 4.85 -0.85 3.75 -2.55" fill="#201409" fill-rule="evenodd" stroke="none"/>
      <path d="M1.5 -3.5 Q1.95 -2.9 1.85 -2.3 1.7 -1.7 1.15 -1.4 0.65 -0.95 0.05 -1.1 -0.5 -1.2 -0.85 -1.8 -1.2 -2.3 -1.1 -2.9 -1.05 -3.5 -0.5 -3.85 L0.65 -4.15 Q1.15 -4.0 1.5 -3.5" fill="#ffffff" fill-rule="evenodd" stroke="none"/>
      <path d="M-0.1 4.15 L-2.3 2.15 2.1 2.15 -0.1 4.15" fill="#4f3319" fill-rule="evenodd" stroke="none"/>
      <path d="M0.2 2.5 L0.2 5.15 -0.4 5.1 -0.4 2.55 0.2 2.5" fill="#4f3319" fill-rule="evenodd" stroke="none"/>
      <path d="M-6.05 -0.35 L5.7 -0.3 Q6.65 0.65 5.7 1.55 L-6.05 1.6 Q-7.3 0.7 -6.05 -0.35" fill="#201409" fill-rule="evenodd" stroke="none"/>
      <path d="M1.5 1.25 L1.45 0.05 5.3 0.05 Q6.2 0.65 5.3 1.2 L1.5 1.25 M-1.25 0.05 L-1.15 1.25 -5.6 1.25 Q-6.75 0.7 -5.6 0.0 L-1.25 0.05" fill="#ffd641" fill-rule="evenodd" stroke="none"/>
      <path d="M1.45 0.05 L1.5 1.25 -1.15 1.25 -1.25 0.05 1.45 0.05" fill="#ffffff" fill-rule="evenodd" stroke="none"/>
    </g>
  </defs>
</svg>
