<?xml version="1.0" encoding="UTF-8" standalone="no"?>
<svg xmlns:ffdec="https://www.free-decompiler.com/flash" xmlns:xlink="http://www.w3.org/1999/xlink" ffdec:objectType="frame" height="38.2px" width="43.65px" xmlns="http://www.w3.org/2000/svg">
  <g transform="matrix(1.0, 0.0, 0.0, 1.0, 21.9, 56.65)">
    <use ffdec:characterId="11" height="14.95" transform="matrix(1.0, 0.0, 0.0, 1.0, -11.65, -33.15)" width="23.5" xlink:href="#sprite0"/>
    <use ffdec:characterId="13" height="24.5" transform="matrix(1.0, 0.0, 0.0, 1.0, -14.95, -56.4)" width="30.2" xlink:href="#sprite1"/>
    <use ffdec:characterId="2" height="23.55" transform="matrix(0.9873, 0.0, 0.0, 0.9873, 12.15, -46.55)" width="10.15" xlink:href="#sprite2"/>
    <use ffdec:characterId="2" height="23.55" transform="matrix(-0.9873, 0.0, 0.0, 0.9873, -12.3, -46.55)" width="10.15" xlink:href="#sprite3"/>
    <use ffdec:characterId="8" height="15.55" transform="matrix(1.0, 0.0, 0.0, 1.0, -10.4, -34.55)" width="10.7" xlink:href="#sprite4"/>
    <use ffdec:characterId="8" height="15.55" transform="matrix(-1.0, 0.0, 0.0, 1.0, 10.05, -34.55)" width="10.7" xlink:href="#sprite5"/>
  </g>
  <defs>
    <g id="sprite0">
      <use ffdec:characterId="10" height="14.95" transform="matrix(1.0, 0.0, 0.0, 1.0, 0.0, 0.0)" width="23.5" xlink:href="#shape0"/>
    </g>
    <g id="shape0">
      <path d="M22.85 10.05 Q23.15 10.6 22.85 11.75 22.55 12.85 19.85 13.25 L11.45 13.9 3.1 13.25 Q0.4 12.85 0.15 11.75 -0.15 10.6 0.15 10.05 0.4 9.5 1.85 8.35 3.2 7.3 3.7 5.95 4.1 4.65 5.45 2.85 6.7 1.05 8.4 0.4 L11.5 0.1 14.55 0.4 Q16.25 1.05 17.55 2.85 18.85 4.65 19.3 5.95 19.75 7.3 21.15 8.35 L22.85 10.05" fill="#ffa101" fill-rule="evenodd" stroke="none"/>
      <path d="M22.85 10.05 Q23.15 10.6 22.85 11.75 22.55 12.85 19.85 13.25 L11.45 13.9 3.1 13.25 Q0.4 12.85 0.15 11.75 -0.15 10.6 0.15 10.05 0.4 9.5 1.85 8.35 3.2 7.3 3.7 5.95 4.1 4.65 5.45 2.85 6.7 1.05 8.4 0.4 L11.5 0.1 14.55 0.4 Q16.25 1.05 17.55 2.85 18.85 4.65 19.3 5.95 19.75 7.3 21.15 8.35 L22.85 10.05 Z" ffdec:has-small-stroke="true" ffdec:original-stroke-width="0.5" fill="none" stroke="#d22300" stroke-linecap="round" stroke-linejoin="round" stroke-width="1.0"/>
      <path d="M5.7 2.5 Q6.85 1.0 8.4 0.4 L11.5 0.1 14.55 0.4 Q16.1 1.0 17.3 2.5 11.4 4.0 5.7 2.5" fill="#ff3f01" fill-rule="evenodd" stroke="none"/>
      <path d="M5.7 2.5 Q6.85 1.0 8.4 0.4 L11.5 0.1 14.55 0.4 Q16.1 1.0 17.3 2.5" ffdec:has-small-stroke="true" ffdec:original-stroke-width="0.5" fill="none" stroke="#d22300" stroke-linecap="round" stroke-linejoin="round" stroke-width="1.0"/>
      <path d="M7.85 0.65 Q6.5 1.25 5.55 2.85" ffdec:has-small-stroke="true" ffdec:original-stroke-width="0.5" fill="none" stroke="#050088" stroke-linecap="round" stroke-linejoin="round" stroke-width="1.0"/>
      <path d="M15.05 0.65 Q16.4 1.25 17.35 2.85" ffdec:has-small-stroke="true" ffdec:original-stroke-width="0.5" fill="none" stroke="#050088" stroke-linecap="round" stroke-linejoin="round" stroke-width="1.0"/>
      <path d="M12.15 8.1 L12.9 8.15 13.5 8.2 13.65 8.5 13.35 10.25 13.4 11.9 Q13.65 12.85 14.15 13.25 L14.85 13.65 8.4 13.65 9.05 13.0 Q9.7 12.25 9.7 11.4 L9.35 8.55 Q9.35 8.2 9.9 8.1 L11.25 7.8 11.85 7.85 12.15 8.1" fill="#ff3f01" fill-rule="evenodd" stroke="none"/>
      <path d="M10.45 9.6 L11.4 9.6 12.45 9.5 Q12.95 9.4 12.85 10.7 12.75 11.95 13.2 12.65 L11.65 12.95 10.0 12.6 Q9.85 12.2 10.0 11.8 L10.05 10.5 Q9.95 9.6 10.45 9.6" fill="#ffa101" fill-rule="evenodd" stroke="none"/>
      <path d="M0.7 12.85 Q1.65 13.4 4.0 13.75 11.6 15.15 19.05 13.8 21.9 13.15 22.7 12.5" ffdec:has-small-stroke="true" ffdec:original-stroke-width="0.5" fill="none" stroke="#050088" stroke-linecap="round" stroke-linejoin="round" stroke-width="1.0"/>
    </g>
    <g id="sprite1">
      <use ffdec:characterId="12" height="24.5" transform="matrix(1.0, 0.0, 0.0, 1.0, 0.0, 0.0)" width="30.2" xlink:href="#shape1"/>
    </g>
    <g id="shape1">
      <path d="M29.7 12.0 Q29.7 17.0 25.35 20.5 21.05 24.0 14.85 24.0 8.7 24.0 4.3 20.5 0.0 17.0 0.0 12.0 0.0 7.05 4.3 3.5 8.7 0.0 14.85 0.0 21.05 0.0 25.35 3.5 29.7 7.05 29.7 12.0" fill="#ff9601" fill-rule="evenodd" stroke="none"/>
      <path d="M29.7 12.0 Q29.7 17.0 25.35 20.5 21.05 24.0 14.85 24.0 8.7 24.0 4.3 20.5 0.0 17.0 0.0 12.0 0.0 7.05 4.3 3.5 8.7 0.0 14.85 0.0 21.05 0.0 25.35 3.5 29.7 7.05 29.7 12.0 Z" ffdec:has-small-stroke="true" ffdec:original-stroke-width="0.5" fill="none" stroke="#d22300" stroke-linecap="round" stroke-linejoin="round" stroke-width="1.0"/>
      <path d="M28.3 11.2 Q28.3 15.35 24.35 18.3 20.45 21.2 14.85 21.2 9.3 21.2 5.35 18.3 1.45 15.35 1.45 11.2 1.45 7.05 5.35 4.15 9.3 1.25 14.85 1.25 20.45 1.25 24.35 4.15 28.3 7.05 28.3 11.2" fill="#ffd501" fill-rule="evenodd" stroke="none"/>
      <path d="M17.1 15.95 Q17.1 16.55 16.45 17.0 L14.85 17.45 Q13.9 17.45 13.25 17.0 12.65 16.55 12.65 15.95 12.65 15.3 13.25 14.85 13.9 14.4 14.85 14.4 15.8 14.4 16.45 14.85 17.1 15.3 17.1 15.95" fill="#ff9601" fill-rule="evenodd" stroke="none"/>
      <path d="M4.95 6.9 Q6.45 5.75 9.45 6.25 11.35 6.8 12.5 8.6 L13.25 10.3 13.25 10.4 Q12.5 10.85 10.8 9.65 9.15 8.45 7.1 8.85 L4.7 9.35 Q4.25 9.45 3.85 9.1 3.35 8.0 4.95 6.9" fill="#ff9601" fill-rule="evenodd" stroke="none"/>
      <path d="M20.55 5.9 Q22.3 5.95 23.8 6.75 L25.4 7.85 Q25.85 8.5 24.95 8.55 L21.9 8.35 Q20.6 8.45 19.35 9.35 18.1 10.25 17.9 13.1 17.7 15.9 16.9 16.35 L14.9 15.15 Q16.4 14.9 16.55 11.35 16.6 7.7 17.7 6.8 18.8 5.8 20.55 5.9" fill="#ff9601" fill-rule="evenodd" stroke="none"/>
      <path d="M19.05 6.15 L20.2 6.1 18.95 7.35 Q17.75 8.25 16.8 9.35 16.9 7.65 17.4 7.05 17.9 6.45 19.05 6.15" fill="#ff3f01" fill-rule="evenodd" stroke="none"/>
      <path d="M7.15 5.9 Q8.25 5.8 10.3 6.65 7.05 6.65 3.9 8.35 4.0 7.2 5.1 6.6 6.1 6.0 7.15 5.9" fill="#ff3f01" fill-rule="evenodd" stroke="none"/>
      <path d="M10.65 5.7 Q10.2 5.5 9.9 5.0 9.4 4.25 9.8 2.85 10.15 1.45 12.45 0.95 L12.9 0.85 Q14.85 0.55 16.9 0.85 L17.3 0.95 Q19.6 1.45 19.95 2.85 20.35 4.25 19.85 5.0 L19.05 5.7 Q15.7 7.35 16.05 10.45 16.4 13.55 16.2 13.85 16.05 14.7 14.8 14.6 13.7 14.65 13.55 13.85 13.35 13.55 13.7 10.45 14.05 7.35 10.65 5.7" fill="#ecff01" fill-rule="evenodd" stroke="none"/>
      <path d="M16.25 4.55 Q16.25 5.15 15.85 5.55 15.45 5.95 14.85 5.95 14.25 5.95 13.85 5.55 13.45 5.15 13.45 4.55 13.45 3.95 13.85 3.55 14.25 3.15 14.85 3.15 15.45 3.15 15.85 3.55 16.25 3.95 16.25 4.55" fill="#ffa101" fill-rule="evenodd" stroke="none"/>
      <path d="M16.25 4.55 Q16.25 5.15 15.85 5.55 15.45 5.95 14.85 5.95 14.25 5.95 13.85 5.55 13.45 5.15 13.45 4.55 13.45 3.95 13.85 3.55 14.25 3.15 14.85 3.15 15.45 3.15 15.85 3.55 16.25 3.95 16.25 4.55 Z" ffdec:has-small-stroke="true" ffdec:original-stroke-width="0.5" fill="none" stroke="#f83811" stroke-linecap="round" stroke-linejoin="round" stroke-width="1.0"/>
      <path d="M15.95 4.25 L15.6 4.85 14.85 5.1 14.05 4.85 Q13.75 4.6 13.75 4.25 13.75 3.9 14.05 3.65 14.4 3.4 14.85 3.4 L15.6 3.65 15.95 4.25" fill="#ecff01" fill-rule="evenodd" stroke="none"/>
      <path d="M23.3 14.75 L21.5 14.4 20.1 13.75 20.1 13.55 Q20.1 12.7 22.1 12.85 24.1 13.05 24.55 14.0 23.8 14.75 23.3 14.75" fill="#ff3f01" fill-rule="evenodd" stroke="none"/>
      <path d="M26.5 16.25 L26.15 17.25 Q25.7 17.95 24.75 17.95 23.6 17.95 23.0 17.4 22.4 16.95 22.4 16.25 22.4 14.95 24.45 14.7 26.5 14.45 26.5 16.25" fill="#ecff01" fill-rule="evenodd" stroke="none"/>
      <path d="M6.4 14.75 L8.2 14.4 9.6 13.75 9.6 13.55 Q9.6 12.7 7.6 12.85 5.6 13.05 5.15 14.0 5.9 14.75 6.4 14.75" fill="#ff3f01" fill-rule="evenodd" stroke="none"/>
      <path d="M3.25 16.25 Q3.25 16.75 3.6 17.25 4.05 17.95 5.0 17.95 6.15 17.95 6.75 17.4 7.35 16.95 7.35 16.25 7.35 14.95 5.3 14.7 3.25 14.45 3.25 16.25" fill="#ecff01" fill-rule="evenodd" stroke="none"/>
      <path d="M8.4 12.85 Q9.3 12.95 9.45 13.15 9.55 13.35 8.85 13.45 L7.35 13.8 Q6.55 14.0 6.0 14.5 5.25 14.4 5.3 13.95 5.35 13.5 6.45 13.15 L8.4 12.85" fill="#001f56" fill-rule="evenodd" stroke="none"/>
      <path d="M22.0 12.95 Q22.75 12.95 23.55 13.3 L24.3 14.05 24.15 14.0 22.25 13.8 21.2 13.9 20.4 13.8 20.35 13.55 Q20.35 12.95 22.0 12.95" fill="#001f56" fill-rule="evenodd" stroke="none"/>
      <path d="M19.35 18.15 Q19.1 18.75 18.05 18.75 L15.25 19.05 12.3 18.95 Q11.05 18.75 10.55 18.3 10.05 17.8 10.45 17.75 L11.35 17.85 12.05 18.25 12.95 18.5 14.25 18.7 16.0 18.45 17.75 17.85 18.9 17.45 Q19.4 17.4 19.45 17.65 L19.35 18.15" fill="#ff3f01" fill-rule="evenodd" stroke="none"/>
      <path d="M11.6 18.35 L11.35 18.6 10.7 18.35 10.5 18.1 Q10.5 17.7 11.05 17.8 11.6 17.9 11.6 18.35" fill="#001f56" fill-rule="evenodd" stroke="none"/>
      <path d="M18.7 17.55 Q18.9 17.55 19.1 17.7 L19.3 17.95 19.05 18.25 18.5 18.55 Q17.9 18.55 17.9 18.15 L18.7 17.55" fill="#001f56" fill-rule="evenodd" stroke="none"/>
      <path d="M16.15 15.0 L15.85 15.5 15.2 15.8 Q13.6 15.8 13.6 15.0 L13.7 14.65 14.05 14.65 15.9 14.4 Q16.15 14.35 16.15 15.0" fill="#ff3f01" fill-rule="evenodd" stroke="none"/>
      <path d="M15.45 14.9 L14.35 15.45 Q13.7 15.45 13.7 15.1 13.7 14.7 14.6 14.65 15.45 14.6 15.45 14.9" fill="#001f56" fill-rule="evenodd" stroke="none"/>
    </g>
    <g id="sprite2">
      <use ffdec:characterId="1" height="23.55" transform="matrix(1.0, 0.0, 0.0, 1.0, 0.0, 0.0)" width="10.15" xlink:href="#shape2"/>
    </g>
    <g id="shape2">
      <path d="M2.5 0.6 Q3.0 0.3 3.6 0.15 L6.2 0.1 Q7.45 0.45 8.2 1.2 L9.1 2.4 9.45 3.55 9.4 5.05 Q9.25 5.95 8.55 6.65 7.9 7.2 7.2 7.2 6.15 7.6 5.85 7.9 L5.8 7.95 5.25 8.6 Q5.0 9.05 5.05 9.4 5.1 10.2 5.45 11.0 L6.15 12.45 6.9 14.1 7.35 15.6 7.6 16.8 7.7 17.95 7.65 19.0 7.45 20.15 6.75 21.7 5.65 22.7 4.15 23.0 2.3 22.65 Q1.35 22.3 0.5 20.9 -0.4 19.45 -0.05 17.5 L0.5 13.8 0.6 11.45 0.5 10.65 0.25 8.75 0.2 8.6 0.0 6.7 -0.05 5.2 Q-0.1 4.3 0.2 3.55 0.4 2.65 1.3 1.6 1.8 0.95 2.5 0.6" fill="#ffd501" fill-rule="evenodd" stroke="none"/>
      <path d="M2.5 0.6 Q3.0 0.3 3.6 0.15 L6.2 0.1 Q7.45 0.45 8.2 1.2 L9.1 2.4 9.45 3.55 9.4 5.05 Q9.25 5.95 8.55 6.65 7.9 7.2 7.2 7.2 6.15 7.6 5.85 7.9 L5.8 7.95 5.25 8.6 Q5.0 9.05 5.05 9.4 5.1 10.2 5.45 11.0 L6.15 12.45 6.9 14.1 7.35 15.6 7.6 16.8 7.7 17.95 7.65 19.0 7.45 20.15 6.75 21.7 5.65 22.7 4.15 23.0 2.3 22.65 Q1.35 22.3 0.5 20.9 -0.4 19.45 -0.05 17.5 L0.5 13.8 0.6 11.45 0.5 10.65 0.25 8.75" ffdec:has-small-stroke="true" ffdec:original-stroke-width="0.5" fill="none" stroke="#ff3f01" stroke-linecap="round" stroke-linejoin="round" stroke-width="1.012858555885262"/>
      <path d="M1.45 12.2 L1.65 14.1 1.6 16.2 Q1.45 17.4 1.65 18.5 1.8 19.6 2.45 20.35 3.05 21.05 3.95 21.15 L5.65 21.05 Q6.5 20.8 7.0 19.7 7.45 18.55 7.15 15.9 7.85 17.45 7.6 18.95 7.3 20.45 6.85 21.2 L6.0 22.4 4.75 22.85 3.25 22.85 2.0 22.35 Q1.3 21.95 0.85 21.2 L0.15 19.55 -0.1 17.45 Q-0.15 16.2 0.2 15.05 L0.6 13.2 0.75 11.85 0.55 9.7 Q1.3 11.15 1.45 12.2" fill="#ff9601" fill-rule="evenodd" stroke="none"/>
      <path d="M6.5 18.05 Q6.5 18.95 6.0 19.6 5.5 20.25 4.8 20.25 4.05 20.25 3.55 19.6 3.05 18.95 3.05 18.05 3.05 17.15 3.55 16.5 4.05 15.85 4.8 15.85 5.5 15.85 6.0 16.5 6.5 17.15 6.5 18.05" fill="#ecff01" fill-rule="evenodd" stroke="none"/>
      <path d="M6.75 4.25 Q6.75 4.95 6.0 5.9 L4.3 7.35 Q3.35 7.9 2.6 7.7 1.9 7.45 2.25 5.95 2.6 4.45 3.15 3.95 3.75 3.4 4.45 3.4 L6.0 3.5 Q6.75 3.55 6.75 4.25" fill="#ff9601" fill-rule="evenodd" stroke="none"/>
      <path d="M5.5 2.55 Q6.2 2.65 6.6 3.35 6.95 4.05 6.45 5.15 6.3 4.65 5.4 4.6 3.7 4.4 2.35 5.75 2.8 3.75 3.25 3.3 3.6 2.8 4.2 2.65 L5.5 2.55" fill="#ff3f01" fill-rule="evenodd" stroke="none"/>
      <path d="M6.5 1.35 L6.05 1.8 4.95 2.05 3.85 1.8 3.4 1.35 Q3.4 1.1 3.85 0.85 L4.95 0.65 6.05 0.85 6.5 1.35" fill="#ecff01" fill-rule="evenodd" stroke="none"/>
      <path d="M2.5 0.6 Q3.0 0.3 3.6 0.15 L6.2 0.1 Q7.45 0.45 8.2 1.2 L9.1 2.4 9.45 3.55 9.4 5.05 Q9.25 5.95 8.55 6.65 7.9 7.2 7.2 7.2 6.15 7.6 5.85 7.9 L5.8 7.95 5.25 8.6 Q5.0 9.05 5.05 9.4 5.1 10.2 5.45 11.0 L6.15 12.45 6.9 14.1 7.35 15.6 7.6 16.8 7.7 17.95 7.65 19.0 7.45 20.15 6.75 21.7 5.65 22.7 4.15 23.0 2.3 22.65 Q1.35 22.3 0.5 20.9 -0.4 19.45 -0.05 17.5 L0.5 13.8 0.6 11.45 0.5 10.65 0.25 8.75" ffdec:has-small-stroke="true" ffdec:original-stroke-width="0.5" fill="none" stroke="#d22300" stroke-linecap="round" stroke-linejoin="round" stroke-width="1.012858555885262"/>
      <path d="M5.1 2.4 Q5.7 2.45 6.35 3.0 L4.7 3.4 Q3.5 3.6 2.5 5.2 2.9 3.35 3.7 2.85 4.5 2.3 5.1 2.4" fill="#001f56" fill-rule="evenodd" stroke="none"/>
    </g>
    <g id="sprite3">
      <use ffdec:characterId="1" height="23.55" transform="matrix(1.0, 0.0, 0.0, 1.0, 0.0, 0.0)" width="10.15" xlink:href="#shape3"/>
    </g>
    <g id="shape3">
      <path d="M2.5 0.6 Q3.0 0.3 3.6 0.15 L6.2 0.1 Q7.45 0.45 8.2 1.2 L9.1 2.4 9.45 3.55 9.4 5.05 Q9.25 5.95 8.55 6.65 7.9 7.2 7.2 7.2 6.15 7.6 5.85 7.9 L5.8 7.95 5.25 8.6 Q5.0 9.05 5.05 9.4 5.1 10.2 5.45 11.0 L6.15 12.45 6.9 14.1 7.35 15.6 7.6 16.8 7.7 17.95 7.65 19.0 7.45 20.15 6.75 21.7 5.65 22.7 4.15 23.0 2.3 22.65 Q1.35 22.3 0.5 20.9 -0.4 19.45 -0.05 17.5 L0.5 13.8 0.6 11.45 0.5 10.65 0.25 8.75 0.2 8.6 0.0 6.7 -0.05 5.2 Q-0.1 4.3 0.2 3.55 0.4 2.65 1.3 1.6 1.8 0.95 2.5 0.6" fill="#ffd501" fill-rule="evenodd" stroke="none"/>
      <path d="M2.5 0.6 Q3.0 0.3 3.6 0.15 L6.2 0.1 Q7.45 0.45 8.2 1.2 L9.1 2.4 9.45 3.55 9.4 5.05 Q9.25 5.95 8.55 6.65 7.9 7.2 7.2 7.2 6.15 7.6 5.85 7.9 L5.8 7.95 5.25 8.6 Q5.0 9.05 5.05 9.4 5.1 10.2 5.45 11.0 L6.15 12.45 6.9 14.1 7.35 15.6 7.6 16.8 7.7 17.95 7.65 19.0 7.45 20.15 6.75 21.7 5.65 22.7 4.15 23.0 2.3 22.65 Q1.35 22.3 0.5 20.9 -0.4 19.45 -0.05 17.5 L0.5 13.8 0.6 11.45 0.5 10.65 0.25 8.75" ffdec:has-small-stroke="true" ffdec:original-stroke-width="0.5" fill="none" stroke="#ff3f01" stroke-linecap="round" stroke-linejoin="round" stroke-width="1.012858555885262"/>
      <path d="M1.45 12.2 L1.65 14.1 1.6 16.2 Q1.45 17.4 1.65 18.5 1.8 19.6 2.45 20.35 3.05 21.05 3.95 21.15 L5.65 21.05 Q6.5 20.8 7.0 19.7 7.45 18.55 7.15 15.9 7.85 17.45 7.6 18.95 7.3 20.45 6.85 21.2 L6.0 22.4 4.75 22.85 3.25 22.85 2.0 22.35 Q1.3 21.95 0.85 21.2 L0.15 19.55 -0.1 17.45 Q-0.15 16.2 0.2 15.05 L0.6 13.2 0.75 11.85 0.55 9.7 Q1.3 11.15 1.45 12.2" fill="#ff9601" fill-rule="evenodd" stroke="none"/>
      <path d="M6.5 18.05 Q6.5 18.95 6.0 19.6 5.5 20.25 4.8 20.25 4.05 20.25 3.55 19.6 3.05 18.95 3.05 18.05 3.05 17.15 3.55 16.5 4.05 15.85 4.8 15.85 5.5 15.85 6.0 16.5 6.5 17.15 6.5 18.05" fill="#ecff01" fill-rule="evenodd" stroke="none"/>
      <path d="M6.75 4.25 Q6.75 4.95 6.0 5.9 L4.3 7.35 Q3.35 7.9 2.6 7.7 1.9 7.45 2.25 5.95 2.6 4.45 3.15 3.95 3.75 3.4 4.45 3.4 L6.0 3.5 Q6.75 3.55 6.75 4.25" fill="#ff9601" fill-rule="evenodd" stroke="none"/>
      <path d="M5.5 2.55 Q6.2 2.65 6.6 3.35 6.95 4.05 6.45 5.15 6.3 4.65 5.4 4.6 3.7 4.4 2.35 5.75 2.8 3.75 3.25 3.3 3.6 2.8 4.2 2.65 L5.5 2.55" fill="#ff3f01" fill-rule="evenodd" stroke="none"/>
      <path d="M6.5 1.35 L6.05 1.8 4.95 2.05 3.85 1.8 3.4 1.35 Q3.4 1.1 3.85 0.85 L4.95 0.65 6.05 0.85 6.5 1.35" fill="#ecff01" fill-rule="evenodd" stroke="none"/>
      <path d="M2.5 0.6 Q3.0 0.3 3.6 0.15 L6.2 0.1 Q7.45 0.45 8.2 1.2 L9.1 2.4 9.45 3.55 9.4 5.05 Q9.25 5.95 8.55 6.65 7.9 7.2 7.2 7.2 6.15 7.6 5.85 7.9 L5.8 7.95 5.25 8.6 Q5.0 9.05 5.05 9.4 5.1 10.2 5.45 11.0 L6.15 12.45 6.9 14.1 7.35 15.6 7.6 16.8 7.7 17.95 7.65 19.0 7.45 20.15 6.75 21.7 5.65 22.7 4.15 23.0 2.3 22.65 Q1.35 22.3 0.5 20.9 -0.4 19.45 -0.05 17.5 L0.5 13.8 0.6 11.45 0.5 10.65 0.25 8.75" ffdec:has-small-stroke="true" ffdec:original-stroke-width="0.5" fill="none" stroke="#d22300" stroke-linecap="round" stroke-linejoin="round" stroke-width="1.012858555885262"/>
      <path d="M5.1 2.4 Q5.7 2.45 6.35 3.0 L4.7 3.4 Q3.5 3.6 2.5 5.2 2.9 3.35 3.7 2.85 4.5 2.3 5.1 2.4" fill="#001f56" fill-rule="evenodd" stroke="none"/>
    </g>
    <g id="sprite4">
      <use ffdec:characterId="7" height="15.55" transform="matrix(1.0, 0.0, 0.0, 1.0, 0.0, 0.0)" width="10.7" xlink:href="#shape4"/>
    </g>
    <g id="shape4">
      <path d="M8.7 0.0 Q9.8 -0.1 10.05 1.35 L10.3 4.65 10.35 7.6 10.0 9.1 8.7 9.45 Q7.65 9.45 7.35 8.65 6.95 7.75 6.95 6.7 6.9 5.6 7.3 4.6 7.65 3.5 7.6 2.75 L7.5 1.0 Q7.5 0.05 8.7 0.0" fill="#ffa101" fill-rule="evenodd" stroke="none"/>
      <path d="M8.7 0.0 Q9.8 -0.1 10.05 1.35 L10.3 4.65 10.35 7.6 10.0 9.1 8.7 9.45 Q7.65 9.45 7.35 8.65 6.95 7.75 6.95 6.7 6.9 5.6 7.3 4.6 7.65 3.5 7.6 2.75 L7.5 1.0 Q7.5 0.05 8.7 0.0 Z" ffdec:has-small-stroke="true" ffdec:original-stroke-width="0.5" fill="none" stroke="#d22300" stroke-linecap="round" stroke-linejoin="round" stroke-width="1.0"/>
      <path d="M9.8 4.35 L9.9 7.5 Q9.85 8.45 8.75 8.45 7.6 8.45 7.65 7.3 L7.85 4.85 8.2 2.6 Q8.45 1.7 8.8 1.7 L9.4 1.9 Q9.65 2.15 9.8 4.35" fill="#ffd501" fill-rule="evenodd" stroke="none"/>
      <path d="M9.5 2.05 L9.3 2.85 8.85 3.2 Q8.55 3.2 8.35 2.85 L8.15 2.05 8.35 1.2 Q8.55 0.85 8.85 0.85 L9.3 1.2 9.5 2.05" fill="#ecff01" fill-rule="evenodd" stroke="none"/>
      <path d="M8.0 10.3 Q8.15 11.95 7.3 12.15 L5.4 12.5 3.1 12.45 0.6 11.7 Q-0.75 11.05 1.0 9.95 2.7 8.85 3.6 7.2 4.4 5.55 5.5 4.9 6.55 4.2 7.1 4.05 7.1 5.85 7.5 7.2 L8.0 10.3" fill="#ffd501" fill-rule="evenodd" stroke="none"/>
      <path d="M6.35 4.85 L6.6 8.0 Q6.85 9.8 4.9 9.55 L2.7 9.15 Q2.4 9.0 3.0 7.55 3.65 6.05 4.45 5.3 5.3 4.55 5.75 4.35 6.25 4.15 6.35 4.85" fill="#ecff01" fill-rule="evenodd" stroke="none"/>
      <path d="M7.15 3.5 L7.5 5.55 7.8 7.55 8.5 11.4 Q8.75 13.4 7.8 14.55 L7.15 15.0 6.05 15.3 5.65 15.2 Q7.3 15.0 7.75 13.85 8.1 12.7 7.9 11.55 L7.3 8.6 Q6.8 6.7 6.8 5.65 6.75 3.9 7.15 3.5" fill="#b91500" fill-rule="evenodd" stroke="none"/>
      <path d="M7.5 4.05 L7.35 5.6 7.35 7.3 7.3 7.35 Q6.75 6.05 6.65 5.0 6.5 3.9 7.0 3.35 7.45 2.75 7.5 4.05" fill="#001f56" fill-rule="evenodd" stroke="none"/>
      <path d="M10.3 6.4 Q10.8 7.4 10.65 9.05 10.6 9.35 10.2 9.3 9.85 9.25 9.85 8.2 9.95 6.85 10.3 6.4" fill="#001f56" fill-rule="evenodd" stroke="none"/>
    </g>
    <g id="sprite5">
      <use ffdec:characterId="7" height="15.55" transform="matrix(1.0, 0.0, 0.0, 1.0, 0.0, 0.0)" width="10.7" xlink:href="#shape5"/>
    </g>
    <g id="shape5">
      <path d="M8.7 0.0 Q9.8 -0.1 10.05 1.35 L10.3 4.65 10.35 7.6 10.0 9.1 8.7 9.45 Q7.65 9.45 7.35 8.65 6.95 7.75 6.95 6.7 6.9 5.6 7.3 4.6 7.65 3.5 7.6 2.75 L7.5 1.0 Q7.5 0.05 8.7 0.0" fill="#ffa101" fill-rule="evenodd" stroke="none"/>
      <path d="M8.7 0.0 Q9.8 -0.1 10.05 1.35 L10.3 4.65 10.35 7.6 10.0 9.1 8.7 9.45 Q7.65 9.45 7.35 8.65 6.95 7.75 6.95 6.7 6.9 5.6 7.3 4.6 7.65 3.5 7.6 2.75 L7.5 1.0 Q7.5 0.05 8.7 0.0 Z" ffdec:has-small-stroke="true" ffdec:original-stroke-width="0.5" fill="none" stroke="#d22300" stroke-linecap="round" stroke-linejoin="round" stroke-width="1.0"/>
      <path d="M9.8 4.35 L9.9 7.5 Q9.85 8.45 8.75 8.45 7.6 8.45 7.65 7.3 L7.85 4.85 8.2 2.6 Q8.45 1.7 8.8 1.7 L9.4 1.9 Q9.65 2.15 9.8 4.35" fill="#ffd501" fill-rule="evenodd" stroke="none"/>
      <path d="M9.5 2.05 L9.3 2.85 8.85 3.2 Q8.55 3.2 8.35 2.85 L8.15 2.05 8.35 1.2 Q8.55 0.85 8.85 0.85 L9.3 1.2 9.5 2.05" fill="#ecff01" fill-rule="evenodd" stroke="none"/>
      <path d="M8.0 10.3 Q8.15 11.95 7.3 12.15 L5.4 12.5 3.1 12.45 0.6 11.7 Q-0.75 11.05 1.0 9.95 2.7 8.85 3.6 7.2 4.4 5.55 5.5 4.9 6.55 4.2 7.1 4.05 7.1 5.85 7.5 7.2 L8.0 10.3" fill="#ffd501" fill-rule="evenodd" stroke="none"/>
      <path d="M6.35 4.85 L6.6 8.0 Q6.85 9.8 4.9 9.55 L2.7 9.15 Q2.4 9.0 3.0 7.55 3.65 6.05 4.45 5.3 5.3 4.55 5.75 4.35 6.25 4.15 6.35 4.85" fill="#ecff01" fill-rule="evenodd" stroke="none"/>
      <path d="M7.15 3.5 L7.5 5.55 7.8 7.55 8.5 11.4 Q8.75 13.4 7.8 14.55 L7.15 15.0 6.05 15.3 5.65 15.2 Q7.3 15.0 7.75 13.85 8.1 12.7 7.9 11.55 L7.3 8.6 Q6.8 6.7 6.8 5.65 6.75 3.9 7.15 3.5" fill="#b91500" fill-rule="evenodd" stroke="none"/>
      <path d="M7.5 4.05 L7.35 5.6 7.35 7.3 7.3 7.35 Q6.75 6.05 6.65 5.0 6.5 3.9 7.0 3.35 7.45 2.75 7.5 4.05" fill="#001f56" fill-rule="evenodd" stroke="none"/>
      <path d="M10.3 6.4 Q10.8 7.4 10.65 9.05 10.6 9.35 10.2 9.3 9.85 9.25 9.85 8.2 9.95 6.85 10.3 6.4" fill="#001f56" fill-rule="evenodd" stroke="none"/>
    </g>
  </defs>
</svg>
