<?xml version="1.0" encoding="UTF-8" standalone="no"?>
<svg xmlns:ffdec="https://www.free-decompiler.com/flash" xmlns:xlink="http://www.w3.org/1999/xlink" ffdec:objectType="frame" height="36.05px" width="25.9px" xmlns="http://www.w3.org/2000/svg">
  <g transform="matrix(1.0, 0.0, 0.0, 1.0, 13.2, 55.3)">
    <use ffdec:characterId="5" height="36.05" transform="matrix(1.0, 0.0, 0.0, 1.0, -18.4, -34.45)" width="25.9" xlink:href="#sprite0"/>
  </g>
  <defs>
    <g id="sprite0">
      <use ffdec:characterId="4" height="36.05" transform="matrix(1.0, 0.0, 0.0, 1.0, 0.0, 0.0)" width="25.9" xlink:href="#shape0"/>
    </g>
    <g id="shape0">
      <path d="M18.3 -0.3 L18.35 -0.3 18.3 -0.15 18.3 -0.3" fill="#000000" fill-rule="evenodd" stroke="none"/>
      <path d="M21.0 13.7 L18.25 14.05 17.2 14.0 19.1 13.65 19.55 13.4 18.45 13.45 Q16.9 13.45 16.35 13.0 15.75 12.5 16.0 12.2 16.25 11.9 15.85 12.0 L15.35 12.05 Q14.55 12.4 14.55 12.85 L15.0 13.5 14.45 13.2 14.25 13.0 14.15 12.75 14.1 12.6 Q14.1 12.25 14.55 11.95 L14.7 11.85 15.25 11.35 15.75 11.25 15.9 11.35 16.0 11.3 16.95 11.25 17.05 11.25 Q18.55 11.3 20.0 11.85 21.45 12.4 21.45 13.05 L21.2 13.65 21.0 13.7" fill="#a00101" fill-rule="evenodd" stroke="none"/>
      <path d="M17.2 14.0 L16.65 14.0 17.4 13.65 16.35 13.35 Q15.45 13.0 15.2 12.45 14.8 12.75 14.8 13.0 14.8 13.3 15.35 13.65 L15.0 13.5 14.55 12.85 Q14.55 12.4 15.35 12.05 L15.85 12.0 Q16.25 11.9 16.0 12.2 15.75 12.5 16.35 13.0 16.9 13.45 18.45 13.45 L19.55 13.4 19.1 13.65 17.2 14.0 M19.1 14.4 L21.45 13.9 22.4 13.35 22.4 13.4 Q22.4 14.0 21.2 14.45 L19.45 14.8 19.45 14.7 Q19.45 14.45 19.1 14.4 M14.65 14.15 Q14.1 13.8 14.1 13.4 L14.15 13.3 14.7 13.65 14.6 13.95 14.65 14.15" fill="#ff0000" fill-rule="evenodd" stroke="none"/>
      <path d="M16.95 11.25 L16.05 11.2 16.0 11.2 Q18.7 10.5 20.4 11.2 L20.55 11.25 21.5 11.3 Q22.45 11.8 22.45 12.55 L22.45 12.8 22.3 13.05 22.2 13.1 21.75 13.5 Q21.6 13.8 21.2 13.8 L21.0 13.7 21.2 13.65 21.45 13.05 Q21.45 12.4 20.0 11.85 18.55 11.3 17.05 11.25 L16.95 11.25" fill="#6d0101" fill-rule="evenodd" stroke="none"/>
      <path d="M16.85 14.9 L16.75 14.9 16.1 14.85 15.35 14.6 14.8 14.15 Q14.8 13.85 15.25 13.85 L15.65 13.95 16.15 14.15 16.45 14.2 17.0 14.35 17.25 14.55 17.1 14.75 16.85 14.9" fill="#fff7f7" fill-rule="evenodd" stroke="none"/>
      <path d="M16.65 14.0 L16.4 14.0 15.35 13.65 Q14.8 13.3 14.8 13.0 14.8 12.75 15.2 12.45 15.45 13.0 16.35 13.35 L17.4 13.65 16.65 14.0 M19.45 14.8 L19.3 14.95 18.25 15.0 17.15 14.95 16.85 14.95 16.85 14.9 17.1 14.75 17.25 14.55 17.0 14.35 16.45 14.2 16.15 14.15 18.85 14.35 19.1 14.4 Q19.45 14.45 19.45 14.7 L19.45 14.8 M16.1 14.85 Q14.8 14.7 14.65 14.15 L14.6 13.95 14.7 13.65 15.1 13.7 15.65 13.95 15.25 13.85 Q14.8 13.85 14.8 14.15 L15.35 14.6 16.1 14.85" fill="#fe8989" fill-rule="evenodd" stroke="none"/>
      <path d="M22.45 12.75 L22.4 12.5 21.9 11.95 21.2 11.6 18.25 11.2 15.35 11.6 14.55 11.95 Q14.1 12.25 14.1 12.6 L14.15 12.75 14.25 13.0 14.45 13.2 15.35 13.65 18.25 14.05 21.2 13.65 22.2 13.1 22.45 12.75 M22.5 11.95 L22.7 12.2 22.7 13.9 22.65 13.85 22.65 13.9 22.6 13.9 Q22.3 14.35 21.45 14.7 L18.3 15.2 15.1 14.7 Q14.2 14.3 13.95 13.85 L13.95 12.1 14.05 11.95 15.1 11.3 Q16.45 10.75 18.3 10.75 20.15 10.75 21.45 11.3 L22.5 11.95 M22.4 13.35 L21.45 13.9 18.3 14.4 15.1 13.9 Q14.45 13.6 14.15 13.3 L14.1 13.4 Q14.1 14.0 15.35 14.45 L18.25 14.85 21.2 14.45 Q22.4 14.0 22.4 13.4 L22.4 13.35" fill="#000000" fill-rule="evenodd" stroke="none"/>
      <path d="M18.3 -1.1 L19.55 -0.75 19.85 -0.5 19.9 -0.5 19.9 12.4 Q19.0 13.2 18.2 13.2 L18.15 13.2 18.05 13.2 Q17.35 13.1 16.7 12.4 L16.7 -0.45 17.05 -0.75 18.3 -1.1 M18.0 0.95 L18.35 1.0 Q19.4 1.0 19.6 0.45 L19.65 0.25 19.7 0.25 19.7 0.1 Q19.7 -0.7 18.3 -0.7 16.9 -0.7 16.9 0.1 16.9 0.45 17.05 0.55 L17.1 0.7 17.95 0.95 18.0 0.95 M18.25 1.2 L18.05 1.05 18.05 1.35 18.15 8.2 18.2 12.7 18.4 12.7 18.65 12.6 18.7 13.1 18.85 8.65 18.9 1.35 18.75 1.0 18.75 1.05 18.65 1.1 18.65 1.15 18.4 1.15 18.25 1.2 M17.55 11.6 L17.6 11.65 Q17.95 11.7 17.85 8.15 L17.7 4.15 Q17.3 7.85 17.35 9.8 17.35 11.95 17.55 11.6" fill="#a00101" fill-rule="evenodd" stroke="none"/>
      <path d="M18.25 1.2 L18.4 1.15 18.65 1.15 18.65 1.1 18.75 1.05 18.75 1.0 18.9 1.35 18.85 8.65 18.7 13.1 18.65 12.6 18.4 12.7 18.2 12.7 18.15 8.2 18.05 1.35 18.05 1.05 18.25 1.2" fill="#6d0101" fill-rule="evenodd" stroke="none"/>
      <path d="M17.05 0.55 Q16.9 0.45 16.9 0.1 16.9 -0.7 18.3 -0.7 19.7 -0.7 19.7 0.1 L19.7 0.25 19.65 0.25 19.6 0.45 Q19.4 1.0 18.35 1.0 L18.0 0.95 Q18.7 0.95 18.7 0.4 18.7 -0.45 17.8 -0.45 17.0 -0.45 17.0 0.15 L17.05 0.55" fill="#fd0202" fill-rule="evenodd" stroke="none"/>
      <path d="M17.05 0.55 L17.0 0.15 Q17.0 -0.45 17.8 -0.45 18.7 -0.45 18.7 0.4 18.7 0.95 18.0 0.95 L17.95 0.95 17.1 0.7 17.05 0.55" fill="#feb4b4" fill-rule="evenodd" stroke="none"/>
      <path d="M17.55 11.6 Q17.35 11.95 17.35 9.8 17.3 7.85 17.7 4.15 L17.85 8.15 Q17.95 11.7 17.6 11.65 L17.55 11.6" fill="#fe8989" fill-rule="evenodd" stroke="none"/>
      <path d="M18.3 -1.1 L19.55 -0.75 19.85 -0.5 19.9 -0.5 19.9 12.4 Q18.15 14.0 16.7 12.4 L16.7 -0.45 17.05 -0.75 18.3 -1.1 M18.3 -0.7 Q16.9 -0.7 16.9 0.1 16.9 0.45 17.05 0.55 L17.2 0.75 18.0 0.95 18.35 1.0 Q19.4 1.0 19.6 0.45 L19.65 0.25 19.7 0.25 19.7 0.1 Q19.7 -0.7 18.3 -0.7 M19.05 3.2 L18.95 2.1 Q18.7 1.2 18.3 1.2 L17.05 0.9 16.9 0.75 16.95 11.95 19.1 12.0 19.05 3.2" fill="#000000" fill-rule="evenodd" stroke="none"/>
      <path d="M18.7 3.1 L18.5 3.25 18.5 3.2 18.65 3.05 18.7 3.1 M20.65 1.3 L24.2 -3.9 26.9 -8.75 Q28.15 -11.3 27.6 -13.95 27.1 -16.4 24.75 -17.4 L24.25 -17.6 23.0 -17.8 22.55 -17.8 21.65 -17.65 20.8 -17.4 19.85 -16.8 19.0 -16.05 18.4 -15.4 18.15 -15.1 17.4 -13.75 Q17.0 -15.3 15.75 -16.55 L14.15 -17.75 12.15 -18.15 12.1 -18.15 11.45 -18.2 10.75 -18.1 10.55 -18.1 Q13.05 -18.8 15.4 -17.55 17.05 -16.65 18.1 -15.15 L18.15 -15.1 18.35 -15.4 18.85 -16.05 Q19.65 -17.1 21.4 -18.3 L21.5 -18.35 23.8 -18.8 24.35 -18.75 Q26.3 -18.6 27.65 -17.6 L27.95 -17.35 28.0 -17.3 29.1 -15.7 29.55 -14.3 29.65 -13.5 29.65 -13.15 Q29.35 -10.15 27.95 -7.65 L25.3 -3.65 24.2 -2.45 24.0 -2.15 20.85 1.1 20.35 1.7 20.65 1.3" fill="#5c0101" fill-rule="evenodd" stroke="none"/>
      <path d="M6.0 -11.85 Q6.25 -10.7 7.2 -8.85 8.55 -6.2 11.55 -3.4 14.55 -0.6 16.3 0.4 L17.7 1.35 19.4 -1.5 Q22.1 -5.85 23.3 -9.25 24.5 -12.7 24.0 -14.65 23.55 -16.5 21.45 -16.3 L21.4 -16.3 20.5 -16.05 19.2 -15.2 18.2 -13.85 Q17.0 -11.75 16.85 -9.3 L16.05 -12.8 15.8 -13.3 15.0 -14.9 14.9 -15.05 13.35 -16.75 Q11.9 -18.0 9.45 -17.7 L10.25 -18.0 10.55 -18.1 10.75 -18.1 11.45 -18.2 12.1 -18.15 12.15 -18.15 14.15 -17.75 15.75 -16.55 Q17.0 -15.3 17.4 -13.75 L18.15 -15.1 18.4 -15.4 19.0 -16.05 19.85 -16.8 20.8 -17.4 21.65 -17.65 22.55 -17.8 23.0 -17.8 24.25 -17.6 24.75 -17.4 Q27.1 -16.4 27.6 -13.95 28.15 -11.3 26.9 -8.75 L24.2 -3.9 20.65 1.3 18.65 3.05 18.5 3.2 18.5 3.25 18.7 3.1 23.2 -0.15 22.7 0.35 21.5 1.4 20.7 1.9 20.1 2.4 19.3 2.95 18.5 3.4 18.05 3.25 17.95 3.0 17.75 2.85 15.35 1.15 16.3 1.65 12.5 -1.6 Q10.5 -3.5 9.45 -4.85 L8.05 -6.85 8.05 -6.8 7.05 -8.5 Q6.2 -10.35 6.0 -11.85 M8.95 -17.5 L9.0 -17.45 8.9 -17.45 8.95 -17.5 M29.65 -13.15 L29.65 -13.5 29.7 -13.3 29.65 -13.15 M24.45 -1.2 L24.4 -1.1 24.25 -1.0 24.45 -1.2 M24.0 -2.15 Q22.75 -0.45 21.05 0.95 L20.85 1.1 24.0 -2.15" fill="#a00101" fill-rule="evenodd" stroke="none"/>
      <path d="M15.05 -18.1 L16.5 -17.35 17.75 -16.25 17.85 -16.15 18.2 -15.6 18.05 -15.95 18.1 -15.9 18.15 -15.95 18.2 -15.75 Q19.1 -17.15 20.7 -18.0 L21.4 -18.3 Q19.65 -17.1 18.85 -16.05 L18.35 -15.4 18.15 -15.1 18.1 -15.15 Q17.05 -16.65 15.4 -17.55 13.05 -18.8 10.55 -18.1 L10.25 -18.0 9.45 -17.7 Q11.9 -18.0 13.35 -16.75 L14.9 -15.05 15.0 -14.9 15.8 -13.3 16.05 -12.8 16.85 -9.3 Q17.0 -11.75 18.2 -13.85 L19.2 -15.2 20.5 -16.05 21.4 -16.3 21.45 -16.3 Q23.55 -16.5 24.0 -14.65 24.5 -12.7 23.3 -9.25 22.1 -5.85 19.4 -1.5 L17.7 1.35 16.3 0.4 Q14.55 -0.6 11.55 -3.4 8.55 -6.2 7.2 -8.85 6.25 -10.7 6.0 -11.85 L5.95 -12.8 5.95 -13.25 6.0 -13.6 5.35 -13.6 5.45 -14.15 5.55 -14.45 5.8 -15.45 6.0 -15.9 Q6.5 -16.75 8.1 -17.65 L8.25 -17.75 8.4 -17.8 Q10.65 -19.1 13.4 -18.6 L13.45 -18.6 15.05 -18.1 M23.2 -0.15 L18.7 3.1 18.65 3.05 20.65 1.3 20.35 1.7 20.85 1.1 21.05 0.95 Q22.75 -0.45 24.0 -2.15 L24.2 -2.45 25.3 -3.65 27.95 -7.65 Q29.35 -10.15 29.65 -13.15 L29.7 -13.3 29.65 -13.5 29.55 -14.3 29.1 -15.7 29.1 -15.75 28.95 -16.0 29.0 -16.0 29.8 -14.2 30.05 -12.25 30.05 -11.95 29.95 -10.7 29.9 -10.7 29.6 -9.05 Q28.95 -6.0 27.1 -3.7 26.0 -2.3 24.5 -1.25 L24.45 -1.2 24.25 -1.0 24.15 -0.95 23.2 -0.15 M11.5 -16.4 Q10.15 -17.5 8.55 -16.9 6.95 -16.3 6.6 -14.6 6.25 -12.95 7.05 -10.95 7.85 -9.0 9.75 -7.95 11.6 -6.95 12.8 -7.45 13.9 -7.85 14.3 -9.6 14.5 -11.35 13.7 -13.3 L13.0 -14.65 12.7 -15.15 11.65 -16.25 11.5 -16.4 M8.95 -17.5 L8.9 -17.45 9.0 -17.45 8.95 -17.5 M17.65 -7.75 Q18.55 -10.1 19.75 -12.05 20.95 -14.05 22.6 -15.3 20.1 -15.65 18.8 -13.05 17.9 -10.85 17.8 -8.55 L17.65 -7.75" fill="#ff0000" fill-rule="evenodd" stroke="none"/>
      <path d="M17.55 -18.15 Q17.1 -18.65 16.6 -18.7 L16.4 -18.9 15.8 -19.4 15.65 -19.15 15.35 -19.4 16.05 -18.55 17.5 -16.7 17.75 -16.35 17.85 -16.2 17.85 -16.15 17.75 -16.25 16.5 -17.35 15.05 -18.1 15.05 -18.15 13.85 -18.7 Q12.85 -19.15 12.85 -19.55 L12.95 -19.95 Q11.7 -20.6 11.35 -20.45 L10.6 -20.2 11.05 -20.5 11.7 -20.65 13.55 -20.4 14.1 -20.2 14.3 -20.15 14.85 -19.85 14.65 -20.0 15.1 -19.9 Q15.95 -19.55 16.65 -19.0 L17.55 -18.15 M9.6 -19.8 L10.1 -20.0 10.15 -20.05 10.2 -20.0 10.3 -20.1 10.2 -19.85 8.15 -18.4 9.15 -19.45 9.3 -19.3 9.9 -19.85 9.6 -19.8 M11.5 -16.4 L11.65 -16.25 12.7 -15.15 13.0 -14.65 13.7 -13.3 Q14.5 -11.35 14.3 -9.6 13.9 -7.85 12.8 -7.45 11.6 -6.95 9.75 -7.95 7.85 -9.0 7.05 -10.95 6.25 -12.95 6.6 -14.6 6.95 -16.3 8.55 -16.9 10.15 -17.5 11.5 -16.4 M9.95 -15.95 Q10.05 -16.3 9.5 -16.3 7.45 -16.3 7.45 -13.55 7.45 -13.0 7.75 -12.3 8.2 -11.25 8.95 -11.25 L9.1 -11.25 9.15 -11.2 9.5 -13.3 9.95 -15.95 M17.65 -7.75 L17.8 -8.55 Q17.9 -10.85 18.8 -13.05 20.1 -15.65 22.6 -15.3 20.95 -14.05 19.75 -12.05 18.55 -10.1 17.65 -7.75 M26.2 -19.55 L26.1 -19.55 26.2 -19.55 M29.1 -15.7 L28.0 -17.3 27.95 -17.35 27.65 -17.6 Q26.3 -18.6 24.35 -18.75 L23.8 -18.8 23.7 -19.35 23.4 -20.0 Q26.2 -20.5 28.85 -18.85 L29.0 -18.25 29.65 -17.9 29.65 -17.15 29.5 -17.05 30.15 -15.15 29.75 -15.7 29.95 -14.6 30.25 -12.85 30.15 -12.15 30.05 -12.25 29.8 -14.2 29.0 -16.0 28.95 -16.0 29.1 -15.75 29.1 -15.7" fill="#fe8989" fill-rule="evenodd" stroke="none"/>
      <path d="M8.05 -6.8 L8.05 -6.85 9.45 -4.85 Q10.5 -3.5 12.5 -1.6 L16.3 1.65 15.35 1.15 12.1 -1.6 11.9 -1.85 11.1 -2.6 10.2 -3.8 10.1 -3.85 Q8.95 -5.05 8.1 -6.6 L8.1 -6.65 8.05 -6.75 8.05 -6.8 M9.95 -15.95 L9.5 -13.3 9.15 -11.2 9.1 -11.25 8.95 -11.25 Q8.2 -11.25 7.75 -12.3 7.45 -13.0 7.45 -13.55 7.45 -16.3 9.5 -16.3 10.05 -16.3 9.95 -15.95" fill="#fff7f7" fill-rule="evenodd" stroke="none"/>
      <path d="M10.6 -20.2 L11.35 -20.45 Q11.7 -20.6 12.95 -19.95 L12.85 -19.55 Q12.85 -19.15 13.85 -18.7 L15.05 -18.15 15.05 -18.1 13.45 -18.6 13.4 -18.6 Q10.65 -19.1 8.4 -17.8 L8.25 -17.75 8.1 -17.65 Q6.5 -16.75 6.0 -15.9 L6.35 -16.4 6.3 -16.4 6.85 -17.15 6.8 -17.15 Q6.6 -17.15 6.6 -17.25 L6.6 -17.35 7.4 -17.9 7.65 -18.2 8.35 -19.3 8.9 -19.5 9.3 -19.65 9.6 -19.8 9.9 -19.85 9.3 -19.3 9.15 -19.45 8.15 -18.4 10.2 -19.85 10.3 -20.1 10.6 -20.2 M17.85 -16.15 L17.85 -16.2 18.2 -15.6 17.85 -16.15 M18.05 -15.95 L18.15 -16.05 18.15 -16.0 18.15 -15.95 18.1 -15.9 18.05 -15.95 M18.2 -15.75 L18.25 -17.3 19.4 -18.2 Q21.15 -19.5 23.4 -20.0 L23.7 -19.35 23.8 -18.8 21.5 -18.35 21.4 -18.3 20.7 -18.0 Q19.1 -17.15 18.2 -15.75 M26.2 -19.55 L26.1 -19.55 26.2 -19.55 M29.5 -17.05 L29.65 -17.15 29.6 -17.0 29.5 -17.05" fill="#ffffff" fill-rule="evenodd" stroke="none"/>
      <path d="M17.85 -16.2 L17.75 -16.35 17.5 -16.7 16.05 -18.55 15.35 -19.4 15.65 -19.15 15.8 -19.4 16.4 -18.9 16.6 -18.7 Q17.1 -18.65 17.55 -18.15 L17.75 -17.95 17.9 -17.75 18.25 -17.3 18.2 -15.75 18.15 -15.95 18.15 -16.0 18.15 -16.05 18.05 -15.95 18.2 -15.6 17.85 -16.2 M14.65 -20.0 L14.85 -19.85 14.3 -20.15 14.65 -20.0" fill="#d03737" fill-rule="evenodd" stroke="none"/>
      <path d="M18.3 -18.05 L20.2 -19.65 Q21.3 -20.4 22.3 -20.6 L24.55 -20.85 Q25.8 -20.95 27.5 -20.05 28.9 -19.35 29.85 -17.95 L30.55 -16.55 30.6 -16.35 31.1 -14.25 Q31.2 -12.65 30.9 -11.05 L30.75 -10.35 Q30.1 -7.85 28.8 -5.8 L28.15 -4.85 26.25 -2.65 Q24.4 -0.55 20.05 2.55 L19.1 3.2 18.65 3.65 18.55 3.6 13.95 0.55 Q11.75 -1.05 9.7 -3.1 7.7 -5.15 6.7 -7.1 5.6 -9.0 5.35 -10.9 L5.25 -11.75 5.25 -13.05 5.25 -13.15 5.3 -13.4 5.25 -13.45 Q5.4 -15.2 6.15 -16.8 7.3 -19.3 10.0 -20.35 12.95 -21.35 15.7 -19.75 L18.3 -18.05 M19.45 -18.25 L18.3 -17.1 Q16.55 -18.6 16.0 -18.9 L15.1 -19.4 Q12.85 -20.4 10.55 -19.75 8.45 -19.05 7.25 -17.25 6.25 -15.7 5.95 -13.6 L6.0 -13.6 5.95 -13.15 6.0 -12.8 Q6.0 -11.75 6.3 -10.5 6.55 -9.3 6.95 -8.75 7.05 -8.3 7.3 -8.05 L7.3 -8.0 7.85 -7.05 Q8.95 -5.05 10.65 -3.2 L14.65 0.65 18.5 3.35 Q20.45 2.0 22.25 0.25 24.15 -1.45 25.95 -3.8 27.2 -5.35 28.1 -7.0 L28.6 -8.1 29.65 -11.15 Q30.15 -12.8 29.95 -14.55 29.75 -16.3 29.35 -16.85 L28.9 -17.55 Q27.3 -19.9 24.3 -19.9 L24.2 -19.9 Q21.5 -19.9 19.45 -18.25" fill="#000000" fill-rule="evenodd" stroke="none"/>
    </g>
  </defs>
</svg>
