<?xml version="1.0" encoding="UTF-8" standalone="no"?>
<svg xmlns:ffdec="https://www.free-decompiler.com/flash" xmlns:xlink="http://www.w3.org/1999/xlink" ffdec:objectType="frame" height="28.9px" width="31.85px" xmlns="http://www.w3.org/2000/svg">
  <g transform="matrix(1.0, 0.0, 0.0, 1.0, 16.35, 50.25)">
    <use ffdec:characterId="2" height="21.85" transform="matrix(1.0, 0.0, 0.0, 1.0, -0.4, -39.35)" width="31.85" xlink:href="#sprite0"/>
    <use ffdec:characterId="4" height="14.9" transform="matrix(1.0, 0.0, 0.0, 1.0, 0.2, -28.75)" width="14.6" xlink:href="#sprite1"/>
  </g>
  <defs>
    <g id="sprite0">
      <use ffdec:characterId="1" height="21.85" transform="matrix(1.0, 0.0, 0.0, 1.0, 0.0, 0.0)" width="31.85" xlink:href="#shape0"/>
    </g>
    <g id="shape0">
      <path d="M-11.25 -5.4 Q-8.35 -8.1 -4.3 -9.6 -0.25 -11.1 3.65 -10.35 7.55 -9.55 10.35 -7.25 14.0 -4.15 15.35 0.45 16.6 5.0 12.2 7.1 10.35 8.05 8.3 8.6 L-0.7 10.05 -9.1 10.7 Q-14.4 10.3 -15.25 7.2 -16.2 4.1 -15.15 0.75 -14.15 -2.7 -11.25 -5.4" fill="#ffa800" fill-rule="evenodd" stroke="none"/>
      <path d="M-11.25 -5.4 Q-8.35 -8.1 -4.3 -9.6 -0.25 -11.1 3.65 -10.35 7.55 -9.55 10.35 -7.25 14.0 -4.15 15.35 0.45 16.6 5.0 12.2 7.1 10.35 8.05 8.3 8.6 L-0.7 10.05 -9.1 10.7 Q-14.4 10.3 -15.25 7.2 -16.2 4.1 -15.15 0.75 -14.15 -2.7 -11.25 -5.4 Z" ffdec:has-small-stroke="true" ffdec:original-stroke-width="0.5" fill="none" stroke="#ac3900" stroke-linecap="round" stroke-linejoin="round" stroke-width="1.0"/>
      <path d="M6.05 -9.15 Q2.75 -8.5 2.0 -7.0 L0.25 -4.45 -0.65 -3.65 Q-2.3 -2.55 -4.05 -2.1 L-7.4 -0.75 Q-8.8 -0.1 -11.0 1.8 -13.3 3.6 -13.9 2.65 -14.6 1.65 -12.9 -1.7 -11.2 -5.15 -8.6 -6.65 -6.1 -8.25 -3.45 -9.15 -0.8 -10.1 1.95 -9.95 4.6 -9.9 6.05 -9.15" fill="#ffe930" fill-rule="evenodd" stroke="none"/>
      <path d="M-9.35 5.75 L-10.25 5.0 Q-7.85 2.8 -4.95 2.0 -1.8 1.1 1.85 0.7 L9.2 1.0 Q12.65 1.7 12.8 3.25 12.9 4.8 10.15 5.85 7.4 6.85 5.85 7.0 L3.7 7.0 -2.35 7.3 Q-6.2 8.05 -9.35 5.75" fill="#ff6b00" fill-rule="evenodd" stroke="none"/>
      <path d="M-6.8 6.0 Q-4.05 6.9 0.7 6.75 L7.85 6.15 10.45 5.75 Q8.1 6.6 3.75 7.65 L-1.85 8.6 -6.05 8.7 -10.3 8.2 Q-12.65 7.65 -12.8 6.4 -12.95 5.15 -7.25 2.85 -9.5 5.05 -6.8 6.0" fill="#b45600" fill-rule="evenodd" stroke="none"/>
      <path d="M-6.15 9.25 Q-4.65 9.25 -5.0 9.75 L-8.15 10.05 -10.85 9.75 Q-12.05 9.45 -12.45 8.75 L-10.2 8.6 -6.15 9.25" fill="#ffd31d" fill-rule="evenodd" stroke="none"/>
      <path d="M2.7 -2.0 Q5.75 -1.65 2.65 -1.1 L-3.5 0.35 -7.95 1.85 -9.65 2.2 Q-10.0 2.0 -8.6 1.15 L-5.15 -0.8 Q-3.1 -1.85 -1.75 -2.05 -0.4 -2.35 2.7 -2.0" fill="#ff8300" fill-rule="evenodd" stroke="none"/>
      <path d="M11.95 -4.7 Q13.7 -2.6 14.9 0.95 13.15 -0.4 11.6 -0.8 L7.05 -1.35 1.55 -0.95 -1.05 -2.1 2.95 -2.5 Q5.15 -2.6 7.45 -3.55 9.7 -4.45 9.2 -5.7 8.8 -7.05 7.8 -8.1 10.0 -7.0 11.95 -4.7" fill="#ff8300" fill-rule="evenodd" stroke="none"/>
      <path d="M14.45 1.9 Q14.85 3.1 14.35 4.25 13.9 5.45 11.7 6.65 L8.3 8.15 Q12.35 5.7 12.8 4.35 13.1 2.95 12.1 2.2 L10.9 1.0 Q10.65 0.6 11.45 0.05 12.25 -0.6 13.15 0.05 14.1 0.65 14.45 1.9" fill="#ffd31d" fill-rule="evenodd" stroke="none"/>
      <path d="M8.85 4.15 L10.35 5.3 7.9 5.4 Q6.65 3.25 4.6 2.15 7.65 3.25 8.85 4.15" fill="#b45600" fill-rule="evenodd" stroke="none"/>
      <path d="M10.5 1.35 Q11.55 2.1 11.65 3.9 9.45 2.2 7.9 1.65 6.65 1.2 3.8 0.9 L10.5 1.35" fill="#b45600" fill-rule="evenodd" stroke="none"/>
      <path d="M6.35 5.7 Q5.0 6.4 4.45 5.15 L3.45 3.15 Q5.15 3.6 6.35 5.7" fill="#b45600" fill-rule="evenodd" stroke="none"/>
      <path d="M-3.7 3.55 Q-5.25 4.75 -5.6 6.55 L-5.75 7.2 -6.65 6.7 -7.1 6.7 -7.35 6.5 -7.5 6.45 -7.6 6.1 -7.5 5.65 Q-6.2 4.3 -4.55 3.75 L-3.7 3.55" fill="#b45600" fill-rule="evenodd" stroke="none"/>
      <path d="M0.1 -10.7 Q2.95 -10.6 5.6 -9.7 8.2 -8.75 10.4 -7.0 12.6 -5.2 14.1 -2.65 15.6 0.0 15.55 2.55 15.5 5.05 12.9 6.65 10.3 8.2 6.95 8.55 10.55 7.4 12.55 5.9 14.6 4.35 14.35 2.05 14.05 -0.25 12.2 -2.75 10.25 -5.3 7.85 -7.0 5.4 -8.8 2.4 -9.3 L-3.35 -9.1 -7.0 -7.65 -10.6 -5.95 Q-6.8 -9.1 -3.25 -10.0 -2.0 -10.65 0.1 -10.7" fill="#fff8d6" fill-rule="evenodd" stroke="none"/>
      <path d="M-9.1 10.7 Q-14.4 10.3 -15.25 7.2 -16.2 4.1 -15.15 0.75 -14.15 -2.7 -11.25 -5.4 -8.35 -8.15 -4.3 -9.65 -0.25 -11.15 3.65 -10.4 7.55 -9.6 10.35 -7.25 14.0 -4.15 15.35 0.45 16.6 5.0 12.2 7.1 10.35 8.05 8.3 8.6 L-0.7 10.05 -9.1 10.7 Z" ffdec:has-small-stroke="true" ffdec:original-stroke-width="0.5" fill="none" stroke="#7b1e00" stroke-linecap="round" stroke-linejoin="round" stroke-width="1.0"/>
    </g>
    <g id="sprite1">
      <use ffdec:characterId="3" height="14.9" transform="matrix(1.0, 0.0, 0.0, 1.0, 0.0, 0.0)" width="14.6" xlink:href="#shape1"/>
    </g>
    <g id="shape1">
      <path d="M-4.8 -7.25 Q2.1 -7.15 4.25 -4.65 6.35 -2.2 6.85 0.45 7.3 3.0 6.65 4.15 5.95 5.3 4.5 6.2 3.05 7.05 -0.55 7.15 -4.15 7.2 -5.85 5.6 L-6.85 4.25 Q-7.5 2.05 -6.0 0.55 -4.55 -0.9 -3.9 -2.05 -3.25 -3.25 -3.1 -4.65 -3.05 -6.05 -4.8 -7.25" fill="#ff6b00" fill-rule="evenodd" stroke="none"/>
      <path d="M-4.8 -7.25 Q-3.05 -6.05 -3.1 -4.65 -3.25 -3.25 -3.9 -2.05 -4.55 -0.9 -6.0 0.55 -7.5 2.05 -6.85 4.25 L-5.85 5.6 Q-4.15 7.2 -0.55 7.15 3.05 7.05 4.5 6.2 5.95 5.3 6.65 4.15 7.3 3.0 6.85 0.45 6.35 -2.2 4.25 -4.65" ffdec:has-small-stroke="true" ffdec:original-stroke-width="0.5" fill="none" stroke="#ac3900" stroke-linecap="round" stroke-linejoin="round" stroke-width="1.0"/>
      <path d="M6.2 1.3 Q6.5 3.75 4.25 4.35 L-1.25 4.9 Q-4.45 4.8 -5.75 3.6 -7.0 2.4 -5.9 1.2 -4.9 -0.1 -3.4 -0.95 -1.95 -1.85 -1.85 -4.65 2.55 -4.1 4.3 -2.15 6.0 -0.2 6.2 1.3" fill="#ffa800" fill-rule="evenodd" stroke="none"/>
      <path d="M-2.25 -2.5 L-1.85 -4.1 Q1.8 -4.4 3.9 -2.2 5.9 0.1 2.8 -0.35 L-3.7 -0.1 Q-2.85 -1.1 -2.25 -2.5" fill="#ffe215" fill-rule="evenodd" stroke="none"/>
      <path d="M4.4 -4.25 Q6.4 -2.05 7.0 1.3 7.65 4.65 3.8 6.45 1.95 7.3 -0.2 7.25 1.25 7.15 3.15 5.95 5.55 4.35 5.8 2.25 6.0 0.15 5.45 -1.55 L4.4 -4.25" fill="#ffef99" fill-rule="evenodd" stroke="none"/>
      <path d="M4.25 -4.65 Q6.35 -2.2 6.85 0.45 7.3 3.0 6.65 4.15 5.95 5.3 4.5 6.2 3.05 7.05 -0.55 7.15 -4.15 7.2 -5.85 5.6 L-6.85 4.25 Q-7.5 2.05 -6.0 0.55 -4.55 -0.9 -3.9 -2.05 -3.25 -3.25 -3.1 -4.65 -3.05 -6.05 -4.8 -7.25" ffdec:has-small-stroke="true" ffdec:original-stroke-width="0.5" fill="none" stroke="#642100" stroke-linecap="round" stroke-linejoin="round" stroke-width="1.0"/>
    </g>
  </defs>
</svg>
