<?xml version="1.0" encoding="UTF-8" standalone="no"?>
<svg xmlns:ffdec="https://www.free-decompiler.com/flash" xmlns:xlink="http://www.w3.org/1999/xlink" ffdec:objectType="frame" height="43.25px" width="49.85px" xmlns="http://www.w3.org/2000/svg">
  <g transform="matrix(1.0, 0.0, 0.0, 1.0, 25.9, 73.65)">
    <use ffdec:characterId="5" height="43.25" transform="matrix(1.0, 0.0, 0.0, 1.0, -11.7, -65.4)" width="49.85" xlink:href="#sprite0"/>
  </g>
  <defs>
    <g id="sprite0">
      <use ffdec:characterId="2" height="22.7" transform="matrix(-0.8278, 0.0, 0.0, 0.8278, 0.35, 1.15)" width="35.15" xlink:href="#sprite1"/>
      <use ffdec:characterId="2" height="22.7" transform="matrix(1.0, 0.0, 0.0, 1.0, 18.05, 9.5)" width="35.15" xlink:href="#sprite1"/>
    </g>
    <g id="sprite1">
      <use ffdec:characterId="1" height="22.7" transform="matrix(1.0, 0.0, 0.0, 1.0, 0.0, 0.0)" width="35.15" xlink:href="#shape0"/>
    </g>
    <g id="shape0">
      <path d="M10.2 -2.85 L10.2 -2.65 Q12.85 -2.6 14.65 -0.75 16.6 1.2 16.6 3.85 16.6 6.55 14.65 8.45 12.8 10.35 10.1 10.35 L9.25 10.3 -8.35 10.3 -8.35 10.2 Q-11.65 9.95 -14.0 7.6 -16.55 5.0 -16.55 1.35 -16.55 -2.3 -14.0 -4.95 -11.4 -7.5 -7.7 -7.5 -5.55 -7.5 -3.75 -6.6 L-2.6 -8.2 Q-0.4 -10.35 2.75 -10.35 5.8 -10.35 8.0 -8.2 10.2 -5.95 10.2 -2.85 Z" fill="none" stroke="#000000" stroke-linecap="round" stroke-linejoin="round" stroke-width="2.0"/>
      <path d="M10.2 -2.85 Q10.2 -1.35 9.7 -0.1 L9.45 0.45 9.95 0.45 9.95 10.3 -8.35 10.3 -8.35 0.45 -4.0 0.45 Q-4.75 -1.05 -4.75 -2.85 -4.75 -5.95 -2.6 -8.2 -0.4 -10.35 2.75 -10.35 5.8 -10.35 8.0 -8.2 10.2 -5.95 10.2 -2.85" fill="url(#gradient0)" fill-rule="evenodd" stroke="none"/>
      <path d="M1.15 1.35 Q1.15 5.0 -1.5 7.6 -4.05 10.2 -7.7 10.2 -11.4 10.2 -14.0 7.6 -16.55 5.0 -16.55 1.35 -16.55 -2.3 -14.0 -4.95 -11.4 -7.5 -7.7 -7.5 -4.05 -7.5 -1.5 -4.95 1.15 -2.3 1.15 1.35" fill="url(#gradient1)" fill-rule="evenodd" stroke="none"/>
      <path d="M16.6 3.85 Q16.6 6.55 14.65 8.45 12.8 10.35 10.1 10.35 7.4 10.35 5.5 8.45 3.6 6.55 3.6 3.85 3.6 1.2 5.5 -0.75 7.4 -2.65 10.1 -2.65 L10.25 -2.65 12.5 -2.2 14.65 -0.75 Q16.6 1.2 16.6 3.85" fill="url(#gradient2)" fill-rule="evenodd" stroke="none"/>
    </g>
    <linearGradient gradientTransform="matrix(0.0, 0.0113, -0.0126, 0.0, 0.7, 1.5)" gradientUnits="userSpaceOnUse" id="gradient0" spreadMethod="pad" x1="-819.2" x2="819.2">
      <stop offset="0.0" stop-color="#a29da8"/>
      <stop offset="1.0" stop-color="#534a65"/>
    </linearGradient>
    <linearGradient gradientTransform="matrix(0.0, 0.0113, -0.0126, 0.0, 0.7, 5.0)" gradientUnits="userSpaceOnUse" id="gradient1" spreadMethod="pad" x1="-819.2" x2="819.2">
      <stop offset="0.0" stop-color="#a29da8"/>
      <stop offset="1.0" stop-color="#534a65"/>
    </linearGradient>
    <linearGradient gradientTransform="matrix(0.0, 0.0113, -0.0126, 0.0, 0.7, 5.0)" gradientUnits="userSpaceOnUse" id="gradient2" spreadMethod="pad" x1="-819.2" x2="819.2">
      <stop offset="0.0" stop-color="#a29da8"/>
      <stop offset="1.0" stop-color="#534a65"/>
    </linearGradient>
  </defs>
</svg>
