<?xml version="1.0" encoding="UTF-8" standalone="no"?>
<svg xmlns:ffdec="https://www.free-decompiler.com/flash" xmlns:xlink="http://www.w3.org/1999/xlink" ffdec:objectType="frame" height="57.85px" width="53.55px" xmlns="http://www.w3.org/2000/svg">
  <g transform="matrix(1.0, 0.0, 0.0, 1.0, 33.35, 71.85)">
    <use ffdec:characterId="34" height="57.85" transform="matrix(1.0, 0.0, 0.0, 1.0, -1.5, 15.2)" width="53.55" xlink:href="#sprite0"/>
  </g>
  <defs>
    <g id="sprite0">
      <use ffdec:characterId="33" height="57.85" transform="matrix(1.0, 0.0, 0.0, 1.0, -19.5, -76.7)" width="51.55" xlink:href="#sprite1"/>
      <use ffdec:characterId="31" height="50.05" transform="matrix(1.0, 0.0, 0.0, 1.0, -19.55, -79.2)" width="41.3" xlink:href="#sprite6"/>
      <use ffdec:characterId="6" height="1.9" transform="matrix(1.0, 0.0, 0.0, 1.0, -13.0, -47.55)" width="1.9" xlink:href="#sprite5"/>
    </g>
    <g id="sprite1">
      <use ffdec:characterId="32" height="57.85" transform="matrix(1.0, 0.0, 0.0, 1.0, -4.5, -5.9)" width="51.55" xlink:href="#sprite2"/>
    </g>
    <g id="sprite2">
      <use ffdec:characterId="31" height="50.05" transform="matrix(1.0, 0.0, 0.0, 1.0, 4.45, 3.4)" width="41.3" xlink:href="#sprite3"/>
      <use ffdec:characterId="6" height="1.9" transform="matrix(1.0, 0.0, 0.0, 1.0, 13.0, 32.45)" width="1.9" xlink:href="#sprite5"/>
    </g>
    <g id="sprite3">
      <use ffdec:characterId="2" height="15.55" transform="matrix(0.9, 0.0, 0.0, 0.9, 8.75, 35.5)" width="31.6" xlink:href="#sprite4"/>
      <use ffdec:characterId="30" height="50.05" transform="matrix(1.0, 0.0, 0.0, 1.0, 0.0, 0.0)" width="41.3" xlink:href="#shape1"/>
    </g>
    <g id="sprite4">
      <use ffdec:characterId="1" height="15.55" transform="matrix(1.0, 0.0, 0.0, 1.0, 0.0, 0.0)" width="31.6" xlink:href="#shape0"/>
    </g>
    <g id="shape0">
      <path d="M29.5 6.75 Q29.5 9.95 24.85 12.2 20.2 14.5 13.7 14.5 7.15 14.5 2.5 12.2 -2.1 9.95 -2.1 6.75 -2.1 3.5 2.5 1.25 7.15 -1.05 13.7 -1.05 20.2 -1.05 24.85 1.25 29.5 3.5 29.5 6.75" fill="#000000" fill-opacity="0.29803923" fill-rule="evenodd" stroke="none"/>
    </g>
    <g id="shape1">
      <path d="M32.9 9.1 Q31.2 10.95 29.6 9.1 28.6 5.85 26.45 4.25 25.9 3.9 25.8 3.25 25.7 2.6 26.05 2.05 26.4 1.5 27.1 1.45 L28.25 1.65 Q31.65 3.9 32.9 9.1" fill="#5a402a" fill-rule="evenodd" stroke="none"/>
      <path d="M29.6 9.1 Q31.2 10.95 32.9 9.1 L33.35 11.7 Q33.45 12.3 33.0 12.85 L31.95 13.45 Q31.3 13.5 30.8 13.15 30.3 12.7 30.25 12.05 L29.6 9.1" fill="#402b19" fill-rule="evenodd" stroke="none"/>
      <path d="M41.2 27.5 L40.95 30.45 40.0 33.6 39.8 33.95 39.75 34.05 Q38.85 35.95 37.0 37.65 L37.1 37.85 37.45 38.85 37.4 40.95 37.4 41.05 37.35 41.1 37.4 41.25 Q37.15 41.05 35.75 40.8 34.7 40.65 34.15 41.1 34.35 42.05 37.55 42.4 L37.55 42.6 37.5 42.85 Q37.3 43.2 36.85 43.2 L36.15 43.2 Q33.35 43.05 31.5 41.15 L28.4 42.25 Q27.45 43.3 26.0 43.8 L25.85 44.05 25.8 44.2 22.45 48.7 22.15 49.0 21.85 49.2 21.3 49.65 20.5 49.95 20.2 49.9 Q19.75 49.8 19.35 49.4 L18.7 48.7 18.6 48.55 17.65 46.8 17.5 46.45 17.25 45.55 Q13.05 46.2 9.3 44.2 L8.0 43.35 6.45 42.0 6.4 41.95 Q7.6 43.9 6.95 44.85 L6.4 45.35 6.1 45.1 5.65 44.65 Q4.65 43.4 4.3 41.1 L4.2 39.4 4.2 39.25 5.6 40.2 5.95 40.35 6.4 40.6 Q8.0 41.5 9.7 41.6 L10.35 41.6 10.5 41.6 10.8 41.6 13.05 41.15 13.25 41.05 13.5 40.95 14.1 40.6 14.1 40.55 15.1 39.65 16.65 37.3 16.95 36.5 17.1 36.05 17.25 35.35 Q24.95 40.65 34.8 35.5 39.15 33.2 41.2 27.5 M4.9 16.55 Q4.8 15.45 5.55 14.5 L5.6 14.0 Q10.1 11.3 11.3 9.85 12.3 10.65 12.9 11.65 10.75 12.3 8.85 13.35 6.55 14.5 4.9 16.55 M26.65 14.55 L27.35 16.5 27.95 19.6 28.0 20.0 28.0 20.15 27.95 21.8 27.95 21.85 26.0 21.8 Q26.75 19.2 26.5 16.65 26.3 14.9 25.65 13.15 L26.65 14.55 M17.3 45.55 L17.6 45.55 18.65 45.4 17.3 45.55 17.25 45.55 17.3 45.55 M19.5 45.9 Q19.65 47.8 21.2 48.25 23.3 47.55 24.75 44.4 L19.5 45.9" fill="#ffacb1" fill-rule="evenodd" stroke="none"/>
      <path d="M12.9 11.65 Q16.1 10.55 19.95 10.35 25.7 10.0 30.35 11.65 30.9 11.8 31.45 12.1 L32.05 12.3 32.35 12.5 32.4 12.5 Q34.5 13.65 36.3 15.45 38.55 17.7 39.75 20.35 L40.4 22.0 41.0 24.35 41.2 27.3 41.2 27.5 Q39.15 33.2 34.8 35.5 24.95 40.65 17.25 35.35 L17.25 35.3 Q17.7 33.65 17.65 31.65 L17.6 30.9 Q17.1 26.2 14.0 22.85 L13.0 21.9 Q9.6 19.2 6.2 20.25 2.95 21.0 1.35 24.4 2.4 19.5 4.9 16.55 6.55 14.5 8.85 13.35 10.75 12.3 12.9 11.65 M37.4 41.25 L37.4 41.35 37.55 42.05 37.55 42.4 Q34.35 42.05 34.15 41.1 34.7 40.65 35.75 40.8 37.15 41.05 37.4 41.25 M5.6 14.0 L5.65 13.05 Q5.95 9.8 6.9 9.0 8.1 7.95 9.6 8.75 L9.7 8.8 11.3 9.85 Q10.1 11.3 5.6 14.0 M26.65 14.55 L25.5 12.8 24.65 11.95 24.1 11.6 22.55 11.45 Q22.05 11.65 21.5 12.0 20.3 12.85 19.95 14.15 20.3 12.85 21.5 12.0 22.05 11.65 22.55 11.45 L24.1 11.6 24.65 11.95 25.5 12.8 26.65 14.55 25.65 13.15 Q26.3 14.9 26.5 16.65 26.75 19.2 26.0 21.8 L27.95 21.85 27.95 21.8 28.0 20.15 28.0 20.0 27.95 19.6 27.35 16.5 26.65 14.55 M21.05 17.0 Q22.5 16.05 22.65 14.95 L22.65 14.05 22.65 14.95 Q22.5 16.05 21.05 17.0 M19.5 45.9 L24.75 44.4 Q23.3 47.55 21.2 48.25 19.65 47.8 19.5 45.9" fill="#ffc7ca" fill-rule="evenodd" stroke="none"/>
      <path d="M0.9 25.4 L1.35 24.4 Q2.95 21.0 6.2 20.25 9.6 19.2 13.0 21.9 L14.0 22.85 Q17.1 26.2 17.6 30.9 L17.65 31.65 Q17.7 33.65 17.25 35.3 L17.25 35.35 17.1 36.05 16.95 36.5 16.65 37.3 15.1 39.65 14.1 40.55 14.1 40.6 13.5 40.95 13.25 41.05 13.05 41.15 10.8 41.6 10.5 41.6 10.35 41.6 9.7 41.6 Q8.0 41.5 6.4 40.6 L8.9 41.05 10.4 40.8 11.05 40.6 11.3 40.55 12.05 40.1 12.2 40.0 12.4 39.85 Q13.75 38.8 14.6 36.95 L14.85 36.3 14.9 36.25 14.95 36.1 15.0 36.0 15.2 35.3 Q15.95 32.5 15.15 29.35 L15.1 29.25 Q14.1 25.4 11.4 23.2 8.35 20.8 5.25 21.7 2.7 22.35 0.9 25.4" fill="#eda0a5" fill-rule="evenodd" stroke="none"/>
      <path d="M12.3 30.05 Q12.7 31.45 12.7 32.75 12.7 35.7 10.9 37.7 L9.7 38.35 9.25 38.45 Q7.75 38.55 6.25 37.25 L6.25 37.2 5.55 36.55 Q4.0 34.95 3.3 32.5 2.45 29.4 3.35 26.8 L3.4 26.75 Q4.2 24.8 6.0 24.25 7.65 23.85 9.3 25.2 11.45 27.05 12.3 30.05" fill="#72191e" fill-rule="evenodd" stroke="none"/>
      <path d="M9.3 44.2 L8.8 45.15 Q7.8 46.35 6.4 45.35 L6.95 44.85 Q7.6 43.9 6.4 41.95 L6.45 42.0 8.0 43.35 9.3 44.2 M18.65 45.4 L17.6 45.55 17.3 45.55 18.65 45.4" fill="#e2858b" fill-rule="evenodd" stroke="none"/>
      <path d="M12.9 11.65 Q16.1 10.55 19.95 10.35 25.7 10.0 30.35 11.65 30.9 11.8 31.45 12.1 L32.05 12.3 32.35 12.5 32.4 12.5 Q34.5 13.65 36.3 15.45 38.55 17.7 39.75 20.35 L40.4 22.0 41.0 24.35 41.2 27.3 41.2 27.5 40.95 30.45 40.0 33.6 39.8 33.95 39.75 34.05 Q38.85 35.95 37.0 37.65 L37.1 37.85 37.45 38.85 37.4 40.95 37.4 41.05 37.35 41.1 37.4 41.25 37.4 41.35 37.55 42.05 37.55 42.4 37.55 42.6 M6.4 45.35 L6.1 45.1 5.65 44.65 Q4.65 43.4 4.3 41.1 L4.2 39.4 4.2 39.25 4.15 39.15 2.9 37.95 2.2 37.0 1.8 36.4 Q0.95 35.0 0.45 33.2 -0.3 30.45 0.15 28.0 0.25 26.85 0.9 25.4 L1.35 24.4 Q2.4 19.5 4.9 16.55 6.55 14.5 8.85 13.35 10.75 12.3 12.9 11.65 M19.95 14.15 Q20.3 12.85 21.5 12.0 22.05 11.65 22.55 11.45 L24.1 11.6 24.65 11.95 25.5 12.8 26.65 14.55 27.35 16.5 27.95 19.6 28.0 20.0 28.0 20.15 27.95 21.8 M6.4 40.6 L5.95 40.35 5.6 40.2 4.2 39.25 M9.3 44.2 L8.0 43.35 6.45 42.0 6.4 41.95" ffdec:has-small-stroke="true" ffdec:original-stroke-width="0.1" fill="none" stroke="#d28085" stroke-linecap="round" stroke-linejoin="round" stroke-width="1.0"/>
      <path d="M22.65 14.05 L22.65 14.95 Q22.5 16.05 21.05 17.0" fill="none" stroke="#d28085" stroke-linecap="round" stroke-linejoin="round" stroke-width="1.5"/>
      <path d="M4.9 16.55 Q4.8 15.45 5.55 14.5 L5.6 14.0 5.65 13.05 Q5.95 9.8 6.9 9.0 8.1 7.95 9.6 8.75 L9.7 8.8 11.3 9.85 Q12.3 10.65 12.9 11.65" ffdec:has-small-stroke="true" ffdec:original-stroke-width="0.1" fill="none" stroke="#bc5b61" stroke-linecap="round" stroke-linejoin="round" stroke-width="1.0"/>
      <path d="M37.55 42.6 L37.5 42.85 Q37.3 43.2 36.85 43.2 L36.15 43.2 Q33.35 43.05 31.5 41.15 L28.4 42.25 Q27.45 43.3 26.0 43.8 L25.85 44.05 25.8 44.2 22.45 48.7 22.15 49.0 21.85 49.2 21.3 49.65 20.5 49.95 20.2 49.9 Q19.75 49.8 19.35 49.4 L18.7 48.7 18.6 48.55 17.65 46.8 17.5 46.45 17.25 45.55 Q13.05 46.2 9.3 44.2 L8.8 45.15 Q7.8 46.35 6.4 45.35" ffdec:has-small-stroke="true" ffdec:original-stroke-width="0.1" fill="none" stroke="#a55358" stroke-linecap="round" stroke-linejoin="round" stroke-width="1.0"/>
      <path d="M18.65 45.4 L17.6 45.55 17.3 45.55 17.25 45.55" ffdec:has-small-stroke="true" ffdec:original-stroke-width="0.1" fill="none" stroke="#bb656a" stroke-linecap="round" stroke-linejoin="round" stroke-width="1.0"/>
      <path d="M5.1 33.85 Q3.85 31.85 5.5 30.15 5.5 31.2 6.85 31.4 6.2 32.1 6.65 32.95 7.25 33.85 8.7 34.55 L10.5 35.15 12.15 35.5 11.3 37.05 10.05 36.9 Q8.3 36.45 7.2 35.8 5.65 34.95 5.1 33.85 M12.3 34.45 Q10.85 34.05 10.0 33.5 L8.95 32.45 8.9 32.35 Q7.95 30.65 9.9 29.25 L9.9 29.2 Q10.6 28.6 11.65 28.3 L12.25 30.0 Q11.5 30.25 11.0 30.65 L10.95 30.65 Q10.4 31.1 10.5 31.55 L11.5 32.25 12.7 32.7 12.45 34.5 12.3 34.45" fill="#578937" fill-rule="evenodd" stroke="none"/>
      <path d="M7.1 31.1 L6.5 31.25 5.9 31.0 Q5.6 30.7 5.6 30.35 5.6 30.0 5.9 29.75 L5.95 29.7 6.2 29.4 6.25 29.35 6.4 29.3 6.45 29.25 7.0 28.9 7.75 28.85 8.25 29.3 8.25 30.0 7.8 30.5 7.65 30.6 7.3 30.9 7.2 30.95 7.15 31.0 7.1 31.05 7.1 31.1" fill="#ff0045" fill-rule="evenodd" stroke="none"/>
      <path d="M12.3 30.05 Q11.45 27.05 9.3 25.2 7.65 23.85 6.0 24.25 4.2 24.8 3.4 26.75 L3.35 26.8 Q2.45 29.4 3.3 32.5 4.15 35.5 6.25 37.2 L6.25 37.25 Q7.95 38.75 9.7 38.35 L10.9 37.7 Q12.7 35.7 12.7 32.75 12.7 31.45 12.3 30.05 M14.85 36.3 Q13.5 40.0 10.4 40.8 L6.4 40.6 Q5.25 40.1 4.2 39.25 L4.15 39.15 Q1.5 37.0 0.45 33.2 -0.3 30.45 0.15 28.0 0.25 26.85 0.9 25.4 2.7 22.35 5.25 21.7 8.35 20.8 11.4 23.2 14.1 25.4 15.1 29.25 16.15 33.05 14.9 36.25 L14.85 36.3" fill="#ffe0e2" fill-rule="evenodd" stroke="none"/>
      <path d="M19.85 19.6 L19.45 20.45 Q19.1 20.8 18.6 20.8 18.1 20.8 17.75 20.45 17.4 20.05 17.4 19.6 17.4 19.1 17.75 18.7 18.1 18.35 18.6 18.35 19.1 18.35 19.45 18.7 19.85 19.1 19.85 19.6 M7.85 17.15 L7.35 17.8 6.75 17.7 Q6.4 17.35 6.4 16.9 6.4 16.5 6.75 16.2 7.05 15.9 7.45 15.9 L7.85 16.0 8.05 16.05 Q8.45 16.45 7.9 17.0 L7.85 17.05 7.85 17.15" fill="#a55358" fill-rule="evenodd" stroke="none"/>
      <path d="M39.95 26.7 Q40.1 27.5 39.65 28.25 L38.55 29.3 37.25 29.25 Q36.65 28.9 36.5 28.1 36.4 27.3 36.85 26.5 37.3 25.75 38.0 25.45 L39.25 25.5 Q39.85 25.9 39.95 26.7" fill="#ffffff" fill-rule="evenodd" stroke="none"/>
      <path d="M35.5 14.85 Q36.7 13.7 37.55 13.35 38.4 13.15 38.55 14.3 38.85 15.45 37.95 17.4 L35.5 14.85" fill="#ffc7ca" fill-rule="evenodd" stroke="none"/>
      <path d="M37.95 17.4 Q38.85 15.45 38.55 14.3 38.4 13.15 37.55 13.35 36.7 13.7 35.5 14.85" ffdec:has-small-stroke="true" ffdec:original-stroke-width="0.1" fill="none" stroke="#aa6065" stroke-linecap="round" stroke-linejoin="round" stroke-width="1.0"/>
      <path d="M38.25 22.3 L38.2 23.35 37.45 24.0 36.4 23.95 Q35.9 23.7 35.75 23.2 34.65 20.05 32.95 19.05 32.45 18.75 32.3 18.25 32.1 17.7 32.4 17.25 32.7 16.7 33.25 16.55 L34.25 16.7 Q36.7 17.95 38.25 22.3" fill="#ffffff" fill-rule="evenodd" stroke="none"/>
      <path d="M18.95 13.85 Q18.95 14.65 17.8 15.2 16.7 15.8 15.15 15.8 13.55 15.8 12.45 15.2 11.35 14.65 11.35 13.85 11.35 13.05 12.45 12.45 13.55 11.9 15.15 11.9 16.7 11.9 17.8 12.45 18.95 13.05 18.95 13.85" fill="#eda0a5" fill-rule="evenodd" stroke="none"/>
      <path d="M28.8 3.95 L28.45 4.65 27.45 5.5 20.6 5.5 20.8 5.45 21.7 4.65 22.05 3.95 28.8 3.95" fill="#ca9c73" fill-rule="evenodd" stroke="none"/>
      <path d="M20.6 0.0 L27.45 0.0 27.45 0.05 Q28.05 0.1 28.45 0.8 28.95 1.6 28.95 2.75 L28.8 3.95 22.05 3.95 22.2 2.75 Q22.2 1.6 21.7 0.8 21.3 0.15 20.8 0.05 L20.6 0.0" fill="#d9af8b" fill-rule="evenodd" stroke="none"/>
      <path d="M20.6 5.5 L20.5 5.5 20.45 5.5 Q19.75 5.5 19.2 4.65 L18.9 3.95 18.7 2.75 Q18.7 1.6 19.2 0.8 19.75 0.0 20.45 0.0 L20.5 0.0 20.6 0.0 20.8 0.05 Q21.3 0.15 21.7 0.8 22.2 1.6 22.2 2.75 L22.05 3.95 21.7 4.65 20.8 5.45 20.6 5.5" fill="#fffcfa" fill-rule="evenodd" stroke="none"/>
      <path d="M28.8 3.95 L28.45 4.65 27.45 5.5 20.6 5.5" ffdec:has-small-stroke="true" ffdec:original-stroke-width="0.1" fill="none" stroke="#8b6749" stroke-linecap="round" stroke-linejoin="round" stroke-width="1.0"/>
      <path d="M20.6 0.0 L27.45 0.0 M27.45 0.05 Q28.05 0.1 28.45 0.8 28.95 1.6 28.95 2.75 L28.8 3.95" ffdec:has-small-stroke="true" ffdec:original-stroke-width="0.1" fill="none" stroke="#a57751" stroke-linecap="round" stroke-linejoin="round" stroke-width="1.0"/>
      <path d="M20.6 5.5 L20.5 5.5 20.45 5.5 M20.45 0.0 L20.5 0.0 20.6 0.0 M27.45 0.0 L27.45 0.05" ffdec:has-small-stroke="true" ffdec:original-stroke-width="0.1" fill="none" stroke="#90643f" stroke-linecap="round" stroke-linejoin="round" stroke-width="1.0"/>
      <path d="M20.45 5.5 Q19.75 5.5 19.2 4.65 L18.9 3.95 18.7 2.75 Q18.7 1.6 19.2 0.8 19.75 0.0 20.45 0.0" ffdec:has-small-stroke="true" ffdec:original-stroke-width="0.1" fill="none" stroke="#9a7c63" stroke-linecap="round" stroke-linejoin="round" stroke-width="1.0"/>
      <path d="M15.05 12.85 Q15.65 5.65 19.55 2.95" fill="none" stroke="#72553d" stroke-linecap="round" stroke-linejoin="round" stroke-width="3.5"/>
      <path d="M19.1 2.55 Q19.35 2.85 19.15 3.5 L18.4 4.65 17.3 5.45 16.4 5.3 Q16.15 4.95 16.35 4.35 L17.15 3.15 18.25 2.35 Q18.85 2.2 19.1 2.55" fill="#a17755" fill-rule="evenodd" stroke="none"/>
    </g>
    <g id="sprite5">
      <use ffdec:characterId="5" height="3.8" transform="matrix(0.4872, 0.0, 0.0, 0.5, -0.15, -0.2)" width="3.9" xlink:href="#shape2"/>
    </g>
    <g id="shape2">
      <path d="M4.25 2.2 Q4.25 3.0 3.7 3.55 3.1 4.1 2.3 4.1 1.5 4.1 0.95 3.55 0.35 3.0 0.35 2.2 0.35 1.4 0.95 0.85 1.5 0.3 2.3 0.3 3.1 0.3 3.7 0.85 4.25 1.4 4.25 2.2" fill="#ffffff" fill-rule="evenodd" stroke="none"/>
    </g>
    <g id="sprite6">
      <use ffdec:characterId="2" height="15.55" transform="matrix(0.9, 0.0, 0.0, 0.9, 8.75, 35.5)" width="31.6" xlink:href="#sprite4"/>
      <use ffdec:characterId="30" height="50.05" transform="matrix(1.0, 0.0, 0.0, 1.0, 0.0, 0.0)" width="41.3" xlink:href="#shape3"/>
    </g>
    <g id="shape3">
      <path d="M32.9 9.1 Q31.2 10.95 29.6 9.1 28.6 5.85 26.45 4.25 25.9 3.9 25.8 3.25 25.7 2.6 26.05 2.05 26.4 1.5 27.1 1.45 L28.25 1.65 Q31.65 3.9 32.9 9.1" fill="#5a402a" fill-rule="evenodd" stroke="none"/>
      <path d="M29.6 9.1 Q31.2 10.95 32.9 9.1 L33.35 11.7 Q33.45 12.3 33.0 12.85 L31.95 13.45 Q31.3 13.5 30.8 13.15 30.3 12.7 30.25 12.05 L29.6 9.1" fill="#402b19" fill-rule="evenodd" stroke="none"/>
      <path d="M41.2 27.5 L40.95 30.45 40.0 33.6 39.8 33.95 39.75 34.05 Q38.85 35.95 37.0 37.65 L37.1 37.85 37.45 38.85 37.4 40.95 37.4 41.05 37.35 41.1 37.4 41.25 Q37.15 41.05 35.75 40.8 34.7 40.65 34.15 41.1 34.35 42.05 37.55 42.4 L37.55 42.6 37.5 42.85 Q37.3 43.2 36.85 43.2 L36.15 43.2 Q33.35 43.05 31.5 41.15 L28.4 42.25 Q27.45 43.3 26.0 43.8 L25.85 44.05 25.8 44.2 22.45 48.7 22.15 49.0 21.85 49.2 21.3 49.65 20.5 49.95 20.2 49.9 Q19.75 49.8 19.35 49.4 L18.7 48.7 18.6 48.55 17.65 46.8 17.5 46.45 17.25 45.55 Q13.05 46.2 9.3 44.2 L8.0 43.35 6.45 42.0 6.4 41.95 Q7.6 43.9 6.95 44.85 L6.4 45.35 6.1 45.1 5.65 44.65 Q4.65 43.4 4.3 41.1 L4.2 39.4 4.2 39.25 5.6 40.2 5.95 40.35 6.4 40.6 Q8.0 41.5 9.7 41.6 L10.35 41.6 10.5 41.6 10.8 41.6 13.05 41.15 13.25 41.05 13.5 40.95 14.1 40.6 14.1 40.55 15.1 39.65 16.65 37.3 16.95 36.5 17.1 36.05 17.25 35.35 Q24.95 40.65 34.8 35.5 39.15 33.2 41.2 27.5 M4.9 16.55 Q4.8 15.45 5.55 14.5 L5.6 14.0 Q10.1 11.3 11.3 9.85 12.3 10.65 12.9 11.65 10.75 12.3 8.85 13.35 6.55 14.5 4.9 16.55 M26.65 14.55 L27.35 16.5 27.95 19.6 28.0 20.0 28.0 20.15 27.95 21.8 27.95 21.85 26.0 21.8 Q26.75 19.2 26.5 16.65 26.3 14.9 25.65 13.15 L26.65 14.55 M17.3 45.55 L17.6 45.55 18.65 45.4 17.3 45.55 17.25 45.55 17.3 45.55 M19.5 45.9 Q19.65 47.8 21.2 48.25 23.3 47.55 24.75 44.4 L19.5 45.9" fill="#ffacb1" fill-rule="evenodd" stroke="none"/>
      <path d="M12.9 11.65 Q16.1 10.55 19.95 10.35 25.7 10.0 30.35 11.65 30.9 11.8 31.45 12.1 L32.05 12.3 32.35 12.5 32.4 12.5 Q34.5 13.65 36.3 15.45 38.55 17.7 39.75 20.35 L40.4 22.0 41.0 24.35 41.2 27.3 41.2 27.5 Q39.15 33.2 34.8 35.5 24.95 40.65 17.25 35.35 L17.25 35.3 Q17.7 33.65 17.65 31.65 L17.6 30.9 Q17.1 26.2 14.0 22.85 L13.0 21.9 Q9.6 19.2 6.2 20.25 2.95 21.0 1.35 24.4 2.4 19.5 4.9 16.55 6.55 14.5 8.85 13.35 10.75 12.3 12.9 11.65 M37.4 41.25 L37.4 41.35 37.55 42.05 37.55 42.4 Q34.35 42.05 34.15 41.1 34.7 40.65 35.75 40.8 37.15 41.05 37.4 41.25 M5.6 14.0 L5.65 13.05 Q5.95 9.8 6.9 9.0 8.1 7.95 9.6 8.75 L9.7 8.8 11.3 9.85 Q10.1 11.3 5.6 14.0 M26.65 14.55 L25.5 12.8 24.65 11.95 24.1 11.6 22.55 11.45 Q22.05 11.65 21.5 12.0 20.3 12.85 19.95 14.15 20.3 12.85 21.5 12.0 22.05 11.65 22.55 11.45 L24.1 11.6 24.65 11.95 25.5 12.8 26.65 14.55 25.65 13.15 Q26.3 14.9 26.5 16.65 26.75 19.2 26.0 21.8 L27.95 21.85 27.95 21.8 28.0 20.15 28.0 20.0 27.95 19.6 27.35 16.5 26.65 14.55 M21.05 17.0 Q22.5 16.05 22.65 14.95 L22.65 14.05 22.65 14.95 Q22.5 16.05 21.05 17.0 M19.5 45.9 L24.75 44.4 Q23.3 47.55 21.2 48.25 19.65 47.8 19.5 45.9" fill="#ffc7ca" fill-rule="evenodd" stroke="none"/>
      <path d="M0.9 25.4 L1.35 24.4 Q2.95 21.0 6.2 20.25 9.6 19.2 13.0 21.9 L14.0 22.85 Q17.1 26.2 17.6 30.9 L17.65 31.65 Q17.7 33.65 17.25 35.3 L17.25 35.35 17.1 36.05 16.95 36.5 16.65 37.3 15.1 39.65 14.1 40.55 14.1 40.6 13.5 40.95 13.25 41.05 13.05 41.15 10.8 41.6 10.5 41.6 10.35 41.6 9.7 41.6 Q8.0 41.5 6.4 40.6 L8.9 41.05 10.4 40.8 11.05 40.6 11.3 40.55 12.05 40.1 12.2 40.0 12.4 39.85 Q13.75 38.8 14.6 36.95 L14.85 36.3 14.9 36.25 14.95 36.1 15.0 36.0 15.2 35.3 Q15.95 32.5 15.15 29.35 L15.1 29.25 Q14.1 25.4 11.4 23.2 8.35 20.8 5.25 21.7 2.7 22.35 0.9 25.4" fill="#eda0a5" fill-rule="evenodd" stroke="none"/>
      <path d="M12.3 30.05 Q12.7 31.45 12.7 32.75 12.7 35.7 10.9 37.7 L9.7 38.35 9.25 38.45 Q7.75 38.55 6.25 37.25 L6.25 37.2 5.55 36.55 Q4.0 34.95 3.3 32.5 2.45 29.4 3.35 26.8 L3.4 26.75 Q4.2 24.8 6.0 24.25 7.65 23.85 9.3 25.2 11.45 27.05 12.3 30.05" fill="#72191e" fill-rule="evenodd" stroke="none"/>
      <path d="M9.3 44.2 L8.8 45.15 Q7.8 46.35 6.4 45.35 L6.95 44.85 Q7.6 43.9 6.4 41.95 L6.45 42.0 8.0 43.35 9.3 44.2 M18.65 45.4 L17.6 45.55 17.3 45.55 18.65 45.4" fill="#e2858b" fill-rule="evenodd" stroke="none"/>
      <path d="M12.9 11.65 Q16.1 10.55 19.95 10.35 25.7 10.0 30.35 11.65 30.9 11.8 31.45 12.1 L32.05 12.3 32.35 12.5 32.4 12.5 Q34.5 13.65 36.3 15.45 38.55 17.7 39.75 20.35 L40.4 22.0 41.0 24.35 41.2 27.3 41.2 27.5 40.95 30.45 40.0 33.6 39.8 33.95 39.75 34.05 Q38.85 35.95 37.0 37.65 L37.1 37.85 37.45 38.85 37.4 40.95 37.4 41.05 37.35 41.1 37.4 41.25 37.4 41.35 37.55 42.05 37.55 42.4 37.55 42.6 M6.4 45.35 L6.1 45.1 5.65 44.65 Q4.65 43.4 4.3 41.1 L4.2 39.4 4.2 39.25 4.15 39.15 2.9 37.95 2.2 37.0 1.8 36.4 Q0.95 35.0 0.45 33.2 -0.3 30.45 0.15 28.0 0.25 26.85 0.9 25.4 L1.35 24.4 Q2.4 19.5 4.9 16.55 6.55 14.5 8.85 13.35 10.75 12.3 12.9 11.65 M19.95 14.15 Q20.3 12.85 21.5 12.0 22.05 11.65 22.55 11.45 L24.1 11.6 24.65 11.95 25.5 12.8 26.65 14.55 27.35 16.5 27.95 19.6 28.0 20.0 28.0 20.15 27.95 21.8 M6.4 40.6 L5.95 40.35 5.6 40.2 4.2 39.25 M9.3 44.2 L8.0 43.35 6.45 42.0 6.4 41.95" ffdec:has-small-stroke="true" ffdec:original-stroke-width="0.1" fill="none" stroke="#d28085" stroke-linecap="round" stroke-linejoin="round" stroke-width="1.0"/>
      <path d="M22.65 14.05 L22.65 14.95 Q22.5 16.05 21.05 17.0" fill="none" stroke="#d28085" stroke-linecap="round" stroke-linejoin="round" stroke-width="1.5"/>
      <path d="M4.9 16.55 Q4.8 15.45 5.55 14.5 L5.6 14.0 5.65 13.05 Q5.95 9.8 6.9 9.0 8.1 7.95 9.6 8.75 L9.7 8.8 11.3 9.85 Q12.3 10.65 12.9 11.65" ffdec:has-small-stroke="true" ffdec:original-stroke-width="0.1" fill="none" stroke="#bc5b61" stroke-linecap="round" stroke-linejoin="round" stroke-width="1.0"/>
      <path d="M37.55 42.6 L37.5 42.85 Q37.3 43.2 36.85 43.2 L36.15 43.2 Q33.35 43.05 31.5 41.15 L28.4 42.25 Q27.45 43.3 26.0 43.8 L25.85 44.05 25.8 44.2 22.45 48.7 22.15 49.0 21.85 49.2 21.3 49.65 20.5 49.95 20.2 49.9 Q19.75 49.8 19.35 49.4 L18.7 48.7 18.6 48.55 17.65 46.8 17.5 46.45 17.25 45.55 Q13.05 46.2 9.3 44.2 L8.8 45.15 Q7.8 46.35 6.4 45.35" ffdec:has-small-stroke="true" ffdec:original-stroke-width="0.1" fill="none" stroke="#a55358" stroke-linecap="round" stroke-linejoin="round" stroke-width="1.0"/>
      <path d="M18.65 45.4 L17.6 45.55 17.3 45.55 17.25 45.55" ffdec:has-small-stroke="true" ffdec:original-stroke-width="0.1" fill="none" stroke="#bb656a" stroke-linecap="round" stroke-linejoin="round" stroke-width="1.0"/>
      <path d="M5.1 33.85 Q3.85 31.85 5.5 30.15 5.5 31.2 6.85 31.4 6.2 32.1 6.65 32.95 7.25 33.85 8.7 34.55 L10.5 35.15 12.15 35.5 11.3 37.05 10.05 36.9 Q8.3 36.45 7.2 35.8 5.65 34.95 5.1 33.85 M12.3 34.45 Q10.85 34.05 10.0 33.5 L8.95 32.45 8.9 32.35 Q7.95 30.65 9.9 29.25 L9.9 29.2 Q10.6 28.6 11.65 28.3 L12.25 30.0 Q11.5 30.25 11.0 30.65 L10.95 30.65 Q10.4 31.1 10.5 31.55 L11.5 32.25 12.7 32.7 12.45 34.5 12.3 34.45" fill="#578937" fill-rule="evenodd" stroke="none"/>
      <path d="M7.1 31.1 L6.5 31.25 5.9 31.0 Q5.6 30.7 5.6 30.35 5.6 30.0 5.9 29.75 L5.95 29.7 6.2 29.4 6.25 29.35 6.4 29.3 6.45 29.25 7.0 28.9 7.75 28.85 8.25 29.3 8.25 30.0 7.8 30.5 7.65 30.6 7.3 30.9 7.2 30.95 7.15 31.0 7.1 31.05 7.1 31.1" fill="#ff0045" fill-rule="evenodd" stroke="none"/>
      <path d="M12.3 30.05 Q11.45 27.05 9.3 25.2 7.65 23.85 6.0 24.25 4.2 24.8 3.4 26.75 L3.35 26.8 Q2.45 29.4 3.3 32.5 4.15 35.5 6.25 37.2 L6.25 37.25 Q7.95 38.75 9.7 38.35 L10.9 37.7 Q12.7 35.7 12.7 32.75 12.7 31.45 12.3 30.05 M14.85 36.3 Q13.5 40.0 10.4 40.8 L6.4 40.6 Q5.25 40.1 4.2 39.25 L4.15 39.15 Q1.5 37.0 0.45 33.2 -0.3 30.45 0.15 28.0 0.25 26.85 0.9 25.4 2.7 22.35 5.25 21.7 8.35 20.8 11.4 23.2 14.1 25.4 15.1 29.25 16.15 33.05 14.9 36.25 L14.85 36.3" fill="#ffe0e2" fill-rule="evenodd" stroke="none"/>
      <path d="M19.85 19.6 L19.45 20.45 Q19.1 20.8 18.6 20.8 18.1 20.8 17.75 20.45 17.4 20.05 17.4 19.6 17.4 19.1 17.75 18.7 18.1 18.35 18.6 18.35 19.1 18.35 19.45 18.7 19.85 19.1 19.85 19.6 M7.85 17.15 L7.35 17.8 6.75 17.7 Q6.4 17.35 6.4 16.9 6.4 16.5 6.75 16.2 7.05 15.9 7.45 15.9 L7.85 16.0 8.05 16.05 Q8.45 16.45 7.9 17.0 L7.85 17.05 7.85 17.15" fill="#a55358" fill-rule="evenodd" stroke="none"/>
      <path d="M39.95 26.7 Q40.1 27.5 39.65 28.25 L38.55 29.3 37.25 29.25 Q36.65 28.9 36.5 28.1 36.4 27.3 36.85 26.5 37.3 25.75 38.0 25.45 L39.25 25.5 Q39.85 25.9 39.95 26.7" fill="#ffffff" fill-rule="evenodd" stroke="none"/>
      <path d="M35.5 14.85 Q36.7 13.7 37.55 13.35 38.4 13.15 38.55 14.3 38.85 15.45 37.95 17.4 L35.5 14.85" fill="#ffc7ca" fill-rule="evenodd" stroke="none"/>
      <path d="M37.95 17.4 Q38.85 15.45 38.55 14.3 38.4 13.15 37.55 13.35 36.7 13.7 35.5 14.85" ffdec:has-small-stroke="true" ffdec:original-stroke-width="0.1" fill="none" stroke="#aa6065" stroke-linecap="round" stroke-linejoin="round" stroke-width="1.0"/>
      <path d="M38.25 22.3 L38.2 23.35 37.45 24.0 36.4 23.95 Q35.9 23.7 35.75 23.2 34.65 20.05 32.95 19.05 32.45 18.75 32.3 18.25 32.1 17.7 32.4 17.25 32.7 16.7 33.25 16.55 L34.25 16.7 Q36.7 17.95 38.25 22.3" fill="#ffffff" fill-rule="evenodd" stroke="none"/>
      <path d="M18.95 13.85 Q18.95 14.65 17.8 15.2 16.7 15.8 15.15 15.8 13.55 15.8 12.45 15.2 11.35 14.65 11.35 13.85 11.35 13.05 12.45 12.45 13.55 11.9 15.15 11.9 16.7 11.9 17.8 12.45 18.95 13.05 18.95 13.85" fill="#eda0a5" fill-rule="evenodd" stroke="none"/>
      <path d="M28.8 3.95 L28.45 4.65 27.45 5.5 20.6 5.5 20.8 5.45 21.7 4.65 22.05 3.95 28.8 3.95" fill="#ca9c73" fill-rule="evenodd" stroke="none"/>
      <path d="M20.6 0.0 L27.45 0.0 27.45 0.05 Q28.05 0.1 28.45 0.8 28.95 1.6 28.95 2.75 L28.8 3.95 22.05 3.95 22.2 2.75 Q22.2 1.6 21.7 0.8 21.3 0.15 20.8 0.05 L20.6 0.0" fill="#d9af8b" fill-rule="evenodd" stroke="none"/>
      <path d="M20.6 5.5 L20.5 5.5 20.45 5.5 Q19.75 5.5 19.2 4.65 L18.9 3.95 18.7 2.75 Q18.7 1.6 19.2 0.8 19.75 0.0 20.45 0.0 L20.5 0.0 20.6 0.0 20.8 0.05 Q21.3 0.15 21.7 0.8 22.2 1.6 22.2 2.75 L22.05 3.95 21.7 4.65 20.8 5.45 20.6 5.5" fill="#fffcfa" fill-rule="evenodd" stroke="none"/>
      <path d="M28.8 3.95 L28.45 4.65 27.45 5.5 20.6 5.5" ffdec:has-small-stroke="true" ffdec:original-stroke-width="0.1" fill="none" stroke="#8b6749" stroke-linecap="round" stroke-linejoin="round" stroke-width="1.0"/>
      <path d="M20.6 0.0 L27.45 0.0 M27.45 0.05 Q28.05 0.1 28.45 0.8 28.95 1.6 28.95 2.75 L28.8 3.95" ffdec:has-small-stroke="true" ffdec:original-stroke-width="0.1" fill="none" stroke="#a57751" stroke-linecap="round" stroke-linejoin="round" stroke-width="1.0"/>
      <path d="M20.6 5.5 L20.5 5.5 20.45 5.5 M20.45 0.0 L20.5 0.0 20.6 0.0 M27.45 0.0 L27.45 0.05" ffdec:has-small-stroke="true" ffdec:original-stroke-width="0.1" fill="none" stroke="#90643f" stroke-linecap="round" stroke-linejoin="round" stroke-width="1.0"/>
      <path d="M20.45 5.5 Q19.75 5.5 19.2 4.65 L18.9 3.95 18.7 2.75 Q18.7 1.6 19.2 0.8 19.75 0.0 20.45 0.0" ffdec:has-small-stroke="true" ffdec:original-stroke-width="0.1" fill="none" stroke="#9a7c63" stroke-linecap="round" stroke-linejoin="round" stroke-width="1.0"/>
      <path d="M15.05 12.85 Q15.65 5.65 19.55 2.95" fill="none" stroke="#72553d" stroke-linecap="round" stroke-linejoin="round" stroke-width="3.5"/>
      <path d="M19.1 2.55 Q19.35 2.85 19.15 3.5 L18.4 4.65 17.3 5.45 16.4 5.3 Q16.15 4.95 16.35 4.35 L17.15 3.15 18.25 2.35 Q18.85 2.2 19.1 2.55" fill="#a17755" fill-rule="evenodd" stroke="none"/>
    </g>
  </defs>
</svg>
