<?xml version="1.0" encoding="UTF-8" standalone="no"?>
<svg xmlns:ffdec="https://www.free-decompiler.com/flash" xmlns:xlink="http://www.w3.org/1999/xlink" ffdec:objectType="frame" height="42.45px" width="48.2px" xmlns="http://www.w3.org/2000/svg">
  <g transform="matrix(1.0, 0.0, 0.0, 1.0, 30.2, 64.7)">
    <use ffdec:characterId="30" height="42.45" transform="matrix(1.0, 0.0, 0.0, 1.0, 3.45, -45.3)" width="48.2" xlink:href="#sprite0"/>
  </g>
  <defs>
    <g id="sprite0">
      <use ffdec:characterId="28" height="42.45" transform="matrix(1.0, 0.0, 0.0, 1.0, 0.0, 0.0)" width="46.75" xlink:href="#shape0"/>
      <use ffdec:characterId="6" height="14.5" transform="matrix(0.9915, 0.1304, -0.1304, 0.9915, -2.25, 4.2)" width="10.1" xlink:href="#sprite1"/>
      <use ffdec:characterId="8" height="11.2" transform="matrix(0.2051, -0.1269, 0.0, 0.3364, 6.55, -7.05)" width="8.8" xlink:href="#sprite3"/>
      <use ffdec:characterId="8" height="11.2" transform="matrix(1.0, 0.0, 0.0, 1.0, 0.5, -5.7)" width="8.8" xlink:href="#sprite3"/>
      <use ffdec:characterId="11" height="7.9" transform="matrix(1.0, 0.0, 0.0, 1.0, -12.6, 0.9)" width="15.85" xlink:href="#sprite4"/>
      <use ffdec:characterId="13" height="19.85" transform="matrix(0.994, 0.1089, -0.1089, 0.994, -19.25, 1.95)" width="12.05" xlink:href="#sprite5"/>
      <use ffdec:characterId="15" height="17.65" transform="matrix(0.9878, -0.1559, 0.1559, 0.9878, -25.05, -17.3)" width="13.05" xlink:href="#sprite6"/>
      <use ffdec:characterId="18" height="11.75" transform="matrix(1.0, 0.0, 0.0, 1.0, -16.45, -3.9)" width="10.1" xlink:href="#sprite7"/>
      <use ffdec:characterId="15" height="17.65" transform="matrix(1.0, 0.0, 0.0, 1.0, -18.4, -18.35)" width="13.05" xlink:href="#sprite6"/>
      <use ffdec:characterId="20" height="10.85" transform="matrix(1.0, 0.0, 0.0, 1.0, -30.1, -6.65)" width="15.1" xlink:href="#sprite8"/>
      <use ffdec:characterId="13" height="19.85" transform="matrix(1.0, 0.0, 0.0, 1.0, -14.95, 3.25)" width="12.05" xlink:href="#sprite5"/>
      <use ffdec:characterId="22" height="16.45" transform="matrix(0.9915, 0.1304, -0.1304, 0.9915, 1.25, 2.45)" width="13.45" xlink:href="#sprite9"/>
      <use ffdec:characterId="24" height="3.6" transform="matrix(1.0, 0.0, 0.0, 1.0, -32.65, -4.85)" width="4.5" xlink:href="#sprite10"/>
      <use ffdec:characterId="29" height="38.15" transform="matrix(1.0, 0.0, 0.0, 1.0, 0.0, 0.0)" width="36.85" xlink:href="#shape14"/>
    </g>
    <g id="shape0">
      <path d="M7.85 -7.75 L7.9 -7.75 Q8.45 -7.75 8.35 -6.8 L8.3 -6.3 7.95 -5.0 7.95 -4.9 7.9 -4.8 8.3 -4.5 Q9.55 -3.5 9.25 -1.75 L9.05 -0.85 8.85 -0.3 7.6 2.6 7.5 2.9 6.9 3.7 6.1 4.7 6.5 5.0 7.55 5.95 8.95 7.7 Q10.1 9.55 11.05 12.55 L11.2 12.8 11.45 13.75 11.5 14.05 11.65 14.65 Q13.3 20.95 9.05 20.1 6.6 19.6 5.3 18.05 L4.55 18.7 Q3.55 19.4 1.65 19.05 L-0.05 18.6 -1.05 17.8 -2.0 15.85 Q-2.3 14.75 -2.3 12.45 L-2.35 10.35 Q-2.3 10.0 -2.4 9.85 L-2.55 9.35 -2.75 8.5 -6.05 8.35 Q-5.85 9.7 -5.9 11.35 L-5.9 15.05 -6.1 18.45 Q-6.35 20.0 -7.75 21.25 -9.15 22.45 -12.85 21.85 -13.45 21.85 -14.15 20.65 -15.15 21.2 -16.85 21.05 L-17.35 21.05 -18.1 20.95 -18.2 20.9 -18.6 20.75 -19.2 20.6 Q-19.9 20.55 -20.5 18.95 L-20.5 18.9 -20.85 17.05 Q-20.85 15.7 -20.15 13.85 -19.5 11.95 -19.2 10.15 -18.95 8.3 -18.35 6.9 -17.75 5.5 -16.75 4.25 L-16.35 3.9 -16.4 3.65 Q-16.7 2.2 -16.45 0.65 -19.4 3.35 -24.65 2.25 -30.0 1.0 -30.1 -1.55 L-30.9 -1.25 Q-32.7 -1.05 -32.65 -2.95 L-32.45 -4.0 Q-32.1 -4.9 -31.0 -4.85 L-30.15 -4.35 -29.65 -3.75 Q-29.1 -4.9 -27.85 -5.75 -26.15 -6.85 -23.05 -6.55 -22.95 -18.6 -17.55 -18.4 L-16.55 -18.25 Q-15.75 -18.1 -14.35 -17.15 -12.85 -18.65 -10.8 -18.25 L-9.85 -17.95 Q-9.05 -17.7 -7.6 -16.3 -6.15 -14.9 -6.55 -10.2 -6.95 -5.55 -10.5 -3.45 L-12.55 -2.45 Q-10.65 -1.4 -9.85 1.55 L-6.4 1.0 -6.35 0.95 -6.35 1.0 Q-2.9 0.75 0.7 1.65 L0.9 1.15 1.4 0.25 1.95 -1.2 2.35 -2.65 2.7 -3.55 3.15 -4.2 4.15 -5.2 Q5.1 -5.9 6.25 -5.65 L6.8 -5.45 6.85 -5.7 6.9 -6.25 7.1 -6.85 7.3 -7.3 7.6 -7.7 7.7 -7.75 7.85 -7.75" fill="#000000" fill-rule="evenodd" stroke="none"/>
      <path d="M7.85 -7.75 L7.9 -7.75 Q8.45 -7.75 8.35 -6.8 L8.3 -6.3 7.95 -5.0 7.95 -4.9 7.9 -4.8 8.3 -4.5 Q9.55 -3.5 9.25 -1.75 L9.05 -0.85 8.85 -0.3 7.6 2.6 7.5 2.9 6.9 3.7 6.1 4.7 6.5 5.0 7.55 5.95 8.95 7.7 Q10.1 9.55 11.05 12.55 L11.2 12.8 11.45 13.75 11.5 14.05 11.65 14.65 Q13.3 20.95 9.05 20.1 6.6 19.6 5.3 18.05 L4.55 18.7 Q3.55 19.4 1.65 19.05 L-0.05 18.6 -1.05 17.8 -2.0 15.85 Q-2.3 14.75 -2.3 12.45 L-2.35 10.35 Q-2.3 10.0 -2.4 9.85 L-2.55 9.35 -2.75 8.5 -6.05 8.35 Q-5.85 9.7 -5.9 11.35 L-5.9 15.05 -6.1 18.45 Q-6.35 20.0 -7.75 21.25 -9.15 22.45 -12.85 21.85 -13.45 21.85 -14.15 20.65 -15.15 21.2 -16.85 21.05 L-17.35 21.05 -18.1 20.95 -18.2 20.9 -18.6 20.75 -19.2 20.6 Q-19.9 20.55 -20.5 18.95 L-20.5 18.9 -20.85 17.05 Q-20.85 15.7 -20.15 13.85 -19.5 11.95 -19.2 10.15 -18.95 8.3 -18.35 6.9 -17.75 5.5 -16.75 4.25 L-16.35 3.9 -16.4 3.65 Q-16.7 2.2 -16.45 0.65 -19.4 3.35 -24.65 2.25 -30.0 1.0 -30.1 -1.55 L-30.9 -1.25 Q-32.7 -1.05 -32.65 -2.95 L-32.45 -4.0 Q-32.1 -4.9 -31.0 -4.85 L-30.15 -4.35 -29.65 -3.75 Q-29.1 -4.9 -27.85 -5.75 -26.15 -6.85 -23.05 -6.55 -22.95 -18.6 -17.55 -18.4 L-16.55 -18.25 Q-15.75 -18.1 -14.35 -17.15 -12.85 -18.65 -10.8 -18.25 L-9.85 -17.95 Q-9.05 -17.7 -7.6 -16.3 -6.15 -14.9 -6.55 -10.2 -6.95 -5.55 -10.5 -3.45 L-12.55 -2.45 Q-10.65 -1.4 -9.85 1.55 L-6.4 1.0 -6.35 0.95 -6.35 1.0 Q-2.9 0.75 0.7 1.65 L0.9 1.15 1.4 0.25 1.95 -1.2 2.35 -2.65 2.7 -3.55 3.15 -4.2 4.15 -5.2 Q5.1 -5.9 6.25 -5.65 L6.8 -5.45 6.85 -5.7 6.9 -6.25 7.1 -6.85 7.3 -7.3 7.6 -7.7 7.7 -7.75 7.85 -7.75 Z" fill="none" stroke="#000000" stroke-linecap="round" stroke-linejoin="round" stroke-width="2.0"/>
      <path d="M-32.45 -4.0 Q-32.1 -4.9 -31.0 -4.85 L-30.15 -4.35 -29.65 -3.75 Q-29.1 -4.9 -27.85 -5.75 -26.15 -6.85 -23.05 -6.55 -22.95 -18.6 -17.55 -18.4 L-16.55 -18.25 Q-15.75 -18.1 -14.35 -17.15 -12.85 -18.65 -10.8 -18.25 L-9.85 -17.95 Q-9.05 -17.7 -7.6 -16.3 -6.15 -14.9 -6.55 -10.2 -6.95 -5.55 -10.5 -3.45 L-12.55 -2.45 Q-10.65 -1.4 -9.85 1.55 L-6.4 1.0 -6.35 0.95 -6.35 1.0 Q-2.9 0.75 0.7 1.65 L0.9 1.15 1.4 0.25 1.95 -1.2 2.35 -2.65 2.7 -3.55 3.15 -4.2 4.15 -5.2 Q5.1 -5.9 6.25 -5.65 L6.8 -5.45 6.85 -5.7 6.9 -6.25 7.1 -6.85 7.3 -7.3 7.6 -7.7 7.7 -7.75 7.85 -7.75 7.9 -7.75 Q8.45 -7.75 8.35 -6.8 L8.3 -6.3 7.95 -5.0 7.95 -4.9 7.9 -4.8 8.3 -4.5 Q9.55 -3.5 9.25 -1.75 L9.05 -0.85 8.85 -0.3 7.6 2.6 7.5 2.9 6.9 3.7 6.1 4.7 6.5 5.0 7.55 5.95 8.95 7.7 Q10.1 9.55 11.05 12.55 L11.2 12.8 11.45 13.75 11.5 14.05 11.65 14.65 Q13.3 20.95 9.05 20.1 6.6 19.6 5.3 18.05 L4.55 18.7 Q3.55 19.4 1.65 19.05 L-0.05 18.6 -1.05 17.8 -2.0 15.85 Q-2.3 14.75 -2.3 12.45 L-2.35 10.45 -2.35 10.35 Q-2.3 10.0 -2.4 9.85 L-2.55 9.35 -2.75 8.5 -6.05 8.35 Q-5.85 9.7 -5.9 11.35 L-5.9 15.05 -6.1 18.45 Q-6.35 20.0 -7.75 21.25 -9.15 22.45 -12.85 21.85 -13.45 21.85 -14.15 20.65 -15.15 21.2 -16.85 21.05 L-17.35 21.05 -18.1 20.95 -18.2 20.9 -18.6 20.75 -19.2 20.6 Q-19.9 20.55 -20.5 18.95 L-20.5 18.9 -20.85 17.05 Q-20.85 15.7 -20.15 13.85 -19.5 11.95 -19.2 10.15 -18.95 8.3 -18.35 6.9 -17.75 5.5 -16.75 4.25 L-16.35 3.9 -16.4 3.65 Q-16.7 2.2 -16.45 0.65 -19.4 3.35 -24.65 2.25 -30.0 1.0 -30.1 -1.55 L-30.9 -1.25 Q-32.7 -1.05 -32.65 -2.95 L-32.45 -4.0" fill="#000000" fill-rule="evenodd" stroke="none"/>
      <path d="M-32.45 -4.0 Q-32.1 -4.9 -31.0 -4.85 L-30.15 -4.35 -29.65 -3.75 Q-29.1 -4.9 -27.85 -5.75 -26.15 -6.85 -23.05 -6.55 -22.95 -18.6 -17.55 -18.4 L-16.55 -18.25 Q-15.75 -18.1 -14.35 -17.15 -12.85 -18.65 -10.8 -18.25 L-9.85 -17.95 Q-9.05 -17.7 -7.6 -16.3 -6.15 -14.9 -6.55 -10.2 -6.95 -5.55 -10.5 -3.45 L-12.55 -2.45 Q-10.65 -1.4 -9.85 1.55 L-6.4 1.0 -6.35 0.95 -6.35 1.0 Q-2.9 0.75 0.7 1.65 L0.9 1.15 1.4 0.25 1.95 -1.2 2.35 -2.65 2.7 -3.55 3.15 -4.2 4.15 -5.2 Q5.1 -5.9 6.25 -5.65 L6.8 -5.45 6.85 -5.7 6.9 -6.25 7.1 -6.85 7.3 -7.3 7.6 -7.7 7.7 -7.75 7.85 -7.75 M-1.05 17.8 L-2.0 15.85 Q-2.3 14.75 -2.3 12.45 L-2.35 10.45 M-20.5 18.9 L-20.85 17.05 Q-20.85 15.7 -20.15 13.85 -19.5 11.95 -19.2 10.15 -18.95 8.3 -18.35 6.9 -17.75 5.5 -16.75 4.25 L-16.35 3.9 -16.4 3.65" fill="none" stroke="#753419" stroke-linecap="round" stroke-linejoin="round" stroke-width="1.0"/>
      <path d="M7.85 -7.75 L7.9 -7.75 Q8.45 -7.75 8.35 -6.8 L8.3 -6.3 7.95 -5.0 7.95 -4.9 7.9 -4.8 8.3 -4.5 Q9.55 -3.5 9.25 -1.75 L9.05 -0.85 8.85 -0.3 7.6 2.6 7.5 2.9 6.9 3.7 6.1 4.7 6.5 5.0 7.55 5.95 8.95 7.7 Q10.1 9.55 11.05 12.55 L11.2 12.8 11.45 13.75 11.5 14.05 11.65 14.65 Q13.3 20.95 9.05 20.1 6.6 19.6 5.3 18.05 L4.55 18.7 Q3.55 19.4 1.65 19.05 L-0.05 18.6 -1.05 17.8 M-2.35 10.45 L-2.35 10.35 Q-2.3 10.0 -2.4 9.85 L-2.55 9.35 -2.75 8.5 -6.05 8.35 Q-5.85 9.7 -5.9 11.35 L-5.9 15.05 -6.1 18.45 Q-6.35 20.0 -7.75 21.25 -9.15 22.45 -12.85 21.85 -13.45 21.85 -14.15 20.65 -15.15 21.2 -16.85 21.05 L-17.35 21.05 -18.1 20.95 -18.2 20.9 -18.6 20.75 -19.2 20.6 Q-19.9 20.55 -20.5 18.95 L-20.5 18.9 M-16.4 3.65 Q-16.7 2.2 -16.45 0.65 -19.4 3.35 -24.65 2.25 -30.0 1.0 -30.1 -1.55 L-30.9 -1.25 Q-32.7 -1.05 -32.65 -2.95 L-32.45 -4.0" fill="none" stroke="#4d1975" stroke-linecap="round" stroke-linejoin="round" stroke-width="1.0"/>
    </g>
    <g id="sprite1">
      <use ffdec:characterId="2" height="14.2" transform="matrix(1.0, 0.0, 0.0, 1.0, 0.0, 0.0)" width="9.75" xlink:href="#shape1"/>
      <use ffdec:characterId="4" height="10.85" transform="matrix(0.7401, 0.002, 0.195, 0.8824, 0.0, 4.95)" width="10.85" xlink:href="#sprite2"/>
      <use ffdec:characterId="5" height="8.0" transform="matrix(1.0, 0.0, 0.0, 1.0, 0.0, 0.0)" width="2.25" xlink:href="#shape3"/>
    </g>
    <g id="shape1">
      <path d="M0.0 4.1 Q-0.05 2.8 0.6 1.45 1.1 0.5 1.65 0.25 L2.95 0.05 4.45 0.35 Q6.55 1.25 7.95 4.25 9.05 6.7 9.55 9.05 L9.7 11.45 Q9.55 12.8 8.6 13.5 7.7 14.3 5.8 14.2 L4.05 13.95 Q2.55 13.4 1.75 11.5 1.3 10.5 1.0 8.15 L0.7 6.1 0.6 5.6 0.35 5.15 Q0.1 4.75 0.0 4.1" fill="#d48c2a" fill-rule="evenodd" stroke="none"/>
      <path d="M2.0 10.25 L0.8 5.55 Q0.35 4.45 0.5 3.45 0.65 2.45 1.55 1.6 2.35 2.1 2.55 3.0 L3.1 7.75 Q3.4 11.6 5.25 13.65 4.1 13.7 3.55 13.05 2.25 12.6 2.0 10.25" fill="#ffe242" fill-rule="evenodd" stroke="none"/>
      <path d="M8.1 5.75 L9.35 9.4 Q9.6 10.9 8.75 12.25 5.4 15.05 4.15 10.65 2.9 6.2 3.5 2.4 L6.3 2.5 Q7.1 3.55 8.1 5.75" fill="#f4c016" fill-rule="evenodd" stroke="none"/>
      <path d="M4.25 3.1 L3.45 7.65 2.65 6.0 Q1.95 3.8 2.3 1.7 L4.7 1.65 4.25 3.1" fill="#9e4300" fill-rule="evenodd" stroke="none"/>
    </g>
    <g id="sprite2">
      <use ffdec:characterId="3" height="10.85" transform="matrix(1.0, 0.0, 0.0, 1.0, 0.0, 0.0)" width="10.85" xlink:href="#shape2"/>
    </g>
    <g id="shape2">
      <path d="M10.2 2.9 Q11.25 4.85 10.6 7.0 9.95 9.15 7.95 10.2 6.0 11.25 3.85 10.6 1.7 9.95 0.65 8.0 -0.4 6.0 0.25 3.85 0.9 1.7 2.85 0.65 L3.3 0.5 5.1 0.0 7.0 0.25 Q9.15 0.9 10.2 2.9" fill="url(#gradient0)" fill-rule="evenodd" stroke="none"/>
    </g>
    <radialGradient cx="0" cy="0" gradientTransform="matrix(0.0026, 0.0045, 0.0069, -0.0026, 6.15, 7.15)" gradientUnits="userSpaceOnUse" id="gradient0" r="819.2" spreadMethod="pad">
      <stop offset="0.0" stop-color="#ff6400" stop-opacity="0.3647059"/>
      <stop offset="0.5607843137254902" stop-color="#b83600" stop-opacity="0.35686275"/>
      <stop offset="1.0" stop-color="#ffe950" stop-opacity="0.0"/>
    </radialGradient>
    <g id="shape3">
      <path d="M1.4 7.05 Q0.65 5.25 0.85 3.5 L0.85 3.35 Q1.4 3.25 1.4 3.7 1.35 4.7 1.75 5.65 L2.7 8.25 Q3.15 9.7 3.05 11.15 L3.0 11.35 Q2.4 10.8 2.25 9.75 2.0 8.35 1.4 7.05" fill="#f6ff62" fill-rule="evenodd" stroke="none"/>
    </g>
    <g id="sprite3">
      <use ffdec:characterId="7" height="11.2" transform="matrix(1.0, 0.0, 0.0, 1.0, 0.0, 0.0)" width="8.8" xlink:href="#shape4"/>
    </g>
    <g id="shape4">
      <path d="M7.0 1.2 L7.3 2.0 Q8.15 4.4 8.0 5.55 L7.35 7.6 7.0 8.6 6.4 9.4 Q5.3 10.9 4.55 11.1 L3.75 11.2 2.0 10.9 Q1.0 10.35 0.9 8.75 0.3 8.95 0.1 8.35 -0.05 8.05 0.1 7.65 L0.4 6.85 0.9 5.95 1.45 4.5 1.85 3.05 2.2 2.15 2.65 1.5 3.65 0.5 Q4.6 -0.2 5.75 0.05 L6.5 0.4 7.0 1.2" fill="#d48c2a" fill-rule="evenodd" stroke="none"/>
      <path d="M1.15 8.4 L1.0 6.9 Q1.15 5.85 2.45 3.5 3.7 1.15 4.0 0.95 5.3 0.2 5.95 1.3 6.3 4.25 5.05 6.25 3.8 8.2 1.15 8.4" fill="#f4c016" fill-rule="evenodd" stroke="none"/>
      <path d="M5.5 3.45 Q6.65 0.7 5.15 0.0 9.3 0.95 8.75 3.95 8.2 6.95 5.95 7.55 3.65 8.1 2.7 8.8 L4.85 4.85 5.5 3.45" fill="#9e4300" fill-rule="evenodd" stroke="none"/>
      <path d="M3.6 10.45 L2.9 10.25 1.2 8.35 Q4.65 8.1 6.3 6.8 7.9 5.45 8.7 3.75 8.0 7.55 6.5 9.05 4.95 10.55 3.6 10.45" fill="#ffc862" fill-rule="evenodd" stroke="none"/>
      <path d="M5.3 3.35 L4.35 4.8 Q3.75 5.3 3.25 5.1 2.75 4.95 2.65 4.15 2.5 3.35 2.85 2.4 3.2 1.45 3.85 0.95 4.45 0.45 4.95 0.6 5.45 0.8 5.55 1.6 L5.3 3.35" fill="#f6ff61" fill-rule="evenodd" stroke="none"/>
      <path d="M1.05 6.15 L2.85 2.4 3.2 1.6 Q3.6 1.75 2.55 4.2 1.5 6.65 1.8 9.1 -0.2 8.55 1.05 6.15" fill="#f6ff62" fill-rule="evenodd" stroke="none"/>
      <path d="M2.45 5.85 L1.55 9.05 1.15 8.5 Q1.1 7.1 1.65 5.8 2.15 4.55 3.05 3.55 L2.45 5.85" fill="#d48c2a" fill-rule="evenodd" stroke="none"/>
      <path d="M5.3 0.9 Q3.3 3.8 1.45 5.7 2.55 2.95 3.4 1.45 4.25 -0.1 5.3 0.9" fill="#ffffff" fill-rule="evenodd" stroke="none"/>
      <path d="M6.8 6.75 Q8.0 4.25 7.3 1.75 L7.4 1.8 Q9.1 3.6 7.75 6.15 6.95 7.75 5.8 8.9 L6.8 6.75" fill="#f6ff62" fill-rule="evenodd" stroke="none"/>
    </g>
    <g id="sprite4">
      <use ffdec:characterId="9" height="7.65" transform="matrix(1.0, 0.0, 0.0, 1.0, 0.0, 0.0)" width="15.85" xlink:href="#shape5"/>
      <use ffdec:characterId="4" height="10.85" transform="matrix(0.8257, 0.0, 0.0, 0.6269, 4.95, 1.1)" width="10.85" xlink:href="#sprite2"/>
      <use ffdec:characterId="10" height="1.15" transform="matrix(1.0, 0.0, 0.0, 1.0, 0.0, 0.0)" width="8.65" xlink:href="#shape6"/>
    </g>
    <g id="shape5">
      <path d="M15.85 4.4 Q11.5 8.95 5.4 7.15 1.1 5.8 0.0 1.5 6.6 -1.05 13.5 0.8 14.8 1.05 15.75 2.0 L15.85 4.4" fill="#f4c016" fill-rule="evenodd" stroke="none"/>
      <path d="M0.85 3.05 Q4.0 4.0 7.1 4.2 L12.5 3.8 15.5 2.75 Q15.8 6.6 11.3 7.3 6.8 7.95 4.45 6.6 2.1 5.25 0.85 3.05" fill="#ec9011" fill-rule="evenodd" stroke="none"/>
      <path d="M4.6 1.3 Q6.7 -0.25 10.05 0.45 13.4 1.1 15.75 2.75 9.55 5.95 1.05 3.15 2.0 2.95 3.35 2.15 3.15 1.25 1.75 1.35 3.15 0.4 4.5 0.6 3.9 1.2 3.95 1.5 L4.0 1.7 4.6 1.3" fill="#9e4300" fill-rule="evenodd" stroke="none"/>
      <path d="M14.6 2.3 L13.2 1.45 12.15 0.85 13.85 1.05 Q14.6 1.1 14.5 1.8 L14.6 2.3 M2.3 1.85 L4.2 0.6 Q4.8 0.3 5.1 0.6 L6.25 0.05 Q4.05 2.05 2.0 2.6 L2.3 1.85" fill="#ffe342" fill-rule="evenodd" stroke="none"/>
      <path d="M14.55 2.65 Q13.2 3.55 7.55 3.65 L2.45 3.6 Q0.7 3.4 0.75 2.65 L14.55 2.65" fill="#ec9011" fill-rule="evenodd" stroke="none"/>
      <path d="M3.95 6.5 L2.45 4.95 2.6 4.55 13.9 4.9 12.0 6.2 10.45 7.15 7.2 7.3 3.95 6.5" fill="#ffc862" fill-rule="evenodd" stroke="none"/>
    </g>
    <g id="shape6">
      <path d="M4.1 1.65 L3.85 1.6 3.7 1.45 3.7 1.1 3.75 1.05 4.2 0.7 4.85 0.5 5.35 0.6 5.45 0.85 5.4 1.05 5.15 1.3 4.95 1.35 4.6 1.5 4.1 1.65" fill="#f6ff61" fill-rule="evenodd" stroke="none"/>
      <path d="M4.9 1.3 L5.35 1.25 5.35 1.2 8.75 1.25 8.9 1.3 8.75 1.4 4.9 1.45 4.75 1.4 Q4.75 1.3 4.9 1.3" fill="#f6ff61" fill-rule="evenodd" stroke="none"/>
      <path d="M11.9 1.1 L12.15 1.2 12.25 1.3 12.3 1.55 12.2 1.6 Q11.8 1.3 11.55 1.25 L11.55 1.2 11.45 1.15 11.4 1.05 11.4 1.0 11.55 0.95 11.75 1.0 11.9 1.1" fill="#f6ff61" fill-rule="evenodd" stroke="none"/>
    </g>
    <g id="sprite5">
      <use ffdec:characterId="12" height="18.9" transform="matrix(1.0, 0.0, 0.0, 1.0, 0.0, 0.0)" width="9.05" xlink:href="#shape7"/>
      <use ffdec:characterId="4" height="10.85" transform="matrix(-0.2722, 0.9364, 0.8423, 0.2448, 1.45, 6.95)" width="10.85" xlink:href="#sprite2"/>
    </g>
    <g id="shape7">
      <path d="M7.35 15.45 L7.75 14.0 7.85 10.75 6.65 12.25 3.05 15.45 2.05 16.15 2.2 16.8 Q2.4 17.45 2.75 17.7 L3.15 17.9 4.1 17.8 5.5 17.5 Q6.3 17.2 6.9 16.2 L7.35 15.45 M4.1 13.65 L5.05 12.8 5.6 12.4 6.45 11.55 7.0 10.85 6.7 11.15 5.4 12.4 2.3 14.6 1.8 15.15 1.75 15.35 4.1 13.65 M7.8 16.5 L7.0 17.75 5.75 18.35 3.95 18.75 2.7 18.6 2.3 18.5 Q1.45 18.25 1.15 17.6 1.0 17.3 1.0 16.5 L1.05 15.05 Q1.25 14.4 2.25 13.7 L4.4 12.3 6.3 10.6 7.2 9.6 8.0 8.7 8.55 8.6 8.75 9.05 Q9.05 10.65 8.95 12.6 L8.85 13.45 8.35 15.2 8.25 15.45 7.8 16.5" fill="#ffc862" fill-rule="evenodd" stroke="none"/>
      <path d="M2.75 2.05 L3.95 0.55 Q4.65 -0.3 5.5 -0.05 L6.95 0.65 Q7.55 1.1 8.05 2.1 8.55 3.05 8.85 4.65 L9.05 8.1 9.05 11.8 8.85 15.2 Q8.6 16.75 7.2 18.0 5.8 19.2 2.1 18.6 1.4 18.6 0.6 17.05 0.1 16.2 0.05 15.2 -0.1 13.85 0.4 11.95 L0.95 8.15 Q1.0 6.3 1.45 4.85 1.85 3.4 2.75 2.05" fill="#f4c016" fill-rule="evenodd" stroke="none"/>
      <path d="M5.2 6.4 Q5.55 3.5 5.25 1.5 4.9 -0.55 6.55 0.75 8.2 2.0 8.55 5.0 L8.95 11.9 Q9.0 15.75 7.4 17.25 5.75 18.75 2.95 18.3 0.15 17.85 0.7 13.7 3.25 15.8 4.05 12.55 L5.2 6.4" fill="#ec9011" fill-rule="evenodd" stroke="none"/>
      <path d="M3.1 18.7 L2.0 18.4 Q0.95 17.65 0.7 16.35 0.6 15.95 0.65 15.25 1.35 15.5 3.35 14.5 8.05 12.15 8.55 7.95 8.95 11.95 8.55 14.9 8.2 17.3 6.15 18.3 4.8 18.9 3.1 18.7" fill="#ffc862" fill-rule="evenodd" stroke="none"/>
      <path d="M2.1 5.15 Q1.1 8.55 0.9 11.0 L1.05 9.55 Q1.45 5.7 2.25 3.55 3.0 1.35 3.9 0.75 4.75 0.1 5.2 0.1 5.65 0.05 6.25 0.75 3.1 1.7 2.1 5.15" fill="#ec9011" fill-rule="evenodd" stroke="none"/>
      <path d="M8.35 9.1 Q6.65 12.6 4.15 13.8 5.45 10.0 5.6 7.25 L5.7 2.95 5.7 0.9 6.2 1.15 Q8.1 2.5 8.35 4.8 8.6 7.05 8.35 9.1" fill="#9e4300" fill-rule="evenodd" stroke="none"/>
      <path d="M0.75 13.5 Q0.95 10.0 1.5 7.25 2.05 4.5 2.9 3.2 3.75 1.9 4.65 1.4 L3.95 8.65 Q3.45 11.95 2.7 12.6 1.9 13.2 0.75 13.5" fill="#f6ff62" fill-rule="evenodd" stroke="none"/>
    </g>
    <g id="sprite6">
      <use ffdec:characterId="14" height="16.5" transform="matrix(1.0, 0.0, 0.0, 1.0, 0.0, 0.0)" width="11.95" xlink:href="#shape8"/>
      <use ffdec:characterId="4" height="10.85" transform="matrix(1.0, -0.1651, 0.0, 1.0, -1.1, 6.8)" width="10.85" xlink:href="#sprite2"/>
    </g>
    <g id="shape8">
      <path d="M7.6 0.1 L8.55 0.4 Q9.35 0.65 10.8 2.05 12.25 3.45 11.85 8.15 11.45 12.8 7.9 14.9 4.3 16.95 2.05 16.35 -0.25 15.75 0.0 12.9 1.8 -1.0 7.6 0.1" fill="#f4c016" fill-rule="evenodd" stroke="none"/>
      <path d="M9.85 12.35 Q8.9 13.75 7.4 14.7 5.85 15.65 2.95 15.85 0.0 16.0 0.35 12.45 4.1 13.9 6.2 10.55 8.2 7.2 8.05 4.0 7.9 0.8 6.95 0.35 10.55 1.4 11.2 4.45 11.75 7.45 11.3 9.2 L9.85 12.35" fill="#ec9011" fill-rule="evenodd" stroke="none"/>
      <path d="M10.8 8.6 Q9.7 12.95 7.55 14.0 5.4 15.0 3.4 14.45 7.05 13.25 8.65 9.65 10.2 6.0 9.05 1.55 11.9 4.2 10.8 8.6" fill="#9e4300" fill-rule="evenodd" stroke="none"/>
      <path d="M5.6 12.55 Q9.0 11.75 11.25 9.85 9.35 14.35 5.35 15.6 1.3 16.85 0.3 14.3 0.05 12.6 0.45 11.9 2.15 13.3 5.6 12.55" fill="#ffc862" fill-rule="evenodd" stroke="none"/>
      <path d="M2.5 12.75 L3.0 13.1 Q3.35 13.6 3.1 14.1 2.8 14.7 2.2 14.5 L1.5 14.2 0.65 13.75 Q0.35 13.45 0.5 13.05 0.6 12.65 1.0 12.55 L1.45 12.5 2.5 12.75" fill="#f4c016" fill-rule="evenodd" stroke="none"/>
      <path d="M0.4 13.05 Q0.6 11.6 0.85 11.05 L1.25 10.25 Q1.3 11.9 1.75 12.7 L2.1 13.5 0.7 13.45 0.4 13.05" fill="#ed9010" fill-rule="evenodd" stroke="none"/>
      <path d="M2.35 14.4 L2.15 14.45 1.65 14.4 1.3 14.05 1.05 13.85 Q0.8 13.6 1.05 13.3 L1.45 13.2 1.85 13.3 Q2.35 13.4 2.45 13.7 L2.5 13.75 2.45 14.25 2.35 14.4" fill="#9e4300" fill-rule="evenodd" stroke="none"/>
      <path d="M8.4 13.95 Q6.55 15.4 6.15 15.25 8.85 13.6 11.05 9.85 10.2 12.45 8.4 13.95 M5.9 15.4 L4.3 16.05 3.4 16.2 2.65 15.95 Q2.25 15.65 3.4 15.5 L5.9 15.4" fill="#9e4300" fill-rule="evenodd" stroke="none"/>
      <path d="M7.25 5.9 L6.7 8.6 Q6.25 10.0 5.35 10.75 3.0 12.7 1.7 12.0 0.3 11.15 1.7 7.5 2.75 4.9 4.25 2.25 5.6 0.15 6.75 1.8 7.5 3.85 7.25 5.9" fill="#ffe342" fill-rule="evenodd" stroke="none"/>
      <path d="M6.55 4.3 Q6.3 5.85 5.35 5.85 4.4 5.9 3.25 7.1 2.1 8.25 1.05 10.4 L2.25 6.2 Q3.6 2.75 4.3 2.0 4.9 1.3 5.55 1.3 6.2 1.3 6.5 2.05 6.8 2.75 6.55 4.3" fill="#f6ff62" fill-rule="evenodd" stroke="none"/>
      <path d="M3.05 3.8 Q4.6 0.5 6.2 1.25 4.25 3.0 3.35 4.9 2.4 6.75 0.9 10.85 1.5 7.1 3.05 3.8" fill="#ffffff" fill-rule="evenodd" stroke="none"/>
    </g>
    <g id="sprite7">
      <use ffdec:characterId="16" height="10.7" transform="matrix(1.0, 0.0, 0.0, 1.0, 0.0, 0.0)" width="7.15" xlink:href="#shape9"/>
      <use ffdec:characterId="4" height="10.85" transform="matrix(0.2113, 0.7269, -0.7269, 0.2113, 6.8, 2.45)" width="10.85" xlink:href="#sprite2"/>
      <use ffdec:characterId="17" height="2.6" transform="matrix(1.0, 0.0, 0.0, 1.0, 0.0, 0.0)" width="3.35" xlink:href="#shape10"/>
    </g>
    <g id="shape9">
      <path d="M1.3 10.65 Q-1.4 6.4 1.05 0.85 5.4 0.65 6.65 5.65 7.9 10.6 5.25 11.3 2.55 12.0 1.3 10.65" fill="#ec9011" fill-rule="evenodd" stroke="none"/>
      <path d="M1.95 9.8 L1.2 9.5 Q-0.35 6.75 0.45 3.6 0.75 2.45 1.35 1.3 2.2 0.9 3.3 5.0 L4.6 10.1 1.95 9.8" fill="#f4c016" fill-rule="evenodd" stroke="none"/>
      <path d="M3.6 6.1 Q2.75 2.75 1.45 1.25 4.1 1.25 5.3 3.65 6.5 6.0 6.8 9.05 L4.2 9.1 3.6 6.1" fill="#9e4300" fill-rule="evenodd" stroke="none"/>
      <path d="M0.8 6.15 Q0.35 4.6 1.0 3.1 1.6 1.6 2.65 3.35 3.35 4.9 3.05 6.65 1.8 7.7 1.0 6.65 L0.8 6.15" fill="#ffe342" fill-rule="evenodd" stroke="none"/>
      <path d="M0.05 5.75 Q0.0 4.35 0.5 3.4 L0.8 4.2 0.8 5.6 0.05 5.75" fill="#9e4300" fill-rule="evenodd" stroke="none"/>
      <path d="M6.45 9.6 Q4.0 11.95 1.95 10.4 -0.1 8.85 0.15 6.1 0.85 5.35 1.75 5.85 L3.15 6.8 Q4.9 7.75 6.5 7.65 7.45 8.95 6.45 9.6" fill="#ffc862" fill-rule="evenodd" stroke="none"/>
      <path d="M1.5 4.2 L1.35 3.65 1.3 3.6 1.25 2.9 1.4 2.65 Q1.45 2.45 1.75 2.45 1.95 2.45 2.05 2.65 L2.2 2.85 2.25 3.9 2.2 4.1 2.1 4.25 1.75 4.35 1.5 4.2" fill="#f6ff62" fill-rule="evenodd" stroke="none"/>
    </g>
    <g id="shape10">
      <path d="M5.9 8.75 Q6.1 9.2 5.8 9.75 L4.75 10.5 3.55 10.7 2.7 10.1 Q2.5 9.6 2.9 9.1 3.2 8.55 3.85 8.25 L5.15 8.15 Q5.7 8.25 5.9 8.75" fill="#f4c016" fill-rule="evenodd" stroke="none"/>
      <path d="M3.25 9.4 L3.45 9.05 3.7 8.9 4.15 8.85 4.55 8.95 4.6 9.4 4.4 10.0 4.1 10.3 3.65 10.45 3.3 10.45 3.05 10.25 3.0 10.0 3.05 9.6 3.25 9.4" fill="#ffe342" fill-rule="evenodd" stroke="none"/>
    </g>
    <g id="sprite8">
      <use ffdec:characterId="19" height="9.25" transform="matrix(1.0, 0.0, 0.0, 1.0, 0.0, 0.0)" width="15.1" xlink:href="#shape11"/>
      <use ffdec:characterId="4" height="10.85" transform="matrix(1.0, 0.0, 0.0, 1.0, 3.3, -1.3)" width="10.85" xlink:href="#sprite2"/>
    </g>
    <g id="shape11">
      <path d="M14.25 6.6 Q11.3 10.15 5.45 8.9 0.05 7.65 0.0 5.05 -0.05 2.4 2.25 0.9 4.5 -0.55 9.05 0.35 13.6 1.2 15.1 4.7 L14.25 6.6" fill="#f4c016" fill-rule="evenodd" stroke="none"/>
      <path d="M1.1 2.4 Q2.7 3.65 7.45 3.95 15.9 2.85 14.4 5.05 12.85 7.25 10.3 7.4 L5.7 7.75 Q3.0 8.1 1.25 6.5 -0.55 4.9 1.1 2.4" fill="#ed9010" fill-rule="evenodd" stroke="none"/>
      <path d="M11.7 2.2 Q9.25 1.35 6.55 1.1 5.85 1.25 4.25 1.95 2.65 2.65 1.75 3.3 0.8 3.95 1.25 2.5 1.65 1.0 5.45 0.8 9.25 0.55 11.35 1.5 13.4 2.45 14.4 3.75 13.55 3.0 11.7 2.2" fill="#ec9011" fill-rule="evenodd" stroke="none"/>
      <path d="M8.25 1.7 L13.6 5.1 2.7 4.7 Q5.6 3.5 5.3 2.15 5.0 0.75 2.8 1.25 5.25 -0.2 11.0 1.4 7.2 0.75 8.25 1.7" fill="#9e4300" fill-rule="evenodd" stroke="none"/>
      <path d="M3.35 4.55 L1.35 4.35 Q0.35 4.0 0.7 3.25 1.05 2.45 1.85 1.95 2.6 1.4 3.65 1.25 L6.05 1.1 4.9 4.25 3.35 4.55" fill="#ffe342" fill-rule="evenodd" stroke="none"/>
      <path d="M14.85 5.05 L13.8 6.8 Q11.8 8.25 10.2 8.6 L6.3 8.7 Q3.95 8.45 1.05 6.6 -0.65 4.6 2.55 4.9 L14.85 5.05" fill="#ffc862" fill-rule="evenodd" stroke="none"/>
      <path d="M14.6 4.55 L11.4 2.25 Q10.35 1.65 9.55 1.5 L11.9 1.7 Q13.0 2.05 13.8 3.15 14.6 4.2 14.6 4.55" fill="#f6ff62" fill-rule="evenodd" stroke="none"/>
      <path d="M2.15 4.6 L5.05 3.85 6.8 3.65 Q9.3 3.25 13.55 4.85 L2.15 4.6" fill="#662b00" fill-rule="evenodd" stroke="none"/>
      <path d="M1.4 1.95 L2.4 1.35 5.3 1.3 Q1.5 1.8 0.4 3.7 0.9 2.3 1.4 1.95" fill="#ec9011" fill-rule="evenodd" stroke="none"/>
      <path d="M13.65 7.0 Q11.65 9.4 8.55 8.45 8.1 8.3 7.7 8.0 L14.15 5.8 13.65 7.0" fill="#f4c016" fill-rule="evenodd" stroke="none"/>
      <path d="M9.25 8.2 L13.1 6.75 Q13.05 7.4 11.85 8.05 L9.25 8.2" fill="#f6ff62" fill-rule="evenodd" stroke="none"/>
      <path d="M1.15 4.3 Q3.65 5.75 1.1 6.3 -0.75 4.05 1.35 2.15 L1.15 4.3" fill="#ed9010" fill-rule="evenodd" stroke="none"/>
      <path d="M2.5 1.85 L7.8 1.55 1.65 2.7 Q1.8 2.3 2.5 1.85" fill="#ffffff" fill-rule="evenodd" stroke="none"/>
    </g>
    <g id="sprite9">
      <use ffdec:characterId="21" height="16.45" transform="matrix(1.0, 0.0, 0.0, 1.0, 0.0, 0.0)" width="12.85" xlink:href="#shape12"/>
      <use ffdec:characterId="4" height="10.85" transform="matrix(0.7401, 0.002, 0.195, 0.8824, 3.35, 6.85)" width="10.85" xlink:href="#sprite2"/>
    </g>
    <g id="shape12">
      <path d="M0.3 5.45 Q-0.75 -0.55 1.65 0.05 4.0 0.65 6.75 2.65 9.5 4.6 11.95 10.7 14.4 16.75 10.1 16.45 5.8 16.15 4.4 12.3 2.95 8.4 0.3 5.45" fill="#ec9011" fill-rule="evenodd" stroke="none"/>
      <path d="M5.0 12.45 L3.6 9.5 1.85 6.7 Q0.75 5.25 0.8 4.45 L1.05 3.4 1.15 2.0 1.2 1.6 1.9 1.7 6.85 5.3 Q9.4 7.1 10.75 8.45 L11.2 9.0 11.6 9.9 12.45 13.55 12.4 14.55 Q12.15 15.1 11.3 15.3 L10.15 15.5 8.6 15.55 Q6.9 15.35 5.7 13.8 L5.0 12.45" fill="#f4c016" fill-rule="evenodd" stroke="none"/>
      <path d="M5.4 9.7 L4.2 7.95 Q3.4 6.85 2.0 6.15 0.6 5.4 0.55 3.6 0.5 2.85 0.6 2.15 L0.65 2.0 0.8 2.25 1.65 4.6 2.75 5.7 Q4.55 7.15 5.35 9.1 L5.9 10.35 5.95 10.5 5.4 9.7" fill="#ec9011" fill-rule="evenodd" stroke="none"/>
      <path d="M3.0 1.05 Q5.7 3.8 6.0 5.5 L6.05 7.2 Q2.85 6.05 1.15 3.65 0.3 2.4 0.7 1.05 L1.15 0.5 1.8 0.55 3.0 1.05" fill="#ffe342" fill-rule="evenodd" stroke="none"/>
      <path d="M11.65 10.45 L6.0 7.5 Q5.55 3.15 1.9 0.3 9.1 3.15 11.65 10.45" fill="#9e4300" fill-rule="evenodd" stroke="none"/>
      <path d="M1.4 3.15 L1.35 3.15 1.2 3.0 1.15 2.85 1.15 2.75 1.05 2.65 1.0 2.3 0.95 2.3 Q0.9 1.95 1.0 1.8 L1.1 1.7 1.3 1.55 1.25 1.5 1.7 1.35 1.8 1.4 1.9 1.35 1.95 1.4 2.35 1.55 2.4 1.65 2.85 2.05 3.15 2.35 3.3 2.4 3.4 2.55 3.6 3.0 3.6 3.15 3.65 3.3 3.7 3.3 3.65 3.5 3.7 3.7 3.6 3.9 3.65 3.95 3.4 4.05 2.85 4.1 2.65 4.05 2.6 4.1 2.45 4.0 2.15 3.9 1.75 3.65 1.65 3.55 1.5 3.4 1.45 3.25 1.4 3.15" fill="#f6ff62" fill-rule="evenodd" stroke="none"/>
      <path d="M2.95 2.5 L2.7 2.7 2.6 2.65 2.45 2.7 2.15 2.55 2.0 2.6 1.6 2.3 Q1.35 2.1 1.4 1.9 L1.3 1.85 Q1.45 1.4 1.95 1.3 L2.15 1.35 2.55 1.55 2.85 1.8 3.0 2.15 2.95 2.5" fill="#ffffff" fill-rule="evenodd" stroke="none"/>
      <path d="M1.2 2.5 L1.1 2.95 0.8 3.1 0.55 2.95 0.4 2.5 Q0.4 2.25 0.55 2.1 0.65 1.9 0.8 1.9 L1.1 2.1 1.2 2.5" fill="#9e4300" fill-rule="evenodd" stroke="none"/>
    </g>
    <g id="sprite10">
      <use ffdec:characterId="23" height="3.6" transform="matrix(1.0, 0.0, 0.0, 1.0, 0.0, 0.0)" width="4.5" xlink:href="#shape13"/>
    </g>
    <g id="shape13">
      <path d="M3.2 1.4 L3.4 1.65 3.6 1.55 4.1 1.65 Q4.8 2.2 4.2 3.15 3.6 4.0 2.95 3.25 L2.9 3.15 1.75 3.6 Q-0.05 3.8 0.0 1.9 0.05 -0.1 1.65 0.0 2.05 0.05 2.5 0.5 L3.2 1.4" fill="#f4c016" fill-rule="evenodd" stroke="none"/>
      <path d="M3.85 2.6 L3.85 2.65 3.55 2.75 3.5 2.65 3.15 2.4 3.1 2.2 3.15 2.05 3.25 1.95 3.6 1.85 3.85 1.95 3.85 2.05 3.95 2.15 3.95 2.55 3.85 2.6 M2.3 0.75 L2.95 1.85 1.75 2.6 1.65 2.45 1.7 2.45 1.85 1.95 1.9 1.7 1.95 1.7 1.95 1.0 1.9 0.9 1.85 0.6 2.2 0.5 2.3 0.75" fill="#9e4300" fill-rule="evenodd" stroke="none"/>
      <path d="M0.35 2.55 Q0.2 2.35 0.2 1.8 L0.4 1.05 Q0.65 0.6 1.05 0.6 L1.15 0.55 Q1.75 0.55 1.95 1.2 L1.8 2.2 1.05 2.8 Q0.55 2.9 0.35 2.55" fill="#ffe242" fill-rule="evenodd" stroke="none"/>
      <path d="M2.8 1.8 L2.8 1.75 2.95 1.8 3.0 1.85 3.0 1.9 3.05 1.95 3.0 2.05 3.0 2.1 2.8 2.2 2.7 2.15 2.65 2.1 2.65 2.0 2.6 1.95 2.65 1.9 2.65 1.85 2.7 1.8 2.8 1.8" fill="#ffe242" fill-rule="evenodd" stroke="none"/>
      <path d="M2.65 1.9 L2.65 1.8 2.7 1.75 2.7 1.7 2.8 1.6 2.9 1.6 3.0 1.7 3.05 1.8 3.0 1.9 3.0 2.05 2.9 2.15 2.8 2.2 2.75 2.15 2.65 2.1 2.65 2.05 2.6 2.0 2.65 1.9" fill="#ffe242" fill-rule="evenodd" stroke="none"/>
      <path d="M3.9 2.0 L3.9 1.95 4.2 2.05 4.25 2.15 4.3 2.2 4.3 2.25 4.35 2.3 4.3 2.45 4.2 2.6 4.05 2.65 3.95 2.6 3.9 2.6 3.75 2.45 3.65 2.35 3.65 2.25 3.6 2.15 Q3.7 2.0 3.9 2.0" fill="#ffe242" fill-rule="evenodd" stroke="none"/>
      <path d="M1.3 3.05 L2.35 2.85 2.75 2.65 3.1 2.6 3.9 3.1 3.8 3.4 3.55 3.45 Q3.25 3.45 3.35 3.2 L2.95 2.95 2.65 3.05 1.75 3.3 0.95 3.2 1.1 3.05 1.3 3.05" fill="#ed9010" fill-rule="evenodd" stroke="none"/>
      <path d="M1.7 2.05 L1.85 2.4 1.6 2.75 1.4 2.9 1.15 2.9 0.65 2.85 0.55 2.75 0.25 2.2 0.2 2.1 0.25 2.05 0.2 1.9 0.2 1.65 0.45 1.6 0.6 1.9 0.75 2.15 1.3 2.2 1.5 2.05 1.7 2.05" fill="#f6ff61" fill-rule="evenodd" stroke="none"/>
      <path d="M1.25 0.7 Q1.1 0.55 1.35 0.55 L1.6 0.6 2.0 0.9 2.05 1.55 2.1 1.7 1.95 2.45 Q1.8 2.45 1.8 2.6 L1.65 2.65 1.5 2.6 1.4 2.35 1.55 2.15 1.65 1.55 1.65 1.15 1.4 0.8 1.25 0.7" fill="#f6ff61" fill-rule="evenodd" stroke="none"/>
      <path d="M2.7 2.25 L2.65 2.2 2.55 2.2 2.5 2.0 2.55 1.85 2.6 1.8 2.6 1.75 2.7 1.7 2.8 1.7 2.8 1.65 3.05 1.75 3.1 1.85 3.1 1.95 3.05 2.0 3.05 2.05 3.0 2.1 3.0 2.15 2.95 2.2 2.9 2.3 2.7 2.25" fill="#f6ff61" fill-rule="evenodd" stroke="none"/>
      <path d="M3.85 2.35 L4.0 2.2 4.1 2.2 4.25 2.35 4.25 2.45 4.15 2.55 4.15 2.6 3.95 2.6 3.85 2.5 3.85 2.35" fill="#f6ff61" fill-rule="evenodd" stroke="none"/>
    </g>
    <g id="shape14">
      <path d="M-17.85 -10.65 Q-16.95 -14.0 -15.95 -15.25 L-15.3 -16.0 Q-16.55 -14.3 -17.2 -11.3 L-17.9 -7.05 -17.85 -5.05 Q-18.1 -5.15 -18.15 -5.2 L-18.5 -5.35 -18.7 -5.55 -18.55 -7.4 -17.85 -10.65" fill="#faffa8" fill-rule="evenodd" stroke="none"/>
      <path d="M-17.25 -4.4 L-19.0 -5.5 Q-16.05 -5.1 -15.0 -2.2 L-12.6 -2.5 Q-13.25 -2.05 -13.85 -1.9 L-15.0 -1.7 Q-15.15 -0.6 -15.95 0.15 L-16.45 0.7 Q-15.95 -0.2 -15.35 -2.0 -16.2 -3.6 -17.25 -4.4" fill="#faffa8" fill-rule="evenodd" stroke="none"/>
      <path d="M-11.85 5.15 L-13.5 7.95 Q-13.45 6.4 -12.7 5.15 -12.0 3.85 -10.7 3.05 -10.05 2.7 -9.1 3.25 -10.65 3.25 -11.85 5.15" fill="#faffa8" fill-rule="evenodd" stroke="none"/>
      <path d="M-15.6 5.25 L-14.3 6.7 Q-13.5 7.25 -12.85 7.2 -14.3 7.55 -15.2 6.45 -16.15 5.35 -16.3 4.1 L-15.6 5.25" fill="#faffa8" fill-rule="evenodd" stroke="none"/>
      <path d="M0.75 6.25 Q0.6 4.9 1.1 3.4 1.6 1.9 2.95 2.8 1.0 2.3 0.8 6.8 L0.75 6.25" fill="#faffa8" fill-rule="evenodd" stroke="none"/>
      <path d="M4.4 15.9 Q4.75 17.4 4.05 15.65 L2.7 12.0 1.55 9.45 0.85 7.85 0.8 6.9 0.8 6.85 Q1.25 8.9 2.5 10.85 L3.55 13.0 4.4 15.9" fill="#ffe242" fill-rule="evenodd" stroke="none"/>
      <path d="M4.05 3.25 L2.4 2.45 0.9 1.75 Q2.4 1.25 4.05 3.25" fill="#faffa8" fill-rule="evenodd" stroke="none"/>
      <path d="M-23.0 -10.9 Q-22.45 -14.3 -21.6 -15.65 L-21.0 -16.5 Q-22.1 -14.65 -22.45 -11.65 L-22.7 -7.3 -22.6 -6.55 -23.4 -6.55 -23.35 -7.6 -23.0 -10.9" fill="#faffa8" fill-rule="evenodd" stroke="none"/>
      <path d="M-26.2 -3.7 Q-26.2 -3.25 -26.5 -2.9 -26.85 -2.6 -27.3 -2.6 -27.75 -2.6 -28.05 -2.9 -28.4 -3.25 -28.4 -3.7 -28.4 -4.15 -28.05 -4.45 -27.75 -4.8 -27.3 -4.8 -26.85 -4.8 -26.5 -4.45 -26.2 -4.15 -26.2 -3.7" fill="#ffffff" fill-rule="evenodd" stroke="none"/>
      <path d="M-31.15 -3.85 L-31.15 -3.75 -31.2 -3.8 -31.4 -3.85 -31.7 -3.8 -31.9 -3.6 -32.1 -3.35 -32.15 -3.4 -32.35 -3.85 -32.15 -4.25 -31.75 -4.45 -31.3 -4.25 -31.15 -3.85" fill="#ffffff" fill-rule="evenodd" stroke="none"/>
      <path d="M-14.6 14.05 Q-13.95 11.6 -13.8 9.95 L-13.5 7.8 -14.1 13.0 Q-14.45 15.25 -14.45 17.8 -14.5 20.3 -13.3 21.65 -16.05 19.75 -15.55 17.1 L-14.6 14.05" fill="#ffe242" fill-rule="evenodd" stroke="none"/>
    </g>
  </defs>
</svg>
