<?xml version="1.0" encoding="UTF-8" standalone="no"?>
<svg xmlns:ffdec="https://www.free-decompiler.com/flash" xmlns:xlink="http://www.w3.org/1999/xlink" ffdec:objectType="frame" height="34.85px" width="38.0px" xmlns="http://www.w3.org/2000/svg">
  <g transform="matrix(1.0, 0.0, 0.0, 1.0, 18.7, 70.9)">
    <filter color-interpolation-filters="sRGB" height="300%" id="filter0" width="300%" x="-100%" y="-100%">
      <feOffset dx="0.0" dy="0.0" in="SourceGraphic" result="filterResult0"/>
      <feColorMatrix in="filterResult0" result="filterResult1" type="matrix" values="0 0 0 0 0.0,0 0 0 0 0.0,0 0 0 0 0.0,0 0 0 1.0 0"/>
      <feGaussianBlur in="filterResult1" result="filterResult2" stdDeviation="0.816496580927726 0.816496580927726"/>
      <feColorMatrix in="filterResult2" result="filterResult3" type="matrix" values="1 0 0 0 0,0 1 0 0 0,0 0 1 0 0,0 0 0 10.0 0"/>
      <feComposite in="SourceGraphic" in2="filterResult3" operator="over" result="filterResult4"/>
      <feColorMatrix in="filterResult4" result="filterResult5" type="matrix" values="-1.148 2.8600001 0.28799984 0.0 -0.87647057 0.852 0.8599999 0.28800005 0.0 -0.8764705 0.8520001 2.8599997 -1.7119999 0.0 -0.8764705 0.0 0.0 0.0 1.0 0.0"/>
    </filter>
    <use ffdec:characterId="20" filter="url(#filter0)" height="49.8" transform="matrix(0.7, 0.0, 0.0, 0.7, -0.75, -53.75)" width="54.35" xlink:href="#sprite0"/>
  </g>
  <defs>
    <g id="sprite0">
      <use ffdec:characterId="1" height="49.4" transform="matrix(1.0, 0.0, 0.0, 1.0, 0.0, 0.0)" width="48.15" xlink:href="#shape0"/>
    </g>
    <g id="shape0">
      <path d="M2.65 -24.45 L-1.7 -8.95 -1.8 -8.8 -1.9 -8.75 -2.1 -8.7 -2.15 -8.65 -2.2 -8.65 -6.9 -7.3 -2.5 -22.25 2.65 -24.45" fill="#9c937f" fill-rule="evenodd" stroke="none"/>
      <path d="M2.65 -24.45 L2.75 -24.4 8.95 -8.15 23.6 -1.55 10.2 7.9 5.95 24.95 -0.75 8.4 -19.9 -2.2 -2.2 -8.65 -2.15 -8.65 -2.1 -8.7 -1.9 -8.75 -1.8 -8.8 -1.7 -8.95 2.65 -24.45 M2.0 2.2 Q4.4 4.3 6.25 2.85 8.3 1.05 7.55 -1.95 6.3 -5.1 4.25 -5.2 1.8 -5.25 1.0 -2.8 0.35 0.9 2.0 2.2" fill="#fff000" fill-rule="evenodd" stroke="none"/>
      <path d="M-2.2 -8.65 L-19.9 -2.2 -24.3 -0.95 -6.9 -7.3 -2.2 -8.65" fill="#282723" fill-rule="evenodd" stroke="none"/>
      <path d="M-19.9 -2.2 L-0.75 8.4 -6.0 9.1 -24.5 -0.85 -24.55 -0.9 -24.3 -0.95 -19.9 -2.2" fill="#6a6458" fill-rule="evenodd" stroke="none"/>
      <path d="M1.0 -2.8 Q1.8 -5.25 4.25 -5.2 6.3 -5.1 7.55 -1.95 8.3 1.05 6.25 2.85 4.4 4.3 2.0 2.2 3.0 -0.25 1.0 -2.8" fill="#8e8776" fill-rule="evenodd" stroke="none"/>
      <path d="M-0.75 8.4 L5.95 24.95 0.45 24.75 -6.0 9.1 -0.75 8.4" fill="#b4ab93" fill-rule="evenodd" stroke="none"/>
    </g>
  </defs>
</svg>
