<?xml version="1.0" encoding="UTF-8" standalone="no"?>
<svg xmlns:ffdec="https://www.free-decompiler.com/flash" xmlns:xlink="http://www.w3.org/1999/xlink" ffdec:objectType="frame" height="70.35px" width="78.05px" xmlns="http://www.w3.org/2000/svg">
  <g transform="matrix(1.0, 0.0, 0.0, 1.0, 38.1, 74.55)">
    <use ffdec:characterId="15" height="70.35" transform="matrix(1.0, 0.0, 0.0, 1.0, 0.9, -39.35)" width="78.05" xlink:href="#sprite0"/>
  </g>
  <defs>
    <g id="sprite0">
      <use ffdec:characterId="2" height="38.05" transform="matrix(0.9998, 0.0037, -0.019, 1.0001, 23.25, -16.1)" width="30.85" xlink:href="#sprite1"/>
      <use ffdec:characterId="2" height="38.05" transform="matrix(-0.9998, -0.0037, -0.019, 1.0001, -23.2, -15.8)" width="30.85" xlink:href="#sprite1"/>
      <use ffdec:characterId="9" height="9.45" transform="matrix(1.0, 0.0, 0.0, 1.0, 4.5, 30.45)" width="11.4" xlink:href="#sprite2"/>
      <use ffdec:characterId="14" height="40.95" transform="matrix(1.0, 0.0, 0.0, 1.0, 0.0, 0.0)" width="56.8" xlink:href="#shape2"/>
      <use ffdec:characterId="7" height="14.8" transform="matrix(0.7974, 0.0201, -0.0323, 0.7979, -20.15, 7.0)" width="15.6" xlink:href="#sprite3"/>
      <use ffdec:characterId="7" height="14.8" transform="matrix(0.7974, 0.0201, -0.0323, 0.7979, 7.85, 7.0)" width="15.6" xlink:href="#sprite3"/>
      <use ffdec:characterId="11" height="14.15" transform="matrix(1.0, 0.0, 0.0, 1.0, -0.9, 19.65)" width="18.75" xlink:href="#sprite4"/>
      <use ffdec:characterId="4" height="15.2" transform="matrix(1.0, 0.0, 0.0, 1.0, -25.95, -2.15)" width="17.55" xlink:href="#sprite5"/>
      <use ffdec:characterId="4" height="15.2" transform="matrix(-1.0, 0.0, 0.0, 1.0, 26.25, -2.8)" width="17.55" xlink:href="#sprite5"/>
    </g>
    <g id="sprite1">
      <use ffdec:characterId="1" height="38.05" transform="matrix(1.0, 0.0, 0.0, 1.0, 0.0, 0.0)" width="30.85" xlink:href="#shape0"/>
    </g>
    <g id="shape0">
      <path d="M9.8 0.6 L8.5 1.7 7.35 2.3 Q8.1 1.75 8.1 1.3 L8.05 1.1 9.8 0.6 M5.05 3.15 L3.55 3.65 1.25 4.5 1.5 3.75 1.5 3.6 2.45 3.25 3.4 3.45 4.55 3.15 4.8 3.15 5.05 3.15 M-1.6 6.05 L-1.7 6.1 -3.75 8.6 -4.95 10.8 -4.9 8.85 -4.4 7.8 Q-3.8 6.95 -1.95 5.7 L-1.6 6.05 M-8.9 13.0 L-8.85 12.95 -8.7 13.25 -8.9 13.0" fill="#83290d" fill-rule="evenodd" stroke="none"/>
      <path d="M11.1 -17.6 Q10.95 -17.4 10.95 -16.95 L11.15 -16.2 10.5 -17.25 Q10.5 -17.85 11.1 -17.6 M12.3 -13.85 L13.1 -13.35 13.25 -12.65 13.35 -12.35 13.65 -11.2 13.35 -8.4 13.05 -7.95 Q12.85 -7.6 12.8 -6.8 11.9 -4.9 10.3 -3.35 L6.9 -0.4 Q6.8 -0.1 4.65 0.6 2.45 1.25 2.15 1.6 1.55 1.9 1.0 2.15 0.55 1.85 -0.25 2.15 -1.35 2.55 -1.75 3.6 -3.7 4.6 -4.55 5.3 -7.95 7.9 -7.95 11.55 -7.95 14.4 -6.95 14.4 -6.5 14.4 -5.8 11.7 L-4.9 8.85 -4.95 10.8 -4.95 12.05 -4.95 12.3 Q-5.4 12.3 -5.4 12.75 L-5.55 13.95 Q-5.85 15.15 -6.75 15.15 -8.3 15.15 -9.2 13.55 -9.9 12.4 -9.9 11.6 -9.9 9.6 -9.35 8.45 L-8.5 7.2 Q-8.9 8.1 -8.9 9.05 -8.85 11.3 -8.45 11.3 L-8.25 11.25 Q-8.5 8.25 -6.45 6.15 L-3.75 3.6 Q-2.95 2.95 -1.5 2.25 -0.1 1.6 0.15 1.35 L-2.95 2.35 -1.25 1.35 Q-0.35 0.75 0.6 -0.9 1.5 -2.5 1.5 -3.4 1.5 -5.65 0.7 -6.4 L0.65 -6.25 0.65 -6.2 0.1 -7.35 -0.15 -8.3 -0.45 -10.15 Q-0.05 -11.4 0.85 -11.7 L0.8 -11.55 0.8 -10.75 Q0.5 -10.35 0.5 -9.65 0.5 -8.1 1.1 -6.85 L2.45 -3.15 2.7 -4.85 1.8 -7.25 2.15 -9.05 2.25 -9.6 Q2.55 -10.15 2.55 -11.45 L2.55 -11.55 2.75 -11.6 2.85 -11.95 3.0 -11.55 3.45 -8.45 3.45 -7.95 Q4.15 -3.7 6.1 -3.45 7.95 -4.15 8.45 -6.45 8.85 -8.05 9.95 -8.65 10.15 -9.45 11.2 -9.9 12.35 -10.4 12.5 -7.9 12.9 -9.2 12.9 -10.65 12.9 -12.2 12.3 -13.85 M13.8 -13.4 L14.0 -13.55 13.8 -13.35 13.8 -13.4 M-1.6 -9.25 L-1.6 -9.4 -1.65 -8.85 -1.6 -9.25 M1.35 -13.1 L1.95 -12.9 1.45 -12.85 1.5 -12.95 1.35 -13.1 M4.8 -1.2 L4.85 -1.1 9.8 -4.1 Q12.0 -5.75 12.0 -7.55 12.0 -9.7 11.15 -8.35 L9.5 -5.55 7.85 -3.3 Q7.55 -2.85 6.35 -2.15 L4.8 -1.2 M2.35 3.15 L2.45 3.25 1.5 3.6 2.35 3.15 M-11.25 -1.8 L-11.1 -2.0 -10.85 -2.6 Q-10.85 -3.7 -11.55 -3.45 L-11.6 -3.4 -12.35 -3.0 Q-13.5 -1.9 -13.5 -0.35 -13.0 2.1 -12.0 2.1 L-11.7 2.05 -11.7 1.95 -11.35 -0.65 -11.25 -1.8 M-11.95 -3.95 Q-9.75 -3.3 -9.75 1.25 -9.75 4.5 -10.75 4.5 -12.8 4.5 -13.65 2.2 -14.1 1.05 -14.15 -0.2 -14.15 -4.6 -11.95 -3.95 M-1.2 -4.35 L-1.15 -5.35 -0.6 -3.85 -0.75 -3.75 Q-1.35 -3.75 -1.2 -4.35 M-7.95 5.4 L-8.0 5.35 -7.8 5.25 -7.95 5.4 M-5.95 4.15 L-6.3 4.45 -6.2 4.3 -5.95 4.15 M-8.9 13.0 L-8.7 13.25 -8.85 12.95 -8.9 13.0" fill="#ae4e18" fill-rule="evenodd" stroke="none"/>
      <path d="M13.1 -13.35 L13.25 -13.35 13.8 -13.4 13.8 -13.35 14.0 -13.55 14.05 -13.6 14.55 -13.95 Q15.25 -13.25 15.2 -12.5 L15.0 -10.85 14.95 -10.1 14.5 -9.3 14.0 -9.2 Q13.7 -9.0 13.35 -8.4 L13.65 -11.2 13.35 -12.35 13.25 -12.65 13.1 -13.35 M2.25 -9.6 L2.15 -9.05 1.8 -7.25 2.7 -4.85 2.45 -3.15 1.1 -6.85 Q0.5 -8.1 0.5 -9.65 0.5 -10.35 0.8 -10.75 0.9 -9.3 1.65 -9.3 2.0 -9.3 2.25 -9.6 M4.8 -1.2 L6.35 -2.15 Q7.55 -2.85 7.85 -3.3 L9.5 -5.55 11.15 -8.35 Q12.0 -9.7 12.0 -7.55 12.0 -5.75 9.8 -4.1 L4.85 -1.1 4.8 -1.2 M12.8 -6.8 L12.7 -6.15 Q12.6 -4.9 12.15 -4.2 11.05 -2.3 6.9 -0.4 L10.3 -3.35 Q11.9 -4.9 12.8 -6.8 M2.15 1.6 L2.1 1.85 2.1 2.75 2.35 3.15 1.5 3.6 Q1.45 2.5 1.0 2.15 1.55 1.9 2.15 1.6 M-1.75 3.6 L-2.0 4.95 -1.95 5.7 Q-3.8 6.95 -4.4 7.8 L-4.9 8.85 -5.8 11.7 Q-6.5 14.4 -6.95 14.4 -7.95 14.4 -7.95 11.55 -7.95 7.9 -4.55 5.3 -3.7 4.6 -1.75 3.6 M-11.25 -1.8 L-11.35 -0.65 -11.7 1.95 -11.7 2.05 -12.0 2.1 Q-13.0 2.1 -13.5 -0.35 -13.5 -1.9 -12.35 -3.0 L-11.6 -3.4 Q-12.3 -3.15 -12.3 -2.3 -12.3 -1.55 -11.7 -1.55 -11.5 -1.55 -11.25 -1.8" fill="#d57617" fill-rule="evenodd" stroke="none"/>
      <path d="M11.15 -16.2 L10.95 -16.95 Q10.95 -17.4 11.1 -17.6 11.45 -18.05 12.6 -17.05 L13.15 -16.5 Q14.25 -15.3 14.25 -14.0 L14.05 -13.6 14.0 -13.55 13.8 -13.4 13.25 -13.35 13.1 -13.35 12.3 -13.85 Q11.85 -14.3 11.5 -15.15 L11.15 -16.2 M2.55 -11.55 L2.55 -11.45 Q2.55 -10.15 2.25 -9.6 2.0 -9.3 1.65 -9.3 0.9 -9.3 0.8 -10.75 L0.8 -11.55 0.85 -11.7 Q0.9 -12.25 1.7 -12.35 2.5 -12.45 2.55 -11.55 M-11.6 -3.4 L-11.55 -3.45 Q-10.85 -3.7 -10.85 -2.6 L-11.1 -2.0 -11.25 -1.8 Q-11.5 -1.55 -11.7 -1.55 -12.3 -1.55 -12.3 -2.3 -12.3 -3.15 -11.6 -3.4" fill="#ffc489" fill-rule="evenodd" stroke="none"/>
      <path d="M-2.95 2.35 L0.15 1.35 Q-0.1 1.6 -1.5 2.25 -2.95 2.95 -3.75 3.6 L-6.45 6.15 Q-8.5 8.25 -8.25 11.25 L-8.45 11.3 Q-8.85 11.3 -8.9 9.05 -8.9 8.1 -8.5 7.2 -7.95 5.9 -6.55 4.65 L-6.3 4.45 -5.95 4.15 -2.95 2.35" fill="#e88929" fill-rule="evenodd" stroke="none"/>
      <path d="M14.5 -9.3 L14.75 -9.0 Q15.15 -8.35 15.15 -7.1 L14.7 -6.45 Q14.55 -4.75 13.2 -2.55 11.85 -0.3 9.8 0.6 L8.05 1.1 8.1 1.3 Q8.1 1.75 7.35 2.3 L7.15 2.4 Q6.2 3.1 5.05 3.15 L4.8 3.15 4.55 3.15 3.4 3.45 2.45 3.25 2.35 3.15 2.1 2.75 2.1 1.85 2.15 1.6 Q2.45 1.25 4.65 0.6 6.8 -0.1 6.9 -0.4 11.05 -2.3 12.15 -4.2 12.6 -4.9 12.7 -6.15 L12.8 -6.8 Q12.85 -7.6 13.05 -7.95 L13.35 -8.4 Q13.7 -9.0 14.0 -9.2 L14.5 -9.3 M1.25 4.5 L0.75 5.15 Q-0.05 6.2 -0.75 6.2 L-1.6 6.05 -1.95 5.7 -2.0 4.95 -1.75 3.6 Q-1.35 2.55 -0.25 2.15 0.55 1.85 1.0 2.15 1.45 2.5 1.5 3.6 L1.5 3.75 1.25 4.5" fill="#ff9589" fill-rule="evenodd" stroke="none"/>
      <path d="M11.1 -17.6 Q10.5 -17.85 10.5 -17.25 L11.15 -16.2 11.5 -15.15 Q11.85 -14.3 12.3 -13.85 12.9 -12.2 12.9 -10.65 12.9 -9.2 12.5 -7.9 12.35 -10.4 11.2 -9.9 10.15 -9.45 9.95 -8.65 8.85 -8.05 8.45 -6.45 7.95 -4.15 6.1 -3.45 4.15 -3.7 3.45 -7.95 L3.45 -8.45 3.0 -11.55 2.85 -11.95 2.75 -11.6 2.55 -11.55 Q2.5 -12.45 1.7 -12.35 0.9 -12.25 0.85 -11.7 -0.05 -11.4 -0.45 -10.15 L-0.15 -8.3 0.1 -7.35 0.65 -6.2 0.65 -6.25 0.7 -6.4 Q1.5 -5.65 1.5 -3.4 1.5 -2.5 0.6 -0.9 -0.35 0.75 -1.25 1.35 L-2.95 2.35 -5.95 4.15 -6.2 4.3 -6.3 4.45 -6.55 4.65 Q-7.95 5.9 -8.5 7.2 L-9.35 8.45 Q-9.9 9.6 -9.9 11.6 -9.9 12.4 -9.2 13.55 -8.3 15.15 -6.75 15.15 -5.85 15.15 -5.55 13.95 L-5.4 12.75 Q-5.4 12.3 -4.95 12.3 L-4.95 12.05 -4.8 12.3 -4.2 13.0 -3.85 13.2 Q-2.7 13.75 -2.7 15.3 -2.7 16.35 -3.25 16.8 -4.5 17.85 -8.6 17.85 -10.85 17.85 -12.2 13.3 -12.2 11.7 -11.6 10.4 -11.0 9.05 -11.0 7.8 L-12.35 6.1 -14.25 3.75 -14.95 1.6 -14.95 -0.25 Q-14.95 -1.3 -14.55 -2.45 -13.85 -4.4 -12.3 -4.4 -11.05 -4.4 -9.8 -1.3 L-8.4 1.8 Q-7.1 1.8 -5.05 0.95 L-2.95 -0.05 Q-1.8 -0.8 -1.45 -1.5 -1.3 -1.9 -1.3 -2.95 L-1.65 -4.95 -2.05 -7.1 -1.6 -9.25 -1.65 -8.85 -1.6 -9.4 -1.25 -10.55 -1.25 -11.0 Q-1.25 -11.6 -0.45 -12.4 0.1 -13.15 0.75 -13.15 L1.15 -13.1 1.2 -13.1 1.35 -13.1 1.5 -12.95 1.45 -12.85 1.95 -12.9 Q2.7 -12.95 2.85 -12.25 3.5 -11.45 3.75 -9.95 L3.9 -8.25 3.95 -8.15 3.95 -8.05 4.2 -7.35 4.75 -6.7 5.85 -6.7 Q7.9 -7.85 8.5 -9.3 L9.2 -11.95 9.4 -14.6 Q9.4 -16.2 10.05 -17.05 11.95 -19.6 13.15 -16.5 L12.6 -17.05 Q11.45 -18.05 11.1 -17.6 M-1.2 -4.35 Q-1.35 -3.75 -0.75 -3.75 L-0.6 -3.85 -1.15 -5.35 -1.2 -4.35 M-11.95 -3.95 Q-14.15 -4.6 -14.15 -0.2 -14.1 1.05 -13.65 2.2 -12.8 4.5 -10.75 4.5 -9.75 4.5 -9.75 1.25 -9.75 -3.3 -11.95 -3.95 M-7.95 5.4 L-7.8 5.25 -8.0 5.35 -7.95 5.4" fill="#542807" fill-rule="evenodd" stroke="none"/>
      <path d="M14.2 -16.6 Q15.85 -12.0 15.3 -7.05 14.75 -1.9 10.75 1.1 7.3 3.6 3.15 4.75 -1.7 6.3 -3.5 10.6 L-4.05 12.3 Q-2.7 14.2 -2.4 16.5 -4.75 20.0 -8.75 18.6 L-10.9 17.6 Q-12.7 16.9 -13.0 15.05 -13.5 11.75 -12.25 8.65 -15.3 5.6 -15.4 1.15 -15.55 -3.35 -13.5 -4.5 -11.45 -5.7 -10.75 -4.7 -9.75 -3.35 -9.65 -1.65 -9.6 -0.05 -8.7 1.45 -5.05 1.2 -3.1 -0.65 L-1.9 -2.2 Q-2.85 -7.2 -2.2 -9.65 -1.55 -12.15 -0.85 -13.15 -0.15 -14.15 1.7 -14.1 3.45 -13.55 3.95 -11.15 4.55 -8.0 5.0 -7.0 8.1 -8.3 8.6 -13.0 9.05 -17.7 9.6 -18.3 L10.3 -18.85 Q13.1 -19.7 14.2 -16.6 M13.05 -16.35 Q10.45 -19.15 10.4 -16.2 10.3 -13.3 9.05 -9.7 7.8 -6.15 5.6 -6.15 6.7 -5.2 7.85 -5.45 7.4 -4.1 5.5 -4.6 2.95 -5.4 3.25 -7.85 3.5 -10.35 2.25 -11.95 L1.7 -12.45 Q0.7 -13.25 -0.35 -12.1 -1.55 -10.9 -1.1 -7.95 L-0.7 -4.2 0.15 -6.05 Q0.45 -3.0 -1.2 -0.65 L-1.25 -0.6 Q-3.85 2.75 -7.15 2.65 -8.3 3.25 -7.6 4.8 L-7.75 5.1 Q-10.4 1.95 -10.6 -1.45 -10.65 -2.75 -11.4 -3.75 -12.9 -3.9 -13.75 -2.6 -15.3 -1.6 -14.55 2.3 -13.7 6.5 -9.65 6.65 -10.0 8.4 -11.25 10.8 -12.55 13.35 -10.8 15.6 -9.25 17.55 -6.7 17.5 -4.8 17.45 -3.3 16.4 L-3.05 15.15 -4.05 13.75 -4.05 14.65 -4.1 14.95 -4.2 15.1 Q-5.6 15.55 -5.75 13.8 -6.25 7.0 -0.15 4.5 5.0 2.5 8.6 0.7 12.2 -1.1 13.95 -7.35 15.65 -13.6 13.05 -16.35" fill="#000000" fill-rule="evenodd" stroke="none"/>
    </g>
    <g id="sprite2">
      <use ffdec:characterId="8" height="9.45" transform="matrix(1.0, 0.0, 0.0, 1.0, 0.0, 0.0)" width="11.4" xlink:href="#shape1"/>
    </g>
    <g id="shape1">
      <path d="M4.35 -2.55 L4.3 -1.9 4.85 -0.45 Q5.5 3.9 1.85 3.9 L1.25 3.8 0.1 3.65 Q-2.05 3.65 -4.0 0.85 L-5.45 -2.0 Q-5.75 -3.05 -5.3 -3.35 L-2.1 -4.3 2.3 -4.6 Q4.2 -4.2 4.4 -3.3 L4.35 -2.55 M0.3 2.2 Q1.3 2.2 1.3 1.0 1.3 0.2 0.7 -1.25 -0.15 -3.35 -1.55 -3.35 -2.75 -3.35 -2.75 -1.6 -2.75 -0.6 -2.25 0.45 -1.45 2.2 0.3 2.2 M3.75 -0.65 Q3.75 -1.7 3.2 -2.8 2.45 -4.2 1.2 -4.2 0.2 -4.2 0.2 -3.9 1.1 -2.75 1.45 -1.5 2.0 1.0 2.9 1.0 3.75 1.0 3.75 -0.65" fill="#ff6487" fill-rule="evenodd" stroke="none"/>
      <path d="M3.75 -0.65 Q3.75 1.0 2.9 1.0 2.0 1.0 1.45 -1.5 1.1 -2.75 0.2 -3.9 0.2 -4.2 1.2 -4.2 2.45 -4.2 3.2 -2.8 3.75 -1.7 3.75 -0.65 M0.3 2.2 Q-1.45 2.2 -2.25 0.45 -2.75 -0.6 -2.75 -1.6 -2.75 -3.35 -1.55 -3.35 -0.15 -3.35 0.7 -1.25 1.3 0.2 1.3 1.0 1.3 2.2 0.3 2.2" fill="#ff9bbb" fill-rule="evenodd" stroke="none"/>
      <path d="M5.4 -0.5 Q6.05 0.8 5.4 2.35 4.7 3.85 2.4 4.5 0.1 5.15 -1.9 3.4 -3.9 1.6 -4.05 0.55 L-5.7 -2.7 -5.55 -2.85 -2.4 1.55 Q-0.65 3.75 2.05 3.45 4.8 3.05 4.5 0.95 4.2 -1.15 3.55 -2.7 3.2 -5.5 4.0 -3.65 L5.4 -0.5 M2.1 2.0 Q2.0 2.9 -0.9 -2.85 -1.85 -5.2 -0.5 -3.75 0.75 -2.35 1.5 -0.4 2.15 1.05 2.1 2.0" fill="#ce4463" fill-rule="evenodd" stroke="none"/>
    </g>
    <g id="shape2">
      <path d="M3.35 22.0 L3.15 22.55 3.25 23.75 Q2.65 27.35 -0.35 27.35 L-0.85 27.25 -1.75 27.15 Q-3.55 27.15 -4.4 24.8 L-4.85 22.45 Q-4.85 21.6 -4.4 21.35 L-1.5 20.55 2.2 20.3 Q3.65 20.65 3.6 21.4 L3.35 22.0" fill="#e75274" fill-rule="evenodd" stroke="none"/>
      <path d="M0.35 25.75 Q0.0 26.5 -0.9 21.75 -1.05 19.8 -0.3 21.0 0.35 22.15 0.45 23.8 0.6 25.0 0.35 25.75 M2.75 21.9 Q3.2 19.55 3.85 21.2 L4.35 23.85 Q4.45 24.65 3.4 26.2 2.15 28.05 0.3 28.25 -2.1 28.55 -3.5 27.0 -4.85 25.45 -4.35 24.55 L-4.9 21.9 -4.75 21.75 -3.3 25.4 Q-2.4 27.2 -0.05 26.95 2.3 26.65 2.6 24.9 L2.75 21.9" fill="#000000" fill-rule="evenodd" stroke="none"/>
      <path d="M11.5 -4.9 L8.65 -5.75 8.3 -5.5 10.0 -4.0 12.05 -1.95 14.15 1.1 14.35 1.15 14.65 1.05 14.95 0.85 15.05 0.15 Q15.1 -0.85 14.75 -1.75 L13.8 -3.55 Q15.75 -2.0 17.85 1.15 19.95 4.3 20.25 7.1 20.5 9.85 17.3 9.15 L18.85 10.2 18.2 10.45 Q16.45 11.2 16.5 12.95 L14.15 15.25 13.2 16.35 Q9.95 13.1 5.3 12.2 0.7 11.15 -4.0 12.4 -6.1 12.75 -7.9 13.7 -10.85 15.05 -13.65 16.85 L-13.65 17.1 -14.6 15.35 -15.2 14.5 Q-16.0 13.65 -17.0 13.3 -18.55 12.65 -20.1 12.7 L-18.5 11.5 -18.8 11.05 -20.45 11.15 -19.6 10.65 -20.85 10.3 Q-21.9 10.15 -22.1 8.15 -22.35 6.1 -20.5 1.6 L-20.6 2.7 -20.6 2.85 Q-21.45 4.45 -20.7 5.1 -18.3 6.9 -16.35 4.65 -14.4 2.3 -15.0 -0.45 -14.85 -1.6 -14.1 -3.0 -13.35 -4.4 -11.45 -4.75 -12.6 -2.45 -11.85 -0.15 -10.85 2.9 -7.8 2.7 -5.4 1.0 -6.2 -0.15 -4.65 0.9 -3.1 0.75 -1.1 0.4 -0.1 -1.55 L2.0 -0.95 Q5.8 -0.05 8.35 -2.45 L8.4 -3.25 Q5.95 -7.05 1.2 -7.4 L-0.55 -7.45 0.8 -7.6 Q6.55 -7.9 11.5 -4.9 M23.05 13.05 L22.55 12.9 22.7 12.7 23.05 13.05 M-18.7 8.25 L-19.0 7.9 Q-19.6 7.15 -19.9 7.65 -20.0 8.95 -19.15 10.0 L-18.55 9.45 -18.7 8.25 M-13.0 3.1 Q-13.4 2.85 -13.55 3.25 L-14.05 5.15 Q-14.35 7.4 -13.45 9.5 L-12.45 9.45 -12.6 8.5 -13.15 6.3 Q-13.55 4.8 -13.0 3.1 M-9.5 10.1 L-9.95 11.35 -5.6 11.25 Q-3.4 9.8 -0.8 10.3 10.05 12.3 7.9 9.7 L7.3 9.2 Q4.45 6.95 0.75 6.45 -5.3 5.95 -9.5 10.1 M-9.55 6.95 L-9.65 6.5 -10.15 4.8 -10.9 4.45 -11.0 5.4 Q-11.15 6.85 -10.05 7.8 L-9.55 6.95 M-18.2 22.3 L-17.45 21.35 Q-16.15 21.3 -15.45 20.1 L-15.1 19.4 -14.65 19.1 -13.7 18.65 -12.75 18.2 Q-13.35 20.3 -11.9 21.75 L-10.5 22.9 -8.95 23.7 -5.8 24.3 -3.25 24.4 -0.25 24.3 2.5 23.8 5.1 23.05 Q6.4 22.65 7.55 21.8 L10.4 19.65 Q11.45 18.85 11.6 17.65 L15.05 19.65 17.55 20.25 21.7 19.6 22.85 20.25 22.85 21.5 20.7 23.55 Q17.3 26.2 12.7 25.55 L14.05 24.2 14.3 23.55 Q8.2 26.25 1.7 27.45 -4.7 28.6 -10.85 26.5 L-15.65 24.65 -16.3 24.85 -15.25 26.15 Q-16.15 25.6 -17.2 25.25 -18.45 25.05 -19.5 24.4 -20.55 23.8 -21.15 22.85 L-21.65 22.0 Q-20.1 24.05 -18.2 22.3 M-9.25 29.2 Q-11.85 30.2 -13.9 30.2 L-14.95 30.2 -16.2 30.35 -17.65 30.1 -18.2 29.75 -18.0 29.7 -18.1 29.6 -18.05 29.6 -20.3 29.15 -18.35 29.05 -16.55 29.3 -13.65 29.3 -11.6 29.05 -11.3 29.1 -10.25 28.8 -9.25 29.2 M10.7 30.0 Q8.8 29.6 6.85 28.4 L6.55 28.5 7.2 28.25 8.65 28.95 Q10.85 30.0 13.25 30.0 L12.7 30.05 10.7 30.0 M6.2 4.7 L6.75 4.35 6.45 2.75 5.7 2.85 6.2 4.7 M9.95 4.0 Q9.65 2.15 8.15 0.9 L7.7 0.8 8.75 3.9 Q9.3 5.3 9.2 6.9 L9.6 7.05 10.0 5.6 9.95 4.0 M14.65 5.0 L14.2 5.15 14.05 5.45 14.2 6.65 Q14.35 7.7 15.1 7.4 L15.25 7.1 Q15.8 5.75 14.65 5.0 M16.4 2.35 L16.45 4.85 Q16.5 6.7 17.4 8.3 L18.15 8.25 Q18.65 7.7 18.6 6.95 18.55 5.2 17.65 3.6 L16.75 2.65 16.4 2.35 M13.7 17.35 L13.65 17.3 13.55 17.15 Q13.4 16.8 13.7 17.35" fill="#714107" fill-rule="evenodd" stroke="none"/>
      <path d="M11.5 -4.9 Q6.55 -7.9 0.8 -7.6 L-0.55 -7.45 Q-4.25 -7.55 -7.65 -6.65 -13.4 -5.15 -17.9 -1.25 L-18.6 -0.85 Q-19.95 0.1 -20.5 1.6 -22.35 6.1 -22.1 8.15 -21.9 10.15 -20.85 10.3 L-19.6 10.65 -20.45 11.15 -25.4 13.45 Q-24.45 7.8 -22.25 2.55 -19.9 -2.9 -14.25 -5.05 L-9.5 -7.15 Q-6.05 -8.5 -2.45 -8.7 L-0.15 -8.8 -0.55 -8.45 Q4.25 -8.55 8.7 -7.5 13.1 -6.45 15.85 -3.35 L16.35 -3.5 19.75 -0.4 19.45 0.2 Q22.15 4.55 23.65 9.45 24.45 12.15 24.8 14.75 L24.25 14.25 23.05 13.05 22.7 12.7 22.3 11.75 Q21.05 9.9 18.85 10.2 L17.3 9.15 Q20.5 9.85 20.25 7.1 19.95 4.3 17.85 1.15 15.75 -2.0 13.8 -3.55 L11.5 -4.9 M-27.85 21.75 L-26.95 24.1 -25.75 25.9 -25.95 25.7 -27.0 24.75 -27.9 23.45 Q-28.25 22.75 -27.9 21.6 L-27.85 21.75 M-20.3 29.15 L-21.8 28.7 -22.25 28.5 -21.8 28.2 -21.6 27.85 -19.95 28.6 -18.9 28.95 -18.35 29.05 -20.3 29.15 M-11.6 29.05 L-10.4 28.7 -10.25 28.8 -11.3 29.1 -11.6 29.05 M7.2 28.25 L7.35 28.2 Q11.6 29.95 16.15 29.65 L17.9 29.3 19.15 29.0 20.4 28.55 Q24.55 26.95 26.1 22.6 26.85 20.5 26.6 18.25 27.45 20.3 27.05 22.5 26.65 24.7 25.05 26.25 23.25 27.9 21.0 28.95 L16.8 30.3 12.15 30.5 10.7 30.0 12.7 30.05 13.25 30.0 Q10.85 30.0 8.65 28.95 L7.2 28.25" fill="#462607" fill-rule="evenodd" stroke="none"/>
      <path d="M-9.5 -7.15 L-14.25 -5.05 Q-12.25 -7.25 -9.5 -7.15" fill="#925706" fill-rule="evenodd" stroke="none"/>
      <path d="M24.8 14.75 L24.95 14.95 24.2 14.5 23.2 14.7 22.65 14.75 22.5 13.9 Q23.15 13.35 24.25 14.25 L24.8 14.75 M-18.95 16.9 Q-18.95 17.55 -19.55 18.75 L-20.25 19.9 Q-20.8 19.9 -20.95 19.25 L-21.0 19.05 -20.9 17.85 -20.7 17.35 -19.95 16.35 Q-18.95 15.45 -18.95 16.9 M-21.4 15.85 L-22.45 18.7 -22.55 18.75 Q-22.9 18.65 -23.0 17.35 -23.0 16.45 -22.2 15.7 -21.4 14.9 -21.4 15.85 M20.8 14.05 Q22.3 14.4 21.9 16.0 L21.75 16.45 21.05 16.3 Q20.2 15.5 20.45 14.4 L20.8 14.05 M18.3 15.5 L18.55 15.7 19.05 17.9 18.95 18.9 18.85 19.1 Q17.2 18.4 17.5 15.85 L17.75 15.45 18.3 15.5" fill="#ff7171" fill-rule="evenodd" stroke="none"/>
      <path d="M-18.9 28.95 L-11.7 28.4 -11.2 28.15 Q-6.4 29.6 -1.3 29.7 L0.3 29.7 -0.8 29.8 -6.15 29.75 -9.25 29.2 -10.25 28.8 -10.4 28.7 -11.6 29.05 -13.65 29.3 -16.55 29.3 -18.35 29.05 -18.9 28.95" fill="#8b5306" fill-rule="evenodd" stroke="none"/>
      <path d="M13.8 -3.55 L14.75 -1.75 Q15.1 -0.85 15.05 0.15 L14.95 0.85 14.65 1.05 14.35 1.15 14.15 1.1 12.05 -1.95 10.0 -4.0 8.3 -5.5 8.65 -5.75 11.5 -4.9 13.8 -3.55 M22.65 14.75 L23.2 14.7 Q24.25 15.05 24.85 15.8 L25.15 16.3 25.0 17.45 23.55 17.6 Q22.3 16.8 22.5 15.45 L22.65 14.75 M22.55 12.9 Q20.3 14.75 17.45 13.95 L17.15 13.85 16.5 12.95 Q16.45 11.2 18.2 10.45 L18.85 10.2 Q21.05 9.9 22.3 11.75 L22.7 12.7 22.55 12.9 M21.05 18.1 L19.05 17.9 18.55 15.7 18.85 14.9 Q20.7 15.6 21.05 17.35 L21.05 18.1 M6.7 15.6 L5.2 15.15 Q4.95 20.85 -0.85 21.45 -5.7 21.65 -7.45 16.6 -10.4 16.5 -12.75 18.2 L-13.7 18.65 -14.65 19.1 -16.3 19.55 -13.65 17.1 -13.65 16.85 Q-7.8 14.45 -2.55 13.7 2.7 12.9 6.85 14.2 11.0 15.5 13.65 17.3 L13.7 17.35 15.05 19.65 11.6 17.65 Q9.2 16.4 6.7 15.6 M24.85 21.2 L25.0 22.4 Q24.5 26.85 20.4 28.55 L19.15 29.0 17.9 29.3 Q15.3 29.45 13.0 28.3 16.15 28.35 18.8 26.3 L24.85 21.2 M15.8 16.45 L15.7 18.4 Q14.6 17.6 14.85 16.1 L15.45 16.2 15.8 16.45 M14.3 23.55 L14.05 24.2 12.7 25.55 6.55 28.5 Q4.5 29.25 2.1 29.6 L0.3 29.7 -1.3 29.7 Q-6.4 29.6 -11.2 28.15 L-11.7 28.4 -18.9 28.95 -19.95 28.6 -20.65 28.3 Q-22.65 27.35 -23.65 25.7 L-23.45 25.3 Q-18.95 27.75 -13.75 27.25 L-15.25 26.15 -16.3 24.85 -15.65 24.65 -10.85 26.5 Q-4.7 28.6 1.7 27.45 8.2 26.25 14.3 23.55 M-17.9 -1.25 L-16.55 -1.05 Q-15.8 2.0 -17.9 4.25 L-18.65 4.85 -19.75 4.35 -20.3 3.75 -20.6 2.85 -20.6 2.7 -20.5 1.6 Q-19.95 0.1 -18.6 -0.85 L-17.9 -1.25 M-18.8 11.05 L-18.5 11.5 -20.1 12.7 Q-23.6 14.8 -23.05 18.95 L-22.55 18.75 -22.45 18.7 -21.8 17.6 Q-21.2 16.55 -21.05 15.4 L-20.7 17.35 -20.9 17.85 -21.0 19.05 -20.95 19.25 -20.8 20.25 -19.8 20.4 Q-18.3 18.95 -17.65 17.1 L-17.25 17.3 -16.95 18.4 Q-16.55 20.1 -17.45 21.35 L-18.2 22.3 Q-20.1 24.05 -21.65 22.0 L-22.35 21.45 -23.15 21.35 -24.5 22.25 Q-25.4 22.95 -26.0 22.75 -26.65 22.55 -26.9 22.0 L-27.35 21.05 Q-28.85 17.45 -26.35 14.5 L-25.4 13.45 -20.45 11.15 -18.8 11.05" fill="#ad6707" fill-rule="evenodd" stroke="none"/>
      <path d="M2.2 -6.0 L2.05 -5.75 2.25 -4.75 Q2.85 -2.9 4.4 -3.45 L4.5 -3.95 Q4.35 -5.6 2.75 -6.4 L2.2 -6.0 M8.35 -2.45 Q5.8 -0.05 2.0 -0.95 L-0.1 -1.55 Q-1.1 0.4 -3.1 0.75 -4.65 0.9 -6.2 -0.15 -5.4 1.0 -7.8 2.7 -10.85 2.9 -11.85 -0.15 -12.6 -2.45 -11.45 -4.75 -13.35 -4.4 -14.1 -3.0 -14.85 -1.6 -15.0 -0.45 -14.4 2.3 -16.35 4.65 -18.3 6.9 -20.7 5.1 -21.45 4.45 -20.6 2.85 L-20.3 3.75 -19.75 4.35 -18.65 4.85 -17.9 4.25 Q-15.8 2.0 -16.55 -1.05 L-17.9 -1.25 Q-13.4 -5.15 -7.65 -6.65 -4.25 -7.55 -0.55 -7.45 L1.2 -7.4 Q5.95 -7.05 8.4 -3.25 L8.35 -2.45 M24.25 14.25 Q23.15 13.35 22.5 13.9 L22.65 14.75 22.5 15.45 Q22.3 16.8 23.55 17.6 L25.0 17.45 25.15 16.3 24.85 15.8 Q24.25 15.05 23.2 14.7 L24.2 14.5 24.95 14.95 25.35 15.35 24.8 13.8 Q26.25 15.8 26.6 18.25 26.85 20.5 26.1 22.6 24.55 26.95 20.4 28.55 24.5 26.85 25.0 22.4 L24.85 21.2 18.8 26.3 Q16.15 28.35 13.0 28.3 15.3 29.45 17.9 29.3 L16.15 29.65 Q11.6 29.95 7.35 28.2 L12.7 25.55 Q17.3 26.2 20.7 23.55 L22.85 21.5 22.85 20.25 21.7 19.6 17.55 20.25 15.05 19.65 13.7 17.35 Q13.4 16.8 13.55 17.15 L13.65 17.3 Q11.0 15.5 6.85 14.2 2.7 12.9 -2.55 13.7 -7.8 14.45 -13.65 16.85 -10.85 15.05 -7.9 13.7 -6.1 12.75 -4.0 12.4 0.7 11.15 5.3 12.2 9.95 13.1 13.2 16.35 L14.15 15.25 16.5 12.95 17.15 13.85 17.45 13.95 Q20.3 14.75 22.55 12.9 L23.05 13.05 24.25 14.25 M21.05 18.1 L21.05 17.35 Q20.7 15.6 18.85 14.9 L18.55 15.7 18.3 15.5 17.75 15.45 17.5 15.85 Q17.2 18.4 18.85 19.1 L18.95 18.9 19.05 17.9 21.05 18.1 M20.8 14.05 L20.45 14.4 Q20.2 15.5 21.05 16.3 L21.75 16.45 21.9 16.0 Q22.3 14.4 20.8 14.05 M-8.05 -2.65 L-6.95 -4.1 Q-6.0 -4.95 -6.0 -6.2 L-6.55 -6.05 Q-9.85 -4.15 -9.9 -0.35 L-9.45 0.05 -8.15 -0.05 -8.05 -2.65 M-3.4 -6.6 L-4.0 -6.2 Q-6.35 -3.4 -3.65 -2.2 L-3.2 -2.5 -2.95 -4.95 Q-2.8 -5.85 -3.4 -6.6 M15.8 16.45 L15.45 16.2 14.85 16.1 Q14.6 17.6 15.7 18.4 L15.8 16.45 M5.2 15.15 L6.7 15.6 Q9.2 16.4 11.6 17.65 11.45 18.85 10.4 19.65 L7.55 21.8 Q6.4 22.65 5.1 23.05 L2.5 23.8 -0.25 24.3 -3.25 24.4 -5.8 24.3 -8.95 23.7 -10.5 22.9 -11.9 21.75 Q-13.35 20.3 -12.75 18.2 -10.4 16.5 -7.45 16.6 -5.7 21.65 -0.85 21.45 4.95 20.85 5.2 15.15 M-13.65 17.1 L-16.3 19.55 -14.65 19.1 -15.1 19.4 -15.45 20.1 Q-16.15 21.3 -17.45 21.35 -16.55 20.1 -16.95 18.4 L-17.25 17.3 -17.65 17.1 Q-18.3 18.95 -19.8 20.4 L-20.8 20.25 -20.95 19.25 Q-20.8 19.9 -20.25 19.9 L-19.55 18.75 Q-18.95 17.55 -18.95 16.9 -18.95 15.45 -19.95 16.35 L-20.7 17.35 -21.05 15.4 Q-21.2 16.55 -21.8 17.6 L-22.45 18.7 -21.4 15.85 Q-21.4 14.9 -22.2 15.7 -23.0 16.45 -23.0 17.35 -22.9 18.65 -22.55 18.75 L-23.05 18.95 Q-23.6 14.8 -20.1 12.7 -18.55 12.65 -17.0 13.3 -16.0 13.65 -15.2 14.5 L-14.6 15.35 -13.65 17.1" fill="#925706" fill-rule="evenodd" stroke="none"/>
      <path d="M16.4 2.35 L16.75 2.65 17.65 3.6 Q18.55 5.2 18.6 6.95 18.65 7.7 18.15 8.25 L17.4 8.3 Q16.5 6.7 16.45 4.85 L16.4 2.35 M14.65 5.0 Q15.8 5.75 15.25 7.1 L15.1 7.4 Q14.35 7.7 14.2 6.65 L14.05 5.45 14.2 5.15 14.65 5.0 M9.95 4.0 L10.0 5.6 9.6 7.05 9.2 6.9 Q9.3 5.3 8.75 3.9 L7.7 0.8 8.15 0.9 Q9.65 2.15 9.95 4.0 M6.2 4.7 L5.7 2.85 6.45 2.75 6.75 4.35 6.2 4.7 M-9.55 6.95 L-10.05 7.8 Q-11.15 6.85 -11.0 5.4 L-10.9 4.45 -10.15 4.8 -9.65 6.5 -9.55 6.95 M-13.0 3.1 Q-13.55 4.8 -13.15 6.3 L-12.6 8.5 -12.45 9.45 -13.45 9.5 Q-14.35 7.4 -14.05 5.15 L-13.55 3.25 Q-13.4 2.85 -13.0 3.1 M-19.9 7.65 Q-19.6 7.15 -19.0 7.9 L-18.7 8.25 -18.55 9.45 -19.15 10.0 Q-20.0 8.95 -19.9 7.65 M-26.0 22.75 Q-25.4 22.95 -24.5 22.25 L-23.15 21.35 -22.35 21.45 -21.65 22.0 -21.15 22.85 Q-20.55 23.8 -19.5 24.4 -18.45 25.05 -17.2 25.25 -16.15 25.6 -15.25 26.15 L-13.75 27.25 Q-18.95 27.75 -23.45 25.3 L-23.65 25.7 Q-22.65 27.35 -20.65 28.3 L-19.95 28.6 -21.6 27.85 -21.8 28.2 -22.25 28.5 -22.4 28.5 Q-23.4 28.5 -24.7 27.15 L-22.5 28.4 -25.75 25.9 -26.95 24.1 -27.85 21.75 -27.9 21.6 -28.5 19.6 Q-28.5 16.35 -26.35 14.5 -28.85 17.45 -27.35 21.05 L-26.9 22.0 Q-26.65 22.55 -26.0 22.75" fill="#8b5306" fill-rule="evenodd" stroke="none"/>
      <path d="M7.9 9.7 Q10.05 12.3 -0.8 10.3 -3.4 9.8 -5.6 11.25 L-9.95 11.35 -9.5 10.1 Q-5.3 5.95 0.75 6.45 4.45 6.95 7.3 9.2 L7.9 9.7" fill="#9a5b06" fill-rule="evenodd" stroke="none"/>
      <path d="M6.25 -9.15 Q10.75 -8.15 14.9 -5.7 19.0 -3.3 21.35 0.95 23.6 5.1 24.15 9.2 L24.3 9.8 Q24.75 12.85 26.25 15.9 27.75 18.95 27.7 21.2 27.6 23.45 25.75 26.0 23.85 28.55 19.6 30.2 16.55 31.4 13.3 31.2 10.65 30.9 7.65 29.5 3.55 31.25 1.3 31.15 L-3.85 31.15 Q-7.4 30.8 -10.25 29.85 L-14.15 30.75 Q-19.4 31.0 -24.15 28.8 -27.1 26.9 -28.5 23.6 -29.7 20.6 -28.55 17.5 -27.7 15.35 -25.85 13.8 -25.55 10.85 -24.85 7.95 L-24.3 6.05 Q-23.15 2.05 -20.4 -1.0 -17.15 -4.55 -12.75 -6.65 -8.35 -8.75 -3.55 -9.25 1.75 -10.15 6.25 -9.15 M3.1 -7.95 L-5.65 -7.55 Q-10.6 -6.45 -14.85 -4.0 -19.1 -1.5 -21.55 2.7 L-23.8 7.2 Q-24.65 9.15 -24.65 10.6 -24.8 12.0 -24.2 12.45 L-22.45 11.95 Q-24.3 13.25 -26.1 16.1 -27.9 18.85 -27.4 21.6 -26.95 24.3 -25.45 25.65 L-24.1 26.7 Q-19.75 29.15 -14.75 29.05 L-12.65 28.9 -12.85 28.8 Q-16.1 27.1 -17.2 24.9 L-17.15 24.7 -14.95 26.15 Q-13.4 27.35 -12.15 27.7 L-10.6 28.15 -10.5 28.2 Q-9.1 28.75 -7.7 28.9 L-7.75 28.95 -3.75 29.5 0.95 29.45 5.6 28.5 5.45 28.4 Q6.75 28.4 7.55 27.8 L7.8 27.6 8.75 27.15 14.45 23.65 14.75 24.55 Q14.75 26.05 9.6 28.6 L9.9 28.75 13.4 29.55 Q18.1 30.0 22.15 27.75 26.6 25.3 26.2 20.05 25.9 15.35 22.3 12.4 L21.2 11.5 23.45 12.3 23.25 9.55 23.15 9.2 Q22.35 4.65 19.7 0.65 16.8 -3.55 12.1 -5.4 7.75 -7.25 3.1 -7.95 M-18.25 21.2 L-18.85 21.5 -18.95 21.35 Q-18.9 20.7 -18.05 20.55 L-18.05 21.0 -18.25 21.2 M-16.05 20.65 L-15.55 20.95 -15.9 21.5 -16.25 22.05 -16.65 22.05 -16.7 22.0 -16.7 21.65 -16.05 20.65 M22.05 17.05 L22.05 16.7 22.1 16.4 Q22.45 16.45 22.7 16.8 L22.85 17.3 22.8 17.35 22.65 17.4 Q22.15 17.35 22.05 17.05 M24.2 17.15 L23.9 17.3 22.45 15.5 Q22.55 14.6 23.45 15.35 24.3 16.1 24.3 16.9 L24.2 17.15 M18.5 19.9 L18.25 19.25 Q18.25 18.2 19.05 18.85 19.8 19.5 19.7 20.05 L19.25 20.5 Q18.85 20.5 18.5 19.9" fill="#000000" fill-rule="evenodd" stroke="none"/>
      <path d="M2.05 -5.65 L1.95 -6.6 3.35 -6.55 Q4.9 -5.3 4.95 -4.4 4.95 -3.5 4.4 -3.45 2.85 -2.9 2.25 -4.75 L2.05 -5.65" fill="#bf7f03" fill-rule="evenodd" stroke="none"/>
      <path d="M-3.4 -6.6 Q-2.8 -5.85 -2.95 -4.95 -3.1 -3.75 -2.7 -3.05 -2.5 -1.55 -3.65 -2.2 -6.35 -3.4 -4.0 -6.2 L-3.4 -6.6 M-8.15 -0.05 L-9.45 0.05 -9.9 -0.35 Q-9.85 -4.15 -6.55 -6.05 L-6.0 -6.2 Q-6.0 -4.95 -6.95 -4.1 -7.6 -3.5 -7.8 -2.45 L-8.15 -0.05" fill="#ce8a07" fill-rule="evenodd" stroke="none"/>
    </g>
    <g id="sprite3">
      <use ffdec:characterId="6" height="14.8" transform="matrix(1.0, 0.0, 0.0, 1.0, 0.0, 0.0)" width="15.6" xlink:href="#shape3"/>
    </g>
    <g id="shape3">
      <path d="M11.25 12.05 L11.45 11.95 11.7 11.7 Q15.65 8.1 12.6 3.0 L13.35 3.75 Q15.6 6.1 14.95 10.0 13.3 12.4 11.05 13.4 9.1 14.8 6.75 14.8 L4.95 14.65 4.15 14.45 Q1.7 14.45 0.35 11.45 -0.75 10.05 -0.35 8.0 L-0.5 7.4 Q-0.5 4.25 2.4 2.7 L2.5 2.8 1.2 4.7 0.55 5.85 0.5 6.35 Q0.3 13.65 7.25 13.5 L7.4 13.5 9.0 13.1 11.25 12.05" fill="#3e2206" fill-rule="evenodd" stroke="none"/>
      <path d="M11.25 12.05 L9.0 13.1 7.4 13.5 7.25 13.5 Q4.65 13.5 2.8 11.65 1.0 9.85 1.0 7.25 1.0 4.65 2.8 2.8 4.65 1.0 7.25 1.0 9.85 1.0 11.65 2.8 13.5 4.65 13.5 7.25 13.5 9.85 11.65 11.65 L11.25 12.05 M10.55 11.85 L11.25 10.7 Q11.25 9.3 9.1 10.45 L6.9 11.9 7.4 12.4 9.0 12.75 Q9.7 12.75 10.55 11.85 M10.8 4.8 L11.25 4.1 Q11.25 3.6 10.1 2.8 8.7 1.85 7.2 1.85 4.9 1.85 3.6 2.65 2.4 3.45 2.4 4.75 2.4 5.75 3.65 5.75 L5.25 4.7 Q6.7 3.65 8.55 3.65 9.3 3.65 10.8 4.8" fill="#cac6bf" fill-rule="evenodd" stroke="none"/>
      <path d="M10.8 4.8 Q9.3 3.65 8.55 3.65 6.7 3.65 5.25 4.7 L3.65 5.75 Q2.4 5.75 2.4 4.75 2.4 3.45 3.6 2.65 4.9 1.85 7.2 1.85 8.7 1.85 10.1 2.8 11.25 3.6 11.25 4.1 L10.8 4.8 M10.55 11.85 Q9.7 12.75 9.0 12.75 L7.4 12.4 6.9 11.9 9.1 10.45 Q11.25 9.3 11.25 10.7 L10.55 11.85" fill="#ffffff" fill-rule="evenodd" stroke="none"/>
      <path d="M10.25 7.1 Q10.25 8.2 9.45 8.95 8.7 9.75 7.6 9.75 6.5 9.75 5.75 8.95 5.0 8.2 5.0 7.1 5.0 6.6 5.15 6.2 L6.15 7.35 7.05 7.95 8.5 8.05 9.7 7.6 10.25 7.1 M11.65 11.65 Q13.5 9.85 13.5 7.25 13.5 4.65 11.65 2.8 9.85 1.0 7.25 1.0 4.65 1.0 2.8 2.8 1.0 4.65 1.0 7.25 1.0 9.85 2.8 11.65 4.65 13.5 7.25 13.5 9.85 13.5 11.65 11.65 M14.5 7.25 Q14.5 10.25 12.35 12.35 10.25 14.5 7.25 14.5 4.25 14.5 2.1 12.35 0.0 10.25 0.0 7.25 0.0 4.25 2.1 2.1 4.25 0.0 7.25 0.0 10.25 0.0 12.35 2.1 14.5 4.25 14.5 7.25" fill="#000000" fill-rule="evenodd" stroke="none"/>
      <path d="M5.15 6.2 L5.75 5.25 Q6.5 4.5 7.6 4.5 8.7 4.5 9.45 5.25 10.25 6.0 10.25 7.1 L9.7 7.6 8.5 8.05 7.05 7.95 6.15 7.35 5.15 6.2 M7.95 5.05 Q6.45 4.9 6.45 5.95 L6.6 6.45 7.15 6.9 7.85 6.65 8.35 6.4 8.7 6.55 9.05 6.7 9.35 6.45 9.45 6.2 Q9.45 5.2 7.95 5.05" fill="#5e5858" fill-rule="evenodd" stroke="none"/>
      <path d="M7.95 5.05 Q9.45 5.2 9.45 6.2 L9.35 6.45 9.05 6.7 8.7 6.55 8.35 6.4 7.85 6.65 7.15 6.9 6.6 6.45 6.45 5.95 Q6.45 4.9 7.95 5.05" fill="#ffffff" fill-rule="evenodd" stroke="none"/>
    </g>
    <g id="sprite4">
      <use ffdec:characterId="10" height="14.15" transform="matrix(1.0, 0.0, 0.0, 1.0, 0.0, 0.0)" width="18.75" xlink:href="#shape4"/>
    </g>
    <g id="shape4">
      <path d="M0.55 -2.1 Q1.25 -2.95 1.25 -3.85 1.25 -6.15 -1.95 -5.55 -5.1 -4.95 -5.1 -2.55 L-4.75 -1.7 Q-4.0 -1.0 -2.45 -1.0 -0.4 -1.0 0.55 -2.1 M-3.5 -5.8 L0.35 -5.55 3.4 -5.15 Q4.9 -4.7 5.3 -3.3 L5.3 -2.2 Q5.2 -0.9 4.25 0.2 3.05 1.65 0.35 2.45 L-2.25 2.45 Q-5.5 1.6 -6.35 0.6 -7.05 0.1 -7.05 -1.4 -7.05 -3.65 -5.5 -4.9 L-5.1 -5.15 -3.5 -5.8" fill="#c61313" fill-rule="evenodd" stroke="none"/>
      <path d="M0.55 -2.1 Q-0.4 -1.0 -2.45 -1.0 -4.0 -1.0 -4.75 -1.7 L-5.1 -2.55 Q-5.1 -4.95 -1.95 -5.55 1.25 -6.15 1.25 -3.85 1.25 -2.95 0.55 -2.1 M-3.4 -2.95 L-2.65 -3.2 -1.45 -3.4 Q0.15 -3.4 0.15 -4.35 0.15 -5.2 -1.15 -5.2 L-2.5 -5.15 -3.25 -4.7 Q-3.95 -4.2 -3.95 -3.65 -3.95 -2.95 -3.4 -2.95" fill="#f83c14" fill-rule="evenodd" stroke="none"/>
      <path d="M-3.5 -5.8 L-1.8 -6.25 Q1.6 -7.2 4.9 -4.95 8.2 -2.95 8.2 -0.6 L7.9 1.3 Q7.65 3.05 7.4 3.3 L5.25 5.0 6.2 3.7 Q7.7 1.75 7.7 -0.25 L7.5 -2.3 Q6.65 2.15 4.15 3.9 1.8 5.5 -2.9 5.5 -4.05 5.5 -5.6 4.75 L-5.8 4.7 -6.35 4.25 Q-7.05 4.15 -7.75 3.2 L-8.45 2.15 -8.15 1.85 Q-8.7 0.85 -8.6 -0.1 -8.6 -2.3 -7.2 -3.65 L-5.1 -5.15 -5.5 -4.9 Q-7.05 -3.65 -7.05 -1.4 -7.05 0.1 -6.35 0.6 -5.5 1.6 -2.25 2.45 L0.35 2.45 Q3.05 1.65 4.25 0.2 5.2 -0.9 5.3 -2.2 L5.3 -3.3 Q4.9 -4.7 3.4 -5.15 L0.35 -5.55 -3.5 -5.8" fill="#7e0c0c" fill-rule="evenodd" stroke="none"/>
      <path d="M-5.8 4.7 L-5.6 4.75 Q-4.05 5.5 -2.9 5.5 1.8 5.5 4.15 3.9 6.65 2.15 7.5 -2.3 L7.7 -0.25 Q7.7 1.75 6.2 3.7 L5.25 5.0 Q3.1 6.9 -0.2 6.9 -4.2 6.9 -6.05 5.7 -7.05 5.05 -7.75 3.9 -7.55 3.9 -5.8 4.7" fill="#a03131" fill-rule="evenodd" stroke="none"/>
      <path d="M-3.4 -2.95 Q-3.95 -2.95 -3.95 -3.65 -3.95 -4.2 -3.25 -4.7 L-2.5 -5.15 -1.15 -5.2 Q0.15 -5.2 0.15 -4.35 0.15 -3.4 -1.45 -3.4 L-2.65 -3.2 -3.4 -2.95" fill="#ffddc6" fill-rule="evenodd" stroke="none"/>
      <path d="M5.45 -4.4 Q3.15 -5.95 0.35 -6.05 L-1.25 -6.05 Q-3.9 -5.9 -5.7 -4.65 -7.8 -3.15 -8.1 -0.45 -8.45 2.25 -6.15 4.0 -3.85 5.75 -0.3 5.8 3.25 5.85 5.5 4.25 7.75 2.6 7.9 0.15 8.0 -2.35 6.2 -3.8 L5.45 -4.4 M5.5 -5.85 L7.6 -4.35 Q9.5 -2.8 9.35 0.35 9.25 3.5 6.35 5.3 3.4 7.0 -0.5 7.05 -4.4 7.05 -7.2 4.95 -9.95 2.85 -9.25 -0.25 -8.6 -3.35 -6.15 -5.15 -3.8 -7.1 -1.25 -7.05 1.55 -7.25 4.35 -6.4 L5.5 -5.85" fill="#361111" fill-rule="evenodd" stroke="none"/>
    </g>
    <g id="sprite5">
      <use ffdec:characterId="3" height="15.2" transform="matrix(1.0, 0.0, 0.0, 1.0, 0.0, 0.0)" width="17.55" xlink:href="#shape5"/>
    </g>
    <g id="shape5">
      <path d="M2.4 -2.95 L1.7 -3.0 0.6 -2.6 -1.4 -2.25 Q-2.25 -2.25 -3.35 -3.2 L-4.5 -4.3 Q-5.5 -4.8 -6.15 -3.9 L-6.6 -2.6 -6.3 0.35 -6.25 0.35 -5.65 -3.1 -5.3 -3.0 -4.4 -1.55 Q-3.25 -0.3 -1.35 -0.3 -0.5 -0.3 0.75 -0.8 L2.2 -1.3 Q3.55 -1.3 4.85 0.05 L6.25 1.35 Q6.85 1.35 6.85 0.4 6.85 -0.35 5.85 -1.4 L5.75 -1.55 5.35 -2.0 Q4.4 -3.2 3.5 -3.1 L2.4 -2.95 M4.45 -4.1 L6.2 -3.15 Q6.75 -2.9 8.7 0.75 L8.2 2.35 7.5 4.35 Q7.25 5.35 5.85 6.15 4.2 7.1 1.7 7.1 -1.2 7.1 -4.0 5.45 L-6.8 3.35 -7.75 1.25 -8.45 -1.25 Q-8.45 -3.4 -7.35 -5.65 -5.8 -8.8 -3.35 -5.9 L-2.55 -4.75 1.7 -4.4 4.45 -4.1 M3.75 6.0 Q4.7 5.45 4.7 5.0 4.7 4.45 3.8 4.45 L3.0 4.65 1.6 4.8 -0.6 4.45 -2.25 4.2 -2.3 4.6 Q-2.3 5.1 -1.3 5.8 -0.05 6.6 1.6 6.6 2.7 6.6 3.75 6.0 M2.3 3.45 L4.05 3.05 4.15 3.0 4.9 3.2 Q5.75 3.2 5.75 2.3 5.75 1.0 3.5 0.9 L-0.55 1.35 -0.75 1.35 -1.25 1.4 -1.35 1.6 -1.85 1.7 -1.1 2.15 Q0.05 3.45 2.3 3.45" fill="#714107" fill-rule="evenodd" stroke="none"/>
      <path d="M2.4 -2.95 L0.45 -2.35 Q-0.6 -1.8 -2.05 -1.75 L-2.0 -1.65 -0.2 -1.35 2.3 -1.75 Q3.9 -1.75 4.45 -0.7 5.0 0.3 5.5 0.3 6.2 0.3 6.2 -0.45 L5.75 -1.55 5.85 -1.4 Q6.85 -0.35 6.85 0.4 6.85 1.35 6.25 1.35 L4.85 0.05 Q3.55 -1.3 2.2 -1.3 L0.75 -0.8 Q-0.5 -0.3 -1.35 -0.3 -3.25 -0.3 -4.4 -1.55 L-5.3 -3.0 -5.65 -3.1 -6.25 0.35 -6.3 0.35 -6.6 -2.6 -6.15 -3.9 Q-5.5 -4.8 -4.5 -4.3 L-3.35 -3.2 Q-2.25 -2.25 -1.4 -2.25 L0.6 -2.6 1.7 -3.0 2.4 -2.95 M3.75 6.0 Q2.7 6.6 1.6 6.6 -0.05 6.6 -1.3 5.8 -2.3 5.1 -2.3 4.6 L-2.25 4.2 -0.6 4.45 1.6 4.8 3.0 4.65 3.8 4.45 Q4.7 4.45 4.7 5.0 4.7 5.45 3.75 6.0" fill="#925706" fill-rule="evenodd" stroke="none"/>
      <path d="M2.3 3.45 Q0.05 3.45 -1.1 2.15 L-1.85 1.7 -1.35 1.6 -1.25 1.4 -0.75 1.35 -0.55 1.35 3.5 0.9 Q5.75 1.0 5.75 2.3 5.75 3.2 4.9 3.2 L4.15 3.0 4.05 3.05 2.3 3.45" fill="#ff7171" fill-rule="evenodd" stroke="none"/>
      <path d="M5.75 -1.55 L6.2 -0.45 Q6.2 0.3 5.5 0.3 5.0 0.3 4.45 -0.7 3.9 -1.75 2.3 -1.75 L-0.2 -1.35 -2.0 -1.65 -2.05 -1.75 Q-0.6 -1.8 0.45 -2.35 L2.4 -2.95 3.5 -3.1 Q4.4 -3.2 5.35 -2.0 L5.75 -1.55" fill="#ce8a07" fill-rule="evenodd" stroke="none"/>
      <path d="M5.0 -3.25 L3.35 -3.8 2.15 -4.0 0.8 -4.1 -0.45 -4.15 Q-3.0 -4.7 -3.85 -6.0 -4.75 -7.35 -6.15 -6.5 -7.6 -5.65 -7.9 -3.0 L-7.95 -2.8 -7.95 -2.3 -7.85 -1.85 -7.55 -0.35 -7.1 0.95 -6.5 2.05 -5.7 3.0 -3.75 4.45 -2.55 5.65 Q-1.65 6.6 1.4 6.95 4.35 7.25 6.5 5.8 4.85 7.6 2.35 7.6 -0.65 7.6 -3.45 6.5 -4.95 5.85 -6.45 4.8 -7.75 3.8 -8.25 2.3 L-8.75 0.05 Q-8.95 -1.05 -8.55 -3.0 -7.4 -6.5 -6.05 -7.2 L-4.15 -7.3 -2.3 -5.8 Q-1.05 -4.95 -0.2 -4.95 L1.55 -4.85 2.7 -4.8 3.9 -4.6 5.75 -3.9 7.05 -2.95 8.25 -1.65 8.7 -0.4 8.7 1.15 8.6 1.55 Q8.75 0.9 8.4 0.2 L7.65 -1.0 6.3 -2.4 5.0 -3.25 M5.4 2.35 L4.85 2.15 4.75 2.05 4.25 1.3 Q4.0 0.9 2.4 1.0 0.75 1.1 -0.05 1.55 L-2.0 1.8 -1.35 2.15 -0.3 2.85 Q2.15 4.15 4.75 3.1 L3.0 3.65 Q0.5 4.0 -1.95 2.45 L-3.9 1.35 Q-4.55 0.75 -4.55 0.0 L-4.5 -0.65 -4.4 -0.65 -3.4 0.45 Q-2.6 0.95 -1.7 0.9 L0.55 0.55 2.55 0.25 Q4.3 0.25 5.0 1.05 L5.6 2.25 5.4 2.35" fill="#000000" fill-rule="evenodd" stroke="none"/>
    </g>
  </defs>
</svg>
