<?xml version="1.0" encoding="UTF-8" standalone="no"?>
<svg xmlns:ffdec="https://www.free-decompiler.com/flash" xmlns:xlink="http://www.w3.org/1999/xlink" ffdec:objectType="frame" height="37.15px" width="30.4px" xmlns="http://www.w3.org/2000/svg">
  <g transform="matrix(1.0, 0.0, 0.0, 1.0, 15.4, 52.7)">
    <use ffdec:characterId="2" height="21.1" transform="matrix(1.0, 0.0, 0.0, 1.0, -15.4, -36.65)" width="30.4" xlink:href="#sprite0"/>
    <use ffdec:characterId="7" height="22.8" transform="matrix(1.0, 0.0, 0.0, 1.0, -14.95, -52.7)" width="29.4" xlink:href="#sprite1"/>
  </g>
  <defs>
    <g id="sprite0">
      <use ffdec:characterId="1" height="21.1" transform="matrix(1.0, 0.0, 0.0, 1.0, 0.0, 0.0)" width="30.4" xlink:href="#shape0"/>
    </g>
    <g id="shape0">
      <path d="M0.0 14.35 L0.0 1.75 Q-0.1 0.0 2.75 0.0 L27.65 0.0 Q30.5 0.0 30.4 1.75 L30.4 14.35 0.0 14.35" fill="#761700" fill-rule="evenodd" stroke="none"/>
      <path d="M30.4 14.35 L30.4 18.35 Q30.4 21.1 27.65 21.1 L2.75 21.1 2.65 21.1 Q0.0 21.05 0.0 18.35 L0.0 14.35 30.4 14.35" fill="#540e94" fill-rule="evenodd" stroke="none"/>
      <path d="M3.95 4.95 L26.75 4.95 26.75 20.6 3.95 20.6 3.95 4.95" fill="#ffd902" fill-rule="evenodd" stroke="none"/>
      <path d="M3.95 20.6 L2.75 20.6 2.65 20.6 Q0.5 20.55 0.5 18.35 L0.5 7.2 Q0.5 5.0 2.65 4.95 L2.75 4.95 3.95 4.95 3.95 20.6 M26.75 4.95 L27.65 4.95 Q29.9 4.95 29.9 7.2 L29.9 18.35 Q29.9 20.6 27.65 20.6 L26.75 20.6 26.75 4.95" fill="#ffa802" fill-rule="evenodd" stroke="none"/>
      <path d="M2.75 0.5 L27.65 0.5 Q29.9 0.5 29.9 1.75 L29.9 7.75 Q29.9 9.05 27.65 9.05 L2.75 9.05 Q0.5 9.05 0.5 7.75 L0.5 1.75 Q0.5 0.5 2.75 0.5" fill="url(#gradient0)" fill-rule="evenodd" stroke="none"/>
      <path d="M5.35 5.6 L5.35 3.5 Q5.35 2.9 6.4 2.9 L24.1 2.9 Q25.1 2.9 25.1 3.5 L25.1 5.6 5.35 5.6" fill="#ffd902" fill-rule="evenodd" stroke="none"/>
      <path d="M25.1 5.6 L25.1 6.45 Q25.1 7.0 24.1 7.0 L6.4 7.0 Q5.35 7.0 5.35 6.45 L5.35 5.6 25.1 5.6" fill="#ff7c02" fill-rule="evenodd" stroke="none"/>
      <path d="M23.05 7.25 L23.05 7.0 24.1 7.0 Q25.1 7.0 25.1 6.45 L25.1 3.5 24.9 3.1 26.85 0.5 28.85 0.5 Q29.75 0.6 29.95 1.45 L29.95 7.25 23.05 7.25" fill="#ffe900" fill-rule="evenodd" stroke="none"/>
      <path d="M6.4 2.9 L24.1 2.9 Q25.1 2.9 25.1 3.5 L25.1 6.45 Q25.1 7.0 24.1 7.0 L6.4 7.0 Q5.35 7.0 5.35 6.45 L5.35 3.5 Q5.35 2.9 6.4 2.9 Z" ffdec:has-small-stroke="true" ffdec:original-stroke-width="0.5" fill="none" stroke="#6f00d5" stroke-linecap="round" stroke-linejoin="round" stroke-width="1.0"/>
      <path d="M28.75 10.15 L28.75 19.1" fill="none" stroke="#ffffff" stroke-linecap="round" stroke-linejoin="round" stroke-width="1.0"/>
      <path d="M1.75 10.15 L1.75 19.1" fill="none" stroke="#ffffff" stroke-linecap="round" stroke-linejoin="round" stroke-width="1.0"/>
    </g>
    <linearGradient gradientTransform="matrix(-0.0179, 0.0, 0.0, -0.0052, 15.2, 4.85)" gradientUnits="userSpaceOnUse" id="gradient0" spreadMethod="pad" x1="-819.2" x2="819.2">
      <stop offset="0.023529411764705882" stop-color="#f6ff51"/>
      <stop offset="1.0" stop-color="#ffffff"/>
    </linearGradient>
    <g id="sprite1">
      <use ffdec:characterId="6" height="22.8" transform="matrix(1.0, 0.0, 0.0, 1.0, 0.0, 0.0)" width="29.4" xlink:href="#shape1"/>
    </g>
    <g id="shape1">
      <path d="M24.15 3.65 L24.85 3.45 Q25.8 3.15 26.55 3.85 L26.85 4.15 26.95 4.3 28.85 5.9 28.9 5.95 29.0 6.05 29.1 6.15 29.4 7.3 28.95 8.55 26.8 10.6 26.0 13.45 25.95 13.55 25.75 14.5 24.95 17.65 24.55 18.95 23.8 21.15 23.1 22.8 6.75 22.8 6.15 21.1 6.15 21.15 5.4 19.05 5.2 18.45 4.3 16.3 4.3 16.2 4.2 16.05 4.15 16.0 3.5 14.7 3.45 14.65 2.9 13.75 2.85 13.7 2.3 13.35 2.25 13.3 1.0 12.1 0.85 11.9 0.25 10.55 0.15 10.2 0.0 9.25 0.05 8.85 0.05 8.8 0.1 8.45 0.3 8.0 Q0.4 7.85 0.6 7.85 L0.95 7.95 Q2.6 9.0 6.55 6.65 L6.45 6.7 9.05 4.25 10.2 2.6 Q10.95 1.6 11.8 1.1 L12.0 0.95 12.4 0.7 Q13.9 0.0 15.45 0.0 16.95 0.0 18.45 0.7 L18.5 0.7 18.95 1.0 19.3 1.25 19.35 1.3 20.15 2.55 20.2 2.6 20.55 3.3 21.25 3.95 24.15 3.6 24.15 3.65" fill="#ff7c02" fill-rule="evenodd" stroke="none"/>
      <path d="M6.6 20.95 L23.3 20.95 22.55 22.75 7.2 22.75 6.6 20.95 M24.5 4.9 L25.15 4.35 Q26.25 4.3 25.6 5.75 L25.25 6.95 Q24.9 8.8 23.4 9.05 23.3 8.95 23.35 8.6 23.5 6.65 24.5 4.9 M14.25 1.6 L14.1 1.7 14.25 1.5 14.25 1.6 Q14.9 1.05 15.8 1.25 16.7 1.55 16.85 2.5 L16.95 5.85 16.6 10.65 16.35 10.85 16.05 11.1 15.85 11.05 Q15.05 9.55 15.05 7.7 15.05 6.55 14.65 5.45 13.9 3.45 14.25 1.6" fill="#ffffff" fill-rule="evenodd" stroke="none"/>
      <path d="M24.05 18.8 Q22.0 21.2 20.65 18.8 L21.25 14.8 21.3 14.4 21.35 13.35 21.4 13.25 21.95 10.35 Q22.4 8.35 23.4 6.45 L24.25 4.1 24.95 3.9 Q25.7 3.7 26.25 4.25 L26.4 4.4 26.45 4.45 26.5 4.55 25.55 6.85 Q24.75 8.9 26.2 10.4 L26.3 10.5 25.5 13.25 25.45 13.35 25.25 14.4 24.45 17.5 24.05 18.8 M24.5 4.9 Q23.5 6.65 23.35 8.6 23.3 8.95 23.4 9.05 24.9 8.8 25.25 6.95 L25.6 5.75 Q26.25 4.3 25.15 4.35 L24.5 4.9" fill="#fff9e3" fill-rule="evenodd" stroke="none"/>
      <path d="M19.0 1.65 L17.25 13.35 16.85 18.8 Q15.65 21.7 14.3 18.8 L14.1 14.4 14.0 13.35 14.0 13.25 13.15 7.0 12.05 1.5 12.25 1.35 12.6 1.15 Q14.0 0.5 15.45 0.5 16.85 0.5 18.25 1.15 L18.65 1.4 19.0 1.65 M14.25 1.6 Q13.9 3.45 14.65 5.45 15.05 6.55 15.05 7.7 15.05 9.55 15.85 11.05 L16.05 11.1 16.35 10.85 16.6 10.65 16.95 5.85 16.85 2.5 Q16.7 1.55 15.8 1.25 14.9 1.05 14.25 1.6 L14.25 1.5 14.1 1.7 14.25 1.6 M6.25 17.05 L5.8 16.05 5.65 15.75 5.0 14.4 4.45 13.35 4.35 13.25 2.15 11.3 3.05 10.6 5.35 8.8 7.6 13.35 9.25 19.95 Q8.2 21.4 6.25 17.05" fill="#fffaca" fill-rule="evenodd" stroke="none"/>
      <path d="M21.0 4.45 L20.35 6.85 Q21.6 10.8 19.25 15.15 17.75 10.15 20.15 3.65 L21.0 4.45 M9.4 4.6 Q8.6 7.85 9.65 10.6 10.45 13.1 9.8 15.6 L6.8 7.05 9.4 4.6" fill="#ffeb00" fill-rule="evenodd" stroke="none"/>
      <path d="M24.25 4.1 L23.4 6.45 Q22.4 8.35 21.95 10.35 L21.4 13.25 21.35 13.35 21.3 14.4 21.25 14.8 20.65 18.8 Q22.0 21.2 24.05 18.8 L23.3 20.95 6.6 20.95 5.85 18.8 5.65 18.3 4.75 16.05 4.6 15.75 3.9 14.4 3.25 13.35 3.1 13.25 2.55 12.9 1.4 11.8 1.3 11.65 0.7 10.4 0.6 10.05 0.5 9.25 0.55 8.85 0.55 8.8 0.6 8.5 0.65 8.35 Q2.5 9.65 6.8 7.05 L9.8 15.6 Q10.45 13.1 9.65 10.6 8.6 7.85 9.4 4.6 L10.6 2.9 12.05 1.5 13.15 7.0 14.0 13.25 14.0 13.35 14.1 14.4 14.3 18.8 Q15.65 21.7 16.85 18.8 L17.25 13.35 19.0 1.65 19.7 2.75 20.15 3.65 Q17.75 10.15 19.25 15.15 21.6 10.8 20.35 6.85 L21.0 4.45 21.05 4.45 24.25 4.1 M26.3 10.5 L26.2 10.4 Q24.75 8.9 25.55 6.85 L26.5 4.55 28.55 6.3 28.65 6.4 28.9 7.3 28.55 8.25 26.3 10.35 26.3 10.5 M6.25 17.05 Q8.2 21.4 9.25 19.95 L7.6 13.35 5.35 8.8 3.05 10.6 2.15 11.3 4.35 13.25 4.45 13.35 5.0 14.4 5.65 15.75 5.8 16.05 6.25 17.05" fill="#fff79d" fill-rule="evenodd" stroke="none"/>
    </g>
  </defs>
</svg>
