<?xml version="1.0" encoding="UTF-8" standalone="no"?>
<svg xmlns:ffdec="https://www.free-decompiler.com/flash" xmlns:xlink="http://www.w3.org/1999/xlink" ffdec:objectType="frame" height="33.4px" width="111.3px" xmlns="http://www.w3.org/2000/svg">
  <g transform="matrix(1.0, 0.0, 0.0, 1.0, 55.95, 42.75)">
    <use ffdec:characterId="10" height="33.4" transform="matrix(1.0, 0.0, 0.0, 1.0, -12.7, -37.5)" width="111.3" xlink:href="#sprite0"/>
  </g>
  <defs>
    <g id="sprite0">
      <use ffdec:characterId="8" height="15.85" transform="matrix(1.0, 0.0, 0.0, 1.3011, 12.25, 20.45)" width="44.85" xlink:href="#sprite1"/>
      <use ffdec:characterId="2" height="33.05" transform="matrix(1.0, 0.0, 0.0, 1.0, -14.95, 37.75)" width="35.05" xlink:href="#sprite2"/>
      <use ffdec:characterId="2" height="33.05" transform="matrix(-1.0, 0.0, 0.0, 1.0, 39.75, 37.75)" width="35.05" xlink:href="#sprite2"/>
      <use ffdec:characterId="9" height="1.65" transform="matrix(1.0, 0.0, 0.0, 1.0, 0.0, 0.0)" width="13.0" xlink:href="#shape2"/>
    </g>
    <g id="sprite1">
      <use ffdec:characterId="7" height="15.85" transform="matrix(1.0, 0.0, 0.0, 1.0, 0.0, 0.0)" width="44.85" xlink:href="#shape0"/>
    </g>
    <g id="shape0">
      <path d="M16.3 -0.8 Q20.05 -1.35 18.25 -4.3 L20.55 -2.15 Q21.85 -0.7 22.55 0.95 L22.55 5.7 Q21.05 2.15 16.6 -0.65 L16.3 -0.8 M11.25 -7.95 Q16.25 -4.8 11.25 -3.2 6.35 -4.95 0.35 -4.95 -5.3 -4.95 -10.0 -3.4 -15.95 -4.6 -10.0 -8.15 -5.3 -9.65 0.35 -9.65 6.35 -9.65 11.25 -7.95 M-16.55 -0.25 Q-20.35 2.35 -21.8 5.55 L-21.8 0.8 Q-21.1 -0.75 -19.85 -2.15 L-18.6 -3.35 Q-20.45 -0.1 -16.55 -0.25" fill="#ffc600" fill-rule="evenodd" stroke="none"/>
      <path d="M18.25 -4.3 Q20.05 -1.35 16.3 -0.8 L13.9 -2.15 11.25 -3.2 Q16.25 -4.8 11.25 -7.95 14.1 -6.95 16.6 -5.4 L18.25 -4.3 M-10.0 -3.4 Q-11.7 -2.85 -13.2 -2.15 L-15.95 -0.65 -16.55 -0.25 Q-20.45 -0.1 -18.6 -3.35 L-15.95 -5.4 Q-13.2 -7.15 -10.0 -8.15 -15.95 -4.6 -10.0 -3.4" fill="#ff8500" fill-rule="evenodd" stroke="none"/>
      <path d="M22.55 5.7 L22.55 0.95 Q21.85 -0.7 20.55 -2.15 L18.25 -4.3 16.6 -5.4 Q14.1 -6.95 11.25 -7.95 6.35 -9.65 0.35 -9.65 -5.3 -9.65 -10.0 -8.15 -13.2 -7.15 -15.95 -5.4 L-18.6 -3.35 -19.85 -2.15 Q-21.1 -0.75 -21.8 0.8 L-21.8 5.55" ffdec:has-small-stroke="true" ffdec:original-stroke-width="0.5" fill="none" stroke="#983017" stroke-linecap="round" stroke-linejoin="round" stroke-width="0.876696905683626"/>
      <path d="M16.3 -0.8 L16.6 -0.65 Q21.05 2.15 22.55 5.7 M11.25 -3.2 L13.9 -2.15 16.3 -0.8 M11.25 -3.2 Q6.35 -4.95 0.35 -4.95 -5.3 -4.95 -10.0 -3.4 -11.7 -2.85 -13.2 -2.15 L-15.95 -0.65 -16.55 -0.25 Q-20.35 2.35 -21.8 5.55" ffdec:has-small-stroke="true" ffdec:original-stroke-width="0.5" fill="none" stroke="#2a174c" stroke-linecap="round" stroke-linejoin="round" stroke-width="0.876696905683626"/>
      <path d="M0.6 -9.55 Q4.15 -9.65 9.1 -8.35 2.3 -9.4 6.2 -5.8 0.35 -6.55 -4.75 -5.8 -1.85 -8.8 -7.0 -8.75 L0.6 -9.55" fill="#fcff18" fill-rule="evenodd" stroke="none"/>
      <path d="M0.35 -5.65 Q-8.3 -5.65 -14.65 -2.1 L-13.45 -2.95 Q-8.55 -6.4 0.6 -6.4 9.75 -6.4 15.0 -2.35 L15.35 -2.1 Q9.0 -5.65 0.35 -5.65" fill="#ffffff" fill-rule="evenodd" stroke="none"/>
      <path d="M22.55 5.7 Q21.05 2.15 16.6 -0.65 9.9 -4.95 0.35 -4.95 -9.2 -4.95 -15.95 -0.65 -20.25 2.1 -21.8 5.55 L-21.8 4.15 Q-20.25 0.7 -14.7 -2.6 -9.2 -5.9 0.35 -5.9 9.9 -5.9 15.5 -2.55 21.05 0.7 22.55 4.3 L22.55 5.7" fill="#ff8500" fill-rule="evenodd" stroke="none"/>
      <path d="M17.0 -1.35 Q11.35 -5.4 1.05 -5.65 -9.25 -5.95 -15.0 -1.95 -20.8 2.0 -21.8 5.55 L-21.8 4.15 Q-20.25 0.7 -14.7 -2.6 -9.2 -5.9 0.35 -5.9 9.9 -5.9 15.5 -2.55 21.05 0.7 22.55 4.3 L22.55 5.55 Q22.45 2.6 17.0 -1.35" fill="#b42300" fill-rule="evenodd" stroke="none"/>
    </g>
    <g id="sprite2">
      <use ffdec:characterId="1" height="33.05" transform="matrix(1.0, 0.0, 0.0, 1.0, 0.0, 0.0)" width="35.05" xlink:href="#shape1"/>
    </g>
    <g id="shape1">
      <path d="M6.5 -15.8 L5.8 -11.9 1.05 -9.95 -1.05 -14.15 -1.55 -14.05 Q-10.7 -15.0 -12.85 -16.55 -15.15 -18.1 -16.1 -19.3 -17.15 -20.5 -15.1 -21.25 L-13.9 -21.55 -15.45 -22.15 -18.2 -23.35 Q-20.85 -24.5 -24.5 -28.25 -28.2 -32.05 -23.7 -32.2 L-23.15 -32.1 -14.15 -30.2 -13.35 -30.0 -19.25 -33.55 -23.9 -36.95 Q-26.25 -38.65 -27.7 -40.65 -29.2 -42.65 -27.0 -42.85 L-24.7 -42.95 -22.8 -42.25 -19.8 -41.0 -12.1 -37.85 -4.7 -34.55 Q-2.95 -33.7 -1.05 -33.15 4.15 -31.65 2.9 -26.65 1.95 -22.5 4.55 -19.3 L6.0 -18.55 6.75 -18.05 6.55 -16.0 6.5 -15.8" fill="#ffc600" fill-rule="evenodd" stroke="none"/>
      <path d="M-8.7 -20.0 L-6.6 -17.7 -9.9 -17.95 Q-11.5 -17.8 -12.85 -18.7 L-13.5 -19.45 -8.7 -20.0 M-16.95 -29.4 L-12.05 -28.35 Q-13.6 -27.35 -13.1 -25.65 -15.8 -25.25 -18.95 -26.8 -22.1 -28.45 -23.7 -30.15 -25.3 -31.9 -22.25 -30.85 -19.25 -29.85 -16.95 -29.4 M4.6 -14.95 L4.05 -13.5 3.2 -13.4 2.5 -14.0 2.7 -14.9 3.95 -17.55 4.3 -17.8 5.2 -17.4 4.6 -14.95 M3.25 -19.55 Q3.95 -18.35 2.45 -18.25 L-0.5 -18.2 Q-1.95 -18.2 -3.4 -18.85 -4.85 -19.55 -4.6 -20.0 -4.35 -20.45 -2.8 -20.65 L-0.2 -21.2 1.75 -21.15 Q2.6 -20.75 3.25 -19.55 M0.45 -30.3 L1.15 -29.5 1.5 -28.5 1.6 -28.1 Q2.55 -21.95 0.1 -22.15 -2.4 -22.35 -9.3 -25.35 -14.2 -29.05 -2.95 -26.45 -4.0 -28.15 -6.3 -29.45 -8.6 -30.8 -15.2 -33.95 -21.85 -37.1 -24.7 -40.2 -27.55 -43.35 -16.45 -38.4 -5.4 -33.45 0.45 -30.3" fill="#fcff18" fill-rule="evenodd" stroke="none"/>
      <path d="M-10.9 -17.7 Q-12.45 -18.15 -13.35 -18.7 -14.25 -19.3 -13.85 -19.55 L-12.45 -19.75 Q-13.3 -19.0 -11.25 -18.45 L-6.6 -17.75 Q-9.4 -17.35 -10.9 -17.7 M-1.1 -22.35 Q-4.35 -22.5 -7.85 -24.0 -11.95 -25.75 -10.7 -27.4 -10.75 -26.0 -7.25 -24.55 -3.8 -23.1 -1.1 -22.35 M-24.0 -38.65 Q-26.6 -41.25 -25.25 -41.65 -25.15 -39.5 -20.85 -37.15 -16.6 -34.85 -15.15 -34.15 L-13.1 -33.2 -12.5 -32.9 -11.15 -32.25 Q-7.45 -30.75 -3.9 -27.45 L-8.85 -30.4 -17.55 -34.75 -19.25 -35.75 Q-21.85 -36.95 -24.0 -38.65 M-13.0 -24.1 Q-14.45 -24.15 -17.9 -25.45 -21.4 -26.8 -23.45 -28.8 -25.5 -30.85 -23.55 -31.1 -24.45 -30.55 -22.15 -28.7 -20.4 -27.35 -18.35 -26.5 -16.5 -25.65 -14.2 -25.35 L-13.0 -24.1 M-4.9 -19.3 L-4.9 -20.05 -3.25 -19.15 Q-2.3 -18.75 -1.45 -18.7 L2.8 -18.2 2.1 -17.95 0.5 -17.8 Q-2.5 -17.2 -4.9 -19.3 M3.55 -13.4 Q4.55 -14.5 5.15 -17.15 4.9 -14.0 3.95 -13.0 3.45 -12.55 2.9 -13.15 L2.15 -14.1 2.7 -13.75 3.55 -13.4" fill="#ff8500" fill-rule="evenodd" stroke="none"/>
      <path d="M-14.2 -24.2 L-17.65 -25.85 -11.95 -26.05 Q-11.4 -24.25 -8.1 -22.4 -12.8 -23.55 -14.2 -24.2" fill="#ff8500" fill-rule="evenodd" stroke="none"/>
      <path d="M-10.95 -22.9 L-13.0 -23.75 -11.15 -23.85 -9.7 -23.4 Q-7.7 -22.7 -5.4 -21.0 L-7.1 -21.15 -10.95 -22.9" fill="#b42300" fill-rule="evenodd" stroke="none"/>
      <path d="M-1.1 -15.45 Q-7.2 -16.0 -10.7 -17.65 L-5.4 -18.0 Q-4.6 -16.55 -1.1 -15.45" fill="#ff8500" fill-rule="evenodd" stroke="none"/>
      <path d="M5.75 -15.6 L5.95 -17.75 5.75 -18.0 5.75 -18.1 Q1.95 -19.9 2.3 -24.8 2.5 -26.45 2.35 -28.15 2.25 -29.95 0.65 -30.95 -2.05 -32.55 -5.05 -33.95 -11.45 -36.95 -18.0 -39.6 -23.5 -41.75 -25.35 -42.0 -27.25 -42.2 -26.8 -40.9 -26.35 -39.65 -24.75 -38.2 -23.1 -36.75 -18.2 -33.8 L-16.7 -32.9 -19.25 -33.55 -23.9 -36.95 Q-26.25 -38.65 -27.7 -40.65 -29.2 -42.65 -27.0 -42.85 L-24.7 -42.95 -22.8 -42.25 -19.8 -41.0 -12.1 -37.85 -4.7 -34.55 Q-2.95 -33.7 -1.05 -33.15 4.15 -31.65 2.9 -26.65 1.95 -22.5 4.55 -19.3 L6.0 -18.55 6.75 -18.05 6.55 -16.0 6.5 -15.8 5.75 -15.6 M-9.2 -27.8 L-9.35 -27.8 -9.25 -27.85 -9.2 -27.8 M-9.8 -27.85 Q-11.45 -27.85 -11.65 -26.8 -11.85 -23.15 -2.4 -21.35 L-5.75 -20.9 -6.5 -21.2 -6.9 -21.5 -7.0 -21.6 -7.15 -21.6 Q-7.65 -21.75 -8.2 -22.05 L-10.75 -23.75 Q-12.95 -25.65 -12.4 -27.05 -12.15 -27.9 -11.2 -28.25 L-11.15 -28.25 -10.15 -28.2 -9.8 -27.85 M-7.0 -20.7 L-7.65 -20.65 Q-4.4 -16.85 0.4 -16.2 L-3.2 -16.05 Q-6.3 -17.5 -8.25 -20.6 L-7.0 -20.7" fill="#791900" fill-rule="evenodd" stroke="none"/>
      <path d="M5.75 -15.6 L6.5 -15.8 5.8 -11.9 1.05 -9.95 -1.05 -14.15 -1.55 -14.05 Q-10.7 -15.0 -12.85 -16.55 -15.15 -18.1 -16.1 -19.3 -17.15 -20.5 -15.1 -21.25 L-13.9 -21.55 -15.45 -22.15 -18.2 -23.35 Q-20.85 -24.5 -24.5 -28.25 -28.2 -32.05 -23.7 -32.2 L-23.15 -32.1 -14.15 -30.2 -13.35 -30.0 -19.25 -33.55 -16.7 -32.9 Q-10.75 -29.5 -4.45 -27.0 L-5.45 -27.25 -6.8 -27.5 -7.4 -27.6 -7.55 -27.6 -8.15 -27.7 -9.0 -27.8 -9.2 -27.8 -9.25 -27.85 -9.35 -27.8 -9.8 -27.85 -10.15 -28.2 -11.15 -28.25 -9.7 -28.45 -11.05 -28.95 -13.05 -29.45 -19.35 -30.8 -23.3 -31.7 Q-27.75 -31.5 -23.2 -27.8 -18.6 -24.05 -16.2 -23.15 L-13.3 -22.15 -13.25 -22.1 -11.6 -21.6 -8.5 -21.25 -6.9 -21.5 -7.15 -21.6 -7.0 -21.6 -6.9 -21.5 -6.5 -21.2 -5.75 -20.9 -7.0 -20.7 -8.25 -20.6 -8.4 -20.8 -8.65 -20.75 -14.55 -20.65 Q-16.4 -20.0 -14.45 -18.35 -12.6 -16.6 -8.85 -15.45 L-0.45 -15.15 Q-1.95 -15.45 -3.2 -16.05 L0.4 -16.2 2.3 -16.1 2.4 -16.1 2.35 -16.0 0.65 -14.75 0.2 -14.55 1.5 -10.75 Q2.8 -11.2 5.15 -12.35 L5.75 -15.6" fill="#451286" fill-rule="evenodd" stroke="none"/>
      <path d="M-8.7 -19.35 L-8.8 -19.0 -9.2 -18.85 Q-9.4 -18.85 -9.5 -19.0 L-9.7 -19.35 -9.5 -19.65 -9.2 -19.8 -8.8 -19.65 -8.7 -19.35 M-13.25 -27.55 L-13.75 -27.25 -14.7 -27.4 Q-15.2 -27.55 -15.5 -27.9 L-15.75 -28.45 Q-15.65 -28.65 -15.2 -28.7 L-14.3 -28.55 -13.45 -28.05 -13.25 -27.55 M1.95 -20.3 L1.7 -19.7 Q1.4 -19.45 1.05 -19.45 0.7 -19.45 0.45 -19.7 0.15 -19.95 0.15 -20.3 0.15 -20.65 0.45 -20.9 0.7 -21.15 1.05 -21.15 L1.7 -20.9 1.95 -20.3 M0.9 -24.4 Q0.85 -24.05 0.1 -23.95 L-1.75 -24.1 -3.35 -24.7 Q-4.1 -25.15 -4.05 -25.5 -3.95 -25.85 -3.1 -25.9 L-1.4 -25.8 0.35 -25.15 Q1.0 -24.75 0.9 -24.4 M0.95 -26.55 Q-0.35 -28.3 -2.8 -30.05 L-4.85 -31.4 -7.2 -32.5 -9.95 -33.9 -22.1 -40.3 Q-16.85 -38.5 -13.0 -36.6 L-7.9 -33.95 Q-4.25 -32.5 -2.55 -31.5 0.4 -29.7 1.15 -27.15 L1.35 -26.0 0.95 -26.55" fill="#ffffff" fill-rule="evenodd" stroke="none"/>
      <path d="M-26.15 -41.3 L-24.95 -39.35 Q-24.25 -38.2 -20.05 -35.75 L-10.9 -30.65 -10.35 -30.0 Q-12.25 -30.0 -19.35 -34.2 -26.5 -38.45 -26.15 -41.3" fill="#ffe956" fill-rule="evenodd" stroke="none"/>
      <path d="M-25.35 -30.4 L-23.15 -28.0 Q-22.35 -27.0 -18.05 -25.1 L-8.65 -21.25 -7.9 -21.35 Q-9.85 -20.4 -16.85 -23.55 -23.9 -26.75 -25.35 -30.4" fill="#ffe956" fill-rule="evenodd" stroke="none"/>
      <path d="M-15.25 -19.95 Q-14.9 -19.2 -13.8 -18.35 -12.75 -17.5 -9.4 -16.7 L-2.55 -15.3 -2.0 -15.6 Q-3.25 -14.05 -9.15 -15.75 -15.05 -17.5 -15.25 -19.95" fill="#ffe956" fill-rule="evenodd" stroke="none"/>
    </g>
    <g id="shape2">
      <path d="M14.7 8.25 L18.6 9.55 19.25 9.9 13.05 9.5 7.4 9.6 6.25 9.6 Q9.25 8.05 12.8 8.25 L14.7 8.25" fill="#ffffff" fill-rule="evenodd" stroke="none"/>
    </g>
  </defs>
</svg>
