<?xml version="1.0" encoding="UTF-8" standalone="no"?>
<svg xmlns:ffdec="https://www.free-decompiler.com/flash" xmlns:xlink="http://www.w3.org/1999/xlink" ffdec:objectType="frame" height="53.5px" width="47.95px" xmlns="http://www.w3.org/2000/svg">
  <g transform="matrix(1.0, 0.0, 0.0, 1.0, 27.55, 72.45)">
    <use ffdec:characterId="13" height="53.5" transform="matrix(1.0, 0.0, 0.0, 1.0, -7.3, -57.65)" width="47.95" xlink:href="#sprite0"/>
  </g>
  <defs>
    <g id="sprite0">
      <use ffdec:characterId="2" height="15.85" transform="matrix(-0.3134, -0.7834, -0.7834, 0.3134, -10.45, -4.4)" width="19.1" xlink:href="#sprite1"/>
      <use ffdec:characterId="4" height="20.15" transform="matrix(0.8407, 0.1136, 0.1913, 0.6653, 14.85, 23.1)" width="2.5" xlink:href="#sprite2"/>
      <use ffdec:characterId="4" height="20.15" transform="matrix(0.8634, 0.4107, -0.1263, 0.7545, -2.25, 23.15)" width="2.5" xlink:href="#sprite3"/>
      <use ffdec:characterId="6" height="31.55" transform="matrix(1.0, 0.0, 0.0, 1.0, 8.95, 17.95)" width="47.95" xlink:href="#sprite4"/>
      <use ffdec:characterId="4" height="20.15" transform="matrix(0.7842, 0.1459, -0.174, 0.8646, 1.9, 29.85)" width="2.5" xlink:href="#sprite5"/>
      <use ffdec:characterId="4" height="20.15" transform="matrix(0.7794, -0.1929, 0.1985, 0.8534, 22.15, 28.25)" width="2.5" xlink:href="#sprite6"/>
      <use ffdec:characterId="8" height="2.05" transform="matrix(0.0506, 1.894, -1.6357, 0.0437, -6.45, 2.65)" width="1.8" xlink:href="#sprite7"/>
      <use ffdec:characterId="10" height="15.85" transform="matrix(0.8205, -0.1967, 0.1967, 0.8205, -0.05, -3.45)" width="19.1" xlink:href="#sprite8"/>
    </g>
    <g id="sprite1">
      <use ffdec:characterId="1" height="15.85" transform="matrix(1.0, 0.0, 0.0, 1.0, 0.0, 0.0)" width="19.1" xlink:href="#shape0"/>
    </g>
    <g id="shape0">
      <path d="M9.45 -5.9 Q8.9 -3.35 6.45 0.35 L5.85 1.2 Q2.85 5.45 -2.0 6.75 -6.9 8.05 -7.95 5.6 -8.7 3.85 -8.45 2.75 L-8.25 1.95 -8.05 1.65 -6.75 0.7 -6.15 0.4 0.85 -2.8 Q4.7 -4.65 6.95 -6.6 L7.15 -6.8 Q8.45 -7.95 8.75 -7.45 9.8 -8.2 9.45 -5.9" fill="#241436" fill-rule="evenodd" stroke="none"/>
      <path d="M9.45 -5.9 Q8.9 -3.35 6.45 0.35 L5.85 1.2 Q2.85 5.45 -2.0 6.75 -6.9 8.05 -7.95 5.6 -8.7 3.85 -8.45 2.75 L-8.25 1.95 -8.05 1.65 -6.75 0.7 -6.15 0.4 0.85 -2.8 Q4.7 -4.65 6.95 -6.6 L7.15 -6.8 Q8.45 -7.95 8.75 -7.45 9.8 -8.2 9.45 -5.9 Z" ffdec:has-small-stroke="true" ffdec:original-stroke-width="1.0" fill="none" stroke="#000000" stroke-linecap="round" stroke-linejoin="round" stroke-width="1.1852332382148594"/>
      <path d="M-3.3 0.55 Q-0.45 -0.6 2.2 -2.25 5.05 -4.0 7.35 -6.45 9.35 -8.6 9.0 -6.05 L8.95 -5.7 8.7 -4.7 Q7.95 -2.5 5.95 0.55 L1.8 1.4 0.85 1.45 0.6 1.45 Q-1.5 1.35 -3.3 0.55" fill="#3c2357" fill-rule="evenodd" stroke="none"/>
      <path d="M5.95 0.55 L5.35 1.4 Q2.35 5.65 -2.5 6.95 -7.4 8.25 -8.45 5.8 -9.5 3.3 -8.65 2.15 -5.9 1.55 -3.3 0.55 -1.5 1.35 0.6 1.45 L0.85 1.45 1.8 1.4 5.95 0.55" fill="#241436" fill-rule="evenodd" stroke="none"/>
      <path d="M9.6 -5.55 L9.6 -5.45 9.5 -4.7 Q9.0 -2.5 6.6 0.25 3.75 3.6 -0.5 5.3 L-2.45 5.95 Q-2.7 4.55 -1.55 3.45 L1.35 1.0 4.05 -1.15 6.85 -3.55 9.6 -5.55" fill="#fff27c" fill-rule="evenodd" stroke="none"/>
      <path d="M-2.45 5.95 Q-5.0 6.5 -5.85 5.2 -6.4 4.5 -6.05 3.75 L-5.9 3.45 -4.75 2.4 -4.2 2.1 2.25 -1.55 Q3.85 -2.45 5.1 -3.35 6.65 -4.55 7.75 -5.7 L7.9 -5.95 Q9.65 -7.9 9.6 -5.55 L6.85 -3.55 4.05 -1.15 1.35 1.0 -1.55 3.45 Q-2.7 4.55 -2.45 5.95" fill="#f2be56" fill-rule="evenodd" stroke="none"/>
    </g>
    <g id="sprite2">
      <use ffdec:characterId="3" height="20.15" transform="matrix(1.0, 0.0, 0.0, 1.0, 0.0, 0.0)" width="2.5" xlink:href="#shape1"/>
    </g>
    <g id="shape1">
      <path d="M-1.0 -9.35 Q0.1 -10.3 1.0 -9.35 L1.0 9.35 Q-0.15 10.3 -1.0 9.35 L-1.0 -9.35" fill="#8f7317" fill-rule="evenodd" stroke="none"/>
      <path d="M-1.0 -9.35 Q0.1 -10.3 1.0 -9.35 L1.0 9.35 Q-0.15 10.3 -1.0 9.35 L-1.0 -9.35 Z" ffdec:has-small-stroke="true" ffdec:original-stroke-width="0.5" fill="none" stroke="#000000" stroke-linecap="round" stroke-linejoin="round" stroke-width="1.363845468516801"/>
      <path d="M-0.45 -7.45 L0.45 -7.45 0.45 6.55 -0.45 6.55 -0.45 -7.45 M0.45 8.75 L-0.45 8.75 -0.45 8.0 0.45 8.0 0.45 8.75 M-0.45 7.7 L-0.45 6.9 0.45 6.9 0.45 7.7 -0.45 7.7" fill="#c2a856" fill-rule="evenodd" stroke="none"/>
    </g>
    <g id="sprite3">
      <use ffdec:characterId="3" height="20.15" transform="matrix(1.0, 0.0, 0.0, 1.0, 0.0, 0.0)" width="2.5" xlink:href="#shape2"/>
    </g>
    <g id="shape2">
      <path d="M-1.0 -9.35 Q0.1 -10.3 1.0 -9.35 L1.0 9.35 Q-0.15 10.3 -1.0 9.35 L-1.0 -9.35" fill="#8f7317" fill-rule="evenodd" stroke="none"/>
      <path d="M-1.0 -9.35 Q0.1 -10.3 1.0 -9.35 L1.0 9.35 Q-0.15 10.3 -1.0 9.35 L-1.0 -9.35 Z" ffdec:has-small-stroke="true" ffdec:original-stroke-width="0.5" fill="none" stroke="#000000" stroke-linecap="round" stroke-linejoin="round" stroke-width="1.192407006180387"/>
      <path d="M-0.45 -7.45 L0.45 -7.45 0.45 6.55 -0.45 6.55 -0.45 -7.45 M0.45 8.75 L-0.45 8.75 -0.45 8.0 0.45 8.0 0.45 8.75 M-0.45 7.7 L-0.45 6.9 0.45 6.9 0.45 7.7 -0.45 7.7" fill="#c2a856" fill-rule="evenodd" stroke="none"/>
    </g>
    <g id="sprite4">
      <use ffdec:characterId="5" height="31.55" transform="matrix(1.0, 0.0, 0.0, 1.0, 0.0, 0.0)" width="47.95" xlink:href="#shape3"/>
    </g>
    <g id="shape3">
      <path d="M-13.0 -7.35 L-8.8 -1.65 Q-13.3 -0.95 -18.9 -4.8 -17.85 0.05 -21.7 3.05 L-22.45 3.3 Q-20.65 -1.6 -24.5 -5.75 -26.65 -8.15 -27.0 -11.5 -27.2 -13.6 -26.4 -15.1 -27.35 -16.3 -28.05 -18.4 L-28.4 -20.05 -28.65 -20.35 Q-28.8 -20.65 -28.55 -21.0 L-28.55 -21.15 -28.4 -21.2 -27.95 -21.5 -27.15 -21.55 -26.7 -21.15 -26.65 -20.95 -22.9 -18.05 Q-19.9 -19.3 -16.7 -18.15 -12.6 -16.6 -5.0 -16.4 -7.35 -13.7 -8.55 -13.1 -4.7 -11.05 -2.15 -10.35 -6.65 -6.55 -13.0 -7.35" fill="#000000" fill-rule="evenodd" stroke="none"/>
      <path d="M-13.0 -7.35 L-8.8 -1.65 Q-13.3 -0.95 -18.9 -4.8 -17.85 0.05 -21.7 3.05 L-22.45 3.3 Q-20.65 -1.6 -24.5 -5.75 -26.65 -8.15 -27.0 -11.5 -27.2 -13.6 -26.4 -15.1 -27.35 -16.3 -28.05 -18.4 L-28.4 -20.05 -28.65 -20.35 Q-28.8 -20.65 -28.55 -21.0 L-28.55 -21.15 -28.4 -21.2 -27.95 -21.5 -27.15 -21.55 -26.7 -21.15 -26.65 -20.95 -22.9 -18.05 Q-19.9 -19.3 -16.7 -18.15 -12.6 -16.6 -5.0 -16.4 -7.35 -13.7 -8.55 -13.1 -4.7 -11.05 -2.15 -10.35 -6.65 -6.55 -13.0 -7.35 Z" fill="none" stroke="#000000" stroke-linecap="round" stroke-linejoin="round" stroke-width="1.0"/>
      <path d="M4.2 -13.5 Q8.75 -13.95 14.5 -10.8 20.2 -7.65 18.3 -0.95 16.35 5.75 10.0 7.8 3.65 9.8 -2.05 9.35 -7.8 8.9 -12.5 5.95 -17.1 3.0 -20.5 -1.35 -24.1 -6.0 -22.75 -11.55 -21.2 -18.05 -13.95 -15.65 -8.7 -13.9 -3.05 -13.15 L4.2 -13.5" fill="#3c2357" fill-rule="evenodd" stroke="none"/>
      <path d="M17.8 -1.5 Q17.9 4.6 11.9 6.7 6.5 8.55 0.85 8.65 -5.25 8.8 -10.65 5.75 -15.9 2.85 -19.25 -1.95 L-20.65 -4.1 Q-16.1 1.8 -9.2 4.75 -1.55 7.9 6.85 6.05 13.85 4.3 17.8 -1.5" fill="#4d2b72" fill-rule="evenodd" stroke="none"/>
      <path d="M-10.05 5.9 Q-4.05 8.2 2.85 8.35 9.75 8.5 15.3 2.5 20.85 -3.55 15.45 -8.4 10.1 -13.25 4.55 -12.45 L-6.35 -12.8 Q-11.75 -13.9 -15.7 -15.2 -19.65 -16.55 -21.75 -12.0 -23.9 -7.45 -19.95 -2.55 -16.6 1.65 -12.0 4.65 L-10.05 5.9 M4.2 -13.5 Q8.75 -13.95 14.5 -10.8 20.2 -7.65 18.3 -0.95 16.35 5.75 10.0 7.8 3.65 9.8 -2.05 9.35 -7.8 8.9 -12.5 5.95 -17.1 3.0 -20.5 -1.35 -24.1 -6.0 -22.75 -11.55 -21.2 -18.05 -13.95 -15.65 -8.7 -13.9 -3.05 -13.15 L4.2 -13.5" fill="#000000" fill-rule="evenodd" stroke="none"/>
      <path d="M8.65 -0.6 Q1.3 1.25 -6.75 -2.15 -14.85 -5.6 -16.25 -10.5 -17.7 -15.45 -11.8 -13.7 -5.95 -11.95 2.8 -12.2 11.55 -12.45 14.45 -7.55 15.95 -2.45 8.65 -0.6" fill="#7726cf" fill-rule="evenodd" stroke="none"/>
      <path d="M-13.0 -7.35 L-8.8 -1.65 Q-13.3 -0.95 -18.9 -4.8 -17.85 0.05 -21.7 3.05 L-22.45 3.3 Q-20.65 -1.6 -24.5 -5.75 -26.65 -8.15 -27.0 -11.5 -27.45 -15.75 -23.55 -17.75 -20.25 -19.4 -16.7 -18.15 -12.6 -16.6 -5.0 -16.4 -7.35 -13.7 -8.55 -13.1 -4.7 -11.05 -2.15 -10.35 -6.65 -6.55 -13.0 -7.35" fill="#160825" fill-rule="evenodd" stroke="none"/>
      <path d="M-23.65 -17.5 L-17.25 -17.25 Q-13.3 -15.95 -6.05 -16.0 -9.1 -14.15 -10.55 -14.05 L-15.5 -14.2 -7.0 -9.45 -16.05 -8.95 -13.8 -6.7 -11.5 -4.6 Q-14.05 -5.3 -16.4 -6.4 -19.3 -7.75 -21.95 -9.85 L-21.25 -5.85 -22.3 -6.95 Q-25.5 -10.0 -26.15 -13.3 -26.1 -16.45 -23.65 -17.5" fill="#603d86" fill-rule="evenodd" stroke="none"/>
      <path d="M-21.5 -14.3 Q-26.05 -12.2 -28.05 -18.4 L-28.55 -21.15 -28.1 -21.25 Q-27.25 -18.55 -25.35 -16.75 -23.5 -15.0 -21.5 -14.3" fill="#160825" fill-rule="evenodd" stroke="none"/>
      <path d="M-28.1 -21.25 L-27.25 -21.55 Q-24.45 -18.75 -21.05 -16.95 L-20.8 -14.7 -21.5 -14.3 Q-23.5 -15.0 -25.35 -16.75 -27.25 -18.55 -28.1 -21.25" fill="#603d86" fill-rule="evenodd" stroke="none"/>
      <path d="M-26.7 -21.15 L-26.75 -20.45 -27.35 -20.0 -28.15 -19.9 -28.65 -20.35 Q-28.8 -20.65 -28.55 -21.0 L-27.95 -21.5 -27.15 -21.55 -26.7 -21.15" fill="#9067bd" fill-rule="evenodd" stroke="none"/>
      <path d="M15.0 -6.0 Q14.95 -5.25 13.65 -4.8 L10.1 -4.15 4.25 -4.65 Q0.55 -5.45 1.15 -5.65 L5.2 -6.85 10.6 -7.85 13.75 -7.35 Q15.05 -6.75 15.0 -6.0" fill="#cb9cff" fill-rule="evenodd" stroke="none"/>
      <path d="M-18.25 -16.05 Q-18.25 -15.55 -18.8 -15.3 L-20.2 -15.15 Q-21.0 -15.25 -21.6 -15.7 -22.15 -16.15 -22.15 -16.65 -22.15 -17.1 -21.6 -17.35 L-20.2 -17.5 -18.8 -16.95 Q-18.25 -16.5 -18.25 -16.05" fill="#a080c3" fill-rule="evenodd" stroke="none"/>
    </g>
    <g id="sprite5">
      <use ffdec:characterId="3" height="20.15" transform="matrix(1.0, 0.0, 0.0, 1.0, 0.0, 0.0)" width="2.5" xlink:href="#shape4"/>
    </g>
    <g id="shape4">
      <path d="M-1.0 -9.35 Q0.1 -10.3 1.0 -9.35 L1.0 9.35 Q-0.15 10.3 -1.0 9.35 L-1.0 -9.35" fill="#bd971f" fill-rule="evenodd" stroke="none"/>
      <path d="M-1.0 -9.35 Q0.1 -10.3 1.0 -9.35 L1.0 9.35 Q-0.15 10.3 -1.0 9.35 L-1.0 -9.35 Z" ffdec:has-small-stroke="true" ffdec:original-stroke-width="0.5" fill="none" stroke="#000000" stroke-linecap="round" stroke-linejoin="round" stroke-width="1.1923026324489407"/>
      <path d="M-0.45 -7.45 L0.45 -7.45 0.45 6.55 -0.45 6.55 -0.45 -7.45 M0.45 8.75 L-0.45 8.75 -0.45 8.0 0.45 8.0 0.45 8.75 M-0.45 7.7 L-0.45 6.9 0.45 6.9 0.45 7.7 -0.45 7.7" fill="#ffdd71" fill-rule="evenodd" stroke="none"/>
    </g>
    <g id="sprite6">
      <use ffdec:characterId="3" height="20.15" transform="matrix(1.0, 0.0, 0.0, 1.0, 0.0, 0.0)" width="2.5" xlink:href="#shape5"/>
    </g>
    <g id="shape5">
      <path d="M-1.0 -9.35 Q0.1 -10.3 1.0 -9.35 L1.0 9.35 Q-0.15 10.3 -1.0 9.35 L-1.0 -9.35" fill="#bd971f" fill-rule="evenodd" stroke="none"/>
      <path d="M-1.0 -9.35 Q0.1 -10.3 1.0 -9.35 L1.0 9.35 Q-0.15 10.3 -1.0 9.35 L-1.0 -9.35 Z" ffdec:has-small-stroke="true" ffdec:original-stroke-width="0.5" fill="none" stroke="#000000" stroke-linecap="round" stroke-linejoin="round" stroke-width="1.1923278038928513"/>
      <path d="M-0.45 -7.45 L0.45 -7.45 0.45 6.55 -0.45 6.55 -0.45 -7.45 M0.45 8.75 L-0.45 8.75 -0.45 8.0 0.45 8.0 0.45 8.75 M-0.45 7.7 L-0.45 6.9 0.45 6.9 0.45 7.7 -0.45 7.7" fill="#ffdd71" fill-rule="evenodd" stroke="none"/>
    </g>
    <g id="sprite7">
      <use ffdec:characterId="7" height="2.05" transform="matrix(1.0, 0.0, 0.0, 1.0, 0.0, 0.0)" width="1.8" xlink:href="#shape6"/>
    </g>
    <g id="shape6">
      <path d="M0.8 0.05 L0.9 0.55 0.55 0.9 0.1 1.0 -0.3 0.7 -0.35 0.25 -0.05 -0.15 0.45 -0.2 0.8 0.05" fill="#000000" fill-rule="evenodd" stroke="none"/>
      <path d="M-0.9 -0.5 L-0.1 -0.95 0.6 -0.1 Q0.75 0.85 -0.1 0.5 L-0.9 -0.5" fill="#000000" fill-rule="evenodd" stroke="none"/>
      <path d="M-0.7 -0.45 L-0.1 -0.75 0.4 -0.15 Q0.5 0.55 -0.1 0.3 L-0.7 -0.45" fill="#ffcf61" fill-rule="evenodd" stroke="none"/>
      <path d="M-0.1 -0.9 L-0.1 -0.65 -0.3 -0.45 -0.55 -0.35 -0.8 -0.5 -0.8 -0.75 -0.6 -1.0 -0.35 -1.05 Q-0.15 -1.05 -0.1 -0.9" fill="#133508" fill-rule="evenodd" stroke="none"/>
      <path d="M-0.3 -0.9 L-0.25 -0.7 -0.4 -0.55 -0.55 -0.5 Q-0.7 -0.5 -0.75 -0.6 L-0.7 -0.75 -0.6 -0.95 -0.4 -0.95 -0.3 -0.9" fill="#ffe2a2" fill-rule="evenodd" stroke="none"/>
    </g>
    <g id="sprite8">
      <use ffdec:characterId="9" height="15.85" transform="matrix(1.0, 0.0, 0.0, 1.0, 0.0, 0.0)" width="19.1" xlink:href="#shape7"/>
    </g>
    <g id="shape7">
      <path d="M9.45 -5.9 Q8.9 -3.35 6.45 0.35 L5.85 1.2 Q2.85 5.45 -2.0 6.75 -6.9 8.05 -7.95 5.6 -8.7 3.85 -8.45 2.75 L-8.25 1.95 -8.05 1.65 -6.75 0.7 -6.15 0.4 0.85 -2.8 Q4.7 -4.65 6.95 -6.6 L7.15 -6.8 Q8.45 -7.95 8.75 -7.45 9.8 -8.2 9.45 -5.9" fill="#241436" fill-rule="evenodd" stroke="none"/>
      <path d="M9.45 -5.9 Q8.9 -3.35 6.45 0.35 L5.85 1.2 Q2.85 5.45 -2.0 6.75 -6.9 8.05 -7.95 5.6 -8.7 3.85 -8.45 2.75 L-8.25 1.95 -8.05 1.65 -6.75 0.7 -6.15 0.4 0.85 -2.8 Q4.7 -4.65 6.95 -6.6 L7.15 -6.8 Q8.45 -7.95 8.75 -7.45 9.8 -8.2 9.45 -5.9 Z" ffdec:has-small-stroke="true" ffdec:original-stroke-width="1.0" fill="none" stroke="#000000" stroke-linecap="round" stroke-linejoin="round" stroke-width="1.1851932768915618"/>
      <path d="M-3.3 0.55 Q-0.45 -0.6 2.2 -2.25 5.05 -4.0 7.35 -6.45 9.45 -8.75 8.95 -5.7 8.4 -3.15 5.95 0.55 L1.8 1.4 Q-1.0 1.55 -3.3 0.55" fill="#3c2357" fill-rule="evenodd" stroke="none"/>
      <path d="M5.95 0.55 L5.35 1.4 Q2.35 5.65 -2.5 6.95 -7.4 8.25 -8.45 5.8 -9.5 3.3 -8.65 2.15 -5.9 1.55 -3.3 0.55 -1.0 1.55 1.8 1.4 L5.95 0.55" fill="#241436" fill-rule="evenodd" stroke="none"/>
      <path d="M-7.25 0.9 L-6.65 0.6 0.35 -2.6 Q4.2 -4.45 6.45 -6.4 L6.05 -5.55 Q4.75 -2.7 1.95 -0.45 -2.05 2.9 -6.7 2.4 L-7.35 1.5 -7.25 0.9" fill="#fff27c" fill-rule="evenodd" stroke="none"/>
      <path d="M6.45 -6.4 L6.65 -6.6 Q8.75 -8.5 8.25 -6.0 7.65 -3.6 4.35 -0.5 0.95 2.6 -3.5 4.05 -7.95 5.45 -8.8 3.65 -9.2 2.85 -8.75 2.15 L-8.55 1.85 -7.25 0.9 -7.35 1.5 -6.7 2.4 Q-2.05 2.9 1.95 -0.45 4.75 -2.7 6.05 -5.55 L6.45 -6.4" fill="#f2be56" fill-rule="evenodd" stroke="none"/>
    </g>
  </defs>
</svg>
