<?xml version="1.0" encoding="UTF-8" standalone="no"?>
<svg xmlns:ffdec="https://www.free-decompiler.com/flash" xmlns:xlink="http://www.w3.org/1999/xlink" ffdec:objectType="frame" height="41.35px" width="39.05px" xmlns="http://www.w3.org/2000/svg">
  <g transform="matrix(1.0, 0.0, 0.0, 1.0, 17.7, 59.05)">
    <use ffdec:characterId="2" height="41.35" transform="matrix(1.0, 0.0, 0.0, 1.0, -17.7, -59.05)" width="39.05" xlink:href="#sprite0"/>
  </g>
  <defs>
    <g id="sprite0">
      <use ffdec:characterId="1" height="41.35" transform="matrix(1.0, 0.0, 0.0, 1.0, 0.0, 0.0)" width="39.05" xlink:href="#shape0"/>
    </g>
    <g id="shape0">
      <path d="M30.8 35.15 Q30.8 37.75 27.25 39.6 23.7 41.35 18.7 41.35 13.65 41.35 10.1 39.6 6.55 37.75 6.55 35.15 6.55 32.55 10.1 30.8 13.65 28.95 18.7 28.95 23.7 28.95 27.25 30.8 30.8 32.55 30.8 35.15" fill="#000000" fill-opacity="0.4" fill-rule="evenodd" stroke="none"/>
      <path d="M28.55 27.0 L28.65 26.9 28.75 26.8 29.35 26.4 29.85 25.9 30.25 25.5 30.3 25.4 30.35 25.3 30.45 25.2 30.6 25.05 30.75 24.95 30.75 24.85 30.85 24.75 30.95 24.65 31.1 24.55 31.15 24.45 31.25 24.35 31.35 24.25 31.5 24.2 31.5 24.1 31.6 24.0 31.7 23.9 31.85 23.8 32.65 22.85 33.85 21.5 34.4 21.0 34.55 20.9 34.75 20.8 34.8 20.7 34.9 20.6 35.05 20.55 35.2 20.45 35.4 20.4 35.5 20.35 35.85 20.3 36.65 20.2 36.8 20.2 37.05 20.25 38.05 21.85 Q37.95 23.65 36.55 25.0 L34.05 27.6 32.5 29.6 Q32.95 30.85 33.0 32.25 33.05 33.45 32.25 34.4 31.25 35.65 29.55 35.9 L26.5 35.85 Q26.0 35.75 25.75 35.45 25.25 34.5 26.05 33.45 26.55 32.75 27.3 32.4 L28.05 30.4 Q28.5 29.15 28.5 27.75 L28.55 27.0 M5.7 35.35 L5.7 35.3 5.75 35.25 5.75 35.15 5.75 35.1 5.8 35.0 5.9 34.85 11.25 34.85 Q11.15 36.05 10.2 36.2 L6.3 36.1 5.7 35.45 5.7 35.35 M14.85 34.35 L15.15 34.0 15.45 34.1 15.55 34.1 16.85 34.0 17.25 34.15 16.45 34.35 17.75 34.2 Q19.85 33.65 21.0 34.85 L21.05 35.5 20.65 36.35 19.9 36.35 19.15 36.95 17.9 37.1 Q15.85 37.25 14.45 36.25 L14.4 36.15 14.5 34.9 14.55 34.85 14.85 34.35" fill="#ff9b00" fill-rule="evenodd" stroke="none"/>
      <path d="M37.05 20.25 L37.15 20.25 37.65 20.65 38.35 21.3 38.7 21.75 38.75 21.85 38.75 21.95 38.85 22.05 38.9 22.15 39.0 22.7 39.05 23.45 38.95 24.4 38.9 24.7 38.85 24.75 38.8 24.85 38.7 24.95 38.65 25.05 38.6 25.15 38.55 25.25 38.5 25.35 38.45 25.45 38.4 25.5 38.35 25.6 38.3 25.7 38.25 25.8 38.1 26.0 37.95 26.2 37.85 26.25 37.7 26.45 37.5 26.75 37.3 27.0 37.15 27.2 37.05 27.3 37.0 27.4 36.85 27.5 36.75 27.6 36.7 27.7 36.6 27.75 36.5 27.85 36.4 27.95 36.35 28.05 36.25 28.15 36.15 28.25 36.0 28.35 35.8 28.5 35.5 28.8 35.15 29.2 35.05 29.35 34.9 29.45 34.85 29.55 34.75 29.65 34.65 29.75 34.5 29.85 34.4 29.9 34.25 30.0 33.95 30.2 33.8 30.3 33.8 30.4 33.75 30.5 33.75 30.6 33.8 30.95 33.75 31.5 33.8 32.1 33.8 32.55 33.9 32.95 34.05 33.5 34.15 34.05 34.15 34.5 34.25 34.9 34.3 35.45 34.25 36.0 34.15 36.4 34.1 36.5 34.0 36.6 34.0 36.7 33.95 36.75 33.8 37.05 33.4 37.5 32.85 38.0 32.8 38.1 32.1 38.55 Q31.35 38.95 30.5 38.95 L27.65 39.0 27.25 38.95 25.65 38.7 25.5 38.6 25.35 38.5 25.15 38.35 24.9 38.05 24.6 37.7 24.5 37.5 24.45 37.4 24.45 37.3 24.45 37.2 24.4 37.1 24.45 37.0 24.45 36.95 24.45 36.75 24.45 36.55 24.45 36.35 24.45 36.25 24.45 36.2 24.25 36.1 23.4 36.1 22.6 36.3 22.45 36.35 22.4 36.5 22.35 36.7 22.35 36.8 22.25 36.9 22.2 37.0 22.2 37.1 22.15 37.15 22.15 37.25 22.1 37.35 22.05 37.45 22.0 37.55 21.9 37.75 21.9 37.85 21.85 37.9 21.8 38.0 21.75 38.1 21.7 38.2 21.65 38.25 21.6 38.3 21.5 38.4 21.4 38.5 21.3 38.55 21.1 38.7 16.6 38.65 15.6 38.55 Q14.9 38.3 14.25 37.85 L13.6 37.1 13.5 36.85 13.5 36.7 13.4 36.7 13.35 36.75 13.3 36.75 13.15 36.75 13.0 36.75 12.85 37.3 12.8 37.4 12.75 37.5 12.65 37.6 12.55 37.65 12.45 37.75 Q10.6 39.0 8.35 38.4 L8.25 38.35 6.4 38.1 5.85 37.75 5.25 37.25 5.25 37.15 5.2 37.05 5.2 36.95 5.15 36.85 5.2 36.75 5.2 36.65 5.25 36.5 5.3 36.3 5.35 36.2 5.4 36.1 5.45 35.95 5.5 35.75 5.6 35.55 5.65 35.45 5.7 35.35 5.7 35.45 6.3 36.1 10.2 36.2 Q11.15 36.05 11.25 34.85 L5.9 34.85 5.95 34.7 6.3 34.3 6.3 34.1 6.35 34.05 6.35 33.95 6.35 33.9 6.4 33.85 6.4 33.8 6.45 33.7 6.5 33.65 6.5 33.55 6.6 33.45 6.7 33.25 6.95 33.05 Q7.75 32.3 8.75 31.95 L9.45 31.75 9.8 31.65 13.2 30.95 14.95 30.85 17.0 31.05 17.95 31.65 18.0 31.75 18.15 31.75 18.55 31.55 18.6 31.5 18.65 31.45 18.7 31.45 Q19.0 31.2 19.4 31.2 L19.9 31.15 19.95 31.15 20.5 31.1 Q23.25 30.95 25.4 29.35 L26.55 28.55 26.45 28.45 26.45 28.35 26.45 28.25 26.45 28.15 26.45 28.1 27.15 27.6 27.9 27.35 28.1 27.2 28.25 27.2 28.4 27.1 28.55 27.0 28.5 27.75 Q28.5 29.15 28.05 30.4 L27.3 32.4 Q26.55 32.75 26.05 33.45 25.25 34.5 25.75 35.45 26.0 35.75 26.5 35.85 L29.55 35.9 Q31.25 35.65 32.25 34.4 33.05 33.45 33.0 32.25 32.95 30.85 32.5 29.6 L34.05 27.6 36.55 25.0 Q37.95 23.65 38.05 21.85 L37.05 20.25 M16.85 34.0 L16.95 34.0 16.95 33.9 17.0 33.75 17.0 33.65 11.85 33.65 11.65 34.0 11.7 34.1 11.8 34.25 12.2 34.5 12.45 34.7 12.65 34.85 12.8 35.05 12.9 35.25 12.95 35.35 13.0 35.35 13.15 35.35 13.3 35.35 13.35 35.35 13.4 35.4 13.6 35.4 13.7 35.45 13.75 35.35 14.1 34.85 14.45 34.5 14.6 34.4 14.85 34.35 14.55 34.85 14.5 34.9 14.4 36.15 14.45 36.25 Q15.85 37.25 17.9 37.1 L19.15 36.95 19.9 36.35 20.65 36.35 21.05 35.5 21.0 34.85 Q19.85 33.65 17.75 34.2 L16.45 34.35 17.25 34.15 16.85 34.0" fill="#a16200" fill-rule="evenodd" stroke="none"/>
      <path d="M14.85 34.35 L14.6 34.4 14.45 34.5 14.1 34.85 13.75 35.35 13.7 35.45 13.6 35.4 13.4 35.4 13.35 35.35 13.3 35.35 13.15 35.35 13.0 35.35 12.95 35.35 12.9 35.25 12.8 35.05 12.65 34.85 12.45 34.7 12.2 34.5 11.8 34.25 11.7 34.1 11.65 34.0 11.85 33.65 17.0 33.65 17.0 33.75 16.95 33.9 16.95 34.0 16.85 34.0 15.55 34.1 15.45 34.1 15.15 34.0 14.85 34.35" fill="#764800" fill-rule="evenodd" stroke="none"/>
      <path d="M26.7 7.55 L26.7 7.7 26.75 7.8 26.8 7.8 26.9 7.9 27.0 8.0 27.05 8.1 27.1 8.2 27.2 8.3 27.2 8.4 27.3 8.5 27.35 8.75 27.45 9.2 27.45 9.65 27.45 10.1 27.4 10.6 27.45 10.9 27.3 11.2 27.05 11.6 26.8 12.1 26.5 12.55 26.2 12.95 26.2 13.05 26.15 13.15 26.1 13.25 26.05 13.35 26.0 13.45 25.95 13.55 25.9 13.6 25.85 13.7 25.8 13.8 25.8 13.9 25.75 14.0 25.7 14.1 25.6 14.15 25.25 14.5 24.95 14.8 24.75 15.05 24.65 15.25 24.65 15.35 24.7 15.4 24.7 15.5 24.75 15.6 24.8 15.7 24.85 15.75 24.9 15.85 24.95 15.95 25.0 16.05 25.15 16.25 25.3 16.45 25.4 16.6 25.45 16.75 25.55 16.85 25.6 16.95 25.65 17.05 25.8 17.2 25.85 17.3 25.9 17.4 25.95 17.5 25.95 17.6 26.0 17.7 26.05 17.8 26.15 17.85 26.3 18.0 26.35 18.1 26.45 18.2 26.45 18.3 26.5 18.4 26.5 18.5 26.55 18.6 26.55 18.65 26.55 18.75 26.6 18.85 26.7 18.95 26.7 19.05 26.75 19.15 26.8 19.2 26.85 19.3 26.9 19.35 26.95 19.45 27.0 19.55 27.05 19.65 27.05 19.75 27.1 19.85 27.1 19.95 27.1 20.05 27.15 20.1 27.2 20.2 27.25 20.3 27.25 20.4 27.3 20.45 27.3 20.55 27.3 20.65 27.4 20.9 27.5 21.2 27.55 21.5 27.55 21.65 27.55 21.8 27.55 21.9 27.6 22.0 27.7 22.45 27.8 22.85 27.85 23.05 27.85 23.45 27.85 23.7 27.85 23.8 27.9 23.9 27.9 24.0 27.9 24.1 27.95 24.2 27.95 24.25 27.95 24.35 27.95 24.4 28.0 24.5 28.05 24.6 28.05 25.0 28.1 25.5 28.1 25.95 28.1 26.6 28.05 27.3 28.0 27.4 27.95 27.5 27.95 27.6 27.95 28.0 27.9 28.4 27.85 28.7 27.8 29.05 27.7 29.3 27.65 29.4 27.65 29.45 27.6 29.65 27.6 29.75 27.55 29.95 27.5 30.05 27.45 30.15 27.4 30.2 27.4 30.3 27.4 30.4 27.35 30.5 27.3 30.55 27.3 30.65 27.3 30.75 27.3 30.85 27.25 30.9 27.2 31.0 27.15 31.1 27.05 31.2 26.9 31.5 26.6 31.75 26.4 32.0 26.3 32.2 26.2 32.3 26.1 32.35 26.05 32.45 25.9 32.55 25.6 32.75 25.35 32.95 25.25 33.0 25.2 33.0 24.75 33.1 24.3 33.2 23.9 33.3 23.75 33.35 22.95 33.45 19.3 33.4 18.55 33.2 18.35 33.15 18.05 33.1 17.85 33.05 17.55 33.0 17.3 32.9 17.2 32.85 17.1 32.8 15.9 32.6 15.75 32.55 15.35 32.5 13.4 32.45 13.3 32.5 13.15 32.55 13.0 32.6 12.9 32.65 12.5 32.7 12.15 32.8 11.9 32.9 10.9 33.2 10.3 33.4 10.05 33.5 9.9 33.55 9.8 33.6 9.55 33.65 9.35 33.75 9.25 33.8 9.15 33.85 8.95 33.9 8.8 34.0 8.65 34.05 8.55 34.1 8.05 34.2 7.55 34.3 7.4 34.3 7.2 34.35 5.7 34.5 5.55 34.55 4.45 34.6 3.35 34.55 3.05 34.5 2.85 34.4 2.35 34.15 1.9 33.9 1.8 33.8 1.65 33.7 1.45 33.5 1.2 33.35 1.05 33.25 0.95 33.15 0.75 32.9 0.6 32.7 0.45 32.5 0.3 32.35 0.3 32.25 0.3 32.15 0.25 32.05 0.2 31.95 0.15 31.85 0.15 31.75 0.1 31.55 0.1 31.45 0.1 31.35 0.1 31.25 0.05 31.15 0.05 31.1 0.05 31.0 0.0 30.9 0.0 30.8 0.05 29.9 0.05 28.95 0.05 27.3 0.15 25.65 0.2 25.55 0.25 25.45 0.3 25.15 0.35 24.85 0.35 24.55 0.4 24.3 0.45 24.05 0.45 23.95 0.5 23.9 0.55 23.8 0.6 23.7 0.6 23.6 0.65 23.4 0.7 23.3 0.7 23.2 0.75 23.15 0.8 23.05 0.85 22.95 0.9 22.9 0.9 22.8 0.95 22.7 0.95 22.6 1.05 22.5 1.05 22.45 1.1 22.35 1.15 22.25 1.15 22.15 1.2 22.05 1.25 21.95 1.3 21.85 1.3 21.75 1.35 21.7 1.4 21.65 1.4 21.55 1.45 21.45 1.5 21.35 1.55 21.25 1.55 21.15 1.6 21.05 1.65 21.0 1.7 20.9 1.7 20.8 1.75 20.6 1.8 20.5 1.8 20.45 1.85 20.35 1.9 20.3 1.95 20.2 1.95 20.1 2.0 20.0 2.0 19.9 2.05 19.8 2.15 19.6 2.2 19.55 2.35 19.35 2.4 19.25 2.45 19.15 2.45 19.1 2.5 19.0 2.5 18.9 2.55 18.85 2.6 18.75 2.65 18.65 2.7 18.55 2.75 18.45 2.8 18.35 2.8 18.25 2.9 18.15 3.0 18.0 3.05 17.9 3.2 17.75 3.25 17.65 3.3 17.55 3.3 17.45 3.4 17.4 3.5 17.2 3.7 17.0 3.9 16.8 3.95 16.7 4.0 16.65 4.05 16.6 4.1 16.5 4.4 16.2 4.65 15.9 4.8 15.65 4.9 15.45 5.0 15.4 5.0 15.35 5.9 14.55 5.4 14.05 Q4.25 12.6 3.85 10.6 3.6 9.45 4.05 8.6 4.9 6.15 9.35 6.05 10.9 6.4 11.55 7.1 12.55 8.15 12.05 12.5 L11.8 12.6 12.05 12.6 12.05 12.65 12.15 12.6 13.35 12.6 15.3 12.65 15.4 12.65 17.3 12.6 17.3 12.2 17.3 11.65 17.3 11.2 17.3 10.55 Q17.3 10.15 17.45 9.85 L17.45 9.75 17.45 9.6 17.5 9.5 17.5 9.4 17.5 9.3 17.55 9.2 17.55 9.1 17.55 9.0 17.6 8.9 17.6 8.8 17.65 8.7 17.65 8.6 17.7 8.5 17.75 8.4 17.75 8.3 17.8 8.25 17.8 8.15 17.85 8.05 17.9 7.95 18.0 7.85 18.1 7.75 18.1 7.7 18.15 7.45 18.2 7.3 18.2 7.25 18.25 7.2 18.25 7.15 18.3 7.1 18.3 7.05 18.35 7.0 18.35 6.95 18.4 6.95 18.45 6.9 18.45 6.8 18.9 6.35 Q19.35 5.95 19.95 5.7 22.95 4.9 26.7 7.55 M3.6 18.15 L3.75 17.55 2.45 19.95 Q1.4 21.5 1.2 23.4 1.0 25.0 1.45 26.55 2.05 28.45 3.85 29.3 5.7 30.2 7.65 29.9 L11.5 29.3 15.4 29.45 19.25 29.9 Q21.15 29.65 22.8 28.35 24.2 27.2 24.8 25.65 25.5 23.8 25.15 21.85 24.8 19.95 23.6 18.35 22.35 16.65 20.8 15.3 19.35 14.1 17.35 13.65 L13.45 13.35 9.6 13.8 Q7.65 14.2 5.95 15.5 4.4 16.65 3.6 18.15" fill="#f79804" fill-rule="evenodd" stroke="none"/>
      <path d="M3.6 18.15 Q4.4 16.65 5.95 15.5 7.65 14.2 9.6 13.8 L13.45 13.35 17.35 13.65 Q19.35 14.1 20.8 15.3 22.35 16.65 23.6 18.35 24.8 19.95 25.15 21.85 25.5 23.8 24.8 25.65 24.2 27.2 22.8 28.35 21.15 29.65 19.25 29.9 L15.4 29.45 11.5 29.3 7.65 29.9 Q5.7 30.2 3.85 29.3 2.05 28.45 1.45 26.55 1.0 25.0 1.2 23.4 1.4 21.5 2.45 19.95 L3.75 17.55 3.6 18.15" fill="#ffb63f" fill-rule="evenodd" stroke="none"/>
      <path d="M8.65 10.4 L8.75 11.25 8.8 12.2 8.75 12.25 8.75 12.65 8.7 12.7 8.7 12.8 8.65 12.85 8.65 12.9 8.6 12.95 8.65 13.0 8.55 13.05 8.55 13.1 8.5 13.15 8.5 13.3 8.45 13.3 8.45 13.4 8.15 13.75 Q7.7 14.15 7.05 14.2 L6.75 14.25 6.1 14.0 5.45 13.55 5.25 13.35 5.2 13.3 5.2 13.25 5.15 13.15 5.1 13.0 4.95 12.9 4.9 12.85 4.9 12.8 4.85 12.75 4.85 12.7 4.8 12.65 4.8 12.6 4.75 12.55 4.7 12.35 4.65 12.3 4.65 12.2 4.6 12.2 4.6 12.1 4.55 12.05 4.5 11.9 4.45 11.85 4.45 11.65 4.35 11.55 4.3 11.5 4.35 11.35 4.3 11.15 4.25 10.8 4.2 10.35 4.2 10.2 4.5 9.2 Q4.75 8.7 5.8 8.15 6.8 7.55 7.55 7.8 8.3 8.05 8.4 8.65 L8.6 9.6 8.65 10.4" fill="#f6f8ea" fill-rule="evenodd" stroke="none"/>
      <path d="M21.0 7.45 L21.3 7.45 22.65 7.4 Q23.45 7.55 24.15 8.0 L24.5 8.4 24.5 8.45 24.55 8.5 24.6 8.6 24.65 8.65 24.65 8.75 24.7 8.8 24.7 8.85 24.8 8.95 24.85 9.05 24.95 9.2 24.95 9.35 25.0 9.5 25.05 9.65 25.05 9.7 25.1 9.75 25.1 9.8 25.15 9.9 25.15 10.0 25.15 10.15 25.2 10.3 25.2 10.35 25.2 10.45 25.15 10.5 25.2 10.6 25.15 10.65 25.15 10.75 25.1 10.8 25.1 10.85 25.05 11.0 24.85 11.25 24.8 11.5 24.6 11.75 24.45 11.85 23.95 12.55 21.95 14.0 21.45 14.1 20.6 13.9 20.5 14.0 20.5 14.05 20.35 14.1 20.2 14.15 20.15 14.2 20.0 14.15 19.6 14.1 19.4 13.95 19.25 13.8 19.2 13.8 19.2 13.75 19.15 13.7 19.15 13.6 19.1 13.55 19.05 13.45 19.0 13.45 19.0 13.4 18.95 13.35 18.95 13.3 18.9 13.25 18.9 13.2 18.8 13.15 18.8 13.1 18.75 13.0 18.7 12.85 18.65 12.7 18.6 12.6 18.5 12.45 18.5 12.4 18.45 12.25 18.4 12.05 18.4 11.85 18.35 11.65 18.3 11.4 18.3 11.25 18.3 11.2 18.35 11.15 18.3 11.05 18.35 11.0 18.35 10.8 18.35 10.7 18.35 10.6 18.4 10.5 18.4 10.4 18.4 10.35 18.4 10.3 18.45 10.25 18.45 10.2 18.5 10.15 18.45 9.95 18.5 9.9 18.5 9.8 18.55 9.75 18.5 9.65 18.55 9.6 18.6 9.55 18.6 9.5 18.65 9.4 18.7 9.35 18.65 9.25 18.7 9.2 Q18.7 9.0 18.85 8.9 L19.15 8.6 19.55 8.15 19.75 8.0 19.85 7.85 20.05 7.8 20.35 7.65 20.75 7.55 20.85 7.55 21.0 7.45" fill="#f6f8ea" fill-rule="evenodd" stroke="none"/>
      <path d="M20.9 12.4 L21.05 12.45 21.15 12.45 21.3 12.6 21.35 12.65 21.4 12.75 21.4 13.05 21.35 13.1 21.35 13.15 21.15 13.35 21.05 13.4 21.05 13.5 21.0 13.55 21.0 13.6 20.95 13.7 20.9 13.75 20.9 13.9 20.85 13.95 20.85 14.0 20.8 14.05 20.8 14.25 20.75 14.3 20.75 14.35 20.7 14.45 20.6 14.6 20.45 14.75 20.35 14.8 20.2 14.85 20.05 14.8 19.95 14.75 19.95 14.7 19.9 14.65 19.85 14.65 19.8 14.6 19.8 14.3 19.8 14.2 19.85 14.05 19.85 14.0 19.9 13.95 19.95 13.9 19.95 13.75 20.0 13.7 20.0 13.6 20.05 13.55 20.05 13.45 20.1 13.4 20.2 13.3 20.2 13.2 20.25 13.15 20.25 13.05 20.3 13.0 20.3 12.95 20.35 12.9 20.35 12.8 20.45 12.7 20.45 12.65 20.5 12.6 20.55 12.55 Q20.65 12.45 20.7 12.45 L20.9 12.4" fill="#df9521" fill-rule="evenodd" stroke="none"/>
      <path d="M7.15 12.75 L7.3 12.75 7.4 12.8 7.45 12.85 7.5 12.9 7.5 12.95 7.55 13.0 7.55 13.05 7.6 13.15 7.65 13.35 7.65 13.5 7.7 13.55 7.7 13.6 7.75 13.65 7.75 13.7 7.8 13.8 7.8 13.95 7.85 14.15 7.85 14.2 7.8 14.25 7.8 14.35 7.75 14.4 7.7 14.45 7.6 14.55 7.55 14.6 7.5 14.6 7.4 14.6 7.25 14.6 7.15 14.55 7.05 14.45 7.0 14.4 7.0 14.35 6.95 14.3 6.95 14.2 6.9 14.15 6.9 14.05 6.85 14.0 6.8 13.85 6.7 13.45 6.7 13.1 6.75 13.05 6.8 12.95 6.95 12.8 7.0 12.75 7.05 12.75 7.15 12.75" fill="#df9521" fill-rule="evenodd" stroke="none"/>
      <path d="M16.8 13.0 L16.95 13.05 17.1 13.1 17.25 13.2 17.25 13.25 17.3 13.3 17.3 13.35 17.35 13.4 17.35 13.45 17.4 13.5 17.4 13.8 17.35 13.85 17.35 13.9 17.3 13.95 17.3 14.0 17.25 14.05 17.25 14.1 17.15 14.15 17.1 14.2 17.05 14.2 Q14.25 14.5 11.5 14.3 L11.1 14.25 11.0 14.2 10.9 14.1 10.8 14.0 10.75 13.95 10.75 13.65 10.8 13.65 10.8 13.6 10.85 13.55 10.95 13.45 11.0 13.4 15.5 13.1 15.75 13.05 16.6 13.05 16.7 13.05 16.8 13.0" fill="#1f1911" fill-rule="evenodd" stroke="none"/>
      <path d="M16.4 14.95 L16.55 14.95 16.65 15.0 16.7 15.05 16.8 15.15 16.8 15.2 16.85 15.25 16.85 15.55 16.8 15.6 16.75 15.65 16.7 15.75 16.6 15.8 16.55 15.85 11.85 16.0 10.7 16.05 10.35 16.05 10.25 16.0 10.2 15.95 10.1 15.85 10.1 15.8 10.05 15.75 10.05 15.45 10.1 15.4 10.1 15.35 10.25 15.2 10.6 15.1 11.25 15.0 15.8 15.0 15.9 14.95 16.4 14.95" fill="#1f1911" fill-rule="evenodd" stroke="none"/>
      <path d="M13.7 13.3 L13.8 13.35 13.9 13.4 13.95 13.45 14.0 13.5 14.0 13.55 14.05 13.6 14.05 13.7 14.1 13.75 14.1 13.8 14.05 14.2 14.05 14.75 14.05 15.15 14.0 15.25 13.95 15.4 13.95 15.65 13.95 15.75 13.95 15.8 13.9 15.85 13.9 15.95 13.9 16.0 13.85 16.05 13.85 16.2 13.85 16.3 13.8 16.35 13.8 16.55 13.75 16.6 13.7 16.65 13.7 16.8 13.65 16.85 13.6 16.9 13.6 16.95 13.5 17.05 13.45 17.1 13.35 17.15 13.3 17.15 13.2 17.15 13.15 17.2 13.1 17.2 13.0 17.25 12.9 17.2 12.85 17.15 12.8 17.1 12.8 16.9 12.75 16.85 12.75 16.75 12.7 16.7 12.75 16.6 12.75 16.45 12.8 16.25 12.85 16.15 12.85 16.1 12.9 16.05 12.9 16.0 12.95 15.95 12.95 15.85 12.95 15.75 13.0 15.6 13.0 15.45 13.05 15.35 13.1 15.25 13.15 15.05 13.15 15.0 13.15 14.55 13.3 13.95 13.35 13.6 13.4 13.55 13.4 13.5 13.5 13.4 13.6 13.35 13.7 13.35 13.7 13.3" fill="#1f1911" fill-rule="evenodd" stroke="none"/>
      <path d="M12.6 16.6 L14.1 16.6 16.1 16.65 16.5 16.75 Q16.65 16.75 16.8 16.9 L16.85 16.95 16.9 16.95 16.9 17.0 16.95 17.05 16.95 17.15 17.0 17.2 17.0 17.4 16.95 17.45 16.95 17.55 16.9 17.6 16.9 17.65 16.85 17.65 16.8 17.7 16.7 17.75 16.65 17.8 16.45 17.85 16.35 17.85 16.3 17.8 16.2 17.8 16.1 17.75 15.85 17.65 13.35 17.7 11.7 17.8 9.5 17.6 9.4 17.55 9.35 17.5 9.3 17.45 9.3 17.4 9.25 17.35 9.25 17.0 9.35 16.9 9.4 16.85 9.45 16.8 9.5 16.8 9.6 16.8 9.7 16.75 9.75 16.75 9.85 16.75 9.95 16.8 10.05 16.8 12.6 16.6" fill="#1f1911" fill-rule="evenodd" stroke="none"/>
      <path d="M24.15 22.85 Q24.15 24.75 22.8 26.15 21.4 27.5 19.45 27.5 17.5 27.5 16.15 26.15 14.75 24.75 14.75 22.85 14.75 20.95 16.15 19.6 17.5 18.2 19.45 18.2 21.4 18.2 22.8 19.6 24.15 20.95 24.15 22.85" fill="#f7e9d6" fill-rule="evenodd" stroke="none"/>
      <path d="M23.35 22.85 Q23.35 24.4 22.2 25.6 21.05 26.75 19.4 26.75 17.75 26.75 16.6 25.6 15.45 24.4 15.45 22.85 15.45 21.25 16.6 20.1 17.75 18.95 19.4 18.95 21.05 18.95 22.2 20.1 23.35 21.25 23.35 22.85" fill="#1f1911" fill-rule="evenodd" stroke="none"/>
      <path d="M20.5 22.8 L20.2 23.55 19.4 23.85 Q18.95 23.85 18.65 23.55 18.3 23.25 18.3 22.8 18.3 22.35 18.65 22.05 18.95 21.7 19.4 21.7 19.85 21.7 20.2 22.05 L20.5 22.8" fill="#f8f8eb" fill-rule="evenodd" stroke="none"/>
      <path d="M3.85 27.1 L3.8 27.15 3.75 27.1 3.65 27.15 3.55 27.15 3.5 27.15 3.45 27.2 3.45 27.25 3.45 27.3 3.4 27.35 3.35 27.45 3.4 27.55 3.4 27.6 3.5 27.85 3.9 28.2 4.05 28.3 4.25 28.5 4.6 28.7 4.7 28.75 4.8 28.75 4.9 28.85 4.95 28.9 5.05 28.9 5.0 28.95 4.9 29.05 4.85 29.1 4.75 29.2 4.75 29.15 4.6 29.25 4.55 29.3 4.5 29.3 4.2 29.45 3.85 29.6 3.45 29.7 Q3.2 29.75 3.0 29.9 L2.95 29.9 2.95 29.95 2.9 30.0 2.9 30.1 2.8 30.1 2.8 30.25 2.8 30.35 2.8 30.45 2.85 30.45 2.85 30.5 2.8 30.55 2.95 30.65 3.0 30.65 3.05 30.75 3.25 30.7 3.3 30.65 3.35 30.6 3.7 30.55 4.2 30.4 4.5 30.25 4.8 30.15 5.25 29.9 5.7 29.6 5.75 29.5 5.8 29.35 5.9 29.25 5.9 29.15 5.9 29.0 5.9 28.95 5.95 28.9 5.95 28.8 5.9 28.6 5.85 28.5 5.8 28.4 5.75 28.3 5.7 28.3 5.25 27.85 4.75 27.55 4.55 27.5 4.35 27.35 4.25 27.35 4.15 27.25 3.85 27.1" fill="#000000" fill-rule="evenodd" stroke="none"/>
      <path d="M5.45 28.55 L5.35 28.55 5.1 28.55 5.0 28.65 3.85 28.55 3.75 28.55 3.4 28.5 3.2 28.45 3.05 28.5 3.0 28.5 2.9 28.5 2.9 28.55 2.85 28.6 2.8 28.65 2.75 28.9 2.8 28.9 2.8 28.95 2.75 29.05 2.75 29.1 2.9 29.15 3.2 29.25 3.25 29.25 3.35 29.2 3.4 29.2 3.45 29.2 4.8 29.4 5.05 29.4 5.55 29.05 5.65 28.8 5.6 28.75 5.6 28.7 5.55 28.7 5.55 28.6 5.55 28.55 5.45 28.55" fill="#000000" fill-rule="evenodd" stroke="none"/>
      <path d="M9.1 22.65 Q9.1 24.55 7.95 25.95 6.75 27.3 5.1 27.3 3.4 27.3 2.25 25.95 1.05 24.55 1.05 22.65 1.05 20.75 2.25 19.4 3.4 18.0 5.1 18.0 6.75 18.0 7.95 19.4 9.1 20.75 9.1 22.65" fill="#f7e9d6" fill-rule="evenodd" stroke="none"/>
      <path d="M8.35 22.65 Q8.35 24.2 7.4 25.4 6.4 26.55 5.0 26.55 3.55 26.55 2.6 25.4 1.6 24.2 1.6 22.65 1.6 21.05 2.6 19.9 3.55 18.75 5.0 18.75 6.4 18.75 7.4 19.9 8.35 21.05 8.35 22.65" fill="#1f1911" fill-rule="evenodd" stroke="none"/>
      <path d="M5.9 22.6 L5.6 23.35 4.95 23.65 Q4.55 23.65 4.3 23.35 4.0 23.05 4.0 22.6 4.0 22.15 4.3 21.85 4.55 21.5 4.95 21.5 5.35 21.5 5.6 21.85 5.9 22.15 5.9 22.6" fill="#f8f8eb" fill-rule="evenodd" stroke="none"/>
      <path d="M17.25 27.55 L17.95 27.65 Q18.3 27.8 18.5 28.15 L18.65 28.4 18.7 28.6 18.75 28.75 18.75 29.05 18.7 29.4 18.65 29.45 18.25 29.95 18.2 30.0 18.2 30.05 18.15 30.1 18.1 30.15 18.1 30.2 18.05 30.3 18.0 30.3 17.95 30.35 17.9 30.4 16.65 31.0 Q12.3 32.45 8.35 31.0 L7.1 30.45 7.0 30.45 6.65 30.3 6.4 30.1 6.2 30.0 6.15 30.0 6.0 29.85 5.9 29.7 5.8 29.55 5.7 29.4 5.6 29.25 5.6 29.15 5.55 29.05 5.5 28.9 5.5 28.8 5.5 28.7 5.5 28.55 5.5 28.45 5.55 28.4 5.55 28.25 5.6 28.2 5.6 28.15 5.65 28.1 5.75 28.0 5.8 27.9 5.85 27.85 5.95 27.75 6.0 27.75 6.05 27.7 6.2 27.6 6.5 27.45 6.6 27.4 6.75 27.4 7.25 27.4 7.35 27.4 8.15 27.95 Q9.9 28.95 12.4 28.95 14.9 28.95 16.6 27.95 L17.25 27.55" fill="#b70000" fill-rule="evenodd" stroke="none"/>
      <path d="M10.0 29.6 L10.15 29.6 10.5 29.75 11.05 29.8 11.15 29.85 11.05 30.95 10.85 30.9 10.65 30.9 10.6 30.9 10.1 30.85 9.65 30.75 9.45 30.7 10.0 29.6 M11.8 29.95 L11.85 29.95 12.05 29.95 12.45 29.95 12.55 29.95 12.9 29.95 13.1 31.05 13.05 31.05 12.75 31.1 11.5 31.1 11.8 29.95 M13.55 29.9 L14.2 29.75 14.35 29.7 14.85 30.85 13.8 31.0 13.7 31.0 13.55 31.0 13.55 29.9 M14.95 29.6 L15.35 29.3 15.85 29.25 16.15 29.35 16.15 29.4 16.2 29.45 16.25 29.55 16.3 29.6 16.3 29.75 16.35 29.8 16.35 29.95 16.3 30.0 16.3 30.1 15.6 30.6 15.15 30.75 15.05 30.8 14.95 29.6 M9.0 30.55 L8.9 30.5 8.5 30.35 8.3 30.25 8.25 30.2 8.25 30.15 8.2 30.1 8.15 30.1 8.15 30.05 8.1 30.0 8.05 29.95 8.05 29.8 8.0 29.8 8.0 29.55 8.05 29.5 8.05 29.4 8.15 29.3 8.35 29.15 8.55 29.1 8.6 29.1 8.7 29.1 8.8 29.1 8.9 29.15 9.0 29.25 9.05 29.25 9.15 29.35 9.3 29.4 9.4 29.45 9.0 30.55" fill="#fff4f4" fill-rule="evenodd" stroke="none"/>
      <path d="M11.15 29.85 L11.5 29.95 11.8 29.95 11.5 31.1 11.3 31.05 11.15 31.0 11.05 30.95 11.15 29.85 M12.9 29.95 L12.95 29.9 13.05 29.9 13.45 29.9 13.55 29.9 13.55 31.0 13.25 31.05 13.1 31.05 12.9 29.95 M14.35 29.7 L14.9 29.6 14.95 29.6 15.05 30.8 14.85 30.85 14.35 29.7 M9.45 30.7 L9.25 30.6 9.2 30.6 9.0 30.55 9.4 29.45 9.45 29.45 9.75 29.55 10.0 29.6 9.45 30.7" fill="#000000" fill-rule="evenodd" stroke="none"/>
      <path d="M12.05 20.65 L12.5 20.75 12.9 21.05 13.0 21.25 13.1 21.9 13.2 23.05 13.35 23.85 13.4 23.85 13.4 23.95 13.45 24.1 13.45 24.2 13.45 24.4 13.45 24.5 13.5 24.7 13.55 24.85 13.6 25.2 13.65 25.5 13.6 25.55 13.6 25.65 13.6 25.75 13.6 25.8 13.55 25.95 13.15 26.35 Q12.55 26.7 11.8 26.65 L10.95 26.65 10.5 26.45 10.45 26.45 10.4 26.35 10.3 26.25 10.25 26.2 10.25 26.15 10.2 26.15 10.2 26.05 10.15 26.0 10.15 25.9 10.15 25.75 10.15 25.6 10.15 25.4 10.15 25.15 10.15 25.05 10.2 25.0 10.2 24.9 10.25 24.85 10.25 24.8 10.25 24.65 10.3 24.6 10.3 24.5 10.35 24.45 10.35 24.0 10.5 23.3 10.75 22.55 10.75 22.5 10.8 22.4 10.85 22.25 10.85 22.15 10.9 21.95 10.95 21.85 10.95 21.8 11.0 21.8 11.0 21.7 11.05 21.65 11.05 21.55 11.1 21.5 11.1 21.45 11.15 21.4 11.25 21.15 11.45 20.9 Q11.65 20.7 11.95 20.65 L12.05 20.65" fill="#1a8500" fill-rule="evenodd" stroke="none"/>
      <path d="M10.55 24.15 L10.95 24.15 11.3 24.25 11.4 24.35 11.5 24.4 11.55 24.4 11.6 24.45 11.65 24.5 11.7 24.55 11.85 24.55 11.9 24.55 12.0 24.55 Q12.35 24.25 12.8 24.25 L13.75 24.35 14.2 24.65 14.25 24.65 14.3 24.7 14.35 24.8 14.45 24.85 14.5 24.95 14.55 25.0 14.55 25.1 14.6 25.1 14.6 25.25 14.65 25.5 14.7 25.7 14.7 26.0 14.65 26.2 14.6 26.3 14.55 26.4 14.5 26.5 14.4 26.6 14.3 26.75 14.2 26.85 13.45 27.15 12.2 27.05 11.95 26.85 11.85 26.8 Q11.3 27.3 10.55 27.2 L9.6 26.75 9.35 26.4 9.35 26.25 9.3 26.2 9.3 26.0 9.3 25.9 9.3 25.7 9.3 25.5 9.3 25.3 9.35 25.1 9.4 25.05 9.4 25.0 9.45 24.95 9.45 24.9 9.5 24.85 9.5 24.8 9.55 24.8 9.55 24.75 9.65 24.6 9.95 24.35 Q10.15 24.2 10.35 24.2 L10.55 24.15" fill="#1a8500" fill-rule="evenodd" stroke="none"/>
      <path d="M10.15 25.3 L10.5 25.35 10.85 25.65 10.95 25.8 11.0 25.9 11.0 26.05 11.0 26.2 10.95 26.5 10.75 26.8 9.65 26.85 9.6 26.85 9.55 26.75 9.5 26.7 9.45 26.65 9.4 26.55 9.35 26.55 9.35 26.45 9.3 26.4 9.3 25.9 9.35 25.85 9.35 25.8 9.4 25.75 9.4 25.7 9.45 25.65 9.5 25.6 9.55 25.5 9.65 25.45 9.8 25.35 9.95 25.3 10.15 25.3" fill="#000000" fill-rule="evenodd" stroke="none"/>
      <path d="M13.85 25.5 L14.15 25.6 14.45 25.8 14.55 26.0 14.55 26.1 14.55 26.15 14.55 26.3 14.55 26.5 14.55 26.55 14.05 26.95 Q13.35 27.1 13.05 26.55 L13.0 26.55 13.0 26.4 13.0 26.3 13.0 26.1 13.1 25.95 13.4 25.65 13.75 25.55 13.85 25.5" fill="#000000" fill-rule="evenodd" stroke="none"/>
      <path d="M21.1 27.55 L21.15 27.6 21.25 27.55 21.4 27.6 21.5 27.65 21.55 27.7 21.55 27.75 21.6 27.8 21.6 27.85 21.65 27.9 21.65 28.0 21.6 28.1 21.6 28.15 21.35 28.35 20.7 28.65 20.5 28.7 20.1 28.85 19.65 29.0 19.45 29.1 19.4 29.1 19.3 29.1 19.15 29.15 19.1 29.2 18.95 29.2 18.95 29.25 19.1 29.35 19.15 29.4 19.2 29.5 19.25 29.5 19.4 29.6 19.45 29.65 19.5 29.65 19.9 29.85 20.35 30.05 20.85 30.2 21.35 30.45 21.4 30.5 21.4 30.55 21.45 30.6 21.45 30.7 21.5 30.75 21.5 30.9 21.45 30.95 21.45 31.05 21.4 31.05 21.4 31.1 21.35 31.15 21.15 31.25 21.1 31.25 21.0 31.3 20.75 31.25 20.65 31.2 20.6 31.15 20.2 31.05 19.6 30.8 19.25 30.65 18.9 30.45 18.3 30.1 17.85 29.75 17.75 29.65 17.75 29.5 17.7 29.4 17.7 29.3 17.75 29.15 17.75 29.05 17.8 29.0 17.8 28.9 17.9 28.75 18.0 28.65 18.1 28.55 18.2 28.45 18.25 28.45 19.05 28.1 19.8 27.9 20.05 27.85 20.35 27.75 20.5 27.75 20.7 27.65 21.1 27.55" fill="#000000" fill-rule="evenodd" stroke="none"/>
      <path d="M18.5 28.75 L18.7 28.75 18.95 28.8 19.1 28.9 20.65 29.0 20.8 29.0 21.3 29.0 21.6 29.0 21.75 29.05 21.8 29.1 21.9 29.1 21.9 29.15 21.95 29.2 21.95 29.25 22.0 29.3 22.0 29.55 21.95 29.55 21.95 29.6 21.9 29.65 21.9 29.7 21.7 29.75 21.3 29.8 21.25 29.8 21.1 29.75 21.0 29.7 20.95 29.7 19.1 29.7 18.75 29.65 18.2 29.25 18.2 28.95 18.25 28.9 18.25 28.85 18.3 28.85 18.35 28.8 18.4 28.75 18.5 28.75" fill="#000000" fill-rule="evenodd" stroke="none"/>
      <path d="M12.5 34.5 L12.9 34.6 13.15 34.85 13.25 35.0 13.25 35.1 13.3 35.15 13.3 35.25 13.3 35.35 13.3 35.45 13.3 35.5 13.25 35.55 13.25 35.6 13.2 35.65 13.2 35.75 13.15 35.75 13.1 35.8 13.1 35.85 12.55 36.05 11.7 35.85 11.7 35.8 11.65 35.75 11.6 35.75 11.55 35.7 11.5 35.6 11.5 35.5 11.45 35.45 11.45 35.0 11.6 34.8 Q12.0 34.45 12.5 34.5" fill="#ffffff" fill-rule="evenodd" stroke="none"/>
      <path d="M11.85 36.45 L11.95 36.45 12.0 36.45 12.1 36.5 12.8 36.55 13.3 36.8 13.5 37.05 13.55 37.1 13.55 37.2 13.6 37.25 13.6 37.45 13.55 37.5 13.55 37.6 13.5 37.65 13.15 38.0 12.05 38.05 Q11.5 37.9 11.2 37.45 L11.2 37.4 11.15 37.35 11.15 36.95 11.2 36.95 11.2 36.85 11.3 36.75 11.3 36.7 11.4 36.65 11.45 36.55 11.65 36.5 11.75 36.45 11.85 36.45" fill="#ffffff" fill-rule="evenodd" stroke="none"/>
      <path d="M14.0 34.65 L14.1 34.65 14.45 34.7 14.65 34.7 14.9 34.85 14.95 34.9 14.95 34.95 15.0 35.0 15.05 35.05 15.05 35.1 15.1 35.15 15.1 35.45 15.05 35.5 15.05 35.55 15.0 35.65 14.95 35.7 14.8 35.8 14.45 35.9 14.25 35.95 13.65 35.85 13.4 35.6 13.4 35.5 13.35 35.5 13.35 35.15 13.4 35.1 13.4 35.0 13.45 34.95 13.5 34.9 13.55 34.85 13.6 34.8 13.6 34.75 13.7 34.75 13.75 34.7 13.85 34.65 13.9 34.65 14.0 34.65" fill="#ffffff" fill-rule="evenodd" stroke="none"/>
      <path d="M14.25 36.5 L14.65 36.55 15.1 36.7 15.25 36.95 15.25 37.0 15.3 37.05 15.3 37.2 15.25 37.3 15.25 37.35 14.95 37.65 13.7 37.5 13.65 37.4 13.65 37.3 13.65 37.25 13.6 37.2 13.6 37.1 13.65 37.1 13.65 36.95 13.7 36.85 13.8 36.75 13.9 36.6 14.15 36.55 14.25 36.5" fill="#ffffff" fill-rule="evenodd" stroke="none"/>
      <path d="M24.05 36.2 L24.35 36.25 24.65 36.3 24.9 36.35 25.0 36.4 25.05 36.45 25.1 36.45 25.2 36.55 25.25 36.6 25.25 36.65 25.3 36.7 25.3 36.8 25.35 36.8 25.35 36.95 25.3 36.95 25.3 37.0 25.25 37.05 25.25 37.1 25.15 37.2 25.1 37.25 25.0 37.3 24.9 37.35 24.8 37.4 24.3 37.6 Q23.7 37.8 23.25 37.4 L23.1 37.2 23.1 37.1 23.05 37.1 23.05 36.8 23.1 36.8 23.1 36.65 23.15 36.65 23.25 36.5 23.4 36.35 23.65 36.25 23.95 36.2 24.05 36.2" fill="#ffffff" fill-rule="evenodd" stroke="none"/>
      <path d="M24.2 37.7 L24.75 37.7 25.25 37.75 25.55 37.8 25.6 37.85 25.65 37.9 25.7 37.95 25.75 37.95 25.75 38.0 25.8 38.05 25.8 38.4 25.75 38.4 25.7 38.5 25.65 38.5 25.55 38.6 25.5 38.6 25.4 38.65 25.25 38.75 25.2 38.8 24.95 38.9 24.8 38.95 24.55 39.15 Q24.25 39.35 23.9 39.15 L23.55 38.85 23.55 38.8 23.5 38.7 23.5 38.65 23.45 38.6 23.45 38.55 23.45 38.45 23.45 38.3 23.5 38.25 23.5 38.15 23.55 38.1 23.6 38.0 23.65 37.95 23.7 37.9 23.75 37.85 23.8 37.8 24.0 37.75 24.1 37.7 24.2 37.7" fill="#ffffff" fill-rule="evenodd" stroke="none"/>
      <path d="M29.25 26.35 L29.2 26.25 29.2 26.0 30.7 24.85 33.75 21.3 Q35.25 19.9 36.5 20.2 37.7 20.45 37.6 20.85 L37.65 20.85 37.65 20.95 37.7 21.05 37.7 21.15 37.7 21.2 37.7 21.3 37.7 21.4 37.65 21.45 37.65 21.55 37.6 21.6 37.6 21.65 37.25 22.0 35.3 22.05 35.3 22.1 35.15 22.0 35.0 22.0 34.9 21.95 34.85 21.95 34.85 22.0 34.75 22.0 34.4 22.3 34.35 22.3 34.1 22.6 34.1 22.65 34.15 22.7 34.25 22.7 34.8 22.85 35.35 23.25 35.4 23.3 35.4 23.35 35.45 23.4 35.45 23.45 35.45 23.55 35.5 23.6 35.5 23.65 35.45 23.65 35.45 23.75 35.45 23.85 35.4 23.9 35.4 23.95 35.35 24.0 35.35 24.05 35.25 24.2 35.25 24.15 34.8 24.3 34.6 24.25 34.55 24.25 34.15 24.2 33.7 24.3 32.8 24.15 32.75 24.15 32.75 24.2 32.4 24.55 32.25 24.65 32.2 24.7 32.2 24.75 32.15 24.85 32.1 24.85 32.15 24.9 32.2 24.9 Q33.0 24.9 33.55 25.35 L33.85 25.75 33.9 25.75 33.9 25.85 33.95 25.9 33.95 26.15 33.9 26.2 33.9 26.25 33.85 26.3 33.85 26.35 33.8 26.4 33.7 26.45 33.65 26.45 33.45 26.5 32.95 26.5 32.55 26.4 32.5 26.4 32.35 26.4 32.1 26.5 31.5 26.55 31.15 26.6 31.05 26.6 30.45 26.65 30.2 26.7 30.2 26.75 30.1 26.75 29.95 26.75 29.9 26.75 29.85 26.7 29.7 26.7 29.65 26.7 29.6 26.65 29.55 26.65 29.5 26.6 29.4 26.6 29.4 26.55 29.35 26.55 29.35 26.5 29.3 26.5 29.3 26.45 29.25 26.4 29.25 26.35" fill="#000000" fill-rule="evenodd" stroke="none"/>
      <path d="M16.2 0.05 L16.45 0.05 16.45 0.0 16.7 0.1 16.85 0.2 17.15 0.35 17.55 0.55 17.65 0.65 17.7 0.75 17.9 0.95 18.0 1.05 18.1 1.2 18.2 1.3 18.25 1.4 18.3 1.5 18.4 1.95 18.45 2.7 18.3 3.75 18.2 4.0 18.15 4.1 18.1 4.2 18.05 4.3 18.05 4.4 18.0 4.5 17.95 4.6 17.9 4.7 17.9 4.75 17.85 4.85 17.85 4.95 17.8 5.05 17.8 5.15 17.8 5.35 17.8 5.5 17.75 5.7 17.65 6.0 17.65 6.1 17.65 6.2 17.65 6.35 17.65 6.45 17.6 6.65 17.55 6.85 17.55 6.9 17.45 7.0 17.45 7.2 17.4 7.4 17.4 7.6 17.35 7.95 17.35 8.25 17.2 8.8 17.0 9.75 16.65 10.95 16.65 11.05 16.65 11.15 16.6 11.25 16.6 11.35 16.6 11.4 14.5 11.4 14.5 11.35 14.45 11.15 14.4 10.95 14.4 10.75 14.4 10.5 14.4 10.4 14.35 10.3 14.3 10.2 14.25 10.1 14.25 10.0 14.25 9.95 14.2 9.85 14.2 9.75 14.1 9.65 14.05 9.55 14.0 9.45 13.95 9.35 13.95 9.25 13.9 9.2 13.85 9.1 13.8 9.0 13.8 8.9 13.7 8.8 13.65 8.5 13.65 8.3 13.7 8.35 13.75 8.4 14.35 8.4 14.95 6.65 14.95 6.7 15.05 7.15 15.05 7.9 15.05 8.25 15.05 8.35 15.15 8.45 15.2 8.55 15.25 8.65 15.3 8.75 15.3 8.85 15.4 8.9 15.45 9.05 15.55 9.1 15.55 9.2 15.6 9.3 15.6 9.4 15.65 9.5 15.7 9.45 15.7 9.25 15.75 8.9 15.85 8.35 15.9 8.25 15.9 8.15 15.9 8.05 15.95 7.75 15.95 7.3 16.0 7.0 16.05 6.95 16.1 6.85 16.15 6.65 16.2 6.25 16.25 5.7 16.4 5.35 16.4 5.25 16.4 5.15 16.4 5.05 16.4 4.95 16.45 4.75 16.45 4.7 16.45 4.6 16.5 4.5 16.5 4.4 16.55 4.2 16.55 4.1 16.65 4.0 16.7 3.95 16.7 3.85 16.7 3.75 16.7 3.65 16.75 3.55 16.75 3.45 16.8 3.35 16.85 3.25 16.9 3.2 16.9 3.1 16.95 3.0 16.95 2.9 16.95 2.8 16.95 2.7 16.95 2.6 16.95 2.45 16.95 2.35 16.9 2.25 16.8 2.15 16.75 2.05 16.7 1.95 16.65 1.85 16.55 1.75 16.45 1.7 16.35 1.6 16.2 1.5 Q17.15 0.4 16.2 0.05 M14.85 3.9 L14.75 3.8 14.8 3.65 14.8 3.7 14.85 3.9" fill="#c50000" fill-rule="evenodd" stroke="none"/>
      <path d="M13.65 8.3 L13.65 8.25 13.65 7.75 13.65 7.65 13.65 7.2 13.55 6.75 13.5 6.35 13.5 4.85 13.55 3.65 13.55 3.35 13.5 3.0 13.45 2.5 13.45 2.4 13.55 1.85 13.65 1.5 13.65 1.4 13.75 1.3 13.8 1.2 13.85 1.1 14.05 0.75 14.75 0.4 15.55 0.2 15.65 0.1 15.75 0.1 15.95 0.05 16.2 0.05 Q17.15 0.4 16.2 1.5 L16.0 1.5 15.95 1.5 15.7 1.55 15.3 1.6 15.15 1.7 14.95 1.8 14.9 1.9 14.85 2.0 14.8 2.1 14.75 2.2 14.75 2.25 14.7 2.35 14.7 2.45 14.7 2.55 14.7 2.65 14.75 2.75 14.8 2.85 14.8 3.65 14.75 3.8 14.85 3.9 14.85 5.2 14.9 6.5 14.95 6.65 14.35 8.4 13.75 8.4 13.7 8.35 13.65 8.3" fill="#ff0000" fill-rule="evenodd" stroke="none"/>
      <path d="M16.6 11.4 L16.6 11.45 16.55 11.5 16.55 11.6 16.55 11.7 16.55 11.8 16.5 11.9 16.5 12.2 16.5 12.45 16.4 12.9 16.25 13.4 16.2 13.5 16.05 13.6 15.85 13.65 15.65 13.6 15.5 13.5 15.4 13.4 15.4 13.3 15.35 13.2 15.35 13.1 15.3 13.0 15.3 12.95 15.2 12.9 15.0 12.85 14.9 12.75 14.85 12.65 14.8 12.55 14.85 12.45 14.85 12.35 14.8 12.25 14.7 12.15 14.65 12.1 14.55 12.0 14.55 11.9 14.55 11.8 14.5 11.7 14.5 11.6 14.5 11.5 14.5 11.4 16.6 11.4" fill="#650000" fill-rule="evenodd" stroke="none"/>
    </g>
  </defs>
</svg>
