<?xml version="1.0" encoding="UTF-8" standalone="no"?>
<svg xmlns:ffdec="https://www.free-decompiler.com/flash" xmlns:xlink="http://www.w3.org/1999/xlink" ffdec:objectType="frame" height="46.75px" width="37.8px" xmlns="http://www.w3.org/2000/svg">
  <g transform="matrix(1.0, 0.0, 0.0, 1.0, 16.8, 78.35)">
    <filter color-interpolation-filters="sRGB" height="300%" id="filter0" width="300%" x="-100%" y="-100%">
      <feOffset dx="0.0" dy="0.0" in="SourceGraphic" result="filterResult0"/>
      <feColorMatrix in="filterResult0" result="filterResult1" type="matrix" values="0 0 0 0 0.0,0 0 0 0 0.0,0 0 0 0 0.0,0 0 0 1.0 0"/>
      <feGaussianBlur in="filterResult1" result="filterResult2" stdDeviation="0.816496580927726 0.816496580927726"/>
      <feColorMatrix in="filterResult2" result="filterResult3" type="matrix" values="1 0 0 0 0,0 1 0 0 0,0 0 1 0 0,0 0 0 10.0 0"/>
      <feComposite in="SourceGraphic" in2="filterResult3" operator="over" result="filterResult4"/>
      <feColorMatrix in="filterResult4" result="filterResult5" type="matrix" values="0.58325404 1.151766 0.15498 0.0 -0.740451 0.58325404 1.151766 0.15498 0.0 -0.740451 0.58325404 1.151766 0.15498 0.0 -0.740451 0.0 0.0 0.0 1.0 0.0"/>
    </filter>
    <use ffdec:characterId="20" filter="url(#filter0)" height="51.9" transform="matrix(0.9, 0.0, 0.0, 0.9, 2.3, -53.65)" width="42.05" xlink:href="#sprite0"/>
  </g>
  <defs>
    <g id="sprite0">
      <use ffdec:characterId="1" height="50.95" transform="matrix(1.0, 0.0, 0.0, 1.0, 0.0, 0.0)" width="37.05" xlink:href="#shape0"/>
    </g>
    <g id="shape0">
      <path d="M-15.4 -23.85 L-9.35 -23.1 -0.75 -16.45 -3.3 -14.25 -15.4 -23.85" fill="#9f9783" fill-rule="evenodd" stroke="none"/>
      <path d="M-0.75 -16.45 L10.6 -26.35 10.8 -26.5 13.9 -26.75 13.8 8.15 -3.2 24.2 -17.4 5.75 -17.55 -23.6 -15.4 -23.85 -3.3 -14.25 -0.75 -16.45 M10.8 -13.95 L10.75 -18.8 -2.35 -8.6 -2.35 17.15 3.5 11.35 10.75 4.15 10.8 -13.95 M-3.95 8.8 L-4.0 -8.7 -9.3 -12.65 -15.4 -17.15 -15.25 2.8 -3.95 16.95 -3.95 8.8" fill="#fcc500" fill-rule="evenodd" stroke="none"/>
      <path d="M13.9 -26.75 L19.5 -25.8 19.35 7.4 13.8 8.15 13.9 -26.75" fill="#fffee0" fill-rule="evenodd" stroke="none"/>
      <path d="M19.35 7.4 L2.6 22.85 -3.2 24.2 13.8 8.15 19.35 7.4" fill="#857e6d" fill-rule="evenodd" stroke="none"/>
      <path d="M-2.35 -8.6 L10.75 -18.8 10.8 -13.95 3.5 -8.5 -2.35 -8.6" fill="#898170" fill-rule="evenodd" stroke="none"/>
      <path d="M3.5 11.35 L-2.35 17.15 -2.35 -8.6 3.5 -8.5 3.5 11.35" fill="#fffff0" fill-rule="evenodd" stroke="none"/>
      <path d="M-9.3 -12.65 L-9.3 2.4 -15.25 2.8 -15.4 -17.15 -9.3 -12.65" fill="#fffffd" fill-rule="evenodd" stroke="none"/>
      <path d="M-9.3 2.4 L-3.95 8.8 -3.95 16.95 -15.25 2.8 -9.3 2.4" fill="#eaddbf" fill-rule="evenodd" stroke="none"/>
    </g>
  </defs>
</svg>
