<?xml version="1.0" encoding="UTF-8" standalone="no"?>
<svg xmlns:ffdec="https://www.free-decompiler.com/flash" xmlns:xlink="http://www.w3.org/1999/xlink" ffdec:objectType="frame" height="31.35px" width="26.35px" xmlns="http://www.w3.org/2000/svg">
  <g transform="matrix(1.0, 0.0, 0.0, 1.0, 14.6, 70.6)">
    <filter color-interpolation-filters="sRGB" height="300%" id="filter0" width="300%" x="-100%" y="-100%">
      <feOffset dx="0.0" dy="0.0" in="SourceGraphic" result="filterResult0"/>
      <feColorMatrix in="filterResult0" result="filterResult1" type="matrix" values="0 0 0 0 1.0,0 0 0 0 1.0,0 0 0 0 0.0,0 0 0 1.0 0"/>
      <feGaussianBlur in="filterResult1" result="filterResult2" stdDeviation="2.29128784747792 2.29128784747792"/>
      <feComposite in="SourceGraphic" in2="filterResult2" operator="over" result="filterResult3"/>
    </filter>
    <use ffdec:characterId="7" filter="url(#filter0)" height="26.35" transform="matrix(1.0, 0.0, 0.0, 1.0, -1.0, -40.0)" width="26.35" xlink:href="#sprite0"/>
    <filter color-interpolation-filters="sRGB" height="300%" id="filter1" width="300%" x="-100%" y="-100%">
      <feOffset dx="0.0" dy="0.0" in="SourceGraphic" result="filterResult4"/>
      <feColorMatrix in="filterResult4" result="filterResult5" type="matrix" values="0 0 0 0 1.0,0 0 0 0 1.0,0 0 0 0 0.8,0 0 0 1.0 0"/>
      <feGaussianBlur in="filterResult5" result="filterResult6" stdDeviation="1.118033988749895 1.118033988749895"/>
      <feComposite in="SourceGraphic" in2="filterResult6" operator="over" result="filterResult7"/>
    </filter>
    <use ffdec:characterId="7" filter="url(#filter1)" height="26.35" transform="matrix(1.0, 0.0, 0.0, 1.0, -1.0, -40.0)" width="26.35" xlink:href="#sprite3"/>
  </g>
  <defs>
    <g id="sprite0">
      <use ffdec:characterId="1" height="26.35" transform="matrix(1.0, 0.0, 0.0, 1.0, 0.0, 0.0)" width="26.35" xlink:href="#shape0"/>
      <use ffdec:characterId="3" height="45.7" transform="matrix(0.45, 0.0, 0.0, 0.45, -11.35, -23.75)" width="27.75" xlink:href="#sprite1"/>
      <use ffdec:characterId="5" height="27.7" transform="matrix(0.45, 0.0, 0.0, 0.45, 0.5, -19.55)" width="23.3" xlink:href="#sprite2"/>
      <use ffdec:characterId="6" height="9.0" transform="matrix(1.0, 0.0, 0.0, 1.0, 0.0, 0.0)" width="19.45" xlink:href="#shape3"/>
    </g>
    <g id="shape0">
      <path d="M12.4 -12.45 Q12.4 -7.1 8.65 -3.35 4.9 0.4 -0.45 0.4 -5.75 0.4 -9.5 -3.35 -11.0 -4.9 -11.9 -6.65 -13.25 -9.3 -13.25 -12.45 L-13.15 -14.1 Q-12.9 -16.3 -11.9 -18.2 -11.0 -19.95 -9.5 -21.5 L-6.95 -23.5 -6.9 -23.55 Q-4.0 -25.25 -0.45 -25.25 3.15 -25.25 6.05 -23.55 L6.1 -23.5 Q7.45 -22.7 8.65 -21.5 11.8 -18.35 12.3 -14.1 L12.4 -12.45" fill="#ffc800" fill-rule="evenodd" stroke="none"/>
      <path d="M11.2 -13.5 Q11.2 -8.7 7.8 -5.3 4.4 -1.9 -0.4 -1.9 -5.2 -1.9 -8.6 -5.3 -12.0 -8.7 -12.0 -13.5 -12.0 -18.3 -8.6 -21.7 -5.2 -25.1 -0.4 -25.1 4.4 -25.1 7.8 -21.7 11.2 -18.3 11.2 -13.5" fill="#ffe956" fill-rule="evenodd" stroke="none"/>
      <path d="M12.4 -12.45 Q12.4 -7.1 8.65 -3.35 4.9 0.4 -0.45 0.4 -5.75 0.4 -9.5 -3.35 -13.25 -7.1 -13.25 -12.45 -13.25 -17.75 -9.5 -21.5 -5.75 -25.25 -0.45 -25.25 4.9 -25.25 8.65 -21.5 12.4 -17.75 12.4 -12.45 Z" ffdec:has-small-stroke="true" ffdec:original-stroke-width="0.7" fill="none" stroke="#791900" stroke-linecap="round" stroke-linejoin="round" stroke-width="1.0"/>
    </g>
    <g id="sprite1">
      <use ffdec:characterId="2" height="45.7" transform="matrix(1.0, 0.0, 0.0, 1.0, 0.0, 0.0)" width="27.75" xlink:href="#shape1"/>
    </g>
    <g id="shape1">
      <path d="M0.6 20.25 Q0.6 14.45 3.3 9.75 4.6 7.45 6.5 5.4 L6.6 5.45 Q7.5 4.6 8.75 4.6 L9.75 4.75 Q10.45 5.0 11.0 5.55 11.95 6.5 11.95 7.75 L11.95 7.8 11.95 8.3 12.9 8.45 13.35 7.75 13.4 7.65 Q15.15 5.45 17.65 4.85 L17.8 4.8 21.15 5.05 22.1 5.65 Q23.9 7.1 23.9 9.75 23.9 12.3 22.1 14.6 L21.5 15.25 22.9 16.55 Q25.05 18.9 25.05 22.2 25.05 25.6 22.9 27.95 L21.5 29.25 21.3 29.35 21.5 29.4 Q23.2 29.55 24.5 30.85 26.1 32.5 26.1 34.65 L25.8 36.5 25.35 37.4 24.5 38.45 Q23.25 39.8 21.5 40.05 L20.7 40.1 18.65 39.7 16.9 38.45 Q16.0 37.55 15.65 36.5 L15.5 35.95 14.85 36.5 Q13.3 37.6 11.2 37.6 L10.75 37.6 Q8.45 37.45 6.75 35.75 5.95 34.95 5.5 34.0 L5.45 33.9 4.5 32.65 3.3 30.8 2.9 30.1 Q0.6 25.65 0.6 20.25 M19.5 1.4 Q19.5 1.95 19.1 2.35 L18.1 2.8 17.65 2.75 17.15 2.35 Q16.7 1.95 16.7 1.4 L16.8 0.9 Q16.9 0.6 17.15 0.4 17.55 0.0 18.1 0.0 18.65 0.0 19.1 0.4 19.5 0.8 19.5 1.4 M15.75 3.4 Q15.75 4.3 15.1 4.95 14.45 5.6 13.5 5.6 12.55 5.6 11.9 4.95 11.25 4.3 11.25 3.4 11.25 2.45 11.9 1.8 12.55 1.15 13.5 1.15 14.45 1.15 15.1 1.8 15.75 2.45 15.75 3.4 M15.6 21.2 Q15.6 20.1 14.85 19.4 14.05 18.6 13.0 18.6 11.9 18.6 11.15 19.4 10.35 20.1 10.35 21.2 10.35 22.2 11.1 23.0 L11.15 23.05 Q11.9 23.8 13.0 23.8 14.05 23.8 14.85 23.05 L14.9 23.0 Q15.6 22.2 15.6 21.2 M7.2 16.65 Q7.2 16.0 6.75 15.55 6.25 15.15 5.6 15.15 4.95 15.15 4.5 15.55 4.05 16.0 4.05 16.65 4.05 17.35 4.5 17.85 4.95 18.25 5.6 18.25 6.25 18.25 6.75 17.85 7.2 17.35 7.2 16.65 M17.35 30.3 L17.4 30.45 17.6 30.3 17.35 30.3 M2.75 31.7 L2.4 32.65 1.35 33.1 Q0.8 33.1 0.4 32.65 0.0 32.3 0.0 31.7 0.0 31.15 0.4 30.7 0.8 30.3 1.35 30.3 2.0 30.3 2.4 30.7 2.75 31.15 2.75 31.7 M16.4 40.7 Q16.4 41.65 15.7 42.35 15.0 43.05 14.0 43.05 13.05 43.05 12.35 42.35 11.65 41.65 11.65 40.7 11.65 39.7 12.35 39.0 13.05 38.3 14.0 38.3 15.0 38.3 15.7 39.0 16.4 39.7 16.4 40.7" fill="#ffc800" fill-rule="evenodd" stroke="none"/>
      <path d="M27.75 43.3 Q27.75 44.3 27.05 45.0 26.35 45.7 25.4 45.7 24.4 45.7 23.7 45.0 23.0 44.3 23.0 43.3 23.0 42.3 23.7 41.6 24.4 40.9 25.4 40.9 26.35 40.9 27.05 41.6 27.75 42.3 27.75 43.3" fill="#ffffff" fill-rule="evenodd" stroke="none"/>
      <path d="M14.5 21.15 Q14.5 21.8 14.0 22.3 13.5 22.8 12.85 22.8 12.15 22.8 11.7 22.3 11.2 21.8 11.2 21.15 11.2 20.45 11.7 20.0 12.15 19.5 12.85 19.5 13.5 19.5 14.0 20.0 14.5 20.45 14.5 21.15" fill="#ffffff" fill-rule="evenodd" stroke="none"/>
      <path d="M7.05 37.55 Q7.05 38.2 6.55 38.7 6.05 39.2 5.4 39.2 4.7 39.2 4.25 38.7 3.75 38.2 3.75 37.55 3.75 36.85 4.25 36.4 4.7 35.9 5.4 35.9 6.05 35.9 6.55 36.4 7.05 36.85 7.05 37.55" fill="#ffffff" fill-rule="evenodd" stroke="none"/>
    </g>
    <g id="sprite2">
      <use ffdec:characterId="4" height="27.7" transform="matrix(1.0, 0.0, 0.0, 1.0, 0.0, 0.0)" width="23.3" xlink:href="#shape2"/>
    </g>
    <g id="shape2">
      <path d="M22.9 16.75 Q22.9 18.4 21.7 19.65 20.55 20.75 18.9 20.75 17.25 20.75 16.05 19.65 14.9 18.4 14.9 16.75 14.9 15.1 16.05 13.9 17.25 12.75 18.9 12.75 20.55 12.75 21.7 13.9 22.9 15.1 22.9 16.75 M18.2 2.5 Q18.2 3.55 17.45 4.3 16.7 5.05 15.65 5.05 14.65 5.05 13.9 4.3 13.15 3.55 13.15 2.5 13.15 1.5 13.9 0.75 14.65 0.0 15.65 0.0 16.7 0.0 17.45 0.75 18.2 1.5 18.2 2.5 M1.65 9.45 Q0.0 7.85 0.0 5.6 0.0 3.3 1.65 1.65 3.25 0.1 5.55 0.1 7.85 0.1 9.45 1.65 10.8 3.05 11.0 5.1 12.95 5.3 14.35 6.75 16.05 8.45 16.05 10.8 16.05 13.25 14.35 14.95 12.7 16.65 10.25 16.65 7.85 16.65 6.1 14.95 4.5 13.3 4.45 11.0 2.85 10.65 1.65 9.45 M12.15 22.7 Q12.15 23.8 11.4 24.5 10.7 25.2 9.6 25.2 8.6 25.2 7.85 24.5 7.1 23.8 7.1 22.7 7.1 21.7 7.85 20.95 8.6 20.25 9.6 20.25 10.7 20.25 11.4 20.95 12.15 21.7 12.15 22.7" fill="#ffc800" fill-rule="evenodd" stroke="none"/>
      <path d="M3.75 14.1 Q3.75 14.75 3.25 15.25 2.75 15.75 2.1 15.75 1.4 15.75 0.95 15.25 0.45 14.75 0.45 14.1 0.45 13.4 0.95 12.95 1.4 12.45 2.1 12.45 2.75 12.45 3.25 12.95 3.75 13.4 3.75 14.1" fill="#ffffff" fill-rule="evenodd" stroke="none"/>
      <path d="M14.35 18.6 Q14.35 19.25 13.85 19.75 13.35 20.25 12.7 20.25 12.0 20.25 11.55 19.75 11.05 19.25 11.05 18.6 11.05 17.9 11.55 17.45 12.0 16.95 12.7 16.95 13.35 16.95 13.85 17.45 14.35 17.9 14.35 18.6" fill="#ffffff" fill-rule="evenodd" stroke="none"/>
      <path d="M23.3 10.95 Q23.3 11.6 22.8 12.1 22.3 12.6 21.65 12.6 20.95 12.6 20.5 12.1 20.0 11.6 20.0 10.95 20.0 10.25 20.5 9.8 20.95 9.3 21.65 9.3 22.3 9.3 22.8 9.8 23.3 10.25 23.3 10.95" fill="#ffffff" fill-rule="evenodd" stroke="none"/>
      <path d="M17.9 26.05 Q17.9 26.7 17.4 27.2 16.9 27.7 16.25 27.7 15.55 27.7 15.1 27.2 14.6 26.7 14.6 26.05 14.6 25.35 15.1 24.9 15.55 24.4 16.25 24.4 16.9 24.4 17.4 24.9 17.9 25.35 17.9 26.05" fill="#ffffff" fill-rule="evenodd" stroke="none"/>
    </g>
    <g id="shape3">
      <path d="M-5.85 -23.85 L-5.6 -23.7 Q-5.2 -23.25 -5.2 -22.7 L-5.3 -22.25 Q-5.35 -22.7 -5.7 -23.0 L-5.9 -23.2 -6.65 -23.45 -7.55 -23.1 -7.65 -23.0 -7.7 -23.0 -7.95 -22.55 -7.95 -22.7 -7.95 -22.8 -7.85 -23.2 -7.65 -23.65 -7.6 -23.7 -7.45 -23.75 Q-7.1 -24.1 -6.6 -24.1 L-5.85 -23.85" fill="#ffc800" fill-rule="evenodd" stroke="none"/>
      <path d="M-5.3 -22.25 L-5.2 -22.7 Q-5.2 -23.25 -5.6 -23.7 L-5.85 -23.85 -5.85 -24.35 -5.35 -24.0 Q-4.8 -23.45 -4.8 -22.7 -4.8 -21.95 -5.35 -21.4 -5.85 -20.9 -6.6 -20.9 -7.35 -20.9 -7.9 -21.4 -8.4 -21.95 -8.4 -22.7 L-8.4 -22.8 -7.95 -22.8 -7.95 -22.7 -7.95 -22.55 -7.6 -21.7 Q-7.15 -21.35 -6.6 -21.35 -6.05 -21.35 -5.6 -21.7 L-5.3 -22.25" fill="#791900" fill-rule="evenodd" stroke="none"/>
      <path d="M-5.3 -22.25 L-5.6 -21.7 Q-6.05 -21.35 -6.6 -21.35 -7.15 -21.35 -7.6 -21.7 L-7.95 -22.55 -7.7 -23.0 -7.65 -23.0 -7.55 -23.1 -6.65 -23.45 -5.9 -23.2 -5.7 -23.0 Q-5.35 -22.7 -5.3 -22.25" fill="#ffe956" fill-rule="evenodd" stroke="none"/>
      <path d="M6.1 -23.8 L6.05 -23.7 6.0 -23.45 6.15 -23.05 Q6.35 -22.9 6.55 -22.9 L7.0 -23.05 7.0 -23.1 7.05 -23.15 7.45 -22.9 7.45 -22.85 7.3 -22.75 Q7.0 -22.45 6.55 -22.45 6.1 -22.45 5.8 -22.75 5.5 -23.05 5.5 -23.5 L5.65 -23.95 5.65 -24.05 6.1 -23.8" fill="#791900" fill-rule="evenodd" stroke="none"/>
      <path d="M7.05 -23.15 L7.0 -23.1 7.0 -23.05 6.55 -22.9 Q6.35 -22.9 6.15 -23.05 L6.0 -23.45 6.05 -23.7 6.1 -23.8 Q6.3 -23.7 6.55 -23.55 L7.05 -23.15" fill="#ffc800" fill-rule="evenodd" stroke="none"/>
      <path d="M10.5 -19.7 L10.65 -19.45 10.7 -19.35 10.75 -19.2 10.5 -18.85 Q10.2 -18.6 9.8 -18.6 L9.1 -18.85 9.05 -18.95 9.0 -19.1 9.3 -19.85 Q9.6 -20.15 10.15 -20.2 L10.4 -19.85 10.5 -19.7" fill="#ffff82" fill-rule="evenodd" stroke="none"/>
      <path d="M10.7 -19.35 L10.65 -19.45 10.5 -19.7 10.55 -19.65 10.7 -19.35" fill="#9d8f1e" fill-rule="evenodd" stroke="none"/>
      <path d="M9.05 -18.95 L9.1 -18.85 9.8 -18.6 Q10.2 -18.6 10.5 -18.85 L10.75 -19.2 11.05 -18.8 10.8 -18.55 Q10.4 -18.15 9.8 -18.15 9.2 -18.15 8.8 -18.55 8.35 -19.0 8.35 -19.65 8.35 -20.25 8.8 -20.65 L9.35 -21.0 9.7 -20.6 Q9.35 -20.55 9.1 -20.3 8.8 -20.0 8.8 -19.6 L8.85 -19.25 9.05 -18.9 9.05 -18.95" fill="#791900" fill-rule="evenodd" stroke="none"/>
      <path d="M10.15 -20.2 Q9.6 -20.15 9.3 -19.85 L9.0 -19.1 9.05 -18.95 9.05 -18.9 8.85 -19.25 8.8 -19.6 Q8.8 -20.0 9.1 -20.3 9.35 -20.55 9.7 -20.6 L10.15 -20.2" fill="#ffc800" fill-rule="evenodd" stroke="none"/>
      <path d="M9.4 -15.65 L9.3 -15.6 8.95 -15.45 Q8.75 -15.45 8.55 -15.6 L8.45 -15.8 8.4 -15.95 8.55 -16.3 8.95 -16.5 9.3 -16.3 9.45 -15.95 9.4 -15.65" fill="#ffff82" fill-rule="evenodd" stroke="none"/>
      <path d="M8.45 -15.8 Q8.2 -16.05 8.2 -16.35 8.2 -16.7 8.45 -16.9 8.65 -17.15 9.0 -17.15 L9.55 -16.9 9.75 -16.35 9.55 -15.8 9.4 -15.65 9.45 -15.95 9.3 -16.3 8.95 -16.5 8.55 -16.3 8.4 -15.95 8.45 -15.8" fill="#ffc800" fill-rule="evenodd" stroke="none"/>
      <path d="M9.75 -16.35 L9.55 -15.8 9.0 -15.6 8.45 -15.8 Q8.2 -16.05 8.2 -16.35 8.2 -16.7 8.45 -16.9 8.65 -17.15 9.0 -17.15 L9.55 -16.9 9.75 -16.35 Z" ffdec:has-small-stroke="true" ffdec:original-stroke-width="0.5" fill="none" stroke="#791900" stroke-linecap="round" stroke-linejoin="round" stroke-width="1.0"/>
    </g>
    <g id="sprite3">
      <use ffdec:characterId="1" height="26.35" transform="matrix(1.0, 0.0, 0.0, 1.0, 0.0, 0.0)" width="26.35" xlink:href="#shape4"/>
      <use ffdec:characterId="3" height="45.7" transform="matrix(0.45, 0.0, 0.0, 0.45, -11.35, -23.75)" width="27.75" xlink:href="#sprite1"/>
      <use ffdec:characterId="5" height="27.7" transform="matrix(0.45, 0.0, 0.0, 0.45, 0.5, -19.55)" width="23.3" xlink:href="#sprite2"/>
      <use ffdec:characterId="6" height="9.0" transform="matrix(1.0, 0.0, 0.0, 1.0, 0.0, 0.0)" width="19.45" xlink:href="#shape5"/>
    </g>
    <g id="shape4">
      <path d="M12.4 -12.45 Q12.4 -7.1 8.65 -3.35 4.9 0.4 -0.45 0.4 -5.75 0.4 -9.5 -3.35 -11.0 -4.9 -11.9 -6.65 -13.25 -9.3 -13.25 -12.45 L-13.15 -14.1 Q-12.9 -16.3 -11.9 -18.2 -11.0 -19.95 -9.5 -21.5 L-6.95 -23.5 -6.9 -23.55 Q-4.0 -25.25 -0.45 -25.25 3.15 -25.25 6.05 -23.55 L6.1 -23.5 Q7.45 -22.7 8.65 -21.5 11.8 -18.35 12.3 -14.1 L12.4 -12.45" fill="#ffc800" fill-rule="evenodd" stroke="none"/>
      <path d="M11.2 -13.5 Q11.2 -8.7 7.8 -5.3 4.4 -1.9 -0.4 -1.9 -5.2 -1.9 -8.6 -5.3 -12.0 -8.7 -12.0 -13.5 -12.0 -18.3 -8.6 -21.7 -5.2 -25.1 -0.4 -25.1 4.4 -25.1 7.8 -21.7 11.2 -18.3 11.2 -13.5" fill="#ffe956" fill-rule="evenodd" stroke="none"/>
      <path d="M12.4 -12.45 Q12.4 -7.1 8.65 -3.35 4.9 0.4 -0.45 0.4 -5.75 0.4 -9.5 -3.35 -13.25 -7.1 -13.25 -12.45 -13.25 -17.75 -9.5 -21.5 -5.75 -25.25 -0.45 -25.25 4.9 -25.25 8.65 -21.5 12.4 -17.75 12.4 -12.45 Z" ffdec:has-small-stroke="true" ffdec:original-stroke-width="0.7" fill="none" stroke="#791900" stroke-linecap="round" stroke-linejoin="round" stroke-width="1.0"/>
    </g>
    <g id="shape5">
      <path d="M-5.85 -23.85 L-5.6 -23.7 Q-5.2 -23.25 -5.2 -22.7 L-5.3 -22.25 Q-5.35 -22.7 -5.7 -23.0 L-5.9 -23.2 -6.65 -23.45 -7.55 -23.1 -7.65 -23.0 -7.7 -23.0 -7.95 -22.55 -7.95 -22.7 -7.95 -22.8 -7.85 -23.2 -7.65 -23.65 -7.6 -23.7 -7.45 -23.75 Q-7.1 -24.1 -6.6 -24.1 L-5.85 -23.85" fill="#ffc800" fill-rule="evenodd" stroke="none"/>
      <path d="M-5.3 -22.25 L-5.2 -22.7 Q-5.2 -23.25 -5.6 -23.7 L-5.85 -23.85 -5.85 -24.35 -5.35 -24.0 Q-4.8 -23.45 -4.8 -22.7 -4.8 -21.95 -5.35 -21.4 -5.85 -20.9 -6.6 -20.9 -7.35 -20.9 -7.9 -21.4 -8.4 -21.95 -8.4 -22.7 L-8.4 -22.8 -7.95 -22.8 -7.95 -22.7 -7.95 -22.55 -7.6 -21.7 Q-7.15 -21.35 -6.6 -21.35 -6.05 -21.35 -5.6 -21.7 L-5.3 -22.25" fill="#791900" fill-rule="evenodd" stroke="none"/>
      <path d="M-5.3 -22.25 L-5.6 -21.7 Q-6.05 -21.35 -6.6 -21.35 -7.15 -21.35 -7.6 -21.7 L-7.95 -22.55 -7.7 -23.0 -7.65 -23.0 -7.55 -23.1 -6.65 -23.45 -5.9 -23.2 -5.7 -23.0 Q-5.35 -22.7 -5.3 -22.25" fill="#ffe956" fill-rule="evenodd" stroke="none"/>
      <path d="M6.1 -23.8 L6.05 -23.7 6.0 -23.45 6.15 -23.05 Q6.35 -22.9 6.55 -22.9 L7.0 -23.05 7.0 -23.1 7.05 -23.15 7.45 -22.9 7.45 -22.85 7.3 -22.75 Q7.0 -22.45 6.55 -22.45 6.1 -22.45 5.8 -22.75 5.5 -23.05 5.5 -23.5 L5.65 -23.95 5.65 -24.05 6.1 -23.8" fill="#791900" fill-rule="evenodd" stroke="none"/>
      <path d="M7.05 -23.15 L7.0 -23.1 7.0 -23.05 6.55 -22.9 Q6.35 -22.9 6.15 -23.05 L6.0 -23.45 6.05 -23.7 6.1 -23.8 Q6.3 -23.7 6.55 -23.55 L7.05 -23.15" fill="#ffc800" fill-rule="evenodd" stroke="none"/>
      <path d="M10.5 -19.7 L10.65 -19.45 10.7 -19.35 10.75 -19.2 10.5 -18.85 Q10.2 -18.6 9.8 -18.6 L9.1 -18.85 9.05 -18.95 9.0 -19.1 9.3 -19.85 Q9.6 -20.15 10.15 -20.2 L10.4 -19.85 10.5 -19.7" fill="#ffff82" fill-rule="evenodd" stroke="none"/>
      <path d="M10.7 -19.35 L10.65 -19.45 10.5 -19.7 10.55 -19.65 10.7 -19.35" fill="#9d8f1e" fill-rule="evenodd" stroke="none"/>
      <path d="M9.05 -18.95 L9.1 -18.85 9.8 -18.6 Q10.2 -18.6 10.5 -18.85 L10.75 -19.2 11.05 -18.8 10.8 -18.55 Q10.4 -18.15 9.8 -18.15 9.2 -18.15 8.8 -18.55 8.35 -19.0 8.35 -19.65 8.35 -20.25 8.8 -20.65 L9.35 -21.0 9.7 -20.6 Q9.35 -20.55 9.1 -20.3 8.8 -20.0 8.8 -19.6 L8.85 -19.25 9.05 -18.9 9.05 -18.95" fill="#791900" fill-rule="evenodd" stroke="none"/>
      <path d="M10.15 -20.2 Q9.6 -20.15 9.3 -19.85 L9.0 -19.1 9.05 -18.95 9.05 -18.9 8.85 -19.25 8.8 -19.6 Q8.8 -20.0 9.1 -20.3 9.35 -20.55 9.7 -20.6 L10.15 -20.2" fill="#ffc800" fill-rule="evenodd" stroke="none"/>
      <path d="M9.4 -15.65 L9.3 -15.6 8.95 -15.45 Q8.75 -15.45 8.55 -15.6 L8.45 -15.8 8.4 -15.95 8.55 -16.3 8.95 -16.5 9.3 -16.3 9.45 -15.95 9.4 -15.65" fill="#ffff82" fill-rule="evenodd" stroke="none"/>
      <path d="M8.45 -15.8 Q8.2 -16.05 8.2 -16.35 8.2 -16.7 8.45 -16.9 8.65 -17.15 9.0 -17.15 L9.55 -16.9 9.75 -16.35 9.55 -15.8 9.4 -15.65 9.45 -15.95 9.3 -16.3 8.95 -16.5 8.55 -16.3 8.4 -15.95 8.45 -15.8" fill="#ffc800" fill-rule="evenodd" stroke="none"/>
      <path d="M9.75 -16.35 L9.55 -15.8 9.0 -15.6 8.45 -15.8 Q8.2 -16.05 8.2 -16.35 8.2 -16.7 8.45 -16.9 8.65 -17.15 9.0 -17.15 L9.55 -16.9 9.75 -16.35 Z" ffdec:has-small-stroke="true" ffdec:original-stroke-width="0.5" fill="none" stroke="#791900" stroke-linecap="round" stroke-linejoin="round" stroke-width="1.0"/>
    </g>
  </defs>
</svg>
