<?xml version="1.0" encoding="UTF-8" standalone="no"?>
<svg xmlns:ffdec="https://www.free-decompiler.com/flash" xmlns:xlink="http://www.w3.org/1999/xlink" ffdec:objectType="frame" height="33.6px" width="33.35px" xmlns="http://www.w3.org/2000/svg">
  <g transform="matrix(1.0, 0.0, 0.0, 1.0, 18.55, 59.35)">
    <use ffdec:characterId="5" height="33.6" transform="matrix(1.0, 0.0, 0.0, 1.0, 0.55, -35.85)" width="33.35" xlink:href="#sprite0"/>
  </g>
  <defs>
    <g id="sprite0">
      <use ffdec:characterId="4" height="33.6" transform="matrix(1.0, 0.0, 0.0, 1.0, 0.0, 0.0)" width="33.35" xlink:href="#shape0"/>
    </g>
    <g id="shape0">
      <path d="M-0.75 -18.9 L-1.45 -19.5 Q-1.7 -20.1 -1.3 -20.75 -0.85 -21.3 -0.2 -21.3 L0.8 -21.05 Q1.25 -20.8 1.25 -20.25 L0.95 -19.35 0.5 -18.95 -0.75 -18.9" fill="#ffffff" fill-rule="evenodd" stroke="none"/>
      <path d="M-17.4 -5.85 Q-17.85 -6.35 -18.05 -7.3 L-18.05 -8.65 Q-17.95 -10.5 -16.7 -12.55 L-16.0 -13.45 -15.0 -14.1 -13.6 -14.9 Q-13.1 -15.25 -12.75 -15.2 L-12.3 -17.25 -11.15 -18.85 Q-8.55 -21.6 -5.95 -22.1 L-3.35 -22.3 -0.35 -22.5 Q1.6 -22.45 4.25 -21.2 6.65 -20.05 7.6 -18.9 L8.65 -17.0 8.7 -16.95 10.0 -16.3 10.45 -16.0 Q11.7 -15.2 12.45 -13.85 13.15 -12.5 13.25 -11.0 L13.05 -8.3 13.0 -8.05 12.85 -7.3 12.0 -6.05 10.7 -4.95 9.65 -4.7 9.55 -4.7 8.35 -3.65 Q7.65 -3.15 7.05 -2.95 L5.6 -2.85 5.05 -3.0 4.4 -2.9 4.15 -2.8 3.9 -2.25 3.8 -2.15 Q3.35 -1.1 3.4 0.05 L3.2 2.05 Q2.6 4.45 2.35 6.9 L2.3 7.55 2.25 7.8 2.25 8.05 2.2 8.2 1.9 8.3 Q1.2 9.3 -0.15 9.05 L-3.25 8.8 -3.95 8.1 -5.5 7.65 -6.05 7.4 Q-6.3 3.9 -7.85 0.85 L-8.05 0.45 -8.7 -0.55 -9.75 -0.45 Q-11.1 -0.55 -12.2 -1.15 L-13.1 -2.0 -13.1 -2.15 -13.2 -2.1 -13.75 -2.0 -14.3 -1.95 -15.65 -2.0 -16.55 -2.75 -17.1 -3.55 Q-17.4 -4.25 -17.1 -5.1 L-17.0 -5.45 -17.2 -5.7 -17.4 -5.85" fill="#000000" fill-rule="evenodd" stroke="none"/>
      <path d="M-17.4 -5.85 Q-17.85 -6.35 -18.05 -7.3 L-18.05 -8.65 Q-17.95 -10.5 -16.7 -12.55 L-16.0 -13.45 -15.0 -14.1 -13.6 -14.9 Q-13.1 -15.25 -12.75 -15.2 L-12.3 -17.25 -11.15 -18.85 Q-8.55 -21.6 -5.95 -22.1 L-3.35 -22.3 -0.35 -22.5 Q1.6 -22.45 4.25 -21.2 6.65 -20.05 7.6 -18.9 L8.65 -17.0 8.7 -16.95 10.0 -16.3 10.45 -16.0 Q11.7 -15.2 12.45 -13.85 13.15 -12.5 13.25 -11.0 L13.05 -8.3 13.0 -8.05 12.85 -7.3 12.0 -6.05 10.7 -4.95 9.65 -4.7 9.55 -4.7 8.35 -3.65 Q7.65 -3.15 7.05 -2.95 L5.6 -2.85 5.05 -3.0 4.4 -2.9 4.15 -2.8 3.9 -2.25 3.8 -2.15 Q3.35 -1.1 3.4 0.05 L3.2 2.05 Q2.6 4.45 2.35 6.9 L2.3 7.55 2.25 7.8 2.25 8.05 2.2 8.2 1.9 8.3 Q1.2 9.3 -0.15 9.05 L-3.25 8.8 -3.95 8.1 -5.5 7.65 -6.05 7.4 Q-6.3 3.9 -7.85 0.85 L-8.05 0.45 -8.7 -0.55 -9.75 -0.45 Q-11.1 -0.55 -12.2 -1.15 L-13.1 -2.0 -13.1 -2.15 -13.2 -2.1 -13.75 -2.0 -14.3 -1.95 -15.65 -2.0 -16.55 -2.75 -17.1 -3.55 Q-17.4 -4.25 -17.1 -5.1 L-17.0 -5.45 -17.2 -5.7 -17.4 -5.85 Z" fill="none" stroke="#000000" stroke-linecap="round" stroke-linejoin="round" stroke-width="2.0"/>
      <path d="M-17.4 -5.85 Q-17.85 -6.35 -18.05 -7.3 L-18.05 -8.65 Q-17.95 -10.5 -16.7 -12.55 L-16.0 -13.45 -15.0 -14.1 -13.6 -14.9 Q-13.1 -15.25 -12.75 -15.2 L-12.3 -17.25 -11.15 -18.85 Q-8.55 -21.6 -5.95 -22.1 L-3.35 -22.3 -0.35 -22.5 Q1.6 -22.45 4.25 -21.2 6.65 -20.05 7.6 -18.9 L8.65 -17.0 8.7 -16.95 10.0 -16.3 10.45 -16.0 Q11.7 -15.2 12.45 -13.85 13.15 -12.5 13.25 -11.0 L13.05 -8.3 13.0 -8.05 12.85 -7.3 12.0 -6.05 10.7 -4.95 9.65 -4.7 9.55 -4.7 8.35 -3.65 Q7.65 -3.15 7.05 -2.95 L5.6 -2.85 5.05 -3.0 4.4 -2.9 4.15 -2.8 3.9 -2.25 3.8 -2.15 Q3.35 -1.1 3.4 0.05 L3.2 2.05 Q2.6 4.45 2.35 6.9 L2.3 7.55 2.25 7.8 2.25 8.05 2.2 8.2 1.9 8.3 Q1.2 9.3 -0.15 9.05 L-3.25 8.8 -3.95 8.1 -5.5 7.65 -6.05 7.4 Q-6.3 3.9 -7.85 0.85 L-8.05 0.45 -8.7 -0.55 -9.75 -0.45 Q-11.1 -0.55 -12.2 -1.15 L-13.1 -2.0 -13.1 -2.15 -13.2 -2.1 -13.75 -2.0 -14.3 -1.95 -15.65 -2.0 -16.55 -2.75 -17.1 -3.55 Q-17.4 -4.25 -17.1 -5.1 L-17.0 -5.45 -17.2 -5.7 -17.4 -5.85" fill="#000000" fill-rule="evenodd" stroke="none"/>
      <path d="M-17.4 -5.85 Q-17.85 -6.35 -18.05 -7.3 L-18.05 -8.65 Q-17.95 -10.5 -16.7 -12.55 L-16.0 -13.45 -15.0 -14.1 -13.6 -14.9 Q-13.1 -15.25 -12.75 -15.2 L-12.3 -17.25 -11.15 -18.85 Q-8.55 -21.6 -5.95 -22.1 L-3.35 -22.3 -0.35 -22.5 Q1.6 -22.45 4.25 -21.2 6.65 -20.05 7.6 -18.9 L8.65 -17.0 8.7 -16.95 10.0 -16.3 10.45 -16.0 Q11.7 -15.2 12.45 -13.85 13.15 -12.5 13.25 -11.0 L13.05 -8.3 13.0 -8.05" fill="none" stroke="#753419" stroke-linecap="round" stroke-linejoin="round" stroke-width="1.0"/>
      <path d="M13.0 -8.05 L12.85 -7.3 12.0 -6.05 10.7 -4.95 9.65 -4.7 9.55 -4.7 8.35 -3.65 Q7.65 -3.15 7.05 -2.95 L5.6 -2.85 5.05 -3.0 4.4 -2.9 4.15 -2.8 3.9 -2.25 3.8 -2.15 Q3.35 -1.1 3.4 0.05 L3.2 2.05 Q2.6 4.45 2.35 6.9 L2.3 7.55 2.25 7.8 2.25 8.05 2.2 8.2 1.9 8.3 Q1.2 9.3 -0.15 9.05 L-3.25 8.8 -3.95 8.1 -5.5 7.65 -6.05 7.4 Q-6.3 3.9 -7.85 0.85 L-8.05 0.45 -8.7 -0.55 -9.75 -0.45 Q-11.1 -0.55 -12.2 -1.15 L-13.1 -2.0 -13.1 -2.15 -13.2 -2.1 -13.75 -2.0 -14.3 -1.95 -15.65 -2.0 -16.55 -2.75 -17.1 -3.55 Q-17.4 -4.25 -17.1 -5.1 L-17.0 -5.45 -17.2 -5.7 -17.4 -5.85" fill="none" stroke="#28004b" stroke-linecap="round" stroke-linejoin="round" stroke-width="1.0"/>
      <path d="M1.75 5.9 L1.75 6.2 1.2 6.85 0.8 7.05 Q-1.0 8.55 -3.4 8.5 L-3.55 6.45 -4.15 0.2 -4.45 -2.2 -3.85 -2.2 -2.2 -2.4 Q-1.2 -2.45 -0.55 -2.9 L-0.2 -2.95 -0.1 -3.1 0.1 -3.3 0.1 -3.35 Q0.8 -2.85 1.75 -2.55 L1.55 -1.1 Q1.3 1.25 1.4 3.65 L1.75 5.9 M-3.0 0.5 Q-3.05 3.75 -2.5 6.95 L-2.5 7.05 -1.95 4.4 -1.25 5.7 -0.75 4.5 -0.35 4.3 0.35 6.25 Q0.25 4.5 0.45 2.85 L0.8 -0.85 0.55 -0.45 0.35 0.1 0.3 0.3 Q0.0 1.6 -0.45 2.45 -0.75 2.65 -0.75 2.25 L-0.75 2.15 -0.95 1.2 -1.55 2.35 -1.9 2.05 -2.0 1.6 -2.8 -0.5 -2.9 -0.65 -3.1 -0.45 -3.2 0.2 -3.0 0.5" fill="#ffe337" fill-rule="evenodd" stroke="none"/>
      <path d="M1.9 8.35 Q1.15 9.3 -0.15 9.05 L-2.65 8.95 -3.25 8.8 -3.5 8.5 -3.4 8.5 Q-1.0 8.55 0.8 7.05 L1.2 6.85 1.75 6.2 1.9 8.35 M3.2 -2.25 L2.1 2.8 1.75 5.9 1.4 3.65 Q1.3 1.25 1.55 -1.1 L1.75 -2.55 3.2 -2.25 M-3.0 0.5 L-3.2 0.2 -3.1 -0.45 -2.9 -0.65 -2.8 -0.5 -2.0 1.6 -1.9 2.05 -1.55 2.35 -0.95 1.2 -0.75 2.15 -0.75 2.25 Q-0.75 2.65 -0.45 2.45 0.0 1.6 0.3 0.3 L0.35 0.1 0.55 -0.45 0.8 -0.85 0.45 2.85 Q0.25 4.5 0.35 6.25 L-0.35 4.3 -0.75 4.5 -1.25 5.7 -1.95 4.4 -2.5 7.05 -2.5 6.95 Q-3.05 3.75 -3.0 0.5" fill="#ffc337" fill-rule="evenodd" stroke="none"/>
      <path d="M-8.05 0.45 L-9.85 -2.1 -9.85 -2.9 -6.85 -4.15 -5.0 -4.7 -4.6 -4.85 -3.25 -5.15 2.3 -5.6 3.15 -5.65 3.45 -5.6 3.5 -5.6 4.05 -5.45 4.8 -4.5 4.7 -4.3 3.45 -3.3 3.2 -2.25 1.75 -2.55 Q0.8 -2.85 0.1 -3.35 L0.1 -3.3 -0.1 -3.1 -0.2 -2.95 -0.55 -2.9 Q-1.2 -2.45 -2.2 -2.4 L-3.85 -2.2 -4.45 -2.2 -4.15 0.2 -3.55 6.45 -3.4 8.5 -3.5 8.5 -3.95 8.1 -5.25 7.75 Q-4.0 7.4 -4.35 5.0 L-4.95 1.1 Q-5.2 -0.45 -6.1 -1.3 -6.95 -0.2 -8.05 0.45" fill="#9f771a" fill-rule="evenodd" stroke="none"/>
      <path d="M4.7 -4.3 L4.6 -4.15 4.75 -3.85 4.7 -3.5 3.9 -2.25 3.8 -2.15 Q3.35 -1.1 3.4 0.05 L3.2 2.05 2.5 5.85 2.35 6.9 2.3 7.55 2.25 7.8 2.25 8.05 2.2 8.2 1.9 8.3 1.9 8.35 1.75 6.2 1.75 5.9 2.1 2.8 3.2 -2.25 3.45 -3.3 4.7 -4.3 M-5.25 7.75 L-5.5 7.65 -6.05 7.4 Q-6.3 3.9 -7.85 0.85 L-8.05 0.45 Q-6.95 -0.2 -6.1 -1.3 -5.2 -0.45 -4.95 1.1 L-4.35 5.0 Q-4.0 7.4 -5.25 7.75" fill="#d88a09" fill-rule="evenodd" stroke="none"/>
      <path d="M0.8 -2.45 Q1.9 -2.0 3.05 -1.9 2.1 -0.3 1.7 2.8 1.15 7.15 1.9 7.95 L0.55 8.45 0.8 -2.45" fill="#d49a3a" fill-rule="evenodd" stroke="none"/>
      <path d="M3.05 -1.9 Q1.9 -2.0 0.8 -2.45 L0.85 -4.3 3.85 -2.9 3.05 -1.9" fill="#9c6d20" fill-rule="evenodd" stroke="none"/>
      <path d="M-3.75 -4.55 Q-2.25 -4.55 -1.0 -5.15 L0.5 -5.7 Q1.35 -5.6 1.55 -4.75 L1.7 -4.4 Q1.8 -4.25 2.05 -4.25 L2.45 -4.2 3.0 -5.05 Q3.35 -5.5 3.9 -5.45 4.7 -5.35 4.95 -4.4 5.05 -3.7 4.6 -2.85 L3.9 -2.0 Q3.15 -1.45 1.95 -1.6 1.0 -1.7 0.05 -2.25 L-0.45 -2.55 -1.25 -2.4 -5.3 -2.3 Q-6.1 -0.8 -7.65 -0.05 L-8.6 0.15 -9.4 -0.15 -9.75 -0.5 -9.75 -0.95 -9.45 -1.15 -8.55 -1.9 -7.65 -2.6 Q-7.2 -3.05 -7.05 -3.5 L-6.9 -4.25 -6.65 -5.0 Q-6.4 -5.3 -5.95 -5.4 L-5.15 -5.25 -4.5 -4.7 -3.75 -4.55" fill="#744f12" fill-rule="evenodd" stroke="none"/>
      <path d="M5.7 -12.3 L5.8 -12.3 6.0 -12.15 5.7 -12.3 M-7.05 -17.05 L-7.3 -17.45 -7.15 -17.8 Q-7.05 -18.0 -6.85 -18.0 L-6.65 -18.0 -6.15 -17.7 -6.15 -17.5 -6.15 -17.25 -6.4 -16.95 Q-6.75 -16.6 -7.05 -17.05 M-8.4 -16.6 L-8.15 -16.65 -7.55 -16.4 -7.3 -15.9 Q-7.35 -15.4 -7.8 -15.15 L-8.65 -15.1 -9.25 -15.45 -9.65 -16.0 Q-9.75 -16.4 -9.35 -16.7 L-8.7 -16.75 -8.4 -16.6 M-8.8 -7.45 L-8.95 -7.4 -9.1 -7.45 -9.4 -7.7 -9.45 -7.85 -9.4 -8.05 -9.1 -8.3 -8.7 -8.2 -8.6 -8.35 -8.35 -8.35 -8.25 -8.2 -8.25 -8.05 -8.2 -7.85 -8.4 -7.5 -8.8 -7.45" fill="#d49a3a" fill-rule="evenodd" stroke="none"/>
      <path d="M-18.05 -8.65 Q-17.95 -10.5 -16.7 -12.55 L-16.0 -13.45 -15.0 -14.1 -13.6 -14.9 Q-13.1 -15.25 -12.75 -15.2 L-12.3 -17.25 -11.15 -18.85 Q-8.55 -21.6 -5.95 -22.1 L-3.35 -22.3 -0.35 -22.5 Q1.6 -22.45 4.25 -21.2 6.65 -20.05 7.6 -18.9 L8.65 -17.0 8.7 -16.95 10.0 -16.3 10.05 -15.0 Q9.95 -12.75 8.7 -11.2 L8.65 -11.25 8.55 -11.4 8.1 -11.7 8.1 -11.65 7.95 -11.65 7.75 -11.4 7.95 -11.15 8.15 -10.95 8.35 -10.85 8.4 -10.85 6.4 -9.35 4.7 -8.5 3.9 -8.6 2.55 -8.8 2.45 -8.8 2.25 -9.0 1.9 -9.1 1.25 -9.9 1.25 -10.25 1.25 -10.3 1.25 -10.45 1.25 -10.5 Q-0.6 -6.65 -5.05 -7.85 -5.95 -8.05 -6.45 -8.5 L-6.85 -9.65 -6.95 -9.0 Q-7.2 -7.9 -7.6 -7.0 L-7.85 -6.65 -7.95 -6.25 -8.9 -5.55 -9.6 -5.55 -10.55 -5.6 -10.65 -5.6 -10.85 -5.9 -10.85 -5.75 -10.85 -5.55 -11.1 -5.2 -11.6 -4.75 -11.6 -4.7 -12.0 -4.5 -13.3 -4.6 -14.0 -5.2 -14.0 -5.95 -13.5 -6.75 -14.0 -6.45 -15.65 -6.5 -15.2 -6.8 Q-14.75 -7.15 -14.9 -7.65 -14.3 -7.6 -14.05 -8.15 -13.8 -8.75 -14.35 -9.05 L-15.15 -9.1 -16.0 -8.7 -16.45 -7.9 -16.5 -7.65 -16.75 -7.6 -17.1 -7.35 -18.05 -8.65 M5.7 -12.3 L4.5 -12.3 2.85 -11.75 2.15 -12.3 1.45 -12.15 1.3 -12.1 1.0 -11.95 0.9 -11.75 0.9 -11.65 0.8 -11.45 0.7 -11.35 0.55 -11.4 0.5 -11.4 0.35 -11.6 0.2 -11.65 -1.6 -11.6 Q-2.0 -11.5 -1.85 -11.85 L-2.2 -12.15 -2.25 -12.15 -2.45 -12.35 -3.35 -12.3 -3.7 -12.65 -4.55 -12.85 -5.1 -13.1 -6.0 -13.0 -6.35 -12.85 -6.7 -12.85 -7.5 -13.1 -8.25 -13.35 -9.45 -13.25 -9.7 -13.4 -9.65 -13.6 Q-9.55 -13.95 -9.75 -14.3 L-10.2 -14.8 -10.4 -15.25 -10.85 -15.45 -11.05 -15.85 -11.6 -16.1 Q-11.95 -16.0 -12.05 -15.7 L-12.0 -14.95 -12.2 -14.15 -11.95 -13.2 Q-11.65 -12.75 -11.15 -12.65 L-10.4 -12.7 -10.25 -12.4 -10.15 -11.75 -9.4 -10.95 -9.35 -10.95 -8.95 -10.55 -8.8 -10.1 -8.65 -9.55 -8.8 -9.25 -8.8 -8.85 -8.5 -8.5 -7.95 -8.5 -7.6 -8.9 Q-7.35 -9.4 -7.55 -9.95 L-7.6 -10.1 -7.35 -10.2 -7.3 -10.25 -6.7 -10.3 -6.4 -10.3 Q-5.8 -10.25 -5.1 -10.75 L-4.6 -11.3 -3.75 -11.2 -3.45 -11.45 -1.55 -11.45 -1.0 -11.25 -0.6 -10.85 -0.55 -10.85 -0.4 -10.5 Q-0.3 -10.5 -0.15 -10.6 L-0.1 -10.65 0.1 -10.65 0.3 -10.75 0.6 -10.95 0.8 -11.25 0.9 -11.25 1.25 -11.45 2.35 -11.45 2.45 -11.35 2.5 -11.3 2.65 -11.15 2.75 -11.05 2.8 -10.95 2.85 -10.85 3.0 -10.7 3.05 -10.65 3.95 -11.45 4.8 -12.1 5.1 -12.15 5.15 -12.15 5.2 -12.25 5.5 -12.3 5.7 -12.3 6.0 -12.15 5.8 -12.3 5.7 -12.3 M8.2 -13.45 L8.15 -13.65 7.85 -13.9 7.3 -13.9 7.1 -13.75 6.9 -13.45 7.0 -12.95 Q7.05 -12.75 7.25 -12.7 L7.85 -12.65 8.1 -12.85 8.2 -13.15 8.2 -13.45 M8.5 -15.15 L8.3 -15.65 8.0 -16.0 Q7.65 -16.35 7.25 -16.0 6.95 -15.7 7.05 -15.05 L7.05 -14.65 Q7.35 -14.1 8.0 -14.25 L8.4 -14.6 8.5 -15.15 M-8.8 -7.45 L-8.4 -7.5 -8.2 -7.85 -8.25 -8.05 -8.25 -8.2 -8.35 -8.35 -8.6 -8.35 -8.7 -8.2 -9.1 -8.3 -9.4 -8.05 -9.45 -7.85 -9.4 -7.7 -9.1 -7.45 -8.95 -7.4 -8.8 -7.45 M-8.4 -16.6 L-8.7 -16.75 -9.35 -16.7 Q-9.75 -16.4 -9.65 -16.0 L-9.25 -15.45 -8.65 -15.1 -7.8 -15.15 Q-7.35 -15.4 -7.3 -15.9 L-7.55 -16.4 -8.15 -16.65 -8.4 -16.6 M-7.05 -17.05 Q-6.75 -16.6 -6.4 -16.95 L-6.15 -17.25 -6.15 -17.5 -6.15 -17.7 -6.65 -18.0 -6.85 -18.0 Q-7.05 -18.0 -7.15 -17.8 L-7.3 -17.45 -7.05 -17.05" fill="#ffc637" fill-rule="evenodd" stroke="none"/>
      <path d="M10.0 -16.3 L10.45 -16.0 Q11.7 -15.2 12.45 -13.85 13.15 -12.5 13.25 -11.0 L13.05 -8.3 12.85 -7.3 12.0 -6.05 10.7 -4.95 9.65 -4.7 9.55 -4.7 8.35 -3.65 Q7.65 -3.15 7.05 -2.95 L5.6 -2.85 5.05 -3.0 4.4 -2.9 Q3.0 -2.45 1.5 -2.9 0.45 -3.2 0.15 -3.85 L-0.1 -4.4 -0.2 -4.55 -0.35 -4.1 Q-0.45 -3.75 -1.25 -3.3 -2.45 -2.7 -3.1 -2.7 L-3.95 -2.8 -4.8 -3.0 -6.35 -3.8 -6.35 -3.75 -6.45 -3.1 -6.75 -2.4 Q-7.4 -1.25 -7.95 -0.9 -8.55 -0.45 -9.75 -0.45 -11.1 -0.55 -12.2 -1.15 L-13.1 -2.0 -13.1 -2.15 -13.2 -2.1 -13.75 -2.0 -14.3 -1.95 -15.65 -2.0 -16.55 -2.75 -17.1 -3.55 Q-17.4 -4.25 -17.1 -5.1 L-17.0 -5.45 -17.2 -5.7 Q-17.85 -6.2 -18.05 -7.3 L-18.05 -8.65 -17.1 -7.35 -16.75 -7.6 -16.5 -7.65 -16.45 -7.9 -16.0 -8.7 -15.15 -9.1 -14.35 -9.05 Q-13.8 -8.75 -14.05 -8.15 -14.3 -7.6 -14.9 -7.65 -14.75 -7.15 -15.2 -6.8 L-15.65 -6.5 -14.0 -6.45 -13.5 -6.75 -14.0 -5.95 -14.0 -5.2 -13.3 -4.6 -12.0 -4.5 -11.6 -4.7 -11.6 -4.75 -11.1 -5.2 -10.85 -5.55 -10.85 -5.75 -10.85 -5.9 -10.65 -5.6 -10.55 -5.6 -9.6 -5.55 -8.9 -5.55 -7.95 -6.25 -7.85 -6.65 -7.6 -7.0 Q-7.2 -7.9 -6.95 -9.0 L-6.85 -9.65 -6.45 -8.5 Q-5.95 -8.05 -5.05 -7.85 -0.6 -6.65 1.25 -10.5 L1.25 -10.45 1.25 -10.3 1.25 -10.25 1.25 -9.9 1.9 -9.1 2.25 -9.0 2.45 -8.8 2.55 -8.8 3.9 -8.6 4.7 -8.5 6.4 -9.35 8.4 -10.85 8.35 -10.85 8.15 -10.95 7.95 -11.15 7.75 -11.4 7.95 -11.65 8.1 -11.65 8.1 -11.7 8.55 -11.4 8.65 -11.25 8.7 -11.2 Q9.95 -12.75 10.05 -15.0 L10.0 -16.3 M8.5 -15.15 L8.4 -14.6 8.0 -14.25 Q7.35 -14.1 7.05 -14.65 L7.05 -15.05 Q6.95 -15.7 7.25 -16.0 7.65 -16.35 8.0 -16.0 L8.3 -15.65 8.5 -15.15 M8.2 -13.45 L8.2 -13.15 8.1 -12.85 7.85 -12.65 7.25 -12.7 Q7.05 -12.75 7.0 -12.95 L6.9 -13.45 7.1 -13.75 7.3 -13.9 7.85 -13.9 8.15 -13.65 8.2 -13.45 M5.7 -12.3 L5.5 -12.3 5.2 -12.25 5.15 -12.15 5.1 -12.15 4.8 -12.1 3.95 -11.45 3.05 -10.65 3.0 -10.7 2.85 -10.85 2.8 -10.95 2.75 -11.05 2.65 -11.15 2.5 -11.3 2.45 -11.35 2.35 -11.45 1.25 -11.45 0.9 -11.25 0.8 -11.25 0.6 -10.95 0.3 -10.75 0.1 -10.65 -0.1 -10.65 -0.15 -10.6 Q-0.3 -10.5 -0.4 -10.5 L-0.55 -10.85 -0.6 -10.85 -1.0 -11.25 -1.55 -11.45 -3.45 -11.45 -3.75 -11.2 -4.6 -11.3 -5.1 -10.75 Q-5.8 -10.25 -6.4 -10.3 L-6.7 -10.3 -7.3 -10.25 -7.35 -10.2 -7.6 -10.1 -7.55 -9.95 Q-7.35 -9.4 -7.6 -8.9 L-7.95 -8.5 -8.5 -8.5 -8.8 -8.85 -8.8 -9.25 -8.65 -9.55 -8.8 -10.1 -8.95 -10.55 -9.35 -10.95 -9.4 -10.95 -10.15 -11.75 -10.25 -12.4 -10.4 -12.7 -11.15 -12.65 Q-11.65 -12.75 -11.95 -13.2 L-12.2 -14.15 -12.0 -14.95 -12.05 -15.7 Q-11.95 -16.0 -11.6 -16.1 L-11.05 -15.85 -10.85 -15.45 -10.4 -15.25 -10.2 -14.8 -9.75 -14.3 Q-9.55 -13.95 -9.65 -13.6 L-9.7 -13.4 -9.45 -13.25 -8.25 -13.35 -7.5 -13.1 -6.7 -12.85 -6.35 -12.85 -6.0 -13.0 -5.1 -13.1 -4.55 -12.85 -3.7 -12.65 -3.35 -12.3 -2.45 -12.35 -2.25 -12.15 -2.2 -12.15 -1.85 -11.85 Q-2.0 -11.5 -1.6 -11.6 L0.2 -11.65 0.35 -11.6 0.5 -11.4 0.55 -11.4 0.7 -11.35 0.8 -11.45 0.9 -11.65 0.9 -11.75 1.0 -11.95 1.3 -12.1 1.45 -12.15 2.15 -12.3 2.85 -11.75 4.5 -12.3 5.7 -12.3" fill="#d88a09" fill-rule="evenodd" stroke="none"/>
      <path d="M-5.0 -18.15 L-5.5 -18.55 -5.75 -19.05 -5.85 -18.65 -6.35 -18.05 -6.9 -17.5 -6.35 -17.25 -5.65 -16.6 Q-5.4 -16.15 -5.65 -15.55 -5.9 -15.1 -6.4 -14.85 L-7.25 -14.75 Q-8.1 -14.8 -8.25 -15.35 L-9.0 -15.7 Q-9.3 -15.95 -9.4 -16.35 L-9.3 -17.15 -8.7 -17.7 -8.45 -17.75 -9.05 -17.95 Q-9.55 -18.25 -9.5 -18.8 -9.5 -19.4 -9.0 -19.6 L-8.3 -19.85 -7.8 -20.15 -7.1 -20.3 Q-6.4 -20.2 -6.05 -19.8 L-5.9 -19.55 -5.95 -19.7 -5.95 -20.45 -5.25 -21.15 Q-4.7 -21.75 -3.5 -21.75 L-2.6 -21.75 Q-2.1 -21.8 -1.1 -22.2 L-0.1 -22.2 1.05 -21.9 2.15 -20.75 2.35 -20.25 2.65 -20.3 2.7 -20.3 3.6 -20.2 4.2 -20.1 4.9 -19.7 5.25 -19.5 5.45 -19.2 5.65 -18.65 5.7 -18.1 Q5.75 -17.7 5.4 -17.25 L4.4 -16.55 3.55 -16.45 2.7 -16.6 2.0 -17.05 1.75 -17.45 1.45 -17.7 0.85 -17.3 -0.4 -16.7 -1.65 -16.6 -2.9 -16.75 Q-3.45 -16.9 -4.0 -17.3 L-5.0 -18.15 M8.95 -13.45 L9.3 -13.65 9.55 -13.7 9.9 -13.5 10.2 -13.05 10.0 -12.75 9.75 -12.55 9.3 -12.45 9.1 -12.55 8.85 -12.95 8.85 -13.2 8.95 -13.45 M9.25 -11.05 L9.3 -10.75 Q9.45 -10.15 9.0 -9.6 L8.5 -9.1 8.05 -8.95 6.1 -8.6 5.7 -8.45 Q4.8 -8.15 4.15 -8.75 3.45 -9.55 3.9 -10.3 4.15 -10.95 4.9 -11.3 L5.2 -11.45 5.4 -11.65 Q5.95 -12.1 7.2 -12.1 L8.15 -12.0 8.75 -11.65 9.1 -11.35 9.25 -11.05 M5.55 -15.85 L5.7 -16.25 6.4 -16.7 7.1 -16.5 7.3 -16.2 7.35 -16.15 7.3 -15.45 Q7.15 -14.8 6.55 -14.75 5.9 -14.55 5.6 -15.25 5.5 -15.5 5.55 -15.85 M3.05 -15.7 Q3.3 -15.35 3.1 -15.0 2.9 -14.55 2.35 -14.45 L1.35 -14.6 0.8 -14.9 Q0.55 -15.15 0.6 -15.45 L0.95 -16.0 1.3 -16.35 2.2 -16.25 3.05 -15.7 M-0.75 -13.45 L-1.2 -13.75 -1.55 -14.3 Q-1.85 -14.75 -1.35 -15.25 L-0.5 -15.45 0.15 -15.4 0.65 -15.0 0.75 -14.4 0.6 -13.85 0.0 -13.35 -0.75 -13.45 M-0.2 -10.25 Q0.75 -9.95 0.8 -9.0 L0.8 -8.6 Q0.7 -7.85 0.15 -7.55 L-0.7 -7.3 -1.65 -7.35 -3.4 -7.45 Q-4.2 -7.65 -4.5 -8.15 -4.45 -7.85 -4.65 -7.5 -5.0 -7.1 -5.5 -7.1 L-6.15 -7.35 -6.45 -7.95 Q-6.55 -8.45 -6.1 -8.75 L-5.8 -8.85 -5.4 -8.9 Q-4.9 -8.8 -4.65 -8.5 L-4.75 -9.05 -4.55 -9.8 -4.15 -10.2 -3.15 -10.8 -2.45 -11.05 -1.8 -11.05 -1.25 -10.95 -0.55 -10.5 -0.45 -10.3 -0.2 -10.25 M2.65 -9.65 L2.45 -9.7 2.05 -9.95 1.95 -10.25 2.05 -10.8 Q2.2 -11.1 2.5 -11.1 L2.7 -11.15 3.25 -10.85 3.35 -10.5 3.3 -10.1 3.25 -9.95 2.9 -9.75 2.65 -9.65 M-4.2 -17.0 Q-3.7 -16.9 -3.55 -16.7 -3.4 -16.4 -3.55 -16.0 L-3.85 -15.65 -4.85 -15.55 Q-5.25 -15.85 -5.25 -16.35 L-4.65 -16.95 -4.2 -17.0 M-8.95 -13.25 L-9.1 -13.55 -9.15 -13.9 -8.9 -14.3 -8.5 -14.45 -8.4 -14.5 -8.0 -14.25 -7.8 -13.9 Q-7.7 -13.6 -7.95 -13.35 L-8.45 -13.05 -8.95 -13.25 M-10.3 -16.1 Q-10.6 -15.75 -11.05 -15.9 -11.5 -16.0 -11.55 -16.45 L-11.55 -16.7 -11.05 -17.5 Q-10.45 -17.7 -10.1 -17.05 -9.8 -16.5 -10.3 -16.1 M-15.55 -12.55 L-15.3 -12.85 -14.9 -13.05 -13.8 -13.45 -12.55 -13.4 -11.95 -13.1 Q-11.2 -12.8 -11.0 -12.3 L-10.85 -11.7 Q-10.85 -11.25 -11.0 -10.95 L-11.35 -10.4 Q-11.85 -9.85 -12.2 -9.65 L-13.3 -9.4 -14.15 -9.4 Q-14.75 -9.55 -15.35 -10.0 L-15.3 -9.85 Q-15.2 -9.55 -15.35 -9.3 L-15.8 -9.0 -16.2 -9.0 -16.7 -9.5 -16.75 -10.1 Q-16.6 -10.4 -16.25 -10.3 L-16.2 -10.35 -15.7 -10.3 -15.6 -10.25 -15.95 -10.8 -16.0 -11.2 -15.95 -11.85 -15.55 -12.55 M-11.6 -9.4 L-11.1 -9.65 Q-10.6 -9.6 -10.4 -9.2 -10.2 -8.9 -10.4 -8.45 -10.7 -7.9 -11.3 -7.9 L-11.35 -7.95 Q-11.7 -7.95 -11.9 -8.25 L-12.0 -8.85 -11.6 -9.4 M-13.45 -8.15 L-13.2 -8.4 -12.95 -8.5 Q-12.8 -8.45 -12.8 -8.55 -12.45 -8.5 -12.25 -8.25 -12.05 -7.95 -12.2 -7.6 -12.3 -7.25 -12.75 -7.15 L-13.4 -7.45 Q-13.65 -7.85 -13.45 -8.15" fill="#ffe43e" fill-rule="evenodd" stroke="none"/>
      <path d="M12.4 -7.9 Q11.95 -6.4 10.65 -5.95 L9.75 -5.8 Q9.05 -4.45 7.8 -3.8 L5.25 -3.75 Q3.7 -2.7 1.85 -3.3 L1.2 -3.55 2.15 -3.5 3.55 -3.55 Q3.9 -3.65 4.25 -3.9 L5.1 -4.5 5.25 -4.6 Q5.75 -4.05 6.45 -4.05 L7.3 -4.4 9.1 -6.05 9.55 -6.6 10.8 -6.5 Q11.4 -6.5 11.8 -6.95 L12.1 -7.45 12.45 -7.95 12.4 -7.9 M-12.2 -3.5 Q-10.0 -1.25 -7.45 -3.05 L-6.6 -3.55 Q-9.05 0.8 -12.65 -2.4 L-14.75 -2.25 Q-15.35 -2.5 -15.9 -3.05 L-16.65 -4.05 Q-14.7 -2.35 -12.2 -3.5" fill="#ffe337" fill-rule="evenodd" stroke="none"/>
      <path d="M11.9 -12.3 L11.75 -11.8 11.25 -11.6 Q10.95 -11.6 10.8 -11.8 L10.6 -12.3 11.3 -12.55 11.55 -12.9 11.75 -12.75 11.9 -12.3 M10.85 -10.9 Q10.85 -10.6 10.65 -10.4 L10.15 -10.2 Q9.85 -10.2 9.65 -10.4 L9.6 -10.5 9.7 -10.5 10.35 -11.0 10.6 -11.4 10.65 -11.4 10.85 -10.9 M10.15 -9.65 L10.45 -9.3 10.25 -8.5 Q9.25 -7.15 7.95 -7.95 L8.15 -8.2 8.35 -8.2 Q8.85 -8.2 9.35 -8.65 L9.75 -9.25 9.8 -9.85 10.15 -9.65 M5.5 -6.7 L5.1 -6.8 4.95 -7.1 5.05 -7.2 5.25 -7.6 5.95 -7.5 6.45 -7.75 6.5 -7.6 6.25 -6.95 5.5 -6.7 M4.5 -6.6 L4.2 -6.2 3.3 -5.85 2.75 -5.9 1.7 -7.05 2.15 -6.95 3.3 -6.7 4.45 -6.75 4.5 -6.6 M-5.45 -10.75 L-5.4 -10.55 -6.35 -10.25 -6.65 -9.8 -6.75 -9.6 -7.1 -10.15 -7.95 -10.5 -7.5 -10.5 -6.0 -10.65 -5.5 -10.85 -5.45 -10.75 M-10.65 -5.45 L-10.35 -5.2 -10.25 -5.05 -9.8 -4.45 -10.2 -3.95 -10.95 -3.8 -11.55 -4.1 -11.65 -4.45 -10.95 -5.35 -10.65 -5.45 M-12.1 -4.25 L-12.3 -3.65 Q-13.05 -3.25 -13.8 -3.8 L-14.35 -4.25 -14.65 -4.9 -15.6 -5.1 -16.05 -5.6 -16.0 -6.4 -15.4 -6.35 Q-15.3 -5.65 -14.7 -5.35 L-14.25 -5.05 -13.85 -4.7 Q-13.45 -4.35 -12.9 -4.25 L-12.15 -4.35 -12.1 -4.25 M-14.7 -7.85 L-14.7 -7.6 -14.75 -7.6 -15.2 -7.15 -15.35 -7.15 Q-15.65 -7.15 -15.8 -7.35 L-16.05 -7.85 -15.8 -8.3 Q-15.65 -8.5 -15.35 -8.5 L-14.9 -8.3 -14.7 -7.85 M-3.8 -5.05 L-4.95 -5.15 -6.05 -5.55 -6.4 -6.5 -5.7 -6.95 -5.45 -6.65 Q-4.9 -6.3 -4.35 -6.35 -3.8 -6.35 -3.45 -6.65 L-3.2 -5.8 -3.3 -5.5 -3.55 -5.2 -3.8 -5.05 M-2.7 -4.05 Q-2.7 -3.8 -2.85 -3.6 L-3.25 -3.45 -3.7 -3.6 -3.85 -4.05 -3.7 -4.45 -3.25 -4.7 -2.85 -4.45 -2.7 -4.05 M-1.1 -6.25 Q-1.35 -5.35 -2.2 -5.9 L-2.5 -6.1 -2.55 -6.5 -1.75 -6.2 -1.1 -6.25 M-6.8 -6.35 Q-6.8 -6.05 -6.95 -5.85 -7.15 -5.65 -7.45 -5.65 L-7.6 -5.65 Q-7.45 -6.4 -7.45 -7.05 L-6.95 -6.85 -6.8 -6.35 M-8.2 -4.25 Q-8.4 -4.05 -8.7 -4.05 L-9.15 -4.25 Q-8.4 -4.2 -8.05 -4.65 L-8.2 -4.25" fill="#835c22" fill-rule="evenodd" stroke="none"/>
      <path d="M-2.35 -18.45 L-2.6 -18.85 -2.6 -19.8 -2.25 -20.4 -1.8 -20.85 Q-1.2 -21.4 -0.25 -21.6 L1.0 -21.55 1.85 -20.7 2.35 -19.3 Q2.35 -18.85 2.0 -18.55 L1.45 -18.1 1.1 -17.95 0.8 -17.75 -0.05 -17.5 -1.3 -17.7 Q-1.95 -17.95 -2.35 -18.45 M8.1 -12.1 L8.5 -11.8 Q9.05 -11.2 8.65 -10.4 L8.2 -10.0 7.15 -10.05 6.5 -10.5 Q6.3 -10.8 6.4 -11.25 L6.75 -11.85 7.35 -12.1 8.1 -12.1 M3.1 -17.7 Q2.7 -18.15 2.9 -18.7 3.1 -19.3 3.7 -19.3 4.25 -19.25 4.55 -18.9 L4.8 -18.1 Q4.75 -17.6 4.25 -17.4 L3.7 -17.4 Q3.3 -17.5 3.1 -17.7 M6.15 -15.6 L6.0 -15.8 5.95 -16.15 Q6.1 -16.6 6.6 -16.65 L7.05 -16.5 7.2 -16.1 Q7.3 -15.65 6.85 -15.45 6.4 -15.25 6.15 -15.6 M-8.15 -19.85 L-7.95 -19.85 -7.6 -19.8 -7.3 -19.5 -7.1 -19.05 -7.2 -18.65 Q-7.4 -18.4 -7.85 -18.25 L-8.35 -18.25 Q-8.6 -18.25 -8.75 -18.5 L-8.85 -19.15 -8.4 -19.75 -8.15 -19.85 M-4.8 -20.85 L-4.25 -20.6 -4.05 -20.15 -4.1 -19.95 -4.2 -19.7 -4.8 -19.55 -5.3 -19.9 -5.3 -20.45 Q-5.2 -20.8 -4.8 -20.8 L-4.8 -20.85 M-2.6 -10.75 L-2.15 -10.75 -1.55 -10.25 Q-1.45 -9.85 -1.7 -9.45 -2.05 -9.15 -2.45 -9.25 L-2.85 -9.45 -3.05 -9.65 Q-3.45 -10.15 -2.95 -10.55 L-2.6 -10.75 M-12.45 -11.05 L-13.95 -10.95 Q-14.75 -11.25 -14.95 -12.05 -15.1 -12.4 -14.9 -12.75 L-14.45 -13.35 -13.75 -13.45 -12.45 -13.15 Q-11.85 -12.75 -11.95 -12.1 -11.95 -11.4 -12.45 -11.05" fill="#ffffff" fill-rule="evenodd" stroke="none"/>
    </g>
  </defs>
</svg>
