<?xml version="1.0" encoding="UTF-8" standalone="no"?>
<svg xmlns:ffdec="https://www.free-decompiler.com/flash" xmlns:xlink="http://www.w3.org/1999/xlink" ffdec:objectType="frame" height="28.65px" width="45.65px" xmlns="http://www.w3.org/2000/svg">
  <g transform="matrix(1.0, 0.0, 0.0, 1.0, 26.75, 47.45)">
    <use ffdec:characterId="5" height="28.65" transform="matrix(1.0, 0.0, 0.0, 1.0, 0.55, -35.85)" width="45.65" xlink:href="#sprite0"/>
  </g>
  <defs>
    <g id="sprite0">
      <use ffdec:characterId="4" height="28.65" transform="matrix(1.0, 0.0, 0.0, 1.0, 0.0, 0.0)" width="45.65" xlink:href="#shape0"/>
    </g>
    <g id="shape0">
      <path d="M17.6 -1.45 Q17.65 2.15 13.5 4.4 9.3 6.65 -0.95 10.3 -8.45 12.95 -12.45 14.65 -15.25 16.4 -18.55 16.3 -21.85 16.2 -24.0 13.8 -26.05 11.45 -26.15 8.4 -27.55 5.8 -23.75 1.35 L-22.9 0.35 -21.7 -0.25 Q-17.45 -2.3 -9.55 -5.2 L-7.85 -5.85 Q5.5 -10.75 9.05 -10.85 L10.9 -10.65 11.0 -10.65 Q12.4 -10.3 13.6 -9.4 L13.85 -9.2 14.35 -8.75 14.8 -8.3 14.85 -8.2 14.95 -8.1 15.05 -8.0 15.75 -7.1 15.8 -7.05 16.1 -6.55 Q17.55 -4.2 17.6 -1.45" fill="#000000" fill-rule="evenodd" stroke="none"/>
      <path d="M17.6 -1.45 Q17.65 2.15 13.5 4.4 9.3 6.65 -0.95 10.3 -8.45 12.95 -12.45 14.65 -15.25 16.4 -18.55 16.3 -21.85 16.2 -24.0 13.8 -26.05 11.45 -26.15 8.4 -27.55 5.8 -23.75 1.35 L-22.9 0.35 -21.7 -0.25 Q-17.45 -2.3 -9.55 -5.2 L-7.85 -5.85 Q5.5 -10.75 9.05 -10.85 L10.9 -10.65 11.0 -10.65 Q12.4 -10.3 13.6 -9.4 L13.85 -9.2 14.35 -8.75 14.8 -8.3 14.85 -8.2 14.95 -8.1 15.05 -8.0 15.75 -7.1 15.8 -7.05 16.1 -6.55 Q17.55 -4.2 17.6 -1.45 Z" fill="none" stroke="#000000" stroke-linecap="round" stroke-linejoin="round" stroke-width="1.5"/>
      <path d="M-16.25 13.4 L-22.75 1.25 -22.0 1.05 -16.65 -0.8 -11.55 -2.55 Q-9.05 -3.25 -6.5 -4.3 L-1.15 -6.35 4.1 -8.15 9.6 -9.7 Q12.65 -10.45 14.75 -8.05 16.85 -5.65 17.35 -3.7 L17.5 -3.1 17.45 -3.1 17.5 -3.05 17.55 -2.75 17.5 -2.4 17.5 -2.3 17.5 -2.25 17.45 -2.3 17.25 -2.45 16.25 -2.1 Q16.0 -2.1 16.0 -1.9 L16.05 -1.7 16.4 -1.65 17.2 -1.95 17.4 -2.0 16.6 -0.8 15.95 -0.3 16.8 -0.65 17.5 -1.0 Q17.15 -0.15 16.35 0.45 L15.75 0.95 17.05 0.45 15.65 1.85 12.65 3.7 Q10.55 4.9 7.25 6.1 L0.5 8.35 2.85 7.2 3.8 6.75 5.1 5.95 Q5.6 5.65 6.0 5.45 L-0.9 8.8 -2.8 9.35 -3.05 9.35 -3.5 9.55 -5.8 10.15 Q-8.6 10.8 -11.0 11.6 L-10.1 11.1 Q-5.85 8.75 -1.7 6.95 L-1.5 6.8 -1.5 6.7 -1.6 6.6 -4.35 7.8 Q-7.75 9.4 -10.5 11.0 L-13.25 12.4 -16.25 13.4 M7.6 4.7 L7.5 4.75 7.5 4.85 7.6 4.85 11.45 3.05 12.3 2.7 11.75 2.8 9.85 3.55 8.8 4.15 8.1 4.4 7.6 4.7 M-3.7 8.35 L-4.7 9.1 Q5.6 4.7 15.85 0.25 L16.65 -0.25 16.05 -0.2 -1.95 7.65 -3.7 8.35 M-12.95 10.75 Q-14.6 11.25 -15.15 11.85 -15.15 12.1 -14.8 11.85 L-13.4 11.25 -11.9 10.75 -9.6 9.6 Q-6.85 8.15 -2.9 6.6 L3.95 4.05 15.55 -0.6 Q16.0 -0.8 15.85 -1.05 L15.4 -1.1 Q11.05 0.55 6.7 2.5 L3.2 4.0 -1.65 5.8 Q-5.4 7.15 -9.0 8.95 -11.6 10.25 -12.95 10.75" fill="#e2d3b8" fill-rule="evenodd" stroke="none"/>
      <path d="M17.5 -3.1 L17.5 -3.05 17.45 -3.1 17.5 -3.1 M17.55 -2.75 L17.6 -1.0 17.45 0.0 Q16.95 2.0 14.9 3.5 L13.5 4.4 Q9.3 6.65 -0.95 10.3 -11.3 13.95 -14.95 15.8 L-16.25 13.4 -13.25 12.4 -10.5 11.0 Q-7.75 9.4 -4.35 7.8 L-1.6 6.6 -1.5 6.7 -1.5 6.8 -1.7 6.95 Q-5.85 8.75 -10.1 11.1 L-11.0 11.6 Q-8.6 10.8 -5.8 10.15 L-3.5 9.55 -3.05 9.35 -2.8 9.35 -0.9 8.8 6.0 5.45 Q5.6 5.65 5.1 5.95 L3.8 6.75 2.85 7.2 0.5 8.35 7.25 6.1 Q10.55 4.9 12.65 3.7 L15.65 1.85 17.05 0.45 15.75 0.95 16.35 0.45 Q17.15 -0.15 17.5 -1.0 L16.8 -0.65 15.95 -0.3 16.6 -0.8 17.4 -2.0 17.2 -1.95 16.4 -1.65 16.05 -1.7 16.0 -1.9 Q16.0 -2.1 16.25 -2.1 L17.25 -2.45 17.45 -2.3 17.5 -2.25 17.5 -2.3 17.5 -2.4 17.55 -2.75 M-12.95 10.75 Q-11.6 10.25 -9.0 8.95 -5.4 7.15 -1.65 5.8 L3.2 4.0 6.7 2.5 Q11.05 0.55 15.4 -1.1 L15.85 -1.05 Q16.0 -0.8 15.55 -0.6 L3.95 4.05 -2.9 6.6 Q-6.85 8.15 -9.6 9.6 L-11.9 10.75 -13.4 11.25 -14.8 11.85 Q-15.15 12.1 -15.15 11.85 -14.6 11.25 -12.95 10.75 M-3.7 8.35 L-1.95 7.65 16.05 -0.2 16.65 -0.25 15.85 0.25 Q5.6 4.7 -4.7 9.1 L-3.7 8.35 M7.6 4.7 L8.1 4.4 8.8 4.15 9.85 3.55 11.75 2.8 12.3 2.7 11.45 3.05 7.6 4.85 7.5 4.85 7.5 4.75 7.6 4.7" fill="#cdbb9b" fill-rule="evenodd" stroke="none"/>
      <path d="M-9.55 -5.2 Q-12.1 -3.85 -14.5 -2.75 L-14.9 -2.45 -18.2 -0.5 -15.8 -0.2 Q-13.75 -1.0 -11.85 -1.95 -8.4 -3.75 -4.75 -5.0 L2.5 -7.75 7.9 -9.85 Q8.35 -9.7 8.45 -10.0 L8.5 -9.9 10.1 -10.5 10.9 -10.65 11.0 -10.65 9.95 -10.25 8.0 -9.1 7.4 -9.0 7.35 -8.95 6.85 -8.85 6.25 -8.5 6.15 -8.35 5.35 -8.4 1.0 -6.85 -5.3 -4.2 -12.3 -1.4 -15.5 -0.15 -14.0 0.45 -13.65 0.3 -7.55 -2.2 0.4 -5.1 5.45 -6.75 1.05 -5.2 -5.85 -2.6 -13.4 0.75 -12.2 1.75 -11.65 2.35 -7.6 0.65 -0.45 -2.1 6.7 -4.6 Q1.5 -1.95 -0.75 -1.55 -3.05 -1.15 -5.35 -0.2 -7.7 0.7 -8.6 1.35 L-10.15 2.2 Q-10.85 2.45 -11.25 2.85 L-11.05 3.1 -10.35 4.15 -10.1 4.0 -10.2 4.1 -10.05 4.0 -10.1 4.0 -9.75 3.85 -7.8 2.8 Q-5.9 1.8 -1.75 0.15 L4.85 -2.35 7.5 -3.3 5.45 -2.4 -1.9 0.75 Q-5.6 2.2 -9.85 4.2 L-10.2 4.4 -10.1 4.7 Q-9.8 5.45 -10.15 5.85 L-10.1 5.9 -5.25 4.0 Q0.3 1.45 6.05 -0.85 10.3 -2.45 13.9 -4.0 15.35 -4.65 16.9 -5.0 L17.5 -2.85 12.35 -0.6 5.9 2.25 -0.75 4.9 -7.3 7.55 -17.05 11.85 Q-31.65 10.6 -23.75 1.35 L-22.9 0.35 -21.7 -0.25 Q-17.45 -2.3 -9.55 -5.2 M5.45 -6.75 L8.45 -7.75 13.6 -9.4 13.85 -9.2 11.25 -8.35 5.45 -6.75 M13.25 -7.35 L13.15 -7.1 6.7 -4.6 8.15 -5.35 Q9.25 -5.9 10.2 -6.1 L11.4 -6.5 11.4 -6.6 11.9 -6.75 12.4 -7.25 12.6 -7.35 13.25 -7.35 13.45 -7.5 13.6 -7.5 13.9 -7.7 14.35 -7.9 14.75 -8.1 14.95 -8.1 14.85 -8.0 14.7 -8.0 14.25 -7.65 13.75 -7.4 13.25 -7.35 M15.8 -7.05 L16.1 -6.55 15.8 -6.45 7.5 -3.3 12.25 -5.5 15.8 -7.05" fill="#e63030" fill-rule="evenodd" stroke="none"/>
      <path d="M10.9 -10.65 L10.1 -10.5 8.5 -9.9 8.45 -10.0 Q8.35 -9.7 7.9 -9.85 L2.5 -7.75 -4.75 -5.0 Q-8.4 -3.75 -11.85 -1.95 -13.75 -1.0 -15.8 -0.2 L-18.2 -0.5 -14.9 -2.45 -14.5 -2.75 Q-12.1 -3.85 -9.55 -5.2 L-7.85 -5.85 Q5.5 -10.75 9.05 -10.85 L10.9 -10.65 M16.9 -5.0 Q15.35 -4.65 13.9 -4.0 10.3 -2.45 6.05 -0.85 0.3 1.45 -5.25 4.0 L-10.1 5.9 -10.15 5.85 Q-9.8 5.45 -10.1 4.7 L-10.2 4.4 -9.85 4.2 Q-5.6 2.2 -1.9 0.75 L5.45 -2.4 7.5 -3.3 4.85 -2.35 -1.75 0.15 Q-5.9 1.8 -7.8 2.8 L-9.75 3.85 -10.1 4.0 -10.05 4.0 -10.2 4.1 -10.1 4.0 -10.35 4.15 -11.05 3.1 -11.25 2.85 Q-10.85 2.45 -10.15 2.2 L-8.6 1.35 Q-7.7 0.7 -5.35 -0.2 -3.05 -1.15 -0.75 -1.55 1.5 -1.95 6.7 -4.6 L-0.45 -2.1 -7.6 0.65 -11.65 2.35 -12.2 1.75 -13.4 0.75 -5.85 -2.6 1.05 -5.2 5.45 -6.75 0.4 -5.1 -7.55 -2.2 -13.65 0.3 -14.0 0.45 -15.5 -0.15 -12.3 -1.4 -5.3 -4.2 1.0 -6.85 5.35 -8.4 6.15 -8.35 6.25 -8.5 6.85 -8.85 7.35 -8.95 7.4 -9.0 8.0 -9.1 9.95 -10.25 11.0 -10.65 Q12.4 -10.3 13.6 -9.4 L8.45 -7.75 5.45 -6.75 11.25 -8.35 13.85 -9.2 14.95 -8.1 15.05 -8.0 15.75 -7.1 15.8 -7.05 12.25 -5.5 7.5 -3.3 15.8 -6.45 16.1 -6.55 16.35 -6.15 16.9 -5.0 M13.25 -7.35 L12.6 -7.35 12.4 -7.25 11.9 -6.75 11.4 -6.6 11.4 -6.5 10.2 -6.1 Q9.25 -5.9 8.15 -5.35 L6.7 -4.6 13.15 -7.1 13.25 -7.35 13.75 -7.4 14.25 -7.65 14.7 -8.0 14.85 -8.0 14.95 -8.1 14.75 -8.1 14.35 -7.9 13.9 -7.7 13.6 -7.5 13.45 -7.5 13.25 -7.35" fill="#f7543e" fill-rule="evenodd" stroke="none"/>
      <path d="M-11.15 4.3 Q-10.75 5.65 -10.85 7.15 -10.95 9.15 -11.75 10.9 -12.6 12.7 -14.45 13.9 -16.25 15.1 -18.2 14.95 L-20.85 14.5 Q-22.9 14.35 -24.15 12.7 -25.35 11.05 -26.0 9.25 L-26.1 8.95 -26.15 8.15 Q-26.2 4.9 -24.0 2.45 -21.85 0.0 -18.3 -0.1 -14.8 -0.2 -12.3 2.75 L-11.15 4.3" fill="#fff6e6" fill-rule="evenodd" stroke="none"/>
      <path d="M-26.1 8.95 L-26.0 9.25 Q-25.35 11.05 -24.15 12.7 -22.9 14.35 -20.85 14.5 L-18.2 14.95 Q-16.25 15.1 -14.45 13.9 -12.6 12.7 -11.75 10.9 -10.95 9.15 -10.85 7.15 -10.75 5.65 -11.15 4.3 -9.8 6.6 -9.75 9.3 -9.7 12.9 -12.45 14.65 -15.25 16.4 -18.55 16.3 -21.85 16.2 -24.0 13.8 -25.9 11.65 -26.1 8.95" fill="#e2d3b8" fill-rule="evenodd" stroke="none"/>
      <path d="M-12.2 -2.9 L-11.85 -3.1 Q-9.45 -4.3 -6.85 -5.3 L-3.2 -6.65 1.0 -8.15 6.25 -9.95 6.85 -9.75 -12.2 -2.9 M8.95 -7.0 L8.45 -6.95 8.2 -6.8 7.8 -6.75 6.95 -6.45 Q6.8 -6.45 6.8 -6.6 L6.95 -6.8 8.4 -7.35 10.65 -7.85 12.65 -8.7 13.2 -8.75 13.45 -8.85 13.65 -8.8 13.4 -8.55 11.35 -7.6 10.65 -7.4 10.45 -7.3 10.1 -7.25 8.95 -7.0 M6.05 -7.35 Q3.25 -6.25 1.55 -5.85 L0.75 -5.65 Q-0.75 -5.2 -3.65 -3.8 -4.1 -3.65 -4.1 -3.9 L0.5 -5.95 2.55 -6.7 9.15 -8.95 9.5 -8.95 9.55 -8.6 9.2 -8.35 7.75 -7.95 6.05 -7.35 M2.5 -5.2 L2.5 -4.95 2.25 -4.85 -0.15 -4.1 -7.65 -1.25 Q-8.2 -1.0 -8.45 -1.25 L-7.95 -1.5 -5.1 -2.6 -0.4 -4.35 2.3 -5.2 2.5 -5.2 M2.1 -0.2 Q2.55 -0.55 3.45 -0.9 L4.8 -1.55 5.4 -1.9 5.95 -2.1 12.4 -5.0 12.6 -4.9 12.6 -4.7 12.25 -4.45 5.45 -1.55 4.75 -1.15 2.15 -0.15 2.1 -0.2 M0.25 -1.95 L0.45 -2.0 0.5 -1.7 0.2 -1.55 Q-0.4 -1.2 -0.75 -1.0 -1.0 -0.8 -2.05 -0.35 L-10.15 2.95 -10.4 2.95 -10.45 2.85 -10.4 2.75 -2.0 -0.85 Q-0.7 -1.35 0.25 -1.95 M3.75 -2.85 L5.45 -3.65 5.7 -3.7 5.9 -3.6 2.95 -2.25 2.65 -2.25 Q2.7 -2.45 3.05 -2.55 L3.75 -2.85 M13.75 -7.15 L14.45 -7.6 14.65 -7.6 14.8 -7.45 Q14.9 -7.1 14.55 -7.0 L14.3 -6.95 14.1 -6.75 13.85 -6.7 13.6 -6.55 13.0 -6.3 11.7 -5.75 11.45 -5.7 9.9 -5.05 9.55 -4.95 9.15 -5.0 9.6 -5.25 13.75 -7.15 M10.4 -6.55 L10.7 -6.6 Q11.0 -6.4 10.75 -6.15 L10.25 -5.95 7.15 -4.95 1.35 -2.85 -10.7 1.75 -11.05 1.7 -10.5 1.4 Q-8.1 0.3 -6.25 -0.35 L4.25 -4.4 10.4 -6.55 M-13.65 -2.05 Q-15.5 -1.2 -16.0 -1.1 L-14.15 -2.2 -13.0 -2.35 -13.65 -2.05 M-6.2 -3.35 L-5.9 -3.35 -5.95 -3.2 -5.9 -3.25 -5.95 -3.1 -6.4 -2.8 -6.95 -2.6 -7.2 -2.55 -7.3 -2.7 -7.1 -2.9 -6.3 -3.25 -6.2 -3.35 M-10.05 -0.6 Q-11.05 0.4 -12.6 0.9 L-12.65 0.75 -11.5 -0.05 -10.05 -0.6" fill="#ff9965" fill-rule="evenodd" stroke="none"/>
      <path d="M-16.3 1.35 L-15.5 1.45 -14.4 1.85 Q-14.1 2.0 -14.0 2.45 L-14.1 2.8 Q-14.35 3.15 -14.8 2.7 -14.7 3.1 -14.9 3.25 -15.05 3.45 -15.55 3.45 L-15.9 3.35 -16.15 3.1 -16.05 2.85 -15.85 2.55 -16.55 2.25 -17.05 1.95 Q-17.15 1.6 -16.85 1.5 L-16.3 1.35 M-13.6 3.85 L-14.15 4.35 -14.6 4.7 -15.6 4.65 -15.9 4.4 -15.8 4.1 -15.55 4.0 -14.7 4.0 -14.3 3.8 -13.9 3.55 Q-13.5 3.55 -13.6 3.85 M-11.65 5.9 L-12.3 5.85 -12.6 6.0 -13.6 6.15 Q-14.0 6.15 -13.9 5.75 -13.75 5.5 -13.45 5.5 L-12.85 5.45 -12.85 5.25 -12.7 5.1 -12.3 5.0 -11.45 5.0 Q-10.9 5.2 -11.05 5.6 L-11.25 5.9 -11.45 6.0 -11.65 5.9 M-20.4 3.8 L-20.8 3.75 -20.85 3.35 -20.85 3.1 -20.65 2.9 -19.85 2.35 -19.7 2.05 -18.35 2.0 Q-17.85 2.3 -17.95 2.75 L-18.6 3.25 -19.25 3.2 -19.65 3.7 -20.4 3.8 M-17.45 6.05 L-17.7 6.05 -17.9 5.95 -18.0 5.8 -18.05 5.75 -18.1 5.65 -18.05 5.55 -17.9 5.4 -17.55 5.35 -17.3 5.55 -17.25 5.7 -17.45 6.05 -17.1 5.9 -16.65 5.75 Q-16.3 5.85 -16.4 6.1 L-16.65 6.3 -19.6 7.45 Q-19.9 7.45 -20.05 7.65 L-20.15 8.05 Q-20.2 8.4 -20.6 8.6 L-21.35 8.65 -22.05 8.45 Q-22.4 8.2 -22.3 7.75 -22.1 7.35 -21.45 7.35 L-21.05 7.3 -20.85 7.1 Q-20.5 6.75 -19.2 6.5 L-17.45 6.05 M-17.3 3.65 L-17.0 3.7 Q-16.8 3.7 -16.75 3.85 L-16.75 4.4 -16.8 4.6 -17.1 4.9 -17.55 4.5 -17.85 4.35 -17.95 4.05 -17.65 3.75 -17.3 3.65 M-14.95 6.35 L-14.9 6.45 -14.9 6.55 -14.95 6.7 -15.2 6.9 -15.55 6.85 -15.55 6.75 -15.55 6.7 -15.6 6.55 -15.6 6.45 -15.5 6.3 -15.3 6.3 -15.25 6.2 -14.95 6.35 M-17.65 8.45 L-17.25 8.55 -16.9 8.85 Q-16.75 9.1 -16.9 9.25 L-17.45 9.35 -18.85 9.2 -19.45 9.05 -19.75 8.45 -19.6 8.15 -19.1 8.0 -18.7 7.95 -18.3 8.05 Q-18.1 8.35 -18.3 8.45 L-17.95 8.5 -17.65 8.45 M-14.45 8.5 L-14.35 8.55 -14.25 8.7 -14.25 9.05 -14.5 9.3 -14.8 9.45 -15.15 9.3 -15.4 9.2 -15.45 9.05 -15.2 8.35 -14.95 8.15 -14.5 8.3 -14.45 8.5 M-20.0 10.45 L-20.3 10.75 -20.7 10.7 -20.9 10.6 -21.0 10.3 Q-20.7 9.9 -20.3 9.95 L-20.25 9.85 -19.85 9.9 Q-19.6 10.0 -19.7 10.2 L-19.85 10.35 -20.0 10.45 M-17.8 11.55 Q-17.65 11.7 -17.75 11.9 L-17.9 12.2 -18.1 12.5 -18.65 12.4 -18.7 12.2 Q-18.9 11.75 -19.3 11.95 L-19.5 12.0 -19.75 11.85 Q-19.9 11.7 -19.7 11.6 L-19.2 11.4 Q-19.05 11.25 -18.95 11.25 L-18.6 11.15 -18.25 11.2 -18.05 11.4 -17.8 11.55 M-15.7 10.65 L-15.5 11.1 -15.6 11.3 -15.95 11.3 -16.55 11.2 -16.85 11.1 -17.25 10.9 -17.35 10.75 -17.2 10.35 -17.0 10.3 -16.55 10.35 -16.15 10.55 -15.7 10.65 M-12.75 8.0 L-12.55 7.95 -12.35 7.8 -12.05 7.75 -11.65 7.8 -11.45 7.95 -11.3 8.15 -11.25 8.45 -11.4 8.75 Q-11.45 8.9 -11.75 8.9 L-12.1 8.75 -12.2 8.65 -12.3 8.6 -12.6 8.6 -12.85 8.5 -12.85 8.15 -12.75 8.0 M-13.5 9.9 L-13.1 9.8 -12.7 9.75 -12.65 9.65 -12.2 9.7 -12.0 10.0 -12.05 10.5 -12.45 10.6 Q-12.7 10.6 -12.8 10.4 L-13.4 10.45 -13.7 10.55 -13.9 10.4 -13.85 10.15 -13.75 10.0 -13.5 9.9 M-14.3 13.25 L-14.5 13.2 -14.75 12.9 -14.7 12.7 -14.05 12.5 -13.5 12.5 -13.1 12.6 Q-12.8 12.8 -13.0 13.05 -13.15 13.25 -13.4 13.25 L-13.9 13.3 -14.2 13.3 -14.3 13.25 M-16.15 13.75 L-16.6 13.55 -16.7 13.45 -16.75 13.3 -16.7 13.05 -16.45 12.75 -16.1 12.65 -16.1 12.6 -15.95 12.7 -15.9 12.95 -15.9 13.0 -15.8 13.2 -15.85 13.55 -16.15 13.75 M-17.5 14.4 L-17.7 14.55 -17.95 14.5 -18.1 14.3 -18.25 14.25 -18.4 13.95 Q-18.3 13.7 -18.15 13.85 L-18.1 13.75 -17.7 13.85 -17.45 13.95 -17.35 14.2 -17.4 14.3 -17.5 14.4 M-22.95 12.3 L-22.25 12.55 -21.1 12.6 Q-20.35 12.6 -20.05 12.95 L-19.9 13.4 Q-19.95 13.65 -20.35 13.75 L-20.95 13.75 Q-21.1 14.1 -21.5 13.9 -21.8 13.85 -21.8 13.4 L-22.2 13.2 -23.05 12.75 -23.25 12.5 Q-23.25 12.3 -22.95 12.3 M-20.4 1.6 L-20.4 1.75 -20.55 1.85 -20.9 2.0 -20.95 1.95 -21.05 1.95 -21.1 1.65 -20.95 1.5 -20.65 1.45 Q-20.55 1.45 -20.4 1.6 M-21.25 2.45 L-21.15 2.6 Q-21.05 2.85 -21.2 3.0 L-21.45 3.1 -21.9 3.1 -22.1 3.2 -22.4 3.2 -22.5 3.1 -22.5 3.0 -22.45 2.85 -22.15 2.7 -21.95 2.55 Q-21.95 2.25 -21.6 2.25 L-21.65 2.2 Q-21.35 2.2 -21.3 2.35 L-21.25 2.45 M-22.95 4.0 L-22.85 4.05 -22.75 4.25 -22.8 4.45 -23.0 4.55 -23.25 4.55 -23.4 4.4 -23.5 4.3 -23.4 4.1 -23.45 3.8 -23.3 3.75 -23.3 3.7 -23.0 3.9 -22.95 4.0 M-24.05 3.8 L-23.85 3.85 -23.75 3.95 -23.75 4.05 -23.85 4.25 -24.15 4.4 -24.2 4.45 -24.45 4.4 -24.5 4.3 -24.5 4.2 -24.2 3.95 -24.15 3.85 -24.05 3.8 M-24.95 5.45 L-24.85 5.35 -24.75 5.3 -24.6 5.3 -24.1 5.35 -23.95 5.65 -24.0 5.8 -24.2 6.0 -24.75 5.95 -24.95 5.8 -25.0 5.7 -25.0 5.6 -24.95 5.45 M-23.15 5.55 L-23.05 5.15 -22.6 5.05 -22.3 5.15 -22.0 4.95 -21.7 4.85 -21.15 4.55 -20.85 4.5 Q-20.55 4.4 -20.45 4.85 -20.45 5.15 -20.8 5.3 L-20.4 5.75 Q-20.4 6.1 -20.85 6.2 L-21.45 6.3 -22.0 6.5 -22.85 6.4 -23.15 6.05 -23.15 5.55 M-24.55 8.0 L-25.1 7.75 -25.2 7.5 -25.2 7.35 -24.95 7.1 -24.55 7.05 -24.35 7.1 Q-24.1 7.1 -24.25 7.25 L-23.85 7.45 Q-23.75 7.75 -23.95 7.9 L-24.15 8.0 -24.55 8.0 M-24.55 9.25 L-24.45 9.45 -24.5 9.65 -24.7 9.7 -24.95 9.6 -25.05 9.45 -25.1 9.25 -25.05 8.9 -24.95 8.8 -24.8 8.9 -24.65 9.1 -24.6 9.2 -24.55 9.25 M-21.8 10.3 L-21.55 10.65 -21.55 11.0 Q-21.75 11.3 -22.0 11.2 L-22.7 10.5 -22.75 10.45 -23.3 10.45 -23.9 10.3 -24.1 9.85 -24.35 9.55 -24.35 9.3 -24.1 9.15 -23.9 9.3 -23.75 9.4 -23.6 9.3 Q-23.5 9.15 -23.3 9.15 L-22.55 9.25 -21.95 9.8 -21.8 10.3" fill="#e2d3b8" fill-rule="evenodd" stroke="none"/>
      <path d="M5.55 -7.8 L5.65 -7.8 5.7 -7.85 6.1 -8.0 6.2 -8.1 6.5 -8.2 6.7 -8.05 6.8 -7.85 6.75 -7.65 6.3 -7.35 5.65 -7.4 5.55 -7.6 5.55 -7.8 M9.85 -8.8 Q9.6 -8.45 9.15 -8.55 L8.9 -8.55 8.7 -8.95 8.8 -9.15 Q9.05 -9.5 9.45 -9.5 L9.9 -9.45 10.1 -9.35 10.1 -9.1 9.95 -9.0 9.85 -8.8 M0.4 -5.35 L0.05 -5.1 -0.65 -4.9 -1.15 -4.9 -1.55 -4.8 -2.2 -4.55 -3.05 -4.1 -3.4 -3.85 -4.45 -3.35 -5.0 -3.25 -5.9 -2.9 -8.7 -2.25 Q-8.9 -2.25 -8.9 -2.35 L-8.75 -2.5 Q-6.9 -2.75 -5.85 -3.25 L-5.0 -3.6 -4.4 -3.7 -3.9 -3.95 -3.55 -4.2 -3.25 -4.35 -2.1 -5.05 -0.35 -5.65 0.0 -5.85 0.35 -5.75 0.4 -5.35 M-11.95 -0.6 L-12.65 -0.7 -12.75 -0.85 -12.6 -1.1 -12.45 -1.15 -12.3 -1.15 Q-11.85 -1.05 -11.7 -1.4 L-11.5 -1.4 -11.5 -1.45 -11.3 -1.25 -11.25 -1.1 -11.55 -0.7 Q-11.75 -0.5 -11.95 -0.6" fill="#ffd8a2" fill-rule="evenodd" stroke="none"/>
    </g>
  </defs>
</svg>
