<?xml version="1.0" encoding="UTF-8" standalone="no"?>
<svg xmlns:ffdec="https://www.free-decompiler.com/flash" xmlns:xlink="http://www.w3.org/1999/xlink" ffdec:objectType="frame" height="59.35px" width="48.95px" xmlns="http://www.w3.org/2000/svg">
  <g transform="matrix(1.0, 0.0, 0.0, 1.0, 20.2, 78.15)">
    <use ffdec:characterId="46" height="19.25" transform="matrix(1.0, 0.0, 0.0, 1.0396, -15.05, -41.45)" width="30.05" xlink:href="#sprite0"/>
    <use ffdec:characterId="16" height="21.3" transform="matrix(1.0, 0.0, 0.0, 1.0, 13.1, -37.4)" width="15.8" xlink:href="#sprite1"/>
    <use ffdec:characterId="55" height="33.45" transform="matrix(1.0, 0.0, 0.0, 1.0, 0.0, 0.0)" width="30.15" xlink:href="#shape4"/>
    <use ffdec:characterId="33" height="24.7" transform="matrix(1.0, 0.0, 0.0, 1.0, -9.4, -63.7)" width="18.6" xlink:href="#sprite3"/>
    <use ffdec:characterId="35" height="36.95" transform="matrix(-0.3436, -0.3512, -0.3051, 0.2985, -3.05, -63.85)" width="17.5" xlink:href="#sprite6"/>
    <use ffdec:characterId="35" height="36.95" transform="matrix(0.3875, -0.4047, 0.3197, 0.326, 2.3, -64.2)" width="17.5" xlink:href="#sprite7"/>
    <use ffdec:characterId="37" height="17.35" transform="matrix(-0.2665, -0.7745, -0.8434, 0.2448, 2.35, -62.9)" width="19.05" xlink:href="#sprite8"/>
    <use ffdec:characterId="37" height="17.35" transform="matrix(0.2636, -0.7753, 0.8443, 0.242, -2.1, -62.95)" width="19.05" xlink:href="#sprite8"/>
    <use ffdec:characterId="39" height="2.6" transform="matrix(1.8793, 0.0, 0.0, 1.8793, -1.85, -70.0)" width="2.6" xlink:href="#sprite9"/>
    <use ffdec:characterId="39" height="2.6" transform="matrix(1.8793, 0.0, 0.0, 1.8793, -5.0, -66.9)" width="2.6" xlink:href="#sprite10"/>
    <use ffdec:characterId="39" height="2.6" transform="matrix(1.8793, 0.0, 0.0, 1.8793, -0.55, -65.75)" width="2.6" xlink:href="#sprite11"/>
    <use ffdec:characterId="43" height="5.4" transform="matrix(1.0, 0.0, 0.0, 1.0, -8.4, -36.8)" width="12.75" xlink:href="#sprite12"/>
  </g>
  <defs>
    <g id="sprite0">
      <use ffdec:characterId="45" height="19.25" transform="matrix(1.0, 0.0, 0.0, 1.0, 0.0, 0.0)" width="30.05" xlink:href="#shape0"/>
    </g>
    <g id="shape0">
      <path d="M0.7 18.35 Q0.1 17.75 0.05 17.15 L0.0 17.15 0.0 6.85 0.7 6.85 0.7 18.35" fill="#fb1919" fill-rule="evenodd" stroke="none"/>
      <path d="M29.35 6.85 L29.35 17.15 Q29.2 18.85 25.05 20.1 20.8 21.4 14.7 21.4 8.6 21.4 4.35 20.1 1.7 19.3 0.7 18.35 L0.7 6.85 29.35 6.85" fill="#97001a" fill-rule="evenodd" stroke="none"/>
      <path d="M29.35 6.85 L29.35 17.15 Q29.2 18.85 25.05 20.1 20.8 21.4 14.7 21.4 8.6 21.4 4.35 20.1 1.7 19.3 0.7 18.35 0.1 17.75 0.05 17.15 L0.0 17.15 0.0 6.85" ffdec:has-small-stroke="true" ffdec:original-stroke-width="0.7" fill="none" stroke="#060745" stroke-linecap="round" stroke-linejoin="round" stroke-width="0.9807493347636582"/>
      <path d="M8.75 6.65 L28.6 6.65 28.6 18.45 Q27.55 19.35 25.05 20.1 20.8 21.4 14.7 21.4 L8.75 21.0 8.75 6.65" fill="#790b0b" fill-rule="evenodd" stroke="none"/>
      <path d="M8.75 6.65 L28.6 6.65" ffdec:has-small-stroke="true" ffdec:original-stroke-width="0.7" fill="none" stroke="#6b0000" stroke-linecap="round" stroke-linejoin="round" stroke-width="0.9807493347636582"/>
      <path d="M28.6 18.45 Q27.55 19.35 25.05 20.1 20.8 21.4 14.7 21.4 L8.75 21.0" ffdec:has-small-stroke="true" ffdec:original-stroke-width="0.7" fill="none" stroke="#060745" stroke-linecap="round" stroke-linejoin="round" stroke-width="0.9807493347636582"/>
      <path d="M11.95 21.3 L11.95 6.35 14.75 6.35 14.75 21.4 14.7 21.4 11.95 21.3" fill="#a80404" fill-rule="evenodd" stroke="none"/>
      <path d="M4.85 20.25 L4.85 6.35 11.95 6.35 11.95 21.3 4.85 20.25" fill="#cd0543" fill-rule="evenodd" stroke="none"/>
      <path d="M11.95 6.35 L4.85 6.35 M14.75 6.35 L11.95 6.35" ffdec:has-small-stroke="true" ffdec:original-stroke-width="0.7" fill="none" stroke="#6b0000" stroke-linecap="round" stroke-linejoin="round" stroke-width="0.9807493347636582"/>
      <path d="M4.85 20.25 L11.95 21.3 14.7 21.4 14.75 21.4" ffdec:has-small-stroke="true" ffdec:original-stroke-width="0.7" fill="none" stroke="#060745" stroke-linecap="round" stroke-linejoin="round" stroke-width="0.9807493347636582"/>
      <path d="M29.3 7.2 Q29.3 9.0 25.0 10.25 20.75 11.5 14.65 11.5 8.55 11.5 4.3 10.25 0.0 9.0 0.0 7.2 0.0 5.4 4.3 4.1 8.55 2.85 14.65 2.85 20.75 2.85 25.0 4.1 29.3 5.4 29.3 7.2" fill="#a11515" fill-rule="evenodd" stroke="none"/>
      <path d="M29.3 7.2 Q29.3 9.0 25.0 10.25 20.75 11.5 14.65 11.5 8.55 11.5 4.3 10.25 0.0 9.0 0.0 7.2 0.0 5.4 4.3 4.1 8.55 2.85 14.65 2.85 20.75 2.85 25.0 4.1 29.3 5.4 29.3 7.2 Z" ffdec:has-small-stroke="true" ffdec:original-stroke-width="0.3" fill="none" stroke="#6b0000" stroke-linecap="round" stroke-linejoin="round" stroke-width="0.9807493347636582"/>
      <path d="M4.95 10.4 L4.3 10.2 Q0.75 9.15 0.15 7.75 L0.0 7.15 Q0.0 5.35 4.3 4.1 8.55 2.85 14.65 2.85 L18.75 3.0 4.95 10.4" fill="#ff313b" fill-rule="evenodd" stroke="none"/>
      <path d="M12.25 11.45 L4.95 10.4 18.75 3.0 Q22.25 3.25 25.0 4.1 L25.5 4.2 12.25 11.45" fill="#ff52a1" fill-rule="evenodd" stroke="none"/>
      <path d="M15.45 11.5 L14.65 11.5 12.25 11.45 25.5 4.2 27.1 4.85 Q16.6 10.6 15.45 11.5" fill="#ff1818" fill-rule="evenodd" stroke="none"/>
      <path d="M29.2 7.75 Q28.55 9.15 25.0 10.2 21.05 11.4 15.45 11.5 16.6 10.6 27.1 4.85 29.3 5.85 29.3 7.15 L29.2 7.75" fill="#e10000" fill-rule="evenodd" stroke="none"/>
      <path d="M15.45 11.5 L14.65 11.5 12.25 11.45 4.95 10.4" ffdec:has-small-stroke="true" ffdec:original-stroke-width="0.7" fill="none" stroke="#ffe1fe" stroke-linecap="round" stroke-linejoin="round" stroke-width="0.9807493347636582"/>
      <path d="M4.95 10.4 L4.3 10.2 Q0.75 9.15 0.15 7.75" ffdec:has-small-stroke="true" ffdec:original-stroke-width="0.7" fill="none" stroke="#ff9dfb" stroke-linecap="round" stroke-linejoin="round" stroke-width="0.9807493347636582"/>
      <path d="M0.15 7.75 L0.0 7.15 Q0.0 5.35 4.3 4.1 8.55 2.85 14.65 2.85 L18.75 3.0 Q22.25 3.25 25.0 4.1 L25.5 4.2 27.1 4.85 Q29.3 5.85 29.3 7.15 L29.2 7.75" ffdec:has-small-stroke="true" ffdec:original-stroke-width="0.7" fill="none" stroke="#7c0000" stroke-linecap="round" stroke-linejoin="round" stroke-width="0.9807493347636582"/>
      <path d="M29.2 7.75 Q28.55 9.15 25.0 10.2 21.05 11.4 15.45 11.5" ffdec:has-small-stroke="true" ffdec:original-stroke-width="0.7" fill="none" stroke="#ffdffd" stroke-linecap="round" stroke-linejoin="round" stroke-width="0.9807493347636582"/>
      <path d="M5.9 13.75 Q14.85 15.1 23.4 13.75 L23.4 17.7 Q14.55 19.25 5.9 17.7 L5.9 13.75" fill="#c54100" fill-rule="evenodd" stroke="none"/>
      <path d="M5.9 13.75 Q14.85 15.1 23.4 13.75 L23.4 17.7 Q14.55 19.25 5.9 17.7 L5.9 13.75 Z" ffdec:has-small-stroke="true" ffdec:original-stroke-width="0.3" fill="none" stroke="#000457" stroke-linecap="round" stroke-linejoin="round" stroke-width="0.9807493347636582"/>
      <path d="M8.75 18.2 L5.9 17.8 5.9 14.4 8.75 14.7 8.75 18.2" fill="#ffc90a" fill-rule="evenodd" stroke="none"/>
      <path d="M14.8 18.5 L8.75 18.2 8.75 14.7 14.8 15.0 14.8 18.5" fill="#fef496" fill-rule="evenodd" stroke="none"/>
      <path d="M23.4 14.4 L23.4 17.8 17.5 18.4 14.9 18.5 14.8 18.5 14.8 15.0 14.9 15.0 17.5 14.95 23.4 14.4" fill="#ffb60a" fill-rule="evenodd" stroke="none"/>
      <path d="M23.4 14.4 L23.4 17.8 17.5 18.4 14.9 18.5 14.8 18.5 8.75 18.2 5.9 17.8 5.9 14.4" ffdec:has-small-stroke="true" ffdec:original-stroke-width="0.3" fill="none" stroke="#ff7a00" stroke-linecap="round" stroke-linejoin="round" stroke-width="0.9807493347636582"/>
      <path d="M5.9 14.4 L8.75 14.7 14.8 15.0 14.9 15.0 17.5 14.95 23.4 14.4" ffdec:has-small-stroke="true" ffdec:original-stroke-width="0.3" fill="none" stroke="#ffffff" stroke-linecap="round" stroke-linejoin="round" stroke-width="0.9807493347636582"/>
      <path d="M7.3 16.4 L7.15 16.65 6.9 16.75 6.6 16.65 6.5 16.4 6.6 16.1 6.9 16.0 7.15 16.1 7.3 16.4" fill="#ff660a" fill-rule="evenodd" stroke="none"/>
      <path d="M7.3 16.4 L7.15 16.65 6.9 16.75 6.6 16.65 6.5 16.4 6.6 16.1 6.9 16.0 7.15 16.1 7.3 16.4 Z" ffdec:has-small-stroke="true" ffdec:original-stroke-width="0.3" fill="none" stroke="#b50202" stroke-linecap="round" stroke-linejoin="round" stroke-width="0.9807493347636582"/>
      <path d="M22.8 16.4 L22.65 16.65 22.4 16.75 22.1 16.65 22.0 16.4 22.1 16.1 22.4 16.0 22.65 16.1 22.8 16.4" fill="#ff660a" fill-rule="evenodd" stroke="none"/>
      <path d="M22.8 16.4 L22.65 16.65 22.4 16.75 22.1 16.65 22.0 16.4 22.1 16.1 22.4 16.0 22.65 16.1 22.8 16.4 Z" ffdec:has-small-stroke="true" ffdec:original-stroke-width="0.3" fill="none" stroke="#b50202" stroke-linecap="round" stroke-linejoin="round" stroke-width="0.9807493347636582"/>
      <path d="M13.25 16.4 L12.9 16.5 12.9 15.85 13.25 15.7 13.25 16.4 M19.65 17.25 L19.2 17.25 19.45 17.05 19.85 17.15 20.15 16.85 19.85 16.65 19.7 16.6 19.4 16.3 Q19.35 16.15 19.55 16.05 L20.1 15.85 20.45 15.85 20.2 16.05 19.85 16.05 Q19.6 16.05 19.6 16.2 L19.95 16.35 20.05 16.4 20.45 16.75 20.2 17.05 19.65 17.25 M18.35 16.4 L18.35 16.25 17.95 16.25 17.55 16.55 Q17.35 16.75 17.4 17.1 L17.55 17.3 18.0 17.0 18.35 16.4 M18.35 16.85 L18.35 16.8 17.85 17.3 17.4 17.5 17.05 17.2 Q17.0 16.8 17.35 16.5 17.75 16.15 18.35 16.05 L18.7 16.05 18.65 16.2 18.65 16.95 18.6 17.1 18.65 17.2 19.05 16.85 19.1 16.9 18.9 17.1 18.5 17.35 18.3 17.25 18.3 17.0 18.35 16.85 M15.25 17.15 L15.2 17.45 14.9 17.55 14.9 17.35 14.95 17.3 15.05 16.7 15.0 16.55 14.9 16.4 Q14.7 16.4 14.45 16.65 L14.15 17.15 14.1 17.45 13.8 17.6 13.8 17.4 13.85 17.3 13.95 16.7 13.9 16.5 13.85 16.35 13.55 16.65 13.45 16.6 13.7 16.4 Q13.9 16.2 14.05 16.2 14.25 16.2 14.25 16.35 L14.25 16.45 14.2 16.55 14.25 16.75 14.3 16.7 15.15 16.2 15.35 16.4 15.35 16.8 15.75 16.35 16.25 16.15 16.45 16.3 16.45 16.5 16.35 17.0 16.35 17.25 16.4 17.3 16.55 17.25 16.75 17.1 16.8 17.1 16.55 17.3 16.2 17.5 16.0 17.3 16.05 17.05 16.15 16.7 16.1 16.45 16.0 16.35 15.6 16.65 15.25 17.15 M10.9 16.75 L10.95 16.7 10.75 16.5 10.75 16.35 10.6 16.25 10.5 16.1 10.35 15.85 9.95 16.1 9.85 16.05 10.1 15.8 10.5 15.7 10.75 15.8 11.0 16.25 11.15 16.5 11.4 16.3 Q11.95 15.8 12.45 15.8 L12.75 15.85 12.45 16.05 12.3 16.0 11.9 16.1 11.3 16.55 11.2 16.65 11.6 17.2 11.9 17.45 12.25 17.3 12.3 17.35 12.2 17.55 11.7 17.7 11.45 17.55 11.1 17.05 11.0 16.85 10.95 16.9 Q10.2 17.55 9.6 17.55 L9.35 17.5 9.65 17.3 9.85 17.3 10.45 17.1 10.9 16.75" fill="#8e3500" fill-rule="evenodd" stroke="none"/>
    </g>
    <g id="sprite1">
      <use ffdec:characterId="3" height="18.95" transform="matrix(1.0, 0.0, 0.0, 1.0, 0.0, 0.0)" width="10.95" xlink:href="#shape1"/>
      <use ffdec:characterId="6" height="21.3" transform="matrix(1.0, 0.0, 0.0, 1.0, 2.25, -1.15)" width="13.4" xlink:href="#sprite2"/>
      <use ffdec:characterId="7" height="18.95" transform="matrix(1.0, 0.0, 0.0, 1.0, 0.0, 0.0)" width="14.55" xlink:href="#shape3"/>
    </g>
    <g id="shape1">
      <path d="M13.0 2.35 Q13.0 1.6 12.4 1.05 11.9 0.55 11.15 0.55 10.35 0.55 9.85 1.05 9.3 1.6 9.3 2.35 9.3 3.1 9.85 3.65 10.35 4.2 11.15 4.2 11.9 4.2 12.4 3.65 13.0 3.1 13.0 2.35 M14.65 2.35 Q14.65 3.85 13.6 4.8 13.05 5.45 12.3 5.7 L11.8 5.8 Q11.0 6.8 11.0 8.15 11.0 9.65 11.9 10.55 L12.0 10.65 12.2 10.7 Q13.0 10.9 13.6 11.6 14.65 12.5 14.65 14.05 14.65 15.45 13.6 16.5 12.6 17.5 11.15 17.5 9.65 17.5 8.6 16.5 7.65 15.45 7.65 14.05 7.65 12.55 8.55 11.6 L8.55 11.5 Q8.55 10.8 8.0 10.25 7.5 9.65 6.75 9.65 L6.7 9.65 6.1 9.8 5.05 9.8 5.05 6.5 5.95 6.5 6.7 6.7 6.75 6.7 Q7.5 6.7 8.0 6.15 8.55 5.55 8.55 4.85 L8.55 4.75 Q7.65 3.8 7.65 2.35 7.65 0.95 8.6 -0.15 9.65 -1.1 11.15 -1.1 12.6 -1.1 13.6 -0.15 14.65 0.95 14.65 2.35 M13.0 14.05 Q13.0 13.3 12.4 12.75 11.9 12.2 11.15 12.2 10.35 12.2 9.85 12.75 9.3 13.3 9.3 14.05 9.3 14.8 9.85 15.35 10.35 15.85 11.15 15.85 11.9 15.85 12.4 15.35 13.0 14.8 13.0 14.05" fill="#d87800" fill-rule="evenodd" stroke="none"/>
      <path d="M13.0 2.35 Q13.0 3.1 12.4 3.65 11.9 4.2 11.15 4.2 10.35 4.2 9.85 3.65 9.3 3.1 9.3 2.35 9.3 1.6 9.85 1.05 10.35 0.55 11.15 0.55 11.9 0.55 12.4 1.05 13.0 1.6 13.0 2.35 M14.65 2.35 Q14.65 3.85 13.6 4.8 13.05 5.45 12.3 5.7 L11.8 5.8 Q11.0 6.8 11.0 8.15 11.0 9.65 11.9 10.55 L12.0 10.65 12.2 10.7 Q13.0 10.9 13.6 11.6 14.65 12.5 14.65 14.05 14.65 15.45 13.6 16.5 12.6 17.5 11.15 17.5 9.65 17.5 8.6 16.5 7.65 15.45 7.65 14.05 7.65 12.55 8.55 11.6 L8.55 11.5 Q8.55 10.8 8.0 10.25 7.5 9.65 6.75 9.65 L6.7 9.65 6.1 9.8 5.05 9.8 5.05 6.5 5.95 6.5 6.7 6.7 6.75 6.7 Q7.5 6.7 8.0 6.15 8.55 5.55 8.55 4.85 L8.55 4.75 Q7.65 3.8 7.65 2.35 7.65 0.95 8.6 -0.15 9.65 -1.1 11.15 -1.1 12.6 -1.1 13.6 -0.15 14.65 0.95 14.65 2.35 M13.0 14.05 Q13.0 13.3 12.4 12.75 11.9 12.2 11.15 12.2 10.35 12.2 9.85 12.75 9.3 13.3 9.3 14.05 9.3 14.8 9.85 15.35 10.35 15.85 11.15 15.85 11.9 15.85 12.4 15.35 13.0 14.8 13.0 14.05 Z" ffdec:has-small-stroke="true" ffdec:original-stroke-width="0.3" fill="none" stroke="#841a0b" stroke-linecap="round" stroke-linejoin="round" stroke-width="1.0"/>
      <path d="M14.25 2.35 Q14.25 3.85 13.2 4.8 L11.9 5.7 11.4 5.8 Q10.55 6.8 10.55 8.1 10.55 9.6 11.5 10.55 L11.55 10.6 11.8 10.65 Q12.55 10.9 13.2 11.55 14.25 12.5 14.25 14.0 14.25 15.45 13.2 16.5 12.2 17.5 10.75 17.5 9.25 17.5 8.2 16.5 7.25 15.45 7.25 14.0 7.25 12.55 8.15 11.6 L8.15 11.5 8.1 11.0 7.05 10.7 6.95 10.7 6.15 10.95 4.7 10.95 Q3.3 7.95 4.7 5.35 L5.95 5.35 Q6.35 5.7 6.95 5.7 L7.05 5.7 8.05 5.45 8.15 4.85 8.15 4.75 Q7.25 3.8 7.25 2.35 7.25 0.9 8.2 -0.15 9.25 -1.15 10.75 -1.15 12.2 -1.15 13.2 -0.15 14.25 0.9 14.25 2.35 M12.55 2.35 Q12.55 1.55 12.0 1.0 11.5 0.5 10.75 0.5 9.95 0.5 9.45 1.0 8.9 1.55 8.9 2.35 8.9 3.05 9.45 3.65 9.95 4.2 10.75 4.2 11.5 4.2 12.0 3.65 12.55 3.05 12.55 2.35 M12.55 14.0 Q12.55 13.25 12.0 12.7 11.5 12.15 10.75 12.15 9.95 12.15 9.45 12.7 8.9 13.25 8.9 14.0 8.9 14.75 9.45 15.35 9.95 15.85 10.75 15.85 11.5 15.85 12.0 15.35 12.55 14.75 12.55 14.0" fill="#ffb60a" fill-rule="evenodd" stroke="none"/>
      <path d="M14.25 2.35 Q14.25 3.85 13.2 4.8 L11.9 5.7 11.4 5.8 Q10.55 6.8 10.55 8.1 10.55 9.6 11.5 10.55 L11.55 10.6 11.8 10.65 Q12.55 10.9 13.2 11.55 14.25 12.5 14.25 14.0 14.25 15.45 13.2 16.5 12.2 17.5 10.75 17.5 9.25 17.5 8.2 16.5 7.25 15.45 7.25 14.0 7.25 12.55 8.15 11.6 L8.15 11.5 8.1 11.0 7.05 10.7 6.95 10.7 6.15 10.95 4.7 10.95 Q3.3 7.95 4.7 5.35 L5.95 5.35 Q6.35 5.7 6.95 5.7 L7.05 5.7 8.05 5.45 8.15 4.85 8.15 4.75 Q7.25 3.8 7.25 2.35 7.25 0.9 8.2 -0.15 9.25 -1.15 10.75 -1.15 12.2 -1.15 13.2 -0.15 14.25 0.9 14.25 2.35 M12.55 2.35 Q12.55 3.05 12.0 3.65 11.5 4.2 10.75 4.2 9.95 4.2 9.45 3.65 8.9 3.05 8.9 2.35 8.9 1.55 9.45 1.0 9.95 0.5 10.75 0.5 11.5 0.5 12.0 1.0 12.55 1.55 12.55 2.35 M12.55 14.0 Q12.55 13.25 12.0 12.7 11.5 12.15 10.75 12.15 9.95 12.15 9.45 12.7 8.9 13.25 8.9 14.0 8.9 14.75 9.45 15.35 9.95 15.85 10.75 15.85 11.5 15.85 12.0 15.35 12.55 14.75 12.55 14.0 Z" ffdec:has-small-stroke="true" ffdec:original-stroke-width="0.3" fill="none" stroke="#841a0b" stroke-linecap="round" stroke-linejoin="round" stroke-width="1.0"/>
    </g>
    <g id="sprite2">
      <clipPath id="clipPath0">
        <path d="M 8.5 1.65 L 8.68 1.66 L 8.86 1.68 L 9.03 1.72 L 9.19 1.77 L 9.34 1.85 L 9.48 1.93 L 9.62 2.03 L 9.75 2.15 L 9.88 2.29 L 9.99 2.44 L 10.09 2.6 L 10.16 2.76 L 10.22 2.94 L 10.27 3.12 L 10.29 3.3 L 10.3 3.5 L 10.29 3.67 L 10.27 3.84 L 10.22 4.01 L 10.16 4.18 L 10.09 4.34 L 9.99 4.49 L 9.88 4.65 L 9.75 4.8 L 9.62 4.93 L 9.48 5.04 L 9.34 5.14 L 9.19 5.21 L 9.03 5.27 L 8.86 5.32 L 8.68 5.34 L 8.5 5.35 L 8.3 5.34 L 8.12 5.32 L 7.94 5.27 L 7.78 5.21 L 7.62 5.14 L 7.47 5.04 L 7.33 4.93 L 7.2 4.8 L 7.07 4.65 L 6.96 4.49 L 6.86 4.34 L 6.79 4.18 L 6.73 4.01 L 6.68 3.84 L 6.66 3.67 L 6.65 3.5 L 6.66 3.3 L 6.68 3.12 L 6.73 2.94 L 6.79 2.76 L 6.86 2.6 L 6.96 2.44 L 7.07 2.29 L 7.2 2.15 L 7.33 2.03 L 7.47 1.93 L 7.62 1.85 L 7.78 1.77 L 7.94 1.72 L 8.12 1.68 L 8.3 1.66 L 8.5 1.65 Z M 8.5 13.3 L 8.68 13.31 L 8.86 13.33 L 9.03 13.38 L 9.19 13.44 L 9.34 13.51 L 9.48 13.61 L 9.62 13.72 L 9.75 13.85 L 9.88 13.99 L 9.99 14.14 L 10.09 14.29 L 10.16 14.45 L 10.22 14.62 L 10.27 14.79 L 10.29 14.97 L 10.3 15.15 L 10.29 15.34 L 10.27 15.52 L 10.22 15.69 L 10.16 15.86 L 10.09 16.03 L 9.99 16.19 L 9.88 16.35 L 9.75 16.5 L 9.62 16.62 L 9.48 16.72 L 9.34 16.8 L 9.19 16.88 L 9.03 16.93 L 8.86 16.97 L 8.68 16.99 L 8.5 17 L 8.3 16.99 L 8.12 16.97 L 7.94 16.93 L 7.78 16.88 L 7.62 16.8 L 7.47 16.72 L 7.33 16.62 L 7.2 16.5 L 7.07 16.35 L 6.96 16.19 L 6.86 16.03 L 6.79 15.86 L 6.73 15.69 L 6.68 15.52 L 6.66 15.34 L 6.65 15.15 L 6.66 14.97 L 6.68 14.79 L 6.73 14.62 L 6.79 14.45 L 6.86 14.29 L 6.96 14.14 L 7.07 13.99 L 7.2 13.85 L 7.33 13.72 L 7.47 13.61 L 7.62 13.51 L 7.78 13.44 L 7.94 13.38 L 8.12 13.33 L 8.3 13.31 L 8.5 13.3 Z M 8.5 0 L 8.13 0.02 L 7.78 0.06 L 7.44 0.14 L 7.11 0.25 L 6.8 0.39 L 6.5 0.56 L 6.22 0.77 L 5.95 1 L 5.73 1.27 L 5.53 1.55 L 5.37 1.84 L 5.24 2.15 L 5.13 2.47 L 5.06 2.8 L 5.01 3.14 L 5 3.5 L 5.01 3.85 L 5.06 4.19 L 5.13 4.52 L 5.22 4.82 L 5.35 5.12 L 5.51 5.39 L 5.69 5.65 L 5.9 5.9 L 5.9 6 L 5.8 6.6 L 4.8 6.85 L 4.7 6.85 L 4.55 6.84 L 4.41 6.83 L 4.28 6.8 L 4.15 6.76 L 4.03 6.71 L 3.91 6.65 L 3.8 6.58 L 3.7 6.5 L 2.45 6.5 L 2.29 6.83 L 2.14 7.16 L 2.02 7.49 L 1.92 7.82 L 1.85 8.16 L 1.79 8.51 L 1.76 8.85 L 1.75 9.2 L 1.76 9.55 L 1.79 9.91 L 1.85 10.26 L 1.92 10.62 L 2.02 10.99 L 2.14 11.36 L 2.29 11.73 L 2.45 12.1 L 3.9 12.1 L 4.7 11.85 L 4.8 11.85 L 5.07 11.87 L 5.34 11.93 L 5.6 12.02 L 5.85 12.15 L 5.9 12.65 L 5.9 12.75 L 5.69 13 L 5.51 13.26 L 5.35 13.53 L 5.22 13.82 L 5.13 14.13 L 5.06 14.46 L 5.01 14.8 L 5 15.15 L 5.01 15.51 L 5.06 15.85 L 5.13 16.18 L 5.24 16.5 L 5.37 16.81 L 5.53 17.1 L 5.73 17.38 L 5.95 17.65 L 6.22 17.88 L 6.5 18.09 L 6.8 18.26 L 7.11 18.4 L 7.44 18.51 L 7.78 18.59 L 8.13 18.63 L 8.5 18.65 L 8.86 18.63 L 9.2 18.59 L 9.52 18.51 L 9.84 18.4 L 10.14 18.26 L 10.42 18.09 L 10.69 17.88 L 10.95 17.65 L 11.2 17.38 L 11.41 17.1 L 11.59 16.81 L 11.74 16.5 L 11.85 16.18 L 11.93 15.85 L 11.98 15.51 L 12 15.15 L 11.98 14.78 L 11.93 14.43 L 11.85 14.1 L 11.74 13.79 L 11.59 13.49 L 11.41 13.21 L 11.2 12.95 L 10.95 12.7 L 10.79 12.54 L 10.62 12.4 L 10.45 12.27 L 10.27 12.15 L 10.1 12.04 L 9.92 11.95 L 9.74 11.87 L 9.55 11.8 L 9.3 11.75 L 9.25 11.7 L 9.03 11.45 L 8.83 11.19 L 8.67 10.91 L 8.54 10.61 L 8.43 10.3 L 8.36 9.97 L 8.31 9.62 L 8.3 9.25 L 8.31 8.93 L 8.35 8.62 L 8.42 8.32 L 8.51 8.02 L 8.63 7.74 L 8.78 7.47 L 8.95 7.2 L 9.15 6.95 L 9.65 6.85 L 10.95 5.95 L 11.2 5.7 L 11.41 5.44 L 11.59 5.16 L 11.74 4.86 L 11.85 4.55 L 11.93 4.22 L 11.98 3.87 L 12 3.5 L 11.98 3.14 L 11.93 2.8 L 11.85 2.47 L 11.74 2.15 L 11.59 1.84 L 11.41 1.55 L 11.2 1.27 L 10.95 1 L 10.69 0.77 L 10.42 0.56 L 10.14 0.39 L 9.84 0.25 L 9.52 0.14 L 9.2 0.06 L 8.86 0.02 L 8.5 0 Z"/>
      </clipPath>
      <g clip-path="url(#clipPath0)">
        <use ffdec:characterId="5" height="16.3" transform="matrix(1.0, 0.0, 0.0, 1.0, 0.0, 0.0)" width="13.4" xlink:href="#shape2"/>
      </g>
    </g>
    <g id="shape2">
      <path d="M0.0 -2.5 L13.4 4.0 13.4 13.8 0.0 7.3 0.0 -2.5" fill="#e7ff00" fill-rule="evenodd" stroke="none"/>
    </g>
    <g id="shape3">
      <path d="M14.25 2.35 Q14.25 3.85 13.2 4.8 L11.9 5.7 11.4 5.8 Q10.55 6.8 10.55 8.1 10.55 9.6 11.5 10.55 L11.55 10.6 11.8 10.65 Q12.55 10.9 13.2 11.55 14.25 12.5 14.25 14.0 14.25 15.45 13.2 16.5 12.2 17.5 10.75 17.5 9.25 17.5 8.2 16.5 7.25 15.45 7.25 14.0 7.25 12.55 8.15 11.6 L8.15 11.5 8.1 11.0 7.05 10.7 6.95 10.7 6.15 10.95 4.7 10.95 Q3.3 7.95 4.7 5.35 L5.95 5.35 Q6.35 5.7 6.95 5.7 L7.05 5.7 8.05 5.45 8.15 4.85 8.15 4.75 Q7.25 3.8 7.25 2.35 7.25 0.9 8.2 -0.15 9.25 -1.15 10.75 -1.15 12.2 -1.15 13.2 -0.15 14.25 0.9 14.25 2.35 M12.55 2.35 Q12.55 3.05 12.0 3.65 11.5 4.2 10.75 4.2 9.95 4.2 9.45 3.65 8.9 3.05 8.9 2.35 8.9 1.55 9.45 1.0 9.95 0.5 10.75 0.5 11.5 0.5 12.0 1.0 12.55 1.55 12.55 2.35 M12.55 14.0 Q12.55 13.25 12.0 12.7 11.5 12.15 10.75 12.15 9.95 12.15 9.45 12.7 8.9 13.25 8.9 14.0 8.9 14.75 9.45 15.35 9.95 15.85 10.75 15.85 11.5 15.85 12.0 15.35 12.55 14.75 12.55 14.0 Z" ffdec:has-small-stroke="true" ffdec:original-stroke-width="0.3" fill="none" stroke="#841a0b" stroke-linecap="round" stroke-linejoin="round" stroke-width="1.0"/>
      <path d="M2.65 8.1 Q2.65 8.85 2.25 9.4 1.85 9.95 1.35 9.95 0.8 9.95 0.4 9.4 0.0 8.85 0.0 8.1 0.0 7.35 0.4 6.85 0.8 6.3 1.35 6.3 1.85 6.3 2.25 6.85 2.65 7.35 2.65 8.1" fill="#ffb60a" fill-rule="evenodd" stroke="none"/>
      <path d="M2.65 8.1 Q2.65 8.85 2.25 9.4 1.85 9.95 1.35 9.95 0.8 9.95 0.4 9.4 0.0 8.85 0.0 8.1 0.0 7.35 0.4 6.85 0.8 6.3 1.35 6.3 1.85 6.3 2.25 6.85 2.65 7.35 2.65 8.1 Z" ffdec:has-small-stroke="true" ffdec:original-stroke-width="0.3" fill="none" stroke="#841a0b" stroke-linecap="round" stroke-linejoin="round" stroke-width="1.0"/>
      <path d="M7.1 9.95 L1.15 9.95 1.15 6.3 7.1 6.3 7.15 7.35 7.15 9.15 7.1 9.95" fill="#ffb60a" fill-rule="evenodd" stroke="none"/>
      <path d="M7.1 9.95 L1.15 9.95 M1.15 6.3 L7.1 6.3" ffdec:has-small-stroke="true" ffdec:original-stroke-width="0.3" fill="none" stroke="#841a0b" stroke-linecap="round" stroke-linejoin="round" stroke-width="1.0"/>
      <path d="M7.1 6.3 L7.15 7.35 7.15 9.15 7.1 9.95" ffdec:has-small-stroke="true" ffdec:original-stroke-width="0.3" fill="none" stroke="#ff1f00" stroke-linecap="round" stroke-linejoin="round" stroke-width="1.0"/>
      <path d="M0.5 7.2 L6.75 7.2 6.75 8.1 0.2 8.1 Q0.15 7.45 0.5 7.2" fill="#e7ff00" fill-rule="evenodd" stroke="none"/>
      <path d="M0.1 8.3 L6.75 8.3 6.75 9.1 0.5 9.1 Q0.15 9.0 0.1 8.3" fill="#d23b0e" fill-rule="evenodd" stroke="none"/>
      <path d="M11.3 -0.1 Q12.85 0.1 12.8 1.6 L12.6 1.25 Q12.15 0.55 11.35 0.3 10.7 0.1 9.9 0.3 10.45 -0.15 11.3 -0.1" fill="#ffffff" fill-rule="evenodd" stroke="none"/>
      <path d="M11.3 11.5 Q12.85 11.7 12.8 13.2 L12.6 12.85 Q12.15 12.15 11.35 11.9 10.7 11.7 9.9 11.9 10.45 11.45 11.3 11.5" fill="#ffffff" fill-rule="evenodd" stroke="none"/>
    </g>
    <g id="shape4">
      <path d="M3.95 -65.6 L-0.2 -66.15 Q-5.9 -66.15 -10.0 -62.3 -13.95 -58.45 -14.0 -53.05 L-14.0 -52.9 -14.0 -49.8 -15.15 -49.8 -15.15 -52.85 Q-15.1 -58.75 -10.8 -62.85 -6.45 -67.1 -0.2 -67.1 L3.95 -66.55 3.95 -65.6" fill="#ffffff" fill-rule="evenodd" stroke="none"/>
      <path d="M11.95 -59.15 Q11.0 -60.85 9.5 -62.3 7.0 -64.65 3.95 -65.6 L3.95 -66.55 Q7.55 -65.6 10.35 -62.85 14.7 -58.75 14.7 -52.85 L14.7 -52.75 14.7 -52.55 14.7 -34.45 14.65 -34.4 13.8 -34.1 13.5 -34.0 13.5 -52.65 13.5 -52.9 13.5 -53.05 Q13.5 -56.4 11.95 -59.15 M-14.0 -49.8 L-14.0 -33.95 -15.05 -34.4 -15.15 -34.45 -15.15 -49.8 -14.0 -49.8" fill="#fbff00" fill-rule="evenodd" stroke="none"/>
      <path d="M-5.8 -63.9 L-9.3 -61.65 Q-13.15 -58.1 -13.2 -53.25 L-13.2 -53.05 -13.2 -33.95 -14.0 -33.95 -14.0 -49.8 -14.0 -52.9 -14.0 -53.05 Q-13.95 -58.45 -10.0 -62.3 -5.9 -66.15 -0.2 -66.15 L3.95 -65.6 Q7.0 -64.65 9.5 -62.3 11.0 -60.85 11.95 -59.15 L9.8 -61.65 Q7.6 -63.6 4.85 -64.45 2.7 -65.2 0.25 -65.2 L-1.65 -65.05 -2.05 -65.0 -5.3 -64.15 -5.8 -63.9" fill="#632500" fill-rule="evenodd" stroke="none"/>
      <path d="M-13.2 -33.95 L-13.2 -53.05 -13.2 -53.25 Q-13.15 -58.1 -9.3 -61.65 L-5.8 -63.9 Q-7.6 -63.05 -9.15 -61.6 -12.7 -58.05 -12.75 -53.25 L-12.75 -53.05 -12.75 -34.0 -13.2 -33.95 M-1.65 -65.05 L0.25 -65.2 Q2.7 -65.2 4.85 -64.45 7.6 -63.6 9.8 -61.65 L11.95 -59.15 Q13.5 -56.4 13.5 -53.05 L13.5 -52.9 13.5 -52.65 13.5 -34.0 12.35 -33.95 12.3 -52.75 12.3 -53.05 Q12.3 -58.0 8.6 -61.6 6.55 -63.55 4.05 -64.4 2.05 -65.15 -0.25 -65.15 L-1.65 -65.05" fill="#ff5f00" fill-rule="evenodd" stroke="none"/>
      <path d="M-15.15 -49.8 L-15.15 -52.85 Q-15.1 -58.75 -10.8 -62.85 -6.45 -67.1 -0.2 -67.1 L3.95 -66.55" ffdec:has-small-stroke="true" ffdec:original-stroke-width="0.3" fill="none" stroke="#ff6600" stroke-linecap="round" stroke-linejoin="round" stroke-width="1.0"/>
      <path d="M-5.8 -63.9 L-5.3 -64.15 -2.05 -65.0 -1.65 -65.05 -0.25 -65.15 Q2.05 -65.15 4.05 -64.4 6.55 -63.55 8.6 -61.6 12.3 -58.0 12.3 -53.05 L12.3 -52.75 12.35 -33.95 13.5 -34.0 M-14.0 -33.95 L-13.2 -33.95 -12.75 -34.0 -12.75 -53.05 -12.75 -53.25 Q-12.7 -58.05 -9.15 -61.6 -7.6 -63.05 -5.8 -63.9 M3.95 -66.55 Q7.55 -65.6 10.35 -62.85 14.7 -58.75 14.7 -52.85 L14.7 -52.75 14.7 -52.55 M-15.15 -49.8 L-15.15 -34.45 -15.05 -34.4 -14.0 -33.95" ffdec:has-small-stroke="true" ffdec:original-stroke-width="0.3" fill="none" stroke="#d92200" stroke-linecap="round" stroke-linejoin="round" stroke-width="1.0"/>
      <path d="M14.7 -52.55 L14.7 -34.45 14.65 -34.4 13.8 -34.1 13.5 -34.0" ffdec:has-small-stroke="true" ffdec:original-stroke-width="0.3" fill="none" stroke="#7a1300" stroke-linecap="round" stroke-linejoin="round" stroke-width="1.0"/>
    </g>
    <g id="sprite3">
      <use ffdec:characterId="18" height="7.35" transform="matrix(1.0, 0.0, 0.0, 1.0, 0.0, 0.0)" width="18.6" xlink:href="#shape5"/>
      <use ffdec:characterId="20" height="10.0" transform="matrix(1.6095, 0.0, 0.0, 1.6095, 5.8, 7.5)" width="4.6" xlink:href="#sprite4"/>
      <use ffdec:characterId="22" height="20.95" transform="matrix(0.9583, 0.0, 0.0, 0.8464, 0.0, 0.0)" width="19.5" xlink:href="#sprite5"/>
    </g>
    <g id="shape5">
      <path d="M0.2 17.35 Q0.85 18.4 2.75 19.1 5.4 20.15 9.2 20.15 13.0 20.15 15.65 19.1 17.55 18.4 18.25 17.35 L18.35 17.95 Q18.35 19.35 15.65 20.4 13.0 21.45 9.2 21.45 5.4 21.45 2.75 20.4 0.05 19.35 0.05 17.95 0.05 17.6 0.2 17.35" fill="#ec540b" fill-rule="evenodd" stroke="none"/>
      <path d="M18.25 17.35 Q17.55 18.4 15.65 19.1 13.0 20.15 9.2 20.15 5.4 20.15 2.75 19.1 0.85 18.4 0.2 17.35 0.6 16.3 2.75 15.45 5.4 14.4 9.2 14.4 13.0 14.4 15.65 15.45 17.8 16.3 18.25 17.35" fill="#e04520" fill-rule="evenodd" stroke="none"/>
      <path d="M0.2 17.35 Q0.6 16.3 2.75 15.45 5.4 14.4 9.2 14.4 13.0 14.4 15.65 15.45 17.8 16.3 18.25 17.35 L18.35 17.95 Q18.35 19.35 15.65 20.4 13.0 21.45 9.2 21.45 5.4 21.45 2.75 20.4 0.05 19.35 0.05 17.95 0.05 17.6 0.2 17.35 Z" ffdec:has-small-stroke="true" ffdec:original-stroke-width="0.3" fill="none" stroke="#8e0000" stroke-linecap="round" stroke-linejoin="round" stroke-width="1.0"/>
    </g>
    <g id="sprite4">
      <use ffdec:characterId="19" height="10.0" transform="matrix(1.0, 0.0, 0.0, 1.0, 0.0, 0.0)" width="4.6" xlink:href="#shape6"/>
    </g>
    <g id="shape6">
      <path d="M4.3 7.7 Q4.3 8.65 3.65 9.25 3.05 9.85 2.15 9.85 1.25 9.85 0.6 9.25 0.0 8.65 0.0 7.7 0.0 6.8 0.6 6.15 1.25 5.6 2.15 5.6 3.05 5.6 3.65 6.15 4.3 6.8 4.3 7.7" fill="#ffe408" fill-rule="evenodd" stroke="none"/>
      <path d="M4.3 7.7 Q4.3 8.65 3.65 9.25 3.05 9.85 2.15 9.85 1.25 9.85 0.6 9.25 0.0 8.65 0.0 7.7 0.0 6.8 0.6 6.15 1.25 5.6 2.15 5.6 3.05 5.6 3.65 6.15 4.3 6.8 4.3 7.7 Z" ffdec:has-small-stroke="true" ffdec:original-stroke-width="0.3" fill="none" stroke="#ff3800" stroke-linecap="round" stroke-linejoin="round" stroke-width="0.6213120970800152"/>
      <path d="M3.15 8.5 Q3.15 8.9 2.75 9.2 L1.85 9.5 0.9 9.2 Q0.5 8.9 0.5 8.5 0.5 8.05 0.9 7.75 1.3 7.5 1.85 7.5 L2.75 7.75 Q3.15 8.05 3.15 8.5" fill="#ffffff" fill-rule="evenodd" stroke="none"/>
      <path d="M2.8 6.8 Q3.65 7.15 3.85 7.85 4.05 8.6 3.6 9.1 L2.6 9.6 1.65 9.65 1.0 9.35 2.0 9.15 Q2.55 8.9 2.85 8.25 L2.8 6.8" fill="#660101" fill-rule="evenodd" stroke="none"/>
      <path d="M1.65 0.0 L2.6 0.0 2.6 6.1 1.65 6.1 1.65 0.0" fill="#ffe408" fill-rule="evenodd" stroke="none"/>
    </g>
    <g id="sprite5">
      <use ffdec:characterId="21" height="20.95" transform="matrix(1.0, 0.0, 0.0, 1.0, 0.0, 0.0)" width="19.5" xlink:href="#shape7"/>
    </g>
    <g id="shape7">
      <path d="M16.65 7.05 Q16.65 9.95 14.55 12.0 12.5 14.1 9.6 14.1 6.7 14.1 4.6 12.0 2.55 9.95 2.55 7.05 2.55 4.15 4.6 2.05 6.7 0.0 9.6 0.0 12.5 0.0 14.55 2.05 16.65 4.15 16.65 7.05" fill="#ffe409" fill-rule="evenodd" stroke="none"/>
      <path d="M16.65 7.05 Q16.65 9.95 14.55 12.0 12.5 14.1 9.6 14.1 6.7 14.1 4.6 12.0 2.55 9.95 2.55 7.05 2.55 4.15 4.6 2.05 6.7 0.0 9.6 0.0 12.5 0.0 14.55 2.05 16.65 4.15 16.65 7.05 Z" ffdec:has-small-stroke="true" ffdec:original-stroke-width="0.3" fill="none" stroke="#d12e00" stroke-linecap="round" stroke-linejoin="round" stroke-width="1.1103631102423455"/>
      <path d="M2.55 7.25 L16.6 7.25 Q16.95 14.45 19.2 17.8 L16.0 17.8 Q13.3 17.1 9.6 17.1 5.9 17.1 3.25 17.8 L0.0 17.8 Q2.25 14.8 2.55 7.25" fill="#ffe409" fill-rule="evenodd" stroke="none"/>
      <path d="M16.6 7.25 Q16.95 14.45 19.2 17.8 M0.0 17.8 Q2.25 14.8 2.55 7.25" ffdec:has-small-stroke="true" ffdec:original-stroke-width="0.3" fill="none" stroke="#d12e00" stroke-linecap="round" stroke-linejoin="round" stroke-width="1.1103631102423455"/>
      <path d="M3.05 15.85 L3.05 18.85 2.85 18.9 2.65 18.95 Q1.5 19.3 0.85 19.7 L0.85 16.8 Q1.55 16.3 3.0 15.85 L3.05 15.85 M13.85 18.4 L13.85 15.35 16.2 15.85 17.65 16.4 17.85 16.5 17.85 19.45 17.65 19.35 16.55 18.95 16.35 18.9 13.85 18.4" fill="#ffffff" fill-rule="evenodd" stroke="none"/>
      <path d="M7.2 18.2 L7.2 15.15 9.6 15.05 13.85 15.35 13.85 18.4 9.6 18.1 7.2 18.2" fill="#ff8709" fill-rule="evenodd" stroke="none"/>
      <path d="M7.2 15.15 L7.2 18.2 3.05 18.85 3.05 15.85 7.2 15.15" fill="#660101" fill-rule="evenodd" stroke="none"/>
      <path d="M0.85 19.7 Q0.35 20.0 0.2 20.35 L0.05 20.8 0.05 18.0 0.85 16.8 0.85 19.7 M17.85 16.5 Q18.6 16.85 19.15 18.0 L19.15 20.8 19.05 20.35 17.85 19.45 17.85 16.5" fill="#ffe409" fill-rule="evenodd" stroke="none"/>
      <path d="M9.3 0.7 Q7.85 2.25 7.65 3.35 7.2 5.75 7.5 8.1 L7.5 9.15 7.2 11.3 Q6.25 15.15 2.45 15.9 3.6 14.1 4.3 11.85 4.55 9.95 4.35 7.75 4.15 5.5 5.1 3.6 6.0 1.65 9.3 0.7" fill="#ffffff" fill-rule="evenodd" stroke="none"/>
      <path d="M12.55 1.2 Q14.05 2.05 14.35 4.2 L14.7 8.4 Q14.75 10.45 15.15 12.6 15.6 14.8 17.1 16.2 15.3 15.5 12.9 15.25 L8.65 15.15 Q7.55 13.55 7.75 11.45 L7.75 9.2 Q7.65 6.75 7.9 4.3 8.1 2.5 8.4 1.65 8.65 0.75 9.9 0.55 11.05 0.3 12.55 1.2" fill="#ffb109" fill-rule="evenodd" stroke="none"/>
      <path d="M12.8 8.95 Q12.8 12.25 12.05 14.6 L11.95 14.95 8.5 14.95 8.35 14.6 Q7.6 12.25 7.6 8.95 7.6 5.65 8.35 3.3 9.1 0.95 10.2 0.95 11.3 0.95 12.05 3.3 12.8 5.65 12.8 8.95" fill="#ff9109" fill-rule="evenodd" stroke="none"/>
      <path d="M7.25 6.4 Q7.3 10.9 6.35 12.65 5.35 14.35 3.2 15.85 5.85 15.05 8.5 15.1 L7.95 9.65 Q7.6 6.0 8.35 3.6 9.2 1.15 9.6 0.6 6.5 1.45 7.25 6.4" fill="#660101" fill-rule="evenodd" stroke="none"/>
      <path d="M19.15 18.6 L19.15 20.1 M0.05 20.1 L0.05 18.6" ffdec:has-small-stroke="true" ffdec:original-stroke-width="0.3" fill="none" stroke="#d12e00" stroke-linecap="round" stroke-linejoin="round" stroke-width="1.1103631102423455"/>
      <path d="M0.05 18.3 Q0.05 17.0 2.85 16.05 5.6 15.1 9.6 15.1 13.55 15.1 16.35 16.05 19.15 17.0 19.15 18.3" ffdec:has-small-stroke="true" ffdec:original-stroke-width="0.3" fill="none" stroke="#fff700" stroke-linecap="round" stroke-linejoin="round" stroke-width="1.1103631102423455"/>
      <path d="M0.2 20.35 Q0.65 19.55 2.85 18.9 5.65 18.1 9.6 18.1 13.55 18.1 16.35 18.9 18.6 19.55 19.05 20.35" ffdec:has-small-stroke="true" ffdec:original-stroke-width="0.3" fill="none" stroke="#8e0000" stroke-linecap="round" stroke-linejoin="round" stroke-width="1.1103631102423455"/>
    </g>
    <g id="sprite6">
      <use ffdec:characterId="34" height="36.95" transform="matrix(1.0, 0.0, 0.0, 1.0, 0.0, 0.0)" width="17.5" xlink:href="#shape8"/>
    </g>
    <g id="shape8">
      <path d="M2.4 2.3 Q2.4 2.8 1.15 4.5 0.45 4.5 0.6 3.15 0.6 1.35 1.5 1.1 2.4 0.85 2.4 2.3" fill="#6c0e0e" fill-rule="evenodd" stroke="none"/>
      <path d="M9.45 25.55 Q7.3 24.2 4.8 23.6 L1.7 23.5 1.0 21.1 0.7 20.15 Q0.55 19.5 0.55 17.85 L0.6 17.35 0.5 16.5 0.3 15.7 0.15 13.2 0.25 11.75 0.05 7.8 0.15 6.65 0.25 5.05 0.95 2.4 0.75 1.65 Q0.75 1.15 0.9 0.75 1.2 0.0 1.95 0.0 2.6 0.0 5.8 3.6 L8.5 7.2 10.1 10.0 Q11.55 11.7 13.0 14.55 12.9 14.65 12.95 14.8 L12.9 14.9 12.2 14.0 9.4 10.7 Q7.9 8.9 5.65 8.6 4.2 8.65 2.65 7.9 1.1 7.1 1.15 10.2 1.15 13.3 1.45 16.0 L1.75 21.35 Q1.7 23.95 2.25 23.35 L6.2 23.45 Q9.65 24.15 12.0 25.35 L14.95 27.3 Q15.55 28.1 15.8 29.1 L16.25 31.05 Q15.85 32.8 14.9 34.2 L15.3 31.9 Q15.3 30.35 14.85 29.2 L14.1 27.7 Q13.4 26.55 11.15 25.6 L9.45 25.55 M11.9 30.2 L11.1 28.5 11.8 29.95 11.9 30.2" fill="#6c0e0e" fill-rule="evenodd" stroke="none"/>
      <path d="M14.9 34.2 Q14.35 36.1 13.6 36.1 13.2 36.1 12.9 34.55 L12.45 32.1 11.9 30.2 11.8 29.95 11.1 28.5 10.75 27.7 10.05 26.0 10.0 25.9 9.45 25.55 11.15 25.6 Q13.4 26.55 14.1 27.7 L14.85 29.2 Q15.3 30.35 15.3 31.9 L14.9 34.2" fill="#d2117f" fill-rule="evenodd" stroke="none"/>
      <path d="M12.2 14.0 L14.1 16.8 Q13.6 17.0 14.8 18.4 L15.35 21.25 15.5 21.65 16.05 23.95 Q17.55 26.35 16.9 29.15 17.2 30.3 16.5 31.0 L16.25 31.05 15.8 29.1 Q15.55 28.1 14.95 27.3 L12.0 25.35 Q9.65 24.15 6.2 23.45 L2.25 23.35 Q1.7 23.95 1.75 21.35 L1.45 16.0 Q1.15 13.3 1.15 10.2 1.1 7.1 2.65 7.9 4.2 8.65 5.65 8.6 7.9 8.9 9.4 10.7 L12.2 14.0" fill="#d71324" fill-rule="evenodd" stroke="none"/>
      <path d="M0.9 0.6 Q-1.2 11.15 1.6 23.45" ffdec:has-small-stroke="true" ffdec:original-stroke-width="0.7" fill="none" stroke="#490016" stroke-linecap="round" stroke-linejoin="round" stroke-width="2.1836807699973133"/>
      <path d="M6.5 4.05 Q22.8 27.45 13.3 36.4" ffdec:has-small-stroke="true" ffdec:original-stroke-width="0.7" fill="none" stroke="#490016" stroke-linecap="round" stroke-linejoin="round" stroke-width="2.1836807699973133"/>
      <path d="M1.7 23.55 Q20.65 24.95 13.3 36.6" ffdec:has-small-stroke="true" ffdec:original-stroke-width="0.7" fill="none" stroke="#490016" stroke-linecap="round" stroke-linejoin="round" stroke-width="2.1836807699973133"/>
      <path d="M9.3 25.0 Q13.35 33.05 13.15 36.3" ffdec:has-small-stroke="true" ffdec:original-stroke-width="0.7" fill="none" stroke="#490016" stroke-linecap="round" stroke-linejoin="round" stroke-width="2.1836807699973133"/>
    </g>
    <g id="sprite7">
      <use ffdec:characterId="34" height="36.95" transform="matrix(1.0, 0.0, 0.0, 1.0, 0.0, 0.0)" width="17.5" xlink:href="#shape9"/>
    </g>
    <g id="shape9">
      <path d="M2.4 2.3 Q2.4 2.8 1.15 4.5 0.45 4.5 0.6 3.15 0.6 1.35 1.5 1.1 2.4 0.85 2.4 2.3" fill="#6c0e0e" fill-rule="evenodd" stroke="none"/>
      <path d="M9.45 25.55 Q7.3 24.2 4.8 23.6 L1.7 23.5 1.0 21.1 0.7 20.15 Q0.55 19.5 0.55 17.85 L0.6 17.35 0.5 16.5 0.3 15.7 0.15 13.2 0.25 11.75 0.05 7.8 0.15 6.65 0.25 5.05 0.95 2.4 0.75 1.65 Q0.75 1.15 0.9 0.75 1.2 0.0 1.95 0.0 2.6 0.0 5.8 3.6 L8.5 7.2 10.1 10.0 Q11.55 11.7 13.0 14.55 12.9 14.65 12.95 14.8 L12.9 14.9 12.2 14.0 9.4 10.7 Q7.9 8.9 5.65 8.6 4.2 8.65 2.65 7.9 1.1 7.1 1.15 10.2 1.15 13.3 1.45 16.0 L1.75 21.35 Q1.7 23.95 2.25 23.35 L6.2 23.45 Q9.65 24.15 12.0 25.35 L14.95 27.3 Q15.55 28.1 15.8 29.1 L16.25 31.05 Q15.85 32.8 14.9 34.2 L15.3 31.9 Q15.3 30.35 14.85 29.2 L14.1 27.7 Q13.4 26.55 11.15 25.6 L9.45 25.55 M11.9 30.2 L11.1 28.5 11.8 29.95 11.9 30.2" fill="#6c0e0e" fill-rule="evenodd" stroke="none"/>
      <path d="M14.9 34.2 Q14.35 36.1 13.6 36.1 13.2 36.1 12.9 34.55 L12.45 32.1 11.9 30.2 11.8 29.95 11.1 28.5 10.75 27.7 10.05 26.0 10.0 25.9 9.45 25.55 11.15 25.6 Q13.4 26.55 14.1 27.7 L14.85 29.2 Q15.3 30.35 15.3 31.9 L14.9 34.2" fill="#d2117f" fill-rule="evenodd" stroke="none"/>
      <path d="M12.2 14.0 L14.1 16.8 Q13.6 17.0 14.8 18.4 L15.35 21.25 15.5 21.65 16.05 23.95 Q17.55 26.35 16.9 29.15 17.2 30.3 16.5 31.0 L16.25 31.05 15.8 29.1 Q15.55 28.1 14.95 27.3 L12.0 25.35 Q9.65 24.15 6.2 23.45 L2.25 23.35 Q1.7 23.95 1.75 21.35 L1.45 16.0 Q1.15 13.3 1.15 10.2 1.1 7.1 2.65 7.9 4.2 8.65 5.65 8.6 7.9 8.9 9.4 10.7 L12.2 14.0" fill="#d71324" fill-rule="evenodd" stroke="none"/>
      <path d="M0.9 0.6 Q-1.2 11.15 1.6 23.45" ffdec:has-small-stroke="true" ffdec:original-stroke-width="0.7" fill="none" stroke="#490016" stroke-linecap="round" stroke-linejoin="round" stroke-width="1.9775407605207922"/>
      <path d="M6.5 4.05 Q22.8 27.45 13.3 36.4" ffdec:has-small-stroke="true" ffdec:original-stroke-width="0.7" fill="none" stroke="#490016" stroke-linecap="round" stroke-linejoin="round" stroke-width="1.9775407605207922"/>
      <path d="M1.7 23.55 Q20.65 24.95 13.3 36.6" ffdec:has-small-stroke="true" ffdec:original-stroke-width="0.7" fill="none" stroke="#490016" stroke-linecap="round" stroke-linejoin="round" stroke-width="1.9775407605207922"/>
      <path d="M9.3 25.0 Q13.35 33.05 13.15 36.3" ffdec:has-small-stroke="true" ffdec:original-stroke-width="0.7" fill="none" stroke="#490016" stroke-linecap="round" stroke-linejoin="round" stroke-width="1.9775407605207922"/>
    </g>
    <g id="sprite8">
      <use ffdec:characterId="36" height="17.35" transform="matrix(1.0, 0.0, 0.0, 1.0, 0.0, 0.0)" width="19.05" xlink:href="#shape10"/>
    </g>
    <g id="shape10">
      <path d="M2.05 14.95 Q1.35 14.15 1.0 12.4 0.65 10.65 0.75 8.6 L0.95 5.8 1.15 4.2 Q1.25 3.2 1.8 2.45 2.35 1.65 4.3 1.0 6.2 0.25 9.2 0.25 L10.65 0.45 14.3 1.75 15.55 2.7 Q16.0 2.75 18.05 5.15 18.5 5.2 18.85 7.45 L19.15 9.5 17.3 11.6 14.65 11.95 Q14.0 11.65 13.7 10.85 13.35 10.0 13.4 10.9 13.45 11.85 12.25 12.45 L6.1 14.9 Q6.6 13.5 6.45 12.15 6.3 10.8 5.6 9.05 4.85 7.3 3.0 4.8 L2.15 4.4 Q3.1 5.75 4.25 8.6 5.45 11.4 5.05 13.25 L4.45 15.4 Q4.2 15.65 3.7 14.95 L2.8 13.1 1.4 6.8 Q1.2 11.7 1.75 13.9 L2.05 14.95" fill="#cd0f1f" fill-rule="evenodd" stroke="none"/>
      <path d="M19.15 9.5 L19.15 10.0 18.5 11.75 17.05 12.6 Q15.75 13.3 14.0 13.0 13.7 12.6 13.3 12.9 L13.4 12.8 12.65 13.25 11.3 13.95 Q10.15 14.2 8.3 15.6 6.0 17.25 4.7 17.25 L4.25 17.3 3.95 17.25 3.25 16.25 2.05 14.95 1.75 13.9 Q1.2 11.7 1.4 6.8 L2.8 13.1 3.7 14.95 Q4.2 15.65 4.45 15.4 L5.05 13.25 Q5.45 11.4 4.25 8.6 3.1 5.75 2.15 4.4 L3.0 4.8 Q4.85 7.3 5.6 9.05 6.3 10.8 6.45 12.15 6.6 13.5 6.1 14.9 L12.25 12.45 Q13.45 11.85 13.4 10.9 13.35 10.0 13.7 10.85 14.0 11.65 14.65 11.95 L17.3 11.6 19.15 9.5" fill="#f71e57" fill-rule="evenodd" stroke="none"/>
      <path d="M16.05 2.35 Q19.25 4.9 19.6 7.75 19.9 10.55 19.05 11.95 18.2 13.35 14.95 13.4 11.65 13.4 9.2 15.4 6.75 17.35 4.85 17.55 2.95 17.7 1.95 16.55 0.95 15.4 0.75 13.95 0.55 12.5 0.8 8.25 1.05 3.95 1.2 4.6 L1.5 8.4 1.75 12.95 Q1.9 14.25 2.65 15.45 3.4 16.65 4.9 16.4 6.35 16.1 9.45 14.25 12.55 12.4 15.05 12.7 17.55 12.95 18.1 10.3 18.6 7.55 16.2 4.25 13.8 0.9 6.95 0.25 12.8 -0.2 16.05 2.35" fill="#5c001f" fill-rule="evenodd" stroke="none"/>
      <path d="M4.3 15.3 Q3.55 15.7 3.0 14.05 2.45 12.45 2.25 10.25 L2.0 6.55 Q2.0 4.9 2.2 4.55 2.4 4.1 3.5 6.15 4.65 8.05 5.1 10.05 5.5 11.9 5.3 13.4 5.0 14.9 4.3 15.3" fill="#610011" fill-rule="evenodd" stroke="none"/>
      <path d="M4.35 12.65 Q4.2 13.95 3.55 13.75 2.75 13.6 2.45 11.85 2.1 10.1 2.1 8.4 2.05 6.7 2.3 6.3 2.55 5.9 3.05 6.75 L3.8 8.35 4.25 10.25 4.35 12.65" fill="#930027" fill-rule="evenodd" stroke="none"/>
      <path d="M9.45 3.1 Q8.55 3.0 9.1 3.95 L9.55 5.05 8.8 9.05 Q9.0 4.25 2.75 1.6 9.4 -0.5 13.05 5.15 12.05 4.2 11.15 3.7 L9.45 3.1" fill="#870023" fill-rule="evenodd" stroke="none"/>
      <path d="M18.15 9.1 Q17.65 10.8 17.5 10.05 L17.15 8.85 16.25 7.65 Q15.4 7.15 15.5 10.05 13.95 9.25 11.3 11.25 10.25 11.85 9.05 12.1 L7.95 11.75 6.7 13.55 Q7.1 10.0 5.15 7.0 7.15 9.6 8.35 9.6 L12.0 8.65 Q12.95 8.25 13.3 7.75 14.75 8.75 14.85 7.95 L14.85 6.25 Q16.2 6.4 16.9 7.55 16.8 6.15 15.8 5.3 17.8 6.7 18.15 9.1" fill="#ff7a7a" fill-rule="evenodd" stroke="none"/>
    </g>
    <g id="sprite9">
      <use ffdec:characterId="38" height="2.6" transform="matrix(1.0, 0.0, 0.0, 1.0, 0.0, 0.0)" width="2.6" xlink:href="#shape11"/>
    </g>
    <g id="shape11">
      <path d="M2.4 1.2 L2.05 2.05 Q1.7 2.4 1.2 2.4 0.7 2.4 0.35 2.05 0.0 1.7 0.0 1.2 0.0 0.7 0.35 0.35 0.7 0.0 1.2 0.0 1.7 0.0 2.05 0.35 2.4 0.7 2.4 1.2" fill="#50c300" fill-rule="evenodd" stroke="none"/>
      <path d="M2.4 1.2 L2.05 2.05 Q1.7 2.4 1.2 2.4 0.7 2.4 0.35 2.05 0.0 1.7 0.0 1.2 0.0 0.7 0.35 0.35 0.7 0.0 1.2 0.0 1.7 0.0 2.05 0.35 2.4 0.7 2.4 1.2 Z" ffdec:has-small-stroke="true" ffdec:original-stroke-width="0.2" fill="none" stroke="#0d7e00" stroke-linecap="round" stroke-linejoin="round" stroke-width="0.532103536747751"/>
      <path d="M1.95 0.8 L1.8 1.2 1.4 1.35 1.0 1.2 0.85 0.8 1.0 0.4 1.4 0.25 1.8 0.4 1.95 0.8" fill="#b5ff82" fill-rule="evenodd" stroke="none"/>
    </g>
    <g id="sprite10">
      <use ffdec:characterId="38" height="2.6" transform="matrix(1.0, 0.0, 0.0, 1.0, 0.0, 0.0)" width="2.6" xlink:href="#shape12"/>
    </g>
    <g id="shape12">
      <path d="M2.4 1.2 L2.05 2.05 Q1.7 2.4 1.2 2.4 0.7 2.4 0.35 2.05 0.0 1.7 0.0 1.2 0.0 0.7 0.35 0.35 0.7 0.0 1.2 0.0 1.7 0.0 2.05 0.35 2.4 0.7 2.4 1.2" fill="#50c300" fill-rule="evenodd" stroke="none"/>
      <path d="M2.4 1.2 L2.05 2.05 Q1.7 2.4 1.2 2.4 0.7 2.4 0.35 2.05 0.0 1.7 0.0 1.2 0.0 0.7 0.35 0.35 0.7 0.0 1.2 0.0 1.7 0.0 2.05 0.35 2.4 0.7 2.4 1.2 Z" ffdec:has-small-stroke="true" ffdec:original-stroke-width="0.2" fill="none" stroke="#0d7e00" stroke-linecap="round" stroke-linejoin="round" stroke-width="0.532103536747751"/>
      <path d="M1.95 0.8 L1.8 1.2 1.4 1.35 1.0 1.2 0.85 0.8 1.0 0.4 1.4 0.25 1.8 0.4 1.95 0.8" fill="#b5ff82" fill-rule="evenodd" stroke="none"/>
    </g>
    <g id="sprite11">
      <use ffdec:characterId="38" height="2.6" transform="matrix(1.0, 0.0, 0.0, 1.0, 0.0, 0.0)" width="2.6" xlink:href="#shape13"/>
    </g>
    <g id="shape13">
      <path d="M2.4 1.2 L2.05 2.05 Q1.7 2.4 1.2 2.4 0.7 2.4 0.35 2.05 0.0 1.7 0.0 1.2 0.0 0.7 0.35 0.35 0.7 0.0 1.2 0.0 1.7 0.0 2.05 0.35 2.4 0.7 2.4 1.2" fill="#50c300" fill-rule="evenodd" stroke="none"/>
      <path d="M2.4 1.2 L2.05 2.05 Q1.7 2.4 1.2 2.4 0.7 2.4 0.35 2.05 0.0 1.7 0.0 1.2 0.0 0.7 0.35 0.35 0.7 0.0 1.2 0.0 1.7 0.0 2.05 0.35 2.4 0.7 2.4 1.2 Z" ffdec:has-small-stroke="true" ffdec:original-stroke-width="0.2" fill="none" stroke="#0d7e00" stroke-linecap="round" stroke-linejoin="round" stroke-width="0.532103536747751"/>
      <path d="M1.95 0.8 L1.8 1.2 1.4 1.35 1.0 1.2 0.85 0.8 1.0 0.4 1.4 0.25 1.8 0.4 1.95 0.8" fill="#b5ff82" fill-rule="evenodd" stroke="none"/>
    </g>
    <g id="sprite12">
      <use ffdec:characterId="40" height="3.5" transform="matrix(1.0, 0.0, 0.0, 1.0, 0.0, 1.9)" width="12.75" xlink:href="#shape14"/>
    </g>
    <g id="shape14">
      <path d="M14.1 2.0 Q14.1 2.7 12.25 3.2 L7.75 3.75 3.25 3.2 Q1.35 2.7 1.35 2.0 1.35 1.25 3.25 0.75 L7.75 0.25 12.25 0.75 Q14.1 1.25 14.1 2.0" fill="#000000" fill-opacity="0.14901961" fill-rule="evenodd" stroke="none"/>
    </g>
  </defs>
</svg>
