<?xml version="1.0" encoding="UTF-8" standalone="no"?>
<svg xmlns:ffdec="https://www.free-decompiler.com/flash" xmlns:xlink="http://www.w3.org/1999/xlink" ffdec:objectType="frame" height="57.25px" width="47.75px" xmlns="http://www.w3.org/2000/svg">
  <g transform="matrix(1.0, 0.0, 0.0, 1.0, 23.85, 42.1)">
    <use ffdec:characterId="2" height="29.45" transform="matrix(1.0, 0.0, 0.0, 1.0, -20.25, -41.6)" width="12.95" xlink:href="#sprite0"/>
    <use ffdec:characterId="2" height="29.45" transform="matrix(-1.0, 0.0, 0.0, 1.0, 20.3, -41.6)" width="12.95" xlink:href="#sprite1"/>
    <use ffdec:characterId="16" height="37.3" transform="matrix(1.0, 0.0, 0.0, 1.0, -23.6, -21.9)" width="47.75" xlink:href="#sprite2"/>
    <use ffdec:characterId="6" height="19.45" transform="matrix(1.0, 0.0, 0.0, 1.0, -21.7, -14.05)" width="19.45" xlink:href="#sprite3"/>
    <use ffdec:characterId="6" height="19.45" transform="matrix(-1.0, 0.0, 0.0, 1.0, 21.8, -14.05)" width="19.45" xlink:href="#sprite4"/>
    <use ffdec:characterId="18" height="9.1" transform="matrix(1.0, 0.0, 0.0, 1.0, -16.65, 4.55)" width="33.4" xlink:href="#sprite5"/>
    <use ffdec:characterId="20" height="6.15" transform="matrix(1.0, 0.0, 0.0, 1.0, -3.75, -0.35)" width="8.1" xlink:href="#sprite6"/>
  </g>
  <defs>
    <g id="sprite0">
      <use ffdec:characterId="1" height="29.45" transform="matrix(1.0, 0.0, 0.0, 1.0, 0.0, 0.0)" width="12.95" xlink:href="#shape0"/>
    </g>
    <g id="shape0">
      <path d="M7.95 0.25 Q10.3 -1.1 11.2 1.1 11.6 2.0 11.35 3.0 10.5 7.4 10.15 11.85 9.8 16.1 10.65 20.15 11.25 22.8 12.85 24.8 13.8 25.95 13.2 27.15 L12.35 28.15 Q10.65 29.05 9.0 28.45 6.5 27.55 4.95 25.25 2.7 21.85 1.45 18.0 0.75 15.9 1.1 15.1 1.55 14.1 2.7 14.55 3.75 14.9 4.65 18.65 L4.85 19.45 Q5.5 21.3 6.1 21.85 7.2 22.15 6.45 19.9 5.6 17.6 5.05 13.45 4.6 9.35 5.45 5.75 6.35 2.1 7.15 1.15 L7.95 0.25" fill="#ba9c6a" fill-rule="evenodd" stroke="none"/>
      <path d="M7.95 0.25 Q10.3 -1.1 11.2 1.1 11.6 2.0 11.35 3.0 10.5 7.4 10.15 11.85 9.8 16.1 10.65 20.15 11.25 22.8 12.85 24.8 13.8 25.95 13.2 27.15 L12.35 28.15 Q10.65 29.05 9.0 28.45 6.5 27.55 4.95 25.25 2.7 21.85 1.45 18.0 0.75 15.9 1.1 15.1 1.55 14.1 2.7 14.55 3.75 14.9 4.65 18.65 L4.85 19.45 Q5.5 21.3 6.1 21.85 7.2 22.15 6.45 19.9 5.6 17.6 5.05 13.45 4.6 9.35 5.45 5.75 6.35 2.1 7.15 1.15 L7.95 0.25 Z" ffdec:has-small-stroke="true" ffdec:original-stroke-width="0.5" fill="none" stroke="#3a1302" stroke-linecap="round" stroke-linejoin="round" stroke-width="1.0"/>
      <path d="M8.85 8.05 L8.2 11.1 7.95 13.25 Q7.75 14.6 8.35 19.0 6.7 12.6 6.5 8.45 6.35 4.3 7.2 2.2 8.1 0.05 9.5 0.05 10.9 0.0 11.25 2.15 9.4 5.7 8.85 8.05" fill="#e7cb74" fill-rule="evenodd" stroke="none"/>
      <path d="M9.1 0.05 Q10.35 0.25 9.5 1.45 8.35 3.2 7.65 5.55 7.25 7.0 7.15 8.35 7.0 10.75 7.25 13.15 7.45 15.4 8.05 17.9 8.65 20.4 10.35 24.25 12.05 28.1 10.4 28.55 8.75 28.95 6.45 26.65 4.1 24.3 2.9 21.35 1.65 18.4 1.3 17.0 0.95 15.55 1.3 15.25 L2.4 15.35 Q2.85 15.75 3.15 17.1 L4.55 20.85 Q5.6 23.3 6.55 23.1 7.5 22.85 7.05 21.7 L6.2 18.65 Q5.75 16.75 5.45 14.55 5.1 12.35 5.15 10.2 5.15 8.05 5.5 6.1 5.8 4.15 6.85 2.15 7.85 0.1 9.1 0.05" fill="#8a5931" fill-rule="evenodd" stroke="none"/>
      <path d="M4.0 17.15 L4.2 20.05 3.1 17.15 2.2 15.85 Q1.6 15.3 1.2 15.4 L1.65 14.8 2.9 14.75 Q3.65 15.25 4.0 17.15" fill="#e7cb74" fill-rule="evenodd" stroke="none"/>
    </g>
    <g id="sprite1">
      <use ffdec:characterId="1" height="29.45" transform="matrix(1.0, 0.0, 0.0, 1.0, 0.0, 0.0)" width="12.95" xlink:href="#shape1"/>
    </g>
    <g id="shape1">
      <path d="M7.95 0.25 Q10.3 -1.1 11.2 1.1 11.6 2.0 11.35 3.0 10.5 7.4 10.15 11.85 9.8 16.1 10.65 20.15 11.25 22.8 12.85 24.8 13.8 25.95 13.2 27.15 L12.35 28.15 Q10.65 29.05 9.0 28.45 6.5 27.55 4.95 25.25 2.7 21.85 1.45 18.0 0.75 15.9 1.1 15.1 1.55 14.1 2.7 14.55 3.75 14.9 4.65 18.65 L4.85 19.45 Q5.5 21.3 6.1 21.85 7.2 22.15 6.45 19.9 5.6 17.6 5.05 13.45 4.6 9.35 5.45 5.75 6.35 2.1 7.15 1.15 L7.95 0.25" fill="#ba9c6a" fill-rule="evenodd" stroke="none"/>
      <path d="M7.95 0.25 Q10.3 -1.1 11.2 1.1 11.6 2.0 11.35 3.0 10.5 7.4 10.15 11.85 9.8 16.1 10.65 20.15 11.25 22.8 12.85 24.8 13.8 25.95 13.2 27.15 L12.35 28.15 Q10.65 29.05 9.0 28.45 6.5 27.55 4.95 25.25 2.7 21.85 1.45 18.0 0.75 15.9 1.1 15.1 1.55 14.1 2.7 14.55 3.75 14.9 4.65 18.65 L4.85 19.45 Q5.5 21.3 6.1 21.85 7.2 22.15 6.45 19.9 5.6 17.6 5.05 13.45 4.6 9.35 5.45 5.75 6.35 2.1 7.15 1.15 L7.95 0.25 Z" ffdec:has-small-stroke="true" ffdec:original-stroke-width="0.5" fill="none" stroke="#3a1302" stroke-linecap="round" stroke-linejoin="round" stroke-width="1.0"/>
      <path d="M8.85 8.05 L8.2 11.1 7.95 13.25 Q7.75 14.6 8.35 19.0 6.7 12.6 6.5 8.45 6.35 4.3 7.2 2.2 8.1 0.05 9.5 0.05 10.9 0.0 11.25 2.15 9.4 5.7 8.85 8.05" fill="#e7cb74" fill-rule="evenodd" stroke="none"/>
      <path d="M9.1 0.05 Q10.35 0.25 9.5 1.45 8.35 3.2 7.65 5.55 7.25 7.0 7.15 8.35 7.0 10.75 7.25 13.15 7.45 15.4 8.05 17.9 8.65 20.4 10.35 24.25 12.05 28.1 10.4 28.55 8.75 28.95 6.45 26.65 4.1 24.3 2.9 21.35 1.65 18.4 1.3 17.0 0.95 15.55 1.3 15.25 L2.4 15.35 Q2.85 15.75 3.15 17.1 L4.55 20.85 Q5.6 23.3 6.55 23.1 7.5 22.85 7.05 21.7 L6.2 18.65 Q5.75 16.75 5.45 14.55 5.1 12.35 5.15 10.2 5.15 8.05 5.5 6.1 5.8 4.15 6.85 2.15 7.85 0.1 9.1 0.05" fill="#8a5931" fill-rule="evenodd" stroke="none"/>
      <path d="M4.0 17.15 L4.2 20.05 3.1 17.15 2.2 15.85 Q1.6 15.3 1.2 15.4 L1.65 14.8 2.9 14.75 Q3.65 15.25 4.0 17.15" fill="#e7cb74" fill-rule="evenodd" stroke="none"/>
    </g>
    <g id="sprite2">
      <use ffdec:characterId="15" height="37.3" transform="matrix(1.0, 0.0, 0.0, 1.0, 0.0, 0.0)" width="47.75" xlink:href="#shape2"/>
    </g>
    <g id="shape2">
      <path d="M2.85 23.95 Q-0.45 21.7 0.05 20.05 0.55 18.45 4.0 19.5 L3.95 18.4 Q3.95 10.75 9.75 5.4 15.5 0.0 23.65 0.0 L25.0 0.05 Q32.3 0.45 37.6 5.4 43.35 10.75 43.35 18.4 L43.35 19.5 Q46.7 18.45 47.15 20.05 47.7 21.7 44.4 23.95 L46.5 24.1 Q47.3 24.6 46.8 25.45 46.35 26.35 45.3 27.25 L42.75 28.95 Q44.35 29.35 44.05 30.2 43.7 31.1 42.85 31.75 L40.05 33.55 Q38.05 34.6 34.35 35.5 L27.9 36.4 25.0 36.75 23.65 36.8 19.45 36.4 12.9 35.5 Q9.15 34.6 7.2 33.55 L4.35 31.75 Q3.55 31.1 3.2 30.2 2.9 29.35 4.45 28.95 L1.9 27.25 Q0.9 26.35 0.45 25.45 -0.1 24.6 0.75 24.1 L2.85 23.95" fill="#459157" fill-rule="evenodd" stroke="none"/>
      <path d="M2.85 23.95 Q-0.45 21.7 0.05 20.05 0.55 18.45 4.0 19.5 L3.95 18.4 Q3.95 10.75 9.75 5.4 15.5 0.0 23.65 0.0 L25.0 0.05 Q32.3 0.45 37.6 5.4 43.35 10.75 43.35 18.4 L43.35 19.5 Q46.7 18.45 47.15 20.05 47.7 21.7 44.4 23.95" ffdec:has-small-stroke="true" ffdec:original-stroke-width="0.5" fill="none" stroke="#0a2916" stroke-linecap="round" stroke-linejoin="round" stroke-width="1.0"/>
      <path d="M44.4 23.95 L46.5 24.1 Q47.3 24.6 46.8 25.45 46.35 26.35 45.3 27.25 L42.75 28.95 Q44.35 29.35 44.05 30.2 43.7 31.1 42.85 31.75 L40.05 33.55 Q38.05 34.6 34.35 35.5 L27.9 36.4 25.0 36.75 23.65 36.8 19.45 36.4 12.9 35.5 Q9.15 34.6 7.2 33.55 L4.35 31.75 Q3.55 31.1 3.2 30.2 2.9 29.35 4.45 28.95 L1.9 27.25 Q0.9 26.35 0.45 25.45 -0.1 24.6 0.75 24.1 L2.85 23.95" ffdec:has-small-stroke="true" ffdec:original-stroke-width="0.5" fill="none" stroke="#06070d" stroke-linecap="round" stroke-linejoin="round" stroke-width="1.0"/>
      <path d="M41.4 18.95 L41.4 19.95 Q44.45 19.0 44.85 20.5 45.3 22.2 41.9 24.85 L44.05 24.95 Q44.55 25.3 44.25 26.1 L42.7 27.9 Q41.45 28.9 40.45 29.2 39.85 31.9 37.3 32.9 31.0 32.05 28.3 30.9 L27.1 30.7 21.6 30.85 12.25 31.15 Q9.25 30.75 7.05 29.55 L3.95 27.5 2.7 25.8 Q2.3 25.0 2.95 24.65 L4.95 24.5 Q2.0 22.2 2.45 20.5 2.85 19.0 5.95 19.95 L5.9 18.95 Q5.9 11.4 11.15 6.1 16.35 0.8 23.65 0.8 31.05 0.8 36.25 6.1 41.4 11.4 41.4 18.95" fill="#6fbf8b" fill-rule="evenodd" stroke="none"/>
      <path d="M25.7 3.45 Q26.1 4.9 24.7 6.4 23.3 7.9 20.9 8.55 18.5 9.2 16.5 8.6 14.55 8.0 14.15 6.55 13.75 5.1 15.2 3.6 16.6 2.1 19.0 1.45 21.4 0.8 23.4 1.4 25.3 2.0 25.7 3.45" fill="#8ed1b6" fill-rule="evenodd" stroke="none"/>
      <path d="M23.7 3.2 Q23.85 4.0 23.05 4.75 22.3 5.5 21.0 5.75 L18.75 5.7 Q17.7 5.4 17.55 4.6 17.35 3.8 18.15 3.1 18.95 2.35 20.2 2.05 L22.45 2.15 Q23.5 2.4 23.7 3.2" fill="#b1fffd" fill-rule="evenodd" stroke="none"/>
    </g>
    <g id="sprite3">
      <use ffdec:characterId="5" height="19.45" transform="matrix(1.0, 0.0, 0.0, 1.0, 0.0, 0.0)" width="19.45" xlink:href="#shape3"/>
    </g>
    <g id="shape3">
      <path d="M9.05 1.25 Q10.5 -1.35 13.4 -0.45 16.25 0.45 16.4 4.0 16.55 7.5 14.9 6.8 L13.2 7.8 Q11.8 8.6 11.35 11.0 10.9 13.4 7.25 14.45 3.6 15.45 1.75 14.05 -0.15 12.6 -0.05 10.35 0.05 8.1 1.95 7.35 1.0 6.65 0.6 5.05 0.15 3.45 1.3 1.75 2.45 0.05 4.75 -0.35 7.05 -0.8 9.05 1.25" fill="#ffed67" fill-rule="evenodd" stroke="none"/>
      <path d="M9.05 1.25 Q7.05 -0.8 4.75 -0.35 2.45 0.05 1.3 1.75 0.15 3.45 0.6 5.05 1.0 6.65 1.95 7.35 0.05 8.1 -0.05 10.35 -0.15 12.6 1.75 14.05 3.6 15.45 7.25 14.45 10.9 13.4 11.35 11.0 11.8 8.6 13.2 7.8 L14.9 6.8 Q16.55 7.5 16.4 4.0 16.25 0.45 13.4 -0.45 10.5 -1.35 9.05 1.25 Z" ffdec:has-small-stroke="true" ffdec:original-stroke-width="0.5" fill="none" stroke="#96480c" stroke-linecap="round" stroke-linejoin="round" stroke-width="1.0"/>
      <path d="M3.35 4.75 Q5.1 7.05 7.4 5.9 6.55 7.85 5.35 8.15 L2.85 8.25 Q1.5 8.1 1.8 9.75 2.05 11.35 4.9 11.5 L5.75 14.65 4.15 14.75 Q2.75 14.75 1.4 13.6 0.05 12.4 0.2 10.25 0.3 8.1 2.05 7.55 0.55 5.75 0.7 4.1 0.85 2.4 1.65 1.6 L2.6 0.75 Q1.6 2.4 3.35 4.75" fill="#eea62a" fill-rule="evenodd" stroke="none"/>
      <path d="M11.05 -0.3 Q9.85 1.35 11.15 3.45 L11.75 4.45 9.7 4.75 Q8.5 3.45 9.05 1.8 9.55 0.15 11.05 -0.3" fill="#eea62a" fill-rule="evenodd" stroke="none"/>
      <path d="M18.9 10.95 Q18.9 13.95 16.8 16.1 14.65 18.25 11.65 18.25 8.65 18.25 6.5 16.1 4.35 13.95 4.35 10.95 4.35 7.95 6.5 5.8 8.65 3.7 11.65 3.7 14.65 3.7 16.8 5.8 18.9 7.95 18.9 10.95" fill="#d8d8d8" fill-rule="evenodd" stroke="none"/>
      <path d="M18.9 10.95 Q18.9 13.95 16.8 16.1 14.65 18.25 11.65 18.25 8.65 18.25 6.5 16.1 4.35 13.95 4.35 10.95 4.35 7.95 6.5 5.8 8.65 3.7 11.65 3.7 14.65 3.7 16.8 5.8 18.9 7.95 18.9 10.95 Z" ffdec:has-small-stroke="true" ffdec:original-stroke-width="0.5" fill="none" stroke="#3d4043" stroke-linecap="round" stroke-linejoin="round" stroke-width="1.0"/>
      <path d="M5.6 9.2 Q5.95 6.85 7.95 5.4 10.1 4.0 12.7 4.35 15.3 4.7 16.9 6.65 18.6 8.6 18.25 10.95 17.95 13.35 15.8 14.75 13.75 16.25 11.15 15.9 8.55 15.55 6.85 13.5 5.3 11.6 5.6 9.2" fill="#ffffff" fill-rule="evenodd" stroke="none"/>
      <path d="M14.0 11.65 Q14.0 12.25 13.6 12.7 13.15 13.15 12.5 13.15 11.85 13.15 11.4 12.7 10.95 12.25 10.95 11.65 10.95 11.0 11.4 10.55 11.85 10.1 12.5 10.1 13.15 10.1 13.6 10.55 14.0 11.0 14.0 11.65" fill="#1f94e3" fill-rule="evenodd" stroke="none"/>
    </g>
    <g id="sprite4">
      <use ffdec:characterId="5" height="19.45" transform="matrix(1.0, 0.0, 0.0, 1.0, 0.0, 0.0)" width="19.45" xlink:href="#shape4"/>
    </g>
    <g id="shape4">
      <path d="M9.05 1.25 Q10.5 -1.35 13.4 -0.45 16.25 0.45 16.4 4.0 16.55 7.5 14.9 6.8 L13.2 7.8 Q11.8 8.6 11.35 11.0 10.9 13.4 7.25 14.45 3.6 15.45 1.75 14.05 -0.15 12.6 -0.05 10.35 0.05 8.1 1.95 7.35 1.0 6.65 0.6 5.05 0.15 3.45 1.3 1.75 2.45 0.05 4.75 -0.35 7.05 -0.8 9.05 1.25" fill="#ffed67" fill-rule="evenodd" stroke="none"/>
      <path d="M9.05 1.25 Q7.05 -0.8 4.75 -0.35 2.45 0.05 1.3 1.75 0.15 3.45 0.6 5.05 1.0 6.65 1.95 7.35 0.05 8.1 -0.05 10.35 -0.15 12.6 1.75 14.05 3.6 15.45 7.25 14.45 10.9 13.4 11.35 11.0 11.8 8.6 13.2 7.8 L14.9 6.8 Q16.55 7.5 16.4 4.0 16.25 0.45 13.4 -0.45 10.5 -1.35 9.05 1.25 Z" ffdec:has-small-stroke="true" ffdec:original-stroke-width="0.5" fill="none" stroke="#96480c" stroke-linecap="round" stroke-linejoin="round" stroke-width="1.0"/>
      <path d="M3.35 4.75 Q5.1 7.05 7.4 5.9 6.55 7.85 5.35 8.15 L2.85 8.25 Q1.5 8.1 1.8 9.75 2.05 11.35 4.9 11.5 L5.75 14.65 4.15 14.75 Q2.75 14.75 1.4 13.6 0.05 12.4 0.2 10.25 0.3 8.1 2.05 7.55 0.55 5.75 0.7 4.1 0.85 2.4 1.65 1.6 L2.6 0.75 Q1.6 2.4 3.35 4.75" fill="#eea62a" fill-rule="evenodd" stroke="none"/>
      <path d="M11.05 -0.3 Q9.85 1.35 11.15 3.45 L11.75 4.45 9.7 4.75 Q8.5 3.45 9.05 1.8 9.55 0.15 11.05 -0.3" fill="#eea62a" fill-rule="evenodd" stroke="none"/>
      <path d="M18.9 10.95 Q18.9 13.95 16.8 16.1 14.65 18.25 11.65 18.25 8.65 18.25 6.5 16.1 4.35 13.95 4.35 10.95 4.35 7.95 6.5 5.8 8.65 3.7 11.65 3.7 14.65 3.7 16.8 5.8 18.9 7.95 18.9 10.95" fill="#d8d8d8" fill-rule="evenodd" stroke="none"/>
      <path d="M18.9 10.95 Q18.9 13.95 16.8 16.1 14.65 18.25 11.65 18.25 8.65 18.25 6.5 16.1 4.35 13.95 4.35 10.95 4.35 7.95 6.5 5.8 8.65 3.7 11.65 3.7 14.65 3.7 16.8 5.8 18.9 7.95 18.9 10.95 Z" ffdec:has-small-stroke="true" ffdec:original-stroke-width="0.5" fill="none" stroke="#3d4043" stroke-linecap="round" stroke-linejoin="round" stroke-width="1.0"/>
      <path d="M5.6 9.2 Q5.95 6.85 7.95 5.4 10.1 4.0 12.7 4.35 15.3 4.7 16.9 6.65 18.6 8.6 18.25 10.95 17.95 13.35 15.8 14.75 13.75 16.25 11.15 15.9 8.55 15.55 6.85 13.5 5.3 11.6 5.6 9.2" fill="#ffffff" fill-rule="evenodd" stroke="none"/>
      <path d="M14.0 11.65 Q14.0 12.25 13.6 12.7 13.15 13.15 12.5 13.15 11.85 13.15 11.4 12.7 10.95 12.25 10.95 11.65 10.95 11.0 11.4 10.55 11.85 10.1 12.5 10.1 13.15 10.1 13.6 10.55 14.0 11.0 14.0 11.65" fill="#1f94e3" fill-rule="evenodd" stroke="none"/>
    </g>
    <g id="sprite5">
      <use ffdec:characterId="17" height="9.1" transform="matrix(1.0, 0.0, 0.0, 1.0, 0.0, 0.0)" width="33.4" xlink:href="#shape5"/>
    </g>
    <g id="shape5">
      <path d="M18.5 8.95 L16.85 9.1 16.55 9.1 14.9 8.95 Q12.55 8.7 10.95 6.65 10.45 5.0 12.55 6.15 14.6 7.35 16.55 7.35 L16.75 7.35 Q18.7 7.35 20.85 6.15 22.95 5.0 22.45 6.65 20.85 8.7 18.5 8.95" fill="#6ee697" fill-rule="evenodd" stroke="none"/>
      <path d="M20.75 6.1 L20.5 6.2 16.7 6.9 Q14.4 6.9 12.8 6.2 L12.6 6.1 Q11.25 5.45 11.25 4.55 L11.3 4.3 22.15 4.3 22.15 4.55 Q22.15 5.45 20.75 6.1" fill="#19271e" fill-rule="evenodd" stroke="none"/>
      <path d="M20.75 6.1 L20.5 6.2 16.7 6.9 Q14.4 6.9 12.8 6.2 L12.6 6.1" fill="none" stroke="#ff1300" stroke-linecap="round" stroke-linejoin="round" stroke-width="1.0"/>
      <path d="M12.6 6.1 Q11.25 5.45 11.25 4.55 L11.3 4.3 M22.15 4.3 L22.15 4.55 Q22.15 5.45 20.75 6.1" fill="none" stroke="#740800" stroke-linecap="round" stroke-linejoin="round" stroke-width="1.0"/>
      <path d="M8.95 3.6 L12.0 2.6 Q16.8 0.9 21.35 2.6 L24.4 3.6 28.9 3.9 Q31.1 3.3 30.65 0.25 32.85 1.6 32.45 3.3 32.15 5.0 30.1 5.85 L24.65 5.6 20.4 4.35 19.35 4.2 Q18.05 3.65 16.7 3.65 15.3 3.65 14.0 4.2 L12.95 4.35 8.7 5.6 3.25 5.85 Q1.2 5.0 0.9 3.3 0.5 1.6 2.7 0.25 2.25 3.3 4.45 3.9 L8.95 3.6" fill="#268d44" fill-rule="evenodd" stroke="none"/>
      <path d="M24.8 5.2 L25.05 5.3 Q29.55 6.55 31.45 4.35 33.3 2.15 30.25 0.0 31.3 0.05 32.3 0.85 33.25 1.6 33.4 2.9 33.55 4.2 32.45 5.5 31.35 6.75 29.15 6.75 27.0 6.7 23.75 5.6 L22.55 5.2 24.8 5.2 M10.85 5.2 L9.65 5.6 Q6.4 6.7 4.25 6.75 2.05 6.75 0.95 5.5 -0.15 4.2 0.0 2.9 0.15 1.6 1.1 0.85 2.1 0.05 3.15 0.0 0.1 2.25 1.9 4.4 3.6 6.5 8.25 5.2 L10.85 5.2" fill="#800700" fill-rule="evenodd" stroke="none"/>
      <path d="M24.8 5.2 L22.55 5.2 Q20.0 4.4 17.6 4.3 L15.8 4.3 Q13.4 4.4 10.85 5.2 L8.25 5.2 8.3 5.2 Q12.95 3.8 14.45 3.7 L16.9 3.6 19.2 3.8 24.8 5.2" fill="#3a0300" fill-rule="evenodd" stroke="none"/>
      <path d="M29.2 1.85 Q30.8 2.0 30.35 2.8 L30.2 3.2 Q28.95 4.45 26.85 4.15 24.75 3.85 23.35 3.2 25.15 3.6 27.1 3.25 29.05 2.9 29.2 1.85" fill="#7fd09c" fill-rule="evenodd" stroke="none"/>
      <path d="M4.05 1.85 Q2.45 2.0 2.9 2.8 L3.05 3.2 Q4.3 4.45 6.4 4.15 L9.9 3.2 Q8.1 3.6 6.15 3.25 4.2 2.9 4.05 1.85" fill="#7fd09c" fill-rule="evenodd" stroke="none"/>
      <path d="M4.6 1.65 Q3.3 2.55 3.8 3.7 2.2 2.8 2.25 1.45 2.3 0.1 3.7 0.0 5.05 -0.15 4.6 1.65" fill="#74efbe" fill-rule="evenodd" stroke="none"/>
      <path d="M28.75 1.65 Q30.05 2.55 29.55 3.7 31.15 2.8 31.1 1.45 31.05 0.1 29.65 0.0 28.3 -0.15 28.75 1.65" fill="#74efbe" fill-rule="evenodd" stroke="none"/>
    </g>
    <g id="sprite6">
      <use ffdec:characterId="19" height="6.15" transform="matrix(1.0, 0.0, 0.0, 1.0, 0.0, 0.0)" width="8.1" xlink:href="#shape6"/>
    </g>
    <g id="shape6">
      <path d="M3.8 4.75 L3.35 4.75 3.0 5.15 Q2.5 5.65 1.8 5.65 1.05 5.65 0.5 5.15 0.0 4.65 0.0 3.9 0.0 3.1 0.5 2.6 1.0 2.15 1.6 2.1 1.65 1.3 2.2 0.7 2.9 0.0 3.8 0.0 4.75 0.0 5.35 0.7 5.9 1.3 6.05 2.1 6.65 2.15 7.05 2.6 7.6 3.1 7.6 3.9 7.6 4.65 7.05 5.15 6.55 5.65 5.85 5.65 5.1 5.65 4.55 5.15 L4.25 4.75 3.8 4.75" fill="#fd81ba" fill-rule="evenodd" stroke="none"/>
      <path d="M3.8 4.75 L3.35 4.75 3.0 5.15 Q2.5 5.65 1.8 5.65 1.05 5.65 0.5 5.15 0.0 4.65 0.0 3.9 0.0 3.1 0.5 2.6 1.0 2.15 1.6 2.1 1.65 1.3 2.2 0.7 2.9 0.0 3.8 0.0 4.75 0.0 5.35 0.7 5.9 1.3 6.05 2.1 6.65 2.15 7.05 2.6 7.6 3.1 7.6 3.9 7.6 4.65 7.05 5.15 6.55 5.65 5.85 5.65 5.1 5.65 4.55 5.15 L4.25 4.75 3.8 4.75 Z" ffdec:has-small-stroke="true" ffdec:original-stroke-width="0.5" fill="none" stroke="#a12369" stroke-linecap="round" stroke-linejoin="round" stroke-width="1.0"/>
      <path d="M2.85 5.1 Q1.95 5.85 1.05 5.45 0.1 5.05 0.1 4.25 0.1 3.45 0.4 3.2 0.75 4.45 1.9 4.3 3.05 4.1 3.05 3.55 L3.65 3.5 3.85 3.5 4.5 3.55 Q4.5 4.1 5.65 4.3 6.8 4.45 7.15 3.2 7.45 3.45 7.45 4.25 7.45 5.05 6.5 5.45 5.6 5.85 4.7 5.1 4.55 4.6 3.85 4.55 L3.8 4.55 3.7 4.55 Q2.95 4.6 2.85 5.1" fill="#db4c63" fill-rule="evenodd" stroke="none"/>
    </g>
  </defs>
</svg>
