<?xml version="1.0" encoding="UTF-8" standalone="no"?>
<svg xmlns:ffdec="https://www.free-decompiler.com/flash" xmlns:xlink="http://www.w3.org/1999/xlink" ffdec:objectType="frame" height="38.95px" width="54.9px" xmlns="http://www.w3.org/2000/svg">
  <g transform="matrix(1.0, 0.0, 0.0, 1.0, 27.25, 65.0)">
    <use ffdec:characterId="14" height="38.95" transform="matrix(1.0, 0.0, 0.0, 1.0, -22.2, -65.15)" width="54.9" xlink:href="#sprite0"/>
  </g>
  <defs>
    <g id="sprite0">
      <use ffdec:characterId="13" height="37.95" transform="matrix(1.0, 0.0, 0.0, 1.0, 0.0, 0.0)" width="52.55" xlink:href="#shape0"/>
      <use ffdec:characterId="6" height="27.0" transform="matrix(0.7568, 0.0, 0.0, 1.0, 36.55, 16.05)" width="31.15" xlink:href="#sprite1"/>
      <use ffdec:characterId="6" height="27.0" transform="matrix(-0.6941, 0.0, 0.0, 1.0, 4.4, 21.55)" width="31.15" xlink:href="#sprite3"/>
      <use ffdec:characterId="8" height="37.15" transform="matrix(1.0, 0.0, 0.0, 1.0, 27.9, 17.5)" width="27.85" xlink:href="#sprite4"/>
      <use ffdec:characterId="8" height="37.15" transform="matrix(0.7622, 0.0, 0.1044, 0.681, 20.1, 22.85)" width="27.85" xlink:href="#sprite5"/>
      <use ffdec:characterId="6" height="27.0" transform="matrix(-0.7088, 0.0, 0.0, 0.7088, 8.75, 27.8)" width="31.15" xlink:href="#sprite6"/>
      <use ffdec:characterId="8" height="37.15" transform="matrix(-0.7622, 0.0, -0.0823, 0.5373, 18.9, 27.0)" width="27.85" xlink:href="#sprite7"/>
      <use ffdec:characterId="6" height="27.0" transform="matrix(1.0, 0.0, 0.0, 1.0, 36.2, 24.95)" width="31.15" xlink:href="#sprite8"/>
      <use ffdec:characterId="10" height="16.4" transform="matrix(0.7039, 0.0, 0.0, 0.7777, 20.25, 26.5)" width="22.15" xlink:href="#sprite9"/>
    </g>
    <g id="shape0">
      <path d="M44.9 7.95 Q44.75 8.65 43.4 9.45 L43.4 9.6 Q43.65 10.5 43.45 11.65 L43.3 12.95 43.05 14.15 43.55 14.3 Q47.6 15.65 47.25 16.85 47.05 17.55 45.2 18.35 45.55 19.3 45.35 20.55 L45.1 21.85 Q44.8 23.35 44.15 24.65 L42.85 27.05 Q41.65 29.8 39.3 31.7 L36.05 34.2 34.8 35.05 Q32.1 36.7 29.0 37.6 L25.6 37.9 25.15 37.8 24.55 37.8 24.45 37.8 24.35 37.8 23.65 37.75 21.8 37.7 19.15 37.8 17.95 37.2 17.55 37.0 17.45 36.9 17.15 36.9 17.1 36.9 17.0 36.9 16.6 36.9 15.3 37.0 13.85 36.75 Q11.65 36.15 9.75 34.95 L8.85 34.35 7.25 33.1 6.55 32.6 5.35 31.65 4.5 30.8 2.25 28.3 Q0.6 26.4 -0.2 23.65 L-1.05 21.45 -1.1 21.25 -1.8 18.45 -1.95 17.15 Q-2.1 15.9 -1.85 14.95 L-2.9 14.15 -3.25 13.45 Q-3.35 12.95 -2.9 12.4 L-0.7 10.9 Q1.9 9.65 4.95 9.75 L5.55 9.75 Q8.9 10.0 11.05 11.5 L12.3 12.45 13.1 12.45 12.95 12.15 12.7 11.65 12.65 11.5 11.4 9.25 Q9.8 8.45 9.8 7.35 9.85 6.1 12.65 4.3 15.4 2.5 19.75 2.2 24.1 1.9 27.75 3.55 29.75 4.45 30.55 5.35 32.55 4.45 35.3 4.25 39.0 4.05 42.1 5.4 45.2 6.75 44.9 7.95 M29.15 11.15 L28.85 12.15 28.75 12.6 28.3 14.25 30.5 13.65 30.35 13.25 30.2 12.85 30.15 12.7 29.85 11.95 29.3 10.75 29.15 11.15 M26.5 31.3 L26.25 32.15 Q27.65 30.75 28.3 28.95 L28.3 28.9 28.6 27.95 28.6 27.85 28.65 27.8 28.7 27.3 28.75 27.0 28.5 27.45 28.15 28.05 27.7 28.9 27.4 29.45 26.6 31.15 26.5 31.3" fill="#000000" fill-rule="evenodd" stroke="none"/>
      <path d="M44.9 7.95 Q44.75 8.65 43.4 9.45 L43.4 9.6 Q43.65 10.5 43.45 11.65 L43.3 12.95 43.05 14.15 43.55 14.3 Q47.6 15.65 47.25 16.85 47.05 17.55 45.2 18.35 45.55 19.3 45.35 20.55 L45.1 21.85 Q44.8 23.35 44.15 24.65 L42.85 27.05 Q41.65 29.8 39.3 31.7 L36.05 34.2 34.8 35.05 Q32.1 36.7 29.0 37.6 L25.6 37.9 25.15 37.8 24.55 37.8 24.45 37.8 24.35 37.8 23.65 37.75 21.8 37.7 19.15 37.8 17.95 37.2 17.55 37.0 17.45 36.9 17.15 36.9 17.1 36.9 17.0 36.9 16.6 36.9 15.3 37.0 13.85 36.75 Q11.65 36.15 9.75 34.95 L8.85 34.35 7.25 33.1 6.55 32.6 5.35 31.65 4.5 30.8 2.25 28.3 Q0.6 26.4 -0.2 23.65 L-1.05 21.45 -1.1 21.25 -1.8 18.45 -1.95 17.15 Q-2.1 15.9 -1.85 14.95 L-2.9 14.15 -3.25 13.45 Q-3.35 12.95 -2.9 12.4 L-0.7 10.9 Q1.9 9.65 4.95 9.75 L5.55 9.75 Q8.9 10.0 11.05 11.5 L12.3 12.45 13.1 12.45 12.95 12.15 12.7 11.65 12.65 11.5 11.4 9.25 Q9.8 8.45 9.8 7.35 9.85 6.1 12.65 4.3 15.4 2.5 19.75 2.2 24.1 1.9 27.75 3.55 29.75 4.45 30.55 5.35 32.55 4.45 35.3 4.25 39.0 4.05 42.1 5.4 45.2 6.75 44.9 7.95 M29.15 11.15 L28.85 12.15 28.75 12.6 28.3 14.25 30.5 13.65 30.35 13.25 30.2 12.85 30.15 12.7 29.85 11.95 29.3 10.75 29.15 11.15 M26.5 31.3 L26.6 31.15 27.4 29.45 27.7 28.9 28.15 28.05 28.5 27.45 28.75 27.0 28.7 27.3 28.65 27.8 28.6 27.85 28.6 27.95 28.3 28.9 28.3 28.95 Q27.65 30.75 26.25 32.15 L26.5 31.3 Z" fill="none" stroke="#000000" stroke-linecap="round" stroke-linejoin="round" stroke-width="2.0"/>
    </g>
    <g id="sprite1">
      <use ffdec:characterId="2" height="25.85" transform="matrix(1.0, 0.0, 0.0, 1.0, 0.0, 0.0)" width="29.1" xlink:href="#shape1"/>
      <use ffdec:characterId="5" height="11.7" transform="matrix(1.1218, 0.0, 0.0, 0.8263, -1.35, -9.75)" width="25.15" xlink:href="#sprite2"/>
    </g>
    <g id="shape1">
      <path d="M11.05 -8.1 Q10.85 -7.4 9.0 -6.6 9.35 -5.65 9.15 -4.4 L8.9 -3.1 7.95 -0.3 6.65 2.1 Q5.45 4.85 3.1 6.75 L-0.15 9.25 -1.4 10.1 Q-4.1 11.75 -7.2 12.65 L-11.05 12.85 -11.65 12.85 -11.75 12.85 -11.85 12.85 -12.55 12.8 -14.9 12.75 -15.0 12.75 -15.25 12.75 -15.1 12.7 -15.7 12.6 -15.8 12.6 -16.25 12.55 -16.05 12.5 -17.0 12.4 -14.55 11.3 -14.9 11.1 -14.6 10.5 Q-12.2 9.45 -10.5 7.7 -8.2 5.75 -7.6 2.9 -7.35 1.55 -7.45 0.3 -7.5 -1.3 -8.2 -2.8 L-8.4 -3.2 -9.75 -5.6 -10.7 -5.85 Q-12.8 -6.55 -12.75 -7.55 -12.75 -8.55 -9.6 -10.05 -6.5 -11.55 -1.65 -11.8 3.25 -12.0 7.35 -10.65 11.4 -9.3 11.05 -8.1" fill="#333333" fill-rule="evenodd" stroke="none"/>
      <path d="M11.05 -8.1 Q10.85 -7.4 9.0 -6.6 9.35 -5.65 9.15 -4.4 L8.9 -3.1 7.95 -0.3 6.65 2.1 Q5.45 4.85 3.1 6.75 L-0.15 9.25 -1.4 10.1 Q-4.1 11.75 -7.2 12.65 L-11.05 12.85 -11.65 12.85 -11.75 12.85 -11.85 12.85 -12.55 12.8 -14.9 12.75 -15.0 12.75 -15.25 12.75 -15.1 12.7 -15.7 12.6 -15.8 12.6 -16.25 12.55 -16.05 12.5 -17.0 12.4 -14.55 11.3 -14.9 11.1 -14.6 10.5 Q-12.2 9.45 -10.5 7.7 -8.2 5.75 -7.6 2.9 -7.35 1.55 -7.45 0.3 -7.5 -1.3 -8.2 -2.8 L-8.4 -3.2 -9.75 -5.6 -10.7 -5.85 Q-12.8 -6.55 -12.75 -7.55 -12.75 -8.55 -9.6 -10.05 -6.5 -11.55 -1.65 -11.8 3.25 -12.0 7.35 -10.65 11.4 -9.3 11.05 -8.1 Z" ffdec:has-small-stroke="true" ffdec:original-stroke-width="1.0" fill="none" stroke="#373533" stroke-linecap="round" stroke-linejoin="round" stroke-width="1.1495318745462617"/>
      <path d="M6.65 2.1 Q5.45 4.85 3.1 6.75 L-0.15 9.25 Q-3.0 10.2 -5.9 9.7 -8.45 9.4 -10.5 7.7 -8.2 5.75 -7.6 2.9 -7.35 1.55 -7.45 0.3 -5.0 -1.15 -2.3 -1.95 0.7 -2.9 3.3 -1.85 6.1 -0.8 6.65 2.1" fill="#b5b2aa" fill-rule="evenodd" stroke="none"/>
      <path d="M8.9 -3.1 L7.95 -0.3 6.65 2.1 Q6.1 -0.8 3.3 -1.85 0.7 -2.9 -2.3 -1.95 -5.0 -1.15 -7.45 0.3 -7.5 -1.3 -8.2 -2.8 L-7.55 -3.45 Q-5.9 -4.7 -3.95 -5.1 L-0.25 -5.7 3.65 -5.6 Q5.55 -5.3 7.35 -4.25 L8.9 -3.1 M-0.15 9.25 L-1.4 10.1 Q-4.1 11.75 -7.2 12.65 -10.6 13.55 -13.5 11.95 L-14.9 11.1 -14.6 10.5 Q-12.2 9.45 -10.5 7.7 -8.45 9.4 -5.9 9.7 -3.0 10.2 -0.15 9.25" fill="#95938b" fill-rule="evenodd" stroke="none"/>
      <path d="M-8.2 -2.8 L-8.4 -3.2 -10.8 -7.1 Q-8.1 -9.15 -4.8 -9.2 L1.15 -9.9 Q4.9 -10.65 7.85 -8.25 9.5 -6.85 9.15 -4.4 L8.9 -3.1 7.35 -4.25 Q5.55 -5.3 3.65 -5.6 L-0.25 -5.7 -3.95 -5.1 Q-5.9 -4.7 -7.55 -3.45 L-8.2 -2.8" fill="#76756d" fill-rule="evenodd" stroke="none"/>
      <path d="M3.9 -1.75 L3.2 -0.65 2.35 0.55 1.4 1.75 0.45 2.9 -0.55 4.1 -1.5 5.1 -2.5 6.05 -3.55 6.95 -4.6 7.85 -6.1 9.05 -6.65 9.35 -7.1 9.2 -5.95 8.4 -4.8 7.55 -3.7 6.65 -2.6 5.7 -1.45 4.55 -0.3 3.4 0.7 2.1 1.65 0.75 2.55 -0.65 3.4 -2.05 3.9 -1.75 M-5.9 9.45 L-4.7 8.8 -3.5 8.0 -2.35 7.1 -1.15 6.15 0.05 5.05 1.2 3.85 2.3 2.5 3.3 1.05 4.0 -0.15 4.6 -1.3 5.0 -0.95 4.35 0.2 3.65 1.4 2.9 2.45 2.0 3.6 0.9 4.75 -0.2 5.9 -1.5 6.95 -2.85 7.95 -4.15 8.75 -5.35 9.6 -5.9 9.45 M-4.3 9.75 L-3.4 9.25 -2.5 8.65 -1.65 8.0 -0.8 7.3 0.0 6.65 0.75 5.95 1.45 5.2 2.15 4.45 2.8 3.7 3.45 2.85 4.0 1.95 5.05 0.35 5.45 -0.45 5.65 -0.15 4.75 1.5 3.8 3.05 2.75 4.5 1.65 5.75 0.5 6.9 -0.75 7.9 -2.1 8.85 -3.6 9.8 -4.3 9.75 M-3.0 9.85 L-1.8 9.2 -0.7 8.5 0.5 7.75 1.55 6.75 2.6 5.7 3.5 4.55 4.25 3.65 4.9 2.65 5.5 1.6 6.0 0.5 6.3 1.2 5.35 2.8 4.3 4.3 3.35 5.45 2.25 6.55 1.1 7.55 -0.1 8.55 -1.05 9.1 -1.95 9.8 -3.0 9.85 M-9.9 7.85 L-8.65 6.4 -7.95 5.3 -7.0 3.55 -6.3 1.7 -5.8 0.25 -5.6 -0.55 -4.9 -0.95 -5.5 0.8 -6.2 2.6 -7.05 4.2 -7.55 5.2 -8.15 6.1 -8.8 6.95 -9.6 8.05 -9.9 7.85 M-9.1 8.4 L-7.8 7.1 -6.6 5.65 -5.75 4.55 -4.95 3.4 -4.25 2.1 -3.6 0.8 -3.0 -0.5 -2.55 -1.9 -1.9 -2.05 -2.45 -0.7 -3.0 0.55 -3.65 1.8 -4.3 2.95 -5.05 4.05 -5.75 5.05 -6.4 6.05 -7.2 6.95 -8.05 7.8 -8.75 8.6 -9.1 8.4 M-8.15 8.85 L-7.2 8.15 -6.3 7.4 -5.45 6.6 -4.1 5.2 -3.05 4.05 -2.15 2.8 -1.3 1.55 -0.45 0.05 0.3 -1.6 0.65 -2.5 1.3 -2.55 0.95 -1.55 0.15 0.05 -0.6 1.25 -1.45 2.45 -2.35 3.6 -3.2 4.65 -4.4 6.1 -5.85 7.5 -7.0 8.5 -7.7 9.0 -8.15 8.85" fill="#cdcbc4" fill-rule="evenodd" stroke="none"/>
      <path d="M3.4 -2.05 L4.55 -5.3 4.7 -6.1 Q4.9 -3.75 3.9 -1.75 L3.4 -2.05 M-6.65 9.35 L-9.55 10.9 -12.3 12.1 -11.9 12.1 -12.05 12.2 -11.55 12.15 Q-8.8 11.1 -6.25 9.65 L-5.9 9.45 -5.35 9.6 -8.3 11.1 -10.3 12.0 -7.2 11.15 -4.3 9.75 -3.6 9.8 -4.55 10.3 Q-7.4 11.6 -8.4 11.9 -6.75 11.6 -5.15 10.9 L-3.0 9.85 -1.95 9.8 -4.8 11.35 Q-7.1 12.4 -9.8 12.85 L-11.65 12.85 -11.75 12.85 -11.85 12.85 -12.55 12.8 -14.9 12.75 -15.0 12.75 -15.25 12.75 -15.1 12.7 -15.7 12.6 -15.8 12.6 -16.25 12.55 -16.05 12.5 -17.0 12.4 Q-14.0 11.25 -11.7 9.45 L-9.9 7.85 -9.6 8.05 Q-11.0 9.7 -12.95 10.8 L-15.4 12.2 Q-12.75 11.1 -10.5 9.5 L-9.1 8.4 -8.75 8.6 Q-10.2 9.95 -12.0 10.9 L-13.75 11.85 Q-11.35 10.85 -9.2 9.55 L-8.15 8.85 -7.7 9.0 Q-9.25 10.15 -10.95 10.95 L-13.6 12.2 -13.55 12.2 Q-10.4 11.1 -7.65 9.5 L-7.1 9.2 -6.65 9.35 M4.6 -1.3 Q5.3 -3.0 5.5 -4.5 5.8 -7.0 5.95 -5.9 6.25 -3.95 5.15 -1.35 L5.0 -0.95 4.6 -1.3 M5.45 -0.45 Q6.7 -3.0 6.6 -4.55 L6.4 -6.55 Q8.0 -5.4 6.15 -1.2 L5.65 -0.15 5.45 -0.45 M6.0 0.5 L6.5 -0.55 Q7.6 -3.3 7.7 -4.75 L7.85 -6.7 Q8.6 -4.3 7.4 -1.2 L6.3 1.2 6.0 0.5 M-5.6 -0.55 Q-5.15 -2.65 -5.45 -4.8 L-5.55 -5.55 Q-4.45 -3.05 -4.9 -0.95 L-5.6 -0.55 M-2.55 -1.9 Q-2.1 -3.55 -2.05 -5.3 L-2.05 -6.1 Q-1.5 -3.9 -1.9 -2.05 L-2.55 -1.9 M0.65 -2.5 L1.25 -5.25 1.3 -6.05 Q1.65 -4.2 1.3 -2.55 L0.65 -2.5" fill="#aaa79e" fill-rule="evenodd" stroke="none"/>
    </g>
    <g id="sprite2">
      <clipPath id="clipPath0">
        <path d="M 1.07 -2.55 L 0.42 -2.53 L -0.25 -2.5 L -0.79 -2.46 L -1.31 -2.4 L -1.83 -2.33 L -2.33 -2.26 L -2.81 -2.17 L -3.29 -2.06 L -3.75 -1.95 L -4.2 -1.83 L -4.64 -1.69 L -5.06 -1.54 L -5.47 -1.38 L -5.88 -1.21 L -6.26 -1.02 L -6.64 -0.83 L -7 -0.62 L -7.35 -0.4 L -8.01 0.04 L -8.58 0.47 L -8.83 0.67 L -9.06 0.87 L -9.27 1.07 L -9.46 1.26 L -9.63 1.45 L -9.78 1.64 L -9.9 1.82 L -10 1.99 L -10.08 2.16 L -10.14 2.33 L -10.18 2.49 L -10.2 2.65 L -10.19 2.8 L -10.17 2.94 L -10.13 3.09 L -10.08 3.22 L -10.02 3.36 L -9.94 3.49 L -9.85 3.62 L -9.74 3.75 L -9.61 3.87 L -9.48 3.99 L -9.33 4.11 L -9.16 4.22 L -8.78 4.44 L -8.35 4.65 L -7.86 4.85 L -7.29 5.03 L -6.63 5.21 L -5.9 5.38 L -5.08 5.53 L -4.19 5.68 L -3.21 5.82 L -2.15 5.95 L -1.65 6 L -1.15 6.03 L -0.65 6.05 L -0.14 6.05 L 0.69 6.04 L 1.52 5.98 L 2.35 5.89 L 3.18 5.77 L 4.02 5.6 L 4.84 5.4 L 5.67 5.17 L 6.5 4.9 L 7.02 4.71 L 7.5 4.53 L 7.95 4.34 L 8.38 4.15 L 8.77 3.97 L 9.13 3.78 L 9.46 3.6 L 9.76 3.41 L 10.03 3.23 L 10.27 3.04 L 10.48 2.86 L 10.65 2.68 L 10.8 2.5 L 10.91 2.31 L 11 2.13 L 11.05 1.95 L 11.07 1.77 L 11.06 1.58 L 11.03 1.4 L 10.96 1.21 L 10.86 1.02 L 10.73 0.83 L 10.57 0.64 L 10.38 0.45 L 10.15 0.26 L 9.9 0.06 L 9.62 -0.14 L 9.31 -0.34 L 8.96 -0.54 L 8.59 -0.74 L 8.18 -0.94 L 7.75 -1.15 L 7.36 -1.32 L 6.97 -1.48 L 6.57 -1.62 L 6.17 -1.76 L 5.77 -1.89 L 5.36 -2 L 4.95 -2.1 L 4.54 -2.2 L 4.12 -2.28 L 3.69 -2.35 L 3.27 -2.41 L 2.84 -2.46 L 2.4 -2.5 L 1.96 -2.52 L 1.52 -2.54 L 1.07 -2.55 Z"/>
      </clipPath>
      <g clip-path="url(#clipPath0)">
        <use ffdec:characterId="4" height="11.7" transform="matrix(1.0, 0.0, 0.0, 1.0, 0.0, 0.0)" width="25.15" xlink:href="#shape2"/>
      </g>
    </g>
    <g id="shape2">
      <path d="M13.4 4.15 Q13.2 5.5 9.65 6.35 L1.1 7.15 -7.9 6.55 Q-11.8 5.95 -11.75 4.25 -11.8 2.55 -8.1 -0.4 -4.45 -3.3 0.7 -3.35 5.8 -3.45 9.7 -0.3 13.55 2.8 13.4 4.15" fill="url(#gradient0)" fill-rule="evenodd" stroke="none"/>
      <path d="M12.5 3.1 Q12.25 4.4 9.15 5.6 6.05 6.8 1.25 7.1 L-7.2 6.55 Q-10.8 5.75 -11.3 4.3 -11.65 2.65 -9.25 -0.05 -10.9 3.1 -6.0 4.15 L3.4 4.4 Q7.9 3.6 9.5 2.65 11.1 1.65 10.15 -0.7 12.75 1.75 12.5 3.1" fill="#000000" fill-opacity="0.49803922" fill-rule="evenodd" stroke="none"/>
      <path d="M0.35 1.15 Q2.45 1.0 5.05 -0.75 L3.6 -1.35 -1.05 -1.8 -2.75 -1.45 -5.2 -0.35 -4.6 -0.1 Q-1.9 1.25 0.35 1.15 M10.4 0.55 Q12.15 3.85 3.85 4.25 -4.5 4.65 -8.55 4.05 -12.65 3.45 -9.3 0.35 L-7.8 -0.3 -7.5 -0.6 Q-6.4 -1.45 -4.25 -2.4 L-3.3 -2.8 -1.95 -3.1 1.2 -3.45 4.85 -3.15 Q7.35 -2.7 8.65 -1.9 L9.25 -1.25 9.15 -0.8 10.4 0.55" fill="url(#gradient1)" fill-rule="evenodd" stroke="none"/>
      <path d="M6.95 -4.55 Q6.4 -2.8 5.3 -1.25 3.75 1.0 1.1 1.3 -1.5 1.85 -3.95 0.4 -6.4 -1.1 -8.05 -3.55 L-8.4 -4.1 6.95 -4.55" fill="url(#gradient2)" fill-rule="evenodd" stroke="none"/>
      <path d="M9.45 1.65 L9.4 1.6 9.45 1.5 9.45 1.4 9.5 1.35 9.65 1.25 9.75 1.25 9.85 1.35 9.95 1.4 9.95 1.5 10.0 1.55 9.95 1.6 9.95 1.7 9.8 1.85 9.55 1.85 9.45 1.7 9.45 1.65 M9.1 2.0 L9.3 2.1 9.35 2.25 9.35 2.35 9.3 2.4 9.3 2.45 9.2 2.55 8.95 2.55 8.85 2.45 8.85 2.4 8.8 2.3 8.8 2.2 8.85 2.15 8.85 2.1 8.95 2.05 9.0 2.0 9.1 2.0 M-9.6 2.35 L-9.55 2.3 -9.55 2.25 -9.45 2.15 -9.35 2.1 -9.1 2.1 -8.95 2.25 -8.95 2.5 -9.1 2.6 -9.1 2.65 -9.45 2.65 -9.55 2.55 -9.55 2.5 -9.6 2.45 -9.6 2.35 M-8.35 3.05 L-8.55 3.1 -8.8 3.05 -8.8 3.0 -8.85 2.95 -8.85 2.8 -8.7 2.65 -8.65 2.65 -8.3 2.75 -8.25 2.9 -8.3 3.0 -8.35 3.05 M-8.0 3.15 L-7.85 3.15 -7.85 3.1 -7.7 3.2 -7.65 3.25 -7.65 3.55 -7.85 3.6 -8.05 3.55 -8.1 3.5 -8.1 3.25 -8.0 3.15 M-7.15 3.4 L-7.1 3.45 -7.1 3.6 -7.25 3.75 -7.35 3.75 -7.55 3.7 -7.6 3.6 -7.6 3.55 -7.55 3.4 -7.45 3.35 -7.45 3.3 -7.3 3.35 -7.3 3.3 -7.15 3.4" fill="#ffffff" fill-opacity="0.09803922" fill-rule="evenodd" stroke="none"/>
      <path d="M8.2 2.7 L8.3 2.75 8.3 2.95 8.2 3.05 7.95 3.05 7.8 3.0 7.7 2.85 7.75 2.8 7.75 2.7 7.85 2.6 8.15 2.6 8.2 2.7 M6.45 3.2 L6.45 3.05 6.5 3.0 6.5 2.95 6.7 2.85 6.8 2.9 7.0 3.1 7.0 3.3 6.8 3.4 6.75 3.45 6.7 3.4 6.5 3.3 6.5 3.25 6.45 3.2 M5.8 3.8 L5.7 3.85 5.65 3.9 5.55 3.9 5.45 3.85 5.35 3.85 5.2 3.7 5.2 3.6 5.25 3.4 5.45 3.3 5.8 3.4 5.8 3.45 5.85 3.5 5.85 3.7 5.8 3.75 5.8 3.8 M4.35 3.5 L4.45 3.45 4.55 3.5 4.7 3.6 4.75 3.6 4.8 3.7 4.8 3.95 4.7 4.05 4.6 4.1 4.5 4.05 4.3 3.9 4.3 3.85 4.25 3.8 4.25 3.7 4.2 3.65 4.35 3.5 M-3.4 4.45 L-3.35 4.3 -3.3 4.25 -3.3 4.15 -3.05 4.1 -3.05 4.05 -2.75 4.2 -2.7 4.3 -2.8 4.5 -3.0 4.7 -3.3 4.65 -3.35 4.55 -3.35 4.5 -3.4 4.45 M-3.75 4.15 L-3.65 4.05 -3.55 4.05 -3.55 4.0 -3.4 4.1 -3.4 4.3 -3.45 4.35 -3.55 4.35 -3.6 4.4 -3.7 4.4 -3.75 4.35 -3.8 4.25 -3.75 4.2 -3.75 4.15 M-4.3 4.15 L-4.4 4.2 -4.55 4.2 -4.65 4.15 -4.65 4.1 -4.7 4.0 -4.65 3.95 -4.65 3.75 -4.6 3.7 -4.6 3.65 -4.5 3.6 -4.35 3.6 -4.35 3.55 -4.3 3.6 -4.2 3.6 -4.1 3.7 -4.1 3.75 -4.05 3.8 -4.05 3.9 -4.1 3.95 -4.15 4.05 -4.25 4.1 -4.3 4.15 M-4.8 4.25 L-5.1 4.4 -5.2 4.35 -5.25 4.35 -5.35 4.2 -5.25 4.05 -5.2 4.0 -5.15 3.9 -4.8 4.0 -4.75 4.1 -4.8 4.2 -4.8 4.25 M-6.4 3.85 L-6.55 3.75 -6.55 3.65 -6.45 3.55 -6.4 3.55 -6.35 3.6 -6.3 3.6 -6.3 3.75 -6.4 3.85 M-5.95 3.75 L-5.95 3.7 -5.75 3.7 -5.55 3.8 -5.5 3.95 -5.55 4.1 -5.8 4.15 -5.95 4.15 -6.05 4.1 -6.1 4.0 -6.1 3.95 -5.95 3.75" fill="#ffffff" fill-opacity="0.14901961" fill-rule="evenodd" stroke="none"/>
      <path d="M-0.2 4.7 L-0.25 4.65 -0.25 4.15 -0.2 4.05 -0.2 4.7 M3.8 4.35 L3.7 4.45 3.6 4.5 3.5 4.45 3.35 4.35 3.35 4.2 3.3 4.15 3.3 3.75 3.4 3.7 3.55 3.65 3.55 3.6 3.7 3.7 3.8 3.8 3.8 4.0 3.85 4.05 3.85 4.2 3.8 4.25 3.8 4.35 M3.05 4.1 L2.65 4.65 2.55 4.6 Q2.3 3.5 2.8 3.85 L3.05 4.1 M-1.05 4.55 L-1.05 4.6 -1.0 4.65 -1.0 4.7 -0.95 4.85 -1.0 4.85 -1.05 4.95 -1.2 5.05 -1.3 5.05 -1.45 5.0 -1.5 4.9 -1.5 4.85 -1.55 4.8 -1.55 4.5 -1.5 4.45 -1.5 4.4 -1.45 4.35 -1.2 4.35 -1.1 4.45 -1.05 4.55 M-0.35 4.6 L-0.45 4.65 -0.5 4.7 -0.6 4.75 -0.85 4.6 -0.9 4.55 -0.9 4.1 -0.85 4.05 -0.65 3.95 -0.45 4.05 -0.45 4.1 -0.4 4.15 -0.4 4.3 -0.35 4.4 -0.35 4.6 M-1.8 4.45 L-1.8 4.6 -1.9 4.75 -2.1 4.85 -2.3 4.75 -2.35 4.5 -2.3 4.4 -2.25 4.25 -2.15 4.05 -2.15 4.0 -1.95 3.95 -1.95 3.9 -1.75 4.1 -1.7 4.35 -1.75 4.35 -1.75 4.4 -1.8 4.45" fill="#ffffff" fill-opacity="0.2" fill-rule="evenodd" stroke="none"/>
      <path d="M1.1 3.6 L1.5 4.25 1.45 4.6 1.25 5.15 Q0.1 4.35 0.95 3.5 L1.1 3.6 M1.65 4.7 Q1.65 4.25 1.8 3.85 L1.95 3.9 Q2.35 4.3 2.15 4.65 L1.65 4.7 M-0.2 4.05 L-0.2 3.95 Q-0.1 3.8 0.05 3.8 L0.25 3.85 0.3 4.0 0.35 4.1 0.35 4.6 0.3 4.6 Q0.4 4.9 0.1 4.9 L-0.1 4.85 -0.2 4.8 -0.2 4.7 -0.2 4.05" fill="#ffffff" fill-opacity="0.29803923" fill-rule="evenodd" stroke="none"/>
    </g>
    <radialGradient cx="0" cy="0" fx="-515.2" fy="0" gradientTransform="matrix(1.0E-4, 0.0059, -0.0156, 3.0E-4, 0.9, 0.7)" gradientUnits="userSpaceOnUse" id="gradient0" r="819.2" spreadMethod="pad">
      <stop offset="0.0" stop-color="#000000"/>
      <stop offset="0.5254901960784314" stop-color="#282828"/>
      <stop offset="0.8392156862745098" stop-color="#3b3b3b"/>
    </radialGradient>
    <radialGradient cx="0" cy="0" fx="-515.2" fy="0" gradientTransform="matrix(1.0E-4, 0.0029, -0.0098, 3.0E-4, 0.1, 0.15)" gradientUnits="userSpaceOnUse" id="gradient1" r="819.2" spreadMethod="pad">
      <stop offset="0.0" stop-color="#717171" stop-opacity="0.6"/>
      <stop offset="0.8392156862745098" stop-color="#848484" stop-opacity="0.0"/>
    </radialGradient>
    <radialGradient cx="0" cy="0" fx="-512.0" fy="0" gradientTransform="matrix(1.0E-4, -0.0037, -0.0116, -2.0E-4, 0.35, -0.95)" gradientUnits="userSpaceOnUse" id="gradient2" r="819.2" spreadMethod="pad">
      <stop offset="0.0" stop-color="#000000"/>
      <stop offset="0.5254901960784314" stop-color="#282828" stop-opacity="0.0"/>
    </radialGradient>
    <g id="sprite3">
      <use ffdec:characterId="2" height="25.85" transform="matrix(1.0, 0.0, 0.0, 1.0, 0.0, 0.0)" width="29.1" xlink:href="#shape3"/>
      <use ffdec:characterId="5" height="11.7" transform="matrix(1.1218, 0.0, 0.0, 0.8263, -1.35, -9.75)" width="25.15" xlink:href="#sprite2"/>
    </g>
    <g id="shape3">
      <path d="M11.05 -8.1 Q10.85 -7.4 9.0 -6.6 9.35 -5.65 9.15 -4.4 L8.9 -3.1 7.95 -0.3 6.65 2.1 Q5.45 4.85 3.1 6.75 L-0.15 9.25 -1.4 10.1 Q-4.1 11.75 -7.2 12.65 L-11.05 12.85 -11.65 12.85 -11.75 12.85 -11.85 12.85 -12.55 12.8 -14.9 12.75 -15.0 12.75 -15.25 12.75 -15.1 12.7 -15.7 12.6 -15.8 12.6 -16.25 12.55 -16.05 12.5 -17.0 12.4 -14.55 11.3 -14.9 11.1 -14.6 10.5 Q-12.2 9.45 -10.5 7.7 -8.2 5.75 -7.6 2.9 -7.35 1.55 -7.45 0.3 -7.5 -1.3 -8.2 -2.8 L-8.4 -3.2 -9.75 -5.6 -10.7 -5.85 Q-12.8 -6.55 -12.75 -7.55 -12.75 -8.55 -9.6 -10.05 -6.5 -11.55 -1.65 -11.8 3.25 -12.0 7.35 -10.65 11.4 -9.3 11.05 -8.1" fill="#333333" fill-rule="evenodd" stroke="none"/>
      <path d="M11.05 -8.1 Q10.85 -7.4 9.0 -6.6 9.35 -5.65 9.15 -4.4 L8.9 -3.1 7.95 -0.3 6.65 2.1 Q5.45 4.85 3.1 6.75 L-0.15 9.25 -1.4 10.1 Q-4.1 11.75 -7.2 12.65 L-11.05 12.85 -11.65 12.85 -11.75 12.85 -11.85 12.85 -12.55 12.8 -14.9 12.75 -15.0 12.75 -15.25 12.75 -15.1 12.7 -15.7 12.6 -15.8 12.6 -16.25 12.55 -16.05 12.5 -17.0 12.4 -14.55 11.3 -14.9 11.1 -14.6 10.5 Q-12.2 9.45 -10.5 7.7 -8.2 5.75 -7.6 2.9 -7.35 1.55 -7.45 0.3 -7.5 -1.3 -8.2 -2.8 L-8.4 -3.2 -9.75 -5.6 -10.7 -5.85 Q-12.8 -6.55 -12.75 -7.55 -12.75 -8.55 -9.6 -10.05 -6.5 -11.55 -1.65 -11.8 3.25 -12.0 7.35 -10.65 11.4 -9.3 11.05 -8.1 Z" ffdec:has-small-stroke="true" ffdec:original-stroke-width="1.0" fill="none" stroke="#373533" stroke-linecap="round" stroke-linejoin="round" stroke-width="1.2002784171776901"/>
      <path d="M6.65 2.1 Q5.45 4.85 3.1 6.75 L-0.15 9.25 Q-3.0 10.2 -5.9 9.7 -8.45 9.4 -10.5 7.7 -8.2 5.75 -7.6 2.9 -7.35 1.55 -7.45 0.3 -5.0 -1.15 -2.3 -1.95 0.7 -2.9 3.3 -1.85 6.1 -0.8 6.65 2.1" fill="#b5b2aa" fill-rule="evenodd" stroke="none"/>
      <path d="M8.9 -3.1 L7.95 -0.3 6.65 2.1 Q6.1 -0.8 3.3 -1.85 0.7 -2.9 -2.3 -1.95 -5.0 -1.15 -7.45 0.3 -7.5 -1.3 -8.2 -2.8 L-7.55 -3.45 Q-5.9 -4.7 -3.95 -5.1 L-0.25 -5.7 3.65 -5.6 Q5.55 -5.3 7.35 -4.25 L8.9 -3.1 M-0.15 9.25 L-1.4 10.1 Q-4.1 11.75 -7.2 12.65 -10.6 13.55 -13.5 11.95 L-14.9 11.1 -14.6 10.5 Q-12.2 9.45 -10.5 7.7 -8.45 9.4 -5.9 9.7 -3.0 10.2 -0.15 9.25" fill="#95938b" fill-rule="evenodd" stroke="none"/>
      <path d="M-8.2 -2.8 L-8.4 -3.2 -10.8 -7.1 Q-8.1 -9.15 -4.8 -9.2 L1.15 -9.9 Q4.9 -10.65 7.85 -8.25 9.5 -6.85 9.15 -4.4 L8.9 -3.1 7.35 -4.25 Q5.55 -5.3 3.65 -5.6 L-0.25 -5.7 -3.95 -5.1 Q-5.9 -4.7 -7.55 -3.45 L-8.2 -2.8" fill="#76756d" fill-rule="evenodd" stroke="none"/>
      <path d="M3.9 -1.75 L3.2 -0.65 2.35 0.55 1.4 1.75 0.45 2.9 -0.55 4.1 -1.5 5.1 -2.5 6.05 -3.55 6.95 -4.6 7.85 -6.1 9.05 -6.65 9.35 -7.1 9.2 -5.95 8.4 -4.8 7.55 -3.7 6.65 -2.6 5.7 -1.45 4.55 -0.3 3.4 0.7 2.1 1.65 0.75 2.55 -0.65 3.4 -2.05 3.9 -1.75 M-5.9 9.45 L-4.7 8.8 -3.5 8.0 -2.35 7.1 -1.15 6.15 0.05 5.05 1.2 3.85 2.3 2.5 3.3 1.05 4.0 -0.15 4.6 -1.3 5.0 -0.95 4.35 0.2 3.65 1.4 2.9 2.45 2.0 3.6 0.9 4.75 -0.2 5.9 -1.5 6.95 -2.85 7.95 -4.15 8.75 -5.35 9.6 -5.9 9.45 M-4.3 9.75 L-3.4 9.25 -2.5 8.65 -1.65 8.0 -0.8 7.3 0.0 6.65 0.75 5.95 1.45 5.2 2.15 4.45 2.8 3.7 3.45 2.85 4.0 1.95 5.05 0.35 5.45 -0.45 5.65 -0.15 4.75 1.5 3.8 3.05 2.75 4.5 1.65 5.75 0.5 6.9 -0.75 7.9 -2.1 8.85 -3.6 9.8 -4.3 9.75 M-3.0 9.85 L-1.8 9.2 -0.7 8.5 0.5 7.75 1.55 6.75 2.6 5.7 3.5 4.55 4.25 3.65 4.9 2.65 5.5 1.6 6.0 0.5 6.3 1.2 5.35 2.8 4.3 4.3 3.35 5.45 2.25 6.55 1.1 7.55 -0.1 8.55 -1.05 9.1 -1.95 9.8 -3.0 9.85 M-9.9 7.85 L-8.65 6.4 -7.95 5.3 -7.0 3.55 -6.3 1.7 -5.8 0.25 -5.6 -0.55 -4.9 -0.95 -5.5 0.8 -6.2 2.6 -7.05 4.2 -7.55 5.2 -8.15 6.1 -8.8 6.95 -9.6 8.05 -9.9 7.85 M-9.1 8.4 L-7.8 7.1 -6.6 5.65 -5.75 4.55 -4.95 3.4 -4.25 2.1 -3.6 0.8 -3.0 -0.5 -2.55 -1.9 -1.9 -2.05 -2.45 -0.7 -3.0 0.55 -3.65 1.8 -4.3 2.95 -5.05 4.05 -5.75 5.05 -6.4 6.05 -7.2 6.95 -8.05 7.8 -8.75 8.6 -9.1 8.4 M-8.15 8.85 L-7.2 8.15 -6.3 7.4 -5.45 6.6 -4.1 5.2 -3.05 4.05 -2.15 2.8 -1.3 1.55 -0.45 0.05 0.3 -1.6 0.65 -2.5 1.3 -2.55 0.95 -1.55 0.15 0.05 -0.6 1.25 -1.45 2.45 -2.35 3.6 -3.2 4.65 -4.4 6.1 -5.85 7.5 -7.0 8.5 -7.7 9.0 -8.15 8.85" fill="#cdcbc4" fill-rule="evenodd" stroke="none"/>
      <path d="M3.4 -2.05 L4.55 -5.3 4.7 -6.1 Q4.9 -3.75 3.9 -1.75 L3.4 -2.05 M-6.65 9.35 L-9.55 10.9 -12.3 12.1 -11.9 12.1 -12.05 12.2 -11.55 12.15 Q-8.8 11.1 -6.25 9.65 L-5.9 9.45 -5.35 9.6 -8.3 11.1 -10.3 12.0 -7.2 11.15 -4.3 9.75 -3.6 9.8 -4.55 10.3 Q-7.4 11.6 -8.4 11.9 -6.75 11.6 -5.15 10.9 L-3.0 9.85 -1.95 9.8 -4.8 11.35 Q-7.1 12.4 -9.8 12.85 L-11.65 12.85 -11.75 12.85 -11.85 12.85 -12.55 12.8 -14.9 12.75 -15.0 12.75 -15.25 12.75 -15.1 12.7 -15.7 12.6 -15.8 12.6 -16.25 12.55 -16.05 12.5 -17.0 12.4 Q-14.0 11.25 -11.7 9.45 L-9.9 7.85 -9.6 8.05 Q-11.0 9.7 -12.95 10.8 L-15.4 12.2 Q-12.75 11.1 -10.5 9.5 L-9.1 8.4 -8.75 8.6 Q-10.2 9.95 -12.0 10.9 L-13.75 11.85 Q-11.35 10.85 -9.2 9.55 L-8.15 8.85 -7.7 9.0 Q-9.25 10.15 -10.95 10.95 L-13.6 12.2 -13.55 12.2 Q-10.4 11.1 -7.65 9.5 L-7.1 9.2 -6.65 9.35 M4.6 -1.3 Q5.3 -3.0 5.5 -4.5 5.8 -7.0 5.95 -5.9 6.25 -3.95 5.15 -1.35 L5.0 -0.95 4.6 -1.3 M5.45 -0.45 Q6.7 -3.0 6.6 -4.55 L6.4 -6.55 Q8.0 -5.4 6.15 -1.2 L5.65 -0.15 5.45 -0.45 M6.0 0.5 L6.5 -0.55 Q7.6 -3.3 7.7 -4.75 L7.85 -6.7 Q8.6 -4.3 7.4 -1.2 L6.3 1.2 6.0 0.5 M-5.6 -0.55 Q-5.15 -2.65 -5.45 -4.8 L-5.55 -5.55 Q-4.45 -3.05 -4.9 -0.95 L-5.6 -0.55 M-2.55 -1.9 Q-2.1 -3.55 -2.05 -5.3 L-2.05 -6.1 Q-1.5 -3.9 -1.9 -2.05 L-2.55 -1.9 M0.65 -2.5 L1.25 -5.25 1.3 -6.05 Q1.65 -4.2 1.3 -2.55 L0.65 -2.5" fill="#aaa79e" fill-rule="evenodd" stroke="none"/>
    </g>
    <g id="sprite4">
      <use ffdec:characterId="7" height="35.65" transform="matrix(1.0, 0.0, 0.0, 1.0, 0.0, 0.0)" width="26.8" xlink:href="#shape4"/>
      <use ffdec:characterId="5" height="11.7" transform="matrix(1.0, 0.0, 0.0, 1.0, -7.9, -12.8)" width="25.15" xlink:href="#sprite2"/>
    </g>
    <g id="shape4">
      <path d="M8.15 -9.8 L8.2 -9.2 8.15 -9.35 8.15 -10.05 8.15 -9.8" fill="#b6b199" fill-opacity="0.49803922" fill-rule="evenodd" stroke="none"/>
      <path d="M3.15 -10.85 Q3.05 -10.3 2.3 -9.7 L1.25 -6.35 0.95 -5.35 0.85 -4.9 -0.35 -0.4 Q-1.5 4.25 -2.1 8.6 L-2.2 9.1 Q-2.85 13.75 -2.9 18.1 -7.5 20.7 -9.9 17.7 L-10.85 8.0 Q-11.8 3.3 -13.0 -0.4 -13.9 -3.15 -14.95 -5.35 L-15.2 -5.85 -15.25 -6.0 -16.5 -8.25 Q-18.1 -9.05 -18.1 -10.15 -18.05 -11.4 -15.25 -13.2 -12.5 -15.0 -8.15 -15.3 -3.8 -15.6 -0.15 -13.95 3.45 -12.3 3.15 -10.85" fill="#333333" fill-rule="evenodd" stroke="none"/>
      <path d="M3.15 -10.85 Q3.05 -10.3 2.3 -9.7 L1.25 -6.35 0.95 -5.35 0.85 -4.9 -0.35 -0.4 Q-1.5 4.25 -2.1 8.6 L-2.2 9.1 Q-2.85 13.75 -2.9 18.1 -7.5 20.7 -9.9 17.7 L-10.85 8.0 Q-11.8 3.3 -13.0 -0.4 -13.9 -3.15 -14.95 -5.35 L-15.2 -5.85 -15.25 -6.0 -16.5 -8.25 Q-18.1 -9.05 -18.1 -10.15 -18.05 -11.4 -15.25 -13.2 -12.5 -15.0 -8.15 -15.3 -3.8 -15.6 -0.15 -13.95 3.45 -12.3 3.15 -10.85 Z" fill="none" stroke="#373533" stroke-linecap="round" stroke-linejoin="round" stroke-width="1.0"/>
      <path d="M-0.35 -0.4 Q-1.5 4.25 -2.1 8.6 L-3.2 9.5 Q-4.8 10.75 -6.85 10.9 L-10.6 10.2 -10.85 8.0 Q-11.8 3.3 -13.0 -0.4 -6.6 -6.15 -0.35 -0.4" fill="#b5b2aa" fill-rule="evenodd" stroke="none"/>
      <path d="M1.25 -6.35 L0.95 -5.35 0.85 -4.9 -0.35 -0.4 Q-6.6 -6.15 -13.0 -0.4 -13.9 -3.15 -14.95 -5.35 L-15.2 -5.85 -13.85 -6.85 Q-12.1 -7.9 -10.25 -8.45 L-6.45 -8.85 Q-4.5 -9.05 -2.65 -8.25 L0.9 -6.55 1.25 -6.35 M-2.1 8.6 Q-2.85 13.55 -2.9 18.1 -7.5 20.7 -9.9 17.7 L-10.6 10.2 -6.85 10.9 Q-4.8 10.75 -3.2 9.5 L-2.1 8.6" fill="#95938b" fill-rule="evenodd" stroke="none"/>
      <path d="M-15.2 -5.85 L-15.25 -6.0 -17.05 -9.1 2.4 -10.0 1.25 -6.35 0.9 -6.55 -2.65 -8.25 Q-4.5 -9.05 -6.45 -8.85 L-10.25 -8.45 Q-12.1 -7.9 -13.85 -6.85 L-15.2 -5.85" fill="#76756d" fill-rule="evenodd" stroke="none"/>
      <path d="M-11.2 -1.35 L-10.0 7.0 -9.65 10.55 -10.15 10.35 -10.75 4.85 -11.55 -0.15 -11.7 -1.05 -11.2 -1.35 M-9.3 10.65 L-9.3 10.6 -9.6 6.4 -10.1 1.65 -10.35 -0.15 -10.5 -1.35 -10.6 -1.8 -10.1 -1.95 -9.8 -0.15 -9.8 0.05 -9.2 5.55 -8.75 10.75 -9.3 10.65 M-9.1 -2.2 L-8.7 -2.3 -8.5 -0.3 -8.5 -0.15 -7.95 7.4 -7.75 10.85 -8.3 10.8 -8.35 10.15 -8.6 4.4 -8.9 -0.15 -8.95 -0.95 -9.1 -2.2 M-6.25 10.7 L-6.2 3.85 -6.0 -0.15 -5.95 -1.65 -5.9 -2.7 -5.2 -2.65 -5.4 -0.15 -5.65 3.1 Q-6.0 6.2 -6.0 10.4 L-6.0 10.65 -6.25 10.7 M-7.25 -2.6 L-6.95 -0.15 -6.85 1.7 -6.7 7.3 -6.7 10.75 -7.15 10.8 -7.2 7.35 -7.35 1.25 -7.4 -0.15 -7.65 -2.55 -7.25 -2.6 M-4.5 10.2 L-4.2 5.5 -3.25 -0.15 -2.9 -2.05 -2.3 -1.8 -2.1 -1.7 -2.6 -0.15 -3.55 4.5 Q-4.0 7.1 -4.05 10.0 L-4.5 10.2 M-4.2 -2.5 L-3.8 -2.4 -4.0 -0.15 -4.3 1.9 Q-4.8 4.6 -4.75 5.9 L-4.95 10.4 -5.5 10.55 -5.5 10.35 -5.15 5.35 -4.6 0.45 -4.55 -0.15 -4.2 -2.5 M-1.4 -1.25 L-1.65 -0.15 -1.85 0.95 -2.65 9.05 -3.2 9.45 -3.05 6.55 -3.0 5.75 -1.85 -0.15 -1.6 -1.4 -1.4 -1.25" fill="#cdcbc4" fill-rule="evenodd" stroke="none"/>
      <path d="M-11.7 -1.05 L-12.05 -2.55 Q-12.55 -4.8 -13.65 -6.45 -14.75 -8.1 -14.0 -7.3 -13.25 -6.55 -12.35 -4.6 L-11.35 -2.2 -11.2 -1.35 -11.7 -1.05 M-9.65 10.55 L-9.6 13.7 -9.75 16.6 -10.05 13.35 -10.15 10.35 -9.65 10.55 M-10.6 -1.8 Q-10.95 -3.7 -12.0 -6.7 -11.15 -6.0 -10.65 -3.95 L-10.1 -1.95 -10.6 -1.8 M-8.75 10.75 L-8.75 10.8 -8.8 14.35 -9.3 17.4 Q-9.15 12.85 -9.3 10.65 L-8.75 10.75 M-8.7 -2.3 L-9.1 -2.2 Q-9.4 -4.35 -10.2 -7.05 -9.1 -4.8 -8.7 -2.3 M-8.3 10.8 L-7.75 10.85 -7.85 14.7 -8.05 17.95 -8.3 15.7 -8.3 10.8 M-5.9 -2.7 L-5.65 -5.2 Q-5.4 -6.55 -5.0 -6.95 L-5.2 -2.65 -5.9 -2.7 M-6.0 10.65 L-6.05 17.6 -6.25 10.7 -6.0 10.65 M-6.7 10.75 L-6.7 13.7 Q-6.75 17.3 -7.25 17.7 L-7.15 10.8 -6.7 10.75 M-7.65 -2.55 L-7.85 -4.0 -7.9 -6.8 -7.25 -2.6 -7.65 -2.55 M-2.9 -2.05 L-1.05 -8.25 Q-1.25 -4.35 -2.1 -1.8 L-2.1 -1.7 -2.3 -1.8 -2.9 -2.05 M-4.05 10.0 L-4.0 12.45 -4.0 17.1 Q-4.5 13.35 -4.5 10.2 L-4.05 10.0 M-3.8 -2.4 L-4.2 -2.5 -3.5 -7.2 -3.8 -2.4 M-5.5 10.55 L-4.95 10.4 -5.05 17.7 Q-5.7 13.1 -5.5 10.55 M-2.65 9.05 L-2.7 9.55 -3.2 16.7 -3.2 9.45 -2.65 9.05 M-1.6 -1.4 L-1.05 -4.1 Q1.0 -10.45 -0.25 -5.55 L-1.4 -1.25 -1.6 -1.4" fill="#aaa79e" fill-rule="evenodd" stroke="none"/>
    </g>
    <g id="sprite5">
      <use ffdec:characterId="7" height="35.65" transform="matrix(1.0, 0.0, 0.0, 1.0, 0.0, 0.0)" width="26.8" xlink:href="#shape5"/>
      <use ffdec:characterId="5" height="11.7" transform="matrix(1.0, 0.0, 0.0, 1.0, -7.9, -12.8)" width="25.15" xlink:href="#sprite2"/>
    </g>
    <g id="shape5">
      <path d="M8.15 -9.8 L8.2 -9.2 8.15 -9.35 8.15 -10.05 8.15 -9.8" fill="#b6b199" fill-opacity="0.49803922" fill-rule="evenodd" stroke="none"/>
      <path d="M3.15 -10.85 Q3.05 -10.3 2.3 -9.7 L1.25 -6.35 0.95 -5.35 0.85 -4.9 -0.35 -0.4 Q-1.5 4.25 -2.1 8.6 L-2.2 9.1 Q-2.85 13.75 -2.9 18.1 -7.5 20.7 -9.9 17.7 L-10.85 8.0 Q-11.8 3.3 -13.0 -0.4 -13.9 -3.15 -14.95 -5.35 L-15.2 -5.85 -15.25 -6.0 -16.5 -8.25 Q-18.1 -9.05 -18.1 -10.15 -18.05 -11.4 -15.25 -13.2 -12.5 -15.0 -8.15 -15.3 -3.8 -15.6 -0.15 -13.95 3.45 -12.3 3.15 -10.85" fill="#333333" fill-rule="evenodd" stroke="none"/>
      <path d="M3.15 -10.85 Q3.05 -10.3 2.3 -9.7 L1.25 -6.35 0.95 -5.35 0.85 -4.9 -0.35 -0.4 Q-1.5 4.25 -2.1 8.6 L-2.2 9.1 Q-2.85 13.75 -2.9 18.1 -7.5 20.7 -9.9 17.7 L-10.85 8.0 Q-11.8 3.3 -13.0 -0.4 -13.9 -3.15 -14.95 -5.35 L-15.2 -5.85 -15.25 -6.0 -16.5 -8.25 Q-18.1 -9.05 -18.1 -10.15 -18.05 -11.4 -15.25 -13.2 -12.5 -15.0 -8.15 -15.3 -3.8 -15.6 -0.15 -13.95 3.45 -12.3 3.15 -10.85 Z" ffdec:has-small-stroke="true" ffdec:original-stroke-width="1.0" fill="none" stroke="#373533" stroke-linecap="round" stroke-linejoin="round" stroke-width="1.3879846490320626"/>
      <path d="M-0.35 -0.4 Q-1.5 4.25 -2.1 8.6 L-3.2 9.5 Q-4.8 10.75 -6.85 10.9 L-10.6 10.2 -10.85 8.0 Q-11.8 3.3 -13.0 -0.4 -6.6 -6.15 -0.35 -0.4" fill="#b5b2aa" fill-rule="evenodd" stroke="none"/>
      <path d="M1.25 -6.35 L0.95 -5.35 0.85 -4.9 -0.35 -0.4 Q-6.6 -6.15 -13.0 -0.4 -13.9 -3.15 -14.95 -5.35 L-15.2 -5.85 -13.85 -6.85 Q-12.1 -7.9 -10.25 -8.45 L-6.45 -8.85 Q-4.5 -9.05 -2.65 -8.25 L0.9 -6.55 1.25 -6.35 M-2.1 8.6 Q-2.85 13.55 -2.9 18.1 -7.5 20.7 -9.9 17.7 L-10.6 10.2 -6.85 10.9 Q-4.8 10.75 -3.2 9.5 L-2.1 8.6" fill="#95938b" fill-rule="evenodd" stroke="none"/>
      <path d="M-15.2 -5.85 L-15.25 -6.0 -17.05 -9.1 2.4 -10.0 1.25 -6.35 0.9 -6.55 -2.65 -8.25 Q-4.5 -9.05 -6.45 -8.85 L-10.25 -8.45 Q-12.1 -7.9 -13.85 -6.85 L-15.2 -5.85" fill="#76756d" fill-rule="evenodd" stroke="none"/>
      <path d="M-11.2 -1.35 L-10.0 7.0 -9.65 10.55 -10.15 10.35 -10.75 4.85 -11.55 -0.15 -11.7 -1.05 -11.2 -1.35 M-9.3 10.65 L-9.3 10.6 -9.6 6.4 -10.1 1.65 -10.35 -0.15 -10.5 -1.35 -10.6 -1.8 -10.1 -1.95 -9.8 -0.15 -9.8 0.05 -9.2 5.55 -8.75 10.75 -9.3 10.65 M-9.1 -2.2 L-8.7 -2.3 -8.5 -0.3 -8.5 -0.15 -7.95 7.4 -7.75 10.85 -8.3 10.8 -8.35 10.15 -8.6 4.4 -8.9 -0.15 -8.95 -0.95 -9.1 -2.2 M-6.25 10.7 L-6.2 3.85 -6.0 -0.15 -5.95 -1.65 -5.9 -2.7 -5.2 -2.65 -5.4 -0.15 -5.65 3.1 Q-6.0 6.2 -6.0 10.4 L-6.0 10.65 -6.25 10.7 M-7.25 -2.6 L-6.95 -0.15 -6.85 1.7 -6.7 7.3 -6.7 10.75 -7.15 10.8 -7.2 7.35 -7.35 1.25 -7.4 -0.15 -7.65 -2.55 -7.25 -2.6 M-4.5 10.2 L-4.2 5.5 -3.25 -0.15 -2.9 -2.05 -2.3 -1.8 -2.1 -1.7 -2.6 -0.15 -3.55 4.5 Q-4.0 7.1 -4.05 10.0 L-4.5 10.2 M-4.2 -2.5 L-3.8 -2.4 -4.0 -0.15 -4.3 1.9 Q-4.8 4.6 -4.75 5.9 L-4.95 10.4 -5.5 10.55 -5.5 10.35 -5.15 5.35 -4.6 0.45 -4.55 -0.15 -4.2 -2.5 M-1.4 -1.25 L-1.65 -0.15 -1.85 0.95 -2.65 9.05 -3.2 9.45 -3.05 6.55 -3.0 5.75 -1.85 -0.15 -1.6 -1.4 -1.4 -1.25" fill="#cdcbc4" fill-rule="evenodd" stroke="none"/>
      <path d="M-11.7 -1.05 L-12.05 -2.55 Q-12.55 -4.8 -13.65 -6.45 -14.75 -8.1 -14.0 -7.3 -13.25 -6.55 -12.35 -4.6 L-11.35 -2.2 -11.2 -1.35 -11.7 -1.05 M-9.65 10.55 L-9.6 13.7 -9.75 16.6 -10.05 13.35 -10.15 10.35 -9.65 10.55 M-10.6 -1.8 Q-10.95 -3.7 -12.0 -6.7 -11.15 -6.0 -10.65 -3.95 L-10.1 -1.95 -10.6 -1.8 M-8.75 10.75 L-8.75 10.8 -8.8 14.35 -9.3 17.4 Q-9.15 12.85 -9.3 10.65 L-8.75 10.75 M-8.7 -2.3 L-9.1 -2.2 Q-9.4 -4.35 -10.2 -7.05 -9.1 -4.8 -8.7 -2.3 M-8.3 10.8 L-7.75 10.85 -7.85 14.7 -8.05 17.95 -8.3 15.7 -8.3 10.8 M-5.9 -2.7 L-5.65 -5.2 Q-5.4 -6.55 -5.0 -6.95 L-5.2 -2.65 -5.9 -2.7 M-6.0 10.65 L-6.05 17.6 -6.25 10.7 -6.0 10.65 M-6.7 10.75 L-6.7 13.7 Q-6.75 17.3 -7.25 17.7 L-7.15 10.8 -6.7 10.75 M-7.65 -2.55 L-7.85 -4.0 -7.9 -6.8 -7.25 -2.6 -7.65 -2.55 M-2.9 -2.05 L-1.05 -8.25 Q-1.25 -4.35 -2.1 -1.8 L-2.1 -1.7 -2.3 -1.8 -2.9 -2.05 M-4.05 10.0 L-4.0 12.45 -4.0 17.1 Q-4.5 13.35 -4.5 10.2 L-4.05 10.0 M-3.8 -2.4 L-4.2 -2.5 -3.5 -7.2 -3.8 -2.4 M-5.5 10.55 L-4.95 10.4 -5.05 17.7 Q-5.7 13.1 -5.5 10.55 M-2.65 9.05 L-2.7 9.55 -3.2 16.7 -3.2 9.45 -2.65 9.05 M-1.6 -1.4 L-1.05 -4.1 Q1.0 -10.45 -0.25 -5.55 L-1.4 -1.25 -1.6 -1.4" fill="#aaa79e" fill-rule="evenodd" stroke="none"/>
    </g>
    <g id="sprite6">
      <use ffdec:characterId="2" height="25.85" transform="matrix(1.0, 0.0, 0.0, 1.0, 0.0, 0.0)" width="29.1" xlink:href="#shape6"/>
      <use ffdec:characterId="5" height="11.7" transform="matrix(1.1218, 0.0, 0.0, 0.8263, -1.35, -9.75)" width="25.15" xlink:href="#sprite2"/>
    </g>
    <g id="shape6">
      <path d="M11.05 -8.1 Q10.85 -7.4 9.0 -6.6 9.35 -5.65 9.15 -4.4 L8.9 -3.1 7.95 -0.3 6.65 2.1 Q5.45 4.85 3.1 6.75 L-0.15 9.25 -1.4 10.1 Q-4.1 11.75 -7.2 12.65 L-11.05 12.85 -11.65 12.85 -11.75 12.85 -11.85 12.85 -12.55 12.8 -14.9 12.75 -15.0 12.75 -15.25 12.75 -15.1 12.7 -15.7 12.6 -15.8 12.6 -16.25 12.55 -16.05 12.5 -17.0 12.4 -14.55 11.3 -14.9 11.1 -14.6 10.5 Q-12.2 9.45 -10.5 7.7 -8.2 5.75 -7.6 2.9 -7.35 1.55 -7.45 0.3 -7.5 -1.3 -8.2 -2.8 L-8.4 -3.2 -9.75 -5.6 -10.7 -5.85 Q-12.8 -6.55 -12.75 -7.55 -12.75 -8.55 -9.6 -10.05 -6.5 -11.55 -1.65 -11.8 3.25 -12.0 7.35 -10.65 11.4 -9.3 11.05 -8.1" fill="#333333" fill-rule="evenodd" stroke="none"/>
      <path d="M11.05 -8.1 Q10.85 -7.4 9.0 -6.6 9.35 -5.65 9.15 -4.4 L8.9 -3.1 7.95 -0.3 6.65 2.1 Q5.45 4.85 3.1 6.75 L-0.15 9.25 -1.4 10.1 Q-4.1 11.75 -7.2 12.65 L-11.05 12.85 -11.65 12.85 -11.75 12.85 -11.85 12.85 -12.55 12.8 -14.9 12.75 -15.0 12.75 -15.25 12.75 -15.1 12.7 -15.7 12.6 -15.8 12.6 -16.25 12.55 -16.05 12.5 -17.0 12.4 -14.55 11.3 -14.9 11.1 -14.6 10.5 Q-12.2 9.45 -10.5 7.7 -8.2 5.75 -7.6 2.9 -7.35 1.55 -7.45 0.3 -7.5 -1.3 -8.2 -2.8 L-8.4 -3.2 -9.75 -5.6 -10.7 -5.85 Q-12.8 -6.55 -12.75 -7.55 -12.75 -8.55 -9.6 -10.05 -6.5 -11.55 -1.65 -11.8 3.25 -12.0 7.35 -10.65 11.4 -9.3 11.05 -8.1 Z" ffdec:has-small-stroke="true" ffdec:original-stroke-width="1.0" fill="none" stroke="#373533" stroke-linecap="round" stroke-linejoin="round" stroke-width="1.410832687505382"/>
      <path d="M6.65 2.1 Q5.45 4.85 3.1 6.75 L-0.15 9.25 Q-3.0 10.2 -5.9 9.7 -8.45 9.4 -10.5 7.7 -8.2 5.75 -7.6 2.9 -7.35 1.55 -7.45 0.3 -5.0 -1.15 -2.3 -1.95 0.7 -2.9 3.3 -1.85 6.1 -0.8 6.65 2.1" fill="#b5b2aa" fill-rule="evenodd" stroke="none"/>
      <path d="M8.9 -3.1 L7.95 -0.3 6.65 2.1 Q6.1 -0.8 3.3 -1.85 0.7 -2.9 -2.3 -1.95 -5.0 -1.15 -7.45 0.3 -7.5 -1.3 -8.2 -2.8 L-7.55 -3.45 Q-5.9 -4.7 -3.95 -5.1 L-0.25 -5.7 3.65 -5.6 Q5.55 -5.3 7.35 -4.25 L8.9 -3.1 M-0.15 9.25 L-1.4 10.1 Q-4.1 11.75 -7.2 12.65 -10.6 13.55 -13.5 11.95 L-14.9 11.1 -14.6 10.5 Q-12.2 9.45 -10.5 7.7 -8.45 9.4 -5.9 9.7 -3.0 10.2 -0.15 9.25" fill="#95938b" fill-rule="evenodd" stroke="none"/>
      <path d="M-8.2 -2.8 L-8.4 -3.2 -10.8 -7.1 Q-8.1 -9.15 -4.8 -9.2 L1.15 -9.9 Q4.9 -10.65 7.85 -8.25 9.5 -6.85 9.15 -4.4 L8.9 -3.1 7.35 -4.25 Q5.55 -5.3 3.65 -5.6 L-0.25 -5.7 -3.95 -5.1 Q-5.9 -4.7 -7.55 -3.45 L-8.2 -2.8" fill="#76756d" fill-rule="evenodd" stroke="none"/>
      <path d="M3.9 -1.75 L3.2 -0.65 2.35 0.55 1.4 1.75 0.45 2.9 -0.55 4.1 -1.5 5.1 -2.5 6.05 -3.55 6.95 -4.6 7.85 -6.1 9.05 -6.65 9.35 -7.1 9.2 -5.95 8.4 -4.8 7.55 -3.7 6.65 -2.6 5.7 -1.45 4.55 -0.3 3.4 0.7 2.1 1.65 0.75 2.55 -0.65 3.4 -2.05 3.9 -1.75 M-5.9 9.45 L-4.7 8.8 -3.5 8.0 -2.35 7.1 -1.15 6.15 0.05 5.05 1.2 3.85 2.3 2.5 3.3 1.05 4.0 -0.15 4.6 -1.3 5.0 -0.95 4.35 0.2 3.65 1.4 2.9 2.45 2.0 3.6 0.9 4.75 -0.2 5.9 -1.5 6.95 -2.85 7.95 -4.15 8.75 -5.35 9.6 -5.9 9.45 M-4.3 9.75 L-3.4 9.25 -2.5 8.65 -1.65 8.0 -0.8 7.3 0.0 6.65 0.75 5.95 1.45 5.2 2.15 4.45 2.8 3.7 3.45 2.85 4.0 1.95 5.05 0.35 5.45 -0.45 5.65 -0.15 4.75 1.5 3.8 3.05 2.75 4.5 1.65 5.75 0.5 6.9 -0.75 7.9 -2.1 8.85 -3.6 9.8 -4.3 9.75 M-3.0 9.85 L-1.8 9.2 -0.7 8.5 0.5 7.75 1.55 6.75 2.6 5.7 3.5 4.55 4.25 3.65 4.9 2.65 5.5 1.6 6.0 0.5 6.3 1.2 5.35 2.8 4.3 4.3 3.35 5.45 2.25 6.55 1.1 7.55 -0.1 8.55 -1.05 9.1 -1.95 9.8 -3.0 9.85 M-9.9 7.85 L-8.65 6.4 -7.95 5.3 -7.0 3.55 -6.3 1.7 -5.8 0.25 -5.6 -0.55 -4.9 -0.95 -5.5 0.8 -6.2 2.6 -7.05 4.2 -7.55 5.2 -8.15 6.1 -8.8 6.95 -9.6 8.05 -9.9 7.85 M-9.1 8.4 L-7.8 7.1 -6.6 5.65 -5.75 4.55 -4.95 3.4 -4.25 2.1 -3.6 0.8 -3.0 -0.5 -2.55 -1.9 -1.9 -2.05 -2.45 -0.7 -3.0 0.55 -3.65 1.8 -4.3 2.95 -5.05 4.05 -5.75 5.05 -6.4 6.05 -7.2 6.95 -8.05 7.8 -8.75 8.6 -9.1 8.4 M-8.15 8.85 L-7.2 8.15 -6.3 7.4 -5.45 6.6 -4.1 5.2 -3.05 4.05 -2.15 2.8 -1.3 1.55 -0.45 0.05 0.3 -1.6 0.65 -2.5 1.3 -2.55 0.95 -1.55 0.15 0.05 -0.6 1.25 -1.45 2.45 -2.35 3.6 -3.2 4.65 -4.4 6.1 -5.85 7.5 -7.0 8.5 -7.7 9.0 -8.15 8.85" fill="#cdcbc4" fill-rule="evenodd" stroke="none"/>
      <path d="M3.4 -2.05 L4.55 -5.3 4.7 -6.1 Q4.9 -3.75 3.9 -1.75 L3.4 -2.05 M-6.65 9.35 L-9.55 10.9 -12.3 12.1 -11.9 12.1 -12.05 12.2 -11.55 12.15 Q-8.8 11.1 -6.25 9.65 L-5.9 9.45 -5.35 9.6 -8.3 11.1 -10.3 12.0 -7.2 11.15 -4.3 9.75 -3.6 9.8 -4.55 10.3 Q-7.4 11.6 -8.4 11.9 -6.75 11.6 -5.15 10.9 L-3.0 9.85 -1.95 9.8 -4.8 11.35 Q-7.1 12.4 -9.8 12.85 L-11.65 12.85 -11.75 12.85 -11.85 12.85 -12.55 12.8 -14.9 12.75 -15.0 12.75 -15.25 12.75 -15.1 12.7 -15.7 12.6 -15.8 12.6 -16.25 12.55 -16.05 12.5 -17.0 12.4 Q-14.0 11.25 -11.7 9.45 L-9.9 7.85 -9.6 8.05 Q-11.0 9.7 -12.95 10.8 L-15.4 12.2 Q-12.75 11.1 -10.5 9.5 L-9.1 8.4 -8.75 8.6 Q-10.2 9.95 -12.0 10.9 L-13.75 11.85 Q-11.35 10.85 -9.2 9.55 L-8.15 8.85 -7.7 9.0 Q-9.25 10.15 -10.95 10.95 L-13.6 12.2 -13.55 12.2 Q-10.4 11.1 -7.65 9.5 L-7.1 9.2 -6.65 9.35 M4.6 -1.3 Q5.3 -3.0 5.5 -4.5 5.8 -7.0 5.95 -5.9 6.25 -3.95 5.15 -1.35 L5.0 -0.95 4.6 -1.3 M5.45 -0.45 Q6.7 -3.0 6.6 -4.55 L6.4 -6.55 Q8.0 -5.4 6.15 -1.2 L5.65 -0.15 5.45 -0.45 M6.0 0.5 L6.5 -0.55 Q7.6 -3.3 7.7 -4.75 L7.85 -6.7 Q8.6 -4.3 7.4 -1.2 L6.3 1.2 6.0 0.5 M-5.6 -0.55 Q-5.15 -2.65 -5.45 -4.8 L-5.55 -5.55 Q-4.45 -3.05 -4.9 -0.95 L-5.6 -0.55 M-2.55 -1.9 Q-2.1 -3.55 -2.05 -5.3 L-2.05 -6.1 Q-1.5 -3.9 -1.9 -2.05 L-2.55 -1.9 M0.65 -2.5 L1.25 -5.25 1.3 -6.05 Q1.65 -4.2 1.3 -2.55 L0.65 -2.5" fill="#aaa79e" fill-rule="evenodd" stroke="none"/>
    </g>
    <g id="sprite7">
      <use ffdec:characterId="7" height="35.65" transform="matrix(1.0, 0.0, 0.0, 1.0, 0.0, 0.0)" width="26.8" xlink:href="#shape7"/>
      <use ffdec:characterId="5" height="11.7" transform="matrix(1.0, 0.0, 0.0, 1.0, -7.9, -12.8)" width="25.15" xlink:href="#sprite2"/>
    </g>
    <g id="shape7">
      <path d="M8.15 -9.8 L8.2 -9.2 8.15 -9.35 8.15 -10.05 8.15 -9.8" fill="#b6b199" fill-opacity="0.49803922" fill-rule="evenodd" stroke="none"/>
      <path d="M3.15 -10.85 Q3.05 -10.3 2.3 -9.7 L1.25 -6.35 0.95 -5.35 0.85 -4.9 -0.35 -0.4 Q-1.5 4.25 -2.1 8.6 L-2.2 9.1 Q-2.85 13.75 -2.9 18.1 -7.5 20.7 -9.9 17.7 L-10.85 8.0 Q-11.8 3.3 -13.0 -0.4 -13.9 -3.15 -14.95 -5.35 L-15.2 -5.85 -15.25 -6.0 -16.5 -8.25 Q-18.1 -9.05 -18.1 -10.15 -18.05 -11.4 -15.25 -13.2 -12.5 -15.0 -8.15 -15.3 -3.8 -15.6 -0.15 -13.95 3.45 -12.3 3.15 -10.85" fill="#333333" fill-rule="evenodd" stroke="none"/>
      <path d="M3.15 -10.85 Q3.05 -10.3 2.3 -9.7 L1.25 -6.35 0.95 -5.35 0.85 -4.9 -0.35 -0.4 Q-1.5 4.25 -2.1 8.6 L-2.2 9.1 Q-2.85 13.75 -2.9 18.1 -7.5 20.7 -9.9 17.7 L-10.85 8.0 Q-11.8 3.3 -13.0 -0.4 -13.9 -3.15 -14.95 -5.35 L-15.2 -5.85 -15.25 -6.0 -16.5 -8.25 Q-18.1 -9.05 -18.1 -10.15 -18.05 -11.4 -15.25 -13.2 -12.5 -15.0 -8.15 -15.3 -3.8 -15.6 -0.15 -13.95 3.45 -12.3 3.15 -10.85 Z" ffdec:has-small-stroke="true" ffdec:original-stroke-width="1.0" fill="none" stroke="#373533" stroke-linecap="round" stroke-linejoin="round" stroke-width="1.5626527857384058"/>
      <path d="M-0.35 -0.4 Q-1.5 4.25 -2.1 8.6 L-3.2 9.5 Q-4.8 10.75 -6.85 10.9 L-10.6 10.2 -10.85 8.0 Q-11.8 3.3 -13.0 -0.4 -6.6 -6.15 -0.35 -0.4" fill="#b5b2aa" fill-rule="evenodd" stroke="none"/>
      <path d="M1.25 -6.35 L0.95 -5.35 0.85 -4.9 -0.35 -0.4 Q-6.6 -6.15 -13.0 -0.4 -13.9 -3.15 -14.95 -5.35 L-15.2 -5.85 -13.85 -6.85 Q-12.1 -7.9 -10.25 -8.45 L-6.45 -8.85 Q-4.5 -9.05 -2.65 -8.25 L0.9 -6.55 1.25 -6.35 M-2.1 8.6 Q-2.85 13.55 -2.9 18.1 -7.5 20.7 -9.9 17.7 L-10.6 10.2 -6.85 10.9 Q-4.8 10.75 -3.2 9.5 L-2.1 8.6" fill="#95938b" fill-rule="evenodd" stroke="none"/>
      <path d="M-15.2 -5.85 L-15.25 -6.0 -17.05 -9.1 2.4 -10.0 1.25 -6.35 0.9 -6.55 -2.65 -8.25 Q-4.5 -9.05 -6.45 -8.85 L-10.25 -8.45 Q-12.1 -7.9 -13.85 -6.85 L-15.2 -5.85" fill="#76756d" fill-rule="evenodd" stroke="none"/>
      <path d="M-11.2 -1.35 L-10.0 7.0 -9.65 10.55 -10.15 10.35 -10.75 4.85 -11.55 -0.15 -11.7 -1.05 -11.2 -1.35 M-9.3 10.65 L-9.3 10.6 -9.6 6.4 -10.1 1.65 -10.35 -0.15 -10.5 -1.35 -10.6 -1.8 -10.1 -1.95 -9.8 -0.15 -9.8 0.05 -9.2 5.55 -8.75 10.75 -9.3 10.65 M-9.1 -2.2 L-8.7 -2.3 -8.5 -0.3 -8.5 -0.15 -7.95 7.4 -7.75 10.85 -8.3 10.8 -8.35 10.15 -8.6 4.4 -8.9 -0.15 -8.95 -0.95 -9.1 -2.2 M-6.25 10.7 L-6.2 3.85 -6.0 -0.15 -5.95 -1.65 -5.9 -2.7 -5.2 -2.65 -5.4 -0.15 -5.65 3.1 Q-6.0 6.2 -6.0 10.4 L-6.0 10.65 -6.25 10.7 M-7.25 -2.6 L-6.95 -0.15 -6.85 1.7 -6.7 7.3 -6.7 10.75 -7.15 10.8 -7.2 7.35 -7.35 1.25 -7.4 -0.15 -7.65 -2.55 -7.25 -2.6 M-4.5 10.2 L-4.2 5.5 -3.25 -0.15 -2.9 -2.05 -2.3 -1.8 -2.1 -1.7 -2.6 -0.15 -3.55 4.5 Q-4.0 7.1 -4.05 10.0 L-4.5 10.2 M-4.2 -2.5 L-3.8 -2.4 -4.0 -0.15 -4.3 1.9 Q-4.8 4.6 -4.75 5.9 L-4.95 10.4 -5.5 10.55 -5.5 10.35 -5.15 5.35 -4.6 0.45 -4.55 -0.15 -4.2 -2.5 M-1.4 -1.25 L-1.65 -0.15 -1.85 0.95 -2.65 9.05 -3.2 9.45 -3.05 6.55 -3.0 5.75 -1.85 -0.15 -1.6 -1.4 -1.4 -1.25" fill="#cdcbc4" fill-rule="evenodd" stroke="none"/>
      <path d="M-11.7 -1.05 L-12.05 -2.55 Q-12.55 -4.8 -13.65 -6.45 -14.75 -8.1 -14.0 -7.3 -13.25 -6.55 -12.35 -4.6 L-11.35 -2.2 -11.2 -1.35 -11.7 -1.05 M-9.65 10.55 L-9.6 13.7 -9.75 16.6 -10.05 13.35 -10.15 10.35 -9.65 10.55 M-10.6 -1.8 Q-10.95 -3.7 -12.0 -6.7 -11.15 -6.0 -10.65 -3.95 L-10.1 -1.95 -10.6 -1.8 M-8.75 10.75 L-8.75 10.8 -8.8 14.35 -9.3 17.4 Q-9.15 12.85 -9.3 10.65 L-8.75 10.75 M-8.7 -2.3 L-9.1 -2.2 Q-9.4 -4.35 -10.2 -7.05 -9.1 -4.8 -8.7 -2.3 M-8.3 10.8 L-7.75 10.85 -7.85 14.7 -8.05 17.95 -8.3 15.7 -8.3 10.8 M-5.9 -2.7 L-5.65 -5.2 Q-5.4 -6.55 -5.0 -6.95 L-5.2 -2.65 -5.9 -2.7 M-6.0 10.65 L-6.05 17.6 -6.25 10.7 -6.0 10.65 M-6.7 10.75 L-6.7 13.7 Q-6.75 17.3 -7.25 17.7 L-7.15 10.8 -6.7 10.75 M-7.65 -2.55 L-7.85 -4.0 -7.9 -6.8 -7.25 -2.6 -7.65 -2.55 M-2.9 -2.05 L-1.05 -8.25 Q-1.25 -4.35 -2.1 -1.8 L-2.1 -1.7 -2.3 -1.8 -2.9 -2.05 M-4.05 10.0 L-4.0 12.45 -4.0 17.1 Q-4.5 13.35 -4.5 10.2 L-4.05 10.0 M-3.8 -2.4 L-4.2 -2.5 -3.5 -7.2 -3.8 -2.4 M-5.5 10.55 L-4.95 10.4 -5.05 17.7 Q-5.7 13.1 -5.5 10.55 M-2.65 9.05 L-2.7 9.55 -3.2 16.7 -3.2 9.45 -2.65 9.05 M-1.6 -1.4 L-1.05 -4.1 Q1.0 -10.45 -0.25 -5.55 L-1.4 -1.25 -1.6 -1.4" fill="#aaa79e" fill-rule="evenodd" stroke="none"/>
    </g>
    <g id="sprite8">
      <use ffdec:characterId="2" height="25.85" transform="matrix(1.0, 0.0, 0.0, 1.0, 0.0, 0.0)" width="29.1" xlink:href="#shape8"/>
      <use ffdec:characterId="5" height="11.7" transform="matrix(1.1218, 0.0, 0.0, 0.8263, -1.35, -9.75)" width="25.15" xlink:href="#sprite2"/>
    </g>
    <g id="shape8">
      <path d="M11.05 -8.1 Q10.85 -7.4 9.0 -6.6 9.35 -5.65 9.15 -4.4 L8.9 -3.1 7.95 -0.3 6.65 2.1 Q5.45 4.85 3.1 6.75 L-0.15 9.25 -1.4 10.1 Q-4.1 11.75 -7.2 12.65 L-11.05 12.85 -11.65 12.85 -11.75 12.85 -11.85 12.85 -12.55 12.8 -14.9 12.75 -15.0 12.75 -15.25 12.75 -15.1 12.7 -15.7 12.6 -15.8 12.6 -16.25 12.55 -16.05 12.5 -17.0 12.4 -14.55 11.3 -14.9 11.1 -14.6 10.5 Q-12.2 9.45 -10.5 7.7 -8.2 5.75 -7.6 2.9 -7.35 1.55 -7.45 0.3 -7.5 -1.3 -8.2 -2.8 L-8.4 -3.2 -9.75 -5.6 -10.7 -5.85 Q-12.8 -6.55 -12.75 -7.55 -12.75 -8.55 -9.6 -10.05 -6.5 -11.55 -1.65 -11.8 3.25 -12.0 7.35 -10.65 11.4 -9.3 11.05 -8.1" fill="#333333" fill-rule="evenodd" stroke="none"/>
      <path d="M11.05 -8.1 Q10.85 -7.4 9.0 -6.6 9.35 -5.65 9.15 -4.4 L8.9 -3.1 7.95 -0.3 6.65 2.1 Q5.45 4.85 3.1 6.75 L-0.15 9.25 -1.4 10.1 Q-4.1 11.75 -7.2 12.65 L-11.05 12.85 -11.65 12.85 -11.75 12.85 -11.85 12.85 -12.55 12.8 -14.9 12.75 -15.0 12.75 -15.25 12.75 -15.1 12.7 -15.7 12.6 -15.8 12.6 -16.25 12.55 -16.05 12.5 -17.0 12.4 -14.55 11.3 -14.9 11.1 -14.6 10.5 Q-12.2 9.45 -10.5 7.7 -8.2 5.75 -7.6 2.9 -7.35 1.55 -7.45 0.3 -7.5 -1.3 -8.2 -2.8 L-8.4 -3.2 -9.75 -5.6 -10.7 -5.85 Q-12.8 -6.55 -12.75 -7.55 -12.75 -8.55 -9.6 -10.05 -6.5 -11.55 -1.65 -11.8 3.25 -12.0 7.35 -10.65 11.4 -9.3 11.05 -8.1 Z" fill="none" stroke="#373533" stroke-linecap="round" stroke-linejoin="round" stroke-width="1.0"/>
      <path d="M6.65 2.1 Q5.45 4.85 3.1 6.75 L-0.15 9.25 Q-3.0 10.2 -5.9 9.7 -8.45 9.4 -10.5 7.7 -8.2 5.75 -7.6 2.9 -7.35 1.55 -7.45 0.3 -5.0 -1.15 -2.3 -1.95 0.7 -2.9 3.3 -1.85 6.1 -0.8 6.65 2.1" fill="#b5b2aa" fill-rule="evenodd" stroke="none"/>
      <path d="M8.9 -3.1 L7.95 -0.3 6.65 2.1 Q6.1 -0.8 3.3 -1.85 0.7 -2.9 -2.3 -1.95 -5.0 -1.15 -7.45 0.3 -7.5 -1.3 -8.2 -2.8 L-7.55 -3.45 Q-5.9 -4.7 -3.95 -5.1 L-0.25 -5.7 3.65 -5.6 Q5.55 -5.3 7.35 -4.25 L8.9 -3.1 M-0.15 9.25 L-1.4 10.1 Q-4.1 11.75 -7.2 12.65 -10.6 13.55 -13.5 11.95 L-14.9 11.1 -14.6 10.5 Q-12.2 9.45 -10.5 7.7 -8.45 9.4 -5.9 9.7 -3.0 10.2 -0.15 9.25" fill="#95938b" fill-rule="evenodd" stroke="none"/>
      <path d="M-8.2 -2.8 L-8.4 -3.2 -10.8 -7.1 Q-8.1 -9.15 -4.8 -9.2 L1.15 -9.9 Q4.9 -10.65 7.85 -8.25 9.5 -6.85 9.15 -4.4 L8.9 -3.1 7.35 -4.25 Q5.55 -5.3 3.65 -5.6 L-0.25 -5.7 -3.95 -5.1 Q-5.9 -4.7 -7.55 -3.45 L-8.2 -2.8" fill="#76756d" fill-rule="evenodd" stroke="none"/>
      <path d="M3.9 -1.75 L3.2 -0.65 2.35 0.55 1.4 1.75 0.45 2.9 -0.55 4.1 -1.5 5.1 -2.5 6.05 -3.55 6.95 -4.6 7.85 -6.1 9.05 -6.65 9.35 -7.1 9.2 -5.95 8.4 -4.8 7.55 -3.7 6.65 -2.6 5.7 -1.45 4.55 -0.3 3.4 0.7 2.1 1.65 0.75 2.55 -0.65 3.4 -2.05 3.9 -1.75 M-5.9 9.45 L-4.7 8.8 -3.5 8.0 -2.35 7.1 -1.15 6.15 0.05 5.05 1.2 3.85 2.3 2.5 3.3 1.05 4.0 -0.15 4.6 -1.3 5.0 -0.95 4.35 0.2 3.65 1.4 2.9 2.45 2.0 3.6 0.9 4.75 -0.2 5.9 -1.5 6.95 -2.85 7.95 -4.15 8.75 -5.35 9.6 -5.9 9.45 M-4.3 9.75 L-3.4 9.25 -2.5 8.65 -1.65 8.0 -0.8 7.3 0.0 6.65 0.75 5.95 1.45 5.2 2.15 4.45 2.8 3.7 3.45 2.85 4.0 1.95 5.05 0.35 5.45 -0.45 5.65 -0.15 4.75 1.5 3.8 3.05 2.75 4.5 1.65 5.75 0.5 6.9 -0.75 7.9 -2.1 8.85 -3.6 9.8 -4.3 9.75 M-3.0 9.85 L-1.8 9.2 -0.7 8.5 0.5 7.75 1.55 6.75 2.6 5.7 3.5 4.55 4.25 3.65 4.9 2.65 5.5 1.6 6.0 0.5 6.3 1.2 5.35 2.8 4.3 4.3 3.35 5.45 2.25 6.55 1.1 7.55 -0.1 8.55 -1.05 9.1 -1.95 9.8 -3.0 9.85 M-9.9 7.85 L-8.65 6.4 -7.95 5.3 -7.0 3.55 -6.3 1.7 -5.8 0.25 -5.6 -0.55 -4.9 -0.95 -5.5 0.8 -6.2 2.6 -7.05 4.2 -7.55 5.2 -8.15 6.1 -8.8 6.95 -9.6 8.05 -9.9 7.85 M-9.1 8.4 L-7.8 7.1 -6.6 5.65 -5.75 4.55 -4.95 3.4 -4.25 2.1 -3.6 0.8 -3.0 -0.5 -2.55 -1.9 -1.9 -2.05 -2.45 -0.7 -3.0 0.55 -3.65 1.8 -4.3 2.95 -5.05 4.05 -5.75 5.05 -6.4 6.05 -7.2 6.95 -8.05 7.8 -8.75 8.6 -9.1 8.4 M-8.15 8.85 L-7.2 8.15 -6.3 7.4 -5.45 6.6 -4.1 5.2 -3.05 4.05 -2.15 2.8 -1.3 1.55 -0.45 0.05 0.3 -1.6 0.65 -2.5 1.3 -2.55 0.95 -1.55 0.15 0.05 -0.6 1.25 -1.45 2.45 -2.35 3.6 -3.2 4.65 -4.4 6.1 -5.85 7.5 -7.0 8.5 -7.7 9.0 -8.15 8.85" fill="#cdcbc4" fill-rule="evenodd" stroke="none"/>
      <path d="M3.4 -2.05 L4.55 -5.3 4.7 -6.1 Q4.9 -3.75 3.9 -1.75 L3.4 -2.05 M-6.65 9.35 L-9.55 10.9 -12.3 12.1 -11.9 12.1 -12.05 12.2 -11.55 12.15 Q-8.8 11.1 -6.25 9.65 L-5.9 9.45 -5.35 9.6 -8.3 11.1 -10.3 12.0 -7.2 11.15 -4.3 9.75 -3.6 9.8 -4.55 10.3 Q-7.4 11.6 -8.4 11.9 -6.75 11.6 -5.15 10.9 L-3.0 9.85 -1.95 9.8 -4.8 11.35 Q-7.1 12.4 -9.8 12.85 L-11.65 12.85 -11.75 12.85 -11.85 12.85 -12.55 12.8 -14.9 12.75 -15.0 12.75 -15.25 12.75 -15.1 12.7 -15.7 12.6 -15.8 12.6 -16.25 12.55 -16.05 12.5 -17.0 12.4 Q-14.0 11.25 -11.7 9.45 L-9.9 7.85 -9.6 8.05 Q-11.0 9.7 -12.95 10.8 L-15.4 12.2 Q-12.75 11.1 -10.5 9.5 L-9.1 8.4 -8.75 8.6 Q-10.2 9.95 -12.0 10.9 L-13.75 11.85 Q-11.35 10.85 -9.2 9.55 L-8.15 8.85 -7.7 9.0 Q-9.25 10.15 -10.95 10.95 L-13.6 12.2 -13.55 12.2 Q-10.4 11.1 -7.65 9.5 L-7.1 9.2 -6.65 9.35 M4.6 -1.3 Q5.3 -3.0 5.5 -4.5 5.8 -7.0 5.95 -5.9 6.25 -3.95 5.15 -1.35 L5.0 -0.95 4.6 -1.3 M5.45 -0.45 Q6.7 -3.0 6.6 -4.55 L6.4 -6.55 Q8.0 -5.4 6.15 -1.2 L5.65 -0.15 5.45 -0.45 M6.0 0.5 L6.5 -0.55 Q7.6 -3.3 7.7 -4.75 L7.85 -6.7 Q8.6 -4.3 7.4 -1.2 L6.3 1.2 6.0 0.5 M-5.6 -0.55 Q-5.15 -2.65 -5.45 -4.8 L-5.55 -5.55 Q-4.45 -3.05 -4.9 -0.95 L-5.6 -0.55 M-2.55 -1.9 Q-2.1 -3.55 -2.05 -5.3 L-2.05 -6.1 Q-1.5 -3.9 -1.9 -2.05 L-2.55 -1.9 M0.65 -2.5 L1.25 -5.25 1.3 -6.05 Q1.65 -4.2 1.3 -2.55 L0.65 -2.5" fill="#aaa79e" fill-rule="evenodd" stroke="none"/>
    </g>
    <g id="sprite9">
      <use ffdec:characterId="9" height="15.3" transform="matrix(1.0, 0.0, 0.0, 1.0, 0.0, 0.0)" width="19.75" xlink:href="#shape9"/>
      <use ffdec:characterId="5" height="11.7" transform="matrix(0.881, 0.0, 0.0, 0.8263, -1.65, 2.75)" width="25.15" xlink:href="#sprite2"/>
    </g>
    <g id="shape9">
      <path d="M8.1 4.35 Q7.9 5.1 6.35 5.9 L5.8 8.35 5.5 9.25 5.3 9.85 Q3.05 16.25 -1.55 14.5 L-3.35 13.7 -3.3 13.75 -3.85 13.5 -3.95 13.35 -4.0 13.25 -6.05 11.45 -7.25 9.85 -8.05 8.35 -8.65 6.75 -9.0 6.6 Q-10.65 5.9 -10.65 4.9 -10.6 3.9 -8.15 2.4 -5.7 0.9 -1.9 0.65 1.95 0.45 5.15 1.8 8.35 3.15 8.1 4.35" fill="#333333" fill-rule="evenodd" stroke="none"/>
      <path d="M8.1 4.35 Q7.9 5.1 6.35 5.9 L5.8 8.35 5.5 9.25 5.3 9.85 Q3.05 16.25 -1.55 14.5 L-3.35 13.7 -3.3 13.75 -3.85 13.5 -3.95 13.35 -4.0 13.25 -6.05 11.45 -7.25 9.85 -8.05 8.35 -8.65 6.75 -9.0 6.6 Q-10.65 5.9 -10.65 4.9 -10.6 3.9 -8.15 2.4 -5.7 0.9 -1.9 0.65 1.95 0.45 5.15 1.8 8.35 3.15 8.1 4.35 Z" ffdec:has-small-stroke="true" ffdec:original-stroke-width="1.0" fill="none" stroke="#373533" stroke-linecap="round" stroke-linejoin="round" stroke-width="1.3515699084056145"/>
      <path d="M-7.25 9.85 Q-4.85 7.45 -1.2 7.5 2.4 7.15 5.5 9.25 L5.3 9.85 Q3.15 11.5 0.0 12.15 -3.25 12.9 -6.05 11.45 L-7.25 9.85" fill="#b5b2aa" fill-rule="evenodd" stroke="none"/>
      <path d="M-8.05 8.35 Q-5.65 6.05 -2.2 5.65 1.95 5.0 4.9 7.6 L5.8 8.35 5.5 9.25 Q2.4 7.15 -1.2 7.5 -4.85 7.45 -7.25 9.85 L-8.05 8.35 M5.3 9.85 Q3.05 16.25 -1.55 14.5 -4.3 13.5 -6.05 11.45 -3.25 12.9 0.0 12.15 3.15 11.5 5.3 9.85" fill="#95938b" fill-rule="evenodd" stroke="none"/>
      <path d="M5.8 8.35 L4.9 7.6 Q1.95 5.0 -2.2 5.65 -5.65 6.05 -8.05 8.35 L-8.95 5.6 5.55 5.25 6.45 5.25 5.8 8.35" fill="#76756d" fill-rule="evenodd" stroke="none"/>
      <path d="M0.85 7.75 L1.35 7.95 1.65 9.1 2.0 10.2 2.3 10.95 2.0 11.1 1.95 11.0 1.55 9.95 1.2 8.9 0.85 7.75 M3.15 8.9 L3.75 9.25 3.85 9.9 3.9 10.25 3.55 10.4 3.55 10.35 3.15 8.9 M0.35 11.65 L0.1 11.3 -0.45 10.3 -0.95 9.3 -1.5 7.95 -1.7 7.1 -1.2 7.2 -1.0 7.95 -0.5 9.35 0.1 10.6 0.65 11.55 0.35 11.65 M-0.85 11.95 L-1.05 12.0 -1.4 11.5 -2.15 10.55 -2.8 9.5 -3.4 8.5 -3.85 7.55 -3.45 7.35 -2.85 8.55 -2.25 9.7 -1.55 10.85 -0.85 11.95 M-6.05 9.7 L-5.75 9.2 -5.4 10.1 -5.0 10.95 -4.6 11.75 -5.1 11.55 -5.4 11.1 -6.05 9.7 M-5.45 8.7 L-5.2 8.45 -5.0 9.15 -4.25 10.5 -3.85 11.25 -3.4 12.0 -3.35 12.05 -3.85 11.95 -4.2 11.4 -4.8 10.1 -5.45 8.7 M-4.85 8.1 L-4.5 7.85 -4.1 8.85 -3.6 9.85 -2.9 11.05 -2.15 12.1 -2.6 12.1 -2.75 11.95 -3.4 10.95 -3.9 10.05 -4.35 9.05 -4.85 8.1" fill="#cdcbc4" fill-rule="evenodd" stroke="none"/>
      <path d="M0.85 7.75 Q0.65 6.25 1.25 4.55 L1.2 5.2 Q1.1 6.55 1.35 7.95 L0.85 7.75 M2.3 10.95 L2.45 11.25 2.9 12.35 3.0 12.5 2.8 12.6 2.4 11.95 2.0 11.1 2.3 10.95 M3.15 8.9 Q3.0 7.2 4.05 5.4 L3.9 5.85 Q3.5 7.55 3.75 9.25 L3.15 8.9 M3.9 10.25 L4.1 11.1 4.35 11.9 4.05 12.0 3.95 11.8 3.55 10.4 3.9 10.25 M0.35 11.65 L0.65 11.55 0.7 11.65 1.3 12.75 1.65 13.25 1.5 13.35 1.4 13.2 0.75 12.3 0.35 11.65 M-1.2 7.2 L-1.7 7.1 Q-1.9 5.75 -1.45 4.35 L-1.45 4.95 -1.2 7.2 M-0.85 11.95 L-0.05 13.0 0.6 13.75 0.35 13.85 -0.05 13.4 -0.7 12.55 -1.05 12.0 -0.85 11.95 M-3.85 7.55 Q-4.5 5.85 -4.2 4.05 L-4.15 4.7 -3.45 7.35 -3.85 7.55 M-6.05 9.7 L-6.75 7.7 Q-7.45 5.15 -6.7 3.3 L-6.75 4.85 Q-6.75 6.0 -6.05 8.3 L-5.75 9.2 -6.05 9.7 M-4.6 11.75 L-4.6 11.8 -4.15 12.45 -4.05 12.65 -3.4 13.6 -3.3 13.75 -3.85 13.5 -3.95 13.35 -4.7 12.35 -4.7 12.3 -5.1 11.55 -4.6 11.75 M-5.45 8.7 L-5.75 7.8 Q-6.95 4.35 -5.55 3.55 L-5.85 5.1 Q-6.05 6.35 -5.2 8.45 L-5.45 8.7 M-3.35 12.05 L-2.95 12.65 -2.65 12.95 -2.4 13.3 -1.9 13.95 -1.75 14.1 -2.4 14.0 -2.65 13.7 -3.4 12.7 -3.45 12.65 -3.85 11.95 -3.35 12.05 M-4.5 7.85 L-4.85 8.1 -4.9 7.75 Q-5.6 5.6 -5.2 4.1 -5.0 3.2 -4.95 5.2 L-4.5 7.85 M-2.6 12.1 L-2.15 12.1 -2.1 12.2 -1.3 13.3 -1.15 13.45 -0.55 14.05 -1.0 14.1 -1.15 13.95 -1.7 13.25 -1.95 13.0 -2.6 12.1" fill="#aaa79e" fill-rule="evenodd" stroke="none"/>
    </g>
  </defs>
</svg>
