<?xml version="1.0" encoding="UTF-8" standalone="no"?>
<svg xmlns:ffdec="https://www.free-decompiler.com/flash" xmlns:xlink="http://www.w3.org/1999/xlink" ffdec:objectType="frame" height="46.55px" width="35.1px" xmlns="http://www.w3.org/2000/svg">
  <g transform="matrix(1.0, 0.0, 0.0, 1.0, 17.7, 64.7)">
    <use ffdec:characterId="10" height="46.55" transform="matrix(1.0, 0.0, 0.0, 1.0, -0.15, -41.4)" width="35.1" xlink:href="#sprite0"/>
  </g>
  <defs>
    <g id="sprite0">
      <use ffdec:characterId="4" height="3.85" transform="matrix(1.0, 0.0, 0.0, 1.0, 0.0, 0.0)" width="3.85" xlink:href="#shape0"/>
      <use ffdec:characterId="6" height="41.0" transform="matrix(0.5281, 0.0, 0.0, 0.527, -4.35, 6.25)" width="33.9" xlink:href="#sprite1"/>
      <use ffdec:characterId="6" height="41.0" transform="matrix(-0.5281, 0.0, 0.0, 0.527, 4.35, 6.25)" width="33.9" xlink:href="#sprite1"/>
      <use ffdec:characterId="8" height="33.75" transform="matrix(1.0593, 0.0, 0.0, 1.0572, -2.6, -4.4)" width="9.4" xlink:href="#sprite2"/>
      <use ffdec:characterId="9" height="10.85" transform="matrix(1.0, 0.0, 0.0, 1.0, 0.0, 0.0)" width="6.8" xlink:href="#shape3"/>
      <use ffdec:characterId="8" height="33.75" transform="matrix(-1.0593, 0.0, 0.0, 1.0572, 2.7, -4.4)" width="9.4" xlink:href="#sprite2"/>
    </g>
    <g id="shape0">
      <path d="M0.9 2.7 L1.25 2.65 1.5 2.45 0.45 2.5 0.5 2.3 Q0.5 2.0 -0.3 2.0 -0.9 2.0 -0.9 2.3 L-0.85 2.5 -1.1 2.45 -0.7 2.6 -0.6 2.65 -0.55 3.0 Q-0.5 3.9 0.3 3.9 L0.7 3.6 0.9 2.7 M-1.15 1.8 L1.05 1.7 1.2 1.6 Q1.35 1.5 1.5 1.7 2.0 1.7 2.0 2.05 L1.65 2.4 1.6 2.85 1.25 4.2 0.75 5.25 0.55 5.4 0.4 5.1 0.4 5.0 0.5 4.6 0.3 4.6 -0.2 4.55 -0.45 4.45 -0.9 4.05 -0.9 4.2 -0.95 4.25 -1.1 4.15 -1.45 3.3 -1.85 2.2 Q-1.85 1.7 -1.65 1.7 L-1.6 1.9 -1.75 2.15 -1.6 2.3 -1.65 2.1 -1.5 1.85 -1.4 1.8 -1.15 1.8" fill="#e19e73" fill-rule="evenodd" stroke="none"/>
      <path d="M0.4 2.7 L0.9 2.7 0.7 3.6 0.3 3.9 Q-0.5 3.9 -0.55 3.0 L-0.6 2.65 -0.25 2.7 Q-0.15 3.4 0.4 3.4 L0.45 3.1 0.4 2.7 M1.65 2.4 L1.75 2.9 Q1.15 4.95 0.75 5.25 L1.25 4.2 1.6 2.85 1.65 2.4 M0.4 5.1 L0.3 4.95 0.25 4.95 -0.2 4.55 0.3 4.6 0.5 4.6 0.4 5.0 0.4 5.1 M-0.45 4.45 L-0.65 4.5 -1.1 4.15 -0.95 4.25 -0.9 4.2 -0.9 4.05 -0.45 4.45 M-1.55 1.85 Q-1.5 1.35 -1.15 1.8 L-1.4 1.8 -1.5 1.85 -1.55 1.85" fill="#f1ceb8" fill-rule="evenodd" stroke="none"/>
      <path d="M0.15 2.7 L0.4 2.7 0.45 3.1 0.4 3.4 Q-0.15 3.4 -0.25 2.7 L-0.05 2.7 0.15 2.7" fill="#f6e4d8" fill-rule="evenodd" stroke="none"/>
      <path d="M0.15 2.7 L0.45 2.5 1.5 2.45 1.25 2.65 0.9 2.7 0.4 2.7 0.15 2.7 M-0.85 2.5 L-0.7 2.6 -1.1 2.45 -0.85 2.5 M-1.6 1.9 L-1.55 1.85 -1.5 1.85 -1.65 2.1 -1.6 2.3 -1.75 2.15 -1.6 1.9" fill="#f0cbb3" fill-rule="evenodd" stroke="none"/>
      <path d="M0.45 2.5 L0.15 2.7 -0.05 2.7 -0.25 2.7 -0.6 2.65 -0.7 2.6 -0.85 2.5 -0.9 2.3 Q-0.9 2.0 -0.3 2.0 0.5 2.0 0.5 2.3 L0.45 2.5" fill="#ffffff" fill-rule="evenodd" stroke="none"/>
    </g>
    <g id="sprite1">
      <use ffdec:characterId="5" height="41.0" transform="matrix(1.0, 0.0, 0.0, 1.0, 0.0, 0.0)" width="33.9" xlink:href="#shape1"/>
    </g>
    <g id="shape1">
      <path d="M8.25 16.1 Q4.5 17.55 3.25 20.05 2.0 22.55 2.8 23.15 L3.3 23.55 8.25 23.75 8.25 25.35 Q7.75 26.3 6.25 25.8 L4.6 25.7 4.3 25.6 3.45 25.6 0.55 26.15 -3.9 27.1 -4.6 27.5 Q-6.2 27.55 -7.85 28.55 L-8.05 28.7 -8.1 28.65 -9.4 29.05 -10.55 29.5 Q-16.7 31.95 -22.15 31.95 L-24.3 31.75 -24.45 31.35 Q-24.45 31.15 -24.15 31.15 L-24.5 31.1 -23.2 29.6 -21.15 27.5 -14.9 22.0 -13.55 21.05 Q-5.85 16.5 -1.75 16.8 4.55 12.7 8.25 12.25 L8.25 16.1 M-2.35 19.35 L-9.15 22.0 Q-15.5 24.55 -17.05 25.5 -19.5 26.85 -19.5 28.65 -19.5 29.8 -17.4 29.8 L-16.75 29.8 -14.65 29.2 -14.4 29.1 Q-12.6 28.45 -10.3 27.05 L-6.3 24.2 Q-0.8 20.1 -2.35 19.35" fill="#d77717" fill-rule="evenodd" stroke="none"/>
      <path d="M8.25 16.1 L8.25 17.65 Q6.45 18.45 5.3 20.6 5.2 21.25 5.75 21.65 6.25 22.05 7.1 22.05 L8.25 21.95 8.25 23.75 3.3 23.55 2.8 23.15 Q2.0 22.55 3.25 20.05 4.5 17.55 8.25 16.1 M-5.75 22.45 L-12.0 24.55 Q-16.35 26.0 -16.35 27.3 -16.35 28.15 -15.15 28.15 -13.6 28.15 -10.0 25.9 -6.6 23.7 -5.75 22.45 M-2.35 19.35 Q-0.8 20.1 -6.3 24.2 L-10.3 27.05 Q-12.6 28.45 -14.4 29.1 L-14.65 29.2 -16.75 29.8 -17.4 29.8 Q-19.5 29.8 -19.5 28.65 -19.5 26.85 -17.05 25.5 -15.5 24.55 -9.15 22.0 L-2.35 19.35" fill="#f9bf39" fill-rule="evenodd" stroke="none"/>
      <path d="M8.25 21.95 L7.1 22.05 Q6.25 22.05 5.75 21.65 5.2 21.25 5.3 20.6 6.45 18.45 8.25 17.65 L8.25 21.95 M-5.75 22.45 Q-6.6 23.7 -10.0 25.9 -13.6 28.15 -15.15 28.15 -16.35 28.15 -16.35 27.3 -16.35 26.0 -12.0 24.55 L-5.75 22.45" fill="#fbeebf" fill-rule="evenodd" stroke="none"/>
      <path d="M8.25 25.2 L8.4 26.25 7.3 26.2 Q-1.4 25.75 -7.8 28.75 -10.25 29.9 -12.8 30.55 -16.95 32.05 -21.3 32.35 L-21.95 32.3 Q-25.0 32.15 -25.0 31.3 -25.0 30.8 -20.05 26.9 -24.2 30.4 -24.35 30.95 L-24.45 31.15 -19.85 31.5 Q-16.4 31.55 -12.8 30.2 L-10.5 29.45 -4.2 27.05 0.35 25.75 8.25 25.2" fill="#000000" fill-rule="evenodd" stroke="none"/>
      <path d="M4.75 -7.35 L5.25 -7.55 5.6 -7.5 5.7 -7.85 6.05 -7.5 5.95 -7.2 6.0 -6.95 6.35 -6.45 6.85 -5.5 7.5 -4.5 7.55 -4.45 8.2 -3.75 8.2 -3.7 8.2 -3.65 6.75 -3.65 6.3 -4.2 5.9 -5.05 5.45 -5.5 5.35 -5.9 5.1 -6.45 4.75 -6.65 4.7 -6.65 Q4.5 -6.7 4.5 -6.9 4.5 -7.2 4.75 -7.35 M5.5 -5.9 L5.95 -5.0 Q6.45 -4.2 6.8 -4.2 7.05 -4.2 7.05 -4.55 7.05 -5.35 6.3 -6.05 5.5 -6.8 5.5 -5.9" fill="#91c0ee" fill-rule="evenodd" stroke="none"/>
      <path d="M8.45 -1.1 Q8.45 -1.4 8.5 -1.1 L8.55 3.0 8.4 6.65 Q5.5 6.35 6.95 2.9 L7.25 2.1 7.1 1.75 7.05 1.7 Q7.2 1.4 6.5 0.15 5.75 -1.15 8.45 -1.1 M-8.1 5.25 L-8.6 3.85 -8.5 3.25 -8.6 2.9 -8.4 2.95 -8.4 2.4 -8.4 1.5 -8.55 1.5 -8.35 1.25 Q-8.2 1.95 -7.55 1.95 -5.85 1.95 -4.85 0.8 -4.0 -0.15 -4.0 -1.1 -4.0 -2.6 -6.2 -1.1 -8.1 0.25 -8.35 0.9 L-8.4 0.65 Q-8.4 0.15 -6.45 -1.25 L-5.4 -1.9 -5.0 -2.3 Q-4.7 -2.35 -4.1 -1.95 -3.55 -1.95 -3.35 -1.4 L-3.15 -1.25 -2.1 0.6 -1.0 2.0 -0.55 2.15 -0.05 2.05 0.05 2.0 0.05 2.05 0.05 2.1 0.1 2.15 0.6 2.35 0.65 2.25 0.6 2.15 0.6 2.1 0.5 1.9 1.05 2.3 1.3 2.45 1.45 2.4 1.5 2.25 1.5 2.2 1.6 2.25 1.7 2.35 2.25 2.3 2.35 2.3 3.3 2.4 3.35 2.35 Q3.85 2.35 3.85 2.0 L3.85 1.9 3.9 1.85 4.3 1.75 4.75 1.6 4.9 1.05 4.95 1.8 4.9 1.85 4.45 1.9 Q3.75 2.1 3.7 2.7 L3.5 3.15 3.65 3.5 3.65 3.6 3.6 3.75 3.6 4.0 3.75 4.55 3.95 4.95 3.6 4.55 3.4 4.05 2.45 4.75 Q2.5 4.0 1.85 4.3 1.1 4.65 -0.25 5.7 L-0.8 5.8 -1.55 6.0 -4.35 6.65 -4.5 6.65 -4.85 6.65 -4.9 6.65 -5.5 6.9 -5.6 6.95 -5.7 6.95 -6.05 6.8 -6.9 6.3 -6.95 6.25 -8.1 5.25 M-6.5 -4.55 L-6.5 -4.6 -6.65 -6.75 -6.6 -6.9 -5.65 -4.8 0.15 0.15 0.9 0.0 Q1.55 -0.25 2.3 -5.25 -0.15 -6.4 -3.05 -6.5 L-6.1 -6.9 -6.6 -7.0 Q-6.5 -7.3 -6.15 -7.0 L-6.1 -6.9 -6.0 -7.0 -5.3 -7.1 -4.2 -7.35 -4.35 -7.5 -0.45 -7.4 Q1.8 -6.8 2.05 -6.4 L2.3 -6.35 3.05 -6.8 4.2 -7.2 4.45 -7.4 4.75 -7.35 Q4.5 -7.2 4.5 -6.9 4.5 -6.7 4.7 -6.65 L4.75 -6.65 4.9 -6.0 5.25 -5.45 6.6 -3.65 6.45 -3.65 5.9 -3.45 5.3 -3.25 4.3 -3.5 Q3.4 -3.6 3.2 -3.25 L3.15 -4.0 3.9 -3.8 Q4.7 -3.8 4.7 -4.9 4.7 -6.55 3.75 -6.55 3.15 -6.55 2.95 -5.95 L2.9 -6.2 2.7 -6.2 2.7 -5.85 3.05 -0.85 2.0 1.75 1.7 1.7 0.25 0.9 -1.1 -0.05 -2.55 -1.35 -6.5 -4.55 M-2.95 0.85 L-3.0 0.75 -2.95 0.85 M-0.95 2.2 L-4.75 1.7 Q-6.65 1.7 -7.65 2.35 -8.45 2.85 -8.45 3.5 -8.45 4.0 -7.9 4.45 -7.15 5.0 -5.8 5.0 0.05 5.0 0.05 3.05 0.05 2.55 -0.95 2.2" fill="#1a78d5" fill-rule="evenodd" stroke="none"/>
      <path d="M8.3 -3.45 L8.25 -3.0 8.3 -2.7 6.95 -2.3 Q5.4 -1.85 5.3 -1.35 5.15 0.35 4.9 0.55 L4.9 1.05 4.75 1.6 4.3 1.75 3.9 1.85 3.85 1.9 3.85 2.0 Q3.85 2.35 3.35 2.35 L3.3 2.35 3.3 2.4 2.35 2.3 2.25 2.3 1.7 2.35 1.6 2.25 1.5 2.2 1.5 2.25 1.45 2.4 1.3 2.45 1.05 2.3 0.5 1.9 0.35 1.65 0.35 1.55 -0.05 1.05 -1.1 -0.05 0.25 0.9 1.7 1.7 2.0 1.75 3.05 -0.85 2.7 -5.85 2.7 -6.2 2.9 -6.2 2.95 -5.95 3.15 -4.0 3.2 -3.25 Q3.4 -3.6 4.3 -3.5 L5.3 -3.25 5.9 -3.45 6.15 -3.55 8.25 -3.5 8.3 -3.45 M8.4 7.7 L8.4 7.75 8.45 7.75 8.45 7.9 8.4 7.9 8.35 8.7 8.4 8.9 8.4 9.0 8.4 9.1 8.45 9.3 8.4 9.3 8.4 13.9 7.55 13.95 6.1 13.85 3.8 19.15 Q0.3 19.2 -2.15 17.65 -4.65 16.1 -5.0 16.6 L-5.45 17.05 -5.6 16.8 Q-3.4 14.55 -2.9 14.45 -3.05 13.75 -2.3 12.8 L0.85 9.05 2.3 7.2 Q3.1 5.95 2.9 5.5 2.8 5.2 2.35 5.15 L1.45 5.15 2.45 4.75 3.4 4.05 3.6 4.55 3.95 4.95 4.05 5.05 4.0 5.2 4.1 5.25 Q4.5 5.3 4.5 6.0 L4.45 7.1 4.75 6.75 4.75 6.1 4.95 6.5 5.05 6.75 6.05 7.2 7.35 7.55 8.25 7.75 8.4 7.7 M-8.25 5.35 L-8.4 5.1 -8.3 5.05 -8.1 5.25 -6.95 6.25 -6.9 6.3 -7.15 6.2 -8.15 5.55 -8.25 5.35 M4.45 7.2 L4.45 7.1 4.45 7.2 4.35 8.4 4.4 8.5 4.45 7.2 M0.8 10.3 L-0.5 12.05 -1.1 12.15 -2.4 14.25 -2.6 14.55 -2.55 14.55 -1.5 13.5 -0.95 13.1 -0.65 12.6 0.65 10.65 0.9 10.4 0.8 10.3 M2.05 10.65 Q0.7 11.75 -0.25 13.3 L-2.15 16.3 -2.05 16.2 Q2.15 18.5 3.9 15.9 5.6 13.3 6.5 10.75 L7.0 9.3 4.6 9.4 Q3.1 9.95 2.05 10.65 M-4.5 6.65 L-5.5 6.9 -4.9 6.65 -4.85 6.65 -4.5 6.65 M-5.7 6.95 L-5.85 7.0 -6.05 6.8 -5.7 6.95" fill="#0a204b" fill-rule="evenodd" stroke="none"/>
      <path d="M2.95 -5.95 Q3.15 -6.55 3.75 -6.55 4.7 -6.55 4.7 -4.9 4.7 -3.8 3.9 -3.8 L3.15 -4.0 2.95 -5.95" fill="#98c5ef" fill-rule="evenodd" stroke="none"/>
      <path d="M-8.6 2.9 L-8.8 2.2 -8.55 1.5 -8.4 1.5 -8.4 2.4 -8.4 2.95 -8.6 2.9 M-8.35 1.25 L-8.4 1.1 -8.35 0.9 Q-8.1 0.25 -6.2 -1.1 -4.0 -2.6 -4.0 -1.1 -4.0 -0.15 -4.85 0.8 -5.85 1.95 -7.55 1.95 -8.2 1.95 -8.35 1.25 M-6.6 -6.9 L-6.7 -7.05 -6.6 -7.0 -6.1 -6.9 -3.05 -6.5 Q-0.15 -6.4 2.3 -5.25 1.55 -0.25 0.9 0.0 L0.15 0.15 -5.65 -4.8 -6.6 -6.9 M1.25 -4.4 Q-1.55 -6.35 -6.2 -6.7 L-3.55 -3.75 Q0.6 -1.85 0.55 -2.45 L1.25 -4.4 M-4.8 -0.6 Q-4.8 -1.8 -6.0 -1.05 -7.25 -0.3 -7.25 0.25 -7.35 0.95 -6.55 0.95 L-5.55 0.2 -4.8 -0.6 M-2.95 0.85 L-3.0 0.75 -2.95 0.85 M-4.15 3.8 Q-3.5 3.55 -3.5 3.15 -3.5 2.35 -5.65 2.45 -7.85 2.55 -7.85 3.3 L-7.7 3.75 -5.85 4.05 -4.15 3.8 M-0.95 2.2 Q0.05 2.55 0.05 3.05 0.05 5.0 -5.8 5.0 -7.15 5.0 -7.9 4.45 -8.45 4.0 -8.45 3.5 -8.45 2.85 -7.65 2.35 -6.65 1.7 -4.75 1.7 L-0.95 2.2" fill="#569de4" fill-rule="evenodd" stroke="none"/>
      <path d="M1.25 -4.4 L0.55 -2.45 Q0.6 -1.85 -3.55 -3.75 L-6.2 -6.7 Q-1.55 -6.35 1.25 -4.4 M-4.55 -6.0 L-4.9 -5.9 Q-4.05 -4.3 -3.2 -4.3 -2.7 -4.3 -2.7 -4.8 L-3.3 -5.5 Q-3.95 -6.0 -4.55 -6.0" fill="#a8cdf0" fill-rule="evenodd" stroke="none"/>
      <path d="M8.2 -3.75 L8.2 -3.95 7.4 -5.25 7.35 -5.4 7.35 -5.5 7.6 -5.65 8.35 -5.65 8.4 -5.65 8.4 -3.65 8.3 -3.45 8.25 -3.5 6.15 -3.55 5.9 -3.45 6.45 -3.65 6.6 -3.65 6.75 -3.65 8.2 -3.65 8.2 -3.7 8.2 -3.75 M2.3 7.2 L1.45 7.2 1.6 6.85 2.35 5.15 Q2.8 5.2 2.9 5.5 3.1 5.95 2.3 7.2 M-2.8 7.2 L-9.45 7.2 Q-8.85 6.7 -8.1 6.3 L-8.15 6.15 -9.95 6.5 -10.95 6.85 -9.7 5.95 -8.25 5.35 -8.15 5.55 -7.15 6.2 -6.9 6.3 -6.05 6.8 -5.85 7.0 -5.7 6.95 -5.6 6.95 -5.5 6.9 -4.5 6.65 -4.35 6.65 -1.55 6.0 -0.8 5.8 -0.25 5.7 -1.5 6.5 -2.8 7.2 M2.05 10.65 Q3.1 9.95 4.6 9.4 L7.0 9.3 6.5 10.75 Q5.6 13.3 3.9 15.9 2.15 18.5 -2.05 16.2 L-2.15 16.3 -0.25 13.3 Q0.7 11.75 2.05 10.65 M5.65 10.8 L4.1 11.2 Q2.55 11.75 0.15 14.85 L1.3 16.05 Q2.3 17.05 4.0 14.0 L5.65 10.8" fill="#0f3f81" fill-rule="evenodd" stroke="none"/>
      <path d="M5.5 -5.9 Q5.5 -6.8 6.3 -6.05 7.05 -5.35 7.05 -4.55 7.05 -4.2 6.8 -4.2 6.45 -4.2 5.95 -5.0 L5.5 -5.9" fill="#cde0f9" fill-rule="evenodd" stroke="none"/>
      <path d="M8.3 -2.7 L8.4 -2.55 8.45 -1.1 Q5.75 -1.15 6.5 0.15 7.2 1.4 7.05 1.7 L6.9 1.8 6.8 1.65 6.3 1.5 5.85 1.55 5.15 1.75 5.1 1.8 4.95 1.85 4.95 1.8 4.9 1.05 4.9 0.55 Q5.15 0.35 5.3 -1.35 5.4 -1.85 6.95 -2.3 L8.3 -2.7 M8.4 6.65 L8.4 7.45 8.4 7.7 8.25 7.75 7.35 7.55 6.05 7.2 5.05 6.75 4.95 6.5 4.75 6.1 4.75 6.75 4.45 7.1 4.5 6.0 Q4.5 5.3 4.1 5.25 L4.0 5.2 4.05 5.05 4.25 5.1 4.4 5.0 4.5 5.0 5.95 3.65 7.1 2.05 7.1 1.75 7.25 2.1 6.95 2.9 Q5.5 6.35 8.4 6.65" fill="#114d88" fill-rule="evenodd" stroke="none"/>
      <path d="M4.95 1.8 L4.95 1.85 5.1 1.8 5.15 1.75 5.85 1.55 6.3 1.5 6.8 1.65 6.9 1.8 6.55 1.95 6.55 2.0 6.5 2.05 6.5 2.1 Q5.1 4.15 4.2 4.15 3.65 4.15 3.65 3.6 L3.65 3.5 3.5 3.15 3.7 2.7 4.1 2.3 4.4 2.15 Q4.6 1.95 4.9 1.85 L4.95 1.8 M-4.55 -6.0 Q-3.95 -6.0 -3.3 -5.5 L-2.7 -4.8 Q-2.7 -4.3 -3.2 -4.3 -4.05 -4.3 -4.9 -5.9 L-4.55 -6.0 M-4.8 -0.6 L-5.55 0.2 -6.55 0.95 Q-7.35 0.95 -7.25 0.25 -7.25 -0.3 -6.0 -1.05 -4.8 -1.8 -4.8 -0.6 M-4.15 3.8 L-5.85 4.05 -7.7 3.75 -7.85 3.3 Q-7.85 2.55 -5.65 2.45 -3.5 2.35 -3.5 3.15 -3.5 3.55 -4.15 3.8" fill="#ffffff" fill-rule="evenodd" stroke="none"/>
      <path d="M4.9 1.85 Q4.6 1.95 4.4 2.15 L4.1 2.3 3.7 2.7 Q3.75 2.1 4.45 1.9 L4.9 1.85 M3.65 3.6 Q3.65 4.15 4.2 4.15 5.1 4.15 6.5 2.1 L6.5 2.05 6.55 2.0 6.55 1.95 6.9 1.8 7.05 1.7 7.1 1.75 7.1 2.05 5.95 3.65 4.5 5.0 4.4 5.0 4.25 5.1 4.05 5.05 3.95 4.95 3.75 4.55 3.6 4.0 3.6 3.75 3.65 3.6" fill="#e19e73" fill-rule="evenodd" stroke="none"/>
      <path d="M-5.0 -2.3 L-5.1 -2.6 -4.95 -2.85 -5.75 -3.7 -6.45 -4.5 -6.65 -4.7 -6.5 -4.55 -2.55 -1.35 -1.1 -0.05 -0.05 1.05 0.35 1.55 0.35 1.65 0.5 1.9 0.6 2.1 0.6 2.15 0.65 2.25 0.6 2.35 0.1 2.15 0.05 2.1 0.05 2.05 0.05 2.0 -0.05 2.05 -0.55 2.15 -1.0 2.0 -2.1 0.6 -3.15 -1.25 -3.35 -1.4 Q-3.55 -1.95 -4.1 -1.95 -4.7 -2.35 -5.0 -2.3 M3.35 2.35 L3.3 2.4 3.3 2.35 3.35 2.35" fill="#14497c" fill-rule="evenodd" stroke="none"/>
      <path d="M1.45 7.2 L-2.8 7.2 -1.5 6.5 -0.25 5.7 Q1.1 4.65 1.85 4.3 2.5 4.0 2.45 4.75 L1.45 5.15 2.35 5.15 1.6 6.85 1.45 7.2 M-9.45 7.2 L-11.45 7.2 -10.95 6.85 -9.95 6.5 -8.15 6.15 -8.1 6.3 Q-8.85 6.7 -9.45 7.2" fill="#217bd6" fill-rule="evenodd" stroke="none"/>
      <path d="M4.45 7.1 L4.45 7.2 4.45 7.1" fill="#0c3763" fill-rule="evenodd" stroke="none"/>
      <path d="M5.65 10.8 L4.0 14.0 Q2.3 17.05 1.3 16.05 L0.15 14.85 Q2.55 11.75 4.1 11.2 L5.65 10.8" fill="#1f73c7" fill-rule="evenodd" stroke="none"/>
      <path d="M1.45 7.2 L2.3 7.2 -0.7 11.45 -4.0 15.5 -5.4 16.9 -6.05 17.55 -6.8 18.5 -8.95 20.65 -10.45 21.85 -13.9 23.45 -14.85 23.6 -17.3 23.95 -17.55 23.85 -17.5 23.9 -21.1 24.35 Q-22.3 24.35 -22.15 23.25 -22.05 22.15 -20.3 20.7 -18.55 19.2 -18.0 18.15 L-16.65 15.65 -15.4 13.05 -14.3 10.55 -13.4 8.9 -12.25 7.95 -12.35 8.05 -12.3 7.95 -12.0 7.8 -12.55 8.35 -12.55 8.4 -12.75 8.6 -14.0 10.7 -14.95 13.35 Q-12.75 9.95 -9.45 7.2 L-2.8 7.2 -7.8 10.6 Q-13.8 14.55 -14.8 15.7 L-17.65 18.8 -20.9 22.1 -21.05 22.1 -20.95 22.1 Q-21.9 22.95 -21.75 23.6 -21.6 24.2 -16.95 22.95 L-15.8 22.6 Q-12.15 21.5 -11.4 20.75 L-11.1 20.4 -11.0 20.3 -10.65 20.05 -7.15 16.95 -6.1 15.85 Q-1.3 11.45 1.45 7.2" fill="#0f3f81" fill-rule="evenodd" stroke="none"/>
      <path d="M4.1 8.4 L4.45 7.2 4.1 8.4" fill="#0c3763" fill-rule="evenodd" stroke="none"/>
      <path d="M-11.8 7.6 L-11.45 7.2 -9.45 7.2 Q-12.75 9.95 -14.95 13.35 L-14.0 10.7 -12.75 8.6 -12.55 8.4 -13.45 9.95 -13.25 10.3 -11.95 8.95 -11.0 7.6 -11.05 7.45 -11.8 7.6 M-2.8 7.2 L1.45 7.2 Q-1.3 11.45 -6.1 15.85 L-7.15 16.95 -10.65 20.05 -11.0 20.3 -11.1 20.4 -11.4 20.75 Q-12.15 21.5 -15.8 22.6 L-16.95 22.95 Q-21.6 24.2 -21.75 23.6 -21.9 22.95 -20.95 22.1 L-21.05 22.1 -20.9 22.1 -17.65 18.8 -14.8 15.7 Q-13.8 14.55 -7.8 10.6 L-2.8 7.2 M-11.6 20.1 L-11.2 19.9 -11.15 19.85 -9.95 18.8 -9.9 18.75 Q-6.9 16.3 0.3 7.85 -11.45 18.55 -15.0 17.15 -17.9 20.2 -21.0 22.75 -19.15 23.8 -11.6 20.1" fill="#217bd6" fill-rule="evenodd" stroke="none"/>
      <path d="M-12.0 7.8 L-11.95 7.75 -11.8 7.6 -11.05 7.45 -11.0 7.6 -11.95 8.95 -13.25 10.3 -13.45 9.95 -12.55 8.4 -12.55 8.35 -12.0 7.8 M-11.6 20.1 Q-19.15 23.8 -21.0 22.75 -17.9 20.2 -15.0 17.15 -11.45 18.55 0.3 7.85 -6.9 16.3 -9.9 18.75 L-5.3 14.0 Q-13.3 19.6 -16.95 19.9 L-11.6 20.1" fill="#89bced" fill-rule="evenodd" stroke="none"/>
      <path d="M-9.9 18.75 L-9.95 18.8 -11.15 19.85 -11.2 19.9 -11.6 20.1 -16.95 19.9 Q-13.3 19.6 -5.3 14.0 L-9.9 18.75" fill="#e1effb" fill-rule="evenodd" stroke="none"/>
      <path d="M5.9 -7.7 L5.85 -7.55 4.55 -7.35 6.8 -3.55 7.2 -3.55 7.25 -3.5 7.25 -3.35 5.3 -3.15 3.35 -3.1 2.9 -4.4 2.5 -6.1 Q1.0 -7.75 -6.5 -6.8 L-6.5 -4.7 -1.85 -0.55 -4.55 -2.45 Q-7.5 0.35 -8.45 2.9 L-8.45 3.55 Q-8.35 4.75 -7.15 5.7 -6.7 6.1 -6.05 6.25 L-4.0 6.3 -3.7 6.25 -0.85 5.9 -1.85 6.25 -3.4 6.75 -5.35 7.1 -7.2 6.85 -8.45 6.2 -8.75 5.8 Q-12.55 7.75 -15.15 13.2 -15.95 15.9 -16.95 17.7 -18.45 20.15 -20.9 21.95 L-21.45 22.65 Q-21.6 23.15 -21.4 23.35 L-21.4 23.6 -17.45 23.9 Q-14.3 23.35 -11.05 21.2 -7.85 19.0 -4.9 16.2 -1.9 13.3 0.55 10.25 L2.9 7.0 3.15 6.3 3.2 6.25 3.0 6.25 3.1 5.9 3.5 3.2 3.55 2.65 -1.8 1.95 -4.0 1.55 -4.8 1.45 -4.0 1.35 -2.1 1.7 3.4 2.15 3.6 2.15 Q3.65 1.8 4.25 1.6 4.85 1.3 5.25 1.6 L4.8 1.75 4.7 1.75 Q4.3 1.75 4.0 2.05 L3.85 2.25 3.6 4.15 3.7 4.9 3.95 4.9 Q4.55 4.95 5.15 4.35 L6.1 3.25 6.55 2.85 6.9 2.15 Q6.85 1.45 6.15 1.45 5.8 1.45 5.6 1.6 L5.5 1.6 Q5.9 1.4 6.25 1.35 7.3 1.2 7.3 2.0 7.25 2.75 6.25 4.3 5.25 5.8 4.9 5.7 4.55 5.65 3.6 6.2 L3.55 6.25 1.5 9.75 Q-0.8 13.25 -3.4 16.05 L-3.85 16.5 -1.0 17.7 Q1.65 18.8 3.25 18.8 3.8 18.6 5.5 14.85 L8.2 8.75 8.25 8.7 8.25 8.85 Q6.8 15.35 5.45 17.85 4.1 20.35 3.25 20.35 2.4 20.3 -1.15 18.55 L-4.2 16.9 -8.8 21.05 Q-11.65 23.3 -16.7 24.7 L-21.95 25.55 Q-23.6 22.15 -21.95 21.3 L-21.65 21.05 -18.85 18.9 Q-17.55 17.55 -16.95 16.2 -16.4 14.85 -15.8 12.0 -15.25 9.15 -11.95 6.6 L-9.1 4.5 -10.05 1.75 Q-9.15 0.0 -5.3 -2.8 L-6.95 -2.8 -7.5 -7.0 Q-6.3 -8.0 -3.9 -8.15 L0.55 -7.8 3.05 -7.45 Q4.35 -7.85 4.5 -8.65 L5.85 -7.85 5.9 -7.7 M6.1 -7.35 L6.15 -7.35 7.15 -5.6 7.15 -5.65 8.6 -5.65 8.9 -5.6 8.9 -5.5 7.95 -5.45 7.25 -5.45 8.25 -3.85 8.15 -3.8 Q6.05 -6.55 6.05 -7.2 L6.1 -7.35 M2.8 -6.65 L2.95 -6.15 3.4 -3.6 4.4 -3.45 6.0 -3.55 6.7 -3.55 Q6.25 -3.85 5.35 -5.25 4.5 -6.55 4.3 -7.25 L4.1 -7.2 2.8 -6.65 M3.35 4.9 L3.55 4.25 3.5 4.25 3.35 4.9 M-9.0 4.7 L-9.1 4.9 -8.95 4.7 -9.0 4.7" fill="#000000" fill-rule="evenodd" stroke="none"/>
      <path d="M5.35 -2.85 L5.05 1.75 4.75 1.65 4.65 1.65 4.7 0.2 4.85 -1.4 Q4.95 -2.4 5.35 -2.85 M4.45 5.2 L4.8 5.05 4.5 8.85 4.3 8.9 4.45 5.2" fill="#000000" fill-rule="evenodd" stroke="none"/>
    </g>
    <g id="sprite2">
      <use ffdec:characterId="7" height="33.75" transform="matrix(1.0, 0.0, 0.0, 1.0, 0.0, 0.0)" width="9.4" xlink:href="#shape2"/>
    </g>
    <g id="shape2">
      <path d="M4.7 -5.0 L4.65 -4.95 4.6 -4.95 4.7 -5.0 M2.6 -5.35 L2.6 -5.0 2.5 -5.4 2.15 -6.05 2.35 -6.05 2.55 -6.0 2.6 -5.45 2.6 -5.4 2.6 -5.35 M-1.8 -2.35 L-1.65 -0.7 Q-1.65 0.45 -2.6 0.45 -3.7 0.45 -3.8 -1.15 L-3.85 -1.65 -3.65 -2.35 -3.55 -2.7 -3.3 -3.05 -3.1 -3.5 -3.05 -3.45 -2.6 -4.05 -2.15 -4.6 -1.15 -5.15 0.1 -5.55 0.35 -5.65 0.6 -5.7 0.75 -5.75 1.05 -5.85 1.45 -4.7 1.35 -4.7 0.65 -4.6 0.35 -4.55 0.3 -4.55 -0.15 -4.55 -0.55 -4.25 -1.8 -2.8 -1.8 -2.85 -1.75 -3.05 -1.85 -3.2 -1.9 -3.2 Q-2.15 -3.4 -2.95 -2.6 L-2.45 -2.55 -3.1 -1.8 -2.4 -2.0 -2.7 -0.1 -2.3 0.3 Q-1.9 0.3 -1.9 -0.55 -1.9 -1.35 -2.2 -2.1 -1.95 -2.25 -1.8 -2.35 M1.6 7.05 L1.3 7.15 Q-0.5 8.25 -2.45 9.0 -3.6 9.45 -3.4 10.4 -2.55 11.4 -1.35 10.55 L0.45 9.0 0.95 8.4 1.3 7.65 1.6 7.05 M-2.55 2.85 Q-2.15 4.2 -1.35 5.0 -0.2 6.15 0.85 6.25 L2.35 6.5 Q2.75 6.55 2.1 7.95 L2.05 7.9 1.65 9.0 0.1 11.55 Q-1.95 14.45 -2.0 15.85 L-2.1 15.85 -2.2 15.15 Q-2.2 13.8 -0.2 11.05 L1.0 9.0 1.3 8.3 0.9 9.0 -0.45 10.5 Q-2.15 11.85 -3.45 10.85 -3.85 10.65 -3.85 10.1 -3.9 9.5 -3.1 9.0 L-1.85 8.45 0.6 7.5 1.25 6.6 1.35 6.4 1.3 6.45 Q-0.35 6.45 -1.6 5.15 -2.7 4.0 -2.7 2.85 L-2.6 2.8 -2.55 2.85 M-0.8 12.1 Q-1.7 13.35 -1.15 12.85 L0.85 9.95 -0.8 12.1" fill="#000000" fill-rule="evenodd" stroke="none"/>
      <path d="M-2.6 2.8 L-2.9 2.55 -3.35 1.9 -3.65 0.8 -3.6 0.55 -3.0 0.45 Q-2.75 0.45 -2.55 0.75 L-2.4 0.6 Q-2.2 0.6 -2.2 0.95 L-2.3 1.25 -2.15 2.6 -2.35 2.9 -2.55 2.85 -2.6 2.8 M-2.35 2.6 L-2.3 2.35 Q-2.3 1.7 -2.75 1.3 -3.25 0.9 -3.25 1.5 L-2.5 2.65 -2.35 2.6" fill="#e19e73" fill-rule="evenodd" stroke="none"/>
      <path d="M-2.35 2.6 L-2.5 2.65 -3.25 1.5 Q-3.25 0.9 -2.75 1.3 -2.3 1.7 -2.3 2.35 L-2.35 2.6" fill="#f8e9df" fill-rule="evenodd" stroke="none"/>
      <path d="M-1.8 -2.8 L-1.8 -2.75 -1.75 -2.45 -1.8 -2.35 Q-1.95 -2.25 -2.2 -2.1 -1.9 -1.35 -1.9 -0.55 -1.9 0.3 -2.3 0.3 L-2.7 -0.1 -2.4 -2.0 -3.1 -1.8 -2.45 -2.55 -2.95 -2.6 Q-2.15 -3.4 -1.9 -3.2 -2.45 -3.2 -2.45 -2.75 L-2.2 -2.55 -1.9 -2.75 -1.8 -2.85 -1.8 -2.8" fill="#595959" fill-rule="evenodd" stroke="none"/>
      <path d="M-1.9 -3.2 L-1.85 -3.2 -1.75 -3.05 -1.8 -2.85 -1.9 -2.75 -2.2 -2.55 -2.45 -2.75 Q-2.45 -3.2 -1.9 -3.2" fill="#999999" fill-rule="evenodd" stroke="none"/>
      <path d="M-0.8 12.1 L0.85 9.95 -1.15 12.85 Q-1.7 13.35 -0.8 12.1" fill="#cccccc" fill-rule="evenodd" stroke="none"/>
      <path d="M-1.45 -1.35 L-1.7 -2.4 Q-1.7 -3.2 -0.7 -4.0 0.45 -4.9 2.0 -4.95 L2.35 -4.95 2.4 -4.9 2.5 -5.0 2.65 -4.1 2.65 -4.05 Q1.65 -4.4 0.0 -3.45 -1.05 -2.9 -1.45 -1.35 M2.6 5.75 L2.65 6.05 2.4 6.0 2.05 6.0 Q1.2 6.0 0.15 5.25 L-0.4 4.85 -0.95 4.4 -1.9 3.4 -2.4 1.0 -1.7 -0.2 -1.5 2.6 Q-1.25 4.75 2.6 5.75 M2.45 -4.5 L2.45 -4.3 2.45 -4.5" fill="#e19e73" fill-rule="evenodd" stroke="none"/>
      <path d="M2.7 -3.65 L2.7 -3.5 2.65 2.55 2.65 3.3 Q2.45 3.4 2.45 3.65 L2.5 3.9 2.55 4.8 2.3 4.8 Q1.9 4.8 1.8 4.6 L1.65 4.6 Q-1.5 3.2 -0.8 -0.3 -0.15 -3.85 2.7 -3.65" fill="#ffffff" fill-rule="evenodd" stroke="none"/>
      <path d="M2.65 -4.05 L2.7 -3.75 2.7 -3.65 Q-0.15 -3.85 -0.8 -0.3 -1.5 3.2 1.65 4.6 L1.8 4.6 Q1.9 4.8 2.3 4.8 L2.55 4.8 2.6 5.75 Q-1.25 4.75 -1.5 2.6 L-1.7 -0.2 -1.45 -1.15 -1.45 -1.35 Q-1.05 -2.9 0.0 -3.45 1.65 -4.4 2.65 -4.05" fill="#f1ceb8" fill-rule="evenodd" stroke="none"/>
      <path d="M2.65 -6.2 L2.65 -6.1 Q0.45 -5.8 -1.6 -4.9 L-2.9 -3.65 Q-4.35 -1.8 -3.5 -0.6 L-2.7 0.35 -2.35 0.35 Q-1.6 0.35 -1.75 -1.65 L-1.9 -2.25 Q-2.05 -3.55 -0.6 -4.35 L-0.6 -4.4 -0.75 -4.55 -0.6 -4.55 1.85 -4.95 2.15 -5.0 2.65 -5.0 2.65 -4.95 2.4 -4.9 0.3 -4.55 -0.35 -4.4 -0.6 -4.2 Q-1.4 -3.5 -1.6 -2.5 L-1.6 -2.25 -1.55 -1.65 -1.5 -1.4 Q-1.45 -0.85 -1.7 0.1 L-1.75 0.3 -1.85 0.45 Q-2.05 0.7 -2.4 0.8 L-2.4 0.95 -2.6 0.9 -2.75 0.85 -2.8 0.85 -2.9 0.8 -3.55 0.4 -3.85 -1.2 Q-4.1 -2.5 -2.9 -4.0 L-2.1 -4.9 Q-0.05 -6.1 2.4 -6.2 L2.65 -6.2 M0.45 -1.25 Q0.45 -1.45 1.15 -1.45 1.5 -1.45 1.5 -1.25 1.5 -1.0 0.9 -1.0 0.45 -1.0 0.45 -1.25 M0.35 1.0 L-0.35 0.8 -0.95 1.05 -1.65 1.3 -1.05 0.7 -0.85 0.45 -0.5 0.1 0.3 -0.05 Q1.05 -0.05 1.35 0.7 1.35 1.2 1.0 1.2 L0.35 1.0" fill="#000000" fill-rule="evenodd" stroke="none"/>
      <path d="M2.65 4.65 L2.65 5.25 2.65 5.7 0.85 2.05 0.95 2.05 2.65 2.3 2.65 2.65 1.65 2.65 1.6 2.55 1.6 2.65 1.75 2.95 2.1 3.7 2.55 4.5 2.6 4.55 2.65 4.65" fill="#852525" fill-rule="evenodd" stroke="none"/>
      <path d="M-0.1 2.45 Q-0.1 2.8 -0.65 2.8 -1.45 2.8 -1.45 2.5 -1.45 2.15 -0.75 2.15 -0.1 2.15 -0.1 2.45" fill="#f47979" fill-rule="evenodd" stroke="none"/>
      <path d="M2.65 4.65 L2.6 4.55 2.45 4.2 2.55 4.5 2.1 3.7 1.75 2.95 1.6 2.65 1.6 2.55 1.65 2.65 2.65 2.65 2.65 4.65" fill="#ff0000" fill-rule="evenodd" stroke="none"/>
      <path d="M2.2 6.05 Q0.5 6.25 -1.05 4.9 -2.65 3.55 -2.35 0.45 -2.35 3.1 -0.7 4.6 0.7 5.85 2.35 6.0 L2.4 6.0 3.0 6.0 3.05 6.05 1.8 6.1 2.2 6.05" fill="#000000" fill-rule="evenodd" stroke="none"/>
      <path d="M-2.1 2.7 L-2.05 2.7 -2.0 2.85 -1.95 2.9 -2.6 2.9 Q-3.15 2.8 -3.45 2.1 -3.8 1.4 -3.75 0.75 L-3.65 -0.15 -3.4 0.15 -3.45 0.25 -3.45 0.45 -3.45 0.55 -3.15 1.7 Q-2.8 2.7 -2.1 2.7" fill="#000000" fill-rule="evenodd" stroke="none"/>
      <path d="M-3.45 -8.7 L-3.7 -8.65 Q-3.8 -8.55 -4.0 -8.55 L-4.45 -8.7 -4.65 -8.95 -4.6 -9.1 Q-4.5 -9.25 -4.55 -9.3 L-2.65 -9.2 -0.35 -9.15 -0.2 -8.95 Q-0.2 -8.65 -0.6 -8.65 L-0.85 -8.7 -0.75 -8.7 -0.7 -8.8 -0.7 -8.95 -2.4 -9.0 -3.65 -9.0 -4.05 -8.85 -4.05 -8.8 -3.65 -8.75 -3.45 -8.7" fill="#1a1a1a" fill-rule="evenodd" stroke="none"/>
      <path d="M-3.45 -8.7 L-3.65 -8.75 -4.05 -8.8 -4.05 -8.85 -3.65 -9.0 -2.4 -9.0 -0.7 -8.95 -0.7 -8.8 -0.75 -8.7 -0.85 -8.7 -2.2 -8.65 -3.45 -8.7" fill="#999999" fill-rule="evenodd" stroke="none"/>
      <path d="M-4.35 -8.9 L-4.3 -8.7 -0.8 -8.95 -0.4 -8.9 -0.5 -9.1 -1.3 -9.1 -4.25 -9.15 -4.35 -8.9 M-4.2 -9.2 L-0.4 -9.2 -0.4 -9.3 Q-0.05 -9.2 -0.05 -9.0 L-0.15 -8.6 -0.25 -8.6 Q-0.3 -8.35 -0.85 -8.35 L-4.25 -8.55 -4.5 -8.5 Q-4.7 -8.5 -4.7 -8.9 L-4.6 -9.2 -4.3 -9.2 -4.2 -9.2" fill="#000000" fill-rule="evenodd" stroke="none"/>
      <path d="M2.55 -12.85 L2.55 -12.35 2.5 -12.3 1.85 -12.4 1.75 -12.45 1.5 -12.45 1.45 -12.45 1.35 -12.45 1.3 -12.45 0.7 -12.2 0.6 -12.4 0.8 -12.65 0.8 -12.75 0.95 -14.25 1.0 -14.8 0.75 -14.75 0.15 -14.9 0.3 -16.7 0.45 -17.3 0.6 -17.5 0.75 -17.7 1.4 -17.85 2.55 -17.85 2.8 -17.5 2.8 -17.45 2.6 -17.1 2.55 -17.05 2.6 -16.75 Q1.5 -16.7 1.5 -14.9 1.5 -13.1 2.25 -12.8 L2.5 -12.8 2.55 -12.85 M1.25 -16.9 L1.05 -16.9 1.05 -16.75 1.25 -16.9" fill="#777d8b" fill-rule="evenodd" stroke="none"/>
      <path d="M2.6 -16.75 L2.6 -16.45 2.55 -16.45 2.55 -16.35 Q1.95 -16.4 1.95 -15.3 1.95 -14.2 2.2 -13.95 2.45 -13.75 2.55 -13.85 L2.55 -13.25 2.6 -13.25 2.55 -13.05 2.55 -12.9 2.55 -12.85 2.5 -12.8 2.25 -12.8 Q1.5 -13.1 1.5 -14.9 1.5 -16.7 2.6 -16.75" fill="#9ba0a8" fill-rule="evenodd" stroke="none"/>
      <path d="M0.15 -14.9 L0.05 -14.9 Q-0.6 -15.95 0.2 -17.0 L0.45 -17.3 0.3 -16.7 0.15 -14.9" fill="#bfc5c8" fill-rule="evenodd" stroke="none"/>
      <path d="M2.65 -11.45 L3.1 -11.1 Q3.1 -10.8 2.8 -10.75 L2.7 -10.75 Q2.05 -10.75 2.05 -11.15 2.05 -11.5 2.6 -11.45 L2.65 -11.45 M2.7 -7.6 Q3.1 -7.6 3.1 -7.35 L2.75 -7.0 2.35 -7.0 Q1.7 -7.0 1.7 -7.3 1.7 -7.55 2.4 -7.6 L2.7 -7.6" fill="#dbdddf" fill-rule="evenodd" stroke="none"/>
      <path d="M2.5 -12.3 L2.55 -12.3 2.55 -11.9 2.2 -11.95 1.85 -11.95 Q0.25 -11.95 0.45 -10.55 0.6 -9.15 2.35 -9.2 L2.55 -9.2 2.55 -8.7 2.5 -8.65 2.55 -8.65 2.6 -8.0 Q0.2 -8.1 -0.7 -7.2 L-0.75 -7.15 Q-1.85 -6.1 2.75 -5.9 2.8 -3.85 2.55 -4.3 L2.05 -4.25 0.25 -4.3 Q-1.95 -4.85 -2.5 -5.3 -2.85 -5.6 -2.85 -6.5 -2.85 -7.2 -1.85 -7.85 L-0.25 -8.45 -0.6 -8.55 Q-0.9 -8.65 -0.9 -9.1 L-0.35 -10.8 Q0.1 -11.85 0.7 -12.2 L1.3 -12.45 1.35 -12.45 1.45 -12.45 1.5 -12.45 1.85 -12.4 2.5 -12.3" fill="#3e4154" fill-rule="evenodd" stroke="none"/>
      <path d="M2.6 -11.5 L2.65 -11.45 2.6 -11.45 Q2.05 -11.5 2.05 -11.15 2.05 -10.75 2.7 -10.75 L2.8 -10.75 2.65 -10.3 1.55 -10.45 Q1.4 -11.65 2.6 -11.5" fill="#a0a7b4" fill-rule="evenodd" stroke="none"/>
      <path d="M2.55 -11.9 L2.6 -11.9 2.6 -11.5 Q1.4 -11.65 1.55 -10.45 L2.65 -10.3 2.6 -9.9 2.55 -9.7 2.55 -9.3 2.6 -9.3 2.6 -9.25 2.6 -9.2 2.55 -9.2 2.35 -9.2 Q0.6 -9.15 0.45 -10.55 0.25 -11.95 1.85 -11.95 L2.2 -11.95 2.55 -11.9 M2.6 -8.0 L2.65 -7.75 2.2 -7.75 0.4 -7.4 0.0 -7.0 2.75 -6.9 2.8 -6.15 2.8 -6.05 2.75 -5.9 Q-1.85 -6.1 -0.75 -7.15 L-0.7 -7.2 Q0.2 -8.1 2.6 -8.0" fill="#575e75" fill-rule="evenodd" stroke="none"/>
      <path d="M2.65 -7.75 L2.7 -7.75 2.7 -7.6 2.4 -7.6 Q1.7 -7.55 1.7 -7.3 1.7 -7.0 2.35 -7.0 L2.75 -7.0 2.75 -6.95 3.4 -6.9 Q4.3 -6.9 2.75 -6.9 L0.0 -7.0 0.4 -7.4 2.2 -7.75 2.65 -7.75" fill="#8b92a7" fill-rule="evenodd" stroke="none"/>
      <path d="M2.55 -16.35 L2.55 -13.85 Q2.45 -13.75 2.2 -13.95 1.95 -14.2 1.95 -15.3 1.95 -16.4 2.55 -16.35" fill="#e3e6e8" fill-rule="evenodd" stroke="none"/>
      <path d="M1.1 -16.55 L1.1 -16.35 0.85 -12.3 1.15 -12.45 1.4 -12.45 2.4 -12.55 4.3 -12.35 2.25 -12.3 Q0.8 -12.3 0.4 -11.9 -0.3 -11.45 -0.85 -9.0 L-0.85 -8.9 -0.9 -8.6 0.2 -8.7 3.45 -8.7 -0.05 -8.3 Q-1.3 -8.1 -1.8 -7.75 -2.7 -7.1 -2.7 -6.4 -2.7 -4.6 1.85 -4.4 L3.2 -4.35 3.2 -3.95 1.7 -3.8 Q0.05 -3.8 -1.5 -4.35 -3.35 -4.9 -3.35 -5.85 -3.35 -6.8 -2.6 -7.65 L-1.65 -8.3 -1.15 -8.55 -1.05 -8.9 -0.6 -10.6 -0.2 -11.6 0.6 -12.2 0.85 -16.55 1.1 -16.55" fill="#000000" fill-rule="evenodd" stroke="none"/>
      <path d="M0.85 -16.55 L0.85 -16.8 Q0.85 -16.9 1.1 -17.0 L2.7 -17.15 2.35 -17.05 2.3 -17.05 Q1.15 -17.05 1.1 -16.55 L0.85 -16.55" fill="#484848" fill-rule="evenodd" stroke="none"/>
      <path d="M-0.05 -16.4 L-0.2 -15.1 0.85 -14.95 0.85 -14.85 -0.5 -14.85 -0.55 -15.0 -0.3 -16.4 -0.05 -16.4" fill="#000000" fill-rule="evenodd" stroke="none"/>
      <path d="M-0.3 -16.4 L-0.25 -16.6 0.0 -17.05 0.35 -17.5 0.7 -17.5 0.3 -17.2 0.2 -17.05 -0.05 -16.4 -0.3 -16.4" fill="#484848" fill-rule="evenodd" stroke="none"/>
      <path d="M0.35 -17.5 Q0.75 -17.9 1.4 -17.9 L3.0 -17.85 0.7 -17.5 0.35 -17.5" fill="#8c8c8c" fill-rule="evenodd" stroke="none"/>
    </g>
    <g id="shape3">
      <path d="M-5.6 1.55 L-5.55 1.6 -4.65 3.05 -4.55 3.25 -4.3 3.65 -3.75 4.55 -2.3 6.95 -2.3 7.05 -2.1 7.35 -2.05 7.4 -2.2 7.5 -4.9 3.55 -6.65 0.85 Q-5.9 -0.55 -4.0 -0.2 L-3.45 1.05 -1.2 6.9 -1.3 6.95 -4.4 0.2 -4.9 0.2 -4.95 0.2 Q-5.4 0.2 -5.65 0.55 L-5.75 0.7 -5.9 0.95 -5.95 1.0 -5.6 1.55 M-1.0 8.05 L-0.75 7.8 -0.7 7.8 -0.5 8.35 0.15 10.1 Q-0.15 11.0 -0.75 10.35 L-1.6 8.95 -1.45 8.7 -0.95 9.8 -0.7 10.1 -0.7 10.15 -0.45 10.2 -0.35 10.2 -0.25 10.2 -0.2 10.15 -0.1 9.95 -0.2 9.65 -0.25 9.4 -1.0 8.05" fill="#000000" fill-rule="evenodd" stroke="none"/>
      <path d="M-0.25 10.15 L-0.25 10.2 -0.3 10.15 -0.25 10.15" fill="#84511e" fill-rule="evenodd" stroke="none"/>
      <path d="M-1.2 8.4 L-1.1 8.25 -0.95 8.6 -1.1 8.45 -1.15 8.45 -1.15 8.5 -1.2 8.4" fill="#c79727" fill-rule="evenodd" stroke="none"/>
      <path d="M-4.65 3.05 L-5.45 1.45 Q-5.45 0.7 -4.4 2.5 -3.45 4.3 -3.45 4.7 L-3.25 4.95 -3.4 4.85 -3.45 4.75 -4.3 3.65 -4.55 3.25 -4.65 3.05 M-0.2 9.65 L-0.1 9.95 -0.2 10.15 -0.25 10.15 -0.3 10.15 Q-0.6 10.15 -0.9 9.4 L-1.15 8.5 -1.15 8.45 -1.1 8.45 -0.95 8.6 -0.55 9.1 -0.2 9.65" fill="#fbeebf" fill-rule="evenodd" stroke="none"/>
      <path d="M-3.4 4.85 L-2.85 5.75 -1.85 7.3 -1.9 7.35 -2.1 7.35 -2.3 7.05 -2.3 6.95 -3.75 4.55 -4.3 3.65 -3.45 4.75 -3.4 4.85 M-1.45 8.7 L-1.2 8.4 -1.15 8.5 -0.9 9.4 Q-0.6 10.15 -0.3 10.15 L-0.25 10.2 -0.35 10.2 -0.45 10.2 -0.7 10.15 -0.7 10.1 -0.95 9.8 -1.45 8.7 M-1.1 8.25 L-1.05 8.05 -1.0 8.05 -0.25 9.4 -0.2 9.65 -0.55 9.1 -0.95 8.6 -1.1 8.25" fill="#d08f2f" fill-rule="evenodd" stroke="none"/>
      <path d="M-4.65 3.05 L-5.55 1.6 -5.6 1.55 Q-5.85 0.75 -5.2 0.45 L-2.1 6.4 -1.65 7.15 -1.8 7.25 -1.85 7.3 -2.85 5.75 -3.4 4.85 -3.25 4.95 -3.45 4.7 Q-3.45 4.3 -4.4 2.5 -5.45 0.7 -5.45 1.45 L-4.65 3.05" fill="#ffcc00" fill-rule="evenodd" stroke="none"/>
      <path d="M-1.65 7.15 L-2.1 6.4 -5.2 0.45 Q-5.85 0.75 -5.6 1.55 L-5.95 1.0 -5.9 0.95 -5.75 0.7 -5.65 0.55 Q-5.4 0.2 -4.95 0.2 L-4.9 0.2 -4.4 0.2 -1.3 6.95 -1.65 7.15" fill="#ff9900" fill-rule="evenodd" stroke="none"/>
    </g>
  </defs>
</svg>
