<?xml version="1.0" encoding="UTF-8" standalone="no"?>
<svg xmlns:ffdec="https://www.free-decompiler.com/flash" xmlns:xlink="http://www.w3.org/1999/xlink" ffdec:objectType="frame" height="37.55px" width="22.1px" xmlns="http://www.w3.org/2000/svg">
  <g transform="matrix(1.0, 0.0, 0.0, 1.0, 11.2, 78.55)">
    <use ffdec:characterId="31" height="46.95" transform="matrix(0.8, 0.0, 0.0, 0.8, -0.2, -59.85)" width="27.7" xlink:href="#sprite0"/>
  </g>
  <defs>
    <g id="sprite0">
      <use ffdec:characterId="2" height="45.9" transform="matrix(1.0, 0.0, 0.0, 1.0, 0.0, 0.0)" width="27.2" xlink:href="#sprite1"/>
    </g>
    <g id="sprite1">
      <use ffdec:characterId="1" height="45.9" transform="matrix(1.0, 0.0, 0.0, 1.0, 0.0, 0.0)" width="27.2" xlink:href="#shape0"/>
    </g>
    <g id="shape0">
      <path d="M0.05 -22.25 Q1.65 -18.35 7.25 -12.85 12.85 -7.4 12.65 0.05 12.5 7.45 6.8 10.45 3.8 11.95 2.1 13.1 L2.1 19.9 -0.85 21.65 -1.85 21.65 -1.85 13.2 Q-3.55 12.0 -6.65 10.45 -12.35 7.45 -12.55 0.05 -12.7 -7.4 -7.1 -12.85 -1.5 -18.35 0.05 -22.25" fill="#044931" fill-rule="evenodd" stroke="none"/>
      <path d="M0.05 -22.25 Q-1.5 -18.35 -7.1 -12.85 -12.7 -7.4 -12.55 0.05 -12.35 7.45 -6.65 10.45 -3.55 12.0 -1.85 13.2 L-1.85 21.65 -0.85 21.65 2.1 19.9 2.1 13.1 Q3.8 11.95 6.8 10.45 12.5 7.45 12.65 0.05 12.85 -7.4 7.25 -12.85 1.65 -18.35 0.05 -22.25 Z" fill="none" stroke="#2e9214" stroke-linecap="round" stroke-linejoin="round" stroke-width="2.0"/>
      <path d="M7.25 -12.85 Q1.65 -18.35 0.05 -22.25 -1.5 -18.35 -7.1 -12.85 -12.7 -7.4 -12.55 0.05 -12.35 7.45 -6.65 10.45 -0.95 13.35 0.05 14.85 1.1 13.35 6.8 10.45 12.5 7.45 12.65 0.05 12.85 -7.4 7.25 -12.85" fill="#036b4c" fill-rule="evenodd" stroke="none"/>
      <path d="M2.1 8.65 L2.1 19.9 -0.75 21.6 -1.85 21.6 -1.85 11.0 2.1 8.65" fill="#036b4c" fill-rule="evenodd" stroke="none"/>
      <path d="M6.4 -11.4 Q11.3 -6.55 11.15 -0.05 11.0 6.45 6.0 9.1 2.65 10.8 1.15 11.95 L1.15 18.85 -1.0 20.15 -1.0 11.9 Q-2.5 10.8 -5.8 9.1 -10.8 6.45 -10.95 -0.05 -11.1 -6.55 -6.2 -11.4 -1.3 -16.2 0.1 -19.6 1.5 -16.2 6.4 -11.4" fill="#05a263" fill-rule="evenodd" stroke="none"/>
      <path d="M-1.2 21.05 L-0.45 21.2 0.7 20.65 1.65 19.8 1.8 19.05 1.1 18.95 Q0.55 19.05 -0.1 19.45 L-1.0 20.35 Q-1.4 20.8 -1.2 21.05" fill="#085079" fill-rule="evenodd" stroke="none"/>
      <path d="M3.6 -6.5 Q2.95 -4.8 0.45 -2.4 -1.95 0.0 -1.9 3.25 -1.85 6.5 0.7 7.85 L2.8 9.05 Q3.7 9.5 4.45 9.05 5.2 8.5 6.55 7.85 9.1 6.5 9.1 3.25 9.2 0.0 6.75 -2.4 4.3 -4.8 3.6 -6.5 M6.45 -6.75 Q10.1 -3.2 10.0 1.6 9.9 6.35 6.2 8.35 L3.45 9.8 Q1.75 10.8 0.25 9.8 L-2.45 8.35 Q-6.15 6.35 -6.25 1.6 -6.35 -3.2 -2.75 -6.75 0.8 -10.3 1.85 -12.75 2.9 -10.3 6.45 -6.75" fill="#69fe89" fill-rule="evenodd" stroke="none"/>
      <path d="M3.6 -6.5 Q4.3 -4.8 6.75 -2.4 9.2 0.0 9.1 3.25 9.1 6.5 6.55 7.85 5.2 8.5 4.45 9.05 3.7 9.5 2.8 9.05 L0.7 7.85 Q-1.85 6.5 -1.9 3.25 -1.95 0.0 0.45 -2.4 2.95 -4.8 3.6 -6.5" fill="#b0ffbf" fill-rule="evenodd" stroke="none"/>
      <path d="M-0.55 -3.45 L-0.35 7.85 Q-0.2 12.55 0.05 12.55 0.3 12.55 0.5 7.85 L0.65 -3.45 0.5 -14.8 Q0.3 -19.45 0.05 -19.45 -0.2 -19.45 -0.35 -14.8 L-0.55 -3.45" fill="#0777b0" fill-rule="evenodd" stroke="none"/>
      <path d="M-1.45 12.65 L-2.2 12.8 -3.35 12.25 -4.3 11.4 -4.45 10.65 -3.75 10.55 Q-3.2 10.65 -2.55 11.05 -1.95 11.45 -1.65 11.95 -1.25 12.4 -1.45 12.65" fill="#085079" fill-rule="evenodd" stroke="none"/>
      <path d="M-3.55 -14.95 L-6.95 -11.0 Q-8.95 -8.75 -10.2 -6.1 -11.4 -3.5 -11.6 0.95 -11.75 5.4 -9.6 7.95 -8.3 9.5 -6.4 10.55 -8.75 9.35 -9.7 8.2 -11.5 5.85 -12.2 3.4 -12.95 0.9 -12.55 -2.05 -12.2 -5.0 -10.95 -7.5 -9.75 -10.0 -8.0 -11.85 L-4.7 -15.3 Q-3.15 -16.85 -1.25 -19.7 -2.25 -16.6 -3.55 -14.95" fill="#085079" fill-rule="evenodd" stroke="none"/>
      <path d="M5.8 -10.0 Q2.85 -12.0 1.25 -17.5 3.4 -14.2 5.75 -12.35 8.1 -10.5 9.3 -7.65 L5.8 -10.0" fill="#d3ffe2" fill-rule="evenodd" stroke="none"/>
      <path d="M1.6 -9.9 L0.25 -8.35 Q-0.25 -7.6 0.0 -7.35 L1.0 -7.5 2.7 -8.7 4.05 -10.3 Q4.6 -11.05 4.35 -11.3 L3.3 -11.15 1.6 -9.9" fill="#07b05a" fill-rule="evenodd" stroke="none"/>
      <path d="M3.2 -3.25 L0.7 -0.65 Q-0.25 0.55 0.0 0.8 0.25 1.05 1.45 0.2 2.7 -0.6 4.3 -2.05 L6.75 -4.7 Q7.75 -5.8 7.5 -6.05 7.25 -6.3 6.0 -5.55 L3.2 -3.25" fill="#07b05a" fill-rule="evenodd" stroke="none"/>
      <path d="M4.4 3.7 Q2.35 5.6 1.05 7.05 -0.25 8.6 0.0 8.85 0.25 9.1 1.8 7.9 3.45 6.8 5.5 4.9 L8.85 1.5 Q10.15 0.05 9.9 -0.2 9.65 -0.45 8.1 0.65 6.5 1.8 4.4 3.7" fill="#07b05a" fill-rule="evenodd" stroke="none"/>
      <path d="M5.35 -9.5 Q6.2 -9.5 6.65 -8.95 7.1 -8.35 6.85 -7.6 6.7 -6.85 6.05 -6.3 5.35 -5.8 4.6 -5.8 3.85 -5.8 3.4 -6.4 2.95 -6.95 3.1 -7.7 3.3 -8.45 4.0 -8.95 4.65 -9.5 5.35 -9.5" fill="#ffffff" fill-rule="evenodd" stroke="none"/>
      <path d="M-1.6 -9.9 L-0.25 -8.35 Q0.25 -7.6 0.0 -7.35 L-1.0 -7.5 -2.7 -8.7 -4.05 -10.3 Q-4.6 -11.05 -4.35 -11.3 L-3.3 -11.15 -1.6 -9.9" fill="#0777b0" fill-rule="evenodd" stroke="none"/>
      <path d="M-3.2 -3.25 L-0.7 -0.65 Q0.25 0.55 0.0 0.8 -0.25 1.05 -1.45 0.2 -2.7 -0.6 -4.3 -2.05 L-6.75 -4.7 Q-7.75 -5.8 -7.5 -6.05 -7.25 -6.3 -6.0 -5.55 L-3.2 -3.25" fill="#0777b0" fill-rule="evenodd" stroke="none"/>
      <path d="M-4.4 3.7 Q-2.35 5.6 -1.05 7.05 0.25 8.6 0.0 8.85 -0.25 9.1 -1.8 7.9 -3.45 6.8 -5.5 4.9 L-8.85 1.5 Q-10.15 0.05 -9.9 -0.2 -9.65 -0.45 -8.1 0.65 -6.5 1.8 -4.4 3.7" fill="#0777b0" fill-rule="evenodd" stroke="none"/>
      <path d="M-0.55 0.2 L-0.35 8.95 Q-0.2 12.6 0.05 12.6 0.3 12.6 0.5 8.95 L0.65 0.2 0.5 -8.55 Q0.3 -12.15 0.05 -12.15 -0.2 -12.15 -0.35 -8.55 L-0.55 0.2" fill="#036b4c" fill-rule="evenodd" stroke="none"/>
      <path d="M-2.7 5.25 L-0.55 7.55 Q0.3 8.65 0.05 8.9 -0.2 9.15 -1.3 8.4 L-3.8 6.45 -6.0 4.1 Q-6.85 3.1 -6.6 2.85 -6.35 2.6 -5.25 3.25 L-2.7 5.25" fill="#036b4c" fill-rule="evenodd" stroke="none"/>
      <path d="M-1.45 -1.65 L-0.2 -0.2 Q0.25 0.55 0.0 0.8 L-0.95 0.65 -2.55 -0.45 -3.75 -1.95 Q-4.25 -2.6 -4.0 -2.85 L-3.0 -2.8 Q-2.25 -2.4 -1.45 -1.65" fill="#036b4c" fill-rule="evenodd" stroke="none"/>
      <path d="M-0.6 -8.95 L0.1 -8.1 Q0.25 -7.65 0.05 -7.4 L-0.6 -7.35 -1.55 -7.9 -2.15 -8.75 Q-2.35 -9.2 -2.15 -9.4 L-1.45 -9.5 -0.6 -8.95" fill="#036b4c" fill-rule="evenodd" stroke="none"/>
      <path d="M3.4 -10.35 Q3.6 -10.1 3.4 -9.65 L2.7 -8.8 Q2.2 -8.35 1.75 -8.25 1.3 -8.15 1.1 -8.4 0.9 -8.6 1.05 -9.05 L1.75 -9.95 2.7 -10.45 3.4 -10.35" fill="#018b3b" fill-rule="evenodd" stroke="none"/>
      <path d="M5.2 -3.8 L5.15 -3.05 4.35 -2.1 Q3.8 -1.65 3.3 -1.5 L2.6 -1.6 Q2.4 -1.8 2.6 -2.3 L3.4 -3.25 Q3.95 -3.75 4.45 -3.85 L5.2 -3.8" fill="#018b3b" fill-rule="evenodd" stroke="none"/>
      <path d="M7.25 2.3 Q7.45 2.55 7.05 3.15 L6.0 4.35 4.6 5.25 3.85 5.2 Q3.65 5.0 3.9 4.45 4.3 3.85 5.05 3.2 L6.35 2.35 7.25 2.3" fill="#018b3b" fill-rule="evenodd" stroke="none"/>
      <path d="M-0.6 14.6 L-0.45 17.65 Q-0.3 18.9 -0.05 18.9 0.2 18.9 0.35 17.65 L0.5 14.6 0.35 11.55 Q0.2 10.3 -0.05 10.3 -0.3 10.3 -0.45 11.55 L-0.6 14.6" fill="#ffffff" fill-rule="evenodd" stroke="none"/>
      <path d="M-3.95 -14.95 Q-2.55 -16.1 -1.35 -18.0 -0.95 -13.1 -2.75 -11.2 -4.55 -9.35 -6.25 -6.3 L-9.95 -7.9 Q-8.55 -10.75 -6.95 -12.25 L-3.95 -14.95" fill="#ffffff" fill-rule="evenodd" stroke="none"/>
      <path d="M-6.8 -5.25 L-7.85 -1.9 -11.5 -3.3 Q-11.45 -5.1 -10.45 -6.65 L-6.8 -5.25" fill="#d3ffe2" fill-rule="evenodd" stroke="none"/>
      <path d="M10.15 -2.95 Q13.0 6.4 1.5 11.6" ffdec:has-small-stroke="true" ffdec:original-stroke-width="1.0" fill="none" stroke="#d3ffe2" stroke-linecap="round" stroke-linejoin="round" stroke-width="1.2500190737773709"/>
      <path d="M10.25 -3.65 Q10.65 -3.15 10.05 -2.25 9.6 -1.3 8.5 -0.45 7.4 0.45 6.3 0.7 5.3 1.0 4.9 0.5 4.5 0.0 5.05 -0.95 5.6 -1.85 6.7 -2.75 7.8 -3.6 8.8 -3.9 9.85 -4.15 10.25 -3.65" fill="#ffffff" fill-rule="evenodd" stroke="none"/>
    </g>
  </defs>
</svg>
