<?xml version="1.0" encoding="UTF-8" standalone="no"?>
<svg xmlns:ffdec="https://www.free-decompiler.com/flash" xmlns:xlink="http://www.w3.org/1999/xlink" ffdec:objectType="frame" height="61.25px" width="50.75px" xmlns="http://www.w3.org/2000/svg">
  <g transform="matrix(1.0, 0.0, 0.0, 1.0, 21.8, 80.35)">
    <use ffdec:characterId="46" height="19.25" transform="matrix(1.0, 0.0, 0.0, 1.0396, -14.85, -41.75)" width="30.05" xlink:href="#sprite0"/>
    <use ffdec:characterId="9" height="18.2" transform="matrix(1.0, 0.0, 0.0, 1.0, -19.25, -58.0)" width="13.85" xlink:href="#sprite1"/>
    <use ffdec:characterId="47" height="6.25" transform="matrix(1.0, 0.0, 0.0, 1.0, 0.0, -5.0)" width="20.9" xlink:href="#shape4"/>
    <use ffdec:characterId="12" height="17.5" transform="matrix(1.0, 0.0, 0.0, 1.0, -10.4, -49.75)" width="22.05" xlink:href="#sprite5"/>
    <use ffdec:characterId="61" height="4.8" transform="matrix(1.0, 0.0, 0.0, 1.0, 0.0, 0.0)" width="7.4" xlink:href="#shape6"/>
    <use ffdec:characterId="18" height="18.85" transform="matrix(1.0, 0.0, 0.0, 1.0, -9.35, -65.1)" width="19.85" xlink:href="#sprite6"/>
    <use ffdec:characterId="32" height="21.3" transform="matrix(1.0, 0.0, 0.0, 1.0, 13.3, -37.7)" width="15.8" xlink:href="#sprite8"/>
    <use ffdec:characterId="41" height="36.8" transform="matrix(1.0, 0.0, 0.0, 1.0, 1.85, -76.65)" width="29.1" xlink:href="#sprite10"/>
    <use ffdec:characterId="43" height="17.45" transform="matrix(1.0, 0.0, 0.0, 1.0, -11.55, -54.0)" width="24.0" xlink:href="#sprite15"/>
  </g>
  <defs>
    <g id="sprite0">
      <use ffdec:characterId="45" height="19.25" transform="matrix(1.0, 0.0, 0.0, 1.0, 0.0, 0.0)" width="30.05" xlink:href="#shape0"/>
    </g>
    <g id="shape0">
      <path d="M0.7 18.35 Q0.1 17.75 0.05 17.15 L0.0 17.15 0.0 6.85 0.7 6.85 0.7 18.35" fill="#fb1919" fill-rule="evenodd" stroke="none"/>
      <path d="M29.35 6.85 L29.35 17.15 Q29.2 18.85 25.05 20.1 20.8 21.4 14.7 21.4 8.6 21.4 4.35 20.1 1.7 19.3 0.7 18.35 L0.7 6.85 29.35 6.85" fill="#97001a" fill-rule="evenodd" stroke="none"/>
      <path d="M29.35 6.85 L29.35 17.15 Q29.2 18.85 25.05 20.1 20.8 21.4 14.7 21.4 8.6 21.4 4.35 20.1 1.7 19.3 0.7 18.35 0.1 17.75 0.05 17.15 L0.0 17.15 0.0 6.85" ffdec:has-small-stroke="true" ffdec:original-stroke-width="0.7" fill="none" stroke="#060745" stroke-linecap="round" stroke-linejoin="round" stroke-width="0.9807493347636582"/>
      <path d="M8.75 6.65 L28.6 6.65 28.6 18.45 Q27.55 19.35 25.05 20.1 20.8 21.4 14.7 21.4 L8.75 21.0 8.75 6.65" fill="#790b0b" fill-rule="evenodd" stroke="none"/>
      <path d="M8.75 6.65 L28.6 6.65" ffdec:has-small-stroke="true" ffdec:original-stroke-width="0.7" fill="none" stroke="#6b0000" stroke-linecap="round" stroke-linejoin="round" stroke-width="0.9807493347636582"/>
      <path d="M28.6 18.45 Q27.55 19.35 25.05 20.1 20.8 21.4 14.7 21.4 L8.75 21.0" ffdec:has-small-stroke="true" ffdec:original-stroke-width="0.7" fill="none" stroke="#060745" stroke-linecap="round" stroke-linejoin="round" stroke-width="0.9807493347636582"/>
      <path d="M11.95 21.3 L11.95 6.35 14.75 6.35 14.75 21.4 14.7 21.4 11.95 21.3" fill="#a80404" fill-rule="evenodd" stroke="none"/>
      <path d="M4.85 20.25 L4.85 6.35 11.95 6.35 11.95 21.3 4.85 20.25" fill="#cd0543" fill-rule="evenodd" stroke="none"/>
      <path d="M11.95 6.35 L4.85 6.35 M14.75 6.35 L11.95 6.35" ffdec:has-small-stroke="true" ffdec:original-stroke-width="0.7" fill="none" stroke="#6b0000" stroke-linecap="round" stroke-linejoin="round" stroke-width="0.9807493347636582"/>
      <path d="M4.85 20.25 L11.95 21.3 14.7 21.4 14.75 21.4" ffdec:has-small-stroke="true" ffdec:original-stroke-width="0.7" fill="none" stroke="#060745" stroke-linecap="round" stroke-linejoin="round" stroke-width="0.9807493347636582"/>
      <path d="M29.3 7.2 Q29.3 9.0 25.0 10.25 20.75 11.5 14.65 11.5 8.55 11.5 4.3 10.25 0.0 9.0 0.0 7.2 0.0 5.4 4.3 4.1 8.55 2.85 14.65 2.85 20.75 2.85 25.0 4.1 29.3 5.4 29.3 7.2" fill="#a11515" fill-rule="evenodd" stroke="none"/>
      <path d="M29.3 7.2 Q29.3 9.0 25.0 10.25 20.75 11.5 14.65 11.5 8.55 11.5 4.3 10.25 0.0 9.0 0.0 7.2 0.0 5.4 4.3 4.1 8.55 2.85 14.65 2.85 20.75 2.85 25.0 4.1 29.3 5.4 29.3 7.2 Z" ffdec:has-small-stroke="true" ffdec:original-stroke-width="0.3" fill="none" stroke="#6b0000" stroke-linecap="round" stroke-linejoin="round" stroke-width="0.9807493347636582"/>
      <path d="M4.95 10.4 L4.3 10.2 Q0.75 9.15 0.15 7.75 L0.0 7.15 Q0.0 5.35 4.3 4.1 8.55 2.85 14.65 2.85 L18.75 3.0 4.95 10.4" fill="#ff313b" fill-rule="evenodd" stroke="none"/>
      <path d="M12.25 11.45 L4.95 10.4 18.75 3.0 Q22.25 3.25 25.0 4.1 L25.5 4.2 12.25 11.45" fill="#ff52a1" fill-rule="evenodd" stroke="none"/>
      <path d="M15.45 11.5 L14.65 11.5 12.25 11.45 25.5 4.2 27.1 4.85 Q16.6 10.6 15.45 11.5" fill="#ff1818" fill-rule="evenodd" stroke="none"/>
      <path d="M29.2 7.75 Q28.55 9.15 25.0 10.2 21.05 11.4 15.45 11.5 16.6 10.6 27.1 4.85 29.3 5.85 29.3 7.15 L29.2 7.75" fill="#e10000" fill-rule="evenodd" stroke="none"/>
      <path d="M15.45 11.5 L14.65 11.5 12.25 11.45 4.95 10.4" ffdec:has-small-stroke="true" ffdec:original-stroke-width="0.7" fill="none" stroke="#ffe1fe" stroke-linecap="round" stroke-linejoin="round" stroke-width="0.9807493347636582"/>
      <path d="M4.95 10.4 L4.3 10.2 Q0.75 9.15 0.15 7.75" ffdec:has-small-stroke="true" ffdec:original-stroke-width="0.7" fill="none" stroke="#ff9dfb" stroke-linecap="round" stroke-linejoin="round" stroke-width="0.9807493347636582"/>
      <path d="M0.15 7.75 L0.0 7.15 Q0.0 5.35 4.3 4.1 8.55 2.85 14.65 2.85 L18.75 3.0 Q22.25 3.25 25.0 4.1 L25.5 4.2 27.1 4.85 Q29.3 5.85 29.3 7.15 L29.2 7.75" ffdec:has-small-stroke="true" ffdec:original-stroke-width="0.7" fill="none" stroke="#7c0000" stroke-linecap="round" stroke-linejoin="round" stroke-width="0.9807493347636582"/>
      <path d="M29.2 7.75 Q28.55 9.15 25.0 10.2 21.05 11.4 15.45 11.5" ffdec:has-small-stroke="true" ffdec:original-stroke-width="0.7" fill="none" stroke="#ffdffd" stroke-linecap="round" stroke-linejoin="round" stroke-width="0.9807493347636582"/>
      <path d="M5.9 13.75 Q14.85 15.1 23.4 13.75 L23.4 17.7 Q14.55 19.25 5.9 17.7 L5.9 13.75" fill="#c54100" fill-rule="evenodd" stroke="none"/>
      <path d="M5.9 13.75 Q14.85 15.1 23.4 13.75 L23.4 17.7 Q14.55 19.25 5.9 17.7 L5.9 13.75 Z" ffdec:has-small-stroke="true" ffdec:original-stroke-width="0.3" fill="none" stroke="#000457" stroke-linecap="round" stroke-linejoin="round" stroke-width="0.9807493347636582"/>
      <path d="M8.75 18.2 L5.9 17.8 5.9 14.4 8.75 14.7 8.75 18.2" fill="#ffc90a" fill-rule="evenodd" stroke="none"/>
      <path d="M14.8 18.5 L8.75 18.2 8.75 14.7 14.8 15.0 14.8 18.5" fill="#fef496" fill-rule="evenodd" stroke="none"/>
      <path d="M23.4 14.4 L23.4 17.8 17.5 18.4 14.9 18.5 14.8 18.5 14.8 15.0 14.9 15.0 17.5 14.95 23.4 14.4" fill="#ffb60a" fill-rule="evenodd" stroke="none"/>
      <path d="M23.4 14.4 L23.4 17.8 17.5 18.4 14.9 18.5 14.8 18.5 8.75 18.2 5.9 17.8 5.9 14.4" ffdec:has-small-stroke="true" ffdec:original-stroke-width="0.3" fill="none" stroke="#ff7a00" stroke-linecap="round" stroke-linejoin="round" stroke-width="0.9807493347636582"/>
      <path d="M5.9 14.4 L8.75 14.7 14.8 15.0 14.9 15.0 17.5 14.95 23.4 14.4" ffdec:has-small-stroke="true" ffdec:original-stroke-width="0.3" fill="none" stroke="#ffffff" stroke-linecap="round" stroke-linejoin="round" stroke-width="0.9807493347636582"/>
      <path d="M7.3 16.4 L7.15 16.65 6.9 16.75 6.6 16.65 6.5 16.4 6.6 16.1 6.9 16.0 7.15 16.1 7.3 16.4" fill="#ff660a" fill-rule="evenodd" stroke="none"/>
      <path d="M7.3 16.4 L7.15 16.65 6.9 16.75 6.6 16.65 6.5 16.4 6.6 16.1 6.9 16.0 7.15 16.1 7.3 16.4 Z" ffdec:has-small-stroke="true" ffdec:original-stroke-width="0.3" fill="none" stroke="#b50202" stroke-linecap="round" stroke-linejoin="round" stroke-width="0.9807493347636582"/>
      <path d="M22.8 16.4 L22.65 16.65 22.4 16.75 22.1 16.65 22.0 16.4 22.1 16.1 22.4 16.0 22.65 16.1 22.8 16.4" fill="#ff660a" fill-rule="evenodd" stroke="none"/>
      <path d="M22.8 16.4 L22.65 16.65 22.4 16.75 22.1 16.65 22.0 16.4 22.1 16.1 22.4 16.0 22.65 16.1 22.8 16.4 Z" ffdec:has-small-stroke="true" ffdec:original-stroke-width="0.3" fill="none" stroke="#b50202" stroke-linecap="round" stroke-linejoin="round" stroke-width="0.9807493347636582"/>
      <path d="M13.25 16.4 L12.9 16.5 12.9 15.85 13.25 15.7 13.25 16.4 M19.65 17.25 L19.2 17.25 19.45 17.05 19.85 17.15 20.15 16.85 19.85 16.65 19.7 16.6 19.4 16.3 Q19.35 16.15 19.55 16.05 L20.1 15.85 20.45 15.85 20.2 16.05 19.85 16.05 Q19.6 16.05 19.6 16.2 L19.95 16.35 20.05 16.4 20.45 16.75 20.2 17.05 19.65 17.25 M18.35 16.4 L18.35 16.25 17.95 16.25 17.55 16.55 Q17.35 16.75 17.4 17.1 L17.55 17.3 18.0 17.0 18.35 16.4 M18.35 16.85 L18.35 16.8 17.85 17.3 17.4 17.5 17.05 17.2 Q17.0 16.8 17.35 16.5 17.75 16.15 18.35 16.05 L18.7 16.05 18.65 16.2 18.65 16.95 18.6 17.1 18.65 17.2 19.05 16.85 19.1 16.9 18.9 17.1 18.5 17.35 18.3 17.25 18.3 17.0 18.35 16.85 M15.25 17.15 L15.2 17.45 14.9 17.55 14.9 17.35 14.95 17.3 15.05 16.7 15.0 16.55 14.9 16.4 Q14.7 16.4 14.45 16.65 L14.15 17.15 14.1 17.45 13.8 17.6 13.8 17.4 13.85 17.3 13.95 16.7 13.9 16.5 13.85 16.35 13.55 16.65 13.45 16.6 13.7 16.4 Q13.9 16.2 14.05 16.2 14.25 16.2 14.25 16.35 L14.25 16.45 14.2 16.55 14.25 16.75 14.3 16.7 15.15 16.2 15.35 16.4 15.35 16.8 15.75 16.35 16.25 16.15 16.45 16.3 16.45 16.5 16.35 17.0 16.35 17.25 16.4 17.3 16.55 17.25 16.75 17.1 16.8 17.1 16.55 17.3 16.2 17.5 16.0 17.3 16.05 17.05 16.15 16.7 16.1 16.45 16.0 16.35 15.6 16.65 15.25 17.15 M10.9 16.75 L10.95 16.7 10.75 16.5 10.75 16.35 10.6 16.25 10.5 16.1 10.35 15.85 9.95 16.1 9.85 16.05 10.1 15.8 10.5 15.7 10.75 15.8 11.0 16.25 11.15 16.5 11.4 16.3 Q11.95 15.8 12.45 15.8 L12.75 15.85 12.45 16.05 12.3 16.0 11.9 16.1 11.3 16.55 11.2 16.65 11.6 17.2 11.9 17.45 12.25 17.3 12.3 17.35 12.2 17.55 11.7 17.7 11.45 17.55 11.1 17.05 11.0 16.85 10.95 16.9 Q10.2 17.55 9.6 17.55 L9.35 17.5 9.65 17.3 9.85 17.3 10.45 17.1 10.9 16.75" fill="#8e3500" fill-rule="evenodd" stroke="none"/>
    </g>
    <g id="sprite1">
      <use ffdec:characterId="4" height="8.15" transform="matrix(1.0, 0.0, 0.0, 1.0, 5.3, 7.35)" width="5.0" xlink:href="#sprite2"/>
      <use ffdec:characterId="6" height="4.5" transform="matrix(0.9966, -0.082, 0.082, 0.9966, 2.35, 5.25)" width="4.8" xlink:href="#sprite3"/>
      <use ffdec:characterId="8" height="6.6" transform="matrix(0.9541, -0.2994, 0.2994, 0.9541, -2.55, 1.25)" width="6.2" xlink:href="#sprite4"/>
    </g>
    <g id="sprite2">
      <use ffdec:characterId="3" height="8.15" transform="matrix(1.0, 0.0, 0.0, 1.0, 0.0, 0.0)" width="5.0" xlink:href="#shape1"/>
    </g>
    <g id="shape1">
      <path d="M0.35 0.0 Q0.75 -0.15 1.2 1.1 1.65 2.3 3.25 4.25 4.85 6.25 4.95 6.85 5.1 7.5 4.45 8.05 3.75 8.5 3.0 6.75 L1.2 3.55 0.3 2.0 0.05 0.85 Q-0.1 0.15 0.35 0.0" fill="#3a0414" fill-rule="evenodd" stroke="none"/>
    </g>
    <g id="sprite3">
      <use ffdec:characterId="5" height="4.5" transform="matrix(1.0, 0.0, 0.0, 1.0, 0.0, 0.0)" width="4.8" xlink:href="#shape2"/>
    </g>
    <g id="shape2">
      <path d="M1.25 1.85 Q1.2 2.45 2.55 2.75 3.85 3.05 4.55 3.6 5.25 4.15 4.1 4.5 L2.05 3.9 Q0.0 3.45 0.0 3.0 -0.1 2.45 0.35 1.8 L0.75 0.65 Q1.0 -0.7 1.35 0.7 L1.25 1.85" fill="#3a0414" fill-rule="evenodd" stroke="none"/>
    </g>
    <g id="sprite4">
      <use ffdec:characterId="7" height="6.6" transform="matrix(1.0, 0.0, 0.0, 1.0, 0.0, 0.0)" width="6.2" xlink:href="#shape3"/>
    </g>
    <g id="shape3">
      <path d="M4.3 3.1 L4.95 2.0 Q5.3 1.2 5.8 1.15 L6.2 1.0 5.4 2.85 Q4.65 4.65 4.6 5.65 L4.55 6.3 Q4.35 6.95 3.6 6.3 L2.95 6.05 1.95 5.6 0.9 5.3 Q0.15 5.05 0.0 4.65 L0.0 4.6 0.45 4.75 3.9 5.35 3.95 5.35 3.7 4.55 3.75 4.2 2.9 2.4 Q2.1 0.9 2.05 0.5 L2.3 0.05 Q2.55 -0.1 3.0 0.45 L3.45 1.35 4.3 3.1" fill="#3a0414" fill-rule="evenodd" stroke="none"/>
    </g>
    <g id="shape4">
      <path d="M10.55 -29.85 Q10.55 -28.55 7.5 -27.65 4.4 -26.7 0.1 -26.7 -4.2 -26.7 -7.3 -27.65 -10.35 -28.55 -10.35 -29.85 -10.35 -31.15 -7.3 -32.1 L0.1 -32.95 7.5 -32.1 Q10.55 -31.15 10.55 -29.85" fill="#000000" fill-opacity="0.34901962" fill-rule="evenodd" stroke="none"/>
    </g>
    <g id="sprite5">
      <use ffdec:characterId="11" height="17.5" transform="matrix(1.0, 0.0, 0.0, 1.0, 0.0, 0.0)" width="22.05" xlink:href="#shape5"/>
    </g>
    <g id="shape5">
      <path d="M21.3 8.75 Q21.6 12.65 18.4 14.8 15.15 16.85 10.7 16.8 6.2 16.7 3.05 14.8 -0.15 12.9 0.0 8.85 0.2 4.8 3.2 2.4 6.3 0.0 10.6 0.0 14.9 0.0 17.95 2.4 21.0 4.8 21.3 8.75" fill="#d5bebe" fill-rule="evenodd" stroke="none"/>
      <path d="M21.3 8.75 Q21.6 12.65 18.4 14.8 15.15 16.85 10.7 16.8 6.2 16.7 3.05 14.8 -0.15 12.9 0.0 8.85 0.2 4.8 3.2 2.4 6.3 0.0 10.6 0.0 14.9 0.0 17.95 2.4 21.0 4.8 21.3 8.75 Z" ffdec:has-small-stroke="true" ffdec:original-stroke-width="0.7" fill="none" stroke="#444060" stroke-linecap="round" stroke-linejoin="round" stroke-width="1.0"/>
      <path d="M15.15 2.8 Q19.85 3.65 19.85 7.45 19.8 11.25 15.55 12.35 L8.6 12.85 Q5.85 12.45 4.3 11.7 2.8 11.0 1.65 8.95 0.8 4.7 5.05 3.5 L7.55 3.25 Q12.1 3.95 15.15 2.8" fill="#ffffff" fill-rule="evenodd" stroke="none"/>
    </g>
    <g id="shape6">
      <path d="M-2.55 -49.1 Q-2.7 -48.1 -3.95 -47.65 L-6.65 -47.45 Q-8.15 -47.7 -9.2 -48.55 -10.1 -49.4 -9.95 -50.4 -9.8 -51.35 -8.6 -51.8 L-5.85 -52.05 Q-4.35 -51.75 -3.35 -50.9 -2.4 -50.05 -2.55 -49.1" fill="#040d3a" fill-rule="evenodd" stroke="none"/>
    </g>
    <g id="sprite6">
      <use ffdec:characterId="14" height="18.85" transform="matrix(1.0, 0.0, 0.0, 1.0, 0.0, 0.0)" width="19.85" xlink:href="#shape7"/>
      <use ffdec:characterId="16" height="2.4" transform="matrix(1.2264, 0.1767, -0.1767, 1.2264, 2.0, 4.65)" width="1.95" xlink:href="#sprite7"/>
      <use ffdec:characterId="16" height="2.4" transform="matrix(1.2264, 0.1768, -0.1768, 1.2264, 12.2, 4.15)" width="1.95" xlink:href="#sprite7"/>
      <use ffdec:characterId="17" height="7.9" transform="matrix(1.0, 0.0, 0.0, 1.0, 0.0, 0.0)" width="13.2" xlink:href="#shape9"/>
    </g>
    <g id="shape7">
      <path d="M2.8 15.65 L2.1 14.85 Q-0.4 11.8 0.1 8.0 0.55 4.3 3.7 1.95 6.85 -0.4 10.75 0.1 14.65 0.6 17.1 3.65 19.55 6.7 19.1 10.4 18.6 14.2 15.5 16.55 L14.6 17.15 Q11.8 18.8 8.45 18.4 5.1 17.95 2.8 15.65" fill="#d5bebe" fill-rule="evenodd" stroke="none"/>
      <path d="M2.8 15.65 L2.1 14.85 Q-0.4 11.8 0.1 8.0 0.55 4.3 3.7 1.95 6.85 -0.4 10.75 0.1 14.65 0.6 17.1 3.65 19.55 6.7 19.1 10.4 18.6 14.2 15.5 16.55 L14.6 17.15" ffdec:has-small-stroke="true" ffdec:original-stroke-width="0.7" fill="none" stroke="#444060" stroke-linecap="round" stroke-linejoin="round" stroke-width="1.0"/>
      <path d="M17.8 9.75 Q17.5 12.25 14.8 13.75 12.15 15.25 8.65 14.85 5.2 14.45 2.9 12.25 0.7 10.2 1.05 7.65 1.35 5.1 4.0 3.55 6.7 2.15 10.2 2.55 13.7 3.0 15.9 5.05 18.15 7.2 17.8 9.75" fill="#ffffff" fill-rule="evenodd" stroke="none"/>
    </g>
    <g id="sprite7">
      <use ffdec:characterId="15" height="2.4" transform="matrix(1.0, 0.0, 0.0, 1.0, 0.0, 0.0)" width="1.95" xlink:href="#shape8"/>
    </g>
    <g id="shape8">
      <path d="M2.35 0.9 L2.0 1.7 Q1.75 2.1 1.35 2.0 1.0 2.0 0.65 1.6 0.4 1.3 0.4 0.8 L0.75 -0.05 Q1.05 -0.4 1.4 -0.4 1.8 -0.3 2.05 0.0 L2.35 0.9" fill="#000000" fill-rule="evenodd" stroke="none"/>
    </g>
    <g id="shape9">
      <path d="M7.2 11.3 L5.25 10.55 8.55 11.15 Q10.7 11.35 12.1 9.95 13.35 8.6 12.0 7.9 L14.1 8.3 Q14.2 10.3 12.35 11.4 10.45 12.5 7.2 11.3" fill="#000000" fill-rule="evenodd" stroke="none"/>
      <path d="M8.7 4.9 Q10.0 6.1 9.65 7.55 9.4 8.9 8.8 9.45 8.15 10.0 7.65 10.0 L5.9 9.95 3.2 9.55 1.3 9.0 Q0.85 8.8 1.15 8.3 1.55 7.7 2.8 6.8 L4.6 5.55 6.3 4.55 Q7.45 3.7 8.7 4.9" fill="#f04a1d" fill-rule="evenodd" stroke="none"/>
      <path d="M8.7 4.9 Q10.0 6.1 9.65 7.55 9.4 8.9 8.8 9.45 8.15 10.0 7.65 10.0 L5.9 9.95 3.2 9.55 1.3 9.0 Q0.85 8.8 1.15 8.3 1.55 7.7 2.8 6.8 L4.6 5.55 6.3 4.55 Q7.45 3.7 8.7 4.9 Z" ffdec:has-small-stroke="true" ffdec:original-stroke-width="0.3" fill="none" stroke="#c82a00" stroke-linecap="round" stroke-linejoin="round" stroke-width="1.0"/>
      <path d="M8.7 6.2 Q9.15 6.6 9.2 7.0 L9.05 7.65 Q8.95 7.95 8.5 7.5 8.1 6.95 7.5 6.95 L7.6 7.95 2.35 8.65 2.3 8.6 Q2.9 8.3 5.05 7.55 L7.1 6.85 Q7.5 6.25 8.05 6.65 7.9 6.3 8.05 6.1 8.25 5.8 8.7 6.2" fill="#ffcea1" fill-rule="evenodd" stroke="none"/>
    </g>
    <g id="sprite8">
      <use ffdec:characterId="19" height="18.95" transform="matrix(1.0, 0.0, 0.0, 1.0, 0.0, 0.0)" width="10.95" xlink:href="#shape10"/>
      <use ffdec:characterId="22" height="21.3" transform="matrix(1.0, 0.0, 0.0, 1.0, 2.25, -1.15)" width="13.4" xlink:href="#sprite9"/>
      <use ffdec:characterId="23" height="18.95" transform="matrix(1.0, 0.0, 0.0, 1.0, 0.0, 0.0)" width="14.55" xlink:href="#shape12"/>
    </g>
    <g id="shape10">
      <path d="M13.0 2.35 Q13.0 1.6 12.4 1.05 11.9 0.55 11.15 0.55 10.35 0.55 9.85 1.05 9.3 1.6 9.3 2.35 9.3 3.1 9.85 3.65 10.35 4.2 11.15 4.2 11.9 4.2 12.4 3.65 13.0 3.1 13.0 2.35 M14.65 2.35 Q14.65 3.85 13.6 4.8 13.05 5.45 12.3 5.7 L11.8 5.8 Q11.0 6.8 11.0 8.15 11.0 9.65 11.9 10.55 L12.0 10.65 12.2 10.7 Q13.0 10.9 13.6 11.6 14.65 12.5 14.65 14.05 14.65 15.45 13.6 16.5 12.6 17.5 11.15 17.5 9.65 17.5 8.6 16.5 7.65 15.45 7.65 14.05 7.65 12.55 8.55 11.6 L8.55 11.5 Q8.55 10.8 8.0 10.25 7.5 9.65 6.75 9.65 L6.7 9.65 6.1 9.8 5.05 9.8 5.05 6.5 5.95 6.5 6.7 6.7 6.75 6.7 Q7.5 6.7 8.0 6.15 8.55 5.55 8.55 4.85 L8.55 4.75 Q7.65 3.8 7.65 2.35 7.65 0.95 8.6 -0.15 9.65 -1.1 11.15 -1.1 12.6 -1.1 13.6 -0.15 14.65 0.95 14.65 2.35 M13.0 14.05 Q13.0 13.3 12.4 12.75 11.9 12.2 11.15 12.2 10.35 12.2 9.85 12.75 9.3 13.3 9.3 14.05 9.3 14.8 9.85 15.35 10.35 15.85 11.15 15.85 11.9 15.85 12.4 15.35 13.0 14.8 13.0 14.05" fill="#d87800" fill-rule="evenodd" stroke="none"/>
      <path d="M13.0 2.35 Q13.0 3.1 12.4 3.65 11.9 4.2 11.15 4.2 10.35 4.2 9.85 3.65 9.3 3.1 9.3 2.35 9.3 1.6 9.85 1.05 10.35 0.55 11.15 0.55 11.9 0.55 12.4 1.05 13.0 1.6 13.0 2.35 M14.65 2.35 Q14.65 3.85 13.6 4.8 13.05 5.45 12.3 5.7 L11.8 5.8 Q11.0 6.8 11.0 8.15 11.0 9.65 11.9 10.55 L12.0 10.65 12.2 10.7 Q13.0 10.9 13.6 11.6 14.65 12.5 14.65 14.05 14.65 15.45 13.6 16.5 12.6 17.5 11.15 17.5 9.65 17.5 8.6 16.5 7.65 15.45 7.65 14.05 7.65 12.55 8.55 11.6 L8.55 11.5 Q8.55 10.8 8.0 10.25 7.5 9.65 6.75 9.65 L6.7 9.65 6.1 9.8 5.05 9.8 5.05 6.5 5.95 6.5 6.7 6.7 6.75 6.7 Q7.5 6.7 8.0 6.15 8.55 5.55 8.55 4.85 L8.55 4.75 Q7.65 3.8 7.65 2.35 7.65 0.95 8.6 -0.15 9.65 -1.1 11.15 -1.1 12.6 -1.1 13.6 -0.15 14.65 0.95 14.65 2.35 M13.0 14.05 Q13.0 13.3 12.4 12.75 11.9 12.2 11.15 12.2 10.35 12.2 9.85 12.75 9.3 13.3 9.3 14.05 9.3 14.8 9.85 15.35 10.35 15.85 11.15 15.85 11.9 15.85 12.4 15.35 13.0 14.8 13.0 14.05 Z" ffdec:has-small-stroke="true" ffdec:original-stroke-width="0.3" fill="none" stroke="#841a0b" stroke-linecap="round" stroke-linejoin="round" stroke-width="1.0"/>
      <path d="M14.25 2.35 Q14.25 3.85 13.2 4.8 L11.9 5.7 11.4 5.8 Q10.55 6.8 10.55 8.1 10.55 9.6 11.5 10.55 L11.55 10.6 11.8 10.65 Q12.55 10.9 13.2 11.55 14.25 12.5 14.25 14.0 14.25 15.45 13.2 16.5 12.2 17.5 10.75 17.5 9.25 17.5 8.2 16.5 7.25 15.45 7.25 14.0 7.25 12.55 8.15 11.6 L8.15 11.5 8.1 11.0 7.05 10.7 6.95 10.7 6.15 10.95 4.7 10.95 Q3.3 7.95 4.7 5.35 L5.95 5.35 Q6.35 5.7 6.95 5.7 L7.05 5.7 8.05 5.45 8.15 4.85 8.15 4.75 Q7.25 3.8 7.25 2.35 7.25 0.9 8.2 -0.15 9.25 -1.15 10.75 -1.15 12.2 -1.15 13.2 -0.15 14.25 0.9 14.25 2.35 M12.55 2.35 Q12.55 1.55 12.0 1.0 11.5 0.5 10.75 0.5 9.95 0.5 9.45 1.0 8.9 1.55 8.9 2.35 8.9 3.05 9.45 3.65 9.95 4.2 10.75 4.2 11.5 4.2 12.0 3.65 12.55 3.05 12.55 2.35 M12.55 14.0 Q12.55 13.25 12.0 12.7 11.5 12.15 10.75 12.15 9.95 12.15 9.45 12.7 8.9 13.25 8.9 14.0 8.9 14.75 9.45 15.35 9.95 15.85 10.75 15.85 11.5 15.85 12.0 15.35 12.55 14.75 12.55 14.0" fill="#ffb60a" fill-rule="evenodd" stroke="none"/>
      <path d="M14.25 2.35 Q14.25 3.85 13.2 4.8 L11.9 5.7 11.4 5.8 Q10.55 6.8 10.55 8.1 10.55 9.6 11.5 10.55 L11.55 10.6 11.8 10.65 Q12.55 10.9 13.2 11.55 14.25 12.5 14.25 14.0 14.25 15.45 13.2 16.5 12.2 17.5 10.75 17.5 9.25 17.5 8.2 16.5 7.25 15.45 7.25 14.0 7.25 12.55 8.15 11.6 L8.15 11.5 8.1 11.0 7.05 10.7 6.95 10.7 6.15 10.95 4.7 10.95 Q3.3 7.95 4.7 5.35 L5.95 5.35 Q6.35 5.7 6.95 5.7 L7.05 5.7 8.05 5.45 8.15 4.85 8.15 4.75 Q7.25 3.8 7.25 2.35 7.25 0.9 8.2 -0.15 9.25 -1.15 10.75 -1.15 12.2 -1.15 13.2 -0.15 14.25 0.9 14.25 2.35 M12.55 2.35 Q12.55 3.05 12.0 3.65 11.5 4.2 10.75 4.2 9.95 4.2 9.45 3.65 8.9 3.05 8.9 2.35 8.9 1.55 9.45 1.0 9.95 0.5 10.75 0.5 11.5 0.5 12.0 1.0 12.55 1.55 12.55 2.35 M12.55 14.0 Q12.55 13.25 12.0 12.7 11.5 12.15 10.75 12.15 9.95 12.15 9.45 12.7 8.9 13.25 8.9 14.0 8.9 14.75 9.45 15.35 9.95 15.85 10.75 15.85 11.5 15.85 12.0 15.35 12.55 14.75 12.55 14.0 Z" ffdec:has-small-stroke="true" ffdec:original-stroke-width="0.3" fill="none" stroke="#841a0b" stroke-linecap="round" stroke-linejoin="round" stroke-width="1.0"/>
    </g>
    <g id="sprite9">
      <clipPath id="clipPath0">
        <path d="M 8.5 1.65 L 8.68 1.66 L 8.86 1.68 L 9.03 1.72 L 9.19 1.77 L 9.34 1.85 L 9.48 1.93 L 9.62 2.03 L 9.75 2.15 L 9.88 2.29 L 9.99 2.44 L 10.09 2.6 L 10.16 2.76 L 10.22 2.94 L 10.27 3.12 L 10.29 3.3 L 10.3 3.5 L 10.29 3.67 L 10.27 3.84 L 10.22 4.01 L 10.16 4.18 L 10.09 4.34 L 9.99 4.49 L 9.88 4.65 L 9.75 4.8 L 9.62 4.93 L 9.48 5.04 L 9.34 5.14 L 9.19 5.21 L 9.03 5.27 L 8.86 5.32 L 8.68 5.34 L 8.5 5.35 L 8.3 5.34 L 8.12 5.32 L 7.94 5.27 L 7.78 5.21 L 7.62 5.14 L 7.47 5.04 L 7.33 4.93 L 7.2 4.8 L 7.07 4.65 L 6.96 4.49 L 6.86 4.34 L 6.79 4.18 L 6.73 4.01 L 6.68 3.84 L 6.66 3.67 L 6.65 3.5 L 6.66 3.3 L 6.68 3.12 L 6.73 2.94 L 6.79 2.76 L 6.86 2.6 L 6.96 2.44 L 7.07 2.29 L 7.2 2.15 L 7.33 2.03 L 7.47 1.93 L 7.62 1.85 L 7.78 1.77 L 7.94 1.72 L 8.12 1.68 L 8.3 1.66 L 8.5 1.65 Z M 8.5 13.3 L 8.68 13.31 L 8.86 13.33 L 9.03 13.38 L 9.19 13.44 L 9.34 13.51 L 9.48 13.61 L 9.62 13.72 L 9.75 13.85 L 9.88 13.99 L 9.99 14.14 L 10.09 14.29 L 10.16 14.45 L 10.22 14.62 L 10.27 14.79 L 10.29 14.97 L 10.3 15.15 L 10.29 15.34 L 10.27 15.52 L 10.22 15.69 L 10.16 15.86 L 10.09 16.03 L 9.99 16.19 L 9.88 16.35 L 9.75 16.5 L 9.62 16.62 L 9.48 16.72 L 9.34 16.8 L 9.19 16.88 L 9.03 16.93 L 8.86 16.97 L 8.68 16.99 L 8.5 17 L 8.3 16.99 L 8.12 16.97 L 7.94 16.93 L 7.78 16.88 L 7.62 16.8 L 7.47 16.72 L 7.33 16.62 L 7.2 16.5 L 7.07 16.35 L 6.96 16.19 L 6.86 16.03 L 6.79 15.86 L 6.73 15.69 L 6.68 15.52 L 6.66 15.34 L 6.65 15.15 L 6.66 14.97 L 6.68 14.79 L 6.73 14.62 L 6.79 14.45 L 6.86 14.29 L 6.96 14.14 L 7.07 13.99 L 7.2 13.85 L 7.33 13.72 L 7.47 13.61 L 7.62 13.51 L 7.78 13.44 L 7.94 13.38 L 8.12 13.33 L 8.3 13.31 L 8.5 13.3 Z M 8.5 0 L 8.13 0.02 L 7.78 0.06 L 7.44 0.14 L 7.11 0.25 L 6.8 0.39 L 6.5 0.56 L 6.22 0.77 L 5.95 1 L 5.73 1.27 L 5.53 1.55 L 5.37 1.84 L 5.24 2.15 L 5.13 2.47 L 5.06 2.8 L 5.01 3.14 L 5 3.5 L 5.01 3.85 L 5.06 4.19 L 5.13 4.52 L 5.22 4.82 L 5.35 5.12 L 5.51 5.39 L 5.69 5.65 L 5.9 5.9 L 5.9 6 L 5.8 6.6 L 4.8 6.85 L 4.7 6.85 L 4.55 6.84 L 4.41 6.83 L 4.28 6.8 L 4.15 6.76 L 4.03 6.71 L 3.91 6.65 L 3.8 6.58 L 3.7 6.5 L 2.45 6.5 L 2.29 6.83 L 2.14 7.16 L 2.02 7.49 L 1.92 7.82 L 1.85 8.16 L 1.79 8.51 L 1.76 8.85 L 1.75 9.2 L 1.76 9.55 L 1.79 9.91 L 1.85 10.26 L 1.92 10.62 L 2.02 10.99 L 2.14 11.36 L 2.29 11.73 L 2.45 12.1 L 3.9 12.1 L 4.7 11.85 L 4.8 11.85 L 5.07 11.87 L 5.34 11.93 L 5.6 12.02 L 5.85 12.15 L 5.9 12.65 L 5.9 12.75 L 5.69 13 L 5.51 13.26 L 5.35 13.53 L 5.22 13.82 L 5.13 14.13 L 5.06 14.46 L 5.01 14.8 L 5 15.15 L 5.01 15.51 L 5.06 15.85 L 5.13 16.18 L 5.24 16.5 L 5.37 16.81 L 5.53 17.1 L 5.73 17.38 L 5.95 17.65 L 6.22 17.88 L 6.5 18.09 L 6.8 18.26 L 7.11 18.4 L 7.44 18.51 L 7.78 18.59 L 8.13 18.63 L 8.5 18.65 L 8.86 18.63 L 9.2 18.59 L 9.52 18.51 L 9.84 18.4 L 10.14 18.26 L 10.42 18.09 L 10.69 17.88 L 10.95 17.65 L 11.2 17.38 L 11.41 17.1 L 11.59 16.81 L 11.74 16.5 L 11.85 16.18 L 11.93 15.85 L 11.98 15.51 L 12 15.15 L 11.98 14.78 L 11.93 14.43 L 11.85 14.1 L 11.74 13.79 L 11.59 13.49 L 11.41 13.21 L 11.2 12.95 L 10.95 12.7 L 10.79 12.54 L 10.62 12.4 L 10.45 12.27 L 10.27 12.15 L 10.1 12.04 L 9.92 11.95 L 9.74 11.87 L 9.55 11.8 L 9.3 11.75 L 9.25 11.7 L 9.03 11.45 L 8.83 11.19 L 8.67 10.91 L 8.54 10.61 L 8.43 10.3 L 8.36 9.97 L 8.31 9.62 L 8.3 9.25 L 8.31 8.93 L 8.35 8.62 L 8.42 8.32 L 8.51 8.02 L 8.63 7.74 L 8.78 7.47 L 8.95 7.2 L 9.15 6.95 L 9.65 6.85 L 10.95 5.95 L 11.2 5.7 L 11.41 5.44 L 11.59 5.16 L 11.74 4.86 L 11.85 4.55 L 11.93 4.22 L 11.98 3.87 L 12 3.5 L 11.98 3.14 L 11.93 2.8 L 11.85 2.47 L 11.74 2.15 L 11.59 1.84 L 11.41 1.55 L 11.2 1.27 L 10.95 1 L 10.69 0.77 L 10.42 0.56 L 10.14 0.39 L 9.84 0.25 L 9.52 0.14 L 9.2 0.06 L 8.86 0.02 L 8.5 0 Z"/>
      </clipPath>
      <g clip-path="url(#clipPath0)">
        <use ffdec:characterId="21" height="16.3" transform="matrix(1.0, 0.0, 0.0, 1.0, 0.0, 0.0)" width="13.4" xlink:href="#shape11"/>
      </g>
    </g>
    <g id="shape11">
      <path d="M0.0 -2.5 L13.4 4.0 13.4 13.8 0.0 7.3 0.0 -2.5" fill="#e7ff00" fill-rule="evenodd" stroke="none"/>
    </g>
    <g id="shape12">
      <path d="M14.25 2.35 Q14.25 3.85 13.2 4.8 L11.9 5.7 11.4 5.8 Q10.55 6.8 10.55 8.1 10.55 9.6 11.5 10.55 L11.55 10.6 11.8 10.65 Q12.55 10.9 13.2 11.55 14.25 12.5 14.25 14.0 14.25 15.45 13.2 16.5 12.2 17.5 10.75 17.5 9.25 17.5 8.2 16.5 7.25 15.45 7.25 14.0 7.25 12.55 8.15 11.6 L8.15 11.5 8.1 11.0 7.05 10.7 6.95 10.7 6.15 10.95 4.7 10.95 Q3.3 7.95 4.7 5.35 L5.95 5.35 Q6.35 5.7 6.95 5.7 L7.05 5.7 8.05 5.45 8.15 4.85 8.15 4.75 Q7.25 3.8 7.25 2.35 7.25 0.9 8.2 -0.15 9.25 -1.15 10.75 -1.15 12.2 -1.15 13.2 -0.15 14.25 0.9 14.25 2.35 M12.55 2.35 Q12.55 3.05 12.0 3.65 11.5 4.2 10.75 4.2 9.95 4.2 9.45 3.65 8.9 3.05 8.9 2.35 8.9 1.55 9.45 1.0 9.95 0.5 10.75 0.5 11.5 0.5 12.0 1.0 12.55 1.55 12.55 2.35 M12.55 14.0 Q12.55 13.25 12.0 12.7 11.5 12.15 10.75 12.15 9.95 12.15 9.45 12.7 8.9 13.25 8.9 14.0 8.9 14.75 9.45 15.35 9.95 15.85 10.75 15.85 11.5 15.85 12.0 15.35 12.55 14.75 12.55 14.0 Z" ffdec:has-small-stroke="true" ffdec:original-stroke-width="0.3" fill="none" stroke="#841a0b" stroke-linecap="round" stroke-linejoin="round" stroke-width="1.0"/>
      <path d="M2.65 8.1 Q2.65 8.85 2.25 9.4 1.85 9.95 1.35 9.95 0.8 9.95 0.4 9.4 0.0 8.85 0.0 8.1 0.0 7.35 0.4 6.85 0.8 6.3 1.35 6.3 1.85 6.3 2.25 6.85 2.65 7.35 2.65 8.1" fill="#ffb60a" fill-rule="evenodd" stroke="none"/>
      <path d="M2.65 8.1 Q2.65 8.85 2.25 9.4 1.85 9.95 1.35 9.95 0.8 9.95 0.4 9.4 0.0 8.85 0.0 8.1 0.0 7.35 0.4 6.85 0.8 6.3 1.35 6.3 1.85 6.3 2.25 6.85 2.65 7.35 2.65 8.1 Z" ffdec:has-small-stroke="true" ffdec:original-stroke-width="0.3" fill="none" stroke="#841a0b" stroke-linecap="round" stroke-linejoin="round" stroke-width="1.0"/>
      <path d="M7.1 9.95 L1.15 9.95 1.15 6.3 7.1 6.3 7.15 7.35 7.15 9.15 7.1 9.95" fill="#ffb60a" fill-rule="evenodd" stroke="none"/>
      <path d="M7.1 9.95 L1.15 9.95 M1.15 6.3 L7.1 6.3" ffdec:has-small-stroke="true" ffdec:original-stroke-width="0.3" fill="none" stroke="#841a0b" stroke-linecap="round" stroke-linejoin="round" stroke-width="1.0"/>
      <path d="M7.1 6.3 L7.15 7.35 7.15 9.15 7.1 9.95" ffdec:has-small-stroke="true" ffdec:original-stroke-width="0.3" fill="none" stroke="#ff1f00" stroke-linecap="round" stroke-linejoin="round" stroke-width="1.0"/>
      <path d="M0.5 7.2 L6.75 7.2 6.75 8.1 0.2 8.1 Q0.15 7.45 0.5 7.2" fill="#e7ff00" fill-rule="evenodd" stroke="none"/>
      <path d="M0.1 8.3 L6.75 8.3 6.75 9.1 0.5 9.1 Q0.15 9.0 0.1 8.3" fill="#d23b0e" fill-rule="evenodd" stroke="none"/>
      <path d="M11.3 -0.1 Q12.85 0.1 12.8 1.6 L12.6 1.25 Q12.15 0.55 11.35 0.3 10.7 0.1 9.9 0.3 10.45 -0.15 11.3 -0.1" fill="#ffffff" fill-rule="evenodd" stroke="none"/>
      <path d="M11.3 11.5 Q12.85 11.7 12.8 13.2 L12.6 12.85 Q12.15 12.15 11.35 11.9 10.7 11.7 9.9 11.9 10.45 11.45 11.3 11.5" fill="#ffffff" fill-rule="evenodd" stroke="none"/>
    </g>
    <g id="sprite10">
      <use ffdec:characterId="36" height="16.8" transform="matrix(0.9662, -0.2576, 0.2576, 0.9662, -6.75, 4.1)" width="14.9" xlink:href="#sprite11"/>
      <use ffdec:characterId="38" height="12.75" transform="matrix(0.9662, -0.2576, 0.2576, 0.9662, 9.7, 14.85)" width="6.1" xlink:href="#sprite13"/>
      <use ffdec:characterId="40" height="11.15" transform="matrix(0.9921, -0.1257, 0.1257, 0.9921, 5.1, 22.05)" width="14.5" xlink:href="#sprite14"/>
    </g>
    <g id="sprite11">
      <use ffdec:characterId="34" height="11.85" transform="matrix(0.6539, 0.506, -0.506, 0.6539, 5.85, 0.0)" width="13.7" xlink:href="#sprite12"/>
      <use ffdec:characterId="35" height="6.35" transform="matrix(1.0, 0.0, 0.0, 1.0, 0.0, 0.0)" width="6.5" xlink:href="#shape14"/>
    </g>
    <g id="sprite12">
      <use ffdec:characterId="33" height="11.85" transform="matrix(1.0, 0.0, 0.0, 1.0, 0.0, 0.0)" width="13.7" xlink:href="#shape13"/>
    </g>
    <g id="shape13">
      <path d="M13.4 8.85 Q13.4 9.95 11.45 10.75 9.5 11.55 6.7 11.55 3.9 11.55 1.95 10.75 0.0 9.95 0.0 8.85 0.0 7.75 1.95 6.95 3.9 6.2 6.7 6.2 9.5 6.2 11.45 6.95 13.4 7.75 13.4 8.85" fill="#000000" fill-rule="evenodd" stroke="none"/>
      <path d="M13.4 8.85 Q13.4 9.95 11.45 10.75 9.5 11.55 6.7 11.55 3.9 11.55 1.95 10.75 0.0 9.95 0.0 8.85 0.0 7.75 1.95 6.95 3.9 6.2 6.7 6.2 9.5 6.2 11.45 6.95 13.4 7.75 13.4 8.85 Z" ffdec:has-small-stroke="true" ffdec:original-stroke-width="0.3" fill="none" stroke="#000000" stroke-linecap="round" stroke-linejoin="round" stroke-width="1.2094571861317023"/>
      <path d="M13.05 8.85 Q12.55 9.4 11.45 9.85 9.5 10.65 6.7 10.65 3.9 10.65 1.95 9.85 0.85 9.4 0.4 8.85 0.0 8.45 0.0 7.95 0.0 6.85 1.95 6.05 3.9 5.3 6.7 5.3 9.5 5.3 11.45 6.05 13.4 6.85 13.4 7.95 13.4 8.45 13.05 8.85" fill="#363639" fill-rule="evenodd" stroke="none"/>
      <path d="M0.4 8.85 Q0.0 8.45 0.0 7.95 0.0 6.85 1.95 6.05 3.9 5.3 6.7 5.3 9.5 5.3 11.45 6.05 13.4 6.85 13.4 7.95 13.4 8.45 13.05 8.85" ffdec:has-small-stroke="true" ffdec:original-stroke-width="0.3" fill="none" stroke="#000000" stroke-linecap="round" stroke-linejoin="round" stroke-width="1.2094571861317023"/>
      <path d="M13.05 8.85 Q12.55 9.4 11.45 9.85 9.5 10.65 6.7 10.65 3.9 10.65 1.95 9.85 0.85 9.4 0.4 8.85" ffdec:has-small-stroke="true" ffdec:original-stroke-width="0.3" fill="none" stroke="#4b4b4b" stroke-linecap="round" stroke-linejoin="round" stroke-width="1.2094571861317023"/>
      <path d="M1.95 6.3 L1.35 2.75 12.05 2.75 11.4 6.3 Q9.35 7.25 7.2 7.35 L3.75 6.95 1.95 6.3" fill="#000000" fill-rule="evenodd" stroke="none"/>
      <path d="M7.2 9.15 L6.7 9.15 3.7 8.65 3.75 6.95 7.2 7.35 7.2 9.15" fill="#ff2cad" fill-rule="evenodd" stroke="none"/>
      <path d="M11.4 6.3 L11.2 7.4 Q11.1 8.05 9.95 8.55 8.8 9.05 7.2 9.15 L7.2 7.35 Q9.35 7.25 11.4 6.3 M3.7 8.65 L3.45 8.55 Q2.25 8.05 2.2 7.4 L2.15 7.4 1.95 6.3 3.75 6.95 3.7 8.65" fill="#ff0000" fill-rule="evenodd" stroke="none"/>
      <path d="M1.95 6.3 L1.35 2.75 12.05 2.75 11.4 6.3" ffdec:has-small-stroke="true" ffdec:original-stroke-width="0.3" fill="none" stroke="#000000" stroke-linecap="round" stroke-linejoin="round" stroke-width="1.2094571861317023"/>
      <path d="M11.4 6.3 L11.2 7.4 Q11.1 8.05 9.95 8.55 8.8 9.05 7.2 9.15 L6.7 9.15 3.7 8.65 3.45 8.55 Q2.25 8.05 2.2 7.4 L2.15 7.4 1.95 6.3" ffdec:has-small-stroke="true" ffdec:original-stroke-width="0.3" fill="none" stroke="#700004" stroke-linecap="round" stroke-linejoin="round" stroke-width="1.2094571861317023"/>
      <path d="M12.0 2.6 L11.85 3.1 10.5 4.05 Q8.95 4.65 6.65 4.7 L2.8 4.05 1.45 3.1 1.35 2.6 Q1.4 1.75 2.95 1.15 4.5 0.6 6.65 0.6 8.85 0.6 10.35 1.15 11.95 1.75 12.0 2.6" fill="#000000" fill-rule="evenodd" stroke="none"/>
      <path d="M12.0 2.6 L11.85 3.1 10.5 4.05 Q8.95 4.65 6.65 4.7 L2.8 4.05 1.45 3.1 1.35 2.6 Q1.4 1.75 2.95 1.15 4.5 0.6 6.65 0.6 8.85 0.6 10.35 1.15 11.95 1.75 12.0 2.6 Z" ffdec:has-small-stroke="true" ffdec:original-stroke-width="0.3" fill="none" stroke="#000000" stroke-linecap="round" stroke-linejoin="round" stroke-width="1.2094571861317023"/>
      <path d="M1.8 2.35 L1.65 1.9 Q1.65 1.1 3.1 0.55 4.55 0.0 6.65 0.0 8.75 0.0 10.15 0.55 11.65 1.1 11.65 1.9 L11.5 2.35 10.15 3.2 6.65 3.75 Q4.55 3.75 3.1 3.2 2.1 2.85 1.8 2.35" fill="#363639" fill-rule="evenodd" stroke="none"/>
      <path d="M1.8 2.35 L1.65 1.9 Q1.65 1.1 3.1 0.55 4.55 0.0 6.65 0.0 8.75 0.0 10.15 0.55 11.65 1.1 11.65 1.9 L11.5 2.35" ffdec:has-small-stroke="true" ffdec:original-stroke-width="0.3" fill="none" stroke="#000000" stroke-linecap="round" stroke-linejoin="round" stroke-width="1.2094571861317023"/>
      <path d="M11.5 2.35 L10.15 3.2 6.65 3.75 Q4.55 3.75 3.1 3.2 2.1 2.85 1.8 2.35" ffdec:has-small-stroke="true" ffdec:original-stroke-width="0.3" fill="none" stroke="#4b4b4b" stroke-linecap="round" stroke-linejoin="round" stroke-width="1.2094571861317023"/>
    </g>
    <g id="shape14">
      <path d="M13.65 14.65 L13.65 14.85 10.45 15.55 7.95 13.0 8.75 13.0 10.3 14.3 11.9 14.45 13.65 14.65" fill="#422518" fill-rule="evenodd" stroke="none"/>
      <path d="M13.4 11.0 Q13.8 10.9 14.2 12.85 14.6 14.8 14.35 16.0 L13.45 16.65 13.0 13.35 12.15 12.45 10.75 11.35 8.9 10.6 8.9 10.65 8.9 10.5 Q9.05 10.15 9.8 10.5 L11.7 11.4 12.75 11.45 Q13.0 11.05 13.4 11.0" fill="#422518" fill-rule="evenodd" stroke="none"/>
    </g>
    <g id="sprite13">
      <use ffdec:characterId="37" height="12.75" transform="matrix(1.0, 0.0, 0.0, 1.0, 0.0, 0.0)" width="6.1" xlink:href="#shape15"/>
    </g>
    <g id="shape15">
      <path d="M6.0 12.25 L5.3 12.75 4.8 12.75 Q4.65 12.75 3.6 10.55 L1.95 7.55 Q1.4 6.75 1.4 5.95 L1.2 4.15 Q0.95 3.4 0.25 2.8 -0.4 2.1 0.6 0.55 1.55 -1.05 1.95 2.15 2.35 5.45 3.45 7.15 L5.45 10.4 Q6.4 11.85 6.0 12.25" fill="#422518" fill-rule="evenodd" stroke="none"/>
    </g>
    <g id="sprite14">
      <use ffdec:characterId="39" height="11.15" transform="matrix(1.0, 0.0, 0.0, 1.0, 0.0, 0.0)" width="14.5" xlink:href="#shape16"/>
    </g>
    <g id="shape16">
      <path d="M14.15 0.45 Q14.85 1.55 14.05 1.75 L12.45 2.15 Q11.6 2.45 11.25 2.9 L9.25 4.3 Q7.7 5.4 4.7 8.4 1.7 11.35 0.9 11.15 0.1 10.9 0.0 10.05 -0.1 9.2 3.4 7.2 4.2 6.95 5.15 6.1 L7.1 4.35 Q8.55 3.0 11.0 1.15 13.35 -0.7 14.15 0.45" fill="#422518" fill-rule="evenodd" stroke="none"/>
    </g>
    <g id="sprite15">
      <use ffdec:characterId="42" height="17.45" transform="matrix(1.0, 0.0, 0.0, 1.0, 0.0, 0.0)" width="24.0" xlink:href="#shape17"/>
    </g>
    <g id="shape17">
      <path d="M19.35 12.2 L19.35 12.25 19.75 15.95 Q19.75 16.35 19.1 16.55 L15.65 17.1 Q13.15 17.3 13.15 16.75 L13.4 13.7 14.5 13.45 16.95 12.95 19.35 12.2" fill="#5db532" fill-rule="evenodd" stroke="none"/>
      <path d="M13.4 13.7 L13.5 12.1 13.65 10.05 Q13.8 9.2 15.55 8.8 L18.1 8.55 Q19.0 8.55 19.25 10.1 L19.35 12.2 16.95 12.95 14.5 13.45 13.4 13.7" fill="#30740f" fill-rule="evenodd" stroke="none"/>
      <path d="M13.4 13.7 L13.5 12.1 13.65 10.05 Q13.8 9.2 15.55 8.8 L18.1 8.55 Q19.0 8.55 19.25 10.1 L19.35 12.2 19.35 12.25 19.75 15.95 Q19.75 16.35 19.1 16.55 L15.65 17.1 Q13.15 17.3 13.15 16.75 L13.4 13.7 Z" ffdec:has-small-stroke="true" ffdec:original-stroke-width="0.3" fill="none" stroke="#194b00" stroke-linecap="round" stroke-linejoin="round" stroke-width="1.0"/>
      <path d="M22.0 1.85 Q21.6 3.25 20.7 4.2 19.75 5.1 16.8 6.1 23.3 5.35 22.8 7.3 20.8 9.05 17.75 9.9 14.8 10.8 11.25 10.8 L6.5 10.5 Q5.85 8.25 6.35 7.9 6.65 7.45 8.3 7.4 9.9 7.25 11.45 6.3 13.05 5.5 14.7 1.95 16.55 0.6 18.8 0.1 20.95 -0.35 21.95 1.75 L22.0 1.8 22.0 1.85" fill="#5db532" fill-rule="evenodd" stroke="none"/>
      <path d="M0.25 3.2 L0.2 3.15 0.2 3.1 Q-0.25 2.15 0.4 1.75 L1.45 1.2 Q1.95 0.95 2.75 1.6 3.5 2.2 2.8 2.35 2.05 2.45 2.05 3.2 1.95 3.65 2.45 4.4 L4.55 6.2 Q2.1 5.65 1.1 4.45 L0.25 3.2" fill="#6ccd3c" fill-rule="evenodd" stroke="none"/>
      <path d="M22.8 7.3 Q23.3 5.35 16.8 6.1 19.75 5.1 20.7 4.2 21.6 3.25 22.0 1.85 L22.55 3.4 Q23.0 4.9 23.55 5.5 24.1 6.05 22.8 7.3 M14.7 1.95 Q13.05 5.5 11.45 6.3 9.9 7.25 8.3 7.4 6.65 7.45 6.35 7.9 5.85 8.25 6.5 10.5 L2.8 9.55 Q1.4 8.95 0.65 8.05 -0.1 7.2 0.25 6.25 0.65 5.15 0.25 3.2 L1.1 4.45 Q2.1 5.65 4.55 6.2 L2.45 4.4 Q1.95 3.65 2.05 3.2 2.4 3.85 4.3 4.65 L7.15 4.95 Q8.25 4.9 10.45 4.25 12.55 3.65 14.7 1.95" fill="#30740f" fill-rule="evenodd" stroke="none"/>
      <path d="M22.8 7.3 Q24.1 6.05 23.55 5.5 23.0 4.9 22.55 3.4 L22.0 1.85 22.0 1.8 21.95 1.75 Q20.95 -0.35 18.8 0.1 16.55 0.6 14.7 1.95 12.55 3.65 10.45 4.25 8.25 4.9 7.15 4.95 L4.3 4.65 Q2.4 3.85 2.05 3.2 2.05 2.45 2.8 2.35 3.5 2.2 2.75 1.6 1.95 0.95 1.45 1.2 L0.4 1.75 Q-0.25 2.15 0.2 3.1 L0.2 3.15 0.25 3.2 Q0.65 5.15 0.25 6.25 -0.1 7.2 0.65 8.05 1.4 8.95 2.8 9.55 L6.5 10.5 11.25 10.8 Q14.8 10.8 17.75 9.9 20.8 9.05 22.8 7.3 Z" ffdec:has-small-stroke="true" ffdec:original-stroke-width="0.3" fill="none" stroke="#194b00" stroke-linecap="round" stroke-linejoin="round" stroke-width="1.0"/>
      <path d="M19.55 14.8 Q19.6 15.2 18.4 15.4 L16.2 15.55 13.4 15.7 13.35 15.6 13.45 14.4 14.55 14.8 15.55 14.8 18.1 14.45 18.4 14.35 19.4 13.4 19.55 14.8" fill="#dfffbf" fill-rule="evenodd" stroke="none"/>
    </g>
  </defs>
</svg>
