<?xml version="1.0" encoding="UTF-8" standalone="no"?>
<svg xmlns:ffdec="https://www.free-decompiler.com/flash" xmlns:xlink="http://www.w3.org/1999/xlink" ffdec:objectType="frame" height="32.25px" width="55.6px" xmlns="http://www.w3.org/2000/svg">
  <g transform="matrix(1.0, 0.0, 0.0, 1.0, 27.95, 47.8)">
    <use ffdec:characterId="14" height="37.0" transform="matrix(0.8707, 0.0, 0.0, 0.8707, 0.1, -33.4)" width="63.9" xlink:href="#sprite0"/>
  </g>
  <defs>
    <g id="sprite0">
      <use ffdec:characterId="13" height="37.0" transform="matrix(1.0, 0.0, 0.0, 1.0, -30.1, -11.45)" width="63.9" xlink:href="#sprite1"/>
    </g>
    <g id="sprite1">
      <use ffdec:characterId="10" height="16.6" transform="matrix(1.0, 0.0, 0.0, 1.0, 0.0, 0.0)" width="36.35" xlink:href="#shape0"/>
      <use ffdec:characterId="12" height="28.85" transform="matrix(1.0999, 0.0, 0.0, 1.0999, -1.95, -3.7)" width="22.3" xlink:href="#sprite2"/>
      <use ffdec:characterId="12" height="28.85" transform="matrix(-1.0999, 0.0, 0.0, 1.0999, 61.55, -3.7)" width="22.3" xlink:href="#sprite3"/>
    </g>
    <g id="shape0">
      <path d="M11.95 28.6 L11.8 28.3 Q12.1 25.4 13.75 22.95 L14.6 21.9 16.15 20.15 18.8 18.1 Q21.0 16.7 23.65 16.05 L24.65 15.75 25.25 15.7 27.7 15.35 27.9 15.35 29.3 15.3 29.65 15.3 33.1 15.6 Q35.2 15.85 37.35 16.5 41.1 17.6 43.7 20.15 L45.2 21.9 45.4 22.2 Q46.7 24.1 47.4 26.2 L47.85 28.25 48.05 29.95 Q47.3 30.65 46.4 29.95 46.0 26.65 43.45 24.55 40.65 22.35 37.55 21.3 35.4 20.55 33.1 20.3 L31.15 20.2 30.65 20.2 27.9 20.15 27.65 20.15 25.7 20.2 Q23.25 20.45 21.05 21.3 19.9 21.8 18.8 22.45 17.05 23.45 15.6 25.0 14.2 26.5 13.3 28.55 L11.95 28.6 M25.95 18.65 L25.95 16.95 25.95 18.65" fill="#966b34" fill-rule="evenodd" stroke="none"/>
      <path d="M48.05 29.95 L48.05 31.45 Q47.2 32.4 46.35 31.45 L46.0 29.95 Q45.3 27.8 43.45 26.3 38.75 22.65 33.1 22.1 L31.15 21.95 27.9 21.9 27.65 21.9 Q23.45 21.8 20.05 23.5 L19.25 23.95 18.8 24.2 Q17.05 25.2 15.6 26.75 14.25 28.15 13.4 30.1 12.35 31.0 11.7 30.1 L11.95 28.6 13.3 28.55 Q14.2 26.5 15.6 25.0 17.05 23.45 18.8 22.45 19.9 21.8 21.05 21.3 23.25 20.45 25.7 20.2 L27.65 20.15 27.9 20.15 30.65 20.2 31.15 20.2 33.1 20.3 Q35.4 20.55 37.55 21.3 40.65 22.35 43.45 24.55 46.0 26.65 46.4 29.95 47.3 30.65 48.05 29.95" fill="#271600" fill-rule="evenodd" stroke="none"/>
      <path d="M25.95 16.95 L25.95 18.65" fill="none" stroke="#ffecd3" stroke-linecap="round" stroke-linejoin="round" stroke-width="2.0"/>
    </g>
    <g id="sprite2">
      <use ffdec:characterId="11" height="28.85" transform="matrix(1.0, 0.0, 0.0, 1.0, 0.0, 0.0)" width="22.3" xlink:href="#shape1"/>
    </g>
    <g id="shape1">
      <path d="M20.65 21.4 Q18.8 22.2 17.1 23.4 15.6 24.25 15.05 24.6 14.55 24.9 14.1 24.3 L13.3 23.3 Q12.5 22.55 12.45 21.45 L12.5 20.05 Q10.0 18.4 8.85 15.8 L8.75 15.65 7.85 15.75 5.85 15.65 Q4.65 15.45 3.7 14.85 L2.85 14.15 1.3 12.35 Q0.2 10.95 -0.05 10.0 L-0.05 9.95 Q-0.4 8.55 0.25 7.35 L0.25 7.25 Q0.05 5.8 1.2 4.75 1.65 3.75 3.05 3.65 3.95 3.6 4.65 4.1 5.5 4.65 5.65 6.35 5.7 7.1 6.0 7.6 5.65 4.7 6.8 1.9 7.45 0.35 8.85 -0.65 L10.25 -1.15 12.05 -1.05 12.65 -0.9 13.55 -0.3 13.8 0.35 13.75 1.0 14.1 1.3 14.7 2.4 14.55 5.15 Q14.6 6.6 13.4 7.2 L13.7 10.8 14.7 14.05 17.7 17.2 Q19.4 16.7 20.65 17.2 L20.65 21.4" fill="#ff2a00" fill-rule="evenodd" stroke="none"/>
      <path d="M20.65 17.2 Q21.3 17.45 21.8 17.95 L22.05 18.4 22.05 21.1 20.65 21.4 20.65 17.2" fill="#aa1c00" fill-rule="evenodd" stroke="none"/>
      <path d="M20.65 21.4 Q18.8 22.2 17.1 23.4 15.6 24.25 15.05 24.6 14.55 24.9 14.1 24.3 L13.3 23.3 Q12.5 22.55 12.45 21.45 L12.5 20.05 Q10.0 18.4 8.85 15.8 L8.75 15.65 7.85 15.75 5.85 15.65 Q4.65 15.45 3.7 14.85 L2.85 14.15 1.3 12.35 Q0.2 10.95 -0.05 10.0 L-0.05 9.95 Q-0.4 8.55 0.25 7.35 L0.25 7.25 Q0.05 5.8 1.2 4.75 1.65 3.75 3.05 3.65 3.95 3.6 4.65 4.1 5.5 4.65 5.65 6.35 5.7 7.1 6.0 7.6 5.65 4.7 6.8 1.9 7.45 0.35 8.85 -0.65 L10.25 -1.15 12.05 -1.05 12.65 -0.9 13.55 -0.3 13.8 0.35 13.75 1.0 14.1 1.3 14.7 2.4 14.55 5.15 Q14.6 6.6 13.4 7.2 L13.7 10.8 14.7 14.05 17.7 17.2 Q19.4 16.7 20.65 17.2 21.3 17.45 21.8 17.95 L22.05 18.4" ffdec:has-small-stroke="true" ffdec:original-stroke-width="0.1" fill="none" stroke="#af1b00" stroke-linecap="round" stroke-linejoin="round" stroke-width="1.0441111238850458"/>
      <path d="M21.9 21.0 L21.95 21.1 20.55 21.65 Q15.95 23.5 13.1 27.55 L12.55 26.95 Q11.8 26.1 11.75 25.0 L11.85 23.55 Q9.45 21.8 8.35 19.15 L8.25 18.95 7.4 19.1 5.5 19.0 Q4.35 18.75 3.5 18.2 L2.7 17.45 1.2 15.6 0.75 14.9 -0.05 13.15 -0.05 13.1 Q-0.35 11.8 0.1 10.6 L0.15 10.55 0.25 10.35 0.25 10.25 Q0.05 8.75 1.15 7.65 1.55 6.7 2.65 6.5 L2.9 6.5 Q3.8 6.45 4.45 6.95 5.25 7.5 5.4 9.25 5.5 11.0 6.5 11.25 L6.5 11.1 Q5.85 7.0 7.0 4.35 L7.4 3.5 7.4 3.45 Q7.55 2.55 8.3 2.1 L8.7 1.8 9.8 1.45 11.5 1.5 12.05 1.7 Q12.6 1.9 12.95 2.35 L13.15 2.95 13.1 3.65 13.45 3.95 13.85 4.7 13.95 4.9 14.0 5.1 13.95 6.25 13.8 6.6 13.6 7.1 13.25 7.55 13.15 7.65 12.75 8.35 12.7 8.45 12.65 9.4 13.05 13.95 13.85 15.85 14.95 17.4 16.7 19.05 19.5 19.25 Q20.5 19.45 21.2 20.2 L21.35 20.35 21.9 21.0" fill="url(#gradient0)" fill-rule="evenodd" stroke="none"/>
      <path d="M0.15 10.55 L0.25 10.35 0.25 10.25 Q0.05 8.75 1.15 7.65 1.55 6.7 2.65 6.5 L2.9 6.5 Q3.8 6.45 4.45 6.95 5.25 7.5 5.4 9.25 5.5 11.0 6.5 11.25 L6.5 11.1 Q5.85 7.0 7.0 4.35 L7.4 3.5 7.4 3.45 Q7.55 2.55 8.3 2.1 L8.7 1.8 9.8 1.45 11.5 1.5 12.05 1.7 Q12.6 1.9 12.95 2.35 L13.15 2.95 13.1 3.65 13.45 3.95 13.85 4.7 13.95 4.9 14.0 5.1 13.95 6.25 13.8 6.6 13.6 7.1 13.25 7.55 13.15 7.65 12.75 8.35 12.7 8.45 12.65 9.4 13.05 13.95 13.85 15.85 14.95 17.4 16.7 19.05 19.5 19.25 Q20.5 19.45 21.2 20.2 L21.35 20.35 21.9 21.0" ffdec:has-small-stroke="true" ffdec:original-stroke-width="0.1" fill="none" stroke="#ff6969" stroke-linecap="round" stroke-linejoin="round" stroke-width="1.0441111238850458"/>
    </g>
    <linearGradient gradientTransform="matrix(0.0031, 0.0116, -0.0154, 0.0041, 14.6, 15.0)" gradientUnits="userSpaceOnUse" id="gradient0" spreadMethod="pad" x1="-819.2" x2="819.2">
      <stop offset="0.07058823529411765" stop-color="#ac1d00"/>
      <stop offset="1.0" stop-color="#7a1400"/>
    </linearGradient>
    <g id="sprite3">
      <use ffdec:characterId="11" height="28.85" transform="matrix(1.0, 0.0, 0.0, 1.0, 0.0, 0.0)" width="22.3" xlink:href="#shape2"/>
    </g>
    <g id="shape2">
      <path d="M20.65 21.4 Q18.8 22.2 17.1 23.4 15.6 24.25 15.05 24.6 14.55 24.9 14.1 24.3 L13.3 23.3 Q12.5 22.55 12.45 21.45 L12.5 20.05 Q10.0 18.4 8.85 15.8 L8.75 15.65 7.85 15.75 5.85 15.65 Q4.65 15.45 3.7 14.85 L2.85 14.15 1.3 12.35 Q0.2 10.95 -0.05 10.0 L-0.05 9.95 Q-0.4 8.55 0.25 7.35 L0.25 7.25 Q0.05 5.8 1.2 4.75 1.65 3.75 3.05 3.65 3.95 3.6 4.65 4.1 5.5 4.65 5.65 6.35 5.7 7.1 6.0 7.6 5.65 4.7 6.8 1.9 7.45 0.35 8.85 -0.65 L10.25 -1.15 12.05 -1.05 12.65 -0.9 13.55 -0.3 13.8 0.35 13.75 1.0 14.1 1.3 14.7 2.4 14.55 5.15 Q14.6 6.6 13.4 7.2 L13.7 10.8 14.7 14.05 17.7 17.2 Q19.4 16.7 20.65 17.2 L20.65 21.4" fill="#ff2a00" fill-rule="evenodd" stroke="none"/>
      <path d="M20.65 17.2 Q21.3 17.45 21.8 17.95 L22.05 18.4 22.05 21.1 20.65 21.4 20.65 17.2" fill="#aa1c00" fill-rule="evenodd" stroke="none"/>
      <path d="M20.65 21.4 Q18.8 22.2 17.1 23.4 15.6 24.25 15.05 24.6 14.55 24.9 14.1 24.3 L13.3 23.3 Q12.5 22.55 12.45 21.45 L12.5 20.05 Q10.0 18.4 8.85 15.8 L8.75 15.65 7.85 15.75 5.85 15.65 Q4.65 15.45 3.7 14.85 L2.85 14.15 1.3 12.35 Q0.2 10.95 -0.05 10.0 L-0.05 9.95 Q-0.4 8.55 0.25 7.35 L0.25 7.25 Q0.05 5.8 1.2 4.75 1.65 3.75 3.05 3.65 3.95 3.6 4.65 4.1 5.5 4.65 5.65 6.35 5.7 7.1 6.0 7.6 5.65 4.7 6.8 1.9 7.45 0.35 8.85 -0.65 L10.25 -1.15 12.05 -1.05 12.65 -0.9 13.55 -0.3 13.8 0.35 13.75 1.0 14.1 1.3 14.7 2.4 14.55 5.15 Q14.6 6.6 13.4 7.2 L13.7 10.8 14.7 14.05 17.7 17.2 Q19.4 16.7 20.65 17.2 21.3 17.45 21.8 17.95 L22.05 18.4" ffdec:has-small-stroke="true" ffdec:original-stroke-width="0.1" fill="none" stroke="#af1b00" stroke-linecap="round" stroke-linejoin="round" stroke-width="1.0441111238850458"/>
      <path d="M21.9 21.0 L21.95 21.1 20.55 21.65 Q15.95 23.5 13.1 27.55 L12.55 26.95 Q11.8 26.1 11.75 25.0 L11.85 23.55 Q9.45 21.8 8.35 19.15 L8.25 18.95 7.4 19.1 5.5 19.0 Q4.35 18.75 3.5 18.2 L2.7 17.45 1.2 15.6 0.75 14.9 -0.05 13.15 -0.05 13.1 Q-0.35 11.8 0.1 10.6 L0.15 10.55 0.25 10.35 0.25 10.25 Q0.05 8.75 1.15 7.65 1.55 6.7 2.65 6.5 L2.9 6.5 Q3.8 6.45 4.45 6.95 5.25 7.5 5.4 9.25 5.5 11.0 6.5 11.25 L6.5 11.1 Q5.85 7.0 7.0 4.35 L7.4 3.5 7.4 3.45 Q7.55 2.55 8.3 2.1 L8.7 1.8 9.8 1.45 11.5 1.5 12.05 1.7 Q12.6 1.9 12.95 2.35 L13.15 2.95 13.1 3.65 13.45 3.95 13.85 4.7 13.95 4.9 14.0 5.1 13.95 6.25 13.8 6.6 13.6 7.1 13.25 7.55 13.15 7.65 12.75 8.35 12.7 8.45 12.65 9.4 13.05 13.95 13.85 15.85 14.95 17.4 16.7 19.05 19.5 19.25 Q20.5 19.45 21.2 20.2 L21.35 20.35 21.9 21.0" fill="url(#gradient1)" fill-rule="evenodd" stroke="none"/>
      <path d="M0.15 10.55 L0.25 10.35 0.25 10.25 Q0.05 8.75 1.15 7.65 1.55 6.7 2.65 6.5 L2.9 6.5 Q3.8 6.45 4.45 6.95 5.25 7.5 5.4 9.25 5.5 11.0 6.5 11.25 L6.5 11.1 Q5.85 7.0 7.0 4.35 L7.4 3.5 7.4 3.45 Q7.55 2.55 8.3 2.1 L8.7 1.8 9.8 1.45 11.5 1.5 12.05 1.7 Q12.6 1.9 12.95 2.35 L13.15 2.95 13.1 3.65 13.45 3.95 13.85 4.7 13.95 4.9 14.0 5.1 13.95 6.25 13.8 6.6 13.6 7.1 13.25 7.55 13.15 7.65 12.75 8.35 12.7 8.45 12.65 9.4 13.05 13.95 13.85 15.85 14.95 17.4 16.7 19.05 19.5 19.25 Q20.5 19.45 21.2 20.2 L21.35 20.35 21.9 21.0" ffdec:has-small-stroke="true" ffdec:original-stroke-width="0.1" fill="none" stroke="#ff6969" stroke-linecap="round" stroke-linejoin="round" stroke-width="1.0441111238850458"/>
    </g>
    <linearGradient gradientTransform="matrix(0.0031, 0.0116, -0.0154, 0.0041, 14.6, 15.0)" gradientUnits="userSpaceOnUse" id="gradient1" spreadMethod="pad" x1="-819.2" x2="819.2">
      <stop offset="0.07058823529411765" stop-color="#ac1d00"/>
      <stop offset="1.0" stop-color="#7a1400"/>
    </linearGradient>
  </defs>
</svg>
