<?xml version="1.0" encoding="UTF-8" standalone="no"?>
<svg xmlns:ffdec="https://www.free-decompiler.com/flash" xmlns:xlink="http://www.w3.org/1999/xlink" ffdec:objectType="frame" height="43.15px" width="54.95px" xmlns="http://www.w3.org/2000/svg">
  <g transform="matrix(1.0, 0.0, 0.0, 1.0, 29.45, 44.8)">
    <use ffdec:characterId="2" height="43.15" transform="matrix(1.0, 0.0, 0.0, 1.0, -29.45, -44.8)" width="54.95" xlink:href="#sprite0"/>
  </g>
  <defs>
    <g id="sprite0">
      <use ffdec:characterId="1" height="43.15" transform="matrix(1.0, 0.0, 0.0, 1.0, 0.0, 0.0)" width="54.95" xlink:href="#shape0"/>
    </g>
    <g id="shape0">
      <path d="M49.7 13.6 L50.0 14.2 Q52.2 18.6 51.45 23.35 L51.4 23.6 Q44.7 19.25 39.65 10.25 L40.25 19.65 Q27.0 22.8 14.45 18.35 L16.05 12.5 Q10.7 15.65 6.75 20.4 L6.45 20.05 Q6.5 10.0 15.8 5.0 23.25 6.25 29.55 2.75 43.75 4.6 49.8 14.25 L49.7 13.6 M46.9 11.25 Q44.55 8.6 43.3 8.6 L41.75 8.65 44.15 12.95 Q45.85 15.75 47.55 15.75 48.2 15.75 48.65 15.05 L49.0 14.15 Q49.0 13.7 46.9 11.25 M33.15 12.9 Q33.15 13.6 30.9 14.6 28.5 15.6 26.4 15.6 L24.7 15.4 23.15 14.85 20.0 14.85 23.05 15.15 Q23.8 15.7 25.85 16.45 28.6 17.5 30.55 17.5 33.7 17.5 35.5 15.95 37.0 14.6 37.0 12.8 37.0 10.25 35.05 8.5 33.3 7.0 28.75 5.1 L28.65 5.7 30.9 8.25 Q33.15 10.85 33.15 12.9 M16.1 10.6 L17.05 9.75 17.0 9.25 16.9 9.1 Q15.65 8.75 14.8 9.35 14.1 9.85 14.05 10.55 L14.15 11.1 14.35 11.3 14.8 11.4 16.1 10.6" fill="#a0c63e" fill-rule="evenodd" stroke="none"/>
      <path d="M50.0 14.2 Q52.15 18.2 53.3 23.55 55.35 32.9 51.55 41.3 48.45 42.2 47.85 40.1 47.2 37.95 47.85 34.25 L47.9 31.85 Q47.6 28.35 45.5 22.75 L41.15 25.65 Q33.5 29.95 24.6 30.25 L14.7 29.4 9.9 28.05 11.75 32.7 Q12.9 35.5 12.7 38.3 L12.7 38.35 12.35 39.4 Q6.0 40.55 3.7 34.85 0.7 27.4 2.15 20.95 3.5 14.65 9.0 9.3 L9.4 9.0 12.8 6.3 Q15.2 4.35 16.75 3.4 18.3 2.45 20.25 2.05 L23.7 1.1 28.65 0.55 Q32.0 0.45 34.0 1.4 L37.7 3.05 41.5 5.2 43.95 6.95 Q46.9 9.15 49.05 12.5 L49.7 13.6 49.8 14.25 Q43.75 4.6 29.55 2.75 23.25 6.25 15.8 5.0 6.5 10.0 6.45 20.05 L6.75 20.4 Q10.7 15.65 16.05 12.5 L14.45 18.35 Q27.0 22.8 40.25 19.65 L39.65 10.25 Q44.7 19.25 51.4 23.6 L51.45 23.35 Q52.2 18.6 50.0 14.2" fill="#7a9c23" fill-rule="evenodd" stroke="none"/>
      <path d="M16.1 10.6 L14.8 11.4 14.35 11.3 14.15 11.1 14.05 10.55 Q14.1 9.85 14.8 9.35 15.65 8.75 16.9 9.1 L17.0 9.25 17.05 9.75 16.1 10.6 M33.15 12.9 Q33.15 10.85 30.9 8.25 L28.65 5.7 28.75 5.1 Q33.3 7.0 35.05 8.5 37.0 10.25 37.0 12.8 37.0 14.6 35.5 15.95 33.7 17.5 30.55 17.5 28.6 17.5 25.85 16.45 23.8 15.7 23.05 15.15 L20.0 14.85 23.15 14.85 24.7 15.4 26.4 15.6 Q28.5 15.6 30.9 14.6 33.15 13.6 33.15 12.9 M46.9 11.25 Q49.0 13.7 49.0 14.15 L48.65 15.05 Q48.2 15.75 47.55 15.75 45.85 15.75 44.15 12.95 L41.75 8.65 43.3 8.6 Q44.55 8.6 46.9 11.25" fill="#dae456" fill-rule="evenodd" stroke="none"/>
      <path d="M10.05 28.75 L10.7 31.2 12.9 37.65 12.6 38.5 Q12.2 39.0 11.55 39.0 L10.8 38.85 10.55 38.25 Q8.45 33.1 8.5 27.3 L8.5 26.85 8.5 26.75 8.55 26.9 9.15 27.9 10.05 28.75 M44.3 23.35 L44.3 23.55 Q44.3 24.45 36.8 27.4 28.65 30.65 23.55 30.65 17.25 30.65 13.9 29.25 L11.35 27.65 11.45 27.35 Q12.3 28.1 13.7 28.6 L13.8 28.65 Q17.3 30.05 21.3 29.45 L28.9 28.6 Q31.4 28.55 33.8 27.85 36.65 26.05 40.05 25.2 L43.55 23.85 44.3 23.35 M47.05 25.15 L47.65 23.35 Q48.45 25.85 48.85 28.95 49.3 32.6 49.2 36.6 L49.15 41.05 48.55 41.15 Q47.65 41.15 47.65 40.3 L48.25 34.2 47.7 29.2 47.05 25.15" fill="#fcffd3" fill-rule="evenodd" stroke="none"/>
      <path d="M10.8 38.85 Q8.85 38.05 7.9 32.8 7.45 28.4 7.45 26.1 L7.45 25.65 8.35 26.7 8.5 26.85 8.5 27.3 Q8.45 33.1 10.55 38.25 L10.8 38.85 M11.55 26.75 L12.75 26.95 Q13.4 27.15 14.2 27.65 15.7 28.5 18.8 28.5 26.6 28.5 35.2 25.9 42.65 23.2 44.15 23.1 L44.3 23.15 44.3 23.35 43.55 23.85 40.05 25.2 Q36.65 26.05 33.8 27.85 31.4 28.55 28.9 28.6 L21.3 29.45 Q17.3 30.05 13.8 28.65 L13.7 28.6 Q12.3 28.1 11.45 27.35 L11.55 26.75 M47.45 22.4 L47.75 21.4 47.8 21.3 48.05 21.9 48.85 24.0 Q50.5 29.15 50.5 34.3 L50.5 37.9 Q50.2 40.5 49.15 41.05 L49.2 36.6 Q49.3 32.6 48.85 28.95 48.45 25.85 47.65 23.35 L47.45 22.4" fill="#f6ff7f" fill-rule="evenodd" stroke="none"/>
      <path d="M12.85 16.75 L11.65 19.25 Q10.25 22.05 9.8 24.5 L9.8 24.65 9.8 24.7 9.7 25.75 9.7 25.85 Q9.7 27.1 10.05 28.65 L10.05 28.75 9.15 27.9 8.55 26.9 8.5 26.75 8.7 23.8 9.3 20.0 Q10.05 18.65 11.8 17.75 L12.3 17.0 12.85 16.75 M11.35 27.65 L11.15 27.4 11.15 26.9 Q10.95 26.75 11.55 26.75 L11.45 27.35 11.35 27.65 M43.7 16.1 L43.65 16.35 44.1 16.85 44.15 17.1 44.3 17.35 45.3 18.2 Q45.8 18.75 45.9 19.35 L46.45 20.35 Q46.7 21.2 47.3 21.85 L47.45 22.4 47.65 23.35 47.05 25.15 47.0 24.9 46.85 24.15 Q46.3 21.6 44.6 18.75 L42.75 15.75 42.8 15.45 42.8 15.6 43.7 16.1" fill="#c4c6a6" fill-rule="evenodd" stroke="none"/>
      <path d="M7.45 25.65 L7.5 24.55 7.7 23.25 7.75 23.05 Q8.0 21.75 8.55 20.5 9.45 18.5 12.9 15.75 L13.0 15.85 13.05 16.25 12.85 16.75 12.3 17.0 11.8 17.75 Q10.05 18.65 9.3 20.0 L8.7 23.8 8.5 26.75 8.5 26.85 8.35 26.7 7.45 25.65 M47.45 22.4 L47.3 21.85 Q46.7 21.2 46.45 20.35 L45.9 19.35 Q45.8 18.75 45.3 18.2 L44.3 17.35 44.15 17.1 44.1 16.85 43.65 16.35 43.7 16.1 Q46.15 17.65 47.8 21.3 L47.75 21.4 47.45 22.4" fill="#b4bb5f" fill-rule="evenodd" stroke="none"/>
      <path d="M16.5 3.3 Q18.3 2.25 19.3 1.8 20.35 1.3 22.3 0.85 L26.8 0.05 29.7 0.05 Q31.25 -0.25 33.7 0.8 35.4 1.5 36.0 2.1 43.1 3.8 48.1 10.3 59.8 25.6 51.55 43.15 48.55 42.05 45.85 41.7 48.75 31.65 45.05 23.5 L44.85 24.35 Q28.2 35.5 10.45 28.45 L10.85 30.4 Q11.8 34.4 13.9 38.15 L13.7 39.2 9.9 40.9 Q3.75 37.35 1.85 34.3 -0.5 30.5 0.15 24.35 0.8 18.2 5.8 11.1 9.35 6.0 15.45 3.95 L16.5 3.3 M1.6 24.75 Q1.5 30.45 3.45 33.5 5.35 36.55 9.9 39.55 L12.25 38.05 Q11.0 35.55 9.5 28.15 8.0 20.75 14.75 14.0 L13.4 16.25 Q11.35 20.3 11.05 24.9 L11.05 27.65 Q28.7 34.4 44.05 23.55 L43.85 22.0 Q42.65 15.85 39.1 10.6 L39.15 10.15 Q49.7 23.1 47.8 40.5 L51.3 41.35 Q56.35 32.15 51.7 18.15 47.0 4.1 29.75 1.5 L34.45 1.8 Q32.75 1.1 30.8 0.8 L29.55 0.7 26.9 0.7 Q22.35 1.0 19.1 2.7 L18.3 3.15 20.65 2.75 21.05 3.1 Q11.0 6.75 6.35 12.9 1.65 19.05 1.6 24.75 M10.15 40.35 L9.8 40.15 10.15 40.45 10.15 40.35" fill="#383e28" fill-rule="evenodd" stroke="none"/>
      <path d="M11.3 9.75 L11.7 9.85 11.8 10.25 11.15 11.15 10.15 12.0 9.95 11.9 9.9 11.5 Q9.9 11.2 10.45 10.55 10.9 10.0 11.3 9.75 M18.9 8.9 L18.65 9.35 18.05 9.9 17.7 9.7 Q17.55 9.55 17.55 9.15 17.55 7.85 18.65 8.35 L18.8 8.45 18.9 8.9 M17.45 13.1 L17.55 13.5 17.4 14.1 17.05 14.5 16.5 14.5 Q16.3 14.5 16.3 13.9 16.3 13.6 16.7 13.35 L17.05 13.0 17.45 13.1 M10.25 16.25 Q10.25 15.65 10.8 15.35 L11.2 15.75 Q10.5 16.1 10.35 17.0 L10.25 16.8 10.25 16.25 M8.5 15.2 Q8.5 14.45 9.15 14.15 L8.75 15.65 8.55 15.75 8.5 15.2 M7.5 17.25 L7.75 18.0 7.3 18.25 Q7.0 18.1 6.8 17.25 L7.5 17.25 M4.75 21.45 L4.65 20.9 Q4.65 20.15 5.05 20.0 5.55 20.2 5.55 20.9 L5.45 21.45 5.05 21.65 4.75 21.45 M3.0 25.5 L3.5 27.0 3.45 27.15 3.25 27.25 Q2.35 26.25 2.55 25.6 L3.0 25.5 M7.35 22.7 L6.85 24.35 Q6.25 24.15 6.5 23.25 6.5 22.25 7.05 22.25 L7.35 22.7 M17.7 17.85 L17.8 18.25 17.25 18.9 16.55 19.5 16.25 19.4 16.15 18.9 17.3 17.75 17.7 17.85 M20.25 20.5 Q20.05 20.15 20.05 19.0 L20.5 19.0 20.65 19.15 20.65 19.55 20.55 20.25 20.5 20.4 20.25 20.5 M14.45 24.4 L14.65 25.0 14.5 25.5 14.25 25.75 Q13.3 25.0 13.3 24.5 L13.55 24.0 13.8 23.9 14.45 24.4 M20.05 26.15 L20.05 26.6 19.55 26.75 Q18.75 26.75 18.55 25.65 18.55 24.95 19.05 24.75 L20.05 26.15 M6.75 32.0 L6.95 32.05 7.05 33.45 7.25 34.45 6.8 34.5 Q6.05 34.5 5.7 33.7 L5.55 33.0 Q5.55 31.7 6.75 32.0 M4.7 28.5 L4.75 28.85 4.5 29.5 4.25 29.6 Q4.0 29.35 4.0 28.8 L4.05 28.4 4.5 28.4 4.7 28.5 M38.65 7.5 L37.3 8.0 36.8 7.65 Q37.35 6.9 38.4 6.9 L38.65 7.5 M30.75 5.8 L30.8 5.25 Q32.25 5.25 32.65 5.9 32.15 6.6 31.55 6.6 L30.8 6.5 30.75 5.8 M35.55 12.5 L36.05 12.25 37.05 13.35 Q36.95 14.0 36.2 14.0 L35.55 13.85 35.55 12.5 M24.4 4.65 Q23.4 5.65 22.8 5.9 L22.25 5.6 Q22.9 4.4 24.4 4.65 M25.5 9.5 L24.8 10.4 Q24.45 10.9 23.65 11.0 L23.45 10.9 23.4 10.5 Q23.4 10.2 23.85 9.75 24.4 9.15 25.25 9.15 L25.5 9.5 M30.4 12.65 L30.55 13.0 30.0 13.5 29.5 14.25 29.05 14.5 28.55 13.65 28.65 12.7 30.4 12.65 M26.7 18.8 L26.8 19.25 Q26.8 19.95 26.0 21.4 L25.55 21.5 25.05 21.05 25.05 20.45 25.15 19.45 Q25.4 19.0 26.3 18.75 L26.7 18.8 M21.8 15.05 Q21.8 14.3 22.3 14.0 22.9 14.45 22.9 15.5 L22.3 15.75 21.95 15.6 Q21.8 15.5 21.8 15.05 M23.75 25.25 L23.75 25.35 23.25 25.4 Q22.85 25.4 22.75 25.25 L22.65 24.65 Q22.65 23.9 23.05 23.75 23.75 24.7 23.75 25.25 M28.9 26.0 L28.8 26.15 28.3 26.25 Q27.8 26.25 27.5 25.6 L27.25 24.85 Q27.25 24.0 27.55 23.5 28.2 23.75 28.65 24.6 L29.0 25.55 28.9 26.0 M38.55 17.9 L38.3 17.65 38.3 17.1 39.9 17.15 40.05 17.5 Q39.75 18.0 39.05 18.0 L38.55 17.9 M33.75 17.5 L33.25 18.25 Q33.0 18.65 33.05 19.25 L32.4 19.5 Q32.05 19.1 32.05 18.4 L32.15 17.45 Q32.4 17.0 33.5 17.15 L33.75 17.5 M35.4 21.35 Q36.1 21.35 36.8 22.05 L37.5 23.0 Q37.25 23.35 36.55 23.35 35.35 23.35 35.3 21.7 L35.3 21.35 35.4 21.35 M45.85 12.0 Q45.0 12.0 44.55 11.5 44.25 11.2 44.25 10.85 L44.3 10.5 Q44.5 10.55 46.5 11.75 L46.35 11.95 45.85 12.0 M48.3 15.25 Q49.3 15.6 49.65 16.5 L49.3 16.85 48.65 16.25 48.3 15.5 48.3 15.25 M41.8 22.4 L41.3 22.65 Q40.75 22.25 40.75 21.3 L40.8 20.95 40.8 21.0 Q41.7 21.2 41.8 22.4 M50.5 21.4 L50.65 21.95 50.75 22.5 50.6 22.65 50.15 22.75 49.9 22.55 Q49.75 22.45 49.75 22.05 L49.95 21.5 50.5 21.4 M52.5 25.85 L52.3 25.75 52.25 25.3 52.3 24.5 52.75 24.5 53.0 25.4 52.5 25.85 M51.3 38.0 L51.15 38.6 50.8 39.0 50.4 39.0 50.2 38.85 50.15 38.4 Q50.15 38.1 50.5 37.8 L50.8 37.5 51.2 37.6 51.3 38.0 M53.25 33.0 L52.55 34.25 52.4 34.05 52.25 33.4 Q52.25 32.8 53.0 32.65 L53.25 33.0" fill="#6c8a1d" fill-rule="evenodd" stroke="none"/>
      <path d="M44.0 9.15 L44.1 8.9 Q46.2 9.7 48.0 11.65 49.9 13.7 49.9 15.25 L49.65 15.8 49.25 16.2 Q48.75 16.2 47.75 14.7 L46.65 12.65 Q46.25 11.5 45.05 10.25 L44.0 9.15 M46.5 16.45 Q46.1 16.45 45.6 15.7 L45.2 15.1 Q45.2 14.1 46.15 14.65 47.1 15.2 47.1 15.75 47.1 16.45 46.5 16.45 M33.9 9.25 L33.1 8.1 Q33.1 6.9 34.45 7.5 35.5 7.95 36.1 8.6 36.5 9.25 36.5 9.95 L36.45 11.35 36.65 14.05 36.4 15.1 36.25 15.1 36.4 14.8 36.1 13.15 35.2 11.35 33.9 9.25 M25.8 17.45 Q25.3 17.45 25.1 17.1 L25.0 16.75 Q25.0 16.05 25.75 16.15 26.45 16.25 26.45 16.85 26.45 17.45 25.8 17.45 M23.7 16.05 L23.45 16.6 22.5 16.95 Q21.8 16.95 21.55 16.55 L21.4 16.1 Q21.4 15.05 22.55 14.8 23.7 14.6 23.7 16.05 M4.25 16.45 Q6.45 12.5 7.8 10.85 10.55 7.55 14.3 6.15 11.5 8.1 8.7 11.35 L4.5 16.6 4.25 16.45 M15.6 14.35 Q16.45 12.4 17.35 11.95 16.7 12.75 16.25 14.2 L15.2 16.45 15.0 16.5 Q14.9 16.6 14.9 16.35 L15.6 14.35 M11.9 26.0 Q12.15 26.5 13.55 26.85 L16.85 27.75 15.85 27.9 11.85 27.0 Q11.25 26.75 11.25 26.15 L11.3 25.1 11.55 25.1 11.9 26.0" fill="#fffbcc" fill-rule="evenodd" stroke="none"/>
    </g>
  </defs>
</svg>
