<?xml version="1.0" encoding="UTF-8" standalone="no"?>
<svg xmlns:ffdec="https://www.free-decompiler.com/flash" xmlns:xlink="http://www.w3.org/1999/xlink" ffdec:objectType="frame" height="32.4px" width="34.2px" xmlns="http://www.w3.org/2000/svg">
  <g transform="matrix(1.0, 0.0, 0.0, 1.0, 17.6, 50.85)">
    <use ffdec:characterId="2" height="32.4" transform="matrix(1.0, 0.0, 0.0, 1.0, -17.6, -50.85)" width="34.2" xlink:href="#sprite0"/>
    <use ffdec:characterId="4" height="8.75" transform="matrix(1.0, 0.0, 0.0, 1.0, -17.25, -39.3)" width="31.55" xlink:href="#sprite1"/>
  </g>
  <defs>
    <g id="sprite0">
      <use ffdec:characterId="1" height="32.4" transform="matrix(1.0, 0.0, 0.0, 1.0, 0.0, 0.0)" width="34.2" xlink:href="#shape0"/>
    </g>
    <g id="shape0">
      <path d="M5.25 13.75 Q5.1 15.25 5.1 16.85 L5.2 18.35 5.6 18.85 6.8 16.05 Q8.5 12.95 10.15 12.5 L10.45 13.35 8.45 16.55 Q7.3 18.35 6.75 20.0 L9.95 22.35 Q10.2 19.6 12.3 14.7 L15.55 7.5 15.65 7.65 15.7 8.1 Q15.7 9.75 13.45 15.25 11.25 20.55 11.15 22.85 14.05 23.85 17.25 22.85 L16.7 19.4 16.8 15.35 17.4 9.0 17.55 9.0 17.75 17.45 Q17.75 20.15 18.5 22.35 20.05 21.7 21.65 20.55 L22.7 19.75 21.0 16.9 Q19.05 13.65 19.05 10.85 L19.15 10.0 19.3 10.0 Q19.9 11.9 22.85 16.5 L24.0 18.35 Q25.1 16.8 25.55 14.9 L25.95 12.35 Q27.45 12.9 28.75 13.55 31.15 14.6 31.55 15.85 L32.55 18.6 32.7 20.6 Q32.7 24.35 29.95 27.1 25.95 31.1 17.2 31.1 7.05 31.1 2.95 27.55 0.65 25.5 0.65 22.8 0.65 20.65 2.0 17.6 3.2 14.85 5.25 13.75" fill="#49220a" fill-rule="evenodd" stroke="none"/>
      <path d="M5.25 13.75 Q5.9 13.4 6.6 13.25 9.6 12.45 12.55 9.15 15.45 5.85 15.7 4.35 15.95 2.8 16.95 3.7 17.9 4.55 19.2 7.45 20.45 10.3 23.4 11.35 L25.95 12.35 25.55 14.9 Q25.1 16.8 24.0 18.35 L22.85 16.5 Q19.9 11.9 19.3 10.0 L19.15 10.0 19.05 10.85 Q19.05 13.65 21.0 16.9 L22.7 19.75 21.65 20.55 Q20.05 21.7 18.5 22.35 17.75 20.15 17.75 17.45 L17.55 9.0 17.4 9.0 16.8 15.35 16.7 19.4 17.25 22.85 Q14.05 23.85 11.15 22.85 11.25 20.55 13.45 15.25 15.7 9.75 15.7 8.1 L15.65 7.65 15.55 7.5 12.3 14.7 Q10.2 19.6 9.95 22.35 L6.75 20.0 Q7.3 18.35 8.45 16.55 L10.45 13.35 10.15 12.5 Q8.5 12.95 6.8 16.05 L5.6 18.85 5.2 18.35 5.1 16.85 Q5.1 15.25 5.25 13.75" fill="#91471c" fill-rule="evenodd" stroke="none"/>
      <path d="M3.2 24.45 L4.1 25.3 Q6.7 27.6 9.55 28.9 9.05 27.8 9.3 27.3 9.15 26.6 10.05 27.6 L12.65 29.8 15.85 29.9 17.0 28.5 17.45 27.8 Q17.85 27.85 18.4 28.65 L18.65 29.0 18.8 29.2 Q21.7 28.65 24.1 26.6 25.65 25.3 26.3 23.95 26.3 25.95 25.6 27.6 27.85 26.35 29.3 23.9 L30.65 21.2 Q31.75 21.45 32.8 22.2 32.75 24.35 31.35 25.85 29.2 28.1 26.35 29.05 L24.0 29.9 Q19.6 31.25 14.9 31.6 L11.05 31.3 10.55 31.2 Q6.85 30.35 3.6 27.9 2.05 26.75 0.95 25.3 L0.8 25.05 1.55 24.3 3.2 24.45" fill="#462d07" fill-rule="evenodd" stroke="none"/>
      <path d="M30.65 21.2 L29.3 23.9 Q27.85 26.35 25.6 27.6 26.3 25.95 26.3 23.95 25.65 25.3 24.1 26.6 21.7 28.65 18.8 29.2 L18.65 29.0 18.4 28.65 Q17.85 27.85 17.45 27.8 L17.0 28.5 15.85 29.9 12.65 29.8 10.05 27.6 Q9.15 26.6 9.3 27.3 9.05 27.8 9.55 28.9 6.7 27.6 4.1 25.3 L3.2 24.45 9.7 25.0 17.55 25.2 Q21.7 23.95 25.6 21.95 28.3 20.6 30.65 21.2" fill="#b16d0d" fill-rule="evenodd" stroke="none"/>
      <path d="M31.15 22.5 Q31.6 20.75 31.25 18.95 30.8 16.6 29.3 14.75 L28.2 13.45 28.2 13.3 Q29.15 13.1 30.1 14.1 31.85 15.95 32.15 18.4 32.45 20.35 32.15 22.3 L31.95 23.2 31.6 22.8 31.15 22.5 M1.35 24.55 Q0.75 23.15 0.9 21.65 1.1 19.45 2.2 17.55 3.0 16.15 4.35 15.2 L4.9 14.95 Q2.9 17.9 1.9 21.2 1.7 21.85 1.75 22.55 L1.95 23.95 1.75 24.0 1.35 24.55" fill="#510c07" fill-rule="evenodd" stroke="none"/>
      <path d="M31.95 23.2 Q30.9 25.8 28.65 27.2 26.4 28.55 23.75 29.1 L21.9 29.6 Q24.95 28.7 27.55 27.1 29.4 26.0 30.5 24.35 31.05 23.5 31.15 22.5 L31.6 22.8 31.95 23.2 M1.95 23.95 Q2.45 25.5 4.65 27.2 6.9 28.9 9.3 29.45 L12.95 30.25 8.35 29.95 Q6.05 29.45 4.6 28.55 3.1 27.65 1.85 25.6 L1.35 24.55 1.75 24.0 1.95 23.95" fill="#662c1c" fill-rule="evenodd" stroke="none"/>
      <path d="M0.15 24.4 Q-1.05 14.55 8.75 11.45 12.95 10.1 17.5 0.0 18.4 9.2 24.9 10.5 31.35 11.75 33.3 16.15 35.25 20.5 33.0 25.85 30.7 31.2 18.65 32.2 6.55 33.2 3.45 29.35 0.3 25.5 0.15 24.4 M1.1 21.7 Q0.0 28.8 11.65 30.3 17.4 30.6 22.7 29.0 32.1 27.5 32.35 21.45 32.55 15.35 25.65 13.05 18.7 10.7 16.7 5.05 13.75 11.25 8.0 12.95 2.2 14.6 1.1 21.7" fill="#1a1309" fill-rule="evenodd" stroke="none"/>
      <path d="M7.45 13.95 Q6.95 13.95 6.95 13.4 6.95 12.8 7.65 12.75 8.35 12.7 8.35 13.3 L8.05 13.75 7.45 13.95 M10.0 14.45 Q11.45 13.1 11.45 14.9 L10.8 16.55 Q10.05 17.95 9.45 17.95 8.65 17.95 8.55 17.05 8.55 15.75 10.0 14.45 M15.7 15.3 L15.3 17.3 Q14.8 19.2 14.35 19.2 13.45 19.2 13.45 18.15 L13.75 15.55 Q13.8 14.45 14.75 14.4 15.7 14.35 15.7 15.3 M22.45 13.65 Q21.4 13.65 21.25 12.7 21.25 12.0 22.1 12.05 22.95 12.1 22.95 13.0 22.95 13.65 22.45 13.65 M18.85 17.65 Q17.75 17.65 17.5 15.25 17.5 13.95 18.6 14.7 19.7 15.45 19.7 16.75 19.7 17.65 18.85 17.65" fill="#d2926c" fill-rule="evenodd" stroke="none"/>
    </g>
    <g id="sprite1">
      <use ffdec:characterId="3" height="8.75" transform="matrix(1.0, 0.0, 0.0, 1.0, 0.0, 0.0)" width="31.55" xlink:href="#shape1"/>
    </g>
    <g id="shape1">
      <path d="M6.7 4.4 L3.35 3.6 Q5.35 6.8 7.95 7.5 11.0 8.5 12.45 5.45 L6.7 4.4 M11.05 8.5 Q9.8 9.15 6.5 8.15 3.55 6.55 0.0 1.95 3.55 3.1 8.55 4.1 L14.2 5.0 13.1 6.85 11.05 8.5 M19.05 6.8 Q18.1 5.9 17.75 5.05 L23.35 3.5 Q28.2 1.7 31.55 0.0 28.55 5.2 25.8 7.1 22.6 8.6 21.25 8.15 19.95 7.65 19.05 6.8 M19.55 5.3 Q21.3 8.15 24.25 6.7 26.75 5.6 28.5 2.2 L25.25 3.4 19.55 5.3" fill="#000000" fill-rule="evenodd" stroke="none"/>
      <path d="M6.7 4.4 L12.45 5.45 Q11.0 8.5 7.95 7.5 5.35 6.8 3.35 3.6 L6.7 4.4 M19.55 5.3 L25.25 3.4 28.5 2.2 Q26.75 5.6 24.25 6.7 21.3 8.15 19.55 5.3" fill="#ffffff" fill-rule="evenodd" stroke="none"/>
    </g>
  </defs>
</svg>
