<?xml version="1.0" encoding="UTF-8" standalone="no"?>
<svg xmlns:ffdec="https://www.free-decompiler.com/flash" xmlns:xlink="http://www.w3.org/1999/xlink" ffdec:objectType="frame" height="49.35px" width="47.95px" xmlns="http://www.w3.org/2000/svg">
  <g transform="matrix(1.0, 0.0, 0.0, 1.0, 22.35, 60.85)">
    <use ffdec:characterId="2" height="37.15" transform="matrix(1.0, 0.0, 0.0, 1.0, 0.6, -30.05)" width="45.9" xlink:href="#sprite0"/>
    <use ffdec:characterId="4" height="18.3" transform="matrix(1.0, 0.0, 0.0, 1.0, 16.5, -51.7)" width="18.2" xlink:href="#sprite1"/>
  </g>
  <defs>
    <g id="sprite0">
      <use ffdec:characterId="1" height="37.15" transform="matrix(1.0, 0.0, 0.0, 1.0, 0.0, 0.0)" width="45.9" xlink:href="#shape0"/>
    </g>
    <g id="shape0">
      <path d="M9.05 -11.75 L1.15 -12.65 Q2.05 -12.65 1.15 -14.6 L-1.1 -14.7 -1.5 -14.75 Q1.95 -16.2 3.7 -16.35 L2.55 -14.0 1.95 -13.0 8.9 -14.65 9.05 -11.75 M-7.55 -9.4 L-4.85 -9.5 2.2 -7.9 Q3.55 -7.9 5.55 -9.45 L6.25 -8.4 6.25 -8.05 Q4.55 -6.65 2.8 -6.15 L2.6 -6.3 1.55 -5.95 1.05 -5.95 -1.95 -6.15 -1.95 -7.45 -5.45 -7.35 -4.2 -5.1 -5.4 -7.1 -6.6 -7.2 Q-8.9 -7.35 -11.0 -6.45 L-12.05 -6.0 Q-12.05 -7.35 -10.75 -8.3 -9.45 -9.25 -7.6 -9.25 L-7.7 -9.4 -7.55 -9.4 M12.95 5.15 L13.2 5.1 14.45 6.45 14.6 7.0 Q15.0 9.15 13.3 10.25 L12.95 5.15 M18.95 4.15 Q19.9 5.7 18.5 6.95 L18.05 7.0 17.55 4.25 18.95 4.15 M13.05 11.9 Q13.4 11.9 13.65 12.2 L13.85 12.9 13.65 13.6 Q13.4 13.9 13.05 13.9 L12.5 13.6 12.25 12.9 Q12.25 12.5 12.5 12.2 L13.05 11.9 M9.8 13.0 L9.8 12.9 9.6 11.65 9.45 10.75 Q9.45 11.9 8.55 13.75 2.05 14.05 -1.85 13.95 L-9.1 13.75 -10.45 12.55 -12.05 10.5 -12.2 11.65 -12.7 11.2 -14.95 8.7 Q-15.8 7.45 -15.9 6.0 L-15.75 4.3 -14.9 2.3 Q-13.55 3.15 -12.1 4.5 L-12.3 6.0 -12.35 8.45 -12.3 9.4 Q-12.25 7.65 -11.8 6.0 L-11.8 7.35 Q-11.35 5.9 -4.4 6.4 2.5 6.9 6.65 8.65 10.8 10.35 9.8 13.0 M-8.4 10.1 L-7.5 8.15 -9.35 7.1 -8.4 10.1 M-16.2 1.55 L-16.3 2.0 -16.45 2.45 -16.5 2.6 -16.55 2.65 -17.45 4.85 -17.6 5.3 -17.75 5.75 -17.9 5.1 -18.05 3.7 -17.8 1.6 -16.2 1.55" fill="#ff3535" fill-rule="evenodd" stroke="none"/>
      <path d="M9.05 -11.75 L8.9 -14.65 1.95 -13.0 2.55 -14.0 3.7 -16.35 Q1.95 -16.2 -1.5 -14.75 L-8.1 -12.45 Q-8.25 -10.9 -8.0 -10.0 L-7.7 -9.4 -7.6 -9.25 Q-9.45 -9.25 -10.75 -8.3 -12.05 -7.35 -12.05 -6.0 L-12.4 -5.65 Q-11.9 -3.55 -10.25 -2.3 L-9.35 -1.7 -7.6 -2.0 -4.05 0.1 Q-1.4 1.65 -0.6 2.3 L0.05 2.15 Q1.65 1.85 3.45 0.9 L4.45 0.45 Q3.2 2.65 0.95 3.4 L-3.45 3.8 -6.0 3.4 Q-8.7 3.0 -10.95 -0.2 -12.95 -3.0 -13.25 -5.7 L-13.15 -5.75 Q-14.1 -6.75 -12.5 -8.75 -10.95 -10.8 -6.7 -14.25 -2.45 -17.75 3.15 -17.35 8.75 -17.0 11.25 -15.45 13.75 -13.9 15.65 -11.15 13.15 -8.8 11.4 -9.55 L9.1 -11.15 9.05 -11.75 M6.25 -8.05 Q7.05 -6.5 8.8 -6.5 10.0 -6.5 12.15 -8.3 L15.2 -5.55 Q15.25 -4.2 14.5 -3.6 L12.7 -4.6 10.45 -5.45 10.2 -4.8 7.85 -2.3 2.8 -6.15 Q4.55 -6.65 6.25 -8.05 M-5.4 -7.1 L-4.2 -5.1 -5.45 -7.35 -1.95 -7.45 -1.95 -6.15 1.05 -5.95 1.55 -5.95 -3.7 -4.15 -5.4 -7.1 M18.95 4.15 L19.7 3.65 20.9 4.5 21.15 5.5 Q21.15 6.65 20.4 7.7 L19.45 8.8 18.65 8.2 17.95 13.75 18.05 7.0 18.5 6.95 Q19.9 5.7 18.95 4.15 M14.35 2.2 L10.2 3.4 7.25 4.05 5.25 3.95 3.85 3.6 Q4.85 2.85 8.75 2.65 L13.15 2.55 14.35 2.2 M13.3 10.25 Q15.0 9.15 14.6 7.0 L14.45 6.45 15.75 5.45 Q17.4 7.35 16.95 9.25 16.95 14.55 8.5 15.6 9.2 15.2 9.8 13.0 10.8 10.35 6.65 8.65 2.5 6.9 -4.4 6.4 -11.35 5.9 -11.8 7.35 L-11.8 6.0 -11.8 5.9 -10.65 3.05 -1.2 5.25 8.25 6.65 Q11.7 6.65 12.75 8.3 L13.3 10.25 M13.05 11.9 L12.5 12.2 Q12.25 12.5 12.25 12.9 L12.5 13.6 13.05 13.9 Q13.4 13.9 13.65 13.6 L13.85 12.9 13.65 12.2 Q13.4 11.9 13.05 11.9 M8.55 13.75 L7.6 15.6 Q6.1 16.9 1.95 17.05 L-0.05 16.5 3.6 15.0 4.75 14.3 -2.1 15.05 -4.9 14.85 Q-7.6 14.55 -9.1 13.75 L-1.85 13.95 Q2.05 14.05 8.55 13.75 M-14.9 2.3 L-12.05 2.25 -12.0 2.95 -12.1 4.5 Q-13.55 3.15 -14.9 2.3 M-8.4 10.1 L-9.35 7.1 -7.5 8.15 -8.4 10.1 M-16.2 1.55 L-17.8 1.6 -18.05 3.7 -17.9 5.1 -17.75 5.75 -18.75 8.1 -19.1 8.5 Q-19.9 4.9 -19.9 3.9 -19.9 1.3 -17.9 -1.25 -17.2 -0.7 -16.2 1.55" fill="#b41111" fill-rule="evenodd" stroke="none"/>
      <path d="M-1.1 -14.7 L1.15 -14.6 Q2.05 -12.65 1.15 -12.65 L9.05 -11.75 9.1 -11.15 Q9.1 -10.0 8.3 -9.2 7.45 -8.4 6.25 -8.4 L5.55 -9.45 Q3.55 -7.9 2.2 -7.9 L-4.85 -9.5 -7.55 -9.4 Q-4.0 -11.05 -1.1 -14.7" fill="#91e5d2" fill-rule="evenodd" stroke="none"/>
      <path d="M-1.5 -14.75 L-1.1 -14.7 Q-4.0 -11.05 -7.55 -9.4 L-7.7 -9.4 -8.0 -10.0 Q-8.25 -10.9 -8.1 -12.45 L-1.5 -14.75 M6.25 -8.4 Q7.45 -8.4 8.3 -9.2 9.1 -10.0 9.1 -11.15 L11.4 -9.55 Q13.15 -8.8 15.65 -11.15 L16.05 -10.2 16.25 -8.7 Q16.05 -7.55 15.5 -6.85 15.1 -6.05 15.5 -5.45 L15.2 -5.55 12.15 -8.3 Q10.0 -6.5 8.8 -6.5 7.05 -6.5 6.25 -8.05 L6.25 -8.4" fill="#34a78d" fill-rule="evenodd" stroke="none"/>
      <path d="M2.8 -6.15 L7.85 -2.3 10.2 -4.8 10.45 -3.6 Q11.0 -1.05 12.6 1.25 L8.85 -0.85 7.85 -1.5 4.45 0.45 3.45 0.9 Q1.65 1.85 0.05 2.15 L-4.15 -2.75 -7.6 -2.0 -9.35 -1.7 -7.55 -3.0 Q-6.4 -4.95 -6.6 -7.2 L-5.4 -7.1 -3.7 -4.15 Q-3.45 -2.2 -1.5 -1.55 L0.9 -1.75 Q4.05 -3.2 2.6 -6.3 L2.8 -6.15" fill="#fba32a" fill-rule="evenodd" stroke="none"/>
      <path d="M4.45 0.45 L7.85 -1.5 8.85 -0.85 12.6 1.25 14.25 -0.2 15.1 -1.2 15.7 -2.35 16.85 0.5 16.85 0.6 17.2 2.0 15.35 3.95 13.2 5.1 12.95 5.15 Q10.6 5.9 8.6 5.9 L-0.15 5.4 Q-1.3 5.05 -3.45 3.8 L0.95 3.4 Q3.2 2.65 4.45 0.45 M-7.6 -2.0 L-4.15 -2.75 0.05 2.15 -0.6 2.3 Q-1.4 1.65 -4.05 0.1 L-7.6 -2.0 M-17.25 -2.8 L-17.2 -2.75 -16.0 -4.0 -13.25 -5.7 Q-12.95 -3.0 -10.95 -0.2 -8.7 3.0 -6.0 3.4 -9.9 3.4 -12.65 1.75 -15.3 0.1 -17.2 -2.65 L-17.3 -2.7 -17.25 -2.75 -17.25 -2.8 M14.35 2.2 L13.15 2.55 8.75 2.65 Q4.85 2.85 3.85 3.6 L5.25 3.95 7.25 4.05 10.2 3.4 14.35 2.2" fill="#3a0707" fill-rule="evenodd" stroke="none"/>
      <path d="M1.55 -5.95 L2.6 -6.3 Q4.05 -3.2 0.9 -1.75 L-1.5 -1.55 Q-3.45 -2.2 -3.7 -4.15 L1.55 -5.95 M-6.6 -7.2 Q-6.4 -4.95 -7.55 -3.0 L-9.35 -1.7 -10.25 -2.3 Q-11.9 -3.55 -12.4 -5.65 L-12.05 -6.0 -11.0 -6.45 Q-8.9 -7.35 -6.6 -7.2" fill="#ffe742" fill-rule="evenodd" stroke="none"/>
      <path d="M10.2 -4.8 L10.45 -5.45 12.7 -4.6 13.75 -3.85 14.5 -3.6 15.7 -2.35 15.1 -1.2 14.25 -0.2 12.6 1.25 Q11.0 -1.05 10.45 -3.6 L10.2 -4.8" fill="#ca6614" fill-rule="evenodd" stroke="none"/>
      <path d="M12.7 -4.6 L14.5 -3.6 13.75 -3.85 12.7 -4.6" fill="#d86262" fill-rule="evenodd" stroke="none"/>
      <path d="M-3.45 3.8 Q-1.3 5.05 -0.15 5.4 L8.6 5.9 Q10.6 5.9 12.95 5.15 L13.3 10.25 12.75 8.3 Q11.7 6.65 8.25 6.65 L-1.2 5.25 -10.65 3.05 -11.8 5.9 -11.8 6.0 Q-12.25 7.65 -12.3 9.4 L-12.35 8.45 -12.3 6.0 -12.1 4.5 -12.0 2.95 -12.05 2.25 -14.9 2.3 -15.75 4.3 -15.9 6.0 Q-15.8 7.45 -14.95 8.7 L-12.7 11.2 -12.2 11.65 -12.05 10.5 -10.45 12.55 -9.1 13.75 Q-7.6 14.55 -4.9 14.85 L-2.1 15.05 4.75 14.3 3.6 15.0 -0.05 16.5 1.95 17.05 Q6.1 16.9 7.6 15.6 L8.55 13.75 Q9.45 11.9 9.45 10.75 L9.6 11.65 9.8 12.9 9.8 13.0 Q9.2 15.2 8.5 15.6 16.95 14.55 16.95 9.25 17.4 7.35 15.75 5.45 L14.45 6.45 13.2 5.1 15.35 3.95 17.2 2.0 17.8 1.25 18.15 -0.95 19.15 -1.05 19.7 -0.7 21.05 0.15 21.35 0.45 Q21.3 2.0 21.65 3.35 22.65 5.9 22.35 8.55 22.1 10.85 20.9 13.0 19.35 15.65 16.45 16.95 13.35 18.35 9.65 18.2 L3.1 17.65 -3.35 16.8 -9.3 15.0 -14.4 13.0 -18.55 11.1 Q-20.6 10.3 -21.2 8.5 -21.95 6.55 -21.85 4.45 -21.85 2.1 -21.05 0.05 -20.35 -2.0 -18.1 -2.45 L-17.6 -2.55 Q-17.4 -2.6 -17.25 -2.8 L-17.25 -2.75 -17.3 -2.7 -17.2 -2.65 Q-15.3 0.1 -12.65 1.75 -9.9 3.4 -6.0 3.4 L-3.45 3.8 M18.05 7.0 L17.95 13.75 18.65 8.2 19.45 8.8 20.4 7.7 Q21.15 6.65 21.15 5.5 L20.9 4.5 19.7 3.65 18.95 4.15 17.55 4.25 18.05 7.0 M-17.75 5.75 L-17.6 5.3 -17.45 4.85 -16.55 2.65 -16.5 2.6 -16.45 2.45 -16.3 2.0 -16.2 1.55 Q-17.2 -0.7 -17.9 -1.25 -19.9 1.3 -19.9 3.9 -19.9 4.9 -19.1 8.5 L-18.75 8.1 -17.75 5.75" fill="#600d0d" fill-rule="evenodd" stroke="none"/>
      <path d="M1.5 -12.75 L3.6 -14.45 Q4.9 -15.65 5.4 -16.7 L-1.9 -16.2 Q-4.4 -14.7 -5.9 -14.3 L-3.15 -13.65 Q-7.65 -13.0 -10.35 -10.75 -12.7 -8.8 -12.9 -6.45 L-9.05 -7.15 -5.8 -7.45 Q-4.8 -7.45 -3.8 -4.4 -2.6 -5.2 -0.1 -5.85 L2.45 -6.35 -3.75 -4.25 -3.8 -3.15 Q-3.8 -1.95 -1.9 0.1 -0.05 2.1 0.35 2.1 0.7 2.1 3.45 0.55 L7.55 -2.1 2.6 -6.35 Q3.65 -5.8 5.4 -4.3 6.9 -3.05 7.3 -3.05 7.8 -3.05 8.85 -4.25 9.9 -5.5 10.4 -5.5 L11.75 -5.05 11.65 -5.05 Q10.3 -5.05 9.35 -4.05 8.35 -3.1 8.35 -1.75 8.35 -1.05 11.3 1.55 L11.65 1.55 Q13.0 1.55 14.0 0.6 14.95 -0.4 14.95 -1.75 14.95 -3.1 14.0 -4.05 L13.9 -4.15 14.7 -3.7 13.8 -6.05 12.6 -8.5 11.4 -9.8 Q13.2 -8.6 13.7 -8.3 L15.7 -8.15 14.25 -12.3 Q13.8 -13.15 12.4 -14.2 11.1 -13.15 10.55 -12.3 L10.7 -14.05 Q10.7 -15.0 9.65 -16.35 6.15 -14.95 1.5 -12.75 M16.65 -3.15 Q17.3 -1.65 18.2 -1.65 21.1 -1.65 22.15 0.55 22.95 2.25 22.95 6.4 22.95 14.05 20.0 16.4 17.35 18.55 8.8 18.55 -0.85 18.55 -11.45 15.6 -22.95 12.35 -22.95 8.6 -22.95 5.75 -21.65 1.8 L-21.8 5.15 Q-21.8 6.25 -20.95 7.85 -20.05 9.55 -18.8 10.55 L-18.05 10.9 -18.1 8.55 Q-18.1 7.45 -17.7 6.2 L-17.95 8.05 Q-17.95 12.7 -7.3 15.55 0.4 17.6 6.0 17.6 12.1 17.6 14.4 16.4 15.95 15.55 17.35 12.75 L17.55 13.55 Q17.55 14.7 16.95 15.75 L17.55 15.65 19.95 14.3 Q21.2 12.6 21.2 7.2 21.2 5.45 20.8 3.55 20.05 0.3 18.45 -0.65 L17.55 2.1 16.95 3.55 17.35 5.75 Q16.55 3.45 15.35 3.45 L15.15 3.45 Q12.4 5.3 12.35 6.2 11.3 5.3 9.3 5.2 6.5 5.1 2.35 6.2 -2.35 6.1 -14.35 0.25 L-16.65 3.5 -16.9 4.1 -16.7 3.5 Q-15.55 1.0 -14.6 0.05 -17.15 -3.0 -20.6 -1.1 -17.9 -3.2 -16.05 -5.0 -15.45 -5.6 -15.0 -6.8 L-14.35 -8.55 Q-12.75 -12.0 -9.95 -13.05 L-7.55 -13.95 Q-7.55 -15.0 -3.3 -16.75 1.25 -18.6 5.0 -18.6 7.85 -18.6 11.5 -16.4 17.2 -13.0 17.2 -6.25 17.2 -5.75 16.7 -5.5 16.15 -5.25 16.15 -4.75 16.15 -4.25 16.65 -3.15 M16.3 0.45 L15.2 -0.9 Q15.15 0.4 14.0 1.45 13.1 2.25 12.3 2.4 11.45 2.55 10.4 1.5 L7.75 -1.25 2.9 1.7 Q1.15 2.9 0.15 2.75 -0.9 2.6 -2.45 0.1 -4.0 -2.4 -4.7 -2.4 L-6.95 -1.8 -9.85 -1.25 Q-10.6 -1.25 -11.05 -1.8 L-11.9 -3.25 -12.15 -3.7 -13.05 -5.4 -15.9 -3.6 Q-13.75 -0.55 -9.9 1.45 -3.25 4.9 7.5 4.9 10.75 4.9 15.5 3.05 16.1 2.15 16.3 0.45 M-10.4 -2.25 L-8.1 -2.15 Q-6.5 -2.3 -5.1 -2.8 -3.7 -3.3 -4.55 -4.9 L-5.65 -6.85 Q-5.9 -7.25 -8.85 -6.85 -11.85 -6.5 -12.25 -5.8 -12.6 -5.2 -10.4 -2.25 M-11.0 2.95 L-12.25 6.15 -12.65 8.75 -12.6 7.95 Q-12.35 5.4 -11.0 2.95" fill="#000000" fill-rule="evenodd" stroke="none"/>
    </g>
    <g id="sprite1">
      <use ffdec:characterId="3" height="18.3" transform="matrix(1.0, 0.0, 0.0, 1.0, 0.0, 0.0)" width="18.2" xlink:href="#shape1"/>
    </g>
    <g id="shape1">
      <path d="M2.8 -0.2 L2.8 -1.25 3.65 -1.55 4.3 -1.4 4.8 -0.95 4.65 -0.25 3.35 0.25 2.8 -0.2 M1.15 -7.9 L4.05 -4.8 3.15 -2.95 Q2.25 -0.9 0.45 0.4 L-1.85 2.1 -3.6 -0.3 -2.15 -0.95 -5.95 -1.3 -5.9 -3.05 -4.3 -3.8 -3.75 -4.75 -4.05 -6.5 -2.2 -7.65 -0.5 -7.95 1.15 -7.9 M-7.0 0.45 L-6.65 -0.15 -5.8 -0.25 -4.65 0.15 -5.15 1.05 -6.05 1.55 -6.7 1.15 -6.8 1.0 -6.9 0.8 -7.0 0.45 M1.95 1.6 L1.95 3.95 -0.35 3.95 -0.35 1.6 1.95 1.6" fill="#fff9f0" fill-rule="evenodd" stroke="none"/>
      <path d="M2.8 -0.2 L3.35 0.25 4.65 -0.25 4.8 -0.95 4.3 -1.4 3.65 -1.55 2.8 -1.25 2.8 -0.2 M-4.05 -6.5 L-3.75 -4.75 -4.3 -3.8 -5.9 -3.05 -5.95 -1.3 -2.15 -0.95 -3.6 -0.3 -1.85 2.1 0.45 0.4 Q2.25 -0.9 3.15 -2.95 L4.05 -4.8 1.15 -7.9 Q3.45 -6.7 5.35 -4.9 L5.75 -4.5 6.9 -2.05 5.15 1.0 Q4.0 3.0 2.3 4.25 L3.8 4.15 4.05 4.5 3.6 6.15 2.0 6.65 1.3 6.4 1.05 5.95 0.15 6.35 -0.75 6.65 -2.95 5.75 -2.65 2.0 -2.95 1.65 -6.35 1.6 -6.7 1.15 -6.05 1.55 -5.15 1.05 -4.65 0.15 -5.8 -0.25 -6.65 -0.15 -7.0 0.45 -7.45 -2.85 -7.5 -2.95 -7.05 -4.55 Q-6.35 -4.8 -4.8 -5.95 L-4.05 -6.5 M1.95 1.6 L-0.35 1.6 -0.35 3.95 1.95 3.95 1.95 1.6" fill="#bfc0d2" fill-rule="evenodd" stroke="none"/>
      <path d="M-7.45 -2.85 L-7.0 0.45 -6.9 0.8 -6.8 1.0 -6.7 1.15 -6.35 1.6 -2.95 1.65 -2.65 2.0 -2.95 5.75 -0.75 6.65 0.15 6.35 1.05 5.95 1.3 6.4 2.0 6.65 3.6 6.15 4.05 4.5 3.8 4.15 2.3 4.25 Q4.0 3.0 5.15 1.0 L6.9 -2.05 5.75 -4.5 Q7.2 -3.2 8.2 -1.3 L8.9 0.45 Q8.45 2.75 5.95 5.85 3.45 8.9 0.8 8.85 -1.9 8.75 -5.25 6.4 -8.7 3.95 -8.7 2.2 -8.7 0.15 -7.45 -2.3 L-7.45 -2.85" fill="#868790" fill-rule="evenodd" stroke="none"/>
      <path d="M-0.5 -7.95 L-2.2 -7.65 -1.65 -7.8 -0.5 -7.95" fill="#afb1c5" fill-rule="evenodd" stroke="none"/>
      <path d="M3.05 -7.55 Q5.55 -6.25 7.2 -4.25 8.75 -2.35 9.05 0.1 9.2 1.35 8.8 2.3 8.05 4.25 6.7 5.95 4.9 8.15 2.05 9.0 L-0.55 9.1 Q-2.9 8.65 -5.0 7.35 -7.25 6.0 -8.35 3.7 -9.65 1.1 -8.75 -1.45 L-7.95 -3.7 -7.35 -5.05 -5.9 -5.6 -5.85 -6.15 Q-3.6 -7.1 -1.6 -8.35 L-0.45 -9.15 0.5 -8.4 2.8 -8.3 3.05 -7.55 M5.75 -3.7 L2.6 -6.35 1.7 -7.15 -0.1 -7.05 -0.45 -7.6 -2.15 -6.95 -2.95 -6.65 -3.15 -6.15 -3.4 -5.75 -3.7 -5.4 -4.15 -5.1 -5.1 -5.1 -5.5 -4.75 -6.5 -4.65 -6.65 -4.5 -7.35 -3.1 -7.05 -2.2 -7.8 0.65 -8.15 2.4 -6.85 3.85 -6.8 4.5 -5.5 6.0 -4.15 6.15 Q-2.7 7.3 -0.75 7.8 L1.95 7.6 Q3.45 7.1 4.55 6.25 5.55 5.55 5.95 4.4 7.35 3.8 8.0 2.2 8.9 0.1 7.45 -1.8 L5.75 -3.7" fill="#000000" fill-rule="evenodd" stroke="none"/>
    </g>
  </defs>
</svg>
