<?xml version="1.0" encoding="UTF-8" standalone="no"?>
<svg xmlns:ffdec="https://www.free-decompiler.com/flash" xmlns:xlink="http://www.w3.org/1999/xlink" ffdec:objectType="frame" height="41.4px" width="59.65px" xmlns="http://www.w3.org/2000/svg">
  <g transform="matrix(1.0, 0.0, 0.0, 1.0, 33.05, 58.85)">
    <use ffdec:characterId="2" height="36.4" transform="matrix(1.0, 0.0, 0.0, 1.0, -26.55, -53.85)" width="53.15" xlink:href="#sprite0"/>
    <use ffdec:characterId="4" height="21.05" transform="matrix(1.0, 0.0, 0.0, 1.0, -3.15, -52.15)" width="26.45" xlink:href="#sprite1"/>
    <use ffdec:characterId="8" height="17.05" transform="matrix(1.0, 0.0, 0.0, 1.0, -33.05, -58.85)" width="18.6" xlink:href="#sprite2"/>
    <use ffdec:characterId="6" height="4.05" transform="matrix(1.0, 0.0, 0.0, 1.0, -5.35, -51.5)" width="4.5" xlink:href="#sprite3"/>
    <use ffdec:characterId="6" height="4.05" transform="matrix(1.0, 0.0, 0.0, 1.0, -4.55, -49.85)" width="4.5" xlink:href="#sprite3"/>
    <use ffdec:characterId="6" height="4.05" transform="matrix(1.0, 0.0, 0.0, 1.0, -5.65, -47.25)" width="4.5" xlink:href="#sprite3"/>
    <use ffdec:characterId="6" height="4.05" transform="matrix(1.0, 0.0, 0.0, 1.0, -8.85, -50.45)" width="4.5" xlink:href="#sprite3"/>
    <use ffdec:characterId="6" height="4.05" transform="matrix(1.0, 0.0, 0.0, 1.0, -8.85, -48.55)" width="4.5" xlink:href="#sprite3"/>
    <use ffdec:characterId="6" height="4.05" transform="matrix(1.0, 0.0, 0.0, 1.0, -12.9, -49.9)" width="4.5" xlink:href="#sprite4"/>
    <use ffdec:characterId="6" height="4.05" transform="matrix(1.0, 0.0, 0.0, 1.0, -12.2, -47.4)" width="4.5" xlink:href="#sprite3"/>
    <use ffdec:characterId="6" height="4.05" transform="matrix(1.0, 0.0, 0.0, 1.0, -16.55, -47.85)" width="4.5" xlink:href="#sprite4"/>
    <use ffdec:characterId="6" height="4.05" transform="matrix(1.0, 0.0, 0.0, 1.0, -19.65, -46.0)" width="4.5" xlink:href="#sprite4"/>
    <use ffdec:characterId="6" height="4.05" transform="matrix(1.0, 0.0, 0.0, 1.0, -16.8, -44.1)" width="4.5" xlink:href="#sprite4"/>
    <use ffdec:characterId="6" height="4.05" transform="matrix(1.0, 0.0, 0.0, 1.0, -12.55, -44.05)" width="4.5" xlink:href="#sprite3"/>
    <use ffdec:characterId="6" height="4.05" transform="matrix(1.0, 0.0, 0.0, 1.0, -9.15, -45.35)" width="4.5" xlink:href="#sprite3"/>
    <use ffdec:characterId="6" height="4.05" transform="matrix(1.0, 0.0, 0.0, 1.0, -6.05, -42.25)" width="4.5" xlink:href="#sprite3"/>
    <use ffdec:characterId="6" height="4.05" transform="matrix(1.0, 0.0, 0.0, 1.0, -9.85, -41.65)" width="4.5" xlink:href="#sprite3"/>
    <use ffdec:characterId="6" height="4.05" transform="matrix(1.0, 0.0, 0.0, 1.0, -7.85, -40.0)" width="4.5" xlink:href="#sprite3"/>
    <use ffdec:characterId="6" height="4.05" transform="matrix(1.0, 0.0, 0.0, 1.0, -4.7, -38.55)" width="4.5" xlink:href="#sprite3"/>
    <use ffdec:characterId="6" height="4.05" transform="matrix(1.0, 0.0, 0.0, 1.0, -14.85, -41.45)" width="4.5" xlink:href="#sprite3"/>
    <use ffdec:characterId="6" height="4.05" transform="matrix(1.0, 0.0, 0.0, 1.0, -20.7, -43.25)" width="4.5" xlink:href="#sprite5"/>
    <use ffdec:characterId="6" height="4.05" transform="matrix(1.0, 0.0, 0.0, 1.0, -18.35, -40.9)" width="4.5" xlink:href="#sprite4"/>
    <use ffdec:characterId="6" height="4.05" transform="matrix(1.0, 0.0, 0.0, 1.0, -22.35, -40.9)" width="4.5" xlink:href="#sprite5"/>
    <use ffdec:characterId="6" height="4.05" transform="matrix(1.0, 0.0, 0.0, 1.0, -19.15, -39.25)" width="4.5" xlink:href="#sprite5"/>
    <use ffdec:characterId="6" height="4.05" transform="matrix(1.0, 0.0, 0.0, 1.0, -16.05, -38.1)" width="4.5" xlink:href="#sprite5"/>
    <use ffdec:characterId="6" height="4.05" transform="matrix(1.0, 0.0, 0.0, 1.0, -11.75, -39.05)" width="4.5" xlink:href="#sprite4"/>
    <use ffdec:characterId="6" height="4.05" transform="matrix(1.0, 0.0, 0.0, 1.0, -12.4, -36.7)" width="4.5" xlink:href="#sprite4"/>
    <use ffdec:characterId="6" height="4.05" transform="matrix(1.0, 0.0, 0.0, 1.0, -8.5, -37.2)" width="4.5" xlink:href="#sprite3"/>
    <use ffdec:characterId="6" height="4.05" transform="matrix(1.0, 0.0, 0.0, 1.0, -6.4, -35.65)" width="4.5" xlink:href="#sprite4"/>
    <use ffdec:characterId="6" height="4.05" transform="matrix(1.0, 0.0, 0.0, 1.0, -2.1, -35.65)" width="4.5" xlink:href="#sprite4"/>
    <use ffdec:characterId="10" height="14.8" transform="matrix(1.0, 0.0, 0.0, 1.0, -10.6, -56.85)" width="22.85" xlink:href="#sprite6"/>
  </g>
  <defs>
    <g id="sprite0">
      <use ffdec:characterId="1" height="36.4" transform="matrix(1.0, 0.0, 0.0, 1.0, 0.0, 0.0)" width="53.15" xlink:href="#shape0"/>
    </g>
    <g id="shape0">
      <path d="M50.85 18.0 Q50.2 20.25 49.05 22.3 45.45 23.8 41.9 23.4 44.3 23.15 46.3 21.85 48.85 20.1 50.85 18.0 M48.35 23.4 L48.3 23.45 45.2 27.55 44.75 27.55 Q42.5 27.8 40.65 27.1 41.05 26.55 41.8 26.4 45.4 25.55 48.35 23.4 M43.4 29.5 L41.55 31.2 Q39.45 32.95 37.0 34.05 L37.35 31.1 38.5 30.8 Q40.95 30.5 43.0 29.65 L43.4 29.5 M18.05 34.25 Q16.0 33.55 14.1 32.5 11.05 30.85 8.7 28.25 L13.4 29.85 14.25 29.95 15.55 30.5 18.05 34.25 M8.55 28.05 L6.95 26.0 Q4.5 22.45 2.9 18.65 4.35 19.95 6.25 20.95 L14.1 24.8 14.8 25.1 Q12.25 25.65 9.35 24.6 L7.1 23.95 Q9.85 26.4 13.6 27.85 15.5 28.5 17.0 29.25 L12.15 28.8 Q10.25 28.7 8.55 28.05" fill="#04003a" fill-rule="evenodd" stroke="none"/>
      <path d="M33.1 35.15 L26.35 35.65 22.8 33.35 22.4 32.9 24.95 32.4 Q22.25 30.25 20.85 29.45 L19.05 27.95 20.1 28.05 Q21.85 28.05 22.4 27.55 L22.3 27.3 19.9 26.85 17.7 26.4 17.4 26.2 16.75 25.35 Q15.85 24.0 15.7 22.7 11.65 22.2 7.55 19.4 2.95 16.25 2.9 13.9 L2.85 13.85 2.3 11.1 Q5.0 6.75 9.5 4.55 13.45 2.7 17.85 1.95 L28.6 1.2 39.05 2.45 Q44.0 3.6 47.95 6.5 51.45 9.1 51.85 13.2 L51.5 13.55 Q51.2 16.15 47.85 19.1 L43.85 20.7 40.25 21.8 40.1 23.9 37.5 24.25 Q33.9 25.0 33.2 25.65 L33.65 26.2 34.95 26.35 39.55 25.35 39.1 26.15 37.25 28.35 33.8 28.35 25.5 28.5 Q26.2 29.1 29.15 29.4 L33.65 29.8 35.85 29.8 34.85 30.8 Q34.6 31.05 31.9 31.75 L34.5 32.8 33.1 35.15 M28.15 26.65 L29.75 26.35 Q30.5 26.05 30.5 25.65 L30.4 25.35 23.45 25.1 20.6 24.95 Q19.35 25.15 19.35 25.65 19.35 26.2 23.05 26.65 L28.15 26.65 M34.45 27.0 L32.15 27.05 30.35 27.15 Q29.65 27.25 29.65 27.6 29.65 28.0 30.4 28.0 L34.25 27.9 34.85 27.45 Q34.85 27.05 34.45 27.0" fill="#2fa9d1" fill-rule="evenodd" stroke="none"/>
      <path d="M34.45 27.0 Q34.85 27.05 34.85 27.45 L34.25 27.9 30.4 28.0 Q29.65 28.0 29.65 27.6 29.65 27.25 30.35 27.15 L32.15 27.05 34.45 27.0 M28.15 26.65 L23.05 26.65 Q19.35 26.2 19.35 25.65 19.35 25.15 20.6 24.95 L23.45 25.1 30.4 25.35 30.5 25.65 Q30.5 26.05 29.75 26.35 L28.15 26.65" fill="#82f3ff" fill-rule="evenodd" stroke="none"/>
      <path d="M51.85 13.2 L51.7 13.95 50.85 18.0 Q48.85 20.1 46.3 21.85 44.3 23.15 41.9 23.4 45.45 23.8 49.05 22.3 L48.35 23.4 Q45.4 25.55 41.8 26.4 41.05 26.55 40.65 27.1 42.5 27.8 44.75 27.55 L45.2 27.55 43.4 29.5 43.0 29.65 Q40.95 30.5 38.5 30.8 L37.35 31.1 37.0 34.05 Q35.2 34.8 33.1 35.15 L34.5 32.8 31.9 31.75 Q34.6 31.05 34.85 30.8 L35.85 29.8 33.65 29.8 29.15 29.4 Q26.2 29.1 25.5 28.5 L33.8 28.35 37.25 28.35 39.1 26.15 39.55 25.35 34.95 26.35 33.65 26.2 33.2 25.65 Q33.9 25.0 37.5 24.25 L40.1 23.9 40.25 21.8 43.85 20.7 47.85 19.1 Q51.2 16.15 51.5 13.55 L51.85 13.2 M26.35 35.65 L23.5 35.45 18.05 34.25 15.55 30.5 14.25 29.95 13.4 29.85 8.7 28.25 8.55 28.05 Q10.25 28.7 12.15 28.8 L17.0 29.25 Q15.5 28.5 13.6 27.85 9.85 26.4 7.1 23.95 L9.35 24.6 Q12.25 25.65 14.8 25.1 L14.1 24.8 6.25 20.95 Q4.35 19.95 2.9 18.65 L2.45 17.55 Q1.15 14.2 2.25 11.2 L2.3 11.1 2.85 13.85 2.9 13.9 Q2.95 16.25 7.55 19.4 11.65 22.2 15.7 22.7 15.85 24.0 16.75 25.35 L17.4 26.2 17.7 26.4 19.9 26.85 22.3 27.3 22.4 27.55 Q21.85 28.05 20.1 28.05 L19.05 27.95 20.85 29.45 Q22.25 30.25 24.95 32.4 L22.4 32.9 22.8 33.35 26.35 35.65" fill="#144a7f" fill-rule="evenodd" stroke="none"/>
      <path d="M48.7 7.1 Q49.85 7.45 49.85 8.55 L49.65 9.0 49.2 9.2 47.55 7.65 Q47.55 6.75 48.7 7.1 M2.4 13.85 L4.3 16.85 4.25 17.0 4.05 17.1 Q3.15 17.1 2.2 15.65 1.45 14.45 1.45 14.1 1.45 12.55 2.4 13.85 M32.75 23.5 L31.75 23.75 29.35 23.65 29.25 23.55 32.2 22.65 36.8 22.0 Q38.45 22.0 38.45 22.55 38.45 22.75 36.2 23.35 L34.7 23.7 32.75 23.5 M18.8 22.35 L22.6 22.75 26.3 23.5 Q26.1 24.15 23.95 24.15 20.65 24.15 17.6 23.15 15.8 22.55 14.95 22.0 15.3 21.4 16.85 21.75 L18.8 22.35" fill="#ffffff" fill-rule="evenodd" stroke="none"/>
      <path d="M50.0 13.75 L50.6 12.25 50.9 11.75 Q51.7 12.15 52.05 12.95 L52.2 13.45 52.2 14.05 52.2 14.35 52.1 14.45 51.8 16.85 50.45 18.25 47.15 20.35 Q44.9 21.55 43.45 21.9 41.95 22.2 41.0 22.65 39.95 23.1 34.6 24.15 L24.2 24.6 18.55 23.95 12.6 22.2 7.85 20.2 Q6.15 19.35 4.5 18.2 L2.2 16.3 2.15 16.25 Q1.9 16.05 2.15 16.05 L1.75 15.9 Q1.0 13.75 1.45 12.65 L2.05 11.35 2.15 11.4 2.25 11.8 3.05 12.55 Q2.6 14.0 3.5 14.95 L6.35 17.7 9.2 19.35 Q10.95 20.2 12.85 20.65 L16.4 21.45 20.3 22.15 Q30.8 22.45 41.1 20.6 42.9 20.15 44.5 19.15 L47.5 16.95 Q49.25 15.7 50.0 13.75 M18.8 22.35 L16.85 21.75 Q15.3 21.4 14.95 22.0 15.8 22.55 17.6 23.15 20.65 24.15 23.95 24.15 26.1 24.15 26.3 23.5 L22.6 22.75 18.8 22.35 M32.75 23.5 L34.7 23.7 36.2 23.35 Q38.45 22.75 38.45 22.55 38.45 22.0 36.8 22.0 L32.2 22.65 29.25 23.55 29.35 23.65 31.75 23.75 32.75 23.5 M2.4 13.85 Q1.45 12.55 1.45 14.1 1.45 14.45 2.2 15.65 3.15 17.1 4.05 17.1 L4.25 17.0 4.3 16.85 2.4 13.85" fill="#92edf9" fill-rule="evenodd" stroke="none"/>
      <path d="M8.65 12.05 L9.25 11.9 10.0 12.15 10.2 12.5 10.3 12.5 Q10.3 11.35 10.45 10.65 10.7 9.45 12.65 9.05 12.85 8.05 14.25 7.4 15.65 6.8 17.65 6.8 L18.55 7.0 19.05 6.55 Q19.45 6.1 20.05 6.15 L22.85 6.15 27.95 5.45 Q28.4 5.95 29.0 5.95 L31.55 5.65 Q32.7 5.65 33.2 6.05 33.7 6.45 34.85 6.45 36.0 6.45 36.6 6.9 L37.5 7.35 39.65 7.0 Q40.35 7.0 40.55 7.4 L40.6 8.1 Q44.3 8.2 45.6 9.25 L46.4 10.2 Q45.2 13.45 42.25 15.35 38.5 17.65 34.3 18.8 30.85 19.85 27.15 19.55 L18.65 17.95 14.1 16.7 Q10.05 15.65 8.65 12.05" fill="#ffffff" fill-rule="evenodd" stroke="none"/>
      <path d="M46.4 10.2 L46.8 11.05 48.4 12.55 Q49.6 13.8 49.6 14.5 49.6 15.45 46.0 18.15 42.25 20.8 37.85 21.5 L30.05 22.6 Q26.6 22.95 22.05 22.4 L17.5 21.7 Q10.7 20.55 8.0 18.5 5.35 16.35 5.35 15.4 5.35 14.45 5.8 14.15 L7.5 14.2 7.85 12.85 Q8.0 12.2 8.65 12.05 10.05 15.65 14.1 16.7 L18.65 17.95 27.15 19.55 Q30.85 19.85 34.3 18.8 38.5 17.65 42.25 15.35 45.2 13.45 46.4 10.2" fill="#c3b09e" fill-rule="evenodd" stroke="none"/>
      <path d="M50.4 13.75 Q50.4 15.0 48.6 16.6 47.1 17.95 45.2 18.9 39.9 21.35 36.55 21.95 L36.1 22.15 34.85 22.25 34.65 22.25 33.6 22.3 33.4 22.4 31.8 22.6 30.85 22.65 30.4 22.75 25.6 22.75 24.6 22.65 23.95 22.65 23.7 22.55 23.75 22.4 24.2 22.4 24.7 22.45 25.6 22.55 30.4 22.4 31.75 22.25 33.25 22.1 33.4 21.95 33.85 21.95 34.9 21.9 35.1 21.9 36.25 21.7 36.5 21.7 36.55 21.6 37.35 21.45 37.3 21.5 39.75 20.75 44.5 18.9 Q50.1 15.95 50.1 13.45 L49.6 11.1 Q50.4 12.15 50.4 13.75 M50.25 9.75 Q47.2 5.8 44.15 4.6 39.3 2.8 34.05 2.2 L24.4 1.65 Q19.95 1.9 15.5 2.95 10.7 3.95 6.55 6.45 4.3 7.95 2.75 10.1 1.25 12.25 2.75 15.55 4.25 18.9 9.45 21.0 14.6 23.05 19.95 23.95 L30.2 24.55 Q35.1 24.25 40.55 22.7 45.9 21.15 49.55 17.4 53.2 13.65 50.25 9.75 M50.2 6.45 Q54.2 9.75 52.75 15.7 51.6 20.6 48.7 25.05 47.0 27.65 44.3 29.3 42.1 33.55 37.25 35.1 32.2 36.45 26.95 36.4 L20.25 35.75 Q16.65 35.15 13.2 33.55 10.0 31.95 9.25 28.6 5.05 24.7 2.25 19.85 0.0 15.9 0.0 13.65 -0.1 11.3 1.45 8.55 3.0 5.75 7.4 3.9 11.8 2.0 18.25 0.8 L31.15 0.15 Q37.45 0.75 41.85 1.95 46.2 3.15 50.2 6.45 M3.75 10.95 L3.25 13.3 Q3.25 15.8 8.9 18.7 L13.6 20.6 Q14.65 21.1 17.1 21.5 L20.5 22.1 19.95 22.15 17.85 21.9 Q14.3 21.55 8.15 18.7 L4.75 16.45 Q2.95 14.85 2.95 13.55 2.95 12.0 3.75 10.95 M18.2 31.2 L32.55 31.9 36.2 31.55 Q31.6 33.35 26.45 32.95 L22.4 32.65 Q20.75 32.55 19.25 31.7 L18.2 31.2 M19.15 24.4 Q13.55 23.35 8.4 21.2 5.3 20.0 2.6 17.75 4.05 21.8 7.4 25.5 10.7 29.2 16.35 31.2 L13.95 30.8 11.05 29.8 Q12.75 32.0 15.45 33.15 19.95 35.05 25.25 35.3 31.65 35.6 37.75 33.45 40.55 32.4 42.25 30.3 39.75 31.55 37.15 31.1 41.1 30.0 43.05 28.85 44.95 27.65 46.8 25.1 48.65 22.55 50.2 18.6 47.25 20.75 43.6 22.2 36.9 24.7 29.6 24.85 L19.15 24.4" fill="#000000" fill-rule="evenodd" stroke="none"/>
    </g>
    <g id="sprite1">
      <use ffdec:characterId="3" height="21.05" transform="matrix(1.0, 0.0, 0.0, 1.0, 0.0, 0.0)" width="26.45" xlink:href="#shape1"/>
    </g>
    <g id="shape1">
      <path d="M20.95 4.5 L21.6 4.7 22.55 5.35 Q22.95 5.7 23.35 6.7 L24.1 8.65 23.8 7.95 Q23.4 7.2 22.8 7.2 L22.15 7.5 20.7 7.75 19.0 7.45 Q17.95 7.1 17.75 7.1 L14.45 6.7 17.45 8.05 Q20.05 9.25 23.45 9.25 24.1 9.25 24.1 8.75 L24.15 9.2 24.8 9.7 Q26.1 11.1 26.1 12.3 L26.05 12.75 26.05 13.2 24.6 14.7 22.55 16.25 23.25 15.65 24.8 13.7 20.5 16.15 20.35 16.15 Q20.7 15.2 19.15 14.45 L18.7 14.45 Q15.8 14.45 11.7 10.3 L11.65 10.85 13.65 13.35 14.75 14.5 Q13.7 14.1 13.0 13.3 L11.2 10.85 9.4 8.5 7.85 7.1 9.1 7.5 13.95 8.75 19.25 10.2 Q22.15 10.55 23.1 11.0 L24.15 11.8 Q24.85 12.4 25.1 12.4 L25.7 12.0 25.85 11.55 Q25.85 10.7 24.8 10.1 23.45 9.4 20.85 9.35 L17.85 8.6 14.9 7.65 Q12.8 7.0 8.45 5.15 5.1 3.9 5.1 5.2 5.1 5.75 6.25 6.4 L6.0 6.35 Q5.35 6.35 4.45 6.95 L4.65 6.25 4.1 5.45 Q3.5 4.8 3.5 4.3 L1.25 3.65 Q0.75 3.4 0.75 2.8 L0.75 2.7 0.75 2.6 Q0.75 1.6 4.25 0.85 L6.3 0.5 4.5 1.1 Q2.2 1.9 2.2 2.0 2.2 2.4 2.85 2.5 L4.45 2.6 4.95 2.6 Q4.5 2.75 4.5 3.2 L4.6 3.7 Q4.9 4.2 5.95 4.2 L8.25 4.3 9.15 4.1 9.9 3.95 12.1 4.25 14.5 4.55 18.3 5.65 21.5 6.55 22.05 6.25 22.25 5.75 Q22.25 5.15 21.25 4.65 L20.95 4.5 M19.45 17.85 L18.15 18.4 15.35 19.45 14.85 19.65 15.9 18.8 13.55 18.95 11.0 19.0 10.0 19.3 9.15 19.45 7.6 18.1 5.85 16.45 Q5.05 16.0 4.6 14.85 L4.05 13.2 3.95 13.2 3.95 13.8 5.1 16.35 5.2 16.55 3.4 13.5 Q2.35 10.95 2.25 10.2 1.8 8.4 1.1 9.3 L0.7 10.0 0.75 9.5 Q0.6 8.7 1.2 8.65 L2.85 8.0 3.7 7.65 3.55 8.05 3.6 8.4 4.05 8.45 4.45 8.3 4.75 8.05 Q6.0 8.05 6.8 8.95 L9.6 11.65 Q11.0 12.6 11.95 13.5 L13.05 14.55 Q14.1 15.4 14.75 15.4 L15.75 15.35 16.85 15.85 17.35 15.65 Q18.05 15.65 18.6 16.75 19.0 17.65 19.45 17.85" fill="#ff7330" fill-rule="evenodd" stroke="none"/>
      <path d="M20.95 4.5 L21.25 4.65 Q22.25 5.15 22.25 5.75 L22.05 6.25 21.5 6.55 18.3 5.65 14.5 4.55 12.1 4.25 9.9 3.95 9.15 4.1 8.25 4.3 5.95 4.2 Q4.9 4.2 4.6 3.7 L4.5 3.2 Q4.5 2.75 4.95 2.6 L4.45 2.6 2.85 2.5 Q2.2 2.4 2.2 2.0 2.2 1.9 4.5 1.1 L6.3 0.5 7.2 0.3 7.6 0.35 7.85 0.65 Q7.85 1.4 6.85 2.0 L5.85 2.4 6.15 2.4 10.15 3.15 10.8 3.25 11.5 3.7 14.55 4.0 14.6 4.25 15.65 4.35 18.9 4.3 19.15 4.1 19.7 4.2 20.95 4.5 M4.45 6.95 Q5.35 6.35 6.0 6.35 L6.25 6.4 Q5.1 5.75 5.1 5.2 5.1 3.9 8.45 5.15 12.8 7.0 14.9 7.65 L17.85 8.6 20.85 9.35 Q23.45 9.4 24.8 10.1 25.85 10.7 25.85 11.55 L25.7 12.0 25.1 12.4 Q24.85 12.4 24.15 11.8 L23.1 11.0 Q22.15 10.55 19.25 10.2 L13.95 8.75 9.1 7.5 7.85 7.1 9.4 8.5 11.2 10.85 13.0 13.3 Q13.7 14.1 14.75 14.5 L15.75 15.35 14.75 15.4 Q14.1 15.4 13.05 14.55 L11.95 13.5 Q11.0 12.6 9.6 11.65 L6.8 8.95 Q6.0 8.05 4.75 8.05 L4.45 8.3 4.05 8.45 3.6 8.4 3.55 8.05 3.7 7.65 4.45 6.95" fill="#ffa750" fill-rule="evenodd" stroke="none"/>
      <path d="M14.75 14.5 L13.65 13.35 11.65 10.85 11.7 10.3 Q15.8 14.45 18.7 14.45 L19.15 14.45 Q20.7 15.2 20.35 16.15 L20.5 16.15 24.8 13.7 23.25 15.65 22.55 16.25 21.8 16.85 21.1 17.3 19.6 17.85 19.45 17.85 Q19.0 17.65 18.6 16.75 18.05 15.65 17.35 15.65 L16.85 15.85 15.75 15.35 14.75 14.5 M24.1 8.75 Q24.1 9.25 23.45 9.25 20.05 9.25 17.45 8.05 L14.45 6.7 17.75 7.1 Q17.95 7.1 19.0 7.45 L20.7 7.75 22.15 7.5 22.8 7.2 Q23.4 7.2 23.8 7.95 L24.1 8.65 24.1 8.75 M14.85 19.65 L14.75 19.7 14.35 19.85 14.3 19.85 14.15 19.9 13.75 20.05 13.15 20.05 11.1 20.1 Q10.9 20.15 10.6 20.35 L10.2 20.55 8.05 20.85 7.1 20.8 6.6 21.05 Q6.1 21.05 5.75 20.65 5.2 19.95 5.0 18.15 0.6 12.0 0.5 11.0 L0.5 10.95 0.7 10.0 1.1 9.3 Q1.8 8.4 2.25 10.2 2.35 10.95 3.4 13.5 L5.2 16.55 5.1 16.35 3.95 13.8 3.95 13.2 4.05 13.2 4.6 14.85 Q5.05 16.0 5.85 16.45 L7.6 18.1 9.15 19.45 10.0 19.3 11.0 19.0 13.55 18.95 15.9 18.8 14.85 19.65 M10.8 3.25 L10.55 3.05 10.55 3.0 11.25 3.1 13.9 2.8 14.4 2.65 14.8 2.6 14.7 2.45 15.1 1.8 15.05 1.55 Q15.65 1.65 16.8 2.25 19.2 3.6 19.2 3.8 L19.15 4.1 18.9 4.3 15.65 4.35 14.6 4.25 14.55 4.0 11.5 3.7 10.8 3.25" fill="#c43f25" fill-rule="evenodd" stroke="none"/>
      <path d="M14.3 19.85 L14.2 19.9 14.15 19.9 14.3 19.85 M13.15 20.05 L11.3 20.25 10.6 20.35 Q10.9 20.15 11.1 20.1 L13.15 20.05 M5.75 20.65 L5.35 20.65 4.65 20.8 Q4.3 20.8 4.0 19.85 L3.55 18.45 1.7 13.75 0.95 12.35 0.4 11.4 0.5 11.0 Q0.6 12.0 5.0 18.15 5.2 19.95 5.75 20.65 M19.15 4.1 L19.2 3.8 Q19.2 3.6 16.8 2.25 15.65 1.65 15.05 1.55 L15.1 1.8 14.7 2.45 14.8 2.6 14.4 2.65 13.9 2.8 11.25 3.1 10.55 3.0 10.55 3.05 10.8 3.25 10.15 3.15 6.15 2.4 5.85 2.4 6.85 2.0 Q7.85 1.4 7.85 0.65 L7.6 0.35 9.4 0.25 11.2 0.25 11.5 0.35 12.0 0.35 14.0 0.65 Q15.45 1.0 16.7 1.8 17.45 2.2 18.75 3.3 L19.7 4.2 19.15 4.1" fill="#ff5a0b" fill-rule="evenodd" stroke="none"/>
      <path d="M21.7 8.9 L17.7 5.2 Q18.75 5.25 20.1 6.55 21.3 7.7 21.75 8.7 L21.7 8.9 M22.7 7.0 L19.7 5.0 Q20.3 4.9 21.5 5.7 22.7 6.5 22.7 7.0 M14.8 2.1 Q16.0 3.15 16.35 3.9 L16.1 4.05 14.2 2.45 11.8 0.55 11.85 0.55 Q13.35 0.85 14.8 2.1 M11.45 5.2 L10.3 3.55 10.4 3.5 Q11.7 3.85 12.2 4.75 L12.7 6.45 Q12.1 6.1 11.45 5.2 M11.1 6.55 Q11.6 6.8 12.3 8.9 13.0 11.0 13.0 12.0 L12.85 12.4 11.9 9.45 10.85 6.75 11.1 6.55 M14.75 4.55 L16.2 6.0 Q17.15 6.5 18.95 8.65 L18.75 9.0 Q18.1 7.95 16.45 6.6 L13.5 4.35 Q14.1 3.85 14.75 4.55 M12.65 3.8 L11.25 2.35 Q9.6 0.8 7.7 0.4 9.5 -0.1 11.1 1.2 12.25 2.15 13.0 3.6 L12.65 3.8 M20.15 9.35 Q21.25 9.55 22.2 12.2 L22.95 15.1 22.85 15.85 22.7 15.9 21.8 12.65 Q21.15 10.85 20.05 9.4 L20.15 9.35 M16.45 15.65 L15.1 11.7 13.55 7.45 Q14.8 8.25 15.85 11.5 16.65 14.0 16.65 14.7 L16.45 15.65 M18.7 12.3 Q19.4 13.9 19.7 16.3 L19.7 17.35 19.6 17.45 19.35 17.45 18.25 13.25 Q17.5 10.75 17.5 9.75 L16.9 8.7 Q17.45 8.9 18.0 10.25 L18.7 12.3 M12.15 12.1 L11.5 12.9 12.5 12.6 12.75 12.9 12.1 13.35 10.45 13.55 Q10.2 13.55 10.2 13.45 10.5 13.0 11.25 12.65 L12.15 12.1 M11.7 11.35 L6.75 14.25 9.7 14.25 13.25 13.4 13.5 13.7 Q13.5 14.0 12.6 14.15 L9.75 14.85 5.7 14.9 5.1 15.0 5.0 14.7 Q5.0 14.15 6.6 13.5 L8.45 12.8 Q11.2 11.05 11.65 11.3 L11.7 11.35 M14.25 15.2 Q14.25 15.8 11.3 17.0 7.85 18.4 4.95 17.7 L4.1 19.8 3.85 19.3 4.15 18.3 4.75 17.1 Q10.05 17.0 11.65 16.3 L14.0 14.85 14.25 15.2 M12.35 18.25 Q14.3 17.8 15.5 17.0 16.7 16.2 17.05 16.15 L17.2 16.35 Q15.95 17.7 13.35 18.65 L9.15 19.3 Q6.7 19.55 6.1 20.65 L5.9 20.25 6.15 19.7 6.5 19.1 11.6 18.3 12.35 18.25 M23.15 9.8 Q24.2 10.35 24.7 11.5 L25.2 13.7 25.15 13.75 Q23.9 10.95 23.1 9.95 L23.15 9.8 M6.85 2.35 L6.8 2.6 6.8 2.7 6.65 2.75 4.75 1.6 3.05 1.45 3.25 1.2 6.25 1.6 6.85 2.35 M9.95 2.7 L9.95 2.95 Q9.9 2.95 9.8 3.05 9.3 3.05 8.2 1.65 L5.3 0.55 Q7.45 0.6 8.45 1.3 L9.95 2.7 M9.25 5.95 L8.65 7.9 8.55 7.9 8.45 7.3 8.65 6.35 Q8.85 5.7 9.0 5.65 L9.25 5.95 M9.85 5.25 L9.0 4.35 8.05 3.3 Q8.65 3.0 9.35 3.8 L9.95 4.75 9.9 5.15 9.85 5.25 M8.7 8.35 Q8.7 8.9 3.1 9.85 2.05 10.1 2.1 11.15 2.15 12.4 1.75 12.7 L1.5 12.45 Q1.5 10.1 2.15 9.65 2.9 9.15 8.6 8.0 L8.7 8.35 M2.65 15.9 Q2.5 15.35 2.5 14.6 2.5 13.05 4.75 11.9 7.95 10.45 9.85 9.3 L10.15 9.45 5.1 12.2 Q2.4 13.85 2.9 15.85 L2.65 15.9" fill="#ffd2bd" fill-rule="evenodd" stroke="none"/>
      <path d="M22.65 4.95 L23.05 5.8 24.15 7.45 Q24.7 8.35 24.7 9.05 L24.65 9.3 24.65 9.35 25.75 9.95 26.15 10.8 26.45 11.8 26.35 12.8 Q26.2 13.7 25.75 13.7 25.45 13.7 25.5 13.45 L25.7 12.25 Q25.7 10.75 24.55 10.2 L22.2 9.6 20.95 9.55 Q13.65 7.75 5.7 4.35 L5.25 4.4 5.0 5.75 4.65 6.6 4.75 6.6 Q6.05 5.4 6.65 6.25 L8.55 7.9 Q11.0 9.75 12.1 11.25 L13.45 12.95 15.2 14.65 16.6 15.3 18.1 16.0 18.8 16.75 19.2 17.6 Q19.2 18.1 18.8 18.1 18.45 18.1 18.2 17.55 L17.45 16.6 Q17.25 16.35 16.25 15.95 15.0 15.35 14.9 15.3 14.0 14.8 13.25 13.8 L12.2 12.4 Q10.95 10.8 8.65 8.7 6.45 6.6 6.05 6.6 L5.5 6.9 5.05 7.05 Q4.7 7.55 1.7 8.7 2.5 9.8 3.2 11.5 L4.2 14.5 5.7 17.4 6.8 18.9 7.7 20.2 7.45 20.6 6.45 19.45 5.2 17.55 3.7 14.6 2.55 11.5 1.7 10.05 1.1 9.05 1.15 9.65 0.6 11.15 1.55 13.1 2.8 16.0 3.5 18.35 4.45 20.7 4.25 21.0 Q3.7 21.0 3.1 19.05 L2.35 16.15 1.35 13.65 0.0 11.25 0.65 9.7 0.7 8.1 1.05 8.1 1.15 8.0 2.5 7.6 Q3.55 7.0 4.25 6.75 L4.35 6.2 3.15 4.8 3.3 4.4 3.15 4.4 0.65 3.85 0.6 3.05 0.65 2.2 0.55 2.1 0.8 1.75 0.85 1.65 4.45 0.85 9.1 0.05 Q12.05 -0.35 16.05 1.55 20.05 3.4 20.05 4.35 L20.05 4.45 21.55 4.55 Q22.55 4.65 22.65 4.95 M22.35 8.8 L24.15 9.25 23.45 8.0 22.05 5.45 18.55 4.85 14.7 4.4 13.45 4.35 8.2 3.3 5.2 2.95 4.8 2.85 5.1 3.05 6.0 3.95 7.5 4.55 9.7 5.4 11.4 5.95 13.35 6.6 21.05 8.8 22.35 8.8 M19.3 4.4 L18.45 3.7 Q17.8 3.15 16.8 2.5 L14.45 1.3 Q13.1 0.7 10.55 0.5 L6.15 0.85 3.25 1.4 Q1.3 1.75 1.7 1.9 L2.9 2.05 3.75 2.25 5.05 2.4 8.45 2.9 13.45 3.7 17.4 4.0 19.3 4.4 M1.0 2.35 L1.0 3.5 2.6 3.8 Q3.2 3.95 3.4 4.05 L3.2 3.0 3.05 2.45 1.0 2.35 M5.2 3.9 L4.05 2.85 3.6 4.7 4.1 5.2 4.45 5.65 4.5 5.4 4.8 4.1 Q4.85 3.9 5.2 3.9" fill="#9b2100" fill-rule="evenodd" stroke="none"/>
      <path d="M21.5 5.9 Q22.45 6.05 22.45 6.55 22.45 7.15 21.85 7.15 L19.9 6.35 17.45 5.55 16.25 5.75 15.05 5.5 15.05 5.3 17.1 4.9 19.3 5.05 21.5 5.9 M16.95 3.5 Q16.4 3.5 14.6 2.55 12.75 1.55 12.4 1.5 L12.35 1.2 12.4 0.9 Q14.05 0.75 15.4 1.65 L17.35 3.3 Q17.25 3.5 16.95 3.5 M16.05 9.0 L20.95 10.45 20.9 10.55 17.95 11.0 Q16.9 11.0 15.05 10.0 L12.95 8.65 12.95 8.15 16.05 9.0 M22.25 10.75 Q22.25 9.8 23.8 10.85 23.5 11.4 23.0 11.4 22.45 11.4 22.3 11.05 L22.25 10.75 M9.6 10.1 Q11.1 11.45 12.15 13.05 12.5 14.4 14.4 15.6 16.2 16.7 16.2 17.05 L15.7 17.55 Q14.35 17.55 10.9 13.45 L7.8 9.95 Q7.8 8.55 9.6 10.1" fill="#ffffff" fill-rule="evenodd" stroke="none"/>
    </g>
    <g id="sprite2">
      <use ffdec:characterId="7" height="17.05" transform="matrix(1.0, 0.0, 0.0, 1.0, 0.0, 0.0)" width="18.6" xlink:href="#shape2"/>
    </g>
    <g id="shape2">
      <path d="M15.2 4.15 L15.3 4.7 Q15.5 5.25 16.0 5.25 16.6 5.25 16.6 4.55 16.6 3.8 15.9 3.6 15.2 3.45 15.2 4.15 M6.4 11.25 Q6.7 10.55 8.7 10.4 11.1 10.2 11.1 11.3 11.1 11.95 10.6 12.2 L7.75 12.5 7.4 12.5 Q8.55 12.35 8.55 11.65 8.55 10.7 7.25 10.95 L6.4 11.25 M17.2 6.2 Q17.35 7.55 16.3 7.55 15.85 7.55 15.45 6.0 15.1 4.75 15.1 4.15 15.1 2.55 16.15 3.6 17.2 4.7 17.2 6.2 M11.65 9.4 Q11.8 10.3 10.8 10.3 L9.25 9.75 7.4 10.1 5.9 10.45 Q4.7 10.45 4.7 9.55 4.7 8.4 8.15 7.95 11.65 7.5 11.65 9.4 M5.05 8.9 L4.85 9.4 5.1 9.95 Q5.45 10.35 6.05 10.35 L7.2 10.0 7.65 9.4 Q7.65 8.7 6.2 8.7 L5.05 8.9" fill="#98cc27" fill-rule="evenodd" stroke="none"/>
      <path d="M15.2 4.15 Q15.2 3.45 15.9 3.6 16.6 3.8 16.6 4.55 16.6 5.25 16.0 5.25 15.5 5.25 15.3 4.7 L15.2 4.15 M6.4 11.25 L7.25 10.95 Q8.55 10.7 8.55 11.65 8.55 12.35 7.4 12.5 L6.9 12.5 Q5.9 12.5 5.9 11.9 5.9 11.5 6.4 11.25 M5.05 8.9 L6.2 8.7 Q7.65 8.7 7.65 9.4 L7.2 10.0 6.05 10.35 Q5.45 10.35 5.1 9.95 L4.85 9.4 5.05 8.9" fill="#ffe365" fill-rule="evenodd" stroke="none"/>
      <path d="M14.6 5.3 L14.4 3.3 Q14.35 2.0 15.45 2.05 18.5 5.95 18.5 8.55 L18.25 10.25 Q17.85 11.2 17.6 12.4 17.25 14.1 16.65 14.55 15.7 15.2 12.3 15.2 L9.3 15.05 Q6.75 14.55 6.35 12.85 6.2 12.15 4.4 10.85 L2.65 9.35 2.75 9.0 2.95 8.65 Q3.7 7.9 4.65 8.1 L6.4 8.2 7.55 7.55 Q8.15 7.15 9.55 7.15 11.0 7.15 12.05 7.7 L13.75 8.65 13.75 8.6 Q13.45 8.0 13.9 6.95 L14.6 5.3 M7.4 12.5 L7.75 12.5 10.6 12.2 Q11.1 11.95 11.1 11.3 11.1 10.2 8.7 10.4 6.7 10.55 6.4 11.25 5.9 11.5 5.9 11.9 5.9 12.5 6.9 12.5 L7.4 12.5 M11.65 9.4 Q11.65 7.5 8.15 7.95 4.7 8.4 4.7 9.55 4.7 10.45 5.9 10.45 L7.4 10.1 9.25 9.75 10.8 10.3 Q11.8 10.3 11.65 9.4 M17.2 6.2 Q17.2 4.7 16.15 3.6 15.1 2.55 15.1 4.15 15.1 4.75 15.45 6.0 15.85 7.55 16.3 7.55 17.35 7.55 17.2 6.2" fill="#6c8a2a" fill-rule="evenodd" stroke="none"/>
      <path d="M16.75 3.9 Q15.6 2.1 14.95 0.0 L14.45 0.4 Q13.55 4.25 13.7 8.2 8.8 5.1 4.0 8.3 2.3 9.4 0.0 9.25 5.3 10.55 7.35 15.85 12.05 16.5 16.7 14.95 L17.15 15.1 18.2 17.05 Q17.65 13.2 18.15 9.4 L17.5 10.15 17.6 10.15 17.1 12.9 16.1 6.05 Q15.75 8.75 16.15 11.6 L15.0 9.85 13.95 8.05 Q15.0 5.3 15.1 2.3 L16.75 3.9 M7.05 13.5 Q5.75 10.95 3.35 9.65 6.75 8.1 10.45 7.4 12.5 7.95 14.0 9.45 15.7 11.2 16.55 13.4 12.9 9.45 7.85 10.05 12.8 10.7 16.25 14.15 12.1 16.05 8.1 14.45 7.4 14.25 7.05 13.5 M18.2 5.85 L17.35 4.85 Q18.2 6.25 18.35 8.05 L18.55 7.15 Q18.7 6.5 18.2 5.85" fill="#24261e" fill-rule="evenodd" stroke="none"/>
    </g>
    <g id="sprite3">
      <use ffdec:characterId="5" height="4.05" transform="matrix(1.0, 0.0, 0.0, 1.0, 0.0, 0.0)" width="4.5" xlink:href="#shape3"/>
    </g>
    <g id="shape3">
      <path d="M3.75 2.55 L3.8 2.55 3.85 2.75 3.7 3.15 3.35 3.45 2.65 3.25 2.6 3.05 2.8 2.85 Q3.2 2.45 3.75 2.55 M0.75 1.55 L0.65 1.85 1.35 3.0 0.9 3.3 Q0.45 3.3 0.15 2.15 0.15 1.55 0.4 1.3 L0.75 1.4 0.75 1.55" fill="#ffb33b" fill-rule="evenodd" stroke="none"/>
      <path d="M3.95 1.6 L4.0 1.8 3.95 1.85 3.65 2.0 3.15 1.5 Q2.5 1.0 1.95 0.85 L1.75 0.8 Q3.45 -0.1 3.95 1.6" fill="#ffffff" fill-rule="evenodd" stroke="none"/>
      <path d="M0.75 1.4 Q0.8 0.75 1.05 0.5 1.5 0.05 2.7 0.05 3.6 0.05 3.85 0.7 L3.95 1.35 3.95 1.6 Q3.45 -0.1 1.75 0.8 L1.95 0.85 Q2.5 1.0 3.15 1.5 L3.65 2.0 3.95 1.85 3.85 2.3 3.75 2.55 Q3.2 2.45 2.8 2.85 1.35 2.85 0.9 2.2 L0.75 1.55 0.75 1.4" fill="#ff0000" fill-rule="evenodd" stroke="none"/>
      <path d="M3.95 1.6 L3.95 1.35 3.85 0.7 Q3.6 0.05 2.7 0.05 1.5 0.05 1.05 0.5 0.8 0.75 0.75 1.4 L0.4 1.3 Q0.15 1.55 0.15 2.15 0.45 3.3 0.9 3.3 L1.35 3.0 0.65 1.85 0.75 1.55 0.9 2.2 Q1.35 2.85 2.8 2.85 L2.6 3.05 2.65 3.25 3.35 3.45 3.7 3.15 3.85 2.75 3.8 2.55 3.75 2.55 3.85 2.3 3.95 1.85 4.0 1.8 3.95 1.6 M4.1 3.05 Q3.6 4.05 2.65 4.05 0.0 4.05 0.0 1.65 0.0 0.0 2.25 0.0 4.5 0.0 4.5 1.75 4.5 2.35 4.1 3.05" fill="#ff7653" fill-rule="evenodd" stroke="none"/>
    </g>
    <g id="sprite4">
      <use ffdec:characterId="5" height="4.05" transform="matrix(1.0, 0.0, 0.0, 1.0, 0.0, 0.0)" width="4.5" xlink:href="#shape4"/>
    </g>
    <g id="shape4">
      <path d="M3.75 2.55 L3.8 2.55 3.85 2.75 3.7 3.15 3.35 3.45 2.65 3.25 2.6 3.05 2.8 2.85 Q3.2 2.45 3.75 2.55 M0.75 1.55 L0.65 1.85 1.35 3.0 0.9 3.3 Q0.45 3.3 0.15 2.15 0.15 1.55 0.4 1.3 L0.75 1.4 0.75 1.55" fill="#d19230" fill-rule="evenodd" stroke="none"/>
      <path d="M3.95 1.6 L4.0 1.8 3.95 1.85 3.65 2.0 3.15 1.5 Q2.5 1.0 1.95 0.85 L1.75 0.8 Q3.45 -0.1 3.95 1.6" fill="#d1d1d1" fill-rule="evenodd" stroke="none"/>
      <path d="M0.75 1.4 Q0.8 0.75 1.05 0.5 1.5 0.05 2.7 0.05 3.6 0.05 3.85 0.7 L3.95 1.35 3.95 1.6 Q3.45 -0.1 1.75 0.8 L1.95 0.85 Q2.5 1.0 3.15 1.5 L3.65 2.0 3.95 1.85 3.85 2.3 3.75 2.55 Q3.2 2.45 2.8 2.85 1.35 2.85 0.9 2.2 L0.75 1.55 0.75 1.4" fill="#d10000" fill-rule="evenodd" stroke="none"/>
      <path d="M3.95 1.6 L3.95 1.35 3.85 0.7 Q3.6 0.05 2.7 0.05 1.5 0.05 1.05 0.5 0.8 0.75 0.75 1.4 L0.4 1.3 Q0.15 1.55 0.15 2.15 0.45 3.3 0.9 3.3 L1.35 3.0 0.65 1.85 0.75 1.55 0.9 2.2 Q1.35 2.85 2.8 2.85 L2.6 3.05 2.65 3.25 3.35 3.45 3.7 3.15 3.85 2.75 3.8 2.55 3.75 2.55 3.85 2.3 3.95 1.85 4.0 1.8 3.95 1.6 M4.1 3.05 Q3.6 4.05 2.65 4.05 0.0 4.05 0.0 1.65 0.0 0.0 2.25 0.0 4.5 0.0 4.5 1.75 4.5 2.35 4.1 3.05" fill="#d16044" fill-rule="evenodd" stroke="none"/>
    </g>
    <g id="sprite5">
      <use ffdec:characterId="5" height="4.05" transform="matrix(1.0, 0.0, 0.0, 1.0, 0.0, 0.0)" width="4.5" xlink:href="#shape5"/>
    </g>
    <g id="shape5">
      <path d="M3.75 2.55 L3.8 2.55 3.85 2.75 3.7 3.15 3.35 3.45 2.65 3.25 2.6 3.05 2.8 2.85 Q3.2 2.45 3.75 2.55 M0.75 1.55 L0.65 1.85 1.35 3.0 0.9 3.3 Q0.45 3.3 0.15 2.15 0.15 1.55 0.4 1.3 L0.75 1.4 0.75 1.55" fill="#b27d29" fill-rule="evenodd" stroke="none"/>
      <path d="M3.95 1.6 L4.0 1.8 3.95 1.85 3.65 2.0 3.15 1.5 Q2.5 1.0 1.95 0.85 L1.75 0.8 Q3.45 -0.1 3.95 1.6" fill="#b2b2b2" fill-rule="evenodd" stroke="none"/>
      <path d="M0.75 1.4 Q0.8 0.75 1.05 0.5 1.5 0.05 2.7 0.05 3.6 0.05 3.85 0.7 L3.95 1.35 3.95 1.6 Q3.45 -0.1 1.75 0.8 L1.95 0.85 Q2.5 1.0 3.15 1.5 L3.65 2.0 3.95 1.85 3.85 2.3 3.75 2.55 Q3.2 2.45 2.8 2.85 1.35 2.85 0.9 2.2 L0.75 1.55 0.75 1.4" fill="#b20000" fill-rule="evenodd" stroke="none"/>
      <path d="M3.95 1.6 L3.95 1.35 3.85 0.7 Q3.6 0.05 2.7 0.05 1.5 0.05 1.05 0.5 0.8 0.75 0.75 1.4 L0.4 1.3 Q0.15 1.55 0.15 2.15 0.45 3.3 0.9 3.3 L1.35 3.0 0.65 1.85 0.75 1.55 0.9 2.2 Q1.35 2.85 2.8 2.85 L2.6 3.05 2.65 3.25 3.35 3.45 3.7 3.15 3.85 2.75 3.8 2.55 3.75 2.55 3.85 2.3 3.95 1.85 4.0 1.8 3.95 1.6 M4.1 3.05 Q3.6 4.05 2.65 4.05 0.0 4.05 0.0 1.65 0.0 0.0 2.25 0.0 4.5 0.0 4.5 1.75 4.5 2.35 4.1 3.05" fill="#b2523a" fill-rule="evenodd" stroke="none"/>
    </g>
    <g id="sprite6">
      <use ffdec:characterId="9" height="14.8" transform="matrix(1.0, 0.0, 0.0, 1.0, 0.0, 0.0)" width="22.85" xlink:href="#shape6"/>
    </g>
    <g id="shape6">
      <path d="M20.9 4.25 Q20.9 4.45 20.25 4.65 L18.4 4.85 17.95 4.85 16.9 5.65 16.8 5.75 17.8 6.85 Q19.0 6.35 19.65 6.35 21.15 6.25 21.4 6.85 21.65 7.5 22.5 7.5 L22.85 7.6 Q22.5 8.15 21.9 8.15 21.45 8.15 21.05 7.55 L20.5 6.95 Q19.45 6.95 18.1 7.6 L18.05 7.65 18.05 7.7 17.85 7.9 17.6 8.05 17.65 8.2 Q17.2 8.65 16.55 8.65 L15.7 8.5 16.45 8.9 18.85 8.6 Q20.6 8.55 21.4 9.15 L21.5 9.3 20.6 9.85 19.0 10.15 19.5 10.3 18.75 10.45 Q20.2 11.55 20.55 12.3 L20.05 12.55 17.4 10.75 17.05 10.8 16.75 10.8 16.75 10.85 17.35 11.95 18.85 12.85 Q19.8 13.4 20.0 13.9 L20.0 14.65 19.95 14.75 17.05 12.75 16.15 11.95 15.5 11.6 15.75 12.85 15.65 13.15 15.6 13.35 15.2 13.4 Q14.6 13.4 12.5 10.4 L11.95 10.35 12.85 11.2 Q14.8 13.35 14.8 14.3 L14.65 14.8 Q13.6 14.55 12.25 13.2 L9.8 10.65 Q10.1 10.1 10.5 9.95 10.6 9.4 12.0 9.3 L11.25 8.8 10.05 10.2 Q7.5 13.3 7.05 13.3 L6.6 13.25 6.3 13.05 6.3 12.45 6.3 12.4 Q4.3 13.8 2.05 14.7 L1.75 14.7 1.65 14.3 Q1.65 13.45 4.05 11.95 5.9 10.85 7.1 10.8 L7.45 10.2 8.95 8.15 7.6 9.15 4.55 11.05 Q3.75 11.05 3.65 9.85 3.65 9.1 4.95 8.3 L4.7 8.3 3.75 8.15 3.65 8.05 3.55 7.6 3.65 7.25 2.8 7.5 2.35 7.85 Q2.25 7.95 2.25 7.7 L2.25 7.65 0.65 8.05 0.0 7.95 1.6 6.8 2.95 6.2 4.55 4.1 4.9 3.75 Q3.2 3.55 3.2 3.15 3.2 2.2 6.1 2.6 6.5 2.25 6.9 2.05 7.05 1.6 8.05 1.75 L8.9 1.95 9.0 1.85 8.65 1.6 8.65 1.3 9.4 1.4 9.55 1.4 11.15 0.35 Q12.5 -0.5 13.3 0.8 L14.1 2.3 15.25 2.45 Q17.1 2.9 17.1 3.75 L17.0 4.0 17.8 3.95 17.9 4.1 19.15 3.95 19.1 3.85 20.2 3.85 20.85 4.05 20.9 4.25 M16.7 4.0 L13.85 3.1 14.15 3.5 14.15 3.6 14.75 4.25 14.75 4.3 14.6 4.35 14.55 4.35 14.65 4.6 14.6 4.75 14.8 4.85 14.9 4.85 16.1 4.25 16.15 3.95 16.7 4.0 M13.45 2.55 L12.85 1.9 12.1 0.9 Q11.25 0.9 10.45 1.6 11.15 1.8 12.15 2.35 12.7 2.35 13.4 2.8 L13.45 2.8 13.4 2.75 13.45 2.55 M12.6 5.25 L13.05 5.05 13.0 5.0 11.95 4.4 12.6 5.25 M10.8 6.15 L10.05 5.85 9.25 5.4 9.45 5.1 8.7 5.45 8.4 5.8 8.3 5.7 7.85 5.95 10.85 6.35 11.1 6.15 10.8 6.15 M13.55 4.15 L14.1 4.45 13.65 4.15 13.55 4.15 M15.05 9.4 L15.35 9.45 14.5 8.9 15.05 9.4 M12.4 7.6 L12.15 7.85 12.85 7.85 12.45 7.65 12.4 7.6 M9.35 2.85 Q9.75 2.6 10.25 2.5 L9.75 2.25 9.35 2.85 M6.7 5.2 L7.45 4.45 7.8 4.2 7.75 4.0 6.35 3.85 4.85 5.1 4.15 5.95 4.4 5.95 6.3 5.35 6.7 5.2 M10.1 11.5 Q10.9 12.15 10.9 13.05 L10.75 14.15 9.9 14.3 9.3 11.8 Q9.3 10.85 10.1 11.5" fill="#1f1c29" fill-rule="evenodd" stroke="none"/>
    </g>
  </defs>
</svg>
