<?xml version="1.0" encoding="UTF-8" standalone="no"?>
<svg xmlns:ffdec="https://www.free-decompiler.com/flash" xmlns:xlink="http://www.w3.org/1999/xlink" ffdec:objectType="frame" height="31.25px" width="38.0px" xmlns="http://www.w3.org/2000/svg">
  <g transform="matrix(1.0, 0.0, 0.0, 1.0, 18.2, 51.05)">
    <use ffdec:characterId="2" height="20.15" transform="matrix(1.0, 0.0, 0.0, 1.0, -2.75, -39.9)" width="6.15" xlink:href="#sprite0"/>
    <use ffdec:characterId="4" height="26.55" transform="matrix(1.0, 0.0, -0.004, 0.9843, -18.1, -50.8)" width="37.9" xlink:href="#sprite1"/>
  </g>
  <defs>
    <g id="sprite0">
      <use ffdec:characterId="1" height="20.15" transform="matrix(1.0, 0.0, 0.0, 1.0, 0.0, 0.0)" width="6.15" xlink:href="#shape0"/>
    </g>
    <g id="shape0">
      <path d="M2.75 8.25 L2.75 8.1 Q2.75 6.3 2.1 4.05 L1.4 1.6 1.15 0.7 Q1.15 0.45 1.3 0.25 1.55 -0.15 1.9 0.15 L3.65 3.7 5.3 7.55 Q5.5 8.15 5.05 8.15 L2.75 8.25 M5.2 14.55 L4.95 15.5 Q4.1 18.75 2.95 19.4 L2.85 19.4 2.45 19.55 1.4 19.7 0.85 19.4 0.7 19.4 Q0.2 19.1 0.2 18.6 0.2 18.4 0.55 17.85 L0.95 17.3 1.25 16.0 1.65 14.55 Q2.95 15.95 5.2 14.55" fill="#9c9eab" fill-rule="evenodd" stroke="none"/>
      <path d="M5.05 8.15 Q5.6 9.15 5.6 10.75 5.6 12.4 5.2 14.55 2.95 15.95 1.65 14.55 L1.95 13.4 Q2.7 10.8 2.75 8.25 L5.05 8.15" fill="#cfcfcf" fill-rule="evenodd" stroke="none"/>
      <path d="M2.15 0.3 Q8.05 9.45 3.45 19.25" ffdec:has-small-stroke="true" ffdec:original-stroke-width="0.7" fill="none" stroke="#464646" stroke-linecap="round" stroke-linejoin="round" stroke-width="1.0"/>
      <path d="M0.9 1.1 Q4.65 9.45 0.05 19.25" ffdec:has-small-stroke="true" ffdec:original-stroke-width="0.7" fill="none" stroke="#464646" stroke-linecap="round" stroke-linejoin="round" stroke-width="1.0"/>
      <path d="M0.0 19.15 Q1.6 20.4 3.55 19.15" ffdec:has-small-stroke="true" ffdec:original-stroke-width="0.7" fill="none" stroke="#464646" stroke-linecap="round" stroke-linejoin="round" stroke-width="1.0"/>
      <path d="M2.5 3.0 Q6.0 12.05 2.4 17.7" fill="none" stroke="#ffffff" stroke-linecap="round" stroke-linejoin="round" stroke-width="1.0"/>
    </g>
    <g id="sprite1">
      <use ffdec:characterId="3" height="26.55" transform="matrix(1.0, 0.0, 0.0, 1.0, 0.0, 0.0)" width="37.9" xlink:href="#shape1"/>
    </g>
    <g id="shape1">
      <path d="M18.9 12.4 Q15.45 10.8 13.0 12.4 10.5 14.05 11.05 15.65 11.6 17.25 17.15 17.4 22.65 17.55 25.5 16.25 28.35 14.9 28.15 12.45 27.9 10.05 24.05 8.35 20.25 6.7 14.4 7.05 8.45 7.45 5.55 10.1 2.5 12.65 2.35 15.2 2.15 17.75 6.0 20.75 9.95 23.85 17.85 23.9 27.05 23.9 31.75 20.3 35.65 17.2 35.55 12.7 35.4 8.35 30.4 5.3 25.5 2.3 19.85 2.1 L9.65 2.5 Q5.05 3.15 4.25 4.3" fill="none" stroke="#012701" stroke-linecap="round" stroke-linejoin="round" stroke-width="4.7"/>
      <path d="M33.9 14.5 L34.25 13.45 Q34.4 12.75 34.15 11.25 33.9 9.7 32.7 8.0 31.5 6.3 29.7 5.3 27.85 4.25 25.85 3.65 L21.45 2.65 15.2 2.4 Q16.2 1.4 17.35 0.55 L19.9 0.6 Q25.95 0.8 31.2 4.05 36.95 7.55 37.05 12.65 L37.05 12.7 37.05 13.45 36.85 14.45 36.45 15.5 36.1 16.35 34.65 17.0 32.1 18.0 33.65 15.45 33.9 14.5 M26.45 12.05 L26.05 10.85 Q25.65 9.9 24.05 9.05 22.45 8.15 20.6 7.8 L16.75 7.5 12.85 7.75 9.65 8.45 9.7 8.35 12.0 5.8 14.3 5.55 Q20.6 5.2 24.65 7.0 29.5 9.1 29.65 12.3 L29.65 12.35 29.6 14.0 Q28.35 15.55 26.9 16.25 L23.2 17.4 20.7 17.8 19.05 17.0 16.75 15.9 17.2 15.9 Q22.25 16.05 24.9 14.9 L24.85 14.9 Q26.65 14.05 26.65 12.6 L26.45 12.05 M10.6 12.4 Q11.25 11.75 12.2 11.15 15.25 9.05 19.55 11.05 20.1 11.3 20.3 11.9 L20.4 12.25 19.35 13.1 19.1 13.05 Q18.7 13.05 18.6 12.75 L16.75 12.25 Q14.5 12.05 12.95 13.65 L12.0 13.1 11.05 12.65 10.6 12.4" fill="#5d9b38" fill-rule="evenodd" stroke="none"/>
      <path d="M15.2 2.4 L21.45 2.65 25.85 3.65 Q27.85 4.25 29.7 5.3 31.5 6.3 32.7 8.0 33.9 9.7 34.15 11.25 34.4 12.75 34.25 13.45 L33.9 14.5 34.05 12.75 Q33.85 9.15 29.65 6.6 25.05 3.8 19.8 3.6 L14.1 3.6 9.85 4.0 Q6.2 4.5 5.5 5.15 5.15 5.65 4.55 5.8 L3.4 5.55 3.35 5.5 2.9 4.95 5.35 3.6 Q7.0 2.85 13.05 2.5 L15.2 2.4 M36.1 16.35 L36.45 15.5 36.85 14.45 37.05 13.45 37.0 14.45 36.6 16.05 36.0 17.55 34.35 19.95 32.7 21.5 32.65 21.5 28.65 23.75 Q24.25 25.4 17.85 25.4 12.1 25.35 8.3 23.8 6.45 23.05 5.1 21.95 L4.45 21.45 2.3 19.3 1.8 18.5 2.3 19.15 2.7 19.55 5.95 21.9 7.55 22.65 10.2 23.6 13.75 24.25 17.6 24.5 21.3 24.35 25.05 23.8 28.75 22.9 29.4 22.65 Q30.8 22.05 32.0 21.25 L33.95 19.65 35.15 18.1 36.1 16.35 M9.65 8.45 L12.85 7.75 16.75 7.5 20.6 7.8 Q22.45 8.15 24.05 9.05 25.65 9.9 26.05 10.85 L26.45 12.05 Q25.8 10.75 23.45 9.75 19.9 8.2 14.5 8.55 11.25 8.75 9.0 9.75 7.55 10.3 6.55 11.2 L6.5 11.25 Q4.6 12.85 4.05 14.45 4.05 13.3 4.65 12.25 5.3 11.15 6.4 10.2 7.5 9.25 9.25 8.6 L9.65 8.45 M20.7 17.8 L23.2 17.4 26.9 16.25 Q28.35 15.55 29.6 14.0 29.05 16.2 26.15 17.6 L26.15 17.65 22.95 18.6 17.1 18.9 Q10.25 18.7 9.65 16.25 L9.65 16.15 Q9.35 15.5 9.35 14.9 L10.3 16.05 12.0 17.0 14.95 17.65 18.9 17.9 20.7 17.8 M12.95 13.65 Q14.5 12.05 16.75 12.25 L18.6 12.75 Q18.7 13.05 19.1 13.05 L19.35 13.1 20.4 12.25 20.25 13.05 Q20.0 13.6 19.45 13.8 L18.3 13.75 13.85 13.65 13.4 13.95 12.5 15.0 12.5 14.1 12.95 13.65" fill="#18310a" fill-rule="evenodd" stroke="none"/>
      <path d="M32.1 18.0 L34.65 17.0 36.1 16.35 35.15 18.1 33.95 19.65 32.0 21.25 Q30.8 22.05 29.4 22.65 L28.75 22.9 25.05 23.8 21.3 24.35 17.6 24.5 13.75 24.25 10.2 23.6 7.55 22.65 5.95 21.9 2.7 19.55 2.3 19.15 1.8 18.5 1.7 18.4 1.45 18.0 1.25 17.5 Q0.85 16.65 0.85 15.85 L0.85 15.6 0.85 15.1 0.95 14.3 1.4 12.85 Q1.95 11.55 3.25 10.25 2.7 12.85 3.95 14.8 L3.85 15.3 3.85 15.35 3.95 16.0 Q4.4 17.6 6.95 19.6 10.6 22.35 17.85 22.4 22.85 22.4 26.45 21.3 29.0 20.5 30.85 19.15 L30.85 19.1 32.1 18.0" fill="#53902f" fill-rule="evenodd" stroke="none"/>
      <path d="M17.35 0.55 Q16.2 1.4 15.2 2.4 L13.05 2.5 Q7.0 2.85 5.35 3.6 L2.9 4.95 2.8 4.75 2.8 4.6 Q2.65 3.95 3.05 3.45 3.9 1.8 9.45 1.05 L17.35 0.55 M16.75 15.9 L19.05 17.0 20.7 17.8 18.9 17.9 14.95 17.65 12.0 17.0 10.3 16.05 9.35 14.9 Q9.35 14.25 9.7 13.6 10.0 13.0 10.6 12.4 L11.05 12.65 12.0 13.1 12.95 13.65 12.5 14.1 12.5 15.0 12.5 15.15 Q13.0 15.75 16.75 15.9 M12.0 5.8 L9.7 8.35 9.65 8.45 9.25 8.6 Q7.5 9.25 6.4 10.2 5.3 11.15 4.65 12.25 4.05 13.3 4.05 14.45 L3.95 14.8 Q2.7 12.85 3.25 10.25 L4.6 8.95 Q7.2 6.55 12.0 5.8" fill="#417125" fill-rule="evenodd" stroke="none"/>
      <path d="M28.95 3.85 Q24.0 1.55 19.25 1.0 L21.2 0.95 Q29.5 2.7 32.2 5.15 34.9 7.55 35.45 9.15 36.0 10.7 35.95 11.65 33.9 6.15 28.95 3.85" fill="#90c073" fill-rule="evenodd" stroke="none"/>
      <path d="M29.3 13.3 L29.1 13.9 27.5 15.15 Q29.35 10.6 24.95 8.4 20.55 6.15 16.45 5.7 L18.95 5.9 Q22.75 6.15 26.1 8.15 29.4 10.05 29.3 13.3" fill="#90c073" fill-rule="evenodd" stroke="none"/>
      <path d="M19.75 11.85 L19.65 12.3 Q18.75 11.55 16.4 11.3 L13.7 11.2 13.5 11.2 13.6 11.0 Q14.7 10.35 16.95 10.55 19.8 11.3 19.75 11.85" fill="#90c073" fill-rule="evenodd" stroke="none"/>
      <path d="M21.6 22.65 L24.9 22.25 24.1 22.9 12.75 22.55 Q19.6 22.9 21.6 22.65" fill="#90c073" fill-rule="evenodd" stroke="none"/>
      <path d="M5.0 3.65 Q5.55 4.35 5.55 4.85 5.55 6.0 4.25 6.0 3.15 6.0 2.6 4.35 L2.8 3.5 Q3.1 2.85 3.65 2.85 4.4 2.85 5.0 3.65" fill="#919191" fill-rule="evenodd" stroke="none"/>
      <path d="M1.6 18.25 Q7.2 24.95 19.25 24.6" ffdec:has-small-stroke="true" ffdec:original-stroke-width="0.3" fill="none" stroke="#1c371c" stroke-linecap="round" stroke-linejoin="round" stroke-width="1.0079521352219971"/>
      <path d="M35.15 18.25 Q29.9 24.8 17.5 24.6" ffdec:has-small-stroke="true" ffdec:original-stroke-width="0.3" fill="none" stroke="#1c371c" stroke-linecap="round" stroke-linejoin="round" stroke-width="1.0079521352219971"/>
      <path d="M9.35 14.5 Q9.75 17.75 19.95 17.85" ffdec:has-small-stroke="true" ffdec:original-stroke-width="0.3" fill="none" stroke="#1c371c" stroke-linecap="round" stroke-linejoin="round" stroke-width="1.0079521352219971"/>
      <path d="M19.95 17.85 Q26.9 17.45 29.7 13.9" ffdec:has-small-stroke="true" ffdec:original-stroke-width="0.3" fill="none" stroke="#1c371c" stroke-linecap="round" stroke-linejoin="round" stroke-width="1.0079521352219971"/>
      <path d="M5.8 3.35 L22.55 2.85" ffdec:has-small-stroke="true" ffdec:original-stroke-width="0.3" fill="none" stroke="#1c371c" stroke-linecap="round" stroke-linejoin="round" stroke-width="1.0079521352219971"/>
      <path d="M22.45 2.8 Q28.75 3.75 31.8 7.1" ffdec:has-small-stroke="true" ffdec:original-stroke-width="0.3" fill="none" stroke="#1c371c" stroke-linecap="round" stroke-linejoin="round" stroke-width="1.0079521352219971"/>
      <path d="M8.5 9.0 Q12.6 7.15 17.7 7.5" ffdec:has-small-stroke="true" ffdec:original-stroke-width="0.3" fill="none" stroke="#1c371c" stroke-linecap="round" stroke-linejoin="round" stroke-width="1.0079521352219971"/>
      <path d="M17.55 7.5 Q23.9 7.7 26.05 11.0" ffdec:has-small-stroke="true" ffdec:original-stroke-width="0.3" fill="none" stroke="#1c371c" stroke-linecap="round" stroke-linejoin="round" stroke-width="1.0079521352219971"/>
      <path d="M14.6 5.65 Q23.25 5.35 28.0 9.45" ffdec:has-small-stroke="true" ffdec:original-stroke-width="0.3" fill="none" stroke="#9dd39d" stroke-linecap="round" stroke-linejoin="round" stroke-width="1.0079521352219971"/>
      <path d="M19.6 0.95 Q29.4 1.6 33.7 6.7" ffdec:has-small-stroke="true" ffdec:original-stroke-width="0.3" fill="none" stroke="#9dd39d" stroke-linecap="round" stroke-linejoin="round" stroke-width="1.0079521352219971"/>
      <path d="M14.0 10.8 Q17.9 9.9 19.55 11.55" ffdec:has-small-stroke="true" ffdec:original-stroke-width="0.3" fill="none" stroke="#9dd39d" stroke-linecap="round" stroke-linejoin="round" stroke-width="1.0079521352219971"/>
      <path d="M5.85 19.15 Q10.7 23.3 22.6 22.35" ffdec:has-small-stroke="true" ffdec:original-stroke-width="0.3" fill="none" stroke="#5c9c5c" stroke-linecap="round" stroke-linejoin="round" stroke-width="1.0079521352219971"/>
      <path d="M12.35 14.75 Q13.1 17.0 23.2 15.7" ffdec:has-small-stroke="true" ffdec:original-stroke-width="0.3" fill="none" stroke="#5c9c5c" stroke-linecap="round" stroke-linejoin="round" stroke-width="1.0079521352219971"/>
      <path d="M5.25 2.3 Q10.25 0.6 17.35 0.85" ffdec:has-small-stroke="true" ffdec:original-stroke-width="0.3" fill="none" stroke="#5c9c5c" stroke-linecap="round" stroke-linejoin="round" stroke-width="1.0079521352219971"/>
      <path d="M25.55 21.8 Q32.85 19.7 33.85 15.4" ffdec:has-small-stroke="true" ffdec:original-stroke-width="0.3" fill="none" stroke="#5c9c5c" stroke-linecap="round" stroke-linejoin="round" stroke-width="1.0079521352219971"/>
      <path d="M3.45 10.4 Q6.1 6.95 11.75 6.0" ffdec:has-small-stroke="true" ffdec:original-stroke-width="0.3" fill="none" stroke="#5c9c5c" stroke-linecap="round" stroke-linejoin="round" stroke-width="1.0079521352219971"/>
      <path d="M5.85 4.1 L6.3 4.4 6.35 4.5 6.0 5.45 5.65 5.65 5.1 5.6 5.35 4.15 5.2 4.2 5.05 4.2 4.95 3.9 4.9 3.6 4.3 3.1 3.9 3.25 3.1 3.1 2.7 2.8 Q3.55 1.85 4.8 1.7 6.2 2.15 6.35 2.9 6.45 3.6 5.85 4.1" fill="#ff0000" fill-rule="evenodd" stroke="none"/>
    </g>
  </defs>
</svg>
