<?xml version="1.0" encoding="UTF-8" standalone="no"?>
<svg xmlns:ffdec="https://www.free-decompiler.com/flash" xmlns:xlink="http://www.w3.org/1999/xlink" ffdec:objectType="frame" height="35.2px" width="36.65px" xmlns="http://www.w3.org/2000/svg">
  <g transform="matrix(1.0, 0.0, 0.0, 1.0, 0.55, 39.1)">
    <use ffdec:characterId="2" height="34.2" transform="matrix(1.0292, 0.0, 0.0, 1.0292, -0.15, -39.1)" width="35.65" xlink:href="#sprite0"/>
    <use ffdec:characterId="4" height="13.6" transform="matrix(1.2054, 0.0, 0.0, 1.2054, 16.0, -36.65)" width="14.75" xlink:href="#sprite1"/>
  </g>
  <defs>
    <g id="sprite0">
      <use ffdec:characterId="1" height="34.2" transform="matrix(1.0, 0.0, 0.0, 1.0, 0.0, 0.0)" width="35.65" xlink:href="#shape0"/>
    </g>
    <g id="shape0">
      <path d="M25.6 3.9 L26.1 4.8 Q27.15 6.5 27.35 8.65 L26.8 10.4 26.25 8.6 Q25.8 6.95 24.95 5.5 L24.6 7.75 23.35 5.15 23.3 5.1 22.5 5.45 21.0 4.35 20.05 6.35 18.2 9.2 18.65 7.05 18.7 5.15 18.6 5.15 18.55 5.05 18.45 4.9 18.3 4.55 18.1 4.0 18.0 4.8 17.55 8.3 Q17.4 9.5 16.65 10.4 L16.25 8.4 Q15.9 6.7 14.5 5.25 13.05 3.75 11.8 3.45 L11.65 6.8 10.25 5.3 9.85 5.45 9.8 5.6 9.8 5.7 9.8 5.8 9.15 5.45 8.0 5.65 Q7.6 6.7 7.55 7.8 L7.45 9.6 5.9 7.5 5.7 10.1 Q5.55 11.9 5.65 13.6 L3.65 11.95 3.45 9.65 Q3.2 6.8 4.15 4.15 4.95 2.1 6.85 0.75 L9.35 1.25 10.5 1.6 Q12.95 2.6 15.0 4.2 L15.1 4.35 15.85 3.5 Q17.6 1.45 20.1 0.7 L20.75 0.55 23.3 1.7 25.6 3.9 M28.65 11.1 Q31.6 11.4 33.55 13.8 35.45 16.15 34.55 18.55 33.65 20.9 32.05 21.85 L28.85 21.6 29.65 21.55 29.95 21.05 29.85 21.05 29.65 20.95 29.6 20.85 29.75 20.7 30.05 20.6 Q31.2 20.6 31.65 19.45 29.85 19.55 28.35 18.6 L28.2 18.2 Q30.25 18.3 32.05 17.0 L31.3 16.8 30.85 16.35 32.3 15.85 Q30.4 15.0 28.05 14.85 29.3 14.6 30.5 13.75 L26.6 13.85 27.0 13.25 Q27.85 11.95 28.65 11.1 M28.15 27.25 Q28.85 29.45 28.85 31.75 L28.85 32.75 Q26.7 33.85 24.35 33.85 21.9 33.8 19.9 32.35 18.45 31.35 17.5 29.85 L17.95 29.8 18.8 30.25 18.75 29.1 Q18.7 27.3 18.9 25.6 L19.7 28.1 Q20.4 30.05 21.6 31.75 22.6 31.85 23.5 31.2 L24.1 30.75 24.55 31.4 25.2 31.1 25.85 29.35 26.4 30.35 27.0 31.3 27.05 29.0 Q26.9 26.9 26.4 25.05 L28.15 27.25 M15.05 29.4 Q13.4 32.8 10.4 32.7 7.35 32.6 4.8 31.2 3.05 30.2 2.1 28.5 L1.9 28.1 1.3 27.4 0.9 26.15 0.65 24.95 0.5 23.5 Q0.5 21.75 1.85 19.55 L2.1 19.2 3.8 17.45 Q4.85 16.45 5.4 16.2 L5.7 16.1 5.95 16.4 5.7 16.65 4.8 17.6 Q3.55 19.0 3.2 20.45 L2.85 22.3 Q3.95 20.8 5.25 19.65 3.1 21.9 2.75 23.75 L2.7 24.2 2.65 25.15 2.85 26.25 4.65 24.7 4.05 27.4 4.6 27.3 5.1 27.0 5.35 28.75 Q8.1 28.95 9.8 26.25 9.95 27.4 9.65 28.35 L9.1 29.85 10.55 29.3 10.4 30.6 Q12.8 30.1 14.05 27.95 L14.85 26.55 15.05 29.4" fill="#fff195" fill-rule="evenodd" stroke="none"/>
      <path d="M27.35 8.65 L27.4 9.4 27.4 9.5 27.4 11.4 27.9 11.25 28.65 11.1 Q27.85 11.95 27.0 13.25 L26.6 13.85 30.5 13.75 Q29.3 14.6 28.05 14.85 30.4 15.0 32.3 15.85 L30.85 16.35 31.3 16.8 32.05 17.0 Q30.25 18.3 28.2 18.2 L28.05 17.6 Q27.8 16.45 26.7 15.85 25.45 15.1 24.05 14.85 26.2 12.85 25.9 10.65 L25.5 9.2 25.1 10.85 25.0 10.85 24.95 8.55 24.95 8.25 24.55 7.9 Q23.9 8.55 23.45 8.55 22.85 8.55 22.85 8.05 L22.85 7.35 22.75 7.3 Q21.75 8.2 21.15 8.4 L21.1 8.2 21.45 7.4 21.7 6.9 21.5 6.9 Q19.75 7.5 18.0 9.65 16.2 11.75 16.45 12.05 14.05 9.45 12.6 8.9 11.2 8.35 9.85 7.45 L9.45 8.7 9.4 8.65 9.4 8.8 7.7 7.0 7.75 10.15 6.9 9.95 7.15 11.35 6.3 11.7 6.95 14.25 Q7.6 16.5 8.8 17.8 L7.35 20.15 Q6.4 22.15 5.85 24.45 L7.4 23.9 7.05 25.8 10.1 24.2 10.2 25.75 13.85 25.4 Q16.0 24.8 17.1 22.95 L19.5 25.15 22.4 27.7 23.2 26.65 24.7 26.95 24.65 25.95 25.8 23.8 24.15 20.45 24.55 20.45 24.75 20.6 25.2 20.8 25.45 20.85 25.5 20.9 26.05 21.25 26.6 21.5 28.25 21.75 29.05 21.25 30.5 19.7 29.1 19.65 28.35 18.75 28.35 18.6 Q29.85 19.55 31.65 19.45 31.2 20.6 30.05 20.6 L29.75 20.7 29.6 20.85 29.65 20.95 29.85 21.05 29.95 21.05 29.65 21.55 28.85 21.6 32.05 21.85 Q30.6 23.0 29.0 23.35 L27.7 23.35 26.25 22.75 26.8 23.65 27.55 25.0 27.95 26.35 28.15 27.25 26.4 25.05 Q26.9 26.9 27.05 29.0 L27.0 31.3 26.4 30.35 25.85 29.35 25.2 31.1 24.55 31.4 24.1 30.75 23.5 31.2 Q22.6 31.85 21.6 31.75 20.4 30.05 19.7 28.1 L18.9 25.6 Q18.7 27.3 18.75 29.1 L18.8 30.25 17.95 29.8 17.5 29.85 17.35 29.25 16.85 26.3 15.75 28.15 15.05 29.4 14.85 26.55 14.05 27.95 Q12.8 30.1 10.4 30.6 L10.55 29.3 9.1 29.85 9.65 28.35 Q9.95 27.4 9.8 26.25 8.1 28.95 5.35 28.75 L5.1 27.0 4.6 27.3 4.05 27.4 4.65 24.7 2.85 26.25 2.65 25.15 2.7 24.2 2.75 23.75 Q3.1 21.9 5.25 19.65 3.95 20.8 2.85 22.3 L3.2 20.45 Q3.55 19.0 4.8 17.6 L5.7 16.65 5.95 16.4 5.7 16.1 5.4 16.2 4.1 13.9 Q3.8 13.4 3.65 11.95 L5.65 13.6 Q5.55 11.9 5.7 10.1 L5.9 7.5 7.45 9.6 7.55 7.8 Q7.6 6.7 8.0 5.65 L9.15 5.45 9.8 5.8 9.8 5.7 9.8 5.6 9.85 5.45 10.25 5.3 11.65 6.8 11.8 3.45 Q13.05 3.75 14.5 5.25 15.9 6.7 16.25 8.4 L16.65 10.4 Q17.4 9.5 17.55 8.3 L18.0 4.8 18.1 4.0 18.3 4.55 18.45 4.9 18.55 5.05 18.6 5.15 18.7 5.15 18.65 7.05 18.2 9.2 20.05 6.35 21.0 4.35 22.5 5.45 23.3 5.1 23.35 5.15 24.6 7.75 24.95 5.5 Q25.8 6.95 26.25 8.6 L26.8 10.4 27.35 8.65 M9.35 1.25 L9.0 0.95 Q9.0 0.75 9.4 0.75 10.25 0.75 11.05 1.35 L11.55 1.75 12.2 2.1 14.65 3.7 15.0 4.2 Q12.95 2.6 10.5 1.6 L9.35 1.25 M15.1 4.35 L15.65 3.5 16.6 2.4 17.4 1.5 Q18.05 1.0 19.4 0.75 L20.1 0.7 Q17.6 1.45 15.85 3.5 L15.1 4.35 M23.3 1.7 Q25.2 2.75 25.6 3.9 L23.3 1.7" fill="#ffde00" fill-rule="evenodd" stroke="none"/>
      <path d="M9.45 8.7 L9.85 7.45 Q11.2 8.35 12.6 8.9 14.05 9.45 16.45 12.05 16.2 11.75 18.0 9.65 19.75 7.5 21.5 6.9 L21.7 6.9 21.45 7.4 21.1 8.2 21.15 8.4 Q21.75 8.2 22.75 7.3 L22.85 7.35 22.85 8.05 Q22.85 8.55 23.45 8.55 23.9 8.55 24.55 7.9 L24.95 8.25 24.95 8.55 25.0 10.85 25.1 10.85 25.5 9.2 25.9 10.65 Q26.2 12.85 24.05 14.85 25.45 15.1 26.7 15.85 27.8 16.45 28.05 17.6 L28.2 18.2 28.35 18.6 28.35 18.75 29.1 19.65 30.5 19.7 29.05 21.25 28.25 21.75 26.6 21.5 26.05 21.25 25.5 20.9 25.45 20.85 25.2 20.8 24.75 20.6 24.55 20.45 24.15 20.45 25.8 23.8 24.65 25.95 24.7 26.95 23.2 26.65 22.4 27.7 19.5 25.15 17.1 22.95 Q16.0 24.8 13.85 25.4 L10.2 25.75 10.1 24.2 7.05 25.8 7.4 23.9 5.85 24.45 Q6.4 22.15 7.35 20.15 L8.8 17.8 Q7.6 16.5 6.95 14.25 L6.3 11.7 7.15 11.35 6.9 9.95 7.75 10.15 7.7 7.0 9.4 8.8 9.45 8.7 M21.35 12.2 L20.4 9.8 19.65 11.3 18.75 12.85 18.1 13.5 15.6 15.7 15.2 14.85 13.55 12.8 Q12.8 12.0 11.9 11.6 L11.9 11.8 12.55 12.7 11.0 11.75 11.3 12.5 11.7 13.6 12.0 13.9 Q12.3 14.2 12.25 14.65 L11.1 13.45 11.5 14.7 8.65 12.8 8.65 13.9 9.15 15.1 Q10.05 16.7 11.6 18.05 L10.65 18.65 10.2 19.05 Q9.4 19.95 10.1 20.85 L11.65 20.45 10.45 22.15 11.5 22.2 11.6 22.1 12.9 21.45 11.5 22.8 Q12.6 22.15 13.8 21.55 L14.75 21.5 15.0 21.85 15.1 22.1 16.2 21.45 16.75 21.05 17.5 20.15 18.45 21.85 19.5 23.2 Q20.45 24.3 22.1 24.65 L21.4 22.35 22.9 24.0 23.45 22.95 22.35 21.65 22.85 21.9 23.3 22.3 23.8 22.1 23.6 21.65 23.5 20.9 Q22.95 19.35 21.65 18.4 L26.55 19.4 26.05 18.95 25.4 18.6 Q24.65 18.15 23.65 18.05 L24.95 18.15 25.7 18.2 26.55 18.1 26.6 18.1 26.8 18.05 26.55 17.9 26.5 17.9 23.9 16.9 25.45 16.55 23.9 16.0 21.8 15.85 21.75 15.65 23.05 14.25 23.65 13.2 Q24.15 12.5 23.6 12.0 L22.85 13.2 22.75 13.3 22.95 12.6 23.2 11.75 Q23.5 11.3 22.95 10.85 L22.85 11.0 22.0 11.7 21.35 12.2" fill="#ffbe00" fill-rule="evenodd" stroke="none"/>
      <path d="M21.35 12.2 L22.0 11.7 22.85 11.0 22.95 10.85 Q23.5 11.3 23.2 11.75 L22.95 12.6 22.75 13.3 22.85 13.2 23.6 12.0 Q24.15 12.5 23.65 13.2 L23.05 14.25 21.75 15.65 21.8 15.85 23.9 16.0 25.45 16.55 23.9 16.9 26.5 17.9 26.55 17.9 26.8 18.05 26.6 18.1 26.55 18.1 25.7 18.2 24.95 18.15 23.65 18.05 Q24.65 18.15 25.4 18.6 L26.05 18.95 26.55 19.4 21.65 18.4 Q22.95 19.35 23.5 20.9 L23.6 21.65 23.8 22.1 23.3 22.3 22.85 21.9 22.35 21.65 23.45 22.95 22.9 24.0 21.4 22.35 22.1 24.65 Q20.45 24.3 19.5 23.2 L18.45 21.85 17.5 20.15 16.75 21.05 16.2 21.45 15.1 22.1 15.0 21.85 14.75 21.5 13.8 21.55 Q12.6 22.15 11.5 22.8 L12.9 21.45 11.6 22.1 11.5 22.2 10.45 22.15 11.65 20.45 10.1 20.85 Q9.4 19.95 10.2 19.05 L10.65 18.65 11.6 18.05 Q10.05 16.7 9.15 15.1 L8.65 13.9 8.65 12.8 11.5 14.7 11.1 13.45 12.25 14.65 Q12.3 14.2 12.0 13.9 L11.7 13.6 11.3 12.5 11.0 11.75 12.55 12.7 11.9 11.8 11.9 11.6 Q12.8 12.0 13.55 12.8 L15.2 14.85 15.6 15.7 18.1 13.5 18.75 12.85 19.65 11.3 20.4 9.8 21.35 12.2 M17.5 18.6 L19.95 20.65 20.8 19.75 20.8 18.95 20.1 18.0 21.1 18.0 21.9 17.5 22.05 17.55 22.0 17.4 21.3 16.85 20.2 16.8 19.5 16.7 20.45 16.2 21.35 15.65 21.15 13.8 19.5 13.3 18.95 14.05 16.2 16.55 15.95 16.45 Q15.25 15.85 14.85 15.85 L14.65 15.85 13.75 15.0 13.2 15.7 12.95 16.05 12.2 16.15 11.65 16.2 11.3 16.45 11.25 16.8 11.35 17.2 11.6 17.45 11.9 17.75 12.65 18.2 11.85 19.25 12.3 19.65 13.4 19.7 13.35 19.95 13.95 20.55 15.85 19.65 16.7 19.05 17.35 18.7 17.5 18.6" fill="#f45fa6" fill-rule="evenodd" stroke="none"/>
      <path d="M16.2 16.55 L18.95 14.05 19.5 13.3 21.15 13.8 21.35 15.65 20.45 16.2 19.5 16.7 20.2 16.8 21.3 16.85 22.0 17.4 22.05 17.55 21.9 17.5 21.1 18.0 20.1 18.0 20.8 18.95 20.8 19.75 19.95 20.65 17.5 18.6 Q17.8 18.35 18.05 18.3 19.9 18.05 19.9 17.5 19.9 17.0 19.05 16.9 L19.05 16.15 Q18.95 15.6 18.25 15.7 17.85 15.75 17.35 16.35 L16.7 16.9 16.2 16.55 M16.7 19.05 L15.85 19.65 13.95 20.55 13.35 19.95 13.4 19.7 12.3 19.65 11.85 19.25 12.65 18.2 11.9 17.75 11.6 17.45 11.35 17.2 11.25 16.8 11.3 16.45 11.65 16.2 12.2 16.15 12.95 16.05 13.2 15.7 13.75 15.0 14.65 15.85 Q14.1 15.95 13.55 16.55 L13.1 17.45 Q13.1 18.4 15.9 18.6 L16.1 18.95 16.6 19.05 16.7 19.05" fill="#e21275" fill-rule="evenodd" stroke="none"/>
      <path d="M16.2 16.55 L16.7 16.9 17.35 16.35 Q17.85 15.75 18.25 15.7 18.95 15.6 19.05 16.15 L19.05 16.9 Q19.9 17.0 19.9 17.5 19.9 18.05 18.05 18.3 17.8 18.35 17.5 18.6 L17.35 18.7 16.7 19.05 16.6 19.05 16.1 18.95 15.9 18.6 Q13.1 18.4 13.1 17.45 L13.55 16.55 Q14.1 15.95 14.65 15.85 L14.85 15.85 Q15.25 15.85 15.95 16.45 L16.2 16.55" fill="#990049" fill-rule="evenodd" stroke="none"/>
      <path d="M25.4 2.95 Q27.85 5.55 28.1 10.2 L31.65 11.85 Q34.8 13.35 35.2 16.15 35.6 18.95 33.45 22.05 31.25 25.1 27.4 23.7 L28.75 26.4 Q29.45 27.95 29.55 30.4 29.65 32.85 28.65 33.55 27.6 34.2 24.3 34.2 21.0 34.15 19.2 33.0 16.85 31.45 16.45 27.85 L16.45 27.8 16.6 27.35 Q17.1 25.85 17.7 20.2 L18.15 22.25 Q16.15 28.75 18.8 31.15 21.4 33.5 24.4 33.5 L28.55 32.6 28.5 30.3 Q28.1 26.2 26.0 23.15 24.25 20.65 20.8 18.25 L22.5 19.0 28.95 23.1 Q30.55 23.1 32.35 21.3 34.45 19.25 34.45 16.65 34.45 15.3 32.6 13.65 30.6 11.85 28.35 11.85 26.35 11.85 25.25 13.9 24.0 16.05 20.15 16.4 L19.0 16.25 20.0 16.15 Q21.2 16.1 24.1 13.9 27.25 11.55 27.25 9.95 27.25 6.75 25.1 3.95 22.85 1.0 20.1 1.0 18.45 1.0 17.5 1.95 L15.25 4.55 Q9.5 0.05 6.45 1.55 3.8 2.85 3.8 8.2 3.8 12.9 5.95 16.5 4.45 17.35 3.3 18.45 0.95 22.4 0.95 23.85 0.95 26.8 2.65 28.9 5.2 32.05 11.1 32.05 13.2 32.05 16.45 27.85 15.1 31.4 13.55 32.15 12.0 32.9 8.75 32.95 5.5 33.0 2.6 30.2 -0.35 27.35 -0.4 24.5 -0.45 21.6 0.45 20.1 1.35 18.6 2.35 17.95 L4.65 16.0 3.8 14.1 Q2.9 11.9 2.9 9.45 2.9 0.3 7.3 0.0 10.25 -0.2 14.95 3.7 15.65 0.55 19.25 0.15 22.9 0.35 25.4 2.95" fill="#3f2e0a" fill-rule="evenodd" stroke="none"/>
      <path d="M16.6 10.0 L16.5 7.3 17.4 10.65 Q17.8 12.6 16.95 14.3 L16.4 14.5 16.35 14.55 16.4 13.75 16.55 11.55 16.6 10.0 M10.55 18.8 Q8.8 18.25 7.65 17.05 L12.0 17.8 Q13.85 17.95 13.05 18.65 L10.55 18.8" fill="#b50083" fill-rule="evenodd" stroke="none"/>
      <path d="M23.75 21.85 L24.5 22.6 Q25.9 24.7 27.75 30.45 L27.6 31.35 27.25 31.6 27.1 31.45 25.55 26.0 Q24.45 22.6 23.75 21.85" fill="#fff7e4" fill-rule="evenodd" stroke="none"/>
      <path d="M22.55 24.1 L23.35 25.05 Q24.4 27.3 24.4 29.5 L23.9 27.8 22.55 24.1" fill="#fff7e4" fill-rule="evenodd" stroke="none"/>
      <path d="M19.55 22.8 L19.7 22.9 Q21.65 28.4 21.65 29.7 L21.55 30.6 21.2 31.15 Q21.25 29.6 19.45 22.95 L19.55 22.8" fill="#fff7e4" fill-rule="evenodd" stroke="none"/>
      <path d="M34.05 16.55 Q33.25 17.3 31.9 17.85 L28.95 18.5 26.75 18.1 25.5 17.4 30.15 17.0 34.05 16.55" fill="#fff7e4" fill-rule="evenodd" stroke="none"/>
      <path d="M30.45 15.5 Q28.8 16.1 27.65 16.1 L26.65 16.0 26.2 15.85 26.2 15.5 28.45 15.55 31.35 14.95 30.45 15.5" fill="#fff7e4" fill-rule="evenodd" stroke="none"/>
      <path d="M27.2 19.85 L27.25 19.85 29.1 20.1 30.0 20.1 29.8 20.6 28.85 20.7 Q27.5 20.7 27.2 19.85" fill="#fff7e4" fill-rule="evenodd" stroke="none"/>
      <path d="M23.45 6.0 Q23.45 4.7 23.05 3.75 23.9 5.65 23.65 8.05 23.35 10.5 22.0 12.3 23.5 8.7 23.45 6.0" fill="#fff7e4" fill-rule="evenodd" stroke="none"/>
      <path d="M21.9 6.3 L21.95 6.9 Q21.95 8.15 21.45 9.85 L20.3 12.35 21.0 9.15 21.6 5.85 21.9 6.3" fill="#fff7e4" fill-rule="evenodd" stroke="none"/>
      <path d="M20.3 8.65 Q21.0 5.45 20.35 3.8 L20.5 4.2 Q21.2 6.3 20.55 9.4 19.85 12.8 17.95 14.7 L18.45 14.05 Q19.7 11.35 20.3 8.65" fill="#fff7e4" fill-rule="evenodd" stroke="none"/>
      <path d="M24.75 10.35 L25.75 7.75 Q25.7 9.0 24.8 10.95 23.95 12.95 23.1 13.65 L24.75 10.35" fill="#fff7e4" fill-rule="evenodd" stroke="none"/>
      <path d="M7.95 2.55 Q7.05 0.05 13.15 11.2 L11.35 8.55 Q9.5 5.65 7.95 2.55" fill="#fff7e4" fill-rule="evenodd" stroke="none"/>
      <path d="M11.3 3.45 L12.2 4.4 Q13.15 5.15 14.35 8.0 15.55 10.7 15.7 12.2 L15.65 12.5 15.25 11.7 11.3 3.45" fill="#fff7e4" fill-rule="evenodd" stroke="none"/>
      <path d="M8.6 10.1 L7.45 8.1 8.3 9.5 Q9.55 11.5 11.0 12.45 L10.95 12.5 Q9.55 11.5 8.6 10.1" fill="#fff7e4" fill-rule="evenodd" stroke="none"/>
      <path d="M7.25 14.4 Q5.3 13.0 4.35 11.6 5.1 12.2 7.2 13.65 L10.3 15.7 9.95 15.85 Q8.95 15.6 7.25 14.4" fill="#fff7e4" fill-rule="evenodd" stroke="none"/>
      <path d="M5.15 28.7 Q5.25 28.15 7.4 25.25 L7.15 25.65 Q5.5 28.15 5.1 29.7 L5.15 28.7" fill="#fff7e4" fill-rule="evenodd" stroke="none"/>
      <path d="M13.05 23.6 Q12.6 24.05 8.45 30.45 L8.4 30.45 Q8.6 28.8 9.85 26.9 11.1 25.1 13.05 23.6" fill="#fff7e4" fill-rule="evenodd" stroke="none"/>
      <path d="M13.7 27.6 L16.2 23.05 15.35 25.3 13.7 27.6" fill="#fff7e4" fill-rule="evenodd" stroke="none"/>
      <path d="M8.75 20.2 L6.95 21.9 4.5 24.65 4.45 24.6 4.65 24.3 Q5.05 23.6 6.35 22.25 L8.75 20.2" fill="#fff7e4" fill-rule="evenodd" stroke="none"/>
      <path d="M7.05 19.55 L5.55 20.9 5.4 20.9 Q6.1 19.85 6.95 19.4 L7.05 19.55" fill="#fff7e4" fill-rule="evenodd" stroke="none"/>
    </g>
    <g id="sprite1">
      <use ffdec:characterId="3" height="13.6" transform="matrix(1.0, 0.0, 0.0, 1.0, 0.0, 0.0)" width="14.75" xlink:href="#shape1"/>
    </g>
    <g id="shape1">
      <path d="M6.75 7.95 L7.5 7.25 8.7 6.05 9.75 4.75 10.6 3.3 Q11.1 2.5 11.4 2.55 L11.65 3.2 Q11.65 4.9 9.0 7.95 7.05 8.95 6.75 7.95" fill="#ffdb00" fill-rule="evenodd" stroke="none"/>
      <path d="M2.25 13.15 L1.25 13.05 0.85 12.6 Q0.25 11.95 1.05 11.9 L3.9 10.95 6.4 9.35 5.7 10.15 2.25 13.15" fill="#e21275" fill-rule="evenodd" stroke="none"/>
      <path d="M9.0 7.95 L7.75 9.3 Q3.95 13.25 2.5 13.25 L2.25 13.15 5.7 10.15 6.4 9.35 3.9 10.95 1.05 11.9 2.65 11.0 4.65 9.75 6.75 7.95 Q7.05 8.95 9.0 7.95" fill="#ffbe00" fill-rule="evenodd" stroke="none"/>
      <path d="M5.6 10.95 L9.35 7.3 Q12.4 3.95 11.2 2.7 L10.7 3.35 Q9.1 6.2 6.0 8.8 L3.65 10.5 3.65 10.05 6.7 7.8 Q9.4 5.45 10.7 2.15 L11.6 2.35 11.95 2.65 Q12.2 2.9 11.7 4.65 11.15 6.35 8.6 9.05 L6.55 10.95 5.6 10.95" fill="#65490e" fill-rule="evenodd" stroke="none"/>
      <path d="M5.6 10.95 L6.55 10.95 2.8 13.6 2.15 13.3 Q2.9 12.7 4.6 11.65 L5.6 10.95 M3.65 10.05 L3.65 10.5 Q1.8 11.65 0.0 12.1 1.0 11.55 1.55 11.3 L3.65 10.05" fill="#6f0035" fill-rule="evenodd" stroke="none"/>
      <path d="M7.85 0.55 L8.55 0.3 Q9.0 0.3 9.25 0.55 L9.55 1.3 9.25 2.0 Q8.95 2.3 8.55 2.3 L7.8 2.0 Q7.55 1.75 7.55 1.3 7.55 0.9 7.8 0.6 L7.85 0.55" fill="#ffdb00" fill-rule="evenodd" stroke="none"/>
      <path d="M9.5 2.2 L9.45 2.25 Q9.1 2.6 8.55 2.6 8.0 2.6 7.6 2.2 7.25 1.85 7.25 1.3 7.25 0.75 7.6 0.35 8.0 0.0 8.55 0.0 9.1 0.0 9.45 0.35 9.85 0.75 9.85 1.3 L9.5 2.2 M7.85 0.55 L7.8 0.6 Q7.55 0.9 7.55 1.3 7.55 1.75 7.8 2.0 L8.55 2.3 Q8.95 2.3 9.25 2.0 L9.55 1.3 9.25 0.55 Q9.0 0.3 8.55 0.3 L7.85 0.55" fill="#e57800" fill-rule="evenodd" stroke="none"/>
      <path d="M13.0 1.25 L12.75 1.85 12.15 2.1 11.55 1.85 11.3 1.25 Q11.3 0.9 11.55 0.65 L12.15 0.4 12.75 0.65 13.0 1.25" fill="#ffdb00" fill-rule="evenodd" stroke="none"/>
      <path d="M12.95 0.45 L13.3 1.25 12.95 2.05 Q12.6 2.4 12.15 2.4 11.7 2.4 11.35 2.05 11.0 1.7 11.0 1.25 11.0 0.8 11.35 0.45 11.7 0.1 12.15 0.1 12.6 0.1 12.95 0.45 M13.0 1.25 L12.75 0.65 12.15 0.4 11.55 0.65 Q11.3 0.9 11.3 1.25 L11.55 1.85 12.15 2.1 12.75 1.85 13.0 1.25" fill="#e57800" fill-rule="evenodd" stroke="none"/>
      <path d="M13.75 4.85 L13.95 5.35 13.75 5.85 13.25 6.05 Q12.95 6.05 12.75 5.85 L12.55 5.35 12.75 4.85 13.25 4.65 13.75 4.85" fill="#ffdb00" fill-rule="evenodd" stroke="none"/>
      <path d="M13.25 4.35 L13.95 4.65 14.25 5.35 13.95 6.05 13.25 6.35 Q12.85 6.35 12.55 6.05 12.25 5.75 12.25 5.35 12.25 4.95 12.55 4.65 12.85 4.35 13.25 4.35 M13.75 4.85 L13.25 4.65 12.75 4.85 12.55 5.35 12.75 5.85 Q12.95 6.05 13.25 6.05 L13.75 5.85 13.95 5.35 13.75 4.85" fill="#e57800" fill-rule="evenodd" stroke="none"/>
      <path d="M13.5 2.95 Q13.65 2.8 13.9 2.8 14.15 2.8 14.3 2.95 L14.45 3.35 14.3 3.75 13.9 3.9 13.5 3.75 13.35 3.35 Q13.35 3.1 13.5 2.95" fill="#ffdb00" fill-rule="evenodd" stroke="none"/>
      <path d="M13.3 2.75 Q13.55 2.5 13.9 2.5 L14.5 2.75 14.75 3.35 14.5 3.95 13.9 4.2 13.3 3.95 13.05 3.35 13.3 2.75 M13.5 2.95 Q13.35 3.1 13.35 3.35 L13.5 3.75 13.9 3.9 14.3 3.75 14.45 3.35 14.3 2.95 Q14.15 2.8 13.9 2.8 13.65 2.8 13.5 2.95" fill="#e57800" fill-rule="evenodd" stroke="none"/>
      <path d="M7.45 3.85 Q7.65 3.7 7.9 3.7 L8.35 3.85 8.55 4.35 8.35 4.8 Q8.15 5.0 7.9 5.0 L7.4 4.8 7.25 4.35 7.4 3.9 7.45 3.85" fill="#ffdb00" fill-rule="evenodd" stroke="none"/>
      <path d="M7.45 3.85 L7.4 3.9 7.25 4.35 7.4 4.8 7.9 5.0 Q8.15 5.0 8.35 4.8 L8.55 4.35 8.35 3.85 7.9 3.7 Q7.65 3.7 7.45 3.85 M7.2 3.65 L7.9 3.4 8.55 3.65 8.85 4.35 8.6 5.0 8.55 5.05 7.9 5.3 Q7.5 5.3 7.2 5.0 L6.95 4.35 Q6.95 3.95 7.2 3.65" fill="#e57800" fill-rule="evenodd" stroke="none"/>
      <path d="M11.2 6.2 L11.4 6.7 11.2 7.15 10.75 7.35 Q10.45 7.35 10.25 7.15 L10.1 6.7 10.25 6.25 10.3 6.2 Q10.5 6.05 10.75 6.05 L11.2 6.2" fill="#ffdb00" fill-rule="evenodd" stroke="none"/>
      <path d="M10.75 5.75 Q11.15 5.75 11.4 6.0 L11.7 6.7 11.45 7.35 11.4 7.4 10.75 7.65 10.05 7.35 Q9.8 7.1 9.8 6.7 9.8 6.3 10.05 6.0 10.35 5.75 10.75 5.75 M11.2 6.2 L10.75 6.05 Q10.5 6.05 10.3 6.2 L10.25 6.25 10.1 6.7 10.25 7.15 Q10.45 7.35 10.75 7.35 L11.2 7.15 11.4 6.7 11.2 6.2" fill="#e57800" fill-rule="evenodd" stroke="none"/>
    </g>
  </defs>
</svg>
