<?xml version="1.0" encoding="UTF-8" standalone="no"?>
<svg xmlns:ffdec="https://www.free-decompiler.com/flash" xmlns:xlink="http://www.w3.org/1999/xlink" ffdec:objectType="frame" height="31.45px" width="26.85px" xmlns="http://www.w3.org/2000/svg">
  <g transform="matrix(1.0, 0.0, 0.0, 1.0, 14.2, 41.3)">
    <use ffdec:characterId="9" height="25.25" transform="matrix(1.0, 0.0, 0.0, 1.0, -0.3, -22.45)" width="23.35" xlink:href="#sprite0"/>
    <use ffdec:characterId="6" height="22.3" transform="matrix(0.8542, 0.0, 0.0, 0.8542, -10.1, -31.8)" width="9.55" xlink:href="#sprite1"/>
    <use ffdec:characterId="6" height="22.3" transform="matrix(-0.8437, 0.0, 0.0, 0.8438, 8.6, -31.85)" width="9.55" xlink:href="#sprite1"/>
    <use ffdec:characterId="4" height="1.9" transform="matrix(1.3362, 0.0, 0.0, 1.3362, -5.15, -16.75)" width="2.0" xlink:href="#sprite2"/>
    <use ffdec:characterId="4" height="1.9" transform="matrix(1.3362, 0.0, 0.0, 1.3362, 4.15, -16.85)" width="2.0" xlink:href="#sprite2"/>
  </g>
  <defs>
    <g id="sprite0">
      <use ffdec:characterId="8" height="25.25" transform="matrix(1.0, 0.0, 0.0, 1.0, 0.0, 0.0)" width="23.35" xlink:href="#shape0"/>
    </g>
    <g id="shape0">
      <path d="M11.0 -3.9 Q10.95 -1.9 10.1 -0.15 8.85 2.55 6.6 4.3 4.55 5.9 2.0 6.7 -0.7 7.45 -3.4 6.75 -6.1 5.9 -8.2 4.15 -10.45 2.3 -11.15 -0.45 -11.2 -3.0 -10.2 -5.35 -9.2 -7.7 -6.9 -9.65 -4.65 -11.65 -1.75 -12.2 1.1 -12.75 3.55 -11.7 5.95 -10.65 7.95 -8.7 9.95 -6.75 11.0 -3.9" fill="#fefeff" fill-rule="evenodd" stroke="none"/>
      <path d="M11.0 -3.9 L11.45 -1.75 Q11.65 0.9 10.7 3.6 9.75 6.45 7.7 8.55 5.45 10.7 2.75 11.8 0.05 12.75 -2.85 11.75 -5.45 10.95 -7.3 9.0 -9.35 6.8 -10.4 3.85 -11.2 1.75 -11.15 -0.45 -10.45 2.3 -8.2 4.15 -6.1 5.9 -3.4 6.75 -0.7 7.45 2.0 6.7 4.55 5.9 6.6 4.3 8.85 2.55 10.1 -0.15 10.95 -1.9 11.0 -3.9" fill="#d8e5ff" fill-rule="evenodd" stroke="none"/>
      <path d="M8.85 -7.4 Q7.2 -9.4 4.95 -10.75 2.9 -12.05 0.35 -12.15 -2.05 -12.3 -4.35 -11.15 -7.1 -9.9 -8.75 -7.45 -10.5 -4.95 -10.75 -1.95 -11.05 1.05 -10.05 3.8 -9.0 6.7 -7.0 8.85 -5.2 10.75 -2.7 11.55 0.15 12.55 2.8 11.6 5.4 10.55 7.6 8.4 9.6 6.35 10.55 3.55 11.45 0.9 11.25 -1.7 11.0 -4.3 9.5 -6.5 L8.85 -7.4 M6.8 -10.45 Q8.85 -8.95 10.2 -6.55 11.6 -4.1 11.65 -1.4 11.75 1.45 10.7 4.2 9.7 6.9 7.75 8.95 5.75 11.0 3.15 12.05 L-2.0 12.3 Q-4.7 11.5 -6.9 9.7 -9.05 7.85 -10.25 5.3 -11.35 2.85 -11.65 0.25 -11.9 -2.2 -11.0 -4.6 -9.9 -7.45 -7.95 -9.6 -6.1 -11.6 -3.3 -12.3 L1.4 -12.55 Q4.45 -12.1 6.8 -10.45" fill="#88a9c7" fill-rule="evenodd" stroke="none"/>
    </g>
    <g id="sprite1">
      <use ffdec:characterId="5" height="22.3" transform="matrix(1.0, 0.0, 0.0, 1.0, 0.0, 0.0)" width="9.55" xlink:href="#shape1"/>
    </g>
    <g id="shape1">
      <path d="M-3.95 -2.1 L-3.9 -1.85 -3.0 1.65 Q-2.4 3.45 -1.4 4.9 L-1.3 3.55 -1.05 4.15 -0.8 4.95 0.45 6.85 1.4 7.6 1.9 7.15 2.25 6.55 2.3 6.5 2.3 6.6 2.35 6.7 4.1 6.75 4.35 7.65 3.5 10.7 Q1.15 10.85 -0.25 9.6 L0.1 9.15 Q-1.7 7.85 -3.1 6.25 L-2.5 5.9 -3.6 3.8 Q-4.3 2.4 -4.5 0.9 L-4.05 0.7 Q-4.3 -0.35 -3.95 -2.1" fill="#42501d" fill-rule="evenodd" stroke="none"/>
      <path d="M-3.95 -2.1 L-2.8 -6.15 Q-2.55 -6.15 -2.5 -5.95 L-0.95 -8.4 0.65 -10.2 0.7 -7.15 1.2 -7.1 0.8 -0.5 2.05 -1.65 2.4 3.3 2.5 4.8 3.3 4.15 4.1 6.75 2.35 6.7 2.3 6.6 2.3 6.5 2.25 6.55 1.9 7.15 1.4 7.6 0.45 6.85 -0.8 4.95 -1.05 4.15 -1.3 3.55 -1.4 4.9 Q-2.4 3.45 -3.0 1.65 L-3.9 -1.85 -3.95 -2.1" fill="#718d2c" fill-rule="evenodd" stroke="none"/>
      <path d="M1.2 -7.2 L0.15 -6.8 0.65 -10.0 Q-1.75 -8.1 -2.45 -5.2 L-2.7 -6.1 -3.55 -3.5 Q-4.0 -2.15 -3.75 1.35 L-4.35 1.0 Q-3.4 3.95 -2.05 5.95 L-3.05 6.3 0.5 9.3 -0.15 9.6 Q1.7 10.8 3.35 10.5 L1.55 8.25 Q0.4 6.3 -0.3 4.15 -0.95 2.1 -1.05 -0.05 -1.15 -3.1 -0.55 -6.05 L-0.5 -2.8 -0.5 -0.25 Q-0.5 2.0 0.0 4.2 0.8 7.7 3.6 9.9 L4.1 8.55 3.35 4.25 2.4 4.95 2.1 -1.3 0.55 -0.15 1.2 -7.2 M0.6 -7.05 L1.7 -7.7 1.0 -0.9 2.5 -2.2 2.6 4.45 3.55 3.25 Q3.65 5.65 4.65 8.15 3.45 9.95 4.75 11.1 1.85 11.35 -0.7 9.65 L-0.1 9.2 -3.45 6.15 -2.55 5.75 Q-3.3 5.35 -4.05 3.55 -4.8 1.75 -4.8 -0.45 -4.25 1.2 -4.25 -1.05 -4.25 -3.35 -2.55 -6.9 L-2.25 -6.5 Q-1.45 -9.15 1.65 -11.15 L1.3 -10.9 Q1.3 -8.85 0.6 -7.05" fill="#272c1b" fill-rule="evenodd" stroke="none"/>
    </g>
    <g id="sprite2">
      <use ffdec:characterId="3" height="1.9" transform="matrix(1.0, 0.0, 0.0, 1.0, 0.0, 0.0)" width="2.0" xlink:href="#shape2"/>
    </g>
    <g id="shape2">
      <path d="M0.6 -0.4 Q0.6 -0.75 0.2 -0.75 -0.15 -0.75 -0.15 -0.4 -0.15 -0.05 0.3 -0.05 0.6 -0.05 0.6 -0.4 M0.15 0.95 Q-1.0 0.95 -1.0 -0.1 -1.0 -0.9 0.0 -0.95 1.0 -0.95 1.0 0.1 1.0 0.95 0.15 0.95" fill="#8a2924" fill-rule="evenodd" stroke="none"/>
      <path d="M0.6 -0.4 Q0.6 -0.05 0.3 -0.05 -0.15 -0.05 -0.15 -0.4 -0.15 -0.75 0.2 -0.75 0.6 -0.75 0.6 -0.4" fill="#ffffff" fill-rule="evenodd" stroke="none"/>
    </g>
  </defs>
</svg>
