<?xml version="1.0" encoding="UTF-8" standalone="no"?>
<svg xmlns:ffdec="https://www.free-decompiler.com/flash" xmlns:xlink="http://www.w3.org/1999/xlink" ffdec:objectType="frame" height="27.35px" width="43.85px" xmlns="http://www.w3.org/2000/svg">
  <g transform="matrix(1.0, 0.0, 0.0, 1.0, 22.9, 47.25)">
    <use ffdec:characterId="2" height="27.35" transform="matrix(1.0, 0.0, 0.0, 1.0, -22.9, -47.25)" width="43.85" xlink:href="#sprite0"/>
    <use ffdec:characterId="4" height="9.15" transform="matrix(1.0, 0.0, 0.0, 1.0, 5.85, -40.95)" width="9.0" xlink:href="#sprite1"/>
    <use ffdec:characterId="4" height="9.15" transform="matrix(0.7, 0.0, 0.0, 0.7, -4.7, -38.95)" width="9.0" xlink:href="#sprite1"/>
  </g>
  <defs>
    <g id="sprite0">
      <use ffdec:characterId="1" height="27.35" transform="matrix(1.0, 0.0, 0.0, 1.0, 0.0, 0.0)" width="43.85" xlink:href="#shape0"/>
    </g>
    <g id="shape0">
      <path d="M41.4 3.25 Q42.45 3.3 42.9 3.95 L43.15 4.7 Q43.15 5.25 42.55 5.75 41.95 6.25 41.9 7.0 L42.15 9.2 Q42.15 13.85 38.2 19.35 32.45 27.25 22.05 27.25 18.75 27.25 10.65 25.35 1.9 23.35 1.9 22.0 L3.15 19.35 3.7 20.05 Q5.9 20.45 7.7 19.45 L8.9 18.8 Q10.45 21.3 14.95 22.45 19.4 23.6 26.75 21.9 32.7 21.1 35.85 15.7 38.15 11.85 38.35 7.4 L41.35 4.15 41.4 3.25" fill="#682145" fill-rule="evenodd" stroke="none"/>
      <path d="M4.55 14.05 L4.7 13.6 Q5.15 12.35 6.4 10.75 L6.8 10.2 7.95 8.9 8.25 8.6 Q9.85 6.85 11.4 6.1 12.8 5.4 15.05 4.65 L18.9 3.4 Q21.9 2.45 29.3 2.75 L29.75 2.8 33.45 3.0 34.3 3.05 34.55 3.05 38.45 3.2 Q37.95 4.9 36.05 5.25 L34.9 5.55 Q32.5 15.3 22.15 16.95 16.45 17.9 11.35 15.3 9.85 14.6 8.45 13.7 6.6 15.0 4.55 14.05" fill="#e06734" fill-rule="evenodd" stroke="none"/>
      <path d="M41.4 3.25 L41.35 4.15 38.35 7.4 Q38.15 11.85 35.85 15.7 32.7 21.1 26.75 21.9 19.4 23.6 14.95 22.45 10.45 21.3 8.9 18.8 L7.7 19.45 Q5.9 20.45 3.7 20.05 L3.15 19.35 3.75 17.55 4.55 14.05 Q6.6 15.0 8.45 13.7 9.85 14.6 11.35 15.3 16.45 17.9 22.15 16.95 32.5 15.3 34.9 5.55 L36.05 5.25 Q37.95 4.9 38.45 3.2 L41.4 3.25" fill="#b74512" fill-rule="evenodd" stroke="none"/>
      <path d="M42.3 2.0 Q43.2 1.8 43.7 2.55 44.3 5.55 42.3 8.1 L41.95 8.5 Q42.5 14.2 39.7 19.05 38.2 21.55 35.9 23.2 30.9 26.75 24.85 27.25 L18.0 27.35 Q12.1 26.55 6.75 23.85 L5.6 22.8 5.6 22.55 Q8.45 23.2 11.7 24.3 18.0 26.5 24.5 25.65 L30.95 24.1 Q33.9 23.05 36.3 20.85 38.8 18.6 39.55 15.4 L40.95 8.1 Q41.05 7.45 41.5 6.85 42.45 5.45 42.1 3.8 39.0 5.15 35.7 4.5 L25.7 3.65 Q21.9 3.4 18.2 4.5 14.85 5.4 11.85 7.4 8.9 9.35 7.0 12.15 9.2 6.8 14.3 4.25 18.8 2.1 24.05 2.0 L31.7 2.3 39.75 2.7 42.3 2.0 M5.65 13.8 L6.4 13.35 6.45 14.15 1.95 22.65 4.75 22.7 5.1 23.05 4.6 23.8 Q1.95 24.8 0.0 22.7 2.5 19.65 3.9 15.7 4.55 14.55 5.65 13.8" fill="#100c0c" fill-rule="evenodd" stroke="none"/>
      <path d="M28.95 8.15 L26.9 7.5 24.1 6.3 Q26.5 5.35 29.3 5.15 33.1 4.95 32.6 7.2 32.45 8.0 31.1 8.25 L28.95 8.15 M16.7 11.55 Q14.4 13.85 13.35 14.2 L11.4 14.15 10.85 13.5 Q10.25 11.85 13.75 9.65 17.2 7.45 19.25 8.05 19.15 9.15 16.7 11.55" fill="#f8c35e" fill-rule="evenodd" stroke="none"/>
      <path d="M43.25 12.25 Q43.25 12.95 42.85 12.95 42.55 12.95 41.2 11.55 41.2 10.8 42.25 11.15 43.25 11.55 43.25 12.25 M36.75 2.1 L36.35 1.45 36.35 0.75 Q36.35 0.1 36.9 0.0 37.45 -0.05 37.45 0.75 37.45 2.0 36.75 2.1 M34.9 9.25 Q34.9 8.6 36.05 8.35 37.2 8.05 37.2 8.8 L36.35 9.45 35.5 9.85 Q34.85 9.85 34.9 9.25 M34.6 6.95 Q33.9 7.35 33.05 7.35 31.75 7.35 31.95 6.7 31.95 6.2 33.6 5.9 35.25 5.6 35.25 6.35 L34.6 6.95 M29.85 0.15 Q30.6 0.55 30.6 1.65 30.6 3.15 29.9 3.15 29.2 3.15 29.05 0.8 29.05 -0.25 29.85 0.15 M23.5 3.2 Q23.35 3.55 23.0 3.55 22.2 3.55 22.0 1.75 22.75 -0.6 23.2 1.05 L23.6 2.85 23.5 3.2 M29.5 11.35 Q29.5 10.4 30.65 10.0 31.75 9.55 31.75 10.6 L31.2 11.5 Q30.65 12.15 30.25 12.15 29.55 12.15 29.5 11.35 M21.85 15.5 L21.2 16.3 20.35 16.95 Q19.35 16.95 19.5 16.2 19.5 15.25 20.7 14.9 21.85 14.55 21.85 15.5 M21.65 11.15 Q20.8 11.15 20.3 10.4 19.95 9.85 19.95 9.45 19.95 8.3 21.0 9.35 L22.05 10.75 Q22.05 11.15 21.65 11.15 M29.8 20.1 L29.25 20.9 Q28.6 20.9 28.65 19.85 28.65 17.75 29.35 17.65 30.0 17.6 30.0 19.2 L29.8 20.1 M37.9 15.3 Q38.85 15.95 38.85 16.5 38.85 17.05 38.25 17.05 37.3 17.05 36.95 15.55 36.95 14.7 37.9 15.3 M33.55 18.6 L34.45 20.55 Q34.45 21.6 34.0 21.6 33.5 21.6 32.6 18.8 32.6 17.15 33.55 18.6 M21.75 24.8 Q21.4 25.7 20.9 25.7 20.1 25.7 20.2 24.85 20.2 23.9 21.15 23.15 22.05 22.4 22.05 23.75 L21.75 24.8 M15.75 5.45 L15.4 5.65 Q14.75 5.65 13.9 3.85 13.9 2.7 14.95 3.55 15.95 4.4 15.95 5.1 L15.75 5.45 M6.2 8.25 Q6.2 6.95 7.6 7.8 9.0 8.65 9.0 9.4 9.0 10.0 8.5 10.0 7.9 10.0 7.0 9.2 L6.2 8.25 M10.25 15.15 L9.7 16.2 Q9.1 17.0 8.5 17.0 7.65 17.0 7.75 16.1 7.75 15.35 9.0 14.75 10.25 14.2 10.25 15.15 M2.5 13.1 Q2.5 11.95 4.15 12.75 5.8 13.55 5.8 14.25 5.8 14.9 5.15 14.9 4.15 14.9 2.5 13.1 M7.95 22.2 Q7.4 22.7 6.85 22.7 6.0 22.7 6.0 22.1 6.0 21.45 7.25 20.65 8.5 19.85 8.5 21.35 L7.95 22.2 M14.75 11.85 L14.25 12.1 Q13.4 12.1 12.5 10.95 12.5 10.2 13.75 10.5 14.95 10.85 14.95 11.5 L14.75 11.85 M15.0 16.5 Q15.95 15.95 15.95 17.0 L15.5 17.95 14.75 18.8 Q13.95 18.8 14.05 18.0 14.05 17.0 15.0 16.5 M11.1 25.95 Q10.4 25.95 10.35 25.35 10.35 23.7 11.1 23.4 11.85 23.1 11.85 24.7 L11.8 25.45 Q11.65 25.95 11.1 25.95 M8.05 24.55 L7.35 25.2 Q6.65 25.2 6.7 24.6 6.7 23.9 7.6 23.35 8.45 22.85 8.45 23.75 L8.05 24.55" fill="#100c0c" fill-rule="evenodd" stroke="none"/>
    </g>
    <g id="sprite1">
      <use ffdec:characterId="3" height="9.15" transform="matrix(1.0, 0.0, 0.0, 1.0, 0.0, 0.0)" width="9.0" xlink:href="#shape1"/>
    </g>
    <g id="shape1">
      <path d="M7.4 4.95 Q7.7 3.8 7.0 2.75 6.25 1.8 4.95 1.6 3.75 1.45 2.8 2.15 1.8 2.85 1.6 4.15 1.6 5.3 2.15 6.25 2.8 7.35 4.15 7.55 5.3 7.7 6.25 6.85 7.35 6.25 7.4 4.95 M8.15 1.95 Q9.25 3.35 8.95 5.25 8.75 7.05 7.2 8.15 5.65 9.3 3.75 9.1 1.95 8.9 0.85 7.35 0.35 6.55 0.1 5.65 L0.05 3.9 0.1 3.65 Q0.55 1.95 1.8 0.85 3.35 -0.15 5.2 0.05 7.1 0.4 8.15 1.95" fill="#000000" fill-rule="evenodd" stroke="none"/>
      <path d="M7.4 4.95 Q7.35 6.25 6.25 6.85 5.3 7.7 4.15 7.55 2.8 7.35 2.15 6.25 1.6 5.3 1.6 4.15 1.8 2.85 2.8 2.15 3.75 1.45 4.95 1.6 6.25 1.8 7.0 2.75 7.7 3.8 7.4 4.95" fill="#ffffff" fill-rule="evenodd" stroke="none"/>
    </g>
  </defs>
</svg>
