<?xml version="1.0" encoding="UTF-8" standalone="no"?>
<svg xmlns:ffdec="https://www.free-decompiler.com/flash" xmlns:xlink="http://www.w3.org/1999/xlink" ffdec:objectType="frame" height="45.65px" width="61.4px" xmlns="http://www.w3.org/2000/svg">
  <g transform="matrix(1.0, 0.0, 0.0, 1.0, 30.55, 62.5)">
    <use ffdec:characterId="15" height="15.3" transform="matrix(1.0, 0.0, 0.0, 1.0, -20.7, -46.0)" width="39.35" xlink:href="#sprite0"/>
    <use ffdec:characterId="2" height="15.85" transform="matrix(1.0, 0.0, 0.0, 1.0, -30.55, -49.0)" width="22.6" xlink:href="#sprite1"/>
    <use ffdec:characterId="6" height="26.35" transform="matrix(-0.9966, 0.0819, 0.0819, 0.9966, 11.45, -56.5)" width="23.7" xlink:href="#sprite2"/>
    <use ffdec:characterId="8" height="25.15" transform="matrix(0.9945, 0.1045, -0.1045, 0.9945, -8.95, -62.5)" width="31.45" xlink:href="#sprite3"/>
    <use ffdec:characterId="8" height="25.15" transform="matrix(0.8527, 0.5223, -0.5223, 0.8527, 4.05, -60.6)" width="31.45" xlink:href="#sprite3"/>
    <use ffdec:characterId="2" height="15.85" transform="matrix(0.6255, -0.3221, 0.4579, 0.889, -30.4, -37.8)" width="22.6" xlink:href="#sprite1"/>
    <use ffdec:characterId="2" height="15.85" transform="matrix(0.7008, -0.062, 0.0881, 0.9961, -26.6, -43.9)" width="22.6" xlink:href="#sprite1"/>
    <use ffdec:characterId="6" height="26.35" transform="matrix(1.0, 0.0, 0.0, 1.0, -19.45, -53.6)" width="23.7" xlink:href="#sprite2"/>
    <use ffdec:characterId="10" height="18.7" transform="matrix(1.0, 0.0, 0.0, 1.0, -3.3, -48.0)" width="21.3" xlink:href="#sprite4"/>
    <use ffdec:characterId="12" height="19.5" transform="matrix(1.0, 0.0, 0.0, 1.0, -20.8, -36.35)" width="39.65" xlink:href="#sprite5"/>
  </g>
  <defs>
    <g id="sprite0">
      <use ffdec:characterId="14" height="15.3" transform="matrix(1.0, 0.0, 0.0, 1.0, 0.0, 0.0)" width="39.35" xlink:href="#shape0"/>
    </g>
    <g id="shape0">
      <path d="M18.55 3.25 L18.25 3.35 17.8 3.25 18.55 3.25" fill="#8e725a" fill-rule="evenodd" stroke="none"/>
      <path d="M14.0 3.05 L14.3 3.05 Q15.2 3.05 15.2 2.4 15.2 2.05 14.8 1.8 L14.65 1.75 17.4 1.85 Q19.95 2.05 20.5 2.6 L21.1 2.75 20.0 3.25 18.55 3.25 Q18.55 3.8 16.4 3.6 L14.0 3.05 M18.55 3.25 L17.8 3.25 18.25 3.35 18.55 3.25 M13.65 1.5 Q12.15 1.5 12.1 2.1 L11.95 2.0 Q12.15 1.55 12.9 1.5 L13.65 1.5 M3.55 10.6 Q3.9 10.45 4.15 9.35 L4.4 8.05 Q4.4 6.9 3.55 7.85 L3.35 8.1 Q3.75 7.05 4.75 6.0 6.4 4.15 6.4 6.0 5.15 7.25 4.8 8.3 L4.35 9.6 Q3.9 10.6 3.65 10.6 L3.55 10.6 M36.45 6.6 L37.1 9.0 36.9 9.8 36.4 10.4 Q35.55 10.4 34.7 6.4 34.45 5.1 33.75 3.7 L33.1 2.45 Q33.1 1.85 34.0 2.2 34.85 2.55 35.1 3.15 35.7 3.9 36.0 5.05 L35.6 4.8 Q34.7 4.4 34.7 5.4 L35.1 6.4 Q35.6 7.5 35.9 7.5 36.35 7.5 36.45 6.6" fill="#e5c686" fill-rule="evenodd" stroke="none"/>
      <path d="M14.65 1.75 L14.8 1.8 Q15.2 2.05 15.2 2.4 15.2 3.05 14.3 3.05 L14.0 3.05 12.6 2.7 12.1 2.15 12.1 2.1 Q12.15 1.5 13.65 1.5 L14.65 1.75 M3.35 8.1 L3.55 7.85 Q4.4 6.9 4.4 8.05 L4.15 9.35 Q3.9 10.45 3.55 10.6 L3.4 10.6 Q2.5 10.6 2.7 9.6 2.7 8.85 3.35 8.1 M36.0 5.05 Q36.45 5.5 36.45 6.25 L36.45 6.6 Q36.35 7.5 35.9 7.5 35.6 7.5 35.1 6.4 L34.7 5.4 Q34.7 4.4 35.6 4.8 L36.0 5.05" fill="#fff8e5" fill-rule="evenodd" stroke="none"/>
      <path d="M14.0 3.05 L16.4 3.6 Q18.55 3.8 18.55 3.25 L20.0 3.25 21.1 2.75 20.5 2.6 Q19.95 2.05 17.4 1.85 L14.65 1.75 13.65 1.5 12.9 1.5 Q12.15 1.55 11.95 2.0 L12.1 2.1 12.1 2.15 12.6 2.7 14.0 3.05 M8.2 1.5 Q12.2 0.4 16.5 1.0 L30.25 0.55 Q35.65 -0.25 37.15 5.05 38.1 8.55 38.2 12.05 36.9 12.75 35.4 12.8 L22.4 13.45 7.5 15.1 Q3.45 15.95 0.85 13.4 L1.75 10.75 Q3.65 5.6 7.55 1.95 L8.2 1.5 M3.55 10.6 L3.65 10.6 Q3.9 10.6 4.35 9.6 L4.8 8.3 Q5.15 7.25 6.4 6.0 6.4 4.15 4.75 6.0 3.75 7.05 3.35 8.1 2.7 8.85 2.7 9.6 2.5 10.6 3.4 10.6 L3.55 10.6 M36.0 5.05 Q35.7 3.9 35.1 3.15 34.85 2.55 34.0 2.2 33.1 1.85 33.1 2.45 L33.75 3.7 Q34.45 5.1 34.7 6.4 35.55 10.4 36.4 10.4 L36.9 9.8 37.1 9.0 36.45 6.6 36.45 6.25 Q36.45 5.5 36.0 5.05" fill="#a26837" fill-rule="evenodd" stroke="none"/>
      <path d="M12.65 1.6 Q7.8 1.0 5.05 4.85 3.9 6.45 3.05 8.3 L0.1 15.25 Q-0.45 11.6 1.85 7.75 3.25 5.4 4.95 3.05 7.35 -0.3 11.75 0.35 16.8 0.75 21.75 0.5 L33.95 0.0 Q35.4 0.0 36.1 1.35 38.3 5.5 39.3 10.0 39.5 10.8 38.75 11.1 36.7 7.55 35.45 3.45 35.05 2.2 33.9 1.75 L27.65 1.4 24.15 1.7 13.95 1.6 12.65 1.6 M7.4 6.4 Q4.9 8.9 5.4 12.05 3.5 10.55 5.25 7.75 8.7 2.15 15.7 3.05 L31.6 3.55 Q33.1 3.85 33.75 5.3 L35.7 9.35 Q36.25 10.4 35.3 11.25 34.3 6.95 32.8 5.5 31.25 4.0 30.5 4.15 L21.25 3.7 16.2 3.8 Q10.85 3.0 7.4 6.4" fill="#111111" fill-rule="evenodd" stroke="none"/>
    </g>
    <g id="sprite1">
      <use ffdec:characterId="1" height="15.85" transform="matrix(1.0, 0.0, 0.0, 1.0, 0.0, 0.0)" width="22.6" xlink:href="#shape1"/>
    </g>
    <g id="shape1">
      <path d="M17.4 4.65 Q21.2 7.7 22.0 11.4 L22.25 13.2 Q22.15 15.1 20.9 15.35 19.75 15.65 19.4 14.75 L19.25 13.65 18.75 12.75 18.0 11.55 Q17.3 9.8 15.2 7.55 13.5 5.45 11.5 4.35 L12.4 4.8 Q15.95 7.95 17.25 7.7 18.5 7.45 18.15 6.0 18.1 5.35 17.4 4.65 M7.55 2.7 L7.0 2.45 Q4.4 1.45 3.75 0.95 4.05 0.5 4.65 0.35 L6.6 0.5 Q6.2 0.9 6.35 1.75 6.4 2.15 7.55 2.7" fill="#596f24" fill-rule="evenodd" stroke="none"/>
      <path d="M15.45 4.15 L15.6 4.8 Q15.45 5.45 14.7 5.6 14.2 5.75 12.6 4.65 11.15 3.75 11.1 3.3 10.75 1.6 12.95 2.3 15.25 2.9 15.45 4.15" fill="#bdef4d" fill-rule="evenodd" stroke="none"/>
      <path d="M17.4 4.65 Q18.1 5.35 18.15 6.0 18.5 7.45 17.25 7.7 15.95 7.95 12.4 4.8 L11.5 4.35 9.35 3.45 7.55 2.7 Q6.4 2.15 6.35 1.75 6.2 0.9 6.6 0.5 7.45 -0.25 10.7 0.9 L10.95 0.95 11.65 1.25 11.7 1.25 12.15 1.45 12.95 1.85 13.3 2.15 13.45 2.15 Q16.35 3.3 17.4 4.65 M15.45 4.15 Q15.25 2.9 12.95 2.3 10.75 1.6 11.1 3.3 11.15 3.75 12.6 4.65 14.2 5.75 14.7 5.6 15.45 5.45 15.6 4.8 L15.45 4.15" fill="#96ca25" fill-rule="evenodd" stroke="none"/>
      <path d="M19.2 15.75 L19.4 15.8 Q19.75 15.75 19.7 15.0 L19.65 14.25 Q18.6 9.2 11.45 4.3 8.15 2.1 4.85 1.15 19.3 1.4 21.65 12.8 21.65 13.95 21.8 15.0 L22.2 15.05 Q22.8 14.95 22.55 12.95 L22.2 10.9 Q21.1 5.6 15.7 2.5 9.5 -1.15 0.0 0.5 8.7 3.6 12.55 6.55 16.7 9.7 19.2 15.75" fill="#24261e" fill-rule="evenodd" stroke="none"/>
    </g>
    <g id="sprite2">
      <use ffdec:characterId="5" height="26.35" transform="matrix(1.0, 0.0, 0.0, 1.0, 0.0, 0.0)" width="23.7" xlink:href="#shape2"/>
    </g>
    <g id="shape2">
      <path d="M19.3 25.7 L17.4 23.4 Q14.95 20.7 12.9 17.6 L10.75 14.45 11.25 14.25 Q14.4 13.15 16.4 10.8 L16.8 11.5 18.1 13.9 20.15 17.45 22.65 21.85 Q22.65 23.35 22.25 24.0 21.5 25.5 19.3 25.7" fill="#ded6c5" fill-rule="evenodd" stroke="none"/>
      <path d="M19.3 25.7 L18.5 25.75 Q15.3 25.75 13.3 23.15 L10.25 18.3 9.8 17.7 7.2 14.8 7.0 14.6 5.4 12.3 Q5.0 11.5 5.0 10.9 5.0 9.6 8.1 8.3 10.1 7.45 12.7 6.85 14.1 6.55 15.3 8.55 L16.4 10.8 Q14.4 13.15 11.25 14.25 L10.75 14.45 12.9 17.6 Q14.95 20.7 17.4 23.4 L19.3 25.7" fill="#b39d6e" fill-rule="evenodd" stroke="none"/>
      <path d="M0.7 7.55 L1.55 4.65 Q1.75 3.35 2.3 2.55 3.35 1.2 5.8 0.7 10.85 -0.3 13.6 3.3 L13.8 3.6 Q12.1 8.15 7.45 10.9 L6.0 10.95 2.35 10.3 2.2 10.05 Q1.2 8.75 0.7 7.55 M10.05 5.25 Q11.05 4.5 11.05 4.0 11.05 2.05 8.4 2.2 5.75 2.4 5.75 4.05 5.75 5.9 8.55 5.9 L10.05 5.25" fill="#8a702d" fill-rule="evenodd" stroke="none"/>
      <path d="M10.05 5.25 L8.55 5.9 Q5.75 5.9 5.75 4.05 5.75 2.4 8.4 2.2 11.05 2.05 11.05 4.0 11.05 4.5 10.05 5.25" fill="#caaf69" fill-rule="evenodd" stroke="none"/>
      <path d="M13.8 3.6 Q15.5 5.85 15.5 7.95 15.5 9.7 13.75 11.85 11.35 14.7 7.45 14.7 4.8 14.7 2.3 12.0 1.05 10.6 0.3 9.15 L0.7 7.55 Q1.2 8.75 2.2 10.05 L2.35 10.3 6.0 10.95 7.45 10.9 Q12.1 8.15 13.8 3.6" fill="#634f1e" fill-rule="evenodd" stroke="none"/>
      <path d="M11.7 4.9 Q10.55 4.9 10.05 4.2 L9.65 3.35 Q9.65 1.75 11.35 2.35 13.0 2.95 13.0 3.8 L12.7 4.45 Q12.4 4.9 11.7 4.9 M8.65 7.0 Q8.3 7.4 7.65 7.4 6.55 7.4 6.15 5.85 L5.95 4.4 Q5.95 2.55 7.5 3.35 9.0 4.1 9.0 5.95 9.0 6.6 8.65 7.0 M1.95 7.05 Q1.95 2.2 3.55 2.2 5.2 2.2 5.2 7.25 L5.05 8.55 Q4.75 9.45 3.75 9.45 2.8 9.45 2.25 8.25 L1.95 7.05" fill="#403710" fill-rule="evenodd" stroke="none"/>
      <path d="M1.2 2.95 Q1.2 1.55 3.4 0.7 5.45 -0.1 8.2 0.0 15.15 0.35 15.15 4.7 L15.05 6.4 Q16.0 9.1 17.65 12.05 19.8 15.75 23.5 20.95 L23.4 20.95 23.7 22.25 Q23.7 26.35 18.5 26.35 15.9 26.35 14.85 25.3 14.45 24.85 14.4 24.45 L10.45 18.8 Q7.2 14.9 2.7 13.1 0.9 12.8 0.3 10.8 0.0 9.9 0.0 8.2 0.0 4.45 1.2 3.05 L1.2 2.95 M1.95 5.5 Q1.15 7.1 1.15 8.3 L1.35 10.65 Q2.25 12.5 5.6 11.85 5.8 11.85 5.8 12.4 5.8 12.9 4.6 13.1 6.2 13.55 7.45 14.65 L10.35 17.75 13.3 20.75 Q15.55 23.1 15.55 24.2 L15.55 24.35 15.6 24.35 18.6 24.7 Q20.2 24.7 21.1 24.1 22.15 23.4 22.15 22.15 L21.95 21.3 21.75 20.4 21.75 20.05 20.25 18.0 Q18.1 15.05 17.15 12.9 L15.35 8.85 14.7 7.35 13.5 8.6 13.6 6.5 Q13.6 4.7 13.15 3.85 11.95 1.55 8.05 1.55 5.5 1.55 3.95 2.35 2.7 3.9 1.95 5.5 M11.05 10.5 L9.65 11.65 Q8.4 12.5 7.75 12.5 L7.0 12.5 6.6 12.25 10.95 10.3 11.05 10.5" fill="#111111" fill-rule="evenodd" stroke="none"/>
      <path d="M10.4 5.0 Q9.8 5.75 8.85 5.75 6.0 5.75 6.0 4.15 6.0 2.7 8.45 2.4 10.9 2.05 10.9 3.85 10.9 4.45 10.4 5.0" fill="#caaf69" fill-rule="evenodd" stroke="none"/>
    </g>
    <g id="sprite3">
      <use ffdec:characterId="7" height="25.15" transform="matrix(1.0, 0.0, 0.0, 1.0, 0.0, 0.0)" width="31.45" xlink:href="#shape3"/>
    </g>
    <g id="shape3">
      <path d="M22.6 16.2 L16.7 21.5 9.2 25.1 Q6.95 25.3 5.8 24.35 5.25 23.95 4.6 22.6 L4.4 20.8 4.25 19.35 4.35 19.3 Q6.8 16.55 9.8 14.65 18.5 8.8 22.6 16.2" fill="#495e1b" fill-rule="evenodd" stroke="none"/>
      <path d="M6.9 13.05 L6.55 13.1 6.3 13.15 6.15 12.9 Q6.0 12.6 6.55 11.65 L6.95 11.55 7.25 11.8 Q7.45 12.1 7.25 12.55 L6.9 13.05 M12.45 9.55 Q11.95 11.15 10.8 11.7 L10.2 11.9 10.1 11.85 9.85 11.55 Q9.6 11.05 10.75 9.7 L12.6 7.45 Q12.85 8.3 12.45 9.55 M21.8 7.45 Q21.4 8.25 20.4 8.75 19.25 9.3 18.75 8.4 18.25 7.35 19.8 6.15 L21.9 6.1 Q22.2 6.7 21.8 7.45" fill="#bdef4d" fill-rule="evenodd" stroke="none"/>
      <path d="M4.25 19.35 L4.1 18.75 Q3.85 18.25 2.95 17.9 L1.8 17.2 Q1.65 16.9 1.85 16.55 L2.35 16.0 Q3.0 15.65 4.15 16.4 L5.45 17.6 5.15 12.9 Q5.0 9.05 6.25 8.45 L7.0 8.5 7.15 8.75 7.7 10.8 8.1 12.45 Q9.75 9.0 12.35 5.75 15.4 2.05 16.15 3.7 16.3 3.9 15.7 5.5 L15.0 7.45 15.0 7.65 16.35 6.75 Q17.7 5.85 23.3 3.15 25.5 2.1 26.85 2.2 27.75 2.25 28.0 2.75 28.35 3.5 25.25 6.4 21.55 9.95 21.3 10.5 L24.35 10.15 Q26.5 10.0 26.75 10.55 27.3 11.65 22.9 15.85 L22.6 16.2 Q18.5 8.8 9.8 14.65 6.8 16.55 4.35 19.3 L4.25 19.35 M21.8 7.45 Q22.2 6.7 21.9 6.1 L19.8 6.15 Q18.25 7.35 18.75 8.4 19.25 9.3 20.4 8.75 21.4 8.25 21.8 7.45 M12.45 9.55 Q12.85 8.3 12.6 7.45 L10.75 9.7 Q9.6 11.05 9.85 11.55 L10.1 11.85 10.2 11.9 10.8 11.7 Q11.95 11.15 12.45 9.55 M6.9 13.05 L7.25 12.55 Q7.45 12.1 7.25 11.8 L6.95 11.55 6.55 11.65 Q6.0 12.6 6.15 12.9 L6.3 13.15 6.55 13.1 6.9 13.05" fill="#96ca25" fill-rule="evenodd" stroke="none"/>
      <path d="M3.85 15.85 L4.65 16.15 Q4.1 11.3 6.4 7.45 6.55 7.05 7.05 6.85 L7.4 7.2 7.8 11.15 Q11.15 4.9 17.5 1.7 L17.8 2.25 16.55 6.05 21.1 4.15 Q17.3 6.05 15.1 9.8 14.4 9.75 14.8 7.95 15.15 5.9 15.65 3.95 9.8 8.1 8.0 14.9 L7.5 14.55 6.55 8.85 Q5.1 13.25 6.1 17.7 L6.65 19.75 Q5.45 19.5 4.1 17.8 3.3 16.8 2.0 16.6 3.8 17.35 4.7 19.15 L5.3 20.4 4.65 22.7 Q4.25 20.05 2.4 18.4 0.9 17.15 0.0 15.55 L1.1 15.35 3.85 15.85 M31.45 0.8 Q26.6 5.4 22.0 10.4 24.65 9.9 26.85 8.2 27.6 7.8 28.4 7.9 L28.7 8.55 Q26.4 16.5 19.7 18.8 L18.6 18.75 Q22.9 17.2 24.9 13.05 L26.1 10.55 19.95 12.15 Q22.75 6.6 27.5 2.45 25.0 2.65 22.95 3.4 L31.2 0.0 31.45 0.8" fill="#24261e" fill-rule="evenodd" stroke="none"/>
    </g>
    <g id="sprite4">
      <use ffdec:characterId="9" height="18.7" transform="matrix(1.0, 0.0, 0.0, 1.0, 0.0, 0.0)" width="21.3" xlink:href="#shape4"/>
    </g>
    <g id="shape4">
      <path d="M7.85 7.0 Q8.95 9.15 11.15 10.6 L11.4 10.75 10.3 11.8 10.25 11.9 Q6.3 14.4 2.55 17.7 1.1 17.1 0.85 15.95 0.7 15.4 1.0 14.25 L3.75 11.3 6.0 9.0 7.45 7.4 7.85 7.0 M11.8 11.0 L11.9 11.05 Q11.5 11.25 11.15 11.55 L11.8 11.0" fill="#ded6c5" fill-rule="evenodd" stroke="none"/>
      <path d="M7.85 7.0 L9.15 5.45 Q10.45 4.1 11.45 4.65 13.35 5.6 14.75 6.6 16.85 8.2 16.6 9.2 L16.3 9.9 14.35 11.7 14.2 11.8 Q12.5 12.9 11.65 13.55 L11.15 13.85 7.9 16.95 Q5.85 18.6 3.4 17.95 L2.55 17.7 Q6.3 14.4 10.25 11.9 L10.3 11.8 11.4 10.75 11.15 10.6 Q8.95 9.15 7.85 7.0 M11.8 11.0 L11.15 11.55 Q11.5 11.25 11.9 11.05 L11.8 11.0" fill="#b39d6e" fill-rule="evenodd" stroke="none"/>
      <path d="M20.5 7.5 L18.9 9.1 18.75 9.25 15.85 9.05 14.75 8.75 Q11.65 5.75 11.25 1.9 11.3 1.8 11.45 1.75 14.3 -0.5 17.95 1.25 19.7 2.05 20.25 3.35 20.55 4.05 20.45 5.1 L20.5 7.5 M15.65 1.9 Q13.7 1.25 13.3 2.75 13.2 3.15 13.75 3.9 L14.85 4.7 Q16.95 5.2 17.3 3.8 17.6 2.55 15.65 1.9" fill="#884728" fill-rule="evenodd" stroke="none"/>
      <path d="M15.65 1.9 Q17.6 2.55 17.3 3.8 16.95 5.2 14.85 4.7 L13.75 3.9 Q13.2 3.15 13.3 2.75 13.7 1.25 15.65 1.9" fill="#be966f" fill-rule="evenodd" stroke="none"/>
      <path d="M20.5 7.5 L20.5 8.75 18.45 10.6 Q16.0 12.2 14.0 11.7 11.0 10.95 9.7 8.3 8.75 6.3 9.1 4.95 9.5 3.35 11.25 1.9 11.65 5.75 14.75 8.75 L15.85 9.05 18.75 9.25 18.9 9.1 20.5 7.5" fill="#3c2612" fill-rule="evenodd" stroke="none"/>
      <path d="M19.35 2.85 Q18.1 2.5 17.15 6.35 L17.0 7.4 Q17.05 8.15 17.8 8.35 18.55 8.55 19.2 7.75 L19.65 6.9 Q20.6 3.15 19.35 2.85 M14.55 5.5 Q14.75 5.9 15.25 6.0 16.1 6.2 16.7 5.15 L17.1 4.05 Q17.45 2.65 16.15 2.95 14.85 3.25 14.45 4.7 14.35 5.15 14.55 5.5 M11.9 2.85 Q12.1 3.2 12.65 3.35 13.5 3.55 14.0 3.1 L14.45 2.55 Q14.8 1.3 13.35 1.45 12.0 1.65 11.85 2.25 11.75 2.55 11.9 2.85" fill="#36291c" fill-rule="evenodd" stroke="none"/>
      <path d="M19.95 5.65 Q20.25 7.05 20.05 7.95 L19.45 9.7 15.95 9.85 Q15.8 9.8 15.7 10.2 15.6 10.6 16.5 11.0 15.2 11.05 13.95 11.6 L11.15 13.45 8.35 15.15 Q6.15 16.55 5.95 17.4 L5.9 17.5 3.55 17.2 Q2.3 16.9 1.7 16.2 1.1 15.55 1.35 14.6 L1.65 13.9 1.95 13.3 2.0 13.0 3.55 11.75 6.9 8.45 9.05 5.7 9.8 4.65 10.5 5.85 10.8 4.2 Q11.15 2.8 11.7 2.25 13.05 0.75 16.05 1.5 18.0 1.95 19.0 2.85 L19.95 5.65 M19.8 1.7 Q18.35 0.7 16.2 0.25 10.85 -0.85 10.0 2.5 L9.75 3.9 Q8.55 5.75 6.65 7.65 4.35 10.15 0.5 13.35 L0.55 13.4 Q0.25 13.8 0.1 14.35 -0.65 17.5 3.3 18.45 L6.3 18.3 6.8 17.75 10.9 14.2 Q14.15 11.9 17.9 11.35 19.35 11.45 20.2 10.05 20.65 9.35 20.95 8.1 21.65 5.2 21.0 3.95 L21.0 3.9 Q21.25 2.8 19.8 1.7 M12.05 7.75 L12.9 8.9 Q13.65 9.8 14.15 9.95 L14.75 10.1 15.05 9.95 12.15 7.6 12.05 7.75" fill="#111111" fill-rule="evenodd" stroke="none"/>
      <path d="M13.55 3.7 Q13.9 4.4 14.6 4.55 16.8 5.1 17.1 3.85 17.4 2.7 15.55 2.05 13.75 1.35 13.45 2.7 13.3 3.15 13.55 3.7" fill="#c89b71" fill-rule="evenodd" stroke="none"/>
    </g>
    <g id="sprite5">
      <use ffdec:characterId="11" height="19.5" transform="matrix(1.0, 0.0, 0.0, 1.0, 0.0, 0.0)" width="39.65" xlink:href="#shape5"/>
    </g>
    <g id="shape5">
      <path d="M10.55 11.3 Q11.2 11.25 11.85 11.95 L12.7 12.95 12.65 13.3 12.5 13.55 12.1 13.7 Q11.6 13.7 11.05 12.75 L10.55 11.3 M24.0 4.0 L20.25 3.8 Q19.35 3.6 19.35 2.8 19.35 1.35 25.1 0.95 30.85 0.5 30.85 2.15 30.85 2.8 28.8 3.4 L24.0 4.0 M20.6 13.25 L20.55 13.55 20.45 13.65 20.0 13.75 19.1 12.6 18.4 11.4 Q18.4 10.1 19.5 11.05 20.6 11.95 20.6 13.25 M26.65 9.7 L28.0 11.2 Q28.6 11.85 28.6 12.7 L28.55 13.15 28.4 13.3 27.95 13.45 Q27.7 13.45 26.8 12.15 L25.9 10.7 Q25.9 9.55 26.65 9.7" fill="#fff8e5" fill-rule="evenodd" stroke="none"/>
      <path d="M34.45 0.6 Q34.2 2.0 33.4 3.2 29.95 4.95 25.95 5.35 15.3 6.7 5.55 4.0 L5.4 3.75 Q4.9 3.25 4.75 2.6 L4.8 2.4 5.2 1.65 24.7 0.55 Q31.05 0.45 34.45 0.6 M6.0 10.3 L6.1 10.3 8.4 13.25 5.0 11.95 6.0 10.3 M14.45 8.95 L15.8 11.55 Q16.85 13.45 17.65 14.35 16.6 18.2 12.3 16.6 L11.0 13.45 Q11.0 12.55 8.75 10.8 L7.6 9.95 14.45 8.95 M18.65 12.4 L16.05 8.85 21.1 8.75 21.1 8.85 22.4 10.6 Q23.7 12.15 22.8 14.45 21.9 16.7 20.85 15.5 L18.65 12.4 M26.65 9.7 Q25.9 9.55 25.9 10.7 L26.8 12.15 Q27.7 13.45 27.95 13.45 L28.4 13.3 28.55 13.15 28.6 12.7 Q28.6 11.85 28.0 11.2 L26.65 9.7 M20.6 13.25 Q20.6 11.95 19.5 11.05 18.4 10.1 18.4 11.4 L19.1 12.6 20.0 13.75 20.45 13.65 20.55 13.55 20.6 13.25 M24.0 4.0 L28.8 3.4 Q30.85 2.8 30.85 2.15 30.85 0.5 25.1 0.95 19.35 1.35 19.35 2.8 19.35 3.6 20.25 3.8 L24.0 4.0 M10.55 11.3 L11.05 12.75 Q11.6 13.7 12.1 13.7 L12.5 13.55 12.65 13.3 12.7 12.95 11.85 11.95 Q11.2 11.25 10.55 11.3 M24.45 9.9 L23.15 8.85 29.7 9.55 32.45 10.0 32.3 12.15 Q31.55 17.15 27.5 13.65 26.85 12.0 24.45 9.9" fill="#ffc859" fill-rule="evenodd" stroke="none"/>
      <path d="M5.2 1.65 L4.8 2.4 4.75 2.6 Q4.9 3.25 5.4 3.75 L5.55 4.0 Q15.3 6.7 25.95 5.35 29.95 4.95 33.4 3.2 34.2 2.0 34.45 0.6 L37.75 0.85 Q38.8 1.1 39.0 1.65 L39.0 2.85 Q39.0 4.2 38.4 5.4 37.5 7.35 35.55 7.45 36.1 7.6 36.2 8.8 L36.25 10.35 36.2 11.9 35.75 13.35 34.35 14.7 33.05 15.7 Q31.25 16.95 30.25 17.4 28.75 18.15 26.1 18.6 L21.05 19.35 19.35 19.35 10.3 17.7 Q8.8 17.45 6.9 16.5 5.55 15.85 5.1 15.35 3.75 14.85 3.4 13.9 L3.3 13.55 Q3.05 12.35 3.75 10.5 3.75 9.35 3.1 8.1 L2.65 7.4 Q1.5 5.8 1.5 4.8 1.5 3.65 2.15 2.95 L3.15 1.75 5.2 1.65 M6.0 10.3 L5.0 11.95 8.4 13.25 6.1 10.3 6.0 10.3 M18.65 12.4 L20.85 15.5 Q21.9 16.7 22.8 14.45 23.7 12.15 22.4 10.6 L21.1 8.85 21.1 8.75 16.05 8.85 18.65 12.4 M14.45 8.95 L7.6 9.95 8.75 10.8 Q11.0 12.55 11.0 13.45 L12.3 16.6 Q16.6 18.2 17.65 14.35 16.85 13.45 15.8 11.55 L14.45 8.95 M24.45 9.9 Q26.85 12.0 27.5 13.65 31.55 17.15 32.3 12.15 L32.45 10.0 29.7 9.55 23.15 8.85 24.45 9.9" fill="#a26837" fill-rule="evenodd" stroke="none"/>
      <path d="M1.45 2.6 L1.4 3.25 Q1.3 3.95 1.6 4.25 0.95 5.95 3.6 8.0 7.15 10.3 10.05 13.25 L8.15 12.15 5.5 14.3 Q5.95 16.55 9.25 17.15 2.3 17.45 2.55 9.3 L2.35 8.6 1.9 8.65 Q-1.65 5.8 1.45 2.6 M5.1 1.75 L21.35 0.4 Q28.55 0.0 35.8 0.0 L35.75 0.8 35.9 1.3 Q29.5 0.75 23.15 1.35 L17.75 1.8 5.1 1.75 M4.35 13.25 L4.9 13.9 7.55 11.75 3.95 9.4 3.85 10.65 Q3.6 12.1 4.35 13.25 M14.35 10.0 L20.85 17.6 21.35 17.6 25.1 11.6 20.8 7.6 17.35 7.75 14.35 10.0 M10.7 7.65 L5.95 7.4 21.95 6.5 32.8 6.1 Q33.9 6.1 34.8 6.7 L36.55 5.9 37.1 5.0 37.35 4.5 Q37.8 4.0 38.05 3.0 L38.4 0.75 38.35 0.15 Q39.15 0.4 39.65 1.0 L39.65 3.15 39.45 4.2 Q39.25 5.2 38.65 6.0 L37.85 6.8 36.85 7.55 Q38.05 11.35 36.1 14.4 35.35 15.5 34.25 16.05 23.35 22.0 10.95 17.65 L19.55 18.4 Q20.55 18.4 19.45 16.85 L16.75 13.75 13.75 10.6 10.7 7.65 M14.0 9.15 L16.3 7.6 11.0 7.6 14.0 9.15 M25.55 11.3 Q27.2 12.75 30.55 16.75 L33.0 15.5 Q33.9 15.1 34.65 13.8 L33.8 13.0 Q31.65 11.2 30.0 9.1 L28.8 7.6 21.15 7.6 25.55 11.3 M30.75 8.7 L32.25 7.45 29.3 7.45 30.75 8.7 M34.0 7.6 L31.45 9.1 35.3 12.8 35.55 11.45 35.55 10.7 35.3 7.85 34.0 7.6 M29.5 16.7 L25.5 11.95 21.35 18.25 Q25.5 19.25 29.5 16.7 M11.9 14.45 L11.8 14.25 Q12.25 13.65 13.0 14.4 L11.9 14.45" fill="#111111" fill-rule="evenodd" stroke="none"/>
    </g>
  </defs>
</svg>
