<?xml version="1.0" encoding="UTF-8" standalone="no"?>
<svg xmlns:ffdec="https://www.free-decompiler.com/flash" xmlns:xlink="http://www.w3.org/1999/xlink" ffdec:objectType="frame" height="32.5px" width="52.85px" xmlns="http://www.w3.org/2000/svg">
  <g transform="matrix(1.0, 0.0, 0.0, 1.0, 21.45, 46.0)">
    <use ffdec:characterId="2" height="23.55" transform="matrix(1.0, 0.0, 0.0, 1.0, -20.7, -37.05)" width="41.15" xlink:href="#sprite0"/>
    <use ffdec:characterId="4" height="17.05" transform="matrix(1.0, 0.0, 0.0, 1.0, 12.8, -44.35)" width="18.6" xlink:href="#sprite1"/>
    <use ffdec:characterId="9" height="21.05" transform="matrix(1.1, 0.0, 0.0, 1.1, -15.05, -46.0)" width="26.05" xlink:href="#sprite2"/>
  </g>
  <defs>
    <g id="sprite0">
      <use ffdec:characterId="1" height="23.55" transform="matrix(1.0, 0.0, 0.0, 1.0, 0.0, 0.0)" width="41.15" xlink:href="#shape0"/>
    </g>
    <g id="shape0">
      <path d="M40.0 7.15 L40.4 7.65 40.4 15.5 Q39.7 17.25 37.7 18.75 L35.7 19.75 32.6 21.2 Q28.9 22.65 24.85 23.2 18.75 24.05 12.95 22.9 L9.2 22.0 Q5.0 20.6 1.4 18.2 L0.05 16.65 -0.75 15.0 -0.75 8.45 Q0.05 5.25 5.1 2.85 11.2 0.0 19.9 0.0 28.55 0.0 34.65 2.85 38.6 4.75 40.0 7.15" fill="#000000" fill-rule="evenodd" stroke="none"/>
      <path d="M32.0 20.75 L29.2 21.7 24.9 22.65 23.8 22.7 23.8 10.2 32.0 10.2 32.0 20.75 M17.3 22.85 L16.6 22.9 13.35 22.4 10.95 21.85 9.75 21.5 9.75 10.2 17.3 10.2 17.3 22.85" fill="#3d3939" fill-rule="evenodd" stroke="none"/>
      <path d="M38.05 17.25 L36.75 18.4 34.95 19.35 32.0 20.75 32.0 10.2 38.05 10.2 38.05 17.25 M9.75 21.5 Q5.8 20.2 2.35 17.85 L1.95 17.5 1.95 10.2 9.75 10.2 9.75 21.5" fill="#1d1919" fill-rule="evenodd" stroke="none"/>
      <path d="M38.05 10.2 L39.7 10.2 39.7 10.45 39.65 12.55 39.65 12.9 39.65 13.45 Q39.65 15.5 38.05 17.25 L38.05 10.2 M23.8 22.7 L17.3 22.85 17.3 10.2 23.8 10.2 23.8 22.7 M1.95 17.5 L1.05 16.4 Q0.1 15.0 0.1 13.45 L0.15 12.85 0.1 12.5 0.1 11.05 0.15 10.2 1.95 10.2 1.95 17.5" fill="#676464" fill-rule="evenodd" stroke="none"/>
      <path d="M36.65 8.2 L36.8 8.35 37.85 9.9 37.9 10.0 38.15 11.5 Q38.15 12.85 37.35 14.0 L37.05 14.4 36.7 14.65 36.6 14.75 35.1 15.5 34.9 15.6 Q30.1 18.2 24.55 18.95 18.75 19.75 13.3 18.65 8.35 17.7 4.15 15.25 L2.3 14.1 1.95 13.8 Q1.25 12.7 1.25 11.5 1.25 10.8 1.5 10.15 L2.0 9.2 2.95 8.1 Q4.1 7.05 6.0 6.15 4.25 7.8 4.25 9.85 4.25 11.05 4.8 12.15 L5.1 12.45 Q9.25 15.85 14.25 17.0 L23.65 17.3 Q28.25 16.55 32.25 13.95 L32.4 13.85 33.75 13.0 34.05 12.75 34.3 12.35 Q34.95 11.2 34.95 9.85 34.95 8.15 33.8 6.7 L33.05 5.9 34.0 6.35 Q35.6 7.2 36.65 8.2" fill="#ff2121" fill-rule="evenodd" stroke="none"/>
      <path d="M36.6 14.85 L35.15 15.6 34.95 15.7 Q30.15 18.3 24.6 19.05 18.8 19.85 13.35 18.75 8.35 17.8 4.15 15.35 L4.15 15.25 Q8.35 17.7 13.3 18.65 18.75 19.75 24.55 18.95 30.1 18.2 34.9 15.6 L35.1 15.5 36.6 14.75 36.6 14.85 M3.0 4.85 Q4.2 3.9 5.9 3.1 11.65 0.35 19.9 0.35 28.1 0.35 33.9 3.1 L35.15 3.75 35.85 4.2 36.65 8.2 Q35.6 7.2 34.0 6.35 L33.05 5.9 33.8 6.7 Q34.95 8.15 34.95 9.85 34.95 11.2 34.3 12.35 L34.05 12.75 33.75 13.0 32.4 13.85 32.25 13.95 Q28.25 16.55 23.65 17.3 L14.25 17.0 Q9.25 15.85 5.1 12.45 L4.8 12.15 Q4.25 11.05 4.25 9.85 4.25 7.8 6.0 6.15 4.1 7.05 2.95 8.1 L3.0 4.85" fill="#7e0d0d" fill-rule="evenodd" stroke="none"/>
      <path d="M35.85 4.2 Q37.25 5.1 38.15 6.1 L38.35 6.3 39.1 7.5 Q39.65 8.6 39.65 9.8 39.65 11.8 38.15 13.5 L36.75 14.75 36.6 14.85 36.6 14.75 36.7 14.65 37.05 14.4 37.35 14.0 Q38.15 12.85 38.15 11.5 L37.9 10.0 37.85 9.9 36.8 8.35 36.65 8.2 35.85 4.2 M4.15 15.35 L2.35 14.2 1.05 12.75 Q0.1 11.35 0.1 9.8 0.1 8.75 0.55 7.8 0.95 6.8 1.8 5.9 L3.0 4.85 2.95 8.1 2.0 9.2 1.5 10.15 Q1.25 10.8 1.25 11.5 1.25 12.7 1.95 13.8 L2.3 14.1 4.15 15.25 4.15 15.35" fill="#2c4606" fill-rule="evenodd" stroke="none"/>
      <path d="M39.65 10.65 Q39.65 13.4 36.75 15.6 L34.95 16.55 Q30.15 19.15 24.6 19.9 18.8 20.7 13.35 19.6 7.3 18.45 2.35 15.05 L1.05 13.6 Q0.1 12.2 0.1 10.65 L0.15 10.2 Q0.25 11.45 1.05 12.65 L2.35 14.1 4.8 15.65 Q8.8 17.8 13.35 18.65 18.8 19.75 24.6 18.95 30.15 18.2 34.95 15.6 L36.75 14.65 Q39.4 12.65 39.65 10.2 L39.65 10.65" fill="#ffc8c8" fill-rule="evenodd" stroke="none"/>
    </g>
    <g id="sprite1">
      <use ffdec:characterId="3" height="17.05" transform="matrix(1.0, 0.0, 0.0, 1.0, 0.0, 0.0)" width="18.6" xlink:href="#shape1"/>
    </g>
    <g id="shape1">
      <path d="M12.2 8.2 L13.95 8.1 Q14.9 7.9 15.65 8.65 L15.85 9.0 15.95 9.35 14.2 10.85 Q12.4 12.15 12.25 12.85 11.85 14.55 9.3 15.05 L6.3 15.2 Q2.9 15.2 1.95 14.55 1.35 14.1 1.0 12.4 L0.35 10.25 Q0.1 9.6 0.1 8.55 0.1 5.95 3.15 2.05 4.25 2.0 4.2 3.3 L4.0 5.3 4.7 6.95 Q5.15 8.0 4.85 8.6 L4.85 8.65 6.55 7.7 Q7.6 7.15 9.05 7.15 10.45 7.15 11.05 7.55 11.95 8.15 12.2 8.2 M9.15 10.4 Q7.5 10.4 7.5 11.3 7.5 11.95 8.0 12.2 L10.5 12.5 10.45 12.6 Q9.4 13.85 7.85 13.9 L5.5 13.95 4.5 13.8 3.95 13.8 3.9 13.95 3.95 14.05 8.4 14.7 Q9.6 14.7 10.6 13.65 L11.4 12.45 Q12.3 12.3 12.3 11.55 12.3 10.8 10.75 10.5 10.5 10.15 9.85 10.1 9.4 10.1 9.15 10.4 M3.15 6.0 L3.5 4.15 Q3.5 2.55 2.45 3.6 1.4 4.7 1.4 6.2 1.25 7.55 2.3 7.55 2.75 7.55 3.15 6.0 M12.7 10.45 Q13.9 10.45 13.9 9.55 13.9 8.4 10.45 7.95 6.95 7.5 6.95 9.4 6.8 10.3 7.8 10.3 L9.35 9.75 11.2 10.1 12.7 10.45" fill="#6c8a2a" fill-rule="evenodd" stroke="none"/>
      <path d="M11.75 9.0 Q11.75 8.35 10.95 8.35 10.1 8.35 10.1 9.0 L10.2 9.25 Q10.4 9.6 10.95 9.6 11.75 9.6 11.75 9.0 M10.75 10.5 Q12.3 10.8 12.3 11.55 12.3 12.3 11.4 12.45 L10.6 13.65 Q9.6 14.7 8.4 14.7 L3.95 14.05 3.9 13.95 3.95 13.8 4.5 13.8 5.5 13.95 7.85 13.9 Q9.4 13.85 10.45 12.6 L10.5 12.5 8.0 12.2 Q7.5 11.95 7.5 11.3 7.5 10.4 9.15 10.4 8.85 10.7 8.85 11.35 L8.9 11.7 Q9.05 12.05 9.5 12.05 10.85 12.05 10.85 11.05 L10.75 10.5 M12.7 10.45 L11.2 10.1 9.35 9.75 7.8 10.3 Q6.8 10.3 6.95 9.4 6.95 7.5 10.45 7.95 13.9 8.4 13.9 9.55 13.9 10.45 12.7 10.45 M3.15 6.0 Q2.75 7.55 2.3 7.55 1.25 7.55 1.4 6.2 1.4 4.7 2.45 3.6 3.5 2.55 3.5 4.15 L3.15 6.0 M2.85 4.55 L2.75 4.2 Q2.05 3.95 2.05 4.75 L2.4 5.1 2.85 4.55" fill="#98cc27" fill-rule="evenodd" stroke="none"/>
      <path d="M11.75 9.0 Q11.75 9.6 10.95 9.6 10.4 9.6 10.2 9.25 L10.1 9.0 Q10.1 8.35 10.95 8.35 11.75 8.35 11.75 9.0 M9.15 10.4 Q9.4 10.1 9.85 10.1 10.5 10.15 10.75 10.5 L10.85 11.05 Q10.85 12.05 9.5 12.05 9.05 12.05 8.9 11.7 L8.85 11.35 Q8.85 10.7 9.15 10.4 M2.85 4.55 L2.4 5.1 2.05 4.75 Q2.05 3.95 2.75 4.2 L2.85 4.55" fill="#fcff9e" fill-rule="evenodd" stroke="none"/>
      <path d="M1.85 3.9 Q3.0 2.1 3.65 0.0 L4.15 0.4 Q5.05 4.25 4.9 8.2 9.8 5.1 14.6 8.3 16.3 9.4 18.6 9.25 13.3 10.55 11.25 15.85 6.55 16.5 1.9 14.95 L1.45 15.1 0.4 17.05 Q0.95 13.2 0.45 9.4 L1.1 10.15 1.0 10.15 1.5 12.9 2.5 6.05 Q2.85 8.75 2.45 11.6 L3.6 9.85 4.65 8.05 Q3.6 5.3 3.5 2.3 L1.85 3.9 M11.55 13.5 Q12.85 10.95 15.25 9.65 11.85 8.1 8.15 7.4 6.1 7.95 4.6 9.45 2.9 11.2 2.05 13.4 5.7 9.45 10.75 10.05 5.8 10.7 2.35 14.15 6.5 16.05 10.5 14.45 11.2 14.25 11.55 13.5 M0.4 5.85 L1.25 4.85 Q0.4 6.25 0.25 8.05 L0.05 7.15 Q-0.1 6.5 0.4 5.85" fill="#24261e" fill-rule="evenodd" stroke="none"/>
    </g>
    <g id="sprite2">
      <use ffdec:characterId="8" height="21.05" transform="matrix(1.0, 0.0, 0.0, 1.0, 0.0, 0.0)" width="26.05" xlink:href="#shape2"/>
    </g>
    <g id="shape2">
      <path d="M21.55 3.6 Q24.75 6.4 25.4 10.3 L25.55 12.4 25.55 12.8 Q25.45 15.9 23.75 18.35 22.6 20.0 20.85 21.05 20.65 20.3 19.8 19.65 L17.2 18.1 14.7 16.5 13.7 15.6 Q12.95 15.0 12.2 14.8 11.1 14.75 9.5 16.1 L7.4 18.0 4.7 19.8 4.15 20.2 Q3.05 19.45 2.45 18.5 1.4 16.9 1.4 12.7 L1.45 10.05 Q2.5 5.85 5.95 2.95 9.4 0.0 13.85 0.4 18.3 0.75 21.55 3.6" fill="#dd9a52" fill-rule="evenodd" stroke="none"/>
      <path d="M7.1 1.4 L5.55 3.15 Q4.35 4.4 4.05 5.9 L4.0 6.0 3.8 7.25 Q3.55 9.05 3.55 10.9 5.75 12.1 8.05 12.75 L12.2 13.15 Q12.5 12.5 13.25 12.35 L13.2 12.4 12.7 13.4 14.45 14.0 15.3 14.25 Q16.05 14.8 17.25 15.05 L18.55 15.25 21.15 12.95 21.45 12.65 22.7 12.15 Q23.6 9.95 22.9 7.5 L22.5 6.35 Q21.8 4.65 21.6 3.1 L21.95 3.35 22.3 3.65 Q22.35 4.1 22.75 4.75 L23.8 6.9 Q23.85 8.1 24.2 9.5 L24.3 9.75 25.45 8.55 25.75 10.9 Q25.75 14.65 22.35 16.35 21.25 18.9 19.45 19.45 L18.25 18.7 Q18.95 18.6 19.0 18.2 L16.9 17.25 15.65 17.15 14.7 16.5 13.7 15.6 Q12.95 15.0 12.2 14.8 11.1 14.75 9.5 16.1 L8.85 16.7 Q6.95 15.9 5.1 14.25 L1.75 10.7 1.5 11.2 Q5.15 15.85 7.9 17.55 L7.4 18.0 7.1 18.25 Q4.15 16.25 2.0 13.4 0.65 11.65 1.1 9.3 L1.3 8.4 2.7 9.75 2.7 9.65 Q2.8 6.85 3.4 4.35 L4.7 3.05 5.15 2.7 5.8 2.2 6.0 2.05 7.1 1.4 M16.25 3.65 L16.9 0.65 18.4 1.15 18.7 1.25 19.3 1.55 17.95 4.9 17.55 5.25 17.45 5.65 Q17.05 5.9 16.8 6.5 L16.55 6.75 15.75 8.2 15.6 8.35 15.65 7.9 16.25 3.65 M22.3 15.35 L24.25 13.65 Q24.25 11.65 22.05 14.75 L19.9 17.0 Q20.0 17.2 20.35 17.2 L22.3 15.35" fill="#ffca3f" fill-rule="evenodd" stroke="none"/>
      <path d="M3.8 7.25 L5.95 7.0 5.8 7.4 Q7.4 7.95 9.1 8.8 10.35 9.5 11.55 9.9 11.75 9.35 12.65 8.6 12.9 8.35 13.2 8.25 14.15 6.55 14.7 4.7 L16.25 3.65 15.65 7.9 15.6 8.35 15.75 8.2 16.55 6.75 16.8 6.5 Q17.05 5.9 17.45 5.65 L17.55 5.25 Q19.75 7.2 22.9 7.5 23.6 9.95 22.7 12.15 L21.45 12.65 21.15 12.95 18.55 15.25 17.25 15.05 Q16.05 14.8 15.3 14.25 L14.45 14.0 12.7 13.4 13.2 12.4 13.25 12.35 Q12.5 12.5 12.2 13.15 L8.05 12.75 Q5.75 12.1 3.55 10.9 3.55 9.05 3.8 7.25 M3.4 4.35 Q2.8 6.85 2.7 9.65 L2.7 9.75 1.3 8.4 Q1.6 7.2 2.15 6.2 2.65 5.2 3.4 4.35 M25.45 8.55 L24.3 9.75 24.2 9.5 Q23.85 8.1 23.8 6.9 L22.75 4.75 Q22.35 4.1 22.3 3.65 L23.0 4.35 Q24.8 6.3 25.45 8.55" fill="#f29c1b" fill-rule="evenodd" stroke="none"/>
      <path d="M7.9 17.55 Q5.15 15.85 1.5 11.2 L1.75 10.7 5.1 14.25 Q6.95 15.9 8.85 16.7 L7.9 17.55 M15.65 17.15 L16.9 17.25 19.0 18.2 Q18.95 18.6 18.25 18.7 L17.2 18.1 15.65 17.15 M22.3 15.35 L20.35 17.2 Q20.0 17.2 19.9 17.0 L22.05 14.75 Q24.25 11.65 24.25 13.65 L22.3 15.35" fill="#eab220" fill-rule="evenodd" stroke="none"/>
      <path d="M3.8 7.25 L4.0 6.0 4.05 5.9 Q4.35 4.4 5.55 3.15 L7.1 1.4 7.85 1.0 Q8.75 0.6 9.65 0.35 L14.9 0.2 15.45 0.3 16.9 0.65 16.25 3.65 14.7 4.7 Q14.15 6.55 13.2 8.25 12.9 8.35 12.65 8.6 11.75 9.35 11.55 9.9 10.35 9.5 9.1 8.8 7.4 7.95 5.8 7.4 L5.95 7.0 3.8 7.25 M21.6 3.1 Q21.8 4.65 22.5 6.35 L22.9 7.5 Q19.75 7.2 17.55 5.25 L17.95 4.9 19.3 1.55 Q20.5 2.2 21.6 3.1" fill="#e07b1e" fill-rule="evenodd" stroke="none"/>
      <path d="M15.2 0.15 Q19.4 0.4 22.35 3.05 L23.7 4.85 Q28.5 12.35 23.55 18.7 25.2 16.45 24.55 9.85 23.8 2.95 15.2 0.15 M5.2 3.15 Q3.35 5.2 2.05 8.7 0.7 12.2 2.2 15.65 3.25 18.0 4.75 19.25 L5.15 19.55 4.7 19.8 Q4.0 20.3 3.65 20.7 1.85 19.55 1.25 17.7 -0.9 10.95 0.7 8.05 2.3 5.1 3.85 3.45 5.35 1.8 8.15 0.75 6.9 1.2 5.2 3.15 M20.85 21.0 L20.55 20.4 21.25 20.05 Q24.85 18.1 21.9 20.3 L20.85 21.0" fill="#2f2216" fill-rule="evenodd" stroke="none"/>
      <path d="M8.5 4.15 Q8.5 4.75 8.05 4.75 6.95 4.75 6.95 4.0 6.95 3.55 7.75 3.55 8.5 3.55 8.5 4.15 M9.0 1.75 Q9.9 1.6 9.9 2.45 9.9 3.15 9.4 3.15 8.05 3.15 8.05 2.35 8.05 1.95 9.0 1.75 M11.95 1.2 Q11.4 1.2 11.3 1.0 L11.3 0.8 Q11.3 0.2 12.5 0.45 L12.6 0.8 Q12.6 1.2 11.95 1.2 M11.4 2.1 L12.05 1.9 Q12.65 1.9 12.65 2.25 L12.4 2.75 11.7 3.0 Q11.05 3.0 11.05 2.6 11.05 2.3 11.4 2.1 M11.45 4.3 Q11.45 4.85 10.6 4.85 9.65 4.85 9.65 4.3 9.65 3.7 10.55 3.75 11.45 3.8 11.45 4.3 M14.25 2.9 Q14.95 2.95 14.95 3.4 14.95 4.0 14.3 4.0 13.3 4.0 13.55 3.45 13.55 2.9 14.25 2.9 M16.5 2.15 L16.3 2.25 Q14.1 2.25 14.1 1.55 14.1 1.1 15.4 1.1 16.7 1.1 16.7 1.75 L16.5 2.15 M16.95 3.6 Q16.25 3.6 16.25 3.2 16.25 2.65 16.95 2.65 17.65 2.65 17.65 3.15 17.65 3.6 16.95 3.6 M13.4 6.0 L12.45 5.8 12.0 5.35 Q12.0 4.8 13.1 4.7 14.15 4.65 14.15 5.4 14.15 6.0 13.4 6.0" fill="#332b21" fill-rule="evenodd" stroke="none"/>
      <path d="M20.0 3.3 Q20.5 3.1 21.15 4.2 L22.25 6.25 22.25 7.1 21.9 7.25 Q21.65 7.35 20.7 6.3 19.75 5.25 19.55 4.15 19.55 3.5 20.0 3.3 M9.45 10.25 Q10.1 9.95 10.45 10.4 L10.75 11.2 Q10.75 11.9 10.1 11.9 9.35 11.9 9.4 10.7 L9.45 10.25 M8.9 10.3 Q8.9 11.3 8.45 11.3 7.65 11.3 7.7 10.25 7.7 9.35 8.3 9.25 8.9 9.25 8.9 10.3 M5.55 6.15 Q5.25 7.0 4.65 7.0 3.95 7.0 4.0 6.3 4.0 4.8 4.9 4.4 5.8 4.0 5.8 5.0 L5.55 6.15" fill="#fff0d2" fill-rule="evenodd" stroke="none"/>
      <path d="M20.65 15.55 L20.65 15.6 20.7 15.65 20.7 15.75 20.75 15.85 20.8 15.95 20.8 16.05 21.1 17.65 20.9 18.4 20.35 15.75 19.8 13.9 19.1 12.0 18.15 10.15 17.3 9.35 16.9 8.95 16.2 8.5 13.8 7.0 13.45 6.6 12.35 5.95 12.3 5.9 12.25 5.95 12.15 6.0 12.1 6.1 10.75 7.1 Q8.9 8.35 8.55 8.7 8.0 9.2 6.5 9.9 L6.45 9.9 6.85 8.75 8.15 7.95 Q9.85 6.55 11.05 5.9 L12.05 5.5 12.35 5.75 12.45 5.65 13.5 6.25 14.55 6.95 17.1 8.35 17.55 8.55 18.2 9.65 18.05 9.55 18.75 10.55 Q20.05 12.6 20.05 13.55 L20.6 15.4 20.65 15.55 M4.25 17.65 L4.25 17.6 4.45 16.2 4.5 16.15 4.45 17.75 4.3 17.85 4.25 17.65 M4.7 15.25 L5.05 13.4 5.1 13.25 Q5.65 11.05 6.3 10.7 L6.35 10.8 6.2 11.45 5.85 12.2 5.45 13.55 4.8 16.2 4.7 16.25 4.65 15.8 4.7 15.25 M18.85 12.6 L18.35 11.5 16.5 9.1 16.55 9.1 Q17.35 9.55 18.35 11.25 19.35 12.95 19.35 13.8 L19.35 13.85 19.3 13.75 18.9 12.8 18.85 12.6 M7.6 9.6 Q6.55 11.55 6.4 12.4 L5.75 15.2 5.6 14.75 Q5.6 13.95 6.25 12.0 6.95 9.85 7.6 9.6" fill="#ffc57b" fill-rule="evenodd" stroke="none"/>
      <path d="M20.8 16.05 L21.05 16.7 21.35 17.3 21.35 19.1 21.4 19.5 21.35 19.7 21.3 19.8 21.2 19.9 21.35 20.15 Q21.35 20.7 20.95 20.7 L16.6 18.15 16.4 18.0 16.05 17.85 14.3 16.55 14.35 16.55 14.6 16.5 13.9 15.5 13.85 15.45 13.15 14.8 13.05 14.75 13.1 14.75 14.7 15.7 15.05 16.05 15.8 16.5 16.65 16.95 17.05 17.3 18.4 17.75 19.15 18.15 19.4 18.2 Q19.7 18.2 19.8 17.25 L19.85 16.1 19.85 15.6 19.7 15.25 19.45 14.2 19.45 14.15 19.35 13.9 19.3 13.75 19.35 13.85 19.35 13.8 Q19.35 12.95 18.35 11.25 17.35 9.55 16.55 9.1 L16.5 9.1 18.35 11.5 18.85 12.6 18.8 12.5 18.75 12.4 18.7 12.35 18.2 11.5 18.15 11.45 17.8 11.0 17.25 10.35 16.3 9.3 14.65 8.4 14.8 8.15 13.8 7.0 16.2 8.5 16.9 8.95 17.3 9.35 18.15 10.15 19.1 12.0 19.8 13.9 20.35 15.75 20.9 18.4 21.1 17.65 20.8 16.05 M12.45 15.6 L5.6 19.55 5.3 19.7 5.25 19.85 5.0 20.1 4.1 20.45 Q3.7 20.45 3.7 19.85 L3.75 19.25 4.0 18.75 Q4.25 18.5 4.4 18.95 4.5 19.2 4.95 19.25 L5.0 19.25 5.6 18.9 6.6 18.35 Q7.1 17.9 8.4 17.15 L10.8 15.9 11.7 15.2 11.65 15.05 11.7 14.85 Q11.75 14.5 12.05 14.55 L12.15 14.6 12.2 14.6 12.35 14.9 12.25 15.2 12.5 15.45 12.45 15.6" fill="#9d5e0d" fill-rule="evenodd" stroke="none"/>
      <path d="M4.0 18.75 L4.15 17.9 4.25 17.65 4.3 17.85 4.45 17.75 4.5 16.15 4.7 15.25 4.65 15.8 4.7 16.25 4.8 16.2 5.45 13.55 5.85 12.2 6.2 11.45 6.35 10.8 6.3 10.7 Q5.65 11.05 5.1 13.25 L5.05 13.4 5.1 13.0 5.45 11.7 5.9 10.35 Q6.1 9.95 6.45 9.9 L6.5 9.9 Q8.0 9.2 8.55 8.7 8.9 8.35 10.75 7.1 L12.1 6.1 12.0 6.75 12.0 6.95 Q11.75 6.95 11.7 7.4 L8.1 9.55 7.8 10.0 7.05 11.3 7.0 11.4 6.2 13.65 5.8 15.95 5.25 17.75 Q5.25 18.2 5.7 18.2 L6.1 17.9 6.5 17.55 7.7 17.25 8.15 16.75 9.2 16.05 9.95 15.8 10.9 15.15 11.7 14.85 11.65 15.05 11.7 15.2 10.8 15.9 8.4 17.15 Q7.1 17.9 6.6 18.35 L5.6 18.9 5.0 19.25 4.95 19.25 Q4.5 19.2 4.4 18.95 4.25 18.5 4.0 18.75 M18.2 9.65 Q19.1 10.25 19.8 12.2 20.5 14.1 20.65 15.55 L20.6 15.4 20.05 13.55 Q20.05 12.6 18.75 10.55 L18.05 9.55 18.2 9.65 M12.35 5.95 L12.25 5.95 12.3 5.9 12.35 5.95 M7.6 9.6 Q6.95 9.85 6.25 12.0 5.6 13.95 5.6 14.75 L5.75 15.2 6.4 12.4 Q6.55 11.55 7.6 9.6" fill="#d37d10" fill-rule="evenodd" stroke="none"/>
      <path d="M21.35 19.7 L21.45 20.2 21.3 20.55 Q21.2 20.75 20.9 20.75 20.6 20.75 16.6 18.15 L20.95 20.7 Q21.35 20.7 21.35 20.15 L21.2 19.9 21.3 19.8 21.35 19.7 M16.05 17.85 L12.45 15.6 12.5 15.45 12.55 15.5 12.65 15.6 13.2 15.95 14.3 16.55 16.05 17.85 M5.6 19.55 L5.25 19.85 5.3 19.7 5.6 19.55 M12.05 5.5 L12.85 5.6 14.05 6.4 Q14.4 6.85 15.3 7.25 L16.7 7.95 17.45 8.35 17.55 8.55 17.1 8.35 14.55 6.95 13.5 6.25 12.45 5.65 12.35 5.75 12.05 5.5 M7.1 17.1 L7.05 17.15 7.0 17.15 7.1 17.1" fill="#e0d3b1" fill-rule="evenodd" stroke="none"/>
      <path d="M13.8 7.0 L14.8 8.15 14.65 8.4 14.5 8.45 14.4 8.45 13.9 8.25 13.65 8.1 13.15 7.65 12.65 7.4 12.15 7.15 12.0 6.95 12.0 6.75 12.1 6.1 12.15 6.0 12.25 5.95 12.35 5.95 13.45 6.6 13.8 7.0 M13.05 14.75 L13.15 14.8 13.85 15.45 13.9 15.5 14.6 16.5 14.35 16.55 14.3 16.55 13.2 15.95 12.65 15.6 12.55 15.5 12.5 15.45 12.25 15.2 12.35 14.9 12.75 14.7 13.05 14.75" fill="#623803" fill-rule="evenodd" stroke="none"/>
      <path d="M14.65 8.4 L16.3 9.3 17.25 10.35 Q15.9 9.8 15.2 9.15 L14.7 9.25 14.8 8.95 Q14.8 8.6 14.5 8.45 L14.65 8.4 M17.8 11.0 L18.15 11.45 17.75 11.0 17.65 11.2 17.9 11.8 18.3 12.35 18.7 13.6 19.4 15.9 19.4 17.7 19.15 17.65 19.1 17.6 Q18.7 17.3 18.3 17.3 L17.15 17.1 16.55 16.75 16.65 16.95 15.8 16.5 16.45 16.7 15.9 16.5 15.25 15.8 Q14.85 15.35 14.3 15.3 L14.25 15.3 14.7 15.7 13.1 14.75 13.15 14.7 13.85 15.05 14.1 15.05 14.1 15.0 13.15 14.5 13.15 14.45 Q13.15 14.1 12.8 14.1 L12.9 12.1 Q12.9 11.25 13.05 10.6 L13.15 9.4 13.0 7.9 Q12.9 7.4 12.7 7.45 L12.65 7.4 13.15 7.65 13.65 8.1 13.9 8.25 Q13.55 8.2 13.55 8.45 L13.7 8.75 13.4 9.25 Q13.45 9.7 14.1 9.7 L14.45 9.6 14.95 9.75 15.15 9.7 15.05 10.15 Q15.05 10.75 15.55 10.75 L16.35 10.75 Q16.7 10.75 16.85 10.9 L17.2 10.95 17.8 11.0 M19.3 13.75 L19.35 13.9 19.35 13.95 18.95 13.1 18.85 12.6 18.9 12.8 19.3 13.75 M11.7 7.4 L11.7 7.45 11.8 8.65 11.55 9.35 11.7 9.85 11.8 10.95 11.7 11.7 Q11.6 12.0 11.65 12.85 L11.25 14.7 11.35 14.7 10.9 14.85 Q10.2 14.9 9.7 15.35 L9.15 15.9 9.15 15.8 Q8.4 15.95 7.75 16.7 7.45 16.7 7.25 16.95 L7.1 17.1 7.0 17.15 6.25 17.25 6.65 15.6 6.95 13.6 6.95 13.25 Q6.6 13.3 6.4 14.0 L6.15 15.0 5.8 16.2 5.8 15.95 6.2 13.65 7.0 11.4 7.05 11.3 7.95 10.7 10.5 8.95 11.15 8.75 11.55 8.2 11.45 8.05 11.1 7.85 Q10.85 7.85 9.6 8.85 L9.35 9.15 9.05 9.4 8.15 9.85 7.8 10.0 8.1 9.55 11.7 7.4" fill="#3a2218" fill-rule="evenodd" stroke="none"/>
      <path d="M17.25 10.35 L17.8 11.0 17.2 10.95 16.85 10.9 Q16.7 10.75 16.35 10.75 L15.55 10.75 Q15.05 10.75 15.05 10.15 L15.15 9.7 14.95 9.75 14.45 9.6 14.1 9.7 Q13.45 9.7 13.4 9.25 L13.7 8.75 13.55 8.45 Q13.55 8.2 13.9 8.25 L14.4 8.45 14.5 8.45 Q14.8 8.6 14.8 8.95 L14.7 9.25 15.2 9.15 Q15.9 9.8 17.25 10.35 M7.8 10.0 L8.15 9.85 9.05 9.4 9.35 9.15 9.6 8.85 Q10.85 7.85 11.1 7.85 L11.45 8.05 11.55 8.2 11.15 8.75 10.5 8.95 7.95 10.7 7.05 11.3 7.8 10.0" fill="#6f4635" fill-rule="evenodd" stroke="none"/>
      <path d="M18.15 11.45 L18.2 11.5 18.7 12.35 18.75 12.4 18.8 12.5 18.85 12.6 18.95 13.1 19.35 13.95 19.35 13.9 19.45 14.15 19.45 14.2 19.7 15.25 19.85 15.6 19.85 16.1 19.8 17.25 Q19.7 18.2 19.4 18.2 L19.15 18.15 18.4 17.75 17.05 17.3 16.65 16.95 16.55 16.75 17.15 17.1 18.3 17.3 Q18.7 17.3 19.1 17.6 L19.15 17.65 19.4 17.7 19.4 15.9 18.7 13.6 18.3 12.35 17.9 11.8 17.65 11.2 17.75 11.0 18.15 11.45 M15.8 16.5 L15.05 16.05 14.7 15.7 14.25 15.3 14.3 15.3 Q14.85 15.35 15.25 15.8 L15.9 16.5 16.45 16.7 15.8 16.5 M13.1 14.75 L13.05 14.75 12.75 14.7 12.35 14.9 12.2 14.6 12.15 14.6 12.05 14.55 Q11.75 14.5 11.7 14.85 L10.9 15.15 9.95 15.8 9.2 16.05 8.15 16.75 7.7 17.25 6.5 17.55 6.1 17.9 5.7 18.2 Q5.25 18.2 5.25 17.75 L5.8 15.95 5.8 16.2 6.15 15.0 6.4 14.0 Q6.6 13.3 6.95 13.25 L6.95 13.6 6.65 15.6 6.25 17.25 7.0 17.15 7.05 17.15 7.1 17.1 7.25 16.95 Q7.45 16.7 7.75 16.7 8.4 15.95 9.15 15.8 L9.15 15.9 9.7 15.35 Q10.2 14.9 10.9 14.85 L11.35 14.7 11.25 14.7 11.65 12.85 Q11.6 12.0 11.7 11.7 L11.8 10.95 11.7 9.85 11.55 9.35 11.8 8.65 11.7 7.45 11.7 7.4 Q11.75 6.95 12.0 6.95 L12.15 7.15 12.65 7.4 12.7 7.45 Q12.9 7.4 13.0 7.9 L13.15 9.4 13.05 10.6 Q12.9 11.25 12.9 12.1 L12.8 14.1 Q13.15 14.1 13.15 14.45 L13.15 14.5 14.1 15.0 14.1 15.05 13.85 15.05 13.15 14.7 13.1 14.75" fill="#201713" fill-rule="evenodd" stroke="none"/>
      <path d="M11.9 9.55 Q11.9 9.35 12.35 9.35 L13.35 10.0 12.95 9.95 12.6 9.75 11.95 9.7 11.9 9.55 M14.85 12.25 L15.0 12.8 Q15.0 13.4 14.35 13.4 L13.65 13.15 13.45 12.8 12.55 12.8 12.5 12.65 12.7 12.6 13.9 12.7 14.45 12.9 14.5 12.8 14.45 12.25 14.3 12.0 14.3 11.7 14.35 11.7 14.85 12.25 M14.95 11.1 Q15.75 12.1 15.75 12.5 L15.55 12.85 13.8 10.3 Q14.1 10.05 14.95 11.1 M16.25 13.6 Q16.25 14.25 15.65 14.25 L15.3 14.1 15.3 14.0 16.0 13.4 Q16.25 13.05 16.25 13.6" fill="#ff7c3b" fill-rule="evenodd" stroke="none"/>
      <path d="M12.35 13.45 L12.05 13.55 12.15 13.4 12.25 13.4 12.3 13.4 12.35 13.45" fill="#ffb53b" fill-rule="evenodd" stroke="none"/>
      <path d="M10.8 10.05 L10.75 10.0 10.95 9.85 10.95 9.95 10.8 10.05 M9.8 10.7 Q8.7 11.7 8.7 12.65 8.7 13.45 9.85 13.75 L9.6 13.95 Q8.85 13.95 8.5 13.45 L8.3 12.85 Q8.3 12.25 8.75 11.6 9.15 11.0 9.8 10.7 M9.8 12.15 Q9.8 12.95 10.15 12.95 L10.75 12.75 Q11.0 12.6 11.15 12.6 L11.45 12.7 11.7 12.7 11.35 13.05 10.95 13.4 10.2 13.6 Q9.6 13.6 9.3 13.25 L9.15 12.8 Q9.15 12.1 9.75 11.65 L9.9 11.75 9.8 12.15 M9.95 13.95 L10.3 13.95 11.0 13.75 11.3 13.45 11.45 13.6 11.2 13.95 10.55 14.15 9.95 14.05 9.95 13.95" fill="#ed6124" fill-rule="evenodd" stroke="none"/>
      <path d="M11.95 8.55 L12.0 8.55 12.05 8.5 12.1 8.45 12.15 8.45 12.35 8.45 12.4 8.45 12.7 8.55 Q16.95 10.05 17.3 12.6 L17.4 13.5 Q17.4 15.4 15.85 15.4 L13.75 14.9 Q13.05 14.7 12.5 14.15 L12.35 14.15 12.25 14.15 Q11.85 14.1 11.85 13.75 L11.85 13.7 12.05 13.55 12.35 13.45 12.75 13.7 12.95 13.75 13.45 14.2 14.05 14.5 15.6 14.85 16.15 14.75 Q16.7 14.6 16.7 13.7 16.7 11.3 13.75 9.4 13.2 8.95 12.5 8.95 L12.4 9.0 12.2 9.0 12.15 9.0 11.8 8.95 11.7 8.75 11.95 8.55" fill="#e79c21" fill-rule="evenodd" stroke="none"/>
      <path d="M12.2 9.0 L12.4 9.0 12.5 8.95 Q13.2 8.95 13.75 9.4 16.7 11.3 16.7 13.7 16.7 14.6 16.15 14.75 L15.6 14.85 14.05 14.5 13.45 14.2 12.95 13.75 12.75 13.7 12.35 13.45 12.3 13.4 12.25 13.4 Q11.85 13.4 11.95 13.0 L11.9 12.65 12.0 12.55 12.05 11.1 12.0 10.7 11.85 9.7 11.95 9.35 12.05 9.2 12.15 9.05 12.2 9.0 M11.9 9.55 L11.95 9.7 12.6 9.75 12.95 9.95 13.35 10.0 12.35 9.35 Q11.9 9.35 11.9 9.55 M14.95 11.1 Q14.1 10.05 13.8 10.3 L15.55 12.85 15.75 12.5 Q15.75 12.1 14.95 11.1 M14.85 12.25 L14.35 11.7 14.3 11.7 14.3 12.0 14.45 12.25 14.5 12.8 14.45 12.9 13.9 12.7 12.7 12.6 12.5 12.65 12.55 12.8 13.45 12.8 13.65 13.15 14.35 13.4 Q15.0 13.4 15.0 12.8 L14.85 12.25 M16.25 13.6 Q16.25 13.05 16.0 13.4 L15.3 14.0 15.3 14.1 15.65 14.25 Q16.25 14.25 16.25 13.6" fill="#dd5317" fill-rule="evenodd" stroke="none"/>
      <path d="M12.25 14.15 L11.65 14.5 Q10.7 15.1 9.75 15.1 7.7 15.1 7.7 13.1 7.7 11.3 8.9 10.05 10.0 8.9 11.95 8.55 L11.7 8.75 11.8 8.95 11.75 8.95 11.25 9.2 10.35 9.65 Q8.55 10.8 8.35 12.2 8.1 12.7 8.0 13.25 L8.05 13.3 8.05 13.4 Q8.3 14.75 9.8 14.75 10.7 14.75 11.8 13.75 L11.85 13.7 11.85 13.75 Q11.85 14.1 12.25 14.15" fill="#ffbe55" fill-rule="evenodd" stroke="none"/>
      <path d="M11.8 8.95 L12.15 9.0 12.2 9.0 12.15 9.05 12.05 9.2 11.95 9.35 11.85 9.7 12.0 10.7 12.05 11.1 12.0 12.55 11.9 12.65 11.95 13.0 Q11.85 13.4 12.25 13.4 L12.15 13.4 12.05 13.55 11.85 13.7 11.8 13.75 Q10.7 14.75 9.8 14.75 8.3 14.75 8.05 13.4 L8.05 13.3 8.0 13.25 Q8.1 12.7 8.35 12.2 8.55 10.8 10.35 9.65 L11.25 9.2 11.75 8.95 11.8 8.95 M10.8 10.05 L10.95 9.95 10.95 9.85 10.75 10.0 10.8 10.05 M9.95 13.95 L9.95 14.05 10.55 14.15 11.2 13.95 11.45 13.6 11.3 13.45 11.0 13.75 10.3 13.95 9.95 13.95 M9.8 12.15 L9.9 11.75 9.75 11.65 Q9.15 12.1 9.15 12.8 L9.3 13.25 Q9.6 13.6 10.2 13.6 L10.95 13.4 11.35 13.05 11.7 12.7 11.45 12.7 11.15 12.6 Q11.0 12.6 10.75 12.75 L10.15 12.95 Q9.8 12.95 9.8 12.15 M9.8 10.7 Q9.15 11.0 8.75 11.6 8.3 12.25 8.3 12.85 L8.5 13.45 Q8.85 13.95 9.6 13.95 L9.85 13.75 Q8.7 13.45 8.7 12.65 8.7 11.7 9.8 10.7" fill="#ff894f" fill-rule="evenodd" stroke="none"/>
      <path d="M12.15 5.7 L12.15 5.75 12.1 5.7 12.1 5.75 8.65 8.1 Q6.75 9.45 5.95 11.5 5.2 13.35 4.9 15.35 4.65 17.15 4.55 19.05 L4.45 19.95 8.1 17.85 9.15 17.25 11.05 16.05 12.45 15.3 12.45 15.35 Q13.55 15.85 14.35 16.45 15.7 17.5 17.25 18.2 L20.75 20.05 Q20.7 18.9 20.8 17.9 20.9 16.6 20.4 14.55 19.9 12.45 18.8 10.75 17.75 9.1 15.85 8.0 L12.15 5.75 12.15 5.7 M11.5 5.7 L12.25 5.25 Q14.0 6.4 16.05 7.35 17.95 8.3 18.65 9.65 L19.95 12.35 20.8 14.85 21.45 17.95 Q21.85 19.75 21.15 20.9 L18.1 19.35 14.3 17.05 12.45 15.55 Q10.85 16.55 9.2 17.65 L5.35 20.0 3.95 20.75 Q3.15 19.85 3.45 18.6 L3.8 18.3 4.2 15.25 Q4.45 13.65 5.0 12.25 L6.25 9.45 Q6.85 8.35 8.15 7.65 L10.15 6.45 Q10.8 6.1 11.5 5.7" fill="#2f2216" fill-rule="evenodd" stroke="none"/>
    </g>
  </defs>
</svg>
