<?xml version="1.0" encoding="UTF-8" standalone="no"?>
<svg xmlns:ffdec="https://www.free-decompiler.com/flash" xmlns:xlink="http://www.w3.org/1999/xlink" ffdec:objectType="frame" height="61.35px" width="61.05px" xmlns="http://www.w3.org/2000/svg">
  <g transform="matrix(1.0, 0.0, 0.0, 1.0, 30.55, 73.1)">
    <use ffdec:characterId="2" height="21.7" transform="matrix(1.0, 0.0, 0.0, 1.0, -1.65, -40.45)" width="4.9" xlink:href="#sprite0"/>
    <use ffdec:characterId="13" height="61.35" transform="matrix(1.0, 0.0, 0.0, 1.0, 0.0, -42.45)" width="61.05" xlink:href="#sprite1"/>
  </g>
  <defs>
    <g id="sprite0">
      <use ffdec:characterId="1" height="21.7" transform="matrix(1.0, 0.0, 0.0, 1.0, 0.0, 0.0)" width="4.9" xlink:href="#shape0"/>
    </g>
    <g id="shape0">
      <path d="M0.0 11.7 Q1.95 10.4 3.9 11.7 L3.9 15.05 Q1.85 13.95 0.0 15.05 L0.0 11.7" fill="#98847c" fill-rule="evenodd" stroke="none"/>
      <path d="M0.0 15.05 Q1.85 13.95 3.9 15.05 L3.9 19.9 Q2.0 21.55 0.0 19.9 L0.0 15.05" fill="#bc9e94" fill-rule="evenodd" stroke="none"/>
      <path d="M3.9 11.7 Q1.95 10.4 0.0 11.7 L0.0 0.85 Q1.75 -0.85 3.9 0.85 L3.9 11.7" fill="#96786a" fill-rule="evenodd" stroke="none"/>
      <path d="M0.0 11.7 L0.0 15.05 0.0 19.9 Q2.0 21.55 3.9 19.9 L3.9 15.05 3.9 11.7 3.9 0.85 Q1.75 -0.85 0.0 0.85 L0.0 11.7 Z" fill="none" stroke="#372d28" stroke-linecap="round" stroke-linejoin="round" stroke-width="1.0"/>
      <path d="M2.4 18.05 L2.05 20.0 Q1.85 20.0 1.65 18.05 L1.55 13.4 1.65 8.7 Q1.85 6.8 2.05 6.8 L2.4 8.7 2.55 13.4 2.4 18.05" fill="#ffffff" fill-rule="evenodd" stroke="none"/>
      <path d="M1.3 2.35 L1.05 1.8 1.3 1.2 Q1.55 0.95 1.9 0.95 L2.5 1.2 2.75 1.8 2.5 2.35 1.9 2.6 1.3 2.35" fill="#ffffff" fill-rule="evenodd" stroke="none"/>
    </g>
    <g id="sprite1">
      <use ffdec:characterId="12" height="44.65" transform="matrix(1.0, 0.0, 0.0, 1.0, 0.0, 0.0)" width="42.5" xlink:href="#sprite2"/>
    </g>
    <g id="sprite2">
      <use ffdec:characterId="4" height="19.15" transform="matrix(0.7872, 0.0, 0.0, 0.7872, -4.65, -13.95)" width="33.45" xlink:href="#sprite3"/>
      <use ffdec:characterId="4" height="19.15" transform="matrix(0.0, 0.7872, -0.7872, 0.0, 13.7, -3.55)" width="33.45" xlink:href="#sprite4"/>
      <use ffdec:characterId="4" height="19.15" transform="matrix(-0.7872, 0.0, 0.0, -0.7872, 4.65, 13.45)" width="33.45" xlink:href="#sprite5"/>
      <use ffdec:characterId="6" height="24.05" transform="matrix(1.0876, 0.0, 0.0, 1.0876, -15.05, -22.0)" width="13.75" xlink:href="#sprite6"/>
      <use ffdec:characterId="11" height="39.4" transform="matrix(1.0, 0.0, 0.0, 1.0, 0.0, 0.0)" width="39.15" xlink:href="#shape5"/>
    </g>
    <g id="sprite3">
      <use ffdec:characterId="3" height="19.15" transform="matrix(1.0, 0.0, 0.0, 1.0, 0.0, 0.0)" width="33.45" xlink:href="#shape1"/>
    </g>
    <g id="shape1">
      <path d="M17.35 0.25 L17.65 0.25 18.4 0.35 19.45 0.5 Q20.6 0.8 20.6 1.1 L20.55 1.15 Q22.7 1.25 22.8 1.8 23.25 1.95 23.35 2.2 L25.4 3.0 Q31.65 5.65 31.65 6.35 31.65 6.55 29.7 7.3 27.1 8.35 25.5 9.25 L23.85 9.95 22.25 10.45 Q20.95 10.7 20.6 11.05 L19.7 11.65 Q19.7 12.0 18.9 12.05 L18.8 12.1 16.5 12.95 13.95 14.0 11.45 15.05 9.75 15.8 9.65 16.05 9.4 16.4 8.95 16.1 8.95 15.75 8.9 15.7 8.85 15.9 8.75 15.8 8.45 14.2 8.45 13.7 8.55 12.7 8.65 12.0 8.8 13.1 8.7 13.55 Q8.7 13.9 9.05 14.0 L9.1 13.95 Q9.05 11.45 11.2 7.25 12.65 4.45 14.9 2.3 L16.9 0.7 16.65 0.3 17.35 0.25 M8.5 16.35 Q5.75 17.85 5.0 17.85 4.25 17.85 2.5 15.75 1.2 14.35 0.9 13.5 L0.25 11.05 0.2 10.35 0.5 10.9 0.8 9.45 Q1.4 7.2 3.45 6.2 L9.1 3.95 8.15 6.4 Q7.55 7.95 7.35 10.95 7.1 13.9 8.5 16.35 M15.35 6.15 L13.8 8.2 13.25 8.9 10.4 13.55 28.45 6.0 Q25.15 3.65 19.65 2.25 16.65 4.45 15.35 6.15 M4.4 7.25 L2.0 8.35 Q1.25 10.95 2.65 13.05 L3.7 14.45 5.35 13.7 5.9 13.4 6.55 12.95 Q6.1 10.45 6.45 7.95 L6.7 6.3 4.4 7.25" fill="#ffa000" fill-rule="evenodd" stroke="none"/>
      <path d="M16.65 0.3 L16.9 0.7 14.9 2.3 Q12.65 4.45 11.2 7.25 9.05 11.45 9.1 13.95 L9.05 14.0 Q8.7 13.9 8.7 13.55 L8.8 13.1 8.65 12.0 8.65 11.6 8.75 10.65 9.35 8.45 Q9.95 6.7 10.45 5.75 L11.15 4.3 Q11.6 3.4 12.15 2.85 13.9 0.95 15.05 0.4 L15.9 0.15 16.65 0.3" fill="#ff8c00" fill-rule="evenodd" stroke="none"/>
      <path d="M8.8 16.2 L8.65 16.25 8.75 15.8 8.85 15.9 8.8 16.2 M0.5 6.45 Q0.7 5.85 1.05 5.55 L1.3 5.4 0.5 6.45 M6.15 3.15 L6.85 2.65 Q8.1 1.8 9.75 1.6 L9.85 1.6 9.15 2.0 6.15 3.15 M14.2 0.2 L16.05 0.05 17.35 0.25 16.65 0.3 15.9 0.15 15.05 0.4 14.4 0.55 13.5 1.1 14.2 0.2" fill="#a25eff" fill-rule="evenodd" stroke="none"/>
      <path d="M15.35 6.15 Q16.65 4.45 19.65 2.25 25.15 3.65 28.45 6.0 L10.4 13.55 13.25 8.9 13.8 8.2 15.35 6.15 M4.4 7.25 L6.7 6.3 6.45 7.95 Q6.1 10.45 6.55 12.95 L5.9 13.4 5.35 13.7 3.7 14.45 2.65 13.05 Q1.25 10.95 2.0 8.35 L4.4 7.25" fill="#ffe29c" fill-rule="evenodd" stroke="none"/>
      <path d="M8.65 16.25 L8.5 16.35 Q7.1 13.9 7.35 10.95 7.55 7.95 8.15 6.4 L9.1 3.95 3.45 6.2 Q1.4 7.2 0.8 9.45 L0.5 10.9 0.2 10.35 Q0.1 8.85 0.35 7.25 L0.5 6.45 1.3 5.4 Q3.15 4.1 5.15 3.5 L6.15 3.15 9.15 2.0 9.85 1.6 13.4 -0.1 14.2 0.2 13.5 1.1 12.95 1.65 11.55 3.3 Q10.65 4.4 10.4 5.1 L9.65 6.95 Q9.3 7.7 8.75 10.55 L8.75 10.65 8.65 11.6 8.65 12.0 8.55 12.7 8.45 13.7 8.45 14.2 8.75 15.8 8.65 16.25" fill="#ffb819" fill-rule="evenodd" stroke="none"/>
      <path d="M13.5 1.1 L14.4 0.55 15.05 0.4 Q13.9 0.95 12.15 2.85 11.6 3.4 11.15 4.3 L10.45 5.75 Q9.95 6.7 9.35 8.45 L8.75 10.65 8.75 10.55 Q9.3 7.7 9.65 6.95 L10.4 5.1 Q10.65 4.4 11.55 3.3 L12.95 1.65 13.5 1.1" fill="#5e00c2" fill-rule="evenodd" stroke="none"/>
      <path d="M9.65 16.05 L9.6 16.45 Q9.3 16.5 8.9 16.7 L8.8 16.75 8.7 16.5 8.8 16.2 8.85 15.9 8.9 15.7 8.95 15.75 8.95 16.1 9.4 16.4 9.65 16.05" fill="#6b24e0" fill-rule="evenodd" stroke="none"/>
      <path d="M0.7 5.45 Q-1.85 11.9 4.7 18.15" ffdec:has-small-stroke="true" ffdec:original-stroke-width="1.0" fill="none" stroke="#996600" stroke-linecap="round" stroke-linejoin="round" stroke-width="1.2702744611567685"/>
      <path d="M0.7 5.3 L12.4 0.3" ffdec:has-small-stroke="true" ffdec:original-stroke-width="1.0" fill="none" stroke="#996600" stroke-linecap="round" stroke-linejoin="round" stroke-width="1.2702744611567685"/>
      <path d="M4.95 18.05 L32.4 6.45" ffdec:has-small-stroke="true" ffdec:original-stroke-width="1.0" fill="none" stroke="#996600" stroke-linecap="round" stroke-linejoin="round" stroke-width="1.2702744611567685"/>
      <path d="M12.35 0.3 Q18.9 -1.45 32.45 6.35" ffdec:has-small-stroke="true" ffdec:original-stroke-width="1.0" fill="none" stroke="#996600" stroke-linecap="round" stroke-linejoin="round" stroke-width="1.2702744611567685"/>
      <path d="M12.2 2.3 Q8.1 7.1 8.9 16.1" ffdec:has-small-stroke="true" ffdec:original-stroke-width="1.0" fill="none" stroke="#996600" stroke-linecap="round" stroke-linejoin="round" stroke-width="1.2702744611567685"/>
      <path d="M12.2 2.35 Q13.15 1.15 15.55 0.2" ffdec:has-small-stroke="true" ffdec:original-stroke-width="1.0" fill="none" stroke="#996600" stroke-linecap="round" stroke-linejoin="round" stroke-width="1.2702744611567685"/>
      <path d="M1.05 11.25 Q0.7 10.65 0.7 10.1 0.65 7.0 3.5 5.6 6.2 4.45 9.75 3.45 8.05 6.65 7.7 8.95 7.15 8.2 7.15 7.8 L7.1 7.5 6.8 7.05 6.2 7.25 Q3.25 7.95 1.3 10.05 L1.05 11.25" fill="#ffcc33" fill-rule="evenodd" stroke="none"/>
    </g>
    <g id="sprite4">
      <use ffdec:characterId="3" height="19.15" transform="matrix(1.0, 0.0, 0.0, 1.0, 0.0, 0.0)" width="33.45" xlink:href="#shape2"/>
    </g>
    <g id="shape2">
      <path d="M17.35 0.25 L17.65 0.25 18.4 0.35 19.45 0.5 Q20.6 0.8 20.6 1.1 L20.55 1.15 Q22.7 1.25 22.8 1.8 23.25 1.95 23.35 2.2 L25.4 3.0 Q31.65 5.65 31.65 6.35 31.65 6.55 29.7 7.3 27.1 8.35 25.5 9.25 L23.85 9.95 22.25 10.45 Q20.95 10.7 20.6 11.05 L19.7 11.65 Q19.7 12.0 18.9 12.05 L18.8 12.1 16.5 12.95 13.95 14.0 11.45 15.05 9.75 15.8 9.65 16.05 9.4 16.4 8.95 16.1 8.95 15.75 8.9 15.7 8.85 15.9 8.75 15.8 8.45 14.2 8.45 13.7 8.55 12.7 8.65 12.0 8.8 13.1 8.7 13.55 Q8.7 13.9 9.05 14.0 L9.1 13.95 Q9.05 11.45 11.2 7.25 12.65 4.45 14.9 2.3 L16.9 0.7 16.65 0.3 17.35 0.25 M8.5 16.35 Q5.75 17.85 5.0 17.85 4.25 17.85 2.5 15.75 1.2 14.35 0.9 13.5 L0.25 11.05 0.2 10.35 0.5 10.9 0.8 9.45 Q1.4 7.2 3.45 6.2 L9.1 3.95 8.15 6.4 Q7.55 7.95 7.35 10.95 7.1 13.9 8.5 16.35 M15.35 6.15 L13.8 8.2 13.25 8.9 10.4 13.55 28.45 6.0 Q25.15 3.65 19.65 2.25 16.65 4.45 15.35 6.15 M4.4 7.25 L2.0 8.35 Q1.25 10.95 2.65 13.05 L3.7 14.45 5.35 13.7 5.9 13.4 6.55 12.95 Q6.1 10.45 6.45 7.95 L6.7 6.3 4.4 7.25" fill="#ffa000" fill-rule="evenodd" stroke="none"/>
      <path d="M16.65 0.3 L16.9 0.7 14.9 2.3 Q12.65 4.45 11.2 7.25 9.05 11.45 9.1 13.95 L9.05 14.0 Q8.7 13.9 8.7 13.55 L8.8 13.1 8.65 12.0 8.65 11.6 8.75 10.65 9.35 8.45 Q9.95 6.7 10.45 5.75 L11.15 4.3 Q11.6 3.4 12.15 2.85 13.9 0.95 15.05 0.4 L15.9 0.15 16.65 0.3" fill="#ff8c00" fill-rule="evenodd" stroke="none"/>
      <path d="M8.8 16.2 L8.65 16.25 8.75 15.8 8.85 15.9 8.8 16.2 M0.5 6.45 Q0.7 5.85 1.05 5.55 L1.3 5.4 0.5 6.45 M6.15 3.15 L6.85 2.65 Q8.1 1.8 9.75 1.6 L9.85 1.6 9.15 2.0 6.15 3.15 M14.2 0.2 L16.05 0.05 17.35 0.25 16.65 0.3 15.9 0.15 15.05 0.4 14.4 0.55 13.5 1.1 14.2 0.2" fill="#a25eff" fill-rule="evenodd" stroke="none"/>
      <path d="M15.35 6.15 Q16.65 4.45 19.65 2.25 25.15 3.65 28.45 6.0 L10.4 13.55 13.25 8.9 13.8 8.2 15.35 6.15 M4.4 7.25 L6.7 6.3 6.45 7.95 Q6.1 10.45 6.55 12.95 L5.9 13.4 5.35 13.7 3.7 14.45 2.65 13.05 Q1.25 10.95 2.0 8.35 L4.4 7.25" fill="#ffe29c" fill-rule="evenodd" stroke="none"/>
      <path d="M8.65 16.25 L8.5 16.35 Q7.1 13.9 7.35 10.95 7.55 7.95 8.15 6.4 L9.1 3.95 3.45 6.2 Q1.4 7.2 0.8 9.45 L0.5 10.9 0.2 10.35 Q0.1 8.85 0.35 7.25 L0.5 6.45 1.3 5.4 Q3.15 4.1 5.15 3.5 L6.15 3.15 9.15 2.0 9.85 1.6 13.4 -0.1 14.2 0.2 13.5 1.1 12.95 1.65 11.55 3.3 Q10.65 4.4 10.4 5.1 L9.65 6.95 Q9.3 7.7 8.75 10.55 L8.75 10.65 8.65 11.6 8.65 12.0 8.55 12.7 8.45 13.7 8.45 14.2 8.75 15.8 8.65 16.25" fill="#ffb819" fill-rule="evenodd" stroke="none"/>
      <path d="M13.5 1.1 L14.4 0.55 15.05 0.4 Q13.9 0.95 12.15 2.85 11.6 3.4 11.15 4.3 L10.45 5.75 Q9.95 6.7 9.35 8.45 L8.75 10.65 8.75 10.55 Q9.3 7.7 9.65 6.95 L10.4 5.1 Q10.65 4.4 11.55 3.3 L12.95 1.65 13.5 1.1" fill="#5e00c2" fill-rule="evenodd" stroke="none"/>
      <path d="M9.65 16.05 L9.6 16.45 Q9.3 16.5 8.9 16.7 L8.8 16.75 8.7 16.5 8.8 16.2 8.85 15.9 8.9 15.7 8.95 15.75 8.95 16.1 9.4 16.4 9.65 16.05" fill="#6b24e0" fill-rule="evenodd" stroke="none"/>
      <path d="M0.7 5.45 Q-1.85 11.9 4.7 18.15" ffdec:has-small-stroke="true" ffdec:original-stroke-width="1.0" fill="none" stroke="#996600" stroke-linecap="round" stroke-linejoin="round" stroke-width="1.2702744611567685"/>
      <path d="M0.7 5.3 L12.4 0.3" ffdec:has-small-stroke="true" ffdec:original-stroke-width="1.0" fill="none" stroke="#996600" stroke-linecap="round" stroke-linejoin="round" stroke-width="1.2702744611567685"/>
      <path d="M4.95 18.05 L32.4 6.45" ffdec:has-small-stroke="true" ffdec:original-stroke-width="1.0" fill="none" stroke="#996600" stroke-linecap="round" stroke-linejoin="round" stroke-width="1.2702744611567685"/>
      <path d="M12.35 0.3 Q18.9 -1.45 32.45 6.35" ffdec:has-small-stroke="true" ffdec:original-stroke-width="1.0" fill="none" stroke="#996600" stroke-linecap="round" stroke-linejoin="round" stroke-width="1.2702744611567685"/>
      <path d="M12.2 2.3 Q8.1 7.1 8.9 16.1" ffdec:has-small-stroke="true" ffdec:original-stroke-width="1.0" fill="none" stroke="#996600" stroke-linecap="round" stroke-linejoin="round" stroke-width="1.2702744611567685"/>
      <path d="M12.2 2.35 Q13.15 1.15 15.55 0.2" ffdec:has-small-stroke="true" ffdec:original-stroke-width="1.0" fill="none" stroke="#996600" stroke-linecap="round" stroke-linejoin="round" stroke-width="1.2702744611567685"/>
      <path d="M1.05 11.25 Q0.7 10.65 0.7 10.1 0.65 7.0 3.5 5.6 6.2 4.45 9.75 3.45 8.05 6.65 7.7 8.95 7.15 8.2 7.15 7.8 L7.1 7.5 6.8 7.05 6.2 7.25 Q3.25 7.95 1.3 10.05 L1.05 11.25" fill="#ffcc33" fill-rule="evenodd" stroke="none"/>
    </g>
    <g id="sprite5">
      <use ffdec:characterId="3" height="19.15" transform="matrix(1.0, 0.0, 0.0, 1.0, 0.0, 0.0)" width="33.45" xlink:href="#shape3"/>
    </g>
    <g id="shape3">
      <path d="M17.35 0.25 L17.65 0.25 18.4 0.35 19.45 0.5 Q20.6 0.8 20.6 1.1 L20.55 1.15 Q22.7 1.25 22.8 1.8 23.25 1.95 23.35 2.2 L25.4 3.0 Q31.65 5.65 31.65 6.35 31.65 6.55 29.7 7.3 27.1 8.35 25.5 9.25 L23.85 9.95 22.25 10.45 Q20.95 10.7 20.6 11.05 L19.7 11.65 Q19.7 12.0 18.9 12.05 L18.8 12.1 16.5 12.95 13.95 14.0 11.45 15.05 9.75 15.8 9.65 16.05 9.4 16.4 8.95 16.1 8.95 15.75 8.9 15.7 8.85 15.9 8.75 15.8 8.45 14.2 8.45 13.7 8.55 12.7 8.65 12.0 8.8 13.1 8.7 13.55 Q8.7 13.9 9.05 14.0 L9.1 13.95 Q9.05 11.45 11.2 7.25 12.65 4.45 14.9 2.3 L16.9 0.7 16.65 0.3 17.35 0.25 M8.5 16.35 Q5.75 17.85 5.0 17.85 4.25 17.85 2.5 15.75 1.2 14.35 0.9 13.5 L0.25 11.05 0.2 10.35 0.5 10.9 0.8 9.45 Q1.4 7.2 3.45 6.2 L9.1 3.95 8.15 6.4 Q7.55 7.95 7.35 10.95 7.1 13.9 8.5 16.35 M15.35 6.15 L13.8 8.2 13.25 8.9 10.4 13.55 28.45 6.0 Q25.15 3.65 19.65 2.25 16.65 4.45 15.35 6.15 M4.4 7.25 L2.0 8.35 Q1.25 10.95 2.65 13.05 L3.7 14.45 5.35 13.7 5.9 13.4 6.55 12.95 Q6.1 10.45 6.45 7.95 L6.7 6.3 4.4 7.25" fill="#ffa000" fill-rule="evenodd" stroke="none"/>
      <path d="M16.65 0.3 L16.9 0.7 14.9 2.3 Q12.65 4.45 11.2 7.25 9.05 11.45 9.1 13.95 L9.05 14.0 Q8.7 13.9 8.7 13.55 L8.8 13.1 8.65 12.0 8.65 11.6 8.75 10.65 9.35 8.45 Q9.95 6.7 10.45 5.75 L11.15 4.3 Q11.6 3.4 12.15 2.85 13.9 0.95 15.05 0.4 L15.9 0.15 16.65 0.3" fill="#ff8c00" fill-rule="evenodd" stroke="none"/>
      <path d="M8.8 16.2 L8.65 16.25 8.75 15.8 8.85 15.9 8.8 16.2 M0.5 6.45 Q0.7 5.85 1.05 5.55 L1.3 5.4 0.5 6.45 M6.15 3.15 L6.85 2.65 Q8.1 1.8 9.75 1.6 L9.85 1.6 9.15 2.0 6.15 3.15 M14.2 0.2 L16.05 0.05 17.35 0.25 16.65 0.3 15.9 0.15 15.05 0.4 14.4 0.55 13.5 1.1 14.2 0.2" fill="#a25eff" fill-rule="evenodd" stroke="none"/>
      <path d="M15.35 6.15 Q16.65 4.45 19.65 2.25 25.15 3.65 28.45 6.0 L10.4 13.55 13.25 8.9 13.8 8.2 15.35 6.15 M4.4 7.25 L6.7 6.3 6.45 7.95 Q6.1 10.45 6.55 12.95 L5.9 13.4 5.35 13.7 3.7 14.45 2.65 13.05 Q1.25 10.95 2.0 8.35 L4.4 7.25" fill="#ffe29c" fill-rule="evenodd" stroke="none"/>
      <path d="M8.65 16.25 L8.5 16.35 Q7.1 13.9 7.35 10.95 7.55 7.95 8.15 6.4 L9.1 3.95 3.45 6.2 Q1.4 7.2 0.8 9.45 L0.5 10.9 0.2 10.35 Q0.1 8.85 0.35 7.25 L0.5 6.45 1.3 5.4 Q3.15 4.1 5.15 3.5 L6.15 3.15 9.15 2.0 9.85 1.6 13.4 -0.1 14.2 0.2 13.5 1.1 12.95 1.65 11.55 3.3 Q10.65 4.4 10.4 5.1 L9.65 6.95 Q9.3 7.7 8.75 10.55 L8.75 10.65 8.65 11.6 8.65 12.0 8.55 12.7 8.45 13.7 8.45 14.2 8.75 15.8 8.65 16.25" fill="#ffb819" fill-rule="evenodd" stroke="none"/>
      <path d="M13.5 1.1 L14.4 0.55 15.05 0.4 Q13.9 0.95 12.15 2.85 11.6 3.4 11.15 4.3 L10.45 5.75 Q9.95 6.7 9.35 8.45 L8.75 10.65 8.75 10.55 Q9.3 7.7 9.65 6.95 L10.4 5.1 Q10.65 4.4 11.55 3.3 L12.95 1.65 13.5 1.1" fill="#5e00c2" fill-rule="evenodd" stroke="none"/>
      <path d="M9.65 16.05 L9.6 16.45 Q9.3 16.5 8.9 16.7 L8.8 16.75 8.7 16.5 8.8 16.2 8.85 15.9 8.9 15.7 8.95 15.75 8.95 16.1 9.4 16.4 9.65 16.05" fill="#6b24e0" fill-rule="evenodd" stroke="none"/>
      <path d="M0.7 5.45 Q-1.85 11.9 4.7 18.15" ffdec:has-small-stroke="true" ffdec:original-stroke-width="1.0" fill="none" stroke="#996600" stroke-linecap="round" stroke-linejoin="round" stroke-width="1.2702744611567685"/>
      <path d="M0.7 5.3 L12.4 0.3" ffdec:has-small-stroke="true" ffdec:original-stroke-width="1.0" fill="none" stroke="#996600" stroke-linecap="round" stroke-linejoin="round" stroke-width="1.2702744611567685"/>
      <path d="M4.95 18.05 L32.4 6.45" ffdec:has-small-stroke="true" ffdec:original-stroke-width="1.0" fill="none" stroke="#996600" stroke-linecap="round" stroke-linejoin="round" stroke-width="1.2702744611567685"/>
      <path d="M12.35 0.3 Q18.9 -1.45 32.45 6.35" ffdec:has-small-stroke="true" ffdec:original-stroke-width="1.0" fill="none" stroke="#996600" stroke-linecap="round" stroke-linejoin="round" stroke-width="1.2702744611567685"/>
      <path d="M12.2 2.3 Q8.1 7.1 8.9 16.1" ffdec:has-small-stroke="true" ffdec:original-stroke-width="1.0" fill="none" stroke="#996600" stroke-linecap="round" stroke-linejoin="round" stroke-width="1.2702744611567685"/>
      <path d="M12.2 2.35 Q13.15 1.15 15.55 0.2" ffdec:has-small-stroke="true" ffdec:original-stroke-width="1.0" fill="none" stroke="#996600" stroke-linecap="round" stroke-linejoin="round" stroke-width="1.2702744611567685"/>
      <path d="M1.05 11.25 Q0.7 10.65 0.7 10.1 0.65 7.0 3.5 5.6 6.2 4.45 9.75 3.45 8.05 6.65 7.7 8.95 7.15 8.2 7.15 7.8 L7.1 7.5 6.8 7.05 6.2 7.25 Q3.25 7.95 1.3 10.05 L1.05 11.25" fill="#ffcc33" fill-rule="evenodd" stroke="none"/>
    </g>
    <g id="sprite6">
      <use ffdec:characterId="5" height="24.05" transform="matrix(1.0, 0.0, 0.0, 1.0, 0.0, 0.0)" width="13.75" xlink:href="#shape4"/>
    </g>
    <g id="shape4">
      <path d="M0.15 10.95 L0.15 10.7 0.25 10.15 0.35 9.45 0.75 8.65 0.8 8.65 Q0.9 7.15 1.25 7.05 L1.6 6.65 2.15 5.2 Q4.05 0.8 4.6 0.8 L5.25 2.15 Q6.0 4.0 6.7 5.15 L7.2 6.35 Q7.4 7.2 7.55 7.45 7.7 8.35 7.95 8.65 L8.4 9.25 Q8.65 9.25 8.7 9.8 L8.7 9.9 9.35 11.55 9.6 11.95 9.55 11.95 9.55 12.05 Q9.4 11.75 9.35 13.45 L9.25 14.65 4.3 3.05 Q2.6 5.4 1.6 9.3 3.2 11.4 4.45 12.3 L5.9 13.45 6.4 13.8 9.65 15.85 9.95 16.65 10.05 16.8 Q8.15 16.8 5.15 15.3 3.2 14.25 1.65 12.65 L0.5 11.25 Q0.25 11.2 0.2 11.4 L0.15 10.95 M10.05 16.9 L10.2 17.25 9.85 17.25 9.1 17.2 8.6 17.1 9.4 17.0 9.7 17.1 10.05 16.9 M10.2 17.3 L10.35 17.55 10.5 17.75 10.5 17.8 11.55 19.45 Q12.1 20.3 12.55 20.3 L12.6 20.3 11.3 21.5 9.7 22.65 7.95 23.05 7.4 23.1 7.85 22.85 6.8 22.65 Q5.15 22.2 4.45 20.8 L2.8 16.8 4.6 17.45 7.85 18.0 10.5 17.9 10.5 17.85 10.4 17.65 10.2 17.3 M5.15 20.1 L5.95 21.8 Q7.85 22.3 9.35 21.35 L10.35 20.65 9.85 19.5 9.65 19.05 9.3 18.6 Q7.5 18.9 5.7 18.6 L4.5 18.5 Q4.75 19.3 5.15 20.1" fill="#ffa000" fill-rule="evenodd" stroke="none"/>
      <path d="M4.6 22.85 L3.95 22.45 3.85 22.3 4.6 22.85 M2.25 18.85 L1.85 18.35 Q1.2 17.45 1.1 16.35 L1.1 16.25 1.35 16.75 2.25 18.85 M0.1 13.15 L0.05 11.85 0.15 10.95 0.2 11.4 0.1 11.95 0.25 12.55 0.4 13.0 0.75 13.65 0.1 13.15" fill="#a25eff" fill-rule="evenodd" stroke="none"/>
      <path d="M10.05 16.8 L10.05 16.9 9.7 17.1 9.4 17.0 8.6 17.1 8.35 17.1 7.65 17.0 6.05 16.6 4.1 15.8 3.05 15.3 2.0 14.6 Q0.65 13.35 0.25 12.55 L0.1 11.95 0.2 11.4 Q0.25 11.2 0.5 11.25 L1.65 12.65 Q3.2 14.25 5.15 15.3 8.15 16.8 10.05 16.8" fill="#ff8c00" fill-rule="evenodd" stroke="none"/>
      <path d="M9.25 14.65 L9.5 15.75 9.65 15.85 6.4 13.8 5.9 13.45 4.45 12.3 Q3.2 11.4 1.6 9.3 2.6 5.4 4.3 3.05 L9.25 14.65 M5.15 20.1 Q4.75 19.3 4.5 18.5 L5.7 18.6 Q7.5 18.9 9.3 18.6 L9.65 19.05 9.85 19.5 10.35 20.65 9.35 21.35 Q7.85 22.3 5.95 21.8 L5.15 20.1" fill="#ffe29c" fill-rule="evenodd" stroke="none"/>
      <path d="M10.2 17.25 L10.2 17.3 10.4 17.65 10.5 17.85 10.5 17.9 7.85 18.0 4.6 17.45 2.8 16.8 4.45 20.8 Q5.15 22.2 6.8 22.65 L7.85 22.85 7.4 23.1 5.15 22.95 4.6 22.85 3.85 22.3 Q2.9 20.95 2.45 19.55 L2.25 18.85 1.35 16.75 1.1 16.25 -0.1 13.7 0.1 13.15 0.75 13.65 1.2 14.05 2.35 15.0 3.6 15.85 4.95 16.35 7.55 17.0 7.65 17.0 8.35 17.1 8.6 17.1 9.1 17.2 9.85 17.25 10.2 17.25" fill="#ffb819" fill-rule="evenodd" stroke="none"/>
      <path d="M7.65 17.0 L7.55 17.0 4.95 16.35 3.6 15.85 2.35 15.0 1.2 14.05 0.75 13.65 0.4 13.0 0.25 12.55 Q0.65 13.35 2.0 14.6 L3.05 15.3 4.1 15.8 6.05 16.6 7.65 17.0" fill="#5e00c2" fill-rule="evenodd" stroke="none"/>
      <path d="M10.1 16.95 Q4.65 17.1 1.75 14.55 L1.7 14.55 Q0.85 13.9 0.05 12.25 0.0 13.45 0.25 14.45 L3.9 22.75 Q8.45 24.5 12.8 20.25 M0.05 12.25 Q0.2 7.75 4.65 0.2 L9.4 11.4" fill="none" stroke="#996600" stroke-linecap="round" stroke-linejoin="round" stroke-width="1.0"/>
      <path d="M7.85 22.55 L7.05 22.8 Q4.8 22.8 3.8 20.8 L2.2 16.35 Q4.55 17.55 6.2 17.8 5.65 18.2 5.35 18.2 L5.15 18.25 4.8 18.45 4.95 18.9 Q5.45 20.95 7.0 22.35 L7.85 22.55" fill="#ffcc33" fill-rule="evenodd" stroke="none"/>
    </g>
    <g id="shape5">
      <path d="M7.35 -13.05 Q12.35 -12.85 19.0 -8.95" ffdec:has-small-stroke="true" ffdec:original-stroke-width="0.7" fill="none" stroke="#ffffff" stroke-linecap="round" stroke-linejoin="round" stroke-width="1.0"/>
      <path d="M-10.15 -20.4 L-5.2 -8.85" ffdec:has-small-stroke="true" ffdec:original-stroke-width="0.7" fill="none" stroke="#ffffff" stroke-linecap="round" stroke-linejoin="round" stroke-width="1.0"/>
      <path d="M12.75 9.0 Q12.2 13.8 9.75 18.3" ffdec:has-small-stroke="true" ffdec:original-stroke-width="0.7" fill="none" stroke="#ffffff" stroke-linecap="round" stroke-linejoin="round" stroke-width="1.0"/>
      <path d="M-19.45 8.35 L-9.65 4.35" ffdec:has-small-stroke="true" ffdec:original-stroke-width="0.7" fill="none" stroke="#ffffff" stroke-linecap="round" stroke-linejoin="round" stroke-width="1.0"/>
    </g>
  </defs>
</svg>
