<?xml version="1.0" encoding="UTF-8" standalone="no"?>
<svg xmlns:ffdec="https://www.free-decompiler.com/flash" xmlns:xlink="http://www.w3.org/1999/xlink" ffdec:objectType="frame" height="34.2px" width="43.1px" xmlns="http://www.w3.org/2000/svg">
  <g transform="matrix(1.0, 0.0, 0.0, 1.0, 4.2, 41.3)">
    <use ffdec:characterId="2" height="12.45" transform="matrix(0.9889, 0.1485, -0.1485, 0.9889, 16.1, -28.9)" width="23.4" xlink:href="#sprite0"/>
    <use ffdec:characterId="2" height="12.45" transform="matrix(0.2169, -0.707, -0.707, -0.2169, 22.05, -22.4)" width="23.4" xlink:href="#sprite1"/>
    <use ffdec:characterId="2" height="12.45" transform="matrix(-0.688, 0.2711, 0.2711, 0.688, 11.7, -23.9)" width="23.4" xlink:href="#sprite2"/>
    <use ffdec:characterId="4" height="20.0" transform="matrix(0.9601, 0.2797, -0.2797, 0.9601, 4.9, -40.65)" width="20.0" xlink:href="#sprite3"/>
    <use ffdec:characterId="4" height="20.0" transform="matrix(0.8347, -0.2914, 0.2914, 0.8347, 8.35, -23.65)" width="20.0" xlink:href="#sprite4"/>
  </g>
  <defs>
    <g id="sprite0">
      <use ffdec:characterId="1" height="12.45" transform="matrix(1.0, 0.0, 0.0, 1.0, 0.0, 0.0)" width="23.4" xlink:href="#shape0"/>
    </g>
    <g id="shape0">
      <path d="M9.35 0.15 Q11.5 0.45 13.45 1.1 16.2 1.95 18.45 3.65 L22.85 6.7 21.0 8.4 Q18.75 10.0 16.05 11.05 13.4 12.15 10.55 12.05 L6.85 11.5 8.8 11.05 Q10.9 10.35 11.8 8.2 L12.35 6.1 16.05 6.2 Q18.3 6.35 20.5 7.0 18.95 6.15 17.45 5.45 14.85 4.2 12.15 3.9 11.65 2.05 10.15 0.9 L9.45 0.25 9.35 0.15" fill="#6fba1b" fill-rule="evenodd" stroke="none"/>
      <path d="M9.35 0.15 L9.45 0.25 10.15 0.9 Q11.65 2.05 12.15 3.9 L10.85 3.85 5.25 4.3 Q2.55 4.9 0.1 6.05 0.25 5.25 0.95 4.4 3.4 4.15 5.75 3.15 7.1 2.6 6.85 1.3 L6.7 0.95 6.3 0.6 Q7.2 0.15 7.85 0.0 L9.35 0.15 M12.35 6.1 L11.8 8.2 Q10.9 10.35 8.8 11.05 L6.85 11.5 6.5 11.4 7.3 11.25 Q8.25 10.45 8.45 9.25 8.6 8.05 8.15 7.0 L9.25 6.7 12.35 6.1" fill="#5da60c" fill-rule="evenodd" stroke="none"/>
      <path d="M12.15 3.9 Q14.85 4.2 17.45 5.45 18.95 6.15 20.5 7.0 18.3 6.35 16.05 6.2 L12.35 6.1 9.25 6.7 8.15 7.0 Q8.6 8.05 8.45 9.25 8.25 10.45 7.3 11.25 L6.5 11.4 3.35 10.25 Q0.65 8.9 0.1 6.05 2.55 4.9 5.25 4.3 L10.85 3.85 12.15 3.9" fill="#457b08" fill-rule="evenodd" stroke="none"/>
      <path d="M0.95 4.4 L1.5 4.0 6.3 0.6 6.7 0.95 6.85 1.3 Q7.1 2.6 5.75 3.15 3.4 4.15 0.95 4.4" fill="#508b0d" fill-rule="evenodd" stroke="none"/>
      <path d="M0.1 5.75 Q6.4 -3.6 16.5 2.4" ffdec:has-small-stroke="true" ffdec:original-stroke-width="0.7" fill="none" stroke="#1a5c00" stroke-linecap="round" stroke-linejoin="round" stroke-width="1.0000207933563283"/>
      <path d="M16.45 2.35 L22.65 6.6" ffdec:has-small-stroke="true" ffdec:original-stroke-width="0.7" fill="none" stroke="#1a5c00" stroke-linecap="round" stroke-linejoin="round" stroke-width="1.0000207933563283"/>
      <path d="M22.7 6.65 Q18.6 11.35 10.85 11.8" ffdec:has-small-stroke="true" ffdec:original-stroke-width="0.7" fill="none" stroke="#1a5c00" stroke-linecap="round" stroke-linejoin="round" stroke-width="1.0000207933563283"/>
      <path d="M10.75 11.8 Q1.05 11.35 0.0 5.95" ffdec:has-small-stroke="true" ffdec:original-stroke-width="0.7" fill="none" stroke="#1a5c00" stroke-linecap="round" stroke-linejoin="round" stroke-width="1.0000207933563283"/>
      <path d="M0.1 5.9 Q11.0 1.2 20.25 6.8" ffdec:has-small-stroke="true" ffdec:original-stroke-width="0.7" fill="none" stroke="#1a5c00" stroke-linecap="round" stroke-linejoin="round" stroke-width="1.0000207933563283"/>
      <path d="M16.6 6.15 L16.65 7.1 Q16.7 9.0 15.0 9.75 L14.6 9.55 14.35 8.9 Q13.8 7.3 13.85 5.45 L15.15 5.4 Q15.95 5.6 16.6 6.15" fill="#8df716" fill-rule="evenodd" stroke="none"/>
      <path d="M19.45 8.2 L18.75 8.95 17.85 8.95 18.15 6.85 18.7 6.75 19.15 7.15 19.5 7.65 19.45 8.2" fill="#8df716" fill-rule="evenodd" stroke="none"/>
      <path d="M14.9 2.3 L15.6 2.85 15.65 3.05 Q15.2 3.75 13.9 3.35 L13.9 2.2 14.05 1.85 14.9 2.3" fill="#8df716" fill-rule="evenodd" stroke="none"/>
      <path d="M9.5 1.35 L9.75 1.0 Q10.9 1.45 11.45 2.45 L9.2 2.7 9.5 1.35" fill="#8df716" fill-rule="evenodd" stroke="none"/>
    </g>
    <g id="sprite1">
      <use ffdec:characterId="1" height="12.45" transform="matrix(1.0, 0.0, 0.0, 1.0, 0.0, 0.0)" width="23.4" xlink:href="#shape1"/>
    </g>
    <g id="shape1">
      <path d="M9.35 0.15 Q11.5 0.45 13.45 1.1 16.2 1.95 18.45 3.65 L22.85 6.7 21.0 8.4 Q18.75 10.0 16.05 11.05 13.4 12.15 10.55 12.05 L6.85 11.5 8.8 11.05 Q10.9 10.35 11.8 8.2 L12.35 6.1 16.05 6.2 Q18.3 6.35 20.5 7.0 18.95 6.15 17.45 5.45 14.85 4.2 12.15 3.9 11.65 2.05 10.15 0.9 L9.45 0.25 9.35 0.15" fill="#6fba1b" fill-rule="evenodd" stroke="none"/>
      <path d="M9.35 0.15 L9.45 0.25 10.15 0.9 Q11.65 2.05 12.15 3.9 L10.85 3.85 5.25 4.3 Q2.55 4.9 0.1 6.05 0.25 5.25 0.95 4.4 3.4 4.15 5.75 3.15 7.1 2.6 6.85 1.3 L6.7 0.95 6.3 0.6 Q7.2 0.15 7.85 0.0 L9.35 0.15 M12.35 6.1 L11.8 8.2 Q10.9 10.35 8.8 11.05 L6.85 11.5 6.5 11.4 7.3 11.25 Q8.25 10.45 8.45 9.25 8.6 8.05 8.15 7.0 L9.25 6.7 12.35 6.1" fill="#5da60c" fill-rule="evenodd" stroke="none"/>
      <path d="M12.15 3.9 Q14.85 4.2 17.45 5.45 18.95 6.15 20.5 7.0 18.3 6.35 16.05 6.2 L12.35 6.1 9.25 6.7 8.15 7.0 Q8.6 8.05 8.45 9.25 8.25 10.45 7.3 11.25 L6.5 11.4 3.35 10.25 Q0.65 8.9 0.1 6.05 2.55 4.9 5.25 4.3 L10.85 3.85 12.15 3.9" fill="#457b08" fill-rule="evenodd" stroke="none"/>
      <path d="M0.95 4.4 L1.5 4.0 6.3 0.6 6.7 0.95 6.85 1.3 Q7.1 2.6 5.75 3.15 3.4 4.15 0.95 4.4" fill="#508b0d" fill-rule="evenodd" stroke="none"/>
      <path d="M0.1 5.75 Q6.4 -3.6 16.5 2.4" ffdec:has-small-stroke="true" ffdec:original-stroke-width="0.7" fill="none" stroke="#1a5c00" stroke-linecap="round" stroke-linejoin="round" stroke-width="1.352272655348557"/>
      <path d="M16.45 2.35 L22.65 6.6" ffdec:has-small-stroke="true" ffdec:original-stroke-width="0.7" fill="none" stroke="#1a5c00" stroke-linecap="round" stroke-linejoin="round" stroke-width="1.352272655348557"/>
      <path d="M22.7 6.65 Q18.6 11.35 10.85 11.8" ffdec:has-small-stroke="true" ffdec:original-stroke-width="0.7" fill="none" stroke="#1a5c00" stroke-linecap="round" stroke-linejoin="round" stroke-width="1.352272655348557"/>
      <path d="M10.75 11.8 Q1.05 11.35 0.0 5.95" ffdec:has-small-stroke="true" ffdec:original-stroke-width="0.7" fill="none" stroke="#1a5c00" stroke-linecap="round" stroke-linejoin="round" stroke-width="1.352272655348557"/>
      <path d="M0.1 5.9 Q11.0 1.2 20.25 6.8" ffdec:has-small-stroke="true" ffdec:original-stroke-width="0.7" fill="none" stroke="#1a5c00" stroke-linecap="round" stroke-linejoin="round" stroke-width="1.352272655348557"/>
      <path d="M16.6 6.15 L16.65 7.1 Q16.7 9.0 15.0 9.75 L14.6 9.55 14.35 8.9 Q13.8 7.3 13.85 5.45 L15.15 5.4 Q15.95 5.6 16.6 6.15" fill="#8df716" fill-rule="evenodd" stroke="none"/>
      <path d="M19.45 8.2 L18.75 8.95 17.85 8.95 18.15 6.85 18.7 6.75 19.15 7.15 19.5 7.65 19.45 8.2" fill="#8df716" fill-rule="evenodd" stroke="none"/>
      <path d="M14.9 2.3 L15.6 2.85 15.65 3.05 Q15.2 3.75 13.9 3.35 L13.9 2.2 14.05 1.85 14.9 2.3" fill="#8df716" fill-rule="evenodd" stroke="none"/>
      <path d="M9.5 1.35 L9.75 1.0 Q10.9 1.45 11.45 2.45 L9.2 2.7 9.5 1.35" fill="#8df716" fill-rule="evenodd" stroke="none"/>
    </g>
    <g id="sprite2">
      <use ffdec:characterId="1" height="12.45" transform="matrix(1.0, 0.0, 0.0, 1.0, 0.0, 0.0)" width="23.4" xlink:href="#shape2"/>
    </g>
    <g id="shape2">
      <path d="M9.35 0.15 Q11.5 0.45 13.45 1.1 16.2 1.95 18.45 3.65 L22.85 6.7 21.0 8.4 Q18.75 10.0 16.05 11.05 13.4 12.15 10.55 12.05 L6.85 11.5 8.8 11.05 Q10.9 10.35 11.8 8.2 L12.35 6.1 16.05 6.2 Q18.3 6.35 20.5 7.0 18.95 6.15 17.45 5.45 14.85 4.2 12.15 3.9 11.65 2.05 10.15 0.9 L9.45 0.25 9.35 0.15" fill="#6fba1b" fill-rule="evenodd" stroke="none"/>
      <path d="M9.35 0.15 L9.45 0.25 10.15 0.9 Q11.65 2.05 12.15 3.9 L10.85 3.85 5.25 4.3 Q2.55 4.9 0.1 6.05 0.25 5.25 0.95 4.4 3.4 4.15 5.75 3.15 7.1 2.6 6.85 1.3 L6.7 0.95 6.3 0.6 Q7.2 0.15 7.85 0.0 L9.35 0.15 M12.35 6.1 L11.8 8.2 Q10.9 10.35 8.8 11.05 L6.85 11.5 6.5 11.4 7.3 11.25 Q8.25 10.45 8.45 9.25 8.6 8.05 8.15 7.0 L9.25 6.7 12.35 6.1" fill="#5da60c" fill-rule="evenodd" stroke="none"/>
      <path d="M12.15 3.9 Q14.85 4.2 17.45 5.45 18.95 6.15 20.5 7.0 18.3 6.35 16.05 6.2 L12.35 6.1 9.25 6.7 8.15 7.0 Q8.6 8.05 8.45 9.25 8.25 10.45 7.3 11.25 L6.5 11.4 3.35 10.25 Q0.65 8.9 0.1 6.05 2.55 4.9 5.25 4.3 L10.85 3.85 12.15 3.9" fill="#457b08" fill-rule="evenodd" stroke="none"/>
      <path d="M0.95 4.4 L1.5 4.0 6.3 0.6 6.7 0.95 6.85 1.3 Q7.1 2.6 5.75 3.15 3.4 4.15 0.95 4.4" fill="#508b0d" fill-rule="evenodd" stroke="none"/>
      <path d="M0.1 5.75 Q6.4 -3.6 16.5 2.4" ffdec:has-small-stroke="true" ffdec:original-stroke-width="0.7" fill="none" stroke="#1a5c00" stroke-linecap="round" stroke-linejoin="round" stroke-width="1.3523090487390865"/>
      <path d="M16.45 2.35 L22.65 6.6" ffdec:has-small-stroke="true" ffdec:original-stroke-width="0.7" fill="none" stroke="#1a5c00" stroke-linecap="round" stroke-linejoin="round" stroke-width="1.3523090487390865"/>
      <path d="M22.7 6.65 Q18.6 11.35 10.85 11.8" ffdec:has-small-stroke="true" ffdec:original-stroke-width="0.7" fill="none" stroke="#1a5c00" stroke-linecap="round" stroke-linejoin="round" stroke-width="1.3523090487390865"/>
      <path d="M10.75 11.8 Q1.05 11.35 0.0 5.95" ffdec:has-small-stroke="true" ffdec:original-stroke-width="0.7" fill="none" stroke="#1a5c00" stroke-linecap="round" stroke-linejoin="round" stroke-width="1.3523090487390865"/>
      <path d="M0.1 5.9 Q11.0 1.2 20.25 6.8" ffdec:has-small-stroke="true" ffdec:original-stroke-width="0.7" fill="none" stroke="#1a5c00" stroke-linecap="round" stroke-linejoin="round" stroke-width="1.3523090487390865"/>
      <path d="M16.6 6.15 L16.65 7.1 Q16.7 9.0 15.0 9.75 L14.6 9.55 14.35 8.9 Q13.8 7.3 13.85 5.45 L15.15 5.4 Q15.95 5.6 16.6 6.15" fill="#8df716" fill-rule="evenodd" stroke="none"/>
      <path d="M19.45 8.2 L18.75 8.95 17.85 8.95 18.15 6.85 18.7 6.75 19.15 7.15 19.5 7.65 19.45 8.2" fill="#8df716" fill-rule="evenodd" stroke="none"/>
      <path d="M14.9 2.3 L15.6 2.85 15.65 3.05 Q15.2 3.75 13.9 3.35 L13.9 2.2 14.05 1.85 14.9 2.3" fill="#8df716" fill-rule="evenodd" stroke="none"/>
      <path d="M9.5 1.35 L9.75 1.0 Q10.9 1.45 11.45 2.45 L9.2 2.7 9.5 1.35" fill="#8df716" fill-rule="evenodd" stroke="none"/>
    </g>
    <g id="sprite3">
      <use ffdec:characterId="3" height="20.0" transform="matrix(1.0, 0.0, 0.0, 1.0, 0.0, 0.0)" width="20.0" xlink:href="#shape3"/>
    </g>
    <g id="shape3">
      <path d="M0.15 11.5 L0.0 9.65 Q0.0 5.65 2.8 2.8 5.65 0.0 9.65 0.0 13.65 0.0 16.45 2.8 18.7 5.05 19.2 8.1 18.15 9.15 16.85 10.0 15.25 10.9 13.45 11.4 L10.25 12.2 7.4 12.55 3.6 12.5 Q1.9 12.3 0.4 11.6 L0.15 11.5" fill="#ffc500" fill-rule="evenodd" stroke="none"/>
      <path d="M19.2 8.1 L19.3 9.65 Q19.3 13.65 16.45 16.45 13.65 19.3 9.65 19.3 5.65 19.3 2.8 16.45 0.65 14.3 0.15 11.5 L0.4 11.6 Q1.9 12.3 3.6 12.5 L7.4 12.55 10.25 12.2 13.45 11.4 Q15.25 10.9 16.85 10.0 18.15 9.15 19.2 8.1" fill="#ff8a00" fill-rule="evenodd" stroke="none"/>
      <path d="M19.2 8.1 L19.3 9.65 Q19.3 13.65 16.45 16.45 13.65 19.3 9.65 19.3 5.65 19.3 2.8 16.45 0.65 14.3 0.15 11.5 L0.0 9.65 Q0.0 5.65 2.8 2.8 5.65 0.0 9.65 0.0 13.65 0.0 16.45 2.8 18.7 5.05 19.2 8.1 Z" ffdec:has-small-stroke="true" ffdec:original-stroke-width="0.7" fill="none" stroke="#bb4500" stroke-linecap="round" stroke-linejoin="round" stroke-width="1.0000017852337408"/>
      <path d="M6.0 6.55 L6.15 6.9 7.7 7.9 8.5 7.8 8.55 7.65 7.95 4.7 7.2 4.75 Q6.35 5.15 5.85 5.95 L6.0 6.55 M6.05 9.1 L4.4 8.95 4.0 9.95 4.0 10.55 4.9 10.75 Q6.1 10.75 6.75 9.6 L6.05 9.1 M5.0 3.85 L5.55 3.4 Q7.45 2.25 9.65 2.2 11.85 2.2 13.75 3.45 15.7 4.7 16.55 6.8 17.45 9.0 17.0 11.15 16.5 13.4 14.95 14.9 13.45 16.35 11.2 17.0 L8.95 17.05 Q6.8 16.85 5.05 15.35 3.35 13.9 2.6 11.8 1.9 9.75 2.6 7.5 3.3 5.3 5.0 3.85 M8.4 14.3 Q8.8 13.45 8.6 12.6 L8.2 12.2 Q6.5 11.65 5.5 13.45 6.35 15.05 8.1 14.85 L8.4 14.3 M13.8 13.4 L13.5 12.9 Q12.95 12.2 12.15 11.85 L11.45 11.8 11.2 12.25 Q10.85 13.35 11.05 14.45 L11.6 14.65 Q13.2 15.05 13.8 13.4 M15.45 8.9 L14.95 8.6 Q13.65 8.85 12.7 9.4 L12.55 10.0 12.7 10.15 15.25 10.5 15.75 9.45 15.45 8.9 M11.3 4.9 L11.0 5.8 11.1 7.35 11.75 7.55 Q13.05 7.4 13.55 5.9 13.5 4.95 12.75 4.6 L11.95 4.4 11.3 4.9" fill="#ff7b00" fill-rule="evenodd" stroke="none"/>
      <path d="M15.05 4.2 Q17.3 6.45 17.3 9.6 17.3 12.8 15.05 15.0 12.8 17.25 9.65 17.25 6.5 17.25 4.2 15.0 2.0 12.8 2.0 9.6 2.0 6.45 4.2 4.2 6.5 1.95 9.65 1.95 12.8 1.95 15.05 4.2 Z" ffdec:has-small-stroke="true" ffdec:original-stroke-width="1.0" fill="none" stroke="#ffffff" stroke-linecap="round" stroke-linejoin="round" stroke-width="1.0000017852337408"/>
      <path d="M9.7 2.0 L9.7 17.3" ffdec:has-small-stroke="true" ffdec:original-stroke-width="0.7" fill="none" stroke="#ffffff" stroke-linecap="round" stroke-linejoin="round" stroke-width="1.0000017852337408"/>
      <path d="M16.45 13.05 L2.6 6.45" ffdec:has-small-stroke="true" ffdec:original-stroke-width="0.7" fill="none" stroke="#ffffff" stroke-linecap="round" stroke-linejoin="round" stroke-width="1.0000017852337408"/>
      <path d="M2.65 13.05 L16.5 6.45" ffdec:has-small-stroke="true" ffdec:original-stroke-width="0.7" fill="none" stroke="#ffffff" stroke-linecap="round" stroke-linejoin="round" stroke-width="1.0000017852337408"/>
      <path d="M14.1 5.15 L13.7 5.5 12.25 4.95 Q11.75 5.7 11.15 8.25 10.7 7.9 10.7 6.6 10.7 3.35 12.05 3.5 13.0 3.6 14.1 5.15" fill="#ffe600" fill-rule="evenodd" stroke="none"/>
      <path d="M6.9 3.9 Q7.9 3.9 8.25 4.85 L8.5 7.25 8.4 8.1 8.2 8.15 Q7.8 7.8 7.6 6.9 7.35 5.85 6.9 5.15 L6.4 5.55 5.8 5.85 Q5.55 5.8 5.85 4.9 6.2 3.9 6.9 3.9" fill="#ffe600" fill-rule="evenodd" stroke="none"/>
      <path d="M13.2 9.75 L15.0 10.95 Q14.9 11.25 14.65 11.25 14.05 11.35 13.15 10.75 12.25 10.2 12.05 9.7 13.25 8.85 14.3 8.6 16.0 8.15 16.0 9.9 L15.85 10.6 15.55 10.8 15.25 10.0 14.9 9.3 13.2 9.75" fill="#ffe600" fill-rule="evenodd" stroke="none"/>
      <path d="M10.65 11.95 L10.85 11.8 11.4 13.8 12.6 14.6 12.35 15.0 11.6 15.25 Q10.6 15.25 10.6 12.6 L10.65 11.95" fill="#ffe600" fill-rule="evenodd" stroke="none"/>
      <path d="M5.2 13.75 Q5.2 12.95 6.25 12.45 7.25 11.95 8.25 12.2 8.05 12.45 7.25 12.9 6.55 13.45 6.55 14.0 6.55 14.6 7.0 14.7 7.6 14.85 7.9 15.2 L7.8 15.65 6.5 15.55 Q5.2 15.15 5.2 13.75" fill="#ffe600" fill-rule="evenodd" stroke="none"/>
      <path d="M4.95 8.8 L5.2 9.75 4.95 10.7 Q4.65 11.1 4.25 11.1 3.85 11.1 3.6 10.7 3.3 10.3 3.3 9.75 3.3 9.2 3.6 8.8 3.85 8.4 4.25 8.4 4.65 8.4 4.95 8.8" fill="#ffe600" fill-rule="evenodd" stroke="none"/>
    </g>
    <g id="sprite4">
      <use ffdec:characterId="3" height="20.0" transform="matrix(1.0, 0.0, 0.0, 1.0, 0.0, 0.0)" width="20.0" xlink:href="#shape4"/>
    </g>
    <g id="shape4">
      <path d="M0.15 11.5 L0.0 9.65 Q0.0 5.65 2.8 2.8 5.65 0.0 9.65 0.0 13.65 0.0 16.45 2.8 18.7 5.05 19.2 8.1 18.15 9.15 16.85 10.0 15.25 10.9 13.45 11.4 L10.25 12.2 7.4 12.55 3.6 12.5 Q1.9 12.3 0.4 11.6 L0.15 11.5" fill="#ffc500" fill-rule="evenodd" stroke="none"/>
      <path d="M19.2 8.1 L19.3 9.65 Q19.3 13.65 16.45 16.45 13.65 19.3 9.65 19.3 5.65 19.3 2.8 16.45 0.65 14.3 0.15 11.5 L0.4 11.6 Q1.9 12.3 3.6 12.5 L7.4 12.55 10.25 12.2 13.45 11.4 Q15.25 10.9 16.85 10.0 18.15 9.15 19.2 8.1" fill="#ff8a00" fill-rule="evenodd" stroke="none"/>
      <path d="M19.2 8.1 L19.3 9.65 Q19.3 13.65 16.45 16.45 13.65 19.3 9.65 19.3 5.65 19.3 2.8 16.45 0.65 14.3 0.15 11.5 L0.0 9.65 Q0.0 5.65 2.8 2.8 5.65 0.0 9.65 0.0 13.65 0.0 16.45 2.8 18.7 5.05 19.2 8.1 Z" ffdec:has-small-stroke="true" ffdec:original-stroke-width="0.7" fill="none" stroke="#bb4500" stroke-linecap="round" stroke-linejoin="round" stroke-width="1.1311575081201426"/>
      <path d="M6.0 6.55 L6.15 6.9 7.7 7.9 8.5 7.8 8.55 7.65 7.95 4.7 7.2 4.75 Q6.35 5.15 5.85 5.95 L6.0 6.55 M6.05 9.1 L4.4 8.95 4.0 9.95 4.0 10.55 4.9 10.75 Q6.1 10.75 6.75 9.6 L6.05 9.1 M5.0 3.85 L5.55 3.4 Q7.45 2.25 9.65 2.2 11.85 2.2 13.75 3.45 15.7 4.7 16.55 6.8 17.45 9.0 17.0 11.15 16.5 13.4 14.95 14.9 13.45 16.35 11.2 17.0 L8.95 17.05 Q6.8 16.85 5.05 15.35 3.35 13.9 2.6 11.8 1.9 9.75 2.6 7.5 3.3 5.3 5.0 3.85 M8.4 14.3 Q8.8 13.45 8.6 12.6 L8.2 12.2 Q6.5 11.65 5.5 13.45 6.35 15.05 8.1 14.85 L8.4 14.3 M13.8 13.4 L13.5 12.9 Q12.95 12.2 12.15 11.85 L11.45 11.8 11.2 12.25 Q10.85 13.35 11.05 14.45 L11.6 14.65 Q13.2 15.05 13.8 13.4 M15.45 8.9 L14.95 8.6 Q13.65 8.85 12.7 9.4 L12.55 10.0 12.7 10.15 15.25 10.5 15.75 9.45 15.45 8.9 M11.3 4.9 L11.0 5.8 11.1 7.35 11.75 7.55 Q13.05 7.4 13.55 5.9 13.5 4.95 12.75 4.6 L11.95 4.4 11.3 4.9" fill="#ff7b00" fill-rule="evenodd" stroke="none"/>
      <path d="M15.05 4.2 Q17.3 6.45 17.3 9.6 17.3 12.8 15.05 15.0 12.8 17.25 9.65 17.25 6.5 17.25 4.2 15.0 2.0 12.8 2.0 9.6 2.0 6.45 4.2 4.2 6.5 1.95 9.65 1.95 12.8 1.95 15.05 4.2 Z" ffdec:has-small-stroke="true" ffdec:original-stroke-width="1.0" fill="none" stroke="#ffffff" stroke-linecap="round" stroke-linejoin="round" stroke-width="1.1311575081201426"/>
      <path d="M9.7 2.0 L9.7 17.3" ffdec:has-small-stroke="true" ffdec:original-stroke-width="0.7" fill="none" stroke="#ffffff" stroke-linecap="round" stroke-linejoin="round" stroke-width="1.1311575081201426"/>
      <path d="M16.45 13.05 L2.6 6.45" ffdec:has-small-stroke="true" ffdec:original-stroke-width="0.7" fill="none" stroke="#ffffff" stroke-linecap="round" stroke-linejoin="round" stroke-width="1.1311575081201426"/>
      <path d="M2.65 13.05 L16.5 6.45" ffdec:has-small-stroke="true" ffdec:original-stroke-width="0.7" fill="none" stroke="#ffffff" stroke-linecap="round" stroke-linejoin="round" stroke-width="1.1311575081201426"/>
      <path d="M14.1 5.15 L13.7 5.5 12.25 4.95 Q11.75 5.7 11.15 8.25 10.7 7.9 10.7 6.6 10.7 3.35 12.05 3.5 13.0 3.6 14.1 5.15" fill="#ffe600" fill-rule="evenodd" stroke="none"/>
      <path d="M6.9 3.9 Q7.9 3.9 8.25 4.85 L8.5 7.25 8.4 8.1 8.2 8.15 Q7.8 7.8 7.6 6.9 7.35 5.85 6.9 5.15 L6.4 5.55 5.8 5.85 Q5.55 5.8 5.85 4.9 6.2 3.9 6.9 3.9" fill="#ffe600" fill-rule="evenodd" stroke="none"/>
      <path d="M13.2 9.75 L15.0 10.95 Q14.9 11.25 14.65 11.25 14.05 11.35 13.15 10.75 12.25 10.2 12.05 9.7 13.25 8.85 14.3 8.6 16.0 8.15 16.0 9.9 L15.85 10.6 15.55 10.8 15.25 10.0 14.9 9.3 13.2 9.75" fill="#ffe600" fill-rule="evenodd" stroke="none"/>
      <path d="M10.65 11.95 L10.85 11.8 11.4 13.8 12.6 14.6 12.35 15.0 11.6 15.25 Q10.6 15.25 10.6 12.6 L10.65 11.95" fill="#ffe600" fill-rule="evenodd" stroke="none"/>
      <path d="M5.2 13.75 Q5.2 12.95 6.25 12.45 7.25 11.95 8.25 12.2 8.05 12.45 7.25 12.9 6.55 13.45 6.55 14.0 6.55 14.6 7.0 14.7 7.6 14.85 7.9 15.2 L7.8 15.65 6.5 15.55 Q5.2 15.15 5.2 13.75" fill="#ffe600" fill-rule="evenodd" stroke="none"/>
      <path d="M4.95 8.8 L5.2 9.75 4.95 10.7 Q4.65 11.1 4.25 11.1 3.85 11.1 3.6 10.7 3.3 10.3 3.3 9.75 3.3 9.2 3.6 8.8 3.85 8.4 4.25 8.4 4.65 8.4 4.95 8.8" fill="#ffe600" fill-rule="evenodd" stroke="none"/>
    </g>
  </defs>
</svg>
