<?xml version="1.0" encoding="UTF-8" standalone="no"?>
<svg xmlns:ffdec="https://www.free-decompiler.com/flash" xmlns:xlink="http://www.w3.org/1999/xlink" ffdec:objectType="frame" height="38.35px" width="83.85px" xmlns="http://www.w3.org/2000/svg">
  <g transform="matrix(1.0, 0.0, 0.0, 1.0, 41.6, 48.75)">
    <use ffdec:characterId="4" height="32.1" transform="matrix(1.04, 0.0, 0.0, 1.1952, -0.9, -11.3)" width="50.8" xlink:href="#sprite0"/>
    <use ffdec:characterId="2" height="18.4" transform="matrix(1.1124, -0.2916, 0.2916, 1.1124, 14.15, -40.5)" width="20.65" xlink:href="#sprite1"/>
    <use ffdec:characterId="2" height="18.4" transform="matrix(-1.1055, -0.3168, -0.3168, 1.1055, -13.2, -40.0)" width="20.65" xlink:href="#sprite1"/>
  </g>
  <defs>
    <g id="sprite0">
      <use ffdec:characterId="3" height="32.1" transform="matrix(1.0, 0.0, 0.0, 1.0, 0.0, 0.0)" width="50.8" xlink:href="#shape0"/>
    </g>
    <g id="shape0">
      <path d="M8.0 -28.25 L9.05 -28.05 Q10.2 -27.65 10.7 -26.75 L9.6 -26.4 5.95 -25.35 9.35 -25.0 9.1 -24.0 1.45 -22.9 -5.3 -21.5 -10.3 -20.0 -9.85 -22.35 Q-5.65 -23.0 -2.35 -24.1 L-7.7 -24.9 -7.25 -25.2 Q-4.55 -24.45 -3.0 -24.45 -0.65 -24.45 1.1 -25.1 1.9 -25.4 7.1 -27.95 L8.0 -28.25" fill="#dcdcdc" fill-rule="evenodd" stroke="none"/>
      <path d="M12.85 -25.6 L14.95 -24.2 13.65 -24.55 12.85 -25.6 M22.35 -17.95 L23.15 -15.8 23.3 -15.4 21.3 -16.3 19.0 -17.0 18.6 -17.05 Q20.6 -16.35 23.15 -12.75 L25.1 -9.8 25.2 -8.8 25.3 -8.2 25.35 -7.6 25.5 -6.45 25.4 -6.35 23.7 -5.3 23.05 -4.85 Q19.05 -2.2 14.15 -1.1 8.5 0.0 2.85 0.3 L-8.0 -0.15 Q-11.9 -0.85 -14.9 -2.05 L-15.05 -2.15 -15.15 -2.2 Q-18.7 -2.25 -21.6 -4.2 -23.55 -5.5 -24.3 -6.75 L-24.3 -6.9 -24.6 -7.0 -24.5 -7.2 -24.3 -7.25 -24.3 -7.3 -24.2 -7.3 -24.2 -7.25 -19.75 -8.45 -19.05 -8.45 -7.95 -9.95 1.7 -11.3 8.8 -10.5 0.15 -10.6 10.1 -9.55 -7.3 -6.85 -2.85 -8.5 -13.3 -7.1 Q-17.2 -6.9 -20.4 -4.95 L-18.9 -4.4 -15.25 -5.7 14.75 -4.35 Q12.75 -3.65 10.55 -3.25 L1.4 -2.4 -8.25 -1.5 -2.45 -1.15 9.15 -1.7 Q14.8 -2.65 20.25 -5.05 L19.75 -5.4 7.55 -5.75 -2.0 -5.75 Q3.1 -7.1 8.5 -7.35 L17.2 -7.1 13.4 -9.15 19.95 -7.5 Q17.4 -9.3 14.55 -10.55 10.1 -12.6 5.3 -12.4 L9.7 -13.6 Q14.3 -12.35 18.35 -9.85 L23.8 -9.0 25.0 -8.8 24.65 -9.45 Q23.1 -12.9 16.85 -14.4 5.2 -17.2 3.15 -18.0 L8.1 -18.15 Q10.6 -19.05 12.3 -21.2 L22.35 -17.95 M-23.75 -11.45 L-23.6 -11.7 -22.85 -13.0 -22.2 -14.1 -7.25 -16.9 -5.5 -16.7 Q-10.2 -15.1 -10.5 -14.75 -5.25 -16.25 -3.0 -16.25 L0.25 -15.8 -5.05 -15.0 -11.45 -13.05 Q-16.45 -10.25 -22.25 -11.15 L-23.75 -11.45 M-20.4 -17.6 L-18.05 -20.8 -14.25 -19.3 -10.3 -20.0 -8.0 -18.25 -9.1 -17.3 -10.4 -16.9 Q-15.5 -15.8 -20.4 -17.6 M-16.55 -22.55 L-16.4 -22.75 -4.45 -28.5 Q-3.75 -27.95 -3.0 -27.75 L-2.45 -27.65 Q-10.15 -24.75 -13.35 -22.1 L-16.55 -22.55 M6.3 -29.6 L7.35 -28.85 6.05 -29.2 6.3 -29.6 M20.05 -8.7 L20.1 -8.65 20.15 -8.65 20.05 -8.7 M-23.6 -6.55 L-21.55 -5.5 -19.4 -6.6 -23.6 -6.9 -23.6 -6.55" fill="#1c1c1c" fill-rule="evenodd" stroke="none"/>
      <path d="M10.7 -26.75 L12.85 -25.6 13.65 -24.55 9.35 -25.0 9.6 -26.4 10.7 -26.75 M7.35 -28.85 L8.0 -28.25 7.1 -27.95 3.25 -28.35 6.05 -29.2 7.35 -28.85 M-7.25 -25.2 L-7.7 -24.9 -9.85 -22.35 -13.35 -22.1 Q-10.15 -24.75 -2.45 -27.65 L-2.35 -27.7 -2.1 -27.7 -7.25 -25.2 M9.7 -13.6 L5.3 -12.4 Q10.1 -12.6 14.55 -10.55 17.4 -9.3 19.95 -7.5 L13.4 -9.15 8.8 -10.5 1.7 -11.3 -7.95 -9.95 -19.05 -8.45 Q-18.05 -8.7 -11.3 -11.3 -6.6 -13.15 -1.65 -13.15 L3.85 -12.6 -0.6 -13.85 -5.05 -15.0 0.25 -15.8 -3.0 -16.25 Q-5.25 -16.25 -10.5 -14.75 -10.2 -15.1 -5.5 -16.7 L-7.25 -16.9 -6.3 -17.7 -0.9 -17.45 Q1.6 -17.95 7.15 -21.6 L12.3 -21.2 Q10.6 -19.05 8.1 -18.15 L3.15 -18.0 Q5.2 -17.2 16.85 -14.4 23.1 -12.9 24.65 -9.45 L22.6 -11.25 Q18.75 -14.1 14.95 -14.1 L9.7 -13.6 M8.35 -22.8 L9.1 -24.0 11.35 -23.35 8.35 -22.8 M-9.1 -17.3 L-8.0 -18.25 -7.55 -18.05 -9.1 -17.3" fill="#323232" fill-rule="evenodd" stroke="none"/>
      <path d="M14.95 -24.2 Q19.45 -21.55 21.1 -19.4 L22.25 -18.2 22.35 -17.95 12.3 -21.2 Q13.0 -22.35 13.65 -24.55 L14.95 -24.2 M23.3 -15.4 L24.9 -11.15 25.1 -9.8 23.15 -12.75 Q20.6 -16.35 18.6 -17.05 L19.0 -17.0 21.3 -16.3 23.3 -15.4 M-24.5 -7.2 L-23.75 -11.45 -22.25 -11.15 Q-16.45 -10.25 -11.45 -13.05 L-13.0 -11.95 Q-16.1 -9.8 -19.75 -8.45 L-24.2 -7.25 -24.2 -7.3 -24.3 -7.3 -24.3 -7.25 -24.5 -7.2 M-22.2 -14.1 L-20.55 -17.4 -20.4 -17.6 Q-15.5 -15.8 -10.4 -16.9 L-9.1 -17.3 -7.55 -18.05 -4.7 -18.9 -6.3 -17.7 -7.25 -16.9 -22.2 -14.1 M-18.05 -20.8 L-17.0 -22.05 -16.55 -22.55 -13.35 -22.1 Q-13.95 -21.35 -14.25 -19.3 L-18.05 -20.8 M-4.45 -28.5 Q-1.05 -30.6 2.9 -31.2 L6.3 -29.6 6.05 -29.2 Q0.3 -29.15 -2.35 -27.7 L-2.45 -27.65 -3.0 -27.75 Q-3.75 -27.95 -4.45 -28.5 M22.6 -11.25 L24.65 -9.45 25.0 -8.8 23.8 -9.0 22.6 -11.25 M8.8 -10.5 L13.4 -9.15 17.2 -7.1 8.5 -7.35 Q3.1 -7.1 -2.0 -5.75 L7.55 -5.75 19.75 -5.4 20.25 -5.05 Q14.8 -2.65 9.15 -1.7 L-2.45 -1.15 -8.25 -1.5 1.4 -2.4 10.55 -3.25 Q12.75 -3.65 14.75 -4.35 L-15.25 -5.7 -13.3 -7.1 -2.85 -8.5 -7.3 -6.85 10.1 -9.55 0.15 -10.6 8.8 -10.5" fill="#6f6f6f" fill-rule="evenodd" stroke="none"/>
      <path d="M7.1 -27.95 Q1.9 -25.4 1.1 -25.1 -0.65 -24.45 -3.0 -24.45 -4.55 -24.45 -7.25 -25.2 L-2.1 -27.7 3.25 -28.35 7.1 -27.95 M-7.7 -24.9 L-2.35 -24.1 Q-5.65 -23.0 -9.85 -22.35 L-7.7 -24.9 M-5.3 -21.5 L1.45 -22.9 9.1 -24.0 8.35 -22.8 2.3 -20.9 7.15 -21.6 Q1.6 -17.95 -0.9 -17.45 L-6.3 -17.7 -4.7 -18.9 -7.55 -18.05 -8.0 -18.25 Q-7.05 -19.1 -4.05 -20.05 -1.0 -21.05 1.05 -20.9 L-5.3 -21.5 M9.35 -25.0 L5.95 -25.35 9.6 -26.4 9.35 -25.0" fill="#464646" fill-rule="evenodd" stroke="none"/>
      <path d="M-9.85 -22.35 L-10.3 -20.0 -14.25 -19.3 Q-13.95 -21.35 -13.35 -22.1 L-9.85 -22.35 M9.1 -24.0 L9.35 -25.0 13.65 -24.55 Q13.0 -22.35 12.3 -21.2 L7.15 -21.6 2.3 -20.9 8.35 -22.8 11.35 -23.35 9.1 -24.0 M6.05 -29.2 L3.25 -28.35 -2.1 -27.7 -2.35 -27.7 Q0.3 -29.15 6.05 -29.2 M9.7 -13.6 L14.95 -14.1 Q18.75 -14.1 22.6 -11.25 L23.8 -9.0 18.35 -9.85 Q14.3 -12.35 9.7 -13.6 M-5.05 -15.0 L-0.6 -13.85 3.85 -12.6 -1.65 -13.15 Q-6.6 -13.15 -11.3 -11.3 -18.05 -8.7 -19.05 -8.45 L-19.75 -8.45 Q-16.1 -9.8 -13.0 -11.95 L-11.45 -13.05 -5.05 -15.0 M-15.25 -5.7 L-18.9 -4.4 -20.4 -4.95 Q-17.2 -6.9 -13.3 -7.1 L-15.25 -5.7 M20.05 -8.7 L20.15 -8.65 20.1 -8.65 20.05 -8.7" fill="#9b9b9b" fill-rule="evenodd" stroke="none"/>
      <path d="M-23.6 -6.55 L-23.6 -6.9 -19.4 -6.6 -21.55 -5.5 -23.6 -6.55" fill="#3d3d3d" fill-rule="evenodd" stroke="none"/>
      <path d="M-10.3 -20.0 L-5.3 -21.5 1.05 -20.9 Q-1.0 -21.05 -4.05 -20.05 -7.05 -19.1 -8.0 -18.25 L-10.3 -20.0" fill="#333333" fill-rule="evenodd" stroke="none"/>
      <path d="M11.2 -26.15 Q10.0 -26.15 6.65 -28.45 3.3 -30.8 2.45 -30.8 L-0.65 -30.3 Q-1.9 -29.45 -3.55 -28.75 1.2 -32.35 4.55 -30.95 L8.35 -28.65 Q10.5 -27.5 11.2 -26.55 L19.95 -20.9 Q23.6 -18.25 24.9 -13.85 26.2 -9.55 25.4 -5.45 L18.75 -2.35 Q21.1 -4.15 22.45 -4.85 23.85 -5.5 24.65 -6.6 L24.45 -8.55 Q23.65 -15.7 18.65 -20.25 15.05 -23.5 11.2 -26.55 L11.4 -26.25 Q11.45 -26.15 11.2 -26.15 M-22.85 -10.75 L-24.1 -7.75 -23.65 -6.65 Q-22.9 -5.1 -21.75 -4.0 L-22.9 -4.8 Q-24.25 -5.9 -25.1 -7.65 -24.85 -9.05 -23.65 -10.15 L-22.85 -10.75 M-23.3 -11.75 Q-22.4 -14.6 -21.1 -17.3 -18.8 -21.95 -14.15 -24.0 -9.4 -26.05 -4.65 -28.4 -8.0 -26.0 -11.4 -24.55 -14.85 -23.1 -17.55 -19.35 L-23.3 -11.75 M5.8 -0.9 L17.3 -2.0 Q15.3 -0.9 13.2 -0.35 L7.15 0.55 -5.45 0.2 Q-12.55 -0.45 -18.75 -3.8 -16.25 -2.75 -13.7 -2.05 -8.85 -0.75 -3.9 -0.55 L5.8 -0.9" fill="#000000" fill-rule="evenodd" stroke="none"/>
    </g>
    <g id="sprite1">
      <use ffdec:characterId="1" height="18.4" transform="matrix(1.0, 0.0, 0.0, 1.0, 0.0, 0.0)" width="20.65" xlink:href="#shape1"/>
    </g>
    <g id="shape1">
      <path d="M0.5 6.05 L-0.2 5.95 Q0.9 0.55 6.4 0.8 L8.2 1.15 7.8 1.8 11.35 1.7 Q14.45 1.7 17.1 3.4 L17.25 4.0 18.45 5.0 Q18.15 9.95 14.55 12.95 L15.3 13.55 14.25 15.45 13.65 15.95 13.2 16.9 11.8 17.4 10.7 17.45 Q12.5 16.6 13.8 15.2 L14.7 14.3 Q12.95 15.35 11.0 14.75 L9.65 14.35 8.35 15.1 7.45 16.05 8.4 17.2 8.05 17.65 Q5.95 18.25 5.0 16.25 L3.85 15.2 3.75 15.15 3.8 15.15 3.85 15.2 Q6.2 14.9 8.3 14.0 10.5 13.15 11.5 11.0 12.05 9.8 12.2 8.45 L12.05 8.2 14.75 5.65 13.2 6.45 13.7 5.85 14.3 5.2 14.9 4.8 11.15 6.35 Q13.65 5.2 15.9 3.35 13.25 2.95 10.8 3.45 L14.0 2.2 Q10.75 1.8 7.6 2.3 L6.25 2.95 5.3 3.65 7.15 1.65 3.65 2.2 Q2.1 2.55 1.45 4.0 L4.5 4.2 3.25 5.15 2.15 6.25 1.6 5.9 1.85 6.9 1.15 6.4 0.5 6.05 M14.8 8.6 L11.05 12.2 Q13.9 13.35 15.55 10.65 16.95 8.25 16.35 5.45 L15.1 6.9 Q14.1 8.0 12.8 8.5 L14.8 8.6 M7.45 8.6 L9.3 7.85 9.5 8.25 7.45 8.6" fill="#2f2f2f" fill-rule="evenodd" stroke="none"/>
      <path d="M10.7 17.45 L8.05 17.65 8.4 17.2 7.45 16.05 8.35 15.1 9.65 14.35 11.0 14.75 Q12.95 15.35 14.7 14.3 L13.8 15.2 Q12.5 16.6 10.7 17.45 M1.85 6.9 L1.6 5.9 2.15 6.25 3.25 5.15 4.5 4.2 1.45 4.0 Q2.1 2.55 3.65 2.2 L7.15 1.65 5.3 3.65 6.25 2.95 7.8 3.7 5.55 5.75 9.75 5.55 Q11.2 5.1 12.15 3.9 L10.1 4.15 10.55 3.5 10.1 2.75 7.6 2.3 Q10.75 1.8 14.0 2.2 L10.8 3.45 Q13.25 2.95 15.9 3.35 13.65 5.2 11.15 6.35 L14.9 4.8 14.3 5.2 13.7 5.85 13.2 6.45 14.75 5.65 12.05 8.2 9.5 8.25 9.3 7.85 7.45 8.6 4.7 8.7 3.9 8.5 1.85 6.9 M14.8 8.6 L12.8 8.5 Q14.1 8.0 15.1 6.9 L16.35 5.45 Q16.95 8.25 15.55 10.65 13.9 13.35 11.05 12.2 L14.8 8.6 M14.75 10.5 L14.1 10.75 12.1 11.75 Q13.9 12.25 14.75 10.5 M8.55 6.75 L9.8 7.2 11.5 5.8 8.55 6.75 M9.05 14.85 L9.2 16.05 Q10.6 17.45 12.15 16.35 L12.8 15.85 12.2 16.1 12.1 15.5 11.4 15.65 9.05 14.85" fill="#636363" fill-rule="evenodd" stroke="none"/>
      <path d="M6.25 2.95 L7.6 2.3 10.1 2.75 10.55 3.5 10.1 4.15 12.15 3.9 Q11.2 5.1 9.75 5.55 L5.55 5.75 7.8 3.7 6.25 2.95 M14.75 10.5 Q13.9 12.25 12.1 11.75 L14.1 10.75 14.75 10.5 M8.55 6.75 L11.5 5.8 9.8 7.2 8.55 6.75 M9.05 14.85 L11.4 15.65 12.1 15.5 12.2 16.1 12.8 15.85 12.15 16.35 Q10.6 17.45 9.2 16.05 L9.05 14.85" fill="#8f8f8f" fill-rule="evenodd" stroke="none"/>
      <path d="M3.8 15.15 Q2.1 13.4 1.25 10.95 0.55 8.95 0.5 6.75 L0.5 6.05 1.15 6.4 1.85 6.9 3.9 8.5 1.7 9.45 1.95 10.1 Q2.85 12.2 4.55 13.5 8.4 12.95 10.25 9.65 L9.55 9.8 Q6.9 9.95 4.7 8.7 L7.45 8.6 9.5 8.25 12.05 8.2 12.2 8.45 Q12.05 9.8 11.5 11.0 10.5 13.15 8.3 14.0 6.2 14.9 3.85 15.2 L3.8 15.15" fill="#b54166" fill-rule="evenodd" stroke="none"/>
      <path d="M3.9 8.5 L4.7 8.7 Q6.9 9.95 9.55 9.8 L10.25 9.65 Q8.4 12.95 4.55 13.5 2.85 12.2 1.95 10.1 L1.7 9.45 3.9 8.5" fill="#ff7fa8" fill-rule="evenodd" stroke="none"/>
      <path d="M17.05 3.3 L16.95 3.25 15.8 2.7 Q11.3 1.2 5.7 3.05 L7.4 1.65 6.3 1.45 Q3.35 0.9 1.85 2.6 0.35 4.25 0.1 5.05 0.1 4.6 1.4 2.0 2.6 -0.65 10.25 0.25 L9.35 1.45 Q13.75 0.3 17.95 3.0 17.65 3.25 17.7 3.45 17.7 3.65 18.4 4.0 L20.45 4.35 Q18.35 9.1 16.15 12.35 15.9 14.9 13.65 16.7 10.35 19.4 6.3 17.75 L5.9 16.95 10.7 17.35 Q13.8 17.1 14.9 13.45 L13.5 13.25 15.05 11.8 Q17.75 8.95 18.3 5.15 L15.9 3.75 17.05 3.3 M12.9 8.25 L12.4 8.6 Q10.9 14.1 7.9 14.9 L3.7 15.1 Q4.55 13.6 6.75 13.9 L9.15 12.85 Q11.4 11.5 11.85 8.75 7.15 9.7 3.1 7.9 6.45 9.25 9.25 7.25 L9.9 7.0 9.95 7.1 9.8 7.5 9.4 8.0 Q11.7 8.65 13.85 6.8 L13.25 7.9 12.9 8.25 M0.0 6.05 Q0.45 3.95 3.45 4.5 L3.9 4.6 Q3.05 4.65 1.6 5.3 L0.05 6.1 0.0 6.05 M3.65 5.4 Q4.15 4.8 4.8 4.75 L5.0 4.8 Q3.95 5.15 3.7 5.5 L3.65 5.4" fill="#000000" fill-rule="evenodd" stroke="none"/>
    </g>
  </defs>
</svg>
