<?xml version="1.0" encoding="UTF-8" standalone="no"?>
<svg xmlns:ffdec="https://www.free-decompiler.com/flash" xmlns:xlink="http://www.w3.org/1999/xlink" ffdec:objectType="frame" height="27.7px" width="36.45px" xmlns="http://www.w3.org/2000/svg">
  <g transform="matrix(1.0, 0.0, 0.0, 1.0, 18.45, 42.35)">
    <use ffdec:characterId="2" height="27.7" transform="matrix(1.0, 0.0, 0.0, 1.0, -0.2, -28.5)" width="36.45" xlink:href="#sprite0"/>
  </g>
  <defs>
    <g id="sprite0">
      <use ffdec:characterId="1" height="27.7" transform="matrix(1.0, 0.0, 0.0, 1.0, 0.0, 0.0)" width="36.45" xlink:href="#shape0"/>
    </g>
    <g id="shape0">
      <path d="M-12.1 -2.9 Q-10.9 -3.4 -10.9 -1.8 L-11.05 -0.8 Q-11.35 -0.05 -11.85 -0.05 -12.65 -0.05 -13.05 -0.45 L-13.25 -1.05 Q-13.25 -2.4 -12.1 -2.9 M-5.55 2.0 Q-5.55 2.75 -6.15 2.75 -6.65 2.75 -6.85 2.2 L-7.0 1.6 Q-7.0 0.9 -6.3 0.95 -5.55 1.05 -5.55 2.0 M-10.2 0.75 Q-10.2 -0.6 -9.35 -0.95 -8.5 -1.25 -8.5 0.15 -8.5 1.85 -9.5 1.85 -10.05 1.85 -10.15 1.35 L-10.2 0.75" fill="#ffffff" fill-rule="evenodd" stroke="none"/>
      <path d="M-16.05 0.35 Q-16.05 -1.85 -15.4 -4.6 L-14.6 -6.05 -14.3 -6.45 -14.15 -6.6 -11.85 -8.75 Q-10.0 -10.05 -7.75 -10.75 -3.55 -11.95 0.8 -12.35 3.45 -12.45 5.75 -11.5 7.05 -11.0 8.3 -10.05 L9.75 -9.5 Q11.0 -9.2 12.05 -7.2 L14.4 -2.75 Q15.7 -0.3 14.3 3.6 13.1 6.75 10.7 8.55 L9.5 9.3 Q6.1 11.15 0.45 11.65 -5.3 12.15 -9.75 9.8 -14.25 7.4 -15.45 4.05 -16.1 2.4 -16.05 0.35 M-12.7 -3.9 L-14.7 -2.9 Q-14.45 1.55 -11.45 4.7 -8.8 7.5 -5.05 8.75 -1.35 9.85 2.35 9.2 L2.65 7.15 Q2.85 5.45 2.55 3.7 -1.25 1.05 -5.55 -0.85 -8.75 -2.2 -11.5 -4.35 L-12.7 -3.9" fill="#f78687" fill-rule="evenodd" stroke="none"/>
      <path d="M-12.7 -3.9 L-11.5 -4.35 Q-8.75 -2.2 -5.55 -0.85 -1.25 1.05 2.55 3.7 2.85 5.45 2.65 7.15 L2.35 9.2 Q-1.35 9.85 -5.05 8.75 -8.8 7.5 -11.45 4.7 -14.45 1.55 -14.7 -2.9 L-12.7 -3.9 M-10.2 0.75 L-10.15 1.35 Q-10.05 1.85 -9.5 1.85 -8.5 1.85 -8.5 0.15 -8.5 -1.25 -9.35 -0.95 -10.2 -0.6 -10.2 0.75 M-5.55 2.0 Q-5.55 1.05 -6.3 0.95 -7.0 0.9 -7.0 1.6 L-6.85 2.2 Q-6.65 2.75 -6.15 2.75 -5.55 2.75 -5.55 2.0 M-12.1 -2.9 Q-13.25 -2.4 -13.25 -1.05 L-13.05 -0.45 Q-12.65 -0.05 -11.85 -0.05 -11.35 -0.05 -11.05 -0.8 L-10.9 -1.8 Q-10.9 -3.4 -12.1 -2.9" fill="#ffbdbd" fill-rule="evenodd" stroke="none"/>
      <path d="M-4.0 -13.0 L0.65 -8.25 3.4 -3.9 3.8 -3.05 Q3.05 -4.35 1.15 -6.65 -1.35 -9.7 -2.95 -10.8 L-4.55 -11.8 Q-4.6 -11.0 -4.9 -10.8 L-4.8 -10.85 -5.25 -10.45 -6.7 -10.05 -8.45 -9.6 -8.7 -9.7 -8.3 -10.0 Q-7.95 -10.75 -7.25 -11.15 L-6.85 -11.35 -6.75 -11.35 -6.5 -11.8 -4.85 -12.25 -4.4 -13.2 -4.0 -13.0 M-13.4 -10.2 L-6.85 -8.55 -2.75 -8.35 -2.1 -7.7 -1.75 -7.35 -2.8 -5.85 -1.4 -6.0 4.65 0.2 5.9 2.05 3.55 2.2 -1.25 -1.8 Q-3.2 -3.35 -3.9 -5.6 L-3.3 -6.45 Q-6.05 -6.85 -8.65 -7.85 -12.15 -9.05 -15.6 -7.25 L-16.0 -6.25 -15.8 -6.9 Q-15.1 -8.9 -13.4 -10.2 M-1.55 12.5 L-3.8 12.8 -7.7 12.95 Q-10.7 12.9 -13.6 12.05 -16.15 11.45 -17.05 9.9 -18.05 8.35 -17.7 7.0 L-17.4 6.05 -16.15 7.45 -15.3 8.2 -15.45 9.7 Q-13.95 9.7 -12.45 10.4 -7.15 12.4 -1.55 12.5 M9.55 10.4 Q11.55 10.9 12.7 12.55 L12.75 12.7 12.6 12.9 12.4 13.05 12.1 13.15 11.85 13.2 6.85 11.3 7.15 11.05 10.85 12.15 8.8 10.75 9.55 10.4" fill="#bbc544" fill-rule="evenodd" stroke="none"/>
      <path d="M-4.0 -13.0 L-2.9 -12.05 -1.0 -12.4 0.0 -12.6 3.15 -13.5 3.35 -13.55 3.2 -12.6 2.9 -11.75 2.65 -11.25 4.95 -11.05 4.2 -10.2 Q3.1 -8.9 3.2 -7.65 4.85 -2.8 4.85 0.4 L4.65 0.2 -1.4 -6.0 -2.8 -5.85 -1.75 -7.35 -2.1 -7.7 -2.75 -8.35 -6.85 -8.55 -13.4 -10.2 -12.65 -10.5 -11.35 -10.45 -9.6 -11.0 -6.5 -11.8 -6.75 -11.35 -6.85 -11.35 -7.25 -11.15 Q-7.95 -10.75 -8.3 -10.0 L-8.7 -9.7 -8.45 -9.6 -6.7 -10.05 -5.25 -10.45 -4.8 -10.85 -4.9 -10.8 Q-4.6 -11.0 -4.55 -11.8 L-2.95 -10.8 Q-1.35 -9.7 1.15 -6.65 3.05 -4.35 3.8 -3.05 L3.4 -3.9 0.65 -8.25 -4.0 -13.0 M6.65 -13.2 L7.6 -12.15 7.45 -11.5 6.75 -8.25 Q6.5 -6.45 6.65 -4.4 L6.95 0.05 7.0 2.7 6.8 4.7 Q5.6 4.6 4.35 3.65 L2.85 2.2 2.35 1.6 -1.9 -1.9 Q-3.55 -2.2 -4.8 -3.4 L-7.3 -6.05 Q-8.45 -7.5 -12.35 -8.05 -13.1 -8.0 -15.65 -4.9 L-15.85 -5.3 -16.0 -6.25 -15.6 -7.25 Q-12.15 -9.05 -8.65 -7.85 -6.05 -6.85 -3.3 -6.45 L-3.9 -5.6 Q-3.2 -3.35 -1.25 -1.8 L3.55 2.2 5.9 2.05 6.2 2.0 5.75 -3.85 Q5.65 -4.95 5.85 -6.0 6.5 -9.5 6.65 -13.2 M-17.4 6.05 L-16.85 4.5 -16.2 3.1 -13.2 7.25 Q-12.05 8.9 -10.15 9.65 -8.1 10.65 -5.95 11.2 L-1.55 11.35 Q-0.4 11.2 0.5 11.75 L-1.55 12.5 Q-7.15 12.4 -12.45 10.4 -13.95 9.7 -15.45 9.7 L-15.3 8.2 -16.15 7.45 -17.4 6.05 M14.65 -0.2 L16.55 2.15 Q17.8 3.95 17.8 6.15 16.75 7.2 15.25 7.45 L10.7 8.75 10.95 8.3 11.8 7.6 13.4 5.5 Q14.75 2.9 14.65 -0.2 M6.85 11.3 L6.65 11.3 5.85 10.8 6.2 10.5 6.8 10.3 7.5 10.15 7.75 10.05 8.3 10.05 Q8.8 10.05 9.55 10.4 L8.8 10.75 10.85 12.15 7.15 11.05 6.85 11.3" fill="#688025" fill-rule="evenodd" stroke="none"/>
      <path d="M4.65 0.2 L4.85 0.4 Q4.85 -2.8 3.2 -7.65 3.1 -8.9 4.2 -10.2 L4.95 -11.05 2.65 -11.25 2.9 -11.75 3.2 -12.6 3.35 -13.55 4.05 -13.7 Q5.4 -13.9 6.65 -13.2 6.5 -9.5 5.85 -6.0 5.65 -4.95 5.75 -3.85 L6.2 2.0 5.9 2.05 4.65 0.2" fill="#a0a934" fill-rule="evenodd" stroke="none"/>
      <path d="M6.95 10.55 L6.1 10.9 11.65 13.1 Q12.05 13.05 12.7 12.35 L10.2 11.15 8.3 10.15 6.95 10.55 M-13.4 -8.35 L-14.05 -9.15 Q-15.95 -7.75 -15.7 -4.9 L-14.75 -6.6 -13.4 -8.35 M-4.25 -12.7 Q-4.25 -12.45 -4.6 -12.0 L-0.75 -8.8 Q1.0 -7.2 4.0 -3.2 2.45 -6.45 0.45 -8.85 -1.6 -11.3 -4.25 -12.7 M7.4 -12.05 Q6.7 -12.9 4.5 -12.9 1.85 -12.95 -1.4 -11.65 2.5 -7.0 3.5 -5.05 L5.15 -0.3 Q5.05 -0.15 4.5 -1.55 3.9 -2.95 0.15 -7.3 -3.6 -11.65 -5.65 -11.5 -7.7 -11.35 -13.2 -9.5 -12.75 -8.4 -12.4 -8.25 L-10.3 -7.75 Q-7.55 -7.4 -6.7 -5.75 -6.1 -4.5 -4.45 -3.6 L-0.7 -0.9 Q1.5 0.9 2.2 1.2 2.85 1.45 4.1 2.9 5.0 4.6 6.5 4.25 L6.65 3.8 6.65 2.55 6.75 1.05 6.35 -4.05 Q6.25 -6.45 7.4 -12.05 M-16.05 3.55 L-16.3 4.35 Q-18.6 6.6 -17.0 9.15 -16.2 10.4 -14.85 11.25 -8.9 12.6 -3.3 12.6 L0.05 11.85 Q-3.85 12.65 -9.55 10.1 -15.7 7.25 -16.05 3.55 M-15.25 -1.65 L-15.45 0.55 Q-15.45 6.15 -11.05 8.95 -7.75 11.1 -3.3 11.1 6.25 11.1 10.25 8.55 13.95 6.2 13.95 0.6 13.95 -3.15 12.2 -6.05 10.6 -8.8 7.95 -10.05 7.95 -8.95 7.2 -7.5 6.4 -6.05 7.05 -3.85 6.85 0.85 7.35 5.1 6.3 5.1 5.2 4.35 L2.6 2.15 -2.2 -1.65 -4.4 -2.8 Q-6.1 -3.75 -6.6 -4.5 -8.05 -6.8 -8.5 -6.95 L-12.7 -7.7 -13.85 -5.95 -15.0 -3.7 -15.25 -1.65 M17.8 4.15 L18.2 5.9 Q18.2 6.85 16.9 7.3 L13.3 8.2 Q11.95 8.5 10.7 9.1 L9.1 10.0 13.6 12.2 12.4 13.45 11.75 13.85 10.8 13.55 10.45 13.25 Q5.6 11.3 4.55 11.3 3.55 11.3 1.55 11.85 L-0.35 12.4 -2.05 12.75 -3.75 13.1 Q-12.2 13.1 -15.55 11.6 -18.25 10.35 -18.25 7.7 L-17.1 4.35 Q-15.95 0.2 -15.95 -3.85 L-16.6 -6.7 Q-16.75 -7.85 -14.5 -9.8 -13.2 -10.85 -9.95 -11.55 L-5.8 -12.15 Q-5.05 -12.15 -4.85 -12.7 L-4.45 -13.5 -3.3 -12.65 Q-2.8 -12.25 -2.25 -12.25 L3.85 -13.85 Q5.5 -13.85 6.75 -13.35 L8.1 -12.95 Q8.7 -12.95 8.95 -12.2 9.55 -10.75 11.0 -9.15 13.9 -5.85 14.4 -3.5 L15.1 -0.4 Q15.5 0.9 16.75 2.35 L17.8 4.15 M17.45 5.8 Q17.45 5.0 16.8 3.6 16.1 2.15 15.05 1.05 15.05 5.15 11.35 8.35 13.25 7.35 15.9 6.95 17.45 6.75 17.45 5.8" fill="#000000" fill-rule="evenodd" stroke="none"/>
    </g>
  </defs>
</svg>
