<?xml version="1.0" encoding="UTF-8" standalone="no"?>
<svg xmlns:ffdec="https://www.free-decompiler.com/flash" xmlns:xlink="http://www.w3.org/1999/xlink" ffdec:objectType="frame" height="54.0px" width="57.8px" xmlns="http://www.w3.org/2000/svg">
  <g transform="matrix(1.0, 0.0, 0.0, 1.0, 29.1, 67.5)">
    <use ffdec:characterId="15" height="22.65" transform="matrix(0.8781, 0.0, 0.0, 1.0, -0.2, -25.8)" width="44.85" xlink:href="#sprite0"/>
    <use ffdec:characterId="16" height="14.7" transform="matrix(1.0, 0.0, 0.0, 1.0, 0.0, -5.0)" width="32.2" xlink:href="#shape1"/>
    <use ffdec:characterId="18" height="22.25" transform="matrix(0.8781, 0.0, 0.0, 1.0, -0.2, -26.4)" width="49.15" xlink:href="#sprite1"/>
    <use ffdec:characterId="7" height="21.85" transform="matrix(-1.0, 0.0, 0.0, 1.0, 14.0, -24.4)" width="29.35" xlink:href="#sprite2"/>
    <use ffdec:characterId="7" height="21.85" transform="matrix(1.0, 0.0, 0.0, 1.0, -14.4, -24.4)" width="29.35" xlink:href="#sprite2"/>
    <use ffdec:characterId="28" height="31.3" transform="matrix(1.0, 0.0, 0.0, 1.0, 0.0, 0.0)" width="39.2" xlink:href="#shape4"/>
    <use ffdec:characterId="10" height="17.95" transform="matrix(1.0, 0.0, 0.0, 1.0, -0.2, -58.75)" width="17.9" xlink:href="#sprite3"/>
    <use ffdec:characterId="12" height="14.05" transform="matrix(1.0, 0.0, 0.0, 1.0, -0.2, -37.25)" width="21.85" xlink:href="#sprite4"/>
  </g>
  <defs>
    <g id="sprite0">
      <use ffdec:characterId="14" height="22.65" transform="matrix(1.0, 0.0, 0.0, 1.0, 0.0, 0.0)" width="44.85" xlink:href="#shape0"/>
    </g>
    <g id="shape0">
      <path d="M21.75 2.6 L-21.75 2.6 -18.5 -10.85 18.45 -10.85 21.75 2.6" fill="#000000" fill-rule="evenodd" stroke="none"/>
      <path d="M21.75 2.6 L-21.75 2.6 -18.5 -10.85 18.45 -10.85 21.75 2.6 Z" ffdec:has-small-stroke="true" ffdec:original-stroke-width="1.0" fill="none" stroke="#141418" stroke-linecap="round" stroke-linejoin="round" stroke-width="1.067185563578186"/>
      <path d="M21.9 10.8 L-21.95 10.8 -21.95 3.0 21.9 3.0 21.9 10.8" fill="#2c2c31" fill-rule="evenodd" stroke="none"/>
      <path d="M21.9 10.8 L-21.95 10.8 -21.95 3.0 21.9 3.0 21.9 10.8 Z" ffdec:has-small-stroke="true" ffdec:original-stroke-width="1.0" fill="none" stroke="#141418" stroke-linecap="round" stroke-linejoin="round" stroke-width="1.067185563578186"/>
      <path d="M21.3 4.3 L-21.35 4.3 -21.1 2.8 21.05 2.8 21.3 4.3" fill="#938e95" fill-rule="evenodd" stroke="none"/>
    </g>
    <g id="shape1">
      <path d="M10.05 -23.75 L10.05 -17.25 9.7 -17.15 3.25 -13.75 0.5 -12.0 Q-1.9 -10.55 -2.65 -10.4 -3.4 -10.25 -5.55 -12.15 -7.75 -14.1 -12.95 -19.45 L-12.1 -23.75 10.05 -23.75" fill="#000000" fill-rule="evenodd" stroke="none"/>
      <path d="M11.9 -23.95 L16.75 -22.45 Q18.35 -22.0 19.2 -21.45 L19.2 -11.65 Q19.4 -10.7 18.4 -11.0 17.4 -11.3 16.45 -13.3 15.5 -15.35 14.5 -15.5 13.45 -15.65 12.9 -16.7 12.35 -17.8 12.1 -18.65 11.95 -15.4 8.95 -18.25 7.6 -19.1 6.95 -21.45 6.65 -22.65 6.75 -23.8 7.05 -24.7 7.95 -25.0 9.4 -25.5 11.9 -23.95" fill="#000000" fill-rule="evenodd" stroke="none"/>
    </g>
    <g id="sprite1">
      <use ffdec:characterId="17" height="22.25" transform="matrix(1.0, 0.0, 0.0, 1.0, 0.0, 0.0)" width="49.15" xlink:href="#shape2"/>
    </g>
    <g id="shape2">
      <path d="M-23.1 -1.5 Q-21.55 -3.1 -20.6 -4.65 L-20.5 -4.65 Q-18.95 -3.25 -16.95 -2.0 L-10.15 2.05 -8.75 2.85 -4.8 5.0 -0.7 7.3 -0.45 7.3 -0.45 7.35 -0.35 7.35 -0.2 7.5 -0.1 7.55 -0.05 7.55 Q3.0 6.2 5.7 4.15 L7.6 2.85 Q10.8 0.6 14.25 -1.25 16.9 -2.75 18.95 -4.2 L20.0 -4.65 23.35 -1.8 23.7 -0.7 Q24.45 1.75 24.45 3.15 L24.45 3.8 23.9 4.2 Q23.4 4.2 22.25 1.95 L20.9 -0.3 Q20.4 -0.3 15.6 2.1 L14.15 2.85 9.95 4.95 4.9 7.85 Q0.85 10.05 0.1 10.05 -0.9 10.05 -4.05 7.85 -7.65 5.35 -9.1 4.8 L-14.05 2.85 -14.85 2.45 -20.95 -0.4 -22.5 2.05 -23.7 3.7 -24.15 3.25 Q-24.15 1.25 -23.35 -0.85 L-23.1 -1.5" fill="#a31f1f" fill-rule="evenodd" stroke="none"/>
      <path d="M23.35 -1.8 L20.0 -4.65 18.95 -4.2 Q16.9 -2.75 14.25 -1.25 10.8 0.6 7.6 2.85 L5.7 4.15 Q3.0 6.2 -0.05 7.55 L-0.1 7.55 -0.2 7.5 -0.35 7.35 -0.45 7.35 -0.45 7.3 -0.7 7.3 -4.8 5.0 -8.75 2.85 -10.15 2.05 -16.95 -2.0 Q-18.95 -3.25 -20.5 -4.65 L-20.6 -4.65 Q-21.55 -3.1 -23.1 -1.5 L-22.15 -4.75 Q-21.5 -7.4 -19.45 -8.4 -16.2 -9.95 -6.25 -10.65 L-6.25 -10.7 -3.55 -10.7 Q-1.75 -9.85 1.6 -9.85 L8.45 -10.2 13.35 -10.65 Q15.4 -10.65 17.45 -9.55 L20.4 -7.95 Q21.65 -7.55 21.95 -6.35 22.1 -4.95 22.4 -4.25 L23.35 -1.8" fill="#b3a7a7" fill-rule="evenodd" stroke="none"/>
      <path d="M-8.8 2.85 L7.55 2.85 Q2.1 6.6 -0.05 7.55 L-0.1 7.55 -8.8 2.85" fill="#ece4e4" fill-rule="evenodd" stroke="none"/>
      <path d="M7.55 2.85 L14.1 2.85 7.1 6.7 Q0.85 10.05 0.2 9.95 -0.5 9.85 -5.1 7.4 -9.75 4.9 -14.05 2.85 L-8.8 2.85 -0.1 7.55 -0.05 7.55 Q2.1 6.6 7.55 2.85" fill="#e82626" fill-rule="evenodd" stroke="none"/>
      <path d="M-13.05 -10.6 L-11.9 -11.15 -9.8 -10.85 -7.2 -11.05 0.3 -10.7 2.15 -10.55 9.05 -10.8 13.4 -10.65 Q13.4 -9.9 11.0 -9.9 L8.7 -9.95 6.25 -9.8 1.45 -9.6 -2.75 -10.0 Q-6.3 -10.15 -8.75 -9.9 L-11.55 -9.7 -12.55 -9.95 -13.05 -10.6" fill="#2f1111" fill-rule="evenodd" stroke="none"/>
      <path d="M22.75 -5.5 L23.9 -1.4 Q24.55 1.1 24.55 2.65 L24.45 5.75 24.4 5.85 24.15 5.9 22.9 3.65 21.05 0.5 16.1 2.7 Q13.6 3.75 11.6 3.9 18.45 -0.6 21.5 -0.6 L21.95 -0.45 21.95 0.25 Q21.95 0.9 22.75 1.85 L23.95 3.65 24.0 2.75 Q24.0 0.9 23.25 -0.6 L21.5 -4.5 21.1 -6.35 Q20.8 -7.35 19.75 -7.9 L13.6 -10.6 13.45 -10.7 Q14.65 -10.8 16.85 -10.1 L20.1 -9.0 Q21.85 -8.95 22.4 -7.75 L22.75 -5.5" fill="#2f1111" fill-rule="evenodd" stroke="none"/>
      <path d="M2.95 9.75 Q0.75 11.1 0.4 11.1 L-1.2 10.15 Q-2.9 9.05 -3.85 8.7 L-5.6 7.5 Q-6.85 6.55 -7.4 6.55 -7.95 6.55 -10.25 5.2 L-15.25 1.9 -11.7 3.35 -9.9 4.35 -8.05 4.9 Q-6.95 5.25 -6.2 5.9 L-2.55 8.35 Q-0.15 9.8 0.4 9.8 L5.95 6.75 Q11.4 3.5 13.75 2.95 12.65 4.1 10.6 5.25 L6.8 7.3 2.95 9.75" fill="#2f1111" fill-rule="evenodd" stroke="none"/>
      <path d="M-22.8 -5.5 L-23.95 -1.4 Q-24.6 1.1 -24.6 2.65 L-24.5 5.75 -24.45 5.85 -24.2 5.9 -22.95 3.65 -21.1 0.5 -16.15 2.7 Q-13.65 3.75 -11.65 3.9 -18.5 -0.6 -21.55 -0.6 L-22.0 -0.45 -22.0 0.25 Q-22.0 0.9 -22.8 1.85 L-24.0 3.65 -24.05 2.75 Q-24.05 0.9 -23.3 -0.6 -21.95 -3.4 -21.55 -4.5 L-21.15 -6.35 Q-20.85 -7.35 -19.8 -7.9 -18.35 -8.6 -10.2 -10.45 L-13.5 -10.7 Q-14.7 -10.8 -16.9 -10.1 L-20.15 -9.0 Q-21.9 -8.95 -22.45 -7.75 L-22.8 -5.5" fill="#2f1111" fill-rule="evenodd" stroke="none"/>
      <path d="M6.1 3.2 Q6.1 3.5 4.1 3.7 L-0.75 3.9 -5.6 3.7 -7.55 3.2 Q-7.55 2.9 -5.6 2.7 L-0.75 2.5 4.1 2.7 Q6.1 2.9 6.1 3.2" fill="#ffffff" fill-rule="evenodd" stroke="none"/>
    </g>
    <g id="sprite2">
      <use ffdec:characterId="6" height="21.85" transform="matrix(1.0, 0.0, 0.0, 1.0, 0.0, 0.0)" width="29.35" xlink:href="#shape3"/>
    </g>
    <g id="shape3">
      <path d="M14.05 -7.65 Q10.75 -7.1 9.7 -3.25 8.65 0.55 6.95 0.55 5.25 0.55 5.15 -0.85 L5.1 -3.1 4.95 -2.9 3.9 -0.35 Q2.95 1.55 2.35 1.5 1.7 1.4 0.95 0.8 0.15 0.15 -0.2 -1.7 -0.55 0.1 -1.05 1.25 -1.6 2.4 -2.3 2.7 -3.0 2.95 -4.05 2.15 -3.95 2.6 -4.45 4.25 -4.9 5.95 -5.7 5.8 -6.5 5.65 -6.9 4.8 L-7.5 3.1 -7.85 4.55 Q-8.15 9.95 -9.85 9.25 L-10.2 9.0 Q-11.45 6.8 -10.4 4.85 L-11.45 6.45 Q-13.25 9.8 -13.75 9.8 L-14.1 9.7 -14.1 9.2 Q-13.9 6.85 -12.7 5.2 L-11.8 4.1 -13.05 4.5 -13.8 4.5 Q-14.2 4.35 -14.2 3.75 -14.2 2.5 -12.2 1.1 L-10.55 0.2 Q-11.05 0.0 -10.95 -0.6 -10.95 -2.25 -6.75 -3.65 L-4.5 -4.2 -4.9 -4.45 Q-5.25 -4.75 -5.25 -5.1 -5.25 -6.7 -1.65 -8.0 L1.05 -8.4 1.0 -8.7 Q1.0 -10.3 4.85 -10.85 7.4 -11.2 8.25 -10.3 L11.35 -10.2 Q12.8 -9.6 14.05 -7.65" fill="#2b622f" fill-rule="evenodd" stroke="none"/>
      <path d="M7.85 -8.8 L11.1 -8.75 Q13.15 -8.1 13.05 -7.75 12.95 -7.4 12.1 -7.25 L10.35 -6.65 8.9 -5.6 Q8.45 -5.05 7.9 -3.55 7.3 -2.1 6.35 -2.45 5.4 -2.85 5.5 -4.35 5.5 -5.3 6.1 -6.45 L6.1 -6.5 4.55 -5.2 Q3.45 -4.05 2.85 -2.8 2.2 -1.55 1.35 -1.55 0.45 -1.55 0.4 -2.45 L0.35 -3.9 -0.95 -1.5 Q-2.0 0.45 -2.75 0.5 -3.55 0.55 -3.55 -0.95 L-3.45 -2.25 Q-4.35 -0.55 -4.85 2.25 -5.15 4.05 -5.95 4.05 -6.9 4.05 -6.8 2.4 L-6.7 0.65 Q-7.35 1.65 -7.95 3.6 -8.4 6.3 -9.4 6.45 -10.85 6.85 -10.1 3.8 L-12.35 7.05 -12.6 6.85 Q-12.6 5.65 -9.9 2.3 L-6.6 -1.55 Q-3.95 -4.0 1.1 -6.4 5.6 -8.5 7.85 -8.8" fill="#64b447" fill-rule="evenodd" stroke="none"/>
      <path d="M-7.1 2.4 Q-7.1 4.15 -7.6 6.45 -8.4 10.2 -9.95 10.2 -10.85 10.2 -11.1 9.3 L-11.15 8.4 -10.8 6.15 Q-10.9 6.95 -10.6 8.1 -10.3 9.25 -9.3 8.1 -8.3 6.95 -8.0 4.5 -7.7 2.05 -6.55 0.25 L-7.1 2.4 M-10.55 4.95 L-10.35 4.95 -10.7 5.65 -10.55 4.95" fill="#1d2b1c" fill-rule="evenodd" stroke="none"/>
      <path d="M-0.2 -2.6 L-0.1 -2.6 0.0 -1.8 Q-0.2 0.0 -0.7 1.4 -1.8 4.2 -3.55 3.05 -3.55 3.6 -4.05 4.8 -4.75 6.4 -5.7 6.4 -7.05 6.4 -7.45 3.45 L-7.35 1.9 -7.3 1.9 Q-6.9 5.45 -5.95 5.2 -5.0 4.9 -4.75 3.65 L-4.4 0.25 Q-4.3 -1.85 -2.9 -3.1 -3.55 -1.9 -3.65 -0.45 -3.75 0.95 -3.5 1.45 -3.3 1.95 -2.8 1.95 -2.25 1.95 -1.4 0.05 L-0.2 -2.6" fill="#1d2b1c" fill-rule="evenodd" stroke="none"/>
      <path d="M4.45 -4.05 Q5.6 -6.7 7.05 -7.2 6.15 -6.55 4.95 -2.75 3.35 2.35 1.6 1.85 -0.15 1.35 -0.35 -0.7 -0.35 -4.05 0.65 -4.1 L0.7 -3.95 0.1 -2.8 Q0.1 0.2 1.3 0.2 2.5 0.2 3.3 -1.45 L4.45 -4.05" fill="#1d2b1c" fill-rule="evenodd" stroke="none"/>
      <path d="M13.8 -7.4 Q10.7 -6.35 9.85 -2.7 8.95 0.9 6.95 0.9 4.95 0.9 4.6 -0.7 4.2 -2.35 5.35 -5.05 L5.45 -5.1 5.2 -3.9 5.45 -2.3 Q5.85 -0.95 6.45 -0.95 7.25 -0.95 8.0 -2.55 L8.9 -4.8 Q9.6 -5.85 10.55 -6.7 11.65 -7.65 13.6 -7.6 L13.8 -7.4" fill="#1d2b1c" fill-rule="evenodd" stroke="none"/>
      <path d="M-10.35 4.55 L-11.75 8.35 Q-12.8 10.9 -13.65 10.9 -14.2 10.9 -14.5 10.35 L-14.7 9.55 Q-14.7 8.55 -14.05 7.15 -13.4 5.75 -12.55 4.85 L-12.35 4.8 -13.3 6.6 Q-14.05 8.2 -14.1 9.05 -14.15 9.85 -13.2 9.05 L-11.75 6.65 -10.35 4.55" fill="#1d2b1c" fill-rule="evenodd" stroke="none"/>
      <path d="M-3.85 -3.9 Q-3.85 -3.45 -4.15 -3.45 L-5.15 -3.5 Q-6.85 -3.5 -8.95 -2.2 -11.1 -0.95 -10.85 -0.35 -10.5 0.0 -9.4 0.1 L-10.7 0.75 Q-12.45 1.6 -12.9 2.45 -13.4 3.35 -12.95 3.55 L-11.85 3.45 -10.95 3.1 -11.25 3.55 -12.35 4.7 -12.15 4.35 -12.5 4.5 -13.7 4.65 Q-14.45 4.65 -14.4 3.75 -14.4 3.0 -13.25 1.9 -12.1 0.8 -10.8 0.3 -11.7 0.4 -11.65 -0.5 -11.6 -1.4 -7.7 -3.6 -3.85 -5.85 -3.85 -3.9" fill="#1d2b1c" fill-rule="evenodd" stroke="none"/>
      <path d="M3.1 -7.55 Q3.1 -7.05 2.6 -7.05 L1.75 -7.35 0.6 -7.7 Q-1.05 -7.7 -2.95 -6.85 -4.8 -6.0 -4.8 -5.35 L-4.65 -4.85 -4.05 -4.25 -4.25 -4.3 Q-5.65 -4.3 -5.3 -5.35 -5.3 -7.2 -1.1 -8.25 3.1 -9.35 3.1 -7.55" fill="#1d2b1c" fill-rule="evenodd" stroke="none"/>
      <path d="M8.7 -9.35 Q8.7 -8.6 8.2 -8.6 L7.1 -9.3 Q6.1 -10.05 4.8 -9.9 L2.45 -9.35 Q1.4 -9.0 1.1 -8.45 L0.9 -8.95 Q0.9 -10.3 4.8 -10.85 8.7 -11.4 8.7 -9.35" fill="#1d2b1c" fill-rule="evenodd" stroke="none"/>
      <path d="M14.65 -7.25 L14.6 -7.0 14.55 -6.9 14.35 -6.85 12.65 -8.5 Q11.0 -10.15 9.3 -10.35 L8.15 -10.35 Q10.05 -11.7 12.5 -9.95 14.65 -8.35 14.65 -7.25" fill="#1d2b1c" fill-rule="evenodd" stroke="none"/>
      <path d="M13.55 -7.7 L13.45 -7.45 Q12.6 -7.7 11.9 -8.1 L10.05 -8.3 Q3.65 -8.3 -2.45 -4.45 -7.35 -1.4 -10.35 2.85 L-10.5 2.9 Q-7.75 -2.2 -0.45 -6.45 6.5 -10.5 9.3 -9.55 11.85 -9.6 12.75 -8.95 L13.55 -7.7" fill="#2a4528" fill-rule="evenodd" stroke="none"/>
    </g>
    <g id="shape4">
      <path d="M18.9 -34.75 Q18.9 -30.85 13.3 -28.1 7.75 -25.4 -0.2 -25.4 -8.1 -25.4 -13.7 -28.1 -19.3 -30.85 -19.3 -34.75 -19.3 -38.6 -13.7 -41.35 -8.1 -44.05 -0.2 -44.05 7.75 -44.05 13.3 -41.35 18.9 -38.6 18.9 -34.75" fill="#b8a9a9" fill-rule="evenodd" stroke="none"/>
      <path d="M18.9 -34.75 Q18.9 -30.85 13.3 -28.1 7.75 -25.4 -0.2 -25.4 -8.1 -25.4 -13.7 -28.1 -19.3 -30.85 -19.3 -34.75 -19.3 -38.6 -13.7 -41.35 -8.1 -44.05 -0.2 -44.05 7.75 -44.05 13.3 -41.35 18.9 -38.6 18.9 -34.75 Z" fill="none" stroke="#665959" stroke-linecap="round" stroke-linejoin="round" stroke-width="1.0"/>
      <path d="M16.9 -35.95 Q16.9 -32.95 11.9 -30.85 6.9 -28.7 -0.2 -28.7 -7.3 -28.7 -12.3 -30.85 -17.3 -32.95 -17.3 -35.95 -17.3 -38.95 -12.3 -41.05 -7.3 -43.15 -0.2 -43.15 6.9 -43.15 11.9 -41.05 16.9 -38.95 16.9 -35.95" fill="#ffffff" fill-rule="evenodd" stroke="none"/>
      <path d="M15.1 -38.85 Q15.1 -36.95 10.6 -35.6 6.15 -34.25 -0.2 -34.25 -6.55 -34.25 -11.05 -35.6 -15.5 -36.95 -15.5 -38.85 -15.5 -40.8 -11.05 -42.1 -6.55 -43.45 -0.2 -43.45 6.15 -43.45 10.6 -42.1 15.1 -40.8 15.1 -38.85" fill="#d3bcba" fill-rule="evenodd" stroke="none"/>
      <path d="M14.5 -43.1 Q14.5 -40.05 10.2 -37.95 5.9 -35.85 -0.2 -35.85 -6.3 -35.85 -10.6 -37.95 -14.9 -40.05 -14.9 -43.1 -14.9 -46.15 -10.6 -48.25 -6.3 -50.4 -0.2 -50.4 5.9 -50.4 10.2 -48.25 14.5 -46.15 14.5 -43.1 Z" fill="none" stroke="#ff6100" stroke-linecap="round" stroke-linejoin="round" stroke-width="2.0"/>
      <path d="M16.0 -46.5 Q16.0 -42.7 11.2 -40.05 6.5 -37.35 -0.25 -37.35 -6.95 -37.35 -11.7 -40.05 -16.45 -42.7 -16.45 -46.5 -16.45 -50.35 -11.7 -53.0 -6.95 -55.7 -0.25 -55.7 6.5 -55.7 11.2 -53.0 16.0 -50.35 16.0 -46.5" fill="#b8a9a9" fill-rule="evenodd" stroke="none"/>
      <path d="M16.0 -46.5 Q16.0 -42.7 11.2 -40.05 6.5 -37.35 -0.25 -37.35 -6.95 -37.35 -11.7 -40.05 -16.45 -42.7 -16.45 -46.5 -16.45 -50.35 -11.7 -53.0 -6.95 -55.7 -0.25 -55.7 6.5 -55.7 11.2 -53.0 16.0 -50.35 16.0 -46.5 Z" fill="none" stroke="#665959" stroke-linecap="round" stroke-linejoin="round" stroke-width="1.0"/>
      <path d="M13.7 -48.1 Q13.7 -45.45 9.6 -43.55 5.55 -41.7 -0.25 -41.7 -6.05 -41.7 -10.15 -43.55 -14.2 -45.45 -14.2 -48.1 -14.2 -50.7 -10.15 -52.6 -6.05 -54.45 -0.25 -54.45 5.55 -54.45 9.6 -52.6 13.7 -50.7 13.7 -48.1" fill="#ffffff" fill-rule="evenodd" stroke="none"/>
      <path d="M8.9 -51.75 Q8.9 -50.55 6.2 -49.7 3.55 -48.85 -0.25 -48.85 -4.0 -48.85 -6.7 -49.7 -9.35 -50.55 -9.35 -51.75 -9.35 -52.95 -6.7 -53.8 L-0.25 -54.65 Q3.55 -54.65 6.2 -53.8 8.9 -52.95 8.9 -51.75" fill="#d3bcba" fill-rule="evenodd" stroke="none"/>
    </g>
    <g id="sprite3">
      <use ffdec:characterId="9" height="17.95" transform="matrix(1.0, 0.0, 0.0, 1.0, 0.0, 0.0)" width="17.9" xlink:href="#shape5"/>
    </g>
    <g id="shape5">
      <path d="M8.2 5.25 L8.15 5.25 Q7.6 6.4 5.95 7.35 3.5 8.7 0.0 8.7 -3.5 8.7 -6.0 7.35 -7.6 6.4 -8.2 5.25 L-8.25 5.25 -8.45 3.6 Q-8.45 0.75 -6.0 -1.25 -3.5 -3.2 0.0 -3.2 3.5 -3.2 5.95 -1.25 8.45 0.75 8.45 3.6 L8.2 5.25" fill="#e55200" fill-rule="evenodd" stroke="none"/>
      <path d="M8.2 5.25 L8.45 3.6 Q8.45 0.75 5.95 -1.25 3.5 -3.2 0.0 -3.2 -3.5 -3.2 -6.0 -1.25 -8.45 0.75 -8.45 3.6 L-8.25 5.25 M-8.2 5.25 Q-7.6 6.4 -6.0 7.35 -3.5 8.7 0.0 8.7 3.5 8.7 5.95 7.35 7.6 6.4 8.15 5.25" fill="none" stroke="#a81609" stroke-linecap="round" stroke-linejoin="round" stroke-width="1.0"/>
      <path d="M6.4 1.25 Q6.4 2.65 4.5 3.65 2.6 4.65 -0.05 4.65 -2.75 4.65 -4.7 3.65 -6.55 2.65 -6.55 1.25 -6.55 -0.2 -4.7 -1.2 -2.75 -2.2 -0.05 -2.2 2.6 -2.2 4.5 -1.2 6.4 -0.2 6.4 1.25" fill="#ff8622" fill-rule="evenodd" stroke="none"/>
      <path d="M0.85 -6.05 L2.65 -7.35 Q6.2 -9.55 6.25 -7.65 6.25 -6.15 2.7 -3.5 0.1 -3.95 0.85 -6.05" fill="#6f9e42" fill-rule="evenodd" stroke="none"/>
      <path d="M2.7 -3.5 L-0.3 -1.5 Q-0.9 -1.45 -0.9 -3.15 -0.95 -4.55 0.85 -6.05 0.1 -3.95 2.7 -3.5" fill="#2b622f" fill-rule="evenodd" stroke="none"/>
      <path d="M4.5 -4.4 Q3.9 -3.65 2.3 -2.8 L-0.45 -1.45 -0.5 -1.5 2.65 -3.9 Q5.8 -6.05 5.8 -7.9 L5.65 -8.55 Q5.65 -8.95 6.0 -8.6 L6.3 -7.85 Q6.3 -6.6 4.5 -4.4" fill="#1e281e" fill-rule="evenodd" stroke="none"/>
      <path d="M5.75 -8.75 L5.95 -8.55 Q5.95 -8.4 2.65 -7.05 -0.7 -5.3 -0.7 -3.15 -0.7 -2.1 -0.35 -1.55 L-0.45 -1.5 Q-0.9 -1.5 -0.9 -3.4 -0.9 -5.35 1.75 -7.15 4.15 -8.75 5.75 -8.75" fill="#1e281e" fill-rule="evenodd" stroke="none"/>
      <path d="M3.95 -0.4 L3.75 0.0 Q3.6 0.2 3.35 0.2 3.1 0.2 2.9 0.0 2.75 -0.15 2.75 -0.4 L2.9 -0.85 3.35 -1.0 3.75 -0.85 3.95 -0.4" fill="#eb5127" fill-rule="evenodd" stroke="none"/>
      <path d="M2.85 2.2 L2.6 2.7 2.1 2.95 1.6 2.7 1.35 2.2 1.6 1.7 Q1.85 1.45 2.1 1.45 2.35 1.45 2.6 1.7 L2.85 2.2" fill="#eb5127" fill-rule="evenodd" stroke="none"/>
      <path d="M6.0 2.55 L5.85 2.95 5.45 3.1 5.1 2.95 4.9 2.55 5.1 2.2 Q5.3 2.0 5.45 2.0 L5.85 2.2 6.0 2.55" fill="#eb5127" fill-rule="evenodd" stroke="none"/>
      <path d="M-2.1 2.1 L-2.25 2.4 Q-2.35 2.55 -2.55 2.55 L-2.9 2.4 -3.0 2.1 -2.9 1.75 -2.55 1.65 -2.25 1.75 -2.1 2.1" fill="#ffedaf" fill-rule="evenodd" stroke="none"/>
      <path d="M-5.35 0.35 L-5.5 0.7 -5.85 0.85 -6.2 0.7 -6.35 0.35 -6.2 0.0 -5.85 -0.15 -5.5 0.0 Q-5.35 0.15 -5.35 0.35" fill="#ffedaf" fill-rule="evenodd" stroke="none"/>
      <path d="M-2.7 -0.5 L-2.85 -0.15 -3.2 0.0 Q-3.4 0.0 -3.55 -0.15 L-3.7 -0.5 -3.55 -0.85 -3.2 -1.0 -2.85 -0.85 -2.7 -0.5" fill="#ffedaf" fill-rule="evenodd" stroke="none"/>
      <path d="M-0.05 0.05 L-0.2 0.35 -0.5 0.5 -0.85 0.35 -0.95 0.05 -0.85 -0.3 -0.5 -0.4 -0.2 -0.3 -0.05 0.05" fill="#ffedaf" fill-rule="evenodd" stroke="none"/>
      <path d="M-4.75 1.3 L-4.9 1.6 -5.2 1.75 -5.55 1.6 -5.65 1.3 -5.55 0.95 -5.2 0.85 Q-5.0 0.85 -4.9 0.95 -4.75 1.1 -4.75 1.3" fill="#ffedaf" fill-rule="evenodd" stroke="none"/>
      <path d="M3.05 6.65 L3.25 7.05 Q3.4 7.25 3.65 7.25 3.9 7.25 4.1 7.05 L4.25 6.65 4.1 6.2 3.65 6.05 3.25 6.2 3.05 6.65" fill="#c13300" fill-rule="evenodd" stroke="none"/>
      <path d="M-0.2 6.55 L-0.3 6.75 -0.2 6.95 0.0 7.05 0.2 6.95 0.3 6.75 0.2 6.55 0.0 6.45 -0.2 6.55" fill="#c13300" fill-rule="evenodd" stroke="none"/>
      <path d="M0.9 5.1 L1.1 5.5 Q1.25 5.7 1.5 5.7 1.75 5.7 1.95 5.5 L2.1 5.1 1.95 4.65 1.5 4.5 Q1.25 4.5 1.1 4.65 L0.9 5.1" fill="#c13300" fill-rule="evenodd" stroke="none"/>
      <path d="M-4.35 6.85 L-4.15 7.3 -3.7 7.5 -3.25 7.3 -3.05 6.85 -3.25 6.4 -3.7 6.2 -4.15 6.4 -4.35 6.85" fill="#c13300" fill-rule="evenodd" stroke="none"/>
    </g>
    <g id="sprite4">
      <use ffdec:characterId="11" height="14.05" transform="matrix(1.0, 0.0, 0.0, 1.0, 0.0, 0.0)" width="21.85" xlink:href="#shape6"/>
    </g>
    <g id="shape6">
      <path d="M-10.45 4.75 Q-5.95 4.75 -3.7 2.65 L-1.05 -0.05 Q-10.95 1.35 -10.1 -2.4 -9.3 -6.15 -6.1 -6.35 -2.95 -6.5 -1.9 -4.15 -0.9 -1.75 -0.15 -0.6 3.3 -6.0 6.85 -5.75 10.3 -5.5 10.4 -2.9 10.5 -0.2 7.4 0.85 4.25 1.9 0.4 0.05 1.5 3.9 4.35 4.75 L8.9 5.05 M-1.05 -0.05 L-0.15 -0.6 0.4 0.05 -1.05 -0.05 Z" fill="none" stroke="#701010" stroke-linecap="round" stroke-linejoin="round" stroke-width="1.0"/>
      <path d="M-6.55 -5.85 Q-8.65 -5.45 -9.5 -3.95 -10.35 -2.45 -10.1 -1.45 -9.85 -0.45 -9.35 0.0 -8.3 1.25 -5.95 1.25 L-2.0 0.8 -0.5 0.4 -0.25 0.3 -0.2 0.2 Q-0.15 -1.1 -2.35 -3.7 -4.5 -6.35 -6.55 -5.85 M-0.3 0.35 L-0.1 0.3 -0.25 0.3 -0.3 0.35 -0.55 0.85 1.05 3.15 Q3.5 6.1 8.35 6.1 M-0.1 0.3 L-0.2 0.2 0.95 -1.85 Q1.9 -3.55 3.75 -5.15 5.55 -6.85 7.55 -6.45 9.5 -6.05 10.0 -3.5 10.55 -0.9 7.05 0.1 L-0.1 0.3 M-0.5 0.4 L-0.3 0.35 M-8.0 6.5 Q-5.1 6.05 -2.95 3.7 L-0.55 0.85 -0.5 0.4" fill="none" stroke="#c71010" stroke-linecap="round" stroke-linejoin="round" stroke-width="1.0"/>
      <path d="M-5.95 -5.1 Q-7.6 -5.5 -9.1 -3.8 -10.65 -2.2 -10.2 -0.95 -9.75 0.25 -8.25 1.3 -6.8 2.35 -4.45 1.7 -2.05 1.0 -1.25 0.3 L-0.6 -0.45 -3.0 -3.25 Q-4.4 -4.65 -5.95 -5.1 M9.25 3.85 L5.05 4.1 Q3.0 3.55 1.45 2.05 -0.15 0.65 -0.4 -0.15 -2.3 2.35 -3.35 3.25 -4.35 4.15 -5.45 4.65 -6.6 5.2 -8.65 5.35 M-0.4 -0.15 L-0.6 -0.45 1.9 -3.3 Q3.05 -4.45 4.7 -4.9 L7.95 -4.65 Q9.5 -4.0 10.05 -2.45 10.6 -0.95 9.55 0.3 8.3 1.55 6.0 1.75 3.75 1.95 1.95 1.15 0.15 0.35 -0.4 -0.15 Z" fill="none" stroke="#ff1f1f" stroke-linecap="round" stroke-linejoin="round" stroke-width="1.0"/>
    </g>
  </defs>
</svg>
