<?xml version="1.0" encoding="UTF-8" standalone="no"?>
<svg xmlns:ffdec="https://www.free-decompiler.com/flash" xmlns:xlink="http://www.w3.org/1999/xlink" ffdec:objectType="frame" height="36.5px" width="54.05px" xmlns="http://www.w3.org/2000/svg">
  <g transform="matrix(1.0, 0.0, 0.0, 1.0, 27.0, 31.75)">
    <use ffdec:characterId="3" height="18.55" transform="matrix(1.0, 0.0, 0.0, 1.0, 0.0, -4.5)" width="43.35" xlink:href="#shape0"/>
    <use ffdec:characterId="5" height="24.35" transform="matrix(1.0, 0.0, 0.0, 1.0, -27.0, -19.6)" width="9.8" xlink:href="#sprite0"/>
    <use ffdec:characterId="5" height="24.35" transform="matrix(-1.0, 0.0, 0.0, 1.0, 27.05, -19.6)" width="9.8" xlink:href="#sprite1"/>
    <use ffdec:characterId="12" height="17.45" transform="matrix(1.0, 0.0, 0.0, 1.0, 0.0, 0.0)" width="24.55" xlink:href="#shape3"/>
  </g>
  <defs>
    <g id="shape0">
      <path d="M-15.55 -14.95 Q-9.1 -19.6 -0.05 -19.6 8.95 -19.6 15.4 -14.95 17.75 -13.25 19.2 -11.3 L20.05 -9.7 Q21.8 -5.85 19.5 -3.6 L18.7 -4.35 Q18.3 -4.6 18.1 -4.8 L16.8 -5.75 13.9 -7.4 Q12.0 -8.45 8.5 -9.0 L8.4 -9.0 6.65 -8.7 Q6.0 -8.45 4.5 -7.35 3.15 -6.35 0.95 -6.0 L0.0 -6.0 -0.1 -6.0 -1.1 -6.0 Q-3.3 -6.4 -4.65 -7.35 L-6.8 -8.7 -8.55 -9.0 -8.6 -9.0 Q-12.15 -8.45 -14.05 -7.4 L-14.0 -7.4 -16.8 -5.6 -16.75 -5.6 -17.85 -4.55 -17.85 -4.5 -18.15 -4.25 -18.2 -4.2 -18.65 -3.55 Q-21.1 -6.3 -19.95 -9.6 -19.55 -10.85 -18.6 -12.2 L-18.6 -12.15 -15.55 -14.95" fill="#ffde00" fill-rule="evenodd" stroke="none"/>
      <path d="M-21.3 -8.2 L-21.25 -8.2 -21.1 -8.25 -21.0 -8.4 Q-20.75 -10.4 -19.2 -12.6 L-19.15 -12.65 Q-17.85 -14.15 -16.0 -15.55 -9.4 -20.35 -0.05 -20.35 9.25 -20.35 15.85 -15.55 18.25 -13.8 19.75 -11.8 L19.9 -11.6 21.25 -8.65 21.4 -8.5 21.55 -8.5 Q22.65 -4.7 19.7 -2.45 L19.45 -2.35 19.2 -2.4 19.0 -2.6 18.2 -3.5 17.4 -4.1 16.25 -4.9 13.45 -6.5 13.4 -6.5 Q11.6 -7.45 8.35 -8.0 L7.05 -7.8 5.1 -6.55 Q3.55 -5.45 1.1 -5.0 L1.05 -5.0 -0.05 -5.0 -1.2 -5.0 Q-3.7 -5.45 -5.25 -6.55 L-7.2 -7.8 -8.45 -8.0 Q-11.75 -7.45 -13.55 -6.5 -15.4 -5.55 -16.1 -4.85 L-17.1 -3.85 -17.15 -3.85 -17.4 -3.6 -18.25 -2.45 -18.5 -2.3 -18.75 -2.3 -19.0 -2.45 Q-21.65 -5.1 -21.3 -8.2 M-15.55 -14.95 L-18.6 -12.15 -18.6 -12.2 Q-19.55 -10.85 -19.95 -9.6 -21.1 -6.3 -18.65 -3.55 L-18.2 -4.2 -18.15 -4.25 -17.85 -4.5 -17.85 -4.55 -16.75 -5.6 -16.8 -5.6 -14.0 -7.4 -14.05 -7.4 Q-12.15 -8.45 -8.6 -9.0 L-8.55 -9.0 -6.8 -8.7 -4.65 -7.35 Q-3.3 -6.4 -1.1 -6.0 L-0.1 -6.0 0.0 -6.0 0.95 -6.0 Q3.15 -6.35 4.5 -7.35 6.0 -8.45 6.65 -8.7 L8.4 -9.0 8.5 -9.0 Q12.0 -8.45 13.9 -7.4 L16.8 -5.75 18.1 -4.8 Q18.3 -4.6 18.7 -4.35 L19.5 -3.6 Q21.8 -5.85 20.05 -9.7 L19.2 -11.3 Q17.75 -13.25 15.4 -14.95 8.95 -19.6 -0.05 -19.6 -9.1 -19.6 -15.55 -14.95" fill="#ff6000" fill-rule="evenodd" stroke="none"/>
      <path d="M21.55 -8.5 L21.4 -8.5 21.25 -8.65 19.9 -11.6 19.75 -11.8 Q18.25 -13.8 15.85 -15.55 9.25 -20.35 -0.05 -20.35 -9.4 -20.35 -16.0 -15.55 -17.85 -14.15 -19.15 -12.65 L-19.2 -12.6 Q-20.75 -10.4 -21.0 -8.4 L-21.1 -8.25 -21.25 -8.2 -21.3 -8.2 -21.45 -8.3 -21.5 -8.45 Q-21.25 -10.55 -19.65 -12.85 L-19.45 -13.0 Q-18.2 -14.55 -16.3 -15.95 -9.6 -20.85 -0.05 -20.85 9.45 -20.85 16.15 -15.95 18.6 -14.15 20.2 -12.05 L20.3 -11.95 21.75 -8.8 21.75 -8.6 21.6 -8.5 21.55 -8.5" fill="#70190b" fill-rule="evenodd" stroke="none"/>
      <path d="M19.4 -2.85 Q18.9 -3.7 18.45 -3.95 L17.75 -4.45 16.5 -5.35 13.65 -6.95 Q11.8 -7.95 8.4 -8.5 L6.85 -8.25 Q6.25 -8.0 4.8 -6.95 3.35 -5.9 1.0 -5.5 L-0.05 -5.5 -1.15 -5.5 Q-3.5 -5.9 -4.95 -6.95 -6.4 -8.0 -7.0 -8.25 L-8.55 -8.5 Q-11.95 -7.95 -13.8 -6.95 L-16.45 -5.25 -17.5 -4.2 -17.8 -3.9 -18.65 -2.8 -19.3 -3.55 -17.6 -5.45 Q-16.35 -6.7 -13.0 -8.4 -9.65 -10.1 -8.35 -10.25 L-6.5 -10.2 Q-6.0 -10.0 -4.85 -8.15 -3.7 -6.3 -0.7 -6.1 2.3 -5.9 3.65 -7.4 L5.35 -9.5 Q5.7 -10.15 7.15 -10.35 8.6 -10.55 11.75 -8.9 14.85 -7.25 16.25 -6.2 L18.45 -4.35 19.4 -2.85" fill="#ff8f00" fill-rule="evenodd" stroke="none"/>
    </g>
    <g id="sprite0">
      <use ffdec:characterId="4" height="24.35" transform="matrix(1.0, 0.0, 0.0, 1.0, 0.0, 0.0)" width="9.8" xlink:href="#shape1"/>
    </g>
    <g id="shape1">
      <path d="M5.05 23.35 L3.95 22.85 Q3.3 22.0 2.1 18.95 0.85 15.75 0.6 12.25 0.35 8.7 1.2 6.4 2.05 4.0 3.7 2.45 5.2 0.9 7.15 0.55 8.05 1.15 8.2 1.7 8.35 2.1 7.85 2.6 L7.8 2.7 Q7.2 3.95 7.35 5.55 7.45 7.25 8.3 8.7 L8.3 8.65 9.25 10.35 9.25 10.3 9.25 10.7 Q8.95 11.0 8.0 12.4 6.85 13.8 6.35 16.3 5.85 18.55 6.15 21.1 L6.6 23.85 5.1 23.35 5.05 23.35" fill="#c02900" fill-rule="evenodd" stroke="none"/>
      <path d="M3.7 23.3 L3.6 23.2 Q2.95 22.35 1.65 19.1 0.35 15.85 0.1 12.25 -0.2 8.6 0.7 6.2 1.6 3.7 3.3 2.1 L3.35 2.15 Q5.0 0.4 7.15 0.0 L7.3 0.05 Q8.45 0.8 8.7 1.5 8.95 2.25 8.3 2.95 7.7 4.1 7.85 5.55 7.95 7.15 8.75 8.4 L9.7 10.1 9.65 11.0 9.65 11.05 8.4 12.7 Q7.4 14.1 6.85 16.4 6.35 18.65 6.65 21.05 L7.15 24.0 7.15 24.2 7.0 24.3 Q6.35 24.5 4.9 23.85 L3.7 23.3 M5.05 23.35 L5.1 23.35 6.6 23.85 6.15 21.1 Q5.85 18.55 6.35 16.3 6.85 13.8 8.0 12.4 8.95 11.0 9.25 10.7 L9.25 10.3 9.25 10.35 8.3 8.65 8.3 8.7 Q7.45 7.25 7.35 5.55 7.2 3.95 7.8 2.7 L7.85 2.6 Q8.35 2.1 8.2 1.7 8.05 1.15 7.15 0.55 5.2 0.9 3.7 2.45 2.05 4.0 1.2 6.4 0.35 8.7 0.6 12.25 0.85 15.75 2.1 18.95 3.3 22.0 3.95 22.85 L5.05 23.35" fill="#70190c" fill-rule="evenodd" stroke="none"/>
      <path d="M7.55 1.15 Q8.0 1.45 7.8 2.05 L7.3 3.3 Q7.0 3.9 7.15 5.55 7.25 7.15 8.1 8.45 L9.3 10.45 Q7.95 10.2 6.65 9.45 5.35 8.65 5.5 6.8 5.6 4.9 5.25 3.75 5.05 1.45 6.1 1.15 7.1 0.8 7.55 1.15" fill="#ffde00" fill-rule="evenodd" stroke="none"/>
      <path d="M4.95 5.3 Q5.25 7.3 5.9 8.3 6.6 9.25 6.55 9.65 L5.35 12.1 Q4.15 14.3 3.8 16.9 3.4 19.55 3.45 21.3 0.95 15.8 0.65 12.55 0.35 9.25 0.85 7.85 L1.95 5.1 Q2.55 3.75 4.5 1.9 6.2 0.75 5.5 2.05 4.6 3.65 4.95 5.3" fill="#ff6500" fill-rule="evenodd" stroke="none"/>
      <path d="M6.95 9.9 L9.05 10.6 Q6.85 10.6 5.7 12.05 L5.3 12.7 5.9 11.2 Q6.35 10.5 6.95 9.9" fill="#001961" fill-rule="evenodd" stroke="none"/>
      <path d="M5.4 1.2 L5.8 1.35 Q6.3 1.95 5.95 2.8 5.6 3.5 5.55 4.35 5.3 6.55 6.3 8.65 L6.75 9.7 Q5.9 10.5 4.7 13.3 3.9 15.05 3.6 17.85 3.75 13.7 3.55 11.55 L3.15 9.8 2.55 8.7 Q1.95 7.85 1.35 8.25 0.65 8.7 0.55 10.35 0.65 7.85 1.2 6.25 1.85 4.3 3.55 2.55 L4.15 1.95 4.5 1.7 Q5.05 1.25 5.4 1.2" fill="#ffa000" fill-rule="evenodd" stroke="none"/>
      <path d="M5.4 1.2 L5.8 1.35 Q6.3 1.95 5.95 2.8 5.6 3.5 5.55 4.35 5.3 6.55 6.3 8.65 L6.75 9.7" ffdec:has-small-stroke="true" ffdec:original-stroke-width="0.5" fill="none" stroke="#fffd00" stroke-linecap="round" stroke-linejoin="round" stroke-width="1.0"/>
      <path d="M7.6 11.3 Q8.25 11.2 7.8 11.95 7.3 12.65 6.5 14.9 5.7 17.1 5.8 19.1 5.85 20.85 6.25 22.95 4.45 19.2 4.7 16.7 4.9 14.15 5.8 12.9 6.65 11.65 7.6 11.3" fill="#ff2300" fill-rule="evenodd" stroke="none"/>
    </g>
    <g id="sprite1">
      <use ffdec:characterId="4" height="24.35" transform="matrix(1.0, 0.0, 0.0, 1.0, 0.0, 0.0)" width="9.8" xlink:href="#shape2"/>
    </g>
    <g id="shape2">
      <path d="M5.05 23.35 L3.95 22.85 Q3.3 22.0 2.1 18.95 0.85 15.75 0.6 12.25 0.35 8.7 1.2 6.4 2.05 4.0 3.7 2.45 5.2 0.9 7.15 0.55 8.05 1.15 8.2 1.7 8.35 2.1 7.85 2.6 L7.8 2.7 Q7.2 3.95 7.35 5.55 7.45 7.25 8.3 8.7 L8.3 8.65 9.25 10.35 9.25 10.3 9.25 10.7 Q8.95 11.0 8.0 12.4 6.85 13.8 6.35 16.3 5.85 18.55 6.15 21.1 L6.6 23.85 5.1 23.35 5.05 23.35" fill="#c02900" fill-rule="evenodd" stroke="none"/>
      <path d="M3.7 23.3 L3.6 23.2 Q2.95 22.35 1.65 19.1 0.35 15.85 0.1 12.25 -0.2 8.6 0.7 6.2 1.6 3.7 3.3 2.1 L3.35 2.15 Q5.0 0.4 7.15 0.0 L7.3 0.05 Q8.45 0.8 8.7 1.5 8.95 2.25 8.3 2.95 7.7 4.1 7.85 5.55 7.95 7.15 8.75 8.4 L9.7 10.1 9.65 11.0 9.65 11.05 8.4 12.7 Q7.4 14.1 6.85 16.4 6.35 18.65 6.65 21.05 L7.15 24.0 7.15 24.2 7.0 24.3 Q6.35 24.5 4.9 23.85 L3.7 23.3 M5.05 23.35 L5.1 23.35 6.6 23.85 6.15 21.1 Q5.85 18.55 6.35 16.3 6.85 13.8 8.0 12.4 8.95 11.0 9.25 10.7 L9.25 10.3 9.25 10.35 8.3 8.65 8.3 8.7 Q7.45 7.25 7.35 5.55 7.2 3.95 7.8 2.7 L7.85 2.6 Q8.35 2.1 8.2 1.7 8.05 1.15 7.15 0.55 5.2 0.9 3.7 2.45 2.05 4.0 1.2 6.4 0.35 8.7 0.6 12.25 0.85 15.75 2.1 18.95 3.3 22.0 3.95 22.85 L5.05 23.35" fill="#70190c" fill-rule="evenodd" stroke="none"/>
      <path d="M7.55 1.15 Q8.0 1.45 7.8 2.05 L7.3 3.3 Q7.0 3.9 7.15 5.55 7.25 7.15 8.1 8.45 L9.3 10.45 Q7.95 10.2 6.65 9.45 5.35 8.65 5.5 6.8 5.6 4.9 5.25 3.75 5.05 1.45 6.1 1.15 7.1 0.8 7.55 1.15" fill="#ffde00" fill-rule="evenodd" stroke="none"/>
      <path d="M4.95 5.3 Q5.25 7.3 5.9 8.3 6.6 9.25 6.55 9.65 L5.35 12.1 Q4.15 14.3 3.8 16.9 3.4 19.55 3.45 21.3 0.95 15.8 0.65 12.55 0.35 9.25 0.85 7.85 L1.95 5.1 Q2.55 3.75 4.5 1.9 6.2 0.75 5.5 2.05 4.6 3.65 4.95 5.3" fill="#ff6500" fill-rule="evenodd" stroke="none"/>
      <path d="M6.95 9.9 L9.05 10.6 Q6.85 10.6 5.7 12.05 L5.3 12.7 5.9 11.2 Q6.35 10.5 6.95 9.9" fill="#001961" fill-rule="evenodd" stroke="none"/>
      <path d="M5.4 1.2 L5.8 1.35 Q6.3 1.95 5.95 2.8 5.6 3.5 5.55 4.35 5.3 6.55 6.3 8.65 L6.75 9.7 Q5.9 10.5 4.7 13.3 3.9 15.05 3.6 17.85 3.75 13.7 3.55 11.55 L3.15 9.8 2.55 8.7 Q1.95 7.85 1.35 8.25 0.65 8.7 0.55 10.35 0.65 7.85 1.2 6.25 1.85 4.3 3.55 2.55 L4.15 1.95 4.5 1.7 Q5.05 1.25 5.4 1.2" fill="#ffa000" fill-rule="evenodd" stroke="none"/>
      <path d="M5.4 1.2 L5.8 1.35 Q6.3 1.95 5.95 2.8 5.6 3.5 5.55 4.35 5.3 6.55 6.3 8.65 L6.75 9.7" ffdec:has-small-stroke="true" ffdec:original-stroke-width="0.5" fill="none" stroke="#fffd00" stroke-linecap="round" stroke-linejoin="round" stroke-width="1.0"/>
      <path d="M7.6 11.3 Q8.25 11.2 7.8 11.95 7.3 12.65 6.5 14.9 5.7 17.1 5.8 19.1 5.85 20.85 6.25 22.95 4.45 19.2 4.7 16.7 4.9 14.15 5.8 12.9 6.65 11.65 7.6 11.3" fill="#ff2300" fill-rule="evenodd" stroke="none"/>
    </g>
    <g id="shape3">
      <path d="M-2.05 -21.05 Q-1.6 -19.65 -3.45 -17.9 -5.2 -16.1 -8.25 -15.1 -11.3 -14.05 -13.8 -14.4 -16.3 -14.65 -16.75 -16.05 -17.25 -17.5 -15.45 -19.3 -13.65 -21.0 -10.6 -22.05 -7.55 -23.05 -5.1 -22.8 -2.55 -22.5 -2.05 -21.05" fill="#fffbd0" fill-rule="evenodd" stroke="none"/>
      <path d="M7.2 -25.05 L7.1 -23.75 4.85 -22.4 4.75 -22.3 4.75 -22.1 5.0 -20.65 4.7 -19.0 Q0.2 -17.6 -4.05 -18.95 -4.4 -19.7 -4.4 -20.65 -4.4 -21.5 -4.05 -22.2 L-4.05 -22.4 -4.2 -22.5 -6.45 -23.75 -6.6 -25.05 Q-6.6 -27.65 -4.6 -29.45 -2.55 -31.3 0.3 -31.3 3.15 -31.3 5.2 -29.45 7.2 -27.65 7.2 -25.05" fill="#ff6500" fill-rule="evenodd" stroke="none"/>
      <path d="M7.55 -23.55 L7.45 -23.45 Q6.35 -22.65 5.25 -22.1 L5.45 -20.65 Q5.45 -19.6 5.1 -18.75 L5.05 -18.65 4.95 -18.6 Q0.2 -17.1 -4.3 -18.6 L-4.4 -18.65 -4.45 -18.75 Q-4.85 -19.6 -4.85 -20.65 L-4.6 -22.15 Q-5.7 -22.7 -6.8 -23.45 L-6.9 -23.55 -7.1 -25.05 Q-7.1 -27.85 -4.9 -29.8 -2.75 -31.75 0.3 -31.75 3.35 -31.75 5.5 -29.8 7.7 -27.85 7.7 -25.05 L7.55 -23.55 M7.2 -25.05 Q7.2 -27.65 5.2 -29.45 3.15 -31.3 0.3 -31.3 -2.55 -31.3 -4.6 -29.45 -6.6 -27.65 -6.6 -25.05 L-6.45 -23.75 -4.2 -22.5 -4.05 -22.4 -4.05 -22.2 Q-4.4 -21.5 -4.4 -20.65 -4.4 -19.7 -4.05 -18.95 0.2 -17.6 4.7 -19.0 L5.0 -20.65 4.75 -22.1 4.75 -22.3 4.85 -22.4 7.1 -23.75 7.2 -25.05" fill="#70190b" fill-rule="evenodd" stroke="none"/>
      <path d="M5.4 -26.5 Q4.9 -24.35 2.7 -25.95 0.45 -27.65 -0.45 -27.15 L-2.75 -25.75 Q-4.2 -24.8 -4.7 -26.45 -5.25 -28.05 -3.9 -29.2 -2.65 -30.35 -0.6 -30.7 1.4 -31.15 3.65 -29.9 5.85 -28.65 5.4 -26.5" fill="#ffde00" fill-rule="evenodd" stroke="none"/>
      <path d="M-2.8 -21.35 Q-1.5 -22.7 0.3 -22.7 2.1 -22.7 3.35 -21.35 4.4 -20.25 4.6 -18.8 0.9 -17.5 -4.0 -18.8 -3.75 -20.25 -2.8 -21.35" fill="#c02900" fill-rule="evenodd" stroke="none"/>
      <path d="M2.35 -24.75 Q3.25 -22.2 2.9 -22.15 L1.6 -22.5 -0.8 -22.65 Q-2.25 -22.4 -3.8 -20.35 -2.1 -27.0 -0.35 -27.15 1.4 -27.3 2.35 -24.75" fill="#ffde00" fill-rule="evenodd" stroke="none"/>
      <path d="M4.2 -24.8 L2.5 -26.1 Q-0.1 -27.4 -2.45 -25.75 L-2.95 -25.35 -3.7 -26.25 Q-3.15 -27.0 -2.15 -27.45 L2.2 -27.7 Q4.15 -27.15 5.1 -25.5 L4.2 -24.8" fill="#ffffff" fill-rule="evenodd" stroke="none"/>
      <path d="M5.1 -25.5 L5.7 -23.65 5.7 -23.0 5.05 -22.3 Q5.0 -23.8 4.2 -24.8 L5.1 -25.5 M-2.95 -25.35 L-4.35 -23.65 Q-4.5 -25.2 -3.7 -26.25 L-2.95 -25.35" fill="#c3c3c3" fill-rule="evenodd" stroke="none"/>
      <path d="M5.1 -25.5 L5.7 -23.65 5.7 -23.0 5.05 -22.3 Q5.0 -23.8 4.2 -24.8 L2.5 -26.1 Q-0.1 -27.4 -2.45 -25.75 L-2.95 -25.35 -4.35 -23.65 Q-4.5 -25.2 -3.7 -26.25 -3.15 -27.0 -2.15 -27.45 L2.2 -27.7 Q4.15 -27.15 5.1 -25.5 Z" ffdec:has-small-stroke="true" ffdec:original-stroke-width="0.3" fill="none" stroke="#9a9a9a" stroke-linecap="round" stroke-linejoin="round" stroke-width="1.0"/>
      <path d="M0.55 -27.2 Q2.85 -27.35 4.65 -25.65 5.4 -24.95 4.8 -23.5 4.15 -24.55 3.15 -25.2 2.1 -25.9 0.8 -25.95 -0.5 -26.05 -1.85 -25.25 -3.25 -24.55 -3.75 -23.85 L-4.25 -23.05 Q-4.6 -23.55 -3.85 -24.65 -3.15 -25.85 -2.2 -26.35 L0.55 -27.2" fill="#ffffff" fill-rule="evenodd" stroke="none"/>
    </g>
  </defs>
</svg>
