<?xml version="1.0" encoding="UTF-8" standalone="no"?>
<svg xmlns:ffdec="https://www.free-decompiler.com/flash" xmlns:xlink="http://www.w3.org/1999/xlink" ffdec:objectType="morphshape" height="53.05px" width="225.55px" xmlns="http://www.w3.org/2000/svg">
  <g transform="matrix(1.0, 0.0, 0.0, 1.0, 0.0, 0.05)">
    <path d="M0.0 10.4 L0.0 41.95 Q6.95 52.45 25.0 53.0 L167.75 53.0 187.95 51.5 185.4 51.5 163.45 51.3 Q142.7 51.0 142.1 50.75 141.2 50.35 140.7 49.55 L140.15 48.75 Q139.9 48.3 139.9 47.5 139.9 43.85 145.5 43.5 L157.0 43.5 Q154.55 42.55 152.55 41.25 L152.05 40.8 151.05 40.8 Q128.8 40.5 128.15 40.25 127.25 39.85 126.75 39.05 L126.2 38.25 Q126.1 37.6 126.0 37.0 L125.5 36.05 Q126.2 35.3 132.25 34.75 149.55 33.1 211.75 32.8 L225.55 31.75 222.65 31.45 Q210.05 31.25 164.3 31.0 L162.15 30.55 160.45 29.8 Q158.7 28.35 158.7 27.0 158.1 26.4 158.35 25.85 159.0 24.9 163.65 24.2 177.25 22.2 223.3 22.95 L225.55 22.75 216.8 21.85 177.4 22.0 151.4 21.8 Q126.7 21.5 126.05 21.25 125.15 20.85 124.7 20.05 L124.1 19.25 123.9 18.0 123.35 17.05 137.15 16.5 216.9 13.8 224.15 13.25 204.75 11.4 167.3 11.5 135.6 11.3 Q105.1 11.0 104.5 10.75 103.6 10.35 103.1 9.55 L102.55 8.75 Q102.45 8.1 102.35 7.5 102.35 6.15 103.65 5.65 L122.95 5.05 Q140.85 4.9 216.0 3.35 186.0 0.45 155.6 0.05 L147.45 0.0 30.4 0.0 Q12.4 -0.85 0.0 10.4" fill="url(#gradient0)" fill-rule="evenodd" stroke="none">
      <animate attributeName="d" dur="2.0s" repeatCount="indefinite" values="M0.0 10.4 L0.0 41.95 Q6.95 52.45 25.0 53.0 L167.75 53.0 187.95 51.5 185.4 51.5 163.45 51.3 Q142.7 51.0 142.1 50.75 141.2 50.35 140.7 49.55 L140.15 48.75 Q139.9 48.3 139.9 47.5 139.9 43.85 145.5 43.5 L157.0 43.5 Q154.55 42.55 152.55 41.25 L152.05 40.8 151.05 40.8 Q128.8 40.5 128.15 40.25 127.25 39.85 126.75 39.05 L126.2 38.25 Q126.1 37.6 126.0 37.0 L125.5 36.05 Q126.2 35.3 132.25 34.75 149.55 33.1 211.75 32.8 L225.55 31.75 222.65 31.45 Q210.05 31.25 164.3 31.0 L162.15 30.55 160.45 29.8 Q158.7 28.35 158.7 27.0 158.1 26.4 158.35 25.85 159.0 24.9 163.65 24.2 177.25 22.2 223.3 22.95 L225.55 22.75 216.8 21.85 177.4 22.0 151.4 21.8 Q126.7 21.5 126.05 21.25 125.15 20.85 124.7 20.05 L124.1 19.25 123.9 18.0 123.35 17.05 137.15 16.5 216.9 13.8 224.15 13.25 204.75 11.4 167.3 11.5 135.6 11.3 Q105.1 11.0 104.5 10.75 103.6 10.35 103.1 9.55 L102.55 8.75 Q102.45 8.1 102.35 7.5 102.35 6.15 103.65 5.65 L122.95 5.05 Q140.85 4.9 216.0 3.35 186.0 0.45 155.6 0.05 L147.45 0.0 30.4 0.0 Q12.4 -0.85 0.0 10.4;M0.0 13.8 L0.0 41.85 Q1.85 49.9 14.5 53.0 L119.35 53.0 133.7 51.5 131.85 51.5 116.25 51.3 Q108.65 51.0 101.05 50.75 100.45 50.35 100.1 49.55 L99.7 48.75 Q99.55 48.3 99.55 47.5 99.55 43.85 103.5 43.5 L111.7 43.5 Q109.95 42.55 108.5 41.25 L108.15 40.8 107.5 40.8 Q99.3 40.5 91.15 40.25 90.55 39.85 90.15 39.05 L89.8 38.25 Q89.65 37.8 89.65 37.0 L89.25 36.05 Q89.8 35.3 94.15 34.75 122.45 33.75 150.7 32.8 L160.45 31.75 158.35 31.45 Q149.4 31.25 116.9 31.0 L115.3 30.55 114.15 29.8 Q112.9 28.35 112.9 27.0 112.5 26.4 112.7 25.85 113.1 24.9 116.45 24.2 126.1 22.2 158.9 22.95 L160.45 22.75 154.2 21.85 126.2 22.0 107.7 21.8 Q98.7 21.5 89.7 21.25 89.05 20.85 88.7 20.05 L88.25 19.25 88.15 18.0 87.75 17.05 97.55 16.5 154.3 13.8 159.45 13.25 145.65 11.4 119.0 11.5 96.5 11.3 Q74.75 11.0 74.35 10.75 73.7 10.35 73.35 9.55 L72.95 8.75 Q72.8 8.3 72.8 7.5 72.8 6.15 73.75 5.65 L87.45 5.05 Q100.15 4.9 153.65 3.35 132.3 0.45 110.65 0.05 L104.9 0.0 16.45 0.0 Q5.3 3.45 0.0 13.8"/>
    </path>
    <path d="M0.0 10.4 Q12.4 -0.85 30.4 0.0 L147.45 0.0 155.6 0.05 Q186.0 0.45 216.0 3.35 140.85 4.9 122.95 5.05 L103.65 5.65 Q102.35 6.15 102.35 7.5 102.45 8.1 102.55 8.75 L103.1 9.55 Q103.6 10.35 104.5 10.75 105.1 11.0 135.6 11.3 L167.3 11.5 204.75 11.4 224.15 13.25 216.9 13.8 137.15 16.5 123.35 17.05 123.9 18.0 124.1 19.25 124.7 20.05 Q125.15 20.85 126.05 21.25 126.7 21.5 151.4 21.8 L177.4 22.0 216.8 21.85 225.55 22.75 223.3 22.95 Q177.25 22.2 163.65 24.2 159.0 24.9 158.35 25.85 158.1 26.4 158.7 27.0 158.7 28.35 160.45 29.8 L162.15 30.55 164.3 31.0 Q210.05 31.25 222.65 31.45 L225.55 31.75 211.75 32.8 Q149.55 33.1 132.25 34.75 126.2 35.3 125.5 36.05 L126.0 37.0 Q126.1 37.6 126.2 38.25 L126.75 39.05 Q127.25 39.85 128.15 40.25 128.8 40.5 151.05 40.8 L152.05 40.8 152.55 41.25 Q154.55 42.55 157.0 43.5 L145.5 43.5 Q139.9 43.85 139.9 47.5 139.9 48.3 140.15 48.75 L140.7 49.55 Q141.2 50.35 142.1 50.75 142.7 51.0 163.45 51.3 L185.4 51.5 187.95 51.5 167.75 53.0 25.0 53.0 Q6.95 52.45 0.0 41.95 L0.0 10.4 Z" fill="none" stroke="#000000" stroke-linecap="round" stroke-linejoin="round" stroke-opacity="0.0" stroke-width="0.0">
      <animate attributeName="stroke" dur="2.0s" repeatCount="indefinite" values="#000000;#000001"/>
      <animate attributeName="stroke-width" dur="2.0s" repeatCount="indefinite" values="0.0;0.0"/>
      <animate attributeName="fill-opacity" dur="2.0s" repeatCount="indefinite" values="0.0;0.0"/>
      <animate attributeName="d" dur="2.0s" repeatCount="indefinite" values="M0.0 10.4 Q12.4 -0.85 30.4 0.0 L147.45 0.0 155.6 0.05 Q186.0 0.45 216.0 3.35 140.85 4.9 122.95 5.05 L103.65 5.65 Q102.35 6.15 102.35 7.5 102.45 8.1 102.55 8.75 L103.1 9.55 Q103.6 10.35 104.5 10.75 105.1 11.0 135.6 11.3 L167.3 11.5 204.75 11.4 224.15 13.25 216.9 13.8 137.15 16.5 123.35 17.05 123.9 18.0 124.1 19.25 124.7 20.05 Q125.15 20.85 126.05 21.25 126.7 21.5 151.4 21.8 L177.4 22.0 216.8 21.85 225.55 22.75 223.3 22.95 Q177.25 22.2 163.65 24.2 159.0 24.9 158.35 25.85 158.1 26.4 158.7 27.0 158.7 28.35 160.45 29.8 L162.15 30.55 164.3 31.0 Q210.05 31.25 222.65 31.45 L225.55 31.75 211.75 32.8 Q149.55 33.1 132.25 34.75 126.2 35.3 125.5 36.05 L126.0 37.0 Q126.1 37.6 126.2 38.25 L126.75 39.05 Q127.25 39.85 128.15 40.25 128.8 40.5 151.05 40.8 L152.05 40.8 152.55 41.25 Q154.55 42.55 157.0 43.5 L145.5 43.5 Q139.9 43.85 139.9 47.5 139.9 48.3 140.15 48.75 L140.7 49.55 Q141.2 50.35 142.1 50.75 142.7 51.0 163.45 51.3 L185.4 51.5 187.95 51.5 167.75 53.0 25.0 53.0 Q6.95 52.45 0.0 41.95 L0.0 10.4 Z;M0.0 13.8 Q5.3 3.45 16.45 0.0 L104.9 0.0 110.65 0.05 Q132.3 0.45 153.65 3.35 100.15 4.9 87.45 5.05 L73.75 5.65 Q72.8 6.15 72.8 7.5 72.8 8.3 72.95 8.75 L73.35 9.55 Q73.7 10.35 74.35 10.75 74.75 11.0 96.5 11.3 L119.0 11.5 145.65 11.4 159.45 13.25 154.3 13.8 97.55 16.5 87.75 17.05 88.15 18.0 88.25 19.25 88.7 20.05 Q89.05 20.85 89.7 21.25 98.7 21.5 107.7 21.8 L126.2 22.0 154.2 21.85 160.45 22.75 158.9 22.95 Q126.1 22.2 116.45 24.2 113.1 24.9 112.7 25.85 112.5 26.4 112.9 27.0 112.9 28.35 114.15 29.8 L115.3 30.55 116.9 31.0 Q149.4 31.25 158.35 31.45 L160.45 31.75 150.7 32.8 Q122.45 33.75 94.15 34.75 89.8 35.3 89.25 36.05 L89.65 37.0 Q89.65 37.8 89.8 38.25 L90.15 39.05 Q90.55 39.85 91.15 40.25 99.3 40.5 107.5 40.8 L108.15 40.8 108.5 41.25 Q109.95 42.55 111.7 43.5 L103.5 43.5 Q99.55 43.85 99.55 47.5 99.55 48.3 99.7 48.75 L100.1 49.55 Q100.45 50.35 101.05 50.75 108.65 51.0 116.25 51.3 L131.85 51.5 133.7 51.5 119.35 53.0 14.5 53.0 Q1.85 49.9 0.0 41.85 L0.0 13.8 Z"/>
    </path>
  </g>
  <defs>
    <linearGradient gradientTransform="matrix(0.1133, 0.0, 0.0, 0.0323, 100.7, 3.5)" gradientUnits="userSpaceOnUse" id="gradient0" spreadMethod="pad" x1="-819.2" x2="819.2">
      <animateTransform additive="replace" attributeName="gradientTransform" dur="2s" from="1" repeatCount="indefinite" to="1" type="scale"/>
      <animateTransform additive="sum" attributeName="gradientTransform" dur="2s" from="100.7 3.5" repeatCount="indefinite" to="100.7 3.5" type="translate"/>
      <animateTransform additive="sum" attributeName="gradientTransform" dur="2s" from="0.0" repeatCount="indefinite" to="0.0" type="rotate"/>
      <animateTransform additive="sum" attributeName="gradientTransform" dur="2s" from="0.1133 0.0323" repeatCount="indefinite" to="0.1133 0.0323" type="scale"/>
      <animateTransform additive="sum" attributeName="gradientTransform" dur="2s" from="0.0" repeatCount="indefinite" to="0.0" type="skewX"/>
      <stop offset="0.2235294117647059" stop-color="#ffffff">
        <animate attributeName="offset" dur="2.0s" repeatCount="indefinite" values="0.2235294117647059;0.2235294117647059"/>
        <animate attributeName="stop-color" dur="2.0s" repeatCount="indefinite" values="#ffffff;#ffffff"/>
        <animate attributeName="stop-opacity" dur="2.0s" repeatCount="indefinite" values="1.0;1.0"/>
      </stop>
      <stop offset="0.5450980392156862" stop-color="#ffffff">
        <animate attributeName="offset" dur="2.0s" repeatCount="indefinite" values="0.5450980392156862;0.5450980392156862"/>
        <animate attributeName="stop-color" dur="2.0s" repeatCount="indefinite" values="#ffffff;#ffffff"/>
        <animate attributeName="stop-opacity" dur="2.0s" repeatCount="indefinite" values="1.0;0.2"/>
      </stop>
      <stop offset="0.9450980392156862" stop-color="#ffffff">
        <animate attributeName="offset" dur="2.0s" repeatCount="indefinite" values="0.9450980392156862;0.9450980392156862"/>
        <animate attributeName="stop-color" dur="2.0s" repeatCount="indefinite" values="#ffffff;#ffffff"/>
        <animate attributeName="stop-opacity" dur="2.0s" repeatCount="indefinite" values="1.0;0.0"/>
      </stop>
    </linearGradient>
  </defs>
</svg>
