<?xml version="1.0" encoding="UTF-8" standalone="no"?>
<svg xmlns:ffdec="https://www.free-decompiler.com/flash" xmlns:xlink="http://www.w3.org/1999/xlink" ffdec:objectType="morphshape" height="45.0px" width="103.95px" xmlns="http://www.w3.org/2000/svg">
  <g transform="matrix(1.0, 0.0, 0.0, 1.0, 50.4, 16.75)">
    <path d="M-50.4 22.95 L-50.4 22.95 Q-50.35 24.45 -46.05 26.05 L-45.95 26.05 Q-40.65 28.0 -25.15 28.25 L-18.0 28.25 Q-2.4 28.05 14.9 21.05 21.65 18.3 28.65 14.55 38.5 9.3 44.45 5.35 50.75 1.15 52.7 -1.55 53.6 -2.8 53.55 -3.75 53.45 -8.25 50.1 -12.15 L49.65 -12.65 Q45.7 -16.75 38.75 -16.75 L38.0 -16.7 Q34.65 -16.35 26.85 -13.25 L26.85 -13.25 26.85 -13.25 Q25.0 -12.4 23.2 -11.6 17.3 -8.8 17.3 -6.7 17.3 -5.75 17.55 -5.85 L18.9 -5.6 19.75 -5.95 Q20.9 -6.55 22.0 -7.1 23.8 -8.05 26.35 -8.4 28.15 -8.55 29.95 -8.65 31.7 -8.7 31.75 -5.25 31.75 -2.05 15.7 7.1 L11.55 9.4 Q-5.0 18.5 -13.5 20.3 L-17.15 20.7 -21.15 20.45 Q-22.8 20.1 -24.4 19.75 -25.3 19.45 -26.15 19.2 -27.6 18.45 -27.65 16.95 -27.65 15.15 -23.85 13.65 L-21.55 12.85 -23.95 13.35 -26.5 13.9 Q-29.2 13.95 -30.0 15.65 -30.35 16.45 -30.35 17.55 -30.35 18.85 -29.45 19.8 -28.75 20.35 -28.1 20.85 L-24.15 22.7 -23.4 23.0 -22.85 23.25 -23.65 23.45 Q-25.0 24.4 -29.4 24.5 L-30.45 24.5 -43.25 23.9 -43.75 23.8 Q-46.75 23.1 -47.5 21.4 L-47.6 21.1 Q-48.3 19.1 -46.95 18.2 L-46.85 18.1 Q-45.6 17.15 -44.85 17.35 -44.0 17.6 -44.4 17.0 L-44.4 17.0 -45.15 16.8 -45.25 16.8 Q-47.2 16.85 -48.75 19.0 L-48.95 19.25 Q-50.4 21.1 -50.4 22.95" fill="url(#gradient0)" fill-rule="evenodd" stroke="none">
      <animate attributeName="d" dur="2.0s" repeatCount="indefinite" values="M-50.4 22.95 L-50.4 22.95 Q-50.35 24.45 -46.05 26.05 L-45.95 26.05 Q-40.65 28.0 -25.15 28.25 L-18.0 28.25 Q-2.4 28.05 14.9 21.05 21.65 18.3 28.65 14.55 38.5 9.3 44.45 5.35 50.75 1.15 52.7 -1.55 53.6 -2.8 53.55 -3.75 53.45 -8.25 50.1 -12.15 L49.65 -12.65 Q45.7 -16.75 38.75 -16.75 L38.0 -16.7 Q34.65 -16.35 26.85 -13.25 L26.85 -13.25 26.85 -13.25 Q25.0 -12.4 23.2 -11.6 17.3 -8.8 17.3 -6.7 17.3 -5.75 17.55 -5.85 L18.9 -5.6 19.75 -5.95 Q20.9 -6.55 22.0 -7.1 23.8 -8.05 26.35 -8.4 28.15 -8.55 29.95 -8.65 31.7 -8.7 31.75 -5.25 31.75 -2.05 15.7 7.1 L11.55 9.4 Q-5.0 18.5 -13.5 20.3 L-17.15 20.7 -21.15 20.45 Q-22.8 20.1 -24.4 19.75 -25.3 19.45 -26.15 19.2 -27.6 18.45 -27.65 16.95 -27.65 15.15 -23.85 13.65 L-21.55 12.85 -23.95 13.35 -26.5 13.9 Q-29.2 13.95 -30.0 15.65 -30.35 16.45 -30.35 17.55 -30.35 18.85 -29.45 19.8 -28.75 20.35 -28.1 20.85 L-24.15 22.7 -23.4 23.0 -22.85 23.25 -23.65 23.45 Q-25.0 24.4 -29.4 24.5 L-30.45 24.5 -43.25 23.9 -43.75 23.8 Q-46.75 23.1 -47.5 21.4 L-47.6 21.1 Q-48.3 19.1 -46.95 18.2 L-46.85 18.1 Q-45.6 17.15 -44.85 17.35 -44.0 17.6 -44.4 17.0 L-44.4 17.0 -45.15 16.8 -45.25 16.8 Q-47.2 16.85 -48.75 19.0 L-48.95 19.25 Q-50.4 21.1 -50.4 22.95;M-49.35 22.35 L-49.25 22.55 Q-48.2 23.65 -44.6 24.75 L-44.2 24.85 Q-34.25 25.4 -24.35 25.9 L-17.4 25.45 Q-3.95 23.85 13.4 15.85 21.15 12.3 26.85 9.15 37.35 3.3 40.9 -1.05 45.8 -6.95 45.7 -9.95 45.6 -11.05 45.5 -12.1 44.5 -16.75 38.75 -16.75 L38.25 -16.75 Q35.1 -16.5 27.55 -13.55 L26.85 -13.25 Q17.3 -9.35 17.3 -6.7 L17.3 -6.65 17.3 -6.5 Q18.05 -7.15 20.1 -8.25 23.9 -10.15 27.1 -10.85 27.6 -10.95 28.1 -11.05 L29.4 -11.2 30.45 -11.25 Q32.25 -11.25 33.1 -10.5 34.4 -9.35 33.45 -6.45 33.05 -5.3 31.6 -3.8 30.1 -2.5 28.65 -1.25 23.15 3.05 11.55 9.4 L7.3 11.65 Q-9.8 20.65 -17.15 20.7 L-20.6 20.55 -24.4 19.75 Q-26.25 19.45 -27.05 18.55 -27.65 17.9 -27.65 16.95 -27.65 15.85 -26.2 14.85 -24.7 13.8 -21.55 12.85 L-24.05 13.4 -26.5 13.9 -28.65 14.3 Q-30.4 15.15 -30.35 17.55 -30.35 18.65 -29.7 19.5 -28.9 20.2 -28.1 20.85 -27.55 21.15 -26.55 21.6 L-22.85 23.25 -23.65 23.45 -23.85 23.6 -24.7 23.95 Q-27.6 24.25 -30.45 24.5 L-31.45 24.5 -43.75 23.8 -44.2 23.7 Q-47.05 22.9 -47.6 21.1 L-47.7 20.85 Q-48.2 19.0 -46.85 18.1 L-46.75 18.0 Q-45.6 17.15 -44.8 17.35 -44.05 17.6 -44.35 17.1 L-44.4 17.0 -45.05 16.8 -45.15 16.8 Q-47.05 16.8 -48.55 18.8 L-48.75 19.0 Q-50.4 21.0 -49.35 22.35"/>
    </path>
    <path d="M-50.4 22.95 Q-50.4 21.1 -48.95 19.25 L-48.75 19.0 Q-47.2 16.85 -45.25 16.8 L-45.15 16.8 -44.4 17.0 -44.4 17.0 Q-44.0 17.6 -44.85 17.35 -45.6 17.15 -46.85 18.1 L-46.95 18.2 Q-48.3 19.1 -47.6 21.1 L-47.5 21.4 Q-46.75 23.1 -43.75 23.8 L-43.25 23.9 -30.45 24.5 -29.4 24.5 Q-25.0 24.4 -23.65 23.45 L-22.85 23.25 -23.4 23.0 -24.15 22.7 -28.1 20.85 Q-28.75 20.35 -29.45 19.8 -30.35 18.85 -30.35 17.55 -30.35 16.45 -30.0 15.65 -29.2 13.95 -26.5 13.9 L-23.95 13.35 -21.55 12.85 -23.85 13.65 Q-27.65 15.15 -27.65 16.95 -27.6 18.45 -26.15 19.2 -25.3 19.45 -24.4 19.75 -22.8 20.1 -21.15 20.45 L-17.15 20.7 -13.5 20.3 Q-5.0 18.5 11.55 9.4 L15.7 7.1 Q31.75 -2.05 31.75 -5.25 31.7 -8.7 29.95 -8.65 28.15 -8.55 26.35 -8.4 23.8 -8.05 22.0 -7.1 20.9 -6.55 19.75 -5.95 L18.9 -5.6 17.55 -5.85 Q17.3 -5.75 17.3 -6.7 17.3 -8.8 23.2 -11.6 25.0 -12.4 26.85 -13.25 L26.85 -13.25 26.85 -13.25 Q34.65 -16.35 38.0 -16.7 L38.75 -16.75 Q45.7 -16.75 49.65 -12.65 L50.1 -12.15 Q53.45 -8.25 53.55 -3.75 53.6 -2.8 52.7 -1.55 50.75 1.15 44.45 5.35 38.5 9.3 28.65 14.55 21.65 18.3 14.9 21.05 -2.4 28.05 -18.0 28.25 L-25.15 28.25 Q-40.65 28.0 -45.95 26.05 L-46.05 26.05 Q-50.35 24.45 -50.4 22.95 L-50.4 22.95 Z" fill="none" stroke="#000000" stroke-linecap="round" stroke-linejoin="round" stroke-opacity="0.0" stroke-width="0.0">
      <animate attributeName="stroke" dur="2.0s" repeatCount="indefinite" values="#000000;#000001"/>
      <animate attributeName="stroke-width" dur="2.0s" repeatCount="indefinite" values="0.0;0.0"/>
      <animate attributeName="fill-opacity" dur="2.0s" repeatCount="indefinite" values="0.0;0.0"/>
      <animate attributeName="d" dur="2.0s" repeatCount="indefinite" values="M-50.4 22.95 Q-50.4 21.1 -48.95 19.25 L-48.75 19.0 Q-47.2 16.85 -45.25 16.8 L-45.15 16.8 -44.4 17.0 -44.4 17.0 Q-44.0 17.6 -44.85 17.35 -45.6 17.15 -46.85 18.1 L-46.95 18.2 Q-48.3 19.1 -47.6 21.1 L-47.5 21.4 Q-46.75 23.1 -43.75 23.8 L-43.25 23.9 -30.45 24.5 -29.4 24.5 Q-25.0 24.4 -23.65 23.45 L-22.85 23.25 -23.4 23.0 -24.15 22.7 -28.1 20.85 Q-28.75 20.35 -29.45 19.8 -30.35 18.85 -30.35 17.55 -30.35 16.45 -30.0 15.65 -29.2 13.95 -26.5 13.9 L-23.95 13.35 -21.55 12.85 -23.85 13.65 Q-27.65 15.15 -27.65 16.95 -27.6 18.45 -26.15 19.2 -25.3 19.45 -24.4 19.75 -22.8 20.1 -21.15 20.45 L-17.15 20.7 -13.5 20.3 Q-5.0 18.5 11.55 9.4 L15.7 7.1 Q31.75 -2.05 31.75 -5.25 31.7 -8.7 29.95 -8.65 28.15 -8.55 26.35 -8.4 23.8 -8.05 22.0 -7.1 20.9 -6.55 19.75 -5.95 L18.9 -5.6 17.55 -5.85 Q17.3 -5.75 17.3 -6.7 17.3 -8.8 23.2 -11.6 25.0 -12.4 26.85 -13.25 L26.85 -13.25 26.85 -13.25 Q34.65 -16.35 38.0 -16.7 L38.75 -16.75 Q45.7 -16.75 49.65 -12.65 L50.1 -12.15 Q53.45 -8.25 53.55 -3.75 53.6 -2.8 52.7 -1.55 50.75 1.15 44.45 5.35 38.5 9.3 28.65 14.55 21.65 18.3 14.9 21.05 -2.4 28.05 -18.0 28.25 L-25.15 28.25 Q-40.65 28.0 -45.95 26.05 L-46.05 26.05 Q-50.35 24.45 -50.4 22.95 L-50.4 22.95 Z;M-49.35 22.35 Q-50.4 21.0 -48.75 19.0 L-48.55 18.8 Q-47.05 16.8 -45.15 16.8 L-45.05 16.8 -44.4 17.0 -44.35 17.1 Q-44.05 17.6 -44.8 17.35 -45.6 17.15 -46.75 18.0 L-46.85 18.1 Q-48.2 19.0 -47.7 20.85 L-47.6 21.1 Q-47.05 22.9 -44.2 23.7 L-43.75 23.8 -31.45 24.5 -30.45 24.5 Q-27.6 24.25 -24.7 23.95 L-23.85 23.6 -23.65 23.45 -22.85 23.25 -26.55 21.6 Q-27.55 21.15 -28.1 20.85 -28.9 20.2 -29.7 19.5 -30.35 18.65 -30.35 17.55 -30.4 15.15 -28.65 14.3 L-26.5 13.9 -24.05 13.4 -21.55 12.85 Q-24.7 13.8 -26.2 14.85 -27.65 15.85 -27.65 16.95 -27.65 17.9 -27.05 18.55 -26.25 19.45 -24.4 19.75 L-20.6 20.55 -17.15 20.7 Q-9.8 20.65 7.3 11.65 L11.55 9.4 Q23.15 3.05 28.65 -1.25 30.1 -2.5 31.6 -3.8 33.05 -5.3 33.45 -6.45 34.4 -9.35 33.1 -10.5 32.25 -11.25 30.45 -11.25 L29.4 -11.2 28.1 -11.05 Q27.6 -10.95 27.1 -10.85 23.9 -10.15 20.1 -8.25 18.05 -7.15 17.3 -6.5 L17.3 -6.65 17.3 -6.7 Q17.3 -9.35 26.85 -13.25 L27.55 -13.55 Q35.1 -16.5 38.25 -16.75 L38.75 -16.75 Q44.5 -16.75 45.5 -12.1 45.6 -11.05 45.7 -9.95 45.8 -6.95 40.9 -1.05 37.35 3.3 26.85 9.15 21.15 12.3 13.4 15.85 -3.95 23.85 -17.4 25.45 L-24.35 25.9 Q-34.25 25.4 -44.2 24.85 L-44.6 24.75 Q-48.2 23.65 -49.25 22.55 L-49.35 22.35 Z"/>
    </path>
  </g>
  <defs>
    <linearGradient gradientTransform="matrix(0.0249, -0.018, 0.016, 0.0221, 4.55, 7.05)" gradientUnits="userSpaceOnUse" id="gradient0" spreadMethod="pad" x1="-819.2" x2="819.2">
      <animateTransform additive="replace" attributeName="gradientTransform" dur="2s" from="1" repeatCount="indefinite" to="1" type="scale"/>
      <animateTransform additive="sum" attributeName="gradientTransform" dur="2s" from="4.55 7.05" repeatCount="indefinite" to="4.55 7.05" type="translate"/>
      <animateTransform additive="sum" attributeName="gradientTransform" dur="2s" from="-35.8351" repeatCount="indefinite" to="-35.8351" type="rotate"/>
      <animateTransform additive="sum" attributeName="gradientTransform" dur="2s" from="0.0308 0.0273" repeatCount="indefinite" to="0.0308 0.0273" type="scale"/>
      <animateTransform additive="sum" attributeName="gradientTransform" dur="2s" from="0.0138" repeatCount="indefinite" to="0.0138" type="skewX"/>
      <stop offset="0.0" stop-color="#ffffff">
        <animate attributeName="offset" dur="2.0s" repeatCount="indefinite" values="0.0;0.0"/>
        <animate attributeName="stop-color" dur="2.0s" repeatCount="indefinite" values="#ffffff;#ffffff"/>
        <animate attributeName="stop-opacity" dur="2.0s" repeatCount="indefinite" values="1.0;0.101960786"/>
      </stop>
      <stop offset="1.0" stop-color="#ffffff">
        <animate attributeName="offset" dur="2.0s" repeatCount="indefinite" values="1.0;1.0"/>
        <animate attributeName="stop-color" dur="2.0s" repeatCount="indefinite" values="#ffffff;#ffffff"/>
        <animate attributeName="stop-opacity" dur="2.0s" repeatCount="indefinite" values="1.0;1.0"/>
      </stop>
    </linearGradient>
  </defs>
</svg>
